<?xml version="1.0" encoding="UTF-8"?>
<!-- The Best Svg Icon site in the world: iconSvg.co, Visit us! https://iconsvg.co -->
<svg fill="#000000" width="800px" height="800px" version="1.1" viewBox="144 144 512 512" xmlns="http://www.w3.org/2000/svg">
 <g>
  <path d="m396.98 295.16v78.227c-0.003906 6.1211-4.9648 11.082-11.082 11.086h-18.32c-6.1211-0.003906-11.082-4.9648-11.086-11.086v-78.227c0.027344-6.1016 4.9805-11.039 11.086-11.039h18.32c6.1016 0 11.059 4.9375 11.082 11.039z"/>
  <path d="m490.05 257.01v116.38c0.011719 2.9375-1.1484 5.7539-3.2188 7.832-2.0703 2.0781-4.8828 3.25-7.8164 3.2539h-18.367c-2.9336-0.003906-5.7461-1.1758-7.8164-3.2539-2.0703-2.0781-3.2305-4.8945-3.2227-7.832v-116.38c0.003906-6.0938 4.9453-11.035 11.039-11.039h18.367c6.0938 0.003906 11.035 4.9453 11.035 11.039z"/>
  <path d="m350.41 340.96v32.426c-0.007812 6.1211-4.9648 11.082-11.086 11.086h-18.32c-6.1172-0.003906-11.078-4.9648-11.082-11.086v-32.426c0.023437-6.1016 4.9805-11.039 11.082-11.039h18.32c6.1055 0 11.059 4.9375 11.086 11.039z"/>
  <path d="m444.25 313.89v59.492c0.011719 2.9375-1.1484 5.7539-3.2188 7.832s-4.8828 3.25-7.8164 3.2539h-18.918c-6.1172-0.003906-11.078-4.9648-11.082-11.086v-59.492c0.023437-6.1055 4.9805-11.039 11.082-11.039h18.918c6.0938 0 11.035 4.9414 11.035 11.039z"/>
  <path d="m400 454.78c-6.0078-0.003906-12.012-0.40625-17.965-1.207-46.535-6.1328-86.715-35.605-106.55-78.148s-16.57-92.266 8.6523-131.85c25.223-39.586 68.91-63.551 115.85-63.551s90.629 23.965 115.85 63.551c25.219 39.586 28.484 89.309 8.6523 131.85-19.832 42.543-60.012 72.016-106.55 78.148-5.9453 0.80078-11.941 1.2031-17.941 1.207zm0-265.46c-43.805-0.03125-84.586 22.316-108.13 59.25-23.547 36.934-26.598 83.336-8.0859 123.04 18.516 39.695 56.023 67.188 99.449 72.887 11.121 1.5 22.391 1.5 33.508 0 43.426-5.6992 80.934-33.188 99.445-72.883 18.516-39.691 15.469-86.094-8.0703-123.03-23.543-36.938-64.32-59.285-108.12-59.262z"/>
  <path d="m417.35 485.4c-0.51172 0-1.0195-0.085938-1.5-0.25391-0.875-0.30078-1.7891-0.45703-2.7109-0.46094h-26.281c-0.92578 0.003906-1.8398 0.16016-2.7109 0.46094-1.4023 0.48437-2.9492 0.26172-4.1562-0.59375-1.207-0.85938-1.9258-2.25-1.9258-3.7305v-31.793c-0.003906-1.3203 0.56641-2.5781 1.5625-3.4492 0.99219-0.87109 2.3164-1.2695 3.625-1.0938 11.113 1.5 22.375 1.5 33.488 0 1.3125-0.17578 2.6328 0.22266 3.6289 1.0938 0.99219 0.87109 1.5625 2.1289 1.5625 3.4492v31.793c0 1.2148-0.48438 2.3789-1.3438 3.2383s-2.0234 1.3398-3.2383 1.3398zm-30.125-9.8789h25.547v-21.355c-8.4961 0.80469-17.051 0.80469-25.547 0z"/>
  <path d="m426.62 608.25c-6.8945 7.3711-16.543 11.551-26.637 11.543-10.094-0.003906-19.73-4.1953-26.621-11.574-6.8867-7.3828-10.406-17.285-9.7188-27.355l6.1289-89.406c0.30469-4.3203 2.2383-8.3711 5.4062-11.328 3.1719-2.957 7.3438-4.6016 11.68-4.6094h26.289c4.3281-0.003907 8.5 1.6328 11.672 4.582s5.1055 6.9922 5.4102 11.312l6.1367 89.449c0.67969 10.082-2.8477 20-9.7461 27.387z"/>
 </g>
</svg>