<?xml version="1.0" encoding="UTF-8"?>
<!-- The Best Svg Icon site in the world: iconSvg.co, Visit us! https://iconsvg.co -->
<svg fill="#000000" width="800px" height="800px" version="1.1" viewBox="144 144 512 512" xmlns="http://www.w3.org/2000/svg">
 <g>
  <path d="m456.55 169.1c-93.805 0-170.09 76.297-170.09 170.08 0 38.152 12.785 73.285 34.082 101.69l-139.6 144.26c-10.348 10.707-10.066 27.824 0.62891 38.195 5.2383 5.0586 12.02 7.5898 18.777 7.5898 7.0742 0 14.137-2.75 19.43-8.207l139.52-144.18c27.594 19.312 61.086 30.754 97.258 30.754 93.781 0 170.08-76.305 170.08-170.09 0-93.797-76.316-170.08-170.09-170.08zm-244.33 446.3c-6.3398 6.5391-16.836 6.707-23.363 0.36719-6.5391-6.3281-6.707-16.816-0.37891-23.355l138.59-143.22c7.1602 8.4062 15.105 16.07 23.754 22.965zm244.33-116.63c-88 0-159.59-71.594-159.59-159.59s71.594-159.58 159.59-159.58 159.57 71.582 159.57 159.58-71.582 159.59-159.57 159.59z"/>
  <path d="m556.07 287.74c-0.03125-0.17969 0-0.34766-0.050781-0.51563-0.19922-0.69141-0.51563-1.3633-1.0078-1.9609-0.49219-0.58594-1.0898-1.0273-1.7305-1.3438-0.1875-0.082031-0.38672-0.09375-0.57812-0.16797-0.51562-0.17969-1.0078-0.31641-1.5234-0.33594-0.082032 0-0.14844-0.050781-0.21875-0.050781h-37.207c-2.8984 0-5.2461 2.3516-5.2461 5.2461 0 2.8984 2.3516 5.2461 5.2461 5.2461h22.672l-81.387 67.574-25.441-57.055c-0.67187-1.5312-2.0664-2.6562-3.7148-3-1.6367-0.35547-3.3711 0.125-4.6094 1.2578l-77.902 70.953c-2.1406 1.9531-2.2969 5.2695-0.34766 7.4219 1.0508 1.1328 2.457 1.7109 3.8828 1.7109 1.2578 0 2.5312-0.45312 3.5391-1.3633l72.527-66.062 25.305 56.742c0.66016 1.5 1.9961 2.6016 3.6094 2.9688 1.5625 0.37891 3.2852-0.019531 4.543-1.0703l86.719-72.004-4.1562 22.305c-0.53516 2.8438 1.3555 5.5938 4.1875 6.1211 0.31641 0.050781 0.65234 0.082031 0.97656 0.082031 2.457 0 4.6719-1.7617 5.1445-4.2812l6.8242-36.59c0.019532-0.0625-0.019531-0.13672 0-0.21094 0.070313-0.53516 0.03125-1.0703-0.054687-1.6172z"/>
 </g>
</svg>