<?xml version="1.0" encoding="UTF-8"?>
<!-- The Best Svg Icon site in the world: iconSvg.co, Visit us! https://iconsvg.co -->
<svg fill="#000000" width="800px" height="800px" version="1.1" viewBox="144 144 512 512" xmlns="http://www.w3.org/2000/svg">
 <g>
  <path d="m410.51 319.98c0-23.59-9.3711-46.215-26.051-62.895-16.68-16.68-39.305-26.051-62.895-26.051s-46.211 9.3711-62.891 26.051c-16.68 16.68-26.051 39.305-26.051 62.895 0 23.59 9.3711 46.211 26.051 62.891 16.68 16.68 39.301 26.051 62.891 26.051 23.582-0.023437 46.191-9.4023 62.867-26.078 16.672-16.676 26.051-39.281 26.078-62.863zm-168.86 0c0-21.195 8.418-41.52 23.406-56.508 14.984-14.984 35.312-23.402 56.504-23.402 21.195 0 41.52 8.418 56.508 23.402 14.984 14.988 23.402 35.312 23.402 56.508 0 21.191-8.418 41.52-23.402 56.504-14.988 14.988-35.312 23.406-56.508 23.406-21.184-0.023437-41.496-8.4492-56.477-23.43-14.984-14.984-23.41-35.297-23.434-56.48z"/>
  <path d="m324.74 379.95v-7.5078c10.602-1.5352 19.699-8.3516 24.141-18.102 4.4453-9.7461 3.625-21.086-2.168-30.098-5.7969-9.0078-15.777-14.453-26.488-14.449-4.4648 0.003906-8.7461-1.7656-11.902-4.918-3.1602-3.1562-4.9336-7.4336-4.9336-11.898-0.003906-4.4609 1.7695-8.7422 4.9258-11.898 3.1602-3.1523 7.4414-4.9219 11.902-4.9219 4.4648 0.003906 8.7422 1.7812 11.895 4.9414 3.1484 3.1602 4.918 7.4453 4.9102 11.906 0.11328 2.4102 2.0977 4.3047 4.5117 4.3047 2.4102 0 4.3984-1.8945 4.5117-4.3047-0.007813-6.0664-2.1445-11.941-6.043-16.59-3.8984-4.6523-9.3086-7.7812-15.281-8.8477v-7.5586 0.003906c0-2.4961-2.0234-4.5195-4.5156-4.5195-2.4961 0-4.5195 2.0234-4.5195 4.5195v7.5586-0.003907c-8.5469 1.5312-15.758 7.25-19.188 15.23-3.4336 7.9805-2.625 17.148 2.1484 24.406 4.7734 7.2578 12.871 11.629 21.559 11.641 5.957 0 11.672 2.3672 15.887 6.582 4.2109 4.2109 6.5781 9.9258 6.5781 15.887-0.003906 5.957-2.3711 11.672-6.5859 15.883-4.2148 4.2148-9.9297 6.5781-15.887 6.5781s-11.672-2.3711-15.883-6.5859c-4.2148-4.2148-6.5781-9.9297-6.5742-15.887-0.11328-2.4102-2.1016-4.3086-4.5117-4.3086-2.4141 0-4.3984 1.8984-4.5117 4.3086 0.003906 7.5664 2.7344 14.879 7.6914 20.598 4.957 5.7188 11.809 9.4648 19.297 10.543v7.4883c0 2.4961 2.0234 4.5195 4.5195 4.5195 2.4922 0 4.5156-2.0234 4.5156-4.5195z"/>
  <path d="m531.99 467.46v-2.9531c6.6094-1.5547 12.035-6.2578 14.508-12.582 2.4766-6.3242 1.6836-13.461-2.1133-19.09-3.7969-5.6289-10.121-9.0312-16.91-9.1016-3.332 0-6.3359-2.0078-7.6094-5.0859-1.2734-3.0781-0.57031-6.6211 1.7852-8.9766 2.3555-2.3555 5.8984-3.0586 8.9766-1.7852 3.0781 1.2773 5.082 4.2773 5.082 7.6094-0.054688 1.2344 0.39453 2.4375 1.2461 3.3281 0.85156 0.89453 2.0312 1.3984 3.2656 1.3984s2.418-0.50391 3.2695-1.3984c0.85156-0.89062 1.3008-2.0938 1.2422-3.3281-0.007813-3.7852-1.2578-7.4648-3.5586-10.473-2.3047-3.0039-5.5312-5.1719-9.1836-6.168v-3.0898c0-2.4922-2.0234-4.5156-4.5156-4.5156-2.4961 0-4.5156 2.0234-4.5156 4.5156v3.082c-5.4219 1.4805-9.7812 5.5039-11.688 10.789-1.9062 5.2852-1.125 11.164 2.1016 15.766 3.2227 4.6016 8.4844 7.3438 14.102 7.3555 4.6953 0 8.9297 2.8281 10.727 7.168 1.7969 4.3398 0.80078 9.3359-2.5195 12.656-3.3242 3.3203-8.3203 4.3086-12.656 2.5078-4.3398-1.7969-7.168-6.0352-7.1641-10.734 0.058594-1.2305-0.39062-2.4336-1.2422-3.3281-0.85156-0.89062-2.0352-1.3984-3.2695-1.3984-1.2344 0-2.4141 0.50781-3.2656 1.3984-0.85156 0.89453-1.3008 2.0977-1.2461 3.3281 0.007812 4.6953 1.6094 9.2461 4.5469 12.906 2.9375 3.6641 7.0312 6.2148 11.613 7.2383v2.9531c0 2.4922 2.0195 4.5156 4.5156 4.5156s4.5156-2.0234 4.5156-4.5156z"/>
  <path d="m600.88 596.11h-42.648c34.844-15.184 36.328-54.562 36.34-55.055 0.0625-2.4844-1.8945-4.5508-4.3789-4.625h-0.070312 0.003906c-0.23828-0.054688-0.47656-0.089844-0.71875-0.10547-0.49219 0-38.445-1.4258-56.621 30.316v-58.57c26.785-1.5781 50.793-17.059 63.285-40.805 12.492-23.746 11.648-52.297-2.2188-75.266-13.871-22.965-38.746-37.004-65.578-37.004-26.832 0-51.707 14.039-65.574 37.004-13.871 22.969-14.711 51.52-2.2188 75.266s36.496 39.227 63.281 40.805v58.586c-18.176-31.742-56.148-30.336-56.609-30.328v0.003906c-0.23438 0.015625-0.46875 0.050781-0.69922 0.10938h-0.078125c-1.1953 0.027344-2.332 0.53125-3.1602 1.3984-0.82422 0.86719-1.2695 2.0273-1.2383 3.2266 0 0.49219 1.5039 39.871 36.34 55.055h-137.68c66.164-21.176 68.879-92.25 68.879-93.086h0.003906c0.054688-2.4922-1.9102-4.5586-4.3984-4.625h-0.25781c-0.35938-0.11719-0.73438-0.19141-1.1094-0.21875-0.84766-0.078125-71.27-2.6484-97.613 60.871v-114.05c66.914-2.3906 120.61-57.555 120.61-125.04v0.003907c-0.039062-33.184-13.246-64.996-36.715-88.453-23.469-23.457-55.289-36.645-88.473-36.664-68.988 0-125.12 56.09-125.12 125.12 0 67.484 53.707 122.64 120.61 125.04v114.07c-26.332-63.496-96.746-60.91-97.602-60.871-0.36328 0.023438-0.71875 0.089844-1.0625 0.19531h-0.31641c-2.4883 0.070312-4.4531 2.1367-4.3984 4.625 0 0.83594 2.707 71.91 68.879 93.086h-83.434c-1.2305-0.054687-2.4336 0.39453-3.3281 1.2461-0.89453 0.85156-1.3984 2.0312-1.3984 3.2656s0.50391 2.418 1.3984 3.2695c0.89453 0.85156 2.0977 1.3008 3.3281 1.2422h401.77c1.2344 0.058594 2.4375-0.39062 3.3281-1.2422 0.89453-0.85156 1.3984-2.0352 1.3984-3.2695s-0.50391-2.4141-1.3984-3.2656c-0.89063-0.85156-2.0938-1.3008-3.3281-1.2461zm-15.742-50.715c-1.7422 12.191-10.242 44.379-51.699 47.34 6.4336-41.316 40.105-46.73 51.676-47.34zm-124.43-113.78c0-17.918 7.1211-35.105 19.793-47.777 12.672-12.672 29.859-19.793 47.777-19.793 17.922 0 35.109 7.1211 47.781 19.793 12.672 12.672 19.793 29.859 19.793 47.777 0 17.922-7.1211 35.109-19.793 47.781s-29.859 19.793-47.781 19.793c-17.914-0.023438-35.09-7.1484-47.754-19.816-12.668-12.668-19.797-29.844-19.816-47.758zm10.734 113.79c11.582 0.60938 45.266 6.0234 51.699 47.332-41.473-2.9609-49.965-35.148-51.699-47.328zm-51.332-38.148c-1.7695 17.199-13.195 78-86.129 85.078l60.109-54.453c1.8477-1.6719 1.9922-4.5273 0.32031-6.375-1.6719-1.8477-4.5234-1.9883-6.3711-0.31641l-60.328 54.59c13.242-73.188 77.203-78.395 92.398-78.523zm-214.64-187.27c0-30.797 12.23-60.328 34.008-82.105 21.773-21.773 51.309-34.008 82.102-34.008 30.797 0 60.328 12.234 82.105 34.008 21.773 21.777 34.008 51.309 34.008 82.105 0 30.793-12.234 60.328-34.008 82.102-21.777 21.777-51.309 34.008-82.105 34.008-30.785-0.027344-60.301-12.27-82.07-34.039s-34.012-51.285-34.039-82.07zm17.543 187.27c15.211 0.19531 79.164 5.3828 92.398 78.574l-60.367-54.594c-1.8477-1.6719-4.7031-1.5273-6.375 0.32031-1.668 1.8477-1.5273 4.6992 0.32031 6.3711l60.152 54.406c-72.922-7.125-84.359-67.906-86.129-85.078z"/>
 </g>
</svg>