<?xml version="1.0" encoding="UTF-8"?>
<!-- The Best Svg Icon site in the world: iconSvg.co, Visit us! https://iconsvg.co -->
<svg fill="#000000" width="800px" height="800px" version="1.1" viewBox="144 144 512 512" xmlns="http://www.w3.org/2000/svg">
 <g>
  <path d="m274.05 299.98c0-4.3477-3.5195-7.8711-7.8711-7.8711-4.3516 0-7.8711 3.5234-7.8711 7.8711 0 21.309 17.66 38.645 39.359 38.645 4.3516 0 7.8711-3.5234 7.8711-7.8711s-3.5195-7.8711-7.8711-7.8711c-13.023-0.003906-23.617-10.277-23.617-22.902z"/>
  <path d="m242.56 533.82c0 4.3477 3.5195 7.8711 7.8711 7.8711h110.21c4.3516 0 7.8711-3.5234 7.8711-7.8711 0-4.3477-3.5195-7.8711-7.8711-7.8711h-110.21c-4.3516 0-7.8711 3.5273-7.8711 7.8711z"/>
  <path d="m431.49 499.82-32.195 0.15625v-49.047c0-15.75-3.7422-31.605-10.832-45.875l-25.469-50.867h24.016c12.207 0 23.656-6.7852 29.152-17.242l4.0039-7.5273c2.7617-5.418 3.8828-11.262 3.2812-16.543-0.76953-11.23-7.7656-21.219-18.211-26.039l-127.6-59.902c-13.098-6.1797-28.223-5.2656-40.398 2.4688-11.453 7.2656-18.297 19.512-18.297 32.762v224.43c0 4.3477 3.5195 7.8711 7.8711 7.8711s7.8711-3.5234 7.8711-7.8711l0.003906-224.43c0-7.9453 4.0039-15.039 10.984-19.469 7.6016-4.8242 17.051-5.3828 25.27-1.5117l127.65 59.93c5.2656 2.4297 8.7695 7.3438 9.1719 13.176 0.29297 2.5938-0.25391 5.2812-1.5664 7.8594l-3.9609 7.4375c-2.8203 5.3828-8.8008 8.8555-15.23 8.8555h-36.762c-2.7305 0-5.2656 1.4141-6.6953 3.7344-1.4375 2.3203-1.5664 5.2188-0.34766 7.6602l31.164 62.246c6.0039 12.078 9.1797 25.512 9.1797 38.844v49.047c0 8.5938 7.0664 15.586 15.742 15.586l32.199-0.15234v45.973l-251.91 0.15625v-45.973h23.617c4.3516 0 7.8711-3.5234 7.8711-7.8711s-3.5195-7.8711-7.8711-7.8711h-23.617c-8.6797 0-15.742 6.9922-15.742 15.586v46.129c0 8.5938 7.0664 15.586 15.742 15.586h251.91c8.6797 0 15.742-6.9922 15.742-15.586v-46.129c0-8.5938-7.0664-15.586-15.742-15.586z"/>
  <path d="m321.28 288.46c0-6.4688-5.2969-11.73-11.809-11.73s-11.809 5.2617-11.809 11.73c0 6.4648 5.2969 11.727 11.809 11.727s11.809-5.2617 11.809-11.727zm-15.742 0c0-2.2148 1.7695-4.0156 3.9375-4.0156 2.168 0 3.9375 1.8008 3.9375 4.0156 0 2.2148-1.7695 4.0117-3.9375 4.0117-2.1719 0-3.9375-1.8008-3.9375-4.0117z"/>
  <path d="m628.29 305.54h-181.06c-4.3516 0-7.8711 3.5234-7.8711 7.8711s3.5195 7.8711 7.8711 7.8711h173.18v220.42h-149.57c-4.3516 0-7.8711 3.5234-7.8711 7.8711 0 4.3477 3.5195 7.8711 7.8711 7.8711h157.44c4.3516 0 7.8711-3.5234 7.8711-7.8711v-236.16c0-4.3477-3.5234-7.8711-7.8711-7.8711z"/>
  <path d="m486.59 494.46v-94.465c0-4.3477-3.5195-7.8711-7.8711-7.8711s-7.8711 3.5234-7.8711 7.8711v94.465c0 4.3477 3.5195 7.8711 7.8711 7.8711s7.8711-3.5234 7.8711-7.8711z"/>
  <path d="m533.82 494.46v-141.7c0-4.3477-3.5195-7.8711-7.8711-7.8711s-7.8711 3.5234-7.8711 7.8711v141.7c0 4.3477 3.5195 7.8711 7.8711 7.8711 4.3477 0 7.8711-3.5234 7.8711-7.8711z"/>
  <path d="m581.05 494.46v-78.719c0-4.3477-3.5195-7.8711-7.8711-7.8711-4.3516 0-7.8711 3.5234-7.8711 7.8711v78.719c0 4.3477 3.5195 7.8711 7.8711 7.8711 4.3516 0 7.8711-3.5234 7.8711-7.8711z"/>
 </g>
</svg>