<?xml version="1.0" encoding="UTF-8"?>
<!-- The Best Svg Icon site in the world: iconSvg.co, Visit us! https://iconsvg.co -->
<svg fill="#000000" width="800px" height="800px" version="1.1" viewBox="144 144 512 512" xmlns="http://www.w3.org/2000/svg">
 <g>
  <path d="m628.29 187.45h-141.7c-4.3516 0-7.8711 3.5234-7.8711 7.8711v55.105h-307.01c-4.3516 0-7.8711 3.5234-7.8711 7.8711v346.37c0 4.3477 3.5195 7.8711 7.8711 7.8711h267.65c4.3516 0 7.8711-3.5234 7.8711-7.8711v-299.13c0-4.3477-3.5195-7.8711-7.8711-7.8711s-7.8711 3.5234-7.8711 7.8711v291.27h-251.91v-330.62h307.01c4.3516 0 7.8711-3.5234 7.8711-7.8711v-55.105h125.95v125.95l-133.82-0.003906c-4.3516 0-7.8711 3.5234-7.8711 7.8711 0 4.3477 3.5195 7.8711 7.8711 7.8711h141.7c4.3516 0 7.8711-3.5234 7.8711-7.8711l0.003906-141.7c0-4.3438-3.5234-7.8711-7.8711-7.8711z"/>
  <path d="m218.94 541.7c-4.3516 0-7.8711 3.5234-7.8711 7.8711s3.5195 7.8711 7.8711 7.8711h23.617c4.3516 0 7.8711-3.5234 7.8711-7.8711v-94.465c0-4.3477-3.5195-7.8711-7.8711-7.8711h-31.488c-4.3516 0-7.8711 3.5234-7.8711 7.8711v70.848c0 4.3477 3.5195 7.8711 7.8711 7.8711 4.3516 0 7.8711-3.5234 7.8711-7.8711v-62.977h15.742v78.719z"/>
  <path d="m305.54 431.49c4.3516 0 7.8711-3.5234 7.8711-7.8711 0-4.3477-3.5195-7.8711-7.8711-7.8711h-15.742c-4.3516 0-7.8711 3.5234-7.8711 7.8711v125.95c0 4.3477 3.5195 7.8711 7.8711 7.8711h31.488c4.3516 0 7.8711-3.5234 7.8711-7.8711l-0.003906-102.34c0-4.3477-3.5195-7.8711-7.8711-7.8711-4.3516 0-7.8711 3.5234-7.8711 7.8711v94.465h-15.742v-110.21z"/>
  <path d="m400 533.82c4.3516 0 7.8711-3.5234 7.8711-7.8711v-133.83c0-4.3477-3.5195-7.8711-7.8711-7.8711h-31.488c-4.3516 0-7.8711 3.5234-7.8711 7.8711v157.44c0 4.3477 3.5195 7.8711 7.8711 7.8711h23.617c4.3516 0 7.8711-3.5234 7.8711-7.8711s-3.5195-7.8711-7.8711-7.8711h-15.742l-0.003907-141.7h15.742v125.95c0 4.3438 3.5234 7.8711 7.875 7.8711z"/>
  <path d="m406.55 309.04c-2.4062-3.6172-7.2891-4.6094-10.918-2.1836l-89.098 59.398-19.051-19.055c-2.4844-2.4883-6.3203-3.0234-9.3867-1.3164l-70.848 39.359c-3.8008 2.1133-5.1719 6.9062-3.0547 10.707 1.4375 2.5898 4.1172 4.0508 6.8867 4.0508 1.293 0 2.6055-0.32031 3.8125-0.99219l65.66-36.473 19.418 19.414c2.6523 2.6523 6.8203 3.0586 9.9336 0.98438l94.465-62.977c3.6172-2.4102 4.5938-7.3008 2.1797-10.918z"/>
  <path d="m525.95 305.54h62.977c4.3516 0 7.8711-3.5234 7.8711-7.8711v-35.148l3.5039 2.3359c1.3477 0.89453 2.8633 1.3242 4.3633 1.3242 2.543 0 5.043-1.2305 6.5586-3.5039 2.4141-3.6172 1.4375-8.5078-2.1836-10.918l-47.23-31.488c-2.6445-1.7617-6.0898-1.7617-8.7344 0l-47.23 31.488c-3.6211 2.4102-4.5977 7.3008-2.1836 10.918 2.4062 3.6133 7.2812 4.5938 10.918 2.1836l3.5-2.3398v35.148c0 4.3438 3.5234 7.8711 7.8711 7.8711zm31.488-69.262 23.617 15.746v37.77h-47.23v-37.773z"/>
 </g>
</svg>