<?xml version="1.0" encoding="UTF-8"?>
<!-- The Best Svg Icon site in the world: iconSvg.co, Visit us! https://iconsvg.co -->
<svg fill="#000000" width="800px" height="800px" version="1.1" viewBox="144 144 512 512" xmlns="http://www.w3.org/2000/svg">
 <g>
  <path d="m502.34 447.23h-204.67c-4.3477 0-7.8711 3.5195-7.8711 7.8711v62.977c0 4.3516 3.5234 7.8711 7.8711 7.8711h178.85l-23.617 94.465h-105.79l-18.188-72.754c-1.0547-4.2266-5.3242-6.7891-9.5469-5.7266-4.2148 1.0547-6.7812 5.3281-5.7266 9.5391l19.68 78.719c0.87109 3.5078 4.0195 5.9688 7.6328 5.9688h118.08c3.6133 0 6.7617-2.4609 7.6367-5.9648l26.062-104.25h9.5977c4.3477 0 7.8711-3.5195 7.8711-7.8711v-62.977c0-4.3516-3.5234-7.8711-7.8711-7.8711zm-7.875 62.977h-188.93v-47.23h188.93z"/>
  <path d="m368.51 391.78v39.711c0 4.3516 3.5234 7.8711 7.8711 7.8711 4.3477 0 7.8711-3.5195 7.8711-7.8711l-0.18359-39.84c0.84766-0.078126 1.6836-0.24219 2.5273-0.34766 0.86328-0.10547 1.7227-0.22266 2.582-0.35547 3.3555-0.50781 6.6875-1.1328 9.9375-2.0039 0.30078-0.074218 0.59766-0.17578 0.88281-0.28516 0.28516 0.11328 0.58203 0.21094 0.87891 0.28906 3.6836 0.98438 7.4414 1.6836 11.172 2.2539 0.015625 0 0.03125 0.003906 0.046875 0.007812 1.2148 0.18359 2.4414 0.41016 3.6445 0.55859v39.723c0 4.3516 3.5234 7.8711 7.8711 7.8711 4.3477 0 7.8711-3.5195 7.8711-7.8711v-39.711c22.355-1.4414 43.195-10.766 59.332-26.906 23.457-23.457 32.684-57.926 24.078-89.953-0.73047-2.7109-2.8438-4.8281-5.5586-5.5586-10.113-2.7227-20.617-3.7031-31.188-2.9297-12.109 0.87891-23.711 4.1016-34.383 9.5234-8.9844 4.4023-17.184 10.281-24.383 17.48-3.8984 3.8984-7.207 7.8281-10.02 11.895-3.7578 5.1953-6.7812 10.875-9.3633 16.789-2.5742-5.8945-5.5898-11.562-9.2773-16.656-2.9062-4.1953-6.2148-8.125-10.113-12.023-7.1953-7.1992-15.398-13.082-24.277-17.43-10.773-5.4727-22.379-8.6953-34.48-9.5703-10.566-0.76562-21.074 0.20312-31.195 2.9258-2.7148 0.73047-4.8281 2.8477-5.5586 5.5586-8.6055 32.027 0.61719 66.492 24.078 89.953 16.152 16.145 37.008 25.469 59.336 26.902zm44.285-59.855c2.3281-6.1914 5.4648-12.035 9.4141-17.492 2.3633-3.4141 5.082-6.6367 8.3047-9.8633 5.9727-5.9688 12.762-10.84 20.281-14.527 8.8945-4.5195 18.48-7.1797 28.496-7.9102 7.2656-0.52344 14.461-0.070312 21.461 1.3633 5.1875 25.297-2.6719 51.844-21.066 70.242-15.004 14.996-34.941 22.949-55.98 22.57-2.2383-0.023438-4.4688-0.17188-6.6914-0.39453-2.543-0.25391-5.0781-0.61719-7.5781-1.1211-1.0391-5.0586-1.5664-10.281-1.5664-15.57 0-4.4805 0.37891-8.8203 1.1602-13.07 0.76562-4.7383 2.0391-9.543 3.7656-14.227zm-113.55-48.43c7.0039-1.4375 14.191-1.9102 21.469-1.3594 10.008 0.72656 19.594 3.3867 28.594 7.957 7.418 3.6367 14.207 8.5078 20.176 14.477 3.2266 3.2266 5.9414 6.4492 8.3984 9.9922 3.8555 5.3281 6.9922 11.172 9.3047 17.316 1.7461 4.7305 3.0156 9.5352 3.8125 14.441 0.75 4.082 1.1289 8.4219 1.1289 12.902 0 5.2891-0.52734 10.508-1.5664 15.57-2.4922 0.50391-5.0195 0.86719-7.5586 1.1211-2.2461 0.22266-4.5039 0.37109-6.7812 0.39453-20.988 0.39844-40.906-7.5703-55.906-22.57-18.398-18.395-26.258-44.945-21.07-70.242z"/>
  <path d="m384.25 281.92c4.3477 0 7.8711-3.5234 7.8711-7.8711v-94.465h15.742v94.465c0 4.3477 3.5234 7.8711 7.8711 7.8711 4.3477 0 7.8711-3.5234 7.8711-7.8711l0.003906-102.34c0-4.3477-3.5234-7.8711-7.8711-7.8711h-31.488c-4.3477 0-7.8711 3.5234-7.8711 7.8711v102.34c0 4.3477 3.5234 7.8711 7.8711 7.8711z"/>
  <path d="m447.23 258.3c4.3477 0 7.8711-3.5234 7.8711-7.8711v-7.8711h15.742v7.8711c0 4.3477 3.5234 7.8711 7.8711 7.8711s7.8711-3.5234 7.8711-7.8711v-15.742c0-4.3477-3.5234-7.8711-7.8711-7.8711h-31.488c-4.3477 0-7.8711 3.5234-7.8711 7.8711v15.742c0.003906 4.3477 3.5273 7.8711 7.875 7.8711z"/>
  <path d="m321.28 250.43c4.3477 0 7.8711-3.5234 7.8711-7.8711v-31.488h15.742v39.359c0 4.3477 3.5234 7.8711 7.8711 7.8711 4.3477 0 7.8711-3.5234 7.8711-7.8711l0.003907-47.23c0-4.3477-3.5234-7.8711-7.8711-7.8711h-31.488c-4.3477 0-7.8711 3.5234-7.8711 7.8711v39.359c0 4.3477 3.5234 7.8711 7.8711 7.8711z"/>
 </g>
</svg>