<?xml version="1.0" encoding="UTF-8"?>
<!-- The Best Svg Icon site in the world: iconSvg.co, Visit us! https://iconsvg.co -->
<svg fill="#000000" width="800px" height="800px" version="1.1" viewBox="144 144 512 512" xmlns="http://www.w3.org/2000/svg">
 <g>
  <path d="m407.87 266.18h-15.746c-4.3477 0-7.8711-3.5273-7.8711-7.875 0-4.3477-3.5234-7.8711-7.8711-7.8711-4.3477 0-7.8711 3.5234-7.8711 7.8711 0 6.2656 2.4883 12.273 6.9141 16.699 4.4297 4.4297 10.438 6.918 16.699 6.918v7.8711c0 4.3477 3.5273 7.875 7.875 7.875s7.8711-3.5273 7.8711-7.875v-7.8711c8.4375 0 16.234-4.5 20.453-11.809 4.2188-7.3047 4.2188-16.309 0-23.617-4.2188-7.3047-12.016-11.805-20.453-11.805h-15.746c-4.3477 0-7.8711-3.5273-7.8711-7.875s3.5234-7.8711 7.8711-7.8711h15.746c2.0859 0 4.0898 0.82812 5.5664 2.3047 1.4766 1.4766 2.3047 3.4805 2.3047 5.5664 0 4.3477 3.5234 7.875 7.8711 7.875 4.3477 0 7.875-3.5273 7.875-7.875 0-6.2617-2.4883-12.27-6.918-16.699-4.4297-4.4258-10.438-6.9141-16.699-6.9141v-7.875c0-4.3477-3.5234-7.8711-7.8711-7.8711s-7.875 3.5234-7.875 7.8711v7.875c-8.4375 0-16.23 4.5-20.449 11.809-4.2188 7.3047-4.2188 16.309 0 23.613 4.2188 7.3086 12.012 11.809 20.449 11.809h15.746c4.3477 0 7.8711 3.5234 7.8711 7.8711 0 4.3477-3.5234 7.875-7.8711 7.875z"/>
  <path d="m305.54 368.51c-0.023437-11.152-3.9844-21.938-11.184-30.449-7.2031-8.5156-17.184-14.207-28.176-16.074v-71.559h55.504c1.8398 18.059 9.8516 34.926 22.688 47.762 12.832 12.836 29.703 20.848 47.758 22.684v48.344c-15.711 2.6562-29.027 13.055-35.406 27.66-6.3828 14.602-4.9688 31.438 3.7578 44.773 8.7227 13.336 23.586 21.371 39.523 21.371 15.934 0 30.797-8.0352 39.523-21.371 8.7227-13.336 10.137-30.172 3.7539-44.773-6.3789-14.605-19.695-25.004-35.406-27.66v-48.344c18.055-1.8359 34.926-9.8477 47.762-22.684 12.832-12.836 20.848-29.703 22.684-47.762h55.508v71.559c-15.715 2.6562-29.027 13.055-35.41 27.656-6.3789 14.605-4.9688 31.441 3.7578 44.773 8.7266 13.336 23.586 21.371 39.523 21.371s30.797-8.0352 39.523-21.371c8.7266-13.332 10.137-30.168 3.7578-44.773-6.3828-14.602-19.695-25-35.41-27.656v-79.43c0-2.0898-0.82812-4.0898-2.3047-5.5664-1.4766-1.4766-3.4805-2.3047-5.5664-2.3047h-63.379c-2.6211-26.125-18.098-49.227-41.262-61.586-23.164-12.363-50.965-12.363-74.129 0-23.164 12.359-38.641 35.461-41.262 61.586h-63.363c-4.3477 0-7.8711 3.5234-7.8711 7.8711v79.43c-11.902 2.0117-22.586 8.5039-29.852 18.148-7.2656 9.6406-10.562 21.703-9.2109 33.699 1.3477 11.996 7.2383 23.023 16.465 30.812 9.2266 7.7891 21.082 11.75 33.137 11.066 12.055-0.67969 23.391-5.9531 31.68-14.73 8.2852-8.7812 12.898-20.402 12.887-32.473zm267.65 0c0 8.3516-3.3164 16.359-9.2227 22.266-5.9062 5.9023-13.914 9.2227-22.266 9.2227-8.3516 0-16.359-3.3203-22.266-9.2227-5.9062-5.9062-9.2227-13.914-9.2227-22.266 0-8.3516 3.3164-16.363 9.2227-22.266 5.9062-5.9062 13.914-9.2227 22.266-9.2227 8.3516 0 16.359 3.3164 22.266 9.2227 5.9062 5.9023 9.2227 13.914 9.2227 22.266zm-141.7 47.23c0 8.3516-3.3203 16.359-9.2227 22.266-5.9062 5.9062-13.914 9.2227-22.266 9.2227s-16.363-3.3164-22.266-9.2227c-5.9062-5.9062-9.2227-13.914-9.2227-22.266 0-8.3516 3.3164-16.359 9.2227-22.266 5.9023-5.9062 13.914-9.2227 22.266-9.2227s16.359 3.3164 22.266 9.2227c5.9023 5.9062 9.2227 13.914 9.2227 22.266zm-31.488-236.16c16.699 0 32.719 6.6367 44.531 18.445 11.809 11.809 18.445 27.828 18.445 44.531s-6.6367 32.719-18.445 44.531c-11.812 11.809-27.832 18.445-44.531 18.445-16.703 0-32.723-6.6367-44.531-18.445-11.812-11.812-18.445-27.828-18.445-44.531 0.019531-16.695 6.6602-32.703 18.465-44.512 11.805-11.805 27.812-18.445 44.512-18.465zm-141.7 220.42c-8.3516 0-16.359-3.3203-22.266-9.2227-5.9023-5.9062-9.2227-13.914-9.2227-22.266 0-8.3516 3.3203-16.363 9.2227-22.266 5.9062-5.9062 13.914-9.2227 22.266-9.2227 8.3516 0 16.363 3.3164 22.266 9.2227 5.9062 5.9023 9.2227 13.914 9.2227 22.266 0 8.3516-3.3164 16.359-9.2227 22.266-5.9023 5.9023-13.914 9.2227-22.266 9.2227z"/>
  <path d="m581.05 415.74h-78.719c-13.359 0.019531-26.258 4.8945-36.293 13.711-10.035 8.8203-16.523 20.984-18.262 34.23-2.7852-0.43359-5.6016-0.67188-8.4219-0.70703h-78.723c-2.8203 0.035157-5.6328 0.27344-8.4219 0.70703-1.7344-13.246-8.2266-25.41-18.262-34.23-10.035-8.8164-22.93-13.691-36.289-13.711h-78.723c-14.609 0.015624-28.613 5.8281-38.945 16.16-10.332 10.328-16.141 24.336-16.16 38.945v110.21c0 2.0898 0.83203 4.0898 2.3086 5.5664 1.4766 1.4766 3.4766 2.3047 5.5664 2.3047h133.82v39.363c0 2.0859 0.82812 4.0898 2.3047 5.5664 1.4766 1.4727 3.4805 2.3047 5.5664 2.3047h173.18c2.0898 0 4.0898-0.83203 5.5664-2.3047 1.4766-1.4766 2.3047-3.4805 2.3047-5.5664v-39.363h133.83c2.0859 0 4.0898-0.82812 5.5664-2.3047 1.4727-1.4766 2.3047-3.4766 2.3047-5.5664v-110.21c-0.019531-14.609-5.8281-28.617-16.16-38.945-10.328-10.332-24.336-16.145-38.945-16.16zm-28.496 15.742-7.8711 15.742h-5.9844l-7.8711-15.742zm-141.7 47.23-7.8711 15.742h-5.9844l-7.8711-15.742zm-141.7-47.23-7.8711 15.742h-5.9844l-7.8711-15.742zm-89.586 141.7v-102.34c0.0625-13.902 7.4531-26.738 19.445-33.773l40.855 136.11zm55.184-71.715-20.863-69.512c1.6523-0.15625 3.3047-0.47266 5.0391-0.47266h10.863l12.438 24.875zm25.582 71.715h-4.0938l-11.258-37.551 12.125-72.656h2.3633l12.121 72.66zm26.449-141.7h10.867c1.7305 0 3.3867 0.31641 5.0391 0.47266l-20.859 69.512-7.4766-45.105zm18.738 86.59v55.105h-28.812l40.855-136.11v-0.003906c11.227 6.6289 18.422 18.398 19.207 31.41-9.3398 4.4961-17.227 11.535-22.754 20.305-5.5273 8.7695-8.4727 18.922-8.4961 29.289zm15.742 102.34v-102.34c0.0625-13.898 7.4531-26.738 19.445-33.77l40.855 136.11zm55.184-71.715-20.859-69.512c1.6523-0.15625 3.3047-0.47266 5.0391-0.47266h10.863l12.438 24.875zm25.586 71.715h-4.0938l-11.258-37.551 12.121-72.656h2.3633l12.121 72.66zm26.449-141.7h10.863c1.7305 0 3.3867 0.31641 5.0391 0.47266l-20.859 69.512-7.4766-45.105zm50.223 141.7h-60.301l40.855-136.11c11.992 7.0312 19.383 19.871 19.445 33.77zm15.742-47.23v-55.105c-0.023438-10.367-2.9688-20.52-8.4961-29.289-5.5273-8.7695-13.41-15.809-22.754-20.305 0.78516-13.012 7.9844-24.781 19.207-31.41l40.855 136.11zm23.695-71.715-20.859-69.512c1.6523-0.15625 3.3047-0.47266 5.0391-0.47266h10.863l12.438 24.875zm25.586 71.715h-4.0938l-11.258-37.551 12.125-72.656h2.3633l12.121 72.66zm26.449-141.7h10.863c1.7305 0 3.3867 0.31641 5.0391 0.47266l-20.859 69.512-7.4766-45.105zm50.223 141.7h-60.297l40.855-136.11v-0.003906c11.988 7.0352 19.379 19.871 19.441 33.773z"/>
 </g>
</svg>