<?xml version="1.0" encoding="UTF-8"?>
<!-- The Best Svg Icon site in the world: iconSvg.co, Visit us! https://iconsvg.co -->
<svg width="800px" height="800px" version="1.1" viewBox="144 144 512 512" xmlns="http://www.w3.org/2000/svg">
 <defs>
  <clipPath id="b">
   <path d="m195 400h410v251.9h-410z"/>
  </clipPath>
  <clipPath id="a">
   <path d="m321 148.09h158v126.91h-158z"/>
  </clipPath>
 </defs>
 <path d="m400 289.79c-31.316 0-61.352 12.441-83.496 34.586-22.145 22.145-34.586 52.18-34.586 83.496s12.441 61.352 34.586 83.496c22.145 22.145 52.18 34.582 83.496 34.582s61.348-12.438 83.492-34.582c22.145-22.145 34.586-52.18 34.586-83.496-0.035156-31.305-12.488-61.32-34.625-83.457-22.137-22.137-52.148-34.59-83.453-34.625zm0 220.42c-27.145 0-53.172-10.781-72.363-29.973-19.191-19.191-29.973-45.223-29.973-72.363s10.781-53.172 29.973-72.363c19.191-19.191 45.219-29.973 72.363-29.973 27.141 0 53.168 10.781 72.359 29.973 19.195 19.191 29.977 45.223 29.977 72.363-0.03125 27.133-10.824 53.145-30.008 72.328-19.188 19.184-45.199 29.977-72.328 30.008z"/>
 <path d="m400 321.28c-20.359-0.003906-40.07 7.168-55.668 20.254-15.598 13.086-26.086 31.25-29.621 51.297-3.5391 20.051 0.10156 40.707 10.281 58.34 2.1914 3.7305 6.9805 5 10.73 2.8359 3.7461-2.1641 5.043-6.9492 2.9062-10.711-11.828-20.438-12.695-45.426-2.3125-66.633 10.387-21.211 30.652-35.852 54.051-39.047 23.395-3.1953 46.848 5.4805 62.535 23.129 15.688 17.648 21.551 41.953 15.637 64.816-5.9141 22.859-22.832 41.273-45.113 49.098-22.277 7.8242-46.992 4.0352-65.906-10.105-3.4766-2.6094-8.4102-1.9062-11.02 1.5742-2.6094 3.4766-1.9023 8.4102 1.5742 11.02 14.953 11.285 33.191 17.367 51.926 17.316 30.934 0 59.52-16.504 74.988-43.293 15.469-26.793 15.469-59.801 0-86.594s-44.055-43.297-74.988-43.297z"/>
 <path d="m400.23 431.49h-16.199c-4.3477 0-7.875 3.5234-7.875 7.8711s3.5273 7.8711 7.875 7.8711h16.199c8.4375-0.082031 16.191-4.6562 20.34-12.004 4.1445-7.3477 4.0586-16.352-0.23047-23.617-4.2891-7.2656-12.129-11.691-20.566-11.609-4.3477 0-7.8711-3.5273-7.8711-7.875s3.5234-7.8711 7.8711-7.8711h16.203c4.3477 0 7.8711-3.5234 7.8711-7.8711 0-4.3477-3.5234-7.8711-7.8711-7.8711h-16.203c-8.4375 0.082031-16.188 4.6562-20.336 12.004-4.1484 7.3477-4.0625 16.352 0.22656 23.617 4.2891 7.2656 12.129 11.691 20.566 11.609 4.3477 0 7.8711 3.5234 7.8711 7.8711 0 4.3477-3.5234 7.875-7.8711 7.875z"/>
 <path d="m526.74 604.67h-253.48c-1.5547-7.5586-5.2891-14.496-10.746-19.953s-12.395-9.1953-19.953-10.75v-96.039c6.7852-1.4062 13.078-4.582 18.242-9.207 5.1641-4.625 9.0117-10.531 11.152-17.121 1.293-4.1133-0.96094-8.5-5.0547-9.8438s-8.5078 0.85156-9.9023 4.9297c-1.5234 4.7227-4.5039 8.8438-8.5078 11.77-4.0078 2.9258-8.8398 4.5078-13.801 4.5195-4.3477 0-7.875 3.5234-7.875 7.8711v110.21c0 2.0898 0.83203 4.0898 2.3086 5.5664 1.4766 1.4766 3.4766 2.3047 5.5664 2.3047 6.2617 0 12.27 2.4883 16.699 6.918 4.4258 4.4297 6.9141 10.438 6.9141 16.699 0 2.0898 0.83203 4.0898 2.3086 5.5664s3.4766 2.3047 5.5664 2.3047h267.65c2.0859 0 4.0898-0.82812 5.5664-2.3047s2.3047-3.4766 2.3047-5.5664c0-6.2617 2.4883-12.27 6.918-16.699 4.4258-4.4297 10.434-6.918 16.699-6.918 2.0859 0 4.0898-0.82812 5.5664-2.3047 1.4766-1.4766 2.3047-3.4766 2.3047-5.5664v-110.21c0-2.0898-0.82812-4.0898-2.3047-5.5664-1.4766-1.4766-3.4805-2.3047-5.5664-2.3047-4.9648-0.015624-9.793-1.6016-13.801-4.5273-4.0039-2.9258-6.9805-7.0469-8.5039-11.77-0.62891-2.0078-2.0391-3.6797-3.9102-4.6406-1.875-0.96094-4.0547-1.1328-6.0547-0.47656s-3.6523 2.0859-4.5898 3.9727c-0.9375 1.8828-1.082 4.0664-0.40234 6.0547 2.1406 6.5938 5.9844 12.504 11.145 17.133 5.1641 4.625 11.457 7.8047 18.242 9.207v96.039c-7.5586 1.5547-14.492 5.293-19.949 10.75s-9.1953 12.395-10.75 19.953z"/>
 <g clip-path="url(#b)">
  <path d="m596.8 400h-55.105c-4.3477 0-7.8711 3.5234-7.8711 7.8711s3.5234 7.8711 7.8711 7.8711h47.23v220.42h-377.86v-220.42h47.23c4.3477 0 7.875-3.5234 7.875-7.8711s-3.5273-7.8711-7.875-7.8711h-55.102c-4.3477 0-7.875 3.5234-7.875 7.8711v236.16c0 2.0859 0.83203 4.0898 2.3086 5.5664 1.4766 1.4766 3.4766 2.3047 5.5664 2.3047h393.6c2.0859 0 4.0898-0.82812 5.5664-2.3047 1.4727-1.4766 2.3047-3.4805 2.3047-5.5664v-236.16c0-2.0898-0.83203-4.0898-2.3047-5.5664-1.4766-1.4766-3.4805-2.3047-5.5664-2.3047z"/>
 </g>
 <path d="m400 573.18c8.3398-0.039063 16.52-2.2852 23.707-6.5117 7.1914-4.2266 13.133-10.277 17.227-17.547 1.0469-1.8164 1.3242-3.9766 0.77344-6s-1.8906-3.7422-3.7148-4.7773c-1.8242-1.0352-3.9844-1.2969-6.0039-0.73047-2.0195 0.56641-3.7305 1.9141-4.7539 3.7461-3.6055 6.5273-9.4336 11.539-16.426 14.133-6.9883 2.5938-14.68 2.5938-21.668 0-6.9922-2.5938-12.82-7.6055-16.426-14.133-1.0234-1.832-2.7305-3.1797-4.75-3.7461-2.0195-0.56641-4.1836-0.30469-6.0078 0.73047s-3.1602 2.7539-3.7148 4.7773c-0.55078 2.0234-0.27344 4.1836 0.77344 6 4.0977 7.2734 10.047 13.332 17.246 17.559 7.1992 4.2266 15.391 6.4688 23.738 6.5z"/>
 <g clip-path="url(#a)">
  <path d="m329.15 242.56h23.617v23.617c0 4.3477 3.5234 7.8711 7.8711 7.8711 4.3477 0 7.875-3.5234 7.875-7.8711v-31.488c0-2.0898-0.83203-4.0898-2.3086-5.5664-1.4766-1.4766-3.4766-2.3086-5.5664-2.3086h-13.812l53.176-59.039 53.176 59.039h-13.816c-4.3477 0-7.8711 3.5273-7.8711 7.875v31.488c0 4.3477 3.5234 7.8711 7.8711 7.8711s7.8711-3.5234 7.8711-7.8711v-23.617h23.617c3.1094 0 5.9258-1.832 7.1875-4.6719 1.2656-2.8398 0.73828-6.1562-1.3398-8.4688l-70.848-78.719c-1.5273-1.5938-3.6406-2.4922-5.8477-2.4922-2.2109 0-4.3203 0.89844-5.8516 2.4922l-70.848 78.719c-2.0781 2.3125-2.6055 5.6289-1.3398 8.4688 1.2656 2.8398 4.082 4.6719 7.1875 4.6719z"/>
 </g>
 <path d="m195.32 352.77c0 4.3477 3.5273 7.8711 7.875 7.8711 4.3477 0 7.8711-3.5234 7.8711-7.8711v-62.977c0-2.0859-0.82812-4.0898-2.3047-5.5664-1.4766-1.4766-3.4805-2.3047-5.5664-2.3047h-13.816l53.176-59.078 53.176 59.078h-13.816c-4.3477 0-7.8711 3.5234-7.8711 7.8711v31.488c0 4.3477 3.5234 7.8711 7.8711 7.8711 4.3477 0 7.8711-3.5234 7.8711-7.8711v-23.613h23.617c3.1094-0.003906 5.9258-1.832 7.1914-4.6719 1.2617-2.8398 0.73828-6.1562-1.3438-8.4688l-70.848-78.719c-1.5273-1.5938-3.6406-2.4922-5.8477-2.4922-2.207 0-4.3203 0.89844-5.8477 2.4922l-70.848 78.719h-0.003906c-2.0781 2.3125-2.6016 5.6289-1.3398 8.4688 1.2656 2.8398 4.082 4.668 7.1914 4.6719h23.613z"/>
 <path d="m634.14 284.52-70.848-78.719c-1.5312-1.5938-3.6406-2.4922-5.8516-2.4922-2.207 0-4.3203 0.89844-5.8477 2.4922l-70.848 78.719c-2.0781 2.3125-2.6055 5.6289-1.3398 8.4688 1.2617 2.8398 4.0781 4.668 7.1875 4.6719h23.617v23.617-0.003906c0 4.3477 3.5234 7.8711 7.8711 7.8711s7.8711-3.5234 7.8711-7.8711v-31.488c0-2.0859-0.82812-4.0898-2.3047-5.5664-1.4766-1.4766-3.4766-2.3047-5.5664-2.3047h-13.816l53.176-59.078 53.176 59.078h-13.812c-4.3477 0-7.875 3.5234-7.875 7.8711v62.977c0 4.3477 3.5273 7.8711 7.875 7.8711 4.3477 0 7.8711-3.5234 7.8711-7.8711v-55.102h23.617c3.1055-0.003906 5.9219-1.832 7.1875-4.6719 1.2656-2.8398 0.73828-6.1562-1.3398-8.4688z"/>
</svg>