<?xml version="1.0" encoding="UTF-8"?>
<!-- The Best Svg Icon site in the world: iconSvg.co, Visit us! https://iconsvg.co -->
<svg fill="#000000" width="800px" height="800px" version="1.1" viewBox="144 144 512 512" xmlns="http://www.w3.org/2000/svg">
 <g>
  <path d="m399.76 636.16c-2.4766 0-4.8086-1.168-6.2969-3.1484l-46.996-62.977c-1.7891-2.3867-2.0781-5.5781-0.74219-8.2461 1.332-2.6641 4.0586-4.3516 7.0391-4.3516h15.742l0.003907-39.359c0-4.3477 3.5234-7.8711 7.8711-7.8711 4.3477 0 7.8711 3.5234 7.8711 7.8711v47.234c0 2.0859-0.82812 4.0898-2.3047 5.5664-1.4766 1.4766-3.4805 2.3047-5.5664 2.3047h-7.918l31.332 41.98 31.641-41.98h-7.8242c-4.3477 0-7.8711-3.5234-7.8711-7.8711v-47.234c0-4.3477 3.5234-7.8711 7.8711-7.8711 4.3477 0 7.875 3.5234 7.875 7.8711v39.359h15.742c2.9805 0 5.707 1.6875 7.043 4.3516 1.332 2.668 1.043 5.8594-0.74609 8.2461l-47.469 62.977c-1.4844 1.9805-3.8203 3.1484-6.2969 3.1484z"/>
  <path d="m242.32 565.31c-2.4766 0-4.8086-1.168-6.2969-3.1484l-46.996-62.977c-1.7891-2.3867-2.0742-5.5781-0.74219-8.2461 1.332-2.6641 4.0586-4.3516 7.0391-4.3516h15.746v-47.23c0-4.3477 3.5234-7.8711 7.8711-7.8711s7.8711 3.5234 7.8711 7.8711v55.105-0.003906c0 2.0898-0.82812 4.0938-2.3047 5.5664-1.4766 1.4766-3.4766 2.3086-5.5664 2.3086h-7.918l31.332 41.98 31.645-41.98h-7.8242c-4.3477 0-7.875-3.5273-7.875-7.875v-55.102c0-4.3477 3.5273-7.8711 7.875-7.8711 4.3477 0 7.8711 3.5234 7.8711 7.8711v47.23h15.742c2.9844 0 5.707 1.6875 7.043 4.3516 1.332 2.668 1.043 5.8594-0.74609 8.2461l-47.469 62.977h0.003906c-1.4883 1.9805-3.8203 3.1484-6.3008 3.1484z"/>
  <path d="m423.61 494.46c-4.3477 0-7.8711-3.5234-7.8711-7.8711v-7.8711c0-4.3477 3.5234-7.8711 7.8711-7.8711 4.3477 0 7.875 3.5234 7.875 7.8711v7.8711c0 2.0898-0.83203 4.0898-2.3086 5.5664-1.4766 1.4766-3.4766 2.3047-5.5664 2.3047z"/>
  <path d="m376.38 494.46c-4.3477 0-7.8711-3.5234-7.8711-7.8711v-7.8711c0-4.3477 3.5234-7.8711 7.8711-7.8711 4.3477 0 7.8711 3.5234 7.8711 7.8711v7.8711c0 2.0898-0.82812 4.0898-2.3047 5.5664-1.4766 1.4766-3.4805 2.3047-5.5664 2.3047z"/>
  <path d="m423.61 462.98c-4.3477 0-7.8711-3.5273-7.8711-7.875v-7.8711c0-4.3477 3.5234-7.8711 7.8711-7.8711 4.3477 0 7.875 3.5234 7.875 7.8711v7.8711c0 2.0898-0.83203 4.0898-2.3086 5.5664-1.4766 1.4766-3.4766 2.3086-5.5664 2.3086z"/>
  <path d="m376.38 462.98c-4.3477 0-7.8711-3.5273-7.8711-7.875v-7.8711c0-4.3477 3.5234-7.8711 7.8711-7.8711 4.3477 0 7.8711 3.5234 7.8711 7.8711v7.8711c0 2.0898-0.82812 4.0898-2.3047 5.5664-1.4766 1.4766-3.4805 2.3086-5.5664 2.3086z"/>
  <path d="m423.61 431.49c-4.3477 0-7.8711-3.5273-7.8711-7.875v-7.8711c0-4.3477 3.5234-7.8711 7.8711-7.8711 4.3477 0 7.875 3.5234 7.875 7.8711v7.8711c0 2.0898-0.83203 4.0898-2.3086 5.5664-1.4766 1.4766-3.4766 2.3086-5.5664 2.3086z"/>
  <path d="m376.38 431.49c-4.3477 0-7.8711-3.5273-7.8711-7.875v-7.8711c0-4.3477 3.5234-7.8711 7.8711-7.8711 4.3477 0 7.8711 3.5234 7.8711 7.8711v7.8711c0 2.0898-0.82812 4.0898-2.3047 5.5664-1.4766 1.4766-3.4805 2.3086-5.5664 2.3086z"/>
  <path d="m218.94 415.74c-4.3477 0-7.8711-3.5234-7.8711-7.8711v-7.8711c0-4.3477 3.5234-7.875 7.8711-7.875s7.8711 3.5273 7.8711 7.875v7.8711c0 2.0859-0.82812 4.0898-2.3047 5.5664-1.4766 1.4766-3.4766 2.3047-5.5664 2.3047z"/>
  <path d="m266.18 415.74c-4.3477 0-7.875-3.5234-7.875-7.8711v-7.8711c0-4.3477 3.5273-7.875 7.875-7.875 4.3477 0 7.8711 3.5273 7.8711 7.875v7.8711c0 2.0859-0.83203 4.0898-2.3047 5.5664-1.4766 1.4766-3.4805 2.3047-5.5664 2.3047z"/>
  <path d="m557.2 573.18c-2.4766 0-4.8125-1.168-6.2969-3.1484l-46.996-62.977c-1.7891-2.3867-2.0781-5.5781-0.74609-8.2461 1.3359-2.6641 4.0625-4.3516 7.043-4.3516h15.742v-47.23c0-4.3477 3.5273-7.8711 7.875-7.8711 4.3477 0 7.8711 3.5234 7.8711 7.8711v55.105c0 2.0859-0.82812 4.0898-2.3047 5.5664-1.4766 1.4766-3.4805 2.3047-5.5664 2.3047h-7.9219l31.332 41.98 31.645-41.98h-7.8242c-4.3477 0-7.8711-3.5234-7.8711-7.8711v-55.105c0-4.3477 3.5234-7.8711 7.8711-7.8711 4.3477 0 7.8711 3.5234 7.8711 7.8711v47.23h15.746c2.9805 0 5.707 1.6875 7.0391 4.3516 1.3359 2.668 1.0469 5.8594-0.74219 8.2461l-47.469 62.977c-1.4844 1.9805-3.8203 3.1484-6.2969 3.1484z"/>
  <path d="m533.82 423.61c-4.3477 0-7.875-3.5234-7.875-7.8711v-7.8711c0-4.3477 3.5273-7.8711 7.875-7.8711 4.3477 0 7.8711 3.5234 7.8711 7.8711v7.8711c0 2.0898-0.82812 4.0898-2.3047 5.5664-1.4766 1.4766-3.4805 2.3047-5.5664 2.3047z"/>
  <path d="m581.05 423.61c-4.3477 0-7.8711-3.5234-7.8711-7.8711v-7.8711c0-4.3477 3.5234-7.8711 7.8711-7.8711 4.3477 0 7.8711 3.5234 7.8711 7.8711v7.8711c0 2.0898-0.82812 4.0898-2.3047 5.5664-1.4766 1.4766-3.4766 2.3047-5.5664 2.3047z"/>
  <path d="m392.12 297.66h15.746c2.0859 0 4.0898 0.82813 5.5664 2.3047s2.3047 3.4766 2.3047 5.5664c0 4.3477 3.5234 7.8711 7.8711 7.8711 4.3477 0 7.875-3.5234 7.875-7.8711 0-6.2656-2.4883-12.27-6.918-16.699-4.4297-4.4297-10.438-6.918-16.699-6.918v-7.8711c0-4.3477-3.5234-7.8711-7.8711-7.8711s-7.875 3.5234-7.875 7.8711v7.8711c-8.4375 0-16.23 4.5-20.449 11.809-4.2188 7.3047-4.2188 16.309 0 23.617 4.2188 7.3047 12.012 11.805 20.449 11.805h15.746c4.3477 0 7.8711 3.5273 7.8711 7.875 0 4.3477-3.5234 7.8711-7.8711 7.8711h-15.746c-4.3477 0-7.8711-3.5234-7.8711-7.8711 0-4.3477-3.5234-7.875-7.8711-7.875-4.3477 0-7.8711 3.5273-7.8711 7.875 0 6.2617 2.4883 12.27 6.9141 16.699 4.4297 4.4258 10.438 6.9141 16.699 6.9141v7.875c0 4.3477 3.5273 7.8711 7.875 7.8711s7.8711-3.5234 7.8711-7.8711v-7.875c8.4375 0 16.234-4.5 20.453-11.805 4.2188-7.3086 4.2188-16.312 0-23.617-4.2188-7.3086-12.016-11.809-20.453-11.809h-15.746c-4.3477 0-7.8711-3.5234-7.8711-7.8711s3.5234-7.8711 7.8711-7.8711z"/>
  <path d="m400 242.56c-20.879 0-40.902 8.293-55.664 23.055-14.766 14.766-23.059 34.785-23.059 55.664s8.293 40.902 23.059 55.664c14.762 14.762 34.785 23.059 55.664 23.059 20.875 0 40.898-8.2969 55.664-23.059 14.762-14.762 23.055-34.785 23.055-55.664-0.023438-20.871-8.3242-40.879-23.082-55.637-14.758-14.758-34.766-23.059-55.637-23.082zm0 141.7c-16.703 0-32.723-6.6328-44.531-18.445-11.812-11.809-18.445-27.828-18.445-44.531s6.6328-32.719 18.445-44.531c11.809-11.809 27.828-18.445 44.531-18.445 16.699 0 32.719 6.6367 44.531 18.445 11.809 11.812 18.445 27.828 18.445 44.531-0.019531 16.699-6.6602 32.703-18.469 44.512-11.805 11.805-27.812 18.445-44.508 18.465z"/>
  <path d="m549.57 218.94h15.746c2.0859 0 4.0898 0.82812 5.5664 2.3047 1.4766 1.4766 2.3047 3.4805 2.3047 5.5664 0 4.3477 3.5234 7.875 7.8711 7.875 4.3477 0 7.8711-3.5273 7.8711-7.875 0-6.2617-2.4883-12.27-6.9141-16.699-4.4297-4.4258-10.438-6.9141-16.699-6.9141v-7.875c0-4.3477-3.5273-7.8711-7.875-7.8711s-7.8711 3.5234-7.8711 7.8711v7.875c-8.4375 0-16.234 4.5-20.453 11.809-4.2188 7.3047-4.2188 16.309 0 23.613 4.2188 7.3086 12.016 11.809 20.453 11.809h15.746c4.3477 0 7.8711 3.5234 7.8711 7.8711 0 4.3477-3.5234 7.875-7.8711 7.875h-15.746c-4.3477 0-7.8711-3.5273-7.8711-7.875 0-4.3477-3.5234-7.8711-7.8711-7.8711-4.3477 0-7.875 3.5234-7.875 7.8711 0 6.2656 2.4883 12.273 6.918 16.699 4.4297 4.4297 10.438 6.918 16.699 6.918v7.8711c0 4.3477 3.5234 7.875 7.8711 7.875s7.875-3.5273 7.875-7.875v-7.8711c8.4375 0 16.23-4.5 20.449-11.809 4.2188-7.3047 4.2188-16.309 0-23.617-4.2188-7.3047-12.012-11.805-20.449-11.805h-15.746c-4.3477 0-7.8711-3.5273-7.8711-7.875s3.5234-7.8711 7.8711-7.8711z"/>
  <path d="m557.44 163.84c-20.875 0-40.898 8.2969-55.664 23.059-14.762 14.762-23.055 34.785-23.055 55.664s8.293 40.898 23.055 55.664c14.766 14.762 34.789 23.055 55.664 23.055 20.879 0 40.902-8.293 55.664-23.055 14.766-14.766 23.059-34.785 23.059-55.664-0.023437-20.871-8.3242-40.883-23.082-55.641-14.758-14.758-34.77-23.059-55.641-23.082zm0 141.7v0.003906c-16.699 0-32.719-6.6367-44.531-18.445-11.809-11.812-18.445-27.828-18.445-44.531s6.6367-32.723 18.445-44.531c11.812-11.809 27.832-18.445 44.531-18.445 16.703 0 32.723 6.6367 44.531 18.445 11.812 11.809 18.445 27.828 18.445 44.531-0.019531 16.695-6.6602 32.703-18.465 44.508-11.805 11.809-27.812 18.449-44.512 18.469z"/>
  <path d="m234.69 218.94h15.742c2.0898 0 4.0898 0.82812 5.5664 2.3047 1.4766 1.4766 2.3047 3.4805 2.3047 5.5664 0 4.3477 3.5273 7.875 7.875 7.875 4.3477 0 7.8711-3.5273 7.8711-7.875 0-6.2617-2.4883-12.27-6.918-16.699-4.4297-4.4258-10.434-6.9141-16.699-6.9141v-7.875c0-4.3477-3.5234-7.8711-7.8711-7.8711s-7.8711 3.5234-7.8711 7.8711v7.875c-8.4375 0-16.234 4.5-20.453 11.809-4.2188 7.3047-4.2188 16.309 0 23.613 4.2188 7.3086 12.016 11.809 20.453 11.809h15.742c4.3477 0 7.8711 3.5234 7.8711 7.8711 0 4.3477-3.5234 7.875-7.8711 7.875h-15.742c-4.3477 0-7.875-3.5273-7.875-7.875 0-4.3477-3.5234-7.8711-7.8711-7.8711s-7.8711 3.5234-7.8711 7.8711c0 6.2656 2.4883 12.273 6.918 16.699 4.4258 4.4297 10.434 6.918 16.699 6.918v7.8711c0 4.3477 3.5234 7.875 7.8711 7.875s7.8711-3.5273 7.8711-7.875v-7.8711c8.4375 0 16.234-4.5 20.453-11.809 4.2188-7.3047 4.2188-16.309 0-23.617-4.2188-7.3047-12.016-11.805-20.453-11.805h-15.742c-4.3477 0-7.875-3.5273-7.875-7.875s3.5273-7.8711 7.875-7.8711z"/>
  <path d="m242.56 163.84c-20.879 0-40.902 8.2969-55.664 23.059s-23.059 34.785-23.059 55.664 8.2969 40.898 23.059 55.664c14.762 14.762 34.785 23.055 55.664 23.055s40.898-8.293 55.664-23.055c14.762-14.766 23.055-34.785 23.055-55.664-0.023438-20.871-8.3242-40.883-23.082-55.641-14.758-14.758-34.766-23.059-55.637-23.082zm0 141.7v0.003906c-16.703 0-32.723-6.6367-44.531-18.445-11.809-11.812-18.445-27.828-18.445-44.531s6.6367-32.723 18.445-44.531 27.828-18.445 44.531-18.445 32.719 6.6367 44.531 18.445c11.809 11.809 18.445 27.828 18.445 44.531-0.019531 16.695-6.6602 32.703-18.469 44.508-11.805 11.809-27.812 18.449-44.508 18.469z"/>
  <path d="m218.94 360.64c-4.3477 0-7.8711 3.5273-7.8711 7.875v7.8711c0 4.3477 3.5234 7.8711 7.8711 7.8711s7.8711-3.5234 7.8711-7.8711v-7.8711c0-2.0898-0.82812-4.0898-2.3047-5.5664-1.4766-1.4766-3.4766-2.3086-5.5664-2.3086z"/>
  <path d="m218.94 329.15c-4.3477 0-7.8711 3.5273-7.8711 7.875v7.8711c0 4.3477 3.5234 7.8711 7.8711 7.8711s7.8711-3.5234 7.8711-7.8711v-7.8711c0-2.0898-0.82812-4.0898-2.3047-5.5664-1.4766-1.4766-3.4766-2.3086-5.5664-2.3086z"/>
  <path d="m266.18 360.64c-4.3477 0-7.875 3.5273-7.875 7.875v7.8711c0 4.3477 3.5273 7.8711 7.875 7.8711 4.3477 0 7.8711-3.5234 7.8711-7.8711v-7.8711c0-2.0898-0.83203-4.0898-2.3047-5.5664-1.4766-1.4766-3.4805-2.3086-5.5664-2.3086z"/>
  <path d="m266.18 329.15c-4.3477 0-7.875 3.5273-7.875 7.875v7.8711c0 4.3477 3.5273 7.8711 7.875 7.8711 4.3477 0 7.8711-3.5234 7.8711-7.8711v-7.8711c0-2.0898-0.83203-4.0898-2.3047-5.5664-1.4766-1.4766-3.4805-2.3086-5.5664-2.3086z"/>
  <path d="m533.82 368.51c-4.3477 0-7.875 3.5234-7.875 7.8711v7.8711c0 4.3477 3.5273 7.8711 7.875 7.8711 4.3477 0 7.8711-3.5234 7.8711-7.8711v-7.8711c0-2.0898-0.82812-4.0898-2.3047-5.5664-1.4766-1.4766-3.4805-2.3047-5.5664-2.3047z"/>
  <path d="m533.82 337.02c-4.3477 0-7.875 3.5234-7.875 7.8711v7.8711c0 4.3477 3.5273 7.8711 7.875 7.8711 4.3477 0 7.8711-3.5234 7.8711-7.8711v-7.8711c0-2.0898-0.82812-4.0898-2.3047-5.5664s-3.4805-2.3047-5.5664-2.3047z"/>
  <path d="m581.05 368.51c-4.3477 0-7.8711 3.5234-7.8711 7.8711v7.8711c0 4.3477 3.5234 7.8711 7.8711 7.8711 4.3477 0 7.8711-3.5234 7.8711-7.8711v-7.8711c0-2.0898-0.82812-4.0898-2.3047-5.5664-1.4766-1.4766-3.4766-2.3047-5.5664-2.3047z"/>
  <path d="m581.05 337.02c-4.3477 0-7.8711 3.5234-7.8711 7.8711v7.8711c0 4.3477 3.5234 7.8711 7.8711 7.8711 4.3477 0 7.8711-3.5234 7.8711-7.8711v-7.8711c0-2.0898-0.82812-4.0898-2.3047-5.5664-1.4766-1.4766-3.4766-2.3047-5.5664-2.3047z"/>
 </g>
</svg>