<?xml version="1.0" encoding="UTF-8"?>
<!-- The Best Svg Icon site in the world: iconSvg.co, Visit us! https://iconsvg.co -->
<svg fill="#000000" width="800px" height="800px" version="1.1" viewBox="144 144 512 512" xmlns="http://www.w3.org/2000/svg">
 <g>
  <path d="m277.98 515.49h-25.957c-1.793-0.011719-3.3867 1.1445-3.9336 2.8516l-8.0898 25.211c-0.33594 1.0391-0.24219 2.1641 0.25781 3.1328 0.49609 0.96875 1.3594 1.7031 2.3984 2.0352 0.40625 0.14062 0.83203 0.20703 1.2578 0.20312 1.7969 0.011719 3.3867-1.1445 3.9375-2.8516l7.1914-22.355h22.938c2.2734 0 4.1133-1.8438 4.1133-4.1133 0-2.2734-1.8398-4.1133-4.1133-4.1133z"/>
  <path d="m608.29 597.38-39.203-107.95c-0.59375-1.625-2.1367-2.707-3.8672-2.7031h-60.633l-38.227-105.29h-0.003906c-0.58984-1.625-2.1289-2.7031-3.8555-2.707h-124.97c-1.7305-0.003906-3.2734 1.082-3.8594 2.707l-38.227 105.29h-60.676c-1.7305-0.003907-3.2734 1.0781-3.8672 2.7031l-39.203 107.95c-0.46094 1.2617-0.28125 2.668 0.48828 3.7695 0.76953 1.0977 2.0273 1.7539 3.3711 1.75h203.45c0.66406-0.16797 1.3594-0.16797 2.0273 0h203.39c1.3438 0.003906 2.6016-0.65234 3.3711-1.75 0.76953-1.1016 0.94922-2.5078 0.48828-3.7695zm-267.91-210.38h119.24l36.23 99.73h-191.7zm59.621 202.54-34.352-94.594h68.703zm-198.57 5.1328 36.211-99.727h119.26l36.211 99.727zm205.45 0 36.223-99.727h119.26l36.211 99.727z"/>
  <path d="m483.41 515.49h-25.949c-1.793-0.011719-3.3867 1.1445-3.9375 2.8516l-8.1094 25.211h0.003906c-0.33984 1.0352-0.25 2.1641 0.24609 3.1328 0.5 0.96875 1.3594 1.7031 2.3984 2.0352 0.40625 0.13672 0.83203 0.20703 1.2617 0.20312 1.793 0.011719 3.3867-1.1445 3.9336-2.8516l7.1836-22.355h22.957c2.2734 0 4.1133-1.8438 4.1133-4.1133 0-2.2734-1.8398-4.1133-4.1133-4.1133z"/>
  <path d="m384.8 411.66c0-2.2734-1.8438-4.1133-4.1133-4.1133h-25.949c-1.793-0.011719-3.3867 1.1445-3.9375 2.8516l-8.1094 25.211h0.003906c-0.68359 2.1602 0.5 4.4648 2.6562 5.168 0.40625 0.12891 0.83203 0.19531 1.2578 0.19531 1.793 0.003906 3.3867-1.1484 3.9375-2.8555l7.1836-22.355h22.945c1.0898 0.003906 2.1406-0.42578 2.9141-1.1953 0.76953-0.76953 1.207-1.8164 1.2109-2.9062z"/>
  <path d="m475.38 285.16v0.29688 0.32422c0 0.10938 0 0.13672 0.050782 0.20703l0.058594 0.20703c0.046874 0.18359 0.10937 0.36719 0.1875 0.53906 0.019531 0.058594 0.046874 0.11328 0.078124 0.16797 0.085938 0.17969 0.1875 0.35547 0.29297 0.52344 0.027344 0.046874 0.0625 0.089843 0.10156 0.125 0.11719 0.16797 0.24609 0.32031 0.39062 0.46484l0.11719 0.11719h0.003906c0.14844 0.14062 0.30859 0.26562 0.48047 0.375l0.13672 0.097656c0.19531 0.125 0.40625 0.23047 0.62109 0.31641h0.070312c0.25 0.097657 0.51172 0.16797 0.77734 0.21484 2.0352 0.34375 49.891 9.2969 49.891 79.852h-0.003906c-0.054688 1.125 0.35547 2.2227 1.1289 3.0391 0.77734 0.8125 1.8555 1.2773 2.9805 1.2773s2.2031-0.46484 2.9766-1.2773c0.77734-0.81641 1.1875-1.9141 1.1328-3.0391 0-70.535 47.832-79.508 49.891-79.852h-0.003906c0.26172-0.039063 0.51953-0.10938 0.76953-0.20703l0.22656-0.10938 0.44141-0.21484 0.29687-0.20703 0.29688-0.23438h-0.003907c0.097657-0.089844 0.1875-0.17969 0.27734-0.27734l0.23438-0.27734v0.003907c0.082031-0.10156 0.15625-0.20703 0.22656-0.31641 0.058594-0.097656 0.11719-0.19531 0.16797-0.29688 0.050781-0.097656 0.12891-0.25391 0.1875-0.39453v0.003906c0.039063-0.09375 0.070313-0.19141 0.097657-0.28516 0.050781-0.15234 0.089843-0.30859 0.11719-0.46484v-0.097656-0.14844c0.015625-0.1875 0.015625-0.37891 0-0.57031v-0.28516-0.33594l-0.058594-0.1875c0-0.089843 0-0.17578-0.070312-0.27734v0.003906c-0.046875-0.17578-0.10547-0.34375-0.17578-0.51172l-0.089844-0.17578c-0.085938-0.1875-0.1875-0.36328-0.30469-0.53125l-0.078125-0.097656v-0.003907c-0.13281-0.17969-0.28125-0.35156-0.44141-0.51172l-0.058594-0.050781v0.003907c-0.17969-0.16797-0.37109-0.32031-0.57422-0.45313h-0.050781 0.003907c-0.21094-0.12891-0.43359-0.23828-0.66016-0.33594h-0.078125c-0.22266-0.085937-0.45312-0.15234-0.6875-0.19531h-0.058594c-2.0352-0.35547-49.891-9.3086-49.891-79.863 0.054687-1.1211-0.35156-2.2227-1.1289-3.0352-0.77734-0.81641-1.8555-1.2773-2.9805-1.2773s-2.2031 0.46094-2.9766 1.2773c-0.77734 0.8125-1.1875 1.9141-1.1289 3.0352 0 70.555-47.852 79.508-49.891 79.863-0.035157-0.003906-0.074219-0.003906-0.10938 0-0.16406 0.03125-0.32422 0.074219-0.48047 0.12891l-0.30469 0.10938c-0.13672 0.058594-0.26563 0.12891-0.39453 0.19531l-0.32422 0.1875-0.29688 0.22656-0.31641 0.28516c-0.078125 0.078125-0.14844 0.16797-0.21484 0.24609-0.10156 0.11719-0.19922 0.24219-0.28516 0.37109-0.054687 0.082032-0.10547 0.16797-0.14844 0.25781-0.089844 0.14844-0.16797 0.30078-0.23438 0.46094-0.03125 0.078126-0.058594 0.15625-0.078125 0.23828-0.066407 0.17969-0.12109 0.36328-0.16016 0.55078v0.089844 0.14844-0.003906c-0.003906 0.19141 0.007813 0.38281 0.03125 0.57031zm57.457-50.684c8.4336 30.965 28.004 44.762 40.766 50.648-12.793 5.9023-32.336 19.68-40.766 50.637-8.4414-30.965-28.016-44.762-40.777-50.637 12.723-5.8867 32.293-19.684 40.777-50.648z"/>
  <path d="m228.61 351.64c-0.003907 0.082031-0.003907 0.16406 0 0.24609v0.35547c0.011719 0.074218 0.03125 0.14453 0.058593 0.21484-0.003906 0.054687-0.003906 0.11328 0 0.16797 0.046876 0.20312 0.11719 0.40234 0.20703 0.58984-0.007813 0.042969-0.007813 0.085938 0 0.12891 0.097656 0.19141 0.20312 0.37891 0.32422 0.55859 0.027344 0.03125 0.050782 0.066406 0.070313 0.10156 0.12891 0.17188 0.26953 0.33594 0.42188 0.49219l0.097656 0.089844v-0.003906c0.16016 0.14453 0.32812 0.28125 0.50391 0.40234l0.11719 0.078125v0.003906c0.20312 0.125 0.41797 0.23438 0.64062 0.32422 0.25 0.10156 0.50781 0.17188 0.77734 0.21484 1.5859 0.26562 38.801 7.3008 38.801 62.406h-0.003906c-0.054688 1.125 0.35547 2.2227 1.1289 3.0391 0.77734 0.8125 1.8555 1.2734 2.9805 1.2734s2.2031-0.46094 2.9766-1.2734c0.77734-0.81641 1.1875-1.9141 1.1328-3.0391 0-55.105 37.215-62.141 38.809-62.406 0.25781-0.039063 0.51172-0.10547 0.75781-0.20703 0.082031-0.03125 0.16406-0.070313 0.24609-0.11719 0.14453-0.058594 0.28516-0.12891 0.42188-0.20703l0.31641-0.22656 0.27734-0.20703c0.10938-0.097656 0.19531-0.19531 0.29688-0.30469l0.20703-0.23438c0.089844-0.11719 0.17578-0.23438 0.25391-0.36328 0.078125-0.12891 0.097657-0.15625 0.13672-0.23438l-0.003906-0.003906c0.078125-0.14453 0.14844-0.29297 0.20703-0.44141 0.03125-0.074219 0.058594-0.14844 0.078125-0.22656 0.0625-0.17188 0.10938-0.34375 0.14062-0.52344-0.007813-0.019531-0.007813-0.046875 0-0.066406v-0.11719-0.62109c0.003906-0.082031 0.003906-0.16406 0-0.24609v-0.36328c0-0.12891 0-0.12891-0.050781-0.19531-0.050782-0.070313 0-0.15625-0.070313-0.22656v-0.003906c-0.042969-0.19141-0.10547-0.37891-0.18359-0.55859 0-0.050781 0-0.089843-0.070313-0.12891-0.097656-0.20703-0.20703-0.40234-0.33594-0.58984-0.46094-0.63672-1.0977-1.1289-1.8281-1.418-0.24219-0.089844-0.48828-0.16016-0.73828-0.20703h-0.050781c-1.5859-0.27734-38.809-7.3008-38.809-62.406 0.054688-1.125-0.35156-2.2227-1.1289-3.0352-0.77734-0.81641-1.8516-1.2773-2.9805-1.2773-1.125 0-2.1992 0.46094-2.9766 1.2773-0.77734 0.8125-1.1836 1.9102-1.1289 3.0352 0 55.016-37.098 62.109-38.789 62.406h-0.089844c-0.1875 0.039063-0.37109 0.089844-0.55078 0.14844l-0.24609 0.089844c-0.14453 0.0625-0.28906 0.13281-0.42188 0.21484-0.10938 0.050781-0.21094 0.10937-0.30859 0.17578-0.10937 0.070312-0.19531 0.14844-0.28516 0.21484-0.089844 0.070313-0.23438 0.19531-0.34375 0.30469s-0.11719 0.13672-0.1875 0.20703v0.003907c-0.11328 0.12891-0.21875 0.26953-0.3125 0.41406-0.050781 0.070312-0.078125 0.13672-0.11719 0.19531-0.10156 0.17188-0.1875 0.34766-0.26562 0.53125 0 0 0 0.11719-0.058594 0.17578h-0.003906c-0.070313 0.19922-0.125 0.40234-0.16406 0.60938-0.003906 0.023437-0.003906 0.046875 0 0.070312v0.11719c0.023438 0.20312 0.0625 0.40625 0.11719 0.60156zm46.328-37.105c6.7695 21.648 20.508 32.129 30.336 37.047-9.8398 4.9219-23.566 15.41-30.336 37.047-6.7695-21.648-20.508-32.137-30.336-37.047 9.8281-4.9219 23.543-15.41 30.336-37.047z"/>
 </g>
</svg>