<?xml version="1.0" encoding="UTF-8"?>
<!-- The Best Svg Icon site in the world: iconSvg.co, Visit us! https://iconsvg.co -->
<svg fill="#000000" width="800px" height="800px" version="1.1" viewBox="144 144 512 512" xmlns="http://www.w3.org/2000/svg">
 <path d="m626.23 246.95c-0.10547-0.25-0.29688-0.4375-0.44141-0.66406-0.19531-0.31641-0.34375-0.65625-0.61328-0.92578-0.41406-0.41406-0.90234-0.69531-1.4023-0.93359-0.058594-0.03125-0.10547-0.085937-0.17188-0.10938-0.63672-0.26562-1.3086-0.39844-1.9883-0.38672h-39.215c-2.7188 0-4.9258 2.207-4.9258 4.9258s2.207 4.9258 4.9258 4.9258h27.383l-70.953 70.957-14.691-14.691c1.375-2.6055 2.1758-5.4883 2.1758-8.4961 0-10.027-8.1758-18.176-18.227-18.176-10.027 0-18.176 8.1562-18.176 18.176 0 2.7617 0.68359 5.4375 1.8555 7.8789l-74.027 74.027-16.137-16.172c1.4453-2.6562 2.2891-5.6016 2.2891-8.6797 0-10.027-8.1562-18.176-18.176-18.176-10.051 0-18.227 8.1562-18.227 18.176 0 3.0938 0.83984 6.0352 2.2656 8.6523l-69.469 69.457-20.711-20.715c1.5117-2.6914 2.3867-5.6992 2.3867-8.8711 0-10.027-8.1758-18.184-18.227-18.184-10.027 0-18.176 8.1562-18.176 18.184 0 3.1758 0.875 6.1836 2.3867 8.8711l-64.711 64.707v-231.85c0-2.7188-2.207-4.9258-4.9258-4.9258-2.7227-0.003906-4.9219 2.2031-4.9219 4.9258v302.3c0 2.7188 2.207 4.9258 4.9258 4.9258h443.38c2.7188 0 4.9258-2.207 4.9258-4.9258s-2.207-4.9258-4.9258-4.9258l-77.941-0.003906v-212.48l73.008-73.012v27.559c0 2.7188 2.207 4.9258 4.9258 4.9258s4.9258-2.207 4.9258-4.9258v-39.434-0.003906c0.003906-0.65234-0.12891-1.293-0.37891-1.9023zm-357.57 177.65c1.3789-0.38672 2.6992-0.93359 3.9492-1.6328l22.754 22.758v100.5h-26.703zm36.551 21.125 71.426-71.426c1.3047 0.75391 2.6914 1.3516 4.1523 1.7617v170.17h-75.57v-100.5zm85.426-69.652c1.4375-0.40234 2.7969-0.98438 4.0859-1.7266l18.082 18.121v153.76h-22.168zm32.023 16.395 75.652-75.652c1.5078 0.96875 3.125 1.7148 4.8477 2.2031v227.21h-80.5zm85.426-99.234c4.6211 0 8.3789 3.7344 8.3789 8.3242 0 2.1172-0.82812 4.2109-2.2227 5.7031-3.4141 3.5508-9.4297 3.3711-12.5-0.27344-1.2812-1.5-1.9805-3.4297-1.9805-5.4297-0.003907-4.5898 3.7344-8.3242 8.3242-8.3242zm-122.38 57.047c4.5898 0 8.3242 3.7344 8.3242 8.3242 0 2.1758-0.83984 4.2578-2.3672 5.8438-3.1406 3.2578-8.8203 3.2852-11.996-0.082031-1.5078-1.543-2.3359-3.5859-2.3359-5.7617 0-4.5859 3.7578-8.3242 8.375-8.3242zm-121.98 48.52c4.6211 0 8.3789 3.7344 8.3789 8.3281 0 2.2422-0.86719 4.3477-2.4492 5.9258-3.1406 3.1328-8.6211 3.1797-11.805 0-1.5781-1.582-2.4492-3.6836-2.4492-5.9258 0-4.5898 3.7344-8.3281 8.3242-8.3281zm-80.5 95.84 71.672-71.672c1.2344 0.69531 2.5391 1.2344 3.8984 1.6211v121.63h-75.57zm329.77 51.586v-227.22c1.5-0.42969 2.9375-1.0469 4.2969-1.8477l16.59 16.59v212.48z"/>
</svg>