<?xml version="1.0" encoding="UTF-8"?>
<!-- The Best Svg Icon site in the world: iconSvg.co, Visit us! https://iconsvg.co -->
<svg fill="#000000" width="800px" height="800px" version="1.1" viewBox="144 144 512 512" xmlns="http://www.w3.org/2000/svg">
 <g>
  <path d="m617.66 212.79h-259.78c-2.9609 0-5.3828 2.4023-5.3828 5.3828v83.652h63.711c12.027 0 21.82 9.793 21.82 21.82 0 12.027-9.793 21.812-21.82 21.812h-63.711v99.449c0 2.9609 2.4023 5.375 5.3828 5.375h72.391l-27.059 128.89c-1.1758 5.6562 2.4336 11.23 8.1133 12.426 0.72266 0.16797 1.457 0.21875 2.1641 0.21875 4.8594 0 9.2266-3.3906 10.266-8.3438l27.961-133.2h77.555l27.961 133.2c1.0391 4.9531 5.4062 8.3438 10.266 8.3438 0.71484 0 1.4492-0.082031 2.1641-0.21875 5.6797-1.1875 9.3086-6.7695 8.1133-12.426l-27.059-128.89h66.945c2.9609 0 5.375-2.4023 5.375-5.375l-0.007812-226.73c0-2.9688-2.4023-5.3828-5.3711-5.3828zm-34.199 117.21c-0.0625 0.21875 0.019531 0.42969-0.042969 0.66016l-5.4688 17.77c-1.3867 4.5234-5.5312 7.4102-10.035 7.4102-1.0195 0-2.0586-0.14844-3.0859-0.46094-2.5-0.75391-4.4297-2.457-5.7188-4.543l-39.215 28.371c-2.457 1.7734-5.5508 2.3945-8.5352 1.7227-2.9492-0.68359-5.4688-2.6133-6.8867-5.2891l-13.129-24.613-79.855 44.723c-1.6055 0.91406-3.3711 1.3438-5.1016 1.3438-3.6953 0-7.2422-1.9531-9.1641-5.3828-2.8438-5.0391-1.0508-11.449 4.0312-14.266l89.195-49.949c2.4453-1.3945 5.3828-1.6992 8.0938-0.93359 2.707 0.79688 4.9844 2.6445 6.3086 5.1328l12.512 23.426 29.473-21.316c-1.543-1.8672-2.5625-4.207-2.5078-6.832 0.125-5.8047 5.4141-10.34 10.707-10.277l18.59 0.36719c0.21875 0 0.38672 0.13672 0.62109 0.15625 1.0703 0.082031 2.0664 0.37891 3.0547 0.78906 0.41016 0.16797 0.83984 0.21875 1.207 0.44141 1.3125 0.71484 2.4883 1.6797 3.4219 2.9609 0.92188 1.2812 1.457 2.707 1.7305 4.1562 0.09375 0.42969 0.019531 0.85938 0.050781 1.3008 0.035157 1.0977-0.007812 2.1055-0.25 3.1328z"/>
  <path d="m313.12 244.58c0-22.492-18.293-40.777-40.777-40.777-22.492 0-40.789 18.285-40.789 40.777 0 22.492 18.293 40.777 40.789 40.777 22.473 0 40.777-18.281 40.777-40.777z"/>
  <path d="m242.07 244.58c0-16.711 13.594-30.281 30.293-30.281s30.281 13.57 30.281 30.281c0 16.688-13.582 30.281-30.281 30.281-16.703 0-30.293-13.59-30.293-30.281z"/>
  <path d="m224.57 307.07c-8.7539 0-16.762 5.1328-20.395 13.109l-25.18 55.145c-4.1758 9.1641-1.7109 20.078 6.0156 26.543l31.383 26.168c2.9609 2.457 6.75 3.8203 10.602 3.8203 0.92187 0 1.8477-0.074218 2.75-0.21875l-4.082 0.72656v143.98c0 10.949 8.9102 19.848 19.848 19.848s19.836-8.9023 19.836-19.848v-124.38c0-3.8711 3.1602-7.0234 7.0312-7.0234s7.0234 3.1484 7.0234 7.0234v124.38c0 10.949 8.9102 19.848 19.848 19.848 10.949 0 19.848-8.9023 19.848-19.848v-236.13h97.184c9.1406 0 16.562-7.4297 16.562-16.562 0-9.1406-7.4219-16.574-16.562-16.574h-134.74l-3.7891 12.207 13.32 68.477-18.695 20.34-18.695-20.34 13.32-68.477-3.8086-12.207m-50.684 74.574 17.801-38.973v53.812"/>
 </g>
</svg>