<?xml version="1.0" encoding="UTF-8"?>
<!-- The Best Svg Icon site in the world: iconSvg.co, Visit us! https://iconsvg.co -->
<svg fill="#000000" width="800px" height="800px" version="1.1" viewBox="144 144 512 512" xmlns="http://www.w3.org/2000/svg">
 <g>
  <path d="m326.53 621.46c0.53906 5.3828 5.0859 9.4727 10.496 9.4453h125.95c5.4102 0.027344 9.9531-4.0625 10.496-9.4453l9.5508-95.516h-166.05z"/>
  <path d="m389.5 357.38v21.625c-9.0547-6.8711-20.125-10.559-31.488-10.496h-31.488c-5.7969 0-10.496 4.6992-10.496 10.496 0 13.918 5.5273 27.266 15.371 37.109 9.8398 9.8398 23.191 15.371 37.109 15.371h20.992v10.496h20.992v-10.496h20.992c13.918 0 27.266-5.5312 37.105-15.371 9.8438-9.8438 15.371-23.191 15.371-37.109 0-2.7852-1.1055-5.4531-3.0742-7.4219-1.9648-1.9688-4.6367-3.0742-7.418-3.0742h-31.488c-11.367-0.0625-22.434 3.625-31.488 10.496v-21.625c32.297-3.6094 60.469-23.57 74.59-52.844 14.117-29.27 12.195-63.746-5.0859-91.27-17.285-27.523-47.504-44.23-80-44.23-32.5 0-62.719 16.707-80 44.23-17.285 27.523-19.207 62-5.0859 91.27 14.117 29.273 42.289 49.234 74.59 52.844zm-10.496-83.336c-5.7969 0-10.496-4.6992-10.496-10.496v-31.488c0-5.7969 4.6992-10.496 10.496-10.496h10.496c0-5.7969 4.6992-10.496 10.496-10.496s10.496 4.6992 10.496 10.496h10.496c5.7969 0 10.496 4.6992 10.496 10.496s-4.6992 10.496-10.496 10.496h-31.488v10.496h31.488c2.7812 0 5.4531 1.1055 7.4219 3.0742 1.9648 1.9688 3.0742 4.6367 3.0742 7.4219v31.488c0 2.7812-1.1094 5.4531-3.0742 7.4219-1.9688 1.9688-4.6406 3.0742-7.4219 3.0742h-10.496c0 5.7969-4.6992 10.496-10.496 10.496s-10.496-4.6992-10.496-10.496h-10.496c-5.7969 0-10.496-4.6992-10.496-10.496 0-5.7969 4.6992-10.496 10.496-10.496h31.488v-10.496z"/>
  <path d="m305.54 462.98h188.93c5.7969 0 10.496 5.7969 10.496 10.496v20.992c0 5.7969-4.6992 10.496-10.496 10.496h-188.93c-5.7969 0-10.496-5.7969-10.496-10.496v-20.992c0-5.7969 4.6992-10.496 10.496-10.496z"/>
 </g>
</svg>