<?xml version="1.0" encoding="UTF-8"?>
<!-- The Best Svg Icon site in the world: iconSvg.co, Visit us! https://iconsvg.co -->
<svg fill="#000000" width="800px" height="800px" version="1.1" viewBox="144 144 512 512" xmlns="http://www.w3.org/2000/svg">
 <g>
  <path d="m224.85 415.47c0-3.2617 2.6406-5.9023 5.9023-5.9023s5.9023 2.6406 5.9023 5.9023v29.789h75.77v-29.789c0-3.2617 2.6445-5.9023 5.9062-5.9023 3.2578 0 5.9023 2.6406 5.9023 5.9023v29.789h76.754v-29.789c0-3.2617 2.6406-5.9023 5.9023-5.9023s5.9023 2.6406 5.9023 5.9023v29.789h35.426v-59.039h-79.703v29.785c0 3.2578-2.6445 5.9023-5.9062 5.9023s-5.9023-2.6445-5.9023-5.9023v-29.785h-75.77v29.785c0 3.2578-2.6445 5.9023-5.9023 5.9023-3.2617 0-5.9062-2.6445-5.9062-5.9023v-29.785h-79.703v59.039h35.426z"/>
  <path d="m224.85 344.41c0-3.2617 2.6406-5.9023 5.9023-5.9023s5.9023 2.6406 5.9023 5.9023v30h75.77v-30c0-3.2617 2.6445-5.9023 5.9062-5.9023 3.2578 0 5.9023 2.6406 5.9023 5.9023v30h76.754v-30c0-3.2617 2.6406-5.9023 5.9023-5.9023s5.9023 2.6406 5.9023 5.9023v30h35.426v-59.039h-79.703v29.574c0 3.2617-2.6445 5.9023-5.9062 5.9023s-5.9023-2.6406-5.9023-5.9023v-29.574h-75.77v29.574c0 3.2617-2.6445 5.9023-5.9023 5.9023-3.2617 0-5.9062-2.6406-5.9062-5.9023v-29.574h-79.703v59.039h35.426z"/>
  <path d="m224.85 273.36c0-3.2578 2.6406-5.9023 5.9023-5.9023s5.9023 2.6445 5.9023 5.9023v29.227h75.77v-29.227c0-3.2578 2.6445-5.9023 5.9062-5.9023 3.2578 0 5.9023 2.6445 5.9023 5.9023v29.227h76.754v-29.227c0-3.2578 2.6406-5.9023 5.9023-5.9023s5.9023 2.6445 5.9023 5.9023v29.227h35.426v-58.055h-79.703v29.363c0 3.2578-2.6445 5.9023-5.9062 5.9023s-5.9023-2.6445-5.9023-5.9023v-29.363h-75.77v29.363c0 3.2578-2.6445 5.9023-5.9023 5.9023-3.2617 0-5.9062-2.6445-5.9062-5.9023v-29.363h-79.703v58.055h35.426z"/>
  <path d="m224.85 202.3c0-3.2617 2.6406-5.9023 5.9023-5.9023s5.9023 2.6406 5.9023 5.9023v29.438h75.77v-29.438c0-3.2617 2.6445-5.9023 5.9062-5.9023 3.2578 0 5.9023 2.6406 5.9023 5.9023v29.438h76.754v-29.438c0-3.2617 2.6406-5.9023 5.9023-5.9023s5.9023 2.6406 5.9023 5.9023v29.438h35.426v-59.039h-79.703v30.137c0 3.2617-2.6445 5.9023-5.9062 5.9023s-5.9023-2.6406-5.9023-5.9023v-30.137h-75.77v30.137c0 3.2617-2.6445 5.9023-5.9023 5.9023-3.2617 0-5.9062-2.6406-5.9062-5.9023v-30.137h-79.703v59.039h35.426z"/>
  <path d="m224.85 486.53c0-3.2617 2.6406-5.9062 5.9023-5.9062s5.9023 2.6445 5.9023 5.9062v30.562h35.875c0.74609-0.98438 1.5742-0.53516 2.4414-0.53516s1.6992-0.44922 2.4414 0.53516h35.012v-30.562c0-3.2617 2.6445-5.9062 5.9062-5.9062 3.2578 0 5.9023 2.6445 5.9023 5.9062v30.562h35.965c0.74609-0.98438 1.5742-0.53516 2.4414-0.53516 0.86719 0 1.6992-0.44922 2.4414 0.53516h35.906v-30.562c0-3.2617 2.6406-5.9062 5.9023-5.9062s5.9023 2.6445 5.9023 5.9062v21.301c3.9375-19.395 14.234-36.984 27.914-50.762h-72.191v29.992c0 3.2617-2.6445 5.9062-5.9062 5.9062s-5.9023-2.6445-5.9023-5.9062v-29.992h-75.77v29.992c0 3.2617-2.6445 5.9062-5.9023 5.9062-3.2617 0-5.9062-2.6445-5.9062-5.9062v-29.992h-79.703v60.023h35.426z"/>
  <path d="m421.97 522.59c0 0.71875-0.13281 1.4336-0.39453 2.1055-0.22266 2.6445-0.34375 5.3203-0.34375 8.0234-0.03125 28.727 12.977 55.918 35.367 73.918s51.738 24.867 79.789 18.664c28.051-6.2031 51.773-24.801 64.484-50.562 12.715-25.766 13.047-55.906 0.90625-81.941-12.145-26.035-35.445-45.152-63.355-51.973-27.906-6.8203-57.398-0.60547-80.18 16.898-0.41016 0.43359-0.87891 0.80078-1.3984 1.0938-19.465 15.523-32.027 38.094-34.961 62.816 0.054688 0.31641 0.085938 0.63672 0.085938 0.95703zm93.863 19.359h0.003907c-10.859 0-20.973-5.5117-26.852-14.637-5.8789-9.1289-6.7188-20.617-2.2305-30.5 4.4922-9.8828 13.695-16.809 24.438-18.387v-7.582c0-3.2617 2.6445-5.9062 5.9023-5.9062 3.2617 0 5.9062 2.6445 5.9062 5.9062v8.0625c7.0352 1.625 13.309 5.5859 17.809 11.238 4.4961 5.6484 6.9492 12.652 6.957 19.871 0 3.2617-2.6406 5.9062-5.9023 5.9062s-5.9023-2.6445-5.9023-5.9062c0-5.3359-2.1211-10.457-5.8945-14.23-3.7734-3.7734-8.8945-5.8945-14.23-5.8945-5.3398 0-10.457 2.1211-14.23 5.8945-3.7773 3.7734-5.8945 8.8945-5.8945 14.23 0 5.3359 2.1172 10.457 5.8945 14.23 3.7734 3.7734 8.8906 5.8945 14.23 5.8945 11.023 0 21.27 5.6836 27.102 15.043 5.832 9.3555 6.4258 21.059 1.5664 30.957-4.8555 9.8945-14.473 16.59-25.441 17.703v9.8398c0 3.2617-2.6445 5.9023-5.9023 5.9023-3.2617 0-5.9062-2.6406-5.9062-5.9023v-10.859c-6.7109-1.8789-12.625-5.9023-16.84-11.453-4.2148-5.5508-6.5039-12.328-6.5117-19.297 0-3.2617 2.6445-5.9062 5.9023-5.9062 3.2617 0 5.9062 2.6445 5.9062 5.9062 0 5.3359 2.1211 10.457 5.8945 14.23 3.7734 3.7734 8.8945 5.8945 14.23 5.8945 5.3359 0 10.457-2.1211 14.23-5.8945 3.7734-3.7734 5.8945-8.8945 5.8945-14.23 0-5.3398-2.1211-10.457-5.8945-14.23-3.7773-3.7734-8.8945-5.8945-14.23-5.8945z"/>
  <path d="m412.79 587.94h11.996c-5.5977-9.8398-10.027-19.559-11.996-30.328z"/>
  <path d="m224.85 557.59c0-3.2617 2.6406-5.9062 5.9023-5.9062s5.9023 2.6445 5.9023 5.9062v30.352h75.77v-30.352c0-3.2617 2.6445-5.9062 5.9062-5.9062 3.2578 0 5.9023 2.6445 5.9023 5.9062v30.352h76.754v-30.352c-0.10938-2.7148 1.7344-5.1172 4.3828-5.7148 2.6484-0.60156 5.3438 0.77344 6.418 3.2656-1.5703-7.3008-2.3633-14.75-2.3594-22.215 0-1.4141 0.035157-3.0391 0.089844-4.0234h-41.004v29.227c0 3.2578-2.6445 5.9023-5.9062 5.9023s-5.9023-2.6445-5.9023-5.9023v-29.227h-75.77v29.227c0 3.2578-2.6445 5.9023-5.9023 5.9023-3.2617 0-5.9062-2.6445-5.9062-5.9023v-29.227h-79.703v59.039h35.426z"/>
 </g>
</svg>