<?xml version="1.0" encoding="UTF-8"?>
<!-- The Best Svg Icon site in the world: iconSvg.co, Visit us! https://iconsvg.co -->
<svg fill="#000000" width="800px" height="800px" version="1.1" viewBox="144 144 512 512" xmlns="http://www.w3.org/2000/svg">
 <g>
  <path d="m274.11 478.49v-31.203c0.003906-1.2539-0.49609-2.457-1.3789-3.3438-0.88672-0.89062-2.0898-1.3906-3.3438-1.3906h-39.359c-2.6172 0-4.7344 2.1211-4.7344 4.7344v31.203c0 1.2539 0.5 2.457 1.3867 3.3438 0.88672 0.88672 2.0898 1.3828 3.3477 1.3789h39.359c1.25 0 2.4531-0.49609 3.3398-1.3828 0.88672-0.88672 1.3828-2.0859 1.3828-3.3398zm-9.457-4.6953h-29.902v-21.746h29.902z"/>
  <path d="m292.43 483.21h39.363c2.6055 0 4.7227-2.1133 4.7227-4.7227v-31.203c0-1.2539-0.49609-2.457-1.3828-3.3438-0.88281-0.89062-2.0859-1.3906-3.3398-1.3906h-39.363c-1.2539 0-2.457 0.5-3.3398 1.3906-0.88672 0.88672-1.3828 2.0898-1.3828 3.3438v31.203c0 1.2539 0.5 2.4531 1.3828 3.3398 0.88672 0.88672 2.0898 1.3828 3.3398 1.3828zm4.7227-31.203h29.914v21.785h-29.914z"/>
  <path d="m508.94 271.54c1.4961-0.003906 2.8984-0.71484 3.7891-1.9141 0.89063-1.2031 1.1602-2.7539 0.72656-4.1836-0.058594-0.74609-0.19531-3.4258-0.089844-12.289l0.003907-0.003907c0.085937-5.4453 4.5156-9.8242 9.9648-9.8398 5.1523-0.003907 10.094-2.0547 13.734-5.7031 3.6406-3.6445 5.6836-8.5859 5.6797-13.738v-11.426c0.0625-1.293-0.41016-2.5508-1.3047-3.4844-0.89062-0.93359-2.1289-1.4648-3.4219-1.4648s-2.5273 0.53125-3.4219 1.4648c-0.89453 0.93359-1.3633 2.1914-1.3047 3.4844v11.426c-0.007813 5.4961-4.4609 9.9531-9.9609 9.957-5.1016 0.015626-9.9922 2.0352-13.621 5.6172-3.6289 3.5859-5.7109 8.4492-5.793 13.551-0.19531 15.254 0.089843 15.539 1.6719 17.121h0.003906c0.87891 0.90625 2.082 1.418 3.3438 1.4258z"/>
  <path d="m529.48 264.97c-0.16797 12.676 0 13.363 1.625 14.957h-0.003906c1.5312 1.4922 3.8672 1.7773 5.7109 0.69141 1.8398-1.082 2.7266-3.2656 2.1641-5.3242-0.058594-0.67969-0.15625-2.9531-0.070313-10.203v-0.003906c0.070313-4.1758 3.4688-7.5312 7.6445-7.5469 4.5352-0.003907 8.8828-1.8086 12.09-5.0117 3.2031-3.207 5.0078-7.5547 5.0117-12.09v-9.6914c0-2.6094-2.1133-4.7227-4.7227-4.7227s-4.7227 2.1133-4.7227 4.7227v9.6641c-0.011719 4.2227-3.4336 7.6406-7.6562 7.6445-4.4922 0.023437-8.7969 1.8086-11.992 4.9688-3.1914 3.1641-5.0156 7.4531-5.0781 11.945z"/>
  <path d="m613.71 543.25h-46.949c27.219-25.25 47.016-72.207 50.637-93.883 4.3594-26.203-10.824-32.363-11.484-32.609h0.003906c-0.53906-0.21484-1.1133-0.32031-1.6953-0.31641h-28.602v-61.352c-0.011719-5.7422-4.6641-10.391-10.402-10.402h-24.766l-2.7852-44.695v0.003906c-0.15234-2.4961-2.2188-4.4375-4.7148-4.4414h-41.605c-2.4961 0.003906-4.5664 1.9453-4.7227 4.4414l-2.7734 44.695-24.77-0.003906c-5.7383 0.011719-10.387 4.6602-10.398 10.402v61.352h-17.496v-125.82-0.10938-0.33594 0.003906c0.003906-0.066406 0.003906-0.13281 0-0.19531-0.003906-0.082031-0.003906-0.16406 0-0.24609l-0.058594-0.25391c0-0.058593 0-0.12891-0.050781-0.1875l-0.089843-0.26562-0.058594-0.16797c0-0.078126-0.070313-0.16797-0.10938-0.24609l-0.089844-0.16797-0.11719-0.21484-0.11719-0.1875-0.11719-0.17578-0.14844-0.19531-0.12891-0.14844-0.17578-0.20703-0.12891-0.11719-0.20703-0.1875-0.15625-0.12891-0.20703-0.14844-0.21484-0.13672-0.16797-0.097657-0.30469-0.15625h-0.089844l-136.25-60.051c-1.4609-0.64062-3.1484-0.5-4.4844 0.375-1.3359 0.87109-2.1445 2.3594-2.1445 3.957v41.605 0.10938l0.28516 12.227c-6.5312 1.7031-11.688 6.7148-13.566 13.199-1.8828 6.4805-0.21094 13.473 4.3984 18.406 4.6094 4.9297 11.473 7.0742 18.066 5.6367 6.5977-1.4375 11.949-6.2383 14.086-12.641 0.45703-1.207 0.39844-2.543-0.15625-3.707-0.55469-1.1602-1.5625-2.043-2.7852-2.4492-1.2227-0.40234-2.5586-0.28516-3.6953 0.31641-1.1367 0.60547-1.9766 1.6484-2.3281 2.8867-1.1602 3.4414-4.1484 5.9453-7.7422 6.4844-3.5938 0.53906-7.1875-0.97656-9.3086-3.9258-2.1211-2.9492-2.4141-6.8359-0.76172-10.07 1.6562-3.2344 4.9805-5.2734 8.6133-5.2812 1.2734 0.007812 2.4961-0.50391 3.3867-1.4141 0.88672-0.91016 1.3711-2.1445 1.3359-3.418l-0.36328-16.395v-34.328l126.7 55.852v122.71h-15.371v-58.32c0-2.6094-2.1133-4.7266-4.7227-4.7266h-193.6c-1.2539 0-2.457 0.49609-3.3477 1.3828-0.88672 0.88281-1.3867 2.0859-1.3867 3.3438v58.32h-17.023c-1.3086-0.003906-2.5625 0.54297-3.4531 1.5039-0.89844 0.96094-1.3633 2.25-1.2773 3.5625 2.2031 30.109 8.0117 55.703 17.258 76.074 7.5273 16.57 17.34 29.785 29.184 39.25h0.003906c2.9414 2.3594 6.0469 4.5039 9.2969 6.418h-43.297c-2.5273 0.11328-4.5156 2.1992-4.5156 4.7266 0 2.5312 1.9883 4.6133 4.5156 4.7305h419.72c2.5273-0.11719 4.5156-2.1992 4.5156-4.7305 0-2.5273-1.9883-4.6133-4.5156-4.7266zm-117.92-238.24h32.727l2.4688 39.676h-37.668zm-37.656 50.074-0.003907 0.003906c0-0.54297 0.44141-0.98438 0.98438-0.98438h106.11c0.26172 0 0.51172 0.10156 0.69531 0.28906 0.18359 0.18359 0.28906 0.43359 0.28906 0.69531v61.352h-108.07zm-61.215 61.352h-55.105l-0.003906-53.594h22.809v11.238l0.003906-0.003906c0.11328 2.5273 2.1953 4.5195 4.7266 4.5195s4.6133-1.9922 4.7266-4.5195v-11.234h22.82zm-64.539 0h-55.105l-0.003906-53.594h22.82v11.238-0.003906c0 2.6094 2.1133 4.7266 4.7227 4.7266s4.7227-2.1172 4.7227-4.7266v-11.234h22.82zm-119.62-53.594h22.809v11.238-0.003906c0.11719 2.5273 2.1992 4.5195 4.7305 4.5195 2.5273 0 4.6133-1.9922 4.7266-4.5195v-11.234h22.82v53.598h-55.105zm21.156 166.61c-16.5-13.207-37.047-41.883-42.527-103.57h411.66c1.9688 1.3008 7.6055 6.4648 5.0273 21.922-3.6914 22.16-26.824 75.375-56.336 95.449h-283.87c-2.8945-0.046874-17.891-0.94141-33.949-13.805z"/>
  <path d="m544.32 582.84h-280.93c-2.5273 0.11719-4.5195 2.1992-4.5195 4.7266 0 2.5312 1.9922 4.6133 4.5195 4.7305h280.93-0.003907c2.5312-0.11719 4.5195-2.1992 4.5195-4.7305 0-2.5273-1.9883-4.6094-4.5195-4.7266z"/>
 </g>
</svg>