<?xml version="1.0" encoding="UTF-8"?>
<!-- The Best Svg Icon site in the world: iconSvg.co, Visit us! https://iconsvg.co -->
<svg width="800px" height="800px" version="1.1" viewBox="144 144 512 512" xmlns="http://www.w3.org/2000/svg">
 <defs>
  <clipPath id="a">
   <path d="m153 162h494v489.9h-494z"/>
  </clipPath>
 </defs>
 <g clip-path="url(#a)">
  <path d="m392.12 384.25h15.746c4.1758 0 8.1797 1.6602 11.133 4.6133 2.9531 2.9531 4.6094 6.957 4.6094 11.133 0 4.3477 3.5273 7.8711 7.875 7.8711 4.3477 0 7.8711-3.5234 7.8711-7.8711-0.027344-8.3438-3.3516-16.34-9.25-22.238-5.9023-5.9023-13.895-9.2266-22.238-9.25v-7.875c0-4.3477-3.5234-7.8711-7.8711-7.8711s-7.875 3.5234-7.875 7.8711v7.875c-11.25 0-21.645 6-27.27 15.742-5.625 9.7422-5.625 21.746 0 31.488 5.625 9.7422 16.02 15.746 27.27 15.746h15.746c5.625 0 10.82 3 13.633 7.8711s2.8125 10.871 0 15.742c-2.8125 4.8711-8.0078 7.875-13.633 7.875h-15.746c-4.1758 0-8.1797-1.6602-11.133-4.6133-2.9492-2.9531-4.6094-6.957-4.6094-11.133 0-4.3477-3.5234-7.8711-7.8711-7.8711-4.3477 0-7.875 3.5234-7.875 7.8711 0.027343 8.3438 3.3516 16.34 9.25 22.238 5.9023 5.8984 13.895 9.2266 22.238 9.25v7.8711c0 4.3477 3.5273 7.8711 7.875 7.8711s7.8711-3.5234 7.8711-7.8711v-7.8711c11.25 0 21.645-6 27.27-15.742 5.625-9.7461 5.625-21.746 0-31.488-5.625-9.7422-16.02-15.746-27.27-15.746h-15.746c-5.625 0-10.82-3-13.633-7.8711s-2.8125-10.875 0-15.746 8.0078-7.8711 13.633-7.8711zm254.11-103.58c-0.035156-1.4258-0.46484-2.8086-1.2422-4v-0.28516-0.14062c-0.82031-6.3125-3.1992-12.316-6.9297-17.477l-56.852-79.664c-3.1641-4.4922-7.3086-8.2109-12.121-10.863-0.50781-0.50781-1.0938-0.92969-1.7305-1.2578-0.15625 0-0.31641-0.15625-0.47266-0.15625v-0.003906c-5.5039-2.8242-11.605-4.2812-17.793-4.25h-298.19c-5.6055 0-11.145 1.2383-16.215 3.6211-0.34375 0.10547-0.67188 0.25391-0.97656 0.44141-0.39063 0.10938-0.76953 0.25391-1.1328 0.42578-0.09375 0-0.14062 0.15625-0.23438 0.21875h-0.003906c-5.3242 2.832-9.9102 6.8789-13.383 11.809l-56.852 79.68c-3.7227 5.1016-6.1055 11.059-6.9258 17.32v0.36328-0.003906c-1.7461 2.3555-1.8594 5.543-0.28516 8.0156v0.28516c0.47266 6.4531 2.5742 12.684 6.1094 18.105l219.16 339.44c4.3516 6.7344 11.82 10.801 19.84 10.801 8.0156 0 15.484-4.0664 19.836-10.801l219.32-339.44c3.6133-5.5039 5.7305-11.852 6.1367-18.422v-0.20312c0.60156-1.0938 0.92578-2.3164 0.94531-3.5586zm-80.137-95.109c0.82031 0.81641 1.5586 1.7148 2.2031 2.6758l56.992 79.664h0.003906c1.1016 1.5 2.0039 3.1445 2.6758 4.8789h-111.23l49.215-87.348zm-17.004-7.2422c0.89453-0.03125 1.793 0.019531 2.6758 0.15625l-50.129 89.047-85.27-89.203zm-74.312 175.7c-18.543-20.113-44.414-31.902-71.762-32.703-27.348-0.80078-53.863 9.457-73.555 28.449l-16.215-61.227h179.8zm11.809 69.59v-0.003907c0.0625 22.984-9.0391 45.047-25.293 61.301-16.25 16.254-38.312 25.355-61.297 25.293-9.9297 0.03125-19.789-1.6719-29.129-5.0391-6.6836-2.3711-13.035-5.5977-18.891-9.6016-17.559-11.652-30.246-29.324-35.668-49.684-5.4258-20.359-3.2109-42 6.2266-60.84 3.1211-6.3477 7.0352-12.273 11.648-17.633 17.148-20.133 42.57-31.309 69-30.324 26.426 0.98047 50.949 14.012 66.559 35.359 4.5586 5.9961 8.2188 12.629 10.863 19.68 4.0039 10.016 6.0352 20.707 5.9805 31.488zm-1.7305-150.83-164.21-0.003906 19.207-21.395 60.301-67.086zm-233.96-94.465h133.35l-80.105 89.234-55.293-89.078c0.67578-0.12891 1.3594-0.17969 2.0469-0.15625zm-78.562 94.465v-0.003906c0.55078-1.7578 1.4062-3.4102 2.5195-4.8789l56.836-79.664c0.83203-1.1211 1.7539-2.1758 2.7539-3.1484l54.43 87.707h-116.54zm1.8906 21.57v-0.003906c-1.1719-1.793-2.0664-3.75-2.6641-5.8086h125.31l20.152 75.57c-12.652 17.254-19.438 38.105-19.363 59.496 0.039063 19.625 5.7109 38.828 16.344 55.32 10.633 16.496 25.781 29.59 43.641 37.727l28.023 105.17zm227.03 324.64-25.664-96.039c7.9766 2.0273 16.176 3.0352 24.406 2.9883 9.5273-0.015625 19.012-1.3398 28.18-3.9336zm224.67-324.64-207.35 320.86 28.023-100.61c25.477-13 44.34-36.086 52-63.648 7.6602-27.559 3.418-57.066-11.695-81.352l22.516-81.066h119.18-0.003907c-0.59766 2.0586-1.5 4.0156-2.6758 5.8086z"/>
 </g>
</svg>