<?xml version="1.0" encoding="UTF-8"?>
<!-- The Best Svg Icon site in the world: iconSvg.co, Visit us! https://iconsvg.co -->
<svg fill="#000000" width="800px" height="800px" version="1.1" viewBox="144 144 512 512" xmlns="http://www.w3.org/2000/svg">
 <g>
  <path d="m627.9 388.4-41.273-4.3633c-10.762-20.781-26.188-39.227-45.863-54.879l2.3086-21.352c2.1875-19.672 2.6133-25.906 2.0273-29.66-0.92578-7.6211-7.1211-12.738-15.484-12.781-7.8711-0.25391-19 2.1055-33.836 7.1641l9.1289-52.547v-0.003907c0.55859-3.2109-1.5938-6.2695-4.8086-6.8242l-262.93-45.684c-1.543-0.26953-3.1289 0.085938-4.4102 0.98828-1.2812 0.89844-2.1484 2.2734-2.418 3.8164l-25.988 149.6c-0.26562 1.543 0.089844 3.1289 0.99219 4.4102 0.89844 1.2773 2.2734 2.1484 3.8164 2.418l65.52 11.383c-8.5898 8.0234-16.328 16.918-23.09 26.535-0.18359 0.13281-0.35938 0.27734-0.52344 0.42969-11.438 11.34-28.043 15.734-43.594 11.543-15.551-4.1875-27.695-16.336-31.887-31.883-4.1914-15.551 0.20703-32.156 11.543-43.594 2.2734-2.3125 2.2578-6.0234-0.03125-8.3164-2.293-2.293-6.0039-2.3047-8.3164-0.03125-12.359 12.363-18.367 29.715-16.297 47.074s11.988 32.809 26.906 41.922c14.922 9.1133 33.195 10.879 49.586 4.793l-0.76953 1.4844c-0.027343 0.050781-0.050781 0.097656-0.074219 0.15234-8.2227 17.031-13.078 33.812-14.082 49.875-0.007812 0.12109-0.1875 0.24609-0.1875 0.36719v7.1758c0 30.559 10.207 60.109 29.219 85.664-16.984 24.492-15.039 56.75 4.9805 77.852v-0.003906c12.641 13.164 29.98 20.785 48.223 21.195 0.058594 0 0.16016-0.097656 0.21875-0.097656h2.0508c17.512 0.17578 34.41-6.4414 47.152-18.457l11.246-10.742-0.003906-0.003907c25.922 5.7969 52.707 6.6367 78.941 2.4766l8.3242 7.8984c12.539 11.668 28.84 18.465 45.953 19.152 1.0195 0.042969 2.0312 0.066406 3.0508 0.066406 15.961 0.070313 31.461-5.3594 43.887-15.375 10.383-8.4922 17.68-20.164 20.773-33.211 3.0977-13.051 1.8125-26.758-3.6484-39.004 8.8516-10.109 16.379-21.309 22.391-33.328l41.422-4.3867c0.17969-0.019532 0.45312-0.046875 0.62891-0.082032 5.4219-1.082 9.4531-5.6758 9.4531-10.914v-96.891c0.007812-5.7852-4.4531-10.594-10.223-11.023zm-386.94-208.29 251.3 43.648-23.965 137.97-251.3-43.652zm385.36 315.53-42.824 4.5273h-0.003906c-2.0508 0.21875-3.9453 1.1953-5.3125 2.7383-0.47656 0.47266-0.875 1.0195-1.1719 1.6211-6.1484 12.746-14.121 24.527-23.664 34.98-0.74609 0.81641-1.2461 1.8281-1.4453 2.918-0.61719 1.8945-0.35156 3.9688 0.73047 5.6445 4.9258 10.004 6.3242 21.383 3.9648 32.281-2.3594 10.898-8.3398 20.68-16.965 27.746-11.008 8.8359-24.867 13.336-38.969 12.652-14.277-0.5625-27.879-6.2188-38.352-15.938l-9.6992-9.1875v-0.003906c-1.5078-1.4531-3.543-2.2344-5.6406-2.1641-0.33594 0-0.67188 0.027343-1.0039 0.085937-26.117 4.4258-52.855 3.5781-78.641-2.4922-0.44531-0.10547-0.89844-0.15625-1.3516-0.15625-2.1055-0.070313-4.1445 0.71875-5.6562 2.1836l-12.777 12.164v-0.003906c-10.543 9.9062-24.516 15.344-38.984 15.172h-1.9688c-15.297 0-29.465-6.6367-39.891-17.535-16.707-17.609-17.613-44.953-2.1641-65.086 0.22656-0.28906 0.42578-0.60156 0.59766-0.92969 1.5742-2.7227 1.1992-6.1523-0.92578-8.4688-18.555-24-28.535-51.922-28.535-80.785v-6.9922c0.98438-14.254 5.4883-29.883 12.883-45.223l7.1367-13.594c9.0547-14.805 20.477-28.027 33.809-39.137l182.57 31.711c0.33594 0.058594 0.67969 0.085938 1.0234 0.085938 2.8711 0.003906 5.3281-2.0625 5.8242-4.8906l14.543-83.707c20.422-7.4648 30.746-8.8828 35.844-8.7031h0.20312c3.6016 0 3.7969 1.7695 3.8711 2.4375 0.011719 0.10547 0.027344 0.21094 0.042969 0.31641 0.42969 2.582-0.44141 11.699-2.0977 26.586l-2.5625 23.582c-0.019531 0.21484-0.03125 0.42578-0.03125 0.64062-0.070312 2.1289 0.73828 4.1953 2.2422 5.707 0.17578 0.17578 0.35938 0.33984 0.55469 0.49219 19.844 15.379 35.152 33.668 45.5 54.363 0.28516 0.57031 0.66016 1.0859 1.1055 1.5352 1.3906 1.543 3.2969 2.5195 5.3594 2.7422l42.832 4.5352z"/>
  <path d="m490.55 391.98c-5.6445 0-11.059 2.2422-15.051 6.2344-3.9922 3.9883-6.2344 9.4023-6.2344 15.047s2.2422 11.059 6.2305 15.051c3.9922 3.9922 9.4062 6.2344 15.051 6.2344s11.059-2.2422 15.051-6.2344c3.9922-3.9883 6.2344-9.4023 6.2344-15.047-0.007813-5.6445-2.25-11.055-6.2383-15.043-3.9922-3.9922-9.4023-6.2344-15.043-6.2422zm0 30.758c-3.8359 0-7.2891-2.3086-8.7578-5.8477-1.4648-3.543-0.65625-7.6172 2.0547-10.328s6.7852-3.5195 10.328-2.0547c3.5391 1.4688 5.8477 4.9219 5.8477 8.7578-0.003906 5.2305-4.2422 9.4688-9.4727 9.4727z"/>
  <path d="m467.11 258.09c-7.4297-1.4297-13.418-4.793-17.32-9.7266-3.5312-4.4453-5.1133-10.133-4.3828-15.762 0.39453-3.1289-1.7383-6.0156-4.8477-6.5547l-151.35-26.289c-3.1055-0.53906-6.0898 1.457-6.7734 4.5352-2.6836 12.047-14.754 18.883-29.363 16.613-3.1797-0.49219-6.1719 1.6523-6.7227 4.8242l-8.8984 51.223c-0.55078 3.1719 1.5391 6.1992 4.6992 6.8086 14.762 2.8438 23.617 13.105 22.043 25.539-0.39844 3.1289 1.7383 6.0195 4.8477 6.5586l151.01 26.234c3.1094 0.54688 6.0938-1.4531 6.7734-4.5352 2.6797-12.047 14.754-18.879 29.363-16.617 3.1797 0.49609 6.1719-1.6484 6.7227-4.8203l8.8984-51.223c0.55078-3.1719-1.5391-6.1992-4.6992-6.8086zm-14.898 50.648c-16.094-0.50391-29.754 7.6055-35.211 20.844l-140.84-24.469c-0.56641-14.496-10.555-26.566-26.141-31.52l7.0312-40.477c0.46875 0.015625 0.93359 0.023438 1.3984 0.023438 15.488 0 28.516-8.0156 33.812-20.867l141.17 24.523c0.55078 14.48 10.41 26.52 25.801 31.453z"/>
  <path d="m362.38 226.29c-15.922-2.7188-32.09 3.2461-42.434 15.656-10.34 12.41-13.289 29.391-7.7383 44.562 5.5469 15.168 18.758 26.238 34.668 29.047 2.5898 0.45312 5.2188 0.67969 7.8477 0.67969 15.25-0.035156 29.461-7.7383 37.812-20.496 8.3477-12.762 9.7188-28.867 3.6445-42.855-6.0703-13.988-18.773-23.98-33.801-26.594zm25.246 50.363v0.003906c-1.5156 8.7578-6.4531 16.559-13.719 21.68-7.2656 5.1211-16.273 7.1406-25.031 5.6211-8.7578-1.5195-16.555-6.457-21.676-13.727-5.1172-7.2695-7.1367-16.273-5.6133-25.031 1.5234-8.7617 6.4648-16.555 13.738-21.672 7.2695-5.1133 16.277-7.1289 25.035-5.6016 8.7773 1.4648 16.605 6.3867 21.73 13.664 5.1211 7.2773 7.1172 16.305 5.5352 25.066z"/>
 </g>
</svg>