<?xml version="1.0" encoding="UTF-8"?>
<!-- The Best Svg Icon site in the world: iconSvg.co, Visit us! https://iconsvg.co -->
<svg fill="#000000" width="800px" height="800px" version="1.1" viewBox="144 144 512 512" xmlns="http://www.w3.org/2000/svg">
 <path d="m588.93 336.08c-0.16406-1.4453-0.48047-2.8711-0.94141-4.25 0.066406-0.47266 0.066406-0.94922 0-1.418-0.75781-1.6211-1.7695-3.1055-2.9922-4.4102l-141.7-141.7h-0.003906c-1.3008-1.2227-2.7891-2.2344-4.4062-2.9922h-1.5742c-1.4844-0.79688-3.0742-1.3789-4.7227-1.7305h-142.8c-20.875 0-40.898 8.293-55.664 23.055-14.762 14.766-23.055 34.789-23.055 55.664v283.39c0 20.879 8.293 40.898 23.055 55.664 14.766 14.762 34.789 23.055 55.664 23.055h220.42c20.879 0 40.902-8.293 55.664-23.055 14.762-14.766 23.055-34.785 23.055-55.664v-204.67-0.94531zm-53.688-14.801h-72.262c-4.1758 0-8.1836-1.6562-11.133-4.6094-2.9531-2.9531-4.6133-6.957-4.6133-11.133v-72.266zm22.199 220.42c0 12.527-4.9766 24.539-13.832 33.398-8.8594 8.8555-20.871 13.832-33.398 13.832h-220.42c-12.527 0-24.539-4.9766-33.398-13.832-8.8555-8.8594-13.832-20.871-13.832-33.398v-283.39c0-12.527 4.9766-24.539 13.832-33.398 8.8594-8.8555 20.871-13.832 33.398-13.832h125.95v94.465c0 12.527 4.9766 24.539 13.836 33.398 8.8555 8.8555 20.871 13.832 33.398 13.832h94.465z"/>
</svg>