<?xml version="1.0" encoding="UTF-8"?>
<!-- The Best Svg Icon site in the world: iconSvg.co, Visit us! https://iconsvg.co -->
<svg fill="#000000" width="800px" height="800px" version="1.1" viewBox="144 144 512 512" xmlns="http://www.w3.org/2000/svg">
 <g>
  <path d="m253.57 514.12h-75.359c-2.7266 0-4.9258 2.2031-4.9258 4.9297v96.188c0 2.7266 2.207 4.9258 4.9258 4.9258h75.359c2.7266 0 4.9258-2.207 4.9258-4.9258l0.003906-96.188c0-2.7266-2.2031-4.9297-4.9297-4.9297zm-4.9258 96.188h-65.504v-86.332h65.5v86.332z"/>
  <path d="m482.62 413.75h-75.363c-2.7266 0-4.9258 2.207-4.9258 4.9258v196.57c0 2.7266 2.207 4.9258 4.9258 4.9258l75.363 0.003907c2.7266 0 4.9258-2.207 4.9258-4.9258v-196.56c0-2.7266-2.2031-4.9336-4.9258-4.9336zm-4.9297 196.57h-65.5v-186.71h65.5z"/>
  <path d="m564.4 255.25v-1.793c5.1992-1.9961 8.918-7.0078 8.918-12.898 0-7.6328-6.2109-13.844-13.844-13.844-2.2031 0-3.9883-1.7891-3.9883-3.9883 0-2.2031 1.7891-3.9844 3.9883-3.9844h8.918c2.7266 0 4.9258-2.207 4.9258-4.9258 0-2.7266-2.207-4.9258-4.9258-4.9258h-3.9883v-0.85156c0-2.7266-2.207-4.9258-4.9258-4.9258s-4.9258 2.207-4.9258 4.9258v1.7969c-5.1992 1.9961-8.918 7.0039-8.918 12.891 0 7.6328 6.2109 13.844 13.844 13.844 2.2031 0 3.9883 1.7852 3.9883 3.9844 0 2.2031-1.7891 3.9883-3.9883 3.9883h-8.918c-2.7266 0-4.9258 2.207-4.9258 4.9258 0 2.7266 2.207 4.9258 4.9258 4.9258h3.9883v0.84766c0 2.7266 2.207 4.9258 4.9258 4.9258 2.7188 0.003906 4.9258-2.1914 4.9258-4.918z"/>
  <path d="m607.53 334.27c18.398-18.398 19.16-46.762 19.184-47.961 0.023437-1.3398-0.49219-2.6367-1.4453-3.582-0.94531-0.94531-2.2031-1.4414-3.582-1.4453-1.1992 0.023437-29.562 0.78516-47.961 19.184-3.8398 3.8398-6.8711 8.1172-9.3242 12.48v-29.727c26.27-2.4922 46.895-24.66 46.895-51.57 0-28.574-23.246-51.82-51.82-51.82-28.574 0-51.82 23.246-51.82 51.82 0 26.91 20.621 49.074 46.895 51.57v29.73c-2.457-4.3672-5.4922-8.6445-9.3242-12.48-18.398-18.398-46.762-19.16-47.961-19.184-1.3164-0.015625-2.6367 0.49219-3.582 1.4453-0.94531 0.94531-1.4648 2.2422-1.4453 3.582 0.023437 1.1992 0.78516 29.562 19.184 47.961 14.117 14.117 34.047 17.84 43.133 18.824v10.473h-32.754c-2.7266 0-4.9258 2.207-4.9258 4.9258v246.75c0 2.7266 2.207 4.9258 4.9258 4.9258h75.363c2.7266 0 4.9258-2.207 4.9258-4.9258l-0.003907-246.75c0-0.070313-0.035156-0.125-0.039062-0.19531-0.011719-0.31641-0.10938-0.62109-0.1875-0.9375-0.082031-0.33203-0.13672-0.66406-0.28125-0.96875-0.03125-0.058594-0.019531-0.125-0.054688-0.1875-0.10547-0.20703-0.29297-0.33594-0.42188-0.52344-0.20703-0.28906-0.39453-0.57422-0.65625-0.8125-0.23828-0.21484-0.50391-0.36328-0.77734-0.52344-0.26562-0.16016-0.51953-0.33203-0.81641-0.44141-0.33203-0.125-0.67969-0.16016-1.0312-0.20703-0.22266-0.03125-0.42188-0.13281-0.65625-0.13281h-32.754v-10.473c9.0742-0.98438 29.004-4.707 43.121-18.824zm-30.43 39.156-50.383 26.348v-26.348zm15.125 113.27-65.504 34.266v-29.27l65.504-34.258zm-65.508 45.383 65.504-34.266v29.27l-65.504 34.258zm65.508-85.777-65.504 34.258v-29.27l65.504-34.266zm-65.508 126.17 65.504-34.258v29.27l-65.504 34.266zm65.508-166.56-65.504 34.266v-29.27l65.504-34.266zm-60.641 204.41 60.637-31.719v31.719zm49.113-302.88c11.113-11.113 27.25-14.66 35.648-15.785-1.1289 8.3984-4.6758 24.535-15.785 35.648-11.113 11.113-27.25 14.66-35.648 15.785 1.125-8.3984 4.6719-24.535 15.785-35.648zm-63.191-75.789c0-23.141 18.824-41.969 41.969-41.969 23.141 0 41.969 18.824 41.969 41.969 0 23.137-18.824 41.961-41.969 41.961-23.145 0.003906-41.969-18.82-41.969-41.961zm0.875 95.652c-11.113-11.113-14.66-27.25-15.785-35.648 8.3984 1.1289 24.535 4.6758 35.648 15.785 11.113 11.109 14.66 27.25 15.785 35.648-8.3984-1.1211-24.535-4.668-35.648-15.785z"/>
  <path d="m335.65 355.63v-1.7969c5.1992-1.9961 8.9141-7.0039 8.9141-12.891 0-7.6328-6.207-13.844-13.844-13.844-2.2031 0-3.9883-1.7852-3.9883-3.9844 0-2.2031 1.7891-3.9883 3.9883-3.9883h8.9141c2.7266 0 4.9258-2.207 4.9258-4.9258s-2.207-4.9258-4.9258-4.9258h-3.9844l-0.007813-0.87109c0-2.7266-2.207-4.9258-4.9258-4.9258s-4.9258 2.207-4.9258 4.9258v1.7969c-5.1992 1.9961-8.918 7.0078-8.918 12.898 0 7.6328 6.2109 13.844 13.844 13.844 2.2031 0 3.9844 1.7891 3.9844 3.9883 0 2.2031-1.7852 3.9844-3.9844 3.9844h-8.918c-2.7266 0-4.9258 2.207-4.9258 4.9258s2.207 4.9258 4.9258 4.9258h3.9883v0.85156c0 2.7266 2.207 4.9258 4.9258 4.9258 2.7227 0.007813 4.9375-2.1914 4.9375-4.9141z"/>
  <path d="m392.93 381.66c-1.1992 0.023438-29.562 0.78125-47.961 19.18-3.8398 3.8398-6.8711 8.1133-9.3242 12.48v-29.727c26.27-2.4922 46.895-24.66 46.895-51.574 0-28.574-23.246-51.82-51.82-51.82-28.574 0-51.82 23.246-51.82 51.82 0 26.914 20.621 49.082 46.895 51.574v29.73c-2.457-4.3672-5.4922-8.6445-9.3242-12.484-18.398-18.398-46.762-19.156-47.961-19.18-1.3672-0.039062-2.6367 0.49219-3.582 1.4453-0.94531 0.94531-1.4648 2.2383-1.4453 3.582 0.023437 1.1992 0.78125 29.559 19.184 47.961 14.117 14.117 34.047 17.84 43.133 18.824v10.469h-33.051c-2.7266 0-4.9258 2.207-4.9258 4.9258v146.38c0 0.074218 0.039062 0.13672 0.039062 0.20703 0.015625 0.32812 0.11719 0.64453 0.19531 0.97266 0.082031 0.32422 0.14062 0.64062 0.27734 0.93359 0.03125 0.066406 0.023437 0.13672 0.058593 0.20312 0.23047 0.43359 0.51953 0.8125 0.84766 1.1445 0.039062 0.046875 0.097656 0.070313 0.14062 0.10938 0.37109 0.35156 0.79688 0.625 1.25 0.83984 0.14063 0.066406 0.27734 0.125 0.42188 0.17969 0.53906 0.19531 1.1016 0.33594 1.6836 0.33594h0.011719 75.359c2.7266 0 4.9258-2.207 4.9258-4.9258l-0.003906-146.38c0-0.074219-0.039062-0.13672-0.039062-0.20703-0.015626-0.33203-0.11719-0.64844-0.19531-0.97656-0.082031-0.31641-0.13672-0.63672-0.27734-0.92188-0.03125-0.070312-0.023437-0.14062-0.058593-0.21094-0.10938-0.20703-0.29688-0.33594-0.43359-0.52344-0.20703-0.28125-0.39453-0.55859-0.65625-0.78906-0.23047-0.20703-0.48828-0.34766-0.75391-0.50781-0.27734-0.17187-0.53906-0.33594-0.85156-0.45312-0.3125-0.10938-0.63672-0.14453-0.96875-0.19531-0.23828-0.035156-0.44922-0.14062-0.69531-0.14062h-32.449v-10.469c9.0781-0.98438 29.016-4.7109 43.133-18.824 18.398-18.402 19.16-46.762 19.184-47.961 0.023438-1.3398-0.49219-2.6367-1.4453-3.582-0.95313-0.94922-2.2578-1.4688-3.5898-1.4453zm-44.57 92.137-50.691 27.008v-27.008zm14.809 62.934-65.5 34.895v-24.238l65.5-34.895zm-65.504 46.062 65.5-34.895v24.238l-65.5 34.898zm65.504-81.469-65.5 34.895v-24.238l65.5-34.898zm-50.699 108.99 50.699-27.008v27.008zm-23.719-278.29c0-23.141 18.824-41.969 41.969-41.969 23.145 0 41.969 18.824 41.969 41.969s-18.824 41.969-41.969 41.969c-23.148 0-41.969-18.828-41.969-41.969zm0.875 95.652c-11.117-11.125-14.664-27.27-15.785-35.664 8.375 1.1094 24.488 4.6367 35.648 15.793 11.113 11.113 14.66 27.258 15.785 35.656-8.3984-1.125-24.535-4.6719-35.648-15.785zm82.18 0c-11.117 11.117-27.27 14.664-35.664 15.785 1.1094-8.3789 4.6367-24.488 15.801-35.656 11.117-11.117 27.27-14.664 35.66-15.785-1.1094 8.3828-4.6367 24.492-15.797 35.656z"/>
 </g>
</svg>