<?xml version="1.0" encoding="UTF-8"?>
<!-- The Best Svg Icon site in the world: iconSvg.co, Visit us! https://iconsvg.co -->
<svg fill="#000000" width="800px" height="800px" version="1.1" viewBox="144 144 512 512" xmlns="http://www.w3.org/2000/svg">
 <g>
  <path d="m399.95 440.61c-18.891 0-36.84 8.2305-49.164 22.543-12.324 14.312-17.801 33.289-14.996 51.965 2.8047 18.68 13.609 35.211 29.59 45.273h30.375c-1.6523-1.0938-2.6445-2.9414-2.6445-4.918v-6.0664c-5.0156-1.4805-9.4219-4.5469-12.555-8.7344-3.1367-4.1875-4.832-9.2773-4.8398-14.512 0-3.2578 2.6406-5.9023 5.9023-5.9023 3.2617 0 5.9023 2.6445 5.9023 5.9023 0 5.0273 3.0312 9.5586 7.6719 11.48 4.6445 1.9258 9.9883 0.86328 13.543-2.6914 3.5547-3.5547 4.6172-8.8984 2.6953-13.543-1.9219-4.6445-6.457-7.6719-11.48-7.6719-7.8359 0-15.191-3.7891-19.738-10.172-4.5469-6.3867-5.7266-14.574-3.1641-21.98 2.5586-7.4062 8.5469-13.117 16.062-15.328v-5.2461c0-3.2617 2.6445-5.9062 5.9062-5.9062 3.2578 0 5.9023 2.6445 5.9023 5.9062v4.7734c5.4453 1.1484 10.328 4.1289 13.836 8.4453 3.5039 4.3203 5.4219 9.7109 5.4297 15.273 0 3.2617-2.6445 5.9062-5.9023 5.9062-3.2617 0-5.9062-2.6445-5.9062-5.9062 0-5.0273-3.0273-9.5586-7.6719-11.48-4.6406-1.9258-9.9883-0.86328-13.543 2.6914-3.5547 3.5547-4.6172 8.8984-2.6914 13.543 1.9219 4.6445 6.4531 7.6719 11.48 7.6719 8.0664 0 15.602 4.0117 20.105 10.703 4.5039 6.6914 5.3828 15.184 2.3477 22.656s-9.5898 12.945-17.484 14.598v5.5898c0 1.9766-0.99219 3.8242-2.6406 4.918h32.238c15.984-10.062 26.789-26.594 29.594-45.273 2.8008-18.676-2.6719-37.652-14.996-51.965-12.328-14.312-30.277-22.543-49.164-22.543z"/>
  <path d="m296.04 181.65c-2.6406-0.50391-5.3359 0.57031-6.9023 2.7539-1.2383 1.6875-1.3359 3.957-0.25 5.7461l62.023 110.19h-0.003906c31.594-9.7461 65.375-9.8672 97.039-0.34766l62.172-108.19c1.1211-1.8359 0.98828-4.1797-0.33984-5.875-1.668-2.2188-4.5039-3.2266-7.1992-2.5586l-19.777 4.2734c-42.156 9.1172-85.645 10.277-128.22 3.4141z"/>
  <path d="m545.14 433.01c-4.5039-71.918-68.254-128.25-145.13-128.25-76.898 0-140.65 56.336-145.15 128.25l-7.6172 121.66-0.003906-0.003906c-1.0352 16.539 4.8125 32.77 16.16 44.848 11.344 12.078 27.18 18.93 43.75 18.926h185.71c16.57 0 32.406-6.8477 43.75-18.926s17.191-28.309 16.156-44.848zm-104.01-33.852 9.9102-26.043h-0.003907c0.54688-1.4727 1.6641-2.668 3.0977-3.3203 1.4336-0.64844 3.0664-0.69922 4.5352-0.13672 1.4727 0.55859 2.6562 1.6797 3.2969 3.1211 0.63672 1.4375 0.67578 3.0703 0.10547 4.5352l-9.9062 26.043c-1.1602 3.0469-4.5703 4.5781-7.6211 3.418-3.0469-1.1602-4.5781-4.5703-3.418-7.6172zm-48.023-36.555c0-3.2617 2.6445-5.9023 5.9062-5.9023 3.2578 0 5.9023 2.6406 5.9023 5.9023v27.555c0 3.2578-2.6445 5.9023-5.9023 5.9023-3.2617 0-5.9062-2.6445-5.9062-5.9023zm-61.535 10.793c1.4297-0.64063 3.0547-0.6875 4.5195-0.13281 1.4609 0.55859 2.6445 1.6719 3.2852 3.1016l11.406 25.422c0.65234 1.4297 0.70703 3.0586 0.15234 4.5312-0.55859 1.4688-1.6758 2.6562-3.1094 3.3008-1.4336 0.64062-3.0625 0.6875-4.5312 0.125-1.4648-0.5625-2.6484-1.6875-3.2812-3.125l-11.41-25.418c-0.64062-1.4297-0.6875-3.0547-0.13281-4.5156 0.55859-1.4648 1.6719-2.6484 3.1016-3.2891zm-21.398 62.145c-1.1055 1.1094-2.6094 1.7305-4.1758 1.7305-1.5625 0-3.0664-0.62109-4.1719-1.7305l-19.703-19.703c-2.3047-2.3047-2.3047-6.043 0-8.3477 2.3047-2.3086 6.043-2.3086 8.3477 0l19.703 19.703c1.1094 1.1055 1.7305 2.6055 1.7305 4.1719 0 1.5664-0.62109 3.0703-1.7305 4.1758zm162.64 136.66h-146.62c-3.2617 0-5.9062-2.6445-5.9062-5.9023 0-3.2617 2.6445-5.9062 5.9062-5.9062h20.164c-14.629-14.285-22.945-33.816-23.105-54.262-0.16016-20.441 7.8477-40.105 22.246-54.617 14.398-14.512 33.996-22.676 54.441-22.676 20.445 0 40.043 8.1641 54.441 22.676 14.398 14.512 22.406 34.176 22.246 54.617-0.16016 20.445-8.4766 39.977-23.105 54.262h19.289c3.2578 0 5.9023 2.6445 5.9023 5.9062 0 3.2578-2.6445 5.9023-5.9023 5.9023zm44.566-156.69-19.703 19.703c-2.3086 2.3086-6.0469 2.3086-8.3516 0-2.3047-2.3047-2.3047-6.043 0-8.3477l19.703-19.703c1.1055-1.1211 2.6094-1.7578 4.1836-1.7617 1.5742-0.007813 3.0859 0.61328 4.1992 1.7266 1.1133 1.1133 1.7344 2.625 1.7305 4.1992-0.007812 1.5742-0.64062 3.082-1.7656 4.1836z"/>
 </g>
</svg>