<?xml version="1.0" encoding="UTF-8"?>
<!-- The Best Svg Icon site in the world: iconSvg.co, Visit us! https://iconsvg.co -->
<svg fill="#000000" width="800px" height="800px" version="1.1" viewBox="144 144 512 512" xmlns="http://www.w3.org/2000/svg">
 <g>
  <path d="m491.85 307.71h-13.285l-4.3867-1.4922c-2.207-8.4336-5.5625-16.523-9.9844-24.102l2.0469-4.1602 9.4062-9.4062c1.3594-1.3672 1.3594-3.5781-0.011719-4.9414l-27.738-27.738c-1.3672-1.3672-3.582-1.3672-4.9492-0.003906l-9.3945 9.4023-4.1602 2.0469c-7.5781-4.4219-15.664-7.7734-24.105-9.9844l-1.4961-4.3867v-13.285c0-1.9336-1.5625-3.4961-3.4922-3.4961h-39.25c-1.9297 0-3.4961 1.5664-3.4961 3.4961v13.297l-1.4922 4.3828c-8.4453 2.207-16.535 5.5625-24.105 9.9844l-4.1602-2.0469-9.4023-9.3945c-1.3672-1.3672-3.5781-1.3672-4.9414 0l-27.746 27.746c-1.3672 1.3672-1.3672 3.5781 0 4.9414l9.3945 9.3945 2.0469 4.168c-4.4219 7.582-7.7734 15.672-9.9805 24.105l-4.3867 1.4922h-13.281c-1.9297 0-3.4961 1.5664-3.4961 3.4961v39.25c0 1.9336 1.5664 3.4961 3.4961 3.4961h13.281l4.3945 1.4961c2.207 8.4297 5.5625 16.52 9.9805 24.102l-2.0469 4.1602-9.3945 9.4023c-1.3672 1.3672-1.3672 3.5781 0 4.9414l27.746 27.746c1.3672 1.3672 3.5781 1.3672 4.9414 0l9.4062-9.3945 4.1562-2.0469c7.582 4.4219 15.68 7.7773 24.102 9.9922l1.4922 4.3828v13.133 0.14453c0 1.9297 1.5664 3.4922 3.4961 3.4922h0.14453 39.102c1.9297 0 3.4922-1.5664 3.4922-3.5v-13.281l1.4961-4.3867c4.2109-1.1016 8.3945-2.5078 12.488-4.2031 3.9531-1.6484 7.8633-3.5938 11.621-5.7773l4.1602 2.0469 9.3945 9.3906c1.3672 1.3672 3.582 1.3672 4.9492 0l27.75-27.738c1.3594-1.3672 1.3594-3.5781 0-4.9414l-9.4062-9.4102-2.0469-4.1562c4.4297-7.582 7.7852-15.672 9.9844-24.102l4.3867-1.4922h13.285c1.9297 0 3.5-1.5664 3.5-3.4961v-39.25c-0.003906-1.9531-1.5742-3.5156-3.5039-3.5156zm-3.4961 39.246h-10.375c-0.38281 0-0.75391 0.066407-1.125 0.1875l-6.7422 2.293c-1.1328 0.38672-1.9883 1.3281-2.2734 2.4922-2.168 9.0234-5.7383 17.645-10.617 25.633-0.62109 1.0234-0.67969 2.293-0.14453 3.3672l3.1406 6.3828c0.16797 0.34766 0.38281 0.65625 0.66016 0.93359l7.332 7.3438-22.789 22.801-7.3398-7.3359c-0.26562-0.27344-0.57812-0.5-0.92578-0.67188l-6.3984-3.1406c-1.0742-0.52344-2.3438-0.46875-3.3672 0.15625-3.9531 2.418-8.0977 4.5273-12.316 6.2734-4.3477 1.8086-8.8359 3.2695-13.312 4.3438-1.168 0.27734-2.1094 1.1367-2.5 2.2656l-2.293 6.7422c-0.125 0.36328-0.19141 0.74609-0.19141 1.1328v10.363h-32.25v-10.363c0-0.38281-0.066407-0.76172-0.1875-1.125l-2.293-6.7422c-0.38672-1.1367-1.3281-1.9961-2.4922-2.2773-9.0234-2.1602-17.645-5.7383-25.633-10.617-1.0234-0.625-2.2969-0.67969-3.3672-0.15234l-6.3828 3.1406c-0.34375 0.17188-0.65625 0.39453-0.93359 0.66406l-7.3398 7.3359-22.801-22.797 7.3359-7.3359c0.27344-0.27344 0.5-0.58984 0.66406-0.93359l3.1406-6.3945c0.52734-1.0742 0.47266-2.3438-0.15234-3.3672-4.875-7.9844-8.4492-16.609-10.617-25.629-0.27734-1.1641-1.1367-2.1094-2.2734-2.5l-6.7344-2.293c-0.36328-0.125-0.74609-0.1875-1.1289-0.1875h-10.359v-32.254h10.359c0.38281 0 0.76562-0.066406 1.1289-0.1875l6.7422-2.293c1.1367-0.38281 1.9961-1.3242 2.2734-2.4922 2.1719-9.0234 5.7422-17.648 10.617-25.633 0.625-1.0234 0.67969-2.293 0.15234-3.3672l-3.1406-6.3945c-0.17187-0.34766-0.39844-0.66016-0.66406-0.93359l-7.3359-7.3398 22.797-22.797 7.3398 7.3359c0.27344 0.27344 0.58594 0.5 0.93359 0.67188l6.3945 3.1406c1.0742 0.52734 2.3438 0.46875 3.3672-0.15625 7.9688-4.8711 16.594-8.4492 25.629-10.617 1.168-0.28125 2.1094-1.1367 2.5-2.2773l2.293-6.7344c0.12109-0.36328 0.1875-0.74219 0.1875-1.1289v-10.375h32.254v10.363c0 0.38281 0.058594 0.76563 0.1875 1.1289l2.293 6.7344c0.38672 1.1328 1.3281 1.9883 2.4922 2.2734 9.0352 2.1758 17.652 5.75 25.633 10.621 1.0234 0.625 2.293 0.67969 3.3672 0.15234l6.3867-3.1406c0.34375-0.17188 0.66016-0.39453 0.9375-0.66406l7.3398-7.3359 22.789 22.797-7.332 7.3438c-0.27734 0.27344-0.49219 0.58594-0.66016 0.92578l-3.1406 6.3867c-0.52734 1.0742-0.47266 2.3438 0.14453 3.3594 4.8711 7.9844 8.4453 16.609 10.617 25.633 0.28906 1.1641 1.1445 2.1055 2.2734 2.5l6.7422 2.2891c0.36328 0.125 0.73437 0.1875 1.125 0.1875h10.375l-0.003907 32.289z"/>
  <path d="m578.84 444.17-42.734-82.469v-33.016c0-86.953-70.719-157.69-157.66-157.69-86.949 0-157.69 70.734-157.69 157.69v167.12c0 0.73438 0.23047 1.457 0.66016 2.0469l48.387 67.051c0.66016 0.91797 1.7148 1.457 2.8359 1.457h2.5703v29.145c0 18.461 15.012 33.477 33.473 33.477h143.96c18.461 0 33.477-15.012 33.477-33.477v-32.199c29.57-8.9766 49.988-36.355 49.988-67.5v-46.531h39.633c1.2188 0 2.3516-0.63672 2.9922-1.6836 0.62891-1.043 0.67188-2.3398 0.10547-3.4258zm-46.223-1.8828c-1.9297 0-3.4922 1.5664-3.4922 3.4922v50.035c0 28.742-19.305 53.914-46.984 61.367h-61.469c-1.9297 0-3.5 1.5664-3.5 3.4961 0 1.9297 1.5781 3.4961 3.5 3.4961h58.461v31.336c0 14.602-11.875 26.48-26.48 26.48h-143.96c-14.602 0-26.48-11.875-26.48-26.48v-29.145h30.535c1.9297 0 3.4961-1.5703 3.4961-3.5 0-1.9297-1.5664-3.4922-3.4961-3.4922h-34.031-0.011719-4.2656l-46.68-64.684v-166c0-83.094 67.598-150.69 150.69-150.69 83.082 0 150.68 67.598 150.68 150.69v33.867c0 0.55859 0.125 1.1133 0.38281 1.6055l40.48 78.125h-37.371z"/>
  <path d="m381.97 327.34h-2.6094c-7.5469 0-13.684-6.1367-13.684-13.68 0-7.5469 6.1367-13.684 13.684-13.684h17.18c1.9297 0 3.4961-1.5664 3.4961-3.4961 0-1.9297-1.5664-3.4961-3.4961-3.4961h-11.074v-8.8125c0-1.9336-1.5664-3.4961-3.4961-3.4961s-3.4961 1.5664-3.4961 3.4961v8.8555c-10.988 0.46875-19.789 9.5312-19.789 20.637 0 11.402 9.2734 20.676 20.676 20.676h2.6094c7.5469 0 13.684 6.1406 13.684 13.684s-6.1328 13.672-13.664 13.684c-0.003906 0-0.015625-0.003906-0.019531-0.003906-0.011719 0-0.019531 0.003906-0.03125 0.003906h-17.148c-1.9297 0-3.4961 1.5664-3.4961 3.4961 0 1.9297 1.5703 3.4961 3.4961 3.4961h13.684v8.8125c0 1.9297 1.5664 3.4961 3.4961 3.4961s3.4961-1.5664 3.4961-3.4961v-9.1289c9.7383-1.6719 17.184-10.152 17.184-20.363 0-11.406-9.2812-20.68-20.68-20.68z"/>
  <path d="m380.66 264.38c-36.637 0-66.453 29.809-66.453 66.449 0 36.637 29.809 66.449 66.453 66.449 36.648 0 66.453-29.809 66.453-66.449-0.003907-36.637-29.809-66.449-66.453-66.449zm0 125.91c-32.781 0-59.453-26.672-59.453-59.461s26.672-59.453 59.453-59.453c32.789 0 59.453 26.672 59.453 59.453 0 32.785-26.668 59.461-59.453 59.461z"/>
 </g>
</svg>