<?xml version="1.0" encoding="UTF-8"?>
<!-- The Best Svg Icon site in the world: iconSvg.co, Visit us! https://iconsvg.co -->
<svg fill="#000000" width="800px" height="800px" version="1.1" viewBox="144 144 512 512" xmlns="http://www.w3.org/2000/svg">
 <g>
  <path d="m332.36 397.3c-2.1875 4.3125-6.6172 7.0234-11.449 7.0078h-26.887v207.94-0.003907c0 1.9453-0.76953 3.8086-2.1445 5.1836s-3.2383 2.1445-5.1836 2.1445h-59.312c-4.0547 0.007813-7.3555-3.2695-7.3711-7.3281v-207.93h-26.977c-4.8047-0.007813-9.2109-2.6875-11.422-6.9492-2.2148-4.2656-1.875-9.4062 0.88672-13.34l63.984-90.184c2.4258-3.3906 6.3398-5.4023 10.512-5.4023 4.168 0 8.082 2.0117 10.508 5.4023l63.938 90.184h0.003906c2.7578 3.9062 3.1094 9.0273 0.91406 13.281z"/>
  <path d="m599.3 615.51h-197.47c-5.4336-0.007813-10.637-2.168-14.477-6.0078-3.8398-3.8398-6-9.0469-6.0078-14.477v-39.176c0.007813-5.4336 2.168-10.641 6.0078-14.48 3.8398-3.8398 9.043-6 14.477-6.0078h197.47c5.4375 0 10.656 2.1562 14.504 5.9961 3.8516 3.8398 6.0195 9.0508 6.0352 14.492v39.18-0.003906c-0.015625 5.4375-2.1836 10.648-6.0352 14.488-3.8477 3.8398-9.0664 5.9961-14.504 5.9961zm-197.47-70.988c-6.2539 0.011718-11.316 5.0742-11.324 11.328v39.18-0.003906c0.007813 6.25 5.0742 11.316 11.324 11.324h197.47c6.2656 0.003907 11.352-5.0586 11.379-11.324v-39.176c-0.023438-6.2695-5.1133-11.336-11.383-11.328z"/>
  <path d="m434.32 615.51c-2.5273 0-4.5781-2.0508-4.5781-4.582v-70.992c0-2.5273 2.0508-4.5781 4.5781-4.5781 2.5312 0 4.582 2.0508 4.582 4.5781v70.992c0 1.2148-0.48438 2.3789-1.3438 3.2383-0.85547 0.85938-2.0234 1.3438-3.2383 1.3438z"/>
  <path d="m478.5 615.51c-2.5273 0-4.5781-2.0508-4.5781-4.582v-70.992c0-2.5273 2.0508-4.5781 4.5781-4.5781 2.5312 0 4.582 2.0508 4.582 4.5781v70.992c0 1.2148-0.48438 2.3789-1.3438 3.2383-0.85547 0.85938-2.0234 1.3438-3.2383 1.3438z"/>
  <path d="m522.68 615.51c-2.5273 0-4.5781-2.0508-4.5781-4.582v-70.992c0-2.5273 2.0508-4.5781 4.5781-4.5781 2.5312 0 4.582 2.0508 4.582 4.5781v70.992c0 1.2148-0.48438 2.3789-1.3398 3.2383-0.85938 0.85938-2.0273 1.3438-3.2422 1.3438z"/>
  <path d="m566.87 615.51c-2.5312 0-4.582-2.0508-4.582-4.582v-70.992c0-2.5273 2.0508-4.5781 4.582-4.5781 2.5273 0 4.5781 2.0508 4.5781 4.5781v70.992c0 1.2148-0.48047 2.3789-1.3398 3.2383s-2.0234 1.3438-3.2383 1.3438z"/>
  <path d="m568.69 464.39h-32.445c2.5 0.046875 4.5 2.082 4.5 4.582v70.992-0.003906c0 2.5312-2.0508 4.582-4.582 4.582-2.5273 0-4.5781-2.0508-4.5781-4.582v-70.992 0.003906c0-2.5 2-4.5352 4.4961-4.582h-44.023c2.4961 0.046875 4.4961 2.082 4.4961 4.582v70.992-0.003906c0 2.5312-2.0508 4.582-4.5781 4.582-2.5312 0-4.582-2.0508-4.582-4.582v-70.992 0.003906c0-2.5 2.0039-4.5391 4.5039-4.582h-44.016c2.4961 0.046875 4.5 2.082 4.5 4.582v70.992-0.003906c0 2.5312-2.0508 4.582-4.582 4.582s-4.5781-2.0508-4.5781-4.582v-70.992 0.003906c-0.003906-2.5 2-4.5352 4.4961-4.582h-44.023c2.4961 0.046875 4.4961 2.082 4.4961 4.582v70.992-0.003906c0 2.5312-2.0508 4.582-4.5781 4.582-2.5312 0-4.582-2.0508-4.582-4.582v-70.992 0.003906c0-2.5 2.0039-4.5391 4.5039-4.582h-31.879c-5.9922 0.007813-11.738 2.3945-15.973 6.6367s-6.6133 9.9961-6.6055 15.988v34.902c0 5.9922 2.3789 11.738 6.6133 15.977 4.2305 4.2422 9.9727 6.6328 15.965 6.6484h196.95c5.4531 0 10.684-2.168 14.539-6.0234 3.8594-3.8555 6.0234-9.0898 6.0234-14.543v-39.113c-0.011718-5.4258-2.1719-10.625-6.0117-14.461-3.8359-3.8359-9.0352-6-14.461-6.0117z"/>
  <path d="m599.3 473.54h-197.47c-5.4336-0.003906-10.637-2.1641-14.477-6.0039-3.8398-3.8398-6-9.0469-6.0078-14.477v-39.18c0.007813-5.4297 2.168-10.637 6.0078-14.477 3.8398-3.8398 9.043-6 14.477-6.0078h197.47c5.4375 0 10.656 2.1562 14.504 5.9961 3.8516 3.8398 6.0195 9.0508 6.0352 14.488v39.18c-0.015625 5.4375-2.1836 10.648-6.0352 14.488-3.8477 3.8398-9.0664 5.9961-14.504 5.9922zm-197.47-70.984c-6.2539 0.007813-11.316 5.0742-11.324 11.324v39.18c0.007813 6.25 5.0742 11.312 11.324 11.32h197.47c6.2656 0.007812 11.352-5.0586 11.379-11.32v-39.18c-0.023438-6.2656-5.1133-11.332-11.383-11.324z"/>
  <path d="m434.32 473.54c-2.5273 0-4.5781-2.0508-4.5781-4.5781v-70.992c0-2.5312 2.0508-4.5781 4.5781-4.5781 2.5312 0 4.582 2.0469 4.582 4.5781v70.992c0 1.2148-0.48438 2.3789-1.3438 3.2383-0.85547 0.85938-2.0234 1.3398-3.2383 1.3398z"/>
  <path d="m478.5 473.54c-2.5273 0-4.5781-2.0508-4.5781-4.5781v-70.992c0-2.5312 2.0508-4.5781 4.5781-4.5781 2.5312 0 4.582 2.0469 4.582 4.5781v70.992c0 1.2148-0.48438 2.3789-1.3438 3.2383-0.85547 0.85938-2.0234 1.3398-3.2383 1.3398z"/>
  <path d="m522.68 473.54c-2.5273 0-4.5781-2.0508-4.5781-4.5781v-70.992c0-2.5312 2.0508-4.5781 4.5781-4.5781 2.5312 0 4.582 2.0469 4.582 4.5781v70.992c0 1.2148-0.48438 2.3789-1.3398 3.2383-0.85938 0.85938-2.0273 1.3398-3.2422 1.3398z"/>
  <path d="m566.87 473.54c-2.5312 0-4.582-2.0508-4.582-4.5781v-70.992c0-2.5312 2.0508-4.5781 4.582-4.5781 2.5273 0 4.5781 2.0469 4.5781 4.5781v70.992c0 1.2148-0.48047 2.3789-1.3398 3.2383-0.85938 0.85938-2.0234 1.3398-3.2383 1.3398z"/>
  <path d="m568.6 322.41h-32.422c1.2148 0 2.3789 0.48438 3.2383 1.3438s1.3398 2.0234 1.3398 3.2383v70.992c0 2.5273-2.0508 4.5781-4.5781 4.5781-2.5312 0-4.582-2.0508-4.582-4.5781v-70.992c0-2.5312 2.0508-4.582 4.582-4.582h-44.152c1.2148 0 2.3789 0.48438 3.2383 1.3438s1.3398 2.0234 1.3398 3.2383v70.992c0 2.5273-2.0508 4.5781-4.5781 4.5781-2.5312 0-4.582-2.0508-4.582-4.5781v-70.992c0-2.5312 2.0508-4.582 4.582-4.582h-44.211c1.2148 0 2.3789 0.48438 3.2383 1.3438 0.85937 0.85938 1.3398 2.0234 1.3398 3.2383v70.992c0 2.5273-2.0508 4.5781-4.5781 4.5781-2.5312 0-4.582-2.0508-4.582-4.5781v-70.992c0-2.5312 2.0508-4.582 4.582-4.582h-44.188c1.2148 0 2.3828 0.48438 3.2383 1.3438 0.85937 0.85938 1.3438 2.0234 1.3438 3.2383v70.992c0 2.5273-2.0508 4.5781-4.582 4.5781-2.5273 0-4.5781-2.0508-4.5781-4.5781v-70.992c0-2.5312 2.0508-4.582 4.5781-4.582h-32.523c-5.4219 0.015625-10.625 2.1758-14.461 6.0117-3.8359 3.8359-5.9961 9.0391-6.0117 14.465v39.207-0.003906c0.015626 5.4258 2.1758 10.625 6.0117 14.461 3.8359 3.8398 9.0391 6 14.461 6.0117h197.5c5.4375 0 10.652-2.1562 14.504-5.9922 3.8555-3.8359 6.0312-9.043 6.0586-14.48v-39.203c-0.027343-5.4375-2.2031-10.645-6.0586-14.48-3.8516-3.8359-9.0664-5.9922-14.504-5.9961z"/>
  <path d="m599.3 331.57h-197.47c-5.4297-0.007812-10.637-2.168-14.477-6.0078-3.8398-3.8359-6-9.043-6.0078-14.473v-39.18c0.007813-5.4297 2.168-10.637 6.0078-14.477 3.8398-3.8398 9.043-6 14.477-6.0078h197.47c5.4375 0 10.656 2.1562 14.504 5.9961 3.8516 3.8398 6.0195 9.0508 6.0352 14.488v39.18c-0.015625 5.4375-2.1875 10.645-6.0352 14.484-3.8516 3.8398-9.0664 5.9961-14.504 5.9961zm-197.47-70.984c-6.2539 0.007813-11.316 5.0742-11.324 11.324v39.18c0.007813 6.25 5.0742 11.312 11.324 11.32h197.47c6.2656 0.007812 11.352-5.0586 11.379-11.32v-39.18c-0.023438-6.2656-5.1133-11.332-11.383-11.324z"/>
  <path d="m434.32 331.57c-2.5273 0-4.5781-2.0508-4.5781-4.5781v-70.988c0-2.5273 2.0508-4.5781 4.5781-4.5781 2.5312 0 4.582 2.0508 4.582 4.5781v70.992c-0.003906 2.5273-2.0547 4.5742-4.582 4.5742z"/>
  <path d="m478.5 331.57c-2.5273 0-4.5781-2.0508-4.5781-4.5781v-70.988c0-2.5273 2.0508-4.5781 4.5781-4.5781 2.5312 0 4.582 2.0508 4.582 4.5781v70.992c-0.003906 2.5273-2.0547 4.5742-4.582 4.5742z"/>
  <path d="m522.68 331.57c-2.5273 0-4.5781-2.0508-4.5781-4.5781v-70.988c0-2.5273 2.0508-4.5781 4.5781-4.5781 2.5312 0 4.582 2.0508 4.582 4.5781v70.992c-0.003906 2.5273-2.0508 4.5742-4.582 4.5742z"/>
  <path d="m566.87 331.57c-2.5312 0-4.582-2.0508-4.582-4.5781v-70.988c0-2.5273 2.0508-4.5781 4.582-4.5781 2.5273 0 4.5781 2.0508 4.5781 4.5781v70.992c-0.003907 2.5273-2.0508 4.5742-4.5781 4.5742z"/>
  <path d="m568.6 180.43h-197.5c-5.4219 0.011718-10.625 2.1758-14.461 6.0117-3.8359 3.8359-5.9961 9.0352-6.0117 14.461v39.207c0.015626 5.4258 2.1758 10.625 6.0117 14.461 3.8359 3.8359 9.0391 5.9961 14.461 6.0117h32.52c-2.5273 0-4.5781-2.0508-4.5781-4.582v-70.984c0-2.5312 2.0508-4.582 4.5781-4.582 2.5312 0 4.582 2.0508 4.582 4.582v70.992-0.003906c0 1.2148-0.48438 2.3828-1.3438 3.2383-0.85938 0.85937-2.0234 1.3438-3.2383 1.3438h44.172c-2.5312 0-4.582-2.0508-4.582-4.582v-70.988c0-2.5312 2.0508-4.582 4.582-4.582 2.5273 0 4.5781 2.0508 4.5781 4.582v70.992-0.003906c0 1.2148-0.48047 2.3828-1.3398 3.2383-0.85938 0.85937-2.0234 1.3438-3.2383 1.3438h44.172-0.003906c-2.5273 0-4.5781-2.0508-4.5781-4.582v-70.988c0-2.5312 2.0508-4.582 4.5781-4.582 2.5312 0 4.582 2.0508 4.582 4.582v70.992-0.003906c0 1.2148-0.48438 2.3828-1.3398 3.2383-0.85938 0.85937-2.0273 1.3438-3.2422 1.3438h44.168c-2.5312 0-4.582-2.0508-4.582-4.582v-70.988c0-2.5312 2.0508-4.582 4.582-4.582 2.5273 0 4.5781 2.0508 4.5781 4.582v70.992-0.003906c0 1.2148-0.48047 2.3828-1.3398 3.2383-0.85938 0.85937-2.0234 1.3438-3.2383 1.3438h32.43c5.4375-0.003907 10.656-2.1562 14.508-5.9961 3.8555-3.8359 6.0312-9.0391 6.0586-14.477v-39.211c-0.027344-5.4297-2.1992-10.633-6.0469-14.469-3.8438-3.832-9.0508-5.9922-14.48-6.0039z"/>
 </g>
</svg>