<?xml version="1.0" encoding="UTF-8"?>
<!-- The Best Svg Icon site in the world: iconSvg.co, Visit us! https://iconsvg.co -->
<svg fill="#000000" width="800px" height="800px" version="1.1" viewBox="144 144 512 512" xmlns="http://www.w3.org/2000/svg">
 <path d="m594.18 226.76h-388.35c-20.258 0-36.734 16.48-36.734 36.734v273c0 20.258 16.48 36.734 36.734 36.734h388.35c20.27 0 36.734-16.48 36.734-36.734v-273c0-20.254-16.469-36.734-36.734-36.734zm-388.36 10.496h388.35c9.5391 0 17.82 5.1641 22.418 12.793-1.543-0.50391-3.2852-0.36719-4.7109 0.67188l-200.91 148.2c-6.5703 4.8398-15.406 4.8281-21.957 0l-200.9-148.19c-1.4062-1.0508-3.1484-1.1758-4.7109-0.67188 4.5977-7.6406 12.879-12.805 22.418-12.805zm414.59 299.24c0 14.473-11.754 26.238-26.238 26.238h-388.35c-14.465 0-26.238-11.766-26.238-26.238v-273c0-2.1289 0.32422-4.1562 0.80859-6.1406 0.34766 0.68359 0.82031 1.3242 1.4922 1.8164l200.91 148.2c5.1445 3.7891 11.168 5.6875 17.215 5.6875 6.0234 0 12.059-1.8984 17.215-5.6875l200.91-148.2c0.66016-0.49219 1.1328-1.1445 1.5117-1.8359 0.47266 1.9844 0.79687 4.0195 0.79687 6.1523z"/>
</svg>