<?xml version="1.0" encoding="UTF-8"?>
<!-- The Best Svg Icon site in the world: iconSvg.co, Visit us! https://iconsvg.co -->
<svg fill="#000000" width="800px" height="800px" version="1.1" viewBox="144 144 512 512" xmlns="http://www.w3.org/2000/svg">
 <g>
  <path d="m247.48 538.52v92.715h-5.418c-3.2617 0-5.9062 2.6445-5.9062 5.9062 0 3.2578 2.6445 5.9023 5.9062 5.9023h230.36c3.2617 0 5.9023-2.6445 5.9023-5.9023 0-3.2617-2.6406-5.9062-5.9023-5.9062h-5.5117v-93.176c0-47.781-31.059-88.426-73.871-103.17 20.156-6.9531 37.84-19.641 50.883-36.504 13.047-16.859 20.883-37.164 22.551-58.418 1.8711 0.11328 3.75 0.17969 5.6484 0.17969 23.039-0.007813 45.23-8.6953 62.152-24.332 16.922-15.637 27.332-37.07 29.16-60.039 1.8281-22.965-5.0625-45.777-19.297-63.895-14.238-18.113-34.773-30.199-57.523-33.855-22.746-3.6523-46.035 1.3984-65.23 14.145-19.191 12.746-32.879 32.254-38.332 54.637h-140.99c-3.2617 0-5.9062 2.6445-5.9062 5.9062s2.6445 5.9023 5.9062 5.9023h5.418v93.074c0.10156 22.734 7.2695 44.879 20.504 63.363 13.238 18.484 31.895 32.402 53.387 39.82-21.574 7.4336-40.289 21.414-53.535 39.992-13.246 18.582-20.363 40.832-20.355 63.652zm224.64-370.02c21.195 0 41.523 8.418 56.516 23.406 14.988 14.988 23.406 35.316 23.406 56.516 0 21.195-8.418 41.523-23.406 56.512-14.992 14.988-35.32 23.41-56.516 23.41-21.195 0-41.527-8.4219-56.516-23.41-14.988-14.988-23.406-35.316-23.406-56.512 0.023438-21.191 8.4492-41.504 23.434-56.488s35.297-23.41 56.488-23.434zm-212.83 163.14v-93.023h121.66c-0.38672 3.3164-0.57812 6.6484-0.56641 9.9844 0.03125 21.293 7.4648 41.918 21.027 58.332 13.566 16.414 32.414 27.605 53.324 31.648-1.8047 24.488-12.82 47.383-30.832 64.074-18.008 16.691-41.676 25.938-66.23 25.875h-0.66406c-25.805 0.10547-50.598-10.043-68.922-28.211-18.324-18.172-28.684-42.875-28.801-68.68zm97.527 108.7h0.66016c53.672 0 97.633 44.047 97.633 97.73l-0.003907 93.164h-195.82v-92.727c-0.0625-25.953 10.199-50.863 28.52-69.238 18.379-18.457 42.953-27.945 69.008-28.93z"/>
  <path d="m472.11 289.82c-4.3281-0.007812-8.4766-1.7266-11.535-4.7891-3.0586-3.0586-4.7812-7.207-4.7852-11.535 0-3.2617-2.6445-5.9023-5.9062-5.9023s-5.9023 2.6406-5.9023 5.9023c0.007813 6.0352 1.9492 11.91 5.5469 16.758s8.6523 8.4102 14.426 10.168v8.0664c0 3.2617 2.6445 5.9062 5.9062 5.9062s5.9023-2.6445 5.9023-5.9062v-7.1094 0.003906c9.5352-1.2461 17.773-7.2773 21.84-15.992 4.0703-8.7109 3.4062-18.898-1.7617-27.008-5.1641-8.1094-14.113-13.02-23.73-13.016-4.3281 0-8.4805-1.7227-11.543-4.7812-3.0586-3.0625-4.7812-7.2148-4.7812-11.543 0-4.3281 1.7227-8.4805 4.7812-11.543 3.0625-3.0586 7.2148-4.7812 11.543-4.7812s8.4805 1.7227 11.543 4.7812c3.0586 3.0625 4.7812 7.2148 4.7812 11.543 0 3.2617 2.6406 5.9023 5.9023 5.9023 3.2617 0 5.9023-2.6406 5.9023-5.9023-0.007813-6.6523-2.3711-13.09-6.6719-18.168-4.3008-5.0781-10.258-8.4688-16.82-9.5742v-5.9727c0-3.2578-2.6406-5.9023-5.9023-5.9023-3.2617 0-5.9062 2.6445-5.9062 5.9023v6.5117c-8.8867 2.3438-16.07 8.8828-19.238 17.508-3.168 8.6289-1.918 18.262 3.3438 25.801 5.2617 7.5352 13.875 12.023 23.066 12.023 5.832 0 11.219 3.1133 14.137 8.1641 2.9141 5.0508 2.9141 11.27 0 16.32-2.918 5.0508-8.3047 8.1641-14.137 8.1641z"/>
 </g>
</svg>