<?xml version="1.0" encoding="UTF-8"?>
<!-- The Best Svg Icon site in the world: iconSvg.co, Visit us! https://iconsvg.co -->
<svg fill="#000000" width="800px" height="800px" version="1.1" viewBox="144 144 512 512" xmlns="http://www.w3.org/2000/svg">
 <g>
  <path d="m305.54 478.72h-47.234c-4.3477 0-7.8711 3.5234-7.8711 7.8711v47.234c0 2.0859 0.82812 4.0898 2.3047 5.5664s3.4805 2.3047 5.5664 2.3047h47.234c2.0859 0 4.0898-0.82812 5.5664-2.3047 1.4766-1.4766 2.3047-3.4805 2.3047-5.5664v-47.234c0-2.0859-0.82812-4.0898-2.3047-5.5664-1.4766-1.4766-3.4805-2.3047-5.5664-2.3047zm-7.8711 47.23h-31.488v-31.488h31.488z"/>
  <path d="m415.74 384.25h-78.719c-4.1758 0-8.1797 1.6602-11.133 4.6133-2.9531 2.9531-4.6133 6.957-4.6133 11.133v31.488c0 4.1758 1.6602 8.1797 4.6133 11.133 2.9531 2.9492 6.957 4.6094 11.133 4.6094h78.719c4.1758 0 8.1797-1.6602 11.133-4.6094 2.9531-2.9531 4.6133-6.957 4.6133-11.133v-31.488c0-4.1758-1.6602-8.1797-4.6133-11.133-2.9531-2.9531-6.957-4.6133-11.133-4.6133zm0 23.617h-31.488v-7.8711h31.488zm-47.23-7.8711v7.8711h-31.488v-7.8711zm-31.488 23.617h31.488v7.8711h-31.488zm47.23 7.8711v-7.875h31.488v7.8711z"/>
  <path d="m360.64 502.34h-15.742v15.742h7.8711v15.742l-7.8711 0.003907v15.742h15.742c2.0898 0 4.0898-0.82812 5.5664-2.3047 1.4766-1.4766 2.3086-3.4805 2.3086-5.5664v-31.488c0-2.0898-0.83203-4.0898-2.3086-5.5664s-3.4766-2.3047-5.5664-2.3047z"/>
  <path d="m541.7 518.08c2.0859 0 4.0898 0.83203 5.5664 2.3047 1.4766 1.4766 2.3047 3.4805 2.3047 5.5664h15.746c-0.023438-4.8672-1.5469-9.6055-4.3633-13.574-2.8164-3.9688-6.793-6.9688-11.383-8.5898v-9.3242h-15.742v9.3242c-7.0547 2.4844-12.512 8.168-14.703 15.32-2.1875 7.1523-0.85547 14.918 3.5977 20.93 4.4531 6.0078 11.496 9.5469 18.977 9.5312 3.1836 0 6.0547 1.918 7.2734 4.8594 1.2188 2.9414 0.54297 6.3281-1.707 8.5781-2.25 2.2539-5.6367 2.9258-8.5781 1.707s-4.8594-4.0898-4.8594-7.2734h-15.746c0.019531 4.8672 1.543 9.6094 4.3633 13.578 2.8164 3.9688 6.793 6.9688 11.383 8.5898v9.3203h15.742v-9.3203c7.0547-2.4844 12.512-8.1719 14.703-15.32 2.1875-7.1523 0.85156-14.922-3.6016-20.93-4.4531-6.0078-11.492-9.5469-18.973-9.5312-4.3477 0-7.8711-3.5273-7.8711-7.875 0-4.3477 3.5234-7.8711 7.8711-7.8711z"/>
  <path d="m541.7 470.85c-18.789 0-36.812 7.4648-50.098 20.75s-20.75 31.309-20.75 50.098c0 18.789 7.4648 36.809 20.75 50.098 13.285 13.285 31.309 20.75 50.098 20.75 18.789 0 36.809-7.4648 50.098-20.75 13.285-13.289 20.75-31.309 20.75-50.098-0.023438-18.785-7.4961-36.789-20.777-50.074-13.281-13.281-31.289-20.75-50.07-20.773zm0 125.95c-14.613 0-28.633-5.8086-38.965-16.141-10.336-10.336-16.141-24.352-16.141-38.965 0-14.613 5.8047-28.633 16.141-38.965 10.332-10.336 24.352-16.141 38.965-16.141 14.613 0 28.629 5.8047 38.965 16.141 10.332 10.332 16.141 24.352 16.141 38.965-0.019531 14.609-5.8281 28.617-16.16 38.945-10.328 10.332-24.336 16.141-38.945 16.16z"/>
  <path d="m541.7 447.23c-5.2773 0.035156-10.547 0.51172-15.746 1.4258v-69.016l14.117 14.117c6.207 6.207 15.254 8.6289 23.73 6.3555 8.4805-2.2695 15.102-8.8945 17.375-17.371 2.2734-8.4805-0.15234-17.527-6.3594-23.734l-48.863-48.859v-99.078c4.1758 0 8.1836-1.6602 11.133-4.6133 2.9531-2.9492 4.6133-6.957 4.6133-11.133v-15.742c0-4.1758-1.6602-8.1797-4.6133-11.133-2.9492-2.9531-6.957-4.6133-11.133-4.6133h-78.719c-4.1758 0-8.1797 1.6602-11.133 4.6133s-4.6094 6.957-4.6094 11.133v15.742c0 4.1758 1.6562 8.1836 4.6094 11.133 2.9531 2.9531 6.957 4.6133 11.133 4.6133v20.355l-54.152-54.152c-4.4961-4.293-10.477-6.6875-16.695-6.6875s-12.199 2.3945-16.695 6.6875l-181.73 181.73c-6.207 6.207-8.6328 15.254-6.3594 23.734 2.2695 8.4766 8.8945 15.102 17.371 17.371 8.4805 2.2734 17.527-0.14844 23.734-6.3555l14.113-14.117v154.18c-8.3516 0-16.359 3.3164-22.266 9.2227-5.9023 5.9023-9.2227 13.914-9.2227 22.266-8.3477 0-16.359 3.3164-22.266 9.2227-5.9023 5.9023-9.2227 13.914-9.2227 22.266 0 2.0859 0.83203 4.0898 2.3086 5.5664 1.4766 1.4727 3.4766 2.3047 5.5664 2.3047h299.77c21.359 23.809 53.324 35.184 84.922 30.219 31.602-4.9688 58.535-25.598 71.562-54.809 13.027-29.215 10.375-63.039-7.043-89.863-17.422-26.828-47.242-43.008-79.23-42.988zm-94.465-267.65h78.719v15.742h-78.719zm15.742 31.488h47.23l0.003906 83.332-47.23-47.23zm-261.4 171.55c-3.4492 3.4492-9.0391 3.4492-12.488 0-3.4453-3.4492-3.4453-9.0391 0-12.484l181.73-181.73c3.0742-3.0742 8.0586-3.0742 11.133 0l181.73 181.73c3.4492 3.4453 3.4492 9.0352 0 12.484-3.4453 3.4492-9.0352 3.4492-12.484 0l-158.12-158.12c-4.4297-4.4258-10.434-6.9141-16.695-6.9141-6.2617 0-12.27 2.4883-16.695 6.9141zm169.25-146.99h-0.003906c3.0742-3.0703 8.0586-3.0703 11.133 0l117.12 117.13h-245.39zm-189.12 353.29c1.9961-3.4414 5.2266-5.9961 9.0352-7.1445s7.9141-0.80859 11.48 0.95703c3.0234 1.4922 6.6602 0.89062 9.043-1.4922 2.3867-2.3867 2.9883-6.0234 1.4961-9.0469-1.0859-2.1367-1.6602-4.4922-1.6836-6.8867-0.023437-5 2.3398-9.7109 6.3633-12.684 4.0195-2.9727 9.2188-3.8477 13.992-2.3555 4.7695 1.4883 8.5469 5.1641 10.164 9.8984 1.1406 3.2734 4.2891 5.4141 7.7539 5.2734 0.36719 0.003907 0.73047-0.039062 1.0859-0.13281 6.9805 0.007812 13.758 2.332 19.277 6.6055 5.5156 4.2734 9.4609 10.254 11.219 17.008zm155.32 0v-110.21h78.719v110.21zm94.465 0v-118.08c0-2.0898-0.83203-4.0898-2.3086-5.5664-1.4766-1.4766-3.4766-2.3047-5.5664-2.3047h-94.465c-4.3477 0-7.8711 3.5234-7.8711 7.8711v118.08h-24.316c-1.7617-10.379-6.9414-19.875-14.715-26.977-7.7695-7.1055-17.691-11.414-28.188-12.242-2.75-4.8086-6.7148-8.8164-11.5-11.609v-169.59h267.65v84.23c-26.496 9.2891-47.461 29.926-57.168 56.27-9.7109 26.348-7.1523 55.652 6.9766 79.914zm110.21 31.488c-20.879 0-40.902-8.293-55.664-23.055-14.762-14.766-23.055-34.785-23.055-55.664 0-20.879 8.293-40.902 23.055-55.664s34.785-23.055 55.664-23.055c20.879 0 40.898 8.293 55.664 23.055 14.762 14.762 23.055 34.785 23.055 55.664-0.023437 20.871-8.3242 40.879-23.082 55.637-14.758 14.758-34.766 23.059-55.637 23.082z"/>
 </g>
</svg>