<?xml version="1.0" encoding="UTF-8"?>
<!-- The Best Svg Icon site in the world: iconSvg.co, Visit us! https://iconsvg.co -->
<svg fill="#000000" width="800px" height="800px" version="1.1" viewBox="144 144 512 512" xmlns="http://www.w3.org/2000/svg">
 <g>
  <path d="m507.55 351.18v-6.1758c7.4102-0.3125 12.887-3.9883 12.887-11.504 0-4.6602-2.0508-7.8867-6.8711-9.8281-3.2656-1.3125-6.0391-1.8906-6.6055-2.0508v-7.2422c3.6836 0.53125 8.0234 2.8594 8.5195 3.5156l3.832-7.2422c-1.4922-0.85156-3.25-1.6875-5.2734-2.5039-2.0234-0.81641-4.1914-1.332-6.4961-1.543v-5.3789h-3.6758v5.3789c-4.9453 0.51563-9.1367 2.6602-11.184 7.2695-1.2109 2.7266-1.2227 6.3711-0.34766 8.6562 0.90625 2.3594 2.7773 3.8867 5.0352 4.9805 2.8438 1.3828 5.875 2.0898 7.082 2.4766v7.082c-4.7344-0.65625-9.7461-3.3711-10.492-4.3125l-3.8359 7.6172c4.0234 2.6797 9.0977 4.1758 13.742 4.582v6.2305l3.6836-0.003906zm-0.58594-20.398c1.2422 0.42578 2.2344 0.89844 2.9844 1.4102 0.74609 0.51562 1.1172 1.2344 1.1172 2.1562 0 1.7773-1.3672 2.7148-4.1016 2.8242zm-5.3008-11.262c-0.62109-0.51562-0.93359-1.2148-0.93359-2.1055 0-1.8477 1.2422-2.875 3.7266-3.0898v6.5508c-1.2422-0.39062-2.1719-0.83984-2.793-1.3555z"/>
  <path d="m365.56 286.84c0 5.4336-4.4062 9.8398-9.8398 9.8398s-9.8398-4.4062-9.8398-9.8398c0-5.4375 4.4062-9.8398 9.8398-9.8398s9.8398 4.4023 9.8398 9.8398"/>
  <path d="m395.08 277c0 5.4336-4.4062 9.8398-9.8398 9.8398-5.4336 0-9.8398-4.4062-9.8398-9.8398 0-5.4375 4.4062-9.8438 9.8398-9.8438 5.4336 0 9.8398 4.4062 9.8398 9.8438"/>
  <path d="m424.6 267.16c0 5.4375-4.4062 9.8438-9.8398 9.8438-5.4336 0-9.8398-4.4062-9.8398-9.8438 0-5.4336 4.4062-9.8398 9.8398-9.8398 5.4336 0 9.8398 4.4062 9.8398 9.8398"/>
  <path d="m454.12 257.32c0 5.4375-4.4062 9.8398-9.8398 9.8398s-9.8398-4.4023-9.8398-9.8398c0-5.4336 4.4062-9.8398 9.8398-9.8398s9.8398 4.4062 9.8398 9.8398"/>
  <path d="m483.64 247.48c0 5.4375-4.4062 9.8398-9.8398 9.8398s-9.8398-4.4023-9.8398-9.8398c0-5.4336 4.4062-9.8398 9.8398-9.8398s9.8398 4.4062 9.8398 9.8398"/>
  <path d="m513.16 237.64c0 5.4375-4.4023 9.8398-9.8398 9.8398-5.4336 0-9.8398-4.4023-9.8398-9.8398 0-5.4336 4.4062-9.8398 9.8398-9.8398 5.4375 0 9.8398 4.4062 9.8398 9.8398"/>
  <path d="m542.68 227.8c0 5.4375-4.4062 9.8398-9.8398 9.8398-5.4375 0-9.8438-4.4023-9.8438-9.8398 0-5.4336 4.4062-9.8398 9.8438-9.8398 5.4336 0 9.8398 4.4062 9.8398 9.8398"/>
  <path d="m572.2 217.96c0 5.4336-4.4062 9.8398-9.8398 9.8398-5.4375 0-9.8398-4.4062-9.8398-9.8398 0-5.4336 4.4023-9.8398 9.8398-9.8398 5.4336 0 9.8398 4.4062 9.8398 9.8398"/>
  <path d="m328.82 381.96v-5.3555c6.418-0.26953 11.172-3.4805 11.172-9.9727 0-3.9883-1.7305-6.8125-5.957-8.5156-2.8359-1.1406-5.2344-1.6367-5.7227-1.7773v-6.2773c3.1914 0.45703 6.9609 2.4805 7.3867 3.0469l3.3242-6.2773c-1.293-0.73828-2.8164-1.4609-4.5703-2.168-1.7539-0.70703-3.6328-1.1523-5.6328-1.3398v-4.6641h-3.1836v4.6641c-4.3359 0.44922-7.9336 2.3359-9.6953 6.3008-1.0508 2.3672-1.0586 5.5234-0.30078 7.5 1.2656 3.3125 4.8398 4.7617 8.2852 5.8164l2.2148 0.64844v6.1406c-4.1328-0.57422-8.4531-2.9297-9.0938-3.7383l-3.3242 6.6016c3.4805 2.3203 7.8828 3.6211 11.91 3.9688v5.4023h3.1875zm-0.50781-17.676c1.0781 0.36719 1.9414 0.77734 2.5859 1.2227 0.64453 0.44531 0.96875 1.0703 0.96875 1.8711 0 1.5391-1.1875 2.3555-3.5547 2.4453zm-4.5938-9.7617c-0.53906-0.44531-0.80859-1.0547-0.80859-1.8242 0-1.6016 1.0781-2.4922 3.2305-2.6758v5.6758c-1.0742-0.33984-1.8828-0.73047-2.4219-1.1758z"/>
  <path d="m601.72 572.2h-86.594v-39.359h11.809c32.555 0 59.039-26.484 59.039-59.039 0-5.4336-4.4062-9.8398-9.8398-9.8398h-21.648c-15.109 0-28.906 5.7109-39.359 15.082v-24.926h11.809c32.555 0 59.039-26.484 59.039-59.039 0-5.4336-4.4062-9.8398-9.8398-9.8398h-21.648c-15.109 0-28.906 5.7109-39.359 15.082v-25.91c22.43-4.5703 39.359-24.449 39.359-48.211 0-27.129-22.07-49.199-49.199-49.199s-49.199 22.07-49.199 49.199c0 23.758 16.93 43.637 39.359 48.211v24.219c-10.188-8.3633-23.211-13.391-37.391-13.391h-21.648c-5.4336 0-9.8398 4.4062-9.8398 9.8398 0 32.555 26.484 59.039 59.039 59.039h9.8398v23.227c-10.188-8.3594-23.211-13.387-37.391-13.387h-21.648c-5.4336 0-9.8398 4.4062-9.8398 9.8398 0 32.555 26.484 59.039 59.039 59.039h9.8398v39.359l-158.75 0.003907v-31.488h8.9219c28.938 0 52.48-23.543 52.48-52.48 0-5.4336-4.4062-9.8398-9.8398-9.8398h-18.762c-12.402 0-23.809 4.3359-32.801 11.555v-17.461h8.9219c28.938 0 52.48-23.543 52.48-52.48 0-5.4336-4.4062-9.8398-9.8398-9.8398l-18.762 0.003907c-12.402 0-23.809 4.3359-32.801 11.555v-18.586c19.512-4.4805 34.113-21.977 34.113-42.828 0-24.234-19.719-43.953-43.953-43.953-24.238 0.003906-43.953 19.719-43.953 43.957 0 20.852 14.602 38.344 34.113 42.828v17.266c-8.7109-6.4258-19.465-10.238-31.094-10.238h-18.766c-5.4336 0-9.8398 4.4062-9.8398 9.8398 0 28.938 23.543 52.48 52.48 52.48h7.2148v16.141c-8.7109-6.4258-19.465-10.234-31.094-10.234l-18.762-0.003906c-5.4336 0-9.8398 4.4062-9.8398 9.8398 0 28.938 23.543 52.48 52.48 52.48h7.2148v31.488h-79.375v-354.24c0-5.4336-4.4062-9.8398-9.8398-9.8398s-9.8398 4.4062-9.8398 9.8398v9.8398h-19.68c-5.4336 0-9.8398 4.4062-9.8398 9.8398 0 5.4336 4.4062 9.8398 9.8398 9.8398h19.68v9.8398h-19.68c-5.4336 0-9.8398 4.4062-9.8398 9.8398s4.4062 9.8398 9.8398 9.8398h19.68v9.8398l-19.68 0.003906c-5.4336 0-9.8398 4.4062-9.8398 9.8398 0 5.4336 4.4062 9.8398 9.8398 9.8398h19.68v9.8398h-19.68c-5.4336 0-9.8398 4.4062-9.8398 9.8398 0 5.4336 4.4062 9.8398 9.8398 9.8398h19.68v9.8398h-19.68c-5.4336 0-9.8398 4.4062-9.8398 9.8398s4.4062 9.8398 9.8398 9.8398h19.68v9.8398h-19.68c-5.4336 0-9.8398 4.4062-9.8398 9.8398 0 5.4336 4.4062 9.8398 9.8398 9.8398h19.68v9.8398h-19.68c-5.4336 0-9.8398 4.4062-9.8398 9.8398 0 5.4336 4.4062 9.8398 9.8398 9.8398h19.68v9.8398h-19.68c-5.4336 0-9.8398 4.4062-9.8398 9.8398s4.4062 9.8398 9.8398 9.8398h19.68v9.8398h-19.68c-5.4336 0-9.8398 4.4062-9.8398 9.8398s4.4062 9.8398 9.8398 9.8398h19.68v9.8398l-19.68 0.003907c-5.4336 0-9.8398 4.4062-9.8398 9.8398 0 5.4336 4.4062 9.8398 9.8398 9.8398h19.68v9.8398h-19.68c-5.4336 0-9.8398 4.4062-9.8398 9.8398s4.4062 9.8398 9.8398 9.8398h19.68v9.8398h-19.68c-5.4336 0-9.8398 4.4062-9.8398 9.8398s4.4062 9.8398 9.8398 9.8398h19.68v9.8398c0 5.4336 4.4062 9.8398 9.8398 9.8398h373.92c5.4336 0 9.8398-4.4062 9.8398-9.8398 0-5.4336-4.4062-9.8398-9.8398-9.8398zm-47.23-88.559h10.562c-4.3789 16.957-19.809 29.52-38.113 29.52h-10.562c4.3789-16.957 19.805-29.52 38.113-29.52zm0-78.723h10.562c-4.3789 16.957-19.809 29.52-38.113 29.52h-10.562c4.3789-16.957 19.805-29.52 38.113-29.52zm-78.723-78.719c0-16.277 13.242-29.52 29.52-29.52s29.52 13.242 29.52 29.52c0 16.277-13.242 29.52-29.52 29.52s-29.52-13.242-29.52-29.52zm-28.273 78.719h10.562c17.418 0 32.223 11.375 37.391 27.086v2.4336h-9.8398c-18.305 0-33.734-12.562-38.113-29.52zm0 78.723h10.562c17.418 0 32.223 11.375 37.391 27.086v2.4336h-9.8398c-18.305 0-33.734-12.562-38.113-29.52zm-77.996 14.43h7.4141c-4.1914 13.293-16.637 22.961-31.293 22.961h-7.4141c4.1875-13.293 16.633-22.961 31.293-22.961zm0-68.223h7.4141c-4.1875 13.293-16.633 22.961-31.293 22.961h-7.4141c4.1875-13.297 16.633-22.961 31.293-22.961zm-66.914-69.535c0-13.387 10.887-24.273 24.273-24.273 13.383 0 24.273 10.887 24.273 24.273 0 13.383-10.887 24.273-24.273 24.273-13.387-0.003907-24.273-10.891-24.273-24.273zm-24.078 69.535h7.4141c14.441 0 26.727 9.3828 31.094 22.371v0.58984h-7.2148c-14.66 0-27.102-9.668-31.293-22.961zm0 68.223h7.4141c14.441 0 26.727 9.3828 31.094 22.371v0.58984h-7.2148c-14.66 0-27.102-9.668-31.293-22.961z"/>
 </g>
</svg>