<?xml version="1.0" encoding="UTF-8"?>
<!-- The Best Svg Icon site in the world: iconSvg.co, Visit us! https://iconsvg.co -->
<svg fill="#000000" width="800px" height="800px" version="1.1" viewBox="144 144 512 512" xmlns="http://www.w3.org/2000/svg">
 <g>
  <path d="m566.94 261.07-55.566-55.566c-3.0742-3.0742-8.0547-3.0742-11.133 0l-33.34 33.34c-3.0742 3.0742-3.0742 8.0547 0 11.133l11.094 11.094-10.004 10.043c-19.008-13.742-41.004-22.887-64.055-26.602l-0.003906-17.699h15.742c4.3516 0 7.8711-3.5234 7.8711-7.8711l0.003906-47.23c0-4.3477-3.5195-7.8711-7.8711-7.8711h-78.719c-4.3516 0-7.8711 3.5234-7.8711 7.8711v47.23c0 4.3477 3.5195 7.8711 7.8711 7.8711h15.742v17.797c-71.262 11.379-125.95 73.098-125.95 147.52 0 45.387 20.266 87.793 55.59 116.33 3.3906 2.7305 8.332 2.207 11.078-1.1758 2.7305-3.3828 2.1992-8.3359-1.1758-11.07-31.621-25.539-49.75-63.477-49.75-104.09 0-73.793 60.031-133.82 133.82-133.82 30.234 0 59.918 10.406 83.57 29.297 7.75 6.1797 14.797 13.23 20.949 20.953 0.003906 0.003907 0.007812 0.003907 0.011718 0.011719 18.895 23.652 29.297 53.332 29.297 83.562 0 40.609-18.129 78.547-49.746 104.09-3.375 2.7344-3.9062 7.6875-1.1758 11.07 1.5586 1.9258 3.8359 2.9258 6.1328 2.9258 1.7383 0 3.4844-0.57422 4.9414-1.75 35.324-28.539 55.59-70.945 55.59-116.33 0-31.426-10.164-62.238-28.551-87.668l10.047-10 11.086 11.086c1.5391 1.5391 3.5508 2.3047 5.5664 2.3047s4.0273-0.76953 5.5664-2.3047l33.34-33.34c3.0742-3.0781 3.0742-8.0586 0-11.133zm-78.387 28.043c-1.707-1.793-3.4453-3.5273-5.2383-5.2344-0.99609-0.94922-1.8945-1.9961-2.9219-2.918l8.7266-8.7617 11.125 11.125-8.7578 8.7227c-0.92578-1.0273-1.9805-1.9297-2.9336-2.9336zm-139.72-109.53h62.977v31.488h-62.973zm23.613 62.977v-15.742h15.742v15.742zm155.59 46.285-44.434-44.434 22.211-22.211 44.434 44.434z"/>
  <path d="m317.34 337.02c-4.3516 0-7.8711 3.5234-7.8711 7.8711v102.34h-7.8711c-4.3516 0-7.8711 3.5234-7.8711 7.8711 0 4.3477 3.5195 7.8711 7.8711 7.8711h157.44c4.3516 0 7.8711-3.5234 7.8711-7.8711 0-4.3477-3.5195-7.8711-7.8711-7.8711h-7.8711l-0.003906-86.594c0-4.3477-3.5195-7.8711-7.8711-7.8711s-7.8711 3.5234-7.8711 7.8711v86.594h-47.23l-0.003906-133.82c0-4.3477-3.5195-7.8711-7.8711-7.8711-4.3516 0-7.8711 3.5234-7.8711 7.8711v133.82h-47.23l-0.003906-102.34c0-4.3477-3.5195-7.8711-7.8711-7.8711z"/>
  <path d="m498.16 563.4c-0.875-3.5039-4.0195-5.9648-7.6328-5.9648h-15.742c-4.3516 0-7.8711 3.5234-7.8711 7.8711s3.5195 7.8711 7.8711 7.8711h9.5938l11.809 47.23-109.73 0.003906-11.809-47.23h11.328l-1.4922 5.9609c-1.0625 4.2188 1.5078 8.4961 5.7266 9.5469 0.64453 0.16406 1.2891 0.23438 1.918 0.23438 3.5273 0 6.7344-2.3867 7.625-5.9609l2.4492-9.7812h41.086c2.4219 0 4.7109-1.1133 6.2031-3.0234 1.4922-1.9102 2.0234-4.4023 1.4375-6.7539l-15.75-62.984c-0.875-3.5039-4.0195-5.9609-7.6328-5.9609h-94.465c-3.6133 0-6.7578 2.457-7.6328 5.957l-15.75 62.984c-0.58594 2.3516-0.054687 4.8438 1.4375 6.7539 1.4883 1.9102 3.7812 3.0273 6.2031 3.0273h41.086l11.801 47.23h-105.78l11.809-47.23h9.5977c4.3516 0 7.8711-3.5234 7.8711-7.8711s-3.5195-7.8711-7.8711-7.8711h-15.742c-3.6133 0-6.7578 2.4609-7.6328 5.9609l-15.742 62.977c-0.59375 2.3516-0.0625 4.8438 1.4297 6.7539 1.4844 1.9062 3.7773 3.0273 6.1992 3.0273h251.91c2.4219 0 4.7109-1.1172 6.2031-3.0273 1.4922-1.9102 2.0234-4.4023 1.4297-6.7539zm-158.93-53.195h82.18l11.809 47.23h-105.8z"/>
 </g>
</svg>