<?xml version="1.0" encoding="UTF-8"?>
<!-- The Best Svg Icon site in the world: iconSvg.co, Visit us! https://iconsvg.co -->
<svg fill="#000000" width="800px" height="800px" version="1.1" viewBox="144 144 512 512" xmlns="http://www.w3.org/2000/svg">
 <g>
  <path d="m615.17 345.14h-310.64l308.54-26.973c1.4805-0.10547 2.7695 0.31641 3.832 1.207 1.0898 0.90234 1.7305 2.1641 1.8594 3.5586 0.25 2.8867 2.8438 5.1016 5.6797 4.7773 2.875-0.24219 5.0273-2.793 4.7773-5.6797-0.35547-4.1875-2.3516-7.9961-5.5625-10.707-3.2227-2.6875-7.2109-3.9688-11.492-3.6211l-309.42 27.07 304.99-53.77c1.3633-0.24219 2.7695 0.0625 3.9141 0.87109 1.1328 0.80859 1.9219 2.0039 2.1641 3.3789 0.49219 2.8672 3.2656 4.7344 6.0664 4.2617 2.8438-0.49219 4.7539-3.2227 4.2617-6.0664-0.73438-4.1562-3.0352-7.7578-6.4766-10.172s-7.6523-3.3477-11.766-2.6016l-305.88 53.93 299.12-80.148c2.8438-0.73438 5.6875 0.91406 6.4453 3.7148 0.74609 2.8008 3.5898 4.4805 6.4219 3.7148 2.8008-0.75391 4.4609-3.6406 3.707-6.4336-2.2656-8.3867-10.895-13.395-19.301-11.148l-415.22 111.26c-0.10547 0.03125-0.1875 0.10547-0.28516 0.13672-6.7773 1.7734-11.816 7.8828-11.816 15.188v189.59c0 8.6914 7.0625 15.742 15.742 15.742h430.34c8.6797 0 15.742-7.0547 15.742-15.742l0.003906-189.59c0-8.6602-7.0625-15.746-15.742-15.746zm-182.75 151.7c-3.168 8.6602-9.5078 15.566-17.887 19.449-2.9805 1.3945-6.1211 2.1719-9.2891 2.6641v8.1445c0 2.8984-2.3516 5.2461-5.2461 5.2461-2.8984 0-5.2461-2.3516-5.2461-5.2461v-8.0703c-2.2344-0.33594-4.4492-0.85156-6.6211-1.6367-8.6602-3.1797-15.566-9.5195-19.449-17.887-3.8828-8.375-4.2734-17.738-1.1016-26.418 0.99609-2.7305 4.0391-4.1055 6.7383-3.1172 2.7305 1.0078 4.125 4.0195 3.1289 6.7383-2.2148 6.0156-1.9414 12.531 0.75391 18.379 2.707 5.8242 7.5156 10.254 13.539 12.449 0.98828 0.36719 1.9961 0.55469 3.0117 0.78906v-47.852c-2.1289-0.33594-4.2422-0.82812-6.2969-1.5742-8.4375-3.0859-15.145-9.2695-18.934-17.391-3.7695-8.1328-4.1562-17.277-1.0703-25.695 4.3242-11.797 14.672-19.555 26.293-21.434v-10.098c0-2.8984 2.3516-5.2461 5.2461-5.2461 2.8984 0 5.2461 2.3516 5.2461 5.2461v9.9297c2.1094 0.32422 4.2188 0.83984 6.3203 1.5938 17.383 6.3594 26.367 25.684 19.984 43.086-1.0078 2.7188-4.0195 4.1367-6.75 3.1289-2.7305-1.0078-4.125-4.0078-3.1172-6.75 4.3672-11.965-1.7852-25.242-13.762-29.609-0.88281-0.32422-1.793-0.49219-2.6992-0.69141v45.93c2.2578 0.34766 4.4805 0.85938 6.6328 1.6602 8.6484 3.1602 15.555 9.5078 19.461 17.875 3.8945 8.375 4.293 17.738 1.1133 26.406z"/>
  <path d="m392.05 449.03c-11.953-4.3672-18.117-17.664-13.738-29.609 2.1211-5.8047 6.3594-10.41 11.965-13.004 1.457-0.66016 2.9492-1.1641 4.4727-1.5312v44.891c-0.90625-0.22266-1.8203-0.42188-2.6992-0.74609z"/>
  <path d="m422.55 493.22c-2.1953 6.0234-6.6211 10.844-12.449 13.551-1.5742 0.71484-3.2227 1.25-4.8711 1.6172v-46.801c1.0195 0.21875 2.0156 0.45312 3.0117 0.80859 6.0156 2.2031 10.832 6.6328 13.539 12.457 2.7109 5.8242 2.9844 12.355 0.76953 18.367z"/>
 </g>
</svg>