<?xml version="1.0" encoding="UTF-8"?>
<!-- The Best Svg Icon site in the world: iconSvg.co, Visit us! https://iconsvg.co -->
<svg fill="#000000" width="800px" height="800px" version="1.1" viewBox="144 144 512 512" xmlns="http://www.w3.org/2000/svg">
 <g>
  <path d="m380.76 473.77c0.003906 1.3398 0.14453 2.6758 0.42188 3.9883 1.2305 5.6211 5.0039 10.348 10.207 12.793 5.207 2.4492 11.254 2.3359 16.363-0.30078 5.1133-2.6367 8.707-7.5 9.7305-13.16 0.19922-1.0977 0.30078-2.207 0.30859-3.3203 0-8.1562-10.992-61.066-18.535-96.184-7.5352 35.117-18.496 88.027-18.496 96.184zm19.238 4.2578c0.10156 0.03125 0.17188 0.125 0.17188 0.23047 0 0.10547-0.070313 0.19922-0.17188 0.23047-0.10547-0.03125-0.17578-0.125-0.17578-0.23047 0-0.10547 0.070312-0.19922 0.17578-0.23047z"/>
  <path d="m400.09 244.3c-58.312 0.066406-114.21 23.258-155.45 64.488-41.23 41.234-64.422 97.137-64.484 155.45-0.015625 14.473 1.4258 28.914 4.3047 43.098 2.7305 13.605 10.074 25.848 20.789 34.664s24.145 13.664 38.02 13.727h313.46c13.871-0.0625 27.297-4.9062 38.012-13.719 10.711-8.8125 18.059-21.051 20.797-34.648 8.5703-42.656 4.2852-86.902-12.316-127.12-16.598-40.219-44.766-74.605-80.926-98.801-36.164-24.195-78.695-37.113-122.21-37.113zm178.74 255.66c-1.0156 5.1367-3.7695 9.7617-7.8008 13.102-4.0273 3.3359-9.0859 5.1797-14.32 5.2188h-313.45c-5.2305-0.039063-10.289-1.8867-14.32-5.2227-4.0273-3.3359-6.7852-7.9609-7.8008-13.098-5.8945-29.414-4.4297-59.828 4.2617-88.539 8.6914-28.711 24.344-54.832 45.562-76.039 0.0625-0.074218 0.089844-0.16797 0.16016-0.24219s0.18359-0.10156 0.26172-0.16797v-0.003906c16.898-16.891 36.961-30.285 59.039-39.422s45.738-13.832 69.633-13.82h0.10156c48.023-0.003906 94.094 19.012 128.13 52.887 0.28125 0.14844 0.54688 0.32422 0.79688 0.52734 0.20703 0.25 0.38672 0.51953 0.53516 0.80859 33.648 33.938 52.602 79.746 52.762 127.54 0.16797 0.39453 0.16797 0.84375 0 1.2383-0.035157 11.836-1.2227 23.637-3.5547 35.234z"/>
  <path d="m556.5 468.7c-2.5312 0-4.582-2.0508-4.582-4.5781 0-2.5312 2.0508-4.582 4.582-4.582h16.629c-1.1133-42.727-18.027-83.52-47.473-114.5l-11.727 11.727 0.003907-0.003906c-1.7969 1.7383-4.6562 1.7109-6.4219-0.054688-1.7656-1.7656-1.793-4.625-0.054687-6.4219l11.73-11.73-0.003906 0.003906c-30.945-29.512-71.754-46.465-114.5-47.57v16.73c0 2.5312-2.0508 4.582-4.582 4.582-2.5273 0-4.5781-2.0508-4.5781-4.582v-16.727c-42.754 1.0977-83.578 18.023-114.57 47.496l11.809 11.809c0.88281 0.85156 1.3867 2.0234 1.3984 3.2539 0.007813 1.2266-0.47266 2.4102-1.3438 3.2773-0.86719 0.86719-2.0508 1.3516-3.2773 1.3398-1.2305-0.007813-2.4023-0.51172-3.2539-1.3945l-11.812-11.809c-29.516 30.973-46.48 71.805-47.602 114.57h16.848c2.5273 0 4.5781 2.0508 4.5781 4.582 0 2.5273-2.0508 4.5781-4.5781 4.5781h-16.848c0.23828 9.8945 1.3281 19.746 3.2617 29.449 1.2266 6.3086 6.7148 10.883 13.141 10.957h313.44c6.4258-0.070313 11.914-4.6484 13.141-10.957 1.9336-9.7031 3.0273-19.555 3.2734-29.449zm-129.99 9.9688c-1.5156 8.4766-6.8945 15.766-14.543 19.715-7.6523 3.9492-16.711 4.1133-24.5 0.44141-7.7891-3.6719-13.426-10.762-15.246-19.18-0.40625-1.9336-0.61328-3.9023-0.61719-5.8789 0-12.852 20.809-107.96 23.18-118.77 0.46484-2.1016 2.3242-3.5938 4.4727-3.5938s4.0078 1.4922 4.4727 3.5938c2.3789 10.805 23.227 105.92 23.227 118.77-0.007813 1.6445-0.15625 3.2812-0.44531 4.9023z"/>
 </g>
</svg>