<?xml version="1.0" encoding="UTF-8"?>
<!-- The Best Svg Icon site in the world: iconSvg.co, Visit us! https://iconsvg.co -->
<svg fill="#000000" width="800px" height="800px" version="1.1" viewBox="144 144 512 512" xmlns="http://www.w3.org/2000/svg">
 <g>
  <path d="m230.34 410.29v148.34h57.707v-148.34zm20.992 20.992h15.723v106.36h-15.723z"/>
  <path d="m338.86 330.21v228.41h57.727v-228.41zm20.992 20.992h15.742v186.43h-15.742z"/>
  <path d="m447.41 439.54v119.09h57.727v-119.09zm20.992 20.992h15.742v77.102h-15.742z"/>
  <path d="m230.34 537.64v20.992h274.8v-20.992z"/>
  <path d="m522.44 248.91v57.727h57.727v-57.727zm20.992 20.992h15.742v15.742h-15.742z"/>
  <path d="m367.5 237.68-137.17 108.69 13.039 16.461 122.14-96.801 110.09 115.76 65.418-78.965-16.156-13.387-50.348 60.762z"/>
 </g>
</svg>