<?xml version="1.0" encoding="UTF-8"?>
<!-- The Best Svg Icon site in the world: iconSvg.co, Visit us! https://iconsvg.co -->
<svg fill="#000000" width="800px" height="800px" version="1.1" viewBox="144 144 512 512" xmlns="http://www.w3.org/2000/svg">
 <g>
  <path d="m241.75 204.88c-0.10547-0.14453-0.42188-0.375-0.94141-0.69922-0.51953-0.32031-1.1836-0.67188-1.9883-1.0469-0.80859-0.375-1.7031-0.73438-2.6875-1.0742-0.98438-0.33984-1.9805-0.58203-2.9844-0.72656v7.3125l1.7227 0.42969c1.8281 0.5 3.4766 1.0469 4.9453 1.6406s2.7148 1.3281 3.7383 2.207c1.0234 0.87891 1.8125 1.9453 2.3672 3.1992 0.55469 1.2539 0.83594 2.7617 0.83594 4.5156 0 2.043-0.35938 3.7812-1.0781 5.2148s-1.6758 2.6094-2.875 3.5234c-1.2031 0.91406-2.582 1.6055-4.1406 2.0703-1.5586 0.46484-3.1992 0.73438-4.9219 0.80859v6.2383h-3.7109v-6.293c-2.4766-0.21484-4.9219-0.71875-7.3398-1.5039-2.418-0.78906-4.5977-1.8281-6.5352-3.1211l3.8711-7.6875c0.14453 0.17969 0.52734 0.47656 1.1562 0.88672 0.625 0.41406 1.4258 0.84375 2.3906 1.2891 0.96875 0.44922 2.0625 0.87891 3.2812 1.2891 1.2188 0.41406 2.4727 0.70703 3.7656 0.88672v-7.1523l-2.582-0.75391c-1.7578-0.53906-3.2812-1.1211-4.5703-1.7461-1.2891-0.625-2.3594-1.3516-3.1992-2.1758-0.84375-0.82422-1.4688-1.7734-1.8828-2.8516-0.41406-1.0742-0.61719-2.3281-0.61719-3.7656 0-1.8633 0.32422-3.5234 0.96875-4.9727 0.64453-1.4531 1.5117-2.6953 2.6094-3.7383 1.0938-1.0391 2.3828-1.8555 3.8711-2.4453 1.4883-0.59375 3.0898-0.97656 4.8125-1.1562l-0.003906-5.4336h3.7109v5.4336c2.3281 0.21484 4.5156 0.73438 6.5586 1.5586 2.043 0.82422 3.8164 1.6641 5.3242 2.5273zm-14.898-0.48438c0 0.89453 0.3125 1.6055 0.94141 2.125s1.5703 0.97656 2.8242 1.3711v-6.6133c-2.5078 0.21094-3.7656 1.2539-3.7656 3.1172zm10.434 17.098c0-0.93359-0.375-1.6562-1.1289-2.1758s-1.7578-0.99609-3.0117-1.4258v6.4531c2.7617-0.10938 4.1406-1.0586 4.1406-2.8516z"/>
  <path d="m385.24 625.11h-98.398c-2.1719 0-3.9375-1.7617-3.9375-3.9375v-29.184l-112.62-104.46c-0.80469-0.74609-1.2578-1.7891-1.2578-2.8867l-0.003906-163.45c0-15.906 12.941-28.848 28.848-28.848s28.848 12.941 28.848 28.848v101.17c0.085937-0.070313 0.17578-0.14453 0.26562-0.21484 9.9766-7.9766 24.309-7.8008 34.078 0.42969l126.64 101.7c0.92969 0.74609 1.4727 1.875 1.4727 3.0703v93.832c0.003906 2.1719-1.7578 3.9336-3.9336 3.9336zm-94.465-7.8711h90.527v-88.008l-125.24-100.58c-6.9805-5.875-17.109-6.0039-24.164-0.35938-2.2109 1.7656-3.9648 3.9766-5.1836 6.4531v0.070312c0 1.0664-0.42578 2.0352-1.1133 2.7422-0.48438 1.582-0.76172 3.2344-0.82031 4.9219-0.1875 5.5508 2.0547 10.883 6.1484 14.637l65.688 60.211c1.6016 1.4688 1.7109 3.957 0.24219 5.5625-1.4688 1.6016-3.9609 1.7109-5.5625 0.24219l-65.688-60.211c-5.7891-5.3086-8.957-12.852-8.6953-20.703 0.10547-3.1758 0.76953-6.2617 1.9297-9.1367v-111.89c0-11.566-9.4102-20.977-20.977-20.977-11.566 0-20.977 9.4102-20.977 20.977v161.73l112.62 104.47c0.80469 0.74609 1.2578 1.7891 1.2578 2.8867z"/>
  <path d="m341.81 594.21h-54.973c-2.1719 0-3.9375-1.7617-3.9375-3.9375 0-2.1719 1.7617-3.9375 3.9375-3.9375h54.973c2.1719 0 3.9375 1.7617 3.9375 3.9375 0 2.1758-1.7617 3.9375-3.9375 3.9375z"/>
  <path d="m513.16 625.11h-98.402c-2.1719 0-3.9375-1.7617-3.9375-3.9375v-93.832c0-1.1953 0.54297-2.3203 1.4727-3.0703l126.71-101.76c9.6992-8.1719 24.035-8.3477 34.012-0.37109 0.089844 0.070312 0.17578 0.14453 0.26562 0.21484v-101.16c0-15.906 12.941-28.848 28.848-28.848s28.848 12.941 28.848 28.848v163.45c0 1.0938-0.45703 2.1406-1.2578 2.8867l-112.62 104.47-0.003906 29.184c0 2.1719-1.7617 3.9336-3.9336 3.9336zm-94.465-7.8711h90.527v-26.965c0-1.0938 0.45703-2.1406 1.2578-2.8867l112.62-104.47 0.003906-161.73c0-11.566-9.4102-20.977-20.977-20.977-11.566 0-20.977 9.4102-20.977 20.977v111.89c1.1562 2.875 1.8203 5.9609 1.9258 9.1328 0.26562 7.8516-2.9023 15.395-8.6953 20.703l-65.688 60.211c-1.6016 1.4688-4.0938 1.3594-5.5625-0.24219-1.4688-1.6016-1.3594-4.0938 0.24219-5.5625l65.688-60.211c4.0938-3.7539 6.332-9.0859 6.1445-14.637-0.058594-1.6875-0.33594-3.3398-0.82031-4.9219-0.6875-0.71094-1.1133-1.6758-1.1133-2.7422v-0.070313c-1.2148-2.4766-2.9727-4.6875-5.1836-6.4531-7.0508-5.6406-17.184-5.5156-24.09 0.30469l-125.31 100.64z"/>
  <path d="m513.16 594.21h-54.973c-2.1719 0-3.9375-1.7617-3.9375-3.9375 0-2.1719 1.7617-3.9375 3.9375-3.9375h54.973c2.1719 0 3.9375 1.7617 3.9375 3.9375 0 2.1758-1.7656 3.9375-3.9375 3.9375z"/>
  <path d="m231.46 251.64c-21.16 0-38.375-17.215-38.375-38.375 0-21.16 17.215-38.375 38.375-38.375 21.16 0 38.375 17.215 38.375 38.375 0 21.16-17.215 38.375-38.375 38.375zm0-68.879c-16.82 0-30.504 13.684-30.504 30.504 0 16.82 13.684 30.504 30.504 30.504 16.82 0 30.504-13.684 30.504-30.504 0-16.82-13.688-30.504-30.504-30.504z"/>
  <path d="m518.54 350.64c-0.10547-0.14453-0.42188-0.375-0.94141-0.69922-0.51953-0.32422-1.1836-0.67187-1.9883-1.0469-0.80469-0.375-1.7031-0.73438-2.6875-1.0781-0.98438-0.33984-1.9805-0.58203-2.9844-0.72656v7.3125l1.7227 0.42969c1.8281 0.50391 3.4766 1.0469 4.9453 1.6406 1.4688 0.58984 2.7188 1.3281 3.7383 2.2031 1.0234 0.87891 1.8125 1.9453 2.3672 3.1992 0.55469 1.2539 0.83203 2.7617 0.83203 4.5156 0 2.043-0.35937 3.7812-1.0742 5.2148-0.71875 1.4336-1.6758 2.6094-2.8789 3.5234-1.2031 0.91406-2.582 1.6055-4.1406 2.0703-1.5586 0.46484-3.1992 0.73438-4.9219 0.80469v6.2383h-3.7109v-6.293c-2.4727-0.21484-4.9219-0.71484-7.3398-1.5039-2.418-0.78906-4.5977-1.8281-6.5312-3.1172l3.8711-7.6875c0.14453 0.17969 0.53125 0.47656 1.1562 0.88672 0.62891 0.41406 1.4258 0.84375 2.3945 1.2891 0.96484 0.44922 2.0625 0.87891 3.2812 1.2891 1.2188 0.41406 2.4766 0.70703 3.7656 0.88672v-7.1523l-2.582-0.75391c-1.7578-0.53906-3.2812-1.1211-4.5703-1.7461-1.2891-0.625-2.3594-1.3516-3.1992-2.1758s-1.4688-1.7734-1.8828-2.8516c-0.41406-1.0742-0.61719-2.332-0.61719-3.7656 0-1.8633 0.32422-3.5234 0.96875-4.9766 0.64453-1.4531 1.5156-2.6953 2.6055-3.7383 1.0938-1.0391 2.3828-1.8555 3.8711-2.4453 1.4883-0.58984 3.0898-0.97656 4.8125-1.1562v-5.4336h3.7109v5.4336c2.3281 0.21484 4.5156 0.73438 6.5586 1.5586 2.043 0.82422 3.8164 1.668 5.3242 2.5273zm-14.895-0.48047c0 0.89453 0.3125 1.6055 0.94141 2.125 0.625 0.51953 1.5664 0.97656 2.8242 1.3711v-6.6133c-2.5117 0.21094-3.7656 1.25-3.7656 3.1172zm10.434 17.098c0-0.93359-0.375-1.6562-1.1289-2.1797-0.75391-0.51953-1.7578-0.99609-3.0156-1.4258v6.4531c2.7617-0.10547 4.1445-1.0547 4.1445-2.8477z"/>
  <path d="m508.24 397.41c-21.16 0-38.375-17.215-38.375-38.375s17.215-38.375 38.375-38.375c21.16 0 38.375 17.215 38.375 38.375s-17.215 38.375-38.375 38.375zm0-68.879c-16.82 0-30.504 13.684-30.504 30.504 0 16.82 13.684 30.504 30.504 30.504 16.82 0 30.504-13.684 30.504-30.504 0-16.82-13.684-30.504-30.504-30.504z"/>
  <path d="m459.82 311.26c-16.797 0-32.75-7.3789-43.777-20.238-9.6836-11.621-14.305-26.379-13.043-41.594 1.2695-15.293 8.3242-29.008 19.863-38.625 22.281-18.461 46.227-20.828 64.602-20.828 6.8828 0 13.473 0.36719 19.844 0.72266 5.6641 0.31641 11.016 0.61328 15.977 0.61328 3.4766 0 6.4531-0.14844 9.0977-0.45312 1.793-0.20312 3.4961 0.83203 4.1328 2.5195s0.046875 3.5938-1.4336 4.6211c-10.078 7.0117-12.41 23.344-14.879 40.637-2.9805 20.871-6.3555 44.527-24.023 59.199-10.078 8.6445-23.012 13.426-36.359 13.426zm27.645-113.41c-17.055 0-39.234 2.1602-59.57 19.008-9.8984 8.25-15.957 20.051-17.051 33.223-1.0898 13.145 2.8906 25.879 11.211 35.859 9.4922 11.074 23.27 17.449 37.766 17.449 11.473 0 22.582-4.1055 31.285-11.566 15.383-12.773 18.395-33.883 21.309-54.297 2.082-14.598 4.0781-28.574 10.707-38.34-5.1328-0.007813-10.531-0.30859-16.246-0.625-6.2695-0.34766-12.746-0.71094-19.41-0.71094z"/>
  <path d="m403.58 417.09c-1.8281 0-3.4648-1.2812-3.8516-3.1406-8.6836-42.035 1.1875-87.215 28.535-130.65 20.555-32.645 43.344-52.559 44.305-53.391 1.6406-1.4219 4.125-1.2461 5.5508 0.39844 1.4258 1.6406 1.2461 4.125-0.39453 5.5508-0.22656 0.19922-22.988 20.113-42.918 51.828-18.238 29.023-37.789 74.215-27.367 124.68 0.44141 2.1289-0.92969 4.2109-3.0586 4.6523-0.26953 0.054687-0.53516 0.078125-0.80078 0.078125z"/>
  <path d="m324.89 337.38c-6.9453 0-13.797-1.8828-19.832-5.4453-8.4805-4.5469-15.113-12.477-18.215-21.77-2.1836-6.918-2.4141-12.664-2.5977-17.277-0.38281-9.5625-0.57422-14.359-16.484-21.676-1.6406-0.75391-2.5586-2.5312-2.2227-4.3086 0.33594-1.7773 1.8398-3.0938 3.6445-3.1992 4.8555-0.27734 10.586-1.6367 16.648-3.0742 8.6602-2.0547 18.473-4.3828 28.875-4.3828 10.648 0 20.18 2.4258 29.129 7.418 9.2266 5.0312 15.883 13.348 18.715 23.398 2.8984 10.293 1.4844 21.199-3.9883 30.699-6.7891 12.09-19.703 19.617-33.672 19.617zm-43.672-67.605c10.277 7.332 10.57 14.621 10.898 22.797 0.17578 4.3633 0.37109 9.3086 2.2188 15.164 2.4219 7.2578 7.8516 13.746 14.508 17.297 0.054687 0.027344 0.10547 0.058594 0.15625 0.089844 4.8359 2.8711 10.328 4.3867 15.891 4.3867 11.129 0 21.414-5.9922 26.84-15.637 4.4258-7.6875 5.5742-16.438 3.2539-24.672-2.25-7.9922-7.5586-14.613-14.941-18.641-7.7812-4.3398-16.055-6.4414-25.328-6.4414-9.4844 0-18.82 2.2148-27.059 4.168-2.1914 0.52344-4.3359 1.0312-6.4375 1.4883z"/>
  <path d="m403.58 417.09c-2.0664 0-3.8008-1.6094-3.9258-3.6992-3.7305-62.246-64.465-102.84-65.078-103.24-1.8164-1.1914-2.3203-3.6328-1.1289-5.4492 1.1914-1.8164 3.6328-2.3242 5.4492-1.1328 0.66016 0.43359 16.371 10.82 32.762 29.449 21.812 24.797 34.215 52.426 35.859 79.898 0.12891 2.168-1.5234 4.0352-3.6953 4.1641-0.082031 0.003907-0.16406 0.007813-0.24219 0.007813z"/>
  <path d="m446.67 267.91c-2.1719 0-3.9375-1.7617-3.9375-3.9375v-36.93c0-2.1719 1.7617-3.9375 3.9375-3.9375 2.1719 0 3.9375 1.7617 3.9375 3.9375v36.93c0 2.1758-1.7617 3.9375-3.9375 3.9375z"/>
  <path d="m483.6 255.6h-24.621c-2.1719 0-3.9375-1.7617-3.9375-3.9375 0-2.1719 1.7617-3.9375 3.9375-3.9375h24.621c2.1719 0 3.9375 1.7617 3.9375 3.9375 0 2.1758-1.7617 3.9375-3.9375 3.9375z"/>
  <path d="m449.2 446.61h-98.402c-10.309 0-18.695-8.3867-18.695-18.695 0-10.309 8.3867-18.695 18.695-18.695h98.398c10.309 0 18.695 8.3867 18.695 18.695 0.003906 10.309-8.3828 18.695-18.691 18.695zm-98.402-29.52c-5.9688 0-10.824 4.8555-10.824 10.824s4.8555 10.824 10.824 10.824h98.398c5.9688 0 10.824-4.8555 10.824-10.824s-4.8555-10.824-10.824-10.824z"/>
 </g>
</svg>