<?xml version="1.0" encoding="UTF-8"?>
<!-- The Best Svg Icon site in the world: iconSvg.co, Visit us! https://iconsvg.co -->
<svg width="800px" height="800px" version="1.1" viewBox="144 144 512 512" xmlns="http://www.w3.org/2000/svg">
 <defs>
  <clipPath id="b">
   <path d="m148.09 214h503.81v437.9h-503.81z"/>
  </clipPath>
  <clipPath id="a">
   <path d="m263 148.09h274v388.91h-274z"/>
  </clipPath>
 </defs>
 <g clip-path="url(#b)">
  <path d="m630.91 337.02h-41.785c-2.9766-8.9922-6.5938-17.762-10.82-26.242l29.504-29.492c3.9414-3.9375 6.1523-9.2773 6.1523-14.848 0-5.5703-2.2109-10.91-6.1523-14.848l-37.418-37.449-14.84 14.844 37.418 37.418-34.965 34.93c-3.3047 3.3086-4.0273 8.4062-1.7617 12.5 6.3594 11.59 11.41 23.852 15.051 36.559 1.2969 4.4961 5.4102 7.5898 10.086 7.5898h49.531v83.969l-49.531-0.003906c-4.6758 0-8.7891 3.0977-10.086 7.5898-3.6406 12.711-8.6875 24.973-15.051 36.559-2.2578 4.0898-1.5391 9.1836 1.7617 12.488l34.961 34.973-59.375 59.375-34.93-34.93c-3.3047-3.3008-8.3984-4.0195-12.488-1.7617-11.59 6.3555-23.852 11.406-36.559 15.051-4.4961 1.2969-7.5898 5.4102-7.5898 10.086v49.531h-84.008v-49.531c0-4.6758-3.0938-8.7891-7.5898-10.086-12.707-3.6445-24.969-8.6953-36.559-15.051-4.0898-2.2578-9.1836-1.5391-12.488 1.7617l-34.984 34.961-59.367-59.371 34.965-34.934c3.3008-3.3047 4.0195-8.3984 1.7617-12.488-6.3672-11.602-11.414-23.879-15.051-36.602-1.2969-4.4922-5.4102-7.5898-10.086-7.5859h-49.531v-83.969h49.531c4.6758 0 8.7891-3.0938 10.086-7.5898 3.6445-12.707 8.6914-24.969 15.051-36.559 2.2812-4.1016 1.5625-9.2188-1.7617-12.531l-34.965-34.93 37.422-37.418-14.844-14.844-37.43 37.418c-3.9336 3.9375-6.1445 9.2773-6.1445 14.844s2.2109 10.902 6.1445 14.84l29.516 29.535c-4.2266 8.4805-7.8438 17.25-10.82 26.242h-41.785c-5.5664 0-10.906 2.2109-14.844 6.1484s-6.1484 9.2734-6.1484 14.844v83.969c0 5.5664 2.2109 10.906 6.1484 14.844 3.9375 3.9336 9.2773 6.1484 14.844 6.1484h41.785c2.9766 8.9922 6.5938 17.762 10.82 26.238l-29.516 29.523c-3.9375 3.9375-6.1484 9.2812-6.1484 14.848 0 5.5703 2.2109 10.91 6.1484 14.848l59.379 59.387c3.9375 3.9414 9.2773 6.1562 14.852 6.1562 5.5703 0 10.914-2.2148 14.852-6.1562l29.492-29.504c8.4766 4.2266 17.246 7.8398 26.242 10.809v41.785c0 5.5703 2.2109 10.906 6.1484 14.844 3.9336 3.9375 9.2734 6.1484 14.844 6.1484h83.969-0.003906c5.5703 0 10.91-2.2109 14.844-6.1484 3.9375-3.9375 6.1484-9.2734 6.1484-14.844v-41.793c8.9961-2.9727 17.766-6.5859 26.242-10.812l29.492 29.504c3.9375 3.9414 9.2812 6.1562 14.852 6.1562 5.5742 0 10.918-2.2148 14.855-6.1562l59.438-59.375c3.9336-3.9375 6.1445-9.2734 6.1445-14.84s-2.2109-10.906-6.1445-14.844l-29.516-29.535c4.2266-8.4766 7.8438-17.246 10.82-26.238h41.785c5.5703 0 10.906-2.2148 14.844-6.1484 3.9375-3.9375 6.1484-9.2773 6.1484-14.844v-83.969c0-5.5703-2.2109-10.906-6.1484-14.844s-9.2734-6.1484-14.844-6.1484z"/>
 </g>
 <path d="m389.5 578.43h20.992v20.992h-20.992z"/>
 <path d="m578.43 389.5h20.992v20.992h-20.992z"/>
 <path d="m200.57 389.5h20.992v20.992h-20.992z"/>
 <g clip-path="url(#a)">
  <path d="m389.5 264.09c-47.359 3.6523-89.41 31.672-111.02 73.973-21.605 42.301-19.66 92.793 5.1367 133.3s68.879 65.215 116.38 65.215c47.496 0 91.578-24.703 116.38-65.215 24.801-40.512 26.742-91.004 5.1367-133.3-21.609-42.301-63.66-70.32-111.02-73.973v-53.016h73.473l-0.003906-20.992h-73.469v-10.496c0-5.7969 4.6992-10.496 10.496-10.496h83.969-0.003907c2.7852 0 5.457 1.1055 7.4219 3.0742 1.9688 1.9688 3.0742 4.6367 3.0742 7.4219v52.48h-83.965v20.992h94.465-0.003906c2.7852 0 5.457-1.1055 7.4219-3.0742 1.9688-1.9688 3.0742-4.6406 3.0742-7.4219v-62.977c0-8.3516-3.3164-16.359-9.2227-22.266-5.9023-5.9062-13.914-9.2227-22.266-9.2227h-83.965c-7.7734 0.027344-15.254 2.9453-20.992 8.1875-5.7383-5.2422-13.223-8.1602-20.992-8.1875h-83.969c-8.3516 0-16.359 3.3164-22.266 9.2227s-9.2227 13.914-9.2227 22.266v62.977c0 2.7812 1.1055 5.4531 3.0742 7.4219s4.6367 3.0742 7.4219 3.0742h94.465v-20.992h-83.969v-52.48c0-5.7969 4.6992-10.496 10.496-10.496h83.969c2.7812 0 5.4531 1.1055 7.4219 3.0742s3.0742 4.6367 3.0742 7.4219v10.496h-73.473v20.992h73.473zm125.95 135.91c0 30.621-12.164 59.984-33.816 81.637-21.652 21.652-51.016 33.816-81.637 33.816s-59.988-12.164-81.641-33.816c-21.652-21.652-33.816-51.016-33.816-81.637s12.164-59.988 33.816-81.641 51.02-33.816 81.641-33.816c30.609 0.035156 59.953 12.211 81.598 33.855 21.645 21.645 33.82 50.988 33.855 81.602z"/>
 </g>
 <path d="m389.5 326.53v20.992h-10.496c-5.5703 0-10.91 2.2109-14.844 6.1484-3.9375 3.9375-6.1484 9.2734-6.1484 14.844v20.992c0 5.5664 2.2109 10.906 6.1484 14.844 3.9336 3.9336 9.2734 6.1484 14.844 6.1484h41.984v20.992h-41.984v-10.496h-20.992v10.496c0 5.5664 2.2109 10.906 6.1484 14.844 3.9336 3.9336 9.2734 6.1484 14.844 6.1484h10.496v20.992h20.992v-20.992h10.496c5.5664 0 10.906-2.2148 14.844-6.1484 3.9336-3.9375 6.1484-9.2773 6.1484-14.844v-20.992c0-5.5703-2.2148-10.91-6.1484-14.844-3.9375-3.9375-9.2773-6.1484-14.844-6.1484h-41.984v-20.992h41.984v10.496h20.992v-10.496c0-5.5703-2.2148-10.906-6.1484-14.844-3.9375-3.9375-9.2773-6.1484-14.844-6.1484h-10.496v-20.992z"/>
 <path d="m316.03 389.5h20.992v20.992h-20.992z"/>
 <path d="m462.98 389.5h20.992v20.992h-20.992z"/>
</svg>