<?xml version="1.0" encoding="UTF-8"?>
<!-- The Best Svg Icon site in the world: iconSvg.co, Visit us! https://iconsvg.co -->
<svg fill="#000000" width="800px" height="800px" version="1.1" viewBox="144 144 512 512" xmlns="http://www.w3.org/2000/svg">
 <g>
  <path d="m604.34 626.03-23.617-78.719c-0.99609-3.332-4.0625-5.6133-7.5391-5.6133h-33.504l-21.93-73.109c-1-3.3281-4.0664-5.6133-7.543-5.6094h-41.375l-21.93-73.109h-0.003906c-0.99609-3.332-4.0625-5.6133-7.5391-5.6133h-78.723c-3.4766 0-6.543 2.2812-7.5391 5.6133l-21.934 73.109h-41.375c-3.4766-0.003906-6.543 2.2812-7.5391 5.6094l-21.934 73.109h-33.504c-3.4766 0-6.543 2.2812-7.5391 5.6133l-23.617 78.719c-0.71484 2.3828-0.25781 4.9648 1.2266 6.9609 1.4844 1.9961 3.8281 3.1719 6.3164 3.1719h125.95c1.3945-0.03125 2.7539-0.4375 3.9375-1.1758 1.1836 0.73828 2.543 1.1445 3.9375 1.1758h125.95c1.3906-0.03125 2.75-0.4375 3.9336-1.1758 1.1836 0.73828 2.543 1.1445 3.9375 1.1758h125.95c2.4844 0 4.8281-1.1758 6.3125-3.1719 1.4883-1.9961 1.9414-4.5781 1.2266-6.9609zm-81.098-84.332h-104.79l18.895-62.977h67.008zm-125.26 0-18.895-62.977h41.816l-18.895 62.977zm-31.488-141.7h67.008l18.895 62.977h-104.8zm-70.848 78.719h67.008l18.895 62.977h-104.8zm-81.871 141.7 18.895-62.977h67.008l18.895 62.977zm119.31-6.4062-16.973-56.57h33.945zm14.516 6.4062 18.895-62.977h67.008l18.895 62.977zm119.31-6.4062-16.973-56.57h33.945zm14.516 6.4062 18.895-62.977h67.008l18.895 62.977z"/>
  <path d="m226.81 344.89h7.8711v62.977h15.742l0.003907-70.848c0.011718-4.1211-3.1523-7.5508-7.2578-7.875l15.129-18.891 15.133 18.891c-4.1094 0.32422-7.2734 3.7539-7.2578 7.875v70.848h15.742v-62.977h7.8711c3.0273 0 5.7891-1.7344 7.0977-4.4609 1.3125-2.7305 0.94531-5.9688-0.94922-8.332l-31.488-39.359c-1.5469-1.7773-3.7891-2.7969-6.1484-2.7969-2.3555 0-4.5977 1.0195-6.1484 2.7969l-31.488 39.359c-1.8906 2.3633-2.2578 5.6016-0.94922 8.332 1.3125 2.7266 4.0703 4.4609 7.0977 4.4609z"/>
  <path d="m234.69 423.61h15.742v15.742h-15.742z"/>
  <path d="m266.18 423.61h15.742v31.488h-15.742z"/>
  <path d="m368.51 218.94h7.8711v70.848h15.742v-78.719c0.015625-4.1172-3.1484-7.5508-7.2578-7.8711l15.133-18.895 15.129 18.895c-4.1055 0.32031-7.2695 3.7539-7.2578 7.8711v70.848h15.742v-62.977h7.875c3.0273 0 5.7852-1.7344 7.0977-4.4609 1.3086-2.7305 0.94141-5.9688-0.95313-8.332l-31.488-39.359h0.003907c-1.5508-1.7773-3.793-2.7969-6.1484-2.7969-2.3594 0-4.6016 1.0195-6.1484 2.7969l-31.488 39.359c-1.8945 2.3633-2.2617 5.6016-0.94922 8.332 1.3086 2.7266 4.0703 4.4609 7.0977 4.4609z"/>
  <path d="m407.87 297.66h15.742v15.742h-15.742z"/>
  <path d="m407.87 329.15h15.742v15.742h-15.742z"/>
  <path d="m376.38 305.54h15.742v31.488h-15.742z"/>
  <path d="m510.21 297.66h7.8711v62.977h15.742l0.003907-70.852c0.011719-4.1172-3.1523-7.5508-7.2578-7.8711l15.129-18.895 15.129 18.895c-4.1055 0.32031-7.2695 3.7539-7.2578 7.8711v70.848h15.742l0.003906-62.973h7.8711c3.0273 0 5.7852-1.7344 7.0977-4.4648 1.3125-2.7266 0.94141-5.9648-0.94922-8.3281l-31.488-39.359c-1.5508-1.7773-3.793-2.7969-6.1484-2.7969-2.3594 0-4.6016 1.0195-6.1484 2.7969l-31.488 39.359c-1.8906 2.3633-2.2617 5.6016-0.94922 8.3281 1.3125 2.7305 4.0703 4.4648 7.0977 4.4648z"/>
  <path d="m518.08 376.38h15.742v15.742h-15.742z"/>
  <path d="m518.08 407.87h15.742v15.742h-15.742z"/>
  <path d="m549.57 423.61h15.742v15.742h-15.742z"/>
  <path d="m549.57 376.38h15.742v31.488h-15.742z"/>
  <path d="m376.38 352.77h15.742v15.742h-15.742z"/>
 </g>
</svg>