<?xml version="1.0" encoding="UTF-8"?>
<!-- The Best Svg Icon site in the world: iconSvg.co, Visit us! https://iconsvg.co -->
<svg fill="#000000" width="800px" height="800px" version="1.1" viewBox="144 144 512 512" xmlns="http://www.w3.org/2000/svg">
 <g>
  <path d="m294.7 274.57c-0.84375-0.875-1.3203-2.0391-1.3281-3.2539v-80.562c0.007812-1.2148 0.48438-2.3789 1.3281-3.2539 0.86719-0.85156 2.0352-1.332 3.25-1.3281 22.531 0.10547 44.102 9.1133 60.012 25.066 15.91 15.953 24.863 37.551 24.902 60.078 0 1.2148-0.48047 2.3789-1.3398 3.2383s-2.0234 1.3438-3.2383 1.3438h-80.336c-1.2188 0.011718-2.3906-0.46875-3.25-1.3281z"/>
  <path d="m189.32 294.5c-0.10547-22.551 8.8164-44.207 24.777-60.137 16.082-16.172 37.969-25.227 60.777-25.145 1.2148 0 2.3789 0.48438 3.2383 1.3398 0.85938 0.85937 1.3398 2.0273 1.3398 3.2422l0.046875 76.031 75.754-0.003906c2.5195 0.023437 4.5586 2.0586 4.582 4.582 0.050781 22.535-8.8477 44.176-24.746 60.148-15.898 15.977-37.492 24.984-60.031 25.039-0.24609 0.007812-0.49219-0.007812-0.73438-0.046875-22.52-0.10938-44.082-9.1094-60-25.035-15.918-15.93-24.906-37.496-25.004-60.016z"/>
  <path d="m619.84 609.24c0 1.2148-0.48438 2.3828-1.3438 3.2383-0.85938 0.85938-2.0234 1.3438-3.2383 1.3438h-430.53c-2.5312 0-4.5781-2.0508-4.5781-4.582 0-2.5273 2.0469-4.5781 4.5781-4.5781h7.0078v-143.45c0.003906-2.957 1.1875-5.793 3.2812-7.8789 2.0977-2.0859 4.9375-3.2578 7.8945-3.25h59.77c6.1523 0.003907 11.148 4.9766 11.176 11.129v143.45h29.312v-193.42c0.007813-6.168 5.0078-11.168 11.176-11.176h59.77c2.9648-0.003906 5.8086 1.1719 7.9062 3.2695 2.0977 2.0977 3.2734 4.9414 3.2695 7.9062v193.42h29.359v-243.43c0.007812-6.1406 4.9844-11.121 11.129-11.129h59.816c6.1406 0.007813 11.121 4.9883 11.129 11.129v243.43h29.359v-293.4c-0.003906-2.9648 1.1719-5.8086 3.2695-7.9062 2.0938-2.0938 4.9375-3.2695 7.9062-3.2695h59.77c6.168 0.007813 11.168 5.0078 11.176 11.176v293.4l7.0508 0.003906c1.2148 0 2.3789 0.48047 3.2383 1.3398s1.3438 2.0234 1.3438 3.2383z"/>
 </g>
</svg>