<?xml version="1.0" encoding="UTF-8"?>
<!-- The Best Svg Icon site in the world: iconSvg.co, Visit us! https://iconsvg.co -->
<svg fill="#000000" width="800px" height="800px" version="1.1" viewBox="144 144 512 512" xmlns="http://www.w3.org/2000/svg">
 <g>
  <path d="m527.8 369.72c-42.859 0-77.734 34.867-77.734 77.734 0 42.863 34.867 77.734 77.734 77.734 42.863 0 77.734-34.867 77.734-77.734 0-42.863-34.875-77.734-77.734-77.734zm0 145.61c-37.43 0-67.875-30.445-67.875-67.875 0-37.43 30.445-67.875 67.875-67.875 37.43 0.003906 67.875 30.449 67.875 67.879 0 37.426-30.445 67.871-67.875 67.871z"/>
  <path d="m532.73 348.79v-8.0195c0-61.641-50.152-111.79-111.8-111.79-61.641 0-111.79 50.152-111.79 111.79v45.812c-5.8828-16.781-15.262-34.984-30.266-49.988-38.48-38.48-98.051-40.074-100.57-40.125-1.3672-0.015625-2.6367 0.49219-3.582 1.4453-0.94531 0.94922-1.4688 2.2422-1.4414 3.582 0.050782 2.5195 1.6406 62.09 40.125 100.57 32.641 32.637 80.438 38.738 95.734 39.867v85.805c-2.4805-0.070313-4.9883-0.17969-7.5977-0.35938-9.3203-0.64844-18.969-1.3164-28.617 0.95703-8.6992 2.0547-16.645 6.5352-24.328 10.867-4.1406 2.332-8.4219 4.75-12.75 6.7422-4.082 1.8789-8.4805 3.4102-13.133 5.0391-8.1719 2.8555-16.629 5.8086-24.414 11.004-1.8086 1.2109-2.6133 3.4492-1.9844 5.5312 0.62891 2.082 2.543 3.5 4.7148 3.5h226.09c2.1719 0 4.0859-1.4219 4.7148-3.5 0.62891-2.082-0.17188-4.3281-1.9844-5.5312-7.8008-5.1992-16.258-8.1523-24.441-11.012-4.6484-1.6211-9.0391-3.1602-13.113-5.0273-4.3281-1.9961-8.6055-4.4102-12.746-6.7422-7.6836-4.332-15.629-8.8125-24.324-10.867-9.6445-2.2734-19.297-1.6055-28.613-0.95703-2.6133 0.17969-5.125 0.28906-7.6094 0.35938v-85.809c15.301-1.1289 63.098-7.2305 95.734-39.867 38.48-38.48 40.074-98.051 40.125-100.57 0.023437-1.3438-0.49219-2.6367-1.4453-3.582-0.94531-0.94531-2.1562-1.4375-3.582-1.4453-2.5195 0.050782-62.09 1.6406-100.57 40.125-15.004 15-24.379 33.199-30.266 49.988v-45.812c0-56.203 45.73-101.94 101.94-101.94 56.211 0 101.94 45.73 101.94 101.94v8.0195c-52.246 2.5938-93.984 45.785-93.984 98.656 0 54.539 44.371 98.906 98.914 98.906 54.531 0.003906 98.898-44.371 98.898-98.902 0-52.875-41.738-96.066-93.98-98.66zm-312.36 46.305c-29.227-29.227-35.547-73.238-36.883-88.426 15.176 1.3203 59.137 7.6094 88.418 36.895 29.223 29.223 35.547 73.23 36.891 88.418-15.191-1.3359-59.199-7.668-88.426-36.887zm106.91 142.11c8.9883-0.62109 17.477-1.2148 25.676 0.71875 7.3359 1.7266 14.332 5.6797 21.746 9.8594 4.3125 2.4336 8.7695 4.9492 13.469 7.1094 4.5039 2.0742 9.3203 3.7539 13.984 5.3789 0.83203 0.29297 1.668 0.58984 2.5078 0.88281l-181.19 0.003906c0.82812-0.29297 1.6562-0.58594 2.4844-0.87109 4.6641-1.6289 9.4922-3.3164 14-5.3906 4.6953-2.1602 9.1602-4.6797 13.473-7.1094 7.4102-4.1797 14.41-8.1328 21.75-9.8594 8.1875-1.9297 16.68-1.3438 25.68-0.71875 8.6406 0.59766 17.777 0.59766 26.422-0.003906zm28.945-193.64c29.23-29.227 73.238-35.547 88.422-36.891-1.3203 15.176-7.6094 59.137-36.895 88.418-29.227 29.227-73.238 35.547-88.422 36.891 1.3203-15.172 7.6094-59.137 36.895-88.418zm171.57 192.93c-49.105 0-89.055-39.945-89.055-89.055 0-49.105 39.945-89.055 89.055-89.055 49.102 0 89.055 39.945 89.055 89.055 0 49.109-39.953 89.055-89.055 89.055z"/>
  <path d="m527.8 416.64h17.863c2.7266 0 4.9258-2.207 4.9258-4.9258 0-2.7266-2.207-4.9258-4.9258-4.9258h-12.938v-6.6484c0-2.7266-2.207-4.9258-4.9258-4.9258s-4.9258 2.207-4.9258 4.9258v7.2188c-10.203 2.2617-17.871 11.355-17.871 22.227 0 12.57 10.227 22.797 22.797 22.797 7.1328 0 12.938 5.8047 12.938 12.941 0 7.1328-5.8047 12.938-12.938 12.938h-17.871c-2.7266 0-4.9258 2.207-4.9258 4.9258 0 2.7266 2.207 4.9258 4.9258 4.9258h12.941v6.6562c0 2.7266 2.207 4.9258 4.9258 4.9258s4.9258-2.207 4.9258-4.9258v-7.2266c10.203-2.2617 17.863-11.355 17.863-22.223 0-12.57-10.227-22.797-22.793-22.797-7.1406 0-12.941-5.8047-12.941-12.941 0.007812-7.1406 5.8086-12.941 12.949-12.941z"/>
 </g>
</svg>