<?xml version="1.0" encoding="UTF-8"?>
<!-- The Best Svg Icon site in the world: iconSvg.co, Visit us! https://iconsvg.co -->
<svg width="800px" height="800px" version="1.1" viewBox="144 144 512 512" xmlns="http://www.w3.org/2000/svg">
 <defs>
  <clipPath id="a">
   <path d="m148.09 148.09h503.81v503.81h-503.81z"/>
  </clipPath>
 </defs>
 <g clip-path="url(#a)">
  <path d="m376.38 258.3h141.7c6.2656 0 12.27 2.4883 16.699 6.918 4.4297 4.4297 6.918 10.438 6.918 16.699v122.7l-8.832-8.832v-0.003906c-3.0898-2.9805-8-2.9375-11.035 0.097656-3.0391 3.0352-3.0781 7.9453-0.097656 11.035l22.246 22.246c1.4766 1.4805 3.4844 2.3125 5.5742 2.3125 2.0898 0 4.0977-0.83203 5.5742-2.3125l22.246-22.246c2.9844-3.0898 2.9414-8-0.097656-11.035-3.0352-3.0352-7.9453-3.0781-11.035-0.097656l-8.8008 8.8359v-122.7c0-10.438-4.1445-20.449-11.527-27.832-7.3828-7.3828-17.391-11.527-27.832-11.527h-141.7c-4.3477 0-7.8711 3.5234-7.8711 7.8711 0 4.3477 3.5234 7.8711 7.8711 7.8711zm-118.08 55.105v-7.8711c11.25 0 21.645-6.0039 27.27-15.746 5.625-9.7422 5.625-21.746 0-31.488-5.625-9.7422-16.02-15.742-27.27-15.742h-15.742c-5.625 0-10.824-3-13.637-7.8711s-2.8125-10.875 0-15.746 8.0117-7.8711 13.637-7.8711h15.742c4.1758 0 8.1797 1.6602 11.133 4.6094 2.9531 2.9531 4.6133 6.957 4.6133 11.133 0 4.3477 3.5234 7.875 7.8711 7.875 4.3477 0 7.8711-3.5273 7.8711-7.875 0-8.3516-3.3164-16.359-9.2227-22.266-5.9023-5.9023-13.914-9.2227-22.266-9.2227v-7.8711c0-4.3477-3.5234-7.8711-7.8711-7.8711-4.3477 0-7.8711 3.5234-7.8711 7.8711v7.8711c-11.25 0-21.645 6.0039-27.27 15.746-5.625 9.7422-5.625 21.746 0 31.488 5.625 9.7422 16.02 15.742 27.27 15.742h15.742c5.625 0 10.824 3.0039 13.637 7.875 2.8125 4.8711 2.8125 10.871 0 15.742-2.8125 4.8711-8.0117 7.8711-13.637 7.8711h-15.742c-4.1758 0-8.1797-1.6562-11.133-4.6094-2.9531-2.9531-4.6133-6.957-4.6133-11.133 0-4.3477-3.5234-7.8711-7.8711-7.8711s-7.8711 3.5234-7.8711 7.8711c0 8.3516 3.3164 16.359 9.2227 22.266 5.9062 5.9023 13.914 9.2227 22.266 9.2227v7.8711c0 4.3477 3.5234 7.8711 7.8711 7.8711 4.3477 0 7.8711-3.5234 7.8711-7.8711zm165.31 228.29h-141.7c-6.2617 0-12.27-2.4883-16.699-6.918-4.4297-4.4297-6.918-10.434-6.918-16.699v-122.69l8.832 8.832c3.0898 2.9844 8 2.9414 11.035-0.097656 3.0391-3.0352 3.082-7.9453 0.097656-11.035l-22.262-22.262c-1.4766-1.4805-3.4844-2.3125-5.5742-2.3125-2.0898 0-4.0977 0.83203-5.5742 2.3125l-22.262 22.262c-2.9844 3.0898-2.9414 8 0.097656 11.035 3.0352 3.0391 7.9453 3.082 11.035 0.097656l8.832-8.832v122.69c0 10.441 4.1445 20.449 11.527 27.832 7.3828 7.3828 17.395 11.527 27.832 11.527h141.7c4.3477 0 7.875-3.5234 7.875-7.8711s-3.5273-7.8711-7.875-7.8711zm125.95-94.465c-27.141 0-53.172 10.781-72.363 29.973s-29.973 45.223-29.973 72.363 10.781 53.172 29.973 72.363c19.191 19.191 45.223 29.973 72.363 29.973s53.172-10.781 72.363-29.973c19.191-19.191 29.973-45.223 29.973-72.363-0.03125-27.129-10.824-53.141-30.008-72.324-19.188-19.188-45.195-29.977-72.328-30.012zm0 188.93c-22.965 0-44.988-9.125-61.23-25.363-16.238-16.238-25.359-38.266-25.359-61.23s9.1211-44.988 25.359-61.23c16.242-16.238 38.266-25.359 61.23-25.359s44.992 9.1211 61.23 25.359c16.238 16.242 25.363 38.266 25.363 61.23-0.03125 22.957-9.1641 44.965-25.395 61.199-16.234 16.23-38.242 25.363-61.199 25.395zm-196.8-385.73c0-27.141-10.781-53.172-29.973-72.363-19.191-19.191-45.223-29.973-72.363-29.973-27.141 0-53.172 10.781-72.363 29.973s-29.973 45.223-29.973 72.363c0 27.141 10.781 53.172 29.973 72.363 19.191 19.191 45.223 29.973 72.363 29.973 27.133-0.03125 53.141-10.824 72.328-30.008 19.184-19.188 29.977-45.195 30.008-72.328zm-188.93 0c0-22.965 9.125-44.992 25.363-61.23s38.266-25.363 61.23-25.363c22.965 0 44.992 9.125 61.23 25.363 16.238 16.238 25.363 38.266 25.363 61.23 0 22.965-9.125 44.992-25.363 61.23-16.238 16.238-38.266 25.363-61.23 25.363-22.957-0.03125-44.965-9.1641-61.199-25.395-16.23-16.234-25.363-38.242-25.395-61.199zm412.5 343.74h-35.785c2.75-8.3398 4.5352-16.973 5.3203-25.723 0.30469-3.668 0.42578-7.3438 0.36328-11.023h14.355c4.3477 0 7.875-3.5234 7.875-7.8711 0-4.3477-3.5273-7.8711-7.875-7.8711h-15.43c-0.21875-1.875-0.45703-3.7305-0.67578-5.4492-1.5742-12.121-2.1719-18.199 2.0938-23.977 2.6914-4.0273 6.9922-6.6953 11.793-7.3203h0.14062c4.6484 0.64453 8.793 3.2461 11.402 7.1484 1.1602 1.793 3.0039 3.0391 5.1016 3.4492 2.1016 0.40625 4.2773-0.054688 6.0273-1.2852 1.75-1.2266 2.9258-3.1172 3.2539-5.2305 0.33203-2.1133-0.21094-4.2695-1.5078-5.9727-5.4336-8.0859-14.305-13.203-24.023-13.855-9.9141 0.60547-19.031 5.6367-24.828 13.699-6.5352 10.582-8.3633 23.406-5.0547 35.391 0.14062 1.0547 0.23438 2.2969 0.36328 3.3867h-15.887c-4.3477 0-7.8711 3.5234-7.8711 7.8711s3.5234 7.8711 7.8711 7.8711h16.895c0.17578 3.2109 0.17578 6.4258 0 9.6367-1.0078 10.988-3.8047 21.734-8.2812 31.82-1.0625 2.4297-0.82812 5.2344 0.625 7.457 1.4531 2.2227 3.9297 3.5625 6.5859 3.5625h47.23c4.3477 0 7.8711-3.5234 7.8711-7.8711 0-4.3477-3.5234-7.875-7.8711-7.875z"/>
 </g>
</svg>