<?xml version="1.0" encoding="UTF-8"?>
<!-- The Best Svg Icon site in the world: iconSvg.co, Visit us! https://iconsvg.co -->
<svg fill="#000000" width="800px" height="800px" version="1.1" viewBox="144 144 512 512" xmlns="http://www.w3.org/2000/svg">
 <g>
  <path d="m400 163.84c-60.523-0.015626-118.74 23.211-162.63 64.883-43.891 41.668-70.102 98.602-73.223 159.04-3.1211 60.441 17.09 119.77 56.453 165.74l-9.3438 15.168c-2.9492 4.793-4.0938 10.484-3.2188 16.047 0.87109 5.5586 3.7031 10.625 7.9805 14.285 4.2773 3.6562 9.7227 5.668 15.352 5.668h50.871c41.988 24.172 90.398 34.844 138.66 30.566 48.262-4.2773 94.043-23.293 131.13-54.473s63.684-73.012 76.188-119.82c12.504-46.809 10.309-96.332-6.2891-141.85-16.598-45.52-46.797-84.832-86.496-112.61-39.703-27.773-86.984-42.664-135.43-42.652zm-168.63 425.09c-2.8516 0-5.4766-1.543-6.8672-4.0312-1.3906-2.4922-1.3242-5.5352 0.16797-7.9648l97.77-158.89v0.003907c1.4375-2.3164 3.9688-3.7266 6.6914-3.7266 2.7266 0 5.2578 1.4102 6.6914 3.7266l97.77 158.89 0.003906-0.003906c1.4883 2.4219 1.5586 5.4609 0.17578 7.9492-1.3828 2.4883-4 4.0352-6.8438 4.0469zm168.63 31.488c-27.973-0.023437-55.684-5.3672-81.656-15.742h108.59c5.625 0 11.07-2.0117 15.348-5.668s7.1055-8.7227 7.9805-14.281-0.26562-11.25-3.2148-16.043l-97.781-158.89c-4.2969-6.9844-11.91-11.242-20.113-11.242-8.1992 0-15.812 4.2578-20.109 11.242l-79.77 129.61c-31.648-38.762-49.168-87.141-49.672-137.18-0.50391-50.039 16.031-98.762 46.895-138.16 30.863-39.395 74.211-67.113 122.92-78.598 48.707-11.488 99.871-6.0586 145.08 15.395 45.211 21.453 81.777 57.652 103.68 102.64 21.906 44.992 27.852 96.102 16.855 144.92-10.992 48.82-38.273 92.445-77.355 123.7-39.082 31.254-87.633 48.285-137.68 48.281z"/>
  <path d="m423.51 399c-0.30078-7.5039-4.1406-14.418-10.352-18.637-6.2109-4.2188-14.055-5.2383-21.141-2.7539-7.0859 2.4883-12.57 8.1875-14.781 15.363-2.2109 7.1758-0.88672 14.973 3.5664 21.02 4.457 6.043 11.516 9.6133 19.023 9.625 7.5078 0.007812 14.574-3.543 19.047-9.5742l81.145 24.969 4.6289-15.051zm-23.512 8.8711c-3.1836 0-6.0547-1.918-7.2734-4.8594-1.2188-2.9414-0.54687-6.3281 1.707-8.5781 2.25-2.2539 5.6367-2.9258 8.5781-1.707 2.9414 1.2188 4.8594 4.0898 4.8594 7.2734 0 2.0859-0.82812 4.0898-2.3047 5.5664-1.4766 1.4766-3.4805 2.3047-5.5664 2.3047z"/>
  <path d="m392.12 195.32h15.742v23.617h-15.742z"/>
  <path d="m339.42 204.34 15.207-4.0781 6.1133 22.812-15.207 4.0781z"/>
  <path d="m290.84 226.68 13.637-7.8711 11.809 20.453-13.637 7.8711z"/>
  <path d="m249.71 260.84 11.133-11.133 16.699 16.699-11.133 11.133z"/>
  <path d="m218.81 304.48 7.8711-13.637 20.453 11.809-7.8711 13.637z"/>
  <path d="m200.27 354.63 4.0781-15.207 22.812 6.1133-4.0781 15.207z"/>
  <path d="m195.32 392.12h23.617v15.742h-23.617z"/>
  <path d="m439.26 223.07 6.1133-22.812 15.207 4.0742-6.1133 22.812z"/>
  <path d="m483.71 239.27 11.805-20.453 13.637 7.8711-11.805 20.453z"/>
  <path d="m522.46 266.41 16.699-16.699 11.133 11.133-16.699 16.699z"/>
  <path d="m552.86 302.66 20.453-11.809 7.8711 13.637-20.453 11.809z"/>
  <path d="m572.85 345.54 22.812-6.1133 4.0781 15.207-22.812 6.1133z"/>
  <path d="m581.05 392.12h23.617v15.742h-23.617z"/>
  <path d="m572.84 454.46 4.0781-15.207 22.812 6.1133-4.0781 15.207z"/>
  <path d="m400 234.69c-43.832 0.046875-85.852 17.48-116.84 48.469-30.988 30.992-48.422 73.012-48.469 116.84 0 2.0859 0.82812 4.0898 2.3047 5.5664 1.4766 1.4766 3.4766 2.3047 5.5664 2.3047h31.488c2.0859 0 4.0898-0.82812 5.5664-2.3047 1.4766-1.4766 2.3047-3.4805 2.3047-5.5664 0.011719-36.703 17.09-71.316 46.211-93.656s66.977-29.867 102.43-20.367 64.473 34.941 78.523 68.852c14.051 33.906 11.539 72.418-6.8008 104.21-1.0508 1.8086-1.3359 3.9609-0.79688 5.9805 0.54297 2.0234 1.8633 3.7422 3.6758 4.7891l27.27 15.742c3.7656 2.1758 8.5781 0.88281 10.754-2.8789 19.438-33.664 26.395-73.098 19.645-111.38-6.75-38.277-26.773-72.957-56.551-97.941-29.777-24.98-67.406-38.672-106.28-38.664zm133.31 233.19-13.656-7.8711h-0.003906c18-35.953 18.883-78.098 2.4023-114.77-16.484-36.676-48.582-63.996-87.418-74.406-38.836-10.41-80.297-2.8047-112.91 20.711-32.617 23.516-52.93 60.445-55.324 100.58h-15.742c2.3984-45.039 24.992-86.59 61.492-113.09 36.504-26.496 83.012-35.105 126.58-23.43 43.566 11.676 79.539 42.387 97.898 83.586 18.363 41.195 17.152 88.48-3.293 128.68z"/>
  <path d="m552.86 497.34 7.8711-13.637 20.453 11.809-7.8711 13.637z"/>
  <path d="m329.15 533.82c-6.2617 0-12.27 2.4883-16.695 6.9141-4.4297 4.4297-6.918 10.438-6.918 16.699 0 6.2656 2.4883 12.273 6.918 16.699 4.4258 4.4297 10.434 6.918 16.695 6.918 6.2656 0 12.273-2.4883 16.699-6.918 4.4297-4.4258 6.918-10.434 6.918-16.699 0-6.2617-2.4883-12.27-6.918-16.699-4.4258-4.4258-10.434-6.9141-16.699-6.9141zm0 31.488c-3.1836 0-6.0508-1.918-7.2695-4.8594s-0.54688-6.3281 1.7031-8.582c2.2539-2.25 5.6406-2.9219 8.582-1.7031 2.9414 1.2148 4.8594 4.0859 4.8594 7.2695 0 2.0898-0.83203 4.0898-2.3086 5.5664-1.4727 1.4766-3.4766 2.3086-5.5664 2.3086z"/>
  <path d="m329.15 447.23c-6.2617 0-12.27 2.4883-16.695 6.918-4.4297 4.4297-6.918 10.434-6.918 16.699-0.003906 0.43359 0.035156 0.87109 0.10938 1.2969l6.5742 39.469v0.003907c0.91406 5.3711 4.3242 9.9883 9.1875 12.441 4.8672 2.457 10.605 2.457 15.473 0 4.8633-2.4531 8.2734-7.0703 9.1875-12.441l6.5742-39.461v-0.003906c0.082031-0.42969 0.125-0.86719 0.125-1.3047 0-6.2656-2.4883-12.27-6.918-16.699-4.4258-4.4297-10.434-6.918-16.699-6.918zm1.4023 61.789c-0.1875 0.61719-0.75391 1.0391-1.4023 1.0391-0.64453 0-1.2109-0.42188-1.3984-1.0391l-6.4727-38.715c0-4.3477 3.5234-7.875 7.8711-7.875 4.3477 0 7.875 3.5273 7.875 7.875z"/>
 </g>
</svg>