<?xml version="1.0" encoding="UTF-8"?>
<!-- The Best Svg Icon site in the world: iconSvg.co, Visit us! https://iconsvg.co -->
<svg width="800px" height="800px" version="1.1" viewBox="144 144 512 512" xmlns="http://www.w3.org/2000/svg">
 <defs>
  <clipPath id="f">
   <path d="m148.09 148.09h503.81v419.91h-503.81z"/>
  </clipPath>
  <clipPath id="e">
   <path d="m263 305h274v346.9h-274z"/>
  </clipPath>
  <clipPath id="d">
   <path d="m546 630h22v21.902h-22z"/>
  </clipPath>
  <clipPath id="c">
   <path d="m232 630h22v21.902h-22z"/>
  </clipPath>
  <clipPath id="b">
   <path d="m274 630h22v21.902h-22z"/>
  </clipPath>
  <clipPath id="a">
   <path d="m494 630h22v21.902h-22z"/>
  </clipPath>
 </defs>
 <g clip-path="url(#f)">
  <path d="m578.07 318.37c-1.7617-19.98-9.8281-38.879-23.035-53.973-13.207-15.094-30.867-25.598-50.438-29.996-2.7148-31.422-20.934-59.414-48.562-74.617-27.629-15.207-61.027-15.625-89.023-1.1094-28 14.512-46.91 42.043-50.406 73.387h-0.57812c-23.617 0.046875-46.359 8.9297-63.758 24.895-17.398 15.969-28.195 37.867-30.266 61.395-29.293 6.5742-53.711 26.684-65.789 54.168-12.074 27.484-10.367 59.074 4.6016 85.098 14.965 26.023 41.414 43.383 71.242 46.766v63.551h20.992v-73.473c0-2.7812-1.1055-5.4531-3.0742-7.4219-1.9688-1.9648-4.6406-3.0742-7.4219-3.0742-25.039-0.16797-48.266-13.078-61.629-34.254-13.363-21.172-15.027-47.695-4.4062-70.371 10.617-22.676 32.051-38.383 56.871-41.676 5.3555-0.99609 9.2188-5.6914 9.1641-11.137 0.023437-19.48 7.7695-38.156 21.543-51.93 13.773-13.773 32.449-21.52 51.93-21.543h10.496c2.7812 0 5.4531-1.1055 7.4219-3.0742s3.0742-4.6406 3.0742-7.4219c-0.078126-26.25 13.855-50.547 36.547-63.738 22.695-13.191 50.703-13.273 73.473-0.21484 22.773 13.059 36.848 37.273 36.922 63.523v1.1445c0 5.293 3.9414 9.7656 9.1953 10.422 17.676 2.2148 33.941 10.781 45.766 24.102 11.828 13.32 18.406 30.488 18.512 48.301v1.1445-0.003907c-0.003906 5.2969 3.9414 9.7656 9.1953 10.426 24.824 3.293 46.262 19.004 56.879 41.684 10.613 22.684 8.9492 49.207-4.4258 70.379-13.371 21.176-36.605 34.078-61.648 34.238-5.7969 0-10.496 4.6992-10.496 10.496v73.473h20.992v-63.551c29.82-3.3828 56.254-20.734 71.227-46.742 14.969-26.008 16.688-57.582 4.6367-85.062-12.055-27.484-36.449-47.602-65.723-54.207z"/>
 </g>
 <path d="m410.5 211.07v-20.992c-13.914 0.015625-27.254 5.5508-37.094 15.391-9.8359 9.8359-15.371 23.176-15.387 37.09h20.992c0-8.3516 3.3164-16.359 9.2227-22.266 5.9023-5.9062 13.914-9.2227 22.266-9.2227z"/>
 <g clip-path="url(#e)">
  <path d="m504.96 305.54h-83.965c-7.7734 0.027344-15.254 2.9453-20.992 8.1875-5.7383-5.2422-13.223-8.1602-20.992-8.1875h-83.969c-8.3516 0-16.359 3.3164-22.266 9.2227-5.9062 5.9023-9.2227 13.914-9.2227 22.266v62.977c0 2.7812 1.1055 5.4531 3.0742 7.4219s4.6367 3.0742 7.4219 3.0742h94.465v-20.992h-83.969v-52.48c0-5.7969 4.6992-10.496 10.496-10.496h83.969c2.7812 0 5.4531 1.1055 7.4219 3.0742s3.0742 4.6367 3.0742 7.4219v10.496h-73.473v20.992h73.473v53.016c-39.836 3.6367-74.949 27.629-92.812 63.418-17.859 35.793-15.926 78.277 5.1172 112.29 21.039 34.02 58.191 54.723 98.191 54.723 39.996 0 77.148-20.703 98.188-54.723 21.043-34.016 22.977-76.5 5.1172-112.29-17.863-35.789-52.977-59.781-92.809-63.418v-53.016h73.473l-0.003906-20.992h-73.469v-10.496c0-5.7969 4.6992-10.496 10.496-10.496h83.969-0.003907c2.7852 0 5.457 1.1055 7.4219 3.0742 1.9688 1.9688 3.0742 4.6367 3.0742 7.4219v52.48h-83.965v20.992h94.465-0.003906c2.7852 0 5.457-1.1055 7.4219-3.0742 1.9688-1.9688 3.0742-4.6406 3.0742-7.4219v-62.977c0-8.3516-3.3164-16.363-9.2227-22.266-5.9023-5.9062-13.914-9.2227-22.266-9.2227zm-10.496 230.91c0 25.055-9.9492 49.082-27.668 66.797-17.715 17.715-41.742 27.668-66.793 27.668-25.055 0-49.082-9.9531-66.797-27.668-17.715-17.715-27.668-41.742-27.668-66.797 0-25.051 9.9531-49.078 27.668-66.793 17.715-17.719 41.742-27.668 66.797-27.668 25.043 0.027344 49.051 9.9922 66.762 27.699 17.707 17.711 27.672 41.719 27.699 66.762z"/>
 </g>
 <path d="m389.5 462.98v20.992l-10.496-0.003906c-5.5703 0-10.91 2.2148-14.844 6.1484-3.9375 3.9375-6.1484 9.2773-6.1484 14.844v20.992c0 5.5703 2.2109 10.91 6.1484 14.844 3.9336 3.9375 9.2734 6.1484 14.844 6.1484h41.984v20.992h-41.984v-10.496h-20.992v10.496c0 5.5703 2.2109 10.91 6.1484 14.844 3.9336 3.9375 9.2734 6.1484 14.844 6.1484h10.496v20.992h20.992v-20.992h10.496c5.5664 0 10.906-2.2109 14.844-6.1484 3.9336-3.9336 6.1484-9.2734 6.1484-14.844v-20.992c0-5.5664-2.2148-10.906-6.1484-14.844-3.9375-3.9336-9.2773-6.1484-14.844-6.1484h-41.984v-20.992h41.984v10.496h20.992v-10.496c0-5.5664-2.2148-10.906-6.1484-14.844-3.9375-3.9336-9.2773-6.1484-14.844-6.1484h-10.496v-20.988z"/>
 <path d="m546.94 588.93h20.992v20.992h-20.992z"/>
 <g clip-path="url(#d)">
  <path d="m546.94 630.91h20.992v20.992h-20.992z"/>
 </g>
 <path d="m232.06 588.93h20.992v20.992h-20.992z"/>
 <g clip-path="url(#c)">
  <path d="m232.06 630.91h20.992v20.992h-20.992z"/>
 </g>
 <g clip-path="url(#b)">
  <path d="m274.05 630.91h20.992v20.992h-20.992z"/>
 </g>
 <g clip-path="url(#a)">
  <path d="m494.46 630.91h20.992v20.992h-20.992z"/>
 </g>
</svg>