<?xml version="1.0" encoding="UTF-8"?>
<!-- The Best Svg Icon site in the world: iconSvg.co, Visit us! https://iconsvg.co -->
<svg fill="#000000" width="800px" height="800px" version="1.1" viewBox="144 144 512 512" xmlns="http://www.w3.org/2000/svg">
 <g>
  <path d="m509.25 364.07c6.4492-6.2109 10.09-14.781 10.074-23.734 0-8.7891-3.4922-17.219-9.707-23.438-6.2148-6.2148-14.645-9.707-23.438-9.707h-1.457l34.602-101.82c1.3359-4.043 0.64453-8.4805-1.8555-11.93-2.6055-3.6719-6.9023-5.7695-11.402-5.5703h-89.891l-2.9141-15.91c-1.2812-6.2695-6.8594-10.734-13.258-10.605h-106.07c-4.1055 0.011719-7.9727 1.918-10.473 5.1719-2.5078 3.2812-3.3438 7.5469-2.2539 11.535l35.133 129.13h-2.5195c-8.832 0.019532-17.289 3.5625-23.5 9.8398-6.207 6.2812-9.6562 14.777-9.5742 23.609 0.082031 8.8281 3.6836 17.262 10.004 23.43-31.055 29.332-49.008 69.922-49.82 112.64-0.8125 42.711 15.586 83.953 45.508 114.45 29.918 30.496 70.84 47.676 113.56 47.676 42.719 0 83.645-17.18 113.56-47.676 29.918-30.492 46.316-71.734 45.504-114.45-0.8125-42.715-18.766-83.305-49.82-112.64zm-197.95-176.2h77.824l10.875 55.684c1.4648 7.3242 8.5859 12.074 15.91 10.609 7.3203-1.4648 12.07-8.5898 10.605-15.91l-5.0391-23.867h66.289l-30.891 92.809h-113.09zm2.5195 145.84h172.36c3.6602 0 6.6289 2.9688 6.6289 6.6289 0 3.6602-2.9688 6.6289-6.6289 6.6289h-172.36c-3.6602 0-6.6289-2.9688-6.6289-6.6289 0-3.6602 2.9688-6.6289 6.6289-6.6289zm86.18 278.42c-37.344 0-72.953-15.746-98.078-43.371-25.125-27.621-37.438-64.559-33.91-101.73 3.5234-37.172 22.566-71.137 52.438-93.543h159.1c29.875 22.406 48.914 56.371 52.441 93.543 3.5273 37.176-8.7852 74.113-33.914 101.73-25.125 27.625-60.734 43.371-98.074 43.371z"/>
  <path d="m392.44 453.03h37.785c7.3242 0 13.258-5.9375 13.258-13.258 0-7.3242-5.9336-13.258-13.258-13.258h-16.969v-1.8555c0-7.3242-5.9375-13.258-13.258-13.258-7.3242 0-13.258 5.9336-13.258 13.258v2.5195-0.003907c-11.879 2.0586-21.93 9.9375-26.773 20.977-4.8398 11.039-3.8203 23.77 2.7109 33.898 6.5312 10.129 17.707 16.309 29.762 16.457h15.113c5.1992 0 9.4141 4.2148 9.4141 9.4102 0 5.1992-4.2148 9.4141-9.4141 9.4141h-37.785c-7.3203 0-13.258 5.9375-13.258 13.258 0 7.3242 5.9375 13.258 13.258 13.258h16.973v1.9922c0 7.3203 5.9336 13.258 13.258 13.258 7.3203 0 13.258-5.9375 13.258-13.258v-2.3867c11.875-2.0586 21.93-9.9375 26.77-20.977 4.8398-11.039 3.8203-23.77-2.7109-33.898s-17.707-16.309-29.762-16.457h-15.113c-4.8047-0.56641-8.4219-4.6406-8.4219-9.4766 0-4.8398 3.6172-8.9102 8.4219-9.4805z"/>
 </g>
</svg>