<?xml version="1.0" encoding="UTF-8"?>
<!-- The Best Svg Icon site in the world: iconSvg.co, Visit us! https://iconsvg.co -->
<svg fill="#000000" width="800px" height="800px" version="1.1" viewBox="144 144 512 512" xmlns="http://www.w3.org/2000/svg">
 <g>
  <path d="m462.98 368.51c2.7812 0 5.4531-1.1055 7.4219-3.0742 1.9648-1.9688 3.0742-4.6406 3.0742-7.4219v-146.95c0-2.7852-1.1094-5.4531-3.0742-7.4219-1.9688-1.9688-4.6406-3.0742-7.4219-3.0742h-251.91c-5.7969 0-10.496 4.6992-10.496 10.496v146.95c0 2.7812 1.1055 5.4531 3.0742 7.4219s4.6367 3.0742 7.4219 3.0742zm-200.48-146.95h149.04c2.0586 10.086 7.0352 19.344 14.312 26.621 7.2812 7.2773 16.539 12.258 26.625 14.312v44.082c-10.086 2.0586-19.344 7.0352-26.625 14.312-7.2773 7.2812-12.254 16.539-14.312 26.625h-149.04c-2.0547-10.086-7.0352-19.344-14.312-26.625-7.2773-7.2773-16.535-12.254-26.621-14.312v-44.082c10.086-2.0547 19.344-7.0352 26.621-14.312s12.258-16.535 14.312-26.621zm-40.934 106.85c8.9141 3.1758 15.93 10.191 19.102 19.105h-19.102zm211.81 19.105c3.1758-8.9141 10.188-15.93 19.105-19.105v19.105zm19.105-106.85c-8.918-3.1719-15.93-10.188-19.105-19.102h19.105zm-211.81-19.102c-3.1719 8.9141-10.188 15.93-19.102 19.102v-19.102z"/>
  <path d="m337.02 337.02c13.918 0 27.266-5.5312 37.109-15.371 9.8398-9.8438 15.371-23.191 15.371-37.109s-5.5312-27.27-15.371-37.109c-9.8438-9.8438-23.191-15.371-37.109-15.371-13.918 0-27.27 5.5273-37.109 15.371-9.8438 9.8398-15.371 23.191-15.371 37.109s5.5273 27.266 15.371 37.109c9.8398 9.8398 23.191 15.371 37.109 15.371zm0-83.969c8.3516 0 16.359 3.3164 22.266 9.2227 5.9023 5.9062 9.2227 13.914 9.2227 22.266 0 8.3516-3.3203 16.359-9.2227 22.266-5.9062 5.9023-13.914 9.2227-22.266 9.2227-8.3516 0-16.363-3.3203-22.266-9.2227-5.9062-5.9062-9.2227-13.914-9.2227-22.266 0-8.3516 3.3164-16.359 9.2227-22.266 5.9023-5.9062 13.914-9.2227 22.266-9.2227z"/>
  <path d="m588.93 431.49h-251.9c-5.7969 0-10.496 4.6992-10.496 10.496v146.94c0 2.7852 1.1055 5.4531 3.0742 7.4219s4.6367 3.0742 7.4219 3.0742h251.9c2.7852 0 5.4531-1.1055 7.4219-3.0742s3.0742-4.6367 3.0742-7.4219v-146.94c0-2.7852-1.1055-5.457-3.0742-7.4219-1.9688-1.9688-4.6367-3.0742-7.4219-3.0742zm-51.43 146.94h-149.04c-2.0586-10.086-7.0352-19.344-14.312-26.621s-16.535-12.254-26.621-14.312v-44.082c10.086-2.0586 19.344-7.0352 26.621-14.312 7.2773-7.2812 12.254-16.539 14.312-26.621h149.04c2.0586 10.082 7.0352 19.34 14.312 26.621 7.2773 7.2773 16.535 12.254 26.621 14.312v44.082c-10.086 2.0586-19.344 7.0352-26.621 14.312s-12.254 16.535-14.312 26.621zm40.934-106.85c-8.9141-3.1758-15.926-10.188-19.102-19.102h19.102zm-211.81-19.102c-3.1719 8.9141-10.188 15.926-19.102 19.102v-19.102zm-19.102 106.85c8.9141 3.1758 15.93 10.188 19.102 19.102h-19.102zm211.81 19.102c3.1758-8.9141 10.188-15.926 19.102-19.102v19.102z"/>
  <path d="m462.98 462.98c-13.922 0-27.27 5.5273-37.109 15.371-9.8438 9.8398-15.371 23.188-15.371 37.105 0 13.922 5.5273 27.27 15.371 37.109 9.8398 9.8438 23.188 15.371 37.109 15.371 13.918 0 27.266-5.5273 37.105-15.371 9.8438-9.8398 15.371-23.188 15.371-37.109 0-13.918-5.5273-27.266-15.371-37.105-9.8398-9.8438-23.188-15.371-37.105-15.371zm0 83.969v-0.003906c-8.3516 0-16.363-3.3164-22.266-9.2227-5.9062-5.9023-9.2227-13.914-9.2227-22.266 0-8.3477 3.3164-16.359 9.2227-22.266 5.9023-5.9023 13.914-9.2227 22.266-9.2227 8.3477 0 16.359 3.3203 22.262 9.2227 5.9062 5.9062 9.2227 13.918 9.2227 22.266 0 8.3516-3.3164 16.363-9.2227 22.266-5.9023 5.9062-13.914 9.2227-22.262 9.2227z"/>
  <path d="m504.96 295.04h31.488v79.664l-13.539-13.645c-4.1133-4.1172-10.789-4.1172-14.902 0-4.1172 4.1172-4.1172 10.789 0 14.902l31.488 31.488c1.9688 1.9883 4.6523 3.1055 7.4492 3.1055 2.8008 0 5.4844-1.1172 7.4531-3.1055l31.488-31.488c4.1172-4.1133 4.1172-10.785 0-14.902-4.1172-4.1172-10.789-4.1172-14.902 0l-13.543 13.645v-90.16c0-2.7852-1.1055-5.4531-3.0742-7.4219s-4.6367-3.0742-7.4219-3.0742h-41.984c-5.7969 0-10.496 4.6992-10.496 10.496s4.6992 10.496 10.496 10.496z"/>
  <path d="m295.04 504.96h-31.488v-79.664l13.539 13.645c4.1172 4.1172 10.789 4.1172 14.906 0 4.1133-4.1133 4.1133-10.789 0-14.902l-31.488-31.488c-1.9727-1.9883-4.6562-3.1055-7.4531-3.1055-2.8008 0-5.4805 1.1172-7.4531 3.1055l-31.488 31.488c-4.1133 4.1133-4.1133 10.789 0 14.902 4.1172 4.1172 10.789 4.1172 14.906 0l13.539-13.645v90.16c0 2.7852 1.1055 5.457 3.0742 7.4219 1.9688 1.9688 4.6367 3.0742 7.4219 3.0742h41.984c5.7969 0 10.496-4.6992 10.496-10.496s-4.6992-10.496-10.496-10.496z"/>
 </g>
</svg>