<?xml version="1.0" encoding="UTF-8"?>
<!-- The Best Svg Icon site in the world: iconSvg.co, Visit us! https://iconsvg.co -->
<svg fill="#000000" width="800px" height="800px" version="1.1" viewBox="144 144 512 512" xmlns="http://www.w3.org/2000/svg">
 <g>
  <path d="m620.41 360.64-19.578-0.070313c-5.1875-26.746-15.75-52.164-31.047-74.711l13.895-13.902c2.9531-2.9531 4.6094-6.957 4.6094-11.133 0-4.1758-1.6562-8.1797-4.6094-11.129l-33.391-33.379c-3-2.8633-6.9883-4.4609-11.133-4.4609-4.1445 0-8.1328 1.5977-11.133 4.4609l-13.883 13.816c-22.578-15.262-48.023-25.781-74.785-30.922v-19.625c0-4.1758-1.6602-8.1797-4.6133-11.133s-6.957-4.6133-11.133-4.6133h-47.23c-4.1758 0-8.1797 1.6602-11.133 4.6133s-4.6133 6.957-4.6133 11.133l-0.070313 19.578c-26.746 5.1875-52.164 15.75-74.711 31.047l-13.887-13.895c-3-2.8633-6.9844-4.4609-11.133-4.4609-4.1445 0-8.1328 1.5977-11.129 4.4609l-33.395 33.395c-2.9531 2.9531-4.6094 6.957-4.6094 11.129 0 4.1758 1.6562 8.1797 4.6094 11.133l13.816 13.887c-15.262 22.578-25.781 48.02-30.922 74.781h-19.625c-4.1758 0-8.1797 1.6602-11.133 4.6133s-4.6133 6.957-4.6133 11.133v47.23c0 4.1758 1.6602 8.1797 4.6133 11.133s6.957 4.6133 11.133 4.6133l19.578 0.070313c5.1875 26.746 15.75 52.164 31.047 74.715l-13.895 13.883c-2.9531 2.9531-4.6094 6.957-4.6094 11.133 0 4.1758 1.6562 8.1797 4.6094 11.133l33.395 33.395v-0.003906c2.9961 2.8633 6.9844 4.4648 11.129 4.4648 4.1484 0 8.1328-1.6016 11.133-4.4648l13.887-13.816c22.578 15.266 48.02 25.785 74.781 30.922v19.625c0 4.1758 1.6602 8.1797 4.6133 11.133s6.957 4.6133 11.133 4.6133h47.23c4.1758 0 8.1797-1.6602 11.133-4.6133s4.6133-6.957 4.6133-11.133l0.070313-19.578c26.746-5.1875 52.164-15.75 74.715-31.047l13.902 13.895h-0.003906c3 2.8633 6.9883 4.4648 11.133 4.4648s8.1328-1.6016 11.133-4.4648l33.395-33.395-0.003906 0.003907c2.9531-2.9531 4.6094-6.957 4.6094-11.133 0-4.1758-1.6562-8.1797-4.6094-11.133l-13.832-13.883c15.266-22.578 25.785-48.023 30.922-74.785h19.625c4.1758 0 8.1797-1.6602 11.133-4.6133s4.6133-6.957 4.6133-11.133v-47.23c0-4.1758-1.6602-8.1797-4.6133-11.133s-6.957-4.6133-11.133-4.6133zm0 62.977h-19.625c-3.6523 0.023438-7.1836 1.3086-9.9922 3.6445-2.8086 2.3359-4.7227 5.5703-5.4141 9.1562-4.793 24.656-14.512 48.09-28.574 68.902-2.0508 3.0234-2.9922 6.6641-2.6523 10.305 0.33594 3.6367 1.9297 7.043 4.5039 9.6367l13.895 13.902-33.395 33.395-13.902-13.895c-2.5938-2.5742-6-4.168-9.6367-4.5039-3.6406-0.33984-7.2812 0.60156-10.305 2.6523-20.812 14.062-44.246 23.781-68.902 28.574-3.5859 0.69141-6.8203 2.6055-9.1562 5.4141-2.3359 2.8086-3.6211 6.3398-3.6445 9.9922v19.625h-47.23v-19.625c-0.023437-3.6523-1.3086-7.1836-3.6445-9.9922-2.332-2.8086-5.5703-4.7227-9.1562-5.4141-24.656-4.793-48.09-14.512-68.902-28.574-2.6211-1.7656-5.7109-2.707-8.8711-2.707-4.1523-0.015624-8.1328 1.625-11.07 4.5586l-13.902 13.895-33.391-33.395 13.895-13.902h-0.003906c2.5742-2.5938 4.168-6 4.5039-9.6367 0.33984-3.6406-0.59766-7.2812-2.6523-10.305-14.062-20.812-23.781-44.246-28.574-68.902-0.69141-3.5859-2.6055-6.8203-5.4141-9.1562-2.8086-2.3359-6.3398-3.6211-9.9922-3.6445h-19.625v-47.23h19.625c3.6523-0.023437 7.1836-1.3086 9.9922-3.6445 2.8086-2.332 4.7227-5.5703 5.4141-9.1562 4.793-24.656 14.512-48.09 28.574-68.902 2.0547-3.0234 2.9922-6.6641 2.6523-10.305-0.33594-3.6367-1.9297-7.043-4.5039-9.6367l-13.891-13.902 33.395-33.395 13.902 13.895h-0.003907c2.5977 2.5703 6.0039 4.1562 9.6406 4.4922 3.6367 0.33984 7.2734-0.59375 10.301-2.6406 20.812-14.062 44.246-23.781 68.902-28.574 3.5859-0.69141 6.8242-2.6055 9.1562-5.4141 2.3359-2.8086 3.6211-6.3398 3.6445-9.9922v-19.625h47.23v19.625c0.023438 3.6523 1.3086 7.1836 3.6445 9.9922 2.3359 2.8086 5.5703 4.7227 9.1562 5.4141 24.656 4.793 48.09 14.512 68.902 28.574 3.0273 2.0469 6.668 2.9805 10.305 2.6406 3.6328-0.33594 7.0391-1.9219 9.6367-4.4922l13.902-13.895 33.395 33.395-13.895 13.902c-2.5742 2.5938-4.168 6-4.5039 9.6367-0.33984 3.6406 0.60156 7.2812 2.6523 10.305 14.062 20.812 23.781 44.246 28.574 68.902 0.69141 3.5859 2.6055 6.8242 5.4141 9.1562 2.8086 2.3359 6.3398 3.6211 9.9922 3.6445h19.625z"/>
  <path d="m400 218.94c-48.02 0-94.074 19.074-128.03 53.031-33.957 33.953-53.031 80.008-53.031 128.03s19.074 94.07 53.031 128.02c33.953 33.957 80.008 53.031 128.03 53.031s94.07-19.074 128.02-53.031c33.957-33.953 53.031-80.004 53.031-128.02-0.054688-48.004-19.148-94.023-53.09-127.97-33.941-33.941-79.965-53.035-127.96-53.09zm0 346.37v0.003906c-43.844 0-85.895-17.418-116.89-48.422-31.004-31-48.418-73.047-48.418-116.89s17.414-85.895 48.418-116.89c31-31.004 73.051-48.418 116.89-48.418s85.891 17.414 116.89 48.418c31.004 31 48.422 73.051 48.422 116.89-0.050781 43.828-17.48 85.848-48.473 116.84-30.992 30.992-73.012 48.422-116.84 48.473z"/>
  <path d="m453.09 398.52c16.059-3.207 30.516-11.863 40.926-24.504 10.406-12.641 16.129-28.492 16.195-44.867v-15.742c0-2.0859-0.82812-4.0898-2.3047-5.5664-1.4766-1.4766-3.4805-2.3047-5.5664-2.3047h-26.695l3.0078-22.578c0.30078-2.25-0.38672-4.5156-1.8789-6.2227-1.4961-1.707-3.6523-2.6875-5.9219-2.6875h-141.7c-2.2656 0-4.4258 0.98047-5.918 2.6875-1.4961 1.707-2.1797 3.9727-1.8828 6.2227l3.0078 22.578h-26.691c-4.3477 0-7.875 3.5234-7.875 7.8711v15.742c0.066407 16.375 5.7852 32.223 16.195 44.863 10.406 12.641 24.859 21.297 40.918 24.508 7.7188 12.797 17.711 24.078 29.48 33.289v46.91h-31.488c-4.3477 0-7.8711 3.5234-7.8711 7.8711v47.234c0 2.0859 0.82812 4.0898 2.3047 5.5664s3.4766 2.3047 5.5664 2.3047h110.21c2.0898 0 4.0898-0.82812 5.5664-2.3047 1.4766-1.4766 2.3086-3.4805 2.3086-5.5664v-47.234c0-2.0859-0.83203-4.0898-2.3086-5.5664-1.4766-1.4766-3.4766-2.3047-5.5664-2.3047h-31.488v-46.918c11.773-9.2031 21.762-20.484 29.473-33.281zm41.375-77.242v7.8711c-0.039063 10.512-3.0781 20.789-8.7539 29.633s-13.754 15.887-23.293 20.301c3.4102-8.793 5.7891-17.957 7.0859-27.301l4.0391-30.504zm-188.93 7.8711v-7.8711h20.926l4.0625 30.504h-0.003907c1.2969 9.3438 3.6758 18.508 7.0859 27.301-9.5391-4.4102-17.625-11.453-23.305-20.297-5.6797-8.8438-8.7227-19.125-8.7656-29.637zm40.598 20.547-7.9922-59.906h123.71l-7.9883 59.906c-3.9453 29.254-19.785 55.582-43.777 72.777l-10.09 7.2109-10.094-7.2031c-23.992-17.199-39.828-43.531-43.777-72.785zm101.1 176.25h-94.465v-31.488h94.465zm-55.105-47.23v-35.305l3.2969 2.3633 0.003906-0.003906c2.7344 1.9531 6.4102 1.9531 9.1445 0l3.2969-2.3633 0.003906 35.309z"/>
  <path d="m368.51 510.21c0 2.0859 0.82812 4.0898 2.3047 5.5664 1.4766 1.4766 3.4766 2.3047 5.5664 2.3047h47.23c4.3477 0 7.875-3.5234 7.875-7.8711 0-4.3477-3.5273-7.8711-7.875-7.8711h-47.23c-4.3477 0-7.8711 3.5234-7.8711 7.8711z"/>
  <path d="m439.36 344.89c0-10.438-4.1484-20.449-11.527-27.832-7.3828-7.3828-17.395-11.527-27.832-11.527-10.441 0-20.453 4.1445-27.832 11.527-7.3828 7.3828-11.531 17.395-11.531 27.832s4.1484 20.449 11.531 27.832c7.3789 7.3828 17.391 11.527 27.832 11.527 10.434-0.011718 20.438-4.1641 27.816-11.543 7.3789-7.3789 11.531-17.383 11.543-27.816zm-62.977 0c0-6.2617 2.4883-12.27 6.918-16.699 4.4258-4.4297 10.434-6.918 16.699-6.918 6.2617 0 12.27 2.4883 16.699 6.918 4.4258 4.4297 6.9141 10.438 6.9141 16.699s-2.4883 12.27-6.9141 16.699c-4.4297 4.4297-10.438 6.918-16.699 6.918-6.2656 0-12.273-2.4883-16.699-6.918-4.4297-4.4297-6.918-10.438-6.918-16.699z"/>
  <path d="m525.95 384.25c2.0898 0 4.0898-0.82812 5.5664-2.3047 1.4766-1.4766 2.3086-3.4805 2.3086-5.5664v-7.8711c0-4.3477-3.5273-7.875-7.875-7.875-4.3477 0-7.8711 3.5273-7.8711 7.875v7.8711c0 2.0859 0.83203 4.0898 2.3047 5.5664 1.4766 1.4766 3.4805 2.3047 5.5664 2.3047z"/>
  <path d="m510.21 384.25h-7.8711c-4.3477 0-7.875 3.5234-7.875 7.8711s3.5273 7.875 7.875 7.875h7.8711c4.3477 0 7.8711-3.5273 7.8711-7.875s-3.5234-7.8711-7.8711-7.8711z"/>
  <path d="m541.7 400h7.8711c4.3477 0 7.8711-3.5273 7.8711-7.875s-3.5234-7.8711-7.8711-7.8711h-7.8711c-4.3477 0-7.8711 3.5234-7.8711 7.8711s3.5234 7.875 7.8711 7.875z"/>
  <path d="m525.95 400c-4.3477 0-7.8711 3.5234-7.8711 7.8711v7.8711c0 4.3477 3.5234 7.8711 7.8711 7.8711 4.3477 0 7.875-3.5234 7.875-7.8711v-7.8711c0-2.0898-0.83203-4.0898-2.3086-5.5664-1.4766-1.4766-3.4766-2.3047-5.5664-2.3047z"/>
  <path d="m297.66 455.1c2.0859 0 4.0898-0.82812 5.5664-2.3047 1.4727-1.4766 2.3047-3.4766 2.3047-5.5664v-7.8711c0-4.3477-3.5234-7.8711-7.8711-7.8711-4.3477 0-7.875 3.5234-7.875 7.8711v7.8711c0 2.0898 0.83203 4.0898 2.3086 5.5664 1.4727 1.4766 3.4766 2.3047 5.5664 2.3047z"/>
  <path d="m281.92 455.1h-7.8711c-4.3477 0-7.8711 3.5273-7.8711 7.875 0 4.3477 3.5234 7.8711 7.8711 7.8711h7.8711c4.3477 0 7.8711-3.5234 7.8711-7.8711 0-4.3477-3.5234-7.875-7.8711-7.875z"/>
  <path d="m321.28 455.1h-7.8711c-4.3477 0-7.8711 3.5273-7.8711 7.875 0 4.3477 3.5234 7.8711 7.8711 7.8711h7.8711c4.3477 0 7.8711-3.5234 7.8711-7.8711 0-4.3477-3.5234-7.875-7.8711-7.875z"/>
  <path d="m297.66 470.85c-4.3477 0-7.875 3.5234-7.875 7.8711v7.8711c0 4.3477 3.5273 7.8711 7.875 7.8711 4.3477 0 7.8711-3.5234 7.8711-7.8711v-7.8711c0-2.0859-0.83203-4.0898-2.3047-5.5664-1.4766-1.4766-3.4805-2.3047-5.5664-2.3047z"/>
 </g>
</svg>