<?xml version="1.0" encoding="UTF-8"?>
<!-- The Best Svg Icon site in the world: iconSvg.co, Visit us! https://iconsvg.co -->
<svg fill="#000000" width="800px" height="800px" version="1.1" viewBox="144 144 512 512" xmlns="http://www.w3.org/2000/svg">
 <g>
  <path d="m612.54 297.66c-6.2617 0-12.27 2.4844-16.699 6.9141s-6.918 10.438-6.918 16.699c0.027344 3.7773 0.96875 7.4883 2.75 10.816l-48.02 51.461c-4.2188-15.355-10.883-29.934-19.738-43.172-1.625-2.3555-1.3438-5.5352 0.67188-7.5703l10.547-10.539v-0.003907c2.332-2.332 2.332-6.1133 0-8.4453l-25.34-25.34c-2.332-2.332-6.1133-2.332-8.4453 0l-10.539 10.547h-0.003906c-2.0352 2.0156-5.2148 2.2969-7.5703 0.66797-16.461-11.094-34.98-18.773-54.461-22.582-2.8164-0.51953-4.8672-2.9648-4.8867-5.8281v-14.883c0-1.5859-0.62891-3.1094-1.75-4.2266-1.1211-1.1211-2.6406-1.75-4.2266-1.75h-35.832c-1.5859 0-3.1016 0.62891-4.2227 1.75-1.1172 1.1211-1.7461 2.6406-1.7461 4.2266v14.883c-0.019531 2.8633-2.0703 5.3086-4.8867 5.8281-19.48 3.8086-38 11.488-54.457 22.582-2.3594 1.6289-5.5391 1.3477-7.5742-0.66797l-10.539-10.547h-0.003906c-2.332-2.332-6.1133-2.332-8.4453 0l-25.34 25.34c-2.332 2.332-2.332 6.1133 0 8.4453l10.547 10.539v0.003906c2.0156 2.0352 2.2969 5.2148 0.67188 7.5703-9 13.441-15.738 28.258-19.957 43.871h41.031c10.656-27.949 32.234-50.355 59.758-62.062 27.527-11.707 58.633-11.707 86.16 0 27.523 11.707 49.102 34.113 59.762 62.062h40.148l-31.207 33.473c-4.707-2.0781-9.9688-2.5391-14.965-1.3125-4.9961 1.2266-9.4492 4.0703-12.656 8.0898l-68.418-24.434v-0.070312c0.0625-6.7773-2.7852-13.25-7.8242-17.781-5.0391-4.5273-11.777-6.6758-18.508-5.8984-6.7305 0.78125-12.801 4.4141-16.668 9.9727-3.8711 5.5625-5.1641 12.516-3.5547 19.098l-72.895 46.855c-4.0977-3.2305-9.1562-4.9961-14.375-5.0156-6.2617 0-12.27 2.4883-16.699 6.918-4.4297 4.4297-6.918 10.434-6.918 16.699 0 0.43359 0.10156 0.83594 0.125 1.2578l-53.531 22.309h0.003907c-4.9844-5.4414-12.23-8.2305-19.574-7.5312-7.3477 0.69922-13.941 4.8008-17.809 11.086s-4.5625 14.02-1.875 20.891c2.6875 6.875 8.4414 12.086 15.547 14.082 7.1016 1.9961 14.73 0.54297 20.602-3.9219 5.875-4.4688 9.3086-11.434 9.2812-18.812 0-0.43359-0.10156-0.83594-0.125-1.2578l53.531-22.309-0.003906-0.003906c4.6758 5.2773 11.477 8.1719 18.52 7.8867 7.043-0.28125 13.586-3.7148 17.824-9.3516 4.2344-5.6328 5.7148-12.871 4.0312-19.719l72.895-46.855 0.003906 0.003906c4.8203 3.8125 10.957 5.5625 17.062 4.8594 6.1094-0.70313 11.688-3.7969 15.52-8.6094l68.391 24.438v0.070313c0 8.4375 4.5 16.234 11.809 20.453 7.3047 4.2188 16.309 4.2188 23.617 0 7.3047-4.2188 11.805-12.016 11.805-20.453-0.023438-3.7773-0.96484-7.4883-2.7461-10.816l79.895-85.633c6.5156 2.8555 13.973 2.6172 20.297-0.64062 6.3242-3.2617 10.84-9.1992 12.293-16.164 1.457-6.9648-0.30859-14.215-4.8008-19.734-4.4883-5.5156-11.23-8.7188-18.344-8.707zm-425.09 220.41c-3.1836 0-6.0547-1.918-7.2734-4.8594s-0.54297-6.3281 1.707-8.5781c2.2539-2.25 5.6367-2.9258 8.5781-1.707s4.8594 4.0898 4.8594 7.2734c0 2.0859-0.82812 4.0898-2.3047 5.5664-1.4766 1.4766-3.4766 2.3047-5.5664 2.3047zm94.465-39.359c-3.1836 0-6.0547-1.918-7.2734-4.8594s-0.54297-6.3281 1.707-8.5781c2.25-2.2539 5.6367-2.9258 8.5781-1.707 2.9414 1.2188 4.8594 4.0898 4.8594 7.2734 0 2.0859-0.82812 4.0898-2.3047 5.5664-1.4766 1.4766-3.4766 2.3047-5.5664 2.3047zm110.21-70.848c-3.1836 0-6.0547-1.918-7.2695-4.8594-1.2188-2.9414-0.54688-6.3281 1.7031-8.5781 2.2539-2.2539 5.6406-2.9258 8.582-1.707s4.8594 4.0898 4.8594 7.2734c0 2.0859-0.83203 4.0898-2.3086 5.5664-1.4766 1.4766-3.4766 2.3047-5.5664 2.3047zm110.21 39.359h0.003907c-3.1836 0-6.0547-1.918-7.2734-4.8594s-0.54688-6.3281 1.707-8.5781c2.25-2.2539 5.6367-2.9258 8.5781-1.707s4.8594 4.0898 4.8594 7.2734c0 2.0859-0.82812 4.0898-2.3047 5.5664-1.4766 1.4766-3.4805 2.3047-5.5664 2.3047zm110.21-118.08c-3.1836 0-6.0547-1.918-7.2734-4.8594-1.2188-2.9414-0.54297-6.3242 1.707-8.5781 2.25-2.25 5.6367-2.9258 8.5781-1.707 2.9414 1.2188 4.8594 4.0898 4.8594 7.2734 0 2.0898-0.82812 4.0898-2.3047 5.5664s-3.4766 2.3047-5.5664 2.3047z"/>
  <path d="m628.29 163.84h-39.363c-4.3477 0-7.8711 3.5273-7.8711 7.875 0 4.3477 3.5234 7.8711 7.8711 7.8711h20.355l-75.809 75.809h0.003906c-39.285-33.867-89.484-52.402-141.35-52.191-54.246-0.09375-106.62 19.859-147.05 56.027-40.434 36.164-66.082 85.992-72.02 139.91-0.45703 4.3086 2.6523 8.1797 6.9609 8.6602 0.28906 0.039063 0.58203 0.0625 0.87109 0.070313 4.0156-0.003906 7.3828-3.0273 7.8203-7.0156 5.5195-50.062 29.336-96.324 66.883-129.9 37.543-33.574 86.168-52.098 136.54-52.012 50.539-0.17188 99.27 18.781 136.41 53.059 3.1094 2.8203 7.8867 2.707 10.855-0.26172l81.027-81.027v20.359c0 4.3477 3.5273 7.8711 7.875 7.8711 4.3477 0 7.8711-3.5234 7.8711-7.8711v-39.359c0-2.0898-0.83203-4.0898-2.3047-5.5664-1.4766-1.4766-3.4805-2.3086-5.5664-2.3086z"/>
  <path d="m187.45 636.16h86.594v-128.46l-86.594 34.016z"/>
  <path d="m510.21 636.16h102.34v-268.43l-102.34 110.99z"/>
  <path d="m289.79 636.16h94.465v-193.67l-94.465 59.844z"/>
  <path d="m400 636.16h94.461v-166.18l-94.461-33.738z"/>
 </g>
</svg>