<?xml version="1.0" encoding="UTF-8"?>
<!-- The Best Svg Icon site in the world: iconSvg.co, Visit us! https://iconsvg.co -->
<svg fill="#000000" width="800px" height="800px" version="1.1" viewBox="144 144 512 512" xmlns="http://www.w3.org/2000/svg">
 <path d="m601.05 384.25-160.12-159.49c-18.137-18.121-44.133-25.98-69.273-20.938l-68.488 13.699v-0.003906c-2.8281-3.6445-5.8789-7.1133-9.1289-10.391-33.535-33.379-78.719-40.621-103.12-15.742-24.402 24.875-17.16 69.59 15.742 103.12v-0.003906c3.2773 3.2539 6.7461 6.3047 10.391 9.1328l-13.223 68.016c-5.043 25.141 2.8164 51.137 20.938 69.273l159.49 160.12c14.395 14.305 33.867 22.336 54.16 22.336 20.293 0 39.766-8.0312 54.16-22.336l107.85-107.85c14.66-14.293 22.977-33.867 23.098-54.344 0.11719-20.473-7.9766-40.141-22.469-54.605zm-387.78-170.98c9.4453-9.4453 33.535-6.1406 54.789 12.754-18.809 7.9453-33.656 23.082-41.25 42.035-19.68-21.254-22.984-45.344-13.539-54.789zm365.42 257.73-107.69 107.69c-8.5938 8.2539-20.043 12.863-31.961 12.863-11.914 0-23.367-4.6094-31.961-12.863l-160.12-159.96c-10.695-10.727-15.305-26.094-12.277-40.934l17.949-89.742h-0.003907c1.7422-8.7188 6.0156-16.73 12.289-23.031 6.2734-6.3047 14.266-10.613 22.98-12.395 1.8594 3.9961 3.3359 8.1641 4.4062 12.438 2.207 7.8828 0.57422 16.34-4.4062 22.832-2.9336 2.9492-4.5781 6.9375-4.5781 11.098s1.6445 8.1484 4.5781 11.102c2.9492 2.9297 6.9375 4.5781 11.098 4.5781s8.1484-1.6484 11.102-4.5781c12.883-13.918 17.809-33.434 13.066-51.801-0.96875-4.2617-2.1758-8.4688-3.6211-12.594l58.254-11.652c2.9492-0.625 5.957-0.94141 8.9727-0.94141 11.812 0.16797 23.098 4.9062 31.488 13.223l160.43 160.75c8.4766 8.4766 13.242 19.973 13.242 31.961s-4.7656 23.488-13.242 31.961zm-85.488 0h-0.003906c2.9648 2.9414 4.6406 6.9375 4.6562 11.113 0.019531 4.1758-1.625 8.1875-4.5625 11.152-2.9414 2.9648-6.9375 4.6406-11.113 4.6562-4.207-0.015625-8.2344-1.7188-11.18-4.7227l-4.7227-4.5664c-10.5 5.6328-22.543 7.7109-34.32 5.9219-11.781-1.7852-22.664-7.3438-31.02-15.84-3.9922-3.9922-5.5508-9.8125-4.0898-15.27 1.4609-5.457 5.7227-9.7148 11.18-11.18 5.4531-1.4609 11.273 0.097657 15.27 4.0938 4.5391 4.3281 10.57 6.7461 16.844 6.7461 6.2734 0 12.309-2.418 16.848-6.7461 4.4805-4.4609 7-10.523 7-16.848 0-6.3203-2.5195-12.383-7-16.844-4.5195-4.3711-10.562-6.8086-16.848-6.8086-6.2852 0-12.324 2.4375-16.844 6.8086-10.504 10.172-24.578 15.824-39.203 15.742-19.449-0.039062-37.445-10.301-47.387-27.02-9.9375-16.715-10.359-37.43-1.1055-54.535l-4.5664-4.7227c-2.1758-4.0469-2.4766-8.8477-0.81641-13.133 1.6562-4.2891 5.1055-7.6367 9.4414-9.168 4.332-1.5312 9.1211-1.0898 13.102 1.2031l4.8789 4.7227h0.003907c10.477-5.4297 22.391-7.4531 34.074-5.7891 11.688 1.6641 22.559 6.9375 31.105 15.078 2.9297 2.9492 4.5781 6.9414 4.5781 11.102s-1.6484 8.1484-4.5781 11.098c-2.957 2.9805-6.9805 4.6562-11.18 4.6562-4.1992 0-8.2227-1.6758-11.176-4.6562-4.543-4.332-10.574-6.7461-16.848-6.7461s-12.309 2.4141-16.848 6.7461c-4.4805 4.4609-6.9961 10.523-6.9961 16.848 0 6.3203 2.5156 12.383 6.9961 16.844 4.5234 4.3672 10.562 6.8086 16.848 6.8086s12.324-2.4414 16.848-6.8086c12.617-12.613 30.551-18.355 48.152-15.422 17.598 2.9336 32.699 14.184 40.547 30.207 7.8438 16.027 7.4688 34.855-1.0078 50.555z"/>
</svg>