<?xml version="1.0" encoding="UTF-8"?>
<!-- The Best Svg Icon site in the world: iconSvg.co, Visit us! https://iconsvg.co -->
<svg fill="#000000" width="800px" height="800px" version="1.1" viewBox="144 144 512 512" xmlns="http://www.w3.org/2000/svg">
 <g>
  <path d="m578.1 317.88v-31.012l-5.8945-11.055c-0.52344-0.79688-0.85938-1.6992-0.99219-2.6406v-15.746c0.085937-1.8398 0.99609-3.5469 2.4805-4.6406l13.625-10.547-14.102-15.293c-2.0469-2.2227-2.082-5.6328-0.082031-7.8984l14.609-16.617-25.949-23.191-15.184 10.863v127.54c4.9492-0.74609 9.9453-1.1211 14.953-1.1289 5.5391 0.023438 11.07 0.48438 16.535 1.3711z"/>
  <path d="m505.29 348.14v94.176h50.723c-0.32422 0.87891-0.50391 1.8008-0.53516 2.7383v91.258c0 40.258-32.73 72.297-72.988 72.297h-1.7617c-40.258 0-72.852-32.039-72.852-72.297v-168.41c0-46.77-38.348-84.82-85.117-84.82-46.77 0-85.117 38.051-85.117 84.82v133.58c0 0.11719 0.22656 0.23438 0.23438 0.35156l0.003906 0.003907c-15.375 0.89844-29.781 7.793-40.129 19.199s-15.809 26.414-15.211 41.805c0.60156 15.387 7.2109 29.926 18.414 40.492 11.203 10.57 26.105 16.32 41.5 16.02 15.398-0.29687 30.062-6.625 40.848-17.617 10.785-10.996 16.824-25.781 16.824-41.184 0-29.551-22.117-54.07-50.543-58.191 0.042969-0.28906-0.13281-0.57812-0.13281-0.87891v-133.58c0-40.258 33.051-73.012 73.309-73.012 40.258 0 73.309 32.754 73.309 73.012v168.41c0 46.77 37.891 84.105 84.66 84.105h1.7617c46.77 0 84.793-37.336 84.793-84.105v-91.258c-0.015625-0.93359-0.17969-1.8594-0.49219-2.7383h50.68v-94.176c-16.727-12.98-36.035-19.824-56.09-19.824s-39.359 6.8398-56.09 19.824zm-244.39 200.46c0 3.2539-2.6367 5.8867-5.8867 5.8867s-5.8867-2.6328-5.8867-5.8867c-0.003906-3.9727-2.9922-7.3086-6.9414-7.7461-0.79688 0.21875-1.6328 0.25781-2.4492 0.11719-3.9102 0.82031-6.5703 4.4648-6.1562 8.4375s3.7656 6.9922 7.7578 6.9922c6.4922 0.015625 12.551 3.2461 16.184 8.6211 3.6328 5.3789 4.3672 12.203 1.9609 18.23-2.4023 6.0273-7.6328 10.473-13.969 11.871v3c0 3.2578-2.6445 5.9023-5.9062 5.9023s-5.9023-2.6445-5.9023-5.9023v-4.0352c-3.543-1.5273-6.5625-4.0508-8.6953-7.2617-2.1328-3.2109-3.2891-6.9766-3.3203-10.832 0-3.2695 2.6484-5.9219 5.9219-5.9219 3.2695 0 5.9219 2.6523 5.9219 5.9219-0.003906 3.1562 1.8945 6.0039 4.8086 7.2109 2.918 1.2109 6.2734 0.54688 8.5039-1.6836 2.2344-2.2305 2.9023-5.5859 1.6992-8.5039-1.207-2.9141-4.0508-4.8164-7.207-4.8203-5.2031-0.003907-10.191-2.0703-13.875-5.7422-3.6836-3.6758-5.7578-8.6602-5.7734-13.863-0.058594-4.0547 1.168-8.0195 3.5039-11.332 2.3359-3.3125 5.6602-5.8047 9.4961-7.1133v-1.8867c0-3.2578 2.6406-5.9023 5.9023-5.9023 3.2617 0 5.9023 2.6445 5.9023 5.9023v1.4688c7.875 2.3047 14.406 9.8828 14.406 18.871zm323.41-137.78c0 3.2578-2.6406 5.9023-5.9023 5.9023h-34.031c-3.2617 0-5.9062-2.6445-5.9062-5.9023 0-3.2617 2.6445-5.9062 5.9062-5.9062h34.031c3.2617 0 5.9023 2.6445 5.9023 5.9062z"/>
 </g>
</svg>