<?xml version="1.0" encoding="UTF-8"?>
<!-- The Best Svg Icon site in the world: iconSvg.co, Visit us! https://iconsvg.co -->
<svg fill="#000000" width="800px" height="800px" version="1.1" viewBox="144 144 512 512" xmlns="http://www.w3.org/2000/svg">
 <g>
  <path d="m327.05 270.33h40.934c2.8984 0 5.2461-2.3516 5.2461-5.2461 0-2.8984-2.3516-5.2461-5.2461-5.2461h-40.934c-2.8984 0-5.2461 2.3516-5.2461 5.2461 0 2.8945 2.3477 5.2461 5.2461 5.2461z"/>
  <path d="m432.01 270.33h40.934c2.8867 0 5.2461-2.3516 5.2461-5.2461 0-2.8984-2.3633-5.2461-5.2461-5.2461h-40.934c-2.8867 0-5.2461 2.3516-5.2461 5.2461-0.003906 2.8945 2.3477 5.2461 5.2461 5.2461z"/>
  <path d="m594.18 259.84h-57.203c-2.8867 0-5.2461 2.3516-5.2461 5.2461 0 2.8984 2.3633 5.2461 5.2461 5.2461h57.203c14.473 0 26.238 11.777 26.238 26.238v242.95c0 14.453-11.766 26.238-26.238 26.238h-388.35c-14.473 0-26.238-11.785-26.238-26.238l-0.003907-242.95c0-14.465 11.766-26.238 26.238-26.238h57.203c2.8984 0 5.2461-2.3516 5.2461-5.2461 0-2.8984-2.3516-5.2461-5.2461-5.2461l-57.203-0.003906c-20.258 0-36.734 16.48-36.734 36.734v242.95c0 20.258 16.48 36.734 36.734 36.734h388.35c20.258 0 36.734-16.48 36.734-36.734l0.003906-242.95c0-20.258-16.477-36.734-36.734-36.734z"/>
  <path d="m301.61 306.41c0.31641 0 0.64062-0.019531 0.95703-0.082031 2.8438-0.51562 4.7344-3.2539 4.2188-6.1094l-13.16-72.16c-0.52344-2.8555-3.2969-4.7461-6.1094-4.2188-2.8438 0.51562-4.7344 3.2539-4.2188 6.1094l13.16 72.16c0.46094 2.5273 2.6758 4.3008 5.1523 4.3008z"/>
  <path d="m406.57 306.41c0.31641 0 0.65234-0.019531 0.95703-0.082031 2.8438-0.51562 4.7344-3.2539 4.2188-6.1094l-13.16-72.16c-0.52344-2.8555-3.3281-4.7461-6.1094-4.2188-2.8438 0.51562-4.7344 3.2539-4.2188 6.1094l13.16 72.16c0.46094 2.5273 2.6758 4.3008 5.1523 4.3008z"/>
  <path d="m511.53 306.41c0.30469 0 0.64062-0.019531 0.95703-0.082031 2.8438-0.51562 4.7344-3.2539 4.2188-6.1094l-13.172-72.16c-0.51562-2.8555-3.2969-4.7461-6.1094-4.2188-2.8438 0.51562-4.7227 3.2539-4.207 6.1094l13.16 72.16c0.45703 2.5273 2.6719 4.3008 5.1523 4.3008z"/>
  <path d="m400 377.52c14.031 0 25.453-11.41 25.453-25.441 0-14.035-11.422-25.453-25.453-25.453s-25.453 11.418-25.453 25.453c0 14.031 11.418 25.441 25.453 25.441zm0-40.398c8.2383 0 14.957 6.707 14.957 14.957 0 8.2383-6.7188 14.945-14.957 14.945s-14.957-6.707-14.957-14.945c0-8.2617 6.7148-14.957 14.957-14.957z"/>
  <path d="m508.24 377.52c14.043 0 25.441-11.41 25.441-25.441s-11.398-25.453-25.441-25.453c-14.023 0-25.453 11.418-25.453 25.453 0.003907 14.031 11.441 25.441 25.453 25.441zm0-40.398c8.2383 0 14.945 6.707 14.945 14.957 0 8.2383-6.707 14.945-14.945 14.945-8.2383 0-14.957-6.707-14.957-14.945 0.011719-8.2617 6.7188-14.957 14.957-14.957z"/>
  <path d="m291.76 377.52c14.031 0 25.441-11.41 25.441-25.441s-11.41-25.453-25.441-25.453-25.453 11.418-25.453 25.453c0.003906 14.031 11.422 25.441 25.453 25.441zm0-40.398c8.2383 0 14.945 6.707 14.945 14.957 0 8.2383-6.707 14.945-14.945 14.945s-14.957-6.707-14.957-14.945c0-8.2617 6.707-14.957 14.957-14.957z"/>
  <path d="m400 450.98c14.031 0 25.453-11.418 25.453-25.441 0-14.043-11.418-25.453-25.453-25.453-14.031 0-25.453 11.41-25.453 25.453 0 14.035 11.418 25.441 25.453 25.441zm0-40.398c8.2383 0 14.957 6.707 14.957 14.969 0 8.2383-6.7188 14.945-14.957 14.945s-14.957-6.707-14.957-14.945c0-8.2734 6.7148-14.969 14.957-14.969z"/>
  <path d="m508.24 450.98c14.043 0 25.441-11.418 25.441-25.441 0-14.043-11.398-25.453-25.441-25.453-14.023 0-25.453 11.41-25.453 25.453 0.011719 14.035 11.441 25.441 25.453 25.441zm0-40.398c8.2383 0 14.945 6.707 14.945 14.969 0 8.2383-6.707 14.945-14.945 14.945-8.2383 0-14.957-6.707-14.957-14.945 0.011719-8.2734 6.7188-14.969 14.957-14.969z"/>
  <path d="m291.76 400.08c-14.031 0-25.453 11.41-25.453 25.453 0 14.023 11.418 25.441 25.453 25.441 14.031 0 25.441-11.418 25.441-25.441 0.003906-14.031-11.406-25.453-25.441-25.453zm0 40.398c-8.2383 0-14.957-6.707-14.957-14.945 0-8.2617 6.7188-14.969 14.957-14.969s14.945 6.707 14.945 14.969c-0.007812 8.25-6.7031 14.945-14.945 14.945z"/>
  <path d="m400 524.45c14.031 0 25.453-11.418 25.453-25.441 0-14.043-11.418-25.465-25.453-25.465-14.031 0-25.453 11.418-25.453 25.465 0 14.031 11.418 25.441 25.453 25.441zm0-40.398c8.2383 0 14.957 6.707 14.957 14.969 0 8.2383-6.7188 14.945-14.957 14.945s-14.957-6.707-14.957-14.945c0-8.2734 6.7148-14.969 14.957-14.969z"/>
  <path d="m291.76 473.55c-14.031 0-25.453 11.418-25.453 25.465 0 14.023 11.418 25.441 25.453 25.441 14.031 0 25.441-11.418 25.441-25.441 0.003906-14.047-11.406-25.465-25.441-25.465zm0 40.398c-8.2383 0-14.957-6.707-14.957-14.945 0-8.2617 6.7188-14.969 14.957-14.969s14.945 6.707 14.945 14.969c-0.007812 8.25-6.7031 14.945-14.945 14.945z"/>
 </g>
</svg>