<?xml version="1.0" encoding="UTF-8"?>
<!-- The Best Svg Icon site in the world: iconSvg.co, Visit us! https://iconsvg.co -->
<svg fill="#000000" width="800px" height="800px" version="1.1" viewBox="144 144 512 512" xmlns="http://www.w3.org/2000/svg">
 <path d="m258.3 533.82v55.105l-15.742-0.003907c-4.3477 0-7.8711 3.5273-7.8711 7.875v31.488c0 2.0859 0.82812 4.0898 2.3047 5.5664 1.4766 1.4727 3.4766 2.3047 5.5664 2.3047h314.88c2.0898 0 4.0898-0.83203 5.5664-2.3047 1.4766-1.4766 2.3086-3.4805 2.3086-5.5664v-31.488c0-2.0898-0.83203-4.0898-2.3086-5.5664-1.4766-1.4766-3.4766-2.3086-5.5664-2.3086h-15.742v-55.102c0.011719-29.402-9.1211-58.078-26.133-82.055-17.012-23.977-41.059-42.07-68.812-51.77 27.754-9.7031 51.801-27.793 68.812-51.773 17.012-23.977 26.145-52.652 26.133-82.051v-55.105h15.742c2.0898 0 4.0898-0.82812 5.5664-2.3047 1.4766-1.4766 2.3086-3.4805 2.3086-5.5664v-31.488c0-2.0898-0.83203-4.0898-2.3086-5.5664-1.4766-1.4766-3.4766-2.3086-5.5664-2.3086h-314.88c-4.3477 0-7.8711 3.5273-7.8711 7.875v31.488c0 2.0859 0.82812 4.0898 2.3047 5.5664 1.4766 1.4766 3.4766 2.3047 5.5664 2.3047h15.742v55.105c-0.011719 29.398 9.1211 58.074 26.133 82.051 17.012 23.98 41.059 42.07 68.812 51.773-27.754 9.6992-51.801 27.793-68.812 51.77-17.012 23.977-26.145 52.652-26.133 82.055zm141.7-23.617h0.003906c10.293-0.011719 19.941 5.0156 25.824 13.465 5.8828 8.4453 7.2578 19.238 3.6758 28.891-3.5781 9.6523-11.66 16.938-21.629 19.504v8.9883c0 4.3477-3.5234 7.8711-7.8711 7.8711s-7.875-3.5234-7.875-7.8711v-8.9883c-6.7383-1.7422-12.711-5.6641-16.984-11.16s-6.6055-12.25-6.6289-19.211c0-4.3477 3.5234-7.8711 7.8711-7.8711 4.3477 0 7.8711 3.5234 7.8711 7.8711 0 4.1758 1.6602 8.1797 4.6133 11.133 2.9531 2.9531 6.957 4.6094 11.133 4.6094s8.1797-1.6562 11.133-4.6094c2.9492-2.9531 4.6094-6.957 4.6094-11.133 0-4.1758-1.6602-8.1797-4.6094-11.133-2.9531-2.9531-6.957-4.6133-11.133-4.6133-10.297 0.015625-19.941-5.0156-25.828-13.461-5.8828-8.4492-7.2578-19.242-3.6758-28.895 3.582-9.6484 11.66-16.934 21.629-19.5v-8.9922c0-4.3477 3.5273-7.8711 7.875-7.8711s7.8711 3.5234 7.8711 7.8711v8.9922c6.7383 1.7383 12.711 5.6641 16.984 11.156 4.2734 5.4961 6.6055 12.254 6.6328 19.211 0 4.3477-3.5273 7.875-7.875 7.875-4.3477 0-7.8711-3.5273-7.8711-7.875 0-4.1719-1.6602-8.1797-4.6094-11.133-2.9531-2.9492-6.957-4.6094-11.133-4.6094s-8.1797 1.6602-11.133 4.6094c-2.9531 2.9531-4.6133 6.9609-4.6133 11.133 0 4.1758 1.6602 8.1836 4.6133 11.133 2.9531 2.9531 6.957 4.6133 11.133 4.6133zm-125.95-244.03v-55.105h251.9v55.105c0.011719 29.031-10.016 57.172-28.379 79.66-18.363 22.484-43.934 37.934-72.383 43.723 3.3047-10.344 10.898-18.766 20.848-23.117 19.109-8.7266 35.316-22.75 46.691-40.414 11.375-17.66 17.441-38.215 17.48-59.223v-16.375c0-2.6641-1.3477-5.1484-3.582-6.6016s-5.0508-1.6758-7.4844-0.59375c-44.418 19.645-94.023 24.301-141.32 13.266l-58.355-13.738c-2.3398-0.55078-4.8086 0-6.6914 1.4961-1.8867 1.4922-2.9844 3.7656-2.9844 6.1719v16.375c0.042969 21.008 6.1094 41.566 17.488 59.227s27.586 31.688 46.703 40.41c9.9414 4.3555 17.527 12.777 20.828 23.117-28.449-5.7891-54.02-21.238-72.383-43.723-18.363-22.488-28.391-50.629-28.379-79.66zm102.34 144v5.5664c0 2.0898 0.82813 4.0898 2.3047 5.5664 1.4766 1.4766 3.4805 2.3047 5.5664 2.3047h31.488c2.0898 0 4.0898-0.82812 5.5664-2.3047 1.4766-1.4766 2.3047-3.4766 2.3047-5.5664v-5.5664c28.785 5.4766 54.758 20.82 73.438 43.395 18.684 22.57 28.902 50.953 28.898 80.254v55.105l-9.6953-0.003907-9.9258-37.227h-0.003906c-13.262-50.125-45.609-93.07-90.125-119.65-4.8906-2.9453-10.492-4.5-16.199-4.5-5.7109 0-11.312 1.5547-16.203 4.5-44.516 26.582-76.863 69.527-90.125 119.65l-9.9258 37.227h-9.6992v-55.102c-0.003906-29.301 10.219-57.684 28.898-80.254 18.68-22.574 44.652-37.918 73.438-43.395z"/>
</svg>