<?xml version="1.0" encoding="UTF-8"?>
<!-- The Best Svg Icon site in the world: iconSvg.co, Visit us! https://iconsvg.co -->
<svg fill="#000000" width="800px" height="800px" version="1.1" viewBox="144 144 512 512" xmlns="http://www.w3.org/2000/svg">
 <g>
  <path d="m402.66 325.19c5.6484 1.375 16.434 3.543 16.465 16.559 0.011719 5.043-3.1133 14.832-19.207 14.832-7.4766 0-18.148-3.3164-18.148-16.898 0 0 0.125-7.082-8.7148-7.082-8.8438 0-9.5312 7.082-9.5312 7.082 0 8.9961 1.2891 15.32 5.9844 21.469 7.0469 9.3203 15.703 12.57 22.43 13.699v7.5234c0 4.5391 3.6797 8.2188 8.2188 8.2188s8.2188-3.6797 8.2188-8.2188v-7.5859c21.086-3.6523 29-23.16 29-35.523 0-8.9922-3.2656-22.801-23.98-29.938l-18.605-6.1367c-2.8633-0.91797-14.469-5.0469-13.23-16.531 0.47266-4.3789 1.7539-7.7539 5.25-10.047 2.8633-1.832 6.3984-2.7539 10.609-2.7539 7.1602 0 12.031 1.2109 15.215 5.3359 1.75 2.3867 2.3125 4.1367 2.7969 8.2656 0 0 0.5625 6.8047 8.7148 6.8047 8.1523 0 9.4023-6.4805 9.5625-7.6523 0.73047-5.2891-2.1445-14.148-6.1602-19.402-4.625-6.0703-11.199-9.7422-19.172-11.309v-8.4336c0-4.5391-3.6797-8.2188-8.2188-8.2188s-8.2188 3.6797-8.2188 8.2188v8c-9.5391 1.2305-16.801 5.0781-21.715 11.648-4.293 5.7773-11.461 16.906-4.1172 36.164 6.3359 16.605 36.555 21.91 36.555 21.91z"/>
  <path d="m459.49 501.08c41.988 0 74.883-20.57 74.883-46.824s-32.891-46.824-74.883-46.824c-23.582 0-45.566 6.8164-59.5 18.133-13.93-11.309-35.91-18.129-59.496-18.129-41.984 0-74.875 20.57-74.875 46.824 0 26.254 32.891 46.824 74.875 46.824 19.711 0 38.23-4.8125 51.938-12.977v49.977c-53.617 1.7773-87.406 22.152-97.348 42.406-1.8398 3.75-0.29297 8.2773 3.457 10.117 1.0742 0.52344 2.207 0.77734 3.3242 0.77734 2.793 0 5.4766-1.5586 6.793-4.2266 8.0664-16.434 40.09-34.121 91.336-34.121 49.629 0 80.035 18.148 91.934 35.129 2.3984 3.4219 7.1094 4.2539 10.523 1.8555 3.4141-2.3984 4.2461-7.1094 1.8555-10.523-13.43-19.164-45.734-39.527-96.758-41.387v-49.988c13.715 8.1445 32.234 12.957 51.941 12.957zm-178.75-46.824c0-17.191 27.367-31.711 59.762-31.711 22.57 0 43.73 7.2383 53.902 18.438 1.4297 1.5781 3.4648 2.4805 5.5938 2.4805 2.125 0 4.1602-0.90234 5.5938-2.4805 10.176-11.203 31.336-18.445 53.902-18.445 32.395 0 59.766 14.52 59.766 31.711s-27.371 31.711-59.766 31.711c-22.566 0-43.727-7.2383-53.902-18.445-1.4375-1.5781-3.4648-2.4727-5.5938-2.4727-2.1328 0-4.1602 0.90234-5.5938 2.4805-10.172 11.203-31.332 18.438-53.902 18.438-32.395 0.007813-59.762-14.512-59.762-31.703z"/>
  <path d="m440.33 454.25c0-4.1758-3.3789-7.5586-7.5586-7.5586h-65.555c-4.1758 0-7.5586 3.3789-7.5586 7.5586 0 4.1758 3.3789 7.5586 7.5586 7.5586h65.562c4.1719 0 7.5508-3.3867 7.5508-7.5586z"/>
 </g>
</svg>