<?xml version="1.0" encoding="UTF-8"?>
<!-- The Best Svg Icon site in the world: iconSvg.co, Visit us! https://iconsvg.co -->
<svg fill="#000000" width="800px" height="800px" version="1.1" viewBox="144 144 512 512" xmlns="http://www.w3.org/2000/svg">
 <g>
  <path d="m266.26 476.07c-21.699 0-42.18-8.793-57.668-24.762-15.359-15.836-23.82-36.617-23.82-58.52 0-2.1719 1.7617-3.9375 3.9375-3.9375h156.19c2.1719 0 3.9375 1.7617 3.9375 3.9375-0.003906 45.145-37.82 83.281-82.578 83.281zm-73.512-79.344c2.0781 39.129 34.895 71.473 73.512 71.473 39.184 0 72.488-32.34 74.598-71.473z"/>
  <path d="m216.26 396.73c-0.44141 0-0.88672-0.074219-1.3242-0.23047-2.0469-0.73047-3.1133-2.9844-2.3828-5.0312l45.988-128.64c0.54688-1.5234 1.9688-2.5586 3.5859-2.6094 1.5938-0.066406 3.1016 0.89453 3.7383 2.3828l55.102 128.64c0.85547 1.9961-0.070313 4.3125-2.0703 5.168-2 0.85547-4.3125-0.070312-5.168-2.0703l-51.148-119.42-42.613 119.2c-0.57422 1.6094-2.0898 2.6133-3.707 2.6133z"/>
  <path d="m533.74 446.55c-44.875 0-81.383-36.473-81.383-81.309 0-2.1719 1.7617-3.9375 3.9375-3.9375h154.89c2.1719 0 3.9375 1.7617 3.9375 3.9375-0.003906 44.836-36.508 81.309-81.383 81.309zm-73.406-77.371c2.0508 38.672 34.191 69.5 73.406 69.5 39.211 0 71.352-30.828 73.406-69.5z"/>
  <path d="m583.63 369.18c-1.6172 0-3.1328-1.0039-3.707-2.6133l-42.508-119.18-51.148 119.41c-0.85547 2-3.168 2.9258-5.168 2.0703-1.9961-0.85547-2.9258-3.168-2.0703-5.168l55.102-128.64c0.63672-1.4883 2.1328-2.4453 3.7383-2.3828 1.6172 0.050781 3.043 1.0859 3.5859 2.6133l45.883 128.64c0.73047 2.0469-0.33594 4.3008-2.3867 5.0273-0.4375 0.15625-0.88281 0.22656-1.3203 0.22656z"/>
  <path d="m445.77 249.76c-2.043 0-3.7695-1.5781-3.9219-3.6484-0.15625-2.168 1.4727-4.0547 3.6406-4.2109l135.27-9.8477c2.1602-0.16016 4.0508 1.4727 4.2109 3.6406 0.15625 2.168-1.4727 4.0547-3.6406 4.2109l-135.27 9.8477c-0.097656 0.003906-0.19531 0.007812-0.28906 0.007812z"/>
  <path d="m226.8 269.43c-2.0273 0-3.75-1.5586-3.918-3.6133-0.17969-2.168 1.4336-4.0664 3.6016-4.2461l127.21-10.453c2.1602-0.18359 4.0664 1.4336 4.2461 3.6016 0.17969 2.168-1.4336 4.0664-3.6016 4.2461l-127.21 10.453c-0.10938 0.007812-0.21875 0.011719-0.32422 0.011719z"/>
  <path d="m492.48 535.11h-186.96c-2.1719 0-3.9375-1.7617-3.9375-3.9375v-39.359c0-2.1719 1.7617-3.9375 3.9375-3.9375h77.012c1.1016 0 2.1562 0.46484 2.9023 1.2773s1.1172 1.9023 1.0195 3l-0.039063 0.42969c-0.14453 1.6836 0.40234 3.2969 1.543 4.543s2.6992 1.9297 4.3867 1.9297h23.938c1.7383 0 3.3281-0.71875 4.4727-2.0273 1.1484-1.3086 1.6562-2.9766 1.4297-4.6992-0.14453-1.125 0.19922-2.2578 0.94922-3.1133 0.75-0.85156 1.8789-1.332 2.9648-1.332l67.145 0.23047c1.0547 0.003906 2.0625 0.42969 2.8008 1.1836 0.73828 0.75391 1.1406 1.7734 1.1211 2.8281l-0.75781 39.121c-0.03125 2.1445-1.7812 3.8633-3.9258 3.8633zm-183.02-7.8711h179.16l0.60547-31.266-59.375-0.20312c-0.46484 2.3672-1.5508 4.6016-3.1758 6.4531-2.625 2.9883-6.4102 4.7031-10.391 4.7031h-23.938c-3.8633 0-7.5781-1.6328-10.188-4.4805-1.7344-1.8906-2.8906-4.2188-3.3789-6.6953h-69.324z"/>
  <path d="m416.29 506.93h-23.938c-3.8633 0-7.5781-1.6328-10.191-4.4844-2.6133-2.8516-3.918-6.6914-3.582-10.543l16.637-191.32c0.17578-2.0352 1.8789-3.5938 3.9219-3.5938h2.0586c1.9766 0 3.6484 1.4648 3.9023 3.4258l24.902 190.9c0.51172 3.9453-0.69531 7.9219-3.3203 10.914-2.625 2.9922-6.4141 4.7031-10.391 4.7031zm-15.547-179.05-14.32 164.71c-0.14453 1.6836 0.40234 3.2969 1.543 4.5391 1.1406 1.2461 2.6992 1.9297 4.3867 1.9297h23.938c1.7383 0 3.3281-0.71875 4.4727-2.0273 1.1484-1.3086 1.6562-2.9766 1.4297-4.6992z"/>
  <path d="m262.25 268.09c-2.1719 0-3.9375-1.7617-3.9375-3.9375l0.003906-36.66c0-2.1719 1.7617-3.9375 3.9375-3.9375 2.1719 0 3.9375 1.7617 3.9375 3.9375v36.664c-0.003906 2.1719-1.7656 3.9336-3.9414 3.9336z"/>
  <path d="m537.75 240.54c-2.1719 0-3.9375-1.7617-3.9375-3.9375v-36.66c0-2.1719 1.7617-3.9375 3.9375-3.9375 2.1719 0 3.9375 1.7617 3.9375 3.9375v36.664c0 2.1719-1.7656 3.9336-3.9375 3.9336z"/>
  <path d="m400.43 304.86c-27.77 0-50.359-22.348-50.359-49.816 0-27.531 22.594-49.926 50.359-49.926 27.707 0 50.25 22.395 50.25 49.926 0 27.469-22.543 49.816-50.25 49.816zm0-91.871c-23.426 0-42.488 18.867-42.488 42.055 0 23.129 19.059 41.945 42.488 41.945 23.367 0 42.379-18.816 42.379-41.945 0-23.188-19.012-42.055-42.379-42.055z"/>
  <path d="m400.39 265.5c-5.8359 0-10.582-4.7109-10.582-10.504 0-5.8008 4.7461-10.52 10.582-10.52 5.8242 0 10.566 4.7188 10.566 10.52 0 5.793-4.7422 10.504-10.566 10.504zm0-13.152c-1.4922 0-2.707 1.1875-2.707 2.6484 0 1.4531 1.2148 2.6328 2.707 2.6328 1.4844 0 2.6914-1.1797 2.6914-2.6328 0-1.4609-1.207-2.6484-2.6914-2.6484z"/>
  <path d="m620.4 603.99h-440.81c-2.1719 0-3.9375-1.7617-3.9375-3.9375 0-2.1719 1.7617-3.9375 3.9375-3.9375h440.8c2.1719 0 3.9375 1.7617 3.9375 3.9375 0 2.1758-1.7617 3.9375-3.9336 3.9375z"/>
  <path d="m531.84 564.63h-265.68c-2.1719 0-3.9375-1.7617-3.9375-3.9375v-29.52c0-2.1719 1.7617-3.9375 3.9375-3.9375h265.68c2.1719 0 3.9375 1.7617 3.9375 3.9375v29.52c0 2.1758-1.7617 3.9375-3.9375 3.9375zm-261.74-7.8711h257.81v-21.648h-257.81z"/>
  <path d="m590.88 603.99h-383.76c-2.1719 0-3.9375-1.7617-3.9375-3.9375v-39.359c0-2.1719 1.7617-3.9375 3.9375-3.9375h383.76c2.1719 0 3.9375 1.7617 3.9375 3.9375v39.359c-0.003906 2.1758-1.7656 3.9375-3.9375 3.9375zm-379.83-7.8711h375.89v-31.488h-375.89z"/>
 </g>
</svg>