<?xml version="1.0" encoding="UTF-8"?>
<!-- The Best Svg Icon site in the world: iconSvg.co, Visit us! https://iconsvg.co -->
<svg fill="#000000" width="800px" height="800px" version="1.1" viewBox="144 144 512 512" xmlns="http://www.w3.org/2000/svg">
 <path d="m548.34 169.09h-296.69c-14.473 0-26.238 11.766-26.238 26.238v409.34c0 14.473 11.766 26.238 26.238 26.238h296.71c14.473 0 26.238-11.766 26.238-26.238v-409.34c-0.019531-14.473-11.785-26.238-26.258-26.238zm-162.92 71.238c0-8.6797 7.0625-15.742 15.742-15.742h94.758c8.6914 0 15.742 7.0625 15.742 15.742v102.5c0 8.668-7.0547 15.742-15.742 15.742h-94.758c-8.6797 0-15.742-7.0742-15.742-15.742zm-120.55 8.082h81.797c2.8984 0 5.2461 2.3516 5.2461 5.2461 0 2.8984-2.3516 5.2461-5.2461 5.2461h-81.797c-2.8984 0-5.2461-2.3516-5.2461-5.2461 0-2.8984 2.3398-5.2461 5.2461-5.2461zm0 41.98h81.797c2.8984 0 5.2461 2.3516 5.2461 5.2461 0 2.8984-2.3516 5.2461-5.2461 5.2461h-81.797c-2.8984 0-5.2461-2.3516-5.2461-5.2461 0-2.8945 2.3398-5.2461 5.2461-5.2461zm0 41.984h81.797c2.8984 0 5.2461 2.3516 5.2461 5.2461 0 2.8984-2.3516 5.2461-5.2461 5.2461h-81.797c-2.8984 0-5.2461-2.3516-5.2461-5.2461 0-2.8945 2.3398-5.2461 5.2461-5.2461zm0 41.984h81.797c2.8984 0 5.2461 2.3516 5.2461 5.2461 0 2.8984-2.3516 5.2461-5.2461 5.2461h-81.797c-2.8984 0-5.2461-2.3516-5.2461-5.2461 0-2.8945 2.3398-5.2461 5.2461-5.2461zm261.27 178.43h-261.27c-2.8984 0-5.2461-2.3516-5.2461-5.2461 0-2.8867 2.3516-5.2461 5.2461-5.2461l261.29-0.003906c2.8867 0 5.2461 2.3633 5.2461 5.2461 0.003906 2.8984-2.3594 5.25-5.2656 5.25zm0-41.984h-261.27c-2.8984 0-5.2461-2.3516-5.2461-5.2461 0-2.8867 2.3516-5.2461 5.2461-5.2461l261.29-0.003906c2.8867 0 5.2461 2.3633 5.2461 5.2461 0.003906 2.8984-2.3594 5.25-5.2656 5.25zm0-41.984h-261.27c-2.8984 0-5.2461-2.3516-5.2461-5.2461 0-2.8867 2.3516-5.2461 5.2461-5.2461l261.29-0.003906c2.8867 0 5.2461 2.3633 5.2461 5.2461 0.003906 2.8984-2.3594 5.25-5.2656 5.25zm0-41.984h-261.27c-2.8984 0-5.2461-2.3516-5.2461-5.2461 0-2.8867 2.3516-5.2461 5.2461-5.2461l261.29-0.003906c2.8867 0 5.2461 2.3633 5.2461 5.2461 0.003906 2.8984-2.3594 5.25-5.2656 5.25z"/>
</svg>