<?xml version="1.0" encoding="UTF-8"?>
<!-- The Best Svg Icon site in the world: iconSvg.co, Visit us! https://iconsvg.co -->
<svg fill="#000000" width="800px" height="800px" version="1.1" viewBox="144 144 512 512" xmlns="http://www.w3.org/2000/svg">
 <path d="m622 576.5h-38.691l-1.2188-21.922-2.5273-45.688h42.441l-0.003906-0.003906c1.5664-0.003907 2.9922-0.89453 3.6797-2.3008 0.69141-1.4062 0.52344-3.0781-0.43359-4.3203l-49.621-64.383-2.6367-47.605h42.688-0.003906c1.5664 0 2.9961-0.89062 3.6875-2.2969s0.52734-3.0859-0.42969-4.3281l-50.402-65.324c-0.78516-1.0195-2-1.6055-3.2852-1.5859h-70.547l-0.31641 0.078124-0.32422 0.097657h-0.11719l-0.27734 0.13672 0.003906 0.003906c-0.11719 0.054687-0.23047 0.11719-0.34375 0.18359-0.10937 0.066406-0.21484 0.14062-0.3125 0.21875-0.10937 0.074218-0.21484 0.15625-0.31641 0.24609l-0.089844 0.078125c-0.078124 0.070313-0.12891 0.15625-0.19531 0.22656-0.070312 0.078125-0.14844 0.13672-0.21484 0.22656l-50.402 65.379v-0.003907c-0.95703 1.2422-1.125 2.9219-0.43359 4.3242 0.69531 1.4062 2.125 2.3008 3.6914 2.3008h42.441l-2.668 47.645-49.633 64.375c-0.94922 1.2422-1.1133 2.9141-0.42188 4.3164 0.69141 1.4023 2.1133 2.2969 3.6797 2.3047h42.438l-2.5391 45.688-1.2109 21.922h-99.254l-1.7695-31.98-3.6094-65.219h60.691-0.003906c1.5664 0 2.9961-0.89062 3.6836-2.293 0.69141-1.4062 0.52344-3.082-0.43359-4.3203l-69.293-89.887-3.7891-68.398h61.008c1.5664 0 2.9961-0.89062 3.6875-2.2969 0.69141-1.4062 0.52344-3.0859-0.42969-4.3242l-70.043-90.895c-0.82031-1.0586-2.1055-1.6523-3.4453-1.582h-96.922c-0.097657-0.007813-0.19141-0.007813-0.28516 0-0.10547-0.007813-0.21094-0.007813-0.31641 0h-0.13672c-0.11719 0-0.22656 0.058593-0.34375 0.089843-0.11719 0.03125-0.20703 0-0.30469 0.089844h-0.10938v-0.003906c-0.10547 0.042969-0.20703 0.09375-0.30469 0.14844-0.10938 0.046874-0.21484 0.097656-0.31641 0.15625l-0.34375 0.24609c-0.10156 0.070313-0.20312 0.14453-0.29688 0.22656l-0.089844 0.089844c-0.078125 0.070312-0.12891 0.14844-0.19531 0.21484-0.070313 0.078125-0.14844 0.13672-0.20703 0.21484l-70.078 91.004c-0.95703 1.2383-1.125 2.918-0.43359 4.3242 0.69141 1.4062 2.1211 2.2969 3.6914 2.2969h60.691l-3.7891 68.379-69.293 89.887c-0.95703 1.2383-1.125 2.9141-0.4375 4.3203 0.69141 1.4023 2.1211 2.293 3.6836 2.293h60.695l-3.6133 65.219-1.7695 31.98h-55.312c-2.2695 0-4.1133 1.8438-4.1133 4.1133 0 2.2734 1.8438 4.1133 4.1133 4.1133h444c2.2695 0 4.1133-1.8398 4.1133-4.1133 0-2.2695-1.8438-4.1133-4.1133-4.1133zm-86.898-201.54 26.52-41.277 5.0078 90.371zm28.969 60.309h-67.699l33.852-52.703zm-33.852-67.895-27.277-42.469h54.555zm-31.398-33.684 26.52 41.277-31.488 49.082zm-6.4844 116.95 32.688 42.312-37.742 48.895zm4.9219-7.1328h66.016l-33.004 42.746zm70.848 7.1328 5.0469 91.219-37.746-48.887zm45.531 50.016h-34.551l-2.6758-48.266zm-41.102-118.61-2.6953-48.609 37.48 48.609zm-119.16 0 37.215-48.215-2.6758 48.215zm-6.5742 118.6 37.215-48.266-2.6758 48.266zm-136.34-205.94 40.098-62.434 7.5781 136.65zm45.117 85.441h-99.973l49.996-77.844zm-49.996-93.047-40.836-63.609h81.672zm-44.961-54.82 40.098 62.426-47.676 74.215zm-9.0547 163.23 48.836 63.242-56.383 73.023zm4.9219-7.1328h98.254l-49.152 63.656zm103.18 7.1328 7.5469 136.27-56.383-73.023zm12.41 75.531-4.082-73.801 56.875 73.801zm-9.1641-164.89-4.1133-74.262 57.25 74.262zm-167.41 0 56.887-73.801-4.0938 73.801zm-9.1289 164.89 56.875-73.801-4.0938 73.801zm55.211 105.45 1.6719-30.23 62.387-80.785 62.387 80.785 1.6719 30.23zm243.82 0 1.1211-20.164 43.738-56.648 43.738 56.648 1.1211 20.164z"/>
</svg>