<?xml version="1.0" encoding="UTF-8"?>
<!-- The Best Svg Icon site in the world: iconSvg.co, Visit us! https://iconsvg.co -->
<svg fill="#000000" width="800px" height="800px" version="1.1" viewBox="144 144 512 512" xmlns="http://www.w3.org/2000/svg">
 <g>
  <path d="m515.48 322.81c-0.10547-0.14062-0.41797-0.37109-0.93359-0.69141-0.51562-0.32031-1.1719-0.66406-1.9727-1.0391-0.80078-0.37109-1.6875-0.72656-2.6641-1.0664-0.97656-0.33594-1.9609-0.57812-2.957-0.71875v7.2422l1.7031 0.42578c1.8125 0.49609 3.4414 1.0391 4.8984 1.625 1.457 0.58594 2.6914 1.3125 3.7031 2.1836 1.0117 0.87109 1.793 1.9258 2.3438 3.168s0.82812 2.7344 0.82812 4.4727c0 2.0234-0.35547 3.7461-1.0664 5.1641-0.71094 1.418-1.6602 2.582-2.8516 3.4883s-2.5547 1.5898-4.1016 2.0508c-1.543 0.46094-3.168 0.72656-4.8711 0.80078v6.1758h-3.6758v-6.2305c-2.4492-0.21484-4.8711-0.71094-7.2734-1.4922-2.3984-0.78125-4.5547-1.8125-6.4727-3.0898l3.8359-7.6172c0.14062 0.17969 0.52344 0.47266 1.1445 0.87891 0.62109 0.41016 1.4102 0.83594 2.3711 1.2773 0.96094 0.44531 2.0391 0.87109 3.25 1.2773 1.207 0.41016 2.4492 0.70312 3.7266 0.87891v-7.082l-2.5586-0.74609c-1.7422-0.53516-3.25-1.1094-4.5273-1.7305-1.2773-0.62109-2.3359-1.3398-3.1719-2.1562-0.83594-0.81641-1.457-1.7578-1.8672-2.8242-0.41016-1.0664-0.61328-2.3086-0.61328-3.7266 0-1.8477 0.32031-3.4883 0.96094-4.9258 0.63672-1.4375 1.5-2.6719 2.582-3.7031 1.082-1.0273 2.3594-1.8359 3.832-2.4219 1.4727-0.58594 3.0625-0.96875 4.7656-1.1445v-5.3789h3.6758v5.3789c2.3086 0.21484 4.4727 0.72656 6.5 1.543 2.0234 0.81641 3.7812 1.6523 5.2734 2.5039zm-14.75-0.47656c0 0.88672 0.30859 1.5898 0.93359 2.1055 0.62109 0.51562 1.5547 0.96875 2.7969 1.3594v-6.5508c-2.4883 0.20703-3.7305 1.2383-3.7305 3.0859zm10.332 16.938c0-0.92188-0.37109-1.6406-1.1172-2.1562-0.74609-0.51172-1.7422-0.98438-2.9844-1.4102v6.3906c2.7344-0.10938 4.1016-1.0508 4.1016-2.8242z"/>
  <path d="m348.76 298.71c-3.8438-3.8438-3.8438-10.074 0-13.918s10.074-3.8438 13.918 0 3.8438 10.074 0 13.918c-3.8477 3.8438-10.078 3.8438-13.918 0z"/>
  <path d="m378.28 288.88c-3.8438-3.8438-3.8438-10.074 0-13.918s10.074-3.8438 13.918 0 3.8438 10.074 0 13.918-10.074 3.8438-13.918 0z"/>
  <path d="m407.8 279.04c-3.8438-3.8438-3.8438-10.074 0-13.918 3.8398-3.8438 10.07-3.8438 13.918 0 3.8398 3.8438 3.8398 10.074 0 13.918-3.8438 3.8438-10.074 3.8438-13.918 0z"/>
  <path d="m437.32 269.2c-3.8438-3.8438-3.8438-10.074 0-13.918 3.8398-3.8438 10.07-3.8438 13.918 0 3.8398 3.8438 3.8398 10.074 0 13.918-3.8438 3.8438-10.074 3.8438-13.918 0z"/>
  <path d="m466.84 259.36c-3.8398-3.8438-3.8398-10.074 0-13.918 3.8438-3.8438 10.074-3.8438 13.918 0 3.8398 3.8438 3.8398 10.074 0 13.918-3.8438 3.8438-10.074 3.8438-13.918 0z"/>
  <path d="m496.36 249.52c-3.8398-3.8438-3.8398-10.074 0-13.918 3.8438-3.8438 10.074-3.8438 13.918 0 3.8398 3.8438 3.8398 10.074 0 13.918-3.8438 3.8438-10.074 3.8438-13.918 0z"/>
  <path d="m525.88 239.68c-3.8398-3.8438-3.8398-10.074 0-13.918 3.8438-3.8438 10.074-3.8438 13.918 0 3.8398 3.8438 3.8398 10.074 0 13.918-3.8477 3.8438-10.078 3.8438-13.918 0z"/>
  <path d="m555.4 229.84c-3.8398-3.8438-3.8398-10.074 0-13.918 3.8438-3.8438 10.074-3.8438 13.918 0 3.8398 3.8438 3.8398 10.074 0 13.918-3.8477 3.8438-10.078 3.8438-13.918 0z"/>
  <path d="m505.29 374.41c-23.875 0-43.297-19.422-43.297-43.297s19.422-43.297 43.297-43.297 43.297 19.422 43.297 43.297-19.422 43.297-43.297 43.297zm0-78.719c-19.535 0-35.426 15.891-35.426 35.426s15.891 35.426 35.426 35.426 35.426-15.891 35.426-35.426-15.891-35.426-35.426-35.426z"/>
  <path d="m505.29 590.89c-2.1719 0-3.9375-1.7617-3.9375-3.9375l0.003906-216.48c0-2.1719 1.7617-3.9375 3.9375-3.9375 2.1719 0 3.9375 1.7617 3.9375 3.9375v216.48c-0.003906 2.1758-1.7656 3.9375-3.9414 3.9375z"/>
  <path d="m526.93 453.13h-21.648c-2.1719 0-3.9375-1.7617-3.9375-3.9375 0-29.297 23.836-53.137 53.137-53.137h21.648c2.1719 0 3.9375 1.7617 3.9375 3.9375 0 29.301-23.836 53.137-53.137 53.137zm-17.543-7.8711h17.543c23.633 0 43.094-18.203 45.094-41.328h-17.539c-23.637 0-43.098 18.203-45.098 41.328z"/>
  <path d="m526.93 531.86h-21.648c-2.1719 0-3.9375-1.7617-3.9375-3.9375 0-29.297 23.836-53.137 53.137-53.137h21.648c2.1719 0 3.9375 1.7617 3.9375 3.9375 0 29.297-23.836 53.137-53.137 53.137zm-17.543-7.8711h17.543c23.633 0 43.094-18.203 45.094-41.328h-17.539c-23.637 0-43.098 18.203-45.098 41.328z"/>
  <path d="m507.25 453.13h-21.648c-29.297 0-53.137-23.836-53.137-53.137 0-2.1719 1.7617-3.9375 3.9375-3.9375h21.648c29.297 0 53.137 23.836 53.137 53.137 0 2.1758-1.7617 3.9375-3.9375 3.9375zm-66.742-49.199c2 23.125 21.461 41.328 45.094 41.328h17.543c-2-23.125-21.461-41.328-45.094-41.328z"/>
  <path d="m507.25 531.86h-21.648c-29.297 0-53.137-23.836-53.137-53.137 0-2.1719 1.7617-3.9375 3.9375-3.9375h21.648c29.297 0 53.137 23.836 53.137 53.137 0 2.1758-1.7617 3.9375-3.9375 3.9375zm-66.742-49.199c2 23.125 21.461 41.328 45.094 41.328h17.543c-2-23.125-21.461-41.328-45.094-41.328z"/>
  <path d="m335.69 358.03c-0.089844-0.12109-0.36328-0.32422-0.80859-0.60156-0.44531-0.27734-1.0156-0.57813-1.707-0.89844-0.69141-0.32422-1.4609-0.62891-2.3086-0.92188-0.84766-0.29297-1.6992-0.5-2.5625-0.62109v6.2773l1.4766 0.36719c1.5703 0.42969 2.9844 0.89844 4.2461 1.4062 1.2617 0.50781 2.332 1.1367 3.207 1.8906 0.87891 0.75391 1.5547 1.668 2.0312 2.7461s0.71484 2.3711 0.71484 3.8789c0 1.7539-0.30859 3.2461-0.92188 4.4766-0.61328 1.2305-1.4375 2.2383-2.4688 3.0234-1.0312 0.78516-2.2148 1.3789-3.5547 1.7773-1.3398 0.39844-2.7461 0.62891-4.2227 0.69141v5.3555h-3.1836v-5.4023c-2.125-0.18359-4.2227-0.61328-6.3008-1.293-2.0781-0.67578-3.9453-1.5703-5.6094-2.6758l3.3242-6.6016c0.12109 0.15234 0.45312 0.41016 0.99219 0.76172 0.53906 0.35547 1.2227 0.72266 2.0547 1.1094 0.83203 0.38672 1.7695 0.75391 2.8164 1.1094s2.125 0.60938 3.2305 0.76172v-6.1406l-2.2148-0.64844c-1.5078-0.46094-2.8164-0.96094-3.9219-1.5-1.1094-0.53906-2.0234-1.1602-2.7461-1.8711-0.72266-0.70703-1.2617-1.5234-1.6172-2.4453s-0.53125-2-0.53125-3.2305c0-1.5977 0.27734-3.0234 0.83203-4.2695 0.55469-1.2461 1.3008-2.3164 2.2383-3.207 0.9375-0.89063 2.0469-1.5938 3.3242-2.1016s2.6523-0.83984 4.1289-0.99219v-4.6641h3.1836v4.6641c2 0.18359 3.8789 0.62891 5.6328 1.3398 1.7539 0.70703 3.2773 1.4297 4.5703 2.168zm-12.785-0.41797c0 0.76953 0.26953 1.3789 0.80859 1.8242 0.53906 0.44531 1.3477 0.83984 2.4219 1.1758v-5.6758c-2.1523 0.18359-3.2305 1.0781-3.2305 2.6758zm8.957 14.68c0-0.80078-0.32422-1.4219-0.96875-1.8711-0.64844-0.44531-1.5078-0.85547-2.5859-1.2227v5.5391c2.3672-0.089843 3.5547-0.90625 3.5547-2.4453z"/>
  <path d="m326.86 403.28c-20.98 0-38.047-17.07-38.047-38.047-0.003906-20.98 17.066-38.047 38.047-38.047s38.047 17.07 38.047 38.047c0 20.98-17.066 38.047-38.047 38.047zm0-68.223c-16.641 0-30.176 13.535-30.176 30.176s13.535 30.176 30.176 30.176 30.176-13.535 30.176-30.176-13.539-30.176-30.176-30.176z"/>
  <path d="m326.86 590.89c-2.1719 0-3.9375-1.7617-3.9375-3.9375v-187.61c0-2.1719 1.7617-3.9375 3.9375-3.9375 2.1719 0 3.9375 1.7617 3.9375 3.9375l-0.003907 187.62c0 2.1719-1.7617 3.9336-3.9336 3.9336z"/>
  <path d="m345.62 471.5h-18.762c-2.1719 0-3.9375-1.7617-3.9375-3.9375 0-25.684 20.895-46.578 46.574-46.578h18.762c2.1719 0 3.9375 1.7617 3.9375 3.9375 0 12.441-4.8438 24.137-13.641 32.934s-20.496 13.645-32.934 13.645zm-14.629-7.8711h14.629c10.34 0 20.059-4.0273 27.367-11.336 6.375-6.375 10.25-14.582 11.141-23.434h-14.629c-20.016 0-36.531 15.27-38.508 34.77z"/>
  <path d="m345.62 539.73h-18.762c-2.1719 0-3.9375-1.7617-3.9375-3.9375 0-25.684 20.895-46.574 46.574-46.574h18.762c2.1719 0 3.9375 1.7617 3.9375 3.9375 0 12.441-4.8438 24.137-13.641 32.934-8.7969 8.7969-20.496 13.641-32.934 13.641zm-14.629-7.8711h14.629c10.34 0 20.059-4.0273 27.367-11.336 6.375-6.375 10.25-14.578 11.141-23.434h-14.629c-20.016 0-36.531 15.27-38.508 34.77z"/>
  <path d="m328.56 471.5h-18.762c-25.684 0-46.574-20.895-46.574-46.578 0-2.1719 1.7617-3.9375 3.9375-3.9375h18.762c25.684 0 46.574 20.895 46.574 46.578 0 2.1758-1.7617 3.9375-3.9375 3.9375zm-57.266-42.641c1.9805 19.5 18.492 34.77 38.504 34.77h14.629c-1.9805-19.5-18.492-34.77-38.504-34.77z"/>
  <path d="m328.56 539.73h-18.762c-25.684 0-46.574-20.895-46.574-46.574 0-2.1719 1.7617-3.9375 3.9375-3.9375h18.762c25.684 0 46.574 20.895 46.574 46.574 0 2.1758-1.7617 3.9375-3.9375 3.9375zm-57.266-42.641c1.9766 19.5 18.492 34.77 38.504 34.77h14.629c-1.9805-19.5-18.492-34.77-38.504-34.77z"/>
  <path d="m601.72 590.89h-373.92c-2.1719 0-3.9375-1.7617-3.9375-3.9375l0.003906-364.08c0-2.1719 1.7617-3.9375 3.9375-3.9375 2.1719 0 3.9375 1.7617 3.9375 3.9375v360.14h369.98c2.1719 0 3.9375 1.7617 3.9375 3.9375-0.003906 2.1719-1.7656 3.9336-3.9414 3.9336z"/>
  <path d="m227.8 246.49h-29.52c-2.1719 0-3.9375-1.7617-3.9375-3.9375 0-2.1719 1.7617-3.9375 3.9375-3.9375h29.52c2.1719 0 3.9375 1.7617 3.9375 3.9375 0 2.1758-1.7617 3.9375-3.9375 3.9375z"/>
  <path d="m227.8 276.02h-29.52c-2.1719 0-3.9375-1.7617-3.9375-3.9375 0-2.1719 1.7617-3.9375 3.9375-3.9375h29.52c2.1719 0 3.9375 1.7617 3.9375 3.9375 0 2.1719-1.7617 3.9375-3.9375 3.9375z"/>
  <path d="m227.8 305.54h-29.52c-2.1719 0-3.9375-1.7617-3.9375-3.9375 0-2.1719 1.7617-3.9375 3.9375-3.9375h29.52c2.1719 0 3.9375 1.7617 3.9375 3.9375 0 2.1758-1.7617 3.9375-3.9375 3.9375z"/>
  <path d="m227.8 335.05h-29.52c-2.1719 0-3.9375-1.7617-3.9375-3.9375 0-2.1719 1.7617-3.9375 3.9375-3.9375h29.52c2.1719 0 3.9375 1.7617 3.9375 3.9375 0 2.1758-1.7617 3.9375-3.9375 3.9375z"/>
  <path d="m227.8 364.57h-29.52c-2.1719 0-3.9375-1.7617-3.9375-3.9375 0-2.1719 1.7617-3.9375 3.9375-3.9375h29.52c2.1719 0 3.9375 1.7617 3.9375 3.9375s-1.7617 3.9375-3.9375 3.9375z"/>
  <path d="m227.8 394.09h-29.52c-2.1719 0-3.9375-1.7617-3.9375-3.9375 0-2.1719 1.7617-3.9375 3.9375-3.9375h29.52c2.1719 0 3.9375 1.7617 3.9375 3.9375s-1.7617 3.9375-3.9375 3.9375z"/>
  <path d="m227.8 423.61h-29.52c-2.1719 0-3.9375-1.7617-3.9375-3.9375 0-2.1719 1.7617-3.9375 3.9375-3.9375h29.52c2.1719 0 3.9375 1.7617 3.9375 3.9375s-1.7617 3.9375-3.9375 3.9375z"/>
  <path d="m227.8 453.13h-29.52c-2.1719 0-3.9375-1.7617-3.9375-3.9375 0-2.1719 1.7617-3.9375 3.9375-3.9375h29.52c2.1719 0 3.9375 1.7617 3.9375 3.9375 0 2.1758-1.7617 3.9375-3.9375 3.9375z"/>
  <path d="m227.8 482.66h-29.52c-2.1719 0-3.9375-1.7617-3.9375-3.9375 0-2.1719 1.7617-3.9375 3.9375-3.9375h29.52c2.1719 0 3.9375 1.7617 3.9375 3.9375 0 2.1719-1.7617 3.9375-3.9375 3.9375z"/>
  <path d="m227.8 512.18h-29.52c-2.1719 0-3.9375-1.7617-3.9375-3.9375 0-2.1719 1.7617-3.9375 3.9375-3.9375h29.52c2.1719 0 3.9375 1.7617 3.9375 3.9375s-1.7617 3.9375-3.9375 3.9375z"/>
  <path d="m227.8 541.7h-29.52c-2.1719 0-3.9375-1.7617-3.9375-3.9375 0-2.1719 1.7617-3.9375 3.9375-3.9375h29.52c2.1719 0 3.9375 1.7617 3.9375 3.9375 0 2.1758-1.7617 3.9375-3.9375 3.9375z"/>
  <path d="m227.8 571.21h-29.52c-2.1719 0-3.9375-1.7617-3.9375-3.9375 0-2.1719 1.7617-3.9375 3.9375-3.9375h29.52c2.1719 0 3.9375 1.7617 3.9375 3.9375 0 2.1758-1.7617 3.9375-3.9375 3.9375z"/>
 </g>
</svg>