<?xml version="1.0" encoding="UTF-8"?>
<!-- The Best Svg Icon site in the world: iconSvg.co, Visit us! https://iconsvg.co -->
<svg width="800px" height="800px" version="1.1" viewBox="144 144 512 512" xmlns="http://www.w3.org/2000/svg">
 <defs>
  <clipPath id="a">
   <path d="m179 148.09h442v503.81h-442z"/>
  </clipPath>
 </defs>
 <g clip-path="url(#a)">
  <path d="m400 289.79c-37.582 0-73.621 14.93-100.2 41.504-26.574 26.574-41.504 62.613-41.504 100.2 0 37.578 14.93 73.621 41.504 100.19 26.574 26.574 62.613 41.504 100.2 41.504 37.578 0 73.621-14.93 100.19-41.504 26.574-26.57 41.504-62.613 41.504-100.19-0.042968-37.57-14.984-73.586-41.547-100.15-26.566-26.566-62.582-41.508-100.15-41.551zm0 267.65c-33.406 0-65.441-13.27-89.062-36.891-23.621-23.617-36.891-55.656-36.891-89.059 0-33.406 13.27-65.441 36.891-89.062 23.621-23.621 55.656-36.891 89.062-36.891 33.402 0 65.441 13.27 89.059 36.891 23.621 23.621 36.891 55.656 36.891 89.062-0.035157 33.391-13.316 65.406-36.93 89.02-23.613 23.613-55.629 36.895-89.02 36.93zm-12.375-192.38h24.75c7.7578 0.007812 15.199 3.0938 20.684 8.582 5.4883 5.4883 8.5742 12.926 8.582 20.688 0 4.3477 3.5234 7.8711 7.8711 7.8711 4.3477 0 7.875-3.5234 7.875-7.8711-0.011719-11.934-4.7617-23.379-13.199-31.816s-19.879-13.184-31.812-13.195h-4.5039v-16.895c0-4.3477-3.5234-7.8711-7.8711-7.8711s-7.875 3.5234-7.875 7.8711v16.895h-4.5039 0.003906c-16.086 0-30.949 8.5781-38.988 22.508-8.043 13.93-8.043 31.09 0 45.02 8.0391 13.93 22.902 22.512 38.988 22.512h24.75c10.457 0 20.121 5.5781 25.352 14.637 5.2305 9.0586 5.2305 20.219 0 29.277-5.2305 9.0586-14.895 14.637-25.352 14.637h-24.75c-7.7617-0.007812-15.199-3.0938-20.688-8.582-5.4883-5.4844-8.5742-12.926-8.582-20.688 0-4.3438-3.5234-7.8711-7.8711-7.8711s-7.8711 3.5273-7.8711 7.8711c0.011719 11.938 4.7578 23.379 13.195 31.816s19.883 13.184 31.816 13.199h4.5v16.895-0.003906c0 4.3477 3.5273 7.875 7.875 7.875s7.8711-3.5273 7.8711-7.875v-16.891h4.5039c16.082 0 30.945-8.582 38.988-22.512 8.0391-13.93 8.0391-31.09 0-45.02-8.043-13.93-22.906-22.512-38.988-22.512h-24.75c-10.461 0-20.125-5.5781-25.355-14.637-5.2305-9.0586-5.2305-20.219 0-29.277 5.2305-9.0586 14.895-14.637 25.355-14.637zm217.05 66.426c0.007813-28.188-5.8398-56.066-17.176-81.871 20.039-15.801 32.07-39.652 32.875-65.16 0.80469-25.508-9.7031-50.066-28.711-67.102-19.004-17.031-44.562-24.797-69.832-21.215-25.266 3.582-47.66 18.145-61.184 39.789-17.133-5.2109-34.875-8.1445-52.773-8.7227v-63.371h31.488c4.3477 0 7.8711-3.5234 7.8711-7.8711s-3.5234-7.8711-7.8711-7.8711h-78.723c-4.3477 0-7.8711 3.5234-7.8711 7.8711s3.5234 7.8711 7.8711 7.8711h31.488v63.465c-17.844 0.68359-35.523 3.6992-52.582 8.9766-13.449-21.727-35.816-36.391-61.098-40.059-25.285-3.668-50.898 4.0352-69.965 21.043-19.062 17.008-29.629 41.578-28.859 67.117 0.76953 25.535 12.793 49.426 32.852 65.254-19.582 44.699-22.496 94.93-8.2188 141.59 14.277 46.66 44.801 86.664 86.039 112.75l-44.586 33.758c-3.4766 2.6094-4.1836 7.543-1.5742 11.02 2.6094 3.4805 7.543 4.1836 11.02 1.5742l49.816-37.785c28.988 15.332 61.258 23.418 94.055 23.562 32.793 0.14453 65.133-7.6523 94.258-22.727l51.703 36.984v-0.003906c3.5312 2.3008 8.2461 1.418 10.699-2.0078 2.4531-3.4219 1.7773-8.1719-1.5352-10.773l-45.848-32.793v-0.003906c29.441-18.344 53.73-43.871 70.59-74.188s25.73-64.422 25.781-99.105zm-70.848-220.42c19.324 0.003907 37.809 7.9062 51.172 21.867 13.359 13.965 20.434 32.781 19.586 52.09-0.84766 19.305-9.543 37.43-24.078 50.168-22.848-42.574-59.953-75.746-104.81-93.707 13.211-19.066 34.934-30.434 58.129-30.418zm-338.5 70.848c0.011719-20.223 8.668-39.48 23.781-52.914 15.117-13.438 35.254-19.77 55.34-17.41 20.086 2.3594 38.203 13.191 49.793 29.77-39.062 15.535-72.383 42.738-95.426 77.898-3.4023 5.1641-6.4531 10.5-9.3516 15.918-15.336-13.449-24.133-32.859-24.137-53.262zm212.55 338.11v-23.223c0-4.3477-3.5234-7.875-7.8711-7.875s-7.875 3.5273-7.875 7.875v23.223c-47.262-2.0273-92.047-21.711-125.5-55.164-33.449-33.453-53.137-78.234-55.16-125.5h23.223c4.3477 0 7.8711-3.5234 7.8711-7.8711 0-4.3477-3.5234-7.875-7.8711-7.875h-23.336c1.8594-47.328 21.508-92.219 55.02-125.69 33.512-33.477 78.422-53.074 125.75-54.875v23.129c0 4.3477 3.5273 7.8711 7.875 7.8711s7.8711-3.5234 7.8711-7.8711v-23.223c47.266 2.0234 92.047 21.711 125.5 55.16 33.453 33.453 53.137 78.238 55.164 125.5h-23.223c-4.3477 0-7.875 3.5273-7.875 7.875 0 4.3477 3.5273 7.8711 7.875 7.8711h23.223c-2.0273 47.266-21.711 92.047-55.164 125.5s-78.234 53.137-125.5 55.164z"/>
 </g>
</svg>