<?xml version="1.0" encoding="UTF-8"?>
<!-- The Best Svg Icon site in the world: iconSvg.co, Visit us! https://iconsvg.co -->
<svg fill="#000000" width="800px" height="800px" version="1.1" viewBox="144 144 512 512" xmlns="http://www.w3.org/2000/svg">
 <g>
  <path d="m503.25 417.39c-19.18-0.003907-37.574 7.6133-51.141 21.176-13.562 13.559-21.184 31.953-21.184 51.133 0 19.184 7.6172 37.578 21.18 51.141s31.957 21.18 51.137 21.18c19.18 0 37.574-7.6211 51.137-21.188 13.562-13.562 21.18-31.957 21.176-51.137-0.023438-19.172-7.6484-37.547-21.203-51.102-13.555-13.555-31.934-21.18-51.102-21.203zm0 135.16v-0.003906c-16.672 0-32.66-6.6211-44.449-18.41-11.785-11.789-18.41-27.773-18.41-44.445s6.625-32.66 18.41-44.449c11.789-11.789 27.777-18.41 44.449-18.41s32.66 6.6211 44.449 18.41c11.785 11.789 18.41 27.777 18.41 44.449-0.039063 16.656-6.6758 32.617-18.457 44.395-11.781 11.773-27.746 18.402-44.402 18.434z"/>
  <path d="m275.13 466.04c-8.6875 0-17.02 3.4492-23.164 9.5938-6.1406 6.1445-9.5938 14.477-9.5938 23.164s3.4531 17.02 9.5938 23.164c6.1445 6.1406 14.477 9.5938 23.164 9.5938s17.02-3.4531 23.164-9.5938c6.1406-6.1445 9.5938-14.477 9.5938-23.164-0.011719-8.6836-3.4648-17.012-9.6055-23.152s-14.469-9.5938-23.152-9.6055zm0 56.09c-6.1797 0-12.105-2.457-16.477-6.8281-4.3711-4.3672-6.8242-10.297-6.8242-16.477 0-6.1797 2.4531-12.105 6.8242-16.477 4.3711-4.3672 10.297-6.8242 16.477-6.8242 6.1797 0 12.105 2.457 16.477 6.8242 4.3711 4.3711 6.8242 10.297 6.8242 16.477-0.011719 6.1758-2.4727 12.09-6.8398 16.453-4.3672 4.3633-10.289 6.8164-16.461 6.8203z"/>
  <path d="m529.53 268.2c-31.652-24.156-74.723-37.273-124.81-38.039v-18.449c0-2.6094-2.1172-4.7266-4.7227-4.7266-2.6094 0-4.7266 2.1172-4.7266 4.7266v18.449c-50.086 0.76562-93.156 13.883-124.81 38.043-35.543 27.117-54.328 66.914-54.328 115.06h0.003907c0.019531 1.9844 1.2812 3.75 3.1523 4.4102 1.875 0.66016 3.9609 0.078125 5.2227-1.4609 0.25391-0.30469 25.477-30.453 58.32-30.574h0.1875c17.711 0 34.617 8.6992 50.422 25.871-11.258 3.3867-20.125 12.105-23.695 23.305-3.5742 11.199-1.3945 23.441 5.8203 32.723 7.2188 9.2812 18.547 14.406 30.281 13.699 11.734-0.70312 22.367-7.1484 28.422-17.227 6.0547-10.078 6.75-22.492 1.8594-33.184-4.8867-10.691-14.73-18.285-26.316-20.301 7.8711-8.375 24.719-23.617 45.461-27.07v199.4c0 10.969-5.8516 21.109-15.352 26.594-9.5039 5.4883-21.211 5.4883-30.711 0-9.5039-5.4844-15.355-15.625-15.355-26.594 0-2.6094-2.1172-4.7266-4.7266-4.7266-2.6055 0-4.7227 2.1172-4.7227 4.7266 0 14.344 7.6562 27.602 20.078 34.773 12.426 7.1758 27.734 7.1758 40.16 0 12.422-7.1719 20.078-20.43 20.078-34.773v-200.04c18.852 0.39453 36.852 11.602 53.52 33.328 0.89453 1.1602 2.2812 1.8398 3.75 1.8398h0.070312-0.003906c0.12109 0.007813 0.24219 0.007813 0.36328 0 0.14062 0.007813 0.27734 0.007813 0.41406 0 2.0742-0.007813 3.9023-1.3555 4.5156-3.3359 0-0.097657 0.12891-0.42188 0.27734-0.98438 6.4766-8.0195 29.629-34.125 56.719-34.125h1.2305c17.949 0.53125 34.629 12.715 49.574 36.203 1.125 1.7695 3.2891 2.5859 5.3047 1.9961 2.0195-0.58594 3.4023-2.4375 3.4023-4.5352 0-48.102-18.785-87.883-54.328-115zm-246.5 78.031h-0.30469c-25.191 0.11719-45.707 14.957-56.738 25.012 6.1641-90.703 82.402-127.03 158.66-131.25-36.406 28.703-48.215 63.961-51.434 89.543v0.003906c-1.5938 12.805-1.5391 25.762 0.15625 38.551-15.703-14.504-32.578-21.852-50.34-21.852zm86.879 69.449v0.003906c0.003906 6.9492-2.7539 13.613-7.6641 18.527-4.9141 4.9141-11.578 7.6758-18.523 7.6758-6.9492 0-13.613-2.7578-18.527-7.6719-4.9141-4.9141-7.6719-11.578-7.6719-18.523 0-6.9492 2.7617-13.613 7.6758-18.523 4.9141-4.9141 11.578-7.6719 18.527-7.668 6.9414 0.007812 13.598 2.7695 18.508 7.6758 4.9102 4.9102 7.668 11.566 7.6758 18.508zm33.77-72.344h-0.16797c-1.2109 0-2.4023 0.058593-3.582 0.13672l0.003907 0.003906c-0.17188-0.015624-0.34766-0.015624-0.52344 0-25.586 1.8125-45.875 19.395-55.637 29.637l0.003907 0.003907c-2.5391-14.125-2.9219-28.551-1.1328-42.785 4.9219-37.863 24.66-68.398 58.766-90.793h1.2578c34.105 22.395 53.875 52.93 58.754 90.785l0.003906-0.003907c1.8086 14.387 1.3984 28.965-1.2109 43.227-17.379-20.031-36.371-30.207-56.531-30.207zm122.13-3.1875h-1.4844c-22.297 0-41.484 14.289-53.383 25.879l0.003906 0.003906c1.4414-12.113 1.4062-24.355-0.097656-36.457-3.2266-25.586-14.906-60.625-51.07-89.277 73.723 5.2852 146.17 41.012 153.95 127.33-14.434-17.75-30.492-26.973-47.91-27.473z"/>
  <path d="m503.25 458.45c8.8086 0 15.969 5.9023 15.969 13.254-0.058594 1.293 0.41406 2.5508 1.3086 3.4844 0.89062 0.93359 2.1289 1.4648 3.4219 1.4648s2.5273-0.53125 3.4219-1.4648c0.89062-0.93359 1.3633-2.1914 1.3047-3.4844 0-11.078-8.9336-20.32-20.664-22.309v-8.4727c0-2.6055-2.1133-4.7227-4.7227-4.7227-2.6094 0-4.7227 2.1172-4.7227 4.7227v8.4727c-11.809 1.9688-20.664 11.227-20.664 22.309 0 11.078 6.6016 22.758 25.348 22.758 8.8086 0 15.969 5.9531 15.969 13.266s-7.1641 13.254-15.969 13.254c-8.8086 0-15.98-5.9023-15.98-13.254 0-2.6094-2.1133-4.7227-4.7227-4.7227s-4.7227 2.1133-4.7227 4.7227c0 11.078 8.9258 20.328 20.664 22.309v8.4727c0 2.6094 2.1133 4.7227 4.7227 4.7227 2.6094 0 4.7227-2.1133 4.7227-4.7227v-8.5234c11.809-1.9688 20.664-11.227 20.664-22.309 0-12.527-11.406-22.711-25.426-22.711-10.598 0-15.98-4.4688-15.98-13.266 0.078125-7.3086 7.2695-13.25 16.059-13.25z"/>
 </g>
</svg>