<?xml version="1.0" encoding="UTF-8"?>
<!-- The Best Svg Icon site in the world: iconSvg.co, Visit us! https://iconsvg.co -->
<svg fill="#000000" width="800px" height="800px" version="1.1" viewBox="144 144 512 512" xmlns="http://www.w3.org/2000/svg">
 <g>
  <path d="m499.3 410.07c31.328 0 56.719-25.398 56.719-56.723 0-20.184-10.586-37.824-26.465-47.863 4.4375-2.0742 8.0664-5.4922 10.238-9.9648 2.9844-6.1406 2.6719-12.988-0.16016-18.742 2.6602-2.5938 4.7109-5.7773 5.7539-9.4883 1.5625-5.5234 0.87109-11.316-1.9336-16.324-2.8125-5.0039-7.3945-8.6133-12.777-10.125-0.45313-0.13672-45.855-13.805-70.836-19.945-9.0469-2.2422-46.387-1.0078-98.133 0.94531-9.5664 0.36328-18.594 0.70703-26.375 0.96094-46.066 1.5312-104.45 46.949-129.41 77.164-2.6562 3.2188-2.207 7.9805 1.0117 10.637 1.4062 1.1641 3.1133 1.7344 4.8047 1.7344 2.1797 0 4.3359-0.9375 5.8281-2.7461 24.121-29.207 78.641-70.367 118.26-71.688 7.8047-0.26172 16.852-0.59766 26.445-0.96094 34.355-1.3086 86.262-3.2812 93.941-1.375 24.605 6.0508 69.637 19.609 70.227 19.785 1.6289 0.45703 2.9844 1.5273 3.8125 3.0078 0.83203 1.4805 1.0312 3.1953 0.57031 4.832-0.35156 1.2695-1.1016 2.3359-2.082 3.1484-6.7344-2.832-54.82-22.918-74.711-27.816-8.1406-1.9961-16.211-1.7188-32.293-1.1602-8.1406 0.28906-18.277 0.63672-31.664 0.81641-4.1719 0.058594-7.5078 3.4883-7.4531 7.6641 0.058594 4.1719 3.4727 7.3438 7.6641 7.4531 13.543-0.17969 23.77-0.53906 31.98-0.82812 14.691-0.50781 22.066-0.76562 28.164 0.73438 19.801 4.8711 72.656 27.148 72.82 27.207 3.1523 1.5352 4.4727 5.3516 2.9492 8.5-0.74219 1.5312-2.0352 2.6758-3.6406 3.2344-1.6133 0.55078-3.332 0.45312-4.8555-0.29297-0.55078-0.27344-1.1602-0.48047-1.7695-0.60547-0.68359-0.14062-2.3828-0.60938-4.1406-1.3164-1.1797-0.93359-2.4531-1.7578-3.8594-2.4375-0.16016-0.082032-0.32422-0.14453-0.48828-0.21484-0.95703-0.38281-23.734-9.5273-47.133-15.91-24.363-6.6445-69.305-7.1328-80.258-6.3789-4.1602 0.28906-7.3047 3.8906-7.0195 8.0625 0.29297 4.1602 3.9453 7.3867 8.0625 7.0195 11.02-0.74219 53.988 0.085937 75.238 5.8828 19.453 5.3086 39.004 12.816 44.133 14.82 0.47266 0.48047 0.99219 0.91797 1.6016 1.2578 0.40625 0.23047 0.82031 0.40234 1.2344 0.61328 1.6172 1.8672 2.0898 4.5781 0.94531 6.9375-0.74219 1.5312-2.0352 2.6758-3.6406 3.2344-1.6133 0.55469-3.332 0.44922-4.8555-0.29297-0.45312-0.22266-0.9375-0.39844-1.4258-0.52344-1.1016-0.28125-27.316-6.9727-54.637-9.8906-15.164-1.6719-60.965 9.0391-64.531 38.379-2.0859 17.18 13.387 31.746 45.996 43.289 22.086 7.8203 44.254 11.574 45.117 11.715 5.3047 0.94141 7.6523 4.8203 7.6719 6.5938 0.035157 2.1055-0.53516 3.7227-1.7383 4.9492-1.4102 1.4258-3.6836 2.2812-6.1836 2.2812-0.24609 0.003907-24.91 0.29688-61.188 1.1953-58.316 1.5469-117.63-20.555-118.22-20.777-2.6016-0.96875-5.5273-0.44141-7.6211 1.3906l-62.805 54.934c-3.1445 2.7461-3.4648 7.5156-0.71484 10.66 1.4922 1.707 3.5859 2.5859 5.6914 2.5859 1.7617 0 3.5352-0.61328 4.9688-1.8672l59.496-52.004c15.113 5.1875 67.164 21.488 119.61 20.207 36.168-0.90234 60.746-1.1953 60.902-1.1953 6.4648 0 12.605-2.4727 16.863-6.7969 2.4375-2.4805 4.082-5.4766 5.0547-8.7695 3.6328 0.74219 7.3867 1.1914 11.25 1.1914zm6.2578-82.969c1.5-0.52344 2.8984-1.2227 4.2227-2.0352 1.4297 0.92578 2.7266 2.0352 3.7891 3.4375 2.0859 2.7344 3.5859 7.3516 3.2109 10.105-0.085937 0.60938-0.73438 3.9844-4.9844 3.9844-4.2422 0-4.5273-3.543-4.5273-3.543-0.26172-2.1562-0.55078-3.0586-1.4648-4.3086-1.6562-2.1523-4.1914-2.7812-7.918-2.7812-2.2031 0-4.0391 0.48438-5.5312 1.4297-1.8242 1.1992-2.4844 2.9531-2.7422 5.2344-0.64063 5.9844 5.4102 8.1367 6.9023 8.6211l9.6836 3.1992c10.797 3.707 12.496 10.902 12.496 15.586 0 6.4453-4.1211 16.609-15.109 18.504v3.9492c0 2.3711-1.9102 4.2812-4.2773 4.2812-2.3711 0-4.2812-1.9102-4.2812-4.2812v-3.9141c-3.5-0.57812-8.0156-2.2773-11.68-7.1328-2.4492-3.1992-3.1289-6.5-3.1289-11.18 0 0 0.36328-3.6914 4.9727-3.6914 4.6055 0 4.5391 3.6914 4.5391 3.6914 0 7.0625 5.5508 8.8008 9.4531 8.8008 8.3828 0 10.004-5.1094 10-7.7266-0.015625-6.7852-5.6328-7.9102-8.5664-8.6289 0 0-15.75-2.7656-19.051-11.418-3.8242-10.027-0.097656-15.828 2.1445-18.836 0.8125-1.0898 1.7891-1.9805 2.8398-2.7812 1.5469 0.36328 2.7266 0.65625 3.3789 0.81641 4.9688 2.1797 10.488 2.4023 15.629 0.61719zm-115.38 15.219c2.125-17.508 37.195-26.277 47.918-25.176 5.4102 0.57812 10.812 1.3242 15.98 2.1406-7.1758 9.4883-11.492 21.25-11.492 34.066 0 8.0625 1.7188 15.699 4.7461 22.641-28.879-7.4648-58.773-20.309-57.152-33.672z"/>
  <path d="m424 434.81c-29.305 0-53.062 23.754-53.062 53.055 0 29.297 23.754 53.055 53.062 53.055 29.297 0 53.055-23.758 53.055-53.055 0-29.301-23.758-53.055-53.055-53.055zm3.9922 82.227v3.6914c0 2.2227-1.7852 4.0039-3.9961 4.0039-2.2148 0-4.0039-1.7852-4.0039-4.0039v-3.6641c-3.2734-0.54297-7.4961-2.1367-10.926-6.6758-2.293-2.9922-2.9258-6.082-2.9258-10.461 0 0 0.33594-3.457 4.6562-3.457 4.3086 0 4.2461 3.457 4.2461 3.457 0 6.6094 5.1953 8.2383 8.8477 8.2383 7.8398 0 9.3594-4.7773 9.3516-7.2344-0.015625-6.3438-5.2695-7.3945-8.0156-8.0703 0 0-14.73-2.5859-17.82-10.672-3.5703-9.3828-0.085938-14.812 2.0039-17.629 2.3945-3.1992 5.9297-5.0742 10.586-5.668v-3.8984c0-2.2109 1.7852-4.0156 4.0039-4.0156 2.2109 0 3.9961 1.7969 3.9961 4.0156v4.1055c3.8906 0.76172 7.0938 2.5508 9.3438 5.5117 1.9531 2.5625 3.3555 6.8789 3.0078 9.457-0.085938 0.57031-0.69141 3.7227-4.6641 3.7227-3.9688 0-4.2383-3.3164-4.2383-3.3164-0.25-2.0117-0.51953-2.8555-1.375-4.0312-1.5469-2.0039-3.918-2.5938-7.4062-2.5938-2.0625 0-3.7852 0.44141-5.1758 1.3359-1.707 1.1289-2.3281 2.7617-2.5625 4.9023-0.59766 5.5938 5.0625 7.6094 6.4531 8.0625l9.0625 2.9922c10.098 3.4727 11.688 10.203 11.688 14.586 0.003906 6.0273-3.8555 15.535-14.137 17.309z"/>
  <path d="m547.33 487.87c-29.301 0-53.062 23.754-53.062 53.055 0 29.297 23.758 53.051 53.062 53.051 29.301 0 53.055-23.754 53.055-53.051 0-29.301-23.75-53.055-53.055-53.055zm4 82.234v3.6914c0 2.2148-1.7852 4.0039-4 4.0039s-4-1.7852-4-4.0039v-3.6562c-3.2812-0.54297-7.5-2.1367-10.934-6.6758-2.2891-2.9922-2.9258-6.082-2.9258-10.461 0 0 0.34375-3.457 4.6562-3.457s4.2461 3.457 4.2461 3.457c0 6.6094 5.1953 8.2383 8.8477 8.2383 7.8438 0 9.3594-4.7773 9.3555-7.2344-0.015625-6.3438-5.2695-7.3945-8.0195-8.0703 0 0-14.73-2.5859-17.816-10.672-3.5781-9.3828-0.089843-14.812 2.0039-17.629 2.3867-3.1992 5.9258-5.0742 10.586-5.668v-3.8984c0-2.2109 1.7852-4.0156 4-4.0156 2.2109 0 4 1.7969 4 4.0156v4.1055c3.8828 0.76172 7.0898 2.5508 9.3398 5.5117 1.9609 2.5625 3.3594 6.8711 3.0078 9.457-0.085937 0.57031-0.69141 3.7227-4.6641 3.7227-3.9648 0-4.2383-3.3164-4.2383-3.3164-0.24609-2.0117-0.51953-2.8555-1.375-4.0312-1.5469-2.0039-3.9141-2.6016-7.4062-2.6016-2.0547 0-3.7773 0.44922-5.168 1.3398-1.707 1.1289-2.3281 2.7617-2.5703 4.9023-0.59766 5.5938 5.0625 7.6094 6.4531 8.0625l9.0625 2.9922c10.098 3.4727 11.688 10.203 11.688 14.586 0.007813 6.0156-3.8516 15.523-14.129 17.305z"/>
 </g>
</svg>