<?xml version="1.0" encoding="UTF-8"?>
<!-- The Best Svg Icon site in the world: iconSvg.co, Visit us! https://iconsvg.co -->
<svg fill="#000000" width="800px" height="800px" version="1.1" viewBox="144 144 512 512" xmlns="http://www.w3.org/2000/svg">
 <g>
  <path d="m368.19 332.6h-88.016c-5.5664 0-10.098 4.5273-10.098 10.098v18.359c0 5.5625 4.5273 10.09 10.098 10.09h88.016c5.5664 0 10.098-4.5273 10.098-10.09v-18.359c0-5.5664-4.5312-10.098-10.098-10.098zm-2.5 25.953h-83.016v-13.355h83.016z"/>
  <path d="m516.9 198.81c-6.8711-1.7734-13.922-2.6719-20.953-2.6719-38.125 0-71.414 25.816-80.953 62.77-3.5664 13.836-3.4141 28.168 0.066406 41.66h-152.98c-12.004 0-21.773 9.7695-21.773 21.781v123.49l-22.73 123.02c-0.070312 0.37891-0.10547 0.76172-0.10547 1.1445 0 13.406 10.906 24.312 24.309 24.312h277.96c13.41 0 24.32-10.906 24.32-24.312 0-0.38281-0.035156-0.76562-0.10547-1.1445l-22.73-123.02-0.003906-86.289c26.93-8.5156 48.43-30.328 55.785-58.828 11.527-44.664-15.43-90.379-60.098-101.91zm2.832 382.91h-277.96c-6.2891 0-11.43-4.9766-11.703-11.199l21.77-117.81h257.84l21.77 117.81c-0.27344 6.2188-5.4258 11.199-11.715 11.199zm-11.117-141.61h-255.72v-117.76c0-5.0625 4.1172-9.1836 9.1797-9.1836h157.34c3.6836 8.4531 8.7344 16.363 15.113 23.301l-9.2109 35.695c-0.63672 2.4688 0.27734 5.0742 2.3086 6.6055 1.1172 0.83984 2.4492 1.2656 3.7891 1.2656 1.1016 0 2.207-0.28906 3.1992-0.87109l34.289-20.223c2.1211 0.73438 4.1562 1.3555 6.1719 1.8789 6.8711 1.7734 13.926 2.6719 20.965 2.6719h0.003906c4.2578 0 8.4453-0.36719 12.555-0.99219l0.003907 77.609zm56.188-142.54c-8.1016 31.398-36.375 53.316-68.75 53.316-5.9805 0-11.969-0.76562-17.816-2.2734-2.4453-0.62891-4.9609-1.4492-7.7031-2.5039-1.7891-0.68359-3.8047-0.52344-5.4531 0.45703l-23.758 14.012 6.293-24.375c0.55859-2.168-0.070312-4.457-1.6562-6.0352-17.84-17.766-25.027-43.867-18.766-68.113 8.1016-31.398 36.375-53.324 68.754-53.324 5.9688 0 11.961 0.76562 17.805 2.2734 37.941 9.793 60.844 48.629 51.051 86.566z"/>
  <path d="m496 252c7.2891 0 13.219 4.7188 13.219 10.523 0 3.4766 2.8203 6.2969 6.2969 6.2969s6.2969-2.8203 6.2969-6.2969c0-10.793-8.332-19.805-19.52-22.344v-4.3789c0-3.4766-2.8203-6.2969-6.2969-6.2969-3.4766 0-6.2969 2.8203-6.2969 6.2969v4.207c-13.355 2.6914-19.52 13.926-19.52 24.465 0 1.9688 0.92187 3.8242 2.4883 5.0195l36.223 27.496c-1.3008 5.6914-6.4141 9.6992-12.902 9.6992-7.2891 0-13.219-4.7266-13.219-10.531 0-3.4766-2.8203-6.2969-6.2969-6.2969-3.4766 0-6.2969 2.8203-6.2969 6.2969 0 10.797 8.332 19.809 19.52 22.348v4.3789c0 3.4766 2.8203 6.2969 6.2969 6.2969 3.4766 0 6.2969-2.8203 6.2969-6.2969v-4.4102c11.316-2.6836 19.52-12.391 19.52-24.371 0-1.9688-0.92188-3.8242-2.4883-5.0195l-36.258-27.527c0.77344-3.9258 3.5273-9.5547 12.938-9.5547z"/>
  <path d="m326.38 473.58h-50.004c-3.4766 0-6.2969 2.8203-6.2969 6.2969s2.8203 6.2969 6.2969 6.2969h50.004c3.4766 0 6.2969-2.8203 6.2969-6.2969 0.003906-3.4727-2.8203-6.2969-6.2969-6.2969z"/>
  <path d="m352.85 486.18h132.29c3.4766 0 6.2969-2.8203 6.2969-6.2969 0-3.4766-2.8203-6.2969-6.2969-6.2969l-132.29-0.003906c-3.4766 0-6.2969 2.8203-6.2969 6.2969 0 3.4805 2.8164 6.3008 6.2969 6.3008z"/>
  <path d="m326.38 504.54h-54.988c-3.4766 0-6.2969 2.8203-6.2969 6.2969 0 3.4766 2.8203 6.2969 6.2969 6.2969h54.992c3.4766 0 6.2969-2.8203 6.2969-6.2969 0-3.4766-2.8242-6.2969-6.3008-6.2969z"/>
  <path d="m352.85 517.13h138.53c3.4766 0 6.2969-2.8203 6.2969-6.2969 0-3.4766-2.8203-6.2969-6.2969-6.2969h-138.53c-3.4766 0-6.2969 2.8203-6.2969 6.2969 0 3.4766 2.8164 6.2969 6.2969 6.2969z"/>
  <path d="m366.69 395.55h-90.316c-3.4766 0-6.2969 2.8203-6.2969 6.2969 0 3.4766 2.8203 6.2969 6.2969 6.2969h90.316c3.4766 0 6.2969-2.8203 6.2969-6.2969 0-3.4766-2.8203-6.2969-6.2969-6.2969z"/>
  <path d="m485.13 395.55h-88.844c-3.4766 0-6.2969 2.8203-6.2969 6.2969 0 3.4766 2.8203 6.2969 6.2969 6.2969h88.848c3.4766 0 6.2969-2.8203 6.2969-6.2969 0-3.4766-2.8203-6.2969-6.3008-6.2969z"/>
  <path d="m326.38 536.97h-58.242c-3.4766 0-6.2969 2.8203-6.2969 6.2969 0 3.4766 2.8203 6.2969 6.2969 6.2969h58.246c3.4766 0 6.2969-2.8203 6.2969-6.2969 0-3.4727-2.8242-6.2969-6.3008-6.2969z"/>
  <path d="m496 536.97h-143.15c-3.4766 0-6.2969 2.8203-6.2969 6.2969 0 3.4766 2.8203 6.2969 6.2969 6.2969h143.15c3.4766 0 6.2969-2.8203 6.2969-6.2969 0-3.4727-2.8203-6.2969-6.3008-6.2969z"/>
 </g>
</svg>