<?xml version="1.0" encoding="UTF-8"?>
<!-- The Best Svg Icon site in the world: iconSvg.co, Visit us! https://iconsvg.co -->
<svg fill="#000000" width="800px" height="800px" version="1.1" viewBox="144 144 512 512" xmlns="http://www.w3.org/2000/svg">
 <g>
  <path d="m592.29 369.04-31.488-10.496c-1.0898-0.32812-2.2188-0.50391-3.3594-0.52344h-5.7734 0.003907c-3.5469-12.461-8.6602-24.414-15.223-35.582l4.0938-4.0938c0.83594-0.76953 1.5156-1.6992 1.9961-2.7305l14.902-29.703c2.0039-3.8945 1.375-8.6211-1.5742-11.859l-29.914-29.914c-3.2383-2.9492-7.9648-3.5742-11.859-1.5742l-30.125 14.484c-1.0273 0.48047-1.957 1.1562-2.7266 1.9922l-4.0938 4.0938c-11.078-6.3398-22.887-11.309-35.16-14.797v-5.7734c0.14844-1.1133 0.14844-2.2461 0-3.3594l-10.496-31.488c-1.5039-4.4648-5.793-7.3828-10.496-7.1367h-41.984c-4.5156-0.011719-8.5273 2.8633-9.9727 7.1367l-10.496 31.488c-0.32812 1.0898-0.50391 2.2188-0.52344 3.3594v5.7734c-12.441 3.5898-24.395 8.6992-35.582 15.219l-4.0938-4.0938c-0.76953-0.83594-1.6992-1.5156-2.7305-1.9961l-29.703-14.902c-3.8945-2-8.6211-1.375-11.859 1.5742l-29.914 29.914c-2.9492 3.2383-3.5742 7.9648-1.5742 11.859l14.484 30.125c0.48047 1.0039 1.1172 1.9258 1.8906 2.7266l4.1992 4.0938h-0.003906c-6.3828 11.059-11.355 22.871-14.797 35.164h-5.7734c-1.1406 0.019531-2.2695 0.19531-3.3594 0.52344l-31.488 10.496c-4.2734 1.4453-7.1484 5.457-7.1367 9.9727v41.984c-0.011719 4.5117 2.8633 8.5273 7.1367 9.9688l31.488 10.496c1.0898 0.32812 2.2188 0.50391 3.3594 0.52734h5.7734c3.543 12.457 8.6562 24.414 15.219 35.578l-4.1992 4.0938c-0.76953 0.80469-1.4062 1.7266-1.8906 2.7305l-14.902 29.703c-2 3.8945-1.375 8.6211 1.5742 11.859l29.914 29.914c3.1797 3.1836 8.0352 3.9883 12.07 1.9961l29.914-14.906c1.0312-0.48047 1.957-1.1562 2.7266-1.9922l4.0938-4.0938c11.059 6.3828 22.871 11.355 35.164 14.801v5.7695c0.019531 1.1406 0.19531 2.2695 0.52344 3.3594l10.496 31.488c1.4453 4.2773 5.457 7.1484 9.9727 7.1367h41.984c4.5117 0.011719 8.5273-2.8594 9.9688-7.1367l10.496-31.488c0.32812-1.0898 0.50391-2.2188 0.52734-3.3594v-5.7734 0.003907c12.457-3.5469 24.414-8.6602 35.578-15.223l4.0938 4.0938c0.77344 0.83594 1.6992 1.5156 2.7305 1.9961l29.703 14.902c3.8945 2.0039 8.6211 1.375 11.859-1.5742l29.914-29.914c2.9492-3.2383 3.5781-7.9648 1.5742-11.859l-14.484-30.125c-0.48047-1.0273-1.1562-1.957-1.9922-2.7266l-4.5156-3.6758c6.5625-11.164 11.676-23.121 15.223-35.578h5.7695c1.1406-0.023437 2.2695-0.19922 3.3594-0.52734l31.488-10.496c4.2773-1.4414 7.1484-5.457 7.1367-9.9688v-41.984c0.011719-4.5156-2.8594-8.5273-7.1367-9.9727zm-13.855 44.398-22.672 7.5586h-12.277c-5.0352-0.11328-9.4414 3.3672-10.496 8.2891-3.3281 15.707-9.4805 30.68-18.16 44.191-2.6641 4.1719-2.0547 9.6406 1.4688 13.117l8.7109 8.7109 10.496 20.992-18.996 18.996-20.992-10.496-8.7109-8.7109v0.003907c-3.5625-3.5703-9.1602-4.0977-13.328-1.2617-13.496 8.7539-28.469 14.977-44.191 18.367-4.9219 1.0586-8.4023 5.4648-8.2891 10.496v12.281l-7.5586 22.461h-26.871l-7.5547-22.672v-12.277c0.10938-5.0352-3.3711-9.4414-8.293-10.496-15.707-3.3281-30.68-9.4805-44.188-18.16-4.1719-2.6641-9.6406-2.0547-13.121 1.4688l-8.7109 8.7109-20.992 10.496-18.996-18.996 10.496-20.992 8.7109-8.7109c3.5664-3.5625 4.0938-9.1602 1.2578-13.328-8.7539-13.496-14.977-28.469-18.367-44.191-1.0586-4.9219-5.4609-8.4023-10.496-8.2891h-12.07l-22.672-7.5586v-26.871l22.672-7.5547h12.281c5.0312 0.10938 9.4375-3.3711 10.496-8.293 3.3242-15.707 9.4766-30.68 18.156-44.188 2.668-4.1719 2.0547-9.6406-1.4688-13.121l-8.7109-8.7109-10.496-20.992 18.996-18.996 20.992 10.496 8.7109 8.7109c3.4805 3.5234 8.9492 4.1328 13.121 1.4688 13.492-8.7539 28.465-14.977 44.188-18.367 4.9258-1.0586 8.4062-5.4648 8.293-10.496v-12.281l7.7656-22.672h26.871l7.5586 22.672v12.281c-0.11328 5.0312 3.3672 9.4375 8.2891 10.496 15.707 3.3242 30.68 9.4766 44.191 18.156 4.1719 2.668 9.6406 2.0547 13.117-1.4688l8.7109-8.7109 20.992-10.496 18.996 18.996-10.496 20.992-8.7109 8.7109h0.003907c-3.5703 3.5664-4.0977 9.1602-1.2617 13.332 8.7539 13.492 14.977 28.465 18.367 44.188 1.0586 4.9219 5.4648 8.4023 10.496 8.293h12.281l22.672 7.5586z"/>
  <path d="m400 284.54c-30.621 0-59.988 12.164-81.641 33.816s-33.816 51.02-33.816 81.641 12.164 59.984 33.816 81.637c21.652 21.652 51.02 33.816 81.641 33.816s59.984-12.164 81.637-33.816c21.652-21.652 33.816-51.016 33.816-81.637s-12.164-59.988-33.816-81.641c-21.652-21.652-51.016-33.816-81.637-33.816zm0 209.92v-0.003906c-25.055 0-49.082-9.9492-66.797-27.668-17.715-17.715-27.668-41.742-27.668-66.793 0-25.055 9.9531-49.082 27.668-66.797s41.742-27.668 66.797-27.668c25.051 0 49.078 9.9531 66.793 27.668 17.719 17.715 27.668 41.742 27.668 66.797 0 25.051-9.9492 49.078-27.668 66.793-17.715 17.719-41.742 27.668-66.793 27.668z"/>
  <path d="m431.49 368.51c5.7969 0 10.496-4.6992 10.496-10.496s-4.6992-10.496-10.496-10.496h-20.992v-10.496c0-5.7969-4.6992-10.496-10.496-10.496s-10.496 4.6992-10.496 10.496v10.496h-20.992c-5.7969 0-10.496 4.6992-10.496 10.496v41.984c0 2.7812 1.1055 5.4531 3.0742 7.4219s4.6367 3.0742 7.4219 3.0742h52.48v20.992h-52.48c-5.7969 0-10.496 4.6992-10.496 10.496s4.6992 10.496 10.496 10.496h20.992v10.496c0 5.7969 4.6992 10.496 10.496 10.496s10.496-4.6992 10.496-10.496v-10.496h20.992c2.7812 0 5.4531-1.1094 7.4219-3.0742 1.9648-1.9688 3.0742-4.6406 3.0742-7.4219v-41.984c0-2.7852-1.1094-5.4531-3.0742-7.4219-1.9688-1.9688-4.6406-3.0742-7.4219-3.0742h-52.48v-20.992z"/>
 </g>
</svg>