<?xml version="1.0" encoding="UTF-8"?>
<!-- The Best Svg Icon site in the world: iconSvg.co, Visit us! https://iconsvg.co -->
<svg fill="#000000" width="800px" height="800px" version="1.1" viewBox="144 144 512 512" xmlns="http://www.w3.org/2000/svg">
 <path d="m567.04 499.34c-3.5078-2.25-7.7656-3.0156-11.84-2.1289-4.0742 0.88281-7.6289 3.3477-9.8867 6.8516-7.6133 11.875-16.598 22.812-26.766 32.59l-28.023-69.746c21.336-1.0781 40.605-13.086 50.977-31.762 10.371-18.68 10.371-41.387 0-60.066-10.371-18.676-29.641-30.684-50.977-31.762h-159.33l-29.91-116.51c-6.4883-20.066-22.746-35.445-43.145-40.809-20.395-5.3633-42.117 0.03125-57.633 14.312-15.52 14.281-22.691 35.484-19.035 56.254l41.562 163.74c3.4531 13.379 11.215 25.254 22.082 33.789 10.867 8.5352 24.242 13.258 38.059 13.441h6.6133l-27.395 69.117c-10.168-9.7773-19.148-20.715-26.766-32.59-3.0352-4.7539-8.3789-7.5234-14.012-7.2695-5.6367 0.25391-10.707 3.4961-13.305 8.5-2.5977 5.0078-2.3281 11.02 0.71094 15.773 26.074 40.777 65.125 71.582 110.85 87.445 45.73 15.867 95.469 15.867 141.2 0 45.727-15.863 84.777-46.668 110.85-87.445 2.2344-3.5273 2.9766-7.8008 2.0625-11.875-0.91406-4.0742-3.4141-7.6172-6.9414-9.8516zm-279.93-64.078h-3.9375c-6.7422 0.019531-13.305-2.1953-18.656-6.2969-5.3555-4.1016-9.2031-9.8594-10.941-16.375l-41.562-163.58c-2.8125-10.488 0.18359-21.684 7.8633-29.363 7.6797-7.6797 18.871-10.684 29.363-7.8711 10.488 2.8086 18.684 11 21.496 21.492l32.906 128.95v-0.003906c0.86328 3.4961 2.8945 6.5859 5.7578 8.7656 2.8672 2.1758 6.3906 3.3047 9.9883 3.2031h170.82c8.0469-0.042969 15.773 3.1211 21.477 8.7969 5.7031 5.6719 8.9102 13.387 8.9102 21.43-0.082031 8.0352-3.3086 15.715-8.9883 21.395-5.6836 5.6836-13.363 8.9102-21.398 8.9922h-203.1zm0.94531 122.17 36.367-90.527h132.09l36.367 90.527c-30.195 20.484-65.848 31.434-102.34 31.434s-72.137-10.949-102.34-31.434z"/>
</svg>