<?xml version="1.0" encoding="UTF-8"?>
<!-- The Best Svg Icon site in the world: iconSvg.co, Visit us! https://iconsvg.co -->
<svg fill="#000000" width="800px" height="800px" version="1.1" viewBox="144 144 512 512" xmlns="http://www.w3.org/2000/svg">
 <g>
  <path d="m357.69 496.12h-102.65c-2.2109 0.003906-4.1211 1.5352-4.6055 3.6914l-12.652 56.254c-0.57422 2.5469 1.0234 5.0742 3.5703 5.6484s5.0742-1.0234 5.6484-3.5703l11.809-52.566h98.883c2.5273-0.11719 4.5156-2.1992 4.5156-4.7266 0-2.5312-1.9883-4.6133-4.5156-4.7305z"/>
  <path d="m453.77 397.33c0-1.2539-0.5-2.457-1.3867-3.3438-0.89062-0.88672-2.0938-1.3828-3.3477-1.3789h-102.62c-2.2109 0-4.1289 1.5312-4.6172 3.6875l-12.645 56.258c-0.27344 1.2227-0.050782 2.5039 0.61719 3.5625 0.67188 1.0625 1.7344 1.8086 2.957 2.0859 0.34375 0.078125 0.69141 0.11719 1.043 0.11719 2.207 0 4.1211-1.5352 4.6055-3.6914l11.809-52.574h98.852c1.2539 0.003906 2.457-0.49219 3.3477-1.3789 0.88672-0.88672 1.3867-2.0898 1.3867-3.3438z"/>
  <path d="m570.71 486.15c-0.32422-7.6367-6.6172-13.66-14.262-13.648h-63.477c0.55078-1.5352 0.83984-3.1523 0.84766-4.7812v-0.53125l-19.043-84.555c-0.32031-7.625-6.5898-13.641-14.219-13.648h-125.68c-7.6328 0.007813-13.902 6.0234-14.23 13.648l-19.051 84.555v0.53125c0.003906 1.6289 0.28906 3.2461 0.84766 4.7812h-58.902c-7.6289 0.007812-13.898 6.0273-14.219 13.648l-19.07 84.555v0.51172c0.011719 7.8594 6.3789 14.223 14.238 14.23h163.7c4.7305 0.007813 9.1602-2.3359 11.809-6.2617 2.6484 3.9258 7.0742 6.2695 11.805 6.2617h163.7c7.8594-0.007812 14.23-6.3711 14.238-14.23v-0.53125zm-259.61-17.996 19.027-84.418v-0.52344c0.007813-2.6367 2.1445-4.7773 4.7852-4.7812h125.66c2.6367 0.003906 4.7773 2.1445 4.7812 4.7812v0.52344l18.992 84.418c-0.23438 2.457-2.293 4.3398-4.7617 4.3477h-163.73c-2.4688-0.003906-4.5273-1.8906-4.75-4.3477zm72.324 17.996c-0.0625-1.4336-0.34375-2.8516-0.82813-4.2031h34.793c-0.48438 1.3516-0.76172 2.7695-0.82422 4.2031l-16.57 73.672zm4.7617 89.867h-163.7c-2.4688-0.007813-4.5312-1.8906-4.7617-4.3477l18.992-84.418v-0.52344l-0.003906 0.003907c0.003906-1.2773 0.51562-2.4961 1.418-3.3945 0.90625-0.89844 2.1328-1.3984 3.4062-1.3906h125.66c2.6406 0.007813 4.7773 2.1445 4.7812 4.7852v0.52344l18.992 84.418v-0.003906c-0.22266 2.4688-2.3008 4.3594-4.7812 4.3477zm187.29 0h-163.67c-2.4688-0.003906-4.5273-1.8867-4.75-4.3477l18.992-84.418v-0.52344 0.003907c0.003906-2.6406 2.1406-4.7773 4.7812-4.7852h125.62c2.6406 0.007813 4.7773 2.1445 4.7852 4.7852v0.52344l18.992 84.418-0.003907-0.003906c-0.23047 2.4453-2.2656 4.3203-4.7227 4.3477z"/>
  <path d="m544.96 496.12h-102.65c-2.2148 0-4.1289 1.5352-4.6172 3.6914l-12.652 56.254c-0.27734 1.2227-0.054688 2.5078 0.61328 3.5664 0.67188 1.0586 1.7344 1.8086 2.957 2.082 0.34375 0.078125 0.69141 0.11719 1.043 0.11719 2.2109 0 4.1211-1.5312 4.6055-3.6875l11.809-52.566h98.891c2.5273-0.11719 4.5195-2.1992 4.5195-4.7266 0-2.5312-1.9922-4.6133-4.5195-4.7305z"/>
  <path d="m486.83 337.66c4.6172 1.0781 8.9531 3.1328 12.711 6.0234 8.582 6.543 12.922 16.414 12.922 29.324-0.058594 1.2891 0.41406 2.5508 1.3047 3.4844 0.89453 0.93359 2.1289 1.4648 3.4219 1.4648s2.5312-0.53125 3.4219-1.4648c0.89453-0.93359 1.3672-2.1953 1.3086-3.4844 0-30.309 24.602-35.16 25.633-35.344v-0.003906c2.2656-0.39062 3.918-2.3555 3.918-4.6523 0-2.2969-1.6523-4.2617-3.918-4.6562-1.043-0.19531-25.652-5.0469-25.652-35.363-0.11719-2.5273-2.1992-4.5156-4.7305-4.5156s-4.6133 1.9883-4.7266 4.5156c0 30.297-24.602 35.16-25.652 35.363-2.2656 0.39453-3.9219 2.3594-3.9219 4.6562 0 2.2969 1.6562 4.2617 3.9219 4.6523zm18.449-7.8711c5.0625-3.8516 9.1445-8.8438 11.914-14.57 2.7656 5.7266 6.8477 10.719 11.91 14.57 1.5195 1.1641 3.1172 2.2227 4.7812 3.168-1.6602 0.95312-3.2578 2.0117-4.7812 3.168-5.0586 3.8594-9.1367 8.8516-11.91 14.574-2.7773-5.707-6.8555-10.684-11.906-14.531-1.5234-1.1602-3.1211-2.2188-4.7812-3.1719 1.6641-0.94531 3.2617-2.0039 4.7812-3.168z"/>
  <path d="m345.22 280.79c1.5547 0.27734 38.109 7.3711 38.109 52.211 0 2.6094 2.1172 4.7266 4.7227 4.7266 2.6094 0 4.7266-2.1172 4.7266-4.7266 0-44.84 36.555-51.938 38.102-52.211h-0.003906c2.2656-0.39062 3.9219-2.3555 3.9219-4.6523 0-2.3008-1.6562-4.2656-3.9219-4.6562-6.8906-1.5742-13.355-4.625-18.949-8.9414-12.703-9.7031-19.148-24.266-19.148-43.297 0-2.6094-2.1172-4.7227-4.7266-4.7227-2.6055 0-4.7227 2.1133-4.7227 4.7227 0 44.812-36.508 51.926-38.109 52.223v-0.003907c-2.2656 0.39062-3.918 2.3555-3.918 4.6562 0 2.2969 1.6523 4.2617 3.918 4.6523zm24.699-10.746v0.003907c8.1367-6.2148 14.414-14.551 18.133-24.09 3.7227 9.5391 9.9961 17.875 18.137 24.09 3.0781 2.3398 6.3711 4.3789 9.8398 6.0898-3.4648 1.7109-6.7617 3.7461-9.8398 6.082-8.1406 6.2188-14.414 14.555-18.137 24.098-3.7188-9.543-9.9922-17.879-18.133-24.098-3.0781-2.3359-6.375-4.3711-9.8398-6.082 3.4688-1.7109 6.7617-3.75 9.8398-6.0898z"/>
 </g>
</svg>