<?xml version="1.0" encoding="UTF-8"?>
<!-- The Best Svg Icon site in the world: iconSvg.co, Visit us! https://iconsvg.co -->
<svg width="800px" height="800px" version="1.1" viewBox="144 144 512 512" xmlns="http://www.w3.org/2000/svg">
 <defs>
  <clipPath id="j">
   <path d="m148.09 557h157.91v94.902h-157.91z"/>
  </clipPath>
  <clipPath id="h">
   <path d="m321 557h158v94.902h-158z"/>
  </clipPath>
  <clipPath id="g">
   <path d="m148.09 431h157.91v95h-157.91z"/>
  </clipPath>
  <clipPath id="f">
   <path d="m494 431h157.9v95h-157.9z"/>
  </clipPath>
  <clipPath id="e">
   <path d="m148.09 494h157.91v95h-157.91z"/>
  </clipPath>
  <clipPath id="d">
   <path d="m494 494h157.9v95h-157.9z"/>
  </clipPath>
  <clipPath id="c">
   <path d="m494 557h157.9v94.902h-157.9z"/>
  </clipPath>
  <clipPath id="b">
   <path d="m289 148.09h222v204.91h-222z"/>
  </clipPath>
  <clipPath id="a">
   <path d="m494 271h157.9v132h-157.9z"/>
  </clipPath>
  <clipPath id="i">
   <path d="m148.09 271h157.91v132h-157.91z"/>
  </clipPath>
 </defs>
 <g clip-path="url(#j)">
  <path d="m274.05 651.9h-94.465c-8.3477-0.007813-16.352-3.3281-22.258-9.2305-5.9023-5.9023-9.2227-13.906-9.2305-22.258v-31.488c0.007812-8.3477 3.3281-16.352 9.2305-22.254 5.9062-5.9062 13.91-9.2227 22.258-9.2344h94.465c8.3477 0.011719 16.352 3.3281 22.254 9.2344 5.9062 5.9023 9.2266 13.906 9.2344 22.254v31.488c-0.007812 8.3516-3.3281 16.355-9.2344 22.258-5.9023 5.9023-13.906 9.2227-22.254 9.2305zm-94.465-62.977v31.488h94.488l-0.023437-31.488z"/>
 </g>
 <g clip-path="url(#h)">
  <path d="m447.23 651.9h-94.465c-8.3477-0.007813-16.352-3.3281-22.254-9.2305-5.9062-5.9023-9.2266-13.906-9.2344-22.258v-31.488c0.007812-8.3477 3.3281-16.352 9.2344-22.254 5.9023-5.9062 13.906-9.2227 22.254-9.2344h94.465c8.3477 0.011719 16.352 3.3281 22.258 9.2344 5.9023 5.9023 9.2227 13.906 9.2305 22.254v31.488c-0.007812 8.3516-3.3281 16.355-9.2305 22.258-5.9062 5.9023-13.91 9.2227-22.258 9.2305zm-94.465-62.977v31.488h94.488l-0.023437-31.488z"/>
 </g>
 <path d="m447.23 588.93h-94.465c-8.3477-0.007812-16.352-3.3281-22.254-9.2305-5.9062-5.9023-9.2266-13.906-9.2344-22.258v-31.488c0.007812-8.3477 3.3281-16.352 9.2344-22.254 5.9023-5.9023 13.906-9.2227 22.254-9.2344h94.465c8.3477 0.011718 16.352 3.332 22.258 9.2344 5.9023 5.9023 9.2227 13.906 9.2305 22.254v31.488c-0.007812 8.3516-3.3281 16.355-9.2305 22.258-5.9062 5.9023-13.91 9.2227-22.258 9.2305zm-94.465-62.977v31.488h94.488l-0.023437-31.488z"/>
 <path d="m447.23 525.95h-94.465c-8.3477-0.007813-16.352-3.3281-22.254-9.2305-5.9062-5.9023-9.2266-13.906-9.2344-22.258v-31.484c0.007812-8.3516 3.3281-16.355 9.2344-22.258 5.9023-5.9023 13.906-9.2227 22.254-9.2305h94.465c8.3477 0.007813 16.352 3.3281 22.258 9.2305 5.9023 5.9023 9.2227 13.906 9.2305 22.258v31.488-0.003906c-0.007812 8.3516-3.3281 16.355-9.2305 22.258-5.9062 5.9023-13.91 9.2227-22.258 9.2305zm-94.465-62.977v31.488h94.488l-0.023437-31.484z"/>
 <path d="m447.23 462.98h-94.465c-8.3477-0.011718-16.352-3.332-22.254-9.2344-5.9062-5.9023-9.2266-13.906-9.2344-22.254v-31.488c0.007812-8.3516 3.3281-16.355 9.2344-22.258 5.9023-5.9023 13.906-9.2227 22.254-9.2305h94.465c8.3477 0.007812 16.352 3.3281 22.258 9.2305 5.9023 5.9023 9.2227 13.906 9.2305 22.258v31.488c-0.007812 8.3477-3.3281 16.352-9.2305 22.254-5.9062 5.9023-13.91 9.2227-22.258 9.2344zm-94.465-62.977v31.488h94.488l-0.023437-31.488z"/>
 <g clip-path="url(#g)">
  <path d="m274.05 525.95h-94.465c-8.3477-0.007813-16.352-3.3281-22.258-9.2305-5.9023-5.9023-9.2227-13.906-9.2305-22.258v-31.484c0.007812-8.3516 3.3281-16.355 9.2305-22.258 5.9062-5.9023 13.91-9.2227 22.258-9.2305h94.465c8.3477 0.007813 16.352 3.3281 22.254 9.2305 5.9062 5.9023 9.2266 13.906 9.2344 22.258v31.488-0.003906c-0.007812 8.3516-3.3281 16.355-9.2344 22.258-5.9023 5.9023-13.906 9.2227-22.254 9.2305zm-94.465-62.973v31.488l94.488-0.003906-0.023437-31.484z"/>
 </g>
 <g clip-path="url(#f)">
  <path d="m620.41 525.95h-94.465c-8.3477-0.007813-16.352-3.3281-22.254-9.2305-5.9023-5.9023-9.2227-13.906-9.2344-22.258v-31.484c0.011718-8.3516 3.332-16.355 9.2344-22.258 5.9023-5.9023 13.906-9.2227 22.254-9.2305h94.465c8.3516 0.007813 16.355 3.3281 22.258 9.2305s9.2227 13.906 9.2305 22.258v31.488-0.003906c-0.007813 8.3516-3.3281 16.355-9.2305 22.258s-13.906 9.2227-22.258 9.2305zm-94.465-62.977v31.488h94.488l-0.023438-31.484z"/>
 </g>
 <g clip-path="url(#e)">
  <path d="m274.05 588.93h-94.465c-8.3477-0.007812-16.352-3.3281-22.258-9.2305-5.9023-5.9023-9.2227-13.906-9.2305-22.258v-31.488c0.007812-8.3477 3.3281-16.352 9.2305-22.254 5.9062-5.9023 13.91-9.2227 22.258-9.2344h94.465c8.3477 0.011718 16.352 3.332 22.254 9.2344 5.9062 5.9023 9.2266 13.906 9.2344 22.254v31.488c-0.007812 8.3516-3.3281 16.355-9.2344 22.258-5.9023 5.9023-13.906 9.2227-22.254 9.2305zm-94.465-62.977v31.488h94.488l-0.023437-31.488z"/>
 </g>
 <g clip-path="url(#d)">
  <path d="m620.41 588.93h-94.465c-8.3477-0.007812-16.352-3.3281-22.254-9.2305-5.9023-5.9023-9.2227-13.906-9.2344-22.258v-31.488c0.011718-8.3477 3.332-16.352 9.2344-22.254 5.9023-5.9023 13.906-9.2227 22.254-9.2344h94.465c8.3516 0.011718 16.355 3.332 22.258 9.2344 5.9023 5.9023 9.2227 13.906 9.2305 22.254v31.488c-0.007813 8.3516-3.3281 16.355-9.2305 22.258-5.9023 5.9023-13.906 9.2227-22.258 9.2305zm-94.465-62.977v31.488h94.488l-0.023438-31.488z"/>
 </g>
 <g clip-path="url(#c)">
  <path d="m620.41 651.9h-94.465c-8.3477-0.007813-16.352-3.3281-22.254-9.2305-5.9023-5.9023-9.2227-13.906-9.2344-22.258v-31.488c0.011718-8.3477 3.332-16.352 9.2344-22.254 5.9023-5.9062 13.906-9.2227 22.254-9.2344h94.465c8.3516 0.011719 16.355 3.3281 22.258 9.2344 5.9023 5.9023 9.2227 13.906 9.2305 22.254v31.488c-0.007813 8.3516-3.3281 16.355-9.2305 22.258s-13.906 9.2227-22.258 9.2305zm-94.465-62.977v31.488h94.488l-0.023438-31.488z"/>
 </g>
 <g clip-path="url(#b)">
  <path d="m447.23 352.77c-4.1758 0-8.1797-1.6562-11.133-4.6094s-4.6094-6.957-4.6094-11.133v-78.723c0-4.1758 1.6562-8.1797 4.6094-11.133s6.957-4.6094 11.133-4.6094h9.7461l-56.977-58.125-56.98 58.125h9.7461c4.1758 0 8.1797 1.6562 11.133 4.6094 2.9531 2.9531 4.6133 6.957 4.6133 11.133v78.723c0 5.625-3.0039 10.82-7.875 13.633-4.8711 2.8125-10.871 2.8125-15.742 0-4.8711-2.8125-7.8711-8.0078-7.8711-13.633v-62.977h-31.488c-4.1562 0-8.1445-1.6484-11.094-4.5781-2.9492-2.9297-4.6211-6.9062-4.6484-11.062-0.027344-4.1562 1.5898-8.1562 4.5-11.125l94.465-96.355c3.0195-2.9062 7.0508-4.5312 11.242-4.5312s8.2188 1.625 11.238 4.5312l94.465 96.355c2.9102 2.9688 4.5273 6.9688 4.5 11.125s-1.6992 8.1328-4.6484 11.062c-2.9453 2.9297-6.9336 4.5781-11.094 4.5781h-31.484v62.977c0 4.1758-1.6602 8.1797-4.6133 11.133s-6.957 4.6094-11.133 4.6094z"/>
 </g>
 <g clip-path="url(#a)">
  <path d="m605.98 402.62c-7.2461 0-13.121-5.875-13.121-13.117v-47.195c0-6.5469 4.8242-12.094 11.309-13l-30.988-27.285-30.988 27.285c6.4844 0.90625 11.309 6.4531 11.309 12.996v47.195c0 7.2461-5.875 13.121-13.121 13.121-7.2461 0-13.117-5.875-13.117-13.121v-34.074h-19.684c-5.457 0-10.344-3.3789-12.27-8.4844-1.9297-5.1055-0.49219-10.875 3.6016-14.48l65.609-57.766c4.9531-4.3672 12.383-4.3672 17.336 0l65.602 57.766h-0.003907c4.0977 3.6055 5.5312 9.375 3.6055 14.48-1.9258 5.1055-6.8164 8.4844-12.273 8.4844h-19.68v34.078c0 3.4805-1.3828 6.8164-3.8438 9.2773-2.4648 2.4609-5.8008 3.8438-9.2812 3.8398z"/>
 </g>
 <g clip-path="url(#i)">
  <path d="m194.02 402.62c7.2461 0 13.117-5.875 13.117-13.117v-47.195c0-6.5469-4.8242-12.094-11.305-13l30.984-27.285 30.988 27.285c-6.4844 0.90625-11.305 6.4531-11.309 12.996v47.195c0 7.2461 5.875 13.121 13.121 13.121 7.2461 0 13.121-5.875 13.121-13.121v-34.074h19.68c5.4609 0.003907 10.352-3.3789 12.277-8.4844 1.9297-5.1094 0.49219-10.879-3.6094-14.484l-65.602-57.762c-4.9531-4.3672-12.383-4.3672-17.332 0l-65.602 57.762c-4.1016 3.6055-5.5391 9.375-3.6094 14.484 1.9258 5.1055 6.8164 8.4883 12.277 8.4844h19.68v34.078c0 7.2422 5.875 13.117 13.121 13.117z"/>
 </g>
</svg>