<?xml version="1.0" encoding="UTF-8"?>
<!-- The Best Svg Icon site in the world: iconSvg.co, Visit us! https://iconsvg.co -->
<svg width="800px" height="800px" version="1.1" viewBox="144 144 512 512" xmlns="http://www.w3.org/2000/svg">
 <defs>
  <clipPath id="e">
   <path d="m148.09 431h126.91v220.9h-126.91z"/>
  </clipPath>
  <clipPath id="d">
   <path d="m148.09 148.09h503.81v251.91h-503.81z"/>
  </clipPath>
  <clipPath id="c">
   <path d="m295 420h356.9v231.9h-356.9z"/>
  </clipPath>
  <clipPath id="b">
   <path d="m148.09 326h21.906v22h-21.906z"/>
  </clipPath>
  <clipPath id="a">
   <path d="m148.09 379h21.906v21h-21.906z"/>
  </clipPath>
 </defs>
 <g clip-path="url(#e)">
  <path d="m169.09 620.41v-188.93h-20.992v188.93c0 8.3516 3.3164 16.363 9.2227 22.266 5.9062 5.9062 13.914 9.2227 22.266 9.2227h94.465v-20.992h-94.465c-5.7969 0-10.496-4.6992-10.496-10.496z"/>
 </g>
 <g clip-path="url(#d)">
  <path d="m620.41 253.05h-20.906c-0.085937-6.875-0.085937-15.555-0.085937-21.129 0.12109-5.5664-2.0352-10.941-5.9688-14.879-3.9375-3.9375-9.3086-6.0938-14.875-5.9766h-178.58v-31.488c0-8.3516-3.3203-16.359-9.2227-22.266-5.9062-5.9062-13.914-9.2227-22.266-9.2227h-188.93c-8.3516 0-16.359 3.3164-22.266 9.2227s-9.2227 13.914-9.2227 22.266v115.46h20.992v-115.46c0-5.7969 4.6992-10.496 10.496-10.496h188.93c2.7812 0 5.4531 1.1055 7.4219 3.0742s3.0742 4.6367 3.0742 7.4219v73.473h-136.45v20.992h377.86c2.7852 0 5.4531 1.1055 7.4219 3.0742s3.0742 4.6367 3.0742 7.4219v115.46h20.992v-115.46c0-8.3516-3.3164-16.359-9.2227-22.266-5.9023-5.9062-13.914-9.2227-22.266-9.2227zm-220.41-20.992 178.43 0.17969c0 5.582 0 14.043 0.082031 20.805l-178.52-0.003906z"/>
 </g>
 <g clip-path="url(#c)">
  <path d="m630.91 420.99h-136.45v20.992h136.45v20.992h-136.45v20.992l136.45-0.003906v20.992h-146.95v20.992h146.95v20.992h-188.93v20.992h20.992v20.992h-146.95v-20.992h-20.992v62.977c0 5.5703 2.2109 10.906 6.1484 14.844s9.2734 6.1484 14.844 6.1484h146.95c3.6953-0.019532 7.3164-1.0273 10.496-2.918 3.1758 1.8906 6.7969 2.8984 10.492 2.918h146.95c5.5703 0 10.906-2.2109 14.844-6.1484s6.1484-9.2734 6.1484-14.844v-62.977c-0.019532-3.6953-1.0273-7.3164-2.918-10.496 1.8906-3.1758 2.8984-6.7969 2.918-10.496v-31.488h-2.918c1.8906-3.1758 2.8984-6.7969 2.918-10.496v-62.973c0-5.5703-2.2109-10.91-6.1484-14.844-3.9375-3.9375-9.2734-6.1484-14.844-6.1484zm0 146.95v20.992l-146.95-0.003907v-20.992zm-314.88 62.973v-20.992h146.95v20.992zm314.88 0h-146.95v-20.992h146.95z"/>
 </g>
 <path d="m473.47 441.98c-0.039062-30.613-12.215-59.957-33.859-81.602-21.645-21.645-50.988-33.82-81.598-33.855h-167.94v20.992h167.94c25.051 0 49.078 9.9531 66.797 27.668 17.715 17.715 27.668 41.742 27.668 66.797 0 25.051-9.9531 49.078-27.668 66.793-17.719 17.719-41.746 27.668-66.797 27.668-25.055 0-49.082-9.9492-66.797-27.668-17.715-17.715-27.668-41.742-27.668-66.793v-52.48c0-2.7852-1.1055-5.4531-3.0742-7.4219s-4.6406-3.0742-7.4219-3.0742h-20.992v20.992h10.496v41.984c0 41.246 22.004 79.363 57.727 99.988 35.723 20.621 79.734 20.621 115.46 0 35.723-20.625 57.73-58.742 57.73-99.988z"/>
 <path d="m316.03 462.98v10.496c0 5.5664 2.2109 10.906 6.1484 14.84 3.9375 3.9375 9.2734 6.1484 14.844 6.1484h10.496v20.992h20.992v-20.992h10.496c5.5664 0 10.906-2.2109 14.844-6.1484 3.9336-3.9336 6.1484-9.2734 6.1484-14.84v-20.992c0-5.5703-2.2148-10.91-6.1484-14.844-3.9375-3.9375-9.2773-6.1484-14.844-6.1484h-41.984v-20.992h41.984v10.496h20.992v-10.496c0-5.5703-2.2148-10.91-6.1484-14.844-3.9375-3.9375-9.2773-6.1484-14.844-6.1484h-10.496v-20.992h-20.992v20.992h-10.496c-5.5703 0-10.906 2.2109-14.844 6.1484-3.9375 3.9336-6.1484 9.2734-6.1484 14.844v20.992c0 5.5664 2.2109 10.906 6.1484 14.844 3.9375 3.9336 9.2734 6.1484 14.844 6.1484h41.984v20.992h-41.984v-10.496z"/>
 <g clip-path="url(#b)">
  <path d="m148.09 326.53h20.992v20.992h-20.992z"/>
 </g>
 <g clip-path="url(#a)">
  <path d="m148.09 379.01h20.992v20.992h-20.992z"/>
 </g>
 <path d="m190.08 379.01h20.992v20.992h-20.992z"/>
</svg>