<?xml version="1.0" encoding="UTF-8"?>
<!-- The Best Svg Icon site in the world: iconSvg.co, Visit us! https://iconsvg.co -->
<svg fill="#000000" width="800px" height="800px" version="1.1" viewBox="144 144 512 512" xmlns="http://www.w3.org/2000/svg">
 <g>
  <path d="m400 352.77c-16.703 0-32.723 6.6367-44.531 18.445-11.812 11.812-18.445 27.828-18.445 44.531 0 16.703 6.6328 32.723 18.445 44.531 11.809 11.809 27.828 18.445 44.531 18.445 16.699 0 32.719-6.6367 44.531-18.445 11.809-11.809 18.445-27.828 18.445-44.531-0.019531-16.695-6.6602-32.703-18.469-44.512-11.805-11.805-27.812-18.445-44.508-18.465zm-7.8711 55.105h15.742c8.4375 0 16.234 4.5 20.453 11.809 4.2188 7.3047 4.2188 16.309 0 23.613-4.2188 7.3086-12.016 11.809-20.453 11.809v7.875c0 4.3477-3.5234 7.8711-7.8711 7.8711s-7.875-3.5234-7.875-7.8711v-7.875c-6.2617 0-12.27-2.4883-16.699-6.9141-4.4258-4.4297-6.9141-10.438-6.9141-16.699 0-4.3477 3.5234-7.875 7.8711-7.875 4.3477 0 7.8711 3.5273 7.8711 7.875 0 2.0859 0.82812 4.0898 2.3047 5.5664 1.4766 1.4727 3.4805 2.3047 5.5664 2.3047h15.746c4.3477 0 7.8711-3.5234 7.8711-7.8711 0-4.3477-3.5234-7.875-7.8711-7.875h-15.746c-8.4375 0-16.23-4.5-20.449-11.809-4.2188-7.3047-4.2188-16.309 0-23.613 4.2188-7.3086 12.012-11.809 20.449-11.809v-7.8711c0-4.3477 3.5273-7.875 7.875-7.875s7.8711 3.5273 7.8711 7.875v7.8711c6.2617 0 12.27 2.4883 16.699 6.918 4.4297 4.4258 6.918 10.434 6.918 16.699 0 4.3477-3.5273 7.8711-7.875 7.8711-4.3477 0-7.8711-3.5234-7.8711-7.8711 0-2.0898-0.82813-4.0898-2.3047-5.5664-1.4766-1.4766-3.4805-2.3086-5.5664-2.3086h-15.746c-4.3477 0-7.8711 3.5273-7.8711 7.875s3.5234 7.8711 7.8711 7.8711z"/>
  <path d="m179.58 541.7h440.83v15.742h-440.83z"/>
  <path d="m566.1 329.15h-332.2c-1.5547 7.5586-5.293 14.496-10.75 19.953-5.457 5.457-12.391 9.1953-19.949 10.75v111.78c7.5586 1.5547 14.492 5.293 19.949 10.75 5.457 5.457 9.1953 12.395 10.75 19.953h332.2c1.5547-7.5586 5.293-14.496 10.75-19.953 5.457-5.457 12.395-9.1953 19.953-10.75v-111.78c-7.5586-1.5547-14.496-5.293-19.953-10.75-5.457-5.457-9.1953-12.395-10.75-19.953zm-284.18 94.465h-31.488c-4.3477 0-7.8711-3.5234-7.8711-7.8711 0-4.3477 3.5234-7.8711 7.8711-7.8711h31.488c4.3477 0 7.8711 3.5234 7.8711 7.8711 0 4.3477-3.5234 7.8711-7.8711 7.8711zm118.08 70.848c-20.879 0-40.902-8.293-55.664-23.055-14.766-14.762-23.059-34.785-23.059-55.664 0-20.879 8.293-40.898 23.059-55.664 14.762-14.762 34.785-23.055 55.664-23.055 20.875 0 40.898 8.293 55.664 23.055 14.762 14.766 23.055 34.785 23.055 55.664-0.023438 20.871-8.3242 40.879-23.082 55.637-14.758 14.762-34.766 23.062-55.637 23.082zm149.57-70.848h-31.492c-4.3477 0-7.8711-3.5234-7.8711-7.8711 0-4.3477 3.5234-7.8711 7.8711-7.8711h31.488c4.3477 0 7.8711 3.5234 7.8711 7.8711 0 4.3477-3.5234 7.8711-7.8711 7.8711z"/>
  <path d="m179.58 604.67h440.83v15.742h-440.83z"/>
  <path d="m179.58 573.18h440.83v15.742h-440.83z"/>
  <path d="m620.41 305.54h-440.83v220.41h440.83zm-7.8711 173.18c0 2.0859-0.82812 4.0898-2.3047 5.5664-1.4766 1.4766-3.4805 2.3047-5.5664 2.3047-6.2656 0-12.27 2.4883-16.699 6.918-4.4297 4.4297-6.918 10.438-6.918 16.699 0 2.0859-0.82813 4.0898-2.3047 5.5664-1.4766 1.4766-3.4805 2.3047-5.5664 2.3047h-346.37c-4.3477 0-7.8711-3.5234-7.8711-7.8711 0-6.2617-2.4883-12.27-6.918-16.699-4.4258-4.4297-10.434-6.918-16.699-6.918-4.3477 0-7.8711-3.5234-7.8711-7.8711v-125.95c0-4.3477 3.5234-7.8711 7.8711-7.8711 6.2656 0 12.273-2.4883 16.699-6.918 4.4297-4.4297 6.918-10.434 6.918-16.699 0-4.3477 3.5234-7.8711 7.8711-7.8711h346.37c2.0859 0 4.0898 0.82812 5.5664 2.3047 1.4766 1.4766 2.3047 3.4805 2.3047 5.5664 0 6.2656 2.4883 12.27 6.918 16.699 4.4297 4.4297 10.434 6.918 16.699 6.918 2.0859 0 4.0898 0.82812 5.5664 2.3047 1.4766 1.4766 2.3047 3.4805 2.3047 5.5664z"/>
  <path d="m518 226.81h7.9492c2.0898 0 4.0898 0.83203 5.5664 2.3086 1.4766 1.4766 2.3086 3.4766 2.3086 5.5664v55.105h31.488v-55.105c0-4.3477 3.5234-7.875 7.8711-7.875h7.793l-31.645-41.957z"/>
  <path d="m368.43 226.81h7.9492c2.0859 0 4.0898 0.83203 5.5664 2.3086 1.4766 1.4766 2.3047 3.4766 2.3047 5.5664v55.105h31.488v-55.105c0-4.3477 3.5234-7.875 7.8711-7.875h7.793l-31.645-41.957z"/>
  <path d="m218.86 226.81h7.9492c2.0898 0 4.0898 0.83203 5.5664 2.3086 1.4766 1.4766 2.3086 3.4766 2.3086 5.5664v55.105h31.488v-55.105c0-4.3477 3.5234-7.875 7.8711-7.875h7.793l-31.645-41.957z"/>
 </g>
</svg>