<?xml version="1.0" encoding="UTF-8"?>
<!-- The Best Svg Icon site in the world: iconSvg.co, Visit us! https://iconsvg.co -->
<svg fill="#000000" width="800px" height="800px" version="1.1" viewBox="144 144 512 512" xmlns="http://www.w3.org/2000/svg">
 <g>
  <path d="m400 275.93c-16.957 0-33.223 6.7383-45.211 18.734-11.988 11.992-18.719 28.258-18.711 45.215 0.007813 16.957 6.75 33.219 18.75 45.199 11.996 11.984 28.266 18.707 45.223 18.695 16.957-0.015625 33.215-6.7656 45.191-18.77 11.98-12.004 18.699-28.273 18.676-45.23-0.019531-16.938-6.7617-33.176-18.75-45.148-11.984-11.969-28.23-18.695-45.168-18.695zm0 112.41c-12.887 0.019532-25.254-5.0781-34.379-14.18-9.125-9.0977-14.258-21.453-14.273-34.336-0.011718-12.887 5.0938-25.25 14.199-34.371 9.1055-9.1211 21.461-14.246 34.348-14.254 12.887-0.007812 25.246 5.1055 34.359 14.219 9.1172 9.1094 14.234 21.465 14.234 34.352 0 12.867-5.1055 25.211-14.195 34.316-9.0938 9.1055-21.426 14.234-34.293 14.254z"/>
  <path d="m400.39 332.61c-2.6758 0-5.1172-1.1016-5.1172-3.4648 0-2.3633 1.9688-2.9922 4.5664-2.9922v0.003906c2.6641-0.082031 5.2773 0.75 7.4023 2.3594 3.1992 1.9453 7.3281 1.3672 9.8672-1.3867 2.543-2.75 2.793-6.9102 0.60156-9.9492-2.8633-2.4609-6.2188-4.2852-9.8398-5.3516v-2.8359c0.53125-2.332-0.027344-4.7852-1.5234-6.6562-1.4922-1.8711-3.7578-2.9648-6.1523-2.9648-2.3945 0-4.6602 1.0938-6.1523 2.9648-1.4961 1.8711-2.0547 4.3242-1.5234 6.6562v3.2305c-3.5859 1.1797-6.7188 3.4414-8.9727 6.4688-2.2539 3.0312-3.5195 6.6797-3.6211 10.453 0.14062 4.0156 1.5703 7.875 4.082 11.012 2.5117 3.1328 5.9648 5.375 9.8516 6.3867 2.3633 0.62891 10.863 0 10.863 3.9375 0 1.418-1.9688 2.9922-4.5664 2.9922-2.6602 0.039063-5.2578-0.79297-7.3984-2.3633-3.1836-1.8711-7.2422-1.2812-9.7578 1.4258-2.5156 2.7031-2.8125 6.793-0.71484 9.832 2.957 2.5156 6.4219 4.3711 10.156 5.4297v2.8359c0 4.3477 3.5234 7.8711 7.8711 7.8711s7.8711-3.5234 7.8711-7.8711v-3.2266c3.5273-1.2344 6.5938-3.5195 8.7891-6.543 2.1953-3.0234 3.4141-6.6484 3.4922-10.383-0.078125-4.9062-2.1523-9.5703-5.7461-12.91-4.0234-3.3203-9.1094-5.082-14.328-4.9609z"/>
  <path d="m431.88 585.94h-11.254v-134.85c0.53125-2.3359-0.03125-4.7891-1.5234-6.6602-1.4922-1.8711-3.7578-2.9648-6.1523-2.9648s-4.6602 1.0938-6.1562 2.9648c-1.4922 1.8711-2.0508 4.3242-1.5195 6.6602v142.48-0.003907c0 2.0898 0.82812 4.0898 2.3047 5.5664 1.4766 1.4766 3.4805 2.3086 5.5664 2.3086h0.78906l-13.934 14.012-13.699-14.168h0.86719v-0.003906c2.0859 0 4.0898-0.82812 5.5664-2.3047 1.4766-1.4766 2.3047-3.4805 2.3047-5.5664v-114.7c0.53125-2.3359-0.027343-4.7852-1.5195-6.6602-1.4961-1.8711-3.7617-2.9609-6.1562-2.9609s-4.6602 1.0898-6.1523 2.9609c-1.4961 1.875-2.0547 4.3242-1.5234 6.6602v107.22h-11.176c-3.0664 0.035156-5.8281 1.8477-7.0859 4.6445-1.1484 2.8477-0.53516 6.1055 1.5742 8.3438l31.488 32.984c1.4727 1.5 3.4844 2.3516 5.5898 2.3594 2.0742-0.027343 4.0547-0.87891 5.5078-2.3594l31.488-32.984c2.3594-2.0781 3.2578-5.3594 2.2852-8.3438-1.3125-2.9297-4.2734-4.7656-7.4805-4.6445z"/>
  <path d="m387.32 462.5c2.0898 0 4.0898-0.83203 5.5664-2.3086 1.4766-1.4766 2.3047-3.4766 2.3047-5.5664v-3.6992c0.53516-2.3359-0.027343-4.7852-1.5195-6.6562-1.4961-1.875-3.7578-2.9648-6.1562-2.9648-2.3945 0-4.6602 1.0898-6.1523 2.9648-1.4922 1.8711-2.0547 4.3203-1.5195 6.6562v4.1719c0.23438 4.0156 3.4609 7.207 7.4766 7.4023z"/>
  <path d="m290.26 242.95h-11.258v-69.512c0.53516-2.3359-0.027344-4.7852-1.5195-6.6562-1.4922-1.875-3.7578-2.9648-6.1523-2.9648-2.3984 0-4.6602 1.0898-6.1562 2.9648-1.4922 1.8711-2.0547 4.3203-1.5195 6.6562v76.988c0 2.0898 0.82812 4.0898 2.3047 5.5664 1.4766 1.4766 3.4766 2.3047 5.5664 2.3047h0.86719l-14.094 14.25-13.461-14.25h0.86719c2.0859 0 4.0898-0.82812 5.5664-2.3047 1.4766-1.4766 2.3047-3.4766 2.3047-5.5664v-49.121c-0.81641-3.582-4-6.1211-7.6758-6.1211-3.6719 0-6.8594 2.5391-7.6758 6.1211v41.645h-11.414c-3 0.14453-5.6562 1.9883-6.8438 4.75s-0.69922 5.957 1.2578 8.2383l31.488 32.984c3.0703 3.0508 8.0273 3.0508 11.098 0l31.488-32.984c1.9492-2.2695 2.4453-5.4492 1.2773-8.207-1.1719-2.7539-3.8008-4.6094-6.7891-4.7812z"/>
  <path d="m245.71 184.86c2.0859 0 4.0898-0.82812 5.5664-2.3047 1.4766-1.4766 2.3047-3.4805 2.3047-5.5664v-3.543c0.53125-2.3359-0.027344-4.7852-1.5195-6.6562-1.4961-1.875-3.7578-2.9648-6.1562-2.9648-2.3945 0-4.6602 1.0898-6.1523 2.9648-1.4922 1.8711-2.0547 4.3203-1.5234 6.6562v3.6992c0.078126 4.1367 3.3477 7.5078 7.4805 7.7148z"/>
  <path d="m580.35 211.62c-1.2578-2.7969-4.0234-4.6094-7.0859-4.6445h-11.258v-33.535c0.53125-2.3359-0.027344-4.7852-1.5195-6.6562-1.4961-1.875-3.7578-2.9648-6.1562-2.9648-2.3945 0-4.6602 1.0898-6.1523 2.9648-1.4922 1.8711-2.0547 4.3203-1.5195 6.6562v41.172c0 2.0859 0.82812 4.0898 2.3047 5.5664 1.4766 1.4766 3.4766 2.3047 5.5664 2.3047h0.78906l-13.621 14.012-13.699-14.168h0.86719c2.0898 0 4.0898-0.83203 5.5664-2.3086 1.4766-1.4727 2.3047-3.4766 2.3047-5.5664v-13.145c0-4.3477-3.5234-7.8711-7.8711-7.8711-4.3477 0-7.8711 3.5234-7.8711 7.8711v5.668h-11.258c-2.9883 0.17578-5.6172 2.0273-6.7852 4.7852-1.1719 2.7539-0.67578 5.9336 1.2734 8.2031l31.488 32.984c1.4727 1.5039 3.4883 2.3516 5.5898 2.3633 2.0781-0.03125 4.0586-0.87891 5.5117-2.3633l31.488-32.984c2.2734-2.1289 3.0742-5.4023 2.0469-8.3438z"/>
  <path d="m528.71 184.86c2.0859 0 4.0898-0.82812 5.5664-2.3047 1.4766-1.4766 2.3047-3.4805 2.3047-5.5664v-3.543c0-4.3477-3.5234-7.8711-7.8711-7.8711-4.3477 0-7.8711 3.5234-7.8711 7.8711v3.6992c0.082031 4.2852 3.582 7.7148 7.8711 7.7148z"/>
  <path d="m394.49 252.95c3.0625 3 7.9609 3 11.02 0l31.488-32.984c1.9531-2.2695 2.4453-5.4492 1.2773-8.2031-1.168-2.7578-3.8008-4.6094-6.7852-4.7852h-10.945v-33.535c0-4.3477-3.5234-7.8711-7.8711-7.8711s-7.8711 3.5234-7.8711 7.8711v41.172c0 2.0859 0.82812 4.0898 2.3047 5.5664 1.4766 1.4766 3.4805 2.3047 5.5664 2.3047h0.86719l-13.539 14.012-13.699-14.168h0.86719c2.0859 0 4.0898-0.83203 5.5664-2.3086 1.4766-1.4727 2.3047-3.4766 2.3047-5.5664v-13.145c0-4.3477-3.5234-7.8711-7.8711-7.8711-4.3477 0-7.8711 3.5234-7.8711 7.8711v5.668h-10.785c-2.9883 0.17578-5.6172 2.0273-6.7891 4.7852-1.168 2.7539-0.67188 5.9336 1.2773 8.2031z"/>
  <path d="m387.17 184.86c2.0859 0 4.0898-0.82812 5.5664-2.3047 1.4766-1.4766 2.3047-3.4805 2.3047-5.5664v-3.543c0-4.3477-3.5234-7.8711-7.8711-7.8711-4.3477 0-7.8711 3.5234-7.8711 7.8711v3.6992c0.082031 4.2852 3.582 7.7148 7.8711 7.7148z"/>
  <path d="m570.51 360.64h-11.258v-33.453c0-4.3477-3.5234-7.875-7.8711-7.875s-7.875 3.5273-7.875 7.875v41.328c0 2.0859 0.83203 4.0898 2.3086 5.5664s3.4766 2.3047 5.5664 2.3047h0.86719l-13.699 14.168-13.539-14.168h0.94141c2.0898 0 4.0898-0.82812 5.5664-2.3047s2.3086-3.4805 2.3086-5.5664v-13.461c0-4.3477-3.5273-7.875-7.875-7.875-4.3477 0-7.8711 3.5273-7.8711 7.875v5.5859h-11.176c-3.0195 0.15234-5.6875 2.0195-6.8594 4.8047-1.1758 2.7852-0.65234 5.9961 1.3477 8.2656l31.488 32.984c1.4648 1.4531 3.4453 2.2734 5.5117 2.2812 2.0625-0.007812 4.043-0.82812 5.5078-2.2812l31.488-32.984c2-2.2695 2.5234-5.4805 1.3477-8.2656-1.1719-2.7852-3.8398-4.6523-6.8594-4.8047z"/>
  <path d="m525.95 338.6c2.0898 0 4.0898-0.83203 5.5664-2.3047 1.4766-1.4766 2.3086-3.4805 2.3086-5.5664v-3.7031c0-4.3477-3.5273-7.8711-7.875-7.8711-4.3477 0-7.8711 3.5234-7.8711 7.8711v3.7031c0 2.0859 0.83203 4.0898 2.3047 5.5664 1.4766 1.4727 3.4805 2.3047 5.5664 2.3047z"/>
  <path d="m290.26 360.64h-11.258v-33.453c0.53516-2.3359-0.027344-4.7891-1.5195-6.6602-1.4922-1.8711-3.7578-2.9609-6.1523-2.9609-2.3984 0-4.6602 1.0898-6.1562 2.9609-1.4922 1.8711-2.0547 4.3242-1.5195 6.6602v41.328c0 2.0859 0.82812 4.0898 2.3047 5.5664 1.4766 1.4766 3.4766 2.3047 5.5664 2.3047h0.86719l-14.094 13.855-13.461-13.855h0.86719c2.0859 0 4.0898-0.82812 5.5664-2.3047 1.4766-1.4766 2.3047-3.4805 2.3047-5.5664v-13.461c0.53125-2.3359-0.027344-4.7891-1.5195-6.6602-1.4961-1.8711-3.7578-2.9609-6.1562-2.9609-2.3945 0-4.6602 1.0898-6.1523 2.9609s-2.0547 4.3242-1.5234 6.6602v5.5859h-11.414c-3.0312 0.125-5.7227 1.9805-6.918 4.7734-1.1914 2.7891-0.67578 6.0156 1.332 8.2969l31.488 32.984c3.0703 3.0508 8.0273 3.0508 11.098 0l31.488-32.984c2.3867-2.0586 3.3164-5.3438 2.3633-8.3438-1.2812-2.9336-4.2031-4.8008-7.4023-4.7266z"/>
  <path d="m245.71 338.6c2.0859 0 4.0898-0.83203 5.5664-2.3047 1.4766-1.4766 2.3047-3.4805 2.3047-5.5664v-3.7031c0.53125-2.332-0.027344-4.7852-1.5195-6.6562-1.4961-1.875-3.7578-2.9648-6.1562-2.9648-2.3945 0-4.6602 1.0898-6.1523 2.9648-1.4922 1.8711-2.0547 4.3242-1.5234 6.6562v3.7031c-0.003906 4.1953 3.2891 7.6602 7.4805 7.8711z"/>
 </g>
</svg>