<?xml version="1.0" encoding="UTF-8"?>
<!-- The Best Svg Icon site in the world: iconSvg.co, Visit us! https://iconsvg.co -->
<svg fill="#000000" width="800px" height="800px" version="1.1" viewBox="144 144 512 512" xmlns="http://www.w3.org/2000/svg">
 <g>
  <path d="m346.59 401.68c0-41.59-33.836-75.43-75.43-75.43s-75.434 33.836-75.434 75.43 33.84 75.434 75.434 75.434c41.594 0.003906 75.43-33.84 75.43-75.434zm-75.43 60.32c-33.262 0-60.32-27.059-60.32-60.32 0-33.258 27.059-60.316 60.32-60.316 33.258 0 60.316 27.059 60.316 60.316 0 33.262-27.062 60.32-60.316 60.32z"/>
  <path d="m245.62 385.5c4.0547 0 7.3555 3.293 7.3555 7.3438 0 3.4766 2.8203 6.2969 6.2969 6.2969 3.4766 0 6.2969-2.8203 6.2969-6.2969 0-11-8.9531-19.941-19.949-19.941-11 0-19.941 8.9492-19.941 19.941 0 3.4766 2.8203 6.2969 6.2969 6.2969 3.4766 0 6.2969-2.8203 6.2969-6.2969 0.003906-4.0508 3.2969-7.3438 7.3477-7.3438z"/>
  <path d="m297.12 372.9c-11 0-19.941 8.9492-19.941 19.941 0 3.4766 2.8203 6.2969 6.2969 6.2969 3.4766 0 6.2969-2.8203 6.2969-6.2969 0-4.0508 3.293-7.3438 7.3438-7.3438 4.0547 0 7.3516 3.293 7.3516 7.3438 0 3.4766 2.8203 6.2969 6.2969 6.2969 3.4766 0 6.2969-2.8203 6.2969-6.2969 0.007812-10.992-8.9453-19.941-19.941-19.941z"/>
  <path d="m300.35 415.46c-3.2344-1.2734-6.8984 0.32812-8.1602 3.5625-3.4141 8.7109-11.672 14.34-21.035 14.34-9.0977 0-17.27-5.4141-20.812-13.801-1.3555-3.2031-5.0625-4.6992-8.2539-3.3516-3.2031 1.3555-4.707 5.0469-3.3516 8.2539 5.5234 13.055 18.242 21.488 32.414 21.488 14.582 0 27.441-8.7656 32.758-22.332 1.2695-3.2383-0.32031-6.8906-3.5586-8.1602z"/>
  <path d="m306.49 322.56c11.113 0 20.152-9.0391 20.152-20.152 0-30.289 24.641-54.93 54.93-54.93 19.773 0 37.785 10.707 47.484 27.457-5.457 1.4492-10.105 5.1484-12.746 10.359-3.4492 6.8047-2.7969 14.863 1.707 21.016l22.371 30.582c3.7773 5.168 9.8633 8.2539 16.27 8.2539 6.4023 0 12.484-3.082 16.262-8.2539l22.371-30.578c4.5078-6.1562 5.1602-14.211 1.707-21.02-3.457-6.8047-10.34-11.035-17.973-11.035h-6.5664c-12.273-39.785-48.828-67.082-90.891-67.082-52.512 0-95.234 42.723-95.234 95.234 0.003906 11.109 9.0469 20.148 20.156 20.148zm75.082-100.27c37.066 0 69.051 25.207 77.789 61.305 0.82031 3.3906 3.8594 5.7773 7.3438 5.7773h12.316c1.9102 0 3.6328 1.0586 4.4922 2.7539 0.86328 1.7031 0.69922 3.7188-0.42188 5.2539l-22.375 30.582c-1.8906 2.5898-6.2383 2.5898-8.1328 0l-22.371-30.582c-1.1289-1.5352-1.2891-3.5508-0.42969-5.25 0.86328-1.6992 2.5859-2.7539 4.4922-2.7539h6.2188c2.4492 0 4.7461-1.1875 6.168-3.1836 1.4141-2 1.7773-4.5586 0.96875-6.8711-9.8477-28.082-36.395-46.945-66.059-46.945-38.621 0-70.043 31.422-70.043 70.043 0 2.7773-2.2617 5.0391-5.0391 5.0391-2.7773 0-5.0391-2.2617-5.0391-5.0391 0-44.191 35.941-80.129 80.121-80.129z"/>
  <path d="m495.9 484.58c-11.113 0-20.152 9.0391-20.152 20.152 0 30.289-24.641 54.93-54.93 54.93-19.773 0-37.785-10.707-47.484-27.457 5.457-1.4492 10.105-5.1484 12.746-10.359 3.4492-6.8047 2.7969-14.863-1.707-21.016l-22.371-30.582c-3.7773-5.168-9.8633-8.2539-16.27-8.2539-6.4023 0-12.484 3.082-16.262 8.2539l-22.371 30.578c-4.5078 6.1562-5.1602 14.211-1.707 21.02 3.457 6.8047 10.34 11.035 17.973 11.035h6.5664c12.273 39.785 48.828 67.082 90.891 67.082 52.512 0 95.234-42.723 95.234-95.234-0.003907-11.109-9.0469-20.148-20.156-20.148zm-75.082 100.27c-37.066 0-69.051-25.207-77.789-61.305-0.82031-3.3906-3.8594-5.7773-7.3438-5.7773h-12.316c-1.9102 0-3.6328-1.0586-4.4922-2.7539-0.86328-1.7031-0.69922-3.7188 0.42188-5.2539l22.375-30.582c0.94531-1.293 2.4648-2.0664 4.0664-2.0664 1.6016 0 3.1172 0.76953 4.0664 2.0664l22.371 30.582c1.1289 1.5352 1.2891 3.5508 0.42969 5.25-0.86328 1.6992-2.5859 2.7539-4.4922 2.7539h-6.2188c-2.4492 0-4.7461 1.1875-6.168 3.1836-1.4141 2-1.7773 4.5586-0.96875 6.8711 9.8477 28.082 36.395 46.945 66.059 46.945 38.621 0 70.043-31.422 70.043-70.043 0-2.7773 2.2617-5.0391 5.0391-5.0391 2.7773 0 5.0391 2.2617 5.0391 5.0391 0 44.191-35.941 80.129-80.121 80.129z"/>
  <path d="m530.81 326.25c-41.594 0-75.434 33.836-75.434 75.43s33.84 75.434 75.434 75.434c41.59 0 75.43-33.84 75.43-75.434 0-41.59-33.84-75.43-75.43-75.43zm0 135.75c-33.262 0-60.32-27.059-60.32-60.32 0-33.258 27.059-60.316 60.32-60.316 33.258 0 60.316 27.059 60.316 60.316 0 33.262-27.062 60.32-60.316 60.32z"/>
  <path d="m505.27 385.5c4.0547 0 7.3555 3.293 7.3555 7.3438 0 3.4766 2.8203 6.2969 6.2969 6.2969s6.2969-2.8203 6.2969-6.2969c0-11-8.9531-19.941-19.949-19.941-11 0-19.941 8.9492-19.941 19.941 0 3.4766 2.8203 6.2969 6.2969 6.2969s6.2969-2.8203 6.2969-6.2969c0.003906-4.0508 3.2969-7.3438 7.3477-7.3438z"/>
  <path d="m556.77 372.9c-11 0-19.941 8.9492-19.941 19.941 0 3.4766 2.8203 6.2969 6.2969 6.2969 3.4766 0 6.2969-2.8203 6.2969-6.2969 0-4.0508 3.293-7.3438 7.3438-7.3438 4.0547 0 7.3516 3.293 7.3516 7.3438 0 3.4766 2.8203 6.2969 6.2969 6.2969 3.4766 0 6.2969-2.8203 6.2969-6.2969 0.003907-10.992-8.9453-19.941-19.941-19.941z"/>
  <path d="m560 415.46c-3.2383-1.2734-6.8906 0.32812-8.1602 3.5625-3.4141 8.7109-11.672 14.34-21.035 14.34-9.0977 0-17.27-5.4141-20.812-13.801-1.3594-3.2031-5.0586-4.6992-8.2539-3.3516-3.2031 1.3555-4.707 5.0469-3.3516 8.2539 5.5234 13.055 18.242 21.488 32.414 21.488 14.582 0 27.441-8.7656 32.758-22.332 1.2695-3.2383-0.32422-6.8906-3.5586-8.1602z"/>
  <path d="m400.98 462.29c4.1758 0 7.5586-3.3789 7.5586-7.5586v-6.1328c15.68-3.3359 21.582-18.164 21.582-27.625 0-7.0391-2.5547-17.852-18.777-23.438l-14.57-4.8047c-2.2422-0.71875-11.324-3.9531-10.359-12.941 0.36719-3.4297 1.3711-6.0703 4.1094-7.8711 2.2383-1.4375 5.0078-2.1562 8.3086-2.1562 5.6055 0 9.4219 0.94531 11.914 4.1758 1.3672 1.8672 1.8125 3.2383 2.1875 6.4727 0 0 0.44141 5.3242 6.8203 5.3242s7.3594-5.0742 7.4922-5.9844c0.57031-4.1445-1.6836-11.078-4.8281-15.195-3.4023-4.4648-8.1562-7.25-13.887-8.5938v-6.8672c0-4.1758-3.3789-7.5586-7.5586-7.5586-4.1758 0-7.5586 3.3789-7.5586 7.5586v6.4141c-6.9219 1.1133-12.227 4.0898-15.875 8.9727-3.3594 4.5234-8.9766 13.238-3.2227 28.312 4.957 13.004 28.621 17.156 28.621 17.156 4.418 1.0781 12.867 2.7695 12.891 12.965 0.003906 3.7148-2.2617 10.621-12.973 11.453-0.60547-0.15625-1.2305-0.26563-1.8828-0.26563-0.71875 0-1.4023 0.13281-2.0625 0.31641-5.6133-0.52344-12.332-3.5703-12.332-13.121 0 0 0.10156-5.5508-6.8203-5.5508-6.9219 0-7.4609 5.5508-7.4609 5.5508 0 7.0391 1.0078 11.996 4.6836 16.809 5.1445 6.8008 11.352 9.4219 16.438 10.469v6.1445c0.003906 4.1836 3.3867 7.5703 7.5625 7.5703z"/>
 </g>
</svg>