<?xml version="1.0" encoding="UTF-8"?>
<!-- The Best Svg Icon site in the world: iconSvg.co, Visit us! https://iconsvg.co -->
<svg fill="#000000" width="800px" height="800px" version="1.1" viewBox="144 144 512 512" xmlns="http://www.w3.org/2000/svg">
 <g>
  <path d="m480.14 401.01c0-44.195-35.953-80.148-80.141-80.148s-80.141 35.961-80.141 80.148c0 10.242 1.9062 20.227 5.668 29.645 1.0742 2.6992 4.1445 4.0039 6.8164 2.9336 2.6992-1.0703 4.0078-4.125 2.9336-6.8164-3.2656-8.1875-4.9219-16.855-4.9219-25.762 0-38.406 31.242-69.652 69.645-69.652 38.406 0 69.645 31.246 69.645 69.652s-31.242 69.652-69.645 69.652c-3.7539 0-7.5-0.30078-11.137-0.88672-2.8672-0.48828-5.5586 1.4844-6.0156 4.3438-0.45703 2.8594 1.4805 5.5586 4.3438 6.0156 4.1875 0.67578 8.4961 1.0195 12.805 1.0195 44.195 0.003906 80.145-35.953 80.145-80.145z"/>
  <path d="m371.08 464.4c-7.5586-3.4531-14.395-8.2031-20.316-14.113-2.8906-2.9023-5.5273-6.0312-7.8242-9.3086-1.6602-2.3711-4.9336-2.9492-7.3086-1.2812-2.3711 1.6641-2.9492 4.9336-1.2812 7.3086 2.6445 3.7734 5.668 7.3672 8.9961 10.707 6.8125 6.8008 14.68 12.266 23.379 16.238 0.70312 0.32422 1.4414 0.47656 2.1719 0.47656 1.9961 0 3.8945-1.1406 4.7773-3.0703 1.2031-2.6445 0.042969-5.7578-2.5938-6.957z"/>
  <path d="m384.96 512.66c-55.555-7.543-97.449-55.473-97.449-111.5 0-56.152 41.891-104.11 97.441-111.54 2.5977-0.35156 4.5469-2.5742 4.5469-5.2031v-97.816l28.906 28.902c1.0234 1.0234 2.3672 1.5391 3.7109 1.5391s2.6875-0.51562 3.7109-1.5391c2.0508-2.0508 2.0508-5.3672 0-7.4219l-37.68-37.676c-2.0508-2.0508-5.3672-2.0508-7.4219 0l-37.676 37.676c-2.0508 2.0508-2.0508 5.3672 0 7.4219 2.0508 2.0508 5.3672 2.0508 7.4219 0l28.531-28.535v92.941c-58.465 10.07-102 61.398-102 121.25 0 59.719 43.531 111.02 102 121.2v108.55c0 2.9023 2.3477 5.2461 5.2461 5.2461 2.9023 0 5.2461-2.3477 5.2461-5.2461l0.003906-113.05c0-2.625-1.9414-4.8477-4.5391-5.1992z"/>
  <path d="m415.92 278.85c-2.8594-0.30859-5.5039 1.6641-5.8789 4.5352-0.36719 2.875 1.6602 5.5039 4.5352 5.8789 55.93 7.2148 98.105 55.258 98.105 111.75 0 56.238-41.969 104.25-97.625 111.69-2.8711 0.38281-4.8906 3.0234-4.5039 5.8984 0.35156 2.6328 2.6016 4.5508 5.1953 4.5508 0.23047 0 0.46875-0.015626 0.70312-0.046876 60.84-8.1289 106.72-60.621 106.72-122.09 0.007813-61.746-46.102-114.27-107.25-122.16z"/>
  <path d="m398.83 432.14c-8.4609 0-14.457-3.0586-20.336-6.2344l-4.9844 7.8711c6.1211 4.5898 15.992 7.1797 21.238 7.7617v10.938h10.496v-11.047c15.742-1.7617 20.305-11.992 20.305-24.219 0-31.383-39.75-19.047-39.75-37.855 0-6.582 2.2891-12.574 13.809-12.574 5.168 0 11.309 1.418 17.773 5.6484l5.1602-7.5273c-5.2891-4-12.047-6.4727-17.297-7.1797v-10.207h-10.496v10.207c-10.496 1.1797-19.477 8.9375-19.477 21.754 0 29.27 39.582 13.398 39.582 38.559 0 7.875-3.8008 14.105-16.023 14.105z"/>
 </g>
</svg>