<?xml version="1.0" encoding="UTF-8"?>
<!-- The Best Svg Icon site in the world: iconSvg.co, Visit us! https://iconsvg.co -->
<svg fill="#000000" width="800px" height="800px" version="1.1" viewBox="144 144 512 512" xmlns="http://www.w3.org/2000/svg">
 <g>
  <path d="m607.82 444.32c-16.273-8.6133-50.539 5.5273-104.41 43.168-21.035-23.75-58.688-38.543-99.723-39.086v-43.781c9.0547 4.7305 17.91 7.1289 26.391 7.1289 40.699 0 58.91-53.195 59.668-55.461 0.31641-0.9375 0.24219-1.9492-0.19531-2.8281-0.4375-0.875-1.1992-1.5469-2.1367-1.8555-0.64453-0.21094-15.859-5.2148-33.832-5.2148-14.691 0-26.895 3.3359-36.258 9.9102-5.668 3.9805-10.211 9.1055-13.633 15.316v-47.699c37-1.9297 66.523-32.641 66.523-70.125 0-38.719-31.508-70.223-70.223-70.223-38.723 0-70.223 31.5-70.223 70.223 0 37.484 29.512 68.195 66.523 70.125v47.707c-3.4258-6.207-7.9688-11.336-13.637-15.32-9.3672-6.5742-21.574-9.9102-36.27-9.9102-17.973 0-33.188 5.0039-33.824 5.2148-0.93359 0.3125-1.6992 0.97656-2.1367 1.8555-0.43359 0.875-0.51562 1.8906-0.20312 2.8281 0.75 2.2617 18.973 55.453 59.668 55.461h0.003906c8.4844 0 17.34-2.3984 26.395-7.1289v43.867c-30.754 0.88281-60.105 9.9062-81.289 25.043-38.23-1.9102-69.738 5.0977-81.438 8.1719v-10.699c0-9.7305-7.9141-17.645-17.648-17.645h-15.816c-9.7344 0-17.648 7.9141-17.648 17.645v123.1c0 9.7383 7.9141 17.648 17.648 17.648h15.816c9.7344 0 17.648-7.9102 17.648-17.648v-9.0742c16.727 2.2227 79.484 10.973 106.32 20.133l1.3281 0.45703c14.895 5.0938 31.633 10.812 51.578 10.812 1.5352 0 3.0938-0.035156 4.6758-0.10547 14.082-0.64062 28.191-4.2031 42.566-10.785 0.054687-0.015625 0.10547-0.046875 0.16016-0.070313 11.516-5.2852 23.211-12.504 35.199-21.73 11.766-9.0547 24.512-18.766 36.844-28.164 25.473-19.418 51.816-39.488 71.309-55.082 33.855-27.066 33.855-30.074 33.855-32.719 0-0.26172 0.019532-0.61328 0.039063-1.0391 0.20703-4.6367 0.71875-16.941-9.625-22.418zm-154.23-90.535c11.699 0 22.371 2.3438 27.781 3.7695-4.7266 11.547-21.559 46.801-51.281 46.801-8.2539 0-17.059-2.707-26.184-8.0547 3.1875-28.215 19.898-42.516 49.684-42.516zm-83.684 50.566h-0.003906c-29.719 0-46.562-35.262-51.277-46.801 5.3945-1.4258 16.043-3.7695 27.773-3.7695 29.785 0 46.496 14.297 49.691 42.512-9.1328 5.3516-17.93 8.0586-26.184 8.0586zm-32.738-150.56c0-34.641 28.184-62.832 62.832-62.832 34.641 0 62.832 28.188 62.832 62.832 0 34.648-28.188 62.836-62.832 62.836-34.648 0-62.832-28.188-62.832-62.836zm62.906 201.98c0.42969-0.011719 0.86719 0 1.2852-0.011719 39.527 0 75.816 13.719 95.961 36.012-3.8945 2.7812-7.8984 5.6719-12 8.6875-7.2031-12.508-21.297-11.648-40.117-10.5-18.277 1.1289-43.316 2.6602-74.449-6.918-14.809-4.5508-29.523-7.2344-43.562-8.6211 20.02-11.723 45.934-18.434 72.883-18.648zm-184.14 148.57h-15.816c-5.6562 0-10.258-4.5938-10.258-10.254v-123.1c0-5.6523 4.6055-10.254 10.258-10.254h15.816c5.6523 0 10.258 4.6016 10.258 10.254v15.551c0 0.011719-0.003906 0.019531-0.003906 0.03125v94.227s0.003906 0.003907 0.003906 0.019531v13.266c-0.003906 5.6641-4.6055 10.258-10.258 10.258zm394.14-137.91c-0.015625 0.29688-0.03125 0.57422-0.035156 0.82031-4.1562 7.6641-58.508 49.086-102.27 82.434-12.34 9.4023-25.086 19.125-36.863 28.18-57.832 44.492-96.344 31.328-127.29 20.742l-1.3281-0.45703c-28.395-9.6992-93.273-18.582-108.72-20.602v-88.188c13.164-3.5469 74.137-17.984 135.01 0.74219 32.414 9.9688 58.219 8.3828 77.066 7.2344 21.027-1.2891 30.52-1.375 34.762 10.062 0 0.011719 0.011719 0.019531 0.011719 0.03125v0.003906c0.57422 1.5117 1.0742 3.3047 1.4648 5.3359 1.0078 5.1406 0 9.4023-3.082 13.035-14.715 17.352-70.547 15.688-88.898 15.148-2.7305-0.089844-4.8867-0.14063-6.3438-0.14063h-25.652c-2.0391 0-3.6992 1.6523-3.6992 3.6836 0 2.0469 1.6562 3.6992 3.6992 3.6992h25.652c1.3516 0 3.457 0.066406 6.125 0.14453 36.195 1.0664 79.668 0.023438 94.75-17.758 4.5664-5.375 6.1445-11.848 4.6992-19.219-0.26562-1.3789-0.57031-2.6562-0.91797-3.8633 81.059-59.781 107.55-61.191 116.13-56.648 5.5039 2.9023 5.9805 9.4961 5.7305 15.578z"/>
  <path d="m405.07 303.12v-9.6484c10.289-1.7695 18.156-10.727 18.156-21.52 0-12.051-9.8047-21.855-21.852-21.855h-2.7539c-7.9688 0-14.461-6.4844-14.461-14.461 0-7.9688 6.4883-14.461 14.461-14.461h18.164c2.0312 0 3.6836-1.6523 3.6836-3.6992 0-2.0391-1.6523-3.6914-3.6836-3.6914h-11.707v-9.3164c0-2.0352-1.6562-3.6914-3.6992-3.6914-2.0469 0-3.6992 1.6562-3.6992 3.6914v9.3594c-11.609 0.5-20.906 10.07-20.906 21.805 0 12.047 9.8047 21.852 21.852 21.852h2.7539c7.9766 0 14.465 6.4883 14.465 14.465 0 7.9648-6.4805 14.453-14.449 14.461h-0.015625-0.023437-18.129c-2.0469 0-3.6992 1.6562-3.6992 3.6914 0 2.0391 1.6523 3.6992 3.6992 3.6992h14.453v9.3086c0 2.0469 1.6523 3.6992 3.6992 3.6992 2.0352 0.007812 3.6914-1.6445 3.6914-3.6875z"/>
 </g>
</svg>