<?xml version="1.0" encoding="UTF-8"?>
<!-- The Best Svg Icon site in the world: iconSvg.co, Visit us! https://iconsvg.co -->
<svg fill="#000000" width="800px" height="800px" version="1.1" viewBox="144 144 512 512" xmlns="http://www.w3.org/2000/svg">
 <g>
  <path d="m392.12 533.82h15.746c2.0859 0 4.0898 0.82812 5.5664 2.3047 1.4766 1.4766 2.3047 3.4766 2.3047 5.5664 0 4.3477 3.5234 7.8711 7.8711 7.8711 4.3477 0 7.875-3.5234 7.875-7.8711 0-6.2656-2.4883-12.27-6.918-16.699-4.4297-4.4297-10.438-6.918-16.699-6.918v-7.8711c0-4.3477-3.5234-7.8711-7.8711-7.8711s-7.875 3.5234-7.875 7.8711v7.8711c-8.4375 0-16.23 4.5-20.449 11.809-4.2188 7.3086-4.2188 16.309 0 23.617 4.2188 7.3047 12.012 11.809 20.449 11.809h15.746c4.3477 0 7.8711 3.5234 7.8711 7.8711s-3.5234 7.8711-7.8711 7.8711h-15.746c-4.3477 0-7.8711-3.5234-7.8711-7.8711s-3.5234-7.8711-7.8711-7.8711c-4.3477 0-7.8711 3.5234-7.8711 7.8711 0 6.2617 2.4883 12.27 6.9141 16.699 4.4297 4.4297 10.438 6.918 16.699 6.918v7.8711c0 4.3477 3.5273 7.8711 7.875 7.8711s7.8711-3.5234 7.8711-7.8711v-7.8711c8.4375 0 16.234-4.5039 20.453-11.809 4.2188-7.3086 4.2188-16.309 0-23.617s-12.016-11.809-20.453-11.809h-15.746c-4.3477 0-7.8711-3.5234-7.8711-7.8711 0-4.3477 3.5234-7.8711 7.8711-7.8711z"/>
  <path d="m400 163.84c-62.637 0.011718-122.7 24.898-166.99 69.188-44.289 44.289-69.172 104.36-69.18 166.99-0.003906 62.633 24.867 122.7 69.145 167 3.0742 3.0742 8.0586 3.0742 11.133 0l33.457-33.457c3.0664-3.0742 3.0664-8.0508 0-11.121-24.234-24.215-40.746-55.074-47.438-88.672-6.6953-33.598-3.2734-68.43 9.832-100.08 13.102-31.652 35.301-58.711 63.781-77.746 28.484-19.035 61.973-29.195 96.234-29.195 34.258 0 67.746 10.16 96.23 29.195 28.48 19.035 50.68 46.094 63.781 77.746 13.105 31.652 16.527 66.484 9.832 100.08-6.6914 33.598-23.199 64.457-47.434 88.672-3.0703 3.0703-3.0703 8.0469 0 11.121l33.457 33.457h-0.003906c3.0742 3.0742 8.0586 3.0742 11.133 0 44.273-44.297 69.145-104.36 69.145-166.99-0.003907-62.629-24.879-122.7-69.156-166.98-44.277-44.293-104.33-69.188-166.96-69.211zm161.38 386.38-22.34-22.34c33.32-36.203 51.203-83.977 49.844-133.16-1.3594-49.188-21.852-95.898-57.121-130.21-35.27-34.309-82.531-53.504-131.73-53.504-49.203 0-96.469 19.195-131.73 53.504-35.27 34.309-55.766 81.02-57.125 130.21-1.3594 49.184 16.523 96.957 49.848 133.16l-22.391 22.34c-32.738-35.188-53.074-80.113-57.918-127.93-4.8398-47.82 6.0781-95.91 31.098-136.95 25.02-41.039 62.77-72.773 107.49-90.371 44.727-17.598 93.98-20.094 140.25-7.1094 46.277 12.984 87.039 40.738 116.08 79.035 29.039 38.297 44.77 85.039 44.785 133.1 0.17578 55.766-20.941 109.5-59.039 150.22z"/>
  <path d="m392.12 413.63c2.3906 1.3906 5.1094 2.1211 7.875 2.1094 5.1367 0 9.9492-2.5039 12.895-6.7109 2.9492-4.2109 3.6562-9.5898 1.8984-14.418-1.7539-4.8242-5.7578-8.4922-10.719-9.8203-4.9609-1.332-10.258-0.15625-14.195 3.1445-3.9336 3.3008-6.0117 8.3164-5.5625 13.434 0.44531 5.1172 3.3633 9.6914 7.8086 12.262z"/>
  <path d="m442.41 311.96c-6.8633 5.3203-67.297 52.41-76.5 68.352v0.003906c-5.3047 9.043-6.7773 19.828-4.0977 29.965 2.6797 10.137 9.293 18.785 18.371 24.027s19.875 6.6445 29.992 3.8984c10.117-2.75 18.723-9.418 23.906-18.531 9.2031-15.941 19.773-91.82 20.949-100.42l-0.003906-0.003906c0.42188-3.1562-1.1016-6.2617-3.8594-7.8555-2.7578-1.5977-6.207-1.375-8.7344 0.56641zm-21.949 99.84c-4.2188 7.3125-12.016 11.82-20.457 11.824-8.4453 0-16.246-4.5-20.469-11.809-4.2227-7.3086-4.2266-16.316-0.007812-23.629 4.7227-8.1172 33.141-32.371 57.031-51.562-4.6445 30.309-11.43 67.055-16.098 75.176z"/>
  <path d="m470.85 478.72h-141.7c-10.434 0.011719-20.438 4.1641-27.816 11.543-7.3789 7.3789-11.531 17.383-11.543 27.816v78.723c0.011719 10.434 4.1641 20.438 11.543 27.816 7.3789 7.3789 17.383 11.531 27.816 11.543h141.7c10.434-0.011718 20.438-4.1641 27.816-11.543 7.3789-7.3789 11.531-17.383 11.543-27.816v-78.723c-0.011719-10.434-4.1641-20.438-11.543-27.816-7.3789-7.3789-17.383-11.531-27.816-11.543zm23.617 118.08h-0.003906c0 6.2617-2.4844 12.27-6.9141 16.699-4.4297 4.4258-10.438 6.9141-16.699 6.9141h-141.7c-6.2617 0-12.27-2.4883-16.695-6.9141-4.4297-4.4297-6.918-10.438-6.918-16.699v-78.723c0-6.2617 2.4883-12.27 6.918-16.699 4.4258-4.4297 10.434-6.918 16.695-6.918h141.7c6.2617 0 12.27 2.4883 16.699 6.918 4.4297 4.4297 6.9141 10.438 6.9141 16.699z"/>
  <path d="m506.19 452.22c-3.7617-2.1406-8.543-0.83984-10.707 2.9062s-0.89844 8.5391 2.8359 10.727l27.039 15.609c1.9102 1.1914 4.2383 1.5078 6.3945 0.86719 2.1562-0.63672 3.9375-2.168 4.8945-4.2031 27.902-48.711 27.762-108.59-0.375-157.17-28.137-48.574-80.012-78.496-136.15-78.527s-108.04 29.828-136.23 78.371-28.406 108.43-0.55859 157.17c1.0664 2.1055 2.9844 3.6562 5.2695 4.2578 2.2812 0.60156 4.7148 0.19531 6.6797-1.1094l26.395-15.242c1.8242-1.0352 3.1562-2.7578 3.707-4.7812 0.55078-2.0234 0.26953-4.1836-0.78125-5.9961-1.0469-1.8164-2.7773-3.1406-4.8047-3.6758-2.0273-0.53516-4.1836-0.24219-5.9922 0.82031l-20.207 11.668v-0.003906c-8.8516-17.434-13.98-36.516-15.059-56.039h23.379c4.3477 0 7.8711-3.5234 7.8711-7.8711s-3.5234-7.875-7.8711-7.875h-23.215c1.043-19.492 6.1367-38.555 14.957-55.969l20.129 11.617v0.003906c1.8086 1.0586 3.9648 1.3555 5.9922 0.81641 2.0273-0.53516 3.7578-1.8555 4.8047-3.6719 1.0508-1.8164 1.332-3.9766 0.78125-6-0.55078-2.0234-1.8828-3.7461-3.707-4.7812l-20.16-11.645v0.003906c10.719-16.32 24.668-30.27 40.992-40.984l11.637 20.16h-0.003906c1.0352 1.8242 2.7578 3.1562 4.7812 3.707 2.0234 0.55078 4.1836 0.26953 6-0.78125 1.8125-1.0469 3.1367-2.7773 3.6719-4.8047s0.24219-4.1836-0.82031-5.9922l-11.602-20.129c17.414-8.8203 36.477-13.914 55.969-14.957v23.199c0 4.3477 3.5273 7.8711 7.875 7.8711s7.8711-3.5234 7.8711-7.8711v-23.215c19.492 1.043 38.555 6.1367 55.969 14.957l-11.617 20.145c-1.0625 1.8086-1.3555 3.9648-0.82031 5.9922s1.8594 3.7578 3.6758 4.8047c1.8125 1.0508 3.9727 1.332 5.9961 0.78125 2.0234-0.55078 3.7461-1.8828 4.7812-3.707l11.637-20.16c16.32 10.715 30.27 24.664 40.988 40.984l-20.16 11.641c-1.8242 1.0352-3.1562 2.7578-3.707 4.7812-0.54688 2.0234-0.26953 4.1836 0.78125 6 1.0469 1.8164 2.7773 3.1367 4.8047 3.6719 2.0273 0.53906 4.1836 0.24219 5.9922-0.81641l20.129-11.617v-0.003906c8.8242 17.414 13.918 36.477 14.957 55.969h-23.199c-4.3477 0-7.8711 3.5273-7.8711 7.875s3.5234 7.8711 7.8711 7.8711h23.379c-1.0859 19.516-6.1992 38.598-15.02 56.039z"/>
 </g>
</svg>