<?xml version="1.0" encoding="UTF-8"?>
<!-- The Best Svg Icon site in the world: iconSvg.co, Visit us! https://iconsvg.co -->
<svg fill="#000000" width="800px" height="800px" version="1.1" viewBox="144 144 512 512" xmlns="http://www.w3.org/2000/svg">
 <g>
  <path d="m352.77 477.73h25.586v57.07h-25.586z"/>
  <path d="m421.65 432.47h25.586v79.703h-25.586z"/>
  <path d="m489.54 363.59h26.566v114.14h-26.566z"/>
  <path d="m215.99 546.61h25.586v22.633h-25.586z"/>
  <path d="m283.89 523.98h26.566v33.457h-26.566z"/>
  <path d="m558.42 294.71h25.586v148.59h-25.586z"/>
  <path d="m285.14 346.86c21.438 0 41.996-8.5156 57.156-23.676 15.16-15.16 23.676-35.719 23.676-57.16 0-21.438-8.5156-41.996-23.676-57.156-15.16-15.16-35.719-23.676-57.156-23.676s-42 8.5156-57.16 23.676c-15.156 15.16-23.676 35.719-23.676 57.156 0.023437 21.434 8.5508 41.98 23.703 57.133 15.156 15.152 35.699 23.68 57.133 23.703zm0-72.059c-9.2773 0-17.969-4.5391-23.273-12.148-5.3047-7.6133-6.5508-17.336-3.3398-26.039 3.2109-8.707 10.477-15.289 19.453-17.629v-7.6172c0-3.2578 2.6445-5.9023 5.9062-5.9023s5.9023 2.6445 5.9023 5.9023v7.0859c6.6211 1.1094 12.637 4.5273 16.98 9.6484 4.3398 5.125 6.7266 11.617 6.7344 18.332 0 3.2617-2.6406 5.9023-5.9023 5.9023-3.2617 0-5.9062-2.6406-5.9062-5.9023-0.003906-4.3594-1.7266-8.5352-4.7891-11.633-3.0664-3.0977-7.2266-4.8633-11.582-4.918-0.72266 0.19141-1.4766 0.23438-2.2148 0.12891-5.6328 0.69141-10.52 4.2188-12.945 9.3477-2.4297 5.1289-2.0586 11.145 0.98047 15.941 3.0352 4.793 8.3164 7.6953 13.992 7.6914 9.3438-0.003906 18.09 4.5977 23.383 12.297 5.293 7.6992 6.457 17.512 3.1055 26.234-3.3477 8.7227-10.781 15.238-19.867 17.414v7.5586c0 3.2617-2.6445 5.9062-5.9023 5.9062-3.2617 0-5.9062-2.6445-5.9062-5.9062v-7.2578c-6.5078-1.2188-12.383-4.6719-16.613-9.7617-4.2344-5.0898-6.5547-11.5-6.5625-18.121 0-3.2578 2.6445-5.9023 5.9023-5.9023 3.2617 0 5.9062 2.6445 5.9062 5.9023 0 4.3945 1.7422 8.6055 4.8477 11.711 3.1055 3.1055 7.3203 4.8477 11.711 4.8477s8.6016-1.7422 11.707-4.8477c3.1055-3.1055 4.8516-7.3164 4.8516-11.711 0-4.3906-1.7461-8.6016-4.8516-11.707-3.1055-3.1055-7.3164-4.8516-11.707-4.8516z"/>
  <path d="m429.06 282.9h28.969l-185.33 185.63c-2.3047 2.3633-2.3047 6.1328 0 8.5 1.1016 1.1289 2.6016 1.7773 4.1758 1.8047 1.5977 0.015624 3.1367-0.58984 4.293-1.6914l185.74-185.58v29.559c0 3.2617 2.6445 5.9023 5.9062 5.9023 3.2578 0 5.9023-2.6406 5.9023-5.9023v-43.523c-0.042969-0.68359-0.19922-1.3594-0.46875-1.9883-0.29297-1.0078-0.80469-1.9375-1.5-2.7227-1.5547-1.5547-3.8164-1.793-5.7969-1.793h-41.891c-3.2617 0-5.9062 2.6445-5.9062 5.9062 0 3.2578 2.6445 5.9023 5.9062 5.9023z"/>
  <path d="m633.21 602.7h-49.199v-147.6h-25.586v147.6h-42.312v-113.16h-26.566v113.16h-42.312v-78.719h-25.582v78.719h-43.297v-56.09h-25.586v56.09h-42.312v-33.457h-26.566v33.457h-42.312v-21.648h-25.586v21.648h-49.199c-3.2617 0-5.9023 2.6445-5.9023 5.9023 0 3.2617 2.6406 5.9062 5.9023 5.9062h466.42c3.2617 0 5.9023-2.6445 5.9023-5.9062 0-3.2578-2.6406-5.9023-5.9023-5.9023z"/>
 </g>
</svg>