<?xml version="1.0" encoding="UTF-8"?>
<!-- The Best Svg Icon site in the world: iconSvg.co, Visit us! https://iconsvg.co -->
<svg fill="#000000" width="800px" height="800px" version="1.1" viewBox="144 144 512 512" xmlns="http://www.w3.org/2000/svg">
 <g>
  <path d="m464.8 354.98h-129.67c-4.8984-0.003906-9.5977-1.9531-13.066-5.418-3.4648-3.4688-5.4141-8.168-5.4219-13.066v-40.918c0-2.5312 2.0508-4.582 4.582-4.582h157.55c1.2148 0 2.3789 0.48437 3.2383 1.3398 0.85938 0.85938 1.3398 2.0273 1.3398 3.2422v40.898c-0.007813 4.9141-1.9648 9.625-5.4453 13.094-3.4805 3.4727-8.1992 5.418-13.113 5.4102zm-139-54.824v36.32c0.007813 5.1484 4.1797 9.3164 9.3242 9.3242h129.67c5.1641 0.019531 9.3672-4.1445 9.3984-9.3047v-36.34z"/>
  <path d="m501.76 565.63h-203.53c-2.5312 0-4.582-2.0508-4.582-4.582v-32.52 0.003906c0.003906-4.5508 1.8125-8.9102 5.0273-12.125 3.2148-3.2148 7.5742-5.0234 12.121-5.0273h178.39c4.5469 0.003906 8.9062 1.8125 12.121 5.0273 3.2188 3.2148 5.0273 7.5742 5.0312 12.125v32.52-0.003906c0 1.2148-0.48438 2.3828-1.3438 3.2383-0.85938 0.85938-2.0234 1.3438-3.2383 1.3438zm-198.95-9.1602h194.37v-27.938c-0.007813-4.4141-3.582-7.9883-7.9922-7.9922h-178.39c-4.4102 0.003907-7.9844 3.582-7.9883 7.9922z"/>
  <path d="m465.2 450.11c8.5 21.137 15.93 42.691 22.262 64.578 0.41406 1.3828 0.14062 2.8828-0.73438 4.0312-0.87109 1.1445-2.2266 1.8203-3.6641 1.832h-166.12c-1.4375-0.011719-2.793-0.6875-3.6641-1.832-0.875-1.1484-1.1484-2.6484-0.73047-4.0312 8.7031-29.953 16.215-49.145 22.258-64.578 11.129-28.488 17.863-45.664 20.383-99.938 0.10547-2.4492 2.1289-4.3711 4.5781-4.3516h80.473c2.4375 0.011719 4.4414 1.918 4.582 4.3516 2.5156 54.273 9.25 71.449 20.379 99.938z"/>
  <path d="m551.94 606.65v0.82422c-0.023437 6.8359-5.5742 12.367-12.41 12.367h-279.07c-3.2852 0.011719-6.4453-1.2852-8.7734-3.6055-2.3281-2.3203-3.6367-5.4727-3.6367-8.7617v-0.82422c0.007812-13.301 5.293-26.059 14.695-35.469s22.152-14.707 35.457-14.73h203.54c13.305 0.023437 26.062 5.3164 35.473 14.727 9.4102 9.4102 14.703 22.164 14.723 35.473z"/>
  <path d="m270.77 250.78c-3.4922-5.6875-5.3477-12.234-5.3555-18.914v-39.891c0.019532-6.5391 5.3242-11.824 11.859-11.816h39.07c6.5352-0.007812 11.84 5.2773 11.863 11.816v44.242h40.395v-44.242c0.015626-6.5234 5.2969-11.805 11.816-11.816h39.113c3.1367 0 6.1406 1.2422 8.3555 3.4609 2.2188 2.2148 3.4609 5.2188 3.4609 8.3555v44.242h40.441l0.003907-44.242c0.011719-6.5234 5.2969-11.805 11.816-11.816h39.137c3.1328 0 6.1367 1.2422 8.3555 3.4609 2.2148 2.2148 3.4609 5.2188 3.4609 8.3555v39.891c0.011719 6.6836-1.8438 13.234-5.3594 18.914l-24.137 39.16c-3.9258 6.3711-10.883 10.242-18.367 10.215h-173.43c-7.4648 0.011718-14.402-3.8555-18.32-10.215z"/>
 </g>
</svg>