<?xml version="1.0" encoding="UTF-8"?>
<!-- The Best Svg Icon site in the world: iconSvg.co, Visit us! https://iconsvg.co -->
<svg fill="#000000" width="800px" height="800px" version="1.1" viewBox="144 144 512 512" xmlns="http://www.w3.org/2000/svg">
 <g>
  <path d="m244.58 607.7h-0.003906c-13.594-0.003907-24.648-11.031-24.648-24.586v-164.62c0-13.559 11.059-24.586 24.648-24.586 5.5898 0 10.895 1.9023 15.344 5.5078l121.46 98.328c0.92188 0.74609 1.4609 1.8711 1.4609 3.0586s-0.53516 2.3125-1.4609 3.0586l-121.46 98.328c-4.4492 3.6016-9.7539 5.5078-15.344 5.5078zm0-205.92c-8.0703 0-16.777 6.3906-16.777 16.715v164.62c0 10.324 8.7109 16.715 16.777 16.715h0.003906c3.7656 0 7.3555-1.2969 10.391-3.7539l117.69-95.27-117.68-95.27c-3.0391-2.457-6.6328-3.7539-10.398-3.7539z"/>
  <path d="m445.36 500.8 155.05-125.51z"/>
  <path d="m579.7 607.7c-0.003906 0 0 0 0 0-5.5898 0-10.895-1.9062-15.344-5.5078l-121.46-98.328c-0.92188-0.74609-1.4609-1.8711-1.4609-3.0586s0.53516-2.3125 1.4609-3.0586l121.46-98.328c4.4492-3.6016 9.7578-5.5078 15.344-5.5078 13.594 0 24.648 11.031 24.648 24.586v164.62c0 6.8477-2.6953 13.164-7.5938 17.785-4.582 4.3242-10.797 6.8008-17.055 6.8008zm-128.08-106.9 117.69 95.27c3.0352 2.457 6.625 3.7539 10.391 3.7539 4.2734 0 8.5156-1.6953 11.652-4.6523 3.3047-3.1211 5.125-7.4023 5.125-12.062l0.003906-164.61c0-10.324-8.7109-16.715-16.777-16.715-3.7656 0-7.3594 1.2969-10.391 3.7539z"/>
  <path d="m542.18 630.25h-260.1c-10.539 0-19.625-6.418-23.141-16.355-3.5195-9.9375-0.49609-20.641 7.6953-27.273l143.02-115.78c1.4453-1.168 3.5078-1.168 4.9531 0l143.02 115.78c8.1914 6.6328 11.215 17.336 7.6953 27.273s-12.605 16.355-23.145 16.355zm-130.05-151.28-140.54 113.77c-6.7539 5.4688-7.1289 13.156-5.2266 18.527 1.8984 5.375 7.0273 11.113 15.719 11.113h260.1c8.6914 0 13.82-5.7383 15.723-11.113 1.9023-5.3711 1.5273-13.059-5.2266-18.527z"/>
  <path d="m428.66 348.88c-0.13281-0.17578-0.51562-0.46094-1.1523-0.85547-0.63281-0.39453-1.4453-0.82031-2.4297-1.2812-0.98438-0.46094-2.082-0.89844-3.2852-1.3164-1.207-0.41406-2.4219-0.71094-3.6484-0.88672v8.9375l2.1055 0.52734c2.2344 0.61328 4.25 1.2812 6.0469 2.0039 1.793 0.72266 3.3203 1.6211 4.5703 2.6953s2.2109 2.3789 2.8906 3.9102c0.67969 1.5352 1.0195 3.375 1.0195 5.5195 0 2.5-0.4375 4.625-1.3164 6.375-0.875 1.7539-2.0469 3.1875-3.5156 4.3047-1.4688 1.1172-3.1523 1.9609-5.0625 2.5312-1.9062 0.57031-3.9141 0.89844-6.0156 0.98438v7.625h-4.5352v-7.6914c-3.0234-0.26172-6.0117-0.875-8.9727-1.8398-2.957-0.96484-5.6211-2.2344-7.9844-3.8125l4.7305-9.3984c0.17578 0.21875 0.64453 0.58203 1.4141 1.0859 0.76562 0.50391 1.7422 1.0312 2.9258 1.5781s2.5195 1.0742 4.0117 1.5781c1.4883 0.50391 3.0234 0.86719 4.6016 1.0859v-8.7422l-3.1562-0.92188c-2.1484-0.65625-4.0117-1.3672-5.5859-2.1367-1.5781-0.76562-2.8828-1.6523-3.9141-2.6641-1.0312-1.0078-1.7969-2.168-2.3008-3.4844-0.50391-1.3125-0.75391-2.8477-0.75391-4.6016 0-2.2773 0.39453-4.3047 1.1836-6.082 0.78906-1.7734 1.8516-3.2969 3.1875-4.5703 1.3359-1.2695 2.9141-2.2656 4.7344-2.9922 1.8164-0.72266 3.7812-1.1953 5.8828-1.4141v-6.6406h4.5352v6.6406c2.8477 0.26562 5.5195 0.89844 8.0195 1.9062 2.4961 1.0078 4.668 2.0391 6.5078 3.0898zm-18.207-0.59375c0 1.0977 0.38281 1.9609 1.1484 2.5977 0.76562 0.63672 1.9141 1.1953 3.4531 1.6758v-8.0859c-3.0664 0.26562-4.6016 1.5352-4.6016 3.8125zm12.754 20.902c0-1.1406-0.46094-2.0273-1.3828-2.6602-0.92187-0.63281-2.1484-1.2148-3.6797-1.7422v7.8867c3.375-0.13281 5.0625-1.293 5.0625-3.4844z"/>
  <path d="m416.07 412.27c-29.301 0-53.137-23.836-53.137-53.137 0-29.301 23.836-53.137 53.137-53.137 29.297 0 53.137 23.836 53.137 53.137 0 29.297-23.836 53.137-53.137 53.137zm0-98.402c-24.957 0-45.266 20.305-45.266 45.266 0 24.957 20.305 45.266 45.266 45.266 24.957 0 45.266-20.305 45.266-45.266 0-24.961-20.305-45.266-45.266-45.266z"/>
  <path d="m536.9 261.82c-0.13281-0.17578-0.51563-0.46094-1.1523-0.85547-0.63672-0.39453-1.4453-0.82031-2.4297-1.2812s-2.082-0.89844-3.2891-1.3164c-1.207-0.41406-2.4219-0.71094-3.6484-0.88672v8.9375l2.1055 0.52734c2.2344 0.61328 4.2461 1.2812 6.0469 2.0039 1.793 0.72266 3.3203 1.6211 4.5703 2.6953 1.25 1.0742 2.2109 2.3789 2.8906 3.9102 0.67969 1.5352 1.0195 3.375 1.0195 5.5195 0 2.5-0.44141 4.625-1.3164 6.375-0.875 1.7539-2.0469 3.1875-3.5156 4.3047-1.4688 1.1172-3.1523 1.9609-5.0625 2.5312-1.9062 0.57031-3.9141 0.89844-6.0156 0.98438v7.625h-4.5352v-7.6914c-3.0234-0.26172-6.0117-0.875-8.9688-1.8398-2.957-0.96484-5.6211-2.2344-7.9844-3.8125l4.7305-9.3984c0.17578 0.21875 0.64453 0.58203 1.4141 1.0859 0.76172 0.50391 1.7422 1.0312 2.9219 1.5781 1.1836 0.55078 2.5195 1.0742 4.0117 1.5781 1.4883 0.50391 3.0234 0.86719 4.6016 1.0859v-8.7422l-3.1562-0.92188c-2.1484-0.65625-4.0078-1.3672-5.5859-2.1367-1.5781-0.76562-2.8828-1.6523-3.9141-2.6602-1.0312-1.0078-1.7969-2.168-2.3008-3.4844-0.50391-1.3164-0.75391-2.8477-0.75391-4.6016 0-2.2773 0.39453-4.3047 1.1836-6.082 0.78906-1.7734 1.8516-3.2969 3.1875-4.5703 1.3359-1.2695 2.9141-2.2656 4.7344-2.9922 1.8164-0.72266 3.7773-1.1953 5.8828-1.4141v-6.6406h4.5352v6.6406c2.8516 0.26172 5.5195 0.89844 8.0195 1.9062 2.4961 1.0078 4.6641 2.0352 6.5078 3.0898zm-18.207-0.58984c0 1.0938 0.38281 1.9609 1.1484 2.5977s1.9141 1.1953 3.4531 1.6758v-8.0859c-3.0664 0.26172-4.6016 1.5352-4.6016 3.8125zm12.754 20.898c0-1.1406-0.46094-2.0273-1.3828-2.6602-0.92188-0.63281-2.1484-1.2148-3.6797-1.7422v7.8867c3.375-0.12891 5.0625-1.293 5.0625-3.4844z"/>
  <path d="m445.36 504.74c-0.87891 0-1.7539-0.29297-2.4766-0.875l-30.746-24.891-30.75 24.891c-1.4453 1.168-3.5078 1.168-4.9531 0l-135.26-109.5c-5.7852-4.6836-9.1016-11.637-9.1016-19.078 0-7.4414 3.3164-14.398 9.1016-19.082l150.2-121.59c5.8555-4.7383 13.227-7.3516 20.762-7.3516 7.5352 0 14.906 2.6094 20.766 7.3516l44.734 36.215c0.88281 0.71484 1.4141 1.7773 1.457 2.9141 0.88672 24.441 20.754 43.59 45.223 43.59 2.5586 0 5.1797-0.23047 7.7891-0.68359 1.1172-0.19531 2.2656 0.10156 3.1484 0.82031l47.844 38.73c5.7852 4.6836 9.1016 11.637 9.1016 19.082 0 7.4414-3.3164 14.398-9.1016 19.078l-135.26 109.5c-0.72266 0.58203-1.6016 0.875-2.4766 0.875zm-33.227-269.59c-5.7344 0-11.348 1.9883-15.809 5.5977l-150.2 121.59c-3.9297 3.1797-6.1836 7.9062-6.1836 12.965 0 5.0547 2.2539 9.7812 6.1836 12.961l132.78 107.49 30.75-24.891c1.4453-1.168 3.5078-1.168 4.9531 0l30.746 24.891 132.78-107.49c3.9297-3.1797 6.1836-7.9062 6.1836-12.961 0-5.0547-2.2539-9.7812-6.1836-12.961l-46.484-37.629c-2.4609 0.34375-4.9219 0.51953-7.3438 0.51953-28.117 0-51.055-21.535-52.992-49.363l-43.375-35.113c-4.4609-3.6133-10.074-5.6016-15.812-5.6016z"/>
  <path d="m524.31 325.21c-28.727 0-52.043-22.48-53.086-51.176-0.023437-0.65234-0.050781-1.3008-0.050781-1.9609 0-29.301 23.836-53.137 53.137-53.137 29.297 0 53.137 23.836 53.137 53.137 0 25.902-18.504 47.914-44 52.34-3.0547 0.52734-6.1289 0.79688-9.1367 0.79688zm0-98.402c-24.957 0-45.266 20.305-45.266 45.266 0 0.55859 0.023437 1.1094 0.042969 1.6641 0.88672 24.453 20.754 43.602 45.223 43.602 2.5586 0 5.1797-0.23047 7.7891-0.68359 21.715-3.7656 37.477-22.516 37.477-44.582-0.003906-24.957-20.309-45.266-45.266-45.266z"/>
  <path d="m261.38 212.62c-0.13281-0.17578-0.51562-0.46094-1.1484-0.85547-0.63672-0.39453-1.4453-0.82031-2.4336-1.2812-0.98438-0.46094-2.082-0.89844-3.2852-1.3164-1.207-0.41406-2.4219-0.71094-3.6484-0.88672v8.9375l2.1055 0.52734c2.2344 0.61328 4.25 1.2812 6.0469 2.0039s3.3203 1.6211 4.5703 2.6953 2.2109 2.3789 2.8906 3.9102c0.67969 1.5352 1.0195 3.375 1.0195 5.5195 0 2.5-0.4375 4.625-1.3164 6.375-0.875 1.7539-2.0469 3.1875-3.5156 4.3047-1.4688 1.1172-3.1562 1.9609-5.0625 2.5312-1.9062 0.57031-3.9141 0.89844-6.0156 0.98438v7.625h-4.5352v-7.6914c-3.0234-0.26172-6.0156-0.875-8.9727-1.8398-2.957-0.96484-5.6211-2.2344-7.9844-3.8125l4.7305-9.3984c0.17578 0.21875 0.64844 0.58203 1.4141 1.0859 0.76562 0.50391 1.7422 1.0312 2.9258 1.5781 1.1836 0.55078 2.5195 1.0742 4.0078 1.5781 1.4883 0.50391 3.0234 0.86719 4.6016 1.0859v-8.7422l-3.1562-0.92188c-2.1484-0.65625-4.0117-1.3672-5.5859-2.1367-1.5781-0.76562-2.8828-1.6523-3.9141-2.6602-1.0312-1.0078-1.7969-2.168-2.3008-3.4844s-0.75391-2.8477-0.75391-4.6016c0-2.2773 0.39453-4.3047 1.1836-6.082 0.78906-1.7734 1.8516-3.2969 3.1875-4.5703 1.3359-1.2695 2.9141-2.2656 4.7305-2.9922 1.8203-0.72266 3.7812-1.1953 5.8828-1.4141v-6.6406h4.5352v6.6406c2.8477 0.26172 5.5195 0.89844 8.0195 1.9062 2.4961 1.0078 4.668 2.0352 6.5078 3.0898zm-18.207-0.58984c0 1.0938 0.38281 1.9609 1.1484 2.5977 0.76563 0.63672 1.918 1.1953 3.4531 1.6758v-8.0859c-3.0664 0.26172-4.6016 1.5312-4.6016 3.8125zm12.75 20.898c0-1.1406-0.46094-2.0273-1.3789-2.6602-0.92188-0.63281-2.1484-1.2148-3.6797-1.7422v7.8867c3.3711-0.13281 5.0586-1.293 5.0586-3.4844z"/>
  <path d="m248.79 276.02c-29.301 0-53.137-23.836-53.137-53.137 0-29.301 23.836-53.137 53.137-53.137 29.301 0 53.137 23.836 53.137 53.137 0 29.297-23.836 53.137-53.137 53.137zm0-98.402c-24.957 0-45.266 20.305-45.266 45.266 0 24.957 20.305 45.266 45.266 45.266 24.957 0 45.266-20.305 45.266-45.266 0-24.961-20.305-45.266-45.266-45.266z"/>
  <path d="m376.71 586.96h19.68v19.68h-19.68z"/>
  <path d="m406.23 586.96h19.68v19.68h-19.68z"/>
  <path d="m435.75 586.96h19.68v19.68h-19.68z"/>
 </g>
</svg>