<?xml version="1.0" encoding="UTF-8"?>
<!-- The Best Svg Icon site in the world: iconSvg.co, Visit us! https://iconsvg.co -->
<svg fill="#000000" width="800px" height="800px" version="1.1" viewBox="144 144 512 512" xmlns="http://www.w3.org/2000/svg">
 <path d="m431.49 297.66c0-4.1758 1.6562-8.1836 4.6094-11.133 2.9531-2.9531 6.957-4.6133 11.133-4.6133h39.359v-39.359c0-5.625 3-10.824 7.8711-13.637 4.875-2.8125 10.875-2.8125 15.746 0 4.8711 2.8125 7.8711 8.0117 7.8711 13.637v39.359h39.359c5.625 0 10.824 3 13.637 7.8711 2.8125 4.8711 2.8125 10.875 0 15.746s-8.0117 7.8711-13.637 7.8711h-39.359v39.359c0 5.625-3 10.824-7.8711 13.637-4.8711 2.8125-10.871 2.8125-15.746 0-4.8711-2.8125-7.8711-8.0117-7.8711-13.637v-39.359h-39.359c-4.1758 0-8.1797-1.6602-11.133-4.6094-2.9531-2.9531-4.6094-6.9609-4.6094-11.133zm125.95 188.93-110.21-0.003906c-5.625 0-10.82 3-13.633 7.8711-2.8125 4.875-2.8125 10.875 0 15.746 2.8125 4.8711 8.0078 7.8711 13.633 7.8711h110.21c5.625 0 10.824-3 13.637-7.8711 2.8125-4.8711 2.8125-10.871 0-15.746-2.8125-4.8711-8.0117-7.8711-13.637-7.8711zm-309.84-138.87c2.9492 2.9336 6.9375 4.5781 11.098 4.5781 4.1602 0 8.1484-1.6445 11.102-4.5781l27.867-27.867 27.867 27.867h-0.003906c2.9531 2.9336 6.9414 4.5781 11.102 4.5781s8.1484-1.6445 11.098-4.5781c2.9336-2.9492 4.5781-6.9375 4.5781-11.098s-1.6445-8.1484-4.5781-11.102l-27.867-27.863 27.867-27.867c3.4727-4.0547 4.6562-9.5898 3.1406-14.707-1.5117-5.1172-5.5156-9.1211-10.633-10.633s-10.652-0.33203-14.707 3.1406l-27.863 27.867-27.867-27.867c-4.0547-3.4727-9.5898-4.6523-14.707-3.1406-5.1172 1.5117-9.1211 5.5156-10.633 10.633-1.5117 5.1172-0.33203 10.652 3.1406 14.707l27.867 27.867-27.867 27.863c-2.9336 2.9531-4.5781 6.9414-4.5781 11.102s1.6445 8.1484 4.5781 11.098zm100.13 104.54-0.003907 0.003906c-2.9492-2.9336-6.9375-4.5781-11.098-4.5781s-8.1484 1.6445-11.102 4.5781l-77.93 77.934c-2.9336 2.9492-4.5781 6.9375-4.5781 11.098 0 4.1602 1.6445 8.1484 4.5781 11.102 2.9492 2.9297 6.9375 4.5781 11.098 4.5781 4.1602 0 8.1484-1.6484 11.102-4.5781l77.934-77.934h-0.003907c2.9336-2.9492 4.5781-6.9414 4.5781-11.102 0-4.1602-1.6445-8.1484-4.5781-11.098zm-81.555 42.195c6.2617 0 12.27-2.4844 16.699-6.9141 4.4258-4.4297 6.9141-10.438 6.9141-16.699 0-6.2656-2.4883-12.27-6.9141-16.699-4.4297-4.4297-10.438-6.918-16.699-6.918-6.2656 0-12.273 2.4883-16.699 6.918-4.4297 4.4297-6.918 10.434-6.918 16.699 0 6.2617 2.4883 12.27 6.918 16.699 4.4258 4.4297 10.434 6.9141 16.699 6.9141zm62.977 15.742-0.003906 0.003906c-6.2617 0-12.27 2.4883-16.695 6.918-4.4297 4.4258-6.918 10.434-6.918 16.699 0 6.2617 2.4883 12.27 6.918 16.699 4.4258 4.4258 10.434 6.9141 16.695 6.9141 6.2656 0 12.273-2.4883 16.699-6.9141 4.4297-4.4297 6.918-10.438 6.918-16.699 0-6.2656-2.4883-12.273-6.918-16.699-4.4258-4.4297-10.434-6.918-16.699-6.918z"/>
</svg>