<?xml version="1.0" encoding="UTF-8"?>
<!-- The Best Svg Icon site in the world: iconSvg.co, Visit us! https://iconsvg.co -->
<svg fill="#000000" width="800px" height="800px" version="1.1" viewBox="144 144 512 512" xmlns="http://www.w3.org/2000/svg">
 <g>
  <path d="m269.72 283.48c22.484 0 40.777-18.293 40.777-40.777s-18.293-40.777-40.777-40.777c-22.492 0-40.789 18.293-40.789 40.777s18.297 40.777 40.789 40.777zm0-71.055c16.699 0 30.281 13.582 30.281 30.281s-13.582 30.281-30.281 30.281c-16.699 0-30.293-13.582-30.293-30.281 0-16.703 13.594-30.281 30.293-30.281z"/>
  <path d="m615.02 200.42h-259.78c-8.7539 0-15.871 7.1172-15.871 15.871v83.652h-60.477c-2.2969 0-4.3242 1.5-5.0156 3.6953l-3.7891 12.207c-0.25 0.82812-0.30469 1.7109-0.14844 2.5625l12.805 65.895-13.035 14.18-13.035-14.18 12.805-65.895c0.16797-0.85156 0.11719-1.7305-0.14844-2.5625l-3.8008-12.207c-0.68359-2.1953-2.7188-3.6836-5.0156-3.6836l-38.582-0.003906c-10.801 0-20.688 6.3398-25.168 16.176l-25.191 55.156c-5.1641 11.316-2.1094 24.781 7.4414 32.746l31.383 26.176c2.2461 1.8672 4.7539 3.2109 7.3789 4.0391v140.25c0 13.832 11.25 25.098 25.086 25.098 13.832 0 25.086-11.25 25.086-25.098v-124.38c0-1.9531 3.5586-1.9727 3.5586 0v124.38c0 13.832 11.25 25.098 25.086 25.098 13.832 0 25.098-11.25 25.098-25.098l-0.003906-230.92h17.719v99.461c0 8.7344 7.1172 15.871 15.871 15.871h78.68l-28.207 134.33c-0.59766 2.832 1.2188 5.6172 4.0625 6.2148 0.36719 0.082032 0.73438 0.125 1.0898 0.125 2.4258 0 4.5977-1.6992 5.1211-4.1562l28.645-136.51h86.414l28.645 136.51c0.53516 2.4766 2.707 4.1562 5.1211 4.1562 0.35547 0 0.72266-0.042968 1.0898-0.125 2.8438-0.59766 4.6484-3.3789 4.0742-6.2148l-28.215-134.34h73.242c8.7539 0 15.871-7.1172 15.871-15.871v-226.73c-0.019531-8.7539-7.1367-15.867-15.891-15.867zm-298.6 132.66c-2.8984 0-5.2461 2.3516-5.2461 5.2461v236.15c0 8.0391-6.5508 14.578-14.602 14.578-8.0508 0-14.59-6.5391-14.59-14.578v-124.38c0-6.7812-5.5-12.281-12.27-12.281-6.7812 0-12.281 5.5-12.281 12.281v124.38c0 8.0391-6.5391 14.578-14.59 14.578-8.0508 0-14.59-6.5391-14.59-14.578v-139.6c4.8594-0.85938 9.4453-3.3906 12.859-7.4609 3.7266-4.4727 5.5-10.148 4.9844-15.953-0.53516-5.8047-3.2852-11.062-7.7578-14.789l-5.4141-4.5117v-51.367c0-2.4648-1.7227-4.5977-4.1367-5.1328-2.4453-0.49219-4.8594 0.70312-5.9102 2.9492l-17.789 38.977c-0.98828 2.1523-0.39844 4.6914 1.418 6.2031l25.105 20.941c2.332 1.9297 3.7461 4.6719 4.0312 7.6602 0.26172 3.0117-0.65234 5.9531-2.582 8.2695-4 4.7773-11.156 5.4492-15.953 1.4492l-31.383-26.176c-5.918-4.9531-7.8203-13.309-4.6094-20.332l25.191-55.156c2.793-6.0977 8.9219-10.035 15.617-10.035h34.73l2.2656 7.2539-13.059 67.195c-0.31641 1.6367 0.16797 3.3281 1.2891 4.5547l18.695 20.34c1.9844 2.1641 5.7422 2.1641 7.7266 0l18.695-20.34c1.125-1.2266 1.6055-2.918 1.2891-4.5547l-13.059-67.195 2.2578-7.2539h130.82c6.2539 0 11.324 5.082 11.324 11.324 0 6.2461-5.0703 11.324-11.324 11.324h-97.16zm-93.98 31.836v18.492l-6.1211-5.0977zm397.96 78.102c0 2.9609-2.4023 5.375-5.375 5.375h-259.78c-2.9609 0-5.375-2.4023-5.375-5.375v-99.449h63.711c12.027 0 21.82-9.793 21.82-21.82 0-12.027-9.7812-21.812-21.801-21.812h-63.723v-83.652c0-2.9609 2.4023-5.375 5.375-5.375h259.78c2.9492 0 5.375 2.4023 5.375 5.375z"/>
  <path d="m575.9 325.33c-0.019532-0.21875 0.019531-0.42969-0.019532-0.64062-0.15625-0.72266-0.41016-1.4492-0.88281-2.0898-0.45312-0.65234-1.0703-1.125-1.6992-1.4805-0.19922-0.10547-0.38672-0.13672-0.59766-0.21875-0.50391-0.21094-1.0195-0.35547-1.5547-0.39844-0.10547-0.011719-0.19922-0.074219-0.28516-0.074219l-18.59-0.37891c-2.6445-0.27344-5.2891 2.2461-5.3516 5.1445-0.0625 2.8984 2.2578 5.2891 5.1445 5.3516l2.9062 0.0625-42.066 30.43-15.336-28.75c-0.66016-1.25-1.8164-2.1719-3.168-2.5703-1.375-0.39844-2.8242-0.23047-4.0391 0.46094l-89.195 49.949c-2.5312 1.418-3.4336 4.6094-2.0156 7.1367 0.96484 1.7227 2.75 2.6875 4.5977 2.6875 0.87109 0 1.7539-0.21875 2.5625-0.67188l84.523-47.336 15.641 29.336c0.71484 1.332 1.9727 2.2969 3.4648 2.6445 1.5117 0.33594 3.0352 0.019531 4.2422-0.85938l46.969-33.965-0.85938 2.8008c-0.85156 2.7695 0.69141 5.7109 3.4648 6.5586 0.52344 0.15625 1.0391 0.23047 1.5312 0.23047 2.2578 0 4.3242-1.4492 5.0273-3.707l5.4688-17.781c0.03125-0.10547 0-0.21094 0.019532-0.30469 0.11719-0.49609 0.11719-1.0195 0.097656-1.5664z"/>
 </g>
</svg>