<?xml version="1.0" encoding="UTF-8"?>
<!-- The Best Svg Icon site in the world: iconSvg.co, Visit us! https://iconsvg.co -->
<svg fill="#000000" width="800px" height="800px" version="1.1" viewBox="144 144 512 512" xmlns="http://www.w3.org/2000/svg">
 <g>
  <path d="m395.28 404.86c57.551 0 104.21-46.664 104.21-104.21 0-57.555-46.664-104.21-104.21-104.21-57.551 0-104.2 46.652-104.2 104.21 0 57.559 46.652 104.21 104.2 104.21zm-30.633-154.28c5.1758-6.9219 12.891-10.902 23.074-12.031v-8.0781c0-4.1758 3.3789-7.5586 7.5586-7.5586 4.1758 0 7.5586 3.3789 7.5586 7.5586v8.4453c8.5508 1.5 15.566 5.332 20.469 11.766 4.1055 5.3789 7.0547 14.434 6.3086 19.852-0.16797 1.1992-1.4453 7.8281-9.7891 7.8281s-8.9219-6.957-8.9219-6.957c-0.48828-4.2383-1.0664-6.0273-2.8555-8.4688-3.2539-4.2227-8.2461-5.4609-15.566-5.4609-4.3086 0-7.9336 0.94531-10.863 2.8203-3.5781 2.3477-4.8984 5.8008-5.3711 10.289-1.2578 11.754 10.617 15.977 13.543 16.922l19.039 6.2773c21.207 7.3008 24.547 21.434 24.547 30.633 0 12.82-8.3047 33.152-30.527 36.5v9.9219c0 4.1758-3.3789 7.5586-7.5586 7.5586-4.1758 0-7.5586-3.3789-7.5586-7.5586v-9.875c-6.9922-1.0195-16.281-4.1953-23.809-14.137-4.8008-6.2891-6.125-12.766-6.125-21.973 0 0 0.71094-7.2539 9.7656-7.2539 9.0391 0 8.9219 7.2539 8.9219 7.2539 0 13.895 10.918 17.285 18.57 17.285 16.465 0 19.66-10.012 19.648-15.18-0.03125-13.316-11.062-15.531-16.844-16.941 0 0-30.934-5.4258-37.418-22.426-7.5234-19.707-0.1875-31.102 4.2031-37.012z"/>
  <path d="m305.51 523.49c28.492 0 51.672-23.18 51.672-51.672 0-28.488-23.18-51.668-51.672-51.668-28.496 0-51.676 23.18-51.676 51.672 0 28.488 23.18 51.668 51.676 51.668z"/>
  <path d="m433.39 471.82c0 28.492 23.18 51.672 51.672 51.672 28.496 0 51.68-23.18 51.68-51.672 0-28.488-23.188-51.668-51.68-51.668-28.492 0-51.672 23.18-51.672 51.668z"/>
  <path d="m591.77 480.21c0-33.648-8.375-63.258-8.6562-64.207-2.0234-10.113-8.0703-15.91-16.582-15.91-9.8398 0-16.375 6.5-16.652 16.551-0.085937 3.043 0.57422 7.2148 1.4844 12.992 1.8398 11.656 4.6211 29.281 2.8164 50.25-2.4648 28.656-27.531 59.105-69.133 59.105-39.516 0-65.551-34.457-69.152-59.324-2.0312-14.02-3.6719-37.172-3.6836-37.172 0-9.1641-7.5977-16.625-16.938-16.625-9.3398 0-16.938 7.457-16.93 16.359-0.015625 0.23047-1.6641 23.406-3.6914 37.438-3.6016 24.875-29.641 59.324-69.152 59.324-41.594 0-66.66-30.457-69.133-59.105-1.793-20.832 1.0391-38.777 2.9102-50.656 0.95312-6.0547 1.5859-10.051 1.3867-12.762-0.69141-9.3359-7.8477-16.375-16.645-16.375-4.8359 0-13.422 2.0547-16.547 15.75-0.35156 1.4375-8.6953 35.52-8.6953 64.367 0 29.891 14.672 62.02 37.367 81.863 2.5547 2.2266 5.2305 4.3516 7.9688 6.3281l-7.7344 24.168c-0.36719 1.1484-0.16797 2.4023 0.54297 3.3789 0.71484 0.97266 1.8477 1.5508 3.0547 1.5508h131.02c1.2031 0 2.3359-0.57422 3.0547-1.5508 0.71094-0.97656 0.91016-2.2305 0.54297-3.3789l-7.7383-24.168c3.2578-2.3477 6.4141-4.8984 9.3945-7.5977 7.3203-6.625 13.695-14.207 19.004-22.602 5.3086 8.3945 11.684 15.973 19.004 22.602 2.9844 2.6992 6.1367 5.25 9.3945 7.6016l-7.7344 24.168c-0.36719 1.1484-0.16797 2.4023 0.54297 3.3789 0.71484 0.97266 1.8477 1.5508 3.0547 1.5508h131.02 0.10156c2.0859 0 3.7773-1.6914 3.7773-3.7773 0-0.70703-0.19531-1.3672-0.52734-1.9297l-7.4883-23.387c2.7539-1.9883 5.4297-4.1094 7.9766-6.3281 24.477-21.375 37.395-49.68 37.395-81.871z"/>
 </g>
</svg>