<?xml version="1.0" encoding="UTF-8"?>
<!-- The Best Svg Icon site in the world: iconSvg.co, Visit us! https://iconsvg.co -->
<svg fill="#000000" width="800px" height="800px" version="1.1" viewBox="144 144 512 512" xmlns="http://www.w3.org/2000/svg">
 <g>
  <path d="m498.71 293.94c-1.5547 0-3.043 0.47266-4.3047 1.3867-30.5 22.051-62.734 42.383-95.785 60.438-23.312 0.71484-42.141 19.543-42.855 42.855-18.043 33.031-38.375 65.273-60.426 95.777-1.1562 1.5859-1.625 3.5273-1.3125 5.4688 0.30469 1.9531 1.3555 3.6523 2.9609 4.8164 1.2578 0.90234 2.75 1.375 4.293 1.375 1.5547 0 3.043-0.47266 4.3047-1.375 30.512-22.062 62.734-42.395 95.797-60.445 23.301-0.70312 42.141-19.543 42.855-42.855 18.043-33.043 38.363-65.273 60.414-95.777 1.1562-1.5859 1.625-3.5273 1.3125-5.4688-0.29297-1.9414-1.3555-3.6406-2.9492-4.8086-1.2734-0.91406-2.7422-1.3867-4.3047-1.3867zm-64.32 103.55c-0.41797 0.77734-0.65234 1.6367-0.65234 2.5078 0 18.609-15.145 33.766-33.754 33.766-0.87109 0-1.7422 0.21875-2.5078 0.64062-28.465 15.504-56.32 32.652-83.035 51.148 18.492-26.711 35.656-54.578 51.137-83.035 0.41797-0.76562 0.64062-1.625 0.64062-2.5078 0-18.621 15.145-33.766 33.766-33.766 0.87109 0 1.7422-0.21875 2.5078-0.64063 28.453-15.492 56.312-32.652 83.023-51.137-18.473 26.715-35.645 54.57-51.125 83.023z"/>
  <path d="m377.14 400c0 12.605 10.254 22.859 22.859 22.859 12.605 0 22.852-10.254 22.852-22.859s-10.254-22.863-22.848-22.863c-12.598 0-22.863 10.258-22.863 22.863zm35.215 0c0 6.8008-5.5312 12.363-12.355 12.363-6.8125 0-12.363-5.5312-12.363-12.363 0-6.8242 5.543-12.363 12.363-12.363 6.8125-0.003907 12.355 5.5508 12.355 12.363z"/>
  <path d="m613.33 311.63c-0.019531-0.042968-0.050781-0.0625-0.074219-0.11719-11.641-27.949-28.613-53.141-49.637-74.301-0.13672-0.15625-0.19922-0.35547-0.34766-0.50391-0.14844-0.14844-0.34766-0.21094-0.49219-0.33594-21.16-21.035-46.352-37.996-74.289-49.637-0.042969-0.019531-0.082032-0.050781-0.125-0.074219-0.050782-0.019531-0.10547-0.011718-0.15625-0.03125-27.199-11.281-56.977-17.547-88.211-17.547-31.227 0-61.012 6.2656-88.207 17.551-0.050781 0.019531-0.10547 0.011719-0.16797 0.03125-0.042969 0.019531-0.074219 0.0625-0.11719 0.082031-27.941 11.629-53.133 28.59-74.281 49.625-0.15625 0.125-0.35547 0.19141-0.51562 0.34766-0.15625 0.15625-0.21094 0.35547-0.34375 0.51562-21.035 21.141-37.984 46.328-49.625 74.258-0.019532 0.050781-0.0625 0.082031-0.082032 0.13672-0.019531 0.0625-0.011718 0.125-0.03125 0.1875-11.277 27.188-17.543 56.965-17.543 88.18 0 31.227 6.2656 60.992 17.539 88.168 0.019531 0.074219 0.011719 0.13672 0.03125 0.19922 0.011719 0.03125 0.050781 0.050781 0.074219 0.082031 11.641 27.961 28.602 53.152 49.637 74.312 0.125 0.17969 0.1875 0.36719 0.34766 0.52344 0.15625 0.14844 0.35547 0.21875 0.51562 0.33594 21.148 21.035 46.328 37.996 74.27 49.637 0.042969 0.019532 0.074219 0.0625 0.125 0.082032 0.050781 0.019531 0.11719 0.011718 0.16797 0.03125 27.191 11.285 56.969 17.539 88.195 17.539 31.227 0 61.012-6.2773 88.207-17.551 0.050782-0.019531 0.10547-0.011719 0.15625-0.03125 0.050782-0.019531 0.074219-0.050781 0.11719-0.074219 27.961-11.641 53.141-28.613 74.312-49.645 0.14844-0.125 0.34766-0.1875 0.49219-0.32422 0.15625-0.15625 0.21875-0.34766 0.34766-0.51562 21.055-21.16 38.016-46.371 49.645-74.344 0.011719-0.03125 0.050781-0.042969 0.0625-0.074219 0.019531-0.050781 0.011719-0.10547 0.03125-0.16797 11.285-27.172 17.551-56.961 17.551-88.195 0-31.227-6.2656-61.012-17.551-88.207-0.019531-0.042969-0.007813-0.097656-0.027344-0.14844zm-30.219 93.613h37.039c-0.62891 26.094-5.8047 51.02-14.77 74.145l-12.121-5.0273c-2.6641-1.0898-5.7422 0.16797-6.8438 2.8438-1.1016 2.6641 0.16797 5.75 2.8438 6.8438l12.188 5.0391c-10.371 23.355-24.707 44.523-42.109 62.789l-9.2266-9.2383c-2.0469-2.0352-5.3828-2.0352-7.4219 0-2.0469 2.0469-2.0469 5.3828 0 7.4219l9.2266 9.2383c-18.254 17.402-39.445 31.719-62.789 42.109l-5.0391-12.188c-1.1016-2.6758-4.1875-3.9453-6.8555-2.8438-2.6758 1.1016-3.9453 4.1758-2.8438 6.8555l5.0273 12.113c-23.113 8.9648-48.051 14.16-74.145 14.777v-37.039c0-2.8867-2.3516-5.2461-5.2461-5.2461-2.8984 0-5.2461 2.3633-5.2461 5.2461v37.039c-26.094-0.62891-51.031-5.8047-74.145-14.777l5.0273-12.113c1.1016-2.6758-0.16797-5.75-2.8438-6.8555-2.6445-1.0898-5.7422 0.17969-6.8555 2.8438l-5.0703 12.188c-23.355-10.379-44.523-24.707-62.777-42.109l9.2266-9.2383c2.0469-2.0352 2.0469-5.375 0-7.4219-2.0469-2.0352-5.375-2.0352-7.4219 0l-9.2266 9.2383c-17.414-18.262-31.73-39.434-42.109-62.777l12.188-5.0273c2.6758-1.1016 3.9453-4.1758 2.8438-6.8633-1.1016-2.6641-4.1875-3.9375-6.8555-2.8438l-12.121 5.0156c-8.9648-23.102-14.148-48.051-14.77-74.133h37.031c2.8984 0 5.2461-2.3516 5.2461-5.2461 0-2.8984-2.3516-5.2461-5.2461-5.2461l-37.059-0.007812c0.62109-26.094 5.793-51.031 14.77-74.145l12.121 5.0156c0.66016 0.27344 1.332 0.39844 2.0039 0.39844 2.0586 0 4.0078-1.2188 4.8477-3.2422 1.1016-2.6758-0.16797-5.75-2.8438-6.8555l-12.188-5.0391c10.371-23.355 24.695-44.523 42.109-62.777l9.2266 9.2266c1.0273 1.0273 2.3711 1.5312 3.7148 1.5312s2.6875-0.51562 3.7148-1.5312c2.0469-2.0469 2.0469-5.375 0-7.4219l-9.2188-9.2305c18.254-17.414 39.422-31.73 62.777-42.109l5.0469 12.184c0.83984 2.0156 2.793 3.2422 4.8477 3.2422 0.67187 0 1.3555-0.125 2.0039-0.39844 2.6758-1.1016 3.9453-4.1758 2.8438-6.8555l-5.0273-12.121c23.113-8.9648 48.051-14.148 74.145-14.77v37.031c0 2.8984 2.3516 5.2461 5.2461 5.2461 2.8984 0 5.2461-2.3516 5.2461-5.2461l0.003906-37.039c26.094 0.62109 51.031 5.793 74.145 14.77l-5.0273 12.121c-1.0898 2.6758 0.17969 5.75 2.8438 6.8555 0.66016 0.27344 1.3438 0.39844 2.0039 0.39844 2.0586 0 4.0195-1.2188 4.8594-3.2422l5.0391-12.188c23.355 10.371 44.535 24.695 62.789 42.109l-9.2266 9.2266c-2.0469 2.0469-2.0469 5.375 0 7.4219 1.0273 1.0273 2.3711 1.5312 3.7148 1.5312s2.6875-0.51562 3.7148-1.5312l9.2266-9.2266c17.422 18.254 31.73 39.434 42.121 62.789l-12.188 5.0391c-2.6758 1.1016-3.9453 4.1758-2.8438 6.8555 0.83984 2.0156 2.8008 3.2422 4.8594 3.2422 0.66016 0 1.3555-0.125 1.9961-0.39844l12.121-5.0156c8.9648 23.113 14.148 48.051 14.758 74.145h-37.031c-2.8984 0-5.2461 2.3516-5.2461 5.2461 0 2.8945 2.3398 5.2539 5.25 5.2539z"/>
 </g>
</svg>