<?xml version="1.0" encoding="UTF-8"?>
<!-- The Best Svg Icon site in the world: iconSvg.co, Visit us! https://iconsvg.co -->
<svg fill="#000000" width="800px" height="800px" version="1.1" viewBox="144 144 512 512" xmlns="http://www.w3.org/2000/svg">
 <g>
  <path d="m591.88 593.85h-108.24c-3.8047 0-6.8867-3.082-6.8867-6.8867 0-3.8047 3.082-6.8867 6.8867-6.8867h108.24c3.8047 0 6.8867 3.082 6.8867 6.8867-0.003906 3.8008-3.0859 6.8867-6.8906 6.8867z"/>
  <path d="m591.88 564.33h-108.24c-3.8047 0-6.8867-3.082-6.8867-6.8867 0-3.8047 3.082-6.8867 6.8867-6.8867h108.24c3.8047 0 6.8867 3.082 6.8867 6.8867-0.003906 3.8008-3.0859 6.8867-6.8906 6.8867z"/>
  <path d="m591.88 534.81h-108.24c-3.8047 0-6.8867-3.082-6.8867-6.8867s3.082-6.8867 6.8867-6.8867h108.24c3.8047 0 6.8867 3.082 6.8867 6.8867-0.003906 3.8008-3.0859 6.8867-6.8906 6.8867z"/>
  <path d="m591.88 505.29h-108.24c-3.8047 0-6.8867-3.082-6.8867-6.8867 0-3.8047 3.082-6.8867 6.8867-6.8867h108.24c3.8047 0 6.8867 3.082 6.8867 6.8867-0.003906 3.8047-3.0859 6.8867-6.8906 6.8867z"/>
  <path d="m591.88 475.77h-108.24c-3.8047 0-6.8867-3.082-6.8867-6.8867 0-3.8047 3.082-6.8867 6.8867-6.8867h108.24c3.8047 0 6.8867 3.082 6.8867 6.8867-0.003906 3.8047-3.0859 6.8867-6.8906 6.8867z"/>
  <path d="m591.88 446.25h-108.24c-3.8047 0-6.8867-3.082-6.8867-6.8867s3.082-6.8867 6.8867-6.8867h108.24c3.8047 0 6.8867 3.082 6.8867 6.8867-0.003906 3.8047-3.0859 6.8867-6.8906 6.8867z"/>
  <path d="m621.4 623.37h-442.8c-3.8047 0-6.8867-3.082-6.8867-6.8867 0-3.8047 3.082-6.8867 6.8867-6.8867h442.8c3.8047 0 6.8867 3.082 6.8867 6.8867 0.003906 3.8047-3.082 6.8867-6.8867 6.8867z"/>
  <path d="m454.12 593.85h-108.24c-3.8047 0-6.8867-3.082-6.8867-6.8867 0-3.8047 3.082-6.8867 6.8867-6.8867h108.24c3.8047 0 6.8867 3.082 6.8867 6.8867 0 3.8008-3.0859 6.8867-6.8906 6.8867z"/>
  <path d="m454.12 564.33h-108.24c-3.8047 0-6.8867-3.082-6.8867-6.8867 0-3.8047 3.082-6.8867 6.8867-6.8867h108.24c3.8047 0 6.8867 3.082 6.8867 6.8867 0 3.8008-3.0859 6.8867-6.8906 6.8867z"/>
  <path d="m454.12 534.81h-108.24c-3.8047 0-6.8867-3.082-6.8867-6.8867s3.082-6.8867 6.8867-6.8867h108.24c3.8047 0 6.8867 3.082 6.8867 6.8867 0 3.8008-3.0859 6.8867-6.8906 6.8867z"/>
  <path d="m454.12 505.29h-108.24c-3.8047 0-6.8867-3.082-6.8867-6.8867 0-3.8047 3.082-6.8867 6.8867-6.8867h108.24c3.8047 0 6.8867 3.082 6.8867 6.8867 0 3.8047-3.0859 6.8867-6.8906 6.8867z"/>
  <path d="m454.12 475.77h-108.24c-3.8047 0-6.8867-3.082-6.8867-6.8867 0-3.8047 3.082-6.8867 6.8867-6.8867h108.24c3.8047 0 6.8867 3.082 6.8867 6.8867 0 3.8047-3.0859 6.8867-6.8906 6.8867z"/>
  <path d="m454.12 446.25h-108.24c-3.8047 0-6.8867-3.082-6.8867-6.8867s3.082-6.8867 6.8867-6.8867h108.24c3.8047 0 6.8867 3.082 6.8867 6.8867s-3.0859 6.8867-6.8906 6.8867z"/>
  <path d="m316.36 593.85h-108.24c-3.8047 0-6.8867-3.082-6.8867-6.8867 0-3.8047 3.082-6.8867 6.8867-6.8867h108.24c3.8047 0 6.8867 3.082 6.8867 6.8867 0 3.8008-3.082 6.8867-6.8867 6.8867z"/>
  <path d="m316.36 564.33h-108.24c-3.8047 0-6.8867-3.082-6.8867-6.8867 0-3.8047 3.082-6.8867 6.8867-6.8867h108.24c3.8047 0 6.8867 3.082 6.8867 6.8867 0 3.8008-3.082 6.8867-6.8867 6.8867z"/>
  <path d="m316.36 534.81h-108.24c-3.8047 0-6.8867-3.082-6.8867-6.8867s3.082-6.8867 6.8867-6.8867h108.24c3.8047 0 6.8867 3.082 6.8867 6.8867 0 3.8008-3.082 6.8867-6.8867 6.8867z"/>
  <path d="m316.36 505.29h-108.24c-3.8047 0-6.8867-3.082-6.8867-6.8867 0-3.8047 3.082-6.8867 6.8867-6.8867h108.24c3.8047 0 6.8867 3.082 6.8867 6.8867 0 3.8047-3.082 6.8867-6.8867 6.8867z"/>
  <path d="m591.88 416.73h-108.24c-3.8047 0-6.8867-3.082-6.8867-6.8867 0-3.8047 3.082-6.8867 6.8867-6.8867h108.24c3.8047 0 6.8867 3.082 6.8867 6.8867-0.003906 3.8047-3.0859 6.8867-6.8906 6.8867z"/>
  <path d="m591.88 387.21h-108.24c-3.8047 0-6.8867-3.082-6.8867-6.8867 0-3.8047 3.082-6.8867 6.8867-6.8867h108.24c3.8047 0 6.8867 3.082 6.8867 6.8867-0.003906 3.8008-3.0859 6.8867-6.8906 6.8867z"/>
  <path d="m306.52 465.93h-98.402c-3.8047 0-6.8867-3.082-6.8867-6.8867 0-3.8047 3.082-6.8867 6.8867-6.8867h91.512v-52.152c0-3.8047 3.082-6.8867 6.8867-6.8867h130.87v-52.152c0-2.3438 1.1914-4.5273 3.1641-5.793l137.76-88.559c3.1992-2.0547 7.4609-1.1289 9.5195 2.0703 2.0547 3.1992 1.1289 7.4609-2.0703 9.5195l-134.59 86.52v55.281c0 3.8047-3.082 6.8867-6.8867 6.8867h-130.88v52.152c0 3.8047-3.082 6.8867-6.8867 6.8867z"/>
  <path d="m582.04 288.8c-3.8047 0-6.8867-3.082-6.8867-6.8867v-25.594l-21.695-7.2305c-3.6094-1.2031-5.5586-5.1055-4.3555-8.7109 1.2031-3.6094 5.1055-5.5625 8.7109-4.3555l26.402 8.8008c2.8125 0.9375 4.7109 3.5703 4.7109 6.5352v30.555c0 3.8047-3.082 6.8867-6.8867 6.8867z"/>
  <path d="m237.64 367.53h-39.359c-3.8047 0-6.8867-3.082-6.8867-6.8867v-78.719c0-3.8047 3.082-6.8867 6.8867-6.8867h39.359c3.8047 0 6.8867 3.082 6.8867 6.8867v78.719c0.003906 3.8008-3.082 6.8867-6.8867 6.8867zm-32.473-13.777h25.586v-64.945h-25.586z"/>
  <path d="m277 367.53h-39.363c-3.8047 0-6.8867-3.082-6.8867-6.8867v-118.08c0-3.8047 3.082-6.8867 6.8867-6.8867h39.359c3.8047 0 6.8867 3.082 6.8867 6.8867v118.08c0.003907 3.8008-3.082 6.8867-6.8828 6.8867zm-32.473-13.777h25.586l-0.003906-104.3h-25.582z"/>
  <path d="m316.36 367.53h-39.359c-3.8047 0-6.8867-3.082-6.8867-6.8867v-78.719c0-3.8047 3.082-6.8867 6.8867-6.8867h39.359c3.8047 0 6.8867 3.082 6.8867 6.8867v78.719c0 3.8008-3.082 6.8867-6.8867 6.8867zm-32.473-13.777h25.586v-64.945h-25.586z"/>
  <path d="m355.72 367.53h-39.359c-3.8047 0-6.8867-3.082-6.8867-6.8867l-0.003906-177.12c0-3.8047 3.082-6.8867 6.8867-6.8867h39.359c3.8047 0 6.8867 3.082 6.8867 6.8867v177.12c0.003907 3.8008-3.0781 6.8867-6.8828 6.8867zm-32.473-13.777h25.586v-163.34h-25.586z"/>
  <path d="m395.08 367.53h-39.359c-3.8047 0-6.8867-3.082-6.8867-6.8867v-127.92c0-3.8047 3.082-6.8867 6.8867-6.8867h39.359c3.8047 0 6.8867 3.082 6.8867 6.8867v127.92c0 3.8008-3.082 6.8867-6.8867 6.8867zm-32.473-13.777h25.586v-114.14h-25.586z"/>
  <path d="m395.08 367.53h-216.48c-3.8047 0-6.8867-3.082-6.8867-6.8867s3.082-6.8867 6.8867-6.8867h216.48c3.8047 0 6.8867 3.082 6.8867 6.8867 0 3.8008-3.082 6.8867-6.8867 6.8867z"/>
  <path d="m484 214.57c-0.10547-0.14062-0.41797-0.37109-0.93359-0.69141-0.51562-0.32031-1.1719-0.66406-1.9727-1.0391-0.80078-0.37109-1.6875-0.72656-2.6641-1.0664-0.97656-0.33594-1.9609-0.57813-2.957-0.71875v7.2422l1.7031 0.42578c1.8125 0.49609 3.4414 1.0391 4.8984 1.625 1.457 0.58594 2.6914 1.3125 3.7031 2.1836 1.0117 0.87109 1.793 1.9258 2.3438 3.168 0.55078 1.2422 0.82812 2.7344 0.82812 4.4727 0 2.0234-0.35547 3.7461-1.0664 5.168-0.71094 1.418-1.6602 2.582-2.8516 3.4883s-2.5547 1.5898-4.1016 2.0508c-1.543 0.46094-3.168 0.72656-4.8711 0.80078v6.1758h-3.6758v-6.2305c-2.4492-0.21484-4.8711-0.71094-7.2695-1.4922s-4.5547-1.8125-6.4727-3.0898l3.8359-7.6172c0.14062 0.17969 0.52344 0.47266 1.1445 0.87891 0.62109 0.41016 1.4102 0.83594 2.3711 1.2773 0.96094 0.44531 2.043 0.87109 3.25 1.2773 1.207 0.41016 2.4492 0.70312 3.7266 0.87891v-7.082l-2.5586-0.74609c-1.7422-0.53516-3.25-1.1094-4.5273-1.7305-1.2773-0.62109-2.3359-1.3398-3.1719-2.1562-0.83594-0.81641-1.457-1.7578-1.8633-2.8242-0.41016-1.0664-0.61328-2.3086-0.61328-3.7266 0-1.8477 0.32031-3.4883 0.96094-4.9258 0.63672-1.4375 1.5-2.6719 2.582-3.7031 1.082-1.0273 2.3594-1.8359 3.8359-2.4219 1.4727-0.58594 3.0625-0.96875 4.7656-1.1445v-5.3789h3.6758v5.3789c2.3086 0.21484 4.4727 0.72656 6.4961 1.543 2.0234 0.81641 3.7812 1.6523 5.2734 2.5039zm-14.75-0.48047c0 0.88672 0.30859 1.5898 0.93359 2.1055 0.62109 0.51563 1.5547 0.96875 2.7969 1.3594l-0.003906-6.5547c-2.4844 0.21484-3.7266 1.2422-3.7266 3.0898zm10.332 16.938c0-0.92188-0.37109-1.6406-1.1172-2.1562-0.74609-0.51172-1.7383-0.98438-2.9844-1.4102v6.3906c2.7344-0.10937 4.1016-1.0508 4.1016-2.8242z"/>
  <path d="m473.8 269.12c-25.5 0-46.25-20.746-46.25-46.25 0-25.5 20.746-46.25 46.25-46.25 25.5 0 46.25 20.746 46.25 46.25s-20.746 46.25-46.25 46.25zm0-78.719c-17.906 0-32.473 14.566-32.473 32.473s14.566 32.473 32.473 32.473 32.473-14.566 32.473-32.473-14.566-32.473-32.473-32.473z"/>
 </g>
</svg>