<?xml version="1.0" encoding="UTF-8"?>
<!-- The Best Svg Icon site in the world: iconSvg.co, Visit us! https://iconsvg.co -->
<svg fill="#000000" width="800px" height="800px" version="1.1" viewBox="144 144 512 512" xmlns="http://www.w3.org/2000/svg">
 <g>
  <path d="m390.93 516.11c-77.629 0-140.79-63.156-140.79-140.79s63.156-140.79 140.79-140.79c77.629 0 140.79 63.156 140.79 140.79-0.003907 77.629-63.16 140.79-140.79 140.79zm0-273.7c-73.289 0-132.91 59.625-132.91 132.91 0 73.289 59.625 132.91 132.91 132.91 73.289 0 132.91-59.625 132.91-132.91-0.003906-73.293-59.629-132.91-132.91-132.91z"/>
  <path d="m390.93 466.35c-50.188 0-91.02-40.832-91.02-91.02s40.832-91.02 91.02-91.02 91.02 40.832 91.02 91.02-40.832 91.02-91.02 91.02zm0-174.17c-45.848 0-83.148 37.301-83.148 83.148s37.301 83.148 83.148 83.148c45.848 0 83.148-37.301 83.148-83.148s-37.301-83.148-83.148-83.148z"/>
  <path d="m390.93 416.59c-22.75 0-41.258-18.508-41.258-41.258s18.508-41.258 41.258-41.258 41.258 18.508 41.258 41.258-18.512 41.258-41.258 41.258zm0-74.645c-18.41 0-33.387 14.977-33.387 33.387s14.977 33.387 33.387 33.387c18.41 0 33.387-14.977 33.387-33.387-0.003906-18.41-14.98-33.387-33.387-33.387z"/>
  <path d="m388.58 381.61c-1.0078 0-2.0156-0.38281-2.7852-1.1523-1.5352-1.5391-1.5352-4.0312 0-5.5664l198.16-198.16c1.5352-1.5352 4.0312-1.5352 5.5664 0 1.5391 1.5391 1.5391 4.0312 0 5.5664l-198.16 198.16c-0.76562 0.76953-1.7734 1.1523-2.7812 1.1523z"/>
  <path d="m595.69 202.44c-0.14453 0-0.29297-0.007812-0.4375-0.023438l-26.391-2.9336c-1.8281-0.20312-3.2734-1.6484-3.4766-3.4766l-2.9336-26.391c-0.23828-2.1602 1.3164-4.1055 3.4766-4.3477 2.1484-0.23828 4.1055 1.3164 4.3477 3.4766l2.5859 23.262 23.262 2.5859c2.1602 0.23828 3.7188 2.1875 3.4766 4.3477-0.22656 2.0117-1.9297 3.5-3.9102 3.5z"/>
  <path d="m576.01 222.12c-0.14453 0-0.29297-0.007813-0.4375-0.023438l-26.391-2.9336c-1.8281-0.20312-3.2734-1.6484-3.4766-3.4766l-2.9336-26.391c-0.23828-2.1602 1.3164-4.1055 3.4766-4.3477 2.1523-0.23828 4.1055 1.3164 4.3477 3.4766l2.5859 23.262 23.262 2.5859c2.1602 0.23828 3.7188 2.1875 3.4766 4.3477-0.22656 2.0117-1.9297 3.5-3.9102 3.5z"/>
  <path d="m546.68 634.76h-88.559c-2.1719 0-3.9375-1.7617-3.9375-3.9375v-81.359c0-1.6289 1.0039-3.0859 2.5195-3.6719 10-3.8516 19.719-8.6289 28.891-14.199 1.8516-1.1211 4.2578-0.54297 5.3945 1.3008l59.039 95.867c0.74609 1.2148 0.78125 2.7383 0.085937 3.9844-0.69141 1.2422-2.0039 2.0156-3.4336 2.0156zm-84.625-7.875h77.578l-53.316-86.57c-7.7891 4.5078-15.926 8.4766-24.262 11.828z"/>
  <path d="m320.36 634.76h-88.559c-1.418 0-2.7305-0.76172-3.4258-2-0.69922-1.2383-0.67578-2.7539 0.054688-3.9688l59.039-97.957c0.54688-0.91016 1.4375-1.5586 2.4727-1.8008 1.0312-0.24219 2.1211-0.058594 3.0156 0.51172 9.168 5.8359 18.891 10.863 28.891 14.945 1.4805 0.60547 2.4492 2.043 2.4492 3.6445v82.688c0 2.1719-1.7617 3.9375-3.9375 3.9375zm-81.59-7.875h77.656v-76.125c-8.3438-3.543-16.484-7.7148-24.273-12.445z"/>
  <path d="m390.92 565.87h-0.007813c-24.875 0-49.109-4.7422-72.035-14.094-10.434-4.2539-20.578-9.5039-30.148-15.594-11.727-7.4648-22.676-16.254-32.539-26.117-74.293-74.293-74.293-195.18 0-269.47 35.988-35.988 83.84-55.809 134.74-55.809 50.898 0 98.75 19.82 134.74 55.809 74.293 74.293 74.293 195.18 0 269.47-10.832 10.836-22.938 20.34-35.977 28.254-9.5703 5.8086-19.711 10.793-30.148 14.812-21.938 8.4531-45.027 12.738-68.621 12.738zm0.003906-373.21c-48.793 0-94.668 19.004-129.17 53.504-71.227 71.223-71.227 187.12 0 258.34 9.4609 9.4609 19.957 17.887 31.199 25.043 9.1719 5.8398 18.895 10.867 28.891 14.945 21.977 8.9648 45.215 13.508 69.062 13.508h0.003906c22.629 0 44.762-4.1094 65.789-12.211 10-3.8516 19.723-8.6289 28.895-14.199 12.5-7.5859 24.105-16.703 34.496-27.09 71.223-71.227 71.223-187.12 0-258.34-34.496-34.5-80.367-53.5-129.16-53.5z"/>
 </g>
</svg>