<?xml version="1.0" encoding="UTF-8"?>
<!-- The Best Svg Icon site in the world: iconSvg.co, Visit us! https://iconsvg.co -->
<svg fill="#000000" width="800px" height="800px" version="1.1" viewBox="144 144 512 512" xmlns="http://www.w3.org/2000/svg">
 <path d="m626.34 257.23c-0.24609-0.59766-0.60547-1.1484-1.0742-1.6172-0.46875-0.46484-1.0195-0.82812-1.6172-1.0742-0.59766-0.24609-1.2344-0.37109-1.875-0.37109h-36.27c-2.7188 0-4.9336 2.207-4.9336 4.9336 0 2.7266 2.207 4.9336 4.9336 4.9336h24.371l-64.574 64.578-25.305-25.305c-0.45312-0.45703-1.0039-0.81641-1.6055-1.0664-1.2031-0.5-2.5586-0.5-3.7617 0-0.60547 0.25-1.1484 0.60937-1.6055 1.0664l-49.375 49.375-0.003907 0.003906-24.609 24.609h-57.254c-0.66016 0-1.3008 0.13672-1.8984 0.38281-0.59766 0.25-1.1367 0.61328-1.5938 1.0625l-53.23 53.23-30.234-30.234c-0.45312-0.45703-1.0039-0.81641-1.6055-1.0664-1.2031-0.5-2.5586-0.5-3.7617 0-0.60547 0.25-1.1484 0.60938-1.6055 1.0664l-51.461 51.473h-53.246v-194.11c0-2.7266-2.207-4.9336-4.9336-4.9336-2.7266 0-4.9258 2.207-4.9258 4.9336v281.8c0 2.7266 2.207 4.9336 4.9336 4.9336h443.55c2.7188 0 4.9336-2.207 4.9336-4.9336 0-2.7266-2.207-4.9336-4.9336-4.9336h-71.539v-198.34l66.613-66.617-0.015625 24.496c0 2.7266 2.207 4.9336 4.9258 4.9336s4.9258-2.207 4.9336-4.9258l0.023438-36.41c0-0.63672-0.125-1.2734-0.37109-1.8711zm-392.84 278.73h-20.164v-72.895h20.164zm9.8594-75.781 16.594-16.594v92.383h-16.594zm26.461-26.453 16.594-16.594v118.84h-16.594zm26.453-16.602 23.676 23.676v95.164h-23.676zm33.539 24.047 18.59-18.59v113.38h-18.59zm28.449-28.449 18.59-18.59v141.83h-18.59zm28.453-25.566h19.781v148.8h-19.781zm29.637 0h19.781v148.8h-19.781zm29.641-2.8867 16.203-16.203v167.89h-16.203zm26.062-26.062 13.461-13.461v191.21h-13.461zm23.324-23.32 16.199-16.199v217.28h-16.199zm-312.23 128.18h20.332v72.895h-20.332zm338.29 72.895v-217.27l18.934 18.934v198.34z"/>
</svg>