<?xml version="1.0" encoding="UTF-8"?>
<!-- The Best Svg Icon site in the world: iconSvg.co, Visit us! https://iconsvg.co -->
<svg fill="#000000" width="800px" height="800px" version="1.1" viewBox="144 144 512 512" xmlns="http://www.w3.org/2000/svg">
 <g>
  <path d="m338.44 377.72c-1.3359-2.8945-4.2891-4.6992-7.4766-4.5625l-13.777 1.0234c-4.2227 0.375-7.3906 4.0273-7.1641 8.2656 0.42578 3.6641 3.3359 6.543 7.0078 6.9258l-5.668 9.0547c-2.1836 3.6016-1.1445 8.2852 2.3633 10.625 1.2266 0.76172 2.6445 1.1719 4.0938 1.1797 2.6484-0.03125 5.1016-1.3906 6.5312-3.6211l5.668-8.9727c1.3945 2.2891 3.8555 3.7148 6.5352 3.7773 0.96875-0.03125 1.9258-0.21484 2.832-0.55078 3.8906-1.6328 5.8008-6.043 4.332-9.9961z"/>
  <path d="m310.65 413.38c-3.6055-2.1875-8.2891-1.1445-10.629 2.3594l-0.62891 1.0234c-2.1328 3.5859-1.0977 8.2148 2.3594 10.547 1.2227 0.79297 2.6406 1.2266 4.0938 1.2617 2.6484-0.03125 5.1055-1.3906 6.5352-3.6211l0.62891-0.94531c2.1836-3.6016 1.1445-8.2891-2.3594-10.625z"/>
  <path d="m496.67 400.71c-3.5078-1.1992-7.375 0.21094-9.2891 3.3867l-5.7461-9.0547c-0.82812-2.2266-2.6211-3.9609-4.875-4.7188-2.25-0.75781-4.7266-0.45312-6.7305 0.82031-2.0039 1.2773-3.3281 3.3906-3.5977 5.7539-0.26563 2.3594 0.54687 4.7148 2.2109 6.4102l5.7461 9.0547h0.003906c-3.668 0.42188-6.5469 3.332-6.9297 7.0039-0.015626 4.0859 3.0938 7.5039 7.1641 7.8711l13.777 0.86719c3.4023 0.25391 6.582-1.7188 7.8711-4.8789l4.9609-12.832c1.2422-3.9258-0.74609-8.1484-4.5664-9.6836z"/>
  <path d="m470.85 377.41-1.0234-1.0234c-0.67578-2.3594-2.4102-4.2695-4.6953-5.1641-2.2852-0.89844-4.8555-0.67578-6.9531 0.59375-2.1016 1.2734-3.4844 3.4492-3.75 5.8906-0.26172 2.4375 0.62891 4.8633 2.4102 6.5508l0.62891 0.94531c1.4141 2.207 3.8359 3.5625 6.4531 3.6211 1.4883 0.007813 2.9414-0.42969 4.1719-1.2578 3.3789-2.1875 4.5664-6.5664 2.7578-10.156z"/>
  <path d="m401.81 523.82h-10.707c0.91797-3.3789-0.50781-6.9609-3.4961-8.7852-2.9922-1.8203-6.8281-1.4492-9.4141 0.91406l-7.8711 11.098v0.003907c-1.6602 2.5898-1.6602 5.9102 0 8.5l7.8711 11.098v0.003906c1.4727 1.957 3.7695 3.1211 6.2188 3.1484 1.6211 0.011718 3.1992-0.51563 4.4883-1.4961 2.8945-2.2891 3.8125-6.2812 2.2031-9.6055h10.707c4.3477 0 7.8711-3.5234 7.8711-7.8711 0-4.3477-3.5234-7.8711-7.8711-7.8711z"/>
  <path d="m423.61 523.82h-1.1797c-4.3477 0-7.8711 3.5273-7.8711 7.875 0 4.3477 3.5234 7.8711 7.8711 7.8711h1.1797c4.3477 0 7.875-3.5234 7.875-7.8711 0-4.3477-3.5273-7.875-7.875-7.875z"/>
  <path d="m570.04 527.52c-3.918-1.9805-8.2109-3.1094-12.598-3.3047-3.543-0.125-6.9688-1.3047-9.8398-3.3828-1.3125-1.3125-2.0273-3.1055-1.9648-4.9609 0.80469-4.9414 5.3281-8.3984 10.309-7.8711 4.7617-0.10547 9.4141 1.4531 13.148 4.4062 3.1836 1.875 7.2383 1.2812 9.7539-1.4219 2.5156-2.707 2.8125-6.793 0.71484-9.8359-4.4844-3.9297-9.9062-6.6406-15.742-7.8711v-6.6914c0-4.3477-3.5273-7.8711-7.875-7.8711-4.3438 0-7.8711 3.5234-7.8711 7.8711v7.3203c-5.0039 1.2188-9.4766 4.0391-12.73 8.0312-3.2539 3.9922-5.1133 8.9414-5.2969 14.09 0.42188 7.9297 4.8008 15.117 11.652 19.129 6.0195 2.4648 12.352 4.0781 18.812 4.8047 3.4297 0.82031 5.9609 3.7305 6.3008 7.2422-0.84375 4.918-5.3438 8.3555-10.312 7.8711-4.75 0.11328-9.3945-1.4141-13.148-4.332-3.1836-1.8711-7.2383-1.2773-9.7539 1.4258s-2.8125 6.793-0.71484 9.832c4.4727 3.9492 9.8984 6.6641 15.742 7.8711v7.0859c0 4.3477 3.5273 7.8711 7.875 7.8711s7.8711-3.5234 7.8711-7.8711v-7.3984c5.0039-1.2148 9.4766-4.0352 12.73-8.0312 3.2539-3.9922 5.1133-8.9414 5.2969-14.09-0.30469-8.3594-5.0039-15.934-12.359-19.918z"/>
  <path d="m556.02 441.88c-23.781 0-46.586 9.4453-63.402 26.262-16.816 16.812-26.262 39.621-26.262 63.398 0 23.781 9.4453 46.586 26.262 63.402 16.816 16.812 39.621 26.262 63.402 26.262 23.777 0 46.586-9.4492 63.398-26.262 16.816-16.816 26.262-39.621 26.262-63.402-0.019532-23.773-9.4727-46.566-26.285-63.375-16.809-16.812-39.602-26.266-63.375-26.285zm0 163.97c-19.711 0-38.613-7.8281-52.547-21.766-13.938-13.938-21.766-32.836-21.766-52.547 0-19.707 7.8281-38.609 21.766-52.547 13.934-13.934 32.836-21.766 52.547-21.766 19.707 0 38.609 7.832 52.547 21.766 13.934 13.938 21.762 32.84 21.762 52.547-0.039062 19.695-7.8828 38.574-21.809 52.5-13.93 13.93-32.805 21.77-52.5 21.812z"/>
  <path d="m397.95 219.81c-6.8906 0-13.5 2.7344-18.371 7.6094-4.8711 4.8711-7.6094 11.477-7.6094 18.367 0 14.406 11.336 31.094 25.977 31.094 14.645 0 25.664-16.688 25.664-31.094 0.023438-6.8398-2.6641-13.414-7.4727-18.281-4.8086-4.8672-11.348-7.6328-18.188-7.6953zm0 44.004c-6.375 0-12.91-10.469-12.91-18.027-0.28125-3.5859 0.94922-7.1289 3.3906-9.7734 2.4453-2.6406 5.8789-4.1445 9.4805-4.1445 3.5977 0 7.0312 1.5039 9.4766 4.1445 2.4453 2.6445 3.6719 6.1875 3.3906 9.7734 0 7.5586-6.4531 18.027-12.828 18.027z"/>
  <path d="m397.95 178.79c-24.203 0-47.414 9.6172-64.523 26.734-17.113 17.113-26.723 40.328-26.715 64.531 0.007812 24.199 9.6289 47.41 26.75 64.516s40.336 26.707 64.539 26.695c24.203-0.015625 47.406-9.6445 64.508-26.77 17.102-17.125 26.699-40.344 26.676-64.547-0.039062-24.18-9.668-47.352-26.773-64.441-17.102-17.09-40.285-26.695-64.461-26.719zm-30.781 160.43v-10.941c0-15.113 13.227-26.449 30.781-26.449s30.781 11.336 30.781 26.449v10.941h-0.003906c-19.57 8.8164-41.984 8.8164-61.559 0zm74.625-7.8711v-3.4648c0-22.199-19.285-39.359-43.848-39.359s-43.848 17.32-43.848 39.359v3.4648h0.003907c-17.609-12.488-29.062-31.887-31.484-53.336s4.418-42.914 18.801-59.012c14.383-16.098 34.945-25.301 56.531-25.301s42.148 9.2031 56.531 25.301c14.379 16.098 21.219 37.562 18.797 59.012s-13.875 40.848-31.48 53.336z"/>
  <path d="m243.98 441.88c-23.781 0-46.586 9.4453-63.402 26.262-16.816 16.812-26.262 39.621-26.262 63.398 0 23.781 9.4453 46.586 26.262 63.402 16.816 16.812 39.621 26.262 63.402 26.262 23.777 0 46.586-9.4492 63.398-26.262 16.816-16.816 26.262-39.621 26.262-63.402-0.019531-23.773-9.4727-46.566-26.285-63.375-16.809-16.812-39.602-26.266-63.375-26.285zm0 163.97c-19.711 0-38.613-7.8281-52.547-21.766-13.938-13.938-21.766-32.836-21.766-52.547 0-19.707 7.8281-38.609 21.766-52.547 13.934-13.934 32.836-21.766 52.547-21.766 19.707 0 38.609 7.832 52.543 21.766 13.938 13.938 21.766 32.84 21.766 52.547-0.039062 19.695-7.8828 38.574-21.809 52.5-13.93 13.93-32.805 21.77-52.5 21.812z"/>
  <path d="m250.43 500.37c2.0898 0 4.0898 0.82812 5.5664 2.3047 1.4766 1.4766 2.3047 3.4805 2.3047 5.5664 0 4.3477 3.5273 7.8711 7.875 7.8711 4.3477 0 7.8711-3.5234 7.8711-7.8711 0.29688-6.2969-2.0117-12.441-6.3867-16.98-4.375-4.5391-10.43-7.0742-16.734-7.0117-6.3008 0.066406-12.301 2.7266-16.582 7.3555-4.2812 4.6289-6.4609 10.82-6.0352 17.109-0.023438 5.5156-0.52734 11.023-1.4961 16.453h-9.4453c-4.3477 0-7.8711 3.5234-7.8711 7.8711s3.5234 7.8711 7.8711 7.8711h5.9844c-1.8555 6.8906-5.6211 13.113-10.863 17.949-2.3047 2.1445-3.1094 5.457-2.0469 8.418 1.0625 2.9609 3.7852 5.0078 6.9258 5.1992h48.098c4.3477 0 7.8711-3.5234 7.8711-7.8711 0-4.3477-3.5234-7.8711-7.8711-7.8711h-32.273c2.7344-5.1289 4.8242-10.574 6.2188-16.215h12.121c4.3477 0 7.8711-3.5273 7.8711-7.875s-3.5234-7.8711-7.8711-7.8711h-8.9727c0.48047-5.6289 0.48047-11.293 0-16.926 0.21094-4.1914 3.6719-7.4805 7.8711-7.4766z"/>
 </g>
</svg>