<?xml version="1.0" encoding="UTF-8"?>
<!-- The Best Svg Icon site in the world: iconSvg.co, Visit us! https://iconsvg.co -->
<svg fill="#000000" width="800px" height="800px" version="1.1" viewBox="144 144 512 512" xmlns="http://www.w3.org/2000/svg">
 <path d="m299.95 473.58h-65.059c-2.7852 0-5.0391 2.2539-5.0391 5.0391v59.465c0 2.7852 2.2539 5.0391 5.0391 5.0391h65.059c2.7812 0 5.0391-2.2539 5.0391-5.0391l-0.003907-59.465c0-2.7812-2.2617-5.0391-5.0352-5.0391zm-5.0391 59.465h-54.98v-49.387h54.98zm93.422-128.8h-65.062c-2.7852 0-5.0391 2.2539-5.0391 5.0391v128.8c0 2.7852 2.2539 5.0391 5.0391 5.0391h65.059c2.7812 0 5.0391-2.2539 5.0391-5.0391l-0.003906-128.81c0.007812-2.7852-2.2578-5.0352-5.0312-5.0352zm-5.0391 128.8h-54.984v-118.73h54.98v118.73zm93.426-99.832h-65.066c-2.7852 0-5.0391 2.2539-5.0391 5.0391v99.836c0 2.7852 2.2539 5.0391 5.0391 5.0391h65.062c2.7852 0 5.0391-2.2539 5.0391-5.0391v-99.84c0.003907-2.7852-2.2539-5.0352-5.0352-5.0352zm-5.0352 99.832h-54.992v-89.758h54.984v89.758zm93.414-190.52h-65.062c-2.7852 0-5.0391 2.2539-5.0391 5.0391v190.52c0 2.7852 2.2539 5.0391 5.0391 5.0391h65.062c2.7852 0 5.0391-2.2539 5.0391-5.0391v-190.52c0-2.7852-2.2539-5.0391-5.0391-5.0391zm-5.0391 190.52h-54.984v-180.44h54.984zm-305.24-123.77c0-6.957 5.6367-12.594 12.594-12.594 1.4766 0 2.8711 0.30078 4.1875 0.76562l72.309-65.25c-0.41797-1.25-0.69922-2.5625-0.69922-3.9531 0-6.957 5.6367-12.594 12.594-12.594 6.957 0 12.594 5.6367 12.594 12.594 0 0.13281-0.035156 0.25781-0.039063 0.38672l66.633 31.648c2.3125-2.75 5.7344-4.5352 9.6094-4.5352 1.6875 0 3.2891 0.34375 4.7617 0.94531l71.832-81.895c-0.76172-1.6211-1.2188-3.4141-1.2188-5.332 0-6.957 5.6367-12.594 12.594-12.594s12.594 5.6367 12.594 12.594c0 6.957-5.6367 12.594-12.594 12.594-1.3281 0-2.5859-0.26172-3.7852-0.64062l-72.414 82.562c0.50781 1.3672 0.82031 2.8281 0.82031 4.3633 0 6.957-5.6367 12.594-12.594 12.594-6.3516 0-11.551-4.7188-12.418-10.828l-68.16-32.391c-2.2109 1.918-5.0586 3.1172-8.2188 3.1172-1.8477 0-3.5938-0.42188-5.1758-1.1367l-71.625 64.641c0.64844 1.5156 1.0078 3.1836 1.0078 4.9336 0 6.957-5.6367 12.594-12.594 12.594-6.9609 0-12.594-5.6328-12.594-12.59z"/>
</svg>