<?xml version="1.0" encoding="UTF-8"?>
<!-- The Best Svg Icon site in the world: iconSvg.co, Visit us! https://iconsvg.co -->
<svg fill="#000000" width="800px" height="800px" version="1.1" viewBox="144 144 512 512" xmlns="http://www.w3.org/2000/svg">
 <g>
  <path d="m420.93 621.39h-41.867c-1.8438 0-3.4414-1.2773-3.8398-3.0781l-13.414-60.062c-16.633-3.9688-32.531-10.559-47.328-19.609l-52.074 32.969c-1.5547 0.98438-3.5859 0.75781-4.8867-0.54297l-29.578-29.578c-1.3008-1.3008-1.5273-3.332-0.54297-4.8867l32.965-52.066c-9.0273-14.676-15.617-30.578-19.609-47.336l-60.059-13.418c-1.7969-0.40234-3.0781-1.9961-3.0781-3.8398v-41.867c0-1.8438 1.2773-3.4414 3.0781-3.8398l60.059-13.414c3.9688-16.633 10.559-32.535 19.609-47.332l-32.969-52.074c-0.98438-1.5547-0.75781-3.5859 0.54297-4.8867l29.578-29.578c1.3047-1.3047 3.3359-1.5273 4.8906-0.53906l52.062 33.051c14.547-8.9727 30.449-15.586 47.332-19.684l13.418-60.07c0.40625-1.8008 2.0039-3.082 3.8438-3.082h41.867c1.8438 0 3.4375 1.2773 3.8398 3.0781l13.418 60.07c16.887 4.1016 32.789 10.715 47.332 19.684l52.062-33.051c1.5547-0.98828 3.5898-0.76562 4.8906 0.53906l29.578 29.578c1.3008 1.3008 1.5273 3.332 0.54297 4.8867l-32.969 52.074c9.0547 14.797 15.641 30.695 19.613 47.332l60.059 13.414c1.7969 0.40234 3.0781 2 3.0781 3.8398v41.867c0 1.8438-1.2773 3.4375-3.0781 3.8398l-60.059 13.414c-3.9688 16.633-10.559 32.535-19.613 47.332l32.969 52.074c0.98438 1.5547 0.75781 3.5859-0.54297 4.8867l-29.578 29.578c-1.3008 1.3047-3.3359 1.5273-4.8867 0.54297l-52.066-32.965c-14.676 9.0273-30.578 15.613-47.336 19.605l-13.414 60.059c-0.39844 1.8086-1.9961 3.0859-3.8398 3.0859zm-38.711-7.8711h35.559l13.27-59.402c0.33203-1.4883 1.4961-2.6523 2.9883-2.9844 17.578-3.9062 34.195-10.789 49.391-20.457 1.2891-0.81641 2.9297-0.82031 4.2188-0.003907l51.5 32.605 25.121-25.121-32.605-51.5c-0.8125-1.2852-0.8125-2.9258 0-4.2109 9.7031-15.34 16.59-31.961 20.465-49.398 0.33203-1.4883 1.4961-2.6523 2.9844-2.9883l59.402-13.27-0.003907-35.559-59.402-13.27c-1.4883-0.33203-2.6523-1.4961-2.9844-2.9883-3.875-17.438-10.762-34.055-20.465-49.398-0.8125-1.2852-0.8125-2.9258 0-4.2109l32.605-51.5-25.121-25.117-51.496 32.691c-1.2891 0.82031-2.9375 0.82031-4.2266-0.007812-15.043-9.6055-31.664-16.52-49.402-20.551-1.4805-0.33594-2.6367-1.4961-2.9688-2.9805l-13.27-59.402h-35.559l-13.27 59.398c-0.33203 1.4844-1.4883 2.6445-2.9688 2.9805-17.738 4.0312-34.359 10.945-49.402 20.551-1.2891 0.82031-2.9375 0.82422-4.2266 0.003906l-51.496-32.691-25.117 25.117 32.605 51.5c0.8125 1.2852 0.81641 2.9219 0 4.2109-9.7031 15.344-16.59 31.965-20.465 49.398-0.33203 1.4922-1.4961 2.6562-2.9844 2.9883l-59.402 13.27v35.559l59.402 13.27c1.4883 0.33203 2.6523 1.4961 2.9844 2.9883 3.9062 17.578 10.789 34.195 20.457 49.391 0.82031 1.2852 0.82031 2.9297 0.003906 4.2188l-32.605 51.5 25.121 25.121 51.496-32.598c1.2852-0.8125 2.9219-0.81641 4.2109 0 15.344 9.7031 31.965 16.59 49.398 20.465 1.4922 0.33203 2.6562 1.4961 2.9883 2.9844z"/>
  <path d="m400 518.15c-65.691 0-119.14-53.445-119.14-119.14 0-2.1719 1.7617-3.9375 3.9375-3.9375 2.1719 0 3.9375 1.7617 3.9375 3.9375 0 61.352 49.914 111.27 111.27 111.27 10.309 0 20.52-1.4102 30.348-4.1914 2.0938-0.59766 4.2656 0.625 4.8594 2.7148 0.59375 2.0938-0.625 4.2695-2.7148 4.8594-10.535 2.9805-21.465 4.4883-32.496 4.4883z"/>
  <path d="m515.2 402.95c-2.1719 0-3.9375-1.7617-3.9375-3.9375 0-61.352-49.914-111.27-111.27-111.27-16.883 0-33.098 3.6836-48.191 10.949-1.957 0.94531-4.3125 0.11719-5.2539-1.8398-0.94141-1.9609-0.12109-4.3125 1.8398-5.2539 16.168-7.7812 33.531-11.727 51.605-11.727 65.691 0 119.14 53.445 119.14 119.14 0.003907 2.1758-1.7578 3.9375-3.9336 3.9375z"/>
  <path d="m400 478.79c-43.988 0-79.773-35.789-79.773-79.777 0-30.469 17.75-58.699 45.219-71.922 10.828-5.2109 22.453-7.8516 34.559-7.8516 43.988 0 79.777 35.789 79.777 79.777 0 35.539-23.859 67.109-58.023 76.773-7.0469 1.9883-14.367 3-21.758 3zm0-151.68c-10.91 0-21.391 2.3789-31.145 7.0742-24.762 11.918-40.762 37.367-40.762 64.828 0 39.648 32.254 71.906 71.902 71.906 6.6641 0 13.262-0.91016 19.613-2.707 30.789-8.7109 52.293-37.164 52.293-69.199 0.003906-39.648-32.254-71.902-71.902-71.902z"/>
  <path d="m410.49 388.68c-0.11719-0.16016-0.46875-0.41797-1.0469-0.78125-0.58203-0.35938-1.3203-0.75-2.2188-1.168-0.89844-0.42188-1.8984-0.82031-2.9961-1.1992-1.0977-0.37891-2.207-0.64844-3.3242-0.80859v8.1484l1.918 0.48047c2.0352 0.55859 3.875 1.168 5.5117 1.8281 1.6367 0.66016 3.0273 1.4805 4.1641 2.457 1.1367 0.98047 2.0156 2.168 2.6367 3.5664 0.62109 1.3984 0.92969 3.0742 0.92969 5.0312 0 2.2773-0.40234 4.2148-1.1992 5.8125-0.80078 1.5977-1.8672 2.9062-3.207 3.9219-1.3359 1.0195-2.875 1.7891-4.6133 2.3086-1.7383 0.51562-3.5664 0.81641-5.4844 0.89844v6.9492h-4.1367v-7.0117c-2.7578-0.23828-5.4844-0.79688-8.1797-1.6758-2.6953-0.87891-5.125-2.0352-7.2812-3.4727l4.3125-8.5664c0.16016 0.19922 0.58984 0.52734 1.2891 0.98828 0.69922 0.46094 1.5898 0.94141 2.6641 1.4375 1.0781 0.5 2.2969 0.98047 3.6562 1.4375 1.3555 0.46094 2.7578 0.78906 4.1953 0.98828v-7.9688l-2.875-0.83984c-1.957-0.59766-3.6562-1.2461-5.0938-1.9492-1.4375-0.69922-2.6289-1.5078-3.5664-2.4258-0.9375-0.91797-1.6367-1.9766-2.0977-3.1758-0.46094-1.1992-0.6875-2.5977-0.6875-4.1953 0-2.0781 0.35938-3.9258 1.0781-5.543 0.71875-1.6172 1.6875-3.0039 2.9062-4.1641 1.2188-1.1562 2.6562-2.0664 4.3125-2.7266 1.6562-0.66016 3.4453-1.0859 5.3633-1.2891v-6.0508h4.1367v6.0508c2.5977 0.23828 5.0312 0.82031 7.3125 1.7383 2.2773 0.91797 4.2539 1.8555 5.9297 2.8164zm-16.598-0.53906c0 1 0.34766 1.7891 1.0469 2.3672 0.69922 0.57813 1.7461 1.0898 3.1484 1.5273v-7.3711c-2.7969 0.24219-4.1953 1.4023-4.1953 3.4766zm11.625 19.055c0-1.0391-0.42188-1.8477-1.2578-2.4258-0.83984-0.57812-1.957-1.1055-3.3555-1.5859v7.1914c3.0742-0.125 4.6133-1.1797 4.6133-3.1797z"/>
  <path d="m399.02 446.25c-26.586 0-48.215-21.629-48.215-48.215s21.629-48.215 48.215-48.215 48.215 21.629 48.215 48.215-21.629 48.215-48.215 48.215zm0-88.562c-22.246 0-40.344 18.098-40.344 40.344s18.098 40.344 40.344 40.344 40.344-18.098 40.344-40.344-18.098-40.344-40.344-40.344z"/>
  <path d="m600.73 623.36h-314.88c-2.1719 0-3.9375-1.7617-3.9375-3.9375 0-2.1719 1.7617-3.9375 3.9375-3.9375h314.88c2.1719 0 3.9375 1.7617 3.9375 3.9375-0.003906 2.1758-1.7656 3.9375-3.9414 3.9375z"/>
 </g>
</svg>