<?xml version="1.0" encoding="UTF-8"?>
<!-- The Best Svg Icon site in the world: iconSvg.co, Visit us! https://iconsvg.co -->
<svg fill="#000000" width="800px" height="800px" version="1.1" viewBox="144 144 512 512" xmlns="http://www.w3.org/2000/svg">
 <g>
  <path d="m337.02 462.98c4.1719-0.015624 8.168-1.6758 11.117-4.625 2.9492-2.9531 4.6133-6.9492 4.625-11.121v-31.488h-31.488v31.488c0.011718 4.1719 1.6758 8.168 4.625 11.121 2.9492 2.9492 6.9492 4.6094 11.121 4.625z"/>
  <path d="m208.32 344.89-24.484 55.105h259.15l-24.48-55.105h-18.5v15.742c0 2.0898-0.83203 4.0898-2.3086 5.5664-1.4766 1.4766-3.4766 2.3086-5.5664 2.3086h-157.44c-4.3477 0-7.875-3.5273-7.875-7.875v-15.742z"/>
  <path d="m242.56 321.28h141.7v31.488h-141.7z"/>
  <path d="m329.15 541.7h62.977v31.488h-62.977z"/>
  <path d="m423.61 620.41v-142.8c-6.0977-1.625-11.574-5.0234-15.742-9.7617-5.9102 6.8945-14.535 10.863-23.617 10.863-9.0781 0-17.707-3.9688-23.617-10.863-5.9062 6.8945-14.535 10.863-23.613 10.863-9.082 0-17.707-3.9688-23.617-10.863-5.9102 6.8945-14.535 10.863-23.617 10.863-9.0781 0-17.707-3.9688-23.613-10.863-5.9102 6.8945-14.539 10.863-23.617 10.863-9.082 0-17.707-3.9688-23.617-10.863-4.168 4.7383-9.6445 8.1367-15.742 9.7617v142.8h15.742v-102.34c0-4.3477 3.5234-7.8711 7.8711-7.8711h62.977c2.0898 0 4.0898 0.82812 5.5664 2.3047 1.4766 1.4766 2.3086 3.4805 2.3086 5.5664v102.34zm-110.21-86.59c0-4.3477 3.5234-7.875 7.8711-7.875h78.723c2.0859 0 4.0898 0.83203 5.5664 2.3086 1.4766 1.4766 2.3047 3.4766 2.3047 5.5664v47.23c0 2.0898-0.82812 4.0898-2.3047 5.5664-1.4766 1.4766-3.4805 2.3047-5.5664 2.3047h-78.723c-4.3477 0-7.8711-3.5234-7.8711-7.8711z"/>
  <path d="m384.25 462.98c4.1719-0.015624 8.168-1.6758 11.121-4.625 2.9492-2.9531 4.6094-6.9492 4.625-11.121v-31.488h-31.488v31.488c0.011719 4.1719 1.6758 8.168 4.625 11.121 2.9492 2.9492 6.9453 4.6094 11.117 4.625z"/>
  <path d="m289.79 462.98c4.1719-0.015624 8.1719-1.6758 11.121-4.625 2.9492-2.9531 4.6133-6.9492 4.625-11.121v-31.488h-31.488v31.488c0.011719 4.1719 1.6758 8.168 4.625 11.121 2.9492 2.9492 6.9453 4.6094 11.117 4.625z"/>
  <path d="m447.23 447.23v-31.488h-31.488v31.488c0 5.625 3 10.824 7.8711 13.637 4.8711 2.8125 10.875 2.8125 15.746 0s7.8711-8.0117 7.8711-13.637z"/>
  <path d="m234.69 525.95h47.23v94.465h-47.23z"/>
  <path d="m242.56 462.98c4.1719-0.015624 8.168-1.6758 11.117-4.625 2.9492-2.9531 4.6133-6.9492 4.625-11.121v-31.488h-31.488v31.488c0.015625 4.1719 1.6758 8.168 4.625 11.121 2.9531 2.9492 6.9492 4.6094 11.121 4.625z"/>
  <path d="m179.58 447.23c0 5.625 3 10.824 7.8711 13.637s10.875 2.8125 15.746 0c4.8711-2.8125 7.8711-8.0117 7.8711-13.637v-31.488h-31.488z"/>
  <path d="m533.82 203.2c-16.703 0-32.723 6.6328-44.531 18.445-11.812 11.809-18.445 27.828-18.445 44.531 0 16.699 6.6328 32.719 18.445 44.527 11.809 11.812 27.828 18.445 44.531 18.445 16.699 0 32.719-6.6328 44.531-18.445 11.809-11.809 18.445-27.828 18.445-44.527-0.019531-16.699-6.6602-32.707-18.469-44.512-11.805-11.805-27.812-18.449-44.508-18.465zm-7.8711 55.105h15.742v-0.003907c8.4375 0 16.234 4.5039 20.453 11.809 4.2188 7.3086 4.2188 16.309 0 23.617-4.2188 7.3047-12.016 11.809-20.453 11.809v7.8711c0 4.3477-3.5234 7.8711-7.8711 7.8711-4.3477 0-7.875-3.5234-7.875-7.8711v-7.8711c-6.2617 0-12.27-2.4883-16.699-6.918-4.4258-4.4297-6.9141-10.438-6.9141-16.699 0-4.3477 3.5234-7.8711 7.8711-7.8711 4.3477 0 7.8711 3.5234 7.8711 7.8711 0 2.0898 0.83203 4.0898 2.3047 5.5664 1.4766 1.4766 3.4805 2.3047 5.5664 2.3047h15.746c4.3477 0 7.8711-3.5234 7.8711-7.8711 0-4.3477-3.5234-7.8711-7.8711-7.8711h-15.746c-8.4336 0-16.23-4.5-20.449-11.809-4.2188-7.3086-4.2188-16.309 0-23.617 4.2188-7.3047 12.016-11.809 20.449-11.809v-7.8711c0-4.3477 3.5273-7.8711 7.875-7.8711 4.3477 0 7.8711 3.5234 7.8711 7.8711v7.8711c6.2617 0 12.27 2.4883 16.699 6.918 4.4297 4.4297 6.918 10.438 6.918 16.699 0 4.3477-3.5273 7.8711-7.875 7.8711s-7.8711-3.5234-7.8711-7.8711c0-2.0859-0.82812-4.0898-2.3047-5.5664-1.4766-1.4766-3.4805-2.3047-5.5664-2.3047h-15.746c-4.3477 0-7.8711 3.5234-7.8711 7.8711 0 4.3477 3.5234 7.8711 7.8711 7.8711z"/>
  <path d="m533.82 179.58c-22.969 0-44.992 9.1211-61.23 25.363-16.238 16.238-25.363 38.262-25.363 61.23 0 22.965 9.125 44.988 25.363 61.227 16.238 16.242 38.262 25.363 61.23 25.363 22.965 0 44.988-9.1211 61.23-25.363 16.238-16.238 25.359-38.262 25.359-61.227-0.027343-22.961-9.1562-44.969-25.391-61.203-16.234-16.23-38.242-25.363-61.199-25.391zm0 165.31c-20.879 0-40.902-8.293-55.664-23.059-14.766-14.762-23.059-34.785-23.059-55.66 0-20.879 8.293-40.902 23.059-55.664 14.762-14.766 34.785-23.059 55.664-23.059 20.875 0 40.898 8.293 55.664 23.059 14.762 14.762 23.055 34.785 23.055 55.664-0.023438 20.871-8.3242 40.879-23.082 55.637-14.758 14.758-34.766 23.059-55.637 23.082z"/>
  <path d="m620.41 360.64c-4.3477 0-7.8711 3.5273-7.8711 7.875-0.042969 39.652-15.816 77.672-43.855 105.71-28.039 28.039-66.059 43.812-105.71 43.855-4.3477 0-7.875 3.5234-7.875 7.8711 0 4.3477 3.5273 7.875 7.875 7.875 43.828-0.050781 85.848-17.48 116.84-48.473 30.992-30.992 48.422-73.012 48.473-116.84 0-2.0898-0.83203-4.0898-2.3086-5.5664-1.4766-1.4766-3.4766-2.3086-5.5664-2.3086z"/>
  <path d="m286.77 289.43c1.9922 0.625 4.1523 0.43359 6.0039-0.53125 1.8516-0.96484 3.2422-2.625 3.8711-4.6172 9.4609-30.422 28.43-57.008 54.117-75.852s56.742-28.957 88.602-28.848c4.3477 0 7.8711-3.5234 7.8711-7.8711 0-4.3477-3.5234-7.875-7.8711-7.875-35.211-0.11328-69.535 11.062-97.926 31.891-28.391 20.828-49.359 50.211-59.824 83.828-0.625 1.9961-0.43359 4.1562 0.53516 6.0078 0.96484 1.8516 2.6289 3.2422 4.6211 3.8672z"/>
 </g>
</svg>