<?xml version="1.0" encoding="UTF-8"?>
<!-- The Best Svg Icon site in the world: iconSvg.co, Visit us! https://iconsvg.co -->
<svg width="800px" height="800px" version="1.1" viewBox="144 144 512 512" xmlns="http://www.w3.org/2000/svg">
 <defs>
  <clipPath id="a">
   <path d="m214 148.09h375v503.81h-375z"/>
  </clipPath>
 </defs>
 <g clip-path="url(#a)">
  <path d="m400 195.32c2.0859 0 4.0898-0.82812 5.5664-2.3047 1.4766-1.4766 2.3047-3.4766 2.3047-5.5664v-31.488c0-4.3477-3.5234-7.8711-7.8711-7.8711s-7.875 3.5234-7.875 7.8711v31.488c0 2.0898 0.83203 4.0898 2.3086 5.5664 1.4766 1.4766 3.4766 2.3047 5.5664 2.3047zm-96.672 25.758c0.99609 1.9023 2.7227 3.3164 4.7852 3.9141 2.0586 0.59766 4.2734 0.32812 6.1328-0.74609 1.8555-1.0742 3.1953-2.8594 3.707-4.9414 0.50781-2.0859 0.14453-4.2852-1.0039-6.0977l-15.742-27.27h-0.003906c-0.99219-1.8984-2.7188-3.3125-4.7812-3.9102-2.0586-0.59766-4.2734-0.32812-6.1328 0.74609-1.8555 1.0703-3.1953 2.8555-3.707 4.9414-0.50781 2.082-0.14844 4.2852 1.0039 6.0977zm96.672 29.348c-27.145 0-53.172 10.781-72.363 29.973-19.191 19.191-29.973 45.223-29.973 72.363s10.781 53.172 29.973 72.363c19.191 19.191 45.219 29.973 72.363 29.973 27.141 0 53.168-10.781 72.359-29.973 19.195-19.191 29.977-45.223 29.977-72.363-0.035157-27.129-10.828-53.141-30.012-72.324-19.184-19.184-45.195-29.977-72.324-30.012zm0 188.93c-22.969 0-44.992-9.125-61.23-25.363-16.238-16.238-25.363-38.266-25.363-61.23s9.125-44.988 25.363-61.23c16.238-16.238 38.262-25.359 61.23-25.359 22.965 0 44.988 9.1211 61.227 25.359 16.242 16.242 25.363 38.266 25.363 61.23-0.027344 22.957-9.1602 44.965-25.395 61.199-16.23 16.23-38.238 25.363-61.195 25.395zm86.59-218.01c3.7656 2.1719 8.582 0.88281 10.754-2.8828l15.742-27.27h0.003906c1.1484-1.8086 1.5117-4.0117 1-6.0938-0.50781-2.0859-1.8477-3.8711-3.707-4.9414-1.8555-1.0742-4.0703-1.3438-6.1328-0.74609-2.0586 0.59766-3.7852 2.0117-4.7812 3.9102l-15.742 27.27c-2.1758 3.7617-0.89453 8.5742 2.8633 10.754zm-233.36 51.75-27.254-15.742c-3.7617-2.1406-8.5469-0.84375-10.711 2.9062-2.1602 3.7461-0.89453 8.5391 2.8398 10.727l27.254 15.742h-0.003906c3.7617 2.1406 8.5469 0.83984 10.711-2.9062 2.1602-3.7461 0.89453-8.5391-2.8359-10.727zm138.89 40.305h15.746c4.1758 0 8.1797 1.6602 11.133 4.6094 2.9531 2.9531 4.6094 6.9609 4.6094 11.133 0 4.3477 3.5273 7.875 7.875 7.875 4.3477 0 7.8711-3.5273 7.8711-7.875 0-8.3477-3.3164-16.359-9.2227-22.262-5.9062-5.9062-13.914-9.2227-22.266-9.2227v-7.875c0-4.3477-3.5234-7.8711-7.8711-7.8711s-7.875 3.5234-7.875 7.8711v7.875c-11.25 0-21.645 6-27.27 15.742s-5.625 21.746 0 31.488c5.625 9.7422 16.02 15.742 27.27 15.742h15.746c5.625 0 10.82 3.0039 13.633 7.875 2.8125 4.8711 2.8125 10.871 0 15.742s-8.0078 7.8711-13.633 7.8711h-15.746c-4.1758 0-8.1797-1.6562-11.133-4.6094-2.9492-2.9531-4.6094-6.957-4.6094-11.133 0-4.3477-3.5234-7.8711-7.8711-7.8711-4.3477 0-7.875 3.5234-7.875 7.8711 0 8.3516 3.3203 16.359 9.2227 22.266 5.9062 5.9062 13.914 9.2227 22.266 9.2227v7.8711c0 4.3477 3.5273 7.8711 7.875 7.8711s7.8711-3.5234 7.8711-7.8711v-7.8711c11.25 0 21.645-6.0039 27.27-15.746s5.625-21.746 0-31.488c-5.625-9.7422-16.02-15.742-27.27-15.742h-15.746c-5.625 0-10.82-3-13.633-7.8711-2.8125-4.8711-2.8125-10.875 0-15.746s8.0078-7.8711 13.633-7.8711zm102.07-66.457c-30.449-26.957-70.953-39.645-111.34-34.871-34.672 4.1953-66.57 21.059-89.562 47.352-22.988 26.289-35.453 60.152-34.988 95.074 0.46484 34.922 13.82 68.441 37.504 94.113 24.684 28.125 39.945 63.27 43.641 100.51l0.59766 4.8477 0.003906 0.003906c-2.4258 4.2617-3.4297 9.1836-2.8633 14.055s2.6719 9.4336 6.0117 13.023c-5.3242 5.8047-7.3672 13.902-5.4414 21.539 1.9297 7.6367 7.5703 13.789 15.012 16.371v9.3242c0 6.2617 2.4883 12.27 6.918 16.695 4.4297 4.4297 10.434 6.918 16.699 6.918h47.23c6.2656 0 12.273-2.4883 16.699-6.918 4.4297-4.4258 6.918-10.434 6.918-16.695v-9.3242c7.4453-2.5742 13.094-8.7266 15.031-16.363 1.9336-7.6367-0.10547-15.734-5.4258-21.547 3.3438-3.5938 5.4531-8.1602 6.0195-13.039 0.56641-4.875-0.4375-9.8086-2.8711-14.07l0.94531-7.9648v-0.003907c5.3945-37.641 21.719-72.875 46.945-101.33 24.047-28.184 36.09-64.668 33.543-101.63-2.5469-36.961-19.477-71.449-47.16-96.07zm-62.707 381.34c0 2.0859-0.83203 4.0898-2.3086 5.5664-1.4766 1.4727-3.4766 2.3047-5.5664 2.3047h-47.23c-4.3477 0-7.8711-3.5234-7.8711-7.8711v-7.875h62.977zm7.8711-23.617h-78.723c-4.3477 0-7.8711-3.5234-7.8711-7.8711 0-4.3477 3.5234-7.875 7.8711-7.875h78.723c4.3477 0 7.8711 3.5273 7.8711 7.875 0 4.3477-3.5234 7.8711-7.8711 7.8711zm0-31.488h-78.723c-4.3477 0-7.8711-3.5234-7.8711-7.8711s3.5234-7.875 7.8711-7.875h78.723c4.3477 0 7.8711 3.5273 7.8711 7.875s-3.5234 7.8711-7.8711 7.8711zm56.52-138.79c-26.895 30.445-44.395 68.031-50.379 108.21-1.9961-0.57812-4.0625-0.88672-6.1406-0.91406h-78.723c-2.1328 0.03125-4.25 0.35156-6.2969 0.96094-4.7031-38.852-21.082-75.359-46.98-104.7-22.027-23.934-33.941-55.461-33.246-87.98 0.69141-32.523 13.941-63.512 36.969-86.484 23.031-22.973 54.055-36.145 86.578-36.762 32.52-0.61328 64.02 11.379 87.898 33.469 23.879 22.086 38.289 52.555 40.211 85.023 1.918 32.473-8.7969 64.43-29.906 89.176zm91.473-162.95c-2.1719-3.7656-6.9883-5.0547-10.754-2.8828l-27.27 15.742 0.003906 0.003906c-3.7344 2.1875-5 6.9766-2.8359 10.727 2.1641 3.7461 6.9453 5.0469 10.707 2.9062l27.27-15.742c3.7656-2.1758 5.0547-6.9883 2.8789-10.754z"/>
 </g>
</svg>