<?xml version="1.0" encoding="UTF-8"?>
<!-- The Best Svg Icon site in the world: iconSvg.co, Visit us! https://iconsvg.co -->
<svg width="800px" height="800px" version="1.1" viewBox="144 144 512 512" xmlns="http://www.w3.org/2000/svg">
 <defs>
  <clipPath id="a">
   <path d="m148.09 148.09h503.81v503.81h-503.81z"/>
  </clipPath>
 </defs>
 <g clip-path="url(#a)">
  <path d="m470.85 305.54v7.8711c0 4.3477 3.5234 7.8711 7.8711 7.8711s7.8711-3.5234 7.8711-7.8711v-7.8711c6.1562-0.003906 12.18-1.8086 17.32-5.1953 4.4141-2.9648 8.0352-6.9648 10.547-11.652 2.4102-4.5 3.6562-9.5352 3.6211-14.641-0.023437-8.3438-3.3516-16.34-9.25-22.238-5.8984-5.8984-13.895-9.2266-22.238-9.25h-15.742c-5.625 0-10.824-3-13.637-7.8711s-2.8125-10.875 0-15.746 8.0117-7.8711 13.637-7.8711h15.742c4.1758 0 8.1797 1.6602 11.133 4.6094 2.9531 2.9531 4.6133 6.957 4.6133 11.133 0 4.3477 3.5234 7.875 7.8711 7.875 4.3477 0 7.8711-3.5273 7.8711-7.875-0.023437-8.3438-3.3516-16.336-9.25-22.238-5.8984-5.8984-13.895-9.2227-22.238-9.25v-7.8711c0-4.3477-3.5234-7.8711-7.8711-7.8711s-7.8711 3.5234-7.8711 7.8711v7.8711c-11.25 0-21.645 6.0039-27.27 15.746-5.625 9.7422-5.625 21.746 0 31.488 5.625 9.7422 16.02 15.742 27.27 15.742h15.742c4.1758 0 8.1797 1.6602 11.133 4.6133 2.9531 2.9531 4.6133 6.957 4.6133 11.133 0.015624 2.1797-0.46875 4.3359-1.418 6.2969-1.2031 2.8008-3.2031 5.1914-5.75 6.8711-2.543 1.6758-5.5273 2.5742-8.5781 2.5742h-15.742c-3.5156 0-6.9297-1.1797-9.6992-3.3516-2.7656-2.168-4.7305-5.1992-5.5742-8.6133-0.3125-1.2344-0.46875-2.5039-0.47266-3.7773 0.13281-4.3477-3.2891-7.9766-7.6328-8.1094-4.3477-0.12891-7.9805 3.2891-8.1094 7.6367v0.47266c0.023437 8.3438 3.3516 16.336 9.25 22.238 5.8984 5.8984 13.895 9.2227 22.238 9.25zm173.18 78.719c-4.3477 0-7.8711 3.5234-7.8711 7.8711 0 10.441-4.1484 20.453-11.527 27.832-7.3828 7.3828-17.395 11.531-27.832 11.531-0.66016 0-1.3867-0.21875-2.0469-0.25v-0.003906c0.125-1.1172 0.17578-2.2422 0.15625-3.3672-0.37891-39.637-15.539-77.703-42.508-106.75 18.414-18.918 28.699-44.289 28.652-70.691 0-36.562-19.504-70.344-51.168-88.625-31.664-18.281-70.672-18.281-102.34 0-31.664 18.281-51.168 52.062-51.168 88.625-0.027343 0.6875 0.027344 1.375 0.15625 2.0469-24.762 1.0977-49.176 6.2578-72.266 15.273l-49.75-30.387c-2.4062-1.457-5.4102-1.5156-7.8711-0.16016-2.5078 1.4102-4.0703 4.0547-4.0938 6.9297v60.301c-29.086 24.562-49.008 58.242-56.523 95.566h-14.324c-6.2656 0-12.27 2.4883-16.699 6.9141-4.4297 4.4297-6.918 10.438-6.918 16.699v47.234c0 6.2617 2.4883 12.27 6.918 16.699 4.4297 4.4297 10.434 6.9141 16.699 6.9141h27.078c13.617 27.695 34.109 51.438 59.512 68.961v64.867c0 6.2617 2.4883 12.27 6.918 16.695 4.4297 4.4297 10.438 6.918 16.699 6.918h47.23c6.2656 0 12.273-2.4883 16.699-6.918 4.4297-4.4258 6.918-10.434 6.918-16.695v-27.398c26.113 4.125 52.734 3.75 78.723-1.1016v28.5c0 6.2617 2.4883 12.27 6.9141 16.695 4.4297 4.4297 10.438 6.918 16.699 6.918h47.234c6.2617 0 12.27-2.4883 16.699-6.918 4.4258-4.4258 6.9141-10.434 6.9141-16.695v-69.277c18.152-13.227 33.484-29.941 45.109-49.16s19.305-40.559 22.59-62.777v-0.21875c1.0234 0 2.0938 0.37891 3.1484 0.37891l0.003906-0.003906c14.613 0 28.629-5.8047 38.961-16.141 10.336-10.332 16.141-24.348 16.141-38.965 0-2.0859-0.82812-4.0898-2.3047-5.5664-1.4766-1.4766-3.4805-2.3047-5.5664-2.3047zm-165.31-220.42c22.711-0.042969 44.523 8.8555 60.723 24.77 16.203 15.914 25.488 37.566 25.852 60.27 0.35938 22.707-8.2305 44.645-23.914 61.066-3.5039 3.8203-7.4102 7.25-11.648 10.234-14.727 11-32.633 16.91-51.012 16.848-19.945-0.0625-39.262-6.9805-54.715-19.59-15.449-12.613-26.094-30.156-30.145-49.684-1.0859-5.1797-1.6133-10.457-1.5742-15.746-0.13281-0.51172-0.18359-1.043-0.16016-1.5742 0.042969-22.953 9.1797-44.953 25.41-61.184 16.23-16.23 38.23-25.367 61.184-25.41zm100.13 272.37v0.003907c-0.13281 0.62109-0.18359 1.2539-0.15625 1.8867-4.4102 44.637-28.254 85.066-65.184 110.52-2.043 1.5234-3.2656 3.9062-3.3047 6.457v73.211c0 2.0859-0.82812 4.0898-2.3047 5.5664-1.4766 1.4727-3.4805 2.3047-5.5664 2.3047h-47.234c-4.3477 0-7.8711-3.5234-7.8711-7.8711v-38.102c0.039062-2.4062-1.0703-4.6875-2.9922-6.1406-1.3516-1.168-3.0938-1.7852-4.8789-1.7305-0.58203-0.027344-1.1641 0.023438-1.7344 0.15625-30.016 6.7891-61.121 7.2188-91.312 1.2578-2.3047-0.44531-4.6875 0.19141-6.457 1.7344-1.7773 1.4805-2.8125 3.668-2.832 5.9805v36.844c0 2.0859-0.83203 4.0898-2.3086 5.5664-1.4727 1.4727-3.4766 2.3047-5.5664 2.3047h-47.23c-4.3477 0-7.8711-3.5234-7.8711-7.8711v-68.961c0.003906-2.5977-1.3008-5.0234-3.4648-6.4531-25.973-17.09-46.598-41.152-59.512-69.434-1.2734-2.8633-4.1094-4.7148-7.2422-4.7227h-32.117c-4.3477 0-7.875-3.5234-7.875-7.8711v-47.234c0-4.3477 3.5273-7.8711 7.875-7.8711h20.938c3.9414 0.003906 7.2891-2.875 7.8711-6.7695 5.9688-37.344 25.543-71.16 54.949-94.938 1.7891-1.4727 2.8281-3.6641 2.832-5.9805v-49.91l41.094 25.031c2.1055 1.3867 4.7656 1.6211 7.0859 0.63281 22.738-9.3281 46.922-14.656 71.477-15.746 4.1758 23.703 16.559 45.184 34.984 60.668 18.422 15.488 41.707 23.996 65.777 24.035 22.473 0.046875 44.312-7.4375 62.031-21.254 24.375 26.203 38.074 60.57 38.414 96.355 0 2.832-0.15625 5.5078-0.3125 8.3438zm-320.55-51.953c-4.1758 0-8.1797 1.6602-11.133 4.6133-2.9531 2.9531-4.6094 6.957-4.6094 11.133s1.6562 8.1797 4.6094 11.133c2.9531 2.9492 6.957 4.6094 11.133 4.6094s8.1797-1.6602 11.133-4.6094c2.9531-2.9531 4.6133-6.957 4.6133-11.133s-1.6602-8.1797-4.6133-11.133c-2.9531-2.9531-6.957-4.6133-11.133-4.6133z"/>
 </g>
</svg>