<?xml version="1.0" encoding="UTF-8"?>
<!-- The Best Svg Icon site in the world: iconSvg.co, Visit us! https://iconsvg.co -->
<svg fill="#000000" width="800px" height="800px" version="1.1" viewBox="144 144 512 512" xmlns="http://www.w3.org/2000/svg">
 <g>
  <path d="m281.92 400c2.8086-0.011719 5.3984-1.5156 6.8008-3.9492 1.3984-2.4336 1.3984-5.4297-0.007812-7.8594l-55.254-94.465c-1.4023-2.4297-3.9922-3.9297-6.8008-3.9375-2.8047 0.007813-5.3906 1.5078-6.793 3.9375l-54.945 94.465c-1.4062 2.4297-1.4062 5.4258-0.007813 7.8594 1.4023 2.4336 3.9922 3.9375 6.8008 3.9492h15.742v228.29c0 2.0859 0.83203 4.0898 2.3047 5.5664 1.4766 1.4727 3.4805 2.3047 5.5664 2.3047h62.977c2.0898 0 4.0898-0.83203 5.5664-2.3047 1.4766-1.4766 2.3086-3.4805 2.3086-5.5664v-228.29zm-23.617-15.742v-0.003906c-4.3477 0-7.8711 3.5234-7.8711 7.8711v228.29h-47.23v-228.29c0-2.0859-0.83203-4.0898-2.3086-5.5664-1.4766-1.4766-3.4766-2.3047-5.5664-2.3047h-9.9336l41.281-70.965 41.523 70.965z"/>
  <path d="m635.08 388.19-55.254-94.465c-1.4062-2.4297-3.9961-3.9297-6.8008-3.9375-2.8047 0.007813-5.3945 1.5078-6.7969 3.9375l-54.945 94.465c-1.4023 2.4297-1.4062 5.4258-0.003906 7.8594 1.3984 2.4336 3.9883 3.9375 6.7969 3.9492h15.742l0.003907 228.29c0 2.0859 0.82812 4.0898 2.3047 5.5664 1.4766 1.4727 3.4766 2.3047 5.5664 2.3047h62.977c2.0859 0 4.0898-0.83203 5.5664-2.3047 1.4766-1.4766 2.3047-3.4805 2.3047-5.5664v-228.29h15.746c2.8047-0.011719 5.3984-1.5156 6.7969-3.9492 1.4023-2.4336 1.3984-5.4297-0.003907-7.8594zm-30.41-3.9375c-4.3477 0-7.8711 3.5234-7.8711 7.8711v228.29h-47.234v-228.29c0-2.0859-0.82812-4.0898-2.3047-5.5664-1.4766-1.4766-3.4805-2.3047-5.5664-2.3047h-9.9336l41.281-70.965 41.523 70.965z"/>
  <path d="m400 368.51c-35.492 0-69.531 14.098-94.629 39.195-25.098 25.098-39.195 59.137-39.195 94.629 0 35.492 14.098 69.531 39.195 94.629 25.098 25.094 59.137 39.195 94.629 39.195s69.531-14.102 94.625-39.195c25.098-25.098 39.199-59.137 39.199-94.629-0.039063-35.48-14.152-69.496-39.242-94.586-25.086-25.09-59.102-39.199-94.582-39.238zm0 251.91v-0.003907c-31.316 0-61.352-12.441-83.496-34.582-22.145-22.145-34.586-52.18-34.586-83.496 0-31.316 12.441-61.352 34.586-83.496 22.145-22.145 52.18-34.586 83.496-34.586s61.348 12.441 83.492 34.586c22.145 22.145 34.586 52.18 34.586 83.496-0.035156 31.305-12.488 61.32-34.625 83.457s-52.148 34.586-83.453 34.621z"/>
  <path d="m400 400c-27.145 0-53.172 10.781-72.363 29.973-19.191 19.191-29.973 45.223-29.973 72.363 0 27.141 10.781 53.168 29.973 72.363 19.191 19.191 45.219 29.973 72.363 29.973 27.141 0 53.168-10.781 72.359-29.973 19.195-19.195 29.977-45.223 29.977-72.363-0.03125-27.133-10.824-53.145-30.008-72.328-19.188-19.188-45.199-29.977-72.328-30.008zm0 188.93v-0.003907c-22.969 0-44.992-9.1211-61.23-25.359-16.238-16.242-25.363-38.266-25.363-61.23 0-22.969 9.125-44.992 25.363-61.23s38.262-25.363 61.23-25.363c22.965 0 44.988 9.125 61.227 25.363 16.242 16.238 25.363 38.262 25.363 61.23-0.027344 22.957-9.1562 44.965-25.391 61.199s-38.242 25.363-61.199 25.391z"/>
  <path d="m378.93 561.69c-17.816-6.4453-31.844-20.48-38.281-38.301-1.457-4.0977-5.9609-6.2383-10.059-4.7812-4.0977 1.457-6.2383 5.9609-4.7812 10.059 7.9102 22.348 25.484 39.93 47.832 47.844 1.9805 0.76562 4.1836 0.69922 6.1172-0.18359 1.9297-0.88672 3.4219-2.5117 4.1328-4.5117 0.71484-2 0.58984-4.2031-0.34375-6.1094-0.93359-1.9062-2.6016-3.3555-4.6172-4.0156z"/>
  <path d="m462.67 496.04c0.20312 2.0703 0.30859 4.1562 0.30859 6.2969 0 4.3477 3.5234 7.8711 7.8711 7.8711s7.8711-3.5234 7.8711-7.8711c0-2.6445-0.13281-5.2578-0.38672-7.832-0.43359-4.3281-4.293-7.4805-8.6172-7.0469-4.3281 0.43359-7.4805 4.293-7.0469 8.6211z"/>
  <path d="m392.12 478.72h15.746c2.0859 0 4.0898 0.82812 5.5664 2.3047 1.4766 1.4766 2.3047 3.4805 2.3047 5.5664 0 4.3477 3.5234 7.8711 7.8711 7.8711 4.3477 0 7.875-3.5234 7.875-7.8711 0-6.2617-2.4883-12.27-6.918-16.699-4.4297-4.4297-10.438-6.9141-16.699-6.9141v-7.875c0-4.3477-3.5234-7.8711-7.8711-7.8711s-7.875 3.5234-7.875 7.8711v7.875c-8.4375 0-16.23 4.5-20.449 11.805-4.2188 7.3086-4.2188 16.312 0 23.617 4.2188 7.3086 12.012 11.809 20.449 11.809h15.746c4.3477 0 7.8711 3.5234 7.8711 7.8711s-3.5234 7.8711-7.8711 7.8711h-15.746c-4.3477 0-7.8711-3.5234-7.8711-7.8711s-3.5234-7.8711-7.8711-7.8711c-4.3477 0-7.8711 3.5234-7.8711 7.8711 0 6.2656 2.4883 12.27 6.9141 16.699 4.4297 4.4297 10.438 6.918 16.699 6.918v7.8711c0 4.3477 3.5273 7.8711 7.875 7.8711s7.8711-3.5234 7.8711-7.8711v-7.8711c8.4375 0 16.234-4.5 20.453-11.809 4.2188-7.3086 4.2188-16.309 0-23.617-4.2188-7.3047-12.016-11.809-20.453-11.809h-15.746c-4.3477 0-7.8711-3.5234-7.8711-7.8711s3.5234-7.8711 7.8711-7.8711z"/>
  <path d="m435.04 431.86c-1.875-1.0078-4.0781-1.2148-6.1094-0.57031-2.0312 0.64453-3.7109 2.0859-4.6641 3.9922-0.94922 1.9062-1.0859 4.1172-0.37891 6.125 0.70703 2.0078 2.1992 3.6445 4.1328 4.5391 12.625 6.3281 22.785 16.684 28.883 29.426 1.8945 3.875 6.5547 5.5 10.453 3.6484 3.8945-1.8555 5.5742-6.4961 3.7617-10.414-7.6094-15.914-20.305-28.844-36.078-36.746z"/>
  <path d="m344.89 274.05h15.742v73.996c0 2.3633 1.0625 4.6055 2.8945 6.0977 1.832 1.4961 4.2383 2.0898 6.5547 1.6172 19.758-3.9766 40.113-3.9766 59.875 0 0.51562 0.10938 1.043 0.16016 1.5742 0.15625 2.0859 0 4.0898-0.82812 5.5664-2.3047 1.4766-1.4766 2.3047-3.4766 2.3047-5.5664v-73.996h15.742c2.8203 0 5.4258-1.5117 6.8281-3.957 1.4062-2.4453 1.3906-5.457-0.03125-7.8906l-55.254-94.465c-1.4219-2.4297-4.0352-3.9141-6.8516-3.8984-2.8008 0.011718-5.3906 1.5078-6.793 3.9375l-54.945 94.465c-1.4062 2.4336-1.4062 5.4258-0.007812 7.8633 1.4023 2.4336 3.9922 3.9375 6.8008 3.9453zm54.961-86.711 41.527 70.965h-9.8945c-4.3477 0-7.875 3.5273-7.875 7.875v72.531c-15.664-2.2461-31.566-2.2461-47.23 0v-72.531c0-2.0898-0.82812-4.0898-2.3047-5.5664s-3.4805-2.3086-5.5664-2.3086h-9.9375z"/>
 </g>
</svg>