<?xml version="1.0" encoding="UTF-8"?>
<!-- The Best Svg Icon site in the world: iconSvg.co, Visit us! https://iconsvg.co -->
<svg fill="#000000" width="800px" height="800px" version="1.1" viewBox="144 144 512 512" xmlns="http://www.w3.org/2000/svg">
 <g>
  <path d="m500.41 389.35c0.37891-0.42578 0.71094-0.88672 1-1.3789 1.3711-2.5586 1.2188-5.668-0.39453-8.082l-31.488-47.23v-0.003906c-1.4609-2.1875-3.918-3.5039-6.5469-3.5039h-125.95c-2.6328 0-5.0898 1.3164-6.5508 3.5039l-31.488 47.23v0.003907c-1.6133 2.4141-1.7656 5.5234-0.39453 8.082 0.28906 0.49219 0.625 0.95312 1 1.3789l94.465 110.21c1.4961 1.7461 3.6797 2.7461 5.9766 2.7461s4.4766-1 5.9727-2.7461l94.465-110.21zm-79.359 2.7773-21.047 73.684-21.051-73.684zm-37.832-15.742 16.785-25.191 16.781 25.191zm31.488-31.488h33.566l-16.781 25.191zm-46.191 25.191-16.785-25.191h33.566zm14.359 92.316-60.223-70.277h39.941zm54.535-70.277h39.941l-60.223 70.25zm42.344-15.742h-33.559l16.785-25.191zm-142.73-25.191 16.781 25.191h-33.559z"/>
  <path d="m565.31 258.3c-4.3477 0-7.875-3.5234-7.875-7.8711h-15.742c0.019532 4.8672 1.543 9.6094 4.3633 13.578 2.8164 3.9688 6.793 6.9688 11.379 8.5898v9.3203h15.742l0.003906-9.3203c7.0547-2.4844 12.512-8.1719 14.699-15.324 2.1914-7.1523 0.85547-14.918-3.5977-20.926-4.4531-6.0117-11.496-9.5469-18.973-9.5352-3.1836 0-6.0547-1.918-7.2734-4.8594s-0.54687-6.3242 1.707-8.5781c2.25-2.25 5.6367-2.9258 8.5781-1.707 2.9414 1.2188 4.8594 4.0898 4.8594 7.2734h15.742c-0.019531-4.8672-1.543-9.6094-4.3594-13.578-2.8203-3.9648-6.793-6.9648-11.383-8.5898v-9.3203h-15.746v9.3203c-7.0547 2.4844-12.508 8.1719-14.699 15.324-2.1914 7.1523-0.85547 14.918 3.5977 20.926 4.4531 6.0117 11.496 9.5469 18.977 9.5352 4.3477 0 7.8711 3.5234 7.8711 7.8711 0 4.3477-3.5234 7.8711-7.8711 7.8711z"/>
  <path d="m565.31 305.54c18.789 0 36.809-7.4648 50.098-20.75 13.285-13.289 20.75-31.309 20.75-50.098 0-18.793-7.4648-36.812-20.75-50.098-13.289-13.289-31.309-20.754-50.098-20.754-18.793 0-36.812 7.4648-50.098 20.754-13.289 13.285-20.754 31.305-20.754 50.098 0.023437 18.781 7.4961 36.789 20.777 50.07s31.289 20.754 50.074 20.777zm0-125.95c14.613 0 28.629 5.8047 38.965 16.141 10.332 10.332 16.137 24.348 16.137 38.965 0 14.613-5.8047 28.629-16.137 38.965-10.336 10.332-24.352 16.137-38.965 16.137-14.617 0-28.633-5.8047-38.965-16.137-10.336-10.336-16.141-24.352-16.141-38.965 0.015625-14.609 5.8281-28.617 16.156-38.949 10.332-10.328 24.34-16.141 38.949-16.156z"/>
  <path d="m234.69 258.3c-4.3477 0-7.875-3.5234-7.875-7.8711h-15.742c0.019532 4.8672 1.543 9.6094 4.3633 13.578 2.8164 3.9688 6.793 6.9688 11.379 8.5898v9.3203h15.742l0.003906-9.3203c7.0547-2.4844 12.512-8.1719 14.699-15.324 2.1914-7.1523 0.85547-14.918-3.5977-20.926-4.4531-6.0117-11.496-9.5469-18.973-9.5352-3.1836 0-6.0547-1.918-7.2734-4.8594s-0.54687-6.3242 1.707-8.5781c2.25-2.25 5.6367-2.9258 8.5781-1.707 2.9414 1.2188 4.8594 4.0898 4.8594 7.2734h15.742c-0.019531-4.8672-1.543-9.6094-4.3594-13.578-2.8203-3.9648-6.793-6.9648-11.383-8.5898v-9.3203h-15.746v9.3203c-7.0547 2.4844-12.508 8.1719-14.699 15.324-2.1914 7.1523-0.85547 14.918 3.5977 20.926 4.4531 6.0117 11.496 9.5469 18.977 9.5352 4.3477 0 7.8711 3.5234 7.8711 7.8711 0 4.3477-3.5234 7.8711-7.8711 7.8711z"/>
  <path d="m234.69 305.54c18.789 0 36.809-7.4648 50.098-20.75 13.285-13.289 20.75-31.309 20.75-50.098 0-18.793-7.4648-36.812-20.75-50.098-13.289-13.289-31.309-20.754-50.098-20.754-18.793 0-36.812 7.4648-50.098 20.754-13.289 13.285-20.754 31.305-20.754 50.098 0.023437 18.781 7.4961 36.789 20.777 50.07s31.289 20.754 50.074 20.777zm0-125.95c14.613 0 28.629 5.8047 38.965 16.141 10.332 10.332 16.137 24.348 16.137 38.965 0 14.613-5.8047 28.629-16.137 38.965-10.336 10.332-24.352 16.137-38.965 16.137-14.617 0-28.633-5.8047-38.965-16.137-10.336-10.336-16.141-24.352-16.141-38.965 0.015625-14.609 5.8281-28.617 16.156-38.949 10.332-10.328 24.34-16.141 38.949-16.156z"/>
  <path d="m565.31 541.7c2.0859 0 4.0898 0.82813 5.5664 2.3047 1.4766 1.4766 2.3047 3.4805 2.3047 5.5664h15.742c-0.019531-4.8672-1.543-9.6094-4.3594-13.578-2.8203-3.9648-6.793-6.9648-11.383-8.5898v-9.3203h-15.746v9.3203c-7.0547 2.4844-12.508 8.1719-14.699 15.324-2.1914 7.1523-0.85547 14.918 3.5977 20.926 4.4531 6.0117 11.496 9.5469 18.977 9.5352 3.1836 0 6.0547 1.918 7.2695 4.8594 1.2188 2.9414 0.54688 6.3281-1.7031 8.5781-2.2539 2.25-5.6406 2.9258-8.582 1.707s-4.8594-4.0898-4.8594-7.2734h-15.742c0.019532 4.8672 1.543 9.6094 4.3633 13.578 2.8164 3.9688 6.793 6.9688 11.379 8.5898v9.3203h15.742l0.003906-9.3203c7.0547-2.4844 12.512-8.1719 14.699-15.324 2.1914-7.1523 0.85547-14.918-3.5977-20.926-4.4531-6.0117-11.496-9.5469-18.973-9.5352-4.3477 0-7.875-3.5234-7.875-7.8711s3.5273-7.8711 7.875-7.8711z"/>
  <path d="m565.31 494.46c-18.793 0-36.812 7.4648-50.098 20.754-13.289 13.285-20.754 31.305-20.754 50.098 0 18.789 7.4648 36.809 20.754 50.098 13.285 13.285 31.305 20.75 50.098 20.75 18.789 0 36.809-7.4648 50.098-20.75 13.285-13.289 20.75-31.309 20.75-50.098-0.023437-18.785-7.4961-36.793-20.777-50.074s-31.289-20.754-50.07-20.777zm0 125.95c-14.617 0-28.633-5.8047-38.965-16.137-10.336-10.336-16.141-24.352-16.141-38.965 0-14.617 5.8047-28.633 16.141-38.965 10.332-10.336 24.348-16.141 38.965-16.141 14.613 0 28.629 5.8047 38.965 16.141 10.332 10.332 16.137 24.348 16.137 38.965-0.015624 14.609-5.8281 28.613-16.156 38.945-10.332 10.328-24.336 16.141-38.945 16.156z"/>
  <path d="m234.69 541.7c2.0859 0 4.0898 0.82813 5.5664 2.3047 1.4766 1.4766 2.3047 3.4805 2.3047 5.5664h15.742c-0.019531-4.8672-1.543-9.6094-4.3594-13.578-2.8203-3.9648-6.793-6.9648-11.383-8.5898v-9.3203h-15.746v9.3203c-7.0547 2.4844-12.508 8.1719-14.699 15.324-2.1914 7.1523-0.85547 14.918 3.5977 20.926 4.4531 6.0117 11.496 9.5469 18.977 9.5352 3.1836 0 6.0547 1.918 7.2695 4.8594 1.2188 2.9414 0.54688 6.3281-1.7031 8.5781-2.2539 2.25-5.6406 2.9258-8.582 1.707s-4.8594-4.0898-4.8594-7.2734h-15.742c0.019532 4.8672 1.543 9.6094 4.3633 13.578 2.8164 3.9688 6.793 6.9688 11.379 8.5898v9.3203h15.742l0.003906-9.3203c7.0547-2.4844 12.512-8.1719 14.699-15.324 2.1914-7.1523 0.85547-14.918-3.5977-20.926-4.4531-6.0117-11.496-9.5469-18.973-9.5352-4.3477 0-7.875-3.5234-7.875-7.8711s3.5273-7.8711 7.875-7.8711z"/>
  <path d="m234.69 494.46c-18.793 0-36.812 7.4648-50.098 20.754-13.289 13.285-20.754 31.305-20.754 50.098 0 18.789 7.4648 36.809 20.754 50.098 13.285 13.285 31.305 20.75 50.098 20.75 18.789 0 36.809-7.4648 50.098-20.75 13.285-13.289 20.75-31.309 20.75-50.098-0.023437-18.785-7.4961-36.793-20.777-50.074s-31.289-20.754-50.07-20.777zm0 125.95c-14.617 0-28.633-5.8047-38.965-16.137-10.336-10.336-16.141-24.352-16.141-38.965 0-14.617 5.8047-28.633 16.141-38.965 10.332-10.336 24.348-16.141 38.965-16.141 14.613 0 28.629 5.8047 38.965 16.141 10.332 10.332 16.137 24.348 16.137 38.965-0.015624 14.609-5.8281 28.613-16.156 38.945-10.332 10.328-24.336 16.141-38.945 16.156z"/>
  <path d="m473.15 315.71 23.617-23.617 11.133 11.133-23.617 23.617z"/>
  <path d="m292.1 303.23 11.133-11.133 23.617 23.617-11.133 11.133z"/>
  <path d="m292.09 496.77 39.359-39.359 11.133 11.133-39.359 39.359z"/>
  <path d="m457.41 468.54 11.133-11.133 39.359 39.359-11.133 11.133z"/>
 </g>
</svg>