<?xml version="1.0" encoding="UTF-8"?>
<!-- The Best Svg Icon site in the world: iconSvg.co, Visit us! https://iconsvg.co -->
<svg fill="#000000" width="800px" height="800px" version="1.1" viewBox="144 144 512 512" xmlns="http://www.w3.org/2000/svg">
 <g>
  <path d="m513.95 250.64-4.7305 9.3984c4.9531 3.3008 11.219 5.1523 16.957 5.6523v7.6914h4.5352v-7.625c9.1094-0.38281 15.906-4.8906 15.906-14.195 0-5.7734-2.5547-9.7383-8.4805-12.125-4.0234-1.6172-7.4727-2.3359-8.1523-2.5312v-8.9375c4.5469 0.65234 9.918 3.5352 10.516 4.3398l4.7344-8.9375c-1.8398-1.0508-4.0117-2.082-6.5078-3.0898-2.5-1.0078-5.1719-1.6445-8.0195-1.9062v-6.6406h-4.5352v6.6406c-6.1562 0.64453-11.289 3.3125-13.801 8.9727-1.5 3.3711-1.5039 7.8672-0.42969 10.68 1.7891 4.6758 6.832 6.7617 11.797 8.2812l3.1562 0.92188v8.7422c-5.8867-0.82812-12.027-4.1836-12.945-5.332zm16.039-2.4336c1.5352 0.52734 2.7617 1.1055 3.6797 1.7422 0.92188 0.63672 1.3828 1.5234 1.3828 2.6602 0 2.1914-1.6875 3.3516-5.0625 3.4844zm-6.5391-13.902c-0.76562-0.63281-1.1484-1.5-1.1484-2.5977 0-2.2773 1.5352-3.5508 4.6016-3.8125v8.0859c-1.5391-0.48047-2.6875-1.0391-3.4531-1.6758z"/>
  <path d="m626.32 459.04h-49.199v-59.039c0-5.4336-4.4062-9.8398-9.8398-9.8398h-142.2c21.469-20.27 33.957-48.484 33.957-78.723 0-59.684-48.555-108.24-108.24-108.24-59.684 0.003907-108.24 48.559-108.24 108.24 0 30.234 12.488 58.453 33.953 78.719l-102.83 0.003906c-5.4336 0-9.8398 4.4062-9.8398 9.8398v68.879c0 5.4336 4.4062 9.8398 9.8398 9.8398h49.199v49.199h-49.199c-5.4336 0-9.8398 4.4062-9.8398 9.8398v68.879c0 5.4336 4.4062 9.8398 9.8398 9.8398h393.6c5.4336 0 9.8398-4.4062 9.8398-9.8398v-59.039h49.199c5.4336 0 9.8398-4.4062 9.8398-9.8398v-68.879c0-5.4336-4.4062-9.8398-9.8398-9.8398zm-68.883 68.879v-49.199h19.68v49.199h-19.68zm-314.88 19.68v49.199l-19.68 0.003906v-49.199c6.8828-0.003906 12.797-0.003906 19.68-0.003906zm-19.68-88.559v-49.199h19.68v49.199h-19.68zm39.359-49.199h19.68v49.199h-19.68zm59.039 0v49.199h-19.68v-49.199h19.68zm39.359 0v49.199h-19.68v-49.199zm39.363 0v49.199h-19.68v-49.199h19.68zm39.359 0v49.199h-19.68v-49.199zm-118.08 118.08v-49.199h19.68v49.199zm39.359 0v-49.199h19.68v49.199zm39.363 0v-49.199h19.68v49.199zm39.359 0v-49.199h19.68v49.199zm39.359 0v-49.199h19.68v49.199zm19.68-68.879v-49.199h19.68v49.199zm-19.68 0h-19.68v-49.199h19.68zm-177.12 19.68v49.199h-19.68v-49.199zm-39.359 68.879h19.68v49.199h-19.68zm39.359 0h19.68v49.199h-19.68zm39.359 0h19.68v49.199h-19.68zm39.363 0h19.68v49.199h-19.68zm39.359 0h19.68v49.199h-19.68zm39.359 0h19.68v49.199h-19.68zm39.359 0h19.68v49.199h-19.68zm19.68-19.68v-49.199h19.68v49.199zm39.359-68.879h-19.68v-49.199h19.68zm-295.2-147.6c0-48.832 39.727-88.559 88.559-88.559s88.559 39.727 88.559 88.559c0 33.473-18.312 63.434-47.949 78.719h-81.223c-29.633-15.285-47.945-45.246-47.945-78.719zm-78.719 98.402h19.68v49.199h-19.68zm59.039 68.879h19.68v49.199h-19.68zm-59.039 68.879h19.68v49.199l-19.68 0.003906zm373.92 49.203h-19.68v-49.199h19.68zm59.043-68.883h-19.68v-49.199h19.68z"/>
  <path d="m339.8 335.56c-4.3125-1.457-9.7734-3.6758-13.574-6.1758-1.5-0.98438-2.4258-1.6953-2.7656-2.1211l-9.2656 18.398c9.7148 6.4766 21.98 10.09 33.199 11.066v15.055h8.8789l-0.003906-14.926c7.6641-0.32031 15.602-2.2578 21.68-6.8828 2.875-2.1875 5.168-4.9961 6.8828-8.4258 1.7148-3.4297 2.5742-7.5898 2.5742-12.48 0-11.273-5.043-19.086-16.602-23.738-7.8906-3.1719-14.59-4.5664-15.957-4.9531v-17.5c8.9609 1.2812 19.43 6.9414 20.586 8.4922l9.2656-17.5c-3.6055-2.0586-7.8516-4.0742-12.738-6.0469-4.8906-1.9727-10.125-3.2148-15.695-3.7305v-12.996h-8.8789v12.996c-12.02 1.2539-22.094 6.4766-27.02 17.562-1.5469 3.4727-2.3164 7.4414-2.3164 11.902 0 9.5586 3.8008 16.258 13.641 21.039 6.8945 3.3555 14.297 5.0859 17.113 5.9844v17.113c-3.0859-0.4375-6.0898-1.1445-9.0039-2.1328zm15.055-13.059c3.0039 1.0273 5.4023 2.168 7.207 3.4102 1.8008 1.2461 2.7031 2.9805 2.7031 5.2109 0 4.2891-3.3047 6.5625-9.9102 6.8203zm-12.805-27.215c-1.5-1.2422-2.25-2.9375-2.25-5.082 0-4.4609 3.0039-6.9492 9.0078-7.4609v15.828c-3.0039-0.94531-5.2578-2.0391-6.7578-3.2852z"/>
  <path d="m527.92 301.6c32.555 0 59.039-26.484 59.039-59.039 0-32.555-26.484-59.039-59.039-59.039-32.555 0-59.039 26.484-59.039 59.039 0 32.555 26.484 59.039 59.039 59.039zm0-98.398c21.703 0 39.359 17.656 39.359 39.359s-17.656 39.359-39.359 39.359-39.359-17.656-39.359-39.359 17.656-39.359 39.359-39.359z"/>
 </g>
</svg>