<?xml version="1.0" encoding="UTF-8"?>
<!-- The Best Svg Icon site in the world: iconSvg.co, Visit us! https://iconsvg.co -->
<svg fill="#000000" width="800px" height="800px" version="1.1" viewBox="144 144 512 512" xmlns="http://www.w3.org/2000/svg">
 <g>
  <path d="m353.28 210.51c0 25.758 20.961 46.719 46.719 46.719s46.727-20.961 46.727-46.719c0-25.754-20.961-46.715-46.727-46.715-25.77 0-46.719 20.961-46.719 46.715z"/>
  <path d="m220.27 475.12c-25.77 0-46.719 20.961-46.719 46.727 0 25.746 20.961 46.719 46.719 46.719s46.727-20.973 46.727-46.719c-0.011719-25.766-20.969-46.727-46.727-46.727z"/>
  <path d="m579.75 475.12c-25.77 0-46.719 20.961-46.719 46.727 0 25.746 20.961 46.719 46.719 46.719 25.758 0 46.719-20.973 46.719-46.719 0-25.766-20.961-46.727-46.719-46.727z"/>
  <path d="m625.96 405.73c-2.625-1.5312-5.6172-1.7109-8.3008-0.88281-4.0625-68.457-40.129-130.93-97.375-168.66 2.0469-1.9219 3.3789-4.5977 3.3789-7.6406 0-5.8047-4.6914-10.496-10.496-10.496h-28.309-0.019531-0.21094c-1.1875 0-2.3086 0.25-3.3789 0.62891-0.27344 0.10547-0.53516 0.21875-0.79688 0.33594-0.94531 0.41797-1.8047 0.94531-2.582 1.6055-0.16797 0.14844-0.33594 0.24219-0.49219 0.38672-0.73438 0.71484-1.418 1.5234-1.9297 2.4336-0.09375 0.17969-0.125 0.37891-0.21875 0.55469-0.042968 0.10547-0.13672 0.16797-0.19922 0.26172-0.0625 0.16797-0.042969 0.33594-0.11719 0.50391-0.39844 1.0195-0.62891 2.0469-0.68359 3.1172-0.019531 0.21875-0.082031 0.41797-0.082031 0.64062 0 1.1758 0.21875 2.3516 0.62109 3.4727 0.09375 0.26172 0.21875 0.51562 0.34766 0.76562 0.19922 0.45313 0.32422 0.91406 0.59766 1.332l15.105 24.234c1.9727 3.1914 5.4141 4.9453 8.9219 4.9453 1.8984 0 3.8086-0.51562 5.5312-1.5859 2.625-1.6367 4.1758-4.25 4.6914-7.0859 50.539 33.914 82.488 89.238 86.594 149.97-2.707-0.97656-5.75-0.92188-8.4805 0.51562-5.1133 2.7305-7.0547 9.0703-4.3359 14.199l13.426 25.199c0.21875 0.42969 0.55469 0.76562 0.83984 1.1562 0.17969 0.24219 0.30469 0.49219 0.51562 0.71484 0.77734 0.90234 1.6797 1.668 2.6992 2.2578 0.19922 0.125 0.41016 0.1875 0.62891 0.27344 0.92188 0.46094 1.9297 0.74609 2.9688 0.93359 0.1875 0.03125 0.34766 0.14844 0.53516 0.16797 0.27344 0.019531 0.55469 0.042969 0.82031 0.042969 0.042969 0 0.0625 0.019531 0.082031 0.019531h0.1875 0.011719 0.019531c1.1562-0.019531 2.2891-0.26172 3.3477-0.65234 0.30469-0.10547 0.58594-0.23047 0.88281-0.35547 0.82031-0.36719 1.5742-0.83984 2.2969-1.418 0.1875-0.16797 0.39844-0.26172 0.57812-0.44141 0.74609-0.68359 1.4375-1.4922 1.9727-2.4023l14.266-24.719c2.8906-5.0078 1.168-11.434-3.8594-14.328z"/>
  <path d="m185.39 445.98c0.21094 0.26172 0.38672 0.57812 0.62891 0.80859 0.69141 0.73438 1.4688 1.375 2.332 1.8789 0.042969 0.019531 0.074219 0.019531 0.11719 0.042969 0.88281 0.49219 1.8359 0.82031 2.8125 1.0586 0.09375 0.019531 0.17969 0.082031 0.28516 0.10547 0.67188 0.13672 1.3438 0.19922 2.0156 0.19922 0.91406 0 1.8281-0.125 2.7305-0.35547 0.38672-0.11719 0.72266-0.30469 1.0898-0.46094 0.47266-0.1875 0.95703-0.30469 1.418-0.57812 0.019532-0.019532 0.03125-0.042969 0.042969-0.042969 1.0508-0.62891 1.9531-1.4688 2.7383-2.4141 0.21875-0.26172 0.41016-0.53516 0.59766-0.82031 0.21094-0.29297 0.46094-0.55469 0.64063-0.88281l13.426-25.199c2.7188-5.1133 0.78906-11.473-4.3359-14.199-2.75-1.4492-5.8242-1.5859-8.543-0.59766 4.1055-60.676 36.055-116.01 86.562-149.91 0.49219 2.8438 2.1523 5.4688 4.7852 7.1172 4.9336 3.0547 11.398 1.5547 14.465-3.3477l15.105-24.234c0.17969-0.27344 0.21875-0.59766 0.36719-0.88281 0.21094-0.41797 0.37891-0.82812 0.53516-1.2695 0.29297-0.85938 0.46094-1.7227 0.52344-2.6133 0.019532-0.27344 0.15625-0.51562 0.15625-0.78906 0-0.125-0.0625-0.21875-0.074218-0.34766-0.042969-1.2695-0.25-2.5195-0.74609-3.7148-0.042969-0.10547-0.125-0.17969-0.17969-0.28516-0.41016-0.90234-0.90234-1.7734-1.5859-2.5508-0.09375-0.10547-0.21875-0.15625-0.31641-0.25-0.27344-0.29297-0.62109-0.51562-0.92188-0.76562-0.66016-0.55469-1.3438-1.0508-2.0977-1.418-0.39844-0.19922-0.79688-0.33594-1.2188-0.48437-0.83984-0.28516-1.6914-0.45313-2.5703-0.51563-0.27344-0.019531-0.51562-0.16797-0.79688-0.16797h-28.551c-5.793 0-10.496 4.6914-10.496 10.496 0 3.043 1.332 5.7188 3.3906 7.6406-57.246 37.754-93.309 100.21-97.371 168.66-2.6875-0.82812-5.6797-0.65234-8.3125 0.88281-5.0156 2.8984-6.7383 9.3203-3.8398 14.336l14.273 24.719c0.26562 0.42188 0.61328 0.76953 0.91797 1.1562z"/>
  <path d="m532.03 584.32c-0.082032-0.41016-0.082032-0.82031-0.21875-1.2188-0.03125-0.13672-0.019532-0.26172-0.0625-0.39844-0.33594-1.0273-0.87109-1.9531-1.4922-2.793-0.042968-0.042968-0.042968-0.11719-0.082031-0.15625-0.79688-1.082-1.8281-1.9414-2.9688-2.625-0.042969-0.03125-0.082031-0.09375-0.14844-0.125-0.125-0.074218-0.26172-0.074218-0.38672-0.13672-0.96484-0.51563-1.9727-0.85938-3.0742-1.0391-0.36719-0.074219-0.73438-0.10547-1.1133-0.125-0.34766-0.019531-0.66016-0.13672-1.0195-0.11719l-28.539 0.97656c-5.8047 0.19922-10.328 5.0469-10.141 10.832 0.11719 3.1172 1.543 5.8555 3.7578 7.6953-54.609 26.766-118.51 26.785-173.11 0 2.2031-1.8594 3.6523-4.5977 3.7578-7.6953 0.19922-5.7852-4.3438-10.645-10.129-10.832l-28.539-0.97656c-0.34766-0.019532-0.66016 0.09375-0.99609 0.11719-0.39844 0.019531-0.77734 0.050781-1.1758 0.125-1.0703 0.17969-2.0586 0.52344-3 1.0195-0.13672 0.082032-0.29297 0.0625-0.42969 0.15625-0.0625 0.03125-0.09375 0.09375-0.14844 0.13672-1.125 0.67188-2.1523 1.5312-2.9609 2.6133-0.050782 0.074219-0.0625 0.15625-0.11719 0.21875-0.58594 0.83984-1.1016 1.7422-1.4492 2.7383-0.042969 0.125-0.03125 0.25-0.0625 0.38672-0.11719 0.39844-0.13672 0.78906-0.21094 1.2188-0.14844 0.83984-0.23047 1.6602-0.17969 2.4883 0.03125 0.44141 0.11719 0.85156 0.19922 1.2812 0.17969 0.88281 0.45312 1.7109 0.85156 2.5195 0.11719 0.21875 0.11719 0.50391 0.25 0.73438l14.273 24.707c1.9414 3.3711 5.4688 5.2461 9.1016 5.2461 1.7734 0 3.5898-0.45312 5.2383-1.4062 2.625-1.5234 4.293-4.0195 4.9141-6.7695 30.66 15.355 64.016 23.059 97.383 23.059s66.711-7.7031 97.383-23.059c0.62891 2.75 2.2891 5.2461 4.9219 6.7695 1.6602 0.95703 3.4648 1.4062 5.2383 1.4062 3.6328 0 7.1602-1.8906 9.0898-5.2461l14.273-24.707c0.15625-0.24219 0.13672-0.53516 0.26172-0.76562 0.37891-0.79688 0.66016-1.6055 0.82812-2.4648 0.082031-0.44141 0.16797-0.87109 0.19922-1.3125 0.0625-0.82031-0.019531-1.6367-0.16797-2.4766z"/>
 </g>
</svg>