<?xml version="1.0" encoding="UTF-8"?>
<!-- The Best Svg Icon site in the world: iconSvg.co, Visit us! https://iconsvg.co -->
<svg fill="#000000" width="800px" height="800px" version="1.1" viewBox="144 144 512 512" xmlns="http://www.w3.org/2000/svg">
 <g>
  <path d="m389.5 295.04c0-25.055-9.9531-49.082-27.668-66.797-17.719-17.715-41.746-27.668-66.797-27.668-25.055 0-49.082 9.9531-66.797 27.668-17.715 17.715-27.668 41.742-27.668 66.797 0 25.051 9.9531 49.078 27.668 66.797 17.715 17.715 41.742 27.668 66.797 27.668 25.051 0 49.078-9.9531 66.797-27.668 17.715-17.719 27.668-41.746 27.668-66.797zm-104.96 41.984h-10.496c-5.7969 0-10.496-4.6992-10.496-10.496s4.6992-10.496 10.496-10.496h31.488v-10.496h-31.488c-5.7969 0-10.496-4.6992-10.496-10.496v-31.488c0-5.7969 4.6992-10.496 10.496-10.496h10.496c0-5.7969 4.6992-10.496 10.496-10.496 5.7969 0 10.496 4.6992 10.496 10.496h10.496c5.7969 0 10.496 4.6992 10.496 10.496s-4.6992 10.496-10.496 10.496h-31.488v10.496h31.488c2.7812 0 5.4531 1.1055 7.4219 3.0742s3.0742 4.6367 3.0742 7.4219v31.488c0 2.7812-1.1055 5.4531-3.0742 7.4219s-4.6406 3.0742-7.4219 3.0742h-10.496c0 5.7969-4.6992 10.496-10.496 10.496-5.7969 0-10.496-4.6992-10.496-10.496z"/>
  <path d="m420.99 305.54h52.48v90.16l-13.539-13.645h-0.003906c-4.1133-4.1172-10.789-4.1172-14.902 0-4.1172 4.1172-4.1172 10.789 0 14.902l31.488 31.488c1.9688 1.9883 4.6523 3.1055 7.4492 3.1055 2.8008 0 5.4844-1.1172 7.4531-3.1055l31.488-31.488c4.1172-4.1133 4.1172-10.785 0-14.902-4.1133-4.1172-10.789-4.1172-14.902 0l-13.543 13.645v-100.66c0-2.7852-1.1055-5.4531-3.0742-7.4219-1.9648-1.9688-4.6367-3.0742-7.4219-3.0742h-62.973c-5.7969 0-10.496 4.6992-10.496 10.496 0 5.7969 4.6992 10.496 10.496 10.496z"/>
  <path d="m358.02 515.45h-52.48v-69.168l13.539 13.645c4.1172 4.1172 10.789 4.1172 14.902 0 4.1172-4.1133 4.1172-10.789 0-14.902l-31.488-31.488h0.003907c-1.9727-1.9883-4.6562-3.1055-7.4531-3.1055-2.8008 0-5.4805 1.1172-7.4531 3.1055l-31.488 31.488c-4.1172 4.1133-4.1172 10.789 0 14.902 4.1172 4.1172 10.789 4.1172 14.906 0l13.539-13.645v79.664c0 2.7852 1.1055 5.457 3.0742 7.4219 1.9688 1.9688 4.6367 3.0742 7.4219 3.0742h62.977c5.7969 0 10.496-4.6992 10.496-10.496s-4.6992-10.496-10.496-10.496z"/>
  <path d="m515.45 452.48h-62.973c-4.5156-0.011719-8.5273 2.8594-9.9727 7.1367l-20.992 41.984c-1.0547 3.1992-0.50781 6.7148 1.4688 9.4453 1.9609 2.75 5.125 4.3906 8.5039 4.4062h104.96c3.3789-0.015625 6.543-1.6562 8.5039-4.4062 1.9766-2.7305 2.5234-6.2461 1.4688-9.4453l-20.992-41.984c-1.4453-4.2773-5.457-7.1484-9.9727-7.1367z"/>
  <path d="m599.42 585.57-20.992-41.984v0.003907c-1.5-4.4648-5.7891-7.3828-10.496-7.1406h-62.977c-4.7031-0.24219-8.9922 2.6758-10.496 7.1406l-10.496 22.148-10.492-22.148c-1.5039-4.4648-5.793-7.3828-10.496-7.1406h-62.977c-4.5156-0.011718-8.5273 2.8633-9.9727 7.1406l-20.992 41.984v-0.003906c-1.0547 3.2031-0.50781 6.7188 1.4688 9.4492 1.9609 2.75 5.125 4.3906 8.5039 4.4062h209.92c3.3789-0.015625 6.543-1.6562 8.5039-4.4062 2.1602-2.6406 2.9023-6.1602 1.9922-9.4492z"/>
 </g>
</svg>