<?xml version="1.0" encoding="UTF-8"?>
<!-- The Best Svg Icon site in the world: iconSvg.co, Visit us! https://iconsvg.co -->
<svg fill="#000000" width="800px" height="800px" version="1.1" viewBox="144 144 512 512" xmlns="http://www.w3.org/2000/svg">
 <g>
  <path d="m392.12 423.61h15.746c2.0859 0 4.0898 0.83203 5.5664 2.3086s2.3047 3.4766 2.3047 5.5664c0 4.3477 3.5234 7.8711 7.8711 7.8711 4.3477 0 7.875-3.5234 7.875-7.8711 0-6.2656-2.4883-12.273-6.918-16.699-4.4297-4.4297-10.438-6.918-16.699-6.918v-7.8711c0-4.3477-3.5234-7.875-7.8711-7.875s-7.875 3.5273-7.875 7.875v7.8711c-8.4375 0-16.23 4.5-20.449 11.809-4.2188 7.3047-4.2188 16.309 0 23.613 4.2188 7.3086 12.012 11.809 20.449 11.809h15.746c4.3477 0 7.8711 3.5273 7.8711 7.875 0 4.3477-3.5234 7.8711-7.8711 7.8711h-15.746c-4.3477 0-7.8711-3.5234-7.8711-7.8711 0-4.3477-3.5234-7.875-7.8711-7.875-4.3477 0-7.8711 3.5273-7.8711 7.875 0 6.2617 2.4883 12.27 6.9141 16.695 4.4297 4.4297 10.438 6.918 16.699 6.918v7.8711c0 4.3477 3.5273 7.875 7.875 7.875s7.8711-3.5273 7.8711-7.875v-7.8711c8.4375 0 16.234-4.5 20.453-11.809 4.2188-7.3047 4.2188-16.309 0-23.613-4.2188-7.3086-12.016-11.809-20.453-11.809h-15.746c-4.3477 0-7.8711-3.5234-7.8711-7.8711 0-4.3477 3.5234-7.875 7.8711-7.875z"/>
  <path d="m321.28 423.61h15.746c2.0859 0 4.0898 0.83203 5.5664 2.3086 1.4766 1.4766 2.3047 3.4766 2.3047 5.5664 0 4.3477 3.5234 7.8711 7.8711 7.8711s7.8711-3.5234 7.8711-7.8711c0-6.2656-2.4883-12.273-6.9141-16.699-4.4297-4.4297-10.438-6.918-16.699-6.918v-7.8711c0-4.3477-3.5273-7.875-7.875-7.875-4.3477 0-7.8711 3.5273-7.8711 7.875v7.8711c-8.4375 0-16.234 4.5-20.453 11.809-4.2148 7.3047-4.2148 16.309 0 23.613 4.2188 7.3086 12.016 11.809 20.453 11.809h15.746c4.3477 0 7.8711 3.5273 7.8711 7.875 0 4.3477-3.5234 7.8711-7.8711 7.8711h-15.746c-4.3477 0-7.8711-3.5234-7.8711-7.8711 0-4.3477-3.5234-7.875-7.8711-7.875s-7.8711 3.5273-7.8711 7.875c0 6.2617 2.4844 12.27 6.9141 16.695 4.4297 4.4297 10.438 6.918 16.699 6.918v7.8711c0 4.3477 3.5234 7.875 7.8711 7.875 4.3477 0 7.875-3.5273 7.875-7.875v-7.8711c8.4375 0 16.23-4.5 20.449-11.809 4.2188-7.3047 4.2188-16.309 0-23.613-4.2188-7.3086-12.012-11.809-20.449-11.809h-15.746c-4.3477 0-7.8711-3.5234-7.8711-7.8711 0-4.3477 3.5234-7.875 7.8711-7.875z"/>
  <path d="m502.34 462.98c0-6.2656-2.4883-12.273-6.918-16.699-4.4297-4.4297-10.438-6.918-16.699-6.918h-15.742c-4.3477 0-7.875-3.5234-7.875-7.8711 0-4.3477 3.5273-7.875 7.875-7.875h15.742c2.0859 0 4.0898 0.83203 5.5664 2.3086 1.4766 1.4766 2.3047 3.4766 2.3047 5.5664 0 4.3477 3.5234 7.8711 7.8711 7.8711 4.3477 0 7.875-3.5234 7.875-7.8711 0-6.2656-2.4883-12.273-6.918-16.699-4.4297-4.4297-10.438-6.918-16.699-6.918v-7.8711c0-4.3477-3.5234-7.875-7.8711-7.875s-7.8711 3.5273-7.8711 7.875v7.8711c-8.4375 0-16.234 4.5-20.453 11.809-4.2188 7.3047-4.2188 16.309 0 23.613 4.2188 7.3086 12.016 11.809 20.453 11.809h15.742c4.3477 0 7.8711 3.5273 7.8711 7.875 0 4.3477-3.5234 7.8711-7.8711 7.8711h-15.742c-4.3477 0-7.875-3.5234-7.875-7.8711 0-4.3477-3.5234-7.875-7.8711-7.875-4.3477 0-7.8711 3.5273-7.8711 7.875 0 6.2617 2.4883 12.27 6.918 16.695 4.4258 4.4297 10.434 6.918 16.699 6.918v7.8711c0 4.3477 3.5234 7.875 7.8711 7.875s7.8711-3.5273 7.8711-7.875v-7.8711c6.2617 0 12.27-2.4883 16.699-6.918 4.4297-4.4258 6.918-10.434 6.918-16.695z"/>
  <path d="m531.75 291.18-127.03-87.703c-2.6914-1.8555-6.2539-1.8555-8.9453 0l-127.3 87.695c-2.8438 1.9531-4.082 5.5312-3.0547 8.8281 1.0234 3.293 4.0742 5.5352 7.5273 5.5312h254.33c3.4453 0.003906 6.4961-2.2383 7.5234-5.5273 1.0273-3.2891-0.20703-6.8672-3.043-8.8242zm-233.5-1.3945 102.02-70.266 101.75 70.266z"/>
  <path d="m628.29 588.93h-7.875v-23.613c0-2.0898-0.82812-4.0898-2.3047-5.5664-1.4766-1.4766-3.4766-2.3086-5.5664-2.3086h-7.8711v-23.613c0-2.0898-0.83203-4.0898-2.3047-5.5664-1.4766-1.4766-3.4805-2.3086-5.5664-2.3086h-7.875v-23.613c0-2.0898-0.82812-4.0898-2.3047-5.5664-1.4766-1.4766-3.4766-2.3086-5.5664-2.3086h-7.8711v-94.461h7.8711c2.0898 0 4.0898-0.83203 5.5664-2.3086 1.4766-1.4766 2.3047-3.4766 2.3047-5.5664v-23.613h23.617c2.0898 0 4.0898-0.83203 5.5664-2.3086s2.3047-3.4766 2.3047-5.5664v-23.613h7.875c3.4336-0.007813 6.4648-2.2422 7.4922-5.5195s-0.19141-6.8438-3.0078-8.8086l-227.97-157.44c-2.6914-1.8906-6.2812-1.8906-8.9727 0l-228.61 157.44c-2.8164 1.9648-4.0312 5.5312-3.0078 8.8086 1.0273 3.2773 4.0625 5.5117 7.4961 5.5195h7.8711v23.617-0.003906c0 2.0898 0.82812 4.0898 2.3047 5.5664 1.4766 1.4766 3.4805 2.3086 5.5664 2.3086h23.617v23.617-0.003906c0 2.0898 0.82813 4.0898 2.3047 5.5664 1.4766 1.4766 3.4805 2.3086 5.5664 2.3086h7.8711v94.461h-7.8711c-4.3477 0-7.8711 3.5273-7.8711 7.875v23.617l-7.8711-0.003906c-4.3477 0-7.875 3.5273-7.875 7.875v23.617l-7.8711-0.003906c-4.3477 0-7.8711 3.5273-7.8711 7.875v23.617l-7.8711-0.003907c-4.3477 0-7.875 3.5273-7.875 7.875v31.488c0 2.0859 0.83203 4.0898 2.3086 5.5664 1.4766 1.4727 3.4766 2.3047 5.5664 2.3047h456.58c2.0859 0 4.0898-0.83203 5.5664-2.3047 1.4727-1.4766 2.3047-3.4805 2.3047-5.5664v-31.488c0-2.0898-0.83203-4.0898-2.3047-5.5664-1.4766-1.4766-3.4805-2.3086-5.5664-2.3086zm-55.105-204.67h-62.977v-15.742h62.977zm-275.52 110.21h-7.875v-94.461h7.875c2.0859 0 4.0898-0.83203 5.5664-2.3086 1.4727-1.4766 2.3047-3.4766 2.3047-5.5664v-23.613h188.93v23.617-0.003906c0 2.0898 0.83203 4.0898 2.3086 5.5664 1.4766 1.4766 3.4766 2.3086 5.5664 2.3086h7.8711v94.461h-7.8711c-4.3477 0-7.875 3.5273-7.875 7.875v23.617l-188.93-0.003906v-23.613c0-2.0898-0.83203-4.0898-2.3047-5.5664-1.4766-1.4766-3.4805-2.3086-5.5664-2.3086zm-70.852-110.21v-15.742h62.977v15.742zm47.23 15.742 0.003906 94.465h-31.488v-94.461zm236.16 110.21h62.977v15.742h-62.977zm15.742-15.742v-94.465h31.488v94.461zm-125.64-313.23 202.71 140.04h-406.04zm-204.99 171.53v-15.742h409.35v15.742zm31.488 157.44h62.977v15.742h-62.977zm-15.742 31.488h377.86v15.742h-377.86zm-15.746 31.488h409.35v15.742h-409.35zm425.09 47.23h-440.83v-15.742h440.83z"/>
  <path d="m376.38 258.3c0 6.2656 2.4883 12.273 6.918 16.699 4.4258 4.4297 10.434 6.918 16.699 6.918 6.2617 0 12.27-2.4883 16.699-6.918 4.4258-4.4258 6.9141-10.434 6.9141-16.699 0-6.2617-2.4883-12.27-6.9141-16.699-4.4297-4.4258-10.438-6.9141-16.699-6.9141-6.2656 0-12.273 2.4883-16.699 6.9141-4.4297 4.4297-6.918 10.438-6.918 16.699zm31.488 0c0 3.1836-1.918 6.0547-4.8594 7.2734-2.9414 1.2188-6.3281 0.54688-8.5781-1.707-2.2539-2.25-2.9258-5.6367-1.707-8.5781 1.2188-2.9414 4.0898-4.8594 7.2734-4.8594 2.0859 0 4.0898 0.82812 5.5664 2.3047 1.4766 1.4766 2.3047 3.4805 2.3047 5.5664z"/>
 </g>
</svg>