<?xml version="1.0" encoding="UTF-8"?>
<!-- The Best Svg Icon site in the world: iconSvg.co, Visit us! https://iconsvg.co -->
<svg fill="#000000" width="800px" height="800px" version="1.1" viewBox="144 144 512 512" xmlns="http://www.w3.org/2000/svg">
 <g>
  <path d="m628.29 304.14h-456.58c-4.3477 0-7.8711 3.5234-7.8711 7.8711v299.14c0 4.3516 3.5234 7.8711 7.8711 7.8711h409.34c4.3477 0 7.8711-3.5195 7.8711-7.8711 0-4.3516-3.5234-7.8711-7.8711-7.8711h-401.47v-164.8c13.805-4.9922 25.145-15.98 30.375-29.809 1.082-2.8672 1.9102-5.8633 2.7227-8.8516 1.3203-4.8672 2.5703-9.4609 5.0664-12.664 3.75-4.8242 10.691-7.1094 18.043-9.5312 3.3203-1.0898 6.6367-2.1953 9.7812-3.5117 12.285-5.1562 22.98-14.594 30.121-26.574 2.2227-3.7344 1-8.5664-2.7383-10.793-3.7461-2.2148-8.5625-0.99609-10.793 2.7383-5.4219 9.1094-13.48 16.25-22.684 20.113-2.7656 1.1602-5.6914 2.1133-8.6133 3.0781-8.8359 2.9102-18.855 6.207-25.547 14.816-4.4336 5.6953-6.2383 12.34-7.8281 18.199-0.67969 2.5039-1.3516 5.0156-2.2617 7.4141-2.8516 7.5469-8.6016 13.957-15.645 17.996v-101.21h440.83v291.27c0 4.3516 3.5234 7.8711 7.8711 7.8711s7.8711-3.5195 7.8711-7.8711v-299.14c0.003906-4.3477-3.5234-7.8711-7.8672-7.8711z"/>
  <path d="m234.7 280.52c1.1797 0 2.3828-0.26563 3.5117-0.83203l59.457-29.727 27.969 13.984c2.2148 1.1055 4.8281 1.1055 7.043 0l58.625-29.312 27.594 20.695c2.1523 1.6094 4.9648 2.0078 7.4883 1.0781l114.34-42.879-6.1992 13.73c-1.7891 3.9648-0.023438 8.625 3.9375 10.418 1.0547 0.47266 2.1523 0.69922 3.2383 0.69922 3-0.003906 5.8672-1.7266 7.1797-4.6367l12.953-28.699c1.7891-3.9648 0.023438-8.625-3.9375-10.418l-28.699-12.953c-3.9688-1.7852-8.6211-0.027344-10.418 3.9375-1.7891 3.9648-0.023438 8.625 3.9375 10.418l9.0039 4.0625-106.83 40.059-28.035-21.023c-2.3906-1.793-5.582-2.082-8.2461-0.74609l-59.457 29.727-27.969-13.984c-2.2148-1.1055-4.8281-1.1055-7.043 0l-62.977 31.488c-3.8906 1.9453-5.4648 6.6719-3.5195 10.562 1.3828 2.7617 4.1641 4.3516 7.0547 4.3516z"/>
  <path d="m524.8 420.98c-3.6367-28.117-29.93-31.094-45.641-32.871-16.355-1.8516-29.465-11.059-43.352-20.805-18-12.645-36.648-25.715-63.027-22.832-28.473 3.1055-33.797 27.109-38.082 46.395-2.5391 11.438-4.9375 22.242-11.113 28.379-6.5547 6.5117-14.426 11.523-22.758 16.82-8.0508 5.1289-16.383 10.426-23.773 17.352-14.527 13.598-21.609 32.801-18.953 51.375 1.7227 12.055 7.4336 23.016 16.508 31.695 18.656 17.844 44.074 28.004 69.316 28.004 2.707 0 5.4062-0.11719 8.0977-0.35547 34.668-3.0352 50.238-29.996 60.898-55.965 3.1875-7.7734 7.2734-16.43 13.402-21.762 4.1367-3.582 10.02-3.3203 19.223-2.4766 2.793 0.26172 5.543 0.50781 8.1719 0.57031 21.328 0.4375 44.68-9.5 58.445-24.809 10.094-11.23 14.465-24.613 12.637-38.715zm-24.344 28.191c-11.926 13.277-32.199 20.027-46.375 19.586-2.2773-0.046874-4.6562-0.27734-7.0703-0.5-9.582-0.875-21.5-1.9922-31.016 6.2734-8.6133 7.4883-13.75 18.188-17.641 27.66-9.3008 22.672-21.52 43.965-47.703 46.262-23.363 2.082-47.723-6.6797-65.156-23.348-6.5039-6.2188-10.586-14.016-11.809-22.547-1.9297-13.492 3.3555-27.566 14.133-37.66 6.3242-5.918 13.676-10.594 21.461-15.551 8.6758-5.5117 17.645-11.223 25.41-18.941 9.4453-9.3867 12.461-22.977 15.383-36.129 4.5742-20.609 7.9648-32.359 24.414-34.156 20.496-2.2539 35.941 8.5938 52.273 20.062 14.883 10.453 30.277 21.262 50.621 23.566 20.566 2.3281 30.043 5.6562 31.801 19.242 1.2383 9.5508-1.6992 18.355-8.7266 26.18z"/>
  <path d="m511.08 579.44c4.8867 2.6914 9.8906 3.8047 14.852 3.8047 17 0 33.551-13.094 43.48-20.949 18.609-14.707 28.102-30.289 29.02-47.633 0.28906-5.3906-0.36328-9.9102-2.0039-13.836-3.4531-8.25-8.6719-10.945-12.445-11.754-6.1211-1.3359-12.711 1.2383-19.523 7.6016-2.4844 2.3203-4.0508 5.1523-5.4336 7.6406-0.78516 1.4141-2.0898 3.7734-3.1797 4.2578-1.0508-0.19141-3.7344-3.4766-4.6211-4.5586h-0.003906c-9.1523-11.172-21.777-14.582-34.621-9.4258-18.887 7.5938-30.398 27.414-27.996 48.199 1.3828 11.969 8.1016 28.75 22.477 36.652zm11.402-70.242c2.0742-0.83984 4.0078-1.2617 5.832-1.2617 3.9492 0 7.3906 1.9844 10.734 6.0586 3.5703 4.3594 10.984 13.445 22.57 9.2773 6.1211-2.1992 9.0391-7.4648 11.176-11.316 0.82031-1.4766 1.75-3.1523 2.4219-3.7812 3.3242-3.1133 5.1406-3.6055 5.2109-3.7734 0.19141 0.17578 0.76953 0.81641 1.4727 2.4922 0.70312 1.6914 0.96875 3.9609 0.8125 6.9336-0.67578 12.738-8.0039 24.215-23.066 36.125-9.9648 7.8867-28.516 22.547-40.977 15.699-8.5352-4.6953-13.395-15.773-14.426-24.668-1.5898-13.758 5.9102-26.824 18.238-31.785z"/>
 </g>
</svg>