<?xml version="1.0" encoding="UTF-8"?>
<!-- The Best Svg Icon site in the world: iconSvg.co, Visit us! https://iconsvg.co -->
<svg fill="#000000" width="800px" height="800px" version="1.1" viewBox="144 144 512 512" xmlns="http://www.w3.org/2000/svg">
 <g>
  <path d="m557.04 534.81 27.531-163.34-90.188-0.003906c-2.8867 31.688-21.48 59.812-49.504 74.879-28.023 15.07-61.738 15.07-89.762 0-28.023-15.066-46.617-43.191-49.504-74.879h-90.184l27.527 163.35z"/>
  <path d="m400 446.08c22.004 0 43.105-8.7422 58.668-24.301 15.559-15.562 24.301-36.664 24.301-58.672 0-22.004-8.7422-43.105-24.301-58.668-15.562-15.559-36.664-24.301-58.668-24.301-22.008 0-43.109 8.7422-58.672 24.301-15.559 15.562-24.301 36.664-24.301 58.668 0.027344 22 8.7734 43.09 24.328 58.645 15.555 15.555 36.645 24.301 58.645 24.328zm0-74.125c-9.6289 0-18.625-4.7891-24-12.777-5.3711-7.9883-6.418-18.129-2.7891-27.047 3.6289-8.918 11.457-15.441 20.883-17.406v-7.3047c0-3.2617 2.6445-5.9062 5.9062-5.9062 3.2578 0 5.9023 2.6445 5.9023 5.9062v7.3047c6.5 1.3633 12.336 4.9219 16.527 10.074 4.1875 5.1562 6.4805 11.594 6.4883 18.238 0 3.2578-2.6406 5.9023-5.9023 5.9023s-5.9062-2.6445-5.9062-5.9023c0.003906-4.5391-1.8008-8.8945-5.0078-12.105-3.207-3.207-7.5625-5.0117-12.102-5.0117s-8.8906 1.8008-12.102 5.0078c-3.207 3.2109-5.0117 7.5625-5.0117 12.102s1.8008 8.8945 5.0117 12.102c3.207 3.2109 7.5625 5.0117 12.102 5.0117 9.8594 0.003907 19.039 5.0312 24.355 13.336 5.3125 8.3086 6.0273 18.75 1.8945 27.703-4.1367 8.9531-12.547 15.184-22.316 16.527v7.7852c0 3.2617-2.6406 5.9062-5.9023 5.9062s-5.9062-2.6445-5.9062-5.9062v-8.6094c-6.0547-1.7188-11.383-5.3672-15.18-10.387-3.8008-5.0195-5.8594-11.141-5.8672-17.434 0-3.2617 2.6445-5.9062 5.9023-5.9062 3.2617 0 5.9062 2.6445 5.9062 5.9062 0 4.5391 1.8008 8.8906 5.0117 12.102 3.207 3.207 7.5586 5.0117 12.098 5.0117 4.5391 0 8.8945-1.8008 12.102-5.0117 3.2109-3.207 5.0117-7.5625 5.0117-12.102 0.003906-4.5391-1.8008-8.8906-5.0117-12.098-3.207-3.2109-7.5586-5.0156-12.098-5.0156z"/>
  <path d="m539.73 600.82c0 11.957-9.6914 21.648-21.648 21.648s-21.648-9.6914-21.648-21.648c0-11.957 9.6914-21.648 21.648-21.648s21.648 9.6914 21.648 21.648"/>
  <path d="m303.57 600.82c0 11.957-9.6914 21.648-21.648 21.648s-21.648-9.6914-21.648-21.648c0-11.957 9.6914-21.648 21.648-21.648s21.648 9.6914 21.648 21.648"/>
  <path d="m214.02 546.61h371.95v17.711h-371.95z"/>
  <path d="m400 223.78c3.2578 0 5.9023-2.6445 5.9023-5.9062v-34.441 0.003906c0-3.2617-2.6445-5.9062-5.9023-5.9062-3.2617 0-5.9062 2.6445-5.9062 5.9062v34.441-0.003906c0 3.2617 2.6445 5.9062 5.9062 5.9062z"/>
  <path d="m517.47 275.54c1.5625 0 3.0664-0.62109 4.1719-1.7305l24.738-24.738c2.3047-2.3047 2.3047-6.043 0-8.3477-2.3047-2.3086-6.043-2.3086-8.3516 0l-24.738 24.738h0.003907c-1.6875 1.6875-2.1953 4.2266-1.2812 6.4336 0.91406 2.207 3.0664 3.6445 5.457 3.6445z"/>
  <path d="m277.86 274.22c2.3047 2.3047 6.043 2.3047 8.3477 0 2.3086-2.3047 2.3086-6.043 0.003906-8.3516l-24.738-24.738c-2.3047-2.3047-6.043-2.3047-8.3516 0-2.3047 2.3086-2.3047 6.0469 0 8.3516z"/>
  <path d="m326.12 238.36c0.62891 1.4492 1.8086 2.5859 3.2812 3.1562 1.4727 0.57422 3.1133 0.53125 4.5547-0.11719 1.4414-0.64453 2.5625-1.8438 3.1133-3.3242 0.55469-1.4805 0.48828-3.1172-0.17578-4.5508l-14.324-31.918c-1.3359-2.9727-4.832-4.3008-7.8047-2.9648-2.9766 1.3359-4.3047 4.8281-2.9688 7.8047z"/>
  <path d="m456.54 237.76c1.4609 0.55859 3.0859 0.51172 4.5156-0.13281 1.4297-0.64062 2.543-1.8242 3.1016-3.2891l12.441-32.699v0.003906c0.57031-1.4648 0.53125-3.1016-0.10937-4.5391-0.63672-1.4375-1.8242-2.5586-3.293-3.1211-1.4727-0.55859-3.1055-0.50781-4.5391 0.14062-1.4336 0.64844-2.5469 1.8438-3.0938 3.3203l-12.441 32.699h-0.003906c-1.1562 3.0469 0.37109 6.457 3.4219 7.6172z"/>
 </g>
</svg>