<?xml version="1.0" encoding="UTF-8"?>
<!-- The Best Svg Icon site in the world: iconSvg.co, Visit us! https://iconsvg.co -->
<svg fill="#000000" width="800px" height="800px" version="1.1" viewBox="144 144 512 512" xmlns="http://www.w3.org/2000/svg">
 <g>
  <path d="m211.84 383.81c-0.14844-1.2422-0.22656-2.5078-0.22656-3.793 0-17.062 13.883-30.941 30.941-30.941 17.062 0 30.941 13.887 30.941 30.941 0.003906 17.055-13.875 30.949-30.938 30.949-2.8984 0-5.2461 2.3477-5.2461 5.2461 0 2.9023 2.3516 5.2461 5.2461 5.2461 22.852 0 41.438-18.59 41.438-41.438 0-22.848-18.59-41.441-41.438-41.441-22.852 0-41.438 18.59-41.438 41.438 0 1.707 0.10547 3.3906 0.30469 5.043 0.34766 2.8828 2.9688 4.9492 5.8359 4.5859 2.875-0.34375 4.9258-2.957 4.5781-5.8359z"/>
  <path d="m228.98 407.83c-5.5586-2.7188-10.129-6.9844-13.23-12.344-1.4531-2.5156-4.6641-3.3711-7.1758-1.9102-2.5078 1.4492-3.3633 4.6602-1.9141 7.168 4.1523 7.168 10.27 12.879 17.707 16.512 0.74609 0.36328 1.5312 0.53516 2.2969 0.53516 1.9414 0 3.8086-1.082 4.7188-2.9453 1.2812-2.5977 0.19922-5.7461-2.4023-7.0156z"/>
  <path d="m557.44 338.58c-22.852 0-41.438 18.59-41.438 41.438 0 1.707 0.10547 3.3906 0.30469 5.043 0.34766 2.875 2.9648 4.9336 5.8359 4.5859 2.8828-0.34766 4.9297-2.9609 4.5859-5.8359-0.14844-1.2422-0.23047-2.5078-0.23047-3.793 0-17.062 13.887-30.941 30.941-30.941s30.941 13.887 30.941 30.941c0.003906 17.055-13.879 30.949-30.941 30.949-2.9023 0-5.2461 2.3477-5.2461 5.2461 0 2.9023 2.3477 5.2461 5.2461 5.2461 22.852 0 41.438-18.59 41.438-41.438 0.003906-22.848-18.586-41.441-41.438-41.441z"/>
  <path d="m539.24 417.26c0.74609 0.36328 1.5273 0.53516 2.2969 0.53516 1.9414 0 3.8086-1.082 4.7188-2.9453 1.2695-2.6016 0.19531-5.75-2.4102-7.0234-5.5586-2.7188-10.133-6.9844-13.23-12.344-1.4531-2.5156-4.6562-3.3789-7.168-1.9102-2.5078 1.4492-3.3711 4.6602-1.9102 7.168 4.1484 7.1797 10.273 12.891 17.703 16.52z"/>
  <path d="m358.86 316.84c0.34766 2.8828 2.9922 4.9336 5.8359 4.5859 2.875-0.34766 4.9297-2.9609 4.5859-5.8359-0.14844-1.2422-0.22656-2.5078-0.22656-3.793 0-17.062 13.883-30.941 30.941-30.941 17.062 0 30.941 13.887 30.941 30.941 0.003906 17.055-13.883 30.945-30.941 30.945-2.8984 0-5.2461 2.3477-5.2461 5.2461 0 2.9023 2.3516 5.2461 5.2461 5.2461 22.852 0 41.438-18.59 41.438-41.438s-18.59-41.441-41.438-41.441c-22.852 0-41.438 18.59-41.438 41.438-0.003906 1.7148 0.10156 3.3906 0.30078 5.0469z"/>
  <path d="m373.19 327.27c-1.4531-2.5156-4.6602-3.3711-7.1758-1.9102-2.5078 1.4492-3.3633 4.6602-1.9141 7.168 4.1523 7.168 10.27 12.879 17.707 16.512 0.74609 0.36328 1.5312 0.53516 2.2969 0.53516 1.9414 0 3.8086-1.082 4.7188-2.9453 1.2734-2.6016 0.19531-5.75-2.4102-7.0234-5.5469-2.7109-10.121-6.9805-13.223-12.336z"/>
  <path d="m464.41 221.71c2.8828-0.34766 4.9297-2.9609 4.5859-5.8359-0.14844-1.2422-0.23047-2.5078-0.23047-3.793 0-17.062 13.887-30.941 30.941-30.941s30.941 13.887 30.941 30.941c0.003907 17.055-13.871 30.945-30.934 30.945-2.9023 0-5.2461 2.3477-5.2461 5.2461 0 2.9023 2.3477 5.2461 5.2461 5.2461 22.852 0 41.438-18.59 41.438-41.438 0-22.848-18.586-41.441-41.438-41.441-22.852 0-41.438 18.59-41.438 41.438 0 1.707 0.10547 3.3906 0.30469 5.043 0.34375 2.8789 2.9414 4.9609 5.8281 4.5898z"/>
  <path d="m472.9 227.55c-1.4531-2.5078-4.6562-3.3789-7.168-1.9102-2.5078 1.4492-3.3711 4.6602-1.9102 7.168 4.1445 7.168 10.27 12.879 17.703 16.512 0.74609 0.36328 1.5273 0.53516 2.2969 0.53516 1.9414 0 3.8086-1.082 4.7188-2.9453 1.2695-2.6016 0.19531-5.75-2.4102-7.0234-5.5508-2.7109-10.133-6.9844-13.23-12.336z"/>
  <path d="m264.98 221.71c2.875-0.34766 4.9297-2.9609 4.5859-5.8359-0.14844-1.2422-0.22656-2.5078-0.22656-3.793 0-17.062 13.883-30.941 30.941-30.941 17.062 0 30.941 13.887 30.941 30.941 0 17.055-13.879 30.945-30.941 30.945-2.8984 0-5.2461 2.3477-5.2461 5.2461 0 2.9023 2.3516 5.2461 5.2461 5.2461 22.852 0 41.438-18.59 41.438-41.438 0-22.848-18.586-41.441-41.438-41.441-22.852 0-41.438 18.59-41.438 41.438 0 1.707 0.10547 3.3906 0.30469 5.043 0.34766 2.8828 2.9648 4.9453 5.832 4.5898z"/>
  <path d="m273.47 227.55c-1.4492-2.5078-4.6641-3.375-7.1758-1.9102-2.5078 1.4492-3.3633 4.6602-1.9141 7.168 4.1523 7.168 10.27 12.879 17.707 16.512 0.74609 0.36328 1.5312 0.53516 2.2969 0.53516 1.9414 0 3.8086-1.082 4.7188-2.9453 1.2734-2.6016 0.19531-5.75-2.4102-7.0234-5.543-2.7109-10.121-6.9844-13.223-12.336z"/>
  <path d="m400 448.73c-40.41 0-73.289 32.879-73.289 73.289 0 9.3789 1.7422 18.5 5.1797 27.117 1.0742 2.6914 4.1211 4.0156 6.8164 2.9336 2.6914-1.0703 4.0039-4.125 2.9297-6.8164-2.9453-7.375-4.4336-15.191-4.4336-23.234 0-34.625 28.168-62.793 62.793-62.793s62.793 28.168 62.793 62.793c-0.003906 34.625-28.164 62.793-62.789 62.793-3.4102 0-6.7852-0.26953-10.035-0.79297-2.8828-0.47656-5.5586 1.4805-6.0195 4.3398-0.46094 2.8594 1.4805 5.5586 4.3398 6.0195 3.8047 0.61328 7.7461 0.92969 11.715 0.92969 40.41 0 73.289-32.879 73.289-73.289-0.003906-40.41-32.879-73.289-73.289-73.289z"/>
  <path d="m373.93 579.16c-6.8281-3.1211-12.992-7.4062-18.324-12.73-2.6133-2.6172-4.9844-5.4414-7.0547-8.3984-1.6602-2.3672-4.9375-2.9492-7.3086-1.2852-2.3789 1.6641-2.9492 4.9375-1.2852 7.3164 2.4141 3.4414 5.1797 6.7344 8.2227 9.7812 6.2227 6.2188 13.418 11.219 21.379 14.855 0.70703 0.32422 1.4492 0.47656 2.1836 0.47656 1.9883 0 3.8945-1.1406 4.7773-3.0664 1.207-2.6328 0.046875-5.7461-2.5898-6.9492z"/>
  <path d="m398.95 550.3c-7.6875 0-13.137-2.7773-18.477-5.668l-4.7695 7.1602c5.5508 4.1641 13.801 6.5117 19.047 7.0508v9.0938h10.496v-9.2031c10.496-1.6016 18.215-10.895 18.215-22.004 0-28.523-36.238-17.301-36.238-34.402 0-5.9766 2.0195-11.43 12.492-11.43 4.7031 0 10.242 1.2812 16.121 5.1328l4.9141-6.8398c-4.8125-3.6289-10.254-5.875-15.504-6.5117v-9.2031h-10.496v9.2031c-10.496 1.0664-17.449 8.1172-17.449 19.766 0 26.598 36.09 12.176 36.09 35.035 0 7.1523-3.332 12.82-14.441 12.82z"/>
  <path d="m332.68 248.71c-2.0508 2.0508-2.0508 5.3672 0 7.4219l22.262 22.266c1.0234 1.0234 2.3672 1.5391 3.7109 1.5391s2.6875-0.51562 3.7109-1.5391c2.0508-2.0508 2.0508-5.3672 0-7.4219l-22.262-22.266c-2.0508-2.0508-5.375-2.0508-7.4219 0z"/>
  <path d="m441.34 279.93c1.3438 0 2.6875-0.51563 3.7109-1.5391l22.266-22.262c2.0508-2.0508 2.0508-5.3672 0-7.4219-2.0508-2.0508-5.3672-2.0508-7.4219 0l-22.266 22.262c-2.0508 2.0508-2.0508 5.3672 0 7.4219 1.0234 1.0234 2.3672 1.5391 3.7109 1.5391z"/>
  <path d="m557.44 431.49c-2.9023 0-5.2461 2.3477-5.2461 5.2461v73.473c0 29.191-21.586 53.352-49.547 57.371 6.2188-13.945 9.7422-29.336 9.7422-45.562 0-60.195-47.609-109.35-107.14-112.11l-0.003906-41.391c0-2.9023-2.3516-5.2461-5.2461-5.2461-2.8984 0-5.2461 2.3477-5.2461 5.2461v41.391c-59.527 2.7656-107.14 51.918-107.14 112.11 0 16.227 3.5273 31.613 9.7422 45.562-27.965-4.0195-49.551-28.184-49.551-57.371v-73.473c0-2.9023-2.3516-5.2461-5.2461-5.2461-2.8984 0-5.2461 2.3477-5.2461 5.2461v73.473c0 36.941 29.277 67.062 65.742 68.387 19.523 33.324 55.617 55.812 96.945 55.812s77.426-22.488 96.945-55.812c36.465-1.3242 65.742-31.445 65.742-68.387v-73.473c0-2.9023-2.3477-5.2461-5.25-5.2461zm-157.44 192.42c-56.184 0-101.89-45.711-101.89-101.89 0-56.18 45.703-101.89 101.89-101.89 56.18 0 101.89 45.703 101.89 101.89s-45.711 101.89-101.89 101.89z"/>
 </g>
</svg>