<?xml version="1.0" encoding="UTF-8"?>
<!-- The Best Svg Icon site in the world: iconSvg.co, Visit us! https://iconsvg.co -->
<svg fill="#000000" width="800px" height="800px" version="1.1" viewBox="144 144 512 512" xmlns="http://www.w3.org/2000/svg">
 <g>
  <path d="m466.29 274.18c12.758 4.6289 26.203 7.0938 39.773 7.2891 15.074 0.14844 29.879-3.9883 42.691-11.93 41.766-25.988 50.117-85.383 50.117-87.902 0.85156-6.7617-3.5625-13.07-10.211-14.582-47.461-10.875-84.188-5.7031-109.11 14.051-10.926 9.043-19.293 20.793-24.262 34.074-4.9023-13.32-13.281-25.082-24.262-34.074-24.66-19.754-61.254-24.926-108.72-14.051-6.6445 1.5117-11.059 7.8203-10.207 14.582 0 2.5195 8.2188 61.914 50.25 87.902h-0.003906c12.754 7.9648 27.523 12.105 42.559 11.93 11.859-0.20312 23.617-2.2148 34.871-5.9648v124.5h-53.031c-7.5508 0.019531-14.938 2.1875-21.297 6.2461-6.3633 4.0625-11.438 9.8516-14.633 16.688-13.676-6.3242-28.555-9.625-43.621-9.6758-32.109-0.10937-62.543 14.336-82.758 39.285-20.219 24.949-28.047 57.711-21.285 89.105 6.7578 31.391 27.375 58.031 56.066 72.445 28.695 14.418 62.375 15.062 91.598 1.7461 1.957 4.0547 4.5547 7.7734 7.6875 11.004 7.4648 7.543 17.629 11.793 28.242 11.801h132.58c10.551 0 20.668-4.1914 28.125-11.648 7.4609-7.4609 11.652-17.578 11.652-28.125-0.058594-9.8125-3.7422-19.258-10.344-26.516 6.5234-7.293 10.129-16.734 10.129-26.516 0-9.7852-3.6055-19.227-10.129-26.52 6.5234-7.2891 10.129-16.73 10.129-26.516 0-9.7812-3.6055-19.223-10.129-26.516 6.8477-7.6523 10.469-17.66 10.105-27.922-0.36328-10.262-4.6797-19.988-12.051-27.137-7.3672-7.1523-17.219-11.176-27.488-11.23h-53.031v-126.09zm8.8828-26.516c0.26953-17.852 8.0742-34.754 21.48-46.539 16.043-13.258 40.703-16.707 73.316-11.27-4.1094 15.91-14.055 43.621-35.398 56.746-18.32 9.832-40.16 10.613-59.133 2.1211 0 0 0.13281-0.66406 0.13281-1.3242zm-99.172 0c-18.352-14.023-30.977-34.238-35.531-56.879 32.613-5.4375 57.273-1.7227 73.449 11.27 13.051 11.73 20.68 28.328 21.082 45.871v1.7266c-18.895 8.1562-40.477 7.2266-58.602-2.5195zm152.73 235.99c2.5078 2.3789 3.9023 5.6953 3.8438 9.1484 0 3.5156-1.3945 6.8906-3.8828 9.375-2.4844 2.4883-5.8555 3.8828-9.375 3.8828h-106.99c-1.2422-9.1055-3.6484-18.02-7.1602-26.516h114.15c3.5625 0.050781 6.957 1.5312 9.4141 4.1094zm0 53.031v0.003906c2.5078 2.375 3.9023 5.6953 3.8438 9.1484 0 3.5156-1.3945 6.8867-3.8828 9.375-2.4844 2.4844-5.8555 3.8828-9.375 3.8828h-114.15c3.5117-8.4961 5.918-17.41 7.1602-26.52h106.99c3.5625 0.050781 6.957 1.5312 9.4141 4.1133zm-301.09-17.367c-0.003906-19.516 7.1641-38.352 20.145-52.926 12.984-14.57 30.867-23.863 50.254-26.109 19.387-2.2422 38.922 2.7188 54.891 13.938 7.3125 5.0391 13.684 11.32 18.824 18.562l0.79688 1.3242v0.003906c9.1797 13.289 14.094 29.059 14.094 45.207 0 16.152-4.9141 31.922-14.094 45.211l-0.79688 1.3242v0.003906c-5.1406 7.2422-11.512 13.523-18.824 18.559-15.969 11.223-35.504 16.184-54.891 13.938-19.387-2.2422-37.27-11.535-50.254-26.109-12.98-14.57-20.148-33.41-20.145-52.926zm291.68 92.809h-132.58c-3.5625-0.050781-6.957-1.5312-9.4141-4.1094-1.8242-1.8281-2.9883-4.2031-3.3164-6.7617 5.7227-4.6406 10.922-9.8828 15.512-15.645h129.8c3.5625 0.046875 6.957 1.5312 9.4141 4.1094 2.5078 2.375 3.9023 5.6953 3.8438 9.1484 0 3.5156-1.3945 6.8867-3.8828 9.375-2.4844 2.4844-5.8555 3.8828-9.375 3.8828zm9.4141-181.5h-0.003906c2.5078 2.375 3.9023 5.6953 3.8438 9.1484 0 3.5156-1.3945 6.8867-3.8828 9.375-2.4844 2.4844-5.8555 3.8828-9.375 3.8828h-129.8c-4.7539-5.7891-10.133-11.035-16.043-15.645 1.168-6.3789 6.7773-10.977 13.262-10.871h132.58c3.5625 0.046875 6.957 1.5312 9.4141 4.1094z"/>
  <path d="m300.56 492.8h33.145c7.3242 0 13.258-5.9336 13.258-13.258 0-7.3203-5.9336-13.258-13.258-13.258h-13.258c0-7.3203-5.9336-13.258-13.258-13.258-7.3203 0-13.258 5.9375-13.258 13.258v0.66406c-10.836 2.1992-19.863 9.6602-24.066 19.891-4.1992 10.227-3.0234 21.879 3.1406 31.059 6.1602 9.1836 16.496 14.688 27.555 14.676h13.258c3.6602 0 6.6289 2.9688 6.6289 6.6328 0 3.6602-2.9688 6.6289-6.6289 6.6289h-33.145c-7.3242 0-13.258 5.9336-13.258 13.258 0 7.3203 5.9336 13.258 13.258 13.258h13.258c0 7.3203 5.9375 13.258 13.258 13.258 7.3242 0 13.258-5.9375 13.258-13.258 11.844-1.1836 22.152-8.5977 27.047-19.445 4.8945-10.848 3.6328-23.48-3.3125-33.145-6.9492-9.6641-18.52-14.887-30.363-13.703h-13.258c-3.6602 0-6.6289-2.9648-6.6289-6.6289 0-3.6602 2.9688-6.6289 6.6289-6.6289z"/>
 </g>
</svg>