<?xml version="1.0" encoding="UTF-8"?>
<!-- The Best Svg Icon site in the world: iconSvg.co, Visit us! https://iconsvg.co -->
<svg fill="#000000" width="800px" height="800px" version="1.1" viewBox="144 144 512 512" xmlns="http://www.w3.org/2000/svg">
 <g>
  <path d="m606.1 522.49v-317.49c0.003906-1.1992-0.47266-2.3477-1.3164-3.1953-0.84375-0.84766-1.9922-1.3242-3.1914-1.3242h-403.65c-1.1953 0-2.3438 0.47656-3.1875 1.3242-0.84766 0.84766-1.3203 1.9961-1.3164 3.1953v390c-0.003906 1.1953 0.46875 2.3438 1.3164 3.1914 0.84375 0.84766 1.9922 1.3242 3.1875 1.3242h59.109c2.1641 0 4.0234-1.5352 4.4297-3.6602l12.793-66.914h251.4l12.793 66.914c0.40625 2.125 2.2617 3.6602 4.4258 3.6602h59.109c1.1992 0 2.3438-0.47656 3.1914-1.3242 0.84375-0.84766 1.3203-1.9961 1.3164-3.1914v-70.555c0.015625-0.67578-0.125-1.3477-0.41406-1.957zm-403.64-312.98h394.59v310.43h-394.59zm50.863 380.98-50.863 0.003907v-61.531h62.672zm293.35 0-11.809-61.531h62.672v61.531z"/>
  <path d="m562.23 249.78h-304.46c-2.4922 0.003906-4.5117 2.0234-4.5156 4.5156v57.477h-15.949c-2.4961 0-4.5195 2.0234-4.5195 4.5156 0 2.4961 2.0234 4.5156 4.5195 4.5156h15.949v87.844h-15.949c-1.2344-0.058594-2.4375 0.39062-3.332 1.2422-0.89062 0.85547-1.3984 2.0352-1.3984 3.2695s0.50781 2.4141 1.3984 3.2656c0.89453 0.85156 2.0977 1.3047 3.332 1.2461h15.949v57.477c0 1.1953 0.47656 2.3438 1.3242 3.1914s1.9961 1.3242 3.1914 1.3242h304.46c1.1992 0 2.3477-0.47656 3.1953-1.3242 0.84766-0.84766 1.3203-1.9961 1.3203-3.1914v-220.85c-0.003906-2.4922-2.0234-4.5117-4.5156-4.5156zm-4.5156 220.85-295.43-0.003906v-52.918h18.539-0.003906c1.2344 0.058593 2.4375-0.39063 3.332-1.2461 0.89062-0.85156 1.3984-2.0312 1.3984-3.2656s-0.50781-2.4141-1.3984-3.2695c-0.89453-0.85156-2.0977-1.3008-3.332-1.2422h-18.535v-87.883h18.539-0.003906c2.4961 0 4.5195-2.0195 4.5195-4.5156 0-2.4922-2.0234-4.5156-4.5195-4.5156h-18.535v-52.961h295.43z"/>
  <path d="m484.62 417.91c14.059 0 27.539-5.582 37.477-15.523 9.9414-9.9375 15.523-23.418 15.523-37.473 0-14.059-5.582-27.539-15.523-37.477-9.9375-9.9375-23.418-15.523-37.477-15.523-14.055 0-27.535 5.5859-37.473 15.523-9.9414 9.9375-15.523 23.418-15.523 37.477 0.015625 14.051 5.6055 27.52 15.539 37.457 9.9375 9.9375 23.406 15.523 37.457 15.539zm0-96.973c11.664-0.003906 22.852 4.6289 31.102 12.875s12.883 19.43 12.887 31.094c0 11.664-4.6328 22.852-12.879 31.098-8.2461 8.25-19.43 12.883-31.094 12.883-11.664 0.003907-22.852-4.6289-31.098-12.879-8.2461-8.2461-12.883-19.43-12.883-31.094 0.015625-11.66 4.6484-22.836 12.891-31.078 8.2422-8.2422 19.418-12.883 31.074-12.898z"/>
  <path d="m484.62 391.33c7.0078 0 13.73-2.7812 18.684-7.7383 4.9531-4.9531 7.7383-11.672 7.7383-18.68 0-7.0078-2.7852-13.727-7.7383-18.684-4.9531-4.9531-11.676-7.7383-18.684-7.7383-7.0039 0-13.727 2.7852-18.68 7.7383-4.957 4.957-7.7383 11.676-7.7383 18.684 0.003906 7.0039 2.7891 13.723 7.7422 18.676 4.9531 4.9531 11.672 7.7383 18.676 7.7422zm0-43.809v0.003907c4.6172-0.003907 9.043 1.8281 12.309 5.0898 3.2656 3.2617 5.0977 7.6875 5.1016 12.301 0 4.6172-1.832 9.043-5.0977 12.305-3.2617 3.2656-7.6875 5.0977-12.305 5.0977-4.6133 0-9.0391-1.8359-12.301-5.1016-3.2656-3.2617-5.0938-7.6914-5.0938-12.305 0.007813-4.6094 1.8438-9.0273 5.1016-12.289 3.2617-3.2578 7.6797-5.0898 12.285-5.0977z"/>
  <path d="m318.84 320.75 14.504 0.13672c2.4102-0.10937 4.3047-2.0977 4.3047-4.5117 0-2.4102-1.8945-4.3984-4.3047-4.5078l-14.516-0.14844c-2.4961 0-4.5156 2.0195-4.5156 4.5156 0 2.4961 2.0195 4.5156 4.5156 4.5156z"/>
  <path d="m357.14 320.75 14.504 0.13672c2.4102-0.097656 4.3203-2.0742 4.332-4.4844 0.015625-2.4141-1.8711-4.4102-4.2812-4.5352l-14.504-0.14844c-2.4961 0-4.5156 2.0195-4.5156 4.5156 0 2.4961 2.0195 4.5156 4.5156 4.5156z"/>
  <path d="m395.45 320.75 14.504 0.13672h0.050781-0.003906c2.4102-0.10937 4.3086-2.0977 4.3086-4.5117 0-2.4102-1.8984-4.3984-4.3086-4.5078l-14.504-0.14844h-0.050781 0.003906c-2.4961 0-4.5156 2.0195-4.5156 4.5156 0 2.4961 2.0195 4.5156 4.5156 4.5156z"/>
  <path d="m318.84 353.15 14.504 0.13672v0.003906c2.4102-0.11328 4.3047-2.1016 4.3047-4.5117 0-2.4141-1.8945-4.3984-4.3047-4.5117l-14.516-0.14844c-2.4961 0-4.5156 2.0234-4.5156 4.5156 0 2.4961 2.0195 4.5156 4.5156 4.5156z"/>
  <path d="m357.14 353.15 14.504 0.13672v0.003906c2.4102-0.10156 4.3203-2.0781 4.332-4.4883 0.015625-2.4141-1.8711-4.4102-4.2812-4.5352l-14.504-0.14844c-2.4961 0-4.5156 2.0234-4.5156 4.5156 0 2.4961 2.0195 4.5156 4.5156 4.5156z"/>
  <path d="m395.45 353.15 14.504 0.13672h0.050781l-0.003906 0.003906c2.4102-0.11328 4.3086-2.1016 4.3086-4.5117 0-2.4141-1.8984-4.3984-4.3086-4.5117l-14.504-0.14844h-0.050781 0.003906c-2.4961 0-4.5156 2.0234-4.5156 4.5156 0 2.4961 2.0195 4.5156 4.5156 4.5156z"/>
  <path d="m318.84 385.55 14.504 0.13672c2.4102-0.11328 4.3047-2.0977 4.3047-4.5117 0-2.4141-1.8945-4.3984-4.3047-4.5117l-14.516-0.13672c-2.4102 0.11328-4.3047 2.0977-4.3047 4.5117 0 2.4102 1.8945 4.3984 4.3047 4.5117z"/>
  <path d="m357.14 385.55 14.504 0.13672c2.4102-0.097656 4.3203-2.0742 4.332-4.4883 0.015625-2.4141-1.8711-4.4102-4.2812-4.5352l-14.504-0.13672c-2.4102 0.11328-4.3086 2.0977-4.3086 4.5117 0 2.4102 1.8984 4.3984 4.3086 4.5117z"/>
  <path d="m395.45 385.55 14.504 0.13672h0.050781-0.003906c2.4102-0.11328 4.3086-2.0977 4.3086-4.5117 0-2.4141-1.8984-4.3984-4.3086-4.5117l-14.504-0.13672h-0.050781 0.003906c-2.4102 0.11328-4.3047 2.0977-4.3047 4.5117 0 2.4102 1.8945 4.3984 4.3047 4.5117z"/>
  <path d="m318.84 417.96 14.504 0.14844c2.4922 0 4.5156-2.0234 4.5156-4.5195 0-2.4922-2.0234-4.5156-4.5156-4.5156l-14.516-0.13672c-2.4102 0.11328-4.3047 2.0977-4.3047 4.5117 0 2.4102 1.8945 4.3984 4.3047 4.5117z"/>
  <path d="m357.14 417.96 14.504 0.14844c2.4961 0.011719 4.5273-2 4.543-4.4922 0.011719-2.4961-2-4.5273-4.4922-4.543l-14.504-0.13672c-2.4102 0.11328-4.3086 2.0977-4.3086 4.5117 0 2.4102 1.8984 4.3984 4.3086 4.5117z"/>
  <path d="m395.45 417.96 14.504 0.14844h0.050781-0.003906c2.4961 0 4.5195-2.0234 4.5195-4.5195 0-2.4922-2.0234-4.5156-4.5195-4.5156l-14.504-0.13672h-0.050781 0.003906c-2.4102 0.11328-4.3047 2.0977-4.3047 4.5117 0 2.4102 1.8945 4.3984 4.3047 4.5117z"/>
 </g>
</svg>