<?xml version="1.0" encoding="UTF-8"?>
<!-- The Best Svg Icon site in the world: iconSvg.co, Visit us! https://iconsvg.co -->
<svg fill="#000000" width="800px" height="800px" version="1.1" viewBox="144 144 512 512" xmlns="http://www.w3.org/2000/svg">
 <path d="m573.18 258.3h-346.37c-12.523 0-24.539 4.9766-33.398 13.836-8.8555 8.8555-13.832 20.871-13.832 33.398v188.93c0 12.527 4.9766 24.543 13.832 33.398 8.8594 8.8594 20.875 13.836 33.398 13.836h346.37c12.527 0 24.539-4.9766 33.398-13.836 8.8555-8.8555 13.832-20.871 13.832-33.398v-188.93c0-12.527-4.9766-24.543-13.832-33.398-8.8594-8.8594-20.871-13.836-33.398-13.836zm15.742 236.16c0 4.1758-1.6562 8.1836-4.6094 11.133-2.9531 2.9531-6.957 4.6133-11.133 4.6133h-346.37c-4.1758 0-8.1797-1.6602-11.133-4.6133-2.9492-2.9492-4.6094-6.957-4.6094-11.133v-188.93c0-4.1758 1.6602-8.1797 4.6094-11.133 2.9531-2.9531 6.957-4.6133 11.133-4.6133h346.37c4.1758 0 8.1797 1.6602 11.133 4.6133s4.6094 6.957 4.6094 11.133zm-204.67-125.95c0 4.1758 1.6602 8.1797 4.6133 11.133 2.9531 2.9531 6.957 4.6094 11.133 4.6094 14.887 0.11719 28.848 7.2461 37.672 19.234 8.8242 11.992 11.48 27.441 7.1641 41.691-4.3164 14.246-15.098 25.625-29.094 30.707v2.832c0 5.625-3 10.824-7.8711 13.633-4.8711 2.8125-10.875 2.8125-15.746 0-4.8711-2.8086-7.8711-8.0078-7.8711-13.633v-2.832c-9.1875-3.25-17.145-9.2617-22.781-17.211-5.6367-7.9453-8.6797-17.445-8.707-27.188 0-5.625 3-10.824 7.8711-13.637 4.8711-2.8125 10.875-2.8125 15.746 0 4.8711 2.8125 7.8711 8.0117 7.8711 13.637 0 4.1758 1.6602 8.1797 4.6133 11.133 2.9531 2.9492 6.957 4.6094 11.133 4.6094s8.1797-1.6602 11.133-4.6094c2.9492-2.9531 4.6094-6.957 4.6094-11.133s-1.6602-8.1836-4.6094-11.133c-2.9531-2.9531-6.957-4.6133-11.133-4.6133-14.891-0.11328-28.852-7.2422-37.676-19.234-8.8242-11.992-11.48-27.441-7.1641-41.688 4.3164-14.25 15.098-25.629 29.094-30.707v-2.8359c0-5.625 3-10.82 7.8711-13.633s10.875-2.8125 15.746 0 7.8711 8.0078 7.8711 13.633v2.8359c9.1875 3.2461 17.145 9.2578 22.781 17.207 5.6406 7.9492 8.6797 17.445 8.707 27.191 0 5.625-3 10.82-7.8711 13.633s-10.875 2.8125-15.746 0c-4.8711-2.8125-7.8711-8.0078-7.8711-13.633s-3-10.824-7.8711-13.637-10.875-2.8125-15.746 0-7.8711 8.0117-7.8711 13.637z"/>
</svg>