<?xml version="1.0" encoding="UTF-8"?>
<!-- The Best Svg Icon site in the world: iconSvg.co, Visit us! https://iconsvg.co -->
<svg fill="#000000" width="800px" height="800px" version="1.1" viewBox="144 144 512 512" xmlns="http://www.w3.org/2000/svg">
 <g>
  <path d="m605.27 206.05h-410.54c-9.043 0-16.402 7.3555-16.402 16.398v277.69c0 9.043 7.3555 16.402 16.402 16.402h143.45l-9.9414 70.746h-15.41c-1.8398 0-3.332 1.4922-3.332 3.332 0 1.832 1.4922 3.3242 3.332 3.3242h172.06c1.832 0 3.3242-1.4922 3.3242-3.3242 0-1.8398-1.4922-3.332-3.3242-3.332h-13.133l-9.9414-70.746h143.45c9.043 0 16.398-7.3594 16.398-16.402v-277.69c-0.003906-9.043-7.3594-16.398-16.402-16.398zm-270.3 381.24 9.9414-70.746h110.19l9.9414 70.746zm280.04-87.148c0 5.3711-4.3672 9.7422-9.7383 9.7422h-410.54c-5.3711 0-9.7422-4.3672-9.7422-9.7422v-277.69c0-5.3672 4.375-9.7422 9.7422-9.7422h410.54c5.3672 0 9.7383 4.375 9.7383 9.7422z"/>
  <path d="m595.47 227.83h-390.94c-1.8398 0-3.332 1.4922-3.332 3.332v233.05c0 1.8398 1.4922 3.332 3.332 3.332h390.94c1.8398 0 3.332-1.4922 3.332-3.332v-233.05c-0.003907-1.8438-1.4961-3.332-3.332-3.332zm-195.47 125.75c-23.336 0-42.324-18.988-42.324-42.32 0-23.34 18.988-42.324 42.324-42.324 23.34 0 42.324 18.988 42.324 42.324 0.003906 23.332-18.984 42.32-42.324 42.32zm0.003906 97.078c0.035156 0 0.066406 0 0.10156-0.003906 0.28125-0.003906 0.55859-0.003906 0.83594-0.003906 16.652 0 32.793 3.6641 45.926 10.227h-91.828c12.875-6.4414 28.68-10.094 44.965-10.219zm192.14 10.223h-132.22c-15.055-10.504-35.02-16.438-56.586-16.848v-27.988c5.9258 2.918 11.734 4.3984 17.32 4.3984 28.496 0 41.176-37.031 41.699-38.602 0.28125-0.83984 0.21484-1.7578-0.17969-2.543-0.39453-0.78906-1.0898-1.3906-1.9258-1.6719-0.44141-0.14453-11.008-3.6172-23.469-3.6172-15.391 0-26.766 5.3398-33.453 15.367v-29.266c25.461-1.7188 45.656-22.969 45.656-48.855 0-27.008-21.973-48.984-48.984-48.984-27.008 0-48.984 21.973-48.984 48.984 0 25.891 20.191 47.137 45.656 48.855v29.27c-6.6797-10.031-18.062-15.371-33.453-15.371-12.465 0-23.023 3.4648-23.469 3.6172-0.83984 0.28125-1.5312 0.88281-1.9258 1.6719-0.39844 0.78516-0.45703 1.7031-0.17969 2.543 0.52344 1.5781 13.211 38.598 41.699 38.602 5.5859 0 11.395-1.4805 17.32-4.3984v28.031c-20.836 0.71094-40.102 6.6133-54.699 16.797h-134.11v-226.39h384.28v226.4zm-188.61-52.262c2.2891-18.551 13.469-27.953 33.25-27.953 7.3555 0 14.117 1.3672 17.98 2.3359-3.5938 8.5234-14.812 30.777-34.113 30.777-5.3789 0.003906-11.133-1.7344-17.117-5.1602zm-7.0586 0c-5.9844 3.4297-11.734 5.1641-17.121 5.1641-19.246 0-30.5-22.254-34.109-30.781 3.8711-0.96094 10.625-2.332 17.98-2.332 19.777 0 30.957 9.4023 33.25 27.949z"/>
  <path d="m426.14 488.45h-52.27c-1.8398 0-3.332 1.4961-3.332 3.332 0 1.8398 1.4922 3.332 3.332 3.332h52.27c1.8398 0 3.332-1.4922 3.332-3.332-0.003906-1.8359-1.4922-3.332-3.332-3.332z"/>
  <path d="m400.95 307.92h-1.8906c-5.0312 0-9.1328-4.0977-9.1328-9.1328 0-5.0391 4.0977-9.1328 9.1328-9.1328h12.465c1.832 0 3.3242-1.4922 3.3242-3.332 0-1.832-1.4922-3.3242-3.3242-3.3242h-7.2461v-5.5977c0-1.8398-1.4922-3.332-3.332-3.332s-3.332 1.4922-3.332 3.332v5.668c-8.0352 0.73438-14.355 7.4961-14.355 15.719 0 8.707 7.082 15.789 15.789 15.789h1.8906c5.0391 0 9.1289 4.0977 9.1289 9.1328 0 5.0391-4.0977 9.1289-9.125 9.1328l-0.003906-0.003906-0.003906 0.003906h-12.449c-1.8398 0-3.332 1.4922-3.332 3.3242 0 1.8398 1.4922 3.332 3.332 3.332h9.1289v5.5977c0 1.8398 1.4922 3.332 3.332 3.332s3.332-1.4922 3.332-3.332v-5.9609c7.1133-1.5352 12.465-7.8711 12.465-15.434 0-8.6992-7.0859-15.781-15.793-15.781z"/>
 </g>
</svg>