<?xml version="1.0" encoding="UTF-8"?>
<!-- The Best Svg Icon site in the world: iconSvg.co, Visit us! https://iconsvg.co -->
<svg fill="#000000" width="800px" height="800px" version="1.1" viewBox="144 144 512 512" xmlns="http://www.w3.org/2000/svg">
 <g>
  <path d="m510.21 274.05h-15.746c-4.3477 0-7.8711-3.5234-7.8711-7.8711 0-4.3477-3.5234-7.875-7.8711-7.875s-7.8711 3.5273-7.8711 7.875c0 6.2617 2.4883 12.27 6.918 16.699 4.4258 4.4258 10.434 6.9141 16.695 6.9141v7.875c0 4.3477 3.5273 7.8711 7.875 7.8711 4.3477 0 7.8711-3.5234 7.8711-7.8711v-7.875c8.4375 0 16.234-4.5 20.453-11.809 4.2188-7.3047 4.2188-16.309 0-23.613-4.2188-7.3086-12.016-11.809-20.453-11.809h-15.746c-4.3477 0-7.8711-3.5234-7.8711-7.8711s3.5234-7.875 7.8711-7.875h15.746c2.0859 0 4.0898 0.83203 5.5664 2.3086 1.4766 1.4766 2.3047 3.4766 2.3047 5.5664 0 4.3477 3.5234 7.8711 7.8711 7.8711 4.3477 0 7.875-3.5234 7.875-7.8711 0-6.2656-2.4883-12.273-6.918-16.699-4.4297-4.4297-10.438-6.918-16.699-6.918v-7.8711c0-4.3477-3.5234-7.875-7.8711-7.875-4.3477 0-7.875 3.5273-7.875 7.875v7.8711c-8.4336 0-16.23 4.5-20.449 11.809-4.2188 7.3047-4.2188 16.309 0 23.613 4.2188 7.3086 12.016 11.809 20.449 11.809h15.746c4.3477 0 7.8711 3.5273 7.8711 7.875 0 4.3477-3.5234 7.8711-7.8711 7.8711z"/>
  <path d="m321.28 518.08v55.105c0 2.0859 0.83203 4.0898 2.3047 5.5664 1.4766 1.4766 3.4805 2.3047 5.5664 2.3047h78.723c2.0859 0 4.0898-0.82813 5.5664-2.3047s2.3047-3.4805 2.3047-5.5664v-55.105c0-2.0859-0.82813-4.0898-2.3047-5.5664-1.4766-1.4766-3.4805-2.3047-5.5664-2.3047h-78.723c-4.3477 0-7.8711 3.5234-7.8711 7.8711zm15.742 7.8711h62.977v39.359l-62.973 0.003906z"/>
  <path d="m352.77 431.49c0-8.3516-3.3164-16.363-9.2227-22.266-5.9062-5.9062-13.914-9.2227-22.266-9.2227-8.3516 0-16.359 3.3164-22.266 9.2227-5.9023 5.9023-9.2227 13.914-9.2227 22.266 0 8.3477 3.3203 16.359 9.2227 22.266 5.9062 5.9023 13.914 9.2227 22.266 9.2227 8.3516 0 16.359-3.3203 22.266-9.2227 5.9062-5.9062 9.2227-13.918 9.2227-22.266zm-47.23 0c0-4.1758 1.6562-8.1836 4.6094-11.133 2.9531-2.9531 6.957-4.6133 11.133-4.6133 4.1758 0 8.1797 1.6602 11.133 4.6133 2.9531 2.9492 4.6133 6.957 4.6133 11.133s-1.6602 8.1797-4.6133 11.133c-2.9531 2.9492-6.957 4.6094-11.133 4.6094-4.1758 0-8.1797-1.6602-11.133-4.6094-2.9531-2.9531-4.6094-6.957-4.6094-11.133z"/>
  <path d="m612.54 163.84h-220.42c-6.2578 0.019531-12.254 2.5156-16.676 6.9414-4.4258 4.4219-6.9219 10.418-6.9375 16.676v159.96l-41.801-39.754c-3.0664-2.832-7.7969-2.832-10.863 0l-149.57 141.7c-1.5586 1.5039-2.4414 3.5781-2.4414 5.7461v39.359c0.011718 3.1367 1.8633 5.9688 4.7266 7.2422 1 0.39844 2.0703 0.61328 3.1484 0.63281 2.0156 0.011718 3.957-0.75 5.4297-2.125l18.184-17.242v145.32c0 2.0859 0.83203 4.0898 2.3086 5.5664 1.4766 1.4727 3.4766 2.3047 5.5664 2.3047h236.16c2.0859 0 4.0898-0.83203 5.5664-2.3047 1.4766-1.4766 2.3047-3.4805 2.3047-5.5664v-133.83h165.31c6.2578-0.015626 12.254-2.5117 16.68-6.9375 4.4219-4.4219 6.918-10.418 6.9375-16.676v-283.39c-0.019531-6.2578-2.5156-12.254-6.9375-16.676-4.4258-4.4258-10.422-6.9219-16.68-6.9414zm-414.93 295.2-18.027 17.16v-17.711l141.7-134.22 47.23 44.871v19.758l-41.645-41.723h0.003907c-3.0391-2.9922-7.8984-3.0625-11.02-0.15625zm92.18 161.38h-47.23v-110.21h47.23zm141.7 0h-125.95v-118.08c0-2.0898-0.83203-4.0898-2.3047-5.5664-1.4766-1.4766-3.4805-2.3086-5.5664-2.3086h-62.977c-4.3477 0-7.875 3.5273-7.875 7.875v118.08h-15.742v-152.4l110.05-104.22 47.391 47.309v59.75c0.015625 6.2578 2.5117 12.254 6.9375 16.676 4.4219 4.4258 10.418 6.9219 16.676 6.9375h39.359zm188.93-149.57c0 2.0859-0.82812 4.0898-2.3047 5.5664-1.4766 1.4766-3.4766 2.3047-5.5664 2.3047h-220.42c-4.3477 0-7.8711-3.5234-7.8711-7.8711v-283.39c0-4.3477 3.5234-7.8711 7.8711-7.8711h220.42c2.0898 0 4.0898 0.82812 5.5664 2.3047 1.4766 1.4766 2.3047 3.4805 2.3047 5.5664z"/>
  <path d="m581.05 352.77h-118.08c-4.3477 0-7.875 3.5234-7.875 7.8711 0 4.3477 3.5273 7.875 7.875 7.875h118.08c4.3477 0 7.8711-3.5273 7.8711-7.875 0-4.3477-3.5234-7.8711-7.8711-7.8711z"/>
  <path d="m581.05 384.25h-118.08c-4.3477 0-7.875 3.5234-7.875 7.8711s3.5273 7.875 7.875 7.875h118.08c4.3477 0 7.8711-3.5273 7.8711-7.875s-3.5234-7.8711-7.8711-7.8711z"/>
  <path d="m431.49 352.77h-7.875c-4.3477 0-7.8711 3.5234-7.8711 7.8711 0 4.3477 3.5234 7.875 7.8711 7.875h7.875c4.3477 0 7.8711-3.5273 7.8711-7.875 0-4.3477-3.5234-7.8711-7.8711-7.8711z"/>
  <path d="m581.05 321.28h-118.08c-4.3477 0-7.875 3.5234-7.875 7.8711 0 4.3477 3.5273 7.875 7.875 7.875h118.08c4.3477 0 7.8711-3.5273 7.8711-7.875 0-4.3477-3.5234-7.8711-7.8711-7.8711z"/>
  <path d="m431.49 321.28h-7.875c-4.3477 0-7.8711 3.5234-7.8711 7.8711 0 4.3477 3.5234 7.875 7.8711 7.875h7.875c4.3477 0 7.8711-3.5273 7.8711-7.875 0-4.3477-3.5234-7.8711-7.8711-7.8711z"/>
  <path d="m431.49 384.25h-7.875c-4.3477 0-7.8711 3.5234-7.8711 7.8711s3.5234 7.875 7.8711 7.875h7.875c4.3477 0 7.8711-3.5273 7.8711-7.875s-3.5234-7.8711-7.8711-7.8711z"/>
  <path d="m581.05 415.74h-118.08c-4.3477 0-7.875 3.5234-7.875 7.8711 0 4.3477 3.5273 7.875 7.875 7.875h118.08c4.3477 0 7.8711-3.5273 7.8711-7.875 0-4.3477-3.5234-7.8711-7.8711-7.8711z"/>
  <path d="m431.49 415.74h-7.875c-4.3477 0-7.8711 3.5234-7.8711 7.8711 0 4.3477 3.5234 7.875 7.8711 7.875h7.875c4.3477 0 7.8711-3.5273 7.8711-7.875 0-4.3477-3.5234-7.8711-7.8711-7.8711z"/>
  <path d="m581.05 447.23h-118.08c-4.3477 0-7.875 3.5234-7.875 7.8711 0 4.3477 3.5273 7.875 7.875 7.875h118.08c4.3477 0 7.8711-3.5273 7.8711-7.875 0-4.3477-3.5234-7.8711-7.8711-7.8711z"/>
  <path d="m431.49 447.23h-7.875c-4.3477 0-7.8711 3.5234-7.8711 7.8711 0 4.3477 3.5234 7.875 7.8711 7.875h7.875c4.3477 0 7.8711-3.5273 7.8711-7.875 0-4.3477-3.5234-7.8711-7.8711-7.8711z"/>
 </g>
</svg>