<?xml version="1.0" encoding="UTF-8"?>
<!-- The Best Svg Icon site in the world: iconSvg.co, Visit us! https://iconsvg.co -->
<svg fill="#000000" width="800px" height="800px" version="1.1" viewBox="144 144 512 512" xmlns="http://www.w3.org/2000/svg">
 <g>
  <path d="m546.09 427.18c3.0469-0.28516 5.3906-2.8164 5.4414-5.875v-42.617c-0.050781-3.0625-2.3984-5.5977-5.4492-5.8789l-27.512-2.6562h0.003906c-2.9609-11.602-7.6523-22.691-13.918-32.898l17.445-21.059h-0.003907c1.9375-2.3359 1.7812-5.7617-0.35547-7.918l-29.762-30.066c-2.1523-2.1758-5.6094-2.3477-7.9648-0.39453l-21.102 17.5c-10.238-6.2031-21.328-10.875-32.918-13.875l-2.6562-27.516v0.003906c-0.28125-3.0547-2.8086-5.4102-5.875-5.4727h-42.68c-3.0625 0.0625-5.5938 2.4141-5.875 5.4688l-2.6562 27.449c-11.621 2.9414-22.73 7.6172-32.953 13.875l-21.059-17.449c-2.3477-1.9414-5.7852-1.7812-7.9414 0.375l-30.125 30.074c-2.1602 2.1523-2.3242 5.5977-0.375 7.9492l17.48 21.086v-0.003906c-6.1992 10.227-10.879 21.297-13.895 32.867l-27.535 2.6562h0.003906c-3.0391 0.28906-5.3711 2.8281-5.3984 5.8828v42.617c0.027343 3.0508 2.3594 5.5859 5.3984 5.875l27.484 2.6562h-0.003906c2.957 11.602 7.6445 22.695 13.906 32.898l-17.449 21.059c-1.9453 2.3477-1.7812 5.793 0.37891 7.9453l30.129 30.066c2.1562 2.1523 5.5938 2.3086 7.9375 0.36719l21.102-17.496c10.238 6.2031 21.328 10.875 32.918 13.875l2.6562 27.516v-0.003906c0.28125 3.0508 2.8086 5.4062 5.8711 5.4688h42.68c3.0664-0.058594 5.5977-2.4141 5.8789-5.4688l2.6562-27.453c11.617-2.9414 22.73-7.6172 32.953-13.875l21.062 17.449c2.3477 1.9414 5.7852 1.7812 7.9375-0.375l30.125-30.07h0.003907c2.1602-2.1523 2.3203-5.5977 0.37109-7.9492l-17.48-21.086v0.003907c6.2188-10.227 10.918-21.301 13.953-32.875zm-37.742-4.0938c-2.9375 13.129-8.2227 25.621-15.594 36.879-1.4102 2.1641-1.2461 4.9961 0.40234 6.9844l16.77 20.227-22.512 22.473-20.234-16.777c-2.0039-1.6602-4.8555-1.8164-7.0273-0.37891-11.211 7.4258-23.715 12.684-36.867 15.5-2.5273 0.60156-4.3945 2.7461-4.6367 5.3359l-2.543 26.395h-31.961l-2.543-26.395c-0.24219-2.5781-2.1211-4.707-4.6445-5.2695-13.148-2.918-25.66-8.1953-36.922-15.578-2.1641-1.3945-4.9766-1.2305-6.9609 0.40625l-20.234 16.77-22.512-22.473 16.77-20.227c1.6641-2.0078 1.8125-4.8672 0.37109-7.0391-7.4414-11.188-12.719-23.676-15.559-36.809-0.57422-2.5156-2.6953-4.3789-5.2617-4.6211l-26.383-2.5469v-31.895l26.383-2.543v-0.003906c2.5508-0.24219 4.6562-2.0977 5.2266-4.5938 2.9414-13.133 8.2305-25.625 15.609-36.883 1.4102-2.1641 1.25-4.9922-0.39453-6.9844l-16.766-20.227 22.516-22.469 20.234 16.777c2 1.6602 4.8555 1.8164 7.0234 0.38281 11.211-7.4336 23.719-12.691 36.871-15.508 2.5312-0.59766 4.3984-2.7461 4.6367-5.3359l2.5391-26.395h31.961l2.543 26.395c0.24609 2.5781 2.1211 4.707 4.6484 5.2734 13.145 2.918 25.656 8.1914 36.918 15.574 2.1602 1.3945 4.9766 1.2305 6.9609-0.40625l20.211-16.746 22.191 22.426-16.793 20.25c-1.6641 2.0078-1.8125 4.8672-0.37109 7.0391 7.4414 11.191 12.719 23.676 15.559 36.809 0.59375 2.5234 2.7344 4.3867 5.3125 4.625l26.438 2.543v31.902l-26.074 2.543c-2.5664 0.24609-4.6953 2.0898-5.3008 4.5938z"/>
  <path d="m399.98 306.93c-24.676 0.035156-48.328 9.8672-65.754 27.336-17.43 17.469-27.207 41.145-27.184 65.82 0.023438 24.676 9.8438 48.332 27.305 65.766 17.461 17.438 41.129 27.227 65.805 27.215 24.676-0.011718 48.336-9.8203 65.781-27.273 17.445-17.453 27.242-41.117 27.242-65.793-0.042969-24.691-9.8789-48.359-27.352-65.805-17.473-17.449-41.152-27.254-65.844-27.266zm0 174.33c-21.543-0.035156-42.191-8.6211-57.406-23.875-15.215-15.254-23.746-35.926-23.723-57.469 0.019532-21.547 8.5977-42.199 23.844-57.422 15.246-15.219 35.914-23.766 57.457-23.754 21.543 0.011719 42.203 8.5781 57.434 23.816 15.227 15.238 23.785 35.898 23.785 57.445-0.042969 21.559-8.6367 42.223-23.895 57.457-15.258 15.234-35.934 23.793-57.496 23.801z"/>
  <path d="m400 371.76c6.1406 0.007813 11.117 4.9844 11.125 11.125 0 3.2617 2.6445 5.9062 5.9023 5.9062 3.2617 0 5.9062-2.6445 5.9062-5.9062-0.007813-4.875-1.5664-9.625-4.4492-13.559-2.8867-3.9336-6.9492-6.8438-11.598-8.3164v-4.3047c0-3.2617-2.6445-5.9062-5.9023-5.9062-3.2617 0-5.9062 2.6445-5.9062 5.9062v3.7852c-7.4258 1.6289-13.562 6.8398-16.379 13.902-2.8164 7.0664-1.9492 15.066 2.3164 21.363 4.2656 6.293 11.379 10.066 18.984 10.066 4.5 0 8.5547 2.7109 10.277 6.8672s0.76953 8.9414-2.4102 12.125c-3.1836 3.1836-7.9688 4.1328-12.125 2.4102-4.1602-1.7188-6.8711-5.7773-6.8711-10.277 0-3.2617-2.6406-5.9062-5.9023-5.9062s-5.9062 2.6445-5.9062 5.9062c0.007812 5.0508 1.6797 9.9609 4.7578 13.969 3.082 4.0039 7.3945 6.8828 12.273 8.1914v6.1562c0 3.2617 2.6445 5.9062 5.9062 5.9062 3.2578 0 5.9023-2.6445 5.9023-5.9062v-6.1562c7.2344-1.9258 13.074-7.2656 15.641-14.297 2.5664-7.0312 1.5391-14.875-2.75-21.012-4.293-6.1328-11.309-9.7852-18.793-9.7852-6.1055-0.058594-11.023-5.0234-11.023-11.129 0-6.1016 4.918-11.066 11.023-11.125z"/>
  <path d="m606.93 380.09c-1.1211-1.3516-2.7852-2.1367-4.543-2.1367s-3.4219 0.78516-4.543 2.1367l-37.59 45.316c-1.4648 1.8281-1.7734 4.3242-0.80078 6.4531 0.95312 2.1094 3.0273 3.4961 5.3438 3.5664h29.707c-6.7656 50.094-31.758 95.938-70.203 128.76-36.172 31.016-81.617 48.715-124.69 48.715-28.094 0-57.465-7.6133-84.934-21.938v0.003907c-28.52-14.898-53.254-36.125-72.312-62.051-0.89453-1.332-2.2969-2.2422-3.8789-2.5195-1.582-0.27734-3.207 0.097656-4.5039 1.0469s-2.1523 2.3828-2.3672 3.9727c-0.21484 1.5938 0.22656 3.2031 1.2266 4.4609 20.129 27.379 46.258 49.789 76.379 65.52 29.148 15.199 60.406 23.23 90.391 23.23 45.848 0 94.094-18.652 132.38-51.477 40.957-35.145 67.461-84.203 74.414-137.72h33.566c2.3125-0.078125 4.3789-1.457 5.3438-3.5625 0.96094-2.1016 0.65234-4.5664-0.79688-6.3711zm-29.566 43.527 25.02-30.164 25.02 30.164z"/>
  <path d="m240.54 368.14c-0.95312-2.1094-3.0273-3.4961-5.3398-3.5664h-29.711c6.7656-50.094 31.762-95.934 70.203-128.76 36.172-31.016 81.617-48.715 124.69-48.715 28.094 0 57.465 7.6133 84.934 21.938v-0.003906c28.52 14.902 53.254 36.125 72.312 62.051 0.89453 1.332 2.2969 2.2422 3.8789 2.5234 1.582 0.27734 3.207-0.10156 4.5039-1.0508 1.2969-0.94531 2.1523-2.3828 2.3672-3.9727 0.21484-1.5938-0.22656-3.2031-1.2227-4.4609-20.133-27.379-46.258-49.789-76.383-65.52-29.148-15.199-60.406-23.23-90.391-23.23-45.848 0-94.094 18.652-132.38 51.477-40.957 35.148-67.461 84.203-74.414 137.72h-33.566c-2.3125 0.082031-4.3789 1.4609-5.3398 3.5625-0.96484 2.1016-0.65625 4.5703 0.79688 6.3711l37.59 45.363h-0.003906c1.1172 1.3594 2.7812 2.1484 4.5391 2.1562 1.7578 0.003906 3.4258-0.77344 4.5508-2.125l37.59-45.398c1.4609-1.793 1.7695-4.2656 0.79297-6.3633zm-42.93 38.41-25.016-30.168h50.035z"/>
 </g>
</svg>