<?xml version="1.0" encoding="UTF-8"?>
<!-- The Best Svg Icon site in the world: iconSvg.co, Visit us! https://iconsvg.co -->
<svg fill="#000000" width="800px" height="800px" version="1.1" viewBox="144 144 512 512" xmlns="http://www.w3.org/2000/svg">
 <g>
  <path d="m544.8 582.8c-0.5 0-50.34-0.58984-68.645-42.027 0-0.089843-0.10938-0.16797-0.14844-0.25391-0.039063-0.089844-0.12891-0.23438-0.20703-0.35547-0.15625-0.21484-0.32813-0.42188-0.51172-0.62109-0.085938-0.09375-0.18359-0.17578-0.28516-0.25391-0.10937-0.09375-0.22266-0.17969-0.34375-0.25781-0.10156-0.066406-0.20703-0.12891-0.3125-0.1875-0.097656-0.050782-0.1875-0.11719-0.29687-0.16797h-0.10938c-0.10937 0-0.21484-0.070313-0.32422-0.10938v0.003906c-0.14453-0.050781-0.29297-0.09375-0.44141-0.12891h-0.77734-0.43359-0.34375c-0.15625 0-0.30469 0.089844-0.46094 0.12891l-0.30469 0.097656h-0.11719c-0.10938 0.050782-0.20703 0.11719-0.31641 0.17578l-0.28516 0.16797h-0.003906c-0.12109 0.085938-0.24219 0.17578-0.35156 0.27734-0.097656 0.074219-0.1875 0.15234-0.27734 0.23438-0.097656 0.097657-0.19141 0.20312-0.27344 0.31641-0.089844 0.10156-0.17188 0.20312-0.24609 0.3125-0.078125 0.11719-0.13672 0.23437-0.20703 0.35547-0.070312 0.11719-0.097656 0.16797-0.13672 0.25391-18.281 41.387-68.023 42.027-68.645 42.027s-50.352-0.64062-68.633-42.016h-0.003907c-0.039062-0.082031-0.085937-0.16016-0.13672-0.23438-0.070312-0.12891-0.13672-0.26562-0.21484-0.39453-0.074219-0.10156-0.15234-0.20312-0.23828-0.29688-0.089844-0.10938-0.17578-0.21484-0.27734-0.31641l0.003906 0.003906c-0.089844-0.09375-0.18359-0.17969-0.28516-0.25781-0.10938-0.089844-0.21484-0.17578-0.33594-0.25391l-0.33594-0.1875c-0.085938-0.0625-0.17969-0.11719-0.27344-0.16797h-0.10938l-0.35547-0.11719c-0.13281-0.046875-0.27344-0.082031-0.41016-0.10938-0.13281-0.027344-0.26172-0.042969-0.39453-0.046875h-0.39453-0.77734c-0.15625 0.035156-0.3125 0.082031-0.46094 0.13672-0.097657 0-0.20703 0.050781-0.30469 0.089844h-0.11719c-0.10937 0.050781-0.20703 0.11719-0.31641 0.17578l-0.28516 0.16797c-0.125 0.082031-0.24219 0.17578-0.35547 0.27344l-0.27734 0.23438c-0.097657 0.097656-0.1875 0.20703-0.27734 0.31641h0.003906c-0.085938 0.097656-0.16797 0.20312-0.23828 0.31641-0.078125 0.11328-0.14453 0.23828-0.20703 0.36328-0.054688 0.078125-0.10156 0.16016-0.14453 0.24609-18.301 41.438-68.141 42.027-68.645 42.027-2.2734 0-4.1133 1.8398-4.1133 4.1133 0 2.2695 1.8398 4.1133 4.1133 4.1133 2.1367 0 49.82-0.49219 72.402-39.539 22.582 39.047 70.258 39.539 72.395 39.539s49.809-0.49219 72.402-39.539c22.582 39.047 70.258 39.539 72.395 39.539h-0.003906c2.2734 0 4.1133-1.8438 4.1133-4.1133 0-2.2734-1.8398-4.1133-4.1133-4.1133z"/>
  <path d="m617.2 483.06c-0.36328 0-27.129-0.32422-48.641-16.727v-114.65c0-2.2656-1.8359-4.1055-4.1055-4.1133h-32.598v-61.57c0-2.2656-1.8359-4.1055-4.1055-4.1133h-17.613v-20.969c-0.10547-2.1875-1.9141-3.9102-4.1055-3.9102-2.1953 0-4.0039 1.7227-4.1094 3.9102v21h-14.555v-34.695c0.003906-1.0898-0.42578-2.1367-1.1992-2.9102-0.76953-0.76953-1.8125-1.2031-2.9023-1.2031h-26.402v-30.023c0.054688-1.125-0.35156-2.2227-1.1289-3.0352-0.77734-0.81641-1.8516-1.2773-2.9805-1.2773-1.125 0-2.1992 0.46094-2.9766 1.2773-0.77734 0.8125-1.1836 1.9102-1.1289 3.0352v30.023h-26.402c-2.2695 0-4.1133 1.8398-4.1133 4.1133v100.37h-44.004v-25.387c0-2.2734-1.8398-4.1133-4.1133-4.1133h-33.645v-26.656c0-2.2695-1.832-4.1094-4.1016-4.1133h-75.512c-2.2695 0.003907-4.1055 1.8438-4.1055 4.1133v26.656h-33.652c-2.2656 0.003906-4.1016 1.8438-4.1016 4.1133v25.367h-32.09c-1.1602 0.003907-2.2695 0.49609-3.0469 1.3594-0.78125 0.85937-1.1602 2.0117-1.0469 3.168 0.29688 2.8242 7.418 68.074 46.336 118.58-20.074 12.113-41.918 12.379-42.254 12.379h0.003906c-2.1914 0.10547-3.9141 1.9141-3.9141 4.1094 0 2.1914 1.7227 4 3.9141 4.1055 2.1367 0 49.809-0.48047 72.395-39.527 22.633 39.047 70.27 39.527 72.402 39.527 2.1367 0 49.809-0.48047 72.395-39.527 22.582 39.047 70.27 39.527 72.402 39.527 2.1367 0 49.809-0.48047 72.395-39.527 22.633 39.047 70.258 39.527 72.395 39.527h-0.003906c2.1875-0.10547 3.9102-1.9141 3.9102-4.1055 0-2.1953-1.7227-4.0039-3.9102-4.1094zm-190.9-172.78h24.867c1.125 0.054687 2.2227-0.35156 3.0352-1.1289 0.81641-0.77734 1.2773-1.8555 1.2773-2.9805s-0.46094-2.2031-1.2773-2.9766c-0.8125-0.77734-1.9102-1.1875-3.0352-1.1289h-24.816v-13.887h24.816c2.2695 0 4.1133-1.8398 4.1133-4.1133 0-2.2695-1.8438-4.1133-4.1133-4.1133h-24.816v-28.613h52.801v34.668-0.003906c0 2.2734 1.8398 4.1133 4.1133 4.1133h40.344v57.457h-97.258zm-60.438 16.039v21.254h-67.219v-21.254zm-104.99-30.77h67.297v22.543h-67.297zm-37.758 30.77h67.285v21.254h-67.285zm337.28 132.63c-4.9141-5.2617-8.9062-11.316-11.809-17.906 0-0.089844-0.089843-0.15625-0.12891-0.23438v-0.003906c-0.0625-0.13672-0.14062-0.26953-0.22266-0.39453-0.070313-0.10547-0.15234-0.20703-0.23828-0.30469-0.082032-0.10938-0.17578-0.21484-0.27344-0.3125l-0.28516-0.25391v-0.003906c-0.10547-0.089844-0.21875-0.17188-0.33594-0.24609-0.10938-0.070312-0.21875-0.13672-0.33594-0.19531-0.097657-0.050781-0.17578-0.11719-0.27734-0.15625h-0.10938l-0.35547-0.11719c-0.13672 0-0.27734-0.089843-0.41406-0.11719h-0.375l0.007812-0.003906c-0.13672-0.007813-0.27734-0.007813-0.41406 0-0.13281-0.007813-0.26953-0.007813-0.40234 0h-0.375c-0.14844 0-0.28516 0.078125-0.42188 0.11719l-0.34375 0.10938h-0.11719l-0.27734 0.15625-0.33594 0.1875c-0.11719 0.082031-0.23047 0.16797-0.33594 0.26562-0.097656 0.078125-0.19141 0.16016-0.28516 0.24609-0.09375 0.097656-0.17969 0.19922-0.26563 0.30469-0.18359 0.20312-0.33594 0.43359-0.45312 0.67969-0.050782 0.089844-0.10938 0.16797-0.14844 0.25391-18.281 41.379-68.023 42.027-68.633 42.027-0.60938 0-50.359-0.64844-68.645-42.027 0-0.089843-0.097656-0.16797-0.14844-0.26562l0.003906 0.003906c-0.0625-0.12109-0.125-0.23437-0.19922-0.34766-0.078125-0.11719-0.17578-0.22656-0.26562-0.34375l-0.23438-0.27734-0.32422-0.28516v0.003906c-0.097657-0.082031-0.19922-0.15625-0.30469-0.22656-0.11719-0.078125-0.23828-0.14844-0.36719-0.20703-0.089843-0.050781-0.16797-0.10938-0.25391-0.14844h-0.097656c-0.10938-0.046875-0.22266-0.082031-0.33594-0.10938-0.15234-0.054687-0.30469-0.10156-0.46094-0.13672h-0.21875c-0.19141-0.015626-0.38672-0.015626-0.57812 0h-0.20703c-0.19531 0.003906-0.39062 0.023437-0.58203 0.058593l-0.25391 0.078125c-0.17188 0.042969-0.33984 0.09375-0.50391 0.16016h-0.089844l-0.22656 0.12891 0.003906-0.003907c-0.13672 0.070313-0.26953 0.14453-0.39453 0.22656l-0.30469 0.23438c-0.10938 0.089844-0.21484 0.17578-0.30469 0.26562-0.089844 0.089844-0.1875 0.20703-0.27734 0.31641-0.082031 0.097657-0.16406 0.19922-0.23438 0.30469-0.078125 0.12891-0.14844 0.25391-0.21484 0.39453h-0.003906c-0.050781 0.074219-0.097656 0.15625-0.13672 0.23828-18.281 41.328-68.023 42.016-68.633 42.016s-50.359-0.64844-68.645-42.016c-0.039063-0.082031-0.082032-0.16406-0.12891-0.23828-0.066406-0.13672-0.14062-0.26562-0.22656-0.39453-0.074219-0.10547-0.15234-0.20703-0.23438-0.30469-0.082032-0.10547-0.17188-0.20703-0.26562-0.30469-0.097657-0.09375-0.19922-0.18359-0.30859-0.26562-0.097656-0.089844-0.20312-0.17188-0.3125-0.24609l-0.35547-0.20703c-0.089844 0-0.16797-0.10938-0.26562-0.14844h-0.097656v0.003906c-0.25781-0.085937-0.51562-0.16406-0.77734-0.23828h-0.375c-0.26953-0.050781-0.54688-0.050781-0.81641 0h-0.375c-0.13672 0-0.27734 0.078125-0.41406 0.11719h0.003907c-0.125 0.03125-0.24609 0.070312-0.36719 0.12109h-0.097656l-0.27734 0.15625h0.003907c-0.12109 0.054688-0.23828 0.12109-0.34766 0.19531-0.10938 0.078125-0.21875 0.16016-0.32422 0.24609-0.10547 0.082031-0.20312 0.17188-0.29297 0.26562-0.097656 0.09375-0.1875 0.19141-0.26562 0.29688-0.089844 0.10156-0.17188 0.21094-0.24609 0.32422-0.078125 0.10937-0.13672 0.23437-0.20703 0.35547-0.070313 0.11719-0.10938 0.16797-0.14844 0.25391-4.3203 9.8516-11.059 18.453-19.59 25.004-31.969-41.328-41.996-94.555-44.348-110.21h372.86z"/>
  <path d="m219 382.43h53.797c2.2695 0 4.1133-1.8438 4.1133-4.1133 0-2.2734-1.8438-4.1133-4.1133-4.1133h-53.797c-2.2695 0-4.1133 1.8398-4.1133 4.1133 0 2.2695 1.8438 4.1133 4.1133 4.1133z"/>
  <path d="m294.51 382.43h28.734c2.2734 0 4.1133-1.8438 4.1133-4.1133 0-2.2734-1.8398-4.1133-4.1133-4.1133h-28.734c-2.2695 0-4.1133 1.8398-4.1133 4.1133 0 2.2695 1.8438 4.1133 4.1133 4.1133z"/>
  <path d="m344.8 382.43h69.168c2.2695 0 4.1133-1.8438 4.1133-4.1133 0-2.2734-1.8438-4.1133-4.1133-4.1133h-69.168c-2.2695 0-4.1133 1.8398-4.1133 4.1133 0 2.2695 1.8438 4.1133 4.1133 4.1133z"/>
 </g>
</svg>