<?xml version="1.0" encoding="UTF-8"?>
<!-- The Best Svg Icon site in the world: iconSvg.co, Visit us! https://iconsvg.co -->
<svg fill="#000000" width="800px" height="800px" version="1.1" viewBox="144 144 512 512" xmlns="http://www.w3.org/2000/svg">
 <path d="m541.7 190.76h-283.39c-20.875 0-40.898 8.293-55.664 23.055-14.762 14.762-23.055 34.785-23.055 55.664v157.44c0 20.875 8.293 40.898 23.055 55.664 14.766 14.762 34.789 23.055 55.664 23.055h47.234c4.1758 0 8.1797 1.6602 11.133 4.6133 2.9531 2.9492 4.6094 6.957 4.6094 11.133v56.363c-0.011719 6.2227 1.8203 12.312 5.2656 17.5 3.4492 5.1836 8.3555 9.2266 14.102 11.625 3.8516 1.5547 7.9688 2.3555 12.121 2.3633 8.3164 0.003907 16.297-3.2773 22.199-9.1328l89.898-89.898c2.9727-2.9453 6.9961-4.5898 11.18-4.5664h65.652c20.879 0 40.898-8.293 55.664-23.055 14.762-14.766 23.055-34.789 23.055-55.664v-157.44c0-20.879-8.293-40.902-23.055-55.664-14.766-14.762-34.785-23.055-55.664-23.055zm47.23 236.16c0 12.527-4.9766 24.539-13.832 33.398-8.8594 8.8555-20.871 13.832-33.398 13.832h-65.652c-12.5-0.03125-24.504 4.8945-33.379 13.699l-89.898 89.898v-56.363c0-12.527-4.9766-24.543-13.832-33.398-8.8594-8.8594-20.871-13.836-33.398-13.836h-47.234c-12.527 0-24.539-4.9766-33.398-13.832-8.8555-8.8594-13.832-20.871-13.832-33.398v-157.44c0-12.527 4.9766-24.539 13.832-33.398 8.8594-8.8594 20.871-13.832 33.398-13.832h283.39c12.527 0 24.539 4.9727 33.398 13.832 8.8555 8.8594 13.832 20.871 13.832 33.398zm-157.44-78.719 0.003906-0.003906c0 8.3516-3.3203 16.363-9.2227 22.266-5.9062 5.9062-13.914 9.2227-22.266 9.2227s-16.363-3.3164-22.266-9.2227c-5.9062-5.9023-9.2227-13.914-9.2227-22.266 0-8.3516 3.3164-16.359 9.2227-22.266 5.9023-5.9023 13.914-9.2227 22.266-9.2227s16.359 3.3203 22.266 9.2227c5.9023 5.9062 9.2227 13.914 9.2227 22.266zm-110.21 0v-0.003906c0 8.3516-3.3164 16.363-9.2227 22.266-5.9023 5.9062-13.914 9.2227-22.266 9.2227-8.3516 0-16.359-3.3164-22.266-9.2227-5.9023-5.9023-9.2227-13.914-9.2227-22.266 0-8.3516 3.3203-16.359 9.2227-22.266 5.9062-5.9023 13.914-9.2227 22.266-9.2227 8.3516 0 16.363 3.3203 22.266 9.2227 5.9062 5.9062 9.2227 13.914 9.2227 22.266zm220.42 0v-0.003906c0 8.3516-3.3164 16.363-9.2227 22.266-5.9062 5.9062-13.914 9.2227-22.266 9.2227-8.3516 0-16.359-3.3164-22.266-9.2227-5.9062-5.9023-9.2227-13.914-9.2227-22.266 0-8.3516 3.3164-16.359 9.2227-22.266 5.9062-5.9023 13.914-9.2227 22.266-9.2227 8.3516 0 16.359 3.3203 22.266 9.2227 5.9062 5.9062 9.2227 13.914 9.2227 22.266z"/>
</svg>