<?xml version="1.0" encoding="UTF-8"?>
<!-- The Best Svg Icon site in the world: iconSvg.co, Visit us! https://iconsvg.co -->
<svg fill="#000000" width="800px" height="800px" version="1.1" viewBox="144 144 512 512" xmlns="http://www.w3.org/2000/svg">
 <path d="m643.52 242.49c-0.039063-3.3984-0.089844-6.0195-0.14453-7.793-0.10547-3.3594-0.19531-6.5352-3.8203-8.043-1.3281-0.55078-2.8086-0.60156-4.168-0.14062-3.7266 0.41797-22.27 0.18359-38.676-0.30859h-0.003906c-3.2578-0.097656-5.9805 2.4688-6.0781 5.7305-0.097656 3.2578 2.4688 5.9805 5.7266 6.0781 18.582 0.55469 29.133 0.50781 35.305 0.30859 0.47266 27.098 0.12891 144.95-0.26562 227.61l-12.164-0.003906c-1.5703-25.836-12.934-50.102-31.781-67.848-18.844-17.746-43.75-27.637-69.633-27.648-50.184 0-91.988 36.68-100.14 84.582v-0.003906c-5.0938-3.5117-11.133-5.3984-17.316-5.4102-6.6484 0.058594-13.105 2.2305-18.441 6.1992-7.8633-48.25-49.824-85.371-100.26-85.371-25.883 0.015624-50.789 9.9062-69.633 27.648-18.844 17.746-30.211 42.012-31.781 67.848h-12.469v-228.29h35.16c3.2617 0 5.9062-2.6406 5.9062-5.9023s-2.6445-5.9062-5.9062-5.9062h-40.738 0.003907c-3.3984 0.15234-6.1094 2.8828-6.2344 6.2812v240.1c0 3.2656 2.9727 5.5273 6.2344 5.5273h18.043c2.0039 35.543 22.469 67.441 53.941 84.082s69.355 15.59 99.859-2.7656c30.5-18.355 49.168-51.34 49.203-86.938 0-0.375-0.011719-0.69922-0.015625-1.0703 4.3359-6.1484 10.508-9.6211 17.121-9.6211 6.0312 0 11.621 2.9453 15.902 8.3047-0.019531 0.82031-0.03125 1.6484-0.03125 2.4727 0 56.016 45.574 101.41 101.59 101.41 25.977 0.074219 50.988-9.832 69.863-27.676s30.176-42.258 31.559-68.195h18.043c1.543 0.042969 3.0352-0.53516 4.1445-1.6055 1.1094-1.0703 1.7461-2.5391 1.7617-4.082 0-0.59766 0.29688-60.504 0.44141-119.79 0.085938-34.824 0.10547-62.5 0.058594-82.445-0.03125-11.855-0.085938-21.047-0.16016-27.32zm-361.61 223.77c11.066 0 21.379 5.6094 27.387 14.902 6.0078 9.293 6.8984 20.996 2.3594 31.09-4.5391 10.09-13.887 17.191-24.824 18.859v8.6094c0 3.2617-2.6445 5.9062-5.9062 5.9062-3.2617 0-5.9023-2.6445-5.9023-5.9062v-8.9766c-7.2812-1.582-13.801-5.6055-18.48-11.402-4.6758-5.7969-7.2344-13.02-7.2461-20.469 0-3.2617 2.6445-5.9062 5.9062-5.9062 3.2578 0 5.9023 2.6445 5.9023 5.9062 0 5.5156 2.1914 10.809 6.0938 14.711 3.9023 3.9023 9.1914 6.0938 14.711 6.0938 5.5156 0 10.809-2.1914 14.711-6.0938s6.0938-9.1914 6.0938-14.711c0-5.5156-2.1914-10.809-6.0938-14.711-3.9023-3.9023-9.1914-6.0938-14.711-6.0938-10.828 0-20.953-5.375-27.016-14.344-6.0664-8.9688-7.2852-20.367-3.25-30.418 4.0352-10.047 12.793-17.438 23.379-19.727v-8.668c0-3.2617 2.6406-5.9023 5.9023-5.9023 3.2617 0 5.9062 2.6406 5.9062 5.9023v8.3008c7.6992 1.1875 14.727 5.0898 19.805 11.004 5.0781 5.9102 7.875 13.441 7.8867 21.238 0 3.2578-2.6445 5.9023-5.9062 5.9023-3.2578 0-5.9023-2.6445-5.9023-5.9023 0-5.5195-2.1914-10.812-6.0938-14.711-3.9023-3.9023-9.1953-6.0938-14.711-6.0938-5.5195 0-10.809 2.1914-14.711 6.0938-3.9023 3.9023-6.0938 9.1953-6.0938 14.711 0 5.5195 2.1914 10.809 6.0938 14.711 3.9023 3.9023 9.1953 6.0938 14.711 6.0938zm236.16 0c11.066 0 21.379 5.6094 27.387 14.902 6.0117 9.293 6.8984 20.996 2.3594 31.09-4.5391 10.09-13.887 17.191-24.824 18.859v8.6094c0 3.2617-2.6445 5.9062-5.9062 5.9062-3.2578 0-5.9023-2.6445-5.9023-5.9062v-8.9766c-7.2812-1.582-13.801-5.6055-18.48-11.402-4.6758-5.7969-7.2344-13.02-7.2461-20.469 0-3.2617 2.6445-5.9062 5.9062-5.9062 3.2578 0 5.9023 2.6445 5.9023 5.9062 0 5.5156 2.1914 10.809 6.0938 14.711 3.9023 3.9023 9.1914 6.0938 14.711 6.0938s10.809-2.1914 14.711-6.0938c3.9023-3.9023 6.0938-9.1914 6.0938-14.711 0-5.5156-2.1914-10.809-6.0938-14.711-3.9023-3.9023-9.1914-6.0938-14.711-6.0938-10.828 0-20.949-5.375-27.016-14.344s-7.2852-20.367-3.25-30.418c4.0352-10.047 12.793-17.438 23.379-19.727v-8.668c0-3.2617 2.6445-5.9023 5.9023-5.9023 3.2617 0 5.9062 2.6406 5.9062 5.9023v8.3008c7.7031 1.1875 14.727 5.0898 19.805 11.004 5.0781 5.9102 7.875 13.441 7.8867 21.238 0 3.2578-2.6445 5.9023-5.9023 5.9023-3.2617 0-5.9062-2.6445-5.9062-5.9023 0-5.5195-2.1914-10.812-6.0938-14.711-3.9023-3.9023-9.1953-6.0938-14.711-6.0938-5.5195 0-10.809 2.1914-14.711 6.0938-3.9023 3.9023-6.0938 9.1953-6.0938 14.711 0 5.5195 2.1914 10.809 6.0938 14.711 3.9023 3.9023 9.1953 6.0938 14.711 6.0938z"/>
</svg>