<?xml version="1.0" encoding="UTF-8"?>
<!-- The Best Svg Icon site in the world: iconSvg.co, Visit us! https://iconsvg.co -->
<svg width="800px" height="800px" version="1.1" viewBox="144 144 512 512" xmlns="http://www.w3.org/2000/svg">
 <defs>
  <clipPath id="a">
   <path d="m148.09 195h503.81v456.9h-503.81z"/>
  </clipPath>
 </defs>
 <g clip-path="url(#a)">
  <path d="m565.31 518.08h31.488c2.0859 0 4.0898-0.82812 5.5664-2.3047 1.4727-1.4766 2.3047-3.4805 2.3047-5.5664v-31.488c0-2.0859-0.83203-4.0898-2.3047-5.5664-1.4766-1.4766-3.4805-2.3047-5.5664-2.3047h-31.488c-4.3477 0-7.875 3.5234-7.875 7.8711v31.488c0 2.0859 0.83203 4.0898 2.3086 5.5664 1.4766 1.4766 3.4766 2.3047 5.5664 2.3047zm7.8711-31.488h15.742v15.742l-15.742 0.003907zm-7.8711-55.102h31.488c2.0859 0 4.0898-0.83203 5.5664-2.3086 1.4727-1.4766 2.3047-3.4766 2.3047-5.5664v-31.488c0-2.0859-0.83203-4.0898-2.3047-5.5664-1.4766-1.4766-3.4805-2.3047-5.5664-2.3047h-31.488c-4.3477 0-7.875 3.5234-7.875 7.8711v31.488c0 2.0898 0.83203 4.0898 2.3086 5.5664 1.4766 1.4766 3.4766 2.3086 5.5664 2.3086zm7.8711-31.488h15.742v15.742h-15.742zm-369.98 31.488h31.488c2.0859 0 4.0898-0.83203 5.5664-2.3086 1.4766-1.4766 2.3047-3.4766 2.3047-5.5664v-31.488c0-2.0859-0.82812-4.0898-2.3047-5.5664-1.4766-1.4766-3.4805-2.3047-5.5664-2.3047h-31.488c-4.3477 0-7.875 3.5234-7.875 7.8711v31.488c0 2.0898 0.83203 4.0898 2.3086 5.5664 1.4766 1.4766 3.4766 2.3086 5.5664 2.3086zm7.8711-31.488h15.742v15.742h-15.742zm228.29-110.21h-78.723c-4.3477 0-7.8711 3.5273-7.8711 7.875 0 4.3477 3.5234 7.8711 7.8711 7.8711h78.723c4.3477 0 7.8711-3.5234 7.8711-7.8711 0-4.3477-3.5234-7.875-7.8711-7.875zm173.18-47.23h-7.8711v-15.746c0-11.25-6.0039-21.645-15.746-27.27-9.7422-5.625-21.746-5.625-31.488 0s-15.742 16.02-15.742 27.27v15.746h-283.39v-15.746c0-11.25-6-21.645-15.742-27.27-9.7422-5.625-21.746-5.625-31.488 0-9.7422 5.625-15.746 16.02-15.746 27.27v15.746h-15.742c-8.3516 0-16.359 3.3164-22.266 9.2227s-9.2227 13.914-9.2227 22.266v338.5c0 10.438 4.1484 20.449 11.527 27.832 7.3828 7.3828 17.395 11.527 27.832 11.527h425.09c10.438 0 20.449-4.1445 27.832-11.527s11.527-17.395 11.527-27.832v-330.62c0-10.438-4.1445-20.449-11.527-27.832-7.3828-7.3828-17.395-11.527-27.832-11.527zm-55.105-15.746c0-5.625 3.0039-10.82 7.875-13.633s10.871-2.8125 15.742 0c4.8711 2.8125 7.8711 8.0078 7.8711 13.633v47.234c0 5.625-3 10.82-7.8711 13.633-4.8711 2.8125-10.871 2.8125-15.742 0s-7.875-8.0078-7.875-13.633zm-346.37 0c0-5.625 3-10.82 7.8711-13.633s10.875-2.8125 15.746 0 7.8711 8.0078 7.8711 13.633v47.234c0 5.625-3 10.82-7.8711 13.633s-10.875 2.8125-15.746 0-7.8711-8.0078-7.8711-13.633zm425.09 385.73c0 6.2617-2.4883 12.27-6.918 16.699-4.4297 4.4297-10.438 6.918-16.699 6.918h-425.09c-6.2617 0-12.27-2.4883-16.699-6.918-4.4297-4.4297-6.918-10.438-6.918-16.699v-259.78h472.32zm0-275.52h-472.32v-62.977c0-4.1758 1.6602-8.1797 4.6133-11.133 2.9531-2.9531 6.957-4.6133 11.133-4.6133h15.742v15.746c0 11.25 6.0039 21.645 15.746 27.27 9.7422 5.625 21.746 5.625 31.488 0 9.7422-5.625 15.742-16.02 15.742-27.27v-15.746h283.39v15.746c0 11.25 6 21.645 15.742 27.27s21.746 5.625 31.488 0c9.7422-5.625 15.746-16.02 15.746-27.27v-15.746h7.8711c6.2617 0 12.27 2.4883 16.699 6.918 4.4297 4.4297 6.918 10.438 6.918 16.699zm-432.96 267.65h31.488c2.0859 0 4.0898-0.83203 5.5664-2.3047 1.4766-1.4766 2.3047-3.4805 2.3047-5.5664v-31.488c0-2.0898-0.82812-4.0898-2.3047-5.5664-1.4766-1.4766-3.4805-2.3086-5.5664-2.3086h-31.488c-4.3477 0-7.875 3.5273-7.875 7.875v31.488c0 2.0859 0.83203 4.0898 2.3086 5.5664 1.4766 1.4727 3.4766 2.3047 5.5664 2.3047zm7.8711-31.488h15.742v15.742h-15.742zm196.8-39.359h-15.746c-4.1758 0-8.1797-1.6602-11.133-4.6133-2.9492-2.9531-4.6094-6.957-4.6094-11.133 0-4.3477-3.5234-7.8711-7.8711-7.8711-4.3477 0-7.875 3.5234-7.875 7.8711 0 8.3516 3.3203 16.359 9.2227 22.266 5.9062 5.9062 13.914 9.2227 22.266 9.2227v7.8711c0 4.3477 3.5273 7.875 7.875 7.875s7.8711-3.5273 7.8711-7.875v-7.8711c11.25 0 21.645-6 27.27-15.742 5.625-9.7422 5.625-21.746 0-31.488-5.625-9.7422-16.02-15.746-27.27-15.746h-15.746c-5.625 0-10.82-3-13.633-7.8711s-2.8125-10.871 0-15.742c2.8125-4.875 8.0078-7.875 13.633-7.875h15.746c4.1758 0 8.1797 1.6602 11.133 4.6133s4.6094 6.957 4.6094 11.133c0 4.3477 3.5273 7.8711 7.875 7.8711 4.3477 0 7.8711-3.5234 7.8711-7.8711 0-8.3516-3.3164-16.359-9.2227-22.266s-13.914-9.2227-22.266-9.2227v-7.8711c0-4.3477-3.5234-7.875-7.8711-7.875s-7.875 3.5273-7.875 7.875v7.8711c-11.25 0-21.645 6-27.27 15.742-5.625 9.7422-5.625 21.746 0 31.488 5.625 9.7422 16.02 15.746 27.27 15.746h15.746c5.625 0 10.82 3 13.633 7.8711 2.8125 4.8711 2.8125 10.871 0 15.742-2.8125 4.8711-8.0078 7.875-13.633 7.875zm-204.67-15.742h31.488v-0.003906c2.0859 0 4.0898-0.82812 5.5664-2.3047 1.4766-1.4766 2.3047-3.4805 2.3047-5.5664v-31.488c0-2.0859-0.82812-4.0898-2.3047-5.5664-1.4766-1.4766-3.4805-2.3047-5.5664-2.3047h-31.488c-4.3477 0-7.875 3.5234-7.875 7.8711v31.488c0 2.0859 0.83203 4.0898 2.3086 5.5664 1.4766 1.4766 3.4766 2.3047 5.5664 2.3047zm7.8711-31.488 15.742-0.003906v15.742l-15.742 0.003907zm354.24 118.08h31.488c2.0859 0 4.0898-0.83203 5.5664-2.3047 1.4727-1.4766 2.3047-3.4805 2.3047-5.5664v-31.488c0-2.0898-0.83203-4.0898-2.3047-5.5664-1.4766-1.4766-3.4805-2.3086-5.5664-2.3086h-31.488c-4.3477 0-7.875 3.5273-7.875 7.875v31.488c0 2.0859 0.83203 4.0898 2.3086 5.5664 1.4766 1.4727 3.4766 2.3047 5.5664 2.3047zm7.8711-31.488h15.742v15.742h-15.742zm-173.18 31.488c29.227 0 57.258-11.613 77.926-32.281s32.281-48.699 32.281-77.93c0-29.227-11.613-57.258-32.281-77.926-20.668-20.668-48.699-32.281-77.926-32.281-29.23 0-57.262 11.613-77.93 32.281-20.668 20.668-32.281 48.699-32.281 77.926 0.035157 29.219 11.656 57.234 32.316 77.895 20.66 20.66 48.676 32.281 77.895 32.316zm0-204.67c25.051 0 49.078 9.9492 66.793 27.668 17.719 17.715 27.668 41.742 27.668 66.793 0 25.055-9.9492 49.082-27.668 66.797-17.715 17.719-41.742 27.668-66.793 27.668-25.055 0-49.082-9.9492-66.797-27.668-17.715-17.715-27.668-41.742-27.668-66.797 0.027344-25.043 9.9883-49.055 27.699-66.762 17.711-17.711 41.719-27.672 66.766-27.699z"/>
 </g>
</svg>