<?xml version="1.0" encoding="UTF-8"?>
<!-- The Best Svg Icon site in the world: iconSvg.co, Visit us! https://iconsvg.co -->
<svg fill="#000000" width="800px" height="800px" version="1.1" viewBox="144 144 512 512" xmlns="http://www.w3.org/2000/svg">
 <g>
  <path d="m226.81 596.8c0 6.2617 2.4883 12.27 6.918 16.699 4.4297 4.4258 10.438 6.9141 16.699 6.9141h219.05c-7.4258-4.4297-14.309-9.7109-20.508-15.742h-198.54c-4.3477 0-7.8711-3.5234-7.8711-7.8711v-346.37c0-4.3477 3.5234-7.8711 7.8711-7.8711h55.105v-15.746h-55.105c-6.2617 0-12.27 2.4883-16.699 6.918-4.4297 4.4297-6.918 10.438-6.918 16.699z"/>
  <path d="m525.95 462.98c-16.699 0-32.719 6.6328-44.527 18.445-11.812 11.809-18.445 27.828-18.445 44.527 0 16.703 6.6328 32.723 18.445 44.531 11.809 11.812 27.828 18.445 44.527 18.445 16.703 0 32.723-6.6328 44.531-18.445 11.812-11.809 18.445-27.828 18.445-44.531-0.015625-16.695-6.6602-32.703-18.465-44.508-11.805-11.809-27.812-18.449-44.512-18.465zm-7.8711 55.105h15.742l0.003907-0.003906c8.4375 0 16.23 4.5 20.449 11.809 4.2188 7.3086 4.2188 16.309 0 23.617-4.2188 7.3047-12.012 11.809-20.449 11.809v7.8711c0 4.3477-3.5273 7.8711-7.875 7.8711-4.3477 0-7.8711-3.5234-7.8711-7.8711v-7.8711c-6.2617 0-12.27-2.4883-16.699-6.918-4.4297-4.4297-6.918-10.438-6.918-16.699 0-4.3477 3.5273-7.8711 7.875-7.8711 4.3477 0 7.8711 3.5234 7.8711 7.8711 0 2.0859 0.82812 4.0898 2.3047 5.5664 1.4766 1.4766 3.4805 2.3047 5.5664 2.3047h15.746c4.3477 0 7.8711-3.5234 7.8711-7.8711 0-4.3477-3.5234-7.8711-7.8711-7.8711h-15.746c-8.4375 0-16.234-4.5039-20.453-11.809-4.2188-7.3086-4.2188-16.309 0-23.617 4.2188-7.3047 12.016-11.809 20.453-11.809v-7.8711c0-4.3477 3.5234-7.8711 7.8711-7.8711 4.3477 0 7.875 3.5234 7.875 7.8711v7.8711c6.2617 0 12.27 2.4883 16.699 6.918 4.4258 4.4297 6.9141 10.438 6.9141 16.699 0 4.3477-3.5234 7.8711-7.8711 7.8711s-7.8711-3.5234-7.8711-7.8711c0-2.0898-0.82812-4.0898-2.3047-5.5664s-3.4805-2.3047-5.5664-2.3047h-15.746c-4.3477 0-7.8711 3.5234-7.8711 7.8711 0 4.3477 3.5234 7.8711 7.8711 7.8711z"/>
  <path d="m355.52 211.07h-26.375c-4.3477 0-7.8711 3.5234-7.8711 7.8711v39.359h157.44v-39.359c0-2.0859-0.82812-4.0898-2.3047-5.5664-1.4766-1.4766-3.4805-2.3047-5.5664-2.3047h-26.371c-3.3477 0-6.332-2.1211-7.4336-5.2812-3.6289-10.281-11.371-18.59-21.367-22.941-10-4.3516-21.355-4.3516-31.352 0-10 4.3516-17.738 12.66-21.371 22.941-1.1016 3.1602-4.082 5.2812-7.4297 5.2812z"/>
  <path d="m525.95 431.49c-25.051 0-49.078 9.9492-66.793 27.668-17.719 17.715-27.668 41.742-27.668 66.793 0 25.055 9.9492 49.082 27.668 66.797 17.715 17.715 41.742 27.668 66.793 27.668 25.055 0 49.082-9.9531 66.797-27.668s27.668-41.742 27.668-66.797c-0.027343-25.043-9.9883-49.055-27.695-66.766-17.711-17.707-41.723-27.668-66.77-27.695zm0 173.18c-20.875 0-40.898-8.293-55.66-23.059-14.766-14.762-23.059-34.785-23.059-55.664 0-20.875 8.293-40.898 23.059-55.66 14.762-14.766 34.785-23.059 55.66-23.059 20.879 0 40.902 8.293 55.664 23.059 14.766 14.762 23.059 34.785 23.059 55.66-0.023437 20.871-8.3242 40.883-23.082 55.641-14.758 14.758-34.77 23.059-55.641 23.082z"/>
  <path d="m305.54 266.18v-7.875h-47.234v330.62h177.34c-16.723-23.555-23.477-52.758-18.793-81.266 4.6797-28.508 20.418-54.016 43.793-70.988 23.375-16.977 52.504-24.043 81.059-19.668v-158.7h-47.234v7.875c0 2.0859-0.82813 4.0898-2.3047 5.5664-1.4766 1.4727-3.4766 2.3047-5.5664 2.3047h-173.18c-4.3477 0-7.8711-3.5234-7.8711-7.8711zm7.8711 291.27-15.742-0.003906c-4.3477 0-7.875-3.5234-7.875-7.8711s3.5273-7.8711 7.875-7.8711h15.742c4.3477 0 7.8711 3.5234 7.8711 7.8711s-3.5234 7.8711-7.8711 7.8711zm0-47.23-15.742-0.003907c-4.3477 0-7.875-3.5234-7.875-7.8711 0-4.3477 3.5273-7.875 7.875-7.875h15.742c4.3477 0 7.8711 3.5273 7.8711 7.875 0 4.3477-3.5234 7.8711-7.8711 7.8711zm0-47.23-15.742-0.003907c-4.3477 0-7.875-3.5273-7.875-7.875 0-4.3477 3.5273-7.8711 7.875-7.8711h15.742c4.3477 0 7.8711 3.5234 7.8711 7.8711 0 4.3477-3.5234 7.875-7.8711 7.875zm0-47.23-15.742-0.007812c-4.3477 0-7.875-3.5234-7.875-7.8711s3.5273-7.8711 7.875-7.8711h15.742c4.3477 0 7.8711 3.5234 7.8711 7.8711s-3.5234 7.8711-7.8711 7.8711zm0-47.23-15.742-0.007812c-4.3477 0-7.875-3.5273-7.875-7.875 0-4.3477 3.5273-7.8711 7.875-7.8711h15.742c4.3477 0 7.8711 3.5234 7.8711 7.8711 0 4.3477-3.5234 7.875-7.8711 7.875zm31.488-62.977 157.44-0.007813c4.3477 0 7.8711 3.5234 7.8711 7.8711s-3.5234 7.8711-7.8711 7.8711h-157.44c-4.3477 0-7.8711-3.5234-7.8711-7.8711s3.5234-7.8711 7.8711-7.8711zm0 47.23 157.44-0.007813c4.3477 0 7.8711 3.5234 7.8711 7.8711 0 4.3477-3.5234 7.875-7.8711 7.875h-157.44c-4.3477 0-7.8711-3.5273-7.8711-7.875 0-4.3477 3.5234-7.8711 7.8711-7.8711zm0 47.23 133.82-0.003906c4.3477 0 7.8711 3.5234 7.8711 7.8711s-3.5234 7.8711-7.8711 7.8711h-133.82c-4.3477 0-7.8711-3.5234-7.8711-7.8711s3.5234-7.8711 7.8711-7.8711zm0 47.23h62.977v-0.003906c4.3477 0 7.8711 3.5234 7.8711 7.8711 0 4.3477-3.5234 7.875-7.8711 7.875h-62.977c-4.3477 0-7.8711-3.5273-7.8711-7.875 0-4.3477 3.5234-7.8711 7.8711-7.8711zm0 47.23h47.23v-0.003906c4.3477 0 7.875 3.5273 7.875 7.875 0 4.3477-3.5273 7.8711-7.875 7.8711h-47.23c-4.3477 0-7.8711-3.5234-7.8711-7.8711 0-4.3477 3.5234-7.875 7.8711-7.875zm0 47.23h47.23c4.3477 0 7.875 3.5234 7.875 7.8711s-3.5273 7.8711-7.875 7.8711h-47.23c-4.3477 0-7.8711-3.5234-7.8711-7.8711s3.5234-7.8711 7.8711-7.8711zm-23.617-228.29c0 2.0859-0.82812 4.0898-2.3047 5.5664-1.4766 1.4766-3.4805 2.3047-5.5664 2.3047h-15.742c-4.3477 0-7.875-3.5234-7.875-7.8711s3.5273-7.8711 7.875-7.8711h15.742c2.0859 0 4.0898 0.82812 5.5664 2.3047 1.4766 1.4766 2.3047 3.4805 2.3047 5.5664z"/>
  <path d="m573.18 426.53v-176.1c0-6.2617-2.4883-12.27-6.918-16.699-4.4297-4.4297-10.434-6.918-16.699-6.918h-55.105v15.742h55.105v0.003906c2.0898 0 4.0898 0.82812 5.5664 2.3047 1.4766 1.4766 2.3047 3.4805 2.3047 5.5664v169.96c5.3984 1.6367 10.664 3.6914 15.746 6.1406z"/>
 </g>
</svg>