<?xml version="1.0" encoding="UTF-8"?>
<!-- The Best Svg Icon site in the world: iconSvg.co, Visit us! https://iconsvg.co -->
<svg fill="#000000" width="800px" height="800px" version="1.1" viewBox="144 144 512 512" xmlns="http://www.w3.org/2000/svg">
 <g>
  <path d="m504.96 169.09h-209.92c-8.3516 0-16.359 3.3164-22.266 9.2227s-9.2227 13.914-9.2227 22.266v398.85c0 8.3516 3.3164 16.363 9.2227 22.266 5.9062 5.9062 13.914 9.2227 22.266 9.2227h209.92c8.3516 0 16.363-3.3164 22.266-9.2227 5.9062-5.9023 9.2227-13.914 9.2227-22.266v-398.85c0-8.3516-3.3164-16.359-9.2227-22.266-5.9023-5.9062-13.914-9.2227-22.266-9.2227zm-52.477 20.992v10.496h-104.96v-10.496zm62.977 409.34h-0.003906c0 2.7852-1.1055 5.4531-3.0742 7.4219-1.9648 1.9688-4.6367 3.0742-7.4219 3.0742h-209.92c-5.7969 0-10.496-4.6992-10.496-10.496v-398.85c0-5.7969 4.6992-10.496 10.496-10.496h31.488v10.496c0 5.5664 2.2109 10.906 6.1484 14.844s9.2734 6.1484 14.844 6.1484h104.96c5.5664 0 10.906-2.2109 14.844-6.1484 3.9336-3.9375 6.1484-9.2773 6.1484-14.844v-10.496h31.488-0.003907c2.7852 0 5.457 1.1055 7.4219 3.0742 1.9688 1.9688 3.0742 4.6367 3.0742 7.4219z"/>
  <path d="m462.98 578.43h-125.95c-5.7969 0-10.496 4.6992-10.496 10.496s4.6992 10.496 10.496 10.496h125.95c5.7969 0 10.496-4.6992 10.496-10.496s-4.6992-10.496-10.496-10.496z"/>
  <path d="m483.96 452.48h-10.492v-62.977h10.496-0.003906c4.5195 0 8.5312-2.8906 9.9609-7.1797 1.4258-4.2852-0.046875-9.0039-3.6602-11.715l-83.969-62.977c-3.7344-2.7969-8.8633-2.7969-12.598 0l-83.969 62.977h0.003906c-3.6172 2.7109-5.0898 7.4297-3.6602 11.715 1.4258 4.2891 5.4375 7.1797 9.957 7.1797h10.496v62.977h-10.496c-5.7969 0-10.496 4.6992-10.496 10.496 0 5.7969 4.6992 10.496 10.496 10.496h167.93c5.7969 0 10.496-4.6992 10.496-10.496 0-5.7969-4.6992-10.496-10.496-10.496zm-83.965-123.33 52.48 39.363h-104.96zm-20.992 91.844h41.984v31.488h-41.984zm41.984-20.992h-41.984v-10.496h41.984zm-73.473 52.48v-62.977h10.496v62.977zm94.465 0v-62.977h10.496v62.977z"/>
 </g>
</svg>