<?xml version="1.0" encoding="UTF-8"?>
<!-- The Best Svg Icon site in the world: iconSvg.co, Visit us! https://iconsvg.co -->
<svg fill="#000000" width="800px" height="800px" version="1.1" viewBox="144 144 512 512" xmlns="http://www.w3.org/2000/svg">
 <g>
  <path d="m401.41 437.28c-6.5781 0-12.883-2.6133-17.535-7.2617-4.6484-4.6484-7.2617-10.957-7.2617-17.535 0-6.5742 2.6133-12.883 7.2617-17.531 4.6523-4.6523 10.957-7.2656 17.535-7.2656 6.5742 0 12.883 2.6133 17.535 7.2656 4.6484 4.6484 7.2617 10.957 7.2617 17.531 0.11328 2.4102 2.0977 4.3086 4.5117 4.3086 2.4102 0 4.3984-1.8984 4.5117-4.3086-0.011718-8.1875-2.9844-16.094-8.3789-22.254-5.3906-6.1641-12.832-10.164-20.945-11.262v-11.809 0.003906c0-2.4961-2.0234-4.5195-4.5156-4.5195-2.4961 0-4.5156 2.0234-4.5156 4.5195v11.809-0.003906c-11.438 1.5469-21.297 8.8203-26.152 19.289-4.8555 10.473-4.0352 22.695 2.1758 32.426 6.207 9.7266 16.949 15.617 28.492 15.621 8.6367 0 16.918 3.4297 23.023 9.5391 6.1055 6.1055 9.5352 14.387 9.5352 23.023 0 8.6367-3.4297 16.918-9.5352 23.023-6.1055 6.1055-14.387 9.5352-23.023 9.5352s-16.918-3.4297-23.023-9.5352c-6.1094-6.1055-9.5391-14.387-9.5391-23.023 0-2.4961-2.0195-4.5156-4.5156-4.5156s-4.5156 2.0195-4.5156 4.5156c0.015625 10.242 3.8047 20.121 10.645 27.742 6.8398 7.625 16.25 12.461 26.434 13.586v11.809c0 2.4922 2.0195 4.5156 4.5156 4.5156 2.4922 0 4.5156-2.0234 4.5156-4.5156v-11.809c14.234-1.5547 26.668-10.324 32.91-23.211s5.4141-28.078-2.1914-40.211c-7.6055-12.133-20.918-19.5-35.234-19.5z"/>
  <path d="m547.46 339.97c-18.328-22.066-45.535-34.816-74.223-34.781h-68.723v-1.9688c104.71-3.9648 108.45-102.52 108.48-103.52 0.054687-2.4883-1.9102-4.5547-4.3984-4.625h-0.32422c-0.36328-0.11719-0.74219-0.1875-1.1211-0.21484-0.87891-0.039062-75.848-2.7852-102.89 65.406-1.2734-12.996-7.3359-25.055-17.004-33.832-9.668-8.7773-22.254-13.648-35.312-13.664-2.4961 0-4.5195 2.0195-4.5195 4.5156 0 2.4961 2.0234 4.5156 4.5195 4.5156 11.543 0.015624 22.609 4.6055 30.773 12.77 8.1641 8.1602 12.754 19.23 12.766 30.773v39.773h-68.723c-28.688-0.007813-55.898 12.738-74.258 34.785s-25.969 51.113-20.766 79.328l20.516 111.52v0.003906c3.8398 20.883 14.879 39.762 31.199 53.352 16.316 13.59 36.883 21.031 58.121 21.027h116.8c21.234 0.003907 41.801-7.4375 58.117-21.027 16.32-13.59 27.359-32.469 31.199-53.352l20.574-111.52c5.2148-28.199-2.4141-57.254-20.801-79.262zm-43.809-136.1c-1.7891 17.832-13.637 82.656-91.277 89.781l63.625-57.535h0.003906c1.7539-1.6914 1.8438-4.4727 0.20703-6.2773-1.6367-1.8086-4.4102-1.9922-6.2695-0.41406l-63.824 57.711c13.738-77.961 81.949-83.105 97.535-83.266zm55.754 213.73-20.574 111.53c-3.4609 18.809-13.402 35.809-28.094 48.047-14.695 12.238-33.215 18.938-52.34 18.934h-116.8c-19.121 0.003906-37.641-6.6953-52.336-18.934-14.695-12.238-24.637-29.238-28.098-48.047l-20.523-111.53c-4.6992-25.566 2.1992-51.902 18.836-71.875 16.637-19.977 41.285-31.527 67.281-31.531h146.48c26.004-0.011718 50.668 11.535 67.316 31.512 16.645 19.977 23.555 46.32 18.852 71.895z"/>
 </g>
</svg>