<?xml version="1.0" encoding="UTF-8"?>
<!-- The Best Svg Icon site in the world: iconSvg.co, Visit us! https://iconsvg.co -->
<svg fill="#000000" width="800px" height="800px" version="1.1" viewBox="144 144 512 512" xmlns="http://www.w3.org/2000/svg">
 <g>
  <path d="m400 612.54c18.789 0 36.809-7.4648 50.098-20.75 13.285-13.289 20.75-31.309 20.75-50.098 0-18.789-7.4648-36.812-20.75-50.098-13.289-13.285-31.309-20.75-50.098-20.75-18.793 0-36.812 7.4648-50.098 20.75-13.289 13.285-20.754 31.309-20.754 50.098 0.023437 18.781 7.4961 36.789 20.777 50.07s31.289 20.754 50.074 20.777zm0-125.95c14.613 0 28.629 5.8047 38.965 16.141 10.332 10.332 16.137 24.352 16.137 38.965 0 14.613-5.8047 28.629-16.137 38.965-10.336 10.332-24.352 16.141-38.965 16.141-14.617 0-28.633-5.8086-38.965-16.141-10.336-10.336-16.141-24.352-16.141-38.965 0.015625-14.609 5.8281-28.617 16.156-38.945 10.332-10.332 24.34-16.141 38.949-16.16z"/>
  <path d="m392.12 494.46v7.875c-8.4375 0-16.23 4.5-20.449 11.809-4.2188 7.3047-4.2188 16.309 0 23.613 4.2188 7.3086 12.012 11.809 20.449 11.809h15.746c4.3477 0 7.8711 3.5234 7.8711 7.8711s-3.5234 7.875-7.8711 7.875h-15.746c-4.3477 0-7.8711-3.5273-7.8711-7.875s-3.5234-7.8711-7.8711-7.8711c-4.3477 0-7.8711 3.5234-7.8711 7.8711 0 6.2656 2.4883 12.273 6.9141 16.699 4.4297 4.4297 10.438 6.918 16.699 6.918v7.8711c0 4.3477 3.5273 7.875 7.875 7.875s7.8711-3.5273 7.8711-7.875v-7.8711c8.4375 0 16.234-4.5 20.453-11.809 4.2188-7.3047 4.2188-16.309 0-23.613-4.2188-7.3086-12.016-11.809-20.453-11.809h-15.746c-4.3477 0-7.8711-3.5273-7.8711-7.875 0-4.3477 3.5234-7.8711 7.8711-7.8711h15.746c2.0859 0 4.0898 0.83203 5.5664 2.3047 1.4766 1.4766 2.3047 3.4805 2.3047 5.5664 0 4.3477 3.5234 7.875 7.8711 7.875 4.3477 0 7.875-3.5273 7.875-7.875 0-6.2617-2.4883-12.27-6.918-16.699-4.4297-4.4258-10.438-6.9141-16.699-6.9141v-7.875c0-4.3477-3.5234-7.8711-7.8711-7.8711s-7.875 3.5234-7.875 7.8711z"/>
  <path d="m573.18 447.23h-159.57l48.336-83.602 6.7695 3.9375c2.0742 1.1367 4.5352 1.3359 6.7695 0.55078 2.1797-0.87891 3.875-2.6602 4.6445-4.8828l5.9844-17.711h-0.003906c2.6133 0.34375 5.2422 0.52734 7.875 0.55078 31.938-1.7656 60.961-19.133 77.617-46.445 11.125-19.234 12.578-42.574 3.9297-63.043-8.6484-20.465-26.398-35.691-47.941-41.121-21.547-5.4336-44.395-0.44141-61.711 13.48-6.9141-17.82-20.75-32.078-38.352-39.523-17.602-7.4492-37.469-7.4492-55.074 0-17.602 7.4453-31.438 21.703-38.352 39.523-17.316-13.922-40.164-18.914-61.711-13.48-21.543 5.4297-39.293 20.656-47.941 41.121-8.6484 20.469-7.1914 43.809 3.9297 63.043 16.656 27.312 45.68 44.68 77.621 46.445 2.6328-0.023438 5.2617-0.20703 7.8711-0.55078l5.9844 17.711h-0.003906c0.77344 2.2227 2.4648 4.0039 4.6445 4.8828 2.2344 0.78516 4.6953 0.58594 6.7734-0.55078l6.7695-3.9375 48.332 83.602h-159.57c-4.3477 0-7.8711 3.5234-7.8711 7.8711v173.19c0 2.0859 0.82812 4.0898 2.3047 5.5664 1.4766 1.4727 3.4805 2.3047 5.5664 2.3047h346.37c2.0859 0 4.0898-0.83203 5.5664-2.3047 1.4766-1.4766 2.3047-3.4805 2.3047-5.5664v-173.19c0-2.0859-0.82813-4.0898-2.3047-5.5664-1.4766-1.4766-3.4805-2.3047-5.5664-2.3047zm-131.7-95.41 6.7695 3.9375-40.383 69.98v-80.844h7.8711c2.3633 0.019531 4.6016-1.0586 6.0625-2.9141 1.5117-1.8125 2.1211-4.2148 1.6523-6.5312l-3.6992-18.344c7.7578-3.2773 14.832-7.9766 20.859-13.855 2.3359 8.1367 6.1523 15.77 11.258 22.516l-12.359 14.012c-1.5781 1.7539-2.2734 4.1289-1.8906 6.457 0.38672 2.3438 1.8008 4.3945 3.8594 5.5859zm26.766-2.7539-10.547-6.1406 5.5117-6.2188c1.1797 0.86719 2.4414 1.7305 3.6992 2.5195 1.2578 0.78906 2.6758 1.3398 4.0156 1.9688zm2.0469-122.64c12.457-13.191 30.613-19.395 48.539-16.578 17.922 2.8164 33.305 14.285 41.117 30.664 7.8125 16.375 7.0469 35.547-2.043 51.25-15.586 27.078-57.859 48.414-83.129 33.77-12.531-8.5781-20.406-22.465-21.332-37.625 10.863-15.664 16.91-34.16 17.398-53.215-0.027344-2.7656-0.21094-5.5234-0.55078-8.2656zm-70.297-46.84c14.609 0.015625 28.613 5.8281 38.945 16.156 10.328 10.332 16.141 24.34 16.156 38.949 0 31.25-25.977 70.848-55.105 70.848-29.125 0-55.105-39.598-55.105-70.848h0.003906c0.015625-14.609 5.8281-28.617 16.156-38.949 10.332-10.328 24.34-16.141 38.949-16.156zm6.1406 149.57-12.281-0.003906 1.6523-8.1875v0.003906c2.9766 0.41797 5.9961 0.41797 8.9727 0zm-69.117 16.844-5.2734 3.0703-2.6758-7.8711c1.3398-0.62891 2.6758-1.2578 4.0156-1.9688 1.3398-0.70703 2.5195-1.6523 3.6992-2.5195l5.5117 6.2188zm-11.809-20.469c-25.27 14.641-67.543-6.6914-83.129-33.77-9.0898-15.703-9.8555-34.875-2.043-51.25 7.8125-16.379 23.195-27.848 41.117-30.664 17.926-2.8164 36.086 3.3867 48.543 16.578-0.34375 2.7422-0.52734 5.5-0.55469 8.2656 0.48828 19.055 6.5352 37.551 17.398 53.215-0.92578 15.16-8.7969 29.047-21.332 37.625zm26.527 30.23 6.7695-3.9375c2.0586-1.1914 3.4727-3.2422 3.8594-5.5859 0.38281-2.3281-0.3125-4.7031-1.8906-6.457l-12.359-14.012c5.1094-6.7461 8.9258-14.379 11.258-22.516 6.0273 5.8789 13.105 10.578 20.859 13.855l-3.6992 18.344c-0.46875 2.3164 0.14063 4.7188 1.6523 6.5312 1.4648 1.8555 3.6992 2.9336 6.0625 2.9141h7.8711v80.844zm-117.05 107.22h38.652-0.003906c-1.6289 9.6562-6.2266 18.566-13.156 25.492-6.9258 6.9258-15.836 11.527-25.492 13.156zm0 157.44v-38.656c9.6562 1.6328 18.566 6.2305 25.492 13.156 6.9297 6.9297 11.527 15.84 13.156 25.496zm330.62 0-38.652-0.003907c1.6328-9.6562 6.2305-18.566 13.156-25.496 6.9258-6.9258 15.836-11.523 25.496-13.156zm0-54.555c-13.855 1.7539-26.734 8.0664-36.609 17.945-9.875 9.875-16.188 22.75-17.945 36.605h-221.52c-1.7578-13.855-8.0703-26.73-17.945-36.605-9.875-9.8789-22.754-16.191-36.605-17.945v-48.336c13.852-1.7578 26.73-8.0703 36.605-17.945s16.188-22.754 17.945-36.605h221.52c1.7578 13.852 8.0703 26.73 17.945 36.605s22.754 16.188 36.609 17.945zm0-64.234v-0.003906c-9.6602-1.6289-18.57-6.2305-25.496-13.156-6.9258-6.9258-11.523-15.836-13.156-25.492h38.652z"/>
  <path d="m494.46 549.57h23.617c4.3477 0 7.8711-3.5234 7.8711-7.8711 0-4.3477-3.5234-7.8711-7.8711-7.8711h-23.617c-4.3477 0-7.8711 3.5234-7.8711 7.8711 0 4.3477 3.5234 7.8711 7.8711 7.8711z"/>
  <path d="m281.92 549.57h23.617c4.3477 0 7.8711-3.5234 7.8711-7.8711 0-4.3477-3.5234-7.8711-7.8711-7.8711h-23.617c-4.3477 0-7.8711 3.5234-7.8711 7.8711 0 4.3477 3.5234 7.8711 7.8711 7.8711z"/>
  <path d="m400 211.07c6.2617 0 12.27 2.4883 16.699 6.918 4.4258 4.4258 6.9141 10.434 6.9141 16.699 0 4.3477 3.5273 7.8711 7.875 7.8711 4.3477 0 7.8711-3.5234 7.8711-7.8711-0.011719-10.438-4.1641-20.441-11.543-27.82-7.3789-7.3789-17.383-11.527-27.816-11.543-4.3477 0-7.875 3.5273-7.875 7.875 0 4.3477 3.5273 7.8711 7.875 7.8711z"/>
  <path d="m522.02 243.76c5.4297 3.1289 9.3945 8.2891 11.02 14.344 1.625 6.0547 0.77344 12.504-2.3594 17.934-1.0625 1.8086-1.3555 3.9648-0.82031 5.9922 0.53516 2.0273 1.8594 3.7578 3.6719 4.8047 1.8164 1.0469 3.9766 1.3281 6 0.78125 2.0234-0.55078 3.7461-1.8828 4.7812-3.707 5.207-9.043 6.6133-19.781 3.9141-29.863-2.7031-10.078-9.2891-18.676-18.32-23.902-3.7617-2.1406-8.543-0.83984-10.707 2.9062-2.1641 3.7461-0.89844 8.5391 2.8359 10.727z"/>
  <path d="m270.11 230.13c-3.7305 2.1875-5 6.9805-2.8359 10.727 2.1641 3.7461 6.9453 5.0469 10.707 2.9062 5.4297-3.1328 11.879-3.9844 17.934-2.3594 6.0547 1.625 11.215 5.5898 14.344 11.02 1.0352 1.8242 2.7578 3.1562 4.7812 3.707 2.0234 0.54688 4.1836 0.26953 5.9961-0.78125 1.8164-1.0469 3.1406-2.7773 3.6758-4.8047 0.53516-2.0273 0.24219-4.1836-0.82031-5.9922-5.2227-9.0391-13.82-15.637-23.906-18.34-10.082-2.7031-20.828-1.2969-29.875 3.918z"/>
 </g>
</svg>