<?xml version="1.0" encoding="UTF-8"?>
<!-- The Best Svg Icon site in the world: iconSvg.co, Visit us! https://iconsvg.co -->
<svg fill="#000000" width="800px" height="800px" version="1.1" viewBox="144 144 512 512" xmlns="http://www.w3.org/2000/svg">
 <path d="m557.44 352.77c0 4.1758-1.6562 8.1797-4.6094 11.133-2.9531 2.9531-6.957 4.6133-11.133 4.6133h-283.39c-5.625 0-10.82-3.0039-13.633-7.875-2.8125-4.8711-2.8125-10.871 0-15.742 2.8125-4.8711 8.0078-7.8711 13.633-7.8711h283.39c4.1758 0 8.1797 1.6562 11.133 4.6094 2.9531 2.9531 4.6094 6.957 4.6094 11.133zm31.488-110.21h-377.86c-5.625 0-10.824 3-13.637 7.8711-2.8125 4.8711-2.8125 10.875 0 15.746 2.8125 4.8711 8.0117 7.8711 13.637 7.8711h377.86c5.625 0 10.824-3 13.637-7.8711 2.8125-4.8711 2.8125-10.875 0-15.746-2.8125-4.8711-8.0117-7.8711-13.637-7.8711zm-94.465 188.93h-188.93c-5.625 0-10.824 3-13.637 7.8711s-2.8125 10.871 0 15.742c2.8125 4.8711 8.0117 7.875 13.637 7.875h188.93c5.625 0 10.824-3.0039 13.637-7.875 2.8125-4.8711 2.8125-10.871 0-15.742s-8.0117-7.8711-13.637-7.8711zm-47.23 94.465-94.465-0.003906c-5.625 0-10.82 3.0039-13.633 7.875-2.8125 4.8711-2.8125 10.871 0 15.742s8.0078 7.8711 13.633 7.8711h94.465c5.625 0 10.824-3 13.637-7.8711s2.8125-10.871 0-15.742c-2.8125-4.8711-8.0117-7.875-13.637-7.875z"/>
</svg>