<?xml version="1.0" encoding="UTF-8"?>
<!-- The Best Svg Icon site in the world: iconSvg.co, Visit us! https://iconsvg.co -->
<svg fill="#000000" width="800px" height="800px" version="1.1" viewBox="144 144 512 512" xmlns="http://www.w3.org/2000/svg">
 <g>
  <path d="m395.54 516.77c-7.7617-0.58594-15.52-3.168-21.633-7.7617l4.5859-7.8711c5.8789 3.168 11.871 6.2305 20.336 6.2305 12.227 0 16.223-6.2305 16.223-14.105 0-25.152-39.383-9.2891-39.383-38.559 0-12.809 6.9375-20.57 19.867-21.746v-8.3438h8.2305v8.3438c6.4648 0.70312 12.695 3.1758 17.984 7.1758l-4.4648 7.5273c-6.4648-4.2344-12.695-5.6406-17.871-5.6406-11.52 0-13.992 5.9922-13.992 12.574 0 18.809 39.383 6.4648 39.383 37.855 0 12.227-6 22.449-21.043 24.215v10.465h-8.2305l0.003906-10.359z"/>
  <path d="m400 565.75c-4.8945 0-9.8047-0.38672-14.578-1.1602-2.8594-0.46094-4.8125-3.1523-4.3516-6.0156 0.45703-2.8594 3.1523-4.8164 6.0156-4.3516 4.2305 0.67578 8.5742 1.0234 12.91 1.0234 44.531 0 80.762-36.227 80.762-80.762 0-44.535-36.227-80.762-80.762-80.762s-80.762 36.227-80.762 80.762c0 10.328 1.9219 20.379 5.7031 29.871 1.0742 2.6914-0.23438 5.7461-2.9297 6.8164-2.7031 1.0898-5.7461-0.23438-6.8164-2.9297-4.2812-10.73-6.4492-22.094-6.4492-33.762 0-50.316 40.934-91.258 91.258-91.258s91.258 40.941 91.258 91.258c0 50.324-40.941 91.27-91.258 91.27z"/>
  <path d="m364.28 558c-0.73047 0-1.4688-0.15234-2.1797-0.47266-9.918-4.5352-18.879-10.758-26.617-18.5-3.7617-3.7617-7.207-7.8633-10.238-12.18-1.6641-2.3711-1.0898-5.6484 1.2852-7.3086 2.3789-1.6641 5.6484-1.0859 7.3086 1.2852 2.6836 3.8242 5.7305 7.457 9.0625 10.789 6.8555 6.8555 14.785 12.363 23.559 16.375 2.6328 1.2031 3.8008 4.3203 2.5938 6.9531-0.87891 1.9258-2.7852 3.0586-4.7734 3.0586z"/>
  <path d="m400 615.17c-77.57 0-140.68-63.105-140.68-140.68 0-77.57 63.105-140.68 140.68-140.68 77.57 0 140.68 63.105 140.68 140.68-0.003907 77.57-63.109 140.68-140.68 140.68zm0-270.86c-71.781 0-130.18 58.398-130.18 130.18 0 71.781 58.398 130.18 130.18 130.18 71.781 0 130.18-58.398 130.18-130.18-0.003906-71.781-58.402-130.18-130.18-130.18z"/>
  <path d="m409.02 344.5c-2.8984 0-5.2461-2.3516-5.2461-5.2461v-91.82c0-0.19531 0.011718-0.38672 0.03125-0.58203 0.39453-3.5312 5.2383-34.664 52.98-40.734 1.6836-0.17188 3.2969-0.30469 4.9375-0.41406 1.6367-0.125 3.2969 0.57031 4.3711 1.8594 7.6055 9.0352 19.465 13.617 35.266 13.617 26.98 0 36.852-13.902 40.27-21.68-40.496-5.4258-78.027-0.40625-85.445 0.69531l-0.82422 0.12109c-25.855 3.4883-39.605 14.074-46.598 22.348-1.2734 1.5-2.4453 3.0703-3.5898 4.8008-0.97266 1.4688-2.6172 2.3516-4.375 2.3516h-0.003906c-1.7617 0-3.4062-0.88672-4.375-2.3633-1.0977-1.668-2.3047-3.2812-3.5781-4.793-7.3516-8.7031-21.941-19.699-49.684-22.715-4.75-0.72266-44.062-6.3906-86.078-0.78906 3.3711 7.793 13.184 21.68 40.301 21.68 15.781 0 27.637-4.5781 35.23-13.594 1.0703-1.2734 2.6836-1.9883 4.3438-1.8594 1.9297 0.12109 3.8164 0.27734 5.6211 0.47266 49.918 5.3594 54.832 37.344 55.227 40.977 0.019531 0.1875 0.03125 0.37891 0.03125 0.56641v91.844c0 2.8984-2.3516 5.2461-5.2461 5.2461-2.8984 0-5.2461-2.3516-5.2461-5.2461l-0.007812-91.527c-0.49219-3.7578-5.1953-27.055-45.887-31.43-0.86719-0.089844-1.7461-0.17188-2.6445-0.24219-7.0938 7.3984-19.742 15.289-41.43 15.289-46.141 0-52.258-35.305-52.312-35.66-0.45312-2.8594 1.5-5.5469 4.3594-6.0039 44.844-7.1328 87.086-1.3594 95.094-0.125 30.898 3.3477 47.68 16.129 56.285 26.281 8.1992-9.668 24.051-21.98 53.082-25.898l0.75-0.10938c8.0391-1.207 50.414-6.8477 94.68 0.1875 2.8594 0.45703 4.8125 3.1445 4.3594 6.0039-0.058594 0.35547-6.168 35.656-52.309 35.656-21.695 0-34.352-7.8984-41.453-15.309-0.65234 0.058594-1.2891 0.11719-1.9219 0.17969-38.582 4.9062-43.211 27.52-43.711 31.215v91.504c-0.003906 2.8984-2.3555 5.2461-5.2539 5.2461z"/>
 </g>
</svg>