<?xml version="1.0" encoding="UTF-8"?>
<!-- The Best Svg Icon site in the world: iconSvg.co, Visit us! https://iconsvg.co -->
<svg fill="#000000" width="800px" height="800px" version="1.1" viewBox="144 144 512 512" xmlns="http://www.w3.org/2000/svg">
 <g>
  <path d="m421.76 248.03c-13.004-9.582-30.512-9.582-43.539 0l-163.32 120.17c-2.332 1.7227-2.832 5.0078-1.1133 7.3359 1.0273 1.3945 2.625 2.1406 4.2305 2.1406 1.082 0 2.1719-0.33594 3.1055-1.0195l14.871-10.949v146.21c0 26.031 21.191 47.23 47.23 47.23h233.54c26.031 0 47.23-21.203 47.23-47.23v-146.21l14.863 10.926c0.94531 0.68359 2.0273 1.0273 3.1172 1.0273 1.5938 0 3.2031-0.73438 4.2188-2.1406 1.7227-2.3516 1.207-5.625-1.1016-7.3359zm131.75 263.88c0 20.258-16.48 36.734-36.734 36.734h-233.54c-20.258 0-36.734-16.48-36.734-36.734l-0.007812-153.91 137.95-101.5c9.3086-6.8555 21.801-6.8438 31.102 0l137.96 101.5z"/>
  <path d="m405.25 338.01v-13.855c0-2.8984-2.3516-5.2461-5.2461-5.2461-2.8984 0-5.2461 2.3516-5.2461 5.2461v13.98c-14.758 1.9297-28.016 11.617-33.473 26.535-3.7891 10.328-3.3164 21.547 1.3125 31.531 4.6289 9.9922 12.891 17.59 23.227 21.371 2.8984 1.0703 5.8984 1.6602 8.9336 2.0469v63.859c-1.9219-0.32422-3.8398-0.77734-5.7305-1.4805-8.0078-2.9297-14.402-8.8164-17.988-16.543-3.5898-7.7266-3.9453-16.406-1.0195-24.414 0.99609-2.7305-0.41016-5.7422-3.1289-6.75-2.7188-0.98828-5.7305 0.41016-6.7383 3.1367-3.8945 10.645-3.4102 22.137 1.3555 32.434 4.7773 10.277 13.258 18.105 23.898 22 3.0547 1.1016 6.1914 1.7422 9.3398 2.1289v11.523c0 2.9062 2.3516 5.2461 5.2461 5.2461 2.8984 0 5.2461-2.3398 5.2461-5.2461v-11.617c4.3047-0.53516 8.5664-1.5234 12.605-3.3789 10.277-4.7773 18.105-13.266 22-23.898 3.8945-10.633 3.4023-22.156-1.3555-32.453-4.7773-10.277-13.266-18.086-23.898-21.98-3.0352-1.1016-6.1719-1.7422-9.3398-2.1289v-61.434c1.7734 0.31641 3.5586 0.71484 5.3203 1.3633 7.6953 2.8242 13.844 8.4805 17.297 15.934 3.4648 7.4414 3.8086 15.797 0.98828 23.5-1.0078 2.7305 0.41016 5.7422 3.1367 6.75 2.707 0.98828 5.7188-0.39844 6.7266-3.1289 3.7891-10.34 3.3164-21.539-1.3125-31.531-4.6094-9.9922-12.879-17.582-23.219-21.371-2.9648-1.0977-5.9453-1.7383-8.9375-2.1289zm-34.113 30.273c3.9062-10.664 13.16-17.727 23.617-19.586v60.445c-1.8047-0.32422-3.5781-0.77734-5.3203-1.418-15.914-5.8359-24.141-23.531-18.297-39.441zm57.836 70.301c3.5898 7.7266 3.9375 16.406 1.0078 24.414-4.082 11.168-13.781 18.535-24.719 20.371v-62.809c1.9609 0.32422 3.8711 0.79688 5.7422 1.4805 7.9844 2.9297 14.379 8.8086 17.969 16.543z"/>
 </g>
</svg>