<?xml version="1.0" encoding="UTF-8"?>
<!-- The Best Svg Icon site in the world: iconSvg.co, Visit us! https://iconsvg.co -->
<svg fill="#000000" width="800px" height="800px" version="1.1" viewBox="144 144 512 512" xmlns="http://www.w3.org/2000/svg">
 <g>
  <path d="m400 436.41c-19.59 0-38.105-5-52.133-14.074-14.953-9.6758-23.188-22.848-23.188-37.094 0-8.3359 2.957-16.594 8.5547-23.875 1.3047-1.6953 3.3203-2.6914 5.4609-2.6914 2.1406 0 4.1602 0.99609 5.4609 2.6914 10.227 13.309 32.145 21.906 55.844 21.906 23.695 0 45.617-8.5977 55.84-21.91 1.3047-1.6992 3.3203-2.6914 5.4609-2.6914s4.1602 0.99219 5.4648 2.6914c5.5977 7.2852 8.5547 15.539 8.5547 23.879 0 14.246-8.2344 27.418-23.188 37.094-14.031 9.0742-32.543 14.074-52.133 14.074zm-59.988-59.398c-1.0352 2.6914-1.5586 5.4414-1.5586 8.2305 0 20.27 28.184 37.391 61.543 37.391s61.543-17.125 61.543-37.391c0-2.7891-0.52344-5.5391-1.5586-8.2305-14.027 12.531-36.051 20.039-59.98 20.039-23.934 0-45.953-7.5078-59.988-20.039z"/>
  <path d="m400 475.77c-19.59 0-38.105-5-52.133-14.074-14.953-9.6758-23.188-22.848-23.188-37.094 0-8.3359 2.957-16.59 8.5547-23.875 1.3047-1.6992 3.3203-2.6914 5.4609-2.6914 2.1406 0 4.1602 0.99609 5.4609 2.6914 10.227 13.309 32.145 21.906 55.844 21.906s45.617-8.5977 55.84-21.91c1.3047-1.6953 3.3203-2.6914 5.4609-2.6914s4.1602 0.99219 5.4648 2.6914c5.5977 7.2852 8.5547 15.543 8.5547 23.879 0 14.246-8.2344 27.418-23.188 37.094-14.031 9.0781-32.543 14.074-52.133 14.074zm-59.988-59.395c-1.0352 2.6914-1.5586 5.4414-1.5586 8.2305 0 20.27 28.184 37.391 61.543 37.391s61.543-17.125 61.543-37.391c0-2.7891-0.52344-5.5391-1.5586-8.2305-14.027 12.527-36.047 20.035-59.98 20.035s-45.953-7.5078-59.988-20.035z"/>
  <path d="m400 515.12c-19.59 0-38.105-5-52.133-14.074-14.953-9.6758-23.188-22.848-23.188-37.094 0-8.3359 2.957-16.59 8.5547-23.875 1.3047-1.6992 3.3203-2.6914 5.4609-2.6914 2.1406 0 4.1602 0.99609 5.4609 2.6914 10.227 13.309 32.145 21.91 55.844 21.91s45.617-8.5977 55.84-21.91c1.3047-1.6992 3.3203-2.6914 5.4609-2.6914s4.1602 0.99609 5.4648 2.6914c5.5977 7.2852 8.5547 15.543 8.5547 23.879 0 14.246-8.2344 27.418-23.188 37.094-14.031 9.0742-32.543 14.07-52.133 14.07zm-59.988-59.395c-1.0352 2.6914-1.5586 5.4414-1.5586 8.2305 0 20.27 28.184 37.391 61.543 37.391s61.543-17.125 61.543-37.391c0-2.7891-0.52344-5.5391-1.5586-8.2305-14.027 12.531-36.047 20.035-59.98 20.035s-45.953-7.5039-59.988-20.035z"/>
  <path d="m400 554.49c-19.59 0-38.105-5-52.133-14.074-14.953-9.6758-23.188-22.848-23.188-37.094 0-8.3359 2.957-16.59 8.5547-23.875 1.3047-1.6992 3.3203-2.6914 5.4609-2.6914 2.1406 0 4.1602 0.99609 5.4609 2.6914 10.227 13.305 32.145 21.906 55.844 21.906s45.617-8.5977 55.84-21.91c1.3047-1.6992 3.3203-2.6914 5.4609-2.6914s4.1602 0.99609 5.4648 2.6914c5.5977 7.2852 8.5547 15.543 8.5547 23.879 0 14.246-8.2344 27.418-23.188 37.094-14.031 9.0742-32.543 14.074-52.133 14.074zm-59.988-59.398c-1.0352 2.6914-1.5586 5.4414-1.5586 8.2305 0 20.27 28.184 37.391 61.543 37.391s61.543-17.125 61.543-37.391c0-2.7891-0.52344-5.5391-1.5586-8.2305-14.027 12.531-36.047 20.035-59.98 20.035s-45.953-7.5039-59.988-20.035z"/>
  <path d="m400 593.85c-19.59 0-38.105-5-52.133-14.074-14.953-9.6758-23.188-22.848-23.188-37.094 0-8.3359 2.957-16.59 8.5547-23.875 1.3047-1.6992 3.3203-2.6914 5.4609-2.6914 2.1406 0 4.1602 0.99609 5.4609 2.6914 10.227 13.309 32.145 21.906 55.844 21.906s45.617-8.5977 55.84-21.91c1.3047-1.6992 3.3203-2.6914 5.4609-2.6914s4.1602 0.99609 5.4648 2.6914c5.5977 7.2852 8.5547 15.543 8.5547 23.879 0 14.246-8.2344 27.418-23.188 37.094-14.031 9.0742-32.543 14.074-52.133 14.074zm-59.988-59.398c-1.0352 2.6914-1.5586 5.4414-1.5586 8.2305 0 20.27 28.184 37.391 61.543 37.391s61.543-17.125 61.543-37.391c0-2.7891-0.52344-5.5391-1.5586-8.2305-14.027 12.531-36.047 20.039-59.98 20.039s-45.953-7.5078-59.988-20.039z"/>
  <path d="m400 633.21c-19.59 0-38.105-5-52.133-14.074-14.953-9.6758-23.188-22.848-23.188-37.094 0-8.3359 2.957-16.59 8.5547-23.875 1.3047-1.6992 3.3203-2.6914 5.4609-2.6914 2.1406 0 4.1602 0.99609 5.4609 2.6914 10.227 13.309 32.145 21.906 55.844 21.906s45.617-8.5977 55.84-21.91c1.3047-1.6992 3.3203-2.6914 5.4609-2.6914s4.1602 0.99609 5.4648 2.6914c5.5977 7.2852 8.5547 15.543 8.5547 23.879 0 14.246-8.2344 27.418-23.188 37.094-14.031 9.0742-32.543 14.074-52.133 14.074zm-59.988-59.398c-1.0352 2.6914-1.5586 5.4414-1.5586 8.2305 0 20.27 28.184 37.391 61.543 37.391s61.543-17.125 61.543-37.391c0-2.7891-0.52344-5.5391-1.5586-8.2305-14.027 12.531-36.047 20.039-59.98 20.039s-45.953-7.5078-59.988-20.039z"/>
  <path d="m400 397.05c-28.246 0-53.832-10.457-66.766-27.293-5.5977-7.2852-8.5547-15.539-8.5547-23.875 0-14.246 8.2344-27.418 23.188-37.094 14.027-9.0781 32.539-14.074 52.133-14.074 19.59 0 38.105 5 52.133 14.074 14.953 9.6758 23.188 22.848 23.188 37.094 0 8.3359-2.957 16.594-8.5547 23.879-12.934 16.832-38.52 27.289-66.766 27.289zm0-88.562c-33.359 0-61.543 17.125-61.543 37.391 0 5.3477 1.918 10.559 5.7031 15.484 10.223 13.312 32.141 21.91 55.84 21.91 23.695 0 45.617-8.5977 55.84-21.91 3.7852-4.9258 5.7031-10.133 5.7031-15.484 0-20.266-28.184-37.391-61.543-37.391z"/>
  <path d="m537.76 554.49c-19.59 0-38.105-5-52.133-14.074-14.953-9.6758-23.188-22.848-23.188-37.094 0-8.3359 2.957-16.594 8.5547-23.879 1.3047-1.6953 3.3203-2.6914 5.4609-2.6914s4.1602 0.99609 5.4609 2.6914c10.227 13.309 32.148 21.91 55.844 21.91 23.699 0 45.617-8.5977 55.84-21.91 1.3047-1.6992 3.3203-2.6914 5.4609-2.6914s4.1602 0.99609 5.4648 2.6914c5.5977 7.2852 8.5547 15.543 8.5547 23.879 0 14.246-8.2344 27.418-23.188 37.094-14.027 9.0742-32.543 14.074-52.133 14.074zm-59.988-59.398c-1.0352 2.6914-1.5586 5.4414-1.5586 8.2305 0 20.27 28.184 37.391 61.543 37.391s61.543-17.125 61.543-37.391c0-2.7891-0.52344-5.5391-1.5586-8.2305-14.027 12.531-36.047 20.035-59.98 20.035-23.934 0-45.953-7.5039-59.988-20.035z"/>
  <path d="m537.76 593.85c-19.59 0-38.105-5-52.133-14.074-14.953-9.6758-23.188-22.848-23.188-37.094 0-8.3359 2.957-16.594 8.5547-23.879 1.3047-1.6953 3.3203-2.6914 5.4609-2.6914s4.1602 0.99609 5.4609 2.6914c10.227 13.312 32.148 21.91 55.844 21.91 23.699 0 45.617-8.5977 55.84-21.91 1.3047-1.6992 3.3203-2.6914 5.4609-2.6914s4.1602 0.99609 5.4648 2.6914c5.5977 7.2852 8.5547 15.543 8.5547 23.879 0 14.246-8.2344 27.418-23.188 37.094-14.027 9.0742-32.543 14.074-52.133 14.074zm-59.988-59.398c-1.0352 2.6914-1.5586 5.4414-1.5586 8.2305 0 20.27 28.184 37.391 61.543 37.391s61.543-17.125 61.543-37.391c0-2.7891-0.52344-5.5391-1.5586-8.2305-14.027 12.531-36.047 20.039-59.98 20.039-23.934 0-45.953-7.5078-59.988-20.039z"/>
  <path d="m537.76 633.21c-19.59 0-38.105-5-52.133-14.074-14.953-9.6758-23.188-22.848-23.188-37.094 0-8.3359 2.957-16.594 8.5547-23.879 1.3047-1.6953 3.3203-2.6914 5.4609-2.6914s4.1602 0.99609 5.4609 2.6914c10.227 13.312 32.148 21.91 55.844 21.91 23.699 0 45.617-8.5977 55.84-21.91 1.3047-1.6992 3.3203-2.6914 5.4609-2.6914s4.1602 0.99609 5.4648 2.6914c5.5977 7.2852 8.5547 15.543 8.5547 23.879 0 14.246-8.2344 27.418-23.188 37.094-14.027 9.0742-32.543 14.074-52.133 14.074zm-59.988-59.398c-1.0352 2.6914-1.5586 5.4414-1.5586 8.2305 0 20.27 28.184 37.391 61.543 37.391s61.543-17.125 61.543-37.391c0-2.7891-0.52344-5.5391-1.5586-8.2305-14.027 12.531-36.047 20.039-59.98 20.039-23.934 0-45.953-7.5078-59.988-20.039z"/>
  <path d="m537.76 515.12c-28.25 0-53.832-10.457-66.766-27.293-5.5977-7.2852-8.5547-15.539-8.5547-23.875 0-14.246 8.2344-27.418 23.188-37.094 14.031-9.0742 32.543-14.074 52.133-14.074 19.59 0 38.105 5 52.133 14.074 14.953 9.6758 23.188 22.848 23.188 37.094 0 8.3359-2.957 16.594-8.5547 23.879-12.934 16.832-38.516 27.289-66.766 27.289zm0-88.559c-33.359 0-61.543 17.125-61.543 37.391 0 5.3477 1.918 10.559 5.7031 15.48 10.223 13.312 32.145 21.914 55.84 21.914 23.699 0 45.617-8.5977 55.84-21.91 3.7852-4.9258 5.7031-10.137 5.7031-15.484 0.003907-20.266-28.18-37.391-61.543-37.391z"/>
  <path d="m263.13 593.85c-19.59 0-38.105-5-52.133-14.074-14.953-9.6758-23.188-22.848-23.188-37.094 0-8.3359 2.957-16.59 8.5547-23.875 1.3047-1.6992 3.3242-2.6953 5.4648-2.6953s4.1602 0.99609 5.4609 2.6914c10.223 13.312 32.145 21.91 55.84 21.91 23.699 0 45.617-8.5977 55.84-21.91 1.3047-1.6992 3.3203-2.6914 5.4609-2.6914s4.1602 0.99609 5.4609 2.6914c5.5977 7.2852 8.5547 15.543 8.5547 23.875 0 14.246-8.2344 27.418-23.191 37.094-14.02 9.0781-32.535 14.078-52.125 14.078zm-59.988-59.398c-1.0352 2.6914-1.5586 5.4414-1.5586 8.2305 0 20.27 28.184 37.391 61.543 37.391s61.547-17.125 61.547-37.391c0-2.7852-0.52344-5.5352-1.5586-8.2305-14.031 12.531-36.051 20.039-59.984 20.039-23.934 0-45.953-7.5078-59.988-20.039z"/>
  <path d="m263.13 633.21c-19.59 0-38.105-5-52.133-14.074-14.953-9.6758-23.188-22.848-23.188-37.094 0-8.3359 2.957-16.59 8.5547-23.875 1.3047-1.6992 3.3242-2.6914 5.4648-2.6914s4.1602 0.99609 5.4609 2.6914c10.223 13.309 32.145 21.906 55.84 21.906 23.699 0 45.617-8.5977 55.84-21.91 1.3047-1.6992 3.3203-2.6914 5.4609-2.6914s4.1602 0.99609 5.4609 2.6914c5.5977 7.2852 8.5547 15.543 8.5547 23.875 0 14.246-8.2344 27.418-23.191 37.094-14.02 9.0781-32.535 14.078-52.125 14.078zm-59.988-59.398c-1.0352 2.6914-1.5586 5.4414-1.5586 8.2305 0 20.27 28.184 37.391 61.543 37.391s61.547-17.125 61.547-37.391c0-2.7852-0.52344-5.5352-1.5586-8.2305-14.031 12.531-36.051 20.039-59.984 20.039-23.934 0-45.953-7.5078-59.988-20.039z"/>
  <path d="m263.13 554.49c-28.25 0-53.832-10.457-66.766-27.293-5.5977-7.2852-8.5547-15.543-8.5547-23.875 0-14.246 8.2344-27.418 23.191-37.094 14.023-9.0781 32.539-14.074 52.129-14.074 19.59 0 38.105 5 52.133 14.074 14.953 9.6758 23.191 22.848 23.191 37.094 0 8.332-2.957 16.59-8.5547 23.875-12.938 16.832-38.52 27.293-66.77 27.293zm0-88.562c-33.359 0-61.543 17.125-61.543 37.391 0 5.3477 1.918 10.559 5.7031 15.484 10.223 13.312 32.145 21.91 55.84 21.91 23.699 0 45.617-8.5977 55.84-21.91 3.7852-4.9297 5.7031-10.137 5.7031-15.484 0.003907-20.266-28.18-37.391-61.543-37.391z"/>
  <path d="m408.62 262.18c-3.6133 0-7.2969-0.19922-11.043-0.59766-3.2188-0.34375-5.7656-2.8867-6.1172-6.1055-2.9102-26.797 4.5156-50.605 20.906-67.039 16.387-16.434 40.172-23.906 66.953-21.047 3.2188 0.34375 5.7656 2.8867 6.1172 6.1055 2.9102 26.805-4.5156 50.613-20.906 67.039-14.102 14.137-33.668 21.645-55.91 21.645zm-3.9023-13.863c20.195 0.90234 37.809-5.2227 50.062-17.512 12.254-12.281 18.34-29.93 17.406-50.148-20.199-0.90234-37.809 5.2266-50.059 17.508-12.262 12.289-18.348 29.941-17.41 50.152z"/>
  <path d="m386.85 262.18c-22.246 0-41.812-7.5078-55.914-21.648-16.391-16.426-23.816-40.234-20.906-67.039 0.34766-3.2188 2.8945-5.7617 6.1172-6.1055 26.789-2.8633 50.566 4.6133 66.953 21.051 16.391 16.434 23.812 40.242 20.906 67.039-0.34766 3.2188-2.8945 5.7617-6.1172 6.1055-3.7422 0.40234-7.4297 0.59766-11.039 0.59766zm-63.566-81.523c-0.9375 20.219 5.1484 37.867 17.402 50.148 12.254 12.289 29.871 18.41 50.062 17.512 0.9375-20.211-5.1484-37.859-17.406-50.148-12.25-12.285-29.863-18.406-50.059-17.512z"/>
  <path d="m398.31 347.85c-3.8047 0-6.8867-3.082-6.8867-6.8867v-86.227c0-3.8047 3.082-6.8867 6.8867-6.8867 3.8047 0 6.8867 3.082 6.8867 6.8867l0.003907 86.223c0 3.8047-3.0859 6.8906-6.8906 6.8906z"/>
  <path d="m560.63 242.14c-0.13281-0.17578-0.51562-0.46094-1.1523-0.85547-0.63281-0.39453-1.4453-0.82031-2.4297-1.2812-0.98438-0.46094-2.082-0.89844-3.2852-1.3164-1.207-0.41406-2.4219-0.71094-3.6484-0.88672v8.9375l2.1055 0.52734c2.2344 0.61328 4.25 1.2812 6.0469 2.0039 1.793 0.72266 3.3203 1.6211 4.5703 2.6953s2.2109 2.3789 2.8906 3.9102c0.67969 1.5352 1.0195 3.375 1.0195 5.5195 0 2.5-0.44141 4.625-1.3164 6.375-0.875 1.7539-2.0469 3.1875-3.5156 4.3047s-3.1523 1.9609-5.0625 2.5312c-1.9062 0.57031-3.9102 0.89844-6.0156 0.98438v7.625h-4.5352v-7.6914c-3.0234-0.26172-6.0117-0.875-8.9727-1.8398-2.957-0.96484-5.6211-2.2344-7.9844-3.8125l4.7305-9.3984c0.17578 0.21875 0.64453 0.58203 1.4141 1.0859 0.76562 0.50391 1.7422 1.0312 2.9219 1.5781 1.1836 0.55078 2.5195 1.0742 4.0117 1.5781 1.4883 0.50391 3.0234 0.86719 4.6016 1.0859v-8.7422l-3.1562-0.92188c-2.1484-0.65625-4.0078-1.3672-5.5859-2.1367-1.5781-0.76562-2.8828-1.6523-3.9102-2.6602-1.0312-1.0078-1.7969-2.168-2.3008-3.4844-0.50391-1.3164-0.75391-2.8477-0.75391-4.6016 0-2.2773 0.39453-4.3047 1.1836-6.082 0.78906-1.7734 1.8516-3.2969 3.1875-4.5703 1.3359-1.2695 2.9141-2.2656 4.7344-2.9922 1.8164-0.72266 3.7773-1.1953 5.8828-1.4141v-6.6406h4.5352v6.6406c2.8477 0.26172 5.5195 0.89844 8.0195 1.9062 2.4961 1.0078 4.668 2.0352 6.5078 3.0898zm-18.207-0.58984c0 1.0938 0.38281 1.9609 1.1484 2.5977 0.76562 0.63672 1.9141 1.1953 3.4531 1.6758v-8.0859c-3.0664 0.26172-4.6016 1.5352-4.6016 3.8125zm12.754 20.898c0-1.1406-0.46094-2.0273-1.3828-2.6602-0.92188-0.63281-2.1484-1.2148-3.6797-1.7422v7.8867c3.375-0.12891 5.0625-1.293 5.0625-3.4844z"/>
  <path d="m548.05 308.48c-30.926 0-56.09-25.16-56.09-56.09 0-30.926 25.16-56.09 56.09-56.09 30.926 0 56.09 25.16 56.09 56.09 0 30.93-25.164 56.09-56.09 56.09zm0-98.398c-23.332 0-42.312 18.98-42.312 42.312 0 23.332 18.98 42.312 42.312 42.312s42.312-18.98 42.312-42.312c0-23.332-18.98-42.312-42.312-42.312z"/>
  <path d="m255.59 350.39c-0.13281-0.17578-0.51562-0.46094-1.1484-0.85547-0.63672-0.39453-1.4453-0.82031-2.4336-1.2812-0.98438-0.46094-2.082-0.89844-3.2852-1.3164-1.207-0.41406-2.4219-0.71094-3.6484-0.88672v8.9414l2.1055 0.52734c2.2344 0.61328 4.25 1.2812 6.0469 2.0039 1.7969 0.72266 3.3203 1.6211 4.5703 2.6953 1.25 1.0742 2.2109 2.3789 2.8906 3.9102 0.67969 1.5352 1.0195 3.375 1.0195 5.5195 0 2.4961-0.4375 4.625-1.3164 6.375-0.875 1.7539-2.0469 3.1875-3.5156 4.3047-1.4688 1.1172-3.1562 1.9609-5.0625 2.5312-1.9062 0.57031-3.9141 0.89844-6.0156 0.98438v7.625h-4.5352v-7.6914c-3.0234-0.26172-6.0156-0.875-8.9727-1.8398s-5.6211-2.2344-7.9844-3.8125l4.7305-9.3984c0.17578 0.21875 0.64844 0.58203 1.4141 1.0859s1.7422 1.0312 2.9258 1.5781c1.1836 0.55078 2.5195 1.0742 4.0078 1.5781s3.0234 0.86719 4.6016 1.0859v-8.7422l-3.1562-0.92188c-2.1484-0.65625-4.0117-1.3672-5.5859-2.1367-1.5781-0.76562-2.8828-1.6523-3.9141-2.6602-1.0312-1.0078-1.7969-2.168-2.3008-3.4844-0.50391-1.3164-0.75391-2.8477-0.75391-4.6016 0-2.2773 0.39453-4.3047 1.1836-6.082 0.78906-1.7734 1.8516-3.2969 3.1875-4.5703 1.3359-1.2695 2.9141-2.2656 4.7305-2.9922 1.8203-0.72266 3.7812-1.1953 5.8828-1.4141v-6.6406h4.5352v6.6406c2.8477 0.26172 5.5195 0.89844 8.0195 1.9062 2.4961 1.0078 4.668 2.0352 6.5078 3.0898zm-18.207-0.59375c0 1.0938 0.38281 1.9609 1.1484 2.5977s1.918 1.1953 3.4531 1.6758v-8.0859c-3.0664 0.26562-4.6016 1.5352-4.6016 3.8125zm12.75 20.902c0-1.1406-0.46094-2.0273-1.3789-2.6602-0.92187-0.63281-2.1484-1.2148-3.6797-1.7422v7.8867c3.3711-0.13281 5.0586-1.293 5.0586-3.4844z"/>
  <path d="m243 416.73c-30.926 0-56.09-25.16-56.09-56.09 0-30.926 25.16-56.09 56.09-56.09 30.926 0 56.09 25.16 56.09 56.09 0 30.93-25.16 56.09-56.09 56.09zm0-98.398c-23.332 0-42.312 18.98-42.312 42.312s18.98 42.312 42.312 42.312c23.332 0 42.312-18.98 42.312-42.312s-18.98-42.312-42.312-42.312z"/>
 </g>
</svg>