<?xml version="1.0" encoding="UTF-8"?>
<!-- The Best Svg Icon site in the world: iconSvg.co, Visit us! https://iconsvg.co -->
<svg fill="#000000" width="800px" height="800px" version="1.1" viewBox="144 144 512 512" xmlns="http://www.w3.org/2000/svg">
 <g>
  <path d="m562.59 298.61h-325.18c-9.0352 0-16.395 7.3477-16.395 16.383v171.22c0 9.0352 7.3477 16.406 16.395 16.406h325.17c9.0273 0 16.395-7.3594 16.395-16.406v-171.22c0-9.0273-7.3477-16.387-16.383-16.387zm5.8867 146.64c-8.4297-1.2266-17.035 0.082031-24.793 4.0625-9.8438 5.0391-17.172 13.633-20.57 24.191-1.9727 6.0859-2.457 12.426-1.5547 18.652h-243.15c1.2266-8.4688-0.082031-17.055-4.0508-24.801-5.0391-9.8555-13.633-17.16-24.191-20.582-6.0781-1.9727-12.418-2.457-18.629-1.5547v-89.133c1.9727 0.28516 3.957 0.46094 5.9297 0.46094 6.4883 0 12.898-1.5312 18.863-4.5781 9.8555-5.0469 17.172-13.633 20.57-24.184 1.9727-6.0859 2.4648-12.426 1.5625-18.652h243.14c-1.2266 8.4492 0.082031 17.047 4.0625 24.793 5.0273 9.8672 13.633 17.172 24.184 20.57 4.168 1.3555 8.4805 2.0273 12.754 2.0273 1.9727 0 3.9375-0.17969 5.8984-0.46094l-0.007812 89.188zm0-130.25v30.363c-5.1211 1.0078-10.379 0.75391-15.418-0.87109-7.8945-2.5391-14.305-7.9961-18.086-15.367-3.2031-6.2539-4.0195-13.227-2.6875-20.016h30.293c3.2539 0 5.8984 2.6562 5.8984 5.8906zm-331.07-5.8906h30.363c1.0078 5.1211 0.75391 10.379-0.87109 15.418-2.5391 7.8828-8.0078 14.297-15.375 18.074-6.2539 3.1914-13.227 4.0195-20.004 2.6992v-30.293c0-3.2422 2.6445-5.8984 5.8867-5.8984zm-5.8867 177.14v-30.387c5.1133-1.0078 10.371-0.75391 15.418 0.88281 7.8828 2.5391 14.297 7.9961 18.074 15.375 3.2031 6.2539 4.0195 13.227 2.6875 20.004h-30.293c-3.2422 0-5.8867-2.6445-5.8867-5.875zm331.07 5.875h-30.387c-0.98828-5.1211-0.74609-10.371 0.88281-15.418 2.5391-7.8711 8.0078-14.285 15.375-18.062 6.2539-3.2031 13.234-4.0391 20.004-2.707v30.301c0.011719 3.2422-2.6328 5.8867-5.875 5.8867z"/>
  <path d="m400.01 333.93c-36.789 0-66.703 29.926-66.703 66.703 0 36.77 29.926 66.691 66.703 66.691 36.777 0 66.691-29.934 66.691-66.691 0-36.777-29.922-66.703-66.691-66.703zm-56.203 66.703c0-29.691 23.219-53.824 52.406-55.816-1.0898 0.96484-1.8047 2.332-1.8047 3.8945v6.2539c-1.9844 0.47266-3.957 1.1016-5.8555 2.0781-12.68 6.5195-17.695 22.125-11.188 34.793 4.3555 8.5 13.004 13.867 22.555 14.043 5.6797 0.09375 10.801 3.2852 13.395 8.332 3.8516 7.5469 0.88281 16.816-6.6641 20.688-7.5156 3.8516-16.793 0.88281-20.668-6.6641-1.3125-2.582-4.4922-3.5898-7.0625-2.2773-2.5703 1.332-3.6016 4.4922-2.2656 7.0742 3.707 7.2227 10.359 11.766 17.738 13.328v6.1914c0 1.5742 0.71484 2.9297 1.8047 3.8945-29.188-1.9883-52.391-26.121-52.391-55.812zm59.152 55.91c1.1562-0.96484 1.9414-2.3633 1.9414-3.9766v-6.1094c2.2266-0.45312 4.4414-1.1445 6.5586-2.2344 12.691-6.5195 17.707-22.113 11.188-34.785-4.3555-8.5-12.992-13.875-22.547-14.043-5.6797-0.09375-10.812-3.2852-13.395-8.332-3.8711-7.5273-0.89062-16.805 6.6445-20.668 7.5273-3.8633 16.816-0.87109 20.688 6.6562 1.3125 2.582 4.4922 3.5781 7.0547 2.2656 2.582-1.3242 3.6094-4.4922 2.2773-7.0625-3.8086-7.4297-10.789-12.145-18.453-13.531v-5.9922c0-1.625-0.77734-3.0234-1.9414-3.9766 29.59 1.5742 53.246 25.926 53.246 55.914-0.003906 29.984-23.66 54.293-53.262 55.875z"/>
  <path d="m314.04 249.37c0.66016 0.28516 1.3555 0.41797 2.0352 0.41797 2.0352 0 3.9883-1.207 4.8398-3.2031 4.1562-9.8555 9.9727-18.828 17.277-26.68 16.648-17.895 39.254-28.234 63.68-29.117 23.418-0.83984 45.625 7.1367 63.176 22.367-8.7227 10.508-18.453 20.195-29.199 28.582-1.5938 1.2266-2.6016 3-2.8438 4.9844-0.25 1.9844 0.28516 3.9453 1.5234 5.5 1.3945 1.8164 3.6094 2.8984 5.9102 2.8984l72.172-7.8281c1.4492-0.15625 2.7695-0.91406 3.6406-2.0898 0.83594-1.1641 1.1836-2.6445 0.91797-4.1055l-12.426-65.926c-0.71484-3.8398-4.7773-6.6445-8.7109-5.9727-2.3398 0.42969-4.3555 1.9727-5.3945 4.1562-5.2695 11.137-11.891 21.57-19.207 31.477-19.512-16.711-44.293-25.391-69.934-24.527-27.227 0.98828-52.438 12.512-70.996 32.465-8.1328 8.7539-14.621 18.758-19.27 29.734-1.1172 2.668 0.12109 5.7422 2.8086 6.8672zm182.04-63.469 9.7305 51.578-55.648 6.0664c18.684-16.168 34.352-35.836 45.918-57.645z"/>
  <path d="m364.19 559.51c1.5742-1.2266 2.582-3.0117 2.832-5.0078 0.23047-1.9727-0.30469-3.9375-1.5234-5.4688-1.5742-2.0469-4.0742-3.1602-6.7266-2.8672l-71.363 7.7891c-1.4492 0.16797-2.7695 0.92188-3.6406 2.0898-0.87109 1.1641-1.2188 2.6641-0.94531 4.1055l12.426 65.945c0.53516 2.832 3.3359 4.6914 6.1289 4.1562 0.17969-0.019531 0.34766-0.0625 0.51562-0.125 0.15625 0.10547 0.30469 0.1875 0.47266 0.26172 0.72266 0.32422 1.4922 0.49219 2.2461 0.49219 1.9609 0 3.8398-1.1016 4.7461-2.9922 5.2695-11.137 11.871-21.57 19.207-31.469 18.535 15.891 41.723 24.582 66.156 24.582 1.25 0 2.5195-0.019531 3.7773-0.082031 27.227-0.98828 52.438-12.5 71.004-32.453 8.125-8.7539 14.621-18.758 19.27-29.746 1.1133-2.6641-0.13672-5.7422-2.8125-6.8633-2.6328-1.1016-5.7422 0.10547-6.875 2.793-4.1562 9.8438-9.9727 18.82-17.277 26.672-16.656 17.895-39.254 28.246-63.68 29.125-23.395 0.90234-45.625-7.1367-63.176-22.367 8.7266-10.508 18.477-20.184 29.238-28.57zm-60.27 55.848-9.7188-51.578 55.641-6.0664c-18.676 16.145-34.344 35.812-45.922 57.645z"/>
 </g>
</svg>