<?xml version="1.0" encoding="UTF-8"?>
<!-- The Best Svg Icon site in the world: iconSvg.co, Visit us! https://iconsvg.co -->
<svg width="800px" height="800px" version="1.1" viewBox="144 144 512 512" xmlns="http://www.w3.org/2000/svg">
 <defs>
  <clipPath id="e">
   <path d="m148.09 504h503.81v117h-503.81z"/>
  </clipPath>
  <clipPath id="d">
   <path d="m148.09 441h21.906v22h-21.906z"/>
  </clipPath>
  <clipPath id="c">
   <path d="m630 441h21.902v22h-21.902z"/>
  </clipPath>
  <clipPath id="b">
   <path d="m630 483h21.902v22h-21.902z"/>
  </clipPath>
  <clipPath id="a">
   <path d="m148.09 483h21.906v22h-21.906z"/>
  </clipPath>
 </defs>
 <path d="m274.05 284.54h94.465v-20.992h-83.969v-52.48c0-5.7969 4.6992-10.496 10.496-10.496h83.969c2.7812 0 5.4531 1.1055 7.4219 3.0742s3.0742 4.6367 3.0742 7.4219v10.496h-73.473v20.992h73.473v53.016c-47.359 3.6523-89.41 31.672-111.02 73.973-21.605 42.301-19.66 92.793 5.1367 133.3 24.797 40.512 68.879 65.215 116.38 65.215 47.496 0 91.578-24.703 116.38-65.215 24.801-40.512 26.742-91.004 5.1367-133.3-21.609-42.301-63.66-70.32-111.02-73.973v-53.016h73.473l-0.003906-20.992h-73.469v-10.496c0-5.7969 4.6992-10.496 10.496-10.496h83.969-0.003907c2.7852 0 5.457 1.1055 7.4219 3.0742 1.9688 1.9688 3.0742 4.6367 3.0742 7.4219v52.48h-83.965v20.992h94.465-0.003906c2.7852 0 5.457-1.1055 7.4219-3.0742 1.9688-1.9688 3.0742-4.6406 3.0742-7.4219v-62.977c0-8.3516-3.3164-16.359-9.2227-22.266-5.9023-5.9062-13.914-9.2227-22.266-9.2227h-83.965c-7.7734 0.027344-15.254 2.9453-20.992 8.1875-5.7383-5.2422-13.223-8.1602-20.992-8.1875h-83.969c-8.3516 0-16.359 3.3164-22.266 9.2227s-9.2227 13.914-9.2227 22.266v62.977c0 2.7812 1.1055 5.4531 3.0742 7.4219s4.6367 3.0742 7.4219 3.0742zm241.41 146.95c0 30.621-12.164 59.984-33.816 81.637-21.652 21.652-51.016 33.816-81.637 33.816s-59.988-12.164-81.641-33.816-33.816-51.016-33.816-81.637c0-30.621 12.164-59.988 33.816-81.641s51.02-33.816 81.641-33.816c30.609 0.035156 59.953 12.211 81.598 33.855 21.645 21.645 33.82 50.988 33.855 81.602z"/>
 <path d="m389.5 358.02v20.992h-10.496c-5.5703 0-10.91 2.2109-14.844 6.1484-3.9375 3.9336-6.1484 9.2734-6.1484 14.844v20.992c0 5.5664 2.2109 10.906 6.1484 14.844 3.9336 3.9336 9.2734 6.1484 14.844 6.1484h41.984v20.992h-41.984v-10.496h-20.992v10.496c0 5.5664 2.2109 10.906 6.1484 14.84 3.9336 3.9375 9.2734 6.1484 14.844 6.1484h10.496v20.992h20.992v-20.992h10.496c5.5664 0 10.906-2.2109 14.844-6.1484 3.9336-3.9336 6.1484-9.2734 6.1484-14.84v-20.992c0-5.5703-2.2148-10.91-6.1484-14.844-3.9375-3.9375-9.2773-6.1484-14.844-6.1484h-41.984v-20.992h41.984v10.496h20.992v-10.496c0-5.5703-2.2148-10.91-6.1484-14.844-3.9375-3.9375-9.2773-6.1484-14.844-6.1484h-10.496v-20.992z"/>
 <path d="m316.03 420.99h20.992v20.992h-20.992z"/>
 <path d="m462.98 420.99h20.992v20.992h-20.992z"/>
 <g clip-path="url(#e)">
  <path d="m596.35 508.04c-1.9688-1.9688-4.6367-3.0742-7.4219-3.0781h-31.488c-3.8672 0.007813-7.4219 2.1406-9.2461 5.5547-19.203 35.984-50.84 63.754-89.008 78.129-38.168 14.375-80.266 14.375-118.43 0s-69.805-42.145-89.008-78.129c-1.8125-3.3945-5.3359-5.5234-9.1836-5.5547h-31.488c-2.7852 0.003907-5.4531 1.1094-7.4219 3.0781l-17.914 17.914h-37.641v20.992h41.984c2.7852 0 5.4531-1.1055 7.4219-3.0742l17.914-17.918h20.93c22.219 38.469 57.277 67.883 99.023 83.074 41.746 15.191 87.508 15.191 129.25 0 41.746-15.191 76.805-44.605 99.02-83.074h20.941l17.918 17.918c1.9648 1.9688 4.6367 3.0742 7.418 3.0742h41.984v-20.992h-37.637z"/>
 </g>
 <path d="m211.07 320.38v110.98c0.30469 2.8789-0.69531 5.7422-2.7305 7.8008s-4.8867 3.0938-7.7656 2.8242h-10.496v20.992h10.496c8.4258 0.24609 16.578-2.9922 22.535-8.9531 5.9609-5.9609 9.1992-14.113 8.9531-22.535v-111.11l24.066 24.066 14.84-14.84-41.984-41.984h0.003906c-4.1016-4.0977-10.746-4.0977-14.844 0l-41.984 41.984 14.84 14.84z"/>
 <path d="m543.87 344.44 24.066-24.066v111.11c-0.24609 8.4219 2.9922 16.574 8.9531 22.535 5.9609 5.9609 14.113 9.1992 22.535 8.9531h10.496v-20.992h-10.496c-2.8594 0.27734-5.6953-0.73438-7.7266-2.7695-2.0352-2.0312-3.0508-4.8672-2.7695-7.7266v-111.11l24.066 24.066 14.84-14.84-41.984-41.984h0.003906c-4.0977-4.0977-10.742-4.0977-14.84 0l-41.984 41.984z"/>
 <g clip-path="url(#d)">
  <path d="m148.09 441.98h20.992v20.992h-20.992z"/>
 </g>
 <g clip-path="url(#c)">
  <path d="m630.91 441.98h20.992v20.992h-20.992z"/>
 </g>
 <g clip-path="url(#b)">
  <path d="m630.91 483.96h20.992v20.992h-20.992z"/>
 </g>
 <g clip-path="url(#a)">
  <path d="m148.09 483.96h20.992v20.992h-20.992z"/>
 </g>
</svg>