<?xml version="1.0" encoding="UTF-8"?>
<!-- The Best Svg Icon site in the world: iconSvg.co, Visit us! https://iconsvg.co -->
<svg fill="#000000" width="800px" height="800px" version="1.1" viewBox="144 144 512 512" xmlns="http://www.w3.org/2000/svg">
 <g>
  <path d="m426.31 350.08c21.199 0 41.527-8.4219 56.516-23.41s23.41-35.316 23.41-56.512c0-21.199-8.4219-41.527-23.41-56.516s-35.316-23.41-56.512-23.41c-21.199 0-41.527 8.4219-56.516 23.41s-23.41 35.316-23.41 56.516c0.023437 21.188 8.4531 41.504 23.438 56.484 14.98 14.984 35.297 23.414 56.484 23.438zm0-71.176v-0.003906c-9.375 0-18.133-4.6719-23.355-12.457s-6.2266-17.664-2.6719-26.34c3.5547-8.6758 11.195-15.008 20.383-16.895v-6.0625 0.003907c0-3.2617 2.6406-5.9062 5.9023-5.9062 3.2617 0 5.9023 2.6445 5.9023 5.9062v6.1797-0.003906c6.2305 1.4062 11.801 4.8906 15.793 9.875 3.9922 4.9883 6.168 11.184 6.1797 17.57 0 3.2578-2.6445 5.9023-5.9062 5.9023-3.2578 0-5.9023-2.6445-5.9023-5.9023 0-4.3281-1.7188-8.4805-4.7812-11.543-3.0625-3.0586-7.2148-4.7812-11.543-4.7812s-8.4805 1.7227-11.543 4.7812c-3.0586 3.0625-4.7773 7.2148-4.7773 11.543s1.7188 8.4805 4.7812 11.543c3.0586 3.0586 7.2109 4.7812 11.539 4.7812 9.5508 0 18.449 4.8477 23.629 12.867 5.1797 8.0234 5.9375 18.125 2.0117 26.832-3.9297 8.7031-12.004 14.82-21.445 16.246v7.2695c0 3.2578-2.6445 5.9023-5.9062 5.9023-3.2617 0-5.9023-2.6445-5.9023-5.9023v-8.0117c-5.8984-1.668-11.094-5.2109-14.797-10.098-3.7031-4.8867-5.7109-10.848-5.7188-16.977 0-3.2617 2.6445-5.9023 5.9023-5.9023 3.2617 0 5.9062 2.6406 5.9062 5.9023 0 4.3281 1.7188 8.4805 4.7812 11.543 3.0586 3.0586 7.2109 4.7812 11.539 4.7812 4.332 0 8.4805-1.7227 11.543-4.7812 3.0625-3.0625 4.7812-7.2148 4.7812-11.543s-1.7188-8.4805-4.7812-11.543c-3.0625-3.0586-7.2109-4.7812-11.543-4.7812z"/>
  <path d="m631.24 597.78h-41.328v-304.24l22.98-17.84-3.2227 41.895h0.003906c-0.25 3.2461 2.1797 6.0859 5.4297 6.3359 0.15625 0.011718 0.30859 0.019531 0.46094 0.019531 3.082-0.003906 5.6445-2.3789 5.8789-5.4531l4.2578-55.375c0.12109-1.5664-0.38672-3.1172-1.4141-4.3086-1.0234-1.1914-2.4844-1.9219-4.0508-2.0352l-59.629-4.2578c-3.2539-0.23438-6.0781 2.2148-6.3125 5.4688-0.23438 3.25 2.2148 6.0781 5.4688 6.3086l44.469 3.1758-180.17 139.86-124.85-98.34c-2.3125-1.8203-5.6133-1.6602-7.7383 0.375l-123.45 118.43c-1.1523 1.0781-1.8203 2.5742-1.8594 4.1484-0.042968 1.5742 0.54688 3.1016 1.6406 4.2383 1.0898 1.1406 2.5938 1.793 4.168 1.8164 1.5781 0.027344 3.0977-0.58203 4.2227-1.6836l71.285-68.383v229.85h-11.805v-218.52l-27.555 26.434v192.09h-39.359c-3.2617 0-5.9023 2.6445-5.9023 5.9062s2.6406 5.9023 5.9023 5.9023h462.48c3.2617 0 5.9062-2.6406 5.9062-5.9023s-2.6445-5.9062-5.9062-5.9062zm-344.4 0h-11.805v-256.28l-12.312 11.809 24.121-23.137zm118.08 0h-11.809v-199.79l-27.551-21.703v221.5h-11.809v-230.8l-27.551-21.695v252.49h-11.809v-261.8l90.527 71.309zm39.359 0h-11.809v-182.03l11.809-9.1641zm39.359 0h-11.805v-212.58l11.809-9.1641zm39.359 0h-11.805v-243.13l11.809-9.1641zm39.359 0h-11.805v-273.69l11.809-9.1641z"/>
 </g>
</svg>