<?xml version="1.0" encoding="UTF-8"?>
<!-- The Best Svg Icon site in the world: iconSvg.co, Visit us! https://iconsvg.co -->
<svg fill="#000000" width="800px" height="800px" version="1.1" viewBox="144 144 512 512" xmlns="http://www.w3.org/2000/svg">
 <g>
  <path d="m331.55 349.84c-18.988 0.003906-37.02 8.3203-49.348 22.762-12.324 14.441-17.707 33.559-14.727 52.309 2.9805 18.75 14.023 35.258 30.219 45.164 0.35938 0.22266 0.69531 0.48438 1 0.77734h32.426c-3.2578 0-5.9023-2.6445-5.9023-5.9062v-6.1641 0.003906c-5.1367-1.3984-9.6719-4.4453-12.906-8.6719s-4.9883-9.3984-4.9961-14.719c0-3.2617 2.6406-5.9062 5.9023-5.9062 3.2617 0 5.9062 2.6445 5.9062 5.9062-0.003906 5.0234 3.0234 9.5547 7.668 11.48 4.6445 1.9219 9.9883 0.85938 13.543-2.6953 3.5547-3.5508 4.6172-8.8984 2.6953-13.539-1.9219-4.6445-6.4531-7.6719-11.48-7.6719-8.0195 0-15.52-3.9648-20.035-10.594-4.5117-6.6289-5.457-15.062-2.5156-22.523 2.9375-7.4609 9.3789-12.984 17.203-14.754v-5.5977c0-3.2617 2.6406-5.9062 5.9023-5.9062 3.2617 0 5.9062 2.6445 5.9062 5.9062v5.8789c5.1055 1.418 9.6055 4.4688 12.816 8.6875 3.207 4.2148 4.9492 9.3672 4.957 14.664 0 3.2617-2.6445 5.9062-5.9023 5.9062-3.2617 0-5.9062-2.6445-5.9062-5.9062 0-5.0234-3.0273-9.5547-7.6719-11.48-4.6406-1.9219-9.9883-0.85938-13.543 2.6953-3.5547 3.5547-4.6172 8.8984-2.6914 13.543 1.9219 4.6445 6.4531 7.6719 11.48 7.6719 8.0039 0 15.488 3.9492 20.004 10.559 4.5156 6.6055 5.4805 15.016 2.5742 22.473s-9.3086 12.996-17.102 14.805v5.9492c0 3.2617-2.6445 5.9062-5.9062 5.9062h33.348c0.32812-0.33203 0.69141-0.62109 1.082-0.86719 16.156-9.9414 27.152-26.453 30.094-45.191 2.9453-18.738-2.457-37.824-14.785-52.238-12.328-14.418-30.344-22.719-49.312-22.719z"/>
  <path d="m481.64 233.7-59.016-59.305v59.305z"/>
  <path d="m570.93 502.89c0.054688 41.426-33.508 75.051-74.961 75.105-41.453 0.050781-75.102-33.488-75.152-74.914-0.050781-41.43 33.512-75.051 74.965-75.105 41.449-0.050781 75.098 33.488 75.148 74.914"/>
  <path d="m408.55 502.99c0-45.898 36.711-83.582 80.988-86.613v-170.86h-73.309c-3.2617 0-5.4102-2.4414-5.4102-5.707v-74h-237.14v424.11h315.86v-0.30859c-44.281-3.0312-80.988-40.719-80.988-86.613zm12.375-166.9 19.703-19.703h-0.003906c2.3047-2.3047 6.043-2.3047 8.3516 0 2.3047 2.3086 2.3047 6.0469-0.003907 8.3516l-19.703 19.703h0.003906c-2.3125 2.2734-6.0234 2.2578-8.3164-0.035156-2.293-2.293-2.3086-6.0039-0.035157-8.3164zm-48.195-27.703 9.9102-26.043-0.003906 0.003906c0.55859-1.4648 1.6719-2.6484 3.1016-3.2891 1.4297-0.64062 3.0547-0.6875 4.5156-0.13281 3.0508 1.1602 4.5781 4.5703 3.4219 7.6211l-9.9102 26.043v-0.003906c-1.1602 3.0508-4.5703 4.5781-7.6172 3.4219-3.0469-1.1602-4.5781-4.5742-3.418-7.6211zm-49.488-36.309c0-3.2617 2.6445-5.9023 5.9023-5.9023 3.2617 0 5.9062 2.6406 5.9062 5.9023v27.551c0 3.2617-2.6445 5.9062-5.9062 5.9062-3.2578 0-5.9023-2.6445-5.9023-5.9062zm-60.074 10.547c1.4297-0.64062 3.0547-0.6875 4.5195-0.12891 1.4609 0.55469 2.6445 1.6719 3.2852 3.0977l11.406 25.422c0.65234 1.4297 0.70703 3.0625 0.15234 4.5312-0.55469 1.4688-1.6758 2.6562-3.1094 3.3008-1.4297 0.64453-3.0625 0.6875-4.5273 0.125-1.4688-0.5625-2.6523-1.6875-3.2852-3.1211l-11.41-25.422c-1.332-2.9727-0.003906-6.4688 2.9688-7.8047zm-21.402 62.145c-1.1055 1.1094-2.6094 1.7305-4.1719 1.7305-1.5664 0-3.0703-0.62109-4.1758-1.7305l-19.695-19.699c-2.2734-2.3125-2.2578-6.0234 0.035157-8.3164 2.293-2.293 6.0039-2.3086 8.3125-0.035156l19.695 19.703c2.3086 2.3047 2.3086 6.043 0 8.3477zm162.16 137.89h-146.62c-3.2578 0-5.9023-2.6445-5.9023-5.9062s2.6445-5.9023 5.9023-5.9023h21.945c-15.105-14.082-23.895-33.656-24.379-54.301-0.48437-20.645 7.3789-40.613 21.809-55.387 14.43-14.77 34.207-23.098 54.855-23.098 20.652 0 40.43 8.3281 54.859 23.098 14.43 14.773 22.293 34.742 21.809 55.387s-9.2734 40.219-24.379 54.301h20.098c3.2617 0 5.9062 2.6406 5.9062 5.9023s-2.6445 5.9062-5.9062 5.9062z"/>
  <path d="m580.55 573.81-13.91 13.906 43.484 43.473c0.14453 0.12891 0.28906 0.26172 0.43359 0.40234 3.8906 3.2969 9.6445 3.0898 13.293-0.46875 1.8867-1.8359 2.9531-4.3594 2.957-6.9922 0.003906-2.6367-1.0547-5.1602-2.9414-7z"/>
  <path d="m549.63 565.05 8.3477-8.3477 15.668 15.668-8.3477 8.3477z"/>
 </g>
</svg>