<?xml version="1.0" encoding="UTF-8"?>
<!-- The Best Svg Icon site in the world: iconSvg.co, Visit us! https://iconsvg.co -->
<svg fill="#000000" width="800px" height="800px" version="1.1" viewBox="144 144 512 512" xmlns="http://www.w3.org/2000/svg">
 <g>
  <path d="m400 573.92c-3.1875 0-6.0625 1.9219-7.2812 4.8633-1.2188 2.9453-0.54297 6.3359 1.7109 8.5859 2.2539 2.2539 5.6445 2.9258 8.5859 1.707 2.9453-1.2227 4.8633-4.0938 4.8594-7.2812-0.003906-4.3477-3.5273-7.8711-7.875-7.875z"/>
  <path d="m497.85 180.16h-195.71c-10.504 0.007812-20.574 4.1875-28 11.613-7.4297 7.4297-11.605 17.5-11.617 28.004v360.45c0.011718 10.504 4.1875 20.574 11.617 28 7.4258 7.4258 17.496 11.605 28 11.617h195.71c10.504-0.011719 20.574-4.1914 28.004-11.617 7.4258-7.4258 11.602-17.496 11.613-28v-360.45c-0.011719-10.504-4.1875-20.574-11.613-28.004-7.4297-7.4258-17.5-11.605-28.004-11.613zm-114.45 22.102h33.164c2.5273 0 4.5781 2.0508 4.5781 4.582 0 2.5273-2.0508 4.5781-4.5781 4.5781h-33.164c-2.5312 0-4.582-2.0508-4.582-4.5781 0-2.5312 2.0508-4.582 4.582-4.582zm16.594 396.58c-4.5195 0-8.8516-1.7969-12.047-4.9922-3.1953-3.1953-4.9922-7.5273-4.9922-12.047 0-4.5156 1.793-8.8516 4.9883-12.047 3.1953-3.1953 7.5273-4.9922 12.047-4.9922 4.5195 0 8.8516 1.793 12.047 4.9883 3.1953 3.1953 4.9922 7.5273 4.9922 12.047-0.003906 4.5156-1.7969 8.8477-4.9922 12.043-3.1953 3.1953-7.5273 4.9922-12.043 5zm100.83-55.254c0.003906 0.78906-0.3125 1.5469-0.87109 2.1055-0.55859 0.55859-1.3164 0.87109-2.1055 0.87109h-195.71c-0.78906 0-1.5469-0.3125-2.1055-0.87109-0.55859-0.55859-0.87109-1.3164-0.87109-2.1055v-310.07c0.011719-1.6367 1.3398-2.9648 2.9766-2.9766h195.71c1.6406 0.011719 2.9648 1.3398 2.9766 2.9766z"/>
  <path d="m413.96 406.04c0.035156-1.875-0.98828-3.6133-2.6484-4.4883-2.457-1.3516-5.0742-2.3945-7.7852-3.1055v16.535c7-0.73047 10.434-3.6562 10.434-8.9414z"/>
  <path d="m396.36 369.64c-2.4883 0.36328-4.8516 1.3359-6.8711 2.832-1.8164 1.3516-2.8555 3.5078-2.7891 5.7695-0.10938 2.0508 0.85156 4.0078 2.5352 5.1797 2.1875 1.4258 4.5977 2.4805 7.1289 3.1211z"/>
  <path d="m400 303.82c-23.457 0-45.953 9.3164-62.539 25.902-16.586 16.586-25.902 39.082-25.902 62.539 0 23.457 9.3164 45.953 25.902 62.539 16.586 16.586 39.082 25.902 62.539 25.902 23.453 0 45.949-9.3164 62.535-25.902 16.586-16.586 25.906-39.082 25.906-62.539-0.03125-23.445-9.3594-45.926-25.938-62.504-16.582-16.578-39.059-25.906-62.504-25.938zm0 153.08c-17.145 0.011718-33.59-6.7891-45.719-18.902-12.125-12.113-18.945-28.551-18.953-45.695-0.007813-17.141 6.793-33.582 18.91-45.711 12.117-12.125 28.559-18.938 45.699-18.941 17.141-0.003907 33.582 6.8008 45.707 18.922 12.121 12.121 18.934 28.559 18.934 45.703-0.015625 17.133-6.8242 33.562-18.941 45.676-12.113 12.117-28.539 18.934-45.676 18.949z"/>
  <path d="m399.96 336.79c-14.711-0.003907-28.816 5.8398-39.223 16.238-10.402 10.398-16.246 24.508-16.25 39.215-0.003906 14.711 5.8359 28.82 16.238 39.223 10.398 10.406 24.504 16.25 39.215 16.254 14.711 0.003906 28.816-5.8359 39.223-16.234 10.402-10.402 16.25-24.508 16.254-39.215-0.007813-14.707-5.8555-28.812-16.25-39.215-10.398-10.398-24.5-16.25-39.207-16.266zm21.07 78.625c-1.8633 2.7305-4.4297 4.9023-7.4297 6.2852-3.168 1.4922-6.5859 2.375-10.078 2.6055v5.332c0.027343 0.94531-0.33984 1.8594-1.0117 2.5234-1.4336 1.3203-3.6328 1.3438-5.1016 0.058594-0.69531-0.67188-1.0703-1.6133-1.0312-2.582v-5.3164c-5.8633-0.44141-11.617-1.8359-17.035-4.1211-0.875-0.36328-1.6172-0.97656-2.1406-1.7617-0.5625-0.76953-0.86328-1.6992-0.86719-2.6562-0.011719-1.5703 0.78906-3.0352 2.1172-3.875s2.9922-0.93359 4.4062-0.24609c4.2773 1.8984 8.8516 3.0352 13.52 3.3477v-18.367c-3.2227-0.83984-6.3789-1.9336-9.4336-3.2656-2.7695-1.2266-5.2031-3.1016-7.0977-5.4609-2-2.5898-3.0273-5.7969-2.9102-9.0664-0.019531-3.0977 0.79297-6.1445 2.3516-8.8242 1.6836-2.8164 4.0898-5.1289 6.9688-6.7031 3.125-1.7148 6.5703-2.7617 10.121-3.082v-5.2695c-0.03125-1.4609 0.83203-2.793 2.1758-3.3594 1.3477-0.56641 2.9023-0.25 3.9219 0.79297 0.6875 0.67578 1.0664 1.6016 1.0469 2.5664v5.1445-0.003907c4.9844 0.20703 9.9023 1.1836 14.586 2.8945 1.8867 0.57813 3.1328 2.3711 3.0273 4.3398 0 1.1484-0.42188 2.2578-1.1797 3.1172-0.78906 0.94922-1.9688 1.4844-3.2031 1.457-0.60156-0.023437-1.1914-0.16406-1.7383-0.41016-3.6914-1.2812-7.5469-2.0352-11.449-2.2422v19.055c3.3633 0.77344 6.6562 1.8086 9.8555 3.1016 2.8438 1.1836 5.3477 3.0586 7.2891 5.4492 2.0898 2.7852 3.1445 6.207 2.9883 9.6875 0.011719 3.1602-0.92969 6.25-2.6914 8.8711z"/>
 </g>
</svg>