<?xml version="1.0" encoding="UTF-8"?>
<!-- The Best Svg Icon site in the world: iconSvg.co, Visit us! https://iconsvg.co -->
<svg fill="#000000" width="800px" height="800px" version="1.1" viewBox="144 144 512 512" xmlns="http://www.w3.org/2000/svg">
 <g>
  <path d="m404.91 224.85h0.007813c0-0.0625-0.007813 0-0.007813 0z"/>
  <path d="m365.38 422.63h30.375c-1.6523-1.0898-2.6445-2.9375-2.6445-4.918v-6.0625c-5.0156-1.4844-9.4219-4.5469-12.555-8.7383-3.1367-4.1875-4.832-9.2773-4.8398-14.508 0-3.2617 2.6406-5.9062 5.9023-5.9062 3.2617 0 5.9023 2.6445 5.9023 5.9062 0 5.0234 3.0312 9.5547 7.6719 11.48 4.6445 1.9219 9.9883 0.85938 13.543-2.6953s4.6172-8.8984 2.6953-13.543c-1.9219-4.6445-6.457-7.6719-11.48-7.6719-7.8359 0-15.191-3.7891-19.738-10.172-4.5469-6.3828-5.7266-14.57-3.1641-21.977 2.5586-7.4102 8.5469-13.121 16.062-15.332v-5.2461c0-3.2617 2.6445-5.9023 5.9062-5.9023 3.2578 0 5.9023 2.6406 5.9023 5.9023v4.7734c5.4453 1.1484 10.328 4.1289 13.836 8.4492 3.5039 4.3164 5.4219 9.707 5.4297 15.27 0 3.2617-2.6445 5.9062-5.9023 5.9062-3.2617 0-5.9062-2.6445-5.9062-5.9062 0-5.0234-3.0273-9.5547-7.6719-11.48-4.6406-1.9219-9.9883-0.85937-13.543 2.6953-3.5547 3.5508-4.6172 8.8984-2.6914 13.543 1.9219 4.6406 6.4531 7.6719 11.48 7.6719 8.0664-0.003907 15.602 4.0078 20.105 10.699 4.5039 6.6914 5.3828 15.184 2.3477 22.656-3.0352 7.4727-9.5898 12.945-17.484 14.598v5.5898c0 1.9805-0.99219 3.8281-2.6406 4.918h32.238c15.984-10.062 26.789-26.594 29.594-45.27 2.8047-18.68-2.6719-37.652-14.996-51.969-12.324-14.312-30.277-22.543-49.164-22.543s-36.84 8.2305-49.164 22.543c-12.324 14.316-17.801 33.289-14.996 51.969 2.8047 18.676 13.605 35.207 29.59 45.27z"/>
  <path d="m393.11 224.85h0.007813c0.003906 0-0.007813-0.0625-0.007813 0z"/>
  <path d="m194.34 258.69v245.62h147.09c1.6602 0.035156 3.2344 0.76172 4.3398 2l8.1016 8.8906c6.4727 6.9219 15.539 10.82 25.016 10.754h42.215-0.003907c9.4883 0.03125 18.555-3.9062 25.016-10.855l8.1016-8.6836c1.0977-1.2695 2.668-2.0312 4.3438-2.1055h147.09v-245.62c-0.046875-9.0156-3.668-17.641-10.066-23.984-6.4023-6.3477-15.059-9.8906-24.074-9.8555h-166.6v27.551c-0.019531 1.0156-0.23828 2.0195-0.64844 2.9531h39.27l7.5078-19.828h-0.003906c0.53906-1.4805 1.6523-2.6836 3.082-3.3398 1.4336-0.65625 3.0664-0.71484 4.543-0.15625 1.4727 0.55469 2.6641 1.6797 3.3047 3.1172 0.64062 1.4414 0.67969 3.0781 0.10547 4.543l-5.9023 15.66 115.87 0.003906c1.5547-0.066406 3.0664 0.49219 4.207 1.5508 1.1367 1.0586 1.8047 2.5273 1.8516 4.082v212.87c-0.078124 3.2773-2.7773 5.8867-6.0586 5.8477h-344.09c-3.2773 0.039063-5.9805-2.5703-6.0586-5.8477v-212.87c0.046875-1.5547 0.71484-3.0234 1.8516-4.082 1.1406-1.0586 2.6562-1.6172 4.207-1.5508h105.88l-5.2227-11.738v-0.003906c-1.3359-3.0039-0.011719-6.5234 2.9688-7.9023 2.9961-1.3125 6.4844 0.046875 7.8047 3.0352l7.3906 16.609h46.988c-0.40625-0.93359-0.62891-1.9375-0.64844-2.9531v-27.551h-164.63c-9.0117-0.035156-17.672 3.5078-24.074 9.8555-6.3984 6.3438-10.02 14.969-10.062 23.984z"/>
  <path d="m347.82 272c-0.76562 0.3125-1.5898 0.45312-2.4141 0.41797-2.3164 0.027343-4.4297-1.3125-5.3867-3.4219l-0.88672-1.8398h-105.43v200.74h332.59v-200.74h-114.83c-1.1094 0.98438-2.9141 2.4453-4.8164 2.4453l0.003906 0.003907c-0.72266-0.023438-1.4336-0.17969-2.0977-0.45703-1.1055-0.34766-2.0664-1.0469-2.7344-1.9922h-90.531c-0.19922 2.125-1.5273 3.9727-3.4727 4.8438zm-37.641 25.781c-1.1055 1.1094-2.6094 1.7305-4.1758 1.7305-1.5625 0-3.0664-0.62109-4.1719-1.7305l-19.703-19.699c-2.3047-2.3086-2.3047-6.0469 0-8.3516 2.3047-2.3047 6.043-2.3047 8.3477 0l19.703 19.703c1.1094 1.1055 1.7305 2.6094 1.7305 4.1758s-0.62109 3.0664-1.7305 4.1758zm179.15-8.6797 19.703-19.703c1.1055-1.1211 2.6094-1.7539 4.1836-1.7617 1.5742-0.007813 3.0859 0.61719 4.1992 1.7305 1.1133 1.1133 1.7344 2.6211 1.7305 4.1953-0.007812 1.5742-0.64062 3.082-1.7656 4.1875l-19.703 19.703h0.003907c-2.3086 2.3047-6.0469 2.3047-8.3516 0-2.3047-2.3086-2.3047-6.0469 0-8.3516zm-12.695 78.621c0.074219 20.68-8.2656 40.5-23.105 54.906h19.289c3.2578 0 5.9023 2.6445 5.9023 5.9062 0 3.2617-2.6445 5.9023-5.9023 5.9023h-146.62c-3.2617 0-5.9062-2.6406-5.9062-5.9023 0-3.2617 2.6445-5.9062 5.9062-5.9062h20.164c-18.391-17.945-26.57-43.914-21.789-69.16 4.7812-25.25 21.891-46.426 45.57-56.406 23.68-9.9805 50.785-7.4414 72.199 6.7695 21.41 14.207 34.285 38.195 34.289 63.891z"/>
  <path d="m454.81 523c-8.6875 9.3945-20.898 14.746-33.699 14.758h-42.215 0.003907c-12.797-0.011718-25.012-5.3594-33.695-14.758l-6.3516-6.8867-165.17-0.003906v25.203c-0.054688 8.9688 3.4766 17.586 9.8047 23.938 6.332 6.3555 14.938 9.918 23.906 9.9023h385.22c8.9688 0.015625 17.57-3.5469 23.902-9.9023 6.3281-6.3516 9.8594-14.969 9.8086-23.938v-25.203h-165.17z"/>
 </g>
</svg>