<?xml version="1.0" encoding="UTF-8"?>
<!-- The Best Svg Icon site in the world: iconSvg.co, Visit us! https://iconsvg.co -->
<svg fill="#000000" width="800px" height="800px" version="1.1" viewBox="144 144 512 512" xmlns="http://www.w3.org/2000/svg">
 <g>
  <path d="m512.51 263.87c3.0898 2.9844 8 2.9414 11.035-0.09375 3.0391-3.0391 3.082-7.9492 0.097656-11.035l-15.746-15.746c-2.25-2.25-5.6328-2.9219-8.5742-1.707-2.9414 1.2188-4.8594 4.0898-4.8633 7.2734v55.105c0 2.0859 0.83203 4.0898 2.3086 5.5664 1.4766 1.4727 3.4766 2.3047 5.5664 2.3047h55.105-0.003906c3.1836 0 6.0547-1.918 7.2734-4.8594 1.2188-2.9414 0.54297-6.3281-1.707-8.5781l-15.742-15.742v-0.003907c-3.0898-2.9805-8-2.9414-11.035 0.097657-3.0391 3.0352-3.082 7.9453-0.097656 11.035l2.3047 2.3047h-28.227v-28.227z"/>
  <path d="m581.05 163.84c-14.613 0-28.629 5.8086-38.965 16.141-10.332 10.336-16.141 24.352-16.141 38.965 0 14.613 5.8086 28.633 16.141 38.965 10.336 10.336 24.352 16.141 38.965 16.141 14.613 0 28.633-5.8047 38.965-16.141 10.336-10.332 16.141-24.352 16.141-38.965-0.019531-14.609-5.8281-28.613-16.16-38.945-10.328-10.332-24.336-16.141-38.945-16.16zm0 86.594c-4.3477 0-7.8711-3.5234-7.8711-7.8711s3.5234-7.8711 7.8711-7.8711c4.1758 0 8.1797-1.6602 11.133-4.6133s4.6133-6.957 4.6133-11.133c0-4.3477 3.5234-7.8711 7.8711-7.8711s7.8711 3.5234 7.8711 7.8711c0 8.3516-3.3164 16.359-9.2227 22.266s-13.914 9.2227-22.266 9.2227z"/>
  <path d="m218.94 163.84c-14.613 0-28.629 5.8086-38.965 16.141-10.332 10.336-16.141 24.352-16.141 38.965 0 14.613 5.8086 28.633 16.141 38.965 10.336 10.336 24.352 16.141 38.965 16.141 14.613 0 28.633-5.8047 38.965-16.141 10.336-10.332 16.141-24.352 16.141-38.965-0.015625-14.609-5.8281-28.613-16.16-38.945-10.328-10.332-24.336-16.141-38.945-16.16zm0 86.594c-4.3477 0-7.8711-3.5234-7.8711-7.8711s3.5234-7.8711 7.8711-7.8711c4.1758 0 8.1797-1.6602 11.133-4.6133s4.6133-6.957 4.6133-11.133c0-4.3477 3.5234-7.8711 7.8711-7.8711s7.8711 3.5234 7.8711 7.8711c0 8.3516-3.3164 16.359-9.2227 22.266s-13.914 9.2227-22.266 9.2227z"/>
  <path d="m536.13 523.64c3.0742 3.0742 8.0586 3.0742 11.133 0l15.742-15.742v-0.003906c2.25-2.25 2.9258-5.6328 1.707-8.5742-1.2188-2.9414-4.0898-4.8594-7.2734-4.8633h-55.102c-4.3477 0-7.875 3.5273-7.875 7.875v55.105-0.003906c0 3.1836 1.918 6.0547 4.8594 7.2734 0.95313 0.39844 1.9805 0.60156 3.0156 0.60156 2.0859 0 4.0898-0.83203 5.5625-2.3086l15.742-15.742h0.003906c2.9844-3.0898 2.9414-8-0.097656-11.035-3.0352-3.0391-7.9453-3.082-11.035-0.097656l-2.3047 2.3086v-28.23h28.23l-2.3047 2.3047h-0.003906c-3.0742 3.0742-3.0742 8.0586 0 11.133z"/>
  <path d="m581.05 525.95c-14.613 0-28.629 5.8086-38.965 16.141-10.332 10.336-16.141 24.352-16.141 38.965 0 14.613 5.8086 28.633 16.141 38.965 10.336 10.336 24.352 16.141 38.965 16.141 14.613 0 28.633-5.8047 38.965-16.141 10.336-10.332 16.141-24.352 16.141-38.965-0.019531-14.609-5.8281-28.617-16.16-38.945-10.328-10.332-24.336-16.141-38.945-16.16zm0 86.594c-4.3477 0-7.8711-3.5234-7.8711-7.8711s3.5234-7.8711 7.8711-7.8711c4.1758 0 8.1797-1.6602 11.133-4.6133s4.6133-6.957 4.6133-11.133c0-4.3477 3.5234-7.8711 7.8711-7.8711s7.8711 3.5234 7.8711 7.8711c0 8.3516-3.3164 16.359-9.2227 22.266s-13.914 9.2227-22.266 9.2227z"/>
  <path d="m274.05 581.05c0-14.613-5.8047-28.629-16.141-38.965-10.332-10.332-24.352-16.141-38.965-16.141-14.613 0-28.629 5.8086-38.965 16.141-10.332 10.336-16.141 24.352-16.141 38.965 0 14.613 5.8086 28.633 16.141 38.965 10.336 10.336 24.352 16.141 38.965 16.141 14.609-0.019531 28.617-5.8281 38.945-16.16 10.332-10.328 16.145-24.336 16.16-38.945zm-62.977 23.617c0-4.3477 3.5234-7.8711 7.8711-7.8711 4.1758 0 8.1797-1.6602 11.133-4.6133s4.6133-6.957 4.6133-11.133c0-4.3477 3.5234-7.8711 7.8711-7.8711s7.8711 3.5234 7.8711 7.8711c0 8.3516-3.3164 16.359-9.2227 22.266s-13.914 9.2227-22.266 9.2227c-4.3477 0-7.8711-3.5234-7.8711-7.8711z"/>
  <path d="m400 266.18c-27.387 0.046875-54.098 8.4883-76.535 24.184-22.441 15.695-39.527 37.895-48.961 63.605-0.046875 0.125-0.09375 0.24219-0.13281 0.37891l-0.003906-0.003906c-10.922 29.461-10.922 61.859 0 91.316 0 0.125 0.085937 0.24219 0.13281 0.37109h0.003906c12.602 34.523 38.867 62.328 72.617 76.875 33.75 14.543 72.004 14.543 105.75 0 33.75-14.547 60.016-42.352 72.621-76.875 0.046875-0.125 0.09375-0.24219 0.13281-0.37109 10.922-29.457 10.922-61.855 0-91.316-0.039062-0.13281-0.085937-0.25-0.13281-0.37891v0.003906c-9.4375-25.711-26.523-47.91-48.961-63.605-22.441-15.695-49.152-24.137-76.535-24.184zm0 15.742c13.672 0 31.332 16.059 44.477 41.305-13.383-1.2969-28.211-1.9453-44.477-1.9453-16.27 0-31.094 0.64844-44.477 1.9453 13.145-25.246 30.801-41.305 44.477-41.305zm-40.934 7.4531h-0.003906c-9.3203 10.871-16.918 23.105-22.535 36.277-11.938 1.7773-23.648 4.8516-34.922 9.1602 13.875-20.832 33.988-36.738 57.457-45.438zm-70.414 71.637c7.6914-7.9336 21.828-14.027 41.477-18.105h-0.003906c-5.0273 15.957-7.9062 32.508-8.5625 49.223h-39.242c0.69531-10.621 2.832-21.098 6.3594-31.141zm222.64 78.004c-7.6523 7.8711-22.098 14.168-42.051 18.246h-0.003906c-2.1133 0.34766-3.9961 1.5391-5.2109 3.3008-1.2188 1.7656-1.6602 3.9453-1.2344 6.0469 0.42969 2.0977 1.6953 3.9297 3.5039 5.0742 1.8125 1.1445 4.0078 1.5039 6.0898 0.99219 8.8672-1.7305 17.559-4.2539 25.977-7.5391-21.824 33.059-58.789 52.949-98.398 52.949-39.613 0-76.578-19.891-98.402-52.949 8.418 3.2852 17.109 5.8086 25.977 7.5391 2.082 0.51172 4.2812 0.15234 6.0898-0.99219 1.8086-1.1445 3.0742-2.9766 3.5039-5.0742 0.42969-2.1016-0.015625-4.2812-1.2344-6.0469-1.2148-1.7617-3.0938-2.9531-5.2109-3.3008-19.957-4.0703-34.402-10.375-42.051-18.246-3.5156-10.043-5.6406-20.52-6.3203-31.141h39.219c0.23438 5.6055 0.62891 11.211 1.3633 16.773h-0.003906c0.22266 2.1133 1.2891 4.0508 2.957 5.3672 1.668 1.3164 3.7969 1.8984 5.9062 1.6211 2.1055-0.27734 4.0117-1.3945 5.2812-3.1016 1.2695-1.7031 1.7969-3.8477 1.4609-5.9492-0.98438-7.4883-1.4805-15.031-1.4805-22.582 0.03125-20.52 3.7773-40.859 11.059-60.043 17.227-2.0625 34.566-3.043 51.918-2.9336 17.348-0.10938 34.688 0.87109 51.914 2.9336 7.2812 19.184 11.027 39.523 11.062 60.043-0.003906 7.5508-0.5 15.094-1.4805 22.582-0.57031 4.3086 2.4609 8.2617 6.7695 8.832 0.33203 0.046876 0.66797 0.070313 1.0078 0.074219 3.9453-0.007812 7.2773-2.9297 7.793-6.8438 0.73047-5.5664 1.125-11.172 1.3633-16.773h39.219-0.003907c-0.67969 10.613-2.8086 21.082-6.3203 31.117zm6.3789-46.887h-39.242c-0.66406-16.719-3.5547-33.273-8.5938-49.23 19.68 4.0625 33.785 10.156 41.477 18.105 3.5273 10.039 5.6641 20.512 6.3594 31.125zm-54.238-66.48v0.003907c-5.6055-13.172-13.195-25.402-22.504-36.277 23.473 8.6992 43.59 24.605 57.465 45.438-11.285-4.3125-23.008-7.3867-34.961-9.1602z"/>
  <path d="m427.75 400.61c9.0977-7.6641 14.531-18.816 14.957-30.703 0.16797-4.4414-1.1641-8.8125-3.7773-12.406-2.6172-3.5938-6.3633-6.207-10.645-7.4141-5.6562-1.5781-11.727-0.45703-16.449 3.0312-3.5312-2.2656-7.6367-3.4727-11.832-3.4727s-8.3047 1.207-11.832 3.4727c-4.7383-3.4688-10.801-4.5859-16.461-3.0312-4.2773 1.2109-8.0234 3.8203-10.637 7.418-2.6172 3.5938-3.9453 7.9609-3.7773 12.402 0.72266 11.828 6.4219 22.793 15.68 30.184-19.156 11.617-31.145 32.129-31.863 54.52 0 34.828 22.008 55.594 58.891 55.594 36.879 0 58.891-20.766 58.891-55.555-0.71094-22.082-12.395-42.355-31.145-54.039zm-27.746 85.977c-8.3516 0-16.363-3.3164-22.266-9.2227-5.9062-5.9023-9.2227-13.914-9.2227-22.266 0-4.3477 3.5234-7.8711 7.8711-7.8711 4.3477 0 7.8711 3.5234 7.8711 7.8711 0 4.1758 1.6602 8.1797 4.6133 11.133 2.9531 2.9531 6.957 4.6133 11.133 4.6133 4.3477 0 7.8711 3.5234 7.8711 7.8711s-3.5234 7.8711-7.8711 7.8711z"/>
  <path d="m300.68 235.29c-2.9414-1.2188-6.3281-0.54688-8.5781 1.707l-15.746 15.746c-2.9805 3.0859-2.9414 7.9961 0.097657 11.035 3.0352 3.0352 7.9453 3.0781 11.035 0.09375l2.3047-2.3047v28.227h-28.227l2.3047-2.3047c2.9844-3.0898 2.9414-8-0.09375-11.035-3.0391-3.0391-7.9492-3.0781-11.035-0.097657l-15.746 15.746c-2.25 2.25-2.9219 5.6367-1.707 8.5781 1.2188 2.9414 4.0898 4.8594 7.2734 4.8594h55.105c2.0859 0 4.0898-0.83203 5.5664-2.3047 1.4727-1.4766 2.3047-3.4805 2.3047-5.5664v-55.105c0-3.1836-1.918-6.0547-4.8594-7.2734z"/>
  <path d="m287.48 536.13c-3.0898-2.9844-8-2.9414-11.035 0.097656-3.0391 3.0352-3.0781 7.9453-0.097657 11.035l15.742 15.742h0.003906c1.4766 1.4766 3.4766 2.3086 5.5664 2.3086 1.0312 0 2.0586-0.20312 3.0117-0.60156 2.9414-1.2188 4.8594-4.0898 4.8594-7.2734v-55.102c0-2.0898-0.83203-4.0898-2.3047-5.5664-1.4766-1.4766-3.4805-2.3086-5.5664-2.3086h-55.105c-3.1836 0.003906-6.0547 1.9219-7.2734 4.8633-1.2148 2.9414-0.54297 6.3242 1.707 8.5742l15.746 15.746c3.0859 2.9844 7.9961 2.9414 11.035-0.097656 3.0352-3.0352 3.0781-7.9453 0.09375-11.035l-2.3047-2.3047h28.227v28.23z"/>
 </g>
</svg>