<?xml version="1.0" encoding="UTF-8"?>
<!-- The Best Svg Icon site in the world: iconSvg.co, Visit us! https://iconsvg.co -->
<svg fill="#000000" width="800px" height="800px" version="1.1" viewBox="144 144 512 512" xmlns="http://www.w3.org/2000/svg">
 <g>
  <path d="m592.29 369.04-31.488-10.496c-1.0898-0.32812-2.2188-0.50391-3.3594-0.52344h-5.7734 0.003907c-3.5469-12.461-8.6602-24.414-15.223-35.582l4.1992-4.0938c0.76953-0.80469 1.4102-1.7266 1.8906-2.7305l14.902-29.703c2.0039-3.8945 1.375-8.6211-1.5742-11.859l-29.914-29.914c-3.2383-2.9492-7.9648-3.5742-11.859-1.5742l-30.125 14.484c-1.0273 0.48047-1.957 1.1562-2.7266 1.9922l-4.0938 4.0938c-11.078-6.3398-22.887-11.309-35.16-14.797v-5.7734c0.14844-1.1133 0.14844-2.2461 0-3.3594l-10.496-31.488c-1.5039-4.4648-5.793-7.3828-10.496-7.1367h-41.984c-4.5156-0.011719-8.5273 2.8633-9.9727 7.1367l-10.496 31.488c-0.32812 1.0898-0.50391 2.2188-0.52344 3.3594v5.7734c-12.441 3.5898-24.395 8.6992-35.582 15.219l-4.0938-4.0938c-0.76953-0.83594-1.6992-1.5156-2.7305-1.9961l-29.703-14.902c-3.8945-2-8.6211-1.375-11.859 1.5742l-29.914 29.914c-2.9492 3.2383-3.5742 7.9648-1.5742 11.859l14.484 30.125c0.48047 1.0039 1.1172 1.9258 1.8906 2.7266l4.1992 4.0938h-0.003906c-6.3828 11.059-11.355 22.871-14.797 35.164h-5.7734c-1.1406 0.019531-2.2695 0.19531-3.3594 0.52344l-31.488 10.496c-4.2734 1.4453-7.1484 5.457-7.1367 9.9727v41.984c-0.011719 4.5117 2.8633 8.5273 7.1367 9.9688l31.488 10.496c1.0898 0.32812 2.2188 0.50391 3.3594 0.52734h5.7734c3.543 12.457 8.6562 24.414 15.219 35.578l-4.1992 4.0938c-0.76953 0.80469-1.4062 1.7266-1.8906 2.7305l-14.902 29.703c-2 3.8945-1.375 8.6211 1.5742 11.859l29.914 29.914c3.1797 3.1836 8.0352 3.9883 12.07 1.9961l29.914-14.906c1.0312-0.48047 1.957-1.1562 2.7266-1.9922l4.0938-4.0938c11.059 6.3828 22.871 11.355 35.164 14.801v5.7695c0.019531 1.1406 0.19531 2.2695 0.52344 3.3594l10.496 31.488c1.4453 4.2773 5.457 7.1484 9.9727 7.1367h41.984c4.5117 0.011719 8.5273-2.8594 9.9688-7.1367l10.496-31.488c0.32812-1.0898 0.50391-2.2188 0.52734-3.3594v-5.7734 0.003907c12.457-3.5469 24.414-8.6602 35.578-15.223l4.0938 4.0938c0.77344 0.83594 1.6992 1.5156 2.7305 1.9961l29.703 14.902c3.8945 2.0039 8.6211 1.375 11.859-1.5742l29.914-29.914c2.9492-3.2383 3.5781-7.9648 1.5742-11.859l-14.484-30.125c-0.48047-1.0039-1.1172-1.9219-1.8867-2.7266l-4.1992-4.0938c6.3828-11.055 11.355-22.867 14.801-35.16h5.7695c1.1406-0.023437 2.2695-0.19922 3.3594-0.52734l31.488-10.496c4.2773-1.4414 7.1484-5.457 7.1367-9.9688v-41.984c0.011719-4.5156-2.8594-8.5273-7.1367-9.9727zm-192.29 146.42c-30.621 0-59.988-12.164-81.641-33.816-21.652-21.652-33.816-51.016-33.816-81.637s12.164-59.988 33.816-81.641 51.02-33.816 81.641-33.816 59.984 12.164 81.637 33.816c21.652 21.652 33.816 51.02 33.816 81.641s-12.164 59.984-33.816 81.637c-21.652 21.652-51.016 33.816-81.637 33.816z"/>
  <path d="m410.5 400c0 5.7969-4.6992 10.496-10.496 10.496s-10.496-4.6992-10.496-10.496 4.6992-10.496 10.496-10.496 10.496 4.6992 10.496 10.496"/>
  <path d="m400 305.54c-25.055 0-49.082 9.9531-66.797 27.668s-27.668 41.742-27.668 66.797c0 25.051 9.9531 49.078 27.668 66.793 17.715 17.719 41.742 27.668 66.797 27.668 25.051 0 49.078-9.9492 66.793-27.668 17.719-17.715 27.668-41.742 27.668-66.793 0-25.055-9.9492-49.082-27.668-66.797-17.715-17.715-41.742-27.668-66.793-27.668zm52.48 146.95c-4.0938 4.0664-10.707 4.0664-14.801 0l-24.141-24.145c-9.7422 4.6406-21.18 3.9688-30.312-1.7773-9.1328-5.7461-14.688-15.77-14.715-26.559 0.015625-6.4961 2.043-12.828 5.8008-18.129 3.7617-5.3008 9.0664-9.3047 15.191-11.473v-33.375c0-5.7969 4.6992-10.496 10.496-10.496s10.496 4.6992 10.496 10.496v33.379-0.003906c6.125 2.168 11.43 6.1719 15.188 11.473 3.7578 5.3008 5.7852 11.633 5.8047 18.129-0.03125 4.6914-1.1055 9.3164-3.1523 13.539l24.145 23.617c2.1172 1.9844 3.3203 4.7578 3.3203 7.6602s-1.2031 5.6797-3.3203 7.6641z"/>
 </g>
</svg>