<?xml version="1.0" encoding="UTF-8"?>
<!-- The Best Svg Icon site in the world: iconSvg.co, Visit us! https://iconsvg.co -->
<svg fill="#000000" width="800px" height="800px" version="1.1" viewBox="144 144 512 512" xmlns="http://www.w3.org/2000/svg">
 <g>
  <path d="m400 320.86c-44.195 0-80.141 35.953-80.141 80.148 0 10.25 1.9062 20.227 5.668 29.645 1.0742 2.6914 4.1211 4.0078 6.8164 2.9297 2.6914-1.0742 4.0039-4.1289 2.9297-6.8164-3.2656-8.1836-4.9219-16.848-4.9219-25.758 0-38.406 31.246-69.652 69.645-69.652 38.398 0 69.645 31.246 69.645 69.652s-31.246 69.645-69.645 69.645c-3.7617 0-7.5117-0.30078-11.133-0.88281-2.8984-0.48828-5.5586 1.4805-6.0195 4.3438-0.46094 2.8672 1.4805 5.5586 4.3438 6.0195 4.1758 0.67188 8.4844 1.0195 12.805 1.0195 44.195 0 80.141-35.953 80.141-80.141 0.007813-44.199-35.941-80.152-80.133-80.152z"/>
  <path d="m371.08 464.4c-7.5742-3.457-14.406-8.2148-20.32-14.121-2.875-2.875-5.5039-6.0078-7.8203-9.3047-1.6641-2.3711-4.9336-2.9492-7.3086-1.2852-2.3711 1.6641-2.9492 4.9375-1.2852 7.3086 2.6602 3.793 5.6836 7.3945 8.9883 10.699 6.7969 6.7969 14.664 12.266 23.379 16.246 0.70703 0.32422 1.4492 0.47656 2.1797 0.47656 1.9883 0 3.8945-1.1406 4.7773-3.0703 1.207-2.6328 0.046875-5.75-2.5898-6.9492z"/>
  <path d="m400 277.83c-67.918 0-123.18 55.262-123.18 123.19 0 67.918 55.262 123.18 123.18 123.18 67.926 0 123.19-55.262 123.19-123.18-0.003906-67.93-55.266-123.19-123.19-123.19zm0 235.88c-62.137 0-112.68-50.551-112.68-112.68-0.003906-62.141 50.547-112.7 112.68-112.7s112.69 50.555 112.69 112.69c-0.003906 62.137-50.555 112.69-112.69 112.69z"/>
  <path d="m588.93 548.5c-22.852 0-41.438 18.59-41.438 41.438 0 1.7109 0.10547 3.3945 0.30469 5.0469 0.35156 2.875 2.9805 4.918 5.8477 4.5781 2.875-0.35156 4.9219-2.9688 4.5781-5.8477-0.15234-1.2383-0.22656-2.5039-0.22656-3.7773 0-17.062 13.883-30.941 30.941-30.941 17.062 0 30.941 13.883 30.941 30.941 0 17.062-13.883 30.941-30.941 30.941-2.8984 0-5.2461 2.3516-5.2461 5.2461 0 2.8984 2.3516 5.2461 5.2461 5.2461 22.852 0 41.438-18.59 41.438-41.438 0-22.844-18.594-41.434-41.445-41.434z"/>
  <path d="m575.34 617.75c-5.5508-2.7148-10.129-6.9805-13.227-12.34-1.4531-2.5156-4.6602-3.3711-7.168-1.9141-2.5078 1.4531-3.3711 4.6602-1.9141 7.168 4.1523 7.1758 10.27 12.883 17.707 16.516 0.73828 0.36328 1.5273 0.53516 2.2969 0.53516 1.9414 0 3.8086-1.082 4.7188-2.9453 1.2734-2.6055 0.19141-5.75-2.4141-7.0195z"/>
  <path d="m211.07 548.5c-22.852 0-41.438 18.59-41.438 41.438 0 1.7109 0.10547 3.3945 0.30469 5.0469 0.35156 2.875 2.9805 4.918 5.8477 4.5781 2.875-0.35156 4.9219-2.9688 4.5781-5.8477-0.15234-1.2383-0.22656-2.5039-0.22656-3.7773 0-17.062 13.883-30.941 30.941-30.941 17.062 0 30.941 13.883 30.941 30.941 0 17.062-13.883 30.941-30.941 30.941-2.8984 0-5.2461 2.3516-5.2461 5.2461 0 2.8984 2.3516 5.2461 5.2461 5.2461 22.852 0 41.438-18.59 41.438-41.438-0.003906-22.844-18.598-41.434-41.445-41.434z"/>
  <path d="m197.49 617.75c-5.5508-2.7148-10.129-6.9805-13.227-12.34-1.4492-2.5156-4.6641-3.3711-7.168-1.9141-2.5078 1.4492-3.3711 4.6602-1.9141 7.168 4.1523 7.1758 10.27 12.883 17.707 16.516 0.73828 0.36328 1.5273 0.53516 2.2969 0.53516 1.9414 0 3.8086-1.082 4.7188-2.9453 1.2695-2.6055 0.1875-5.75-2.4141-7.0195z"/>
  <path d="m553.64 221.71c2.875-0.35156 4.9219-2.9688 4.5781-5.8477-0.15234-1.2383-0.22656-2.5039-0.22656-3.7773 0-17.062 13.883-30.941 30.941-30.941 17.062 0 30.941 13.883 30.941 30.941 0 17.062-13.883 30.941-30.941 30.941-2.8984 0-5.2461 2.3516-5.2461 5.2461 0 2.8984 2.3516 5.2461 5.2461 5.2461 22.852 0 41.438-18.59 41.438-41.438 0-22.844-18.594-41.434-41.445-41.434-22.852 0-41.438 18.59-41.438 41.438 0 1.7109 0.10547 3.3945 0.30469 5.0469 0.35156 2.8828 2.9805 4.918 5.8477 4.5781z"/>
  <path d="m562.12 227.55c-1.4531-2.5156-4.6602-3.3711-7.168-1.9141-2.5078 1.4492-3.3711 4.6602-1.9141 7.168 4.1523 7.1758 10.27 12.883 17.707 16.516 0.73828 0.36328 1.5273 0.53516 2.2969 0.53516 1.9414 0 3.8086-1.082 4.7188-2.9453 1.2734-2.6016 0.19531-5.7461-2.4102-7.0156-5.5586-2.7188-10.137-6.9844-13.23-12.344z"/>
  <path d="m211.07 170.64c-22.852 0-41.438 18.59-41.438 41.438 0 1.7109 0.10547 3.3945 0.30469 5.0469 0.35156 2.875 2.9805 4.9141 5.8477 4.5781 2.875-0.35156 4.9219-2.9688 4.5781-5.8477-0.15234-1.2383-0.22656-2.5039-0.22656-3.7773 0-17.062 13.883-30.941 30.941-30.941 17.062 0 30.941 13.883 30.941 30.941 0 17.062-13.883 30.941-30.941 30.941-2.8984 0-5.2461 2.3516-5.2461 5.2461 0 2.8984 2.3516 5.2461 5.2461 5.2461 22.852 0 41.438-18.59 41.438-41.438-0.003906-22.844-18.598-41.434-41.445-41.434z"/>
  <path d="m192.88 249.32c0.73828 0.36328 1.5273 0.53516 2.2969 0.53516 1.9414 0 3.8086-1.082 4.7188-2.9453 1.2734-2.6016 0.19531-5.7461-2.4102-7.0156-5.5508-2.7148-10.129-6.9805-13.227-12.34-1.4492-2.5156-4.6641-3.3711-7.168-1.9141-2.5078 1.4492-3.3711 4.6602-1.9141 7.168 4.1484 7.168 10.27 12.879 17.703 16.512z"/>
  <path d="m296.09 496.48-40.82 40.824c-2.0508 2.0508-2.0508 5.375 0 7.4219 1.0234 1.0234 2.3672 1.5391 3.7109 1.5391s2.6875-0.51562 3.7109-1.5391l40.82-40.824c2.0508-2.0508 2.0508-5.375 0-7.4219-2.0469-2.0547-5.3711-2.0547-7.4219 0z"/>
  <path d="m500.2 305.05c1.3438 0 2.6875-0.51562 3.7109-1.5391l40.82-40.812c2.0508-2.0469 2.0508-5.3672 0-7.4219-2.0508-2.0508-5.3672-2.0508-7.4219 0l-40.82 40.812c-2.0508 2.0469-2.0508 5.3672 0 7.4219 1.0234 1.0312 2.3672 1.5391 3.7109 1.5391z"/>
  <path d="m503.9 496.48c-2.0508-2.0508-5.3672-2.0508-7.4219 0-2.0508 2.0508-2.0508 5.3672 0 7.4219l40.824 40.82c1.0234 1.0234 2.3672 1.5391 3.7109 1.5391s2.6875-0.51562 3.7109-1.5391c2.0508-2.0508 2.0508-5.3672 0-7.4219z"/>
  <path d="m296.09 303.52c1.0234 1.0234 2.3672 1.5391 3.7109 1.5391s2.6875-0.51563 3.7109-1.5391c2.0508-2.0508 2.0508-5.3672 0-7.4219l-40.812-40.82c-2.0508-2.0508-5.3672-2.0508-7.4219 0-2.0508 2.0508-2.0508 5.3672 0 7.4219z"/>
  <path d="m398.83 432.14c-8.4648 0-14.457-3.0586-20.336-6.2305l-4.9805 7.8711c6.1172 4.5859 15.988 7.1758 21.234 7.7617v10.934h10.496v-11.051c15.742-1.7617 20.305-11.992 20.305-24.215 0-31.387-39.75-19.047-39.75-37.855 0-6.582 2.2891-12.574 13.809-12.574 5.168 0 11.309 1.4102 17.773 5.6406l5.1523-7.5273c-5.2812-3.9961-12.039-6.4648-17.289-7.1719v-10.207h-10.496v10.207c-10.496 1.1758-19.469 8.9375-19.469 21.746 0 29.273 39.582 13.402 39.582 38.559-0.003906 7.8828-3.8008 14.113-16.031 14.113z"/>
 </g>
</svg>