<?xml version="1.0" encoding="UTF-8"?>
<!-- The Best Svg Icon site in the world: iconSvg.co, Visit us! https://iconsvg.co -->
<svg fill="#000000" width="800px" height="800px" version="1.1" viewBox="144 144 512 512" xmlns="http://www.w3.org/2000/svg">
 <g>
  <path d="m445.61 392.23c7.4336-14.027 12.531-28.969 15.121-44.352 1.8008-10.152 2.5-20.859 2.082-31.836-1.1289-28.234-10.449-55.551-26.93-78.988-26.668-38.035-69.809-62.035-115.42-64.195-41.266-1.9258-80.457 12.707-110.29 41.191-29.883 28.52-46.336 66.949-46.336 108.21 0 52.047 26.43 99.578 70.703 127.12 3.043 1.8984 4.8672 5.2891 4.8672 9.0625v56.68c0 19.934 7.6797 38.699 21.633 52.836 13.977 14.156 32.57 21.953 52.367 21.953 38.254 0 70.641-30.152 73.73-68.609 0.17578-2.0312 0.26953-4.0508 0.26953-6.1719v-56.68c0-3.4062 1.4922-6.5508 3.9805-8.4023 0.28516-0.21484 0.55469-0.40625 0.80859-0.66016 22.5-14.004 40.969-33.77 53.414-57.156zm-61.918 43.906c-0.72266 0.47656-1.4141 0.97656-2.0508 1.5391-6.2578 4.8281-9.9766 12.562-9.9766 20.773v56.68c0 1.6602-0.078124 3.25-0.21484 4.8828-2.4375 30.359-27.938 54.152-58.043 54.152-15.551 0-30.172-6.1289-41.16-17.258-11.023-11.176-17.098-26.016-17.098-41.781v-51.691c17.219 8.625 37.492 13.191 58.133 13.191 13.793 0 27.73-2.0078 40.961-6.1289 4.1523-1.293 6.4727-5.7031 5.1797-9.8555-1.293-4.1523-5.6875-6.4492-9.8555-5.1797-33.027 10.285-72.332 5.3984-97.824-12.152-0.67188-0.46094-1.418-0.69141-2.1602-0.92188-1.8711-2.4453-4.0273-4.6875-6.7266-6.3672-39.617-24.66-63.273-67.184-63.273-113.76 0-36.914 14.723-71.301 41.457-96.82 25.137-24 57.688-37.004 92.242-37.004 2.1367 0 4.2812 0.050781 6.4414 0.14844 40.773 1.9297 79.383 23.426 103.27 57.508v0.007812c14.746 20.961 23.07 45.363 24.086 70.555 0.36719 9.8438-0.25391 19.426-1.8672 28.543-2.3203 13.781-6.8711 27.121-13.516 39.645-11.137 20.941-27.672 38.633-48.008 51.297z"/>
  <path d="m344.89 489.15h-62.977c-4.3516 0-7.8711 3.5195-7.8711 7.8711 0 4.3516 3.5195 7.8711 7.8711 7.8711h62.977c4.3516 0 7.8711-3.5195 7.8711-7.8711 0-4.3516-3.5195-7.8711-7.8711-7.8711z"/>
  <path d="m344.89 526.94h-62.977c-4.3516 0-7.8711 3.5195-7.8711 7.8711 0 4.3516 3.5195 7.8711 7.8711 7.8711h62.977c4.3516 0 7.8711-3.5195 7.8711-7.8711 0-4.3516-3.5195-7.8711-7.8711-7.8711z"/>
  <path d="m337.02 233.7h-47.23c-4.3516 0-7.8711 3.5234-7.8711 7.8711v119.06c0 4.3477 3.5195 7.8711 7.8711 7.8711 4.3516 0 7.8711-3.5234 7.8711-7.8711v-111.19h31.488v125.95h-23.617c-4.3516 0-7.8711 3.5234-7.8711 7.8711 0 4.3477 3.5195 7.8711 7.8711 7.8711h31.488c4.3516 0 7.8711-3.5234 7.8711-7.8711v-141.7c0-4.3477-3.5195-7.8711-7.8711-7.8711z"/>
  <path d="m261.45 296.68h-26.766c-4.3516 0-7.8711 3.5234-7.8711 7.8711 0 4.3477 3.5195 7.8711 7.8711 7.8711h18.895v62.977h-31.488v-46.25c0-4.3477-3.5195-7.8711-7.8711-7.8711-4.3516 0-7.8711 3.5234-7.8711 7.8711v54.121c0 4.3477 3.5195 7.8711 7.8711 7.8711h47.23c4.3516 0 7.8711-3.5234 7.8711-7.8711v-78.719c0-4.3477-3.5195-7.8711-7.8711-7.8711z"/>
  <path d="m412.59 280.93h-47.23c-4.3516 0-7.8711 3.5234-7.8711 7.8711v71.832c0 4.3477 3.5195 7.8711 7.8711 7.8711s7.8711-3.5234 7.8711-7.8711v-63.961h31.488v78.719l-20.465 0.003907c-4.3516 0-7.8711 3.5234-7.8711 7.8711 0 4.3477 3.5195 7.8711 7.8711 7.8711h28.336c4.3516 0 7.8711-3.5234 7.8711-7.8711v-94.465c0-4.3438-3.5195-7.8711-7.8711-7.8711z"/>
  <path d="m470.85 396.42h125.95c4.3516 0 7.8711-3.5234 7.8711-7.8711v-42.035c0-4.3477-3.5195-7.8711-7.8711-7.8711h-14.848l22.512-95.254c0.55469-2.3398 0-4.8086-1.4922-6.6953-1.4922-1.8906-3.7656-2.9883-6.1719-2.9883h-118.08c-4.3516 0-7.8711 3.5234-7.8711 7.8711 0 4.3477 3.5195 7.8711 7.8711 7.8711h108.13l-21.078 89.191h-87.055c-4.3516 0-7.8711 3.5234-7.8711 7.8711 0 4.3477 3.5195 7.8711 7.8711 7.8711h93.277l16.93 0.003906v26.293l-118.08-0.003906c-4.3516 0-7.8711 3.5234-7.8711 7.8711 0 4.3516 3.5195 7.875 7.8711 7.875z"/>
  <path d="m611.06 415.38c-2.5352-3.5273-7.457-4.3281-10.984-1.793-3.5273 2.5352-4.3359 7.457-1.793 10.984 14.477 20.137 22.133 43.969 22.133 68.906 0 65.113-52.969 118.08-118.08 118.08-37.922 0-73.793-18.395-95.949-49.207-2.5352-3.5195-7.457-4.3359-10.984-1.793-3.5273 2.5352-4.3359 7.457-1.793 10.984 25.105 34.918 65.75 55.758 108.73 55.758 73.793 0 133.82-60.031 133.82-133.82 0-28.258-8.6797-55.266-25.102-78.098z"/>
  <path d="m494.46 442.31v110.21c0 4.3516 3.5195 7.8711 7.8711 7.8711 4.3516 0 7.8711-3.5195 7.8711-7.8711v-110.21c0-4.3516-3.5195-7.8711-7.8711-7.8711-4.3477 0-7.8711 3.5195-7.8711 7.8711z"/>
  <path d="m541.7 473.8v78.719c0 4.3516 3.5195 7.8711 7.8711 7.8711 4.3516 0 7.8711-3.5195 7.8711-7.8711v-78.719c0-4.3516-3.5195-7.8711-7.8711-7.8711-4.3516 0-7.8711 3.5195-7.8711 7.8711z"/>
  <path d="m455.1 465.93c-4.3516 0-7.8711 3.5195-7.8711 7.8711v78.719c0 4.3516 3.5195 7.8711 7.8711 7.8711 4.3516 0 7.8711-3.5195 7.8711-7.8711v-78.719c0.003906-4.3516-3.5195-7.8711-7.8711-7.8711z"/>
 </g>
</svg>