<?xml version="1.0" encoding="UTF-8"?>
<!-- The Best Svg Icon site in the world: iconSvg.co, Visit us! https://iconsvg.co -->
<svg width="800px" height="800px" version="1.1" viewBox="144 144 512 512" xmlns="http://www.w3.org/2000/svg">
 <defs>
  <clipPath id="a">
   <path d="m211 148.09h378v503.81h-378z"/>
  </clipPath>
 </defs>
 <g clip-path="url(#a)">
  <path d="m557.44 148.09h-314.88c-8.3516 0-16.359 3.3164-22.266 9.2227s-9.2227 13.914-9.2227 22.266v440.83c0 8.3516 3.3164 16.363 9.2227 22.266 5.9062 5.9062 13.914 9.2227 22.266 9.2227h314.88c8.3516 0 16.363-3.3164 22.266-9.2227 5.9062-5.9023 9.2227-13.914 9.2227-22.266v-440.83c0-8.3516-3.3164-16.359-9.2227-22.266-5.9023-5.9062-13.914-9.2227-22.266-9.2227zm10.496 472.32c0 2.7852-1.1055 5.4531-3.0742 7.4219s-4.6367 3.0742-7.4219 3.0742h-314.88c-5.7969 0-10.496-4.6992-10.496-10.496v-440.83c0-5.7969 4.6992-10.496 10.496-10.496h314.88c2.7852 0 5.4531 1.1055 7.4219 3.0742s3.0742 4.6367 3.0742 7.4219z"/>
 </g>
 <path d="m253.05 232.06h293.89v20.992h-293.89z"/>
 <path d="m253.05 546.94h293.89v20.992h-293.89z"/>
 <path d="m316.03 190.08h125.95v20.992h-125.95z"/>
 <path d="m462.98 190.08h20.992v20.992h-20.992z"/>
 <path d="m389.5 588.93h20.992v20.992h-20.992z"/>
 <path d="m284.54 400c0 30.621 12.164 59.984 33.816 81.637 21.652 21.652 51.02 33.816 81.641 33.816s59.984-12.164 81.637-33.816c21.652-21.652 33.816-51.016 33.816-81.637s-12.164-59.988-33.816-81.641c-21.652-21.652-51.016-33.816-81.637-33.816v20.992c25.051 0 49.078 9.9531 66.793 27.668 17.719 17.715 27.668 41.742 27.668 66.797 0 25.051-9.9492 49.078-27.668 66.793-17.715 17.719-41.742 27.668-66.793 27.668-25.055 0-49.082-9.9492-66.797-27.668-17.715-17.715-27.668-41.742-27.668-66.793v-83.969h-20.992z"/>
 <path d="m358.02 420.99v10.496c0 5.5664 2.2109 10.906 6.1484 14.844 3.9336 3.9336 9.2734 6.1484 14.844 6.1484h10.496v20.992h20.992v-20.992h10.496c5.5664 0 10.906-2.2148 14.844-6.1484 3.9336-3.9375 6.1484-9.2773 6.1484-14.844v-20.992c0-5.5703-2.2148-10.91-6.1484-14.844-3.9375-3.9375-9.2773-6.1484-14.844-6.1484h-41.984v-20.992h41.984v10.496h20.992v-10.496c0-5.5703-2.2148-10.906-6.1484-14.844-3.9375-3.9375-9.2773-6.1484-14.844-6.1484h-10.496v-20.992h-20.992v20.992h-10.496c-5.5703 0-10.91 2.2109-14.844 6.1484-3.9375 3.9375-6.1484 9.2734-6.1484 14.844v20.992c0 5.5664 2.2109 10.906 6.1484 14.844 3.9336 3.9336 9.2734 6.1484 14.844 6.1484h41.984v20.992h-41.984v-10.496z"/>
 <path d="m284.54 274.05h20.992v20.992h-20.992z"/>
 <path d="m326.53 274.05h20.992v20.992h-20.992z"/>
 <path d="m326.53 316.03h20.992v31.488h-20.992z"/>
</svg>