<?xml version="1.0" encoding="UTF-8"?>
<!-- The Best Svg Icon site in the world: iconSvg.co, Visit us! https://iconsvg.co -->
<svg fill="#000000" width="800px" height="800px" version="1.1" viewBox="144 144 512 512" xmlns="http://www.w3.org/2000/svg">
 <g>
  <path d="m440.19 332.55c10.566-3.5352 19.844-10.117 26.672-18.922 6.8242-8.8008 10.891-19.426 11.684-30.539 0.74609-9.5938-2.5117-19.07-9-26.18-5.7422-6.3359-13.875-9.9727-22.426-10.023h-0.17578c-7.8906-0.066407-15.484 3.0156-21.094 8.5664-0.54297 0.54297-1.0547 1.0938-1.5742 1.6602-6.4141-6.5078-15.168-10.172-24.301-10.172-9.1367 0-17.891 3.6641-24.301 10.172-0.49609-0.56641-1.0078-1.1172-1.5742-1.6602h-0.003906c-5.6406-5.5977-13.305-8.6875-21.254-8.5664-8.5469 0.050781-16.684 3.6875-22.426 10.023-6.4883 7.1094-9.7461 16.586-8.9961 26.18 0.78906 11.113 4.8555 21.738 11.684 30.539 6.8242 8.8047 16.105 15.387 26.668 18.922-40.754 22.734-71.398 75.887-71.398 120.08 0.03125 66.605 40.703 104.81 111.62 104.81 70.918 0 111.59-38.203 111.59-104.81 0-44.191-30.648-97.344-71.402-120.08zm-103.04-50.633c-0.42188-5.2461 1.3359-10.438 4.8633-14.344 2.7891-3.1211 6.7656-4.918 10.953-4.9492h0.085937c3.7305-0.074219 7.3359 1.3633 9.9961 3.9805 2.832 2.9258 4.375 6.8594 4.2812 10.93 0 4.3477 3.5273 7.8711 7.875 7.8711s7.8711-3.5234 7.8711-7.8711c0.71484-5.5312 4.0898-10.363 9.0352-12.941 4.9414-2.5781 10.836-2.5781 15.781 0 4.9414 2.5781 8.3164 7.4102 9.0312 12.941 0 4.3477 3.5273 7.8711 7.875 7.8711s7.8711-3.5234 7.8711-7.8711c-0.089844-4.0703 1.4492-8.0039 4.2812-10.93 2.6602-2.6172 6.2656-4.0547 9.9961-3.9805h0.089844c4.1836 0.03125 8.1602 1.8281 10.949 4.9492 3.5273 3.9062 5.2891 9.0977 4.8633 14.344-0.83203 9.0859-4.6016 17.652-10.738 24.406-6.1367 6.7539-14.305 11.328-23.27 13.027 2.4766-4.6172 3.793-9.7695 3.8281-15.008 0-4.3477-3.5234-7.8711-7.8711-7.8711s-7.875 3.5234-7.875 7.8711c0 6.0469-3.2227 11.637-8.4609 14.66-5.2383 3.0234-11.688 3.0234-16.926 0-5.2344-3.0234-8.4609-8.6133-8.4609-14.66 0-4.3477-3.5234-7.8711-7.8711-7.8711s-7.875 3.5234-7.875 7.8711c0.039063 5.2383 1.3516 10.391 3.8281 15.008-8.9648-1.6992-17.133-6.2734-23.27-13.027-6.1367-6.7539-9.9062-15.32-10.738-24.406zm62.852 259.78c-61.812 0-95.852-31.629-95.852-89.062 0-50.484 46.484-115.61 95.852-115.61s95.852 65.125 95.852 115.61c-0.003906 57.434-34.043 89.062-95.852 89.062z"/>
  <path d="m400 400c4.1758 0 8.1797 1.6562 11.133 4.6094 2.9492 2.9531 4.6094 6.957 4.6094 11.133 0 4.3477 3.5234 7.8711 7.8711 7.8711 4.3477 0 7.875-3.5234 7.875-7.8711-0.027343-6.9609-2.3594-13.715-6.6328-19.211-4.2734-5.4961-10.246-9.418-16.984-11.16v-8.9883c0-4.3477-3.5234-7.8711-7.8711-7.8711s-7.875 3.5234-7.875 7.8711v8.9883c-9.9688 2.5664-18.047 9.8516-21.629 19.504-3.582 9.6523-2.207 20.445 3.6758 28.891 5.8867 8.4492 15.531 13.477 25.828 13.465 4.1758 0 8.1797 1.6602 11.133 4.6133 2.9492 2.9492 4.6094 6.957 4.6094 11.133 0 4.1719-1.6602 8.1797-4.6094 11.133-2.9531 2.9492-6.957 4.6094-11.133 4.6094s-8.1797-1.6602-11.133-4.6094c-2.9531-2.9531-4.6133-6.9609-4.6133-11.133 0-4.3477-3.5234-7.875-7.8711-7.875-4.3477 0-7.8711 3.5273-7.8711 7.875 0.023437 6.957 2.3555 13.715 6.6289 19.211 4.2734 5.4922 10.246 9.418 16.984 11.156v8.9922c0 4.3477 3.5273 7.8711 7.875 7.8711s7.8711-3.5234 7.8711-7.8711v-8.9922c9.9688-2.5664 18.051-9.8516 21.629-19.5 3.582-9.6523 2.207-20.445-3.6758-28.895-5.8828-8.4453-15.531-13.477-25.824-13.461-5.625 0-10.824-3.0039-13.637-7.875-2.8125-4.8711-2.8125-10.871 0-15.742s8.0117-7.8711 13.637-7.8711z"/>
  <path d="m620.41 360.64-19.578-0.070313c-5.1875-26.746-15.75-52.164-31.047-74.711l13.895-13.902c2.9531-2.9531 4.6094-6.957 4.6094-11.133 0-4.1758-1.6562-8.1797-4.6094-11.129l-33.391-33.379c-3-2.8633-6.9883-4.4609-11.133-4.4609-4.1445 0-8.1328 1.5977-11.133 4.4609l-13.883 13.816c-22.578-15.262-48.023-25.781-74.785-30.922v-19.625c0-4.1758-1.6602-8.1797-4.6133-11.133s-6.957-4.6133-11.133-4.6133h-47.23c-4.1758 0-8.1797 1.6602-11.133 4.6133s-4.6133 6.957-4.6133 11.133l-0.070313 19.578c-26.746 5.1875-52.164 15.75-74.711 31.047l-13.887-13.895c-3-2.8633-6.9844-4.4609-11.133-4.4609-4.1445 0-8.1328 1.5977-11.129 4.4609l-33.395 33.395c-2.9531 2.9531-4.6094 6.957-4.6094 11.129 0 4.1758 1.6562 8.1797 4.6094 11.133l13.816 13.887c-15.262 22.578-25.781 48.02-30.922 74.781h-19.625c-4.1758 0-8.1797 1.6602-11.133 4.6133s-4.6133 6.957-4.6133 11.133v47.23c0 4.1758 1.6602 8.1797 4.6133 11.133s6.957 4.6133 11.133 4.6133l19.578 0.070313c5.1875 26.746 15.75 52.164 31.047 74.715l-13.895 13.883c-2.9531 2.9531-4.6094 6.957-4.6094 11.133 0 4.1758 1.6562 8.1797 4.6094 11.133l33.395 33.395v-0.003906c2.9961 2.8633 6.9844 4.4648 11.129 4.4648 4.1484 0 8.1328-1.6016 11.133-4.4648l13.887-13.816c22.578 15.266 48.02 25.785 74.781 30.922v19.625c0 4.1758 1.6602 8.1797 4.6133 11.133s6.957 4.6133 11.133 4.6133h47.23c4.1758 0 8.1797-1.6602 11.133-4.6133s4.6133-6.957 4.6133-11.133l0.070313-19.578c26.746-5.1875 52.164-15.75 74.715-31.047l13.902 13.895h-0.003906c3 2.8633 6.9883 4.4648 11.133 4.4648s8.1328-1.6016 11.133-4.4648l33.395-33.395-0.003906 0.003907c2.9531-2.9531 4.6094-6.957 4.6094-11.133 0-4.1758-1.6562-8.1797-4.6094-11.133l-13.832-13.883c15.266-22.578 25.785-48.023 30.922-74.785h19.625c4.1758 0 8.1797-1.6602 11.133-4.6133s4.6133-6.957 4.6133-11.133v-47.23c0-4.1758-1.6602-8.1797-4.6133-11.133s-6.957-4.6133-11.133-4.6133zm0 62.977h-19.625c-3.6523 0.023438-7.1836 1.3086-9.9922 3.6445-2.8086 2.3359-4.7227 5.5703-5.4141 9.1562-4.793 24.656-14.512 48.09-28.574 68.902-2.0508 3.0234-2.9922 6.6641-2.6523 10.305 0.33594 3.6367 1.9297 7.043 4.5039 9.6367l13.895 13.902-33.395 33.395-13.902-13.895c-2.5938-2.5742-6-4.168-9.6367-4.5039-3.6406-0.33984-7.2812 0.60156-10.305 2.6523-20.812 14.062-44.246 23.781-68.902 28.574-3.5859 0.69141-6.8203 2.6055-9.1562 5.4141-2.3359 2.8086-3.6211 6.3398-3.6445 9.9922v19.625h-47.23v-19.625c-0.023437-3.6523-1.3086-7.1836-3.6445-9.9922-2.332-2.8086-5.5703-4.7227-9.1562-5.4141-24.656-4.793-48.09-14.512-68.902-28.574-2.6211-1.7656-5.7109-2.707-8.8711-2.707-4.1523-0.015624-8.1328 1.625-11.07 4.5586l-13.902 13.895-33.391-33.395 13.895-13.902h-0.003906c2.5742-2.5938 4.168-6 4.5039-9.6367 0.33984-3.6406-0.59766-7.2812-2.6523-10.305-14.062-20.812-23.781-44.246-28.574-68.902-0.69141-3.5859-2.6055-6.8203-5.4141-9.1562-2.8086-2.3359-6.3398-3.6211-9.9922-3.6445h-19.625v-47.23h19.625c3.6523-0.023437 7.1836-1.3086 9.9922-3.6445 2.8086-2.332 4.7227-5.5703 5.4141-9.1562 4.793-24.656 14.512-48.09 28.574-68.902 2.0547-3.0234 2.9922-6.6641 2.6523-10.305-0.33594-3.6367-1.9297-7.043-4.5039-9.6367l-13.891-13.902 33.395-33.395 13.902 13.895h-0.003907c2.5977 2.5664 6.0039 4.1562 9.6406 4.4922 3.6328 0.33594 7.2734-0.59766 10.301-2.6406 20.812-14.062 44.246-23.781 68.902-28.574 3.5859-0.69141 6.8242-2.6055 9.1562-5.4141 2.3359-2.8086 3.6211-6.3398 3.6445-9.9922v-19.625h47.23v19.625c0.023438 3.6523 1.3086 7.1836 3.6445 9.9922 2.3359 2.8086 5.5703 4.7227 9.1562 5.4141 24.656 4.793 48.09 14.512 68.902 28.574 3.0273 2.043 6.668 2.9766 10.301 2.6367 3.6367-0.33594 7.043-1.9219 9.6406-4.4883l13.902-13.895 33.395 33.395-13.895 13.902c-2.5742 2.5938-4.168 6-4.5039 9.6367-0.33984 3.6406 0.60156 7.2812 2.6523 10.305 14.062 20.812 23.781 44.246 28.574 68.902 0.69141 3.5859 2.6055 6.8242 5.4141 9.1562 2.8086 2.3359 6.3398 3.6211 9.9922 3.6445h19.625z"/>
  <path d="m400 218.94c-48.02 0-94.074 19.074-128.03 53.031-33.957 33.953-53.031 80.008-53.031 128.03s19.074 94.07 53.031 128.02c33.953 33.957 80.008 53.031 128.03 53.031s94.07-19.074 128.02-53.031c33.957-33.953 53.031-80.004 53.031-128.02-0.054688-48.004-19.148-94.023-53.09-127.97-33.941-33.941-79.965-53.035-127.96-53.09zm0 346.37v0.003906c-43.844 0-85.895-17.418-116.89-48.422-31.004-31-48.418-73.047-48.418-116.89s17.414-85.895 48.418-116.89c31-31.004 73.051-48.418 116.89-48.418s85.891 17.414 116.89 48.418c31.004 31 48.422 73.051 48.422 116.89-0.050781 43.828-17.48 85.848-48.473 116.84-30.992 30.992-73.012 48.422-116.84 48.473z"/>
 </g>
</svg>