<?xml version="1.0" encoding="UTF-8"?>
<!-- The Best Svg Icon site in the world: iconSvg.co, Visit us! https://iconsvg.co -->
<svg fill="#000000" width="800px" height="800px" version="1.1" viewBox="144 144 512 512" xmlns="http://www.w3.org/2000/svg">
 <g>
  <path d="m390.05 353.59h49.719c7.3203 0 13.258-5.9336 13.258-13.258 0-7.3203-5.9375-13.258-13.258-13.258h-26.516v-6.6289c0-7.3203-5.9375-13.258-13.258-13.258-7.3242 0-13.258 5.9375-13.258 13.258v7.0273c-14.895 1.1719-28.109 10-34.895 23.305-6.7891 13.309-6.1758 29.188 1.6172 41.93 7.7969 12.746 21.652 20.527 36.59 20.547h19.887c5.9219 0 11.395 3.1562 14.352 8.2852 2.9609 5.1289 2.9609 11.445 0 16.574-2.957 5.125-8.4297 8.2852-14.352 8.2852h-49.719c-7.3203 0-13.258 5.9375-13.258 13.258 0 7.3242 5.9375 13.258 13.258 13.258h26.516l0.003907 6.6289c0 7.3242 5.9336 13.258 13.258 13.258 7.3203 0 13.258-5.9336 13.258-13.258v-7.0273c14.891-1.1719 28.105-9.9961 34.895-23.305 6.7852-13.309 6.1719-29.188-1.6211-41.93-7.793-12.746-21.648-20.523-36.59-20.543h-19.887c-5.9219 0-11.391-3.1602-14.352-8.2891-2.9609-5.125-2.9609-11.445 0-16.57 2.9609-5.1289 8.4297-8.2891 14.352-8.2891z"/>
  <path d="m625.39 386.74h-13.258c-3.2969-51.602-25.328-100.22-61.949-136.72-36.621-36.5-85.312-58.367-136.92-61.492v-13.922c0-7.3203-5.9375-13.258-13.258-13.258-7.3242 0-13.258 5.9375-13.258 13.258v13.258c-51.602 3.3008-100.22 25.328-136.72 61.949-36.5 36.625-58.367 85.312-61.492 136.93h-13.922c-7.3203 0-13.258 5.9336-13.258 13.258 0 7.3203 5.9375 13.258 13.258 13.258h13.258c3.1445 51.715 25.105 100.49 61.742 137.13s85.414 58.598 137.13 61.742v13.258c0 7.3242 5.9336 13.258 13.258 13.258 7.3203 0 13.258-5.9336 13.258-13.258v-13.258c51.715-3.1445 100.49-25.105 137.13-61.742s58.598-85.414 61.742-137.13h13.258c7.3242 0 13.258-5.9375 13.258-13.258 0-7.3242-5.9336-13.258-13.258-13.258zm-39.773 0h-26.516c-3.1797-37.551-19.582-72.758-46.289-99.344-26.707-26.586-61.988-42.828-99.551-45.836v-26.516c44.586 3.0742 86.562 22.133 118.23 53.672 31.664 31.543 50.883 73.449 54.129 118.02zm-185.61 145.84c-35.164 0-68.887-13.965-93.75-38.832-24.863-24.863-38.832-58.586-38.832-93.746 0-35.164 13.969-68.887 38.832-93.75s58.586-38.832 93.75-38.832c35.16 0 68.883 13.969 93.746 38.832 24.867 24.863 38.832 58.586 38.832 93.75 0 35.16-13.965 68.883-38.832 93.746-24.863 24.867-58.586 38.832-93.746 38.832zm-13.258-317.53v26.516c-37.449 3.1562-72.57 19.465-99.141 46.039-26.574 26.57-42.883 61.691-46.039 99.141h-26.516c3.2266-44.469 22.352-86.289 53.879-117.82 31.527-31.527 73.348-50.652 117.82-53.879zm-171.7 198.21h26.516c3.0078 37.562 19.25 72.844 45.836 99.551 26.586 26.707 61.793 43.109 99.344 46.289v26.516c-44.574-3.2461-86.48-22.465-118.02-54.129-31.539-31.664-50.598-73.641-53.672-118.23zm198.21 172.36v-26.516c37.668-3.0273 73.027-19.367 99.75-46.09 26.723-26.723 43.062-62.082 46.09-99.75h26.516c-3.0938 44.691-22.246 86.754-53.922 118.43-31.68 31.676-73.742 50.828-118.43 53.922z"/>
 </g>
</svg>