<?xml version="1.0" encoding="UTF-8"?>
<!-- The Best Svg Icon site in the world: iconSvg.co, Visit us! https://iconsvg.co -->
<svg fill="#000000" width="800px" height="800px" version="1.1" viewBox="144 144 512 512" xmlns="http://www.w3.org/2000/svg">
 <g>
  <path d="m588.93 200.57h-377.86c-5.7969 0-10.496 4.6992-10.496 10.496v335.87c0 2.7852 1.1055 5.4531 3.0742 7.4219s4.6367 3.0742 7.4219 3.0742h20.992v31.488c0 2.7852 1.1055 5.4531 3.0742 7.4219s4.6367 3.0742 7.4219 3.0742h62.977c2.7812 0 5.4531-1.1055 7.4219-3.0742s3.0742-4.6367 3.0742-7.4219v-31.488h167.93v31.488c0 2.7852 1.1094 5.4531 3.0742 7.4219 1.9688 1.9688 4.6406 3.0742 7.4219 3.0742h62.977c2.7852 0 5.4531-1.1055 7.4219-3.0742s3.0742-4.6367 3.0742-7.4219v-31.488h20.992c2.7852 0 5.4531-1.1055 7.4219-3.0742s3.0742-4.6367 3.0742-7.4219v-335.87c0-2.7852-1.1055-5.4531-3.0742-7.4219s-4.6367-3.0742-7.4219-3.0742zm-31.488 304.38c0 2.7852-1.1055 5.457-3.0742 7.4219-1.9688 1.9688-4.6367 3.0742-7.4219 3.0742h-293.89c-5.7969 0-10.496-4.6992-10.496-10.496v-251.9c0-5.7969 4.6992-10.496 10.496-10.496h293.89c2.7852 0 5.4531 1.1055 7.4219 3.0742s3.0742 4.6367 3.0742 7.4219z"/>
  <path d="m363.58 430.33c7.7461 5.3984 16.605 8.9844 25.926 10.496v-21.309c-3.6836-1.0391-7.2109-2.5547-10.496-4.5117z"/>
  <path d="m364 358.02-15.324-15.219c-5.3984 7.7422-8.9844 16.605-10.496 25.922h21.52c0.95313-3.7422 2.4023-7.3398 4.3008-10.703z"/>
  <path d="m436.42 327.68c-7.7422-5.3984-16.605-8.9844-25.922-10.496v21.52c3.6797 1.0391 7.207 2.5547 10.496 4.5117z"/>
  <path d="m420.99 379.01c0 11.594-9.3984 20.992-20.992 20.992s-20.992-9.3984-20.992-20.992 9.3984-20.992 20.992-20.992 20.992 9.3984 20.992 20.992"/>
  <path d="m389.5 338.49v-21.516c-9.3203 1.5078-18.18 5.0977-25.926 10.496l15.43 15.531c3.2852-1.957 6.8125-3.4727 10.496-4.5117z"/>
  <path d="m359.48 389.5h-21.516c1.5078 9.3164 5.0977 18.18 10.496 25.922l15.531-15.426c-1.957-3.2891-3.4727-6.8164-4.5117-10.496z"/>
  <path d="m436 358.02c1.957 3.2852 3.4727 6.8125 4.5117 10.496h21.52c-1.5117-9.3203-5.0977-18.18-10.496-25.926z"/>
  <path d="m436 400 15.324 15.219c5.3984-7.7461 8.9844-16.605 10.496-25.926h-21.309c-1.0195 3.7539-2.5391 7.3516-4.5117 10.707z"/>
  <path d="m410.5 419.52v21.52c9.3164-1.5117 18.18-5.0977 25.922-10.496l-15.426-15.535c-3.2891 1.957-6.8164 3.4727-10.496 4.5117z"/>
  <path d="m263.55 263.55v230.91h272.89v-230.91zm136.45 199.43c-22.27 0-43.629-8.8477-59.375-24.594-15.75-15.75-24.594-37.105-24.594-59.375 0-22.27 8.8438-43.629 24.594-59.375 15.746-15.746 37.105-24.594 59.375-24.594s43.625 8.8477 59.371 24.594c15.75 15.746 24.594 37.105 24.594 59.375 0 22.27-8.8438 43.625-24.594 59.375-15.746 15.746-37.102 24.594-59.371 24.594z"/>
 </g>
</svg>