<?xml version="1.0" encoding="UTF-8"?>
<!-- The Best Svg Icon site in the world: iconSvg.co, Visit us! https://iconsvg.co -->
<svg fill="#000000" width="800px" height="800px" version="1.1" viewBox="144 144 512 512" xmlns="http://www.w3.org/2000/svg">
 <g>
  <path d="m533.82 510.21c2.0859 0 4.0898 0.82812 5.5664 2.3047 1.4766 1.4766 2.3047 3.4805 2.3047 5.5664h15.742c-0.019531-4.8672-1.543-9.6094-4.3594-13.574-2.8203-3.9688-6.793-6.9688-11.383-8.5938v-9.3203h-15.746v9.3203c-7.0547 2.4844-12.508 8.1719-14.699 15.324s-0.85547 14.918 3.5977 20.926c4.4531 6.0117 11.496 9.5508 18.977 9.5352 3.1836 0 6.0547 1.918 7.2734 4.8594 1.2148 2.9414 0.54297 6.3281-1.707 8.5781-2.2539 2.25-5.6367 2.9258-8.582 1.707-2.9414-1.2188-4.8594-4.0898-4.8594-7.2734h-15.742c0.019531 4.8672 1.543 9.6094 4.3633 13.578 2.8164 3.9688 6.793 6.9688 11.379 8.5898v9.3203h15.742l0.003906-9.3203c7.0547-2.4844 12.512-8.1719 14.699-15.324 2.1914-7.1484 0.85547-14.918-3.5977-20.926s-11.496-9.5469-18.973-9.5352c-4.3477 0-7.875-3.5234-7.875-7.8711s3.5273-7.8711 7.875-7.8711z"/>
  <path d="m533.82 455.1c-20.879 0-40.902 8.293-55.664 23.059-14.766 14.762-23.059 34.785-23.059 55.664 0 20.875 8.293 40.898 23.059 55.664 14.762 14.762 34.785 23.055 55.664 23.055 20.875 0 40.898-8.293 55.664-23.055 14.762-14.766 23.055-34.789 23.055-55.664-0.023438-20.871-8.3242-40.883-23.082-55.641-14.758-14.758-34.766-23.059-55.637-23.082zm0 141.7v0.003906c-16.703 0-32.723-6.6367-44.531-18.445-11.812-11.812-18.445-27.832-18.445-44.531 0-16.703 6.6328-32.723 18.445-44.531 11.809-11.812 27.828-18.445 44.531-18.445 16.699 0 32.719 6.6328 44.531 18.445 11.809 11.809 18.445 27.828 18.445 44.531-0.019531 16.695-6.6602 32.703-18.469 44.508-11.805 11.809-27.812 18.449-44.508 18.469z"/>
  <path d="m533.82 431.49c-7.957 0.027344-15.883 0.98438-23.617 2.8555v-34.344c2.0859 0 4.0898-0.83203 5.5664-2.3086 1.4766-1.4766 2.3047-3.4766 2.3047-5.5664v-23.613h15.746c2.0859 0 4.0898-0.83203 5.5664-2.3086s2.3047-3.4766 2.3047-5.5664v-47.23c0-2.0859-0.82812-4.0898-2.3047-5.5664-1.4766-1.4766-3.4805-2.3047-5.5664-2.3047h-47.57c-15.348-18.711-34.465-33.969-56.113-44.781-21.645-10.816-45.328-16.941-69.504-17.977v-18.648l50.332-21.57h0.003906c2.8906-1.2383 4.7695-4.0859 4.7695-7.2344 0-3.1445-1.8789-5.9922-4.7695-7.2344l-55.105-23.617v0.003906c-2.4297-1.043-5.2227-0.79297-7.4336 0.66016-2.2109 1.457-3.5391 3.9258-3.5391 6.5742v71.07-0.003906c-24.176 1.0352-47.859 7.1602-69.504 17.977-21.645 10.812-40.766 26.07-56.109 44.781h-47.57c-4.3477 0-7.875 3.5234-7.875 7.8711v47.23c0 2.0898 0.83203 4.0898 2.3086 5.5664 1.4766 1.4766 3.4766 2.3086 5.5664 2.3086h15.742v23.617-0.003906c0 2.0898 0.83203 4.0898 2.3047 5.5664 1.4766 1.4766 3.4805 2.3086 5.5664 2.3086v141.7h-23.613c-4.3477 0-7.875 3.5234-7.875 7.8711v47.234c0 2.0859 0.83203 4.0898 2.3086 5.5664 1.4766 1.4727 3.4766 2.3047 5.5664 2.3047h288.44c23.805 24.75 58.441 35.902 92.215 29.691 33.773-6.2109 62.18-28.957 75.621-60.555 13.441-31.602 10.129-67.84-8.8164-96.477-18.949-28.641-51.004-45.859-85.344-45.844zm-39.359 7.8711h-0.003906c-11.688 4.9141-22.367 11.953-31.484 20.766v-60.125h31.488zm-62.578 102.34h-8.2734v-39.359c0-25.312-13.504-48.703-35.422-61.359-21.922-12.652-48.93-12.652-70.848 0-21.922 12.656-35.426 36.047-35.426 61.359v39.359h-23.617v-141.7c2.0898 0 4.0898-0.83203 5.5664-2.3086 1.4766-1.4766 2.3086-3.4766 2.3086-5.5664h173.18c0 2.0898 0.82812 4.0898 2.3047 5.5664 1.4766 1.4766 3.4805 2.3086 5.5664 2.3086v79.508c-10.285 16.246-15.746 35.082-15.742 54.316 0 2.6602 0.19531 5.2656 0.39844 7.8711zm-86.992 0h-47.23v-39.359c0.023438-13.238 4.8086-26.023 13.48-36.023 8.6719-10.004 20.648-16.551 33.75-18.453zm15.742-93.836c13.102 1.9023 25.082 8.4492 33.75 18.453 8.6719 10 13.457 22.785 13.484 36.023v39.359h-47.234zm78.723-79.348v7.8711h-173.18v-7.8711zm62.977 15.742h-47.234v-15.742h47.23zm-141.7-200.6 27.246 11.672-27.246 11.676zm-7.8711 74.648c42.316-0.11328 82.871 16.93 112.41 47.234h-224.81c29.531-30.305 70.086-47.348 112.4-47.234zm-173.18 62.977h346.37v31.488h-346.37zm70.848 47.23v15.742l-47.23 0.003906v-15.742zm-39.359 31.492h31.488v141.7h-31.488zm-31.488 188.93v-31.488h254.76c2.6562 11.176 7.1797 21.824 13.383 31.488zm354.24 31.488c-22.969 0-44.992-9.1211-61.23-25.359-16.238-16.242-25.363-38.266-25.363-61.23 0-22.969 9.125-44.992 25.363-61.23s38.262-25.363 61.23-25.363c22.965 0 44.988 9.125 61.23 25.363 16.238 16.238 25.359 38.262 25.359 61.23-0.027343 22.957-9.1562 44.965-25.391 61.199-16.234 16.234-38.242 25.363-61.199 25.391z"/>
  <path d="m573.18 525.95h15.742v15.742h-15.742z"/>
  <path d="m478.72 525.95h15.742v15.742h-15.742z"/>
 </g>
</svg>