<?xml version="1.0" encoding="UTF-8"?>
<!-- The Best Svg Icon site in the world: iconSvg.co, Visit us! https://iconsvg.co -->
<svg fill="#000000" width="800px" height="800px" version="1.1" viewBox="144 144 512 512" xmlns="http://www.w3.org/2000/svg">
 <g>
  <path d="m400.07 215.32c-48.98 0.007812-95.957 19.473-130.59 54.109-34.629 34.641-54.082 81.621-54.078 130.61 0.007812 48.98 19.469 95.957 54.109 130.59 34.641 34.633 81.621 54.086 130.6 54.078 48.984-0.003906 95.961-19.469 130.59-54.105 34.629-34.641 54.086-81.621 54.078-130.6-0.082031-48.961-19.57-95.891-54.195-130.51-34.625-34.617-81.559-54.094-130.52-54.168zm81.344 278.01c-30.992 26.949-73.34 36.762-113.03 26.195s-71.547-40.137-85.039-78.93c-13.488-38.793-6.8516-81.75 17.715-114.66s63.867-51.492 104.89-49.586c41.027 1.9023 78.434 24.035 99.852 59.082 21.418 35.047 24.047 78.434 7.0234 115.81-7.3438 16.113-18.059 30.465-31.418 42.09z"/>
  <path d="m400 308.07c-2.5312 0-4.582-2.0508-4.582-4.5781v-118.75c0-2.5312 2.0508-4.5781 4.582-4.5781 2.5273 0 4.5781 2.0469 4.5781 4.5781v118.75c0 1.2148-0.48047 2.3789-1.3398 3.2383-0.85938 0.85938-2.0234 1.3398-3.2383 1.3398z"/>
  <path d="m400 619.84c-2.5312 0-4.582-2.0508-4.582-4.582v-118.75c0-2.5312 2.0508-4.582 4.582-4.582 2.5273 0 4.5781 2.0508 4.5781 4.582v118.75c0 1.2148-0.48047 2.3789-1.3398 3.2383s-2.0234 1.3438-3.2383 1.3438z"/>
  <path d="m303.49 404.58h-118.75c-2.5312 0-4.5781-2.0508-4.5781-4.5781 0-2.5312 2.0469-4.582 4.5781-4.582h118.75c2.5273 0 4.5781 2.0508 4.5781 4.582 0 2.5273-2.0508 4.5781-4.5781 4.5781z"/>
  <path d="m615.26 404.58h-118.75c-2.5312 0-4.582-2.0508-4.582-4.5781 0-2.5312 2.0508-4.582 4.582-4.582h118.75c2.5312 0 4.582 2.0508 4.582 4.582 0 2.5273-2.0508 4.5781-4.582 4.5781z"/>
  <path d="m428.36 431.71c-2.4766 3.6328-5.8945 6.5195-9.8906 8.3555-4.6523 2.1719-9.6914 3.3945-14.82 3.5977v8.6641c0.035157 0.97656-0.33984 1.9297-1.0312 2.6211-1.5273 1.3477-3.8125 1.375-5.3711 0.066406-0.70703-0.71094-1.082-1.6875-1.0312-2.6875v-8.6641c-8.4805-0.49219-16.812-2.4336-24.641-5.7344-0.99609-0.41406-1.8438-1.1133-2.4414-2.0078-1.4453-2.0156-1.2695-4.7734 0.42578-6.5859 0.91797-1.0117 2.2305-1.5664 3.5938-1.5273 0.80078-0.003906 1.5938 0.16406 2.3242 0.49219 6.543 2.9141 13.582 4.5664 20.738 4.875v-28.055c-4.7773-1.207-9.4492-2.7969-13.969-4.7617-3.6836-1.6211-6.9258-4.1016-9.4492-7.2344-2.6172-3.4023-3.957-7.6172-3.7852-11.91-0.03125-4.1094 1.043-8.1523 3.1055-11.707 2.2422-3.7422 5.4453-6.8164 9.2773-8.9023 4.5664-2.4922 9.625-3.9492 14.82-4.2695v-8.5547c-0.023438-0.99219 0.34766-1.957 1.0312-2.6797 0.67969-0.72656 1.6367-1.125 2.6328-1.0977 1.0039-0.007812 1.9688 0.38672 2.6797 1.0977 0.70703 0.71094 1.1016 1.6758 1.0898 2.6797v8.418c7.25 0.1875 14.422 1.5469 21.238 4.0273 2.1406 0.625 3.5586 2.6523 3.4102 4.875 0.003906 1.3047-0.47266 2.5664-1.3359 3.543-0.875 1.0469-2.1836 1.6289-3.5469 1.5859-0.67188-0.042969-1.332-0.20703-1.9453-0.48828-5.7383-1.9883-11.75-3.0977-17.82-3.293v29.035c4.9766 1.1016 9.8516 2.6094 14.582 4.5117 3.793 1.5703 7.1289 4.0664 9.7109 7.2578 2.7461 3.6641 4.125 8.1719 3.9023 12.746 0.039062 4.1641-1.1758 8.2461-3.4844 11.711zm-44.156-43.055-0.003907 0.003906c3.6758 2.3672 7.7461 4.0586 12.016 5v-26.84c-4.2344 0.39844-8.2852 1.9375-11.715 4.4531-2.8438 2.1484-4.4766 5.5312-4.3906 9.0898-0.14453 3.2812 1.3984 6.4062 4.0898 8.2852zm36.641 30.617v0.003906c0.054687-3.0781-1.6211-5.9297-4.3359-7.3789-4.043-2.2109-8.3594-3.875-12.84-4.9453v26.227c11.465-0.81641 17.195-5.4531 17.188-13.91z"/>
 </g>
</svg>