<?xml version="1.0" encoding="UTF-8"?>
<!-- The Best Svg Icon site in the world: iconSvg.co, Visit us! https://iconsvg.co -->
<svg fill="#000000" width="800px" height="800px" version="1.1" viewBox="144 144 512 512" xmlns="http://www.w3.org/2000/svg">
 <g>
  <path d="m419.42 373.82c28.09 0 55.027-11.16 74.891-31.02 19.859-19.863 31.02-46.801 31.02-74.891 0-28.086-11.156-55.027-31.02-74.887-19.859-19.863-46.797-31.023-74.887-31.023-28.09 0-55.027 11.156-74.891 31.016-19.863 19.863-31.023 46.801-31.023 74.891 0.03125 28.078 11.199 55 31.055 74.855 19.855 19.855 46.773 31.027 74.855 31.059zm0-200.01c24.957 0 48.891 9.9141 66.539 27.562 17.648 17.645 27.562 41.582 27.562 66.539 0 24.957-9.9141 48.891-27.562 66.539-17.648 17.648-41.582 27.562-66.539 27.562s-48.895-9.9141-66.539-27.562c-17.648-17.648-27.562-41.582-27.562-66.539 0.027344-24.949 9.9492-48.871 27.59-66.512 17.641-17.645 41.562-27.566 66.512-27.594z"/>
  <path d="m419.42 317.11c-5.3008-0.003906-10.383-2.1133-14.133-5.8633-3.7461-3.7461-5.8555-8.8281-5.8633-14.133 0-3.2578-2.6406-5.9023-5.9023-5.9023-3.2617 0-5.9062 2.6445-5.9062 5.9023 0.011718 7.2812 2.5156 14.34 7.0938 20 4.582 5.6562 10.961 9.5781 18.078 11.105v8.8008c0 3.2578 2.6445 5.9023 5.9062 5.9023 3.2617 0 5.9023-2.6445 5.9023-5.9023v-8.5312c10.605-1.7461 19.605-8.7305 23.938-18.562 4.3281-9.8359 3.3984-21.191-2.4766-30.191-5.8711-9-15.891-14.426-26.637-14.422-5.3047 0-10.391-2.1094-14.141-5.8594-3.7461-3.75-5.8555-8.8359-5.8555-14.137 0-5.3047 2.1094-10.391 5.8594-14.141s8.8359-5.8555 14.137-5.8555c5.3047 0 10.391 2.1094 14.141 5.8594s5.8555 8.8359 5.8555 14.137c0 3.2617 2.6406 5.9062 5.9023 5.9062 3.2617 0 5.9062-2.6445 5.9062-5.9062-0.011718-7.5352-2.6914-14.82-7.5664-20.562-4.875-5.7461-11.629-9.5742-19.062-10.812v-7.7969c0-3.2578-2.6406-5.9023-5.9023-5.9023-3.2617 0-5.9062 2.6445-5.9062 5.9023v8.0703c-10.336 2.2031-18.902 9.4023-22.855 19.203-3.957 9.8008-2.7812 20.926 3.1289 29.688s15.789 14.012 26.359 14.016c7.1094 0.046875 13.66 3.8711 17.199 10.035 3.543 6.168 3.543 13.75 0 19.914-3.5391 6.168-10.09 9.9883-17.199 10.039z"/>
  <path d="m275.57 638.13h224.58c3.3281-0.046875 6.0312-2.707 6.1211-6.0352v-54.977h18.16c1.5 0.023437 2.9414-0.57813 3.9805-1.668 1.0352-1.0859 1.5703-2.5547 1.4766-4.0508v-59.484c0.089843-1.4922-0.44922-2.9531-1.4844-4.0234-1.0391-1.0742-2.4805-1.6602-3.9727-1.6211h-18.16v-50.184h18.156c3.2617 0 5.457-2.8242 5.457-6.0859l0.003907-59.48c0-3.2617-2.1992-6.2617-5.457-6.2617l-224.58-0.003906c-3.3711 0.15234-6.0469 2.8906-6.1211 6.2656v54.742h-18.156c-3.2617 0-5.457 2.6914-5.457 5.9531l-0.003906 59.484c0 3.2617 2.1992 6.3945 5.457 6.3945h18.16v49.199l-18.156 0.003906c-3.2617 0-5.457 3.0547-5.457 6.3164v59.484c-0.003906 3.2578 2.1953 6.0312 5.457 6.0312zm143.12-181.06v48.215h-24.602v-48.215zm-12.793 61.008v47.23l-24.602 0.003906v-47.234zm11.809 47.23v-47.23h24.602v47.23zm12.793-60.023v-48.215h24.602v48.215zm-48.215-48.215v48.215h-24.602v-48.215zm-12.793 61.008v47.23l-24.602 0.003906v-47.234zm12.793 60.023v48.215l-24.602 0.003906v-48.219zm11.809 0h24.602v48.215l-24.605 0.003906zm36.406 0h24.602v48.215l-24.602 0.003906zm23.617-12.793-0.003906-47.23h24.602v47.23zm12.793-108.24h27.551v48.215l-27.555 0.003906zm-12.793-12.793-0.003906-48.211h24.602v48.215zm-11.809 0-24.602 0.003906v-48.215h24.602zm-36.406 0-24.605 0.003906v-48.215h24.602zm-36.406 0-24.605 0.003906v-48.215h24.602zm-23.617 12.793v48.215l-24.605 0.003906v-48.215zm-12.797 108.25h-27.551v-47.234h27.551zm12.793 12.793v48.215h-24.602v-48.219zm148.59 48.215h-27.555v-48.219h27.551zm23.617-61.008h-27.555v-47.234h27.551zm0-121.03-27.555-0.003906v-48.215h27.551zm-212.55-48.219h27.551v48.215h-27.551zm-23.617 61.008h27.551v48.215h-27.551zm0 121.03h27.551v48.215l-27.551 0.003906z"/>
 </g>
</svg>