<?xml version="1.0" encoding="UTF-8"?>
<!-- The Best Svg Icon site in the world: iconSvg.co, Visit us! https://iconsvg.co -->
<svg fill="#000000" width="800px" height="800px" version="1.1" viewBox="144 144 512 512" xmlns="http://www.w3.org/2000/svg">
 <g>
  <path d="m565.31 620.41v-38.652c-9.6523 1.6523-18.555 6.2539-25.477 13.18-6.9219 6.9219-11.527 15.824-13.176 25.473z"/>
  <path d="m392.12 195.52c2.4883-0.085938 4.9688-0.17969 7.4688-0.1875h0.78906s5.0078 0.10156 7.4961 0.1875v-8.0703c0.019532-2.0547-0.79688-4.0273-2.2695-5.4609-1.4531-1.5469-3.4883-2.418-5.6094-2.4102-4.3477 0-7.875 3.5234-7.875 7.8711z"/>
  <path d="m337.02 368.85c14.742-20.012 38.117-31.828 62.977-31.828 24.855 0 48.234 11.816 62.977 31.828v-8.2109c-0.18359-27.395-5.8477-54.477-16.664-79.648s-26.562-47.922-46.312-66.91c-19.75 18.988-35.5 41.738-46.316 66.91-10.812 25.172-16.48 52.254-16.66 79.648z"/>
  <path d="m400 486.59c2.0859 0 4.0898 0.83203 5.5664 2.3047 1.4766 1.4766 2.3047 3.4805 2.3047 5.5664v7.875c6.2617 0 12.27 2.4883 16.699 6.9141 4.4297 4.4297 6.918 10.438 6.918 16.699 0 4.3477-3.5273 7.875-7.875 7.875-4.3477 0-7.8711-3.5273-7.8711-7.875 0-2.0859-0.82813-4.0898-2.3047-5.5664-1.4766-1.4727-3.4805-2.3047-5.5664-2.3047h-15.746c-4.3477 0-7.8711 3.5234-7.8711 7.8711 0 4.3477 3.5234 7.875 7.8711 7.875h15.746c8.4375 0 16.234 4.5 20.453 11.809 4.2188 7.3047 4.2188 16.309 0 23.613-4.2188 7.3086-12.016 11.809-20.453 11.809v7.8711c0 2.0898-0.82812 4.0898-2.3047 5.5664-1.4766 1.4766-3.4805 2.3086-5.5664 2.3086 19.684 0 37.875-10.504 47.719-27.555 9.8438-17.047 9.8438-38.055 0-55.102-9.8438-17.051-28.035-27.555-47.719-27.555z"/>
  <path d="m565.31 517.54c-13.855-1.7656-26.73-8.082-36.605-17.957s-16.191-22.75-17.957-36.602h-221.5c-1.7656 13.852-8.082 26.727-17.957 36.602s-22.75 16.191-36.602 17.957v48.32c13.852 1.7656 26.727 8.082 36.602 17.957s16.191 22.75 17.957 36.602h221.5c1.7656-13.852 8.082-26.727 17.957-36.602s22.75-16.191 36.605-17.957zm-259.78 32.031h-23.617c-4.3477 0-7.8711-3.5234-7.8711-7.8711 0-4.3477 3.5234-7.8711 7.8711-7.8711h23.617c4.3477 0 7.8711 3.5234 7.8711 7.8711 0 4.3477-3.5234 7.8711-7.8711 7.8711zm94.465 62.977c-18.793 0-36.812-7.4648-50.098-20.75-13.289-13.289-20.754-31.309-20.754-50.098 0-18.789 7.4648-36.812 20.754-50.098 13.285-13.285 31.305-20.75 50.098-20.75 18.789 0 36.809 7.4648 50.098 20.75 13.285 13.285 20.75 31.309 20.75 50.098-0.023437 18.781-7.4961 36.789-20.777 50.07s-31.289 20.754-50.07 20.777zm118.08-62.977h-23.621c-4.3477 0-7.8711-3.5234-7.8711-7.8711 0-4.3477 3.5234-7.8711 7.8711-7.8711h23.617c4.3477 0 7.8711 3.5234 7.8711 7.8711 0 4.3477-3.5234 7.8711-7.8711 7.8711z"/>
  <path d="m392.12 588.93v-7.8711c-6.2617 0-12.27-2.4883-16.699-6.918-4.4258-4.4258-6.9141-10.434-6.9141-16.699 0-4.3477 3.5234-7.8711 7.8711-7.8711 4.3477 0 7.8711 3.5234 7.8711 7.8711 0 2.0898 0.82812 4.0898 2.3047 5.5664 1.4766 1.4766 3.4805 2.3086 5.5664 2.3086h15.746c4.3477 0 7.8711-3.5273 7.8711-7.875s-3.5234-7.8711-7.8711-7.8711h-15.746c-8.4375 0-16.23-4.5-20.449-11.809-4.2188-7.3047-4.2188-16.309 0-23.613 4.2188-7.3086 12.012-11.809 20.449-11.809v-7.875c0-4.3477 3.5273-7.8711 7.875-7.8711-19.688 0-37.879 10.504-47.723 27.555-9.8438 17.047-9.8438 38.055 0 55.102 9.8438 17.051 28.035 27.555 47.723 27.555-4.3477 0-7.875-3.5273-7.875-7.875z"/>
  <path d="m565.31 462.98h-38.652c1.6484 9.6484 6.2539 18.551 13.176 25.473 6.9219 6.9219 15.824 11.527 25.477 13.176z"/>
  <path d="m392.12 353.31v93.922h15.742l0.003906-93.922c-5.2227-0.72266-10.523-0.72266-15.746 0z"/>
  <path d="m234.69 581.76v38.652h38.652-0.003906c-1.6484-9.6484-6.25-18.551-13.176-25.473-6.9219-6.9258-15.824-11.527-25.473-13.18z"/>
  <path d="m596.71 359.49c-11.48-39.316-34.406-74.324-65.859-100.56-31.453-26.238-70.008-42.52-110.75-46.762 37.402 40.43 58.312 93.398 58.613 148.47v8.2109c13.488-18.266 34.23-29.785 56.863-31.578 22.633-1.7969 44.934 6.3086 61.129 22.219z"/>
  <path d="m273.34 462.98h-38.648v38.652-0.003906c9.6484-1.6484 18.551-6.2539 25.473-13.176 6.9258-6.9219 11.527-15.824 13.176-25.473z"/>
  <path d="m203.29 359.49c16.195-15.91 38.496-24.016 61.129-22.219 22.633 1.793 43.379 13.312 56.863 31.578v-8.2109c0.30469-55.074 21.215-108.04 58.617-148.47-40.742 4.2422-79.293 20.523-110.75 46.762-31.453 26.238-54.383 61.246-65.863 100.56z"/>
 </g>
</svg>