<?xml version="1.0" encoding="UTF-8"?>
<!-- The Best Svg Icon site in the world: iconSvg.co, Visit us! https://iconsvg.co -->
<svg fill="#000000" width="800px" height="800px" version="1.1" viewBox="144 144 512 512" xmlns="http://www.w3.org/2000/svg">
 <g>
  <path d="m374.25 320.69v12.832c-14.461 0.011719-26.223 11.777-26.223 26.238 0 14.473 11.773 26.238 26.238 26.238h3.4609c10.637 0 19.289 8.6562 19.289 19.289 0 10.629-8.6523 19.285-19.281 19.289h-0.011719-0.019531-22.746c-1.918 0-3.4766 1.5586-3.4766 3.4727 0 1.9258 1.5586 3.4766 3.4766 3.4766h19.289v12.836c0 1.918 1.5586 3.4727 3.4766 3.4727 1.918 0 3.4766-1.5586 3.4766-3.4727v-13.074c12.832-1.707 22.773-12.715 22.773-26.008 0-14.469-11.773-26.238-26.242-26.238h-3.4609c-10.637 0-19.285-8.6562-19.285-19.289 0-10.637 8.6523-19.289 19.285-19.289h22.766c1.918 0 3.4766-1.5586 3.4766-3.4727 0-1.9141-1.5586-3.4766-3.4766-3.4766h-15.836v-12.832c0-1.918-1.5586-3.4766-3.4766-3.4766-1.9141 0.003906-3.4727 1.5625-3.4727 3.4844z"/>
  <path d="m586.93 210.38h-38.785v-38.789c0-1.918-1.5586-3.4766-3.4648-3.4766-1.9258 0-3.4766 1.5586-3.4766 3.4766v40.828l-14.184 14.184v-33.883c0-1.918-1.5586-3.4766-3.4727-3.4766-1.9258 0-3.4766 1.5586-3.4766 3.4766v40.824l-14.176 14.188v-33.883c0-1.918-1.5586-3.4727-3.4727-3.4727-1.9258 0-3.4766 1.5508-3.4766 3.4727v40.824l-7.793 7.793c-29.918-28.703-70.5-46.367-115.13-46.367-91.766 0-166.42 74.656-166.42 166.41 0 80.934 58.078 148.54 134.74 163.38v18.512 0.023438c-0.011718 33.352-27.148 60.492-60.508 60.492-1.918 0-3.4766 1.5586-3.4766 3.4648 0 1.9258 1.5586 3.4766 3.4766 3.4766 37.195 0 67.461-30.266 67.461-67.461v-0.03125-17.285c8.0703 1.2031 16.324 1.8398 24.723 1.8398 8.3984 0 16.652-0.63672 24.719-1.8398v17.289 0.023438c0 37.195 30.266 67.461 67.461 67.461 1.9258 0 3.4766-1.5586 3.4766-3.4766 0-1.9141-1.5586-3.4648-3.4766-3.4648-33.355 0-60.496-27.141-60.508-60.496 0-0.011719 0.003907-0.015625 0.003907-0.019531v-18.512c76.664-14.832 134.74-82.445 134.74-163.38 0-44.633-17.664-85.215-46.367-115.14l7.8008-7.793h40.828c1.9141 0 3.4648-1.5586 3.4648-3.4766s-1.5586-3.4727-3.4648-3.4727h-33.871l14.172-14.176h40.828c1.9258 0 3.4766-1.5586 3.4766-3.4766s-1.5586-3.4766-3.4766-3.4766h-33.867l14.184-14.176h40.809c1.918 0 3.4766-1.5586 3.4766-3.4766-0.019532-1.9141-1.5781-3.4688-3.4961-3.4688zm-51.465 172.14c0 87.93-71.531 159.46-159.46 159.46-87.934 0-159.46-71.535-159.46-159.46 0-87.93 71.531-159.46 159.46-159.46 42.715 0 81.562 16.883 110.21 44.324l-25.562 25.566c-22.102-20.898-51.906-33.738-84.648-33.738-67.992 0-123.31 55.312-123.31 123.31 0 67.992 55.312 123.31 123.31 123.31 67.988 0 123.3-55.312 123.3-123.31 0-32.746-12.832-62.555-33.73-84.648l25.559-25.566c27.441 28.652 44.328 67.496 44.328 110.21zm-79.523 0c0 44.078-35.859 79.941-79.941 79.941-44.078 0-79.941-35.859-79.941-79.941 0-44.078 35.859-79.941 79.941-79.941 44.082 0 79.941 35.863 79.941 79.941zm-21.031-63.812c-15.496-14.316-36.199-23.078-58.906-23.078-47.914 0-86.891 38.98-86.891 86.891 0 47.914 38.98 86.887 86.891 86.887 47.906 0 86.891-38.977 86.891-86.887 0-22.707-8.7578-43.402-23.074-58.895l20.836-20.836c19.645 20.844 31.699 48.906 31.699 79.738 0 64.16-52.195 116.36-116.35 116.36-64.16 0-116.36-52.195-116.36-116.36 0-64.16 52.195-116.36 116.36-116.36 30.832 0 58.895 12.062 79.742 31.699z"/>
 </g>
</svg>