<?xml version="1.0" encoding="UTF-8"?>
<!-- The Best Svg Icon site in the world: iconSvg.co, Visit us! https://iconsvg.co -->
<svg fill="#000000" width="800px" height="800px" version="1.1" viewBox="144 144 512 512" xmlns="http://www.w3.org/2000/svg">
 <g>
  <path d="m412.67 603.54 146.03-173.62c0.14844-0.18359 0.28125-0.37891 0.40234-0.58203 0.027344-0.027344 0.050782-0.0625 0.070313-0.097656 0.11328-0.19922 0.21484-0.40625 0.30469-0.61719v-0.089844c0.078126-0.20703 0.14453-0.42188 0.19531-0.64062-0.003906-0.015625-0.003906-0.03125 0-0.046875 0.050781-0.22656 0.082031-0.45312 0.089844-0.67969 0.003906-0.046875 0.003906-0.09375 0-0.14062v-0.20703-0.47266 0.003906c-0.027344-0.23437-0.070313-0.46484-0.12891-0.69141v-0.11719c-0.058593-0.22266-0.13281-0.4375-0.22656-0.64844v-0.078125c-0.089844-0.20703-0.19531-0.40625-0.32422-0.58984v-0.050781l-55.762-84.91c-0.89844-1.3594-2.418-2.1758-4.0469-2.1758h-180.52c-1.625 0-3.1445 0.82031-4.043 2.1758l-55.734 84.793c-0.12891 0.19922-0.25 0.41016-0.35547 0.62891 0.007812 0.019531 0.007812 0.039062 0 0.058594-0.089844 0.21484-0.17188 0.43359-0.23438 0.66016v0.11719c-0.058594 0.22656-0.097656 0.45703-0.11719 0.6875v0.46094 0.19531 0.14844c0 0.23438 0.03125 0.46094 0.089843 0.67969v0.050782h-0.003906c0.050781 0.22266 0.11719 0.4375 0.19922 0.65234v0.070312-0.003906c0.078125 0.22266 0.17969 0.43359 0.30469 0.62891 0.003907 0.03125 0.003907 0.0625 0 0.089844 0.125 0.20703 0.26562 0.40625 0.42188 0.58984l146.02 173.73c0.089844 0.10156 0.17969 0.20312 0.27734 0.29688l0.078125 0.078125c0.10938 0.10938 0.23438 0.20703 0.35547 0.30469l0.12891 0.089843 0.12891 0.078125h-0.003906c0.15625 0.10938 0.32031 0.20703 0.49219 0.29297h0.12891l0.16797 0.070313 0.26562 0.10937h0.097657l0.17578 0.050782v-0.003906c0.14062 0.042968 0.28125 0.074218 0.42578 0.097656h0.26562c0.17578 0.011718 0.35156 0.011718 0.53125 0h0.20703c0.17578 0.011718 0.35156 0.011718 0.53125 0h0.26562c0.14063-0.023438 0.28125-0.054688 0.42188-0.097656l0.17578-0.050782h0.097656l0.26562-0.10938 0.16797-0.070312h0.14062v0.003906c0.16406-0.089844 0.32422-0.1875 0.48047-0.29297l0.12891-0.078125 0.12891-0.089843c0.12109-0.09375 0.24219-0.19531 0.35156-0.30469l0.078124-0.078125c0.14453-0.078125 0.28125-0.16406 0.41406-0.25781zm-68.949-171.93 51.719 145.15-122.02-145.15zm88.887-84.84 31.047 75.168h-109.3l31.047-75.168zm112.04 84.84-122.08 145.15 51.73-145.15zm-80.621 0-55.016 154.37-55.023-154.37zm82.035-9.6719h-71.938l-31.047-75.168h53.57zm-224.7-75.168h53.57l-31.027 75.168h-71.961z"/>
  <path d="m546.33 570.78c-32.816-8.9062-30.348-34.371-30.219-35.512 0.125-1.3867-0.34375-2.7578-1.2891-3.7773-0.96094-0.99219-2.2852-1.5547-3.668-1.5547-1.3828 0-2.707 0.5625-3.6719 1.5547-0.90625 1.0352-1.3398 2.4062-1.1914 3.7773 0.11719 1.082 2.6367 26.566-30.219 35.523-2.1016 0.57422-3.5586 2.4883-3.5586 4.668 0 2.1797 1.457 4.0938 3.5586 4.668 32.855 8.9062 30.336 34.441 30.219 35.484-0.12891 1.3906 0.33594 2.7695 1.2812 3.7969 0.96094 1.0469 2.3164 1.6445 3.7383 1.6445 1.3828-0.003907 2.6953-0.59766 3.6133-1.6328 0.91406-1.0312 1.3477-2.4062 1.1875-3.7773-0.11719-1.082-2.6367-26.566 30.219-35.512v-0.003906c2.1055-0.57422 3.5625-2.4883 3.5625-4.668 0-2.1797-1.457-4.0938-3.5625-4.668zm-35.137 23.852c-3.5508-6.8398-9.6719-13.941-20.152-19.188 10.488-5.2148 16.609-12.348 20.152-19.188 3.5508 6.8398 9.6641 13.941 20.152 19.188-10.48 5.2461-16.59 12.352-20.152 19.188z"/>
  <path d="m610.04 508.69c-40.039-10.824-36.898-42.066-36.742-43.383 0.11719-1.3906-0.35547-2.7617-1.3086-3.7812-0.96484-0.99219-2.293-1.5508-3.6797-1.5508s-2.7148 0.55859-3.6797 1.5508c-0.92187 1.0352-1.3594 2.4141-1.2031 3.7891 0.15625 1.3203 3.2969 32.531-36.742 43.383v0.003906c-2.1016 0.57422-3.5586 2.4883-3.5586 4.668 0 2.1797 1.457 4.0938 3.5586 4.668 40.039 10.824 36.898 42.066 36.754 43.375-0.125 1.3945 0.34375 2.7734 1.3008 3.7969 0.96875 1.0469 2.332 1.6406 3.7578 1.6367 1.3828-0.003906 2.6992-0.59766 3.6133-1.6289 0.91797-1.0352 1.3516-2.4102 1.1875-3.7852-0.11719-1.3359-3.2969-32.531 36.742-43.355 2.1055-0.57422 3.5625-2.4883 3.5625-4.668 0-2.1797-1.457-4.0938-3.5625-4.668zm-41.68 29.676c-4.1836-8.8555-11.938-18.363-26.195-25.004 14.258-6.6406 22.012-16.129 26.195-25.004 4.1914 8.8555 11.945 18.363 26.203 25.004-14.258 6.6836-22.012 16.129-26.203 25.004z"/>
  <path d="m312 229.14c32.867 8.9141 30.348 34.441 30.219 35.492-0.12891 1.3906 0.33984 2.7734 1.2891 3.7969 0.95703 1.0469 2.3125 1.6406 3.7266 1.6367 1.3828-0.003906 2.6953-0.59766 3.6133-1.625 0.91406-1.0391 1.3516-2.4141 1.1992-3.7891-0.12891-1.082-2.6484-26.566 30.207-35.512h0.003906c2.1016-0.57812 3.5625-2.4883 3.5625-4.668 0-2.1836-1.4609-4.0938-3.5625-4.6719-32.816-8.8555-30.348-34.371-30.219-35.512 0.125-1.3828-0.33984-2.7578-1.2812-3.7773-0.96094-0.99219-2.2852-1.5508-3.668-1.5508-1.3828 0-2.707 0.55859-3.6719 1.5508-0.92188 1.0273-1.3594 2.4023-1.1992 3.7773 0.12891 1.082 2.6484 26.566-30.219 35.512-2.1055 0.57812-3.5625 2.4883-3.5625 4.6719 0 2.1797 1.457 4.0898 3.5625 4.668zm35.129-23.852c3.5508 6.8281 9.6719 13.934 20.152 19.188-10.48 5.293-16.602 12.348-20.152 19.188-3.5508-6.8867-9.6641-13.941-20.152-19.188 10.488-5.2539 16.598-12.359 20.152-19.188z"/>
  <path d="m309.07 285.39c2.1055-0.57422 3.5625-2.4883 3.5625-4.668 0-2.1797-1.457-4.0938-3.5625-4.668-59.629-16.168-54.809-62.898-54.562-64.945 0.09375-1.3984-0.40234-2.7734-1.3672-3.7891-0.98047-0.99219-2.3203-1.5547-3.7148-1.5547-1.3984 0-2.7344 0.5625-3.7148 1.5547-0.92969 1.0469-1.3594 2.4414-1.1797 3.8281 0.23438 1.9688 5.0781 48.727-54.574 64.945-2.1016 0.57422-3.5625 2.4883-3.5625 4.668 0 2.1797 1.4609 4.0938 3.5625 4.668 59.648 16.168 54.809 62.879 54.574 64.848-0.10547 1.4023 0.38672 2.7852 1.3555 3.8086 0.99609 1.043 2.375 1.6328 3.8203 1.6328 1.3789-0.003906 2.6953-0.59766 3.6094-1.6328 0.91406-1.0391 1.3438-2.4141 1.1914-3.7891-0.23438-1.9883-5.0586-48.699 54.562-64.906zm-59.551 36.801c-5.6289-14.477-17.664-31.027-43.148-41.465 25.484-10.441 37.52-27 43.148-41.477 5.6172 14.477 17.711 31.035 43.141 41.477-25.5 10.441-37.523 26.992-43.141 41.469z"/>
 </g>
</svg>