<?xml version="1.0" encoding="UTF-8"?>
<!-- The Best Svg Icon site in the world: iconSvg.co, Visit us! https://iconsvg.co -->
<svg width="800px" height="800px" version="1.1" viewBox="144 144 512 512" xmlns="http://www.w3.org/2000/svg">
 <defs>
  <clipPath id="b">
   <path d="m169 169h355v482.9h-355z"/>
  </clipPath>
  <clipPath id="a">
   <path d="m358 200h273v451.9h-273z"/>
  </clipPath>
 </defs>
 <g clip-path="url(#b)">
  <path d="m190.08 557.44v-167.93c0.03125-25.047 9.9922-49.055 27.703-66.766 17.707-17.707 41.719-27.668 66.762-27.699h10.496c2.7812 0 5.4531-1.1055 7.4219-3.0742s3.0742-4.6406 3.0742-7.4219v-20.992h20.992v10.496c-0.12109 5.6016 2.0547 11.012 6.0156 14.973 3.9648 3.9648 9.3711 6.1367 14.977 6.0195h10.496v20.992h-20.992v20.992h20.992c5.6016 0.11719 11.012-2.0547 14.973-6.0195 3.9648-3.9609 6.1367-9.3711 6.0195-14.973v-20.992c0.11719-5.6055-2.0547-11.012-6.0195-14.977-3.9609-3.9609-9.3711-6.1367-14.973-6.0156h-10.496v-10.496c0.11719-5.6055-2.0547-11.012-6.0195-14.977-3.9609-3.9609-9.3711-6.1328-14.973-6.0156h-73.473v-52.48h83.969c2.8594-0.28125 5.6953 0.73438 7.7266 2.7656 2.0352 2.0352 3.0508 4.8711 2.7695 7.7305 0 5.7969 4.6992 10.496 10.496 10.496s10.496-4.6992 10.496-10.496v-10.496h94.465v41.859c0.30469 2.875-0.69922 5.7383-2.7344 7.7969-2.0312 2.0586-4.8828 3.0938-7.7617 2.8242h-73.473v20.992h31.488v20.992c0 2.7812 1.1055 5.4531 3.0742 7.4219s4.6367 3.0742 7.4219 3.0742h10.496c29.758-0.10937 57.801 13.914 75.57 37.785l16.793-12.594c-21.715-29.184-55.992-46.324-92.363-46.184v-10.496h20.992c8.4219 0.24609 16.574-2.9922 22.535-8.9531 5.9609-5.957 9.1992-14.113 8.9492-22.535v-52.48c0-2.7852-1.1055-5.4531-3.0742-7.4219-1.9648-1.9688-4.6367-3.0742-7.418-3.0742h-104.96c-5.0312-0.11328-9.9297 1.6211-13.773 4.8711-5.2969-3.3359-11.461-5.0312-17.715-4.8711h-94.465c-5.7969 0-10.496 4.6992-10.496 10.496v62.977c-0.11719 5.6016 2.0547 11.012 6.0156 14.973 3.9648 3.9648 9.3711 6.1367 14.977 6.0195h31.488v10.496c-30.609 0.035156-59.957 12.211-81.602 33.855-21.645 21.645-33.82 50.992-33.855 81.602v167.93c-0.13672 36.375 17.004 70.652 46.184 92.367 1.8164 1.3633 4.0273 2.0977 6.2969 2.0977h157.44v-20.992h-153.84c-22.289-17.859-35.207-44.91-35.09-73.473z"/>
 </g>
 <g clip-path="url(#a)">
  <path d="m609.92 515.45c0 30.621-12.164 59.988-33.816 81.641-21.652 21.652-51.02 33.816-81.641 33.816-30.617 0-59.984-12.164-81.637-33.816-21.652-21.652-33.816-51.02-33.816-81.641s12.164-59.984 33.816-81.637c21.652-21.652 51.02-33.816 81.637-33.816v-20.992c-36.188 0-70.895 14.375-96.48 39.965-25.59 25.586-39.965 60.293-39.965 96.48 0 36.191 14.375 70.895 39.965 96.484 25.586 25.59 60.293 39.965 96.48 39.965 36.191 0 70.895-14.375 96.484-39.965 25.59-25.59 39.965-60.293 39.965-96.484v-314.88h-20.992z"/>
 </g>
 <path d="m504.96 462.98v-20.992h-20.992v20.992h-10.492c-5.5703 0-10.91 2.2109-14.844 6.1484-3.9375 3.9336-6.1484 9.2734-6.1484 14.84v20.992c0 5.5703 2.2109 10.91 6.1484 14.844 3.9336 3.9375 9.2734 6.1484 14.844 6.1484h41.984v20.992h-41.984v-10.496h-20.992v10.496c0 5.5703 2.2109 10.91 6.1484 14.844 3.9336 3.9375 9.2734 6.1484 14.844 6.1484h10.496v20.992h20.992l-0.003907-20.992h10.496c5.5703 0 10.91-2.2109 14.844-6.1484 3.9375-3.9336 6.1484-9.2734 6.1484-14.844v-20.992c0-5.5664-2.2109-10.906-6.1484-14.844-3.9336-3.9336-9.2734-6.1484-14.844-6.1484h-41.98v-20.992h41.984v10.496h20.992l-0.003907-10.496c0-5.5664-2.2109-10.906-6.1484-14.84-3.9336-3.9375-9.2734-6.1484-14.844-6.1484z"/>
 <path d="m557.44 242.56h20.992v157.44h-20.992z"/>
 <path d="m557.44 200.57h20.992v20.992h-20.992z"/>
 <path d="m609.92 158.59h20.992v20.992h-20.992z"/>
 <path d="m221.57 389.5h20.992c-0.44922-11.27 3.832-22.207 11.805-30.184 7.9727-7.9727 18.914-12.25 30.18-11.801v-20.992c-16.891-0.64062-33.285 5.7891-45.234 17.738-11.953 11.953-18.383 28.348-17.742 45.238z"/>
</svg>