<?xml version="1.0" encoding="UTF-8"?>
<!-- The Best Svg Icon site in the world: iconSvg.co, Visit us! https://iconsvg.co -->
<svg fill="#000000" width="800px" height="800px" version="1.1" viewBox="144 144 512 512" xmlns="http://www.w3.org/2000/svg">
 <g>
  <path d="m565.31 581.76c-9.6602 1.6328-18.57 6.2305-25.496 13.156-6.9258 6.9297-11.523 15.84-13.156 25.496h38.652z"/>
  <path d="m234.69 620.41h38.652-0.003906c-1.6289-9.6562-6.2266-18.566-13.156-25.496-6.9258-6.9258-15.836-11.523-25.492-13.156z"/>
  <path d="m565.31 462.98h-38.652c1.6328 9.6562 6.2305 18.566 13.156 25.492 6.9258 6.9258 15.836 11.527 25.496 13.156z"/>
  <path d="m234.69 501.62c9.6562-1.6289 18.566-6.2305 25.492-13.156 6.9297-6.9258 11.527-15.836 13.156-25.492h-38.648z"/>
  <path d="m289.24 462.98c-1.7578 13.852-8.0703 26.73-17.945 36.605s-22.754 16.188-36.605 17.945v48.336c13.852 1.7539 26.73 8.0664 36.605 17.945 9.875 9.875 16.188 22.75 17.945 36.605h221.52c1.7578-13.855 8.0703-26.73 17.945-36.605 9.875-9.8789 22.754-16.191 36.609-17.945v-48.336c-13.855-1.7578-26.734-8.0703-36.609-17.945s-16.188-22.754-17.945-36.605zm16.297 86.59h-23.617c-4.3477 0-7.8711-3.5234-7.8711-7.8711 0-4.3477 3.5234-7.8711 7.8711-7.8711h23.617c4.3477 0 7.8711 3.5234 7.8711 7.8711 0 4.3477-3.5234 7.8711-7.8711 7.8711zm188.93-15.742h23.617-0.003906c4.3477 0 7.8711 3.5234 7.8711 7.8711 0 4.3477-3.5234 7.8711-7.8711 7.8711h-23.617c-4.3477 0-7.8711-3.5234-7.8711-7.8711 0-4.3477 3.5234-7.8711 7.8711-7.8711zm-23.617 7.8711c0 18.789-7.4648 36.809-20.75 50.098-13.289 13.285-31.309 20.75-50.098 20.75-18.793 0-36.812-7.4648-50.098-20.75-13.289-13.289-20.754-31.309-20.754-50.098 0-18.789 7.4648-36.812 20.754-50.098 13.285-13.285 31.305-20.75 50.098-20.75 18.781 0.023438 36.789 7.4922 50.07 20.773 13.281 13.285 20.754 31.289 20.777 50.074z"/>
  <path d="m400 596.8c-4.3477 0-7.875-3.5273-7.875-7.875v-7.8711c-6.2617 0-12.27-2.4883-16.699-6.918-4.4258-4.4258-6.9141-10.434-6.9141-16.699 0-4.3477 3.5234-7.8711 7.8711-7.8711 4.3477 0 7.8711 3.5234 7.8711 7.8711 0 2.0898 0.82812 4.0898 2.3047 5.5664 1.4766 1.4766 3.4805 2.3086 5.5664 2.3086h15.746c4.3477 0 7.8711-3.5273 7.8711-7.875s-3.5234-7.8711-7.8711-7.8711h-15.746c-8.4375 0-16.23-4.5-20.449-11.809-4.2188-7.3047-4.2188-16.309 0-23.613 4.2188-7.3086 12.012-11.809 20.449-11.809v-7.875c0-4.3477 3.5273-7.8711 7.875-7.8711-19.688 0-37.879 10.504-47.723 27.555-9.8438 17.047-9.8438 38.055 0 55.102 9.8438 17.051 28.035 27.555 47.723 27.555z"/>
  <path d="m407.87 494.46v7.875c6.2617 0 12.27 2.4883 16.699 6.9141 4.4297 4.4297 6.918 10.438 6.918 16.699 0 4.3477-3.5273 7.875-7.875 7.875-4.3477 0-7.8711-3.5273-7.8711-7.875 0-2.0859-0.82813-4.0898-2.3047-5.5664-1.4766-1.4727-3.4805-2.3047-5.5664-2.3047h-15.746c-4.3477 0-7.8711 3.5234-7.8711 7.8711 0 4.3477 3.5234 7.875 7.8711 7.875h15.746c8.4375 0 16.234 4.5 20.453 11.809 4.2188 7.3047 4.2188 16.309 0 23.613-4.2188 7.3086-12.016 11.809-20.453 11.809v7.8711c0 2.0898-0.82812 4.0898-2.3047 5.5664-1.4766 1.4766-3.4805 2.3086-5.5664 2.3086 19.684 0 37.875-10.504 47.719-27.555 9.8438-17.047 9.8438-38.055 0-55.102-9.8438-17.051-28.035-27.555-47.719-27.555 2.0859 0 4.0898 0.83203 5.5664 2.3047 1.4766 1.4766 2.3047 3.4805 2.3047 5.5664z"/>
  <path d="m329.7 226.42c-12.457-13.191-30.617-19.395-48.543-16.578-17.922 2.8164-33.305 14.285-41.117 30.664-7.8125 16.375-7.0469 35.547 2.043 51.25 15.586 27.078 57.859 48.414 83.129 33.77 12.535-8.5781 20.406-22.465 21.332-37.625-10.863-15.664-16.91-34.16-17.398-53.215 0.027343-2.7656 0.21094-5.5234 0.55469-8.2656zm-8.707 28.875c-1.8086 1.043-3.9609 1.3242-5.9766 0.78125s-3.7344-1.8633-4.7773-3.6719c-3.1289-5.4297-8.2891-9.3945-14.344-11.02-6.0547-1.625-12.504-0.77344-17.934 2.3594-3.7617 2.1406-8.543 0.83984-10.707-2.9062-2.1641-3.7461-0.89453-8.5391 2.8359-10.727 9.043-5.2109 19.781-6.6172 29.863-3.918 10.078 2.7031 18.676 9.2891 23.902 18.324 1.0547 1.8086 1.3438 3.9609 0.80469 5.9805-0.53516 2.0234-1.8594 3.75-3.668 4.7969z"/>
  <path d="m333.09 339.23c-1.3398 0.70703-2.6758 1.3398-4.0156 1.9688l2.6758 7.8711 10.547-6.1406-5.5117-6.2188c-1.1758 0.86719-2.4336 1.7305-3.6953 2.5195z"/>
  <path d="m537.76 216.5c-10.711-6.2031-23.211-8.6016-35.461-6.8008s-23.527 7.6953-32 16.723c0.33984 2.7422 0.52344 5.5 0.55078 8.2656-0.48828 19.055-6.5352 37.551-17.398 53.215 0.92578 15.16 8.8008 29.047 21.332 37.625 25.27 14.641 67.543-6.6914 83.129-33.77 7.2891-12.656 9.2578-27.688 5.4805-41.793-3.7773-14.109-12.996-26.141-25.633-33.465zm6.5352 67.391v0.003906c-1.0352 1.8242-2.7578 3.1562-4.7812 3.707-2.0234 0.54688-4.1836 0.26563-6-0.78125-1.8125-1.0469-3.1367-2.7773-3.6719-4.8047s-0.24219-4.1836 0.82031-5.9922c3.1328-5.4297 3.9844-11.879 2.3594-17.934-1.625-6.0547-5.5898-11.215-11.02-14.344-3.7344-2.1875-5-6.9805-2.8359-10.727 2.1641-3.7461 6.9453-5.0469 10.707-2.9062 9.0391 5.2266 15.633 13.824 18.336 23.906s1.2969 20.828-3.9141 29.875z"/>
  <path d="m400 179.58c-14.609 0.015625-28.617 5.8281-38.949 16.156-10.328 10.332-16.141 24.34-16.156 38.949 0 31.25 25.977 70.848 55.105 70.848 29.125 0 55.105-39.598 55.105-70.848h-0.003907c-0.015624-14.609-5.8281-28.617-16.156-38.949-10.332-10.328-24.336-16.141-38.945-16.156zm31.488 62.977c-4.3477 0-7.875-3.5234-7.875-7.8711 0-6.2656-2.4883-12.273-6.9141-16.699-4.4297-4.4297-10.438-6.918-16.699-6.918-4.3477 0-7.875-3.5234-7.875-7.8711 0-4.3477 3.5273-7.875 7.875-7.875 10.434 0.015625 20.438 4.1641 27.816 11.543 7.3789 7.3789 11.531 17.383 11.543 27.82 0 2.0859-0.83203 4.0898-2.3047 5.5664-1.4766 1.4766-3.4805 2.3047-5.5664 2.3047z"/>
  <path d="m393.86 329.15 1.6523-8.1875v0.003906c2.9766 0.41797 5.9961 0.41797 8.9727 0l1.6562 8.1836zm74.391 19.918-10.547-6.1406 5.5117-6.2188c1.1797 0.86719 2.4414 1.7305 3.6992 2.5195 1.2578 0.78906 2.6758 1.3398 4.0156 1.9688z"/>
  <path d="m463.21 336.71-5.5117 6.2188 10.547 6.1406 2.6758-7.8711c-1.3398-0.62891-2.6758-1.2578-4.0156-1.9688-1.332-0.70703-2.5156-1.6523-3.6953-2.5195z"/>
  <path d="m400 321.28c-1.5-0.027344-3-0.12891-4.4883-0.3125l-1.6523 8.1836h12.281l-1.6523-8.1875-0.003906 0.003906c-1.4883 0.18359-2.9844 0.28516-4.4844 0.3125z"/>
  <path d="m407.87 425.74v-80.844h-15.746v80.844l-39.98-69.289-13.68 7.9062 47.914 82.875h27.238l47.918-82.875-13.684-7.9062z"/>
 </g>
</svg>