<?xml version="1.0" encoding="UTF-8"?>
<!-- The Best Svg Icon site in the world: iconSvg.co, Visit us! https://iconsvg.co -->
<svg fill="#000000" width="800px" height="800px" version="1.1" viewBox="144 144 512 512" xmlns="http://www.w3.org/2000/svg">
 <g>
  <path d="m600.52 512.18h-3.8281v-254.86c-0.003906-7.4336-2.9609-14.566-8.2188-19.828-5.2578-5.2578-12.391-8.2148-19.824-8.2227h-337.3c-7.4375 0.007813-14.57 2.9648-19.828 8.2227-5.2578 5.2617-8.2109 12.395-8.2188 19.828v254.86h-3.8281c-4.9922 0.007813-9.7773 1.9922-13.309 5.5234-3.5273 3.5312-5.5156 8.3164-5.5234 13.309v20.93c0.007813 4.9922 1.9961 9.7812 5.5234 13.309 3.5312 3.5312 8.3164 5.5195 13.309 5.5273h401.04c4.9922-0.007813 9.7773-1.9961 13.309-5.5273 3.5312-3.5273 5.5156-8.3164 5.5234-13.309v-20.957c-0.015624-4.9883-2.0039-9.7656-5.5352-13.293-3.5273-3.5234-8.3086-5.5039-13.297-5.5117zm-389-254.86c0-5.2578 2.0898-10.301 5.8086-14.02s8.7578-5.8125 14.02-5.8164h337.3c5.2578 0.003906 10.297 2.0977 14.016 5.8164s5.8086 8.7617 5.8086 14.02v254.86h-117.62c-1.0391 0-2.0352 0.39453-2.7969 1.1016l-18.922 17.594h-98.262l-18.961-17.625c-0.75391-0.6875-1.7344-1.0703-2.7578-1.0703h-117.62zm399.61 294.59c-0.011719 5.8555-4.7617 10.602-10.617 10.605h-401.04c-5.8555-0.003906-10.605-4.75-10.617-10.605v-20.93c0.011719-5.8594 4.7617-10.602 10.617-10.609h128.01l18.961 17.633c0.75781 0.70703 1.7578 1.1016 2.793 1.1016h101.51c1.0352 0 2.0352-0.39453 2.793-1.1016l18.961-17.633h128.01c5.8555 0.007812 10.605 4.75 10.617 10.609z"/>
  <path d="m381.54 501.35c-0.007812 5.8477 2.7578 11.352 7.4492 14.836 4.6953 3.4883 10.762 4.5469 16.359 2.8516 5.5938-1.6953 10.059-5.9375 12.027-11.441 1.9727-5.5039 1.2227-11.617-2.0273-16.48h147.34c2.2695-0.003907 4.1016-1.8438 4.1016-4.1133v-218.86c0-2.2656-1.832-4.1055-4.1016-4.1133h-325.37c-2.2656 0.007812-4.1016 1.8477-4.1016 4.1133v218.84c0 2.2695 1.8359 4.1094 4.1016 4.1133h147.34c-2.0312 3.0312-3.1172 6.6016-3.1094 10.254zm28.703 0c-0.015626 4.1406-2.5234 7.8633-6.3516 9.4336-3.8281 1.5742-8.2266 0.6875-11.148-2.2461-2.9219-2.9297-3.793-7.332-2.2031-11.156 1.5859-3.8242 5.3203-6.3164 9.4609-6.3164 2.7227 0 5.332 1.0859 7.2539 3.0156 1.9258 1.9297 3 4.5469 2.9883 7.2695zm-168.82-229.14h317.14v210.62h-317.14z"/>
  <path d="m426.28 417.45c1.1133-0.007813 2.1758-0.46484 2.9531-1.2695l74.785-78.09-2.3438 19.16c-0.27344 2.2539 1.3281 4.3047 3.582 4.5859h0.5c2.0742-0.003906 3.8203-1.5547 4.0742-3.6133l3.8359-31.418h0.003906c0.007813-0.1875 0.007813-0.375 0-0.5625v-0.089844 0.003906c-0.007813-0.23047-0.035156-0.45703-0.078125-0.67969 0.003906-0.019531 0.003906-0.039063 0-0.058594-0.054688-0.23438-0.125-0.46094-0.21875-0.67969-0.011719-0.042969-0.027344-0.082032-0.050781-0.11719-0.097657-0.21875-0.21484-0.42969-0.34375-0.63281v-0.058594c-0.14453-0.21875-0.31641-0.41797-0.51172-0.59766-0.17969-0.17578-0.38281-0.33203-0.59766-0.46484l-0.089844-0.070313v0.003907c-0.19531-0.11719-0.39844-0.21875-0.60938-0.30469l-0.17578-0.058594-0.003906-0.003906c-0.20313-0.078125-0.41406-0.13672-0.62891-0.17578h-0.13672c-0.19531-0.007813-0.38672-0.007813-0.58203 0h-0.14844 0.003906c-0.1875 0-0.37109 0.019531-0.55078 0.050781l-31.215 5.2617c-2.2344 0.38281-3.7383 2.5-3.3633 4.7344 0.39453 2.2305 2.5039 3.7305 4.7422 3.375l18.953-3.2188-71.832 74.98-62.977-63.832h-0.003906c-1.5742-1.5977-4.1406-1.6367-5.7656-0.085937l-70.012 66.844c-0.90234 0.71875-1.4609 1.7891-1.5391 2.9453-0.074219 1.1523 0.33984 2.2852 1.1406 3.1211 0.80078 0.83203 1.918 1.2891 3.0742 1.2578 1.1562-0.027343 2.2461-0.54687 3.0039-1.4219l67.09-64.047 63.094 63.961v-0.003906c0.76562 0.80859 1.8281 1.2695 2.9414 1.2695z"/>
 </g>
</svg>