<?xml version="1.0" encoding="UTF-8"?>
<!-- The Best Svg Icon site in the world: iconSvg.co, Visit us! https://iconsvg.co -->
<svg fill="#000000" width="800px" height="800px" version="1.1" viewBox="144 144 512 512" xmlns="http://www.w3.org/2000/svg">
 <g>
  <path d="m232.71 560.99c1.1445-0.19922 2.1836-0.30078 3.1797-0.30078 9.3984 0 17.051 7.293 17.051 16.258 0 0.94531-0.10156 1.9102-0.30078 2.9492-0.29297 1.5391 0.11719 1.8984 1.1133 3.1016 0.99609 1.207 2.4766 0.67578 4.0469 0.67578h196.4c2.8984 0 5.2461-2.3516 5.2461-5.2461 0-2.8984-2.3516-5.2461-5.2461-5.2461h-190.8c-0.6875-10.492-10.348-22.391-26.094-22.961v-70.977c15.742-0.57031 25.406-11.02 26.094-26.766h39.516c2.8984 0 5.2461-2.3516 5.2461-5.2461 0-2.8984-2.3516-5.2461-5.2461-5.2461h-45.121c-1.5625 0-3.0508 1.3711-4.0469 2.5781s-1.4062 3.1328-1.1055 4.6719c0.19922 1.0273 0.29297 2.1641 0.29297 3.1055 0 8.9688-7.6523 16.344-17.051 16.344-1.0039 0-2.043-0.050782-3.1641-0.25781-1.5234-0.26172-2.9688 0.16797-4.1602 1.1602-1.1914 1-1.75 2.4922-1.75 4.0469v82.184c0 1.5469 0.55469 3.0234 1.7422 4.0195 1.1914 1 2.6328 1.4219 4.1523 1.1523z"/>
  <path d="m345.38 452.48h190.54c0.67969 15.742 11.023 26.188 26.77 26.762v70.973c-15.746 0.57422-26.09 12.473-26.777 22.969h-39.496c-2.8984 0-5.2461 2.3516-5.2461 5.2461 0 2.8984 2.3516 5.2461 5.2461 5.2461h45.105c1.5625 0 3.0547 0.53125 4.0469-0.67578 0.99609-1.207 1.4023-2.1875 1.1016-3.7227-0.20312-1.0391-0.30078-1.6992-0.30078-2.6328 0-8.9648 7.6523-16.105 17.055-16.105 0.99609 0 2.0352 0.17188 3.168 0.37109 1.5273 0.26172 3.3047-0.10938 4.4922-1.1055 1.2031-1 2.1016-2.4375 2.1016-3.9883v-82.184c0-1.5547-0.89844-3.0273-2.0898-4.0234-1.1953-1.0039-2.8711-1.4102-4.4023-1.1406-1.1172 0.20312-2.1992 0.30078-3.2031 0.30078-9.4062 0-17.082-7.293-17.082-16.258 0-0.94531 0.082031-1.9062 0.28516-2.9336 0.30078-1.5391-0.10938-3.8047-1.1016-5.0117-1.0078-1.2148-2.5-2.582-4.0664-2.582h-196.14c-2.8984 0-5.2461 2.3516-5.2461 5.2461-0.003907 2.8984 2.3477 5.25 5.2461 5.25z"/>
  <path d="m357.44 514.04c0 26.32 18.941 47.727 42.219 47.727 23.285 0 42.227-21.41 42.227-47.727 0-26.312-18.941-47.727-42.227-47.727-23.273 0-42.219 21.414-42.219 47.727zm73.949 0c0 20.531-14.234 37.23-31.73 37.23s-31.723-16.703-31.723-37.23c0-20.523 14.234-37.23 31.723-37.23 17.492 0 31.73 16.699 31.73 37.23z"/>
  <path d="m610.16 419.9-194.42-0.007813v-123.61c0-3.7578 5.4102-26.871 44.77-31.875 0.66016-0.066406 1.4258-0.125 2.1094-0.1875 7.1953 7.5312 20.102 15.582 42.172 15.582 46.84 0 53.059-35.812 53.113-36.176 0.44531-2.8438-1.4766-5.5117-4.3125-5.9609-45.039-7.168-88.109-1.4219-96.301-0.19531l-0.74609 0.11719c-29.559 3.9883-45.672 16.535-53.988 26.367-0.015625 0.015624-0.027344 0.03125-0.042969 0.050781-0.011719-0.015625-0.027344-0.03125-0.042969-0.050781-8.7266-10.324-25.777-23.355-57.238-26.758-8.1445-1.2539-51.105-7.125-96.711 0.13281-2.8398 0.45312-4.7773 3.1172-4.3281 5.9609 0.058594 0.36328 6.2617 36.176 53.098 36.176 22.059 0 34.906-8.0391 42.098-15.559 0.9375 0.074219 2.1289 0.15625 3.0273 0.25 41.516 4.4609 47.074 28.281 47.074 32.098l0.011718 123.62-200.2-0.007813c-1.3906 0-2.3398 0.55078-3.3203 1.5391-0.98438 0.98438-1.1523 2.3125-1.1523 3.707v175.37c0 2.8984 1.9297 5.2461 4.8281 5.2461l421.31 0.027344c1.3906 0 2.1992-0.55078 3.1836-1.5391 0.98828-0.98437 1.0156-2.3164 1.0156-3.7109v-175.36c0-2.8984-2.1094-5.25-5.0078-5.25zm-266.73-166.1c-1.8359-0.19922-3.8242-0.35547-5.7852-0.48438-1.6445-0.10938-3.2969 0.57812-4.3594 1.8438-7.7617 9.2031-19.867 13.875-35.965 13.875-27.848 0-37.816-14.348-41.195-22.289 42.852-5.7422 82.93 0.042968 87.77 0.77734 28.266 3.0664 43.133 14.281 50.633 23.152 1.3125 1.5469 2.5352 3.1914 3.6484 4.8867 0.96094 1.4648 2.5977 2.3477 4.3438 2.3516 1.6172 0.019532 3.3867-0.875 4.3555-2.3359 1.1641-1.7539 2.3633-3.3594 3.6562-4.8945 7.1328-8.4297 21.145-19.223 47.512-22.777l0.82031-0.125c7.5469-1.1289 45.836-6.2461 87.16-0.6875-3.3906 7.9492-13.348 22.281-41.18 22.281-16.113 0-28.215-4.6758-35.977-13.898-1.0703-1.2734-2.6875-1.9688-4.3438-1.8477-1.668 0.10938-3.3125 0.24219-5.0234 0.42578-48.449 6.1602-53.602 37.75-54.008 41.328-0.019532 0.19531-0.24609 0.39063-0.24609 0.58594v125.02h-5.2461v-125.05c0-0.1875-0.32031-0.37891-0.33594-0.5625-0.40625-3.6836-5.5469-36.145-56.234-41.578zm261.24 341.46-409.35-0.019531v-164.87l409.34 0.027344z"/>
 </g>
</svg>