<?xml version="1.0" encoding="UTF-8"?>
<!-- The Best Svg Icon site in the world: iconSvg.co, Visit us! https://iconsvg.co -->
<svg fill="#000000" width="800px" height="800px" version="1.1" viewBox="144 144 512 512" xmlns="http://www.w3.org/2000/svg">
 <g>
  <path d="m275.84 472.25c0.99609 1.2031 2.4766 1.2227 4.0391 1.2227h165.91c2.9023 0 5.2461-2.3477 5.2461-5.2461 0-2.9023-2.3477-5.2461-5.2461-5.2461h-160.41c-0.95703-10.496-11.328-19.242-21.824-20.086v-58.422c10.496-0.84375 20.859-10.711 21.82-21.207h32.621c2.8984 0 5.2461-2.3477 5.2461-5.2461 0-2.9023-2.3516-5.2461-5.2461-5.2461h-38.117c-1.5625 0-3.0508 0.58594-4.0469 1.8008-0.99609 1.2031-1.4062 2.7383-1.1055 4.2656 0.14062 0.76172 0.23047 1.5078 0.23047 2.3086 0 7.1211-6.0938 12.91-13.586 12.91-0.87109 0-1.7109-0.10938-2.5391-0.25-1.5273-0.28516-2.9062 0.14844-4.0938 1.1445-1.1875 0.99609-1.6797 2.4609-1.6797 4.0156v69.422c0 1.543 0.48828 3.0078 1.6641 4.0078 1.1797 0.99219 2.6328 1.418 4.168 1.1719 0.83984-0.14062 1.6484-0.24219 2.5352-0.24219 7.4961 0 13.562 5.793 13.562 12.914 0 0.80469-0.10547 1.25-0.24609 2.0195-0.29297 1.5352 0.10156 2.7812 1.0977 3.9883z"/>
  <path d="m523.62 354.57c-1.0039-1.2109-2.4883-1.8047-4.0586-1.8047h-165.7c-2.8984 0-5.2461 2.3477-5.2461 5.2461 0 2.9023 2.3516 5.2461 5.2461 5.2461h160.19c0.96484 10.5 11.895 20.367 22.391 21.211v58.422c-10.496 0.84375-21.43 9.5898-22.391 20.086h-32.602c-2.9023 0-5.2461 2.3477-5.2461 5.2461 0 2.9023 2.3477 5.2461 5.2461 5.2461h38.105c1.5703 0 3.0508-0.03125 4.0469-1.2344 0.99219-1.207 1.4023-2.4648 1.1016-4.0039-0.14062-0.76172-0.24219-1.3711-0.24219-2.168 0-7.1211 6.0977-12.824 13.594-12.824 0.88672 0 1.7422 0.13672 2.5781 0.28516 1.5156 0.23437 3.1758-0.15234 4.3555-1.1484 1.1797-1 1.9492-2.4453 1.9492-3.9883v-69.422c0-1.5547-0.77734-3.0234-1.9688-4.0234-1.1914-1.0039-2.8086-1.4258-4.3359-1.1445-0.82031 0.14062-1.6914 0.24219-2.5547 0.24219-7.4961 0-13.602-5.793-13.602-12.922 0-0.79297 0.089843-1.5078 0.23438-2.2578 0.30078-1.5312-0.10938-3.0742-1.0977-4.2891z"/>
  <path d="m436.2 413.1c0-22.676-16.363-41.129-36.48-41.129s-36.484 18.453-36.484 41.129c0 22.676 16.367 41.129 36.484 41.129s36.48-18.453 36.48-41.129zm-62.469 0c0-16.895 11.66-30.633 25.988-30.633s25.984 13.738 25.984 30.633c0 16.895-11.656 30.633-25.984 30.633-14.324 0-25.988-13.738-25.988-30.633z"/>
  <path d="m384.25 483.96h-157.44v-141.7h157.44c2.8984 0 5.2461-2.3477 5.2461-5.2461l0.003906-139.92 28.906 28.902c1.0234 1.0234 2.3672 1.5391 3.7109 1.5391s2.6875-0.51562 3.7109-1.5391c2.0508-2.0508 2.0508-5.3672 0-7.4219l-37.68-37.676c-2.0508-2.0508-5.3672-2.0508-7.4219 0l-37.676 37.676c-2.0508 2.0508-2.0508 5.3672 0 7.4219 2.0508 2.0508 5.3672 2.0508 7.4219 0l28.531-28.535v134.3h-157.44c-2.8984 0-5.2461 2.3477-5.2461 5.2461v152.19c0 2.9023 2.3516 5.2461 5.2461 5.2461h157.44v125.95c0 2.9023 2.3516 5.2461 5.2461 5.2461 2.8984 0 5.2461-2.3477 5.2461-5.2461l0.003906-131.2c0-2.9023-2.3516-5.25-5.25-5.25z"/>
  <path d="m578.43 331.77h-162.69c-2.9023 0-5.2461 2.3477-5.2461 5.2461 0 2.9023 2.3477 5.2461 5.2461 5.2461h157.44v141.7l-157.44 0.003906c-2.9023 0-5.2461 2.3477-5.2461 5.2461 0 2.9023 2.3477 5.2461 5.2461 5.2461h162.69c2.9023 0 5.2461-2.3477 5.2461-5.2461l0.003907-152.19c0-2.9023-2.3477-5.25-5.25-5.25z"/>
 </g>
</svg>