<?xml version="1.0" encoding="UTF-8"?>
<!-- The Best Svg Icon site in the world: iconSvg.co, Visit us! https://iconsvg.co -->
<svg fill="#000000" width="800px" height="800px" version="1.1" viewBox="144 144 512 512" xmlns="http://www.w3.org/2000/svg">
 <g>
  <path d="m527.13 383.27c-10.953-76.512-76.352-133.58-154.28-133.58h-0.88281-0.55078-0.003907c-85.965 0.77734-155.28 71.344-154.51 157.32 0.76562 85.215 70.699 154.54 155.89 154.54l1.4297-0.003906c25.594-0.23047 50.75-6.8672 73.156-19.09 15.285 11.723 34.34 18.777 55.051 18.777 50.035 0 90.734-40.703 90.734-90.734 0.003907-41.461-27.98-76.441-66.035-87.234zm-161.3 84.234c-21.926 0.85547-43.246 4.5898-62.555 10.781-6.9727-19.242-11.113-40.949-12.082-63.781h74.16zm-0.60938-68.117h-74.195c0.46875-23.938 4.4453-46.742 11.551-66.855 19.156 5.7227 40.168 8.9336 62.121 9.375zm-1.207-133.89 0.55078 61.285c-19.73-0.45703-38.855-3.3555-56.285-8.4023 2.1172-4.5938 4.3477-9.0625 6.8203-13.25 13.43-22.723 30.574-36.52 48.914-39.633zm-46.164 10.508c-5.6562 6.1523-10.949 13.289-15.754 21.426-3.0078 5.082-5.6797 10.535-8.1953 16.148-6.793-2.5938-13.199-5.5352-19.18-8.8164 12.395-12.066 26.98-21.887 43.129-28.758zm-53.648 40.148c7.4805 4.3672 15.531 8.2109 24.086 11.512-7.6445 21.695-11.895 46.152-12.379 71.723h-43.75c1.3828-31.5 13.184-60.367 32.043-83.234zm-31.891 98.355h43.77c0.98438 24.574 5.4414 48.047 13.008 68.938-8.7109 3.5469-16.867 7.6289-24.32 12.219-18.633-22.312-30.516-50.43-32.457-81.156zm43.102 92.512c6.0312-3.5312 12.523-6.7109 19.426-9.5273 2.8125 6.1367 5.8203 12.078 9.2031 17.578 4.9336 8 10.312 15.012 16.043 21.035-16.715-6.8125-31.844-16.746-44.672-29.086zm41.504 0.125c-2.8477-4.6289-5.4023-9.6289-7.8125-14.773 17.543-5.5078 36.867-8.8203 56.863-9.6445l0.5625 63.188c-18.379-2.7188-35.777-16.297-49.613-38.77zm194.45-126.92c-2.9414-0.28906-5.9141-0.45312-8.9258-0.45312-11.801 0-23.043 2.332-33.398 6.4492-1.793-21.75-6.375-42.059-13.121-60.02 8.6367-3.4805 16.746-7.4805 24.172-11.98 15.688 18.395 26.742 40.953 31.273 66.004zm-42.066-77.297c-5.9922 3.4414-12.453 6.5195-19.285 9.2695-6.9922-14.773-15.559-27.488-25.277-37.523 16.621 6.5664 31.715 16.195 44.562 28.254zm-90.172-37.559c22.672 3.4023 42.988 22.812 56.852 51.809-17.387 5.4023-36.52 8.6562-56.301 9.4648zm0.69141 76.5c21.746-0.85156 42.91-4.5234 62.09-10.625 6.8008 18.367 11.23 39.59 12.496 62.426-2.8203 1.7695-5.5469 3.6641-8.1484 5.7227h-65.922zm0.64844 72.641h50.723c-12.055 15.305-19.332 34.52-19.457 55.438-10.07-1.4766-20.383-2.3008-30.789-2.5195zm1.1797 131.22-0.5625-63.191c10.836 0.23828 21.531 1.2227 31.938 2.918 0.13672 0.80469 0.24219 1.6211 0.39844 2.4219 0.3125 1.6016 0.73047 3.1641 1.1289 4.7344 0.30078 1.1875 0.57031 2.3867 0.91797 3.5664 0.5 1.668 1.0781 3.2852 1.6641 4.9141 0.37891 1.0469 0.73438 2.1055 1.1523 3.1445 0.65625 1.6289 1.3867 3.2148 2.1367 4.7969 0.46875 0.99219 0.92578 1.9844 1.4258 2.9609 0.69141 1.3359 1.4219 2.6367 2.1758 3.9297-12.277 16.758-26.973 27.152-42.375 29.805zm46.102-10.461c1.8438-1.9961 3.6523-4.0898 5.4102-6.2969 0.39453 0.46484 0.82031 0.89062 1.2227 1.3438 0.39453 0.45312 0.74219 0.9375 1.1523 1.3789-2.5547 1.2812-5.1602 2.4609-7.7852 3.5742zm74.691 10.859c-19.18 0-36.664-7.2383-50.008-19.051-1.6562-1.4648-3.25-2.9883-4.7578-4.5742-0.42188-0.44922-0.83203-0.91016-1.2461-1.3672-1.3438-1.4805-2.625-3.0078-3.8398-4.5859-0.42188-0.54297-0.83203-1.0977-1.2383-1.6562-1.1445-1.5703-2.2148-3.1836-3.2383-4.8281-0.35938-0.58594-0.72656-1.1641-1.0664-1.7578-0.98828-1.7031-1.8945-3.4492-2.7461-5.2227-0.27734-0.57812-0.57031-1.1484-0.83594-1.7344-0.83203-1.8477-1.5625-3.7422-2.2383-5.6523-0.19531-0.55859-0.42969-1.1016-0.60938-1.668-0.65625-1.9844-1.1836-4.0039-1.6719-6.0391-0.125-0.53516-0.29688-1.0547-0.41406-1.5938-0.45313-2.1016-0.76953-4.2305-1.0469-6.3789-0.066406-0.50781-0.17187-0.99609-0.22656-1.5078-0.28906-2.6484-0.4375-5.3242-0.4375-8.0156 0-41.695 33.922-75.621 75.621-75.621 5.3203 0 10.777 0.60938 16.223 1.793 33.918 7.4531 59.398 37.699 59.398 73.824 0 41.715-33.926 75.637-75.621 75.637z"/>
  <path d="m514.91 464.67-17.109-5.6445c-2.6367-0.83984-13.305-4.6445-12.172-15.203 0.43359-4.0273 1.6133-7.1289 4.832-9.2383 2.625-1.6875 5.8828-2.5352 9.7656-2.5352 6.5859 0 11.059 1.1094 13.992 4.9062 1.6016 2.1953 2.125 3.8047 2.5703 7.6016 0 0 0.51953 6.2578 8.0117 6.2578 7.4961 0 8.6523-5.9609 8.7969-7.0312 0.67188-4.8672-1.9766-13.012-5.668-17.844-4.2539-5.582-10.297-8.957-17.625-10.398v-7.7578c0-4.1758-3.3867-7.5586-7.5586-7.5586-4.1719 0-7.5586 3.3789-7.5586 7.5586v7.3594c-8.7695 1.1289-15.453 4.6719-19.973 10.707-3.9492 5.3164-10.543 15.547-3.7852 33.258 5.8242 15.27 33.613 20.152 33.613 20.152 5.1953 1.2656 15.113 3.2539 15.141 15.227 0.011718 4.6406-2.8555 13.645-17.66 13.645-6.8789 0-16.691-3.043-16.691-15.531 0 0 0.11719-6.5156-8.0195-6.5156-8.125 0-8.7617 6.5156-8.7617 6.5156 0 8.2734 1.1836 14.086 5.5078 19.738 6.4844 8.5703 14.438 11.559 20.625 12.594v6.918c0 4.1758 3.3867 7.5586 7.5586 7.5586s7.5586-3.3789 7.5586-7.5586v-6.9766c19.391-3.3594 26.668-21.297 26.668-32.66 0-8.2812-3.0078-20.977-22.059-27.543z"/>
 </g>
</svg>