<?xml version="1.0" encoding="UTF-8"?>
<!-- The Best Svg Icon site in the world: iconSvg.co, Visit us! https://iconsvg.co -->
<svg fill="#000000" width="800px" height="800px" version="1.1" viewBox="144 144 512 512" xmlns="http://www.w3.org/2000/svg">
 <g>
  <path d="m489.84 478.58c-2.4961 0-4.5195 2.0195-4.5195 4.5156v91.434c-0.007812 5.6914-2.2695 11.148-6.2969 15.172-4.0234 4.0273-9.4805 6.293-15.172 6.3008h-218.54c-5.6875-0.015625-11.141-2.2812-15.16-6.3047-4.0195-4.0273-6.2812-9.4805-6.2891-15.168v-349.07c0.007813-5.6875 2.2695-11.141 6.2891-15.164 4.0195-4.0273 9.4727-6.293 15.16-6.3047h218.54c5.6914 0.007812 11.148 2.2695 15.172 6.2969 4.0273 4.0234 6.2891 9.4805 6.2969 15.172v71.922c-0.054687 1.2344 0.39453 2.4375 1.2461 3.3281 0.85156 0.89453 2.0312 1.3984 3.2656 1.3984s2.418-0.50391 3.2695-1.3984c0.85156-0.89062 1.3008-2.0938 1.2422-3.3281v-71.922c0-8.0898-3.2109-15.848-8.9336-21.57-5.7188-5.7188-13.48-8.9336-21.57-8.9336h-218.53c-8.0898 0-15.848 3.2148-21.57 8.9336-5.7188 5.7227-8.9336 13.48-8.9336 21.57v349.07c0 8.0898 3.2148 15.848 8.9336 21.57 5.7227 5.7188 13.48 8.9336 21.57 8.9336h218.54c8.0898 0 15.848-3.2148 21.57-8.9336 5.7188-5.7227 8.9336-13.48 8.9336-21.57v-91.434c0-2.4961-2.0234-4.5156-4.5156-4.5156z"/>
  <path d="m452.15 303.57c1.1953 0 2.3438-0.47656 3.1914-1.3242 0.84766-0.84766 1.3242-1.9961 1.3242-3.1914v-62.258c-0.007813-2.4922-2.0273-4.5078-4.5156-4.5078h-195.18c-1.1953-0.003906-2.3438 0.47266-3.1914 1.3164s-1.3242 1.9922-1.3242 3.1914v269.11c0 1.1992 0.47656 2.3438 1.3242 3.1914 0.84766 0.84375 1.9961 1.3203 3.1914 1.3164h195.18c2.4883 0 4.5078-2.0156 4.5156-4.5078v-21.816c0-2.4922-2.0234-4.5156-4.5156-4.5156-2.4961 0-4.5195 2.0234-4.5195 4.5156v17.262h-186.15v-260.04h186.19v57.742c0 2.4766 2 4.4922 4.4805 4.5156z"/>
  <path d="m326.58 551.71c-0.003906 7.4297 2.9453 14.555 8.1992 19.809 5.25 5.2539 12.375 8.207 19.801 8.207 7.4297 0 14.555-2.9492 19.809-8.2031 5.25-5.25 8.2031-12.375 8.1992-19.805 0-7.4297-2.9531-14.551-8.207-19.805-5.2539-5.25-12.379-8.1992-19.805-8.1953-7.4219 0.007812-14.539 2.957-19.789 8.207-5.2461 5.2461-8.1992 12.363-8.207 19.785zm46.965 0c0 5.0312-1.9961 9.8594-5.5547 13.418-3.5586 3.5547-8.3828 5.5547-13.414 5.5547s-9.8594-2-13.418-5.5547c-3.5547-3.5586-5.5547-8.3867-5.5547-13.418s2-9.8555 5.5547-13.414c3.5586-3.5586 8.3867-5.5547 13.418-5.5547 5.0273 0.003906 9.8516 2.0039 13.406 5.5625 3.5586 3.5547 5.5586 8.3789 5.5625 13.406z"/>
  <path d="m583.8 353.38-55.961-53.973c-1.3047-1.2578-3.2344-1.6172-4.9023-0.91016-1.668 0.71094-2.7539 2.3477-2.7539 4.1602v29.973h-44.367c-1.2344-0.058594-2.4375 0.39062-3.3281 1.2422-0.89453 0.85156-1.3984 2.0352-1.3984 3.2695s0.50391 2.4141 1.3984 3.2656c0.89062 0.85156 2.0938 1.3008 3.3281 1.2461h48.887c1.1953 0 2.3438-0.47266 3.1914-1.3164 0.84766-0.84766 1.3242-1.9961 1.3242-3.1914v-23.863l44.949 43.297-44.949 43.426v-23.883c0-1.1992-0.47266-2.3477-1.3203-3.1953-0.84766-0.84766-2-1.3242-3.1953-1.3203h-7.9531c-0.17578-0.011718-0.35547-0.011718-0.53125 0h-66.914l0.003906-30.023c-0.003906-1.8086-1.0898-3.4414-2.7539-4.1484-1.6641-0.70703-3.5898-0.35156-4.8945 0.90234l-50.703 48.875c-2.7383-7.457-7.6992-13.891-14.207-18.438-6.5117-4.5469-14.262-6.9883-22.203-6.9883-5.9766-0.003906-11.707-2.3789-15.93-6.6055-4.2227-4.2305-6.5938-9.9609-6.5938-15.938 0-5.9727 2.3789-11.703 6.6055-15.93 4.2227-4.2227 9.957-6.5977 15.93-6.5977 5.9766 0.003906 11.707 2.375 15.934 6.6016 4.2266 4.2266 6.5977 9.957 6.5977 15.934-0.054688 1.2344 0.39453 2.4375 1.2461 3.3281 0.85156 0.89453 2.0312 1.3984 3.2656 1.3984 1.2344 0 2.418-0.50391 3.2695-1.3984 0.85156-0.89062 1.3008-2.0938 1.2422-3.3281-0.007812-7.5859-2.7461-14.914-7.7148-20.648-4.9648-5.7344-11.828-9.4922-19.336-10.582v-10.629c-0.10938-2.4102-2.0977-4.3047-4.5117-4.3047-2.4102 0-4.3984 1.8945-4.5117 4.3047v10.617c-10.645 1.5156-19.785 8.3438-24.254 18.125-4.4688 9.7773-3.6523 21.16 2.168 30.199s15.844 14.496 26.594 14.477c7.8789-0.003907 15.438 3.125 21.012 8.6953 5.5703 5.5664 8.7031 13.125 8.707 21.004 0 7.8789-3.1289 15.438-8.6992 21.008-5.5703 5.5742-13.125 8.7031-21.008 8.707-7.8789 0-15.434-3.1289-21.008-8.7031-5.5703-5.5703-8.6992-13.125-8.6992-21.004 0-2.4961-2.0234-4.5195-4.5195-4.5195-2.4922 0-4.5156 2.0234-4.5156 4.5195 0.015625 9.4844 3.5039 18.637 9.8125 25.723 6.3047 7.0859 14.992 11.617 24.41 12.73v10.547c-0.054687 1.2344 0.39453 2.4375 1.2461 3.332 0.85156 0.89062 2.0312 1.3984 3.2656 1.3984s2.418-0.50781 3.2695-1.3984c0.85156-0.89453 1.3008-2.0977 1.2422-3.332v-10.547c8.5117-1.0117 16.449-4.8125 22.57-10.809 6.1211-6 10.086-13.855 11.27-22.344l48.699 46.945v0.003907c1.3047 1.2539 3.2305 1.6055 4.8945 0.89844 1.6641-0.70703 2.7461-2.3398 2.75-4.1484v-29.961h44.379c2.4102-0.11328 4.3086-2.0977 4.3086-4.5117 0-2.4141-1.8984-4.3984-4.3086-4.5117h-48.863c-1.1992 0-2.3438 0.47656-3.1914 1.3242-0.84375 0.84766-1.3203 1.9961-1.3164 3.1914v23.852l-44.961-43.297 44.961-43.297v23.855c-0.003906 1.1953 0.47266 2.3438 1.3164 3.1914 0.84766 0.84766 1.9922 1.3242 3.1914 1.3242h7.9609c0.17188 0.03125 0.34375 0.050781 0.51953 0.058594h66.914v29.965c0 1.8125 1.0859 3.4492 2.7539 4.1523 0.55859 0.23047 1.1562 0.35156 1.7617 0.35547 1.168 0 2.293-0.45312 3.1406-1.2617l55.961-53.973h-0.003907c0.88672-0.84766 1.3867-2.0195 1.3867-3.2461 0-1.2266-0.5-2.3984-1.3867-3.2461z"/>
 </g>
</svg>