<?xml version="1.0" encoding="UTF-8"?>
<!-- The Best Svg Icon site in the world: iconSvg.co, Visit us! https://iconsvg.co -->
<svg fill="#000000" width="800px" height="800px" version="1.1" viewBox="144 144 512 512" xmlns="http://www.w3.org/2000/svg">
 <path d="m541.7 588.93h-12.594v-75.57c-0.007812-23.207-6.2695-45.984-18.129-65.93-11.859-19.949-28.875-36.332-49.258-47.426 20.383-11.094 37.398-27.48 49.258-47.426 11.859-19.949 18.121-42.727 18.129-65.934v-75.57h12.594c5.625 0 10.82-3 13.633-7.8711 2.8125-4.8711 2.8125-10.875 0-15.746s-8.0078-7.8711-13.633-7.8711h-283.39c-5.625 0-10.82 3-13.633 7.8711s-2.8125 10.875 0 15.746c2.8125 4.8711 8.0078 7.8711 13.633 7.8711h12.594l0.003907 75.57c0.003906 23.207 6.2656 45.984 18.125 65.934 11.859 19.945 28.875 36.332 49.258 47.426-20.383 11.094-37.398 27.477-49.258 47.426-11.859 19.945-18.121 42.723-18.125 65.93v75.57h-12.598c-5.625 0-10.82 3.0039-13.633 7.875-2.8125 4.8711-2.8125 10.871 0 15.742 2.8125 4.8711 8.0078 7.8711 13.633 7.8711h283.39c5.625 0 10.82-3 13.633-7.8711 2.8125-4.8711 2.8125-10.871 0-15.742-2.8125-4.8711-8.0078-7.875-13.633-7.875zm-239.31-302.29v-75.57h195.23v75.57c0 34.875-18.605 67.098-48.809 84.535-30.203 17.438-67.41 17.438-97.613 0-30.199-17.438-48.805-49.66-48.805-84.535zm0 302.29v-75.57c0-34.875 18.605-67.098 48.805-84.535 30.203-17.438 67.41-17.438 97.613 0 30.203 17.438 48.809 49.66 48.809 84.535v75.57z"/>
</svg>