<?xml version="1.0" encoding="UTF-8"?>
<!-- The Best Svg Icon site in the world: iconSvg.co, Visit us! https://iconsvg.co -->
<svg fill="#000000" width="800px" height="800px" version="1.1" viewBox="144 144 512 512" xmlns="http://www.w3.org/2000/svg">
 <path d="m270.69 435.82c-2.7812 0-5.0391 2.2578-5.0391 5.0391v63.059c0 2.7812 2.2578 5.0391 5.0391 5.0391h65.062c2.7812 0 5.0391-2.2578 5.0391-5.0391l-0.003906-63.059c0-2.7812-2.2578-5.0391-5.0391-5.0391zm60.023 63.051h-54.988v-52.977h54.984zm28.363-117.61c-2.7812 0-5.0391 2.2578-5.0391 5.0391v117.62c0 2.7812 2.2578 5.0391 5.0391 5.0391l65.059-0.003906c2.7812 0 5.0391-2.2578 5.0391-5.0391l-0.003906-117.62c0-2.7812-2.2578-5.0391-5.0391-5.0391zm60.02 117.61h-54.98v-107.54h54.98zm93.422-167.54h-65.059c-2.7812 0-5.0391 2.2578-5.0391 5.0391v167.55c0 2.7812 2.2578 5.0391 5.0391 5.0391h65.059c2.7812 0 5.0391-2.2578 5.0391-5.0391l-0.003907-167.55c0-2.7852-2.2539-5.0391-5.0352-5.0391zm-5.0391 167.54h-54.98v-157.46h54.98zm57.102-240.88v288.1c0 2.7812-2.2578 5.0391-5.0391 5.0391h-319.08c-2.7812 0-5.0391-2.2578-5.0391-5.0391s2.2578-5.0391 5.0391-5.0391h314.04v-18.098h-8.5039c-2.7812 0-5.0391-2.2578-5.0391-5.0391s2.2578-5.0391 5.0391-5.0391h8.5039v-21.41h-8.5039c-2.7812 0-5.0391-2.2578-5.0391-5.0391s2.2578-5.0391 5.0391-5.0391h8.5039v-21.41h-8.5039c-2.7812 0-5.0391-2.2578-5.0391-5.0391s2.2578-5.0391 5.0391-5.0391h8.5039v-21.41h-8.5039c-2.7812 0-5.0391-2.2578-5.0391-5.0391s2.2578-5.0391 5.0391-5.0391h8.5039v-21.41h-8.5039c-2.7812 0-5.0391-2.2578-5.0391-5.0391s2.2578-5.0391 5.0391-5.0391h8.5039v-20.777h-8.5039c-2.7812 0-5.0391-2.2578-5.0391-5.0391s2.2578-5.0391 5.0391-5.0391h8.5039v-21.41h-8.5039c-2.7812 0-5.0391-2.2578-5.0391-5.0391s2.2578-5.0391 5.0391-5.0391h8.5039v-21.41h-8.5039c-2.7812 0-5.0391-2.2578-5.0391-5.0391s2.2578-5.0391 5.0391-5.0391h8.5039v-21.41h-8.5039c-2.7812 0-5.0391-2.2578-5.0391-5.0391s2.2578-5.0391 5.0391-5.0391h8.5039v-3.6133c0-2.7812 2.2578-5.0391 5.0391-5.0391 2.7812 0.007813 5.0391 2.2617 5.0391 5.043zm-315.17 157.73c0.83984 0 1.6875-0.21094 2.4727-0.64844l252.5-142.63-5.082 18.184c-0.75 2.6797 0.81641 5.4609 3.4922 6.207 0.45313 0.125 0.91016 0.19141 1.3594 0.19141 2.207 0 4.2266-1.4609 4.8477-3.6836l8.3672-29.922v-0.003907c0.17578-0.625 0.22656-1.2852 0.15234-1.9453-0.074219-0.65625-0.28125-1.293-0.60938-1.8828-0.33203-0.58984-0.77734-1.0938-1.293-1.4961-0.5-0.38672-1.0664-0.66406-1.6641-0.83984-0.023438-0.011719-0.050781-0.03125-0.074219-0.039062l-29.105-8.1367c-2.6836-0.76562-5.457 0.82031-6.207 3.4961-0.75 2.6797 0.81641 5.457 3.4961 6.207l17.422 4.8711-252.55 142.64c-2.4219 1.3672-3.2734 4.4375-1.9102 6.8633 0.92188 1.6406 2.6328 2.5625 4.3906 2.5625z"/>
</svg>