<?xml version="1.0" encoding="UTF-8"?>
<!-- The Best Svg Icon site in the world: iconSvg.co, Visit us! https://iconsvg.co -->
<svg fill="#000000" width="800px" height="800px" version="1.1" viewBox="144 144 512 512" xmlns="http://www.w3.org/2000/svg">
 <g>
  <path d="m510.21 313.41h-15.746c-4.3477 0-7.8711-3.5234-7.8711-7.8711s-3.5234-7.8711-7.8711-7.8711-7.8711 3.5234-7.8711 7.8711c0 6.2617 2.4883 12.27 6.918 16.699 4.4258 4.4297 10.434 6.9141 16.695 6.9141v7.875c0 4.3477 3.5273 7.8711 7.875 7.8711 4.3477 0 7.8711-3.5234 7.8711-7.8711v-7.875c8.4375 0 16.234-4.5 20.453-11.805 4.2188-7.3086 4.2188-16.312 0-23.617-4.2188-7.3086-12.016-11.809-20.453-11.809h-15.746c-4.3477 0-7.8711-3.5234-7.8711-7.8711s3.5234-7.8711 7.8711-7.8711h15.746c2.0859 0 4.0898 0.82812 5.5664 2.3047 1.4766 1.4766 2.3047 3.4766 2.3047 5.5664 0 4.3477 3.5234 7.8711 7.8711 7.8711 4.3477 0 7.875-3.5234 7.875-7.8711 0-6.2656-2.4883-12.27-6.918-16.699-4.4297-4.4297-10.438-6.918-16.699-6.918v-7.8711c0-4.3477-3.5234-7.8711-7.8711-7.8711-4.3477 0-7.875 3.5234-7.875 7.8711v7.8711c-8.4336 0-16.23 4.5-20.449 11.809-4.2188 7.3086-4.2188 16.309 0 23.617 4.2188 7.3047 12.016 11.809 20.449 11.809h15.746c4.3477 0 7.8711 3.5234 7.8711 7.8711s-3.5234 7.8711-7.8711 7.8711z"/>
  <path d="m462.98 203.2h15.742c4.3477 0 7.8711-3.5273 7.8711-7.875 0-4.3477-3.5234-7.8711-7.8711-7.8711h-15.742c-4.3477 0-7.875 3.5234-7.875 7.8711 0 4.3477 3.5273 7.875 7.875 7.875z"/>
  <path d="m625.3 344.89c5.8125-5.0039 9.582-11.973 10.594-19.574 1.0078-7.6016-0.8125-15.312-5.1172-21.66-4.3047-6.3477-10.793-10.895-18.23-12.77v-87.691c0-10.441-4.1484-20.453-11.527-27.832-7.3828-7.3828-17.395-11.531-27.832-11.531h-204.67c-10.441 0-20.453 4.1484-27.832 11.531-7.3828 7.3789-11.531 17.391-11.531 27.832v76.988c-2.4922 1.5273-4.8164 3.3242-6.9258 5.3516l-13.066 13.066c-3.1719 3.125-7.1523 5.3047-11.492 6.3008v-7.2422c0-2.0898-0.83203-4.0938-2.3086-5.5664-1.4766-1.4766-3.4766-2.3086-5.5664-2.3086h-23.613v-7.8711c0-2.0859-0.83203-4.0898-2.3086-5.5664-1.4766-1.4766-3.4766-2.3047-5.5664-2.3047h-86.59c-4.3477 0-7.875 3.5234-7.875 7.8711v236.16c0 2.0898 0.83203 4.0898 2.3086 5.5664 1.4766 1.4766 3.4766 2.3047 5.5664 2.3047h86.59c2.0898 0 4.0898-0.82812 5.5664-2.3047 1.4766-1.4766 2.3086-3.4766 2.3086-5.5664v-7.8711h23.617-0.003907c2.0898 0 4.0898-0.82812 5.5664-2.3047 1.4766-1.4766 2.3086-3.4805 2.3086-5.5664v-7.875h31.488l-0.003906 102.34c0 10.438 4.1484 20.449 11.531 27.832 7.3789 7.3789 17.391 11.527 27.832 11.527h204.67c10.438 0 20.449-4.1484 27.832-11.527 7.3789-7.3828 11.527-17.395 11.527-27.832v-103.44c7.4375-1.875 13.926-6.418 18.23-12.766 4.3047-6.3477 6.125-14.059 5.1172-21.66-1.0117-7.6055-4.7812-14.57-10.594-19.574 6.8945-5.9102 10.863-14.535 10.863-23.617 0-9.0781-3.9688-17.707-10.863-23.617 6.8945-5.9062 10.863-14.535 10.863-23.613 0-9.082-3.9688-17.707-10.863-23.617zm-374.87 165.31h-70.848v-220.42h70.848zm31.488-15.742-15.742-0.003906v-188.93h15.742zm62.977-291.27c0.019531-6.2578 2.5117-12.254 6.9375-16.68s10.422-6.918 16.68-6.9375h204.67c6.2578 0.019531 12.254 2.5117 16.68 6.9375 4.4219 4.4258 6.918 10.422 6.9375 16.68v86.59h-7.875v-78.719c-0.015625-6.2578-2.5117-12.254-6.9375-16.68-4.4219-4.4258-10.418-6.918-16.676-6.9375h-38.812c-7.875-0.027344-15.242 3.9062-19.598 10.469l-6.4531 9.6836h-0.003907c-1.4883 2.1445-3.9219 3.4375-6.5352 3.4648h-46.129c-2.6289-0.023437-5.0781-1.3516-6.5352-3.543l-6.4531-9.5234c-4.3281-6.6094-11.703-10.578-19.602-10.551h-38.809c-6.2578 0.019531-12.254 2.5117-16.68 6.9375s-6.918 10.422-6.9375 16.68v62.977h-2.6758c-1.8125 0-3.4648 0.31641-5.1953 0.47266zm207.66 141.7c-6.8945 5.9102-10.863 14.535-10.863 23.617 0 9.0781 3.9688 17.707 10.863 23.613-6.8945 5.9102-10.863 14.539-10.863 23.617 0 9.082 3.9688 17.707 10.863 23.617-6.5039 5.6211-10.418 13.664-10.824 22.25-0.40625 8.5898 2.7305 16.965 8.6758 23.176 5.9453 6.2109 14.176 9.707 22.773 9.6758v94.465c0 2.0898-0.82812 4.0898-2.3047 5.5664-1.4766 1.4766-3.4805 2.3086-5.5664 2.3086h-188.93c-4.3477 0-7.8711-3.5273-7.8711-7.875v-248.6c4.957-2.1875 10.32-3.3125 15.742-3.3047h31.488c6.2578-0.019532 12.254-2.5156 16.68-6.9375 4.4258-4.4258 6.918-10.422 6.9375-16.68v-7.8711c0-8.3516-3.3164-16.359-9.2227-22.266s-13.914-9.2227-22.266-9.2227h-39.359v-62.977c0-4.3477 3.5234-7.8711 7.8711-7.8711h38.809c2.6289 0.023437 5.0781 1.3516 6.5352 3.543l6.4531 9.5234c4.3281 6.6094 11.703 10.578 19.602 10.547h46.129c7.8789 0.027344 15.246-3.9062 19.602-10.469l6.4531-9.6836h0.003906c1.4883-2.1445 3.9219-3.4336 6.5312-3.4609h38.812c2.0859 0 4.0898 0.82812 5.5664 2.3047 1.4766 1.4766 2.3047 3.4766 2.3047 5.5664v78.719c-8.5977-0.03125-16.828 3.4688-22.773 9.6797-5.9453 6.2109-9.082 14.586-8.6758 23.172 0.40625 8.5898 4.3203 16.633 10.824 22.254zm-223.41 31.488v102.34h-31.484v-157.91c8.5508-1.1211 16.504-4.9883 22.668-11.02l13.066-13.066h0.003906c4.4219-4.4297 10.426-6.9219 16.688-6.9297h57.781c4.1719 0.011719 8.168 1.6758 11.117 4.625 2.9492 2.9492 4.6133 6.9492 4.625 11.121v7.8711c0 2.0859-0.82812 4.0898-2.3047 5.5664-1.4766 1.4766-3.4766 2.3047-5.5664 2.3047h-31.488c-14.609 0.019531-28.613 5.8281-38.945 16.16-10.332 10.328-16.141 24.336-16.16 38.945zm267.65 220.42c-0.019531 6.2578-2.5156 12.25-6.9375 16.676-4.4258 4.4258-10.422 6.9219-16.68 6.9375h-204.67c-6.2578-0.015624-12.254-2.5117-16.68-6.9375-4.4258-4.4258-6.918-10.418-6.9375-16.676v-220.42c0.015625-8.4414 2.7812-16.648 7.8711-23.379v235.92c0.019531 6.2578 2.5117 12.254 6.9375 16.68s10.422 6.918 16.68 6.9375h188.93c6.2578-0.019531 12.254-2.5117 16.676-6.9375 4.4258-4.4258 6.9219-10.422 6.9375-16.68v-94.465h7.8711zm7.8711-118.08h-31.488c-5.625 0-10.824-3-13.637-7.8711s-2.8125-10.875 0-15.746c2.8125-4.8711 8.0117-7.8711 13.637-7.8711h31.488c5.625 0 10.82 3 13.633 7.8711 2.8125 4.8711 2.8125 10.875 0 15.746s-8.0078 7.8711-13.633 7.8711zm0-47.23h-31.488c-5.625 0-10.824-3.0039-13.637-7.875-2.8125-4.8711-2.8125-10.871 0-15.742s8.0117-7.8711 13.637-7.8711h31.488c5.625 0 10.82 3 13.633 7.8711s2.8125 10.871 0 15.742c-2.8125 4.8711-8.0078 7.875-13.633 7.875zm0-47.23-31.488-0.003906c-5.625 0-10.824-3-13.637-7.8711-2.8125-4.8711-2.8125-10.875 0-15.746 2.8125-4.8711 8.0117-7.8711 13.637-7.8711h31.488c5.625 0 10.82 3 13.633 7.8711 2.8125 4.8711 2.8125 10.875 0 15.746-2.8125 4.8711-8.0078 7.8711-13.633 7.8711zm0-47.23-31.488-0.003906c-5.625 0-10.824-3-13.637-7.875-2.8125-4.8711-2.8125-10.871 0-15.742s8.0117-7.8711 13.637-7.8711h31.488c5.625 0 10.82 3 13.633 7.8711s2.8125 10.871 0 15.742c-2.8125 4.875-8.0078 7.875-13.633 7.875z"/>
  <path d="m384.25 510.21c0 2.0859 0.82812 4.0898 2.3047 5.5664 1.4766 1.4766 3.4805 2.3047 5.5664 2.3047h157.44c4.3477 0 7.8711-3.5234 7.8711-7.8711 0-4.3477-3.5234-7.8711-7.8711-7.8711h-157.44c-4.3477 0-7.8711 3.5234-7.8711 7.8711z"/>
  <path d="m388.07 453.98c3.7227 2.2383 8.5586 1.0352 10.797-2.6914l18.438-30.699 16.484 16.484v-0.003906c1.7891 1.7852 4.3281 2.6016 6.8203 2.1953 2.4961-0.40234 4.6445-1.9805 5.7734-4.2422l25.074-50.145 16.238 27.062v0.003906c1.1523 1.9102 3.0586 3.2461 5.25 3.668 2.1875 0.42578 4.457-0.097656 6.2383-1.4414l31.488-23.617c3.4766-2.6055 4.1797-7.543 1.5742-11.02-2.6094-3.4766-7.543-4.1836-11.023-1.5742l-24.504 18.383-19.129-31.883c-1.4609-2.5-4.1953-3.9688-7.0859-3.8125-2.8711 0.11328-5.4531 1.7773-6.7383 4.3477l-26.598 53.207-15.895-15.895c-1.7148-1.7109-4.1211-2.5391-6.5234-2.2461-2.4062 0.29688-4.5391 1.6797-5.7891 3.7578l-23.617 39.359c-1.0703 1.793-1.3867 3.9414-0.875 5.9648 0.51172 2.0273 1.8047 3.7656 3.6016 4.8359z"/>
  <path d="m423.61 533.82h-31.488c-4.3477 0-7.8711 3.5234-7.8711 7.8711v31.488c0 2.0859 0.82812 4.0898 2.3047 5.5664 1.4766 1.4766 3.4805 2.3047 5.5664 2.3047h31.488c2.0898 0 4.0898-0.82813 5.5664-2.3047 1.4766-1.4766 2.3086-3.4805 2.3086-5.5664v-31.488c0-2.0898-0.83203-4.0898-2.3086-5.5664-1.4766-1.4766-3.4766-2.3047-5.5664-2.3047zm-7.8711 31.488h-15.742v-15.746h15.742z"/>
  <path d="m486.59 533.82h-31.488c-4.3477 0-7.8711 3.5234-7.8711 7.8711v31.488c0 2.0859 0.82812 4.0898 2.3047 5.5664 1.4766 1.4766 3.4805 2.3047 5.5664 2.3047h31.488c2.0898 0 4.0898-0.82813 5.5664-2.3047s2.3047-3.4805 2.3047-5.5664v-31.488c0-2.0898-0.82813-4.0898-2.3047-5.5664-1.4766-1.4766-3.4766-2.3047-5.5664-2.3047zm-7.8711 31.488h-15.742v-15.746h15.742z"/>
  <path d="m549.57 533.82h-31.488c-4.3477 0-7.8711 3.5234-7.8711 7.8711v31.488c0 2.0859 0.82812 4.0898 2.3047 5.5664 1.4766 1.4766 3.4805 2.3047 5.5664 2.3047h31.488c2.0898 0 4.0898-0.82813 5.5664-2.3047 1.4766-1.4766 2.3047-3.4805 2.3047-5.5664v-31.488c0-2.0898-0.82812-4.0898-2.3047-5.5664-1.4766-1.4766-3.4766-2.3047-5.5664-2.3047zm-7.8711 31.488h-15.746v-15.746h15.742z"/>
  <path d="m533.82 431.49h-15.746c-2.0859 0-4.0898 0.82812-5.5664 2.3047l-18.051 18.051-18.051-18.051h0.003906c-1.7148-1.7109-4.1211-2.5391-6.5273-2.2461-2.4023 0.29688-4.5391 1.6797-5.7852 3.7578l-18.438 30.699-16.484-16.484c-1.6172-1.6094-3.8516-2.4414-6.1289-2.2773-2.2734 0.16406-4.3672 1.3086-5.7344 3.1367l-23.617 31.488c-2.6055 3.4766-1.9023 8.4141 1.5742 11.02 3.4805 2.6094 8.4141 1.9062 11.023-1.5742l18.168-24.23 17.199 17.199v0.003906c1.7148 1.7109 4.1211 2.5391 6.5273 2.2461 2.4023-0.29688 4.5391-1.6836 5.7852-3.7578l18.438-30.699 16.484 16.484v-0.003906c3.0742 3.0742 8.0547 3.0742 11.129 0l21.309-21.324h12.488c4.3477 0 7.8711-3.5234 7.8711-7.8711s-3.5234-7.8711-7.8711-7.8711z"/>
 </g>
</svg>