<?xml version="1.0" encoding="UTF-8"?>
<!-- The Best Svg Icon site in the world: iconSvg.co, Visit us! https://iconsvg.co -->
<svg fill="#000000" width="800px" height="800px" version="1.1" viewBox="144 144 512 512" xmlns="http://www.w3.org/2000/svg">
 <g>
  <path d="m536.43 405.28c0.21094-3.3906 0.35937-6.7695 0.35937-10.082 0-89.961-73.188-163.15-163.15-163.15-89.949 0-163.14 73.188-163.14 163.15 0 89.965 73.184 163.16 163.14 163.16 20.047 0 39.539-3.6172 58.051-10.688 16.652 19.262 41.195 31.52 68.594 31.52 50.035 0 90.734-40.703 90.734-90.734 0.003906-37.184-22.496-69.172-54.586-83.176zm-19.441-5.9492c-2.207-0.42188-4.418-0.76172-6.6367-1.0195-0.67578-0.074219-1.3555-0.125-2.0234-0.1875-2.6758-0.24609-5.3555-0.40625-8.0391-0.40625-17.008 0-32.875 4.793-46.496 12.965 1.9492-4.207 3.043-8.8164 3.043-13.578 0-3.4141-0.52344-6.7617-1.5469-9.9453h66.164c0.14062 2.6602 0.22656 5.3398 0.22656 8.0352 0 1.6875-0.03125 3.3945-0.097657 5.1172-0.27734-0.070313-0.55469-0.10938-0.83203-0.17578-1.2461-0.28516-2.4922-0.56641-3.7617-0.80469zm2.8672-27.281h-77.688c-3.0312 0-5.7734 1.8125-6.957 4.6055-1.1836 2.793-0.58594 6.0195 1.5234 8.2031 3.2148 3.3359 4.9844 7.6836 4.9844 12.254 0 6.3633-3.3711 12.086-9.0234 15.312-2.3516 1.3438-3.8086 3.8477-3.8086 6.5664v13.68c-6.0195 7.6836-10.801 16.359-14.113 25.734h-17.73c-9.7656 0-17.703-7.9453-17.703-17.715 0-4.8672 1.9805-9.4219 5.5625-12.82 2.2422-2.125 2.9688-5.4102 1.8203-8.2812-1.1484-2.8711-3.9258-4.7578-7.0234-4.7578h-19.141c-9.7656 0-17.707-7.9453-17.707-17.715s7.9453-17.715 17.707-17.715h48.691c3.0742 0 5.8438-1.8633 7.0039-4.7148 1.1523-2.8516 0.47266-6.1211-1.7383-8.2617-3.9102-3.7969-6.0664-8.8555-6.0664-14.242 0-6.2969 2.9609-12.102 8.1211-15.926 2.6211-1.9414 3.6914-5.3438 2.6758-8.4375-1.0234-3.0977-3.9141-5.1875-7.1797-5.1875h-28.742c-10.965 0-19.879-8.918-19.879-19.879 0-10.965 8.9219-19.879 19.879-19.879h86.395v-0.125c26.211 22.398 44.527 53.754 50.137 89.301zm-251.16-56.895c0 9.7695-7.9453 17.715-17.719 17.715h-11.566c5.5234-11.84 12.551-22.832 20.863-32.727 5.1016 3.1914 8.4219 8.8281 8.4219 15.012zm-37.359 120.72h20.711c11.301 0 20.488 9.1914 20.488 20.484 0 1.375-0.15234 2.8047-0.45703 4.2461-0.46875 2.2266 0.097657 4.5508 1.5273 6.3164 1.4375 1.7695 3.5938 2.7969 5.8711 2.7969h39.938c9.6367 0 17.48 7.8438 17.48 17.488s-7.8438 17.492-17.48 17.492h-45.293c-20.094-18.281-35.109-42.016-42.785-68.824zm191.13 99.121c-15.637 5.4727-32.023 8.2422-48.828 8.2422-29.352 0-56.719-8.625-79.754-23.426h25.531c17.973 0 32.598-14.625 32.598-32.605 0-17.977-14.621-32.602-32.598-32.602h-31.805c-0.91797-18.816-16.516-33.848-35.562-33.848h-24.188c-1.4492-8.3086-2.2539-16.844-2.2539-25.562 0-16.512 2.7539-32.375 7.7656-47.219h17.609c18.105 0 32.832-14.727 32.832-32.828 0-10.434-5.1094-20.051-13.145-26.156 26.66-25.867 62.977-41.832 102.97-41.832 27.426 0 53.121 7.5273 75.168 20.574h-65.473c-19.297 0-34.996 15.699-34.996 34.996s15.699 34.996 34.996 34.996h13.125c-2.0352 4.457-3.1172 9.3555-3.1172 14.438 0 4.2031 0.73438 8.2812 2.1562 12.105h-34.934c-18.098 0-32.824 14.727-32.824 32.828 0 18.102 14.727 32.828 32.824 32.828h5.4609c-1.1836 3.4062-1.7969 7.0273-1.7969 10.746 0 18.102 14.723 32.828 32.816 32.828h13.84c-0.8125 4.8711-1.3398 9.8438-1.3398 14.949 0 2.7773 0.17188 5.5234 0.41797 8.2539 0.058594 0.67188 0.125 1.3398 0.20312 2.0039 0.30859 2.6758 0.68359 5.3398 1.2188 7.9648 0.003906 0.015625 0.003906 0.035156 0.011719 0.050781 0.52344 2.5742 1.2109 5.1133 1.9648 7.6289 0.22656 0.74609 0.46484 1.4805 0.70703 2.2148 0.63672 1.9453 1.3398 3.8633 2.1094 5.7578 0.25 0.62109 0.47266 1.25 0.73437 1.8633 0.90625 2.0977 1.9141 4.1445 2.9844 6.1758 0.57031 1.0938 1.1836 2.1602 1.7969 3.2305 0.25781 0.46875 0.49609 0.94531 0.77344 1.4023zm77.812 29.078c-24.832 0-46.836-12.082-60.629-30.617-1.0469-1.4102-2.0547-2.8359-3.0039-4.3008-0.20313-0.31641-0.38281-0.64062-0.58594-0.96094-2.5234-4.0508-4.6133-8.2969-6.3125-12.688-0.48438-1.2383-0.96094-2.4805-1.375-3.75-0.28125-0.86328-0.51953-1.7383-0.76172-2.6133-0.39844-1.3867-0.76562-2.7812-1.082-4.1953-0.19141-0.83594-0.36328-1.6758-0.52344-2.5234-0.29297-1.5508-0.52344-3.125-0.72656-4.7109-0.089844-0.73438-0.19531-1.4727-0.26562-2.207-0.21484-2.3242-0.35938-4.6719-0.35938-7.0547 0-41.695 33.922-75.621 75.621-75.621 2.3516 0 4.6719 0.14062 6.9609 0.35156 1.3086 0.125 2.6094 0.32812 3.9062 0.52344 0.88281 0.125 1.7617 0.24219 2.6289 0.40234 1.7266 0.32422 3.457 0.71094 5.168 1.1523 0.34375 0.089843 0.69531 0.17578 1.0391 0.26562 1.9297 0.52734 3.8477 1.1289 5.7539 1.8086 29.191 10.488 50.16 38.363 50.16 71.117 0.007813 41.699-33.914 75.621-75.613 75.621z"/>
  <path d="m512.45 483.31-17.109-5.6445c-2.6367-0.83984-13.305-4.6445-12.172-15.203 0.43359-4.0273 1.6133-7.1289 4.832-9.2383 2.625-1.6875 5.8828-2.5352 9.7656-2.5352 6.5859 0 11.059 1.1094 13.992 4.9062 1.6016 2.1953 2.125 3.8047 2.5703 7.6016 0 0 0.51953 6.2578 8.0117 6.2578 7.4961 0 8.6523-5.9609 8.7969-7.0312 0.67188-4.8672-1.9766-13.012-5.668-17.844-4.2539-5.582-10.297-8.957-17.625-10.398v-7.7578c0-4.1758-3.3867-7.5586-7.5586-7.5586s-7.5586 3.3789-7.5586 7.5586v7.3594c-8.7695 1.1289-15.453 4.6719-19.973 10.707-3.9492 5.3164-10.543 15.547-3.7852 33.258 5.8242 15.27 33.613 20.152 33.613 20.152 5.1953 1.2656 15.113 3.2539 15.141 15.227 0.011719 4.6406-2.8555 13.645-17.66 13.645-6.8789 0-16.691-3.043-16.691-15.531 0 0 0.11719-6.5156-8.0195-6.5156-8.125 0-8.7617 6.5156-8.7617 6.5156 0 8.2734 1.1836 14.086 5.5078 19.738 6.4844 8.5703 14.438 11.559 20.625 12.594v6.918c0 4.1758 3.3867 7.5586 7.5586 7.5586s7.5586-3.3789 7.5586-7.5586v-6.9766c19.391-3.3594 26.668-21.297 26.668-32.66-0.003906-8.2812-3.0039-20.98-22.059-27.543z"/>
 </g>
</svg>