<?xml version="1.0" encoding="UTF-8"?>
<!-- The Best Svg Icon site in the world: iconSvg.co, Visit us! https://iconsvg.co -->
<svg fill="#000000" width="800px" height="800px" version="1.1" viewBox="144 144 512 512" xmlns="http://www.w3.org/2000/svg">
 <g>
  <path d="m625.39 573.55-28.238-113.09v0.003906c-1.4961-6.0625-7.0195-10.258-13.258-10.078h-67.484l-25.723-103.41c-1.5469-6.0078-7.0547-10.141-13.258-9.9414h-155.25c-6.1992-0.19922-11.707 3.9336-13.258 9.9414l-25.32 103.41h-67.484c-6.2422-0.17969-11.766 4.0156-13.258 10.078l-28.242 113.09c-0.99609 4.0234-0.054687 8.2852 2.5508 11.512 2.6016 3.2266 6.5625 5.0508 10.707 4.9297h424.26c4.1445 0.12109 8.1055-1.7031 10.711-4.9297 2.6016-3.2266 3.543-7.4883 2.5469-11.512zm-292.87-209.74h134.97l21.609 86.574h-178.19zm67.484 158.3-11.27-45.211h22.539zm-195.16 41.367 21.609-86.578h134.97l21.609 86.574zm212.13 0 21.609-86.574 134.97-0.003907 21.609 86.574z"/>
  <path d="m400 293c3.5156 0 6.8867-1.3945 9.375-3.8828 2.4844-2.4844 3.8828-5.8594 3.8828-9.375v-56.48c0-7.3203-5.9375-13.258-13.258-13.258-7.3242 0-13.258 5.9375-13.258 13.258v56.48c0 3.5156 1.3945 6.8906 3.8828 9.375 2.4844 2.4883 5.8555 3.8828 9.375 3.8828z"/>
  <path d="m456.61 307.19c3.4805-0.015625 6.8125-1.3945 9.2812-3.8438l39.773-39.773v-0.003907c4.5078-5.2578 4.2031-13.102-0.69141-17.996-4.8984-4.8984-12.742-5.1992-18-0.69531l-39.773 39.773c-3.7305 3.8047-4.8203 9.4727-2.7695 14.391 2.0547 4.918 6.8516 8.125 12.18 8.1484z"/>
  <path d="m333.71 303.35c5.1992 5.1602 13.598 5.1328 18.762-0.066406 5.1602-5.1992 5.1328-13.598-0.066406-18.762l-39.773-39.773c-2.3398-2.9688-5.8359-4.7969-9.6094-5.0234-3.7734-0.23047-7.4648 1.1602-10.145 3.8242-2.6836 2.6641-4.1016 6.3438-3.8984 10.117 0.20313 3.7734 2.0039 7.2812 4.957 9.6445z"/>
 </g>
</svg>