<?xml version="1.0" encoding="UTF-8"?>
<!-- The Best Svg Icon site in the world: iconSvg.co, Visit us! https://iconsvg.co -->
<svg fill="#000000" width="800px" height="800px" version="1.1" viewBox="144 144 512 512" xmlns="http://www.w3.org/2000/svg">
 <g>
  <path d="m400 234.26c-75.039 0-136.09 61.047-136.09 136.09 0 26.258 7.4961 51.746 21.676 73.707 13.805 21.387 33.234 38.441 56.184 49.316 2.2812 1.0898 5.0195 0.10938 6.1016-2.1758 1.082-2.2891 0.10938-5.0195-2.1758-6.1016-44.113-20.914-72.625-65.953-72.625-114.75 0-69.988 56.941-126.93 126.93-126.93 69.988 0 126.93 56.941 126.93 126.93 0 48.793-28.504 93.836-72.617 114.75-2.2891 1.082-3.2578 3.8125-2.1758 6.1016 0.78125 1.6523 2.4297 2.6211 4.1406 2.6211 0.65625 0 1.3242-0.14062 1.9609-0.44141 22.949-10.879 42.379-27.938 56.184-49.316 14.176-21.961 21.676-47.449 21.676-73.707-0.011718-75.047-61.059-136.09-136.09-136.09z"/>
  <path d="m469.18 510.43c2.5273 0 4.5781-2.0508 4.5781-4.5781 0-2.5273-2.0508-4.5781-4.5781-4.5781h-8.3281v-0.13281c0-2.5273-2.0508-4.5781-4.5781-4.5781-2.5273 0-4.5781 2.0508-4.5781 4.5781v0.13281h-32.203v-92.574h28.34c2.5273 0 4.5781-2.0508 4.5781-4.5781v-12.363c0-11.602-9.4375-21.039-21.039-21.039-11.602 0-21.039 9.4375-21.039 21.039v7.7852h-20.656v-7.7852c0-11.602-9.4375-21.039-21.039-21.039-11.602 0-21.039 9.4375-21.039 21.039v12.363c0 2.5273 2.0508 4.5781 4.5781 4.5781h28.34v92.574h-32.195v-0.13281c0-2.5273-2.0508-4.5781-4.5781-4.5781-2.5273 0-4.5781 2.0508-4.5781 4.5781v0.13281h-8.3242c-2.5273 0-4.5781 2.0508-4.5781 4.5781 0 2.5273 2.0508 4.5781 4.5781 4.5781h8.3242v81.316c0 2.5273 2.0508 4.5781 4.5781 4.5781h24.285v17.148c0 2.5273 2.0508 4.5781 4.5781 4.5781h54.809c2.5273 0 4.5781-2.0508 4.5781-4.5781v-17.148h24.277c2.5273 0 4.5781-2.0508 4.5781-4.5781v-23.906h8.3281c2.5273 0 4.5781-2.0508 4.5781-4.5781s-2.0508-4.5781-4.5781-4.5781h-8.3281v-18.715h8.3281c2.5273 0 4.5781-2.0508 4.5781-4.5781 0-2.5273-2.0508-4.5781-4.5781-4.5781h-8.3281v-20.375zm-49.691-118.68c0-6.5508 5.332-11.879 11.879-11.879 6.5508 0 11.879 5.332 11.879 11.879v7.7852h-23.758zm-29.812 16.941h20.656v92.574h-20.656zm-32.926-9.1602v-7.7852c0-6.5508 5.332-11.879 11.879-11.879 6.5508 0 11.879 5.332 11.879 11.879v7.7852zm66.086 209.36h-45.648v-12.57h45.648zm28.855-78.098h-64.109c-2.5273 0-4.5781 2.0508-4.5781 4.5781s2.0508 4.5781 4.5781 4.5781h64.109v18.715h-64.109c-2.5273 0-4.5781 2.0508-4.5781 4.5781s2.0508 4.5781 4.5781 4.5781h64.109v19.324h-24.242c-0.011718 0-0.023437-0.003906-0.035156-0.003906-0.011718 0-0.023437 0.003906-0.035156 0.003906h-54.738c-0.011719 0-0.023438-0.003906-0.035157-0.003906-0.011718 0-0.023437 0.003906-0.035156 0.003906h-24.25v-76.719h103.37z"/>
  <path d="m400 211.84c2.5273 0 4.5781-2.0508 4.5781-4.5781v-20.738c0-2.5273-2.0508-4.5781-4.5781-4.5781s-4.5781 2.0508-4.5781 4.5781v20.738c0 2.5273 2.0469 4.5781 4.5781 4.5781z"/>
  <path d="m315.79 231.05c0.84766 1.4727 2.3867 2.2891 3.9688 2.2891 0.77734 0 1.5664-0.19531 2.2891-0.61328 2.1914-1.2656 2.9414-4.0664 1.6758-6.2578l-10.367-17.957c-1.2656-2.1914-4.0664-2.9414-6.2578-1.6758s-2.9414 4.0664-1.6758 6.2578z"/>
  <path d="m240.75 281.11 17.957 10.375c0.71875 0.41797 1.5078 0.61328 2.2891 0.61328 1.582 0 3.125-0.82031 3.9688-2.2891 1.2656-2.1914 0.51562-4.9922-1.6719-6.2578l-17.957-10.375c-2.1914-1.2656-4.9922-0.51562-6.2578 1.6719-1.2656 2.1953-0.51562 4.9961 1.6719 6.2617z"/>
  <path d="m244.08 367.76c0-2.5273-2.0508-4.5781-4.5781-4.5781h-20.738c-2.5273 0-4.5781 2.0508-4.5781 4.5781 0 2.5273 2.0508 4.5781 4.5781 4.5781h20.738c2.5273 0.003906 4.5781-2.0469 4.5781-4.5781z"/>
  <path d="m258.72 444.05-17.961 10.359c-2.1914 1.2656-2.9414 4.0664-1.6758 6.2539 0.84766 1.4727 2.3867 2.293 3.9688 2.293 0.77734 0 1.5625-0.19531 2.2812-0.61328l17.961-10.359c2.1914-1.2656 2.9414-4.0664 1.6758-6.2539-1.2617-2.1953-4.0625-2.9492-6.25-1.6797z"/>
  <path d="m559.24 454.41-17.957-10.359c-2.1914-1.2656-4.9922-0.51562-6.2539 1.6758-1.2656 2.1914-0.51562 4.9922 1.6758 6.2539l17.957 10.359c0.71875 0.41797 1.5078 0.61328 2.2812 0.61328 1.582 0 3.125-0.82031 3.9688-2.293 1.2695-2.1914 0.51953-4.9922-1.6719-6.25z"/>
  <path d="m581.23 363.18h-20.727c-2.5273 0-4.5781 2.0508-4.5781 4.5781 0 2.5273 2.0508 4.5781 4.5781 4.5781h20.727c2.5273 0 4.5781-2.0508 4.5781-4.5781 0-2.5273-2.0508-4.5781-4.5781-4.5781z"/>
  <path d="m539 292.09c0.77734 0 1.5664-0.19531 2.2891-0.61328l17.957-10.367c2.1914-1.2656 2.9414-4.0664 1.6719-6.2578-1.2656-2.1914-4.0664-2.9414-6.2578-1.6758l-17.957 10.367c-2.1914 1.2656-2.9414 4.0664-1.6719 6.2578 0.85156 1.4727 2.3867 2.2891 3.9688 2.2891z"/>
  <path d="m477.97 232.72c0.71875 0.41797 1.5078 0.61328 2.2891 0.61328 1.582 0 3.125-0.82031 3.9688-2.2891l10.367-17.957c1.2656-2.1914 0.51562-4.9922-1.6719-6.2578-2.1914-1.2656-4.9922-0.51562-6.2578 1.6758l-10.367 17.957c-1.2695 2.1914-0.51953 4.9961 1.6719 6.2578z"/>
  <path d="m400.48 272.56c-2.5273 0-4.5781 2.0508-4.5781 4.5781v12.707c-10.941 0.074219-19.824 9.0039-19.824 19.961 0 11.008 8.957 19.961 19.965 19.961h8.8789c5.9531 0 10.797 4.8477 10.797 10.809 0 5.9609-4.8398 10.809-10.797 10.809h-24.262c-2.5273 0-4.5781 2.0508-4.5781 4.5781 0 2.5273 2.0508 4.5781 4.5781 4.5781h15.246v12.711c0 2.5273 2.0508 4.5781 4.5781 4.5781 2.5273 0 4.5781-2.0508 4.5781-4.5781v-12.711c10.938-0.074218 19.82-8.9961 19.82-19.961 0-11.008-8.9531-19.965-19.957-19.965h-8.8789c-5.9609 0-10.809-4.8477-10.809-10.801 0-5.9609 4.8477-10.809 10.809-10.809h24.254c2.5273 0 4.5781-2.0508 4.5781-4.5781 0-2.5273-2.0508-4.5781-4.5781-4.5781h-15.242v-12.699c0.003906-2.5391-2.0469-4.5898-4.5781-4.5898z"/>
 </g>
</svg>