<?xml version="1.0" encoding="UTF-8"?>
<!-- The Best Svg Icon site in the world: iconSvg.co, Visit us! https://iconsvg.co -->
<svg fill="#000000" width="800px" height="800px" version="1.1" viewBox="144 144 512 512" xmlns="http://www.w3.org/2000/svg">
 <g>
  <path d="m440.19 332.55c10.562-3.5352 19.844-10.121 26.668-18.922 6.8281-8.8008 10.898-19.426 11.695-30.539 0.73437-9.5977-2.5273-19.074-9.0156-26.188-5.7422-6.332-13.871-9.9648-22.418-10.016h-0.16406c-7.8945-0.066407-15.492 3.0156-21.105 8.5664-0.53516 0.53516-1.0547 1.0859-1.5742 1.6602-6.418-6.5078-15.172-10.172-24.309-10.172-9.1406 0-17.895 3.6641-24.309 10.172-0.48828-0.57422-1.0078-1.125-1.5742-1.6602h-0.003907c-5.918-5.7383-13.914-8.8203-22.152-8.5469-8.2344 0.27344-16.008 3.8789-21.535 9.9961-6.4883 7.1133-9.75 16.59-9.0156 26.188 0.79688 11.113 4.8672 21.738 11.691 30.539 6.8281 8.8008 16.109 15.387 26.672 18.922-40.762 22.734-71.406 75.887-71.406 120.08 0.0625 66.605 40.734 104.81 111.66 104.81 70.926 0 111.6-38.203 111.6-104.81 0-44.191-30.648-97.344-71.41-120.08zm-103.04-50.633c-0.42578-5.25 1.3359-10.441 4.8711-14.344 2.7852-3.1211 6.7539-4.918 10.938-4.9492h0.085938c3.7344-0.074219 7.3398 1.3633 10.004 3.9805 2.8281 2.9258 4.3711 6.8594 4.2812 10.93 0 4.3477 3.5273 7.8711 7.875 7.8711s7.8711-3.5234 7.8711-7.8711c0.71484-5.5312 4.0898-10.363 9.0352-12.941 4.9414-2.5781 10.836-2.5781 15.781 0 4.9414 2.5781 8.3164 7.4102 9.0312 12.941 0 4.3477 3.5273 7.8711 7.875 7.8711s7.8711-3.5234 7.8711-7.8711c-0.089844-4.0703 1.4531-8.0039 4.2812-10.93 2.6602-2.6719 6.3164-4.1172 10.086-3.9805 4.1836 0.027344 8.1562 1.8281 10.941 4.9492 3.5352 3.9023 5.2969 9.0938 4.8711 14.344-0.83594 9.0859-4.6055 17.648-10.738 24.402-6.1328 6.7539-14.297 11.328-23.262 13.031 2.4766-4.6172 3.7852-9.7695 3.8203-15.008 0-4.3477-3.5234-7.8711-7.8711-7.8711s-7.875 3.5234-7.875 7.8711c0 6.0469-3.2227 11.637-8.4609 14.66-5.2383 3.0234-11.688 3.0234-16.926 0-5.2344-3.0234-8.4609-8.6133-8.4609-14.66 0-4.3477-3.5234-7.8711-7.8711-7.8711s-7.875 3.5234-7.875 7.8711c0.035156 5.2383 1.3477 10.391 3.8203 15.008-8.9648-1.7031-17.129-6.2773-23.262-13.031-6.1328-6.75-9.9023-15.316-10.738-24.402zm62.852 259.78c-61.82 0-95.859-31.629-95.859-89.062 0-50.484 46.492-115.61 95.859-115.61s95.859 65.125 95.859 115.61c-0.003906 57.434-34.043 89.062-95.859 89.062z"/>
  <path d="m620.41 360.64-19.57-0.078125c-5.1992-26.742-15.766-52.156-31.055-74.703l13.895-13.902c2.9531-2.9531 4.6094-6.957 4.6094-11.133 0-4.1758-1.6562-8.1797-4.6094-11.129l-33.391-33.379c-3-2.8633-6.9883-4.4609-11.133-4.4609-4.1445 0-8.1328 1.5977-11.133 4.4609l-13.883 13.816c-22.582-15.262-48.023-25.781-74.785-30.922v-19.625c0-4.1758-1.6602-8.1797-4.6133-11.133s-6.957-4.6133-11.133-4.6133h-47.23c-4.1758 0-8.1797 1.6602-11.133 4.6133s-4.6133 6.957-4.6133 11.133l-0.070313 19.578c-26.746 5.1914-52.164 15.754-74.711 31.047l-13.887-13.895c-3-2.8633-6.9844-4.4609-11.133-4.4609-4.1445 0-8.1328 1.5977-11.129 4.4609l-33.395 33.395c-2.9531 2.9531-4.6094 6.957-4.6094 11.129 0 4.1758 1.6562 8.1797 4.6094 11.133l13.809 13.887c-15.254 22.582-25.77 48.023-30.914 74.781h-19.625c-4.1758 0-8.1797 1.6602-11.133 4.6133s-4.6133 6.957-4.6133 11.133v47.23c0 4.1758 1.6602 8.1797 4.6133 11.133s6.957 4.6133 11.133 4.6133l19.57 0.078125c5.1992 26.742 15.766 52.156 31.055 74.707l-13.895 13.883c-2.9531 2.9531-4.6094 6.957-4.6094 11.133 0 4.1758 1.6562 8.1797 4.6094 11.133l33.395 33.395v-0.003906c2.9961 2.8633 6.9844 4.4648 11.129 4.4648 4.1484 0 8.1328-1.6016 11.133-4.4648l13.887-13.816c22.578 15.262 48.02 25.781 74.781 30.922v19.625c0 4.1758 1.6602 8.1797 4.6133 11.133s6.957 4.6133 11.133 4.6133h47.23c4.1758 0 8.1797-1.6602 11.133-4.6133s4.6133-6.957 4.6133-11.133l0.070313-19.578c26.746-5.1914 52.164-15.754 74.715-31.047l13.902 13.895h-0.003906c3 2.8633 6.9883 4.4648 11.133 4.4648s8.1328-1.6016 11.133-4.4648l33.395-33.395-0.003906 0.003907c2.9531-2.9531 4.6094-6.957 4.6094-11.133 0-4.1758-1.6562-8.1797-4.6094-11.133l-13.824-13.883c15.254-22.586 25.77-48.023 30.914-74.785h19.625c4.1758 0 8.1797-1.6602 11.133-4.6133s4.6133-6.957 4.6133-11.133v-47.23c0-4.1758-1.6602-8.1797-4.6133-11.133s-6.957-4.6133-11.133-4.6133zm0 62.977h-19.625c-3.6523 0.015625-7.1836 1.3047-9.9961 3.6367-2.8086 2.3359-4.7188 5.5742-5.4023 9.1641-4.793 24.648-14.512 48.078-28.566 68.887-2.0586 3.0234-3 6.668-2.668 10.309 0.33594 3.6406 1.9258 7.0547 4.5039 9.6484l13.895 13.902-33.395 33.395-13.902-13.902c-2.5977-2.5664-6.0039-4.1484-9.6406-4.4844-3.6367-0.33594-7.2734 0.59766-10.301 2.6406-20.812 14.062-44.25 23.781-68.91 28.574-3.5859 0.69531-6.8164 2.6094-9.1484 5.418-2.332 2.8086-3.6211 6.3398-3.6445 9.9883v19.625h-47.23v-19.625c-0.023437-3.6523-1.3125-7.1836-3.6445-9.9922-2.3359-2.8086-5.5703-4.7188-9.1562-5.4141-24.66-4.7969-48.098-14.516-68.91-28.582-2.6211-1.7617-5.707-2.6992-8.8633-2.6992-4.1484-0.007812-8.1328 1.6289-11.07 4.5586l-13.902 13.895-33.391-33.395 13.895-13.895h-0.003906c2.5781-2.5938 4.1719-6 4.5078-9.6406 0.33984-3.6406-0.60156-7.2852-2.6562-10.309-14.062-20.809-23.785-44.242-28.582-68.895-0.68359-3.5898-2.5898-6.832-5.4023-9.168-2.8086-2.3359-6.3438-3.6211-9.9961-3.6406h-19.625v-47.23h19.625c3.6523-0.015624 7.1875-1.3008 9.9961-3.6367 2.8086-2.3359 4.7188-5.5742 5.4023-9.1641 4.7969-24.648 14.512-48.078 28.566-68.887 2.0586-3.0234 3.0039-6.668 2.668-10.309-0.33594-3.6406-1.9258-7.0508-4.5039-9.6484l-13.891-13.902 33.395-33.395 13.902 13.902-0.003907 0.003906c2.5938 2.5703 6.0039 4.1602 9.6406 4.4961 3.6367 0.33594 7.2773-0.60156 10.301-2.6562 20.816-14.062 44.254-23.781 68.91-28.574 3.5859-0.69531 6.8164-2.6094 9.1523-5.418 2.332-2.8086 3.6172-6.3359 3.6406-9.9883v-19.625h47.23v19.625c0.023438 3.6523 1.3125 7.1836 3.6445 9.9922 2.3359 2.8086 5.5703 4.7227 9.1562 5.4141 24.66 4.7969 48.098 14.52 68.914 28.582 3.0195 2.0508 6.6602 2.9844 10.297 2.6484 3.6367-0.33984 7.043-1.9336 9.6328-4.5078l13.902-13.895 33.395 33.395-13.895 13.895c-2.5781 2.5938-4.1719 6.0039-4.5078 9.6406-0.33594 3.6406 0.60156 7.2852 2.6562 10.309 14.062 20.809 23.785 44.242 28.582 68.895 0.68359 3.5898 2.5938 6.832 5.4023 9.168 2.8086 2.3359 6.3438 3.625 9.9961 3.6406h19.625z"/>
  <path d="m400 218.94c-48.02 0-94.074 19.074-128.03 53.031-33.957 33.953-53.031 80.008-53.031 128.03s19.074 94.07 53.031 128.02c33.953 33.957 80.008 53.031 128.03 53.031s94.07-19.074 128.02-53.031c33.957-33.953 53.031-80.004 53.031-128.02-0.054688-48.004-19.148-94.023-53.09-127.97-33.941-33.941-79.965-53.035-127.96-53.09zm0 346.37v0.003906c-43.844 0-85.895-17.418-116.89-48.422-31.004-31-48.418-73.047-48.418-116.89s17.414-85.895 48.418-116.89c31-31.004 73.051-48.418 116.89-48.418s85.891 17.414 116.89 48.418c31.004 31 48.422 73.051 48.422 116.89-0.050781 43.828-17.484 85.844-48.477 116.84-30.992 30.992-73.008 48.426-116.84 48.477z"/>
  <path d="m400 361.57c-4.2188-0.03125-8.3672 1.082-12 3.2227-3.6367 2.1367-6.6211 5.2227-8.6406 8.9258l-51.957 93.535c-4.0625 7.3125-3.9531 16.23 0.28906 23.445 4.2422 7.2109 11.984 11.637 20.352 11.641h103.91c8.3711 0 16.113-4.4258 20.359-11.641 4.2422-7.2109 4.3555-16.129 0.28906-23.445l-51.957-93.527h0.003907c-2.0195-3.707-5.0078-6.793-8.6445-8.9336-3.6367-2.1406-7.7852-3.2539-12.004-3.2227zm58.75 121.14-0.003906 0.003907c-1.3945 2.4258-3.9922 3.9102-6.793 3.8789h-103.91c-2.7891 0.003906-5.3711-1.4727-6.7852-3.875-1.418-2.4023-1.457-5.375-0.10156-7.8125l51.957-93.535h-0.003906c1.3906-2.5 4.0234-4.0469 6.8828-4.0469 2.8555 0 5.4883 1.5469 6.8789 4.0469l51.957 93.527h-0.003906c1.3867 2.4297 1.3555 5.4141-0.078125 7.8164z"/>
  <path d="m400 400c-4.3477 0-7.875 3.5234-7.875 7.8711v39.359c0 4.3477 3.5273 7.8711 7.875 7.8711s7.8711-3.5234 7.8711-7.8711v-39.359c0-2.0898-0.82812-4.0898-2.3047-5.5664-1.4766-1.4766-3.4805-2.3047-5.5664-2.3047z"/>
  <path d="m407.87 470.85c0 4.3477-3.5234 7.8711-7.8711 7.8711s-7.875-3.5234-7.875-7.8711 3.5273-7.8711 7.875-7.8711 7.8711 3.5234 7.8711 7.8711"/>
 </g>
</svg>