<?xml version="1.0" encoding="UTF-8"?>
<!-- The Best Svg Icon site in the world: iconSvg.co, Visit us! https://iconsvg.co -->
<svg fill="#000000" width="800px" height="800px" version="1.1" viewBox="144 144 512 512" xmlns="http://www.w3.org/2000/svg">
 <g>
  <path d="m400 329.15c18.789 0 36.809-7.4609 50.098-20.75 13.285-13.285 20.75-31.305 20.75-50.098 0-18.789-7.4648-36.809-20.75-50.098-13.289-13.285-31.309-20.75-50.098-20.75-18.793 0-36.812 7.4648-50.098 20.75-13.289 13.289-20.754 31.309-20.754 50.098 0.023437 18.785 7.4922 36.793 20.777 50.074 13.281 13.285 31.289 20.754 50.074 20.773zm0-125.95c14.613 0 28.629 5.8047 38.965 16.137 10.332 10.336 16.137 24.352 16.137 38.965 0 14.617-5.8047 28.633-16.137 38.965-10.336 10.336-24.352 16.141-38.965 16.141-14.617 0-28.633-5.8047-38.965-16.141-10.336-10.332-16.141-24.348-16.141-38.965 0.015625-14.609 5.8281-28.613 16.156-38.945 10.332-10.328 24.34-16.141 38.949-16.156z"/>
  <path d="m392.12 211.07v7.8711c-8.4375 0-16.23 4.5-20.449 11.809s-4.2188 16.309 0 23.617c4.2188 7.3047 12.012 11.809 20.449 11.809h15.746c4.3477 0 7.8711 3.5234 7.8711 7.8711s-3.5234 7.8711-7.8711 7.8711h-15.746c-4.3477 0-7.8711-3.5234-7.8711-7.8711s-3.5234-7.8711-7.8711-7.8711c-4.3477 0-7.8711 3.5234-7.8711 7.8711 0 6.2617 2.4883 12.27 6.9141 16.699 4.4297 4.4297 10.438 6.918 16.699 6.918v7.8711c0 4.3477 3.5273 7.8711 7.875 7.8711s7.8711-3.5234 7.8711-7.8711v-7.8711c8.4375 0 16.234-4.5039 20.453-11.809 4.2188-7.3086 4.2188-16.309 0-23.617-4.2188-7.3086-12.016-11.809-20.453-11.809h-15.746c-4.3477 0-7.8711-3.5234-7.8711-7.8711s3.5234-7.8711 7.8711-7.8711h15.746c2.0859 0 4.0898 0.82812 5.5664 2.3047 1.4766 1.4766 2.3047 3.4766 2.3047 5.5664 0 4.3477 3.5234 7.8711 7.8711 7.8711 4.3477 0 7.875-3.5234 7.875-7.8711 0-6.2656-2.4883-12.27-6.918-16.699-4.4297-4.4297-10.438-6.918-16.699-6.918v-7.8711c0-4.3477-3.5234-7.8711-7.8711-7.8711s-7.875 3.5234-7.875 7.8711z"/>
  <path d="m494.46 266.18h23.617c4.3477 0 7.8711-3.5273 7.8711-7.875 0-4.3477-3.5234-7.8711-7.8711-7.8711h-23.617c-4.3477 0-7.8711 3.5234-7.8711 7.8711 0 4.3477 3.5234 7.875 7.8711 7.875z"/>
  <path d="m281.92 266.18h23.617c4.3477 0 7.8711-3.5273 7.8711-7.875 0-4.3477-3.5234-7.8711-7.8711-7.8711h-23.617c-4.3477 0-7.8711 3.5234-7.8711 7.8711 0 4.3477 3.5234 7.875 7.8711 7.875z"/>
  <path d="m573.18 163.84h-346.37c-4.3477 0-7.8711 3.5273-7.8711 7.875v173.18c0 2.0859 0.82812 4.0898 2.3047 5.5664 1.4766 1.4766 3.4805 2.3047 5.5664 2.3047h165.31v57.938c-13.395-16.73-33.672-26.461-55.102-26.449h-31.488c-4.3477 0-7.8711 3.5234-7.8711 7.8711 0.027344 18.781 7.5 36.785 20.781 50.066s31.285 20.754 50.066 20.785h23.617v15.742h-94.465c-4.3477 0-7.875 3.5234-7.875 7.8711v31.488c0 2.0898 0.83203 4.0898 2.3086 5.5664 1.4727 1.4766 3.4766 2.3047 5.5664 2.3047h8.8945l13.539 94.465h-46.051c-4.3477 0-7.8711 3.5273-7.8711 7.875 0 4.3477 3.5234 7.8711 7.8711 7.8711h251.9c4.3477 0 7.875-3.5234 7.875-7.8711 0-4.3477-3.5273-7.875-7.875-7.875h-46.051l13.539-94.465h8.8984c2.0859 0 4.0898-0.82812 5.5664-2.3047 1.4766-1.4766 2.3047-3.4766 2.3047-5.5664v-31.488c0-2.0859-0.82812-4.0898-2.3047-5.5664-1.4766-1.4766-3.4805-2.3047-5.5664-2.3047h-94.465v-15.742h23.617c18.781-0.03125 36.781-7.5039 50.062-20.785s20.754-31.285 20.785-50.066c0-2.0859-0.83203-4.0898-2.3086-5.5664-1.4727-1.4766-3.4766-2.3047-5.5664-2.3047h-31.484c-21.434-0.011718-41.711 9.7188-55.105 26.449v-57.938h165.31c2.0859 0 4.0898-0.82812 5.5664-2.3047 1.4766-1.4766 2.3047-3.4805 2.3047-5.5664v-173.18c0-2.0898-0.82813-4.0898-2.3047-5.5664-1.4766-1.4766-3.4805-2.3086-5.5664-2.3086zm-204.67 283.39c-11.746-0.019531-23.18-3.7852-32.637-10.754-9.457-6.9648-16.445-16.766-19.949-27.977l58.094 38.73zm-37-47.23h5.5117c11.746 0.019531 23.176 3.7852 32.637 10.75 9.457 6.9648 16.445 16.77 19.949 27.98zm99.977 47.23h-5.5117l58.094-38.73c-3.5 11.211-10.488 21.012-19.949 27.977-9.457 6.9688-20.891 10.734-32.633 10.754zm31.488-47.23h5.5117l-58.094 38.73h-0.003906c3.5039-11.211 10.492-21.016 19.949-27.98 9.457-6.9648 20.891-10.73 32.637-10.75zm-228.29-220.42h38.652-0.003906c-1.6289 9.6562-6.2266 18.57-13.156 25.496-6.9258 6.9258-15.836 11.523-25.492 13.156zm0 157.44v-38.652c9.6562 1.6328 18.566 6.2305 25.492 13.156 6.9297 6.9258 11.527 15.836 13.156 25.496zm229.31 283.39h-128l-13.539-94.465h155.08zm30.461-125.95v15.742l-188.93 0.003906v-15.746zm70.848-157.44-38.648 0.003907c1.6328-9.6602 6.2305-18.57 13.156-25.496 6.9258-6.9258 15.836-11.523 25.496-13.156zm0-54.555 0.003906 0.003906c-13.855 1.7578-26.734 8.0703-36.609 17.945s-16.188 22.754-17.945 36.609h-221.52c-1.7578-13.855-8.0703-26.734-17.945-36.609s-22.754-16.188-36.605-17.945v-48.332c13.852-1.7578 26.73-8.0703 36.605-17.945s16.188-22.754 17.945-36.609h221.52c1.7578 13.855 8.0703 26.734 17.945 36.609s22.754 16.188 36.609 17.945zm0-64.234 0.003906 0.003906c-9.6602-1.6328-18.57-6.2305-25.496-13.156-6.9258-6.9258-11.523-15.84-13.156-25.496h38.652z"/>
  <path d="m634.95 466.67-39.516-62.977c-1.4375-2.2969-3.957-3.6914-6.668-3.6914-2.7148 0.003906-5.2344 1.4102-6.668 3.7148l-39.211 62.977c-1.5078 2.4258-1.582 5.4766-0.19531 7.9766 1.3828 2.4961 4.0156 4.0469 6.8711 4.0508h15.742l0.003906 149.57c0 2.0859 0.82812 4.0898 2.3047 5.5664 1.4766 1.4727 3.4766 2.3047 5.5664 2.3047h31.488c2.0859 0 4.0898-0.83203 5.5664-2.3047 1.4766-1.4766 2.3047-3.4805 2.3047-5.5664v-149.57h15.746c2.8594 0 5.4961-1.5547 6.8828-4.0625 1.3867-2.5039 1.3047-5.5625-0.21875-7.9883zm-30.281-3.6914c-4.3477 0-7.8711 3.5234-7.8711 7.8711v149.57h-15.746v-149.57c0-2.0898-0.82813-4.0898-2.3047-5.5664s-3.4805-2.3047-5.5664-2.3047h-9.4453l25.047-40.25 25.27 40.25z"/>
  <path d="m217.91 403.71c-1.4336-2.3047-3.9531-3.7109-6.668-3.7148-2.707-0.003906-5.2266 1.3906-6.668 3.6836l-39.527 62.977h0.003906c-1.5234 2.4219-1.6094 5.4844-0.22656 7.9922 1.3867 2.5078 4.0234 4.0625 6.8867 4.0664h15.742v149.57c0 2.0859 0.83203 4.0898 2.3047 5.5664 1.4766 1.4727 3.4805 2.3047 5.5664 2.3047h31.488c2.0898 0 4.0898-0.83203 5.5664-2.3047 1.4766-1.4766 2.3086-3.4805 2.3086-5.5664v-149.57h15.742c2.8594 0 5.4922-1.5508 6.8789-4.0469 1.3906-2.5 1.3125-5.5547-0.19531-7.9805zm8.9023 59.262c-4.3477 0-7.8711 3.5234-7.8711 7.8711v149.57h-15.742v-149.57c0-2.0898-0.83203-4.0898-2.3086-5.5664s-3.4766-2.3047-5.5664-2.3047h-9.375l25.254-40.25 25.059 40.25z"/>
 </g>
</svg>