<?xml version="1.0" encoding="UTF-8"?>
<!-- The Best Svg Icon site in the world: iconSvg.co, Visit us! https://iconsvg.co -->
<svg width="800px" height="800px" version="1.1" viewBox="144 144 512 512" xmlns="http://www.w3.org/2000/svg">
 <defs>
  <clipPath id="c">
   <path d="m274 148.09h252v251.91h-252z"/>
  </clipPath>
  <clipPath id="b">
   <path d="m384 368h32v283.9h-32z"/>
  </clipPath>
  <clipPath id="a">
   <path d="m321 620h158v31.902h-158z"/>
  </clipPath>
 </defs>
 <g clip-path="url(#c)">
  <path d="m400 400c-33.406 0-65.441-13.27-89.062-36.891s-36.891-55.66-36.891-89.062c0-33.406 13.27-65.441 36.891-89.062s55.656-36.891 89.062-36.891c33.402 0 65.441 13.27 89.059 36.891 23.621 23.621 36.891 55.656 36.891 89.062-0.035157 33.391-13.32 65.406-36.93 89.02-23.613 23.613-55.629 36.895-89.02 36.934zm0-220.42c-25.055 0-49.082 9.9531-66.797 27.668s-27.668 41.742-27.668 66.797 9.9531 49.082 27.668 66.797 41.742 27.668 66.797 27.668c25.051 0 49.078-9.9531 66.793-27.668 17.719-17.715 27.668-41.742 27.668-66.797-0.027344-25.047-9.9883-49.059-27.695-66.766-17.711-17.711-41.723-27.672-66.766-27.699z"/>
 </g>
 <path d="m407.87 337.02h-39.359c-5.625 0-10.824-3-13.637-7.875-2.8125-4.8711-2.8125-10.871 0-15.742s8.0117-7.8711 13.637-7.8711h39.359c4.3477 0 7.8711-3.5234 7.8711-7.8711 0-4.3477-3.5234-7.875-7.8711-7.875h-15.746c-14.059 0-27.055-7.5-34.086-19.68-7.0312-12.176-7.0312-27.18 0-39.359s20.027-19.68 34.086-19.68h39.363c5.625 0 10.82 3 13.633 7.8711s2.8125 10.875 0 15.746-8.0078 7.8711-13.633 7.8711h-39.363c-4.3477 0-7.8711 3.5234-7.8711 7.8711 0 4.3477 3.5234 7.8711 7.8711 7.8711h15.746c14.062 0 27.055 7.5039 34.086 19.68 7.0312 12.18 7.0312 27.184 0 39.363-7.0312 12.176-20.023 19.68-34.086 19.68z"/>
 <path d="m400 242.56c-4.1758 0-8.1797-1.6602-11.133-4.6133-2.9531-2.9531-4.6133-6.957-4.6133-11.133v-15.742c0-5.625 3-10.824 7.8711-13.637s10.875-2.8125 15.746 0 7.8711 8.0117 7.8711 13.637v15.742c0 4.1758-1.6602 8.1797-4.6094 11.133-2.9531 2.9531-6.957 4.6133-11.133 4.6133z"/>
 <path d="m400 352.77c-4.1758 0-8.1797-1.6562-11.133-4.6094-2.9531-2.9531-4.6133-6.957-4.6133-11.133v-15.746c0-5.625 3-10.82 7.8711-13.633s10.875-2.8125 15.746 0 7.8711 8.0078 7.8711 13.633v15.746c0 4.1758-1.6602 8.1797-4.6094 11.133-2.9531 2.9531-6.957 4.6094-11.133 4.6094z"/>
 <g clip-path="url(#b)">
  <path d="m400 651.9c-4.1758 0-8.1797-1.6562-11.133-4.6094-2.9531-2.9531-4.6133-6.957-4.6133-11.133v-251.91c0-5.625 3-10.82 7.8711-13.633s10.875-2.8125 15.746 0 7.8711 8.0078 7.8711 13.633v251.91c0 4.1758-1.6602 8.1797-4.6094 11.133-2.9531 2.9531-6.957 4.6094-11.133 4.6094z"/>
 </g>
 <path d="m295.93 506.31c-13.988 0.011718-27.789-3.2383-40.305-9.4922-28.75-14.484-47.656-43.137-49.66-75.27-0.17188-2.7695 0.39062-5.5352 1.6328-8.0156 1.2422-2.4805 3.1211-4.5898 5.4375-6.1133 26.902-17.727 61.215-19.762 90.02-5.3398 28.809 14.418 47.742 43.105 49.672 75.266 0.16797 2.7656-0.39453 5.5312-1.6367 8.0117-1.2383 2.4805-3.1133 4.5898-5.4297 6.1172-14.777 9.6875-32.062 14.844-49.73 14.836zm-57.191-77.184c3.8008 17.199 15.203 31.742 30.996 39.543 15.707 7.9805 34.191 8.3906 50.238 1.1172-3.8867-17.164-15.262-31.68-31-39.555-15.734-7.875-34.172-8.2812-50.242-1.1055z"/>
 <path d="m400.02 543.66c-5.4453 0.007813-10.508-2.7969-13.383-7.418-12.527-20.191-31.824-35.27-54.445-42.543-4.0352-1.2305-7.4102-4.0273-9.3672-7.7656-1.9531-3.7422-2.3281-8.1094-1.0312-12.125 1.293-4.0156 4.1445-7.3438 7.9141-9.2383 3.7734-1.8945 8.1445-2.1992 12.141-0.83984 29.703 9.5547 55.047 29.352 71.508 55.859 1.9883 3.1914 2.7695 6.9883 2.2031 10.707-0.57031 3.7148-2.4492 7.1055-5.3008 9.5586-2.8516 2.4492-6.4844 3.8008-10.246 3.8047z"/>
 <path d="m504.06 537.79c-17.668 0.011719-34.949-5.1406-49.723-14.828-2.3203-1.5234-4.1953-3.6328-5.4375-6.1133-1.2422-2.4805-1.8086-5.2461-1.6367-8.0156 1.9258-32.16 20.855-60.852 49.664-75.273 28.805-14.418 63.117-12.383 90.016 5.3477 2.3242 1.5195 4.1992 3.6289 5.4414 6.1133 1.2422 2.4805 1.8047 5.2461 1.6328 8.0156-1.3516 22.938-11.422 44.488-28.145 60.246s-38.836 24.523-61.812 24.508zm26.215-37.641 7.043 14.078-7.043-14.078-0.003907 0.003906c15.785-7.8047 27.18-22.348 30.984-39.539-16.066-7.1758-34.504-6.7695-50.238 1.1055s-27.105 22.391-30.988 39.555c16.055 7.25 34.527 6.8398 50.242-1.1211z"/>
 <path d="m399.98 575.15c-3.7617-0.003906-7.3945-1.3555-10.246-3.8047-2.8516-2.4531-4.7305-5.8438-5.3008-9.5586-0.56641-3.7188 0.21094-7.5156 2.1992-10.707 16.461-26.508 41.805-46.305 71.512-55.859 3.9961-1.3594 8.3672-1.0586 12.137 0.83594 3.7734 1.8984 6.625 5.2266 7.918 9.2422s0.92188 8.3828-1.0352 12.125c-1.9531 3.7383-5.3281 6.5352-9.3672 7.7656-22.617 7.2734-41.914 22.352-54.441 42.543-2.875 4.6172-7.9336 7.4258-13.375 7.418z"/>
 <g clip-path="url(#a)">
  <path d="m462.98 651.9h-125.95c-5.625 0-10.824-3-13.637-7.8711s-2.8125-10.871 0-15.742c2.8125-4.875 8.0117-7.875 13.637-7.875h125.95c5.6211 0 10.82 3 13.633 7.875 2.8125 4.8711 2.8125 10.871 0 15.742s-8.0117 7.8711-13.633 7.8711z"/>
 </g>
</svg>