<?xml version="1.0" encoding="UTF-8"?>
<!-- The Best Svg Icon site in the world: iconSvg.co, Visit us! https://iconsvg.co -->
<svg fill="#000000" width="800px" height="800px" version="1.1" viewBox="144 144 512 512" xmlns="http://www.w3.org/2000/svg">
 <g>
  <path d="m392.12 384.25v7.8711c-8.4375 0-16.23 4.5039-20.449 11.809-4.2188 7.3086-4.2188 16.309 0 23.617 4.2188 7.3086 12.012 11.809 20.449 11.809h15.746c4.3477 0 7.8711 3.5234 7.8711 7.8711 0 4.3477-3.5234 7.8711-7.8711 7.8711h-15.746c-4.3477 0-7.8711-3.5234-7.8711-7.8711 0-4.3477-3.5234-7.8711-7.8711-7.8711-4.3477 0-7.8711 3.5234-7.8711 7.8711 0 6.2617 2.4883 12.27 6.9141 16.699 4.4297 4.4297 10.438 6.918 16.699 6.918v7.8711c0 4.3477 3.5273 7.8711 7.875 7.8711s7.8711-3.5234 7.8711-7.8711v-7.8711c8.4375 0 16.234-4.5039 20.453-11.809 4.2188-7.3086 4.2188-16.309 0-23.617-4.2188-7.3047-12.016-11.809-20.453-11.809h-15.746c-4.3477 0-7.8711-3.5234-7.8711-7.8711 0-4.3477 3.5234-7.8711 7.8711-7.8711h15.746c2.0859 0 4.0898 0.82812 5.5664 2.3047 1.4766 1.4766 2.3047 3.4805 2.3047 5.5664 0 4.3477 3.5234 7.8711 7.8711 7.8711 4.3477 0 7.875-3.5234 7.875-7.8711 0-6.2617-2.4883-12.27-6.918-16.699-4.4297-4.4297-10.438-6.918-16.699-6.918v-7.8711c0-4.3477-3.5234-7.8711-7.8711-7.8711s-7.875 3.5234-7.875 7.8711z"/>
  <path d="m588.93 344.89c-0.015625-6.2578-2.5117-12.254-6.9375-16.68-4.4219-4.4219-10.418-6.918-16.676-6.9375v-62.977c8.4375 0 16.23-4.5 20.449-11.809 4.2188-7.3047 4.2188-16.309 0-23.613-4.2188-7.3086-12.012-11.809-20.449-11.809h-212.55v-8.2656c6.4336-1.3086 11.793-5.7383 14.289-11.809 2.4961-6.0742 1.7969-12.992-1.8633-18.445s-9.7969-8.7188-16.359-8.7148h-70.852c-6.5625-0.003907-12.699 3.2617-16.359 8.7148s-4.3594 12.371-1.8633 18.445c2.4961 6.0703 7.8555 10.5 14.289 11.809v8.2656h-39.359c-8.4375 0-16.234 4.5-20.453 11.809-4.2188 7.3047-4.2188 16.309 0 23.613 4.2188 7.3086 12.016 11.809 20.453 11.809v62.977c-8.4375 0-16.234 4.5039-20.453 11.809-4.2188 7.3086-4.2188 16.309 0 23.617 4.2188 7.3047 12.016 11.809 20.453 11.809v110.21c-8.4375 0-16.234 4.5-20.453 11.809-4.2188 7.3047-4.2188 16.309 0 23.617 4.2188 7.3047 12.016 11.805 20.453 11.805v62.977c-8.4375 0-16.234 4.5039-20.453 11.809-4.2188 7.3086-4.2188 16.309 0 23.617 4.2188 7.3047 12.016 11.809 20.453 11.809h330.62c8.4375 0 16.23-4.5039 20.449-11.809 4.2188-7.3086 4.2188-16.309 0-23.617-4.2188-7.3047-12.012-11.809-20.449-11.809v-62.977c8.4375 0 16.23-4.5 20.449-11.805 4.2188-7.3086 4.2188-16.312 0-23.617-4.2188-7.3086-12.012-11.809-20.449-11.809v-110.21c6.2578-0.019531 12.254-2.5156 16.676-6.9375 4.4258-4.4258 6.9219-10.422 6.9375-16.68zm-310.95-165.31h70.852c2.1719 0 3.9336 1.7617 3.9336 3.9375 0 2.1719-1.7617 3.9336-3.9336 3.9336h-70.852c-2.1719 0-3.9336-1.7617-3.9336-3.9336 0-2.1758 1.7617-3.9375 3.9336-3.9375zm59.043 23.617v7.8711h-47.234v-7.8711zm-110.21 31.488c0-4.3477 3.5273-7.875 7.875-7.875h330.62c4.3477 0 7.8711 3.5273 7.8711 7.875s-3.5234 7.8711-7.8711 7.8711h-330.62c-4.3477 0-7.875-3.5234-7.875-7.8711zm227.27 133.82h95.488v110.21h-68.957c3.9219-10.035 5.9492-20.711 5.9805-31.488 0-20.309-15.27-50.773-32.512-78.719zm16.77 78.719c0 25.312-13.504 48.699-35.426 61.355-21.918 12.656-48.926 12.656-70.848 0s-35.426-36.043-35.426-61.355c0-30.543 46.523-97.297 70.848-128.95 24.328 31.57 70.852 98.402 70.852 128.95zm78.719 78.719v62.977h-299.14v-62.977h113.67c22.781 10.496 49.012 10.496 71.793 0zm-230.18-47.23h-68.961v-110.21h95.488c-17.238 27.945-32.512 58.41-32.512 78.719 0.03125 10.777 2.0586 21.453 5.9844 31.488zm86.75-178.14c-1.5547-1.7656-3.793-2.7734-6.1406-2.7734-2.3516 0-4.5898 1.0078-6.1406 2.7734-0.86719 1.1016-7.1641 8.9727-15.742 20.703h-127.69v-62.977h299.14v62.977h-127.68c-8.582-11.727-14.879-19.602-15.742-20.703zm-179.33 44.32c0-4.3477 3.5273-7.8711 7.875-7.8711h132.09c-3.4648 4.9609-7.0859 10.234-10.707 15.742h-121.38c-4.3477 0-7.875-3.5234-7.875-7.8711zm0 157.44c0-4.3477 3.5273-7.875 7.875-7.875h92.809c3.7969 5.7344 8.2344 11.016 13.227 15.746h-106.04c-4.3477 0-7.875-3.5234-7.875-7.8711zm346.37 110.21c0 2.0898-0.82812 4.0898-2.3047 5.5664-1.4766 1.4766-3.4805 2.3047-5.5664 2.3047h-330.62c-4.3477 0-7.875-3.5234-7.875-7.8711 0-4.3477 3.5273-7.8711 7.875-7.8711h330.62c2.0859 0 4.0898 0.82812 5.5664 2.3047 1.4766 1.4766 2.3047 3.4805 2.3047 5.5664zm0-110.21c0 2.0859-0.82812 4.0898-2.3047 5.5664-1.4766 1.4766-3.4805 2.3047-5.5664 2.3047h-106.04c4.9922-4.7305 9.4297-10.012 13.227-15.746h92.812c2.0859 0 4.0898 0.83203 5.5664 2.3086 1.4766 1.4766 2.3047 3.4766 2.3047 5.5664zm-129.26-149.57c-3.6211-5.5117-7.2422-10.785-10.707-15.742h132.09c4.3477 0 7.8711 3.5234 7.8711 7.8711 0 4.3477-3.5234 7.8711-7.8711 7.8711z"/>
 </g>
</svg>