<?xml version="1.0" encoding="UTF-8"?>
<!-- The Best Svg Icon site in the world: iconSvg.co, Visit us! https://iconsvg.co -->
<svg width="800px" height="800px" version="1.1" viewBox="144 144 512 512" xmlns="http://www.w3.org/2000/svg">
 <defs>
  <clipPath id="a">
   <path d="m148.09 148.09h503.81v503.81h-503.81z"/>
  </clipPath>
 </defs>
 <g clip-path="url(#a)">
  <path d="m407.87 289.79h-15.746c-4.1758 0-8.1797-1.6562-11.133-4.6094-2.9492-2.9531-4.6094-6.957-4.6094-11.133 0-4.3477-3.5234-7.8711-7.8711-7.8711-4.3477 0-7.875 3.5234-7.875 7.8711 0 8.3516 3.3203 16.359 9.2227 22.266 5.9062 5.9023 13.914 9.2227 22.266 9.2227v7.8711c0 4.3477 3.5273 7.8711 7.875 7.8711s7.8711-3.5234 7.8711-7.8711v-7.8711c11.25 0 21.645-6.0039 27.27-15.746 5.625-9.7422 5.625-21.746 0-31.488-5.625-9.7422-16.02-15.742-27.27-15.742h-15.746c-5.625 0-10.82-3-13.633-7.8711s-2.8125-10.875 0-15.746 8.0078-7.8711 13.633-7.8711h15.746c4.1758 0 8.1797 1.6602 11.133 4.6094 2.9531 2.9531 4.6094 6.957 4.6094 11.133 0 4.3477 3.5273 7.875 7.875 7.875 4.3477 0 7.8711-3.5273 7.8711-7.875 0-8.3516-3.3164-16.359-9.2227-22.266-5.9062-5.9023-13.914-9.2227-22.266-9.2227v-7.8711c0-4.3477-3.5234-7.8711-7.8711-7.8711s-7.875 3.5234-7.875 7.8711v7.8711c-11.25 0-21.645 6.0039-27.27 15.746-5.625 9.7422-5.625 21.746 0 31.488 5.625 9.7422 16.02 15.742 27.27 15.742h15.746c5.625 0 10.82 3.0039 13.633 7.875 2.8125 4.8711 2.8125 10.871 0 15.742-2.8125 4.8711-8.0078 7.8711-13.633 7.8711zm-41.941 57.023v0.003906c1.9922 0.77344 4.2109 0.70312 6.1523-0.19531 1.9375-0.89453 3.4297-2.543 4.1289-4.5625 0.70312-2.0156 0.55469-4.2344-0.41016-6.1406-0.96875-1.9062-2.668-3.3359-4.707-3.9648-25.879-9.1641-45.879-30.055-53.902-56.309-8.0273-26.254-3.1289-54.758 13.199-76.824 16.328-22.066 42.156-35.086 69.609-35.086 27.449 0 53.277 13.02 69.605 35.086 16.328 22.066 21.227 50.57 13.203 76.824-8.0273 26.254-28.027 47.145-53.902 56.309-2.043 0.62891-3.7422 2.0586-4.707 3.9648-0.96484 1.9062-1.1172 4.125-0.41406 6.1406 0.69922 2.0195 2.1914 3.668 4.1328 4.5625 1.9375 0.89844 4.1602 0.96875 6.1523 0.19531 30.602-10.805 54.266-35.488 63.773-66.52s3.7344-64.73-15.562-90.828c-19.297-26.094-49.828-41.488-82.281-41.488-32.457 0-62.988 15.395-82.285 41.488-19.297 26.098-25.07 59.797-15.562 90.828 9.5078 31.031 33.172 55.715 63.777 66.52zm-2.9766 39.738v0.003907c-3.0742 3.0742-3.0742 8.0547 0 11.129l31.488 31.488c1.4766 1.4805 3.4805 2.3125 5.5742 2.3125 2.0898 0 4.0938-0.83203 5.5703-2.3125l31.488-31.488c2.9844-3.0898 2.9414-8-0.09375-11.035-3.0391-3.0352-7.9453-3.0781-11.035-0.09375l-18.074 18.059v-59.719c0-4.3477-3.5234-7.8711-7.8711-7.8711s-7.875 3.5234-7.875 7.8711v59.719l-18.043-18.043c-1.4727-1.4844-3.4766-2.3203-5.5664-2.3203-2.0938-0.003906-4.1016 0.82422-5.5781 2.3047zm288.71 255.57-9.7773-39.125v0.003906c-2.1289-8.5195-7.043-16.082-13.965-21.484-6.9219-5.4062-15.449-8.3398-24.23-8.3359h-32.242l-8.2812-33.156h-0.003906c-2.125-8.5195-7.043-16.082-13.965-21.484-6.918-5.4023-15.449-8.3398-24.227-8.3359h-47.988l-8.2812-33.156c-2.1289-8.5195-7.0469-16.082-13.965-21.484-6.9219-5.4023-15.453-8.3359-24.23-8.3359h-61.023c-8.7812 0-17.305 2.9375-24.223 8.3398-6.918 5.4023-11.832 12.965-13.957 21.48l-8.2969 33.156h-47.988c-8.7773 0-17.305 2.9375-24.223 8.3398s-11.832 12.965-13.957 21.48l-8.2969 33.156h-32.246c-8.7773-0.003906-17.309 2.9297-24.23 8.3359-6.918 5.4023-11.836 12.965-13.965 21.484l-9.7773 39.121c-0.58594 2.3516-0.054687 4.8438 1.4375 6.75 1.4883 1.9102 3.7773 3.0273 6.1992 3.0273h141.7c2.4219 0 4.707-1.1172 6.1992-3.0273 1.4922-1.9062 2.0195-4.3984 1.4336-6.75l-9.7773-39.125v0.003906c-1.3047-5.1055-3.6289-9.8945-6.832-14.078h49.438c-3.2031 4.1836-5.5273 8.9727-6.832 14.078l-9.7773 39.125v-0.003906c-0.58594 2.3516-0.058594 4.8438 1.4336 6.75 1.4922 1.9102 3.7773 3.0273 6.1992 3.0273h141.7c2.4219 0 4.7109-1.1172 6.1992-3.0273 1.4922-1.9062 2.0234-4.3984 1.4375-6.75l-9.7773-39.125v0.003906c-1.3086-5.1055-3.6328-9.8945-6.8359-14.078h49.438c-3.2031 4.1836-5.5273 8.9727-6.832 14.078l-9.7773 39.125v-0.003906c-0.58594 2.3516-0.058594 4.8438 1.4336 6.75 1.4922 1.9102 3.7773 3.0273 6.2031 3.0273h141.7c2.4219 0 4.7109-1.1172 6.2031-3.0273 1.4883-1.9062 2.0195-4.3984 1.4336-6.75zm-305.11-161.27c1.2773-5.1094 4.2305-9.6484 8.3828-12.887 4.1562-3.2422 9.2734-5 14.543-4.9961h61.039c5.2656-0.003906 10.387 1.7539 14.539 4.9961 4.1523 3.2383 7.1055 7.7773 8.3828 12.887l7.3203 29.348h-121.54zm86.027 45.09c-3.2031 4.1836-5.5273 8.9727-6.8359 14.078l-8.2812 33.156h-34.949l-8.2812-33.156c-1.3086-5.1055-3.6328-9.8945-6.832-14.078zm-266.55 110.21 7.3359-29.348c1.2773-5.1094 4.2305-9.6484 8.3828-12.891 4.1523-3.2383 9.2734-4.9961 14.539-4.9961h61.023c5.2695 0 10.387 1.7578 14.543 4.9961 4.1523 3.2422 7.1055 7.7812 8.3828 12.891l7.3359 29.348zm91.316-62.977h-12.594l7.3359-29.348h-0.003906c1.2812-5.1094 4.2305-9.6484 8.3828-12.887 4.1562-3.2422 9.2734-5 14.543-5h61.039c5.2695 0 10.387 1.7578 14.539 5 4.1562 3.2383 7.1055 7.7773 8.3828 12.887l7.3203 29.348zm81.867 62.977 7.3359-29.348c1.2773-5.1094 4.2305-9.6484 8.3828-12.891 4.1562-3.2383 9.2734-4.9961 14.543-4.9961h61.039c5.2656 0 10.387 1.7578 14.539 4.9961 4.1523 3.2422 7.1055 7.7812 8.3828 12.891l7.3203 29.348zm94.465-62.977 7.3359-29.348c1.2773-5.1094 4.2305-9.6484 8.3828-12.887 4.1523-3.2422 9.2734-5 14.539-5h61.043c5.2656 0 10.387 1.7578 14.539 5 4.1523 3.2383 7.1055 7.7773 8.3828 12.887l7.3203 29.348zm78.719 62.977 7.3359-29.348c1.2812-5.1094 4.2305-9.6484 8.3828-12.891 4.1562-3.2383 9.2734-4.9961 14.543-4.9961h61.039c5.2695 0 10.387 1.7578 14.539 4.9961 4.1562 3.2422 7.1055 7.7812 8.3828 12.891l7.3203 29.348z"/>
 </g>
</svg>