<?xml version="1.0" encoding="UTF-8"?>
<!-- The Best Svg Icon site in the world: iconSvg.co, Visit us! https://iconsvg.co -->
<svg fill="#000000" width="800px" height="800px" version="1.1" viewBox="144 144 512 512" xmlns="http://www.w3.org/2000/svg">
 <g>
  <path d="m423.93 273.07c0-3.0508 0.33203-5.9102 0.58594-8.8633h-249.86v352.1c0 0.089843 0.6875 0.16797 0.95703-0.058594l41.914-34.875c4.5898-3.7812 11.191-3.8516 15.863-0.17969l50.043 40.395c0.31641 0.20703 0.73438 0.18359 1.0234-0.058594l49.34-40.262v0.003906c4.6094-3.7109 11.176-3.7344 15.809-0.058593l49.473 40.371 0.003907 0.003907c0.30859 0.20703 0.72266 0.1875 1.0078-0.054688l49.883-40.281c4.6289-3.7031 11.215-3.6758 15.812 0.066406l41.789 34.938c0.26953 0.22266 0.66016 0.14844 0.66016 0.058594v-239.3c-23.848-5.0195-45.238-18.09-60.59-37.02-15.352-18.926-23.727-42.555-23.719-66.926zm-177.77 58.047h98.098c3.2617 0 5.9023 2.6445 5.9023 5.9062 0 3.2578-2.6406 5.9023-5.9023 5.9023h-98.098c-3.2617 0-5.9023-2.6445-5.9023-5.9023 0-3.2617 2.6406-5.9062 5.9023-5.9062zm191.17 141.7h-191.17c-3.2617 0-5.9023-2.6445-5.9023-5.9062 0-3.2617 2.6406-5.9023 5.9023-5.9023h191.17c3.2617 0 5.9062 2.6406 5.9062 5.9023 0 3.2617-2.6445 5.9062-5.9062 5.9062zm0-64.945h-191.17c-3.2617 0-5.9023-2.6445-5.9023-5.9062 0-3.2578 2.6406-5.9023 5.9023-5.9023h191.17c3.2617 0 5.9062 2.6445 5.9062 5.9023 0 3.2617-2.6445 5.9062-5.9062 5.9062z"/>
  <path d="m530.54 178.28c-25.09 0-49.152 9.9688-66.895 27.707-17.742 17.742-27.707 41.805-27.707 66.895s9.9688 49.152 27.707 66.895c17.742 17.742 41.805 27.707 66.895 27.707s49.152-9.9648 66.895-27.707c17.742-17.742 27.707-41.805 27.707-66.895-0.027344-25.082-10.004-49.129-27.738-66.863-17.734-17.734-41.781-27.711-66.863-27.738zm0 92.027c11.129 0 21.457 5.8008 27.254 15.301 5.793 9.5039 6.2227 21.34 1.1289 31.238s-14.977 16.426-26.078 17.23v9.8398c0 3.2617-2.6445 5.9062-5.9062 5.9062-3.2578 0-5.9023-2.6445-5.9023-5.9062v-11.191c-6.4961-2.0352-12.172-6.0859-16.207-11.57-4.0352-5.4844-6.2148-12.109-6.2227-18.918 0-3.2617 2.6445-5.9023 5.9062-5.9023 3.2578 0 5.9023 2.6406 5.9023 5.9023 0 5.3398 2.1172 10.457 5.8906 14.234 3.7734 3.7734 8.8945 5.8945 14.23 5.8945 5.3398 0.003907 10.457-2.1172 14.234-5.8906 3.7734-3.7734 5.8945-8.8945 5.8945-14.23 0-5.3398-2.1211-10.457-5.8945-14.234-3.7734-3.7734-8.8945-5.8945-14.23-5.8945-10.746 0.003907-20.77-5.3984-26.68-14.375-5.9062-8.9727-6.9023-20.32-2.6484-30.188 4.25-9.8672 13.18-16.934 23.762-18.805v-7.6758c0-3.2617 2.6406-5.9062 5.9023-5.9062 3.2617 0 5.9023 2.6445 5.9023 5.9062v7.793c7.2422 1.4492 13.754 5.3633 18.438 11.07 4.6836 5.707 7.2461 12.859 7.2578 20.246 0 3.2578-2.6445 5.9023-5.9062 5.9023s-5.9023-2.6445-5.9023-5.9023c-0.003906-5.3398-2.125-10.457-5.8984-14.23-3.7734-3.7734-8.8945-5.8945-14.23-5.8906-5.3359 0-10.453 2.1211-14.23 5.8945-3.7734 3.7734-5.8906 8.8945-5.8906 14.23 0 5.3359 2.1211 10.457 5.8945 14.23 3.7734 3.7734 8.8906 5.8945 14.23 5.8945z"/>
 </g>
</svg>