<?xml version="1.0" encoding="UTF-8"?>
<!-- The Best Svg Icon site in the world: iconSvg.co, Visit us! https://iconsvg.co -->
<svg fill="#000000" width="800px" height="800px" version="1.1" viewBox="144 144 512 512" xmlns="http://www.w3.org/2000/svg">
 <g>
  <path d="m274.05 400h-33.145c-7.3242 0-13.258 5.9336-13.258 13.258 0 7.3203 5.9336 13.258 13.258 13.258h13.258c0 7.3203 5.9336 13.258 13.258 13.258 7.3203 0 13.258-5.9375 13.258-13.258 11.84-1.1836 22.152-8.5977 27.047-19.445 4.8945-10.848 3.6328-23.48-3.3164-33.145-6.9453-9.6641-18.52-14.887-30.359-13.703h-13.258c-3.6641 0-6.6289-2.9648-6.6289-6.6289 0-3.6602 2.9648-6.6289 6.6289-6.6289h33.145c7.3203 0 13.258-5.9336 13.258-13.258 0-7.3203-5.9375-13.258-13.258-13.258h-13.258c0-7.3203-5.9375-13.258-13.258-13.258-7.3242 0-13.258 5.9375-13.258 13.258v0.66406c-10.84 2.1992-19.863 9.6602-24.066 19.891-4.1992 10.227-3.0234 21.879 3.1367 31.062 6.1641 9.1797 16.5 14.684 27.559 14.676h13.258c3.6602 0 6.6289 2.9648 6.6289 6.6289 0 3.6602-2.9688 6.6289-6.6289 6.6289z"/>
  <path d="m426.52 161.35c-37.441 0.003907-74.211 9.918-106.58 28.734-32.367 18.816-59.18 45.863-77.711 78.391-0.58984 0.65625-1.043 1.4219-1.3242 2.2539-24.949 6.5391-46.66 21.945-61.07 43.336-14.41 21.391-20.535 47.297-17.227 72.875 3.3086 25.578 15.828 49.074 35.207 66.09-9.9336 0.75781-19.223 5.2148-26.027 12.492-6.8047 7.2773-10.629 16.84-10.719 26.805-0.09375 9.9609 3.5586 19.594 10.23 26.992-6.5234 7.293-10.129 16.734-10.129 26.52 0 9.7812 3.6055 19.223 10.129 26.516-6.457 7.3203-9.9961 16.758-9.9453 26.516 0 10.547 4.1914 20.664 11.648 28.125 7.4609 7.457 17.578 11.648 28.125 11.648h132.58c10.551 0 20.668-4.1914 28.125-11.648 7.4609-7.4609 11.648-17.578 11.648-28.125-0.039063-7.8203-2.3438-15.465-6.6289-22.008 19.363 5.7656 39.457 8.7148 59.664 8.75 56.258 0 110.21-22.352 150-62.133 39.785-39.781 62.133-93.738 62.133-150 0-56.258-22.348-110.21-62.133-150-39.781-39.781-93.738-62.133-150-62.133zm185.61 198.87h-172.36v-171.69c44.586 3.0742 86.566 22.133 118.23 53.672 31.664 31.543 50.883 73.449 54.129 118.02zm-424.26 13.258c0-21.098 8.3828-41.328 23.301-56.246 14.918-14.922 35.152-23.301 56.25-23.301 21.098 0 41.332 8.3789 56.25 23.301 14.918 14.918 23.297 35.148 23.297 56.246 0 21.098-8.3789 41.332-23.297 56.25s-35.152 23.301-56.25 23.301c-21.098 0-41.332-8.3828-56.25-23.301s-23.301-35.152-23.301-56.25zm13.258 106.07h132.58c7.3242 0 13.258 5.9375 13.258 13.258 0 7.3242-5.9336 13.258-13.258 13.258h-132.58c-7.3203 0-13.258-5.9336-13.258-13.258 0-7.3203 5.9375-13.258 13.258-13.258zm-13.258 66.293c0-7.3242 5.9375-13.262 13.258-13.262h132.58c7.3242 0 13.258 5.9375 13.258 13.262 0 7.3203-5.9336 13.258-13.258 13.258h-132.58c-7.3203 0-13.258-5.9375-13.258-13.258zm145.84 66.289h-132.58c-7.3203 0-13.258-5.9375-13.258-13.258 0-7.3242 5.9375-13.258 13.258-13.258h132.58c7.3242 0 13.258 5.9336 13.258 13.258 0 7.3203-5.9336 13.258-13.258 13.258zm92.809-53.031c-17.969-0.09375-35.828-2.7734-53.035-7.957 0.13281-1.7656 0.13281-3.5391 0-5.3008-0.058594-9.8125-3.7383-19.258-10.34-26.52 6.6719-7.3984 10.32-17.031 10.23-26.992-0.089844-9.9648-3.918-19.527-10.723-26.805-6.8047-7.2773-16.09-11.734-26.023-12.492 21.141-18.512 34.07-44.652 35.957-72.688 1.8828-28.035-7.4336-55.676-25.91-76.848-18.473-21.172-44.594-34.148-72.625-36.078 15.781-22.824 36.48-41.816 60.57-55.582 24.094-13.766 50.965-21.957 78.641-23.969v185.61c0 3.5195 1.3945 6.8906 3.8828 9.375 2.4844 2.4883 5.8594 3.8867 9.375 3.8867h185.61c-3.3594 46.895-24.387 90.766-58.84 122.76-34.449 31.992-79.758 49.715-126.77 49.598z"/>
 </g>
</svg>