<?xml version="1.0" encoding="UTF-8"?>
<!-- The Best Svg Icon site in the world: iconSvg.co, Visit us! https://iconsvg.co -->
<svg fill="#000000" width="800px" height="800px" version="1.1" viewBox="144 144 512 512" xmlns="http://www.w3.org/2000/svg">
 <g>
  <path d="m538.23 233.93h6.0703c4.6055-0.007813 9.0195-1.8398 12.277-5.0938 3.2539-3.2578 5.0859-7.6719 5.0938-12.273v-23.551c-0.007813-4.6016-1.8398-9.0156-5.0938-12.273-3.2578-3.2539-7.6719-5.0859-12.277-5.0938h-288.61c-4.6055 0.007813-9.0195 1.8398-12.277 5.0938-3.2539 3.2578-5.0859 7.6719-5.0898 12.273v23.551c0.003906 4.6016 1.8359 9.0156 5.0898 12.273 3.2578 3.2539 7.6719 5.0859 12.277 5.0938h6.0703c2.4492 21.648 17.102 113.97 91.422 166.07-74.32 52.152-88.98 144.43-91.422 166.07h-6.0703c-4.6055 0.003907-9.0234 1.8359-12.281 5.0938-3.2539 3.2578-5.0859 7.6758-5.0859 12.281v23.547c0.007813 4.6055 1.8398 9.0156 5.0938 12.27 3.2578 3.2539 7.668 5.0859 12.273 5.0898h288.61-0.003907c4.6055-0.003906 9.0195-1.8359 12.277-5.0938 3.2539-3.2539 5.0859-7.668 5.0938-12.273v-23.539c-0.003906-4.6055-1.8359-9.0234-5.0898-12.281-3.2578-3.2578-7.6719-5.0898-12.281-5.0938h-6.0703c-2.4414-21.641-17.102-113.92-91.422-166.07 74.32-52.105 88.98-144.43 91.422-166.07zm-88.047 134.77c-9.6406 0-18.883-3.832-25.699-10.648-6.8125-6.8125-10.641-16.059-10.641-25.695 0-9.6406 3.832-18.883 10.648-25.695 6.8164-6.8164 16.059-10.645 25.695-10.641 9.6406 0 18.883 3.832 25.695 10.648 6.8164 6.8164 10.641 16.062 10.641 25.699-0.023438 9.6328-3.8594 18.859-10.668 25.672-6.8125 6.8086-16.043 10.641-25.672 10.66zm-202.18-152.14v-23.551c0-4.25 3.4414-7.6992 7.6953-7.7031h288.61-0.003907c4.2539 0.003906 7.6953 3.4531 7.6953 7.7031v23.551c-0.003906 4.2461-3.4453 7.6875-7.6953 7.6914h-10.477c-0.078125-0.003906-0.15234-0.003906-0.22656 0h-267.22c-0.070312-0.003906-0.14062-0.003906-0.21484 0h-10.469c-4.25-0.003906-7.6914-3.4453-7.6953-7.6914zm304 366.88v23.547c-0.003906 4.25-3.4453 7.6914-7.6953 7.6953h-288.61c-4.25-0.003906-7.6914-3.4453-7.6953-7.6953v-23.547c0-4.25 3.4414-7.6992 7.6953-7.7031h288.61-0.003907c4.2539 0.003906 7.6953 3.4531 7.6953 7.7031zm-23.547-17.379-119.23 0.003906c16.426-10.039 27.633-26.77 30.66-45.781 3.0273-19.012-2.4258-38.395-14.922-53.035-12.496-14.645-30.781-23.078-50.031-23.078s-37.535 8.4336-50.031 23.078c-12.496 14.641-17.949 34.023-14.922 53.035 3.0273 19.012 14.234 35.742 30.66 45.781h-69.086c2.9531-22.742 19.098-114.51 92.91-162.01 0.24219-0.15625 0.46875-0.33984 0.67969-0.54297l0.11719-0.12891v0.003906c0.16797-0.16406 0.32031-0.33984 0.45312-0.53125l0.11719-0.15625v-0.058593c0.058593-0.089844 0.089843-0.17578 0.13672-0.26563v-0.003906c0.10156-0.16797 0.19141-0.34766 0.26562-0.53125 0.058594-0.13672 0.10156-0.27734 0.14063-0.42188 0.050781-0.15625 0.09375-0.3125 0.125-0.47266 0-0.14844 0-0.30469 0.058593-0.46094 0.058594-0.15625 0-0.30469 0-0.46094v-0.46094c0-0.15625 0-0.30469-0.058593-0.46094v-0.007813c-0.03125-0.16016-0.074219-0.31641-0.125-0.47266-0.039063-0.14062-0.085938-0.28516-0.14063-0.42188-0.074218-0.18359-0.16406-0.35938-0.26562-0.53125-0.050782-0.089843-0.078126-0.17578-0.13672-0.26562-0.11328-0.16406-0.23828-0.31641-0.375-0.46094-0.074219-0.10547-0.15625-0.20312-0.24609-0.29688-0.09375-0.09375-0.19531-0.17969-0.30469-0.25391-0.14453-0.13281-0.29297-0.25391-0.45313-0.36719-73.801-47.496-89.977-139.27-92.91-162.01l256.91 0.003906c-1.8398 14.309-8.9336 55.961-32.336 96.719h0.003907c-0.48828-12.609-6.1367-24.461-15.621-32.781-9.4844-8.3164-21.973-12.371-34.535-11.207-12.562 1.1641-24.098 7.4414-31.891 17.359-7.7969 9.9219-11.172 22.609-9.3359 35.09 1.8359 12.484 8.7266 23.66 19.051 30.914 10.324 7.25 23.176 9.9375 35.539 7.4336-7.3711 6.8398-15.332 13.023-23.785 18.477-0.14453 0.10156-0.28906 0.21094-0.42187 0.32812-0.10938 0.097656-0.23438 0.1875-0.33594 0.28516-0.078125 0.085938-0.15625 0.17578-0.22266 0.27344-0.14453 0.15234-0.27344 0.3125-0.39453 0.48438-0.058593 0.089844-0.089843 0.17578-0.13672 0.26562h-0.003906c-0.097657 0.16797-0.1875 0.34766-0.26563 0.53125-0.054687 0.13672-0.097656 0.27734-0.13672 0.42188-0.050782 0.15234-0.09375 0.3125-0.12891 0.47266 0 0.15625 0 0.30469-0.058594 0.46094s0 0.30469 0 0.46094v0.46094c0 0.15625 0 0.31641 0.058594 0.46094v0.003906c0.035156 0.16016 0.078124 0.32031 0.12891 0.47266 0.035156 0.14453 0.082031 0.28516 0.13672 0.42578 0.078126 0.18359 0.16406 0.35938 0.26563 0.53125 0.050781 0.089844 0.078124 0.17578 0.13672 0.26562v0.058593l0.11719 0.15625h0.003906c0.13281 0.19141 0.28516 0.37109 0.45312 0.53125l0.11719 0.12891c0.20703 0.20312 0.4375 0.38281 0.67969 0.53906 73.82 47.508 89.988 139.28 92.918 162.02zm-153.5 0v0.003906c-14.875 0-29.141-5.9102-39.66-16.43-10.52-10.52-16.426-24.785-16.426-39.66s5.9062-29.141 16.426-39.66c10.52-10.52 24.785-16.43 39.66-16.43s29.141 5.9102 39.66 16.43c10.52 10.52 16.43 24.785 16.43 39.66-0.019531 14.875-5.9375 29.133-16.457 39.648s-24.777 16.426-39.652 16.441z"/>
  <path d="m374.93 500.95c-4.4375 0-8.4375-2.6758-10.137-6.7773-1.6992-4.1016-0.75781-8.8203 2.3828-11.957 3.1406-3.1367 7.8594-4.0742 11.961-2.3711 4.0977 1.6992 6.7695 5.7031 6.7656 10.141 0.11719 2.5859 2.2461 4.625 4.8359 4.625s4.7188-2.0391 4.8359-4.625c-0.003906-4.6289-1.5664-9.125-4.4297-12.766-2.8672-3.6367-6.8711-6.207-11.375-7.2969v-4.3906c0-2.6719-2.1641-4.8398-4.8398-4.8398-2.6719 0-4.8398 2.168-4.8398 4.8398v4.3906c-6.5586 1.6406-11.898 6.3906-14.301 12.711-2.3984 6.3203-1.5547 13.414 2.2617 18.996 3.8164 5.582 10.117 8.9414 16.879 9 4.0195 0 7.875 1.5977 10.715 4.4414 2.8438 2.8398 4.4414 6.6953 4.4375 10.715 0 4.0195-1.5977 7.875-4.4414 10.719-2.8438 2.8398-6.6992 4.4336-10.719 4.4336-4.0195-0.003906-7.8711-1.6016-10.715-4.4453-2.8398-2.8438-4.4336-6.6992-4.4297-10.719-0.11719-2.5859-2.25-4.6211-4.8359-4.6211-2.5898 0-4.7227 2.0352-4.8359 4.6211 0.003907 5.7422 2 11.309 5.6406 15.746 3.6445 4.4414 8.7109 7.4805 14.344 8.6094v4.2891c0 2.6758 2.168 4.8398 4.8398 4.8398 2.6758 0 4.8398-2.1641 4.8398-4.8398v-4.2891c8.1719-1.582 15.004-7.1523 18.203-14.832 3.1992-7.6836 2.3359-16.457-2.2969-23.367-4.6367-6.9141-12.426-11.043-20.746-11.004z"/>
  <path d="m349.06 241.57c-9.4453-0.003907-18.5 3.7461-25.18 10.422-6.6797 6.6758-10.43 15.73-10.434 25.172 0 9.4414 3.75 18.5 10.426 25.176 6.6758 6.6797 15.73 10.434 25.172 10.434 9.4414 0 18.5-3.75 25.176-10.426 6.6797-6.6797 10.43-15.734 10.43-25.176-0.011719-9.4375-3.7617-18.484-10.438-25.16-6.6719-6.6719-15.719-10.43-25.152-10.441zm0 61.52c-6.8789 0.003906-13.477-2.7266-18.34-7.5898-4.8672-4.8633-7.5977-11.457-7.6016-18.336 0-6.8789 2.7305-13.473 7.5938-18.336 4.8633-4.8633 11.461-7.5977 18.34-7.5938 6.8789 0 13.473 2.7344 18.336 7.5977 4.8594 4.8633 7.5898 11.461 7.5898 18.34 0 6.875-2.7305 13.473-7.5898 18.336-4.8594 4.8672-11.453 7.6055-18.328 7.6133z"/>
 </g>
</svg>