<?xml version="1.0" encoding="UTF-8"?>
<!-- The Best Svg Icon site in the world: iconSvg.co, Visit us! https://iconsvg.co -->
<svg fill="#000000" width="800px" height="800px" version="1.1" viewBox="144 144 512 512" xmlns="http://www.w3.org/2000/svg">
 <g>
  <path d="m465.65 490.29c1.4336-1.4453 2.2539-3.3906 2.2812-5.4297v-55.969c0-2.0898-0.82812-4.0938-2.3047-5.5664-1.4766-1.4766-3.4805-2.3086-5.5664-2.3086h-76.832v-21.648c0.085937-3.9648-1.4258-7.7969-4.1953-10.641-2.7656-2.8398-6.5586-4.4531-10.523-4.4727h-110.21c-3.9219 0-7.6875 1.5586-10.465 4.3359-2.7734 2.7734-4.332 6.5391-4.332 10.465v22.199h-77.227c-4.3477 0-7.8711 3.5234-7.8711 7.8711v55.969c0.007812 2.0273 0.79688 3.9727 2.2031 5.4336 5.1172 5.0703 10.734 9.6094 16.77 13.539v120.91c0 3.9258 1.5586 7.6914 4.332 10.465 2.7773 2.7773 6.543 4.3359 10.465 4.3359h241.99c3.9258 0 7.6875-1.5586 10.465-4.3359 2.7734-2.7734 4.332-6.5391 4.332-10.465v-121.23c5.9805-3.9414 11.57-8.4492 16.691-13.461zm-42.586-53.688-0.003906 18.5-5.4336 4.8008-5.2695-4.8008v-18.5zm-164.77-36.602h109.58v21.254h-109.58zm-44.16 36.602v18.5l-5.3516 4.8008-5.5898-4.8008v-18.5zm-40.148 0h14.09v22.121c0.03125 2.1562 0.94141 4.2031 2.5195 5.668l12.598 11.809c1.4219 1.293 3.2695 2.0234 5.1953 2.0469 1.9219-0.023438 3.7695-0.75391 5.1953-2.0469l13.223-11.73c1.6016-1.4805 2.5117-3.5625 2.5195-5.7461v-22.121h167.68v22.121c0.007813 2.1445 0.89063 4.1914 2.4414 5.668l12.988 11.809c1.4219 1.293 3.2695 2.0234 5.1953 2.0469 1.8945-0.042969 3.7109-0.76953 5.1172-2.0469l13.145-11.73c1.6016-1.4805 2.5117-3.5625 2.5195-5.7461v-22.121h14.09v45.027c0 1.6523-7.8711 6.2969-8.8945 7.2422v0.003906c-24.105 16.133-51.609 26.48-80.375 30.227-8.4961 1.4531-17.062 2.4805-25.66 3.0703v-7.8711c0-2.0898-0.83203-4.0898-2.3047-5.5664-1.4766-1.4766-3.4805-2.3047-5.5664-2.3047h-33.062c-4.3477 0-7.875 3.5234-7.875 7.8711v7.8711h-3.7773c-27.367-2.0078-54.184-8.7188-79.27-19.836-11.484-5.1328-22.105-12.012-31.488-20.391zm130.28 93.914v-8.5h17.949v17.871l-17.949-0.003907zm129.26 93.914h-240.57v-111.47h0.70703c21.82 10.555 45.129 17.695 69.117 21.176 8.6602 1.418 17.398 2.5195 26.137 3.1484v9.9219c0 2.0859 0.82812 4.0898 2.3047 5.5664 1.4766 1.4727 3.4766 2.3047 5.5664 2.3047h33.219c2.0898 0 4.0898-0.83203 5.5664-2.3047 1.4766-1.4766 2.3047-3.4805 2.3047-5.5664v-9.5273s39.359-5.4336 42.746-6.2188c14.066-3.0234 27.824-7.3438 41.094-12.91 2.9141-1.2578 5.7461-2.5195 8.5-3.8555l3.0703-1.418h0.55078z"/>
  <path d="m640.02 299c1.4297-2.1055 1.7539-4.7773 0.86719-7.1641v-0.39453l-29.285-71.711 7.8711-8.3438c4.2422-4.4727 6.5664-10.426 6.4805-16.59-0.089844-6.1641-2.582-12.047-6.9492-16.395-4.4727-4.2422-10.426-6.5664-16.59-6.4766-6.1641 0.085938-12.047 2.582-16.395 6.9492l-8.1875 8.5781-71.715-26.922h-1.3398c-4.0469-0.59766-7.8789 2-8.8164 5.9844-0.035156 0.46875-0.035156 0.94531 0 1.4141v15.273c0 5.1172-1.2578 12.91 4.0156 16.926 2.5312 1.5586 5.1602 2.9531 7.8711 4.1719 9.2891 5.0391 18.344 10.707 27.473 15.742l6.3789 4.4102-17.238 17.633-22.199-7.8711c-1.8945-0.76562-4.0117-0.76562-5.9062 0-1.8516 0.91797-3.2617 2.5312-3.9336 4.4844l-5.8281 17.555c-1.0938 3.3438 0.15625 7.0039 3.0703 8.9766l28.418 18.105 18.812 27.551h0.003906c1.4492 2.0938 3.8281 3.3555 6.375 3.3867 0.91406-0.003907 1.8164-0.16406 2.6758-0.47266l17.082-6.375v-0.003906c1.9258-0.74219 3.4805-2.2109 4.332-4.0938 0.76562-1.8906 0.76562-4.0078 0-5.9023l-8.9766-23.379 17.082-17.555 23.617 37.629c2.3633 3.7773 4.5664 8.7383 9.7617 8.8164l25.113-0.86719h-0.003906c2.3828-0.054687 4.6094-1.1836 6.0625-3.0703zm-36.996-111.55c3.2109-0.050781 6.1328 1.8555 7.3789 4.8164 1.2461 2.9609 0.57031 6.3828-1.7109 8.6445l-68.25 70.062h-0.003906c-1.4766 1.4883-3.4883 2.3281-5.5859 2.3281-2.1016 0-4.1133-0.83984-5.5898-2.3281-1.5117-1.4414-2.3906-3.4219-2.4414-5.5117-0.03125-2.1172 0.78906-4.1641 2.2852-5.668l68.172-70.062-0.003907 0.003906c1.5273-1.5156 3.6016-2.3398 5.75-2.2852zm-92.027 0.94531v-9.6055l55.105 20.781-13.145 13.543zm-6.375 62.977 9.4453 3.3047c-1.0703 2.0312-1.8398 4.207-2.2812 6.457l-8.6602-5.5898zm41.328 46.289-6.2969-9.2891c2.3008-0.51562 4.5078-1.3945 6.5352-2.5977l3.9375 10.312zm53.922-65.496 22.594 55.578h-9.6055l-26.371-42.195z"/>
  <path d="m618.29 348.04-14.957-6.6914c-3.0273-1.3008-6.5469-0.57812-8.8164 1.8125l-11.098 12.043c-2.7734 3.1641-2.5625 7.9492 0.47266 10.863 1.3203 1.4023 3.1133 2.2695 5.0352 2.4414 2.1562-0.03125 4.2031-0.94141 5.668-2.5195l0.70703-0.78906h0.003907c1.3789 8.9102 2.1133 17.906 2.2031 26.922 0.019532 39.848-12.391 78.703-35.504 111.16-23.113 32.453-55.777 56.891-93.441 69.898-3.9219 1.4766-5.9961 5.7695-4.7227 9.7617 1.1094 3.0625 3.9883 5.1289 7.2422 5.1953 0.83594 0.11328 1.6836 0.11328 2.5195 0 40.695-14.125 75.961-40.605 100.87-75.75 24.91-35.141 38.223-77.188 38.07-120.27 0.003906-10.328-0.78516-20.648-2.3633-30.855l1.418 0.62891c3.8945 1.6797 8.418-0.027344 10.234-3.8594 1.5781-3.7461 0.042969-8.0781-3.543-9.9961z"/>
  <path d="m244.53 309.63h116.11c9.3789-0.25 18.156-4.6641 23.945-12.043 5.7891-7.3828 7.9883-16.961 5.9922-26.125-1.9922-9.168-7.9688-16.969-16.297-21.277-8.332-4.3086-18.152-4.6836-26.785-1.0117-1.4453-2.7695-3.1328-5.4023-5.0391-7.875-1.6094-2.2383-3.4883-4.2734-5.5898-6.0586-0.78906-0.70703-5.0391-3.3047-4.9609-4.4883h0.003906c0.12109-1.7812 0.12109-3.5703 0-5.3516-0.70312-18.039-10.734-34.418-26.484-43.242-15.75-8.8203-34.957-8.8203-50.707 0-15.75 8.8242-25.781 25.203-26.484 43.242v1.1797c-12.516 5.0586-21.949 15.676-25.5 28.699-3.5547 13.027-0.8125 26.965 7.4062 37.676 8.2148 10.711 20.969 16.969 34.469 16.91zm-12.988-67.781c0.90234 2.7148 2.0352 5.3477 3.3828 7.875 1.3828 2.3945 3.9258 3.8906 6.6914 3.9336 1.293-0.003906 2.5625-0.32812 3.6992-0.94141 3.668-2.1016 5.0234-6.7227 3.0703-10.473-2.9297-5.2734-4.4727-11.207-4.4883-17.238 0.042969-9.5352 3.8594-18.664 10.617-25.395 6.7578-6.7266 15.902-10.504 25.438-10.504h0.86719c9.3867 0.24219 18.324 4.0898 24.949 10.746 6.625 6.6523 10.434 15.605 10.633 24.996-2.7266-0.52734-5.4922-0.81641-8.2656-0.86719-4.3477 0-7.8711 3.5234-7.8711 7.8711 0 4.3477 3.5234 7.8711 7.8711 7.8711 6.6016-0.015625 12.984 2.3711 17.953 6.7188 4.9688 4.3438 8.1875 10.352 9.0469 16.898 0.44922 2.9414 2.5234 5.3789 5.3516 6.2969 2.832 0.79297 5.8672-0.058594 7.875-2.2031 2.9961-3.3672 7.2969-5.2891 11.809-5.2734 5.5664 0.38672 10.551 3.582 13.23 8.4766 2.6758 4.8945 2.6758 10.816 0 15.715-2.6797 4.8945-7.6641 8.0898-13.23 8.4766h-115.64c-8.3711 0.042969-16.312-3.6914-21.625-10.16-5.3086-6.4688-7.418-14.988-5.7422-23.188 1.6719-8.2031 6.957-15.211 14.379-19.078z"/>
 </g>
</svg>