<?xml version="1.0" encoding="UTF-8"?>
<!-- The Best Svg Icon site in the world: iconSvg.co, Visit us! https://iconsvg.co -->
<svg fill="#000000" width="800px" height="800px" version="1.1" viewBox="144 144 512 512" xmlns="http://www.w3.org/2000/svg">
 <g>
  <path d="m376.06 370.09c-2.3398 6.3906-2.0586 13.328 0.82031 19.492 2.5938 5.5938 7.0742 9.8555 12.625 12.387v-46.32c-0.074218 0.03125-0.15625 0.050781-0.23047 0.082031-6.1719 2.875-10.875 7.9648-13.215 14.359z"/>
  <path d="m410.5 427.6v48.879c0.24219-0.10547 0.49219-0.14844 0.73438-0.25 6.4531-2.9805 11.379-8.332 13.812-15.031 2.4453-6.6953 2.1523-13.938-0.85156-20.402-2.7812-6.0156-7.6523-10.602-13.695-13.195z"/>
  <path d="m585.09 368.21-163.32-120.18c-13.016-9.5742-30.512-9.582-43.539 0l-163.32 120.18c-2.332 1.7109-2.832 5.0156-1.1133 7.3281 1.0273 1.4062 2.6133 2.1406 4.2305 2.1406 1.082 0 2.1719-0.32422 3.1055-1.0391l14.871-10.949v146.22c0 26.039 21.191 47.23 47.23 47.23h233.53c26.039 0 47.23-21.191 47.23-47.23l0.003906-146.2 14.871 10.949c0.93359 0.68359 2.0273 1.0273 3.1055 1.0273 1.6055 0 3.2109-0.73437 4.2305-2.1406 1.7031-2.3516 1.207-5.6289-1.1211-7.3398zm-140.32 100.22c-4.375 11.953-13.152 21.484-24.707 26.859-3.1055 1.4375-6.3086 2.5-9.5742 3.2539v7.0117c0 5.8164-4.7031 10.496-10.496 10.496s-10.496-4.6797-10.496-10.496v-7.1602c-1.9727-0.45313-3.957-0.88281-5.8984-1.5859-11.965-4.3867-21.496-13.16-26.859-24.707-5.3516-11.547-5.8984-24.496-1.5234-36.453 1.9961-5.4688 8.0195-8.2383 13.465-6.2656 5.4492 1.9961 8.2383 8.0312 6.2461 13.465-2.4453 6.6953-2.1523 13.93 0.85156 20.402 2.793 5.9922 7.6602 10.578 13.707 13.184v-52.461c-1.8477-0.42969-3.707-0.82812-5.4883-1.5-11.652-4.2422-20.949-12.816-26.176-24.078-5.2266-11.262-5.75-23.891-1.4805-35.551 5.582-15.262 18.398-25.77 33.156-29.223v-9.4883c0-5.8047 4.7031-10.496 10.496-10.496s10.496 4.6914 10.496 10.496v9.6367c1.8359 0.42969 3.6836 0.73437 5.4805 1.4062 24.078 8.8359 36.496 35.594 27.668 59.66-1.9844 5.4492-8.0195 8.207-13.457 6.2656-5.457-1.9961-8.2383-8.0391-6.2539-13.465 4.6094-12.586-1.4375-26.43-13.434-31.875v49.918c1.9727 0.45312 3.9766 0.89062 5.9102 1.5938 11.945 4.3672 21.477 13.141 26.84 24.695 5.3555 11.562 5.9141 24.496 1.5273 36.461z"/>
 </g>
</svg>