<?xml version="1.0" encoding="UTF-8"?>
<!-- The Best Svg Icon site in the world: iconSvg.co, Visit us! https://iconsvg.co -->
<svg fill="#000000" width="800px" height="800px" version="1.1" viewBox="144 144 512 512" xmlns="http://www.w3.org/2000/svg">
 <g>
  <path d="m533.82 510.21c2.0859 0 4.0898 0.82812 5.5664 2.3047 1.4766 1.4766 2.3047 3.4805 2.3047 5.5664h15.742c-0.019531-4.8672-1.543-9.6094-4.3594-13.574-2.8203-3.9688-6.793-6.9688-11.383-8.5938v-9.3203h-15.746v9.3203c-7.0547 2.4844-12.508 8.1719-14.699 15.324s-0.85547 14.918 3.5977 20.926c4.4531 6.0117 11.496 9.5508 18.977 9.5352 3.1836 0 6.0547 1.918 7.2734 4.8594 1.2148 2.9414 0.54297 6.3281-1.707 8.5781-2.2539 2.25-5.6367 2.9258-8.582 1.707-2.9414-1.2188-4.8594-4.0898-4.8594-7.2734h-15.742c0.019531 4.8672 1.543 9.6094 4.3633 13.578 2.8164 3.9688 6.793 6.9688 11.379 8.5898v9.3203h15.742l0.003906-9.3203c7.0547-2.4844 12.512-8.1719 14.699-15.324 2.1914-7.1484 0.85547-14.918-3.5977-20.926s-11.496-9.5469-18.973-9.5352c-4.3477 0-7.875-3.5234-7.875-7.8711s3.5273-7.8711 7.875-7.8711z"/>
  <path d="m533.82 455.1c-20.879 0-40.902 8.293-55.664 23.059-14.766 14.762-23.059 34.785-23.059 55.664 0 20.875 8.293 40.898 23.059 55.664 14.762 14.762 34.785 23.055 55.664 23.055 20.875 0 40.898-8.293 55.664-23.055 14.762-14.766 23.055-34.789 23.055-55.664-0.023438-20.871-8.3242-40.883-23.082-55.641-14.758-14.758-34.766-23.059-55.637-23.082zm0 141.7v0.003906c-16.703 0-32.723-6.6367-44.531-18.445-11.812-11.812-18.445-27.832-18.445-44.531 0-16.703 6.6328-32.723 18.445-44.531 11.809-11.812 27.828-18.445 44.531-18.445 16.699 0 32.719 6.6328 44.531 18.445 11.809 11.809 18.445 27.828 18.445 44.531-0.019531 16.695-6.6602 32.703-18.469 44.508-11.805 11.809-27.812 18.449-44.508 18.469z"/>
  <path d="m594.07 451.28c7.0039-21.652 10.582-44.266 10.605-67.023 0-58.457-23.223-114.52-64.559-155.86-41.336-41.336-97.402-64.559-155.86-64.559-58.457 0-114.52 23.223-155.86 64.559-41.336 41.34-64.559 97.402-64.559 155.86 0 58.457 23.223 114.52 64.559 155.86 41.34 41.336 97.402 64.559 155.86 64.559 22.758-0.019531 45.371-3.5977 67.023-10.605 17.582 24.176 44.867 39.441 74.672 41.781 29.801 2.3359 59.133-8.4883 80.27-29.629 21.141-21.137 31.965-50.469 29.629-80.27-2.3398-29.805-17.605-57.09-41.781-74.672zm-414.48-67.023c0.050781-41 12.395-81.043 35.441-114.95 23.043-33.91 55.73-60.129 93.832-75.266l49.262 49.262-19.52 26.027c-1.7891 2.3828-2.082 5.5742-0.75 8.2422l15.742 31.488h0.003906c0.66797 1.3359 1.707 2.457 2.9922 3.2266l35.539 21.324v22.578l-35.543 21.324h0.003907c-0.875 0.51953-1.6367 1.207-2.2461 2.0234l-21.805 29.078-36.449 7.2891c-2.4062 0.48047-4.4492 2.0547-5.5312 4.2539-1.082 2.2031-1.0703 4.7852 0.023437 6.9805l14.027 27.969-21.859 43.715c-1.5156 3.0312-0.91797 6.6914 1.4805 9.082l37.051 37.055v20.359c0 1 0.19141 1.9961 0.55859 2.9258l4.9531 12.422c-42.445-12.469-79.719-38.336-106.25-73.734-26.531-35.398-40.898-78.434-40.957-122.67zm166.01 200.96-8.5703-21.426v-22.098c0-2.0898-0.83203-4.0898-2.3086-5.5664l-35.344-35.344 21.121-42.164c1.1055-2.2148 1.1055-4.8203 0-7.0391l-11.148-22.27 29.254-5.8555c1.8867-0.38672 3.5664-1.4492 4.7227-2.9922l22.695-30.254 38.039-22.828h-0.003907c2.3711-1.4219 3.8203-3.9805 3.8203-6.7461v-31.488c0-2.7617-1.4492-5.3203-3.8203-6.7461l-37.391-22.441-12.547-25.09 20.695-27.59c2.3477-3.1328 2.0391-7.5195-0.73438-10.289l-48.727-48.75c26.637-8.0273 54.637-10.52 82.273-7.3281 27.637 3.1953 54.328 12.008 78.434 25.898l-33.715 12.594c-2.4258 0.91016-4.2461 2.9531-4.8711 5.4648l-7.8711 31.488h-0.003906c-0.45703 1.8203-0.24609 3.7461 0.58984 5.4297l14.539 29.07-7.3359 36.715c-0.44922 2.207 0.066406 4.5 1.418 6.3008l22.539 30.055 6.5352 32.621-50.965 36.398c-2.0703 1.4805-3.3008 3.8672-3.3008 6.4102v36.102l-29.18 29.18c-2.1055 2.1094-2.8398 5.2266-1.8984 8.0547l14.91 44.742-10.312 30.953c-4.2812 0.26953-8.5547 0.53516-12.879 0.53516-12.973-0.007812-25.918-1.25-38.66-3.707zm68.723 1.3789 8.8867-26.672h0.003906c0.55078-1.6133 0.55078-3.3633 0-4.9727l-14.168-42.617 28.039-28.047-0.003906-0.003906c1.4688-1.4805 2.2891-3.4805 2.2852-5.5664v-35.305l51.805-37c2.5234-1.8008 3.7578-4.9102 3.1484-7.9492l-7.8711-39.359v-0.003907c-0.23047-1.1406-0.71484-2.2148-1.418-3.1484l-21.508-28.668 7.1719-35.922c0.34766-1.7148 0.11328-3.4961-0.66797-5.0586l-14.445-28.914 6.1641-24.656 40.855-15.312c34.973 24.637 61.297 59.66 75.23 100.11 13.938 40.445 14.773 84.254 2.3945 125.2-25.816-13.234-56.047-14.867-83.141-4.4883-27.098 10.379-48.5 31.789-58.871 58.887-10.367 27.098-8.7227 57.328 4.5195 83.145-9.3047 2.7852-18.797 4.8867-28.41 6.2969zm119.51 33.816c-22.969 0-44.992-9.1211-61.23-25.359-16.238-16.242-25.363-38.266-25.363-61.23 0-22.969 9.125-44.992 25.363-61.23s38.262-25.363 61.23-25.363c22.965 0 44.988 9.125 61.23 25.363 16.238 16.238 25.359 38.262 25.359 61.23-0.027343 22.957-9.1562 44.965-25.391 61.199-16.234 16.234-38.242 25.363-61.199 25.391z"/>
  <path d="m573.18 525.95h15.742v15.742h-15.742z"/>
  <path d="m478.72 525.95h15.742v15.742h-15.742z"/>
 </g>
</svg>