<?xml version="1.0" encoding="UTF-8"?>
<!-- The Best Svg Icon site in the world: iconSvg.co, Visit us! https://iconsvg.co -->
<svg fill="#000000" width="800px" height="800px" version="1.1" viewBox="144 144 512 512" xmlns="http://www.w3.org/2000/svg">
 <g>
  <path d="m600.16 461.12-44.938-29.52c-7.7617-5.7266-17.148-8.832-26.797-8.8555h-55.023l-93.797-65.477c-3.5117-2.4727-7.832-3.5156-12.086-2.9219-4.25 0.59375-8.1211 2.7812-10.82 6.1211-1.8945 2.2539-3.0586 5.0312-3.3438 7.9648-0.28125 2.9297 0.33203 5.8789 1.7578 8.457l25.203 45.855h-102.24l-41.734-42.383c-0.76562-0.80859-1.8359-1.2539-2.9492-1.2305l-36.348 0.097656h-0.003906c-1.3242 0.007813-2.5664 0.64844-3.332 1.7266-0.76953 1.082-0.97266 2.4648-0.54297 3.7148l33.543 98.398v0.003906c1.7305 3.8594 4.5391 7.1367 8.0859 9.4414 3.5508 2.3008 7.6914 3.5234 11.918 3.5273h109.22l-25.16 71.023 0.003906 0.003907c-2.2891 6.6641-1.2227 14.023 2.8633 19.766 4.082 5.7422 10.684 9.1641 17.73 9.1914 6.6641 0.003906 12.953-3.0781 17.031-8.3438l71.312-91.641h135.43c8.9688-0.003906 17.707-2.8242 24.984-8.0703 4.3398-3.0781 6.9258-8.0664 6.9414-13.391 0.015625-5.3242-2.543-10.324-6.8633-13.43zm-237.81-88.188c-1.2969-2.3789-0.96875-5.3125 0.81641-7.3477 2.8945-3.5273 8.0195-4.2148 11.738-1.5781l84.133 58.738h-69.391zm232.73 108.49c-5.8164 4.1484-12.789 6.3789-19.934 6.375h-129.05l11.258-14.477v0.003906c1.3555-1.7969 1.0195-4.3477-0.75781-5.7305-1.7734-1.3789-4.332-1.0781-5.7344 0.67969l-88.953 114.33h-0.003906c-4.1055 5.1289-11.301 6.5742-17.066 3.4219-5.7617-3.1523-8.4336-9.9883-6.332-16.215l34.578-97.613c0.75781-2.1367-0.35938-4.4844-2.5-5.2422-2.1367-0.75781-4.4844 0.35937-5.2422 2.5l-6.5039 18.371h-112.1c-5.2695 0.023438-10.086-2.9961-12.355-7.7539l-31.57-92.637 28.922-0.066406 41.73 42.359c0.77734 0.79297 1.8438 1.2383 2.9531 1.2305h252.01c7.9766-0.011719 15.738 2.5664 22.121 7.3516l44.938 29.52h0.003907c2.1367 1.5625 3.3867 4.0703 3.3438 6.7188-0.027344 2.7734-1.4336 5.3477-3.75 6.8711z"/>
  <path d="m298.85 291.63c4.8828 3.4805 10.734 5.3438 16.73 5.3242h85.914l45.176 58.055-0.003906 0.003907c2.8828 3.7227 7.3281 5.9023 12.035 5.9023 2.9062-0.007812 5.7539-0.82422 8.2266-2.3516 2.9648-1.8477 5.2109-4.6484 6.375-7.9414 1.1602-3.2969 1.1641-6.8867 0.011718-10.184l-15.398-43.473h67.77-0.003906c2.9492 0.007812 5.8359-0.82422 8.3203-2.4062 2.4883-1.582 4.4648-3.8477 5.7031-6.5195l32.09-60.438c0-0.050781 0-0.097656 0.070313-0.14844 0.070312-0.050781 0.11719-0.26562 0.16797-0.41406l0.11719-0.375c0-0.12891 0-0.24609 0.070312-0.375 0.070313-0.12891 0-0.29687 0-0.45312v-0.15625-0.19531-0.44141c0-0.14844-0.050781-0.25391-0.078125-0.375-0.03125-0.11719-0.078125-0.25391-0.11719-0.38281-0.039063-0.12891-0.097656-0.25391-0.15625-0.375h-0.007813c-0.050781-0.11719-0.11328-0.22656-0.1875-0.33203-0.066406-0.11719-0.13672-0.22656-0.21484-0.33594-0.078126-0.10547-0.16016-0.20703-0.24609-0.30469l-0.29688-0.29688-0.28516-0.22656c-0.11719-0.097656-0.24609-0.1875-0.38281-0.26562l-0.15625-0.097657c-0.042969-0.023437-0.089844-0.042969-0.13672-0.058593-0.14062-0.070313-0.28516-0.12891-0.43359-0.17578l-0.36328-0.10938c-0.125-0.035156-0.25-0.0625-0.375-0.078125-0.15234-0.011718-0.30078-0.011718-0.45312 0h-26.637c-0.16016-0.011718-0.32031-0.011718-0.48437 0h-0.32422c-0.14453 0.035156-0.28906 0.082032-0.42969 0.13672l-0.32422 0.10938c-0.12891 0.058594-0.24609 0.13672-0.375 0.20703l-0.32422 0.19531c-0.097656 0.070312-0.1875 0.15625-0.28516 0.23438l-0.40625 0.36719c-0.019532 0.027344-0.046876 0.050782-0.078126 0.066406l-22.309 24.934-62.137 0.003906 14.887-27.168c2.1836-3.9414 1.7031-8.8164-1.2109-12.254-4.0859-4.9492-11.293-5.918-16.539-2.2227l-59.641 41.625h-34.734c-5.9023 0-42.312 16.621-57.703 23.762-0.25781 0.11328-0.49609 0.25391-0.71875 0.42188-3.1211 2.3164-4.9336 5.9961-4.8672 9.8828 0.070313 3.8828 2.0078 7.4961 5.2109 9.6992zm157.16-78.648c1.793-1.2539 4.2539-0.88672 5.5977 0.83594 0.70312 0.82812 0.81641 2.0039 0.28516 2.9492l-17.043 31.094-38.816 0.003906zm-152.88 65.93c23.559-10.922 50.066-22.387 53.797-22.781h161.29c1.1719-0.003906 2.2852-0.50391 3.0625-1.3789l22.309-24.984h17.711l-29.008 54.652c-1.1758 2.6172-3.7734 4.3047-6.6445 4.3086h-70.68l-3.7969-10.746c-0.75781-2.1367-3.1094-3.2539-5.2461-2.4961s-3.2578 3.1055-2.5 5.2422l22.121 62.453v0.003906c1.0977 3.207-0.20703 6.7461-3.1211 8.4805-3.0703 1.8984-7.0781 1.1719-9.2891-1.6836l-56.926-73.152 0.003907 0.003906c-1.4297-1.6719-3.918-1.9258-5.6562-0.57422-1.7344 1.3516-2.0977 3.8281-0.82813 5.6211l5.3438 6.8867h-79.527c-4.3438-0.007813-8.5703-1.3867-12.086-3.9336-0.92969-0.67578-1.5039-1.7305-1.5664-2.875s0.39453-2.2578 1.2422-3.0312z"/>
  <path d="m431.49 447.35h-17.074c-1.125-0.054687-2.2227 0.35547-3.0391 1.1289-0.8125 0.77734-1.2734 1.8555-1.2734 2.9805s0.46094 2.2031 1.2734 2.9805c0.81641 0.77344 1.9141 1.1836 3.0391 1.1289h17.074c1.1211 0.054688 2.2188-0.35547 3.0352-1.1289 0.81641-0.77734 1.2773-1.8555 1.2773-2.9805s-0.46094-2.2031-1.2773-2.9805c-0.81641-0.77344-1.9141-1.1836-3.0352-1.1289z"/>
  <path d="m471.68 447.35h-17.043c-2.1914 0.10938-3.9141 1.9141-3.9141 4.1094 0 2.1914 1.7227 4 3.9141 4.1094h17.043c2.1914-0.10938 3.9102-1.918 3.9102-4.1094 0-2.1953-1.7188-4-3.9102-4.1094z"/>
  <path d="m511.91 447.35h-17.035c-2.1914 0.10938-3.9102 1.9141-3.9102 4.1094 0 2.1914 1.7188 4 3.9102 4.1094h17.035c1.125 0.054688 2.2227-0.35547 3.0352-1.1289 0.81641-0.77734 1.2773-1.8555 1.2773-2.9805s-0.46094-2.2031-1.2773-2.9805c-0.8125-0.77344-1.9102-1.1836-3.0352-1.1289z"/>
 </g>
</svg>