<?xml version="1.0" encoding="UTF-8"?>
<!-- The Best Svg Icon site in the world: iconSvg.co, Visit us! https://iconsvg.co -->
<svg fill="#000000" width="800px" height="800px" version="1.1" viewBox="144 144 512 512" xmlns="http://www.w3.org/2000/svg">
 <g>
  <path d="m610.39 602.62h-205.55v-25.508c11.762 3.5312 23.969 5.3672 36.25 5.4531 78.543 0 112.79-81.957 113.16-82.922 0.57422-1.4219 0.44141-3.0312-0.36328-4.3398-0.80078-1.3047-2.1719-2.1562-3.6992-2.293-89.445-7.8711-129.34 31.922-145.37 56.984v-111.87c9.1602 13.73 23.797 22.84 40.16 25s32.863-2.8438 45.273-13.727c12.406-10.883 19.52-26.59 19.512-43.098 0-15.742-9.3867-30.555-21.797-41.328 17.582-0.91406 33.766-9.8594 43.895-24.262 10.129-14.402 13.074-32.656 7.9922-49.516-5.082-16.855-17.633-30.438-34.035-36.84-16.398-6.3984-34.832-4.9062-49.988 4.0508 4.0977-17.074 0.14453-35.082-10.723-48.871-10.867-13.793-27.453-21.844-45.012-21.848h-0.23828c-17.559 0.003906-34.145 8.0547-45.012 21.848-10.867 13.789-14.82 31.797-10.723 48.871-15.152-8.9414-33.574-10.426-49.965-4.0234-16.391 6.4023-28.93 19.98-34.008 36.828-5.082 16.848-2.1406 35.094 7.9766 49.488 10.117 14.398 26.289 23.348 43.859 24.273-12.41 10.766-21.797 25.586-21.797 41.328h0.003906c-0.003906 16.504 7.1094 32.211 19.52 43.09 12.406 10.883 28.906 15.887 45.27 13.727 16.363-2.1562 31-11.266 40.164-24.992v111.81c-16.031-25.062-55.922-64.867-145.38-56.965h-0.003907c-1.5273 0.13672-2.8984 0.98438-3.6992 2.293-0.80078 1.3086-0.9375 2.918-0.36328 4.3398 0.39453 0.98438 34.629 82.922 113.16 82.922 12.297-0.070312 24.52-1.8906 36.301-5.4141v25.586h-205.56c-1.3203-0.058594-2.6094 0.42188-3.5625 1.3359-0.95703 0.91406-1.4961 2.1797-1.4961 3.5 0 1.3242 0.53906 2.5859 1.4961 3.5 0.95312 0.91406 2.2422 1.3945 3.5625 1.3359h420.78c1.3203 0.058594 2.6094-0.42188 3.5664-1.3359 0.95312-0.91406 1.4961-2.1758 1.4961-3.5 0-1.3203-0.54297-2.5859-1.4961-3.5-0.95703-0.91406-2.2461-1.3945-3.5664-1.3359zm-67.895-100.53c-10.746 21.648-52.348 90.617-136.25 65.316 6.7617-16.43 37.047-71.543 136.25-65.316zm-284.99 0c99.305-6.1875 129.48 48.895 136.25 65.316-83.875 25.293-125.5-43.676-136.25-65.316zm79.242-168.66c0-16.781 6.668-32.871 18.531-44.734 11.863-11.863 27.957-18.527 44.734-18.527 16.777 0 32.871 6.668 44.734 18.531 11.863 11.867 18.527 27.957 18.523 44.734 0 16.781-6.668 32.871-18.535 44.734-11.863 11.863-27.957 18.523-44.734 18.523-16.773-0.019531-32.852-6.6914-44.711-18.551-11.859-11.859-18.527-27.941-18.543-44.711zm110.77-88.422c0.019531 9.3672-2.7422 18.531-7.9297 26.332-0.12891 0.21094-0.25 0.43359-0.35547 0.65625-11.707-7.5039-25.324-11.492-39.23-11.492-13.91 0-27.523 3.9883-39.234 11.492-0.10156-0.22656-0.21875-0.44922-0.35547-0.65625-8.3672-12.531-10.301-28.281-5.2188-42.461 5.082-14.184 16.586-25.117 31.008-29.477 14.418-4.3594 30.051-1.6289 42.141 7.3633 12.09 8.9883 19.203 23.176 19.176 38.242zm52.594 161.29v-0.003906c0 17.02-9.0781 32.746-23.816 41.254-14.738 8.5117-32.898 8.5117-47.637 0-14.738-8.5078-23.816-24.234-23.816-41.254v-0.10938 0.003907c13.363-0.90234 26.227-5.4609 37.172-13.184 10.949-7.7188 19.562-18.301 24.898-30.586 16.531 8.1758 33.199 25.684 33.199 43.875zm32.473-98.547v-0.003907c-0.011719 15.25-7.3164 29.57-19.652 38.535-12.336 8.9609-28.219 11.48-42.723 6.7773 3.7344-13.324 3.5898-27.441-0.41797-40.688-4.0078-13.25-11.715-25.078-22.215-34.094 8.2266-10.43 20.434-16.949 33.676-17.984 13.238-1.0391 26.312 3.5 36.062 12.52 9.7461 9.0195 15.285 21.703 15.281 34.984zm-265.21 0v-0.003907c-0.007812-13.281 5.5312-25.961 15.281-34.98 9.75-9.0195 22.82-13.559 36.062-12.523 13.242 1.0391 25.449 7.5547 33.672 17.984-10.496 9.0195-18.203 20.848-22.211 34.094-4.0078 13.246-4.1562 27.363-0.41797 40.691-14.508 4.6992-30.387 2.1797-42.723-6.7812-12.336-8.9609-19.641-23.285-19.656-38.535zm80.129 146.18-0.003906-0.003906c-12.629-0.015625-24.734-5.0391-33.664-13.969-8.9297-8.9297-13.953-21.039-13.969-33.668 0-18.195 16.668-35.699 33.211-43.875 5.3359 12.285 13.949 22.867 24.898 30.586 10.945 7.7188 23.805 12.281 37.172 13.184v0.10938-0.003906c-0.015626 12.629-5.0391 24.734-13.969 33.664-8.9258 8.9297-21.031 13.953-33.656 13.973z"/>
  <path d="m395.29 379.48v5.6406c-0.058594 1.3203 0.42188 2.6055 1.3359 3.5625 0.91406 0.95703 2.1797 1.4961 3.5 1.4961 1.3242 0 2.5859-0.53906 3.5-1.4961 0.91406-0.95703 1.3945-2.2422 1.3359-3.5625v-5.6406c9.3125-1.6328 17.176-7.8398 20.922-16.52 3.75-8.6758 2.8828-18.656-2.3047-26.559-5.1914-7.8984-14.004-12.66-23.457-12.664-5.4844 0.003907-10.426-3.2969-12.527-8.3594-2.0977-5.0664-0.94141-10.895 2.9375-14.77 3.875-3.8789 9.707-5.0352 14.77-2.9375 5.0625 2.1016 8.3633 7.043 8.3594 12.527 0 2.6719 2.168 4.8398 4.8398 4.8398 2.6758 0 4.8438-2.168 4.8438-4.8398-0.007813-5.3242-1.8398-10.48-5.1953-14.613-3.3516-4.1328-8.0195-6.9922-13.227-8.0977v-5.7266c0.058593-1.3203-0.42188-2.6094-1.3359-3.5664-0.91406-0.95312-2.1797-1.4922-3.5-1.4922-1.3203 0-2.5859 0.53906-3.5 1.4922-0.91406 0.95703-1.3945 2.2461-1.3359 3.5664v5.7266c-7.5586 1.5977-13.824 6.8477-16.719 14.008-2.8945 7.1602-2.0391 15.293 2.2812 21.691 4.3242 6.4023 11.547 10.234 19.27 10.223 4.8867-0.007812 9.5781 1.9219 13.039 5.375 3.4609 3.4492 5.4062 8.1367 5.4102 13.023 0.003906 4.8867-1.9375 9.5742-5.3906 13.031-3.457 3.457-8.1445 5.3945-13.035 5.3906-4.8867 0-9.5703-1.9492-13.023-5.4102-3.4492-3.4609-5.3828-8.1523-5.3711-13.039-0.11719-2.5859-2.25-4.6211-4.8359-4.6211-2.5898 0-4.7227 2.0352-4.8398 4.6211 0 6.6172 2.332 13.02 6.5859 18.086 4.25 5.0625 10.152 8.4688 16.668 9.6133z"/>
 </g>
</svg>