<?xml version="1.0" encoding="UTF-8"?>
<!-- The Best Svg Icon site in the world: iconSvg.co, Visit us! https://iconsvg.co -->
<svg fill="#000000" width="800px" height="800px" version="1.1" viewBox="144 144 512 512" xmlns="http://www.w3.org/2000/svg">
 <g>
  <path d="m447.66 266.18c-47.883-49.102-126.77-50.059-175.85-2.168-23.609 23.035-37.098 54.5-37.504 87.48-0.41016 32.98 12.305 64.77 35.336 88.379 23.031 23.605 54.5 37.098 87.48 37.504s64.77-12.305 88.375-35.34c23.609-23.031 37.098-54.5 37.504-87.48s-12.305-64.77-35.34-88.375zm-172.1 167.95c-21.414-21.922-33.297-51.418-33.055-82.062 0.24219-30.645 12.59-59.949 34.352-81.527 21.758-21.578 51.168-33.68 81.812-33.664h1.4453c38.766 0.48828 74.73 20.297 95.867 52.797s24.66 73.406 9.3867 109.04c-15.27 35.633-47.316 61.297-85.43 68.406-38.113 7.1094-77.258-5.2695-104.35-33.004z"/>
  <path d="m591.62 552.52-84.16-86.238h-0.003906c4.3594-4.7969 6.7227-11.074 6.6094-17.551-0.10937-6.4766-2.6875-12.672-7.2109-17.312l-7.8711-8.0391c14.078-29.156 18.844-61.938 13.648-93.891-5.1953-31.957-20.098-61.543-42.684-84.734-60.625-62.113-160.48-63.32-222.58-2.707-62.102 60.613-63.32 160.48-2.707 222.59 29.094 29.969 68.965 47.055 110.73 47.449h1.9688c22.48 0.039062 44.707-4.7578 65.168-14.07l7.8711 8.0391c4.5312 4.6328 10.66 7.3633 17.137 7.6328 6.4766 0.26953 12.809-1.9414 17.707-6.1875l84.172 86.238c5.3828 5.9648 12.961 9.4805 20.988 9.7344s15.812-2.7734 21.559-8.3867c5.75-5.6133 8.9609-13.324 8.8945-21.355-0.066406-8.0352-3.3984-15.691-9.2344-21.211zm-236.16-48.66h-0.003906c-39.582-0.375-77.371-16.57-104.94-44.977-57.457-58.863-56.305-153.5 2.5586-210.96 28.336-27.598 66.465-42.824 106.02-42.344s77.297 16.633 104.95 44.91c57.445 58.871 56.293 153.5-2.5664 210.95v0.003906c-11.465 11.227-24.656 20.543-39.066 27.598-0.55078 0.12891-1.0664 0.375-1.5156 0.71875-20.426 9.6758-42.809 14.504-65.406 14.113zm80.777-3.543-5.9531-6.1016-0.003906 0.003906c27.227-14.355 49.703-36.297 64.711-63.164l5.9531 6.1016c3.1836 3.2656 4.9414 7.6602 4.8828 12.223-0.054687 4.5586-1.918 8.9141-5.1797 12.102l-40.098 39.133c-3.2578 3.1758-7.6445 4.9336-12.195 4.8867s-8.8984-1.8906-12.09-5.1328zm149.14 88.059c-4.043 3.9375-9.4844 6.1094-15.129 6.0391-5.6445-0.070312-11.031-2.375-14.98-6.4102l-84.133-86.199 30.461-29.734 84.141 86.207 0.007812-0.003906c3.9414 4.043 6.1211 9.4844 6.0508 15.129-0.066406 5.6445-2.375 11.031-6.418 14.973z"/>
  <path d="m357.84 281.39c-18.992 0-37.211 7.5469-50.641 20.977-13.43 13.43-20.977 31.645-20.977 50.641 0 18.992 7.5469 37.207 20.977 50.637 13.43 13.434 31.648 20.977 50.641 20.977s37.211-7.543 50.641-20.977c13.43-13.43 20.977-31.645 20.977-50.637-0.023438-18.988-7.5742-37.191-21-50.617-13.426-13.426-31.629-20.98-50.617-21zm0 135.02c-16.816 0-32.941-6.6797-44.828-18.57-11.891-11.891-18.57-28.016-18.57-44.828 0-16.816 6.6797-32.941 18.57-44.832 11.887-11.891 28.012-18.57 44.828-18.57s32.941 6.6797 44.832 18.57c11.887 11.891 18.566 28.016 18.566 44.832-0.019532 16.809-6.707 32.922-18.59 44.805-11.887 11.887-28 18.574-44.809 18.594z"/>
  <path d="m357.84 344.36c-5.2539-0.003906-9.9844-3.1719-11.992-8.0234-2.0078-4.8555-0.89453-10.441 2.8203-14.152 3.7148-3.7148 9.3008-4.8242 14.156-2.8125 4.8516 2.0117 8.0156 6.7461 8.0156 12-0.054688 1.125 0.35156 2.2227 1.1289 3.0352 0.77734 0.81641 1.8516 1.2773 2.9766 1.2773 1.1289 0 2.2031-0.46094 2.9805-1.2773 0.77734-0.8125 1.1836-1.9102 1.1289-3.0352-0.007813-4.9102-1.7148-9.668-4.832-13.461-3.1172-3.793-7.4531-6.3906-12.27-7.3516v-5.6484c-0.10547-2.1914-1.9141-3.9102-4.1094-3.9102-2.1914 0-4 1.7188-4.1055 3.9102v5.6484c-6.9531 1.375-12.758 6.1289-15.477 12.676-2.7188 6.543-1.9883 14.012 1.9453 19.91 3.9297 5.8945 10.547 9.4375 17.633 9.4414 4.6484 0 9.1055 1.8477 12.395 5.1328 3.2852 3.2891 5.1328 7.7461 5.1289 12.395 0 4.6484-1.8477 9.1055-5.1328 12.395-3.2891 3.2852-7.75 5.1289-12.398 5.1289-4.6484-0.003906-9.1055-1.8516-12.391-5.1406-3.2852-3.2891-5.1289-7.7461-5.125-12.395-0.10937-2.1914-1.918-3.9141-4.1094-3.9141-2.1953 0-4 1.7227-4.1094 3.9141 0.011719 6.1133 2.1914 12.027 6.1562 16.684 3.9648 4.6562 9.457 7.75 15.492 8.7305v5.582c0.10938 2.1914 1.9141 3.9102 4.1094 3.9102 2.1914 0 4-1.7188 4.1094-3.9102v-5.582c8.6211-1.3594 15.969-7 19.512-14.977 3.543-7.9805 2.8008-17.211-1.9727-24.52-4.7734-7.3125-12.926-11.703-21.652-11.672z"/>
 </g>
</svg>