<?xml version="1.0" encoding="UTF-8"?>
<!-- The Best Svg Icon site in the world: iconSvg.co, Visit us! https://iconsvg.co -->
<svg fill="#000000" width="800px" height="800px" version="1.1" viewBox="144 144 512 512" xmlns="http://www.w3.org/2000/svg">
 <g>
  <path d="m420.99 379.01c5.7969 0 10.496-4.6992 10.496-10.496s-4.6992-10.496-10.496-10.496h-10.496c0-5.7969-4.6992-10.496-10.496-10.496s-10.496 4.6992-10.496 10.496h-10.496c-5.7969 0-10.496 4.6992-10.496 10.496v31.488c0 2.7812 1.1055 5.4531 3.0742 7.4219s4.6367 3.0742 7.4219 3.0742h31.488v10.496h-31.488c-5.7969 0-10.496 4.6992-10.496 10.496s4.6992 10.496 10.496 10.496h10.496c0 5.7969 4.6992 10.496 10.496 10.496s10.496-4.6992 10.496-10.496h10.496c2.7812 0 5.4531-1.1094 7.4219-3.0742 1.9648-1.9688 3.0742-4.6406 3.0742-7.4219v-31.488c0-2.7852-1.1094-5.4531-3.0742-7.4219-1.9688-1.9688-4.6406-3.0742-7.4219-3.0742h-31.488v-10.496z"/>
  <path d="m400 169.09c-61.242 0-119.98 24.328-163.28 67.633s-67.633 102.04-67.633 163.28 24.328 119.97 67.633 163.28c43.305 43.305 102.04 67.633 163.28 67.633s119.97-24.328 163.28-67.633c43.305-43.305 67.633-102.04 67.633-163.28s-24.328-119.98-67.633-163.28c-43.305-43.305-102.04-67.633-163.28-67.633zm125.95 220.42c-0.49609-25.543-3.375-50.984-8.6055-75.992 49.75 17.215 84.914 44.504 91.527 75.992zm-20.992 0h-10.496c-2.4141-21.379-12.051-41.289-27.32-56.441-15.27-15.156-35.254-24.645-56.645-26.898v-11.125c27.973 0.61328 55.789 4.3828 82.918 11.23 6.9766 27.219 10.852 55.141 11.543 83.234zm-104.96 83.969c-19.488 0-38.176-7.7422-51.953-21.52-13.781-13.781-21.52-32.469-21.52-51.953 0-19.488 7.7383-38.176 21.52-51.953 13.777-13.781 32.465-21.52 51.953-21.52 19.484 0 38.172 7.7383 51.953 21.52 13.777 13.777 21.52 32.465 21.52 51.953 0 19.484-7.7422 38.172-21.52 51.953-13.781 13.777-32.469 21.52-51.953 21.52zm10.496-199.43v-82.918c31.488 6.6133 58.777 41.984 75.992 91.84h-0.003906c-24.996-5.3359-50.438-8.3242-75.988-8.9219zm-20.992-82.918v82.918c-25.543 0.49609-50.984 3.3789-75.992 8.6055 17.215-49.75 44.504-84.914 75.992-91.523zm0 103.91v10.496c-21.379 2.4141-41.289 12.055-56.441 27.32-15.156 15.27-24.645 35.254-26.898 56.648h-11.125c0.61328-27.977 4.3828-55.789 11.23-82.922 27.219-6.9766 55.141-10.852 83.234-11.543zm-115.46 94.465h-82.918c6.6133-31.488 41.984-58.777 91.84-75.992-5.3359 24.996-8.3242 50.438-8.9219 75.992zm0 20.992c0.49609 25.543 3.3789 50.984 8.6055 75.988-49.75-17.211-84.914-44.5-91.523-75.988zm20.992 0h10.496c2.4141 21.375 12.055 41.285 27.32 56.441 15.27 15.152 35.254 24.641 56.648 26.895v10.496c-27.977-0.61328-55.789-4.3828-82.922-11.23-6.9297-27.016-10.801-54.723-11.543-82.602zm94.465 115.46v82.918c-31.488-6.6133-58.777-41.984-75.992-91.84v-0.003906c24.996 5.3359 50.438 8.3242 75.992 8.9219zm20.992 83.234v-83.238c25.543-0.49609 50.984-3.375 75.988-8.6055-17.211 49.75-44.5 84.914-75.988 91.527zm0-104.23v-10.496c21.375-2.4141 41.285-12.051 56.441-27.32 15.152-15.27 24.641-35.254 26.895-56.645h10.496c-0.61328 27.973-4.3828 55.789-11.23 82.918-27.016 6.9297-54.723 10.805-82.602 11.543zm115.46-94.465 82.918 0.003906c-6.6133 31.488-41.984 58.777-91.84 75.992l-0.003906-0.003906c5.3359-24.996 8.3242-50.438 8.9219-75.988zm74.312-74.102h-0.003906c-25.535-22.551-56.031-38.766-89.004-47.336-8.7383-32.816-25.059-63.125-47.652-88.48 31.887 10.164 60.895 27.789 84.605 51.41 23.711 23.621 41.449 52.559 51.738 84.406zm-263.88-135.82c-22.551 25.539-38.766 56.031-47.336 89.008-32.742 8.4883-63.043 24.52-88.48 46.809 10.234-31.789 27.895-60.688 51.512-84.305 23.617-23.617 52.516-41.277 84.305-51.512zm-135.82 263.03c25.539 22.551 56.031 38.77 89.008 47.336 8.5664 32.977 24.785 63.469 47.336 89.008-31.949-10.219-60.988-27.922-84.707-51.641-23.715-23.715-41.422-52.758-51.637-84.703zm263.55 136.45c22.551-25.539 38.77-56.031 47.336-89.008 32.977-8.5664 63.469-24.785 89.008-47.336-10.281 31.984-28.074 61.043-51.883 84.746-23.812 23.699-52.953 41.355-84.984 51.492z"/>
 </g>
</svg>