<?xml version="1.0" encoding="UTF-8"?>
<!-- The Best Svg Icon site in the world: iconSvg.co, Visit us! https://iconsvg.co -->
<svg fill="#000000" width="800px" height="800px" version="1.1" viewBox="144 144 512 512" xmlns="http://www.w3.org/2000/svg">
 <g>
  <path d="m467.49 177.65c-90.844 0-164.77 73.914-164.77 164.77 0 41.418 15.48 79.203 40.809 108.19l-10.652 9.8047c-9.4062-8.7656-21.453-13.867-34.438-14.422-14.367-0.60938-28.184 4.4297-38.805 14.191l-74.449 68.445c-10.613 9.75-16.793 23.07-17.402 37.461-0.60938 14.41 4.4297 28.203 14.191 38.805 9.7617 10.621 23.07 16.793 37.48 17.391 0.77734 0.042969 1.543 0.050782 2.3203 0.050782 13.562 0 26.441-5.0273 36.473-14.242l74.449-68.434c10.621-9.7617 16.805-23.059 17.402-37.473 0.54688-12.973-3.5273-25.422-11.461-35.527l10.613-9.7617c29.977 30.953 71.867 50.297 118.26 50.297 90.855 0 164.76-73.914 164.76-164.78-0.003906-90.855-73.93-164.77-164.78-164.77zm-140.55 355.74-74.461 68.441c-8.9414 8.2188-20.531 12.469-32.684 11.977-12.145-0.51562-23.355-5.7188-31.57-14.664-8.2188-8.9531-12.457-20.551-11.953-32.684 0.50391-12.133 5.7188-23.355 14.664-31.57l74.449-68.445c18.461-16.961 47.285-15.742 64.258 2.7188 8.2305 8.9414 12.469 20.551 11.965 32.684-0.51172 12.113-5.7148 23.332-14.668 31.543zm140.55-34.691c-86.16 0-156.27-70.113-156.27-156.29 0-86.16 70.102-156.28 156.27-156.28 86.184 0 156.3 70.102 156.3 156.28-0.03125 86.184-70.113 156.29-156.3 156.29z"/>
  <path d="m467.49 212.79c-71.477 0-129.64 58.16-129.64 129.64 0 71.5 58.16 129.66 129.64 129.66 71.488 0 129.65-58.16 129.65-129.66-0.011719-71.492-58.172-129.64-129.65-129.64zm0 250.77c-66.785 0-121.14-54.34-121.14-121.13 0-66.785 54.348-121.13 121.14-121.13 66.809 0 121.13 54.34 121.13 121.13 0 66.793-54.324 121.13-121.13 121.13z"/>
  <path d="m533.52 295.23c-0.019531-0.13672 0-0.27344-0.042969-0.41016 0-0.03125-0.019531-0.042968-0.019531-0.074218-0.042969-0.125-0.125-0.21875-0.16797-0.34766-0.10547-0.24219-0.21875-0.45312-0.38672-0.67188-0.082032-0.14844-0.125-0.30469-0.21875-0.42969-0.10547-0.10547-0.21875-0.16797-0.30469-0.26172-0.082031-0.082031-0.125-0.19922-0.21875-0.27344-0.10547-0.09375-0.24219-0.11719-0.36719-0.19922-0.125-0.082032-0.21094-0.21094-0.34766-0.27344-0.14844-0.074218-0.28516-0.082031-0.42969-0.14844-0.24219-0.09375-0.49219-0.17969-0.75391-0.23047-0.14844-0.019531-0.26172-0.082031-0.41016-0.10547-0.019531 0-0.042968-0.011719-0.082031-0.019531-0.125-0.019531-0.24219 0.03125-0.36719 0.03125-0.24219 0-0.47266 0.019531-0.71484 0.0625s-0.51562 0.050781-0.73438 0.13672l-28.969 8.4922c-2.2578 0.66016-3.5469 3.0352-2.8672 5.2812 0.53516 1.8594 2.2344 3.0664 4.082 3.0664 0.41016 0 0.79688-0.050781 1.207-0.17969l15.723-4.6172-32.348 38.488-27.164-34.773c-0.082032-0.11719-0.21875-0.17969-0.32422-0.27344-0.082031-0.10547-0.125-0.21875-0.21875-0.31641-0.125-0.09375-0.24219-0.125-0.36719-0.21094-0.24219-0.16797-0.49219-0.31641-0.77734-0.44141-0.24219-0.10547-0.47266-0.17969-0.71484-0.23047-0.28516-0.0625-0.55469-0.09375-0.83984-0.10547-0.24219 0-0.51562 0.011719-0.75391 0.050782-0.28516 0.042968-0.53516 0.11719-0.79688 0.21875-0.26172 0.09375-0.51562 0.21875-0.73438 0.37891-0.14844 0.074218-0.28516 0.10547-0.42969 0.21094-0.10547 0.09375-0.16797 0.21875-0.26172 0.32422-0.10547 0.09375-0.21875 0.13672-0.30469 0.23047l-53.34 61.277c-1.543 1.7734-1.3555 4.4492 0.41797 5.9922 0.80859 0.70312 1.793 1.0508 2.793 1.0508 1.1875 0 2.3633-0.49219 3.2031-1.457l49.961-57.391 27.227 34.836c0.082031 0.10547 0.21094 0.14844 0.30469 0.24219 0.10547 0.125 0.16797 0.28516 0.30469 0.39844 0.1875 0.15625 0.41016 0.23047 0.62109 0.35547 0.16797 0.09375 0.30469 0.19922 0.47266 0.27344 0.53516 0.21875 1.0898 0.36719 1.6367 0.36719 0.83984 0 1.5742-0.32422 2.2969-0.78906 0.082031-0.0625 0.21094-0.03125 0.30469-0.11719 0.14844-0.10547 0.21094-0.25 0.32422-0.37891 0.10547-0.09375 0.21875-0.13672 0.30469-0.24219l36.199-43.055-1.418 17.055c-0.21094 2.3398 1.5312 4.3984 3.8711 4.5859 0.125 0.011719 0.24219 0.011719 0.36719 0.011719 2.1953 0 4.0625-1.6797 4.2188-3.8945l2.5195-30.238v-0.019531-0.125c0-0.11719-0.042969-0.21875-0.042969-0.33594-0.039063-0.26562-0.058594-0.52734-0.12109-0.78125z"/>
 </g>
</svg>