<?xml version="1.0" encoding="UTF-8"?>
<!-- The Best Svg Icon site in the world: iconSvg.co, Visit us! https://iconsvg.co -->
<svg fill="#000000" width="800px" height="800px" version="1.1" viewBox="144 144 512 512" xmlns="http://www.w3.org/2000/svg">
 <g>
  <path d="m628.29 179.58h-47.234c-4.3477 0-7.8711 3.5234-7.8711 7.8711v15.746h-7.7539l-53.648-22.98c-0.96875-0.41797-2.0156-0.63672-3.0703-0.63672h-82.812c-14.609 0.019531-28.609 5.8281-38.945 16.152l-64.102 64.008c-5.0469 4.9141-8.2812 11.395-9.1641 18.383-0.88672 6.9883 0.62891 14.07 4.293 20.09 1.2266 1.8047 2.6289 3.4844 4.1953 5.0039-5.7344 10.348-8.75 21.977-8.7695 33.805-0.054688 22.465 10.551 43.625 28.582 57.027 18.031 13.402 41.352 17.457 62.848 10.934 21.496-6.5273 38.625-22.863 46.16-44.027 7.5391-21.164 4.5898-44.648-7.9453-63.293h19.547c5.6289 18.895 30.945 31.488 53.945 31.488 23.004 0 48.32-12.594 53.953-31.488h2.6875v15.742c0 2.0859 0.82812 4.0898 2.3047 5.5664 1.4766 1.4766 3.4805 2.3047 5.5664 2.3047h47.234c2.0859 0 4.0898-0.82812 5.5664-2.3047 1.4727-1.4766 2.3047-3.4805 2.3047-5.5664v-125.95c0-2.0859-0.83203-4.0898-2.3047-5.5664-1.4766-1.4766-3.4805-2.3047-5.5664-2.3047zm-188.93 157.44c0 19.688-10.504 37.879-27.555 47.719-17.047 9.8438-38.055 9.8438-55.102 0-17.051-9.8398-27.555-28.031-27.555-47.719-0.03125-11.188 3.3906-22.113 9.8008-31.285 9.9492-14.492 26.234-23.352 43.809-23.82h1.4961c0.98438 0 1.9453 0.125 2.9297 0.17188 2.7031 4.7734 6.6328 8.7344 11.387 11.473 4.7539 2.7383 10.152 4.1562 15.637 4.1016h8.4961c10.633 10.336 16.641 24.527 16.656 39.359zm124.42-55.105c-4.3477 0-7.875 3.5234-7.875 7.8711 0 11.918-19.492 23.617-39.359 23.617-19.867 0-39.359-11.699-39.359-23.617 0-2.0859-0.82812-4.0898-2.3047-5.5664-1.4766-1.4766-3.4805-2.3047-5.5664-2.3047h-55.105c-4.1719-0.011719-8.168-1.6758-11.117-4.625-2.9531-2.9492-4.6133-6.9453-4.625-11.117 0-4.1758 1.6562-8.1836 4.6094-11.133 2.9531-2.9531 6.957-4.6133 11.133-4.6133h86.594v-15.742h-86.594c-8.3516 0-16.359 3.3164-22.266 9.2227-5.9062 5.9023-9.2227 13.914-9.2227 22.266h-0.13281c-19.602 0.48047-38.129 9.0664-51.168 23.707-0.0625-0.085937-0.14062-0.14844-0.20312-0.24219h-0.003906c-1.6836-2.9922-2.3242-6.4609-1.8164-9.8594 0.50391-3.3945 2.1289-6.5273 4.6133-8.8984l64.102-64.031c7.3711-7.3711 17.363-11.516 27.789-11.527h81.199l53.617 22.977v0.003907c0.97656 0.42187 2.0352 0.63672 3.1016 0.63672h9.3672v62.977zm56.637 23.617h-31.488v-110.21h31.488z"/>
  <path d="m376.38 313.41h15.742c2.0898 0 4.0898 0.82812 5.5664 2.3047 1.4766 1.4766 2.3086 3.4805 2.3086 5.5664h15.742c0-6.2617-2.4883-12.27-6.918-16.699-4.4258-4.4297-10.434-6.9141-16.699-6.9141v-7.875h-15.742v7.875c-8.4375 0-16.234 4.5-20.453 11.805-4.2188 7.3086-4.2188 16.312 0 23.617 4.2188 7.3086 12.016 11.809 20.453 11.809h15.742c4.3477 0 7.875 3.5234 7.875 7.8711s-3.5273 7.8711-7.875 7.8711h-15.742c-4.3477 0-7.8711-3.5234-7.8711-7.8711h-15.746c0 6.2656 2.4883 12.27 6.918 16.699 4.4297 4.4297 10.434 6.918 16.699 6.918v7.8711h15.742v-7.8711c8.4375 0 16.234-4.5 20.453-11.809 4.2188-7.3086 4.2188-16.309 0-23.617-4.2188-7.3047-12.016-11.809-20.453-11.809h-15.742c-4.3477 0-7.8711-3.5234-7.8711-7.8711s3.5234-7.8711 7.8711-7.8711z"/>
  <path d="m555.58 464.09c-7.5586-3.5586-16.227-3.9414-24.066-1.0625l-49.074 17.863v-0.003907c-4.5-8.7578-12.832-14.918-22.527-16.648l-106.99-18.895h-0.003906c-1.3555-0.24609-2.75-0.12109-4.043 0.35547l-51.422 18.711-2.6914-7.3984c-0.71094-1.9648-2.1719-3.5664-4.0625-4.4492-1.8945-0.88672-4.0586-0.98438-6.0234-0.27344l-59.18 21.594c-1.9648 0.71094-3.5664 2.1719-4.4531 4.0625-0.88281 1.8906-0.98047 4.0547-0.26953 6.0195l-51.781 18.895h-0.003906c-1.9609 0.71094-3.5625 2.1719-4.4492 4.0625s-0.98438 4.0586-0.27344 6.0195l37.738 103.54c1.1328 3.1055 4.0859 5.1758 7.3945 5.1797 0.91797 0.007813 1.8281-0.14844 2.6914-0.45703l51.781-18.895c0.71094 1.9648 2.1758 3.5703 4.0664 4.457 1.8945 0.88281 4.0625 0.98047 6.0273 0.26562l59.176-21.547-0.003906 0.003906c1.9648-0.71094 3.5664-2.1719 4.4531-4.0664 0.88281-1.8906 0.98047-4.0547 0.26953-6.0195l-2.6914-7.3984 4.8008-1.7461 45.137 15.25 0.003906-0.003906c1.6953 0.56641 3.5352 0.54297 5.2188-0.0625l22.184-8.0781 140.55-51.168c7.8398-2.8594 14.223-8.7188 17.75-16.285 3.5234-7.5625 3.8984-16.219 1.043-24.062-2.8516-7.8438-8.7031-14.23-16.266-17.762zm-297.09 123.44-44.383 16.152-32.309-88.75 44.383-16.176zm17.492 2.0156-37.699-103.57 44.422-16.152 37.699 103.55zm271.68-82.129-160.15 58.254-45.137-15.25c-1.6953-0.57031-3.5312-0.55078-5.2109 0.0625l-7.3984 2.6914-26.922-73.996 49.43-17.988 104.9 18.5h-0.003906c2.7422 0.46484 5.3086 1.6562 7.4336 3.4492 2.125 1.7891 3.7344 4.1172 4.6602 6.7383 0.27734 0.90625 0.5 1.8281 0.66797 2.7617 0.35156 1.7578 0.375 3.5703 0.0625 5.3359-0.73438 4.1133-3.0664 7.7695-6.4844 10.172-3.4219 2.3984-7.6523 3.3477-11.77 2.6367l-88.656-15.633-2.7305 15.508 88.633 15.625h-0.003906c8.2422 1.4297 16.711-0.46875 23.555-5.2773 6.8398-4.8086 11.496-12.133 12.941-20.371 0.20312-1.3984 0.3125-2.8125 0.33203-4.2266l51.082-18.594c5.2852-1.9219 11.199-0.87891 15.508 2.7383 4.3086 3.6172 6.3633 9.2578 5.3828 14.797-0.97656 5.543-4.8359 10.141-10.125 12.066z"/>
 </g>
</svg>