<?xml version="1.0" encoding="UTF-8"?>
<!-- The Best Svg Icon site in the world: iconSvg.co, Visit us! https://iconsvg.co -->
<svg fill="#000000" width="800px" height="800px" version="1.1" viewBox="144 144 512 512" xmlns="http://www.w3.org/2000/svg">
 <g>
  <path d="m395.89 610.57c-41.203 0-83.637-10.648-122.72-30.797-38.578-19.887-74.043-49.074-102.55-84.414-1.1602-1.4414-1.1641-3.4961-0.003906-4.9375 28.523-35.461 63.996-64.77 102.58-84.754 39.113-20.262 81.578-30.992 122.8-31.031h0.35938c41.727 0 85.477 10.641 126.52 30.773 41.527 20.371 78.359 49.57 106.51 84.434 1.1641 1.4414 1.1641 3.5 0.003906 4.9414-28.145 34.969-65.004 64.281-106.59 84.762-41.086 20.234-84.891 30.965-126.67 31.027zm-217.13-117.68c56.637 68.816 137.58 109.81 217.13 109.81h0.23047c81.898-0.12109 169.9-43.352 225.12-110.38-55.211-66.797-143.12-109.81-224.88-109.81h-0.34766c-79.578 0.078125-160.57 41.285-217.25 110.38z"/>
  <path d="m395.08 608.72c-64.566 0-117.1-52.527-117.1-117.1 0-64.566 52.527-117.1 117.1-117.1 64.566 0 117.1 52.527 117.1 117.1 0 64.57-52.531 117.1-117.1 117.1zm0-226.32c-60.227 0-109.22 48.996-109.22 109.22 0 60.227 48.996 109.22 109.22 109.22s109.22-48.996 109.22-109.22c0.003907-60.223-48.996-109.22-109.22-109.22z"/>
  <path d="m395.9 236.99c-2.1719 0-3.9375-1.7617-3.9375-3.9375v-39.691c0-2.1719 1.7617-3.9375 3.9375-3.9375 2.1719 0 3.9375 1.7617 3.9375 3.9375v39.695c-0.003906 2.1719-1.7656 3.9336-3.9375 3.9336z"/>
  <path d="m518.22 303.15c-1.4062 0-2.7656-0.75391-3.4727-2.082-1.0273-1.918-0.30469-4.3008 1.6133-5.3281l36.789-19.688c1.918-1.0234 4.3008-0.30469 5.3281 1.6133 1.0273 1.918 0.30469 4.3008-1.6133 5.3281l-36.789 19.688c-0.59375 0.32031-1.2305 0.46875-1.8555 0.46875z"/>
  <path d="m273.59 303.15c-0.625 0-1.2617-0.15234-1.8555-0.46484l-36.789-19.688c-1.918-1.0234-2.6406-3.4102-1.6133-5.3281 1.0234-1.918 3.4102-2.6367 5.3281-1.6133l36.789 19.688c1.918 1.0234 2.6406 3.4102 1.6133 5.3281-0.70703 1.3242-2.0703 2.0781-3.4727 2.0781z"/>
  <path d="m463.35 259.9c-0.70312 0-1.4141-0.1875-2.0586-0.58594-1.8516-1.1406-2.4297-3.5625-1.2891-5.4141l12.91-20.977c1.1367-1.8516 3.5586-2.4297 5.4141-1.2891 1.8516 1.1406 2.4297 3.5625 1.2891 5.4141l-12.91 20.977c-0.74219 1.2109-2.0352 1.875-3.3555 1.875z"/>
  <path d="m556.62 369.63h-25.816c-2.1719 0-3.9375-1.7617-3.9375-3.9375 0-2.1719 1.7617-3.9375 3.9375-3.9375h25.816c2.1719 0 3.9375 1.7617 3.9375 3.9375 0 2.1758-1.7617 3.9375-3.9375 3.9375z"/>
  <path d="m261.32 369.63h-25.816c-2.1719 0-3.9375-1.7617-3.9375-3.9375 0-2.1719 1.7617-3.9375 3.9375-3.9375h25.816c2.1719 0 3.9375 1.7617 3.9375 3.9375 0 2.1758-1.7617 3.9375-3.9375 3.9375z"/>
  <path d="m328.46 259.9c-1.3203 0-2.6133-0.66406-3.3555-1.875l-12.91-20.977c-1.1406-1.8516-0.5625-4.2773 1.2891-5.4141 1.8516-1.1367 4.2773-0.5625 5.4141 1.2891l12.91 20.977c1.1406 1.8516 0.5625 4.2773-1.2891 5.4141-0.64453 0.39844-1.3555 0.58594-2.0586 0.58594z"/>
  <path d="m395.9 294.76c-2.1719 0-3.9375-1.7617-3.9375-3.9375v-22.27c0-2.1719 1.7617-3.9375 3.9375-3.9375 2.1719 0 3.9375 1.7617 3.9375 3.9375v22.27c-0.003906 2.1719-1.7656 3.9375-3.9375 3.9375z"/>
  <path d="m460.77 332.19c-1.3555 0-2.6719-0.69922-3.4023-1.9531-1.0938-1.8789-0.46094-4.2891 1.4141-5.3828l19.363-11.297c1.875-1.0938 4.2891-0.46094 5.3828 1.4141 1.0977 1.8789 0.46094 4.2891-1.4141 5.3828l-19.363 11.297c-0.625 0.36719-1.3086 0.53906-1.9805 0.53906z"/>
  <path d="m331.03 332.19c-0.67188 0-1.3555-0.17188-1.9805-0.53516l-19.363-11.297c-1.8789-1.0938-2.5117-3.5078-1.4141-5.3828 1.0938-1.8789 3.5039-2.5117 5.3828-1.4141l19.363 11.297c1.8789 1.0938 2.5117 3.5078 1.4141 5.3828-0.73047 1.2539-2.0508 1.9492-3.4023 1.9492z"/>
  <path d="m431.72 307.67c-0.67578 0-1.3555-0.17188-1.9805-0.53516-1.8789-1.0938-2.5117-3.5039-1.4141-5.3828l6.7773-11.617c1.0938-1.8789 3.5039-2.5117 5.3828-1.418s2.5117 3.5039 1.4141 5.3828l-6.7773 11.617c-0.73047 1.2539-2.0469 1.9531-3.4023 1.9531z"/>
  <path d="m360.41 307.67c-1.3281 0-2.6211-0.67188-3.3633-1.8828l-7.0977-11.617c-1.1328-1.8555-0.55078-4.2773 1.3086-5.4102 1.8555-1.1328 4.2773-0.55078 5.4102 1.3086l7.0977 11.617c1.1328 1.8555 0.55078 4.2773-1.3086 5.4102-0.64062 0.38672-1.3477 0.57422-2.0469 0.57422z"/>
  <path d="m411.44 480.15c-0.17188-0.22656-0.67188-0.59766-1.4961-1.1133-0.82812-0.51172-1.8789-1.0664-3.1602-1.6641s-2.707-1.168-4.2734-1.7109c-1.5703-0.53906-3.1484-0.92188-4.7422-1.1523v11.621l2.7344 0.68359c2.9062 0.79688 5.5234 1.6641 7.8594 2.6055 2.3359 0.94141 4.3164 2.1094 5.9375 3.5039 1.625 1.3984 2.875 3.0938 3.7578 5.0859 0.88281 1.9922 1.3242 4.3867 1.3242 7.1758 0 3.25-0.57031 6.0117-1.7109 8.2891-1.1367 2.2773-2.6641 4.1445-4.5703 5.5977-1.9062 1.4531-4.1016 2.5508-6.5781 3.2891-2.4805 0.73828-5.0859 1.168-7.8203 1.2812v9.9102h-5.8945v-9.9961c-3.9297-0.34375-7.8164-1.1367-11.664-2.3945-3.8438-1.25-7.3047-2.9062-10.383-4.957l6.1523-12.219c0.22656 0.28516 0.83984 0.75391 1.8359 1.4102s2.2656 1.3398 3.8008 2.0508c1.5391 0.71484 3.2773 1.3945 5.2109 2.0508 1.9336 0.65625 3.9297 1.125 5.9805 1.4102v-11.363l-4.1016-1.1953c-2.793-0.85547-5.2109-1.7812-7.2617-2.7773-2.0508-0.99609-3.7461-2.1484-5.0859-3.4609-1.3398-1.3086-2.3359-2.8203-2.9922-4.5312-0.65625-1.707-0.98438-3.7031-0.98438-5.9805 0-2.9609 0.51172-5.5977 1.5391-7.9062 1.0234-2.3047 2.4062-4.2852 4.1445-5.9375 1.7344-1.6523 3.7891-2.9453 6.1523-3.8867 2.3633-0.94141 4.9141-1.5508 7.6484-1.8359v-8.6289h5.8945v8.6289c3.7031 0.34375 7.1758 1.168 10.426 2.4766 3.25 1.3125 6.0664 2.6484 8.4609 4.0156zm-23.668-0.76953c0 1.4258 0.49609 2.5508 1.4961 3.3789 0.99609 0.82813 2.4922 1.5508 4.4883 2.1758v-10.512c-3.9922 0.34375-5.9844 1.9961-5.9844 4.957zm16.578 27.172c0-1.4805-0.59766-2.6328-1.793-3.4609-1.1992-0.82812-2.793-1.582-4.7852-2.2656v10.254c4.3828-0.16797 6.5781-1.6758 6.5781-4.5273z"/>
  <path d="m395.08 561.38c-37.438 0-67.895-30.457-67.895-67.895s30.457-67.895 67.895-67.895 67.895 30.457 67.895 67.895c0.003906 37.438-30.457 67.895-67.895 67.895zm0-127.92c-33.098 0-60.023 26.926-60.023 60.023 0 33.098 26.926 60.023 60.023 60.023s60.023-26.926 60.023-60.023c0-33.094-26.926-60.023-60.023-60.023z"/>
 </g>
</svg>