<?xml version="1.0" encoding="UTF-8"?>
<!-- The Best Svg Icon site in the world: iconSvg.co, Visit us! https://iconsvg.co -->
<svg fill="#000000" width="800px" height="800px" version="1.1" viewBox="144 144 512 512" xmlns="http://www.w3.org/2000/svg">
 <path d="m392.12 360.64h15.746c4.1758 0 8.1797 1.6602 11.133 4.6133s4.6094 6.957 4.6094 11.133c0 4.3477 3.5273 7.8711 7.875 7.8711 4.3477 0 7.8711-3.5234 7.8711-7.8711 0-8.3516-3.3164-16.359-9.2227-22.266s-13.914-9.2227-22.266-9.2227v-7.8711c0-4.3477-3.5234-7.875-7.8711-7.875s-7.875 3.5273-7.875 7.875v7.8711c-11.25 0-21.645 6-27.27 15.742-5.625 9.7422-5.625 21.746 0 31.488s16.02 15.746 27.27 15.746h15.746c5.625 0 10.82 3 13.633 7.8711 2.8125 4.8711 2.8125 10.875 0 15.746-2.8125 4.8711-8.0078 7.8711-13.633 7.8711h-15.746c-4.1758 0-8.1797-1.6602-11.133-4.6133-2.9492-2.9531-4.6094-6.957-4.6094-11.133 0-4.3477-3.5234-7.8711-7.8711-7.8711-4.3477 0-7.875 3.5234-7.875 7.8711 0 8.3516 3.3203 16.363 9.2227 22.266 5.9062 5.9062 13.914 9.2227 22.266 9.2227v7.875c0 4.3477 3.5273 7.8711 7.875 7.8711s7.8711-3.5234 7.8711-7.8711v-7.875c11.25 0 21.645-6 27.27-15.742s5.625-21.746 0-31.488c-5.625-9.7422-16.02-15.746-27.27-15.746h-15.746c-5.625 0-10.82-3-13.633-7.8711s-2.8125-10.871 0-15.742c2.8125-4.8711 8.0078-7.875 13.633-7.875zm146.31-86.59c-25.781-5.0742-50.699-13.816-74-25.961-17.812-9.3125-34.543-20.559-49.891-33.535-4.0664-3.4727-9.2109-5.4297-14.555-5.5352-5.3438-0.10938-10.562 1.6445-14.762 4.9531-15.723 12.199-32.531 22.941-50.207 32.086-23.613 12.207-48.625 21.492-74.484 27.645-5.1406 1.2305-9.7148 4.1641-12.98 8.3242-3.2617 4.1602-5.0234 9.2969-5 14.582v95.062c0.23047 45.141 15.672 88.887 43.828 124.17 28.156 35.285 67.383 60.047 111.34 70.289 1.2969 0.37891 2.6641 0.42578 3.9844 0.14062 44.09-10.137 83.461-34.875 111.73-70.195 28.266-35.324 43.77-79.16 43.996-124.4v-94.465 0.003906c0-5.4648-1.8945-10.758-5.3594-14.98-3.4648-4.2227-8.2852-7.1133-13.641-8.1797zm3.2578 117.62c-0.21094 41.363-14.285 81.457-39.973 113.87-25.688 32.418-61.508 55.281-101.72 64.938-40.219-9.6602-76.035-32.523-101.72-64.938-25.688-32.418-39.762-72.512-39.977-113.87v-95.062c-0.03125-3.5859 2.4062-6.7266 5.8906-7.5859 27.102-6.457 53.32-16.188 78.074-28.969 18.531-9.5938 36.148-20.855 52.633-33.645 2.793-2.1797 6.7305-2.1094 9.4453 0.17188 16.238 13.719 33.938 25.617 52.773 35.473 24.645 12.84 51.008 22.078 78.281 27.426 3.6758 0.70703 6.3242 3.9375 6.2969 7.6836zm-141.7-94.004c-27.145 0-53.172 10.781-72.363 29.973-19.191 19.191-29.973 45.219-29.973 72.363 0 27.141 10.781 53.168 29.973 72.359 19.191 19.195 45.219 29.977 72.363 29.977 27.141 0 53.168-10.781 72.359-29.977 19.195-19.191 29.977-45.219 29.977-72.359-0.035157-27.133-10.828-53.145-30.012-72.328-19.184-19.184-45.195-29.977-72.324-30.008zm0 188.93v-0.003906c-22.969 0-44.992-9.1211-61.23-25.363-16.238-16.238-25.363-38.262-25.363-61.227 0-22.969 9.125-44.992 25.363-61.23s38.262-25.363 61.23-25.363c22.965 0 44.988 9.125 61.227 25.363 16.242 16.238 25.363 38.262 25.363 61.23-0.027344 22.957-9.1602 44.965-25.395 61.195-16.23 16.234-38.238 25.367-61.195 25.395zm185.51-247.67c-35.508-6.5938-69.832-18.438-101.85-35.141-21.34-11.168-41.52-24.43-60.238-39.582-6.8047-5.4023-15.219-8.3867-23.91-8.4727-8.6914-0.089843-17.164 2.7227-24.078 7.9844-18.898 14.062-38.906 26.566-59.828 37.395-32.352 16.715-66.68 29.289-102.18 37.422-5.1719 1.1914-9.7852 4.1133-13.078 8.2812-3.293 4.168-5.0664 9.332-5.0273 14.641v129.1c0.30469 58.875 20.461 115.93 57.207 161.93 36.75 46 87.941 78.258 145.29 91.555 0.70703 0.19922 1.4414 0.30078 2.1758 0.30078 0.57422-0.003906 1.1523-0.066406 1.7148-0.19141 57.461-13.203 108.77-45.438 145.61-91.469 36.844-46.031 57.047-103.16 57.344-162.12v-128.48c0.007813-5.4883-1.9023-10.809-5.4023-15.035-3.4961-4.2266-8.3672-7.0938-13.758-8.1094zm3.4141 151.63c-0.30078 55.066-19.086 108.43-53.348 151.54-34.258 43.109-82.004 73.465-135.58 86.195-53.574-12.734-101.32-43.086-135.58-86.195-34.262-43.109-53.047-96.477-53.352-151.54v-129.1c-0.054687-3.6055 2.4062-6.7695 5.918-7.6016 36.773-8.4297 72.34-21.445 105.86-38.746 21.672-11.227 42.395-24.191 61.969-38.762 4.1094-3.1758 9.1602-4.8906 14.352-4.8711 5.1914 0.015625 10.23 1.7617 14.32 4.9648 19.535 15.809 40.586 29.641 62.848 41.297 33.414 17.43 69.234 29.781 106.29 36.652 3.6953 0.67578 6.3594 3.9258 6.2969 7.6836z"/>
</svg>