<?xml version="1.0" encoding="UTF-8"?>
<!-- The Best Svg Icon site in the world: iconSvg.co, Visit us! https://iconsvg.co -->
<svg fill="#000000" width="800px" height="800px" version="1.1" viewBox="144 144 512 512" xmlns="http://www.w3.org/2000/svg">
 <g>
  <path d="m414.72 414.38c0.042969-1.9805-1.043-3.8164-2.7969-4.7383-2.5977-1.4375-5.3711-2.5352-8.2461-3.2734v17.445c7.4297-0.76562 11.043-3.8477 11.043-9.4336z"/>
  <path d="m396.27 376.18c-2.6406 0.375-5.1445 1.4023-7.2891 2.9844-1.9141 1.4297-3.0078 3.7031-2.9375 6.0938-0.11328 2.1602 0.90234 4.2227 2.6797 5.457 2.3164 1.5078 4.8672 2.6211 7.5469 3.293z"/>
  <path d="m400 307.43c-24.539 0-48.07 9.75-65.422 27.098-17.352 17.352-27.098 40.883-27.098 65.422 0 24.535 9.7461 48.07 27.098 65.418 17.352 17.352 40.883 27.098 65.422 27.098 24.535 0 48.066-9.7461 65.418-27.098 17.352-17.348 27.098-40.883 27.098-65.418-0.023437-24.531-9.7773-48.051-27.121-65.395-17.348-17.348-40.867-27.102-65.395-27.125zm0 160.05c-17.914 0-35.09-7.1133-47.754-19.777-12.664-12.664-19.781-29.844-19.781-47.754s7.1133-35.086 19.777-47.754c12.664-12.664 29.844-19.777 47.754-19.781 17.91 0 35.086 7.1133 47.754 19.777 12.664 12.664 19.781 29.844 19.781 47.754-0.011719 17.906-7.1289 35.078-19.793 47.742-12.66 12.66-29.832 19.781-47.738 19.793z"/>
  <path d="m400 341.58c-15.484 0-30.332 6.1523-41.277 17.098-10.949 10.949-17.098 25.797-17.098 41.277 0 15.484 6.1523 30.332 17.098 41.277 10.949 10.945 25.797 17.098 41.277 17.094 15.484 0 30.332-6.1484 41.277-17.098 10.945-10.949 17.094-25.797 17.094-41.277-0.011719-15.48-6.1641-30.32-17.109-41.262-10.945-10.945-25.785-17.098-41.262-17.109zm22.031 82.629h-0.003906c-1.9531 2.8594-4.6406 5.1328-7.7852 6.5781-3.3281 1.5586-6.9141 2.4805-10.578 2.7266v5.6328c0.023438 0.97656-0.35156 1.9219-1.0469 2.6094-1.4883 1.3672-3.7695 1.3945-5.293 0.066406-0.71875-0.69922-1.1055-1.6719-1.0625-2.6758v-5.6328c-6.1602-0.45312-12.207-1.9102-17.898-4.3125-0.90625-0.375-1.6797-1.0156-2.2227-1.832-1.3281-1.8633-1.1602-4.4023 0.39844-6.0742 0.85938-0.94922 2.0898-1.4766 3.3672-1.4453 0.72656 0 1.4492 0.15625 2.1094 0.45703 4.5078 2 9.3281 3.1914 14.246 3.5195v-19.332c-3.3906-0.88672-6.7109-2.0312-9.9258-3.4258-2.8867-1.2891-5.4258-3.2461-7.4062-5.707-2.082-2.7109-3.1562-6.0664-3.0312-9.4805-0.019532-3.2383 0.82422-6.4219 2.4492-9.2266 1.7656-2.9375 4.2734-5.3555 7.2773-7.0078 3.2891-1.8008 6.9102-2.9023 10.645-3.2305v-5.5664c-0.050781-1.5195 0.83984-2.9141 2.2422-3.5039 1.3984-0.58984 3.0195-0.25 4.0703 0.84766 0.71484 0.69531 1.1094 1.6602 1.0898 2.6562v5.4336c5.2305 0.21484 10.395 1.2383 15.312 3.0312 1.957 0.60156 3.2578 2.4609 3.1445 4.5078 0 1.1914-0.43359 2.3438-1.2188 3.2422-0.82812 0.99219-2.0664 1.5469-3.3555 1.5117-0.62109-0.03125-1.2305-0.17578-1.7969-0.42578-3.8984-1.3477-7.9648-2.1406-12.086-2.3555v20.055c3.5312 0.81641 6.9922 1.9062 10.355 3.2578 2.9766 1.2383 5.5938 3.1992 7.6211 5.7031 2.1875 2.9102 3.293 6.4883 3.1289 10.125 0.027344 3.2969-0.92969 6.5273-2.75 9.2734z"/>
  <path d="m341.05 458.95c1.7852 1.8008 1.7852 4.7031 0 6.5039l-61.695 61.691c2.4414 3.6602 3.7344 7.9688 3.7109 12.367-0.003906 5.9844-2.3789 11.723-6.6094 15.957-4.2305 4.2305-9.9688 6.6094-15.953 6.6133-5.9844 0.003906-11.727-2.3672-15.961-6.5938-4.2344-4.2305-6.6211-9.9648-6.6289-15.949-0.007813-5.9844 2.3594-11.727 6.582-15.965 4.2266-4.2383 9.9609-6.6289 15.941-6.6406h0.046875c4.3984-0.011719 8.7031 1.2773 12.367 3.707l61.695-61.691c1.7969-1.7891 4.7031-1.7891 6.5039 0z"/>
  <path d="m312.02 404.58h-87.207c-1.5234 7.3633-6.6133 13.484-13.578 16.328-6.9609 2.8398-14.883 2.0273-21.125-2.168-6.2422-4.1914-9.9844-11.219-9.9844-18.738 0-7.5234 3.7422-14.547 9.9844-18.742 6.2422-4.1953 14.164-5.0078 21.125-2.1641 6.9648 2.8398 12.055 8.9609 13.578 16.324h87.207c2.5273 0 4.5781 2.0508 4.5781 4.582 0 2.5273-2.0508 4.5781-4.5781 4.5781z"/>
  <path d="m341.05 334.55c1.7852 1.7969 1.7852 4.7031 0 6.5039-0.87891 0.83984-2.0391 1.3125-3.2539 1.3281-1.2148-0.007812-2.3789-0.48437-3.25-1.3281l-61.695-61.695c-3.6602 2.4414-7.9648 3.7344-12.367 3.7109-5.9805 0.023438-11.723-2.3516-15.938-6.5977-5.3555-5.3242-7.6953-12.977-6.2344-20.383 1.4609-7.4102 6.5312-13.602 13.504-16.496 6.9766-2.8945 14.938-2.1133 21.215 2.0859 6.2812 4.1992 10.043 11.258 10.035 18.809 0 4.3984-1.2891 8.6992-3.7109 12.367z"/>
  <path d="m458.95 341.05c-1.7891-1.8008-1.7891-4.707 0-6.5039l61.691-61.648v-0.046875c-3.1328-4.7852-4.332-10.582-3.3555-16.215 0.97656-5.6367 4.0547-10.691 8.6172-14.145 4.5586-3.4492 10.262-5.043 15.949-4.4492 5.6914 0.58984 10.941 3.3203 14.695 7.6367 3.7539 4.3164 5.7266 9.8945 5.5234 15.609-0.20312 5.7188-2.5703 11.145-6.6211 15.18-3.6641 3.6641-8.4805 5.9531-13.637 6.4805-5.1562 0.52344-10.336-0.74609-14.668-3.5938l-61.691 61.695c-0.87109 0.84375-2.0391 1.3203-3.2539 1.3281-1.2109-0.015624-2.375-0.48828-3.25-1.3281z"/>
  <path d="m619.84 399.95c0.019531 7.5234-3.7109 14.559-9.9492 18.766-6.2344 4.2031-14.16 5.0234-21.125 2.1875-6.9648-2.8398-12.059-8.9609-13.582-16.328h-87.207c-2.5273 0-4.5781-2.0508-4.5781-4.5781 0-2.5312 2.0508-4.582 4.5781-4.582h87.207c1.5195-7.3555 6.6016-13.473 13.555-16.316 6.9531-2.8398 14.863-2.0391 21.102 2.1445s9.9883 11.195 10 18.707z"/>
  <path d="m422.58 202.69c-0.007813 5.1914-1.8008 10.227-5.0781 14.254s-7.8398 6.8047-12.922 7.8672v87.207c0 2.5273-2.0508 4.5781-4.5781 4.5781-2.5312 0-4.582-2.0508-4.582-4.5781v-87.207c-5.5977-1.1641-10.543-4.4062-13.84-9.0781-3.2969-4.668-4.6992-10.414-3.9219-16.078 0.77734-5.6641 3.6719-10.82 8.1055-14.434 4.4336-3.6094 10.07-5.4023 15.773-5.0156 5.7031 0.38281 11.047 2.9219 14.953 7.0938 3.9062 4.1758 6.082 9.6758 6.0898 15.391z"/>
  <path d="m555.45 523.52c4.0664 4.0391 6.4453 9.4727 6.6523 15.199 0.21094 5.7266-1.7656 11.32-5.5234 15.645-3.7578 4.3242-9.0195 7.0625-14.719 7.6523-5.6992 0.59375-11.41-1-15.98-4.4609-4.5664-3.4609-7.6484-8.5273-8.6211-14.176-0.97266-5.6445 0.23828-11.453 3.3828-16.242l-61.691-61.691c-1.7969-1.7969-1.7969-4.7109 0-6.5039 1.793-1.7969 4.707-1.7969 6.5039 0l61.648 61.691h0.046875-0.003906c4.332-2.8477 9.5117-4.1172 14.668-3.5938 5.1562 0.52734 9.9727 2.8164 13.637 6.4805z"/>
  <path d="m422.58 597.26c0.007813 5.7266-2.1562 11.238-6.0586 15.43-3.9023 4.1875-9.25 6.7383-14.961 7.1328-5.7109 0.39453-11.359-1.3945-15.801-5.0039-4.4453-3.6133-7.3477-8.7734-8.1289-14.445s0.625-11.43 3.9258-16.105c3.3047-4.6758 8.2578-7.9219 13.863-9.082v-87.207c0-2.5273 2.0508-4.5781 4.582-4.5781 2.5273 0 4.5781 2.0508 4.5781 4.5781v87.207c5.0781 1.0547 9.6406 3.8242 12.918 7.8438s5.0742 9.043 5.082 14.23z"/>
 </g>
</svg>