<?xml version="1.0" encoding="UTF-8"?>
<!-- The Best Svg Icon site in the world: iconSvg.co, Visit us! https://iconsvg.co -->
<svg fill="#000000" width="800px" height="800px" version="1.1" viewBox="144 144 512 512" xmlns="http://www.w3.org/2000/svg">
 <g>
  <path d="m331.12 493.48h38.375v35.426h-38.375z"/>
  <path d="m281.92 398.03h37.391v35.426h-37.391z"/>
  <path d="m381.3 445.26h38.375v36.406h-38.375z"/>
  <path d="m381.3 493.48h38.375v35.426h-38.375z"/>
  <path d="m331.12 445.26h38.375v36.406h-38.375z"/>
  <path d="m281.92 445.26h37.391v36.406h-37.391z"/>
  <path d="m281.92 493.48h37.391v35.426h-37.391z"/>
  <path d="m466.59 291.66c0.011719-9.3281 1.5039-18.594 4.4297-27.453h-275.76c-13.227 0-23.551 11.082-23.551 24.305v41.621h303.86c-5.8945-11.969-8.9648-25.129-8.9766-38.473z"/>
  <path d="m235.67 493.48h34.441v35.426h-34.441z"/>
  <path d="m235.67 445.26h34.441v36.406h-34.441z"/>
  <path d="m235.67 398.03h34.441v35.426h-34.441z"/>
  <path d="m331.12 398.03h38.375v35.426h-38.375z"/>
  <path d="m480.69 398.03h35.426v35.426h-35.426z"/>
  <path d="m480.69 445.26h35.426v36.406h-35.426z"/>
  <path d="m381.3 398.03h38.375v35.426h-38.375z"/>
  <path d="m553.56 216.79c-19.934 0-39.051 7.918-53.148 22.016-14.094 14.094-22.012 33.211-22.012 53.145 0 19.934 7.918 39.051 22.012 53.145 14.098 14.098 33.215 22.016 53.148 22.016s39.051-7.9219 53.145-22.016 22.012-33.211 22.012-53.145c-0.019531-19.926-7.9453-39.031-22.039-53.121-14.09-14.09-33.191-22.016-53.117-22.039zm0 71.938c9.0273 0 17.457 4.5273 22.438 12.062 4.9805 7.5312 5.8516 17.059 2.3125 25.367-3.5352 8.3086-11.008 14.289-19.891 15.918v5.7773c0 3.2578-2.6406 5.9023-5.9023 5.9023s-5.9062-2.6445-5.9062-5.9023v-6.2422c-5.7148-1.5391-10.77-4.9141-14.375-9.6094-3.6055-4.6953-5.5664-10.449-5.5742-16.371 0-3.2578 2.6445-5.9023 5.9023-5.9023 3.2617 0 5.9062 2.6445 5.9062 5.9023 0 4.0039 1.5898 7.8398 4.418 10.672 2.832 2.8281 6.668 4.418 10.672 4.4219 4 0 7.8398-1.5898 10.668-4.4219 2.832-2.8281 4.4219-6.668 4.4219-10.672 0-4-1.5898-7.8398-4.4219-10.668-2.8281-2.832-6.668-4.418-10.668-4.418-8.7812 0.003907-17.012-4.2773-22.051-11.473-5.0352-7.1914-6.2422-16.391-3.2344-24.641 3.0078-8.25 9.8516-14.512 18.336-16.773v-6.0781c0-3.2617 2.6445-5.9023 5.9062-5.9023s5.9023 2.6406 5.9023 5.9023v5.6094c6.1836 1.1445 11.77 4.4141 15.797 9.2422 4.0234 4.832 6.2305 10.918 6.2383 17.207 0 3.2578-2.6406 5.9023-5.9023 5.9023-3.2617 0-5.9023-2.6445-5.9023-5.9023 0-4.0039-1.5898-7.8438-4.4219-10.672-2.8281-2.8281-6.668-4.418-10.668-4.418-4.0039 0-7.8398 1.5898-10.672 4.418-2.8281 2.8281-4.418 6.668-4.418 10.672 0 4 1.5898 7.8398 4.418 10.668 2.832 2.8281 6.668 4.418 10.672 4.418z"/>
  <path d="m195.26 583.02h360.46c13.223 0 24.352-10.57 24.352-23.797v-184.33c-8.5352 2.5859-17.406 3.8984-26.324 3.8945-28.32 0.13672-54.906-13.633-71.133-36.848h-310.9v217.29c-0.085938 6.2969 2.3633 12.359 6.7891 16.832s10.465 6.9844 16.762 6.9648zm28.602-190.9c0-3.2578 2.6406-5.9023 5.9023-5.9023h292.25c3.2617 0 5.9023 2.6445 5.9023 5.9023v142.68c0 3.2578-2.6406 5.9023-5.9023 5.9023h-292.25c-3.2617 0-5.9023-2.6445-5.9023-5.9023z"/>
  <path d="m480.69 493.48h35.426v35.426h-35.426z"/>
  <path d="m431.49 493.48h37.391v35.426h-37.391z"/>
  <path d="m431.49 445.26h37.391v36.406h-37.391z"/>
  <path d="m431.49 398.03h37.391v35.426h-37.391z"/>
 </g>
</svg>