<?xml version="1.0" encoding="UTF-8"?>
<!-- The Best Svg Icon site in the world: iconSvg.co, Visit us! https://iconsvg.co -->
<svg fill="#000000" width="800px" height="800px" version="1.1" viewBox="144 144 512 512" xmlns="http://www.w3.org/2000/svg">
 <g>
  <path d="m580 255.96h-43.605c-7.3281-0.011719-14.355-2.9258-19.535-8.1055-5.1836-5.1836-8.0938-12.211-8.1016-19.535v-43.586c0-1.8516 1.1133-3.5234 2.8281-4.2305 1.7109-0.70703 3.6797-0.31641 4.9883 0.99219l66.633 66.645c1.3086 1.3086 1.6992 3.2812 0.99219 4.9922-0.71094 1.7109-2.3789 2.8242-4.2305 2.8281zm-62.082-60.164v32.52-0.003906c0.003907 4.9023 1.9531 9.5977 5.4141 13.062 3.4648 3.4648 8.1602 5.4141 13.062 5.418h32.52z"/>
  <path d="m408.01 291.22c-2.5117 0.35938-4.8984 1.3398-6.9414 2.8516-1.8242 1.3672-2.8711 3.5391-2.8047 5.8164-0.10938 2.0664 0.85547 4.0391 2.5547 5.2188 2.2109 1.4336 4.6406 2.4961 7.1914 3.1406z"/>
  <path d="m425.73 327.88c0.03125-1.8906-1-3.6406-2.6719-4.5273-2.4805-1.3672-5.125-2.418-7.8672-3.125v16.656c7.0859-0.72656 10.539-3.6758 10.539-9.0039z"/>
  <path d="m411.62 369.88c14.824 0.015626 29.043-5.8633 39.531-16.336 10.488-10.477 16.387-24.688 16.395-39.508 0.007813-14.824-5.875-29.043-16.352-39.527-10.477-10.484-24.688-16.379-39.512-16.383-14.82-0.003906-29.039 5.8828-39.52 16.363-10.484 10.477-16.371 24.691-16.371 39.516 0.015625 14.805 5.8984 29.004 16.367 39.477 10.465 10.477 24.656 16.371 39.461 16.398zm-13.121-54.766c-2.7812-1.2422-5.2266-3.125-7.1367-5.4961-2.0039-2.6094-3.0352-5.8359-2.9141-9.125-0.023438-3.1172 0.78906-6.1836 2.3555-8.8789 1.6953-2.832 4.1133-5.1562 7.0039-6.7422 3.1484-1.7305 6.6211-2.7852 10.199-3.1055v-5.3125c-0.035156-1.4688 0.83203-2.8086 2.1875-3.375 1.3516-0.57031 2.9141-0.25391 3.9375 0.80078 0.69141 0.67578 1.0742 1.6055 1.0586 2.5742v5.1836c5.0078 0.20703 9.9492 1.1914 14.656 2.9141 1.8984 0.57812 3.1602 2.3789 3.0508 4.3633 0 1.1523-0.42188 2.2656-1.1836 3.1328-0.80469 0.95703-2 1.4961-3.25 1.4648-0.60156-0.03125-1.1953-0.17188-1.7461-0.41797-3.7266-1.2891-7.6133-2.0508-11.551-2.25v19.191-0.003906c3.3867 0.78125 6.7031 1.8281 9.9258 3.1289 2.8594 1.1953 5.3789 3.082 7.3281 5.4961 2.1055 2.7969 3.1719 6.2422 3.0117 9.7422 0.027344 3.1758-0.89844 6.2852-2.6523 8.9297-1.8633 2.7461-4.4414 4.9336-7.4492 6.332-3.1914 1.4922-6.6289 2.3828-10.141 2.6211v5.3789-0.003906c0.03125 0.94531-0.32812 1.8633-0.99609 2.5391-1.4453 1.3203-3.6523 1.3516-5.1328 0.066406-0.69531-0.67969-1.0742-1.625-1.0352-2.6016v-5.3906c-5.9062-0.43359-11.703-1.8281-17.168-4.1211-0.87109-0.36719-1.6211-0.98047-2.1445-1.7695-1.2852-1.8008-1.125-4.2578 0.38281-5.875 1.3789-1.4219 3.5117-1.8086 5.3047-0.96094 4.3086 1.9141 8.9219 3.0547 13.625 3.375v-18.523c-3.2539-0.84766-6.4414-1.9453-9.5273-3.2812z"/>
  <path d="m313.07 444.28c0.75391-2.4102 3.3203-3.7539 5.7344-3.0039 23.633 7.9336 46.207 18.742 67.207 32.176 0.63672-6.4922-0.09375-13.043-2.1406-19.234-2.0312-6.6953-5.6445-12.801-10.531-17.805-17.746-17.613-49.727-19.043-95.086-4.293h-0.003906c9.3008 10.449 17.387 21.918 24.102 34.188 11.41 19.281 20.422 34.508 40.785 35.812 15.844 1.6367 28.578-2.5195 36.031-11.672 1.8555-2.2852 3.3633-4.8281 4.4805-7.5508-21.082-13.73-43.789-24.781-67.598-32.898-2.3945-0.76562-3.7227-3.3164-2.9805-5.7188z"/>
  <path d="m445.73 476.48c-3.9141 4.0195-6.8047 8.918-8.4297 14.285-2.3203 6.7109-2.5273 13.973-0.58594 20.805 16.82-10.184 34.492-18.891 52.82-26.016 2.3633-0.89453 5.0078 0.29688 5.9062 2.6641 0.89453 2.3672-0.29688 5.0117-2.6641 5.9062-17.965 7.043-35.293 15.605-51.801 25.594l0.027344 0.035156c5.9531 7.3008 16.137 10.621 28.723 9.2969 16.465-1.0547 23.77-13.391 33.02-29.016l-0.003907 0.003907c5.3516-9.7461 11.73-18.891 19.023-27.281-13.699-4.7578-28.035-7.4062-42.527-7.8594-14.531 0-25.727 3.8555-33.508 11.582z"/>
  <path d="m580 246.8h-43.602c-4.8945-0.011719-9.582-1.957-13.043-5.418-3.4609-3.457-5.4062-8.1484-5.4141-13.043v-43.605c0-1.2148-0.48438-2.3789-1.3438-3.2383s-2.0234-1.3398-3.2383-1.3398h-279.36c-4.9141 0.007812-9.625 1.9648-13.102 5.4414-3.4766 3.4766-5.4375 8.1914-5.4453 13.105v402.59c0.007813 4.918 1.9688 9.6289 5.4453 13.105 3.4766 3.4766 8.1875 5.4336 13.102 5.4453h332.01c4.918-0.011719 9.6289-1.9688 13.105-5.4453 3.4766-3.4766 5.4336-8.1875 5.4453-13.105v-349.92c-0.003907-2.5195-2.0391-4.5625-4.5586-4.5742zm-46.684 227.34c-9.0703 8.9766-16.719 19.281-22.691 30.559-9.7773 16.523-19.02 32.129-40.141 33.484-2.0195 0.21094-4.0547 0.32031-6.0859 0.32031-11.617 0.58203-22.859-4.1953-30.504-12.965-0.19531-0.24219-0.34375-0.51172-0.53125-0.76172-6.3594 4.3047-12.145 9.3984-17.215 15.164v30.492c0 2.5273-2.0508 4.5781-4.582 4.5781-2.5273 0-4.5781-2.0508-4.5781-4.5781v-69.617c-5.0078-4.4805-10.242-8.6953-15.688-12.629-1.3281 2.8789-3 5.5898-4.9805 8.0664-9.1445 10.457-22.586 16.141-36.461 15.41-2.4844-0.003906-4.9648-0.13281-7.4336-0.38672-25.02-1.6016-36.137-20.391-47.906-40.277-7.3203-13.82-16.699-26.441-27.816-37.434-1.1875-1.0898-1.7148-2.7188-1.3945-4.2969 0.32422-1.5781 1.4531-2.8711 2.9688-3.4023 52.672-18.488 90.227-17.105 111.56 4.0664 5.9336 6.043 10.324 13.426 12.797 21.527 2.9766 8.8945 3.5703 18.41 1.7227 27.609 4.2812 3.0273 8.5234 6.2344 12.66 9.6406v-85.91c-31.223-1.6094-59.309-19.473-74.004-47.066-14.691-27.594-13.836-60.871 2.2578-87.672 16.094-26.801 45.062-43.199 76.324-43.199 31.262 0 60.234 16.398 76.324 43.199 16.094 26.801 16.953 60.078 2.2578 87.672-14.691 27.594-42.781 45.457-74 47.066v124c4-3.6016 8.2266-6.9414 12.652-10.004-3.4102-9.2734-3.5039-19.441-0.25781-28.773 2.0703-6.7812 5.7461-12.961 10.711-18.02 17.77-17.637 48.879-18.828 92.457-3.5312 1.5195 0.53516 2.6445 1.8242 2.9688 3.4023 0.32031 1.5742-0.20703 3.2031-1.3906 4.293z"/>
  <path d="m411.57 393.83c0.054688 0 0.10156 0.027344 0.15625 0.03125v0.003907c28.945-0.050782 55.668-15.531 70.113-40.617 14.441-25.086 14.414-55.969-0.070313-81.027-14.488-25.059-41.238-40.492-70.184-40.492-28.945 0-55.695 15.434-70.184 40.492-14.488 25.059-14.516 55.941-0.070313 81.027 14.441 25.086 41.164 40.566 70.113 40.617 0.039063-0.015626 0.082032-0.023438 0.125-0.035157zm-64.934-79.82c0-17.25 6.8516-33.797 19.055-45.992 12.199-12.199 28.746-19.051 45.996-19.043 17.25 0.003907 33.797 6.8594 45.988 19.062 12.195 12.203 19.043 28.75 19.035 46.004-0.007812 17.25-6.8711 33.793-19.078 45.984-12.203 12.191-28.754 19.035-46.008 19.023-17.234-0.027343-33.758-6.8906-45.941-19.082-12.184-12.191-19.035-28.719-19.047-45.957z"/>
 </g>
</svg>