<?xml version="1.0" encoding="UTF-8"?>
<!-- The Best Svg Icon site in the world: iconSvg.co, Visit us! https://iconsvg.co -->
<svg fill="#000000" width="800px" height="800px" version="1.1" viewBox="144 144 512 512" xmlns="http://www.w3.org/2000/svg">
 <g>
  <path d="m612.54 305.54h-86.594v-102.34c-0.011719-10.438-4.1602-20.441-11.539-27.82s-17.383-11.527-27.82-11.543h-283.39c-10.438 0.015624-20.441 4.1641-27.82 11.543s-11.527 17.383-11.543 27.82v393.6c0.015624 10.434 4.1641 20.438 11.543 27.816 7.3789 7.3789 17.383 11.531 27.82 11.543h409.34c6.2617 0 12.27-2.4883 16.699-6.918 4.4297-4.4297 6.918-10.438 6.918-16.699v-283.39c0-6.2617-2.4883-12.27-6.918-16.695-4.4297-4.4297-10.438-6.918-16.699-6.918zm-149.57-125.95v51.844l-10.18-10.176c-3.0742-3.0742-8.0586-3.0742-11.133 0l-10.176 10.176v-51.844zm-283.39 417.22v-393.6c0-6.2656 2.4883-12.273 6.918-16.699 4.4258-4.4297 10.434-6.918 16.699-6.918h212.54v70.848c0 3.1836 1.918 6.0547 4.8594 7.2734 2.9414 1.2148 6.3281 0.54297 8.5781-1.707l18.051-18.051 18.051 18.051c1.4766 1.4766 3.4766 2.3047 5.5664 2.3047 1.0352 0.003907 2.0586-0.19922 3.0156-0.59766 2.9375-1.2188 4.8555-4.0898 4.8555-7.2734v-70.848h7.8711c6.2656 0 12.27 2.4883 16.699 6.918 4.4297 4.4258 6.918 10.434 6.918 16.699v102.34h-102.34c-6.2656 0-12.27 2.4883-16.699 6.918-4.4297 4.4258-6.918 10.434-6.918 16.695v283.39c0.027344 2.6875 0.51562 5.3516 1.4492 7.8711h-182.5c-6.2656 0-12.273-2.4883-16.699-6.9141-4.4297-4.4297-6.918-10.438-6.918-16.699zm440.83 15.742c0 2.0898-0.82812 4.0898-2.3047 5.5664s-3.4766 2.3047-5.5664 2.3047h-204.67c-4.3477 0-7.8711-3.5234-7.8711-7.8711v-283.39c0-4.3477 3.5234-7.8711 7.8711-7.8711h204.67c2.0898 0 4.0898 0.83203 5.5664 2.3047 1.4766 1.4766 2.3047 3.4805 2.3047 5.5664z"/>
  <path d="m510.21 384.25c2.0859 0 4.0898 0.82812 5.5664 2.3047 1.4766 1.4766 2.3047 3.4805 2.3047 5.5664h15.746c-0.019531-4.8672-1.543-9.6055-4.3633-13.574-2.8164-3.9688-6.793-6.9688-11.383-8.5938v-9.3203h-15.742v9.3203c-7.0547 2.4883-12.512 8.1719-14.703 15.324-2.1875 7.1523-0.85547 14.918 3.5977 20.93 4.457 6.0078 11.496 9.5469 18.977 9.5312 3.1836 0 6.0547 1.918 7.2734 4.8594 1.2188 2.9414 0.54297 6.3281-1.707 8.5781-2.25 2.2539-5.6367 2.9258-8.5781 1.707-2.9414-1.2188-4.8594-4.0898-4.8594-7.2734h-15.746c0.019531 4.8672 1.543 9.6094 4.3633 13.578 2.8164 3.9688 6.793 6.9688 11.383 8.5898v9.3203h15.742v-9.3203c7.0547-2.4844 12.512-8.1719 14.703-15.32 2.1875-7.1523 0.85156-14.922-3.6016-20.93-4.4531-6.0078-11.492-9.5469-18.973-9.5312-4.3477 0-7.8711-3.5273-7.8711-7.875s3.5234-7.8711 7.8711-7.8711z"/>
  <path d="m281.92 258.3c2.0898 0 4.0898 0.83203 5.5664 2.3086s2.3047 3.4766 2.3047 5.5664h15.746c-0.019531-4.8672-1.543-9.6094-4.3633-13.578-2.8164-3.9688-6.793-6.9688-11.383-8.5898v-9.3203h-15.742v9.3203c-7.0547 2.4844-12.512 8.1719-14.703 15.32-2.1875 7.1523-0.85156 14.918 3.6016 20.93 4.4531 6.0078 11.492 9.5469 18.973 9.5312 3.1836 0 6.0547 1.918 7.2734 4.8594 1.2188 2.9414 0.54297 6.3281-1.707 8.582-2.25 2.25-5.6367 2.9219-8.5781 1.7031s-4.8594-4.0859-4.8594-7.2695h-15.746c0.019531 4.8633 1.543 9.6055 4.3633 13.574 2.8164 3.9688 6.793 6.9688 11.383 8.5898v9.3203h15.742v-9.3203c7.0547-2.4844 12.512-8.168 14.703-15.32 2.1875-7.1523 0.85547-14.918-3.5977-20.93-4.457-6.0078-11.496-9.5469-18.977-9.5312-4.3477 0-7.8711-3.5234-7.8711-7.8711 0-4.3477 3.5234-7.875 7.8711-7.875z"/>
  <path d="m588.93 337.02h-157.44c-4.1758 0-8.1836 1.6562-11.133 4.6094-2.9531 2.9531-4.6133 6.957-4.6133 11.133v110.21c0 4.1719 1.6602 8.1797 4.6133 11.133 2.9492 2.9492 6.957 4.6094 11.133 4.6094h157.44c4.1758 0 8.1797-1.6602 11.133-4.6094 2.9531-2.9531 4.6133-6.9609 4.6133-11.133v-110.21c0-4.1758-1.6602-8.1797-4.6133-11.133-2.9531-2.9531-6.957-4.6094-11.133-4.6094zm-157.44 125.95v-110.21h157.44v110.21z"/>
  <path d="m596.8 494.46h-173.19c-4.3477 0-7.8711 3.5273-7.8711 7.875v94.465c0 2.0859 0.82812 4.0898 2.3047 5.5664 1.4766 1.4727 3.4805 2.3047 5.5664 2.3047h173.19c2.0859 0 4.0898-0.83203 5.5664-2.3047 1.4727-1.4766 2.3047-3.4805 2.3047-5.5664v-94.465c0-2.0898-0.83203-4.0898-2.3047-5.5664-1.4766-1.4766-3.4805-2.3086-5.5664-2.3086zm-70.852 94.465h-39.359v-31.488h39.359zm0-47.23h-39.359v-31.488h39.359zm-55.105-31.488v31.488h-39.355v-31.488zm-39.359 47.23h39.359v31.488h-39.355zm157.44 31.488h-47.23v-78.719h47.23z"/>
  <path d="m211.07 384.25h47.23v15.742h-47.23z"/>
  <path d="m274.05 384.25h78.719v15.742h-78.719z"/>
  <path d="m211.07 415.74h141.7v15.742h-141.7z"/>
  <path d="m211.07 447.23h94.465v15.742h-94.465z"/>
  <path d="m321.28 447.23h31.488v15.742h-31.488z"/>
  <path d="m281.92 211.07c-18.789 0-36.809 7.4648-50.098 20.75-13.285 13.289-20.75 31.309-20.75 50.098 0 18.789 7.4648 36.812 20.75 50.098 13.289 13.285 31.309 20.75 50.098 20.75 18.789 0 36.812-7.4648 50.098-20.75s20.75-31.309 20.75-50.098c-0.019531-18.785-7.4922-36.793-20.773-50.074s-31.289-20.754-50.074-20.773zm0 125.95c-14.613 0-28.629-5.8086-38.965-16.141-10.332-10.336-16.141-24.352-16.141-38.965s5.8086-28.629 16.141-38.965c10.336-10.332 24.352-16.141 38.965-16.141s28.629 5.8086 38.965 16.141c10.332 10.336 16.141 24.352 16.141 38.965-0.019532 14.609-5.8281 28.617-16.16 38.945-10.328 10.332-24.336 16.141-38.945 16.16z"/>
  <path d="m211.07 494.46h141.7v15.742h-141.7z"/>
  <path d="m211.07 525.95h141.7v15.742h-141.7z"/>
  <path d="m211.07 557.44h141.7v15.742h-141.7z"/>
 </g>
</svg>