<?xml version="1.0" encoding="UTF-8"?>
<!-- The Best Svg Icon site in the world: iconSvg.co, Visit us! https://iconsvg.co -->
<svg width="800px" height="800px" version="1.1" viewBox="144 144 512 512" xmlns="http://www.w3.org/2000/svg">
 <defs>
  <clipPath id="a">
   <path d="m162 148.09h489.9v489.91h-489.9z"/>
  </clipPath>
 </defs>
 <g clip-path="url(#a)">
  <path d="m392.12 360.64h15.746c4.1758 0 8.1797 1.6602 11.133 4.6133s4.6094 6.957 4.6094 11.133c0 4.3477 3.5273 7.8711 7.875 7.8711 4.3477 0 7.8711-3.5234 7.8711-7.8711 0-8.3516-3.3164-16.359-9.2227-22.266s-13.914-9.2227-22.266-9.2227v-7.8711c0-4.3477-3.5234-7.875-7.8711-7.875s-7.875 3.5273-7.875 7.875v7.8711c-11.25 0-21.645 6-27.27 15.742-5.625 9.7422-5.625 21.746 0 31.488s16.02 15.746 27.27 15.746h15.746c5.625 0 10.82 3 13.633 7.8711 2.8125 4.8711 2.8125 10.875 0 15.746-2.8125 4.8711-8.0078 7.8711-13.633 7.8711h-15.746c-4.1758 0-8.1797-1.6602-11.133-4.6133-2.9492-2.9531-4.6094-6.957-4.6094-11.133 0-4.3477-3.5234-7.8711-7.8711-7.8711-4.3477 0-7.875 3.5234-7.875 7.8711 0 8.3516 3.3203 16.363 9.2227 22.266 5.9062 5.9062 13.914 9.2227 22.266 9.2227v7.875c0 4.3477 3.5273 7.8711 7.875 7.8711s7.8711-3.5234 7.8711-7.8711v-7.875c11.25 0 21.645-6 27.27-15.742s5.625-21.746 0-31.488c-5.625-9.7422-16.02-15.746-27.27-15.746h-15.746c-5.625 0-10.82-3-13.633-7.8711s-2.8125-10.871 0-15.742c2.8125-4.8711 8.0078-7.875 13.633-7.875zm251.91-165.31h-28.23l18.043-18.043v0.003906c2.9844-3.0898 2.9414-8-0.09375-11.035-3.0391-3.0391-7.9492-3.082-11.035-0.097656l-18.043 18.043v-28.23c0-4.3477-3.5234-7.8711-7.8711-7.8711-4.3477 0-7.875 3.5234-7.875 7.8711v43.973l-27.852 27.852c-45.402-42.484-105.68-65.426-167.85-63.875-62.16 1.5469-121.23 27.461-164.46 72.156-43.23 44.691-67.168 104.59-66.652 166.77 0.51562 62.18 25.445 121.66 69.414 165.63s103.46 68.898 165.64 69.418c62.18 0.51562 122.07-23.426 166.76-66.656 44.695-43.234 70.609-102.3 72.156-164.46 1.5508-62.16-21.391-122.45-63.875-167.85l27.852-27.852h43.973c4.3477 0 7.8711-3.5234 7.8711-7.8711 0-4.3477-3.5234-7.875-7.8711-7.875zm-236.16-15.352v0.003906c52.926 1.8398 103.39 22.773 142.09 58.93l-33.457 33.391c-29.801-27.305-68.254-43.258-108.63-45.074zm101.94 212.15c-1.6758-23.715-11.02-46.246-26.621-64.188l33.312-33.426c24.391 26.867 38.695 61.371 40.461 97.613zm47.23 15.742 0.003906 0.003906c-1.9961 38.918-18.352 75.711-45.91 103.27-27.555 27.559-64.348 43.914-103.27 45.91v-47.234c26.402-1.9141 51.234-13.27 69.953-31.988s30.074-43.551 31.988-69.953zm-149.17-164.91c36.254 1.7891 70.758 16.121 97.613 40.539l-33.379 33.379c-17.945-15.637-40.492-25.004-64.234-26.688zm-15.742-62.977v47.23h-0.003906c-43.09 2.0117-83.879 20.035-114.38 50.535-30.5 30.504-48.523 71.293-50.535 114.38h-47.23c2.0469-55.609 25.059-108.39 64.406-147.74 39.352-39.348 92.133-62.359 147.74-64.406zm0 62.977v47.23h-0.003906c-26.402 1.918-51.23 13.273-69.949 31.992s-30.074 43.547-31.992 69.949h-47.23c1.9922-38.918 18.352-75.711 45.906-103.27s64.348-43.914 103.27-45.906zm0 377.05-0.003906-0.003906c-55.609-2.0469-108.39-25.055-147.73-64.402-39.352-39.348-62.363-92.121-64.414-147.73h47.23c2.0117 43.09 20.035 83.879 50.535 114.38 30.504 30.504 71.293 48.523 114.38 50.535zm0-62.977h-0.003906c-38.914-1.9961-75.707-18.352-103.26-45.902-27.555-27.551-43.914-64.344-45.91-103.26h47.23c1.918 26.402 13.273 51.234 31.992 69.953s43.547 30.074 69.949 31.988zm-86.594-157.03c-0.019531-24.145 9.2148-47.375 25.801-64.918 16.586-17.539 39.266-28.059 63.371-29.387 24.105-1.3281 47.805 6.6328 66.223 22.242l-11.762 11.762c-1.5195 1.4648-2.3867 3.4805-2.4023 5.5938-0.019531 2.1094 0.8125 4.1406 2.3047 5.6328 1.4922 1.4961 3.5234 2.3242 5.6328 2.3086 2.1133-0.019531 4.1289-0.88672 5.5938-2.4062l11.762-11.762v0.003906c19.965 23.551 27.156 55.375 19.266 85.223-7.8906 29.852-29.871 53.961-58.867 64.57-28.996 10.605-61.344 6.3789-86.637-11.332-25.293-17.707-40.336-46.656-40.285-77.531zm102.34 220.02v-47.234c43.09-2.0117 83.879-20.031 114.38-50.535s48.523-71.293 50.535-114.38h47.234c-2.0508 55.613-25.059 108.39-64.41 147.74-39.352 39.352-92.129 62.359-147.74 64.41zm212.15-227.9h-47.234c-1.8125-40.375-17.77-78.832-45.074-108.63l33.379-33.379h-0.003906c36.141 38.676 57.07 89.117 58.934 142.01z"/>
 </g>
</svg>