<?xml version="1.0" encoding="UTF-8"?>
<!-- The Best Svg Icon site in the world: iconSvg.co, Visit us! https://iconsvg.co -->
<svg fill="#000000" width="800px" height="800px" version="1.1" viewBox="144 144 512 512" xmlns="http://www.w3.org/2000/svg">
 <g>
  <path d="m537.62 294.43c-0.0625-0.26172 0-0.53516-0.082032-0.80859 0-0.03125-0.042968-0.0625-0.042968-0.11719-0.09375-0.25-0.24219-0.47266-0.34766-0.72266-0.21094-0.47266-0.47266-0.91406-0.75391-1.3438-0.1875-0.27344-0.27344-0.60938-0.47266-0.85156-0.1875-0.21875-0.42969-0.33594-0.64062-0.53516-0.16797-0.17969-0.24219-0.38672-0.42969-0.54688-0.21875-0.21094-0.50391-0.24219-0.73437-0.41016-0.24219-0.17969-0.42969-0.41016-0.70313-0.57812-0.23047-0.125-0.54687-0.16797-0.80859-0.25-0.49219-0.21875-0.99609-0.36719-1.5234-0.47266-0.29297-0.0625-0.55469-0.19922-0.85938-0.21875-0.042968 0-0.082031-0.042969-0.125-0.042969-0.24219-0.019531-0.47266 0.074219-0.72266 0.074219-0.52344 0-0.99609 0.074219-1.5117 0.17969-0.21875 0.03125-0.45312 0.011719-0.67188 0.0625-0.0625 0.019532-0.125 0-0.1875 0.019532l-0.019531 0.011718c-0.13672 0.019532-0.26172 0.0625-0.38672 0.10547l-28.844 8.4609c-4.5234 1.3242-7.0938 6.0469-5.7617 10.559 1.0898 3.7148 4.4727 6.1211 8.1445 6.1211 0.78906 0 1.5859-0.125 2.4023-0.33594l2.2148-0.66016-19.922 23.699-23.93-30.637c-0.1875-0.21875-0.44141-0.32422-0.65234-0.54688-0.1875-0.21094-0.26172-0.44141-0.47266-0.62891-0.21875-0.19922-0.51562-0.25-0.74609-0.42969-0.49219-0.33594-0.99609-0.65234-1.5312-0.85938-0.49219-0.21875-0.96484-0.36719-1.4805-0.47266-0.54688-0.14844-1.0703-0.21094-1.6172-0.21875-0.54688-0.011718-1.0703 0.03125-1.5938 0.125-0.52344 0.09375-1.0273 0.21875-1.543 0.41016-0.53516 0.21094-1.0273 0.45313-1.5117 0.75391-0.25 0.17969-0.55469 0.21875-0.79688 0.39844-0.21875 0.17969-0.33594 0.42969-0.53516 0.62109-0.21094 0.21094-0.45312 0.28516-0.65234 0.51562l-53.332 61.285c-3.0742 3.5391-2.707 8.9102 0.83984 11.996 1.6055 1.3945 3.5898 2.0898 5.5742 2.0898 2.3828 0 4.7344-0.99609 6.4141-2.918l46.559-53.508 24.059 30.773c0.17969 0.21875 0.41797 0.29297 0.60938 0.49219 0.23047 0.24219 0.36719 0.57813 0.64062 0.77734 0.37891 0.32422 0.82813 0.47266 1.25 0.71484 0.30469 0.17969 0.58594 0.38672 0.92188 0.53516 1.0703 0.46094 2.1719 0.74609 3.2969 0.74609 1.082 0 2.1289-0.27344 3.1602-0.69141 0.30469-0.125 0.58594-0.31641 0.88281-0.48438 0.38672-0.21094 0.82031-0.34766 1.1875-0.62891 0.25-0.21875 0.38672-0.51562 0.62891-0.74609 0.21875-0.21094 0.46094-0.26172 0.65234-0.48438l27.613-32.844-0.30469 3.7383c-0.39844 4.6797 3.0859 8.7852 7.7656 9.1719 0.23047 0.019531 0.47266 0.03125 0.70312 0.03125 4.375 0 8.0938-3.3477 8.4609-7.7891l2.5312-30.375c0-0.21875-0.09375-0.45313-0.09375-0.69141 0-0.57031-0.0625-1.0742-0.16797-1.6211z"/>
  <path d="m467.49 177.66c-90.844 0-164.77 73.922-164.77 164.77 0 39.895 14.254 76.496 37.934 105.04l-11.148 10.266c-20.426-16.145-50.109-15.703-69.895 2.4648l-74.449 68.445c-21.914 20.133-23.355 54.359-3.2109 76.273 10.633 11.578 25.168 17.422 39.77 17.422 13.059 0 26.145-4.6914 36.504-14.211l74.449-68.445c10.633-9.7734 16.816-23.082 17.402-37.473 0.48438-11.523-2.7812-22.555-9.0469-31.98l11.156-10.277c29.746 29.18 70.43 47.254 115.28 47.254 90.863 0.011719 164.78-73.914 164.78-164.76 0.011718-90.855-73.902-164.78-164.75-164.78zm0 285.92c-66.797 0-121.14-54.348-121.14-121.13 0-66.785 54.336-121.14 121.14-121.14 66.809 0 121.13 54.348 121.13 121.13 0 66.789-54.336 121.14-121.13 121.14z"/>
 </g>
</svg>