<?xml version="1.0" encoding="UTF-8"?>
<!-- The Best Svg Icon site in the world: iconSvg.co, Visit us! https://iconsvg.co -->
<svg fill="#000000" width="800px" height="800px" version="1.1" viewBox="144 144 512 512" xmlns="http://www.w3.org/2000/svg">
 <g>
  <path d="m379.14 310.51h-28.652v-51.492c0-2.7266-2.207-4.9336-4.9336-4.9336-2.7266 0-4.9336 2.207-4.9336 4.9336v51.484h-28.656c-2.7266 0-4.9336 2.207-4.9336 4.9336v181.06c0 2.7266 2.207 4.9336 4.9336 4.9336h28.656v51.484c0 2.7266 2.207 4.9336 4.9336 4.9336 2.7266 0 4.9336-2.207 4.9336-4.9336v-51.484h28.652c2.7266 0 4.9336-2.207 4.9336-4.9336l-0.003906-181.06c0-2.7227-2.2031-4.9297-4.9297-4.9297zm-4.9336 181.06h-57.309v-171.2h57.309z"/>
  <path d="m604.06 283.77h-28.652v-51.488c0-2.7266-2.207-4.9336-4.9336-4.9336-2.7266 0-4.9336 2.207-4.9336 4.9336v51.484h-28.656c-2.7266 0-4.9336 2.207-4.9336 4.9336v165.2c0 2.7266 2.207 4.9336 4.9336 4.9336h28.656v94.086c0 2.7266 2.207 4.9336 4.9336 4.9336 2.7266 0 4.9336-2.207 4.9336-4.9336v-94.086h28.652c2.7266 0 4.9336-2.207 4.9336-4.9336l-0.003906-165.19c0-2.7266-2.2031-4.9336-4.9297-4.9336zm-4.9336 165.2h-57.309v-155.33h57.309z"/>
  <path d="m491.85 348.32h-28.656v-51.484c0-2.7266-2.207-4.9336-4.9336-4.9336-2.7266 0-4.9336 2.207-4.9336 4.9336v51.484h-28.652c-2.7266 0-4.9336 2.207-4.9336 4.9336v212.11c0 2.7266 2.207 4.9336 4.9336 4.9336h28.652v51.484c0 2.7266 2.207 4.9336 4.9336 4.9336 2.7266 0 4.9336-2.207 4.9336-4.9336v-51.484h28.656c2.7266 0 4.9336-2.207 4.9336-4.9336v-212.11c0-2.7188-2.207-4.9336-4.9336-4.9336zm-4.9336 110.32-57.309 30.199v-23.035l57.309-30.199zm0-34.184-57.309 30.199v-23.027l57.309-30.199zm-57.312 75.531 57.309-30.199v23.035l-57.309 30.199zm57.312-109.71-57.309 30.199v-23.035l57.309-30.199zm-57.312 143.89 57.309-30.199v23.035l-57.309 30.199zm53.336-175.97-53.332 28.102-0.003907-28.102zm-38.328 202.25 42.301-22.289v22.289z"/>
  <path d="m229.55 270.34c0.74609 0 1.5-0.16797 2.2148-0.52734l100.95-50.859c3.25 3.5117 7.8477 5.5664 12.852 5.5664 5.2344 0 10.086-2.3125 13.332-6.1016l82.133 37.551c-0.17969 1.0039-0.36328 2.0039-0.36328 3.0234 0 9.707 7.8984 17.602 17.602 17.602 9.7031 0 17.602-7.8945 17.602-17.602 0-1.1953-0.20312-2.3633-0.4375-3.5156l116.86-61.488-8.4297 16.027c-1.2695 2.4102-0.34375 5.3906 2.0664 6.6602 0.73438 0.38281 1.5156 0.5625 2.293 0.5625 1.7734 0 3.4883-0.95703 4.3672-2.6367l15.82-30.086c0.089843-0.16797 0.13281-0.34766 0.19531-0.52344 0.066407-0.16797 0.14062-0.32422 0.1875-0.49219 0.13281-0.48047 0.17578-0.96875 0.16016-1.457-0.003907-0.19141-0.039063-0.36719-0.066407-0.55859-0.070312-0.45312-0.19141-0.89062-0.38672-1.3164-0.035156-0.082031-0.03125-0.16797-0.070312-0.24609-0.039062-0.070312-0.10547-0.11719-0.15234-0.17969-0.24609-0.41797-0.55469-0.78516-0.90234-1.1094-0.12109-0.10938-0.23828-0.22656-0.36719-0.32422-0.41406-0.3125-0.87109-0.5625-1.3711-0.73438-0.12109-0.039063-0.23828-0.054687-0.36328-0.089844-0.21484-0.054687-0.42188-0.13281-0.64844-0.16016l-33.754-4.0117c-2.7148-0.28906-5.1602 1.6133-5.4805 4.3164-0.32422 2.707 1.6133 5.1602 4.3164 5.4805l18.016 2.1406-116.86 61.484c-3.2695-3.3711-7.7773-5.3438-12.602-5.3438-5.0195 0-9.6641 2.1055-12.941 5.6992l-82.434-37.684c0.12109-0.82031 0.27344-1.6406 0.27344-2.4844 0-9.707-7.8984-17.602-17.602-17.602-9.7031 0-17.602 7.8945-17.602 17.602 0 1.1016 0.17969 2.1523 0.37109 3.1953l-101.01 50.887c-2.4336 1.2227-3.4102 4.1914-2.1797 6.625 0.86328 1.7227 2.5977 2.7109 4.4062 2.7109zm228.72-19.086c2.8516 0 5.4648 1.582 6.8398 4.168 0.58984 1.0742 0.89844 2.3086 0.89844 3.5703 0 4.2656-3.4727 7.7383-7.7383 7.7383-4.2656 0-7.7383-3.4727-7.7383-7.7383 0-1.1797 0.29297-2.3633 0.86328-3.4961 1.3242-2.6133 3.957-4.2422 6.875-4.2422zm-112.71-52.078c4.2656 0 7.7383 3.4727 7.7383 7.7383 0 1.0781-0.24219 2.1406-0.75391 3.2539-1.1797 2.6797-3.9883 4.4844-6.9844 4.4844-2.9531 0-5.5781-1.6133-6.9258-4.3359-0.53906-1.0117-0.81641-2.1602-0.81641-3.4023 0.003906-4.2617 3.4766-7.7383 7.7422-7.7383z"/>
  <path d="m267.8 363.43c-0.082032-0.32422-0.13672-0.64062-0.27344-0.93359-0.03125-0.066406-0.023438-0.13672-0.058594-0.19531-0.10938-0.21094-0.29688-0.34766-0.4375-0.53516-0.20312-0.28125-0.38672-0.55859-0.64062-0.78906-0.24219-0.22266-0.51953-0.37109-0.79688-0.53906-0.26172-0.15625-0.50781-0.32422-0.80078-0.42969-0.33203-0.12109-0.67969-0.16016-1.0312-0.20703-0.22266-0.03125-0.42188-0.13281-0.65625-0.13281h-28.652v-51.488c0-2.7266-2.207-4.9336-4.9336-4.9336-2.7266 0-4.9336 2.207-4.9336 4.9336v51.484h-28.656c-2.7266 0-4.9336 2.207-4.9336 4.9336v169.58c0 2.7266 2.207 4.9336 4.9336 4.9336h28.656v51.484c0 2.7266 2.207 4.9336 4.9336 4.9336 2.7266 0 4.9336-2.207 4.9336-4.9336v-51.48h28.652c2.7266 0 4.9336-2.207 4.9336-4.9336v-169.58c0-0.070313-0.035157-0.125-0.039063-0.19531-0.011718-0.33203-0.12109-0.65234-0.19922-0.97656zm-9.6289 65.285-57.309 30.199v-22.531c0.29297-0.089844 0.58984-0.17969 0.87109-0.33203l56.438-29.738zm-57.309 41.219c0.29297-0.089844 0.58984-0.17969 0.87109-0.33203l56.438-29.738v22.398l-57.309 30.199zm57.309-74.766-57.309 30.199v-22.531c0.29297-0.089844 0.58984-0.17969 0.87109-0.33203l56.438-29.734zm-57.309 108.31c0.29297-0.089844 0.58984-0.17969 0.87109-0.33203l56.438-29.738v22.398l-57.309 30.199zm42.301-133.95-42.301 22.289v-22.289zm-27.285 159.73 42.301-22.289v22.289z"/>
 </g>
</svg>