<?xml version="1.0" encoding="UTF-8"?>
<!-- The Best Svg Icon site in the world: iconSvg.co, Visit us! https://iconsvg.co -->
<svg fill="#000000" width="800px" height="800px" version="1.1" viewBox="144 144 512 512" xmlns="http://www.w3.org/2000/svg">
 <g>
  <path d="m540.5 232.3c-0.13281-0.17578-0.51562-0.46094-1.1484-0.85547-0.63672-0.39453-1.4453-0.82031-2.4336-1.2812-0.98438-0.46094-2.082-0.89844-3.2852-1.3164-1.207-0.41406-2.4219-0.71094-3.6484-0.88672v8.9375l2.1055 0.52734c2.2344 0.61328 4.2461 1.2812 6.0469 2.0039 1.7969 0.72266 3.3203 1.6211 4.5703 2.6953 1.25 1.0742 2.2109 2.3789 2.8906 3.9102 0.67969 1.5352 1.0195 3.375 1.0195 5.5195 0 2.5-0.4375 4.625-1.3164 6.375-0.875 1.7539-2.0469 3.1875-3.5156 4.3047-1.4688 1.1172-3.1523 1.9609-5.0625 2.5312-1.9062 0.57031-3.9141 0.89844-6.0156 0.98438v7.625h-4.5352v-7.6914c-3.0234-0.26172-6.0117-0.875-8.9727-1.8398-2.957-0.96484-5.6211-2.2344-7.9844-3.8125l4.7305-9.3984c0.17578 0.21875 0.64844 0.58203 1.4141 1.0859s1.7422 1.0312 2.9258 1.5781c1.1836 0.55078 2.5195 1.0742 4.0117 1.5781 1.4883 0.50391 3.0234 0.86719 4.6016 1.0859v-8.7422l-3.1562-0.92188c-2.1484-0.65625-4.0078-1.3672-5.5859-2.1367-1.5781-0.76562-2.8828-1.6523-3.9141-2.6602-1.0312-1.0078-1.7969-2.168-2.3008-3.4844-0.50391-1.3164-0.75781-2.8477-0.75781-4.6016 0-2.2773 0.39453-4.3047 1.1836-6.082 0.78906-1.7734 1.8516-3.2969 3.1875-4.5703 1.3359-1.2695 2.9141-2.2656 4.7344-2.9922 1.8164-0.72266 3.7773-1.1953 5.8828-1.4141v-6.6406h4.5352v6.6406c2.8477 0.26172 5.5195 0.89844 8.0195 1.9062 2.4961 1.0078 4.6641 2.0352 6.5078 3.0898zm-18.203-0.58984c0 1.0938 0.38281 1.9609 1.1484 2.5977s1.918 1.1953 3.4531 1.6758v-8.0859c-3.0703 0.26172-4.6016 1.5312-4.6016 3.8125zm12.75 20.898c0-1.1406-0.46094-2.0273-1.3789-2.6602-0.92188-0.63281-2.1484-1.2148-3.6797-1.7422v7.8867c3.3711-0.12891 5.0586-1.293 5.0586-3.4844z"/>
  <path d="m626.32 541.7h-393.6c-2.1719 0-3.9375-1.7617-3.9375-3.9375v-68.879c0-2.1719 1.7617-3.9375 3.9375-3.9375h393.6c2.1719 0 3.9375 1.7617 3.9375 3.9375v68.879c-0.003906 2.1758-1.7656 3.9375-3.9375 3.9375zm-389.67-7.8711h385.73v-61.008h-385.73z"/>
  <path d="m586.96 541.7c-2.1719 0-3.9375-1.7617-3.9375-3.9375v-68.879c0-2.1719 1.7617-3.9375 3.9375-3.9375 2.1719 0 3.9375 1.7617 3.9375 3.9375v68.879c-0.003907 2.1758-1.7656 3.9375-3.9375 3.9375z"/>
  <path d="m547.6 541.7c-2.1719 0-3.9375-1.7617-3.9375-3.9375v-68.879c0-2.1719 1.7617-3.9375 3.9375-3.9375 2.1719 0 3.9375 1.7617 3.9375 3.9375v68.879c0 2.1758-1.7617 3.9375-3.9375 3.9375z"/>
  <path d="m508.24 541.7c-2.1719 0-3.9375-1.7617-3.9375-3.9375v-68.879c0-2.1719 1.7617-3.9375 3.9375-3.9375 2.1719 0 3.9375 1.7617 3.9375 3.9375v68.879c0 2.1758-1.7617 3.9375-3.9375 3.9375z"/>
  <path d="m468.88 541.7c-2.1719 0-3.9375-1.7617-3.9375-3.9375v-68.879c0-2.1719 1.7617-3.9375 3.9375-3.9375 2.1719 0 3.9375 1.7617 3.9375 3.9375v68.879c0 2.1758-1.7656 3.9375-3.9375 3.9375z"/>
  <path d="m429.52 541.7c-2.1719 0-3.9375-1.7617-3.9375-3.9375v-68.879c0-2.1719 1.7617-3.9375 3.9375-3.9375 2.1719 0 3.9375 1.7617 3.9375 3.9375v68.879c-0.003906 2.1758-1.7656 3.9375-3.9375 3.9375z"/>
  <path d="m390.16 541.7c-2.1719 0-3.9375-1.7617-3.9375-3.9375v-68.879c0-2.1719 1.7617-3.9375 3.9375-3.9375 2.1719 0 3.9375 1.7617 3.9375 3.9375v68.879c-0.003906 2.1758-1.7656 3.9375-3.9375 3.9375z"/>
  <path d="m350.8 541.7c-2.1719 0-3.9375-1.7617-3.9375-3.9375v-68.879c0-2.1719 1.7617-3.9375 3.9375-3.9375 2.1719 0 3.9375 1.7617 3.9375 3.9375v68.879c0 2.1758-1.7617 3.9375-3.9375 3.9375z"/>
  <path d="m311.44 541.7c-2.1719 0-3.9375-1.7617-3.9375-3.9375v-68.879c0-2.1719 1.7617-3.9375 3.9375-3.9375 2.1719 0 3.9375 1.7617 3.9375 3.9375v68.879c0 2.1758-1.7617 3.9375-3.9375 3.9375z"/>
  <path d="m272.08 541.7c-2.1719 0-3.9375-1.7617-3.9375-3.9375v-68.879c0-2.1719 1.7617-3.9375 3.9375-3.9375 2.1719 0 3.9375 1.7617 3.9375 3.9375v68.879c0 2.1758-1.7656 3.9375-3.9375 3.9375z"/>
  <path d="m567.28 610.57h-393.6c-2.1719 0-3.9375-1.7617-3.9375-3.9375v-68.879c0-2.1719 1.7617-3.9375 3.9375-3.9375h393.6c2.1719 0 3.9375 1.7617 3.9375 3.9375v68.879c-0.003906 2.1758-1.7656 3.9375-3.9414 3.9375zm-389.66-7.8711h385.73v-61.008h-385.73z"/>
  <path d="m527.92 610.57c-2.1719 0-3.9375-1.7617-3.9375-3.9375v-68.879c0-2.1719 1.7617-3.9375 3.9375-3.9375 2.1719 0 3.9375 1.7617 3.9375 3.9375v68.879c0 2.1758-1.7617 3.9375-3.9375 3.9375z"/>
  <path d="m488.56 610.57c-2.1719 0-3.9375-1.7617-3.9375-3.9375v-68.879c0-2.1719 1.7617-3.9375 3.9375-3.9375 2.1719 0 3.9375 1.7617 3.9375 3.9375v68.879c0 2.1758-1.7617 3.9375-3.9375 3.9375z"/>
  <path d="m449.2 610.57c-2.1719 0-3.9375-1.7617-3.9375-3.9375v-68.879c0-2.1719 1.7617-3.9375 3.9375-3.9375 2.1719 0 3.9375 1.7617 3.9375 3.9375v68.879c-0.003907 2.1758-1.7656 3.9375-3.9375 3.9375z"/>
  <path d="m409.84 610.57c-2.1719 0-3.9375-1.7617-3.9375-3.9375v-68.879c0-2.1719 1.7617-3.9375 3.9375-3.9375 2.1719 0 3.9375 1.7617 3.9375 3.9375v68.879c-0.003906 2.1758-1.7656 3.9375-3.9375 3.9375z"/>
  <path d="m370.48 610.57c-2.1719 0-3.9375-1.7617-3.9375-3.9375v-68.879c0-2.1719 1.7617-3.9375 3.9375-3.9375 2.1719 0 3.9375 1.7617 3.9375 3.9375v68.879c0 2.1758-1.7617 3.9375-3.9375 3.9375z"/>
  <path d="m331.12 610.57c-2.1719 0-3.9375-1.7617-3.9375-3.9375v-68.879c0-2.1719 1.7617-3.9375 3.9375-3.9375 2.1719 0 3.9375 1.7617 3.9375 3.9375v68.879c0 2.1758-1.7617 3.9375-3.9375 3.9375z"/>
  <path d="m291.76 610.57c-2.1719 0-3.9375-1.7617-3.9375-3.9375v-68.879c0-2.1719 1.7617-3.9375 3.9375-3.9375 2.1719 0 3.9375 1.7617 3.9375 3.9375v68.879c0 2.1758-1.7617 3.9375-3.9375 3.9375z"/>
  <path d="m252.4 610.57c-2.1719 0-3.9375-1.7617-3.9375-3.9375v-68.879c0-2.1719 1.7617-3.9375 3.9375-3.9375 2.1719 0 3.9375 1.7617 3.9375 3.9375v68.879c0 2.1758-1.7656 3.9375-3.9375 3.9375z"/>
  <path d="m213.04 610.57c-2.1719 0-3.9375-1.7617-3.9375-3.9375v-68.879c0-2.1719 1.7617-3.9375 3.9375-3.9375 2.1719 0 3.9375 1.7617 3.9375 3.9375v68.879c-0.003906 2.1758-1.7656 3.9375-3.9375 3.9375z"/>
  <path d="m527.92 472.82c-2.1719 0-3.9375-1.7617-3.9375-3.9375v-68.879c0-2.1719 1.7617-3.9375 3.9375-3.9375 2.1719 0 3.9375 1.7617 3.9375 3.9375v68.879c0 2.1719-1.7617 3.9375-3.9375 3.9375z"/>
  <path d="m488.56 472.82c-2.1719 0-3.9375-1.7617-3.9375-3.9375v-68.879c0-2.1719 1.7617-3.9375 3.9375-3.9375 2.1719 0 3.9375 1.7617 3.9375 3.9375v68.879c0 2.1719-1.7617 3.9375-3.9375 3.9375z"/>
  <path d="m449.2 472.82c-2.1719 0-3.9375-1.7617-3.9375-3.9375v-68.879c0-2.1719 1.7617-3.9375 3.9375-3.9375 2.1719 0 3.9375 1.7617 3.9375 3.9375v68.879c-0.003907 2.1719-1.7656 3.9375-3.9375 3.9375z"/>
  <path d="m409.84 472.82c-2.1719 0-3.9375-1.7617-3.9375-3.9375v-68.879c0-2.1719 1.7617-3.9375 3.9375-3.9375 2.1719 0 3.9375 1.7617 3.9375 3.9375v68.879c-0.003906 2.1719-1.7656 3.9375-3.9375 3.9375z"/>
  <path d="m370.48 472.82c-2.1719 0-3.9375-1.7617-3.9375-3.9375v-68.879c0-2.1719 1.7617-3.9375 3.9375-3.9375 2.1719 0 3.9375 1.7617 3.9375 3.9375v68.879c0 2.1719-1.7617 3.9375-3.9375 3.9375z"/>
  <path d="m331.12 472.82c-2.1719 0-3.9375-1.7617-3.9375-3.9375v-68.879c0-2.1719 1.7617-3.9375 3.9375-3.9375 2.1719 0 3.9375 1.7617 3.9375 3.9375v68.879c0 2.1719-1.7617 3.9375-3.9375 3.9375z"/>
  <path d="m291.76 472.82c-2.1719 0-3.9375-1.7617-3.9375-3.9375v-68.879c0-2.1719 1.7617-3.9375 3.9375-3.9375 2.1719 0 3.9375 1.7617 3.9375 3.9375v68.879c0 2.1719-1.7617 3.9375-3.9375 3.9375z"/>
  <path d="m252.4 472.82c-2.1719 0-3.9375-1.7617-3.9375-3.9375v-68.879c0-2.1719 1.7617-3.9375 3.9375-3.9375 2.1719 0 3.9375 1.7617 3.9375 3.9375v68.879c0 2.1719-1.7656 3.9375-3.9375 3.9375z"/>
  <path d="m213.04 472.82c-2.1719 0-3.9375-1.7617-3.9375-3.9375v-68.879c0-2.1719 1.7617-3.9375 3.9375-3.9375 2.1719 0 3.9375 1.7617 3.9375 3.9375v68.879c-0.003906 2.1719-1.7656 3.9375-3.9375 3.9375z"/>
  <path d="m375.44 291.37c-0.25391-0.34375-1.0078-0.90234-2.25-1.6719-1.2461-0.76953-2.832-1.6094-4.7617-2.5078-1.9297-0.89844-4.0742-1.7578-6.4336-2.5742-2.3594-0.8125-4.7383-1.3945-7.1406-1.7383v17.5l4.1172 1.0273c4.375 1.2031 8.3203 2.5078 11.836 3.9219 3.5156 1.4141 6.5 3.1758 8.9414 5.2773 2.4453 2.1016 4.332 4.6562 5.6602 7.6562 1.332 3.0039 1.9961 6.6055 1.9961 10.809 0 4.8906-0.85938 9.0508-2.5742 12.48s-4.0117 6.2383-6.8828 8.4258c-2.875 2.1875-6.1758 3.8398-9.9062 4.9531-3.7305 1.1133-7.6562 1.7578-11.773 1.9297v14.926h-8.8789v-15.055c-5.918-0.51562-11.773-1.7148-17.562-3.6016-5.7891-1.8867-11.004-4.375-15.633-7.4609l9.2656-18.398c0.34375 0.42969 1.2656 1.1367 2.7656 2.1211 1.5 0.98828 3.4102 2.0156 5.7266 3.0898 2.3164 1.0742 4.9336 2.1016 7.8477 3.0859 2.9141 0.98828 5.918 1.6953 9.0078 2.125v-17.113l-6.1758-1.8008c-4.2031-1.2891-7.8477-2.6797-10.938-4.1836-3.0898-1.5-5.6406-3.2383-7.6562-5.2109s-3.5195-4.2461-4.5039-6.8203c-0.98438-2.5742-1.4805-5.5742-1.4805-9.0078 0-4.4609 0.76953-8.4297 2.3164-11.902 1.543-3.4727 3.625-6.4531 6.2422-8.9414 2.6133-2.4883 5.7031-4.4375 9.2656-5.8555 3.5586-1.4141 7.3984-2.3359 11.516-2.7656v-12.996h8.8789v12.996c5.5742 0.51562 10.809 1.7578 15.695 3.7305 4.8906 1.9727 9.1367 3.9883 12.738 6.0469zm-35.641-1.1602c0 2.1445 0.75 3.8398 2.25 5.082 1.5 1.2461 3.7539 2.3359 6.7578 3.2812v-15.824c-6.0039 0.51172-9.0078 3.0039-9.0078 7.4609zm24.961 40.918c0-2.2305-0.90234-3.9648-2.7031-5.2109-1.8008-1.2422-4.2031-2.3789-7.207-3.4102v15.441c6.6094-0.25781 9.9102-2.5312 9.9102-6.8203z"/>
  <path d="m393.73 403.93h-85.871c-0.59375 0-1.1836-0.13672-1.7188-0.39453-17.027-8.2695-31.43-21.09-41.641-37.074-10.496-16.422-16.043-35.449-16.043-55.027 0-56.43 45.906-102.34 102.34-102.34s102.34 45.906 102.34 102.34c0 19.578-5.5469 38.602-16.039 55.027-10.215 15.984-24.613 28.805-41.641 37.074-0.53516 0.25781-1.125 0.39453-1.7188 0.39453zm-84.957-7.8711h84.043c32.375-16.094 52.445-48.434 52.445-84.625 0-52.09-42.375-94.465-94.465-94.465-52.09 0-94.465 42.375-94.465 94.465 0 36.191 20.066 68.535 52.441 84.625z"/>
  <path d="m567.28 472.82h-393.6c-2.1719 0-3.9375-1.7617-3.9375-3.9375v-68.879c0-2.1719 1.7617-3.9375 3.9375-3.9375h393.6c2.1719 0 3.9375 1.7617 3.9375 3.9375v68.879c-0.003906 2.1719-1.7656 3.9375-3.9414 3.9375zm-389.66-7.875h385.73v-61.008h-385.73z"/>
  <path d="m527.92 295.7c-29.297 0-53.137-23.836-53.137-53.137 0-29.301 23.836-53.137 53.137-53.137 29.297 0 53.137 23.836 53.137 53.137 0 29.301-23.836 53.137-53.137 53.137zm0-98.402c-24.957 0-45.266 20.305-45.266 45.266 0 24.957 20.305 45.266 45.266 45.266 24.957 0 45.266-20.305 45.266-45.266 0-24.957-20.305-45.266-45.266-45.266z"/>
 </g>
</svg>