<?xml version="1.0" encoding="UTF-8"?>
<!-- The Best Svg Icon site in the world: iconSvg.co, Visit us! https://iconsvg.co -->
<svg fill="#000000" width="800px" height="800px" version="1.1" viewBox="144 144 512 512" xmlns="http://www.w3.org/2000/svg">
 <g>
  <path d="m592.47 261.25h-94.07v-30.922c-0.011719-9.3398-3.7539-18.293-10.395-24.863-6.6367-6.5742-15.625-10.223-24.969-10.145h-126.07c-9.3438-0.078125-18.332 3.5703-24.969 10.145-6.6406 6.5703-10.383 15.523-10.395 24.863v30.922h-94.07c-24.957 0-45.656 20.16-45.656 45.117v253.45c0 24.957 20.699 44.848 45.656 44.848h384.94c24.957 0 45.656-19.887 45.656-44.848l0.003906-253.45c0-24.957-20.703-45.117-45.66-45.117zm-279.06-30.922c0.007812-6.2109 2.5039-12.16 6.9297-16.52 4.4258-4.3594 10.414-6.7617 16.625-6.6797h126.07c6.2109-0.082031 12.199 2.3203 16.625 6.6797 4.4258 4.3594 6.9219 10.309 6.9297 16.52v30.922h-173.18zm311.93 330.06c0 8.875-3.5273 17.383-9.8008 23.656-6.2734 6.2773-14.781 9.8008-23.656 9.8008h-384.75c-8.8711 0-17.383-3.5234-23.656-9.8008-6.2734-6.2734-9.7969-14.781-9.7969-23.656v-253.87c0-8.875 3.5234-17.383 9.7969-23.66 6.2734-6.2734 14.785-9.7969 23.656-9.7969h384.75c8.875 0 17.383 3.5234 23.656 9.7969 6.2734 6.2773 9.8008 14.785 9.8008 23.66z"/>
  <path d="m403.67 425.48c17.672 0 34.617-7.0195 47.113-19.516s19.516-29.445 19.516-47.113c0-17.672-7.0195-34.621-19.516-47.117-12.496-12.492-29.445-19.516-47.117-19.516-17.668 0.003906-34.617 7.0234-47.113 19.516-12.496 12.496-19.516 29.445-19.516 47.117 0.019532 17.664 7.0469 34.602 19.539 47.09 12.492 12.492 29.426 19.52 47.094 19.539zm0-121.45c14.539 0 28.484 5.7773 38.762 16.059 10.281 10.281 16.059 24.227 16.059 38.766 0 14.539-5.7773 28.484-16.059 38.766s-24.223 16.055-38.766 16.055c-14.539 0-28.48-5.7773-38.762-16.059-10.281-10.277-16.059-24.223-16.059-38.762 0.015625-14.535 5.7969-28.473 16.074-38.75 10.277-10.277 24.215-16.059 38.75-16.074z"/>
  <path d="m403.67 386.41c-5.4219-0.003906-9.8164-4.3984-9.8242-9.8203 0-3.2617-2.6445-5.9062-5.9023-5.9062-3.2617 0-5.9062 2.6445-5.9062 5.9062 0.007813 4.9258 1.6914 9.7031 4.7812 13.543 3.0859 3.8398 7.3867 6.5117 12.199 7.5781v4.2539c0 3.2617 2.6406 5.9062 5.9023 5.9062s5.9062-2.6445 5.9062-5.9062v-4.9688c6.4766-2.2695 11.492-7.4805 13.512-14.043 2.0195-6.5586 0.80859-13.691-3.2695-19.211-4.0781-5.5234-10.535-8.7852-17.398-8.7852-3.9727 0.003907-7.5547-2.3906-9.0781-6.0625-1.5195-3.668-0.67969-7.8945 2.1289-10.703s7.0352-3.6484 10.707-2.1289c3.668 1.5195 6.0625 5.1016 6.0625 9.0742 0 3.2617 2.6445 5.9023 5.9023 5.9023 3.2617 0 5.9062-2.6406 5.9062-5.9023-0.007813-4.6562-1.5117-9.1914-4.2969-12.922-2.7852-3.7344-6.6992-6.4727-11.16-7.8086v-4.1133c0-3.2578-2.6445-5.9023-5.9062-5.9023-3.2617 0-5.9023 2.6445-5.9023 5.9023v3.9609c-6.8047 1.8398-12.289 6.8828-14.691 13.512s-1.4219 14.012 2.625 19.785c4.0469 5.7695 10.652 9.2109 17.703 9.2148 5.4219 0 9.8203 4.3945 9.8203 9.8203 0 5.4258-4.3984 9.8242-9.8203 9.8242z"/>
  <path d="m476.69 430.5h-156.18c-3.2617 0-6.1172 2.2539-6.1172 5.5117v36.801h-10.766c-3.2617 0-5.9609 2.1523-5.9609 5.4102v41.367c0 3.2617 2.6992 6.3555 5.9609 6.3555h10.766v35.855c0 3.2617 2.8555 5.4727 6.1172 5.4727h156.18c3.2617 0 5.9648-2.2148 5.9648-5.4727v-41.363c0-3.3516-2.6211-6.1172-5.9648-6.2969h-10.766v-30.504h10.766c3.3359-0.16406 5.9609-2.9141 5.9648-6.2578v-41.371c0-3.2539-2.707-5.5078-5.9648-5.5078zm-89.484 83.641v-29.523h13.777v29.52zm-11.809-29.52v29.52h-12.793v-29.523zm37.391 29.52v-29.523h13.777v29.52zm-7.8711-42.312v-29.52h12.793v29.52zm-11.809 0h-13.773v-29.52h13.777zm-25.586 0h-13.773v-29.52h13.777zm-16.727 12.793v29.52h-13.773v-29.523zm16.727 41.328v29.52h-13.773v-29.523zm11.809 0h13.777v29.52h-13.773zm25.586 0h12.793v29.52h-12.793zm24.602 0h13.777v29.52h-13.777zm8.8555-41.328h15.742v29.52h-15.742zm-8.8555-12.793v-29.52h13.777v29.52zm-103.32-29.52h15.742v29.52h-15.742zm-16.727 42.312h15.742v29.52h-15.746zm16.727 41.328h15.742v29.52h-15.742zm144.65 29.52h-15.746v-29.523h15.742zm0-83.641h-15.746v-29.52h15.742z"/>
 </g>
</svg>