<?xml version="1.0" encoding="UTF-8"?>
<!-- The Best Svg Icon site in the world: iconSvg.co, Visit us! https://iconsvg.co -->
<svg fill="#000000" width="800px" height="800px" version="1.1" viewBox="144 144 512 512" xmlns="http://www.w3.org/2000/svg">
 <g>
  <path d="m544.27 396.04v179.68c0 2.5273-2.0508 4.5781-4.5781 4.5781-2.5312 0-4.582-2.0508-4.582-4.5781v-179.68c0-2.5273 2.0508-4.5781 4.582-4.5781 2.5273 0 4.5781 2.0508 4.5781 4.5781z"/>
  <path d="m261.07 508.09v67.625c0 2.5273-2.0508 4.5781-4.5781 4.5781-2.5312 0-4.582-2.0508-4.582-4.5781v-67.625c0-2.5312 2.0508-4.582 4.582-4.582 2.5273 0 4.5781 2.0508 4.5781 4.582z"/>
  <path d="m449.87 456.33v119.38c0 2.5273-2.0508 4.5781-4.582 4.5781-2.5273 0-4.5781-2.0508-4.5781-4.5781v-119.38c0-2.5273 2.0508-4.5781 4.5781-4.5781 2.5312 0 4.582 2.0508 4.582 4.5781z"/>
  <path d="m497.1 420.36v155.35c0 2.5273-2.0508 4.5781-4.582 4.5781-2.5273 0-4.5781-2.0508-4.5781-4.5781v-155.35c0-2.5312 2.0508-4.582 4.5781-4.582 2.5312 0 4.582 2.0508 4.582 4.582z"/>
  <path d="m308.3 466.87v108.85c0 2.5273-2.0508 4.5781-4.582 4.5781-2.5273 0-4.5781-2.0508-4.5781-4.5781v-108.85c0-2.5273 2.0508-4.5781 4.5781-4.5781 2.5312 0 4.582 2.0508 4.582 4.5781z"/>
  <path d="m402.69 486.96v88.758c0 2.5273-2.0508 4.5781-4.5781 4.5781-2.5312 0-4.582-2.0508-4.582-4.5781v-88.758c0-2.5312 2.0508-4.582 4.582-4.582 2.5273 0 4.5781 2.0508 4.5781 4.582z"/>
  <path d="m355.47 439.39v136.33c0 2.5273-2.0508 4.5781-4.582 4.5781s-4.5781-2.0508-4.5781-4.5781v-136.33c0-2.5273 2.0469-4.5781 4.5781-4.5781s4.582 2.0508 4.582 4.5781z"/>
  <path d="m619.47 252.91-15.297 96.184-0.003906-0.003906c-0.64844 3.8945-3.5742 7.0195-7.418 7.9219-3.8477 0.89844-7.8555-0.59766-10.168-3.7969l-21.895-30.688-154.16 111.3c-3.6758 2.6367-8.7539 2.0391-11.723-1.375l-44.562-52.578-159.84 121.37h-0.003906c-1.5117 1.1602-3.3633 1.7852-5.2656 1.7852-1.3398 0.007812-2.6602-0.30469-3.8477-0.91406-2.9805-1.4492-4.8633-4.4766-4.8555-7.7891v-57.336c0.011718-2.75 1.3164-5.3281 3.5273-6.9609l171.52-128.04c3.6875-2.7422 8.8672-2.1641 11.859 1.3242l44.562 52.578 113.04-82.988-25.879-37.922h0.003907c-2.2383-3.3164-2.2344-7.6602 0.015624-10.973 2.2539-3.3086 6.293-4.9141 10.199-4.0469l103.51 23.129c4.4648 1.0039 7.3867 5.3008 6.6875 9.8242z"/>
 </g>
</svg>