<?xml version="1.0" encoding="UTF-8"?>
<!-- The Best Svg Icon site in the world: iconSvg.co, Visit us! https://iconsvg.co -->
<svg fill="#000000" width="800px" height="800px" version="1.1" viewBox="144 144 512 512" xmlns="http://www.w3.org/2000/svg">
 <g>
  <path d="m409.22 452.55c0-44.203-30.645-97.352-71.398-120.09 10.562-3.5352 19.84-10.121 26.664-18.922s10.891-19.422 11.691-30.531c0.73828-9.5977-2.5195-19.074-9-26.191-5.7461-6.3281-13.883-9.9609-22.434-10.012h-0.17578c-7.8906-0.0625-15.48 3.0195-21.098 8.5664-0.53516 0.53516-1.0469 1.0938-1.5742 1.6602-6.4102-6.5117-15.164-10.18-24.305-10.18-9.1367 0-17.891 3.668-24.305 10.18-0.48828-0.56641-1.0078-1.125-1.5742-1.6602-5.6094-5.5508-13.203-8.6328-21.098-8.5664h-0.16406c-8.5508 0.050781-16.691 3.6797-22.441 10.012-6.4844 7.1172-9.7383 16.594-8.9922 26.191 0.79688 11.109 4.8633 21.734 11.688 30.535s16.105 15.383 26.668 18.918c-40.754 22.734-71.406 75.887-71.406 120.09 0 66.605 40.676 104.8 111.6 104.8 70.926 0 111.65-38.195 111.65-104.8zm-174.44-170.71c-0.42969-5.2461 1.332-10.434 4.8633-14.336 2.7852-3.125 6.7656-4.9219 10.949-4.9492h0.089844c3.7305-0.074219 7.332 1.3594 9.9883 3.9805 2.832 2.9219 4.3789 6.8594 4.2891 10.926 0 4.3477 3.5234 7.875 7.8711 7.875 4.3477 0 7.875-3.5273 7.875-7.875 0.29297-4.2109 2.2422-8.1367 5.418-10.922 3.1758-2.7812 7.3203-4.1992 11.539-3.9375 4.207-0.25391 8.3477 1.168 11.516 3.9492 3.168 2.7852 5.1133 6.7031 5.4062 10.91 0 4.3477 3.5273 7.875 7.875 7.875 4.3477 0 7.8711-3.5273 7.8711-7.875-0.09375-4.0664 1.4492-8 4.2812-10.926 2.6562-2.6211 6.2578-4.0547 9.9883-3.9805h0.097657c4.1836 0.023437 8.1602 1.8242 10.941 4.9492 3.5352 3.8984 5.2969 9.0898 4.8633 14.336-0.83203 9.0859-4.6016 17.652-10.734 24.406-6.1367 6.75-14.301 11.324-23.266 13.023 2.4766-4.6133 3.7891-9.7578 3.8281-14.996 0-4.3477-3.5234-7.8711-7.8711-7.8711-4.3477 0-7.875 3.5234-7.875 7.8711 0 6.0469-3.2266 11.637-8.4609 14.66-5.2383 3.0234-11.688 3.0234-16.926 0-5.2344-3.0234-8.4609-8.6133-8.4609-14.66 0-4.3477-3.5234-7.8711-7.8711-7.8711-4.3477 0-7.875 3.5234-7.875 7.8711 0.035156 5.2344 1.3477 10.383 3.8203 14.996-8.9688-1.6914-17.145-6.2617-23.285-13.016-6.1367-6.7539-9.9102-15.324-10.746-24.414zm-33.008 170.71c0-50.484 46.492-115.62 95.859-115.62 49.367 0 95.852 65.133 95.852 115.62 0 57.465-34.039 89.055-95.852 89.055-61.812 0.003906-95.859-31.617-95.859-89.055z"/>
  <path d="m369.95 490.61c2.1094-3.5352 3.2422-7.5664 3.293-11.684 0.050781-4.1172-0.98828-8.1719-3.0078-11.758l-51.957-93.535c-2.0156-3.6992-5-6.7852-8.6289-8.9258-3.6289-2.1406-7.7734-3.2539-11.984-3.2305-4.2188-0.027344-8.3672 1.0859-12 3.2227-3.6367 2.1406-6.625 5.2227-8.6484 8.9258l-51.957 93.535c-4.0625 7.3125-3.9531 16.234 0.28906 23.445 4.2461 7.2148 11.992 11.641 20.359 11.641h103.91c4.1133 0.019531 8.1602-1.0469 11.73-3.0898 3.5664-2.043 6.5352-4.9922 8.6016-8.5469zm-131.07-7.957c-1.4375-2.3984-1.4727-5.3867-0.09375-7.8203l51.957-93.535h-0.003906c1.3867-2.5 4.0234-4.0508 6.8828-4.0508 2.8633 0 5.5 1.5508 6.8867 4.0508l51.957 93.543-0.003906 0.003906c1.3477 2.4336 1.3086 5.4023-0.10547 7.8047-1.4102 2.3984-3.9883 3.8711-6.7734 3.875h-103.88c-2.8086 0.042968-5.4219-1.4375-6.8242-3.8711z"/>
  <path d="m297.66 399.91c-4.3477 0-7.875 3.5273-7.875 7.875v39.359c0 4.3477 3.5273 7.8711 7.875 7.8711 4.3477 0 7.8711-3.5234 7.8711-7.8711v-39.359c0-2.0898-0.83203-4.0898-2.3047-5.5664-1.4766-1.4766-3.4805-2.3086-5.5664-2.3086z"/>
  <path d="m603.55 455.1h-30.699l-0.003907-125.95c0-2.0859-0.82812-4.0898-2.3047-5.5664-1.4766-1.4727-3.4805-2.3047-5.5664-2.3047h-94.465c-4.3477 0-7.8711 3.5234-7.8711 7.8711v125.95h-30.703c-3.9883 0-7.832 1.5117-10.75 4.2344-2.918 2.7227-4.6914 6.4492-4.9648 10.43-0.27344 3.9844 0.97266 7.918 3.4922 11.016l85.805 105.59c2.9805 3.6875 7.4727 5.8242 12.219 5.8125 4.7383 0.007812 9.2266-2.1289 12.207-5.8125l85.805-105.59c2.5156-3.0938 3.7656-7.0273 3.4961-11.008-0.27344-3.9766-2.043-7.7031-4.957-10.43-2.9141-2.7227-6.75-4.2383-10.738-4.2422zm0 15.742-85.789 105.6-85.797-105.59h30.699c4.1758 0 8.1797-1.6602 11.133-4.6133s4.6094-6.957 4.6094-11.133v-118.08h78.719l0.003906 118.08c0 4.1758 1.6562 8.1797 4.6094 11.133 2.9531 2.9531 6.957 4.6133 11.133 4.6133l30.699-0.046875z"/>
  <path d="m470.53 305.54h94.465c4.3477 0 7.8711-3.5234 7.8711-7.8711 0-4.3477-3.5234-7.875-7.8711-7.875h-94.465c-4.3477 0-7.8711 3.5273-7.8711 7.875 0 4.3477 3.5234 7.8711 7.8711 7.8711z"/>
  <path d="m470.53 274.05h94.465c4.3477 0 7.8711-3.5234 7.8711-7.8711 0-4.3477-3.5234-7.875-7.8711-7.875h-94.465c-4.3477 0-7.8711 3.5273-7.8711 7.875 0 4.3477 3.5234 7.8711 7.8711 7.8711z"/>
  <path d="m470.53 242.56h94.465c4.3477 0 7.8711-3.5234 7.8711-7.8711s-3.5234-7.875-7.8711-7.875h-94.465c-4.3477 0-7.8711 3.5273-7.8711 7.875s3.5234 7.8711 7.8711 7.8711z"/>
  <path d="m305.54 470.85c0 4.3477-3.5234 7.8711-7.8711 7.8711-4.3477 0-7.875-3.5234-7.875-7.8711s3.5273-7.8711 7.875-7.8711c4.3477 0 7.8711 3.5234 7.8711 7.8711"/>
 </g>
</svg>