<?xml version="1.0" encoding="UTF-8"?>
<!-- The Best Svg Icon site in the world: iconSvg.co, Visit us! https://iconsvg.co -->
<svg fill="#000000" width="800px" height="800px" version="1.1" viewBox="144 144 512 512" xmlns="http://www.w3.org/2000/svg">
 <g>
  <path d="m576.97 454.04c-7.0977-8.1914-16.402-12.957-26.395-13.582 0.36328-3.125 0.65625-6.3438 0.86328-9.7227 0.41406-4.9219-0.92188-9.4609-3.8828-13.18-3.1484-3.8281-7.0391-5.7734-11.566-5.7734l-144.46-0.003906v-31.484c7.8398 4.0977 15.508 6.1719 22.852 6.1719 35.215 0 50.984-46.043 51.641-48.004 0.27344-0.80469 0.20703-1.6836-0.17188-2.4453-0.37891-0.75391-1.043-1.3359-1.8477-1.6016-0.55469-0.1875-13.73-4.5156-29.281-4.5156-12.723 0-23.281 2.8867-31.387 8.5742-4.9023 3.4453-8.832 7.8789-11.801 13.254v-41.281c32.031-1.6719 57.574-28.254 57.574-60.695 0-33.512-27.262-60.773-60.773-60.773-33.512 0-60.773 27.266-60.773 60.773 0 32.441 25.547 59.02 57.582 60.695v41.289c-2.9688-5.375-6.8984-9.8125-11.805-13.262-8.1055-5.6875-18.668-8.5742-31.383-8.5742-15.559 0-28.727 4.3281-29.281 4.5156-0.80469 0.26563-1.4727 0.84766-1.8477 1.6016-0.38281 0.76172-0.44141 1.6367-0.17578 2.4453 0.65625 1.9609 16.426 47.996 51.641 48.004h0.003906c7.3438 0 15.008-2.0742 22.848-6.1719v31.484h-158.2c-4.5508 0-8.5586 2.0039-11.574 5.7734-2.9961 3.668-4.3633 8.2227-3.9492 13.133 4.4219 61.531 34.844 116.77 81.328 147.73 3.1016 2.1367 4.8125 5.6016 4.8125 9.7656v5.3945c0 9.6094 6.9961 17.426 15.598 17.426h136.62c8.6016 0 15.598-7.8203 15.598-17.426v-5.3945c0-4.1562 1.707-7.6289 4.7695-9.7383 7.6484-5.1094 14.984-10.965 21.82-17.422h56.359c10.844 0 21.02-4.8477 28.652-13.652 7.5156-8.6875 11.656-20.176 11.656-32.359v-28.605c-0.003906-12.184-4.1523-23.68-11.668-32.363zm-142.25-117.73c10.125 0 19.367 2.0234 24.043 3.2578-4.0703 9.9922-18.609 40.508-44.387 40.508-7.1484 0-14.766-2.3438-22.672-6.9766 2.7773-24.418 17.234-36.789 43.016-36.789zm-72.438 43.766c-25.73 0-40.305-30.516-44.387-40.508 4.6797-1.2344 13.914-3.2578 24.043-3.2578 25.773 0 40.234 12.379 43.004 36.789-7.8984 4.6289-15.516 6.9766-22.66 6.9766zm-28.336-130.32c0-29.988 24.395-54.375 54.383-54.375 29.988 0 54.375 24.395 54.375 54.375 0 29.977-24.383 54.367-54.355 54.375h-0.019531-0.019532c-29.977-0.003906-54.363-24.395-54.363-54.375zm248.29 265.26c0 10.645-3.5859 20.652-10.102 28.172-6.3945 7.3789-14.852 11.441-23.816 11.441h-57.637c-0.82812 0-1.6172 0.31641-2.2109 0.89063-6.832 6.5547-14.191 12.48-21.914 17.633-4.8203 3.3164-7.5859 8.793-7.5859 15.027v5.3945c0 5.9805-4.2109 11.027-9.1953 11.027h-136.62c-5.0742 0-9.1992-4.9492-9.1992-11.027v-5.3945c0-6.2383-2.7656-11.715-7.6211-15.059-44.891-29.906-74.246-83.324-78.535-142.93-0.27734-3.3164 0.57422-6.207 2.543-8.6211 1.8047-2.2578 4.0273-3.4023 6.6016-3.4023h309.05c2.5586 0 4.7266 1.125 6.5938 3.3945 1.9258 2.4141 2.7539 5.3164 2.4805 8.6914-0.29297 4.5859-0.71094 8.7969-1.2852 12.871-0.13281 0.91797 0.14062 1.8438 0.75 2.543 0.60547 0.70703 1.4844 1.1016 2.4141 1.1016h1.375c8.957 0 17.418 4.0664 23.816 11.441 6.5156 7.5234 10.102 17.527 10.102 28.188z"/>
  <path d="m548.32 468.91h-7.2344c-1.4844 0-2.7422 1.0195-3.0938 2.3984-5.8047 20.434-14.504 39.316-25.859 56.129-0.66406 0.98438-0.73047 2.2461-0.17578 3.293 0.55469 1.043 1.6406 1.6992 2.832 1.6992h33.535c4.207 0 8.2734-1.9062 11.191-5.2656 2.8359-3.3789 4.4023-7.6914 4.4023-12.148v-28.605c0-4.4648-1.5664-8.7812-4.4375-12.203-2.9375-3.3672-6.9961-5.2969-11.16-5.2969zm9.1914 46.109c0 2.9062-1.0586 5.8359-2.8633 7.9922-1.668 1.9258-3.9766 3.0234-6.3281 3.0234h-27.629c9.7539-15.457 17.406-32.48 22.801-50.719h4.8281c2.3086 0 4.6133 1.1328 6.293 3.0586 1.8398 2.1953 2.8984 5.1289 2.8984 8.0469z"/>
  <path d="m389.53 295.64c1.7695 0 3.1992-1.4297 3.1992-3.1992v-8.3516c8.9141-1.5273 15.719-9.2852 15.719-18.621 0-10.43-8.4883-18.914-18.914-18.914h-2.3867c-6.9023 0-12.516-5.6133-12.516-12.516 0-6.9023 5.6133-12.516 12.516-12.516h15.715c1.7695 0 3.2031-1.4297 3.2031-3.1992s-1.4375-3.1992-3.2031-3.1992h-10.125v-8.0625c0-1.7695-1.4297-3.1992-3.1992-3.1992-1.7695 0-3.1992 1.4297-3.1992 3.1992v8.1016c-10.051 0.42969-18.102 8.7148-18.102 18.871 0 10.43 8.4844 18.914 18.914 18.914h2.3867c6.9023 0 12.516 5.6133 12.516 12.516 0 6.8984-5.6055 12.508-12.504 12.516h-0.011719-0.015624-15.699c-1.7695 0-3.1992 1.4297-3.1992 3.1992 0 1.7695 1.4297 3.1992 3.1992 3.1992h12.516v8.0625c-0.007813 1.7695 1.4219 3.1992 3.1914 3.1992z"/>
 </g>
</svg>