<?xml version="1.0" encoding="UTF-8"?>
<!-- The Best Svg Icon site in the world: iconSvg.co, Visit us! https://iconsvg.co -->
<svg fill="#000000" width="800px" height="800px" version="1.1" viewBox="144 144 512 512" xmlns="http://www.w3.org/2000/svg">
 <g>
  <path d="m475.44 599.75c48.867 0 88.621-37.375 88.621-83.508 0-31.727-18.734-60.363-48.172-74.488h-0.003906c6.8125-22.922 5.1367-47.531-4.7227-69.32-0.15234-0.32812-0.33594-0.64453-0.54687-0.9375-0.12891-0.30078-0.23438-0.59375-0.37891-0.89062l-61.137-127.62c-3.2891-6.8906-9.8438-11.641-17.414-12.629-7.5664-0.98828-15.121 1.9258-20.066 7.7422-4.9453 5.8125-6.6094 13.734-4.4219 21.047-5.2227 10-27.293 49.316-58.648 64.332l-46.262 22.16v0.003906c-5.4258 2.5898-9.6758 7.1328-11.895 12.723-36.492 10.113-62.035 41.098-63.496 77.02-17.609 4.3789-33.461 14.039-45.43 27.68-12.863 14.73-19.973 33.617-20.016 53.176 0 46.133 39.754 83.508 88.621 83.508zm-56.781-350.59c1.4414-4.0938 5.207-6.9141 9.5391-7.1484s8.3789 2.1641 10.254 6.0781l61.137 127.62c2.5508 5.3438 0.29688 11.746-5.0391 14.309-5.3438 2.5508-11.746 0.29688-14.312-5.0391l-61.137-127.62c-1.2344-2.5664-1.3945-5.5156-0.44141-8.1992zm-17.152 41.516c4.9219-6.8164 8.875-13.148 11.777-18.133l51.355 107.21c-17.527-2.8984-50.867-5.9258-79.832 5.7422l-25.918-54.102c14.855-8.4062 29.168-22.074 42.617-40.711zm-53.176 46 25.746 53.746-29.938 14.344-25.746-53.746zm30.934 64.355c5.6602 11.078 12.57 21.477 20.586 30.988 4.0938 4.7852 3.8164 11.914-0.63672 16.363-2.3203 2.3125-5.4805 3.5781-8.7539 3.5078-3.2734-0.070312-6.3789-1.4688-8.5977-3.8789l-30.824-33.457zm-71.871-44.742 0.35156-0.16797 25.746 53.746-0.35156 0.16797c-2.9297 1.4023-6.293 1.5859-9.3555 0.50781-3.0586-1.082-5.5664-3.332-6.9688-6.2578l-15.172-31.672c-1.4023-2.9258-1.5859-6.2891-0.50781-9.3516s3.3281-5.5703 6.2578-6.9727zm-134.13 159.95c-0.042969-16.758 6.0508-32.953 17.133-45.523 11.336-12.871 26.629-21.609 43.473-24.844 2.7617-0.52734 4.7539-2.9453 4.75-5.7539v-1.4844c0-30.406 20.344-57.18 50.305-67.453 0.375 2.2656 1.0703 4.4688 2.0625 6.5352l15.176 31.672c2.7461 5.7578 7.6758 10.188 13.691 12.309 6.0195 2.1172 12.637 1.7539 18.387-1.0117l1.6562-0.79297 33.281 36.125c4.3828 4.7852 10.535 7.5625 17.023 7.6797 0.17578 0 0.35156 0.007812 0.52734 0.007812 6.3086 0.019531 12.363-2.4844 16.812-6.9531 4.2539-4.2617 6.7461-9.9688 6.9766-15.98 0.23047-6.0156-1.8164-11.895-5.7344-16.469-7.2969-8.6523-13.59-18.102-18.762-28.168 31.957-12.465 71.121-5.2773 81.289-3.0625 3.0391 4.4414 7.5664 7.6484 12.762 9.043 5.1953 1.3945 10.719 0.88672 15.574-1.4375 2.5195-1.2109 4.793-2.8789 6.7031-4.9219 3.2695 15.781 2.1289 32.16-3.2891 47.34-1.0586 2.9727 0.41016 6.2578 3.3359 7.4453 27.852 11.328 45.855 37.02 45.855 65.699 0 39.621-34.457 71.699-76.812 71.699h-225.36c-42.355 0-76.812-32.078-76.812-71.699z"/>
  <path d="m535.48 207.01c-17.211 8.2461-30.441 22.988-36.781 40.988-6.3398 18-5.2695 37.781 2.9766 54.992 8.2422 17.211 22.988 30.441 40.988 36.781 18 6.3398 37.781 5.2695 54.992-2.9727 17.211-8.2461 30.441-22.988 36.781-40.988s5.2695-37.781-2.9727-54.992c-8.2617-17.199-23.008-30.414-41.004-36.754-17.992-6.3359-37.766-5.2773-54.98 2.9453zm87.82 84.879c-6.2148 17.633-20.273 31.379-38.047 37.188-17.773 5.8047-37.238 3.0156-52.664-7.5469-15.43-10.566-25.066-27.707-26.074-46.375-1.0117-18.672 6.7188-36.75 20.918-48.918 14.199-12.168 33.246-17.039 51.543-13.184 18.297 3.8555 33.758 16.004 41.836 32.867 6.9375 14.375 7.832 30.926 2.4883 45.969z"/>
  <path d="m564.96 268.55c-4.0859 1.957-8.9492 1.2617-12.32-1.7656-3.375-3.0234-4.5898-7.7852-3.0859-12.059 1.5039-4.2734 5.4375-7.2188 9.9609-7.4648 4.5234-0.24609 8.75 2.2578 10.707 6.3438 0.66797 1.4258 1.8789 2.5273 3.3633 3.0586 1.4805 0.52734 3.1133 0.44141 4.5352-0.23828 1.418-0.67969 2.5078-1.8984 3.0273-3.3867 0.51562-1.4883 0.41797-3.1172-0.27734-4.5312-2.2383-4.6875-6-8.4766-10.672-10.75-4.6719-2.2734-9.9766-2.8945-15.047-1.7617l-2.125-4.4375c-1.4102-2.9414-4.9336-4.1836-7.875-2.7734-2.9414 1.4062-4.1836 4.9336-2.7734 7.875l2.2734 4.7461c-5.5 4.9961-8.25 12.34-7.3828 19.719 0.86328 7.3789 5.2383 13.887 11.746 17.473 6.5078 3.5859 14.344 3.8086 21.047 0.60156 4.0859-1.957 8.9492-1.2617 12.32 1.7656 3.3711 3.0273 4.5898 7.7852 3.0859 12.059-1.5078 4.2734-5.4375 7.2188-9.9609 7.4648-4.5234 0.24219-8.75-2.2617-10.707-6.3477-0.66797-1.4258-1.8789-2.5234-3.3633-3.0547-1.4805-0.52734-3.1133-0.44531-4.5352 0.23437-1.418 0.68359-2.5078 1.9023-3.0273 3.3867-0.51562 1.4883-0.41797 3.1211 0.27734 4.5352 1.8789 3.918 4.8281 7.2227 8.5078 9.5352 3.6758 2.3125 7.9336 3.5352 12.277 3.5312 1.1875 0 2.3711-0.09375 3.543-0.28125l1.793 3.7383v0.003906c1.4258 2.9102 4.9297 4.1289 7.8516 2.7266 2.9258-1.3984 4.1719-4.8945 2.7969-7.8281l-1.6406-3.4219c5.9297-4.75 9.1328-12.117 8.5586-19.691-0.57422-7.5742-4.8477-14.375-11.426-18.176-6.5742-3.8008-14.605-4.1133-21.453-0.82812z"/>
 </g>
</svg>