<?xml version="1.0" encoding="UTF-8"?>
<!-- The Best Svg Icon site in the world: iconSvg.co, Visit us! https://iconsvg.co -->
<svg width="800px" height="800px" version="1.1" viewBox="144 144 512 512" xmlns="http://www.w3.org/2000/svg">
 <defs>
  <clipPath id="b">
   <path d="m313 148.09h174v126.91h-174z"/>
  </clipPath>
  <clipPath id="a">
   <path d="m208 289h384v362.9h-384z"/>
  </clipPath>
 </defs>
 <g clip-path="url(#b)">
  <path d="m331.03 273.39c3.9844-1.7461 5.7969-6.3867 4.0547-10.371-9.5781-21.902-7.4648-47.16 5.6211-67.168 13.09-20.008 35.383-32.066 59.293-32.066 23.906 0 46.203 12.059 59.289 32.066 13.086 20.008 15.203 45.266 5.6211 67.168-0.91016 1.9258-1.0039 4.1367-0.25781 6.1328 0.74609 1.9961 2.2695 3.6016 4.2227 4.4531 1.9531 0.85156 4.1641 0.87891 6.1367 0.070313 1.9688-0.80859 3.5273-2.3789 4.3203-4.3555 11.711-26.773 9.1289-57.648-6.8672-82.102-15.992-24.457-43.246-39.195-72.465-39.195-29.223 0-56.473 14.738-72.469 39.195-15.996 24.453-18.578 55.328-6.8672 82.102 0.83594 1.9141 2.3945 3.418 4.3398 4.1836 1.9453 0.76172 4.1133 0.72266 6.0273-0.11328z"/>
 </g>
 <path d="m429.85 272.03c3.2383 2.9023 8.2109 2.6367 11.117-0.59766 9.5508-10.617 14.605-24.523 14.105-38.793-0.50391-14.27-6.5273-27.789-16.801-37.707-10.27-9.918-23.992-15.461-38.27-15.461-14.281 0-28 5.543-38.273 15.461-10.273 9.918-16.297 23.438-16.797 37.707-0.50391 14.27 4.5547 28.176 14.102 38.793 2.9062 3.2344 7.8828 3.5039 11.121 0.60156 3.2344-2.9062 3.5039-7.8828 0.60156-11.121-6.8281-7.5781-10.445-17.516-10.09-27.711 0.35156-10.195 4.6523-19.855 11.992-26.941 7.3359-7.0898 17.141-11.051 27.344-11.051 10.199 0 20.004 3.9609 27.344 11.051 7.3359 7.0859 11.637 16.746 11.992 26.941 0.35156 10.195-3.2656 20.133-10.094 27.711-2.9023 3.2383-2.6289 8.2148 0.60547 11.117z"/>
 <g clip-path="url(#a)">
  <path d="m541.7 342.33v-44.664c0-2.0898-0.82812-4.0938-2.3047-5.5664-1.4766-1.4766-3.4805-2.3086-5.5664-2.3086h-267.65c-4.3477 0-7.875 3.5273-7.875 7.875v44.664c-32.391 44.582-49.707 98.336-49.426 153.45 0.28516 55.105 18.152 108.68 51 152.93 1.4766 2.0039 3.8125 3.1914 6.3008 3.2031h267.65c2.4844-0.011719 4.8203-1.1992 6.2969-3.2031 32.852-44.246 50.719-97.82 51-152.93 0.28516-55.109-17.031-108.86-49.426-153.45zm-11.887 293.83h-259.62c-29.621-41.316-45.539-90.883-45.512-141.72 0.03125-50.84 16.004-100.39 45.672-141.67h169.01c4.3477 0 7.8711-3.5234 7.8711-7.8711 0-4.3477-3.5234-7.8711-7.8711-7.8711h-165.31v-31.488h251.9v31.488h-55.102c-4.3477 0-7.8711 3.5234-7.8711 7.8711 0 4.3477 3.5234 7.8711 7.8711 7.8711h58.805c29.668 41.285 45.641 90.832 45.668 141.67 0.027344 50.84-15.891 100.41-45.512 141.72z"/>
 </g>
 <path d="m400.46 518.08h-16.211c-4.3477 0-7.8711 3.5234-7.8711 7.8711 0 4.3477 3.5234 7.875 7.8711 7.875h16.211c8.4336-0.085938 16.188-4.6641 20.336-12.012 4.1445-7.3477 4.0547-16.348-0.23438-23.613-4.2891-7.2656-12.129-11.691-20.566-11.609-4.3477 0-7.875-3.5234-7.875-7.8711s3.5273-7.8711 7.875-7.8711h16.207c4.3477 0 7.8711-3.5234 7.8711-7.8711 0-4.3477-3.5234-7.875-7.8711-7.875h-16.207c-8.4375 0.085938-16.191 4.6602-20.336 12.012-4.1484 7.3477-4.0586 16.348 0.23047 23.613 4.2891 7.2656 12.133 11.691 20.57 11.609 4.3477 0 7.8711 3.5234 7.8711 7.8711 0 4.3477-3.5234 7.8711-7.8711 7.8711z"/>
 <path d="m502.34 407.87h-204.67c-4.3477 0-7.875 3.5234-7.875 7.8711v94.465c0 4.3477 3.5273 7.8711 7.875 7.8711 4.3477 0 7.8711-3.5234 7.8711-7.8711v-86.594h188.93v141.7h-188.93v-23.617c0-4.3477-3.5234-7.8711-7.8711-7.8711-4.3477 0-7.875 3.5234-7.875 7.8711v31.488c0 2.0859 0.83203 4.0898 2.3086 5.5664 1.4727 1.4766 3.4766 2.3047 5.5664 2.3047h204.67c2.0859 0 4.0898-0.82813 5.5664-2.3047 1.4766-1.4766 2.3047-3.4805 2.3047-5.5664v-157.44c0-2.0859-0.82812-4.0898-2.3047-5.5664-1.4766-1.4766-3.4805-2.3047-5.5664-2.3047z"/>
</svg>