<?xml version="1.0" encoding="UTF-8"?>
<!-- The Best Svg Icon site in the world: iconSvg.co, Visit us! https://iconsvg.co -->
<svg fill="#000000" width="800px" height="800px" version="1.1" viewBox="144 144 512 512" xmlns="http://www.w3.org/2000/svg">
 <g>
  <path d="m473.47 232.06h-293.89c-5.7969 0-10.496 4.6992-10.496 10.496v188.93c0 2.7812 1.1055 5.4531 3.0742 7.4219 1.9688 1.9648 4.6367 3.0742 7.4219 3.0742h20.992v52.48-0.003906c0.019531 4.2383 2.5859 8.0469 6.5078 9.6602 3.9062 1.6406 8.4219 0.77344 11.441-2.207l59.824-59.93h195.12c2.7812 0 5.4531-1.1094 7.418-3.0742 1.9688-1.9688 3.0742-4.6406 3.0742-7.4219v-188.93c0-2.7852-1.1055-5.4531-3.0742-7.4219-1.9648-1.9688-4.6367-3.0742-7.418-3.0742zm-115.46 94.465c2.7812 0 5.4531 1.1055 7.4219 3.0742s3.0742 4.6367 3.0742 7.4219v41.984c0 2.7812-1.1055 5.4531-3.0742 7.4219s-4.6406 3.0742-7.4219 3.0742h-20.992v10.496c0 5.7969-4.6992 10.496-10.496 10.496s-10.496-4.6992-10.496-10.496v-10.496h-20.992c-5.7969 0-10.496-4.6992-10.496-10.496 0-5.7969 4.6992-10.496 10.496-10.496h52.48v-20.992h-52.48c-5.7969 0-10.496-4.6992-10.496-10.496v-41.984c0-5.7969 4.6992-10.496 10.496-10.496h20.992v-10.496c0-5.7969 4.6992-10.496 10.496-10.496s10.496 4.6992 10.496 10.496v10.496h20.992c5.7969 0 10.496 4.6992 10.496 10.496 0 5.7969-4.6992 10.496-10.496 10.496h-52.48v20.992z"/>
  <path d="m473.47 232.06h-293.89c-5.7969 0-10.496 4.6992-10.496 10.496v188.93c0 2.7812 1.1055 5.4531 3.0742 7.4219 1.9688 1.9648 4.6367 3.0742 7.4219 3.0742h20.992v52.48-0.003906c0.019531 4.2383 2.5859 8.0469 6.5078 9.6602 3.9062 1.6406 8.4219 0.77344 11.441-2.207l59.824-59.93h195.12c2.7812 0 5.4531-1.1094 7.418-3.0742 1.9688-1.9688 3.0742-4.6406 3.0742-7.4219v-188.93c0-2.7852-1.1055-5.4531-3.0742-7.4219-1.9648-1.9688-4.6367-3.0742-7.418-3.0742zm-115.46 94.465c2.7812 0 5.4531 1.1055 7.4219 3.0742s3.0742 4.6367 3.0742 7.4219v41.984c0 2.7812-1.1055 5.4531-3.0742 7.4219s-4.6406 3.0742-7.4219 3.0742h-20.992v10.496c0 5.7969-4.6992 10.496-10.496 10.496s-10.496-4.6992-10.496-10.496v-10.496h-20.992c-5.7969 0-10.496-4.6992-10.496-10.496 0-5.7969 4.6992-10.496 10.496-10.496h52.48v-20.992h-52.48c-5.7969 0-10.496-4.6992-10.496-10.496v-41.984c0-5.7969 4.6992-10.496 10.496-10.496h20.992v-10.496c0-5.7969 4.6992-10.496 10.496-10.496s10.496 4.6992 10.496 10.496v10.496h20.992c5.7969 0 10.496 4.6992 10.496 10.496 0 5.7969-4.6992 10.496-10.496 10.496h-52.48v20.992z"/>
  <path d="m620.41 295.04h-115.46v136.45c0 8.3477-3.3164 16.359-9.2227 22.266-5.9023 5.9023-13.914 9.2227-22.262 9.2227h-157.44v31.488-0.003906c0 2.7852 1.1055 5.457 3.0742 7.4219 1.9688 1.9688 4.6367 3.0742 7.4219 3.0742h195.12l59.828 59.934c3.0156 2.9805 7.5312 3.8477 11.438 2.2031 3.9219-1.6094 6.4883-5.418 6.5078-9.6562v-52.48h20.992c2.7852 0 5.4531-1.1055 7.4219-3.0742 1.9688-1.9648 3.0742-4.6367 3.0742-7.4219v-188.93c0-2.7852-1.1055-5.4531-3.0742-7.4219s-4.6367-3.0742-7.4219-3.0742zm-52.48 136.45c-8.3516 0-16.359-3.3203-22.266-9.2227-5.9023-5.9062-9.2227-13.914-9.2227-22.266s3.3203-16.363 9.2227-22.266c5.9062-5.9062 13.914-9.2227 22.266-9.2227 8.3516 0 16.363 3.3164 22.266 9.2227 5.9062 5.9023 9.2227 13.914 9.2227 22.266s-3.3164 16.359-9.2227 22.266c-5.9023 5.9023-13.914 9.2227-22.266 9.2227z"/>
 </g>
</svg>