<?xml version="1.0" encoding="UTF-8"?>
<!-- The Best Svg Icon site in the world: iconSvg.co, Visit us! https://iconsvg.co -->
<svg fill="#000000" width="800px" height="800px" version="1.1" viewBox="144 144 512 512" xmlns="http://www.w3.org/2000/svg">
 <g>
  <path d="m559.93 469.51c-2.9258-0.40234-5.6953 1.4219-6.4844 4.2695-1.168 4.1992-5.2969 16.176-10.391 21.422v-0.003906c-6.9766 6.293-16.047 9.7695-25.441 9.7539h-0.33984c-9.2734 0.011719-18.215-3.4688-25.039-9.7422-6.6641-6.7695-10.184-14.996-10.184-23.793l-0.003907-0.003907c0-3.2578-2.6406-5.9023-5.9023-5.9023-3.2617 0-5.9023 2.6445-5.9023 5.9023-0.074219 9.0195-3.7305 17.637-10.172 23.945-6.9609 6.3477-16.027 9.8828-25.445 9.9258h-0.027344c-9.4453-0.011718-18.551-3.543-25.539-9.9062-5.3594-5.2422-8.8828-12.074-10.047-19.477v-131.54c0-11.43 9.7383-20.383 21.934-20.383 12.195 0 21.844 8.9531 21.844 20.383 0 3.2812 2.6602 5.9414 5.9375 5.9414 3.2812 0 5.9375-2.6602 5.9375-5.9414 0-18.051-14.914-32.191-33.73-32.191-18.816 0.003906-33.73 14.141-33.73 32.191v125.16c0 0.59766-0.13672 1.2344-0.13672 1.8984v0.003907c-0.039062 8.9531-3.668 17.52-10.074 23.777-6.9648 6.2969-16.02 9.7734-25.406 9.7578h-0.32031c-9.2695 0.007813-18.203-3.4688-25.023-9.7422-6.6641-6.7695-10.18-14.996-10.18-23.797 0-3.2617-2.6445-5.9023-5.9062-5.9023-3.2617 0-5.9023 2.6406-5.9023 5.9023-0.070312 9.0156-3.7305 17.633-10.168 23.945-6.9609 6.3438-16.027 9.8828-25.445 9.9258h-0.023437c-9.3945-0.003906-18.441-3.5391-25.355-9.9023-5.1016-5.2383-9.2344-17.32-10.402-21.516-0.76562-2.8516-3.5273-4.6992-6.457-4.3164-2.9297 0.37891-5.1289 2.875-5.1367 5.8281 0 43.812 17.91 84.949 50.422 115.86 32.434 30.824 75.57 47.797 121.46 47.797s89.031-16.98 121.46-47.805c32.516-30.906 50.422-72.055 50.422-115.87 0-2.9531-2.1836-5.4492-5.1094-5.8477z"/>
  <path d="m308.7 214.3c0-14.145-5.6211-27.707-15.621-37.707-10-10.004-23.562-15.621-37.707-15.621s-27.707 5.6172-37.711 15.617c-10 10.004-15.617 23.566-15.617 37.711s5.6172 27.707 15.617 37.707c10 10.004 23.566 15.621 37.711 15.621 14.137-0.015625 27.691-5.6406 37.688-15.637 10-9.9961 15.625-23.551 15.641-37.691zm-60.242 32.195v-1.5312c-3.332-1.3711-6.1797-3.6992-8.1875-6.6953-2.0078-2.9922-3.082-6.5117-3.0859-10.117 0-3.2617 2.6445-5.9023 5.9062-5.9023 3.2578 0 5.9023 2.6406 5.9023 5.9023 0 2.582 1.5547 4.9062 3.9375 5.8945 2.3828 0.98438 5.125 0.44141 6.9492-1.3828 1.8242-1.8242 2.3711-4.5664 1.3828-6.9531-0.98828-2.3828-3.3125-3.9336-5.8906-3.9336-5.7852 0.003906-11.223-2.7461-14.648-7.4023-3.4297-4.6562-4.4375-10.664-2.7148-16.184 1.7227-5.5195 5.9688-9.8906 11.434-11.773v-0.92969c0-3.2578 2.6445-5.9023 5.9062-5.9023 3.2578 0 5.9023 2.6445 5.9023 5.9023v0.91016c3.5859 1.2305 6.6953 3.5469 8.9023 6.6289 2.2031 3.082 3.3906 6.7734 3.3984 10.562 0 3.2617-2.6445 5.9062-5.9062 5.9062-3.2578 0-5.9023-2.6445-5.9023-5.9062-0.003906-3.2539-2.457-5.9844-5.6914-6.3398-0.23438 0.03125-0.46875 0.046875-0.70313 0.046875-0.23047 0-0.45703-0.015625-0.68359-0.042969-3.3633 0.375-5.8477 3.3125-5.6602 6.6914s2.9805 6.0234 6.3672 6.0234c5.9062-0.003906 11.449 2.8633 14.855 7.6914 3.4102 4.8281 4.2578 11.012 2.2773 16.578-1.9805 5.5664-6.5469 9.8242-12.238 11.41v0.84766c0 3.2617-2.6445 5.9062-5.9023 5.9062-3.2617 0-5.9062-2.6445-5.9062-5.9062z"/>
  <path d="m509.22 432.88c14.145 0 27.707-5.6211 37.707-15.621s15.617-23.566 15.613-37.707c0-14.145-5.6172-27.707-15.621-37.707-10-10-23.562-15.617-37.707-15.617-14.145 0-27.707 5.6172-37.707 15.617-10 10.004-15.617 23.566-15.617 37.711 0.015625 14.137 5.6406 27.691 15.637 37.691 10 9.9961 23.555 15.621 37.695 15.633zm0-45.855v0.003906c-5.7852 0.003906-11.23-2.7461-14.656-7.4062-3.4297-4.6641-4.4336-10.676-2.7031-16.199 1.7266-5.5234 5.9805-9.8906 11.457-11.766v-0.86328c0-3.2578 2.6406-5.9023 5.9023-5.9023 3.2617 0 5.9023 2.6445 5.9023 5.9023v0.86719c3.582 1.2344 6.6836 3.5508 8.8867 6.6289 2.1992 3.0781 3.3867 6.7656 3.3906 10.551 0 3.2617-2.6406 5.9062-5.9023 5.9062s-5.9023-2.6445-5.9023-5.9062c-0.007812-3.1797-2.3555-5.8711-5.5039-6.3086-0.57812 0.09375-1.168 0.09375-1.7461 0-3.3203 0.46094-5.7148 3.4102-5.4844 6.7539 0.23047 3.3398 3.0078 5.9336 6.3594 5.9336 5.9062 0 11.441 2.8672 14.848 7.6875 3.4062 4.8242 4.2578 11 2.2852 16.566-1.9727 5.5625-6.5273 9.8242-12.211 11.422v0.90625c0 3.2617-2.6445 5.9062-5.9062 5.9062s-5.9023-2.6445-5.9023-5.9062v-1.5742c-3.3398-1.3672-6.1992-3.6953-8.2109-6.6914-2.0117-2.9961-3.0859-6.5234-3.0898-10.133 0-3.2617 2.6406-5.9062 5.9023-5.9062s5.9023 2.6445 5.9023 5.9062c0 2.5781 1.5547 4.9062 3.9375 5.8906 2.3828 0.98828 5.1289 0.44141 6.9531-1.3828 1.8203-1.8242 2.3672-4.5664 1.3789-6.9492-0.98438-2.3828-3.3125-3.9375-5.8906-3.9375z"/>
  <path d="m546.88 225.07-28.129-4.8867c5.8008 3.3477 9.9688 8.9375 11.52 15.453 1.5547 6.5156 0.35547 13.383-3.3125 18.988-3.6641 5.6016-9.4805 9.4492-16.07 10.637l27.984 4.8594c3.5078-6.4453 10.332-10.527 18.402-10.98l3.0469-17.57c-7.3516-3.1367-12.332-9.2656-13.441-16.5z"/>
  <path d="m486.65 255.32c-4.7812-6.8008-5.7656-15.57-2.6133-23.262 3.1523-7.6914 10.004-13.246 18.184-14.738l-27.953-4.8555c-3.5078 6.4453-10.332 10.527-18.402 10.977l-3.0508 17.539c7.5703 3.125 12.582 9.2266 13.648 16.574l27.914 4.8477c-3.0586-1.7695-5.6992-4.1875-7.7266-7.082z"/>
  <path d="m593.06 204.73-155.59-27.027c-1.543-0.26953-3.1289 0.085937-4.4062 0.98828-1.2812 0.90234-2.1523 2.2734-2.4219 3.8164l-15.379 88.523h0.003906c-0.55859 3.2109 1.5938 6.2695 4.8047 6.8281l155.58 27.027c0.33594 0.058593 0.67969 0.085937 1.0195 0.085937 2.8672-0.003906 5.3164-2.0703 5.8047-4.8945l15.383-88.516c0.55859-3.2109-1.5938-6.2695-4.8047-6.8281zm-20.219 33.75-4.832 27.809c-0.55078 3.1719-3.5391 5.3164-6.7188 4.8242-6.5625-1.0156-11.742 1.7695-12.891 6.9375-0.60156 2.6992-2.9922 4.6211-5.7578 4.625-0.33984 0-0.68359-0.03125-1.0156-0.089843l-81.98-14.242v0.003906c-3.1094-0.54297-5.2461-3.4336-4.8477-6.5625 0.67578-5.3281-3.168-9.5977-9.7969-10.875-3.1602-0.60938-5.25-3.6367-4.6992-6.8086l4.832-27.809-0.003906 0.003906c0.55469-3.1719 3.543-5.3125 6.7227-4.8242 6.5664 1.0195 11.742-1.7695 12.891-6.9375 0.68359-3.0781 3.668-5.0781 6.7734-4.5352l82.164 14.273c3.1055 0.53906 5.2422 3.4219 4.8477 6.5508-0.66016 5.2539 3.2031 9.6172 9.6133 10.852 3.1602 0.60938 5.2461 3.6367 4.6953 6.8047z"/>
  <path d="m518.93 243.45c1.0273-5.9023-2.2617-11.703-7.8438-13.855-5.5859-2.1562-11.918-0.066406-15.121 4.9922-3.2031 5.0586-2.3906 11.672 1.9453 15.801 4.3359 4.1328 10.984 4.6211 15.879 1.1758 2.7305-1.9102 4.582-4.832 5.1406-8.1133z"/>
  <path d="m304.47 381.22c-8.3359-0.011719-16.07-4.3516-20.426-11.461-4.3555-7.1094-4.707-15.973-0.92578-23.402l-17.684 33.652c5.3242 5.5117 7.1953 13.609 5.0039 21.762l16.691 8.7695c5.4961-6.5664 13.168-9.6016 20.801-8.2461l17.695-33.68c-2.0625 3.8164-5.1172 7-8.8398 9.2188-3.7266 2.2188-7.9805 3.3867-12.316 3.3867z"/>
  <path d="m297.38 334.3c6.0352-1.8789 12.57-1.3008 18.18 1.6094 5.6133 2.9102 9.8477 7.918 11.789 13.934 1.9414 6.0156 1.4297 12.555-1.4219 18.195l17.656-33.602c-5.3242-5.5117-7.1953-13.609-5-21.762l-16.727-8.7891c-5.4336 6.3438-13.133 9.3359-20.664 8.0703l-17.848 33.961v-0.003907c2.957-5.5742 8.0039-9.75 14.035-11.613z"/>
  <path d="m298.84 368.02c4.3633 2.293 9.6836 1.7344 13.473-1.418 3.793-3.1562 5.3086-8.2852 3.8438-12.992-1.4609-4.7109-5.6172-8.0742-10.531-8.5234-4.9102-0.44922-9.6094 2.1016-11.902 6.4688-3.1289 5.957-0.83984 13.328 5.1172 16.465z"/>
  <path d="m299.72 260.79c-1.4961 0.46484-2.7461 1.5039-3.4727 2.8906l-73.453 139.79c-1.5156 2.8867-0.40625 6.4531 2.4805 7.9688l79.535 41.793c2.8867 1.5156 6.4531 0.40234 7.9688-2.4805l73.453-139.79c1.5156-2.8867 0.40625-6.4531-2.4805-7.9727l-79.535-41.793c-1.3828-0.72656-3-0.87109-4.4961-0.40625zm15.102 32.605c1.5508-2.8242 5.0742-3.8828 7.9258-2.3867l25.949 13.637c2.8516 1.4961 3.9766 5 2.5312 7.8789-3.1055 6.1797-1.9375 12.453 2.8398 15.254l-0.003906-0.003906c2.7227 1.5977 3.707 5.0469 2.2422 7.8398l-40.199 76.504h-0.003907c-1.4648 2.793-4.8711 3.9375-7.7266 2.6016-5.0938-2.3867-10.789 0.15234-14.168 6.3164h-0.003906c-1.5469 2.8203-5.0703 3.8828-7.9219 2.3867l-25.949-13.637c-2.8516-1.4961-3.9766-5-2.5312-7.8789 3.1055-6.1797 1.9375-12.453-2.8398-15.254v0.003906c-2.7188-1.5977-3.707-5.0469-2.2383-7.8398l40.289-76.676c1.4688-2.793 4.8711-3.9414 7.7266-2.6055 5.0977 2.3828 10.762-0.085937 14.082-6.1406z"/>
 </g>
</svg>