<?xml version="1.0" encoding="UTF-8"?>
<!-- The Best Svg Icon site in the world: iconSvg.co, Visit us! https://iconsvg.co -->
<svg fill="#000000" width="800px" height="800px" version="1.1" viewBox="144 144 512 512" xmlns="http://www.w3.org/2000/svg">
 <g>
  <path d="m370.92 168.66c-20.969 0-41.078 8.3281-55.906 23.156s-23.156 34.938-23.156 55.906c0 20.973 8.3281 41.082 23.156 55.91 14.828 14.828 34.938 23.156 55.906 23.156 20.973 0 41.082-8.332 55.91-23.16 14.828-14.824 23.156-34.938 23.156-55.906-0.023437-20.961-8.3633-41.059-23.184-55.879-14.824-14.824-34.918-23.16-55.883-23.184zm0 75.973c9.5625-0.015624 18.469 4.8672 23.598 12.941 5.1289 8.0703 5.7656 18.207 1.6875 26.859-4.0781 8.6484-12.301 14.609-21.789 15.793v6.293c0 3.2578-2.6445 5.9023-5.9023 5.9023-3.2617 0-5.9062-2.6445-5.9062-5.9023v-7.332c-5.6758-1.7773-10.633-5.3203-14.16-10.113-3.5234-4.793-5.4258-10.582-5.4336-16.531 0-3.2578 2.6445-5.9023 5.9023-5.9023 3.2617 0 5.9062 2.6445 5.9062 5.9023 0 4.2734 1.6953 8.3672 4.7148 11.387 3.0195 3.0195 7.1172 4.7148 11.387 4.7148s8.3633-1.6953 11.383-4.7148c3.0195-3.0195 4.7148-7.1172 4.7148-11.387s-1.6953-8.3633-4.7148-11.383c-3.0195-3.0195-7.1172-4.7148-11.387-4.7148-9.0898 0-17.613-4.4297-22.84-11.871-5.2227-7.4414-6.4961-16.961-3.4102-25.512 3.0898-8.5547 10.148-15.066 18.922-17.453v-6.2852c0-3.2578 2.6445-5.9023 5.9062-5.9023 3.2578 0 5.9023 2.6445 5.9023 5.9023v5.668c6.5352 1.0703 12.48 4.4258 16.77 9.4727 4.293 5.043 6.6523 11.449 6.6602 18.07 0 3.2617-2.6445 5.9062-5.9023 5.9062-3.2617 0-5.9062-2.6445-5.9062-5.9062 0-4.2695-1.6953-8.3633-4.7148-11.383-3.0195-3.0195-7.1133-4.7148-11.383-4.7148s-8.3672 1.6953-11.387 4.7148c-3.0195 3.0195-4.7148 7.1133-4.7148 11.383 0 4.2695 1.6953 8.3672 4.7148 11.387 3.0195 3.0195 7.1133 4.7148 11.383 4.7148z"/>
  <path d="m401.96 357.69h18.695v38.375h-18.695z"/>
  <path d="m339.97 357.69h18.695v38.375h-18.695z"/>
  <path d="m369.5 447.66v-37.824h-19.684v38.375h18.855c0.16016 0-0.15625-0.40625 0.82812-0.55078z"/>
  <path d="m275.03 357.69h21.648v38.375h-21.648z"/>
  <path d="m308.48 357.69h19.68v38.375h-19.68z"/>
  <path d="m254.37 409.84h21.648v38.375h-21.648z"/>
  <path d="m433.45 409.84h-21.648v13.402c7.0664-2.1211 14.312-3.582 21.648-4.3633z"/>
  <path d="m370.48 357.69h19.68v38.375h-19.68z"/>
  <path d="m400 409.84h-18.699v28.434-0.003907c5.8359-4.2109 12.102-7.7852 18.699-10.66z"/>
  <path d="m432.47 357.69h21.648v38.375h-21.648z"/>
  <path d="m319.31 409.84h18.695v38.375h-18.695z"/>
  <path d="m339.97 461.01v29.867c3.9062-10.812 9.5703-20.902 16.766-29.867z"/>
  <path d="m333.88 512.18h-14.566v39.359h14.957c-1.2383-6.875-1.8711-13.844-1.8789-20.828 0-6.207 0.49609-12.402 1.4883-18.531z"/>
  <path d="m444.79 456.27c-19.75 0-38.691 7.8438-52.656 21.809-13.965 13.965-21.812 32.906-21.812 52.656s7.8477 38.691 21.812 52.66c13.965 13.965 32.906 21.809 52.656 21.809s38.691-7.8438 52.656-21.809c13.965-13.965 21.809-32.906 21.809-52.656-0.019531-19.742-7.8711-38.672-21.832-52.633-13.961-13.961-32.891-21.812-52.633-21.836zm31.281 87.398h-35.75c-3.3164-0.15625-5.918-2.9062-5.8867-6.2266v-46.918c0-3.2617 2.6445-5.9023 5.9062-5.9023 3.2578 0 5.9023 2.6406 5.9023 5.9023v41.336h29.828c3.2617 0 5.9023 2.6445 5.9023 5.9023 0 3.2617-2.6406 5.9062-5.9023 5.9062z"/>
  <path d="m444.79 430.13c-26.68 0-52.27 10.602-71.133 29.465-18.867 18.867-29.465 44.457-29.465 71.137s10.598 52.27 29.465 71.137c18.867 18.863 44.453 29.465 71.133 29.465 26.684 0 52.27-10.602 71.137-29.469 18.867-18.863 29.465-44.453 29.465-71.133-0.03125-26.672-10.637-52.242-29.5-71.102-18.859-18.859-44.43-29.469-71.102-29.5zm0 186.88c-22.879 0-44.824-9.0898-61.004-25.266-16.184-16.18-25.273-38.125-25.273-61.008s9.0898-44.828 25.27-61.008c16.18-16.18 38.125-25.27 61.008-25.27 22.879 0 44.824 9.0898 61.004 25.27 16.18 16.18 25.27 38.125 25.27 61.008-0.023437 22.871-9.1211 44.801-25.297 60.977-16.172 16.172-38.102 25.27-60.977 25.297z"/>
  <path d="m287.82 409.84h19.68v38.375h-19.68z"/>
  <path d="m254.37 512.18h21.648v39.359h-21.648z"/>
  <path d="m287.82 512.18h19.68v39.359h-19.68z"/>
  <path d="m275.03 461.01h21.648v38.375h-21.648z"/>
  <path d="m308.48 461.01h19.68v38.375h-19.68z"/>
 </g>
</svg>