<?xml version="1.0" encoding="UTF-8"?>
<!-- The Best Svg Icon site in the world: iconSvg.co, Visit us! https://iconsvg.co -->
<svg fill="#000000" width="800px" height="800px" version="1.1" viewBox="144 144 512 512" xmlns="http://www.w3.org/2000/svg">
 <g>
  <path d="m450.96 330.29v-86.695c5.8477-3.0195 9.8711-9.1133 9.8711-16.137v-0.59375c0-10.016-8.1484-18.164-18.164-18.164h-2.2109v-22.754c0-2.5078-2.0352-4.543-4.543-4.543h-71.816c-2.5078 0-4.543 2.0352-4.543 4.543v22.754h-2.2148c-10.016 0-18.164 8.1484-18.164 18.164v0.59375c0 7.0273 4.0195 13.125 9.8789 16.141v86.691c-58.562 21.355-97.68 77.074-97.68 139.68 0 81.961 66.68 148.64 148.64 148.64 81.961 0 148.63-66.68 148.63-148.64-0.011719-62.594-39.125-118.32-97.691-139.68zm-82.324-139.8h62.73v18.207h-62.73zm-20.379 36.965v-0.59375c0-5.0039 4.0703-9.0742 9.0742-9.0742h6.7148c0.015625 0 0.03125 0.003906 0.046875 0.003906s0.03125-0.003906 0.046875-0.003906h71.73c0.015624 0 0.03125 0.003906 0.046874 0.003906 0.015626 0 0.03125-0.003906 0.046876-0.003906h6.7148c5.0039 0 9.0742 4.0703 9.0742 9.0742v0.59375c0 5.0039-4.0703 9.0742-9.0742 9.0742h-85.34c-5.0195 0-9.082-4.0703-9.082-9.0742zm51.75 382.06c-76.945 0-139.55-62.602-139.55-139.55 0-59.801 38.016-112.91 94.594-132.16l3.082-1.0469v-91.145h83.738v12.402h-15.043c-2.5078 0-4.543 2.0352-4.543 4.543 0 2.5078 2.0352 4.543 4.543 4.543h15.043v8.6016h-15.043c-2.5078 0-4.543 2.0352-4.543 4.543 0 2.5078 2.0352 4.543 4.543 4.543h15.043v8.6016h-15.043c-2.5078 0-4.543 2.0352-4.543 4.543 0 2.5078 2.0352 4.543 4.543 4.543h15.043v8.6016h-15.043c-2.5078 0-4.543 2.0352-4.543 4.543 0 2.5078 2.0352 4.543 4.543 4.543h15.043v16.57l3.082 1.0469c56.582 19.25 94.602 72.363 94.602 132.16-0.003906 76.977-62.605 139.57-139.55 139.57z"/>
  <path d="m391.1 419.87h43.262c2.5078 0 4.543-2.0352 4.543-4.543 0-2.5078-2.0352-4.543-4.543-4.543h-30.805v-26.273c0-2.5078-2.0352-4.543-4.543-4.543s-4.543 2.0352-4.543 4.543v26.273h-3.3672c-17.637 0-31.988 14.348-31.988 31.992 0 17.633 14.348 31.98 31.988 31.98h15.836c12.617 0 22.883 10.273 22.883 22.898s-10.262 22.895-22.883 22.895h-43.273c-2.5078 0-4.543 2.0352-4.543 4.543 0 2.5078 2.0352 4.543 4.543 4.543h30.809v26.289c0 2.5078 2.0352 4.543 4.543 4.543 2.5078 0 4.543-2.0352 4.543-4.543v-26.289h3.375c17.629 0 31.973-14.348 31.973-31.988 0-17.637-14.344-31.988-31.973-31.988h-15.836c-12.625 0-22.898-10.27-22.898-22.895 0-12.621 10.273-22.895 22.898-22.895z"/>
  <path d="m399.03 349.11c-66.773 0-121.09 54.324-121.09 121.09s54.324 121.09 121.09 121.09c66.77 0 121.09-54.324 121.09-121.09 0-66.766-54.324-121.09-121.09-121.09zm0 233.1c-61.762 0-112.01-50.246-112.01-112.01s50.246-112.01 112.01-112.01c61.762 0 112.01 50.246 112.01 112.01-0.003906 61.766-50.254 112.01-112.01 112.01z"/>
 </g>
</svg>