<?xml version="1.0" encoding="UTF-8"?>
<!-- The Best Svg Icon site in the world: iconSvg.co, Visit us! https://iconsvg.co -->
<svg fill="#000000" width="800px" height="800px" version="1.1" viewBox="144 144 512 512" xmlns="http://www.w3.org/2000/svg">
 <g>
  <path d="m495.21 352.76c-1.5977-17.898-9.332-34.691-21.891-47.543-12.562-12.852-29.18-20.965-47.035-22.965-2.9609-0.32422-5.9375-0.48828-8.9141-0.49219-19.191-0.054687-37.715 7.0508-51.953 19.926-15.504 13.879-24.824 33.379-25.883 54.164-1.0586 20.785 6.2305 41.133 20.246 56.516 15.273 17.023 23.625 39.145 23.414 62.016 0.26172-0.082031 0.53125-0.13672 0.80469-0.16406h16.637l-4.8281-84.688-16.254-20c-0.76562-0.94531-1.1289-2.1523-1.0039-3.3633 0.125-1.207 0.72656-2.3164 1.668-3.082 1.9648-1.5977 4.8516-1.3008 6.4492 0.66406l13.645 16.797 13.617-16.789-0.003906-0.003906c0.89844-1.0234 2.1953-1.6094 3.5547-1.6094 1.3633 0 2.6562 0.58594 3.5547 1.6094l13.617 16.789 13.645-16.797v0.003906c1.5938-1.9648 4.4844-2.2656 6.4492-0.66797s2.2656 4.4844 0.66797 6.4492l-16.258 20-4.8125 84.668h17.594l-0.22266-0.25c0.19531-23.086 8.8281-45.297 24.273-62.457 14.27-16.062 21.234-37.328 19.234-58.723z"/>
  <path d="m388.59 483.36h57.738v8.7539h-57.738z"/>
  <path d="m390.99 519.48c2.25 5.1445 5.9531 9.5195 10.652 12.598 4.6953 3.0742 10.188 4.7148 15.805 4.7188 5.6055 0 11.094-1.6289 15.789-4.6953 4.6953-3.0625 8.3984-7.4297 10.656-12.562 0.046875-0.10937 0.078125-0.21875 0.125-0.32812h-53.137c0.042969 0.070312 0.070313 0.17187 0.10938 0.26953z"/>
  <path d="m430 389.34-12.516-15.43-12.512 15.43 4.8359 84.859h15.352z"/>
  <path d="m388.59 507.93c0 0.71094 0.054687 1.4062 0.10547 2.0977h57.527c0.050781-0.69141 0.10547-1.375 0.10547-2.0977l-0.003907-6.6562h-57.734z"/>
  <path d="m425.62 180.34c-31.285-1.4727-62.383 5.5664-89.984 20.363-27.602 14.797-50.676 36.801-66.77 63.668-16.09 26.867-24.602 57.594-24.617 88.91-0.027344 5.5859 0.26172 11.168 0.86719 16.719 0.20703 1.7344 0 3.4883-0.59375 5.1289l-33.711 88.027v0.003906c-2.3789 6.2812-1.5234 13.328 2.2852 18.859 3.8125 5.5312 10.098 8.8398 16.816 8.8477h6.7344-0.003907c6.2188 0.011718 11.254 5.0508 11.27 11.27v63.023-0.003906c0.003907 5.418 2.1562 10.609 5.9883 14.441 3.8281 3.8281 9.0195 5.9805 14.438 5.9883h59.543-0.003906c6.2188 0.011718 11.258 5.0469 11.27 11.266 0.003906 6.0977 2.4258 11.941 6.7383 16.254 4.3086 4.3125 10.156 6.7344 16.254 6.7383h163.28-0.003906c6.8477-0.015625 13.332-3.0781 17.695-8.3516 4.3633-5.2773 6.1523-12.219 4.8867-18.945l-8.3359-43.785c-3.293-17.121-1.4766-34.836 5.2227-50.934l30.594-74.016 3.25-7.5117 0.13672-0.36719 0.003906 0.003906c13.23-34.254 15.246-71.82 5.75-107.29-9.4961-35.473-30.012-67.008-58.59-90.07-28.574-23.059-63.734-36.449-100.41-38.234zm39.391 85.918 8.8711-15.371h-0.003906c1.2734-2.1719 4.0625-2.9102 6.2422-1.6523 2.1797 1.2578 2.9375 4.043 1.6914 6.2305l-8.8789 15.371c-1.2656 2.1914-4.0703 2.9453-6.2617 1.6797s-2.9414-4.0664-1.6758-6.2578zm-52.109-29.254c0-2.5312 2.0508-4.582 4.5781-4.582 2.5312 0 4.582 2.0508 4.582 4.582v17.742c0 2.5312-2.0508 4.582-4.582 4.582-2.5273 0-4.5781-2.0508-4.5781-4.582zm-58.066 12.207c1.0508-0.60938 2.3008-0.77734 3.4766-0.46094 1.1758 0.3125 2.1758 1.082 2.7812 2.1367l8.8672 15.371c0.61719 1.0508 0.78906 2.3047 0.47656 3.4844-0.30859 1.1797-1.0781 2.1875-2.1367 2.7969-1.0547 0.60938-2.3125 0.77344-3.4883 0.45312-1.1797-0.32031-2.1797-1.0938-2.7812-2.1562l-8.8711-15.371h-0.003906c-1.2617-2.1914-0.51172-4.9922 1.6797-6.2539zm-40.305 113.09h-17.758c-2.5312 0-4.582-2.0508-4.582-4.582 0-2.5273 2.0508-4.5781 4.582-4.5781h17.742c2.5312 0 4.582 2.0508 4.582 4.5781 0 2.5312-2.0508 4.582-4.582 4.582zm11.484-52.07-15.363-8.875 0.003906-0.003907c-2.1719-1.2734-2.9102-4.0586-1.6523-6.2383 1.2578-2.1836 4.043-2.9375 6.2305-1.6953l15.363 8.8711v0.003907c2.1914 1.2617 2.9414 4.0664 1.6758 6.2578-1.2617 2.1914-4.0664 2.9414-6.2578 1.6797zm156.8 107.32c-13.953 15.488-21.762 35.543-21.953 56.391v0.45703c-0.007812 3.5547-2.1172 6.7734-5.3828 8.1875v9.5039h12.02c2.5312 0 4.5781 2.0508 4.5781 4.582 0 2.5273-2.0469 4.5781-4.5781 4.5781h-12.02v6.6562c0 0.71094-0.070313 1.4023-0.10547 2.0977h12.125c2.5312 0 4.5781 2.0508 4.5781 4.5781 0 2.5312-2.0469 4.582-4.5781 4.582h-13.742c-0.41797 1.375-0.92187 2.7266-1.5039 4.0391-5.0469 11.5-15.441 19.766-27.781 22.086-12.34 2.3242-25.031-1.5977-33.91-10.477-3.3672-3.3398-6.0703-7.293-7.9688-11.641-0.57422-1.3008-1.0703-2.6328-1.4883-3.9883h-13.699c-2.5273 0-4.5781-2.0508-4.5781-4.582 0-2.5273 2.0508-4.5781 4.5781-4.5781h12.125c-0.035156-0.69531-0.10547-1.375-0.10547-2.0977v-6.6562h-12.02c-2.5273 0-4.5781-2.0508-4.5781-4.582 0-2.5273 2.0508-4.5781 4.5781-4.5781h12.02v-9.5039c-3.2656-1.4141-5.3789-4.6328-5.3828-8.1875 0.21484-20.602-7.2852-40.531-21.027-55.879-15.211-16.695-23.352-38.641-22.711-61.219 0.64453-22.578 10.023-44.023 26.16-59.828 16.137-15.801 37.777-24.727 60.363-24.895 22.586-0.16797 44.355 8.4297 60.727 23.988 16.375 15.562 26.07 36.863 27.051 59.43 0.98438 22.566-6.8281 44.633-21.789 61.555zm23.84-106.71c-2.0742-0.003906-3.8867-1.3945-4.4258-3.3984-0.53516-2 0.33984-4.1133 2.1328-5.1484l15.367-8.8711v-0.003906c1.0547-0.61328 2.3086-0.78516 3.4883-0.47656 1.1797 0.3125 2.1836 1.082 2.7969 2.1406 0.60938 1.0547 0.77344 2.3125 0.45312 3.4883-0.32031 1.1797-1.0977 2.1797-2.1562 2.7812l-15.371 8.8789c-0.69922 0.39062-1.4883 0.59375-2.2852 0.58594zm31.535 51.484h-17.738c-2.5273 0-4.5781-2.0508-4.5781-4.582 0-2.5273 2.0508-4.5781 4.5781-4.5781h17.746c2.5273 0 4.5781 2.0508 4.5781 4.5781 0 2.5312-2.0508 4.582-4.5781 4.582z"/>
 </g>
</svg>