<?xml version="1.0" encoding="UTF-8"?>
<!-- The Best Svg Icon site in the world: iconSvg.co, Visit us! https://iconsvg.co -->
<svg fill="#000000" width="800px" height="800px" version="1.1" viewBox="144 144 512 512" xmlns="http://www.w3.org/2000/svg">
 <g>
  <path d="m615.17 345.18h-310.64l308.54-26.996c1.4805-0.082032 2.7695 0.31641 3.832 1.207 1.0898 0.90234 1.7305 2.1719 1.8594 3.5586 0.25 2.8867 2.8438 5.1016 5.6797 4.7773 2.875-0.25 5.0273-2.793 4.7773-5.6875-0.35547-4.1875-2.3516-7.9883-5.5625-10.695-3.2109-2.707-7.2109-3.9883-11.492-3.6328l-309.42 27.07 304.99-53.781c1.375-0.21875 2.7812 0.0625 3.9258 0.87109s1.9219 2.0039 2.1641 3.3789c0.49219 2.8438 3.2734 4.7031 6.0781 4.2617 2.8438-0.51562 4.7539-3.2344 4.2422-6.0781-0.71484-4.1562-3.0117-7.7578-6.4766-10.18-3.4414-2.4023-7.6523-3.3281-11.766-2.5938l-305.86 53.93 299.12-80.148c2.8438-0.73438 5.6875 0.92188 6.4453 3.7148 0.73438 2.8008 3.5898 4.4805 6.4141 3.7148 2.8125-0.75391 4.4727-3.6406 3.7148-6.4336-2.2578-8.375-10.883-13.395-19.293-11.137l-415.25 111.27c-0.10547 0.03125-0.1875 0.10547-0.28516 0.13672-6.7773 1.7539-11.816 7.8711-11.816 15.188v189.59c0 8.668 7.0625 15.742 15.742 15.742h430.34c8.6797 0 15.742-7.0742 15.742-15.742l0.003906-189.56c0-8.6797-7.0625-15.742-15.742-15.742zm5.2461 205.33c0 2.8984-2.3711 5.2461-5.2461 5.2461h-430.34c-2.8867 0-5.2461-2.3516-5.2461-5.2461l-0.003907-189.59c0-2.8984 2.3633-5.2461 5.2461-5.2461h430.34c2.875 0 5.2461 2.3516 5.2461 5.2461z"/>
  <path d="m411.87 452.58c-2.1523-0.78906-4.375-1.3125-6.6211-1.6367v-45.93c0.90234 0.21875 1.8047 0.36719 2.6992 0.68359 11.977 4.3867 18.125 17.676 13.762 29.621-1.0078 2.7305 0.38672 5.7422 3.1172 6.75 2.7305 0.99609 5.75-0.41016 6.75-3.1367 6.3516-17.383-2.6016-36.727-19.996-43.074-2.0664-0.75391-4.1758-1.2695-6.3086-1.6055v-9.9414c0-2.8867-2.3516-5.2461-5.2461-5.2461-2.8984 0-5.2461 2.3633-5.2461 5.2461v10.066c-11.617 1.8789-21.957 9.6562-26.293 21.465-6.3594 17.383 2.6016 36.715 19.984 43.086 2.0469 0.74609 4.1562 1.0898 6.3086 1.3555v48.062c-1.0195-0.23047-2.0273-0.41797-3.0117-0.78906-6.0234-2.1953-10.832-6.6211-13.539-12.449-2.6992-5.8242-2.9688-12.363-0.75391-18.379 0.99609-2.7188-0.39844-5.7305-3.1289-6.7383-2.6992-0.99609-5.7422 0.41016-6.7383 3.1172-3.168 8.668-2.7812 18.043 1.1016 26.418 3.8711 8.3672 10.781 14.703 19.449 17.895 2.1719 0.79688 4.3867 1.3125 6.6211 1.6484v8.0703c0 2.8984 2.3516 5.2461 5.2461 5.2461 2.8984 0 5.2461-2.3516 5.2461-5.2461v-8.1641c3.168-0.49219 6.3086-1.25 9.2891-2.6445 8.3672-3.8711 14.715-10.781 17.887-19.449 3.168-8.668 2.7812-18.031-1.0898-26.418-3.9258-8.3516-10.832-14.711-19.488-17.883zm-19.816-3.5039c-11.953-4.3867-18.117-17.688-13.738-29.629 2.7695-7.5781 9.1094-12.805 16.426-14.527v44.871c-0.89453-0.19922-1.8086-0.39062-2.6875-0.71484zm30.5 44.176c-2.1953 6.0234-6.6211 10.844-12.449 13.551-1.5625 0.73437-3.2109 1.25-4.8711 1.6172v-46.719c1.0195 0.21875 2.0273 0.38672 3.0117 0.73438 6.0234 2.2148 10.832 6.6211 13.539 12.449 2.7109 5.8164 2.9844 12.355 0.76953 18.367z"/>
 </g>
</svg>