<?xml version="1.0" encoding="UTF-8"?>
<!-- The Best Svg Icon site in the world: iconSvg.co, Visit us! https://iconsvg.co -->
<svg fill="#000000" width="800px" height="800px" version="1.1" viewBox="144 144 512 512" xmlns="http://www.w3.org/2000/svg">
 <g>
  <path d="m434.97 409.51-23.555 28.906 9.5938 16.605-185.88-21.77 1.9688 45.387 5.0234 2.8906 86.367 49.219 106.46 22.223h114.54l-46.188-107.52zm5.4336 26.59 46.535 24.457 30.668 71.422h-80.484l-101.11-21.113-78.453-44.711-0.39062-9.1836 202.95 23.781-23.289-40.305 3.5664-4.3477z"/>
  <path d="m320.09 366.75v56.684h56.684v-56.684zm20.992 20.992h14.699v14.699h-14.699z"/>
  <path d="m320.8 286.22-74.066 98.359v61.871h20.992v-54.836l63.551-84.398h34.277l63.57 84.398v34.828h20.992v-41.859l-74.086-98.359h-55.227z"/>
  <path d="m299.4 216.32 18.879 61.684h60.27l18.902-61.684zm28.371 20.992h41.289l-6.0273 19.699h-29.234z"/>
  <path d="m440.64 562.69v20.992h113.2v-20.992z"/>
 </g>
</svg>