<?xml version="1.0" encoding="UTF-8"?>
<!-- The Best Svg Icon site in the world: iconSvg.co, Visit us! https://iconsvg.co -->
<svg fill="#000000" width="800px" height="800px" version="1.1" viewBox="144 144 512 512" xmlns="http://www.w3.org/2000/svg">
 <g>
  <path d="m591.55 528.9h-22.535l28.359-168.1c0.28906-1.7383-0.1875-3.5195-1.3125-4.875-1.1133-1.3516-2.7617-2.1445-4.5117-2.1758h-96.836c-1.6992-50.184-43.531-91.566-94.719-91.566-51.184 0-93.016 41.383-94.715 91.566h-96.836c-1.7578 0.0625-3.4023 0.88672-4.5078 2.2578-1.1211 1.293-1.6016 3.0234-1.3125 4.7109l28.355 168.18h-22.535 0.003907c-3.3906 0.125-6.1094 2.8438-6.2344 6.2305v29.52c0 3.2617 2.9727 5.5781 6.2305 5.5781h50.656c-6.5391 6.8867-10.641 14.965-10.641 24.602 0.007812 11.953 6.3906 22.992 16.746 28.961 10.355 5.9727 23.109 5.9648 33.457-0.019531 10.348-5.9805 16.719-17.031 16.711-28.984 0-9.6328-4.0977-17.672-10.641-24.559h190.53c-6.5391 6.8867-10.641 14.965-10.641 24.602 0.007812 11.953 6.3906 22.992 16.746 28.961 10.355 5.9727 23.109 5.9648 33.457-0.019531 10.348-5.9805 16.719-17.031 16.711-28.984 0-9.6328-4.0977-17.672-10.641-24.559h50.656c3.2617 0 6.2305-2.3164 6.2305-5.5781v-29.52c-0.125-3.3867-2.8438-6.1016-6.2305-6.2305zm-309.63 87.742c-5.7422 0-11.246-2.2812-15.309-6.3398-4.0586-4.0625-6.3398-9.5664-6.3398-15.309 0-5.7422 2.2812-11.25 6.3398-15.309 4.0625-4.0586 9.5664-6.3398 15.309-6.3398 5.7422 0 11.246 2.2812 15.309 6.3398 4.0586 4.0586 6.3398 9.5664 6.3398 15.309-0.007812 5.7383-2.2891 11.242-6.3477 15.301s-9.5625 6.3398-15.301 6.3477zm236.16 0c-5.7422 0-11.246-2.2812-15.309-6.3398-4.0586-4.0625-6.3398-9.5664-6.3398-15.309 0-5.7422 2.2812-11.25 6.3398-15.309 4.0625-4.0586 9.5664-6.3398 15.309-6.3398s11.25 2.2812 15.309 6.3398c4.0586 4.0586 6.3398 9.5664 6.3398 15.309-0.007812 5.7383-2.2891 11.242-6.3477 15.301s-9.5625 6.3398-15.301 6.3477zm-118.08-342.32c22.004 0 43.109 8.7383 58.668 24.301 15.559 15.559 24.301 36.66 24.301 58.668 0.003906 22.004-8.7383 43.109-24.297 58.668-15.562 15.562-36.664 24.305-58.672 24.305-22.004 0-43.109-8.7422-58.668-24.301-15.562-15.559-24.305-36.664-24.305-58.668 0.023437-22 8.7734-43.09 24.328-58.645 15.555-15.555 36.645-24.305 58.645-24.328zm-184.57 91.238h90.188-0.003907c2.8867 31.688 21.48 59.812 49.504 74.879 28.023 15.066 61.738 15.066 89.762 0 28.023-15.066 46.617-43.191 49.504-74.879h90.188l-27.531 163.34h-314.08zm370.55 192.86h-371.95v-17.711h371.95z"/>
  <path d="m400 400.36c-4.5391-0.003906-8.8867-1.8086-12.098-5.0156-3.207-3.2109-5.0117-7.5586-5.0156-12.098 0-3.2578-2.6445-5.9023-5.9062-5.9023-3.2578 0-5.9023 2.6445-5.9023 5.9023 0.007813 6.2969 2.0664 12.418 5.8672 17.438 3.7969 5.0195 9.125 8.6641 15.18 10.387v8.6094c0 3.2578 2.6445 5.9023 5.9062 5.9023s5.9023-2.6445 5.9023-5.9023v-7.7891c9.7695-1.3438 18.18-7.5703 22.316-16.523 4.1328-8.9531 3.418-19.398-1.8945-27.703-5.3164-8.3086-14.496-13.336-24.355-13.336-4.5391 0-8.8906-1.8047-12.102-5.0117-3.207-3.2109-5.0117-7.5625-5.0117-12.102 0-4.5391 1.8047-8.8906 5.0117-12.098 3.2109-3.2109 7.5625-5.0117 12.102-5.0117s8.8906 1.8008 12.098 5.0117c3.2109 3.207 5.0117 7.5625 5.0117 12.098 0 3.2617 2.6445 5.9062 5.9062 5.9062s5.9023-2.6445 5.9023-5.9062c-0.007813-6.6406-2.3008-13.078-6.4883-18.234-4.1914-5.1562-10.027-8.7148-16.527-10.078v-7.3047c0-3.2617-2.6445-5.9023-5.9023-5.9023-3.2617 0-5.9062 2.6406-5.9062 5.9023v7.3047c-9.4258 1.9648-17.254 8.4922-20.883 17.41-3.6289 8.918-2.582 19.055 2.7891 27.043 5.375 7.9883 14.371 12.781 24 12.781 4.5586-0.035157 8.9453 1.75 12.184 4.9648 3.2383 3.2109 5.0586 7.5859 5.0586 12.145 0 4.5625-1.8203 8.9336-5.0586 12.148-3.2383 3.2109-7.625 5-12.184 4.9648z"/>
  <path d="m400 217.96c3.2578 0 5.9023-2.6406 5.9023-5.9023v-34.441c0-3.2617-2.6445-5.9023-5.9023-5.9023-3.2617 0-5.9062 2.6406-5.9062 5.9023v34.441c0 3.2617 2.6445 5.9023 5.9062 5.9023z"/>
  <path d="m517.47 269.71c1.5664 0.003906 3.0664-0.61719 4.1719-1.7266l24.738-24.738c2.3086-2.3086 2.3047-6.0469 0-8.3516-2.3047-2.3047-6.043-2.3047-8.3516 0l-24.738 24.738h0.003907c-1.6914 1.6875-2.1953 4.2305-1.2812 6.4336 0.91406 2.207 3.0664 3.6484 5.457 3.6445z"/>
  <path d="m277.86 268.4c2.3047 2.3086 6.043 2.3086 8.3477 0.003906 2.3086-2.3086 2.3086-6.0469 0.003906-8.3516l-24.738-24.738c-2.3047-2.3047-6.043-2.3047-8.3516 0-2.3047 2.3047-2.3047 6.043 0 8.3477z"/>
  <path d="m326.12 232.54c0.63672 1.4375 1.8164 2.5664 3.2852 3.1289s3.1016 0.51953 4.5352-0.125c1.4336-0.64453 2.5508-1.8359 3.1055-3.3047 0.55469-1.4727 0.5-3.1055-0.15234-4.5352l-14.324-31.914c-0.62891-1.4531-1.8125-2.5898-3.2812-3.1602-1.4727-0.57031-3.1133-0.53125-4.5547 0.11719-1.4414 0.64844-2.5625 1.8438-3.1172 3.3242-0.55078 1.4805-0.48438 3.1211 0.17969 4.5508z"/>
  <path d="m456.54 231.93c3.0469 1.1602 6.457-0.37109 7.6172-3.418l12.441-32.695c0.57031-1.4648 0.53125-3.0977-0.10937-4.5352-0.63672-1.4375-1.8242-2.5625-3.293-3.1211-1.4727-0.5625-3.1055-0.51172-4.5391 0.14062-1.4336 0.64844-2.5469 1.8438-3.0938 3.3164l-12.441 32.699h-0.003906c-1.1562 3.0469 0.375 6.4531 3.4219 7.6133z"/>
 </g>
</svg>