<?xml version="1.0" encoding="UTF-8"?>
<!-- The Best Svg Icon site in the world: iconSvg.co, Visit us! https://iconsvg.co -->
<svg fill="#000000" width="800px" height="800px" version="1.1" viewBox="144 144 512 512" xmlns="http://www.w3.org/2000/svg">
 <g>
  <path d="m244.53 610.65c-4.0234 0-8.0781-0.89453-11.898-2.7188-9.6602-4.6094-15.66-14.121-15.66-24.82l0.003906-164.61c0-10.699 6-20.211 15.66-24.82 9.6602-4.6094 20.828-3.2891 29.145 3.4453l121.46 98.332c1.6172 1.3086 2.5547 3.2734 2.5547 5.3516 0 2.0781-0.9375 4.0469-2.5547 5.3516l-121.46 98.328c-5.0312 4.0742-11.102 6.1641-17.25 6.1641zm0.019531-205.93c-2.0078 0-4.0391 0.45703-5.9844 1.3867-4.8945 2.3359-7.8164 6.9648-7.8164 12.387v164.62c0 5.4219 2.9219 10.051 7.8164 12.387 4.8945 2.3359 10.332 1.6914 14.543-1.7188l114.85-92.977-114.85-92.977c-2.5352-2.0547-5.5195-3.1055-8.5586-3.1055z"/>
  <path d="m445.36 500.8 155.05-125.52z"/>
  <path d="m579.74 610.65c-6.1484 0-12.219-2.0938-17.246-6.1641l-121.46-98.328c-1.6172-1.3086-2.5547-3.2734-2.5547-5.3516 0-2.0781 0.9375-4.0469 2.5547-5.3516l121.46-98.332c8.3164-6.7344 19.484-8.0547 29.145-3.4453 9.6602 4.6094 15.66 14.121 15.66 24.82v164.62c0 10.703-6 20.215-15.66 24.82-3.8203 1.8203-7.875 2.7148-11.898 2.7148zm-123.43-109.84 114.86 92.977c4.2148 3.4102 9.6484 4.0547 14.543 1.7188s7.8164-6.9648 7.8164-12.387v-164.62c0-5.4219-2.9219-10.051-7.8164-12.387-4.8906-2.3359-10.328-1.6914-14.543 1.7188z"/>
  <path d="m542.18 633.21h-260.1c-11.809 0-21.984-7.1914-25.926-18.324-3.9414-11.133-0.55859-23.125 8.6211-30.555l143.02-115.77c2.5273-2.0469 6.1406-2.0469 8.668 0l143.02 115.78c9.1758 7.4258 12.562 19.418 8.6211 30.551-3.9414 11.133-14.117 18.324-25.926 18.324zm-130.05-150.44-138.69 112.27c-5.5586 4.5-5.8672 10.828-4.3008 15.25 1.5664 4.4219 5.7852 9.1445 12.938 9.1445h260.1c7.1523 0 11.375-4.7227 12.938-9.1445 1.5664-4.4219 1.2578-10.746-4.3008-15.246z"/>
  <path d="m428.66 348.88c-0.13281-0.17578-0.51562-0.46094-1.1523-0.85547-0.63281-0.39453-1.4453-0.82031-2.4297-1.2812-0.98438-0.46094-2.082-0.89844-3.2852-1.3164-1.207-0.41406-2.4219-0.71094-3.6484-0.88672v8.9414l2.1055 0.52734c2.2344 0.61328 4.25 1.2812 6.0469 2.0039 1.793 0.72266 3.3203 1.6211 4.5703 2.6953s2.2109 2.3789 2.8906 3.9102c0.67969 1.5352 1.0195 3.375 1.0195 5.5195 0 2.5-0.44141 4.625-1.3164 6.375-0.875 1.7539-2.0469 3.1875-3.5156 4.3047s-3.1523 1.9609-5.0625 2.5312c-1.9062 0.57031-3.9102 0.89844-6.0156 0.98438v7.625h-4.5352v-7.6914c-3.0234-0.26172-6.0117-0.875-8.9727-1.8398-2.957-0.96484-5.6211-2.2344-7.9844-3.8125l4.7305-9.3984c0.17578 0.21875 0.64453 0.58203 1.4141 1.0859 0.76562 0.50391 1.7422 1.0312 2.9258 1.5781s2.5195 1.0742 4.0117 1.5781c1.4883 0.50391 3.0234 0.86719 4.6016 1.0859v-8.7422l-3.1562-0.92188c-2.1484-0.65625-4.0117-1.3672-5.5859-2.1367-1.5781-0.76562-2.8828-1.6523-3.9102-2.6641-1.0312-1.0078-1.7969-2.168-2.3008-3.4844-0.50391-1.3164-0.75391-2.8477-0.75391-4.6016 0-2.2773 0.39453-4.3047 1.1836-6.082 0.78906-1.7734 1.8516-3.2969 3.1875-4.5703 1.3359-1.2695 2.9141-2.2656 4.7344-2.9922 1.8164-0.72266 3.7812-1.1953 5.8828-1.4141v-6.6406h4.5352v6.6406c2.8477 0.26562 5.5195 0.89844 8.0195 1.9062 2.4961 1.0078 4.668 2.0391 6.5078 3.0898zm-18.207-0.59375c0 1.0977 0.38281 1.9609 1.1484 2.5977 0.76562 0.63672 1.9141 1.1953 3.4531 1.6758v-8.0859c-3.0664 0.26562-4.6016 1.5352-4.6016 3.8125zm12.754 20.902c0-1.1406-0.46094-2.0273-1.3828-2.6602-0.92187-0.63281-2.1484-1.2148-3.6797-1.7422v7.8867c3.375-0.13281 5.0625-1.293 5.0625-3.4844z"/>
  <path d="m416.07 415.21c-30.926 0-56.09-25.16-56.09-56.09 0-30.926 25.16-56.09 56.09-56.09 30.926 0 56.09 25.16 56.09 56.09s-25.16 56.09-56.09 56.09zm0-98.398c-23.332 0-42.312 18.98-42.312 42.312 0 23.332 18.98 42.312 42.312 42.312 23.332 0 42.312-18.98 42.312-42.312 0-23.332-18.98-42.312-42.312-42.312z"/>
  <path d="m536.9 261.82c-0.13281-0.17578-0.51563-0.46094-1.1523-0.85547-0.63281-0.39453-1.4453-0.82031-2.4297-1.2812s-2.082-0.89844-3.2852-1.3164c-1.207-0.41406-2.4219-0.71094-3.6484-0.88672v8.9375l2.1055 0.52734c2.2344 0.61328 4.25 1.2812 6.0469 2.0039 1.793 0.72266 3.3203 1.6211 4.5703 2.6953 1.25 1.0742 2.2109 2.3789 2.8906 3.9102 0.67969 1.5352 1.0195 3.375 1.0195 5.5195 0 2.4961-0.44141 4.625-1.3164 6.375-0.875 1.7539-2.0469 3.1875-3.5156 4.3047-1.4688 1.1172-3.1523 1.9609-5.0625 2.5312-1.9062 0.57031-3.9102 0.89844-6.0156 0.98438v7.625h-4.5352v-7.6914c-3.0234-0.26172-6.0117-0.875-8.9727-1.8398-2.957-0.96484-5.6211-2.2344-7.9844-3.8125l4.7305-9.3984c0.17578 0.21875 0.64453 0.58203 1.4141 1.0859 0.76563 0.50391 1.7422 1.0312 2.9219 1.5781 1.1836 0.55078 2.5195 1.0742 4.0117 1.5781 1.4883 0.50391 3.0234 0.86719 4.6016 1.0859v-8.7422l-3.1562-0.92188c-2.1484-0.65625-4.0078-1.3672-5.5859-2.1367-1.5781-0.76562-2.8828-1.6523-3.9102-2.6602-1.0312-1.0078-1.7969-2.168-2.3008-3.4844-0.50391-1.3164-0.75391-2.8477-0.75391-4.6016 0-2.2773 0.39453-4.3047 1.1836-6.082 0.78906-1.7734 1.8516-3.2969 3.1875-4.5703 1.3359-1.2695 2.9141-2.2656 4.7344-2.9922 1.8164-0.72266 3.7773-1.1953 5.8828-1.4141v-6.6406h4.5352v6.6406c2.8477 0.26172 5.5195 0.89844 8.0195 1.9062 2.4961 1.0078 4.668 2.0352 6.5078 3.0898zm-18.207-0.58984c0 1.0938 0.38281 1.9609 1.1484 2.5977s1.9141 1.1953 3.4531 1.6758v-8.0859c-3.0664 0.26172-4.6016 1.5352-4.6016 3.8125zm12.754 20.898c0-1.1406-0.46094-2.0273-1.3828-2.6602-0.92188-0.63281-2.1484-1.2148-3.6797-1.7422v7.8867c3.375-0.12891 5.0625-1.293 5.0625-3.4844z"/>
  <path d="m445.36 507.69c-1.5352 0-3.0703-0.51172-4.332-1.5352l-28.891-23.387-28.891 23.387c-2.5273 2.0469-6.1406 2.0469-8.668 0l-135.26-109.49c-6.4805-5.2461-10.195-13.035-10.195-21.375 0-8.3398 3.7148-16.129 10.195-21.375l150.2-121.59c13.105-10.609 32.133-10.609 45.242 0l44.734 36.215c1.5469 1.2539 2.4766 3.1133 2.5508 5.1055 0.82422 22.844 19.391 40.742 42.266 40.742 2.3906 0 4.8438-0.21484 7.2852-0.63672 1.957-0.33984 3.9648 0.18359 5.5117 1.4336l47.844 38.73c6.4805 5.2461 10.195 13.039 10.195 21.375 0 8.3359-3.7148 16.129-10.195 21.375l-135.26 109.49c-1.2617 1.0234-2.7969 1.5352-4.332 1.5352zm-33.223-269.56c-4.957 0-9.9102 1.6367-13.953 4.9102l-150.2 121.59c-3.2344 2.6172-5.0898 6.5078-5.0859 10.668 0 4.1602 1.8555 8.0508 5.0859 10.668l130.92 105.98 28.891-23.387c2.5273-2.0469 6.1406-2.0469 8.668 0l28.891 23.387 130.92-105.99c3.2344-2.6172 5.0898-6.5039 5.0898-10.668 0-4.1602-1.8555-8.0508-5.0898-10.668l-45.504-36.836c-2.168 0.25391-4.332 0.37891-6.4688 0.37891-29.246 0-53.18-22.07-55.832-50.812l-42.391-34.316c-4.0352-3.2734-8.9922-4.9062-13.945-4.9062z"/>
  <path d="m524.31 328.17c-30.32 0-54.938-23.727-56.035-54.02-0.027344-0.68359-0.050782-1.3711-0.050782-2.0664 0-30.926 25.16-56.09 56.09-56.09 30.926 0 56.09 25.16 56.09 56.09 0 27.344-19.535 50.578-46.449 55.246-3.2227 0.55469-6.4688 0.83984-9.6445 0.83984zm0-98.402c-23.332 0-42.312 18.98-42.312 42.312 0 0.51953 0.019531 1.0352 0.042969 1.5508 0.82812 22.863 19.395 40.762 42.27 40.762 2.3906 0 4.8438-0.21484 7.2852-0.63672 20.297-3.5195 35.027-21.047 35.027-41.672 0-23.336-18.984-42.316-42.312-42.316z"/>
  <path d="m261.38 212.62c-0.13281-0.17578-0.51562-0.46094-1.1484-0.85547-0.63672-0.39453-1.4453-0.82031-2.4336-1.2812-0.98438-0.46094-2.082-0.89844-3.2852-1.3164-1.207-0.41406-2.4219-0.71094-3.6484-0.88672v8.9375l2.1055 0.52734c2.2344 0.61328 4.25 1.2812 6.0469 2.0039s3.3203 1.6211 4.5703 2.6953 2.2109 2.3789 2.8906 3.9102c0.67969 1.5352 1.0195 3.375 1.0195 5.5195 0 2.5-0.4375 4.625-1.3164 6.375-0.875 1.7539-2.0469 3.1875-3.5156 4.3047-1.4688 1.1172-3.1562 1.9609-5.0625 2.5312-1.9062 0.57031-3.9141 0.89844-6.0156 0.98438v7.625h-4.5352v-7.6914c-3.0234-0.26172-6.0156-0.875-8.9727-1.8398-2.957-0.96484-5.6211-2.2344-7.9844-3.8125l4.7305-9.3984c0.17578 0.21875 0.64844 0.58203 1.4141 1.0859 0.76562 0.50391 1.7422 1.0312 2.9258 1.5781 1.1836 0.55078 2.5195 1.0742 4.0078 1.5781 1.4883 0.50391 3.0234 0.86719 4.6016 1.0859v-8.7422l-3.1562-0.92188c-2.1484-0.65625-4.0117-1.3672-5.5859-2.1367-1.5781-0.76562-2.8828-1.6523-3.9141-2.6602-1.0312-1.0078-1.7969-2.168-2.3008-3.4844s-0.75391-2.8477-0.75391-4.6016c0-2.2773 0.39453-4.3047 1.1836-6.082 0.78906-1.7734 1.8516-3.2969 3.1875-4.5703 1.3359-1.2695 2.9141-2.2656 4.7305-2.9922 1.8203-0.72266 3.7812-1.1953 5.8828-1.4141v-6.6406h4.5352v6.6406c2.8477 0.26172 5.5195 0.89844 8.0195 1.9062 2.4961 1.0078 4.668 2.0352 6.5078 3.0898zm-18.207-0.58984c0 1.0938 0.38281 1.9609 1.1484 2.5977 0.76563 0.63672 1.918 1.1953 3.4531 1.6758v-8.0859c-3.0664 0.26172-4.6016 1.5312-4.6016 3.8125zm12.75 20.898c0-1.1406-0.46094-2.0273-1.3789-2.6602-0.92188-0.63281-2.1484-1.2148-3.6797-1.7422v7.8867c3.3711-0.13281 5.0586-1.293 5.0586-3.4844z"/>
  <path d="m248.79 278.96c-30.926 0-56.09-25.16-56.09-56.09 0-30.926 25.16-56.09 56.09-56.09 30.926 0 56.09 25.16 56.09 56.09s-25.16 56.09-56.09 56.09zm0-98.398c-23.332 0-42.312 18.98-42.312 42.312 0 23.332 18.98 42.312 42.312 42.312 23.332 0 42.312-18.98 42.312-42.312 0-23.332-18.98-42.312-42.312-42.312z"/>
  <path d="m376.71 586.96h19.68v19.68h-19.68z"/>
  <path d="m406.23 586.96h19.68v19.68h-19.68z"/>
  <path d="m435.75 586.96h19.68v19.68h-19.68z"/>
 </g>
</svg>