<?xml version="1.0" encoding="UTF-8"?>
<!-- The Best Svg Icon site in the world: iconSvg.co, Visit us! https://iconsvg.co -->
<svg fill="#000000" width="800px" height="800px" version="1.1" viewBox="144 144 512 512" xmlns="http://www.w3.org/2000/svg">
 <g>
  <path d="m274.04 228.16-73.473 75.746v263.34h398.85v-263.34l-73.473-75.746-62.852 64.902-62.832-64.902-7.543 7.7695-55.555 57.176-63.121-64.941zm0.019531 30.137 63.078 64.922 63.098-64.902 62.852 64.922 62.875-64.922 52.461 54.102v233.84h-356.86v-233.84z"/>
  <path d="m495.91 344.3v57.727h57.727v-57.727zm20.992 20.992h15.742v15.742h-15.742z"/>
  <path d="m246.37 344.3v57.727h57.727v-57.727zm20.992 20.992h15.742v15.742h-15.742z"/>
  <path d="m371.13 344.3v57.727h57.727v-57.727zm20.992 20.992h15.742v15.742h-15.742z"/>
  <path d="m495.91 450.39v57.727h57.727v-57.727zm20.992 20.992h15.742v15.742h-15.742z"/>
  <path d="m246.37 450.39v57.727h57.727v-57.727zm20.992 20.992h15.742v15.742h-15.742z"/>
  <path d="m371.13 450.39v115.97h57.727v-115.97zm20.992 20.992h15.742v73.984h-15.742z"/>
 </g>
</svg>