<?xml version="1.0" encoding="UTF-8"?>
<!-- The Best Svg Icon site in the world: iconSvg.co, Visit us! https://iconsvg.co -->
<svg width="800px" height="800px" version="1.1" viewBox="144 144 512 512" xmlns="http://www.w3.org/2000/svg">
 <defs>
  <clipPath id="a">
   <path d="m274 400h252v251.9h-252z"/>
  </clipPath>
 </defs>
 <g clip-path="url(#a)">
  <path d="m400 651.9c-33.406 0-65.441-13.27-89.062-36.891-23.621-23.621-36.891-55.656-36.891-89.062 0-33.402 13.27-65.441 36.891-89.059 23.621-23.621 55.656-36.891 89.062-36.891 33.402 0 65.441 13.27 89.059 36.891 23.621 23.617 36.891 55.656 36.891 89.059-0.035157 33.395-13.32 65.41-36.93 89.02-23.613 23.613-55.629 36.895-89.02 36.934zm0-220.42v0.003906c-25.055 0-49.082 9.9492-66.797 27.668-17.715 17.715-27.668 41.742-27.668 66.793 0 25.055 9.9531 49.082 27.668 66.797s41.742 27.668 66.797 27.668c25.051 0 49.078-9.9531 66.793-27.668 17.719-17.715 27.668-41.742 27.668-66.797-0.027344-25.043-9.9883-49.055-27.695-66.766-17.711-17.707-41.723-27.668-66.766-27.695z"/>
 </g>
 <path d="m407.87 588.93h-39.359c-5.625 0-10.824-3-13.637-7.8711-2.8125-4.8711-2.8125-10.871 0-15.742s8.0117-7.875 13.637-7.875h39.359c4.3477 0 7.8711-3.5234 7.8711-7.8711s-3.5234-7.8711-7.8711-7.8711h-15.746c-14.059 0-27.055-7.5039-34.086-19.68-7.0312-12.18-7.0312-27.184 0-39.359 7.0312-12.18 20.027-19.68 34.086-19.68h39.363c5.625 0 10.82 3 13.633 7.8711s2.8125 10.871 0 15.742-8.0078 7.8711-13.633 7.8711h-39.363c-4.3477 0-7.8711 3.5273-7.8711 7.875 0 4.3477 3.5234 7.8711 7.8711 7.8711h15.746c14.062 0 27.055 7.5 34.086 19.68 7.0312 12.18 7.0312 27.184 0 39.359-7.0312 12.18-20.023 19.68-34.086 19.68z"/>
 <path d="m400 494.46c-4.1758 0-8.1797-1.6562-11.133-4.6094-2.9531-2.9531-4.6133-6.957-4.6133-11.133v-15.742c0-5.625 3-10.824 7.8711-13.637s10.875-2.8125 15.746 0 7.8711 8.0117 7.8711 13.637v15.742c0 4.1758-1.6602 8.1797-4.6094 11.133-2.9531 2.9531-6.957 4.6094-11.133 4.6094z"/>
 <path d="m400 604.67c-4.1758 0-8.1797-1.6602-11.133-4.6133-2.9531-2.9531-4.6133-6.957-4.6133-11.133v-15.742c0-5.625 3-10.824 7.8711-13.637s10.875-2.8125 15.746 0 7.8711 8.0117 7.8711 13.637v15.742c0 4.1758-1.6602 8.1797-4.6094 11.133-2.9531 2.9531-6.957 4.6133-11.133 4.6133z"/>
 <path d="m606.72 541.7h-96.512c-5.625 0-10.824-3-13.637-7.8711-2.8125-4.8711-2.8125-10.875 0-15.746s8.0117-7.8711 13.637-7.8711h96.512l-206.73-309.13-206.69 309.07 96.492 0.0625c5.625 0 10.824 3 13.637 7.8711s2.8125 10.875 0 15.746c-2.8125 4.8711-8.0117 7.8711-13.637 7.8711h-96.512c-7.625-0.015624-14.992-2.793-20.727-7.8203-5.7344-5.0312-9.4531-11.969-10.465-19.527-1.0117-7.5625 0.75-15.23 4.9648-21.59l206.8-309.18c5.8125-8.8203 15.684-14.117 26.25-14.082s20.402 5.3945 26.16 14.25l206.61 308.9c4.25 6.3555 6.0469 14.035 5.0547 21.613-0.99219 7.582-4.7031 14.539-10.441 19.586-5.7422 5.0469-13.121 7.8398-20.762 7.8516z"/>
 <path d="m457.15 274.05h-114.3c-5.625 0-10.824-3-13.637-7.8711-2.8086-4.8711-2.8086-10.875 0-15.746 2.8125-4.8711 8.0117-7.8711 13.637-7.8711h114.3c5.625 0 10.824 3 13.637 7.8711 2.8125 4.8711 2.8125 10.875 0 15.746-2.8125 4.8711-8.0117 7.8711-13.637 7.8711z"/>
 <path d="m520.44 368.51h-240.89c-5.6211 0-10.82-3.0039-13.633-7.875-2.8125-4.8711-2.8125-10.871 0-15.742 2.8125-4.8711 8.0117-7.8711 13.633-7.8711h240.89c5.625 0 10.82 3 13.633 7.8711 2.8125 4.8711 2.8125 10.871 0 15.742-2.8125 4.8711-8.0078 7.875-13.633 7.875z"/>
</svg>