<?xml version="1.0" encoding="UTF-8"?>
<!-- The Best Svg Icon site in the world: iconSvg.co, Visit us! https://iconsvg.co -->
<svg fill="#000000" width="800px" height="800px" version="1.1" viewBox="144 144 512 512" xmlns="http://www.w3.org/2000/svg">
 <g>
  <path d="m400 163.84c-62.637 0-122.7 24.883-166.99 69.172-44.289 44.289-69.172 104.36-69.172 166.99 0 62.633 24.883 122.7 69.172 166.99 44.289 44.289 104.36 69.172 166.99 69.172 62.633 0 122.7-24.883 166.99-69.172 44.289-44.289 69.172-104.36 69.172-166.99-0.070312-62.613-24.977-122.64-69.25-166.91-44.273-44.273-104.3-69.176-166.91-69.25zm220.22 228.29h-134.03c-1.8633-20.141-10.711-38.996-25.016-53.301-14.305-14.305-33.16-23.152-53.301-25.016v-134.03c55.664 2.0547 108.49 25.086 147.88 64.473 39.387 39.387 62.418 92.215 64.473 147.88zm-220.22 78.723c-18.793 0-36.812-7.4648-50.098-20.75-13.289-13.289-20.754-31.309-20.754-50.098 0-18.793 7.4648-36.812 20.754-50.098 13.285-13.289 31.305-20.754 50.098-20.754 18.789 0 36.809 7.4648 50.098 20.754 13.285 13.285 20.75 31.305 20.75 50.098-0.023437 18.781-7.4961 36.789-20.777 50.07s-31.289 20.754-50.07 20.777zm-7.875-157.04c-17.465 1.5742-34.035 8.4375-47.5 19.68l-94.715-94.707c38.734-36.184 89.246-57.141 142.21-59.004zm-153.34-63.898 94.715 94.715c-11.246 13.461-18.113 30.035-19.688 47.5h-134.03c1.8633-52.969 22.82-103.48 59.004-142.21zm-59.004 157.96h134.03c1.8633 20.141 10.711 38.996 25.016 53.301 14.305 14.305 33.16 23.152 53.301 25.016v134.03c-55.66-2.0547-108.49-25.086-147.88-64.473-39.387-39.387-62.418-92.211-64.473-147.88zm228.09 212.35v-134.03c20.141-1.8633 38.996-10.711 53.301-25.016s23.152-33.16 25.016-53.301h134.03c-2.0547 55.664-25.086 108.49-64.473 147.88-39.387 39.387-92.211 62.418-147.88 64.473z"/>
  <path d="m407.87 462.98v-8.9922c9.9688-2.5664 18.051-9.8516 21.629-19.504 3.582-9.6484 2.207-20.441-3.6758-28.891-5.8828-8.4453-15.531-13.477-25.824-13.465-4.1758 0-8.1797-1.6562-11.133-4.6094-2.9531-2.9531-4.6133-6.957-4.6133-11.133 0-4.1758 1.6602-8.1797 4.6133-11.133 2.9531-2.9531 6.957-4.6133 11.133-4.6133s8.1797 1.6602 11.133 4.6133c2.9492 2.9531 4.6094 6.957 4.6094 11.133 0 4.3477 3.5234 7.8711 7.8711 7.8711 4.3477 0 7.875-3.5234 7.875-7.8711-0.027343-6.9609-2.3594-13.715-6.6328-19.211-4.2734-5.4961-10.246-9.418-16.984-11.16v-8.9883c0-4.3477-3.5234-7.875-7.8711-7.875s-7.875 3.5273-7.875 7.875v8.9883c-9.9688 2.5664-18.047 9.8516-21.629 19.504-3.582 9.6523-2.207 20.445 3.6758 28.891 5.8867 8.4492 15.531 13.477 25.828 13.465 4.1758 0 8.1797 1.6562 11.133 4.6094 2.9492 2.9531 4.6094 6.957 4.6094 11.133s-1.6602 8.1797-4.6094 11.133c-2.9531 2.9531-6.957 4.6133-11.133 4.6133s-8.1797-1.6602-11.133-4.6133c-2.9531-2.9531-4.6133-6.957-4.6133-11.133 0-4.3477-3.5234-7.8711-7.8711-7.8711-4.3477 0-7.8711 3.5234-7.8711 7.8711 0.023437 6.9609 2.3555 13.719 6.6289 19.211 4.2734 5.4961 10.246 9.4219 16.984 11.16v8.9922c0 4.3477 3.5273 7.8711 7.875 7.8711s7.8711-3.5234 7.8711-7.8711z"/>
 </g>
</svg>