<?xml version="1.0" encoding="UTF-8"?>
<!-- The Best Svg Icon site in the world: iconSvg.co, Visit us! https://iconsvg.co -->
<svg width="800px" height="800px" version="1.1" viewBox="144 144 512 512" xmlns="http://www.w3.org/2000/svg">
 <defs>
  <clipPath id="d">
   <path d="m148.09 379h92.906v94h-92.906z"/>
  </clipPath>
  <clipPath id="c">
   <path d="m353 148.09h93v92.906h-93z"/>
  </clipPath>
  <clipPath id="b">
   <path d="m559 379h92.902v94h-92.902z"/>
  </clipPath>
  <clipPath id="a">
   <path d="m265 511h269v140.9h-269z"/>
  </clipPath>
 </defs>
 <path d="m461.09 505.95-23.68-11.715-25.645 113.06 33.988-47.074-7.2539-15.473c-0.89844-1.9141-0.72656-4.1641 0.45703-5.918z"/>
 <g clip-path="url(#d)">
  <path d="m194.62 379.46c-25.523 0-46.293 20.777-46.293 46.32 0 25.531 20.766 46.305 46.293 46.305 25.531 0 46.301-20.77 46.301-46.305 0-25.543-20.773-46.32-46.301-46.32zm10.723 66.562c-1.5 1.0664-3.1328 1.9102-5.1016 2.5234v5.0078c0 3.3281-2.5781 6.0234-5.9023 6.0234s-5.9023-2.6953-5.9023-6.0234v-4.1523c-2.9531-0.46484-5.2695-1.3438-7.8125-2.6406-2.9609-1.5117-3.9648-5.1406-2.4531-8.1016s5.0742-4.1406 8.0391-2.6289c5.0781 2.5938 9.832 1.957 12.328 0.17969 1.0078-0.71875 1.2188-1.3711 1.2031-1.4922-0.050782-0.36719-1.2227-2.0664-5.6172-3.6289-12.871-4.5664-16.438-12.41-15.543-18.227 0.75-4.9531 4.9336-8.6953 9.8516-10.363v-4.5039c0-3.3242 2.5781-6.0234 5.9023-6.0234 3.3242 0 5.9023 2.6953 5.9023 6.0234v4c1.9688 0.29687 3.8359 0.70312 5.7109 1.293 3.1719 1 5.1719 4.3398 4.1719 7.5117s-4.4062 4.6172-7.5781 3.6133c-2.7578-0.86719-5.4453-1.6211-7.7344-1.6211h-0.03125c-2.5312 0-3.7734 1.1992-4.1719 1.543 0.33594 0.77344 2.1641 3.3281 7.6719 5.2773 10.602 3.7656 12.879 10.016 13.348 13.375 0.68359 4.8789-1.7227 9.7852-6.2812 13.035z"/>
 </g>
 <path d="m424.93 494.82c-8.5469 2.5586-17.102 3.8633-25.645 3.8633-8.5039 0-16.992-1.2969-25.434-3.832l25.516 112.67z"/>
 <path d="m425.4 482.01-7.8359-19.918c-5.8359 1.4805-11.938 2.2734-18.227 2.2734-6.2539 0-12.332-0.78906-18.141-2.2539l-7.8359 19.918c17.363 6.1914 34.492 6.1875 52.039-0.019531z"/>
 <path d="m238.68 315.67c25.52 0 46.281-20.777 46.281-46.316 0-25.531-20.762-46.301-46.281-46.301-25.547 0-46.328 20.77-46.328 46.301 0 25.535 20.781 46.316 46.328 46.316zm-16.594-33.41c1.5078-2.9648 5.1445-4.1484 8.1094-2.6406 5.0859 2.5859 9.8789 1.9453 12.375 0.16406 1.0078-0.71875 1.2617-1.3711 1.2461-1.4922-0.050781-0.36719-1.1445-2.0547-5.5234-3.6055-12.891-4.5742-16.461-12.426-15.566-18.246 0.76172-4.9414 5.0742-8.6797 9.9961-10.344v-4.5312c0-3.3242 2.5781-6.0234 5.9023-6.0234 3.3281 0 5.9023 2.6953 5.9023 6.0234v4.0117c2.9531 0.30078 3.6992 0.74609 5.5977 1.3477 3.1719 1.0039 4.9766 4.3867 3.9727 7.5586-1 3.1719-4.3789 4.9297-7.5469 3.9297-2.8125-0.88672-5.4414-1.3086-7.6133-1.2148-0.039063 0.003907-0.078125 0.003907-0.11719 0.003907-2.5469 0.10547-3.7812 0.79297-4.1797 1.1367 0.33984 0.77734 2.1719 3.0469 7.6797 5 10.578 3.7461 12.945 9.9258 13.418 13.277 0.68359 4.8711-1.6797 9.7188-6.2305 12.973-1.4961 1.0703-3.9961 1.9141-4.9805 2.5312v5.0156c0 3.3242-2.5781 6.0234-5.9023 6.0234-3.3242 0-5.9023-2.6953-5.9023-6.0234v-4.1406c-2.9531-0.46094-5.3828-1.3359-7.9297-2.6328-2.9688-1.5117-4.2109-5.1367-2.707-8.1016z"/>
 <g clip-path="url(#c)">
  <path d="m399.39 240.71c25.543 0 46.328-20.766 46.328-46.293 0-25.543-20.785-46.32-46.328-46.32-25.527 0-46.293 20.777-46.293 46.32 0 25.527 20.766 46.293 46.293 46.293zm-16.676-33.426c1.5156-2.9609 5.2773-4.1328 8.2383-2.6172 5.0625 2.5898 9.8242 1.9609 12.32 0.1875 1.0156-0.72266 1.2422-1.3789 1.2266-1.5039-0.050781-0.36719-1.207-2.0625-5.5938-3.6211-12.887-4.5703-16.5-12.418-15.605-18.238 0.75781-4.9453 4.8906-8.6875 9.8125-10.355v-4.5078c0-3.3281 2.5781-6.0234 5.9023-6.0234 3.3281 0 5.9023 2.6953 5.9023 6.0234v4c1.9688 0.29688 3.875 0.70703 5.75 1.293 3.1758 0.99219 5.1992 4.3398 4.2031 7.5156-0.99219 3.1758-4.3789 4.6602-7.5586 3.668-2.7656-0.86719-5.4609-1.5586-7.7422-1.5586h-0.035156c-2.5156 0-3.793 1.1328-4.1914 1.4805 0.33984 0.77734 2.1445 3.2812 7.6602 5.2344 10.594 3.7695 12.887 10.016 13.352 13.371 0.67969 4.8789-1.7344 9.7578-6.3008 13.008-1.4961 1.0703-3.168 1.9375-5.1367 2.5508v5.0078c0 3.3242-2.5781 6.0234-5.9023 6.0234s-5.9023-2.6953-5.9023-6.0234v-4.1641c-2.9531-0.46484-5.2031-1.3477-7.7383-2.6445-2.9648-1.5117-4.1758-5.1445-2.6602-8.1055z"/>
 </g>
 <path d="m388.58 342.36c15.855 1.6367 29.547 3.0508 38.684-7.6055 3.4727-4.0508 7.0273-4.6562 9.4062-4.4531 6.3672 0.54687 10.152 6.8828 14.535 14.223 5.5117 9.2266 10.41 16.539 16.98 17.949 0.79297-3.5156 1.3242-7.293 1.3242-11.535 0-38.688-31.477-70.164-70.172-70.164-38.688 0-70.164 31.477-70.164 70.164 0 2.3086 0.21875 4.4922 0.5625 6.6133 17.801-19.414 40.227-17.113 58.844-15.191z"/>
 <path d="m282.1 175.09c5.0352 0 9.1328-4.0977 9.1328-9.1328 0-5.043-4.0977-9.1406-9.1328-9.1406-5.0391 0-9.1328 4.1016-9.1328 9.1406 0 5.0352 4.0977 9.1328 9.1328 9.1328z"/>
 <path d="m518.71 274.94c0 25.527 20.785 46.293 46.336 46.293 25.52 0 46.281-20.766 46.281-46.293 0-25.523-20.762-46.293-46.281-46.293-25.551 0-46.336 20.77-46.336 46.293zm29.766 12.875c1.5117-2.9609 5.1406-4.1367 8.1016-2.625 5.0781 2.5977 9.8672 1.9609 12.363 0.18359 1.0078-0.71875 1.2656-1.3672 1.25-1.4883-0.050781-0.36719-1.1367-2.0547-5.5156-3.6016-12.891-4.5898-16.324-12.434-15.434-18.242 0.75781-4.9492 3.2734-8.6992 10.16-10.371v-4.5117c0-3.3242 2.5781-6.0234 5.9023-6.0234 3.3281 0 5.9023 2.6953 5.9023 6.0234v3.9961c0.98437 0.29688 3.543 0.73438 5.4102 1.3281 3.1719 1.0039 4.8789 4.3789 3.875 7.5508s-4.4141 4.6836-7.582 3.6758c-3.4531-1.0938-6.0859-1.4727-7.6641-1.4727h-0.039062c-2.5547 0-3.8086 1.0742-4.207 1.4219 0.33203 0.78906 2.1172 3.1719 7.7031 5.1602 10.574 3.7461 12.945 9.9883 13.414 13.34 0.68359 4.875-1.543 9.7539-6.1016 13-1.4961 1.0625-3.8242 1.9336-4.8086 2.5469v5.0273c0 3.3281-2.5781 6.0234-5.9023 6.0234-3.3281 0-5.9023-2.6953-5.9023-6.0234v-4.1641c-2.9531-0.46484-5.5469-1.3477-8.0977-2.6484-2.957-1.5156-4.3398-5.1445-2.8281-8.1055z"/>
 <path d="m464.76 374.07c-11.746-3.0156-18.891-14.977-23.898-23.363-1.4492-2.4258-3.4727-5.8203-4.9219-7.5703-13.199 14.871-31.191 13.008-48.598 11.211-20.07-2.0742-39.105-4.0273-53.66 17.684 1.8281 5.6875 3.5625 11.59 3.5625 18.172 0 34.254 27.855 62.121 62.094 62.121 34.246 0 62.109-27.867 62.109-62.121-0.003907-5.6602 1.5625-10.785 3.3125-16.133z"/>
 <g clip-path="url(#b)">
  <path d="m605.34 379.46c-25.527 0-46.293 20.777-46.293 46.32 0 25.531 20.766 46.305 46.293 46.305 25.543 0 46.328-20.77 46.328-46.305-0.003907-25.543-20.785-46.32-46.328-46.32zm10.508 66.57c-1.4883 1.0586-2.3203 1.8945-5.2695 2.5078v5.0156c0 3.3281-2.5781 6.0234-5.9023 6.0234-3.3281 0-5.9023-2.6953-5.9023-6.0234v-4.1484c-1.9688-0.46484-5.0664-1.3477-7.6133-2.6445-2.9648-1.5156-3.8633-5.1445-2.3477-8.1016 1.5117-2.9609 5.1289-4.1367 8.0938-2.6211 5.0664 2.5898 9.8281 1.957 12.324 0.17969 1.0156-0.72266 1.2422-1.3789 1.2227-1.5039-0.050781-0.36719-1.2109-2.0625-5.5977-3.625-12.883-4.5586-16.652-12.406-15.766-18.223 0.75781-4.9531 4.7578-8.6992 9.6797-10.367v-4.5039c0-3.3242 2.5781-6.0234 5.9023-6.0234 3.3281 0 5.9023 2.6953 5.9023 6.0234v4.0078c2.9531 0.29688 4.0234 0.69922 5.8906 1.2891 3.1719 1 5.2734 4.3398 4.2734 7.5117-0.99609 3.1719-4.3477 4.6211-7.5273 3.6133-2.7969-0.87891-5.3477-1.6211-7.6562-1.6211h-0.03125c-2.5391 0-3.7891 1.1992-4.1914 1.5469 0.34375 0.77734 2.1836 3.3281 7.6875 5.2773 10.598 3.7695 12.762 10.02 13.23 13.371 0.67969 4.8789-1.8359 9.7891-6.4023 13.039z"/>
 </g>
 <path d="m353.05 560.23 33.898 47.035-25.594-113.02-23.664 11.711 22.141 32.879c1.1797 1.7539 1.3555 4 0.46094 5.918z"/>
 <g clip-path="url(#a)">
  <path d="m471.98 511.34-21.129 31.387 7.3086 15.594c0.92969 1.9805 0.71094 4.3086-0.57031 6.082l-53.328 73.863c-0.085938 0.11719-0.17578 0.23828-0.26562 0.35156 0 0.003906-0.003906 0.011718-0.003906 0.015625 0 0 0 0.019531-0.003907 0.023437-0.38672 0.46484-0.83203 0.90234-1.3281 1.2266-0.003906 0.003906-0.003906 0.16016-0.007812 0.16797-0.53906 0.34766-1.1328 1.0273-1.7773 1.0273h-0.003906-1.4922-0.007812-0.023438c-0.54688 0-1.0859-0.21484-1.6016-0.35938-0.58203-0.16016-1.125-0.50391-1.6211-0.81641-0.53516-0.33984-1.0156-0.78125-1.4297-1.2852-0.003906 0-0.003906-0.011719-0.003906-0.015625-0.085937-0.10547-0.17188-0.22266-0.25-0.33203l-53.234-73.863c-1.2773-1.7734-1.4961-4.0977-0.57031-6.0781l7.2969-15.594-21.133-31.387-40.496 20.043-21.23 119.96 28.156 0.11328 9.6602-54.578c0.57812-3.2773 3.707-5.4531 6.9805-4.8828 3.2734 0.58203 5.4609 3.707 4.8789 6.9805l-9.2969 52.531 93.934 0.38281 94.5-0.38672-9.3203-52.523c-0.58203-3.2734 1.6016-6.4023 4.8789-6.9844 3.2656-0.58594 6.4023 1.6016 6.9805 4.8789l9.6836 54.578 27.59-0.11328-21.207-119.96z"/>
 </g>
 <path d="m511.86 192.41c2.3516 2.3516 6.1641 2.3516 8.5156 0l10.895-10.898 10.895 10.898c1.1758 1.1758 2.7188 1.7656 4.2578 1.7656 1.5391 0 3.082-0.58984 4.2578-1.7617 2.3516-2.3516 2.3516-6.1641 0-8.5156l-10.898-10.898 10.898-10.898c2.3516-2.3516 2.3516-6.1641 0-8.5156-2.3516-2.3516-6.1641-2.3516-8.5156 0l-10.895 10.898-10.895-10.902c-2.3516-2.3516-6.168-2.3516-8.5156 0-2.3555 2.3516-2.3555 6.1641-0.003907 8.5156l10.898 10.898-10.898 10.898c-2.3516 2.3516-2.3516 6.1641 0.003907 8.5156z"/>
 <path d="m227.07 598.77h-9.1133v-9.2852c0-3.3281-2.5781-6.0234-5.9023-6.0234-3.3281 0-5.9023 2.6953-5.9023 6.0234l-0.003906 9.2852h-9.3945c-3.3242 0-6.0234 2.5781-6.0234 5.9023 0 3.3281 2.6953 5.9023 6.0234 5.9023l9.3945 0.003907v9.2539c0 3.3242 2.5781 6.0234 5.9023 6.0234s5.9023-2.6953 5.9023-6.0234l0.003906-9.2539h9.1133c3.3242 0 6.0234-2.5781 6.0234-5.9023 0-3.3281-2.6992-5.9062-6.0234-5.9062z"/>
</svg>