<?xml version="1.0" encoding="UTF-8"?>
<!-- The Best Svg Icon site in the world: iconSvg.co, Visit us! https://iconsvg.co -->
<svg fill="#000000" width="800px" height="800px" version="1.1" viewBox="144 144 512 512" xmlns="http://www.w3.org/2000/svg">
 <g>
  <path d="m449.32 385.44h0.10938c0-0.37109-0.050781-0.73047-0.054687-1.0977 0.003906-0.40234 0.058594-0.79688 0.058594-1.1992 0-46.441-37.785-84.227-84.23-84.227-46.445 0-84.23 37.785-84.23 84.227 0 46.445 37.785 84.23 84.23 84.23 45.672 0 82.879-36.555 84.117-81.934zm-84.117 66.82c-22.32 0-42.145-10.68-54.789-27.148 5.1133 1.9766 10.641 3.1016 16.445 3.1016 24.234 0 44.078-18.93 45.645-42.773h0.15234c0-16.918 13.828-30.676 30.828-30.676 16.629 0 30.188 13.176 30.777 29.578-0.65625 37.555-31.348 67.918-69.059 67.918z"/>
  <path d="m250.09 308.46c1.6133 0 3.2227-0.61328 4.4531-1.8438l32.5-32.496c2.457-2.457 2.457-6.4453 0-8.9062-2.457-2.4648-6.4453-2.457-8.9062 0l-32.5 32.496c-2.457 2.457-2.457 6.4453 0 8.9062 1.2305 1.2266 2.8438 1.8438 4.4531 1.8438z"/>
  <path d="m257.6 318.56c1.2305 1.2305 2.8398 1.8438 4.4531 1.8438s3.2227-0.61328 4.4531-1.8438l32.5-32.496c2.457-2.457 2.457-6.4453 0-8.9062-2.457-2.4648-6.4453-2.457-8.9062 0l-32.5 32.496c-2.4609 2.4609-2.4609 6.4492 0 8.9062z"/>
  <path d="m269.56 330.52c1.2305 1.2305 2.8398 1.8438 4.4531 1.8438s3.2227-0.61328 4.4531-1.8438l32.496-32.496c2.457-2.457 2.457-6.4453 0-8.9062-2.457-2.4648-6.4453-2.457-8.9062 0l-32.496 32.496c-2.4609 2.4609-2.4609 6.4453 0 8.9062z"/>
  <path d="m456.33 434.32c-2.4531-2.4648-6.4375-2.4648-8.9062-0.003906l-9.3516 9.3438c-2.457 2.457-2.457 6.4453 0 8.9062 1.2305 1.2344 2.8359 1.8477 4.4531 1.8477 1.6055 0 3.2227-0.61328 4.4531-1.8438l9.3516-9.3438c2.4609-2.457 2.4609-6.4414 0-8.9062z"/>
  <path d="m459.38 446.27-9.3438 9.3438c-2.457 2.457-2.457 6.4453 0 8.9062 1.2305 1.2305 2.8359 1.8438 4.4531 1.8438 1.6172 0 3.2227-0.61328 4.4531-1.8438l9.3438-9.3438c2.457-2.457 2.457-6.4453 0-8.9062-2.457-2.4648-6.4492-2.457-8.9062 0z"/>
  <path d="m456.32 321.62-9.3516-9.3516c-2.457-2.457-6.4453-2.457-8.9062 0-2.4648 2.457-2.457 6.4453 0 8.9062l9.3516 9.3516c1.2305 1.2305 2.8359 1.8438 4.4531 1.8438 1.6172 0 3.2227-0.61328 4.4531-1.8438 2.457-2.4609 2.457-6.4492 0-8.9062z"/>
  <path d="m471.34 306.61c1.2305 1.2305 2.8359 1.8438 4.4531 1.8438 1.6172 0 3.2227-0.61328 4.4531-1.8438 2.457-2.457 2.457-6.4492 0-8.9062l-9.3516-9.3438c-2.457-2.4531-6.4453-2.457-8.9062 0-2.4648 2.457-2.457 6.4492 0 8.9062z"/>
  <path d="m424.26 307.37c1.2305 1.2344 2.8359 1.8477 4.4531 1.8477 1.6055 0 3.2227-0.61328 4.4531-1.8438 2.457-2.457 2.457-6.4453 0-8.9062l-9.3398-9.3438c-2.4531-2.4648-6.4453-2.4648-8.9062-0.003906-2.4648 2.457-2.457 6.4453 0 8.9062z"/>
  <path d="m459.38 318.56c1.2305 1.2305 2.8359 1.8438 4.4531 1.8438 1.6172 0 3.2227-0.61328 4.4531-1.8438 2.457-2.457 2.457-6.4492 0-8.9062l-32.496-32.496c-2.457-2.457-6.4453-2.457-8.9062 0-2.4648 2.457-2.457 6.4492 0 8.9062z"/>
  <path d="m448.18 283.46c1.2305 1.2305 2.8359 1.8438 4.4531 1.8438 1.6172 0 3.2227-0.61328 4.4531-1.8438 2.457-2.457 2.457-6.4453 0-8.9062l-9.3438-9.3516c-2.4531-2.457-6.4375-2.4648-8.9062 0-2.457 2.457-2.457 6.4453 0 8.9062z"/>
  <path d="m289.66 469.42c-2.457-2.4648-6.4453-2.4648-8.9062-0.003906-2.457 2.457-2.4648 6.4453-0.003906 8.9062l9.3398 9.3516c1.2305 1.2344 2.8398 1.8477 4.4531 1.8477s3.2188-0.61328 4.4492-1.8438c2.457-2.457 2.4648-6.4453 0.003906-8.9062z"/>
  <path d="m254.54 458.23c-2.457-2.457-6.4492-2.457-8.9062 0s-2.457 6.4492 0 8.9062l32.5 32.496c1.2305 1.2305 2.8398 1.8438 4.4531 1.8438 1.6133 0 3.2227-0.61328 4.4531-1.8438 2.457-2.457 2.457-6.4492 0-8.9062z"/>
  <path d="m257.6 446.27c-2.457 2.457-2.457 6.4453 0 8.9062l9.3438 9.3516c1.2305 1.2305 2.8398 1.8438 4.4531 1.8438s3.2227-0.61328 4.4531-1.8438c2.457-2.457 2.457-6.4453 0-8.9062l-9.3438-9.3516c-2.457-2.4648-6.4492-2.4648-8.9062 0z"/>
  <path d="m278.66 434.11c-2.457-2.457-6.4453-2.457-8.9062 0-2.457 2.457-2.457 6.4453 0 8.9062l32.496 32.5c1.2305 1.2305 2.8398 1.8438 4.4531 1.8438s3.2227-0.61328 4.4531-1.8438c2.457-2.457 2.457-6.4453 0-8.9062z"/>
  <path d="m617.28 378.01-0.80078-34.633c-0.10547-4.9688-2.3984-9.6016-6.2773-12.73-3.8281-3.0625-8.9141-4.3281-13.789-3.3672l-35.57 7.0703c-6.3789 1.2734-11.492 6.1836-13.023 12.48-1.5586 6.3086 0.71875 13.023 5.8047 17.109l3.9766 3.1836-22.777 27.105c0.27734-4.168 0.39844-8.3789 0.36328-12.621-0.83594-92.891-77.082-168.47-169.97-168.47l-1.5586 0.003907c-93.719 0.85156-169.29 77.793-168.45 171.53 0.71094 78.93 55.879 145.31 129.42 163.5l-9.6367 9.668c-3.543 3.543-5.4922 8.2461-5.4922 13.254 0 5.0078 1.9492 9.7148 5.4961 13.262 2.5078 2.5039 6.9688 3.7734 13.25 3.7734 4.0508 0 7.25-0.58594 9.7539-1.6328h245.09c3.8945 0 7.0547-3.1523 7.0547-7.0547l-0.003907-186.24c2.9492 2.3164 6.6133 3.6016 10.445 3.6016 9.2656 0 16.801-7.5352 16.801-16.797 0.007813-0.67188-0.035156-1.3359-0.10938-1.9922zm-406.95 6.5195c-0.76562-85.395 68.078-155.5 153.48-156.27l1.4141-0.003907c84.629 0 154.09 68.855 154.86 153.5 0.10547 11.84-1.2539 23.336-3.6914 34.441l-35.785 42.586c-0.13672-0.17188-0.19531-0.38281-0.35938-0.54297-2.457-2.457-6.4453-2.457-8.9062 0l-9.3438 9.3438c-0.82812 0.82812-1.2695 1.8438-1.5469 2.8984l-25.418-13.922c-7.1602-3.918-16.504-2.5742-22.273 3.1953l-75.414 75.668c-71.496-13.141-126.33-75.766-127.01-150.89zm388.51-2.4297-8.5195-6.832c-2.9961-2.3984-7.3398-1.9688-9.8125 0.96875l-98.645 117.4-6.6211 7.7695c-0.69531 0.68359-1.5664 1.1445-2.5156 1.3008l-8.7812-3.6562-32.457-17.781c-2.7539-1.5078-6.1719-1.0117-8.3867 1.2109l-90.855 91.18c-0.71875 0.16016-2.1172 0.35938-3.9883 0.35938-1.7578 0-3.0938-0.17188-3.8477-0.32812-0.51953-0.76172-0.79688-1.6641-0.79688-2.6016 0-1.2461 0.48438-2.4102 1.3672-3.2891l97.754-98.086c1.4297-1.4219 3.7422-1.7617 5.5234-0.78516l37.559 20.566c2.9609 1.6172 6.625 0.92578 8.793-1.6523l98.449-117.18c1.2188-1.457 1.8047-3.3398 1.6172-5.2305s-1.1328-3.6289-2.6133-4.8125l-9.6016-7.6836c-0.81641-0.65625-1.1797-1.7344-0.93359-2.7539 0.24609-1.0117 1.0625-1.793 2.082-2l35.562-7.0703c0.78906-0.15234 1.6016 0.050781 2.2031 0.52734 0.625 0.50391 0.99219 1.25 1.0117 2.0508l0.80469 35.004c0.003906 0.28125 0.058594 1.0234 0.10156 1.3008-0.003906 2.0625-2.7539 3.4531-4.4531 2.0977z"/>
 </g>
</svg>