<?xml version="1.0" encoding="UTF-8"?>
<!-- The Best Svg Icon site in the world: iconSvg.co, Visit us! https://iconsvg.co -->
<svg fill="#000000" width="800px" height="800px" version="1.1" viewBox="144 144 512 512" xmlns="http://www.w3.org/2000/svg">
 <g>
  <path d="m310.23 530.67c30.578 0 55.449-24.879 55.449-55.449 0-30.574-24.875-55.449-55.449-55.449-30.578 0-55.453 24.875-55.453 55.449-0.003907 30.574 24.871 55.449 55.453 55.449zm0-95.785c22.242 0 40.336 18.094 40.336 40.336s-18.098 40.336-40.336 40.336c-22.242 0-40.34-18.098-40.34-40.336-0.003907-22.238 18.094-40.336 40.34-40.336z"/>
  <path d="m434.32 475.22c0 30.578 24.879 55.449 55.449 55.449 30.578 0 55.453-24.879 55.453-55.449s-24.879-55.449-55.453-55.449c-30.578 0-55.449 24.871-55.449 55.449zm95.789 0c0 22.242-18.098 40.336-40.34 40.336-22.242 0-40.336-18.098-40.336-40.336s18.098-40.336 40.336-40.336c22.242 0 40.34 18.09 40.34 40.336z"/>
  <path d="m437.11 564.05c-3.6562-2.4922-7.1836-5.2695-10.488-8.2617-7.9844-7.2305-14.715-15.73-20.008-25.27-1.3359-2.4023-3.8633-3.8906-6.6094-3.8906s-5.2734 1.4922-6.6094 3.8906c-5.2891 9.543-12.02 18.047-20.008 25.27-3.3008 2.9883-6.832 5.7695-10.488 8.2617-2.7656 1.8828-3.9609 5.3594-2.9414 8.5508l8.5859 26.816c1.2734 3.9805 5.5352 6.1602 9.5 4.8984 3.9766-1.2695 6.168-5.5273 4.8984-9.5l-6.9141-21.594c2.5898-1.9648 5.0977-4.0469 7.5078-6.2227 6.1602-5.5703 11.672-11.805 16.473-18.605 4.8008 6.8008 10.309 13.027 16.469 18.605 2.4102 2.1797 4.9219 4.2617 7.5117 6.2266l-6.9141 21.59c-1.2695 3.9766 0.92188 8.2266 4.8984 9.5 0.76562 0.24219 1.543 0.36328 2.3086 0.36328 3.1992 0 6.168-2.0469 7.1953-5.2539l8.5859-26.816c1.0039-3.1992-0.1875-6.6758-2.9531-8.5586z"/>
  <path d="m600.27 483.61c0-32.793-7.8398-61.836-8.793-65.254-2.4453-11.68-9.9844-18.645-20.223-18.645-11.887 0-20.098 8.125-20.43 20.227-0.089844 3.3906 0.58984 7.7031 1.5312 13.68 1.8125 11.477 4.5508 28.828 2.7852 49.344-2.3164 26.98-26.016 55.652-65.363 55.652-36.891 0-62.094-33.164-65.414-56.09-1.9062-13.145-3.4727-34.484-3.6484-36.934-0.16797-11.113-9.3906-20.102-20.711-20.102-11.32 0-20.551 8.9883-20.711 20.102-0.17578 2.4492-1.7422 23.781-3.6484 36.934-3.3203 22.922-28.527 56.09-65.414 56.09-39.344 0-63.043-28.672-65.363-55.656-1.7539-20.375 1.0312-38.047 2.875-49.746 0.99609-6.3125 1.6562-10.484 1.4219-13.629-0.83984-11.332-9.6133-19.875-20.414-19.875-10.148 0-17.523 6.832-20.211 18.621-0.35937 1.457-8.8047 35.973-8.8047 65.277 0 30.93 15.176 64.18 38.664 84.707 1.9492 1.7031 3.9688 3.3438 6.0312 4.9141l-6.9141 21.59c-1.2695 3.9766 0.92188 8.2266 4.8984 9.5 3.9688 1.2695 8.2266-0.91797 9.5-4.8984l8.5859-26.816c1.0195-3.1836-0.17578-6.6641-2.9414-8.5508-3.1836-2.1719-6.2891-4.5703-9.2148-7.125-20.348-17.785-33.492-46.566-33.492-73.324 0-27.438 8.2773-61.312 8.3945-61.781 1.5977-7.0039 4.3359-7.0039 5.5078-7.0039 3.3711 0 5.1289 3.043 5.3398 5.8789 0.10547 1.4023-0.62891 6.0508-1.2734 10.152-1.9609 12.418-4.9219 31.191-3.0078 53.398 2.9023 33.68 32.078 69.469 80.422 69.469 45.918 0 76.18-40.094 80.371-69.035 2.0977-14.445 3.7188-37.297 3.7852-38.266 0.011719-0.17578 0.019531-0.35156 0.019531-0.52734 0-2.8164 2.6211-5.2891 5.6016-5.2891 2.9844 0 5.6016 2.4727 5.6016 5.2891 0 0.17578 0.003907 0.35156 0.019531 0.52734 0.066407 0.96875 1.6875 23.824 3.7852 38.266 4.1914 28.945 34.449 69.035 80.371 69.035 48.355 0 77.527-35.789 80.422-69.469 1.9258-22.355-0.98828-40.797-2.918-53-0.75391-4.7812-1.4062-8.9141-1.3555-10.906 0.10547-3.875 1.6992-5.5273 5.3203-5.5273 1.3281 0 4.1016 0 5.4648 6.8008 0.039063 0.20312 0.089844 0.40234 0.14453 0.59766 0.085937 0.29297 8.293 29.305 8.293 61.383 0 29.234-11.27 53.902-33.488 73.324-2.918 2.5508-6.0156 4.9492-9.2148 7.125-2.7656 1.8828-3.9648 5.3594-2.9414 8.5508l8.5859 26.816c1.0273 3.2109 3.9961 5.2539 7.1953 5.2539 0.76172 0 1.543-0.11719 2.3086-0.36328 3.9766-1.2695 6.168-5.5273 4.8984-9.5l-6.9141-21.59c2.0703-1.5703 4.0898-3.2109 6.0352-4.9141 25.277-22.082 38.645-51.375 38.645-84.688z"/>
  <path d="m399.78 415.64c61.633 0 111.77-50.141 111.77-111.77 0-61.625-50.141-111.77-111.77-111.77-61.621 0-111.76 50.141-111.76 111.77 0.003907 61.629 50.141 111.77 111.76 111.77zm0-208.42c53.297 0 96.656 43.359 96.656 96.652 0 53.297-43.359 96.656-96.656 96.656-53.289 0-96.645-43.359-96.645-96.656 0-53.293 43.355-96.652 96.645-96.652z"/>
  <path d="m402.35 315.06c5.7773 1.4102 16.812 3.6289 16.844 16.941 0.003907 5.168-3.1836 15.18-19.648 15.18-7.6523 0-18.57-3.3906-18.57-17.285 0 0 0.12109-7.2539-8.9219-7.2539-9.0547 0-9.7656 7.2539-9.7656 7.2539 0 9.2031 1.3281 15.684 6.125 21.973 7.5234 9.9414 16.812 13.121 23.809 14.137v9.875c0 4.1758 3.3789 7.5586 7.5586 7.5586 4.1758 0 7.5586-3.3789 7.5586-7.5586v-9.9219c22.227-3.3516 30.531-23.68 30.531-36.5 0-9.1992-3.3398-23.332-24.547-30.633l-19.039-6.2773c-2.9258-0.94531-14.801-5.168-13.543-16.922 0.48047-4.4844 1.793-7.9336 5.3711-10.289 2.9336-1.875 6.5547-2.8203 10.863-2.8203 7.3242 0 12.316 1.2383 15.566 5.4609 1.7891 2.4453 2.3672 4.2305 2.8555 8.4688 0 0 0.57812 6.957 8.9219 6.957s9.6211-6.6289 9.7891-7.8281c0.74609-5.4141-2.2031-14.473-6.3125-19.852-4.9023-6.4336-11.914-10.262-20.469-11.766v-8.4453c0-4.1758-3.3789-7.5586-7.5586-7.5586-4.1758 0-7.5586 3.3789-7.5586 7.5586v8.082c-10.184 1.1289-17.898 5.1094-23.074 12.031-4.3945 5.9062-11.73 17.305-4.2109 37.004 6.4961 16.996 37.426 22.43 37.426 22.43z"/>
 </g>
</svg>