<?xml version="1.0" encoding="UTF-8"?>
<!-- The Best Svg Icon site in the world: iconSvg.co, Visit us! https://iconsvg.co -->
<svg fill="#000000" width="800px" height="800px" version="1.1" viewBox="144 144 512 512" xmlns="http://www.w3.org/2000/svg">
 <path d="m510.2 169.09h-220.38c-20.258 0-36.734 16.48-36.734 36.734v388.35c0 20.258 16.48 36.734 36.734 36.734h220.36c20.258 0 36.734-16.48 36.734-36.734v-388.35c0.023438-20.246-16.477-36.734-36.715-36.734zm-188.74 402.48c-15.105 0-27.395-12.301-27.395-27.383 0-15.105 12.289-27.406 27.395-27.406 15.094 0 27.395 12.301 27.395 27.406 0 15.082-12.293 27.383-27.395 27.383zm0-78.562c-15.105 0-27.395-12.301-27.395-27.406 0-15.105 12.289-27.406 27.395-27.406 15.094 0 27.395 12.301 27.395 27.406 0 15.105-12.293 27.406-27.395 27.406zm0-78.551c-15.105 0-27.395-12.289-27.395-27.395 0-15.105 12.289-27.395 27.395-27.395 15.094 0 27.395 12.289 27.395 27.395 0 15.102-12.293 27.395-27.395 27.395zm78.551 157.11c-15.094 0-27.383-12.301-27.383-27.383 0-15.105 12.289-27.406 27.383-27.406 15.105 0 27.406 12.301 27.406 27.406 0 15.082-12.301 27.383-27.406 27.383zm0-78.562c-15.094 0-27.383-12.301-27.383-27.406 0-15.105 12.289-27.406 27.383-27.406 15.105 0 27.406 12.301 27.406 27.406 0 15.105-12.301 27.406-27.406 27.406zm0-78.551c-15.094 0-27.383-12.289-27.383-27.395 0-15.105 12.289-27.395 27.383-27.395 15.105 0 27.406 12.289 27.406 27.395 0 15.102-12.301 27.395-27.406 27.395zm105.95 129.7c0 15.105-12.281 27.383-27.383 27.383-15.105 0-27.383-12.281-27.383-27.383l-0.003906-78.555c0-15.105 12.281-27.406 27.383-27.406 15.105 0 27.383 12.301 27.383 27.406zm-27.395-129.7c-15.105 0-27.383-12.289-27.383-27.395 0-15.105 12.281-27.395 27.383-27.395 15.105 0 27.383 12.289 27.383 27.395 0 15.102-12.27 27.395-27.383 27.395zm-6.6133-118.54h-143.88c-21.77 0-39.484-17.719-39.484-39.484 0-21.77 17.719-39.484 39.484-39.484h143.88c21.758 0 39.484 17.719 39.484 39.484 0 21.77-17.715 39.484-39.484 39.484z"/>
</svg>