<?xml version="1.0" encoding="UTF-8"?>
<!-- The Best Svg Icon site in the world: iconSvg.co, Visit us! https://iconsvg.co -->
<svg width="800px" height="800px" version="1.1" viewBox="144 144 512 512" xmlns="http://www.w3.org/2000/svg">
 <defs>
  <clipPath id="a">
   <path d="m179 148.09h442v503.81h-442z"/>
  </clipPath>
 </defs>
 <path d="m486.59 266.18c-0.003906-26.922-12.523-52.309-33.883-68.691-21.355-16.387-49.117-21.91-75.121-14.941-26 6.9648-47.281 25.629-57.586 50.496-10.305 24.871-8.4531 53.117 5 76.43 2.2656 3.5625 6.9336 4.7031 10.586 2.5938 3.6523-2.1094 4.9883-6.7266 3.0352-10.465-11.844-20.457-12.715-45.473-2.3242-66.707 10.391-21.23 30.68-35.891 54.102-39.09 23.422-3.1992 46.898 5.4805 62.602 23.148 15.707 17.668 21.574 42 15.652 64.887-5.9219 22.887-22.859 41.316-45.164 49.145-22.305 7.832-47.047 4.0312-65.977-10.129-3.4766-2.6094-8.4102-1.9023-11.02 1.5742-2.6094 3.4805-1.9023 8.4141 1.5742 11.023 17.238 12.918 38.676 18.949 60.125 16.91 21.449-2.0391 41.363-11.996 55.863-27.934 14.496-15.938 22.531-36.707 22.535-58.25z"/>
 <path d="m400.23 289.79h-16.199c-4.3477 0-7.875 3.5273-7.875 7.875 0 4.3477 3.5273 7.8711 7.875 7.8711h16.199c8.4375-0.082031 16.191-4.6602 20.34-12.008 4.1445-7.3477 4.0586-16.348-0.23047-23.613-4.2891-7.2695-12.129-11.695-20.566-11.613-4.3477 0-7.8711-3.5234-7.8711-7.8711 0-4.3477 3.5234-7.8711 7.8711-7.8711h16.203c4.3477 0 7.8711-3.5234 7.8711-7.8711s-3.5234-7.875-7.8711-7.875h-16.203c-8.4375 0.082031-16.188 4.6602-20.336 12.008-4.1484 7.3477-4.0625 16.348 0.22656 23.617 4.2891 7.2656 12.129 11.691 20.566 11.609 4.3477 0 7.8711 3.5234 7.8711 7.8711 0 4.3477-3.5234 7.8711-7.8711 7.8711z"/>
 <path d="m266.4 485.68h-16.199c-4.3477 0-7.875 3.5273-7.875 7.875 0 4.3477 3.5273 7.8711 7.875 7.8711h16.199c8.4375-0.082031 16.191-4.6602 20.34-12.008 4.1445-7.3477 4.0586-16.348-0.23047-23.613-4.2891-7.2656-12.129-11.691-20.566-11.609-4.3477 0-7.8711-3.5273-7.8711-7.875s3.5234-7.8711 7.8711-7.8711h16.199c4.3477 0 7.875-3.5234 7.875-7.8711 0-4.3477-3.5273-7.8711-7.875-7.8711h-16.199c-8.4375 0.078125-16.191 4.6562-20.336 12.004-4.1484 7.3477-4.0625 16.352 0.22656 23.617 4.2891 7.2656 12.129 11.691 20.566 11.609 4.3477 0 7.8711 3.5234 7.8711 7.8711 0 4.3477-3.5234 7.8711-7.8711 7.8711z"/>
 <g clip-path="url(#a)">
  <path d="m533.82 375.47c-22.133-0.023438-43.434 8.4375-59.516 23.641-16.082 15.203-25.727 35.992-26.945 58.094-1.2227 22.098 6.0781 43.82 20.391 60.703l-59.883 59.891v-193.95c41.156-2.75 77.895-26.777 96.91-63.383 19.02-36.602 17.555-80.477-3.8594-115.73-21.414-35.254-59.676-56.781-100.92-56.781-41.25 0-79.512 21.527-100.93 56.781-21.41 35.258-22.875 79.133-3.8594 115.73 19.016 36.605 55.754 60.633 96.91 63.383v193.95l-59.883-59.891c13.688-16.219 20.938-36.906 20.371-58.121-0.57031-21.215-8.9141-41.484-23.449-56.945-14.535-15.465-34.25-25.051-55.387-26.93-21.141-1.8789-42.234 4.0781-59.27 16.734-17.035 12.66-28.824 31.137-33.129 51.918-4.3008 20.785-0.8125 42.422 9.7969 60.805 2.2656 3.5586 6.9336 4.7031 10.586 2.5898 3.6523-2.1094 4.9883-6.7266 3.0352-10.465-11.844-20.457-12.715-45.473-2.3242-66.707 10.391-21.23 30.68-35.891 54.102-39.09 23.422-3.1992 46.898 5.4805 62.602 23.148 15.707 17.672 21.574 42.004 15.652 64.887-5.9219 22.887-22.859 41.316-45.164 49.145-22.305 7.832-47.047 4.0352-65.977-10.129-3.4766-2.6055-8.4102-1.9023-11.02 1.5781-2.6094 3.4766-1.9023 8.4102 1.5742 11.02 15.5 11.629 34.457 17.719 53.832 17.293 19.375-0.42969 38.043-7.3516 53.016-19.656l59.906 59.945h-75.461c-8.3516 0-16.359 3.3203-22.266 9.2227-5.9062 5.9062-9.2227 13.914-9.2227 22.266v23.617c0 2.0859 0.82812 4.0898 2.3047 5.5664 1.4766 1.4766 3.4805 2.3047 5.5664 2.3047h39.359c4.3477 0 7.8711-3.5234 7.8711-7.8711s-3.5234-7.8711-7.8711-7.8711h-31.488v-15.746c0-4.1758 1.6602-8.1797 4.6133-11.133s6.957-4.6094 11.133-4.6094h188.93c4.1758 0 8.1836 1.6562 11.133 4.6094 2.9531 2.9531 4.6133 6.957 4.6133 11.133v15.742l-157.44 0.003906c-4.3477 0-7.8711 3.5234-7.8711 7.8711s3.5234 7.8711 7.8711 7.8711h165.31c2.0898 0 4.0898-0.82812 5.5664-2.3047 1.4766-1.4766 2.3047-3.4805 2.3047-5.5664v-23.617c0-8.3516-3.3164-16.359-9.2227-22.266-5.9023-5.9023-13.914-9.2227-22.266-9.2227h-75.461l59.945-59.945c14.973 12.305 33.641 19.227 53.016 19.656 19.375 0.42578 38.332-5.6641 53.832-17.293 3.4805-2.6094 4.1836-7.543 1.5742-11.02-2.6055-3.4805-7.543-4.1836-11.02-1.5781-12.242 9.2422-27.172 14.219-42.508 14.172-20.926-0.019531-40.77-9.2969-54.211-25.336-13.438-16.039-19.094-37.199-15.449-57.805 3.6445-20.605 16.219-38.547 34.344-49.004 18.125-10.453 39.945-12.359 59.609-5.1992 19.66 7.1562 35.152 22.648 42.309 42.309 7.1602 19.664 5.2578 41.484-5.1992 59.609-1.957 3.7383-0.61719 8.3555 3.0352 10.465 3.6523 2.1133 8.3203 0.96875 10.582-2.5898 10.184-17.637 13.828-38.297 10.289-58.352-3.5391-20.055-14.035-38.223-29.637-51.309-15.605-13.082-35.324-20.25-55.688-20.238zm-236.16-109.29c0-27.145 10.781-53.172 29.973-72.363 19.191-19.191 45.219-29.977 72.363-29.977 27.141 0 53.168 10.785 72.359 29.977 19.195 19.191 29.977 45.219 29.977 72.363 0 27.141-10.781 53.168-29.977 72.359-19.191 19.195-45.219 29.977-72.359 29.977-27.133-0.03125-53.145-10.824-72.328-30.008-19.188-19.188-29.977-45.199-30.008-72.328z"/>
 </g>
 <path d="m533.59 438.45h16.203c4.3477 0 7.8711-3.5234 7.8711-7.8711 0-4.3477-3.5234-7.8711-7.8711-7.8711h-16.203c-8.4375 0.078125-16.188 4.6562-20.336 12.004-4.1484 7.3477-4.0625 16.352 0.22656 23.617s12.129 11.691 20.566 11.609c4.3477 0 7.8711 3.5234 7.8711 7.8711 0 4.3477-3.5234 7.8711-7.8711 7.8711h-16.199c-4.3477 0-7.8711 3.5273-7.8711 7.875 0 4.3477 3.5234 7.8711 7.8711 7.8711h16.199c8.4375-0.082031 16.191-4.6602 20.34-12.008 4.1484-7.3477 4.0586-16.348-0.23047-23.613-4.2891-7.2656-12.129-11.691-20.566-11.609-4.3477 0-7.8711-3.5273-7.8711-7.875s3.5234-7.8711 7.8711-7.8711z"/>
</svg>