<?xml version="1.0" encoding="UTF-8"?>
<!-- The Best Svg Icon site in the world: iconSvg.co, Visit us! https://iconsvg.co -->
<svg fill="#000000" width="800px" height="800px" version="1.1" viewBox="144 144 512 512" xmlns="http://www.w3.org/2000/svg">
 <g>
  <path d="m628.29 242.56c-4.3516 0-7.8711 3.5234-7.8711 7.8711v291.27h-440.84v-283.39h393.6c4.3516 0 7.8711-3.5234 7.8711-7.8711 0-4.3477-3.5195-7.8711-7.8711-7.8711h-401.47c-4.3516 0-7.8711 3.5234-7.8711 7.8711v299.14c0 4.3516 3.5195 7.8711 7.8711 7.8711h456.58c4.3516 0 7.8711-3.5195 7.8711-7.8711v-299.14c0-4.3477-3.5234-7.8711-7.8711-7.8711z"/>
  <path d="m242.56 447.23c4.3516 0 7.8711-3.5195 7.8711-7.8711s-3.5195-7.8711-7.8711-7.8711h-15.742c-3.6133 0-6.7578 2.4609-7.6328 5.9648l-15.742 62.977c-0.59375 2.3516-0.0625 4.8438 1.4297 6.75 1.4883 1.9141 3.7773 3.0273 6.1992 3.0273h220.41c2.4219 0 4.7109-1.1133 6.2031-3.0273 1.4922-1.9062 2.0234-4.3984 1.4297-6.75l-15.742-62.977c-0.875-3.5078-4.0195-5.9648-7.6328-5.9648h-15.742c-4.3516 0-7.8711 3.5195-7.8711 7.8711s3.5195 7.8711 7.8711 7.8711h9.5938l11.809 47.23h-90.035l11.801-47.23h33.215c2.4219 0 4.7109-1.1133 6.2031-3.0273 1.4922-1.9062 2.0234-4.3984 1.4297-6.75l-15.742-62.98c-0.87891-3.5039-4.0234-5.9609-7.6367-5.9609h-78.719c-3.6133 0-6.7578 2.4609-7.6328 5.9609l-15.742 62.98c-0.59375 2.3516-0.0625 4.8438 1.4297 6.75 1.4883 1.9141 3.7812 3.0273 6.2031 3.0273h33.219l11.801 47.23h-90.039l11.809-47.23zm45.508-62.977h66.422l11.809 47.23h-90.035zm38.879 62.977-5.668 22.664-5.6641-22.664z"/>
  <path d="m462.98 384.25c-4.3516 0-7.8711 3.5234-7.8711 7.8711v110.21c0 4.3516 3.5195 7.8711 7.8711 7.8711h47.23c4.3516 0 7.8711-3.5195 7.8711-7.8711v-110.21c0-4.3477-3.5195-7.8711-7.8711-7.8711zm39.359 110.21h-31.488v-94.461h31.488z"/>
  <path d="m541.7 337.02c-4.3516 0-7.8711 3.5234-7.8711 7.8711v157.44c0 4.3516 3.5195 7.8711 7.8711 7.8711h47.23c4.3516 0 7.8711-3.5195 7.8711-7.8711l0.003906-157.44c0-4.3477-3.5195-7.8711-7.8711-7.8711zm39.359 157.44h-31.488v-141.7h31.488z"/>
  <path d="m495.93 304.8c-1.0977-1.793-2.8594-3.0703-4.9062-3.5547-2.0391-0.48047-4.1992-0.125-5.9805 0.98047l-57.727 35.984c-3.6914 2.2969-4.8125 7.1562-2.5156 10.844 1.4961 2.3945 4.0625 3.707 6.6953 3.707 1.4219 0 2.8594-0.38281 4.1602-1.1914l50.984-31.785 12.355 20.211c2.1992 3.5859 6.8047 4.8086 10.484 2.8047l98.961-53.977c3.8203-2.082 5.2266-6.8633 3.1445-10.684-2.0898-3.8164-6.8711-5.2227-10.68-3.1406l-92.387 50.391z"/>
 </g>
</svg>