<?xml version="1.0" encoding="UTF-8"?>
<!-- The Best Svg Icon site in the world: iconSvg.co, Visit us! https://iconsvg.co -->
<svg width="800px" height="800px" version="1.1" viewBox="144 144 512 512" xmlns="http://www.w3.org/2000/svg">
 <defs>
  <clipPath id="a">
   <path d="m163 431h143v220.9h-143z"/>
  </clipPath>
 </defs>
 <g clip-path="url(#a)">
  <path d="m258.3 651.9h-47.23c-12.523-0.011719-24.527-4.9922-33.383-13.848-8.8555-8.8555-13.836-20.859-13.852-33.383v-125.95c0.015624-12.523 4.9961-24.527 13.852-33.383 8.8555-8.8555 20.859-13.836 33.383-13.848h47.23c12.523 0.011719 24.531 4.9922 33.383 13.848 8.8555 8.8555 13.836 20.859 13.852 33.383v125.95c-0.015625 12.523-4.9961 24.527-13.852 33.383-8.8516 8.8555-20.859 13.836-33.383 13.848zm-47.23-188.93c-4.1758 0-8.1797 1.6602-11.129 4.6133-2.9531 2.9492-4.6133 6.9531-4.6172 11.129v125.95c0.003906 4.1758 1.6641 8.1758 4.6172 11.129 2.9492 2.9531 6.9531 4.6133 11.129 4.6133h47.23c4.1758 0 8.1797-1.6602 11.133-4.6133 2.9492-2.9531 4.6094-6.9531 4.6133-11.129v-125.95c-0.003906-4.1758-1.6641-8.1797-4.6133-11.129-2.9531-2.9531-6.957-4.6133-11.133-4.6133z"/>
 </g>
 <path d="m454.04 632.82h-109.42c-8.707 0.003906-17.246-2.4102-24.664-6.9648l-38.395-23.512c-4.668-2.8594-7.5156-7.9453-7.5156-13.422v-95.938c0-5.3867 2.7578-10.398 7.3047-13.285l39.5-25.105h-0.003906c7.5742-4.8125 16.363-7.3672 25.336-7.3672h116.79c9.3555 0.011719 18.5 2.7969 26.277 8.0039 7.7734 5.207 13.832 12.605 17.402 21.254l56.293-50.152c12.75-11.059 30.43-14.473 46.379-8.9609 15.953 5.5117 27.75 19.117 30.953 35.688 3.1992 16.57-2.6836 33.586-15.43 44.645l-139.53 123.26c-8.6328 7.6367-19.754 11.852-31.277 11.855zm-148.51-52.715 30.859 18.91h-0.003906c2.4766 1.5195 5.3242 2.3242 8.2266 2.3242h109.42c3.8398-0.007812 7.5469-1.418 10.422-3.9688l139.67-123.38c3.2031-2.707 5.1953-6.582 5.5352-10.762 0.34375-4.1797-0.99609-8.3203-3.7227-11.512-2.7227-3.1875-6.6055-5.1602-10.785-5.4805-4.1719-0.33984-8.3047 1.0234-11.453 3.7773l-87.223 77.703v0.003906c-8.8516 8.9492-20.918 13.98-33.504 13.973h-78.723c-5.625 0-10.82-3-13.633-7.8711-2.8125-4.8711-2.8125-10.875 0-15.746s8.0078-7.8711 13.633-7.8711h78.723c3.2344 0.003907 6.3906-0.99609 9.0391-2.8594l2.707-2.4141c2.7109-3.0391 4.1406-7.0078 3.9844-11.078-0.15234-4.0664-1.8789-7.918-4.8125-10.742-2.9336-2.8203-6.8477-4.3984-10.918-4.3945h-116.79c-3.0039 0.003906-5.9453 0.86328-8.4844 2.4766l-32.164 20.434z"/>
 <path d="m366.84 292.84c-13.98 0.007812-27.773-3.2344-40.285-9.4727l-0.015625-0.015625c-28.738-14.492-47.637-43.137-49.656-75.262-0.16797-2.7656 0.39453-5.5312 1.6328-8.0117s3.1094-4.5898 5.4258-6.1172c26.902-17.727 61.215-19.762 90.027-5.3398 28.809 14.418 47.746 43.105 49.68 75.266 0.17188 2.7695-0.39062 5.5352-1.6328 8.0156-1.2422 2.4844-3.1211 4.5938-5.4375 6.1133-14.781 9.6875-32.07 14.84-49.738 14.824zm-26.184-37.629c15.715 7.9297 34.172 8.3359 50.223 1.1016-3.8906-17.16-15.27-31.668-31.004-39.547-15.73-7.875-34.168-8.2852-50.234-1.1211 3.8203 17.199 15.223 31.746 31.016 39.562z"/>
 <path d="m496.14 292.84c-17.668 0.015624-34.957-5.1367-49.734-14.824-2.3203-1.5195-4.1953-3.6289-5.4414-6.1133-1.2422-2.4805-1.8047-5.2461-1.6328-8.0156 1.9297-32.164 20.863-60.855 49.68-75.277 28.812-14.422 63.133-12.383 90.035 5.3516 2.3125 1.5273 4.1836 3.6367 5.4219 6.1172 1.2383 2.4805 1.8047 5.2461 1.6328 8.0117-2.0195 32.125-20.922 60.766-49.66 75.258l-0.015625 0.015625c-12.512 6.2422-26.305 9.4844-40.285 9.4766zm33.242-23.555m-57.285-12.965c16.043 7.25 34.508 6.8438 50.223-1.1016 15.789-7.8125 27.191-22.359 31.016-39.559-16.07-7.1719-34.508-6.7617-50.242 1.1133-15.734 7.8789-27.109 22.391-30.996 39.555z"/>
 <path d="m431.49 307.42c-5.4375 0-10.488-2.8086-13.363-7.4258-5.5-8.8633-12.375-16.793-20.371-23.492-4.3125-3.6133-6.3672-9.2539-5.3945-14.797 0.97266-5.5391 4.832-10.141 10.117-12.066 5.2852-1.9297 11.199-0.88672 15.512 2.7266 4.8125 4.0391 9.3242 8.4219 13.5 13.117 4.1758-4.6953 8.6836-9.0781 13.496-13.117 4.3125-3.6133 10.227-4.6562 15.512-2.7266 5.2891 1.9258 9.1445 6.5273 10.117 12.07 0.97656 5.5391-1.082 11.18-5.3945 14.797-7.9961 6.6992-14.871 14.629-20.371 23.492-2.875 4.6133-7.9258 7.4219-13.359 7.4219z"/>
 <path d="m431.49 415.74c-4.1758 0-8.1836-1.6602-11.133-4.6094-2.9531-2.9531-4.6133-6.957-4.6133-11.133v-108.32c0-5.625 3-10.824 7.8711-13.637 4.8711-2.8125 10.875-2.8125 15.746 0s7.8711 8.0117 7.8711 13.637v108.32c0 4.1758-1.6602 8.1797-4.6094 11.133-2.9531 2.9492-6.957 4.6094-11.133 4.6094z"/>
</svg>