<?xml version="1.0" encoding="UTF-8"?>
<!-- The Best Svg Icon site in the world: iconSvg.co, Visit us! https://iconsvg.co -->
<svg fill="#000000" width="800px" height="800px" version="1.1" viewBox="144 144 512 512" xmlns="http://www.w3.org/2000/svg">
 <g>
  <path d="m329.02 615.92-22.156-31.707c-1.207-1.7227-3.3281-2.5195-5.3945-2.1289l-37.828 8.0312 44.547-61.023c1.1875 0.91406 2.6016 1.6172 4.4297 1.8594 0.77734 0 2.5391-0.39844 3.2539-0.72266 6.0547-2.8867 12.793-4.4102 19.48-4.4102h0.69141c0.31641 0.10547 0.62109 0.21094 0.93359 0.29297 1.0391 0.72266 1.8594 1.6992 2.8242 2.5078-0.0625 0.21875-0.21094 0.42969-0.21875 0.67188z"/>
  <path d="m413.1 582.09c-2.0469-0.38672-4.1758 0.41016-5.3945 2.1289l-22.156 31.707-10.539-86.633c-0.03125-0.24219-0.16797-0.45312-0.21875-0.67188 0.97656-0.80859 1.7852-1.7852 2.8242-2.5078 0.30469-0.10547 0.62891-0.19922 0.92188-0.29297h0.70312c6.6953 0 13.426 1.5234 19.492 4.4102 0.69141 0.32422 2.4336 0.71484 3.2344 0.71484 1.6914 0 3.2852-0.66016 4.5859-1.6602l44.41 60.867z"/>
  <path d="m523.37 184.07h-205.79c-7.1914 0-13.016 5.8477-13.016 13.016v219.72c1.082-5.0273 1.2891-10.234 0.62891-15.336-0.19922-1.418 0.03125-2.8438 0.64062-4.1445 1.2695-2.6641 3.9258-4.3242 6.7812-4.3242 0.79688 0 2.5391 0.38672 3.2539 0.73438 6.0469 2.8672 12.785 4.4102 19.48 4.4102l0.68359-0.019532c0.31641-0.10547 0.62891-0.21094 0.93359-0.29297 5.6797-4.0078 10.41-9.332 13.719-15.43 0.72266-1.3008 1.7617-2.3398 3.0352-3.0117 3.5039-1.8906 8.2617-0.49219 10.148 3.0352 3.2969 6.0781 8.0508 11.398 13.73 15.406 0.30469 0.09375 0.62891 0.19922 0.92188 0.29297l0.70312 0.019532c6.6953 0 13.426-1.5312 19.492-4.418 0.69141-0.33594 2.4258-0.72266 3.2227-0.72266 2.9492 0.31641 4.7109 1.332 5.9414 2.918 1.2188 1.5859 1.7617 3.5703 1.4805 5.5508-0.90234 6.875-0.1875 13.969 2.0469 20.531 0.19922 0.27344 0.38672 0.54688 0.57812 0.80859 5.5742 4.1562 12.09 7.0312 18.914 8.293 1.4375 0.27344 2.7305 0.93359 3.7578 1.9102 1.4922 1.4062 2.3203 3.2539 2.3711 5.2461 0.050781 2.0039-0.66016 3.9141-2.0586 5.3828-4.7969 5.0391-8.3867 11.199-10.434 17.855v0.92188c2.0469 6.6445 5.6562 12.816 10.434 17.855 1.0078 1.0703 1.6797 2.3945 1.9531 3.8203 0.73438 4.0508-1.9609 7.957-6.0156 8.7031-6.8125 1.2578-13.34 4.125-18.914 8.293-0.1875 0.25-0.37891 0.53516-0.57812 0.80859-1.4375 4.1758-2.1719 8.6055-2.332 13.035l24.203 33.145c0.28516-0.050782 0.55469-0.17969 0.85938-0.17969h89.215c7.1914 0 13.016-5.8555 13.016-13.016l0.003906-337.8c0-7.168-5.8281-13.016-13.008-13.016zm-150.55 40.66h92.062c2.8867 0 5.2461 2.3516 5.2461 5.2461 0 2.8984-2.3633 5.2461-5.2461 5.2461l-92.062 0.003907c-2.8867 0-5.2461-2.3516-5.2461-5.2461 0-2.8984 2.3398-5.25 5.2461-5.25zm119.28 97.551h-146.5c-2.8867 0-5.2461-2.3516-5.2461-5.2461 0-2.8984 2.3633-5.2461 5.2461-5.2461h146.5c2.8984 0 5.2461 2.3516 5.2461 5.2461 0.003906 2.8945-2.3359 5.2461-5.2461 5.2461zm0-43.527h-146.5c-2.8867 0-5.2461-2.3633-5.2461-5.2461 0-2.9062 2.3633-5.2461 5.2461-5.2461h146.5c2.8984 0 5.2461 2.3398 5.2461 5.2461 0.003906 2.8945-2.3359 5.2461-5.2461 5.2461z"/>
  <path d="m414.04 463.1v-2.2656c0-0.54688 0.0625-1.0586 0.21875-1.5625 1.9961-6.8633 5.3438-13.34 9.7734-18.988-6.8633-1.9531-13.383-5.2148-19.062-9.6133-0.42969-0.32422-0.78906-0.71484-1.0898-1.1445l-1.3242-1.8359c-0.32422-0.41797-0.57812-0.89062-0.75391-1.3945-2.4141-6.7383-3.5273-13.938-3.2539-21.109-6.1836 2.2773-12.762 3.4531-19.312 3.4531l-1.7734-0.019531c-0.51562-0.019532-1.0508-0.11719-1.5312-0.27344l-2.1758-0.69922c-0.51562-0.15625-1.0078-0.38672-1.4492-0.69141-5.9297-4.0195-11.062-9.2031-15.039-15.156-3.9766 5.9414-9.1016 11.137-15.051 15.156-0.44141 0.30469-0.93359 0.55469-1.4492 0.69141l-2.1406 0.68359c-0.49219 0.17969-1.0273 0.25-1.5312 0.27344l-1.7617 0.019531c-6.5586 0-13.141-1.1641-19.312-3.4531 0.26172 7.168-0.83984 14.379-3.2734 21.117-0.17969 0.49219-0.42969 0.95703-0.73438 1.3633l-1.3438 1.8594c-0.30469 0.42969-0.67188 0.82031-1.0898 1.1445-5.668 4.3867-12.188 7.6602-19.07 9.6133 4.4297 5.6172 7.7773 12.09 9.7812 18.988 0.14844 0.51563 0.21875 1.0508 0.21094 1.5625v2.2656c0.011719 0.53516-0.0625 1.0703-0.21094 1.5547-1.9961 6.8867-5.3516 13.352-9.7812 18.996 6.875 1.9609 13.395 5.2148 19.07 9.6133 0.41016 0.32422 0.77734 0.70312 1.0898 1.1328l1.3438 1.8672c0.31641 0.41016 0.56641 0.87109 0.73438 1.3633 2.0352 5.625 2.8984 11.586 3.0664 17.582 0.1875 0.70313 0.24219 1.4375 0.125 2.1719-0.011718 0.45312 0.10547 0.90234 0.082032 1.375 6.1523-2.2891 12.73-3.4648 19.312-3.4648l1.7617 0.019531c0.53516 0.019531 1.0508 0.125 1.5312 0.28516l2.1406 0.67188c0.51562 0.16797 1.0078 0.38672 1.4492 0.69141 5.918 4.0391 11.051 9.2266 15.051 15.168 4-5.9727 9.1211-11.156 15.039-15.168 0.44141-0.30469 0.93359-0.54687 1.4492-0.69141l2.1523-0.67188c0.49219-0.1875 1.0078-0.26172 1.5312-0.28516l1.7734-0.019531c6.5586 0 13.141 1.1758 19.312 3.4648-0.011719-0.47266 0.082031-0.92188 0.074218-1.375-0.11719-0.73438-0.0625-1.4688 0.125-2.1836 0.15625-5.9727 1.0391-11.945 3.0547-17.559 0.1875-0.50391 0.42969-0.97656 0.75391-1.3945l1.3242-1.8477c0.30469-0.42969 0.66016-0.80859 1.0898-1.1328 5.6562-4.3867 12.176-7.6523 19.062-9.6133-4.4297-5.625-7.7656-12.102-9.7734-18.996-0.13281-0.48047-0.19531-1.0039-0.19531-1.5391zm-56.762 28.844c-16.531 0-29.965-13.445-29.965-29.965s13.445-29.965 29.965-29.965 29.957 13.445 29.957 29.965c0.007813 16.52-13.438 29.965-29.957 29.965z"/>
 </g>
</svg>