<?xml version="1.0" encoding="UTF-8"?>
<!-- The Best Svg Icon site in the world: iconSvg.co, Visit us! https://iconsvg.co -->
<svg fill="#000000" width="800px" height="800px" version="1.1" viewBox="144 144 512 512" xmlns="http://www.w3.org/2000/svg">
 <g>
  <path d="m515.45 400c0-30.621-12.164-59.988-33.816-81.641-21.652-21.652-51.016-33.816-81.637-33.816s-59.988 12.164-81.641 33.816-33.816 51.02-33.816 81.641 12.164 59.984 33.816 81.637c21.652 21.652 51.02 33.816 81.641 33.816s59.984-12.164 81.637-33.816c21.652-21.652 33.816-51.016 33.816-81.637zm-209.92 0c0-25.055 9.9531-49.082 27.668-66.797s41.742-27.668 66.797-27.668c25.051 0 49.078 9.9531 66.793 27.668 17.719 17.715 27.668 41.742 27.668 66.797 0 25.051-9.9492 49.078-27.668 66.793-17.715 17.719-41.742 27.668-66.793 27.668-25.055 0-49.082-9.9492-66.797-27.668-17.715-17.715-27.668-41.742-27.668-66.793z"/>
  <path d="m410.5 462.98v-10.496h20.992c2.7812 0 5.4531-1.1094 7.4219-3.0742 1.9648-1.9688 3.0742-4.6406 3.0742-7.4219v-41.984c0-2.7852-1.1094-5.4531-3.0742-7.4219-1.9688-1.9688-4.6406-3.0742-7.4219-3.0742h-52.48v-20.992h52.48c5.7969 0 10.496-4.6992 10.496-10.496s-4.6992-10.496-10.496-10.496h-20.992v-10.496c0-5.7969-4.6992-10.496-10.496-10.496s-10.496 4.6992-10.496 10.496v10.496h-20.992c-5.7969 0-10.496 4.6992-10.496 10.496v41.984c0 2.7812 1.1055 5.4531 3.0742 7.4219s4.6367 3.0742 7.4219 3.0742h52.48v20.992h-52.48c-5.7969 0-10.496 4.6992-10.496 10.496s4.6992 10.496 10.496 10.496h20.992v10.496c0 5.7969 4.6992 10.496 10.496 10.496s10.496-4.6992 10.496-10.496z"/>
  <path d="m627.87 371.55c-1.9688-1.9883-4.6523-3.1055-7.4531-3.1055-2.7969 0-5.4805 1.1172-7.4492 3.1055l-24.039 24.352c-0.92578-42.535-16.18-83.516-43.297-116.3-27.117-32.781-64.504-55.457-106.11-64.344-41.605-8.8906-84.996-3.4766-123.14 15.363-38.148 18.84-68.816 50.008-87.047 88.449-1.4414 2.5312-1.7617 5.5508-0.89062 8.332 0.87109 2.7773 2.8594 5.0703 5.4883 6.3281 2.6328 1.2578 5.6641 1.3633 8.375 0.29297 2.7109-1.0664 4.8555-3.2148 5.9219-5.9258 16.137-34.145 43.312-61.852 77.137-78.652 33.824-16.797 72.32-21.703 109.28-13.926 36.957 7.7773 70.211 27.785 94.398 56.789 24.184 29.004 37.887 65.316 38.895 103.07l-23.824-23.824c-4.1172-4.1172-10.789-4.1172-14.906 0-4.1133 4.1172-4.1133 10.789 0 14.902l41.984 41.984c1.9727 1.9883 4.6562 3.1055 7.4531 3.1055 2.8008 0 5.4805-1.1172 7.4531-3.1055l41.984-41.984c1.957-1.9961 3.0391-4.6953 3-7.4961-0.039063-2.7969-1.1953-5.4648-3.2109-7.4062z"/>
  <path d="m565.73 466.96c-5.2188-2.4766-11.457-0.27344-13.961 4.9297-16.137 34.145-43.312 61.855-77.137 78.652-33.824 16.797-72.32 21.703-109.28 13.926s-70.211-27.785-94.398-56.789c-24.184-29.004-37.887-65.316-38.895-103.07l23.824 23.824c4.1172 4.1172 10.789 4.1172 14.906 0 4.1133-4.1133 4.1133-10.789 0-14.902l-41.984-41.984c-1.9727-1.9883-4.6523-3.1055-7.4531-3.1055-2.7969 0-5.4805 1.1172-7.4531 3.1055l-41.984 41.984c-4.1133 4.1133-4.1133 10.789 0 14.902 4.1172 4.1172 10.789 4.1172 14.906 0l24.246-24.348c1.0195 42.457 16.312 83.332 43.414 116.03 27.102 32.699 64.43 55.312 105.96 64.191s84.844 3.5039 122.95-15.254c38.102-18.758 68.773-49.809 87.062-88.137 2.5078-5.1602 0.40234-11.379-4.7227-13.957z"/>
 </g>
</svg>