<?xml version="1.0" encoding="UTF-8"?>
<!-- The Best Svg Icon site in the world: iconSvg.co, Visit us! https://iconsvg.co -->
<svg width="800px" height="800px" version="1.1" viewBox="144 144 512 512" xmlns="http://www.w3.org/2000/svg">
 <defs>
  <clipPath id="b">
   <path d="m221 148.09h358v388.91h-358z"/>
  </clipPath>
  <clipPath id="a">
   <path d="m305 557h190v94.902h-190z"/>
  </clipPath>
 </defs>
 <g clip-path="url(#b)">
  <path d="m400 148.09c-40.77 0.035156-80.293 14.031-112 39.656-31.707 25.629-53.684 61.336-62.27 101.19-8.5859 39.852-3.2695 81.441 15.07 117.85 18.336 36.41 48.59 65.441 85.727 82.266v47.387h20.992v-54.305c0-4.2773-2.5977-8.125-6.5625-9.7305-45.516-18.41-79.836-57.004-92.805-104.36-12.973-47.355-3.1055-98.055 26.676-137.09 29.781-39.035 76.07-61.941 125.17-61.941 49.098 0 95.387 22.906 125.17 61.941 29.785 39.035 39.648 89.734 26.68 137.09-12.973 47.355-47.293 85.949-92.809 104.36-3.9648 1.6055-6.5586 5.4531-6.5586 9.7305v54.305h20.992v-47.387c37.133-16.824 67.387-45.855 85.727-82.266 18.336-36.41 23.656-78 15.066-117.85-8.5859-39.855-30.562-75.562-62.27-101.19-31.707-25.625-71.23-39.621-112-39.656z"/>
 </g>
 <g clip-path="url(#a)">
  <path d="m305.54 578.43h20.992v31.488c0 2.7852 1.1055 5.4531 3.0742 7.4219s4.6367 3.0742 7.4219 3.0742h20.992v20.992c0 2.7852 1.1055 5.4531 3.0742 7.4219s4.6367 3.0742 7.4219 3.0742h62.977c2.7812 0 5.4531-1.1055 7.4219-3.0742 1.9648-1.9688 3.0742-4.6367 3.0742-7.4219v-20.992h20.992c2.7812 0 5.4531-1.1055 7.4219-3.0742 1.9648-1.9688 3.0742-4.6367 3.0742-7.4219v-31.488h20.992l-0.003906-20.992h-188.93zm115.46 52.48h-41.984v-10.496h41.984zm31.488-31.488h-104.96v-20.992h104.96z"/>
 </g>
 <path d="m410.5 441.51c29.887-2.7305 57.539-16.992 77.094-39.762 19.555-22.77 29.473-52.262 27.652-82.219-1.8203-29.957-15.234-58.031-37.402-78.266-22.164-20.238-51.34-31.047-81.34-30.137s-58.469 13.465-79.367 35.008c-20.898 21.543-32.59 50.375-32.59 80.391h20.992c0-25.055 9.9531-49.082 27.668-66.797 17.715-17.715 41.742-27.668 66.797-27.668 25.051 0 49.078 9.9531 66.793 27.668 17.719 17.715 27.668 41.742 27.668 66.797 0 25.051-9.9492 49.078-27.668 66.797-17.715 17.715-41.742 27.668-66.793 27.668-5.7969 0-10.496 4.6992-10.496 10.496v20.992h20.992z"/>
 <path d="m379.01 379.01h10.496v20.992h20.992v-20.992h10.496c5.5664 0 10.906-2.2148 14.844-6.1484 3.9336-3.9375 6.1484-9.2773 6.1484-14.844v-20.992c0-5.5703-2.2148-10.906-6.1484-14.844-3.9375-3.9375-9.2773-6.1484-14.844-6.1484h-41.984v-20.992h41.984v10.496h20.992v-10.496c0-5.5664-2.2148-10.906-6.1484-14.844-3.9375-3.9375-9.2773-6.1484-14.844-6.1484h-10.496v-20.992h-20.992v20.992h-10.496c-5.5703 0-10.91 2.2109-14.844 6.1484-3.9375 3.9375-6.1484 9.2773-6.1484 14.844v20.992c0 5.5664 2.2109 10.906 6.1484 14.844 3.9336 3.9375 9.2734 6.1484 14.844 6.1484h41.984v20.992h-41.984v-10.496h-20.992v10.496c0 5.5664 2.2109 10.906 6.1484 14.844 3.9336 3.9336 9.2734 6.1484 14.844 6.1484z"/>
 <path d="m389.5 473.47h20.992v20.992h-20.992z"/>
 <path d="m389.5 515.45h20.992v20.992h-20.992z"/>
</svg>