<?xml version="1.0" encoding="UTF-8"?>
<!-- The Best Svg Icon site in the world: iconSvg.co, Visit us! https://iconsvg.co -->
<svg fill="#000000" width="800px" height="800px" version="1.1" viewBox="144 144 512 512" xmlns="http://www.w3.org/2000/svg">
 <g>
  <path d="m612.54 163.84h-236.16c-6.2656 0-12.27 2.4883-16.699 6.918-4.4297 4.4297-6.918 10.438-6.918 16.699v23.617h-23.617c-6.2617 0-12.27 2.4883-16.695 6.918-4.4297 4.4258-6.918 10.434-6.918 16.699v23.617l-23.617-0.003907c-6.2617 0-12.27 2.4883-16.699 6.918s-6.918 10.438-6.918 16.699v102.74c-34.594 2.6172-65.496 22.598-82.082 53.07-16.586 30.473-16.586 67.273 0 97.746 16.586 30.469 47.488 50.453 82.082 53.07v24c0 6.2617 2.4883 12.27 6.918 16.699 4.4297 4.4297 10.438 6.918 16.699 6.918h236.16c6.2656 0 12.27-2.4883 16.699-6.918 4.4297-4.4297 6.918-10.438 6.918-16.699v-23.617h23.617c6.2617 0 12.27-2.4883 16.699-6.9141 4.4258-4.4297 6.9141-10.438 6.9141-16.699v-23.617h23.617c6.2617 0 12.27-2.4883 16.699-6.918 4.4297-4.4297 6.918-10.434 6.918-16.699v-330.62c0-6.2617-2.4883-12.27-6.918-16.699-4.4297-4.4297-10.438-6.918-16.699-6.918zm-432.96 322.75c0-22.965 9.1211-44.988 25.363-61.23 16.238-16.238 38.262-25.359 61.23-25.359 22.965 0 44.988 9.1211 61.227 25.359 16.242 16.242 25.363 38.266 25.363 61.23s-9.1211 44.992-25.363 61.23c-16.238 16.238-38.262 25.363-61.227 25.363-22.961-0.027344-44.969-9.1602-61.203-25.395-16.23-16.23-25.363-38.242-25.391-61.199zm346.37 125.95c0 2.0898-0.82812 4.0898-2.3047 5.5664-1.4766 1.4766-3.4766 2.3047-5.5664 2.3047h-236.16c-4.3477 0-7.8711-3.5234-7.8711-7.8711v-24.016c34.594-2.6172 65.5-22.602 82.082-53.07 16.586-30.473 16.586-67.277 0-97.746-16.582-30.473-47.488-50.453-82.082-53.07v-102.72c0-4.3477 3.5234-7.8711 7.8711-7.8711h165.31v70.848c0 2.9023 1.5977 5.5703 4.1602 6.9414 2.5586 1.3711 5.6641 1.2188 8.082-0.39063l19.246-12.848 19.246 12.832c2.4141 1.6094 5.5156 1.7617 8.0781 0.39453 2.5586-1.3672 4.1602-4.0273 4.1641-6.9297v-70.848h7.8711c2.0898 0 4.0898 0.82812 5.5664 2.3047 1.4766 1.4766 2.3047 3.4805 2.3047 5.5664zm-62.973-338.5h31.488v56.137l-11.375-7.582h-0.003906c-2.6445-1.7656-6.0898-1.7656-8.7344 0l-11.375 7.5781zm110.21 291.27c0 2.0859-0.82812 4.0898-2.3047 5.5664-1.4766 1.4766-3.4805 2.3047-5.5664 2.3047h-23.617v-291.27c0-6.2617-2.4883-12.27-6.918-16.699-4.4297-4.4297-10.434-6.918-16.699-6.918h-196.8v-23.613c0-4.3477 3.5234-7.875 7.8711-7.875h236.16c2.0859 0 4.0898 0.83203 5.5664 2.3086 1.4766 1.4766 2.3047 3.4766 2.3047 5.5664zm47.23-47.23v-0.003906c0 2.0898-0.82812 4.0898-2.3047 5.5664-1.4766 1.4766-3.4766 2.3047-5.5664 2.3047h-23.617v-291.26c0-6.2656-2.4883-12.273-6.9141-16.699-4.4297-4.4297-10.438-6.918-16.699-6.918h-196.8v-23.617c0-4.3477 3.5234-7.8711 7.8711-7.8711h236.16c2.0898 0 4.0898 0.82812 5.5664 2.3047 1.4766 1.4766 2.3047 3.4805 2.3047 5.5664z"/>
  <path d="m321.28 305.54c-8.3516 0-16.359 3.3164-22.266 9.2227-5.9023 5.9023-9.2227 13.914-9.2227 22.266 0 8.3516 3.3203 16.359 9.2227 22.266 5.9062 5.9023 13.914 9.2227 22.266 9.2227 8.3516 0 16.359-3.3203 22.266-9.2227 5.9062-5.9062 9.2227-13.914 9.2227-22.266 0-8.3516-3.3164-16.363-9.2227-22.266-5.9062-5.9062-13.914-9.2227-22.266-9.2227zm0 47.23c-4.1758 0-8.1797-1.6562-11.133-4.6094s-4.6094-6.957-4.6094-11.133c0-4.1758 1.6562-8.1797 4.6094-11.133s6.957-4.6133 11.133-4.6133c4.1758 0 8.1797 1.6602 11.133 4.6133s4.6133 6.957 4.6133 11.133c0 4.1758-1.6602 8.1797-4.6133 11.133s-6.957 4.6094-11.133 4.6094z"/>
  <path d="m368.51 321.28h15.742v15.742h-15.742z"/>
  <path d="m400 321.28h31.488v15.742h-31.488z"/>
  <path d="m368.51 352.77h62.977v15.742h-62.977z"/>
  <path d="m376.38 415.74h118.08v15.742h-118.08z"/>
  <path d="m376.38 462.98h118.08v15.742h-118.08z"/>
  <path d="m376.38 510.21h118.08v15.742h-118.08z"/>
  <path d="m470.85 554.61c-5.2969-0.10938-10.531 1.1328-15.219 3.6055-5.2617 2.7422-11.535 2.7422-16.797 0-4.6836-2.4805-9.9219-3.7227-15.219-3.6055v15.742c2.9297-0.09375 5.832 0.61719 8.3867 2.0547 9.5703 4.8203 20.859 4.8203 30.43 0 5.2695-2.7422 11.543-2.7422 16.809 0 4.6875 2.4766 9.9258 3.7188 15.223 3.6133v-15.742c-2.9375 0.097656-5.8438-0.61719-8.4062-2.0625-4.6797-2.4727-9.9141-3.7109-15.207-3.6055z"/>
  <path d="m274.05 533.82v-9.3203c7.0547-2.4844 12.508-8.1719 14.699-15.324 2.1914-7.1523 0.85547-14.918-3.5977-20.93-4.4531-6.0078-11.496-9.5469-18.973-9.5312-3.1875 0-6.0547-1.918-7.2734-4.8594s-0.54688-6.3281 1.707-8.5781c2.25-2.2539 5.6367-2.9258 8.5781-1.707s4.8594 4.0898 4.8594 7.2734h15.742c-0.019531-4.8672-1.543-9.6094-4.3594-13.578-2.8203-3.9688-6.793-6.9688-11.383-8.5898v-9.3203h-15.746v9.3203c-7.0547 2.4844-12.508 8.1719-14.699 15.324-2.1914 7.1484-0.85547 14.918 3.5977 20.926 4.4531 6.0078 11.496 9.5469 18.977 9.5312 3.1836 0 6.0508 1.918 7.2695 4.8633 1.2188 2.9414 0.54688 6.3242-1.7031 8.5781-2.2539 2.25-5.6406 2.9219-8.582 1.707-2.9414-1.2188-4.8594-4.0898-4.8594-7.2734h-15.742c0.019531 4.8672 1.543 9.6094 4.3594 13.574 2.8203 3.9688 6.7969 6.9688 11.383 8.5938v9.3203z"/>
  <path d="m344.89 486.59c0-20.879-8.293-40.898-23.059-55.664-14.762-14.762-34.785-23.055-55.66-23.055-20.879 0-40.902 8.293-55.664 23.055-14.766 14.766-23.059 34.785-23.059 55.664s8.293 40.902 23.059 55.664c14.762 14.762 34.785 23.059 55.664 23.059 20.871-0.023438 40.879-8.3242 55.637-23.082 14.758-14.758 23.059-34.77 23.082-55.641zm-141.7 0c0-16.703 6.6328-32.719 18.445-44.531 11.809-11.809 27.828-18.445 44.531-18.445 16.699 0 32.719 6.6367 44.527 18.445 11.812 11.812 18.445 27.828 18.445 44.531s-6.6328 32.723-18.445 44.531c-11.809 11.812-27.828 18.445-44.527 18.445-16.699-0.019531-32.707-6.6602-44.512-18.465-11.805-11.809-18.449-27.812-18.465-44.512z"/>
  <path d="m305.54 478.72h15.742v15.742h-15.742z"/>
  <path d="m211.07 478.72h15.742v15.742h-15.742z"/>
 </g>
</svg>