<?xml version="1.0" encoding="UTF-8"?>
<!-- The Best Svg Icon site in the world: iconSvg.co, Visit us! https://iconsvg.co -->
<svg width="800px" height="800px" version="1.1" viewBox="144 144 512 512" xmlns="http://www.w3.org/2000/svg">
 <defs>
  <clipPath id="c">
   <path d="m148.09 211h503.81v378h-503.81z"/>
  </clipPath>
  <clipPath id="b">
   <path d="m384 148.09h32v47.906h-32z"/>
  </clipPath>
  <clipPath id="a">
   <path d="m384 604h32v47.902h-32z"/>
  </clipPath>
 </defs>
 <path d="m400 525.95c-33.406 0-65.441-13.27-89.062-36.891-23.621-23.617-36.891-55.656-36.891-89.059 0-33.406 13.27-65.441 36.891-89.062s55.656-36.891 89.062-36.891c33.402 0 65.441 13.27 89.059 36.891 23.621 23.621 36.891 55.656 36.891 89.062-0.035157 33.391-13.32 65.406-36.93 89.02-23.613 23.609-55.629 36.895-89.02 36.93zm0-220.42v0.003906c-25.055 0-49.082 9.9531-66.797 27.668s-27.668 41.742-27.668 66.797c0 25.051 9.9531 49.078 27.668 66.793 17.715 17.719 41.742 27.668 66.797 27.668 25.051 0 49.078-9.9492 66.793-27.668 17.719-17.715 27.668-41.742 27.668-66.793-0.027344-25.047-9.9883-49.059-27.695-66.766-17.711-17.711-41.723-27.672-66.766-27.699z"/>
 <path d="m407.87 462.98h-39.359c-5.625 0-10.824-3.0039-13.637-7.875-2.8125-4.8711-2.8125-10.871 0-15.742s8.0117-7.8711 13.637-7.8711h39.359c4.3477 0 7.8711-3.5273 7.8711-7.875 0-4.3477-3.5234-7.8711-7.8711-7.8711h-15.746c-14.059 0-27.055-7.5-34.086-19.68s-7.0312-27.184 0-39.359c7.0312-12.18 20.027-19.68 34.086-19.68h39.363c5.625 0 10.82 3 13.633 7.8711 2.8125 4.8711 2.8125 10.871 0 15.742-2.8125 4.8711-8.0078 7.875-13.633 7.875h-39.363c-4.3477 0-7.8711 3.5234-7.8711 7.8711 0 4.3477 3.5234 7.8711 7.8711 7.8711h15.746c14.062 0 27.055 7.5039 34.086 19.68 7.0312 12.18 7.0312 27.184 0 39.359-7.0312 12.18-20.023 19.684-34.086 19.684z"/>
 <path d="m400 368.51c-4.1758 0-8.1797-1.6602-11.133-4.6133-2.9531-2.9531-4.6133-6.957-4.6133-11.133v-15.742c0-5.625 3-10.824 7.8711-13.637s10.875-2.8125 15.746 0 7.8711 8.0117 7.8711 13.637v15.742c0 4.1758-1.6602 8.1797-4.6094 11.133-2.9531 2.9531-6.957 4.6133-11.133 4.6133z"/>
 <path d="m400 478.72c-4.1758 0-8.1797-1.6602-11.133-4.6094-2.9531-2.9531-4.6133-6.9609-4.6133-11.133v-15.746c0-5.625 3-10.82 7.8711-13.633s10.875-2.8125 15.746 0 7.8711 8.0078 7.8711 13.633v15.746c0 4.1719-1.6602 8.1797-4.6094 11.133-2.9531 2.9492-6.957 4.6094-11.133 4.6094z"/>
 <g clip-path="url(#c)">
  <path d="m400 588.93c-137.68 0-245.09-173.34-249.6-180.73-1.5078-2.4688-2.3047-5.3047-2.3047-8.1992s0.79688-5.7344 2.3047-8.2031c4.5078-7.3867 111.93-180.73 249.6-180.73s245.09 173.34 249.6 180.73c1.5078 2.4688 2.3047 5.3086 2.3047 8.2031s-0.79688 5.7305-2.3047 8.1992c-4.5039 7.3867-111.92 180.73-249.6 180.73zm-217.38-188.93c22.508 33.438 113.05 157.44 217.38 157.44s194.86-124 217.37-157.44c-22.508-33.438-113.04-157.44-217.37-157.44s-194.87 124-217.38 157.44z"/>
 </g>
 <g clip-path="url(#b)">
  <path d="m400 195.32c-4.1758 0-8.1797-1.6562-11.133-4.6094-2.9531-2.9531-4.6133-6.957-4.6133-11.133v-15.746c0-5.6211 3-10.82 7.8711-13.633s10.875-2.8125 15.746 0 7.8711 8.0117 7.8711 13.633v15.746c0 4.1758-1.6602 8.1797-4.6094 11.133-2.9531 2.9531-6.957 4.6094-11.133 4.6094z"/>
 </g>
 <path d="m263.39 242.77c-4.8203 0.007813-9.3789-2.1953-12.359-5.9844l-9.7617-12.355v0.003907c-2.5898-3.2773-3.7695-7.4492-3.2812-11.598 0.48828-4.1445 2.6016-7.9297 5.8789-10.52 3.2773-2.5859 7.4492-3.7656 11.594-3.2812 4.1484 0.48828 7.9336 2.6055 10.52 5.8828l9.7617 12.355v-0.003906c2.457 3.1094 3.6523 7.0312 3.3438 10.984-0.30469 3.9492-2.0938 7.6406-5 10.332-2.9102 2.6914-6.7266 4.1875-10.688 4.1914z"/>
 <path d="m536.61 242.77c-3.9609 0-7.7773-1.4961-10.688-4.1914-2.9102-2.6914-4.6953-6.3789-5-10.332-0.30859-3.9492 0.88672-7.8711 3.3438-10.98l9.7617-12.355h-0.003907c2.5547-3.375 6.3594-5.5781 10.559-6.1133 4.1953-0.53906 8.4336 0.63672 11.754 3.2578 3.3203 2.625 5.4453 6.4727 5.8984 10.68 0.44922 4.207-0.8125 8.418-3.5039 11.688l-9.7617 12.355 0.003906-0.003907c-2.9844 3.793-7.5391 6-12.363 5.9961z"/>
 <g clip-path="url(#a)">
  <path d="m400 651.9c-4.1758 0-8.1797-1.6562-11.133-4.6094-2.9531-2.9531-4.6133-6.957-4.6133-11.133v-15.746c0-5.625 3-10.82 7.8711-13.633s10.875-2.8125 15.746 0 7.8711 8.0078 7.8711 13.633v15.746c0 4.1758-1.6602 8.1797-4.6094 11.133-2.9531 2.9531-6.957 4.6094-11.133 4.6094z"/>
 </g>
 <path d="m253.62 601.07c-3.9648-0.003907-7.7812-1.5-10.688-4.1914-2.9102-2.6914-4.6953-6.3828-5.0039-10.332-0.30469-3.9531 0.88672-7.875 3.3438-10.984l9.7617-12.355v0.003906c2.5547-3.375 6.3594-5.5781 10.555-6.1172 4.1992-0.53516 8.4375 0.64062 11.758 3.2617 3.3203 2.6211 5.4453 6.4727 5.8984 10.68 0.44922 4.207-0.8125 8.418-3.5039 11.684l-9.7617 12.355c-2.9805 3.7891-7.5391 6-12.359 5.9961z"/>
 <path d="m546.38 601.07c-4.8203 0.007812-9.3789-2.1992-12.363-5.9844l-9.7617-12.355v0.003906c-2.6914-3.2695-3.9531-7.4805-3.5-11.688 0.44922-4.207 2.5742-8.0547 5.8945-10.68 3.3242-2.6211 7.5586-3.7969 11.758-3.2578 4.1953 0.53516 8 2.7383 10.555 6.1133l9.7617 12.355c2.457 3.1094 3.6523 7.0312 3.3438 10.98-0.30859 3.9531-2.0938 7.6406-5 10.332-2.9102 2.6914-6.7266 4.1914-10.688 4.1914z"/>
</svg>