<?xml version="1.0" encoding="UTF-8"?>
<!-- The Best Svg Icon site in the world: iconSvg.co, Visit us! https://iconsvg.co -->
<svg fill="#000000" width="800px" height="800px" version="1.1" viewBox="144 144 512 512" xmlns="http://www.w3.org/2000/svg">
 <g>
  <path d="m400.06 364.19c45.59 0 82.551-36.961 82.551-82.543 0-45.59-36.961-82.543-82.551-82.543-45.586 0-82.539 36.953-82.539 82.543 0 45.586 36.957 82.543 82.539 82.543zm-24.266-120.76c3.8281-5.1172 9.418-8.207 16.707-9.3242v-6.6094c0-4.1719 3.3789-7.5586 7.5586-7.5586 4.1758 0 7.5586 3.3867 7.5586 7.5586v7.0469c6.0547 1.3672 11.07 4.2734 14.641 8.957 3.2539 4.2617 5.5859 11.441 4.9961 15.73-0.13281 0.94531-1.1484 6.1953-7.7539 6.1953-6.6055 0-7.0625-5.5156-7.0625-5.5156-0.38672-3.3516-0.84766-4.7656-2.2617-6.6992-2.5781-3.3438-6.5352-4.3281-12.332-4.3281-3.4141 0-6.2812 0.74609-8.6055 2.2383-2.832 1.8594-3.8789 4.5898-4.2578 8.1406-0.99609 9.3086 8.4102 12.656 10.727 13.402l15.078 4.9766c16.797 5.7773 19.441 16.973 19.441 24.262 0 9.8477-6.1836 25.297-22.609 28.648v8.1172c0 4.1719-3.3789 7.5586-7.5586 7.5586-4.1758 0-7.5586-3.3867-7.5586-7.5586v-8.0859c-5.3164-1.0547-11.875-3.7773-17.289-10.934-3.7969-4.9766-4.8516-10.105-4.8516-17.398 0 0 0.55859-5.75 7.7344-5.75 7.1641 0 7.0625 5.75 7.0625 5.75 0 11.008 8.6523 13.688 14.711 13.688 13.043 0 15.574-7.9297 15.566-12.02-0.023438-10.555-8.7656-12.305-13.34-13.426 0 0-24.5-4.3008-29.641-17.758-5.9453-15.594-0.13672-24.617 3.3398-29.305z"/>
  <path d="m220.52 480.81c1.8984 2.5938 4.9219 4.125 8.1328 4.125 3.2109 0 6.2305-1.5352 8.1328-4.125l11.035-15.086c2.2422-3.0586 2.5703-7.125 0.85156-10.508-1.7188-3.3867-5.1875-5.5156-8.9883-5.5156h-1.2734c12.977-27.977 81.352-31.488 134.09-31.488 7.9648 0 14.68-1.5664 20.133-4.6016v36.086h-3.4805c-3.793 0-7.2695 2.1328-8.9883 5.5156-1.7188 3.3867-1.3867 7.4531 0.85547 10.516l11.039 15.086c1.8945 2.5938 4.918 4.1211 8.1328 4.1211s6.2383-1.5352 8.1328-4.125l11.035-15.086c2.2422-3.0586 2.5703-7.125 0.85156-10.508-1.7188-3.3867-5.1875-5.5156-8.9883-5.5156h-3.4766v-36.008c5.4297 2.9883 12.102 4.5195 20.008 4.5195 52.738 0 121.11 3.5117 134.09 31.488h-1.2812c-3.793 0-7.2656 2.1328-8.9844 5.5156-1.7188 3.3867-1.3906 7.4453 0.85156 10.508l11.027 15.086c1.8945 2.5938 4.918 4.125 8.1328 4.125s6.2305-1.5312 8.1328-4.1211l11.039-15.086c2.2422-3.0625 2.5742-7.1289 0.85547-10.516-1.7188-3.3867-5.1875-5.5156-8.9883-5.5156h-4.6758c-9.8242-40.773-80.715-46.602-150.21-46.602-7.5234 0-12.973-1.7891-16.207-5.332-4.2812-4.6797-3.793-11.477-3.7734-11.742 0.41797-4.1211-2.5703-7.8203-6.6953-8.2734-0.58594-0.058594-1.1523-0.039063-1.7148 0.03125-0.035157 0.003906-0.070313-0.003906-0.10547 0-4.1211 0.41406-7.1445 4.1055-6.7773 8.2383 0.003906 0.070313 0.57422 7.0039-3.7734 11.75-3.2344 3.5352-8.6875 5.332-16.207 5.332-69.492 0-140.38 5.8281-150.21 46.602h-4.6641c-3.793 0-7.2695 2.1328-8.9883 5.5156-1.7188 3.3867-1.3867 7.4531 0.85156 10.508z"/>
  <path d="m228.66 497.67c-28.215 0-51.082 22.871-51.082 51.082 0 28.215 22.871 51.086 51.082 51.086 28.207 0 51.082-22.871 51.082-51.086 0-28.207-22.871-51.082-51.082-51.082zm-35.027 44.438c0-8.7148 7.0938-15.816 15.816-15.816 8.7227 0 15.82 7.0938 15.82 15.816 0 3.0586-2.4844 5.543-5.543 5.543s-5.543-2.4805-5.543-5.543c0-2.6094-2.1211-4.7305-4.7305-4.7305s-4.7266 2.125-4.7266 4.7305c0 3.0586-2.4844 5.543-5.543 5.543-3.0586-0.003906-5.5508-2.4844-5.5508-5.543zm60.426 23.449c-4.125 10.523-14.098 17.32-25.402 17.32-10.988 0-20.852-6.5391-25.137-16.668-1.1875-2.8203 0.125-6.0703 2.9492-7.2617 2.8164-1.1992 6.0703 0.125 7.2617 2.9414 2.543 6.0156 8.3984 9.9062 14.922 9.9062 6.7109 0 12.629-4.0391 15.086-10.289 1.1133-2.8477 4.3242-4.2578 7.1836-3.1406 2.8516 1.1328 4.2539 4.3477 3.1367 7.1914zm4.4102-17.91c-3.0586 0-5.543-2.4805-5.543-5.543 0-2.6094-2.1211-4.7305-4.7305-4.7305s-4.7305 2.125-4.7305 4.7305c0 3.0586-2.4844 5.543-5.543 5.543-3.0586 0-5.543-2.4805-5.543-5.543 0-8.7148 7.0938-15.816 15.816-15.816s15.816 7.0938 15.816 15.816c-0.003906 3.0625-2.4805 5.543-5.543 5.543z"/>
  <path d="m400.06 497.67c-28.215 0-51.082 22.871-51.082 51.082 0 28.215 22.867 51.086 51.082 51.086s51.082-22.871 51.082-51.086c-0.003906-28.207-22.871-51.082-51.082-51.082zm-35.027 44.438c0-8.7148 7.0938-15.816 15.809-15.816 8.7227 0 15.82 7.0938 15.82 15.816 0 3.0586-2.4844 5.543-5.543 5.543s-5.543-2.4805-5.543-5.543c0-2.6094-2.1211-4.7305-4.7344-4.7305-2.6055 0-4.7266 2.125-4.7266 4.7305 0 3.0586-2.4844 5.543-5.543 5.543-3.0547-0.003906-5.5391-2.4844-5.5391-5.543zm60.43 23.449c-4.1211 10.523-14.09 17.32-25.402 17.32-10.984 0-20.852-6.5391-25.137-16.668-1.1953-2.8203 0.12109-6.0703 2.9414-7.2617 2.8125-1.1953 6.0703 0.12109 7.2617 2.9414 2.5508 6.0156 8.4102 9.9062 14.934 9.9062 6.7148 0 12.629-4.0391 15.078-10.289 1.1172-2.8477 4.3281-4.2578 7.1836-3.1406 2.8516 1.1289 4.2539 4.3477 3.1406 7.1914zm4.4102-17.91c-3.0586 0-5.543-2.4805-5.543-5.543 0-2.6094-2.1211-4.7305-4.7305-4.7305-2.6055 0-4.7266 2.125-4.7266 4.7305 0 3.0586-2.4844 5.543-5.543 5.543-3.0586 0-5.543-2.4805-5.543-5.543 0-8.7148 7.0938-15.816 15.809-15.816 8.7227 0 15.816 7.0938 15.816 15.816 0.003907 3.0625-2.4805 5.543-5.5391 5.543z"/>
  <path d="m571.6 497.67c-28.215 0-51.086 22.871-51.086 51.082 0 28.215 22.871 51.086 51.086 51.086 28.207 0 51.082-22.871 51.082-51.086-0.007813-28.207-22.879-51.082-51.082-51.082zm-35.031 44.438c0-8.7148 7.0938-15.816 15.809-15.816 8.7227 0 15.82 7.0938 15.82 15.816 0 3.0586-2.4844 5.543-5.543 5.543s-5.543-2.4805-5.543-5.543c0-2.6094-2.1211-4.7305-4.7344-4.7305-2.6055 0-4.7266 2.125-4.7266 4.7305 0 3.0586-2.4844 5.543-5.543 5.543-3.0547-0.003906-5.5391-2.4844-5.5391-5.543zm60.43 23.449c-4.1211 10.523-14.09 17.32-25.402 17.32-10.988 0-20.852-6.5391-25.137-16.668-1.1875-2.8203 0.125-6.0703 2.9492-7.2617 2.8164-1.1992 6.0703 0.125 7.2617 2.9414 2.543 6.0156 8.3984 9.9062 14.922 9.9062 6.7148 0 12.629-4.0391 15.078-10.289 1.1172-2.8477 4.3281-4.2578 7.1836-3.1406 2.8516 1.1289 4.2578 4.3477 3.1445 7.1914zm4.4102-17.91c-3.0586 0-5.543-2.4805-5.543-5.543 0-2.6094-2.1211-4.7305-4.7305-4.7305-2.6094 0.003906-4.7305 2.125-4.7305 4.7344 0 3.0586-2.4844 5.543-5.543 5.543-3.0586 0-5.543-2.4805-5.543-5.543 0-8.7148 7.0938-15.816 15.816-15.816 8.7227 0 15.816 7.0938 15.816 15.816 0 3.0586-2.4844 5.5391-5.543 5.5391z"/>
 </g>
</svg>