<?xml version="1.0" encoding="UTF-8"?>
<!-- The Best Svg Icon site in the world: iconSvg.co, Visit us! https://iconsvg.co -->
<svg fill="#000000" width="800px" height="800px" version="1.1" viewBox="144 144 512 512" xmlns="http://www.w3.org/2000/svg">
 <path d="m355.08 348.99h-16.375v-33.121h-10.078v33.121h-16.375c-2.7852 0-5.0391 2.2578-5.0391 5.0391v91.945c0 2.7812 2.2539 5.0391 5.0391 5.0391h16.375v29.438h10.078v-29.438h16.375c2.7852 0 5.0391-2.2578 5.0391-5.0391v-91.945c0-2.7812-2.2539-5.0391-5.0391-5.0391zm-5.0391 91.945h-32.75v-81.867h32.746zm137.7-91.945h-16.375v-30.816h-10.078v30.816h-16.375c-2.7852 0-5.0391 2.2578-5.0391 5.0391v91.945c0 2.7812 2.2539 5.0391 5.0391 5.0391h16.375v31.738h10.078v-31.738h16.375c2.7852 0 5.0391-2.2578 5.0391-5.0391v-91.945c0-2.7812-2.2539-5.0391-5.0391-5.0391zm-5.0391 91.945h-32.746v-81.867h32.746zm-62.129-126.42h-16.375v-52.539h-10.078v52.543h-16.375c-2.7852 0-5.0391 2.2578-5.0391 5.0391v160.89c0 2.7812 2.2539 5.0391 5.0391 5.0391h16.375v52.543h10.078v-52.547h16.375c2.7852 0 5.0391-2.2578 5.0391-5.0391v-160.89c0-2.7812-2.2539-5.0391-5.0391-5.0391zm-5.0391 160.89h-32.75l0.003906-150.81h32.75z"/>
</svg>