<?xml version="1.0" encoding="UTF-8"?>
<!-- The Best Svg Icon site in the world: iconSvg.co, Visit us! https://iconsvg.co -->
<svg fill="#000000" width="800px" height="800px" version="1.1" viewBox="144 144 512 512" xmlns="http://www.w3.org/2000/svg">
 <g>
  <path d="m617.05 365.1c-0.83594-5.1797-4.8281-9.2812-9.9844-10.258l-38.152-7.2383c-2.4805-0.40234-4.5508-2.1211-5.4023-4.4883-2.1914-6.3359-4.7773-12.531-7.7422-18.547-1.0469-2.2188-0.81641-4.8242 0.59766-6.8281l21.984-32.199v0.003907c2.9336-4.3438 2.8789-10.051-0.13672-14.336-13.766-18.992-30.461-35.676-49.465-49.418-4.2695-3.0195-9.9648-3.0742-14.293-0.14062l-32.199 21.984h0.003906c-2.0156 1.3867-4.6133 1.5938-6.8242 0.55078-6.0195-2.9414-12.215-5.5117-18.551-7.6953-2.3516-0.83203-4.082-2.8555-4.5352-5.3125l-7.2344-38.242c-0.95703-5.1602-5.0391-9.1719-10.215-10.031-23.137-3.6641-46.707-3.6641-69.848 0-5.1758 0.85938-9.2578 4.8711-10.211 10.031l-7.2383 38.242c-0.50391 2.6836-2.5234 4.832-5.1758 5.4961-6.1523 1.5742-12.043 4.0273-17.496 7.2812-2.2773 1.2773-5.0781 1.1562-7.2344-0.32031l-32.152-21.984c-4.3359-2.957-10.059-2.9023-14.336 0.14062-19 13.734-35.684 30.418-49.418 49.418-3.0664 4.2695-3.1211 10.008-0.14062 14.336l21.938 32.152h0.003906c1.3789 2.0312 1.5859 4.6406 0.54688 6.8711-2.9102 6.0078-5.4648 12.188-7.6484 18.5-0.85938 2.3711-2.918 4.1016-5.4023 4.5352l-38.152 7.2383c-5.168 0.97266-9.1758 5.0703-10.031 10.258-3.6641 23.125-3.6641 46.68 0 69.801 0.82812 5.2031 4.8477 9.3164 10.031 10.258l38.152 7.2383c2.4688 0.46484 4.5156 2.1836 5.4023 4.5352 2.1836 6.3125 4.7383 12.492 7.6484 18.504 1.043 2.2266 0.83203 4.8359-0.54688 6.8672l-21.938 32.152h-0.003906c-2.9805 4.332-2.9258 10.066 0.14062 14.336 13.707 19.023 30.395 35.711 49.418 49.422 4.2695 3.0625 10.008 3.1172 14.336 0.13672l32.152-21.938c2.0078-1.4062 4.6172-1.6172 6.8242-0.55078 6.0234 2.918 12.219 5.4727 18.547 7.6484 2.3594 0.875 4.082 2.9297 4.5352 5.4023l7.2383 38.152c0.95312 5.1602 5.0352 9.1719 10.211 10.031 23.141 3.6641 46.711 3.6641 69.848 0 5.1758-0.85938 9.2578-4.8711 10.215-10.031l7.2383-38.152h-0.003906c0.43359-2.4805 2.1641-4.543 4.5352-5.4023 6.3242-2.1758 12.504-4.7461 18.504-7.6953 2.2344-1.0273 4.8477-0.80078 6.8711 0.59766l32.199 21.938h-0.003906c4.3164 2.9805 10.035 2.9258 14.293-0.13672 19.016-13.734 35.711-30.418 49.465-49.422 3.0156-4.2852 3.0703-9.9922 0.13672-14.336l-21.984-32.152c-1.3945-2.0078-1.6211-4.6016-0.59766-6.8242 2.9492-6.0234 5.5312-12.215 7.7422-18.547 0.83203-2.3906 2.9062-4.1289 5.4023-4.5352l38.152-7.2383c5.1719-0.94922 9.1758-5.0625 9.9844-10.258 3.7266-23.117 3.7266-46.684 0-69.801zm-94.531 34.945c-0.085937 32.262-12.859 63.195-35.559 86.121-22.703 22.922-53.508 35.996-85.77 36.398h-1.1875c-43.789 0-84.25-23.359-106.14-61.281s-21.895-84.645 0-122.56c21.895-37.922 62.355-61.285 106.14-61.285h1.1445c32.277 0.40625 63.102 13.492 85.809 36.434 22.711 22.941 35.484 53.898 35.562 86.176z"/>
  <path d="m377.86 378.14c-0.16797 3.6523 1.5508 7.1367 4.5469 9.2305 4.0898 2.6367 8.6172 4.5234 13.371 5.5703v-29.867c-4.7148 0.44531-9.2188 2.1562-13.035 4.9531-3.1641 2.3867-4.9844 6.1523-4.8828 10.113z"/>
  <path d="m418.38 413.23c-4.5117-2.457-9.332-4.3086-14.332-5.4961v29.184c12.773-0.91797 19.16-6.0742 19.148-15.477h0.003906c0.058594-3.4219-1.8008-6.5938-4.8203-8.2109z"/>
  <path d="m399.95 303.59c-25.566 0.015624-50.078 10.18-68.148 28.262-18.07 18.082-28.223 42.602-28.219 68.168 0.003906 25.562 10.164 50.078 28.238 68.156 18.078 18.074 42.594 28.234 68.16 28.238 25.562 0.003906 50.082-10.145 68.164-28.219 18.082-18.07 28.25-42.582 28.262-68.148-0.023437-25.574-10.195-50.094-28.277-68.18-18.086-18.082-42.605-28.254-68.18-28.277zm31.602 131.7v0.003907c-2.7539 4.0391-6.5508 7.25-10.992 9.293-5.1758 2.418-10.781 3.7773-16.488 4.0078v9.6172c0.039062 1.0898-0.375 2.1445-1.1445 2.918-1.6914 1.4961-4.2266 1.5273-5.9531 0.074219-0.78906-0.78906-1.207-1.8789-1.1523-2.9922v-9.6172c-9.4336-0.55469-18.707-2.7109-27.418-6.3789-1.1055-0.46484-2.0508-1.2461-2.7188-2.2422-1.6055-2.2383-1.4141-5.3047 0.46094-7.3281 1.0195-1.125 2.4805-1.7461 3.9961-1.6992 0.89062-0.003906 1.7734 0.17969 2.5859 0.54688 7.2812 3.2422 15.113 5.082 23.078 5.4258v-31.223c-5.3164-1.3398-10.516-3.1094-15.547-5.2891-4.1055-1.8125-7.7188-4.5859-10.531-8.082-2.9102-3.7852-4.3984-8.4648-4.2109-13.234-0.035156-4.5742 1.1602-9.0742 3.457-13.031 2.4922-4.1641 6.0586-7.5859 10.32-9.9102 5.0781-2.7734 10.711-4.3984 16.488-4.75v-9.5078c-0.023437-1.1055 0.38672-2.1758 1.1484-2.9805 0.75781-0.80859 1.8242-1.25 2.9258-1.2188 1.1172-0.011718 2.1914 0.42578 2.9805 1.2188 0.79297 0.78906 1.2305 1.8633 1.2148 2.9805v9.3711c8.0703 0.20703 16.051 1.7188 23.637 4.4805 2.3828 0.69531 3.9609 2.9492 3.8008 5.4258-0.003907 1.4531-0.53125 2.8516-1.4922 3.9375-0.97656 1.1641-2.4297 1.8164-3.9453 1.7656-0.75-0.046875-1.4844-0.23047-2.168-0.53906-6.3867-2.2148-13.074-3.4492-19.832-3.6641v32.293c5.5391 1.2344 10.965 2.918 16.23 5.0391 4.2109 1.75 7.9219 4.5234 10.789 8.0742 3.0586 4.082 4.5938 9.1016 4.3438 14.195 0.042969 4.6328-1.3047 9.168-3.8672 13.023z"/>
 </g>
</svg>