<?xml version="1.0" encoding="UTF-8"?>
<!-- The Best Svg Icon site in the world: iconSvg.co, Visit us! https://iconsvg.co -->
<svg fill="#000000" width="800px" height="800px" version="1.1" viewBox="144 144 512 512" xmlns="http://www.w3.org/2000/svg">
 <g>
  <path d="m179.58 478.72h62.977v141.7h-62.977z"/>
  <path d="m289.79 591.92 17.16 8.582h0.003906c5.4688 2.7539 11.508 4.1836 17.633 4.1719h117.84c6.9102 0.003906 13.699-1.8125 19.68-5.2734l132.25-76.359c3.5938-2.1055 6.2109-5.5469 7.2734-9.5742s0.48438-8.3125-1.6055-11.918c-2.125-3.5469-5.5469-6.1328-9.543-7.2031-3.9961-1.0742-8.2539-0.55078-11.871 1.457l-79.27 45.738c0.30078 3.5625 0.007812 7.1562-0.86719 10.625-2.1484 8.0898-7.4531 14.98-14.719 19.129-4.75 2.793-10.16 4.2578-15.668 4.25-2.7617-0.011719-5.5156-0.38281-8.1836-1.1016l-93.914-25.109c-4.2188-1.1328-6.7188-5.4648-5.5898-9.6836s5.4648-6.7188 9.6836-5.5898l93.914 25.191c4.0117 1.1094 8.3008 0.53906 11.887-1.5742 3.6406-2.0625 6.3086-5.4961 7.4062-9.5352 1.0977-4.043 0.53125-8.3516-1.5703-11.973-2.1016-3.6211-5.5625-6.2539-9.6172-7.3047l-117.45-31.488c-6.4648-1.7461-13.27-1.7969-19.758-0.15625l-45.109 11.258z"/>
  <path d="m258.3 494.46h15.742v110.21h-15.742z"/>
  <path d="m486.75 220.83-34.641 68.957h69.039z"/>
  <path d="m439.36 280.03 34.637-68.957h-68.961z"/>
  <path d="m449.43 305.54 37.156 148.62 37.156-148.62z"/>
  <path d="m568.46 211.07h-68.961l34.324 68.957z"/>
  <path d="m426.68 289.79-34.398-68.957-34.637 68.957z"/>
  <path d="m539.96 305.54-36.371 145.47 108.95-145.47z"/>
  <path d="m581.21 220.83-34.637 68.957h69.039z"/>
  <path d="m433.22 305.54h-72.582l108.79 144.84z"/>
 </g>
</svg>