<?xml version="1.0" encoding="UTF-8"?>
<!-- The Best Svg Icon site in the world: iconSvg.co, Visit us! https://iconsvg.co -->
<svg fill="#000000" width="800px" height="800px" version="1.1" viewBox="144 144 512 512" xmlns="http://www.w3.org/2000/svg">
 <g>
  <path d="m258.3 494.46h15.742v110.21h-15.742z"/>
  <path d="m387.4 545.39c-2.6016-4.4805-3.6367-9.6992-2.9375-14.832 0.69922-5.1328 3.0898-9.8867 6.7969-13.508 1.2109-1.1992 2.5586-2.2578 4.0117-3.1484-0.41406-0.71094-0.78125-1.4453-1.1016-2.2031-3.8984-0.36328-7.625-1.7773-10.785-4.0938l-14.168-10.629-10.863 10.941v0.003906c-3.0859 3.0859-8.0898 3.0859-11.18 0-3.0859-3.0898-3.0859-8.0938 0-11.18l10.941-10.941h0.003906c2.6953-2.6758 6.2695-4.2812 10.059-4.5273 3.793-0.24609 7.543 0.88672 10.562 3.1875l14.09 10.547 0.003907 0.003906c1.4609 1.1016 3.3438 1.4766 5.1172 1.0234 2.7461-0.69531 4.6836-3.1523 4.7227-5.9844 0.015625-0.29297-0.011719-0.58203-0.078125-0.86719-0.24609-1.6289-1.125-3.1016-2.4414-4.0938l-33.219-23.773c-3.1719-2.168-7.4375-1.7695-10.156 0.94531l-49.594 42.273c-4.2617 3.6836-9.7148 5.6992-15.352 5.668h-2.0469v81.711l20.469 10.234c3.2734 1.6445 6.8828 2.5078 10.547 2.5195h49.121c-0.91406-2.5234-1.3945-5.1875-1.4141-7.8711-0.023438-6.3086 2.5039-12.352 7.0039-16.77 1.2148-1.1992 2.5586-2.2578 4.0156-3.1484-2.6016-4.4805-3.6367-9.6992-2.9375-14.832 0.69922-5.1328 3.0898-9.8867 6.793-13.508 1.2148-1.1992 2.5625-2.2578 4.0156-3.1484z"/>
  <path d="m179.58 478.72h62.977v141.7h-62.977z"/>
  <path d="m400 557.44c-2.0508-0.035156-4.0234 0.79297-5.4336 2.2852-1.5703 1.4297-2.457 3.4648-2.4414 5.5898 0 2.0859 0.83203 4.0898 2.3086 5.5664 1.4766 1.4766 3.4766 2.3047 5.5664 2.3047h31.488c2.0508 0.035156 4.0195-0.79297 5.4297-2.2852 1.5703-1.4297 2.4609-3.4609 2.4414-5.5859 0-2.0898-0.83203-4.0898-2.3047-5.5664-1.4766-1.4766-3.4805-2.3086-5.5664-2.3086z"/>
  <path d="m407.87 525.95c-2.0508-0.035157-4.0234 0.79297-5.4336 2.2852-1.5703 1.4297-2.457 3.4648-2.4375 5.5898 0 2.0859 0.82812 4.0898 2.3047 5.5664 1.4766 1.4766 3.4766 2.3047 5.5664 2.3047h31.488c2.0508 0.035157 4.0195-0.79297 5.4297-2.2852 1.5742-1.4297 2.4609-3.4609 2.4414-5.5859 0-2.0898-0.82812-4.0898-2.3047-5.5664-1.4766-1.4766-3.4805-2.3086-5.5664-2.3086z"/>
  <path d="m392.12 588.93c-2.0508-0.035156-4.0195 0.79297-5.4297 2.2852-1.5703 1.4297-2.4609 3.4609-2.4414 5.5898 0 2.0859 0.82812 4.0898 2.3047 5.5664 1.4766 1.4727 3.4805 2.3047 5.5664 2.3047h31.488c2.0508 0.035156 4.0234-0.79297 5.4336-2.2852 1.5703-1.4297 2.457-3.4609 2.4414-5.5859 0-2.0898-0.83203-4.0898-2.3086-5.5664-1.4766-1.4766-3.4766-2.3086-5.5664-2.3086z"/>
  <path d="m414.64 502.34c-1.2852 1.9531-2.9102 3.6602-4.8008 5.0352 1.4492 1.7734 3.6133 2.8086 5.9023 2.8359h31.488c2.0508 0.035157 4.0234-0.79297 5.4336-2.2812 1.5703-1.4336 2.457-3.4648 2.4375-5.5898 0-2.0898-0.82812-4.0898-2.3047-5.5664-1.4766-1.4766-3.4766-2.3086-5.5664-2.3086h-29.285c-0.53516 2.8281-1.6602 5.5117-3.3047 7.875z"/>
  <path d="m557.44 392.12v-7.8711c-6.2617 0-12.27-2.4883-16.699-6.918-4.4258-4.4258-6.9141-10.434-6.9141-16.699 0-4.3477 3.5234-7.8711 7.8711-7.8711 4.3477 0 7.8711 3.5234 7.8711 7.8711 0 2.0898 0.82812 4.0898 2.3047 5.5664 1.4766 1.4766 3.4805 2.3086 5.5664 2.3086h15.746c4.3477 0 7.8711-3.5273 7.8711-7.875 0-4.3477-3.5234-7.8711-7.8711-7.8711h-15.746c-8.4375 0-16.23-4.5-20.449-11.809-4.2188-7.3047-4.2188-16.309 0-23.613 4.2188-7.3086 12.012-11.809 20.449-11.809v-7.8711c0-4.3477 3.5273-7.875 7.875-7.875-19.688 0-37.879 10.504-47.723 27.555-9.8438 17.047-9.8438 38.055 0 55.102 9.8438 17.051 28.035 27.555 47.723 27.555-4.3477 0-7.875-3.5273-7.875-7.875z"/>
  <path d="m565.31 289.79c2.0859 0 4.0898 0.83203 5.5664 2.3086 1.4766 1.4727 2.3047 3.4766 2.3047 5.5664v7.8711c6.2617 0 12.27 2.4883 16.699 6.918 4.4297 4.4258 6.918 10.434 6.918 16.695 0 4.3477-3.5273 7.875-7.875 7.875-4.3477 0-7.8711-3.5273-7.8711-7.875 0-2.0859-0.82813-4.0898-2.3047-5.5664-1.4766-1.4727-3.4805-2.3047-5.5664-2.3047h-15.746c-4.3477 0-7.8711 3.5234-7.8711 7.8711 0 4.3477 3.5234 7.875 7.8711 7.875h15.746c8.4375 0 16.234 4.5 20.453 11.809 4.2188 7.3047 4.2188 16.309 0 23.613-4.2188 7.3086-12.016 11.809-20.453 11.809v7.8711c0 2.0898-0.82812 4.0898-2.3047 5.5664-1.4766 1.4766-3.4805 2.3086-5.5664 2.3086 19.684 0 37.875-10.504 47.719-27.555 9.8438-17.047 9.8438-38.055 0-55.102-9.8438-17.051-28.035-27.555-47.719-27.555z"/>
  <path d="m565.31 415.74c-2.6328-0.007813-5.2617-0.16406-7.875-0.46484v0.46484c0 2.0898-0.82812 4.0898-2.3047 5.5664-1.4766 1.4766-3.4766 2.3047-5.5664 2.3047h-67.07c-9.7148 0.023438-19.254 2.6016-27.652 7.4805-8.4023 4.8789-15.371 11.883-20.207 20.309l-3.1484 5.5117v-73.289c-0.015625-7.1797 3.2617-13.969 8.8945-18.422l15.664-12.594c9.3828-7.4219 14.84-18.738 14.801-30.703v-16.836c-5.2305 0.61719-10.516 0.61719-15.746 0v16.836c0.015626 7.1797-3.2617 13.969-8.8945 18.422l-15.664 12.594c-9.3828 7.4219-14.84 18.742-14.801 30.703v69.59l-12.754-25.504v-0.003907c-8.3867-16.848-23.148-29.652-41.012-35.582l-13.777-4.5664v0.003906c-7.8398-2.5977-14.664-7.6016-19.5-14.301-4.832-6.6992-7.4297-14.754-7.4219-23.016v-13.688c-5.2305 0.61719-10.512 0.61719-15.742 0v13.688c0.003906 11.57 3.6445 22.844 10.414 32.223 6.7656 9.3828 16.316 16.398 27.293 20.047l13.777 4.5664h-0.003906c13.879 4.6055 25.352 14.551 31.883 27.633l22.906 44.004h25.348l11.18-19.523c7.0312-12.238 20.051-19.801 34.164-19.836h67.07c6.2578-0.019531 12.254-2.5117 16.68-6.9375 4.4258-4.4258 6.918-10.422 6.9375-16.68v-0.46484c-2.6133 0.30078-5.2422 0.45703-7.8711 0.46484z"/>
  <path d="m455.1 281.92v-7.8711c-6.2617 0-12.27-2.4883-16.699-6.918-4.4258-4.4297-6.9141-10.434-6.9141-16.699 0-4.3477 3.5234-7.8711 7.8711-7.8711s7.8711 3.5234 7.8711 7.8711c0 2.0898 0.82812 4.0898 2.3047 5.5664 1.4766 1.4766 3.4805 2.3047 5.5664 2.3047h15.746c4.3477 0 7.8711-3.5234 7.8711-7.8711 0-4.3477-3.5234-7.8711-7.8711-7.8711h-15.746c-8.4375 0-16.23-4.5-20.449-11.809s-4.2188-16.309 0-23.617c4.2188-7.3047 12.012-11.809 20.449-11.809v-7.8711c0-4.3477 3.5273-7.8711 7.875-7.8711-19.688 0-37.879 10.504-47.723 27.551-9.8438 17.051-9.8438 38.055 0 55.105s28.035 27.551 47.723 27.551c-4.3477 0-7.875-3.5234-7.875-7.8711z"/>
  <path d="m470.85 187.45v7.8711c6.2617 0 12.27 2.4883 16.699 6.918 4.4297 4.4297 6.9141 10.438 6.9141 16.699 0 4.3477-3.5234 7.8711-7.8711 7.8711s-7.8711-3.5234-7.8711-7.8711c0-2.0859-0.82812-4.0898-2.3047-5.5664-1.4766-1.4766-3.4805-2.3047-5.5664-2.3047h-15.746c-4.3477 0-7.8711 3.5234-7.8711 7.8711s3.5234 7.8711 7.8711 7.8711h15.746c8.4375 0 16.234 4.5039 20.453 11.809 4.2148 7.3086 4.2148 16.309 0 23.617-4.2188 7.3086-12.016 11.809-20.453 11.809v7.8711c0 2.0898-0.83203 4.0898-2.3047 5.5664-1.4766 1.4766-3.4805 2.3047-5.5664 2.3047 19.684 0 37.875-10.5 47.719-27.551s9.8438-38.055 0-55.105c-9.8438-17.047-28.035-27.551-47.719-27.551 2.0859 0 4.0898 0.82812 5.5664 2.3047 1.4727 1.4766 2.3047 3.4805 2.3047 5.5664z"/>
  <path d="m313.41 211.07c2.0859 0 4.0898 0.82813 5.5664 2.3047 1.4766 1.4766 2.3047 3.4805 2.3047 5.5664v7.8711c6.2656 0 12.27 2.4883 16.699 6.918 4.4297 4.4297 6.918 10.438 6.918 16.699 0 4.3477-3.5234 7.8711-7.8711 7.8711-4.3477 0-7.875-3.5234-7.875-7.8711 0-2.0859-0.82813-4.0898-2.3047-5.5664-1.4766-1.4766-3.4766-2.3047-5.5664-2.3047h-15.742c-4.3477 0-7.8711 3.5234-7.8711 7.8711 0 4.3477 3.5234 7.8711 7.8711 7.8711h15.742c8.4375 0 16.234 4.5039 20.453 11.809 4.2188 7.3086 4.2188 16.309 0 23.617-4.2188 7.3047-12.016 11.809-20.453 11.809v7.8711c0 2.0859-0.82812 4.0898-2.3047 5.5664-1.4766 1.4766-3.4805 2.3047-5.5664 2.3047 19.688 0 37.879-10.5 47.723-27.551 9.8438-17.051 9.8438-38.055 0-55.105-9.8438-17.047-28.035-27.551-47.723-27.551z"/>
  <path d="m305.54 313.41v-7.8711c-6.2656 0-12.27-2.4883-16.699-6.918-4.4297-4.4297-6.918-10.438-6.918-16.699 0-4.3477 3.5234-7.8711 7.8711-7.8711 4.3477 0 7.875 3.5234 7.875 7.8711 0 2.0898 0.82813 4.0898 2.3047 5.5664s3.4766 2.3047 5.5664 2.3047h15.742c4.3477 0 7.8711-3.5234 7.8711-7.8711 0-4.3477-3.5234-7.8711-7.8711-7.8711h-15.742c-8.4375 0-16.234-4.5-20.453-11.809-4.2188-7.3086-4.2188-16.309 0-23.617 4.2188-7.3047 12.016-11.809 20.453-11.809v-7.8711c0-4.3477 3.5234-7.8711 7.8711-7.8711-19.688 0-37.879 10.504-47.723 27.551-9.8438 17.051-9.8438 38.055 0 55.105 9.8438 17.051 28.035 27.551 47.723 27.551-4.3477 0-7.8711-3.5234-7.8711-7.8711z"/>
 </g>
</svg>