<?xml version="1.0" encoding="UTF-8"?>
<!-- The Best Svg Icon site in the world: iconSvg.co, Visit us! https://iconsvg.co -->
<svg fill="#000000" width="800px" height="800px" version="1.1" viewBox="144 144 512 512" xmlns="http://www.w3.org/2000/svg">
 <g>
  <path d="m392.12 313.81v-134.03c-52.969 1.8633-103.48 22.82-142.21 59.004l94.715 94.715c13.461-11.246 30.035-18.113 47.5-19.688z"/>
  <path d="m392.12 620.22v-134.03c-20.141-1.8633-38.996-10.711-53.301-25.016-14.305-14.305-23.152-33.16-25.016-53.301h-134.03c2.0547 55.664 25.086 108.49 64.473 147.88 39.387 39.387 92.215 62.418 147.88 64.473z"/>
  <path d="m333.5 344.62-94.715-94.715c-36.184 38.734-57.141 89.246-59.004 142.21h134.03c1.5742-17.465 8.4414-34.039 19.688-47.5z"/>
  <path d="m407.87 337.02v8.9883c6.7383 1.7422 12.711 5.6641 16.984 11.16 4.2734 5.4961 6.6055 12.25 6.6328 19.211 0 4.3477-3.5273 7.8711-7.875 7.8711-4.3477 0-7.8711-3.5234-7.8711-7.8711 0-4.1758-1.6602-8.1797-4.6094-11.133-2.9531-2.9531-6.957-4.6133-11.133-4.6133s-8.1797 1.6602-11.133 4.6133c-2.9531 2.9531-4.6133 6.957-4.6133 11.133 0 4.1758 1.6602 8.1797 4.6133 11.133 2.9531 2.9531 6.957 4.6094 11.133 4.6094 10.293-0.011719 19.941 5.0195 25.824 13.465 5.8828 8.4492 7.2578 19.242 3.6758 28.891-3.5781 9.6523-11.66 16.938-21.629 19.504v8.9922c0 2.0859-0.82812 4.0898-2.3047 5.5664-1.4766 1.4727-3.4805 2.3047-5.5664 2.3047 25.309 0 48.699-13.504 61.355-35.426 12.656-21.918 12.656-48.926 0-70.848s-36.047-35.426-61.355-35.426c2.0859 0 4.0898 0.83203 5.5664 2.3086 1.4766 1.4766 2.3047 3.4766 2.3047 5.5664z"/>
  <path d="m407.87 486.19v134.03c55.664-2.0547 108.49-25.086 147.88-64.473 39.387-39.387 62.418-92.211 64.473-147.88h-134.03c-1.8633 20.141-10.711 38.996-25.016 53.301s-33.16 23.152-53.301 25.016z"/>
  <path d="m486.19 392.12h134.03c-2.0547-55.66-25.086-108.49-64.473-147.88-39.387-39.387-92.211-62.418-147.88-64.473v134.03c20.141 1.8633 38.996 10.711 53.301 25.016 14.305 14.305 23.152 33.16 25.016 53.301z"/>
  <path d="m329.15 400c0.023437 18.781 7.4961 36.789 20.777 50.07s31.289 20.754 50.074 20.777c-4.3477 0-7.875-3.5234-7.875-7.8711v-8.9922c-6.7383-1.7383-12.711-5.6641-16.984-11.16-4.2734-5.4922-6.6055-12.25-6.6289-19.211 0-4.3477 3.5234-7.8711 7.8711-7.8711 4.3477 0 7.8711 3.5234 7.8711 7.8711 0 4.1758 1.6602 8.1797 4.6133 11.133 2.9531 2.9531 6.957 4.6133 11.133 4.6133s8.1797-1.6602 11.133-4.6133c2.9492-2.9531 4.6094-6.957 4.6094-11.133s-1.6602-8.1797-4.6094-11.133c-2.9531-2.9531-6.957-4.6094-11.133-4.6094-10.297 0.011718-19.941-5.0156-25.828-13.465-5.8828-8.4453-7.2578-19.238-3.6758-28.891 3.582-9.6523 11.66-16.938 21.629-19.504v-8.9883c0-4.3477 3.5273-7.875 7.875-7.875-18.785 0.023437-36.793 7.4961-50.074 20.777s-20.754 31.289-20.777 50.074z"/>
 </g>
</svg>