<?xml version="1.0" encoding="UTF-8"?>
<!-- The Best Svg Icon site in the world: iconSvg.co, Visit us! https://iconsvg.co -->
<svg fill="#000000" width="800px" height="800px" version="1.1" viewBox="144 144 512 512" xmlns="http://www.w3.org/2000/svg">
 <g>
  <path d="m297.66 470.85h-15.746v-86.594h-15.742v94.465c0 2.0859 0.82812 4.0898 2.3047 5.5664 1.4766 1.4766 3.4766 2.3047 5.5664 2.3047h4.6133l-28.23 28.23-28.23-28.23h4.6133c2.0898 0 4.0898-0.82812 5.5664-2.3047 1.4766-1.4766 2.3086-3.4805 2.3086-5.5664v-94.465h-15.746v86.594h-15.742c-3.1836 0-6.0547 1.918-7.2734 4.8594-1.2188 2.9414-0.54297 6.3242 1.707 8.5781l47.23 47.23c3.0742 3.0742 8.0586 3.0742 11.133 0l47.23-47.23c2.25-2.2539 2.9258-5.6367 1.707-8.5781-1.2188-2.9414-4.0898-4.8594-7.2695-4.8594z"/>
  <path d="m447.23 573.18h-15.742v-70.848h-15.746v78.719c0 2.0898 0.82812 4.0898 2.3047 5.5664 1.4766 1.4766 3.4805 2.3047 5.5664 2.3047h4.6133l-28.227 28.23-28.23-28.23h4.6133c2.0859 0 4.0898-0.82812 5.5664-2.3047 1.4766-1.4766 2.3047-3.4766 2.3047-5.5664v-78.719h-15.742v70.848h-15.746c-3.1836 0-6.0508 1.918-7.2695 4.8594-1.2188 2.9414-0.54688 6.3281 1.7031 8.5781l47.23 47.23h0.003906c3.0742 3.0742 8.0547 3.0742 11.129 0l47.23-47.23h0.003906c2.25-2.25 2.9219-5.6367 1.7031-8.5781-1.2148-2.9414-4.0859-4.8594-7.2695-4.8594z"/>
  <path d="m596.8 525.95h-15.746v-86.59h-15.742v94.465c0 2.0859 0.82812 4.0898 2.3047 5.5664 1.4766 1.4766 3.4766 2.3047 5.5664 2.3047h4.6133l-28.23 28.23-28.23-28.23h4.6133c2.0898 0 4.0898-0.82812 5.5664-2.3047s2.3086-3.4805 2.3086-5.5664v-94.465h-15.746v86.59h-15.742c-3.1836 0.003906-6.0547 1.9219-7.2734 4.8633-1.2188 2.9375-0.54297 6.3242 1.707 8.5742l47.23 47.23v0.003906c3.0742 3.0742 8.0586 3.0742 11.133 0l47.23-47.23v-0.003906c2.2539-2.25 2.9258-5.6367 1.707-8.5742-1.2188-2.9414-4.0859-4.8594-7.2695-4.8633z"/>
  <path d="m368.51 455.1h15.742v31.488h-15.742z"/>
  <path d="m368.51 423.61h15.742v15.742h-15.742z"/>
  <path d="m415.74 439.36h15.742v31.488h-15.742z"/>
  <path d="m518.08 392.12h15.742v31.488h-15.742z"/>
  <path d="m518.08 360.64h15.742v15.742h-15.742z"/>
  <path d="m565.31 392.12h15.742v15.742h-15.742z"/>
  <path d="m565.31 344.89h15.742v15.742h-15.742z"/>
  <path d="m218.94 352.77h15.742v15.742h-15.742z"/>
  <path d="m218.94 321.28h15.742v15.742h-15.742z"/>
  <path d="m250.43 211.07c2.0898 0 4.0898 0.82813 5.5664 2.3047 1.4766 1.4766 2.3047 3.4805 2.3047 5.5664h15.746c-0.019531-4.8672-1.543-9.6094-4.3633-13.578-2.8164-3.9648-6.793-6.9648-11.383-8.5898v-9.3203h-15.742v9.3203c-7.0547 2.4844-12.512 8.1719-14.703 15.324-2.1875 7.1523-0.85156 14.918 3.6016 20.926 4.4531 6.0117 11.492 9.5469 18.973 9.5352 3.1836 0 6.0547 1.918 7.2734 4.8594 1.2188 2.9414 0.54297 6.3281-1.707 8.5781s-5.6367 2.9258-8.5781 1.707c-2.9414-1.2188-4.8594-4.0898-4.8594-7.2734h-15.746c0.023438 4.8672 1.5469 9.6094 4.3633 13.578 2.8164 3.9688 6.793 6.9688 11.383 8.5898v9.3203h15.742v-9.3203c7.0547-2.4844 12.512-8.1719 14.703-15.324 2.1875-7.1523 0.85547-14.918-3.5977-20.926-4.4531-6.0117-11.496-9.5469-18.977-9.5352-4.3477 0-7.8711-3.5234-7.8711-7.8711s3.5234-7.8711 7.8711-7.8711z"/>
  <path d="m250.43 163.84c-18.789 0-36.809 7.4648-50.098 20.754-13.285 13.285-20.75 31.305-20.75 50.098 0 18.789 7.4648 36.809 20.75 50.098 13.289 13.285 31.309 20.75 50.098 20.75 18.789 0 36.812-7.4648 50.098-20.75 13.285-13.289 20.75-31.309 20.75-50.098-0.019532-18.785-7.4922-36.793-20.773-50.074-13.281-13.285-31.289-20.754-50.074-20.777zm0 125.95c-14.613 0-28.629-5.8047-38.965-16.137-10.332-10.336-16.141-24.352-16.141-38.965 0-14.617 5.8086-28.633 16.141-38.965 10.336-10.336 24.352-16.141 38.965-16.141 14.613 0 28.633 5.8047 38.965 16.141 10.336 10.332 16.141 24.348 16.141 38.965-0.019531 14.609-5.8281 28.613-16.16 38.945-10.328 10.328-24.336 16.141-38.945 16.156z"/>
  <path d="m203.2 226.81h15.742v15.742h-15.742z"/>
  <path d="m281.92 226.81h15.742v15.742h-15.742z"/>
  <path d="m549.57 281.92c-4.3477 0-7.8711-3.5234-7.8711-7.8711h-15.746c0.023437 4.8672 1.5469 9.6094 4.3633 13.574 2.8203 3.9688 6.793 6.9688 11.383 8.5938v9.3203h15.742v-9.3203c7.0547-2.4844 12.512-8.1719 14.703-15.324 2.1875-7.1523 0.85547-14.918-3.5977-20.926-4.4531-6.0117-11.496-9.5508-18.977-9.5352-3.1836 0-6.0547-1.918-7.2734-4.8594-1.2188-2.9414-0.54297-6.3281 1.707-8.5781 2.2539-2.25 5.6367-2.9258 8.5781-1.707s4.8594 4.0898 4.8594 7.2734h15.746c-0.019532-4.8672-1.543-9.6094-4.3633-13.578-2.8164-3.9688-6.793-6.9688-11.383-8.5898v-9.3203h-15.742v9.3203c-7.0547 2.4844-12.512 8.1719-14.699 15.324-2.1914 7.1484-0.85547 14.918 3.5977 20.926s11.492 9.5469 18.973 9.5352c4.3477 0 7.8711 3.5234 7.8711 7.8711s-3.5234 7.8711-7.8711 7.8711z"/>
  <path d="m549.57 329.15c18.789 0 36.812-7.4609 50.098-20.75 13.285-13.285 20.75-31.305 20.75-50.098 0-18.789-7.4648-36.809-20.75-50.098-13.285-13.285-31.309-20.75-50.098-20.75-18.789 0-36.809 7.4648-50.098 20.75-13.285 13.289-20.75 31.309-20.75 50.098 0.019531 18.785 7.4922 36.793 20.773 50.074 13.281 13.285 31.293 20.754 50.074 20.773zm0-125.95c14.613 0 28.633 5.8047 38.965 16.137 10.336 10.336 16.141 24.352 16.141 38.965 0 14.617-5.8047 28.633-16.141 38.965-10.332 10.336-24.352 16.141-38.965 16.141-14.613 0-28.629-5.8047-38.965-16.141-10.332-10.332-16.141-24.348-16.141-38.965 0.019531-14.609 5.8281-28.613 16.16-38.945 10.332-10.328 24.336-16.141 38.945-16.156z"/>
  <path d="m502.34 250.43h15.742v15.742h-15.742z"/>
  <path d="m581.05 250.43h15.742v15.742h-15.742z"/>
  <path d="m400 289.79c2.0859 0 4.0898 0.83203 5.5664 2.3086 1.4766 1.4727 2.3047 3.4766 2.3047 5.5664h15.742c-0.019531-4.8672-1.543-9.6094-4.3594-13.578-2.8203-3.9688-6.793-6.9688-11.383-8.5898v-9.3203h-15.746v9.3203c-7.0547 2.4844-12.508 8.1719-14.699 15.32-2.1914 7.1523-0.85547 14.918 3.5977 20.93 4.4531 6.0078 11.496 9.5469 18.977 9.5312 3.1836 0 6.0547 1.918 7.2695 4.8594 1.2188 2.9414 0.54688 6.3281-1.7031 8.5781-2.2539 2.2539-5.6406 2.9258-8.582 1.707s-4.8594-4.0859-4.8594-7.2734h-15.742c0.019532 4.8672 1.543 9.6094 4.3633 13.578 2.8164 3.9688 6.793 6.9688 11.379 8.5898v9.3203h15.742l0.003906-9.3203c7.0547-2.4844 12.512-8.1719 14.699-15.32 2.1914-7.1523 0.85547-14.918-3.5977-20.93-4.4531-6.0078-11.496-9.5469-18.973-9.5312-4.3477 0-7.875-3.5234-7.875-7.8711 0-4.3477 3.5273-7.875 7.875-7.875z"/>
  <path d="m400 242.56c-18.793 0-36.812 7.4648-50.098 20.75-13.289 13.285-20.754 31.309-20.754 50.098s7.4648 36.812 20.754 50.098c13.285 13.285 31.305 20.75 50.098 20.75 18.789 0 36.809-7.4648 50.098-20.75 13.285-13.285 20.75-31.309 20.75-50.098-0.023437-18.785-7.4922-36.793-20.773-50.074-13.285-13.281-31.293-20.754-50.074-20.773zm0 125.95c-14.617 0-28.633-5.8086-38.965-16.141-10.336-10.336-16.141-24.352-16.141-38.965s5.8047-28.629 16.141-38.965c10.332-10.332 24.348-16.141 38.965-16.141 14.613 0 28.629 5.8086 38.965 16.141 10.332 10.336 16.137 24.352 16.137 38.965-0.015624 14.609-5.8281 28.617-16.156 38.945-10.332 10.332-24.336 16.141-38.945 16.16z"/>
  <path d="m352.77 305.54h15.742v15.742h-15.742z"/>
  <path d="m431.49 305.54h15.742v15.742h-15.742z"/>
  <path d="m415.74 407.87h15.742v15.742h-15.742z"/>
  <path d="m266.18 337.02h15.742v31.488h-15.742z"/>
 </g>
</svg>