<?xml version="1.0" encoding="UTF-8"?>
<!-- The Best Svg Icon site in the world: iconSvg.co, Visit us! https://iconsvg.co -->
<svg fill="#000000" width="800px" height="800px" version="1.1" viewBox="144 144 512 512" xmlns="http://www.w3.org/2000/svg">
 <g>
  <path d="m568.03 235.12c-12.488-19.41-31.789-32.797-54.348-37.691-6.0625-1.3203-12.258-1.9844-18.41-1.9844-40.316 0-75.793 28.637-84.359 68.094-3.6211 16.691-2.0508 33.875 3.9609 49.418l-154.85 0.003907c-12.012 0-21.773 9.7695-21.773 21.773v123.48l-22.738 123.03c-0.070313 0.37891-0.10547 0.76172-0.10547 1.1445 0 13.406 10.906 24.312 24.309 24.312h277.96c13.41 0 24.324-10.906 24.324-24.312 0-0.38281-0.035156-0.76562-0.10547-1.1445l-22.738-123.03 0.003906-93.355c29.852-8.6758 53.809-33.199 60.633-64.652 4.9023-22.562 0.72266-45.672-11.762-65.086zm-243.71 326.84h-58.238c-3.4766 0-6.2969-2.8203-6.2969-6.2969 0-3.4766 2.8203-6.2969 6.2969-6.2969h58.246c3.4766 0 6.2969 2.8203 6.2969 6.2969 0 3.4766-2.8242 6.2969-6.3047 6.2969zm0-32.434h-54.988c-3.4766 0-6.2969-2.8203-6.2969-6.2969 0-3.4766 2.8203-6.2969 6.2969-6.2969h54.992c3.4766 0 6.2969 2.8203 6.2969 6.2969-0.003906 3.4766-2.8203 6.2969-6.3008 6.2969zm0-30.953h-50.004c-3.4766 0-6.2969-2.8203-6.2969-6.2969 0-3.4766 2.8203-6.2969 6.2969-6.2969h50.004c3.4766 0 6.2969 2.8203 6.2969 6.2969 0 3.4727-2.8164 6.2969-6.2969 6.2969zm169.63 63.387h-143.15c-3.4766 0-6.2969-2.8203-6.2969-6.2969 0-3.4766 2.8203-6.2969 6.2969-6.2969h143.15c3.4766 0 6.2969 2.8203 6.2969 6.2969 0 3.4766-2.8164 6.2969-6.2969 6.2969zm-143.15-45.031h138.53c3.4766 0 6.2969 2.8203 6.2969 6.2969 0 3.4766-2.8203 6.2969-6.2969 6.2969l-138.53 0.003907c-3.4766 0-6.2969-2.8203-6.2969-6.2969 0-3.4766 2.8203-6.3008 6.2969-6.3008zm-6.2969-24.656c0-3.4766 2.8203-6.2969 6.2969-6.2969h132.29c3.4766 0 6.2969 2.8203 6.2969 6.2969 0 3.4766-2.8203 6.2969-6.2969 6.2969l-132.29 0.003906c-3.4766 0-6.2969-2.8242-6.2969-6.3008zm162.06-39.773h-255.72v-117.77c0-5.0625 4.1172-9.1797 9.1797-9.1797h160.91c3.793 6.4648 8.418 12.488 13.863 17.855l-8.4141 38.742c-0.43359 1.9961 0.37891 4.0508 2.0508 5.2109 0.86719 0.59766 1.8672 0.89844 2.8711 0.89844 0.94531 0 1.8945-0.26562 2.7266-0.80078l35.84-23.059c2.4648 0.77734 4.8203 1.4062 7.1406 1.9102 6.0625 1.3203 12.262 1.9844 18.41 1.9844h0.003906c3.7617 0 7.4648-0.32812 11.129-0.81641l0.003906 85.02zm12.652-162.5c1.5703 1.1875 2.4883 3.0469 2.4883 5.0195 0 12.273-8.4336 22.207-20.059 24.898v4.6562c0 3.4766-2.8203 6.2969-6.2969 6.2969-3.4766 0-6.2969-2.8203-6.2969-6.2969v-4.625c-11.477-2.543-20.047-11.773-20.047-22.824 0-3.4766 2.8203-6.2969 6.2969-6.2969 3.4766 0 6.2969 2.8203 6.2969 6.2969 0 6.0625 6.168 10.988 13.75 10.988 6.7969 0 12.141-4.2227 13.453-10.203l-37.301-28.324c-1.5703-1.1875-2.4883-3.0469-2.4883-5.0195 0-10.785 6.3242-22.293 20.047-24.988v-4.4648c0-3.4766 2.8203-6.2969 6.2969-6.2969 3.4766 0 6.2969 2.8203 6.2969 6.2969v4.625c11.488 2.5391 20.059 11.77 20.059 22.824 0 3.4766-2.8203 6.2969-6.2969 6.2969-3.4766 0-6.2969-2.8203-6.2969-6.2969 0-6.0547-6.1758-10.984-13.758-10.984-9.8789 0-12.699 5.9648-13.473 10.07z"/>
  <path d="m366.13 344.99h-88.016c-5.5625 0-10.098 4.5273-10.098 10.102v18.359c0 5.5664 4.5273 10.098 10.098 10.098h88.016c5.5664 0 10.102-4.5273 10.102-10.098v-18.359c0-5.5742-4.5312-10.102-10.102-10.102zm-2.4961 25.957h-83.016v-13.359h83.023v13.359z"/>
  <path d="m364.64 407.95h-90.312c-3.4766 0-6.2969 2.8203-6.2969 6.2969 0 3.4766 2.8203 6.2969 6.2969 6.2969h90.316c3.4766 0 6.2969-2.8203 6.2969-6.2969 0-3.4766-2.8203-6.2969-6.3008-6.2969z"/>
  <path d="m483.08 407.95h-88.848c-3.4766 0-6.2969 2.8203-6.2969 6.2969 0 3.4766 2.8203 6.2969 6.2969 6.2969h88.848c3.4766 0 6.2969-2.8203 6.2969-6.2969 0-3.4766-2.8164-6.2969-6.2969-6.2969z"/>
 </g>
</svg>