<?xml version="1.0" encoding="UTF-8"?>
<!-- The Best Svg Icon site in the world: iconSvg.co, Visit us! https://iconsvg.co -->
<svg fill="#000000" width="800px" height="800px" version="1.1" viewBox="144 144 512 512" xmlns="http://www.w3.org/2000/svg">
 <g>
  <path d="m510.16 378.14c-16.043 0-31.641 2.9727-46.355 8.8203-48.355 19.168-79.598 65.145-79.598 117.14 0 35.199 14.906 69.051 40.887 92.867 23.258 21.332 53.465 33.086 85.066 33.086 69.449 0 125.95-56.504 125.95-125.95 0-69.449-56.504-125.96-125.95-125.96zm0 236.16c-27.648 0-54.078-10.277-74.422-28.953-22.742-20.84-35.785-50.453-35.785-81.258 0-45.496 27.34-85.723 69.664-102.5 12.859-5.1172 26.504-7.7109 40.543-7.7109 60.77 0 110.21 49.441 110.21 110.21 0 60.773-49.438 110.21-110.21 110.21z"/>
  <path d="m525.91 417.51h-15.738c-4.3477 0-7.8711 3.5195-7.8711 7.8711 0 4.3516 3.5234 7.8711 7.8711 7.8711h7.8672v110.21h-15.742v-96.242c0-4.3516-3.5234-7.8711-7.8711-7.8711s-7.8711 3.5195-7.8711 7.8711v104.12c0 4.3516 3.5234 7.8711 7.8711 7.8711h31.488c4.3477 0 7.8711-3.5195 7.8711-7.8711v-125.95c0-4.3516-3.5273-7.875-7.875-7.875z"/>
  <path d="m588.88 470.83c-4.3477 0-7.8711 3.5195-7.8711 7.8711v64.758h-15.742v-78.719h7.875c4.3477 0 7.8711-3.5195 7.8711-7.8711 0-4.3516-3.5234-7.8711-7.8711-7.8711h-15.746c-4.3477 0-7.8711 3.5195-7.8711 7.8711v94.465c0 4.3516 3.5234 7.8711 7.8711 7.8711h31.488c4.3477 0 7.8711-3.5195 7.8711-7.8711v-72.633c0-4.3516-3.5273-7.8711-7.875-7.8711z"/>
  <path d="m403.89 600.21c-11.285 6.5195-23.434 11.539-36.129 14.914-38.609 10.348-78.887 5.0508-113.44-14.891-34.555-19.941-59.285-52.184-69.629-90.781-18.375-68.434 14.266-140.99 77.652-172.53 2.2617-1.1406 4.6641-2.0508 7.0039-3.0742 3.4453-1.4961 6.9062-2.8984 10.449-4.1328 3.5195-1.2188 7.0352-2.4492 10.676-3.4062 3.2852-0.89844 6.668-1.5195 10.035-2.1836 4.4219-0.86328 8.8672-1.5078 13.355-1.9766 2.0742-0.21484 4.1172-0.56641 6.2031-0.69531 46.52-2.8555 92.406 16.594 122.77 52.152 2.8242 3.3008 7.7891 3.6953 11.102 0.875 3.3047-2.8242 3.6992-7.7969 0.875-11.102-32.152-37.652-80.078-58.945-129.24-57.852l-11.422-42.629c-0.53906-2.0195-1.8594-3.7344-3.668-4.7812-1.8008-1.0391-3.9531-1.3203-5.9727-0.78516l-22.035 5.9023c-0.98438-16.219 8.3125-31.473 23.23-38.16 4.4141 6.0234 11.48 9.7148 19.031 9.7148 2.0195 0 4.0664-0.26172 6.1094-0.8125 12.574-3.3672 20.062-16.34 16.695-28.918-1.6289-6.0938-5.5391-11.18-11-14.336-5.4609-3.1523-11.836-3.9883-17.914-2.3555-10.047 2.6914-16.738 11.531-17.348 21.383-23.094 9.2344-37.098 33.004-34.164 57.598l-23.414 6.2734c-2.0195 0.53906-3.7344 1.8594-4.7812 3.668-1.043 1.8047-1.3242 3.957-0.78516 5.9727l11.453 42.738c-66.203 36.312-99.84 114.01-80.098 187.54 11.43 42.656 38.766 78.289 76.969 100.34 25.426 14.676 53.664 22.18 82.277 22.18 14.371 0 28.836-1.8906 43.094-5.7109 14.016-3.7344 27.453-9.2773 39.938-16.488 3.7656-2.1758 5.0547-6.9883 2.8789-10.754-2.1758-3.7773-6.9961-5.0625-10.758-2.8867zm-81.188-396.63c0.67578-0.17969 1.3633-0.27344 2.0469-0.27344 1.3594 0 2.707 0.35938 3.918 1.0586 1.8203 1.0547 3.1211 2.75 3.668 4.7773 1.1211 4.1914-1.3711 8.5156-5.5664 9.6367-4.168 1.1172-8.5117-1.3711-9.6367-5.5625-1.1211-4.1914 1.3789-8.5156 5.5703-9.6367zm-21.715 70.996 8.5781 32.027c-1.5195 0.18359-3.0195 0.48438-4.5352 0.71094-1.4609 0.21484-2.9102 0.42578-4.3594 0.68359-4.8281 0.84766-9.6289 1.8281-14.344 3.0938-4.7148 1.2617-9.3594 2.8125-13.965 4.4922-1.457 0.53125-2.8828 1.0977-4.3164 1.668-1.3555 0.53906-2.7422 1.0039-4.0859 1.5781l-8.582-32.027z"/>
  <path d="m462.93 464.74h-31.488c-4.3477 0-7.8711 3.5195-7.8711 7.8711v78.719c0 4.3516 3.5234 7.8711 7.8711 7.8711h15.746c4.3477 0 7.8711-3.5195 7.8711-7.8711 0-4.3516-3.5234-7.8711-7.8711-7.8711h-7.875v-62.977h15.742v53.32c0 4.3516 3.5234 7.8711 7.8711 7.8711 4.3477 0 7.8711-3.5195 7.8711-7.8711v-61.191c0.003907-4.3516-3.5234-7.8711-7.8672-7.8711z"/>
  <path d="m354.82 196.04c1.4375 2.5898 4.125 4.0508 6.8906 4.0508 1.293 0 2.6016-0.32031 3.8125-0.98828l4.9414-2.7422c3.8008-2.1055 5.1797-6.8945 3.0742-10.699-2.1016-3.793-6.8945-5.1758-10.699-3.0742l-4.957 2.75c-3.8008 2.1094-5.1758 6.8984-3.0625 10.703z"/>
  <path d="m347.8 184.24c2.4141 0 4.793-1.1016 6.3398-3.1953l3.3672-4.5508c2.582-3.4922 1.8438-8.4219-1.6523-11.008-3.4922-2.5859-8.418-1.8438-11.008 1.6523l-3.3672 4.5508c-2.582 3.4922-1.8438 8.4219 1.6523 11.008 1.4023 1.043 3.043 1.543 4.668 1.543z"/>
  <path d="m367.06 204.16c-4.332 0.37891-7.5352 4.2031-7.1523 8.5312 0.35938 4.0977 3.7969 7.1836 7.832 7.1836 0.23047 0 0.46094-0.011719 0.69531-0.03125l5.6406-0.49219c4.332-0.37891 7.5352-4.2031 7.1523-8.5312-0.37891-4.332-4.1875-7.4453-8.5312-7.1523z"/>
  <path d="m367.71 225.49c-4.0977-1.4375-8.5938 0.69531-10.051 4.7852-1.4531 4.0977 0.6875 8.5977 4.7852 10.051l5.332 1.8906c0.86719 0.30859 1.7617 0.45703 2.6328 0.45703 3.2422 0 6.2734-2.0195 7.418-5.2422 1.4531-4.0977-0.6875-8.5977-4.7852-10.051z"/>
 </g>
</svg>