<?xml version="1.0" encoding="UTF-8"?>
<!-- The Best Svg Icon site in the world: iconSvg.co, Visit us! https://iconsvg.co -->
<svg fill="#000000" width="800px" height="800px" version="1.1" viewBox="144 144 512 512" xmlns="http://www.w3.org/2000/svg">
 <g>
  <path d="m370.92 338.6c24.102 0 47.215-9.5742 64.258-26.617 17.043-17.039 26.617-40.152 26.617-64.254 0-24.102-9.5742-47.215-26.613-64.258-17.043-17.043-40.156-26.617-64.258-26.617s-47.215 9.5742-64.258 26.617c-17.043 17.039-26.617 40.152-26.617 64.254 0.027344 24.094 9.6133 47.191 26.648 64.227 17.035 17.035 40.133 26.621 64.223 26.648zm0-169.94c20.969 0 41.082 8.3281 55.91 23.156 14.828 14.824 23.156 34.938 23.156 55.906 0.003906 20.969-8.3281 41.078-23.152 55.906-14.828 14.828-34.938 23.16-55.906 23.16-20.973 0-41.082-8.3281-55.91-23.156-14.828-14.828-23.16-34.938-23.16-55.906 0.023437-20.961 8.3594-41.059 23.184-55.883 14.82-14.82 34.918-23.16 55.879-23.184z"/>
  <path d="m370.92 288.64c-4.2656-0.003906-8.3594-1.7031-11.379-4.7227-3.0156-3.0156-4.7148-7.1094-4.7188-11.379 0-3.2578-2.6445-5.9023-5.9062-5.9023-3.2578 0-5.9023 2.6445-5.9023 5.9023 0.007812 5.9492 1.9102 11.738 5.4336 16.531 3.5273 4.793 8.4844 8.3359 14.16 10.113v7.332c0 3.2578 2.6445 5.9023 5.9062 5.9023 3.2578 0 5.9023-2.6445 5.9023-5.9023v-6.293c9.4805-1.1953 17.691-7.1562 21.762-15.801 4.0703-8.6445 3.4336-18.773-1.6875-26.84-5.1211-8.0664-14.012-12.953-23.57-12.949-4.2695 0-8.3633-1.6953-11.383-4.7148-3.0195-3.0195-4.7148-7.1172-4.7148-11.387 0-4.2695 1.6953-8.3633 4.7148-11.383 3.0195-3.0195 7.1172-4.7148 11.387-4.7148s8.3633 1.6953 11.383 4.7148c3.0195 3.0195 4.7148 7.1133 4.7148 11.383 0 3.2617 2.6445 5.9062 5.9062 5.9062 3.2578 0 5.9023-2.6445 5.9023-5.9062-0.007813-6.6211-2.3672-13.027-6.6602-18.07-4.2891-5.0469-10.234-8.4023-16.77-9.4727v-5.668c0-3.2578-2.6445-5.9023-5.9023-5.9023-3.2617 0-5.9062 2.6445-5.9062 5.9023v6.2852c-8.7734 2.3867-15.832 8.8984-18.922 17.453-3.0859 8.5508-1.8125 18.07 3.4102 25.512 5.2266 7.4414 13.75 11.871 22.84 11.871 5.7539 0 11.07 3.0664 13.945 8.0508 2.875 4.9805 2.875 11.117 0 16.098s-8.1914 8.0508-13.945 8.0508z"/>
  <path d="m444.79 444.46c-22.879 0-44.824 9.0898-61.004 25.27-16.184 16.18-25.273 38.125-25.273 61.004 0 22.883 9.0898 44.828 25.27 61.008 16.18 16.18 38.125 25.27 61.008 25.27 22.879 0 44.824-9.0898 61.004-25.27 16.18-16.18 25.27-38.125 25.27-61.004-0.023437-22.875-9.1211-44.805-25.297-60.977-16.172-16.176-38.102-25.273-60.977-25.301zm0 160.74c-19.75 0-38.691-7.8438-52.656-21.809-13.965-13.965-21.812-32.906-21.812-52.656s7.8477-38.691 21.812-52.656c13.965-13.965 32.906-21.812 52.656-21.812s38.691 7.8438 52.656 21.812c13.965 13.965 21.809 32.906 21.809 52.656-0.019531 19.742-7.8711 38.668-21.832 52.629-13.961 13.961-32.891 21.816-52.633 21.836z"/>
  <path d="m476.07 531.86h-29.828v-41.336c0-3.2617-2.6445-5.9023-5.9023-5.9023-3.2617 0-5.9062 2.6406-5.9062 5.9023v46.918c-0.03125 3.3203 2.5703 6.0703 5.8867 6.2266h35.75c3.2617 0 5.9023-2.6445 5.9023-5.9062 0-3.2578-2.6406-5.9023-5.9023-5.9023z"/>
  <path d="m445.26 418.33v-10.461h14.875c3.2617 0 5.7891-2.1719 5.7891-5.4336v-50.539c0.0625-3.2617-2.5273-5.9531-5.7891-6.0195h-190.81c-3.3242 0.039063-6.0156 2.6992-6.1016 6.0195v46.133h-14.523c-3.2617 0-6.1406 2.1797-6.1406 5.4375v50.539c0.10156 3.3281 2.8125 5.9805 6.1406 6.0156h14.523v40.344h-14.523c-3.3711 0.14062-6.0586 2.8711-6.1406 6.2422v50.539c0.085937 3.3672 2.7773 6.082 6.1406 6.1992h88.43c6.9883 23.117 21.23 43.367 40.621 57.766 19.387 14.395 42.895 22.172 67.043 22.18 61.98 0 112.33-50.5 112.33-112.48h0.003906c0-29.727-11.766-58.246-32.727-79.32-20.961-21.078-49.414-33-79.141-33.16zm-136.78 81.051v-38.375h19.68v38.375zm29.52-89.543v38.375h-18.695v-38.375zm30.664 38.375h-18.855v-38.375h19.68v37.824c-0.98047 0.14453-0.66406 0.55078-0.82422 0.55078zm33.297-52.152v-38.375h18.695v38.375zm-11.809 0h-19.68v-38.375h19.68zm-31.488 0h-18.695v-38.375h18.695zm-30.504 0h-19.68v-38.375h19.68zm-20.664 13.777v38.375h-19.68v-38.375zm-10.824 89.543h-21.645v-38.375h21.648zm10.824 12.793v39.359h-19.68v-39.359zm32.473-21.301v-29.867h16.766c-7.1953 8.9648-12.859 19.055-16.766 29.867zm41.328-81.035h18.695v17.77h0.003906c-6.5977 2.875-12.863 6.4492-18.699 10.66zm30.504 0h21.648v9.043-0.003906c-7.3359 0.78125-14.582 2.2422-21.648 4.3633zm42.312-13.777h-21.648v-38.375h21.648zm-179.09-38.375h21.648v38.375h-21.648zm-20.664 52.152h21.648v38.375h-21.648zm0 102.34h21.648v39.359h-21.648zm64.945 39.359-0.003906-39.359h14.566c-0.98828 6.1289-1.4844 12.324-1.4844 18.531 0.007813 6.9844 0.63672 13.953 1.875 20.828zm125.48 79.801h-0.003906c-26.68 0-52.266-10.598-71.133-29.465-18.867-18.863-29.465-44.453-29.465-71.133 0-26.68 10.598-52.27 29.461-71.137 18.867-18.863 44.453-29.465 71.137-29.465 26.68 0 52.266 10.598 71.133 29.461 18.867 18.867 29.469 44.453 29.469 71.137-0.027343 26.672-10.637 52.242-29.496 71.102-18.859 18.863-44.434 29.473-71.105 29.5z"/>
 </g>
</svg>