<?xml version="1.0" encoding="UTF-8"?>
<!-- The Best Svg Icon site in the world: iconSvg.co, Visit us! https://iconsvg.co -->
<svg width="800px" height="800px" version="1.1" viewBox="144 144 512 512" xmlns="http://www.w3.org/2000/svg">
 <defs>
  <clipPath id="a">
   <path d="m163 431h143v220.9h-143z"/>
  </clipPath>
 </defs>
 <g clip-path="url(#a)">
  <path d="m258.3 651.9h-47.23c-12.523-0.011719-24.527-4.9922-33.383-13.848-8.8555-8.8555-13.836-20.859-13.852-33.383v-125.95c0.015624-12.523 4.9961-24.527 13.852-33.383 8.8555-8.8555 20.859-13.836 33.383-13.848h47.23c12.523 0.011719 24.531 4.9922 33.383 13.848 8.8555 8.8555 13.836 20.859 13.852 33.383v125.95c-0.015625 12.523-4.9961 24.527-13.852 33.383-8.8516 8.8555-20.859 13.836-33.383 13.848zm-47.23-188.93c-4.1758 0-8.1797 1.6602-11.129 4.6133-2.9531 2.9492-4.6133 6.9531-4.6172 11.129v125.95c0.003906 4.1758 1.6641 8.1758 4.6172 11.129 2.9492 2.9531 6.9531 4.6133 11.129 4.6133h47.23c4.1758 0 8.1797-1.6602 11.133-4.6133 2.9492-2.9531 4.6094-6.9531 4.6133-11.129v-125.95c-0.003906-4.1758-1.6641-8.1797-4.6133-11.129-2.9531-2.9531-6.957-4.6133-11.133-4.6133z"/>
 </g>
 <path d="m454.04 632.82h-109.42c-8.707 0.003906-17.246-2.4102-24.664-6.9648l-38.395-23.512c-4.668-2.8594-7.5156-7.9453-7.5156-13.422v-95.938c0-5.3867 2.7578-10.398 7.3047-13.285l39.5-25.105h-0.003906c7.5742-4.8125 16.363-7.3672 25.336-7.3672h116.79c9.3555 0.011719 18.5 2.7969 26.277 8.0039 7.7734 5.207 13.832 12.605 17.402 21.254l56.293-50.152c12.75-11.059 30.43-14.473 46.379-8.9609 15.953 5.5117 27.75 19.117 30.953 35.688 3.1992 16.57-2.6836 33.586-15.43 44.645l-139.53 123.26c-8.6328 7.6367-19.754 11.852-31.277 11.855zm-148.51-52.715 30.859 18.91h-0.003906c2.4766 1.5195 5.3242 2.3242 8.2266 2.3242h109.42c3.8398-0.007812 7.5469-1.418 10.422-3.9688l139.67-123.38c3.2031-2.707 5.1953-6.582 5.5352-10.762 0.34375-4.1797-0.99609-8.3203-3.7227-11.512-2.7227-3.1875-6.6055-5.1602-10.785-5.4805-4.1719-0.34766-8.3086 1.0156-11.453 3.7773l-87.223 77.703v0.003906c-8.8516 8.9492-20.918 13.98-33.504 13.973h-78.723c-5.625 0-10.82-3-13.633-7.8711-2.8125-4.8711-2.8125-10.875 0-15.746s8.0078-7.8711 13.633-7.8711h78.723c3.2344 0.003907 6.3906-0.99609 9.0391-2.8594l2.707-2.4141c2.7109-3.0391 4.1406-7.0078 3.9844-11.078-0.15234-4.0664-1.8789-7.918-4.8125-10.742-2.9336-2.8203-6.8477-4.3984-10.918-4.3945h-116.79c-3.0039 0.003906-5.9453 0.86328-8.4844 2.4766l-32.164 20.434z"/>
 <path d="m431.49 415.74c-33.406 0-65.441-13.27-89.062-36.891-23.621-23.621-36.891-55.656-36.891-89.062 0-33.402 13.27-65.441 36.891-89.062 23.621-23.617 55.656-36.891 89.062-36.891 33.402 0 65.441 13.273 89.059 36.891 23.621 23.621 36.891 55.66 36.891 89.062-0.035156 33.395-13.32 65.41-36.93 89.02-23.613 23.613-55.629 36.895-89.02 36.934zm0-220.42c-25.055 0-49.082 9.9531-66.797 27.668-17.715 17.719-27.668 41.746-27.668 66.797 0 25.055 9.9531 49.082 27.668 66.797 17.715 17.715 41.742 27.668 66.797 27.668 25.051 0 49.078-9.9531 66.793-27.668 17.719-17.715 27.668-41.742 27.668-66.797-0.027344-25.043-9.9883-49.055-27.695-66.766-17.711-17.707-41.723-27.672-66.766-27.699z"/>
 <path d="m439.36 352.77h-39.359c-5.625 0-10.824-3-13.637-7.8711-2.8125-4.8711-2.8125-10.871 0-15.746 2.8125-4.8711 8.0117-7.8711 13.637-7.8711h39.359c4.3477 0 7.8711-3.5234 7.8711-7.8711s-3.5234-7.8711-7.8711-7.8711h-15.746c-14.062 0-27.055-7.5039-34.086-19.68-7.0312-12.18-7.0312-27.184 0-39.363 7.0312-12.176 20.023-19.68 34.086-19.68h39.363c5.6211 0 10.82 3.0039 13.633 7.875s2.8125 10.871 0 15.742c-2.8125 4.8711-8.0117 7.8711-13.633 7.8711h-39.363c-4.3477 0-7.8711 3.5273-7.8711 7.875 0 4.3477 3.5234 7.8711 7.8711 7.8711h15.746c14.062 0 27.055 7.5 34.086 19.68 7.0312 12.176 7.0312 27.184 0 39.359-7.0312 12.18-20.023 19.68-34.086 19.68z"/>
 <path d="m431.49 258.3c-4.1758 0-8.1836-1.6562-11.133-4.6094-2.9531-2.9531-4.6133-6.957-4.6133-11.133v-15.746c0-5.625 3-10.82 7.8711-13.633 4.8711-2.8125 10.875-2.8125 15.746 0s7.8711 8.0078 7.8711 13.633v15.746c0 4.1758-1.6602 8.1797-4.6094 11.133-2.9531 2.9531-6.957 4.6094-11.133 4.6094z"/>
 <path d="m431.49 368.51c-4.1758 0-8.1836-1.6602-11.133-4.6133-2.9531-2.9531-4.6133-6.957-4.6133-11.133v-15.742c0-5.625 3-10.824 7.8711-13.637 4.8711-2.8125 10.875-2.8125 15.746 0s7.8711 8.0117 7.8711 13.637v15.742c0 4.1758-1.6602 8.1797-4.6094 11.133-2.9531 2.9531-6.957 4.6133-11.133 4.6133z"/>
</svg>