<?xml version="1.0" encoding="UTF-8"?>
<!-- The Best Svg Icon site in the world: iconSvg.co, Visit us! https://iconsvg.co -->
<svg width="800px" height="800px" version="1.1" viewBox="144 144 512 512" xmlns="http://www.w3.org/2000/svg">
 <defs>
  <clipPath id="a">
   <path d="m163 179h488.9v472.9h-488.9z"/>
  </clipPath>
 </defs>
 <g clip-path="url(#a)">
  <path d="m218.94 368.51h31.488c4.3477 0 7.8711-3.5273 7.8711-7.875 0-4.3477-3.5234-7.8711-7.8711-7.8711h-31.488c-4.3477 0-7.8711 3.5234-7.8711 7.8711 0 4.3477 3.5234 7.875 7.8711 7.875zm15.742-47.23h220.42v-0.003906c6.2656 0 12.27-2.4883 16.699-6.918 4.4297-4.4258 6.918-10.434 6.918-16.695v-47.234c0-6.2617-2.4883-12.27-6.918-16.699-4.4297-4.4297-10.434-6.918-16.699-6.918h-220.41c-6.2656 0-12.273 2.4883-16.699 6.918-4.4297 4.4297-6.918 10.438-6.918 16.699v47.234c0 6.2617 2.4883 12.27 6.918 16.695 4.4258 4.4297 10.434 6.918 16.699 6.918zm-7.8711-70.852c0-4.3477 3.5273-7.8711 7.875-7.8711h220.42-0.003907c2.0898 0 4.0898 0.82812 5.5664 2.3047 1.4766 1.4766 2.3086 3.4805 2.3086 5.5664v47.234c0 2.0859-0.83203 4.0898-2.3086 5.5664-1.4766 1.4727-3.4766 2.3047-5.5664 2.3047h-220.41c-4.3477 0-7.875-3.5234-7.875-7.8711zm244.04 102.34h-62.977c-4.3477 0-7.8711 3.5234-7.8711 7.8711 0 4.3477 3.5234 7.875 7.8711 7.875h62.977c4.3477 0 7.8711-3.5273 7.8711-7.875 0-4.3477-3.5234-7.8711-7.8711-7.8711zm-15.742 31.488h-31.492c-6.2617 0-12.27 2.4883-16.699 6.918-4.4258 4.4297-6.9141 10.434-6.9141 16.699v15.742c0 6.2656 2.4883 12.273 6.9141 16.699 4.4297 4.4297 10.438 6.918 16.699 6.918h31.488c6.2656 0 12.27-2.4883 16.699-6.918 4.4297-4.4258 6.918-10.434 6.918-16.699v-15.742c0-6.2656-2.4883-12.27-6.918-16.699-4.4297-4.4297-10.434-6.918-16.699-6.918zm7.8711 39.359c0 2.0898-0.83203 4.0898-2.3086 5.5664-1.4766 1.4766-3.4766 2.3086-5.5664 2.3086h-31.488c-4.3477 0-7.8711-3.5273-7.8711-7.875v-15.742c0-4.3477 3.5234-7.8711 7.8711-7.8711h31.488c2.0898 0 4.0898 0.82812 5.5664 2.3047 1.4766 1.4766 2.3086 3.4766 2.3086 5.5664zm-181.06-70.848c-4.3477 0-7.8711 3.5234-7.8711 7.8711 0 4.3477 3.5234 7.875 7.8711 7.875h31.488c4.3477 0 7.8711-3.5273 7.8711-7.875 0-4.3477-3.5234-7.8711-7.8711-7.8711zm-15.742 31.488h-31.488c-6.2656 0-12.273 2.4883-16.699 6.918-4.4297 4.4297-6.918 10.434-6.918 16.699v15.742c0 6.2656 2.4883 12.273 6.918 16.699 4.4258 4.4297 10.434 6.918 16.699 6.918h31.488c6.2617 0 12.27-2.4883 16.699-6.918 4.4258-4.4258 6.9141-10.434 6.9141-16.699v-15.742c0-6.2656-2.4883-12.27-6.9141-16.699-4.4297-4.4297-10.438-6.918-16.699-6.918zm7.8711 39.359c0 2.0898-0.83203 4.0898-2.3047 5.5664-1.4766 1.4766-3.4805 2.3086-5.5664 2.3086h-31.488c-4.3477 0-7.875-3.5273-7.875-7.875v-15.742c0-4.3477 3.5273-7.8711 7.875-7.8711h31.488c2.0859 0 4.0898 0.82812 5.5664 2.3047 1.4727 1.4766 2.3047 3.4766 2.3047 5.5664zm267.65 86.594h15.742c4.1758 0 8.1797 1.6602 11.133 4.6094 2.9531 2.9531 4.6133 6.957 4.6133 11.133 0 4.3477 3.5234 7.875 7.8711 7.875 4.3477 0 7.8711-3.5273 7.8711-7.875-0.023437-8.3438-3.3477-16.336-9.25-22.234-5.8984-5.9023-13.895-9.2266-22.238-9.2539v-7.8711c0-4.3477-3.5234-7.8711-7.8711-7.8711s-7.8711 3.5234-7.8711 7.8711v7.8711c-10.555 0.011718-20.406 5.3086-26.23 14.109-5.8281 8.8047-6.8555 19.941-2.7383 29.66 0.46875 1.2852 1.1055 2.5 1.8867 3.6211 0.60547 1.1836 1.3477 2.293 2.207 3.3086 1.3789 1.9023 3.0195 3.5977 4.8789 5.0352 1.2852 1.1758 2.7148 2.1797 4.25 2.9922 4.7852 2.7773 10.215 4.2422 15.746 4.25h15.742c5.625 0 10.824 3.0039 13.637 7.875s2.8125 10.871 0 15.742c-2.8125 4.8711-8.0117 7.8711-13.637 7.8711h-15.742c-4.1758 0-8.1797-1.6562-11.133-4.6094s-4.6133-6.957-4.6133-11.133c0-4.3477-3.5234-7.8711-7.8711-7.8711s-7.8711 3.5234-7.8711 7.8711c0 8.3516 3.3164 16.359 9.2227 22.266s13.914 9.2227 22.266 9.2227v7.8711c0 4.3477 3.5234 7.8711 7.8711 7.8711s7.8711-3.5234 7.8711-7.8711v-7.8711c11.25 0 21.645-6.0039 27.27-15.746 5.625-9.7422 5.625-21.746 0-31.488s-16.02-15.742-27.27-15.742h-15.742c-5.625 0-10.824-3-13.637-7.8711-2.8125-4.8711-2.8125-10.875 0-15.746s8.0117-7.8711 13.637-7.8711zm-275.52 31.488h-31.488c-6.2656 0-12.273 2.4883-16.699 6.918-4.4297 4.4258-6.918 10.434-6.918 16.699v15.742c0 6.2656 2.4883 12.27 6.918 16.699 4.4258 4.4297 10.434 6.918 16.699 6.918h31.488c6.2617 0 12.27-2.4883 16.699-6.918 4.4258-4.4297 6.9141-10.434 6.9141-16.699v-15.742c0-6.2656-2.4883-12.273-6.9141-16.699-4.4297-4.4297-10.438-6.918-16.699-6.918zm7.8711 39.359c0 2.0898-0.83203 4.0898-2.3047 5.5664-1.4766 1.4766-3.4805 2.3047-5.5664 2.3047h-31.488c-4.3477 0-7.875-3.5234-7.875-7.8711v-15.742c0-4.3477 3.5273-7.875 7.875-7.875h31.488c2.0859 0 4.0898 0.83203 5.5664 2.3086 1.4727 1.4766 2.3047 3.4766 2.3047 5.5664zm86.59-196.8h-31.488c-6.2617 0-12.27 2.4883-16.695 6.918-4.4297 4.4297-6.918 10.434-6.918 16.699v15.742c0 6.2656 2.4883 12.273 6.918 16.699 4.4258 4.4297 10.434 6.918 16.695 6.918h31.488c6.2656 0 12.273-2.4883 16.699-6.918 4.4297-4.4258 6.918-10.434 6.918-16.699v-15.742c0-6.2656-2.4883-12.27-6.918-16.699-4.4258-4.4297-10.434-6.918-16.699-6.918zm7.8711 39.359h0.003907c0 2.0898-0.83203 4.0898-2.3086 5.5664-1.4766 1.4766-3.4766 2.3086-5.5664 2.3086h-31.488c-4.3477 0-7.8711-3.5273-7.8711-7.875v-15.742c0-4.3477 3.5234-7.8711 7.8711-7.8711h31.488c2.0898 0 4.0898 0.82812 5.5664 2.3047 1.4766 1.4766 2.3086 3.4766 2.3086 5.5664zm181.06 23.617c-7.957-0.027344-15.891 0.92578-23.617 2.8359v-231.12c0-10.438-4.1445-20.449-11.527-27.832-7.3789-7.3789-17.391-11.527-27.832-11.527h-283.39c-10.441 0-20.453 4.1484-27.832 11.527-7.3828 7.3828-11.531 17.395-11.531 27.832v393.6c0 10.438 4.1484 20.449 11.531 27.832 7.3789 7.3828 17.391 11.527 27.832 11.527h283.39-0.003906c8.5156 0 16.805-2.7617 23.617-7.8711 28.301 11.793 60.398 10.273 87.461-4.1367 27.059-14.41 46.234-40.195 52.246-70.258 6.0156-30.062-1.7695-61.238-21.207-84.949s-48.48-37.457-79.141-37.457zm-62.977 188.93h-283.39c-6.2656 0-12.273-2.4883-16.699-6.918-4.4297-4.4297-6.918-10.438-6.918-16.699v-393.6c0-6.2617 2.4883-12.27 6.918-16.699 4.4258-4.4297 10.434-6.918 16.699-6.918h283.39-0.003906c6.2656 0 12.27 2.4883 16.699 6.918 4.4297 4.4297 6.918 10.438 6.918 16.699v236.16c-12.477 5.2617-23.773 12.973-33.219 22.672-1.7578-4.3672-4.7812-8.1094-8.6797-10.746-3.8984-2.6367-8.5-4.0469-13.207-4.0508h-31.488c-6.2617 0-12.27 2.4844-16.699 6.9141-4.4258 4.4297-6.9141 10.438-6.9141 16.699v15.746c0 6.2617 2.4883 12.27 6.9141 16.699 4.4297 4.4258 10.438 6.9141 16.699 6.9141h26.453c-1.25 5.1758-2.0898 10.441-2.5195 15.746h-23.934c-6.2617 0-12.27 2.4883-16.699 6.918-4.4258 4.4258-6.9141 10.434-6.9141 16.699v15.742c0 6.2656 2.4883 12.27 6.9141 16.699 4.4297 4.4297 10.438 6.918 16.699 6.918h31.488c2.5859 0.015625 5.1523-0.46484 7.5586-1.418 7.7422 12.75 18.23 23.613 30.699 31.805-2.1719 0.75781-4.4648 1.1328-6.7695 1.1016zm-23.613-149.57v15.746c0 2.0859-0.83203 4.0898-2.3086 5.5664-1.4766 1.4766-3.4766 2.3047-5.5664 2.3047h-31.488c-4.3477 0-7.8711-3.5234-7.8711-7.8711v-15.746c0-4.3477 3.5234-7.8711 7.8711-7.8711h31.488c2.0898 0 4.0898 0.82812 5.5664 2.3047 1.4766 1.4766 2.3086 3.4805 2.3086 5.5664zm-7.875 102.34h-31.488c-4.3477 0-7.8711-3.5234-7.8711-7.8711v-15.742c0-4.3477 3.5234-7.875 7.8711-7.875h23.934c0.77734 10.84 3.3281 21.477 7.5547 31.488zm94.465 47.23v0.003906c-9.6562 0.003906-19.242-1.6445-28.34-4.8828-5.0625-1.6523-9.918-3.8672-14.484-6.6094-26.957-15.418-43.641-44.047-43.766-75.102-0.058593-2.1055 0.046876-4.2109 0.3125-6.2969 1.0312-15.582 6.375-30.574 15.43-43.297 8.0625-11.598 18.883-21.012 31.488-27.395 5.0117-2.6484 10.289-4.7578 15.742-6.2969 7.6758-2.2227 15.629-3.3359 23.617-3.3047 30.938 0 59.523 16.504 74.992 43.293 15.469 26.793 15.469 59.801 0 86.594s-44.055 43.297-74.992 43.297zm-173.18-283.39h-31.488v0.003906c-4.3477 0-7.8711 3.5234-7.8711 7.8711 0 4.3477 3.5234 7.875 7.8711 7.875h31.488c4.3477 0 7.8711-3.5273 7.8711-7.875 0-4.3477-3.5234-7.8711-7.8711-7.8711zm-15.742 110.21h-31.488l-0.003906 0.007812c-6.2617 0-12.27 2.4844-16.695 6.9141-4.4297 4.4297-6.918 10.438-6.918 16.699v15.746c0 6.2617 2.4883 12.27 6.918 16.699 4.4258 4.4258 10.434 6.9141 16.695 6.9141h31.488c6.2656 0 12.273-2.4883 16.699-6.9141 4.4297-4.4297 6.918-10.438 6.918-16.699v-15.746c0-6.2617-2.4883-12.27-6.918-16.699-4.4258-4.4297-10.434-6.9141-16.699-6.9141zm7.8711 39.359v0.007813c0 2.0859-0.83203 4.0898-2.3086 5.5664-1.4766 1.4766-3.4766 2.3047-5.5664 2.3047h-31.488c-4.3477 0-7.8711-3.5234-7.8711-7.8711v-15.746c0-4.3477 3.5234-7.8711 7.8711-7.8711h31.488c2.0898 0 4.0898 0.82812 5.5664 2.3047 1.4766 1.4766 2.3086 3.4805 2.3086 5.5664zm-102.34-39.352h-31.488c-6.2656 0-12.273 2.4844-16.699 6.9141-4.4297 4.4297-6.918 10.438-6.918 16.699v15.746c0 6.2617 2.4883 12.27 6.918 16.699 4.4258 4.4258 10.434 6.9141 16.699 6.9141h31.488c6.2617 0 12.27-2.4883 16.699-6.9141 4.4258-4.4297 6.9141-10.438 6.9141-16.699v-15.746c0-6.2617-2.4883-12.27-6.9141-16.699-4.4297-4.4297-10.438-6.9141-16.699-6.9141zm7.8711 39.359c0 2.0859-0.83203 4.0898-2.3047 5.5664-1.4766 1.4766-3.4805 2.3047-5.5664 2.3047h-31.488c-4.3477 0-7.875-3.5234-7.875-7.8711v-15.746c0-4.3477 3.5273-7.8711 7.875-7.8711h31.488c2.0859 0 4.0898 0.82812 5.5664 2.3047 1.4727 1.4766 2.3047 3.4805 2.3047 5.5664zm86.59 39.359h-31.488c-6.2617 0-12.27 2.4883-16.695 6.918-4.4297 4.4258-6.918 10.434-6.918 16.699v15.742c0 6.2656 2.4883 12.27 6.918 16.699 4.4258 4.4297 10.434 6.918 16.695 6.918h31.488c6.2656 0 12.273-2.4883 16.699-6.918 4.4297-4.4297 6.918-10.434 6.918-16.699v-15.742c0-6.2656-2.4883-12.273-6.918-16.699-4.4258-4.4297-10.434-6.918-16.699-6.918zm7.8711 39.359h0.003907c0 2.0898-0.83203 4.0898-2.3086 5.5664-1.4766 1.4766-3.4766 2.3047-5.5664 2.3047h-31.488c-4.3477 0-7.8711-3.5234-7.8711-7.8711v-15.742c0-4.3477 3.5234-7.875 7.8711-7.875h31.488c2.0898 0 4.0898 0.83203 5.5664 2.3086 1.4766 1.4766 2.3086 3.4766 2.3086 5.5664z"/>
 </g>
</svg>