<?xml version="1.0" encoding="UTF-8"?>
<!-- The Best Svg Icon site in the world: iconSvg.co, Visit us! https://iconsvg.co -->
<svg width="800px" height="800px" version="1.1" viewBox="144 144 512 512" xmlns="http://www.w3.org/2000/svg">
 <defs>
  <clipPath id="d">
   <path d="m148.09 316h21.906v22h-21.906z"/>
  </clipPath>
  <clipPath id="c">
   <path d="m630 316h21.902v22h-21.902z"/>
  </clipPath>
  <clipPath id="b">
   <path d="m148.09 358h503.81v293.9h-503.81z"/>
  </clipPath>
  <clipPath id="a">
   <path d="m263 148.09h274v377.91h-274z"/>
  </clipPath>
 </defs>
 <path d="m211.07 194.42v110.99c0.30859 2.875-0.69141 5.7422-2.7266 7.8008-2.0352 2.0586-4.8867 3.0938-7.7695 2.8203h-10.496v20.992h10.496c8.4258 0.24609 16.578-2.9922 22.535-8.9531 5.9609-5.957 9.1992-14.113 8.9531-22.535v-111.11l24.066 24.066 14.84-14.84-41.984-41.984h0.003906c-4.1016-4.0977-10.746-4.0977-14.844 0l-41.984 41.984 14.844 14.844z"/>
 <path d="m567.93 194.42v111.11c-0.24609 8.4219 2.9922 16.578 8.9531 22.535 5.9609 5.9609 14.113 9.1992 22.535 8.9531h10.496v-20.992h-10.496c-2.8594 0.28125-5.6953-0.73438-7.7266-2.7695-2.0352-2.0312-3.0508-4.8672-2.7695-7.7266v-111.11l24.066 24.066 14.84-14.84-41.984-41.984h0.003906c-4.0977-4.0977-10.742-4.0977-14.84 0l-41.984 41.984 14.84 14.84z"/>
 <g clip-path="url(#d)">
  <path d="m148.09 316.03h20.992v20.992h-20.992z"/>
 </g>
 <g clip-path="url(#c)">
  <path d="m630.91 316.03h20.992v20.992h-20.992z"/>
 </g>
 <g clip-path="url(#b)">
  <path d="m620.41 358.02h-104.96v20.992h104.96c2.7852 0 5.4531 1.1055 7.4219 3.0742s3.0742 4.6367 3.0742 7.4219v230.91c0 2.7852-1.1055 5.4531-3.0742 7.4219s-4.6367 3.0742-7.4219 3.0742h-440.83c-5.7969 0-10.496-4.6992-10.496-10.496v-230.91c0-5.7969 4.6992-10.496 10.496-10.496h104.96v-20.992h-104.96c-8.3516 0-16.359 3.3164-22.266 9.2227-5.9062 5.9023-9.2227 13.914-9.2227 22.266v230.91c0 8.3516 3.3164 16.363 9.2227 22.266 5.9062 5.9062 13.914 9.2227 22.266 9.2227h440.83c8.3516 0 16.363-3.3164 22.266-9.2227 5.9062-5.9023 9.2227-13.914 9.2227-22.266v-230.91c0-8.3516-3.3164-16.363-9.2227-22.266-5.9023-5.9062-13.914-9.2227-22.266-9.2227z"/>
 </g>
 <path d="m242.56 599.42c0 2.7852 1.1055 5.4531 3.0742 7.4219s4.6367 3.0742 7.4219 3.0742h52.48v-20.992h-42.855c-2.2031-12.883-8.3516-24.77-17.594-34.012-9.2461-9.2461-21.129-15.395-34.016-17.598v-74.34h-20.992v83.969-0.003906c0 2.7852 1.1055 5.4531 3.0742 7.4219s4.6367 3.0742 7.4219 3.0742c11.133 0 21.812 4.4258 29.688 12.297 7.8711 7.875 12.297 18.555 12.297 29.688z"/>
 <path d="m588.93 537.32c-12.883 2.2031-24.77 8.3516-34.012 17.598-9.2461 9.2422-15.395 21.129-17.598 34.012h-42.855v20.992h52.48c2.7852 0 5.4531-1.1055 7.4219-3.0742s3.0742-4.6367 3.0742-7.4219c0-11.133 4.4258-21.812 12.297-29.688 7.875-7.8711 18.555-12.297 29.688-12.297 2.7852 0 5.4531-1.1055 7.4219-3.0742s3.0742-4.6367 3.0742-7.4219v-83.965h-20.992z"/>
 <path d="m190.08 400h20.992v20.992h-20.992z"/>
 <path d="m588.93 400h20.992v20.992h-20.992z"/>
 <path d="m588.93 588.93h20.992v20.992h-20.992z"/>
 <path d="m190.08 588.93h20.992v20.992h-20.992z"/>
 <path d="m475.73 542.51c-7.1172 13.969-17.957 25.695-31.32 33.883-13.363 8.1914-28.734 12.527-44.406 12.531-15.699 0.054688-31.098-4.3125-44.43-12.605-13.328-8.293-24.055-20.172-30.945-34.277l-18.82 9.2773h0.003906c8.6055 17.633 22.004 32.484 38.664 42.848s35.906 15.824 55.527 15.75c19.574-0.015625 38.766-5.4453 55.449-15.688 16.68-10.246 30.207-24.902 39.078-42.355z"/>
 <g clip-path="url(#a)">
  <path d="m389.5 378.47v23.457c-3.3633-1.2422-6.9141-1.8945-10.496-1.9297h-83.969c-8.3516 0-16.359 3.3164-22.266 9.2227-5.9062 5.9023-9.2227 13.914-9.2227 22.266v62.977-0.003906c0 2.7852 1.1055 5.457 3.0742 7.4219 1.9688 1.9688 4.6367 3.0742 7.4219 3.0742h94.465v-20.992h-83.969v-52.477c0-5.7969 4.6992-10.496 10.496-10.496h83.969c2.7812 0 5.4531 1.1055 7.4219 3.0742 1.9688 1.9648 3.0742 4.6367 3.0742 7.4219v10.496h-73.473v20.992h73.473v62.977h20.992v-62.977h73.473l-0.003906-20.992h-73.469v-10.496c0-5.7969 4.6992-10.496 10.496-10.496h83.969-0.003907c2.7852 0 5.457 1.1055 7.4219 3.0742 1.9688 1.9648 3.0742 4.6367 3.0742 7.4219v52.48l-83.965-0.003906v20.992h94.465-0.003906c2.7852 0 5.457-1.1055 7.4219-3.0742 1.9688-1.9648 3.0742-4.6367 3.0742-7.4219v-62.973c0-8.3516-3.3164-16.363-9.2227-22.266-5.9023-5.9062-13.914-9.2227-22.266-9.2227h-83.965c-3.5859 0.035156-7.1367 0.6875-10.496 1.9297v-23.457c39.832-3.6367 74.945-27.633 92.809-63.422 17.859-35.789 15.926-78.277-5.1172-112.29-21.039-34.02-58.191-54.723-98.188-54.723-40 0-77.152 20.703-98.191 54.723-21.043 34.016-22.977 76.504-5.1172 112.29 17.863 35.789 52.977 59.785 92.812 63.422zm10.496-209.39c25.051 0 49.078 9.9531 66.793 27.668 17.719 17.715 27.668 41.742 27.668 66.797 0 25.055-9.9492 49.082-27.668 66.797-17.715 17.715-41.742 27.668-66.793 27.668-25.055 0-49.082-9.9531-66.797-27.668s-27.668-41.742-27.668-66.797c0.027344-25.047 9.9883-49.059 27.699-66.766 17.707-17.711 41.719-27.672 66.766-27.699z"/>
 </g>
 <path d="m379.01 316.03h10.496v20.992h20.992v-20.992h10.496c5.5664 0 10.906-2.2109 14.844-6.1484 3.9336-3.9375 6.1484-9.2773 6.1484-14.844v-20.992c0-5.5664-2.2148-10.906-6.1484-14.844-3.9375-3.9375-9.2773-6.1484-14.844-6.1484h-41.984v-20.992h41.984v10.496h20.992v-10.496c0-5.5664-2.2148-10.906-6.1484-14.844-3.9375-3.9375-9.2773-6.1484-14.844-6.1484h-10.496v-20.992h-20.992v20.992h-10.496c-5.5703 0-10.91 2.2109-14.844 6.1484-3.9375 3.9375-6.1484 9.2773-6.1484 14.844v20.992c0 5.5664 2.2109 10.906 6.1484 14.844 3.9336 3.9375 9.2734 6.1484 14.844 6.1484h41.984v20.992h-41.984v-10.496h-20.992v10.496c0 5.5664 2.2109 10.906 6.1484 14.844 3.9336 3.9375 9.2734 6.1484 14.844 6.1484z"/>
</svg>