<?xml version="1.0" encoding="UTF-8"?>
<!-- The Best Svg Icon site in the world: iconSvg.co, Visit us! https://iconsvg.co -->
<svg fill="#000000" width="800px" height="800px" version="1.1" viewBox="144 144 512 512" xmlns="http://www.w3.org/2000/svg">
 <g>
  <path d="m258.3 533.82v55.105l-15.742-0.003907c-4.3477 0-7.8711 3.5273-7.8711 7.875v31.488c0 2.0859 0.82812 4.0898 2.3047 5.5664 1.4766 1.4727 3.4766 2.3047 5.5664 2.3047h314.88c2.0898 0 4.0898-0.83203 5.5664-2.3047 1.4766-1.4766 2.3086-3.4805 2.3086-5.5664v-31.488c0-2.0898-0.83203-4.0898-2.3086-5.5664-1.4766-1.4766-3.4766-2.3086-5.5664-2.3086h-15.742v-55.102c0.011719-29.402-9.1211-58.078-26.133-82.055-17.012-23.977-41.059-42.07-68.812-51.77 27.754-9.7031 51.801-27.793 68.812-51.773 17.012-23.977 26.145-52.652 26.133-82.051v-55.105h15.742c2.0898 0 4.0898-0.82812 5.5664-2.3047 1.4766-1.4766 2.3086-3.4805 2.3086-5.5664v-31.488c0-2.0898-0.83203-4.0898-2.3086-5.5664-1.4766-1.4766-3.4766-2.3086-5.5664-2.3086h-314.88c-4.3477 0-7.8711 3.5273-7.8711 7.875v31.488c0 2.0859 0.82812 4.0898 2.3047 5.5664 1.4766 1.4766 3.4766 2.3047 5.5664 2.3047h15.742v55.105c-0.011719 29.398 9.1211 58.074 26.133 82.051 17.012 23.98 41.059 42.07 68.812 51.773-27.754 9.6992-51.801 27.793-68.812 51.77-17.012 23.977-26.145 52.652-26.133 82.055zm291.27 86.59h-299.14v-15.742h299.14zm-249.54-31.488 8.8398-33.164c12.219-46.168 42.016-85.723 83.02-110.21 2.4453-1.4688 5.2461-2.2461 8.1016-2.2461 2.8516 0 5.6523 0.77734 8.0977 2.2461 41.004 24.484 70.801 64.039 83.02 110.21l8.8711 33.164zm-49.594-409.34h299.14v15.742h-299.14zm23.617 86.594v-55.105h251.9v55.105c0.011719 29.031-10.016 57.172-28.379 79.66-18.363 22.484-43.934 37.934-72.383 43.723 3.3047-10.344 10.898-18.766 20.848-23.117 19.109-8.7266 35.316-22.75 46.691-40.414 11.375-17.66 17.441-38.215 17.48-59.223v-16.375c0-2.6641-1.3477-5.1484-3.582-6.6016s-5.0508-1.6758-7.4844-0.59375c-44.418 19.645-94.023 24.301-141.32 13.266l-58.355-13.738c-2.3398-0.55078-4.8086 0-6.6914 1.4961-1.8867 1.4922-2.9844 3.7656-2.9844 6.1719v16.375c0.042969 21.008 6.1094 41.566 17.488 59.227s27.586 31.688 46.703 40.41c9.9414 4.3555 17.527 12.777 20.828 23.117-28.449-5.7891-54.02-21.238-72.383-43.723-18.363-22.488-28.391-50.629-28.379-79.66zm102.34 144v5.5664c0 4.3477 3.5234 7.8711 7.8711 7.8711s7.8711-3.5234 7.8711-7.8711v-16.656c0-0.21875-0.10156-0.41016-0.11719-0.62891-0.41406-9.8906-3.5781-19.469-9.1445-27.656-5.5625-8.1875-13.301-14.66-22.344-18.688-16.367-7.4648-30.25-19.473-39.996-34.594-9.75-15.121-14.949-32.723-14.988-50.715v-6.4297l48.68 11.453c46.656 10.883 95.508 7.543 140.25-9.5898v4.5977c-0.035157 17.988-5.2344 35.59-14.977 50.711s-23.621 27.129-39.984 34.598c-9.043 4.0273-16.781 10.5-22.344 18.688s-8.7305 17.766-9.1445 27.656c0 0.21875-0.11719 0.41016-0.11719 0.62891v16.625c0 4.3477 3.5234 7.8711 7.8711 7.8711s7.8711-3.5234 7.8711-7.8711v-5.5664c28.781 5.4805 54.746 20.828 73.426 43.398 18.676 22.574 28.891 50.953 28.887 80.25v55.105l-9.6953-0.003907-9.9258-37.227h-0.003906c-13.262-50.125-45.609-93.07-90.125-119.65-4.8906-2.9453-10.492-4.5-16.199-4.5-5.7109 0-11.312 1.5547-16.203 4.5-44.516 26.582-76.863 69.527-90.125 119.65l-9.9258 37.227h-9.6992v-55.102c-0.003906-29.301 10.219-57.684 28.898-80.254 18.68-22.574 44.652-37.918 73.438-43.395z"/>
  <path d="m407.87 581.05v-8.9883c9.9688-2.5664 18.051-9.8516 21.629-19.504 3.582-9.6523 2.207-20.445-3.6758-28.891-5.8828-8.4492-15.531-13.477-25.824-13.465-4.1758 0-8.1797-1.6602-11.133-4.6133-2.9531-2.9492-4.6133-6.957-4.6133-11.133 0-4.1719 1.6602-8.1797 4.6133-11.133 2.9531-2.9492 6.957-4.6094 11.133-4.6094s8.1797 1.6602 11.133 4.6094c2.9492 2.9531 4.6094 6.9609 4.6094 11.133 0 4.3477 3.5234 7.875 7.8711 7.875 4.3477 0 7.875-3.5273 7.875-7.875-0.027343-6.957-2.3594-13.715-6.6328-19.211-4.2734-5.4922-10.246-9.418-16.984-11.156v-8.9922c0-4.3477-3.5234-7.8711-7.8711-7.8711s-7.875 3.5234-7.875 7.8711v8.9922c-9.9688 2.5664-18.047 9.8516-21.629 19.5-3.582 9.6523-2.207 20.445 3.6758 28.895 5.8867 8.4453 15.531 13.477 25.828 13.461 4.1758 0 8.1797 1.6602 11.133 4.6133 2.9492 2.9531 4.6094 6.957 4.6094 11.133 0 4.1758-1.6602 8.1797-4.6094 11.133-2.9531 2.9531-6.957 4.6094-11.133 4.6094s-8.1797-1.6562-11.133-4.6094c-2.9531-2.9531-4.6133-6.957-4.6133-11.133 0-4.3477-3.5234-7.8711-7.8711-7.8711-4.3477 0-7.8711 3.5234-7.8711 7.8711 0.023437 6.9609 2.3555 13.715 6.6289 19.211s10.246 9.418 16.984 11.16v8.9883c0 4.3477 3.5273 7.8711 7.875 7.8711s7.8711-3.5234 7.8711-7.8711z"/>
 </g>
</svg>