<?xml version="1.0" encoding="UTF-8"?>
<!-- The Best Svg Icon site in the world: iconSvg.co, Visit us! https://iconsvg.co -->
<svg fill="#000000" width="800px" height="800px" version="1.1" viewBox="144 144 512 512" xmlns="http://www.w3.org/2000/svg">
 <g>
  <path d="m344.89 431.49h110.21c2.0898 0 4.0898-0.83203 5.5664-2.3086 1.4766-1.4766 2.3086-3.4766 2.3086-5.5664v-141.7c0-2.0859-0.83203-4.0898-2.3086-5.5664-1.4766-1.4766-3.4766-2.3047-5.5664-2.3047h-110.21c-4.3477 0-7.8711 3.5234-7.8711 7.8711v141.7c0 2.0898 0.82812 4.0898 2.3047 5.5664 1.4766 1.4766 3.4766 2.3086 5.5664 2.3086zm7.8711-141.7 94.465-0.003907v125.95h-94.465z"/>
  <path d="m486.59 431.49h110.21c2.0859 0 4.0898-0.83203 5.5664-2.3086 1.4727-1.4766 2.3047-3.4766 2.3047-5.5664v-141.7c0-2.0859-0.83203-4.0898-2.3047-5.5664-1.4766-1.4766-3.4805-2.3047-5.5664-2.3047h-110.21c-4.3477 0-7.8711 3.5234-7.8711 7.8711v141.7c0 2.0898 0.82812 4.0898 2.3047 5.5664 1.4766 1.4766 3.4805 2.3086 5.5664 2.3086zm7.8711-141.7 94.465-0.003907v125.95h-94.465z"/>
  <path d="m203.2 604.67h110.21c2.0859 0 4.0898-0.83203 5.5664-2.3047 1.4766-1.4766 2.3047-3.4805 2.3047-5.5664v-141.7c0-2.0859-0.82812-4.0898-2.3047-5.5664-1.4766-1.4766-3.4805-2.3047-5.5664-2.3047h-110.21c-4.3477 0-7.875 3.5234-7.875 7.8711v141.7c0 2.0859 0.83203 4.0898 2.3086 5.5664 1.4766 1.4727 3.4766 2.3047 5.5664 2.3047zm7.8711-141.7h94.465v125.95h-94.465z"/>
  <path d="m344.89 604.67h110.21c2.0898 0 4.0898-0.83203 5.5664-2.3047 1.4766-1.4766 2.3086-3.4805 2.3086-5.5664v-141.7c0-2.0859-0.83203-4.0898-2.3086-5.5664-1.4766-1.4766-3.4766-2.3047-5.5664-2.3047h-110.21c-4.3477 0-7.8711 3.5234-7.8711 7.8711v141.7c0 2.0859 0.82812 4.0898 2.3047 5.5664 1.4766 1.4727 3.4766 2.3047 5.5664 2.3047zm7.8711-141.7h94.465v125.95h-94.465z"/>
  <path d="m596.8 195.32h-7.875v-7.8711c0-8.4375-4.5-16.234-11.809-20.453-7.3047-4.2188-16.309-4.2188-23.613 0-7.3086 4.2188-11.809 12.016-11.809 20.453v7.8711h-15.746v-7.8711c0-8.4375-4.5-16.234-11.805-20.453-7.3086-4.2188-16.312-4.2188-23.617 0-7.3086 4.2188-11.809 12.016-11.809 20.453v7.8711h-157.44v-7.8711c0-8.4375-4.5-16.234-11.809-20.453-7.3047-4.2188-16.309-4.2188-23.613 0-7.3086 4.2188-11.809 12.016-11.809 20.453v7.8711h-15.746v-7.8711c0-8.4375-4.5-16.234-11.809-20.453-7.3047-4.2188-16.309-4.2188-23.613 0-7.3086 4.2188-11.809 12.016-11.809 20.453v7.8711h-7.8711c-10.438 0.015625-20.441 4.1641-27.82 11.543-7.3789 7.3789-11.527 17.383-11.543 27.82v362.11c0.015624 10.434 4.1641 20.438 11.543 27.816 7.3789 7.3789 17.383 11.531 27.82 11.543h393.6c10.434-0.011718 20.438-4.1641 27.816-11.543 7.3789-7.3789 11.531-17.383 11.543-27.816v-362.11c-0.011718-10.438-4.1641-20.441-11.543-27.82-7.3789-7.3789-17.383-11.527-27.816-11.543zm-39.363-7.8711c0-4.3477 3.5273-7.8711 7.875-7.8711s7.8711 3.5234 7.8711 7.8711v23.617c0 4.3477-3.5234 7.8711-7.8711 7.8711s-7.875-3.5234-7.875-7.8711zm-62.977 0c0-4.3477 3.5273-7.8711 7.875-7.8711 4.3477 0 7.8711 3.5234 7.8711 7.8711v23.617c0 4.3477-3.5234 7.8711-7.8711 7.8711-4.3477 0-7.875-3.5234-7.875-7.8711zm-204.67 0c0-4.3477 3.5273-7.8711 7.875-7.8711 4.3477 0 7.8711 3.5234 7.8711 7.8711v23.617c0 4.3477-3.5234 7.8711-7.8711 7.8711-4.3477 0-7.875-3.5234-7.875-7.8711zm-62.977 0c0-4.3477 3.5273-7.8711 7.875-7.8711s7.8711 3.5234 7.8711 7.8711v23.617c0 4.3477-3.5234 7.8711-7.8711 7.8711s-7.875-3.5234-7.875-7.8711zm393.6 409.35c0 6.2617-2.4883 12.27-6.9141 16.699-4.4297 4.4258-10.438 6.9141-16.699 6.9141h-75.465l99.078-99.078zm-110.21 12.484v-75.461c0-6.2656 2.4883-12.273 6.918-16.699 4.4258-4.4297 10.434-6.918 16.699-6.918h75.461zm110.21-114.82h-86.59c-10.438 0.015624-20.441 4.1641-27.82 11.543s-11.527 17.383-11.543 27.82v86.59h-291.26c-6.2656 0-12.273-2.4883-16.699-6.9141-4.4297-4.4297-6.918-10.438-6.918-16.699v-338.5h440.83zm0-251.91-440.83 0.003906v-7.8711c0-6.2656 2.4883-12.273 6.918-16.699 4.4258-4.4297 10.434-6.918 16.699-6.918h7.8711c0 8.4375 4.5 16.234 11.809 20.453 7.3047 4.2188 16.309 4.2188 23.613 0 7.3086-4.2188 11.809-12.016 11.809-20.453h15.746c0 8.4375 4.5 16.234 11.809 20.453 7.3047 4.2188 16.309 4.2188 23.613 0 7.3086-4.2188 11.809-12.016 11.809-20.453h157.44c0 8.4375 4.5 16.234 11.809 20.453 7.3047 4.2188 16.309 4.2188 23.617 0 7.3047-4.2188 11.805-12.016 11.805-20.453h15.746c0 8.4375 4.5 16.234 11.809 20.453 7.3047 4.2188 16.309 4.2188 23.613 0 7.3086-4.2188 11.809-12.016 11.809-20.453h7.875c6.2617 0 12.27 2.4883 16.699 6.918 4.4258 4.4258 6.9141 10.434 6.9141 16.699z"/>
  <path d="m541.7 329.15c2.0859 0 4.0898 0.83203 5.5664 2.3086 1.4766 1.4766 2.3047 3.4766 2.3047 5.5664h15.746c-0.023438-4.8672-1.5469-9.6094-4.3633-13.578-2.8164-3.9688-6.793-6.9688-11.383-8.5898v-9.3203h-15.742v9.3203c-7.0547 2.4844-12.512 8.1719-14.703 15.324-2.1875 7.1484-0.85547 14.918 3.5977 20.926 4.4531 6.0078 11.496 9.5469 18.977 9.5312 3.1836 0 6.0547 1.918 7.2734 4.8594 1.2188 2.9453 0.54297 6.3281-1.707 8.582-2.25 2.25-5.6367 2.9219-8.5781 1.707-2.9414-1.2188-4.8594-4.0898-4.8594-7.2734h-15.746c0.019531 4.8672 1.543 9.6094 4.3633 13.574 2.8164 3.9688 6.793 6.9688 11.383 8.5938v9.3203h15.742v-9.3203c7.0547-2.4883 12.512-8.1719 14.703-15.324 2.1875-7.1523 0.85156-14.918-3.6016-20.93-4.4531-6.0078-11.492-9.5469-18.973-9.5312-4.3477 0-7.8711-3.5234-7.8711-7.8711 0-4.3477 3.5234-7.875 7.8711-7.875z"/>
  <path d="m400 502.34c2.0859 0 4.0898 0.82812 5.5664 2.3047 1.4766 1.4766 2.3047 3.4766 2.3047 5.5664h15.742c-0.019531-4.8672-1.543-9.6094-4.3594-13.578-2.8203-3.9688-6.793-6.9688-11.383-8.5898v-9.3203h-15.746v9.3203c-7.0547 2.4844-12.508 8.1719-14.699 15.324-2.1914 7.1523-0.85547 14.918 3.5977 20.926 4.4531 6.0117 11.496 9.5469 18.977 9.5352 3.1836 0 6.0547 1.918 7.2695 4.8594 1.2188 2.9414 0.54688 6.3281-1.7031 8.5781-2.2539 2.25-5.6406 2.9258-8.582 1.707s-4.8594-4.0898-4.8594-7.2734h-15.742c0.019532 4.8672 1.543 9.6094 4.3633 13.578 2.8164 3.9648 6.793 6.9688 11.379 8.5898v9.3203h15.742l0.003906-9.3203c7.0547-2.4844 12.512-8.1719 14.699-15.324 2.1914-7.1523 0.85547-14.918-3.5977-20.926-4.4531-6.0117-11.496-9.5469-18.973-9.5352-4.3477 0-7.875-3.5234-7.875-7.8711 0-4.3477 3.5273-7.8711 7.875-7.8711z"/>
  <path d="m258.3 502.34c2.0898 0 4.0898 0.82812 5.5664 2.3047 1.4766 1.4766 2.3086 3.4766 2.3086 5.5664h15.742c-0.019531-4.8672-1.543-9.6094-4.3633-13.578-2.8164-3.9688-6.793-6.9688-11.379-8.5898v-9.3203h-15.746v9.3203c-7.0547 2.4844-12.512 8.1719-14.699 15.324-2.1914 7.1523-0.85547 14.918 3.5977 20.926 4.4531 6.0117 11.496 9.5469 18.973 9.5352 3.1836 0 6.0547 1.918 7.2734 4.8594s0.54688 6.3281-1.707 8.5781c-2.25 2.25-5.6367 2.9258-8.5781 1.707-2.9414-1.2188-4.8594-4.0898-4.8594-7.2734h-15.742c0.019531 4.8672 1.543 9.6094 4.3594 13.578 2.8203 3.9648 6.793 6.9688 11.383 8.5898v9.3203h15.742l0.003906-9.3203c7.0547-2.4844 12.508-8.1719 14.699-15.324 2.1914-7.1523 0.85547-14.918-3.5977-20.926-4.4531-6.0117-11.496-9.5469-18.977-9.5352-4.3477 0-7.8711-3.5234-7.8711-7.8711 0-4.3477 3.5234-7.8711 7.8711-7.8711z"/>
  <path d="m400 329.15c2.0859 0 4.0898 0.83203 5.5664 2.3086 1.4766 1.4766 2.3047 3.4766 2.3047 5.5664h15.742c-0.019531-4.8672-1.543-9.6094-4.3594-13.578-2.8203-3.9688-6.793-6.9688-11.383-8.5898v-9.3203h-15.746v9.3203c-7.0547 2.4844-12.508 8.1719-14.699 15.324-2.1914 7.1484-0.85547 14.918 3.5977 20.926 4.4531 6.0078 11.496 9.5469 18.977 9.5312 3.1836 0 6.0547 1.918 7.2695 4.8594 1.2188 2.9453 0.54688 6.3281-1.7031 8.582-2.2539 2.25-5.6406 2.9219-8.582 1.707-2.9414-1.2188-4.8594-4.0898-4.8594-7.2734h-15.742c0.019532 4.8672 1.543 9.6094 4.3633 13.574 2.8164 3.9688 6.793 6.9688 11.379 8.5938v9.3203h15.742l0.003906-9.3203c7.0547-2.4883 12.512-8.1719 14.699-15.324 2.1914-7.1523 0.85547-14.918-3.5977-20.93-4.4531-6.0078-11.496-9.5469-18.973-9.5312-4.3477 0-7.875-3.5234-7.875-7.8711 0-4.3477 3.5273-7.875 7.875-7.875z"/>
  <path d="m203.2 431.49h110.21c2.0859 0 4.0898-0.83203 5.5664-2.3086 1.4766-1.4766 2.3047-3.4766 2.3047-5.5664v-141.7c0-2.0859-0.82812-4.0898-2.3047-5.5664-1.4766-1.4766-3.4805-2.3047-5.5664-2.3047h-110.21c-4.3477 0-7.875 3.5234-7.875 7.8711v141.7c0 2.0898 0.83203 4.0898 2.3086 5.5664 1.4766 1.4766 3.4766 2.3086 5.5664 2.3086zm7.8711-141.7h94.465v125.95h-94.465z"/>
  <path d="m258.3 329.15c2.0898 0 4.0898 0.83203 5.5664 2.3086 1.4766 1.4766 2.3086 3.4766 2.3086 5.5664h15.742c-0.019531-4.8672-1.543-9.6094-4.3633-13.578-2.8164-3.9688-6.793-6.9688-11.379-8.5898v-9.3203h-15.746v9.3203c-7.0547 2.4844-12.512 8.1719-14.699 15.324-2.1914 7.1484-0.85547 14.918 3.5977 20.926 4.4531 6.0078 11.496 9.5469 18.973 9.5312 3.1836 0 6.0547 1.918 7.2734 4.8594 1.2188 2.9453 0.54688 6.3281-1.707 8.582-2.25 2.25-5.6367 2.9219-8.5781 1.707-2.9414-1.2188-4.8594-4.0898-4.8594-7.2734h-15.742c0.019531 4.8672 1.543 9.6094 4.3594 13.574 2.8203 3.9688 6.793 6.9688 11.383 8.5938v9.3203h15.742l0.003906-9.3203c7.0547-2.4883 12.508-8.1719 14.699-15.324 2.1914-7.1523 0.85547-14.918-3.5977-20.93-4.4531-6.0078-11.496-9.5469-18.977-9.5312-4.3477 0-7.8711-3.5234-7.8711-7.8711 0-4.3477 3.5234-7.875 7.8711-7.875z"/>
 </g>
</svg>