<?xml version="1.0" encoding="UTF-8"?>
<!-- The Best Svg Icon site in the world: iconSvg.co, Visit us! https://iconsvg.co -->
<svg width="800px" height="800px" version="1.1" viewBox="144 144 512 512" xmlns="http://www.w3.org/2000/svg">
 <defs>
  <clipPath id="c">
   <path d="m163 148.09h474v440.91h-474z"/>
  </clipPath>
  <clipPath id="b">
   <path d="m211 557h95v94.902h-95z"/>
  </clipPath>
  <clipPath id="a">
   <path d="m494 557h95v94.902h-95z"/>
  </clipPath>
 </defs>
 <g clip-path="url(#c)">
  <path d="m588.93 588.93h-377.86c-12.523-0.011719-24.527-4.9922-33.383-13.848s-13.836-20.859-13.852-33.383v-346.37c0.015624-12.52 4.9961-24.527 13.852-33.383 8.8555-8.8516 20.859-13.832 33.383-13.848h377.86c12.523 0.015625 24.531 4.9961 33.383 13.848 8.8555 8.8555 13.836 20.863 13.852 33.383v346.37c-0.015625 12.523-4.9961 24.527-13.852 33.383-8.8516 8.8555-20.859 13.836-33.383 13.848zm-377.86-409.34c-4.1758 0.003907-8.1758 1.6641-11.129 4.6172-2.9531 2.9492-4.6133 6.9531-4.6172 11.125v346.37c0.003906 4.1758 1.6641 8.1758 4.6172 11.129 2.9531 2.9492 6.9531 4.6094 11.129 4.6133h377.86c4.1758-0.003906 8.1797-1.6641 11.129-4.6133 2.9531-2.9531 4.6133-6.9531 4.6172-11.129v-346.37c-0.003906-4.1719-1.6641-8.1758-4.6172-11.125-2.9492-2.9531-6.9531-4.6133-11.129-4.6172z"/>
 </g>
 <path d="m557.44 525.95h-314.88c-4.1758 0-8.1797-1.6562-11.133-4.6094s-4.6133-6.957-4.6133-11.133v-283.39c0-4.1758 1.6602-8.1797 4.6133-11.133 2.9531-2.9492 6.957-4.6094 11.133-4.6094h314.88c4.1758 0 8.1797 1.6602 11.133 4.6094 2.9531 2.9531 4.6133 6.957 4.6133 11.133v283.39c0 4.1758-1.6602 8.1797-4.6133 11.133-2.9531 2.9531-6.957 4.6094-11.133 4.6094zm-299.14-31.488h283.39v-251.9h-283.39z"/>
 <path d="m573.18 305.54h-47.234c-5.625 0-10.82-3-13.633-7.8711-2.8125-4.875-2.8125-10.875 0-15.746 2.8125-4.8711 8.0078-7.8711 13.633-7.8711h47.234c5.625 0 10.82 3 13.633 7.8711 2.8125 4.8711 2.8125 10.871 0 15.746-2.8125 4.8711-8.0078 7.8711-13.633 7.8711z"/>
 <path d="m573.18 462.98h-47.234c-5.625 0-10.82-3.0039-13.633-7.875-2.8125-4.8711-2.8125-10.871 0-15.742s8.0078-7.8711 13.633-7.8711h47.234c5.625 0 10.82 3 13.633 7.8711s2.8125 10.871 0 15.742c-2.8125 4.8711-8.0078 7.875-13.633 7.875z"/>
 <g clip-path="url(#b)">
  <path d="m274.05 651.9h-31.488c-8.3477-0.007813-16.352-3.3281-22.254-9.2305-5.9062-5.9062-9.2266-13.91-9.2344-22.258v-47.23c0-4.1758 1.6602-8.1797 4.6094-11.133 2.9531-2.9531 6.957-4.6133 11.133-4.6133h62.977c4.1758 0 8.1797 1.6602 11.133 4.6133s4.6133 6.957 4.6133 11.133v47.23c-0.011718 8.3477-3.332 16.352-9.2344 22.258-5.9023 5.9023-13.906 9.2227-22.254 9.2305zm-31.488-62.977v31.488h31.512l-0.015624-31.488z"/>
 </g>
 <g clip-path="url(#a)">
  <path d="m557.44 651.9h-31.488c-8.3477-0.007813-16.352-3.3281-22.254-9.2305-5.9023-5.9062-9.2227-13.91-9.2344-22.258v-47.23c0-4.1758 1.6602-8.1797 4.6133-11.133s6.957-4.6133 11.133-4.6133h62.977c4.1758 0 8.1797 1.6602 11.133 4.6133s4.6094 6.957 4.6094 11.133v47.23c-0.007812 8.3477-3.3281 16.352-9.2305 22.258-5.9062 5.9023-13.906 9.2227-22.258 9.2305zm-31.488-62.977v31.488h31.512l-0.015626-31.488z"/>
 </g>
 <path d="m400 447.23c-20.879 0-40.902-8.293-55.664-23.055-14.766-14.766-23.059-34.789-23.059-55.664 0-20.879 8.293-40.902 23.059-55.664 14.762-14.766 34.785-23.059 55.664-23.059 20.875 0 40.898 8.293 55.664 23.059 14.762 14.762 23.055 34.785 23.055 55.664-0.023438 20.867-8.3281 40.879-23.082 55.637-14.758 14.758-34.77 23.059-55.637 23.082zm0-125.95c-12.527 0-24.543 4.9766-33.398 13.836-8.8594 8.8555-13.836 20.871-13.836 33.398 0 12.527 4.9766 24.539 13.836 33.398 8.8555 8.8555 20.871 13.832 33.398 13.832 12.523 0 24.539-4.9766 33.398-13.832 8.8555-8.8594 13.832-20.871 13.832-33.398-0.011719-12.523-4.9961-24.531-13.848-33.383-8.8555-8.8555-20.863-13.836-33.383-13.852z"/>
 <path d="m355.46 339.73c-4.1758 0.003906-8.1836-1.6562-11.133-4.6133l-22.266-22.266c-3.0273-2.9375-4.75-6.9648-4.7812-11.18-0.03125-4.2188 1.6289-8.2695 4.6094-11.254 2.9844-2.9805 7.0352-4.6406 11.254-4.6094s8.2461 1.7539 11.18 4.7812l22.262 22.262c2.9531 2.9531 4.6133 6.957 4.6133 11.133s-1.6602 8.1797-4.6094 11.133c-2.9531 2.9531-6.957 4.6094-11.133 4.6133z"/>
 <path d="m333.2 451.04c-4.1758 0-8.1797-1.6602-11.133-4.6133-2.9531-2.9492-4.6094-6.9531-4.6094-11.129s1.6562-8.1797 4.6094-11.133l22.262-22.262c4-3.8789 9.7461-5.3555 15.117-3.8867 5.3711 1.4688 9.5664 5.6641 11.035 11.035 1.4648 5.3711-0.011719 11.117-3.8867 15.113l-22.262 22.262h-0.003907c-2.9492 2.957-6.9531 4.6172-11.129 4.6133z"/>
 <path d="m466.8 451.04c-4.1797 0.003906-8.1836-1.6562-11.133-4.6133l-22.262-22.262c-3.8789-3.9961-5.3555-9.7422-3.8867-15.113 1.4688-5.3711 5.6641-9.5664 11.035-11.035 5.3672-1.4688 11.117 0.007813 15.113 3.8867l22.266 22.262c2.9531 2.9531 4.6133 6.957 4.6133 11.133s-1.6602 8.1797-4.6133 11.129c-2.9492 2.9531-6.9531 4.6133-11.129 4.6133z"/>
 <path d="m444.53 339.73c-4.1758-0.003907-8.1797-1.6602-11.133-4.6133-2.9492-2.9531-4.6094-6.957-4.6094-11.133s1.6602-8.1797 4.6133-11.133l22.262-22.262c3.9961-3.875 9.7422-5.3555 15.113-3.8867s9.5664 5.6641 11.035 11.035c1.4688 5.3711-0.007812 11.117-3.8867 15.113l-22.262 22.262v0.003907c-2.9492 2.957-6.957 4.6172-11.133 4.6133z"/>
</svg>