<?xml version="1.0" encoding="UTF-8"?>
<!-- The Best Svg Icon site in the world: iconSvg.co, Visit us! https://iconsvg.co -->
<svg fill="#000000" width="800px" height="800px" version="1.1" viewBox="144 144 512 512" xmlns="http://www.w3.org/2000/svg">
 <g>
  <path d="m384.25 226.81c0 5.625 3 10.824 7.8711 13.637s10.875 2.8125 15.746 0 7.8711-8.0117 7.8711-13.637v-31.488c0-5.625-3-10.82-7.8711-13.633s-10.875-2.8125-15.746 0-7.8711 8.0078-7.8711 13.633z"/>
  <path d="m431.49 226.81c0 5.625 3 10.824 7.8711 13.637s10.871 2.8125 15.742 0c4.8711-2.8125 7.875-8.0117 7.875-13.637v-31.488c0-5.625-3.0039-10.82-7.875-13.633-4.8711-2.8125-10.871-2.8125-15.742 0s-7.8711 8.0078-7.8711 13.633z"/>
  <path d="m337.02 226.81c0 5.625 3 10.824 7.8711 13.637 4.8711 2.8125 10.871 2.8125 15.742 0 4.8711-2.8125 7.875-8.0117 7.875-13.637v-31.488c0-5.625-3.0039-10.82-7.875-13.633-4.8711-2.8125-10.871-2.8125-15.742 0-4.8711 2.8125-7.8711 8.0078-7.8711 13.633z"/>
  <path d="m289.79 376.38c0.019532-6.2578 2.5156-12.254 6.9375-16.68 4.4258-4.4258 10.422-6.918 16.68-6.9375h25.27c-1.0508-5.1836-1.6055-10.453-1.6523-15.742 0-20.879 8.293-40.902 23.055-55.664 14.766-14.762 34.785-23.059 55.664-23.059 20.879 0 40.902 8.2969 55.664 23.059s23.055 34.785 23.055 55.664c0 20.875-8.293 40.898-23.055 55.664-14.762 14.762-34.785 23.055-55.664 23.055-15 0.058593-29.691-4.2656-42.273-12.438-3.4141 3.6055-7.4727 6.543-11.965 8.6602 2.7617 3.4258 4.7734 7.3945 5.9062 11.648h198.69c1.5547-7.5586 5.2891-14.496 10.746-19.953 5.457-5.457 12.395-9.1953 19.957-10.746v-111.78c-7.5625-1.5547-14.5-5.2891-19.957-10.746s-9.1914-12.398-10.746-19.957h-51.012c-6.2227 5.5547-14.426 8.3672-22.746 7.8047-8.3242-0.5625-16.07-4.4531-21.492-10.797-5.9102 6.8945-14.535 10.863-23.617 10.863s-17.707-3.9688-23.617-10.863c-5.9062 6.8945-14.535 10.863-23.613 10.863-9.082 0-17.707-3.9688-23.617-10.863-5.4219 6.3438-13.168 10.234-21.492 10.797s-16.523-2.25-22.75-7.8047h-66.754c-1.5508 7.5586-5.2891 14.5-10.746 19.957s-12.395 9.1914-19.953 10.746v111.78c7.5586 1.5508 14.496 5.2891 19.953 10.746 5.457 5.457 9.1953 12.395 10.746 19.953h24.402zm236.16-47.23h31.488v-0.003906c4.3477 0 7.875 3.5273 7.875 7.875 0 4.3477-3.5273 7.8711-7.875 7.8711h-31.488c-4.3477 0-7.8711-3.5234-7.8711-7.8711 0-4.3477 3.5234-7.875 7.8711-7.875zm-259.77 7.8711c0-4.3477 3.5234-7.875 7.8711-7.875h31.488c4.3477 0 7.8711 3.5273 7.8711 7.875 0 4.3477-3.5234 7.8711-7.8711 7.8711h-31.488c-4.3477 0-7.8711-3.5234-7.8711-7.8711z"/>
  <path d="m289.79 439.36h-31.488c-4.3477 0-7.8711-3.5234-7.8711-7.8711-0.019532-6.2578-2.5117-12.254-6.9375-16.68-4.4258-4.4258-10.422-6.918-16.68-6.9375-4.3477 0-7.8711-3.5234-7.8711-7.8711v-125.95c0-4.3477 3.5234-7.8711 7.8711-7.8711 6.2578-0.019531 12.254-2.5156 16.68-6.9375 4.4258-4.4258 6.918-10.422 6.9375-16.68 0-4.3477 3.5234-7.8711 7.8711-7.8711h64.078c-0.69141-2.5703-1.0586-5.2148-1.1016-7.875h-110.21v220.42h78.719z"/>
  <path d="m478.72 226.81c0 5.625 3 10.824 7.8711 13.637s10.875 2.8125 15.746 0c4.8711-2.8125 7.8711-8.0117 7.8711-13.637v-31.488c0-5.625-3-10.82-7.8711-13.633-4.8711-2.8125-10.875-2.8125-15.746 0s-7.8711 8.0078-7.8711 13.633z"/>
  <path d="m321.28 195.32h-141.7v228.29h15.742v-204.67c0-4.3477 3.5273-7.8711 7.875-7.8711h118.08z"/>
  <path d="m620.41 226.81h-94.465c-0.039063 2.6602-0.41016 5.3047-1.1016 7.875h48.336c2.0859 0 4.0898 0.82812 5.5664 2.3047 1.4766 1.4766 2.3047 3.4766 2.3047 5.5664 0.019531 6.2578 2.5117 12.254 6.9375 16.68 4.4258 4.4219 10.422 6.918 16.68 6.9375 2.0859 0 4.0898 0.82812 5.5664 2.3047 1.4766 1.4766 2.3047 3.4766 2.3047 5.5664v125.95c0 2.0859-0.82812 4.0898-2.3047 5.5664-1.4766 1.4766-3.4805 2.3047-5.5664 2.3047-6.2578 0.019531-12.254 2.5117-16.68 6.9375-4.4258 4.4258-6.918 10.422-6.9375 16.68 0 2.0859-0.82813 4.0898-2.3047 5.5664-1.4766 1.4727-3.4805 2.3047-5.5664 2.3047h-204.67v7.8711h251.9z"/>
  <path d="m313.41 557.44h204.67v62.977h-204.67z"/>
  <path d="m525.95 195.32h70.848v15.742h-70.848z"/>
  <path d="m381.81 389.69c10.043 6.7148 21.852 10.305 33.93 10.312 16.703 0 32.723-6.6367 44.531-18.445 11.809-11.812 18.445-27.828 18.445-44.531 0-16.703-6.6367-32.723-18.445-44.531-11.809-11.812-27.828-18.445-44.531-18.445-16.703 0-32.719 6.6328-44.531 18.445-11.809 11.809-18.445 27.828-18.445 44.531 0.027344 5.3125 0.71484 10.602 2.0469 15.742h21.57c2.0859 0 4.0898 0.83203 5.5664 2.3047 1.4766 1.4766 2.3047 3.4805 2.3047 5.5664v15.746c-0.035156 4.543-0.85938 9.043-2.4414 13.305zm41.801-44.793h-15.742c-8.4375 0-16.234-4.5-20.453-11.809-4.2188-7.3047-4.2188-16.309 0-23.617 4.2188-7.3047 12.016-11.805 20.453-11.805v-7.875c0-4.3477 3.5234-7.8711 7.8711-7.8711 4.3477 0 7.8711 3.5234 7.8711 7.8711v7.875c6.2656 0 12.273 2.4844 16.699 6.9141 4.4297 4.4297 6.918 10.438 6.918 16.699 0 4.3477-3.5234 7.8711-7.8711 7.8711s-7.8711-3.5234-7.8711-7.8711c0-2.0859-0.83203-4.0898-2.3086-5.5664-1.4766-1.4766-3.4766-2.3047-5.5664-2.3047h-15.742c-4.3477 0-7.8711 3.5234-7.8711 7.8711s3.5234 7.8711 7.8711 7.8711h15.742c8.4375 0 16.234 4.5039 20.453 11.809 4.2188 7.3086 4.2188 16.309 0 23.617-4.2188 7.3086-12.016 11.809-20.453 11.809v7.8711c0 4.3477-3.5234 7.8711-7.8711 7.8711-4.3477 0-7.8711-3.5234-7.8711-7.8711v-7.8711c-6.2656 0-12.27-2.4883-16.699-6.918-4.4297-4.4297-6.918-10.434-6.918-16.699 0-4.3477 3.5234-7.8711 7.8711-7.8711s7.875 3.5234 7.875 7.8711c0 2.0898 0.82812 4.0898 2.3047 5.5664 1.4766 1.4766 3.4766 2.3047 5.5664 2.3047h15.742c4.3477 0 7.875-3.5234 7.875-7.8711s-3.5273-7.8711-7.875-7.8711z"/>
  <path d="m329.15 525.95h173.18v15.742h-173.18z"/>
  <path d="m407.87 486.59c4.3477 0 7.8711 3.5234 7.8711 7.8711 0 4.3477-3.5234 7.875-7.8711 7.875h-62.977v7.8711h141.7v-15.746c0.015625-2.0859 0.83203-4.0859 2.2852-5.5859l21.332-21.254v-4.6445h-149.57c-4.3711 0-7.9414-3.5-8.0273-7.875 0.007813-0.52734 0.0625-1.0547 0.15625-1.5742v-22.039c-0.03125-4.168-1.6992-8.1562-4.6445-11.102-2.9453-2.9453-6.9336-4.6133-11.098-4.6445h-7.875c-4.3477 0-7.8711-3.5234-7.8711-7.8711s3.5234-7.8711 7.8711-7.8711h15.746c6.2578-0.019531 12.254-2.5156 16.68-6.9375 4.4219-4.4258 6.918-10.422 6.9375-16.68v-7.8711h-55.105c-4.3477 0-7.8711 3.5234-7.8711 7.8711v75.492l34.715 34.715z"/>
 </g>
</svg>