<?xml version="1.0" encoding="UTF-8"?>
<!-- The Best Svg Icon site in the world: iconSvg.co, Visit us! https://iconsvg.co -->
<svg fill="#000000" width="800px" height="800px" version="1.1" viewBox="144 144 512 512" xmlns="http://www.w3.org/2000/svg">
 <g>
  <path d="m404.88 271.04c5.1875 1.1875 15.109 3.0664 15.141 14.379 0.011719 4.3789-2.8633 12.879-17.664 12.879-6.8711 0-16.688-2.8711-16.688-14.664 0 0 0.11719-6.1523-8.0117-6.1523-8.1367 0-8.7656 6.1523-8.7656 6.1523 0 7.8086 1.1836 13.305 5.5 18.637 6.4844 8.0859 14.438 10.914 20.625 11.895v6.5312c0 4.1719 3.3867 7.5586 7.5586 7.5586s7.5586-3.3867 7.5586-7.5586l0.003907-6.5938c19.391-3.168 26.668-20.113 26.668-30.844 0-7.8125-3.0039-19.801-22.051-25.996l-17.109-5.3242c-2.625-0.79688-13.305-4.3867-12.16-14.359 0.43359-3.8047 1.6016-6.7305 4.8281-8.7227 2.6289-1.5938 5.8828-2.3984 9.7578-2.3984 6.5859 0 11.07 1.0547 13.992 4.6367 1.6055 2.0742 2.1328 3.5938 2.5703 7.1797 0 0 0.52344 5.9102 8.0195 5.9102 7.4922 0 8.6445-5.6289 8.7969-6.6406 0.67188-4.5938-1.9805-12.281-5.668-16.848-4.2578-5.2734-10.305-8.4648-17.633-9.8242v-7.3203c0-4.1719-3.3867-7.5586-7.5586-7.5586s-7.5586 3.3867-7.5586 7.5586v6.9492c-8.7695 1.0664-15.445 4.4141-19.965 10.113-3.9453 5.0195-10.539 14.68-3.7891 31.398 5.8086 14.414 33.602 19.027 33.602 19.027z"/>
  <path d="m611.24 417.91c-2.207-3.543-6.8711-4.625-10.402-2.4219l-35.77 22.25c-3.543 2.2148-8.2109 1.1445-10.418-2.3867l-58.559-93.281c-2.2148-3.5273-1.1484-8.2031 2.3516-10.398l35.746-22.234c3.5469-2.207 4.6289-6.8633 2.4219-10.402-2.207-3.543-6.8672-4.625-10.402-2.4219l-35.777 22.25c-6.4219 4.0352-10.078 10.793-10.516 17.836-18.066-6.6719-31.383-0.066406-54.305 11.332l-6.418 3.1797-15.254 5.6289-34.754-13.215c-15.66-4.8984-28.863-8.3672-40.266-9.4766-1.0781-6.0898-4.5508-11.742-10.207-15.297l-35.746-22.234c-3.5234-2.1953-8.1758-1.125-10.387 2.3984l-74.633 118.86c-1.0664 1.7031-1.4141 3.7617-0.96094 5.7227 0.45312 1.9609 1.668 3.6562 3.375 4.7148l35.719 22.219c2.9961 1.8828 6.3789 2.9844 9.8633 3.3164 3.1172 8.3516 8.7109 22.156 18.652 34.84-5.6367 6.0391-6.8008 15.211-2.1602 22.484 5.5625 8.7305 17.281 11.371 26.156 5.8984l4.3164-3.1602c-5.4883 6.0352-6.5898 15.09-1.9961 22.293 5.5625 8.7305 17.285 11.371 26.164 5.8984l6.3086-4.6133 2.5508 2.1094c-5.9688 6.0195-7.2695 15.453-2.5234 22.902 5.5625 8.7266 17.281 11.367 26.164 5.8945l5.9688-4.3633 0.074219 0.058594c-6.5859 5.9805-8.1406 15.871-3.2188 23.602 5.5625 8.7266 17.285 11.371 26.156 5.8945l6.9219-5.0625c4.6758 3.3359 10.098 5.0625 15.527 5.0625 7.4805 0 14.898-3.1016 20.051-9.1406 2.6211-3.0586 4.332-6.6367 5.2812-10.43 4.3438 2.7266 9.2383 4.1367 14.16 4.1367 7.5664 0 15.086-3.1641 20.32-9.2969 4-4.6914 6.0469-10.5 6.1211-16.555 0.47266 0.023437 0.94531 0.11719 1.4219 0.11719 7.5625 0 15.078-3.1641 20.309-9.2969 2.7148-3.1797 4.4727-6.8906 5.4219-10.82 4.0547 2.2656 8.5586 3.3867 13.047 3.3867 7.5625 0 15.078-3.1641 20.309-9.2891 4.5781-5.3594 6.7656-12.168 6.1562-19.16-0.57031-6.5234-3.5938-12.41-8.3789-16.816l4.4492-5.1406c1.7266-1.9961 3.8086-4.2461 6.0391-6.6641 7.0039-7.582 15.281-16.566 20.082-25.262 1.7266 0.40625 3.4961 0.63672 5.2812 0.63672 4.1055 0 8.2617-1.1133 11.98-3.4492l35.746-22.234c3.5547-2.1992 4.6367-6.8594 2.4375-10.402zm-95.273 98.676c-4.0742 4.7578-11.336 5.3672-16.199 1.3672l-14.09-11.586c-0.10547-0.089844-0.17578-0.19531-0.28125-0.28125l-75.484-62.02c-0.23828-0.19531-0.5-0.33594-0.75-0.50391-0.17578-0.10938-0.33594-0.25-0.52344-0.34766-0.054687-0.023438-0.11719-0.039062-0.17188-0.070312-0.83984-0.41797-1.7344-0.68359-2.6406-0.76563-2.4102-0.22656-4.875 0.71094-6.5312 2.7109l-0.019531 0.019531c-1.4102 1.7188-1.9102 3.8633-1.6055 5.9062 0.26562 1.7852 1.1445 3.4922 2.6445 4.7266l0.003906 0.003906 1.3164 1.0781 74.434 61.203c2.1406 1.8906 3.4648 4.4375 3.7148 7.25 0.25781 2.9219-0.66406 5.7734-2.6016 8.0352-4.0625 4.7617-11.316 5.3789-16.199 1.3672l-3.3672-2.7656c-0.03125-0.023438-0.050782-0.054688-0.082032-0.082031l-72.031-59.172c-3.2305-2.6484-7.9844-2.1875-10.637 1.043-2.6445 3.2227-2.1875 7.9844 1.043 10.637l72.125 59.262c2.2422 1.8984 3.6328 4.5234 3.8828 7.4219 0.25781 2.9219-0.66016 5.7734-2.5859 8.0273-4.0664 4.7617-11.324 5.3906-16.199 1.3711l-15.184-12.473c-0.125-0.10547-0.21484-0.24219-0.34375-0.34375l-56.516-46.359c-0.19531-0.16016-0.41406-0.27734-0.62109-0.41406-3.1992-2.1328-7.5234-1.5703-10.012 1.4609l-0.003906 0.003906c-2.6406 3.2227-2.1758 7.9805 1.043 10.625l0.007812 0.007813 0.84766 0.69531 55.973 45.977c2.1445 1.9141 3.4883 4.4688 3.7266 7.2734 0.24609 2.832-0.63672 5.5859-2.4844 7.7539-3.9766 4.6602-11.156 5.1875-16.016 1.168l-63.062-52.043c-0.023437-0.019531-0.054687-0.035156-0.085937-0.054687-0.019532-0.019531-0.035156-0.039063-0.058594-0.058594l-48.629-38.215c-11.16-11.309-17.512-26.07-21.023-35.266 2.6133-1.75 4.8906-4.0156 6.625-6.7812l58.547-93.273c0.21094-0.33594 0.32812-0.71094 0.52344-1.0586 8.9141 0.69922 20.496 3.4219 37.836 8.8359l22.523 8.5703-23.328 10.957c-6.3281 3.3789-10.914 8.9766-12.914 15.77-1.9648 6.6367-1.1992 13.609 2.1406 19.633 4.7695 8.6367 13.895 13.504 23.176 13.504 4.168-0.003906 8.3672-0.98437 12.223-3.0469l60.027-27.715 34.672 28.008c2.3164 1.9102 3.7383 4.5859 3.9961 7.5312 0.25781 2.9219-0.66406 5.7734-2.5898 8.0273-4.0742 4.7695-11.324 5.375-16.426 1.1875l-29.121-22.168c-0.16016-0.12109-0.34375-0.20703-0.51562-0.3125-0.21484-0.13672-0.42188-0.28906-0.64453-0.39844-0.24609-0.12109-0.5-0.21094-0.74609-0.3125-0.20703-0.082032-0.41406-0.16797-0.625-0.22656-0.26562-0.074219-0.53516-0.11719-0.80469-0.16016-0.21094-0.035156-0.41797-0.082031-0.62891-0.10156-0.26562-0.019531-0.52344-0.011718-0.78516 0-0.22656 0.003907-0.44922 0-0.67578 0.023438-0.23828 0.03125-0.47266 0.085938-0.70703 0.13281-0.24609 0.050782-0.48828 0.097657-0.73047 0.17188-0.21094 0.066406-0.41406 0.15625-0.61328 0.24609-0.24609 0.10547-0.49219 0.19531-0.73047 0.32422-0.19141 0.10547-0.37109 0.24219-0.55469 0.36328-0.22656 0.15234-0.45312 0.29688-0.66016 0.47266-0.1875 0.15625-0.34766 0.33594-0.52344 0.51562-0.14453 0.15234-0.3125 0.27734-0.44141 0.4375-0.039063 0.046876-0.058594 0.097657-0.097656 0.14063-0.035157 0.039062-0.082032 0.074218-0.10938 0.11719-0.11719 0.15625-0.19531 0.32812-0.30078 0.49219-0.14453 0.22656-0.30078 0.44141-0.41797 0.67969-0.10547 0.21484-0.1875 0.44141-0.27734 0.66406-0.097657 0.23828-0.19141 0.46875-0.26172 0.71484-0.066406 0.23047-0.10156 0.47266-0.14062 0.71094-0.039063 0.24219-0.089844 0.48438-0.10547 0.72656-0.019531 0.23828-0.011718 0.47266-0.003906 0.71484 0.003906 0.24609 0 0.49219 0.03125 0.73438 0.023438 0.22656 0.082031 0.44922 0.125 0.67578 0.050781 0.25 0.10156 0.50391 0.17188 0.74609 0.070313 0.21094 0.16016 0.41406 0.25 0.62109 0.10156 0.24609 0.19531 0.48828 0.32422 0.72656 0.10547 0.19531 0.24219 0.37891 0.36719 0.57031 0.14453 0.21484 0.29297 0.44141 0.46484 0.64844 0.15234 0.17969 0.33203 0.34375 0.51562 0.51953 0.14453 0.14453 0.27734 0.3125 0.4375 0.44922l85.379 71.059c2.3164 1.9102 3.7344 4.5859 3.9883 7.5312 0.25781 2.918-0.66406 5.7656-2.5859 8.0273z"/>
 </g>
</svg>