<?xml version="1.0" encoding="UTF-8"?>
<!-- The Best Svg Icon site in the world: iconSvg.co, Visit us! https://iconsvg.co -->
<svg width="800px" height="800px" version="1.1" viewBox="144 144 512 512" xmlns="http://www.w3.org/2000/svg">
 <defs>
  <clipPath id="c">
   <path d="m400 352h251.9v299.9h-251.9z"/>
  </clipPath>
  <clipPath id="b">
   <path d="m148.09 352h236.91v299.9h-236.91z"/>
  </clipPath>
  <clipPath id="a">
   <path d="m392 148.09h16v31.906h-16z"/>
  </clipPath>
 </defs>
 <g clip-path="url(#c)">
  <path d="m612.54 352.77c-10.434 0.011719-20.438 4.1641-27.816 11.543-7.3789 7.3789-11.531 17.383-11.543 27.816v57.238l-22.625 22.633c-1.3398-9.7305-6.2656-18.605-13.812-24.887-7.5469-6.2852-17.172-9.5156-26.98-9.0664-9.8125 0.44922-19.098 4.5469-26.039 11.496l-72.195 72.195v-0.003906c-7.4062 7.3672-11.559 17.391-11.531 27.836v94.465c0 2.0859 0.82812 4.0898 2.3047 5.5664 1.4766 1.4766 3.4766 2.3047 5.5664 2.3047h125.95c2.0859 0 4.0898-0.82812 5.5664-2.3047 1.4766-1.4766 2.3047-3.4805 2.3047-5.5664v-51.844l98.676-98.676c7.4062-7.3672 11.559-17.391 11.531-27.836v-73.551c-0.011719-10.434-4.1641-20.438-11.543-27.816s-17.383-11.531-27.816-11.543zm23.617 112.91c0.015625 6.2656-2.4766 12.281-6.9219 16.703l-100.98 100.98c-1.4766 1.4727-2.3047 3.4766-2.3086 5.5625v47.23l-110.21 0.003906v-86.594c-0.019532-6.2695 2.4727-12.285 6.918-16.703l72.195-72.195c5.9688-5.9648 14.664-8.2969 22.812-6.1133 8.1523 2.1836 14.52 8.5508 16.703 16.703 2.1836 8.1484-0.14844 16.844-6.1133 22.812l-57.805 57.805c-2.207 2.2812-2.8281 5.6641-1.5742 8.5781 1.1328 2.3359 3.2969 4 5.8438 4.5039 2.5469 0.5 5.1797-0.22266 7.1133-1.9531l104.79-104.81c1.4766-1.4766 2.3047-3.4766 2.3047-5.5625v-60.508c0-8.4375 4.5039-16.23 11.809-20.449 7.3086-4.2188 16.309-4.2188 23.617 0 7.3047 4.2188 11.809 12.012 11.809 20.449z"/>
 </g>
 <g clip-path="url(#b)">
  <path d="m305.14 460.67 65.676 65.676c1.4688 1.5195 3.4844 2.3867 5.5938 2.4023 2.1133 0.019531 4.1406-0.8125 5.6367-2.3047 1.4922-1.4922 2.3242-3.5234 2.3047-5.6328-0.019531-2.1133-0.88672-4.1289-2.4023-5.5938l-65.676-65.676c-6.9453-6.9492-16.23-11.047-26.043-11.496-9.8086-0.44922-19.434 2.7812-26.98 9.0664-7.5469 6.2812-12.473 15.156-13.812 24.887l-22.625-22.633v-57.238c0-14.059-7.5-27.055-19.68-34.086-12.176-7.0312-27.18-7.0312-39.359 0-12.176 7.0312-19.68 20.027-19.68 34.086v73.551c-0.027344 10.445 4.125 20.469 11.531 27.836l98.676 98.676v51.844c0 2.0859 0.83203 4.0898 2.3086 5.5664 1.4766 1.4766 3.4766 2.3047 5.5664 2.3047h110.21c4.3477 0 7.8711-3.5234 7.8711-7.8711s-3.5234-7.8711-7.8711-7.8711h-102.34v-47.234c0-2.0859-0.83203-4.0898-2.3086-5.5625l-100.98-100.98c-4.4453-4.418-6.9375-10.434-6.9219-16.703v-73.551c0-8.4375 4.5039-16.23 11.809-20.449 7.3086-4.2188 16.309-4.2188 23.617 0 7.3086 4.2188 11.809 12.012 11.809 20.449v60.508c0 2.0859 0.82813 4.0859 2.3047 5.5625l104.81 104.81c1.9531 1.7305 4.6016 2.4531 7.1641 1.9531s4.7461-2.1641 5.9062-4.5039c1.2188-2.9414 0.54297-6.3281-1.7109-8.5781l-57.805-57.805c-4.4297-4.4297-6.918-10.438-6.918-16.703 0-6.2617 2.4883-12.27 6.918-16.699 4.5-4.293 10.48-6.6914 16.703-6.6914 6.2188 0 12.199 2.3984 16.699 6.6914z"/>
 </g>
 <g clip-path="url(#a)">
  <path d="m400 179.58c2.0859 0 4.0898-0.82812 5.5664-2.3047 1.4766-1.4766 2.3047-3.4805 2.3047-5.5664v-15.746c0-4.3477-3.5234-7.8711-7.8711-7.8711s-7.875 3.5234-7.875 7.8711v15.746c0 2.0859 0.83203 4.0898 2.3086 5.5664 1.4766 1.4766 3.4766 2.3047 5.5664 2.3047z"/>
 </g>
 <path d="m462.98 191.84c2.0859 0 4.0859-0.83203 5.5625-2.3086l12.258-12.258c1.5195-1.4648 2.3828-3.4805 2.4023-5.5938 0.019531-2.1094-0.8125-4.1406-2.3047-5.6328-1.4922-1.4922-3.5234-2.3242-5.6328-2.3047-2.1133 0.015624-4.1289 0.88281-5.5977 2.4023l-12.254 12.258c-2.25 2.25-2.9258 5.6367-1.707 8.5781 1.2188 2.9414 4.0898 4.8594 7.2734 4.8594z"/>
 <path d="m331.46 189.53c1.4648 1.5195 3.4805 2.3867 5.5938 2.4023 2.1094 0.019531 4.1406-0.8125 5.6328-2.3047 1.4961-1.4922 2.3242-3.5234 2.3086-5.6328-0.019532-2.1133-0.88672-4.1289-2.4062-5.5938l-12.254-12.258c-1.4688-1.5195-3.4844-2.3867-5.5938-2.4023-2.1133-0.019532-4.1445 0.8125-5.6367 2.3047-1.4922 1.4922-2.3242 3.5234-2.3047 5.6328 0.019531 2.1133 0.88281 4.1289 2.4023 5.5938z"/>
 <path d="m258.3 415.74h283.39c2.5273 0 4.9023-1.2188 6.3828-3.2695 1.4766-2.0547 1.8789-4.6914 1.0781-7.0898l-15.742-47.23c-1.0703-3.2148-4.0781-5.3828-7.4648-5.3867h-62.973c-3.3906 0.003906-6.3945 2.1719-7.4648 5.3867l-8.2812 24.836-8.2812-24.836c-1.0703-3.2148-4.0742-5.3828-7.4609-5.3867h-62.977c-3.3867 0.003906-6.3945 2.1719-7.4648 5.3867l-8.2812 24.836-8.2812-24.836c-1.0703-3.2148-4.0742-5.3828-7.4609-5.3867h-62.977c-3.3867 0.003906-6.3945 2.1719-7.4648 5.3867l-15.742 47.23c-0.80078 2.3984-0.39844 5.0352 1.082 7.0898 1.4766 2.0508 3.8516 3.2695 6.3789 3.2695zm210.35-47.23h51.625l10.492 31.488h-72.609zm-94.465 0h51.625l10.492 31.488h-72.609zm-94.465 0h51.625l10.492 31.488h-72.609z"/>
 <path d="m305.54 337.02h188.93c2.5312-0.003907 4.9062-1.2188 6.3828-3.2734 1.4805-2.0508 1.8828-4.6875 1.082-7.0859l-15.742-47.23-0.003906-0.003906c-1.0703-3.2109-4.0742-5.3828-7.4609-5.3828h-62.977c-3.3867 0-6.3906 2.1719-7.4609 5.3828l-8.2812 24.836-8.2812-24.836c-1.0703-3.2109-4.0781-5.3828-7.4648-5.3828h-62.977c-3.3867 0-6.3906 2.1719-7.4609 5.3828l-15.742 47.23-0.003907 0.003906c-0.79687 2.3984-0.39453 5.0352 1.082 7.0859 1.4805 2.0547 3.8516 3.2695 6.3828 3.2734zm115.88-47.23h51.625l10.492 31.488-72.609-0.003906zm-94.465 0h51.625l10.492 31.488-72.609-0.003906z"/>
 <path d="m352.77 258.3h94.465c2.5273 0 4.9023-1.2188 6.3828-3.2695 1.4766-2.0508 1.8789-4.6875 1.0781-7.0898l-15.742-47.23c-1.0703-3.2148-4.0742-5.3828-7.4609-5.3867h-62.977c-3.3867 0.003906-6.3945 2.1719-7.4648 5.3867l-15.742 47.23c-0.80078 2.4023-0.39844 5.0391 1.082 7.0898 1.4766 2.0508 3.8516 3.2695 6.3789 3.2695zm21.418-47.23h51.625l10.492 31.488h-72.609z"/>
</svg>