<?xml version="1.0" encoding="UTF-8"?>
<!-- The Best Svg Icon site in the world: iconSvg.co, Visit us! https://iconsvg.co -->
<svg fill="#000000" width="800px" height="800px" version="1.1" viewBox="144 144 512 512" xmlns="http://www.w3.org/2000/svg">
 <g>
  <path d="m636.52 497.18c-5.3047-13.344-16.215-23.676-29.832-28.238-13.602-4.5117-28.492-2.918-40.832 4.375l-95.988 57.672h-1.5938c3.1914-6.3828 4.8672-13.414 4.9062-20.551-0.035156-12.402-4.9492-24.293-13.684-33.102-8.7344-8.8086-20.582-13.824-32.984-13.965h-142.26c-2.6445-0.003906-5.2305 0.78125-7.4219 2.2539l-22.672 14.852c-2.2617-5.1367-5.9766-9.4922-10.691-12.535-4.7148-3.0391-10.219-4.6289-15.824-4.5703h-36.461c-7.5391 0.035156-14.754 3.0547-20.07 8.3984-5.3164 5.3398-8.3047 12.57-8.3047 20.109v118.26c-0.035156 7.5469 2.9414 14.797 8.2656 20.148 5.3242 5.3477 12.562 8.3555 20.109 8.3555h37.254c5.6133 0.078125 11.125-1.5039 15.84-4.5469 4.7188-3.043 8.4336-7.4102 10.676-12.555l22.273 14.848c2.1953 1.4766 4.7812 2.2617 7.4258 2.2539h188.8c2.3789 0 4.7148-0.64062 6.7617-1.8555l135.5-79.551h-0.003907c9.9961-5.9492 17.566-15.238 21.375-26.227 3.8086-10.992 3.6094-22.973-0.55859-33.832zm-406.1 112.96c0 1.0977-0.89062 1.9883-1.9883 1.9883h-37.254c-1.0469-0.070312-1.8594-0.94141-1.8555-1.9883v-118.26c-0.003906-1.0508 0.80859-1.9219 1.8555-1.9883h37.254c1.0977 0 1.9883 0.88672 1.9883 1.9883zm372.02-75.305-132.58 77.293h-181.64l-31.289-20.816v-80.477l31.289-20.949 138.29 0.003906c7.3398 0 14.125 3.9141 17.797 10.273 3.6719 6.3594 3.6719 14.191 0 20.551-3.6719 6.3555-10.457 10.273-17.797 10.273h-74.246c-7.3242 0-13.258 5.9375-13.258 13.258 0 7.3242 5.9336 13.258 13.258 13.258h121.58c2.418-0.019531 4.7891-0.66016 6.8945-1.8555l99.172-59.527h-0.003906c5.6992-3.4883 12.664-4.2188 18.961-1.9883 5.5156 1.8008 10.117 5.6719 12.836 10.801 2.7188 5.125 3.3398 11.105 1.7383 16.684-1.6016 5.5781-5.3047 10.316-10.332 13.215z"/>
  <path d="m400 426.52c35.16 0 68.883-13.969 93.746-38.832 24.867-24.863 38.832-58.586 38.832-93.75 0-35.164-13.965-68.887-38.832-93.75-24.863-24.863-58.586-38.832-93.746-38.832-35.164 0-68.887 13.969-93.75 38.832-24.863 24.863-38.832 58.586-38.832 93.75 0 35.164 13.969 68.887 38.832 93.75 24.863 24.863 58.586 38.832 93.75 38.832zm0-238.65c28.129 0 55.105 11.176 74.996 31.066 19.895 19.891 31.066 46.871 31.066 75s-11.172 55.109-31.066 75c-19.891 19.891-46.867 31.066-74.996 31.066-28.133 0-55.109-11.176-75-31.066s-31.066-46.871-31.066-75 11.176-55.109 31.066-75 46.867-31.066 75-31.066z"/>
  <path d="m408.48 331.85h-42.559c-7.3242 0-13.258 5.9375-13.258 13.258 0 7.3242 5.9336 13.258 13.258 13.258h20.816v3.7148c0 7.3203 5.9336 13.258 13.258 13.258 7.3203 0 13.258-5.9375 13.258-13.258v-4.2461c13.23-1.5508 24.734-9.8008 30.453-21.836 5.7148-12.035 4.8398-26.168-2.3164-37.406s-19.586-18.008-32.91-17.918h-16.973c-6.8086 0-12.328-5.5195-12.328-12.332 0-6.8086 5.5195-12.328 12.328-12.328h42.559c7.3242 0 13.262-5.9375 13.262-13.258 0-7.3242-5.9375-13.258-13.262-13.258h-20.812v-3.7148c0-7.3203-5.9375-13.258-13.258-13.258-7.3242 0-13.258 5.9375-13.258 13.258v4.2422c-13.234 1.5547-24.738 9.8047-30.457 21.84-5.7148 12.035-4.8398 26.164 2.3164 37.406 7.1562 11.238 19.59 18.008 32.91 17.918h16.973c6.8086 0 12.328 5.5195 12.328 12.332 0 6.8086-5.5195 12.328-12.328 12.328z"/>
 </g>
</svg>