<?xml version="1.0" encoding="UTF-8"?>
<!-- The Best Svg Icon site in the world: iconSvg.co, Visit us! https://iconsvg.co -->
<svg fill="#000000" width="800px" height="800px" version="1.1" viewBox="144 144 512 512" xmlns="http://www.w3.org/2000/svg">
 <path d="m549.57 329.94h-11.492v-52.27c0.042969-11.387-4.4531-22.32-12.488-30.383-8.0352-8.0664-18.949-12.598-30.336-12.598h-224.35c-16.703 0-32.723 6.6328-44.531 18.445-11.812 11.809-18.445 27.828-18.445 44.531-0.085937 1.4648-0.085937 2.9375 0 4.4062-0.074219 0.78516-0.074219 1.5781 0 2.3633v165.94c-19.383 17.895-29.531 43.664-27.559 69.973 1.9727 26.305 15.852 50.27 37.688 65.074 21.836 14.805 49.238 18.828 74.406 10.922s45.352-26.875 54.801-51.504h202.31c11.398 0 22.332-4.5312 30.395-12.59 8.0586-8.0625 12.586-18.992 12.586-30.391v-149.57c-0.125-11.305-4.7109-22.098-12.762-30.031-8.0547-7.9336-18.914-12.363-30.219-12.32zm-278.67-63.762h224.35c6.2852 0.085938 11.336 5.2031 11.336 11.492v52.27h-235.69c-11.391 0-21.918-6.0781-27.613-15.941-5.6914-9.8633-5.6914-22.016 0-31.883 5.6953-9.8633 16.223-15.938 27.613-15.938zm-4.7227 322.75c-14.617 0-28.633-5.8047-38.965-16.137-10.336-10.336-16.141-24.352-16.141-38.965-0.14062-17.254 7.9961-33.527 21.883-43.77 9.457-7.4609 21.18-11.461 33.223-11.336 14.613 0 28.629 5.8047 38.961 16.141 10.336 10.332 16.141 24.348 16.141 38.965-0.039063 14.602-5.8594 28.594-16.184 38.918-10.324 10.324-24.316 16.145-38.918 16.184zm283.39-55.105-196.8 0.003907c-0.003906-27.805-13.359-53.918-35.902-70.195-22.543-16.273-51.531-20.734-77.926-11.988v-98.875c9.5195 5.7148 20.383 8.8125 31.488 8.9766h279.14c6.2852-0.003907 11.406 5.0469 11.492 11.336v26.922h-54.473c-18.738 1.0078-35.641 11.59-44.73 28.008-9.0898 16.418-9.0898 36.355 0 52.773 9.0898 16.418 25.992 27 44.73 28.008h54.473v13.539c0 3.0508-1.2109 5.9727-3.3633 8.1289-2.1562 2.1562-5.082 3.3672-8.1289 3.3672zm11.492-102.34v45.816h-54.477c-7.7344-0.64062-14.621-5.1406-18.316-11.969-3.6914-6.8242-3.6914-15.051 0-21.879 3.6953-6.8242 10.582-11.324 18.316-11.965zm-255.53 102.34c0 4.1758-1.6602 8.1797-4.6133 11.133s-6.957 4.6094-11.133 4.6094h-7.8711v7.8711c0 5.625-3 10.824-7.8711 13.637s-10.875 2.8125-15.746 0c-4.8711-2.8125-7.8711-8.0117-7.8711-13.637v-7.8711h-7.8711c-5.625 0-10.824-3-13.637-7.8711-2.8125-4.8711-2.8125-10.875 0-15.746 2.8125-4.8711 8.0117-7.8711 13.637-7.8711h7.8711v-7.8711c0-5.625 3-10.824 7.8711-13.637 4.8711-2.8125 10.875-2.8125 15.746 0s7.8711 8.0117 7.8711 13.637v7.8711h7.8711c4.1758 0 8.1797 1.6602 11.133 4.6133s4.6133 6.957 4.6133 11.133z"/>
</svg>