<?xml version="1.0" encoding="UTF-8"?>
<!-- The Best Svg Icon site in the world: iconSvg.co, Visit us! https://iconsvg.co -->
<svg fill="#000000" width="800px" height="800px" version="1.1" viewBox="144 144 512 512" xmlns="http://www.w3.org/2000/svg">
 <g>
  <path d="m310.76 519.85c28.492 0 51.672-23.18 51.672-51.672 0-28.492-23.18-51.672-51.672-51.672-28.496 0-51.676 23.18-51.676 51.672 0 28.488 23.18 51.672 51.676 51.672z"/>
  <path d="m438.64 468.18c0 28.492 23.18 51.672 51.672 51.672 28.496 0 51.68-23.18 51.68-51.672 0-28.492-23.184-51.672-51.68-51.672-28.492 0-51.672 23.18-51.672 51.672z"/>
  <path d="m597.02 476.56c0-33.648-8.375-63.258-8.6562-64.207-2.0234-10.113-8.0703-15.91-16.582-15.91-9.8398 0-16.375 6.5-16.652 16.551-0.085937 3.043 0.57422 7.2148 1.4844 12.992 1.8398 11.656 4.6211 29.281 2.8164 50.25-2.4648 28.656-27.531 59.105-69.133 59.105-39.516 0-65.551-34.457-69.152-59.324-2.0312-14.02-3.6719-37.172-3.6836-37.172 0-9.1641-7.5977-16.625-16.938-16.625-9.3398 0-16.938 7.457-16.93 16.359-0.015625 0.23047-1.6641 23.406-3.6914 37.438-3.6016 24.875-29.641 59.324-69.152 59.324-41.594 0-66.66-30.457-69.133-59.105-1.793-20.832 1.0391-38.777 2.9102-50.656 0.95312-6.0547 1.5859-10.051 1.3867-12.762-0.69141-9.3359-7.8477-16.375-16.645-16.375-4.8359 0-13.422 2.0547-16.547 15.75-0.35156 1.4375-8.6953 35.52-8.6953 64.367 0 29.891 14.672 62.02 37.367 81.863 2.5547 2.2266 5.2305 4.3516 7.9688 6.3281l-7.7344 24.168c-0.36719 1.1484-0.16797 2.4023 0.54297 3.3789 0.71484 0.97266 1.8477 1.5508 3.0547 1.5508l131.04 0.003907c1.2031 0 2.3359-0.57422 3.0547-1.5508 0.71094-0.97656 0.91016-2.2305 0.54297-3.3789l-7.7383-24.168c3.2578-2.3477 6.4141-4.8984 9.3945-7.5977 7.3203-6.625 13.695-14.207 19.004-22.602 5.3086 8.3945 11.684 15.973 19.004 22.602 2.9844 2.6992 6.1367 5.25 9.3945 7.6016l-7.7344 24.168c-0.36719 1.1484-0.16797 2.4023 0.54297 3.3789 0.71484 0.97266 1.8477 1.5508 3.0547 1.5508h131.02 0.10156c2.0859 0 3.7773-1.6914 3.7773-3.7773 0-0.70703-0.19531-1.3672-0.52734-1.9297l-7.4883-23.387c2.7539-1.9883 5.4297-4.1094 7.9766-6.3281 24.453-21.371 37.371-49.68 37.371-81.875z"/>
  <path d="m319.36 307.75h10.379v53.086h-8.9766c-8.6133 0-15.586 6.9883-15.586 15.602s6.9727 15.602 15.586 15.602h159.53c8.6133 0 15.602-6.9883 15.602-15.602s-6.9883-15.602-15.602-15.602h-8.9609l-0.003907-53.086h10.367c6.7305 0 12.82-4.0039 15.492-10.188 2.6719-6.1875 1.4141-13.355-3.2031-18.262l-81.164-62.805c-3.1797-3.3906-7.6289-5.3164-12.305-5.3164-4.6367 0-9.0977 1.9258-12.277 5.3164l-81.172 62.801c-4.6094 4.9062-5.8633 12.082-3.2031 18.262 2.668 6.1875 8.7617 10.191 15.496 10.191zm108.94 2.5664c0-5.6641 4.5938-10.258 10.262-10.258 5.6641 0 10.258 4.5938 10.258 10.258v32.207c0 5.6641-4.5938 10.258-10.258 10.258-5.668 0-10.262-4.5938-10.262-10.258zm-38.027 0c0-5.6641 4.5938-10.258 10.258-10.258 5.668 0 10.262 4.5938 10.262 10.258v32.207c0 5.6641-4.5938 10.258-10.262 10.258-5.6641 0-10.258-4.5938-10.258-10.258zm-38.027 0c0-5.6641 4.5938-10.258 10.258-10.258 5.6641 0 10.258 4.5938 10.258 10.258v32.207c0 5.6641-4.5938 10.258-10.258 10.258-5.6641 0-10.258-4.5938-10.258-10.258z"/>
 </g>
</svg>