<?xml version="1.0" encoding="UTF-8"?>
<!-- The Best Svg Icon site in the world: iconSvg.co, Visit us! https://iconsvg.co -->
<svg width="800px" height="800px" version="1.1" viewBox="144 144 512 512" xmlns="http://www.w3.org/2000/svg">
 <defs>
  <clipPath id="b">
   <path d="m148.09 148.09h503.81v63.906h-503.81z"/>
  </clipPath>
  <clipPath id="a">
   <path d="m169 232h462v419.9h-462z"/>
  </clipPath>
 </defs>
 <g clip-path="url(#b)">
  <path d="m641.41 148.09h-482.82c-5.7969 0-10.496 4.6992-10.496 10.496v41.984c0 2.7852 1.1055 5.4531 3.0742 7.4219s4.6367 3.0742 7.4219 3.0742h251.91v-20.992h-241.41v-20.992h461.82v20.992h-20.992v20.992h31.488c2.7852 0 5.4531-1.1055 7.4219-3.0742s3.0742-4.6367 3.0742-7.4219v-41.984c0-2.7852-1.1055-5.4531-3.0742-7.4219s-4.6367-3.0742-7.4219-3.0742z"/>
 </g>
 <g clip-path="url(#a)">
  <path d="m609.92 504.96c0 2.7852-1.1055 5.457-3.0742 7.4219-1.9688 1.9688-4.6367 3.0742-7.4219 3.0742h-398.85c-5.7969 0-10.496-4.6992-10.496-10.496v-272.89h-20.992v272.89c0 8.3516 3.3164 16.363 9.2227 22.266 5.9062 5.9062 13.914 9.2227 22.266 9.2227h188.93v31.488h-10.496c-5.7969 0-10.496 4.6992-10.496 10.496v62.977c0 2.7852 1.1055 5.4531 3.0742 7.4219s4.6367 3.0742 7.4219 3.0742h41.984c2.7812 0 5.4531-1.1055 7.4219-3.0742 1.9648-1.9688 3.0742-4.6367 3.0742-7.4219v-62.977c0-2.7812-1.1094-5.4531-3.0742-7.4219-1.9688-1.9688-4.6406-3.0742-7.4219-3.0742h-10.496v-31.488h188.93c8.3516 0 16.363-3.3164 22.266-9.2227 5.9062-5.9023 9.2227-13.914 9.2227-22.266v-94.461h-20.992zm-199.42 125.95h-20.992v-41.984h20.992z"/>
 </g>
 <path d="m515.45 190.08c-27.684-0.046875-54.457 9.8711-75.43 27.941-20.973 18.07-34.742 43.086-38.785 70.469-4.0469 27.387 1.8984 55.316 16.75 78.68l-32.832 32.832h-90.117c-2.7852 0-5.4531 1.1055-7.4219 3.0742l-73.473 73.473 14.84 14.84 70.398-70.395h90.121c2.7812-0.003907 5.4531-1.1094 7.418-3.0781l34.008-33.996c26.473 28.543 65.551 41.816 103.93 35.297 38.379-6.5195 70.883-31.953 86.441-67.637 15.562-35.68 12.078-76.805-9.2578-109.36-21.34-32.559-57.656-52.164-96.586-52.137zm0 209.92c-25.051 0-49.078-9.9531-66.793-27.668-17.719-17.719-27.668-41.746-27.668-66.797 0-25.055 9.9492-49.082 27.668-66.797 17.715-17.715 41.742-27.668 66.793-27.668 25.055 0 49.082 9.9531 66.797 27.668 17.715 17.715 27.668 41.742 27.668 66.797-0.027344 25.043-9.9883 49.055-27.699 66.766-17.707 17.707-41.719 27.672-66.766 27.699z"/>
 <path d="m536.45 253.05h-10.496v-20.992h-20.992v20.992h-10.496c-5.5664 0-10.906 2.2109-14.84 6.1484-3.9375 3.9375-6.1484 9.2773-6.1484 14.844v20.992c0 5.5664 2.2109 10.906 6.1484 14.844 3.9336 3.9375 9.2734 6.1484 14.84 6.1484h41.984v20.992h-41.984v-10.496h-20.988v10.496c0 5.5664 2.2109 10.906 6.1484 14.844 3.9336 3.9336 9.2734 6.1484 14.84 6.1484h10.496v20.992h20.992v-20.992h10.496c5.5703 0 10.91-2.2148 14.844-6.1484 3.9375-3.9375 6.1484-9.2773 6.1484-14.844v-20.992c0-5.5703-2.2109-10.906-6.1484-14.844-3.9336-3.9375-9.2734-6.1484-14.844-6.1484h-41.984v-20.992h41.984v10.496h20.992v-10.496c0-5.5664-2.2109-10.906-6.1484-14.844-3.9336-3.9375-9.2734-6.1484-14.844-6.1484z"/>
 <path d="m588.93 483.96v-31.484h-20.992v20.992h-20.992v20.992h31.488v-0.003906c2.7852 0 5.4531-1.1055 7.4219-3.0742 1.9688-1.9648 3.0742-4.6367 3.0742-7.4219z"/>
 <path d="m316.03 295.04c2.7812 0 5.4531-1.1055 7.4219-3.0742s3.0742-4.6406 3.0742-7.4219v-41.984c0-2.7852-1.1055-5.4531-3.0742-7.4219s-4.6406-3.0742-7.4219-3.0742h-94.465c-5.7969 0-10.496 4.6992-10.496 10.496v41.984c0 2.7812 1.1055 5.4531 3.0742 7.4219s4.6367 3.0742 7.4219 3.0742zm-83.969-41.984h73.473v20.992h-73.473z"/>
 <path d="m211.07 316.03h136.45v20.992h-136.45z"/>
 <path d="m211.07 358.02h20.992v20.992h-20.992z"/>
 <path d="m253.05 358.02h20.992v20.992h-20.992z"/>
</svg>