<?xml version="1.0" encoding="UTF-8"?>
<!-- The Best Svg Icon site in the world: iconSvg.co, Visit us! https://iconsvg.co -->
<svg fill="#000000" width="800px" height="800px" version="1.1" viewBox="144 144 512 512" xmlns="http://www.w3.org/2000/svg">
 <g>
  <path d="m526.66 337.02h38.652v-38.652c-9.6602 1.6328-18.57 6.2305-25.496 13.156-6.9258 6.9258-11.523 15.836-13.156 25.496z"/>
  <path d="m565.31 218.23v-38.652h-38.652c1.6328 9.6562 6.2305 18.57 13.156 25.496 6.9258 6.9258 15.836 11.523 25.496 13.156z"/>
  <path d="m310.96 515.95 61.164-61.246 0.003906 0.003907c3.0938-3.0703 8.082-3.0703 11.176 0l5.5898 5.5898v-0.003906c3.1094 2.9531 7.9883 2.9531 11.102 0 3.0938-2.9922 8.0039-2.9922 11.098 0l16.766 16.688 0.003907 0.003906c3.0703 3.0508 8.0273 3.0508 11.098 0 3.0703-3.0938 3.0703-8.0859 0-11.18l-42.824-42.824-21.41-4.25-80.531 80.531z"/>
  <path d="m234.69 337.02h38.652-0.003906c-1.6289-9.6602-6.2266-18.57-13.156-25.496-6.9258-6.9258-15.836-11.523-25.492-13.156z"/>
  <path d="m234.69 179.58v38.652c9.6562-1.6328 18.566-6.2305 25.492-13.156 6.9297-6.9258 11.527-15.84 13.156-25.496z"/>
  <path d="m400 313.41c-4.3477 0-7.875-3.5234-7.875-7.8711v-7.8711c-6.2617 0-12.27-2.4883-16.699-6.918-4.4258-4.4297-6.9141-10.438-6.9141-16.699 0-4.3477 3.5234-7.8711 7.8711-7.8711 4.3477 0 7.8711 3.5234 7.8711 7.8711 0 2.0859 0.82812 4.0898 2.3047 5.5664 1.4766 1.4766 3.4805 2.3047 5.5664 2.3047h15.746c4.3477 0 7.8711-3.5234 7.8711-7.8711s-3.5234-7.8711-7.8711-7.8711h-15.746c-8.4375 0-16.23-4.5039-20.449-11.809-4.2188-7.3086-4.2188-16.309 0-23.617s12.012-11.809 20.449-11.809v-7.8711c0-4.3477 3.5273-7.8711 7.875-7.8711-19.688 0-37.879 10.5-47.723 27.551s-9.8438 38.055 0 55.105c9.8438 17.047 28.035 27.551 47.723 27.551z"/>
  <path d="m234.69 282.47c13.852 1.7578 26.73 8.0703 36.605 17.945s16.188 22.754 17.945 36.609h221.52c1.7578-13.855 8.0703-26.734 17.945-36.609s22.754-16.188 36.609-17.945v-48.332c-13.855-1.7578-26.734-8.0703-36.609-17.945s-16.188-22.754-17.945-36.609h-221.52c-1.7578 13.855-8.0703 26.734-17.945 36.609s-22.754 16.188-36.605 17.945zm259.77-32.039h23.617c4.3477 0 7.8711 3.5234 7.8711 7.8711 0 4.3477-3.5234 7.875-7.8711 7.875h-23.617c-4.3477 0-7.8711-3.5273-7.8711-7.875 0-4.3477 3.5234-7.8711 7.8711-7.8711zm-94.461-62.977c18.789 0 36.809 7.4648 50.098 20.75 13.285 13.289 20.75 31.309 20.75 50.098 0 18.793-7.4648 36.812-20.75 50.098-13.289 13.289-31.309 20.75-50.098 20.75-18.793 0-36.812-7.4609-50.098-20.75-13.289-13.285-20.754-31.305-20.754-50.098 0.023437-18.781 7.4922-36.789 20.777-50.074 13.281-13.281 31.289-20.75 50.074-20.773zm-118.08 62.977h23.617c4.3477 0 7.8711 3.5234 7.8711 7.8711 0 4.3477-3.5234 7.875-7.8711 7.875h-23.617c-4.3477 0-7.8711-3.5273-7.8711-7.875 0-4.3477 3.5234-7.8711 7.8711-7.8711z"/>
  <path d="m409.92 581.68c0.20703-5.8867 2.625-11.48 6.7695-15.664 4.1641-4.0781 9.6836-6.4883 15.508-6.7695 0.21875-5.8398 2.6367-11.379 6.7695-15.508 4.1602-4.0078 9.6562-6.3359 15.43-6.5352 0.30859-7.8984 4.5742-15.109 11.348-19.184 6.7734-4.0781 15.141-4.4688 22.266-1.0469l17.789-17.711-78.012-78.012-5.5117 5.5898 27.789 27.867h0.003906c4.6875 4.3672 7.3984 10.453 7.5117 16.859s-2.3828 12.586-6.9141 17.117-10.707 7.0234-17.117 6.9102c-6.4062-0.11328-12.492-2.8242-16.859-7.5117l-12.043-12.043c-4.4375 2.0156-9.375 2.6523-14.18 1.8242-4.8008-0.82813-9.2422-3.082-12.746-6.4688l-72.344 72.344c-3.0664 3.0938-3.0664 8.0859 0 11.18 3.0703 3.0508 8.0312 3.0508 11.102 0l16.688-16.688v-0.003906c3.0938-3.0703 8.0859-3.0703 11.18 0 3.0508 3.0703 3.0508 8.0312 0 11.102l-16.688 16.688c-3.0703 3.0938-3.0703 8.0859 0 11.18 3.0703 3.0508 8.0273 3.0508 11.098 0l11.18-11.18c3.0703-3.0508 8.0273-3.0508 11.098 0 3.0703 3.0938 3.0703 8.0859 0 11.18l-11.098 11.098c-1.668 1.4258-2.6641 3.4844-2.7461 5.6758-0.085938 2.1914 0.75 4.3203 2.3008 5.8711s3.6758 2.3828 5.8672 2.3008c2.1914-0.085937 4.25-1.082 5.6758-2.7461l11.102-11.102c3.0938-3.0703 8.082-3.0703 11.176 0 3.0547 3.0703 3.0547 8.0312 0 11.102l-11.18 11.18 0.003906-0.003906c-1.4453 1.4375-2.2383 3.3984-2.207 5.4336-0.078125 2.1133 0.71875 4.1641 2.207 5.668 3.0938 3.0703 8.082 3.0703 11.176 0l6.6133-6.5352c-3.5273-7.0586-3.2109-15.43 0.83594-22.203 4.0508-6.7734 11.273-11.016 19.16-11.254z"/>
  <path d="m407.87 211.07v7.8711c6.2617 0 12.27 2.4883 16.699 6.918 4.4297 4.4297 6.918 10.434 6.918 16.699 0 4.3477-3.5273 7.8711-7.875 7.8711-4.3477 0-7.8711-3.5234-7.8711-7.8711 0-2.0898-0.82813-4.0898-2.3047-5.5664-1.4766-1.4766-3.4805-2.3047-5.5664-2.3047h-15.746c-4.3477 0-7.8711 3.5234-7.8711 7.8711s3.5234 7.8711 7.8711 7.8711h15.746c8.4375 0 16.234 4.5 20.453 11.809 4.2188 7.3086 4.2188 16.309 0 23.617-4.2188 7.3047-12.016 11.809-20.453 11.809v7.8711c0 2.0859-0.82812 4.0898-2.3047 5.5664-1.4766 1.4766-3.4805 2.3047-5.5664 2.3047 19.684 0 37.875-10.504 47.719-27.551 9.8438-17.051 9.8438-38.055 0-55.105s-28.035-27.551-47.719-27.551c2.0859 0 4.0898 0.82812 5.5664 2.3047 1.4766 1.4766 2.3047 3.4766 2.3047 5.5664z"/>
  <path d="m494.62 554.92c3.0703-3.0938 3.0703-8.0859 0-11.18l-11.102-11.102c-3.1016-3.043-8.0742-3.043-11.176 0-3.0547 3.0703-3.0547 8.0312 0 11.102l11.18 11.18h-0.003907c3.1133 2.9492 7.9883 2.9492 11.102 0z"/>
  <path d="m438.96 410.16 11.098-11.098 77.934 77.934-11.098 11.098z"/>
  <path d="m472.34 577.2c3.0703-3.0938 3.0703-8.0859 0-11.18l-11.098-11.098h-0.003906c-1.4727-1.5039-3.4844-2.3555-5.5898-2.3633-4.3008 0.10156-7.7656 3.5664-7.8711 7.8711-0.019531 2.0938 0.80078 4.1094 2.2852 5.5898l11.18 11.18h-0.003906c3.0703 3.0508 8.0312 3.0508 11.102 0z"/>
  <path d="m617.11 410.15-57.387-57.387h-85.648l-24.008 24.012 100.21 100.21z"/>
  <path d="m249.72 476.99 100.21-100.21-24.012-24.012h-85.648l-57.387 57.387z"/>
  <path d="m272 476.98 77.934-77.934 11.098 11.098-77.934 77.934z"/>
  <path d="m450.07 599.4c1.5-1.4414 2.3516-3.4297 2.3594-5.5117-0.007812-2.1055-0.85938-4.1172-2.3594-5.5898l-11.098-11.098h-0.003906c-1.4688-1.5117-3.4844-2.3633-5.5898-2.3633-2.082 0.003906-4.0703 0.85547-5.5078 2.3633-3.0547 3.0703-3.0547 8.0273 0 11.098l11.098 11.098v0.003907c1.4609 1.4883 3.4609 2.332 5.5508 2.332 2.0859 0 4.0859-0.84375 5.5508-2.332z"/>
  <path d="m416.69 621.68c3.125 2.9883 8.0508 2.9883 11.18 0 2.9922-3.0938 2.9922-8.0078 0-11.102l-11.18-11.18v0.003907c-3.0703-3.0547-8.0312-3.0547-11.102 0-3.0664 3.0938-3.0664 8.082 0 11.176z"/>
 </g>
</svg>