<?xml version="1.0" encoding="UTF-8"?>
<!-- The Best Svg Icon site in the world: iconSvg.co, Visit us! https://iconsvg.co -->
<svg fill="#000000" width="800px" height="800px" version="1.1" viewBox="144 144 512 512" xmlns="http://www.w3.org/2000/svg">
 <g>
  <path d="m423.61 289.79c-4.3477 0-7.8711-3.5234-7.8711-7.8711v-47.23c0-4.3477 3.5234-7.875 7.8711-7.875h7.8242l-31.645-41.98-31.328 41.98h7.918c2.0859 0 4.0898 0.83203 5.5664 2.3086 1.4766 1.4766 2.3047 3.4766 2.3047 5.5664v47.23c0 4.3477-3.5234 7.8711-7.8711 7.8711-4.3477 0-7.8711-3.5234-7.8711-7.8711v-39.359h-15.746c-2.9805 0-5.707-1.6836-7.0391-4.3516-1.3359-2.668-1.0469-5.8594 0.74219-8.2461l46.988-62.977v0.003906c1.4883-1.9844 3.8203-3.1523 6.2969-3.1523 2.4766 0 4.8125 1.168 6.2969 3.1523l47.477 62.977v-0.003906c1.7891 2.3867 2.0781 5.5781 0.74609 8.2461-1.3359 2.668-4.0625 4.3516-7.043 4.3516h-15.742v39.359c0 2.0898-0.83203 4.0898-2.3086 5.5664-1.4766 1.4766-3.4766 2.3047-5.5664 2.3047z"/>
  <path d="m266.18 360.64c-4.3477 0-7.875-3.5234-7.875-7.8711v-55.102c0-4.3477 3.5273-7.875 7.875-7.875h7.8242l-31.645-41.98-31.332 41.98h7.918c2.0898 0 4.0898 0.83203 5.5664 2.3086 1.4766 1.4727 2.3047 3.4766 2.3047 5.5664v55.105-0.003906c0 4.3477-3.5234 7.8711-7.8711 7.8711s-7.8711-3.5234-7.8711-7.8711v-47.23h-15.746c-2.9805 0-5.707-1.6875-7.0391-4.3516-1.332-2.668-1.0469-5.8594 0.74219-8.2461l46.988-62.977c1.4883-1.9805 3.8203-3.1484 6.2969-3.1484 2.4805 0 4.8125 1.168 6.3008 3.1484l47.469 62.977h-0.003906c1.7891 2.3867 2.0781 5.5742 0.74609 8.2422-1.332 2.6641-4.0547 4.3516-7.0352 4.3555h-15.742v47.23c0 2.0898-0.83203 4.0898-2.3047 5.5664-1.4766 1.4766-3.4805 2.3047-5.5664 2.3047z"/>
  <path d="m423.61 329.15c-4.3477 0-7.8711-3.5234-7.8711-7.8711v-7.8711c0-4.3477 3.5234-7.8711 7.8711-7.8711 4.3477 0 7.875 3.5234 7.875 7.8711v7.8711c0 2.0898-0.83203 4.0898-2.3086 5.5664-1.4766 1.4766-3.4766 2.3047-5.5664 2.3047z"/>
  <path d="m376.38 329.15c-4.3477 0-7.8711-3.5234-7.8711-7.8711v-7.8711c0-4.3477 3.5234-7.8711 7.8711-7.8711 4.3477 0 7.8711 3.5234 7.8711 7.8711v7.8711c0 2.0898-0.82812 4.0898-2.3047 5.5664-1.4766 1.4766-3.4805 2.3047-5.5664 2.3047z"/>
  <path d="m423.61 360.64c-4.3477 0-7.8711-3.5234-7.8711-7.8711v-7.8711c0-4.3477 3.5234-7.8711 7.8711-7.8711 4.3477 0 7.875 3.5234 7.875 7.8711v7.8711c0 2.0898-0.83203 4.0898-2.3086 5.5664-1.4766 1.4766-3.4766 2.3047-5.5664 2.3047z"/>
  <path d="m376.38 360.64c-4.3477 0-7.8711-3.5234-7.8711-7.8711v-7.8711c0-4.3477 3.5234-7.8711 7.8711-7.8711 4.3477 0 7.8711 3.5234 7.8711 7.8711v7.8711c0 2.0898-0.82812 4.0898-2.3047 5.5664-1.4766 1.4766-3.4805 2.3047-5.5664 2.3047z"/>
  <path d="m218.94 400c-4.3477 0-7.8711-3.5273-7.8711-7.875v-7.8711c0-4.3477 3.5234-7.8711 7.8711-7.8711s7.8711 3.5234 7.8711 7.8711v7.8711c0 2.0898-0.82812 4.0898-2.3047 5.5664-1.4766 1.4766-3.4766 2.3086-5.5664 2.3086z"/>
  <path d="m218.94 431.49c-4.3477 0-7.8711-3.5273-7.8711-7.875v-7.8711c0-4.3477 3.5234-7.8711 7.8711-7.8711s7.8711 3.5234 7.8711 7.8711v7.8711c0 2.0898-0.82812 4.0898-2.3047 5.5664-1.4766 1.4766-3.4766 2.3086-5.5664 2.3086z"/>
  <path d="m218.94 462.98c-4.3477 0-7.8711-3.5273-7.8711-7.875v-7.8711c0-4.3477 3.5234-7.8711 7.8711-7.8711s7.8711 3.5234 7.8711 7.8711v7.8711c0 2.0898-0.82812 4.0898-2.3047 5.5664-1.4766 1.4766-3.4766 2.3086-5.5664 2.3086z"/>
  <path d="m266.18 400c-4.3477 0-7.875-3.5273-7.875-7.875v-7.8711c0-4.3477 3.5273-7.8711 7.875-7.8711 4.3477 0 7.8711 3.5234 7.8711 7.8711v7.8711c0 2.0898-0.83203 4.0898-2.3047 5.5664-1.4766 1.4766-3.4805 2.3086-5.5664 2.3086z"/>
  <path d="m266.18 431.49c-4.3477 0-7.875-3.5273-7.875-7.875v-7.8711c0-4.3477 3.5273-7.8711 7.875-7.8711 4.3477 0 7.8711 3.5234 7.8711 7.8711v7.8711c0 2.0898-0.83203 4.0898-2.3047 5.5664-1.4766 1.4766-3.4805 2.3086-5.5664 2.3086z"/>
  <path d="m266.18 462.98c-4.3477 0-7.875-3.5273-7.875-7.875v-7.8711c0-4.3477 3.5273-7.8711 7.875-7.8711 4.3477 0 7.8711 3.5234 7.8711 7.8711v7.8711c0 2.0898-0.83203 4.0898-2.3047 5.5664-1.4766 1.4766-3.4805 2.3086-5.5664 2.3086z"/>
  <path d="m581.05 352.77c-4.3477 0-7.8711-3.5234-7.8711-7.8711v-55.105c0-4.3477 3.5234-7.8711 7.8711-7.8711h7.8242l-31.645-41.98-31.332 41.98h7.9219c2.0859 0 4.0898 0.82812 5.5664 2.3047 1.4766 1.4766 2.3047 3.4805 2.3047 5.5664v55.105c0 4.3477-3.5234 7.8711-7.8711 7.8711-4.3477 0-7.875-3.5234-7.875-7.8711v-47.23h-15.742c-2.9805 0-5.707-1.6875-7.043-4.3516-1.332-2.668-1.043-5.8594 0.74609-8.2461l46.996-62.977c1.4844-1.9805 3.8203-3.1484 6.2969-3.1484s4.8125 1.168 6.2969 3.1484l47.469 62.977c1.7891 2.3867 2.0781 5.5781 0.74219 8.2461-1.332 2.6641-4.0586 4.3516-7.0391 4.3516h-15.746v47.23c0 2.0859-0.82812 4.0898-2.3047 5.5664-1.4766 1.4766-3.4766 2.3047-5.5664 2.3047z"/>
  <path d="m533.82 392.12c-4.3477 0-7.875-3.5234-7.875-7.8711v-7.8711c0-4.3477 3.5273-7.8711 7.875-7.8711 4.3477 0 7.8711 3.5234 7.8711 7.8711v7.8711c0 2.0898-0.82812 4.0898-2.3047 5.5664-1.4766 1.4766-3.4805 2.3047-5.5664 2.3047z"/>
  <path d="m619.86 625.38-31.488-78.719c-1.1914-3-4.0938-4.9648-7.3203-4.9609h-34.008l-29.52-73.762c-1.1914-2.9961-4.0938-4.9609-7.3203-4.957h-34.008l-29.52-73.762c-1.1953-3-4.0938-4.9648-7.3203-4.9609h-78.723c-3.2227-0.003906-6.125 1.9609-7.3203 4.9609l-29.52 73.762h-34.008c-3.2266-0.003906-6.125 1.9609-7.3203 4.957l-29.52 73.762h-34.008c-3.2266-0.003906-6.125 1.9609-7.3203 4.9609l-31.488 78.719c-0.9375 2.4219-0.64453 5.1523 0.78906 7.3203 1.4648 2.168 3.9141 3.4688 6.5312 3.4648h425.09c2.6172 0.003906 5.0664-1.2969 6.5352-3.4648 1.4297-2.168 1.7227-4.8984 0.78516-7.3203zm-115.01-146.66 25.191 62.977h-118.4l25.191-62.977zm-104.86 49.672-19.84-49.672h39.676zm-34.008-128.39h68.016l25.191 62.977h-118.4zm-70.848 78.719h68.016l25.191 62.977h-118.4zm-96.039 141.7 25.191-62.977h68.016l25.191 62.977zm110.21-62.977h39.676l-19.84 49.676zm31.488 62.977 25.191-62.977h68.016l25.191 62.977zm110.21-62.977h39.676l-19.836 49.676zm31.488 62.977 25.191-62.977h68.016l25.191 62.977z"/>
  <path d="m533.82 423.61c2.0859 0 4.0898-0.82812 5.5664-2.3047 1.4766-1.4766 2.3047-3.4766 2.3047-5.5664v-7.8711c0-4.3477-3.5234-7.8711-7.8711-7.8711-4.3477 0-7.875 3.5234-7.875 7.8711v7.8711c0 2.0898 0.83203 4.0898 2.3086 5.5664 1.4766 1.4766 3.4766 2.3047 5.5664 2.3047z"/>
  <path d="m533.82 455.1c2.0859 0 4.0898-0.82812 5.5664-2.3047s2.3047-3.4766 2.3047-5.5664v-7.8711c0-4.3477-3.5234-7.8711-7.8711-7.8711-4.3477 0-7.875 3.5234-7.875 7.8711v7.8711c0 2.0898 0.83203 4.0898 2.3086 5.5664 1.4766 1.4766 3.4766 2.3047 5.5664 2.3047z"/>
  <path d="m581.05 392.12c-4.3477 0-7.8711-3.5234-7.8711-7.8711v-7.8711c0-4.3477 3.5234-7.8711 7.8711-7.8711 4.3477 0 7.8711 3.5234 7.8711 7.8711v7.8711c0 2.0898-0.82812 4.0898-2.3047 5.5664-1.4766 1.4766-3.4766 2.3047-5.5664 2.3047z"/>
  <path d="m581.05 423.61c-4.3477 0-7.8711-3.5234-7.8711-7.8711v-7.8711c0-4.3477 3.5234-7.8711 7.8711-7.8711 4.3477 0 7.8711 3.5234 7.8711 7.8711v7.8711c0 2.0898-0.82812 4.0898-2.3047 5.5664-1.4766 1.4766-3.4766 2.3047-5.5664 2.3047z"/>
  <path d="m581.05 455.1c-4.3477 0-7.8711-3.5234-7.8711-7.8711v-7.8711c0-4.3477 3.5234-7.8711 7.8711-7.8711 4.3477 0 7.8711 3.5234 7.8711 7.8711v7.8711c0 2.0898-0.82812 4.0898-2.3047 5.5664-1.4766 1.4766-3.4766 2.3047-5.5664 2.3047z"/>
 </g>
</svg>