<?xml version="1.0" encoding="UTF-8"?>
<!-- The Best Svg Icon site in the world: iconSvg.co, Visit us! https://iconsvg.co -->
<svg width="800px" height="800px" version="1.1" viewBox="144 144 512 512" xmlns="http://www.w3.org/2000/svg">
 <defs>
  <clipPath id="b">
   <path d="m218 305h364v346.9h-364z"/>
  </clipPath>
  <clipPath id="a">
   <path d="m321 148.09h158v126.91h-158z"/>
  </clipPath>
 </defs>
 <path d="m335.75 548.51c3.75-2.1875 5.0234-7 2.8438-10.754-11.84-20.449-12.711-45.457-2.3203-66.684 10.387-21.223 30.668-35.879 54.082-39.074 23.414-3.1992 46.883 5.4805 62.582 23.141 15.699 17.664 21.566 41.988 15.648 64.863-5.9219 22.879-22.852 41.301-45.148 49.133-22.297 7.8281-47.027 4.0312-65.953-10.125-3.4766-2.6055-8.4102-1.9023-11.02 1.5742-2.6094 3.4805-1.9023 8.4141 1.5742 11.023 23.086 17.324 53.289 22.004 80.539 12.484 27.246-9.5234 47.961-31.996 55.234-59.93 7.2695-27.934 0.14844-57.652-19-79.254-19.145-21.602-47.797-32.242-76.398-28.375-28.605 3.8672-53.402 21.734-66.125 47.641-12.727 25.91-11.703 56.457 2.7227 81.457 2.1758 3.7539 6.9766 5.043 10.738 2.8789z"/>
 <path d="m400.23 525.95h-16.199c-4.3477 0-7.875 3.5273-7.875 7.875 0 4.3477 3.5273 7.8711 7.875 7.8711h16.199c8.4375-0.082031 16.191-4.6602 20.34-12.008 4.1445-7.3477 4.0586-16.348-0.23047-23.613-4.2891-7.2656-12.129-11.691-20.566-11.613-4.3477 0-7.8711-3.5234-7.8711-7.8711s3.5234-7.8711 7.8711-7.8711h16.203c4.3477 0 7.8711-3.5234 7.8711-7.8711s-3.5234-7.8711-7.8711-7.8711h-16.203c-8.4375 0.078126-16.188 4.6562-20.336 12.004-4.1484 7.3477-4.0625 16.352 0.22656 23.617 4.2891 7.2656 12.129 11.691 20.566 11.609 4.3477 0 7.8711 3.5234 7.8711 7.8711s-3.5234 7.8711-7.8711 7.8711z"/>
 <g clip-path="url(#b)">
  <path d="m577.41 416.97-173.18-110.21c-2.5781-1.6406-5.875-1.6406-8.457 0l-173.18 110.21c-3.668 2.3359-4.75 7.2031-2.4141 10.875 2.332 3.668 7.1992 4.75 10.871 2.4141l27.258-17.348v231.12c0 2.0859 0.83203 4.0898 2.3086 5.5664 1.4766 1.4766 3.4766 2.3047 5.5664 2.3047h39.359c4.3477 0 7.8711-3.5234 7.8711-7.8711s-3.5234-7.8711-7.8711-7.8711h-31.488v-233.27l125.95-80.145 125.95 80.145v233.27h-188.93c-4.3477 0-7.875 3.5234-7.875 7.8711s3.5273 7.8711 7.875 7.8711h196.8c2.0859 0 4.0898-0.82812 5.5664-2.3047 1.4766-1.4766 2.3047-3.4805 2.3047-5.5664v-231.12l27.262 17.32v-0.003907c3.668 2.3359 8.5352 1.2539 10.871-2.418 2.332-3.668 1.25-8.5352-2.418-10.871z"/>
 </g>
 <g clip-path="url(#a)">
  <path d="m329.15 242.56h23.617v23.617c0 4.3477 3.5234 7.8711 7.8711 7.8711 4.3477 0 7.875-3.5234 7.875-7.8711v-31.488c0-2.0898-0.83203-4.0898-2.3086-5.5664-1.4766-1.4766-3.4766-2.3086-5.5664-2.3086h-13.812l53.176-59.039 53.176 59.039h-13.816c-4.3477 0-7.8711 3.5273-7.8711 7.875v31.488c0 4.3477 3.5234 7.8711 7.8711 7.8711s7.8711-3.5234 7.8711-7.8711v-23.617h23.617c3.1094 0 5.9258-1.832 7.1875-4.6719 1.2656-2.8398 0.73828-6.1562-1.3398-8.4688l-70.848-78.719c-1.5273-1.5938-3.6406-2.4922-5.8477-2.4922-2.2109 0-4.3203 0.89844-5.8516 2.4922l-70.848 78.719c-2.0781 2.3125-2.6055 5.6289-1.3398 8.4688 1.2656 2.8398 4.082 4.6719 7.1875 4.6719z"/>
 </g>
 <path d="m203.2 274.05h-13.816l53.176-59.082 53.176 59.082h-13.816c-4.3477 0-7.8711 3.5234-7.8711 7.8711v47.23c0 4.3477 3.5234 7.875 7.8711 7.875 4.3477 0 7.8711-3.5273 7.8711-7.875v-39.359h23.617c3.1094 0 5.9258-1.8281 7.1914-4.668 1.2617-2.8398 0.73828-6.1602-1.3438-8.4688l-70.848-78.719v-0.003906c-1.5273-1.5898-3.6406-2.4922-5.8477-2.4922-2.207 0-4.3203 0.90234-5.8477 2.4922l-70.848 78.719-0.003906 0.003906c-2.0781 2.3086-2.6016 5.6289-1.3398 8.4688 1.2656 2.8398 4.082 4.668 7.1914 4.668h23.613v86.594c0 4.3477 3.5273 7.8711 7.875 7.8711 4.3477 0 7.8711-3.5234 7.8711-7.8711v-94.465c0-2.0859-0.82812-4.0898-2.3047-5.5664-1.4766-1.4766-3.4805-2.3047-5.5664-2.3047z"/>
 <path d="m634.14 276.65-70.848-78.719v-0.003906c-1.5312-1.5898-3.6406-2.4922-5.8516-2.4922-2.207 0-4.3203 0.90234-5.8477 2.4922l-70.848 78.719v0.003906c-2.0781 2.3086-2.6055 5.6289-1.3398 8.4688 1.2617 2.8398 4.0781 4.668 7.1875 4.668h23.617v39.359c0 4.3477 3.5234 7.875 7.8711 7.875s7.8711-3.5273 7.8711-7.875v-47.23c0-2.0859-0.82812-4.0898-2.3047-5.5664-1.4766-1.4766-3.4766-2.3047-5.5664-2.3047h-13.816l53.176-59.082 53.176 59.082h-13.812c-4.3477 0-7.875 3.5234-7.875 7.8711v94.465c0 4.3477 3.5273 7.8711 7.875 7.8711 4.3477 0 7.8711-3.5234 7.8711-7.8711v-86.594h23.617c3.1055 0 5.9219-1.8281 7.1875-4.668 1.2656-2.8398 0.73828-6.1602-1.3398-8.4688z"/>
</svg>