<?xml version="1.0" encoding="UTF-8"?>
<!-- The Best Svg Icon site in the world: iconSvg.co, Visit us! https://iconsvg.co -->
<svg width="800px" height="800px" version="1.1" viewBox="144 144 512 512" xmlns="http://www.w3.org/2000/svg">
 <defs>
  <clipPath id="b">
   <path d="m148.09 148.09h409.91v503.81h-409.91z"/>
  </clipPath>
  <clipPath id="a">
   <path d="m379 148.09h272.9v388.91h-272.9z"/>
  </clipPath>
 </defs>
 <g clip-path="url(#b)">
  <path d="m536.45 630.91h-199.42v-73.473c0-33.211-20.594-41.984-31.488-41.984h-62.977c-5.6719 0.36328-11.223-1.7305-15.242-5.75-4.0156-4.0195-6.1133-9.5703-5.75-15.242v-39.129c0-3.0039-1.2891-5.8672-3.5391-7.8594-10.527-9.6992-24.145-15.363-38.445-15.984-2.4531 0.29688-4.9219-0.40234-6.8516-1.9414-1.9336-1.5391-3.168-3.7891-3.4258-6.2461l50.957-92.363 0.003906-0.003906c0.84766-1.5508 1.2969-3.2891 1.3008-5.0586v-20.34c0.042969-36.176 14.43-70.859 40.012-96.438 25.578-25.582 60.262-39.969 96.438-40.012v-20.992c-41.742 0.046875-81.762 16.648-111.28 46.164-29.516 29.516-46.117 69.535-46.164 111.28v17.645l-51.18 92.742c-0.85156 1.5547-1.3008 3.2969-1.3008 5.0703-0.24609 8.4219 2.9922 16.574 8.9531 22.535 5.957 5.9609 14.109 9.1992 22.535 8.9531 7.6328 0.42188 14.957 3.1641 20.992 7.8594v34.121c-0.33203 11.234 3.9844 22.109 11.93 30.055 7.9492 7.9453 18.82 12.262 30.055 11.93h62.684c1.793 0.11719 10.789 1.6797 10.789 20.992v83.969c0 2.7852 1.1055 5.4531 3.0742 7.4219s4.6367 3.0742 7.4219 3.0742h220.41c2.7852 0 5.4531-1.1055 7.4219-3.0742s3.0742-4.6367 3.0742-7.4219v-73.473h-20.992z"/>
 </g>
 <g clip-path="url(#a)">
  <path d="m546.94 232.06v20.992h94.465c2.7852 0 5.4531-1.1055 7.4219-3.0742s3.0742-4.6406 3.0742-7.4219v-62.977c0-8.3516-3.3164-16.359-9.2227-22.266-5.9023-5.9062-13.914-9.2227-22.266-9.2227h-83.969c-7.7695 0.027344-15.254 2.9453-20.992 8.1875-5.7344-5.2422-13.219-8.1602-20.992-8.1875h-83.965c-8.3516 0-16.363 3.3164-22.266 9.2227-5.9062 5.9062-9.2227 13.914-9.2227 22.266v62.977c0 2.7812 1.1055 5.4531 3.0742 7.4219s4.6367 3.0742 7.4219 3.0742h94.465l-0.003906-20.992h-83.965v-52.48c0-5.7969 4.6992-10.496 10.496-10.496h83.969-0.003906c2.7852 0 5.457 1.1055 7.4219 3.0742 1.9688 1.9688 3.0742 4.6367 3.0742 7.4219v10.496h-73.469v20.992h73.473v53.016h-0.003907c-34.238 2.6602-66.219 18.129-89.562 43.316-23.344 25.191-36.336 58.254-36.387 92.598v10.496h20.992v-10.496c0-30.621 12.164-59.988 33.816-81.641s51.016-33.816 81.637-33.816 59.988 12.164 81.641 33.816 33.816 51.02 33.816 81.641-12.164 59.984-33.816 81.637c-21.652 21.652-51.02 33.816-81.641 33.816h-115.45v20.992h115.45c47.465-0.019531 91.5-24.715 116.27-65.199 24.773-40.484 26.715-90.934 5.1328-133.21-21.582-42.27-63.59-70.277-110.91-73.953v-53.016h73.473v-20.992h-73.473v-10.496c0-5.7969 4.6992-10.496 10.496-10.496h83.969c2.7852 0 5.4531 1.1055 7.4219 3.0742s3.0742 4.6367 3.0742 7.4219v52.48z"/>
 </g>
 <path d="m473.47 420.99v10.496c0 5.5664 2.2109 10.906 6.1484 14.844 3.9336 3.9336 9.2734 6.1484 14.84 6.1484h10.496v20.992h20.992v-20.992h10.496c5.5703 0 10.91-2.2148 14.844-6.1484 3.9375-3.9375 6.1484-9.2773 6.1484-14.844v-20.992c0-5.5703-2.2109-10.91-6.1484-14.844-3.9336-3.9375-9.2734-6.1484-14.844-6.1484h-41.984v-20.992h41.984v10.496h20.992v-10.496c0-5.5703-2.2109-10.906-6.1484-14.844-3.9336-3.9375-9.2734-6.1484-14.844-6.1484h-10.496v-20.992h-20.992v20.992h-10.496c-5.5664 0-10.906 2.2109-14.84 6.1484-3.9375 3.9375-6.1484 9.2734-6.1484 14.844v20.992c0 5.5664 2.2109 10.906 6.1484 14.844 3.9336 3.9336 9.2734 6.1484 14.84 6.1484h41.984v20.992h-41.984v-10.496z"/>
 <path d="m420.99 389.5h20.992v20.992h-20.992z"/>
 <path d="m588.93 389.5h20.992v20.992h-20.992z"/>
 <path d="m358.02 515.45h20.992v20.992h-20.992z"/>
 <path d="m284.54 452.48h20.992v20.992h-20.992z"/>
 <path d="m326.53 452.48h73.473v20.992h-73.473z"/>
</svg>