<?xml version="1.0" encoding="UTF-8"?>
<!-- The Best Svg Icon site in the world: iconSvg.co, Visit us! https://iconsvg.co -->
<svg fill="#000000" width="800px" height="800px" version="1.1" viewBox="144 144 512 512" xmlns="http://www.w3.org/2000/svg">
 <g>
  <path d="m250.43 620.41v-228.29c0-4.3477 3.5234-7.8711 7.8711-7.8711h9.8945l-41.523-70.965-41.281 70.965h9.9336c2.0898 0 4.0898 0.82812 5.5664 2.3047 1.4766 1.4766 2.3086 3.4805 2.3086 5.5664v228.29z"/>
  <path d="m596.8 620.41v-228.29c0-4.3477 3.5234-7.8711 7.8711-7.8711h9.8945l-41.523-70.965-41.281 70.965h9.9336c2.0859 0 4.0898 0.82812 5.5664 2.3047 1.4766 1.4766 2.3047 3.4805 2.3047 5.5664v228.29z"/>
  <path d="m400 415.74c-22.969 0-44.992 9.125-61.23 25.363s-25.363 38.262-25.363 61.23c0 22.965 9.125 44.988 25.363 61.23 16.238 16.238 38.262 25.359 61.23 25.359 22.965 0 44.988-9.1211 61.227-25.359 16.242-16.242 25.363-38.266 25.363-61.23-0.027344-22.957-9.1562-44.969-25.391-61.203-16.234-16.23-38.242-25.363-61.199-25.391zm-16.297 156c-0.69922 1.9688-2.1562 3.5781-4.043 4.4727-1.8906 0.89453-4.0586 1.0039-6.0234 0.29688-22.348-7.9141-39.922-25.496-47.832-47.844-1.457-4.0977 0.68359-8.6016 4.7812-10.059 4.0977-1.457 8.6016 0.68359 10.059 4.7812 6.4375 17.82 20.465 31.855 38.281 38.301 4.0938 1.457 6.2344 5.957 4.7773 10.051zm8.4219-77.281h15.746c8.4375 0 16.234 4.5039 20.453 11.809 4.2188 7.3086 4.2188 16.309 0 23.617-4.2188 7.3086-12.016 11.809-20.453 11.809v7.8711c0 4.3477-3.5234 7.8711-7.8711 7.8711s-7.875-3.5234-7.875-7.8711v-7.8711c-6.2617 0-12.27-2.4883-16.699-6.918-4.4258-4.4297-6.9141-10.434-6.9141-16.699 0-4.3477 3.5234-7.8711 7.8711-7.8711 4.3477 0 7.8711 3.5234 7.8711 7.8711 0 2.0898 0.82812 4.0898 2.3047 5.5664 1.4766 1.4766 3.4805 2.3047 5.5664 2.3047h15.746c4.3477 0 7.8711-3.5234 7.8711-7.8711s-3.5234-7.8711-7.8711-7.8711h-15.746c-8.4375 0-16.23-4.5-20.449-11.809-4.2188-7.3047-4.2188-16.309 0-23.617 4.2188-7.3047 12.012-11.805 20.449-11.805v-7.875c0-4.3477 3.5273-7.8711 7.875-7.8711s7.8711 3.5234 7.8711 7.8711v7.875c6.2617 0 12.27 2.4844 16.699 6.9141 4.4297 4.4297 6.918 10.438 6.918 16.699 0 4.3477-3.5273 7.8711-7.875 7.8711-4.3477 0-7.8711-3.5234-7.8711-7.8711 0-2.0859-0.82813-4.0898-2.3047-5.5664-1.4766-1.4766-3.4805-2.3047-5.5664-2.3047h-15.746c-4.3477 0-7.8711 3.5234-7.8711 7.8711s3.5234 7.8711 7.8711 7.8711zm64.777-19.098 0.003906 0.003907c-6.0977-12.742-16.258-23.098-28.883-29.426-1.9336-0.89453-3.4258-2.5312-4.1328-4.5391-0.70703-2.0078-0.57031-4.2188 0.37891-6.125 0.95312-1.9062 2.6328-3.3477 4.6641-3.9922 2.0312-0.64453 4.2344-0.4375 6.1094 0.57031 15.773 7.9023 28.469 20.832 36.078 36.746 0.92578 1.8906 1.0547 4.0703 0.36328 6.0547-0.69531 1.9883-2.1523 3.6133-4.0508 4.5156-1.8984 0.90234-4.082 1.0078-6.0586 0.29297s-3.5859-2.1914-4.4688-4.0977zm13.945 34.844c-4.3477 0-7.8711-3.5234-7.8711-7.8711 0-2.125-0.10156-4.2109-0.30859-6.2969-0.43359-4.3281 2.7188-8.1875 7.0469-8.6211 4.3242-0.43359 8.1836 2.7188 8.6172 7.043 0.25 2.5742 0.38672 5.1875 0.38672 7.832v0.003906c0.011719 2.0938-0.8125 4.1055-2.293 5.5898-1.4766 1.4844-3.4844 2.3203-5.5781 2.3203z"/>
  <path d="m400 384.25c-31.316 0-61.352 12.441-83.496 34.586-22.145 22.145-34.586 52.18-34.586 83.496 0 31.316 12.441 61.352 34.586 83.496 22.145 22.141 52.18 34.582 83.496 34.582s61.348-12.441 83.492-34.582c22.145-22.145 34.586-52.18 34.586-83.496-0.035156-31.309-12.488-61.32-34.625-83.457-22.137-22.137-52.148-34.59-83.453-34.625zm0 220.42c-27.145 0-53.172-10.781-72.363-29.973-19.191-19.195-29.973-45.223-29.973-72.363 0-27.141 10.781-53.172 29.973-72.363 19.191-19.191 45.219-29.973 72.363-29.973 27.141 0 53.168 10.781 72.359 29.973 19.195 19.191 29.977 45.223 29.977 72.363-0.03125 27.129-10.824 53.141-30.008 72.328-19.188 19.184-45.199 29.977-72.328 30.008z"/>
  <path d="m400 337.02c7.9023 0.003906 15.793 0.56641 23.613 1.6836v-72.531c0-4.3477 3.5273-7.875 7.875-7.875h9.8945l-41.527-70.965-41.281 70.965h9.9375c2.0859 0 4.0898 0.83203 5.5664 2.3086s2.3047 3.4766 2.3047 5.5664v72.531c7.8203-1.1172 15.715-1.6797 23.617-1.6836z"/>
 </g>
</svg>