<?xml version="1.0" encoding="UTF-8"?>
<!-- The Best Svg Icon site in the world: iconSvg.co, Visit us! https://iconsvg.co -->
<svg fill="#000000" width="800px" height="800px" version="1.1" viewBox="144 144 512 512" xmlns="http://www.w3.org/2000/svg">
 <g>
  <path d="m491.69 587.57c-0.47266-11.523-8.1016-22.516-21.629-31.078-0.011719-0.003906-0.019532-0.015625-0.03125-0.019531-0.035156-0.019531-0.058594-0.039062-0.097656-0.066406-0.082032-0.050782-0.17188-0.082032-0.25-0.125-0.15234-0.082032-0.30078-0.16797-0.46484-0.23047-0.13281-0.050781-0.26172-0.085937-0.39844-0.125-0.13672-0.039063-0.27344-0.085937-0.41406-0.10938-0.16797-0.03125-0.33203-0.039062-0.5-0.050781-0.10156-0.003907-0.19141-0.03125-0.29297-0.03125h-25.246l-5.2305-97.855c-0.035156-0.61328-0.19531-1.2148-0.47266-1.7578l-12-23.328-5.9805-94.625c6.5078-0.37109 11.695-5.7695 11.695-12.375 0-6.6953-5.3359-12.156-11.98-12.383v-36.742c0-2.4023-1.9492-4.3477-4.3477-4.3477-2.4023 0-4.3477 1.9492-4.3477 4.3477v36.723h-19.387v-36.723c0-2.4023-1.9492-4.3477-4.3477-4.3477-2.3984 0-4.3477 1.9492-4.3477 4.3477v36.742c-6.6445 0.22656-11.98 5.6875-11.98 12.383 0 6.6016 5.1836 12 11.699 12.375l-5.9805 94.625-12 23.328c-0.28125 0.54297-0.44141 1.1445-0.47266 1.7578l-5.2305 97.855h-25.246c-0.097656 0-0.1875 0.019531-0.28125 0.03125-0.17188 0.011719-0.34375 0.019531-0.51562 0.050781-0.14062 0.023438-0.27344 0.070312-0.40234 0.10938-0.13672 0.039063-0.27344 0.070313-0.40234 0.125-0.16016 0.066406-0.30859 0.14453-0.45703 0.22656-0.085937 0.046874-0.17188 0.074218-0.25781 0.125-0.035156 0.019531-0.066406 0.039062-0.097656 0.066406-0.011719 0.003906-0.019532 0.011718-0.03125 0.019531-13.527 8.5664-21.148 19.559-21.629 31.078l-9.5859 18.605c-0.69531 1.3516-0.63672 2.9609 0.15234 4.2578 0.78906 1.293 2.1953 2.0859 3.7148 2.0859h194.8 0.019531c2.4023 0 4.3477-1.9453 4.3477-4.3477 0-0.85156-0.24609-1.6484-0.67188-2.3164zm-113.36-261.77c0-2.0469 1.6641-3.707 3.707-3.707h3.8984c0.011718 0 0.015625 0.003906 0.023437 0.003906 0.011719 0 0.015625-0.003906 0.023438-0.003906h28.035c0.011719 0 0.015625 0.003906 0.023437 0.003906 0.011719 0 0.015626-0.003906 0.023438-0.003906h3.8984c2.0469 0 3.707 1.6641 3.707 3.707 0 2.0469-1.6641 3.707-3.707 3.707h-35.934c-2.0352 0-3.6992-1.6602-3.6992-3.707zm-6.8242 133.48 11.992-23.305c0.27344-0.53516 0.4375-1.1172 0.47266-1.7188l6.0703-96.047h19.926l6.0703 96.047c0.039063 0.59766 0.20312 1.1836 0.47266 1.7188l11.992 23.305 5.1602 96.461h-67.309zm-37.812 105.16h132.62c8.957 5.8906 14.559 12.812 16.199 19.922h-165.02c1.6406-7.1172 7.2383-14.039 16.199-19.922zm-23.957 39.379 5.543-10.758h169.45l5.543 10.758z"/>
  <path d="m612.29 441.08h-0.011719-21.945l-40.77-142.5c4.8555-2.9336 8.1172-8.2461 8.1172-14.324 0-9.2305-7.5117-16.742-16.742-16.742-3.2812 0-6.332 0.96094-8.918 2.6016-32.391-27.562-66.543-38.723-90.879-43.168-0.90234-21.922-19.016-39.477-41.152-39.477-22.141 0-40.25 17.559-41.152 39.477-24.336 4.4453-58.492 15.598-90.879 43.168-2.5859-1.6367-5.6367-2.6016-8.918-2.6016-9.2305 0-16.742 7.5117-16.742 16.742 0 6.0742 3.2656 11.387 8.1172 14.324l-40.77 142.5h-21.941-0.011719c-2.4023 0-4.3477 1.9453-4.3477 4.3477 0 11.164 2.3789 21.91 7.0703 31.953v0.003906c0.023437 0.050782 0.046875 0.10156 0.070312 0.15625 0.097657 0.20313 0.20703 0.39453 0.32422 0.57422 0.011719 0.019531 0.03125 0.035157 0.039062 0.050781 0.13672 0.19531 0.28125 0.37109 0.44141 0.53906 0.046875 0.050781 0.097656 0.089844 0.14062 0.13672 0.14453 0.13672 0.29688 0.26172 0.45703 0.37891 0.050781 0.035156 0.10156 0.074219 0.15234 0.10938 0.20703 0.13672 0.42188 0.25781 0.64844 0.35156 0.050782 0.019531 0.10547 0.035156 0.15625 0.054687 0.1875 0.070313 0.38281 0.13281 0.57812 0.17969 0.074219 0.015626 0.14453 0.035157 0.22266 0.046876 0.25781 0.046874 0.51562 0.082031 0.77734 0.082031h0.015625 129.2 0.015625c0.26172 0 0.51953-0.03125 0.77734-0.082031 0.074219-0.015626 0.14453-0.03125 0.22266-0.046876 0.19531-0.046874 0.38672-0.10547 0.57422-0.17578 0.054687-0.019531 0.10547-0.035156 0.16016-0.058593 0.22656-0.097657 0.4375-0.21484 0.64453-0.35156 0.054688-0.035156 0.10547-0.074219 0.15625-0.10938 0.15625-0.10938 0.30859-0.23828 0.44922-0.37109 0.050781-0.046875 0.10156-0.089844 0.14453-0.14062 0.15625-0.16797 0.30859-0.34375 0.4375-0.53516 0.015626-0.019531 0.03125-0.035156 0.046876-0.054687 0.12109-0.17969 0.23047-0.37109 0.32422-0.57422 0.023438-0.050781 0.046875-0.10156 0.070313-0.15625v-0.003907c4.6836-10.039 7.0703-20.789 7.0703-31.953 0-2.4023-1.9492-4.3477-4.3477-4.3477h-0.011719-21.941l-40.762-142.5c4.8516-2.9336 8.1172-8.2461 8.1172-14.316 0-2.7969-0.69922-5.4297-1.9141-7.75 30.422-25.789 62.438-36.465 85.535-40.82 3.3438 19.383 20.262 34.172 40.586 34.172 20.32 0 37.242-14.793 40.586-34.172 23.105 4.3516 55.117 15.023 85.535 40.82-1.2188 2.3164-1.9141 4.9531-1.9141 7.75 0 6.0703 3.2578 11.387 8.1172 14.316l-40.77 142.5h-21.941-0.011719c-2.4023 0-4.3477 1.9453-4.3477 4.3477 0 11.164 2.3789 21.914 7.0703 31.953 0 0 0 0.003907 0.003906 0.003907 0.023437 0.050781 0.046875 0.10156 0.070313 0.15234 0.097656 0.20313 0.20312 0.39453 0.32422 0.57422 0.015625 0.019531 0.03125 0.035157 0.046875 0.054688 0.13281 0.19141 0.28125 0.36719 0.4375 0.53516 0.046875 0.050781 0.097657 0.097656 0.14453 0.14062 0.14063 0.13672 0.29688 0.26172 0.45313 0.37109 0.050781 0.035156 0.10156 0.074218 0.15234 0.10938 0.20703 0.13672 0.42188 0.25781 0.64844 0.35156 0.050781 0.019531 0.10547 0.035157 0.15625 0.054688 0.1875 0.070312 0.38281 0.13281 0.57812 0.17969 0.070312 0.015625 0.14453 0.035156 0.21484 0.046875 0.25781 0.046875 0.51562 0.082031 0.77734 0.082031h0.015625 129.2 0.015625c0.26172 0 0.51953-0.03125 0.77734-0.082031 0.074219-0.015625 0.14453-0.03125 0.22266-0.046875 0.19531-0.046875 0.38672-0.10547 0.57422-0.17969 0.050781-0.019531 0.10547-0.035157 0.15625-0.054688 0.22656-0.097656 0.4375-0.21484 0.64453-0.35156 0.054688-0.035157 0.10547-0.074219 0.15625-0.10938 0.15625-0.10938 0.30859-0.23828 0.44922-0.37109 0.050781-0.046875 0.10156-0.089844 0.14453-0.14062 0.15625-0.16797 0.30859-0.34375 0.4375-0.53516 0.015625-0.019531 0.03125-0.035157 0.046875-0.054688 0.12109-0.17969 0.23047-0.37109 0.32422-0.57422 0.023438-0.050781 0.046875-0.10156 0.070312-0.15234 0 0 0-0.003907 0.003907-0.003907 4.6836-10.035 7.0703-20.789 7.0703-31.953 0.003907-2.4023-1.9492-4.3516-4.3516-4.3516zm-353.24-164.85c4.4336 0 8.0391 3.6055 8.0391 8.0391 0 3.6289-2.4141 6.6953-5.7188 7.6914l1.8594-6.5c0.66016-2.3125-0.67578-4.7188-2.9883-5.3789-2.3086-0.66016-4.7188 0.67578-5.3789 2.9883l-1.8555 6.4883c-1.2383-1.4141-2-3.2656-2-5.2891 0.003906-4.4375 3.6094-8.0391 8.043-8.0391zm46.113 173.56h0.011719 20.727c-0.47266 7.4648-2.1719 14.691-5.0625 21.559h-123.58c-2.8906-6.8672-4.5898-14.09-5.0625-21.559h20.727 0.011718 0.011719 92.203c0-0.003906 0.003906 0 0.011719 0zm-5.7695-8.6992h-80.684l40.082-140.09c0.085937 0 0.17188 0.015625 0.26172 0.015625s0.17578-0.011719 0.26172-0.015625zm100.61-179.92c-17.922 0-32.496-14.574-32.496-32.496s14.574-32.496 32.496-32.496 32.496 14.574 32.496 32.496-14.582 32.496-32.496 32.496zm140.95 15.059c4.4336 0 8.0391 3.6055 8.0391 8.0391 0 2.0234-0.76172 3.875-2 5.2891l-1.8555-6.4883c-0.66016-2.3125-3.0742-3.6406-5.3789-2.9883-2.3086 0.66016-3.6484 3.0664-2.9883 5.3789l1.8594 6.5c-3.3047-0.99609-5.7188-4.0703-5.7188-7.6914 0.003906-4.4375 3.6094-8.0391 8.043-8.0391zm-0.26172 24.762c0.089844 0 0.17578 0.015625 0.26172 0.015625 0.085937 0 0.17188-0.011718 0.26172-0.015625l40.082 140.09h-80.684zm62.051 170.36h-123.57c-2.8906-6.8672-4.5898-14.09-5.0625-21.559h20.727 0.011719 0.011718 92.195 0.011719 0.011718 20.727c-0.46875 7.4609-2.168 14.688-5.0586 21.559z"/>
  <path d="m398.08 219.73h10.484c2.4023 0 4.3477-1.9492 4.3477-4.3477 0-2.3984-1.9492-4.3477-4.3477-4.3477h-4.2188v-3.1172c0-2.4023-1.9453-4.3477-4.3477-4.3477s-4.3477 1.9492-4.3477 4.3477v3.3945c-4.8984 1.1133-8.5703 5.4922-8.5703 10.723 0 6.0664 4.9375 11 11 11h3.8359c1.2656 0 2.2969 1.0312 2.2969 2.2969s-1.0273 2.2969-2.2969 2.2969l-10.48-0.003906c-2.4023 0-4.3477 1.9492-4.3477 4.3477 0 2.4023 1.9492 4.3477 4.3477 4.3477h4.2188v3.125c0 2.4023 1.9492 4.3477 4.3477 4.3477 2.4023 0 4.3477-1.9492 4.3477-4.3477v-3.4023c4.8984-1.1133 8.5664-5.4922 8.5664-10.715 0-6.0664-4.9336-11-10.992-11h-3.8359c-1.2695 0-2.2969-1.0312-2.2969-2.2969-0.007812-1.2695 1.0234-2.3008 2.2891-2.3008z"/>
 </g>
</svg>