<?xml version="1.0" encoding="UTF-8"?>
<!-- The Best Svg Icon site in the world: iconSvg.co, Visit us! https://iconsvg.co -->
<svg fill="#000000" width="800px" height="800px" version="1.1" viewBox="144 144 512 512" xmlns="http://www.w3.org/2000/svg">
 <g>
  <path d="m426.52 161.35c-7.3242 0-13.258 5.9375-13.258 13.258v198.87c0 3.5195 1.3945 6.8906 3.8828 9.375 2.4844 2.4883 5.8594 3.8867 9.375 3.8867h198.87c3.5156 0 6.8906-1.3984 9.375-3.8867 2.4883-2.4844 3.8828-5.8555 3.8828-9.375 0-37.234-9.8008-73.816-28.418-106.06-18.621-32.25-45.398-59.027-77.648-77.645-32.246-18.621-68.828-28.422-106.06-28.422zm13.258 198.87v-172.36c44.691 3.0938 86.758 22.246 118.43 53.922 31.676 31.68 50.828 73.742 53.922 118.43z"/>
  <path d="m572.36 413.26h-185.61v-185.61c0-3.5195-1.3984-6.8906-3.8867-9.375-2.4844-2.4883-5.8555-3.8867-9.375-3.8867-56.258 0-110.21 22.352-150 62.133s-62.133 93.738-62.133 150c0 56.258 22.352 110.21 62.133 150 39.781 39.785 93.738 62.133 150 62.133 56.262 0 110.22-22.348 150-62.133 39.781-39.781 62.133-93.738 62.133-150 0-3.5156-1.3984-6.8906-3.8828-9.375-2.4883-2.4883-5.8594-3.8828-9.375-3.8828zm-198.88 198.87c-49.227 1.7578-97.137-16.113-133.19-49.676-36.055-33.566-57.297-80.082-59.055-129.31-1.7578-49.23 16.113-97.137 49.68-133.19 33.566-36.051 80.078-57.293 129.3-59.051v185.61c0 3.5156 1.3984 6.8867 3.8828 9.375 2.4883 2.4844 5.8594 3.8828 9.375 3.8828h185.62c-3.3594 46.895-24.387 90.766-58.84 122.76-34.453 31.992-79.762 49.719-126.78 49.598z"/>
  <path d="m280.68 400h33.145c7.3242 0 13.258-5.9375 13.258-13.258 0-7.3242-5.9336-13.262-13.258-13.262h-13.258c0-7.3203-5.9375-13.258-13.258-13.258-7.3242 0-13.258 5.9375-13.258 13.258v0.66406c-10.84 2.1992-19.863 9.6602-24.066 19.891-4.1992 10.23-3.0234 21.879 3.1406 31.062 6.1602 9.1836 16.496 14.688 27.555 14.676h13.258c3.6602 0 6.6289 2.9688 6.6289 6.6289s-2.9688 6.6289-6.6289 6.6289h-33.145c-7.3242 0-13.258 5.9375-13.258 13.258 0 7.3242 5.9336 13.258 13.258 13.258h13.258c0 7.3242 5.9336 13.258 13.258 13.258 7.3203 0 13.258-5.9336 13.258-13.258 11.84-1.1836 22.152-8.5938 27.047-19.441 4.8945-10.848 3.6328-23.484-3.3125-33.148-6.9492-9.6602-18.523-14.883-30.363-13.699h-13.258c-3.6602 0-6.6289-2.9688-6.6289-6.6289 0-3.6641 2.9688-6.6289 6.6289-6.6289z"/>
 </g>
</svg>