<?xml version="1.0" encoding="UTF-8"?>
<!-- The Best Svg Icon site in the world: iconSvg.co, Visit us! https://iconsvg.co -->
<svg fill="#000000" width="800px" height="800px" version="1.1" viewBox="144 144 512 512" xmlns="http://www.w3.org/2000/svg">
 <g>
  <path d="m431.49 620.41v-125.95h-39.363c-6.2578-0.015626-12.254-2.5117-16.676-6.9375-4.4258-4.4219-6.9219-10.418-6.9375-16.676v-59.75l-47.391-47.309-110.05 104.22v152.4h15.742v-118.08c0-4.3477 3.5273-7.875 7.875-7.875h62.977c2.0859 0 4.0898 0.83203 5.5664 2.3086 1.4727 1.4766 2.3047 3.4766 2.3047 5.5664v118.08zm-23.617-110.21c2.0859 0 4.0898 0.82812 5.5664 2.3047 1.4766 1.4766 2.3047 3.4805 2.3047 5.5664v55.105c0 2.0859-0.82813 4.0898-2.3047 5.5664s-3.4805 2.3047-5.5664 2.3047h-78.723c-4.3477 0-7.8711-3.5234-7.8711-7.8711v-55.105c0-4.3477 3.5234-7.8711 7.8711-7.8711zm-118.08-78.719c0-8.3516 3.3203-16.363 9.2227-22.266 5.9062-5.9062 13.914-9.2227 22.266-9.2227 8.3516 0 16.359 3.3164 22.266 9.2227 5.9062 5.9023 9.2227 13.914 9.2227 22.266 0 8.3477-3.3164 16.359-9.2227 22.266-5.9062 5.9023-13.914 9.2227-22.266 9.2227-8.3516 0-16.359-3.3203-22.266-9.2227-5.9023-5.9062-9.2227-13.918-9.2227-22.266z"/>
  <path d="m337.02 431.49c0 8.6953-7.0508 15.742-15.746 15.742-8.6953 0-15.742-7.0469-15.742-15.742 0-8.6953 7.0469-15.746 15.742-15.746 8.6953 0 15.746 7.0508 15.746 15.746"/>
  <path d="m326.87 347.18 41.645 41.723v-19.758l-47.23-44.871-141.7 134.22v17.711l18.027-17.16 118.24-112.02c3.1211-2.9062 7.9805-2.8359 11.02 0.15625z"/>
  <path d="m242.56 510.21h47.23v110.21h-47.23z"/>
  <path d="m337.02 525.95h62.977v39.359h-62.977z"/>
  <path d="m620.41 470.85v-283.39c0-2.0859-0.82812-4.0898-2.3047-5.5664-1.4766-1.4766-3.4766-2.3047-5.5664-2.3047h-220.42c-4.3477 0-7.8711 3.5234-7.8711 7.8711v283.39c0 2.0859 0.82812 4.0898 2.3047 5.5664 1.4766 1.4766 3.4805 2.3047 5.5664 2.3047h220.42c2.0898 0 4.0898-0.82812 5.5664-2.3047 1.4766-1.4766 2.3047-3.4805 2.3047-5.5664zm-110.21-212.55h-15.746c-8.4336 0-16.23-4.5-20.449-11.809-4.2188-7.3047-4.2188-16.309 0-23.613 4.2188-7.3086 12.016-11.809 20.449-11.809v-7.8711c0-4.3477 3.5273-7.875 7.875-7.875 4.3477 0 7.8711 3.5273 7.8711 7.875v7.8711c6.2617 0 12.27 2.4883 16.699 6.918 4.4297 4.4258 6.918 10.434 6.918 16.699 0 4.3477-3.5273 7.8711-7.875 7.8711-4.3477 0-7.8711-3.5234-7.8711-7.8711 0-2.0898-0.82812-4.0898-2.3047-5.5664-1.4766-1.4766-3.4805-2.3086-5.5664-2.3086h-15.746c-4.3477 0-7.8711 3.5273-7.8711 7.875s3.5234 7.8711 7.8711 7.8711h15.746c8.4375 0 16.234 4.5 20.453 11.809 4.2188 7.3047 4.2188 16.309 0 23.613-4.2188 7.3086-12.016 11.809-20.453 11.809v7.875c0 4.3477-3.5234 7.8711-7.8711 7.8711-4.3477 0-7.875-3.5234-7.875-7.8711v-7.875c-6.2617 0-12.27-2.4883-16.695-6.9141-4.4297-4.4297-6.918-10.438-6.918-16.699 0-4.3477 3.5234-7.875 7.8711-7.875s7.8711 3.5273 7.8711 7.875c0 2.0859 0.83203 4.0898 2.3047 5.5664 1.4766 1.4727 3.4805 2.3047 5.5664 2.3047h15.746c4.3477 0 7.8711-3.5234 7.8711-7.8711 0-4.3477-3.5234-7.875-7.8711-7.875zm-78.719 204.68h-7.875c-4.3477 0-7.8711-3.5273-7.8711-7.875 0-4.3477 3.5234-7.8711 7.8711-7.8711h7.875c4.3477 0 7.8711 3.5234 7.8711 7.8711 0 4.3477-3.5234 7.875-7.8711 7.875zm0-31.488h-7.875c-4.3477 0-7.8711-3.5273-7.8711-7.875 0-4.3477 3.5234-7.8711 7.8711-7.8711h7.875c4.3477 0 7.8711 3.5234 7.8711 7.8711 0 4.3477-3.5234 7.875-7.8711 7.875zm0-31.488h-7.875c-4.3477 0-7.8711-3.5273-7.8711-7.875s3.5234-7.8711 7.8711-7.8711h7.875c4.3477 0 7.8711 3.5234 7.8711 7.8711s-3.5234 7.875-7.8711 7.875zm0-31.488h-7.875c-4.3477 0-7.8711-3.5273-7.8711-7.875 0-4.3477 3.5234-7.8711 7.8711-7.8711h7.875c4.3477 0 7.8711 3.5234 7.8711 7.8711 0 4.3477-3.5234 7.875-7.8711 7.875zm0-31.488h-7.875c-4.3477 0-7.8711-3.5273-7.8711-7.875 0-4.3477 3.5234-7.8711 7.8711-7.8711h7.875c4.3477 0 7.8711 3.5234 7.8711 7.8711 0 4.3477-3.5234 7.875-7.8711 7.875zm149.57 125.95h-118.08c-4.3477 0-7.875-3.5273-7.875-7.875 0-4.3477 3.5273-7.8711 7.875-7.8711h118.08c4.3477 0 7.8711 3.5234 7.8711 7.8711 0 4.3477-3.5234 7.875-7.8711 7.875zm0-31.488h-118.08c-4.3477 0-7.875-3.5273-7.875-7.875 0-4.3477 3.5273-7.8711 7.875-7.8711h118.08c4.3477 0 7.8711 3.5234 7.8711 7.8711 0 4.3477-3.5234 7.875-7.8711 7.875zm0-31.488h-118.08c-4.3477 0-7.875-3.5273-7.875-7.875s3.5273-7.8711 7.875-7.8711h118.08c4.3477 0 7.8711 3.5234 7.8711 7.8711s-3.5234 7.875-7.8711 7.875zm0-31.488h-118.08c-4.3477 0-7.875-3.5273-7.875-7.875 0-4.3477 3.5273-7.8711 7.875-7.8711h118.08c4.3477 0 7.8711 3.5234 7.8711 7.8711 0 4.3477-3.5234 7.875-7.8711 7.875zm0-31.488h-118.08c-4.3477 0-7.875-3.5273-7.875-7.875 0-4.3477 3.5273-7.8711 7.875-7.8711h118.08c4.3477 0 7.8711 3.5234 7.8711 7.8711 0 4.3477-3.5234 7.875-7.8711 7.875z"/>
 </g>
</svg>