<?xml version="1.0" encoding="UTF-8"?>
<!-- The Best Svg Icon site in the world: iconSvg.co, Visit us! https://iconsvg.co -->
<svg fill="#000000" width="800px" height="800px" version="1.1" viewBox="144 144 512 512" xmlns="http://www.w3.org/2000/svg">
 <g>
  <path d="m269.12 535.79h261.75v-287.33h-261.75zm220.2-207.33 19.703-19.703v0.003907c1.1016-1.1328 2.6133-1.7773 4.1914-1.7891 1.5781-0.007812 3.0977 0.61328 4.2148 1.7305s1.7383 2.6367 1.7305 4.2148c-0.011719 1.5781-0.65625 3.0898-1.7891 4.1914l-19.703 19.703h0.003907c-2.3086 2.3047-6.0469 2.3047-8.3516 0-2.3047-2.3086-2.3047-6.0469 0-8.3516zm-48.195-27.703 9.9062-26.043h0.003907c0.55078-1.4766 1.6641-2.668 3.0977-3.3203 1.4336-0.64844 3.0664-0.69922 4.5352-0.14062 1.4727 0.5625 2.6562 1.6836 3.2969 3.1211s0.67578 3.0742 0.10547 4.5391l-9.9062 26.043c-0.54688 1.4766-1.6602 2.6797-3.0938 3.332-1.4375 0.65234-3.0742 0.70313-4.5469 0.14453-1.4727-0.5625-2.6602-1.6875-3.3008-3.1289-0.63672-1.4414-0.67188-3.082-0.09375-4.5469zm-48.023-36.551c0-3.2617 2.6445-5.9062 5.9062-5.9062 3.2578 0 5.9023 2.6445 5.9023 5.9062v27.551c0 3.2617-2.6445 5.9062-5.9023 5.9062-3.2617 0-5.9062-2.6445-5.9062-5.9062zm-61.535 10.793v-0.003906c2.9766-1.332 6.4688-0.003906 7.8047 2.9727l11.406 25.422v-0.003906c0.66797 1.4336 0.73047 3.0742 0.17969 4.5547-0.55078 1.4766-1.6758 2.6758-3.1172 3.3203-1.4375 0.64844-3.0781 0.69141-4.5508 0.12109-1.4727-0.57422-2.6562-1.7109-3.2812-3.1602l-11.41-25.418c-0.64062-1.4297-0.6875-3.0547-0.13281-4.5195 0.55859-1.4648 1.6758-2.6484 3.1016-3.2891zm-5.375 186.99h20.164c-14.629-14.285-22.945-33.82-23.105-54.262-0.16016-20.445 7.8477-40.105 22.246-54.621 14.398-14.512 33.996-22.676 54.441-22.676 20.445 0 40.043 8.1641 54.441 22.676 14.398 14.516 22.406 34.176 22.246 54.621-0.16016 20.441-8.4766 39.977-23.105 54.262h19.289c3.2578 0 5.9023 2.6406 5.9023 5.9023s-2.6445 5.9023-5.9023 5.9023h-146.62c-3.2617 0-5.9062-2.6406-5.9062-5.9023s2.6445-5.9023 5.9062-5.9023zm-44.074-152.9c2.3047-2.3047 6.043-2.3047 8.3477 0l19.703 19.703c2.2734 2.3125 2.2578 6.0234-0.035156 8.3164s-6.0039 2.3086-8.3125 0.035156l-19.703-19.703c-2.3047-2.3047-2.3047-6.043 0-8.3516z"/>
  <path d="m415.13 589.3c0 8.3555-6.7734 15.129-15.129 15.129s-15.129-6.7734-15.129-15.129 6.7734-15.129 15.129-15.129 15.129 6.7734 15.129 15.129"/>
  <path d="m269.12 596.45c0.042969 9.043 3.6914 17.695 10.133 24.043 6.4453 6.3438 15.152 9.8594 24.195 9.7617h193.09c9.043 0.097656 17.75-3.418 24.195-9.7617 6.4414-6.3477 10.09-15 10.133-24.043v-48.852h-261.75zm130.88-34.09c7.1445 0 13.996 2.8359 19.047 7.8906 5.0508 5.0508 7.8906 11.902 7.8906 19.047s-2.8398 13.996-7.8906 19.047-11.902 7.8906-19.047 7.8906-13.996-2.8398-19.051-7.8906c-5.0508-5.0508-7.8867-11.902-7.8867-19.047 0.007812-7.1406 2.8477-13.988 7.8984-19.039 5.0508-5.0508 11.895-7.8906 19.039-7.8984z"/>
  <path d="m496.54 169.74h-193.09c-9.043-0.097657-17.75 3.418-24.195 9.7617-6.4414 6.3477-10.09 15-10.133 24.043v33.105h261.75v-33.105c-0.042969-9.043-3.6914-17.695-10.133-24.043-6.4453-6.3438-15.152-9.8594-24.195-9.7617zm-62.367 36.406h-68.355c-3.2617 0-5.9023-2.6406-5.9023-5.9023 0-3.2617 2.6406-5.9023 5.9023-5.9023h68.355c3.2617 0 5.9062 2.6406 5.9062 5.9023 0 3.2617-2.6445 5.9023-5.9062 5.9023z"/>
  <path d="m365.38 461.99h30.375c-1.6523-1.0938-2.6445-2.9414-2.6445-4.9219v-6.0625c-5.0156-1.4844-9.4219-4.5469-12.555-8.7344-3.1367-4.1914-4.832-9.2812-4.8398-14.512 0-3.2617 2.6406-5.9062 5.9023-5.9062 3.2617 0 5.9023 2.6445 5.9023 5.9062 0 5.0273 3.0312 9.5586 7.6719 11.48 4.6445 1.9219 9.9883 0.85937 13.543-2.6953 3.5547-3.5508 4.6172-8.8984 2.6953-13.543-1.9219-4.6406-6.457-7.668-11.48-7.668-7.8359-0.003907-15.191-3.793-19.738-10.176-4.5469-6.3828-5.7266-14.57-3.1641-21.977 2.5586-7.4062 8.5469-13.117 16.062-15.332v-5.2461c0-3.2617 2.6445-5.9023 5.9062-5.9023 3.2578 0 5.9023 2.6406 5.9023 5.9023v4.7734c5.4453 1.1484 10.328 4.1328 13.836 8.4492 3.5039 4.3164 5.4219 9.7109 5.4297 15.273 0 3.2578-2.6445 5.9023-5.9023 5.9023-3.2617 0-5.9062-2.6445-5.9062-5.9023 0-5.0273-3.0273-9.5586-7.6719-11.484-4.6406-1.9219-9.9883-0.85938-13.543 2.6953-3.5547 3.5547-4.6172 8.8984-2.6914 13.543 1.9219 4.6445 6.4531 7.6719 11.48 7.6719 8.0664-0.003906 15.602 4.0078 20.105 10.699 4.5039 6.6914 5.3828 15.184 2.3477 22.656-3.0352 7.4727-9.5898 12.945-17.484 14.598v5.5898c0 1.9805-0.99219 3.8281-2.6445 4.9219h32.242c15.984-10.066 26.789-26.594 29.59-45.273 2.8047-18.68-2.6719-37.648-14.996-51.961s-30.273-22.543-49.16-22.543-36.84 8.2305-49.164 22.543c-12.324 14.312-17.797 33.281-14.996 51.961 2.8047 18.68 13.605 35.207 29.59 45.273z"/>
 </g>
</svg>