<?xml version="1.0" encoding="UTF-8"?>
<!-- The Best Svg Icon site in the world: iconSvg.co, Visit us! https://iconsvg.co -->
<svg fill="#000000" width="800px" height="800px" version="1.1" viewBox="144 144 512 512" xmlns="http://www.w3.org/2000/svg">
 <g>
  <path d="m351.45 388.06c-1.2305 1.2305-2.8398 1.8438-4.4531 1.8438-1.6133 0-3.2227-0.61328-4.4531-1.8438-2.457-2.457-2.457-6.4492 0-8.9062l13.828-13.824c-1.9805-2.3594-4.207-4.4922-6.6211-6.4023l-45.914 45.906c-1.2305 1.2305-2.8398 1.8438-4.4531 1.8438-1.6133 0-3.2227-0.61328-4.4531-1.8438-2.457-2.457-2.457-6.4492 0-8.9062l43.535-43.535c-5.1445-2.0469-10.73-3.2109-16.594-3.2109-24.836 0-45.039 20.207-45.039 45.039 0 24.832 20.207 45.039 45.039 45.039 24.832 0 45.039-20.207 45.039-45.039 0-6.3594-1.3398-12.41-3.7266-17.898zm-12.488 11.473-2.875 2.875c-1.2305 1.2305-2.8398 1.8438-4.4531 1.8438-1.6133 0-3.2227-0.61328-4.4531-1.8438-2.457-2.457-2.457-6.4453 0-8.9062l2.875-2.875c2.457-2.457 6.4453-2.457 8.9062 0 2.4648 2.457 2.457 6.4414 0 8.9062z"/>
  <path d="m504.49 376.31-11.754 11.754c-1.2305 1.2305-2.8398 1.8438-4.4531 1.8438s-3.2227-0.61328-4.4531-1.8438c-2.457-2.457-2.457-6.4492 0-8.9062l13.844-13.844c-1.9805-2.3594-4.207-4.4922-6.625-6.4023l-45.926 45.922c-1.2305 1.2305-2.8398 1.8438-4.4531 1.8438s-3.2227-0.61328-4.4531-1.8438c-2.457-2.457-2.457-6.4492 0-8.9062l43.543-43.539c-5.1406-2.0469-10.715-3.1992-16.574-3.1992-24.836 0-45.039 20.207-45.039 45.039 0 24.832 20.207 45.039 45.039 45.039 24.832 0 45.039-20.207 45.039-45.039 0.003906-6.3633-1.3398-12.422-3.7344-17.918zm-24.242 23.227-2.875 2.875c-1.2305 1.2305-2.8398 1.8438-4.4531 1.8438s-3.2227-0.61328-4.4531-1.8438c-2.457-2.457-2.457-6.4453 0-8.9062l2.875-2.875c2.457-2.457 6.4453-2.457 8.9062 0 2.4609 2.457 2.457 6.4414 0 8.9062z"/>
  <path d="m421.3 475.26-1.25-2.0625c-4.8516-8.0508-7.7227-12.254-14.934-12.254-3.0664 0-6.0469 1.0547-8.8555 3.125-2.2148 1.6484-5.25 1.6523-7.4805 0.003907-2.8164-2.0742-5.793-3.1289-8.8633-3.1289-7.4531 0-10.367 4.3945-15.301 12.809l-0.82812 1.4102c-5.9492 10.07-15.559 15.617-27.059 15.617-5.3008 0-10.137-1.5156-14.309-3.6328 6.8906 12.27 21.199 20.512 38.113 20.512 11.91 0 21.105-3.4453 27.336-10.238 1.1953-1.3008 2.875-2.0391 4.6406-2.0391 1.7695 0 3.4492 0.74219 4.6406 2.0391 6.2266 6.7969 15.422 10.238 27.332 10.238 16.906 0 31.227-8.2539 38.113-20.512-4.1719 2.1172-9.0078 3.6328-14.309 3.6328-12.23 0.007812-20.309-4.6367-26.988-15.52z"/>
  <path d="m513.21 285.94c-1.2461-1.2812-2.5156-2.5391-3.793-3.7852-1.1016-1.0586-2.1875-2.1328-3.3164-3.1602-2.5195-2.3086-5.1289-4.5273-7.7852-6.6797-0.64453-0.52344-1.3047-1.0273-1.9609-1.543-28.57-22.445-64.562-35.867-103.71-35.867-39.125 0-75.098 13.406-103.66 35.824-0.68359 0.53516-1.3711 1.0625-2.0508 1.6133-2.6367 2.1328-5.2148 4.332-7.7148 6.6211-1.168 1.0625-2.2891 2.1719-3.4258 3.2656-1.2383 1.1953-2.4531 2.4102-3.6562 3.6406-30.441 31.121-48.75 73.469-48.75 118.46 0 93.324 75.93 169.26 169.25 169.26 93.324 0 169.25-75.93 169.25-169.26 0.007812-44.949-18.277-87.277-48.676-118.39zm-142 10.152c-1.5703-1.168-2.4883-2.9883-2.4883-4.918 0-9.4023 5.5586-19.375 17.508-21.992v-3.2383c0-3.4102 2.8203-6.1758 6.2969-6.1758 3.4766 0 6.2969 2.7656 6.2969 6.1758v3.3711c10.062 2.4492 17.512 10.5 17.512 20.133 0 3.4102-2.8203 6.1758-6.2969 6.1758-3.4766 0-6.2969-2.7656-6.2969-6.1758 0-4.75-5.0312-8.6211-11.215-8.6211-7.6562 0-10.113 4.293-10.879 7.5273l32.199 23.965c1.5703 1.168 2.4883 2.9922 2.4883 4.9219 0 10.672-7.3359 19.316-17.512 21.91v3.4062c0 3.4102-2.8203 6.1758-6.2969 6.1758-3.4766 0-6.2969-2.7656-6.2969-6.1758v-3.3711c-10.055-2.4492-17.508-10.508-17.508-20.141 0-3.4102 2.8203-6.1758 6.2969-6.1758s6.2969 2.7656 6.2969 6.1758c0 4.7578 5.0273 8.6289 11.211 8.6289 5.4453 0 9.6367-3.0781 10.852-7.6367zm53.293 224.17c-13 0-23.719-3.3516-31.973-9.9688-8.2578 6.6211-18.984 9.9688-31.977 9.9688-30.902 0-55.113-21.93-55.113-49.918 0-2.707 1.7266-5.1094 4.293-5.9688 2.5586-0.85547 5.3867 0.003906 7.0273 2.1602 0.074219 0.10547 9.082 11.652 19.992 11.652 7.0625 0 12.516-3.1758 16.211-9.4258l0.80469-1.3711c4.9688-8.4844 11.148-19.035 26.168-19.035 4.3359 0 8.6211 1.1094 12.594 3.2227 3.9766-2.1172 8.2617-3.2227 12.602-3.2227 14.66 0 20.793 10.172 25.719 18.344l1.1992 1.9766c4.4219 7.2109 8.375 9.5234 16.27 9.5234 10.848 0 19.906-11.539 19.992-11.652 1.6367-2.1562 4.4727-3.0195 7.0234-2.1602 2.5625 0.86328 4.293 3.2578 4.293 5.9688-0.015625 27.98-24.223 49.906-55.125 49.906zm38.688-68.391c-30.23 0-55.047-23.406-57.402-53.043-0.074218-0.38281-0.23047-0.73438-0.23047-1.1445 0-7.3008-5.8398-13.234-13.012-13.234-7.168 0-13.008 5.9414-13.008 13.234 0 0.48438-0.17188 0.91797-0.27734 1.3711-2.4648 29.523-27.242 52.809-57.395 52.809-31.781 0-57.637-25.855-57.637-57.637s25.855-57.637 57.637-57.637c25.902 0 47.863 17.18 55.102 40.738 4.3281-3.3789 9.6875-5.4766 15.578-5.4766 5.875 0 11.23 2.0859 15.551 5.457 7.2461-23.547 29.199-40.719 55.098-40.719 31.781 0 57.637 25.855 57.637 57.637-0.007813 31.789-25.863 57.645-57.641 57.645z"/>
 </g>
</svg>