<?xml version="1.0" encoding="UTF-8"?>
<!-- The Best Svg Icon site in the world: iconSvg.co, Visit us! https://iconsvg.co -->
<svg fill="#000000" width="800px" height="800px" version="1.1" viewBox="144 144 512 512" xmlns="http://www.w3.org/2000/svg">
 <g>
  <path d="m400 518.08c18.781-0.027344 36.785-7.5039 50.062-20.781 13.281-13.281 20.754-31.285 20.785-50.066 0-30.543-46.523-97.375-70.848-128.95-24.324 31.645-70.848 98.398-70.848 128.95h-0.003906c0.03125 18.781 7.5039 36.785 20.785 50.066 13.281 13.277 31.285 20.754 50.066 20.781zm7.8711-78.719h-15.746c-8.4375 0-16.23-4.5-20.449-11.809-4.2188-7.3086-4.2188-16.309 0-23.617 4.2188-7.3047 12.012-11.809 20.449-11.809v-7.8711c0-4.3477 3.5273-7.8711 7.875-7.8711s7.8711 3.5234 7.8711 7.8711v7.8711c6.2617 0 12.27 2.4883 16.699 6.918 4.4297 4.4297 6.918 10.438 6.918 16.699 0 4.3477-3.5273 7.8711-7.875 7.8711-4.3477 0-7.8711-3.5234-7.8711-7.8711 0-2.0859-0.82813-4.0898-2.3047-5.5664-1.4766-1.4766-3.4805-2.3047-5.5664-2.3047h-15.746c-4.3477 0-7.8711 3.5234-7.8711 7.8711 0 4.3477 3.5234 7.8711 7.8711 7.8711h15.746c8.4375 0 16.234 4.5039 20.453 11.809 4.2188 7.3086 4.2188 16.309 0 23.617-4.2188 7.3047-12.016 11.809-20.453 11.809v7.8711c0 4.3477-3.5234 7.8711-7.8711 7.8711s-7.875-3.5234-7.875-7.8711v-7.8711c-6.2617 0-12.27-2.4883-16.699-6.918-4.4258-4.4297-6.9141-10.438-6.9141-16.699 0-4.3477 3.5234-7.8711 7.8711-7.8711 4.3477 0 7.8711 3.5234 7.8711 7.8711 0 2.0898 0.82812 4.0898 2.3047 5.5664 1.4766 1.4766 3.4805 2.3047 5.5664 2.3047h15.746c4.3477 0 7.8711-3.5234 7.8711-7.8711 0-4.3477-3.5234-7.8711-7.8711-7.8711z"/>
  <path d="m250.43 368.51v110.21h68.961c-3.9258-10.035-5.9531-20.711-5.9844-31.488 0-20.309 15.273-50.773 32.512-78.719z"/>
  <path d="m443.93 352.77h121.39c4.3477 0 7.8711-3.5234 7.8711-7.8711 0-4.3477-3.5234-7.8711-7.8711-7.8711h-132.09c3.4648 4.957 7.0859 10.234 10.707 15.742z"/>
  <path d="m549.57 478.72v-110.21h-95.488c17.242 27.945 32.512 58.41 32.512 78.719-0.03125 10.777-2.0586 21.453-5.9805 31.488z"/>
  <path d="m226.81 234.69c0 2.0859 0.83203 4.0898 2.3086 5.5664 1.4766 1.4766 3.4766 2.3047 5.5664 2.3047h330.62c4.3477 0 7.8711-3.5234 7.8711-7.8711s-3.5234-7.875-7.8711-7.875h-330.62c-4.3477 0-7.875 3.5273-7.875 7.875z"/>
  <path d="m289.79 203.2h47.23v7.8711h-47.23z"/>
  <path d="m348.83 179.58h-70.852c-2.1719 0-3.9336 1.7617-3.9336 3.9375 0 2.1719 1.7617 3.9336 3.9336 3.9336h70.852c2.1719 0 3.9336-1.7617 3.9336-3.9336 0-2.1758-1.7617-3.9375-3.9336-3.9375z"/>
  <path d="m549.57 525.95h-113.67c-22.781 10.496-49.012 10.496-71.793 0h-113.67v62.977h299.14z"/>
  <path d="m573.18 502.34c0-2.0898-0.82812-4.0898-2.3047-5.5664-1.4766-1.4766-3.4805-2.3086-5.5664-2.3086h-92.812c-3.7969 5.7344-8.2344 11.016-13.227 15.746h106.04c2.0859 0 4.0898-0.82812 5.5664-2.3047 1.4766-1.4766 2.3047-3.4805 2.3047-5.5664z"/>
  <path d="m234.69 620.41h330.62c4.3477 0 7.8711-3.5234 7.8711-7.8711 0-4.3477-3.5234-7.8711-7.8711-7.8711h-330.62c-4.3477 0-7.875 3.5234-7.875 7.8711 0 4.3477 3.5273 7.8711 7.875 7.8711z"/>
  <path d="m250.43 321.28h127.68c8.582-11.73 14.879-19.602 15.742-20.703h0.003906c1.5508-1.7656 3.7891-2.7734 6.1406-2.7734 2.3477 0 4.5859 1.0078 6.1406 2.7734 0.86719 1.1016 7.1641 8.9727 15.742 20.703h127.68v-62.977h-299.14z"/>
  <path d="m226.81 344.89c0 2.0859 0.83203 4.0898 2.3086 5.5664 1.4766 1.4766 3.4766 2.3047 5.5664 2.3047h121.39c3.6211-5.5117 7.2422-10.785 10.707-15.742h-132.09c-4.3477 0-7.875 3.5234-7.875 7.8711z"/>
  <path d="m327.5 494.46h-92.809c-4.3477 0-7.875 3.5273-7.875 7.875 0 4.3477 3.5273 7.8711 7.875 7.8711h106.04c-4.9922-4.7305-9.4297-10.012-13.227-15.746z"/>
 </g>
</svg>