<?xml version="1.0" encoding="UTF-8"?>
<!-- The Best Svg Icon site in the world: iconSvg.co, Visit us! https://iconsvg.co -->
<svg fill="#000000" width="800px" height="800px" version="1.1" viewBox="144 144 512 512" xmlns="http://www.w3.org/2000/svg">
 <g>
  <path d="m557.44 384.25h-39.359c-5.625 0-10.82 3-13.633 7.8711s-2.8125 10.875 0 15.746 8.0078 7.8711 13.633 7.8711h39.359c5.625 0 10.824-3 13.637-7.8711s2.8125-10.875 0-15.746-8.0117-7.8711-13.637-7.8711z"/>
  <path d="m281.92 384.25h-39.359c-5.625 0-10.824 3-13.637 7.8711s-2.8125 10.875 0 15.746 8.0117 7.8711 13.637 7.8711h39.359c5.625 0 10.824-3 13.637-7.8711s2.8125-10.875 0-15.746-8.0117-7.8711-13.637-7.8711z"/>
  <path d="m612.54 250.43h-425.09c-6.2617 0-12.27 2.4883-16.699 6.918-4.4297 4.4297-6.918 10.434-6.918 16.699v251.9c0 6.2656 2.4883 12.273 6.918 16.699 4.4297 4.4297 10.438 6.918 16.699 6.918h425.09c6.2617 0 12.27-2.4883 16.699-6.918 4.4297-4.4258 6.918-10.434 6.918-16.699v-251.9c0-6.2656-2.4883-12.27-6.918-16.699-4.4297-4.4297-10.438-6.918-16.699-6.918zm-15.742 196.8c0 4.1758-1.6602 8.1797-4.6133 11.133s-6.957 4.6133-11.133 4.6133h-15.742c-4.1758 0-8.1797 1.6562-11.133 4.6094-2.9531 2.9531-4.6133 6.957-4.6133 11.133v15.742c0 4.1758-1.6562 8.1836-4.6094 11.133-2.9531 2.9531-6.957 4.6133-11.133 4.6133h-267.65c-4.1758 0-8.1836-1.6602-11.133-4.6133-2.9531-2.9492-4.6133-6.957-4.6133-11.133v-15.742c0-4.1758-1.6602-8.1797-4.6094-11.133-2.9531-2.9531-6.957-4.6094-11.133-4.6094h-15.746c-4.1758 0-8.1797-1.6602-11.133-4.6133s-4.6094-6.957-4.6094-11.133v-94.465c0-4.1758 1.6562-8.1797 4.6094-11.133 2.9531-2.9531 6.957-4.6094 11.133-4.6094h15.746c4.1758 0 8.1797-1.6602 11.133-4.6133 2.9492-2.9531 4.6094-6.957 4.6094-11.133v-15.742c0-4.1758 1.6602-8.1797 4.6133-11.133 2.9492-2.9531 6.957-4.6133 11.133-4.6133h267.65c4.1758 0 8.1797 1.6602 11.133 4.6133s4.6094 6.957 4.6094 11.133v15.742c0 4.1758 1.6602 8.1797 4.6133 11.133 2.9531 2.9531 6.957 4.6133 11.133 4.6133h15.742c4.1758 0 8.1797 1.6562 11.133 4.6094 2.9531 2.9531 4.6133 6.957 4.6133 11.133z"/>
  <path d="m400 313.41c-22.969 0-44.992 9.125-61.23 25.363s-25.363 38.262-25.363 61.23c0 22.965 9.125 44.988 25.363 61.227 16.238 16.242 38.262 25.363 61.23 25.363 22.965 0 44.988-9.1211 61.227-25.363 16.242-16.238 25.363-38.262 25.363-61.227-0.027344-22.957-9.1562-44.969-25.391-61.203-16.234-16.23-38.242-25.363-61.199-25.391zm0 78.719c7.4766-0.011719 14.52 3.5234 18.973 9.5352 4.4531 6.0078 5.7891 13.773 3.5977 20.926-2.1875 7.1523-7.6445 12.84-14.699 15.324v1.4492c0 4.3477-3.5234 7.8711-7.8711 7.8711s-7.875-3.5234-7.875-7.8711v-1.4492c-4.5859-1.6211-8.5625-4.6211-11.379-8.5898-2.8203-3.9688-4.3438-8.7109-4.3633-13.578 0-4.3477 3.5234-7.8711 7.8711-7.8711s7.8711 3.5234 7.8711 7.8711c0 3.1836 1.918 6.0547 4.8594 7.2734s6.3281 0.54297 8.582-1.707c2.25-2.25 2.9219-5.6367 1.7031-8.5781-1.2148-2.9414-4.0859-4.8594-7.2695-4.8594-7.4805 0.011718-14.523-3.5234-18.977-9.5352-4.4531-6.0078-5.7891-13.773-3.5977-20.926 2.1914-7.1523 7.6445-12.84 14.699-15.324v-1.4492c0-4.3477 3.5273-7.8711 7.875-7.8711s7.8711 3.5234 7.8711 7.8711v1.4492c4.5898 1.625 8.5625 4.625 11.383 8.5898 2.8164 3.9688 4.3398 8.7109 4.3594 13.578 0 4.3477-3.5234 7.8711-7.8711 7.8711-4.3477 0-7.8711-3.5234-7.8711-7.8711 0-3.1836-1.918-6.0547-4.8594-7.2734-2.9414-1.2188-6.3281-0.54297-8.5781 1.707-2.2539 2.2539-2.9258 5.6367-1.707 8.5781s4.0898 4.8594 7.2734 4.8594z"/>
 </g>
</svg>