<?xml version="1.0" encoding="UTF-8"?>
<!-- The Best Svg Icon site in the world: iconSvg.co, Visit us! https://iconsvg.co -->
<svg fill="#000000" width="800px" height="800px" version="1.1" viewBox="144 144 512 512" xmlns="http://www.w3.org/2000/svg">
 <g>
  <path d="m312.89 453.03h37.789c7.3203 0 13.258-5.9375 13.258-13.258 0-7.3242-5.9375-13.258-13.258-13.258h-16.973v-1.8555c0-7.3242-5.9336-13.258-13.258-13.258-7.3203 0-13.258 5.9336-13.258 13.258v2.5195-0.003907c-11.875 2.0586-21.93 9.9375-26.77 20.977-4.8398 11.039-3.8242 23.77 2.7109 33.898 6.5312 10.129 17.707 16.309 29.758 16.457h15.117c5.1992 0 9.4141 4.2148 9.4141 9.4102 0 5.1992-4.2148 9.4141-9.4141 9.4141h-37.785c-7.3242 0-13.258 5.9375-13.258 13.258 0 7.3242 5.9336 13.258 13.258 13.258h16.969v1.9922c0 7.3203 5.9375 13.258 13.258 13.258 7.3242 0 13.258-5.9375 13.258-13.258v-2.3867c11.879-2.0586 21.93-9.9375 26.77-20.977 4.8398-11.039 3.8242-23.77-2.707-33.898-6.5352-10.129-17.711-16.309-29.762-16.457h-15.117c-4.8008-0.56641-8.4219-4.6406-8.4219-9.4766 0-4.8398 3.6211-8.9102 8.4219-9.4805z"/>
  <path d="m601.79 466.29c6.5977-7.2617 10.281-16.703 10.34-26.516 0-10.551-4.1914-20.668-11.648-28.125-7.4609-7.4609-17.578-11.648-28.125-11.648h-114.15c-7.75-13.27-17.348-25.367-28.508-35.93 6.4492-6.2109 10.09-14.781 10.078-23.734 0-8.7891-3.4922-17.219-9.707-23.438-6.2188-6.2148-14.648-9.707-23.438-9.707h-1.457l34.602-101.82c1.332-4.043 0.64453-8.4805-1.8555-11.93-2.6094-3.6719-6.9023-5.7695-11.402-5.5703h-89.891l-2.918-15.91c-1.2773-6.2695-6.8555-10.734-13.258-10.605h-106.07c-4.1016 0.011719-7.9688 1.918-10.473 5.1719-2.6914 3.1914-3.7227 7.4648-2.7852 11.535l35.664 129.13h-2.5156c-8.832 0.019532-17.293 3.5625-23.5 9.8398-6.2109 6.2812-9.6562 14.777-9.5781 23.609 0.082032 8.8281 3.6836 17.262 10.008 23.43-30.969 29.348-48.852 69.906-49.633 112.57-0.78125 42.66 15.605 83.844 45.48 114.31 29.875 30.461 70.73 47.648 113.4 47.699 33.789 0.003907 66.684-10.824 93.867-30.891 2.0117 8.7695 6.9297 16.598 13.961 22.207 7.0312 5.6094 15.758 8.6719 24.754 8.6836h119.32c10.547 0 20.664-4.1914 28.125-11.648 7.457-7.4609 11.648-17.578 11.648-28.125-0.058594-9.8125-3.7422-19.258-10.34-26.516 6.5195-7.293 10.125-16.734 10.125-26.516 0-9.7852-3.6055-19.227-10.125-26.52 6.5195-7.2891 10.125-16.73 10.125-26.516 0-9.7812-3.6055-19.223-10.125-26.516zm-16.176 79.551c0 3.5156-1.3984 6.8867-3.8828 9.375-2.4883 2.4844-5.8594 3.8828-9.375 3.8828h-119.32c-7.3242 0-13.258-5.9375-13.258-13.258 0-7.3242 5.9336-13.262 13.258-13.262h119.32c3.5156 0 6.8867 1.3984 9.375 3.8867 2.4844 2.4844 3.8828 5.8555 3.8828 9.375zm-132.58-39.777c-7.3242 0-13.258-5.9336-13.258-13.258 0-7.3203 5.9336-13.258 13.258-13.258h119.32c7.3203 0 13.258 5.9375 13.258 13.258 0 7.3242-5.9375 13.258-13.258 13.258zm132.58-66.289c0 3.5156-1.3984 6.8867-3.8828 9.375-2.4883 2.4844-5.8594 3.8828-9.375 3.8828h-119.32c-7.3242 0-13.258-5.9375-13.258-13.258 0-7.3242 5.9336-13.258 13.258-13.258h119.32c3.5156 0 6.8867 1.3945 9.375 3.8828 2.4844 2.4844 3.8828 5.8594 3.8828 9.375zm-353.86-251.91h77.824l10.871 55.684c1.4648 7.3242 8.5898 12.074 15.91 10.609 7.3242-1.4648 12.07-8.5898 10.605-15.91l-5.0352-23.867h66.289l-30.891 92.809h-113.09zm2.5195 145.84h172.36c3.6602 0 6.6289 2.9688 6.6289 6.6289 0 3.6602-2.9688 6.6289-6.6289 6.6289h-172.36c-3.6641 0-6.6289-2.9688-6.6289-6.6289 0-3.6602 2.9648-6.6289 6.6289-6.6289zm-46.406 145.84c0-41.73 19.648-81.027 53.035-106.07h159.1c12.156 9.2383 22.688 20.441 31.156 33.148-9.5859 6.418-15.914 16.684-17.336 28.133-1.4258 11.449 2.1914 22.953 9.9102 31.527-6.5234 7.293-10.129 16.734-10.129 26.516 0 9.7852 3.6055 19.227 10.129 26.516-6.6484 7.2422-10.379 16.688-10.473 26.52-0.007812 7.582 2.2031 15.004 6.3633 21.344-24.98 28.648-61.164 45.047-99.172 44.945-35.164 0-68.887-13.969-93.75-38.832s-38.832-58.586-38.832-93.75zm384.49 132.58h-119.32c-7.3242 0-13.258-5.9375-13.258-13.258 0-7.3242 5.9336-13.258 13.258-13.258h119.32c7.3203 0 13.258 5.9336 13.258 13.258 0 7.3203-5.9375 13.258-13.258 13.258z"/>
 </g>
</svg>