<?xml version="1.0" encoding="UTF-8"?>
<!-- The Best Svg Icon site in the world: iconSvg.co, Visit us! https://iconsvg.co -->
<svg width="800px" height="800px" version="1.1" viewBox="144 144 512 512" xmlns="http://www.w3.org/2000/svg">
 <defs>
  <clipPath id="b">
   <path d="m148.09 358h503.81v293.9h-503.81z"/>
  </clipPath>
  <clipPath id="a">
   <path d="m179 148.09h274v461.91h-274z"/>
  </clipPath>
 </defs>
 <g clip-path="url(#b)">
  <path d="m620.41 358.02h-230.91v20.992h230.91c2.7852 0 5.4531 1.1055 7.4219 3.0742s3.0742 4.6367 3.0742 7.4219v230.91c0 2.7852-1.1055 5.4531-3.0742 7.4219s-4.6367 3.0742-7.4219 3.0742h-440.83c-5.7969 0-10.496-4.6992-10.496-10.496v-230.91c0-5.7969 4.6992-10.496 10.496-10.496h104.96v-20.992h-104.96c-8.3516 0-16.359 3.3164-22.266 9.2227-5.9062 5.9023-9.2227 13.914-9.2227 22.266v230.91c0 8.3516 3.3164 16.363 9.2227 22.266 5.9062 5.9062 13.914 9.2227 22.266 9.2227h440.83c8.3516 0 16.363-3.3164 22.266-9.2227 5.9062-5.9023 9.2227-13.914 9.2227-22.266v-230.91c0-8.3516-3.3164-16.363-9.2227-22.266-5.9023-5.9062-13.914-9.2227-22.266-9.2227z"/>
 </g>
 <path d="m537.32 588.93h-42.855v20.992h52.48c2.7852 0 5.4531-1.1055 7.4219-3.0742s3.0742-4.6367 3.0742-7.4219c0-11.133 4.4258-21.812 12.297-29.688 7.875-7.8711 18.555-12.297 29.688-12.297 2.7852 0 5.4531-1.1055 7.4219-3.0742s3.0742-4.6367 3.0742-7.4219v-83.965c0-2.7852-1.1055-5.457-3.0742-7.4219-1.9688-1.9688-4.6367-3.0742-7.4219-3.0742-11.133 0-21.812-4.4258-29.688-12.297-7.8711-7.875-12.297-18.555-12.297-29.688 0-2.7852-1.1055-5.4531-3.0742-7.4219s-4.6367-3.0742-7.4219-3.0742h-31.488v20.992h21.863c2.2031 12.883 8.3516 24.77 17.598 34.012 9.2422 9.2461 21.129 15.395 34.012 17.594v64.719c-12.883 2.2031-24.77 8.3516-34.012 17.598-9.2461 9.2422-15.395 21.129-17.598 34.012z"/>
 <path d="m190.08 400h20.992v20.992h-20.992z"/>
 <path d="m588.93 400h20.992v20.992h-20.992z"/>
 <path d="m588.93 588.93h20.992v20.992h-20.992z"/>
 <path d="m190.08 588.93h20.992v20.992h-20.992z"/>
 <path d="m400 400c-27.84 0-54.535 11.059-74.219 30.742-19.684 19.684-30.742 46.379-30.742 74.215 0 27.84 11.059 54.535 30.742 74.219 19.684 19.684 46.379 30.742 74.219 30.742 27.836 0 54.531-11.059 74.215-30.742 19.688-19.684 30.742-46.379 30.742-74.219-0.027343-27.824-11.098-54.504-30.773-74.184-19.68-19.676-46.355-30.746-74.184-30.773zm0 188.93v-0.003907c-22.27 0-43.629-8.8438-59.375-24.594-15.75-15.746-24.594-37.102-24.594-59.375 0-22.27 8.8438-43.625 24.594-59.371 15.746-15.75 37.105-24.594 59.375-24.594s43.625 8.8438 59.371 24.594c15.75 15.746 24.594 37.102 24.594 59.371-0.023438 22.266-8.8789 43.605-24.621 59.348-15.738 15.742-37.082 24.598-59.344 24.621z"/>
 <g clip-path="url(#a)">
  <path d="m211.07 253.05h83.969c3.582-0.035157 7.1328-0.6875 10.496-1.9336v127.89c0.36719 5.6719-1.7266 11.227-5.7461 15.246-4.0195 4.0195-9.5742 6.1133-15.246 5.7461h-31.488c-5.7969 0-10.496 4.6992-10.496 10.496 0 11.133-4.4258 21.812-12.297 29.688-7.875 7.8711-18.555 12.297-29.688 12.297-5.7969 0-10.496 4.6992-10.496 10.496v83.969-0.003906c0 2.7852 1.1055 5.4531 3.0742 7.4219s4.6367 3.0742 7.4219 3.0742c11.133 0 21.812 4.4258 29.688 12.297 7.8711 7.875 12.297 18.555 12.297 29.688 0 2.7852 1.1055 5.4531 3.0742 7.4219s4.6367 3.0742 7.4219 3.0742h52.48v-20.992h-42.855c-2.2031-12.883-8.3516-24.77-17.594-34.012-9.2461-9.2461-21.129-15.395-34.016-17.598v-64.719c12.887-2.1992 24.77-8.3477 34.016-17.594 9.2422-9.2422 15.391-21.129 17.594-34.012h21.863c11.234 0.32812 22.105-3.9883 30.051-11.934 7.9492-7.9453 12.266-18.82 11.934-30.051v-64.91c3.3594 1.2461 6.9102 1.8984 10.496 1.9336h83.969c8.3477 0 16.359-3.3203 22.266-9.2227 5.9023-5.9062 9.2227-13.914 9.2227-22.266v-41.984c0-8.3516-3.3203-16.359-9.2227-22.266-5.9062-5.9062-13.918-9.2227-22.266-9.2227h-83.969c-3.5859 0.035157-7.1367 0.6875-10.496 1.9297v-33.418c0-8.3516-3.3203-16.359-9.2227-22.266-5.9062-5.9062-13.914-9.2227-22.266-9.2227h-83.969c-8.3516 0-16.359 3.3164-22.266 9.2227s-9.2227 13.914-9.2227 22.266v41.984c0 8.3516 3.3164 16.359 9.2227 22.266s13.914 9.2227 22.266 9.2227zm125.95-20.992h83.969c2.7812 0 5.4531 1.1055 7.4219 3.0742 1.9648 1.9688 3.0742 4.6367 3.0742 7.4219v41.984c0 2.7812-1.1094 5.4531-3.0742 7.4219-1.9688 1.9688-4.6406 3.0742-7.4219 3.0742h-83.969c-5.7969 0-10.496-4.6992-10.496-10.496v-10.496h73.473v-20.992h-73.473v-10.496c0-5.7969 4.6992-10.496 10.496-10.496zm-136.45-52.48c0-5.7969 4.6992-10.496 10.496-10.496h83.969c2.7812 0 5.4531 1.1055 7.4219 3.0742s3.0742 4.6367 3.0742 7.4219v10.496h-73.473v20.992h73.473v10.496c0 2.7852-1.1055 5.4531-3.0742 7.4219s-4.6406 3.0742-7.4219 3.0742h-83.969c-5.7969 0-10.496-4.6992-10.496-10.496z"/>
 </g>
 <path d="m347.52 358.02h20.992v20.992h-20.992z"/>
</svg>