<?xml version="1.0" encoding="UTF-8"?>
<!-- The Best Svg Icon site in the world: iconSvg.co, Visit us! https://iconsvg.co -->
<svg width="800px" height="800px" version="1.1" viewBox="144 144 512 512" xmlns="http://www.w3.org/2000/svg">
 <defs>
  <clipPath id="a">
   <path d="m194 161h414v490.9h-414z"/>
  </clipPath>
 </defs>
 <g clip-path="url(#a)">
  <path d="m400 384.25c-27.145 0-53.172 10.781-72.363 29.973-19.191 19.191-29.973 45.223-29.973 72.363s10.781 53.172 29.973 72.363c19.191 19.191 45.219 29.973 72.363 29.973 27.141 0 53.168-10.781 72.359-29.973 19.195-19.191 29.977-45.223 29.977-72.363-0.035157-27.129-10.828-53.141-30.012-72.324-19.184-19.184-45.195-29.977-72.324-30.012zm0 188.93c-22.969 0-44.992-9.125-61.23-25.363-16.238-16.238-25.363-38.266-25.363-61.23s9.125-44.988 25.363-61.23c16.238-16.238 38.262-25.359 61.23-25.359 22.965 0 44.988 9.1211 61.227 25.359 16.242 16.242 25.363 38.266 25.363 61.23-0.027344 22.957-9.1602 44.965-25.395 61.199-16.23 16.23-38.238 25.363-61.195 25.395zm149.87-204.85-41.77-44.57c0-0.078125-0.1875-0.10938-0.26953-0.1875 1.5508-3.168 2.3633-6.6445 2.3789-10.172 0-6.2617-2.4883-12.27-6.918-16.699-4.4297-4.4297-10.434-6.918-16.699-6.918h-3.9219l35.754-85.395h0.003906c3.0195-6.0391 3.3125-13.078 0.80469-19.348-2.5078-6.2656-7.5781-11.16-13.934-13.445-6.3516-2.2852-13.379-1.7422-19.305 1.4922l-21.867 11.902c-4.4766 2.4414-9.6211 3.3672-14.668 2.6406-5.0469-0.72656-9.7188-3.0664-13.324-6.668l-8.2969-8.3125c-7.3828-7.3789-17.395-11.527-27.828-11.527-10.438 0-20.449 4.1484-27.828 11.527l-8.2969 8.3125c-3.6172 3.5859-8.2969 5.918-13.34 6.6406-5.043 0.72656-10.188-0.1875-14.672-2.6133l-21.852-11.902c-5.8711-3.1953-12.82-3.7539-19.125-1.5352-6.3047 2.2148-11.375 7-13.953 13.168-2.5781 6.1641-2.4258 13.133 0.42578 19.18l35.961 85.883h-3.9219c-6.5977-0.023437-12.902 2.7227-17.375 7.5742-4.4766 4.8516-6.707 11.355-6.1523 17.93 0.55859 6.5742 3.8516 12.613 9.0742 16.645l-37.375 35.172c-27.59 26.055-47.723 59-58.32 95.438-10.598 36.438-11.277 75.047-1.9648 111.83 5.5078 22.156 18.281 41.828 36.273 55.883 17.996 14.051 40.176 21.668 63.008 21.641h198.85c22.828 0.027344 45.008-7.5898 63.004-21.637 17.996-14.047 30.766-33.719 36.277-55.871l2.2969-9.1484h0.003906c8.6992-34.473 8.5742-70.586-0.36328-105-8.9375-34.414-26.398-66.023-50.773-91.91zm-254.2-171c-1.5469-3.0781-0.91406-6.8047 1.5664-9.1992 2.4805-2.3906 6.2266-2.8945 9.25-1.2383l21.836 11.902c7.4648 4.0469 16.027 5.5859 24.434 4.3906 8.4062-1.1914 16.203-5.0547 22.246-11.02l8.2969-8.3125c4.4297-4.4258 10.434-6.9141 16.699-6.9141 6.2617 0 12.266 2.4883 16.695 6.9141l8.2969 8.3125c6.0273 5.9844 13.824 9.8672 22.23 11.078 8.4062 1.2109 16.98-0.31641 24.449-4.3555l21.852-11.902h0.003906c3-1.7305 6.7891-1.2188 9.2266 1.2461 2.6406 2.5156 3.207 6.5156 1.3672 9.6641l-38.508 91.883h-131.21zm17.742 108.2h173.18c4.3477 0 7.8711 3.5234 7.8711 7.8711s-3.5234 7.8711-7.8711 7.8711h-173.18c-4.3477 0-7.8711-3.5234-7.8711-7.8711s3.5234-7.8711 7.8711-7.8711zm272.37 255.89-2.2969 9.1484c-4.6641 18.754-15.477 35.406-30.715 47.297-15.234 11.887-34.016 18.328-53.344 18.293h-198.85c-19.473-0.027344-38.367-6.6016-53.648-18.672-15.281-12.066-26.059-28.926-30.598-47.863-8.4648-33.953-7.7383-69.547 2.1133-103.12 9.8516-33.574 28.469-63.922 53.938-87.918l44.176-41.562h182.36l39.453 42.066c22.582 23.965 38.762 53.23 47.047 85.098 8.2852 31.867 8.4102 65.309 0.35938 97.234zm-193.65-114.19h15.746c4.1758 0 8.1797 1.6602 11.133 4.6133 2.9531 2.9492 4.6094 6.957 4.6094 11.133 0 4.3477 3.5273 7.8711 7.875 7.8711 4.3477 0 7.8711-3.5234 7.8711-7.8711 0-8.3516-3.3164-16.363-9.2227-22.266-5.9062-5.9062-13.914-9.2227-22.266-9.2227v-7.875c0-4.3477-3.5234-7.8711-7.8711-7.8711s-7.875 3.5234-7.875 7.8711v7.875c-11.25 0-21.645 6-27.27 15.742-5.625 9.7422-5.625 21.746 0 31.488s16.02 15.742 27.27 15.742h15.746c5.625 0 10.82 3.0039 13.633 7.875 2.8125 4.8711 2.8125 10.871 0 15.742s-8.0078 7.8711-13.633 7.8711h-15.746c-4.1758 0-8.1797-1.6562-11.133-4.6094-2.9492-2.9531-4.6094-6.957-4.6094-11.133 0-4.3477-3.5234-7.8711-7.8711-7.8711-4.3477 0-7.875 3.5234-7.875 7.8711 0 8.3516 3.3203 16.359 9.2227 22.266 5.9062 5.9062 13.914 9.2227 22.266 9.2227v7.8711c0 4.3477 3.5273 7.8711 7.875 7.8711s7.8711-3.5234 7.8711-7.8711v-7.8711c11.25 0 21.645-6.0039 27.27-15.746 5.625-9.7422 5.625-21.742 0-31.488-5.625-9.7422-16.02-15.742-27.27-15.742h-15.746c-5.625 0-10.82-3-13.633-7.8711s-2.8125-10.875 0-15.746c2.8125-4.8711 8.0078-7.8711 13.633-7.8711z"/>
 </g>
</svg>