<?xml version="1.0" encoding="UTF-8"?>
<!-- The Best Svg Icon site in the world: iconSvg.co, Visit us! https://iconsvg.co -->
<svg fill="#000000" width="800px" height="800px" version="1.1" viewBox="144 144 512 512" xmlns="http://www.w3.org/2000/svg">
 <g>
  <path d="m431.49 313.41h78.719c2.7344 0.015625 5.2812-1.3906 6.7266-3.7148 1.4453-2.3242 1.582-5.2305 0.35938-7.6758l-15.742-31.488h-0.003906c-1.3398-2.6836-4.0859-4.3711-7.0859-4.3516h47.234c-3-0.019531-5.7461 1.668-7.0859 4.3516l-15.742 31.488c-1.2227 2.4453-1.0898 5.3516 0.35547 7.6758 1.4453 2.3242 3.9922 3.7305 6.7266 3.7148h78.723c2.7344 0.015625 5.2812-1.3906 6.7266-3.7148 1.4453-2.3242 1.582-5.2305 0.35937-7.6758l-15.742-31.488h-0.003906c-1.3398-2.6836-4.0859-4.3711-7.0859-4.3516h-31.488c2.7383 0.011719 5.2852-1.3945 6.7305-3.7148 1.4453-2.3242 1.5781-5.2305 0.35547-7.6758l-15.742-31.488c-1.3398-2.6836-4.0898-4.3711-7.0859-4.3555h-47.234c-2.9961-0.015625-5.7422 1.6719-7.082 4.3555l-15.742 31.488h-0.003907c-1.2227 2.4453-1.0859 5.3516 0.35938 7.6758 1.4453 2.3203 3.9922 3.7266 6.7266 3.7148h-31.488c-2.9961-0.019531-5.7461 1.668-7.0859 4.3516l-15.742 31.488c-1.2227 2.4453-1.0898 5.3516 0.35547 7.6758 1.4453 2.3242 3.9922 3.7305 6.7305 3.7148z"/>
  <path d="m628.29 163.84h-456.58c-4.3477 0-7.875 3.5273-7.875 7.875v456.58c0 2.0859 0.83203 4.0898 2.3086 5.5664 1.4766 1.4727 3.4766 2.3047 5.5664 2.3047h456.58c2.0859 0 4.0898-0.83203 5.5664-2.3047 1.4727-1.4766 2.3047-3.4805 2.3047-5.5664v-456.58c0-2.0898-0.83203-4.0898-2.3047-5.5664-1.4766-1.4766-3.4805-2.3086-5.5664-2.3086zm-448.71 15.746h212.54v134.23c-20.141 1.8633-38.996 10.711-53.301 25.016-14.305 14.305-23.152 33.16-25.016 53.301h-134.23zm212.54 440.83h-212.54v-212.54h134.23c1.8633 20.141 10.711 38.996 25.016 53.301 14.305 14.305 33.16 23.152 53.301 25.016zm7.8711-149.57 0.003906 0.003906c-4.3477 0-7.875-3.5234-7.875-7.8711v-8.9922c-6.7383-1.7383-12.711-5.6641-16.984-11.16-4.2734-5.4922-6.6055-12.25-6.6289-19.211 0-4.3477 3.5234-7.8711 7.8711-7.8711 4.3477 0 7.8711 3.5234 7.8711 7.8711 0 4.1758 1.6602 8.1797 4.6133 11.133 2.9531 2.9531 6.957 4.6133 11.133 4.6133s8.1797-1.6602 11.133-4.6133c2.9492-2.9531 4.6094-6.957 4.6094-11.133s-1.6602-8.1797-4.6094-11.133c-2.9531-2.9531-6.957-4.6094-11.133-4.6094-10.297 0.011718-19.941-5.0156-25.828-13.465-5.8828-8.4453-7.2578-19.238-3.6758-28.891 3.582-9.6523 11.66-16.938 21.629-19.504v-8.9883c0-4.3477 3.5273-7.875 7.875-7.875s7.8711 3.5273 7.8711 7.875v8.9883c6.7383 1.7422 12.711 5.6641 16.984 11.16 4.2734 5.4961 6.6055 12.25 6.6328 19.211 0 4.3477-3.5273 7.8711-7.875 7.8711-4.3477 0-7.8711-3.5234-7.8711-7.8711 0-4.1758-1.6602-8.1797-4.6094-11.133-2.9531-2.9531-6.957-4.6133-11.133-4.6133s-8.1797 1.6602-11.133 4.6133c-2.9531 2.9531-4.6133 6.957-4.6133 11.133 0 4.1758 1.6602 8.1797 4.6133 11.133 2.9531 2.9531 6.957 4.6094 11.133 4.6094 10.293-0.011719 19.941 5.0195 25.824 13.465 5.8828 8.4492 7.2578 19.242 3.6758 28.891-3.5781 9.6523-11.66 16.938-21.629 19.504v8.9922c0 2.0859-0.82812 4.0898-2.3047 5.5664-1.4766 1.4727-3.4805 2.3047-5.5664 2.3047zm220.42 149.57h-212.54v-134.23c20.141-1.8633 38.996-10.711 53.301-25.016s23.152-33.16 25.016-53.301h134.23zm0-228.29h-134.23c-1.8633-20.141-10.711-38.996-25.016-53.301-14.305-14.305-33.16-23.152-53.301-25.016v-134.23h212.54z"/>
  <path d="m337.02 329.15v-70.848h7.8711c3.4688 0.003907 6.5312-2.2695 7.5352-5.5898 1.0078-3.3203-0.28125-6.9062-3.168-8.832l-70.848-47.23c-2.6445-1.7656-6.0898-1.7656-8.7383 0l-70.848 47.23c-2.8867 1.9258-4.1719 5.5117-3.1641 8.832 1.0039 3.3203 4.0664 5.5938 7.5352 5.5898h7.8711v70.848c0 2.0898 0.82813 4.0938 2.3047 5.5664 1.4766 1.4766 3.4805 2.3086 5.5664 2.3086h110.21c2.0898 0 4.0938-0.83203 5.5664-2.3086 1.4766-1.4727 2.3086-3.4766 2.3086-5.5664zm-15.742-7.8711h-23.617v-39.359c0-2.0859-0.83203-4.0898-2.3086-5.5664-1.4766-1.4766-3.4766-2.3047-5.5664-2.3047h-31.488c-4.3477 0-7.8711 3.5234-7.8711 7.8711v39.359h-23.617v-62.977h94.465z"/>
  <path d="m250.43 502.34h-7.8711v-62.977c0-4.3477-3.5234-7.8711-7.8711-7.8711s-7.875 3.5234-7.875 7.8711v62.977h-7.8711c-4.3477 0-7.8711 3.5234-7.8711 7.8711v62.977c0 2.0859 0.82813 4.0898 2.3047 5.5664s3.4805 2.3047 5.5664 2.3047h7.8711v7.8711c0 4.3477 3.5273 7.875 7.875 7.875s7.8711-3.5273 7.8711-7.875v-7.8711h7.8711c2.0898 0 4.0898-0.82813 5.5664-2.3047 1.4766-1.4766 2.3047-3.4805 2.3047-5.5664v-62.977c0-2.0898-0.82812-4.0898-2.3047-5.5664-1.4766-1.4766-3.4766-2.3047-5.5664-2.3047z"/>
  <path d="m337.02 494.46h-7.875c-4.3477 0-7.8711 3.5273-7.8711 7.875v47.23c0 2.0898 0.83203 4.0898 2.3047 5.5664 1.4766 1.4766 3.4805 2.3047 5.5664 2.3047h7.8711v15.742l0.003907 0.003906c0 4.3477 3.5234 7.8711 7.8711 7.8711 4.3477 0 7.8711-3.5234 7.8711-7.8711v-15.746h7.8711c2.0898 0 4.0898-0.82812 5.5664-2.3047 1.4766-1.4766 2.3086-3.4766 2.3086-5.5664v-47.23c0-2.0898-0.83203-4.0898-2.3086-5.5664-1.4766-1.4766-3.4766-2.3086-5.5664-2.3086h-7.8711v-7.8711c0-4.3477-3.5234-7.8711-7.8711-7.8711-4.3477 0-7.8711 3.5234-7.8711 7.8711zm15.742 15.742v31.488l-15.742 0.003906v-31.488z"/>
  <path d="m305.54 486.59h-7.8711v-7.8711c0-4.3477-3.5273-7.8711-7.875-7.8711-4.3477 0-7.8711 3.5234-7.8711 7.8711v7.8711h-7.8711c-4.3477 0-7.8711 3.5234-7.8711 7.8711v31.488c0 2.0898 0.82812 4.0898 2.3047 5.5664 1.4766 1.4766 3.4766 2.3086 5.5664 2.3086h7.8711v47.23c0 4.3477 3.5234 7.8711 7.8711 7.8711 4.3477 0 7.875-3.5234 7.875-7.8711v-47.23h7.8711c2.0859 0 4.0898-0.83203 5.5664-2.3086 1.4766-1.4766 2.3047-3.4766 2.3047-5.5664v-31.488c0-2.0859-0.82812-4.0898-2.3047-5.5664-1.4766-1.4727-3.4805-2.3047-5.5664-2.3047zm-7.8711 31.488h-15.746v-15.742h15.742z"/>
  <path d="m447.23 486.59v94.465c0 2.0898 0.82812 4.0898 2.3047 5.5664 1.4766 1.4766 3.4805 2.3047 5.5664 2.3047h141.7c2.0859 0 4.0898-0.82812 5.5664-2.3047 1.4727-1.4766 2.3047-3.4766 2.3047-5.5664v-94.465c0-2.0859-0.83203-4.0898-2.3047-5.5664-1.4766-1.4766-3.4805-2.3047-5.5664-2.3047h-141.7c-4.3477 0-7.8711 3.5234-7.8711 7.8711zm141.7 7.8711v7.875c-4.3477 0-7.8711-3.5273-7.8711-7.875zm0 70.848v7.8711l-7.8711 0.003906c0-4.3477 3.5234-7.8711 7.8711-7.8711zm-47.23-55.105h23.617v0.003906c4.3477 0 7.8711 3.5234 7.8711 7.8711s-3.5234 7.8711-7.8711 7.8711h-23.617c-4.3477 0-7.8711-3.5234-7.8711-7.8711s3.5234-7.8711 7.8711-7.8711zm0 31.488h23.617v0.003906c4.3477 0 7.8711 3.5234 7.8711 7.8711s-3.5234 7.8711-7.8711 7.8711h-23.617c-4.3477 0-7.8711-3.5234-7.8711-7.8711s3.5234-7.8711 7.8711-7.8711zm-35.426-39.359v0.003907c4.0703 0 8.043 1.2617 11.363 3.6133 3.3242 2.3477 5.8359 5.6719 7.1914 9.5078 0.76562 1.9844 0.69531 4.1953-0.19531 6.125-0.88672 1.9336-2.5195 3.4219-4.5273 4.1289-2.0039 0.71094-4.2109 0.57812-6.1172-0.36719-1.9023-0.94531-3.3477-2.6211-3.9961-4.6445-0.49219-1.3867-1.7148-2.3828-3.1719-2.582-1.457-0.20313-2.9023 0.42578-3.7539 1.625-0.84766 1.1992-0.95703 2.7734-0.28125 4.0781 0.67188 1.3086 2.0195 2.1289 3.4883 2.1289 4.7695-0.003907 9.375 1.7227 12.965 4.8594 3.5898 3.1367 5.9219 7.4688 6.5586 12.191 0.63672 4.7266-0.46094 9.5195-3.0938 13.496-2.6328 3.9727-6.6172 6.8594-11.215 8.1172-4.5977 1.2578-9.4961 0.80469-13.785-1.2773-4.2891-2.0781-7.6758-5.6484-9.5352-10.039-1.6953-4.0039 0.17578-8.625 4.1797-10.32 4.0039-1.6953 8.625 0.17578 10.32 4.1797 0.56641 1.3398 1.8203 2.2617 3.2656 2.3945 1.4453 0.13281 2.8477-0.53906 3.6484-1.75 0.80078-1.2148 0.86719-2.7695 0.17578-4.0469-0.69141-1.2734-2.0312-2.0664-3.4844-2.0586-7.0312 0-13.527-3.75-17.043-9.8398-3.5156-6.0898-3.5156-13.59 0-19.68 3.5156-6.0898 10.012-9.8398 17.043-9.8398zm-43.293-7.8711h7.8711c0 2.0898-0.83203 4.0938-2.3047 5.5664-1.4766 1.4766-3.4805 2.3086-5.5664 2.3086zm0 70.848v0.003906c2.0859 0 4.0898 0.82812 5.5664 2.3047 1.4727 1.4766 2.3047 3.4766 2.3047 5.5664h-7.8711z"/>
 </g>
</svg>