<?xml version="1.0" encoding="UTF-8"?>
<!-- The Best Svg Icon site in the world: iconSvg.co, Visit us! https://iconsvg.co -->
<svg fill="#000000" width="800px" height="800px" version="1.1" viewBox="144 144 512 512" xmlns="http://www.w3.org/2000/svg">
 <g>
  <path d="m171.71 636.16h62.977c2.0859 0 4.0898-0.83203 5.5664-2.3047 1.4766-1.4766 2.3047-3.4805 2.3047-5.5664v-7.875h251.9c0.64844 0 1.2891-0.078124 1.9141-0.23437l77.281-19.316v-0.003906c10.566-2.7266 18.879-10.887 21.801-21.406 2.918-10.52 0.007813-21.793-7.6406-29.582-7.6484-7.7891-18.871-10.906-29.441-8.1758l-63.914 17.051v-1.3086c-0.03125-7.4258-2.7109-14.594-7.5547-20.223 27.621-13.531 51.668-33.375 70.191-57.93 18.527-24.555 31.008-53.129 36.434-83.402 0-0.125 0.10156-0.22656 0.125-0.36328 0.054688-0.33984 0.078125-0.67578 0.13281-1.0156 0.82422-4.8008 1.4766-9.6523 1.9609-14.547 0.085938-0.85938 0.21094-1.7148 0.28516-2.5742 0.47266-5.5117 0.78906-11.109 0.78906-16.742 0-3.5742-0.10938-7.1328-0.30078-10.66-0.0625-1.2578-0.19531-2.5039-0.28516-3.7539-0.16406-2.2422-0.33203-4.4961-0.56641-6.7227-0.17188-1.5742-0.40234-3.1484-0.60547-4.7227-0.24219-1.8438-0.48047-3.6836-0.78906-5.5117s-0.62891-3.6055-0.96875-5.3984c-0.29297-1.5195-0.58203-3.0312-0.90625-4.5352-0.42578-2.0234-0.89844-4.0391-1.3945-6.0469-0.29297-1.1641-0.58984-2.3633-0.89844-3.4883-0.60547-2.2734-1.2422-4.5352-1.9375-6.7773-0.21875-0.73047-0.45703-1.457-0.69141-2.1797h0.007812c-11.359-35.613-32.664-67.234-61.402-91.137-0.42578-0.36328-0.84375-0.73047-1.2656-1.0859-0.59766-0.48047-1.1562-1-1.7539-1.4883h-0.003906c-0.20703-0.14062-0.41797-0.26953-0.63672-0.38281-34.75-27.801-77.93-42.934-122.43-42.914-1.9219 0-3.8164 0.085937-5.7305 0.14062l-0.17578 0.003907c-12.16 0.35156-24.262 1.832-36.148 4.4219-1.2031 0.25-2.3633 0.54297-3.582 0.78906-2.2422 0.52344-4.4727 1.0977-6.6992 1.7148-1.7695 0.48828-3.543 0.97656-5.2969 1.5117-1.1484 0.35547-2.2734 0.73828-3.418 1.1094-35.484 11.492-66.93 32.926-90.59 61.766l-0.40234 0.48828c-1.8906 2.3125-3.7539 4.6445-5.5117 7.0859-0.30859 0.41016-0.58984 0.83594-0.89062 1.2422-2.4414 3.332-4.7852 6.7422-7.0391 10.234-1.2266 1.9141-2.4414 3.8242-3.6055 5.7773-0.34766 0.58203-0.73047 1.125-1.0703 1.7148-0.078125 0.13281-0.09375 0.29297-0.16406 0.43359h0.003907c-16.414 28.301-25.48 60.258-26.371 92.965-0.88672 32.703 6.4297 65.105 21.285 94.254 0.078125 0.26953 0.17578 0.53125 0.28516 0.78906 0.78906 1.5039 1.6914 2.9141 2.5039 4.3945 1.332 2.4492 2.6992 4.8789 4.1328 7.2656 1.25 2.0781 2.5195 4.1406 3.8398 6.1641 1.6523 2.5352 3.4023 5.0078 5.1641 7.4609 1.1797 1.6289 2.2891 3.3047 3.5195 4.9023 2.9219 3.8008 6.0156 7.4844 9.2109 11.074 1.1328 1.2734 2.3633 2.4961 3.5039 3.7461 2.5664 2.7305 5.2109 5.3945 7.9336 7.9961 0.63672 0.60547 1.2109 1.2734 1.8594 1.875 0.125 0.11719 0.29297 0.15625 0.42578 0.26953l-0.003906 0.003907c6.4102 5.9102 13.207 11.387 20.352 16.387l-14.375 4.1328h-30.387v-15.742c0-2.0898-0.82812-4.0898-2.3047-5.5664-1.4766-1.4766-3.4805-2.3047-5.5664-2.3047h-62.977c-4.3477 0-7.875 3.5234-7.875 7.8711v118.08c0 2.0859 0.83203 4.0898 2.3086 5.5664 1.4766 1.4727 3.4766 2.3047 5.5664 2.3047zm351.27-408.23c25.469 23.555 43.645 53.93 52.355 87.512v0.078125c0.73047 2.832 1.3906 5.6953 1.9844 8.5898 0.085937 0.42578 0.14844 0.85156 0.23438 1.2734 0.49609 2.5117 0.96875 5.0391 1.3555 7.5898 0.14844 0.96875 0.25 1.9453 0.38672 2.9219 0.27734 2.0391 0.56641 4.0781 0.78906 6.1328 0.17188 1.6758 0.26953 3.3633 0.39453 5.0469 0.10156 1.3945 0.24219 2.7773 0.31641 4.1875 0.16797 3.1055 0.25391 6.2305 0.25391 9.3789 0 4.2734-0.17969 8.5156-0.47266 12.738-4.4922-5.2578-9.4766-10.074-14.887-14.391-16.109-12.941-27.559-30.789-32.605-50.828l-9.3906-37.551c-3.4766-13.988-3.7188-28.586-0.71484-42.68zm-277.83 38.965c1.5742-2.5352 3.1484-5.0078 4.7773-7.4453 1.3867-2.0547 2.832-4.0625 4.3047-6.0547 0.31641-0.43359 0.62891-0.875 0.95312-1.3086 20.934-27.871 49.43-49.148 82.105-61.289l1.1641-0.42578c2.2656-0.82813 4.5586-1.5742 6.8633-2.3633 1.2109-0.37891 2.4336-0.73047 3.6602-1.0859 1.6836-0.49609 3.3633-1 5.0703-1.4492h0.003906c10.102-2.6211 20.41-4.375 30.809-5.2422h0.070312c-0.10156 2.3672 0.011719 4.7383 0.34766 7.0859l6.3438 44.383c0.28516 2 0.30078 4.0312 0.050782 6.0391l-3.8633 30.953-0.003906-0.003906c-0.050781 0.80469-0.66016 1.4609-1.457 1.5742-0.77734 0.23438-1.6133-0.125-1.9766-0.85547-2.1719-3.625-5.5781-6.3438-9.5898-7.6641-4.0117-1.3203-8.3672-1.1523-12.266 0.46875-3.9023 1.625-7.0859 4.5977-8.9766 8.375l-8.1875 16.383c-5.9297 11.754-5.3945 25.73 1.418 36.996l7.3281 12.273c6.0547 10.148 16.461 16.922 28.188 18.359l40.539 5.0625h0.003907c3.7422 0.46875 7.3047 1.8594 10.375 4.0508l19.453 13.855c5.4258 3.875 8.8711 9.9414 9.4219 16.586 0.55078 6.6445-1.8516 13.195-6.5664 17.91-4.9258 4.9258-8.418 11.098-10.105 17.855l-8.0312 32.125c-0.63281 2.5391-2.4883 4.5977-4.9453 5.4922-2.4609 0.89453-5.2031 0.50781-7.3203-1.0312l-55.105-40.102 0.003906 0.003906c-5.875-4.2734-9.3594-11.09-9.3789-18.352v-23.551c0-6.6875-1.7422-13.262-5.0586-19.066l-19.68-34.387c-6.1758-10.785-17.18-17.926-29.547-19.168l-38.785-3.8828v0.003906c-5.1211-0.49219-9.9219-2.7227-13.605-6.3125-3.6836-3.5938-6.0312-8.3398-6.6484-13.449l-2.582-20.664c0.1875-0.22656 0.28516-0.46484 0.42578-0.68359zm28.688 223.49c-0.26953-0.26172-0.55859-0.50391-0.78906-0.78906-2.0391-2.0078-3.9375-4.0938-5.8945-6.1797-2.3867-2.5859-4.6914-5.2383-6.9102-7.957-1.2422-1.5195-2.5352-3-3.7305-4.5586-1.6289-2.125-3.1484-4.3281-4.6758-6.5273-0.86719-1.2266-1.7461-2.4336-2.582-3.6758-1.4648-2.2109-2.832-4.4805-4.2031-6.7461-0.78906-1.3242-1.5742-2.6367-2.3633-3.9844-0.58984-1.0391-1.125-2.1094-1.6992-3.1484l7.7227-12.879h-0.003906c1.1172-1.8281 2.9297-3.1211 5.0195-3.582 2.0898-0.46484 4.2812-0.050781 6.0625 1.1367l17.98 11.98c5.3711 3.5664 9.2812 8.9453 11.02 15.156 1.7344 6.2109 1.1758 12.84-1.5664 18.672-2.7461 5.8359-7.4961 10.488-13.391 13.113zm12.445 11.02c11.973-7.8359 19.203-21.168 19.246-35.477 0.046875-14.309-7.1055-27.684-19.027-35.594l-17.973-11.973c-5.3711-3.582-11.98-4.8086-18.281-3.3945-6.3008 1.418-11.75 5.3516-15.07 10.891l-2.4023 4.0078v-0.003906c-18.262-43.879-18.457-93.191-0.54297-137.21 1.5078 8.1328 5.6211 15.551 11.715 21.145 6.0938 5.5898 13.84 9.0508 22.07 9.8555l38.793 3.8828v-0.003907c7.3008 0.73828 13.793 4.9492 17.445 11.312l19.68 34.387c1.9492 3.4375 2.9648 7.3281 2.9531 11.281v23.555-0.003907c0.015625 12.293 5.8945 23.836 15.824 31.078l55.105 40.102h-0.003907c6.3516 4.6172 14.582 5.7773 21.961 3.0938 7.3789-2.6836 12.941-8.8594 14.84-16.477l8.0312-32.133c1-3.9844 3.0625-7.625 5.9688-10.535 7.9844-7.9844 12.055-19.082 11.121-30.34-0.92969-11.258-6.7656-21.535-15.957-28.102l-19.461-13.895h0.003906c-5.1992-3.707-11.238-6.0625-17.57-6.8633l-40.504-5.0547c-6.9219-0.84375-13.066-4.8477-16.641-10.84l-7.3281-12.219v0.003906c-4.0156-6.6445-4.332-14.883-0.83594-21.812l8.1875-16.391c0.28516-0.61719 0.89844-1.0117 1.5742-1.0156 0.67578-0.023438 1.3125 0.31641 1.668 0.89062 2.5273 4.2148 6.6992 7.1797 11.512 8.1797 4.8086 1 9.8203-0.054687 13.816-2.9141 3.9961-2.8555 6.6172-7.2578 7.2227-12.133l3.8711-30.953h0.003907c0.42187-3.3984 0.39453-6.8398-0.085938-10.23l-6.3477-44.398c-0.25-1.8281-0.28125-3.6797-0.085938-5.5117 39.266 0.12891 77.414 13.086 108.63 36.902l-1.6289 7.3281v0.003906c-3.6875 16.695-3.457 34.02 0.67188 50.617l9.3828 37.543v-0.003906c5.8828 23.379 19.23 44.199 38.02 59.301 7.5898 6.0664 14.191 13.266 19.578 21.348l2.0938 3.1484c-5.6484 28.938-18.312 56.043-36.875 78.945s-42.461 40.898-69.602 52.418c-2.6289-0.74609-5.3477-1.1445-8.082-1.1836h-38.262l-35.117-10.027c-26.648-7.582-54.887-7.582-81.535 0l-0.72266 0.20312h-0.003906c-7.3555-4.3984-14.391-9.3164-21.047-14.719zm-43.73 40.297h31.488c0.73047 0 1.4609-0.10156 2.1641-0.30859l36.211-10.336c23.82-6.7695 49.059-6.7695 72.879 0l36.211 10.336c0.68359 0.19922 1.3906 0.30469 2.1016 0.30859h39.363c5.6211 0 10.82 3 13.633 7.8711s2.8125 10.875 0 15.746-8.0117 7.8711-13.633 7.8711h-78.723v15.742h78.723c9.6914-0.003906 18.84-4.4727 24.805-12.113l74.652-19.902h-0.003906c3.8242-1.0469 7.9062-0.51562 11.336 1.4727 3.4336 1.9883 5.9219 5.2656 6.9141 9.1055 0.99219 3.8398 0.40234 7.9141-1.6367 11.316-2.0352 3.3984-5.3516 5.8398-9.207 6.7773l-76.34 19.09h-250.94zm-62.977-23.617h47.23v102.34h-47.23z"/>
  <path d="m218.31 601.68c-0.17188-0.5-0.41016-0.97656-0.70703-1.418l-0.94531-1.1797-1.1797-0.94531h-0.003907c-0.4375-0.29688-0.91406-0.53516-1.4141-0.70703-0.44531-0.22656-0.92578-0.38672-1.418-0.47266-1.5352-0.32422-3.1289-0.15625-4.5664 0.47266-0.95312 0.39844-1.832 0.95703-2.5977 1.6523-0.33984 0.375-0.65234 0.76953-0.94531 1.1797-0.29688 0.44141-0.53516 0.91797-0.70703 1.418-0.22656 0.44531-0.38672 0.92187-0.47266 1.418-0.085938 0.51953-0.14062 1.0469-0.15625 1.5742 0.011719 1.0273 0.22656 2.043 0.62891 2.9922 0.71484 1.9766 2.2734 3.5352 4.25 4.25 0.94531 0.40234 1.9648 0.61719 2.9922 0.62891 0.52734-0.015625 1.0547-0.070313 1.5742-0.15625 0.49219-0.085938 0.97266-0.24609 1.418-0.47266 0.5-0.17187 0.97656-0.41016 1.4141-0.71094 0.41406-0.28906 0.80859-0.60547 1.1836-0.94141 1.4375-1.5117 2.25-3.5078 2.2812-5.5898-0.015625-0.52734-0.070312-1.0547-0.15625-1.5742-0.085937-0.49609-0.24609-0.97266-0.47266-1.418z"/>
 </g>
</svg>