<?xml version="1.0" encoding="UTF-8"?>
<!-- The Best Svg Icon site in the world: iconSvg.co, Visit us! https://iconsvg.co -->
<svg fill="#000000" width="800px" height="800px" version="1.1" viewBox="144 144 512 512" xmlns="http://www.w3.org/2000/svg">
 <g>
  <path d="m549.57 368.51c17.418-0.023438 34.219-6.4531 47.199-18.07 12.977-11.613 21.227-27.598 23.176-44.906h-172.24c1.9492 17.309 10.199 33.293 23.18 44.906 12.98 11.617 29.777 18.047 47.195 18.07z"/>
  <path d="m596.8 242.56c0-22.5-12.004-43.289-31.488-54.539-19.488-11.25-43.492-11.25-62.977 0-19.484 11.25-31.488 32.039-31.488 54.539-0.023437 18.133 7.8477 35.375 21.57 47.23h33.531v-7.8711c-6.2578-0.019531-12.25-2.5117-16.676-6.9375-4.4258-4.4258-6.9219-10.422-6.9375-16.68 0-4.3477 3.5234-7.8711 7.8711-7.8711 4.3477 0 7.8711 3.5234 7.8711 7.8711 0 2.0898 0.83203 4.0898 2.3047 5.5664 1.4766 1.4766 3.4805 2.3086 5.5664 2.3086h15.746c4.3477 0 7.8711-3.5273 7.8711-7.875 0-4.3477-3.5234-7.8711-7.8711-7.8711h-15.746c-8.4336 0-16.23-4.5-20.449-11.809-4.2188-7.3047-4.2188-16.309 0-23.613 4.2188-7.3086 12.016-11.809 20.449-11.809v-7.875c0-4.3477 3.5273-7.8711 7.875-7.8711 4.3477 0 7.8711 3.5234 7.8711 7.8711v7.875c6.2578 0.015625 12.254 2.5117 16.68 6.9375 4.4219 4.4219 6.918 10.418 6.9375 16.676 0 4.3477-3.5273 7.875-7.875 7.875s-7.8711-3.5273-7.8711-7.875c0-2.0859-0.82812-4.0898-2.3047-5.5664-1.4766-1.4766-3.4805-2.3047-5.5664-2.3047h-15.746c-4.3477 0-7.8711 3.5234-7.8711 7.8711s3.5234 7.875 7.8711 7.875h15.746c8.4375 0 16.234 4.5 20.453 11.805 4.2188 7.3086 4.2188 16.312 0 23.617-4.2188 7.3086-12.016 11.809-20.453 11.809v7.8711h33.535c13.719-11.855 21.594-29.098 21.57-47.23z"/>
  <path d="m313.41 518.08h173.18v62.977h-173.18z"/>
  <path d="m258.3 596.8h283.39v23.617h-283.39z"/>
  <path d="m266.18 304.27 4.8008-14.484h-9.6055z"/>
  <path d="m287.59 289.79-10.469 31.488h56.836l-10.469-31.488z"/>
  <path d="m281.92 400c17.418-0.023438 34.219-6.457 47.195-18.07 12.98-11.613 21.23-27.598 23.18-44.906h-172.24c1.9492 17.309 10.199 33.293 23.18 44.906 12.977 11.613 29.777 18.047 47.195 18.07z"/>
  <path d="m284.12 242.56h-35.895l-10.469 31.488h56.836z"/>
  <path d="m208.87 289.79-10.473 31.488h56.836l-10.469-31.488z"/>
  <path d="m266.18 211.07c2.0859 0 4.0898-0.82812 5.5664-2.3047 1.4727-1.4766 2.3047-3.4805 2.3047-5.5664v-15.746c0-4.3477-3.5234-7.8711-7.8711-7.8711-4.3477 0-7.875 3.5234-7.875 7.8711v15.746c0 2.0859 0.83203 4.0898 2.3086 5.5664s3.4766 2.3047 5.5664 2.3047z"/>
  <path d="m220 217.68c2.1875 3.7305 6.9805 5 10.727 2.8359 3.75-2.1641 5.0469-6.9492 2.9102-10.711l-7.8711-13.633h-0.003907c-1.0352-1.8242-2.7539-3.1562-4.7812-3.707-2.0234-0.54688-4.1797-0.26953-5.9961 0.78125-1.8164 1.0469-3.1406 2.7773-3.6758 4.8047-0.53516 2.0273-0.24219 4.1836 0.82031 5.9922z"/>
  <path d="m301.6 220.56c3.7656 2.1758 8.5781 0.88672 10.754-2.8789l7.8711-13.633v-0.003906c1.0625-1.8086 1.3555-3.9648 0.82031-5.9922-0.53516-2.0273-1.8594-3.7578-3.6758-4.8047-1.8164-1.0508-3.9727-1.3281-5.9961-0.78125-2.0234 0.55078-3.7461 1.8828-4.7812 3.707l-7.8711 13.633c-2.1758 3.7656-0.88672 8.582 2.8789 10.754z"/>
  <path d="m313.41 518.08h173.18v62.977h-173.18z"/>
  <path d="m258.3 596.8h283.39v23.617h-283.39z"/>
  <path d="m344.89 489.82v12.52h110.21v-12.52l-55.102-55.102z"/>
  <path d="m525.95 409.13v14.484c0 4.3477 3.5273 7.875 7.875 7.875 4.3477 0 7.8711-3.5273 7.8711-7.875v-39.359h-15.746v8.9727l-118.08 17.32 0.003906-10.547c0-4.3477-3.5234-7.875-7.8711-7.875s-7.875 3.5273-7.875 7.875v12.91l-118.08 17.32 0.003906-14.488h-15.746v39.359c0 4.3477 3.5273 7.875 7.875 7.875 4.3477 0 7.8711-3.5273 7.8711-7.875v-8.9727z"/>
 </g>
</svg>