<?xml version="1.0" encoding="UTF-8"?>
<!-- The Best Svg Icon site in the world: iconSvg.co, Visit us! https://iconsvg.co -->
<svg fill="#000000" width="800px" height="800px" version="1.1" viewBox="144 144 512 512" xmlns="http://www.w3.org/2000/svg">
 <g>
  <path d="m567.04 431.49 11.809-47.23h-1.418l-13.461 20.074v-0.003906c-1.5273 2.0781-3.9531 3.3086-6.5352 3.3086-2.5781 0-5.0039-1.2305-6.5312-3.3086l-13.461-20.074h-32.906l11.809 47.23z"/>
  <path d="m518.08 447.23h47.23v7.8711h-47.23z"/>
  <path d="m570.74 470.85h-58.094c-30.188 18.555-48.895 51.164-49.672 86.59 0 58.41 60.223 62.977 78.719 62.977 18.5 0 78.719-4.5664 78.719-62.977-0.77734-35.426-19.484-68.035-49.672-86.59zm-36.918 70.848h15.742c8.4375 0 16.234 4.5 20.453 11.809 4.2188 7.3047 4.2188 16.309 0 23.613-4.2188 7.3086-12.016 11.809-20.453 11.809v7.875c0 4.3477-3.5234 7.8711-7.8711 7.8711-4.3477 0-7.8711-3.5234-7.8711-7.8711v-7.875c-6.2656 0-12.273-2.4883-16.699-6.9141-4.4297-4.4297-6.918-10.438-6.918-16.699 0-4.3477 3.5234-7.875 7.8711-7.875s7.8711 3.5273 7.8711 7.875c0 2.0859 0.83203 4.0898 2.3086 5.5664 1.4766 1.4766 3.4766 2.3047 5.5664 2.3047h15.742c4.3477 0 7.8711-3.5234 7.8711-7.8711s-3.5234-7.875-7.8711-7.875h-15.742c-8.4375 0-16.234-4.5-20.453-11.805-4.2188-7.3086-4.2188-16.312 0-23.617 4.2188-7.3086 12.016-11.809 20.453-11.809v-7.8711c0-4.3477 3.5234-7.875 7.8711-7.875 4.3477 0 7.8711 3.5273 7.8711 7.875v7.8711c6.2656 0 12.27 2.4883 16.699 6.918 4.4297 4.4258 6.918 10.434 6.918 16.699 0 4.3477-3.5234 7.8711-7.8711 7.8711s-7.875-3.5234-7.875-7.8711c0-2.0898-0.82812-4.0898-2.3047-5.5664-1.4766-1.4766-3.4766-2.3086-5.5664-2.3086h-15.742c-4.3477 0-7.875 3.5273-7.875 7.875 0 4.3477 3.5273 7.8711 7.875 7.8711z"/>
  <path d="m373.39 274.05-15.742 31.488h84.703l-15.746-31.488z"/>
  <path d="m263.18 274.05-15.746 31.488h84.703l-15.742-31.488z"/>
  <path d="m355.76 274.05h-21.727l10.863 21.727z"/>
  <path d="m371.5 226.81h-53.215l-15.742 31.488h84.703z"/>
  <path d="m467.86 305.54h84.703l-15.746-31.488h-53.215z"/>
  <path d="m389.14 226.81 10.863 21.727 10.863-21.727z"/>
  <path d="m426.61 179.58h-53.215l-15.742 31.488h84.703z"/>
  <path d="m455.1 295.77 10.863-21.727h-21.727z"/>
  <path d="m412.75 258.3h84.703l-15.742-31.488h-53.215z"/>
  <path d="m261.29 494.46 7.8711-15.742h-21.727l7.875 15.742z"/>
  <path d="m257.12 510.21-12.121 72.66 11.254 37.547h4.0938l11.258-37.547-12.121-72.66z"/>
  <path d="m302.7 479.19c-1.6523-0.15625-3.3047-0.47266-5.0391-0.47266h-10.863l-12.438 24.875 7.4766 45.105z"/>
  <path d="m179.58 518.08v102.34h60.301l-40.855-136.11c-11.992 7.0312-19.383 19.871-19.445 33.77z"/>
  <path d="m317.58 484.31-40.855 136.11h60.301v-102.34c-0.0625-13.898-7.4531-26.738-19.445-33.77z"/>
  <path d="m218.94 478.72c-1.7305 0-3.3867 0.31641-5.0391 0.47266l20.859 69.512 7.4766-45.105-12.434-24.879z"/>
  <path d="m289.79 415.74c0 17.391-14.098 31.488-31.488 31.488s-31.488-14.098-31.488-31.488c0-17.391 14.098-31.488 31.488-31.488s31.488 14.098 31.488 31.488"/>
  <path d="m250.43 321.28h15.742v47.23h-15.742z"/>
  <path d="m533.82 321.28h15.742v47.23h-15.742z"/>
  <path d="m352.77 549.57h94.465v15.742h-94.465z"/>
 </g>
</svg>