<?xml version="1.0" encoding="UTF-8"?>
<!-- The Best Svg Icon site in the world: iconSvg.co, Visit us! https://iconsvg.co -->
<svg fill="#000000" width="800px" height="800px" version="1.1" viewBox="144 144 512 512" xmlns="http://www.w3.org/2000/svg">
 <path d="m517.01 335.36c0-0.13672-0.039062-0.26562-0.054687-0.39844-0.011719-0.15625-0.035156-0.30078-0.058594-0.45703-0.10547-0.57422-0.26562-1.1367-0.55078-1.6367-0.003906-0.011719-0.003906-0.019531-0.011719-0.03125-0.003906-0.015625-0.023437-0.019531-0.03125-0.035156-0.29297-0.48828-0.67969-0.90234-1.1172-1.2695-0.13672-0.10938-0.26562-0.21484-0.40234-0.3125-0.10547-0.070313-0.1875-0.16016-0.29688-0.22656l-111.97-64.645c-0.11719-0.070312-0.24609-0.097656-0.37109-0.15234-0.13672-0.070312-0.27734-0.11719-0.41797-0.17188-0.55078-0.20312-1.1172-0.33594-1.6914-0.34375-0.015625 0-0.023437-0.003906-0.035156-0.003906s-0.019531 0.003906-0.035156 0.003906c-0.57422 0.003907-1.1445 0.14062-1.6875 0.34375-0.14453 0.054688-0.28906 0.10547-0.42188 0.17188-0.125 0.058594-0.25781 0.085938-0.37109 0.15234l-111.98 64.648c-0.11719 0.070312-0.20703 0.16797-0.31641 0.24609-0.12109 0.089844-0.24219 0.17578-0.35938 0.27734-0.45703 0.38281-0.87109 0.8125-1.1641 1.3242l-0.003907 0.003906c-0.29297 0.51562-0.45312 1.082-0.55469 1.668-0.023437 0.15234-0.050781 0.29688-0.058594 0.44922-0.015625 0.13281-0.054687 0.26172-0.054687 0.39844v129.29c0 0.13672 0.039062 0.26172 0.050781 0.39844 0.015625 0.15234 0.039063 0.29688 0.066406 0.44922 0.10547 0.58984 0.26562 1.1523 0.55469 1.668l0.003906 0.003907c0.003906 0.003906 0.011719 0.011719 0.015625 0.019531 0.21484 0.37109 0.48828 0.72656 0.79688 1.0312 0.19531 0.19141 0.42188 0.33594 0.64844 0.5 0.125 0.097656 0.24219 0.21094 0.38281 0.29688l0.035156 0.019531h0.003907l111.93 64.617c0.11719 0.070312 0.25 0.10156 0.37109 0.15234 0.13672 0.066406 0.27344 0.11719 0.41406 0.17187 0.55859 0.20703 1.1445 0.34766 1.7344 0.34766s1.168-0.14062 1.7344-0.34766c0.14062-0.054687 0.27734-0.10547 0.41406-0.17187 0.12109-0.054688 0.25781-0.085938 0.37109-0.15234l111.97-64.648c0.30859-0.17578 0.55859-0.39844 0.81641-0.62891 0.066406-0.054688 0.13672-0.097656 0.20312-0.15234 0.74609-0.73438 1.2148-1.7031 1.3906-2.7461 0.019531-0.14453 0.046875-0.29297 0.058594-0.4375 0.011718-0.13672 0.050781-0.26172 0.050781-0.39844zm-223.94 8.7266 41.051 23.695c0.50391 0.29297 1.0312 0.44922 1.5781 0.55078v63.355c-0.53516 0.10547-1.0742 0.24219-1.5781 0.52734l-41.051 23.699zm167.77 14.969c-0.50391 0.29297-0.89062 0.68359-1.25 1.1016l-54.875-31.695c0.17578-0.51172 0.32031-1.043 0.32031-1.6172v-47.41l96.852 55.922zm-60.84 103.57-54.23-31.316v-62.617l54.23-31.316 54.23 31.316v62.617zm-4.7188-134.16-54.879 31.695c-0.36328-0.41406-0.74609-0.8125-1.25-1.1016l-41.051-23.695 96.859-55.93v47.41c0 0.57812 0.14453 1.1094 0.32031 1.6211zm-56.121 112.48c0.50391-0.29297 0.89062-0.69141 1.25-1.1016l54.879 31.695c-0.18359 0.51953-0.32812 1.0469-0.32812 1.6211v47.41l-96.859-55.926zm65.555 30.594 54.879-31.695c0.36328 0.41406 0.74609 0.8125 1.25 1.1016l41.055 23.699-96.863 55.93v-47.41c0-0.57812-0.14453-1.1055-0.32031-1.625zm61.16-39.316c-0.50391-0.29297-1.0391-0.42969-1.5781-0.52734l0.003906-63.363c0.53906-0.10547 1.0742-0.26172 1.5781-0.55078l41.051-23.699v111.83z"/>
</svg>