<?xml version="1.0" encoding="UTF-8"?>
<!-- The Best Svg Icon site in the world: iconSvg.co, Visit us! https://iconsvg.co -->
<svg fill="#000000" width="800px" height="800px" version="1.1" viewBox="144 144 512 512" xmlns="http://www.w3.org/2000/svg">
 <g>
  <path d="m366.41 225.5c1.9336 0 3.8711-0.73438 5.3438-2.2109l18.797-18.801v70.367c0 4.1758 3.3789 7.5586 7.5586 7.5586 4.1758 0 7.5586-3.3789 7.5586-7.5586l-0.003906-70.375 18.797 18.801c1.4766 1.4766 3.4102 2.2109 5.3438 2.2109 1.9336 0 3.8711-0.73438 5.3438-2.2109 2.9531-2.9492 2.9531-7.7344 0-10.688l-31.691-31.695c-0.70703-0.70703-1.5469-1.2656-2.4844-1.6523-0.035156-0.015625-0.074219-0.019531-0.10938-0.035156-0.85547-0.33594-1.7852-0.53516-2.7617-0.53516-0.97656 0-1.9062 0.20312-2.7617 0.53516-0.035157 0.015625-0.074219 0.019531-0.10938 0.035156-0.9375 0.38672-1.7773 0.94531-2.4844 1.6523l-31.691 31.695c-2.9531 2.9531-2.9531 7.7383 0 10.688 1.4844 1.4766 3.418 2.2188 5.3555 2.2188z"/>
  <path d="m622.46 410.58c0.015625-0.035156 0.019531-0.074219 0.035156-0.10938 0.33594-0.85547 0.53516-1.7852 0.53516-2.7617 0-0.97656-0.20312-1.8984-0.53516-2.7617-0.015625-0.035156-0.019531-0.074218-0.035156-0.10937-0.38672-0.9375-0.94531-1.7773-1.6523-2.4844l-31.691-31.691c-2.9531-2.9531-7.7344-2.9531-10.688 0-2.9531 2.9492-2.9531 7.7383 0 10.688l18.797 18.797h-70.363c-4.1758 0-7.5586 3.3789-7.5586 7.5586 0 4.1758 3.3789 7.5586 7.5586 7.5586h70.367l-18.797 18.797c-2.9531 2.9492-2.9531 7.7383 0 10.688 1.4766 1.4766 3.4102 2.2109 5.3438 2.2109s3.8711-0.73438 5.3438-2.2109l31.691-31.691c0.70312-0.69922 1.2656-1.543 1.6484-2.4766z"/>
  <path d="m424.46 587.18-18.797 18.801v-70.371c0-4.1758-3.3789-7.5586-7.5586-7.5586-4.1758 0-7.5586 3.3789-7.5586 7.5586v70.371l-18.797-18.801c-2.9531-2.9531-7.7344-2.9531-10.688 0-2.9531 2.9492-2.9531 7.7344 0 10.688l31.691 31.695c0.70703 0.70703 1.5469 1.2656 2.4844 1.6523 0.035156 0.015625 0.074219 0.019531 0.10938 0.035156 0.85547 0.33594 1.7852 0.53516 2.7617 0.53516 0.97656 0 1.9062-0.20312 2.7617-0.53516 0.035156-0.015625 0.074218-0.019531 0.10937-0.035156 0.9375-0.38672 1.7773-0.94531 2.4844-1.6523l31.691-31.695c2.9531-2.9531 2.9531-7.7383 0-10.688-2.957-2.9531-7.7422-2.9531-10.695 0z"/>
  <path d="m198.97 415.09h70.367c4.1758 0 7.5586-3.3789 7.5586-7.5586 0-4.1758-3.3789-7.5586-7.5586-7.5586h-70.367l18.797-18.797c2.9531-2.9492 2.9531-7.7383 0-10.688-2.9531-2.9531-7.7344-2.9531-10.688 0l-31.691 31.691c-0.70703 0.70703-1.2656 1.5469-1.6523 2.4844-0.015625 0.035156-0.019531 0.074219-0.035156 0.10938-0.33594 0.85547-0.53516 1.7852-0.53516 2.7539 0 0.97266 0.20312 1.8984 0.53516 2.7539 0.015625 0.039063 0.019531 0.074219 0.035156 0.10938 0.38672 0.9375 0.94531 1.7773 1.6523 2.4844l31.691 31.691c1.4766 1.4766 3.4102 2.2109 5.3438 2.2109 1.9336 0 3.8711-0.73438 5.3438-2.2109 2.9531-2.9492 2.9531-7.7383 0-10.688z"/>
  <path d="m490.53 322.77c1.9336 0 3.8711-0.73438 5.3438-2.2109l49.762-49.758v26.586c0 4.1719 3.3789 7.5586 7.5586 7.5586 4.1719 0 7.5586-3.3789 7.5586-7.5586v-44.828c0-0.97656-0.20312-1.9062-0.53906-2.7617-0.011719-0.035156-0.015626-0.074219-0.03125-0.10938-0.76563-1.8633-2.2539-3.3516-4.1172-4.1172-0.035156-0.015624-0.074219-0.019531-0.10938-0.035156-0.39844-0.15625-0.80469-0.29688-1.2383-0.38281-0.49219-0.10156-1.0039-0.15234-1.5234-0.15234h-44.836c-4.1758 0-7.5586 3.3789-7.5586 7.5586 0 4.1758 3.3789 7.5586 7.5586 7.5586h26.59l-49.762 49.758c-2.9531 2.9492-2.9531 7.7344 0 10.688 1.4805 1.4648 3.4102 2.207 5.3438 2.207z"/>
  <path d="m550.3 510.47c-4.1758 0-7.5586 3.3789-7.5586 7.5586v26.586l-49.758-49.758c-2.9531-2.9531-7.7344-2.9531-10.688 0-2.9531 2.9492-2.9531 7.7383 0 10.688l49.758 49.758h-26.586c-4.1758 0-7.5586 3.3789-7.5586 7.5586 0 4.1758 3.3789 7.5586 7.5586 7.5586h44.828c0.97656 0 1.9062-0.20312 2.7617-0.53516 0.035156-0.015625 0.074218-0.019531 0.10938-0.035157 1.8633-0.76562 3.3516-2.2539 4.1172-4.1172 0.015625-0.035156 0.019532-0.074219 0.035156-0.10938 0.33594-0.85547 0.53516-1.7852 0.53516-2.7539v-44.828c0-4.1875-3.3789-7.5703-7.5547-7.5703z"/>
  <path d="m300.8 494.26-49.762 49.758v-26.586c0-4.1719-3.3789-7.5586-7.5586-7.5586-4.1719 0-7.5586 3.3789-7.5586 7.5586v44.828c0 0.97656 0.20312 1.9062 0.53906 2.7617 0.011718 0.035157 0.015625 0.074219 0.03125 0.10938 0.76562 1.8633 2.2539 3.3516 4.1172 4.1172 0.035157 0.015625 0.074219 0.019531 0.10938 0.035156 0.85547 0.33594 1.7852 0.53516 2.7617 0.53516h44.836c4.1758 0 7.5586-3.3789 7.5586-7.5586 0-4.1758-3.3789-7.5586-7.5586-7.5586h-26.59l49.762-49.758c2.9531-2.9492 2.9531-7.7344 0-10.688-2.957-2.9492-7.7383-2.9492-10.688 0.003906z"/>
  <path d="m243 307.71c4.1758 0 7.5586-3.3789 7.5586-7.5586v-26.586l49.758 49.758c1.4766 1.4766 3.4102 2.2109 5.3438 2.2109s3.8711-0.73438 5.3438-2.2109c2.9531-2.9492 2.9531-7.7383 0-10.688l-49.758-49.758h26.586c4.1758 0 7.5586-3.3789 7.5586-7.5586 0-4.1758-3.3789-7.5586-7.5586-7.5586h-44.828c-0.97656 0-1.9062 0.20312-2.7617 0.53516-0.035157 0.015625-0.074219 0.019531-0.10938 0.035156-1.8633 0.76562-3.3516 2.2539-4.1094 4.1172-0.015626 0.035156-0.019532 0.074219-0.035157 0.10938-0.33594 0.85547-0.53516 1.7852-0.53516 2.7617v44.828c-0.007813 4.1758 3.375 7.5625 7.5469 7.5625z"/>
  <path d="m408.82 393.81-15.078-4.9727c-2.3164-0.74609-11.723-4.0977-10.727-13.402 0.37891-3.5508 1.4219-6.2891 4.2578-8.1484 2.3242-1.4844 5.1875-2.2305 8.6055-2.2305 5.8008 0 9.7578 0.97656 12.332 4.3242 1.4141 1.9336 1.875 3.3516 2.2617 6.707 0 0 0.45703 5.5117 7.0625 5.5117 6.6055 0 7.6211-5.25 7.7539-6.1953 0.58984-4.293-1.7422-11.461-4.9961-15.723-3.5703-4.6914-8.5898-7.5977-14.641-8.9609v-7.043c0-4.1758-3.3789-7.5586-7.5586-7.5586-4.1758 0-7.5586 3.3789-7.5586 7.5586v6.6055c-7.2891 1.1172-12.879 4.207-16.707 9.332-3.4766 4.6797-9.2891 13.707-3.3359 29.312 5.1406 13.461 29.641 17.758 29.641 17.758 4.5742 1.1172 13.32 2.8711 13.34 13.422 0.003907 4.0977-2.5234 12.027-15.566 12.027-6.0625 0-14.711-2.6836-14.711-13.695 0 0 0.10156-5.75-7.0625-5.75-7.1758 0-7.7344 5.75-7.7344 5.75 0 7.2891 1.0547 12.426 4.8516 17.402 5.4102 7.1484 11.977 9.8789 17.289 10.926v8.0898c0 4.1758 3.3789 7.5586 7.5586 7.5586 4.1758 0 7.5586-3.3789 7.5586-7.5586v-8.1211c16.434-3.3438 22.609-18.797 22.609-28.648 0.003907-7.3008-2.6484-18.5-19.445-24.277z"/>
  <path d="m496.59 466.48c0-12.367-10.066-22.434-22.434-22.434h-0.99219v-35.504h2.3281c9.4531 0 17.98-5.6055 21.715-14.277 3.75-8.6719 1.9844-18.715-4.4922-25.594-0.27344-0.28906-0.5625-0.55469-0.875-0.79688l-76.961-59.551c-4.4102-4.4453-10.488-6.9844-16.781-6.9844-6.2773 0-12.348 2.5352-16.766 6.9844l-76.973 59.551c-0.31641 0.24609-0.61328 0.51562-0.88672 0.80469-6.4531 6.8789-8.2188 16.918-4.4844 25.582 3.75 8.6758 12.273 14.277 21.715 14.277h2.3359v35.504h-1.0039c-12.367 0-22.426 10.066-22.426 22.434 0 12.375 10.062 22.434 22.426 22.434l152.12 0.007813c12.367 0 22.434-10.062 22.434-22.438zm-22.434 7.3203h-152.12c-4.0312 0-7.3086-3.2852-7.3086-7.3203s3.2812-7.3203 7.3086-7.3203h8.5586c4.1758 0 7.5586-3.3789 7.5586-7.5586v-50.613c0-4.1758-3.3789-7.5586-7.5586-7.5586h-9.8945c-3.4102 0-6.4844-2.0234-7.8398-5.1484-1.2812-2.9766-0.76563-6.4023 1.2891-8.8789l76.852-59.461c0.31641-0.24609 0.60938-0.51562 0.88281-0.80469 3.2188-3.4258 9.2344-3.4023 12.414-0.003906 0.27734 0.29688 0.57422 0.5625 0.89062 0.8125l76.848 59.465c2.0625 2.4648 2.5742 5.8828 1.2852 8.8711-1.3516 3.1289-4.4219 5.1484-7.8398 5.1484h-9.8828c-4.1758 0-7.5586 3.3789-7.5586 7.5586v50.617c0 4.1758 3.3789 7.5586 7.5586 7.5586h8.5508c4.0352 0 7.3203 3.2852 7.3203 7.3203 0.003907 4.0391-3.2812 7.3164-7.3164 7.3164z"/>
 </g>
</svg>