<?xml version="1.0" encoding="UTF-8"?>
<!-- The Best Svg Icon site in the world: iconSvg.co, Visit us! https://iconsvg.co -->
<svg fill="#000000" width="800px" height="800px" version="1.1" viewBox="144 144 512 512" xmlns="http://www.w3.org/2000/svg">
 <g>
  <path d="m413.26 320.45c11.84-1.1836 22.152-8.5938 27.047-19.441 4.8945-10.848 3.6328-23.484-3.3164-33.148-6.9453-9.6602-18.52-14.883-30.359-13.699h-13.258c-3.6641 0-6.6289-2.9688-6.6289-6.6289 0-3.6641 2.9648-6.6289 6.6289-6.6289h33.145c7.3203 0 13.258-5.9375 13.258-13.258 0-7.3242-5.9375-13.262-13.258-13.262h-13.258c0-7.3203-5.9375-13.258-13.258-13.258-7.3242 0-13.258 5.9375-13.258 13.258-11.844 1.1875-22.152 8.5977-27.051 19.445-4.8945 10.848-3.6289 23.48 3.3164 33.145 6.9453 9.6641 18.52 14.887 30.363 13.703h13.258c3.6602 0 6.6289 2.9688 6.6289 6.6289 0 3.6602-2.9688 6.6289-6.6289 6.6289h-33.148c-7.3203 0-13.258 5.9375-13.258 13.258 0 7.3242 5.9375 13.258 13.258 13.258h13.262c0 7.3242 5.9336 13.258 13.258 13.258 7.3203 0 13.258-5.9336 13.258-13.258z"/>
  <path d="m490.02 462.58c10.551 0.11328 20.844-3.2383 29.301-9.5469 31.422-23.598 48.789-82.066 49.453-84.453 1.168-4.0078 0.38281-8.332-2.1211-11.668-2.5039-3.3398-6.4336-5.3047-10.605-5.3047-2.5195 0-63.508 0-94.93 23.73v0.003906c-10.309 7.7109-17.129 19.207-18.957 31.949-1.0117 7.6836-0.19531 15.5 2.3867 22.805h-0.66406l-30.625 30.758v-88.297c36.027-4.5391 67.23-27.195 82.703-60.051 15.469-32.855 13.051-71.344-6.4023-102-19.453-30.664-53.246-49.246-89.559-49.246-36.316 0-70.105 18.582-89.562 49.246-19.453 30.66-21.867 69.148-6.3984 102 15.469 32.855 46.672 55.512 82.703 60.051v88.301l-30.359-30.492h-0.66406l-0.003906-0.003906c2.582-7.3086 3.3984-15.121 2.3867-22.805-1.8281-12.742-8.6484-24.238-18.957-31.949-31.422-23.469-92.809-23.73-94.93-23.73v-0.003906c-4.1719 0-8.1016 1.9648-10.605 5.3047-2.5039 3.3359-3.2891 7.6602-2.1211 11.668 0 2.3867 18.031 60.855 49.453 84.453 8.6094 6.4492 19.121 9.8477 29.879 9.6562 10.758-0.19141 21.141-3.9648 29.516-10.719l27.711 27.312h-80.742c-11.844-0.875-23.25 4.6328-29.93 14.449s-7.6172 22.453-2.4531 33.145c5.1602 10.695 15.637 17.82 27.477 18.699l7.4258 51.84v-0.003907c1.7969 11.41 7.6055 21.801 16.379 29.309 8.7695 7.5078 19.934 11.645 31.48 11.66h124.63c11.625-0.035156 22.852-4.2461 31.637-11.859 8.7852-7.6172 14.539-18.133 16.223-29.637l7.4258-51.309c11.844-0.87891 22.316-8.0039 27.48-18.699 5.1602-10.691 4.2266-23.328-2.4531-33.145s-18.09-15.324-29.934-14.449h-80.742l27.711-27.711c8.6016 6.9336 19.312 10.723 30.359 10.742zm-162.41-35.27c-3.4688 4.6719-8.6836 7.7305-14.453 8.4883-5.7617 0.8125-11.617-0.66406-16.305-4.1133-15.266-14.738-26.77-32.922-33.543-53.031 21.07 0.94141 41.617 6.8945 59.926 17.367 4.6367 3.5742 7.7227 8.7969 8.6172 14.586 0.91406 5.9141-0.61719 11.945-4.2422 16.703zm-7.1602-159.89c0-21.098 8.3828-41.332 23.301-56.25s35.152-23.301 56.25-23.301 41.328 8.3828 56.25 23.301c14.918 14.918 23.297 35.152 23.297 56.25 0 21.098-8.3789 41.332-23.297 56.25-14.922 14.918-35.152 23.297-56.25 23.297s-41.332-8.3789-56.25-23.297-23.301-35.152-23.301-56.25zm163.61 325.88c-0.78906 5.2148-3.4141 9.9766-7.3984 13.426-3.9844 3.4531-9.0703 5.3672-14.344 5.4023h-124.63c-5.2695-0.035156-10.355-1.9492-14.344-5.4023-3.9844-3.4492-6.6094-8.2109-7.3984-13.426l-6.7617-47.461h181.64zm35.266-80.609c0 1.7578-0.69531 3.4453-1.9414 4.6875-1.2422 1.2461-2.9297 1.9414-4.6875 1.9414h-225.39c-3.6602 0-6.6289-2.9648-6.6289-6.6289 0-3.6602 2.9688-6.6289 6.6289-6.6289h225.39c1.7578 0 3.4453 0.69922 4.6875 1.9414 1.2461 1.2461 1.9414 2.9297 1.9414 4.6875zm-51.176-101.69v0.003906c0.89453-5.7891 3.9805-11.012 8.6172-14.586 18.312-10.473 38.855-16.426 59.93-17.367-6.8164 20.09-18.312 38.27-33.543 53.031-4.6914 3.4492-10.547 4.9258-16.309 4.1094-5.7695-0.75391-10.98-3.8164-14.453-8.4844-3.625-4.7578-5.1562-10.789-4.2422-16.703z"/>
 </g>
</svg>