<?xml version="1.0" encoding="UTF-8"?>
<!-- The Best Svg Icon site in the world: iconSvg.co, Visit us! https://iconsvg.co -->
<svg fill="#000000" width="800px" height="800px" version="1.1" viewBox="144 144 512 512" xmlns="http://www.w3.org/2000/svg">
 <g>
  <path d="m222.02 524.6h355.95c15.641 0 28.371-12.73 28.371-28.371v-243.83c0-15.648-12.73-28.371-28.371-28.371h-355.95c-15.641 0-28.371 12.723-28.371 28.371v243.81c0.003907 15.637 12.734 28.391 28.371 28.391zm-17.875-272.2c0-9.8555 8.0195-17.875 17.875-17.875h355.95c9.8555 0 17.875 8.0195 17.875 17.875v243.81c0 9.8555-8.0195 17.875-17.875 17.875l-355.95-0.003906c-9.8555 0-17.875-8.0195-17.875-17.875z"/>
  <path d="m610.75 535.67h-421.51c-11.117 0-20.152 9.0352-20.152 20.152 0 11.117 9.0352 20.152 20.152 20.152h421.51c11.137 0 20.164-9.0352 20.164-20.152-0.003906-11.117-9.0508-20.152-20.164-20.152zm0 29.828h-421.51c-5.3203 0-9.6562-4.3438-9.6562-9.6562 0-5.332 4.3359-9.6562 9.6562-9.6562h421.51c5.332 0 9.668 4.3242 9.668 9.6562-0.003907 5.3125-4.3359 9.6562-9.668 9.6562z"/>
  <path d="m399.9 379.55c9.8984 0.16797 18.883 5.75 23.406 14.578 3.2734 6.3711 3.8516 13.633 1.6602 20.469-2.1953 6.832-6.9062 12.387-13.297 15.648-13.16 6.7578-29.355 1.5312-36.105-11.609-1.332-2.582-4.5039-3.5898-7.0742-2.2773-2.5703 1.332-3.6016 4.4922-2.2773 7.0742 5.7422 11.168 16.383 18.199 27.961 19.879v11.859c0 2.8867 2.3516 5.2461 5.2461 5.2461 2.8867 0 5.2461-2.3633 5.2461-5.2461v-12.07c4.0078-0.56641 7.9961-1.543 11.797-3.4844 8.8711-4.5664 15.441-12.281 18.492-21.789 3.0547-9.4883 2.2266-19.598-2.332-28.465-6.3203-12.27-18.777-20.035-32.578-20.277-9.918-0.16797-18.895-5.75-23.395-14.578-6.7578-13.152-1.543-29.355 11.609-36.117 13.16-6.7383 29.355-1.5312 36.105 11.617 1.332 2.582 4.5039 3.5898 7.0742 2.2656 2.5703-1.3242 3.6094-4.4805 2.2773-7.0625-5.9102-11.523-17.055-18.641-29.062-20.004v-11.734c0-2.8984-2.3516-5.2461-5.2461-5.2461-2.8984 0-5.2461 2.3516-5.2461 5.2461v12.188c-3.6406 0.62891-7.2422 1.625-10.707 3.3906-18.305 9.4062-25.559 31.938-16.164 50.254 6.3398 12.238 18.828 20.008 32.609 20.246z"/>
  <path d="m265.26 471.29c7.5156 2.2891 15.293 3.4414 23.133 3.4414h0.011719c19.125 0 37.336-6.7812 51.734-19.156 17.277 12.711 38.332 19.668 59.797 19.668 30.68 0 59.312-13.664 78.562-37.512 16.93-20.973 24.707-47.285 21.852-74.09-2.8438-26.809-15.965-50.906-36.945-67.848-17.895-14.453-40.41-22.418-63.363-22.418-30.691 0-59.324 13.664-78.574 37.512-26.219 32.453-29.672 77.859-8.9336 113.86-8.9648 18.777-26.273 32.309-46.793 36.391-2.3633 0.45312-4.1055 2.4766-4.207 4.8789-0.10547 2.3945 1.418 4.5703 3.7266 5.2734zm58.031-44.828c0.66016-1.5547 0.53516-3.3594-0.35547-4.8164-20.004-32.578-17.309-74.438 6.707-104.17 17.266-21.359 42.918-33.609 70.406-33.609 20.582 0 40.758 7.1367 56.773 20.102 18.797 15.176 30.555 36.77 33.094 60.793 2.5391 24.027-4.4102 47.598-19.574 66.387-17.266 21.359-42.918 33.609-70.406 33.609-20.57 0-40.734-7.1367-56.773-20.102-0.96484-0.76562-2.1289-1.1562-3.2969-1.1562-1.3125 0-2.625 0.49219-3.6406 1.457-12.898 12.449-29.895 19.293-47.832 19.293h-0.15625c15.5-8.0742 27.98-21.32 35.055-37.785z"/>
 </g>
</svg>