<?xml version="1.0" encoding="UTF-8"?>
<!-- The Best Svg Icon site in the world: iconSvg.co, Visit us! https://iconsvg.co -->
<svg fill="#000000" width="800px" height="800px" version="1.1" viewBox="144 144 512 512" xmlns="http://www.w3.org/2000/svg">
 <g>
  <path d="m517.92 577.15h-235.04c-1.4141 0-2.7461-0.65234-3.6133-1.7695-0.86719-1.1133-1.1719-2.5625-0.82422-3.9336l20.328-80.48c9.0469-35.441 35.82-63.656 70.742-74.543 3.2812-1.0859 6.1367-3.1875 8.1484-6.0039 2.0117-2.8125 3.0781-6.1953 3.043-9.6523v-1.6875c-0.046876-3.543-1.2305-6.9766-3.375-9.7969-2.1406-2.8242-5.1328-4.8828-8.5312-5.8789-11.891-3.7422-23.008-9.5898-32.828-17.27-18.379-14.379-31.465-34.457-37.199-57.082l-20.328-80.484c-0.34766-1.3672-0.042969-2.8203 0.82422-3.9336 0.86719-1.1172 2.1992-1.7695 3.6133-1.7695h235.04c1.4141 0 2.7461 0.65234 3.6172 1.7656 0.86719 1.1133 1.1719 2.5664 0.82422 3.9375l-20.316 80.484c-9.043 35.449-35.828 63.664-70.758 74.539-3.2852 1.0859-6.1367 3.1914-8.1484 6.0078-2.0117 2.8125-3.0781 6.1953-3.043 9.6562v1.6914-0.003907c0.046875 3.543 1.2305 6.9805 3.3711 9.8008 2.1445 2.8242 5.1367 4.8828 8.5352 5.8828 11.887 3.7383 23.008 9.5859 32.82 17.266 18.387 14.379 31.477 34.453 37.219 57.074l20.316 80.48c0.34766 1.3711 0.042969 2.8242-0.82812 3.9375-0.86719 1.1133-2.1992 1.7656-3.6133 1.7656zm-229.16-9.1602h223.28l-18.875-74.773c-5.2383-20.652-17.188-38.977-33.969-52.102-8.9531-7.0039-19.098-12.34-29.941-15.75-5.2617-1.5781-9.8789-4.8047-13.176-9.1992s-5.1016-9.7266-5.1445-15.223v-1.6914 0.003906c-0.023438-5.418 1.6758-10.699 4.8477-15.09 3.1758-4.3906 7.6602-7.6562 12.812-9.332 31.879-9.9258 56.324-35.676 64.578-68.027l18.875-74.777-223.29-0.003906 18.879 74.777v0.003906c5.2344 20.648 17.184 38.973 33.969 52.094 8.9531 7.0039 19.094 12.34 29.938 15.754 5.2617 1.5781 9.8828 4.8008 13.18 9.1953 3.2969 4.3945 5.0977 9.7266 5.1406 15.223v1.6953c0.023437 5.4141-1.6719 10.699-4.8477 15.09-3.1719 4.3906-7.6602 7.6562-12.812 9.3281-31.879 9.9297-56.324 35.684-64.578 68.035z"/>
  <path d="m547.36 593.92c0.011719 6.8789-2.7188 13.48-7.582 18.344s-11.465 7.5938-18.34 7.582h-242.06c-6.875 0.003906-13.473-2.7266-18.332-7.5898-4.8633-4.8594-7.5938-11.453-7.5898-18.328 0-6.875 2.7344-13.469 7.6016-18.328 4.8359-4.8945 11.438-7.6328 18.32-7.6016h242.06c6.8711 0.007812 13.457 2.7422 18.316 7.6016 4.8594 4.8633 7.5938 11.449 7.6055 18.32z"/>
  <path d="m253.46 206.12c0-6.8828 2.7266-13.48 7.5898-18.352 4.8594-4.8672 11.453-7.6094 18.336-7.6172h242.06c6.875 0.015625 13.465 2.7617 18.324 7.6289 4.8594 4.8672 7.5898 11.461 7.5977 18.34-0.03125 6.8633-2.7695 13.441-7.625 18.297s-11.434 7.5938-18.297 7.625h-242.06c-6.875-0.011719-13.461-2.7422-18.32-7.6055-4.8594-4.8594-7.5938-11.445-7.6055-18.316z"/>
  <path d="m307.32 258.66c-0.92187-3.6367-0.10547-7.4961 2.2031-10.453 2.3125-2.9531 5.8594-4.6758 9.6133-4.6602h162.55c3.7539-0.023438 7.3047 1.6992 9.6094 4.6562 2.3047 2.9609 3.1055 6.8242 2.1641 10.457l-11.406 45.344c-7.2812 28.461-28.793 51.117-56.84 59.863-6.1367 1.9297-11.652 5.4531-15.984 10.211-2.2695 2.4531-5.4531 3.8594-8.793 3.8945h-0.046875c-3.3398 0.011719-6.5352-1.3867-8.793-3.8477-4.5273-4.8477-10.242-8.4336-16.578-10.398-11.473-3.6172-22.035-9.6641-30.961-17.723-12.746-11.746-21.707-27.02-25.742-43.879z"/>
  <path d="m410.33 463.48c0.003906-3.8555 1.543-7.5508 4.2734-10.273 2.7305-2.7227 6.4336-4.25 10.289-4.2422 3.8555 0.003906 7.5547 1.543 10.277 4.2734 2.7227 2.7305 4.25 6.4336 4.2422 10.289-0.007812 3.8594-1.543 7.5547-4.2773 10.277-2.7305 2.7227-6.4297 4.25-10.289 4.2422-3.8516-0.011719-7.5469-1.5508-10.266-4.2812-2.7227-2.7305-4.25-6.4297-4.25-10.285z"/>
  <path d="m385.87 433.52c0.007812-3.8555 1.5469-7.5508 4.2773-10.273s6.4336-4.25 10.289-4.2422c3.8555 0.003907 7.5547 1.543 10.277 4.2734 2.7227 2.7305 4.2461 6.4336 4.2422 10.289-0.007813 3.8555-1.543 7.5547-4.2773 10.277-2.7305 2.7227-6.4297 4.2461-10.289 4.2422-3.8555-0.003906-7.5547-1.543-10.277-4.2734-2.7227-2.7305-4.25-6.4336-4.2422-10.293z"/>
  <path d="m493.46 541.39c0.94141 3.6328 0.14062 7.4961-2.1641 10.457-2.3047 2.957-5.8555 4.6797-9.6094 4.6562h-162.55c-3.7539 0.015625-7.3008-1.707-9.6133-4.6602-2.3086-2.957-3.125-6.8164-2.2031-10.453l9.8008-38.793c1.4688-5.8867 7.0742-9.7656 13.102-9.0703 22.25 2.9688 44.832-2.0273 63.754-14.105 3.8789-2.5234 8.8555-2.6094 12.824-0.23047 18.973 11.879 41.426 16.953 63.664 14.383 6.0664-0.68359 11.707 3.2031 13.234 9.1133z"/>
  <path d="m389.62 463.48c-0.007812 3.8555-1.543 7.5508-4.2695 10.273-2.7305 2.7227-6.4258 4.25-10.281 4.2461-3.8516 0-7.5469-1.5312-10.273-4.2578-2.7266-2.7266-4.2578-6.4219-4.2578-10.273-0.003907-3.8555 1.5234-7.5547 4.2461-10.281 2.7227-2.7266 6.418-4.2656 10.27-4.2695 3.8633 0.003907 7.5664 1.5391 10.297 4.2695 2.7305 2.7305 4.2656 6.4336 4.2695 10.293z"/>
  <path d="m542.78 598.54c-2.5273 0-4.5781-2.0508-4.5781-4.5781v-138c0-2.5273 2.0508-4.5781 4.5781-4.5781 2.5312 0 4.582 2.0508 4.582 4.5781v138c0 1.2148-0.48438 2.3789-1.3438 3.2383-0.85547 0.85938-2.0234 1.3398-3.2383 1.3398z"/>
  <path d="m542.78 348.7c-2.5273 0-4.5781-2.0508-4.5781-4.582v-138.01c0-2.5273 2.0508-4.5781 4.5781-4.5781 2.5312 0 4.582 2.0508 4.582 4.5781v138.01c0 1.2148-0.48438 2.3789-1.3438 3.2383-0.85547 0.85938-2.0234 1.3438-3.2383 1.3438z"/>
  <path d="m258.04 598.54c-2.5312 0-4.582-2.0508-4.582-4.5781v-138c0-2.5273 2.0508-4.5781 4.582-4.5781 2.5273 0 4.5781 2.0508 4.5781 4.5781v138c0 1.2148-0.48047 2.3789-1.3398 3.2383-0.85938 0.85938-2.0234 1.3398-3.2383 1.3398z"/>
  <path d="m258.04 348.7c-2.5312 0-4.582-2.0508-4.582-4.582v-138.01c0-2.5273 2.0508-4.5781 4.582-4.5781 2.5273 0 4.5781 2.0508 4.5781 4.5781v138.01c0 1.2148-0.48047 2.3789-1.3398 3.2383s-2.0234 1.3438-3.2383 1.3438z"/>
  <path d="m528.24 386.28c-0.10547 2.2969 0.97266 4.4844 2.8555 5.7969 2.5703 1.6562 5.4141 2.8438 8.4023 3.5v-18.777c-2.9609 0.28125-5.793 1.3555-8.1953 3.1094-1.9883 1.5039-3.1328 3.8789-3.0625 6.3711z"/>
  <path d="m553.7 408.33c-2.832-1.543-5.8633-2.7031-9.0039-3.4531v18.32c8.0234-0.56641 12.035-3.8086 12.027-9.7227 0.035156-2.1445-1.1328-4.1289-3.0234-5.1445z"/>
  <path d="m570.84 346.73c-8.6172-4.6445-18.238-7.1133-28.031-7.1875h-0.64063c-21.27 0.015625-40.969 11.188-51.898 29.434-10.93 18.246-11.48 40.891-1.4609 59.648 0.089843 0.19141 0.19922 0.375 0.32422 0.54688 5.2031 9.5117 12.879 17.445 22.211 22.969 9.332 5.5195 19.98 8.4219 30.824 8.4062h0.6875c18.016-0.21094 35.004-8.4375 46.34-22.441 11.336-14.008 15.844-32.336 12.293-50-3.5469-17.668-14.785-32.832-30.648-41.375zm-8.8672 75.465c-1.7305 2.5352-4.1211 4.5547-6.9102 5.8398-3.2539 1.5156-6.7773 2.3711-10.367 2.5117v6.0586c0.023438 0.6875-0.23828 1.3477-0.72266 1.832-1.0664 0.94922-2.668 0.96875-3.7539 0.046875-0.49609-0.49609-0.75781-1.1797-0.71875-1.8789v-6.0586c-5.9297-0.34766-11.758-1.7031-17.23-4.0078-0.69531-0.28906-1.293-0.77734-1.7109-1.4062-0.99609-1.4102-0.87109-3.332 0.30469-4.6016 0.63672-0.71094 1.5547-1.1016 2.5078-1.0703 0.5625-0.003907 1.1133 0.11328 1.625 0.34375 4.5781 2.0352 9.4961 3.1953 14.504 3.4102v-19.617c-3.3438-0.84375-6.6094-1.957-9.7695-3.3242-2.5781-1.1406-4.8398-2.8828-6.6055-5.0781-1.8281-2.3789-2.7656-5.3203-2.6484-8.3203-0.019531-2.8711 0.73047-5.6992 2.1758-8.1836 1.5664-2.6172 3.8047-4.7695 6.4805-6.2266 3.1953-1.7461 6.7344-2.7656 10.367-2.9844v-5.9531c-0.015625-0.69531 0.24219-1.3711 0.71875-1.8789 0.47266-0.50391 1.1406-0.78125 1.832-0.76563 0.70312-0.003906 1.3789 0.26953 1.875 0.76953 0.49609 0.49609 0.76953 1.1719 0.76172 1.875v5.8867c5.0703 0.12891 10.082 1.0781 14.848 2.8125 1.4961 0.4375 2.4883 1.8555 2.3867 3.4102 0.007812 0.91016-0.32031 1.7891-0.91406 2.4727-0.60938 0.73438-1.5273 1.1445-2.4805 1.1094-0.47266-0.027344-0.94141-0.14062-1.3711-0.33984-4.0156-1.3867-8.2148-2.1602-12.461-2.2891v20.301-0.003906c3.4805 0.75781 6.8906 1.7969 10.195 3.1133 2.6562 1.0977 4.9883 2.8477 6.7891 5.0859 1.9258 2.5625 2.8984 5.7148 2.7461 8.9141 0.023437 2.9141-0.83203 5.7695-2.4531 8.1953z"/>
  <path d="m243.96 386.28c-0.10547 2.2969 0.97656 4.4844 2.8633 5.7969 2.5703 1.6562 5.4141 2.8438 8.3984 3.5v-18.777c-2.9609 0.28125-5.793 1.3555-8.1953 3.1094-1.9883 1.5039-3.1328 3.875-3.0664 6.3711z"/>
  <path d="m269.43 408.33c-2.8359-1.543-5.8594-2.7031-9-3.4531v18.32c8.0234-0.56641 12.035-3.8086 12.027-9.7227 0.03125-2.1445-1.1367-4.1289-3.0273-5.1445z"/>
  <path d="m286.48 346.73c-16.441-8.8203-36.035-9.5625-53.094-2.0117-17.062 7.5508-29.688 22.555-34.211 40.656-4.5234 18.102-0.44141 37.281 11.062 51.973 11.504 14.688 29.141 23.25 47.801 23.199 18.09-0.039063 35.215-8.1719 46.676-22.168 11.461-13.996 16.055-32.387 12.527-50.129-3.5312-17.742-14.816-32.973-30.762-41.52zm-8.7695 75.465c-1.7344 2.5352-4.125 4.5547-6.918 5.8398-3.25 1.5156-6.7734 2.3711-10.359 2.5117v6.0586c0.023437 0.6875-0.23828 1.3477-0.72266 1.832-1.0664 0.94922-2.668 0.96875-3.7578 0.046875-0.49219-0.49609-0.75391-1.1797-0.71875-1.8789v-6.0586c-5.9297-0.34766-11.754-1.7031-17.23-4.0078-0.69531-0.28906-1.2891-0.77734-1.707-1.4062-1-1.4102-0.875-3.332 0.29688-4.6016 0.64062-0.70703 1.5625-1.1016 2.5156-1.0703 0.55859-0.003907 1.1133 0.11328 1.625 0.34375 4.5781 2.0352 9.4961 3.1953 14.5 3.4102v-19.617c-3.3398-0.84375-6.6055-1.957-9.7695-3.3242-2.5742-1.1445-4.8398-2.8828-6.6094-5.0781-1.8242-2.3789-2.7578-5.3242-2.6406-8.3203-0.023438-2.8711 0.72656-5.6992 2.1719-8.1836 1.5664-2.6172 3.8047-4.7695 6.4844-6.2266 3.1953-1.7461 6.7344-2.7656 10.363-2.9844v-5.9531c-0.011719-0.69531 0.24609-1.3711 0.71875-1.8789 0.47656-0.50391 1.1406-0.78125 1.832-0.76563 0.70312-0.003906 1.3789 0.26953 1.8789 0.76953 0.49609 0.49609 0.76953 1.1719 0.76172 1.875v5.8867c5.0664 0.12891 10.078 1.0781 14.844 2.8125 1.4961 0.43359 2.4922 1.8516 2.3906 3.4102 0 0.91016-0.33594 1.7891-0.9375 2.4727-0.61328 0.73438-1.5273 1.1406-2.4805 1.1094-0.47266-0.027344-0.94141-0.14062-1.375-0.33984-4.0117-1.3867-8.2109-2.1562-12.457-2.2891v20.301-0.003906c3.4844 0.75781 6.8984 1.7969 10.211 3.1133 2.6484 1.0938 4.9805 2.8398 6.7812 5.0703 1.9219 2.5625 2.8828 5.7148 2.7266 8.9102 0.035156 2.918-0.80859 5.7812-2.418 8.2148z"/>
 </g>
</svg>