<?xml version="1.0" encoding="UTF-8"?>
<!-- The Best Svg Icon site in the world: iconSvg.co, Visit us! https://iconsvg.co -->
<svg fill="#000000" width="800px" height="800px" version="1.1" viewBox="144 144 512 512" xmlns="http://www.w3.org/2000/svg">
 <g>
  <path d="m305.54 368.51v23.617-0.003906c0 2.0898-0.83203 4.0898-2.3047 5.5664-1.4766 1.4766-3.4805 2.3086-5.5664 2.3086h-7.875v94.461h7.875c2.0859 0 4.0898 0.83203 5.5664 2.3086 1.4727 1.4766 2.3047 3.4766 2.3047 5.5664v23.617l188.93-0.003906v-23.613c0-4.3477 3.5273-7.875 7.875-7.875h7.8711v-94.461h-7.8711c-4.3477 0-7.875-3.5273-7.875-7.875v-23.613zm15.742 70.848h15.746c8.4375 0 16.23 4.5 20.449 11.809 4.2188 7.3047 4.2188 16.309 0 23.613-4.2188 7.3086-12.012 11.809-20.449 11.809v7.8711c0 4.3477-3.5273 7.875-7.875 7.875-4.3477 0-7.8711-3.5273-7.8711-7.875v-7.8711c-6.2617 0-12.27-2.4883-16.699-6.918-4.4297-4.4258-6.9141-10.434-6.9141-16.695 0-4.3477 3.5234-7.875 7.8711-7.875s7.8711 3.5273 7.8711 7.875c0 2.0859 0.82812 4.0898 2.3047 5.5664 1.4766 1.4727 3.4805 2.3047 5.5664 2.3047h15.746c4.3477 0 7.8711-3.5234 7.8711-7.8711 0-4.3477-3.5234-7.875-7.8711-7.875h-15.746c-8.4375 0-16.234-4.5-20.453-11.809-4.2148-7.3047-4.2148-16.309 0-23.613 4.2188-7.3086 12.016-11.809 20.453-11.809v-7.8711c0-4.3477 3.5234-7.875 7.8711-7.875 4.3477 0 7.875 3.5273 7.875 7.875v7.8711c6.2617 0 12.27 2.4883 16.699 6.918 4.4258 4.4258 6.9141 10.434 6.9141 16.699 0 4.3477-3.5234 7.8711-7.8711 7.8711s-7.8711-3.5234-7.8711-7.8711c0-2.0898-0.82812-4.0898-2.3047-5.5664-1.4766-1.4766-3.4805-2.3086-5.5664-2.3086h-15.746c-4.3477 0-7.8711 3.5273-7.8711 7.875 0 4.3477 3.5234 7.8711 7.8711 7.8711zm70.848 0h15.746c8.4375 0 16.234 4.5 20.453 11.809 4.2188 7.3047 4.2188 16.309 0 23.613-4.2188 7.3086-12.016 11.809-20.453 11.809v7.8711c0 4.3477-3.5234 7.875-7.8711 7.875s-7.875-3.5273-7.875-7.875v-7.8711c-6.2617 0-12.27-2.4883-16.699-6.918-4.4258-4.4258-6.9141-10.434-6.9141-16.695 0-4.3477 3.5234-7.875 7.8711-7.875 4.3477 0 7.8711 3.5273 7.8711 7.875 0 2.0859 0.82812 4.0898 2.3047 5.5664 1.4766 1.4727 3.4805 2.3047 5.5664 2.3047h15.746c4.3477 0 7.8711-3.5234 7.8711-7.8711 0-4.3477-3.5234-7.875-7.8711-7.875h-15.746c-8.4375 0-16.23-4.5-20.449-11.809-4.2188-7.3047-4.2188-16.309 0-23.613 4.2188-7.3086 12.012-11.809 20.449-11.809v-7.8711c0-4.3477 3.5273-7.875 7.875-7.875s7.8711 3.5273 7.8711 7.875v7.8711c6.2617 0 12.27 2.4883 16.699 6.918 4.4297 4.4258 6.918 10.434 6.918 16.699 0 4.3477-3.5273 7.8711-7.875 7.8711-4.3477 0-7.8711-3.5234-7.8711-7.8711 0-2.0898-0.82813-4.0898-2.3047-5.5664s-3.4805-2.3086-5.5664-2.3086h-15.746c-4.3477 0-7.8711 3.5273-7.8711 7.875 0 4.3477 3.5234 7.8711 7.8711 7.8711zm110.21-7.8711h0.003907c0 4.3477-3.5273 7.8711-7.875 7.8711-4.3477 0-7.8711-3.5234-7.8711-7.8711 0-2.0898-0.82812-4.0898-2.3047-5.5664-1.4766-1.4766-3.4805-2.3086-5.5664-2.3086h-15.742c-4.3477 0-7.875 3.5273-7.875 7.875 0 4.3477 3.5273 7.8711 7.875 7.8711h15.742c8.4375 0 16.234 4.5 20.453 11.809 4.2188 7.3047 4.2188 16.309 0 23.613-4.2188 7.3086-12.016 11.809-20.453 11.809v7.8711c0 4.3477-3.5234 7.875-7.8711 7.875s-7.8711-3.5273-7.8711-7.875v-7.8711c-6.2656 0-12.273-2.4883-16.699-6.918-4.4297-4.4258-6.918-10.434-6.918-16.695 0-4.3477 3.5234-7.875 7.8711-7.875 4.3477 0 7.8711 3.5273 7.8711 7.875 0 2.0859 0.83203 4.0898 2.3086 5.5664 1.4727 1.4727 3.4766 2.3047 5.5664 2.3047h15.742c4.3477 0 7.8711-3.5234 7.8711-7.8711 0-4.3477-3.5234-7.875-7.8711-7.875h-15.742c-8.4375 0-16.234-4.5-20.453-11.809-4.2188-7.3047-4.2188-16.309 0-23.613 4.2188-7.3086 12.016-11.809 20.453-11.809v-7.8711c0-4.3477 3.5234-7.875 7.8711-7.875s7.8711 3.5273 7.8711 7.875v7.8711c6.2617 0 12.27 2.4883 16.699 6.918 4.4297 4.4258 6.918 10.434 6.918 16.699z"/>
  <path d="m196.98 321.28h406.04l-202.71-140.04zm334.77-30.094c2.8359 1.957 4.0703 5.5352 3.043 8.8242-1.0273 3.2891-4.0781 5.5312-7.5234 5.5273h-254.33c-3.4531 0.003906-6.5039-2.2383-7.5273-5.5312-1.0273-3.2969 0.21094-6.875 3.0547-8.8281l127.34-87.703c2.6914-1.8555 6.25-1.8555 8.9414 0z"/>
  <path d="m226.81 510.21h62.977v15.742h-62.977z"/>
  <path d="m298.25 289.79h203.77l-101.75-70.266zm125.36-31.488c0 6.2656-2.4883 12.273-6.9141 16.699-4.4297 4.4297-10.438 6.918-16.699 6.918-6.2656 0-12.273-2.4883-16.699-6.918-4.4297-4.4258-6.918-10.434-6.918-16.699 0-6.2617 2.4883-12.27 6.918-16.699 4.4258-4.4258 10.434-6.9141 16.699-6.9141 6.2617 0 12.27 2.4883 16.699 6.9141 4.4258 4.4297 6.9141 10.438 6.9141 16.699z"/>
  <path d="m242.56 400h31.488v94.465h-31.488z"/>
  <path d="m195.32 337.02h409.34v15.742h-409.34z"/>
  <path d="m407.87 258.3c0 4.3477-3.5234 7.875-7.8711 7.875s-7.875-3.5273-7.875-7.875c0-4.3477 3.5273-7.8711 7.875-7.8711s7.8711 3.5234 7.8711 7.8711"/>
  <path d="m510.21 368.51h62.977v15.742h-62.977z"/>
  <path d="m211.07 541.7h377.86v15.742h-377.86z"/>
  <path d="m226.81 368.51h62.977v15.742h-62.977z"/>
  <path d="m510.21 510.21h62.977v15.742h-62.977z"/>
  <path d="m179.58 604.67h440.83v15.742h-440.83z"/>
  <path d="m195.32 573.18h409.34v15.742h-409.34z"/>
  <path d="m525.95 400h31.488v94.465h-31.488z"/>
 </g>
</svg>