<?xml version="1.0" encoding="UTF-8"?>
<!-- The Best Svg Icon site in the world: iconSvg.co, Visit us! https://iconsvg.co -->
<svg fill="#000000" width="800px" height="800px" version="1.1" viewBox="144 144 512 512" xmlns="http://www.w3.org/2000/svg">
 <g>
  <path d="m533.82 268.88v-28.293h4.2539c1.5391-0.03125 3.0039-0.68359 4.0547-1.8086 1.0508-1.125 1.6016-2.6289 1.5312-4.168v-61.16c0-8.9062-6.9297-16.504-15.836-16.504h-255.66c-8.9062 0-15.832 7.5977-15.832 16.504v61.16c-0.074219 1.5391 0.47656 3.043 1.5273 4.168 1.0547 1.125 2.5156 1.7773 4.0547 1.8086h4.2578v28.312c-30.504 14.043-51.168 45.781-51.168 80.25v246.66c0 25.781 21.395 47.238 47.191 47.238h275.62c25.781 0 47.176-21.461 47.176-47.254l-0.003906-246.64c-0.003907-17.598-5.2109-34.809-14.961-49.461-8.8867-13.512-21.449-24.203-36.207-30.812zm-265.68-95.43c0-2.3984 1.6289-4.6953 4.0273-4.6953h255.66c2.3984 0 4.0273 2.2969 4.0273 4.6953v55.328h-263.71zm305.04 422.32c0 19.309-16.094 35.465-35.387 35.465h-275.58c-9.3672-0.09375-18.32-3.8633-24.941-10.492-6.6211-6.625-10.375-15.586-10.461-24.953v-246.64c0-31.066 19.098-59.555 47.332-70.883 2.2695-0.88281 3.7812-3.0469 3.8359-5.4805v-32.199h244.04v32.207c0.054687 2.4453 1.582 4.6133 3.8633 5.4883 28.215 11.141 47.305 39.621 47.305 70.871z"/>
  <path d="m413.95 417.31c20.605 0 40.371-8.1875 54.941-22.762 14.574-14.574 22.758-34.336 22.758-54.945 0-20.609-8.1875-40.375-22.762-54.945-14.57-14.57-34.336-22.758-54.945-22.758-20.605 0-40.371 8.1875-54.945 22.762-14.57 14.57-22.758 34.336-22.758 54.941 0.023437 20.605 8.2188 40.355 22.789 54.922 14.566 14.57 34.316 22.762 54.922 22.785zm0-143.6c17.477 0 34.234 6.9453 46.594 19.305 12.355 12.359 19.297 29.117 19.297 46.594 0 17.48-6.9453 34.238-19.301 46.598-12.359 12.355-29.121 19.297-46.598 19.297s-34.238-6.9414-46.594-19.301c-12.359-12.359-19.301-29.117-19.301-46.598 0.019531-17.469 6.9688-34.219 19.324-46.574 12.355-12.352 29.105-19.301 46.578-19.32z"/>
  <path d="m413.95 373.27c-7.0078-0.007813-12.688-5.6875-12.695-12.695 0-3.2578-2.6445-5.9023-5.9023-5.9023-3.2617 0-5.9062 2.6445-5.9062 5.9023 0.007813 5.4414 1.8203 10.723 5.1562 15.02 3.3359 4.2969 8.0039 7.3672 13.273 8.7227v4.8633c0 3.2578 2.6445 5.9023 5.9023 5.9023 3.2617 0 5.9062-2.6445 5.9062-5.9023v-4.7891c7.8438-1.8828 14.262-7.5117 17.152-15.043 2.8867-7.5352 1.8828-16.008-2.6914-22.656s-12.129-10.617-20.195-10.613c-5.1367 0-9.7656-3.0938-11.73-7.8359-1.9648-4.7422-0.87891-10.203 2.7539-13.832 3.6289-3.6328 9.0898-4.7188 13.832-2.7539 4.7422 1.9648 7.8359 6.5938 7.8359 11.727 0 3.2617 2.6445 5.9062 5.9062 5.9062 3.2578 0 5.9023-2.6445 5.9023-5.9062-0.007812-5.4961-1.8633-10.832-5.2656-15.148-3.4023-4.3164-8.1602-7.3672-13.5-8.6602v-3.875c0-3.2617-2.6445-5.9062-5.9062-5.9062-3.2578 0-5.9023 2.6445-5.9023 5.9062v3.957c-7.7695 1.9922-14.074 7.6641-16.871 15.184-2.7969 7.5195-1.7383 15.93 2.8359 22.52 4.5742 6.5898 12.086 10.523 20.109 10.527 6.8906 0.16406 12.395 5.7969 12.395 12.691s-5.5039 12.531-12.395 12.691z"/>
  <path d="m489.34 421.65h-161.24c-3.2617 0.042968-5.8711 2.7227-5.832 5.9844v37.309h-11.598c-3.3711 0.15625-6.043 2.8945-6.1133 6.2695v42.707c0.078125 3.3438 2.7656 6.0391 6.1133 6.1289h11.598v32.473h-11.598c-3.293-0.042969-6.0117 2.5586-6.1133 5.8477v42.707c0 3.2617 2.8555 5.5664 6.1133 5.5664l161.24-0.003906c1.5234 0.074219 3.0078-0.47656 4.1094-1.5312 1.1016-1.0508 1.7266-2.5078 1.7227-4.0312v-37.73h11.602c3.2891 0.042969 6.0078-2.5586 6.1094-5.8477v-42.707c0-3.2617-2.8555-5.5664-6.1133-5.5664l-11.598 0.003906v-33.461h11.598c3.2617 0 6.1133-2.1641 6.1133-5.4297v-42.707 0.003906c-0.089843-3.3164-2.793-5.9648-6.1094-5.9844zm-101.14 129.89v-30.504h14.762v30.504zm8.8555-43.297v-31.488h14.762v31.488zm-11.809-31.488v31.488h-13.777v-31.488zm-8.8555 44.281v30.504h-13.777v-30.504zm38.375 30.504v-30.504h13.777v30.504zm8.8555-43.297v-31.488h13.777v31.488zm-8.8555-44.281v-30.504h13.777v30.504zm-11.809 0h-14.758v-30.504h14.762zm-26.566 0h-13.777v-30.504h13.777zm-16.727 12.793v31.488h-14.762v-31.488zm-8.8555 74.785h-16.73v-30.504h16.727zm8.8555 12.793v30.504h-14.762v-30.504zm11.809 0h13.777v30.504h-13.781zm25.586 0h14.762v30.504h-14.766zm26.566 0h13.777v30.504h-13.781zm16.727-12.793v-30.504h14.762v30.504zm8.8555-74.785h16.727v31.488h-16.727zm-8.8555-12.793v-30.504h14.762v30.504zm-106.27-30.504h16.727v30.504h-16.727zm-17.711 43.297h16.727v31.488h-16.727zm0 87.578h16.727v30.504h-16.727zm149.57 30.504h-16.73v-30.504h16.727zm17.711-43.297h-16.73v-30.504h16.727zm0-87.578h-16.73v-30.504h16.727z"/>
 </g>
</svg>