<?xml version="1.0" encoding="UTF-8"?>
<!-- The Best Svg Icon site in the world: iconSvg.co, Visit us! https://iconsvg.co -->
<svg fill="#000000" width="800px" height="800px" version="1.1" viewBox="144 144 512 512" xmlns="http://www.w3.org/2000/svg">
 <g>
  <path d="m632.25 323.19-228.29-133.11c-2.4531-1.4258-5.457-1.4297-7.8945-0.019531l-228.29 131.61c-3.7656 2.168-5.0586 6.9727-2.8984 10.738l23.062 40.156c1.0469 1.8125 2.7656 3.1406 4.7891 3.6836 2.0156 0.54688 4.168 0.25781 5.9883-0.79297l200.02-115.96 202.54 117.38c1.207 0.69922 2.5664 1.0625 3.9453 1.0625 0.68359 0 1.3672-0.089844 2.0391-0.26953 2.0234-0.54297 3.7422-1.8633 4.7891-3.6758l23.062-40.074c2.1484-3.7539 0.875-8.5469-2.8633-10.727zm-29.91 36.105-199.66-115.71c-1.2148-0.70703-2.582-1.0625-3.9453-1.0625-1.3594 0-2.7305 0.35547-3.9531 1.0625l-197.12 114.29-15.215-26.488 217.53-125.4 217.59 126.87z"/>
  <path d="m573.18 390.57c-4.3516 0-7.8711 3.5234-7.8711 7.8711v196.8h-330.62v-204.67c0-4.3477-3.5195-7.8711-7.8711-7.8711-4.3516 0-7.8711 3.5234-7.8711 7.8711v212.54c0 4.3516 3.5195 7.8711 7.8711 7.8711h346.37c4.3516 0 7.8711-3.5195 7.8711-7.8711v-204.67c0-4.3477-3.5195-7.875-7.8711-7.875z"/>
  <path d="m368.51 374.83v188.93c0 4.3516 3.5195 7.8711 7.8711 7.8711h47.23c4.3516 0 7.8711-3.5195 7.8711-7.8711l0.003906-188.93c0-4.3477-3.5195-7.8711-7.8711-7.8711h-47.23c-4.3555 0-7.875 3.5234-7.875 7.8711zm15.742 7.8711h31.488v173.18h-31.488z"/>
  <path d="m274.05 563.76c0 4.3516 3.5195 7.8711 7.8711 7.8711h47.23c4.3516 0 7.8711-3.5195 7.8711-7.8711v-110.21c0-4.3516-3.5195-7.8711-7.8711-7.8711h-47.23c-4.3516 0-7.8711 3.5195-7.8711 7.8711zm15.742-102.34h31.488v94.465h-31.488z"/>
  <path d="m518.08 571.63c4.3516 0 7.8711-3.5195 7.8711-7.8711v-141.7c0-4.3477-3.5195-7.8711-7.8711-7.8711h-47.23c-4.3516 0-7.8711 3.5234-7.8711 7.8711v141.7c0 4.3516 3.5195 7.8711 7.8711 7.8711zm-39.359-141.7h31.488v125.95h-31.488z"/>
  <path d="m276.35 427.62c1.5391 1.5391 3.5508 2.3047 5.5664 2.3047s4.0273-0.76953 5.5664-2.3047l104.64-104.64v12.484c0 4.3477 3.5195 7.8711 7.8711 7.8711 4.3516 0 7.8711-3.5234 7.8711-7.8711v-31.488c0-4.3477-3.5195-7.8711-7.8711-7.8711h-31.488c-4.3516 0-7.8711 3.5234-7.8711 7.8711 0 4.3477 3.5195 7.8711 7.8711 7.8711h12.484l-104.64 104.64c-3.0742 3.0742-3.0742 8.0547 0 11.129z"/>
 </g>
</svg>