<?xml version="1.0" encoding="UTF-8"?>
<!-- The Best Svg Icon site in the world: iconSvg.co, Visit us! https://iconsvg.co -->
<svg width="800px" height="800px" version="1.1" viewBox="144 144 512 512" xmlns="http://www.w3.org/2000/svg">
 <defs>
  <clipPath id="a">
   <path d="m148.09 148.09h503.81v503.81h-503.81z"/>
  </clipPath>
 </defs>
 <g clip-path="url(#a)">
  <path d="m651.3 615.55c0.79688-1.9258 0.79688-4.0898 0-6.0156-0.39453-0.96094-0.97266-1.832-1.707-2.5664l-31.488-31.488c-3.0898-2.9805-8-2.9375-11.035 0.097656-3.0391 3.0352-3.0781 7.9453-0.097656 11.035l18.059 18.059h-421.83c-4.3477 0-7.875-3.5234-7.875-7.8711v-421.83l18.051 18.051c3.0898 2.9844 8 2.9414 11.035-0.097656 3.0391-3.0352 3.082-7.9453 0.097656-11.035l-31.488-31.488c-1.4766-1.4805-3.4805-2.3125-5.5742-2.3125-2.0898 0-4.0977 0.83203-5.5742 2.3125l-31.488 31.488c-3.0703 3.0781-3.0703 8.0664 0.007813 11.141 3.0781 3.0742 8.0664 3.0703 11.141-0.007813l18.051-18.051v421.83c0 6.2617 2.4883 12.27 6.918 16.699 4.4258 4.4258 10.434 6.9141 16.699 6.9141h421.83l-18.051 18.051c-1.5195 1.4688-2.3828 3.4844-2.4023 5.5938-0.019531 2.1133 0.8125 4.1445 2.3047 5.6367 1.4961 1.4922 3.5234 2.3242 5.6367 2.3047 2.1094-0.019531 4.125-0.88281 5.5938-2.4023l31.488-31.488c0.73047-0.73047 1.3086-1.6016 1.6992-2.5586z"/>
 </g>
 <path d="m274.05 502.34v78.719c0 4.3477 3.5234 7.8711 7.8711 7.8711 4.3477 0 7.8711-3.5234 7.8711-7.8711v-78.719c0-4.3477-3.5234-7.875-7.8711-7.875-4.3477 0-7.8711 3.5273-7.8711 7.875z"/>
 <path d="m226.81 502.34v78.719c0 4.3477 3.5273 7.8711 7.875 7.8711s7.8711-3.5234 7.8711-7.8711v-78.719c0-4.3477-3.5234-7.875-7.8711-7.875s-7.875 3.5273-7.875 7.875z"/>
 <path d="m368.51 486.59v94.465c0 4.3477 3.5234 7.8711 7.8711 7.8711 4.3477 0 7.8711-3.5234 7.8711-7.8711v-94.465c0-4.3477-3.5234-7.8711-7.8711-7.8711-4.3477 0-7.8711 3.5234-7.8711 7.8711z"/>
 <path d="m321.28 494.46v86.594c0 4.3477 3.5234 7.8711 7.8711 7.8711 4.3477 0 7.875-3.5234 7.875-7.8711v-86.594c0-4.3477-3.5273-7.8711-7.875-7.8711-4.3477 0-7.8711 3.5234-7.8711 7.8711z"/>
 <path d="m415.74 470.85v110.21c0 4.3477 3.5234 7.8711 7.8711 7.8711 4.3477 0 7.875-3.5234 7.875-7.8711v-110.21c0-4.3477-3.5273-7.8711-7.875-7.8711-4.3477 0-7.8711 3.5234-7.8711 7.8711z"/>
 <path d="m462.98 439.36v141.7c0 4.3477 3.5234 7.8711 7.8711 7.8711s7.8711-3.5234 7.8711-7.8711v-141.7c0-4.3477-3.5234-7.8711-7.8711-7.8711s-7.8711 3.5234-7.8711 7.8711z"/>
 <path d="m510.21 392.12v188.93c0 4.3477 3.5234 7.8711 7.8711 7.8711s7.8711-3.5234 7.8711-7.8711v-188.93c0-4.3477-3.5234-7.8711-7.8711-7.8711s-7.8711 3.5234-7.8711 7.8711z"/>
 <path d="m557.44 329.15v251.91c0 4.3477 3.5273 7.8711 7.875 7.8711s7.8711-3.5234 7.8711-7.8711v-251.91c0-4.3477-3.5234-7.8711-7.8711-7.8711s-7.875 3.5234-7.875 7.8711z"/>
 <path d="m281.92 462.98h-47.23c-4.3477 0-7.875 3.5234-7.875 7.8711s3.5273 7.8711 7.875 7.8711h47.23c74.035-0.09375 145.27-28.344 199.23-79.023 53.973-50.68 86.645-119.99 91.395-193.88l18.688 18.688c3.0898 2.9844 7.9961 2.9414 11.035-0.097656 3.0352-3.0352 3.0781-7.9453 0.09375-11.035l-31.488-31.488c-1.4766-1.4805-3.4805-2.3125-5.5703-2.3125-2.0938 0-4.0977 0.83203-5.5742 2.3125l-31.488 31.488c-2.9844 3.0898-2.9414 8 0.09375 11.035 3.0391 3.0391 7.9492 3.082 11.035 0.097656l17.281-17.266c-5.0742 69.43-36.211 134.37-87.164 181.8-50.953 47.43-117.96 73.84-187.57 73.934z"/>
 <path d="m344.89 415.74c31.316 0 61.352-12.441 83.496-34.586s34.586-52.176 34.586-83.492c0-31.32-12.441-61.352-34.586-83.496s-52.18-34.586-83.496-34.586c-31.316 0-61.352 12.441-83.496 34.586-22.145 22.145-34.586 52.176-34.586 83.496 0.035156 31.305 12.488 61.316 34.625 83.453 22.137 22.137 52.152 34.59 83.457 34.625zm0-220.42c27.141 0 53.172 10.785 72.363 29.977 19.191 19.191 29.973 45.219 29.973 72.363 0 27.141-10.781 53.168-29.973 72.359-19.191 19.191-45.223 29.977-72.363 29.977s-53.172-10.785-72.363-29.977c-19.191-19.191-29.973-45.219-29.973-72.359 0.03125-27.133 10.824-53.145 30.008-72.328 19.184-19.188 45.195-29.98 72.328-30.012z"/>
 <path d="m269.89 340.96c2.1875 3.7344 6.9805 5 10.727 2.8359 3.7461-2.1641 5.0469-6.9453 2.9062-10.707-11.828-20.438-12.691-45.426-2.3086-66.637 10.383-21.207 30.648-35.852 54.047-39.043 23.398-3.1953 46.848 5.4766 62.535 23.129 15.691 17.648 21.555 41.953 15.637 64.816-5.9141 22.859-22.832 41.27-45.109 49.098-22.281 7.8242-46.996 4.0352-65.906-10.109-3.4805-2.6094-8.4141-1.9023-11.023 1.5742-2.6055 3.4805-1.9023 8.4141 1.5742 11.023 23.066 17.285 53.23 21.941 80.438 12.418 27.203-9.5234 47.879-31.977 55.129-59.875 7.25-27.898 0.12109-57.574-19.004-79.137-19.129-21.566-47.742-32.184-76.305-28.312-28.562 3.8672-53.324 21.711-66.027 47.586s-11.68 56.375 2.7305 81.34z"/>
 <path d="m345.36 321.28h-16.211c-4.3477 0-7.8711 3.5234-7.8711 7.8711 0 4.3477 3.5234 7.875 7.8711 7.875h16.211c8.4375-0.085938 16.188-4.6602 20.336-12.012 4.1445-7.3477 4.0586-16.348-0.23437-23.613-4.2891-7.2656-12.129-11.691-20.566-11.609-4.3477 0-7.8711-3.5234-7.8711-7.8711 0-4.3477 3.5234-7.8711 7.8711-7.8711h16.207c4.3477 0 7.875-3.5234 7.875-7.8711 0-4.3477-3.5273-7.875-7.875-7.875h-16.207c-8.4375 0.085938-16.188 4.6641-20.336 12.012-4.1484 7.3477-4.0586 16.348 0.23047 23.613 4.293 7.2656 12.133 11.691 20.57 11.609 4.3477 0 7.8711 3.5234 7.8711 7.8711s-3.5234 7.8711-7.8711 7.8711z"/>
</svg>