<?xml version="1.0" encoding="UTF-8"?>
<!-- The Best Svg Icon site in the world: iconSvg.co, Visit us! https://iconsvg.co -->
<svg fill="#000000" width="800px" height="800px" version="1.1" viewBox="144 144 512 512" xmlns="http://www.w3.org/2000/svg">
 <g>
  <path d="m598.68 415.22c-1.0977-1.1523-2.6953-1.6797-4.2617-1.3984-7.9688 1.4297-15.879 2.7422-23.723 3.9375 3.6016-9.2188 3.6016-19.227 3.5898-29.695v-1.4258c0-35.816-25.199-117.25-66.715-117.25-13.609 0-27.141 9.0039-39.418 26.125-14.035-24.418-37.77-55.383-68.152-55.383-30.387 0-54.121 30.965-68.152 55.418-12.281-17.121-25.809-26.125-39.43-26.125-41.504 0-66.707 81.438-66.707 117.25 0 11.582 0.38281 22.199 4.0742 31.684-15.332-2.5391-23.805-4.4492-23.988-4.4883-1.5859-0.36328-3.25 0.11719-4.3984 1.2695-1.1523 1.1523-1.6289 2.8125-1.2617 4.3984 5.1523 20.645 12.234 40.758 21.156 60.074 19.465 41.75 42.746 65.93 69.203 71.781 32.641 7.2539 82.605 8.4219 109.49 8.4727 26.883-0.050782 76.852-1.2188 109.49-8.4727 26.461-5.9023 49.742-30.031 69.203-71.781h0.007813c8.9219-19.316 16.008-39.43 21.156-60.074 0.37109-1.543-0.066406-3.168-1.1602-4.3164zm-91.109-136.36c19.031 0 33.457 24.984 40.344 39.871 10.105 21.766 16.887 49.07 16.887 67.895v1.4375c0 12.113 0 22.633-5.4531 31.23v0.003907c-0.035156 0.058593-0.070312 0.11719-0.097656 0.17578-19.316 2.793-38.16 5-56.395 6.6992 0.24609-2.7461 0.60938-7.7227 0.60938-12.852 0-29.125-11.809-72.07-29.441-106.85l-0.84766-1.6641c11.094-16.734 23.254-25.945 34.395-25.945zm-107.57-29.285c21.227 0 44.223 20.734 63.488 57.07 0.070313 0.13672 0.13672 0.27734 0.21484 0.40234 0.64844 1.2305 1.2891 2.4688 1.9688 3.7305 17.004 33.586 28.43 74.785 28.43 102.58 0 6.1992-0.60156 12.359-0.74609 13.699l-0.003907 0.003906c-58.176 4.9336-116.64 5.4219-174.89 1.4648-3.7461-0.26953-7.4141-0.54297-11-0.82812h-0.003906c-0.054688-0.089843-0.11719-0.17188-0.18359-0.25391-0.92969-4.625-1.3789-9.3359-1.3398-14.051 0-27.777 11.426-69 28.43-102.58 0.62891-1.2578 1.2773-2.5 1.918-3.7188v-0.003906c0.085938-0.13672 0.16797-0.28125 0.23438-0.43359 19.27-36.355 42.254-57.082 63.48-57.082zm-66.059 189.34c21.188 1.1602 45.492 1.8711 72.285 1.6445-48.215 27.945-88.805 42.41-115.32 49.742-24.875 6.8867-41.898 8.8555-48.148 9.3203l0.003906-0.003906c-4.3633-7.0703-8.3242-14.379-11.867-21.895 17.691-4.5547 72.312-19.68 103.04-38.809zm-98.773-52.25c0-18.863 6.7812-46.168 16.887-67.895 6.8867-14.887 21.344-39.871 40.344-39.871 11.18 0 23.312 9.2109 34.363 25.988l-0.84766 1.6641c-17.613 34.785-29.441 77.734-29.441 106.85v-0.003906c0.007813 4.0469 0.28516 8.0859 0.82422 12.094 0.058594 0.43359 0.12891 0.89453 0.19531 1.3672-22.535-1.9688-41.555-4.457-56.344-6.6797-5.4766-9.0742-5.9805-20.145-5.9805-33.516zm-23.93 37.922c15.242 2.9531 52.754 9.4766 105.2 13.195-31.281 15.598-76.211 27.75-89.543 31.172v0.003906c-6.207-14.426-11.438-29.246-15.656-44.371zm37.48 83.906c14.965-1.875 29.77-4.8906 44.277-9.0117 29.719-8.1758 76.703-25.102 132.16-59.285 21.875-0.54297 45.176-1.7305 69.617-3.8086-29.039 25.238-74.785 49.102-133.53 69.48h0.003906c-29.695 10.277-59.938 18.898-90.59 25.828-8.1484-6.043-15.457-14.109-21.941-23.164zm151.28 41.91c-45.746-0.078124-83.906-3.0117-107.45-8.2461-3.4922-0.78516-6.8945-1.9336-10.148-3.4258 16.156-3.8359 47.125-11.809 81.84-23.852 4.7812-1.6602 9.4727-3.3398 14.07-5.0391 7.8711 5.7188 36.406 25.703 67.414 39.41-14.059 0.72656-29.41 1.1211-45.723 1.1523zm107.45-8.2461c-13.055 2.6953-26.27 4.5586-39.559 5.5781-31.125-10.242-64.582-32.027-78.879-41.93 15.43-5.9648 29.734-12.133 42.914-18.508 10.223 7.5586 50.539 35.848 95.016 46.148-5.8789 4.1289-12.496 7.0859-19.492 8.7109zm28.988-16.402c-40.551-7.3008-80.059-32.785-94.938-43.227v-0.003906c13.094-6.6367 25.754-14.098 37.902-22.336 9.6523 7.0469 42.262 29.332 79.023 37.48-6.3516 10.492-13.676 20.281-21.988 28.086zm26.902-36.703c-33.012-6.5625-63.891-26.352-75.77-34.676v-0.003907c8.0078-5.8906 15.574-12.363 22.633-19.363 25.23-2.4883 51.562-5.9023 78.66-10.617-3.5039 12.457-11.887 39.496-25.523 64.66z"/>
  <path d="m400 388.52c-11.344 0-20.566-7.7344-20.566-17.25-0.11719-2.5273-2.1992-4.5156-4.7305-4.5156-2.5273 0-4.6094 1.9883-4.7266 4.5156 0 13.293 10.98 24.344 25.297 26.371v11.219c0 2.6094 2.1172 4.7227 4.7266 4.7227 2.6055 0 4.7227-2.1133 4.7227-4.7227v-11.219c14.316-2.0273 25.297-13.078 25.297-26.371 0-14.762-13.473-26.707-30.023-26.707-13.461 0-20.566-5.9648-20.566-17.25 0-9.5156 9.2188-17.25 20.566-17.25 11.344 0 20.566 7.7344 20.566 17.25 0.11719 2.5273 2.1992 4.5195 4.7305 4.5195s4.6133-1.9922 4.7266-4.5195c0-13.293-10.98-24.344-25.297-26.371v-11.234c0-2.6094-2.1172-4.7266-4.7227-4.7266-2.6094 0-4.7266 2.1172-4.7266 4.7266v11.238c-14.316 2.0273-25.297 13.078-25.297 26.371 0 16.727 11.227 26.707 30.023 26.707 11.344 0 20.566 7.7344 20.566 17.25-0.003906 9.5117-9.2227 17.246-20.566 17.246z"/>
 </g>
</svg>