<?xml version="1.0" encoding="UTF-8"?>
<!-- The Best Svg Icon site in the world: iconSvg.co, Visit us! https://iconsvg.co -->
<svg fill="#000000" width="800px" height="800px" version="1.1" viewBox="144 144 512 512" xmlns="http://www.w3.org/2000/svg">
 <g>
  <path d="m603.9 225.83h-44.441c-53.031 0-102.95-19.113-144.36-55.332l-11.219-9.793-0.003906 0.003906c-2.2266-1.9453-5.5469-1.9414-7.7734 0.003907l-11.219 9.7812c-41.406 36.219-91.324 55.336-144.36 55.336h-44.434c-1.5508 0.023437-3.0273 0.66797-4.0977 1.7891-1.0703 1.1211-1.6445 2.625-1.5938 4.1758v146.98c0 64.715 16.531 114.53 52.258 156.78 29.633 35.043 71.266 64.074 139.34 97.082l15.449 7.5078h-0.003907c1.6211 0.78906 3.5156 0.78906 5.1328 0l15.473-7.5039c68.07-33.012 109.65-62.047 139.29-97.086 35.723-42.246 52.254-92.062 52.254-156.78v-146.98c0.050781-1.5508-0.52344-3.0547-1.5938-4.1758-1.0703-1.1211-2.5469-1.7656-4.0938-1.7891zm-6.1211 152.95c0 61.766-15.645 109.16-49.469 149.15-28.504 33.703-68.98 61.84-135.48 94.086l-12.871 6.2539-12.887-6.2578c-66.492-32.242-106.91-60.379-135.41-94.086-33.816-39.988-49.453-87.387-49.453-149.15v-141.14h38.316c55.934 0 108.54-20.125 152.13-58.254l7.3359-6.3945 7.3281 6.3867c43.59 38.133 96.199 58.262 152.13 58.262h38.32z"/>
  <path d="m403.65 205.45c-2.1602-1.668-5.1797-1.6367-7.3047 0.074219-45.398 35.762-99.273 54.742-155.81 54.742h-10.363c-3.2539 0-6.3047 2.332-6.3047 5.5938v112.91c0 56.203 14.281 99.031 44.512 134.78 26.371 31.18 64.82 57.629 128.34 88.43l0.66016 0.29688-0.003906-0.003906c1.6367 0.78906 3.5469 0.78906 5.1875 0l0.61328-0.29688c63.52-30.801 102.08-57.25 128.45-88.43 30.227-35.742 44.512-78.57 44.512-134.77v-112.91c0-3.2617-3.0508-5.5938-6.3086-5.5938h-10.367c-56.535 0-110.42-19.055-155.81-54.816zm160.68 173.32c0 53.254-13.395 93.656-41.723 127.15-24.969 29.52-61.742 54.844-122.51 84.473-60.766-29.625-97.688-54.945-122.66-84.473-28.328-33.496-41.77-73.898-41.77-127.15v-106.7h4.8633c57.699 0 112.73-18.781 159.46-54.367 46.723 35.586 101.75 54.367 159.46 54.367h4.8672z"/>
  <path d="m403.66 397.24c17.672 0 34.621-7.0195 47.117-19.516 12.496-12.496 19.516-29.441 19.516-47.113s-7.0195-34.617-19.516-47.113-29.445-19.516-47.117-19.516c-17.668 0-34.617 7.0195-47.113 19.516-12.496 12.496-19.516 29.441-19.516 47.113 0.019532 17.664 7.0469 34.602 19.539 47.094 12.492 12.488 29.426 19.516 47.09 19.535zm0-121.45v0.003907c14.543 0 28.484 5.7734 38.766 16.055s16.059 24.227 16.059 38.766c0 14.539-5.7773 28.484-16.059 38.766s-24.223 16.055-38.766 16.055c-14.539 0-28.48-5.7734-38.762-16.055s-16.059-24.227-16.059-38.766c0.015625-14.535 5.7969-28.469 16.074-38.746 10.277-10.277 24.215-16.059 38.746-16.074z"/>
  <path d="m403.66 358.18c-5.4219-0.007813-9.8164-4.4023-9.8203-9.8242 0-3.2617-2.6445-5.9023-5.9023-5.9023-3.2617 0-5.9062 2.6406-5.9062 5.9023 0.007813 4.9258 1.6953 9.7031 4.7812 13.543 3.0859 3.8359 7.3906 6.5078 12.199 7.5742v3.957c0 3.2617 2.6406 5.9062 5.9023 5.9062s5.9062-2.6445 5.9062-5.9062v-4.6719 0.003907c6.4766-2.2734 11.492-7.4844 13.516-14.047 2.0195-6.5586 0.80469-13.691-3.2734-19.215s-10.535-8.7812-17.402-8.7773c-3.9727 0-7.5508-2.3945-9.0742-6.0664-1.5195-3.668-0.67969-7.8945 2.1289-10.703 2.8125-2.8086 7.0352-3.6484 10.707-2.1289 3.668 1.5195 6.0625 5.1016 6.0625 9.0742 0 3.2617 2.6445 5.9023 5.9023 5.9023 3.2617 0 5.9062-2.6406 5.9062-5.9023-0.007813-4.4805-1.4023-8.8516-3.9922-12.504-2.5938-3.6562-6.2539-6.418-10.48-7.9023v-4.7344c0-3.2617-2.6445-5.9023-5.9062-5.9023s-5.9023 2.6406-5.9023 5.9023v4.0195c-7.0039 1.543-12.789 6.457-15.445 13.117-2.6523 6.6641-1.832 14.207 2.1914 20.145 4.0273 5.9375 10.734 9.4883 17.902 9.4883 5.3867 0.054687 9.7266 4.4375 9.7266 9.8242 0 5.3867-4.3398 9.7695-9.7266 9.8242z"/>
  <path d="m476.69 401.96h-156.18c-3.2852-0.058594-6.0078 2.5312-6.1172 5.8125v36.5h-10.766c-1.5508-0.042969-3.0547 0.53516-4.1758 1.6055-1.1211 1.0742-1.7656 2.5508-1.7852 4.1016v41.367c0.011719 3.3047 2.6562 5.9961 5.9609 6.0625h10.766v36.152c0.078125 3.3555 2.7656 6.0586 6.1172 6.1602h156.18c3.3203-0.11328 5.9531-2.8359 5.9648-6.1602v-41.367c-0.027344-1.543-0.67578-3.0078-1.8008-4.0625-1.1211-1.0547-2.625-1.6133-4.1641-1.5469h-10.766v-31.488h10.766c3.2812-0.019531 5.9375-2.6719 5.9648-5.957v-41.367c-0.019531-1.5625-0.65625-3.0508-1.7773-4.1445-1.1211-1.0898-2.625-1.6875-4.1875-1.668zm-89.484 83.641v-29.52h13.777v29.52zm-11.809-29.52v29.52h-12.793v-29.52zm37.391 29.52v-29.52h13.777v29.52zm-7.8711-42.312v-29.52h12.793v29.52zm-11.809 0h-13.773v-29.52h13.777zm-25.586 0h-13.773v-29.52h13.777zm-16.727 12.793v29.52h-13.773v-29.52zm16.727 42.312v29.52h-13.773v-29.52zm11.809 0h13.777v29.52h-13.773zm25.586 0h12.793v29.52h-12.793zm24.602 0h13.777v29.52h-13.777zm8.8555-42.312h15.742v29.52h-15.742zm-8.8555-12.793v-29.52h13.777v29.52zm-103.32-29.52h15.742v29.52h-15.742zm-16.727 42.312h15.742v29.52h-15.746zm16.727 42.312h15.742v29.52h-15.742zm144.65 29.52h-15.746v-29.52h15.742zm0-84.625h-15.746v-29.52h15.742z"/>
 </g>
</svg>