<?xml version="1.0" encoding="UTF-8"?>
<!-- The Best Svg Icon site in the world: iconSvg.co, Visit us! https://iconsvg.co -->
<svg fill="#000000" width="800px" height="800px" version="1.1" viewBox="144 144 512 512" xmlns="http://www.w3.org/2000/svg">
 <g>
  <path d="m399.99 305c-9.5508 0-17.32-6.3086-17.32-14.062 0-3.4766-2.8203-6.2969-6.2969-6.2969s-6.2969 2.8203-6.2969 6.2969c0 12.773 10.137 23.469 23.617 26.051v6.2812c0 3.4766 2.8203 6.2969 6.2969 6.2969 3.4766 0 6.2969-2.8203 6.2969-6.2969v-6.3008c13.652-2.7461 23.617-14.281 23.617-28.516 0-1.9688-0.92188-3.8242-2.4883-5.0195l-44.531-33.797c1.0391-6.9531 5.9141-13.469 17.105-13.469 9.5508 0 17.32 6.3086 17.32 14.062 0 3.4766 2.8203 6.2969 6.2969 6.2969s6.2969-2.8203 6.2969-6.2969c0-12.773-10.141-23.461-23.617-26.047v-6.2812c0-3.4766-2.8203-6.2969-6.2969-6.2969-3.4766 0-6.2969 2.8203-6.2969 6.2969v6.2227c-16.164 2.75-23.617 16.02-23.617 28.477 0 1.9688 0.92188 3.8242 2.4883 5.0195l44.5 33.773c-1.3711 7.9258-8.25 13.605-17.074 13.605z"/>
  <path d="m271.7 400.71c0 31.781 25.855 57.637 57.637 57.637 30.152 0 54.926-23.285 57.395-52.809 0.10547-0.45312 0.27734-0.88281 0.27734-1.3711 0-7.3008 5.8359-13.234 13.008-13.234 7.1758 0 13.012 5.9414 13.012 13.234 0 0.40625 0.15625 0.75391 0.23047 1.1445 2.3594 29.633 27.176 53.043 57.402 53.043 31.781 0 57.637-25.855 57.637-57.637s-25.855-57.637-57.637-57.637c-25.895 0-47.848 17.168-55.098 40.719-4.3242-3.3672-9.6797-5.457-15.551-5.457-5.8828 0-11.246 2.0977-15.578 5.4766-7.2383-23.559-29.195-40.738-55.102-40.738-31.773-0.007813-57.633 25.848-57.633 57.629zm198.96-45.043c5.8555 0 11.438 1.1602 16.574 3.1992l-43.543 43.543c-2.457 2.457-2.457 6.4453 0 8.9062 1.2305 1.2305 2.8398 1.8438 4.4531 1.8438s3.2227-0.61328 4.4531-1.8438l45.926-45.926c2.418 1.9102 4.6445 4.0469 6.625 6.4023l-13.844 13.844c-2.457 2.457-2.457 6.4453 0 8.9062 1.2305 1.2305 2.8398 1.8438 4.4531 1.8438 1.6133 0 3.2227-0.61328 4.4531-1.8438l11.754-11.754c2.3984 5.4961 3.7422 11.551 3.7422 17.922 0 24.836-20.207 45.039-45.039 45.039-24.832 0-45.039-20.207-45.039-45.039 0.003906-24.828 20.199-45.043 45.031-45.043zm-106.82 16.145-13.828 13.824c-2.457 2.457-2.457 6.4453 0 8.9062 1.2305 1.2305 2.8398 1.8438 4.4531 1.8438 1.6133 0 3.2227-0.61328 4.4531-1.8438l11.734-11.73c2.3867 5.4922 3.7266 11.543 3.7266 17.898 0 24.836-20.207 45.039-45.039 45.039-24.832 0-45.039-20.207-45.039-45.039 0-24.832 20.207-45.039 45.039-45.039 5.8633 0 11.457 1.1602 16.602 3.2109l-43.539 43.535c-2.457 2.457-2.457 6.4453 0 8.9062 1.2305 1.2305 2.8398 1.8438 4.4531 1.8438s3.2227-0.61328 4.4531-1.8438l45.914-45.914c2.4102 1.9062 4.6367 4.043 6.6172 6.4023z"/>
  <path d="m475.77 467.56c-0.085937 0.11719-9.1445 11.652-19.992 11.652-7.8906 0-11.844-2.3125-16.27-9.5234l-1.1992-1.9766c-4.9258-8.1719-11.059-18.344-25.719-18.344-4.3359 0-8.625 1.1016-12.602 3.2227-3.9766-2.1172-8.2617-3.2227-12.594-3.2227-15.02 0-21.199 10.555-26.168 19.039l-0.80469 1.3711c-3.6914 6.2578-9.1484 9.4297-16.211 9.4297-10.906 0-19.914-11.551-19.992-11.652-1.6367-2.1562-4.4688-3.0234-7.0273-2.1602-2.5625 0.86328-4.293 3.2656-4.293 5.9688 0 27.992 24.207 49.918 55.113 49.918 13 0 23.719-3.3516 31.977-9.9688 8.2539 6.6211 18.977 9.9688 31.973 9.9688 30.902 0 55.113-21.926 55.113-49.918 0-2.707-1.7266-5.1094-4.293-5.9688-2.5352-0.85547-5.3711 0.007812-7.0117 2.1641zm-43.801 41.133c-11.91 0-21.105-3.4453-27.332-10.238-1.1953-1.3008-2.875-2.0391-4.6406-2.0391-1.7617 0-3.4492 0.74219-4.6406 2.0391-6.2266 6.7969-15.426 10.238-27.336 10.238-16.906 0-31.223-8.2461-38.113-20.512 4.1719 2.1172 9.0078 3.6328 14.309 3.6328 11.504 0 21.109-5.5469 27.059-15.625l0.82812-1.4102c4.9336-8.4141 7.8477-12.809 15.301-12.809 3.0625 0 6.0508 1.0547 8.8633 3.1289 2.2148 1.6406 5.2539 1.6406 7.4766 0 2.8047-2.0742 5.7891-3.125 8.8555-3.125 7.2109 0 10.078 4.2031 14.934 12.254l1.25 2.0625c6.6797 10.883 14.758 15.527 27 15.527 5.3008 0 10.137-1.5156 14.309-3.6328-6.8984 12.262-21.207 20.508-38.121 20.508z"/>
  <path d="m460.5 264.7c-3.2539-1.2383-6.8906 0.38672-8.1328 3.6328-1.2461 3.25 0.38281 6.8906 3.6328 8.1328 60.27 23.035 100.76 81.848 100.76 146.35 0 86.383-70.277 156.66-156.66 156.66-86.383 0-156.66-70.277-156.66-156.66 0-64.504 40.496-123.32 100.76-146.35 3.25-1.2383 4.875-4.8828 3.6328-8.1328-1.2383-3.25-4.8672-4.875-8.1328-3.6328-65.113 24.883-108.86 88.43-108.86 158.12 0 93.324 75.93 169.25 169.25 169.25s169.25-75.93 169.25-169.25c0.015625-69.688-43.73-133.23-108.85-158.12z"/>
  <path d="m337.53 397.11-2.875 2.875c-2.457 2.457-2.457 6.4453 0 8.9062 1.2305 1.2305 2.8398 1.8438 4.4531 1.8438s3.2227-0.61328 4.4531-1.8438l2.875-2.875c2.457-2.457 2.457-6.4453 0-8.9062-2.457-2.4648-6.4492-2.4648-8.9062 0z"/>
  <path d="m480.39 410.73c1.6133 0 3.2227-0.61328 4.4531-1.8438l2.875-2.875c2.457-2.457 2.457-6.4453 0-8.9062-2.457-2.4648-6.4453-2.457-8.9062 0l-2.875 2.875c-2.457 2.457-2.457 6.4453 0 8.9062 1.2305 1.2305 2.8398 1.8438 4.4531 1.8438z"/>
 </g>
</svg>