<?xml version="1.0" encoding="UTF-8"?>
<!-- The Best Svg Icon site in the world: iconSvg.co, Visit us! https://iconsvg.co -->
<svg fill="#000000" width="800px" height="800px" version="1.1" viewBox="144 144 512 512" xmlns="http://www.w3.org/2000/svg">
 <g>
  <path d="m506.27 428.86v-8.1953h1.832c3.3594-0.17187 6.0078-2.9258 6.043-6.2891v-59.41c-0.070312-7.7305-6.3359-13.973-14.066-14.008h-51.051c13.273-13.035 20.711-30.887 20.621-49.492 0.003906-24.902-13.281-47.91-34.844-60.363-21.562-12.449-48.129-12.453-69.695-0.003906-21.566 12.449-34.852 35.457-34.852 60.355-0.09375 18.609 7.3438 36.465 20.625 49.504h-50.961c-7.7344 0.035157-14 6.2773-14.066 14.008v59.41c0.035156 3.3633 2.6797 6.1172 6.0391 6.2891h1.832v8.2148c-23.617 11.371-39.359 36.441-39.359 63.645v113.29c0 20.887 16.844 38.215 37.746 38.215h215.79c20.887 0 37.734-17.328 37.734-38.23v-113.28c0-27.352-15.746-52.43-39.363-63.664zm-136.52-88c-14.445-8.8359-24.297-23.551-26.961-40.27-2.668-16.719 2.1211-33.77 13.102-46.656 10.98-12.891 27.055-20.324 43.984-20.348 16.934-0.023438 33.023 7.3672 44.043 20.223 11.016 12.859 15.852 29.895 13.23 46.621-2.6211 16.73-12.43 31.473-26.852 40.348-0.11328 0.070312-0.21484 0.1875-0.32422 0.1875l-27.82-0.003906c1.7305-1.0312 2.7852-2.9062 2.7695-4.9219v-4.0352c7.2344-1.6445 13.188-6.7578 15.902-13.66 2.7148-6.9023 1.8398-14.699-2.3359-20.828-4.1758-6.1328-11.113-9.8008-18.531-9.8008-4.293 0-8.1641-2.5859-9.8086-6.5508-1.6445-3.9688-0.73438-8.5352 2.3008-11.57 3.0352-3.0352 7.6016-3.9453 11.57-2.3047 3.9648 1.6445 6.5547 5.5156 6.5547 9.8086 0 3.2578 2.6445 5.9023 5.9023 5.9023 3.2617 0 5.9062-2.6445 5.9062-5.9023-0.007812-4.9102-1.6211-9.6797-4.5977-13.586-2.9766-3.9023-7.1484-6.7266-11.879-8.0352v-5.0469c0-3.2617-2.6445-5.9023-5.9023-5.9023-3.2617 0-5.9062 2.6406-5.9062 5.9023v5.0195c-7.0547 1.9102-12.738 7.1367-15.227 14.008-2.4883 6.875-1.4688 14.527 2.7266 20.512 4.1992 5.9844 11.051 9.5469 18.359 9.5469 5.6367-0.003906 10.297 4.4023 10.602 10.035 0.30859 5.6289-3.8359 10.516-9.4414 11.129-1.125-0.43359-2.3594-0.50781-3.5273-0.20703-4.8203-1.1094-8.2422-5.3945-8.25-10.34 0-3.2617-2.6406-5.9062-5.9023-5.9062-3.2617 0-5.9062 2.6445-5.9062 5.9062 0.007812 4.75 1.5195 9.375 4.3164 13.211 2.8008 3.8398 6.7461 6.6914 11.266 8.1445v4.5508c-0.011719 2.0156 1.043 3.8867 2.7695 4.918h-25.93c-0.066407 0-0.13281-0.058593-0.20312-0.097656zm-72.082 14.105c0.058594-1.2109 1.043-2.1719 2.2578-2.1992h200.16c1.2148 0.023437 2.2031 0.98438 2.2617 2.1992v53.891h-204.68zm236.16 250.82c0 14.406-11.547 26.434-25.941 26.434h-215.75c-14.414 0-25.957-12.027-25.957-26.422v-113.28c0-23.805 14.281-45.629 35.902-54.305 2.1797-0.92578 3.5586-3.1094 3.457-5.4805v-12.07h188.93v12.078-0.003907c-0.10156 2.3828 1.293 4.5742 3.4883 5.4922 21.605 8.5312 35.875 30.352 35.875 54.293z"/>
  <path d="m392.12 161.87v24.598c0 3.2617 2.6445 5.9062 5.9062 5.9062s5.9023-2.6445 5.9023-5.9062v-24.598c0-3.2617-2.6406-5.9062-5.9023-5.9062s-5.9062 2.6445-5.9062 5.9062z"/>
  <path d="m497.85 202.48-17.754 17.754c-2.3086 2.3047-2.3086 6.043 0 8.3516 2.3047 2.3047 6.043 2.3047 8.3477 0l17.754-17.758c2.3047-2.3047 2.3047-6.043 0-8.3516-2.3047-2.3047-6.043-2.3047-8.3477 0.003906z"/>
  <path d="m293.36 202.77c-1.1094 1.1094-1.7305 2.6094-1.7305 4.1758 0 1.5664 0.62109 3.0664 1.7305 4.1758l17.754 17.754c2.3086 2.3086 6.0469 2.3086 8.3516 0 2.3047-2.3047 2.3047-6.043 0-8.3477l-17.758-17.758c-2.3047-2.3047-6.043-2.3047-8.3477 0z"/>
  <path d="m338.09 171.93c-2.9727 1.332-4.3047 4.8281-2.9688 7.8008l10.281 22.91c1.3359 2.9766 4.8281 4.3047 7.8047 2.9688 1.4297-0.64062 2.543-1.8242 3.1016-3.2852 0.55469-1.4648 0.50781-3.0898-0.13281-4.5195l-10.281-22.906c-0.64063-1.4297-1.8242-2.5469-3.2891-3.1016-1.4609-0.55859-3.0859-0.51172-4.5156 0.13281z"/>
  <path d="m445.46 172-8.9297 23.469h-0.003906c-0.55469 1.4648-0.50781 3.0898 0.13281 4.5195s1.8242 2.543 3.2852 3.1016c3.0508 1.1602 6.4609-0.37109 7.6211-3.418l8.9297-23.469v-0.003907c1.1602-3.0469-0.37109-6.457-3.418-7.6172s-6.457 0.37109-7.6172 3.418z"/>
 </g>
</svg>