<?xml version="1.0" encoding="UTF-8"?>
<!-- The Best Svg Icon site in the world: iconSvg.co, Visit us! https://iconsvg.co -->
<svg fill="#000000" width="800px" height="800px" version="1.1" viewBox="144 144 512 512" xmlns="http://www.w3.org/2000/svg">
 <g>
  <path d="m376.38 337.02h-23.617v-23.617c0-2.0859-0.82812-4.0898-2.3047-5.5664-1.4766-1.4766-3.4805-2.3047-5.5664-2.3047h-31.488c-4.3477 0-7.8711 3.5234-7.8711 7.8711v23.617h-23.617c-4.3477 0-7.8711 3.5234-7.8711 7.8711v31.488c0 2.0859 0.82812 4.0898 2.3047 5.5664 1.4766 1.4766 3.4805 2.3047 5.5664 2.3047h23.617v23.617c0 2.0859 0.82812 4.0898 2.3047 5.5664 1.4766 1.4766 3.4805 2.3047 5.5664 2.3047h31.488c2.0859 0 4.0898-0.82813 5.5664-2.3047 1.4766-1.4766 2.3047-3.4805 2.3047-5.5664v-23.617h23.617c2.0859 0 4.0898-0.82812 5.5664-2.3047 1.4766-1.4766 2.3047-3.4805 2.3047-5.5664v-31.488c0-2.0898-0.82812-4.0898-2.3047-5.5664-1.4766-1.4766-3.4805-2.3047-5.5664-2.3047zm-7.8711 31.488h-23.617c-4.3477 0-7.8711 3.5234-7.8711 7.8711v23.617h-15.746v-23.617c0-2.0898-0.82812-4.0898-2.3047-5.5664-1.4766-1.4766-3.4805-2.3047-5.5664-2.3047h-23.617v-15.746h23.617c2.0859 0 4.0898-0.82812 5.5664-2.3047 1.4766-1.4766 2.3047-3.4805 2.3047-5.5664v-23.617h15.742v23.617h0.003907c0 2.0859 0.82812 4.0898 2.3047 5.5664 1.4766 1.4766 3.4766 2.3047 5.5664 2.3047h23.617z"/>
  <path d="m628.29 400c-43.301 0.11719-84.848-17.09-115.38-47.793l-5.0078-5.0078c-3.0703-3.0703-8.0547-3.0703-11.129 0l-2.3086 2.3086v-83.332c-0.011719-10.438-4.1602-20.441-11.539-27.82-7.3789-7.3789-17.383-11.527-27.82-11.543h-55.102v-23.613c-0.015625-10.438-4.1641-20.441-11.543-27.82-7.3789-7.3789-17.383-11.527-27.82-11.543h-62.973c-10.438 0.015624-20.441 4.1641-27.82 11.543s-11.527 17.383-11.543 27.82v23.617l-55.102-0.003906c-10.438 0.015625-20.441 4.1641-27.82 11.543-7.3789 7.3789-11.527 17.383-11.543 27.82v157.44c0 6.2656 2.4883 12.273 6.918 16.699 4.4297 4.4297 10.438 6.918 16.699 6.918h183.42c5.3281 39.047 19.621 76.328 41.758 108.93 22.141 32.602 51.52 59.637 85.848 78.992 2.3945 1.3438 5.3203 1.3438 7.7148 0 39.41-22.203 72.211-54.48 95.047-93.527 22.836-39.047 34.887-83.461 34.922-128.69v-5.0625c0-2.0898-0.83203-4.0898-2.3047-5.5664-1.4766-1.4766-3.4805-2.3047-5.5664-2.3047zm-354.24-196.8c0-6.2656 2.4883-12.273 6.918-16.699 4.4258-4.4297 10.434-6.918 16.699-6.918h62.977-0.003906c6.2656 0 12.273 2.4883 16.699 6.918 4.4297 4.4258 6.918 10.434 6.918 16.699v23.617l-15.742-0.003906v-23.613c0-2.0898-0.83203-4.0898-2.3086-5.5664-1.4766-1.4766-3.4766-2.3086-5.5664-2.3086h-62.973c-4.3477 0-7.875 3.5273-7.875 7.875v23.617l-15.742-0.003906zm78.719 7.8711v15.742h-47.23v-15.742zm-173.18 55.105c0-6.2656 2.4883-12.273 6.918-16.699 4.4258-4.4297 10.434-6.918 16.699-6.918h251.9c6.2656 0 12.27 2.4883 16.699 6.918 4.4297 4.4258 6.918 10.434 6.918 16.699v7.8711h-299.14zm188.93 141.7v5.0625c0 6.2188 0.26953 12.406 0.72266 18.555h-181.78c-4.3477 0-7.8711-3.5273-7.8711-7.875v-133.82h299.14v74.086c-28.941 23.453-65.086 36.211-102.34 36.125-4.3477 0-7.8711 3.5234-7.8711 7.8711zm133.82 211.34c-35.547-20.906-65.094-50.637-85.781-86.312-20.688-35.672-31.812-76.086-32.301-117.32 44.441-1.8359 86.578-20.277 118.08-51.68 31.5 31.402 73.637 49.844 118.08 51.68-0.48437 41.234-11.613 81.648-32.297 117.32-20.688 35.676-50.234 65.406-85.781 86.312z"/>
  <path d="m494.07 443.58c-10.426-10.426-25.621-14.496-39.863-10.68-14.242 3.8125-25.367 14.938-29.184 29.18-3.8164 14.242 0.25781 29.438 10.684 39.863l61.062 61.062c3.0742 3.0742 8.0586 3.0742 11.129 0l61.062-61.062h0.003906c10.426-10.426 14.496-25.621 10.68-39.863-3.8164-14.242-14.941-25.367-29.18-29.18-14.242-3.8164-29.438 0.25391-39.863 10.68l-8.2656 8.2656zm27.664 11.133h-0.003906c4.7695-4.8789 11.289-7.6445 18.113-7.6836 6.8203-0.039063 13.371 2.6523 18.195 7.4766 4.8242 4.8242 7.5156 11.375 7.4766 18.195-0.039063 6.8203-2.8047 13.344-7.6836 18.109l-55.496 55.5-55.5-55.5c-4.875-4.7656-7.6445-11.289-7.6797-18.109-0.039062-6.8203 2.6523-13.371 7.4766-18.195 4.8203-4.8242 11.375-7.5156 18.195-7.4766 6.8203 0.039062 13.344 2.8047 18.109 7.6836l13.832 13.832v-0.003907c3.0742 3.0742 8.0586 3.0742 11.129 0z"/>
 </g>
</svg>