<?xml version="1.0" encoding="UTF-8"?>
<!-- The Best Svg Icon site in the world: iconSvg.co, Visit us! https://iconsvg.co -->
<svg fill="#000000" width="800px" height="800px" version="1.1" viewBox="144 144 512 512" xmlns="http://www.w3.org/2000/svg">
 <g>
  <path d="m540.66 553.5c-1.0508-1.8398-2.7969-3.1758-4.8477-3.7109-2.0469-0.53516-4.2266-0.22266-6.0391 0.86719l-31.25 18.75-80.461-214.54c6.6055-4.6016 11.188-11.57 12.793-19.461 1.6094-7.8867 0.11719-16.094-4.1602-22.914-4.2812-6.8203-11.02-11.734-18.82-13.719v-8.9922h-15.746v8.9922c-7.7266 1.9531-14.414 6.7852-18.703 13.504-4.2852 6.7188-5.8477 14.824-4.3633 22.652 1.4805 7.832 5.8984 14.805 12.348 19.488l-45.801 114.51-39.07-65.117c-1.3125-2.1836-3.6016-3.5977-6.1406-3.793-2.5391-0.19531-5.0195 0.85156-6.6484 2.8086l-34.832 41.793-17.727-11.809h-0.003906c-1.9102-1.2734-4.2812-1.6484-6.4922-1.0312-2.207 0.61719-4.0391 2.1719-5.0078 4.25l-55.105 118.08 14.266 6.6602 51.23-109.77 15.988 10.66v-0.003906c3.3477 2.2305 7.8398 1.5781 10.414-1.5117l32.273-38.715 41.531 69.219h0.003906c1.5195 2.5781 4.3828 4.0586 7.3672 3.8086 2.9805-0.23438 5.5703-2.1406 6.6836-4.918l47.789-119.5v14.215h15.742l0.003906-11.688 79.215 211.25c0.82031 2.1914 2.5742 3.9023 4.7812 4.6719 2.2109 0.76953 4.6445 0.51953 6.6484-0.6875l32.465-19.477 27.496 48.156c1.4102 2.4375 4.0156 3.9414 6.8359 3.9336 0.94141 0 1.875-0.16797 2.7617-0.49609l62.977-23.617-5.5117-14.754-56.68 21.254zm-140.66-208.61c-4.1758 0-8.1797-1.6602-11.133-4.6133-2.9531-2.9492-4.6133-6.957-4.6133-11.133 0-4.1719 1.6602-8.1797 4.6133-11.133 2.9531-2.9492 6.957-4.6094 11.133-4.6094s8.1797 1.6602 11.133 4.6094c2.9492 2.9531 4.6094 6.9609 4.6094 11.133 0 4.1758-1.6602 8.1836-4.6094 11.133-2.9531 2.9531-6.957 4.6133-11.133 4.6133z"/>
  <path d="m518.08 400c3 0.015625 5.7461-1.6719 7.0859-4.3555l39.359-78.719c1.4688-2.9258 0.97266-6.4531-1.2461-8.8594-2.2148-2.4102-5.6914-3.1953-8.7266-1.9727l-36.473 14.578-36.434-14.578h0.003907c-3.0391-1.2227-6.5117-0.4375-8.7305 1.9727-2.2148 2.4062-2.7109 5.9336-1.2461 8.8594l39.359 78.719h0.003906c1.332 2.668 4.0586 4.3555 7.043 4.3555zm-2.9297-63.535h0.003906c1.8789 0.73828 3.9727 0.73828 5.8555 0l20.129-8.0625-23.059 46.121-23.059-46.121z"/>
  <path d="m245.49 352.21 36.43-14.578 36.434 14.578c3.0391 1.2461 6.5352 0.47266 8.7656-1.9414 2.2305-2.4102 2.7266-5.957 1.2461-8.8906l-39.359-78.719c-1.4805-2.4844-4.1562-4.0039-7.0469-4.0039s-5.5664 1.5195-7.0469 4.0039l-39.359 78.719c-1.4648 2.9258-0.96875 6.4531 1.2461 8.8594 2.2188 2.4102 5.6914 3.1953 8.7305 1.9727zm36.43-68.43 23.059 46.16-20.129-8.0625c-1.8828-0.74219-3.9766-0.74219-5.8594 0l-20.129 8.0625z"/>
  <path d="m392.12 163.84h15.742v31.488h-15.742z"/>
  <path d="m392.12 226.81h15.742v31.488h-15.742z"/>
  <path d="m392.12 415.74h15.742v31.488h-15.742z"/>
  <path d="m392.12 478.72h15.742v31.488h-15.742z"/>
  <path d="m392.12 541.7h15.742v31.488h-15.742z"/>
  <path d="m392.12 604.67h15.742v31.488h-15.742z"/>
 </g>
</svg>