<?xml version="1.0" encoding="UTF-8"?>
<!-- The Best Svg Icon site in the world: iconSvg.co, Visit us! https://iconsvg.co -->
<svg fill="#000000" width="800px" height="800px" version="1.1" viewBox="144 144 512 512" xmlns="http://www.w3.org/2000/svg">
 <path d="m626.46 524.18-27.488-83.809c-0.66406-2.0234-2.5547-3.3945-4.6836-3.3945h-42.871l-26.375-80.414c-0.66406-2.0234-2.5547-3.3945-4.6836-3.3945h-42.871l-26.375-80.418c-0.66406-2.0234-2.5547-3.3945-4.6836-3.3945h-92.875c-2.1328 0-4.0195 1.3672-4.6836 3.3945l-26.375 80.418h-42.871c-2.1328 0-4.0195 1.3672-4.6836 3.3945l-26.375 80.414h-42.871c-2.1328 0-4.0195 1.3672-4.6836 3.3945l-27.484 83.809c-0.49219 1.5-0.23828 3.1484 0.69141 4.4297 0.92578 1.2812 2.4141 2.0352 3.9883 2.0352h443.58c1.582 0 3.0625-0.75391 3.9883-2.0352 0.92578-1.2852 1.1836-2.9258 0.6875-4.4297zm-85.414-87.203h-134.25l24.254-73.949h85.742zm-67.125 72.922-20.688-63.066h41.367zm-73.926-83.809-20.688-63.062h41.367zm-42.871-146.87h85.738l24.254 73.953h-134.25zm-73.93 83.809h85.742l24.254 73.949h-134.25zm42.871 146.87-20.688-63.066h41.367zm-141.05 10.887 24.254-73.953h85.742l24.254 73.953zm147.85 0 24.254-73.953h85.746l24.254 73.953zm147.86 0 24.254-73.953h85.742l24.254 73.953z"/>
</svg>