<?xml version="1.0" encoding="UTF-8"?>
<!-- The Best Svg Icon site in the world: iconSvg.co, Visit us! https://iconsvg.co -->
<svg fill="#000000" width="800px" height="800px" version="1.1" viewBox="144 144 512 512" xmlns="http://www.w3.org/2000/svg">
 <g>
  <path d="m237.84 482.66c-20.879 0-40.902 8.293-55.664 23.055-14.762 14.762-23.059 34.785-23.059 55.664s8.2969 40.902 23.059 55.664c14.762 14.762 34.785 23.055 55.664 23.055 20.875 0 40.898-8.293 55.664-23.055 14.762-14.762 23.055-34.785 23.055-55.664s-8.293-40.902-23.055-55.664c-14.766-14.762-34.789-23.055-55.664-23.055zm0 142.25c-16.828 0-32.969-6.6836-44.867-18.582-11.898-11.902-18.582-28.039-18.582-44.867s6.6836-32.965 18.582-44.863c11.898-11.898 28.039-18.586 44.867-18.586 16.828 0 32.965 6.6875 44.863 18.586 11.898 11.898 18.586 28.035 18.586 44.863-0.023437 16.82-6.7148 32.949-18.609 44.844s-28.02 18.586-44.84 18.605z"/>
  <path d="m264.13 524.54c-3.4805-2.3477-8.1914-1.5508-10.707 1.8086l-43.691 61.402c-2.3477 3.4805-1.5508 8.1914 1.8125 10.707 1.3164 0.91797 2.8828 1.4141 4.4883 1.418 2.4336-0.007813 4.7305-1.1406 6.2188-3.0703l43.926-61.562c2.2969-3.5391 1.3945-8.2617-2.0469-10.703z"/>
  <path d="m265.54 561.53c-4.9297-0.019531-9.668 1.9219-13.168 5.3945-3.5 3.4766-5.4727 8.1992-5.4883 13.133-0.011719 4.9297 1.9336 9.6641 5.4141 13.16s8.207 5.4609 13.137 5.4688c4.9336 0.007812 9.6641-1.9453 13.156-5.4297 3.4883-3.4883 5.4492-8.2148 5.4492-13.148 0-4.9141-1.9453-9.625-5.4141-13.109-3.4648-3.4805-8.1719-5.4453-13.086-5.4688zm0 23.617c-1.9102 0-3.6328-1.1523-4.3633-2.9141-0.73047-1.7656-0.32422-3.7969 1.0234-5.1484 1.3516-1.3516 3.3828-1.7539 5.1484-1.0234 1.7656 0.73047 2.9141 2.4531 2.9141 4.3633-0.16406 2.4844-2.2305 4.4141-4.7227 4.4062z"/>
  <path d="m228.7 542.88c0-4.9258-1.957-9.6523-5.4414-13.137s-8.2109-5.4414-13.137-5.4414-9.6523 1.957-13.137 5.4414-5.4414 8.2109-5.4414 13.137c0 4.9297 1.957 9.6523 5.4414 13.137s8.2109 5.4414 13.137 5.4414 9.6523-1.957 13.137-5.4414 5.4414-8.207 5.4414-13.137zm-23.617 0c0-1.9102 1.1523-3.6328 2.918-4.3633s3.7969-0.32812 5.1445 1.0234c1.3516 1.3516 1.7578 3.3828 1.0273 5.1484-0.73438 1.7656-2.4531 2.9141-4.3672 2.9141-2.4844-0.16406-4.4102-2.2305-4.4062-4.7227z"/>
  <path d="m579.64 229.49c-3.0391-2.9023-7.8203-2.9023-10.863 0l-138.55 141.7c-2 2.2656-2.5234 5.4766-1.3477 8.2617 1.1758 2.7852 3.8398 4.6523 6.8594 4.8047h0.47266l197.82-12.832c4.0664-0.36719 7.1797-3.7852 7.1641-7.8711-3.1445-50.785-25.09-98.578-61.562-134.06zm-124.54 138.15 119.18-121.7c28.688 30.289 46.59 69.191 50.934 110.68z"/>
  <path d="m562.16 405.51-193.65 12.598-115.33-156.18c-1.2305-1.6055-3.0352-2.6797-5.0352-2.9883-2.0312-0.37891-4.125 0.13672-5.7461 1.4141-34.578 25.602-60.289 61.371-73.543 102.3-13.254 40.93-13.387 84.98-0.37891 125.99 1.3828 3.9766 5.6484 6.1602 9.6836 4.9609 3.9766-1.3828 6.1602-5.6484 4.9609-9.6836-5.9414-18.738-8.9688-38.281-8.9766-57.938-0.125-28.566 6.2266-56.789 18.578-82.543 12.355-25.758 30.387-48.379 52.742-66.16l113.2 153.35c1.582 2.0664 4.0898 3.2148 6.6914 3.0703l189.95-12.359v4.7227h-0.003906c0 38.75-11.809 76.578-33.848 108.45-22.043 31.867-53.27 56.266-89.527 69.941-36.254 13.676-75.816 15.977-113.41 6.6016-4.1406-0.94531-8.2852 1.5625-9.3672 5.668-0.90625 4.0898 1.5508 8.1719 5.5898 9.2891 16.383 4.0312 33.191 6.0664 50.066 6.0625 54.617-0.0625 106.98-21.789 145.6-60.41 38.621-38.621 60.344-90.984 60.406-145.6 0-4.4883 0-8.9727-0.47266-13.383-0.375-4.1914-3.9805-7.3477-8.1836-7.1641z"/>
  <path d="m373.23 370.16c1.3477 1.8164 3.4141 2.9609 5.668 3.1484h0.55078c2.0664-0.007812 4.043-0.82812 5.5117-2.2812l138.55-141.7v-0.003907c2.8984-3.0391 2.8984-7.8203 0-10.863-34.977-34.266-81.012-54.957-129.86-58.359-48.844-3.4062-97.305 10.699-136.69 39.781-1.7188 1.2578-2.8516 3.1523-3.1484 5.2578-0.29688 2.1055 0.26953 4.2422 1.5742 5.9219zm6.2188-195.07c47.148-0.11328 92.637 17.41 127.53 49.121l-126.74 129.57-107.84-145.95c31.559-21.484 68.883-32.898 107.06-32.75z"/>
 </g>
</svg>