<?xml version="1.0" encoding="UTF-8"?>
<!-- The Best Svg Icon site in the world: iconSvg.co, Visit us! https://iconsvg.co -->
<svg fill="#000000" width="800px" height="800px" version="1.1" viewBox="144 144 512 512" xmlns="http://www.w3.org/2000/svg">
 <path d="m588.93 368.51c8.3516 0 16.363-3.3203 22.266-9.2227 5.9062-5.9062 9.2227-13.914 9.2227-22.266v-37.156c0.015626-6.0234-1.6953-11.926-4.9336-17.004s-7.8633-9.1211-13.328-11.652l-182.32-84.07c-12.582-5.8242-27.09-5.8242-39.676 0l-182.32 84.07c-5.4648 2.5312-10.09 6.5742-13.328 11.652-3.2344 5.0781-4.9492 10.98-4.9336 17.004v37.156c0 8.3516 3.3164 16.359 9.2227 22.266 5.9062 5.9023 13.914 9.2227 22.266 9.2227h15.742v157.44h-15.742c-8.3516 0-16.359 3.3203-22.266 9.2227-5.9062 5.9062-9.2227 13.914-9.2227 22.266v31.488c0 8.3516 3.3164 16.363 9.2227 22.266 5.9062 5.9062 13.914 9.2227 22.266 9.2227h377.86c8.3516 0 16.363-3.3164 22.266-9.2227 5.9062-5.9023 9.2227-13.914 9.2227-22.266v-31.488c0-8.3516-3.3164-16.359-9.2227-22.266-5.9023-5.9023-13.914-9.2227-22.266-9.2227h-15.742v-157.44zm-377.86-68.645 182.32-84.23c4.1953-1.9414 9.0312-1.9414 13.223 0l182.32 84.23v37.156h-377.86zm236.16 226.08v-157.44h31.488v157.44zm-125.95 0v-157.44h31.488v157.44zm62.977-157.44h31.488v157.44h-31.488zm-125.95 0.003907h31.488v157.44h-31.488zm330.62 220.41h-377.86v-31.488h377.86zm-47.23-62.977h-31.488v-157.44h31.488z"/>
</svg>