<?xml version="1.0" encoding="UTF-8"?>
<!-- The Best Svg Icon site in the world: iconSvg.co, Visit us! https://iconsvg.co -->
<svg fill="#000000" width="800px" height="800px" version="1.1" viewBox="144 144 512 512" xmlns="http://www.w3.org/2000/svg">
 <g>
  <path d="m518.41 409.46c-20.848-0.003906-40.844 8.2773-55.586 23.016s-23.023 34.734-23.027 55.578c0 20.848 8.2773 40.844 23.02 55.586 14.738 14.742 34.734 23.023 55.578 23.023 20.848 0 40.844-8.2773 55.586-23.02 14.738-14.742 23.02-34.734 23.02-55.582-0.03125-20.836-8.3203-40.809-23.051-55.543-14.73-14.734-34.703-23.023-55.539-23.059zm0 148.16c-18.453 0.011719-36.156-7.3086-49.211-20.352-13.055-13.043-20.391-30.738-20.398-49.195-0.003907-18.453 7.3203-36.152 20.367-49.203s30.742-20.387 49.195-20.387c18.453-0.003906 36.152 7.3281 49.199 20.379 13.051 13.047 20.379 30.746 20.375 49.199-0.019531 18.438-7.3516 36.113-20.383 49.152-13.035 13.039-30.707 20.379-49.145 20.406z"/>
  <path d="m234.43 438.38c-10.523-0.011719-20.621 4.1562-28.07 11.59-7.4453 7.4336-11.637 17.523-11.645 28.047-0.007813 10.523 4.168 20.617 11.605 28.062 7.4375 7.4453 17.527 11.629 28.051 11.629 10.523 0.003906 20.617-4.1758 28.059-11.617 7.4414-7.4414 11.617-17.531 11.617-28.055-0.015625-10.508-4.1914-20.582-11.617-28.012-7.4258-7.4336-17.492-11.621-28-11.645zm0 70.297c-8.1289 0.003906-15.922-3.2227-21.672-8.9688s-8.9766-13.543-8.9805-21.668c0-8.1289 3.2305-15.926 8.9766-21.672 5.7461-5.7461 13.543-8.9766 21.668-8.9766 8.1289 0.003906 15.926 3.2305 21.672 8.9805s8.9727 13.543 8.9688 21.672c-0.011719 8.1211-3.2461 15.902-8.9883 21.645-5.7422 5.7383-13.523 8.9688-21.645 8.9766z"/>
  <path d="m304.72 528.11c-10.523 0-20.609 4.1797-28.051 11.621-7.4375 7.4375-11.617 17.527-11.617 28.047 0.003907 10.52 4.1836 20.609 11.621 28.047 7.4414 7.4414 17.531 11.617 28.051 11.617 10.523-0.003906 20.609-4.1836 28.047-11.625s11.617-17.531 11.613-28.051c-0.011718-10.516-4.1953-20.598-11.633-28.031-7.4375-7.4336-17.516-11.613-28.031-11.625zm0 70.289c-8.125 0-15.918-3.2305-21.66-8.9727-5.7461-5.7461-8.9727-13.535-8.9727-21.66s3.2266-15.918 8.9727-21.66c5.7422-5.7461 13.535-8.9727 21.66-8.9727 8.1211 0 15.914 3.2266 21.66 8.9727 5.7422 5.7422 8.9688 13.535 8.9688 21.66-0.007812 8.1211-3.2383 15.906-8.9805 21.648-5.7422 5.7422-13.527 8.9727-21.648 8.9844z"/>
  <path d="m325.48 397.67c-7.4531 0-14.602 2.9609-19.871 8.2305-5.2734 5.2695-8.2344 12.418-8.2344 19.871s2.9609 14.602 8.2344 19.871c5.2695 5.2695 12.418 8.2305 19.871 8.2305s14.602-2.9609 19.871-8.2305c5.2695-5.2695 8.2305-12.418 8.2305-19.871-0.007812-7.4492-2.9727-14.594-8.2422-19.859-5.2656-5.2695-12.41-8.2344-19.859-8.2422zm0 47.184v-0.003906c-5.0625 0.003906-9.9141-2.0039-13.496-5.582-3.5781-3.5742-5.5938-8.4297-5.5938-13.488-0.003906-5.0625 2.0078-9.918 5.5859-13.496 3.5781-3.5781 8.4297-5.5898 13.492-5.5898 5.0586-0.003906 9.9141 2.0078 13.492 5.5859 3.5781 3.5781 5.5898 8.4297 5.5898 13.492-0.007812 5.0586-2.0156 9.9062-5.5898 13.48-3.5781 3.5781-8.4258 5.5898-13.48 5.5977z"/>
  <path d="m605.7 373.12c-10.273-93.035-94.512-160.91-201.23-162.79v-13.254c0-2.4922-2.0234-4.5156-4.5156-4.5156-2.4961 0-4.5195 2.0234-4.5195 4.5156v13.254c-106.37 1.8711-190.63 69.512-201.17 162.23v0.13672 0.48047 0.41406c0 0.13672 0.058593 0.28516 0.089843 0.43359 0.023438 0.14844 0.0625 0.29688 0.10547 0.44141 0.042969 0.12109 0.089844 0.24219 0.14844 0.35547 0.058593 0.16016 0.12891 0.31641 0.21484 0.46094l0.050781 0.11719c0 0.078125 0.10938 0.13672 0.15625 0.20703 0.050782 0.070313 0.1875 0.26562 0.29688 0.39453 0.10937 0.12891 0.19531 0.21484 0.30469 0.31641l0.31641 0.28516c0.12109 0.097656 0.25 0.18359 0.38281 0.26562l0.34375 0.20703 0.44141 0.1875c0.12109 0.050781 0.24219 0.09375 0.36719 0.125 0.16797 0.050781 0.34375 0.089844 0.51953 0.12109h0.81641c0.15625 0.007813 0.30859 0.007813 0.46484 0l0.33594-0.070313h-0.003906c0.18359-0.027343 0.35938-0.070312 0.53125-0.12891 0.10938-0.03125 0.21484-0.074218 0.31641-0.12891 0.16406-0.0625 0.32812-0.13672 0.48047-0.22266l0.12891-0.058594c41.969-25.328 88.559-22.516 118.68 7.1641l0.070312 0.058594v-0.003906c0.14844 0.14062 0.30469 0.26953 0.47266 0.38672l0.21484 0.15625c0.17578 0.10547 0.35547 0.20312 0.54297 0.28516l0.20703 0.097656c0.24609 0.10156 0.50391 0.17578 0.76562 0.22656h0.050782c0.27344 0.058594 0.55469 0.089844 0.83594 0.089844 0.15625 0.007812 0.31641 0.007812 0.47266 0h0.16797c0.16406-0.023438 0.32812-0.058594 0.49219-0.097657 0.12891 0 0.26562-0.070312 0.39453-0.11719 0.12891-0.050782 0.27734-0.11719 0.41406-0.17578l0.39453-0.21484-0.003906-0.003907c0.12109-0.070312 0.23438-0.14844 0.34375-0.23828 0.12891-0.097656 0.25391-0.19531 0.375-0.30469l0.15625-0.12891c17.348-17.613 42.422-28.035 69.312-28.969v168.52c0 12.113-8.4609 21.973-18.863 21.973-10.398 0-18.891-9.8789-18.891-21.992 0.054688-1.2305-0.39453-2.4336-1.2461-3.3281-0.85156-0.89062-2.0312-1.3984-3.2656-1.3984s-2.418 0.50781-3.2695 1.3984c-0.85156 0.89453-1.3008 2.0977-1.2422 3.3281 0 17.094 12.516 30.996 27.898 30.996 15.379 0 27.898-13.902 27.898-30.996v-168.48c26.617 1.1797 51.66 11.59 69.305 28.969h-0.007813c0.042969 0.046875 0.089844 0.085937 0.14063 0.12109 0.11719 0.10938 0.24609 0.20703 0.375 0.30469 0.12891 0.097656 0.12891 0.10938 0.19531 0.14844v-0.003907c0.046875 0.035157 0.09375 0.066407 0.14844 0.089844l0.39453 0.19531 0.23438 0.12891 0.17578 0.050781c0.12891 0 0.25391 0.078125 0.39453 0.11719 0.085938 0.027344 0.17578 0.050782 0.26562 0.070313 0.070313 0.003906 0.14453 0.003906 0.21484 0h0.88672c0.19141-0.003906 0.38281-0.027344 0.57031-0.058594l0.21484-0.070312h0.003906c0.19531-0.042969 0.39062-0.10156 0.57812-0.17578h0.16797l0.23438-0.12891c0.16406-0.074219 0.32031-0.16016 0.47266-0.25781h0.078125c0.070313 0 0.12891-0.10938 0.19531-0.15625 0.070312-0.050781 0.27734-0.21484 0.41406-0.34375l0.097657-0.078125c35.711-36.242 84.289-27.445 117.84-7.1055 0.12891 0.070313 0.24609 0.10938 0.375 0.16797h0.003906c0.78906 0.63672 1.7773 0.98438 2.793 0.98438 0.16797 0.007812 0.33594 0.007812 0.50391 0 2.4727-0.27734 4.25-2.5078 3.9727-4.9805zm-132.84-1.9688c-19.758-16.039-45.875-25.121-73.121-25.191h-0.31641c-27.219 0-53.059 9.0312-72.434 25.074-0.40234-27.141 4.5938-106.77 72.699-150.71 68.113 43.965 73.449 123.79 73.172 150.86zm-268.35-6.4961c13.777-80.434 87.035-139.11 180.23-144.88-61.637 46.848-67.031 122.77-66.754 150.76-30.898-24.184-73.645-26.488-113.48-5.8438zm277.37 5.6992c0.11719-28.133-5.6875-103.88-67.297-150.62 93.715 5.5781 167.33 64.512 180.89 145.37-40.699-21.668-82.785-19.648-113.59 5.2852z"/>
  <path d="m518.41 478.36c-3.9961 0.003907-7.8242-1.582-10.652-4.4023-2.8242-2.8242-4.4141-6.6562-4.4141-10.648s1.5859-7.8242 4.4102-10.648c2.8242-2.8242 6.6562-4.4102 10.648-4.4102 3.9961 0 7.8242 1.5898 10.648 4.4141 2.8203 2.8242 4.4062 6.6562 4.4023 10.652 0 2.4922 2.0234 4.5156 4.5195 4.5156 2.4922 0 4.5156-2.0234 4.5156-4.5156-0.015626-5.5977-1.9766-11.012-5.5469-15.32-3.5703-4.3086-8.5312-7.2422-14.023-8.2969v-6.6133c0.054687-1.2305-0.39453-2.4336-1.2461-3.3281-0.85156-0.89453-2.0312-1.3984-3.2656-1.3984s-2.418 0.50391-3.2695 1.3984-1.3008 2.0977-1.2422 3.3281v6.6133c-7.9141 1.5195-14.539 6.8984-17.66 14.328-3.1172 7.4258-2.3125 15.922 2.1445 22.637 4.457 6.7109 11.973 10.75 20.031 10.758 5.3672 0 10.516 2.1328 14.312 5.9297 3.7969 3.7969 5.9297 8.9453 5.9297 14.312 0 5.3672-2.1328 10.516-5.9297 14.312-3.7969 3.7969-8.9453 5.9297-14.312 5.9297-5.3672 0-10.516-2.1328-14.312-5.9297-3.7969-3.7969-5.9297-8.9453-5.9297-14.312 0.058594-1.2344-0.39062-2.4375-1.2422-3.3281-0.85547-0.89453-2.0352-1.3984-3.2695-1.3984s-2.4141 0.50391-3.2656 1.3984c-0.85156 0.89062-1.3047 2.0938-1.2461 3.3281 0.007812 6.9766 2.5078 13.723 7.043 19.023 4.5352 5.3008 10.812 8.8086 17.707 9.8984v6.5352-0.003906c-0.058594 1.2344 0.39062 2.4375 1.2422 3.3281 0.85156 0.89453 2.0352 1.3984 3.2695 1.3984s2.4141-0.50391 3.2656-1.3984c0.85156-0.89062 1.3008-2.0938 1.2461-3.3281v-6.5352 0.003906c9.8086-1.5195 18.176-7.9062 22.23-16.965 4.0586-9.0586 3.2422-19.559-2.1562-27.883-5.4023-8.3281-14.656-13.348-24.582-13.34z"/>
 </g>
</svg>