<?xml version="1.0" encoding="UTF-8"?>
<!-- The Best Svg Icon site in the world: iconSvg.co, Visit us! https://iconsvg.co -->
<svg fill="#000000" width="800px" height="800px" version="1.1" viewBox="144 144 512 512" xmlns="http://www.w3.org/2000/svg">
 <g>
  <path d="m599.41 267.16h-2.6094v-29.52c0-5.4336-4.4062-9.8398-9.8398-9.8398h-103.47c-12.184-34.359-45.008-59.039-83.492-59.039s-71.309 24.68-83.496 59.039h-103.46c-5.4336 0-9.8398 4.4062-9.8398 9.8398v29.52h-2.6094c-20.266 0-36.754 16.488-36.754 36.754v317.49c0 5.4336 4.4062 9.8398 9.8398 9.8398h452.64c5.4336 0 9.8398-4.4062 9.8398-9.8398l0.003906-317.49c0-20.266-16.488-36.754-36.75-36.754zm-111.39-19.68h89.102v324.72h-167.28v-31.336c10.348-3.9688 17.711-14.008 17.711-25.734v-173.64c38.578-12.66 65.133-50.844 60.465-94.008zm-80.145 98.047v169.6c0 4.3398-3.5312 7.8711-7.8711 7.8711s-7.8711-3.5312-7.8711-7.8711l-0.003906-169.6c5.3242 0.47266 10.418 0.47266 15.746 0zm-7.8711-157.09c35.875 0 67.082 28.078 68.801 65.703 2.125 46.539-41.707 81.855-86.91 69.621-30.305-8.2578-52.422-36.734-50.656-70.254 0.23828-4.3633 0.74219-7.1641 1.3008-10.09 6.4375-31.34 34.242-54.98 67.465-54.98zm-177.12 59.039h89.102c-4.6797 41.645 20.641 80.938 60.465 94.008v173.64c0 11.727 7.3672 21.766 17.711 25.734l0.003906 31.34h-167.28v-324.72zm-39.359 56.434c0-9.4141 7.6562-17.07 17.07-17.07h2.6094v295.2c0 5.4336 4.4062 9.8398 9.8398 9.8398h177.12v19.68h-206.64zm432.96 307.65h-206.64v-19.68h177.12c5.4336 0 9.8398-4.4062 9.8398-9.8398v-295.2h2.6094c9.4102 0 17.07 7.6562 17.07 17.07z"/>
  <path d="m449.2 365.56c0 5.4336 4.4062 9.8398 9.8398 9.8398h49.199c5.4336 0 9.8398-4.4062 9.8398-9.8398s-4.4062-9.8398-9.8398-9.8398h-49.199c-5.4336 0-9.8398 4.4062-9.8398 9.8398z"/>
  <path d="m449.2 395.08c0 5.4336 4.4062 9.8398 9.8398 9.8398h88.559c5.4336 0 9.8398-4.4062 9.8398-9.8398s-4.4062-9.8398-9.8398-9.8398h-88.559c-5.4336 0-9.8398 4.4062-9.8398 9.8398z"/>
  <path d="m547.6 414.76h-88.559c-5.4336 0-9.8398 4.4062-9.8398 9.8398s4.4062 9.8398 9.8398 9.8398h88.559c5.4336 0 9.8398-4.4062 9.8398-9.8398s-4.4062-9.8398-9.8398-9.8398z"/>
  <path d="m547.6 444.28h-88.559c-5.4336 0-9.8398 4.4062-9.8398 9.8398 0 5.4336 4.4062 9.8398 9.8398 9.8398h88.559c5.4336 0 9.8398-4.4062 9.8398-9.8398 0-5.4336-4.4062-9.8398-9.8398-9.8398z"/>
  <path d="m547.6 473.8h-88.559c-5.4336 0-9.8398 4.4062-9.8398 9.8398 0 5.4336 4.4062 9.8398 9.8398 9.8398h88.559c5.4336 0 9.8398-4.4062 9.8398-9.8398 0-5.4297-4.4062-9.8398-9.8398-9.8398z"/>
  <path d="m547.6 503.32h-88.559c-5.4336 0-9.8398 4.4062-9.8398 9.8398s4.4062 9.8398 9.8398 9.8398h88.559c5.4336 0 9.8398-4.4062 9.8398-9.8398s-4.4062-9.8398-9.8398-9.8398z"/>
  <path d="m547.6 532.84h-32.207c-5.4336 0-9.8398 4.4062-9.8398 9.8398 0 5.4336 4.4062 9.8398 9.8398 9.8398h32.207c5.4336 0 9.8398-4.4062 9.8398-9.8398 0-5.4336-4.4062-9.8398-9.8398-9.8398z"/>
  <path d="m252.4 375.4h49.199c5.4336 0 9.8398-4.4062 9.8398-9.8398s-4.4062-9.8398-9.8398-9.8398h-49.199c-5.4336 0-9.8398 4.4062-9.8398 9.8398s4.4062 9.8398 9.8398 9.8398z"/>
  <path d="m252.4 404.92h88.559c5.4336 0 9.8398-4.4062 9.8398-9.8398s-4.4062-9.8398-9.8398-9.8398h-88.559c-5.4336 0-9.8398 4.4062-9.8398 9.8398s4.4062 9.8398 9.8398 9.8398z"/>
  <path d="m252.4 434.44h88.559c5.4336 0 9.8398-4.4062 9.8398-9.8398s-4.4062-9.8398-9.8398-9.8398h-88.559c-5.4336 0-9.8398 4.4062-9.8398 9.8398s4.4062 9.8398 9.8398 9.8398z"/>
  <path d="m252.4 463.96h88.559c5.4336 0 9.8398-4.4062 9.8398-9.8398 0-5.4336-4.4062-9.8398-9.8398-9.8398h-88.559c-5.4336 0-9.8398 4.4062-9.8398 9.8398 0 5.4336 4.4062 9.8398 9.8398 9.8398z"/>
  <path d="m252.4 493.48h88.559c5.4336 0 9.8398-4.4062 9.8398-9.8398s-4.4062-9.8398-9.8398-9.8398h-88.559c-5.4336 0-9.8398 4.4062-9.8398 9.8398s4.4062 9.8398 9.8398 9.8398z"/>
  <path d="m252.4 523h88.559c5.4336 0 9.8398-4.4062 9.8398-9.8398s-4.4062-9.8398-9.8398-9.8398h-88.559c-5.4336 0-9.8398 4.4062-9.8398 9.8398s4.4062 9.8398 9.8398 9.8398z"/>
  <path d="m340.96 532.84h-32.207c-5.4336 0-9.8398 4.4062-9.8398 9.8398 0 5.4336 4.4062 9.8398 9.8398 9.8398h32.207c5.4336 0 9.8398-4.4062 9.8398-9.8398 0-5.4336-4.4023-9.8398-9.8398-9.8398z"/>
  <path d="m379.91 271.99c-1.2266-0.80469-1.9844-1.3828-2.2617-1.7344l-7.5703 15.039c7.9375 5.293 17.965 8.2461 27.133 9.043v12.305h7.2578v-12.199c3.3633-0.14062 6.5742-0.66797 9.6211-1.5781 6-1.7891 10.879-5.2461 13.723-10.938 1.4023-2.8047 2.1055-6.207 2.1055-10.199 0-9.043-3.9609-15.535-13.566-19.402-6.4492-2.5938-11.953-3.7383-13.043-4.0469v-14.305c1.9609 0.28125 3.9102 0.75391 5.8359 1.418 2.9297 1.0156 6.5273 2.5273 9.1484 4.1523 1.0156 0.63281 1.6289 1.0898 1.8398 1.3672l7.5742-14.301c-2.9453-1.6836-6.4141-3.3281-10.414-4.9414-3.9961-1.6133-8.2734-2.6289-12.828-3.0508l0.003906-10.621h-7.2578v10.621c-15.824 1.6523-23.977 11.605-23.977 24.082 0 7.8516 3.1367 13.301 11.148 17.195 5.6367 2.7422 11.688 4.1562 13.988 4.8906v13.988c-6.6797-0.92969-14.602-4.2461-18.461-6.7852zm23.398-5.625c2.4531 0.83984 4.418 1.7695 5.8906 2.7852 1.4727 1.0156 2.207 2.4375 2.207 4.2578 0 3.5078-2.6992 5.3633-8.0977 5.5742zm-10.461-22.242c-1.2266-1.0156-1.8398-2.4023-1.8398-4.1562 0-3.6445 2.4531-5.6797 7.3633-6.1016v12.938c-2.457-0.76953-4.2969-1.6641-5.5234-2.6797z"/>
 </g>
</svg>