<?xml version="1.0" encoding="UTF-8"?>
<!-- The Best Svg Icon site in the world: iconSvg.co, Visit us! https://iconsvg.co -->
<svg fill="#000000" width="800px" height="800px" version="1.1" viewBox="144 144 512 512" xmlns="http://www.w3.org/2000/svg">
 <g>
  <path d="m392.53 491.05c56.684 0 102.8-46.113 102.8-102.8 0-57.902-46.059-146.63-102.8-146.63-56.75 0-102.81 88.727-102.81 146.63 0 56.688 46.121 102.8 102.81 102.8zm-27.57-137.32c-1.4844-1.1953-2.3477-3.0039-2.3477-4.9062 0-13.043 7.457-26.945 23.617-29.82v-6.9688c0-3.4766 2.8203-6.2969 6.2969-6.2969 3.4766 0 6.2969 2.8203 6.2969 6.2969v7.0273c13.48 2.707 23.617 13.891 23.617 27.25 0 3.4766-2.8203 6.2969-6.2969 6.2969s-6.2969-2.8203-6.2969-6.2969c0-8.4297-7.7695-15.285-17.32-15.285-13.305 0-16.414 9.6523-17.121 14.941l44.691 35.957c1.4844 1.1953 2.3477 3.0039 2.3477 4.9062 0 14.902-9.9688 26.984-23.617 29.859v7.0547c0 3.4766-2.8203 6.2969-6.2969 6.2969-3.4766 0-6.2969-2.8203-6.2969-6.2969v-7.0312c-13.48-2.6992-23.617-13.887-23.617-27.246 0-3.4766 2.8203-6.2969 6.2969-6.2969 3.4766 0 6.2969 2.8203 6.2969 6.2969 0 8.4297 7.7695 15.285 17.32 15.285 8.9336 0 15.879-6.3008 17.125-15.07z"/>
  <path d="m495.54 540.63-30.77-13.121 30.77-13.121c2.168-0.92188 3.8438-2.6289 4.7266-4.8203 0.875-2.1875 0.85156-4.5781-0.070313-6.7422-1.8555-4.3633-7.2305-6.5352-11.566-4.6562l-46.32 19.754-46.059-19.625-0.55469-0.30859-0.23047-0.007813c-0.73438-0.24609-1.4375-0.33203-1.9766-0.37891l-0.96094-0.14062c-0.43359 0-0.78125 0.097656-0.79688 0.11719-0.71484 0.070313-1.4727 0.16797-2.2539 0.44141l-46.727 19.902-46.316-19.75c-4.3633-1.8828-9.7148 0.29297-11.574 4.6445-0.92188 2.168-0.94531 4.5586-0.070313 6.7461 0.875 2.1914 2.5547 3.8984 4.7188 4.8203l30.77 13.121-30.77 13.121c-2.168 0.92188-3.8438 2.6289-4.7266 4.8203-0.875 2.1875-0.85156 4.5781 0.070312 6.7461 1.8555 4.3477 7.2266 6.5 11.566 4.6484l46.324-19.758 46.68 19.852c2 0.75391 3.7852 0.84766 5.9609 0.089844l46.918-19.938 46.316 19.754c1.0977 0.46875 2.2617 0.71094 3.4609 0.71094 3.543 0 6.7266-2.1055 8.1133-5.3555 0.92188-2.168 0.94531-4.5586 0.070313-6.7461s-2.5547-3.8984-4.7227-4.8203zm-75.699-13.121-27.312 11.648-27.312-11.648 27.312-11.648z"/>
 </g>
</svg>