<?xml version="1.0" encoding="UTF-8"?>
<!-- The Best Svg Icon site in the world: iconSvg.co, Visit us! https://iconsvg.co -->
<svg fill="#000000" width="800px" height="800px" version="1.1" viewBox="144 144 512 512" xmlns="http://www.w3.org/2000/svg">
 <g>
  <path d="m580 255.97h-43.598c-7.3281-0.007812-14.355-2.9219-19.535-8.1016-5.1836-5.1836-8.0977-12.207-8.1055-19.535v-43.598c0.011719-1.8477 1.1328-3.5039 2.8398-4.2031 1.7109-0.70312 3.6719-0.30859 4.9766 0.99609l66.629 66.621c1.3086 1.3125 1.6992 3.2812 0.99219 4.9922-0.71094 1.7109-2.3789 2.8281-4.2305 2.8281zm-62.078-60.164v32.52c0.003906 4.8984 1.9531 9.5938 5.418 13.059 3.4648 3.4648 8.1641 5.4102 13.062 5.418h32.52z"/>
  <path d="m330.38 263.22c-3.6992 0.35156-7.2344 1.6953-10.234 3.8906-2.4844 1.8672-3.9141 4.8242-3.832 7.9375-0.12891 2.8672 1.2188 5.6016 3.5703 7.2422 3.2109 2.0703 6.7656 3.5469 10.496 4.3711z"/>
  <path d="m351.91 309.04c0.050781-2.6875-1.4062-5.1797-3.7773-6.4492-3.543-1.9258-7.3242-3.3789-11.25-4.3125v22.902c10.02-0.70703 15.027-4.75 15.027-12.141z"/>
  <path d="m333.66 359.72c17.91 0.007813 35.086-7.1016 47.754-19.762 12.668-12.66 19.785-29.832 19.789-47.742 0.003907-17.91-7.1094-35.086-19.77-47.75-12.664-12.664-29.84-19.777-47.746-19.777-17.91 0-35.086 7.1172-47.746 19.781-12.66 12.668-19.773 29.844-19.77 47.75 0.027344 17.895 7.1484 35.043 19.797 47.695 12.652 12.652 29.801 19.773 47.691 19.805zm-15.48-67.195c-3.2148-1.4297-6.0391-3.6016-8.2422-6.3438-2.2812-2.9727-3.4492-6.6445-3.3047-10.387-0.027344-3.5898 0.90625-7.125 2.7109-10.227 1.957-3.2734 4.7539-5.9609 8.0977-7.7891 3.9922-2.1797 8.4102-3.4531 12.949-3.7305v-7.4531c-0.015625-0.86328 0.30859-1.6953 0.90234-2.3203 0.58984-0.63281 1.4258-0.98438 2.2891-0.96094 0.87891-0.007812 1.7227 0.33984 2.3398 0.95703 0.62109 0.62109 0.96484 1.4648 0.95312 2.3438v7.3555c6.332 0.16016 12.598 1.3477 18.551 3.5117 1.8711 0.54688 3.1094 2.3203 2.9805 4.2656 0 1.1367-0.41406 2.2344-1.168 3.0898-0.76563 0.91016-1.9062 1.418-3.0938 1.375-0.58984-0.035156-1.1641-0.17969-1.6992-0.42578-5.0156-1.7383-10.27-2.707-15.574-2.8711v25.328c4.3477 0.97266 8.6094 2.2969 12.742 3.9609 3.3086 1.3711 6.2227 3.5508 8.4727 6.3398 2.3984 3.1992 3.6055 7.1367 3.4102 11.133 0.035156 3.6367-1.0195 7.2031-3.0352 10.23-2.1641 3.1719-5.1484 5.6953-8.6367 7.2969-4.0625 1.8984-8.4648 2.9688-12.949 3.1484v7.5625-0.003907c0.027344 0.85938-0.30469 1.6914-0.91406 2.293-1.3281 1.1719-3.3125 1.1992-4.668 0.058594-0.625-0.61719-0.95703-1.4727-0.91406-2.3516v-7.5586c-7.4102-0.4375-14.688-2.1328-21.527-5.0117-0.87109-0.36328-1.6133-0.97266-2.1367-1.7539-1.2578-1.7656-1.0977-4.168 0.37891-5.7539 0.79688-0.88281 1.9453-1.375 3.1367-1.3359 0.69922-0.003906 1.3906 0.14453 2.0273 0.42969 5.7188 2.543 11.863 3.9883 18.113 4.2578v-24.508c-4.168-1.0508-8.2461-2.4414-12.191-4.1523z"/>
  <path d="m579.97 246.79h-43.559c-4.8984 0.003906-9.5977-1.9414-13.066-5.3984-3.4688-3.4609-5.4258-8.1562-5.4336-13.059v-43.602c0-1.2148-0.48438-2.3789-1.3438-3.2383s-2.0234-1.3398-3.2383-1.3398h-279.34c-4.9219 0.011719-9.6406 1.9766-13.117 5.4609-3.4766 3.4883-5.4297 8.207-5.4336 13.133v402.54c0.011719 4.918 1.9688 9.6289 5.4453 13.105 3.4766 3.4766 8.1914 5.4336 13.105 5.4453h332.01c4.9141-0.011719 9.6289-1.9688 13.102-5.4453 3.4766-3.4766 5.4375-8.1875 5.4453-13.105v-349.92c0-1.2148-0.48047-2.3789-1.3398-3.2383s-2.0234-1.3438-3.2383-1.3438zm-246.3-31.262c20.336-0.007812 39.844 8.0625 54.227 22.438 14.387 14.375 22.473 33.875 22.477 54.215 0.007812 20.336-8.0664 39.84-22.441 54.223-14.375 14.387-33.875 22.469-54.211 22.477-20.336 0.003907-39.844-8.0703-54.227-22.445-14.383-14.375-22.465-33.875-22.473-54.215 0.027344-20.324 8.1094-39.809 22.477-54.188 14.367-14.375 33.848-22.469 54.172-22.504zm206 346.68h-279.33c-2.5273 0-4.5781-2.0508-4.5781-4.5781 0-2.5312 2.0508-4.582 4.5781-4.582h279.33c2.5273 0 4.5781 2.0508 4.5781 4.582 0 2.5273-2.0508 4.5781-4.5781 4.5781zm0-49.992h-279.33c-2.5273 0-4.5781-2.0508-4.5781-4.5781 0-2.5312 2.0508-4.582 4.5781-4.582h279.33c2.5273 0 4.5781 2.0508 4.5781 4.582 0 2.5273-2.0508 4.5781-4.5781 4.5781zm0-49.992h-279.33c-2.5273 0-4.5781-2.0508-4.5781-4.5781 0-2.5312 2.0508-4.582 4.5781-4.582h279.33c2.5273 0 4.5781 2.0508 4.5781 4.582 0 2.5273-2.0508 4.5781-4.5781 4.5781zm0-49.988-279.33 0.003907c-2.5273 0-4.5781-2.0508-4.5781-4.582 0-2.5273 2.0508-4.5781 4.5781-4.5781h279.33c2.5273 0 4.5781 2.0508 4.5781 4.5781 0 2.5312-2.0508 4.582-4.5781 4.582z"/>
 </g>
</svg>