<?xml version="1.0" encoding="UTF-8"?>
<!-- The Best Svg Icon site in the world: iconSvg.co, Visit us! https://iconsvg.co -->
<svg fill="#000000" width="800px" height="800px" version="1.1" viewBox="144 144 512 512" xmlns="http://www.w3.org/2000/svg">
 <path d="m602.92 598.54h-18.91v-49.543c0-2.2695-1.8359-4.1094-4.1055-4.1133h-28.27v-49.543c0-2.2734-1.8398-4.1133-4.1133-4.1133h-64.738c-2.2695 0-4.1133 1.8398-4.1133 4.1133v49.543h-28.258c-2.2695 0.003907-4.1055 1.8438-4.1055 4.1133v49.543h-31.262v-275.18h77.039v12.203c0 2.2695 1.8398 4.1133 4.1133 4.1133h37.914c2.2656-0.007813 4.1016-1.8477 4.1016-4.1133v-72.254c0-2.2695-1.8359-4.1094-4.1016-4.1133h-37.914c-2.2734 0-4.1133 1.8398-4.1133 4.1133v6.6211l-78.238-75.492-0.050781-0.050781c-0.054688-0.054687-0.11328-0.10156-0.17578-0.14844-0.13672-0.12109-0.28125-0.23438-0.43359-0.33203-0.09375-0.0625-0.19141-0.11719-0.29297-0.16797-0.13672-0.070313-0.26562-0.14844-0.41406-0.20703l-0.33594-0.097656c-0.14453-0.054688-0.29297-0.097656-0.44141-0.12891h-0.35547c-0.12891-0.007813-0.26172-0.007813-0.39453 0h-35.109c-2.2656 0-4.1016 1.8359-4.1016 4.1016v0.050782l-154.16 78.496-0.17578 0.11719c-0.13672 0.074219-0.26953 0.16016-0.39453 0.25391-0.10156 0.070313-0.19922 0.14844-0.28516 0.23828-0.10938 0.082032-0.20703 0.17969-0.29688 0.28516-0.085937 0.097657-0.16797 0.19922-0.24609 0.30469-0.085937 0.097656-0.16016 0.20703-0.22656 0.32422-0.066407 0.11328-0.12891 0.22656-0.1875 0.34375-0.0625 0.11719-0.11328 0.23828-0.15625 0.36328-0.046875 0.125-0.085938 0.25391-0.11719 0.38672-0.039062 0.12109-0.070312 0.24609-0.089843 0.37109-0.007813 0.14844-0.007813 0.29688 0 0.44531-0.003907 0.074219-0.003907 0.14844 0 0.22656v234.09c0 2.2695 1.8438 4.1133 4.1133 4.1133 7.6289 0.003906 14.734 3.8828 18.859 10.301 4.1211 6.418 4.6992 14.496 1.5312 21.434-3.168 6.9414-9.6445 11.797-17.195 12.887-7.5508 1.0898-15.137-1.7344-20.141-7.4961-1.5-1.7266-4.1211-1.9102-5.8477-0.40625-1.7305 1.5-1.9102 4.1211-0.41016 5.8477 6.5977 7.5938 16.5 11.465 26.5 10.363 9.9961-1.1055 18.816-7.0469 23.598-15.898 4.7773-8.8516 4.9102-19.484 0.34766-28.449-4.5586-8.9688-13.23-15.125-23.195-16.477v-186.57h148.19l-0.003906 275.18h-174.67c-2.1914 0.10938-3.9141 1.918-3.9141 4.1094 0 2.1953 1.7227 4 3.9141 4.1094h405.84c2.1914-0.10937 3.9141-1.9141 3.9141-4.1094 0-2.1914-1.7227-4-3.9141-4.1094zm-116.03-99.086h24.156v14.258c-0.054688 1.125 0.35156 2.2227 1.1289 3.0352 0.77734 0.81641 1.8555 1.2773 2.9805 1.2773s2.2031-0.46094 2.9766-1.2773c0.77734-0.8125 1.1875-1.9102 1.1289-3.0352v-14.258h24.156v45.43h-56.527zm-71.832-292.44 70.984 68.488h-70.996zm0 108.13v-31.418h77.039v31.418zm85.266-47.723h29.688v64.027h-29.699v-64.031zm-128.57 8.0781h-135.2l135.18-68.879zm-148.2 39.645v-31.418h148.19v31.418zm156.46 283.39v-396.11l1.8984-0.98438h24.973v397.09zm74.566-45.43h27.453v14.258-0.003906c-0.054688 1.125 0.35547 2.2227 1.1328 3.0391 0.77344 0.8125 1.8516 1.2773 2.9766 1.2773s2.2031-0.46484 2.9805-1.2773c0.77344-0.81641 1.1836-1.9141 1.1289-3.0391v-14.258h20.852v45.43h-56.57zm64.738 45.43v-45.434h24.156v14.258c-0.054688 1.125 0.35547 2.2227 1.1289 3.0391 0.77734 0.8125 1.8555 1.2773 2.9805 1.2773s2.2031-0.46484 2.9805-1.2773c0.77344-0.81641 1.1836-1.9141 1.1289-3.0391v-14.258h24.148v45.43z"/>
</svg>