<?xml version="1.0" encoding="UTF-8"?>
<!-- The Best Svg Icon site in the world: iconSvg.co, Visit us! https://iconsvg.co -->
<svg fill="#000000" width="800px" height="800px" version="1.1" viewBox="144 144 512 512" xmlns="http://www.w3.org/2000/svg">
 <g>
  <path d="m288.4 369.58c0 66.629 40.672 104.81 111.6 104.81 70.926 0 111.6-38.18 111.6-104.81 0-44.195-30.645-97.344-71.406-120.08l-0.003906-0.003906c10.562-3.5352 19.84-10.117 26.668-18.918 6.8242-8.8008 10.895-19.426 11.695-30.531 0.73437-9.6055-2.5273-19.082-9.0156-26.199-5.7422-6.3281-13.875-9.9609-22.418-10.016h-0.17578c-7.8867-0.0625-15.48 3.0156-21.094 8.5586-0.53516 0.54297-1.0547 1.0938-1.5742 1.668-6.4141-6.5117-15.172-10.176-24.309-10.176-9.1406 0-17.898 3.6641-24.309 10.176-0.48828-0.57422-1.0078-1.125-1.5742-1.668h-0.003907c-5.918-5.7305-13.914-8.8125-22.148-8.5391-8.2383 0.26953-16.012 3.875-21.539 9.9883-6.4688 7.1289-9.707 16.609-8.9492 26.207 0.79688 11.109 4.8633 21.734 11.691 30.535 6.8242 8.8008 16.105 15.387 26.668 18.922-40.762 22.727-71.406 75.879-71.406 120.07zm48.75-170.71c-0.42578-5.25 1.3398-10.441 4.8711-14.348 2.7852-3.1211 6.7617-4.918 10.945-4.9453h0.085937c3.7305-0.078125 7.332 1.3594 9.9883 3.9844 2.8359 2.9219 4.3789 6.8555 4.2891 10.926 0 4.3477 3.5273 7.8711 7.875 7.8711s7.8711-3.5234 7.8711-7.8711c0.71484-5.5312 4.0898-10.359 9.0352-12.938 4.9414-2.5781 10.836-2.5781 15.781 0 4.9414 2.5781 8.3164 7.4062 9.0312 12.938 0 4.3477 3.5273 7.8711 7.875 7.8711s7.8711-3.5234 7.8711-7.8711c-0.078125-4.0742 1.4805-8.0117 4.3281-10.926 2.6484-2.6133 6.2344-4.0508 9.9492-3.9844h0.097657c4.1797 0.027344 8.1523 1.8242 10.934 4.9453 3.5352 3.9062 5.2969 9.0977 4.8711 14.348-0.83594 9.0859-4.6055 17.652-10.738 24.402-6.1328 6.7539-14.297 11.328-23.262 13.031 2.4766-4.6172 3.7852-9.7656 3.8203-15.004 0-4.3477-3.5234-7.875-7.8711-7.875s-7.875 3.5273-7.875 7.875c0 6.0469-3.2227 11.633-8.4609 14.656-5.2383 3.0234-11.688 3.0234-16.926 0-5.2344-3.0234-8.4609-8.6094-8.4609-14.656 0-4.3477-3.5234-7.875-7.8711-7.875s-7.875 3.5273-7.875 7.875c0.035156 5.2383 1.3438 10.387 3.8203 15.004-8.9648-1.7031-17.129-6.2773-23.262-13.031-6.1328-6.75-9.9023-15.316-10.738-24.402zm62.852 55.105c49.367 0 95.859 65.133 95.859 115.61 0 57.465-34.039 89.062-95.859 89.062s-95.859-31.637-95.859-89.07c0-50.477 46.492-115.61 95.859-115.61z"/>
  <path d="m400 395.67c-4.1758 0-8.1797-1.6562-11.133-4.6094-2.9531-2.9531-4.6133-6.957-4.6133-11.133 0-4.3477-3.5234-7.8711-7.8711-7.8711-4.3477 0-7.8711 3.5234-7.8711 7.8711 0.023437 6.9609 2.3555 13.715 6.6289 19.211 4.2734 5.4922 10.246 9.418 16.984 11.16v8.9883c0 4.3477 3.5273 7.8711 7.875 7.8711s7.8711-3.5234 7.8711-7.8711v-8.9883c9.9688-2.5664 18.051-9.8516 21.629-19.504 3.582-9.6523 2.207-20.445-3.6758-28.891-5.8828-8.4492-15.531-13.477-25.824-13.465-4.1758 0-8.1797-1.6602-11.133-4.6133-2.9531-2.9531-4.6133-6.957-4.6133-11.133 0-4.1758 1.6602-8.1797 4.6133-11.133 2.9531-2.9531 6.957-4.6094 11.133-4.6094s8.1797 1.6562 11.133 4.6094c2.9492 2.9531 4.6094 6.957 4.6094 11.133 0 4.3477 3.5234 7.875 7.8711 7.875 4.3477 0 7.875-3.5273 7.875-7.875-0.027343-6.9609-2.3594-13.715-6.6328-19.211-4.2734-5.4922-10.246-9.418-16.984-11.156v-8.9922c0-4.3477-3.5234-7.8711-7.8711-7.8711s-7.875 3.5234-7.875 7.8711v8.9922c-9.9688 2.5625-18.047 9.8516-21.629 19.5-3.582 9.6523-2.207 20.445 3.6758 28.895 5.8867 8.4453 15.531 13.477 25.828 13.461 5.625 0 10.82 3 13.633 7.875 2.8125 4.8711 2.8125 10.871 0 15.742s-8.0078 7.8711-13.633 7.8711z"/>
  <path d="m189.76 468.54c3.0742 3.0742 8.0547 3.0742 11.129 0l23.617-23.617v0.003906c2.9844-3.0898 2.9414-8-0.097656-11.035-3.0352-3.0391-7.9453-3.082-11.035-0.097656l-10.176 10.18v-59.719h62.977c4.3477 0 7.8711-3.5234 7.8711-7.8711 0-4.3477-3.5234-7.8711-7.8711-7.8711h-70.852c-4.3477 0-7.8711 3.5234-7.8711 7.8711v67.59l-10.18-10.18c-3.0859-2.9844-7.9961-2.9414-11.035 0.097656-3.0352 3.0352-3.0781 7.9453-0.09375 11.035z"/>
  <path d="m622.72 433.79-10.18 10.18v-67.59c0-2.0898-0.82812-4.0898-2.3047-5.5664-1.4766-1.4766-3.4805-2.3047-5.5664-2.3047h-70.848c-4.3477 0-7.875 3.5234-7.875 7.8711 0 4.3477 3.5273 7.8711 7.875 7.8711h62.977v59.719l-10.18-10.18c-3.0898-2.9844-8-2.9414-11.035 0.097656-3.0352 3.0352-3.0781 7.9453-0.097657 11.035l23.617 23.617v-0.003907c3.0742 3.0742 8.0586 3.0742 11.133 0l23.617-23.617-0.003907 0.003906c2.9844-3.0898 2.9414-8-0.09375-11.035-3.0391-3.0391-7.9492-3.082-11.035-0.097656z"/>
  <path d="m171.71 549.57h78.719c2.0898 0 4.0898-0.82812 5.5664-2.3047 1.4766-1.4766 2.3047-3.4805 2.3047-5.5664v-47.234c0-2.0859-0.82812-4.0898-2.3047-5.5664-1.4766-1.4727-3.4766-2.3047-5.5664-2.3047h-78.719c-4.3477 0-7.875 3.5234-7.875 7.8711v47.234c0 2.0859 0.83203 4.0898 2.3086 5.5664 1.4766 1.4766 3.4766 2.3047 5.5664 2.3047zm7.8711-47.23h62.977v31.488h-62.977z"/>
  <path d="m628.29 486.59h-78.723c-4.3477 0-7.8711 3.5234-7.8711 7.8711v47.234c0 2.0859 0.82813 4.0898 2.3047 5.5664 1.4766 1.4766 3.4805 2.3047 5.5664 2.3047h78.723c2.0859 0 4.0898-0.82812 5.5664-2.3047 1.4727-1.4766 2.3047-3.4805 2.3047-5.5664v-47.234c0-2.0859-0.83203-4.0898-2.3047-5.5664-1.4766-1.4727-3.4805-2.3047-5.5664-2.3047zm-7.8711 47.23-62.98 0.003907v-31.488h62.977z"/>
  <path d="m352.77 581.05v47.234c0 2.0859 0.83203 4.0898 2.3047 5.5664 1.4766 1.4727 3.4805 2.3047 5.5664 2.3047h78.723c2.0859 0 4.0898-0.83203 5.5664-2.3047 1.4766-1.4766 2.3047-3.4805 2.3047-5.5664v-47.234c0-2.0859-0.82812-4.0898-2.3047-5.5664-1.4766-1.4766-3.4805-2.3047-5.5664-2.3047h-78.723c-4.3477 0-7.8711 3.5234-7.8711 7.8711zm15.742 7.8711h62.977v31.488h-62.973z"/>
  <path d="m400 486.59c-4.3477 0-7.875 3.5234-7.875 7.8711v36.102l-10.18-10.18 0.003907 0.003907c-3.0898-2.9844-8-2.9414-11.035 0.09375-3.0391 3.0391-3.082 7.9453-0.097656 11.035l23.617 23.617c3.0742 3.0742 8.0547 3.0742 11.129 0l23.617-23.617c2.9844-3.0898 2.9414-7.9961-0.09375-11.035-3.0391-3.0352-7.9492-3.0781-11.035-0.09375l-10.18 10.176v-36.102c0-2.0859-0.82812-4.0898-2.3047-5.5664-1.4766-1.4727-3.4805-2.3047-5.5664-2.3047z"/>
 </g>
</svg>