<?xml version="1.0" encoding="UTF-8"?>
<!-- The Best Svg Icon site in the world: iconSvg.co, Visit us! https://iconsvg.co -->
<svg fill="#000000" width="800px" height="800px" version="1.1" viewBox="144 144 512 512" xmlns="http://www.w3.org/2000/svg">
 <g>
  <path d="m457.41 262.93c9.2422 0 18.105-3.668 24.637-10.203 6.5352-6.5352 10.207-15.395 10.207-24.637 0-9.2383-3.668-18.102-10.199-24.637-6.5352-6.5352-15.395-10.207-24.637-10.211-9.2422 0-18.105 3.668-24.641 10.199-6.5352 6.5352-10.207 15.395-10.211 24.637 0.011719 9.2383 3.6875 18.094 10.219 24.629s15.387 10.211 24.625 10.223zm0-60.242v0.003906c6.7383 0 13.199 2.6758 17.961 7.4375 4.7617 4.7656 7.4375 11.227 7.4375 17.961 0 6.7383-2.6797 13.195-7.4414 17.961-4.7656 4.7617-11.227 7.4336-17.961 7.4336-6.7383 0-13.199-2.6797-17.961-7.4453s-7.4336-11.227-7.4297-17.961c0.007813-6.7305 2.6875-13.184 7.4492-17.945 4.7617-4.7578 11.215-7.4336 17.945-7.4414z"/>
  <path d="m349.26 229.63c6.3047 0 12.348-2.5039 16.805-6.9609 4.457-4.457 6.9609-10.5 6.9609-16.805 0-6.3008-2.5039-12.344-6.9609-16.801-4.457-4.457-10.5-6.9609-16.805-6.9609-6.3008 0-12.344 2.5039-16.801 6.9609-4.457 4.457-6.9609 10.5-6.9609 16.801 0.007812 6.3008 2.5117 12.34 6.9688 16.797 4.4531 4.4531 10.496 6.9609 16.793 6.9688zm0-38.082c5.793-0.003906 11.016 3.4805 13.234 8.832 2.2227 5.3477 1 11.508-3.0938 15.605-4.0977 4.0977-10.254 5.3242-15.605 3.1094s-8.8398-7.4375-8.8398-13.23c0.003907-3.793 1.5117-7.4297 4.1953-10.113 2.6797-2.6836 6.3164-4.1953 10.109-4.2031z"/>
  <path d="m609.59 395.44c-1.0195-0.72656-2.2852-1.0195-3.5234-0.81641-1.2383 0.20703-2.3398 0.89844-3.0664 1.918-8.7773 12.281-17.809 19.73-26.074 21.785l-0.003906 0.003906c1.4688-1.8672 2.7266-3.8867 3.7578-6.0234 3.9375-8.0195 3.3359-16.395-1.6523-22.957-4.7227-6.2188-12.613-9.5156-19.633-8.207-6.2695 1.1719-11.012 5.7969-13 12.695-2.5391 8.7969 0.31641 18.832 6.5625 25.781h0.003907c-5.4766-0.15234-10.875-1.3516-15.902-3.543-0.33594-0.15234-0.6875-0.26562-1.0508-0.33594-4.8164-11.371-11.27-21.98-19.148-31.488-18.383-22.375-45.027-40.344-75.531-51.02 8.8516-17.805 8.207-38.859-1.7227-56.086-9.9297-17.227-27.824-28.336-47.668-29.598-19.844-1.2578-39.004 7.5-51.031 23.332-12.031 15.832-15.336 36.633-8.8047 55.414-9.6172 2.0469-19.059 4.8555-28.23 8.4023l-7.4102-6.6992-0.16797-0.14844c-16.383-13.461-44.938-17.062-46.148-17.211-1.5352-0.1875-3.0664 0.39062-4.0938 1.543-1.0312 1.1523-1.4297 2.7383-1.0703 4.2422l11.188 47.004c-9.457 8.4609-16.668 17.613-23.617 29.844l-40.137 6.4336v0.007813c-2.3359 0.39453-4.0195 2.4609-3.9375 4.8281l2.0156 59.867h0.003906c0.070312 2.1836 1.6289 4.0273 3.7656 4.4688l25.586 5.0664c6.1602 23.922 20.496 46.188 41.605 64.551 1.1133 0.98438 2.2422 1.8789 3.3359 2.7656l0.98438 0.79688c0.82812 0.67969 2.0859 2.293 1.3477 5.5703-1.7227 7.5977-8.7383 43.543-9.0312 45.066h-0.003906c-0.25391 1.2656 0.023437 2.5781 0.76562 3.6328 0.60156 0.84766 15.203 20.812 60.457 20.84 2.125 0 3.9883-1.418 4.5586-3.4648l10.422-37.52h-0.003906c11.508 3.0273 23.254 5.0508 35.109 6.0508 27.059 2.4102 54.324-0.73438 80.117-9.25l20.477 42.234h0.003907c0.76953 1.5938 2.3711 2.625 4.1406 2.668h0.60938c5.3516 0 41.445-1.082 57.672-29.688 0.69922-1.2266 0.8125-2.6992 0.30859-4.0156l-19.445-50.949c18.074-19.238 28.715-42.262 30.809-66.793v-0.003906c1.1367-13.258-0.23828-26.609-4.043-39.359 3.6055 1.0234 7.3164 1.6484 11.059 1.8711 0.73828 0 1.4648 0.058593 2.1953 0.058593 3.8633 0.039063 7.707-0.58984 11.355-1.8594 8.9844 2.7461 26.203 2.5898 46.012-25.152 1.4922-2.1094 1.0156-5.0273-1.0742-6.5547zm-221.4-138.54c13.238 0 25.934 5.2578 35.297 14.621 9.3633 9.3594 14.621 22.059 14.621 35.297s-5.2578 25.934-14.621 35.297c-9.3633 9.3633-22.059 14.621-35.297 14.621-13.238 0-25.938-5.2578-35.297-14.621-9.3633-9.3633-14.621-22.059-14.621-35.297 0.015624-13.234 5.2773-25.922 14.637-35.281s22.047-14.621 35.281-14.637zm146.48 208.73c-1.9688 23.254-12.449 45.098-30.238 63.172-1.2969 1.3164-1.7109 3.2695-1.0508 5l19.68 51.609c-12.43 19.426-37.5 22.477-45.902 22.945l-20.98-43.297v0.003906c-1.0625-2.1992-3.6211-3.2266-5.9062-2.3711-24.688 9-52.348 12.457-80.086 10.133-12.828-1.082-25.523-3.4219-37.895-6.9844-1.2109-0.35547-2.5117-0.20703-3.6094 0.41016-1.1055 0.61719-1.918 1.6484-2.2539 2.8633l-10.707 38.562c-30.504-0.81641-44.074-11.609-47.93-15.449 1.6055-8.2266 7.0859-36.133 8.5312-42.508 1.9688-8.7891-3.0117-13.676-4.5859-14.977l-0.98438-0.81641c-1.082-0.875-2.0977-1.7031-3.0898-2.5586-20.457-17.801-34.055-39.418-39.359-62.516v0.003906c-0.41406-1.8203-1.8594-3.2266-3.6914-3.5938l-24.836-4.9219-1.7422-51.957 38.277-6.1484v0.003907c1.4453-0.23047 2.6992-1.1133 3.4062-2.3906 7.2734-13.332 14.445-22.348 24.738-31.145 1.3477-1.1484 1.9375-2.9609 1.5234-4.6836l-10.195-42.844c8.9258 1.7891 24.602 5.9023 34.391 13.914l9.5039 8.5898h0.003907c1.3398 1.2031 3.25 1.5391 4.918 0.86719 10.125-4.1133 20.617-7.2656 31.332-9.4062 6.0547 11.094 15.469 19.988 26.895 25.395-22.277 2.8828-35.039 9.3867-35.738 9.75l-0.003907 0.003907c-1.1094 0.57812-1.9453 1.5742-2.3242 2.7695-0.375 1.1953-0.26172 2.4922 0.32031 3.6055 1.2031 2.3164 4.0586 3.2148 6.375 2.0078 0.19531-0.097656 19.68-10.066 52.918-10.055v-0.003906c0.1875 0.011718 0.375 0.011718 0.5625 0h2.875c0.20703 0.015624 0.41797 0.015624 0.62891 0 33.023 0 52.754 9.957 52.949 10.055v0.003906c2.3125 1.207 5.168 0.30859 6.375-2.0078 1.207-2.3164 0.30859-5.1719-2.0078-6.375-0.66797-0.34375-12.477-6.375-33.152-9.4062l0.003907-0.003907c9.4141-4.3008 17.555-10.98 23.613-19.375 62.613 21.098 102.93 71.676 98.449 124.12zm37.531-57.477c-1.6836 3.6289-4.4297 6.6602-7.8711 8.6992-6.9766-3.9375-11.02-13.02-8.8555-20.398 0.98438-3.4844 2.9023-5.5117 5.6484-6.0234 0.47266-0.082032 0.95312-0.125 1.4336-0.12891 3.543 0.16797 6.8242 1.9141 8.9375 4.7656 1.6016 2.125 3.8359 6.6484 0.70703 13.086z"/>
  <path d="m388.19 330.07c-6.2695 0-11.367-4.1523-11.367-9.2578v-0.003906c-0.11328-2.5273-2.1953-4.5156-4.7266-4.5156s-4.6133 1.9883-4.7305 4.5156c0 8.8555 6.8867 16.297 16.098 18.223v5.707l0.003906 0.003906c0 2.6055 2.1133 4.7227 4.7227 4.7227s4.7227-2.1172 4.7227-4.7227v-5.7461c9.2109-1.9688 16.098-9.3672 16.098-18.223 0-10.312-9.3398-18.695-20.82-18.695-7.6562 0-11.367-3.0312-11.367-9.2578 0-5.0977 5.0977-9.25 11.367-9.25 6.2695 0 11.367 4.1523 11.367 9.25l-0.003906-0.003906c-0.058594 1.2891 0.41406 2.5508 1.3086 3.4844 0.89062 0.93359 2.1289 1.4648 3.4219 1.4648 1.293 0 2.5273-0.53125 3.4219-1.4648 0.89062-0.93359 1.3633-2.1953 1.3047-3.4844 0-8.8555-6.8867-16.285-16.098-18.215v-5.707c0-2.6094-2.1133-4.7227-4.7227-4.7227s-4.7227 2.1133-4.7227 4.7227v5.707c-9.2109 1.9688-16.098 9.3672-16.098 18.215 0 9.0547 5.4727 18.695 20.82 18.695 6.2695 0 11.367 4.1523 11.367 9.25-0.003906 5.0977-5.1484 9.3086-11.367 9.3086z"/>
  <path d="m272.42 388.48c-2.6094 0-4.7227 2.1133-4.7227 4.7227v13.688c0 2.6094 2.1133 4.7227 4.7227 4.7227s4.7227-2.1133 4.7227-4.7227v-13.68c0.003907-1.2539-0.49219-2.457-1.3789-3.3438s-2.0898-1.3867-3.3438-1.3867z"/>
 </g>
</svg>