<?xml version="1.0" encoding="UTF-8"?>
<!-- The Best Svg Icon site in the world: iconSvg.co, Visit us! https://iconsvg.co -->
<svg fill="#000000" width="800px" height="800px" version="1.1" viewBox="144 144 512 512" xmlns="http://www.w3.org/2000/svg">
 <g>
  <path d="m523.06 191.11c-10.727-5.0234-22.656-6.9023-34.406-5.418-11.75 1.4805-22.84 6.2656-31.98 13.793-6.8672-14.305-18.895-25.484-33.664-31.289-14.773-5.8047-31.191-5.8047-45.965 0-14.77 5.8047-26.797 16.984-33.664 31.289-14.836-12.117-34.379-16.828-53.105-12.793-18.727 4.0312-34.602 16.371-43.129 33.523-8.5312 17.152-8.7891 37.258-0.70313 54.621 10.516 20.637 28.324 36.625 49.965 44.871 6.5781 2.4688 13.523 3.8008 20.547 3.9375l4.5664 18.727c0.55859 2.293 2.1172 4.2148 4.2422 5.2344 2.1289 1.0195 4.6016 1.0312 6.7383 0.03125l7.1328-3.3281 48.004 102.93h-105.72c-4.1758 0-8.1797 1.6602-11.133 4.6133-2.9531 2.9492-4.6094 6.957-4.6094 11.133v157.44c0 4.1758 1.6562 8.1797 4.6094 11.133s6.957 4.6133 11.133 4.6133h236.16c4.1758 0 8.1797-1.6602 11.133-4.6133 2.9531-2.9531 4.6133-6.957 4.6133-11.133v-157.44c0-4.1758-1.6602-8.1836-4.6133-11.133-2.9531-2.9531-6.957-4.6133-11.133-4.6133h-105.72l48.02-102.95 7.1328 3.3281h-0.003907c2.1406 1.0156 4.625 1.0117 6.7656-0.011719 2.1367-1.0195 3.6992-2.9492 4.2578-5.2539l4.5664-18.719h-0.003906c7.0234-0.14453 13.969-1.4727 20.547-3.9375 21.621-8.2539 39.406-24.238 49.918-44.855 7.0078-15.152 7.7344-32.465 2.0234-48.152-5.7148-15.688-17.406-28.477-32.52-35.574zm-123.06-11.523c12.52 0.011719 24.527 4.9922 33.383 13.848 8.8555 8.8555 13.836 20.863 13.848 33.383 0 27.496-22.898 62.977-47.23 62.977s-47.23-35.48-47.23-62.977h-0.003906c0.011719-12.52 4.9922-24.527 13.848-33.383 8.8555-8.8555 20.863-13.836 33.387-13.848zm6.1484 133.82h-12.297l1.6367-8.2188c2.9883 0.46094 6.0312 0.46094 9.0195 0zm-145.42-45.199c-5.2656-11.371-5.8164-24.363-1.5312-36.137 4.2852-11.777 13.059-21.375 24.398-26.699 9.0391-4.2227 19.188-5.4531 28.973-3.5039 9.7852 1.9453 18.691 6.9648 25.426 14.328-0.625 3.5039-0.94922 7.0586-0.96875 10.617 0.38672 16.203 5.125 32.004 13.719 45.746-1.4375 10.543-6.1914 20.352-13.57 28.016-2.0977 1.8945-4.4648 3.4727-7.0234 4.6758-9.1328 3.5781-19.301 3.4414-28.336-0.37891-17.711-6.7969-32.324-19.84-41.086-36.664zm71.848 52.996v-0.003906c1.4609-0.48828 2.8945-1.0625 4.2891-1.7148 1.3477-0.63672 2.5898-1.4258 3.8477-2.1719l4.9766 6.7695-11.141 5.2031zm31.488 1.3008-11.422-15.562v-0.007812c4.4688-5.6328 7.9453-11.984 10.289-18.781 5.0312 5.1836 10.91 9.4648 17.391 12.66l-3.7617 18.895-0.003906-0.003906c-0.47266 2.3125 0.12109 4.7188 1.6133 6.5469 1.4922 1.832 3.7266 2.8945 6.0859 2.8984h7.8711v90.445l-38.227-81.973 7.1406-3.3281v-0.003907c2.1445-0.99219 3.7266-2.8984 4.3125-5.1875 0.58594-2.2852 0.11328-4.7188-1.2891-6.6172zm154.02 274.3h-236.16v-7.875h236.16zm-236.16 23.613v-7.8711h236.16v7.8711zm236.16-118.08v70.848h-236.16v-110.21h236.16zm-110.21-82.742v-90.445h7.8711c2.3633 0.003906 4.6055-1.0586 6.0977-2.8906 1.4961-1.832 2.0898-4.2383 1.6172-6.5547l-3.7773-18.891c6.4727-3.2031 12.348-7.4961 17.371-12.684 2.3477 6.7969 5.8281 13.148 10.297 18.781l-11.43 15.562v0.003906c-1.3984 1.8984-1.8711 4.332-1.2852 6.6172 0.58203 2.2891 2.168 4.1953 4.3086 5.1875l7.1406 3.3281zm46.445-95.512 4.9766-6.7773c1.2734 0.78906 2.5352 1.5742 3.9375 2.2109h-0.003907c1.3789 0.63672 2.793 1.2031 4.2344 1.6914l-1.9766 8.0781zm84.969-55.891v-0.003906c-8.7578 16.824-23.363 29.863-41.066 36.668-9.0234 3.8086-19.172 3.957-28.301 0.41016-2.582-1.2109-4.9727-2.8047-7.0859-4.7227-7.3906-7.6641-12.152-17.48-13.594-28.031 8.5898-13.727 13.336-29.508 13.738-45.699-0.023437-3.5586-0.34766-7.1133-0.96875-10.617 6.7305-7.3633 15.637-12.383 25.422-14.332 9.7852-1.9453 19.934-0.71875 28.973 3.5078 11.34 5.3242 20.113 14.922 24.402 26.695 4.2852 11.777 3.7383 24.77-1.5273 36.141z"/>
  <path d="m400 557.44c10.438 0 20.449-4.1445 27.832-11.527 7.3789-7.3828 11.527-17.391 11.527-27.832 0-10.438-4.1484-20.449-11.527-27.832-7.3828-7.3789-17.395-11.527-27.832-11.527-10.441 0-20.453 4.1484-27.832 11.527-7.3828 7.3828-11.531 17.395-11.531 27.832 0.015625 10.438 4.1641 20.441 11.543 27.82 7.3789 7.3789 17.383 11.527 27.82 11.539zm0-62.977c6.2617 0 12.27 2.4883 16.699 6.918 4.4258 4.4297 6.9141 10.438 6.9141 16.699 0 6.2656-2.4883 12.27-6.9141 16.699-4.4297 4.4297-10.438 6.918-16.699 6.918-6.2656 0-12.273-2.4883-16.699-6.918-4.4297-4.4297-6.918-10.434-6.918-16.699 0-6.2617 2.4883-12.27 6.918-16.699 4.4258-4.4297 10.434-6.918 16.699-6.918z"/>
  <path d="m305.54 557.44h23.617l-0.003906-15.742h-15.742v-15.746h-15.742v23.617c0 2.0898 0.82813 4.0898 2.3047 5.5664 1.4766 1.4766 3.4766 2.3047 5.5664 2.3047z"/>
  <path d="m502.34 549.57v-23.617h-15.746v15.742l-15.742 0.003906v15.742h23.617-0.003906c2.0898 0 4.0938-0.82812 5.5664-2.3047 1.4766-1.4766 2.3086-3.4766 2.3086-5.5664z"/>
  <path d="m313.41 494.46h15.742v-15.742h-23.613c-4.3477 0-7.8711 3.5234-7.8711 7.8711v23.617h15.742z"/>
  <path d="m486.59 510.21h15.742l0.003907-23.617c0-2.0859-0.83203-4.0898-2.3086-5.5664-1.4727-1.4766-3.4766-2.3047-5.5664-2.3047h-23.613v15.742h15.742z"/>
 </g>
</svg>