<?xml version="1.0" encoding="UTF-8"?>
<!-- The Best Svg Icon site in the world: iconSvg.co, Visit us! https://iconsvg.co -->
<svg fill="#000000" width="800px" height="800px" version="1.1" viewBox="144 144 512 512" xmlns="http://www.w3.org/2000/svg">
 <g>
  <path d="m384.25 278.93c-25.352 0-46.25 20.625-46.25 45.98v16.031c0 25.352 20.895 45.98 46.25 45.98 25.352 0 46.25-20.625 46.25-45.98v-16.031c0-25.355-20.898-45.98-46.25-45.98zm34.441 62.008c0 12.305-6.5664 23.676-17.223 29.828-10.652 6.1523-23.781 6.1523-34.438 0-10.656-6.1523-17.223-17.523-17.223-29.828v-16.031 0.003906c0-12.305 6.5664-23.676 17.223-29.828s23.785-6.1523 34.438 0c10.656 6.1523 17.223 17.523 17.223 29.828z"/>
  <path d="m557.87 428.09c0.078124-0.3125 0.16016-0.625 0.23828-0.9375l43.027-4.1328h-0.003906c3.0625-0.27734 5.4336-2.8047 5.5117-5.875v-63.543c-0.078125-3.0742-2.4492-5.6016-5.5117-5.8789l-42.961-4.1328c-4.5312-18.363-11.934-35.898-21.93-51.953l27.301-32.992c1.9414-2.3477 1.7773-5.7852-0.38281-7.9375l-44.828-44.832c-2.1523-2.1562-5.5977-2.3164-7.9414-0.37109l-32.98 27.316c-16.023-10.066-33.578-17.461-51.973-21.898l-4.1328-42.789c-0.29688-3.0156-2.8438-5.3047-5.875-5.2734h-61.254c-3.0273-0.03125-5.5781 2.2539-5.875 5.2695l-4.1328 42.824c-18.398 4.4297-35.949 11.82-51.973 21.883l-32.977-27.32c-2.3438-1.9453-5.7852-1.7852-7.9414 0.36719l-44.828 44.816c-2.1523 2.1562-2.3164 5.5938-0.375 7.9414l27.324 32.996h0.003907c-9.9844 16.059-17.371 33.594-21.891 51.953l-43.094 4.1328c-3.0703 0.27344-5.457 2.793-5.5586 5.8789v63.551-0.003907c0.10156 3.082 2.4844 5.6055 5.5586 5.875l42.961 4.1289c4.457 18.398 11.871 35.949 21.953 51.973l-27.285 32.977c-1.9375 2.3516-1.7695 5.7891 0.38672 7.9414l44.828 44.824c2.1562 2.1523 5.5977 2.3125 7.9453 0.37109l32.996-27.328c16.059 9.9883 33.594 17.379 51.957 21.895l4.1328 42.875v0.003907c0.29297 3.0273 2.8359 5.3359 5.8789 5.3359h61.258c3.0391 0 5.582-2.3086 5.875-5.3359l4.1328-42.879c0.76172-0.1875 1.5234-0.39453 2.2852-0.58984 10.109 36.566 38.922 64.988 75.625 74.598 36.703 9.6055 75.742-1.0547 102.47-27.98 26.73-26.93 37.098-66.051 27.215-102.68-9.8828-36.633-38.52-65.23-75.16-75.062zm-139.18 121.17c-2.4961 0.55078-4.3516 2.6523-4.5977 5.1953l-4.0234 41.754h-50.535l-4.0234-41.758-0.003906 0.003906c-0.24219-2.5469-2.1016-4.6445-4.5977-5.1992-19.914-4.3984-38.863-12.387-55.914-23.578-2.168-1.418-5.0078-1.2578-7.0039 0.39453l-32.168 26.645-37.223-37.227 26.645-32.172v0.003906c1.6562-2.0039 1.8086-4.8555 0.375-7.0273-11.273-16.984-19.262-35.93-23.551-55.859-0.64453-2.5391-2.8203-4.3906-5.4258-4.625l-41.977-4.0273v-52.824l41.977-4.0195c2.5742-0.23828 4.7109-2.0859 5.3125-4.6016 4.418-19.918 12.422-38.867 23.625-55.922 1.4258-2.1602 1.2773-5-0.36719-7l-26.629-32.168 37.234-37.219 32.176 26.645 0.003907-0.003906c2.0039 1.6641 4.8594 1.8125 7.0312 0.375 16.984-11.273 35.93-19.262 55.855-23.551 2.5039-0.51563 4.3789-2.5977 4.6328-5.1406l4.0234-41.691h50.531l4.0234 41.691c0.24609 2.5469 2.1172 4.6406 4.625 5.1719 19.926 4.2852 38.875 12.266 55.859 23.531 2.1719 1.4375 5.0273 1.2812 7.0273-0.38281l32.168-26.648 37.227 37.227-26.645 32.168 0.003907 0.003906c-1.6523 1.9922-1.8125 4.832-0.39453 7 11.188 17.051 19.176 36 23.574 55.914 0.62891 2.5195 2.7812 4.3672 5.3672 4.6016l41.93 4.0195v52.82l-41.926 4.0234-0.003906 0.003907c-2.5742 0.23828-4.707 2.1055-5.2891 4.625-0.375 1.7383-0.82812 3.4844-1.2617 5.2266-10.973-1.6602-22.133-1.6055-33.09 0.16406 4.1445-13.086 6.2461-26.73 6.2266-40.453 0-73.793-60.035-133.82-133.82-133.82-73.789 0-133.82 60.031-133.82 133.82 0 73.793 60.031 133.82 133.82 133.82 13.457 0.015625 26.84-2.0078 39.695-5.9961-1.918 11.406-1.9648 23.047-0.14453 34.469-2.1758 0.57813-4.3555 1.1172-6.5312 1.5938zm9.7734-49.625c-21.031 7.9062-43.848 9.8125-65.902 5.5078-22.051-4.3086-42.477-14.66-58.988-29.898v-36.18c-0.03125-6.2422 2.4219-12.242 6.8203-16.672 4.3984-4.4297 10.379-6.9297 16.625-6.9414h117.46-0.003906c6.2422 0.011719 12.223 2.5117 16.617 6.9414 4.3984 4.4336 6.8477 10.43 6.8125 16.672v5.5117c-18.816 13.543-32.668 32.883-39.438 55.059zm51.395-62.445h0.003907c-0.48828-9.0547-4.4297-17.578-11.008-23.82-6.5781-6.2383-15.297-9.7227-24.367-9.7344h-117.47 0.003907c-9.375 0.019532-18.359 3.7617-24.973 10.406-6.6133 6.6484-10.312 15.648-10.281 25.023v23.715c-18.184-21.684-28.086-49.113-27.945-77.414 0-67.281 54.648-122.02 121.93-122.02 40.148 0.023438 77.719 19.793 100.48 52.871 22.754 33.078 27.789 75.23 13.461 112.73-6.8711 2.0703-13.512 4.8281-19.824 8.2344zm50.434 188.28 0.003906 0.003906c-25.09 0-49.152-9.9688-66.891-27.711-17.742-17.742-27.711-41.805-27.711-66.895 0-25.09 9.9688-49.152 27.711-66.891 17.738-17.742 41.801-27.711 66.891-27.711 25.09 0 49.152 9.9688 66.895 27.711 17.742 17.738 27.707 41.801 27.707 66.891-0.027344 25.082-10.004 49.129-27.738 66.863-17.734 17.734-41.781 27.711-66.863 27.742z"/>
  <path d="m530.29 488.04c5.3359 0.007813 10.453 2.1289 14.223 5.9023 3.7734 3.7734 5.8945 8.8867 5.9023 14.223 0 3.2617 2.6445 5.9023 5.9023 5.9023 3.2617 0 5.9062-2.6406 5.9062-5.9023-0.011718-7.5117-2.6641-14.781-7.5-20.531-4.832-5.75-11.535-9.6133-18.934-10.918v-7.8359c0-3.2617-2.6406-5.9023-5.9023-5.9023s-5.9023 2.6406-5.9023 5.9023v7.9805c-10.445 2.1055-19.152 9.2812-23.215 19.133-4.0586 9.8516-2.9414 21.078 2.9883 29.934 5.9258 8.8555 15.879 14.168 26.531 14.172 5.3398 0 10.457 2.1172 14.23 5.8945 3.7734 3.7734 5.8945 8.8906 5.8945 14.23 0 5.3359-2.1211 10.453-5.8945 14.227-3.7734 3.7773-8.8906 5.8945-14.23 5.8945-5.3359 0-10.453-2.1172-14.23-5.8945-3.7734-3.7734-5.8945-8.8906-5.8945-14.227 0-3.2617-2.6406-5.9062-5.9023-5.9062s-5.9023 2.6445-5.9023 5.9062c0.007813 6.6719 2.1016 13.176 5.9922 18.598 3.8906 5.4219 9.3789 9.4922 15.695 11.637v11.262c0 3.2617 2.6445 5.9062 5.9023 5.9062 3.2617 0 5.9062-2.6445 5.9062-5.9062v-9.6055c11.207-0.55078 21.305-6.9414 26.594-16.84 5.293-9.8945 5-21.844-0.76953-31.469-5.7695-9.625-16.168-15.516-27.391-15.516-5.3828 0.074219-10.574-2.0117-14.41-5.793-3.8359-3.7852-5.9961-8.9453-5.9961-14.332 0-5.3867 2.1602-10.547 5.9961-14.328 3.8359-3.7812 9.0273-5.8672 14.41-5.793z"/>
 </g>
</svg>