<?xml version="1.0" encoding="UTF-8"?>
<!-- The Best Svg Icon site in the world: iconSvg.co, Visit us! https://iconsvg.co -->
<svg fill="#000000" width="800px" height="800px" version="1.1" viewBox="144 144 512 512" xmlns="http://www.w3.org/2000/svg">
 <g>
  <path d="m588.93 400h-125.95c-5.7969 0-10.496 4.6992-10.496 10.496v178.43c0 2.7852 1.1055 5.4531 3.0742 7.4219 1.9648 1.9688 4.6367 3.0742 7.4219 3.0742h125.95c2.7852 0 5.4531-1.1055 7.4219-3.0742s3.0742-4.6367 3.0742-7.4219v-178.43c0-2.7852-1.1055-5.4531-3.0742-7.4219s-4.6367-3.0742-7.4219-3.0742zm-52.48 73.473v20.992l-20.992-0.003906v-20.988zm41.984 0v20.992l-20.992-0.003906v-20.988zm-83.969 20.992-20.988-0.003906v-20.988h20.992zm-20.992 20.992h20.992v20.992l-20.988-0.003907zm41.984 0h20.992v20.992l-20.992-0.003907zm41.984 0h20.992v20.992l-20.992-0.003907zm-83.969-94.465h104.96v31.488h-104.96zm0 136.45h20.992v20.992l-20.988-0.003906zm41.984 0h20.992v20.992l-20.992-0.003906zm62.977 20.992-20.992-0.003906v-20.992h20.992z"/>
  <path d="m515.45 295.04c-0.13672-2.7578-1.2109-5.3867-3.043-7.4531l-83.969-83.969c-2.0664-1.8281-4.6953-2.9023-7.4492-3.043h-209.92c-5.7969 0-10.496 4.6992-10.496 10.496v377.86c0 2.7852 1.1055 5.4531 3.0742 7.4219s4.6367 3.0742 7.4219 3.0742h209.92c2.7812 0 5.4531-1.1055 7.4219-3.0742 1.9648-1.9688 3.0742-4.6367 3.0742-7.4219v-178.43c0-8.3516 3.3164-16.363 9.2227-22.266 5.9023-5.9062 13.914-9.2227 22.266-9.2227h41.984-0.003907c2.7852 0 5.457-1.1055 7.4219-3.0742 1.9688-1.9688 3.0742-4.6406 3.0742-7.4219zm-94.465 0 0.003907-73.473 73.473 73.473zm-31.488 94.465h0.003906c2.7812 0 5.4531 1.1055 7.4219 3.0742s3.0742 4.6367 3.0742 7.4219v41.984c0 2.7812-1.1055 5.4531-3.0742 7.4219-1.9688 1.9648-4.6406 3.0742-7.4219 3.0742h-20.992v10.496c0 5.7969-4.6992 10.496-10.496 10.496s-10.496-4.6992-10.496-10.496v-10.496h-20.992c-5.7969 0-10.496-4.6992-10.496-10.496s4.6992-10.496 10.496-10.496h52.48v-20.992h-52.48c-5.7969 0-10.496-4.6992-10.496-10.496v-41.984c0-5.7969 4.6992-10.496 10.496-10.496h20.992v-10.496c0-5.7969 4.6992-10.496 10.496-10.496s10.496 4.6992 10.496 10.496v10.496h20.992c5.7969 0 10.496 4.6992 10.496 10.496s-4.6992 10.496-10.496 10.496h-52.48v20.992z"/>
 </g>
</svg>