<?xml version="1.0" encoding="UTF-8"?>
<!-- The Best Svg Icon site in the world: iconSvg.co, Visit us! https://iconsvg.co -->
<svg fill="#000000" width="800px" height="800px" version="1.1" viewBox="144 144 512 512" xmlns="http://www.w3.org/2000/svg">
 <g>
  <path d="m396.48 481.57c-6.1211-0.46094-12.238-2.5039-17.062-6.1211l3.6172-6.2148c4.6406 2.5039 9.3672 4.918 16.043 4.918 9.6406 0 12.793-4.918 12.793-11.125 0-19.844-31.062-7.3281-31.062-30.418 0-10.109 5.4688-16.227 15.672-17.156v-6.5859h6.4922v6.5859c5.1016 0.55469 10.012 2.5039 14.184 5.6562l-3.5195 5.9336c-5.1016-3.3359-10.012-4.4492-14.098-4.4492-9.0898 0-11.035 4.7266-11.035 9.9258 0 14.836 31.062 5.1016 31.062 29.855 0 9.6445-4.7266 17.711-16.598 19.102v8.2539h-6.4922v-8.1602z"/>
  <path d="m347.03 476.32c2.6914-1.0742 4.0039-4.125 2.9297-6.8164-2.5234-6.3281-3.8047-13.027-3.8047-19.91 0-29.691 24.156-53.844 53.844-53.844s53.844 24.156 53.844 53.844-24.156 53.84-53.844 53.84c-2.9023 0-5.8008-0.23047-8.6055-0.68359-2.8516-0.46094-5.5586 1.4805-6.0195 4.3438-0.46094 2.8594 1.4844 5.5586 4.3438 6.0195 3.3594 0.54687 6.8164 0.82031 10.281 0.82031 35.477 0 64.34-28.863 64.34-64.336 0-35.477-28.863-64.34-64.34-64.34s-64.34 28.863-64.34 64.34c0 8.2227 1.5312 16.23 4.5508 23.801 1.0742 2.6875 4.1211 4.0039 6.8203 2.9219z"/>
  <path d="m377.64 498.59c-5.8516-2.6719-11.137-6.3438-15.707-10.922-2.2266-2.2266-4.2617-4.6445-6.0469-7.1953-1.668-2.3711-4.9375-2.9492-7.3086-1.2852-2.3711 1.6641-2.9492 4.9375-1.2852 7.3086 2.1367 3.043 4.5664 5.9336 7.2148 8.5859 5.4648 5.4648 11.777 9.8516 18.766 13.047 0.70703 0.32422 1.4492 0.47266 2.1797 0.47266 1.9883 0 3.8945-1.1406 4.7773-3.0664 1.2109-2.6289 0.050781-5.7383-2.5898-6.9453z"/>
  <path d="m390.03 573.57c-18.676-2.1094-35.859-10.008-49.699-22.84-2.1289-1.9688-5.4414-1.8477-7.4219 0.27734-1.9688 2.125-1.8477 5.4492 0.27734 7.4219 15.496 14.363 34.742 23.207 55.66 25.574 0.19922 0.019532 0.39844 0.03125 0.59766 0.03125 2.6328 0 4.9062-1.9766 5.207-4.6602 0.32812-2.8789-1.7422-5.4766-4.6211-5.8047z"/>
  <path d="m496.51 467.96c1.1328-5.957 1.7852-12.086 1.7852-18.367 0-54.203-44.094-98.297-98.297-98.297s-98.289 44.094-98.289 98.297c0 6.2539 0.65234 12.359 1.7734 18.293-1.1484 6.0391-1.7734 12.238-1.7734 18.441 0 6.2344 0.64062 12.355 1.7617 18.348-1.1406 6.0312-1.7617 12.203-1.7617 18.391 0 54.203 44.094 98.289 98.289 98.289 54.195 0 98.297-44.094 98.297-98.297 0-6.1523-0.64062-12.273-1.7695-18.262 1.1445-5.9922 1.7695-12.16 1.7695-18.473-0.003907-6.1797-0.64453-12.34-1.7852-18.363zm-96.508-106.16c48.414 0 87.801 39.387 87.801 87.801 0 5.6484-0.58594 11.156-1.6094 16.512-0.11719 0.38281-0.15625 0.76562-0.18359 1.1719-8.207 39.965-43.652 70.109-86.008 70.109-48.414 0-87.793-39.387-87.793-87.793-0.003906-48.414 39.379-87.801 87.793-87.801zm0 249.07c-45.617 0-83.188-34.977-87.375-79.512 2.582 4.9844 5.5781 9.793 9.0352 14.352 1.0273 1.3594 2.5977 2.0781 4.1836 2.0781 1.1016 0 2.2188-0.34766 3.168-1.0703 2.3086-1.7461 2.7617-5.043 1.0078-7.3516-10.035-13.219-15.965-28.652-17.434-45.023 16.316 31.746 49.332 53.551 87.414 53.551 38.074 0 71.09-21.805 87.41-53.539-0.25781 2.832-0.65234 5.6328-1.1758 8.3906-0.11719 0.36719-0.1875 0.73828-0.22656 1.1328-7.7773 38.145-40.367 67.637-80.562 70.094-2.8906 0.17969-5.0977 2.6641-4.918 5.5586 0.16797 2.7812 2.4805 4.9297 5.2305 4.9297 0.10938 0 0.21484 0 0.32422-0.011719 35.598-2.1797 65.879-23.285 81.297-53.141-4.168 44.559-41.742 79.562-87.379 79.562z"/>
  <path d="m342.27 352.11c11.379 0 20.992-9.1484 20.992-19.98v-81.828c0-25.422 19.98-30.758 36.734-30.758 16.758 0 36.734 5.3359 36.734 30.758v81.836c0 10.828 9.6133 19.98 20.992 19.98s20.992-9.1484 20.992-19.98l0.003906-81.836c0-42.301-31.637-70.719-78.719-70.719-47.086 0-78.719 28.418-78.719 70.719v81.836c-0.003906 10.828 9.6133 19.973 20.988 19.973zm0-10.496c-5.4961 0-10.496-4.5195-10.496-9.4844v-21.348h20.992v21.348c0 4.9688-5 9.4844-10.496 9.4844zm115.46 0c-5.4961 0-10.496-4.5195-10.496-9.4844v-21.348h20.992v21.348c0 4.9688-5 9.4844-10.496 9.4844zm-57.727-151.54c40.809 0 68.223 24.199 68.223 60.223v49.984h-20.992v-49.988c0-26.219-17.215-41.254-47.23-41.254-30.02 0-47.23 15.035-47.23 41.254l-0.003906 49.988h-20.992v-49.988c0-36.02 27.418-60.219 68.227-60.219z"/>
 </g>
</svg>