<?xml version="1.0" encoding="UTF-8"?>
<!-- The Best Svg Icon site in the world: iconSvg.co, Visit us! https://iconsvg.co -->
<svg fill="#000000" width="800px" height="800px" version="1.1" viewBox="144 144 512 512" xmlns="http://www.w3.org/2000/svg">
 <g>
  <path d="m425.93 179.32c-76.242 0-138.27 62.027-138.27 138.27v0.13672c0.023438 0.89844 2.0156 90.086-49.812 126.29-0.003906 0.003906-0.015625 0.011719-0.019531 0.015625-0.015625 0.011718-0.023437 0.019531-0.039063 0.03125-0.046874 0.03125-0.082031 0.074218-0.125 0.10547-0.19531 0.14453-0.38281 0.30078-0.55469 0.47266-0.074219 0.074219-0.13281 0.16016-0.19531 0.24219-0.125 0.15234-0.25781 0.30078-0.36328 0.46875-0.054687 0.089844-0.10156 0.1875-0.15234 0.27734-0.097657 0.17188-0.19141 0.34375-0.26563 0.52734-0.035156 0.089844-0.054687 0.1875-0.085937 0.28125-0.058594 0.19141-0.125 0.38281-0.16016 0.58594-0.019531 0.10938-0.019531 0.22266-0.035157 0.33203-0.019531 0.17188-0.050781 0.34375-0.050781 0.51953 0 0.019531 0.003907 0.035156 0.003907 0.054687 0 0.097657 0.019531 0.19141 0.03125 0.28906 0.066406 0.85156 0.33594 1.6367 0.79687 2.2969 0.003907 0.003906 0.003907 0.011719 0.011719 0.015625 0.14062 0.20312 0.29688 0.38281 0.45703 0.55469 0.050782 0.054688 0.10156 0.10547 0.15625 0.15234 0.17578 0.16797 0.36328 0.32812 0.55859 0.46484 0.019532 0.015625 0.035156 0.023437 0.054688 0.039062 0.21094 0.14062 0.4375 0.25781 0.67188 0.36328 0.058593 0.03125 0.12109 0.054688 0.1875 0.082032 0.23828 0.097656 0.48047 0.17188 0.72656 0.22656 0.054688 0.011719 0.10938 0.019532 0.16797 0.03125 0.27344 0.050782 0.54297 0.082032 0.82031 0.082032h0.011719 59.465v64.902c0 2.5703 2.082 4.6484 4.6484 4.6484h57.938v93.969c0 2.5703 2.082 4.6484 4.6484 4.6484 2.5625 0 4.6484-2.082 4.6484-4.6484v-98.621c0-2.5703-2.082-4.6484-4.6484-4.6484h-57.938v-64.902c0-2.5703-2.082-4.6484-4.6484-4.6484h-51.051c17.91-16.859 30.902-42.066 37.902-73.773 6.0742-27.539 5.6016-50.195 5.5586-51.926 0.035156-71.086 57.879-128.91 128.98-128.91 71.117 0 128.98 57.859 128.98 128.98v298.45c0 2.5703 2.082 4.6484 4.6484 4.6484 2.5703 0 4.6484-2.082 4.6484-4.6484v-298.45c-0.03125-76.246-62.059-138.27-138.3-138.27z"/>
  <path d="m420.21 282.47h33.977c2.5703 0 4.6484-2.082 4.6484-4.6484 0-2.5625-2.082-4.6484-4.6484-4.6484h-23.113v-19.559c0-2.5625-2.082-4.6484-4.6484-4.6484-2.5703 0-4.6484 2.082-4.6484 4.6484v19.559h-1.5664c-14.449 0-26.203 11.754-26.203 26.203 0 14.445 11.754 26.199 26.203 26.199h12.434c9.3164 0 16.895 7.582 16.895 16.906 0 9.3203-7.5781 16.902-16.895 16.902h-33.988c-2.5625 0-4.6484 2.082-4.6484 4.6484 0 2.5625 2.082 4.6484 4.6484 4.6484h23.121v19.574c0 2.5625 2.082 4.6484 4.6484 4.6484 2.5703 0 4.6484-2.082 4.6484-4.6484v-19.574h1.5703c14.438 0 26.188-11.754 26.188-26.199 0-14.449-11.75-26.203-26.188-26.203h-12.434c-9.3203 0-16.906-7.582-16.906-16.902 0.003907-9.3164 7.5859-16.906 16.906-16.906z"/>
  <path d="m426.43 224.74c-53.043 0-96.188 43.152-96.188 96.188 0 53.043 43.152 96.188 96.188 96.188s96.188-43.152 96.188-96.188c0-53.035-43.152-96.188-96.188-96.188zm0 183.09c-47.914 0-86.891-38.98-86.891-86.891 0-47.914 38.98-86.891 86.891-86.891 47.914 0 86.891 38.98 86.891 86.891s-38.984 86.891-86.891 86.891z"/>
  <path d="m394.46 556.32c-2.5625 0-4.6484 2.082-4.6484 4.6484v55.066c0 2.5703 2.082 4.6484 4.6484 4.6484 2.5625 0 4.6484-2.082 4.6484-4.6484v-55.066c0.003907-2.5664-2.0781-4.6484-4.6484-4.6484z"/>
  <path d="m421.82 539.27c-2.5703 0-4.6484 2.082-4.6484 4.6484v72.121c0 2.5703 2.082 4.6484 4.6484 4.6484 2.5703 0 4.6484-2.082 4.6484-4.6484v-72.121c0-2.5703-2.0859-4.6484-4.6484-4.6484z"/>
  <path d="m449.16 516.21c-2.5703 0-4.6484 2.082-4.6484 4.6484v95.184c0 2.5703 2.082 4.6484 4.6484 4.6484 2.5703 0 4.6484-2.082 4.6484-4.6484v-95.184c0.003906-2.5664-2.0781-4.6484-4.6484-4.6484z"/>
  <path d="m476.52 492.14c-2.5703 0-4.6484 2.082-4.6484 4.6484v119.26c0 2.5703 2.082 4.6484 4.6484 4.6484 2.5703 0 4.6484-2.082 4.6484-4.6484v-119.26c0-2.5703-2.082-4.6484-4.6484-4.6484z"/>
  <path d="m503.86 464.05c-2.5703 0-4.6484 2.082-4.6484 4.6484v147.34c0 2.5703 2.082 4.6484 4.6484 4.6484 2.5703 0 4.6484-2.082 4.6484-4.6484v-147.34c0.003906-2.5703-2.0781-4.6484-4.6484-4.6484z"/>
  <path d="m531.21 438.98c-2.5703 0-4.6484 2.082-4.6484 4.6484v172.41c0 2.5703 2.082 4.6484 4.6484 4.6484 2.5703 0 4.6484-2.082 4.6484-4.6484v-172.41c0-2.5703-2.0781-4.6523-4.6484-4.6523z"/>
 </g>
</svg>