<?xml version="1.0" encoding="UTF-8"?>
<!-- The Best Svg Icon site in the world: iconSvg.co, Visit us! https://iconsvg.co -->
<svg fill="#000000" width="800px" height="800px" version="1.1" viewBox="144 144 512 512" xmlns="http://www.w3.org/2000/svg">
 <g>
  <path d="m273.44 408.74c0.68359 0 1.3789-0.14453 2.0469-0.44922l299.11-136.72-14.234 25.973c-1.3086 2.3867-0.43359 5.3789 1.9531 6.6914 0.75 0.41406 1.5625 0.60547 2.3633 0.60547 1.7422 0 3.4297-0.92188 4.3281-2.5586l21.363-38.977c0.082031-0.14453 0.066406-0.32422 0.13281-0.47266 0.085938-0.20703 0.11719-0.41797 0.17188-0.63672 0.30078-1.1133 0.33594-2.2812-0.16016-3.3438-0.25-0.54297-0.67188-0.95703-1.0898-1.3672-0.050781-0.050781-0.082031-0.12109-0.13672-0.16797-0.3125-0.28125-0.67969-0.45312-1.0586-0.64453-0.27344-0.14062-0.52734-0.28125-0.82031-0.37109-0.15234-0.046875-0.26172-0.16016-0.41797-0.19141l-43.621-8.5312c-2.6641-0.52734-5.2539 1.2227-5.7773 3.8945-0.51953 2.6719 1.2188 5.2539 3.8945 5.7773l28.547 5.582-298.65 136.5c-2.4727 1.1328-3.5625 4.0508-2.4297 6.5312 0.82422 1.8086 2.6094 2.875 4.4844 2.875z"/>
  <path d="m273.03 439.98c-15.254 0-41.074 3.3438-41.074 15.891 0 0.039062 0.015625 0.070312 0.015625 0.10938v17.941c-5.4648-2.6133-11.488-4.0312-17.613-4.0312-22.648 0.003907-41.07 18.539-41.07 41.316 0 22.777 18.426 41.316 41.074 41.316 8.3516 0 16.434-2.5625 23.148-7.2266 7.9766 5.2539 23.285 7.2266 35.539 7.2266 15.121 0 40.594-3.3047 40.996-15.594 0.003906-0.097656 0.054687-0.17969 0.054687-0.28125v-80.777c0-12.543-25.812-15.891-41.07-15.891zm-17.613 70.816c5.375 0.86328 11.402 1.3516 17.633 1.3516 9.2266 0 22.297-1.2461 31.195-4.9922v8.8633c0 0.003906-0.003907 0.011718-0.003907 0.015624-1.5469 2.0195-12.105 6.4648-31.191 6.4648-6.8789 0-13.355-0.59375-18.793-1.6836 0.75-3.1445 1.1758-6.3516 1.1758-9.6133 0.003906-0.13281-0.015626-0.26953-0.015626-0.40625zm48.832-14.941c-1.5703 2.0156-12.152 6.4375-31.195 6.4375-6.9414 0-13.516-0.64453-19.004-1.7695-1.0625-3.9766-2.7148-7.7383-4.8672-11.191 7.8633 1.918 16.938 2.6211 23.852 2.6211 9.2344 0 22.309-1.2461 31.211-4.9922l-0.003907 8.8945zm0-20.188c-1.6016 2.0234-12.172 6.4297-31.211 6.4297-19.004 0-29.57-4.3867-31.199-6.418v-8.9062c8.9062 3.7422 21.973 4.9883 31.199 4.9883 9.2344 0 22.309-1.2461 31.211-4.9922zm-31.219-25.828c17.863 0 28.285 3.8789 30.824 6.0312-2.5391 2.1523-12.957 6.0352-30.824 6.0352-17.863 0-28.285-3.8828-30.828-6.0352 2.5469-2.1484 12.965-6.0312 30.828-6.0312zm-89.883 61.367c0-17.348 14.008-31.457 31.215-31.457 7.0703 0 13.969 2.4375 19.457 6.8867 5.9141 4.7344 9.9219 11.461 11.266 18.887 0.32812 1.8906 0.48828 3.8047 0.48828 5.6836 0 3.9062-0.71094 7.7344-2.1328 11.41-1.875 4.9062-4.9492 9.2461-8.9609 12.594-5.5508 4.8008-12.699 7.4531-20.121 7.4531-17.207 0-31.211-14.113-31.211-31.457zm62.117 27.141c2.1797-2.4922 4.0547-5.25 5.5703-8.2266 6.4141 1.4258 14.082 2.2383 22.215 2.2383 9.2266 0 22.297-1.2461 31.195-5.0039v8.8711c-1.5703 2.0156-12.152 6.4375-31.195 6.4375-13.637 0-22.992-2.2227-27.785-4.3164z"/>
  <path d="m214.36 500.48h7.7891c2.7266 0 4.9258-2.207 4.9258-4.9258s-2.207-4.9258-4.9258-4.9258h-2.8555v-0.15625c0-2.7266-2.207-4.9258-4.9258-4.9258-2.7266 0-4.9258 2.207-4.9258 4.9258v1.1523c-4.5703 1.9414-7.7852 6.4844-7.7852 11.77 0 7.0391 5.7031 12.766 12.711 12.766 1.5781 0 2.8555 1.3047 2.8555 2.9102 0 1.6055-1.2812 2.9102-2.8555 2.9102h-7.7852c-2.7266 0-4.9258 2.207-4.9258 4.9258s2.207 4.9258 4.9258 4.9258h2.8555v0.15234c0 2.7266 2.207 4.9258 4.9258 4.9258 2.7266 0 4.9258-2.207 4.9258-4.9258v-1.1484c4.5703-1.9336 7.7891-6.4844 7.7891-11.77 0-7.043-5.7031-12.773-12.715-12.773-1.5703 0-2.8555-1.3047-2.8555-2.9062-0.003907-1.6016 1.2773-2.9062 2.8516-2.9062z"/>
  <path d="m429.34 376.96c-15.25 0-41.07 3.3438-41.07 15.895 0 0.039062 0.015625 0.070312 0.015625 0.10938v20.883c0 0.023438-0.015625 0.046875-0.015625 0.070313 0 0.039062 0.015625 0.070312 0.015625 0.10938v20.887c0 0.023438-0.015625 0.046876-0.015625 0.070313 0 0.039063 0.015625 0.070313 0.015625 0.10938v20.703c0 0.023437-0.015625 0.046875-0.015625 0.070313 0 0.039062 0.015625 0.070312 0.015625 0.10937v17.941c-5.4648-2.6133-11.488-4.0312-17.613-4.0312-22.652 0-41.082 18.535-41.082 41.316s18.43 41.316 41.082 41.316c8.3516 0 16.434-2.5625 23.145-7.2266 7.9766 5.2539 23.285 7.2266 35.539 7.2266 15.121 0 40.594-3.3047 41-15.594 0.003907-0.097656 0.054688-0.17969 0.054688-0.28125v-143.78-0.003906-0.003906c0.003906-12.551-25.816-15.895-41.07-15.895zm-17.613 133.84c5.375 0.86328 11.402 1.3516 17.629 1.3516 9.2305 0 22.297-1.2461 31.195-4.9922v8.8633c0 0.003906-0.003906 0.011718-0.003906 0.015624-1.5469 2.0195-12.113 6.4648-31.195 6.4648-6.8789 0-13.355-0.58984-18.785-1.6836 0.75-3.1445 1.1758-6.3516 1.1758-9.6133 0.003907-0.13281-0.011719-0.26953-0.015625-0.40625zm48.828-14.941c-1.5703 2.0156-12.152 6.4375-31.195 6.4375-6.9414 0-13.516-0.64453-19.004-1.7695-1.0625-3.9766-2.7148-7.7383-4.8672-11.195 7.8633 1.918 16.938 2.6211 23.852 2.6211 9.2344 0 22.312-1.2461 31.215-4.9922zm0-20.188c-1.6016 2.0234-12.176 6.4297-31.215 6.4297-19.004 0-29.562-4.3867-31.195-6.418v-8.9023c8.9062 3.7422 21.973 4.9883 31.195 4.9883 9.2344 0 22.312-1.2461 31.215-4.9922zm0-20.195c-1.6016 2.0234-12.176 6.4336-31.215 6.4336-19.004 0-29.562-4.3945-31.195-6.418v-9.5977c8.9062 3.7422 21.973 4.9883 31.195 4.9883 9.2344 0 22.312-1.2461 31.215-4.9922zm0-20.883c-1.6055 2.0234-12.184 6.4297-31.215 6.4297-19 0-29.559-4.3867-31.195-6.418v-9.7773c8.9062 3.7422 21.973 4.9883 31.195 4.9883 9.2344 0 22.312-1.2461 31.215-4.9922zm0-21.074c-1.6016 2.0234-12.176 6.4336-31.215 6.4336-19.004 0-29.562-4.3945-31.195-6.418v-9.7773c8.9062 3.7422 21.973 4.9883 31.195 4.9883 9.2344 0 22.312-1.2461 31.215-4.9922zm-31.215-26.699c17.863 0 28.285 3.8828 30.824 6.0352-2.5352 2.1523-12.957 6.0312-30.824 6.0312-17.863 0-28.285-3.8789-30.824-6.0312 2.5391-2.1523 12.957-6.0352 30.824-6.0352zm-89.891 124.39c0-17.348 14.008-31.457 31.223-31.457 7.1641 0 13.891 2.3789 19.457 6.8867 5.9102 4.7344 9.9141 11.461 11.266 18.887 0.32812 1.8906 0.48828 3.8047 0.48828 5.6836 0 3.9062-0.71094 7.7344-2.1328 11.41-1.875 4.9141-4.9492 9.2461-8.9688 12.594-5.5469 4.8008-12.695 7.4531-20.117 7.4531-17.207 0-31.215-14.113-31.215-31.457zm62.125 27.141c2.1797-2.4922 4.0625-5.25 5.5781-8.2266 6.4102 1.4258 14.07 2.2383 22.207 2.2383 9.2305 0 22.297-1.2461 31.195-5.0039v8.8789c-1.5703 2.0156-12.152 6.4375-31.195 6.4375-13.637-0.007812-22.992-2.2305-27.785-4.3242z"/>
  <path d="m370.67 500.48h7.7891c2.7266 0 4.9258-2.207 4.9258-4.9258s-2.207-4.9258-4.9258-4.9258h-2.8555v-0.15625c0-2.7266-2.207-4.9258-4.9258-4.9258s-4.9258 2.207-4.9258 4.9258v1.1523c-4.5703 1.9336-7.7891 6.4844-7.7891 11.77 0 7.0391 5.7031 12.766 12.715 12.766 1.5781 0 2.8555 1.3047 2.8555 2.9102 0 1.6055-1.2812 2.9102-2.8555 2.9102h-7.7891c-2.7266 0-4.9258 2.207-4.9258 4.9258s2.207 4.9258 4.9258 4.9258h2.8555v0.15234c0 2.7266 2.207 4.9258 4.9258 4.9258s4.9258-2.207 4.9258-4.9258v-1.1484c4.5703-1.9336 7.7891-6.4844 7.7891-11.77 0-7.043-5.7031-12.773-12.715-12.773-1.5781 0-2.8555-1.3047-2.8555-2.9062 0-1.6016 1.2773-2.9062 2.8555-2.9062z"/>
  <path d="m585.64 337.39c-15.25 0-41.07 3.3438-41.07 15.895 0 0.039063 0.015625 0.070313 0.015625 0.10938v21.625c0 0.023437-0.015625 0.046874-0.015625 0.070312 0 0.039062 0.015625 0.070312 0.015625 0.10938v20.012c0 0.023437-0.015625 0.046875-0.015625 0.070312 0 0.039063 0.015625 0.070313 0.015625 0.10938v20.012c0 0.023438-0.015625 0.046875-0.015625 0.070312 0 0.039063 0.015625 0.070313 0.015625 0.10938v20.012c0 0.023438-0.015625 0.046875-0.015625 0.070313 0 0.039062 0.015625 0.070312 0.015625 0.10938v20.012c0 0.023438-0.015625 0.046876-0.015625 0.070313 0 0.039063 0.015625 0.070313 0.015625 0.10938v17.941c-5.4648-2.6133-11.488-4.0312-17.613-4.0312-22.652 0-41.074 18.535-41.074 41.316s18.426 41.316 41.074 41.316c8.3516 0 16.434-2.5625 23.148-7.2266 7.9766 5.2539 23.285 7.2266 35.539 7.2266 15.121 0 40.594-3.3047 40.996-15.594 0.011718-0.085938 0.058594-0.16406 0.058594-0.26562v-183.36c0-12.547-25.812-15.895-41.074-15.895zm-17.609 173.41c5.375 0.86328 11.402 1.3516 17.633 1.3516 9.2266 0 22.297-1.2461 31.195-4.9922v8.8633c0 0.003906-0.003907 0.011718-0.003907 0.015624-1.5469 2.0195-12.105 6.4648-31.191 6.4648-6.8828 0-13.355-0.59375-18.793-1.6836 0.75-3.1445 1.1758-6.3516 1.1758-9.6133 0-0.13281-0.015625-0.26953-0.015625-0.40625zm48.824-14.941c-1.5703 2.0156-12.152 6.4375-31.195 6.4375-6.9414 0-13.516-0.64453-19.004-1.7695-1.0625-3.9766-2.7148-7.7383-4.8672-11.191 7.8633 1.918 16.934 2.6211 23.844 2.6211 9.2344 0 22.312-1.2461 31.215-4.9922l0.003906 8.8945zm0-20.188c-1.6016 2.0234-12.176 6.4297-31.215 6.4297-19.004 0-29.562-4.3867-31.195-6.418v-8.9023c8.9062 3.7422 21.973 4.9883 31.195 4.9883 9.2344 0 22.312-1.2461 31.215-4.9922zm0-20.195c-1.6016 2.0234-12.176 6.4336-31.215 6.4336-19.004 0-29.562-4.3945-31.195-6.418v-8.9023c8.9062 3.7422 21.973 4.9883 31.195 4.9883 9.2344 0 22.312-1.2461 31.215-4.9922zm0-20.195c-1.6016 2.0234-12.176 6.4336-31.215 6.4336-19.004 0-29.562-4.3945-31.195-6.418v-8.9023c8.9062 3.7422 21.973 4.9883 31.195 4.9883 9.2344 0 22.312-1.2461 31.215-4.9922zm0-20.188c-1.6016 2.0234-12.176 6.4297-31.215 6.4297-19.004 0-29.562-4.3867-31.195-6.418v-8.9102c8.9062 3.7422 21.973 4.9883 31.195 4.9883 9.2344 0 22.312-1.2461 31.215-4.9922zm0-20.199c-1.6016 2.0234-12.176 6.4297-31.215 6.4297-19.004 0-29.562-4.3867-31.195-6.418v-8.9023c8.9062 3.7422 21.973 4.9883 31.195 4.9883 9.2344 0 22.312-1.2461 31.215-4.9922zm0-20.199c-1.6016 2.0234-12.176 6.4336-31.215 6.4336-19.004 0-29.562-4.3945-31.195-6.418v-10.52c8.9062 3.7422 21.973 4.9883 31.195 4.9883 9.2344 0 22.312-1.2461 31.215-4.9922zm-31.215-27.441c17.863 0 28.285 3.8828 30.824 6.0352-2.5391 2.1523-12.965 6.0312-30.824 6.0312-17.855 0-28.277-3.8789-30.816-6.0312 2.5391-2.1484 12.957-6.0352 30.816-6.0352zm-89.883 163.96c0-17.348 14.008-31.457 31.215-31.457 7.0703 0 13.969 2.4375 19.457 6.8867 5.9141 4.7344 9.9219 11.461 11.266 18.887 0.32812 1.8906 0.48828 3.8047 0.48828 5.6836 0 3.9062-0.71094 7.7344-2.1328 11.41-1.875 4.9062-4.9492 9.2461-8.9609 12.594-5.5508 4.8008-12.699 7.4531-20.121 7.4531-17.207 0-31.211-14.113-31.211-31.457zm62.125 27.141c2.1797-2.4922 4.0547-5.25 5.5703-8.2266 6.4102 1.4258 14.078 2.2383 22.215 2.2383 9.2266 0 22.297-1.2461 31.195-5.0039v8.8711c-1.5703 2.0156-12.152 6.4375-31.195 6.4375-13.641 0-22.996-2.2227-27.785-4.3164z"/>
  <path d="m526.98 500.48h7.7891c2.7266 0 4.9258-2.207 4.9258-4.9258s-2.207-4.9258-4.9258-4.9258h-2.8555v-0.15625c0-2.7266-2.207-4.9258-4.9258-4.9258s-4.9258 2.207-4.9258 4.9258v1.1523c-4.5703 1.9414-7.7852 6.4844-7.7852 11.77 0 7.0391 5.7031 12.766 12.711 12.766 1.5781 0 2.8555 1.3047 2.8555 2.9102 0 1.6055-1.2812 2.9102-2.8555 2.9102h-7.7852c-2.7266 0-4.9258 2.207-4.9258 4.9258s2.207 4.9258 4.9258 4.9258h2.8555v0.15234c0 2.7266 2.207 4.9258 4.9258 4.9258s4.9258-2.207 4.9258-4.9258v-1.1484c4.5703-1.9336 7.7891-6.4844 7.7891-11.77 0-7.043-5.7031-12.773-12.715-12.773-1.5703 0-2.8555-1.3047-2.8555-2.9062-0.007812-1.6016 1.2734-2.9062 2.8516-2.9062z"/>
 </g>
</svg>