<?xml version="1.0" encoding="UTF-8"?>
<!-- The Best Svg Icon site in the world: iconSvg.co, Visit us! https://iconsvg.co -->
<svg fill="#000000" width="800px" height="800px" version="1.1" viewBox="144 144 512 512" xmlns="http://www.w3.org/2000/svg">
 <g>
  <path d="m226.81 612.54v-7.8711c-6.2617 0-12.27-2.4883-16.699-6.918-4.4258-4.4297-6.9141-10.434-6.9141-16.699 0-4.3477 3.5234-7.8711 7.8711-7.8711 4.3477 0 7.8711 3.5234 7.8711 7.8711 0 2.0898 0.82812 4.0898 2.3047 5.5664 1.4766 1.4766 3.4805 2.3047 5.5664 2.3047h15.746c4.3477 0 7.8711-3.5234 7.8711-7.8711 0-4.3477-3.5234-7.8711-7.8711-7.8711h-15.746c-8.4375 0-16.23-4.5-20.449-11.809s-4.2188-16.309 0-23.617c4.2188-7.3047 12.012-11.809 20.449-11.809v-7.8711c0-4.3477 3.5273-7.8711 7.875-7.8711-19.688 0-37.879 10.504-47.723 27.551-9.8438 17.051-9.8438 38.055 0 55.105s28.035 27.551 47.723 27.551c-4.3477 0-7.875-3.5234-7.875-7.8711z"/>
  <path d="m234.69 510.21c2.0859 0 4.0898 0.82812 5.5664 2.3047 1.4766 1.4766 2.3047 3.4805 2.3047 5.5664v7.8711c6.2617 0 12.27 2.4883 16.699 6.918 4.4297 4.4297 6.918 10.438 6.918 16.699 0 4.3477-3.5273 7.8711-7.875 7.8711-4.3477 0-7.8711-3.5234-7.8711-7.8711 0-2.0859-0.82813-4.0898-2.3047-5.5664s-3.4805-2.3047-5.5664-2.3047h-15.746c-4.3477 0-7.8711 3.5234-7.8711 7.8711s3.5234 7.8711 7.8711 7.8711h15.746c8.4375 0 16.234 4.5039 20.453 11.809 4.2188 7.3086 4.2188 16.309 0 23.617-4.2188 7.3086-12.016 11.809-20.453 11.809v7.8711c0 2.0898-0.82812 4.0898-2.3047 5.5664-1.4766 1.4766-3.4805 2.3047-5.5664 2.3047 19.684 0 37.875-10.5 47.719-27.551s9.8438-38.055 0-55.105c-9.8438-17.047-28.035-27.551-47.719-27.551z"/>
  <path d="m392.12 612.54v-7.8711c-6.2617 0-12.27-2.4883-16.699-6.918-4.4258-4.4297-6.9141-10.434-6.9141-16.699 0-4.3477 3.5234-7.8711 7.8711-7.8711 4.3477 0 7.8711 3.5234 7.8711 7.8711 0 2.0898 0.82812 4.0898 2.3047 5.5664 1.4766 1.4766 3.4805 2.3047 5.5664 2.3047h15.746c4.3477 0 7.8711-3.5234 7.8711-7.8711 0-4.3477-3.5234-7.8711-7.8711-7.8711h-15.746c-8.4375 0-16.23-4.5-20.449-11.809s-4.2188-16.309 0-23.617c4.2188-7.3047 12.012-11.809 20.449-11.809v-7.8711c0-4.3477 3.5273-7.8711 7.875-7.8711-19.688 0-37.879 10.504-47.723 27.551-9.8438 17.051-9.8438 38.055 0 55.105s28.035 27.551 47.723 27.551c-4.3477 0-7.875-3.5234-7.875-7.8711z"/>
  <path d="m400 510.21c2.0859 0 4.0898 0.82812 5.5664 2.3047 1.4766 1.4766 2.3047 3.4805 2.3047 5.5664v7.8711c6.2617 0 12.27 2.4883 16.699 6.918 4.4297 4.4297 6.918 10.438 6.918 16.699 0 4.3477-3.5273 7.8711-7.875 7.8711-4.3477 0-7.8711-3.5234-7.8711-7.8711 0-2.0859-0.82813-4.0898-2.3047-5.5664s-3.4805-2.3047-5.5664-2.3047h-15.746c-4.3477 0-7.8711 3.5234-7.8711 7.8711s3.5234 7.8711 7.8711 7.8711h15.746c8.4375 0 16.234 4.5039 20.453 11.809 4.2188 7.3086 4.2188 16.309 0 23.617-4.2188 7.3086-12.016 11.809-20.453 11.809v7.8711c0 2.0898-0.82812 4.0898-2.3047 5.5664-1.4766 1.4766-3.4805 2.3047-5.5664 2.3047 19.684 0 37.875-10.5 47.719-27.551s9.8438-38.055 0-55.105c-9.8438-17.047-28.035-27.551-47.719-27.551z"/>
  <path d="m557.44 612.54v-7.8711c-6.2617 0-12.27-2.4883-16.699-6.918-4.4258-4.4297-6.9141-10.434-6.9141-16.699 0-4.3477 3.5234-7.8711 7.8711-7.8711 4.3477 0 7.8711 3.5234 7.8711 7.8711 0 2.0898 0.82812 4.0898 2.3047 5.5664 1.4766 1.4766 3.4805 2.3047 5.5664 2.3047h15.746c4.3477 0 7.8711-3.5234 7.8711-7.8711 0-4.3477-3.5234-7.8711-7.8711-7.8711h-15.746c-8.4375 0-16.23-4.5-20.449-11.809s-4.2188-16.309 0-23.617c4.2188-7.3047 12.012-11.809 20.449-11.809v-7.8711c0-4.3477 3.5273-7.8711 7.875-7.8711-19.688 0-37.879 10.504-47.723 27.551-9.8438 17.051-9.8438 38.055 0 55.105s28.035 27.551 47.723 27.551c-4.3477 0-7.875-3.5234-7.875-7.8711z"/>
  <path d="m565.31 510.21c2.0859 0 4.0898 0.82812 5.5664 2.3047 1.4766 1.4766 2.3047 3.4805 2.3047 5.5664v7.8711c6.2617 0 12.27 2.4883 16.699 6.918 4.4297 4.4297 6.918 10.438 6.918 16.699 0 4.3477-3.5273 7.8711-7.875 7.8711-4.3477 0-7.8711-3.5234-7.8711-7.8711 0-2.0859-0.82813-4.0898-2.3047-5.5664s-3.4805-2.3047-5.5664-2.3047h-15.746c-4.3477 0-7.8711 3.5234-7.8711 7.8711s3.5234 7.8711 7.8711 7.8711h15.746c8.4375 0 16.234 4.5039 20.453 11.809 4.2188 7.3086 4.2188 16.309 0 23.617-4.2188 7.3086-12.016 11.809-20.453 11.809v7.8711c0 2.0898-0.82812 4.0898-2.3047 5.5664-1.4766 1.4766-3.4805 2.3047-5.5664 2.3047 19.684 0 37.875-10.5 47.719-27.551s9.8438-38.055 0-55.105c-9.8438-17.047-28.035-27.551-47.719-27.551z"/>
  <path d="m321.28 384.25h59.434l-39.438-104.86c-6.0469 3.3867-11.086 8.3203-14.602 14.297-3.5117 5.9766-5.375 12.777-5.3945 19.711z"/>
  <path d="m383.94 298.92-12.441-24.875h-10.863c-1.4766 0.078125-2.9453 0.23828-4.4062 0.47266l22.043 58.566z"/>
  <path d="m401.18 305.54h-2.3633l-9.4453 56.914 8.1875 21.805h4.8789l8.2656-21.961z"/>
  <path d="m478.72 313.41c-0.019531-6.9336-1.8789-13.734-5.3945-19.711-3.5117-5.9766-8.5508-10.91-14.602-14.297l-39.438 104.86h59.434z"/>
  <path d="m443.77 274.52c-1.457-0.23438-2.9297-0.39453-4.4062-0.47266h-10.863l-12.438 24.875 5.668 34.008z"/>
  <path d="m389.14 274.05 7.8711 15.742h5.9805l7.875-15.742z"/>
  <path d="m431.49 211.07c0 17.391-14.098 31.488-31.488 31.488s-31.488-14.098-31.488-31.488c0-17.391 14.098-31.488 31.488-31.488s31.488 14.098 31.488 31.488"/>
  <path d="m234.69 478.72c2.0859 0 4.0898-0.82812 5.5664-2.3047 1.4766-1.4766 2.3047-3.4805 2.3047-5.5664v-15.746h149.57v15.746c0 4.3477 3.5273 7.8711 7.875 7.8711s7.8711-3.5234 7.8711-7.8711v-15.746h149.57v15.746c0 4.3477 3.5273 7.8711 7.875 7.8711s7.8711-3.5234 7.8711-7.8711v-23.617c0-2.0859-0.82812-4.0898-2.3047-5.5664-1.4766-1.4766-3.4805-2.3047-5.5664-2.3047h-157.44v-15.746c0-4.3477-3.5234-7.8711-7.8711-7.8711s-7.875 3.5234-7.875 7.8711v15.742l-157.44 0.003906c-4.3477 0-7.875 3.5234-7.875 7.8711v23.617c0 2.0859 0.83203 4.0898 2.3086 5.5664 1.4766 1.4766 3.4766 2.3047 5.5664 2.3047z"/>
 </g>
</svg>