<?xml version="1.0" encoding="UTF-8"?>
<!-- The Best Svg Icon site in the world: iconSvg.co, Visit us! https://iconsvg.co -->
<svg fill="#000000" width="800px" height="800px" version="1.1" viewBox="144 144 512 512" xmlns="http://www.w3.org/2000/svg">
 <g>
  <path d="m266.26 479.02c-22.504 0-43.738-9.1133-59.785-25.656-15.898-16.391-24.652-37.902-24.652-60.57 0-3.8047 3.082-6.8867 6.8867-6.8867h156.19c3.8047 0 6.8867 3.082 6.8867 6.8867-0.003906 46.738-39.168 86.227-85.527 86.227zm-70.332-79.34c3.5078 36.191 34.289 65.566 70.332 65.566 36.598 0 67.852-29.375 71.41-65.566z"/>
  <path d="m216.26 399.68c-0.76953 0-1.5547-0.12891-2.3164-0.40625-3.582-1.2812-5.4492-5.2227-4.168-8.8047l45.988-128.64c0.95312-2.668 3.4414-4.4805 6.2734-4.5664 2.8516-0.089844 5.4297 1.5703 6.543 4.1719l55.102 128.64c1.4961 3.4961-0.12109 7.5469-3.6211 9.043s-7.5469-0.12109-9.043-3.6211l-48.191-112.51-40.082 112.12c-1.0039 2.8164-3.6562 4.5703-6.4844 4.5703z"/>
  <path d="m533.74 449.5c-46.504 0-84.332-37.797-84.332-84.258 0-3.8047 3.082-6.8867 6.8867-6.8867h154.89c3.8047 0 6.8867 3.082 6.8867 6.8867 0 46.457-37.832 84.258-84.332 84.258zm-70.223-77.371c3.4766 35.641 33.645 63.594 70.223 63.594s66.746-27.953 70.223-63.594z"/>
  <path d="m583.63 372.13c-2.8281 0-5.4805-1.7578-6.4883-4.5742l-39.98-112.09-48.184 112.49c-1.4961 3.4961-5.5508 5.1133-9.043 3.6211-3.4961-1.4961-5.1172-5.5469-3.6211-9.043l55.102-128.64c1.1172-2.6055 3.7148-4.2812 6.543-4.1719 2.832 0.085938 5.3242 1.9023 6.2734 4.5703l45.883 128.64c1.2773 3.582-0.58984 7.5234-4.1719 8.8008-0.76562 0.27344-1.5469 0.40234-2.3125 0.40234z"/>
  <path d="m445.77 252.71c-3.5781 0-6.5977-2.7656-6.8633-6.3867-0.27734-3.793 2.5742-7.0938 6.3711-7.3711l135.27-9.8477c3.7617-0.28125 7.0938 2.5742 7.3711 6.3711 0.27734 3.793-2.5742 7.0938-6.3711 7.3711l-135.27 9.8477c-0.17188 0.007813-0.33984 0.015626-0.50781 0.015626z"/>
  <path d="m226.79 272.38c-3.5469 0-6.5625-2.7266-6.8594-6.3242-0.3125-3.793 2.5078-7.1172 6.3008-7.4297l127.21-10.453c3.7852-0.30859 7.1172 2.5078 7.4297 6.3008 0.3125 3.793-2.5078 7.1172-6.3008 7.4297l-127.21 10.453c-0.19141 0.015625-0.38281 0.023437-0.57031 0.023437z"/>
  <path d="m492.48 538.06h-186.96c-3.8047 0-6.8867-3.082-6.8867-6.8867v-39.359c0-3.8047 3.082-6.8867 6.8867-6.8867h77.012c1.9297 0 3.7734 0.80859 5.0781 2.2344 1.3047 1.4219 1.9531 3.3281 1.7852 5.25l-0.039062 0.43359c-0.097657 1.1445 0.44531 1.9258 0.78125 2.293 0.33203 0.36328 1.0625 0.97266 2.2109 0.97266h23.938c1.1836 0 1.9219-0.64062 2.2578-1.0195 0.33594-0.38281 0.875-1.1992 0.71875-2.3711-0.25781-1.9688 0.34766-3.9531 1.6602-5.4453 1.3086-1.4844 3.1914-2.3359 5.168-2.3359h0.023437l67.145 0.23047c1.8438 0.007813 3.6094 0.75391 4.9023 2.0742 1.2891 1.3203 1.9961 3.1016 1.9609 4.9492l-0.75781 39.121c-0.066406 3.7461-3.1289 6.7461-6.8828 6.7461zm-180.07-13.773h173.32l0.49219-25.371-54.125-0.18359c-0.70312 1.9805-1.7812 3.8281-3.1992 5.4414-3.1836 3.6289-7.7812 5.707-12.609 5.707h-23.938c-4.6914 0-9.1953-1.9844-12.367-5.4375-1.5352-1.6758-2.6992-3.6328-3.4453-5.7422h-64.125z"/>
  <path d="m416.29 509.88h-23.938c-4.6914 0-9.1992-1.9844-12.367-5.4414-3.168-3.457-4.7539-8.1211-4.3477-12.793l16.637-191.32c0.30859-3.5586 3.2891-6.293 6.8633-6.293h2.0586c3.4609 0 6.3828 2.5664 6.8281 5.9961l24.902 190.9c0.625 4.7891-0.84375 9.6133-4.0312 13.242-3.1836 3.6328-7.7773 5.7109-12.605 5.7109zm-14.961-154.68-11.969 137.64c-0.097657 1.1445 0.44531 1.9258 0.77734 2.2891 0.33203 0.36328 1.0664 0.97266 2.2148 0.97266h23.938c1.1836 0 1.9219-0.64062 2.2578-1.0195 0.33594-0.38281 0.875-1.1992 0.71875-2.3711z"/>
  <path d="m262.25 271.04c-3.8047 0-6.8867-3.082-6.8867-6.8867v-36.664c0-3.8047 3.082-6.8867 6.8867-6.8867 3.8047 0 6.8867 3.082 6.8867 6.8867v36.664c0.003907 3.8008-3.082 6.8867-6.8867 6.8867z"/>
  <path d="m537.75 243.49c-3.8047 0-6.8867-3.082-6.8867-6.8867v-36.664c0-3.8047 3.082-6.8867 6.8867-6.8867s6.8867 3.082 6.8867 6.8867v36.664c0 3.8008-3.082 6.8867-6.8867 6.8867z"/>
  <path d="m400.43 307.81c-29.398 0-53.312-23.672-53.312-52.77 0-29.156 23.918-52.879 53.312-52.879 29.336 0 53.203 23.719 53.203 52.879 0 29.098-23.867 52.77-53.203 52.77zm0-91.871c-21.801 0-39.535 17.539-39.535 39.102 0 21.5 17.734 38.992 39.535 38.992 21.738 0 39.426-17.492 39.426-38.992 0-21.562-17.688-39.102-39.426-39.102z"/>
  <path d="m400.39 268.45c-7.4609 0-13.531-6.0352-13.531-13.457 0-7.4297 6.0703-13.473 13.531-13.473 7.4531 0 13.516 6.043 13.516 13.473 0 7.4219-6.0625 13.457-13.516 13.457zm0-13.777c-0.16016 0-0.25781 0.16797-0.25781 0.32031 0 0.14844 0.089844 0.30469 0.25781 0.30469 0.15234 0 0.24219-0.16016 0.24219-0.30469 0-0.15234-0.10156-0.32031-0.24219-0.32031z"/>
  <path d="m620.4 606.95h-440.81c-3.8047 0-6.8867-3.082-6.8867-6.8867 0-3.8047 3.082-6.8867 6.8867-6.8867h440.8c3.8047 0 6.8867 3.082 6.8867 6.8867 0.003906 3.8008-3.0781 6.8867-6.8828 6.8867z"/>
  <path d="m531.84 567.59h-265.68c-3.8047 0-6.8867-3.082-6.8867-6.8867v-29.52c0-3.8047 3.082-6.8867 6.8867-6.8867h265.68c3.8047 0 6.8867 3.082 6.8867 6.8867v29.52c0.003907 3.8008-3.082 6.8867-6.8867 6.8867zm-258.79-13.777h251.91v-15.742h-251.91v15.742z"/>
  <path d="m590.88 606.95h-383.76c-3.8047 0-6.8867-3.082-6.8867-6.8867v-39.359c0-3.8047 3.082-6.8867 6.8867-6.8867h383.76c3.8047 0 6.8867 3.082 6.8867 6.8867v39.359c0 3.8008-3.082 6.8867-6.8867 6.8867zm-376.88-13.777h369.98v-25.586h-369.98v25.586z"/>
 </g>
</svg>