<?xml version="1.0" encoding="UTF-8"?>
<!-- The Best Svg Icon site in the world: iconSvg.co, Visit us! https://iconsvg.co -->
<svg fill="#000000" width="800px" height="800px" version="1.1" viewBox="144 144 512 512" xmlns="http://www.w3.org/2000/svg">
 <g>
  <path d="m599.05 473.98h-76.906v-77.59c0-1.1953-0.47656-2.3438-1.3242-3.1914-0.84766-0.84375-1.9961-1.3164-3.1953-1.3164h-81.414c-2.4922 0-4.5117 2.0195-4.5195 4.5078v2.5c-11.098-22.258-26.383-46.621-46.316-58.273 9.8398-14.219 37.707-56.434 34.008-74.961-0.92187-4.7773-3.8672-8.918-8.0781-11.355-13.227-7.9219-38.375-1.9688-45.992 0.11719-34.34-20.664-59.039-5.5781-66.176-0.10937-8.0781-2.1758-32.59-7.8711-45.617 0v0.003906c-4.2031 2.4375-7.1484 6.582-8.0703 11.355-3.7109 18.547 24.719 60.793 34.785 75.012-39.734 23.523-67.02 103.73-70.07 113.04-0.078124 0.20312-0.14453 0.41016-0.19531 0.62109-2.6758 11.059-25.723 108.77-11.453 135.45 8.4609 15.824 55.047 19.582 97.418 19.582 30.348 0 58.559-1.918 69.098-2.7344l-0.003906-0.003906c0.57812-0.050781 1.1406-0.20703 1.6641-0.46094h232.36c2.4922-0.007813 4.5078-2.0273 4.5078-4.5195v-123.16c0-2.4922-2.0156-4.5117-4.5078-4.5156zm-167.36 123.16h-72.391v-32.02h72.395zm9.0312-114.14h72.438v32.039h-72.434zm72.438-9.0117h-72.434v-32.02h72.434zm-81.418 82.105h-72.441v-32.02h72.395zm9.0312-32.02h72.387v32.02h-72.434zm81.418 0h72.344v32.02h-72.391zm72.395-9.0312-72.441-0.003906v-32.02h72.391zm-153.81-114.14 72.383-0.003907v32.02h-72.434zm-186.48-133.46c0.41016-2.2852 1.832-4.2617 3.8672-5.3789 9.6914-5.8164 32.688-0.83594 40.727 1.5859v-0.003906c1.5703 0.45703 3.2617 0.042969 4.4375-1.0898 0.98438-0.90625 23.312-21.824 58.902 0.58984h0.003906c1.1055 0.68359 2.457 0.86719 3.707 0.5 8.0312-2.4219 30.996-7.4102 40.719-1.5859v0.003907c2.0352 1.1172 3.457 3.0938 3.8672 5.3789 2.5391 12.676-19.051 48.984-34.125 70.277h-87.184c-15.379-21.281-37.449-57.609-34.922-70.277zm-47.82 318.1c-10.688-19.977 5.1562-99.621 12.223-128.91 11.09-33.789 38.062-94.582 69.246-109.9h89.762c18.262 8.9258 35.73 32.473 53.363 72.02h-0.007812c0.16406 0.35547 0.375 0.6875 0.62891 0.98438v95.309h-76.898c-1.1992 0-2.3477 0.47266-3.1953 1.3203s-1.3242 2-1.3203 3.1992v79.035c-56.375 3.3555-135.44 2.5781-143.8-13.059zm234.25-20.41h72.434v32.02h-72.434zm153.81 32.02h-72.391v-32.02h72.391z"/>
  <path d="m602.27 247.58c-1.6133-0.24609-39.418-6.5352-39.418-52.438-0.11328-2.4102-2.1016-4.3086-4.5117-4.3086-2.4141 0-4.3984 1.8984-4.5117 4.3086 0 45.902-37.805 52.152-39.418 52.438-2.2148 0.32812-3.8516 2.2266-3.8516 4.4648s1.6367 4.1406 3.8516 4.4688c1.6133 0.23438 39.418 6.5234 39.418 52.426-0.058594 1.2344 0.39062 2.4375 1.2422 3.332 0.85547 0.89062 2.0352 1.3984 3.2695 1.3984s2.4141-0.50781 3.2656-1.3984c0.85547-0.89453 1.3047-2.0977 1.2461-3.332 0-45.902 37.805-52.152 39.41-52.426 2.2109-0.32812 3.8516-2.2305 3.8516-4.4688s-1.6406-4.1367-3.8516-4.4648zm-43.938 35.168h0.003907c-5.3047-13.652-15.75-24.676-29.098-30.703 13.348-6.0273 23.797-17.055 29.098-30.711 5.3047 13.656 15.754 24.684 29.105 30.711-13.348 6.0273-23.797 17.051-29.105 30.703z"/>
  <path d="m422.88 322.77c1.1016 0.15625 27.199 4.3477 27.199 36.406 0.11328 2.4102 2.0977 4.3047 4.5117 4.3047 2.4141 0 4.3984-1.8945 4.5117-4.3047 0-31.824 26.105-36.223 27.207-36.406 2.2148-0.33203 3.8516-2.2305 3.8516-4.4688s-1.6367-4.1367-3.8516-4.4688c-1.1211-0.16797-27.227-4.5742-27.227-36.406 0.058594-1.2344-0.39062-2.4375-1.2461-3.3281-0.85156-0.89453-2.0312-1.3984-3.2656-1.3984s-2.4141 0.50391-3.2656 1.3984c-0.85547 0.89062-1.3047 2.0938-1.2461 3.3281 0 31.793-26.066 36.211-27.219 36.406-2.2109 0.33203-3.8516 2.2305-3.8516 4.4688s1.6406 4.1367 3.8516 4.4688zm31.703-23.262h0.003906c3.8242 8.0664 10.168 14.676 18.074 18.824-7.9023 4.1406-14.246 10.734-18.074 18.793-3.8242-8.0586-10.164-14.656-18.066-18.793 7.9062-4.1484 14.246-10.758 18.066-18.824z"/>
  <path d="m336.93 512.24c10.461-1.5234 19.43-8.2617 23.809-17.887 4.375-9.625 3.5586-20.812-2.1719-29.699-5.7266-8.8867-15.582-14.25-26.152-14.238-4.375 0.003906-8.5703-1.7305-11.668-4.8242-3.0938-3.0898-4.832-7.2852-4.8359-11.66 0-4.375 1.7344-8.5703 4.8281-11.664s7.2891-4.832 11.66-4.8359c4.375 0 8.5703 1.7383 11.664 4.832 3.0938 3.0898 4.832 7.2852 4.832 11.66 0 2.4961 2.0234 4.5195 4.5156 4.5195 2.4961 0 4.5195-2.0234 4.5195-4.5195-0.023438-5.9727-2.1367-11.75-5.9727-16.328-3.832-4.5781-9.1523-7.6719-15.027-8.7422v-7.3828c0-2.4922-2.0234-4.5156-4.5156-4.5156-2.4961 0-4.5156 2.0234-4.5156 4.5156v7.3828c-8.457 1.5-15.586 7.1562-18.973 15.047-3.3906 7.8906-2.582 16.953 2.1523 24.117 4.7305 7.168 12.75 11.469 21.336 11.453 5.8477 0 11.457 2.3242 15.594 6.457 4.1328 4.1367 6.457 9.7461 6.457 15.594 0 5.8477-2.3242 11.457-6.457 15.594-4.1367 4.1328-9.7461 6.457-15.594 6.457-5.8477 0-11.457-2.3242-15.594-6.457-4.1367-4.1367-6.457-9.7461-6.457-15.594 0.054687-1.2344-0.39453-2.4375-1.2461-3.3281-0.85156-0.89453-2.0312-1.3984-3.2656-1.3984s-2.418 0.50391-3.2695 1.3984c-0.85156 0.89063-1.3008 2.0938-1.2422 3.3281 0.007812 7.457 2.6953 14.664 7.5703 20.309 4.8789 5.6445 11.617 9.3477 18.996 10.441v7.3008c0 2.4961 2.0234 4.5156 4.5156 4.5156 2.4961 0 4.5195-2.0195 4.5195-4.5156z"/>
 </g>
</svg>