<?xml version="1.0" encoding="UTF-8"?>
<!-- The Best Svg Icon site in the world: iconSvg.co, Visit us! https://iconsvg.co -->
<svg fill="#000000" width="800px" height="800px" version="1.1" viewBox="144 144 512 512" xmlns="http://www.w3.org/2000/svg">
 <g>
  <path d="m580.09 340.48h-287.57l-7.7031-22.305c-9.7305-28.16-39.633-43.254-68.047-34.406-5.5312 1.7305-8.6289 7.6211-6.8945 13.152 1.7227 5.5195 7.5898 8.5859 13.141 6.8945 17.539-5.4492 35.969 3.8516 41.965 21.211l73.566 212.84v0.019531c6.9805 20.172 26.02 33.746 47.367 33.746h194.2c5.7852 0 10.496-4.6914 10.496-10.496 0-5.8047-4.7109-10.496-10.496-10.496h-194.21c-12.406 0-23.469-7.8945-27.531-19.605 0-0.011719 0-0.011719-0.011719-0.011719l-7.2617-21.055h189.37c27.648 0 50.117-22.484 50.117-50.098v-108.89c0-5.8047-4.6914-10.496-10.496-10.496z"/>
  <path d="m436.82 166.46c-5.7852 0-10.496 4.6914-10.496 10.496v70.859h-8.8359c-3.7383 0-7.2227 1.9961-9.0781 5.2461-1.8672 3.2539-1.8672 7.2422 0 10.496l19.332 33.473c1.8789 3.2539 5.3438 5.2461 9.0781 5.2461 3.7461 0 7.2227-1.9961 9.1016-5.2461l19.332-33.473c1.8672-3.2539 1.8672-7.2422 0-10.496-1.8906-3.2539-5.3516-5.2461-9.0898-5.2461h-8.8477v-70.859c0-5.8047-4.6836-10.496-10.496-10.496z"/>
  <path d="m380.48 606.86c0 14.734-11.945 26.68-26.68 26.68-14.738 0-26.684-11.945-26.684-26.68 0-14.738 11.945-26.684 26.684-26.684 14.734 0 26.68 11.945 26.68 26.684"/>
  <path d="m589.35 606.86c0 14.734-11.945 26.68-26.684 26.68-14.734 0-26.68-11.945-26.68-26.68 0-14.738 11.945-26.684 26.68-26.684 14.738 0 26.684 11.945 26.684 26.684"/>
 </g>
</svg>