<?xml version="1.0" encoding="UTF-8"?>
<!-- The Best Svg Icon site in the world: iconSvg.co, Visit us! https://iconsvg.co -->
<svg fill="#000000" width="800px" height="800px" version="1.1" viewBox="144 144 512 512" xmlns="http://www.w3.org/2000/svg">
 <g>
  <path d="m595.45 598.11h-72.137c-23.359-34.32-62.621-52.367-116.81-53.688 22.238-36.715 71.371-46.453 71.883-46.555 1.1016-0.21094 2.0898-0.80078 2.7969-1.6719 10.973 19.055 31.09 31.008 53.074 31.531 21.984 0.52734 42.648-10.457 54.516-28.969 11.867-18.512 13.223-41.871 3.5703-61.629-9.6523-19.758-28.91-33.051-50.809-35.07-21.895-2.0156-43.258 7.5312-56.359 25.195-13.098 17.66-16.039 40.879-7.7539 61.246-0.26562 0.007812-0.53125 0.035156-0.79688 0.078125-2.0781 0.39453-45.922 9.0312-71.902 41.852l0.003906-110.95c4.6641-4.5469 20.516-19.816 40.797-37.473 6.2969 6.6328 13.512 10.824 21.551 12.496l-0.003906 0.003906c2.6172 0.54297 5.2812 0.8125 7.9531 0.80859 8.9844-0.15234 17.758-2.7773 25.348-7.5898 35.324-22.887 28.309-68.113 27.984-70.031-0.050781-0.25781-0.12109-0.51562-0.20703-0.76562v-0.11719c-0.070312-0.19141-0.15625-0.375-0.25391-0.55078-0.015625-0.039063-0.035156-0.078125-0.058594-0.10938l-0.089843-0.14844c-0.125-0.20703-0.26563-0.39844-0.42188-0.58203l-0.078124-0.089844-0.003907 0.003907c-0.16797-0.19141-0.35156-0.36328-0.55078-0.52344-0.23047-0.16406-0.47656-0.30469-0.73828-0.42188h-0.070313 0.003906c-0.22656-0.11719-0.46484-0.21875-0.71094-0.29688h-0.097656c-0.24609-0.074219-0.5-0.12891-0.75781-0.16406h-0.089844 0.003907c-0.27344-0.03125-0.54688-0.03125-0.81641 0l-36.406 2.1758-0.003906-0.003907c-0.089844-0.003906-0.18359-0.003906-0.27344 0-22.336 2.668-37.629 10.352-45.461 22.84-9.5352 15.203-4.0742 31.566-3.8359 32.254h-0.003906c0.11328 0.34766 0.26953 0.67578 0.46094 0.98438 0.55078 0.88672 1.1211 1.7422 1.6914 2.5664-14.762 12.859-27.199 24.461-34.824 31.742v-97.418c13.48-1.9688 33.703-11.719 36.406-38.594 2.9531-28.988-35.875-74.359-37.531-76.27l-0.097656-0.10938-0.19531-0.20703-0.15625-0.13672-0.23438-0.29688-0.15625-0.11719-0.23438-0.15625-0.15625-0.097656-0.26562-0.13672-0.003907-0.003907c-0.046874-0.03125-0.10156-0.058593-0.15625-0.078124l-0.28516-0.11719-0.15625-0.058594-0.30469-0.089844h-0.15625l-0.30469-0.058593h-0.76953c-1.1172 0-2.1953 0.39453-3.0508 1.1094l-0.10938 0.10938-0.23438 0.21484c-1.7891 1.8906-43.719 46.652-40.02 80.207 1.6445 14.82 9.8398 25.586 23.617 31.281h-0.003906c4.8438 1.9375 9.9336 3.1836 15.125 3.6992v64.875c-18.301-17.605-44.023-31.074-45.266-31.734l-0.25391-0.11719c5.8945-16.859 2.6445-35.57-8.5859-49.457-11.234-13.883-28.852-20.969-46.574-18.727-17.719 2.2422-33.016 13.496-40.434 29.742-7.418 16.246-5.9023 35.176 4.0078 50.035s26.801 23.535 44.652 22.93c17.852-0.60547 34.117-10.406 42.996-25.902 2.793 1.4766 33.555 18.027 49.438 37.02v114.82c-9.25-7.0547-25.957-19.68-45.727-33.996 1.457-5.3633 5.0391-23.113-5.4219-39.785-10.105-16.109-29.973-26.035-59.039-29.52h-0.28516l-48.18-2.9102c-0.875-0.050781-1.7461 0.14453-2.5156 0.55859-0.25 0.13281-0.48828 0.28906-0.71094 0.46484-0.21094 0.17187-0.41016 0.36328-0.58984 0.57031-0.17578 0.20312-0.33594 0.42578-0.47266 0.66016-0.003906 0.019532-0.003906 0.039063 0 0.058594-0.0625 0.097656-0.11719 0.19922-0.16797 0.30469-0.066406 0.13281-0.125 0.26953-0.17578 0.41406-0.09375 0.26562-0.16797 0.54297-0.21484 0.82422v0.11719c-1.4805 11.324-1.2422 22.805 0.70703 34.059 4.2812 24.953 16.609 44.672 35.68 57.07 1.1992 0.80859 14.906 9.7812 32.621 9.7812 3.4375 0.007813 6.8672-0.33984 10.23-1.043 13.02-2.707 24.375-10.566 33.828-23.391 24.746 17.938 44.586 33.094 50.527 37.648v29.824c-55.105 0.98438-94.977 19.031-118.59 53.727l-72.258 0.003906c-2.6094 0-4.7227 2.1133-4.7227 4.7227s2.1133 4.7227 4.7227 4.7227h390.9c2.6094 0 4.7266-2.1133 4.7266-4.7227s-2.1172-4.7227-4.7266-4.7227zm-59.246-187.37c14.316 0 28.043 5.6875 38.164 15.809 10.125 10.125 15.809 23.852 15.809 38.164 0 14.316-5.6836 28.043-15.809 38.164-10.121 10.125-23.848 15.809-38.164 15.809-14.312 0-28.043-5.6836-38.164-15.809-10.121-10.121-15.809-23.848-15.809-38.164 0.015625-14.309 5.707-28.027 15.828-38.145 10.117-10.121 23.836-15.812 38.145-15.828zm-41.062-30.914-0.089844 0.058594c-0.11719 0.078125-12.395 8.3047-26.172 5.3516-6.2305-1.4297-11.883-4.707-16.215-9.4062 20.871-17.801 45.266-36.969 66.824-49.613 0.38281 12.566-1.8047 39.023-24.348 53.609zm-48.895-12.301c-0.67969-2.4102-3.2969-13.707 3.1016-23.805 6.25-9.8398 19.16-16.051 38.375-18.371l16.887-0.98437c-19.387 12.527-39.902 28.793-57.801 44.043-0.23828-0.3125-0.42578-0.58984-0.5625-0.88281zm-187.14-42.117c0.015625-10.719 4.125-21.027 11.488-28.816 7.3633-7.793 17.426-12.473 28.129-13.09-1.457 0.83984-2.3555 2.3906-2.3516 4.0742v5.6992c-9.1914 1.9688-16.07 9.3477-16.07 18.184 0 9.0312 5.4609 18.695 20.793 18.695 6.25 0 11.336 4.1328 11.336 9.2305 0 5.0977-5.0859 9.2188-11.336 9.2188s-11.309-4.1445-11.309-9.2305c0.058594-1.293-0.41016-2.5508-1.3047-3.4844-0.89453-0.9375-2.1289-1.4648-3.4219-1.4648s-2.5312 0.52734-3.4219 1.4648c-0.89453 0.93359-1.3672 2.1914-1.3086 3.4844 0 8.8555 6.8867 16.254 16.07 18.184v5.6992-0.003906c0 1.6836 0.89844 3.2344 2.3516 4.0742-10.707-0.60938-20.777-5.2891-28.148-13.082-7.3711-7.793-11.484-18.109-11.496-28.836zm44.367 41.918c1.4531-0.84375 2.3438-2.3945 2.3438-4.0742v-5.6992c9.1992-1.9688 16.07-9.3477 16.07-18.184 0-10.301-9.3281-18.695-20.793-18.695-7.625 0-11.336-3.0195-11.336-9.2305 0-5.0859 5.0859-9.2305 11.336-9.2305 6.2461 0.003906 11.324 4.1562 11.324 9.2227 0.11719 2.5273 2.1992 4.5195 4.7266 4.5195 2.5312 0 4.6133-1.9922 4.7305-4.5195 0-8.8555-6.8867-16.254-16.07-18.184v-5.6992c0-1.6758-0.89062-3.2266-2.3398-4.0703 14.422 0.79688 27.426 8.9531 34.418 21.598 6.9883 12.641 6.9883 27.988 0 40.629-6.9922 12.645-19.996 20.801-34.418 21.598zm32.562 66.473c6.8281 10.824 6.1875 22.535 5.1172 28.82-26.973-19.355-58.184-40.746-83.641-55.469l26.566 1.5938c25.98 3.1289 43.453 11.562 51.957 25.055zm-26.961 57.227c-18.812 3.9375-35.582-7.2031-35.738-7.3125l-0.097656-0.070313c-16.973-10.98-27.551-27.957-31.488-50.43l-0.003906 0.003906c-1.3867-8.1641-1.8438-16.461-1.3672-24.727 26.895 14.082 64.855 40.008 96.699 62.879-8.0117 10.82-17.406 17.434-28.004 19.656zm122.64-221.62c-2.0273 20.203-16.59 27.996-27 29.961l-0.003906 0.003906c0.003906-0.058594 0.003906-0.11719 0-0.17969v-88.559c12.172 16.266 28.637 42.363 27.004 58.773zm-47.992 27.27c-10.547-4.3203-16.531-12.25-17.781-23.566-2.3008-20.879 17.625-48.805 29.332-63.211v89.316 0.40234c-3.9609-0.46484-7.8477-1.4531-11.551-2.9414zm16.277 257.1c51.227 0 88.719 14.906 111.62 44.328l-223.25 0.003906c22.906-29.422 60.395-44.332 111.62-44.332z"/>
  <path d="m536.2 491.39c-7.3594 0-13.352-4.9219-13.352-10.973 0.058594-1.293-0.41406-2.5508-1.3047-3.4844-0.89453-0.9375-2.1328-1.4648-3.4219-1.4648-1.293 0-2.5312 0.52734-3.4258 1.4648-0.89062 0.93359-1.3633 2.1914-1.3047 3.4844 0 9.8398 7.7656 18.027 18.074 19.984v6.8867h0.003906c0.11328 2.5273 2.1953 4.5195 4.7266 4.5195s4.6133-1.9922 4.7266-4.5195v-6.8867c10.312-1.9688 18.074-10.176 18.074-19.984 0-11.266-10.234-20.43-22.801-20.43-8.8555 0-13.352-3.6992-13.352-10.98 0-6.0508 5.9922-10.973 13.352-10.973s13.344 4.9219 13.344 10.973h0.003906c0.11719 2.5273 2.1992 4.5156 4.7305 4.5156 2.5273 0 4.6094-1.9883 4.7266-4.5156 0-9.8398-7.7656-18.027-18.074-19.984v-6.8867l-0.003907-0.003906c-0.11328-2.5273-2.1953-4.5156-4.7266-4.5156s-4.6133 1.9883-4.7266 4.5156v6.8867c-10.312 1.9688-18.074 10.176-18.074 19.984 0 9.8086 5.9922 20.43 22.809 20.43 7.3594 0 13.344 4.9219 13.344 10.98-0.003906 6.0664-5.9844 10.977-13.348 10.977z"/>
 </g>
</svg>