<?xml version="1.0" encoding="UTF-8"?>
<!-- The Best Svg Icon site in the world: iconSvg.co, Visit us! https://iconsvg.co -->
<svg fill="#000000" width="800px" height="800px" version="1.1" viewBox="144 144 512 512" xmlns="http://www.w3.org/2000/svg">
 <g>
  <path d="m562.14 590.02h-324.58c-24.625 0-44.684-20.055-44.684-44.68v-324.58c0-24.625 20.059-44.68 44.684-44.68h324.58c24.625 0 44.684 20.055 44.684 44.68v324.58c0 24.656-20.059 44.68-44.684 44.68zm-324.58-399.28c-16.562 0-30.023 13.457-30.023 30.02v324.58c0 16.562 13.488 30.02 30.023 30.02h324.58c16.562 0 30.023-13.457 30.023-30.02v-324.58c0-16.562-13.461-30.02-30.023-30.02z"/>
  <path d="m244.04 431.59c-4.0469 0-7.332-3.2812-7.332-7.3281v-83.086c0-4.0469 3.2852-7.332 7.332-7.332 4.0469 0 7.3281 3.2852 7.3281 7.332v83.086c0 4.0469-3.2812 7.3281-7.3281 7.3281z"/>
  <path d="m535.87 546.2h-272.1c-14.922 0-27.09-12.137-27.09-27.09v-24.746c0-4.0469 3.2852-7.3281 7.332-7.3281s7.3281 3.2812 7.3281 7.3281v24.746c0 6.8594 5.5703 12.43 12.43 12.43h272.1c6.8594 0 12.434-5.5703 12.434-12.43v-272.1c0-6.8594-5.5742-12.43-12.434-12.43h-272.1c-6.8594 0-12.43 5.5703-12.43 12.43v25.066c0 4.0469-3.2812 7.332-7.3281 7.332s-7.332-3.2852-7.332-7.332v-25.066c0-14.922 12.137-27.09 27.09-27.09h272.1c14.953 0 27.09 12.141 27.09 27.09v272.1c0 14.922-12.137 27.09-27.09 27.09z"/>
  <path d="m453.53 444.05c-33.629 0-60.98-27.355-60.98-60.984 0-33.625 27.352-60.98 60.98-60.98s60.98 27.355 60.98 60.98c0 33.629-27.352 60.984-60.98 60.984zm0-107.34c-25.566 0-46.352 20.789-46.352 46.352 0 25.566 20.785 46.352 46.352 46.352s46.355-20.785 46.355-46.352c-0.03125-25.562-20.82-46.352-46.355-46.352z"/>
  <path d="m258.3 342.31h-28.59c-4.0469 0-7.3281-3.2852-7.3281-7.3281v-58.082c0-4.043 3.2812-7.3281 7.3281-7.3281h28.59c4.043 0 7.3281 3.2852 7.3281 7.3281v58.082c0 4.043-3.2852 7.3281-7.3281 7.3281zm-21.258-14.629h13.926v-43.418h-13.926z"/>
  <path d="m258.3 496.5h-28.59c-4.0469 0-7.3281-3.2852-7.3281-7.332v-58.078c0-4.0469 3.2812-7.3281 7.3281-7.3281h28.59c4.043 0 7.3281 3.2812 7.3281 7.3281v58.078c0 4.0781-3.2852 7.332-7.3281 7.332zm-21.258-14.633h13.926v-43.418h-13.926z"/>
  <path d="m287.29 623.91h-50.453c-1.9648 0-3.8398-0.78906-5.25-2.1953-1.375-1.4062-2.1406-3.3164-2.082-5.2773l0.73438-33.891c0.089844-4.0469 3.3125-7.2422 7.4766-7.1562 4.0469 0.089844 7.2422 3.4297 7.1836 7.4766l-0.55859 26.387h40.34l38.879-32.191c3.1055-2.5781 7.7383-2.1406 10.316 0.96484 2.582 3.1094 2.1406 7.7422-0.96484 10.324l-40.93 33.891c-1.3477 1.082-2.9922 1.668-4.6914 1.668z"/>
  <path d="m562.84 623.91h-50.453c-1.7031 0-3.375-0.58594-4.6641-1.668l-40.93-33.891c-3.1055-2.582-3.543-7.1836-0.96484-10.324 2.582-3.1055 7.1797-3.543 10.316-0.96484l38.879 32.191h40.34l-0.55859-26.387c-0.085938-4.0469 3.1367-7.3867 7.1836-7.4766 4.1641 0.11719 7.3906 3.1367 7.4766 7.1562l0.73438 33.891c0.027344 1.9609-0.70312 3.8711-2.0781 5.2773-1.3789 1.4062-3.2891 2.1953-5.2812 2.1953z"/>
  <path d="m453.53 408.37c-13.957 0-25.305-11.344-25.305-25.301 0-13.953 11.348-25.301 25.305-25.301 13.953 0 25.301 11.348 25.301 25.301 0 13.926-11.375 25.301-25.301 25.301zm0-35.973c-5.8672 0-10.645 4.7773-10.645 10.641 0 5.8633 4.7773 10.645 10.645 10.645 5.8633 0 10.641-4.7812 10.641-10.645 0-5.8633-4.7773-10.641-10.641-10.641z"/>
 </g>
</svg>