<?xml version="1.0" encoding="UTF-8"?>
<!-- The Best Svg Icon site in the world: iconSvg.co, Visit us! https://iconsvg.co -->
<svg fill="#000000" width="800px" height="800px" version="1.1" viewBox="144 144 512 512" xmlns="http://www.w3.org/2000/svg">
 <g>
  <path d="m439.36 455.1c0-10.438-4.1484-20.449-11.527-27.832-7.3828-7.3789-17.395-11.527-27.832-11.527-10.441 0-20.453 4.1484-27.832 11.527-7.3828 7.3828-11.531 17.395-11.531 27.832 0 10.441 4.1484 20.453 11.531 27.832 7.3789 7.3828 17.391 11.527 27.832 11.527 10.434-0.011719 20.438-4.1602 27.816-11.539s11.531-17.383 11.543-27.82zm-39.359 23.617c-6.2656 0-12.273-2.4883-16.699-6.918-4.4297-4.4297-6.918-10.434-6.918-16.699 0-6.2617 2.4883-12.27 6.918-16.699 4.4258-4.4258 10.434-6.9141 16.699-6.9141 6.2617 0 12.27 2.4883 16.699 6.9141 4.4258 4.4297 6.9141 10.438 6.9141 16.699 0 6.2656-2.4883 12.27-6.9141 16.699-4.4297 4.4297-10.438 6.918-16.699 6.918z"/>
  <path d="m614.67 380.08v-0.078125c-9.625-7.4414-21.445-11.48-33.613-11.492h-47.23c-12.168 0.011719-23.988 4.0508-33.613 11.492v0.078125c-13.547 10.379-21.488 26.469-21.492 43.531v78.723c0 2.0859 0.82812 4.0898 2.3047 5.5664 1.4766 1.4766 3.4805 2.3047 5.5664 2.3047h46.84c-15.004 18.309-33.629 33.316-54.711 44.082v-4.7227c-0.003906-17.062-7.9453-33.152-21.492-43.531v-0.078125c-9.625-7.4414-21.445-11.484-33.613-11.496h-47.23c-12.168 0.011718-23.988 4.0547-33.613 11.496v0.078125c-13.547 10.379-21.488 26.469-21.492 43.531v4.7227c-21.078-10.766-39.707-25.773-54.711-44.082h46.84c2.0859 0 4.0898-0.82812 5.5664-2.3047 1.4766-1.4766 2.3047-3.4805 2.3047-5.5664v-78.723c0-17.062-7.9453-33.152-21.488-43.531v-0.078125c-9.6289-7.4414-21.449-11.48-33.613-11.492h-47.234c-12.168 0.011719-23.984 4.0508-33.613 11.492v0.078125c-13.543 10.379-21.488 26.469-21.492 43.531v78.723c0 2.0859 0.83203 4.0898 2.3086 5.5664 1.4766 1.4766 3.4766 2.3047 5.5664 2.3047h75.02c19.105 26.602 44.793 47.785 74.547 61.48v56.602c0 2.0859 0.83203 4.0898 2.3047 5.5664 1.4766 1.4727 3.4805 2.3047 5.5664 2.3047h141.7c2.0859 0 4.0898-0.83203 5.5664-2.3047 1.4766-1.4766 2.3047-3.4805 2.3047-5.5664v-56.602c29.754-13.695 55.441-34.879 74.547-61.48h75.023c2.0859 0 4.0898-0.82812 5.5664-2.3047 1.4727-1.4766 2.3047-3.4805 2.3047-5.5664v-78.723c-0.003906-17.062-7.9453-33.152-21.492-43.531zm-435.09 114.38v-70.848c0.023438-8.5742 2.875-16.902 8.1094-23.695l35.582 94.543zm41.25-51.168-20.391-54.238c4.2969-2.3164 9.0039-3.7891 13.855-4.3281l12.203 24.402zm24.168 51.168h-4.8789l-8.1875-21.805 9.4453-56.914h2.3633l9.5234 56.758zm0.55078-94.465h-5.9844l-7.8711-15.742h21.727zm25.27-15.273v0.003906c4.8516 0.53906 9.5547 2.0117 13.852 4.3281l-20.387 54.082-5.668-34.008zm26.609 15.191-0.003907 0.003907c5.2344 6.793 8.0859 15.121 8.1094 23.695v70.848h-43.691zm39.594 220.5v-70.848c0.023437-8.5742 2.8711-16.902 8.1055-23.695l35.582 94.543zm41.25-51.168-20.387-54.238h-0.003907c4.2969-2.3203 9-3.7891 13.855-4.3281l12.203 24.402zm24.164 51.168h-4.8789l-8.1875-21.805 9.4453-56.914h2.3633l9.5234 56.758zm0.55078-94.465h-5.9844l-7.8711-15.742h21.727zm25.27-15.273v0.003907c4.8555 0.53906 9.5586 2.0078 13.855 4.3281l-20.387 54.082-5.668-34.008zm34.719 109.74h-43.691l35.582-94.543c5.2344 6.793 8.082 15.121 8.1094 23.695zm31.488-125.95-0.003906-70.848c0.027343-8.5742 2.875-16.902 8.1094-23.695l35.582 94.543zm41.25-51.168-20.387-54.238h-0.003906c4.2969-2.3164 9-3.7891 13.855-4.3281l12.203 24.402zm24.164 51.168h-4.8789l-8.1875-21.805 9.4453-56.914h2.3633l9.5234 56.758zm0.55078-94.465h-5.9844l-7.8711-15.742h21.727zm25.27-15.273v0.003906c4.8555 0.53906 9.5586 2.0117 13.855 4.3281l-20.387 54.082-5.668-34.008zm34.715 109.74h-43.688l35.582-94.543c5.2344 6.793 8.082 15.121 8.1055 23.695z"/>
  <path d="m281.92 329.15c-0.042969-14-7.543-26.914-19.68-33.895 15.738-20.793 35.98-37.75 59.215-49.594 1.0234 27.367 16.219 52.23 40.105 65.625 23.887 13.398 53.023 13.398 76.91 0 23.891-13.395 39.082-38.258 40.109-65.625 23.23 11.844 43.477 28.801 59.211 49.594-10.961 6.5-18.07 17.934-19.043 30.641s4.3086 25.094 14.152 33.188c9.8477 8.0898 23.02 10.879 35.297 7.4648 12.281-3.4141 22.125-12.602 26.379-24.613 4.2539-12.016 2.3867-25.348-5.0078-35.73-7.3945-10.379-19.383-16.508-32.129-16.414-1.332 0-2.5898 0.26953-3.8906 0.39453h0.003906c-19.426-27.23-45.754-48.793-76.281-62.473-4.6328-24.145-20.285-44.738-42.312-55.664-22.023-10.922-47.891-10.922-69.918 0-22.027 10.926-37.68 31.52-42.312 55.664-30.523 13.68-56.855 35.242-76.281 62.473-1.3008-0.125-2.5586-0.39453-3.8906-0.39453h0.003906c-10.441 0-20.449 4.1484-27.832 11.531-7.3828 7.3789-11.527 17.391-11.527 27.828 0 10.441 4.1445 20.453 11.527 27.832 7.3828 7.3828 17.391 11.531 27.832 11.531 10.438 0 20.449-4.1484 27.832-11.531 7.3789-7.3789 11.527-17.391 11.527-27.832zm299.14 0c0 6.2656-2.4883 12.273-6.918 16.699-4.4258 4.4297-10.434 6.918-16.699 6.918-6.2617 0-12.27-2.4883-16.699-6.918-4.4258-4.4258-6.9141-10.434-6.9141-16.699 0-6.2617 2.4883-12.27 6.9141-16.695 4.4297-4.4297 10.438-6.918 16.699-6.918 6.2656 0 12.273 2.4883 16.699 6.918 4.4297 4.4258 6.918 10.434 6.918 16.695zm-181.05-149.57c16.699 0 32.719 6.6367 44.531 18.445 11.809 11.809 18.445 27.828 18.445 44.531s-6.6367 32.719-18.445 44.531c-11.812 11.809-27.832 18.445-44.531 18.445-16.703 0-32.723-6.6367-44.531-18.445-11.812-11.812-18.445-27.828-18.445-44.531 0.019531-16.695 6.6602-32.703 18.465-44.512 11.805-11.805 27.812-18.445 44.512-18.465zm-157.44 173.18c-6.2656 0-12.27-2.4883-16.699-6.918-4.4297-4.4258-6.918-10.434-6.918-16.699 0-6.2617 2.4883-12.27 6.918-16.695 4.4297-4.4297 10.434-6.918 16.699-6.918 6.2617 0 12.27 2.4883 16.699 6.918 4.4297 4.4258 6.918 10.434 6.918 16.695 0 6.2656-2.4883 12.273-6.918 16.699-4.4297 4.4297-10.438 6.918-16.699 6.918z"/>
  <path d="m407.87 266.18h-15.746c-4.3477 0-7.8711-3.5273-7.8711-7.875 0-4.3477-3.5234-7.8711-7.8711-7.8711-4.3477 0-7.8711 3.5234-7.8711 7.8711 0 6.2656 2.4883 12.273 6.9141 16.699 4.4297 4.4297 10.438 6.918 16.699 6.918v7.8711c0 4.3477 3.5273 7.875 7.875 7.875s7.8711-3.5273 7.8711-7.875v-7.8711c8.4375 0 16.234-4.5 20.453-11.809 4.2188-7.3047 4.2188-16.309 0-23.617-4.2188-7.3047-12.016-11.805-20.453-11.805h-15.746c-4.3477 0-7.8711-3.5273-7.8711-7.875s3.5234-7.8711 7.8711-7.8711h15.746c2.0859 0 4.0898 0.82812 5.5664 2.3047 1.4766 1.4766 2.3047 3.4805 2.3047 5.5664 0 4.3477 3.5234 7.875 7.8711 7.875 4.3477 0 7.875-3.5273 7.875-7.875 0-6.2617-2.4883-12.27-6.918-16.699-4.4297-4.4258-10.438-6.9141-16.699-6.9141v-7.875c0-4.3477-3.5234-7.8711-7.8711-7.8711s-7.875 3.5234-7.875 7.8711v7.875c-8.4375 0-16.23 4.5-20.449 11.809-4.2188 7.3047-4.2188 16.309 0 23.613 4.2188 7.3086 12.012 11.809 20.449 11.809h15.746c4.3477 0 7.8711 3.5234 7.8711 7.8711 0 4.3477-3.5234 7.875-7.8711 7.875z"/>
 </g>
</svg>