<?xml version="1.0" encoding="UTF-8"?>
<!-- The Best Svg Icon site in the world: iconSvg.co, Visit us! https://iconsvg.co -->
<svg fill="#000000" width="800px" height="800px" version="1.1" viewBox="144 144 512 512" xmlns="http://www.w3.org/2000/svg">
 <g>
  <path d="m384.25 290.73c-9.0859 0-17.809 3.5898-24.258 9.9922-6.4492 6.3984-10.109 15.09-10.184 24.18v16.031-0.003906c0 12.305 6.5664 23.676 17.223 29.828 10.656 6.1523 23.785 6.1523 34.438 0 10.656-6.1523 17.223-17.523 17.223-29.828v-16.031 0.003906c-0.070312-9.0898-3.7305-17.781-10.184-24.18-6.4492-6.4023-15.168-9.9922-24.258-9.9922z"/>
  <path d="m385.66 519.2c-73.789 0-133.82-60.031-133.82-133.82 0-73.793 60.035-133.82 133.82-133.82 73.789 0 133.82 60.031 133.82 133.82 0.019531 13.723-2.082 27.371-6.2266 40.453 10.953-1.7695 22.117-1.8242 33.09-0.16406 0.4375-1.7422 0.88672-3.4883 1.2617-5.2266 0.58203-2.5195 2.7148-4.3828 5.2891-4.625l41.934-4.0312v-52.82l-41.926-4.0234v0.003906c-2.5859-0.23438-4.7422-2.0781-5.3711-4.6016-4.3984-19.914-12.387-38.859-23.574-55.914-1.418-2.168-1.2578-5.0039 0.39453-7l26.641-32.172-37.219-37.223-32.168 26.648-0.003906-0.003906c-2 1.6641-4.8555 1.8203-7.0273 0.38281-16.984-11.266-35.934-19.246-55.859-23.531-2.5039-0.53125-4.3789-2.625-4.625-5.1719l-4.0312-41.691h-50.527l-4.0234 41.691c-0.25391 2.543-2.1289 4.625-4.6328 5.1406-19.926 4.2891-38.875 12.277-55.859 23.551-2.1719 1.4375-5.0273 1.2852-7.0312-0.375l-32.176-26.645-37.23 37.223 26.629 32.168h-0.003907c1.6445 2 1.793 4.8398 0.36328 7-11.199 17.055-19.207 36.004-23.625 55.922-0.60156 2.5156-2.7383 4.3633-5.3125 4.6016l-41.973 4.0195v52.824l41.973 4.0234h0.003907c2.6055 0.23047 4.7812 2.0859 5.4258 4.625 4.2891 19.93 12.273 38.879 23.547 55.863 1.4375 2.1719 1.2852 5.0234-0.375 7.0273l-26.641 32.168 37.223 37.227 32.172-26.645-0.003906 0.003907c1.9961-1.6523 4.8359-1.8125 7.0039-0.39453 17.051 11.188 36 19.176 55.914 23.578 2.4961 0.55078 4.3555 2.6523 4.5977 5.1953l4.0234 41.758h50.535l4.0234-41.758h0.003907c0.24609-2.543 2.1016-4.6445 4.5977-5.1953 2.1758-0.48047 4.3555-1.0156 6.5273-1.5898-1.8203-11.422-1.7734-23.062 0.14453-34.469-12.855 3.9922-26.238 6.0117-39.695 5.9961z"/>
  <path d="m385.75 263.36c-67.277 0-121.93 54.734-121.93 122.02-0.14062 28.297 9.7617 55.727 27.941 77.414v-23.723c-0.027343-9.3711 3.6719-18.375 10.285-25.02 6.6094-6.6445 15.594-10.387 24.969-10.402h117.47-0.003906c9.0703 0.007813 17.789 3.4922 24.367 9.7344 6.5781 6.2383 10.52 14.766 11.008 23.82 6.3125-3.4102 12.957-6.168 19.828-8.2344 14.328-37.504 9.293-79.656-13.465-112.73-22.758-33.074-60.324-52.844-100.47-52.867zm44.758 77.578c0 25.352-20.895 45.98-46.25 45.98-25.352 0-46.25-20.625-46.25-45.98v-16.031c0-25.352 20.895-45.98 46.25-45.98 25.352 0 46.25 20.625 46.25 45.98z"/>
  <path d="m467.89 444.57v-5.5117c0.035157-6.2422-2.4141-12.238-6.8125-16.672-4.3945-4.4297-10.375-6.9297-16.617-6.9414h-117.46 0.003907c-6.2461 0.011719-12.227 2.5117-16.625 6.9414-4.3984 4.4297-6.8516 10.43-6.8203 16.672v36.18c16.512 15.238 36.938 25.59 58.988 29.895 22.055 4.3086 44.871 2.4023 65.906-5.5078 6.7656-22.172 20.617-41.512 39.434-55.055z"/>
  <path d="m530.29 436.26c-25.09 0-49.152 9.9688-66.891 27.711-17.742 17.738-27.711 41.801-27.711 66.891 0 25.09 9.9688 49.152 27.711 66.895 17.738 17.742 41.801 27.711 66.891 27.711 25.09 0 49.152-9.9688 66.895-27.711 17.742-17.742 27.707-41.805 27.707-66.895-0.027344-25.078-10.004-49.125-27.738-66.859-17.734-17.738-41.781-27.711-66.863-27.742zm0 92.023v0.003906c11.223 0 21.621 5.8906 27.391 15.516 5.7695 9.625 6.0625 21.574 0.76953 31.469-5.2891 9.8984-15.387 16.289-26.594 16.84v9.6055c0 3.2617-2.6445 5.9062-5.9062 5.9062-3.2578 0-5.9023-2.6445-5.9023-5.9062v-11.262c-6.3164-2.1445-11.805-6.2148-15.695-11.637-3.8906-5.4219-5.9844-11.926-5.9922-18.598 0-3.2617 2.6406-5.9062 5.9023-5.9062s5.9023 2.6445 5.9023 5.9062c0 5.3359 2.1211 10.453 5.8945 14.227 3.7773 3.7773 8.8945 5.8945 14.23 5.8945 5.3398 0 10.457-2.1172 14.23-5.8945 3.7734-3.7734 5.8945-8.8906 5.8945-14.227 0-5.3398-2.1211-10.457-5.8945-14.23-3.7734-3.7773-8.8906-5.8945-14.23-5.8945-10.652-0.003906-20.605-5.3164-26.531-14.172-5.9297-8.8555-7.0469-20.082-2.9883-29.934 4.0625-9.8516 12.77-17.027 23.215-19.133v-7.9805c0-3.2617 2.6406-5.9023 5.9023-5.9023s5.9023 2.6406 5.9023 5.9023v7.8359c7.3984 1.3047 14.102 5.168 18.934 10.918 4.8359 5.75 7.4883 13.02 7.5 20.531 0 3.2617-2.6445 5.9023-5.9062 5.9023-3.2578 0-5.9023-2.6406-5.9023-5.9023 0-5.3359-2.1211-10.457-5.8945-14.23-3.7734-3.7734-8.8906-5.8945-14.23-5.8945-5.3359 0-10.457 2.1211-14.23 5.8945-3.7734 3.7734-5.8945 8.8906-5.8945 14.23 0 5.3359 2.1211 10.457 5.8945 14.23 3.7734 3.7734 8.8945 5.8945 14.23 5.8945z"/>
 </g>
</svg>