<?xml version="1.0" encoding="UTF-8"?>
<!-- The Best Svg Icon site in the world: iconSvg.co, Visit us! https://iconsvg.co -->
<svg fill="#000000" width="800px" height="800px" version="1.1" viewBox="144 144 512 512" xmlns="http://www.w3.org/2000/svg">
 <g>
  <path d="m286.57 221.32c-5.6992 1.0391-9.4766 6.4961-8.4375 12.207l13.16 72.148c0.92188 5.0586 5.3438 8.6055 10.309 8.6055 0.62891 0 1.2578-0.050781 1.8984-0.17969 5.6992-1.0391 9.4766-6.4961 8.4375-12.207l-13.16-72.145c-1.0273-5.6914-6.5156-9.5312-12.207-8.4297z"/>
  <path d="m391.53 221.32c-5.6992 1.0391-9.4766 6.4961-8.4375 12.207l13.172 72.148c0.92188 5.0586 5.332 8.6055 10.297 8.6055 0.62891 0 1.2578-0.050781 1.8984-0.17969 5.6992-1.0391 9.4766-6.4961 8.4492-12.207l-13.172-72.145c-1.0273-5.6914-6.5391-9.5312-12.207-8.4297z"/>
  <path d="m594.18 262.47h-68.855l6.8438 37.555c1.0273 5.5117-0.1875 11.105-3.3789 15.711-3.1914 4.6094-7.9883 7.7031-13.488 8.7109-1.1875 0.21875-2.4883 0.33594-3.7695 0.33594-10.148 0-18.82-7.2422-20.645-17.223l-8.2188-45.102h-62.305l6.8438 37.555c1.0273 5.5117-0.1875 11.105-3.3789 15.711-3.1914 4.6094-7.9883 7.7031-13.488 8.7109-1.1875 0.21875-2.4883 0.33594-3.7695 0.33594-10.141 0-18.82-7.2422-20.637-17.223l-8.2305-45.102h-62.293l6.8438 37.555c1.0195 5.5117-0.1875 11.105-3.3789 15.711-3.1914 4.6094-7.9883 7.7031-13.496 8.7109-1.1875 0.21875-2.4883 0.33594-3.7695 0.33594-10.141 0-18.82-7.2422-20.637-17.223l-8.2305-45.102-66.918 0.003906c-20.258 0-36.734 16.48-36.734 36.746v242.94c0 20.27 16.48 36.734 36.734 36.734h388.35c20.258 0 36.734-16.469 36.734-36.734l0.003906-242.91c0-20.258-16.477-36.746-36.734-36.746zm-302.41 264.64c-14.031 0-25.453-11.418-25.453-25.465 0-14.023 11.418-25.441 25.453-25.441 14.031 0 25.441 11.418 25.441 25.441 0.003906 14.047-11.406 25.465-25.441 25.465zm0-73.473c-14.031 0-25.453-11.418-25.453-25.465 0-14.031 11.418-25.441 25.453-25.441 14.031 0 25.441 11.41 25.441 25.441 0.003906 14.047-11.406 25.465-25.441 25.465zm0-73.473c-14.031 0-25.453-11.418-25.453-25.453 0-14.031 11.418-25.453 25.453-25.453 14.031 0 25.441 11.418 25.441 25.453 0.003906 14.035-11.406 25.453-25.441 25.453zm108.24 146.95c-14.031 0-25.453-11.418-25.453-25.465 0-14.023 11.418-25.441 25.453-25.441 14.031 0 25.453 11.418 25.453 25.441 0 14.047-11.422 25.465-25.453 25.465zm0-73.473c-14.031 0-25.453-11.418-25.453-25.465 0-14.031 11.418-25.441 25.453-25.441 14.031 0 25.453 11.41 25.453 25.441 0 14.047-11.422 25.465-25.453 25.465zm0-73.473c-14.031 0-25.453-11.418-25.453-25.453 0-14.031 11.418-25.453 25.453-25.453 14.031 0 25.453 11.418 25.453 25.453 0 14.035-11.422 25.453-25.453 25.453zm108.24 73.473c-14.023 0-25.453-11.418-25.453-25.465 0-14.031 11.43-25.441 25.453-25.441 14.043 0 25.441 11.41 25.441 25.441 0.003906 14.047-11.418 25.465-25.441 25.465zm0-73.473c-14.023 0-25.453-11.418-25.453-25.453 0-14.031 11.43-25.453 25.453-25.453 14.043 0 25.441 11.418 25.441 25.453 0.003906 14.035-11.418 25.453-25.441 25.453z"/>
  <path d="m496.48 221.32c-5.6992 1.0391-9.4688 6.4961-8.4375 12.207l13.172 72.148c0.92187 5.0586 5.332 8.6055 10.297 8.6055 0.62891 0 1.2578-0.050781 1.8984-0.17969 5.6992-1.0391 9.4766-6.4961 8.4492-12.207l-13.16-72.145c-1.0273-5.6914-6.4766-9.5312-12.219-8.4297z"/>
 </g>
</svg>