<?xml version="1.0" encoding="UTF-8"?>
<!-- The Best Svg Icon site in the world: iconSvg.co, Visit us! https://iconsvg.co -->
<svg fill="#000000" width="800px" height="800px" version="1.1" viewBox="144 144 512 512" xmlns="http://www.w3.org/2000/svg">
 <g>
  <path d="m400 612.54c18.789 0 36.809-7.4648 50.098-20.75 13.285-13.289 20.75-31.309 20.75-50.098 0-18.789-7.4648-36.812-20.75-50.098-13.289-13.285-31.309-20.75-50.098-20.75-18.793 0-36.812 7.4648-50.098 20.75-13.289 13.285-20.754 31.309-20.754 50.098 0.023437 18.781 7.4961 36.789 20.777 50.07s31.289 20.754 50.074 20.777zm0-125.95c14.613 0 28.629 5.8047 38.965 16.141 10.332 10.332 16.137 24.352 16.137 38.965 0 14.613-5.8047 28.629-16.137 38.965-10.336 10.332-24.352 16.141-38.965 16.141-14.617 0-28.633-5.8086-38.965-16.141-10.336-10.336-16.141-24.352-16.141-38.965 0.015625-14.609 5.8281-28.617 16.156-38.945 10.332-10.332 24.34-16.141 38.949-16.16z"/>
  <path d="m392.12 494.46v7.875c-8.4375 0-16.23 4.5-20.449 11.809-4.2188 7.3047-4.2188 16.309 0 23.613 4.2188 7.3086 12.012 11.809 20.449 11.809h15.746c4.3477 0 7.8711 3.5234 7.8711 7.8711s-3.5234 7.875-7.8711 7.875h-15.746c-4.3477 0-7.8711-3.5273-7.8711-7.875s-3.5234-7.8711-7.8711-7.8711c-4.3477 0-7.8711 3.5234-7.8711 7.8711 0 6.2656 2.4883 12.273 6.9141 16.699 4.4297 4.4297 10.438 6.918 16.699 6.918v7.8711c0 4.3477 3.5273 7.875 7.875 7.875s7.8711-3.5273 7.8711-7.875v-7.8711c8.4375 0 16.234-4.5 20.453-11.809 4.2188-7.3047 4.2188-16.309 0-23.613-4.2188-7.3086-12.016-11.809-20.453-11.809h-15.746c-4.3477 0-7.8711-3.5273-7.8711-7.875 0-4.3477 3.5234-7.8711 7.8711-7.8711h15.746c2.0859 0 4.0898 0.83203 5.5664 2.3047 1.4766 1.4766 2.3047 3.4805 2.3047 5.5664 0 4.3477 3.5234 7.875 7.8711 7.875 4.3477 0 7.875-3.5273 7.875-7.875 0-6.2617-2.4883-12.27-6.918-16.699-4.4297-4.4258-10.438-6.9141-16.699-6.9141v-7.875c0-4.3477-3.5234-7.8711-7.8711-7.8711s-7.875 3.5234-7.875 7.8711z"/>
  <path d="m494.46 549.57h23.617c4.3477 0 7.8711-3.5234 7.8711-7.8711 0-4.3477-3.5234-7.8711-7.8711-7.8711h-23.617c-4.3477 0-7.8711 3.5234-7.8711 7.8711 0 4.3477 3.5234 7.8711 7.8711 7.8711z"/>
  <path d="m281.92 533.82c-4.3477 0-7.8711 3.5234-7.8711 7.8711 0 4.3477 3.5234 7.8711 7.8711 7.8711h23.617c4.3477 0 7.8711-3.5234 7.8711-7.8711 0-4.3477-3.5234-7.8711-7.8711-7.8711z"/>
  <path d="m423.61 196.63v-9.1797c-0.03125-6.2539-2.5273-12.242-6.9492-16.664-4.4219-4.4219-10.41-6.9219-16.664-6.9531-6.2656 0-12.273 2.4883-16.699 6.918-4.4297 4.4297-6.918 10.438-6.918 16.699v9.1797c-53.23 5.9883-102.48 31.059-138.65 70.57s-56.797 90.785-58.07 144.34c-0.16797 4.3477 3.2188 8.0078 7.5664 8.1797 4.3477 0.16797 8.0078-3.2188 8.1797-7.5664 1.0938-22.156 13.77-42.105 33.363-52.512 19.598-10.402 43.219-9.7305 62.191 1.7773 18.969 11.504 30.484 32.141 30.316 54.324 0 4.3477 3.5234 7.8711 7.8711 7.8711 4.3477 0 7.875-3.5234 7.875-7.8711 0.015624-12.535 3.7695-24.781 10.781-35.172 7.0117-10.391 16.961-18.457 28.578-23.168v89.828h-149.57c-4.3477 0-7.8711 3.5234-7.8711 7.8711v173.19c0 2.0859 0.82812 4.0898 2.3047 5.5664 1.4766 1.4727 3.4805 2.3047 5.5664 2.3047h346.37c2.0859 0 4.0898-0.83203 5.5664-2.3047 1.4766-1.4766 2.3047-3.4805 2.3047-5.5664v-173.19c0-2.0859-0.82813-4.0898-2.3047-5.5664-1.4766-1.4766-3.4805-2.3047-5.5664-2.3047h-149.57v-89.828c11.617 4.7109 21.566 12.777 28.578 23.168 7.0117 10.391 10.766 22.637 10.785 35.172 0 4.3477 3.5234 7.8711 7.8711 7.8711s7.8711-3.5234 7.8711-7.8711c-0.35156-22.301 11.117-43.125 30.156-54.746 19.035-11.621 42.801-12.309 62.477-1.8008 19.672 10.504 32.324 30.633 33.258 52.918 0.085937 2.0703 0.99609 4.0195 2.5312 5.4102 1.5352 1.3906 3.5625 2.1094 5.6289 1.9883 4.2852-0.16406 7.6484-3.7266 7.5664-8.0117-1.2812-53.543-21.914-104.81-58.082-144.31-36.164-39.5-85.418-64.566-138.64-70.555zm-31.488-9.1797c0-4.3477 3.5273-7.8711 7.875-7.8711 2.1211-0.007812 4.1484 0.86328 5.6016 2.4102 1.4727 1.4336 2.2891 3.4062 2.2695 5.4609v8.0703c-2.4883-0.085938-7.4883-0.19922-7.4961-0.19922h-0.78906c-2.5039 0-4.9844 0.10156-7.4688 0.1875zm-133.82 149.57c-20.574-0.007813-40.328 8.0586-55.016 22.465 11.48-39.316 34.41-74.324 65.863-100.56 31.453-26.238 70.004-42.52 110.75-46.762-37.402 40.43-58.312 93.398-58.617 148.47v8.2109c-14.77-19.977-38.129-31.781-62.977-31.824zm252.45 125.95c1.7656 13.852 8.082 26.727 17.957 36.602s22.75 16.191 36.605 17.957v48.32c-13.855 1.7656-26.73 8.082-36.605 17.957s-16.191 22.75-17.957 36.602h-221.5c-1.7656-13.852-8.082-26.727-17.957-36.602s-22.75-16.191-36.602-17.957v-48.32c13.852-1.7656 26.727-8.082 36.602-17.957s16.191-22.75 17.957-36.602zm-237.41 0c-1.6484 9.6484-6.25 18.551-13.176 25.473-6.9219 6.9219-15.824 11.527-25.473 13.176v-38.648zm-38.648 118.79c9.6484 1.6523 18.551 6.2539 25.473 13.18 6.9258 6.9219 11.527 15.824 13.176 25.473h-38.648zm291.97 38.652c1.6484-9.6484 6.2539-18.551 13.176-25.473 6.9219-6.9258 15.824-11.527 25.477-13.18v38.652zm38.652-118.79c-9.6523-1.6484-18.555-6.2539-25.477-13.176-6.9219-6.9219-11.527-15.824-13.176-25.473h38.652zm-157.44-54.395h-15.746v-93.922c5.2227-0.72266 10.523-0.72266 15.746 0zm-7.8711-110.21c-24.848 0.042968-48.207 11.848-62.977 31.824v-8.2109c0.17969-27.395 5.8477-54.477 16.66-79.648 10.816-25.172 26.566-47.922 46.316-66.91 19.75 18.988 35.496 41.738 46.312 66.91s16.48 52.254 16.664 79.648v8.2109c-14.773-19.977-38.133-31.781-62.977-31.824zm141.7 0c-24.848 0.042968-48.203 11.848-62.977 31.824v-8.2109c-0.30078-55.074-21.211-108.04-58.613-148.47 40.738 4.2422 79.293 20.523 110.75 46.762 31.453 26.238 54.379 61.246 65.859 100.56-14.688-14.406-34.441-22.473-55.016-22.465z"/>
 </g>
</svg>