<?xml version="1.0" encoding="UTF-8"?>
<!-- The Best Svg Icon site in the world: iconSvg.co, Visit us! https://iconsvg.co -->
<svg fill="#000000" width="800px" height="800px" version="1.1" viewBox="144 144 512 512" xmlns="http://www.w3.org/2000/svg">
 <g>
  <path d="m204.01 466.17c-1.1328 0.21875-2.2812 0.32812-3.4336 0.32031-3.4844 0.007812-6.8633-1.1641-9.5938-3.3281-2.7305-2.1641-4.6445-5.1875-5.4297-8.582-11.574-49.855-4.418-102.23 20.105-147.16 24.523-44.926 64.703-79.27 112.9-96.504-2.2773-2.1016-3.8594-4.8516-4.5312-7.875-0.91016-3.9961-0.19141-8.1914 1.9961-11.656 2.1875-3.4688 5.6641-5.918 9.6641-6.8164 4-0.89844 8.1914-0.16797 11.652 2.0273l27.617 17.496c3.4688 2.1914 5.9219 5.6758 6.8164 9.6836 0.89453 4.0039 0.15625 8.2031-2.0547 11.66l-17.449 27.57v0.003906c-2.832 4.4727-7.7578 7.1836-13.055 7.1914-2.9336-0.015625-5.8086-0.85547-8.2891-2.4297-3.4727-2.1719-5.918-5.6602-6.7773-9.6641-0.45703-2.0469-0.50391-4.1641-0.13672-6.2305-33.383 12.883-62.059 35.609-82.23 65.16-20.172 29.555-30.883 64.539-30.715 100.32-0.003906 13.535 1.5352 27.027 4.5781 40.215 0.92578 4.0117 0.21875 8.2305-1.9688 11.723-2.1562 3.4805-5.625 5.9375-9.6172 6.8242-0.027344 0-0.046875 0.019531-0.046875 0.046875z"/>
  <path d="m564.55 519.08h-0.046876 0.003907c-23.105 36.402-56.93 64.746-96.816 81.117-39.887 16.375-83.871 19.973-125.89 10.301s-80-32.141-108.71-64.305c-0.79297 3.375-2.7031 6.3867-5.4219 8.5391s-6.0859 3.3242-9.5547 3.3242c-1.1523-0.011719-2.3047-0.13672-3.4336-0.36719-4.0234-0.92578-7.5117-3.418-9.6875-6.9297-2.1797-3.5078-2.8633-7.7422-1.8984-11.758l7.5117-31.832h-0.003906c0.32031-1.332 0.83203-2.6133 1.5117-3.8008 0.27344-0.45703 0.50391-0.91797 0.77734-1.3281 0.18359-0.27344 0.41406-0.55078 0.59375-0.77734l0.6875-0.77734 0.003907-0.003906c0.44141-0.53125 0.93359-1.0234 1.4648-1.4648 0.60156-0.48828 1.2305-0.94922 1.8789-1.375 3.5117-2.1797 7.7539-2.8555 11.77-1.875l31.738 7.5586 0.003906-0.003906c4.3164 1.0234 7.9844 3.8555 10.066 7.7734 2.0859 3.9141 2.3789 8.5391 0.8125 12.691-1.5703 4.1484-4.8477 7.4258-9.0039 8.9844 25.152 25.203 57.301 42.262 92.273 48.957 34.969 6.6953 71.145 2.7188 103.83-11.41 32.68-14.129 60.359-37.758 79.438-67.82 2.9609-4.6641 8.1875-7.3906 13.707-7.1602 5.5195 0.23438 10.496 3.3945 13.055 8.293 2.5547 4.8945 2.3086 10.785-0.65625 15.449z"/>
  <path d="m619.43 437.64c-0.92188 3.9922-3.418 7.4453-6.9141 9.5742l-27.848 17.176c-2.4258 1.4883-5.2148 2.2812-8.0625 2.2891-1.25 0.015625-2.5-0.13672-3.7109-0.45703-3.9648-0.92578-7.3867-3.4219-9.4805-6.918l-17.129-27.801c-2.1484-3.4805-2.8281-7.6719-1.8906-11.656 0.93359-3.9844 3.4102-7.4336 6.8828-9.5938 4.5039-2.7305 10.074-3.0234 14.84-0.78125v-2.1055c0.14062-41.941-14.633-82.57-41.684-114.62-27.047-32.055-64.609-53.453-105.98-60.371-4.0859-0.63672-7.7461-2.8828-10.164-6.2344-2.418-3.3555-3.3945-7.5352-2.707-11.613 0.68359-4.0781 2.9727-7.7109 6.3555-10.086 3.3828-2.3789 7.5742-3.3047 11.645-2.5703 48.578 8.1367 92.691 33.266 124.46 70.906 31.77 37.641 49.133 85.348 48.988 134.6 0 4.4883-0.13672 8.9766-0.41406 13.375h0.003907c3.5-2.0469 7.6641-2.6367 11.594-1.6367 3.9297 0.99609 7.3086 3.5 9.4062 6.9688 2.0977 3.4688 2.75 7.625 1.8086 11.57z"/>
  <path d="m371.95 382.14c-0.13672 2.9883 1.2695 5.8398 3.7227 7.5508 3.3438 2.1562 7.0469 3.6992 10.934 4.5547v-24.473c-3.8555 0.36328-7.5391 1.7656-10.664 4.0547-2.5938 1.9609-4.082 5.0586-3.9922 8.3125z"/>
  <path d="m405.09 410.82c-3.6875-2.0078-7.6289-3.5234-11.719-4.4961v23.875c10.449-0.73828 15.668-4.957 15.66-12.66 0.050781-2.8008-1.4688-5.3945-3.9414-6.7188z"/>
  <path d="m390.02 328.06c-19.082 0-37.379 7.5781-50.871 21.07-13.492 13.492-21.07 31.789-21.07 50.871 0 19.078 7.5781 37.375 21.07 50.867 13.492 13.492 31.789 21.07 50.871 21.07 19.078 0 37.375-7.5781 50.867-21.07 13.492-13.492 21.07-31.789 21.07-50.867-0.011719-19.078-7.5977-37.367-21.086-50.855-13.488-13.488-31.777-21.07-50.852-21.086zm25.848 100.79c-2.25 3.3125-5.3594 5.9453-8.9961 7.6211-4.2344 1.9766-8.8203 3.0898-13.492 3.2773v7.8828c0.039062 0.88672-0.29297 1.75-0.91406 2.3867-1.3867 1.2383-3.4766 1.2656-4.8945 0.058594-0.63672-0.64844-0.96875-1.5391-0.91406-2.4453v-7.8828c-7.7227-0.45312-15.312-2.2188-22.441-5.2227-0.90625-0.37891-1.6797-1.0156-2.2266-1.832-1.3125-1.8359-1.1484-4.3438 0.39062-5.9961 0.83594-0.91406 2.0312-1.4141 3.2734-1.3711 0.72656-0.003906 1.4492 0.15234 2.1094 0.45703 5.9609 2.6523 12.363 4.1562 18.879 4.4375v-25.566c-4.3477-1.0938-8.5977-2.543-12.711-4.3281-3.3555-1.4844-6.3047-3.75-8.6016-6.6094-2.3828-3.0938-3.6016-6.9258-3.4453-10.828-0.03125-3.7422 0.94531-7.4219 2.8242-10.656 2.043-3.4062 4.957-6.2031 8.4414-8.1055 4.1562-2.2734 8.7656-3.6016 13.492-3.8867v-7.7852c-0.023438-0.90234 0.30469-1.7773 0.91797-2.4414 0.61719-0.66016 1.4922-1.0234 2.3945-1 0.91406-0.007813 1.793 0.35156 2.4414 1 0.64453 0.64844 1.0039 1.5273 0.99609 2.4414v7.6953c6.5977 0.16797 13.125 1.4062 19.324 3.6641 1.9531 0.56641 3.2461 2.4141 3.1133 4.4414-0.003907 1.1836-0.4375 2.3203-1.2188 3.207-0.79297 0.94531-1.9727 1.4766-3.207 1.4414-0.61328-0.042969-1.2109-0.19531-1.7695-0.45703-5.2227-1.8086-10.695-2.8203-16.223-2.9961v26.422c4.5352 1.0117 8.9766 2.3906 13.285 4.125 3.4492 1.4297 6.4844 3.6992 8.8281 6.6094 2.5039 3.332 3.7617 7.4375 3.5547 11.598 0.019531 3.793-1.0977 7.5-3.2109 10.645z"/>
  <path d="m390.01 288.55c-29.559 0.007812-57.906 11.754-78.801 32.66-20.898 20.906-32.637 49.258-32.633 78.816 0.007812 29.559 11.754 57.906 32.66 78.805 20.906 20.898 49.254 32.637 78.816 32.633 29.559-0.003906 57.906-11.75 78.805-32.656 20.898-20.902 32.637-49.254 32.633-78.812-0.019531-29.559-11.773-57.895-32.676-78.793-20.906-20.895-49.246-32.641-78.805-32.652zm0 192.54c-21.508 0-42.137-8.5469-57.344-23.758-15.207-15.211-23.75-35.836-23.75-57.348 0-21.508 8.5469-42.137 23.758-57.344s35.836-23.75 57.348-23.75c21.508 0 42.137 8.5469 57.344 23.758 15.207 15.207 23.75 35.836 23.75 57.348-0.019531 21.5-8.5664 42.117-23.773 57.324-15.207 15.203-35.824 23.754-57.324 23.77z"/>
 </g>
</svg>