<?xml version="1.0" encoding="UTF-8"?>
<!-- The Best Svg Icon site in the world: iconSvg.co, Visit us! https://iconsvg.co -->
<svg fill="#000000" width="800px" height="800px" version="1.1" viewBox="144 144 512 512" xmlns="http://www.w3.org/2000/svg">
 <g>
  <path d="m404.86 383.92h-9.7227c-6.6289 0-12.02-5.3906-12.02-12.02s5.3945-12.027 12.02-12.027h26.574c2.6719 0 4.832-2.168 4.832-4.832 0-2.6641-2.1602-4.832-4.832-4.832h-16.883v-14.102c0-2.6719-2.1602-4.832-4.832-4.832s-4.832 2.168-4.832 4.832v14.102h-0.023437c-11.961 0-21.688 9.7305-21.688 21.688 0 11.961 9.7305 21.688 21.688 21.688h9.7227c6.625 0 12.02 5.3945 12.02 12.02 0 6.6289-5.3906 12.02-12.02 12.02h-26.582c-2.6719 0-4.832 2.1602-4.832 4.832s2.168 4.832 4.832 4.832h16.883v14.105c0 2.6719 2.168 4.832 4.832 4.832 2.6719 0 4.832-2.1602 4.832-4.832v-14.105h0.03125c11.957 0 21.688-9.7305 21.688-21.688-0.003906-11.949-9.7305-21.68-21.688-21.68z"/>
  <path d="m283.03 363.74c-13.793 0-25.02 11.227-25.02 25.02 0 13.793 11.227 25.02 25.02 25.02 13.793 0 25.02-11.227 25.02-25.02 0-13.797-11.219-25.02-25.02-25.02zm0 40.371c-8.4648 0-15.352-6.8867-15.352-15.352 0-8.4648 6.8867-15.352 15.352-15.352s15.352 6.8867 15.352 15.352c0 8.4648-6.8789 15.352-15.352 15.352z"/>
  <path d="m400 312.32h-0.015625c-42.133 0.003906-76.414 34.289-76.414 76.434 0 42.137 34.285 76.422 76.422 76.422h0.015624c42.133-0.003907 76.414-34.289 76.414-76.422 0-42.148-34.285-76.434-76.422-76.434zm0 143.19h-0.011719c-36.809-0.003907-66.75-29.953-66.75-66.754 0-36.812 29.945-66.766 66.762-66.766h0.011719c36.809 0.003906 66.75 29.957 66.75 66.766-0.007813 36.809-29.953 66.754-66.762 66.754z"/>
  <path d="m569.12 290.31h-338.23c-2.6719 0-4.832 2.168-4.832 4.832v48.441c0 0.019531 0.003906 0.046875 0.003906 0.066407v90.242c0 0.015625-0.003906 0.03125-0.003906 0.046875v48.441c0 2.6719 2.168 4.832 4.832 4.832h48.441 0.019531c0.035157 0 0.066407-0.011719 0.10547-0.011719h241.11c0.039062 0 0.074219 0.011719 0.10938 0.011719h48.441c2.6719 0 4.832-2.1602 4.832-4.832v-48.441c0-0.015625-0.003906-0.03125-0.003906-0.046875v-90.242c0-0.019532 0.003906-0.046876 0.003906-0.066407v-48.441c0.003907-2.6719-2.1641-4.832-4.8281-4.832zm-333.39 9.6641h38.5c-1.0781 9.8125-5.4258 18.906-12.508 25.996-7.0898 7.0898-16.176 11.438-25.992 12.516v-38.512zm0 177.56v-38.496c20.184 2.2383 36.258 18.309 38.5 38.496zm328.55 0h-38.5c2.2422-20.184 18.312-36.254 38.5-38.496zm0-48.195c-25.52 2.3086-45.891 22.68-48.203 48.199h-232.15c-2.3125-25.52-22.68-45.891-48.199-48.199v-81.145c12.398-1.1094 23.91-6.4688 32.828-15.387 8.918-8.918 14.273-20.43 15.383-32.828h232.13c1.1094 12.398 6.4688 23.914 15.383 32.832 8.9141 8.918 20.43 14.273 32.828 15.387zm0-90.852c-9.8125-1.0781-18.902-5.4258-25.992-12.516s-11.438-16.184-12.508-25.996h38.5z"/>
  <path d="m491.95 388.76c0 13.793 11.227 25.02 25.02 25.02 13.793 0 25.02-11.227 25.02-25.02 0-13.793-11.227-25.02-25.02-25.02-13.797 0-25.02 11.223-25.02 25.02zm40.375 0c0 8.4648-6.8867 15.352-15.352 15.352s-15.352-6.8867-15.352-15.352c0-8.4648 6.8867-15.352 15.352-15.352 8.4648-0.003906 15.352 6.8828 15.352 15.352z"/>
  <path d="m569.12 500.02h-338.23c-2.6719 0-4.832 2.1602-4.832 4.832s2.168 4.832 4.832 4.832h338.23c2.6719 0 4.832-2.1602 4.832-4.832 0-2.6641-2.168-4.832-4.832-4.832z"/>
  <path d="m272.31 271.57c2.4492 1.0664 5.2969-0.050781 6.3633-2.4922 21.07-48.238 68.688-79.406 121.32-79.406 48.984 0 93.613 27.004 116.55 69.637l-35.691-10.852c-2.5547-0.77734-5.2539 0.66406-6.0312 3.2188-0.77734 2.5547 0.66406 5.2539 3.2188 6.0312l46.32 14.082c0.45703 0.14062 0.93359 0.20703 1.4062 0.20703 0.78516 0 1.5664-0.19141 2.2773-0.57031 1.1289-0.60547 1.9766-1.6328 2.3477-2.8555l14.082-46.32c0.77734-2.5547-0.66406-5.2539-3.2188-6.0312-2.5547-0.78125-5.2539 0.66406-6.0312 3.2188l-10.531 34.637c-24.719-45.363-72.398-74.07-124.71-74.07-56.477 0-107.57 33.441-130.18 85.203-1.0625 2.4414 0.054687 5.293 2.5 6.3633z"/>
  <path d="m541.79 528.43c-2.4492-1.0664-5.2969 0.050781-6.3633 2.4922-21.07 48.238-68.688 79.41-121.32 79.41-48.984 0-93.613-27.004-116.55-69.637l35.691 10.852c2.5547 0.77734 5.2539-0.66406 6.0312-3.2188 0.77734-2.5547-0.66406-5.2539-3.2188-6.0312l-46.32-14.082c-0.13281-0.039063-0.26172-0.050782-0.39453-0.082032-0.066406-0.015624-0.13281-0.03125-0.20312-0.039062-0.26172-0.046875-0.52344-0.066406-0.78516-0.066406h-0.097656c-0.76172 0.011718-1.5156 0.17969-2.2031 0.54297-1.1328 0.60547-1.9766 1.6328-2.3477 2.8555l-14.082 46.32c-0.77734 2.5547 0.66406 5.2539 3.2188 6.0312 0.46875 0.14062 0.94141 0.21094 1.4062 0.21094 2.0703 0 3.9883-1.3438 4.625-3.4297l10.531-34.637c24.719 45.363 72.398 74.07 124.7 74.07 56.477 0 107.57-33.449 130.18-85.211 1.0742-2.4375-0.046875-5.2852-2.4961-6.3516z"/>
 </g>
</svg>