<?xml version="1.0" encoding="UTF-8"?>
<!-- The Best Svg Icon site in the world: iconSvg.co, Visit us! https://iconsvg.co -->
<svg fill="#000000" width="800px" height="800px" version="1.1" viewBox="144 144 512 512" xmlns="http://www.w3.org/2000/svg">
 <g>
  <path d="m337.02 464.94v-5.9492c7.793-1.8086 14.195-7.3477 17.102-14.805s1.9414-15.867-2.5742-22.473c-4.5156-6.6094-12-10.559-20.004-10.559-5.0273 0-9.5586-3.0273-11.48-7.6719-1.9258-4.6445-0.86328-9.9883 2.6914-13.543 3.5547-3.5547 8.9023-4.6172 13.543-2.6953 4.6445 1.9258 7.6719 6.457 7.6719 11.48 0 3.2617 2.6445 5.9062 5.9062 5.9062 3.2578 0 5.9023-2.6445 5.9023-5.9062-0.007812-5.2969-1.75-10.449-4.957-14.664-3.2109-4.2188-7.7109-7.2695-12.816-8.6875v-5.8789c0-3.2617-2.6445-5.9062-5.9062-5.9062-3.2617 0-5.9023 2.6445-5.9023 5.9062v5.6016-0.003906c-7.8242 1.7695-14.266 7.293-17.203 14.754-2.9414 7.4609-1.9961 15.895 2.5156 22.523 4.5156 6.6289 12.016 10.594 20.035 10.594 5.0273 0 9.5586 3.0273 11.48 7.6719 1.9219 4.6406 0.85938 9.9883-2.6953 13.539-3.5547 3.5547-8.8984 4.6172-13.543 2.6953-4.6445-1.9258-7.6719-6.457-7.668-11.48 0-3.2617-2.6445-5.9062-5.9062-5.9062-3.2617 0-5.9023 2.6445-5.9023 5.9062 0.007812 5.3203 1.7617 10.492 4.9961 14.719s7.7695 7.2734 12.906 8.6719v6.1602c0 3.2617 2.6445 5.9062 5.9023 5.9062 3.2617 0 5.9062-2.6445 5.9062-5.9062z"/>
  <path d="m329.15 305.54c3.2617 0 5.9062-2.6445 5.9062-5.9062v-27.551c0-3.2617-2.6445-5.9023-5.9062-5.9023-3.2578 0-5.9023 2.6406-5.9023 5.9023v27.551c0 3.2617 2.6445 5.9062 5.9023 5.9062z"/>
  <path d="m425.1 346.17c1.5664 0.003906 3.0703-0.61719 4.1758-1.7266l19.703-19.703h-0.003907c2.3086-2.3047 2.3086-6.043 0.003907-8.3477-2.3086-2.3086-6.0469-2.3086-8.3516 0l-19.703 19.703v-0.003906c-1.6875 1.6914-2.1914 4.2305-1.2773 6.4336 0.91406 2.207 3.0664 3.6445 5.4531 3.6445z"/>
  <path d="m222.07 316.72c-2.3086-2.2734-6.0195-2.2578-8.3125 0.035156-2.293 2.293-2.3086 6.0039-0.035156 8.3164l19.703 19.703v-0.003907c2.3164 2.2266 5.9883 2.1875 8.2617-0.085937 2.2734-2.2695 2.3086-5.9453 0.082031-8.2617z"/>
  <path d="m271.61 315.85c0.63281 1.4336 1.8164 2.5586 3.2852 3.1211 1.4648 0.5625 3.0977 0.51953 4.5273-0.125 1.4336-0.64453 2.5547-1.832 3.1094-3.3008 0.55469-1.4688 0.5-3.1016-0.15234-4.5312l-11.406-25.422c-1.3438-2.957-4.8281-4.2695-7.7891-2.9414-2.9648 1.332-4.2969 4.8047-2.9844 7.7773z"/>
  <path d="m376.15 316c1.4609 0.55469 3.0859 0.50781 4.5156-0.13281 1.4297-0.64062 2.543-1.8242 3.1016-3.2852l9.9102-26.043c1.1562-3.0469-0.37109-6.4609-3.4219-7.6172-3.0469-1.1602-6.457 0.37109-7.6172 3.418l-9.9062 26.043c-1.1602 3.0469 0.37109 6.457 3.418 7.6172z"/>
  <path d="m403.93 470.85h-20.102c15.105-14.082 23.895-33.656 24.379-54.301 0.48437-20.645-7.3789-40.613-21.809-55.383-14.43-14.773-34.207-23.102-54.855-23.102s-40.426 8.3281-54.855 23.102c-14.43 14.77-22.293 34.738-21.809 55.383 0.48438 20.645 9.2734 40.219 24.379 54.301h-21.945c-3.2578 0-5.9023 2.6406-5.9023 5.9023s2.6445 5.9062 5.9023 5.9062h146.62c3.2617 0 5.9062-2.6445 5.9062-5.9062s-2.6445-5.9023-5.9062-5.9023zm-105.24 0c-0.30469-0.29297-0.64062-0.55469-1-0.77734-16.188-9.9023-27.23-26.395-30.215-45.133-2.9883-18.738 2.3789-37.844 14.688-52.289 12.305-14.441 30.32-22.773 49.293-22.801 18.977-0.023437 37.012 8.2578 49.359 22.668 12.344 14.41 17.762 33.504 14.828 52.25-2.9375 18.746-13.934 35.27-30.094 45.215-0.39453 0.24609-0.75781 0.53516-1.082 0.86719z"/>
  <path d="m584.73 561.29c-2.3086-2.3047-6.043-2.3047-8.3516 0l-6.9062 6.9062-8.1719-8.1719c13.766-15.805 21.305-36.078 21.207-57.035 0-45.879-35.891-83.551-81.156-86.609v-176.57c0.082032-1.5391-0.46094-3.043-1.5039-4.1758h0.11328l-79.605-79.66 0.027343-0.12109v-0.003906c-1.082-1.1406-2.5742-1.8047-4.1484-1.8477h-248.94c-3.2617 0-5.4258 2.8906-5.4258 6.1484v435.92c-0.10156 1.4883 0.43359 2.9492 1.4648 4.0234 1.0312 1.0781 2.4688 1.668 3.9609 1.6289h328.6c1.4922 0.039062 2.9336-0.55078 3.9688-1.625 1.0391-1.0742 1.5742-2.5352 1.4844-4.0273v-6.4727 0.003906c18.988-1.2461 37.043-8.707 51.375-21.227l8.2852 8.1719-6.9453 7.0039c-2.2969 2.3125-2.2852 6.0508 0.027344 8.3477l47.539 47.527c0.19531 0.19531 0.39453 0.375 0.58984 0.55078l0.14062 0.125c0.074219 0.070313 0.14844 0.14453 0.22656 0.21094 5.668 5.0273 13.555 6.7188 20.785 4.4688 7.2344-2.2539 12.766-8.125 14.578-15.477 1.8164-7.3555-0.34375-15.125-5.6992-20.484zm-162.1-386.89 59.016 59.305h-59.016zm-248.95 415.51v-424.11h237.14v74c0 3.2617 2.1523 5.707 5.4102 5.707h73.309v170.86c-44.281 3.0312-80.988 40.719-80.988 86.613s36.707 83.582 80.988 86.613v0.30859zm322.19-11.914h-0.003906c-19.891-0.011719-38.961-7.9258-53.02-21.996-14.055-14.074-21.949-33.152-21.941-53.043s7.918-38.965 21.988-53.027c14.07-14.059 33.148-21.957 53.039-21.949 19.891 0.003906 38.965 7.9062 53.027 21.973s21.965 33.145 21.965 53.035c-0.03125 19.891-7.9492 38.961-22.02 53.023s-33.145 21.969-53.039 21.984zm127.99 53.129c-3.6445 3.5586-9.4023 3.7656-13.293 0.46875-0.14453-0.14062-0.28906-0.26953-0.43359-0.40234l-43.484-43.473 13.91-13.906 43.316 43.32h0.003906c1.8828 1.8398 2.9414 4.3633 2.9375 7-0.003906 2.6328-1.0703 5.1562-2.957 6.9922z"/>
 </g>
</svg>