<?xml version="1.0" encoding="UTF-8"?>
<!-- The Best Svg Icon site in the world: iconSvg.co, Visit us! https://iconsvg.co -->
<svg fill="#000000" width="800px" height="800px" version="1.1" viewBox="144 144 512 512" xmlns="http://www.w3.org/2000/svg">
 <g>
  <path d="m512.51 263.87c3.0898 2.9844 8 2.9414 11.035-0.09375 3.0391-3.0391 3.082-7.9492 0.097656-11.035l-15.746-15.746c-2.25-2.25-5.6328-2.9219-8.5742-1.707-2.9414 1.2188-4.8594 4.0898-4.8633 7.2734v55.105c0 2.0859 0.83203 4.0898 2.3086 5.5664 1.4766 1.4727 3.4766 2.3047 5.5664 2.3047h55.105-0.003906c3.1836 0 6.0547-1.918 7.2734-4.8594 1.2188-2.9414 0.54297-6.3281-1.707-8.5781l-15.742-15.742v-0.003907c-3.0898-2.9805-8-2.9414-11.035 0.097657-3.0391 3.0352-3.082 7.9453-0.097656 11.035l2.3047 2.3047h-28.227v-28.227z"/>
  <path d="m581.05 163.84c-14.613 0-28.629 5.8086-38.965 16.141-10.332 10.336-16.141 24.352-16.141 38.965 0 14.613 5.8086 28.633 16.141 38.965 10.336 10.336 24.352 16.141 38.965 16.141 14.613 0 28.633-5.8047 38.965-16.141 10.336-10.332 16.141-24.352 16.141-38.965-0.019531-14.609-5.8281-28.613-16.16-38.945-10.328-10.332-24.336-16.141-38.945-16.16zm0 94.465c-10.438 0-20.449-4.1445-27.832-11.527-7.3789-7.3828-11.527-17.391-11.527-27.832 0-10.438 4.1484-20.449 11.527-27.832 7.3828-7.3789 17.395-11.527 27.832-11.527s20.449 4.1484 27.832 11.527c7.3828 7.3828 11.527 17.395 11.527 27.832-0.011718 10.438-4.1641 20.441-11.539 27.82-7.3789 7.3789-17.387 11.527-27.82 11.539z"/>
  <path d="m218.94 163.84c-14.613 0-28.629 5.8086-38.965 16.141-10.332 10.336-16.141 24.352-16.141 38.965 0 14.613 5.8086 28.633 16.141 38.965 10.336 10.336 24.352 16.141 38.965 16.141 14.613 0 28.633-5.8047 38.965-16.141 10.336-10.332 16.141-24.352 16.141-38.965-0.015625-14.609-5.8281-28.613-16.16-38.945-10.328-10.332-24.336-16.141-38.945-16.16zm0 94.465c-10.438 0-20.449-4.1445-27.832-11.527-7.3789-7.3828-11.527-17.391-11.527-27.832 0-10.438 4.1484-20.449 11.527-27.832 7.3828-7.3789 17.395-11.527 27.832-11.527 10.441 0 20.449 4.1484 27.832 11.527 7.3828 7.3828 11.527 17.395 11.527 27.832-0.011719 10.438-4.1602 20.441-11.539 27.82-7.3789 7.3789-17.383 11.527-27.82 11.539z"/>
  <path d="m536.13 523.64c3.0742 3.0742 8.0586 3.0742 11.133 0l15.742-15.742v-0.003906c2.25-2.25 2.9258-5.6328 1.707-8.5742-1.2188-2.9414-4.0898-4.8594-7.2734-4.8633h-55.102c-4.3477 0-7.875 3.5273-7.875 7.875v55.105-0.003906c0 3.1836 1.918 6.0547 4.8594 7.2734 0.95313 0.39844 1.9805 0.60156 3.0156 0.60156 2.0859 0 4.0898-0.83203 5.5625-2.3086l15.742-15.742h0.003906c2.9844-3.0898 2.9414-8-0.097656-11.035-3.0352-3.0391-7.9453-3.082-11.035-0.097656l-2.3047 2.3086v-28.23h28.23l-2.3047 2.3047h-0.003906c-3.0742 3.0742-3.0742 8.0586 0 11.133z"/>
  <path d="m581.05 525.95c-14.613 0-28.629 5.8086-38.965 16.141-10.332 10.336-16.141 24.352-16.141 38.965 0 14.613 5.8086 28.633 16.141 38.965 10.336 10.336 24.352 16.141 38.965 16.141 14.613 0 28.633-5.8047 38.965-16.141 10.336-10.332 16.141-24.352 16.141-38.965-0.019531-14.609-5.8281-28.617-16.16-38.945-10.328-10.332-24.336-16.141-38.945-16.16zm0 94.465c-10.438 0-20.449-4.1445-27.832-11.527-7.3789-7.3828-11.527-17.395-11.527-27.832s4.1484-20.449 11.527-27.832c7.3828-7.3789 17.395-11.527 27.832-11.527s20.449 4.1484 27.832 11.527c7.3828 7.3828 11.527 17.395 11.527 27.832-0.011718 10.434-4.1641 20.441-11.539 27.82-7.3789 7.375-17.387 11.527-27.82 11.539z"/>
  <path d="m274.05 581.05c0-14.613-5.8047-28.629-16.141-38.965-10.332-10.332-24.352-16.141-38.965-16.141-14.613 0-28.629 5.8086-38.965 16.141-10.332 10.336-16.141 24.352-16.141 38.965 0 14.613 5.8086 28.633 16.141 38.965 10.336 10.336 24.352 16.141 38.965 16.141 14.609-0.019531 28.617-5.8281 38.945-16.16 10.332-10.328 16.145-24.336 16.16-38.945zm-94.465 0c0-10.438 4.1484-20.449 11.527-27.832 7.3828-7.3789 17.395-11.527 27.832-11.527 10.441 0 20.449 4.1484 27.832 11.527 7.3828 7.3828 11.527 17.395 11.527 27.832s-4.1445 20.449-11.527 27.832c-7.3828 7.3828-17.391 11.527-27.832 11.527-10.434-0.011718-20.438-4.1641-27.816-11.539-7.3789-7.3789-11.531-17.387-11.543-27.82z"/>
  <path d="m274.5 353.96c-0.046875 0.125-0.09375 0.24219-0.13281 0.37891l-0.003906-0.003906c-10.922 29.461-10.922 61.859 0 91.316 0 0.125 0.085937 0.24219 0.13281 0.37109h0.003906c12.602 34.523 38.867 62.328 72.617 76.875 33.75 14.543 72.004 14.543 105.75 0 33.75-14.547 60.016-42.352 72.621-76.875 0.046875-0.125 0.09375-0.24219 0.13281-0.37109 10.922-29.457 10.922-61.855 0-91.316-0.039062-0.13281-0.085937-0.25-0.13281-0.37891v0.003906c-12.605-34.523-38.871-62.332-72.621-76.875-33.75-14.547-72.004-14.547-105.75 0-33.75 14.543-60.016 42.352-72.617 76.875zm169.97-30.742c-13.383-1.2969-28.211-1.9453-44.477-1.9453-16.27 0-31.094 0.64844-44.477 1.9453 13.145-25.246 30.801-41.305 44.477-41.305 13.672 0 31.328 16.059 44.477 41.305zm-85.414-33.852c-9.3203 10.871-16.918 23.105-22.535 36.277-11.938 1.7773-23.648 4.8516-34.922 9.1602 13.875-20.832 33.988-36.738 57.457-45.438zm-37.5 102.75h-39.242c0.69531-10.621 2.832-21.098 6.3594-31.141 7.6914-7.9336 21.828-14.027 41.477-18.105-5.0391 15.961-7.9297 32.523-8.5938 49.246zm78.438 125.95c-39.613-0.027344-76.566-19.922-98.402-52.969 8.418 3.2852 17.109 5.8086 25.977 7.5391 2.082 0.51172 4.2812 0.15234 6.0898-0.99219 1.8086-1.1445 3.0742-2.9766 3.5039-5.0742 0.42969-2.1016-0.015625-4.2812-1.2305-6.0469-1.2188-1.7617-3.0977-2.9531-5.2109-3.3008-19.957-4.0703-34.402-10.375-42.051-18.246h-0.003906c-3.5234-10.035-5.6602-20.504-6.3516-31.117h39.219c0.23438 5.6055 0.62891 11.211 1.3633 16.773h-0.003906c0.22266 2.1133 1.2891 4.0508 2.957 5.3672 1.668 1.3164 3.7969 1.8984 5.9062 1.6211 2.1055-0.27734 4.0117-1.3945 5.2812-3.1016 1.2695-1.7031 1.7969-3.8477 1.4609-5.9492-0.98438-7.4883-1.4805-15.031-1.4805-22.582 0.03125-20.52 3.7773-40.859 11.059-60.043 17.227-2.0625 34.566-3.043 51.918-2.9336 17.348-0.10938 34.688 0.87109 51.914 2.9336 7.2812 19.184 11.027 39.523 11.062 60.043-0.003906 7.5508-0.5 15.094-1.4805 22.582-0.57031 4.3086 2.4609 8.2617 6.7695 8.832 0.33203 0.046876 0.66797 0.070313 1.0078 0.074219 3.9453-0.007812 7.2773-2.9297 7.793-6.8438 0.73047-5.5664 1.125-11.172 1.3633-16.773h39.219-0.003907c-0.69141 10.613-2.8281 21.082-6.3516 31.117-7.6523 7.8711-22.098 14.168-42.051 18.246-2.1133 0.34766-3.9961 1.5391-5.2109 3.3008-1.2188 1.7656-1.6602 3.9453-1.2344 6.0469 0.42969 2.0977 1.6953 3.9297 3.5039 5.0742 1.8125 1.1445 4.0078 1.5039 6.0898 0.99219 8.8672-1.7305 17.559-4.2539 25.977-7.5391-21.828 33.039-58.77 52.93-98.367 52.969zm117.68-125.95h-39.242c-0.66406-16.719-3.5547-33.273-8.5938-49.23 19.68 4.0625 33.785 10.156 41.477 18.105 3.5273 10.039 5.6641 20.512 6.3594 31.125zm-19.277-57.316c-11.273-4.3086-22.98-7.3828-34.922-9.1602-5.6172-13.172-13.219-25.406-22.543-36.277 23.473 8.6992 43.59 24.605 57.465 45.438z"/>
  <path d="m427.75 400.61c9.0977-7.6641 14.531-18.816 14.957-30.703 0.16797-4.4414-1.1641-8.8125-3.7773-12.406-2.6172-3.5938-6.3633-6.207-10.645-7.4141-5.6562-1.5781-11.727-0.45703-16.449 3.0312-3.5312-2.2656-7.6367-3.4727-11.832-3.4727s-8.3047 1.207-11.832 3.4727c-4.7383-3.4688-10.801-4.5859-16.461-3.0312-4.2773 1.2109-8.0234 3.8203-10.637 7.418-2.6172 3.5938-3.9453 7.9609-3.7773 12.402 0.72266 11.828 6.4219 22.793 15.68 30.184-19.156 11.617-31.145 32.129-31.863 54.52 0 34.828 22.008 55.594 58.891 55.594 36.879 0 58.891-20.766 58.891-55.555-0.71094-22.082-12.395-42.355-31.145-54.039zm-33.816-8.4883c-5.5664-0.76172-10.691-3.4336-14.504-7.5547-3.8125-4.125-6.0742-9.4453-6.3984-15.051-0.13281-1.8125 0.92969-3.4961 2.6211-4.1484 0.41016-0.10938 0.83203-0.16797 1.2539-0.17578 0.66406-0.015624 1.3164 0.1875 1.8477 0.58203 0.80469 0.6875 1.2383 1.7031 1.1836 2.7578 0 4.3477 3.5234 7.8711 7.8711 7.8711 4.3477 0 7.8711-3.5234 7.8711-7.8711 0-1.9453 2.2734-3.3047 4.3203-3.3047s4.3203 1.3633 4.3203 3.3047h0.003906c0 4.3477 3.5234 7.8711 7.8711 7.8711s7.8711-3.5234 7.8711-7.8711c-0.054688-1.0547 0.38281-2.0703 1.1836-2.7578 0.91797-0.60156 2.0586-0.75 3.1016-0.40625 1.6914 0.65234 2.7578 2.3359 2.6211 4.1484-0.29297 10.664-8.5273 22.605-19.098 22.605zm6.0703 102.34c-35.66 0-43.148-21.648-43.148-39.809 0-23.617 21.371-46.785 43.148-46.785 21.773 0 43.148 23.176 43.148 46.785-0.003907 18.164-7.4883 39.809-43.148 39.809z"/>
  <path d="m400 470.85c-4.1758 0-8.1797-1.6602-11.133-4.6133-2.9531-2.9531-4.6133-6.957-4.6133-11.133 0-4.3477-3.5234-7.8711-7.8711-7.8711-4.3477 0-7.8711 3.5234-7.8711 7.8711 0 8.3516 3.3164 16.363 9.2227 22.266 5.9023 5.9062 13.914 9.2227 22.266 9.2227 4.3477 0 7.8711-3.5234 7.8711-7.8711s-3.5234-7.8711-7.8711-7.8711z"/>
  <path d="m596.8 218.94c0 4.1758-1.6602 8.1797-4.6133 11.133s-6.957 4.6133-11.133 4.6133c-4.3477 0-7.8711 3.5234-7.8711 7.8711s3.5234 7.8711 7.8711 7.8711c8.3516 0 16.359-3.3164 22.266-9.2227s9.2227-13.914 9.2227-22.266c0-4.3477-3.5234-7.8711-7.8711-7.8711s-7.8711 3.5234-7.8711 7.8711z"/>
  <path d="m596.8 581.05c0 4.1758-1.6602 8.1797-4.6133 11.133s-6.957 4.6133-11.133 4.6133c-4.3477 0-7.8711 3.5234-7.8711 7.8711s3.5234 7.8711 7.8711 7.8711c8.3516 0 16.359-3.3164 22.266-9.2227s9.2227-13.914 9.2227-22.266c0-4.3477-3.5234-7.8711-7.8711-7.8711s-7.8711 3.5234-7.8711 7.8711z"/>
  <path d="m250.43 581.05c0-4.3477-3.5234-7.8711-7.8711-7.8711s-7.8711 3.5234-7.8711 7.8711c0 4.1758-1.6602 8.1797-4.6133 11.133s-6.957 4.6133-11.133 4.6133c-4.3477 0-7.8711 3.5234-7.8711 7.8711s3.5234 7.8711 7.8711 7.8711c8.3516 0 16.359-3.3164 22.266-9.2227s9.2227-13.914 9.2227-22.266z"/>
  <path d="m234.69 218.94c0 4.1758-1.6602 8.1797-4.6133 11.133s-6.957 4.6133-11.133 4.6133c-4.3477 0-7.8711 3.5234-7.8711 7.8711s3.5234 7.8711 7.8711 7.8711c8.3516 0 16.359-3.3164 22.266-9.2227s9.2227-13.914 9.2227-22.266c0-4.3477-3.5234-7.8711-7.8711-7.8711s-7.8711 3.5234-7.8711 7.8711z"/>
  <path d="m300.68 235.29c-2.9414-1.2188-6.3281-0.54688-8.5781 1.707l-15.746 15.746c-2.9805 3.0859-2.9414 7.9961 0.097657 11.035 3.0352 3.0352 7.9453 3.0781 11.035 0.09375l2.3047-2.3047v28.227h-28.227l2.3047-2.3047c2.9844-3.0898 2.9414-8-0.09375-11.035-3.0391-3.0391-7.9492-3.0781-11.035-0.097657l-15.746 15.746c-2.25 2.25-2.9219 5.6367-1.707 8.5781 1.2188 2.9414 4.0898 4.8594 7.2734 4.8594h55.105c2.0859 0 4.0898-0.83203 5.5664-2.3047 1.4727-1.4766 2.3047-3.4805 2.3047-5.5664v-55.105c0-3.1836-1.918-6.0547-4.8594-7.2734z"/>
  <path d="m287.48 536.13c-3.0898-2.9844-8-2.9414-11.035 0.097656-3.0391 3.0352-3.0781 7.9453-0.097657 11.035l15.742 15.742h0.003906c1.4766 1.4766 3.4766 2.3086 5.5664 2.3086 1.0312 0 2.0586-0.20312 3.0117-0.60156 2.9414-1.2188 4.8594-4.0898 4.8594-7.2734v-55.102c0-2.0898-0.83203-4.0898-2.3047-5.5664-1.4766-1.4766-3.4805-2.3086-5.5664-2.3086h-55.105c-3.1836 0.003906-6.0547 1.9219-7.2734 4.8633-1.2148 2.9414-0.54297 6.3242 1.707 8.5742l15.746 15.746c3.0859 2.9844 7.9961 2.9414 11.035-0.097656 3.0352-3.0352 3.0781-7.9453 0.09375-11.035l-2.3047-2.3047h28.227v28.23z"/>
 </g>
</svg>