<?xml version="1.0" encoding="UTF-8"?>
<!-- The Best Svg Icon site in the world: iconSvg.co, Visit us! https://iconsvg.co -->
<svg fill="#000000" width="800px" height="800px" version="1.1" viewBox="144 144 512 512" xmlns="http://www.w3.org/2000/svg">
 <g>
  <path d="m401.29 307.8h-2.5938c-7.4922 0-13.594-6.0977-13.594-13.594s6.0977-13.598 13.594-13.598h17.07c1.9258 0 3.4727-1.5586 3.4727-3.4727 0-1.9141-1.5508-3.4766-3.4727-3.4766h-11.004v-8.75c0-1.918-1.5586-3.4766-3.4727-3.4766-1.9141 0-3.4766 1.5586-3.4766 3.4766v8.8008c-10.918 0.46875-19.66 9.4727-19.66 20.5 0 11.324 9.2188 20.547 20.547 20.547h2.5938c7.4961 0 13.594 6.0977 13.594 13.594 0 7.4922-6.0898 13.594-13.582 13.598h-0.011719-0.019531-17.051c-1.918 0-3.4766 1.5586-3.4766 3.4766s1.5586 3.4766 3.4766 3.4766h13.594v8.75c0 1.918 1.5586 3.4727 3.4766 3.4727s3.4727-1.5586 3.4727-3.4727v-9.0742c9.6797-1.6562 17.074-10.086 17.074-20.227-0.003906-11.332-9.2188-20.551-20.551-20.551z"/>
  <path d="m400 174.56c-87.742 0-159.12 71.379-159.12 159.13 0 31.895 9.4062 62.664 27.199 88.988 0.039062 0.058594 0.085937 0.125 0.13281 0.17969 0.41797 0.53516 41.195 53.504 49.148 103.08-4.75 3.4023-7.8711 8.9492-7.8711 15.227v1.5273c0 6.293 3.1289 11.855 7.8945 15.246-4.7656 3.3945-7.8945 8.9531-7.8945 15.246v1.5234c0 10.324 8.3984 18.723 18.715 18.723h24.73c-2.6094 3.2188-4.1797 7.3164-4.1797 11.77v1.5273c0 10.324 8.3984 18.723 18.723 18.723h65.051c10.316 0 18.715-8.3984 18.715-18.723v-1.5273c0-4.4531-1.5703-8.5508-4.1797-11.77h24.73c4.9844 0 9.6797-1.9492 13.227-5.4961 3.543-3.543 5.4961-8.2422 5.4961-13.227v-1.5234c0-6.293-3.1289-11.859-7.9062-15.25 0.84766-0.60547 1.6562-1.2695 2.4141-2.0156 3.543-3.543 5.4961-8.2422 5.4961-13.227v-1.5273c0-6.2773-3.1133-11.828-7.875-15.219 7.9453-49.578 48.727-102.55 49.148-103.09 0.046876-0.054688 0.089844-0.12109 0.13281-0.17969 17.793-26.324 27.199-57.09 27.199-88.988 0-87.75-71.379-159.13-159.12-159.13zm44.293 432.16c0 6.4883-5.2812 11.77-11.77 11.77h-65.051c-6.4883 0-11.77-5.2812-11.77-11.77v-1.5273c0-6.4844 5.2812-11.77 11.77-11.77h65.051c6.4883 0 11.77 5.2852 11.77 11.77zm39.266-32.012c0 6.4883-5.2812 11.773-11.77 11.773h-143.59c-6.4883 0-11.77-5.2852-11.77-11.773v-1.5234c0-6.4883 5.2812-11.773 11.77-11.773h143.59c6.4883 0 11.77 5.2852 11.77 11.773zm0-32.016c0 6.4883-5.2812 11.77-11.77 11.77h-143.59c-6.4883 0-11.77-5.2812-11.77-11.77v-1.5273c0-6.4883 5.2812-11.77 11.77-11.77h71.789 0.003906 0.011718 71.781c6.4883 0 11.77 5.2812 11.77 11.773zm42.668-124c-2.5391 3.2852-41.348 54.125-50.129 104.28-1.3789-0.32813-2.8281-0.52344-4.3008-0.52344h-68.32v-69.375c8.5078 4.4492 16.836 6.707 24.824 6.707 38.254 0 55.391-50.02 56.098-52.148 0.28906-0.875 0.22266-1.8242-0.19141-2.6484-0.41406-0.82812-1.1328-1.4492-2.0039-1.75-0.60547-0.19531-14.906-4.8984-31.805-4.8984-13.809 0-25.285 3.1406-34.094 9.3203-5.332 3.7383-9.5977 8.5547-12.82 14.395v-44.844c34.793-1.8125 62.543-30.691 62.543-65.93 0-36.406-29.613-66.02-66.02-66.02s-66.02 29.613-66.02 66.02c0 35.238 27.75 64.113 62.543 65.922v44.848c-3.2227-5.8398-7.4922-10.656-12.82-14.395-8.8047-6.1875-20.273-9.3203-34.094-9.3203-16.898 0-31.207 4.6992-31.805 4.8984-0.87109 0.29688-1.5938 0.92188-2.0039 1.75-0.41406 0.82812-0.48047 1.7773-0.1875 2.6484 0.71094 2.1328 17.84 52.141 56.094 52.148h0.003906c7.9766 0 16.305-2.2578 24.812-6.707v69.375l-68.324 0.003906c-1.4805 0-2.9219 0.19141-4.3086 0.52344-8.7773-50.152-47.59-100.99-50.129-104.28-16.977-25.141-25.945-54.531-25.945-84.996 0-83.91 68.266-152.18 152.18-152.18 83.914 0 152.18 68.266 152.18 152.18-0.003907 30.465-8.9766 59.855-25.953 84.996zm-126.23-48.34c-32.57 0-59.07-26.5-59.07-59.07 0-32.57 26.5-59.07 59.07-59.07s59.07 26.5 59.07 59.07c0 32.57-26.5 59.07-59.07 59.07zm3.6719 74.902c3.0117-26.527 18.723-39.969 46.715-39.969 11.004 0 21.035 2.207 26.113 3.5352-4.4297 10.863-20.262 44.008-48.199 44.008-7.7734 0.007813-16.043-2.5469-24.629-7.5742zm-7.3477 0c-8.5859 5.0273-16.859 7.582-24.617 7.582h-0.003906c-27.945-0.003906-43.777-33.156-48.211-44.008 5.0742-1.3398 15.086-3.5352 26.117-3.5352 28 0 43.707 13.441 46.715 39.961z"/>
 </g>
</svg>