<?xml version="1.0" encoding="UTF-8"?>
<!-- The Best Svg Icon site in the world: iconSvg.co, Visit us! https://iconsvg.co -->
<svg fill="#000000" width="800px" height="800px" version="1.1" viewBox="144 144 512 512" xmlns="http://www.w3.org/2000/svg">
 <path d="m603.64 389.59c-0.84766-94.016-78.02-170.5-172.03-170.5l-1.5664 0.003906c-94.867 0.85156-171.34 78.727-170.5 173.59 0.070313 7.6445 0.71484 15.141 1.7734 22.516l-32.082-32.082c-7.5625-7.5664-20.746-7.5664-28.309 0-3.7852 3.7852-5.8711 8.8125-5.8711 14.156 0 5.3516 2.0859 10.379 5.8711 14.156l13.934 13.934v156.33c0 4.1758 3.3789 7.5586 7.5586 7.5586h218.13l35.562 11c1.7148 0.52734 3.5 0.80078 5.3047 0.80078h0.089844c9.8906 0 17.941-8.0508 17.941-17.945 0-0.62891-0.03125-1.2578-0.089844-1.875l-0.24609-32.008c61.883-26.535 105.15-88.207 104.52-159.64zm-50.254 100.4c-8.8047-5.2852-18.367-9.875-28.566-13.785 8.1484-23.32 12.988-50.02 13.492-78.465l50.082-0.44922c-1.3516 35.016-14.246 67.164-35.008 92.699zm34.883-107.81-50.082 0.44922c-1.0117-29.387-6.4141-56.629-15.164-80.125 9.7891-3.9258 18.984-8.4688 27.367-13.582 21.879 25.383 35.855 57.77 37.879 93.258zm-65.059 15.703c-0.50391 26.754-4.9492 51.809-12.391 73.496-21.805-6.6719-47.273-10.352-72.441-10.844v-61.902zm-84.832-14.363v-63.852c24.59-0.89062 48.637-5.043 70.258-11.996 8.2461 21.984 13.422 47.613 14.434 75.098zm101.3-105.84c-6.957 4.0391-14.465 7.6836-22.453 10.879-8.1055-17.602-18.254-32.551-29.906-44.027 19.633 7.5117 37.383 18.871 52.359 33.148zm-36.926 16.035c-19.828 6.2422-41.77 9.9844-64.383 10.836l-0.62891-69.828c26.129 3.4531 49.371 25.766 65.012 58.992zm-77.781 202.35-21.547-18.586c7.0312-0.86328 14.148-1.5469 21.371-1.8203zm-1.7148-97.297v61.777c-24.859 0.90234-47.621 5.1445-69.418 12.234-7.8477-21.562-12.758-46.543-13.742-73.254zm-83.297-14.359c0.51953-27.52 5.2227-53.227 13.074-75.344 21.633 6.5664 45.316 10.219 70.227 10.645v63.938zm82.668-149.5 0.62891 69.777c-22.68-0.45703-44.684-3.8125-64.582-9.6797 15.004-33.359 37.793-56.016 63.953-60.098zm-48.113 10.07c-11.73 11.828-21.895 27.258-29.93 45.312-8.2617-3.1094-16.043-6.6875-23.215-10.699 15.047-14.883 33.082-26.746 53.145-34.613zm-63.539 45.93c8.6641 5.1055 18.035 9.5586 28.008 13.359-8.5312 23.746-13.602 51.098-14.125 80.277l-50.062 0.44922c1.375-35.66 14.742-68.328 36.18-94.086zm28.535 187.07c-3.6641 1.4805-7.1953 3.082-10.66 4.7461l-47.848-47.848c-3.2852-11.133-5.3906-22.762-6.0742-34.77l50.055-0.44922c1 28.637 6.1602 55.23 14.527 78.32zm89.828 77.934c-5.4531 4.0508-8.125 10.727-6.9766 17.438 0.039063 0.27344 0.125 0.52344 0.1875 0.78906h-192.56v-133.66l84.051 84.051c5.7188 5.7227 14.645 7.4414 22.082 4.2305l43.66-18.812 51.559 44.477zm52.184 30.027h-0.089844c-0.28906 0-0.55859-0.039062-0.83594-0.125l-41.387-12.797c-1.0234-0.31641-1.7734-1.1758-1.9609-2.2227-0.17578-1.0586 0.24609-2.1094 1.1133-2.75l9.5625-7.1172c1.8398-1.3711 2.9531-3.5 3.043-5.7891 0.082031-2.293-0.88672-4.5-2.6211-5.9961l-62.285-53.727c-1.3945-1.2031-3.1602-1.832-4.9375-1.832-1.0078 0-2.0234 0.20312-2.9922 0.62109l-47.996 20.688c-1.8281 0.78516-4.0039 0.36328-5.4102-1.0391l-113.11-113.11c-0.92578-0.92578-1.4375-2.1562-1.4375-3.4648 0-1.3086 0.51562-2.5391 1.4414-3.4727 1.8555-1.8555 5.082-1.8555 6.9375 0l107.12 107.12c2.1914 2.1875 5.4922 2.8281 8.332 1.5977l47.398-20.426c1.6992-0.73047 3.7422-0.41797 5.1484 0.78906l72.414 62.457c2.6758 2.3164 6.6094 2.4531 9.4453 0.34375l11.004-8.1758c1.2578-0.9375 2.168-0.65625 2.9414-0.26172 0.96094 0.48047 1.5664 1.4414 1.5703 2.5078l0.3125 42.012c0 0.34766 0.039063 0.99219 0.089844 1.3359 0.003906 1.5625-1.2656 2.832-2.8203 2.832zm1.3164-63.93c-4.3789-0.38672-8.9062 0.75-12.438 3.375l-6.1328 4.5586-24.461-21.098-1.4375-33.328c22.98 0.46875 46.809 3.918 66.961 9.9609-6.2031 14.277-13.82 26.641-22.492 36.531zm14.977 11.312c-0.52734-1.3906-1.2383-2.6992-2.0977-3.9102 9.125-10.941 17.109-24.152 23.625-39.176 8.4727 3.2344 16.473 6.9414 23.824 11.133-13.016 13.18-28.367 24.023-45.352 31.953z"/>
</svg>