<?xml version="1.0" encoding="UTF-8"?>
<!-- The Best Svg Icon site in the world: iconSvg.co, Visit us! https://iconsvg.co -->
<svg fill="#000000" width="800px" height="800px" version="1.1" viewBox="144 144 512 512" xmlns="http://www.w3.org/2000/svg">
 <g>
  <path d="m196.98 321.28h406.04l-202.71-140.04zm334.77-30.094c2.8359 1.957 4.0664 5.5312 3.043 8.8203-1.0234 3.2891-4.0703 5.5312-7.5156 5.5312h-254.34c-3.4492 0-6.4961-2.2422-7.5234-5.5352-1.0234-3.293 0.21875-6.8711 3.0586-8.8242l127.34-87.703c2.6914-1.8555 6.25-1.8555 8.9414 0z"/>
  <path d="m510.21 368.51h62.977v15.742h-62.977z"/>
  <path d="m557.44 420.39v-20.387h-31.488v15.742c10.668 0.007812 21.277 1.5742 31.488 4.6445z"/>
  <path d="m298.25 289.79h203.77l-101.75-70.266zm125.37-31.488c0 6.2656-2.4883 12.273-6.9141 16.699-4.4297 4.4297-10.438 6.918-16.699 6.918-6.2656 0-12.273-2.4883-16.699-6.918-4.4297-4.4258-6.918-10.434-6.918-16.699 0-6.2617 2.4883-12.27 6.918-16.699 4.4258-4.4258 10.434-6.9141 16.699-6.9141 6.2617 0 12.27 2.4883 16.699 6.9141 4.4258 4.4297 6.9141 10.438 6.9141 16.699z"/>
  <path d="m305.54 368.51v23.617-0.003906c0 2.0898-0.83203 4.0898-2.3047 5.5664-1.4766 1.4766-3.4805 2.3086-5.5664 2.3086h-7.875v94.461h7.875c2.0859 0 4.0898 0.83203 5.5664 2.3086 1.4727 1.4766 2.3047 3.4766 2.3047 5.5664v23.617h47.23v-23.617c0-4.3477 3.5234-7.875 7.8711-7.875h7.8711l0.003907-94.461h-7.875c-4.3477 0-7.8711-3.5273-7.8711-7.875v-23.613z"/>
  <path d="m407.87 258.3c0 4.3477-3.5234 7.875-7.8711 7.875s-7.875-3.5273-7.875-7.875c0-4.3477 3.5273-7.8711 7.875-7.8711s7.8711 3.5234 7.8711 7.8711"/>
  <path d="m525.95 462.98c-16.699 0-32.719 6.6328-44.527 18.445-11.812 11.809-18.445 27.828-18.445 44.527 0 16.703 6.6328 32.723 18.445 44.531 11.809 11.812 27.828 18.445 44.527 18.445 16.703 0 32.723-6.6328 44.531-18.445 11.812-11.809 18.445-27.828 18.445-44.531-0.015625-16.695-6.6602-32.703-18.465-44.508-11.805-11.809-27.812-18.449-44.512-18.465zm-7.8711 55.105h15.742l0.003907-0.003906c8.4375 0 16.23 4.5 20.449 11.809 4.2188 7.3086 4.2188 16.309 0 23.617-4.2188 7.3047-12.012 11.809-20.449 11.809v7.8711c0 4.3477-3.5273 7.8711-7.875 7.8711-4.3477 0-7.8711-3.5234-7.8711-7.8711v-7.8711c-6.2617 0-12.27-2.4883-16.699-6.918-4.4297-4.4297-6.918-10.438-6.918-16.699 0-4.3477 3.5273-7.8711 7.875-7.8711 4.3477 0 7.8711 3.5234 7.8711 7.8711 0 2.0859 0.82812 4.0898 2.3047 5.5664 1.4766 1.4766 3.4805 2.3047 5.5664 2.3047h15.746c4.3477 0 7.8711-3.5234 7.8711-7.8711 0-4.3477-3.5234-7.8711-7.8711-7.8711h-15.746c-8.4375 0-16.234-4.5039-20.453-11.809-4.2188-7.3086-4.2188-16.309 0-23.617 4.2188-7.3047 12.016-11.809 20.453-11.809v-7.8711c0-4.3477 3.5234-7.8711 7.8711-7.8711 4.3477 0 7.875 3.5234 7.875 7.8711v7.8711c6.2617 0 12.27 2.4883 16.699 6.918 4.4258 4.4297 6.9141 10.438 6.9141 16.699 0 4.3477-3.5234 7.8711-7.8711 7.8711s-7.8711-3.5234-7.8711-7.8711c0-2.0898-0.82812-4.0898-2.3047-5.5664s-3.4805-2.3047-5.5664-2.3047h-15.746c-4.3477 0-7.8711 3.5234-7.8711 7.8711 0 4.3477 3.5234 7.8711 7.8711 7.8711z"/>
  <path d="m525.95 431.49c-25.051 0-49.078 9.9492-66.793 27.668-17.719 17.715-27.668 41.742-27.668 66.793 0 25.055 9.9492 49.082 27.668 66.797 17.715 17.715 41.742 27.668 66.793 27.668 25.055 0 49.082-9.9531 66.797-27.668s27.668-41.742 27.668-66.797c-0.019531-25.047-9.9805-49.062-27.691-66.773-17.711-17.711-41.727-27.668-66.773-27.688zm0 173.18c-20.875 0-40.898-8.293-55.66-23.059-14.766-14.762-23.059-34.785-23.059-55.664 0-20.875 8.293-40.898 23.059-55.66 14.762-14.766 34.785-23.059 55.66-23.059 20.879 0 40.902 8.293 55.664 23.059 14.766 14.762 23.059 34.785 23.059 55.66-0.023437 20.871-8.3242 40.883-23.082 55.641-14.758 14.758-34.77 23.059-55.641 23.082z"/>
  <path d="m195.32 337.02h409.34v15.742h-409.34z"/>
  <path d="m417 541.7h-205.93v15.742h209.32c-1.4883-5.1641-2.6211-10.422-3.3828-15.742z"/>
  <path d="m226.81 368.51h62.977v15.742h-62.977z"/>
  <path d="m448.96 604.67h-269.38v15.742h289.93c-7.4492-4.4102-14.348-9.6953-20.547-15.742z"/>
  <path d="m426.53 573.18h-231.2v15.742h240.34c-3.4844-4.9805-6.5391-10.246-9.1328-15.742z"/>
  <path d="m368.51 368.51h62.977v15.742h-62.977z"/>
  <path d="m510.21 417v-17.004h-7.8711c-4.3477 0-7.875-3.5273-7.875-7.875v-23.613h-47.23v23.617-0.003906c0 2.0898-0.82812 4.0898-2.3047 5.5664-1.4766 1.4766-3.4805 2.3086-5.5664 2.3086h-7.8711v69.512-0.003907c16.992-28.461 45.91-47.75 78.719-52.504z"/>
  <path d="m384.25 400h31.488v94.465h-31.488z"/>
  <path d="m226.81 510.21h62.977v15.742h-62.977z"/>
  <path d="m242.56 400h31.488v94.465h-31.488z"/>
  <path d="m368.51 525.95h47.23c0.0625-5.2695 0.48047-10.527 1.2617-15.742h-48.492z"/>
 </g>
</svg>