<?xml version="1.0" encoding="UTF-8"?>
<!-- The Best Svg Icon site in the world: iconSvg.co, Visit us! https://iconsvg.co -->
<svg fill="#000000" width="800px" height="800px" version="1.1" viewBox="144 144 512 512" xmlns="http://www.w3.org/2000/svg">
 <g>
  <path d="m391.79 423.66c36.168-0.89844 60.75-1.1953 60.902-1.1953 6.4648 0 12.609-2.4805 16.863-6.7969 3.4141-3.4648 5.3516-7.8945 5.8594-12.867 3.4062 0.57422 6.8867 0.91016 10.449 0.91016 35.441 0 64.277-28.832 64.277-64.277 0-19.578-8.8281-37.117-22.676-48.91 1.6484-5.3047 1.0898-10.883-1.2539-15.699 2.6758-2.6016 4.6992-5.8125 5.7383-9.5 1.5625-5.5234 0.87109-11.316-1.9336-16.324-2.8047-5.0039-7.3906-8.6133-12.777-10.133-0.45312-0.13672-45.855-13.805-70.84-19.949-9.043-2.2266-46.371-1.0078-98.117 0.95313-9.5664 0.36328-18.602 0.70703-26.383 0.96094-46.066 1.5312-104.45 46.949-129.41 77.164-2.6562 3.2188-2.207 7.9805 1.0117 10.641 1.4062 1.1641 3.1133 1.7266 4.8047 1.7266 2.1797 0 4.3359-0.9375 5.8281-2.7461 24.121-29.207 78.641-70.367 118.26-71.688 7.8047-0.25781 16.863-0.60547 26.461-0.96875 34.344-1.3008 86.246-3.2695 93.93-1.3789 24.605 6.0547 69.637 19.609 70.223 19.785 1.6328 0.45703 2.9883 1.5273 3.8203 3.0117 0.83203 1.4805 1.0312 3.1953 0.57031 4.832-0.35156 1.2695-1.1641 2.293-2.1719 3.1094-7.0938-2.9766-54.828-22.91-74.625-27.781-8.1367-2-16.203-1.7227-32.289-1.1641-8.1406 0.28125-18.277 0.63672-31.668 0.81641-4.1719 0.054688-7.5078 3.4883-7.4531 7.6562 0.054687 4.1758 3.5664 7.5859 7.6641 7.457 13.547-0.1875 23.773-0.53906 31.992-0.82812 14.691-0.50391 22.062-0.76172 28.152 0.73438 19.801 4.8711 72.656 27.156 72.824 27.211 1.1523 0.55859 1.9609 1.4805 2.5742 2.5078-8.0977-3.6875-17.062-5.8008-26.531-5.8008-5.0586 0-9.9609 0.64062-14.672 1.7695-7.3398-2.5039-15.781-5.1992-24.309-7.5273-24.363-6.6484-69.309-7.1289-80.262-6.3789-4.1602 0.28906-7.3047 3.8945-7.0195 8.0625 0.28906 4.168 3.9688 7.2969 8.0625 7.0234 11.008-0.75 53.992 0.082031 75.238 5.8789 21.156 5.7734 42.484 14.168 45.176 15.234 3.0117 1.5977 4.2422 5.3164 2.7461 8.3984-1.5352 3.1484-5.3398 4.4805-8.5 2.9375-0.45703-0.22266-0.9375-0.39844-1.4219-0.52344-1.1094-0.28125-27.32-6.9766-54.648-9.8945-15.148-1.6172-60.961 9.0547-64.527 38.379-2.0859 17.184 13.387 31.746 45.996 43.289 22.086 7.8203 44.254 11.574 45.109 11.715 5.3047 0.94141 7.6562 4.8203 7.6797 6.5898 0.035157 2.1055-0.53516 3.7266-1.7383 4.9492-1.4102 1.4297-3.6836 2.2891-6.1836 2.2891-0.24609 0-24.91 0.30078-61.188 1.1992-58.18 1.4727-117.63-20.555-118.22-20.777-2.6016-0.97656-5.5273-0.4375-7.6211 1.3867l-62.812 54.953c-3.1445 2.7461-3.4648 7.5234-0.71484 10.664 1.4922 1.707 3.5859 2.5859 5.6914 2.5859 1.7617 0 3.5352-0.61328 4.9688-1.8672l59.496-52.012c15.113 5.1914 67.051 21.473 119.6 20.207zm-15.051-83.309c2.125-17.504 37.172-26.301 47.918-25.176 0.54297 0.058594 1.0938 0.125 1.6367 0.19141-3.0312 7.4414-4.7109 15.562-4.7109 24.078 0 12.453 3.6016 24.059 9.7695 33.902-28.062-7.5625-56.191-20.043-54.613-32.996zm80.047 38.641c-12.156-8.957-20.086-23.328-20.086-39.555 0-7.8906 1.9062-15.32 5.2344-21.926 9.0977 1.4648 17.367 3.125 23.625 4.4805-0.55859 3.1172-0.44922 7.0078 1.3906 11.836 3.5117 9.2109 19.336 12.086 19.926 12.188l0.3125 0.074219c3.8398 0.93359 7.2852 2.1914 7.2969 7.332 0 0.74219-0.16016 2.6445-1.7266 4.207-1.4961 1.5-3.8594 2.2617-7.0195 2.2617-2.4648 0-8.1914-0.73438-8.1914-7.5234 0.003906-0.19531-0.003907-1.9766-1.3945-3.3867-1.0391-1.0547-2.5195-1.5938-4.4023-1.5938-4.5508 0-6.0625 3.1602-6.2305 4.9531 0 4.5156 0.57422 8.2734 3.3867 11.934 2.9531 3.9102 6.793 6.4023 11.426 7.4219v2.875c0 3.0547 2.4844 5.5352 5.543 5.5352 3.0469 0 5.5352-2.4844 5.5352-5.5352v-2.9219c11.059-2.4883 15.109-12.922 15.109-19.531 0-5.5625-2.3164-12.988-13.359-16.785l-9.6875-3.1992c-2.457-0.79688-6.5195-2.8008-6.0391-7.2734 0-0.015625 0.003906-0.023438 0.011718-0.039063 4.9961 1.9258 10.352 1.9141 15.105 0.16016 0.015625 0.097657 0.023437 0.16016 0.039063 0.26172 0.13281 1.6289 1.5156 4.6992 5.7852 4.6992 4.0859 0 5.9102-2.7305 6.2305-5.0742 0.30078-2.1914-0.44141-5.3555-1.7344-8.1016 0.55078-0.82031 1.1172-1.6328 1.5625-2.543 3.3242-6.8555 2.6211-14.609-1.1172-20.668 5.4961 2.0977 10.535 5.1172 14.887 8.9336 10.293 9.0195 16.836 22.219 16.836 36.945 0 27.109-22.051 49.16-49.16 49.16-5.9414 0-11.613-1.1133-16.887-3.0469-3.2461-3.1211-7.4492-5.4453-12.207-6.5547z"/>
  <path d="m407.96 425.27c-32.004 0-58.035 26.031-58.035 58.027 0 31.996 26.031 58.027 58.035 58.027 31.996 0 58.027-26.031 58.027-58.027 0.003906-31.996-26.027-58.027-58.027-58.027zm0 100.95c-23.664 0-42.918-19.25-42.918-42.914 0-23.664 19.25-42.914 42.918-42.914 23.66 0 42.914 19.25 42.914 42.914 0.003906 23.664-19.254 42.914-42.914 42.914z"/>
  <path d="m414.48 479.52-8.625-2.8477c-2.1523-0.69531-5.6914-2.4453-5.2812-6.3281 0.22266-1.9492 0.74609-2.9961 1.8672-3.7383 1.1172-0.71484 2.543-1.0742 4.2422-1.0742 3.2539 0 4.9492 0.55469 6.0312 1.9531 0.65625 0.89844 0.85547 1.5 1.0664 3.1875 0.11719 1.4922 1.3789 4.3125 5.2852 4.3125 3.6992 0 5.3711-2.4922 5.6875-4.6367 0.37109-2.7422-1.0234-7.1953-3.1016-9.9219-2.082-2.7344-4.9844-4.5781-8.6367-5.4922l0.003907-2.8906c0-2.7969-2.2734-5.0742-5.0625-5.0742-2.7969 0-5.0664 2.2773-5.0664 5.0742v2.6289c-4.2461 0.76172-7.543 2.6836-9.8125 5.7227-1.6133 2.1719-5.8984 7.9297-2.0742 17.965 3.1523 8.2656 17.312 10.844 18.102 11 3.3594 0.81641 6.3828 1.9141 6.3945 6.3867 0 0.64453-0.14062 2.293-1.4961 3.6484-1.3047 1.3086-3.375 1.9766-6.1445 1.9766-2.1523 0-7.1523-0.64062-7.1523-6.5508 0.003906-0.17969-0.003907-1.8125-1.2812-3.1133-0.94531-0.96875-2.3008-1.4609-4.0195-1.4609-4.1445 0-5.5312 2.8984-5.6875 4.5508 0 4.0469 0.51953 7.4102 3.043 10.707 2.625 3.4766 6.0312 5.7031 10.141 6.6289v2.4492c0 2.7969 2.2734 5.0664 5.0664 5.0664 2.793 0 5.0625-2.2734 5.0625-5.0664v-2.4883c9.8398-2.2773 13.445-11.586 13.445-17.492-0.011719-5.0039-2.0859-11.676-11.996-15.082z"/>
  <path d="m525.54 482.46c-32.004 0-58.035 26.031-58.035 58.027 0 31.996 26.031 58.027 58.035 58.027 31.996 0 58.027-26.031 58.027-58.027 0-31.996-26.031-58.027-58.027-58.027zm0 100.95c-23.664 0-42.918-19.25-42.918-42.914 0-23.664 19.25-42.914 42.918-42.914 23.66 0 42.914 19.25 42.914 42.914 0 23.664-19.254 42.914-42.914 42.914z"/>
  <path d="m532.07 536.71-8.6211-2.8477c-2.1562-0.69531-5.6992-2.4375-5.2852-6.3281 0.21484-1.9492 0.74609-2.9961 1.8672-3.7383 1.1172-0.71484 2.543-1.0742 4.2422-1.0742 3.2539 0 4.9492 0.55469 6.0312 1.9531 0.62109 0.84766 0.85156 1.4062 1.0664 3.1953 0.11719 1.4922 1.3789 4.3125 5.2852 4.3125 3.7266 0 5.3906-2.5 5.6875-4.6367 0.37109-2.7422-1.0234-7.1953-3.1016-9.9219-2.082-2.7344-4.9844-4.5781-8.6367-5.4922v-2.9023c0-2.7969-2.2734-5.0742-5.0625-5.0742-2.7969 0-5.0664 2.2773-5.0664 5.0742v2.6289c-4.2461 0.76172-7.543 2.6836-9.8125 5.7227-1.6133 2.1719-5.8984 7.9297-2.0742 17.965 3.1523 8.2656 17.316 10.844 18.105 11 3.3594 0.81641 6.3789 1.9141 6.3867 6.3867 0 0.64453-0.14062 2.293-1.4961 3.6484-1.3047 1.3086-3.375 1.9766-6.1445 1.9766-2.1523 0-7.1523-0.64063-7.1523-6.5508 0.003906-0.17969-0.003906-1.8125-1.2812-3.1133-0.94531-0.96875-2.3008-1.4609-4.0195-1.4609-4.1445 0-5.5312 2.8984-5.6875 4.5508 0 4.0469 0.51953 7.4102 3.043 10.707 2.625 3.4766 6.0312 5.7031 10.141 6.6289v2.4492c0 2.7969 2.2734 5.0664 5.0664 5.0664s5.0625-2.2734 5.0625-5.0664v-2.4883c9.8398-2.2773 13.445-11.586 13.445-17.492 0-5-2.0781-11.668-11.988-15.078z"/>
 </g>
</svg>