<?xml version="1.0" encoding="UTF-8"?>
<!-- The Best Svg Icon site in the world: iconSvg.co, Visit us! https://iconsvg.co -->
<svg fill="#000000" width="800px" height="800px" version="1.1" viewBox="144 144 512 512" xmlns="http://www.w3.org/2000/svg">
 <g>
  <path d="m431.49 431.49h62.977-0.003906c3.293 0.003907 6.2344 2.0391 7.4023 5.1133l1.0234 2.7539 63.211 0.003906c1.5547-7.5625 5.2891-14.5 10.746-19.957 5.457-5.457 12.395-9.1914 19.957-10.746v-111.78c-7.5625-1.5508-14.5-5.2891-19.957-10.746-5.457-5.457-9.1914-12.395-10.746-19.953h-332.2c-1.5508 7.5586-5.2891 14.496-10.746 19.953-5.457 5.457-12.395 9.1953-19.953 10.746v111.78c7.5586 1.5547 14.496 5.2891 19.953 10.746 5.457 5.457 9.1953 12.395 10.746 19.957h189.16l1.0234-2.7539v-0.003907c1.168-3.0742 4.1133-5.1094 7.4023-5.1133zm86.59-86.594h31.488c4.3477 0 7.8711 3.5234 7.8711 7.8711s-3.5234 7.8711-7.8711 7.8711h-31.488c-4.3477 0-7.8711-3.5234-7.8711-7.8711s3.5234-7.8711 7.8711-7.8711zm-236.16 15.742h-31.488c-4.3477 0-7.8711-3.5234-7.8711-7.8711s3.5234-7.8711 7.8711-7.8711h31.488c4.3477 0 7.8711 3.5234 7.8711 7.8711s-3.5234 7.8711-7.8711 7.8711zm118.08 70.848v0.003906c-20.879 0-40.902-8.2969-55.664-23.059-14.766-14.762-23.059-34.785-23.059-55.664s8.293-40.898 23.059-55.664c14.762-14.762 34.785-23.055 55.664-23.055 20.875 0 40.898 8.293 55.664 23.055 14.762 14.766 23.055 34.785 23.055 55.664-0.023438 20.871-8.3242 40.883-23.082 55.641-14.758 14.758-34.766 23.059-55.637 23.082z"/>
  <path d="m475.25 510.21h-24.559l12.281 32.668z"/>
  <path d="m544.14 510.21h-52.113l-17.715 47.23h87.539z"/>
  <path d="m433.93 510.21h-52.113l-17.711 47.23h87.539z"/>
  <path d="m420.15 573.18h-24.562l12.281 32.668z"/>
  <path d="m400 289.79c-16.703 0-32.723 6.6367-44.531 18.445-11.812 11.812-18.445 27.828-18.445 44.531s6.6328 32.723 18.445 44.531c11.809 11.812 27.828 18.445 44.531 18.445 16.699 0 32.719-6.6328 44.531-18.445 11.809-11.809 18.445-27.828 18.445-44.531-0.019531-16.695-6.6602-32.703-18.469-44.508-11.805-11.809-27.812-18.449-44.508-18.469zm-7.8711 55.105h15.742c8.4375 0 16.234 4.5 20.453 11.809 4.2188 7.3047 4.2188 16.309 0 23.617-4.2188 7.3047-12.016 11.805-20.453 11.805v7.875c0 4.3477-3.5234 7.8711-7.8711 7.8711s-7.875-3.5234-7.875-7.8711v-7.875c-6.2617 0-12.27-2.4883-16.699-6.9141-4.4258-4.4297-6.9141-10.438-6.9141-16.699 0-4.3477 3.5234-7.875 7.8711-7.875 4.3477 0 7.8711 3.5273 7.8711 7.875 0 2.0859 0.82812 4.0898 2.3047 5.5664 1.4766 1.4766 3.4805 2.3047 5.5664 2.3047h15.746c4.3477 0 7.8711-3.5234 7.8711-7.8711 0-4.3477-3.5234-7.875-7.8711-7.875h-15.746c-8.4375 0-16.23-4.5-20.449-11.805-4.2188-7.3086-4.2188-16.312 0-23.617 4.2188-7.3086 12.012-11.809 20.449-11.809v-7.8711c0-4.3477 3.5273-7.8711 7.875-7.8711s7.8711 3.5234 7.8711 7.8711v7.8711c6.2617 0 12.27 2.4883 16.699 6.918 4.4297 4.4297 6.918 10.434 6.918 16.699 0 4.3477-3.5273 7.8711-7.875 7.8711-4.3477 0-7.8711-3.5234-7.8711-7.8711 0-2.0898-0.82813-4.0898-2.3047-5.5664-1.4766-1.4766-3.4805-2.3086-5.5664-2.3086h-15.746c-4.3477 0-7.8711 3.5273-7.8711 7.875 0 4.3477 3.5234 7.8711 7.8711 7.8711z"/>
  <path d="m436.92 573.18-17.711 47.23h87.535l-17.711-47.23z"/>
  <path d="m506.74 494.46-17.711-47.23h-52.113l-17.711 47.23z"/>
  <path d="m530.36 573.18h-24.562l12.281 32.668z"/>
  <path d="m599.24 573.18h-52.113l-17.711 47.23h87.539z"/>
  <path d="m179.58 462.98h234.66l2.9141-7.8711-190.35-0.003907c-4.3477 0-7.8711-3.5234-7.8711-7.8711-0.019531-6.2578-2.5117-12.254-6.9375-16.68-4.4258-4.4219-10.422-6.918-16.68-6.9375-4.3477 0-7.8711-3.5234-7.8711-7.8711v-125.95c0-4.3477 3.5234-7.8711 7.8711-7.8711 6.2578-0.019531 12.254-2.5117 16.68-6.9375 4.4258-4.4258 6.918-10.422 6.9375-16.68 0-4.3477 3.5234-7.8711 7.8711-7.8711h346.37c2.0859 0 4.0898 0.82812 5.5664 2.3047s2.3047 3.4805 2.3047 5.5664c0.019531 6.2578 2.5117 12.254 6.9375 16.68 4.4258 4.4258 10.422 6.918 16.68 6.9375 2.0859 0 4.0898 0.82812 5.5664 2.3047 1.4766 1.4766 2.3047 3.4805 2.3047 5.5664v125.95c0 2.0898-0.82812 4.0898-2.3047 5.5664-1.4766 1.4766-3.4805 2.3047-5.5664 2.3047-6.2578 0.019531-12.254 2.5156-16.68 6.9375-4.4258 4.4258-6.918 10.422-6.9375 16.68 0 2.0898-0.82813 4.0898-2.3047 5.5664s-3.4805 2.3047-5.5664 2.3047h-64.395l2.9141 7.8711 108.71 0.003906v-220.42h-440.83z"/>
  <path d="m179.58 179.58h440.83v15.742h-440.83z"/>
  <path d="m378.82 573.18h-52.113l-17.715 47.23h87.539z"/>
  <path d="m179.58 211.07h440.83v15.742h-440.83z"/>
 </g>
</svg>