<?xml version="1.0" encoding="UTF-8"?>
<!-- The Best Svg Icon site in the world: iconSvg.co, Visit us! https://iconsvg.co -->
<svg fill="#000000" width="800px" height="800px" version="1.1" viewBox="144 144 512 512" xmlns="http://www.w3.org/2000/svg">
 <g>
  <path d="m585.95 458.37c-0.34766 0.003906-0.69922-0.035156-1.0391-0.11719-2.4648-0.57422-3.9961-3.0352-3.4258-5.4961 8.1797-35.277 6.5703-72.113-4.6562-106.54-11.227-34.426-31.645-65.129-59.051-88.801-27.402-23.668-60.75-39.402-96.445-45.5-2.4961-0.42187-4.1758-2.7852-3.7539-5.2812 0.42188-2.4961 2.7852-4.1797 5.2812-3.7578 37.34 6.3789 72.23 22.836 100.9 47.598 28.672 24.762 50.035 56.883 61.781 92.898 11.746 36.016 13.43 74.559 4.8672 111.46-0.48438 2.0742-2.332 3.5391-4.4609 3.5391z"/>
  <path d="m189.99 458.37c-2.1289 0-3.9727-1.4688-4.457-3.5391-8.5586-36.902-6.875-75.445 4.8711-111.46s33.105-68.137 61.777-92.898c28.672-24.762 63.562-41.219 100.91-47.598 2.4922-0.42188 4.8594 1.2617 5.2812 3.7578 0.41797 2.4961-1.2617 4.8594-3.7578 5.2812-35.691 6.0977-69.043 21.832-96.449 45.5-27.402 23.668-47.82 54.375-59.051 88.801-11.227 34.426-12.836 71.266-4.6562 106.54 0.57031 2.4609-0.96094 4.9219-3.4258 5.4961-0.33984 0.082032-0.6875 0.12109-1.0391 0.11719z"/>
  <path d="m387.95 615.58c-35.012 0.078125-69.469-8.7266-100.15-25.594-30.68-16.867-56.578-41.246-75.27-70.848-0.70312-1.0234-0.95703-2.293-0.71094-3.5078 0.25-1.2188 0.98438-2.2812 2.0312-2.9492 1.0508-0.66406 2.3242-0.875 3.5312-0.58594 1.207 0.29297 2.2461 1.0625 2.875 2.1328 24.004 37.82 60.086 66.414 102.39 81.145 42.305 14.73 88.344 14.73 130.64 0 42.305-14.73 78.387-43.324 102.39-81.145 1.3789-2.082 4.168-2.6758 6.2734-1.3359 2.1094 1.3359 2.7578 4.1133 1.457 6.2461-18.699 29.605-44.605 53.984-75.293 70.852-30.688 16.867-65.156 25.672-100.17 25.59z"/>
  <path d="m335.96 241.07c-1.6719-0.003906-3.207-0.91406-4.0117-2.3789-0.80078-1.4609-0.74609-3.2461 0.14844-4.6562l15.984-25.191-25.191-15.98h0.003907c-2.1367-1.3516-2.7734-4.1836-1.4219-6.3203 1.3555-2.1367 4.1836-2.7734 6.3203-1.418l29.09 18.438c1.0273 0.65234 1.7539 1.6836 2.0195 2.8711 0.26562 1.1836 0.046875 2.4297-0.60547 3.4531l-18.438 29.062c-0.84766 1.332-2.3203 2.1328-3.8984 2.1211z"/>
  <path d="m585.95 458.55c-0.35547 0-0.71094-0.042969-1.0586-0.12891-1.1797-0.28125-2.2031-1.0195-2.8438-2.0508l-18.055-29.312c-0.70703-1.0352-0.96484-2.3125-0.70703-3.5391 0.26172-1.2266 1.0117-2.2969 2.0781-2.9531 1.0664-0.66016 2.3555-0.85156 3.5703-0.53125 1.2109 0.31641 2.2422 1.1211 2.8438 2.2188l15.648 25.406 25.41-15.676 0.003906-0.003907c1.0352-0.70312 2.3086-0.94922 3.5312-0.69141 1.2188 0.26172 2.2812 1.0117 2.9375 2.0742s0.85156 2.3477 0.53906 3.5547c-0.31641 1.2109-1.1094 2.2383-2.1992 2.8477l-29.312 18.082c-0.71484 0.45312-1.5391 0.69531-2.3867 0.70312z"/>
  <path d="m208.43 554.75c-0.35938 0-0.71484-0.039063-1.0625-0.125-2.4531-0.58203-3.9727-3.0391-3.3984-5.4961l7.9492-33.508c0.28125-1.1836 1.0195-2.2031 2.0547-2.8438 1.0352-0.63672 2.2812-0.83594 3.4648-0.55469l33.484 7.9727v0.003906c1.207 0.25391 2.2617 0.98438 2.9219 2.0312 0.66016 1.043 0.875 2.3086 0.58594 3.5078-0.28516 1.2031-1.043 2.2383-2.1055 2.8711-1.0586 0.63281-2.3281 0.8125-3.5234 0.49609l-29.027-6.9102-6.8711 29.055c-0.5 2.0625-2.3516 3.5117-4.4727 3.5z"/>
  <path d="m388.09 266.93c-36.496 0.011718-71.492 14.52-97.297 40.332-25.801 25.812-40.293 60.816-40.289 97.312 0.003906 36.5 14.504 71.5 40.312 97.305 25.809 25.809 60.809 40.309 97.305 40.312s71.5-14.488 97.312-40.289c25.812-25.801 40.32-60.801 40.336-97.297-0.039062-36.504-14.555-71.5-40.367-97.312s-60.809-40.328-97.312-40.363zm0 238.35c-26.703-0.015625-52.309-10.641-71.18-29.535-18.871-18.895-29.469-44.508-29.453-71.215 0.011719-26.703 10.633-52.309 29.523-71.184s44.508-29.473 71.211-29.461c26.703 0.007812 52.312 10.625 71.188 29.512 18.879 18.891 29.48 44.504 29.473 71.207-0.027343 26.703-10.652 52.301-29.539 71.176-18.883 18.875-44.488 29.484-71.191 29.5z"/>
  <path d="m365 381.71c-0.17188 3.8203 1.625 7.4688 4.7656 9.6562 4.2773 2.7617 9.0156 4.7344 13.988 5.832v-31.254c-4.9336 0.46875-9.6484 2.2656-13.641 5.2031-3.3047 2.4922-5.2109 6.4219-5.1133 10.562z"/>
  <path d="m407.41 418.43c-4.7227-2.5703-9.7656-4.5039-14.996-5.75v30.539c13.363-0.94531 20.043-6.3438 20.035-16.195l-0.003906 0.003906c0.066406-3.5859-1.8789-6.9023-5.0352-8.5977z"/>
  <path d="m388.12 313.05c-24.273 0.007813-47.551 9.6562-64.711 26.824-17.16 17.172-26.797 40.453-26.793 64.727 0.003906 24.273 9.6484 47.551 26.812 64.715 17.168 17.164 40.445 26.809 64.719 26.809 24.277 0 47.555-9.6406 64.723-26.801 17.168-17.164 26.816-40.441 26.82-64.715-0.019531-24.277-9.6758-47.555-26.844-64.723-17.168-17.168-40.445-26.82-64.727-26.836zm33.059 128.47v-0.003906c-2.8789 4.2305-6.8594 7.5938-11.512 9.7305-5.418 2.5312-11.285 3.9531-17.258 4.1914v10.078-0.003906c0.039063 1.1406-0.39844 2.2461-1.207 3.0547-1.7734 1.5781-4.4375 1.6094-6.25 0.074219-0.82812-0.82422-1.2656-1.9609-1.2031-3.1289v-10.094c-9.875-0.57812-19.582-2.8359-28.695-6.6797-1.1562-0.48438-2.1445-1.2969-2.8398-2.3398-1.6836-2.3477-1.4766-5.5586 0.49609-7.6719 1.0664-1.1758 2.5977-1.8242 4.1836-1.7773 0.93359-0.003907 1.8555 0.19141 2.7031 0.57422 7.6211 3.3906 15.816 5.3203 24.152 5.6797v-32.672c-5.5664-1.3945-11.004-3.2422-16.27-5.5234-4.2891-1.8984-8.0586-4.8008-10.992-8.457-3.043-3.9609-4.6016-8.8594-4.4062-13.848-0.035156-4.7891 1.2109-9.4961 3.6172-13.637 2.6133-4.3594 6.3398-7.9375 10.801-10.371 5.3164-2.8984 11.203-4.5898 17.25-4.957v-9.9609c-0.027344-1.1602 0.40625-2.2812 1.2031-3.1211 0.79297-0.84766 1.9062-1.3125 3.0625-1.2812 1.1719-0.007812 2.2969 0.45312 3.1211 1.2812 0.82812 0.82812 1.2852 1.9531 1.2734 3.1211v9.8008c8.4414 0.21875 16.793 1.8047 24.73 4.6914 2.4922 0.72656 4.1484 3.0898 3.9766 5.6797 0 1.5156-0.55469 2.9844-1.5586 4.1211-1.0195 1.2109-2.5391 1.8867-4.1211 1.832-0.78125-0.050782-1.5508-0.24219-2.2617-0.56641-6.6836-2.3164-13.684-3.6094-20.754-3.8359v33.812c5.793 1.2891 11.469 3.0508 16.969 5.2656 4.4141 1.832 8.2969 4.7383 11.297 8.457 3.1953 4.2656 4.8008 9.5156 4.543 14.844 0.050781 4.8477-1.3633 9.6016-4.0508 13.637z"/>
 </g>
</svg>