<?xml version="1.0" encoding="UTF-8"?>
<!-- The Best Svg Icon site in the world: iconSvg.co, Visit us! https://iconsvg.co -->
<svg fill="#000000" width="800px" height="800px" version="1.1" viewBox="144 144 512 512" xmlns="http://www.w3.org/2000/svg">
 <g>
  <path d="m502.09 161.35h-204.18c-11.602 0-22.73 4.6094-30.938 12.816-8.2031 8.2031-12.812 19.332-12.812 30.938v389.79c0 11.602 4.6094 22.73 12.812 30.938 8.207 8.2031 19.336 12.812 30.938 12.812h204.18c11.605 0 22.734-4.6094 30.938-12.812 8.207-8.207 12.816-19.336 12.816-30.938v-389.79c0-11.605-4.6094-22.734-12.816-30.938-8.2031-8.207-19.332-12.816-30.938-12.816zm-204.18 26.516h204.18c4.5703 0 8.957 1.8164 12.188 5.0508 3.2344 3.2305 5.0469 7.6133 5.0469 12.188v353.99h-238.64v-353.99c0-4.5742 1.8164-8.957 5.0469-12.188 3.2344-3.2344 7.6172-5.0508 12.188-5.0508zm204.18 424.26h-204.18c-4.5703 0-8.9531-1.8164-12.188-5.0469-3.2305-3.2344-5.0469-7.6172-5.0469-12.188v-9.2812h238.64v9.2812c0 4.5703-1.8125 8.9531-5.0469 12.188-3.2305 3.2305-7.6172 5.0469-12.188 5.0469z"/>
  <path d="m373.48 227.64h53.035c7.3203 0 13.258-5.9375 13.258-13.262 0-7.3203-5.9375-13.258-13.258-13.258h-53.035c-7.3203 0-13.258 5.9375-13.258 13.258 0 7.3242 5.9375 13.262 13.258 13.262z"/>
  <path d="m214.38 227.64c-7.3203 0-13.258 5.9336-13.258 13.258v286.24l-17.102-17.234c-5.1992-5.1992-13.629-5.1992-18.828 0-5.1992 5.1953-5.1992 13.625 0 18.824l39.773 39.773h0.003906c2.5 2.4844 5.8867 3.8672 9.4102 3.8477 1.7422 0.042969 3.4648-0.32031 5.0391-1.0625 4.9531-2.0312 8.1953-6.8438 8.2227-12.195v-318.2c0-3.5195-1.3984-6.8906-3.8867-9.375-2.4844-2.4883-5.8555-3.8828-9.375-3.8828z"/>
  <path d="m634.8 271.26-39.773-39.773c-3.8125-3.7617-9.5156-4.8594-14.453-2.7852-4.9492 2.0352-8.1914 6.8438-8.2188 12.199v318.2c0 7.3203 5.9336 13.258 13.258 13.258 7.3203 0 13.258-5.9375 13.258-13.258v-286.25l17.102 17.234v0.003906c5.1992 5.1992 13.629 5.1992 18.828 0 5.1992-5.1992 5.1992-13.629 0-18.828z"/>
  <path d="m409.94 446.4h-49.719c-7.3203 0-13.258 5.9375-13.258 13.258 0 7.3242 5.9375 13.258 13.258 13.258h26.516l0.003907 6.6289c0 7.3242 5.9336 13.258 13.258 13.258 7.3203 0 13.258-5.9336 13.258-13.258v-7.0273c14.891-1.1719 28.105-9.9961 34.895-23.305 6.7852-13.309 6.1719-29.188-1.6211-41.93-7.793-12.746-21.648-20.523-36.59-20.543h-19.887c-5.9219 0-11.391-3.1602-14.352-8.2891-2.9609-5.125-2.9609-11.445 0-16.57 2.9609-5.1289 8.4297-8.2891 14.352-8.2891h49.719c7.3203 0 13.258-5.9336 13.258-13.258 0-7.3203-5.9375-13.258-13.258-13.258h-26.516v-6.6289c0-7.3203-5.9375-13.258-13.258-13.258-7.3242 0-13.258 5.9375-13.258 13.258v7.0273c-14.895 1.1719-28.109 10-34.895 23.305-6.7891 13.309-6.1758 29.188 1.6172 41.93 7.7969 12.746 21.652 20.527 36.59 20.547h19.887c5.9219 0 11.395 3.1562 14.352 8.2852 2.9609 5.1289 2.9609 11.445 0 16.574-2.957 5.125-8.4297 8.2852-14.352 8.2852z"/>
 </g>
</svg>