<?xml version="1.0" encoding="UTF-8"?>
<!-- The Best Svg Icon site in the world: iconSvg.co, Visit us! https://iconsvg.co -->
<svg fill="#000000" width="800px" height="800px" version="1.1" viewBox="144 144 512 512" xmlns="http://www.w3.org/2000/svg">
 <g>
  <path d="m510.21 163.84h-15.746v118.08c0 2.0898 0.83203 4.0898 2.3086 5.5664 1.4766 1.4766 3.4766 2.3047 5.5664 2.3047h133.82v-15.742h-125.95z"/>
  <path d="m289.79 636.16h15.742l0.003906-118.08c0-2.0859-0.83203-4.0898-2.3047-5.5664-1.4766-1.4766-3.4805-2.3047-5.5664-2.3047h-133.83v15.742h125.95z"/>
  <path d="m494.46 313.41v173.18c0 2.0898 0.83203 4.0898 2.3086 5.5664 1.4766 1.4766 3.4766 2.3047 5.5664 2.3047h133.82v-15.742h-125.95v-157.44h125.95v-15.742h-133.82c-4.3477 0-7.875 3.5234-7.875 7.8711z"/>
  <path d="m305.54 486.59v-173.18c0-2.0859-0.83203-4.0898-2.3047-5.5664-1.4766-1.4766-3.4805-2.3047-5.5664-2.3047h-133.83v15.742h125.95v157.44h-125.95v15.742h133.83c2.0859 0 4.0898-0.82813 5.5664-2.3047 1.4727-1.4766 2.3047-3.4766 2.3047-5.5664z"/>
  <path d="m321.28 486.59c0 2.0898 0.83203 4.0898 2.3047 5.5664 1.4766 1.4766 3.4805 2.3047 5.5664 2.3047h141.7c2.0859 0 4.0898-0.82813 5.5664-2.3047 1.4766-1.4766 2.3047-3.4766 2.3047-5.5664v-173.18c0-2.0859-0.82812-4.0898-2.3047-5.5664-1.4766-1.4766-3.4805-2.3047-5.5664-2.3047h-141.7c-4.3477 0-7.8711 3.5234-7.8711 7.8711zm15.742-165.31h125.96v157.44h-125.95z"/>
  <path d="m321.28 636.16h15.742l0.003907-110.21h125.95v110.21h15.742v-118.08c0-2.0859-0.82812-4.0898-2.3047-5.5664-1.4766-1.4766-3.4805-2.3047-5.5664-2.3047h-141.7c-4.3477 0-7.8711 3.5234-7.8711 7.8711z"/>
  <path d="m321.28 163.84v118.08c0 2.0898 0.83203 4.0898 2.3047 5.5664 1.4766 1.4766 3.4805 2.3047 5.5664 2.3047h141.7c2.0859 0 4.0898-0.82812 5.5664-2.3047 1.4766-1.4766 2.3047-3.4766 2.3047-5.5664v-118.08h-15.742v110.21h-125.95v-110.21z"/>
  <path d="m305.54 281.92v-118.08h-15.746v110.21h-125.95v15.742h133.83c2.0859 0 4.0898-0.82812 5.5664-2.3047 1.4727-1.4766 2.3047-3.4766 2.3047-5.5664z"/>
  <path d="m494.46 518.08v118.08h15.742l0.003906-110.21h125.95v-15.742h-133.82c-4.3477 0-7.875 3.5234-7.875 7.8711z"/>
  <path d="m171.71 462.98h94.465c2.0859 0 4.0898-0.83203 5.5664-2.3086 1.4727-1.4766 2.3047-3.4766 2.3047-5.5664v-78.719c0-2.0898-0.83203-4.0898-2.3047-5.5664-1.4766-1.4766-3.4805-2.3047-5.5664-2.3047h-23.617v-7.875c0-8.4336-4.5-16.23-11.809-20.449s-16.309-4.2188-23.617 0c-7.3047 4.2188-11.809 12.016-11.809 20.449v7.8711l-23.613 0.003907c-4.3477 0-7.875 3.5234-7.875 7.8711v78.719c0 2.0898 0.83203 4.0898 2.3086 5.5664 1.4766 1.4766 3.4766 2.3086 5.5664 2.3086zm39.359-102.34c0-4.3477 3.5234-7.8711 7.8711-7.8711s7.8711 3.5234 7.8711 7.8711v7.8711l-15.742 0.003907zm-31.488 23.617h78.719v62.977h-78.719z"/>
  <path d="m360.64 541.7c-4.3477 0-7.8711 3.5234-7.8711 7.8711v78.723c0 2.0859 0.83203 4.0898 2.3047 5.5664 1.4766 1.4727 3.4805 2.3047 5.5664 2.3047h78.723c2.0859 0 4.0898-0.83203 5.5664-2.3047 1.4766-1.4766 2.3047-3.4805 2.3047-5.5664v-78.723c0-2.0859-0.82812-4.0898-2.3047-5.5664-1.4766-1.4766-3.4805-2.3047-5.5664-2.3047zm59.719 15.742-20.355 20.359-20.359-20.359zm-51.844 11.133 20.355 20.355-20.355 20.359zm11.129 51.844 20.359-20.355 20.355 20.355zm51.848-11.129-20.359-20.359 20.359-20.355z"/>
  <path d="m400 376.38c2.0859 0 4.0898 0.82813 5.5664 2.3047 1.4766 1.4766 2.3047 3.4805 2.3047 5.5664h15.742c-0.019531-4.8672-1.543-9.6094-4.3594-13.578-2.8203-3.9648-6.793-6.9648-11.383-8.5898v-9.3203h-15.746v9.3203c-7.0547 2.4844-12.508 8.1719-14.699 15.324-2.1914 7.1523-0.85547 14.918 3.5977 20.926 4.4531 6.0117 11.496 9.5469 18.977 9.5352 3.1836 0 6.0547 1.918 7.2695 4.8594 1.2188 2.9414 0.54688 6.3281-1.7031 8.5781-2.2539 2.25-5.6406 2.9258-8.582 1.707s-4.8594-4.0898-4.8594-7.2734h-15.742c0.019532 4.8672 1.543 9.6094 4.3633 13.578 2.8164 3.9688 6.793 6.9688 11.379 8.5898v9.3203h15.742l0.003906-9.3203c7.0547-2.4844 12.512-8.1719 14.699-15.324 2.1914-7.1523 0.85547-14.918-3.5977-20.926-4.4531-6.0117-11.496-9.5469-18.973-9.5352-4.3477 0-7.875-3.5234-7.875-7.8711s3.5273-7.8711 7.875-7.8711z"/>
  <path d="m628.29 337.02h-94.465c-4.3477 0-7.875 3.5234-7.875 7.8711v110.21c0 2.0898 0.83203 4.0898 2.3086 5.5664 1.4766 1.4766 3.4766 2.3086 5.5664 2.3086h94.465c2.0859 0 4.0898-0.83203 5.5664-2.3086 1.4727-1.4766 2.3047-3.4766 2.3047-5.5664v-110.21c0-2.0898-0.83203-4.0898-2.3047-5.5664-1.4766-1.4766-3.4805-2.3047-5.5664-2.3047zm-17.113 15.742-30.121 35.141-30.117-35.141zm-69.48 13.383 28.992 33.852-28.992 33.848zm9.2422 81.082 30.117-35.141 30.117 35.141zm69.477-13.383-28.992-33.848 28.992-33.852z"/>
  <path d="m407.87 234.69v-15.746h15.742v-15.742h-15.742v-15.746h-15.746v15.746h-15.742v15.742h15.742v15.746z"/>
  <path d="m447.23 211.07c0-12.527-4.9766-24.539-13.832-33.398-8.8594-8.8594-20.875-13.836-33.398-13.836-12.527 0-24.543 4.9766-33.398 13.836-8.8594 8.8594-13.836 20.871-13.836 33.398 0 12.527 4.9766 24.539 13.836 33.398 8.8555 8.8555 20.871 13.832 33.398 13.832 12.52-0.011719 24.527-4.9922 33.383-13.848 8.8555-8.8555 13.836-20.859 13.848-33.383zm-78.719 0c0-8.3516 3.3164-16.359 9.2227-22.266 5.9023-5.9062 13.914-9.2227 22.266-9.2227s16.359 3.3164 22.266 9.2227c5.9023 5.9062 9.2227 13.914 9.2227 22.266 0 8.3516-3.3203 16.359-9.2227 22.266-5.9062 5.9062-13.914 9.2227-22.266 9.2227s-16.363-3.3164-22.266-9.2227c-5.9062-5.9062-9.2227-13.914-9.2227-22.266z"/>
  <path d="m226.81 415.74c0 4.3477-3.5234 7.8711-7.8711 7.8711s-7.8711-3.5234-7.8711-7.8711v-15.742h-15.746v15.742c0 8.4375 4.5039 16.234 11.809 20.453 7.3086 4.2188 16.309 4.2188 23.617 0s11.809-12.016 11.809-20.453v-15.742h-15.746z"/>
 </g>
</svg>