<?xml version="1.0" encoding="UTF-8"?>
<!-- The Best Svg Icon site in the world: iconSvg.co, Visit us! https://iconsvg.co -->
<svg fill="#000000" width="800px" height="800px" version="1.1" viewBox="144 144 512 512" xmlns="http://www.w3.org/2000/svg">
 <g>
  <path d="m620.41 187.45c0-2.0859-0.82812-4.0898-2.3047-5.5664-1.4766-1.4766-3.4766-2.3047-5.5664-2.3047h-425.09c-4.3477 0-7.8711 3.5234-7.8711 7.8711s3.5234 7.8711 7.8711 7.8711h425.09c2.0898 0 4.0898-0.82812 5.5664-2.3047 1.4766-1.4766 2.3047-3.4766 2.3047-5.5664z"/>
  <path d="m596.8 462.98v-251.91h-393.6v251.91zm-55.105-157.44h-15.746c-8.4336 0-16.23-4.5039-20.449-11.809-4.2188-7.3086-4.2188-16.309 0-23.617 4.2188-7.3047 12.016-11.809 20.449-11.809v-7.8711c0-4.3477 3.5273-7.8711 7.875-7.8711 4.3477 0 7.8711 3.5234 7.8711 7.8711v7.8711c6.2617 0 12.27 2.4883 16.699 6.918 4.4297 4.4297 6.918 10.438 6.918 16.699 0 4.3477-3.5273 7.8711-7.875 7.8711s-7.8711-3.5234-7.8711-7.8711c0-2.0859-0.82812-4.0898-2.3047-5.5664-1.4766-1.4766-3.4805-2.3047-5.5664-2.3047h-15.746c-4.3477 0-7.8711 3.5234-7.8711 7.8711 0 4.3477 3.5234 7.8711 7.8711 7.8711h15.746c8.4375 0 16.234 4.5039 20.453 11.809 4.2188 7.3086 4.2188 16.309 0 23.617-4.2188 7.3047-12.016 11.809-20.453 11.809v7.8711c0 4.3477-3.5234 7.8711-7.8711 7.8711-4.3477 0-7.875-3.5234-7.875-7.8711v-7.8711c-6.2617 0-12.27-2.4883-16.699-6.918-4.4258-4.4297-6.9141-10.438-6.9141-16.699 0-4.3477 3.5234-7.8711 7.8711-7.8711 4.3477 0 7.8711 3.5234 7.8711 7.8711 0 2.0859 0.83203 4.0898 2.3047 5.5664 1.4766 1.4766 3.4805 2.3047 5.5664 2.3047h15.746c4.3477 0 7.8711-3.5234 7.8711-7.8711s-3.5234-7.8711-7.8711-7.8711zm-289.69 58.254 23.617-31.488c1.5469-1.8828 3.8594-2.9766 6.2969-2.9766s4.75 1.0938 6.2969 2.9766l16.43 21.906 25.543-44.738c1.4102-2.4375 4.0156-3.9414 6.8359-3.9336h51.051l37-51.805-0.003907-0.003907c1.4805-2.0703 3.8711-3.3008 6.418-3.2969h0.13281c2.582 0.042968 4.9805 1.3516 6.4141 3.5039l15.742 23.617h0.003906c2.4102 3.6172 1.4375 8.5039-2.1797 10.918-3.6172 2.4102-8.5078 1.4375-10.922-2.1797l-9.4453-14.129-32.738 45.824v-0.003906c-1.4727 2.0586-3.8398 3.2852-6.3711 3.2969h-50.535l-29.223 51.168c-1.3203 2.2969-3.7031 3.7734-6.3438 3.9375-2.6562 0.20313-5.2266-0.98828-6.7852-3.1484l-17.32-23.09-17.316 23.09c-2.6094 3.4766-7.543 4.1836-11.023 1.5742-3.4766-2.6094-4.1836-7.543-1.5742-11.02zm6.2969 36.211h59.199l29.125-36.406v-0.003906c1.5508-1.8828 3.8633-2.9648 6.2969-2.9531 2.4336 0.039062 4.7148 1.2031 6.1719 3.1523l16.586 22.121 17.602-29.324h0.003906c1.4141-2.3594 3.9609-3.8086 6.7148-3.8203h36.102l29.18-29.18c3.0898-2.9844 8-2.9414 11.035 0.09375 3.0352 3.0391 3.0781 7.9492 0.097656 11.035l-31.488 31.488c-1.4766 1.4766-3.4805 2.3086-5.5664 2.3086h-34.906l-21.324 35.543v-0.003907c-1.3398 2.2344-3.6992 3.6602-6.2969 3.8125-2.625 0.15625-5.1523-1.0312-6.707-3.1484l-17.516-23.355-25.145 31.426v-0.003906c-1.5 1.8828-3.7812 2.9727-6.1875 2.9609h-62.977c-4.3477 0-7.8711-3.5234-7.8711-7.8711s3.5234-7.8711 7.8711-7.8711zm-39.359-149.57c0-4.3477 3.5234-7.8711 7.8711-7.8711s7.875 3.5234 7.875 7.8711v181.06h283.39c4.3477 0 7.8711 3.5234 7.8711 7.8711s-3.5234 7.8711-7.8711 7.8711h-291.27c-4.3477 0-7.8711-3.5234-7.8711-7.8711z"/>
  <path d="m612.54 478.72h-425.09c-4.3477 0-7.8711 3.5234-7.8711 7.8711s3.5234 7.8711 7.8711 7.8711h425.09c4.3477 0 7.8711-3.5234 7.8711-7.8711s-3.5234-7.8711-7.8711-7.8711z"/>
  <path d="m299.24 623.56c-2.6094 3.4805-1.9062 8.4141 1.5742 11.023 3.4766 2.6094 8.4102 1.9023 11.02-1.5742l27.238-36.211h122.02l27.078 36.211c1.5 1.9688 3.8242 3.1328 6.2969 3.1484 1.707 0.019532 3.3711-0.53516 4.7266-1.5742 3.4766-2.6094 4.1797-7.543 1.5742-11.023l-84.703-113.36h-31.488zm150.12-42.508h-98.398l49.359-65.574z"/>
 </g>
</svg>