<?xml version="1.0" encoding="UTF-8"?>
<!-- The Best Svg Icon site in the world: iconSvg.co, Visit us! https://iconsvg.co -->
<svg fill="#000000" width="800px" height="800px" version="1.1" viewBox="144 144 512 512" xmlns="http://www.w3.org/2000/svg">
 <g>
  <path d="m384.57 169.82c-46.488 4.668-88.5 29.742-114.68 68.438-26.176 38.699-33.816 87.023-20.848 131.91 12.965 44.883 45.195 81.691 87.977 100.47v23.824h52.48v-115.45h-20.992c-5.7969 0-10.496-4.6992-10.496-10.496s4.6992-10.496 10.496-10.496h52.48v-20.992h-52.48c-5.7969 0-10.496-4.6992-10.496-10.496v-41.984c0-5.7969 4.6992-10.496 10.496-10.496h20.992v-10.496c0-5.7969 4.6992-10.496 10.496-10.496s10.496 4.6992 10.496 10.496v10.496h20.992c5.7969 0 10.496 4.6992 10.496 10.496s-4.6992 10.496-10.496 10.496h-52.48v20.992h52.48c2.7812 0 5.4531 1.1055 7.4219 3.0742 1.9648 1.9688 3.0742 4.6367 3.0742 7.4219v41.984c0 2.7812-1.1094 5.4531-3.0742 7.4219-1.9688 1.9688-4.6406 3.0742-7.4219 3.0742h-20.992v115.45h52.48v-23.824c46.027-20.27 79.602-61.312 90.348-110.45 10.75-49.133-2.625-100.45-35.988-138.08-33.363-37.637-82.699-57.07-132.77-52.293z"/>
  <path d="m473.47 546.94v-20.992c0-2.7812-1.1094-5.4531-3.0742-7.4219-1.9688-1.9648-4.6406-3.0742-7.4219-3.0742h-125.95c-5.7969 0-10.496 4.6992-10.496 10.496v20.992c0 2.7852 1.1055 5.4531 3.0742 7.4219s4.6367 3.0742 7.4219 3.0742c-5.7969 0-10.496 4.6992-10.496 10.496v20.992c0 2.7852 1.1055 5.4531 3.0742 7.4219s4.6367 3.0742 7.4219 3.0742h20.992c0 8.3516 3.3164 16.363 9.2227 22.266 5.9023 5.9062 13.914 9.2227 22.266 9.2227h20.992c8.3516 0 16.359-3.3164 22.266-9.2227 5.9023-5.9023 9.2227-13.914 9.2227-22.266h20.992c2.7812 0 5.4531-1.1055 7.4219-3.0742 1.9648-1.9688 3.0742-4.6367 3.0742-7.4219v-20.992c0-2.7812-1.1094-5.4531-3.0742-7.4219-1.9688-1.9688-4.6406-3.0742-7.4219-3.0742 2.7812 0 5.4531-1.1055 7.4219-3.0742 1.9648-1.9688 3.0742-4.6367 3.0742-7.4219z"/>
 </g>
</svg>