<?xml version="1.0" encoding="UTF-8"?>
<!-- The Best Svg Icon site in the world: iconSvg.co, Visit us! https://iconsvg.co -->
<svg fill="#000000" width="800px" height="800px" version="1.1" viewBox="144 144 512 512" xmlns="http://www.w3.org/2000/svg">
 <g>
  <path d="m451.72 154.39-200.89 0.78906c-4.3477 0-7.8711 3.5234-7.8711 7.8711l0.86719 218.53c-28.812 23.617-38.258 31.488-41.957 34.793-2.2812 1.8125-2.5977 2.125-3.6992 3.0703-18.184 16.453-18.973 47.23-19.523 69.824v9.1328c-0.78906 17.949 0.62891 57.703 1.3398 76.121h-0.003907c-3.8906-0.66406-7.8867 0.22266-11.125 2.4766-3.2422 2.2539-5.4648 5.6914-6.1953 9.5703l-6.6914 41.25c-0.78125 3.9141 0.074218 7.9805 2.3633 11.254 2.2188 3.3242 5.6797 5.6211 9.6016 6.3789h112.34c3.5078-0.011719 6.9023-1.2422 9.6055-3.4844 2.6992-2.2383 4.5352-5.3516 5.1914-8.7969l3.7031-20.625c0.78125-3.918-0.074219-7.9844-2.3633-11.258-2.2188-3.3242-5.6797-5.6172-9.6055-6.375 3.6602-3.2656 7.1289-6.7344 10.395-10.391 7.582-8.5547 12.984-18.82 15.742-29.914 1.9688-7.8711 3.1484-15.742 4.3281-23.617 0.39453-2.832 0.78906-5.668 1.2578-8.5 1.3398-7.8711 3.1484-16.531 4.8789-24.641l3.0703-14.328h0.003906c2.1797-7.8984 1.3086-16.328-2.4375-23.613-3.9414-6.5273-10.465-11.074-17.949-12.52-2.6953-1.0977-5.5312-1.8125-8.4219-2.125-6.1328-0.22266-12.133 1.8242-16.852 5.7461-4.7188 3.918-7.8281 9.4414-8.7344 15.508l-4.8789 23.617v0.39453l-1.0234 4.8789-21.883-38.574-0.003907 0.003907c-1.5391-4.1641-1.1953-8.7891 0.94531-12.676 1.1836 2.8867 3.9648 4.8008 7.0859 4.8828 2.0859 0 4.0898-0.83203 5.5664-2.3086 1.4766-1.4766 2.3047-3.4766 2.3047-5.5664l-1.8906-270.64 185.78-0.70703 1.4961 379.75h-114.07c-4.3477 0-7.8711 3.5234-7.8711 7.8711 0 2.0898 0.82812 4.0898 2.3047 5.5664 1.4766 1.4766 3.4805 2.3086 5.5664 2.3086l121.86-0.47266c2.0391-0.03125 3.9844-0.84766 5.4297-2.2852 1.4102-1.457 2.1992-3.4023 2.207-5.4297l-1.5742-395.02c-0.085938-4.2266-3.4922-7.6289-7.7148-7.7148zm-172 475.79h-108.87l6.6133-40.699 8.9727 1.7305 82.105 15.742h2.832l12.121 2.2812zm-35.898-207.43c-6.7461 4.1836-11.809 10.609-14.297 18.152-2.4922 7.5391-2.25 15.715 0.67969 23.098l30.938 54.473-0.94531 4.25c-0.73438 4.1289 1.8945 8.1133 5.9844 9.0547 0.51953 0.074218 1.0508 0.074218 1.5742 0 3.75 0.089844 7.0469-2.4805 7.8711-6.1406l1.418-7.0078 10.156-49.043h-0.003906c0.46094-5.332 5.1328-9.3008 10.473-8.8945 1.6445 0.03125 3.2812 0.24219 4.8789 0.62891 3.5156 0.52344 6.6562 2.4961 8.6602 5.4336 1.7461 3.918 2.0234 8.332 0.78516 12.438l-3.3828 15.27c-1.8125 7.8711-3.6211 16.848-5.0391 25.426-0.47266 2.9141-0.86719 5.8242-1.3398 8.7383v0.003906c-0.94531 7.5156-2.2852 14.977-4.0117 22.355-2.1719 8.7812-6.4727 16.891-12.52 23.617-3.2578 3.5586-6.6992 6.9492-10.312 10.152-0.39453 0-1.1797 1.1797-2.2812 2.3633l-4.4102 4.5664-73.367-14.406c-0.70703-16.137-2.3633-60.062-1.5742-78.719v-9.4453c0.55078-19.758 1.1797-46.762 14.484-58.805l3.1484-2.5977c3.2266-2.6758 10.863-8.8945 32.117-26.609z"/>
  <path d="m315.14 367.96h4.9609c0.91016 2.8828 2.3828 5.5586 4.3281 7.8711 3.6641 4.4414 9.1211 7.0117 14.879 7.0117 5.7578 0 11.215-2.5703 14.879-7.0117 3.1797-3.8125 5.1055-8.5156 5.5117-13.461 0-3.3047 0.39453-9.3672 5.1953-9.3672 1.2695 0.027344 2.457 0.63672 3.2266 1.6523 1.2734 1.4883 1.9453 3.3945 1.8906 5.3516 0.054688 3.5625-1.0508 7.043-3.1523 9.918-2.7383 3.1367-2.5664 7.8594 0.39453 10.785 1.4453 1.3125 3.3242 2.043 5.2734 2.0469 2.1445-0.007812 4.1914-0.88672 5.668-2.4375 3.0742-3.668 5.2344-8.0117 6.3008-12.676h4.6445c4.3477 0 7.8711-3.5234 7.8711-7.8711 0-4.3477-3.5234-7.8711-7.8711-7.8711h-4.8828c-0.92188-2.8945-2.4219-5.5742-4.4062-7.875-3.707-4.4727-9.2266-7.043-15.035-7.0039-5.5898 0.40234-10.801 2.9766-14.523 7.168-3.7188 4.1914-5.6562 9.668-5.3945 15.266 0.011719 2.2148-0.70703 4.375-2.0469 6.1406-0.76953 1.0156-1.957 1.6211-3.2266 1.6523-1.418 0-2.5195-0.86719-3.2266-1.6523h-0.003906c-1.2734-1.4883-1.9453-3.3945-1.8867-5.3516-0.25781-3.4922 0.625-6.9766 2.5195-9.9219 1.8555-3.1953 1.2344-7.2539-1.4922-9.7539-2.7227-2.4961-6.8203-2.7617-9.8438-0.63672-3.0195 3.7305-5.1016 8.1328-6.0625 12.832h-4.5664c-2.3359-0.53125-4.7852 0.027344-6.6562 1.5234-1.875 1.4922-2.9648 3.7578-2.9648 6.1523 0 2.3945 1.0898 4.6602 2.9648 6.1523 1.8711 1.4961 4.3203 2.0547 6.6562 1.5234z"/>
  <path d="m352.06 434.87c19.922 0.019531 39.031-7.8906 53.105-21.988 14.074-14.098 21.961-33.219 21.91-53.141-0.050781-19.918-8.0273-39-22.172-53.027-14.148-14.027-33.297-21.844-53.215-21.727-19.922 0.12109-38.977 8.1641-52.953 22.359-13.977 14.195-21.727 33.371-21.539 53.289 0.10156 19.891 8.1406 38.914 22.328 52.852 14.191 13.938 33.355 21.637 53.242 21.383zm0-134.38c15.734 0.019531 30.824 6.2656 41.977 17.371 11.148 11.105 17.453 26.168 17.535 41.906 0.0625 15.781-6.1484 30.945-17.262 42.148-11.117 11.207-26.23 17.535-42.016 17.598-21.262 0-40.906-11.34-51.539-29.754-10.629-18.414-10.629-41.102 0-59.512 10.633-18.414 30.277-29.758 51.539-29.758z"/>
  <path d="m391.02 208.23c1.0703 5.0859 3.5352 9.7695 7.125 13.523 3.5898 3.7578 8.1562 6.4336 13.188 7.7344v40.699-0.003906c0 2.0898 0.82812 4.0898 2.3047 5.5664 1.4766 1.4766 3.4766 2.3086 5.5664 2.3086 2.0859 0 4.0898-0.83203 5.5664-2.3086 1.4766-1.4766 2.3047-3.4766 2.3047-5.5664v-47.23c0.023437-2.0508-0.80078-4.0156-2.2812-5.4336-1.4609-1.4062-3.4062-2.1953-5.4336-2.2031-3.7812 0.042969-7.3984-1.5312-9.9414-4.332-2.543-2.7969-3.7656-6.5508-3.3633-10.309 0-2.0898-0.82812-4.0898-2.3047-5.5664-1.4766-1.4766-3.4766-2.3047-5.5664-2.3047h-23.535c-4.3477 0-7.875 3.5234-7.875 7.8711 0 2.0859 0.83203 4.0898 2.3086 5.5664 1.4727 1.4766 3.4766 2.3047 5.5664 2.3047z"/>
  <path d="m312.62 208.47h15.746c2.3359 0.53125 4.7852-0.027344 6.6562-1.5234 1.875-1.4922 2.9648-3.7578 2.9648-6.1523s-1.0898-4.6602-2.9648-6.1523c-1.8711-1.4961-4.3203-2.0547-6.6562-1.5234h-22.828c-4.3477 0-7.8711 3.5234-7.8711 7.8711 0.17969 3.8867-1.082 7.6992-3.543 10.707-2.4961 2.7227-6.0742 4.1914-9.7617 4.0156-2.0117 0.050781-3.9258 0.86719-5.3555 2.2812-1.4531 1.4688-2.2734 3.4453-2.2812 5.5117v47.23c0 2.0898 0.82812 4.0898 2.3047 5.5664 1.4766 1.4766 3.4805 2.3086 5.5664 2.3086 2.0898 0 4.0898-0.83203 5.5664-2.3086 1.4766-1.4766 2.3047-3.4766 2.3047-5.5664v-40.699 0.003907c5.2344-1.3516 9.9492-4.2305 13.543-8.2656 3.3008-3.8008 5.5781-8.3789 6.6094-13.305z"/>
  <path d="m397.64 498.4c-3.168 3.7656-5.3594 8.2539-6.375 13.066h-15.746c-4.3477 0-7.8711 3.5273-7.8711 7.875 0 2.0859 0.82812 4.0898 2.3047 5.5664 1.4766 1.4766 3.4805 2.3047 5.5664 2.3047h22.594c2.0859 0 4.0898-0.82813 5.5664-2.3047 1.4766-1.4766 2.3047-3.4805 2.3047-5.5664-0.20312-3.875 1.0312-7.6875 3.4648-10.707 2.3867-2.6406 5.8086-4.1094 9.3672-4.0156 2.0273-0.007813 3.9727-0.79688 5.4336-2.2031 1.4219-1.4805 2.2148-3.457 2.2031-5.5117v-47.23c0-2.0898-0.83203-4.0898-2.3047-5.5664-1.4766-1.4766-3.4805-2.3047-5.5664-2.3047-4.3477 0-7.875 3.5234-7.875 7.8711v40.699c-5.043 1.3477-9.582 4.1367-13.066 8.0273z"/>
  <path d="m642.3 317.97-135.09-133.2c-3.0391-2.8984-7.8203-2.8984-10.863 0l-18.105 18.422c-2.0078 1.293-3.3203 3.4297-3.5664 5.8086-0.24609 2.375 0.60156 4.7383 2.3047 6.4141 1.7031 1.6797 4.0742 2.4922 6.4492 2.2109 2.3711-0.28125 4.4883-1.6211 5.7539-3.6484l12.676-12.91 124.22 122.49-146.81 148.78c-2.0469 2.2617-2.6016 5.5078-1.4219 8.3242 1.1797 2.8125 3.8828 4.6953 6.9336 4.8203 2.0469-0.050781 3.9961-0.89844 5.4297-2.3594l152.17-153.98c1.4805-1.4414 2.2812-3.4414 2.2031-5.5078 0.035157-2.1211-0.78906-4.1641-2.2812-5.668z"/>
  <path d="m537.76 379.69c1.4414 1.3906 3.3555 2.1758 5.3555 2.207 2.0625-0.011719 4.043-0.83203 5.5078-2.2852l31.488-31.883c2.8984-3.0391 2.8984-7.8203 0-10.863-2.4883-2.4219-3.8242-5.793-3.6758-9.2656 0.15234-3.4727 1.7734-6.7148 4.4648-8.918 2.8984-3.0391 2.8984-7.8203 0-10.863l-17.789-17.555h-0.003906c-1.293-2.0078-3.4297-3.3203-5.8086-3.5664-2.375-0.24609-4.7383 0.60156-6.4141 2.3047-1.6758 1.7031-2.4922 4.0742-2.2109 6.4492 0.28125 2.3711 1.6211 4.4883 3.6484 5.7539l12.992 12.832c-2.6328 4.1094-4.0742 8.8633-4.1719 13.738s1.1562 9.6836 3.6211 13.895l-27.082 26.844c-1.4805 1.4883-2.3047 3.5039-2.2891 5.6055 0.015625 2.0977 0.86719 4.1055 2.3672 5.5703z"/>
  <path d="m518.71 246.73c-1.4844-1.3672-3.4141-2.1523-5.4297-2.2031-2.0391 0.027344-3.9844 0.84766-5.4336 2.2812-2.4023 2.6133-5.6758 4.2656-9.207 4.6445-3.3516 0.12891-6.5898-1.1914-8.8984-3.6211-1.3359-1.8867-3.4375-3.0898-5.7422-3.2891-2.3047-0.19922-4.582 0.625-6.2227 2.2578-1.6445 1.6289-2.4844 3.8984-2.3047 6.207 0.18359 2.3047 1.3711 4.4141 3.25 5.7656 5.4492 5.5312 13.039 8.4062 20.781 7.8711 4.6406-0.36719 9.125-1.8516 13.07-4.3281l13.379 12.91c1.4609 1.4062 3.4062 2.1953 5.4336 2.2031 2.0469 0.023437 4.0156-0.80078 5.4297-2.2812 2.9023-3.043 2.9023-7.8242 0-10.863z"/>
 </g>
</svg>