<?xml version="1.0" encoding="UTF-8"?>
<!-- The Best Svg Icon site in the world: iconSvg.co, Visit us! https://iconsvg.co -->
<svg fill="#000000" width="800px" height="800px" version="1.1" viewBox="144 144 512 512" xmlns="http://www.w3.org/2000/svg">
 <path d="m557.73 261.45c0.23828 0.58594 0.38281 1.2188 0.38281 1.8906v277.09c0 2.7812-2.2578 5.0391-5.0391 5.0391h-301.03c-2.7812 0-5.0391-2.2578-5.0391-5.0391s2.2578-5.0391 5.0391-5.0391h295.99l0.003906-19.52h-8.5039c-2.7812 0-5.0391-2.2578-5.0391-5.0391s2.2578-5.0391 5.0391-5.0391h8.5039v-21.41h-8.5039c-2.7812 0-5.0391-2.2578-5.0391-5.0391s2.2578-5.0391 5.0391-5.0391h8.5039v-21.41h-8.5039c-2.7812 0-5.0391-2.2578-5.0391-5.0391s2.2578-5.0391 5.0391-5.0391h8.5039v-21.41h-8.5039c-2.7812 0-5.0391-2.2578-5.0391-5.0391s2.2578-5.0391 5.0391-5.0391h8.5039v-21.41h-8.5039c-2.7812 0-5.0391-2.2578-5.0391-5.0391s2.2578-5.0391 5.0391-5.0391h8.5039v-20.781h-8.5039c-2.7812 0-5.0391-2.2578-5.0391-5.0391s2.2578-5.0391 5.0391-5.0391h8.5039v-21.41h-8.5039c-2.7812 0-5.0391-2.2578-5.0391-5.0391s2.2578-5.0391 5.0391-5.0391h8.5039v-21.41h-8.5039c-2.7812 0-5.0391-2.2578-5.0391-5.0391s2.2578-5.0391 5.0391-5.0391h8.5039v-21.41h-8.5039c-2.7812 0-5.0391-2.2578-5.0391-5.0391s2.2578-5.0391 5.0391-5.0391h13.543c2.7812 0 5.0391 2.2578 5.0391 5.0391-0.003907 0.67188-0.14844 1.3086-0.38672 1.8906zm-315.85 220.83c0-15.105 12.469-27.398 27.801-27.398 3.0039 0 5.8906 0.48828 8.6055 1.3594l40.199-77.016c-5.2812-4.9922-8.5859-11.992-8.5859-19.75 0-15.105 12.469-27.398 27.801-27.398s27.805 12.289 27.805 27.398c0 4.5508-1.1484 8.8359-3.1484 12.621l46.074 31.176c4.6914-3.5586 10.539-5.6914 16.898-5.6914 3.4414 0 6.7227 0.64453 9.7656 1.7773l54.062-113.28-11.637 5.0039c-2.5586 1.0938-5.5234-0.085937-6.6211-2.6406-1.0977-2.5586 0.085937-5.5234 2.6406-6.6211l24.348-10.465c1.4219-0.60547 3.0312-0.52734 4.3945 0.20312 1.3555 0.73438 2.3008 2.0508 2.5625 3.5664l4.7656 27.488c0.47266 2.7422-1.3672 5.3516-4.1016 5.8242-0.29297 0.050781-0.57812 0.074219-0.86719 0.074219-2.4102 0-4.5352-1.7266-4.957-4.1758l-2.1523-12.402-53.762 112.61c5.7188 5.0234 9.3398 12.309 9.3398 20.43 0 15.105-12.469 27.398-27.801 27.398s-27.801-12.289-27.801-27.398c0-5.2227 1.5234-10.098 4.1055-14.258l-45.57-30.727c-4.9023 4.2656-11.324 6.8828-18.363 6.8828-3.8086 0-7.4414-0.76172-10.746-2.1328l-39.785 76.266c6.293 5.0273 10.324 12.691 10.324 21.277 0 15.105-12.473 27.398-27.805 27.398-15.32-0.003906-27.789-12.297-27.789-27.398zm78.09-122.8c0 9.5508 7.9492 17.32 17.723 17.32 9.7734 0 17.73-7.7695 17.73-17.32 0-9.5508-7.957-17.32-17.73-17.32-9.7734 0.003906-17.723 7.7734-17.723 17.32zm87.629 65.496c0 9.5508 7.9492 17.32 17.723 17.32 9.7734 0 17.723-7.7695 17.723-17.32s-7.9492-17.32-17.723-17.32c-9.7734-0.003907-17.723 7.7734-17.723 17.32zm-155.64 57.309c0 9.5508 7.9492 17.32 17.723 17.32 9.7734 0 17.73-7.7695 17.73-17.32 0-9.5508-7.957-17.32-17.73-17.32-9.7734 0.003907-17.723 7.7695-17.723 17.32z"/>
</svg>