<?xml version="1.0" encoding="UTF-8"?>
<!-- The Best Svg Icon site in the world: iconSvg.co, Visit us! https://iconsvg.co -->
<svg fill="#000000" width="800px" height="800px" version="1.1" viewBox="144 144 512 512" xmlns="http://www.w3.org/2000/svg">
 <g>
  <path d="m478.07 358.67h11.09l25.043-47.555-116.46-61.086-57.199 108.64h11.09l32.75-62.113v-0.003906c1.5117-2.7461 4.9258-3.8008 7.7227-2.3867 10.566 4.9336 22.121 0.11328 28.762-11.984v0.003906c1.5469-2.8242 5.0703-3.8906 7.9219-2.3945l43.457 22.82c2.8477 1.4883 3.9727 4.9844 2.5273 7.8516-6.1836 12.312-3.5938 24.91 6.2969 30.715h0.003906c2.7109 1.5469 3.7031 4.9727 2.2383 7.7305z"/>
  <path d="m428.11 292.68c-8.918 12.277-22.527 17.508-35.672 13.934l-27.473 52.059h99.766l5.7461-10.715c-10.203-8.793-13.516-23.27-8.5273-37.547z"/>
  <path d="m486.59 467.7v55.535c-0.039063 7.2188 2.793 14.156 7.8789 19.281 5.0859 5.1289 12.004 8.0156 19.223 8.0312h51.621v-110.21h-51.621c-7.2227 0.023438-14.141 2.9258-19.227 8.0586-5.082 5.1328-7.918 12.074-7.875 19.301zm34.441 8.3047c0-3.2578 2.6445-5.9023 5.9023-5.9023 3.2617 0 5.9062 2.6445 5.9062 5.9023v38.922c0 3.2617-2.6445 5.9062-5.9062 5.9062-3.2578 0-5.9023-2.6445-5.9023-5.9062z"/>
  <path d="m538.25 370.48h-270.75c-15.066 0-26.91 12.695-26.91 27.75v194.48c0 15.07 11.844 27.711 26.91 27.711h270.75c15.062 0 27.059-12.641 27.059-27.707l0.003906-30.348h-51.621c-10.348-0.019531-20.266-4.1562-27.566-11.492-7.2969-7.3398-11.379-17.281-11.344-27.629v-55.535c-0.039062-10.355 4.043-20.301 11.34-27.648 7.2969-7.3477 17.215-11.492 27.57-11.52h51.621v-30.309c0-15.055-12.008-27.75-27.062-27.75z"/>
  <path d="m289.26 289.62c14.539 0 28.484-5.7773 38.766-16.059 10.285-10.285 16.059-24.23 16.059-38.77 0-14.543-5.7734-28.488-16.059-38.77-10.281-10.281-24.227-16.059-38.766-16.059-14.543 0-28.488 5.7773-38.77 16.059-10.285 10.281-16.059 24.227-16.059 38.77 0.015625 14.535 5.7969 28.473 16.074 38.75 10.281 10.277 24.215 16.062 38.754 16.078zm0-46.914c-6.9688 0.003906-13.512-3.3516-17.578-9.0078s-5.1562-12.926-2.9336-19.531c2.2227-6.6016 7.4922-11.73 14.152-13.773v-3.1055c0-3.2617 2.6445-5.9023 5.9023-5.9023 3.2617 0 5.9062 2.6406 5.9062 5.9023v2.8555c4.6289 1.2109 8.7305 3.9219 11.656 7.7109 2.9258 3.7852 4.5195 8.4375 4.5234 13.223 0 3.2617-2.6445 5.9062-5.9023 5.9062-3.2617 0-5.9062-2.6445-5.9062-5.9062-0.007812-4.6211-3.2305-8.6172-7.75-9.5977-1.4844 0.71094-3.1992 0.76562-4.7227 0.14844-4.7266 1.3203-7.7539 5.9297-7.0859 10.793 0.66797 4.8594 4.8242 8.4844 9.7344 8.4805 7.0703 0.003906 13.695 3.4648 17.738 9.2695 4.043 5.8008 4.9922 13.215 2.543 19.852-2.4492 6.6367-7.9844 11.656-14.828 13.441v3.5312c0 3.2578-2.6445 5.9023-5.9062 5.9023-3.2578 0-5.9023-2.6445-5.9023-5.9023v-3.7891c-4.418-1.3633-8.2852-4.1094-11.035-7.8281-2.7461-3.7188-4.2344-8.2227-4.2383-12.848 0-3.2617 2.6445-5.9062 5.9023-5.9062 3.2617 0 5.9062 2.6445 5.9062 5.9062 0.007812 4.9727 3.7266 9.1602 8.6641 9.75 0.23438-0.03125 0.46875-0.046875 0.70313-0.046875 0.33984 0 0.67578 0.03125 1.0078 0.09375 5.3125-0.29297 9.4258-4.7617 9.2773-10.082-0.15234-5.3164-4.5117-9.5469-9.8281-9.5391z"/>
 </g>
</svg>