<?xml version="1.0" encoding="UTF-8"?>
<!-- The Best Svg Icon site in the world: iconSvg.co, Visit us! https://iconsvg.co -->
<svg fill="#000000" width="800px" height="800px" version="1.1" viewBox="144 144 512 512" xmlns="http://www.w3.org/2000/svg">
 <g>
  <path d="m612.54 250.43h-425.09c-6.2617 0-12.27 2.4883-16.699 6.918-4.4297 4.4297-6.918 10.434-6.918 16.699v251.9c0 6.2656 2.4883 12.273 6.918 16.699 4.4297 4.4297 10.438 6.918 16.699 6.918h425.09c6.2617 0 12.27-2.4883 16.699-6.918 4.4297-4.4258 6.918-10.434 6.918-16.699v-251.9c0-6.2656-2.4883-12.27-6.918-16.699-4.4297-4.4297-10.438-6.918-16.699-6.918zm7.8711 275.52c0 2.0898-0.82812 4.0898-2.3047 5.5664s-3.4766 2.3086-5.5664 2.3086h-425.09c-4.3477 0-7.8711-3.5273-7.8711-7.875v-251.9c0-4.3477 3.5234-7.8711 7.8711-7.8711h425.09c2.0898 0 4.0898 0.82812 5.5664 2.3047 1.4766 1.4766 2.3047 3.4766 2.3047 5.5664z"/>
  <path d="m400 313.41c-22.969 0-44.992 9.125-61.23 25.363s-25.363 38.262-25.363 61.23c0 22.965 9.125 44.988 25.363 61.227 16.238 16.242 38.262 25.363 61.23 25.363 22.965 0 44.988-9.1211 61.227-25.363 16.242-16.238 25.363-38.262 25.363-61.227-0.027344-22.957-9.1562-44.969-25.391-61.203-16.234-16.23-38.242-25.363-61.199-25.391zm0 157.44c-18.793 0-36.812-7.4648-50.098-20.75-13.289-13.289-20.754-31.309-20.754-50.098 0-18.793 7.4648-36.812 20.754-50.098 13.285-13.289 31.305-20.754 50.098-20.754 18.789 0 36.809 7.4648 50.098 20.754 13.285 13.285 20.75 31.305 20.75 50.098-0.023437 18.781-7.4922 36.789-20.773 50.074-13.285 13.281-31.293 20.75-50.074 20.773z"/>
  <path d="m557.44 376.38h-39.359c-8.4375 0-16.234 4.5-20.453 11.809-4.2188 7.3047-4.2188 16.309 0 23.613 4.2188 7.3086 12.016 11.809 20.453 11.809h39.359c8.4375 0 16.234-4.5 20.453-11.809 4.2188-7.3047 4.2188-16.309 0-23.613-4.2188-7.3086-12.016-11.809-20.453-11.809zm0 31.488h-39.359c-4.3477 0-7.8711-3.5234-7.8711-7.8711s3.5234-7.875 7.8711-7.875h39.359c4.3477 0 7.875 3.5273 7.875 7.875s-3.5273 7.8711-7.875 7.8711z"/>
  <path d="m281.92 376.38h-39.359c-8.4375 0-16.234 4.5-20.453 11.809-4.2188 7.3047-4.2188 16.309 0 23.613 4.2188 7.3086 12.016 11.809 20.453 11.809h39.359c8.4375 0 16.234-4.5 20.453-11.809 4.2188-7.3047 4.2188-16.309 0-23.613-4.2188-7.3086-12.016-11.809-20.453-11.809zm0 31.488h-39.359c-4.3477 0-7.8711-3.5234-7.8711-7.8711s3.5234-7.875 7.8711-7.875h39.359c4.3477 0 7.8711 3.5273 7.8711 7.875s-3.5234 7.8711-7.8711 7.8711z"/>
  <path d="m581.05 329.15h-15.742c-4.3477 0-7.875-3.5234-7.875-7.8711v-15.742c0-6.2656-2.4883-12.27-6.9141-16.699-4.4297-4.4297-10.438-6.918-16.699-6.918h-267.65c-6.2656 0-12.273 2.4883-16.699 6.918-4.4297 4.4297-6.918 10.434-6.918 16.699v15.742c0 2.0898-0.82812 4.0898-2.3047 5.5664-1.4766 1.4766-3.4805 2.3047-5.5664 2.3047h-15.746c-6.2617 0-12.27 2.4883-16.699 6.918-4.4297 4.4297-6.918 10.438-6.918 16.699v94.465c0 6.2617 2.4883 12.27 6.918 16.699 4.4297 4.4297 10.438 6.918 16.699 6.918h15.746c2.0859 0 4.0898 0.82812 5.5664 2.3047 1.4766 1.4766 2.3047 3.4805 2.3047 5.5664v15.742c0 6.2656 2.4883 12.273 6.918 16.699 4.4258 4.4297 10.434 6.918 16.699 6.918h267.65c6.2617 0 12.27-2.4883 16.699-6.918 4.4258-4.4258 6.9141-10.434 6.9141-16.699v-15.742c0-4.3477 3.5273-7.8711 7.875-7.8711h15.742c6.2656 0 12.27-2.4883 16.699-6.918 4.4297-4.4297 6.918-10.438 6.918-16.699v-94.465c0-6.2617-2.4883-12.27-6.918-16.699-4.4297-4.4297-10.434-6.918-16.699-6.918zm7.8711 118.08c0 2.0898-0.82812 4.0898-2.3047 5.5664-1.4766 1.4766-3.4766 2.3047-5.5664 2.3047h-15.742c-6.2656 0-12.273 2.4883-16.699 6.918-4.4297 4.4297-6.918 10.438-6.918 16.699v15.742c0 2.0898-0.82812 4.0938-2.3047 5.5664-1.4766 1.4766-3.4805 2.3086-5.5664 2.3086h-267.65c-4.3477 0-7.875-3.5273-7.875-7.875v-15.742c0-6.2617-2.4883-12.27-6.9141-16.699-4.4297-4.4297-10.438-6.918-16.699-6.918h-15.746c-4.3477 0-7.8711-3.5234-7.8711-7.8711v-94.465c0-4.3477 3.5234-7.8711 7.8711-7.8711h15.746c6.2617 0 12.27-2.4883 16.699-6.918 4.4258-4.4297 6.9141-10.434 6.9141-16.699v-15.742c0-4.3477 3.5273-7.8711 7.875-7.8711h267.65c2.0859 0 4.0898 0.82813 5.5664 2.3047s2.3047 3.4766 2.3047 5.5664v15.742c0 6.2656 2.4883 12.27 6.918 16.699 4.4258 4.4297 10.434 6.918 16.699 6.918h15.742c2.0898 0 4.0898 0.82812 5.5664 2.3047 1.4766 1.4766 2.3047 3.4805 2.3047 5.5664z"/>
  <path d="m400 376.38c2.0859 0 4.0898 0.82813 5.5664 2.3047 1.4766 1.4766 2.3047 3.4805 2.3047 5.5664 0 4.3477 3.5234 7.8711 7.8711 7.8711 4.3477 0 7.8711-3.5234 7.8711-7.8711-0.019531-4.8672-1.543-9.6094-4.3594-13.578-2.8203-3.9648-6.793-6.9648-11.383-8.5898v-1.4492c0-4.3477-3.5234-7.8711-7.8711-7.8711s-7.875 3.5234-7.875 7.8711v1.4492c-7.0547 2.4844-12.508 8.1719-14.699 15.324-2.1914 7.1523-0.85547 14.918 3.5977 20.926 4.4531 6.0117 11.496 9.5469 18.977 9.5352 3.1836 0 6.0547 1.918 7.2695 4.8594 1.2188 2.9414 0.54688 6.3281-1.7031 8.5781-2.2539 2.25-5.6406 2.9258-8.582 1.707s-4.8594-4.0898-4.8594-7.2734c0-4.3477-3.5234-7.8711-7.8711-7.8711s-7.8711 3.5234-7.8711 7.8711c0.019532 4.8672 1.543 9.6094 4.3633 13.578 2.8164 3.9688 6.793 6.9688 11.379 8.5898v1.4492c0 4.3477 3.5273 7.8711 7.875 7.8711s7.8711-3.5234 7.8711-7.8711v-1.4492c7.0547-2.4844 12.512-8.1719 14.699-15.324 2.1914-7.1523 0.85547-14.918-3.5977-20.926-4.4531-6.0117-11.496-9.5469-18.973-9.5352-4.3477 0-7.875-3.5234-7.875-7.8711s3.5273-7.8711 7.875-7.8711z"/>
 </g>
</svg>