<?xml version="1.0" encoding="UTF-8"?>
<!-- The Best Svg Icon site in the world: iconSvg.co, Visit us! https://iconsvg.co -->
<svg fill="#000000" width="800px" height="800px" version="1.1" viewBox="144 144 512 512" xmlns="http://www.w3.org/2000/svg">
 <g>
  <path d="m394.56 292.64c0.94922 0.62891 1.9922 1.1055 3.0898 1.4219v-7.8438c-1.0664 0.21484-2.0703 0.66016-2.9453 1.3125-0.85156 0.63672-1.3398 1.6523-1.3086 2.7188-0.0625 0.94531 0.38281 1.8555 1.1641 2.3906z"/>
  <path d="m402.29 301.53v7.6914c4.168-0.56641 4.6719-2.6641 4.6719-4.2461 0.019531-0.84375-0.44141-1.6211-1.1914-2.0078-1.1016-0.61328-2.2695-1.0938-3.4805-1.4375z"/>
  <path d="m469.66 327.29-25.832-64.762c-1.7891-4.6328-6.2539-7.6758-11.219-7.6484h-65.223c-4.9648-0.027344-9.4297 3.0156-11.219 7.6484l-25.832 64.762c-1.1875 2.9648-0.82422 6.3242 0.96484 8.9648 1.7891 2.6445 4.7734 4.2266 7.9648 4.2266h121.46c3.1914 0 6.1758-1.582 7.9648-4.2266 1.7891-2.6406 2.1523-6 0.96484-8.9648zm-58.164-17.105c-1.0352 1.5117-2.4609 2.7148-4.125 3.4766-1.6016 0.75391-3.3281 1.2188-5.0898 1.375v2.4336-0.003906c0.011719 0.61719-0.22656 1.2109-0.66406 1.6445-0.65234 0.71094-1.6758 0.94141-2.5703 0.57422-0.89062-0.36719-1.4531-1.2539-1.4102-2.2188v-2.4336 0.003906c-3.0195-0.25781-5.9766-0.99219-8.7617-2.1719-0.53906-0.22266-0.99609-0.59766-1.3203-1.082-0.78906-1.1172-0.69141-2.6328 0.23828-3.6367 0.85938-0.86719 2.168-1.1094 3.2852-0.60938 2.0742 0.92969 4.293 1.5039 6.5586 1.707v-8.9258c-1.6211-0.4375-3.207-0.99219-4.7461-1.6602-1.5273-0.67578-2.8672-1.707-3.9102-3.0117-1.1211-1.4492-1.6992-3.2422-1.6367-5.0742-0.011719-1.7148 0.4375-3.4023 1.3008-4.8867 0.92969-1.5547 2.2539-2.832 3.8438-3.7031 1.5938-0.87891 3.3398-1.4336 5.1484-1.6406v-2.4102c-0.011719-0.60938 0.22266-1.2031 0.64453-1.6445 0.92188-0.90234 2.3984-0.90234 3.3203 0 0.44141 0.4375 0.6875 1.0352 0.67969 1.6602v2.3164c2.543 0.14062 5.0508 0.66016 7.4414 1.5391 1.168 0.36328 1.9414 1.4688 1.8828 2.6914 0 0.71094-0.25781 1.3945-0.71875 1.9297-0.73438 0.97266-2.0664 1.2578-3.1328 0.67188-1.7773-0.60938-3.625-0.98438-5.4961-1.1172v9.2734c1.6914 0.40625 3.3477 0.93359 4.957 1.5859 1.5703 0.65625 2.9531 1.6914 4.0234 3.0156 1.1719 1.5508 1.7656 3.457 1.6797 5.3984 0.027343 1.75-0.46875 3.4648-1.4219 4.9336z"/>
  <path d="m327.55 403.86v7.6914c4.168-0.56641 4.6719-2.6641 4.6719-4.2461 0.019532-0.84375-0.44531-1.625-1.1953-2.0117-1.0977-0.61328-2.2656-1.0938-3.4766-1.4336z"/>
  <path d="m322.91 396.4v-7.8516c-1.0664 0.21484-2.0742 0.66406-2.9492 1.3164-0.85156 0.64062-1.3398 1.6562-1.3086 2.7188-0.0625 0.94531 0.38281 1.8516 1.1641 2.3867 0.95312 0.63281 1.9961 1.1133 3.0938 1.4297z"/>
  <path d="m394.91 429.66-25.832-64.809c-1.8047-4.6211-6.2617-7.6602-11.219-7.6484h-65.223c-4.9609-0.011719-9.418 3.0273-11.219 7.6484l-25.832 64.809c-1.1836 2.957-0.82031 6.3086 0.96875 8.9453 1.793 2.6328 4.7734 4.207 7.9609 4.1992h121.46c3.1836 0.007813 6.168-1.5664 7.957-4.1992 1.793-2.6367 2.1562-5.9883 0.97266-8.9453zm-58.168-17.145c-1.0234 1.5117-2.4414 2.7148-4.0977 3.4805-1.6055 0.75391-3.3281 1.2188-5.0938 1.375v2.4258c0.015624 0.61719-0.22656 1.2148-0.66406 1.6484-0.92578 0.85938-2.3516 0.875-3.3008 0.042969-0.45312-0.44531-0.69922-1.0586-0.67969-1.6914v-2.4258c-3.0156-0.26563-5.9727-1-8.7617-2.1758-0.53516-0.22266-0.99219-0.59766-1.3164-1.0781-0.79297-1.1172-0.69141-2.6328 0.23828-3.6367 0.85547-0.86719 2.1641-1.1133 3.2773-0.61328 2.0781 0.92578 4.2969 1.5039 6.5625 1.7109v-8.9336c-1.6211-0.4375-3.207-0.99219-4.7422-1.6602-1.5273-0.67969-2.8711-1.7109-3.918-3.0117-1.1172-1.4492-1.6914-3.2461-1.6289-5.0742-0.011719-1.7148 0.4375-3.4023 1.3008-4.8867 0.92578-1.5547 2.2539-2.832 3.8398-3.707 1.5938-0.875 3.3438-1.4336 5.1484-1.6406v-2.4023c-0.007812-0.60937 0.22266-1.1953 0.63672-1.6406 0.92188-0.90234 2.3945-0.91406 3.3242-0.019532 0.44531 0.4375 0.69141 1.0391 0.68359 1.6602v2.3359c2.543 0.14453 5.0508 0.66406 7.4414 1.5352 1.168 0.37109 1.9414 1.4805 1.8828 2.7031 0 0.70703-0.25391 1.3906-0.71875 1.9258-0.73047 0.97266-2.0664 1.2617-3.1328 0.67578-1.7734-0.61328-3.6211-0.98828-5.4961-1.125v9.293c1.6914 0.40234 3.3516 0.92969 4.9609 1.582 1.5664 0.66016 2.9492 1.6953 4.0234 3.0117 1.168 1.5508 1.7617 3.457 1.6797 5.3984 0.015626 1.7461-0.48828 3.457-1.4492 4.918z"/>
  <path d="m472.39 396.39v-7.8477c-1.0664 0.21484-2.0703 0.66016-2.9453 1.3125-0.84766 0.64062-1.3359 1.6562-1.3086 2.7227-0.058594 0.94531 0.38281 1.8516 1.1641 2.3867 0.94922 0.63281 1.9922 1.1133 3.0898 1.4258z"/>
  <path d="m544.41 429.66-25.832-64.809c-1.8047-4.6211-6.2617-7.6602-11.223-7.6484h-65.219c-4.9609-0.011719-9.418 3.0273-11.223 7.6484l-25.832 64.809c-1.1836 2.957-0.81641 6.3086 0.97266 8.9453 1.7891 2.6328 4.7734 4.207 7.957 4.1992h121.46c3.1875 0.007813 6.168-1.5664 7.9609-4.1992 1.7891-2.6367 2.1523-5.9883 0.97266-8.9453zm-58.168-17.145c-1.0234 1.5078-2.4414 2.7109-4.0938 3.4805-1.6055 0.75391-3.332 1.2188-5.0977 1.375v2.4258c0.007813 0.61719-0.22656 1.2109-0.66016 1.6484-0.45312 0.43359-1.0586 0.66797-1.6836 0.65625-0.59766 0.015625-1.1797-0.20312-1.6211-0.61328-0.44922-0.44531-0.69531-1.0586-0.67969-1.6914v-2.4258c-3.0156-0.26563-5.9727-1-8.7578-2.1758-0.53906-0.22266-0.99609-0.59766-1.3242-1.0781-0.78906-1.1172-0.69141-2.6328 0.23828-3.6367 0.85938-0.86328 2.1641-1.1094 3.2812-0.61328 2.0781 0.92578 4.293 1.5039 6.5625 1.7109v-8.9297c-1.6211-0.43359-3.207-0.98828-4.7461-1.6562-1.5234-0.67969-2.8672-1.7109-3.9102-3.0078-1.1172-1.4531-1.6953-3.2461-1.6328-5.0781-0.011719-1.7148 0.4375-3.4023 1.3008-4.8867 0.92969-1.5547 2.2578-2.8359 3.8438-3.707 1.5938-0.875 3.3398-1.4297 5.1445-1.6406v-2.4102c-0.019531-0.94922 0.54297-1.8125 1.418-2.1797s1.8828-0.16016 2.5469 0.51953c0.44141 0.4375 0.6875 1.0391 0.67969 1.6602v2.3359c2.543 0.14453 5.0508 0.66016 7.4414 1.5352 1.168 0.37109 1.9375 1.4805 1.8828 2.7031 0 0.70703-0.25391 1.3945-0.71875 1.9258-0.73047 0.97266-2.0625 1.2617-3.1289 0.67578-1.7773-0.60938-3.625-0.98828-5.4961-1.125v9.293c1.6914 0.40234 3.3477 0.92969 4.9609 1.582 1.5664 0.65625 2.9492 1.6914 4.0195 3.0117 1.1719 1.5508 1.7656 3.457 1.6836 5.3984 0.011719 1.7461-0.49609 3.457-1.457 4.918z"/>
  <path d="m477.04 403.86v7.6914c4.168-0.56641 4.6758-2.6641 4.6758-4.2461 0.019531-0.84375-0.44141-1.625-1.1953-2.0117-1.0977-0.61328-2.2656-1.0938-3.4805-1.4336z"/>
  <path d="m544.04 497.31c0.95312 0.625 1.9961 1.1016 3.0938 1.418v-7.8438c-1.0664 0.20703-2.0742 0.65625-2.9414 1.3086-0.85547 0.64062-1.3438 1.6562-1.3125 2.7188-0.058593 0.94922 0.38281 1.8555 1.1602 2.3984z"/>
  <path d="m551.79 506.19v7.6836c4.168-0.56641 4.6719-2.6641 4.6719-4.2422l-0.003907 0.003907c0.019531-0.84766-0.44531-1.6289-1.1992-2.0156-1.0938-0.61328-2.2617-1.0938-3.4688-1.4297z"/>
  <path d="m619.16 531.97-25.832-64.809c-1.8281-4.6133-6.3047-7.6328-11.266-7.6016h-65.176c-4.9531-0.027344-9.4102 2.9922-11.223 7.6016l-25.832 64.809c-1.1797 2.9609-0.81641 6.3125 0.97266 8.9453 1.793 2.6367 4.7734 4.2109 7.9609 4.1992h121.46c3.1875 0.011718 6.1719-1.5625 7.9609-4.1992 1.7891-2.6328 2.1562-5.9844 0.97266-8.9453zm-58.168-17.129c-1.0312 1.5156-2.457 2.7148-4.1211 3.4766-1.6016 0.75391-3.3242 1.2188-5.0898 1.375v2.4258c0.015625 0.61719-0.22656 1.2109-0.66406 1.6445-0.44922 0.43359-1.0547 0.67188-1.6797 0.66016-0.60156 0.011719-1.1875-0.21094-1.625-0.62109-0.44922-0.44531-0.69531-1.0547-0.67969-1.6836v-2.4258c-3.0156-0.26562-5.9688-1-8.7578-2.1758-0.53516-0.21875-0.99609-0.59375-1.3164-1.0781-0.34766-0.48438-0.53125-1.0625-0.53125-1.6562-0.011719-0.73438 0.26562-1.4453 0.76953-1.9805 0.86719-0.87891 2.1953-1.1172 3.3125-0.59375 2.0781 0.92187 4.293 1.4961 6.5547 1.7031v-8.9336c-1.6172-0.4375-3.2031-0.99219-4.7383-1.6602-1.5273-0.67969-2.8711-1.7148-3.918-3.0195-1.1172-1.4453-1.6914-3.2383-1.6289-5.0625-0.011719-1.7188 0.4375-3.4062 1.3008-4.8945 0.91797-1.5469 2.2305-2.8281 3.8047-3.7031 1.5898-0.87891 3.3398-1.4375 5.1445-1.6406v-2.4102c-0.019531-0.94531 0.54297-1.8125 1.418-2.1758 0.875-0.36719 1.8867-0.16406 2.5469 0.51563 0.44531 0.4375 0.69141 1.0391 0.68359 1.6602v2.3203c2.543 0.14062 5.0508 0.65625 7.4414 1.5312 1.168 0.375 1.9375 1.4805 1.8828 2.7031 0 0.71094-0.25781 1.3984-0.72656 1.9336-0.73438 0.96484-2.0625 1.25-3.125 0.66406-1.7656-0.60938-3.6094-0.98438-5.4727-1.1172v9.2891c1.6875 0.40625 3.3438 0.93359 4.957 1.582 1.5664 0.65625 2.9531 1.6914 4.0234 3.0117 1.1797 1.5508 1.7773 3.4648 1.6953 5.4141 0.011719 1.75-0.5 3.4648-1.4688 4.9219z"/>
  <path d="m402.29 506.19v7.6836c4.168-0.56641 4.6719-2.6641 4.6719-4.2422v0.003907c0.027343-0.84766-0.4375-1.6328-1.1914-2.0156-1.1016-0.60938-2.2695-1.0898-3.4805-1.4297z"/>
  <path d="m397.65 498.73v-7.8438c-1.0664 0.21094-2.0742 0.66016-2.9453 1.3125-0.85156 0.63672-1.3398 1.6523-1.3086 2.7148-0.058594 0.94531 0.37891 1.8516 1.1602 2.3906 0.95312 0.62891 1.9961 1.1094 3.0938 1.4258z"/>
  <path d="m469.66 531.97-25.832-64.809c-1.8086-4.6094-6.2656-7.6289-11.219-7.6016h-65.223c-4.9492-0.027344-9.4102 2.9922-11.219 7.6016l-25.832 64.809c-1.1836 2.9609-0.82031 6.3125 0.97266 8.9453 1.7891 2.6367 4.7734 4.2109 7.957 4.1992h121.46c3.1875 0.011718 6.168-1.5625 7.9609-4.1992 1.7891-2.6328 2.1523-5.9844 0.96875-8.9453zm-58.168-17.129h0.003906c-1.0352 1.5117-2.4609 2.7148-4.125 3.4766-1.6016 0.75391-3.3242 1.2188-5.0859 1.375v2.4258c0.011719 0.61719-0.22656 1.2109-0.66406 1.6445-0.44922 0.4375-1.0547 0.67578-1.6836 0.66016-0.59766 0.011719-1.1797-0.20703-1.6172-0.61719-0.45703-0.44141-0.70312-1.0547-0.67969-1.6875v-2.4258c-3.0156-0.26562-5.9727-1-8.7617-2.1758-0.53516-0.22266-0.99609-0.59766-1.3203-1.0781-0.78906-1.1133-0.69141-2.6328 0.23828-3.6367 0.86328-0.86719 2.1758-1.1094 3.293-0.60938 2.0742 0.92578 4.2891 1.5 6.5508 1.707v-8.9336c-1.6211-0.4375-3.207-0.99219-4.7461-1.6602-1.5156-0.67969-2.8477-1.7109-3.8867-3.0078-1.1211-1.4453-1.6992-3.2344-1.6367-5.0625-0.011719-1.7188 0.4375-3.4062 1.3008-4.8945 0.92969-1.5547 2.2539-2.832 3.8438-3.7031 1.5898-0.87891 3.3398-1.4336 5.1484-1.6406v-2.4102c-0.019531-0.94531 0.54297-1.8125 1.418-2.1758 0.875-0.36719 1.8828-0.16406 2.5469 0.51563 0.4375 0.44141 0.68359 1.0391 0.67969 1.6602v2.3203c2.543 0.14062 5.0508 0.65625 7.4414 1.5312 1.1641 0.375 1.9375 1.4805 1.8828 2.7031 0 0.71094-0.25391 1.3945-0.71875 1.9297-0.50781 0.59766-1.2578 0.93359-2.043 0.91406-0.37891-0.011719-0.74609-0.10156-1.0898-0.25391-1.7773-0.61328-3.625-0.98828-5.4961-1.1172v9.2891-0.003906c1.6875 0.40625 3.3477 0.9375 4.9609 1.5859 1.5664 0.65625 2.9492 1.6875 4.0195 3.0078 1.1797 1.5547 1.7812 3.4727 1.6953 5.4258 0.011718 1.75-0.5 3.4648-1.4648 4.9219z"/>
  <path d="m248.17 498.73v-7.8438c-1.0703 0.20703-2.0781 0.66016-2.9492 1.3125-0.85156 0.64063-1.3398 1.6523-1.3086 2.7148-0.0625 0.94922 0.37891 1.8555 1.1641 2.3906 0.95312 0.63281 1.9961 1.1133 3.0938 1.4258z"/>
  <path d="m252.81 506.19v7.6836c4.168-0.57422 4.6758-2.6641 4.6758-4.2422v0.003907c0.019531-0.84766-0.44531-1.6289-1.1992-2.0156-1.0977-0.60938-2.2656-1.0898-3.4766-1.4297z"/>
  <path d="m320.17 531.97-25.832-64.809c-1.8086-4.6094-6.2695-7.6289-11.223-7.6016h-65.172c-4.9648-0.03125-9.4375 2.9883-11.27 7.6016l-25.832 64.809c-1.1797 2.9609-0.81641 6.3125 0.97266 8.9453 1.793 2.6367 4.7734 4.2109 7.9609 4.1992h121.46c3.1836 0.011718 6.168-1.5625 7.957-4.1992 1.7891-2.6328 2.1562-5.9844 0.97266-8.9453zm-58.168-17.129c-1.0312 1.5117-2.457 2.7148-4.1211 3.4766-1.6016 0.75391-3.3242 1.2188-5.0898 1.375v2.4258c0.011719 0.61719-0.22656 1.2109-0.66406 1.6445-0.92578 0.86328-2.3555 0.88281-3.3008 0.042969-0.45312-0.44141-0.69922-1.0547-0.67969-1.6875v-2.4258c-3.0156-0.26172-5.9727-0.99609-8.7617-2.1758-0.53516-0.22266-0.99609-0.59766-1.3242-1.0781-0.78906-1.1133-0.6875-2.6328 0.24609-3.6367 0.85937-0.86719 2.1719-1.1133 3.2852-0.60938 2.0781 0.92188 4.293 1.5 6.5547 1.707v-8.9336c-1.6211-0.4375-3.207-0.99219-4.75-1.6602-1.5195-0.6875-2.8594-1.7188-3.9102-3.0195-1.1172-1.4492-1.6914-3.2383-1.6289-5.0664-0.011719-1.7148 0.4375-3.4023 1.3008-4.8867 0.92578-1.5547 2.2539-2.832 3.8398-3.707 1.5938-0.87891 3.3438-1.4375 5.1484-1.6406v-2.4102c-0.039062-0.95703 0.51953-1.8398 1.4023-2.2109 0.88281-0.37109 1.9062-0.15234 2.5625 0.54687 0.44141 0.44141 0.68359 1.0391 0.67969 1.6641v2.3164c2.543 0.14453 5.0469 0.66016 7.4375 1.5352 1.168 0.36719 1.9414 1.4766 1.8828 2.7031 0.003906 0.70703-0.25391 1.3945-0.71875 1.9258-0.73047 0.96875-2.0586 1.25-3.1211 0.66797-1.7773-0.60937-3.625-0.98437-5.4961-1.1172v9.2891c1.6875 0.40625 3.3438 0.93359 4.9531 1.5859 1.5703 0.65234 2.9531 1.6875 4.0234 3.0078 1.1875 1.5547 1.7969 3.4727 1.7227 5.4297 0.011719 1.75-0.5 3.4648-1.4688 4.9219z"/>
 </g>
</svg>