<?xml version="1.0" encoding="UTF-8"?>
<!-- The Best Svg Icon site in the world: iconSvg.co, Visit us! https://iconsvg.co -->
<svg fill="#000000" width="800px" height="800px" version="1.1" viewBox="144 144 512 512" xmlns="http://www.w3.org/2000/svg">
 <g>
  <path d="m171.71 596.8h47.23v31.488c0 2.0859 0.82812 4.0898 2.3047 5.5664 1.4766 1.4727 3.4805 2.3047 5.5664 2.3047h31.488c2.0898 0 4.0898-0.83203 5.5664-2.3047 1.4766-1.4766 2.3086-3.4805 2.3086-5.5664v-31.488h47.23c2.0859 0 4.0898-0.83203 5.5664-2.3086 1.4766-1.4766 2.3047-3.4766 2.3047-5.5664v-94.465c0-2.0859-0.82812-4.0898-2.3047-5.5664-1.4766-1.4727-3.4805-2.3047-5.5664-2.3047h-141.7c-4.3477 0-7.875 3.5234-7.875 7.8711v94.465c0 2.0898 0.83203 4.0898 2.3086 5.5664 1.4766 1.4766 3.4766 2.3086 5.5664 2.3086zm102.34-94.465h31.488v15.742h-31.488zm0 31.488h31.488v15.742h-31.488zm0 31.488h31.488v15.742h-31.488zm-23.617 55.105-15.742-0.003907v-23.613h15.742zm-23.617-118.08h31.488v15.742h-31.488zm0 31.488h31.488v15.742h-31.488zm0 31.488h31.488v15.742h-31.488zm-47.23-62.977h31.488v15.742h-31.488zm0 31.488h31.488v15.742h-31.488zm0 31.488h31.488v15.742h-31.488z"/>
  <path d="m236.39 462.98c1.0508 0 2.0898-0.21094 3.0547-0.625l135.63-57.215-6.5586 222.92c-0.0625 2.1289 0.73828 4.1875 2.2227 5.7148 1.4844 1.5273 3.5195 2.3867 5.6484 2.3867h47.23c2.1289 0 4.168-0.85938 5.6484-2.3867 1.4844-1.5273 2.2852-3.5859 2.2266-5.7148l-6.5586-222.92 135.66 57.215c0.96484 0.41406 2.0078 0.625 3.0547 0.625 3.3906 0 6.3984-2.1719 7.4688-5.3828 1.0742-3.2148-0.035156-6.7539-2.7422-8.7891l-138.94-105.15-21.617-172.92c-0.5-3.9336-3.8477-6.8789-7.8086-6.8789-3.9648 0-7.3086 2.9453-7.8086 6.8789l-21.617 172.92-138.94 105.15c-2.7109 2.0352-3.8164 5.5742-2.7461 8.7891 1.0703 3.2109 4.0781 5.3828 7.4688 5.3828zm148.11 157.44 6.5352-221.99 8.9727-3.8086 8.9727 3.7852 6.5352 222.02zm46.586-255.77 77.578 58.727-89.633-37.785c6.6641-5.082 11.008-12.629 12.055-20.941zm-31.078-129.47 12.051 96.395v-0.003906c-7.7109-3.2227-16.395-3.2227-24.105 0zm-15.195 121.53c0.67578-2.6875 2.0547-5.1484 3.9922-7.1328l3.3281-2.4727c2.3828-1.4414 5.1133-2.2031 7.8984-2.2031 2.7812 0 5.5117 0.76172 7.8945 2.2031l3.3047 2.5039c1.9375 1.9844 3.3164 4.4453 3.9922 7.1328l0.52734 4.1719c-0.10938 5.5547-3.1406 10.641-7.9727 13.383l-3.4023 1.4336c-2.8164 0.90625-5.8438 0.90625-8.6602 0l-3.4023-1.4336h0.003906c-4.8633-2.7227-7.9258-7.8125-8.0547-13.383zm-15.887 7.8711c1.0586 8.3008 5.3984 15.832 12.055 20.91l-89.609 37.887z"/>
  <path d="m628.29 486.59h-141.7c-4.3477 0-7.8711 3.5234-7.8711 7.8711v94.465c0 2.0898 0.82812 4.0898 2.3047 5.5664 1.4766 1.4766 3.4805 2.3086 5.5664 2.3086h47.23v31.488h0.003907c0 2.0859 0.82812 4.0898 2.3047 5.5664 1.4766 1.4727 3.4766 2.3047 5.5664 2.3047h31.488c2.0859 0 4.0898-0.83203 5.5664-2.3047 1.4766-1.4766 2.3047-3.4805 2.3047-5.5664v-31.488h47.234c2.0859 0 4.0898-0.83203 5.5664-2.3086 1.4727-1.4766 2.3047-3.4766 2.3047-5.5664v-94.465c0-2.0859-0.83203-4.0898-2.3047-5.5664-1.4766-1.4727-3.4805-2.3047-5.5664-2.3047zm-102.34 94.465h-31.488v-15.742h31.488zm0-31.488h-31.488v-15.742h31.488zm0-31.488h-31.488v-15.742h31.488zm39.359 102.34h-15.742v-23.613h15.742zm7.8711-39.359h-31.484v-15.742h31.488zm0-31.488h-31.484v-15.742h31.488zm0-31.488h-31.484v-15.742h31.488zm47.23 62.977h-31.484v-15.742h31.488zm0-31.488h-31.484v-15.742h31.488zm0-31.488h-31.484v-15.742h31.488z"/>
 </g>
</svg>