<?xml version="1.0" encoding="UTF-8"?>
<!-- The Best Svg Icon site in the world: iconSvg.co, Visit us! https://iconsvg.co -->
<svg fill="#000000" width="800px" height="800px" version="1.1" viewBox="144 144 512 512" xmlns="http://www.w3.org/2000/svg">
 <g>
  <path d="m279.91 383.78c-39.871 0-72.312 32.434-72.312 72.309 0 39.871 32.434 72.309 72.312 72.309 39.867 0 72.301-32.434 72.301-72.309s-32.434-72.309-72.301-72.309zm0 129.49c-31.539 0-57.199-25.652-57.199-57.191s25.66-57.188 57.199-57.188c31.535 0 57.188 25.652 57.188 57.191 0 31.539-25.656 57.188-57.188 57.188z"/>
  <path d="m288.59 452.41-12.211-4.0352c-1.8828-0.60547-9.5156-3.3242-8.7109-10.863 0.31641-2.875 1.1523-5.082 3.4609-6.6055 1.875-1.1992 4.1953-1.8047 6.9727-1.8047 4.6992 0 7.8945 0.78906 9.9844 3.5 1.1484 1.5703 1.5273 2.7188 1.8477 5.4297 0 0 0.35937 4.4727 5.7148 4.4727s6.1875-4.2617 6.2812-5.0273c0.48047-3.4766-1.4102-9.2891-4.0508-12.734-3.0312-4-7.3555-6.4102-12.594-7.4375v-5.5469c0-2.9766-2.4141-5.4023-5.3867-5.4023-2.9922 0-5.4023 2.4219-5.4023 5.4023v5.2617c-6.2734 0.80469-11.039 3.3359-14.262 7.6445-2.8203 3.793-7.5156 11.113-2.6992 23.754 4.1562 10.906 24.027 14.398 24.027 14.398 3.6914 0.90234 10.781 2.3242 10.801 10.871 0.003906 3.3086-2.0391 9.7539-12.617 9.7539-4.9219 0-11.922-2.1875-11.922-11.098 0 0 0.085938-4.6602-5.7227-4.6602-5.8203 0-6.2773 4.6602-6.2773 4.6602 0 5.8945 0.86328 10.062 3.9453 14.09 4.625 6.125 10.312 8.2617 14.73 9.0039v4.9375c0 2.9883 2.4141 5.3945 5.4023 5.3945 2.9766 0 5.3867-2.4102 5.3867-5.3945v-4.9883c13.852-2.3945 19.059-15.211 19.059-23.328 0-5.8945-2.1562-14.969-15.758-19.648z"/>
  <path d="m583.74 385.61-22.758-79.324c-11.512-40.129-36.988-59.402-75.734-57.414-36.27 1.8984-53.582 28.828-59.203 47.02h-56.508c-6.7344-36.988-44.688-47.047-65.062-47.047h-0.13281c-35.395 0-58.27 18.758-69.93 57.332-6.0742 20.102-17.227 55.211-27.137 86.156-14.988 17.051-24.152 39.324-24.152 63.746 0 53.352 43.41 96.766 96.766 96.766 53.352 0 96.758-43.41 96.758-96.766 0-8.9492-1.3203-17.578-3.6016-25.809 0.24219-0.73438 0.40234-1.5078 0.40234-2.3281 0-13.359 10.867-24.227 24.234-24.227 13.34 0 24.199 10.844 24.223 24.184-2.2773 8.2266-3.5977 16.848-3.5977 25.789 0 53.352 43.41 96.766 96.766 96.766 53.352 0 96.758-43.41 96.758-96.766 0.003907-26.523-10.742-50.582-28.09-68.078zm-334.86-75.055c9.7383-32.223 26.844-46.594 55.465-46.594 1.9766 0.003907 48.336 0.55859 51.027 40.004 0.011718 0.14453 0.054687 0.28906 0.074218 0.43359 0.039063 0.30078 0.085938 0.60547 0.15625 0.89844 0.046876 0.15625 0.097657 0.30078 0.14063 0.45312 0.11719 0.36328 0.25781 0.71875 0.42187 1.0547 0.023438 0.046875 0.050782 0.089844 0.074219 0.13672 0.88672 1.6875 2.3789 2.9883 4.2031 3.6211 0.089844 0.03125 0.17969 0.054687 0.27344 0.085937 0.32812 0.10156 0.66016 0.1875 1.0039 0.24219 0.23047 0.039062 0.46484 0.054687 0.69922 0.070312 0.16016 0.011719 0.32422 0.050781 0.49219 0.050781h69c3.6719 0 6.7344-2.6289 7.4102-6.1055 0.003907-0.015625 0.011719-0.03125 0.015626-0.046875 0.30859-1.582 7.9414-38.859 46.707-40.891 31.699-1.6328 50.844 13.113 60.422 46.488l17.109 59.637c-14.277-8.3125-30.812-13.16-48.492-13.16-30.59 0-57.863 14.309-75.613 36.543v-39.336c0-0.039063-0.019531-0.074219-0.019531-0.11719 0-0.066406 0.019531-0.125 0.019531-0.19531 0-4.1758-3.3867-7.5586-7.5586-7.5586l-68.453-0.003906c-3.6172 0-6.6289 2.543-7.375 5.9336-0.45703 0.58984-0.73438 1.2383-0.73438 1.9297v41.535c-17.746-22.121-44.953-36.34-75.457-36.34-18.676 0-36.066 5.4062-50.875 14.605 7.707-24.184 15.246-48.094 19.863-63.375zm31.016 227.18c-45.027 0-81.652-36.625-81.652-81.652 0-45.02 36.633-81.648 81.652-81.648s81.641 36.625 81.641 81.648c0.003906 45.023-36.621 81.652-81.641 81.652zm117.79-149.13c-10.566 0-20.148 4.207-27.223 11.004v-38.23h53.887v37.727c-7.0234-6.4961-16.371-10.5-26.664-10.5zm117.39 146.74c-45.027 0-81.652-36.625-81.652-81.652 0-45.02 36.633-81.648 81.652-81.648s81.641 36.625 81.641 81.648c0.003906 45.027-36.625 81.652-81.641 81.652z"/>
  <path d="m515.09 381.38c-39.871 0-72.312 32.434-72.312 72.309 0 39.871 32.434 72.309 72.312 72.309 39.867 0 72.301-32.434 72.301-72.309s-32.434-72.309-72.301-72.309zm0 129.49c-31.539 0-57.199-25.652-57.199-57.191 0-31.539 25.66-57.191 57.199-57.191 31.535 0 57.188 25.652 57.188 57.191 0 31.539-25.656 57.191-57.188 57.191z"/>
  <path d="m523.77 450.02-12.211-4.0352c-1.8828-0.60547-9.5156-3.3242-8.7109-10.863 0.31641-2.875 1.1523-5.082 3.4609-6.6055 1.875-1.1992 4.1953-1.8047 6.9727-1.8047 4.6992 0 7.8945 0.78906 9.9844 3.5 1.1484 1.5703 1.5273 2.7188 1.8477 5.4297 0 0 0.35938 4.4727 5.7148 4.4727s6.1875-4.2617 6.2812-5.0273c0.48047-3.4766-1.4102-9.2891-4.0508-12.734-3.0312-4-7.3555-6.4102-12.594-7.4375v-5.5469c0-2.9766-2.4141-5.4023-5.3867-5.4023-2.9922 0-5.4023 2.4219-5.4023 5.4023v5.2617c-6.2734 0.80469-11.039 3.3359-14.262 7.6445-2.8203 3.793-7.5156 11.113-2.6992 23.754 4.1562 10.906 24.027 14.398 24.027 14.398 3.6914 0.90234 10.781 2.3242 10.801 10.871 0.003907 3.3086-2.0391 9.7539-12.617 9.7539-4.9219 0-11.922-2.1875-11.922-11.098 0 0 0.085938-4.6602-5.7227-4.6602-5.8203 0-6.2773 4.6602-6.2773 4.6602 0 5.8945 0.86328 10.062 3.9453 14.09 4.625 6.125 10.312 8.2617 14.73 9.0039v4.9375c0 2.9883 2.4141 5.3945 5.4023 5.3945 2.9766 0 5.3867-2.4102 5.3867-5.3945v-4.9883c13.852-2.3945 19.059-15.211 19.059-23.328 0-5.8945-2.1523-14.969-15.758-19.648z"/>
 </g>
</svg>