<?xml version="1.0" encoding="UTF-8"?>
<!-- The Best Svg Icon site in the world: iconSvg.co, Visit us! https://iconsvg.co -->
<svg width="800px" height="800px" version="1.1" viewBox="144 144 512 512" xmlns="http://www.w3.org/2000/svg">
 <defs>
  <clipPath id="a">
   <path d="m233 148.09h334v503.81h-334z"/>
  </clipPath>
 </defs>
 <g clip-path="url(#a)">
  <path d="m566.21 573.97-8.7773-88.164c-0.43359-4.3281-4.293-7.4805-8.6172-7.0469-4.3281 0.43359-7.4805 4.293-7.0469 8.6211l8.8164 88.168v-0.003906c1.5586 15.504-3.5195 30.941-13.973 42.492-10.457 11.551-25.316 18.137-40.895 18.125h-191.45c-15.57 0-30.418-6.5898-40.867-18.141-10.445-11.547-15.516-26.98-13.961-42.477l15.391-153.93c2.668-25.742 12.449-50.238 28.246-70.738 15.801-20.504 36.996-36.203 61.211-45.34h91.41c24.215 9.1367 45.41 24.836 61.211 45.34 15.801 20.5 25.578 44.996 28.246 70.738l3.3867 34.277c0.40234 4.0234 3.7891 7.0859 7.832 7.0859 0.26172 0 0.52734-0.011718 0.78516-0.042968 2.0859-0.19922 4.0039-1.2188 5.332-2.832 1.3281-1.6172 1.9609-3.6953 1.7539-5.7773l-3.4258-34.273 0.003906-0.003906c-5.2812-50.91-35.289-95.957-80.242-120.44 4.4688-3.8594 7.3203-9.2617 7.9844-15.133 0.66406-5.8672-0.90234-11.77-4.3945-16.535-3.4922-4.7617-8.6484-8.0391-14.445-9.1719l26.074-52.051c0.93359-1.8672 1.0859-4.0312 0.42578-6.0117-0.66406-1.9805-2.0859-3.6172-3.9531-4.5508-9.8633-4.9375-21.086-6.4766-31.914-4.375l4.543-18.152v-0.003906c0.53516-2.2227 0.066406-4.5703-1.293-6.4141-0.19141-0.40234-0.45703-0.76172-0.78516-1.0625-14.715-12.449-33.578-18.895-52.828-18.051-2.2734 0-4.457 0.078125-6.582 0.21094-13.141 0.90234-25.195 7.6016-32.906 18.281-5.4336 7.4414-8.5234 16.336-8.8711 25.543-11.406-2.6602-23.383-1.2344-33.852 4.0234-1.8672 0.93359-3.2891 2.5703-3.9492 4.5508-0.66406 1.9805-0.50781 4.1445 0.42578 6.0117l26.031 52.051c-5.7969 1.1328-10.953 4.4102-14.445 9.1719-3.4883 4.7656-5.0586 10.668-4.3945 16.535 0.66406 5.8711 3.5156 11.273 7.9844 15.133-44.949 24.484-74.961 69.531-80.238 120.44l-15.422 153.92c-2.0039 19.926 4.5195 39.766 17.949 54.613 13.434 14.848 32.52 23.32 52.543 23.32h191.45c20.023 0 39.109-8.4727 52.543-23.32 13.434-14.848 19.953-34.688 17.949-54.613zm-214.98-365.61 2.8164 0.9375 6.8242 27.301 0.003906-0.003906c0.87891 3.5039 4.0234 5.9609 7.6367 5.9609 0.64453 0.003906 1.2852-0.078125 1.9102-0.23828 2.0273-0.50391 3.7695-1.793 4.8438-3.5859 1.0781-1.7891 1.3945-3.9336 0.88672-5.9609l-7.8711-31.488c-2.2109-8.793-0.39453-18.113 4.9531-25.434 4.9414-6.9414 12.75-11.277 21.254-11.809 1.7773-0.11719 3.6289-0.17969 5.5117-0.17969 13.602-0.42578 27.004 3.3633 38.375 10.848l-14.523 58.062c-0.50781 2.0273-0.1875 4.1719 0.88672 5.9609 1.0742 1.793 2.8164 3.082 4.8438 3.5859 0.62109 0.16016 1.2617 0.23828 1.9062 0.23828 3.6055-0.003906 6.75-2.4609 7.625-5.9609l6.8242-27.301 2.8164-0.9375 0.003906 0.003906c6.125-2.0586 12.703-2.3516 18.988-0.84375l-25.379 50.781h-84.734l-25.391-50.781c6.2852-1.5078 12.863-1.2148 18.988 0.84375zm-6.3359 65.684h110.21c4.3477 0 7.875 3.5234 7.875 7.8711 0 4.3477-3.5273 7.8711-7.875 7.8711h-110.21c-4.3477 0-7.8711-3.5234-7.8711-7.8711 0-4.3477 3.5234-7.8711 7.8711-7.8711z"/>
 </g>
 <path d="m346.47 544.84c-2.6094 3.4766-1.9023 8.4141 1.5742 11.02 23.086 17.324 53.289 22.008 80.539 12.484 27.246-9.5195 47.961-31.992 55.234-59.926 7.2695-27.934 0.14844-57.656-19-79.254-19.145-21.602-47.797-32.242-76.398-28.375-28.605 3.8672-53.402 21.73-66.125 47.641-12.727 25.906-11.703 56.453 2.7227 81.453 0.99609 1.9023 2.7227 3.3125 4.7852 3.9102 2.0586 0.59766 4.2734 0.33203 6.1328-0.74219 1.8555-1.0742 3.1953-2.8594 3.707-4.9453 0.50781-2.082 0.14453-4.2852-1.0039-6.0938-11.84-20.453-12.707-45.457-2.3203-66.684 10.391-21.227 30.672-35.879 54.086-39.078 23.41-3.1953 46.879 5.4805 62.578 23.145 15.699 17.66 21.566 41.984 15.648 64.863-5.9219 22.879-22.852 41.301-45.148 49.129s-47.027 4.0352-65.953-10.121c-1.6719-1.2656-3.7812-1.8125-5.8555-1.5156-2.0781 0.29688-3.9492 1.4062-5.2031 3.0898z"/>
 <path d="m400.46 510.21h-16.211c-4.3477 0-7.8711 3.5234-7.8711 7.8711s3.5234 7.8711 7.8711 7.8711h16.211c8.4336-0.082031 16.188-4.6602 20.336-12.008 4.1445-7.3477 4.0547-16.352-0.23438-23.617-4.2891-7.2656-12.129-11.688-20.566-11.605-4.3477 0-7.875-3.5234-7.875-7.8711s3.5273-7.8711 7.875-7.8711h16.207c4.3477 0 7.8711-3.5273 7.8711-7.875 0-4.3477-3.5234-7.8711-7.8711-7.8711h-16.207c-8.4375 0.082031-16.191 4.6602-20.336 12.008-4.1484 7.3516-4.0586 16.352 0.23047 23.617 4.2891 7.2656 12.133 11.691 20.57 11.605 4.3477 0 7.8711 3.5273 7.8711 7.875 0 4.3477-3.5234 7.8711-7.8711 7.8711z"/>
</svg>