<?xml version="1.0" encoding="UTF-8"?>
<!-- The Best Svg Icon site in the world: iconSvg.co, Visit us! https://iconsvg.co -->
<svg fill="#000000" width="800px" height="800px" version="1.1" viewBox="144 144 512 512" xmlns="http://www.w3.org/2000/svg">
 <g>
  <path d="m619.43 354.44c-1.8242-1.4609-5.7383-2.1406-20.309-4.0703-10.328-1.3672-24.465-3.2383-28.27-5.2852-6.1016-3.2891-32.082-26.648-41.57-35.352-0.10547-0.12109-2.4844-3.293 2.6367-23.469 2.7422-10.793 6.2422-20.895 6.2773-21 0.61328-1.7734-0.31641-3.7148-2.0898-4.3281-15.324-5.3516-28.598-4.7422-39.438 1.8086-15.684 9.4766-21.504 28.539-23.277 36.344-14.082-2.4102-69.797-11.941-94.312-16.086 0.023437-0.71094 0.050781-1.4258 0.050781-2.1445 0-30.676-24.957-55.637-55.637-55.637-30.676 0-55.637 24.957-55.637 55.637 0 4.0742 0.44922 8.1055 1.3164 12.047-17.062 6.0625-32.109 13.941-44.594 23.332-0.082031-0.054687-0.15234-0.10938-0.23828-0.15625-6.5078-3.4219-16.445-9.5977-20.824-17.266 10.559 4.707 15.766 0.054688 17.707-2.5586 5.1484-6.9375 3.4102-20.262-3.332-25.457-1.9453-1.5-8.9375-5.582-17.289 4.8477-2.5352 3.1641-4.2891 6.3945-5.2461 9.6367-4.5859-3.8789-9.6641-9.0234-15.164-15.352-1.2344-1.4219-3.3867-1.5703-4.8047-0.33594-1.4219 1.2344-1.5703 3.3789-0.33594 4.8008 7.1875 8.2773 13.766 14.664 19.574 19.016 1.3516 12.035 13.301 21.348 24.203 27.426-5.6641 4.793-10.727 9.9062-15.09 15.336-18.715 23.301-25.262 51.844-19.461 84.816 7.0938 40.34 27.188 71.512 59.715 92.711l-8.9414 32.047c0 0.011718-0.003906 0.015625-0.011719 0.023437-3.3867 12.133 3.7266 24.758 15.859 28.148 2.0391 0.57031 4.1172 0.85547 6.1836 0.85547 3.8789 0 7.707-0.99609 11.18-2.9531 5.3164-2.9961 9.1484-7.8828 10.793-13.758 0-0.015625 0-0.023438 0.003907-0.035156l6.9219-24.781c26.312 8.3984 54.922 11.715 82.57 11.715 36.484 0 71.289-5.7539 96.863-13.129 4.3672-1.2578 8.6914-2.625 12.898-4.082l8.457 30.266c0.003906 0.015625 0.003906 0.03125 0.011719 0.046875 2.8164 10.09 12.016 16.707 22.012 16.707 2.0234 0 4.0977-0.27734 6.1367-0.84766 12.125-3.3906 19.246-16.012 15.859-28.137v-0.003906l-10.41-37.301c38.938-22.887 58.195-50.742 65.52-61.363 0.95703-1.3789 1.7188-2.4805 2.2734-3.2227 0.58594-0.76562 1.2109-1.5781 1.8984-2.4141 1.9688-2.4102 4.3672-5.1133 6.9062-7.9805 7.4023-8.3516 16.617-18.746 23.312-30.883 10.434-18.934 3.6016-44.617-0.85938-48.18zm-418.05-64.598c0.32422-3.2383 1.8477-6.5742 4.543-9.9453 2.2031-2.7461 5.3398-5.6211 7.8203-3.7148 3.4922 2.6914 5.1797 11.75 2.0195 16.012-3.0703 4.1367-10.25 0.36328-14.383-2.3516zm122.11-57.812c26.922 0 48.828 21.906 48.828 48.828 0 1.6016-0.074219 3.168-0.22266 4.6641-1.1836 12.52-7.0391 23.879-16.531 32.156-0.14453-0.03125-0.29297-0.054687-0.4375-0.082031-0.34766-0.066406-0.69922-0.12109-1.0469-0.17969-0.45703-0.085937-0.92188-0.16016-1.3789-0.23828-0.33203-0.054687-0.66016-0.10547-0.99219-0.15234-1.8945-0.28906-3.7969-0.52734-5.7227-0.71875-0.10156-0.011719-0.19531-0.019532-0.29688-0.03125-0.67578-0.066407-1.3438-0.12109-2.0195-0.17578-0.085937-0.003906-0.17187-0.015625-0.25781-0.019531-1.0625-0.082031-2.125-0.15234-3.1953-0.20312 1.9062-2.9492 2.9766-6.4219 2.9766-10.07 0-10.227-8.3281-18.551-18.559-18.551h-2.3086c-6.4727 0-11.738-5.2695-11.738-11.75 0-6.4727 5.2656-11.742 11.738-11.742h15.156c1.8789 0 3.4062-1.5234 3.4062-3.4062 0-1.8789-1.5273-3.4023-3.4062-3.4023h-9.4531v-7.457c0-1.8789-1.5234-3.4023-3.4023-3.4023s-3.4062 1.5234-3.4062 3.4023v7.5117c-9.7148 0.57422-17.445 8.6367-17.445 18.488 0 10.23 8.3242 18.559 18.551 18.559h2.3086c6.4805 0 11.75 5.2656 11.75 11.742 0 4.1094-2.1523 7.875-5.6484 10.004-0.70703 0.019531-1.4141 0.054688-2.125 0.097657-0.57812 0.03125-1.1484 0.066406-1.7188 0.10156-1.3672 0.085938-2.7266 0.20312-4.0977 0.33203-0.21484 0.019531-0.43359 0.039063-0.64453 0.066407-1.2031 0.125-2.4102 0.26562-3.6133 0.42187-0.16016 0.019532-0.31641 0.046876-0.48438 0.066407-1.5273 0.21094-3.0586 0.44141-4.5938 0.71094-0.3125 0.054688-0.625 0.10547-0.93359 0.16016-0.98828 0.17969-1.9805 0.36719-2.9727 0.57031-0.80078 0.16797-1.5938 0.33203-2.3672 0.50781-0.64453 0.14453-1.2891 0.29297-1.9336 0.44141-1.1289 0.26562-2.2266 0.54297-3.3008 0.83203-0.3125 0.085937-0.62891 0.16016-0.94141 0.25-0.33594 0.089844-0.67578 0.1875-1.0078 0.28125-1.1016 0.30859-2.1719 0.625-3.2031 0.94141-0.054688 0.019531-0.10938 0.03125-0.17188 0.050781-9.8359-6.4805-16.965-16.188-20.152-27.504-1.2148-4.2969-1.832-8.7656-1.832-13.289 0.019531-26.906 21.926-48.812 48.848-48.812zm290.84 167.29c-6.3398 11.477-15.27 21.555-22.445 29.652-2.1367 2.4102-4.1562 4.6953-5.9453 6.8281-10.898-0.88281-25.035-4.2969-33.902-15.16-1.1836-1.457-3.3359-1.6758-4.793-0.48828-1.457 1.1836-1.668 3.3359-0.48438 4.793 9.1836 11.246 22.793 15.637 34.305 17.176-0.24609 0.35156-0.5 0.72656-0.76953 1.1172-7.2305 10.473-26.445 38.305-65.602 60.66-0.082032 0.050781-0.14062 0.10547-0.21484 0.15625-0.089844 0.058593-0.17969 0.11719-0.26562 0.1875-0.10156 0.082031-0.17578 0.17187-0.26562 0.26172-0.066406 0.070313-0.13281 0.13281-0.19531 0.20703-0.082032 0.10156-0.14453 0.20703-0.21484 0.31641-0.050782 0.082031-0.10156 0.14453-0.14062 0.23047-0.058594 0.10547-0.10547 0.22656-0.15234 0.33594-0.035156 0.089844-0.074219 0.17188-0.10547 0.26562-0.03125 0.11719-0.054687 0.23047-0.074218 0.34766-0.019532 0.10156-0.046876 0.19531-0.054688 0.29688-0.011719 0.12109-0.011719 0.24219-0.011719 0.36328 0 0.10547 0 0.19531 0.003907 0.29687 0.015624 0.125 0.039062 0.26172 0.070312 0.38281 0.015625 0.074219 0.015625 0.14453 0.039062 0.22266l11.113 39.824c2.3789 8.5156-2.6211 17.383-11.133 19.766-8.5039 2.3711-17.355-2.6055-19.754-11.109 0-0.011719 0-0.019531-0.003906-0.035156l-9.4531-33.816c-0.011719-0.039063-0.03125-0.074219-0.039063-0.10547-0.015625-0.046875-0.019531-0.089844-0.035156-0.13281-0.023437-0.070312-0.066406-0.125-0.097656-0.19531-0.054688-0.10547-0.10547-0.21484-0.15625-0.32422-0.050781-0.085937-0.10547-0.16797-0.16016-0.24609-0.070312-0.10547-0.14062-0.21094-0.23047-0.30859-0.058594-0.070313-0.11719-0.125-0.17969-0.19141-0.097656-0.097656-0.19141-0.17969-0.30859-0.26562-0.058593-0.050781-0.12109-0.089844-0.19141-0.13281-0.10938-0.082032-0.23828-0.15234-0.36328-0.21484-0.066406-0.03125-0.125-0.058594-0.19531-0.089844-0.13281-0.058594-0.27734-0.10547-0.41406-0.14453-0.070312-0.019531-0.13672-0.03125-0.20312-0.046875-0.15234-0.035156-0.29688-0.054688-0.44141-0.070312-0.074219-0.003907-0.14062-0.003907-0.22266-0.003907-0.14453 0-0.29297 0.003907-0.44141 0.019531-0.082031 0.011719-0.15234 0.023438-0.22656 0.039063-0.10156 0.019531-0.19141 0.023437-0.29297 0.050781-0.058594 0.015625-0.10547 0.046875-0.16016 0.066406-0.023438 0.011719-0.050781 0.011719-0.074219 0.019532-5.1328 1.8594-10.484 3.6016-15.922 5.1641-44.84 12.934-118.57 20.797-178.78 0.39844-0.015625-0.003906-0.03125-0.003906-0.046875-0.011719-0.046875-0.015625-0.085937-0.046875-0.13281-0.054687-0.11719-0.035157-0.23047-0.039063-0.35156-0.058594-0.066406-0.015625-0.13672-0.03125-0.20703-0.039063-0.15234-0.015625-0.30078-0.015625-0.45312-0.011719-0.070313 0.003907-0.14062 0-0.21484 0.003907-0.14062 0.015625-0.28906 0.046875-0.42188 0.074219-0.074218 0.015624-0.15234 0.03125-0.22656 0.050781-0.13281 0.046875-0.25781 0.10156-0.38281 0.15234-0.074219 0.03125-0.15234 0.058594-0.22656 0.10156-0.10938 0.058594-0.21484 0.125-0.32422 0.20312-0.074219 0.054688-0.15625 0.10547-0.22656 0.15625-0.097657 0.082031-0.17969 0.16016-0.26563 0.24609-0.070312 0.070312-0.14453 0.14062-0.21094 0.21484-0.074219 0.089843-0.13672 0.1875-0.20703 0.28906-0.058594 0.085938-0.12109 0.17188-0.17188 0.27344-0.054688 0.097656-0.10156 0.20312-0.14062 0.30859-0.03125 0.089844-0.082032 0.15625-0.10547 0.24219-0.011719 0.03125-0.011719 0.066406-0.019531 0.097656-0.003906 0.023437-0.023438 0.050781-0.03125 0.074219l-7.8828 28.234c0 0.011719 0 0.019531-0.003906 0.023437-1.1523 4.1211-3.8398 7.5469-7.5664 9.6445-3.7344 2.1016-8.0625 2.625-12.188 1.4766-8.5078-2.3828-13.504-11.234-11.133-19.746v-0.015625l9.6289-34.5c0.015626-0.054687 0.015626-0.10938 0.03125-0.16797 0.03125-0.11719 0.050782-0.24219 0.066407-0.36328 0.011719-0.10547 0.015625-0.21484 0.019531-0.32422 0-0.10547 0-0.21094-0.011719-0.31641-0.011719-0.12109-0.023437-0.24219-0.046875-0.35938-0.015625-0.089843-0.039062-0.17969-0.066406-0.27734-0.03125-0.11719-0.070312-0.23828-0.11719-0.35156-0.035156-0.085937-0.070312-0.17188-0.10937-0.25-0.054688-0.10938-0.11719-0.22266-0.1875-0.32812-0.050782-0.082031-0.10156-0.15234-0.15234-0.22266-0.082032-0.10547-0.17188-0.20703-0.26172-0.3125-0.054687-0.058594-0.10938-0.10938-0.17578-0.16797-0.10547-0.10156-0.22656-0.1875-0.35156-0.27734-0.035156-0.019531-0.066406-0.058593-0.10547-0.082031-32.098-20.148-51.871-50.266-58.773-89.512-13.094-74.434 43.012-107.11 80.055-120.36 3.4648 9.8203 9.6094 18.414 17.746 24.902-9.0625 3.4062-14.469 6.5508-14.742 6.7109-1.6211 0.95312-2.168 3.0312-1.2148 4.6562 0.62891 1.0781 1.7695 1.6836 2.9375 1.6836 0.58594 0 1.1758-0.15234 1.7188-0.46875 0.074219-0.046875 7.6289-4.4219 19.688-8.3047h0.011719c0.082031-0.023438 0.16797-0.050782 0.24609-0.074219 1.2305-0.39453 2.457-0.76172 3.6836-1.1133 0.35938-0.10156 0.71094-0.20703 1.0781-0.30859 0.066406-0.015625 0.125-0.035156 0.19141-0.054688 1.1523-0.32422 2.3164-0.625 3.4766-0.91016 0.74609-0.1875 1.5156-0.36328 2.293-0.53516 0.44922-0.10547 0.89844-0.20312 1.3438-0.30078 4.0977-0.88281 8.5234-1.6328 13.227-2.1211 0.125-0.011719 0.25-0.023438 0.38281-0.035157 1.168-0.12109 2.3594-0.22266 3.5664-0.3125 0.054687-0.003906 0.11719-0.003906 0.17578-0.011718 6.3242-0.43359 13.074-0.38281 20.078 0.41797 0.125 0.015626 0.25 0.023438 0.37891 0.039063 1.3164 0.15625 2.6367 0.33594 3.9648 0.55078 0.16797 0.023438 0.32812 0.054688 0.49219 0.082032 1.3516 0.21484 2.707 0.46484 4.0703 0.74219 4.8047 0.97656 9.582 2.3164 14.211 3.9883 1.7695 0.64062 3.7188-0.27734 4.3516-2.0469 0.64062-1.7695-0.27734-3.7188-2.0469-4.3594-2.9023-1.0469-5.8633-1.9609-8.8516-2.7539 7.918-8.1758 13.09-18.453 14.895-29.703 28.305 4.793 96.398 16.445 97.109 16.57 0.90625 0.15625 1.8281-0.066407 2.5703-0.59766 0.74219-0.53516 1.2383-1.3438 1.3711-2.2539 0.039063-0.24609 3.9258-24.801 20.762-34.953 8.293-4.9961 18.516-5.7422 30.449-2.2227-1.3203 4.0117-3.5664 11.18-5.4727 18.773-5.4258 21.598-3.3047 27.105-0.52344 29.629 3.5586 3.2656 34.996 32.051 42.949 36.34 4.5508 2.4492 15.559 4.0508 30.613 6.0391 6.625 0.875 14.793 1.9531 16.953 2.7148 2.1484 3.2891 7.5625 24.238-0.85156 39.484z"/>
  <path d="m549.25 369.18c-1.7227-0.73438-3.7227 0.058594-4.4688 1.7852-2.6055 6.0625-8.8125 9.9688-15.82 9.9688-9.3867 0-17.023-7.0977-17.023-15.824 0-3.5781 1.25-6.9531 3.6289-9.7656 1.2188-1.4375 1.0391-3.582-0.39844-4.7969-1.4375-1.2148-3.582-1.0391-4.793 0.39844-3.3867 3.9961-5.2461 9.0273-5.2461 14.16 0 12.48 10.691 22.633 23.832 22.633 9.7383 0 18.395-5.5312 22.07-14.09 0.75-1.7227-0.046875-3.7227-1.7812-4.4688z"/>
 </g>
</svg>