<?xml version="1.0" encoding="UTF-8"?>
<!-- The Best Svg Icon site in the world: iconSvg.co, Visit us! https://iconsvg.co -->
<svg fill="#000000" width="800px" height="800px" version="1.1" viewBox="144 144 512 512" xmlns="http://www.w3.org/2000/svg">
 <g>
  <path d="m400 478.72c-20.879 0-40.902 8.293-55.664 23.055-14.766 14.766-23.059 34.789-23.059 55.664 0 20.879 8.293 40.902 23.059 55.664 14.762 14.766 34.785 23.059 55.664 23.059 20.875 0 40.898-8.293 55.664-23.059 14.762-14.762 23.055-34.785 23.055-55.664-0.023438-20.871-8.3242-40.879-23.082-55.637-14.758-14.758-34.766-23.059-55.637-23.082zm0 141.7c-16.703 0-32.723-6.6328-44.531-18.445-11.812-11.809-18.445-27.828-18.445-44.531 0-16.699 6.6328-32.719 18.445-44.531 11.809-11.809 27.828-18.445 44.531-18.445 16.699 0 32.719 6.6367 44.531 18.445 11.809 11.812 18.445 27.832 18.445 44.531-0.019531 16.699-6.6602 32.707-18.469 44.512-11.805 11.805-27.812 18.445-44.508 18.465z"/>
  <path d="m242.56 478.72c20.879 0 40.898-8.293 55.664-23.055 14.762-14.766 23.055-34.789 23.055-55.664 0-20.879-8.293-40.902-23.055-55.664-14.766-14.766-34.785-23.059-55.664-23.059s-40.902 8.293-55.664 23.059c-14.762 14.762-23.059 34.785-23.059 55.664 0.023437 20.871 8.3242 40.879 23.082 55.637 14.758 14.758 34.77 23.059 55.641 23.082zm0-141.7c16.703 0 32.719 6.6328 44.531 18.445 11.809 11.809 18.445 27.828 18.445 44.531 0 16.699-6.6367 32.719-18.445 44.531-11.812 11.809-27.828 18.445-44.531 18.445s-32.723-6.6367-44.531-18.445c-11.809-11.812-18.445-27.832-18.445-44.531 0.019531-16.699 6.6602-32.707 18.465-44.512 11.809-11.805 27.816-18.445 44.512-18.465z"/>
  <path d="m400 163.84c-20.879 0-40.902 8.2969-55.664 23.059-14.766 14.762-23.059 34.785-23.059 55.664s8.293 40.898 23.059 55.664c14.762 14.762 34.785 23.055 55.664 23.055 20.875 0 40.898-8.293 55.664-23.055 14.762-14.766 23.055-34.785 23.055-55.664-0.023438-20.871-8.3242-40.883-23.082-55.641-14.758-14.758-34.766-23.059-55.637-23.082zm0 141.7v0.003906c-16.703 0-32.723-6.6367-44.531-18.445-11.812-11.812-18.445-27.828-18.445-44.531s6.6328-32.723 18.445-44.531c11.809-11.809 27.828-18.445 44.531-18.445 16.699 0 32.719 6.6367 44.531 18.445 11.809 11.809 18.445 27.828 18.445 44.531-0.019531 16.695-6.6602 32.703-18.469 44.508-11.805 11.809-27.812 18.449-44.508 18.469z"/>
  <path d="m557.44 321.28c-20.875 0-40.898 8.293-55.664 23.059-14.762 14.762-23.055 34.785-23.055 55.664 0 20.875 8.293 40.898 23.055 55.664 14.766 14.762 34.789 23.055 55.664 23.055 20.879 0 40.902-8.293 55.664-23.055 14.766-14.766 23.059-34.789 23.059-55.664-0.023437-20.871-8.3242-40.883-23.082-55.641s-34.77-23.059-55.641-23.082zm0 141.7v0.003906c-16.699 0-32.719-6.6367-44.531-18.445-11.809-11.812-18.445-27.832-18.445-44.531 0-16.703 6.6367-32.723 18.445-44.531 11.812-11.812 27.832-18.445 44.531-18.445 16.703 0 32.723 6.6328 44.531 18.445 11.812 11.809 18.445 27.828 18.445 44.531-0.019531 16.695-6.6602 32.703-18.465 44.508-11.805 11.809-27.812 18.449-44.512 18.469z"/>
  <path d="m400 533.82c2.0859 0 4.0898 0.82812 5.5664 2.3047 1.4766 1.4766 2.3047 3.4766 2.3047 5.5664h15.742c-0.019531-4.8672-1.543-9.6094-4.3594-13.578-2.8203-3.9688-6.793-6.9688-11.383-8.5898v-9.3203h-15.746v9.3203c-7.0547 2.4844-12.508 8.1719-14.699 15.324-2.1914 7.1523-0.85547 14.918 3.5977 20.926 4.4531 6.0117 11.496 9.5469 18.977 9.5352 3.1836 0 6.0547 1.918 7.2695 4.8594 1.2188 2.9414 0.54688 6.3242-1.7031 8.5781-2.2539 2.25-5.6406 2.9258-8.582 1.707s-4.8594-4.0898-4.8594-7.2734h-15.742c0.019532 4.8672 1.543 9.6094 4.3633 13.578 2.8164 3.9648 6.793 6.9648 11.379 8.5898v9.3203h15.742l0.003906-9.3203c7.0547-2.4844 12.512-8.1719 14.699-15.324 2.1914-7.1523 0.85547-14.918-3.5977-20.926-4.4531-6.0117-11.496-9.5469-18.973-9.5352-4.3477 0-7.875-3.5234-7.875-7.8711 0-4.3477 3.5273-7.8711 7.875-7.8711z"/>
  <path d="m557.44 410.57v-2.6992h15.742l0.003906-15.746h-15.746v-15.742c0-4.3477 3.5273-7.8711 7.875-7.8711h7.8711v-15.746h-7.8711c-6.2656 0-12.273 2.4883-16.699 6.918-4.4297 4.4297-6.918 10.434-6.918 16.699v15.742h-15.746v15.742h15.742v2.6992l0.003906 0.003906c0.015626 6.2695-2.4766 12.281-6.918 16.703l-6.5195 6.5195c-2.25 2.25-2.9258 5.6367-1.707 8.5781s4.0898 4.8594 7.2734 4.8594h55.105l-0.003907-15.742h-37.492c3.9414-6.2656 6.0234-13.516 6.0039-20.918z"/>
  <path d="m425.92 197.63-25.922 25.922-25.926-25.922-11.129 11.129 18.051 18.051h-12.484v15.746h23.613v15.742h-23.613v15.746h23.613v15.742h15.746v-15.742h23.617v-15.746h-23.617v-15.742h23.617v-15.746h-12.488l18.051-18.051z"/>
  <path d="m250.43 447.23c7.332-0.042969 14.465-2.4102 20.367-6.7617l-9.2422-12.754c-3.207 2.4219-7.1094 3.7422-11.125 3.7734-6.0625-0.21094-11.719-3.0938-15.453-7.875h15.453v-15.742h-22.773c-1.125-5.1875-1.125-10.559 0-15.746h22.773v-15.742h-15.453c3.7344-4.7812 9.3906-7.6641 15.453-7.8711 4.0156 0.027343 7.918 1.3477 11.125 3.7695l9.2422-12.754c-5.9023-4.3516-13.035-6.7188-20.367-6.7617-7.3242 0.31641-14.41 2.7031-20.434 6.8828-6.0234 4.1797-10.738 9.9844-13.598 16.734h-13.199v15.742h8.4609c-0.78906 5.2188-0.78906 10.527 0 15.746h-8.4609v15.742h13.199c2.8594 6.7539 7.5742 12.555 13.598 16.734 6.0234 4.1797 13.109 6.5664 20.434 6.8828z"/>
  <path d="m490.36 252.23c14.453 8.875 27.523 19.832 38.785 32.52l-24.773-4.4023 12.965 18.594 37.156 6.6289 6.6289-37.164-12.957-18.586-4.8906 27.324c-12.805-15.047-27.895-27.984-44.715-38.344z"/>
  <path d="m501.09 517.33-6.6289 37.156 37.164 6.6289 18.586-12.965-27.355-4.8828c15.047-12.805 27.984-27.895 38.348-44.715l-13.43-8.2188c-8.8789 14.457-19.836 27.531-32.52 38.797l4.4336-24.781z"/>
  <path d="m282.71 501.09-37.195-6.6289-6.6289 37.164 12.965 18.586 4.8633-27.355c12.805 15.047 27.895 27.984 44.715 38.348l8.2188-13.43c-14.457-8.8789-27.527-19.836-38.793-32.52l24.781 4.4336z"/>
  <path d="m298.91 282.71 6.6289-37.195-37.164-6.6289-18.586 12.965 27.355 4.8633c-15.047 12.805-27.984 27.895-38.344 44.715l13.43 8.2188c8.875-14.457 19.832-27.527 32.52-38.793l-4.4023 24.781z"/>
 </g>
</svg>