<?xml version="1.0" encoding="UTF-8"?>
<!-- The Best Svg Icon site in the world: iconSvg.co, Visit us! https://iconsvg.co -->
<svg fill="#000000" width="800px" height="800px" version="1.1" viewBox="144 144 512 512" xmlns="http://www.w3.org/2000/svg">
 <g>
  <path d="m476.55 309.34c26.375 0 47.84-21.453 47.84-47.832 0-26.375-21.465-47.832-47.84-47.832s-47.832 21.453-47.832 47.832c0.003906 26.379 21.457 47.832 47.832 47.832zm0-85.164c20.582 0 37.344 16.75 37.344 37.336 0 20.582-16.762 37.336-37.344 37.336-20.582 0-37.336-16.75-37.336-37.336 0.003906-20.586 16.754-37.336 37.336-37.336z"/>
  <path d="m513.8 417.12c0.74609 0.37891 1.5547 0.57812 2.3828 0.57812 1.0898 0 2.1953-0.34766 3.1172-1.0391l23.555-17.371c1.3555-0.98828 2.1523-2.5625 2.1289-4.2305 0-1.668-0.79688-3.2539-2.1523-4.2188l-23.562-17.191c-1.5938-1.1641-3.7148-1.332-5.4688-0.44141-1.7734 0.89062-2.8672 2.707-2.8672 4.6797v34.543c-0.03125 1.9844 1.0938 3.8008 2.8672 4.6914zm7.5977-28.926 9.4453 6.8867-9.4453 6.957z"/>
  <path d="m283.63 312.43c0.62891 0.24219 1.2812 0.36719 1.9297 0.36719 1.4258 0 2.832-0.57812 3.832-1.668 13.539-14.484 31.27-24.328 50.453-28.328-4.3438 4.3984-7 10.453-6.8867 17.098l0.68359 46.812c0.30469 20.07 16.73 36.191 36.734 36.191h0.54688c2.1094-0.03125 4.207-0.24219 6.2891-0.66016h0.10547l54.41-10.453v203.12c0 12.156 9.875 22.043 22.043 22.043h45.637c12.145 0 22.043-9.875 22.043-22.043v-113.53l49.879-36.758c16.301-12.027 19.785-35.066 7.7656-51.379-2.2344-3.0234-4.9023-5.668-7.8945-7.8633 0 0-0.019531-0.011718-0.019531-0.019531l-41.879-30.555c-20.949-15.293-47.59-21.223-73.043-16.363l-75.004 14.422-0.52344-33.672c-0.09375-6.3828-2.6641-12.344-7.2422-16.781-0.98828-0.96484-2.0781-1.7734-3.1914-2.5312 9.2695-2.6758 16.152-10.926 16.531-21.066 0.49219-12.648-9.4062-23.332-22.062-23.824h-0.30469c-0.51563 0-1.4375 0.011719-1.4688 0-27.73 1.0508-54.727-10.086-73.578-30.27-1.4688-1.5742-3.7578-2.0898-5.7617-1.3008-2.0039 0.79688-3.3164 2.7305-3.3164 4.8789v99.262c-0.035157 2.1406 1.2891 4.0742 3.293 4.8711zm239.46 30.859 41.879 30.555c2.1406 1.5742 4.0391 3.4727 5.6484 5.6367 4.1562 5.6367 5.8789 12.562 4.8164 19.492-1.0508 6.9258-4.7227 13.035-10.379 17.191l-52.008 38.344c-0.10547 0.074219-0.16797 0.19922-0.25 0.28516-0.27344 0.21875-0.49219 0.49219-0.72266 0.78906-0.19922 0.26172-0.38672 0.52344-0.54687 0.80859-0.14844 0.28516-0.23047 0.59766-0.31641 0.90234-0.10547 0.35547-0.19922 0.69141-0.21875 1.0703-0.011719 0.125-0.074219 0.23047-0.074219 0.36719v116.18c0 6.3594-5.1758 11.555-11.547 11.555h-17.582v-120.92c0-2.8984-2.3516-5.2461-5.2461-5.2461-2.8984 0-5.2461 2.3516-5.2461 5.2461v120.93h-17.539c-6.3516 0-11.547-5.1836-11.547-11.555l-0.003906-209.48c0-0.16797-0.082031-0.30469-0.10547-0.48438 0-0.17969 0.042969-0.33594 0-0.50391-0.019531-0.1875-0.15625-0.32422-0.21094-0.51562-0.10547-0.34766-0.21875-0.66016-0.41016-0.97656-0.16797-0.28516-0.32422-0.53516-0.51562-0.77734-0.21875-0.28516-0.47266-0.52344-0.75391-0.75391-0.24219-0.19922-0.48438-0.35547-0.73438-0.50391-0.32422-0.17969-0.64062-0.30469-0.98828-0.41797-0.32422-0.09375-0.64062-0.15625-0.97656-0.19922-0.19922-0.019531-0.35547-0.11719-0.56641-0.11719-0.17969 0-0.30469 0.082031-0.47266 0.09375-0.17969 0.011718-0.33594-0.03125-0.51562 0l-60.637 11.652c-1.5117 0.28516-3.0234 0.44141-4.5547 0.47266-14.84-0.082032-26.418-11.379-26.629-25.84l-0.68359-46.812c-0.0625-3.5781 1.2891-6.957 3.7695-9.5195 2.4883-2.5625 5.8477-4.0078 9.4062-4.0625 3.9141 0.03125 6.9688 1.2891 9.5195 3.7773 2.5508 2.4883 4.0078 5.8359 4.0625 9.4062l0.59766 39.926c0 0.15625 0.082031 0.29297 0.09375 0.45312 0.011718 0.15625-0.03125 0.30469 0 0.46094 0.042968 0.21875 0.17969 0.39844 0.23047 0.60938 0.082032 0.27344 0.16797 0.52344 0.29297 0.77734 0.17969 0.33594 0.37891 0.62109 0.62891 0.90234 0.16797 0.21094 0.31641 0.41797 0.51562 0.58594 0.29297 0.27344 0.65234 0.46094 0.98828 0.66016 0.21875 0.11719 0.38672 0.25 0.62109 0.34766 0.59766 0.23047 1.2266 0.37891 1.8906 0.37891h0.074219c0.019531 0 0.042969-0.011719 0.0625-0.011719 0.28516 0 0.57812-0.019531 0.85156-0.074218l81.156-15.598c22.637-4.3633 46.254 0.94922 64.875 14.52zm-232.29-122.79c19.031 16.039 43.379 25.055 68.465 25.055 1.3633 0 2.7383-0.019531 5.0586-0.082031 6.8633 0.26172 12.238 6.0664 11.988 12.93-0.25 6.707-5.7109 11.965-12.91 11.965h-0.019532c-26.535-1.0703-52.5 8.0508-72.578 24.969z"/>
  <path d="m219.04 263.16h45.688c2.8867 0 5.2461-2.3516 5.2461-5.2461 0-2.8984-2.3633-5.2461-5.2461-5.2461l-45.688-0.003907c-2.8984 0-5.2461 2.3516-5.2461 5.2461 0 2.9023 2.3281 5.25 5.2461 5.25z"/>
  <path d="m265.87 249.3c0.95703 0.74609 2.0898 1.1016 3.2227 1.1016 1.5547 0 3.1172-0.69141 4.1562-2.0273 1.7734-2.2891 1.3555-5.5938-0.92188-7.3672l-36.109-27.992c-2.2891-1.7852-5.5742-1.3555-7.3594 0.92188-1.7852 2.2891-1.3633 5.5938 0.92188 7.3672z"/>
  <path d="m265.87 266.54-36.086 27.992c-2.2969 1.7734-2.7188 5.0703-0.92188 7.3672 1.0391 1.332 2.5703 2.0273 4.1562 2.0273 1.125 0 2.2578-0.35547 3.2109-1.1016l36.098-27.992c2.2891-1.7734 2.707-5.0703 0.92188-7.3672-1.7969-2.293-5.0938-2.7109-7.3789-0.92578z"/>
 </g>
</svg>