<?xml version="1.0" encoding="UTF-8"?>
<!-- The Best Svg Icon site in the world: iconSvg.co, Visit us! https://iconsvg.co -->
<svg fill="#000000" width="800px" height="800px" version="1.1" viewBox="144 144 512 512" xmlns="http://www.w3.org/2000/svg">
 <g>
  <path d="m517.61 394.73c-35.766 0-64.754 28.996-64.754 64.75 0 35.762 28.988 64.75 64.754 64.75 35.762 0 64.746-28.988 64.746-64.75-0.007813-35.758-28.992-64.75-64.746-64.75zm5.375 104.07v4.9844c0 2.9922-2.4141 5.3945-5.3867 5.3945-2.9922 0-5.4023-2.4102-5.4023-5.3945v-4.9336c-4.418-0.73438-10.105-2.875-14.73-8.9961-3.082-4.0352-3.9453-8.1953-3.9453-14.09 0 0 0.45703-4.6641 6.2773-4.6641 5.8047 0 5.7227 4.6641 5.7227 4.6641 0 8.9062 7.0039 11.094 11.922 11.094 10.574 0 12.621-6.4375 12.617-9.7539-0.019532-8.5508-7.1055-9.9688-10.801-10.871 0 0-19.863-3.4883-24.027-14.398-4.8164-12.645-0.11719-19.957 2.6992-23.754 3.2227-4.3086 7.9922-6.8359 14.262-7.6484v-5.2539c0-2.9844 2.4141-5.4023 5.4023-5.4023 2.9766 0 5.3867 2.418 5.3867 5.4023v5.543c5.2383 1.0234 9.5625 3.4375 12.594 7.4414 2.6367 3.4453 4.5234 9.2617 4.0508 12.73-0.10156 0.76562-0.92578 5.0273-6.2812 5.0273-5.3516 0-5.7148-4.4805-5.7148-4.4805-0.32422-2.707-0.70703-3.8594-1.8477-5.4297-2.0898-2.707-5.2891-3.4961-9.9844-3.4961-2.7773 0-5.0977 0.60547-6.9727 1.8047-2.3008 1.5156-3.1406 3.7227-3.4609 6.6055-0.80469 7.5352 6.8203 10.254 8.7109 10.863l12.211 4.0352c13.602 4.6797 15.758 13.75 15.758 19.66 0 8.1133-5.2109 20.93-19.059 23.316z"/>
  <path d="m575.86 382.41c-7.6133-26.527-15.441-53.836-19.617-68.379-9.7656-34.035-30.543-53.918-68.078-51.949-45.445 2.3828-53.734 47.035-53.734 47.035h-69.004c-3.2148-47.16-58.562-47.047-58.562-47.047-37.816 0-54.23 23.941-62.695 51.957-5.25 17.375-14.207 45.695-22.902 72.926-21.719 17.758-35.613 44.738-35.613 74.91 0 53.359 43.41 96.766 96.766 96.766 53.352 0 96.758-43.41 96.758-96.766 0-15.566-3.7852-30.234-10.344-43.273 3.6797-8.0859 12.098-17.246 31.379-16.773 19.996 0.48828 28.121 7.5625 31.453 13.367-6.8789 13.285-10.828 28.32-10.828 44.285 0 53.359 43.41 96.766 96.766 96.766 53.352 0 96.758-43.41 96.758-96.766-0.003906-31.453-15.168-59.375-38.5-77.059zm-293.45 161.11c-45.027 0-81.652-36.633-81.652-81.652 0-45.02 36.633-81.641 81.652-81.641 45.02 0 81.641 36.625 81.641 81.641 0.003906 45.027-36.621 81.652-81.641 81.652zm235.18-2.3867c-45.027 0-81.652-36.633-81.652-81.652s36.633-81.648 81.652-81.648c45.02 0 81.641 36.625 81.641 81.648 0 45.02-36.625 81.652-81.641 81.652z"/>
  <path d="m282.41 397.13c-35.766 0-64.754 28.996-64.754 64.75 0 35.762 28.988 64.75 64.754 64.75 35.762 0 64.746-28.988 64.746-64.75 0-35.758-28.984-64.75-64.746-64.75zm5.3828 104.07v4.9844c0 2.9922-2.4141 5.3945-5.3867 5.3945-2.9922 0-5.4023-2.4102-5.4023-5.3945v-4.9336c-4.418-0.73438-10.105-2.875-14.73-8.9961-3.082-4.0352-3.9453-8.1953-3.9453-14.09 0 0 0.45703-4.6641 6.2773-4.6641 5.8047 0 5.7227 4.6641 5.7227 4.6641 0 8.9062 7.0039 11.094 11.922 11.094 10.574 0 12.621-6.4375 12.617-9.7539-0.019532-8.5508-7.1055-9.9688-10.801-10.871 0 0-19.863-3.4883-24.027-14.398-4.8164-12.645-0.11719-19.957 2.6992-23.754 3.2227-4.3086 7.9922-6.8359 14.262-7.6484v-5.2539c0-2.9844 2.4141-5.4023 5.4023-5.4023 2.9766 0 5.3867 2.418 5.3867 5.4023v5.543c5.2383 1.0234 9.5625 3.4375 12.594 7.4414 2.6367 3.4453 4.5234 9.2617 4.0508 12.73-0.10156 0.76562-0.92578 5.0273-6.2812 5.0273-5.3516 0-5.7148-4.4805-5.7148-4.4805-0.32422-2.707-0.70703-3.8594-1.8477-5.4297-2.0898-2.707-5.2891-3.4961-9.9844-3.4961-2.7773 0-5.0977 0.60547-6.9727 1.8047-2.3008 1.5156-3.1406 3.7227-3.4609 6.6055-0.80469 7.5352 6.8203 10.254 8.7109 10.863l12.211 4.0352c13.602 4.6797 15.758 13.75 15.758 19.66 0 8.1055-5.2109 20.926-19.059 23.316z"/>
 </g>
</svg>