<?xml version="1.0" encoding="UTF-8"?>
<!-- The Best Svg Icon site in the world: iconSvg.co, Visit us! https://iconsvg.co -->
<svg fill="#000000" width="800px" height="800px" version="1.1" viewBox="144 144 512 512" xmlns="http://www.w3.org/2000/svg">
 <g>
  <path d="m481.92 518.11c-1.2148 0-2.3789-0.48438-3.2383-1.3438l-29.094-29.184v-0.003907c-0.93359-0.9375-1.418-2.2422-1.3203-3.5664 0.09375-1.3242 0.76172-2.5391 1.8242-3.3359 5.6758-4.2617 11.035-8.9297 16.031-13.973 5.5859-5.5664 10.738-11.555 15.414-17.906 0.78516-1.082 2.0078-1.7656 3.3438-1.8711 1.332-0.09375 2.6406 0.39062 3.5898 1.3281l29.371 29.367c1.7891 1.7891 1.7891 4.6875 0 6.4766l-32.684 32.688c-0.85938 0.85547-2.0273 1.3281-3.2383 1.3242zm-22.188-33.324 22.191 22.266 26.184-26.188-22.414-22.414v-0.003906c-7.668 9.6992-16.371 18.531-25.957 26.34z"/>
  <path d="m607.45 604.46c-8.6641 9.2383-20.727 14.531-33.391 14.656h-0.64063c-12.422 0.039063-24.348-4.8906-33.113-13.691l-69.617-69.617v-0.003907c-4.8242-4.8516-4.8242-12.688 0-17.539l48.688-48.645c2.3203-2.3359 5.4766-3.6484 8.7695-3.6484s6.4492 1.3125 8.7695 3.6484l68.379 68.426h0.003907c8.875 8.6445 14.059 20.391 14.461 32.773 0.39844 12.383-4.0117 24.441-12.309 33.641z"/>
  <path d="m472.61 231.04c-17.156-17.082-37.723-30.352-60.359-38.945-22.633-8.5977-46.824-12.32-70.996-10.93-43.609 2.5508-84.594 21.664-114.58 53.434-29.98 31.77-46.691 73.793-46.715 117.48-0.023437 43.684 16.645 85.723 46.59 117.53 29.949 31.801 70.914 50.957 114.52 53.555 3.3906 0.18359 6.7344 0.27344 10.121 0.27344v0.003906c23.926 0.011719 47.59-4.9648 69.48-14.613 8.0625-3.5898 15.84-7.7812 23.266-12.547 4.8086-3.1133 8.4727-5.7266 11.633-8.2461h0.003906c6.0195-4.5352 11.715-9.4961 17.035-14.84 5.8867-5.8867 11.32-12.211 16.262-18.914 2.6094-3.4336 4.9023-6.9141 6.6875-9.6172 4.7852-7.4219 8.9648-15.219 12.5-23.312 9.543-21.648 14.457-45.047 14.43-68.703 0.0625-45.523-17.867-89.23-49.879-121.6zm-6.2305 121.14h0.003906c0 30.5-12.117 59.754-33.688 81.32-21.566 21.57-50.816 33.684-81.32 33.684-30.5 0-59.754-12.113-81.32-33.684-21.566-21.566-33.684-50.82-33.684-81.32 0-30.504 12.117-59.754 33.684-81.32 21.566-21.57 50.82-33.688 81.32-33.688 30.492 0.035156 59.723 12.164 81.285 33.727 21.559 21.559 33.688 50.789 33.723 81.281z"/>
  <path d="m368.69 364.62c-4.2422-2.3125-8.7734-4.0508-13.473-5.1719v27.453c12.008-0.85156 18.012-5.7031 18.004-14.555 0.058594-3.2227-1.6875-6.207-4.5312-7.7266z"/>
  <path d="m330.58 331.61c-0.16406 3.4414 1.4531 6.7266 4.2773 8.7031 3.8477 2.4766 8.1055 4.25 12.574 5.2344v-28.109c-4.4336 0.42188-8.668 2.0312-12.262 4.6602-2.9727 2.2422-4.6836 5.7852-4.5898 9.5117z"/>
  <path d="m351.37 261.18c-24.129 0.007812-47.266 9.5977-64.32 26.66-17.059 17.062-26.641 40.203-26.641 64.332 0.003906 24.129 9.5898 47.266 26.648 64.328 17.062 17.059 40.199 26.645 64.328 26.648 24.129 0 47.27-9.582 64.332-26.637 17.062-17.059 26.652-40.195 26.66-64.324-0.027344-24.129-9.625-47.262-26.684-64.32-17.062-17.062-40.195-26.66-64.324-26.688zm29.707 124.19v0.003906c-2.5938 3.7969-6.1719 6.8203-10.352 8.7422-4.8711 2.2695-10.145 3.5508-15.512 3.7656v9.0625c0.039062 1.0273-0.35156 2.0234-1.082 2.75-1.5938 1.4258-3.9961 1.457-5.625 0.066406-0.73828-0.74219-1.1328-1.7617-1.0781-2.8125v-9.0664c-8.875-0.51953-17.594-2.5508-25.789-6-1.0391-0.4375-1.9297-1.168-2.5586-2.1094-1.5078-2.1133-1.3164-4.9961 0.45703-6.8906 0.96094-1.0586 2.3359-1.6406 3.7617-1.5977 0.83594-0.003906 1.668 0.16797 2.4297 0.51172 6.8516 3.0469 14.215 4.7812 21.707 5.1055v-29.367c-5-1.2617-9.8867-2.9258-14.621-4.9766-3.8555-1.7109-7.2461-4.3164-9.8867-7.6055-2.7383-3.5586-4.1406-7.9609-3.9609-12.449-0.035156-4.3008 1.0898-8.5352 3.25-12.254 2.3477-3.9141 5.6992-7.1328 9.707-9.3203 4.7812-2.6094 10.074-4.1328 15.512-4.4648v-8.9414c-0.023438-1.043 0.36719-2.0508 1.082-2.8086 0.70703-0.75781 1.707-1.1758 2.7461-1.1484 1.0508-0.007812 2.0625 0.40625 2.8047 1.1484 0.74219 0.74609 1.1562 1.7578 1.1445 2.8086v8.8086c7.5859 0.19531 15.094 1.6211 22.227 4.2109 2.2422 0.66016 3.7266 2.7812 3.5742 5.1133 0 1.3633-0.5 2.6797-1.4023 3.6992-0.91406 1.0977-2.2852 1.707-3.7109 1.6602-0.70312-0.042969-1.3945-0.21484-2.0391-0.51172-6.0078-2.082-12.293-3.2422-18.648-3.4414v30.391-0.003907c5.207 1.1562 10.312 2.7344 15.266 4.7227 3.9648 1.6445 7.4531 4.2539 10.148 7.5938 2.875 3.8359 4.3203 8.5547 4.0859 13.344 0.042968 4.3594-1.2227 8.6328-3.6367 12.266z"/>
 </g>
</svg>