<?xml version="1.0" encoding="UTF-8"?>
<!-- The Best Svg Icon site in the world: iconSvg.co, Visit us! https://iconsvg.co -->
<svg fill="#000000" width="800px" height="800px" version="1.1" viewBox="144 144 512 512" xmlns="http://www.w3.org/2000/svg">
 <g>
  <path d="m524.66 403.82-108.48-225.52c-3.0117-6.2891-9.2266-10.188-16.223-10.188-6.832 0-13.168 4-16.137 10.184l-108.41 225.53c-12.156 25.332-22.652 47.219-22.652 81.773 0 80.664 66.027 146.29 147.2 146.29 81.219 0 147.29-65.621 147.29-146.29 0-34.715-10.973-57.574-22.59-81.777zm-124.7 220.98c-77.258 0-140.12-62.453-140.12-139.21 0-32.949 10.172-54.16 21.949-78.715l108.41-225.53c1.7969-3.75 5.6289-6.1719 9.7578-6.1719 4.2461 0 8.0117 2.3633 9.8398 6.1719l108.48 225.52c11.742 24.48 21.891 45.621 21.891 78.719 0.003907 76.762-62.895 139.21-140.21 139.21z"/>
  <path d="m401.99 482.38h-3.9805c-12.504 0-22.676-10.184-22.676-22.68 0-12.504 10.172-22.688 22.676-22.688h26.223c1.9531 0 3.543-1.5781 3.543-3.5352 0-1.9531-1.5859-3.5352-3.543-3.5352h-18.703v-15.242c0-1.9531-1.5859-3.543-3.543-3.543-1.9531 0-3.5352 1.5859-3.5352 3.543v15.242h-0.44141c-16.41 0-29.762 13.348-29.762 29.762 0 16.41 13.348 29.754 29.762 29.754h3.9805c12.504 0 22.68 10.176 22.68 22.68 0 12.5-10.168 22.672-22.668 22.68h-0.015625-0.019531-26.199c-1.9531 0-3.543 1.582-3.543 3.543 0 1.9531 1.5859 3.5352 3.543 3.5352h22.68v15.246c0 1.9531 1.582 3.5352 3.5352 3.5352s3.543-1.582 3.543-3.5352v-15.469c14.746-1.7539 26.215-14.332 26.215-29.539 0.003907-16.41-13.336-29.754-29.75-29.754z"/>
  <path d="m400 386.31c-54.922 0-99.609 44.688-99.609 99.613 0 54.922 44.688 99.609 99.609 99.609s99.609-44.684 99.609-99.609c-0.003906-54.926-44.688-99.613-99.609-99.613zm0 192.14c-51.02 0-92.531-41.508-92.531-92.523 0-51.027 41.504-92.535 92.531-92.535 51.02 0 92.523 41.508 92.523 92.535 0 51.008-41.504 92.523-92.523 92.523z"/>
 </g>
</svg>