<?xml version="1.0" encoding="UTF-8"?>
<!-- The Best Svg Icon site in the world: iconSvg.co, Visit us! https://iconsvg.co -->
<svg fill="#000000" width="800px" height="800px" version="1.1" viewBox="144 144 512 512" xmlns="http://www.w3.org/2000/svg">
 <path d="m549.57 329.94h-11.492v-52.27c0.042969-11.387-4.4531-22.32-12.488-30.383-8.0352-8.0664-18.949-12.598-30.336-12.598h-224.35c-16.703 0-32.723 6.6328-44.531 18.445-11.812 11.809-18.445 27.828-18.445 44.531-0.078125 1.5195-0.078125 3.043 0 4.5625-0.074219 0.73438-0.074219 1.4727 0 2.207v190.5-0.003906c-0.042969 18.57 7.2734 36.398 20.344 49.59 13.07 13.188 30.832 20.664 49.402 20.789h271.9c11.398 0 22.332-4.5312 30.395-12.59 8.0586-8.0625 12.586-18.992 12.586-30.395v-149.57 0.003907c-0.039063-11.371-4.5859-22.266-12.645-30.293-8.0547-8.0234-18.965-12.531-30.336-12.531zm-278.67-63.762h224.35c6.2852 0.085938 11.336 5.2031 11.336 11.492v52.27h-235.69c-11.391 0-21.918-6.0781-27.613-15.941-5.6914-9.8633-5.6914-22.016 0-31.883 5.6953-9.8633 16.223-15.938 27.613-15.938zm278.67 267.65h-271.9c-10.246 0-20.074-4.0586-27.332-11.289-7.2578-7.2305-11.355-17.039-11.398-27.285v-142.48c9.5195 5.7148 20.383 8.8125 31.488 8.9766h279.14c6.2852-0.003907 11.406 5.0469 11.492 11.336v26.922h-54.473c-18.738 1.0078-35.641 11.59-44.73 28.008-9.0898 16.418-9.0898 36.355 0 52.773 9.0898 16.418 25.992 27 44.73 28.008h54.473v13.539c0 3.0508-1.2109 5.9727-3.3633 8.1289-2.1562 2.1562-5.082 3.3672-8.1289 3.3672zm11.492-56.52-54.473-0.003907c-7.7344-0.64062-14.621-5.1406-18.316-11.969-3.6914-6.8242-3.6914-15.051 0-21.879 3.6953-6.8242 10.582-11.324 18.316-11.965h54.473z"/>
</svg>