<?xml version="1.0" encoding="UTF-8"?>
<!-- The Best Svg Icon site in the world: iconSvg.co, Visit us! https://iconsvg.co -->
<svg fill="#000000" width="800px" height="800px" version="1.1" viewBox="144 144 512 512" xmlns="http://www.w3.org/2000/svg">
 <g>
  <path d="m353.75 525.95h13.777v29.52h-13.777z"/>
  <path d="m326.2 442.31h15.742v29.52h-15.742z"/>
  <path d="m309.47 484.62h15.742v29.52h-15.742z"/>
  <path d="m337.02 484.62h13.777v29.52h-13.777z"/>
  <path d="m326.2 525.95h15.742v29.52h-15.742z"/>
  <path d="m353.75 442.31h13.777v29.52h-13.777z"/>
  <path d="m379.34 442.31h13.777v29.52h-13.777z"/>
  <path d="m429.52 442.31h13.777v29.52h-13.777z"/>
  <path d="m403.67 413.68c14.539 0 28.484-5.7773 38.762-16.059 10.281-10.281 16.059-24.223 16.059-38.762 0-14.543-5.7773-28.484-16.059-38.766s-24.223-16.059-38.766-16.059c-14.539 0-28.48 5.7773-38.762 16.059s-16.059 24.227-16.059 38.766c0.015625 14.535 5.7969 28.469 16.074 38.746 10.277 10.277 24.215 16.059 38.75 16.074zm0-46.906c-7.0508-0.003906-13.656-3.4414-17.703-9.2148-4.0469-5.7734-5.0273-13.156-2.625-19.785 2.4023-6.6289 7.8867-11.668 14.691-13.508v-3.9688c0-3.2578 2.6406-5.9023 5.9023-5.9023 3.2617 0 5.9062 2.6445 5.9062 5.9023v4.1133c4.4609 1.3359 8.375 4.0742 11.16 7.8086 2.7852 3.7305 4.2891 8.2656 4.2969 12.922 0 3.2617-2.6445 5.9023-5.9062 5.9023-3.2578 0-5.9023-2.6406-5.9023-5.9023 0-3.9727-2.3945-7.5547-6.0625-9.0742-3.6719-1.5195-7.8984-0.67969-10.707 2.1289s-3.6484 7.0352-2.1289 10.703c1.5234 3.6719 5.1055 6.0664 9.0781 6.0625 6.8633 0 13.32 3.2617 17.398 8.7852 4.0781 5.5195 5.2891 12.652 3.2695 19.211-2.0195 6.5625-7.0352 11.773-13.512 14.043v4.9688c0 3.2617-2.6445 5.9062-5.9062 5.9062s-5.9023-2.6445-5.9023-5.9062v-4.2578 0.003907c-4.8125-1.0664-9.1133-3.7383-12.199-7.5781-3.0898-3.8398-4.7734-8.6172-4.7812-13.543 0-3.2617 2.6445-5.9062 5.9062-5.9062 3.2578 0 5.9023 2.6445 5.9023 5.9062 0 3.9727 2.3945 7.5547 6.0625 9.0742 3.6719 1.5195 7.8945 0.67969 10.703-2.1289 2.8125-2.8086 3.6523-7.0352 2.1328-10.703-1.5195-3.6719-5.1016-6.0664-9.0742-6.0664z"/>
  <path d="m404.92 442.31h12.793v29.52h-12.793z"/>
  <path d="m455.1 442.31h15.742v29.52h-15.742z"/>
  <path d="m438.38 484.62h15.742v29.52h-15.742z"/>
  <path d="m429.52 525.95h13.777v29.52h-13.777z"/>
  <path d="m455.1 525.95h15.742v29.52h-15.742z"/>
  <path d="m362.61 484.62h12.793v29.52h-12.793z"/>
  <path d="m313.41 230.33v30.922h173.18v-30.922c-0.007813-6.2109-2.5039-12.16-6.9297-16.52-4.4258-4.3594-10.414-6.7617-16.625-6.6797h-126.07c-6.2109-0.082031-12.199 2.3203-16.625 6.6797-4.4258 4.3594-6.9219 10.309-6.9297 16.52z"/>
  <path d="m591.88 273.06h-384.75c-8.8711 0-17.383 3.5234-23.656 9.7969-6.2734 6.2773-9.7969 14.785-9.7969 23.66v253.87c0 8.875 3.5234 17.383 9.7969 23.656 6.2734 6.2773 14.785 9.8008 23.656 9.8008h384.75c8.875 0 17.383-3.5234 23.656-9.8008 6.2734-6.2734 9.8008-14.781 9.8008-23.656v-253.87c0-8.875-3.5273-17.383-9.8008-23.66-6.2734-6.2734-14.781-9.7969-23.656-9.7969zm-188.21 19.16c17.672 0 34.617 7.0195 47.113 19.516 12.496 12.496 19.516 29.445 19.516 47.113 0 17.672-7.0195 34.621-19.516 47.117-12.496 12.492-29.445 19.512-47.117 19.512-17.668 0-34.617-7.0195-47.113-19.516-12.496-12.492-19.516-29.441-19.516-47.113 0.019532-17.664 7.0469-34.602 19.539-47.09 12.492-12.492 29.426-19.52 47.094-19.539zm78.988 185.16c-0.003906 3.3438-2.6289 6.0938-5.9648 6.2578h-10.766v30.504h10.766c3.3438 0.17969 5.9648 2.9453 5.9648 6.2969v41.367c0 3.2617-2.7031 5.4727-5.9648 5.4727h-156.18c-3.2617 0-6.1172-2.2148-6.1172-5.4727v-35.859h-10.766c-3.2617 0-5.9609-3.0938-5.9609-6.3555v-41.367c0-3.2617 2.6992-5.4102 5.9609-5.4102h10.766v-36.805c0-3.2617 2.8555-5.5117 6.1172-5.5117l156.18 0.003906c3.2617 0 5.9648 2.2539 5.9648 5.5117z"/>
  <path d="m412.79 484.62h13.777v29.52h-13.777z"/>
  <path d="m379.34 525.95h13.777v29.52h-13.777z"/>
  <path d="m387.21 484.62h13.777v29.52h-13.777z"/>
  <path d="m404.92 525.95h12.793v29.52h-12.793z"/>
 </g>
</svg>