<?xml version="1.0" encoding="UTF-8"?>
<!-- The Best Svg Icon site in the world: iconSvg.co, Visit us! https://iconsvg.co -->
<svg fill="#000000" width="800px" height="800px" version="1.1" viewBox="144 144 512 512" xmlns="http://www.w3.org/2000/svg">
 <g>
  <path d="m270.89 389.09c0 46.445 37.785 84.23 84.23 84.23 45.672 0 82.887-36.555 84.117-81.934h0.11719c0-0.37109-0.050781-0.73047-0.058594-1.0977 0.011719-0.40234 0.058594-0.79687 0.058594-1.1992 0-46.441-37.785-84.227-84.23-84.227s-84.234 37.785-84.234 84.227zm153.29 1.1992c-0.64844 37.559-31.352 67.918-69.062 67.918-22.32 0-42.145-10.68-54.789-27.148 5.1133 1.9805 10.641 3.1016 16.445 3.1016 24.227 0 44.074-18.93 45.641-42.773h0.15625c0-16.918 13.828-30.676 30.832-30.676 16.633 0 30.191 13.176 30.777 29.578zm-69.055-70.312c23.32 0 43.938 11.637 56.457 29.379-5.5781-2.4102-11.719-3.7539-18.172-3.7539-24.312 0-44.223 18.934-45.797 42.773h-0.14453c0 16.914-13.766 30.676-30.684 30.676-16.918 0-30.676-13.758-30.676-30.676h-0.054687c0.38672-37.781 31.203-68.398 69.07-68.398z"/>
  <path d="m240.02 314.41c1.6133 0 3.2305-0.61328 4.457-1.8438l32.492-32.496c2.457-2.457 2.457-6.4453 0-8.9062-2.457-2.4648-6.4453-2.457-8.9062 0l-32.492 32.496c-2.457 2.457-2.457 6.4453 0 8.9062 1.2266 1.2305 2.8398 1.8438 4.4492 1.8438z"/>
  <path d="m247.52 324.52c1.2305 1.2305 2.8359 1.8438 4.4492 1.8438s3.2305-0.61328 4.457-1.8438l32.496-32.496c2.457-2.457 2.457-6.4453 0-8.9062-2.457-2.4648-6.4453-2.457-8.9062 0l-32.496 32.496c-2.457 2.457-2.457 6.4453 0 8.9062z"/>
  <path d="m259.48 336.47c1.2305 1.2305 2.8398 1.8438 4.4531 1.8438 1.6133 0 3.2227-0.61328 4.4531-1.8438l32.492-32.496c2.457-2.457 2.457-6.4492 0-8.9062-2.457-2.457-6.4453-2.457-8.9062 0l-32.492 32.496c-2.4609 2.4648-2.4609 6.4492 0 8.9062z"/>
  <path d="m446.25 440.27c-2.4492-2.4648-6.4336-2.4648-8.9062-0.003907l-9.3438 9.3438c-2.457 2.457-2.457 6.4453 0 8.9062 1.2305 1.2344 2.832 1.8477 4.4492 1.8477s3.2305-0.61328 4.457-1.8438l9.3438-9.3438c2.457-2.457 2.457-6.4492 0-8.9062z"/>
  <path d="m449.3 452.23-9.3438 9.3438c-2.457 2.457-2.457 6.4453 0 8.9062 1.2305 1.2305 2.8398 1.8438 4.457 1.8438 1.6172 0 3.2188-0.61328 4.4492-1.8438l9.3438-9.3438c2.457-2.457 2.457-6.4453 0-8.9062-2.457-2.4609-6.4453-2.4609-8.9062 0z"/>
  <path d="m446.25 327.57-9.3555-9.3516c-2.457-2.457-6.4453-2.457-8.9062 0-2.4648 2.457-2.457 6.4453 0 8.9062l9.3555 9.3516c1.2305 1.2305 2.832 1.8438 4.4492 1.8438s3.2305-0.61328 4.457-1.8438c2.457-2.4609 2.457-6.4453 0-8.9062z"/>
  <path d="m461.26 312.56c1.2305 1.2305 2.8398 1.8438 4.457 1.8438s3.2188-0.61328 4.4492-1.8438c2.457-2.457 2.457-6.4492 0-8.9062l-9.3438-9.3438c-2.457-2.4531-6.4453-2.457-8.9062 0-2.4648 2.457-2.457 6.4492 0 8.9062z"/>
  <path d="m414.19 313.32c1.2305 1.2344 2.8398 1.8477 4.457 1.8477 1.6016 0 3.2188-0.61328 4.4492-1.8438 2.457-2.457 2.457-6.4453 0-8.9062l-9.3398-9.3438c-2.4492-2.4648-6.4453-2.4648-8.9062-0.003906-2.4648 2.457-2.457 6.4453 0 8.9062z"/>
  <path d="m449.3 324.51c1.2305 1.2305 2.832 1.8438 4.4492 1.8438 1.6172 0 3.2305-0.61328 4.457-1.8438 2.457-2.457 2.457-6.4492 0-8.9062l-32.5-32.496c-2.457-2.457-6.4453-2.457-8.9062 0-2.4648 2.457-2.457 6.4492 0 8.9062z"/>
  <path d="m438.11 289.41c1.2305 1.2305 2.8398 1.8438 4.457 1.8438 1.6016 0 3.2188-0.61328 4.4492-1.8438 2.457-2.457 2.457-6.4453 0-8.9062l-9.3438-9.3516c-2.457-2.457-6.4453-2.457-8.9062 0-2.457 2.457-2.457 6.4453 0 8.9062z"/>
  <path d="m279.58 475.38c-2.457-2.4688-6.4453-2.4648-8.9062-0.003906-2.4648 2.457-2.4648 6.4453-0.011719 8.9062l9.3398 9.3516c1.2305 1.2344 2.8359 1.8477 4.4531 1.8477 1.6172 0 3.2227-0.61328 4.4531-1.8438 2.4648-2.457 2.4648-6.4453 0.003906-8.9062z"/>
  <path d="m244.47 464.18c-2.457-2.457-6.4453-2.457-8.9062 0-2.4648 2.457-2.457 6.4453 0 8.9062l32.492 32.496c1.2305 1.2305 2.8398 1.8438 4.457 1.8438 1.6055 0 3.2188-0.61328 4.4492-1.8438 2.457-2.457 2.457-6.4453 0-8.9062z"/>
  <path d="m247.52 452.22c-2.457 2.457-2.457 6.4453 0 8.9062l9.3438 9.3516c1.2227 1.2305 2.8359 1.8438 4.4492 1.8438s3.2305-0.61328 4.457-1.8438c2.457-2.457 2.457-6.4453 0-8.9062l-9.3438-9.3516c-2.457-2.457-6.4414-2.457-8.9062 0z"/>
  <path d="m268.58 440.07c-2.457-2.457-6.4453-2.457-8.9062 0-2.457 2.457-2.457 6.4453 0 8.9062l32.496 32.5c1.2305 1.2305 2.8359 1.8438 4.4531 1.8438 1.6172 0 3.2227-0.61328 4.4531-1.8438 2.457-2.457 2.457-6.4453 0-8.9062z"/>
  <path d="m607.21 383.96-0.79688-34.633c-0.10547-4.9688-2.4023-9.6016-6.2773-12.73-3.8281-3.0625-8.9062-4.3242-13.793-3.3672l-35.562 7.0703c-6.3789 1.2734-11.492 6.1836-13.027 12.48-1.5586 6.3086 0.71875 13.023 5.8047 17.109l3.9766 3.1836-22.773 27.105c0.27734-4.1719 0.39453-8.3789 0.36328-12.621-0.83594-92.891-77.09-168.47-169.98-168.47l-1.5586 0.003906c-93.719 0.85156-169.29 77.793-168.44 171.53 0.70312 78.934 55.875 145.31 129.41 163.5l-9.6328 9.668c-3.543 3.543-5.4922 8.2461-5.4922 13.254 0 5.0078 1.9492 9.7148 5.4922 13.262 2.5078 2.5039 6.9688 3.7734 13.254 3.7734 4.0469 0 7.25-0.58594 9.7539-1.6328h245.1c3.8945 0 7.0547-3.1523 7.0547-7.0547l0.003906-186.23c2.9414 2.3164 6.6094 3.6016 10.438 3.6016 9.2695 0 16.809-7.5352 16.809-16.797 0-0.67578-0.042969-1.3438-0.12109-1.9961zm-406.95 6.5156c-0.77344-85.395 68.078-155.5 153.47-156.27l1.4141-0.003907c84.637 0 154.09 68.855 154.87 153.5 0.10156 11.84-1.2578 23.34-3.6992 34.441l-35.773 42.582c-0.13672-0.17187-0.19531-0.38281-0.36328-0.54297-2.457-2.457-6.4453-2.457-8.9062 0l-9.3438 9.3438c-0.82812 0.82812-1.2695 1.8438-1.5469 2.8984l-25.418-13.922c-7.1523-3.9141-16.5-2.5781-22.27 3.1953l-75.426 75.68c-71.5-13.141-126.34-75.77-127-150.9zm365.71 187.87h-222.62l75.93-76.203 33.645 18.43c7.6484 4.1719 17.77 2.2539 23.352-4.3945l89.703-106.75v168.92zm22.797-190.29-8.5195-6.832c-3.0039-2.3984-7.3398-1.9688-9.8203 0.96875l-104.95 124.91c-1.3867 1.6562-3.9062 2.1211-5.7852 1.0898l-38.281-20.969c-2.7539-1.5-6.1719-1.0117-8.3945 1.2109l-90.852 91.184c-0.71875 0.16016-2.1172 0.35937-3.9844 0.35937-1.7578 0-3.0898-0.17187-3.8477-0.32812-0.51953-0.76172-0.79688-1.6641-0.79688-2.6016 0-1.2461 0.48438-2.4102 1.3672-3.2891l97.762-98.086c1.4258-1.4219 3.7383-1.7578 5.5234-0.78516l37.559 20.566c2.9609 1.6172 6.6211 0.92578 8.7852-1.6523l98.449-117.18c1.2188-1.457 1.8086-3.3398 1.6211-5.2305s-1.1328-3.6289-2.6211-4.8125l-9.6016-7.6836c-0.81641-0.65625-1.1797-1.7344-0.92578-2.7539 0.24609-1.0117 1.0625-1.793 2.0742-2l35.562-7.0703c0.79687-0.15234 1.6016 0.050782 2.207 0.52734 0.62109 0.50391 0.99219 1.25 1.0117 2.0508l0.80469 35.004c0 0.28125 0.058594 1.0234 0.10156 1.3008 0.003906 2.0664-2.7539 3.457-4.4453 2.1016z"/>
 </g>
</svg>