<?xml version="1.0" encoding="UTF-8"?>
<!-- The Best Svg Icon site in the world: iconSvg.co, Visit us! https://iconsvg.co -->
<svg fill="#000000" width="800px" height="800px" version="1.1" viewBox="144 144 512 512" xmlns="http://www.w3.org/2000/svg">
 <g>
  <path d="m598.67 419.19h-30.504v-94.258c0.003907-1.2031-0.47656-2.3516-1.3281-3.1992-0.80078-0.92969-1.9961-1.4141-3.2188-1.3086l-32.984 0.24609v-36.406c0.058594-1.2344-0.39062-2.4375-1.2422-3.332-0.85156-0.89063-2.0312-1.3984-3.2656-1.3984-1.2383 0-2.418 0.50781-3.2695 1.3984-0.85156 0.89453-1.3008 2.0977-1.2422 3.332v36.406l-33.055 0.31641c-2.4844 0.015625-4.4883 2.0312-4.4883 4.5156v93.688h-25.938v-181.18c0.007813-1.5312-0.76172-2.9609-2.0469-3.7969l-103.32-66.039c-1.3867-0.88672-3.1484-0.94531-4.5977-0.15625-1.4453 0.79297-2.3438 2.3086-2.3477 3.957v247.21h-23.715v-133.2c0.003906-1.1953-0.47266-2.3477-1.3164-3.1953-0.84766-0.84375-1.9922-1.3203-3.1914-1.3203h-80.688c-1.1992-0.003906-2.3477 0.47266-3.1953 1.3203s-1.3242 1.9961-1.3203 3.1953v133.2h-31.066c-2.4961 0-4.5156 2.0195-4.5156 4.5156s2.0195 4.5156 4.5156 4.5156h35.562c1.1953 0 2.3438-0.47656 3.1914-1.3242 0.84375-0.84375 1.3164-1.9961 1.3164-3.1914v-133.2h71.684v133.2c-0.003906 1.1992 0.47266 2.3477 1.3203 3.1953 0.84766 0.84766 1.9961 1.3242 3.1953 1.3203h32.738c1.1953 0 2.3438-0.47656 3.1914-1.3242 0.84375-0.84375 1.3164-1.9961 1.3164-3.1914v-64.766h45.156c1.2305 0.054688 2.4336-0.39453 3.3281-1.2461 0.89062-0.85156 1.3984-2.0312 1.3984-3.2656s-0.50781-2.418-1.3984-3.2695c-0.89453-0.85156-2.0977-1.3008-3.3281-1.2422h-45.156v-33.379h45.156c2.4922 0 4.5156-2.0234 4.5156-4.5156 0-2.4961-2.0234-4.5156-4.5156-4.5156h-45.156v-33.371h45.156c1.2305 0.058594 2.4336-0.39062 3.3281-1.2422 0.89062-0.85156 1.3984-2.0312 1.3984-3.2695 0-1.2344-0.50781-2.4141-1.3984-3.2656-0.89453-0.85156-2.0977-1.3008-3.3281-1.2422h-45.156v-84.891l94.258 60.27v183.21c0 1.1992 0.47266 2.3477 1.3203 3.1953 0.84766 0.84375 1.9961 1.3203 3.1953 1.3203h34.992c1.1953 0 2.3438-0.47656 3.1914-1.3203 0.84766-0.84766 1.3242-1.9961 1.3242-3.1953v-25.398h66.035v25.398c0 1.1992 0.47266 2.3477 1.3203 3.1953 0.84766 0.84766 2 1.3242 3.1953 1.3203h34.992c2.4961 0 4.5156-2.0195 4.5156-4.5156s-2.0195-4.5156-4.5156-4.5156zm-39.508-89.703v25.93h-66.035v-25.438zm-66.035 59.789v-24.836h66.035v24.836z"/>
  <path d="m261.63 340.17c1.1953 0 2.3477-0.47656 3.1914-1.3242 0.84766-0.84766 1.3242-1.9961 1.3242-3.1914v-23.617c0-2.4961-2.0234-4.5156-4.5156-4.5156-2.4961 0-4.5156 2.0195-4.5156 4.5156v23.617c-0.003906 1.1953 0.46875 2.3477 1.3164 3.1953 0.84766 0.84766 2 1.3203 3.1992 1.3203z"/>
  <path d="m290.97 340.17c1.1953 0 2.3477-0.47266 3.1953-1.3203 0.84766-0.84766 1.3203-2 1.3203-3.1953v-23.617c0.058594-1.2344-0.39453-2.4375-1.2461-3.3281-0.85156-0.89453-2.0312-1.3984-3.2656-1.3984-1.2344 0-2.4141 0.50391-3.2695 1.3984-0.85156 0.89062-1.3008 2.0938-1.2422 3.3281v23.617c-0.003906 1.1953 0.46875 2.3438 1.3164 3.1914 0.84375 0.84766 1.9922 1.3242 3.1914 1.3242z"/>
  <path d="m257.11 397.49c0 2.4961 2.0195 4.5195 4.5156 4.5195 2.4922 0 4.5156-2.0234 4.5156-4.5195v-23.617 0.003906c0-2.4961-2.0234-4.5195-4.5156-4.5195-2.4961 0-4.5156 2.0234-4.5156 4.5195z"/>
  <path d="m286.46 397.49c-0.058594 1.2344 0.39062 2.4375 1.2422 3.3281 0.85547 0.89453 2.0352 1.3984 3.2695 1.3984 1.2344 0 2.4141-0.50391 3.2656-1.3984 0.85156-0.89062 1.3047-2.0938 1.2461-3.3281v-23.617 0.003906c0.058594-1.2344-0.39453-2.4375-1.2461-3.332-0.85156-0.89062-2.0312-1.3984-3.2656-1.3984-1.2344 0-2.4141 0.50781-3.2695 1.3984-0.85156 0.89453-1.3008 2.0977-1.2422 3.332z"/>
  <path d="m475.34 442.89c-17.223 0-33.742 6.8438-45.922 19.023-12.18 12.18-19.023 28.695-19.023 45.922 0 17.223 6.8438 33.742 19.023 45.922 12.18 12.18 28.699 19.023 45.922 19.023s33.742-6.8438 45.922-19.023c12.18-12.18 19.023-28.699 19.023-45.922 0-17.227-6.8438-33.742-19.023-45.922-12.18-12.18-28.699-19.023-45.922-19.023zm0 120.79c-14.82 0-29.035-5.8867-39.516-16.367-10.48-10.477-16.367-24.691-16.367-39.512s5.8867-29.035 16.367-39.516 24.695-16.367 39.516-16.367 29.035 5.8867 39.516 16.367c10.477 10.48 16.367 24.695 16.367 39.516-0.015624 14.816-5.9062 29.023-16.383 39.5s-24.684 16.367-39.5 16.379z"/>
  <path d="m296.33 467.16c-11.297 0.011719-22.133 4.5078-30.117 12.508-7.9844 7.9961-12.465 18.836-12.457 30.137 0.003907 11.301 4.5 22.137 12.496 30.121 7.9922 7.9883 18.832 12.473 30.133 12.469s22.137-4.4961 30.125-12.488c7.9922-7.9883 12.48-18.828 12.48-30.129-0.011719-11.305-4.5117-22.145-12.508-30.137-8-7.9922-18.844-12.48-30.152-12.48zm0 76.203c-8.9062 0-17.449-3.5391-23.746-9.8398-6.2969-6.2969-9.8359-14.84-9.8359-23.746s3.5391-17.449 9.8359-23.746c6.2969-6.3008 14.84-9.8359 23.746-9.8359 8.9102 0 17.449 3.5352 23.75 9.8359 6.2969 6.2969 9.8359 14.84 9.8359 23.746-0.011719 8.9023-3.5508 17.441-9.8477 23.738-6.2969 6.293-14.832 9.8359-23.738 9.8477z"/>
  <path d="m391.54 567.06c-8.6836-0.003906-17.016 3.4453-23.156 9.5898-6.1445 6.1406-9.5938 14.473-9.5898 23.156 0.003907 8.6875 3.457 17.016 9.6016 23.156 6.1445 6.1367 14.48 9.582 23.164 9.5742 8.6875-0.007812 17.016-3.4688 23.148-9.6172s9.5742-14.484 9.5625-23.172c-0.023437-8.668-3.4766-16.977-9.6133-23.105-6.1328-6.125-14.445-9.5703-23.117-9.582zm0 56.441c-6.2852 0.003906-12.316-2.4922-16.766-6.9336-4.4492-4.4453-6.9531-10.473-6.957-16.762-0.007812-6.2852 2.4844-12.32 6.9297-16.77 4.4414-4.4492 10.469-6.957 16.754-6.9648 6.2891-0.007813 12.32 2.4844 16.773 6.9219 4.4531 4.4414 6.9609 10.469 6.9727 16.754 0 6.293-2.4922 12.328-6.9375 16.781-4.4453 4.457-10.477 6.9648-16.77 6.9727z"/>
  <path d="m475.93 499c-4.6289 0-8.8047-2.793-10.574-7.0703-1.7695-4.2773-0.78906-9.2031 2.4883-12.473 3.2773-3.2734 8.2031-4.2461 12.48-2.4688 4.2734 1.7773 7.0586 5.957 7.0508 10.586-0.058594 1.2344 0.39062 2.4375 1.2422 3.3281 0.85156 0.89453 2.0352 1.3984 3.2695 1.3984s2.4141-0.50391 3.2656-1.3984c0.85156-0.89062 1.3008-2.0938 1.2461-3.3281-0.007813-4.6445-1.5898-9.1445-4.4883-12.773-2.9023-3.625-6.9453-6.1602-11.473-7.1914v-4.7227c0.058594-1.2344-0.39453-2.4375-1.2461-3.3281-0.85156-0.89453-2.0312-1.3984-3.2656-1.3984-1.2344 0-2.4141 0.50391-3.2695 1.3984-0.85156 0.89062-1.3008 2.0938-1.2422 3.3281v4.7227c-6.6016 1.5039-12.031 6.1719-14.508 12.469-2.4766 6.3008-1.6836 13.414 2.125 19.012 3.8047 5.5977 10.129 8.9531 16.898 8.9609 4.1602 0 8.1445 1.6523 11.086 4.5938 2.9375 2.9414 4.5898 6.9297 4.5898 11.086s-1.6523 8.1445-4.5938 11.086c-2.9414 2.9375-6.9297 4.5859-11.09 4.5859-4.1562 0-8.1445-1.6562-11.082-4.5977-2.9375-2.9414-4.5859-6.9297-4.5859-11.086 0-2.4961-2.0195-4.5195-4.5156-4.5195-2.4961 0-4.5156 2.0234-4.5156 4.5195 0.007813 5.7656 2.0273 11.348 5.7148 15.781 3.6875 4.4375 8.8086 7.4414 14.477 8.5039v4.6328c-0.058594 1.2344 0.39062 2.4375 1.2422 3.3281 0.85547 0.89453 2.0352 1.3984 3.2695 1.3984 1.2344 0 2.4141-0.50391 3.2656-1.3984 0.85156-0.89062 1.3047-2.0938 1.2461-3.3281v-4.6328c8.1484-1.5117 14.996-7.0078 18.234-14.637 3.2383-7.6289 2.4336-16.375-2.1406-23.285-4.5781-6.9102-12.312-11.066-20.602-11.062z"/>
 </g>
</svg>