<?xml version="1.0" encoding="UTF-8"?>
<!-- The Best Svg Icon site in the world: iconSvg.co, Visit us! https://iconsvg.co -->
<svg fill="#000000" width="800px" height="800px" version="1.1" viewBox="144 144 512 512" xmlns="http://www.w3.org/2000/svg">
 <g>
  <path d="m448.44 392.06c-1.9219 1.3008-4.4414 1.3008-6.3633 0l-8.6211-5.6719v74.301l23.617 0.023438v-74.324z"/>
  <path d="m486.92 471.83h-112.93c-2.4453 0.14062-4.6992-1.332-5.5586-3.625-0.85547-2.2969-0.12109-4.8828 1.8203-6.3828l20.91-17.098c5.457-4.3398 8.8633-10.762 9.4023-17.719 0.44922-6.8086-1.957-13.496-6.6367-18.461-0.066407-0.074219-0.13281-0.14062-0.19531-0.21484l-2.2734-2.7383-113.48 59.172c-17.734 9.2305-28.535 26.668-28.535 45.512v68.836c0 28.746 25.047 52.156 56.07 52.188l8.4375 0.007813c56.84 0.054687 110.72 0.10547 149.75 0.015625 9.2383-0.019531 16.984-6.8828 16.984-15.293v-0.47266c0.003906-8.4258-8.1016-15.809-17.367-15.809h-47.707c-3.2578 0-5.9023-2.6406-5.9023-5.9023 0-3.2617 2.6445-5.9062 5.9023-5.9062h59.223c9.2656 0 16.801-6.7891 16.801-15.227 0-8.4805-7.5352-15.277-16.801-15.277h-60.73c-3.2578 0-5.9023-2.6406-5.9023-5.9023 0-3.2617 2.6445-5.9023 5.9023-5.9023h68.039c9.2656 0 17.242-6.4766 17.242-14.91v-0.5c0-8.207-7.5859-15.098-16.516-16.078h-72.301c-3.2617 0-5.9062-2.6445-5.9062-5.9062s2.6445-5.9023 5.9062-5.9023h71.176c0.31641 0.13281 0.625 0.30078 0.91406 0.49219v0.097656s0.10938-0.58984 0.41406-0.58984h3.8359c9.2656 0 16.805-6.7656 16.805-15.199 0-8.4336-7.5352-15.305-16.793-15.305z"/>
  <path d="m445.24 214.41c-15.898 0-31.141 6.3164-42.383 17.555-11.238 11.242-17.555 26.488-17.555 42.383 0 15.898 6.3164 31.141 17.555 42.383 11.242 11.238 26.488 17.555 42.383 17.555 15.898 0 31.141-6.3164 42.383-17.559 11.238-11.238 17.555-26.484 17.555-42.383-0.019532-15.891-6.3398-31.121-17.578-42.359-11.234-11.234-26.469-17.555-42.359-17.574zm0 56.211c7.7812-0.0625 15.062 3.8164 19.355 10.309 4.2891 6.4922 5 14.711 1.8945 21.844-3.1094 7.1328-9.6172 12.207-17.293 13.484v4.4414c0 3.2617-2.6445 5.9023-5.9062 5.9023-3.2578 0-5.9023-2.6406-5.9023-5.9023v-5.707c-4.375-1.6172-8.1523-4.5352-10.816-8.3633-2.6641-3.8281-4.0898-8.3828-4.082-13.047-0.027344-1.5664 0.57031-3.0742 1.668-4.1914 1.0977-1.1172 2.5938-1.7461 4.1602-1.7461 1.5625 0 3.0625 0.62891 4.1562 1.7461 1.0977 1.1172 1.6992 2.625 1.668 4.1914 0.007813 4.5 2.7266 8.5547 6.8906 10.27 4.1602 1.7148 8.9453 0.75391 12.125-2.4375 3.1758-3.1875 4.1172-7.9766 2.3867-12.133s-5.7969-6.8594-10.297-6.8477c-7.2031-0.046876-13.961-3.4727-18.25-9.2578-4.293-5.7812-5.6133-13.246-3.5703-20.148 2.043-6.9062 7.2148-12.445 13.961-14.961v-5.9297c0-3.2578 2.6445-5.9023 5.9023-5.9023 3.2617 0 5.9062 2.6445 5.9062 5.9023v4.6602c5.3711 0.88672 10.25 3.6562 13.766 7.8125 3.5195 4.1523 5.4453 9.4219 5.4375 14.867-0.058594 3.2617-2.7188 5.8711-5.9805 5.8711s-5.9219-2.6094-5.9805-5.8711c0.007813-4.5156-2.7031-8.5898-6.8711-10.328-4.168-1.7344-8.9727-0.79297-12.172 2.3945-3.2031 3.1836-4.168 7.9844-2.4531 12.16 1.7188 4.1758 5.7812 6.9062 10.297 6.918z"/>
  <path d="m550.96 274.34-14.777-22.406c-0.69531-1.0586-1.0352-2.3086-0.96484-3.5742l1.4766-26.883-23.902-12.078c-1.125-0.57031-2.0391-1.4844-2.6094-2.6094l-12.078-23.902-26.883 1.4766c-1.2656 0.070313-2.5195-0.26953-3.5742-0.96484l-22.406-14.773-22.41 14.777c-1.0547 0.69531-2.3086 1.0352-3.5742 0.96484l-26.883-1.4766-12.078 23.91h0.003906c-0.57031 1.125-1.4805 2.0391-2.6094 2.6094l-23.906 12.066 1.4766 26.883c0.070312 1.2656-0.26953 2.5156-0.96484 3.5742l-14.773 22.406 14.777 22.41c0.69531 1.0586 1.0352 2.3125 0.96484 3.5742l-1.4766 26.883 23.902 12.078c1.1289 0.57031 2.0391 1.4844 2.6094 2.6094l12.078 23.91 26.883-1.4766c0.10938-0.007813 0.21484-0.007813 0.32422-0.007813h-0.003907c1.1562 0 2.2852 0.33984 3.25 0.97266l22.41 14.773 22.41-14.773h-0.003906c1.0586-0.69922 2.3125-1.0352 3.5742-0.96484l26.883 1.4766 12.078-23.91c0.56641-1.125 1.4805-2.0391 2.6055-2.6094l23.91-12.078-1.4766-26.883 0.003906 0.003906c-0.070312-1.2656 0.26953-2.5195 0.96484-3.5742zm-105.72 71.75c-19.027 0-37.277-7.5625-50.73-21.016-13.457-13.453-21.016-31.703-21.016-50.73s7.5586-37.277 21.016-50.73c13.453-13.457 31.703-21.016 50.73-21.016 19.027 0 37.273 7.5586 50.73 21.012 13.453 13.457 21.012 31.703 21.016 50.73-0.023437 19.023-7.5898 37.258-21.039 50.711-13.449 13.449-31.688 21.016-50.707 21.039z"/>
 </g>
</svg>