<?xml version="1.0" encoding="UTF-8"?>
<!-- The Best Svg Icon site in the world: iconSvg.co, Visit us! https://iconsvg.co -->
<svg fill="#000000" width="800px" height="800px" version="1.1" viewBox="144 144 512 512" xmlns="http://www.w3.org/2000/svg">
 <path d="m613.59 381.8-0.78906-34.59c-0.11719-5.1094-2.4688-9.8828-6.4727-13.109-3.9336-3.1523-9.168-4.4688-14.203-3.4648l-35.57 7.0742c-6.5703 1.3164-11.84 6.3672-13.422 12.863-1.5938 6.4922 0.75 13.406 5.9844 17.617l3.5703 2.8633-7.0312 8.375c-6.3242-89.332-81.344-160.33-172.03-160.33l-1.5781 0.003907c-95.113 0.85547-171.81 78.938-170.95 174.06 0.67188 74.555 49.23 138.04 116.12 161.37l-6.7812 6.8047c-3.6367 3.6367-5.6367 8.4688-5.6367 13.613s2 9.9766 5.6445 13.617c2.6094 2.6016 7.1836 3.918 13.609 3.918 4.0547 0 7.2812-0.58594 9.8359-1.6328h245.01c4.1758 0 7.5586-3.3789 7.5586-7.5586l-0.007813-185.31c2.8906 2.0156 6.3398 3.1641 9.9453 3.1641 9.543 0 17.301-7.7656 17.301-17.301 0.007813-0.69141-0.027344-1.375-0.10938-2.0469zm-82.84 0.83594-50.266 0.45312c-1.0234-29.488-6.4336-56.82-15.219-80.395 9.8398-3.9414 19.059-8.5039 27.477-13.633 21.965 25.473 35.98 57.965 38.008 93.574zm-0.5 15.121-60.938 72.527c6.8906-22.152 10.758-46.613 11.199-72.078zm-148.46 63.445-0.55859-62.109 84.168-0.75391c-0.49219 26.301-4.7852 51.379-12.473 73.582l-21.852-11.965c-7.2188-3.9492-16.586-2.6719-22.531 2.9922-8.7383-0.99219-17.672-1.5859-26.754-1.7461zm12.84 15.656-12.586 12.625-0.11719-13.273c4.2656 0.089844 8.4961 0.32422 12.703 0.64844zm-13.535-92.875-0.57422-64.078c24.672-0.89844 48.672-5.0586 70.363-12.043 8.2773 22.062 13.477 47.777 14.488 75.359zm100.94-106.16c-6.9922 4.0625-14.535 7.7227-22.562 10.934-8.1523-17.695-18.348-32.719-30.066-44.238 19.73 7.5469 37.582 18.957 52.629 33.305zm-37.035 16.094c-19.891 6.2656-41.918 10.027-64.617 10.879l-0.62891-70.074c26.223 3.4453 49.555 25.848 65.246 59.195zm-77.938 210.61-30.301 30.406c-13.914-10.715-26.086-27.039-35.402-47.43 20.113-6.4219 42.43-10.289 65.449-11.156zm-0.39062-43.293c-24.938 0.90625-49.184 5.1602-71.051 12.273-7.8789-21.637-12.809-46.703-13.793-73.512l84.289-0.75391zm-0.69141-77.105-84.289 0.75391c0.51953-27.613 5.2383-53.418 13.121-75.605 21.703 6.5898 45.605 10.258 70.594 10.688zm-1.3438-149.21 0.62891 70.016c-22.727-0.46484-44.824-3.8359-64.809-9.7305 15.051-33.473 37.922-56.203 64.18-60.285zm-48.191 10.07c-11.789 11.871-22.008 27.367-30.082 45.508-8.3047-3.125-16.121-6.7148-23.332-10.746 15.125-14.949 33.254-26.875 53.414-34.762zm-63.809 46.086c8.6953 5.125 18.102 9.5977 28.117 13.41-8.5586 23.824-13.648 51.262-14.172 80.539l-50.246 0.45312c1.3828-35.781 14.793-68.562 36.301-94.402zm-36.16 109.52 50.238-0.45312c0.99609 28.738 6.1758 55.418 14.574 78.578-10.051 4.0664-19.438 8.7852-27.98 14.098-21.297-25.262-34.84-57.242-36.832-92.223zm47.328 103.51c7.1406-4.2422 14.898-8.0469 23.145-11.387 8.2773 18.449 18.746 34.094 30.848 45.988-20.328-7.7734-38.664-19.637-53.992-34.602zm307.54 71.648h-220.9l74.805-75.074 33.309 18.242c7.8281 4.2812 18.238 2.3164 23.98-4.5078l88.812-105.7v167.04zm23.621-190.18-8.5234-6.832c-3.2031-2.5742-7.8711-2.1055-10.508 1.0391l-104.97 124.91c-1.2461 1.4727-3.4805 1.8828-5.1602 0.97266l-38.281-20.969c-2.9492-1.6172-6.6094-1.0898-8.9844 1.293l-90.742 91.082c-1.3711 0.28125-5.707 0.32812-7.2734 0.035156-0.38672-0.64062-0.59766-1.375-0.59766-2.1445 0-1.1094 0.42969-2.1445 1.2188-2.9375l97.758-98.09c1.2656-1.2656 3.332-1.5664 4.9219-0.69922l37.562 20.566c3.1602 1.7266 7.0977 0.99219 9.418-1.7695l98.449-117.18c1.3086-1.5586 1.9336-3.5781 1.7344-5.6016-0.20313-2.0234-1.2109-3.8828-2.7969-5.1523l-9.5977-7.6836c-0.66406-0.53516-0.96875-1.4141-0.76172-2.2461 0.20312-0.82031 0.86719-1.4609 1.6875-1.6211l35.996-7.1133c0.5 0 0.98438 0.17188 1.3555 0.46875 0.51562 0.41406 0.81641 1.0234 0.83203 1.6719l0.80078 35.004c0.003907 0.32813 0.054688 0.96875 0.10547 1.2891-0.019531 1.6641-2.2461 2.8203-3.6445 1.6992z"/>
</svg>