<?xml version="1.0" encoding="UTF-8"?>
<!-- The Best Svg Icon site in the world: iconSvg.co, Visit us! https://iconsvg.co -->
<svg fill="#000000" width="800px" height="800px" version="1.1" viewBox="144 144 512 512" xmlns="http://www.w3.org/2000/svg">
 <g>
  <path d="m620.41 518.08v-23.617h-440.83v23.617c0 2.0898 0.82812 4.0898 2.3047 5.5664 1.4766 1.4766 3.4805 2.3047 5.5664 2.3047h425.09c2.0898 0 4.0898-0.82812 5.5664-2.3047 1.4766-1.4766 2.3047-3.4766 2.3047-5.5664zm-39.359 0h-15.742c-4.3477 0-7.875-3.5234-7.875-7.8711 0-4.3477 3.5273-7.8711 7.875-7.8711h15.742c4.3477 0 7.8711 3.5234 7.8711 7.8711 0 4.3477-3.5234 7.8711-7.8711 7.8711z"/>
  <path d="m400 415.74c31.316 0 61.348-12.441 83.492-34.586 22.145-22.145 34.586-52.176 34.586-83.492 0-31.32-12.441-61.352-34.586-83.496-22.145-22.145-52.176-34.586-83.492-34.586s-61.352 12.441-83.496 34.586c-22.145 22.145-34.586 52.176-34.586 83.496 0.039062 31.305 12.492 61.316 34.625 83.453 22.137 22.137 52.148 34.586 83.457 34.625zm0-220.42c27.141 0 53.168 10.785 72.359 29.977 19.195 19.191 29.977 45.219 29.977 72.363 0 27.141-10.781 53.168-29.977 72.359-19.191 19.191-45.219 29.977-72.359 29.977-27.145 0-53.172-10.785-72.363-29.977-19.191-19.191-29.973-45.219-29.973-72.359 0.03125-27.133 10.82-53.145 30.008-72.328 19.184-19.188 45.195-29.98 72.328-30.012z"/>
  <path d="m352.77 541.7h94.465v31.488h-94.465z"/>
  <path d="m510.21 596.8c0-2.0898-0.82812-4.0898-2.3047-5.5664-1.4766-1.4766-3.4805-2.3086-5.5664-2.3086h-204.67c-4.3477 0-7.875 3.5273-7.875 7.875v23.617l220.42-0.003907z"/>
  <path d="m400 384.25c22.965 0 44.988-9.1211 61.227-25.363 16.242-16.238 25.363-38.262 25.363-61.227 0-22.969-9.1211-44.992-25.363-61.23-16.238-16.242-38.262-25.363-61.227-25.363-22.969 0-44.992 9.1211-61.23 25.363-16.238 16.238-25.363 38.262-25.363 61.23 0.027344 22.957 9.1602 44.965 25.391 61.199 16.234 16.23 38.246 25.363 61.203 25.391zm78.336-94.426c0.25 2.5742 0.38672 5.1875 0.38672 7.8711l-0.003906 0.003906c0 4.3477-3.5234 7.8711-7.8711 7.8711s-7.8711-3.5234-7.8711-7.8711c0-2.125-0.10156-4.2109-0.30859-6.2969v-0.003906c-0.43359-4.3242 2.7188-8.1836 7.0469-8.6172 4.3242-0.4375 8.1836 2.7188 8.6172 7.043zm-53.844-59.117h-0.003907c1.9414-3.8867 6.668-5.4688 10.555-3.5273 15.773 7.9023 28.469 20.832 36.078 36.746 0.92578 1.8906 1.0547 4.0703 0.36328 6.0547-0.69531 1.9844-2.1523 3.6094-4.0508 4.5156-1.8984 0.90234-4.082 1.0078-6.0586 0.29297-1.9766-0.71484-3.5859-2.1914-4.4688-4.1016-6.0977-12.742-16.258-23.094-28.883-29.426-3.8672-1.9375-5.4492-6.6328-3.5352-10.516zm-16.621 74.824h-15.746c-8.4375 0-16.23-4.5039-20.449-11.809-4.2188-7.3086-4.2188-16.309 0-23.617 4.2188-7.3047 12.012-11.809 20.449-11.809v-7.8711c0-4.3477 3.5273-7.8711 7.875-7.8711s7.8711 3.5234 7.8711 7.8711v7.8711c6.2617 0 12.27 2.4883 16.699 6.918 4.4297 4.4297 6.918 10.438 6.918 16.699 0 4.3477-3.5273 7.8711-7.875 7.8711-4.3477 0-7.8711-3.5234-7.8711-7.8711 0-2.0859-0.82813-4.0898-2.3047-5.5664-1.4766-1.4766-3.4805-2.3047-5.5664-2.3047h-15.746c-4.3477 0-7.8711 3.5234-7.8711 7.8711 0 4.3477 3.5234 7.8711 7.8711 7.8711h15.746c8.4375 0 16.234 4.5039 20.453 11.809 4.2188 7.3086 4.2188 16.309 0 23.617-4.2188 7.3047-12.016 11.809-20.453 11.809v7.8711c0 4.3477-3.5234 7.8711-7.8711 7.8711s-7.875-3.5234-7.875-7.8711v-7.8711c-6.2617 0-12.27-2.4883-16.699-6.918-4.4258-4.4297-6.9141-10.438-6.9141-16.699 0-4.3477 3.5234-7.8711 7.8711-7.8711 4.3477 0 7.8711 3.5234 7.8711 7.8711 0 2.0859 0.82812 4.0898 2.3047 5.5664 1.4766 1.4766 3.4805 2.3047 5.5664 2.3047h15.746c4.3477 0 7.8711-3.5234 7.8711-7.8711s-3.5234-7.8711-7.8711-7.8711zm-77.281 8.3984c1.9688-0.69922 4.1328-0.58594 6.0195 0.3125 1.8828 0.89453 3.3359 2.5078 4.0352 4.4727 6.4375 17.82 20.465 31.855 38.281 38.297 2.0156 0.66406 3.6836 2.1094 4.6172 4.0195 0.93359 1.9062 1.0586 4.1094 0.34375 6.1094-0.71094 2-2.2031 3.625-4.1328 4.5117-1.9336 0.88281-4.1367 0.94922-6.1172 0.18359-22.348-7.918-39.922-25.5-47.832-47.848-0.69922-1.9648-0.58984-4.1328 0.30859-6.0195 0.89844-1.8867 2.5078-3.3398 4.4766-4.0391z"/>
  <path d="m270.03 266.18h-66.832v188.93h393.6v-188.93h-66.836c10.258 41.586-0.21094 85.57-28.102 118.08h20.152c9.8438 0 18.938 5.2539 23.859 13.777s4.9219 19.027 0 27.551c-4.9219 8.5234-14.016 13.777-23.859 13.777h-244.04c-9.8398 0-18.938-5.2539-23.859-13.777-4.9219-8.5234-4.9219-19.027 0-27.551s14.02-13.777 23.859-13.777h20.152c-27.891-32.508-38.359-76.492-28.102-118.08z"/>
  <path d="m179.58 250.43v228.29h440.83v-228.29c0-2.0859-0.82812-4.0898-2.3047-5.5664-1.4766-1.4766-3.4766-2.3047-5.5664-2.3047h-90.766c1.1797 2.5977 2.2812 5.1953 3.3047 7.8711h79.59c2.0859 0 4.0898 0.82812 5.5664 2.3047 1.4766 1.4766 2.3047 3.4805 2.3047 5.5664v204.68c0 2.0859-0.82812 4.0898-2.3047 5.5664-1.4766 1.4727-3.4805 2.3047-5.5664 2.3047h-409.35c-4.3477 0-7.8711-3.5234-7.8711-7.8711v-204.68c0-4.3477 3.5234-7.8711 7.8711-7.8711h79.586c1.0234-2.6758 2.125-5.2734 3.3047-7.8711h-90.762c-4.3477 0-7.8711 3.5234-7.8711 7.8711z"/>
  <path d="m277.98 400c-3.1328-0.015625-6.1406 1.2344-8.3438 3.4609-3.3711 3.3789-4.3789 8.4531-2.5547 12.863 1.8281 4.4102 6.1289 7.2852 10.898 7.2891h77.227c-15.055-5.3359-29.023-13.336-41.25-23.613z"/>
  <path d="m522.02 423.61c3.1328 0.015625 6.1406-1.2344 8.3438-3.4609 3.3711-3.3789 4.3789-8.4531 2.5547-12.863-1.8242-4.4102-6.125-7.2852-10.898-7.2891h-35.977c-12.223 10.277-26.195 18.277-41.25 23.613z"/>
 </g>
</svg>