<?xml version="1.0" encoding="UTF-8"?>
<!-- The Best Svg Icon site in the world: iconSvg.co, Visit us! https://iconsvg.co -->
<svg fill="#000000" width="800px" height="800px" version="1.1" viewBox="144 144 512 512" xmlns="http://www.w3.org/2000/svg">
 <path d="m588.93 289.79h-78.719c-8.3516 0-16.359 3.3203-22.266 9.2227-5.9062 5.9062-9.2227 13.914-9.2227 22.266v283.39c0 4.1758 1.6602 8.1797 4.6094 11.133 2.9531 2.9531 6.9609 4.6094 11.133 4.6094h110.21c4.1758 0 8.1797-1.6562 11.133-4.6094 2.9531-2.9531 4.6094-6.957 4.6094-11.133v-283.39c0-8.3516-3.3164-16.359-9.2227-22.266-5.9023-5.9023-13.914-9.2227-22.266-9.2227zm0 299.14h-78.719v-267.65h78.719zm-149.57-409.34h-78.723c-8.3477 0-16.359 3.3164-22.266 9.2227-5.9023 5.9062-9.2227 13.914-9.2227 22.266v393.6c0 4.1758 1.6602 8.1797 4.6133 11.133 2.9531 2.9531 6.957 4.6094 11.133 4.6094h110.21c4.1758 0 8.1797-1.6562 11.133-4.6094 2.9531-2.9531 4.6133-6.957 4.6133-11.133v-393.6c0-8.3516-3.3203-16.359-9.2227-22.266-5.9062-5.9062-13.914-9.2227-22.266-9.2227zm0 409.34h-78.719l-0.003906-377.86h78.719zm-149.57-220.41h-78.719c-8.3516 0-16.359 3.3164-22.266 9.2227-5.9062 5.9023-9.2227 13.914-9.2227 22.266v204.67c0 4.1758 1.6602 8.1797 4.6094 11.133 2.9531 2.9531 6.957 4.6094 11.133 4.6094h110.21c4.1758 0 8.1797-1.6562 11.133-4.6094 2.9531-2.9531 4.6094-6.957 4.6094-11.133v-204.67c0-8.3516-3.3164-16.363-9.2227-22.266-5.9023-5.9062-13.914-9.2227-22.266-9.2227zm0 220.41h-78.719v-188.93h78.719z"/>
</svg>