<?xml version="1.0" encoding="UTF-8"?>
<!-- The Best Svg Icon site in the world: iconSvg.co, Visit us! https://iconsvg.co -->
<svg fill="#000000" width="800px" height="800px" version="1.1" viewBox="144 144 512 512" xmlns="http://www.w3.org/2000/svg">
 <g>
  <path d="m246.16 342.93h98.098c3.2617 0 5.9023-2.6445 5.9023-5.9023 0-3.2617-2.6406-5.9062-5.9023-5.9062h-98.098c-3.2617 0-5.9023 2.6445-5.9023 5.9062 0 3.2578 2.6406 5.9023 5.9023 5.9023z"/>
  <path d="m437.33 396.06h-191.17c-3.2617 0-5.9023 2.6445-5.9023 5.9023 0 3.2617 2.6406 5.9062 5.9023 5.9062h191.17c3.2617 0 5.9062-2.6445 5.9062-5.9062 0-3.2578-2.6445-5.9023-5.9062-5.9023z"/>
  <path d="m437.33 461.01h-191.17c-3.2617 0-5.9023 2.6406-5.9023 5.9023 0 3.2617 2.6406 5.9062 5.9023 5.9062h191.17c3.2617 0 5.9062-2.6445 5.9062-5.9062 0-3.2617-2.6445-5.9023-5.9062-5.9023z"/>
  <path d="m530.54 166.66c-24.637-0.015625-48.512 8.5234-67.547 24.164-19.031 15.637-32.043 37.402-36.805 61.574h-257.23c-3.2617 0-6.1016 2.2617-6.1016 5.5234l0.003907 358.68c0.070312 4.5078 2.7578 8.5664 6.8867 10.387 4.4453 2.0859 9.6914 1.4375 13.496-1.6719l41.758-34.82c0.29688-0.24219 0.71875-0.26953 1.0391-0.058594l50.051 40.395v-0.003907c4.6406 3.6367 11.176 3.5977 15.77-0.097656l49.344-40.262c0.28906-0.24219 0.70703-0.26172 1.0195-0.054687l49.48 40.371h0.003906c2.2305 1.7734 4.9961 2.7422 7.8477 2.7422 2.875-0.003906 5.6602-0.97656 7.918-2.7539l49.906-40.285v-0.003907c0.28906-0.23828 0.70703-0.25781 1.0195-0.050781l41.812 34.879c3.707 3.1055 8.8867 3.7617 13.25 1.6719 4.0586-1.8516 6.6445-5.9258 6.5938-10.387v-237.79c3.9375 0.31641 6.8867 0.48047 10.293 0.48047 58.676 0 106.51-47.641 106.51-106.32-0.015624-28.191-11.223-55.223-31.156-75.156-19.934-19.938-46.969-31.141-75.16-31.156zm-22.297 449.64c0 0.089843-0.39453 0.16797-0.66016-0.058594l-41.789-34.938c-4.5977-3.7422-11.184-3.7656-15.812-0.0625l-49.879 40.285c-0.28906 0.24219-0.69922 0.26172-1.0078 0.054688l-49.48-40.375c-4.6328-3.6758-11.199-3.6523-15.809 0.058593l-49.34 40.262v-0.003906c-0.28906 0.24219-0.70703 0.26562-1.0234 0.058594l-50.043-40.395c-4.6719-3.6719-11.273-3.6016-15.863 0.17969l-41.91 34.875c-0.27344 0.22266-0.95703 0.14844-0.95703 0.058594l-0.003906-352.1h249.86c-0.25391 2.9531-0.58203 5.8125-0.58203 8.8633h-0.003906c-0.007813 24.371 8.3672 48 23.719 66.926 15.352 18.93 36.742 32 60.59 37.02zm22.297-248.82c-25.09 0-49.152-9.9648-66.895-27.707-17.742-17.742-27.707-41.805-27.707-66.895s9.9688-49.152 27.707-66.895c17.742-17.742 41.805-27.707 66.895-27.707s49.152 9.9688 66.895 27.707c17.742 17.742 27.707 41.805 27.707 66.895-0.027344 25.082-10.004 49.129-27.738 66.863-17.734 17.734-41.781 27.711-66.863 27.738z"/>
  <path d="m530.54 230.05c5.3359 0.003906 10.449 2.125 14.223 5.8984 3.7734 3.7734 5.8945 8.8906 5.9023 14.227 0 3.2578 2.6406 5.9023 5.9023 5.9023s5.9062-2.6445 5.9062-5.9023c-0.011719-7.3867-2.5742-14.539-7.2578-20.246-4.6836-5.707-11.195-9.6211-18.438-11.07v-7.793c0-3.2617-2.6406-5.9062-5.9023-5.9062-3.2617 0-5.9023 2.6445-5.9023 5.9062v7.6758c-10.582 1.8711-19.512 8.9375-23.762 18.805-4.2539 9.8672-3.2578 21.215 2.6484 30.188 5.9102 8.9766 15.934 14.379 26.68 14.375 5.3359 0 10.457 2.1211 14.23 5.8945 3.7734 3.7734 5.8945 8.8945 5.8945 14.23 0 5.3398-2.1211 10.457-5.8945 14.23-3.7734 3.7773-8.8945 5.8945-14.23 5.8945-5.3359 0-10.457-2.1211-14.23-5.8945-3.7734-3.7734-5.8945-8.8906-5.8945-14.23 0-3.2617-2.6445-5.9023-5.9023-5.9023-3.2617 0-5.9062 2.6406-5.9062 5.9023 0.011719 6.8086 2.1914 13.434 6.2227 18.914 4.0352 5.4844 9.7109 9.5352 16.207 11.57v11.188c0 3.2617 2.6445 5.9023 5.9023 5.9023 3.2617 0 5.9062-2.6406 5.9062-5.9023v-9.8398c11.102-0.80469 20.984-7.3359 26.078-17.23 5.0938-9.8984 4.6641-21.734-1.1289-31.238-5.7969-9.5039-16.125-15.301-27.254-15.305-7.1211-0.097656-13.66-3.957-17.195-10.141-3.5312-6.1836-3.5312-13.777 0-19.961 3.5352-6.1875 10.074-10.043 17.195-10.145z"/>
 </g>
</svg>