<?xml version="1.0" encoding="UTF-8"?>
<!-- The Best Svg Icon site in the world: iconSvg.co, Visit us! https://iconsvg.co -->
<svg fill="#000000" width="800px" height="800px" version="1.1" viewBox="144 144 512 512" xmlns="http://www.w3.org/2000/svg">
 <g>
  <path d="m464.47 213.04h-267.56c-2.4883-0.011718-4.5156 1.9883-4.5352 4.4766v162.03c0.003906 2.4922 2.0234 4.5078 4.5156 4.5156h267.58c2.4922-0.007813 4.5117-2.0234 4.5195-4.5156v-162.03c-0.023437-2.4805-2.0391-4.4766-4.5195-4.4766zm-263.04 59.699c13.086-1.0859 25.359-6.7773 34.645-16.062 9.2852-9.2852 14.977-21.559 16.062-34.645h157.12c1.0859 13.086 6.7734 25.359 16.055 34.645 9.2852 9.2852 21.559 14.977 34.641 16.062v51.582c-13.082 1.0859-25.355 6.7812-34.637 16.062-9.2812 9.2852-14.973 21.559-16.059 34.641h-157.12c-1.0859-13.082-6.7773-25.359-16.062-34.645-9.2852-9.2812-21.559-14.973-34.645-16.059zm258.53-9.0547c-10.684-1.0586-20.676-5.7891-28.27-13.383-7.5898-7.5938-12.32-17.582-13.383-28.27h41.652zm-216.88-41.652c-1.0586 10.688-5.7891 20.676-13.383 28.27s-17.582 12.324-28.27 13.383v-41.652zm-41.652 111.34c10.688 1.0625 20.676 5.793 28.27 13.387 7.5938 7.5898 12.324 17.582 13.383 28.266h-41.652zm216.88 41.652c1.0625-10.684 5.793-20.676 13.383-28.266 7.5938-7.5938 17.586-12.324 28.27-13.387v41.652z"/>
  <path d="m439.02 522.45h-103.82v-105.05l15.457 20.98c1.5117 1.9023 4.2617 2.2695 6.2188 0.82422 1.957-1.4453 2.418-4.1797 1.043-6.1875l-23.617-32c-0.125-0.16797-0.26172-0.32422-0.41016-0.47266l-0.097656-0.097656h-0.003906c-0.17188-0.17188-0.35938-0.32422-0.55859-0.46094-0.21484-0.13672-0.4375-0.25781-0.66797-0.36719l-0.15625-0.070312-0.003906 0.003906c-0.23438-0.089844-0.47266-0.16797-0.71875-0.22656h-0.14844 0.003907c-0.26953-0.054687-0.54297-0.085937-0.81641-0.089843-0.28125 0.003906-0.55469 0.035156-0.82812 0.089843h-0.13672c-0.24609 0.058594-0.48438 0.13281-0.71875 0.22656l-0.15625 0.070313-0.003907-0.003907c-0.23047 0.10547-0.45312 0.22656-0.66797 0.36719h-0.058594c-0.19922 0.14062-0.38672 0.29297-0.5625 0.46094l-0.097656 0.097656c-0.14844 0.14453-0.28125 0.30469-0.40234 0.47266l-23.617 32c-0.71094 0.96484-1.0039 2.1758-0.82031 3.3594s0.83594 2.2461 1.8047 2.9492c0.77344 0.57422 1.7109 0.88672 2.6758 0.88281 1.4336 0 2.7812-0.67578 3.6328-1.8281l15.43-20.98v109.54c0 1.1992 0.47656 2.3477 1.3242 3.1914 0.84375 0.84375 1.9961 1.3203 3.1914 1.3164h108.31c2.4102-0.11328 4.3047-2.0977 4.3047-4.5117 0-2.4141-1.8945-4.3984-4.3047-4.5117z"/>
  <path d="m494.98 312.98h71.832v92.918l-15.449-20.949c-1.4766-2.0039-4.3008-2.4336-6.3086-0.95312-2.0039 1.4766-2.4297 4.3008-0.95312 6.3047l23.617 32.008c0.12891 0.16797 0.26562 0.31641 0.40234 0.46094l0.11719 0.10937v0.003907c0.16406 0.16406 0.34375 0.3125 0.53125 0.44141l0.078124 0.058594c0.20703 0.14062 0.42578 0.25781 0.65234 0.35547l0.17578 0.078124c0.23047 0.09375 0.46484 0.16797 0.70703 0.21875h0.14844c0.53906 0.10156 1.0938 0.10156 1.6328 0h0.14844c0.24609-0.050781 0.48828-0.12891 0.71875-0.22656l0.15625-0.058594c0.23438-0.10547 0.45703-0.22656 0.67188-0.36719l0.058594-0.050781v0.003906c0.20312-0.13672 0.39062-0.28906 0.55859-0.46484l0.097656-0.089844 0.003906 0.003906c0.14453-0.14844 0.27734-0.30859 0.40234-0.47266l23.617-32.008v-0.003906c1.4766-2.0039 1.0508-4.8281-0.95703-6.3047-2.0039-1.4805-4.8281-1.0508-6.3047 0.95312l-15.457 20.961-0.003906-97.43c0-1.1953-0.47656-2.3438-1.3242-3.1914-0.84375-0.84766-1.9961-1.3242-3.1914-1.3242h-76.379c-2.4961 0-4.5156 2.0234-4.5156 4.5156 0 2.4961 2.0195 4.5195 4.5156 4.5195z"/>
  <path d="m539.73 451.17c-18.008 0-35.277 7.1523-48.008 19.887-12.734 12.73-19.887 30-19.887 48.008s7.1523 35.277 19.887 48.012c12.73 12.73 30 19.887 48.008 19.887 18.008 0 35.277-7.1562 48.012-19.887 12.73-12.734 19.887-30.004 19.887-48.012-0.03125-17.996-7.1914-35.25-19.918-47.977-12.73-12.727-29.98-19.891-47.98-19.918zm0 126.81c-15.621 0.011719-30.605-6.1836-41.66-17.219-11.055-11.039-17.27-26.016-17.281-41.637-0.011718-15.621 6.1875-30.605 17.227-41.656 11.039-11.055 26.016-17.266 41.637-17.273 15.621-0.007812 30.605 6.1875 41.656 17.23 11.051 11.043 17.262 26.02 17.266 41.641-0.015624 15.605-6.2188 30.57-17.25 41.613-11.027 11.039-25.988 17.258-41.594 17.289z"/>
  <path d="m326.2 345.88v4.9219-0.003906c-0.058594 1.2344 0.39062 2.4375 1.2422 3.332 0.85156 0.89062 2.0352 1.3984 3.2695 1.3984 1.2344 0 2.4141-0.50781 3.2656-1.3984 0.85156-0.89453 1.3008-2.0977 1.2461-3.332v-4.9219 0.003906c8.4141-1.5156 15.5-7.1602 18.867-15.016 3.3672-7.8594 2.5625-16.883-2.1445-24.02-4.707-7.1367-12.684-11.434-21.23-11.434-4.8633 0-9.2461-2.9297-11.109-7.4258-1.8594-4.4922-0.83203-9.6641 2.6055-13.102 3.4414-3.4414 8.6133-4.4688 13.105-2.6094 4.4922 1.8633 7.4219 6.2461 7.4219 11.109 0.11328 2.4102 2.1016 4.3086 4.5117 4.3086 2.4141 0 4.3984-1.8984 4.5117-4.3086-0.007813-4.7969-1.6484-9.4492-4.6562-13.188-3.0078-3.7383-7.1992-6.3398-11.883-7.375v-5.0195c0.054688-1.2344-0.39453-2.4375-1.2461-3.3281-0.85156-0.89453-2.0312-1.3984-3.2656-1.3984-1.2344 0-2.418 0.50391-3.2695 1.3984-0.85156 0.89062-1.3008 2.0938-1.2422 3.3281v5.0195c-6.8281 1.4844-12.477 6.2656-15.066 12.758-2.5938 6.4883-1.7969 13.844 2.1289 19.625 3.9258 5.7852 10.465 9.2422 17.453 9.2305 4.3516 0 8.5273 1.7266 11.605 4.8047 3.0781 3.0781 4.8086 7.2539 4.8086 11.605 0 4.3555-1.7305 8.5312-4.8086 11.609-3.0781 3.0742-7.2539 4.8047-11.605 4.8047-4.3516 0-8.5273-1.7305-11.605-4.8047-3.0781-3.0781-4.8086-7.2539-4.8086-11.609 0.058594-1.2305-0.39062-2.4336-1.2422-3.3281-0.85156-0.89062-2.0352-1.3984-3.2695-1.3984-1.2344 0-2.4141 0.50781-3.2656 1.3984-0.85156 0.89453-1.3008 2.0977-1.2461 3.3281 0.011718 5.9609 2.1094 11.73 5.9297 16.305 3.8242 4.5742 9.1289 7.6641 14.992 8.7305z"/>
 </g>
</svg>