<?xml version="1.0" encoding="UTF-8"?>
<!-- The Best Svg Icon site in the world: iconSvg.co, Visit us! https://iconsvg.co -->
<svg fill="#000000" width="800px" height="800px" version="1.1" viewBox="144 144 512 512" xmlns="http://www.w3.org/2000/svg">
 <g>
  <path d="m446.76 278.02h31.02c1.8555 0 3.3594-1.5078 3.3594-3.3594v-30.945c0-1.8594-1.5078-3.3594-3.3594-3.3594h-31.02c-1.8594 0-3.3672 1.5078-3.3672 3.3594v30.945c0 1.8516 1.5039 3.3594 3.3672 3.3594zm3.3594-30.938h24.293v24.215h-24.293z"/>
  <path d="m539.01 463.97h30.934c1.8555 0 3.3672-1.5078 3.3672-3.3672v-31.02c0-1.8555-1.5117-3.3672-3.3672-3.3672h-30.934c-1.8555 0-3.3672 1.5117-3.3672 3.3672v31.02c0.003906 1.8594 1.5156 3.3672 3.3672 3.3672zm3.3672-31.02h24.203v24.289h-24.203z"/>
  <path d="m600.96 303.04h-88.801l-0.003906-86.477c8.8047-1.5938 15.508-9.3164 15.508-18.574 0-10.41-8.4688-18.879-18.871-18.879h-216.89c-10.402 0-18.871 8.4688-18.871 18.879 0 9.2617 6.6992 16.984 15.508 18.574v86.48l-89.516-0.003907c-10.402 0-18.871 8.4688-18.871 18.871 0 9.2539 6.6992 16.977 15.508 18.57v213.1c0 1.8594 1.5078 3.3672 3.3672 3.3672h92.898 0.011718 40.844c1.7578 35.555 31.23 63.934 67.215 63.934 35.98 0 65.453-28.383 67.215-63.934h40.672c0.058593 0 0.11719 0.003906 0.17969 0.003906h92.891c1.8594 0 3.3672-1.5117 3.3672-3.3672v-213.11c8.8047-1.5938 15.504-9.3164 15.504-18.57 0.003906-10.402-8.4609-18.871-18.863-18.871zm-401.94 31.016c-6.6953 0-12.141-5.4453-12.141-12.141 0-6.6953 5.4453-12.141 12.141-12.141h89.512v24.285l-89.512-0.003906c0.007812 0 0.007812 0 0 0zm3.3672 6.7266h86.145v209.44h-86.145zm197.61 273.38c-33.398 0-60.566-27.176-60.566-60.574 0-33.398 27.172-60.566 60.566-60.566 33.398 0 60.574 27.176 60.574 60.566-0.003907 33.398-27.18 60.574-60.574 60.574zm105.44-307.84c-0.003906 0.023437-0.003906 0.050781-0.003906 0.082031 0 0.023438 0 0.050781 0.003906 0.082031v30.852c-0.003906 0.023437-0.003906 0.054687-0.003906 0.082031 0 0.023437 0 0.054687 0.003906 0.082031v212.72h-38.223c-1.7617-35.547-31.234-63.93-67.215-63.93s-65.453 28.383-67.215 63.93h-37.512v-333.36h210.16zm3.2695-96.188h-216.8c-6.6992 0-12.148-5.4531-12.148-12.148 0-6.6953 5.4453-12.148 12.148-12.148h216.89c6.5859 0 12.148 5.5625 12.148 12.148 0 6.5586-5.5234 12.102-12.07 12.148-0.054688-0.003907-0.11328-0.003907-0.16797 0zm88.891 340.09h-85.438v-209.45h85.438zm3.3672-216.17h-88.801v-24.285h88.801c6.6953 0 12.141 5.4453 12.141 12.141 0 6.6992-5.4453 12.145-12.141 12.145z"/>
  <path d="m446.76 340.06h31.02c1.8555 0 3.3594-1.5078 3.3594-3.3594v-31.02c0-1.8594-1.5078-3.3672-3.3594-3.3672h-31.02c-1.8594 0-3.3672 1.5078-3.3672 3.3672v31.02c0 1.8555 1.5039 3.3594 3.3672 3.3594zm3.3594-31.02h24.293v24.293h-24.293z"/>
  <path d="m539.01 525.93h30.934c1.8555 0 3.3672-1.5078 3.3672-3.3594v-30.945c0-1.8555-1.5117-3.3672-3.3672-3.3672h-30.934c-1.8555 0-3.3672 1.5117-3.3672 3.3672v30.945c0.003906 1.8516 1.5156 3.3594 3.3672 3.3594zm3.3672-30.938h24.203v24.215h-24.203z"/>
  <path d="m322.84 278.02h31.02c1.8594 0 3.3594-1.5078 3.3594-3.3594v-30.945c0-1.8594-1.5078-3.3594-3.3594-3.3594h-31.02c-1.8594 0-3.3594 1.5078-3.3594 3.3594v30.945c-0.003907 1.8516 1.5 3.3594 3.3594 3.3594zm3.3594-30.938h24.293v24.215h-24.293z"/>
  <path d="m384.88 463.97h30.945c1.8555 0 3.3594-1.5078 3.3594-3.3672v-31.02c0-1.8555-1.5078-3.3672-3.3594-3.3672h-30.945c-1.8594 0-3.3594 1.5117-3.3594 3.3672v31.02c0 1.8594 1.5039 3.3672 3.3594 3.3672zm3.3672-31.02h24.215v24.289h-24.215z"/>
  <path d="m384.88 402h30.945c1.8555 0 3.3594-1.5078 3.3594-3.3672v-31.02c0-1.8594-1.5078-3.3594-3.3594-3.3594h-30.945c-1.8594 0-3.3594 1.5078-3.3594 3.3594v31.02c0 1.8594 1.5039 3.3672 3.3594 3.3672zm3.3672-31.02h24.215v24.293h-24.215z"/>
  <path d="m322.84 463.97h31.02c1.8594 0 3.3594-1.5078 3.3594-3.3672v-31.02c0-1.8555-1.5078-3.3672-3.3594-3.3672h-31.02c-1.8594 0-3.3594 1.5117-3.3594 3.3672v31.02c-0.003907 1.8594 1.5 3.3672 3.3594 3.3672zm3.3594-31.02h24.293v24.289h-24.293z"/>
  <path d="m322.84 402h31.02c1.8594 0 3.3594-1.5078 3.3594-3.3672v-31.02c0-1.8594-1.5078-3.3594-3.3594-3.3594h-31.02c-1.8594 0-3.3594 1.5078-3.3594 3.3594v31.02c-0.003907 1.8594 1.5 3.3672 3.3594 3.3672zm3.3594-31.02h24.293v24.293h-24.293z"/>
  <path d="m322.84 340.06h31.02c1.8594 0 3.3594-1.5078 3.3594-3.3594v-31.02c0-1.8594-1.5078-3.3672-3.3594-3.3672h-31.02c-1.8594 0-3.3594 1.5078-3.3594 3.3672v31.02c-0.003907 1.8555 1.5 3.3594 3.3594 3.3594zm3.3594-31.02h24.293v24.293h-24.293z"/>
  <path d="m384.88 278.02h30.945c1.8555 0 3.3594-1.5078 3.3594-3.3594v-30.945c0-1.8594-1.5078-3.3594-3.3594-3.3594h-30.945c-1.8594 0-3.3594 1.5078-3.3594 3.3594v30.945c0 1.8516 1.5039 3.3594 3.3594 3.3594zm3.3672-30.938h24.215v24.215h-24.215z"/>
  <path d="m539.01 402h30.934c1.8555 0 3.3672-1.5078 3.3672-3.3672v-31.02c0-1.8594-1.5117-3.3594-3.3672-3.3594h-30.934c-1.8555 0-3.3672 1.5078-3.3672 3.3594v31.02c0.003906 1.8594 1.5156 3.3672 3.3672 3.3672zm3.3672-31.02h24.203v24.293h-24.203z"/>
  <path d="m384.88 340.06h30.945c1.8555 0 3.3594-1.5078 3.3594-3.3594v-31.02c0-1.8594-1.5078-3.3672-3.3594-3.3672h-30.945c-1.8594 0-3.3594 1.5078-3.3594 3.3672v31.02c0 1.8555 1.5039 3.3594 3.3594 3.3594zm3.3672-31.02h24.215v24.293h-24.215z"/>
  <path d="m446.76 463.97h31.02c1.8555 0 3.3594-1.5078 3.3594-3.3672v-31.02c0-1.8555-1.5078-3.3672-3.3594-3.3672h-31.02c-1.8594 0-3.3672 1.5117-3.3672 3.3672v31.02c0 1.8594 1.5039 3.3672 3.3672 3.3672zm3.3594-31.02h24.293v24.289h-24.293z"/>
  <path d="m446.76 402h31.02c1.8555 0 3.3594-1.5078 3.3594-3.3672v-31.02c0-1.8594-1.5078-3.3594-3.3594-3.3594h-31.02c-1.8594 0-3.3672 1.5078-3.3672 3.3594v31.02c0 1.8594 1.5039 3.3672 3.3672 3.3672zm3.3594-31.02h24.293v24.293h-24.293z"/>
  <path d="m260.98 488.26h-30.93c-1.8594 0-3.3672 1.5117-3.3672 3.3672v30.945c0 1.8555 1.5078 3.3594 3.3672 3.3594h30.93c1.8594 0 3.3672-1.5078 3.3672-3.3594v-30.945c0-1.8594-1.5078-3.3672-3.3672-3.3672zm-3.3594 30.941h-24.203v-24.215h24.203z"/>
  <path d="m260.98 364.26h-30.93c-1.8594 0-3.3672 1.5078-3.3672 3.3594v31.02c0 1.8594 1.5078 3.3672 3.3672 3.3672h30.93c1.8594 0 3.3672-1.5078 3.3672-3.3672v-31.02c0-1.8516-1.5078-3.3594-3.3672-3.3594zm-3.3594 31.02h-24.203v-24.293h24.203z"/>
  <path d="m260.98 426.21h-30.93c-1.8594 0-3.3672 1.5117-3.3672 3.3672v31.02c0 1.8594 1.5078 3.3672 3.3672 3.3672h30.93c1.8594 0 3.3672-1.5078 3.3672-3.3672v-31.02c0-1.8555-1.5078-3.3672-3.3672-3.3672zm-3.3594 31.02h-24.203v-24.289h24.203z"/>
  <path d="m401.32 550.22h-2.6484c-7.7695 0-14.086-6.3242-14.086-14.086 0-7.7656 6.3164-14.086 14.086-14.086h17.453c1.8555 0 3.3594-1.5078 3.3594-3.3594 0-1.8594-1.5078-3.3672-3.3594-3.3672h-11.441v-9.1328c0-1.8594-1.5078-3.3672-3.3672-3.3672s-3.3594 1.5078-3.3594 3.3672v9.1484c-11.145 0.38281-20.098 9.5586-20.098 20.797 0 11.473 9.3359 20.812 20.812 20.812h2.6484c7.7695 0 14.082 6.3164 14.082 14.086 0 7.7656-6.3125 14.082-14.07 14.086h-0.015625-0.015625-17.426c-1.8594 0-3.3672 1.5078-3.3672 3.3672 0 1.8555 1.5078 3.3594 3.3672 3.3594h14.082v9.1406c0 1.8555 1.5078 3.3594 3.3594 3.3594 1.8594 0 3.3672-1.5078 3.3672-3.3594v-9.418c9.8789-1.6055 17.453-10.203 17.453-20.535 0-11.477-9.3398-20.812-20.816-20.812z"/>
 </g>
</svg>