<?xml version="1.0" encoding="UTF-8"?>
<!-- The Best Svg Icon site in the world: iconSvg.co, Visit us! https://iconsvg.co -->
<svg fill="#000000" width="800px" height="800px" version="1.1" viewBox="144 144 512 512" xmlns="http://www.w3.org/2000/svg">
 <g>
  <path d="m604.06 601.79h-60.023l-0.003906-23.469c0.058594-1.125-0.35156-2.2227-1.1289-3.0391-0.77344-0.81641-1.8516-1.2773-2.9766-1.2773s-2.2031 0.46094-2.9805 1.2773c-0.77734 0.81641-1.1836 1.9141-1.1289 3.0391v23.469h-79.703v-23.469c0.054687-1.125-0.35547-2.2227-1.1289-3.0391-0.77734-0.81641-1.8555-1.2773-2.9805-1.2773s-2.2031 0.46094-2.9766 1.2773c-0.77734 0.81641-1.1875 1.9141-1.1328 3.0391v23.469h-79.703v-23.469c0.054688-1.125-0.35156-2.2227-1.1289-3.0391s-1.8516-1.2773-2.9805-1.2773c-1.125 0-2.1992 0.46094-2.9766 1.2773s-1.1836 1.9141-1.1289 3.0391v23.469h-79.703l-0.003906-23.469c0.054687-1.125-0.35156-2.2227-1.1289-3.0391-0.77734-0.81641-1.8516-1.2773-2.9766-1.2773-1.1289 0-2.2031 0.46094-2.9805 1.2773s-1.1836 1.9141-1.1289 3.0391v23.469h-72.02v-88.816l72.039-77.863v19.207c0.10547 2.1914 1.9141 3.9102 4.1094 3.9102 2.1914 0 4-1.7188 4.1055-3.9102v-22.523l79.703 46.699v25.891h0.003906c-0.054688 1.125 0.35156 2.2227 1.1289 3.0352 0.77734 0.81641 1.8516 1.2773 2.9766 1.2773 1.1289 0 2.2031-0.46094 2.9805-1.2773 0.77734-0.8125 1.1836-1.9102 1.1289-3.0352v-26.207c-0.003906-0.16016-0.023438-0.32031-0.050782-0.48047l79.754-95.535v22.082-0.003907c-0.054688 1.125 0.35547 2.2227 1.1328 3.0391 0.77344 0.81641 1.8516 1.2773 2.9766 1.2773s2.2031-0.46094 2.9805-1.2773c0.77344-0.81641 1.1836-1.9141 1.1289-3.0391v-24.027l79.703 48.215v25.891c0.10938 2.1914 1.9141 3.9102 4.1094 3.9102 2.1914 0 4-1.7188 4.1055-3.9102v-26.203c0-0.25781-0.027344-0.51562-0.078126-0.76953l47.496-79.418 3.3594 27.117c0.25391 2.0586 2 3.6094 4.0742 3.6133h0.51172c2.2461-0.28125 3.8438-2.3281 3.5703-4.5781l-4.8008-39.023c-0.019531-0.16797-0.050781-0.33203-0.097656-0.49219-0.054688-0.21875-0.12891-0.42969-0.22656-0.62891-0.011719-0.046875-0.03125-0.089844-0.050781-0.12891-0.097656-0.19531-0.21484-0.38281-0.33594-0.57031l-0.11719-0.14844c-0.13281-0.17578-0.28125-0.34375-0.44141-0.49219l-0.097657-0.078125c-0.16797-0.14844-0.34375-0.28516-0.53125-0.40234h-0.0625c-0.1875-0.10547-0.38672-0.19922-0.58984-0.27734l-0.1875-0.058594c-0.20312-0.070313-0.41406-0.125-0.62891-0.15625h-0.17578c-0.21094-0.019532-0.42188-0.019532-0.62891 0h-0.16797c-0.23438 0.019531-0.46875 0.054687-0.69922 0.10547h-0.11719c-0.19531 0.050782-0.38672 0.11328-0.57031 0.1875l-36.113 15.52c-2.0859 0.89453-3.0508 3.3086-2.1562 5.3906 0.89453 2.0859 3.3086 3.0508 5.3945 2.1562l24.453-10.5-45.512 76.102-85.551-51.73v0.003907c-1.7422-1.0391-3.9766-0.66406-5.2852 0.88672l-84.484 101.11-84.91-49.762c-1.6641-0.97266-3.7812-0.66406-5.0977 0.74609l-73.16 79.047v-306.78c0.054688-1.125-0.35156-2.2227-1.1289-3.0391s-1.8516-1.2773-2.9805-1.2773c-1.125 0-2.1992 0.46094-2.9766 1.2773s-1.1836 1.9141-1.1289 3.0391v411.8c0 2.2695 1.8398 4.1133 4.1133 4.1133h408.12c2.2695 0 4.1133-1.8438 4.1133-4.1133 0-2.2734-1.8438-4.1133-4.1133-4.1133z"/>
  <path d="m280.32 478.18c0.054687-1.1211-0.35156-2.2188-1.1289-3.0352-0.77734-0.81641-1.8555-1.2773-2.9805-1.2773s-2.2031 0.46094-2.9766 1.2773c-0.77734 0.81641-1.1875 1.9141-1.1289 3.0352v26.207c-0.058594 1.125 0.35156 2.2227 1.1289 3.0352 0.77344 0.81641 1.8516 1.2773 2.9766 1.2773s2.2031-0.46094 2.9805-1.2773c0.77734-0.8125 1.1836-1.9102 1.1289-3.0352z"/>
  <path d="m276.22 524.14c-2.2734 0-4.1133 1.8398-4.1133 4.1133v26.234c-0.058594 1.125 0.35156 2.2227 1.1289 3.0352 0.77344 0.81641 1.8516 1.2773 2.9766 1.2773s2.2031-0.46094 2.9805-1.2773c0.77734-0.8125 1.1836-1.9102 1.1289-3.0352v-26.234c0-2.2695-1.8359-4.1094-4.1016-4.1133z"/>
  <path d="m364.13 524.14c-2.2734 0-4.1133 1.8398-4.1133 4.1133v26.234c-0.054687 1.125 0.35156 2.2227 1.1289 3.0352 0.77734 0.81641 1.8516 1.2773 2.9766 1.2773 1.1289 0 2.2031-0.46094 2.9805-1.2773 0.77734-0.8125 1.1836-1.9102 1.1289-3.0352v-26.234c0.003906-1.0898-0.42969-2.1367-1.1992-2.9102-0.76953-0.76953-1.8125-1.2031-2.9023-1.2031z"/>
  <path d="m456.16 428.11c0.054688-1.125-0.35547-2.2227-1.1289-3.0391-0.77734-0.81641-1.8555-1.2773-2.9805-1.2773s-2.2031 0.46094-2.9766 1.2773c-0.77734 0.81641-1.1875 1.9141-1.1328 3.0391v26.203c0.10938 2.1914 1.918 3.9102 4.1094 3.9102 2.1953 0 4-1.7188 4.1094-3.9102z"/>
  <path d="m456.16 478.18c0.054688-1.1211-0.35547-2.2188-1.1289-3.0352-0.77734-0.81641-1.8555-1.2773-2.9805-1.2773s-2.2031 0.46094-2.9766 1.2773c-0.77734 0.81641-1.1875 1.9141-1.1328 3.0352v26.207c-0.054688 1.125 0.35547 2.2227 1.1328 3.0352 0.77344 0.81641 1.8516 1.2773 2.9766 1.2773s2.2031-0.46094 2.9805-1.2773c0.77344-0.8125 1.1836-1.9102 1.1289-3.0352z"/>
  <path d="m452.04 524.14c-2.2695 0.003906-4.1055 1.8438-4.1055 4.1133v26.234c-0.054688 1.125 0.35547 2.2227 1.1328 3.0352 0.77344 0.81641 1.8516 1.2773 2.9766 1.2773s2.2031-0.46094 2.9805-1.2773c0.77344-0.8125 1.1836-1.9102 1.1289-3.0352v-26.234c0-2.2734-1.8438-4.1133-4.1133-4.1133z"/>
  <path d="m544.07 478.18c0.054688-1.1211-0.35156-2.2188-1.1289-3.0352s-1.8555-1.2773-2.9805-1.2773-2.2031 0.46094-2.9766 1.2773c-0.77734 0.81641-1.1875 1.9141-1.1289 3.0352v26.207c-0.058593 1.125 0.35156 2.2227 1.1289 3.0352 0.77344 0.81641 1.8516 1.2773 2.9766 1.2773s2.2031-0.46094 2.9805-1.2773c0.77734-0.8125 1.1836-1.9102 1.1289-3.0352z"/>
  <path d="m539.96 524.14c-2.2734 0-4.1133 1.8398-4.1133 4.1133v26.234c-0.058593 1.125 0.35156 2.2227 1.1289 3.0352 0.77344 0.81641 1.8516 1.2773 2.9766 1.2773s2.2031-0.46094 2.9805-1.2773c0.77734-0.8125 1.1836-1.9102 1.1289-3.0352v-26.234c0-2.2695-1.8359-4.1094-4.1016-4.1133z"/>
 </g>
</svg>