<?xml version="1.0" encoding="UTF-8"?>
<!-- The Best Svg Icon site in the world: iconSvg.co, Visit us! https://iconsvg.co -->
<svg fill="#000000" width="800px" height="800px" version="1.1" viewBox="144 144 512 512" xmlns="http://www.w3.org/2000/svg">
 <g>
  <path d="m431.49 441.98c5.7969 0 10.496-4.6992 10.496-10.496s-4.6992-10.496-10.496-10.496h-20.992v-10.496c0-5.7969-4.6992-10.496-10.496-10.496s-10.496 4.6992-10.496 10.496v10.496h-20.992c-5.7969 0-10.496 4.6992-10.496 10.496v41.984c0 2.7812 1.1055 5.4531 3.0742 7.418 1.9688 1.9688 4.6367 3.0742 7.4219 3.0742h52.48v20.992h-52.48c-5.7969 0-10.496 4.6992-10.496 10.496s4.6992 10.496 10.496 10.496h20.992v10.496c0 5.7969 4.6992 10.496 10.496 10.496s10.496-4.6992 10.496-10.496v-10.496h20.992c2.7812 0 5.4531-1.1055 7.4219-3.0742 1.9648-1.9648 3.0742-4.6367 3.0742-7.4219v-41.98c0-2.7852-1.1094-5.457-3.0742-7.4219-1.9688-1.9688-4.6406-3.0742-7.4219-3.0742h-52.48v-20.992z"/>
  <path d="m588.93 578.43h-20.992c0-5.5664-2.2109-10.906-6.1484-14.844-3.9336-3.9336-9.2734-6.1484-14.844-6.1484h-62.977c-5.5664 0-10.906 2.2148-14.84 6.1484-3.9375 3.9375-6.1484 9.2773-6.1484 14.844h-125.95c0-5.5664-2.2109-10.906-6.1484-14.844-3.9375-3.9336-9.2773-6.1484-14.844-6.1484h-62.977c-5.5664 0-10.906 2.2148-14.844 6.1484-3.9375 3.9375-6.1484 9.2773-6.1484 14.844h-20.992c-5.7969 0-10.496 4.6992-10.496 10.496s4.6992 10.496 10.496 10.496h377.86c5.7969 0 10.496-4.6992 10.496-10.496s-4.6992-10.496-10.496-10.496z"/>
  <path d="m211.07 368.51h20.992c0 5.5664 2.2109 10.906 6.1484 14.844 3.9375 3.9336 9.2773 6.1484 14.844 6.1484h62.977c5.5664 0 10.906-2.2148 14.844-6.1484 3.9375-3.9375 6.1484-9.2773 6.1484-14.844h125.95c0 5.5664 2.2109 10.906 6.1484 14.844 3.9336 3.9336 9.2734 6.1484 14.84 6.1484h62.977c5.5703 0 10.91-2.2148 14.844-6.1484 3.9375-3.9375 6.1484-9.2773 6.1484-14.844h20.992c4.4805-0.015625 8.457-2.8711 9.9023-7.1133 1.4453-4.2383 0.039063-8.9297-3.5-11.676l-188.93-146.95h0.003906c-3.7734-2.9062-9.0312-2.9062-12.805 0l-188.93 146.95c-3.5391 2.7461-4.9453 7.4375-3.5 11.676 1.4453 4.2422 5.4219 7.0977 9.9023 7.1133zm188.93-104.96c8.3516 0 16.359 3.3164 22.266 9.2227 5.9023 5.9062 9.2227 13.914 9.2227 22.266 0 8.3516-3.3203 16.359-9.2227 22.266-5.9062 5.9023-13.914 9.2227-22.266 9.2227s-16.363-3.3203-22.266-9.2227c-5.9062-5.9062-9.2227-13.914-9.2227-22.266 0-8.3516 3.3164-16.359 9.2227-22.266 5.9023-5.9062 13.914-9.2227 22.266-9.2227z"/>
  <path d="m253.05 410.5h62.977v125.95h-62.977z"/>
  <path d="m483.96 410.5h62.977v125.95h-62.977z"/>
 </g>
</svg>