<?xml version="1.0" encoding="UTF-8"?>
<!-- The Best Svg Icon site in the world: iconSvg.co, Visit us! https://iconsvg.co -->
<svg width="800px" height="800px" version="1.1" viewBox="144 144 512 512" xmlns="http://www.w3.org/2000/svg">
 <defs>
  <clipPath id="g">
   <path d="m258 475h153v176.9h-153z"/>
  </clipPath>
  <clipPath id="f">
   <path d="m388 475h153v176.9h-153z"/>
  </clipPath>
  <clipPath id="e">
   <path d="m297 583h22v68.902h-22z"/>
  </clipPath>
  <clipPath id="d">
   <path d="m480 583h23v68.902h-23z"/>
  </clipPath>
  <clipPath id="c">
   <path d="m540 368h111.9v113h-111.9z"/>
  </clipPath>
  <clipPath id="b">
   <path d="m148.09 368h111.91v113h-111.91z"/>
  </clipPath>
  <clipPath id="a">
   <path d="m343 148.09h113v111.91h-113z"/>
  </clipPath>
 </defs>
 <g clip-path="url(#g)">
  <path d="m404.73 651.9h-0.023437l-140.38-0.50781c-1.6953-0.007812-3.3008-0.73047-4.3906-2.0312-1.0859-1.3008-1.543-3.0039-1.2461-4.6719l21.961-124.09c0.31641-1.7969 1.4727-3.3359 3.1133-4.1445l80.789-39.988c2.8477-1.4062 6.293-0.24219 7.7031 2.6055 1.4102 2.8477 0.24219 6.293-2.6016 7.7031l-78.188 38.699-20.266 114.52 133.55 0.54297c3.1758 0.015625 5.7383 2.5312 5.7266 5.7109-0.019531 3.1602-2.5898 5.6562-5.7539 5.6562z"/>
 </g>
 <path d="m399.39 630.25h-0.003907c-0.68359 0-1.3711-0.29688-2.0352-0.54688-0.58984-0.22266-1.1406-0.62891-1.6367-1.0391-0.39063-0.32422-0.73047-0.73828-1.0195-1.1445l-50.812-70.52c-1.2188-1.6914-1.4258-3.9219-0.54297-5.8086l6.9648-14.891-23.113-34.328c-0.92969-1.3789-1.2148-3.0977-0.78516-4.7031 0.42969-1.6055 1.5352-2.9492 3.0312-3.6797l35.152-17.141c1.5781-0.76953 3.4219-0.77734 5.0078-0.019531 1.5859 0.75781 2.7344 2.2031 3.1211 3.9141l26.672 117.8 26.719-117.8c0.39062-1.7109 1.5391-3.1523 3.1211-3.9141 1.582-0.75781 3.4258-0.75391 5.0039 0.019531l35.16 17.141c1.4961 0.73047 2.6016 2.0703 3.0312 3.6758 0.42969 1.6094 0.14453 3.3203-0.78516 4.6992l-23.102 34.324 6.9766 14.883c0.88672 1.8906 0.67969 4.1133-0.54297 5.8047l-50.898 70.496c-0.30859 0.43359-0.67969 0.82812-1.1055 1.168-0.46094 0.36719-0.96875 0.83203-1.5078 1.0391-0.66797 0.27734-1.3711 0.57422-2.0703 0.57422zm36.332-140.29-24.492 107.96 32.445-44.934-6.9219-14.77c-0.85938-1.8281-0.69141-3.9727 0.4375-5.6484l21.23-31.547zm-80.535 63.031 32.359 44.898-24.438-107.93-22.688 11.062 21.242 31.543c1.1289 1.6758 1.293 3.8203 0.4375 5.6484z"/>
 <g clip-path="url(#f)">
  <path d="m394.1 651.9c-3.1641 0-5.7344-2.4961-5.75-5.6602-0.015624-3.1758 2.5508-5.7266 5.7266-5.7422l133.55-0.52734-20.242-114.51-78.219-38.695c-2.8477-1.4102-4.0117-4.8555-2.6055-7.6992 1.4102-2.8477 4.8633-4.0078 7.7031-2.6055l80.824 39.988c1.6406 0.8125 2.793 2.3555 3.1133 4.1523l21.938 124.1c0.29688 1.668-0.16016 3.3828-1.25 4.6875-1.0859 1.3008-2.6914 1.9922-4.3867 2l-140.38 0.50781h-0.023438z"/>
 </g>
 <path d="m399.37 461.5c-39.023 0-70.77-31.758-70.77-70.801 0-5.0391-1.5391-9.7812-3.3164-15.281-2.0547-6.3477-4.3867-13.539-4.3867-22.191 0-43.27 35.203-78.473 78.473-78.473 43.277 0 78.48 35.203 78.48 78.473 0 10.141-2.5195 17.801-4.7461 24.562-1.582 4.8125-2.9492 8.9648-2.9492 12.91 0 39.043-31.754 70.801-70.785 70.801zm0-175.25c-36.93 0-66.977 30.043-66.977 66.973 0 6.8398 1.8594 12.574 3.8281 18.648 1.9062 5.8828 3.8789 11.969 3.8789 18.824 0 32.699 26.59 59.301 59.27 59.301 32.691 0 59.285-26.602 59.285-59.301 0-5.7891 1.7148-10.996 3.5273-16.504 2.0469-6.2305 4.168-12.668 4.168-20.969 0.003906-36.926-30.043-66.973-66.98-66.973z"/>
 <path d="m328.61 381.34c-0.93359 0-1.8789-0.22656-2.7539-0.70703-2.7852-1.5234-3.8086-5.0156-2.2852-7.8008 17.887-32.719 44.301-29.992 65.523-27.797 15.137 1.5625 28.203 2.9102 36.926-7.2578 3.3125-3.8633 6.7109-4.4453 8.9805-4.25 6.0781 0.51953 9.6914 6.5703 13.875 13.578 6.0898 10.203 11.383 17.953 19.312 17.348 3.1562-0.23047 5.9297 2.125 6.1719 5.293 0.24219 3.1641-2.125 5.9297-5.293 6.1719-0.61328 0.046875-1.2188 0.070312-1.8125 0.070312-14.527 0.003907-22.742-13.762-28.25-22.988-1.3828-2.3164-3.3164-5.5547-4.6992-7.2266-12.598 14.195-29.773 12.418-46.391 10.703-20.586-2.1289-40.031-4.1367-54.254 21.875-1.043 1.9062-3.0156 2.9883-5.0508 2.9883z"/>
 <path d="m335.67 409.58c-1.0703 0-2.1484-0.30078-3.1133-0.92188-9.0352-5.8398-13.93-12.121-14.965-19.211-0.95312-6.543 1.5312-13.328 7.3828-20.172 2.0625-2.4141 5.6914-2.6992 8.1055-0.63281 2.4141 2.0625 2.6953 5.6914 0.63281 8.1055-3.6016 4.2109-5.1953 7.9258-4.7422 11.039 0.51953 3.5625 3.8281 7.3359 9.8281 11.215 2.6641 1.7227 3.4297 5.2812 1.707 7.9492-1.1016 1.7031-2.9492 2.6289-4.8359 2.6289z"/>
 <path d="m463.19 409.58c-1.8047 0-3.5781-0.84766-4.6992-2.4336-1.832-2.5938-1.2148-6.1797 1.3789-8.0117 6.0039-4.2422 9.2773-8.2344 9.7344-11.871 0.38281-3.0391-1.1289-6.5781-4.4922-10.523-2.0586-2.418-1.7695-6.0469 0.64844-8.1055 2.4141-2.0586 6.0469-1.7695 8.1016 0.64844 5.543 6.5078 7.9492 13.039 7.1484 19.414-0.88672 7.0742-5.6328 13.555-14.508 19.828-1.0039 0.71094-2.1641 1.0547-3.3125 1.0547z"/>
 <path d="m367.11 487.37c-0.69922 0-1.4102-0.12891-2.1016-0.40234-2.9531-1.1602-4.4062-4.5-3.2461-7.4531l11.152-28.348c1.1641-2.9531 4.5-4.4102 7.4531-3.2461 2.9531 1.1641 4.4062 4.5 3.2461 7.4531l-11.152 28.348c-0.89063 2.2656-3.0586 3.6484-5.3516 3.6484z"/>
 <path d="m431.72 487.37c-2.293 0-4.4609-1.3828-5.3516-3.6445l-11.152-28.348c-1.1641-2.9531 0.28906-6.293 3.2422-7.4531 2.9531-1.168 6.293 0.28906 7.4531 3.2461l11.156 28.348c1.1641 2.9531-0.28906 6.293-3.2461 7.4531-0.6875 0.26953-1.4023 0.39844-2.1016 0.39844z"/>
 <path d="m399.32 494.25c-11.551 0-23.07-2.4492-34.477-7.3516-2.918-1.2539-4.2656-4.6328-3.0117-7.5508 1.2539-2.9141 4.6328-4.2656 7.5508-3.0117 20.086 8.6289 39.746 8.625 60.09-0.011719 2.9219-1.2422 6.2969 0.12109 7.5391 3.0469 1.2422 2.9219-0.12109 6.2969-3.0469 7.5391-11.523 4.8906-23.102 7.3398-34.645 7.3398z"/>
 <g clip-path="url(#e)">
  <path d="m302.94 651.46c-0.33203 0-0.67188-0.03125-1.0078-0.089844-3.125-0.55469-5.2109-3.5391-4.6602-6.6641l10.035-56.711c0.55469-3.1289 3.5391-5.207 6.6641-4.6602 3.1289 0.55469 5.2148 3.5391 4.6602 6.6641l-10.035 56.711c-0.49609 2.7891-2.918 4.75-5.6562 4.75z"/>
 </g>
 <g clip-path="url(#d)">
  <path d="m496.45 651.46c-2.7344 0-5.1602-1.9609-5.6523-4.7461l-10.062-56.711c-0.55469-3.1289 1.5312-6.1094 4.6562-6.6641 3.1172-0.55859 6.1094 1.5312 6.6641 4.6562l10.062 56.711c0.55469 3.125-1.5273 6.1094-4.6562 6.6641-0.33984 0.058594-0.67969 0.089844-1.0117 0.089844z"/>
 </g>
 <path d="m245.93 308.08c-3.1758 0-5.75-2.5742-5.75-5.75v-4.4336c-2.5312-0.44141-5.0586-1.2773-7.4766-2.5039-2.8281-1.4375-3.957-4.8984-2.5195-7.7305 1.4375-2.832 4.8984-3.957 7.7305-2.5195 1.957 0.99609 3.8711 1.4883 5.6094 1.6133 1.1445-0.52734 2.5625-0.66797 3.8125-0.35156 0.93359-0.26172 1.7461-0.64453 2.3945-1.1055 0.96094-0.6875 1.207-1.3086 1.1914-1.4219-0.050781-0.35156-1.0859-1.9609-5.2695-3.4414-12.305-4.3672-15.773-11.859-14.918-17.418 0.72266-4.7109 4.2539-8.2695 9.4453-9.8633v-4.8633c0-3.1758 2.5742-5.75 5.75-5.75s5.75 2.5742 5.75 5.75v4.3516c1.7148 0.28516 3.4961 0.71484 5.3203 1.293 3.0273 0.95703 4.707 4.1875 3.7539 7.2148-0.95703 3.0273-4.1914 4.707-7.2148 3.75-2.6992-0.85156-5.2148-1.25-7.3047-1.1602-2.4883 0.089844-3.6875 0.75391-4.0742 1.0859 0.32812 0.74219 2.0781 2.9102 7.332 4.7734 10.098 3.5742 12.363 9.4766 12.812 12.676 0.65625 4.6484-1.5469 9.2773-5.8945 12.383-1.4414 1.0312-3.0352 1.8398-4.7344 2.4297v5.2422c0.003906 3.1758-2.5703 5.75-5.7461 5.75z"/>
 <path d="m246 331.05c-30.723 0-55.723-24.992-55.723-55.711 0-30.711 24.996-55.695 55.723-55.695 30.699 0 55.68 24.984 55.68 55.695 0 30.723-24.98 55.711-55.68 55.711zm0-99.906c-24.383 0-44.223 19.828-44.223 44.199 0 24.379 19.84 44.215 44.223 44.215 24.363 0 44.18-19.832 44.18-44.215 0-24.375-19.816-44.199-44.18-44.199z"/>
 <path d="m557.52 312.68c-3.1758 0-5.75-2.5742-5.75-5.75v-3.6953c-2.5508-0.44531-5.1016-1.2852-7.5352-2.5273-2.8281-1.4453-3.9492-4.9062-2.5039-7.7344s4.9102-3.9492 7.7344-2.5039c2.418 1.2344 4.7812 1.6914 6.8086 1.6523 0.47266-0.10156 0.97266-0.14844 1.4688-0.13281 1.418-0.22266 2.6289-0.70703 3.5273-1.3477 0.96484-0.6875 1.2109-1.3086 1.1914-1.4219-0.046875-0.35156-1.0859-1.9609-5.2656-3.4414-12.305-4.3789-15.777-11.867-14.93-17.414 0.72266-4.7266 4.2773-8.3047 9.5039-9.9023v-4.4258c0-3.1758 2.5742-5.75 5.75-5.75 3.1758 0 5.75 2.5742 5.75 5.75v3.9375c1.7109 0.28516 3.4648 0.71094 5.2461 1.2734 3.0273 0.96094 4.7031 4.1914 3.7422 7.2188-0.96094 3.0273-4.1914 4.7031-7.2188 3.7422-3.3203-1.0508-5.8242-1.2109-7.3203-1.1523-2.4453 0.09375-3.6445 0.77344-4.0273 1.1055 0.31641 0.75391 2.0234 2.8828 7.3516 4.7812 10.094 3.5742 12.355 9.4805 12.805 12.68 0.65234 4.6523-1.5586 9.2812-5.9102 12.383-1.4258 1.0156-3 1.8164-4.6719 2.4023v4.5234c0 3.1758-2.5703 5.75-5.7461 5.75z"/>
 <path d="m557.55 336.37c-30.73 0-55.73-24.98-55.73-55.688 0-30.707 25-55.688 55.73-55.688 30.699 0 55.68 24.98 55.68 55.688 0 30.703-24.977 55.688-55.68 55.688zm0-99.879c-24.387 0-44.23 19.824-44.23 44.191 0 24.367 19.844 44.191 44.23 44.191 24.359 0 44.18-19.824 44.18-44.191 0-24.367-19.816-44.191-44.18-44.191z"/>
 <path d="m595.46 456.4c-3.1758 0-5.75-2.5742-5.75-5.75v-3.543c-2.3672-0.46484-4.7266-1.2695-6.9844-2.4258-2.8281-1.4453-3.9492-4.9102-2.5039-7.7344 1.4453-2.8281 4.9102-3.9453 7.7344-2.5039 1.918 0.98047 3.7969 1.4766 5.5117 1.6133 1.0195-0.375 2.2305-0.45312 3.3086-0.19922 1.1758-0.25 2.1836-0.6875 2.9609-1.2422 0.97266-0.6875 1.2188-1.3203 1.2031-1.4336-0.050781-0.35156-1.0859-1.9688-5.2734-3.457-12.297-4.3516-15.773-11.84-14.922-17.395 0.69922-4.5664 4.0312-8.0508 8.9609-9.7227v-4.8438c0-3.1758 2.5742-5.75 5.75-5.75 3.1758 0 5.75 2.5742 5.75 5.75v4.1094c1.8828 0.28125 3.8164 0.73438 5.7891 1.3555 3.0273 0.95312 4.7109 4.1836 3.7578 7.2109-0.95312 3.0273-4.1836 4.7109-7.207 3.7578-2.6797-0.84375-5.1445-1.2266-7.3633-1.168-2.4258 0.089844-3.6211 0.75781-4.0039 1.0938 0.32812 0.73828 2.082 2.9023 7.3359 4.7617 10.113 3.5977 12.371 9.5078 12.816 12.711 0.64844 4.6562-1.5664 9.2891-5.9258 12.391-1.5742 1.1211-3.3281 1.9805-5.1992 2.5781v4.0898c0.003906 3.1719-2.5703 5.7461-5.7461 5.7461z"/>
 <g clip-path="url(#c)">
  <path d="m596.01 480.36c-30.703 0-55.688-24.984-55.688-55.695 0-30.723 24.98-55.715 55.688-55.715 30.727 0 55.723 24.992 55.723 55.715-0.003907 30.711-24.996 55.695-55.723 55.695zm0-99.914c-24.367 0-44.188 19.836-44.188 44.219 0 24.371 19.824 44.199 44.188 44.199 24.383 0 44.223-19.828 44.223-44.199 0-24.383-19.84-44.219-44.223-44.219z"/>
 </g>
 <path d="m203.38 456.4c-3.1758 0-5.75-2.5742-5.75-5.75v-3.5469c-2.3633-0.46484-4.7148-1.2695-6.9727-2.4219-2.8281-1.4414-3.9531-4.9062-2.5078-7.7344 1.4453-2.8281 4.9062-3.9531 7.7344-2.5078 1.918 0.98047 3.7969 1.4766 5.5117 1.6133 1.0273-0.375 2.2422-0.45313 3.3164-0.19531 1.1836-0.25391 2.1992-0.69141 2.9805-1.2461 0.96484-0.6875 1.2109-1.3086 1.1953-1.4258-0.050781-0.35156-1.0898-1.9727-5.2891-3.4648-12.285-4.3555-15.758-11.844-14.906-17.398 0.69922-4.5586 4.0195-8.043 8.9336-9.7109v-4.8516c0-3.1758 2.5742-5.75 5.75-5.75 3.1758 0 5.75 2.5742 5.75 5.75v4.1094c1.8945 0.28125 3.8398 0.73438 5.8203 1.3594 3.0273 0.95312 4.7109 4.1836 3.7578 7.2109s-4.1797 4.7109-7.2109 3.7578c-2.6406-0.83203-5.1875-1.2227-7.3867-1.168-2.418 0.089844-3.6094 0.75781-3.9883 1.0898 0.32422 0.73828 2.0664 2.9023 7.3242 4.7656 10.121 3.5938 12.383 9.5039 12.832 12.711 0.64844 4.6523-1.5586 9.2812-5.9102 12.379-1.5859 1.1289-3.3516 1.9922-5.2383 2.5938v4.082c0.003906 3.1758-2.5703 5.75-5.7461 5.75z"/>
 <g clip-path="url(#b)">
  <path d="m203.96 480.36c-30.707 0-55.688-24.984-55.688-55.695 0-30.723 24.98-55.715 55.688-55.715 30.711 0 55.695 24.992 55.695 55.715-0.003906 30.711-24.984 55.695-55.695 55.695zm0-99.914c-24.367 0-44.191 19.836-44.191 44.219 0 24.371 19.824 44.199 44.191 44.199 24.371 0 44.195-19.828 44.195-44.199 0-24.383-19.824-44.219-44.195-44.219z"/>
 </g>
 <path d="m398.85 235.64c-3.1758 0-5.75-2.5742-5.75-5.75v-3.6367c-2.3594-0.46484-4.707-1.2734-6.957-2.4258-2.8242-1.4453-3.9453-4.9102-2.4961-7.7383 1.4453-2.8281 4.9102-3.9453 7.7344-2.5 1.9883 1.0156 3.9297 1.5156 5.6953 1.6289 0.90625-0.29297 1.9531-0.35938 2.9062-0.16797 1.2656-0.24219 2.3555-0.69531 3.1758-1.2852 0.96875-0.6875 1.2188-1.3164 1.2031-1.4336-0.050781-0.35156-1.0859-1.9688-5.2695-3.457-12.301-4.3594-15.777-11.852-14.926-17.406 0.69922-4.5586 4.0234-8.043 8.9375-9.7109v-4.7578c0-3.1758 2.5742-5.75 5.75-5.75 3.1758 0 5.75 2.5742 5.75 5.75v4.0195c1.8906 0.28125 3.8281 0.73047 5.8047 1.3516 3.0312 0.94922 4.7188 4.1719 3.7695 7.2031s-4.168 4.7188-7.2031 3.7695c-2.6484-0.83203-5.2031-1.2266-7.4023-1.1602-2.4062 0.089844-3.5938 0.75391-3.9766 1.0859 0.32812 0.74219 2.0781 2.9062 7.3477 4.7734 10.113 3.5977 12.367 9.5078 12.812 12.711 0.64844 4.6602-1.5703 9.2891-5.9297 12.391-1.582 1.125-3.3438 1.9844-5.2227 2.582v4.168c-0.003906 3.1719-2.5781 5.7461-5.7539 5.7461z"/>
 <g clip-path="url(#a)">
  <path d="m399.42 259.49c-30.707 0-55.688-24.98-55.688-55.688 0-30.719 24.98-55.711 55.688-55.711 30.727 0 55.723 24.992 55.723 55.715 0 30.703-24.996 55.684-55.723 55.684zm0-99.898c-24.367 0-44.191 19.836-44.191 44.215 0 24.367 19.824 44.188 44.191 44.188 24.383 0 44.223-19.824 44.223-44.188 0-24.383-19.84-44.215-44.223-44.215z"/>
 </g>
 <path d="m539.77 203.57c-1.4688 0-2.9414-0.5625-4.0664-1.6836l-10.402-10.402-10.398 10.402c-2.2461 2.2461-5.8867 2.2461-8.1289 0-2.2461-2.2461-2.2461-5.8867 0-8.1289l10.402-10.402-10.402-10.402c-2.2461-2.2461-2.2461-5.8867 0-8.1289 2.2422-2.2461 5.8828-2.2461 8.1289 0l10.398 10.402 10.402-10.402c2.2461-2.2461 5.8867-2.2461 8.1289 0 2.2461 2.2461 2.2461 5.8867 0 8.1289l-10.402 10.402 10.402 10.402c2.2461 2.2461 2.2461 5.8867 0 8.1289-1.1211 1.125-2.5898 1.6836-4.0625 1.6836z"/>
 <path d="m220.63 615.07c-3.1758 0-5.75-2.5742-5.75-5.75v-8.0508h-9.1992c-3.1758 0-5.75-2.5742-5.75-5.75 0-3.1758 2.5742-5.75 5.75-5.75h9.1992v-9.1992c0-3.1758 2.5742-5.75 5.75-5.75 3.1758 0 5.75 2.5742 5.75 5.75v9.1992h8.0508c3.1758 0 5.75 2.5742 5.75 5.75 0 3.1758-2.5742 5.75-5.75 5.75h-8.0508v8.0508c0 3.1758-2.5742 5.75-5.75 5.75z"/>
 <path d="m287.46 196.86c-11.148 0-20.215-9.0703-20.215-20.215 0-11.152 9.0703-20.223 20.215-20.223 11.148 0 20.219 9.0742 20.219 20.223-0.003906 11.145-9.0742 20.215-20.219 20.215zm0-28.941c-4.8086 0-8.7188 3.9141-8.7188 8.7266 0 4.8086 3.9102 8.7188 8.7188 8.7188 4.8086 0 8.7188-3.9102 8.7188-8.7188-0.003906-4.8125-3.9141-8.7266-8.7188-8.7266z"/>
</svg>