<?xml version="1.0" encoding="UTF-8"?>
<!-- The Best Svg Icon site in the world: iconSvg.co, Visit us! https://iconsvg.co -->
<svg fill="#000000" width="800px" height="800px" version="1.1" viewBox="144 144 512 512" xmlns="http://www.w3.org/2000/svg">
 <g>
  <path d="m344.89 423.61h-110.21c-18.781 0.03125-36.785 7.5039-50.066 20.785s-20.754 31.281-20.785 50.062v133.83c0 2.0859 0.83203 4.0898 2.3086 5.5664 1.4766 1.4727 3.4766 2.3047 5.5664 2.3047h236.16c2.0859 0 4.0898-0.83203 5.5664-2.3047 1.4766-1.4766 2.3047-3.4805 2.3047-5.5664v-133.83c-0.027344-18.781-7.5039-36.781-20.781-50.062-13.281-13.281-31.285-20.754-50.066-20.785zm-165.31 196.8v-125.95c0.019531-11.195 3.4531-22.117 9.8359-31.316 6.3867-9.1953 15.422-16.23 25.902-20.164l40.934 177.43zm77.777-65.336-26.688-115.48c1.332-0.15625 2.6719-0.23438 4.0156-0.23438h18.734l12.594 25.113zm51.168-115.72-7.8711 15.742h-21.73l-7.8711-15.742zm-1.3398 181.05h-34.793l-3.8555-16.848 12.672-132.72h17.16l12.672 132.72zm6.375-155.95 12.598-25.109h18.734c1.3398 0 2.6836 0.078125 4.0156 0.23438l-26.688 115.48zm86.438 155.95h-76.676l40.934-177.43c10.484 3.9336 19.52 10.969 25.902 20.164 6.3867 9.1992 9.8164 20.121 9.8398 31.316z"/>
  <path d="m352.77 360.64c0-16.699-6.6328-32.719-18.445-44.527-11.809-11.812-27.828-18.445-44.531-18.445-16.703 0-32.719 6.6328-44.531 18.445-11.809 11.809-18.445 27.828-18.445 44.527 0 16.703 6.6367 32.723 18.445 44.531 11.812 11.812 27.828 18.445 44.531 18.445 16.699-0.015625 32.703-6.6602 44.512-18.465 11.805-11.805 18.445-27.812 18.465-44.512zm-62.977 47.23v0.003906c-12.527 0-24.539-4.9766-33.398-13.836-8.8555-8.8555-13.832-20.871-13.832-33.398 0-12.523 4.9766-24.539 13.832-33.398 8.8594-8.8555 20.871-13.832 33.398-13.832 12.527 0 24.543 4.9766 33.398 13.832 8.8594 8.8594 13.836 20.875 13.836 33.398-0.011719 12.523-4.9922 24.531-13.848 33.387-8.8555 8.8555-20.863 13.836-33.387 13.848z"/>
  <path d="m549.57 289.79h-15.742c-4.3477 0-7.875-3.5234-7.875-7.8711 0-4.3477-3.5234-7.8711-7.8711-7.8711s-7.8711 3.5234-7.8711 7.8711c0 6.2617 2.4883 12.27 6.918 16.699 4.4258 4.4297 10.434 6.918 16.699 6.918v7.8711c0 4.3477 3.5234 7.8711 7.8711 7.8711 4.3477 0 7.8711-3.5234 7.8711-7.8711v-7.8711c8.4375 0 16.234-4.5039 20.453-11.809 4.2188-7.3086 4.2188-16.309 0-23.617-4.2188-7.3047-12.016-11.809-20.453-11.809h-15.742c-4.3477 0-7.875-3.5234-7.875-7.8711 0-4.3477 3.5273-7.8711 7.875-7.8711h15.742c2.0898 0 4.0898 0.82812 5.5664 2.3047 1.4766 1.4766 2.3047 3.4805 2.3047 5.5664 0 4.3477 3.5273 7.8711 7.875 7.8711s7.8711-3.5234 7.8711-7.8711c0-6.2617-2.4883-12.27-6.918-16.699-4.4297-4.4297-10.434-6.918-16.699-6.918v-7.8711c0-4.3477-3.5234-7.8711-7.8711-7.8711-4.3477 0-7.8711 3.5234-7.8711 7.8711v7.8711c-8.4375 0-16.234 4.5039-20.453 11.809-4.2188 7.3086-4.2188 16.309 0 23.617 4.2188 7.3086 12.016 11.809 20.453 11.809h15.742c4.3477 0 7.8711 3.5234 7.8711 7.8711 0 4.3477-3.5234 7.8711-7.8711 7.8711z"/>
  <path d="m541.7 344.89c20.879 0 40.898-8.293 55.664-23.059 14.762-14.762 23.055-34.785 23.055-55.66 0-20.879-8.293-40.902-23.055-55.664-14.766-14.766-34.785-23.059-55.664-23.059-20.879 0-40.902 8.293-55.664 23.059-14.762 14.762-23.055 34.785-23.055 55.664 0.019532 20.871 8.3203 40.879 23.082 55.637 14.758 14.758 34.766 23.059 55.637 23.082zm0-141.7c16.703 0 32.719 6.6328 44.531 18.445 11.809 11.809 18.445 27.828 18.445 44.531 0 16.699-6.6367 32.719-18.445 44.527-11.812 11.812-27.828 18.445-44.531 18.445-16.703 0-32.723-6.6328-44.531-18.445-11.809-11.809-18.445-27.828-18.445-44.527 0.019531-16.699 6.6602-32.707 18.465-44.512 11.809-11.805 27.816-18.449 44.512-18.465z"/>
  <path d="m541.7 368.51c27.141 0 53.172-10.781 72.363-29.977 19.191-19.191 29.973-45.219 29.973-72.359 0-27.145-10.781-53.172-29.973-72.363s-45.223-29.977-72.363-29.977c-27.141 0-53.172 10.785-72.363 29.977-19.191 19.191-29.973 45.219-29.973 72.363 0.03125 27.129 10.824 53.141 30.008 72.328 19.184 19.184 45.195 29.977 72.328 30.008zm0-188.93c22.965 0 44.992 9.1211 61.23 25.363 16.238 16.238 25.363 38.262 25.363 61.23 0 22.965-9.125 44.988-25.363 61.227-16.238 16.242-38.266 25.363-61.23 25.363-22.965 0-44.992-9.1211-61.23-25.363-16.238-16.238-25.363-38.262-25.363-61.227 0.027344-22.961 9.1602-44.969 25.395-61.203 16.23-16.23 38.242-25.363 61.199-25.391z"/>
  <path d="m289.07 281.42c1.9609 0.74219 4.1328 0.67188 6.043-0.19531 1.9062-0.86719 3.3906-2.4609 4.1211-4.4258 10.75-28.496 29.91-53.051 54.934-70.41 25.023-17.363 54.73-26.711 85.188-26.809 4.3477 0 7.8711-3.5234 7.8711-7.8711 0-4.3477-3.5234-7.875-7.8711-7.875-33.668 0.10547-66.508 10.434-94.172 29.625-27.66 19.188-48.84 46.332-60.727 77.828-1.5234 4.0742 0.54297 8.6094 4.6133 10.133z"/>
  <path d="m612.54 360.64c-4.3477 0-7.8711 3.5273-7.8711 7.875-0.042969 39.652-15.816 77.672-43.855 105.71-28.043 28.039-66.059 43.812-105.71 43.855-4.3477 0-7.8711 3.5234-7.8711 7.8711 0 4.3477 3.5234 7.875 7.8711 7.875 43.828-0.050781 85.852-17.48 116.84-48.473 30.992-30.992 48.426-73.012 48.473-116.84 0-2.0898-0.82812-4.0898-2.3047-5.5664-1.4766-1.4766-3.4766-2.3086-5.5664-2.3086z"/>
 </g>
</svg>