<?xml version="1.0" encoding="UTF-8"?>
<!-- The Best Svg Icon site in the world: iconSvg.co, Visit us! https://iconsvg.co -->
<svg fill="#000000" width="800px" height="800px" version="1.1" viewBox="144 144 512 512" xmlns="http://www.w3.org/2000/svg">
 <g>
  <path d="m242.56 470.85v-7.8711c8.4375 0 16.234-4.5039 20.453-11.809 4.2188-7.3086 4.2188-16.309 0-23.617-4.2188-7.3086-12.016-11.809-20.453-11.809h-15.746c-4.3477 0-7.8711-3.5234-7.8711-7.8711s3.5234-7.8711 7.8711-7.8711h15.746c2.0859 0 4.0898 0.82812 5.5664 2.3047 1.4766 1.4766 2.3047 3.4766 2.3047 5.5664 0 4.3477 3.5234 7.8711 7.8711 7.8711 4.3477 0 7.875-3.5234 7.875-7.8711 0-6.2656-2.4883-12.27-6.918-16.699-4.4297-4.4297-10.438-6.918-16.699-6.918v-7.8711c0-4.3477-3.5234-7.8711-7.8711-7.8711s-7.875 3.5234-7.875 7.8711v7.8711c-8.4375 0-16.23 4.5-20.449 11.809s-4.2188 16.309 0 23.617c4.2188 7.3047 12.012 11.809 20.449 11.809h15.746c4.3477 0 7.8711 3.5234 7.8711 7.8711s-3.5234 7.8711-7.8711 7.8711h-15.746c-4.3477 0-7.8711-3.5234-7.8711-7.8711s-3.5234-7.8711-7.8711-7.8711c-4.3477 0-7.8711 3.5234-7.8711 7.8711 0 6.2617 2.4883 12.27 6.9141 16.699 4.4297 4.4297 10.438 6.918 16.699 6.918v7.8711c0 4.3477 3.5273 7.8711 7.875 7.8711s7.8711-3.5234 7.8711-7.8711z"/>
  <path d="m281.92 478.72h-2.832c15.332-12.332 24.848-30.484 26.266-50.109 1.4141-19.625-5.3906-38.957-18.797-53.359-13.402-14.406-32.191-22.59-51.867-22.59-19.68 0-38.469 8.1836-51.871 22.59-13.402 14.402-20.211 33.734-18.793 53.359 1.4141 19.625 10.93 37.777 26.266 50.109h-2.8359c-6.2578 0.019531-12.254 2.5117-16.676 6.9375-4.4258 4.4258-6.9219 10.422-6.9414 16.68v15.742c0.015624 5.832 2.207 11.445 6.1406 15.746-3.9336 4.3008-6.125 9.9141-6.1406 15.742v15.746c0.015624 5.8281 2.207 11.441 6.1406 15.742-3.9336 4.3008-6.125 9.9141-6.1406 15.746v15.742c0.019531 6.2578 2.5156 12.254 6.9414 16.68 4.4219 4.4219 10.418 6.918 16.676 6.9375h94.465c6.2578-0.019531 12.254-2.5156 16.68-6.9375 4.4219-4.4258 6.918-10.422 6.9375-16.68v-15.742c-0.015625-5.832-2.207-11.445-6.1406-15.746 3.9336-4.3008 6.125-9.9141 6.1406-15.742v-15.746c-0.015625-5.8281-2.207-11.441-6.1406-15.742 3.9336-4.3008 6.125-9.9141 6.1406-15.746v-15.742c-0.019531-6.2578-2.5156-12.254-6.9375-16.68-4.4258-4.4258-10.422-6.918-16.68-6.9375zm-102.34-55.105c0-14.613 5.8047-28.629 16.141-38.965 10.332-10.332 24.348-16.137 38.965-16.137 14.613 0 28.629 5.8047 38.965 16.137 10.332 10.336 16.137 24.352 16.137 38.965 0 14.617-5.8047 28.633-16.137 38.965-10.336 10.336-24.352 16.141-38.965 16.141-14.609-0.015625-28.617-5.8281-38.949-16.156-10.328-10.332-16.141-24.34-16.156-38.949zm110.21 188.93c0 2.0898-0.82812 4.0898-2.3047 5.5664s-3.4766 2.3047-5.5664 2.3047h-7.8711v-15.742h-15.746v15.742h-15.742v-15.742h-15.746v15.742h-15.742v-15.742h-15.746v15.742h-7.8711c-4.3477 0-7.8711-3.5234-7.8711-7.8711v-15.742c0-4.3477 3.5234-7.875 7.8711-7.875h94.465c2.0898 0 4.0898 0.83203 5.5664 2.3086s2.3047 3.4766 2.3047 5.5664zm0-47.23c0 2.0859-0.82812 4.0898-2.3047 5.5664-1.4766 1.4766-3.4766 2.3047-5.5664 2.3047h-7.8711v-15.746h-15.746v15.742l-15.742 0.003906v-15.746h-15.746v15.742l-15.742 0.003906v-15.746h-15.746v15.742l-7.8711 0.003906c-4.3477 0-7.8711-3.5234-7.8711-7.8711v-15.746c0-4.3477 3.5234-7.8711 7.8711-7.8711h94.465c2.0898 0 4.0898 0.82813 5.5664 2.3047s2.3047 3.4805 2.3047 5.5664zm0-47.23v-0.003906c0 2.0898-0.82812 4.0898-2.3047 5.5664-1.4766 1.4766-3.4766 2.3047-5.5664 2.3047h-7.8711v-15.742h-15.746v15.742h-15.742v-15.742h-15.746v15.742h-15.742v-15.742h-15.746v15.742h-7.8711c-4.3477 0-7.8711-3.5234-7.8711-7.8711v-15.742c0-4.3477 3.5234-7.875 7.8711-7.875h94.465c2.0898 0 4.0898 0.83203 5.5664 2.3086 1.4766 1.4766 2.3047 3.4766 2.3047 5.5664z"/>
  <path d="m636.16 360.64c-0.019531-6.2578-2.5156-12.25-6.9375-16.676-4.4258-4.4258-10.422-6.9219-16.68-6.9375h-15.742v-94.465h15.742c2.9922 0.019531 5.7383-1.6562 7.0859-4.332 1.293-2.6836 0.99219-5.8711-0.78906-8.2656l-47.469-62.977v0.003906c-1.4961-1.9688-3.8242-3.1328-6.2969-3.1523-2.4766 0-4.8086 1.168-6.2969 3.1523l-46.996 62.977v-0.003906c-1.7852 2.3984-2.0625 5.6016-0.70703 8.2656 1.3164 2.6641 4.0352 4.3438 7.0039 4.332h15.742l0.003907 94.465h-15.746c-6.2578 0.015624-12.254 2.5117-16.676 6.9375-4.4258 4.4258-6.9219 10.418-6.9414 16.676v15.746c0.015624 5.8281 2.207 11.441 6.1406 15.742-3.9336 4.3008-6.125 9.918-6.1406 15.746v15.742c0.015624 5.832 2.207 11.445 6.1406 15.746-3.9336 4.3008-6.125 9.9141-6.1406 15.742v15.746c0.015624 5.8281 2.207 11.441 6.1406 15.742-3.9336 4.3008-6.125 9.9141-6.1406 15.746v15.742c0.015624 5.832 2.207 11.445 6.1406 15.746-3.9336 4.3008-6.125 9.9141-6.1406 15.742v15.746c0.015624 5.8281 2.207 11.441 6.1406 15.742-3.9336 4.3008-6.125 9.9141-6.1406 15.746v15.742c0.019531 6.2578 2.5156 12.254 6.9414 16.68 4.4219 4.4219 10.418 6.918 16.676 6.9375h94.465c6.2578-0.019531 12.254-2.5156 16.68-6.9375 4.4219-4.4258 6.918-10.422 6.9375-16.68v-15.742c-0.015625-5.832-2.207-11.445-6.1406-15.746 3.9336-4.3008 6.125-9.9141 6.1406-15.742v-15.746c-0.015625-5.8281-2.207-11.441-6.1406-15.742 3.9336-4.3008 6.125-9.9141 6.1406-15.746v-15.742c-0.015625-5.832-2.207-11.445-6.1406-15.746 3.9336-4.3008 6.125-9.9141 6.1406-15.742v-15.746c-0.015625-5.8281-2.207-11.441-6.1406-15.742 3.9336-4.3008 6.125-9.9141 6.1406-15.746v-15.742c-0.015625-5.8281-2.207-11.445-6.1406-15.746 3.9336-4.3008 6.125-9.9141 6.1406-15.742zm-102.41-133.82 31.332-41.957 31.641 41.957h-7.793c-4.3477 0-7.8711 3.5273-7.8711 7.875v102.34h-31.488v-102.34c0-2.0898-0.82812-4.0898-2.3047-5.5664-1.4766-1.4766-3.4805-2.3086-5.5664-2.3086zm86.668 385.73c0 2.0898-0.82812 4.0898-2.3047 5.5664s-3.4766 2.3047-5.5664 2.3047h-7.8711v-15.742h-15.746v15.742h-15.742v-15.742h-15.746v15.742h-15.742v-15.742h-15.746v15.742h-7.8711c-4.3477 0-7.8711-3.5234-7.8711-7.8711v-15.742c0-4.3477 3.5234-7.875 7.8711-7.875h94.465c2.0898 0 4.0898 0.83203 5.5664 2.3086s2.3047 3.4766 2.3047 5.5664zm0-47.23c0 2.0859-0.82812 4.0898-2.3047 5.5664-1.4766 1.4766-3.4766 2.3047-5.5664 2.3047h-7.8711v-15.746h-15.746v15.742l-15.742 0.003906v-15.746h-15.746v15.742l-15.742 0.003906v-15.746h-15.746v15.742l-7.8711 0.003906c-4.3477 0-7.8711-3.5234-7.8711-7.8711v-15.746c0-4.3477 3.5234-7.8711 7.8711-7.8711h94.465c2.0898 0 4.0898 0.82813 5.5664 2.3047s2.3047 3.4805 2.3047 5.5664zm0-47.23v-0.003906c0 2.0898-0.82812 4.0898-2.3047 5.5664-1.4766 1.4766-3.4766 2.3047-5.5664 2.3047h-7.8711v-15.742h-15.746v15.742h-15.742v-15.742h-15.746v15.742h-15.742v-15.742h-15.746v15.742h-7.8711c-4.3477 0-7.8711-3.5234-7.8711-7.8711v-15.742c0-4.3477 3.5234-7.875 7.8711-7.875h94.465c2.0898 0 4.0898 0.83203 5.5664 2.3086 1.4766 1.4766 2.3047 3.4766 2.3047 5.5664zm0-47.23v-0.003906c0 2.0859-0.82812 4.0898-2.3047 5.5664-1.4766 1.4766-3.4766 2.3047-5.5664 2.3047h-7.8711v-15.742h-15.746v15.742h-15.742v-15.742h-15.746v15.742h-15.742v-15.742h-15.746v15.742h-7.8711c-4.3477 0-7.8711-3.5234-7.8711-7.8711v-15.746c0-4.3477 3.5234-7.8711 7.8711-7.8711h94.465c2.0898 0 4.0898 0.82812 5.5664 2.3047 1.4766 1.4766 2.3047 3.4805 2.3047 5.5664zm0-47.23v-0.007813c0 2.0898-0.82812 4.0898-2.3047 5.5664-1.4766 1.4766-3.4766 2.3086-5.5664 2.3086h-7.8711v-15.746h-15.746v15.742l-15.742 0.003906v-15.746h-15.746v15.742l-15.742 0.003906v-15.746h-15.746v15.742l-7.8711 0.003906c-4.3477 0-7.8711-3.5273-7.8711-7.875v-15.742c0-4.3477 3.5234-7.8711 7.8711-7.8711h94.465c2.0898 0 4.0898 0.82812 5.5664 2.3047 1.4766 1.4766 2.3047 3.4766 2.3047 5.5664zm0-47.23v-0.007813c0 2.0859-0.82812 4.0898-2.3047 5.5664-1.4766 1.4766-3.4766 2.3047-5.5664 2.3047h-7.8711v-15.742h-15.746v15.742h-15.742v-15.742h-15.746v15.742h-15.742v-15.742h-15.746v15.742h-7.8711c-4.3477 0-7.8711-3.5234-7.8711-7.8711v-15.746c0-4.3477 3.5234-7.8711 7.8711-7.8711h94.465c2.0898 0 4.0898 0.83203 5.5664 2.3047 1.4766 1.4766 2.3047 3.4805 2.3047 5.5664z"/>
  <path d="m407.87 289.79h23.617c14.609-0.015624 28.613-5.8281 38.945-16.156 10.328-10.332 16.141-24.336 16.156-38.945v-15.746c0-2.0859-0.82812-4.0898-2.3047-5.5664-1.4766-1.4766-3.4805-2.3047-5.5664-2.3047h-31.488c-11.285 0.03125-22.293 3.5195-31.539 9.9922-9.2461 6.4766-16.289 15.625-20.18 26.219-10.402-12.957-26.129-20.488-42.746-20.469h-31.488c-4.3477 0-7.8711 3.5273-7.8711 7.875v15.742c0.015625 14.609 5.8281 28.617 16.156 38.945 10.332 10.332 24.34 16.141 38.949 16.16h23.617v48.098h-0.003906c-10.336-10.629-24.535-16.617-39.359-16.609h-31.488c-4.3477 0-7.8711 3.5234-7.8711 7.8711v15.742c0.015625 14.609 5.8281 28.617 16.156 38.949 10.332 10.328 24.34 16.141 38.949 16.156h23.617v15.742l-39.363 0.003906c-6.2578 0.015625-12.254 2.5117-16.676 6.9375-4.4258 4.4219-6.9219 10.418-6.9414 16.676v15.746c0.015624 5.8281 2.207 11.441 6.1406 15.742-3.9336 4.3008-6.125 9.9141-6.1406 15.746v15.742c0.015624 5.832 2.207 11.445 6.1406 15.746-3.9336 4.3008-6.125 9.9141-6.1406 15.742v15.746c0.015624 5.8281 2.207 11.441 6.1406 15.742-3.9336 4.3008-6.125 9.9141-6.1406 15.746v15.742c0.019531 6.2578 2.5156 12.254 6.9414 16.68 4.4219 4.4219 10.418 6.918 16.676 6.9375h94.465c6.2578-0.019531 12.254-2.5156 16.68-6.9375 4.4219-4.4258 6.918-10.422 6.9375-16.68v-15.742c-0.015625-5.832-2.207-11.445-6.1406-15.746 3.9336-4.3008 6.125-9.9141 6.1406-15.742v-15.746c-0.015625-5.8281-2.207-11.441-6.1406-15.742 3.9336-4.3008 6.125-9.9141 6.1406-15.746v-15.742c-0.015625-5.832-2.207-11.445-6.1406-15.746 3.9336-4.3008 6.125-9.9141 6.1406-15.742v-15.746c-0.019531-6.2578-2.5156-12.254-6.9375-16.676-4.4258-4.4258-10.422-6.9219-16.68-6.9375h-39.359v-47.234h23.617c14.609-0.015625 28.613-5.8281 38.945-16.156 10.328-10.332 16.141-24.34 16.156-38.949v-15.742c0-2.0859-0.82812-4.0898-2.3047-5.5664-1.4766-1.4766-3.4805-2.3047-5.5664-2.3047h-31.488c-14.824-0.007812-29.023 5.9805-39.359 16.609zm23.617-15.742h-9.0547l48.336-38.652c-0.1875 10.301-4.4062 20.121-11.75 27.348-7.3438 7.2266-17.23 11.285-27.531 11.305zm15.742-47.23h9.0547l-48.336 38.652v-0.003906c0.18359-10.301 4.4023-20.121 11.746-27.348 7.3477-7.2266 17.23-11.285 27.535-11.305zm-78.719 62.973c-10.305-0.019531-20.191-4.0781-27.535-11.305s-11.562-17.043-11.746-27.348l48.332 38.652zm-24.797-47.23h9.0508c10.305 0.019531 20.191 4.0781 27.535 11.305 7.3438 7.2266 11.562 17.043 11.746 27.348zm24.797 157.44c-10.305-0.019531-20.191-4.0781-27.535-11.305-7.3438-7.2266-11.562-17.047-11.746-27.348l48.332 38.652zm-24.797-47.23 9.0508-0.003906c10.305 0.019531 20.191 4.0781 27.535 11.305 7.3438 7.2266 11.562 17.047 11.746 27.348zm111.39 259.77c0 2.0898-0.82812 4.0898-2.3047 5.5664s-3.4766 2.3047-5.5664 2.3047h-7.8711v-15.742h-15.746v15.742h-15.742v-15.742h-15.746v15.742h-15.742v-15.742h-15.746v15.742h-7.8711c-4.3477 0-7.8711-3.5234-7.8711-7.8711v-15.742c0-4.3477 3.5234-7.875 7.8711-7.875h94.465c2.0898 0 4.0898 0.83203 5.5664 2.3086s2.3047 3.4766 2.3047 5.5664zm0-47.23c0 2.0859-0.82812 4.0898-2.3047 5.5664-1.4766 1.4766-3.4766 2.3047-5.5664 2.3047h-7.8711v-15.746h-15.746v15.742l-15.742 0.003906v-15.746h-15.746v15.742l-15.742 0.003906v-15.746h-15.746v15.742l-7.8711 0.003906c-4.3477 0-7.8711-3.5234-7.8711-7.8711v-15.746c0-4.3477 3.5234-7.8711 7.8711-7.8711h94.465c2.0898 0 4.0898 0.82813 5.5664 2.3047s2.3047 3.4805 2.3047 5.5664zm0-47.23v-0.003906c0 2.0898-0.82812 4.0898-2.3047 5.5664-1.4766 1.4766-3.4766 2.3047-5.5664 2.3047h-7.8711v-15.742h-15.746v15.742h-15.742v-15.742h-15.746v15.742h-15.742v-15.742h-15.746v15.742h-7.8711c-4.3477 0-7.8711-3.5234-7.8711-7.8711v-15.742c0-4.3477 3.5234-7.875 7.8711-7.875h94.465c2.0898 0 4.0898 0.83203 5.5664 2.3086 1.4766 1.4766 2.3047 3.4766 2.3047 5.5664zm-7.8711-70.848v-0.003906c2.0898 0 4.0898 0.82812 5.5664 2.3047 1.4766 1.4766 2.3047 3.4805 2.3047 5.5664v15.746c0 2.0859-0.82812 4.0898-2.3047 5.5664-1.4766 1.4766-3.4766 2.3047-5.5664 2.3047h-7.8711v-15.742h-15.746v15.742h-15.742v-15.742h-15.746v15.742h-15.742v-15.742h-15.746v15.742h-7.8711c-4.3477 0-7.8711-3.5234-7.8711-7.8711v-15.746c0-4.3477 3.5234-7.8711 7.8711-7.8711zm-15.742-78.723h-9.0547l48.336-38.652c-0.1875 10.301-4.4062 20.121-11.75 27.348-7.3438 7.2266-17.23 11.285-27.531 11.305zm15.742-47.23h9.0547l-48.336 38.652v-0.003906c0.18359-10.301 4.4023-20.121 11.746-27.348 7.3477-7.2266 17.23-11.285 27.535-11.305z"/>
 </g>
</svg>