<?xml version="1.0" encoding="UTF-8"?>
<!-- The Best Svg Icon site in the world: iconSvg.co, Visit us! https://iconsvg.co -->
<svg fill="#000000" width="800px" height="800px" version="1.1" viewBox="144 144 512 512" xmlns="http://www.w3.org/2000/svg">
 <g>
  <path d="m442.17 469.22c0 30.32 24.668 54.984 54.984 54.984 30.324 0 54.992-24.668 54.992-54.984 0-30.32-24.668-54.984-54.992-54.984-30.312 0.003907-54.984 24.668-54.984 54.984zm54.984-39.867c21.984 0 39.875 17.887 39.875 39.871 0 21.984-17.891 39.871-39.875 39.871s-39.871-17.887-39.871-39.871c0-21.984 17.887-39.871 39.871-39.871z"/>
  <path d="m253.27 469.22c0 30.324 24.668 54.992 54.984 54.992 30.32 0 54.984-24.668 54.984-54.992 0-30.32-24.668-54.984-54.984-54.984-30.32-0.003906-54.984 24.664-54.984 54.984zm94.852 0c0 21.984-17.887 39.875-39.871 39.875s-39.871-17.891-39.871-39.875 17.887-39.871 39.871-39.871 39.871 17.883 39.871 39.871z"/>
  <path d="m530.88 572.4c-2.0625-2.0625-5.125-2.75-7.875-1.7773-48.863 17.348-96.711-22.371-115.02-40.266-2.9336-2.8672-7.6289-2.8672-10.566 0-18.309 17.891-66.148 57.629-115.04 40.266-2.7461-0.97266-5.8125-0.28906-7.875 1.7773l-11.863 11.859c-2.9531 2.9492-2.9531 7.7344 0 10.688 2.9492 2.9531 7.7344 2.9531 10.688 0l8.5938-8.5898c37.418 11.008 80.867-3.457 120.79-40.184 39.902 36.723 83.336 51.184 120.75 40.18l8.5938 8.6016c1.4766 1.4766 3.4102 2.2109 5.3438 2.2109s3.8711-0.73438 5.3438-2.2109c2.9531-2.9492 2.9531-7.7383 0-10.688z"/>
  <path d="m622.89 504.13-8.5938-8.6016c11.465-39.348-5.8359-86.77-46.996-127.94-8.7422-8.7461-22.973-8.75-31.727 0-4.2383 4.2383-6.5742 9.8711-6.5742 15.859 0 5.9922 2.3359 11.629 6.5742 15.859 34.859 34.863 37.387 82.941 6.0039 114.32-35.117 35.121-82.867 22.137-114.62-6.2969-16.27-14.574-32.613-14.555-48.578 0.066406-31.383 28.746-78.98 41.816-114.56 6.2383-15.758-15.758-23.328-35.348-21.887-56.648 1.3906-20.586 11.301-41.07 27.906-57.672 8.7422-8.75 8.7344-22.984 0-31.719-4.2383-4.2422-9.875-6.5781-15.863-6.5781-5.9961 0-11.629 2.3359-15.859 6.5742-41.16 41.156-58.469 88.574-47.004 127.92l-8.6016 8.6055c-2.9531 2.9492-2.9531 7.7383 0 10.688 2.9531 2.9531 7.7344 2.9531 10.688 0l11.863-11.863c2.0625-2.0625 2.75-5.125 1.7773-7.875-12.277-34.578 3.4062-78.238 41.961-116.79 2.7656-2.7656 7.582-2.7656 10.348 0.003906 2.8516 2.8477 2.8516 7.4922 0 10.348-19.184 19.184-30.656 43.098-32.293 67.336-1.7188 25.414 7.6133 49.691 26.277 68.352 36.352 36.355 92.051 33.98 135.46-5.7773 10.305-9.4414 17.715-9.4258 28.277 0.046875 23.434 20.992 49.609 31.574 74.457 31.574 22.363 0 43.664-8.5742 60.93-25.84 37.574-37.57 35.047-94.641-6.0039-135.7-1.3789-1.3789-2.1445-3.2188-2.1445-5.1758 0-1.9531 0.76172-3.793 2.1445-5.1758 2.8516-2.8516 7.4961-2.8555 10.352 0 38.547 38.555 54.234 82.215 41.953 116.8-0.97656 2.7461-0.28906 5.8086 1.7773 7.875l11.859 11.863c2.9531 2.9531 7.7344 2.9531 10.688 0 2.957-2.9453 2.957-7.7344 0.007813-10.684z"/>
  <path d="m402.7 425.22c61.625 0 111.77-50.141 111.77-111.77 0-61.625-50.141-111.77-111.77-111.77s-111.76 50.141-111.76 111.77c0 61.633 50.133 111.77 111.76 111.77zm0-208.42c53.297 0 96.652 43.359 96.652 96.652 0 53.297-43.352 96.656-96.652 96.656-53.293 0-96.645-43.359-96.645-96.656s43.352-96.652 96.645-96.652z"/>
  <path d="m405.27 324.64c5.7734 1.4102 16.812 3.6289 16.844 16.941 0.003906 5.168-3.1836 15.18-19.648 15.18-7.6562 0-18.574-3.3906-18.574-17.285 0 0 0.12109-7.2539-8.9219-7.2539-9.0547 0-9.7656 7.2539-9.7656 7.2539 0 9.2031 1.3281 15.684 6.125 21.973 7.5234 9.9414 16.812 13.121 23.809 14.137v9.875c0 4.1758 3.3789 7.5586 7.5586 7.5586 4.1758 0 7.5586-3.3789 7.5586-7.5586v-9.9219c22.223-3.3516 30.527-23.68 30.527-36.5 0-9.1992-3.3398-23.332-24.547-30.633l-19.039-6.2773c-2.9219-0.94531-14.801-5.168-13.543-16.922 0.48047-4.4844 1.793-7.9336 5.3711-10.289 2.9336-1.875 6.5547-2.8203 10.863-2.8203 7.3242 0 12.316 1.2383 15.566 5.4609 1.7891 2.4453 2.3711 4.2305 2.8555 8.4688 0 0 0.57422 6.957 8.9219 6.957s9.6211-6.6289 9.7891-7.8281c0.74609-5.4141-2.207-14.473-6.3125-19.852-4.9023-6.4297-11.91-10.262-20.465-11.758v-8.4492c0-4.1758-3.3867-7.5586-7.5586-7.5586s-7.5586 3.3789-7.5586 7.5586v8.082c-10.188 1.1289-17.898 5.1094-23.078 12.031-4.3945 5.9062-11.73 17.305-4.2109 37.004 6.5 17 37.434 22.426 37.434 22.426z"/>
 </g>
</svg>