<?xml version="1.0" encoding="UTF-8"?>
<!-- The Best Svg Icon site in the world: iconSvg.co, Visit us! https://iconsvg.co -->
<svg fill="#000000" width="800px" height="800px" version="1.1" viewBox="144 144 512 512" xmlns="http://www.w3.org/2000/svg">
 <g>
  <path d="m628.36 278.64c0-9.0625-7.3438-16.398-16.406-16.398-9.0547 0-16.395 7.3359-16.395 16.398 0 6.0469 3.3125 11.273 8.1836 14.113l-17.781 68.152-17.727-26.602c1.4922-2.4727 2.3984-5.3359 2.3984-8.4336 0-9.0625-7.3438-16.398-16.406-16.398-9.0547 0-16.395 7.3359-16.395 16.398 0 5.0703 2.3477 9.5469 5.9609 12.555l-18.625 50.621-14.016-13.949c1.0859-2.1875 1.7539-4.625 1.7539-7.2383 0-9.0625-7.3438-16.398-16.406-16.398-9.0547 0-16.395 7.3359-16.395 16.398 0 4.1562 1.5938 7.9023 4.1406 10.797l-16.02 24.633v-3.2852c0-2.4453-1.6836-4.5664-4.0664-5.1172l-125.35-28.934c-2.8086-0.625-5.6406 1.1055-6.2969 3.9375-0.65234 2.8281 1.1055 5.6406 3.9375 6.2969l121.28 27.988v16.82c0 2.3242 1.5273 4.3711 3.7578 5.0312 0.49219 0.14844 0.99219 0.21484 1.4922 0.21484 1.7422 0 3.4102-0.87109 4.4023-2.3867l25.945-39.918c1.0273 0.20703 2.082 0.32031 3.168 0.32031 2.6094 0 5.0391-0.66016 7.2266-1.7461l19.844 19.742c1.2695 1.2656 3.1133 1.7852 4.832 1.4062 1.7461-0.38672 3.1758-1.6367 3.793-3.3125l21.387-58.137c0.22266 0.003907 0.42578 0.0625 0.64844 0.0625 2.0977 0 4.0898-0.42969 5.9336-1.1484l23.559 35.34c1.1484 1.7227 3.1797 2.6133 5.2383 2.2656 2.0352-0.33984 3.6836-1.8516 4.207-3.8516l20.883-80.047c8.0586-1.0391 14.312-7.8438 14.312-16.191z"/>
  <path d="m268.79 452.24c0.26172 0.011718 0.65234 0.035156 0.96484 0.10937 2.9141 0.65625 5.6211 3.8555 5.6211 6.7227 0 0.24609 0 0.48828-0.042969 0.71484-0.55078 2.793 1.2344 5.5156 4.0156 6.1406l123.02 28.035c0.37891 0.089844 0.76953 0.49609 1.1523 0.49609h0.10547c2.8984 0 6.1914-2.7188 6.1914-5.6172 0-0.58594 0.67188-1.5273 0.67188-2.0586v-0.12109c0-1.3164-0.16797-2.9219 2.332-2.3711 0.32422 0.074219 0.16797 0.1875 0.48828 0.31641 1.6094 0.65234 3.6953 0.45703 5.1328-0.51953 1.4414-0.97656 2.5469-2.6094 2.5469-4.3516v-36.953c0-2.8164-2.6992-5.1328-5.5156-5.2422-0.26953-0.011719-0.77734-0.035157-1.0586-0.10547-2.9219-0.65625-5.6992-3.8633-5.6992-6.7266 0-0.25-0.027344-0.49219 0.019531-0.72266 0.54688-2.7852-1.2578-5.5039-4.0312-6.125l-123.04-27.668c-1.7227-0.39453-3.5195 0.11719-4.7969 1.3398-1.2695 1.2227-1.8477 3-1.5273 4.7344 0.050782 0.28516 0.082032 0.56641 0.082032 0.85547 0 1.3164-0.78906 2.9492-3.2812 2.3711-0.32031-0.066406-0.625-0.17969-0.92188-0.30078-1.6172-0.65625-3.6797-0.48437-5.1367 0.49219-1.4492 0.97656-2.5391 2.6133-2.5391 4.3594v36.953c0 2.8086 2.4297 5.1172 5.2383 5.2422zm5.2578-36.195c5.2461-0.48828 9.2734-3.7148 10.891-8.3086l113.73 25.453c0.98047 6.043 6.5742 11.52 11.824 13.777v26.781c-5.2461 0.48828-9.5312 3.7148-11.148 8.3086l-113.61-25.449c-0.98047-6.0625-6.4492-11.547-11.695-13.785z"/>
  <path d="m340.86 466.63c1.3164 0.30078 2.6484 0.44531 3.9531 0.44531 9.6445 0 16.918-8.1406 16.918-18.93 0-11.676-8.1562-22.652-18.566-24.992-1.3164-0.30078-2.6445-0.44531-3.9531-0.44531-9.6406 0-16.914 8.1406-16.914 18.93 0 11.676 8.1562 22.652 18.562 24.992zm-1.6484-33.426c0.53125 0 1.082 0.066407 1.6484 0.19531 5.6211 1.2656 10.375 8.0195 10.375 14.754 0 5.6562-3.4492 9.293-8.0703 8.2461-5.6211-1.2656-10.371-8.0195-10.371-14.754 0-4.9727 2.6406-8.4414 6.418-8.4414z"/>
  <path d="m462.98 447.23c-2.9023 0-5.2461 2.3516-5.2461 5.2461v33.457l-10.496-2.0664-0.003906-62.875c0-2.4453-1.6836-4.5664-4.0664-5.1172l-179.74-41.48c0.019531-0.21484 0.125-0.41016 0.125-0.63672v-14.395l35.445 8.1836c2.8242 0.64062 5.6484-1.1055 6.2969-3.9375 0.65234-2.8281-1.1055-5.6406-3.9375-6.2969l-41.875-9.6602c-1.5547-0.35156-3.1914 0.011718-4.4492 1.0078-1.2461 0.99219-1.9766 2.5039-1.9766 4.1055v19.238l-14.562-3.3633c-1.5547-0.35156-3.1953 0.011719-4.4492 1.0078-1.25 0.99609-1.9805 2.5078-1.9805 4.1094v84.281l-26.359-17.52c-1.4492-0.95703-3.2695-1.1445-4.875-0.49219s-2.793 2.0508-3.1602 3.7422l-7.3828 33.816c-8.1836 0.91797-14.57 7.7773-14.57 16.215 0 9.0703 7.3398 16.406 16.395 16.406 9.0625 0 16.406-7.3359 16.406-16.398 0-5.9609-3.2109-11.133-7.9727-13.996l5.7422-26.293 28.117 18.688c0.015625 0.011719 0.042968 0.011719 0.0625 0.027344 0.51562 0.33203 1.082 0.58594 1.707 0.72266l204.67 45.48c0.37891 0.082031 0.76172 0.125 1.1406 0.125 1.1875 0 2.3398-0.39844 3.2852-1.1562 1.2383-0.99609 1.9609-2.5039 1.9609-4.0938v-18.734l14.73 2.8984c0.33594 0.0625 0.67578 0.10156 1.0117 0.10156 1.2031 0 2.3867-0.41406 3.332-1.1953 1.2148-1.0117 1.918-2.4961 1.918-4.0664v-39.836c0-2.8984-2.3477-5.25-5.2461-5.25zm-26.242 59.535-194.18-43.145v-83.266l194.18 44.812z"/>
 </g>
</svg>