<?xml version="1.0" encoding="UTF-8"?>
<!-- The Best Svg Icon site in the world: iconSvg.co, Visit us! https://iconsvg.co -->
<svg fill="#000000" width="800px" height="800px" version="1.1" viewBox="144 144 512 512" xmlns="http://www.w3.org/2000/svg">
 <g>
  <path d="m411.49 414.32-56.441 57.781c-2.0898 2.0664-2.6289 5.2344-1.3398 7.8711 1.1367 2.4531 3.5938 4.0195 6.2969 4.0156l81.004-5.2734c1.832-0.10156 3.5469-0.93359 4.7617-2.3086 1.2109-1.375 1.8242-3.1836 1.6953-5.0117-1.3828-21.59-10.723-41.895-26.215-56.992-2.6797-2.707-7.0391-2.7422-9.7617-0.082031zm-33.93 54.473 38.809-39.359v0.003906c8.7031 10.281 14.422 22.75 16.531 36.051z"/>
  <path d="m409.92 488.32-76.754 5.0391-45.812-61.875c-1.0742-1.5117-2.7305-2.5117-4.5664-2.7578-1.8047-0.26172-3.6406 0.19141-5.1172 1.2617-24.469 18.078-37.816 47.543-35.273 77.855 2.5391 30.316 20.609 57.145 47.746 70.898 27.133 13.75 59.457 12.457 85.406-3.4219 25.949-15.875 41.816-44.066 41.926-74.484v-5.7461c-0.035156-1.9258-0.86719-3.75-2.3008-5.0312-1.4336-1.2852-3.3398-1.9141-5.2539-1.7383zm-80.059 86.039c-20.07 0-39.273-8.1602-53.207-22.602-13.93-14.445-21.391-33.934-20.664-53.988 0.72656-20.055 9.5742-38.953 24.512-52.352l43.77 59.199v-0.003906c1.4023 1.8672 3.6523 2.9062 5.9844 2.7539l73.367-4.7227c-0.55469 19.199-8.5664 37.43-22.336 50.816-13.773 13.391-32.219 20.887-51.426 20.898z"/>
  <path d="m284.91 397.56c-3.0625 2.2852-3.6953 6.6172-1.418 9.6836l48.02 64.945v-0.003906c1.1875 1.6367 3.0273 2.6719 5.0391 2.8359h0.47266c1.875 0 3.6641-0.76953 4.957-2.125l56.441-57.703h0.003906c1.3047-1.2891 2.043-3.0469 2.043-4.8789 0-1.8359-0.73828-3.5938-2.043-4.8828-14.891-14.574-34.484-23.371-55.27-24.812-20.785-1.4414-41.406 4.5625-58.168 16.941zm52.898 59.906-38.887-52.664c12.996-7.8047 28.078-11.426 43.203-10.367 15.125 1.0547 29.555 6.7344 41.344 16.27z"/>
  <path d="m499.34 229.96-67.855-66.91c-1.332-1.2539-3.0586-2.0039-4.8828-2.125h-232.62c-4.1758 0-8.1797 1.6562-11.133 4.6094s-4.6133 6.957-4.6133 11.133v446.34c0 4.1758 1.6602 8.1797 4.6133 11.133s6.957 4.6133 11.133 4.6133h292.6c4.1758 0 8.1797-1.6602 11.133-4.6133s4.6133-6.957 4.6133-11.133v-385.73 0.003906c0.39062-2.8008-0.75391-5.5977-2.9922-7.3242zm-23.617-1.418h-42.508v-41.562zm10.863 395.26h-292.6c-0.17578 0.027344-0.35156-0.03125-0.47656-0.15625s-0.17969-0.30078-0.15234-0.47266v-446.34c0.035156-0.33203 0.29688-0.59766 0.62891-0.63281h224.27v53.688c-0.089844 7.4453 5.7852 13.602 13.227 13.855h55.105l-0.003906 379.43c0.47266 0.47266 0 0.62891 0 0.62891z"/>
  <path d="m449.59 288.61h-218.69c-3.8242 0-6.9258 3.1016-6.9258 6.9258 0 3.8281 3.1016 6.9297 6.9258 6.9297h218.69c3.8242 0 6.9258-3.1016 6.9258-6.9297 0-3.8242-3.1016-6.9258-6.9258-6.9258z"/>
  <path d="m385.67 326.95h-96.984c-3.8242 0-6.9258 3.1016-6.9258 6.9297 0 3.8242 3.1016 6.9258 6.9258 6.9258h96.984c3.8242 0 6.9258-3.1016 6.9258-6.9258 0-3.8281-3.1016-6.9297-6.9258-6.9297z"/>
  <path d="m615.06 280.34c-3.8281 0-6.9258 3.1016-6.9258 6.9258v4.25l-11.336 0.003907v-15.746c-0.042969-3.8086-3.1211-6.8828-6.9297-6.9258h-6.1406v-16.926c0-6.4961-3.4648-12.5-9.0898-15.75-5.6289-3.2461-12.559-3.2461-18.188 0-5.625 3.25-9.0898 9.2539-9.0898 15.75v17.238h-5.668c-3.7969 0.042969-6.8477 3.1328-6.8477 6.9297v208.69c0 3.793 3.0508 6.8828 6.8477 6.9258v100.84c0.023438 5.1758 1.7109 10.207 4.8164 14.348s7.4609 7.168 12.422 8.6406v15.742c0 3.8281 3.1016 6.9297 6.9297 6.9297 3.8242 0 6.9258-3.1016 6.9258-6.9297v-15.742c4.9609-1.4727 9.3164-4.5 12.422-8.6406 3.1055-4.1406 4.7969-9.1719 4.8164-14.348v-100.84c3.8086-0.042969 6.8867-3.1172 6.9297-6.9258v-179.25h11.18v98.793c0 3.8242 3.0977 6.9258 6.9258 6.9258 3.8242 0 6.9258-3.1016 6.9258-6.9258v-117.06c0-3.8242-3.1016-6.9258-6.9258-6.9258zm-66.754 197.51v-194.83h34.793v194.83zm13.066-225.93c0-2.3906 1.9375-4.3281 4.3281-4.3281 2.3945 0 4.332 1.9375 4.332 4.3281v17.238h-8.6602zm14.641 340.62c0 5.6953-4.6172 10.312-10.312 10.312s-10.312-4.6172-10.312-10.312v-100.84h20.625z"/>
 </g>
</svg>