<?xml version="1.0" encoding="UTF-8"?>
<!-- The Best Svg Icon site in the world: iconSvg.co, Visit us! https://iconsvg.co -->
<svg fill="#000000" width="800px" height="800px" version="1.1" viewBox="144 144 512 512" xmlns="http://www.w3.org/2000/svg">
 <g>
  <path d="m274.5 353.96c-0.046875 0.125-0.09375 0.24219-0.13281 0.37891l-0.003906-0.003906c-10.922 29.461-10.922 61.859 0 91.316 0 0.125 0.085937 0.24219 0.13281 0.37109h0.003906c12.602 34.523 38.867 62.328 72.617 76.875 33.75 14.543 72.004 14.543 105.75 0 33.75-14.547 60.016-42.352 72.621-76.875 0.046875-0.125 0.09375-0.24219 0.13281-0.37109 10.922-29.457 10.922-61.855 0-91.316-0.039062-0.13281-0.085937-0.25-0.13281-0.37891v0.003906c-12.605-34.523-38.871-62.332-72.621-76.875-33.75-14.547-72.004-14.547-105.75 0-33.75 14.543-60.016 42.352-72.617 76.875zm14.168 7.0234c7.6914-7.9336 21.828-14.027 41.477-18.105v-0.003906c-5.0352 15.961-7.9258 32.523-8.5859 49.246h-39.242c0.69531-10.621 2.832-21.098 6.3594-31.141zm222.64 78.004c-7.6523 7.8711-22.098 14.168-42.051 18.246v-0.003906c-2.1133 0.34766-3.9961 1.5391-5.2109 3.3008-1.2188 1.7656-1.6602 3.9453-1.2344 6.0469 0.42969 2.0977 1.6953 3.9297 3.5039 5.0742 1.8125 1.1445 4.0078 1.5039 6.0898 0.99219 8.8672-1.7305 17.562-4.2539 25.977-7.5391-21.824 33.059-58.789 52.949-98.398 52.949-39.613 0-76.578-19.891-98.402-52.949 8.418 3.2852 17.109 5.8086 25.977 7.5391 2.082 0.51172 4.2812 0.15234 6.0898-0.99219s3.0742-2.9766 3.5039-5.0742c0.42969-2.1016-0.015625-4.2812-1.2305-6.0469-1.2188-1.7617-3.0977-2.9531-5.2109-3.3008-19.957-4.0703-34.402-10.375-42.051-18.246h-0.003907c-3.5195-10.035-5.6562-20.504-6.3438-31.117h39.219c0.23438 5.6055 0.62891 11.211 1.3633 16.773h-0.003906c0.22266 2.1133 1.2891 4.0508 2.957 5.3672 1.668 1.3164 3.7969 1.8984 5.9062 1.6211 2.1055-0.27734 4.0117-1.3945 5.2812-3.1016 1.2695-1.7031 1.7969-3.8477 1.4609-5.9492-0.98438-7.4883-1.4805-15.031-1.4805-22.582 0.03125-20.52 3.7773-40.859 11.059-60.043 17.227-2.0625 34.566-3.043 51.918-2.9336 17.348-0.10938 34.688 0.87109 51.914 2.9336 7.2812 19.184 11.027 39.523 11.062 60.043-0.003906 7.5508-0.5 15.094-1.4805 22.582-0.57031 4.3086 2.4609 8.2617 6.7695 8.832 0.33203 0.046876 0.66797 0.070313 1.0078 0.074219 3.9453-0.007812 7.2773-2.9297 7.793-6.8438 0.73047-5.5664 1.125-11.172 1.3633-16.773h39.219-0.003907c-0.67969 10.613-2.8086 21.082-6.3203 31.117zm6.3594-46.867h-39.242c-0.66406-16.719-3.5547-33.273-8.5938-49.23 19.68 4.0625 33.785 10.156 41.477 18.105 3.5273 10.039 5.6641 20.512 6.3594 31.125zm-19.277-57.316c-11.273-4.3086-22.98-7.3828-34.922-9.1602-5.6172-13.172-13.219-25.406-22.543-36.277 23.473 8.6992 43.59 24.605 57.465 45.438zm-98.398-52.891c13.672 0 31.332 16.059 44.477 41.305-13.383-1.2969-28.211-1.9453-44.477-1.9453-16.27 0-31.094 0.64844-44.477 1.9453 13.145-25.246 30.801-41.305 44.477-41.305zm-40.934 7.4531h-0.003906c-9.3203 10.871-16.918 23.105-22.535 36.277-11.938 1.7773-23.648 4.8516-34.922 9.1602 13.875-20.832 33.988-36.738 57.457-45.438z"/>
  <path d="m539.39 221.25-23.617-23.617h0.003907c-3.0742-3.0742-8.0586-3.0742-11.133 0l-18.051 18.051-10.176-10.18c-2.2539-2.25-5.6367-2.9219-8.5781-1.707-2.9414 1.2188-4.8594 4.0898-4.8594 7.2734v55.105c0 2.0859 0.82813 4.0898 2.3047 5.5664 1.4766 1.4727 3.4766 2.3047 5.5664 2.3047h55.105-0.003906c3.1836 0 6.0547-1.918 7.2734-4.8594s0.54297-6.3281-1.707-8.5781l-10.18-10.18 18.051-18.051c3.0742-3.0742 3.0742-8.0547 0-11.129z"/>
  <path d="m332.16 203.8c-2.9414-1.2188-6.3281-0.54688-8.5781 1.707l-10.18 10.18-18.051-18.051c-3.0742-3.0742-8.0586-3.0742-11.129 0l-23.617 23.617c-3.0742 3.0742-3.0742 8.0547 0 11.129l18.051 18.051-10.18 10.18c-2.25 2.25-2.9219 5.6367-1.707 8.5781 1.2188 2.9414 4.0898 4.8594 7.2734 4.8594h55.105-0.003906c2.0898 0 4.0938-0.83203 5.5664-2.3047 1.4766-1.4766 2.3086-3.4805 2.3086-5.5664v-55.105c0-3.1836-1.918-6.0547-4.8594-7.2734z"/>
  <path d="m539.39 567.62-18.051-18.051 10.18-10.18c2.25-2.25 2.9258-5.6367 1.707-8.5742-1.2188-2.9414-4.0898-4.8594-7.2734-4.8633h-55.102c-4.3477 0-7.8711 3.5273-7.8711 7.875v55.105-0.003907c0 3.1836 1.918 6.0547 4.8594 7.2734 2.9414 1.2188 6.3242 0.54297 8.5781-1.707l10.176-10.18 18.051 18.051c3.0742 3.0742 8.0586 3.0742 11.133 0l23.617-23.617-0.003906 0.003906c3.0742-3.0742 3.0742-8.0586 0-11.133z"/>
  <path d="m260.61 578.75 23.617 23.617v-0.003907c3.0703 3.0742 8.0547 3.0742 11.129 0l18.051-18.051 10.18 10.18c2.25 2.25 5.6367 2.9258 8.5781 1.707 2.9414-1.2188 4.8594-4.0898 4.8594-7.2734v-55.102c0-2.0898-0.83203-4.0898-2.3086-5.5664-1.4727-1.4766-3.4766-2.3086-5.5664-2.3086h-55.102c-3.1836 0.003906-6.0547 1.9219-7.2734 4.8633-1.2148 2.9375-0.54297 6.3242 1.707 8.5742l10.18 10.18-18.051 18.051c-3.0742 3.0742-3.0742 8.0586 0 11.133z"/>
  <path d="m611.7 216.95c5.7109-5.9766 8.8398-13.961 8.7109-22.23-0.125-8.2656-3.5-16.148-9.3906-21.949s-13.824-9.0508-22.094-9.0508c-8.2656 0-16.203 3.25-22.094 9.0508s-9.2617 13.684-9.3906 21.949c-0.125 8.2695 3.0039 16.254 8.7109 22.23-7.4023 4.0742-13.578 10.062-17.879 17.336-4.3008 7.2734-6.5742 15.566-6.5781 24.016v7.875c0 2.0859 0.82813 4.0898 2.3047 5.5664 1.4766 1.4727 3.4805 2.3047 5.5664 2.3047h78.723c2.0859 0 4.0898-0.83203 5.5664-2.3047 1.4727-1.4766 2.3047-3.4805 2.3047-5.5664v-7.875c-0.003906-8.4492-2.2773-16.742-6.5781-24.016-4.3047-7.2734-10.477-13.262-17.883-17.336z"/>
  <path d="m171.71 274.05h78.719c2.0898 0 4.0898-0.83203 5.5664-2.3047 1.4766-1.4766 2.3047-3.4805 2.3047-5.5664v-7.875c-0.003906-8.4492-2.2773-16.742-6.5781-24.016-4.3008-7.2734-10.477-13.262-17.879-17.336 5.7109-5.9766 8.8359-13.961 8.7109-22.23-0.12891-8.2656-3.5-16.148-9.3906-21.949-5.8906-5.8008-13.828-9.0508-22.094-9.0508-8.2656 0-16.203 3.25-22.094 9.0508-5.8906 5.8008-9.2656 13.684-9.3906 21.949-0.12891 8.2695 3 16.254 8.7109 22.23-7.4023 4.0742-13.578 10.062-17.879 17.336-4.3047 7.2734-6.5742 15.566-6.582 24.016v7.875c0 2.0859 0.83203 4.0898 2.3086 5.5664 1.4766 1.4727 3.4766 2.3047 5.5664 2.3047z"/>
  <path d="m611.7 579.06c5.7109-5.9766 8.8398-13.965 8.7109-22.23-0.125-8.2656-3.5-16.148-9.3906-21.949-5.8906-5.8008-13.824-9.0508-22.094-9.0508-8.2656 0-16.203 3.25-22.094 9.0508-5.8906 5.8008-9.2617 13.684-9.3906 21.949-0.125 8.2656 3.0039 16.254 8.7109 22.23-7.4023 4.0742-13.578 10.062-17.879 17.336-4.3008 7.2734-6.5742 15.566-6.5781 24.016v7.875c0 2.0859 0.82813 4.0898 2.3047 5.5664 1.4766 1.4727 3.4805 2.3047 5.5664 2.3047h78.723c2.0859 0 4.0898-0.83203 5.5664-2.3047 1.4727-1.4766 2.3047-3.4805 2.3047-5.5664v-7.875c-0.003906-8.4492-2.2773-16.742-6.5781-24.016-4.3047-7.2734-10.477-13.262-17.883-17.336z"/>
  <path d="m171.71 636.16h78.719c2.0898 0 4.0898-0.83203 5.5664-2.3047 1.4766-1.4766 2.3047-3.4805 2.3047-5.5664v-7.875c-0.003906-8.4492-2.2773-16.742-6.5781-24.016-4.3008-7.2734-10.477-13.262-17.879-17.336 5.7109-5.9766 8.8359-13.965 8.7109-22.23-0.12891-8.2656-3.5-16.148-9.3906-21.949-5.8906-5.8008-13.828-9.0508-22.094-9.0508-8.2656 0-16.203 3.25-22.094 9.0508-5.8906 5.8008-9.2656 13.684-9.3906 21.949-0.12891 8.2656 3 16.254 8.7109 22.23-7.4023 4.0742-13.578 10.062-17.879 17.336-4.3047 7.2734-6.5742 15.566-6.582 24.016v7.875c0 2.0859 0.83203 4.0898 2.3086 5.5664 1.4766 1.4727 3.4766 2.3047 5.5664 2.3047z"/>
  <path d="m427.75 400.61c9.0977-7.6641 14.531-18.816 14.957-30.703 0.16797-4.4414-1.1641-8.8125-3.7773-12.406-2.6172-3.5938-6.3633-6.207-10.645-7.4141-5.6562-1.5781-11.727-0.46094-16.449 3.0312-3.5312-2.2656-7.6367-3.4727-11.832-3.4727s-8.3047 1.207-11.832 3.4727c-4.7383-3.4688-10.801-4.5859-16.461-3.0312-4.2773 1.2109-8.0234 3.8203-10.637 7.418-2.6172 3.5938-3.9453 7.9609-3.7773 12.402 0.72266 11.828 6.4219 22.793 15.68 30.184-19.156 11.617-31.145 32.129-31.863 54.52 0 34.828 22.008 55.594 58.891 55.594 36.879 0 58.891-20.766 58.891-55.555-0.71094-22.082-12.395-42.355-31.145-54.039zm-27.746 85.977c-8.3516 0-16.363-3.3164-22.266-9.2227-5.9062-5.9023-9.2227-13.914-9.2227-22.266 0-4.3477 3.5234-7.8711 7.8711-7.8711 4.3477 0 7.8711 3.5234 7.8711 7.8711 0 4.1758 1.6602 8.1797 4.6133 11.133 2.9531 2.9531 6.957 4.6133 11.133 4.6133 4.3477 0 7.8711 3.5234 7.8711 7.8711s-3.5234 7.8711-7.8711 7.8711z"/>
 </g>
</svg>