<?xml version="1.0" encoding="UTF-8"?>
<!-- The Best Svg Icon site in the world: iconSvg.co, Visit us! https://iconsvg.co -->
<svg fill="#000000" width="800px" height="800px" version="1.1" viewBox="144 144 512 512" xmlns="http://www.w3.org/2000/svg">
 <g>
  <path d="m437.77 483.34c4.1719 0 7.5586-3.3789 7.5586-7.5586v-15.133c0-4.1758-3.3867-7.5586-7.5586-7.5586s-7.5586 3.3789-7.5586 7.5586v15.133c0 4.1797 3.3867 7.5586 7.5586 7.5586z"/>
  <path d="m437.77 538.85c4.1719 0 7.5586-3.3789 7.5586-7.5586v-15.133c0-4.1758-3.3867-7.5586-7.5586-7.5586s-7.5586 3.3789-7.5586 7.5586v15.133c0 4.1719 3.3867 7.5586 7.5586 7.5586z"/>
  <path d="m502.02 545.59c4.1719 0 7.5586-3.3789 7.5586-7.5586v-12.605c0-4.1758-3.3867-7.5586-7.5586-7.5586s-7.5586 3.3789-7.5586 7.5586v12.605c0 4.1758 3.3867 7.5586 7.5586 7.5586z"/>
  <path d="m596.78 491.82-0.37891-50.496c-0.054688-7.6328-4.332-14.484-11.164-17.887-6.6367-3.3086-15.094-2.5508-21.008 1.8633l-8.4844 6.3008-83.234-71.789c-6.4531-5.5664-15.93-7.0391-23.781-3.6523l-52.77 22.742-126.27-126.27c-4.2812-4.2812-9.9688-6.6406-16.031-6.6406s-11.75 2.3594-16.031 6.6406c-4.2891 4.2812-6.6406 9.9766-6.6406 16.031 0 6.0547 2.3594 11.75 6.6406 16.031l4.9258 4.9258v121.57c-34.387 18-57.938 53.984-57.938 95.41 0 59.379 48.309 107.69 107.69 107.69 27.527 0 52.594-10.469 71.652-27.523h205.77c2.7188 0 4.9258-3.3789 4.9258-7.5586l0.003906-65.203c0.66406 0.066406 1.3281 0.15234 1.9961 0.15234h0.10156c11.113 0 20.152-9.0391 20.152-20.152-0.003906-0.73828-0.046875-1.4688-0.12109-2.1875zm-288.72-117.49c4.1719 0 7.5586-3.3789 7.5586-7.5586v-4.0977l59.168 59.168c6.4727 6.4805 16.602 8.418 25.004 4.793l30.422-13.113v6.7695c0 4.1758 3.3867 7.5586 7.5586 7.5586s7.5586-3.3789 7.5586-7.5586v-7.5586c0-1.8906-0.71875-3.5977-1.8633-4.9219l10.188-4.3945 40.82 35.199v6.9727c0 4.1758 3.3867 7.5586 7.5586 7.5586 2.4141 0 4.5273-1.1484 5.9141-2.9062l10.523 9.0742-4.0312 2.9961c-3.7969 2.8281-6.3984 6.7852-7.5117 11.184-1.3242-1.1328-3.0195-1.8438-4.8984-1.8438-4.1719 0-7.5586 3.3789-7.5586 7.5586v12.605c0 4.1758 3.3867 7.5586 7.5586 7.5586s7.5586-3.3789 7.5586-7.5586v-2.293c2.5195 3.8594 6.3281 6.8008 10.918 8.2227l39.039 12.07v61.844l-49.965 0.003906c0-4.1758-3.3867-7.5586-7.5586-7.5586s-7.5586 3.3789-7.5586 7.5586h-49.141c0-4.1758-3.3867-7.5586-7.5586-7.5586s-7.5586 3.3789-7.5586 7.5586h-45.012c0-2.4336-1.168-4.5781-2.9609-5.9609 11.203-16.98 17.77-37.277 17.77-59.098 0-19.875-5.5117-38.449-14.938-54.453 0.085938-0.45312 0.13672-0.91797 0.13672-1.3906v-7.5586c0-4.1758-3.3867-7.5586-7.5586-7.5586-1.3281 0-2.5586 0.37109-3.6484 0.97656-19.77-23.039-49.02-37.711-81.688-37.711-12.125 0-23.75 2.1055-34.637 5.8203v-99.996l47.504 47.5c-2.7422 1.1328-4.6758 3.8281-4.6758 6.9844v7.5586c0.003906 4.168 3.3906 7.5547 7.5625 7.5547zm-15.75 224.85c-51.047 0-92.574-41.527-92.574-92.574 0-51.047 41.527-92.574 92.574-92.574 51.047-0.003906 92.574 41.527 92.574 92.57 0 51.047-41.527 92.578-92.574 92.578zm284.44-100.13h-0.10156c-0.50781 0-1.0078-0.074219-1.4844-0.22266l-50.199-15.523c-1.8242-0.5625-3.1602-2.0859-3.4766-3.9648-0.32422-1.8828 0.42969-3.7578 1.9609-4.8984l11.602-8.625c1.8438-1.3672 2.9609-3.4961 3.043-5.7891 0.082031-2.293-0.88281-4.5-2.6211-5.9961l-75.535-65.145c-1.3945-1.2031-3.1523-1.832-4.9336-1.832-1.0117 0-2.0234 0.20312-2.9922 0.62109l-58.207 25.082c-2.7852 1.2148-6.1719 0.55859-8.3281-1.5977l-137.15-137.15c-1.4258-1.4258-2.2109-3.3242-2.2109-5.3398s0.78516-3.9141 2.2109-5.3438c2.8516-2.8516 7.8359-2.8516 10.688 0l129.9 129.9c2.1914 2.1875 5.4961 2.8281 8.332 1.5977l57.473-24.773c2.6211-1.1328 5.7734-0.64062 7.9258 1.2148l87.824 75.742c2.6797 2.3125 6.6055 2.4492 9.4414 0.34375l13.348-9.9219c1.4922-1.0977 3.5625-1.2891 5.2461-0.45703 1.707 0.85156 2.7773 2.5625 2.793 4.4688l0.38281 50.934c0.003906 0.33594 0.03125 0.67188 0.074219 1.0039 0.03125 0.21094 0.039062 0.41797 0.039062 0.63672-0.003906 2.7773-2.2578 5.0391-5.0391 5.0391z"/>
  <path d="m304.48 501.46-17.109-5.6445c-2.6289-0.83984-13.305-4.6445-12.168-15.203 0.43359-4.0273 1.6055-7.1289 4.832-9.2383 2.625-1.6875 5.8828-2.5352 9.7578-2.5352 6.5859 0 11.062 1.1094 13.992 4.9062 1.6055 2.1953 2.1328 3.8047 2.5703 7.6016 0 0 0.51953 6.2578 8.0156 6.2578 7.4961 0 8.6523-5.9609 8.7969-7.0312 0.67188-4.8672-1.9805-13.012-5.668-17.844-4.2539-5.582-10.297-8.957-17.629-10.398v-7.7578c0-4.1758-3.3789-7.5586-7.5586-7.5586-4.1758 0-7.5586 3.3789-7.5586 7.5586v7.3594c-8.7695 1.1289-15.453 4.6719-19.973 10.707-3.9453 5.3164-10.539 15.547-3.7852 33.258 5.8242 15.27 33.621 20.152 33.621 20.152 5.1875 1.2656 15.109 3.2539 15.133 15.227 0.011718 4.6406-2.8555 13.645-17.66 13.645-6.8711 0-16.688-3.043-16.688-15.531 0 0 0.11719-6.5156-8.0156-6.5156-8.1328 0-8.7656 6.5156-8.7656 6.5156 0 8.2734 1.1875 14.086 5.5078 19.738 6.4805 8.5703 14.438 11.559 20.625 12.594v6.918c0 4.1758 3.3789 7.5586 7.5586 7.5586 4.1758 0 7.5586-3.3789 7.5586-7.5586v-6.9766c19.391-3.3594 26.668-21.301 26.668-32.668-0.003906-8.2812-3.0117-20.977-22.059-27.535z"/>
 </g>
</svg>