<?xml version="1.0" encoding="UTF-8"?>
<!-- The Best Svg Icon site in the world: iconSvg.co, Visit us! https://iconsvg.co -->
<svg fill="#000000" width="800px" height="800px" version="1.1" viewBox="144 144 512 512" xmlns="http://www.w3.org/2000/svg">
 <g>
  <path d="m613.82 504.11c-11.121-8.1289-12.441-26.371-12.441-26.371-0.13672-5.3633-3.9375-128.21-68.672-137.61 0.39453-0.65625 0.80859-1.3438 1.2383-2.0664 18.922-29.52 16.777-34.695 15.742-37.195-1.7227-4.1836-5.8047-7.1328-10.914-7.8711-5.1055-0.73828-10.344 0.86719-13.039 4.1719-2.6953 3.3047-3.9375 3.6523-4.1836 3.6523h0.007812c-0.51953-0.19141-0.98047-0.50391-1.3477-0.91797-1.6133-2.9531-8.2148-13.066-21.492-13.453h-0.70703c-13.137 0-20.457 10.695-22.09 13.391v0.003907c-0.375 0.44531-0.85938 0.78516-1.4102 0.98437-0.28516 0-1.418-0.28516-4.1719-3.6523-2.7539-3.3672-7.8711-4.9219-13.047-4.1719-5.1758 0.74609-9.1914 3.7109-10.914 7.8711-0.98437 2.4102-3.0586 7.418 14.535 35.199 0.85938 1.375 1.6328 2.7969 2.3242 4.2617-4.4297 0.64844-8.7539 1.8711-12.863 3.6406-13.777-23.949-33.316-42.176-60.82-45.176 0.81641-1.6641 1.6836-3.2656 2.6289-4.8594 25.586-43.406 22.699-50.41 21.648-53.047-2.1055-5.1055-7.1445-8.7188-13.473-9.6523-6.5156-0.98438-12.793 0.98438-16.129 5.0391-1.1328 1.3789-4.5547 5.5586-6.9883 5.6094-1.1211 0.17578-2.332-0.98437-3.2578-1.9688-1.8555-3.3398-10.398-17.035-27.875-17.547h-0.89453c-17.277 0-26.785 14.395-28.633 17.523-0.98438 0.98438-2.2422 1.9688-3.3359 1.9688-2.4297 0-5.9023-4.2305-6.9766-5.6094-3.2852-4.0234-9.625-6.0039-16.129-5.0391-6.3281 0.98437-11.367 4.5469-13.473 9.6523-1.1328 2.7461-3.7695 9.1719 19.68 49.523v0.003906c1.582 2.7188 2.9883 5.5352 4.2148 8.4336-88.512 10.164-93.797 178.28-93.965 185.36 0 0.25391-1.8906 25.82-17.613 37.344-10.449 7.6758-15.035 20.664-11.387 32.363 2.0977 6.6992 10.254 22.387 40.805 23.23 14.188 0.39453 30.355 0.53125 45.609 0.53125 30.219 0 56.816-0.52344 57.152-0.53125h48.039c0.60156 0 60.508 1.1797 102.85 0 30.504-0.84766 38.719-16.531 40.805-23.23h0.003906c0.66016-2.1016 1.0547-4.2773 1.1797-6.4766 7.9492 0.10938 24.602 0.31641 42.094 0.31641 12.203 0 24.848-0.097656 35.297-0.39453 23.312-0.64062 29.609-12.793 31.223-17.996 2.8555-9.1211-0.69531-19.266-8.832-25.23zm-158.35-199.84c0.75781-1.2383 2.6484-1.6133 3.2383-1.7031 1.4219-0.32031 2.9102-0.058594 4.1406 0.71875 1.7305 2.125 5.7969 7.0938 11.473 7.2031 3.2852 0.070313 6.3945-1.4648 9.1328-4.5664 0.23828-0.26953 0.44531-0.5625 0.62109-0.875 0.20703-0.375 5.0781-9.2969 14.367-8.9258 9.2891 0.375 13.266 8.3633 13.422 8.6797 0.19141 0.41016 0.44141 0.78516 0.74609 1.1211 2.6758 3.0312 5.6758 4.5664 8.9258 4.5664h0.19531c5.6758-0.10938 9.7422-5.0781 11.484-7.2031 1.2305-0.77734 2.7227-1.0391 4.1445-0.71875 0.60156 0.089844 2.4883 0.46094 3.2383 1.7031-0.15625 2.5586-4.1133 11.945-14.762 28.535-1.4297 2.2305-2.6914 4.5625-3.7812 6.9766h-48.52c-1.1914-3.1133-2.6875-6.1016-4.457-8.9258-10.508-16.539-13.453-24.441-13.609-26.586zm-169.86-59.68c1.1797-2.8633 4.8398-3.6094 5.9023-3.7773 3.2852-0.49219 6.2578 0.43359 7.2227 1.6055 3.6523 4.457 8.1953 9.0312 14.289 9.1406 3.9375 0.078124 7.7031-1.8125 11.059-5.6094l0.003906-0.003906c0.23828-0.26953 0.44922-0.56641 0.62891-0.88281 0.34375-0.53125 7.8047-13.324 21.156-13.031 13.539 0.39453 19.523 12.309 19.758 12.793 0.19531 0.40625 0.44531 0.78516 0.73828 1.1211 3.3555 3.7969 7.1133 5.7266 11.07 5.6094 6.082-0.10938 10.629-4.6836 14.277-9.1406 0.98438-1.1719 3.9375-2.0977 7.2305-1.6055 1.0938 0.16797 4.7617 0.91406 5.9023 3.5312 0.47266 2.8828-4.7031 17.18-20.93 44.695h0.003907c-1.5469 2.6172-2.9453 5.3242-4.1836 8.0977l-0.60156 1.3594h-68.289 0.003906c-1.6523-4.4727-3.6875-8.7969-6.082-12.918-15.973-27.355-19.453-38.938-19.16-40.984zm218.02 306.42c-3.1211 9.9766-14.762 15.969-31.844 16.453-42.105 1.1719-101.8 0-102.48 0h-48.215c-0.60156 0-60.262 1.1797-102.39 0-17.121-0.48047-28.723-6.4766-31.832-16.453-2.3828-7.6172 0.85547-16.531 7.8711-21.648 19.395-14.219 21.461-43.297 21.551-44.715 0-1.7227 5.293-172.02 88.973-176.47h2.0859v0.003906c0.19922 0.015625 0.40234 0.015625 0.60156 0 0.24219 0.039063 0.48438 0.058594 0.72656 0.058594h71.832c0.65625 0.22266 1.3477 0.30859 2.0391 0.25391l2.8047-0.26562c83.551 4.9219 88.836 174.75 88.887 176.65 0.089844 1.2305 2.1562 30.309 21.551 44.527 6.9844 5.0781 10.219 13.992 7.8477 21.609zm109.8-24.551c-2.125 6.7891-10.234 10.883-22.258 11.219-26.156 0.71875-66.137 0.22656-78.238 0-1.9336-6.5117-5.9609-12.207-11.453-16.199-15.742-11.523-17.594-37.086-17.594-37.145-0.12891-4.7734-2.4219-78.641-28.918-131.86h-0.003906c4.3438-1.7617 8.9492-2.7891 13.629-3.043h55.988c0.32812 0.035156 0.65625 0.035156 0.98438 0l1.9688-0.1875c60.25 3.6719 64.109 127.41 64.148 128.84 0.058594 0.93359 1.6133 22.906 16.375 33.723 4.7695 3.5625 6.9531 9.5469 5.3711 14.645z"/>
  <path d="m345.24 424.27c-6.2617 0-12.27-2.4883-16.699-6.918-4.4297-4.4258-6.918-10.434-6.918-16.699 0-6.2617 2.4883-12.27 6.918-16.699 4.4297-4.4258 10.438-6.9141 16.699-6.9141 6.2656 0 12.27 2.4883 16.699 6.9141 4.4297 4.4297 6.918 10.438 6.918 16.699-0.058594 1.3203 0.42188 2.6094 1.3359 3.5664 0.91406 0.95312 2.1797 1.4961 3.5 1.4961 1.3203 0 2.5859-0.54297 3.5-1.4961 0.91406-0.95703 1.3945-2.2461 1.3359-3.5664-0.011719-8.0039-2.9023-15.734-8.1406-21.785-5.2383-6.0508-12.477-10.02-20.395-11.176v-11.141c0.058593-1.3203-0.42578-2.6094-1.3359-3.5625-0.91406-0.95703-2.1797-1.4961-3.5-1.4961-1.3242 0-2.5859 0.53906-3.5 1.4961-0.91406 0.95312-1.3984 2.2422-1.3359 3.5625v11.102c-11.227 1.625-20.852 8.8477-25.551 19.172-4.6953 10.324-3.8203 22.328 2.3281 31.859 6.1484 9.5312 16.719 15.281 28.062 15.258 8.2734 0 16.211 3.2891 22.062 9.1406 5.8516 5.8516 9.1406 13.789 9.1406 22.062 0 8.2773-3.2891 16.215-9.1406 22.066-5.8516 5.8516-13.789 9.1367-22.062 9.1367-8.2773 0-16.211-3.2852-22.062-9.1367-5.8516-5.8516-9.1406-13.789-9.1406-22.066 0.058594-1.3203-0.42188-2.6055-1.3359-3.5625-0.91406-0.95703-2.1797-1.4961-3.5-1.4961-1.3203 0-2.5859 0.53906-3.5 1.4961-0.91406 0.95703-1.3945 2.2422-1.3359 3.5625 0.015625 10 3.6875 19.645 10.324 27.121 6.6406 7.4766 15.785 12.262 25.711 13.461v11.039c0.11328 2.5859 2.2461 4.625 4.8359 4.625 2.5859 0 4.7188-2.0391 4.8359-4.625v-11.039c13.91-1.6797 25.988-10.371 32.008-23.023 6.0195-12.652 5.1367-27.504-2.3359-39.355-7.4688-11.855-20.492-19.055-34.504-19.078z"/>
 </g>
</svg>