<?xml version="1.0" encoding="UTF-8"?>
<!-- The Best Svg Icon site in the world: iconSvg.co, Visit us! https://iconsvg.co -->
<svg fill="#000000" width="800px" height="800px" version="1.1" viewBox="144 144 512 512" xmlns="http://www.w3.org/2000/svg">
 <path d="m551.61 565.94-17.633-114.93v-0.003907c-2.8594-18.578-12.27-35.523-26.535-47.77-14.266-12.242-32.441-18.977-51.242-18.984h-112.41c-18.801 0.007813-36.977 6.7422-51.242 18.984-14.266 12.246-23.676 29.191-26.535 47.77l-17.633 114.93v0.003906c-2.1289 13.727 1.8867 27.691 10.988 38.188 9.0977 10.492 22.355 16.449 36.246 16.285h209.39c13.887 0.16406 27.145-5.793 36.246-16.285 9.0977-10.496 13.117-24.461 10.984-38.188zm-34.637 17.477c-2.9922 3.4961-7.3633 5.5078-11.965 5.5078h-210.03c-4.6016 0-8.9727-2.0117-11.965-5.5078-2.9805-3.4727-4.3008-8.0703-3.6211-12.598l17.789-115.09 0.003906 0.003906c1.7422-11.234 7.4766-21.465 16.152-28.809 8.6758-7.3477 19.711-11.316 31.078-11.184h112.41c11.367-0.13281 22.402 3.8359 31.078 11.184 8.6758 7.3438 14.41 17.574 16.152 28.809l17.789 115.09 0.003906-0.003907c0.34766 4.7188-1.4453 9.3438-4.8828 12.598zm-116.98-214.91c25.051 0 49.078-9.9531 66.793-27.668 17.719-17.715 27.668-41.742 27.668-66.797s-9.9492-49.082-27.668-66.797c-17.715-17.715-41.742-27.668-66.793-27.668-25.055 0-49.082 9.9531-66.797 27.668s-27.668 41.742-27.668 66.797 9.9531 49.082 27.668 66.797 41.742 27.668 66.797 27.668zm0-157.44c16.699 0 32.719 6.6328 44.531 18.445 11.809 11.809 18.445 27.828 18.445 44.531s-6.6367 32.719-18.445 44.531c-11.812 11.809-27.832 18.445-44.531 18.445-16.703 0-32.723-6.6367-44.531-18.445-11.812-11.812-18.445-27.828-18.445-44.531s6.6328-32.723 18.445-44.531c11.809-11.812 27.828-18.445 44.531-18.445z"/>
</svg>