<?xml version="1.0" encoding="UTF-8"?>
<!-- The Best Svg Icon site in the world: iconSvg.co, Visit us! https://iconsvg.co -->
<svg fill="#000000" width="800px" height="800px" version="1.1" viewBox="144 144 512 512" xmlns="http://www.w3.org/2000/svg">
 <g>
  <path d="m281.92 454.41h47.23c4.3477 0 7.8711-3.5234 7.8711-7.8711v-110.21c0-4.3477-3.5234-7.8711-7.8711-7.8711h-23.617c-4.3477 0-7.8711 3.5234-7.8711 7.8711 0 4.3477 3.5234 7.8711 7.8711 7.8711h15.742v94.465h-31.488v-86.594c0-4.3477-3.5234-7.8711-7.8711-7.8711-4.3477 0-7.8711 3.5234-7.8711 7.8711v94.465c0.003906 4.3438 3.5273 7.8711 7.875 7.8711z"/>
  <path d="m376.38 454.41h47.23c4.3477 0 7.8711-3.5234 7.8711-7.8711v-157.44c0-4.3477-3.5234-7.8711-7.8711-7.8711h-31.488c-4.3477 0-7.8711 3.5234-7.8711 7.8711 0 4.3477 3.5234 7.8711 7.8711 7.8711h23.617v141.7h-31.488v-125.95c0-4.3477-3.5234-7.8711-7.8711-7.8711-4.3477 0-7.8711 3.5234-7.8711 7.8711v133.82c0 4.3477 3.5234 7.875 7.8711 7.875z"/>
  <path d="m470.85 430.8c4.3477 0 7.8711-3.5234 7.8711-7.8711v-173.18h31.488v188.93h-23.617c-4.3477 0-7.8711 3.5234-7.8711 7.8711 0 4.3477 3.5234 7.8711 7.8711 7.8711h31.488c4.3477 0 7.8711-3.5234 7.8711-7.8711v-204.67c0-4.3477-3.5234-7.8711-7.8711-7.8711h-47.23c-4.3477 0-7.8711 3.5234-7.8711 7.8711v181.05c0 4.3477 3.5234 7.8711 7.8711 7.8711z"/>
  <path d="m633.86 409.53c-3.0703-3.0742-8.0508-3.0898-11.133-0.007812-122.81 122.59-322.64 122.59-445.45 0-3.082-3.082-8.0703-3.0742-11.133 0.007812-3.0742 3.0781-3.0664 8.0586 0.007812 11.133 11.234 11.215 23.117 21.387 35.473 30.648l-28.164 34.93c-2.7266 3.3828-2.1953 8.3359 1.1914 11.066 1.4531 1.1758 3.1992 1.7461 4.9336 1.7461 2.2969 0 4.5781-1.0039 6.1289-2.9336l28.754-35.664c16.125 10.918 33.004 20.258 50.43 28.02l-17.168 40.324c-1.6992 4 0.16016 8.625 4.1641 10.328 1.0078 0.42578 2.0508 0.62891 3.0781 0.62891 3.0625 0 5.9727-1.8008 7.25-4.793l17.203-40.426c22.512 8.7617 45.785 14.98 69.395 18.645l-5.8945 43.898c-0.57812 4.3086 2.4492 8.2695 6.7578 8.8477 0.35547 0.046874 0.70703 0.070312 1.0586 0.070312 3.8828 0 7.2617-2.8711 7.793-6.8281l5.8984-43.945c11.82 1.2656 23.691 1.9688 35.57 1.9688s23.75-0.70312 35.57-1.9688l5.8984 43.945c0.53125 3.957 3.9102 6.8281 7.793 6.8281 0.35156 0 0.70313-0.023438 1.0586-0.070312 4.3086-0.58203 7.332-4.5391 6.7578-8.8477l-5.8945-43.898c23.609-3.6641 46.883-9.8789 69.395-18.645l17.203 40.426c1.2773 2.9961 4.1875 4.793 7.25 4.793 1.0273 0 2.0703-0.20312 3.0781-0.62891 4-1.7031 5.8633-6.3281 4.1641-10.328l-17.168-40.324c17.426-7.7617 34.305-17.102 50.43-28.02l28.754 35.664c1.5547 1.9297 3.832 2.9336 6.1289 2.9336 1.7344 0 3.4844-0.57031 4.9336-1.7461 3.3867-2.7305 3.918-7.6836 1.1875-11.066l-28.164-34.93c12.355-9.2617 24.238-19.434 35.473-30.648 3.082-3.0703 3.0898-8.0508 0.011719-11.133z"/>
 </g>
</svg>