<?xml version="1.0" encoding="UTF-8"?>
<!-- The Best Svg Icon site in the world: iconSvg.co, Visit us! https://iconsvg.co -->
<svg width="800px" height="800px" version="1.1" viewBox="144 144 512 512" xmlns="http://www.w3.org/2000/svg">
 <defs>
  <clipPath id="b">
   <path d="m321 148.09h158v126.91h-158z"/>
  </clipPath>
  <clipPath id="a">
   <path d="m226 360h348v291.9h-348z"/>
  </clipPath>
 </defs>
 <g clip-path="url(#b)">
  <path d="m329.15 242.56h23.617v23.617c0 4.3477 3.5234 7.8711 7.8711 7.8711 4.3477 0 7.875-3.5234 7.875-7.8711v-31.488c0-2.0898-0.83203-4.0898-2.3086-5.5664-1.4766-1.4766-3.4766-2.3086-5.5664-2.3086h-13.812l53.176-59.039 53.176 59.039h-13.816c-4.3477 0-7.8711 3.5273-7.8711 7.875v31.488c0 4.3477 3.5234 7.8711 7.8711 7.8711s7.8711-3.5234 7.8711-7.8711v-23.617h23.617c3.1094 0 5.9258-1.832 7.1875-4.6719 1.2656-2.8398 0.73828-6.1562-1.3398-8.4688l-70.848-78.719c-1.5273-1.5938-3.6406-2.4922-5.8477-2.4922-2.2109 0-4.3203 0.89844-5.8516 2.4922l-70.848 78.719c-2.0781 2.3125-2.6055 5.6289-1.3398 8.4688 1.2656 2.8398 4.082 4.6719 7.1875 4.6719z"/>
 </g>
 <path d="m234.69 384.25c2.0859 0 4.0898-0.82812 5.5664-2.3047 1.4766-1.4766 2.3047-3.4805 2.3047-5.5664v-62.977c0-2.0859-0.82812-4.0898-2.3047-5.5664-1.4766-1.4766-3.4805-2.3047-5.5664-2.3047h-13.816l53.176-59.043 53.176 59.043h-13.816c-4.3477 0-7.8711 3.5234-7.8711 7.8711v23.617c0 4.3477 3.5234 7.8711 7.8711 7.8711s7.8711-3.5234 7.8711-7.8711v-15.746h23.617c3.1094 0 5.9258-1.8281 7.1875-4.668 1.2656-2.8398 0.74219-6.1602-1.3398-8.4688l-70.848-78.719v-0.003906c-1.5273-1.5898-3.6406-2.4922-5.8477-2.4922s-4.3203 0.90234-5.8516 2.4922l-70.848 78.719v0.003906c-2.0781 2.3086-2.6016 5.6289-1.3398 8.4688 1.2656 2.8398 4.082 4.668 7.1914 4.668h23.617v55.105h-0.003906c0 2.0859 0.83203 4.0898 2.3086 5.5664 1.4766 1.4766 3.4766 2.3047 5.5664 2.3047z"/>
 <g clip-path="url(#a)">
  <path d="m507.9 362.95c-1.4727-1.4766-3.4766-2.3047-5.5625-2.3086h-204.67c-2.0898 0.003906-4.0898 0.83203-5.5664 2.3086l-62.977 62.977c-2.2539 2.25-2.9258 5.6367-1.707 8.5781 0.10938 0.25 0.29297 0.45703 0.41797 0.69141l-0.003906 0.003906c0.14844 0.40625 0.36328 0.78906 0.64062 1.125l165.31 212.54c1.4883 1.9219 3.7852 3.0469 6.2188 3.0469 2.4297 0 4.7266-1.125 6.2188-3.0469l61.223-78.719h-0.003906c2.6719-3.4336 2.0508-8.3789-1.3828-11.047-3.4297-2.6719-8.3789-2.0508-11.047 1.3789l-32.969 42.445 54.484-163.56h72.691l-69.707 89.629c-2.6719 3.4336-2.0547 8.3789 1.3789 11.051 3.4336 2.668 8.3789 2.0508 11.051-1.3828l79.602-102.34c0.27344-0.33594 0.48828-0.71875 0.63672-1.125 0.125-0.23437 0.30859-0.44141 0.41797-0.69141v-0.003906c1.2188-2.9414 0.54297-6.3281-1.7109-8.5781zm-157.35 157.62 27.449 82.348-127.21-163.55h72.691l16.578 49.719c1.3711 4.1289 5.8359 6.3633 9.9648 4.9922 4.1289-1.375 6.3633-5.8359 4.9922-9.9688l-14.934-44.742h119.84l-59.922 179.78-34.52-103.55c-1.375-4.1289-5.8359-6.3633-9.9648-4.9883-4.1328 1.3711-6.3672 5.8359-4.9922 9.9648zm-0.69141-96.953 50.145-44.57 50.145 44.57zm-48.934-47.23h78.367l-53.137 47.23h-72.422zm172.93 47.23-53.137-47.23h78.367l47.23 47.23z"/>
 </g>
 <path d="m510.21 337.02c2.0859 0 4.0898-0.83203 5.5664-2.3086 1.4766-1.4727 2.3047-3.4766 2.3047-5.5664v-31.484c0-4.3477-3.5234-7.875-7.8711-7.875-4.3477 0-7.8711 3.5273-7.8711 7.875v31.488-0.003906c0 2.0898 0.82812 4.0938 2.3047 5.5664 1.4766 1.4766 3.4766 2.3086 5.5664 2.3086z"/>
 <path d="m557.44 335.68c2.0898 0 4.0898-0.82812 5.5664-2.3047l22.27-22.27c2.9844-3.0898 2.9414-8-0.09375-11.035-3.0391-3.0391-7.9492-3.082-11.035-0.097656l-22.27 22.27c-2.2539 2.25-2.9258 5.6367-1.707 8.5781s4.0859 4.8594 7.2695 4.8594z"/>
 <path d="m596.8 360.64h-31.488c-4.3477 0-7.875 3.5273-7.875 7.875 0 4.3477 3.5273 7.8711 7.875 7.8711h31.488c4.3477 0 7.8711-3.5234 7.8711-7.8711 0-4.3477-3.5234-7.875-7.8711-7.875z"/>
</svg>