<?xml version="1.0" encoding="UTF-8"?>
<!-- The Best Svg Icon site in the world: iconSvg.co, Visit us! https://iconsvg.co -->
<svg fill="#000000" width="800px" height="800px" version="1.1" viewBox="144 144 512 512" xmlns="http://www.w3.org/2000/svg">
 <g>
  <path d="m325.63 293.57h124.9c2.8867 0 5.2461-2.3516 5.2461-5.2461 0-2.8867-2.3633-5.2461-5.2461-5.2461h-124.9c-2.8984 0-5.2461 2.3633-5.2461 5.2461 0 2.9023 2.3516 5.2461 5.2461 5.2461z"/>
  <path d="m470.43 332.39h-164.68c-2.8867 0-5.2461 2.3516-5.2461 5.2461 0 2.8984 2.3633 5.2461 5.2461 5.2461h164.67c2.8984 0 5.2461-2.3516 5.2461-5.2461s-2.3516-5.2461-5.2383-5.2461z"/>
  <path d="m470.43 381.06h-164.68c-2.8867 0-5.2461 2.3633-5.2461 5.2461 0 2.8984 2.3633 5.2461 5.2461 5.2461h164.67c2.8984 0 5.2461-2.3516 5.2461-5.2461 0-2.8828-2.3516-5.2461-5.2383-5.2461z"/>
  <path d="m391.66 477.38c0-32.914-26.773-59.691-59.703-59.691-32.914 0-59.691 26.773-59.691 59.691 0 32.926 26.773 59.703 59.691 59.703 32.93 0 59.703-26.797 59.703-59.703zm-59.68 49.207c-27.121 0-49.195-22.082-49.195-49.207 0-27.121 22.074-49.195 49.195-49.195s49.207 22.074 49.207 49.195-22.098 49.207-49.207 49.207z"/>
  <path d="m531.11 169.07h-244.07c-14.484 0-26.238 11.766-26.238 26.238v239.75c-3 1.9727-5.9922 3.9766-9.0352 5.7422-2.0586 1.1875-3.0664 3.6211-2.4453 5.9102 1.3438 4.9961 2.4766 10.117 3.4102 15.305-2.8242 4.3867-5.8477 8.7031-9.0195 12.836-1.4375 1.8906-1.4375 4.5039 0 6.3711 3.1797 4.1445 6.2031 8.4492 9.0039 12.836-0.93359 5.1758-2.0664 10.309-3.4102 15.312-0.62109 2.2773 0.38672 4.7031 2.4453 5.9102 4.4805 2.5938 8.9336 5.4141 13.234 8.4062 1.125 5.1641 2.0273 10.348 2.6992 15.441 0.31641 2.3516 2.1641 4.1992 4.5234 4.5234 0.54688 0.074219 1.0703 0.21094 1.5938 0.27344l-28.023 53.539c-5.8477 11.156-1.5234 25 9.6445 30.836 3.3164 1.7422 6.9375 2.625 10.578 2.625 2.3086 0 4.5977-0.34766 6.8438-1.0508 5.8359-1.8281 10.602-5.8242 13.434-11.211l31.301-59.797c4.2734 2.7617 8.4922 5.6797 12.492 8.7539 0.93359 0.73438 2.0586 1.0898 3.1914 1.0898 1.1328 0 2.2578-0.34766 3.2031-1.0898 4.0312-3.0742 8.207-6.0039 12.492-8.7539l31.301 59.797c0.011719 0 0.019532 0.019531 0.03125 0.019531 4.082 7.7656 12.027 12.219 20.277 12.219 3.5703 0 7.1992-0.82031 10.559-2.6016 11.156-5.8477 15.504-19.68 9.6562-30.836l-17.938-34.25h128.26c14.473 0 26.238-11.766 26.238-26.238v-341.66c0.011719-14.484-11.754-26.242-26.23-26.242zm-261.38 450.75c-3.1602 0.98828-6.4961 0.67188-9.4141-0.83984-6.0234-3.1797-8.3867-10.664-5.2148-16.688l29.578-56.488c0.98828 0.19922 1.9961 0.29297 2.9688 0.52344 2.9922 4.293 5.8164 8.7422 8.418 13.234 1.1875 2.0586 3.6094 3.0664 5.9102 2.4336 0.78906-0.21875 1.6055-0.33594 2.4023-0.54688l-27.375 52.293c-1.5391 2.9492-4.1211 5.1016-7.2734 6.0781zm63.566-62.957c-3.9375-2.8867-8.0078-5.6562-12.121-8.2383-0.83984-0.52344-1.8164-0.79687-2.8008-0.79687-0.28516 0-0.58594 0.019531-0.87109 0.082031-1.2695 0.21875-2.5391 0.54688-3.8086 0.77734-0.39844 0.0625-0.79687 0.10547-1.1875 0.24219-3.1289 0.62109-6.2773 1.1641-9.3828 1.9531-2.5312-4.1758-5.2266-8.3008-8.0703-12.258-0.74609-1.0586-1.8477-1.7852-3.0977-2.0664-2.832-0.66016-5.7422-1.125-8.6289-1.6602-0.45312-0.14844-0.89062-0.25-1.3555-0.25-1.4922-0.25-2.9297-0.62109-4.4297-0.85156-0.72266-4.7773-1.6602-9.5938-2.7695-14.41-0.27344-1.25-1.0273-2.3633-2.0586-3.0977-3.9883-2.8438-8.0938-5.5312-12.27-8.0703 1.1562-4.7227 2.1641-9.5391 2.9609-14.367 0.21875-1.2695-0.050781-2.5703-0.71484-3.6641-2.5938-4.1367-5.3516-8.1992-8.2383-12.133 2.8867-3.9375 5.6484-8.0195 8.2383-12.145 0.66016-1.0898 0.94531-2.3945 0.71484-3.6641-0.79688-4.8398-1.8047-9.6562-2.9609-14.367 2.5625-1.5547 5.0391-3.2852 7.5664-4.9844 0.66016-0.25 1.2695-0.66016 1.7734-1.1562 0.96484-0.66016 1.9727-1.25 2.9297-1.9414 1.0508-0.73438 1.7852-1.8477 2.0586-3.0977 1.0898-4.7969 2.0156-9.6367 2.7695-14.41 4.8164-0.73438 9.6445-1.6602 14.41-2.7617 1.25-0.27344 2.3516-1.0391 3.0977-2.0586 2.832-3.9688 5.5117-8.0938 8.0703-12.27 4.7773 1.1758 9.5938 2.1719 14.391 2.9688 1.2578 0.21875 2.5625-0.042969 3.6641-0.72266 4.1367-2.582 8.1875-5.3516 12.121-8.2383 3.9453 2.8984 8.0391 5.6797 12.156 8.2617 1.0898 0.67188 2.3945 0.94531 3.6406 0.71484 4.7969-0.79688 9.6133-1.793 14.379-2.9688 2.5391 4.1875 5.2383 8.3008 8.082 12.258 0.73437 1.0508 1.8477 1.7852 3.0977 2.0664 4.7656 1.0898 9.5938 2.0039 14.41 2.7695 0.72266 4.7969 1.6602 9.6367 2.7695 14.41 0.28516 1.25 1.0273 2.3633 2.0664 3.0977 3.9883 2.8438 8.0938 5.543 12.258 8.082-1.1562 4.7109-2.1641 9.5312-2.9609 14.367-0.21875 1.2695 0.042969 2.5625 0.71484 3.6641 2.5938 4.1367 5.3516 8.1992 8.2383 12.145-2.8867 3.9375-5.6484 8.0078-8.2383 12.133-0.67188 1.0898-0.94531 2.4023-0.71484 3.6641 0.79688 4.8281 1.8047 9.6445 2.9609 14.367-4.168 2.5312-8.293 5.2383-12.258 8.0703-1.0586 0.74609-1.7852 1.8477-2.0664 3.0977-1.0898 4.7969-2.0273 9.6133-2.7695 14.434-1.5117 0.21875-2.9375 0.57812-4.4297 0.83984-0.46094 0-0.90234 0.125-1.3555 0.25-2.8867 0.53516-5.8242 1.0078-8.6289 1.6484-1.25 0.30469-2.3633 1.0391-3.0977 2.0664-2.8438 3.9766-5.5312 8.0938-8.082 12.258-3.0977-0.75391-6.2461-1.3125-9.3828-1.9414-0.36719-0.13672-0.75391-0.19922-1.1562-0.23047-1.2812-0.24219-2.5508-0.58594-3.832-0.79688-1.2383-0.19922-2.5391 0.042969-3.6523 0.73438-4.1289 2.5273-8.2148 5.3086-12.148 8.1953zm72.988 62.117c-6.0039 3.1367-13.508 0.79688-16.688-5.207v-0.011719l-27.395-52.301c0.79688 0.21094 1.625 0.32422 2.4141 0.53516 2.3203 0.62891 4.7109-0.38672 5.8984-2.4336 2.6016-4.4922 5.4375-8.9414 8.4297-13.234 0.97656-0.21875 1.9727-0.32422 2.9609-0.52344l29.59 56.488c3.1562 6.0352 0.8125 13.527-5.2109 16.688zm140.57-82.039c0 8.6914-7.0625 15.742-15.742 15.742l-133.74 0.003906-4.5977-8.7969c0.55469-0.074219 1.082-0.21094 1.6055-0.27344 2.3516-0.31641 4.1875-2.1719 4.5117-4.5234 0.66016-5.1211 1.5742-10.297 2.7188-15.441 4.2812-2.9922 8.7109-5.8164 13.227-8.4062 2.0469-1.1875 3.0664-3.6094 2.4336-5.9102-1.332-4.9961-2.4648-10.129-3.4023-15.312 2.8242-4.3867 5.8477-8.7109 8.9961-12.836 1.4375-1.8789 1.4375-4.4922 0-6.3711-3.168-4.1367-6.1914-8.4492-8.9961-12.836 0.93359-5.1641 2.0664-10.309 3.4023-15.305 0.62891-2.2891-0.38672-4.7031-2.4336-5.9102-4.4922-2.582-8.9219-5.4141-13.227-8.4062-1.125-5.1445-2.0352-10.316-2.7188-15.441-0.30469-2.3633-2.1641-4.1992-4.5234-4.5234-5.1328-0.68359-10.316-1.5859-15.441-2.7188-2.9805-4.2617-5.8164-8.7109-8.4297-13.227-1.1758-2.0469-3.5898-3.0547-5.8984-2.4258-5.0391 1.3438-10.18 2.4883-15.305 3.3906-4.3984-2.8125-8.7031-5.8359-12.848-8.9961-1.8789-1.4492-4.5234-1.4492-6.3711 0-4.1445 3.1602-8.4375 6.1836-12.836 8.9961-5.1133-0.90234-10.277-2.0469-15.312-3.3906-2.2891-0.60938-4.7031 0.37891-5.9102 2.4258-2.6133 4.5117-5.4375 8.9648-8.418 13.227-5.1133 1.125-10.297 2.0273-15.441 2.7188-0.35547 0.042968-0.59766 0.33594-0.92188 0.45312l0.003907-217.54c0-8.6797 7.0742-15.742 15.742-15.742l244.11-0.003907c8.6797 0 15.742 7.0625 15.742 15.742v341.64z"/>
 </g>
</svg>