<?xml version="1.0" encoding="UTF-8"?>
<!-- The Best Svg Icon site in the world: iconSvg.co, Visit us! https://iconsvg.co -->
<svg width="800px" height="800px" version="1.1" viewBox="144 144 512 512" xmlns="http://www.w3.org/2000/svg">
 <defs>
  <clipPath id="b">
   <path d="m274 400h252v251.9h-252z"/>
  </clipPath>
  <clipPath id="a">
   <path d="m384 148.09h32v63.906h-32z"/>
  </clipPath>
 </defs>
 <g clip-path="url(#b)">
  <path d="m400 651.9c-33.406 0-65.441-13.27-89.062-36.891-23.621-23.621-36.891-55.656-36.891-89.062 0-33.402 13.27-65.441 36.891-89.059 23.621-23.621 55.656-36.891 89.062-36.891 33.402 0 65.441 13.27 89.059 36.891 23.621 23.617 36.891 55.656 36.891 89.059-0.035157 33.395-13.32 65.41-36.93 89.02-23.613 23.613-55.629 36.895-89.02 36.934zm0-220.42v0.003906c-25.055 0-49.082 9.9492-66.797 27.668-17.715 17.715-27.668 41.742-27.668 66.793 0 25.055 9.9531 49.082 27.668 66.797s41.742 27.668 66.797 27.668c25.051 0 49.078-9.9531 66.793-27.668 17.719-17.715 27.668-41.742 27.668-66.797-0.027344-25.043-9.9883-49.055-27.695-66.766-17.711-17.707-41.723-27.668-66.766-27.695z"/>
 </g>
 <path d="m407.87 588.93h-39.359c-5.625 0-10.824-3-13.637-7.8711-2.8125-4.8711-2.8125-10.871 0-15.742s8.0117-7.875 13.637-7.875h39.359c4.3477 0 7.8711-3.5234 7.8711-7.8711s-3.5234-7.8711-7.8711-7.8711h-15.746c-14.059 0-27.055-7.5039-34.086-19.68-7.0312-12.18-7.0312-27.184 0-39.359 7.0312-12.18 20.027-19.68 34.086-19.68h39.363c5.625 0 10.82 3 13.633 7.8711s2.8125 10.871 0 15.742-8.0078 7.8711-13.633 7.8711h-39.363c-4.3477 0-7.8711 3.5273-7.8711 7.875 0 4.3477 3.5234 7.8711 7.8711 7.8711h15.746c14.062 0 27.055 7.5 34.086 19.68 7.0312 12.18 7.0312 27.184 0 39.359-7.0312 12.18-20.023 19.68-34.086 19.68z"/>
 <path d="m400 494.46c-4.1758 0-8.1797-1.6562-11.133-4.6094-2.9531-2.9531-4.6133-6.957-4.6133-11.133v-15.742c0-5.625 3-10.824 7.8711-13.637s10.875-2.8125 15.746 0 7.8711 8.0117 7.8711 13.637v15.742c0 4.1758-1.6602 8.1797-4.6094 11.133-2.9531 2.9531-6.957 4.6094-11.133 4.6094z"/>
 <path d="m400 604.67c-4.1758 0-8.1797-1.6602-11.133-4.6133-2.9531-2.9531-4.6133-6.957-4.6133-11.133v-15.742c0-5.625 3-10.824 7.8711-13.637s10.875-2.8125 15.746 0 7.8711 8.0117 7.8711 13.637v15.742c0 4.1758-1.6602 8.1797-4.6094 11.133-2.9531 2.9531-6.957 4.6133-11.133 4.6133z"/>
 <path d="m462.98 368.51c-2.5859-0.003907-5.1328-0.63672-7.4141-1.8555-34.727-18.52-76.402-18.52-111.13 0-2.4414 1.3086-5.1836 1.9453-7.9531 1.8516-2.7656-0.09375-5.4609-0.91797-7.8086-2.3906-15.957-9.9766-34.656-14.664-53.434-13.395-14.223 1.1328-27.957 5.7188-40.016 13.352-3.1875 2.0156-6.9961 2.8164-10.727 2.2617-3.7344-0.55469-7.1406-2.4336-9.6055-5.2891-2.4648-2.8594-3.8203-6.5078-3.8203-10.281 0.050782-45.914 18.316-89.934 50.781-122.4 32.469-32.465 76.488-50.73 122.4-50.781h31.488c45.914 0.050781 89.938 18.316 122.4 50.781 32.469 32.469 50.73 76.488 50.781 122.4 0 3.7734-1.3555 7.4219-3.8203 10.281-2.4609 2.8555-5.8711 4.7344-9.6016 5.2891-3.7344 0.55469-7.543-0.24609-10.73-2.2617-13.965-8.8984-30.184-13.617-46.738-13.609-16.559 0.007812-32.77 4.7461-46.727 13.652-2.4961 1.5664-5.3867 2.3945-8.332 2.3945zm-62.977-47.23v-0.003906c21.559 0.015625 42.859 4.6797 62.453 13.668 19.879-10.469 42.285-15.188 64.699-13.621 9.5039 0.73438 18.883 2.6211 27.934 5.6133-6.0781-32.527-23.332-61.91-48.773-83.066-25.445-21.156-57.48-32.758-90.57-32.801h-31.488c-33.09 0.042969-65.125 11.645-90.566 32.801s-42.691 50.539-48.77 83.066c9.0508-2.9961 18.43-4.8789 27.93-5.6133 22.422-1.6328 44.848 3.0898 64.707 13.621 19.59-8.9883 40.891-13.652 62.445-13.668z"/>
 <path d="m337.02 368.51c-4.1758 0-8.1797-1.6602-11.133-4.6133-2.9531-2.9531-4.6133-6.957-4.6133-11.133 0-116.73 66.441-167.91 69.273-170.04 4.4961-3.3281 10.418-4.0195 15.562-1.8203 5.1406 2.1992 8.7266 6.9648 9.4258 12.512 0.69922 5.5469-1.6016 11.051-6.0391 14.457-2.4375 1.875-56.734 44.805-56.734 144.89 0 4.1758-1.6562 8.1797-4.6094 11.133-2.9531 2.9531-6.957 4.6133-11.133 4.6133z"/>
 <g clip-path="url(#a)">
  <path d="m400 211.07c-4.1758 0-8.1797-1.6602-11.133-4.6133-2.9531-2.9492-4.6133-6.957-4.6133-11.133v-31.488c0-5.6211 3-10.82 7.8711-13.633s10.875-2.8125 15.746 0 7.8711 8.0117 7.8711 13.633v31.488c0 4.1758-1.6602 8.1836-4.6094 11.133-2.9531 2.9531-6.957 4.6133-11.133 4.6133z"/>
 </g>
 <path d="m462.98 368.51c-4.1758 0-8.1836-1.6602-11.133-4.6133-2.9531-2.9531-4.6133-6.957-4.6133-11.133 0-101.17-56.113-144.42-56.68-144.84-4.5-3.375-6.8555-8.8945-6.1836-14.48 0.67187-5.582 4.2734-10.383 9.4453-12.594 5.1758-2.2109 11.133-1.4922 15.633 1.8828 2.832 2.125 69.273 53.301 69.273 170.04 0 4.1758-1.6602 8.1797-4.6094 11.133-2.9531 2.9531-6.9609 4.6133-11.133 4.6133z"/>
 <path d="m400 431.49c-4.1758 0-8.1797-1.6602-11.133-4.6133-2.9531-2.9531-4.6133-6.957-4.6133-11.133v-78.719c0-5.625 3-10.824 7.8711-13.637s10.875-2.8125 15.746 0 7.8711 8.0117 7.8711 13.637v78.719c0 4.1758-1.6602 8.1797-4.6094 11.133-2.9531 2.9531-6.957 4.6133-11.133 4.6133z"/>
</svg>