<?xml version="1.0" encoding="UTF-8"?>
<!-- The Best Svg Icon site in the world: iconSvg.co, Visit us! https://iconsvg.co -->
<svg fill="#000000" width="800px" height="800px" version="1.1" viewBox="144 144 512 512" xmlns="http://www.w3.org/2000/svg">
 <g>
  <path d="m626.25 474.07c-0.8125-1.7344-2.5547-2.8398-4.4688-2.8398h-32.918v-65.469c0-2.7188-2.207-4.9258-4.9258-4.9258h-25.879c-1.0742-6.2227-2.3477-12.535-3.9453-18.871-4.6836-18.75-11.062-34.969-18.594-49.039 28.684-3.4922 43.254-17.664 43.254-42.273 0-33.266-40.188-72.641-74.145-72.641-26.188 0-41.969 14.445-45.992 41.836-39.977-18.652-77.316-17.957-82.348-17.754-1.3164-0.074218-40.598-1.9805-82.855 17.738-4.0312-27.383-19.809-41.82-45.992-41.82-33.969-0.007813-74.156 39.371-74.156 72.633 0 24.605 14.566 38.785 43.242 42.273-7.5312 14.07-13.906 30.285-18.59 49.031-30.176 120.7 43.969 147.59 83.809 162.04 9.6484 3.5 17.984 6.5195 22.359 9.7891 26.203 19.559 39.168 28.207 71.902 28.207 0.003907 0 0.011719 0.003906 0.015626 0.003906 32.711 0 45.691-8.6562 71.926-28.234 4.3789-3.2734 12.73-6.2969 22.395-9.8008 12.934-4.6836 28.766-10.473 43.562-19.773l33.32 39.918c0.93359 1.125 2.3164 1.7695 3.7852 1.7695 1.4648 0 2.8516-0.64453 3.7852-1.7734l70.77-84.777c1.2266-1.4648 1.4922-3.5078 0.68359-5.2422zm-121.63-246.21c28.238 0 64.285 35.207 64.285 62.781 0 20.656-12.012 30.867-38.742 32.914-17.445-28.391-39.871-46.895-62.199-58.992 2.5664-24.664 14.559-36.703 36.656-36.703zm-321.48 62.781c0-27.578 36.047-62.781 64.285-62.781 22.094 0 34.082 12.035 36.652 36.688-22.328 12.098-44.758 30.605-62.207 59.008-26.723-2.0469-38.73-12.258-38.73-32.914zm283.84 244.04c-10.828 3.9258-19.383 7.0195-24.934 11.168-24.168 18.035-35.199 26.27-66.016 26.27h-0.011719c-30.852 0-41.871-8.2266-66.016-26.25-5.5469-4.1406-14.086-7.2344-24.902-11.16-42.062-15.25-105.63-38.301-77.613-150.37 5.2109-20.844 12.535-38.355 21.195-53.176 0.11719-0.19141 0.23828-0.36719 0.32422-0.57422 16.977-28.816 39.102-47.152 61.027-58.789 1.0742-0.17578 2.0195-0.66016 2.7344-1.4023 40.758-20.633 79.984-18.668 82.934-18.477 0.082031 0.003906 0.14453-0.03125 0.22266-0.03125 0.14062 0.003906 0.26562 0.066406 0.41406 0.054687 2.9414-0.17969 42.23-2.1523 83.031 18.523 0.67969 0.66406 1.543 1.1094 2.5234 1.2891 21.965 11.633 44.141 29.98 61.152 58.859 0.070313 0.16797 0.17188 0.30078 0.25781 0.45703 8.6797 14.844 16.027 32.391 21.25 53.273 1.3945 5.5352 2.5156 11.035 3.4961 16.473h-29.961c-2.7266 0-4.9258 2.207-4.9258 4.9258v65.465h-32.918c-1.9102 0-3.6523 1.1094-4.4688 2.8398-0.80469 1.7344-0.54297 3.7773 0.68359 5.25l31.086 37.23c-13.629 8.3633-28.426 13.754-40.566 18.152zm84.031 18.555-60.242-72.156h27.316c2.7266 0 4.9258-2.207 4.9258-4.9258l0.003906-65.469h55.992v65.465c0 2.7188 2.207 4.9258 4.9258 4.9258h27.312z"/>
  <path d="m380.95 498.8v-11.73c0.71875-0.36328 1.4141-0.78125 2.0625-1.3164l21.633-17.965c3.5938-2.9844 4.8906-7.7422 3.3008-12.133-1.582-4.3867-5.6211-7.2266-10.289-7.2266h-43.266c-4.6719 0-8.707 2.8359-10.293 7.2266-1.5859 4.3867-0.28906 9.1523 3.3008 12.133l21.633 17.965c0.64062 0.53516 1.3398 0.94531 2.0625 1.3164v11.73c-11.039-2.9844-32.621-6.0547-43.133 11.395-1.4062 2.3281-0.65625 5.3594 1.6719 6.7656 2.332 1.4023 5.3594 0.64844 6.7656-1.6758 9.8086-16.262 37.477-5.2617 37.754-5.1484 1.1953 0.48438 2.5352 0.48828 3.7266 0 0.28125-0.10938 27.902-11.184 37.75 5.1484 0.92188 1.5352 2.5547 2.3828 4.2266 2.3828 0.86719 0 1.7422-0.22656 2.5391-0.70703 2.3281-1.4062 3.0781-4.4336 1.6719-6.7656-10.508-17.449-32.082-14.375-43.117-11.395zm-27.254-38.598c-0.14453-0.12109-0.58984-0.48438-0.32812-1.1992 0.26172-0.71484 0.83203-0.71484 1.0234-0.71484h43.266c0.1875 0 0.76172 0 1.0234 0.71484 0.26172 0.71484-0.17969 1.0781-0.32812 1.1992l-21.633 17.965c-0.40234 0.33203-0.98438 0.33203-1.3867 0z"/>
  <path d="m376.02 404.15c-42.512 0-77.094 33.676-77.094 75.074 0 41.395 34.582 75.066 77.094 75.066 42.512 0 77.094-33.676 77.094-75.066-0.003907-41.395-34.582-75.074-77.094-75.074zm0 140.29c-37.074 0-67.234-29.258-67.234-65.215 0-35.957 30.156-65.215 67.234-65.215 37.074 0 67.234 29.258 67.234 65.215-0.003906 35.957-30.16 65.215-67.234 65.215z"/>
  <path d="m474.34 368.95c-2.1016-4.3633-6.418-7.0781-11.266-7.0781h-21.875c-11.285 0-20.469 9.1797-20.469 20.469v14.133c0 2.7188 2.207 4.9258 4.9258 4.9258h29.523c1.5 0 2.9219-0.68359 3.8555-1.8594l13.824-17.367c3.0156-3.793 3.5859-8.8594 1.4805-13.223zm-9.1953 7.082-12.344 15.512h-22.219v-9.2031c0-5.8477 4.7617-10.609 10.617-10.609h21.875c1.5078 0 2.1719 1.0469 2.3945 1.5 0.21094 0.44922 0.61719 1.6211-0.32422 2.8008z"/>
  <path d="m331.32 396.47v-14.133c0-11.285-9.1797-20.469-20.465-20.469h-21.875c-4.8477 0-9.1641 2.7109-11.266 7.0781-2.1055 4.3633-1.5352 9.4297 1.4805 13.219l13.824 17.371c0.93359 1.1797 2.3516 1.8594 3.8555 1.8594h29.52c2.7227 0 4.9258-2.207 4.9258-4.9258zm-9.8555-4.9297h-22.215l-12.344-15.512c-0.9375-1.1797-0.53516-2.3516-0.31641-2.8008 0.22266-0.45312 0.88672-1.5 2.3945-1.5h21.875c5.8477 0 10.609 4.7617 10.609 10.609v9.2031z"/>
 </g>
</svg>