<?xml version="1.0" encoding="UTF-8"?>
<!-- The Best Svg Icon site in the world: iconSvg.co, Visit us! https://iconsvg.co -->
<svg fill="#000000" width="800px" height="800px" version="1.1" viewBox="144 144 512 512" xmlns="http://www.w3.org/2000/svg">
 <path d="m296.29 232.72c8.7539-5.4336 17.918-10.172 27.41-14.172 1.9961-0.75781 3.5977-2.2969 4.4375-4.2617 0.83984-1.9609 0.84375-4.1836 0.015625-6.1484-0.82812-1.9688-2.4219-3.5156-4.4141-4.2852-1.9922-0.77344-4.2109-0.69922-6.1484 0.19531-10.254 4.3203-20.152 9.4414-29.598 15.32-1.8594 1.0586-3.2109 2.8281-3.7383 4.9023-0.52734 2.0742-0.1875 4.2734 0.94141 6.0898 1.1289 1.8203 2.9492 3.1016 5.043 3.5469 2.0898 0.44922 4.2773 0.023438 6.0508-1.1719zm-100.97 176.41c-2.082 0.17188-4.0078 1.168-5.3594 2.7617-1.3477 1.5938-2.0078 3.6602-1.832 5.7422 0.92188 11.09 2.707 22.09 5.3359 32.902 1.0352 4.2266 5.2969 6.8164 9.5234 5.7812 4.2266-1.0352 6.8125-5.3008 5.7773-9.5273-2.4453-10.016-4.0977-20.207-4.9414-30.48-0.36719-4.3281-4.1719-7.543-8.5039-7.1797zm15.746-198.06h15.742c4.1758 0 8.1797 1.6602 11.133 4.6094 2.9531 2.9531 4.6133 6.957 4.6133 11.133 0 4.3477 3.5234 7.875 7.8711 7.875 4.3477 0 7.8711-3.5273 7.8711-7.875 0-8.3516-3.3164-16.359-9.2227-22.266-5.9023-5.9023-13.914-9.2227-22.266-9.2227v-7.8711c0-4.3477-3.5234-7.8711-7.8711-7.8711s-7.8711 3.5234-7.8711 7.8711v7.8711c-11.25 0-21.645 6.0039-27.27 15.746-5.625 9.7422-5.625 21.746 0 31.488 5.625 9.7422 16.02 15.742 27.27 15.742h15.742c5.625 0 10.824 3.0039 13.637 7.875 2.8125 4.8711 2.8125 10.871 0 15.742-2.8125 4.8711-8.0117 7.8711-13.637 7.8711h-15.742c-4.1758 0-8.1797-1.6562-11.133-4.6094-2.9531-2.9531-4.6133-6.957-4.6133-11.133 0-4.3477-3.5234-7.8711-7.8711-7.8711s-7.8711 3.5234-7.8711 7.8711c0 8.3516 3.3164 16.359 9.2227 22.266 5.9062 5.9023 13.914 9.2227 22.266 9.2227v7.8711c0 4.3477 3.5234 7.8711 7.8711 7.8711s7.8711-3.5234 7.8711-7.8711v-7.8711c11.25 0 21.645-6.0039 27.27-15.746 5.625-9.7422 5.625-21.746 0-31.488-5.625-9.7422-16.02-15.742-27.27-15.742h-15.742c-5.625 0-10.824-3-13.637-7.8711s-2.8125-10.875 0-15.746 8.0117-7.8711 13.637-7.8711zm203.86-7.3047c10.07 0.76562 20.07 2.2969 29.91 4.582 0.39453 0.089844 0.79687 0.15234 1.1992 0.1875 4.1133 0.32031 7.7734-2.5859 8.3945-6.6641 0.62109-4.0781-2.0117-7.9453-6.0352-8.8594-10.621-2.4648-21.418-4.1172-32.289-4.9453h-0.62891c-2.0469-0.14062-4.0664 0.55078-5.5938 1.918-1.5312 1.3672-2.4414 3.293-2.5312 5.3398-0.16406 4.3945 3.1875 8.1289 7.5742 8.4414zm59.324 13.918h-0.003906c9.5469 3.8984 18.773 8.5352 27.602 13.871 3.7188 2.25 8.5625 1.0586 10.816-2.6641 2.25-3.7188 1.0586-8.5625-2.6602-10.816-9.5273-5.75-19.484-10.754-29.789-14.953-3.9727-1.4492-8.3828 0.5-9.9805 4.418-1.6016 3.9141 0.17969 8.3945 4.0273 10.145zm-123.71-8.6445h-0.003906c0.83594 0.070313 1.6758 0 2.4883-0.20312 10.008-2.4531 20.195-4.1211 30.465-4.9922 4.3477-0.37109 7.5703-4.1953 7.2031-8.543-0.37109-4.3477-4.1953-7.5703-8.543-7.2031-11.094 0.93359-22.094 2.7383-32.906 5.4023-3.7539 0.92578-6.2773 4.4414-5.957 8.2969 0.32031 3.8516 3.3945 6.9023 7.25 7.1953zm-139.46 301.17h15.742c4.1758 0 8.1797 1.6602 11.133 4.6094 2.9531 2.9531 4.6133 6.957 4.6133 11.133 0 4.3477 3.5234 7.875 7.8711 7.875 4.3477 0 7.8711-3.5273 7.8711-7.875 0-8.3477-3.3164-16.359-9.2227-22.266-5.9023-5.9023-13.914-9.2227-22.266-9.2227v-7.8711c0-4.3477-3.5234-7.8711-7.8711-7.8711s-7.8711 3.5234-7.8711 7.8711v7.8711c-11.25 0-21.645 6.0039-27.27 15.746-5.625 9.7422-5.625 21.746 0 31.488 5.625 9.7422 16.02 15.742 27.27 15.742h15.742c5.625 0 10.824 3.0039 13.637 7.875s2.8125 10.871 0 15.742c-2.8125 4.8711-8.0117 7.8711-13.637 7.8711h-15.742c-4.1758 0-8.1797-1.6562-11.133-4.6094s-4.6133-6.957-4.6133-11.133c0-4.3477-3.5234-7.8711-7.8711-7.8711s-7.8711 3.5234-7.8711 7.8711c0 8.3516 3.3164 16.359 9.2227 22.266s13.914 9.2227 22.266 9.2227v7.8711c0 4.3477 3.5234 7.8711 7.8711 7.8711s7.8711-3.5234 7.8711-7.8711v-7.8711c11.25 0 21.645-6.0039 27.27-15.746 5.625-9.7422 5.625-21.746 0-31.488s-16.02-15.742-27.27-15.742h-15.742c-5.625 0-10.824-3-13.637-7.8711-2.8125-4.8711-2.8125-10.875 0-15.746s8.0117-7.8711 13.637-7.8711zm-8.5352-164.7c-4.2227-0.98437-8.4492 1.6367-9.4453 5.8555-2.5 10.695-4.1758 21.562-5.0078 32.512v0.41016c-0.14844 2.0586 0.53125 4.0898 1.8945 5.6367 1.3633 1.5508 3.2891 2.4844 5.3477 2.5977 4.3789 0.23438 8.1367-3.0742 8.457-7.4453 0.76172-10.141 2.3047-20.203 4.6133-30.105 0.99219-4.2266-1.6289-8.4648-5.8594-9.4609zm300.82 221.99h0.003906c-8.7578 5.4375-17.926 10.176-27.426 14.168-4.0156 1.6797-5.9062 6.293-4.2305 10.305 1.6797 4.0156 6.293 5.9062 10.305 4.2266 10.27-4.293 20.18-9.3906 29.648-15.238 3.6992-2.293 4.8398-7.1484 2.5508-10.848-2.293-3.6992-7.1484-4.8438-10.848-2.5508zm69.828-57.293h15.742c4.1758 0 8.1797 1.6602 11.133 4.6094 2.9531 2.9531 4.6133 6.957 4.6133 11.133 0 4.3477 3.5234 7.875 7.8711 7.875 4.3477 0 7.8711-3.5273 7.8711-7.875 0-8.3477-3.3164-16.359-9.2227-22.266-5.9023-5.9023-13.914-9.2227-22.266-9.2227v-7.8711c0-4.3477-3.5234-7.8711-7.8711-7.8711-4.3477 0-7.8711 3.5234-7.8711 7.8711v7.8711c-11.25 0-21.645 6.0039-27.27 15.746-5.625 9.7422-5.625 21.746 0 31.488 5.625 9.7422 16.02 15.742 27.27 15.742h15.742c5.625 0 10.824 3.0039 13.637 7.875s2.8125 10.871 0 15.742c-2.8125 4.8711-8.0117 7.8711-13.637 7.8711h-15.742c-4.1758 0-8.1797-1.6562-11.133-4.6094s-4.6133-6.957-4.6133-11.133c0-4.3477-3.5234-7.8711-7.8711-7.8711s-7.8711 3.5234-7.8711 7.8711c0 8.3516 3.3164 16.359 9.2227 22.266s13.914 9.2227 22.266 9.2227v7.8711c0 4.3477 3.5234 7.8711 7.8711 7.8711 4.3477 0 7.8711-3.5234 7.8711-7.8711v-7.8711c11.25 0 21.645-6.0039 27.27-15.746 5.625-9.7422 5.625-21.746 0-31.488s-16.02-15.742-27.27-15.742h-15.742c-5.625 0-10.824-3-13.637-7.8711-2.8125-4.8711-2.8125-10.875 0-15.746s8.0117-7.8711 13.637-7.8711zm23.051-95.281h-0.003906c-0.77344 10.27-2.3516 20.469-4.7227 30.496-0.98437 4.2188 1.6289 8.4414 5.8438 9.4453 0.40234 0.09375 0.8125 0.15625 1.2266 0.1875 3.8594 0.29297 7.3555-2.2656 8.25-6.0273 2.5742-10.945 4.2852-22.074 5.1172-33.285v-0.39453c0.13672-2.0391-0.5625-4.0508-1.9375-5.5625-1.375-1.5156-3.3086-2.4062-5.3516-2.4648-4.3867-0.11328-8.0898 3.2305-8.4258 7.6055zm-270.85 167.23c-9.5352-3.9141-18.75-8.5625-27.566-13.902-1.7852-1.1758-3.9727-1.5742-6.0586-1.1055-2.0859 0.46875-3.8906 1.7656-5 3.5938-1.1094 1.8242-1.4297 4.0234-0.88672 6.0898 0.54688 2.0703 1.9062 3.8242 3.7734 4.8672 9.5117 5.7891 19.469 10.816 29.773 15.035 4.0195 1.6523 8.6211-0.26562 10.273-4.2891 1.6484-4.0195-0.26953-8.6211-4.293-10.273zm263.54-339.6h-15.742c-5.625 0-10.824-3-13.637-7.8711s-2.8125-10.875 0-15.746 8.0117-7.8711 13.637-7.8711h15.742c4.1758 0 8.1797 1.6602 11.133 4.6094 2.9531 2.9531 4.6133 6.957 4.6133 11.133 0 4.3477 3.5234 7.875 7.8711 7.875 4.3477 0 7.8711-3.5273 7.8711-7.875 0-8.3516-3.3164-16.359-9.2227-22.266-5.9023-5.9023-13.914-9.2227-22.266-9.2227v-7.8711c0-4.3477-3.5234-7.8711-7.8711-7.8711-4.3477 0-7.8711 3.5234-7.8711 7.8711v7.8711c-11.25 0-21.645 6.0039-27.27 15.746-5.625 9.7422-5.625 21.746 0 31.488 5.625 9.7422 16.02 15.742 27.27 15.742h15.742c5.625 0 10.824 3.0039 13.637 7.875 2.8125 4.8711 2.8125 10.871 0 15.742-2.8125 4.8711-8.0117 7.8711-13.637 7.8711h-15.742c-4.1758 0-8.1797-1.6562-11.133-4.6094-2.9531-2.9531-4.6133-6.957-4.6133-11.133 0-4.3477-3.5234-7.8711-7.8711-7.8711s-7.8711 3.5234-7.8711 7.8711c0 8.3516 3.3164 16.359 9.2227 22.266 5.9062 5.9023 13.914 9.2227 22.266 9.2227v7.8711c0 4.3477 3.5234 7.8711 7.8711 7.8711 4.3477 0 7.8711-3.5234 7.8711-7.8711v-7.8711c11.25 0 21.645-6.0039 27.27-15.746 5.625-9.7422 5.625-21.746 0-31.488-5.625-9.7422-16.02-15.742-27.27-15.742zm7.8711 100.76h0.003906c-4.1797 1.0469-6.7383 5.2539-5.75 9.4453 2.4688 10.004 4.1484 20.184 5.0234 30.449 0.32812 3.8398 3.3867 6.8789 7.2266 7.1797 0.42578 0.039063 0.85156 0.039063 1.2773 0 4.3203-0.375 7.5273-4.1797 7.1602-8.5-0.94141-11.09-2.7539-22.09-5.4297-32.891-1.0742-4.1836-5.3164-6.7188-9.5078-5.6836zm-211.99 252.89c-10.121-0.80859-20.172-2.3867-30.055-4.7227-4.2344-0.99609-8.4727 1.6328-9.4688 5.8672s1.6289 8.4727 5.8633 9.4688c10.762 2.5195 21.699 4.2109 32.715 5.0547h0.69531c4.1367 0.0625 7.6172-3.0859 7.9648-7.2109 0.26172-2.1836-0.4375-4.3711-1.9219-5.9961-1.4805-1.6211-3.5938-2.5195-5.793-2.4609zm61.812-4.9609v0.003906c-10.012 2.4297-20.199 4.0664-30.465 4.8945-4.3477 0-7.8711 3.5273-7.8711 7.875s3.5234 7.8711 7.8711 7.8711c0.41406 0.03125 0.82812 0.03125 1.2422 0 11.09-0.91016 22.094-2.6836 32.906-5.3047 4.2266-1.0273 6.8203-5.2852 5.793-9.5117-1.0234-4.2266-5.2812-6.8203-9.5078-5.793zm63.59-88.918v-47.234c0-18.789-7.4648-36.809-20.75-50.098-13.289-13.285-31.309-20.75-50.098-20.75h-8.2969c0.23438-1.375 0.375-2.7617 0.42578-4.1562v-13.16c14.898-11.82 23.594-29.789 23.613-48.809v-17.02c-0.015624-12.336-4.9258-24.16-13.648-32.883-8.7266-8.7227-20.555-13.629-32.891-13.641h-17.129c-12.336 0.011718-24.164 4.918-32.891 13.641-8.7227 8.7227-13.633 20.547-13.648 32.883v16.926c-0.011719 19.051 8.6875 37.062 23.617 48.902v13.242-0.003907c0.046875 1.3945 0.1875 2.7812 0.42188 4.1562h-8.2969c-18.773 0-36.785 7.4531-50.066 20.723-13.285 13.27-20.758 31.273-20.781 50.047v47.234c0 10.438 4.1484 20.449 11.531 27.832 7.3789 7.3789 17.391 11.527 27.828 11.527h141.7c10.438 0 20.449-4.1484 27.832-11.527 7.3789-7.3828 11.527-17.395 11.527-27.832zm-149.57-184.3v-16.926c0.015625-8.1602 3.2617-15.984 9.0352-21.754 5.7734-5.7734 13.602-9.0156 21.762-9.0234h17.129c8.1641 0.007813 15.988 3.25 21.762 9.0234 5.7734 5.7695 9.0234 13.594 9.0352 21.754v16.926c0.011719 9.1602-2.6641 18.121-7.7031 25.773-5.0391 7.6484-12.215 13.648-20.637 17.254-7.0078 2.9531-14.91 2.9531-21.914 0-8.4492-3.582-15.652-9.5742-20.715-17.227-5.0625-7.6523-7.7578-16.625-7.7539-25.801zm55.105 57.938v4.125c0 5.625-3 10.824-7.8711 13.637s-10.875 2.8125-15.746 0-7.8711-8.0117-7.8711-13.637v-4.125c10.102 4.0664 21.387 4.0664 31.488 0zm78.719 126.36c0 6.2617-2.4844 12.27-6.9141 16.699-4.4297 4.4258-10.438 6.9141-16.699 6.9141h-7.8711v-70.848c0-4.3477-3.5273-7.8711-7.875-7.8711-4.3477 0-7.8711 3.5234-7.8711 7.8711v70.848h-94.465v-70.848c0-4.3477-3.5234-7.8711-7.8711-7.8711-4.3477 0-7.8711 3.5234-7.8711 7.8711v70.848h-7.875c-6.2617 0-12.27-2.4883-16.695-6.9141-4.4297-4.4297-6.918-10.438-6.918-16.699v-47.234c0-14.613 5.8047-28.629 16.141-38.965 10.332-10.332 24.348-16.137 38.961-16.137h15.164c5.8945 7.3242 14.793 11.586 24.199 11.586 9.4023 0 18.301-4.2617 24.195-11.586h15.164c14.613 0 28.629 5.8047 38.965 16.137 10.332 10.336 16.137 24.352 16.137 38.965z"/>
</svg>