<?xml version="1.0" encoding="UTF-8"?>
<!-- The Best Svg Icon site in the world: iconSvg.co, Visit us! https://iconsvg.co -->
<svg fill="#000000" width="800px" height="800px" version="1.1" viewBox="144 144 512 512" xmlns="http://www.w3.org/2000/svg">
 <g>
  <path d="m477.77 236.45c-2.3672 7.6367-5.2109 15.117-8.5195 22.395-3.875 8.5586-8.6523 16.68-14.246 24.23-0.93359 1.2383-2.4375 1.9102-3.9844 1.7852-0.91406-0.09375-1.8281-0.14062-2.7461-0.13672h-96.551c-1.1484-0.003906-2.2969 0.074219-3.4336 0.22656-0.22656 0.039063-0.45703 0.054688-0.6875 0.046876-1.4648 0.003906-2.8438-0.69531-3.7109-1.8789-9.7031-14.34-17.047-30.141-21.75-46.809-1.4453-4.8164-0.28125-10.039 3.0742-13.789 3.3555-3.75 8.4219-5.4805 13.367-4.5742 9.0508 1.7383 17.891 4.4258 26.379 8.0156 1.4609 0.64844 3.1328 0.63281 4.5781-0.046875 1.3438-0.63672 2.3477-1.8203 2.75-3.2539 3.7617-12.238 8.8438-24.035 15.16-35.172 1.6797-2.9805 4.3672-5.2656 7.5742-6.4453 3.2109-1.1797 6.7383-1.1797 9.9492 0 3.207 1.1797 5.8945 3.4648 7.5742 6.4453 6.3828 11.105 11.469 22.906 15.16 35.172 0.41797 1.4375 1.4375 2.625 2.793 3.2539 1.4531 0.65625 3.1172 0.67188 4.582 0.046875 8.4375-3.6016 17.234-6.2891 26.242-8.0156 4.9805-0.92969 10.082 0.82031 13.449 4.6055 3.3633 3.7891 4.5 9.0586 2.9961 13.898z"/>
  <path d="m455.8 328.72h-112.45c-0.39844 0.003906-0.79688-0.019531-1.1914-0.058594-6.6094-0.23828-12.879-3.0039-17.516-7.7227-4.6602-4.6641-7.4102-10.898-7.707-17.488-0.29688-6.5859 1.8789-13.043 6.1016-18.105 4.2227-5.0664 10.188-8.3672 16.723-9.2539 1.1953-0.17578 2.3984-0.25781 3.6094-0.25h112.43c0.80469 0 1.6758 0.050781 2.4883 0.10938v0.003906c6.5547 0.60938 12.648 3.6484 17.078 8.5195 4.4297 4.8711 6.8828 11.219 6.8711 17.805 0.027344 6.8086-2.5859 13.359-7.2891 18.281-4.707 4.918-11.137 7.8203-17.938 8.0977-0.40234 0.042969-0.80469 0.066406-1.2109 0.0625zm-112.45-43.719c-0.76562-0.007812-1.5312 0.039062-2.2891 0.15234-4.1445 0.57422-7.9375 2.625-10.695 5.7695-2.7539 3.1445-4.2891 7.1758-4.3164 11.355-0.03125 4.5742 1.7852 8.9688 5.0391 12.184 3.043 3.1133 7.1797 4.9219 11.535 5.0391 0.24609 0.007812 0.49219 0.035156 0.73438 0.078125l112.41-0.027344c0.21875-0.039062 0.4375-0.054687 0.66016-0.046875 5.8789-0.22266 11.238-3.4258 14.227-8.4961 2.9844-5.0703 3.1797-11.312 0.52344-16.559-2.6602-5.25-7.8086-8.7852-13.66-9.3789-0.49609-0.03125-1.1484-0.078124-1.75-0.078124z"/>
  <path d="m384.33 454.18c-0.11719 2.5859 1.0898 5.0547 3.207 6.543 2.8984 1.8672 6.1055 3.2031 9.4727 3.9414v-21.156c-3.3398 0.3125-6.5312 1.5273-9.2383 3.5117-2.2344 1.6914-3.5156 4.3594-3.4414 7.1602z"/>
  <path d="m400 409.18c-16.039 0.007812-31.422 6.3828-42.758 17.73-11.34 11.344-17.707 26.727-17.707 42.766 0.003906 16.039 6.3789 31.422 17.719 42.762 11.344 11.34 26.723 17.711 42.762 17.715 16.039 0 31.422-6.3711 42.766-17.707 11.344-11.34 17.719-26.723 17.727-42.762-0.015624-16.043-6.3945-31.426-17.738-42.77s-26.727-17.719-42.77-17.734zm22.363 85.488c-1.9492 2.8633-4.6406 5.1406-7.7852 6.5859-3.668 1.7148-7.6406 2.6797-11.684 2.8398v6.8281c0.023438 0.77344-0.26953 1.5195-0.8125 2.0664-0.57812 0.55469-1.3594 0.85156-2.1602 0.81641-0.76562 0.027343-1.5117-0.24609-2.0742-0.76563-0.55859-0.55859-0.85547-1.3281-0.8125-2.1172v-6.8281c-6.6836-0.39453-13.254-1.9219-19.426-4.5195-0.78125-0.32812-1.4531-0.87891-1.9258-1.5859-1.1328-1.5898-0.99219-3.7617 0.33984-5.1914 0.71875-0.79297 1.75-1.2305 2.8203-1.1953 0.63281-0.003906 1.2539 0.12891 1.832 0.38672 5.1602 2.2969 10.707 3.6016 16.352 3.8438v-22.125c-3.7695-0.94922-7.4531-2.207-11.016-3.7539-2.9062-1.2852-5.457-3.2461-7.4492-5.7227-2.0586-2.6797-3.1133-6-2.9805-9.375-0.027343-3.2422 0.82031-6.4297 2.4492-9.2305 1.7695-2.9492 4.293-5.375 7.3125-7.0195 3.6016-1.9688 7.5898-3.1172 11.688-3.3633v-6.7383c-0.019531-0.78125 0.27344-1.543 0.80859-2.1094 0.53516-0.57422 1.293-0.89062 2.0781-0.86719 0.78906-0.003906 1.5508 0.30469 2.1094 0.86719 0.55859 0.55859 0.86719 1.3203 0.85938 2.1094v6.6367c5.7148 0.14844 11.371 1.2188 16.742 3.1758 1.6914 0.48828 2.8086 2.0898 2.6914 3.8477 0 1.0273-0.375 2.0195-1.0547 2.7891-0.69141 0.82422-1.7227 1.2852-2.7969 1.25-0.52734-0.042969-1.043-0.17969-1.5234-0.40234-4.5234-1.5703-9.2617-2.4453-14.047-2.5977v22.902-0.003907c3.9219 0.87109 7.7656 2.0625 11.496 3.5586 2.9883 1.2383 5.6172 3.207 7.6484 5.7227 2.1641 2.8867 3.25 6.4414 3.0742 10.047 0.027343 3.2852-0.92969 6.5078-2.7539 9.2383z"/>
  <path d="m413.04 479.04c-3.1992-1.7422-6.6133-3.0508-10.156-3.8945v20.676c9.0508-0.64062 13.574-4.293 13.566-10.961 0.046875-2.4258-1.2734-4.6758-3.4102-5.8203z"/>
  <path d="m400 384.18c-22.672 0.003906-44.41 9.0156-60.438 25.047-16.027 16.035-25.031 37.777-25.027 60.449 0 22.668 9.0078 44.41 25.039 60.438 16.027 16.031 37.77 25.039 60.441 25.039 22.668 0.003906 44.41-9 60.445-25.027 16.031-16.027 25.043-37.766 25.047-60.438-0.019531-22.672-9.0352-44.41-25.066-60.441s-37.77-25.047-60.441-25.066zm0 155.13c-18.473-0.007812-36.184-7.3516-49.242-20.418-13.055-13.062-20.387-30.781-20.383-49.254 0.007812-18.469 7.3516-36.184 20.418-49.238 13.066-13.059 30.781-20.387 49.254-20.383 18.473 0.007813 36.184 7.3516 49.238 20.418 13.059 13.066 20.387 30.785 20.383 49.258-0.023438 18.465-7.375 36.164-20.434 49.219-13.062 13.051-30.77 20.387-49.234 20.398z"/>
  <path d="m578.25 507.22c-4.7617-75.297-59.312-155.82-126.91-187.32-0.96484-0.42578-2.0352-0.53906-3.0664-0.32422h-96.777c-0.95703-0.19141-1.9531-0.082031-2.8398 0.32422-67.602 31.512-122.11 112.03-126.82 187.32-1.9688 31.738 5.2656 55.879 22.074 73.832 32.062 34.074 93.984 38.793 156.14 38.793 29.359 0.60938 58.711-1.5547 87.664-6.4609 44.152-10.992 85.648-28.855 90.184-84.688l-0.003907 0.003907c0.65625-7.1406 0.77734-14.32 0.36719-21.48zm-178.25 57.094c-25.105-0.003906-49.176-9.9844-66.922-27.738-17.746-17.754-27.711-41.828-27.703-66.93 0.003906-25.102 9.9844-49.176 27.738-66.922 17.754-17.742 41.828-27.711 66.93-27.703 25.102 0.003907 49.176 9.9844 66.922 27.738 17.746 17.754 27.711 41.828 27.703 66.93-0.03125 25.098-10.016 49.152-27.762 66.895-17.75 17.738-41.812 27.715-66.906 27.73z"/>
 </g>
</svg>