<?xml version="1.0" encoding="UTF-8"?>
<!-- The Best Svg Icon site in the world: iconSvg.co, Visit us! https://iconsvg.co -->
<svg fill="#000000" width="800px" height="800px" version="1.1" viewBox="144 144 512 512" xmlns="http://www.w3.org/2000/svg">
 <g>
  <path d="m593.55 391.33c7.9023-12.73 5.4414-29.852-6.7383-39.711l-34.215-27.695c18.551-10.086 30.758-29.676 30.758-51.844 0-32.555-26.484-59.039-59.039-59.039-26.699 0-49.305 17.82-56.578 42.188l-31.121-25.195c-14.215-11.508-34.641-11.586-48.953 0l-150.2 121.59c-12.191 9.8711-14.629 26.996-6.7383 39.711-9.9023 5.0508-16.703 15.324-16.703 27.164l0.003907 164.62c0 20.109 19.25 34.641 38.406 29.441 3.375 14.348 15.617 23.605 29.66 23.605h260.1c13.988 0 26.266-9.1992 29.66-23.605 18.637 5.0625 38.402-8.7031 38.402-29.441l-0.003906-164.62c0-11.84-6.8008-22.117-16.699-27.164zm-69.234-158.61c21.703 0 39.359 17.656 39.359 39.359 0 21.875-17.66 39.359-39.359 39.359-21.816 0-39.359-17.512-39.359-39.359 0-21.703 17.656-39.359 39.359-39.359zm-274.47 134.2 150.2-121.59c7.0234-5.6875 17.117-5.7227 24.191 0l41.438 33.543c3.6016 31.945 32.113 55.031 64.203 51.977l44.551 36.066c5.3398 4.3242 5.3125 12.445 0 16.746-3.5547 2.875-124.81 101.04-129.07 104.48l-27.031-21.883c-3.6094-2.9219-8.7734-2.9219-12.383 0l-27.035 21.883c-23.672-19.164-105.96-85.777-129.07-104.48-5.3281-4.3125-5.3164-12.438 0.003906-16.746zm-5.2656 227.01c-5.3477 0-10.875-4.043-10.875-10.812v-164.61c0-9.1445 10.477-14.047 17.504-8.4102l112.06 90.719c-43.445 35.172-89.977 72.836-112.02 90.68-2 1.6172-4.2461 2.4375-6.6758 2.4375zm307.76 15.379c-0.59375 1.6836-3.0898 7.1797-10.156 7.1797h-260.1c-7.0664 0-9.5586-5.4922-10.156-7.1758-0.59766-1.6836-2.1133-7.5234 3.375-11.965 7.3281-5.9336 132.25-107.05 136.83-110.77 19.137 15.492 122.89 99.48 136.83 110.77 5.4883 4.4375 3.9727 10.277 3.375 11.961zm38.227-26.188c0 9.0508-10.457 14.117-17.551 8.3711-7.3242-5.9258-103.43-83.727-112.02-90.68l112.02-90.684c7.0391-5.6992 17.551-0.78516 17.551 8.375z"/>
  <path d="m402.1 367.21-4.7305 9.3984c4.9609 3.3086 11.227 5.1523 16.957 5.6523v7.6914h4.5352v-7.625c9.0977-0.38281 15.906-4.9258 15.906-14.195 0-5.75-2.5625-9.7461-8.4805-12.125-4.0234-1.6172-7.4688-2.3359-8.1523-2.5312v-8.9375c4.5469 0.65234 9.918 3.5352 10.516 4.3398l4.7344-8.9375c-1.8398-1.0508-4.0117-2.082-6.5078-3.0898-2.5-1.0078-5.1719-1.6406-8.0195-1.9062v-6.6406h-4.5352v6.6406c-9.7461 1.0195-14.984 7.1172-14.984 15.051 0 7.7305 5.0898 10.598 12.555 12.883l3.1562 0.92188v8.7422c-5.7969-0.8125-12.004-4.1445-12.949-5.332zm16.039-2.4297c1.5352 0.52734 2.7617 1.1055 3.6797 1.7422 0.92188 0.63672 1.3828 1.5234 1.3828 2.6602 0 2.1914-1.6875 3.3516-5.0625 3.4844zm-6.5391-13.902c-0.76562-0.63281-1.1484-1.5-1.1484-2.5977 0-2.2773 1.5352-3.5508 4.6016-3.8125v8.0859c-1.5391-0.48047-2.6875-1.0391-3.4531-1.6758z"/>
  <path d="m416.07 418.17c32.555 0 59.039-26.484 59.039-59.039 0-32.555-26.484-59.039-59.039-59.039-32.555 0-59.039 26.484-59.039 59.039 0 32.555 26.484 59.039 59.039 59.039zm0-98.398c21.703 0 39.359 17.656 39.359 39.359s-17.656 39.359-39.359 39.359c-21.703 0-39.359-17.656-39.359-39.359s17.656-39.359 39.359-39.359z"/>
  <path d="m510.34 280.16-4.7305 9.3984c4.9531 3.3008 11.219 5.1523 16.957 5.6523v7.6914h4.5352v-7.625c6.0664-0.25391 11.867-2.3633 14.59-7.8203 1.707-3.4141 1.7188-8.6953 0.29688-11.898-1.1523-2.6016-3.2969-4.9297-7.457-6.6055-4.0234-1.6172-7.4727-2.3359-8.1523-2.5312v-8.9375c4.5469 0.65234 9.918 3.5352 10.516 4.3398l4.7344-8.9375c-1.8398-1.0508-4.0117-2.082-6.5078-3.0898-2.5-1.0078-5.1719-1.6445-8.0195-1.9062v-6.6406h-4.5352v6.6406c-9.7344 1.0156-14.984 7.1016-14.984 15.051 0 3.1523 0.79687 5.875 3.0547 8.0859 3.5781 3.5117 10.184 4.9102 12.652 5.7188v8.7422c-5.8906-0.82422-12.035-4.1797-12.949-5.3281zm16.039-2.4336c1.5352 0.52734 2.7617 1.1055 3.6797 1.7422 0.92188 0.63672 1.3828 1.5234 1.3828 2.6602 0 2.1914-1.6875 3.3516-5.0625 3.4844zm-6.543-13.902c-0.76562-0.63281-1.1484-1.5-1.1484-2.5977 0-2.2773 1.5352-3.5508 4.6016-3.8125v8.0859c-1.5352-0.48047-2.6836-1.0391-3.4531-1.6758z"/>
  <path d="m251.59 253.7v-7.6211c6.0391-0.25391 11.852-2.3438 14.59-7.8203 1.7031-3.4062 1.7188-8.6836 0.29688-11.898-1.1406-2.5781-3.2734-4.9219-7.4609-6.6055-4.0312-1.6211-7.4531-2.332-8.1523-2.5312v-8.9375c4.5469 0.64844 9.918 3.5352 10.516 4.3398l4.7344-8.9375c-1.8398-1.0508-4.0117-2.082-6.5078-3.0898-2.5-1.0078-5.1719-1.6445-8.0195-1.9062v-6.6406h-4.5352v6.6406c-6.0898 0.63672-11.266 3.2656-13.801 8.9727-1.5 3.375-1.5039 7.8711-0.42969 10.68 1.1133 2.9062 3.4258 4.793 6.2109 6.1445 3.5156 1.7109 7.3086 2.5977 8.7422 3.0547v8.7422c-5.875-0.81641-12.027-4.168-12.949-5.3242l-4.7305 9.3984c4.9414 3.2969 11.203 5.1523 16.957 5.6523v7.6914h4.5391zm-0.72656-25.172c1.5352 0.52734 2.7617 1.1055 3.6797 1.7422 0.92188 0.63672 1.3789 1.5234 1.3789 2.6602 0 2.1914-1.6875 3.3516-5.0625 3.4844zm-6.5391-13.902c-0.76562-0.63281-1.1484-1.5-1.1484-2.5977 0-2.2773 1.5352-3.5508 4.6016-3.8125v8.0859c-1.5352-0.48047-2.6875-1.0391-3.4531-1.6758z"/>
  <path d="m307.83 222.88c0-32.555-26.484-59.039-59.039-59.039-32.555 0-59.039 26.484-59.039 59.039 0 32.555 26.484 59.039 59.039 59.039 32.551 0 59.039-26.484 59.039-59.039zm-98.402 0c0-21.703 17.656-39.359 39.359-39.359 21.703 0 39.359 17.656 39.359 39.359s-17.656 39.359-39.359 39.359c-21.703 0-39.359-17.656-39.359-39.359z"/>
  <path d="m376.71 586.96h19.68v19.68h-19.68z"/>
  <path d="m406.23 586.96h19.68v19.68h-19.68z"/>
  <path d="m435.75 586.96h19.68v19.68h-19.68z"/>
 </g>
</svg>