<?xml version="1.0" encoding="UTF-8"?>
<!-- The Best Svg Icon site in the world: iconSvg.co, Visit us! https://iconsvg.co -->
<svg width="800px" height="800px" version="1.1" viewBox="144 144 512 512" xmlns="http://www.w3.org/2000/svg">
 <defs>
  <clipPath id="d">
   <path d="m148.09 148.09h503.81v503.81h-503.81z"/>
  </clipPath>
  <clipPath id="c">
   <path d="m420 190h231.9v284h-231.9z"/>
  </clipPath>
  <clipPath id="b">
   <path d="m630 148.09h21.902v21.906h-21.902z"/>
  </clipPath>
  <clipPath id="a">
   <path d="m578 148.09h22v21.906h-22z"/>
  </clipPath>
 </defs>
 <g clip-path="url(#d)">
  <path d="m641.41 588.93h-10.496v-31.488c0-2.7812-1.1055-5.4531-3.0742-7.4219s-4.6367-3.0742-7.4219-3.0742h-10.496v-20.992c0-2.7812-1.1055-5.4531-3.0742-7.4219-1.9688-1.9648-4.6367-3.0742-7.4219-3.0742v-20.992h-20.992v20.992h-62.977v-20.992h-20.992v20.992c-5.7969 0-10.496 4.6992-10.496 10.496v20.992h-20.988v-20.992c0-2.7812-1.1094-5.4531-3.0742-7.4219-1.9688-1.9648-4.6406-3.0742-7.4219-3.0742v-62.973h-20.992v20.992h-20.992v-73.473h-20.992v73.473h-20.992v-125.95h31.488v-20.992h-41.984v-10.496h52.48v-20.992h-241.41v-20.992h167.94c2.7812 0 5.4531-1.1055 7.4219-3.0742s3.0742-4.6406 3.0742-7.4219v-27.145l4.3438-4.3438h96.27l7.4219 7.4219 14.84-14.84-10.496-10.496v-0.003907c-1.9688-1.9688-4.6367-3.0742-7.418-3.0742h-104.96c-2.7852 0-5.4531 1.1055-7.4219 3.0742l-10.496 10.496c-1.9688 1.9688-3.0742 4.6367-3.0742 7.4219v20.992h-125.95v-58.633l25.336-25.336h310.54v-20.992h-314.88c-2.7852 0-5.4531 1.1055-7.4219 3.0742l-31.488 31.488c-1.9688 1.9688-3.0742 4.6367-3.0742 7.4219v62.977h-20.992c-5.7969 0-10.496 4.6992-10.496 10.496v41.984c0 2.7812 1.1055 5.4531 3.0742 7.4219s4.6367 3.0742 7.4219 3.0742h31.488v20.992c0 2.7812 1.1055 5.4531 3.0742 7.4219s4.6367 3.0742 7.4219 3.0742v167.93c-5.7969 0-10.496 4.6992-10.496 10.496v20.992h-10.496c-5.7969 0-10.496 4.6992-10.496 10.496v31.488h-10.496c-5.7969 0-10.496 4.6992-10.496 10.496v41.984c0 2.7852 1.1055 5.4531 3.0742 7.4219s4.6367 3.0742 7.4219 3.0742h482.82c2.7852 0 5.4531-1.1055 7.4219-3.0742s3.0742-4.6367 3.0742-7.4219v-41.984c0-2.7812-1.1055-5.4531-3.0742-7.4219s-4.6367-3.0742-7.4219-3.0742zm-136.45-52.48h83.969v10.496h-83.969zm-146.94 0h83.969v10.496h-83.969zm73.473-41.984v20.992h-62.977v-20.992zm-83.969-146.94v167.93c-5.7969 0-10.496 4.6992-10.496 10.496v20.992h-20.992v-20.992c0-2.7812-1.1055-5.4531-3.0742-7.4219-1.9688-1.9648-4.6406-3.0742-7.4219-3.0742v-167.93c2.7812 0 5.4531-1.1055 7.4219-3.0742s3.0742-4.6406 3.0742-7.4219v-20.992h20.992v20.992c0 2.7812 1.1055 5.4531 3.0742 7.4219s4.6367 3.0742 7.4219 3.0742zm-62.977 0v125.95h-20.992v-125.95zm10.496-31.488v10.496h-83.969v-10.496zm-52.48 31.488v125.95h-20.992v-125.95zm-20.992 146.94h62.977v20.992h-62.977zm-10.496 41.984h83.969v10.496h-83.969zm419.84 94.465h-461.82v-20.992h10.496c2.7852 0 5.4531-1.1055 7.4219-3.0742s3.0742-4.6367 3.0742-7.4219v-31.488h419.84v20.992h-388.35v20.992h409.34z"/>
 </g>
 <path d="m232.06 211.07h20.992v20.992h-20.992z"/>
 <g clip-path="url(#c)">
  <path d="m630.91 358.02c0 25.051-9.9531 49.078-27.668 66.797-17.715 17.715-41.742 27.668-66.797 27.668-25.051 0-49.078-9.9531-66.793-27.668-17.719-17.719-27.668-41.746-27.668-66.797 0-25.055 9.9492-49.082 27.668-66.797 17.715-17.715 41.742-27.668 66.793-27.668h52.48c2.7852 0 5.4531-1.1055 7.4219-3.0742s3.0742-4.6406 3.0742-7.4219v-20.992h-20.992v10.496h-41.984c-30.621 0-59.984 12.164-81.637 33.816s-33.816 51.02-33.816 81.641 12.164 59.988 33.816 81.641c21.652 21.648 51.016 33.816 81.637 33.816 30.621 0 59.988-12.168 81.641-33.816 21.652-21.652 33.816-51.02 33.816-81.641v-167.94h-20.992z"/>
 </g>
 <path d="m578.43 337.02v-10.496c0-5.5703-2.2109-10.906-6.1484-14.844-3.9336-3.9375-9.2734-6.1484-14.844-6.1484h-10.496v-20.992h-20.992v20.992h-10.496c-5.5664 0-10.906 2.2109-14.844 6.1484-3.9336 3.9375-6.1484 9.2734-6.1484 14.844v20.992c0 5.5664 2.2148 10.906 6.1484 14.844 3.9375 3.9336 9.2773 6.1484 14.844 6.1484h41.984v20.992h-41.984v-10.496h-20.992v10.496c0 5.5664 2.2148 10.906 6.1484 14.844 3.9375 3.9336 9.2773 6.1484 14.844 6.1484h10.496v20.992h20.992v-20.992h10.496c5.5703 0 10.91-2.2148 14.844-6.1484 3.9375-3.9375 6.1484-9.2773 6.1484-14.844v-20.992c0-5.5703-2.2109-10.906-6.1484-14.844-3.9336-3.9375-9.2734-6.1484-14.844-6.1484h-41.984v-20.992h41.984v10.496z"/>
 <g clip-path="url(#b)">
  <path d="m630.91 148.09h20.992v20.992h-20.992z"/>
 </g>
 <g clip-path="url(#a)">
  <path d="m578.43 148.09h20.992v20.992h-20.992z"/>
 </g>
 <path d="m578.43 190.08h20.992v20.992h-20.992z"/>
</svg>