<?xml version="1.0" encoding="UTF-8"?>
<!-- The Best Svg Icon site in the world: iconSvg.co, Visit us! https://iconsvg.co -->
<svg fill="#000000" width="800px" height="800px" version="1.1" viewBox="144 144 512 512" xmlns="http://www.w3.org/2000/svg">
 <g>
  <path d="m263.26 331.75h9.1328c2.1484 39.758 21.52 76.609 53.055 100.92 3.3516 1.5781 7.3438 0.60938 9.5977-2.3281 2.2578-2.9375 2.1602-7.0469-0.23047-9.875-27.672-21.434-44.746-53.773-46.836-88.715h8.582-0.003906c4.3477 0 7.875-3.5273 7.875-7.875s-3.5273-7.8711-7.875-7.8711h-8.6602 0.003906c1.9805-29.52 14.633-57.312 35.59-78.195 20.957-20.887 48.789-33.438 78.316-35.32v8.582c0 4.3477 3.5234 7.8711 7.8711 7.8711 4.3477 0 7.875-3.5234 7.875-7.8711v-8.582c29.504 1.9844 57.285 14.621 78.168 35.562 20.883 20.938 33.445 48.754 35.344 78.27h-8.6602 0.003906c-4.3477 0-7.875 3.5234-7.875 7.8711s3.5273 7.8711 7.875 7.8711h8.6602-0.003906c-1.9805 29.508-14.617 57.289-35.559 78.172-20.941 20.883-48.758 33.441-78.27 35.344v-8.582c0-4.3477-3.5234-7.8711-7.8711-7.8711-4.3477 0-7.8711 3.5234-7.8711 7.8711v8.6602c-4.8828-0.27344-9.7461-0.82422-14.566-1.6523-4.1484-0.67969-8.1016 2.0234-8.9727 6.1406-0.67188 4.1992 2.1172 8.1758 6.2969 8.9727 5.7305 0.98828 11.512 1.6172 17.32 1.8906v9.2891c0 4.3477 3.5234 7.8711 7.8711 7.8711 4.3477 0 7.8711-3.5234 7.8711-7.8711v-9.2891c33.629-1.957 65.367-16.207 89.172-40.039 23.805-23.836 38.016-55.59 39.93-89.219h9.3672c4.3477 0 7.8711-3.5273 7.8711-7.875s-3.5234-7.8711-7.8711-7.8711h-9.3672c-2.0977-33.512-16.402-65.098-40.203-88.781-23.801-23.688-55.453-37.832-88.977-39.77v-9.6836c0-4.3477-3.5234-7.8711-7.8711-7.8711-4.3477 0-7.8711 3.5234-7.8711 7.8711v9.6836c-33.539 1.9844-65.188 16.195-88.949 39.941-23.762 23.75-37.992 55.387-39.996 88.926h-9.2891c-4.3477 0-7.8711 3.5234-7.8711 7.8711s3.5234 7.8711 7.8711 7.8711z"/>
  <path d="m366.54 491.23v-114.07l125.95-48.02c2.9414-1.1719 4.8984-3.9922 4.957-7.1602-0.027344-3.1992-1.9883-6.0625-4.957-7.2422l-125.95-47.23v-8.5039c0.53125-2.3359-0.027344-4.7852-1.5234-6.6602-1.4922-1.8711-3.7578-2.9609-6.1523-2.9609-2.3945 0-4.6602 1.0898-6.1523 2.9609-1.4961 1.875-2.0547 4.3242-1.5234 6.6602v232.23-0.003906c-33.422 1.9648-64.836 16.617-87.82 40.965-22.984 24.344-35.805 56.547-35.848 90.027 0 2.0859 0.82812 4.0898 2.3047 5.5664 1.4766 1.4766 3.4805 2.3047 5.5664 2.3047h247.1c2.0898 0 4.0898-0.82812 5.5664-2.3047 1.4766-1.4766 2.3086-3.4805 2.3086-5.5664-0.046875-33.508-12.891-65.73-35.91-90.078-23.016-24.352-54.469-38.984-87.918-40.914zm101.47-169.17-101.23 38.57v-76.672zm-224.82 292.45c2.7227-39.434 25.348-74.766 60.023-93.738 34.68-18.973 76.633-18.973 111.31 0 34.676 18.973 57.301 54.305 60.023 93.738z"/>
  <path d="m522.64 502.34c-18.852-0.089844-37.449 4.3359-54.238 12.91-2.9297 2.3164-3.8281 6.3711-2.1484 9.7109 1.6758 3.3359 5.4688 5.0352 9.0742 4.0625 14.629-7.4609 30.816-11.348 47.234-11.336 26.41 0.003906 51.844 9.9805 71.215 27.934 19.367 17.953 31.242 42.559 33.246 68.895h-115.4c-4.3477 0-7.875 3.5234-7.875 7.8711 0 4.3477 3.5273 7.8711 7.875 7.8711h123.35c2.0898 0 4.0938-0.82812 5.5664-2.3047 1.4766-1.4766 2.3086-3.4766 2.3086-5.5664-0.042968-31.852-12.727-62.387-35.266-84.895-22.535-22.512-53.09-35.152-84.941-35.152z"/>
  <path d="m207.92 614.51h-34.797c1.6562-15.488 8.3164-30.016 18.969-41.379 10.656-11.367 24.723-18.949 40.074-21.598 4.1133-0.83203 6.8477-4.7461 6.2188-8.8945-0.79688-4.1445-4.7227-6.9219-8.8945-6.2969-20.199 3.5664-38.5 14.125-51.699 29.824-13.195 15.703-20.449 35.547-20.488 56.059 0 2.0859 0.82812 4.0898 2.3047 5.5664 1.4766 1.4766 3.4805 2.3047 5.5664 2.3047h42.746c4.3477 0 7.8711-3.5234 7.8711-7.8711 0-4.3477-3.5234-7.8711-7.8711-7.8711z"/>
 </g>
</svg>