<?xml version="1.0" encoding="UTF-8"?>
<!-- The Best Svg Icon site in the world: iconSvg.co, Visit us! https://iconsvg.co -->
<svg fill="#000000" width="800px" height="800px" version="1.1" viewBox="144 144 512 512" xmlns="http://www.w3.org/2000/svg">
 <g>
  <path d="m426.75 593.38c-0.29297 9.5312-5.5469 18.215-13.852 22.902-8.3008 4.6875-18.449 4.6953-26.762 0.019531-8.3125-4.6719-13.578-13.348-13.891-22.875-0.011719-1.2344 0.46484-2.4219 1.3281-3.3008 0.84375-0.89062 2.0234-1.3906 3.2539-1.3711h45.344c1.2266-0.019531 2.4062 0.48047 3.25 1.3711 0.85547 0.86719 1.332 2.0352 1.3281 3.2539z"/>
  <path d="m433.01 597.89h-67.035c-4.1289-0.003906-8.0898-1.6445-11.016-4.5625-2.9219-2.9219-4.5703-6.8789-4.5781-11.012v-45.031c0-1.4141 0.65234-2.7461 1.7695-3.6133 1.1172-0.87109 2.5703-1.1719 3.9414-0.82422 1.7969 0.44531 3.6445 0.66797 5.4961 0.66016h76.855c1.5352 0.007813 3.0742-0.14453 4.5781-0.45703 1.3555-0.30078 2.7695 0.035157 3.8438 0.91406 1.0742 0.87109 1.6992 2.1797 1.6992 3.5586v44.762c0.007813 4.1328-1.625 8.0977-4.543 11.027-2.918 2.9258-6.8789 4.5742-11.012 4.5781zm-73.469-55.281v39.676c0.015625 3.543 2.8906 6.4062 6.4336 6.4141h67.035c3.543 0 6.4141-2.8711 6.4141-6.4141v-39.629h-0.96094-76.891c-0.68359 0.011719-1.3633-0.011719-2.0312-0.046875z"/>
  <path d="m461.4 559.65h-123.86c-2.5273 0-4.5781-2.0508-4.5781-4.582s2.0508-4.5781 4.5781-4.5781h123.86c2.5312 0 4.582 2.0469 4.582 4.5781s-2.0508 4.582-4.582 4.582z"/>
  <path d="m461.4 578.77h-123.86c-2.5273 0-4.5781-2.0508-4.5781-4.582 0-2.5273 2.0508-4.5781 4.5781-4.5781h123.86c2.5312 0 4.582 2.0508 4.582 4.5781 0 2.5312-2.0508 4.582-4.582 4.582z"/>
  <path d="m400 222.2c-2.5312 0-4.582-2.0508-4.582-4.5781v-32.891c0-2.5312 2.0508-4.5781 4.582-4.5781 2.5273 0 4.5781 2.0469 4.5781 4.5781v32.895c-0.003906 2.5273-2.0508 4.5742-4.5781 4.5742z"/>
  <path d="m400 222.2c-2.5312 0-4.582-2.0508-4.582-4.5781v-32.891c0-2.5312 2.0508-4.5781 4.582-4.5781 2.5273 0 4.5781 2.0469 4.5781 4.5781v32.895c-0.003906 2.5273-2.0508 4.5742-4.5781 4.5742z"/>
  <path d="m322.79 242.9c-1.6406 0-3.1523-0.87109-3.9727-2.2891l-16.441-28.488c-0.61719-1.0547-0.78906-2.3086-0.47656-3.4883 0.3125-1.1797 1.0781-2.1875 2.1367-2.7969 1.0547-0.60938 2.3125-0.77344 3.4883-0.45312 1.1797 0.32031 2.1797 1.0977 2.7852 2.1562l16.441 28.488c0.81641 1.418 0.81641 3.1602 0 4.5781s-2.3281 2.2891-3.9609 2.293z"/>
  <path d="m266.26 299.41c-0.80469 0-1.5938-0.21094-2.293-0.61328l-28.484-16.445h0.003906c-1.0625-0.60547-1.8398-1.6055-2.1602-2.7812-0.31641-1.1797-0.15625-2.4336 0.45703-3.4922 0.60938-1.0547 1.6133-1.8242 2.793-2.1367s2.4375-0.14062 3.4883 0.47656l28.484 16.445c1.793 1.0391 2.668 3.1523 2.1328 5.1523-0.53516 2.0039-2.3516 3.3945-4.4219 3.3945z"/>
  <path d="m245.57 376.64h-32.898c-2.5273 0-4.5781-2.0508-4.5781-4.582 0-2.5273 2.0508-4.5781 4.5781-4.5781h32.895c2.5312 0 4.582 2.0508 4.582 4.5781 0 2.5312-2.0508 4.582-4.582 4.582z"/>
  <path d="m587.32 376.64h-32.898c-2.5312 0-4.582-2.0508-4.582-4.582 0-2.5273 2.0508-4.5781 4.582-4.5781h32.898c2.5312 0 4.5781 2.0508 4.5781 4.5781 0 2.5312-2.0469 4.582-4.5781 4.582z"/>
  <path d="m533.74 299.41c-2.0742 0-3.8867-1.3906-4.4258-3.3945-0.53516-2 0.33984-4.1133 2.1328-5.1523l28.48-16.445c1.0508-0.61719 2.3086-0.78906 3.4883-0.47656 1.1797 0.3125 2.1836 1.082 2.793 2.1367 0.61328 1.0586 0.77344 2.3125 0.45703 3.4922-0.32031 1.1758-1.0977 2.1758-2.1562 2.7812l-28.48 16.445c-0.69531 0.40234-1.4844 0.61328-2.2891 0.61328z"/>
  <path d="m477.21 242.9c-1.6367-0.003906-3.1484-0.875-3.9648-2.293s-0.81641-3.1602 0-4.5781l16.441-28.488h0.003906c1.2656-2.1914 4.0664-2.9414 6.2578-1.6797 2.1914 1.2656 2.9414 4.0664 1.6797 6.2617l-16.449 28.488c-0.81641 1.418-2.332 2.2891-3.9688 2.2891z"/>
  <path d="m396.36 349.43c-2.5156 0.35938-4.8984 1.3398-6.9414 2.8516-1.8281 1.3672-2.875 3.5391-2.8047 5.8164-0.11328 2.0664 0.85547 4.043 2.5547 5.2188 2.2031 1.4375 4.6328 2.5 7.1836 3.1445z"/>
  <path d="m414.09 386.09c0.039062-1.8945-0.99609-3.6445-2.668-4.5273-2.4844-1.3672-5.1289-2.418-7.875-3.1289v16.656c7.0938-0.73047 10.543-3.6797 10.543-9z"/>
  <path d="m400 316.34c-14.82 0-29.035 5.8867-39.512 16.367-10.48 10.477-16.367 24.691-16.367 39.508 0 14.82 5.8867 29.035 16.367 39.512 10.477 10.48 24.691 16.367 39.512 16.367 14.816 0 29.031-5.8867 39.508-16.367 10.48-10.477 16.367-24.691 16.367-39.512-0.011719-14.816-5.9023-29.02-16.379-39.496-10.477-10.477-24.68-16.367-39.496-16.379zm21.184 79.195h-0.003906c-1.8711 2.7461-4.457 4.9336-7.4766 6.3242-3.1875 1.4961-6.6289 2.3867-10.141 2.6172v5.3789c0.027344 0.94922-0.33984 1.8672-1.0156 2.5312-1.4453 1.332-3.6602 1.3594-5.1367 0.066406-0.69531-0.67969-1.0703-1.625-1.0312-2.5977v-5.3789c-5.9062-0.43359-11.703-1.8242-17.164-4.1211-0.875-0.36719-1.6211-0.98047-2.1484-1.7656-1.2852-1.8008-1.125-4.2578 0.38281-5.8789 0.83594-0.91016 2.0273-1.4102 3.2617-1.3711 0.70703 0.003906 1.4062 0.16016 2.0469 0.45703 4.3086 1.9141 8.918 3.0547 13.621 3.375v-18.566c-3.2461-0.85156-6.4258-1.9492-9.5078-3.2852-2.7773-1.2383-5.2227-3.125-7.1289-5.4961-2.0078-2.6094-3.043-5.8359-2.9219-9.125-0.023437-3.1172 0.79297-6.1836 2.3555-8.8789 1.6953-2.8281 4.1133-5.1562 7.0039-6.7422 3.1523-1.7266 6.6211-2.7852 10.199-3.1094v-5.3047c-0.035156-1.4688 0.83203-2.8047 2.1875-3.375 1.3516-0.56641 2.9141-0.25 3.9375 0.80078 0.69531 0.67578 1.0781 1.6055 1.0586 2.5742v5.1797c5.0156 0.21094 9.9688 1.1953 14.684 2.918 1.8984 0.57812 3.1562 2.3789 3.0469 4.3594 0 1.1562-0.42188 2.2734-1.1875 3.1367-0.80078 0.96094-1.9961 1.5039-3.2461 1.4688-0.60547-0.03125-1.1953-0.17188-1.7461-0.41797-3.7266-1.2891-7.6133-2.0469-11.551-2.2539v19.191c3.3867 0.78125 6.707 1.8281 9.9297 3.1289 2.8633 1.1914 5.3828 3.082 7.3281 5.4961 2.1055 2.7969 3.1719 6.2422 3.0117 9.7422 0.019531 3.1719-0.91016 6.2773-2.668 8.9219z"/>
  <path d="m400 292.37c-21.184-0.007813-41.5 8.4023-56.48 23.375-14.98 14.977-23.398 35.289-23.402 56.469-0.003907 21.18 8.4062 41.496 23.383 56.477 14.977 14.977 35.289 23.395 56.473 23.395 21.18 0.003907 41.492-8.4102 56.473-23.391 14.977-14.977 23.391-35.289 23.391-56.473-0.019532-21.168-8.4375-41.465-23.406-56.438-14.965-14.969-35.262-23.391-56.43-23.414zm0 144.89c-17.25 0-33.793-6.8516-45.988-19.047-12.199-12.199-19.051-28.742-19.051-45.988 0-17.25 6.8516-33.793 19.051-45.988 12.195-12.199 28.738-19.051 45.988-19.051 17.246 0 33.789 6.8516 45.988 19.051 12.195 12.195 19.047 28.738 19.047 45.988-0.015625 17.242-6.8711 33.777-19.066 45.969-12.191 12.191-28.727 19.051-45.969 19.062z"/>
  <path d="m489.17 278.91c-32.066-30.223-77.25-42.16-120.06-31.727-42.812 10.434-77.434 41.824-92.004 83.41-14.566 41.586-7.1016 87.719 19.84 122.59 12.355 16.34 22.176 34.453 29.129 53.723l5.3594 14.793c3.7266 9.9453 12.098 17.426 22.398 20.016 2.5273 0.64453 5.1289 0.96875 7.7383 0.96094h76.902c6.5391-0.03125 12.914-2.0547 18.273-5.8047 5.3594-3.7461 9.4492-9.0391 11.727-15.172l5.3125-14.152c2.4258-6.6875 5.1289-13.191 8.0625-19.328h-0.003906c5.7422-12.371 12.824-24.074 21.113-34.898 17.738-22.734 27.316-50.77 27.207-79.602-0.070312-35.891-14.895-70.172-40.992-94.809zm-89.172 182.33c-23.613 0.007813-46.258-9.3672-62.957-26.059-16.699-16.691-26.082-39.332-26.086-62.945-0.003906-23.609 9.3711-46.254 26.066-62.953 16.691-16.695 39.336-26.078 62.945-26.078 23.609-0.003906 46.254 9.375 62.949 26.07 16.695 16.691 26.078 39.336 26.078 62.945-0.023438 23.602-9.4062 46.227-26.09 62.914-16.688 16.691-39.309 26.078-62.906 26.105z"/>
 </g>
</svg>