<?xml version="1.0" encoding="UTF-8"?>
<!-- The Best Svg Icon site in the world: iconSvg.co, Visit us! https://iconsvg.co -->
<svg fill="#000000" width="800px" height="800px" version="1.1" viewBox="144 144 512 512" xmlns="http://www.w3.org/2000/svg">
 <g>
  <path d="m495 164.05c-3.957 0.75391-7.3594 3.3789-9.1016 7.0547-4.3242 9.1328-9.6758 17.738-15.461 26.039-19.766-15.207-44.031-23.07-69.137-22.082-28.633 1.0391-55.145 13.152-74.648 34.121-8.543 9.1953-15.367 19.723-20.258 31.27-2.2578 5.3438 0.23047 11.504 5.5742 13.762 1.332 0.56641 2.7188 0.82812 4.0938 0.82812 4.0938 0 7.9766-2.4023 9.668-6.4023 3.9375-9.3008 9.4062-17.75 16.301-25.148 30.469-32.746 80.66-36.434 115.49-9.8047-7.6406 8.668-15.828 16.836-24.93 23.922-5.5312 4.3125-6.5391 12.324-2.2344 17.863 2.4023 3.0664 6.1523 4.9023 10.043 4.9023 0.37891 0 1.0078-0.03125 1.375-0.074219l71.363-7.7891c2.9062-0.31641 5.5508-1.8359 7.293-4.1758 1.7422-2.3398 2.4141-5.3203 1.8906-8.1992l-12.426-65.914c-1.2188-6.6641-8.1562-11.422-14.895-10.172z"/>
  <path d="m488.01 547.04c-5.375-2.2578-11.504 0.24219-13.762 5.5742-3.9141 9.2891-9.4062 17.727-16.301 25.148-30.449 32.758-80.641 36.422-115.48 9.8047 7.6094-8.668 15.797-16.816 24.875-23.879 2.707-2.0664 4.4297-5.082 4.8594-8.4688 0.42969-3.3906-0.48438-6.75-2.582-9.4258-2.7305-3.4844-6.9062-5.3125-11.418-4.8164l-71.363 7.7656c-2.9062 0.31641-5.5508 1.8477-7.293 4.1758-1.7422 2.332-2.4141 5.3203-1.8789 8.1992l12.426 65.926c0.99609 5.3125 5.8555 8.8594 11.094 8.5352 1.125 0.38672 2.2773 0.57812 3.4102 0.57812 3.9375 0 7.6953-2.2148 9.4883-6.0039 4.3242-9.1211 9.668-17.719 15.441-26.02 18.695 14.391 41.406 22.137 65.191 22.137 1.3242 0 2.6445-0.019531 3.9688-0.074219 28.645-1.0391 55.145-13.152 74.637-34.133 8.543-9.2148 15.375-19.734 20.258-31.27 2.2539-5.3281-0.22266-11.5-5.5742-13.754z"/>
  <path d="m568.47 315v30.375c-5.1211 1.0078-10.371 0.75391-15.418-0.88281-7.8945-2.5391-14.305-7.9961-18.086-15.367-3.2031-6.2539-4.0195-13.234-2.6875-20.016h30.301c3.2461 0.003906 5.8906 2.6484 5.8906 5.8906z"/>
  <path d="m237.41 309.11h30.363c1.0078 5.1211 0.75391 10.379-0.87109 15.418-2.5391 7.8945-8.0078 14.305-15.375 18.086-6.2539 3.2031-13.227 4.0195-20.004 2.6875v-30.293c0-3.2539 2.6445-5.8984 5.8867-5.8984z"/>
  <path d="m231.53 486.25v-30.375c5.1211-1.0078 10.391-0.74609 15.418 0.87109 7.8828 2.5312 14.297 8.0078 18.074 15.375 3.2031 6.2656 4.0195 13.234 2.6875 20.016h-30.293c-3.2422 0-5.8867-2.6445-5.8867-5.8867z"/>
  <path d="m562.58 492.13h-30.387c-1.0078-5.1211-0.73437-10.379 0.88281-15.441 2.5391-7.8711 8.0195-14.273 15.375-18.062 6.2539-3.1914 13.246-4.0312 20.004-2.6992v30.293c0.011719 3.2656-2.6328 5.9102-5.875 5.9102z"/>
  <path d="m562.58 356.5c-4.2812 0-8.5859-0.66016-12.754-2.0156-10.559-3.4023-19.145-10.715-24.191-20.57-3.9766-7.7578-5.2891-16.363-4.0625-24.801l-243.11-0.003907c0.90234 6.2344 0.39844 12.562-1.5625 18.652-3.4023 10.539-10.715 19.125-20.57 24.184-5.9414 3.043-12.375 4.5859-18.863 4.5859-1.9727 0-3.957-0.1875-5.9297-0.47266v89.133c6.2227-0.90234 12.555-0.41016 18.629 1.5625 10.559 3.4023 19.145 10.715 24.191 20.582 3.9688 7.7578 5.2812 16.352 4.0508 24.793h243.13c-0.90234-6.2344-0.41016-12.562 1.5742-18.652 3.3789-10.539 10.707-19.125 20.562-24.184 7.7656-3.9688 16.383-5.2812 24.781-4.0508v-89.207c-1.9414 0.29688-3.9258 0.46484-5.8789 0.46484zm-162.57 110.83c-36.789 0-66.703-29.934-66.703-66.703 0-36.777 29.926-66.703 66.703-66.703 36.777 0 66.691 29.934 66.691 66.703 0 36.766-29.922 66.703-66.691 66.703z"/>
  <path d="m343.79 400.63c0-29.684 23.219-53.836 52.406-55.816-1.0898 0.96484-1.8047 2.332-1.8047 3.8945v6.2539c-1.9844 0.47266-3.957 1.1016-5.8555 2.0781-12.68 6.5078-17.695 22.125-11.188 34.793 4.3672 8.5117 13.004 13.887 22.555 14.043 5.6797 0.10547 10.801 3.2852 13.383 8.332 3.8711 7.5352 0.90234 16.816-6.6445 20.676-3.6523 1.8984-7.7969 2.2031-11.703 0.96484-3.9062-1.2578-7.0938-3.9688-8.9648-7.6211-1.3242-2.582-4.4805-3.5703-7.0742-2.2773-2.5703 1.332-3.6016 4.4922-2.2773 7.0742 3.1602 6.1289 8.5234 10.695 15.094 12.805 0.88281 0.27344 1.7734 0.45312 2.6641 0.65234v6.0781c0 1.5625 0.72266 2.9375 1.8164 3.9062-29.191-2.0117-52.406-26.133-52.406-55.836z"/>
  <path d="m402.95 456.55c1.1641-0.97656 1.9531-2.3711 1.9531-4v-6.0859c2.2578-0.47266 4.4727-1.1641 6.5586-2.2461 12.68-6.5078 17.695-22.105 11.188-34.785-4.3672-8.5117-12.992-13.875-22.555-14.043-5.668-0.09375-10.801-3.2852-13.383-8.3438-3.8711-7.5273-0.89063-16.793 6.6445-20.668 7.5273-3.8516 16.805-0.88281 20.676 6.6562 1.3125 2.5703 4.5039 3.5781 7.0625 2.2656 2.5703-1.3125 3.6094-4.4922 2.2773-7.0625-3.8086-7.4414-10.801-12.145-18.461-13.531v-5.9922c0-1.6172-0.77734-3.0117-1.9414-3.9766 29.59 1.5625 53.246 25.926 53.246 55.902-0.011719 29.977-23.656 54.324-53.266 55.91z"/>
 </g>
</svg>