<?xml version="1.0" encoding="UTF-8"?>
<!-- The Best Svg Icon site in the world: iconSvg.co, Visit us! https://iconsvg.co -->
<svg fill="#000000" width="800px" height="800px" version="1.1" viewBox="144 144 512 512" xmlns="http://www.w3.org/2000/svg">
 <path d="m400 179.58c-58.461 0-114.52 23.223-155.86 64.559s-64.559 97.398-64.559 155.86c0 58.457 23.223 114.52 64.559 155.86 41.336 41.336 97.398 64.559 155.86 64.559 58.457 0 114.52-23.223 155.86-64.559 41.336-41.336 64.559-97.398 64.559-155.86 0-38.691-10.184-76.703-29.527-110.21-19.348-33.508-47.172-61.332-80.68-80.676-33.508-19.348-71.516-29.531-110.21-29.531zm0 409.34c-50.109 0-98.164-19.902-133.59-55.336-35.43-35.43-55.336-83.484-55.336-133.59 0-50.109 19.906-98.164 55.336-133.59s83.484-55.336 133.59-55.336c50.105 0 98.16 19.906 133.59 55.336 35.434 35.43 55.336 83.484 55.336 133.59 0 50.105-19.902 98.16-55.336 133.59-35.43 35.434-83.484 55.336-133.59 55.336zm0-346.37c-41.758 0-81.805 16.586-111.33 46.113-29.527 29.523-46.113 69.57-46.113 111.33 0 41.754 16.586 81.801 46.113 111.32 29.523 29.527 69.57 46.113 111.33 46.113 41.754 0 81.801-16.586 111.32-46.113 29.527-29.523 46.113-69.57 46.113-111.32 0-41.758-16.586-81.805-46.113-111.33-29.523-29.527-69.57-46.113-111.32-46.113zm0 283.39v-0.003906c-33.406 0-65.441-13.27-89.062-36.891-23.621-23.617-36.891-55.656-36.891-89.059 0-33.406 13.27-65.441 36.891-89.062s55.656-36.891 89.062-36.891c33.402 0 65.441 13.27 89.059 36.891 23.621 23.621 36.891 55.656 36.891 89.062 0 33.402-13.27 65.441-36.891 89.059-23.617 23.621-55.656 36.891-89.059 36.891zm-15.746-157.44c0 4.1758 1.6602 8.1797 4.6133 11.133 2.9531 2.9531 6.957 4.6094 11.133 4.6094 14.887 0.11719 28.848 7.2461 37.672 19.234 8.8242 11.992 11.48 27.441 7.1641 41.691-4.3164 14.246-15.098 25.625-29.094 30.707v2.832c0 5.625-3 10.824-7.8711 13.633-4.8711 2.8125-10.875 2.8125-15.746 0-4.8711-2.8086-7.8711-8.0078-7.8711-13.633v-2.832c-9.1875-3.25-17.145-9.2617-22.781-17.211-5.6367-7.9453-8.6797-17.445-8.707-27.188 0-5.625 3-10.824 7.8711-13.637 4.8711-2.8125 10.875-2.8125 15.746 0 4.8711 2.8125 7.8711 8.0117 7.8711 13.637 0 4.1758 1.6602 8.1797 4.6133 11.133 2.9531 2.9492 6.957 4.6094 11.133 4.6094s8.1797-1.6602 11.133-4.6094c2.9492-2.9531 4.6094-6.957 4.6094-11.133s-1.6602-8.1836-4.6094-11.133c-2.9531-2.9531-6.957-4.6133-11.133-4.6133-14.891-0.11328-28.852-7.2422-37.676-19.234-8.8242-11.992-11.48-27.441-7.1641-41.688 4.3164-14.25 15.098-25.629 29.094-30.707v-2.8359c0-5.625 3-10.82 7.8711-13.633s10.875-2.8125 15.746 0 7.8711 8.0078 7.8711 13.633v2.8359c9.1875 3.2461 17.145 9.2578 22.781 17.207 5.6406 7.9492 8.6797 17.445 8.707 27.191 0 5.625-3 10.82-7.8711 13.633s-10.875 2.8125-15.746 0c-4.8711-2.8125-7.8711-8.0078-7.8711-13.633s-3-10.824-7.8711-13.637-10.875-2.8125-15.746 0-7.8711 8.0117-7.8711 13.637z"/>
</svg>