<?xml version="1.0" encoding="UTF-8"?>
<!-- The Best Svg Icon site in the world: iconSvg.co, Visit us! https://iconsvg.co -->
<svg fill="#000000" width="800px" height="800px" version="1.1" viewBox="144 144 512 512" xmlns="http://www.w3.org/2000/svg">
 <g>
  <path d="m401.29 596.48c-98.844 0-180.5-87.129-220.38-139.07-1.543-2.0078-1.168-4.8828 0.83984-6.4258 2.0039-1.5391 4.8828-1.1641 6.4219 0.84375 38.855 50.613 118.2 135.5 213.12 135.5 93.434 0 172.03-82.875 210.56-132.28h0.003906c1.5547-1.9961 4.4336-2.3516 6.4297-0.79297 1.9922 1.5547 2.3477 4.4375 0.79297 6.4297-39.559 50.734-120.45 135.8-217.79 135.8z"/>
  <path d="m184.53 349.95c-1.7422-0.003906-3.332-0.99609-4.1016-2.5586-0.76953-1.5625-0.58594-3.4297 0.47656-4.8125 39.883-51.941 121.54-139.07 220.38-139.07 97.332 0 178.23 85.09 217.78 135.8h0.003906c1.5547 1.9961 1.1992 4.875-0.79297 6.4297-1.9961 1.5586-4.875 1.2031-6.4297-0.79297-38.531-49.422-117.12-132.28-210.56-132.28-94.902 0-174.26 84.883-213.12 135.49-0.86719 1.1289-2.2109 1.7891-3.6367 1.7891z"/>
  <path d="m401.29 532.04c-118.77 0-213.05-124.02-217.01-129.3-1.2227-1.6289-1.2227-3.8672 0-5.4961 3.957-5.2773 98.234-129.3 217-129.3s213.01 124.02 216.96 129.3c1.2188 1.6289 1.2188 3.8672 0 5.4961-3.9531 5.2773-98.25 129.3-216.96 129.3zm-207.52-132.04c14.719 18.418 102.9 122.88 207.52 122.88 104.62 0 192.76-104.47 207.48-122.88-14.719-18.418-102.89-122.88-207.48-122.88-104.58-0.003907-192.8 104.46-207.52 122.88z"/>
  <path d="m426.21 363.86c0.007813 6.168 5.0039 11.168 11.176 11.172 2.5234 0.019532 4.9727-0.85156 6.9141-2.4648 2.6719-2.0977 4.2266-5.3086 4.2109-8.7031-0.007812-6.1445-4.9844-11.121-11.125-11.129-3.3633-0.023437-6.5469 1.4922-8.6445 4.1211-1.625 1.9727-2.5195 4.4453-2.5312 7.0039z"/>
  <path d="m444.77 382.77c-0.80859 0.30469-1.6367 0.55859-2.4805 0.75781-0.375 0.089844-0.73828 0.21875-1.1172 0.29297v0.003906c-1.2461 0.23828-2.5156 0.36328-3.7852 0.36719-5.3945-0.003906-10.562-2.1484-14.375-5.9609s-5.957-8.9805-5.9609-14.371c0-1.2461 0.12109-2.4883 0.35547-3.7109 0.078125-0.39844 0.21094-0.77344 0.30859-1.1641 0.19922-0.82812 0.45312-1.6406 0.75781-2.4375 0.058594-0.15625 0.082031-0.32422 0.14844-0.45703-12.617-4.9961-26.773-4.3242-38.867 1.8398-12.09 6.1641-20.945 17.227-24.316 30.375-3.3672 13.145-0.92578 27.105 6.7109 38.324 7.6328 11.219 19.723 18.617 33.188 20.309 13.465 1.6914 27.008-2.4883 37.18-11.473 10.172-8.9805 15.992-21.902 15.977-35.477 0.019531-5.9297-1.0977-11.809-3.2969-17.316-0.125 0.019531-0.28516 0.042969-0.42578 0.097657z"/>
  <path d="m401.25 302.36c-25.902 0-50.738 10.289-69.055 28.605-18.312 18.316-28.598 43.156-28.594 69.059 0.003906 25.898 10.297 50.738 28.617 69.047 18.32 18.312 43.16 28.594 69.062 28.586 25.898-0.007812 50.734-10.309 69.043-28.629 18.309-18.32 28.586-43.164 28.574-69.066-0.03125-25.883-10.332-50.699-28.637-68.996-18.309-18.301-43.129-28.586-69.012-28.605zm56.414 97.594c0.11719 16.477-6.9258 32.191-19.305 43.066-12.375 10.879-28.867 15.844-45.191 13.609s-30.871-11.449-39.871-25.25c-9-13.801-11.562-30.832-7.0195-46.672 4.543-15.84 15.738-28.922 30.684-35.859 14.945-6.9375 32.164-7.043 47.195-0.28906 3.6562-3.2109 8.3555-4.9844 13.223-4.9883 5.3789 0.007813 10.535 2.1484 14.336 5.9531 3.8047 3.8008 5.9414 8.9609 5.9492 14.34-0.007813 4.8633-1.7852 9.5547-5 13.207 3.2812 7.1836 4.9883 14.984 5 22.883z"/>
 </g>
</svg>