<?xml version="1.0" encoding="UTF-8"?>
<!-- The Best Svg Icon site in the world: iconSvg.co, Visit us! https://iconsvg.co -->
<svg width="800px" height="800px" version="1.1" viewBox="144 144 512 512" xmlns="http://www.w3.org/2000/svg">
 <defs>
  <clipPath id="b">
   <path d="m148.09 567h503.81v84.902h-503.81z"/>
  </clipPath>
  <clipPath id="a">
   <path d="m263 148.09h274v346.91h-274z"/>
  </clipPath>
 </defs>
 <g clip-path="url(#b)">
  <path d="m641.41 567.93h-178.43c-3.9805 0-7.6172 2.2461-9.3945 5.8047l-7.5898 15.188h-91.988l-7.5352-15.188c-1.7852-3.5742-5.4492-5.8242-9.4453-5.8047h-178.43c-5.7969 0-10.496 4.6992-10.496 10.496v52.48c0 5.5703 2.2109 10.906 6.1484 14.844s9.2773 6.1484 14.844 6.1484h461.82c5.5703 0 10.906-2.2109 14.844-6.1484s6.1484-9.2734 6.1484-14.844v-52.48c0-2.7812-1.1055-5.4531-3.0742-7.4219s-4.6367-3.0742-7.4219-3.0742zm-10.496 62.977h-461.82v-41.984h161.45l7.5898 15.188c1.7773 3.5586 5.4141 5.8086 9.3945 5.8047h104.96c3.9766 0.003906 7.6133-2.2461 9.3906-5.8047l7.5898-15.188h161.45z"/>
 </g>
 <path d="m190.08 284.54c0-5.7969 4.6992-10.496 10.496-10.496h31.488v-20.992h-31.488c-8.3516 0-16.359 3.3164-22.266 9.2227s-9.2227 13.914-9.2227 22.266v262.4h20.992z"/>
 <path d="m609.92 284.54v262.4h20.992v-262.4c0-8.3516-3.3164-16.359-9.2227-22.266-5.9023-5.9062-13.914-9.2227-22.266-9.2227h-31.488v20.992h31.488c2.7852 0 5.4531 1.1055 7.4219 3.0742s3.0742 4.6367 3.0742 7.4219z"/>
 <path d="m588.93 546.94v-241.41c0-2.7852-1.1055-5.4531-3.0742-7.4219s-4.6367-3.0742-7.4219-3.0742h-41.984v20.992h31.488v230.91z"/>
 <path d="m211.07 305.54v241.41h20.992v-230.91h31.488v-20.992h-41.984c-5.7969 0-10.496 4.6992-10.496 10.496z"/>
 <path d="m190.08 599.42h20.992v20.992h-20.992z"/>
 <path d="m588.93 599.42h20.992v20.992h-20.992z"/>
 <g clip-path="url(#a)">
  <path d="m274.05 253.05h94.465v-20.992h-83.969v-52.48c0-5.7969 4.6992-10.496 10.496-10.496h83.969c2.7812 0 5.4531 1.1055 7.4219 3.0742s3.0742 4.6367 3.0742 7.4219v10.496h-73.473v20.992h73.473v53.016c-39.836 3.6367-74.949 27.629-92.812 63.422-17.859 35.789-15.926 78.273 5.1172 112.29 21.039 34.016 58.191 54.719 98.191 54.719 39.996 0 77.148-20.703 98.188-54.719 21.043-34.02 22.977-76.504 5.1172-112.29-17.863-35.793-52.977-59.785-92.809-63.422v-53.016h73.473l-0.003906-20.992h-73.469v-10.496c0-5.7969 4.6992-10.496 10.496-10.496h83.969-0.003907c2.7852 0 5.457 1.1055 7.4219 3.0742 1.9688 1.9688 3.0742 4.6367 3.0742 7.4219v52.48h-83.965v20.992h94.465-0.003906c2.7852 0 5.457-1.1055 7.4219-3.0742 1.9688-1.9688 3.0742-4.6406 3.0742-7.4219v-62.977c0-8.3516-3.3164-16.359-9.2227-22.266-5.9023-5.9062-13.914-9.2227-22.266-9.2227h-83.965c-7.7734 0.027344-15.254 2.9453-20.992 8.1875-5.7383-5.2422-13.223-8.1602-20.992-8.1875h-83.969c-8.3516 0-16.359 3.3164-22.266 9.2227s-9.2227 13.914-9.2227 22.266v62.977c0 2.7812 1.1055 5.4531 3.0742 7.4219s4.6367 3.0742 7.4219 3.0742zm220.41 125.95c0 25.051-9.9492 49.078-27.668 66.797-17.715 17.715-41.742 27.668-66.793 27.668-25.055 0-49.082-9.9531-66.797-27.668-17.715-17.719-27.668-41.746-27.668-66.797 0-25.055 9.9531-49.082 27.668-66.797 17.715-17.715 41.742-27.668 66.797-27.668 25.043 0.03125 49.051 9.9922 66.762 27.699 17.707 17.711 27.672 41.719 27.699 66.766z"/>
 </g>
 <path d="m389.5 305.54v20.992h-10.496c-5.5703 0-10.91 2.2109-14.844 6.1484-3.9375 3.9375-6.1484 9.2734-6.1484 14.844v20.992c0 5.5664 2.2109 10.906 6.1484 14.844 3.9336 3.9336 9.2734 6.1484 14.844 6.1484h41.984v20.992h-41.984v-10.496h-20.992v10.496c0 5.5664 2.2109 10.906 6.1484 14.844 3.9336 3.9336 9.2734 6.1484 14.844 6.1484h10.496v20.992h20.992v-20.992h10.496c5.5664 0 10.906-2.2148 14.844-6.1484 3.9336-3.9375 6.1484-9.2773 6.1484-14.844v-20.992c0-5.5703-2.2148-10.91-6.1484-14.844-3.9375-3.9375-9.2773-6.1484-14.844-6.1484h-41.984v-20.992h41.984v10.496h20.992v-10.496c0-5.5703-2.2148-10.906-6.1484-14.844-3.9375-3.9375-9.2773-6.1484-14.844-6.1484h-10.496v-20.992z"/>
 <path d="m253.05 504.96v31.488c0 2.7852 1.1055 5.4531 3.0742 7.4219s4.6367 3.0742 7.4219 3.0742h31.488v-20.992h-20.992v-20.992z"/>
</svg>