<?xml version="1.0" encoding="UTF-8"?>
<!-- The Best Svg Icon site in the world: iconSvg.co, Visit us! https://iconsvg.co -->
<svg fill="#000000" width="800px" height="800px" version="1.1" viewBox="144 144 512 512" xmlns="http://www.w3.org/2000/svg">
 <g>
  <path d="m247.81 389.5-47.23 126.28h214.55l-47.23-126.28zm14.555 20.992h90.98l31.527 84.297h-154.04l31.527-84.297z"/>
  <path d="m339.96 284.21-47.23 126.28h214.55l-47.23-126.28zm14.555 20.992h90.98l31.527 84.297h-154.04l31.527-84.297z"/>
  <path d="m432.1 389.5-47.23 126.28h214.55l-47.23-126.28zm14.555 20.992h90.98l31.527 84.297h-154.04l31.527-84.297z"/>
  <path d="m463.29 423.78v57.727h57.727v-57.727zm20.992 20.992h15.742v15.742h-15.742z"/>
  <path d="m278.99 423.78v57.727h57.727v-57.727zm20.992 20.992h15.742v15.742h-15.742z"/>
  <path d="m371.14 318.49v57.727h57.727v-57.727zm20.992 20.992h15.742v15.742h-15.742z"/>
 </g>
</svg>