<?xml version="1.0" encoding="UTF-8"?>
<!-- The Best Svg Icon site in the world: iconSvg.co, Visit us! https://iconsvg.co -->
<svg fill="#000000" width="800px" height="800px" version="1.1" viewBox="144 144 512 512" xmlns="http://www.w3.org/2000/svg">
 <g>
  <path d="m399.38 450.92c-5.5156-0.003907-10.801-2.1992-14.703-6.0977-3.8984-3.9023-6.0938-9.1914-6.1016-14.707 0-3.2578-2.6406-5.9023-5.9023-5.9023s-5.9023 2.6445-5.9023 5.9023c0.007813 7.3867 2.5234 14.551 7.1289 20.324s11.031 9.8164 18.23 11.469v8.9414c0 3.2617 2.6445 5.9023 5.9062 5.9023s5.9023-2.6406 5.9023-5.9023v-8.4453c11-1.5508 20.453-8.5977 25.086-18.691 4.6289-10.098 3.8047-21.855-2.1914-31.207-6-9.3477-16.344-15.004-27.453-15-5.5156 0-10.809-2.1914-14.711-6.0938-3.9023-3.9023-6.0938-9.1953-6.0938-14.711 0-5.5195 2.1914-10.812 6.0938-14.715 3.9023-3.8984 9.1953-6.0938 14.711-6.0938 5.5195 0.003906 10.812 2.1953 14.711 6.0977 3.9023 3.8984 6.0938 9.1914 6.0938 14.711 0 3.2617 2.6445 5.9023 5.9062 5.9023 3.2578 0 5.9023-2.6406 5.9023-5.9023-0.011719-7.8555-2.8516-15.445-8.0039-21.375-5.1523-5.9336-12.273-9.8047-20.051-10.914v-8.3711c0-3.2617-2.6406-5.9062-5.9023-5.9062s-5.9062 2.6445-5.9062 5.9062v8.8711-0.003906c-10.512 2.3984-19.16 9.8398-23.102 19.879-3.9414 10.035-2.668 21.375 3.4062 30.285 6.0742 8.9102 16.164 14.242 26.945 14.238 7.4336 0 14.301 3.9688 18.02 10.402 3.7148 6.4375 3.7148 14.371 0 20.805-3.7188 6.4375-10.586 10.402-18.02 10.402z"/>
  <path d="m400 562.29c89.695 0 162.67-72.801 162.67-162.29-0.003906-89.484-72.977-162.29-162.67-162.29-89.699 0-162.67 72.805-162.67 162.29s72.973 162.29 162.67 162.29zm-150.74-156.38h41.238c1.418 26.961 12.801 52.43 31.945 71.465 19.145 19.031 44.684 30.27 71.648 31.531v41.457c-78.504-3.0352-141.8-65.734-144.83-144.45zm149.77-103.13c0.60938 0.10938 1.2344 0.11328 1.8438 0.015625 34.246 0.48047 65.711 18.941 82.836 48.605 17.121 29.66 17.375 66.145 0.66406 96.039-16.711 29.895-47.922 48.793-82.156 49.746-1.4453-0.58984-3.0625-0.57812-4.5 0.023438-34.574-0.46484-66.301-19.262-83.316-49.359-17.02-30.102-16.77-66.973 0.65234-96.84s49.398-48.23 83.977-48.23zm6.875 247.59v-41.527c26.703-1.6484 51.871-13.039 70.738-32.008 18.863-18.973 30.113-44.207 31.613-70.918h42.484c-3.0312 78.719-66.332 141.42-144.84 144.45zm144.83-156.26h-42.484c-2.9766-55.102-47.215-99.664-102.35-102.94v-41.512c78.484 3.0273 141.77 65.73 144.83 144.45zm-156.64-144.45v41.445c-26.965 1.2695-52.496 12.512-71.637 31.547-19.145 19.031-30.531 44.5-31.953 71.457h-41.242c3.0625-78.719 66.348-141.42 144.83-144.45z"/>
  <path d="m201.29 400c0 109.57 89.141 198.71 198.71 198.71 109.57 0 198.71-89.145 198.71-198.71 0-109.57-89.141-198.71-198.71-198.71-109.57 0-198.71 89.141-198.71 198.71zm198.71-186.9c103.05 0 186.9 83.844 186.9 186.9 0 103.05-83.844 186.89-186.9 186.89-103.06 0-186.9-83.84-186.9-186.89s83.844-186.9 186.9-186.9z"/>
  <path d="m562.04 237.96c-35.266-35.453-81.23-58.301-130.79-65.004-3.2305-0.44531-6.2109 1.8125-6.6562 5.043-0.44531 3.2305 1.8125 6.207 5.0391 6.6562 46.969 6.4766 90.527 28.129 124.05 61.652 33.523 33.527 55.176 77.086 61.652 124.05 0.40234 2.918 2.8945 5.0898 5.8438 5.0938 0.26953 0 0.54297-0.015626 0.8125-0.054688 1.5508-0.21094 2.9531-1.0352 3.8984-2.2812 0.94531-1.25 1.3594-2.8203 1.1445-4.375-6.7031-49.555-29.547-95.52-65-130.79z"/>
  <path d="m368.75 627.03c0.26953 0.039062 0.54297 0.054688 0.8125 0.054688 3.1055-0.003907 5.6758-2.4062 5.8867-5.5039 0.21094-3.0938-2.0117-5.8242-5.0859-6.25-46.965-6.4766-90.523-28.125-124.05-61.648-33.523-33.523-55.176-77.082-61.656-124.05-0.44531-3.2305-3.4258-5.4883-6.6562-5.043-3.2305 0.44922-5.4883 3.4258-5.043 6.6562 6.8359 49.516 29.66 95.441 65.004 130.79 35.344 35.34 81.27 58.164 130.79 64.996z"/>
  <path d="m178.01 375.41c0.26953 0.039062 0.54297 0.054688 0.8125 0.054688 2.9492-0.003907 5.4414-2.1758 5.8438-5.0938 6.4805-46.965 28.129-90.527 61.652-124.05 33.523-33.523 77.082-55.172 124.05-61.652 3.2305-0.44531 5.4883-3.4258 5.043-6.6562-0.44531-3.2305-3.4258-5.4883-6.6562-5.043-49.516 6.832-95.441 29.656-130.79 65s-58.172 81.273-65.004 130.79c-0.21094 1.5547 0.19922 3.125 1.1445 4.375 0.94531 1.2461 2.3516 2.0703 3.9023 2.2812z"/>
  <path d="m621.99 424.6c-1.5508-0.21484-3.1211 0.19922-4.3711 1.1445-1.2461 0.94531-2.0703 2.3477-2.2852 3.8984-6.4766 46.965-28.129 90.523-61.652 124.05-33.523 33.523-77.082 55.176-124.05 61.652-3.0781 0.42188-5.3047 3.1523-5.0938 6.2539 0.21094 3.0977 2.7852 5.5039 5.8906 5.5 0.27344 0 0.54687-0.015625 0.81641-0.054688 49.512-6.832 95.441-29.656 130.79-65s58.168-81.27 65-130.79c0.21484-1.5508-0.19531-3.125-1.1406-4.3711-0.94531-1.25-2.3516-2.0703-3.9023-2.2852z"/>
 </g>
</svg>