<?xml version="1.0" encoding="UTF-8"?>
<!-- The Best Svg Icon site in the world: iconSvg.co, Visit us! https://iconsvg.co -->
<svg fill="#000000" width="800px" height="800px" version="1.1" viewBox="144 144 512 512" xmlns="http://www.w3.org/2000/svg">
 <g>
  <path d="m635.37 498.83-31.293-62.977h0.003906c-1.332-2.6797-4.0703-4.375-7.0625-4.3672l-126.32 0.046875c-2.8398 0.11328-5.3945 1.75-6.6875 4.2812l-31.691 62.977h-0.003907c-1.2266 2.4414-1.1016 5.3398 0.33203 7.668 0.10156 0.15625 95.078 126.56 95.078 126.56 1.4844 1.9805 3.8203 3.1484 6.2969 3.1484 2.4766 0 4.8125-1.168 6.2969-3.1484 0 0 94.559-126.39 94.652-126.54 1.4492-2.3125 1.5977-5.207 0.39453-7.6523zm-101.55 97-21.414-85.625h42.824zm18.789-101.37h-37.375l18.68-37.391zm44.344-37.504 18.633 37.504h-37.375zm-31.551 27.664-18.68-37.391h37.375zm-62.977 0-18.68-37.391h37.375zm-31.488-27.551 18.695 37.391h-37.5zm25.254 53.137 20.469 81.867-61.562-81.867zm54.641 82.477 20.617-82.477h41.09z"/>
  <path d="m572.71 357.88-23.617-62.977c-1.1641-3.0742-4.1094-5.1094-7.3984-5.1172h-26.059l-21.648-57.859h0.003907c-1.168-3.0742-4.1133-5.1094-7.4023-5.1172h-26.055l-21.648-57.859c-1.168-3.0742-4.1094-5.1094-7.3984-5.1172h-62.977c-3.2891 0.007812-6.2344 2.043-7.4023 5.1172l-21.648 57.859h-26.055c-3.2891 0.007812-6.2344 2.043-7.3984 5.1172l-21.648 57.859h-26.059c-3.2891 0.007813-6.2305 2.043-7.3984 5.1172l-23.617 62.977c-0.89062 2.4219-0.53906 5.1289 0.94531 7.2422 1.4531 2.1367 3.875 3.4062 6.457 3.3867h330.62c2.5742-0.011719 4.9883-1.2773 6.4609-3.3906 1.4727-2.1172 1.8203-4.8164 0.9375-7.2383zm-91.551-115.32 17.711 47.23h-87.535l17.711-47.23zm-81.16 32.668-12.281-32.668h24.562zm-26.059-95.645h52.113l17.711 47.23h-87.535zm-55.105 62.977h52.113l17.711 47.23h-87.535zm-72.812 110.21 17.711-47.23h52.113l17.711 47.23zm86.594-47.23h24.562l-12.285 32.668zm23.617 47.23 17.711-47.23h52.113l17.711 47.23zm86.594-47.23h24.562l-12.289 32.668zm23.617 47.23 17.711-47.23h52.113l17.711 47.23z"/>
  <path d="m478.72 596.8h-91.207l10.18-10.18c2.9844-3.0898 2.9414-8-0.09375-11.035-3.0391-3.0352-7.9492-3.0781-11.035-0.097657l-23.617 23.617c-3.0742 3.0742-3.0742 8.0586 0 11.133l23.617 23.617v-0.003907c3.0859 2.9844 7.9961 2.9414 11.035-0.09375 3.0352-3.0391 3.0781-7.9492 0.09375-11.035l-10.18-10.18h91.207c4.3477 0 7.8711-3.5234 7.8711-7.8711s-3.5234-7.8711-7.8711-7.8711z"/>
  <path d="m633.85 378.69c-3.0742-3.0703-8.0547-3.0703-11.129 0l-10.18 10.18v-138.44c0-2.0859-0.82812-4.0898-2.3047-5.5664-1.4766-1.4766-3.4805-2.3047-5.5664-2.3047h-62.977c-4.3477 0-7.8711 3.5234-7.8711 7.8711 0 4.3477 3.5234 7.8711 7.8711 7.8711h55.105v130.57l-10.18-10.18c-3.0898-2.9805-8-2.9375-11.035 0.097656-3.0352 3.0352-3.0781 7.9453-0.097657 11.035l23.617 23.617c1.4766 1.4805 3.4805 2.3125 5.5742 2.3125 2.0898 0 4.0977-0.83203 5.5742-2.3125l23.617-23.617h-0.003906c3.0703-3.0781 3.0625-8.0625-0.015626-11.133z"/>
  <path d="m256 244.86-23.617-23.617v0.003906c-3.0898-2.9844-7.9961-2.9414-11.035 0.09375-3.0352 3.0391-3.0781 7.9453-0.09375 11.035l10.176 10.18h-59.715c-4.3477 0-7.875 3.5234-7.875 7.8711v188.93c0 4.3477 3.5273 7.8711 7.875 7.8711 4.3477 0 7.8711-3.5234 7.8711-7.8711v-181.06h51.844l-10.176 10.18c-1.5195 1.4688-2.3867 3.4844-2.4062 5.5938-0.015625 2.1133 0.8125 4.1406 2.3086 5.6367 1.4922 1.4922 3.5234 2.3203 5.6328 2.3047 2.1133-0.019531 4.1289-0.88672 5.5938-2.4023l23.617-23.617c3.0742-3.0742 3.0742-8.0586 0-11.133z"/>
  <path d="m258.3 510.21h15.746c2.0859 0 4.0898 0.82812 5.5664 2.3047 1.4766 1.4766 2.3047 3.4805 2.3047 5.5664 0 4.3477 3.5234 7.8711 7.8711 7.8711 4.3477 0 7.875-3.5234 7.875-7.8711 0-6.2617-2.4883-12.27-6.918-16.699-4.4297-4.4297-10.438-6.918-16.699-6.918v-7.8711c0-4.3477-3.5234-7.8711-7.8711-7.8711-4.3477 0-7.875 3.5234-7.875 7.8711v7.8711c-8.4375 0-16.23 4.5039-20.449 11.809-4.2188 7.3086-4.2188 16.309 0 23.617 4.2188 7.3086 12.012 11.809 20.449 11.809h15.746c4.3477 0 7.8711 3.5234 7.8711 7.8711s-3.5234 7.8711-7.8711 7.8711h-15.746c-4.3477 0-7.8711-3.5234-7.8711-7.8711s-3.5234-7.8711-7.8711-7.8711-7.8711 3.5234-7.8711 7.8711c0 6.2656 2.4883 12.27 6.9141 16.699 4.4297 4.4297 10.438 6.918 16.699 6.918v7.8711c0 4.3477 3.5273 7.8711 7.875 7.8711 4.3477 0 7.8711-3.5234 7.8711-7.8711v-7.8711c8.4375 0 16.234-4.5 20.453-11.809s4.2188-16.309 0-23.617c-4.2188-7.3047-12.016-11.809-20.453-11.809h-15.746c-4.3477 0-7.8711-3.5234-7.8711-7.8711s3.5234-7.8711 7.8711-7.8711z"/>
  <path d="m266.18 431.49c-27.145 0-53.172 10.781-72.363 29.973-19.191 19.191-29.977 45.219-29.977 72.363 0 27.141 10.785 53.168 29.977 72.363 19.191 19.191 45.219 29.973 72.363 29.973 27.141 0 53.168-10.781 72.359-29.973 19.195-19.195 29.977-45.223 29.977-72.363-0.03125-27.133-10.824-53.145-30.008-72.328-19.188-19.188-45.199-29.977-72.328-30.008zm0 188.93v-0.003907c-22.969 0-44.992-9.1211-61.23-25.359-16.242-16.242-25.363-38.266-25.363-61.23 0-22.969 9.1211-44.992 25.363-61.23 16.238-16.238 38.262-25.363 61.23-25.363 22.965 0 44.988 9.125 61.227 25.363 16.242 16.238 25.363 38.262 25.363 61.23-0.027344 22.957-9.1562 44.965-25.391 61.199-16.234 16.234-38.242 25.363-61.199 25.391z"/>
  <path d="m266.18 455.1c-20.879 0-40.902 8.293-55.664 23.059-14.766 14.762-23.059 34.785-23.059 55.664 0 20.875 8.293 40.898 23.059 55.664 14.762 14.762 34.785 23.055 55.664 23.055 20.875 0 40.898-8.293 55.66-23.055 14.766-14.766 23.059-34.789 23.059-55.664-0.023437-20.871-8.3242-40.883-23.082-55.641-14.758-14.758-34.766-23.059-55.637-23.082zm0 141.7v0.003906c-16.703 0-32.723-6.6367-44.531-18.445-11.812-11.812-18.445-27.832-18.445-44.531 0-16.703 6.6328-32.723 18.445-44.531 11.809-11.812 27.828-18.445 44.531-18.445 16.699 0 32.719 6.6328 44.527 18.445 11.812 11.809 18.445 27.828 18.445 44.531-0.015626 16.695-6.6562 32.703-18.465 44.508-11.805 11.809-27.812 18.449-44.508 18.469z"/>
 </g>
</svg>