<?xml version="1.0" encoding="UTF-8"?>
<!-- The Best Svg Icon site in the world: iconSvg.co, Visit us! https://iconsvg.co -->
<svg fill="#000000" width="800px" height="800px" version="1.1" viewBox="144 144 512 512" xmlns="http://www.w3.org/2000/svg">
 <g>
  <path d="m226.81 392.84v38.652h38.652c-1.6484-9.6523-6.2539-18.555-13.176-25.477-6.9219-6.9219-15.824-11.527-25.477-13.176z"/>
  <path d="m462.98 415.74c0 16.703 6.6328 32.723 18.445 44.531 11.809 11.809 27.828 18.445 44.527 18.445 16.703 0 32.723-6.6367 44.531-18.445 11.812-11.809 18.445-27.828 18.445-44.531 0-16.703-6.6328-32.719-18.445-44.531-11.809-11.809-27.828-18.445-44.531-18.445-16.695 0.019531-32.703 6.6602-44.508 18.465-11.809 11.809-18.449 27.816-18.465 44.512zm70.848 7.8711h-15.746c-8.4375 0-16.234-4.5-20.453-11.809-4.2188-7.3047-4.2188-16.309 0-23.613 4.2188-7.3086 12.016-11.809 20.453-11.809v-7.8711c0-4.3477 3.5234-7.875 7.8711-7.875 4.3477 0 7.875 3.5273 7.875 7.875v7.8711c6.2617 0 12.27 2.4883 16.699 6.918 4.4258 4.4258 6.9141 10.434 6.9141 16.699 0 4.3477-3.5234 7.8711-7.8711 7.8711s-7.8711-3.5234-7.8711-7.8711c0-2.0898-0.82812-4.0898-2.3047-5.5664-1.4766-1.4766-3.4805-2.3086-5.5664-2.3086h-15.746c-4.3477 0-7.8711 3.5273-7.8711 7.875s3.5234 7.8711 7.8711 7.8711h15.746c8.4375 0 16.23 4.5 20.449 11.809 4.2188 7.3047 4.2188 16.309 0 23.613-4.2188 7.3086-12.012 11.809-20.449 11.809v7.875c0 4.3477-3.5273 7.8711-7.875 7.8711-4.3477 0-7.8711-3.5234-7.8711-7.8711v-7.875c-6.2617 0-12.27-2.4883-16.699-6.9141-4.4297-4.4297-6.918-10.438-6.918-16.699 0-4.3477 3.5273-7.875 7.875-7.875 4.3477 0 7.8711 3.5273 7.8711 7.875 0 2.0859 0.82812 4.0898 2.3047 5.5664 1.4766 1.4727 3.4805 2.3047 5.5664 2.3047h15.746c4.3477 0 7.8711-3.5234 7.8711-7.8711 0-4.3477-3.5234-7.875-7.8711-7.875z"/>
  <path d="m494.46 312.7v-38.652h-38.648c1.6484 9.6484 6.2539 18.551 13.176 25.473 6.9219 6.9258 15.824 11.527 25.473 13.18z"/>
  <path d="m494.46 343.64v-15.039c-13.852-1.7656-26.727-8.082-36.602-17.957s-16.191-22.75-17.957-36.602h-158.53c-1.7656 13.852-8.082 26.727-17.957 36.602s-22.75 16.191-36.605 17.957v48.32c13.855 1.7656 26.73 8.082 36.605 17.957s16.191 22.75 17.957 36.605h167.43c-3.6055-17.66-1.0352-36.02 7.2773-52.008 8.3086-15.988 21.859-28.641 38.379-35.836zm-196.8 16.992h-23.617c-4.3477 0-7.8711-3.5234-7.8711-7.8711s3.5234-7.8711 7.8711-7.8711h23.617c4.3477 0 7.8711 3.5234 7.8711 7.8711s-3.5234 7.8711-7.8711 7.8711zm55.105-15.742h15.742c8.4375 0 16.23 4.5 20.449 11.809 4.2188 7.3047 4.2188 16.309 0 23.617-4.2188 7.3047-12.012 11.805-20.449 11.805v7.875c0 4.3477-3.5273 7.8711-7.875 7.8711-4.3477 0-7.8711-3.5234-7.8711-7.8711v-7.875c-6.2617 0-12.27-2.4883-16.699-6.9141-4.4297-4.4297-6.918-10.438-6.918-16.699 0-4.3477 3.5273-7.875 7.875-7.875 4.3477 0 7.8711 3.5273 7.8711 7.875 0 2.0859 0.82812 4.0898 2.3047 5.5664 1.4766 1.4766 3.4805 2.3047 5.5664 2.3047h15.746c4.3477 0 7.8711-3.5234 7.8711-7.8711 0-4.3477-3.5234-7.875-7.8711-7.875h-15.746c-8.4375 0-16.234-4.5-20.453-11.805-4.2188-7.3086-4.2188-16.312 0-23.617 4.2188-7.3086 12.016-11.809 20.453-11.809v-7.8711c0-4.3477 3.5234-7.8711 7.8711-7.8711 4.3477 0 7.875 3.5234 7.875 7.8711v7.8711c6.2617 0 12.27 2.4883 16.699 6.918 4.4258 4.4297 6.9141 10.434 6.9141 16.699 0 4.3477-3.5234 7.8711-7.8711 7.8711s-7.8711-3.5234-7.8711-7.8711c0-2.0898-0.82812-4.0898-2.3047-5.5664-1.4766-1.4766-3.4805-2.3086-5.5664-2.3086h-15.746c-4.3477 0-7.8711 3.5273-7.8711 7.875 0 4.3477 3.5234 7.8711 7.8711 7.8711zm62.977 7.8711h-0.003906c0-4.3477 3.5234-7.8711 7.8711-7.8711h23.617c4.3477 0 7.8711 3.5234 7.8711 7.8711s-3.5234 7.8711-7.8711 7.8711h-23.617c-4.3477 0-7.8711-3.5234-7.8711-7.8711z"/>
  <path d="m265.46 274.05h-38.652v38.652c9.6523-1.6523 18.555-6.2539 25.477-13.18 6.9219-6.9219 11.527-15.824 13.176-25.473z"/>
  <path d="m612.54 510.21c2.0898 0 4.0898-0.82812 5.5664-2.3047 1.4766-1.4766 2.3047-3.4805 2.3047-5.5664v-259.78h-440.83v259.78c0 2.0859 0.82812 4.0898 2.3047 5.5664 1.4766 1.4766 3.4805 2.3047 5.5664 2.3047zm-393.6-62.977c-4.3477 0-7.8711-3.5234-7.8711-7.8711v-173.18c0-4.3477 3.5234-7.875 7.8711-7.875h283.39c2.0859 0 4.0898 0.83203 5.5664 2.3086 1.4766 1.4766 2.3047 3.4766 2.3047 5.5664v72.422c19.52-3.9961 39.828-0.4375 56.832 9.9492 17 10.391 29.43 26.84 34.777 46.035 5.3516 19.191 3.2266 39.699-5.9492 57.387-9.1758 17.688-24.719 31.234-43.488 37.914-18.773 6.6797-39.379 5.9922-57.664-1.9219-18.285-7.918-32.887-22.473-40.863-40.73z"/>
  <path d="m620.41 187.45c0-2.0859-0.82812-4.0898-2.3047-5.5664-1.4766-1.4766-3.4766-2.3047-5.5664-2.3047h-425.09c-4.3477 0-7.8711 3.5234-7.8711 7.8711v39.359h440.83zm-393.6 23.617h-15.742v-15.746h15.742zm31.488 0h-15.742v-15.746h15.742zm31.488 0h-15.742v-15.746h15.742zm275.52 0h-236.16c-4.3477 0-7.8711-3.5234-7.8711-7.8711 0-4.3477 3.5234-7.875 7.8711-7.875h236.16c4.3477 0 7.8711 3.5273 7.8711 7.875 0 4.3477-3.5234 7.8711-7.8711 7.8711z"/>
  <path d="m620.41 588.93c0-8.3516-3.3164-16.359-9.2227-22.266-5.9023-5.9023-13.914-9.2227-22.266-9.2227h-39.359v62.977h39.359c8.3516 0 16.363-3.3164 22.266-9.2227 5.9062-5.9023 9.2227-13.914 9.2227-22.266z"/>
  <path d="m525.95 620.41h7.8711l0.003907-62.977h-7.875c-11.246 0-21.645 6.0039-27.27 15.746-5.625 9.7422-5.625 21.746 0 31.488s16.023 15.742 27.27 15.742zm-15.742-39.359h7.8711c4.3477 0 7.8711 3.5234 7.8711 7.8711 0 4.3477-3.5234 7.875-7.8711 7.875h-7.8711c-4.3477 0-7.8711-3.5273-7.8711-7.875 0-4.3477 3.5234-7.8711 7.8711-7.8711z"/>
  <path d="m479.51 581.05h-63.766c-6.2578 0.019531-12.254 2.5117-16.68 6.9375-4.4219 4.4258-6.918 10.422-6.9375 16.68v7.8711c0 2.0898-0.82812 4.0898-2.3047 5.5664-1.4766 1.4766-3.4766 2.3047-5.5664 2.3047h-181.05c-8.4375 0-16.234-4.5-20.453-11.809-4.2188-7.3047-4.2188-16.309 0-23.613 4.2188-7.3086 12.016-11.809 20.453-11.809h141.7c6.2578-0.019532 12.254-2.5117 16.68-6.9375 4.4219-4.4258 6.918-10.422 6.9375-16.68v-23.617h-15.746v23.617c0 2.0898-0.82812 4.0898-2.3047 5.5664-1.4766 1.4766-3.4805 2.3047-5.5664 2.3047h-141.7c-14.062 0-27.059 7.5039-34.09 19.68-7.0312 12.18-7.0312 27.184 0 39.363 7.0312 12.176 20.027 19.68 34.09 19.68h181.05c6.2578-0.019531 12.254-2.5156 16.68-6.9375 4.4258-4.4258 6.918-10.422 6.9375-16.68v-7.8711c0-4.3477 3.5234-7.8711 7.8711-7.8711h63.766c-1.0625-5.1953-1.0625-10.551 0-15.746z"/>
 </g>
</svg>