<?xml version="1.0" encoding="UTF-8"?>
<!-- The Best Svg Icon site in the world: iconSvg.co, Visit us! https://iconsvg.co -->
<svg fill="#000000" width="800px" height="800px" version="1.1" viewBox="144 144 512 512" xmlns="http://www.w3.org/2000/svg">
 <g>
  <path d="m330.97 317.78c3.9766 1.2539 8.293-0.42578 10.371-4.043 2.082-3.6133 1.3711-8.1875-1.7109-11-3.9805-1.25-8.293 0.42969-10.375 4.043-2.0781 3.6172-1.3672 8.1914 1.7148 11z"/>
  <path d="m357.12 414.96 15.742 7.8711c3.8906 1.9414 8.6211 0.36328 10.566-3.5273 1.9414-3.8906 0.36328-8.6211-3.5273-10.562l-15.742-7.8711-0.003906-0.003907c-3.8906-1.9414-8.6211-0.36328-10.562 3.5273-1.9453 3.8906-0.36719 8.6211 3.5273 10.566z"/>
  <path d="m423.61 423.61c1.2148 0.011719 2.418-0.25781 3.5117-0.78516l15.742-7.8711h0.003906c3.8906-1.9453 5.4688-6.6758 3.5234-10.566-1.9414-3.8906-6.6719-5.4688-10.562-3.5273l-15.742 7.8711v0.003906c-3.2266 1.6523-4.9102 5.293-4.0742 8.8203s3.9727 6.0273 7.5977 6.0547z"/>
  <path d="m466.91 317.78c3.082-2.8086 3.793-7.3828 1.7148-11-2.082-3.6133-6.3945-5.293-10.375-4.043-3.0781 2.8125-3.793 7.3867-1.7109 11 2.0781 3.6172 6.3945 5.2969 10.371 4.043z"/>
  <path d="m565.31 455.1h-114.59c1.5938-2.6914 2.7773-5.6133 3.5039-8.6562 5.3359-1 10.301-3.4336 14.363-7.0391 4.0586-3.6055 7.0625-8.2461 8.6836-13.43 0.09375-0.28516 0.16797-0.57812 0.23047-0.875l19.316-100.76c2.4688-8.0195 3.8828-16.332 4.2031-24.719 9.332 2.6211 19.199 2.6953 28.57 0.22266s17.914-7.4062 24.738-14.289l11.141-11.141v0.003907c3.0742-3.0742 3.0742-8.0586 0-11.133l-11.141-11.133c-12.715-12.605-30.758-18.262-48.395-15.176l11.645-31.031h-0.003907c0.55859-1.4961 0.65234-3.1289 0.26172-4.6758l-5.3594-21.445h-0.003906c-1.6875-6.7227-6.5703-12.191-13.062-14.633-6.4883-2.4375-13.766-1.5391-19.465 2.4102-5.7031 3.9453-9.1055 10.438-9.1055 17.371l-10.102 17.059-8.4844-2.832c-7.6992-2.5703-15.762-3.8789-23.875-3.875h-56.773c-8.1172-0.003907-16.18 1.3047-23.879 3.875l-8.5273 2.8516-10.059-16.777v-0.30078c-0.007813-6.9297-3.4141-13.418-9.1172-17.359-5.6992-3.9414-12.973-4.8359-19.461-2.3945-6.4883 2.4414-11.367 7.9102-13.055 14.629l-5.3594 21.445c-0.39062 1.5508-0.30078 3.1797 0.25781 4.6758l11.645 31.031c-17.641-3.0859-35.68 2.5742-48.398 15.176l-11.141 11.133c-3.0703 3.0742-3.0703 8.0586 0 11.133l11.141 11.141v-0.003906c6.8242 6.8828 15.367 11.816 24.738 14.289 9.375 2.4727 19.238 2.3984 28.57-0.22266 0.32031 8.3867 1.7344 16.699 4.2031 24.719l19.316 100.76h0.003907c0.058593 0.29688 0.13281 0.58984 0.22656 0.875 1.6211 5.1836 4.625 9.8242 8.6836 13.43 4.0625 3.6055 9.0273 6.0391 14.367 7.0391 0.72266 3.043 1.9062 5.9648 3.5 8.6562h-114.58c-4.3477 0-7.875 3.5273-7.875 7.875v157.41c0 2.0898 0.83203 4.0898 2.3086 5.5664 1.4766 1.4766 3.4766 2.3086 5.5664 2.3086h330.62c2.0859 0 4.0898-0.83203 5.5664-2.3086 1.4766-1.4766 2.3047-3.4766 2.3047-5.5664v-157.44c0-2.0898-0.82812-4.0938-2.3047-5.5664-1.4766-1.4766-3.4805-2.3086-5.5664-2.3086zm-54.477 157.44h-221.68c-1.707-11.754-7.168-22.637-15.566-31.035-8.3984-8.3984-19.285-13.859-31.035-15.566v-48.492c11.75-1.707 22.637-7.168 31.035-15.566 8.3984-8.3984 13.859-19.285 15.566-31.035h221.68c1.7109 11.75 7.168 22.637 15.566 31.035 8.3984 8.3984 19.285 13.859 31.035 15.566v48.492c-11.75 1.707-22.637 7.168-31.035 15.566-8.3984 8.3984-13.855 19.281-15.566 31.035zm46.602-111c-7.5547-1.5586-14.492-5.2969-19.949-10.75-5.4531-5.457-9.1914-12.395-10.75-19.949h30.699zm-71.973-310.04c0.73828-1.2227 1.125-2.625 1.125-4.0547v-2.4805c-0.003906-2.7266 2.0273-5.0312 4.7344-5.3633 2.7109-0.33203 5.2383 1.4102 5.8945 4.0586l4.7227 19.059-8.2656 22.043v-0.003906c-3.2305-8.0273-9.6328-14.363-17.688-17.523zm-38.188 22.625 22.168 7.3906c2.9062 0.96875 5.4648 2.7617 7.3672 5.1641 1.9023 2.3984 3.0625 5.3008 3.3398 8.3516l1.5742 17.27v0.003906c0.25 2.7539 1.9258 5.1719 4.4141 6.375s5.4258 1.0117 7.7383-0.50391c7.5703-4.9102 16.598-7.082 25.574-6.1484 8.9766 0.92969 17.363 4.9102 23.762 11.273l5.5664 5.5664-5.5664 5.5742c-5.9961 6.0117-13.789 9.9023-22.195 11.078-8.4062 1.1797-16.969-0.42188-24.383-4.5547-2.5547-1.3906-5.6641-1.2656-8.0938 0.33203-2.4336 1.5938-3.7852 4.4023-3.5195 7.2969 0.98047 10.613-0.16016 21.316-3.3516 31.488-0.089844 0.28516-0.16406 0.57422-0.22266 0.86719l-2.9219 15.215-36.383-3.6367c-7.2383-0.70312-13.957-4.082-18.84-9.4727-4.8828-5.3906-7.5781-12.41-7.5625-19.684v-92.309h12.645c6.418-0.003906 12.801 1.0312 18.891 3.0625zm-94.559 0c6.0938-2.0312 12.473-3.0664 18.895-3.0625h28.387v92.309c-0.039062 11.184 4.0938 21.984 11.598 30.285 7.5039 8.2969 17.832 13.496 28.965 14.582l34.984 3.4961-9.25 48.23-13.152-13.027h-0.003906c-11.746-11.832-27.746-18.473-44.418-18.434h-20.941c-14.242 0.015625-28.055 4.8555-39.195 13.727l-15.879 12.523-2.918-15.23 16.414-13.68h-0.003906c9.2383-7.7148 15.855-18.109 18.934-29.742 3.0781-11.637 2.4688-23.938-1.7461-35.211l-30.117-80.293zm-49.941-30.465c0.65625-2.6484 3.1875-4.3906 5.8945-4.0586s4.7422 2.6367 4.7344 5.3633v2.4805c0 1.4297 0.39062 2.832 1.125 4.0547l9.4453 15.742v0.003906c-8.0391 3.1719-14.426 9.5078-17.656 17.527l-8.2656-22.043zm8.6602 97.613c-2.4297-1.5977-5.5391-1.7227-8.0898-0.33203-7.418 4.1328-15.98 5.7344-24.387 4.5547-8.4062-1.1758-16.199-5.0664-22.195-11.078l-5.5664-5.5742 5.5664-5.5664c6.0312-5.9688 13.828-9.832 22.23-11.012 8.4023-1.1836 16.961 0.375 24.406 4.4453l0.10156 0.078125 1.4336 0.73828c0.125 0.070313 0.25 0.14062 0.38672 0.20312 0.25 0.15625 0.52734 0.26172 0.78906 0.41797l-0.003906 0.003906c2.3125 1.5156 5.25 1.707 7.7383 0.50391 2.4883-1.2031 4.1641-3.6211 4.4141-6.375l1.5742-17.27v-0.003906c0.14844-1.1094 0.41406-2.2031 0.78906-3.2578l28.008 74.668v-0.003906c3.0742 8.2148 3.5156 17.18 1.2734 25.656s-7.0664 16.047-13.797 21.664l-9.7148 8.125-7.8711-40.934c-0.058594-0.29297-0.13281-0.58203-0.22266-0.86719-3.1914-10.172-4.3281-20.875-3.3516-31.488 0.26172-2.8828-1.0781-5.6758-3.4883-7.2734zm26.418 140.37-1.8125-9.4453 22.332-17.602 0.003906-0.003906c8.3477-6.6758 18.715-10.32 29.402-10.344h20.941c12.504-0.03125 24.504 4.9414 33.32 13.816l20.688 20.469-0.58984 3.0938v-0.003906c-1.125 3.0117-3.1719 5.5859-5.8516 7.3555-2.6797 1.7734-5.8516 2.6484-9.0586 2.5039h-94.465c-3.207 0.14453-6.375-0.72656-9.0547-2.4961-2.6797-1.7695-4.7305-4.3398-5.8555-7.3438zm24.902 25.582h74.484c-2.8125 4.8672-8.0039 7.8711-13.629 7.8711h-47.23c-5.6211 0-10.816-3.0039-13.625-7.8711zm-89.5 23.617c-1.5586 7.5547-5.293 14.492-10.75 19.949-5.457 5.4531-12.391 9.1914-19.949 10.75v-30.699zm-30.699 111c7.5586 1.5547 14.492 5.293 19.949 10.75 5.457 5.457 9.1914 12.391 10.75 19.949h-30.699zm284.18 30.699c1.5586-7.5586 5.2969-14.492 10.75-19.949 5.457-5.457 12.395-9.1953 19.949-10.75v30.699z"/>
  <path d="m400 486.59c-14.617 0-28.633 5.8047-38.965 16.141-10.336 10.332-16.141 24.352-16.141 38.965 0 14.613 5.8047 28.629 16.141 38.965 10.332 10.332 24.348 16.141 38.965 16.141 14.613 0 28.629-5.8086 38.965-16.141 10.332-10.336 16.137-24.352 16.137-38.965-0.019531-14.609-5.8281-28.613-16.16-38.945-10.328-10.328-24.336-16.141-38.941-16.16zm0 94.465c-10.441 0-20.453-4.1484-27.832-11.527-7.3828-7.3828-11.531-17.395-11.531-27.832s4.1484-20.449 11.531-27.832c7.3789-7.3828 17.391-11.527 27.832-11.527 10.438 0 20.449 4.1445 27.832 11.527 7.3789 7.3828 11.527 17.395 11.527 27.832-0.011719 10.434-4.1641 20.438-11.543 27.816-7.3789 7.3789-17.383 11.531-27.816 11.543z"/>
  <path d="m510.21 533.82h-31.488c-4.3477 0-7.8711 3.5234-7.8711 7.8711 0 4.3477 3.5234 7.8711 7.8711 7.8711h31.488c4.3477 0 7.8711-3.5234 7.8711-7.8711 0-4.3477-3.5234-7.8711-7.8711-7.8711z"/>
  <path d="m321.28 533.82h-31.488c-4.3477 0-7.8711 3.5234-7.8711 7.8711 0 4.3477 3.5234 7.8711 7.8711 7.8711h31.488c4.3477 0 7.8711-3.5234 7.8711-7.8711 0-4.3477-3.5234-7.8711-7.8711-7.8711z"/>
 </g>
</svg>