<?xml version="1.0" encoding="UTF-8"?>
<!-- The Best Svg Icon site in the world: iconSvg.co, Visit us! https://iconsvg.co -->
<svg fill="#000000" width="800px" height="800px" version="1.1" viewBox="144 144 512 512" xmlns="http://www.w3.org/2000/svg">
 <g>
  <path d="m274.05 316.03c-5.7969 0-10.496 4.6992-10.496 10.496s4.6992 10.496 10.496 10.496h10.496c0 5.7969 4.6992 10.496 10.496 10.496 5.7969 0 10.496-4.6992 10.496-10.496h10.496c2.7812 0 5.4531-1.1055 7.4219-3.0742s3.0742-4.6406 3.0742-7.4219v-31.488c0-2.7852-1.1055-5.4531-3.0742-7.4219s-4.6406-3.0742-7.4219-3.0742h-31.488v-10.496h31.488c5.7969 0 10.496-4.6992 10.496-10.496s-4.6992-10.496-10.496-10.496h-10.496c0-5.7969-4.6992-10.496-10.496-10.496-5.7969 0-10.496 4.6992-10.496 10.496h-10.496c-5.7969 0-10.496 4.6992-10.496 10.496v31.488c0 2.7812 1.1055 5.4531 3.0742 7.4219s4.6367 3.0742 7.4219 3.0742h31.488v10.496z"/>
  <path d="m295.04 389.5c25.051 0 49.078-9.9531 66.797-27.668 17.715-17.719 27.668-41.746 27.668-66.797 0-25.055-9.9531-49.082-27.668-66.797-17.719-17.715-41.746-27.668-66.797-27.668-25.055 0-49.082 9.9531-66.797 27.668-17.715 17.715-27.668 41.742-27.668 66.797 0 25.051 9.9531 49.078 27.668 66.797 17.715 17.715 41.742 27.668 66.797 27.668zm0-167.94c19.484 0 38.172 7.7422 51.953 21.52 13.777 13.777 21.52 32.465 21.52 51.953 0 19.484-7.7422 38.172-21.52 51.953-13.781 13.777-32.469 21.52-51.953 21.52-19.488 0-38.176-7.7422-51.953-21.52-13.777-13.781-21.52-32.469-21.52-51.953 0-19.488 7.7422-38.176 21.52-51.953 13.777-13.777 32.465-21.52 51.953-21.52z"/>
  <path d="m620.41 578.43h-10.496v-157.44c0-2.7852-1.1055-5.4531-3.0742-7.4219s-4.6367-3.0742-7.4219-3.0742h-104.96c-5.7969 0-10.496 4.6992-10.496 10.496v157.44h-20.988v-94.465c0-2.7812-1.1094-5.4531-3.0742-7.418-1.9688-1.9688-4.6406-3.0742-7.4219-3.0742h-104.96c-5.7969 0-10.496 4.6992-10.496 10.492v94.465h-20.992v-52.48c0-2.7812-1.1055-5.4531-3.0742-7.4219-1.9688-1.9648-4.6406-3.0742-7.4219-3.0742h-104.96c-5.7969 0-10.496 4.6992-10.496 10.496v52.48h-10.496c-5.7969 0-10.496 4.6992-10.496 10.496s4.6992 10.496 10.496 10.496h440.83c5.7969 0 10.496-4.6992 10.496-10.496s-4.6992-10.496-10.496-10.496zm-409.34 0v-41.984h83.969v41.984zm146.95 0v-83.969h83.969v83.969zm146.95 0-0.003907-146.94h83.969v146.94z"/>
  <path d="m198.48 473.47c-2.8125 0.50391-5.2969 2.1289-6.8828 4.5078-1.5859 2.375-2.1328 5.2969-1.5156 8.0859 0.50391 2.8125 2.1328 5.2969 4.5078 6.8789 2.3789 1.5859 5.2969 2.1328 8.0859 1.5156 207.82-41.98 339.55-188.93 386.25-250.64v19.734c0 2.7812 1.1055 5.4531 3.0742 7.4219s4.6406 3.0742 7.4219 3.0742c2.7852 0 5.4531-1.1055 7.4219-3.0742s3.0742-4.6406 3.0742-7.4219v-52.48c0.13672-3.3789-1.3594-6.6133-4.0234-8.6953-2.6641-2.0781-6.168-2.75-9.4102-1.8008l-50.383 14.801c-5.5625 1.6523-8.7344 7.5-7.082 13.066 1.6523 5.5625 7.5 8.7383 13.066 7.0859l20.992-6.2969c-43.453 58.355-171.09 203.73-374.6 244.24z"/>
 </g>
</svg>