<?xml version="1.0" encoding="UTF-8"?>
<!-- The Best Svg Icon site in the world: iconSvg.co, Visit us! https://iconsvg.co -->
<svg width="800px" height="800px" version="1.1" viewBox="144 144 512 512" xmlns="http://www.w3.org/2000/svg">
 <defs>
  <clipPath id="a">
   <path d="m163 148.09h474v503.81h-474z"/>
  </clipPath>
 </defs>
 <g clip-path="url(#a)">
  <path d="m470.85 289.79h-15.746c-4.1758 0-8.1797-1.6562-11.133-4.6094-2.9531-2.9531-4.6094-6.957-4.6094-11.133 0-4.3477-3.5234-7.8711-7.8711-7.8711-4.3477 0-7.875 3.5234-7.875 7.8711 0 8.3516 3.3203 16.359 9.2227 22.266 5.9062 5.9023 13.914 9.2227 22.266 9.2227v7.8711c0 4.3477 3.5273 7.8711 7.875 7.8711 4.3477 0 7.8711-3.5234 7.8711-7.8711v-7.8711c11.25 0 21.645-6.0039 27.27-15.746 5.625-9.7422 5.625-21.746 0-31.488-5.625-9.7422-16.02-15.742-27.27-15.742h-15.746c-5.625 0-10.82-3-13.633-7.8711s-2.8125-10.875 0-15.746 8.0078-7.8711 13.633-7.8711h15.746c4.1758 0 8.1797 1.6602 11.133 4.6094 2.9531 2.9531 4.6094 6.957 4.6094 11.133 0 4.3477 3.5234 7.875 7.8711 7.875 4.3477 0 7.875-3.5273 7.875-7.875 0-8.3516-3.3203-16.359-9.2227-22.266-5.9062-5.9023-13.914-9.2227-22.266-9.2227v-7.8711c0-4.3477-3.5234-7.8711-7.8711-7.8711-4.3477 0-7.875 3.5234-7.875 7.8711v7.8711c-11.25 0-21.645 6.0039-27.27 15.746-5.625 9.7422-5.625 21.746 0 31.488 5.625 9.7422 16.02 15.742 27.27 15.742h15.746c5.625 0 10.82 3.0039 13.633 7.875 2.8125 4.8711 2.8125 10.871 0 15.742-2.8125 4.8711-8.0078 7.8711-13.633 7.8711zm-7.8711 62.977c27.141 0 53.168-10.781 72.359-29.973 19.191-19.191 29.977-45.223 29.977-72.363 0-27.141-10.785-53.172-29.977-72.363-19.191-19.191-45.219-29.973-72.359-29.973-27.145 0-53.172 10.781-72.363 29.973-19.191 19.191-29.977 45.223-29.977 72.363 0.035156 27.133 10.828 53.141 30.012 72.328 19.184 19.184 45.195 29.977 72.328 30.008zm0-188.93c22.965 0 44.988 9.125 61.227 25.363 16.242 16.238 25.363 38.266 25.363 61.23 0 22.965-9.1211 44.992-25.363 61.23-16.238 16.238-38.262 25.363-61.227 25.363-22.969 0-44.992-9.125-61.23-25.363-16.242-16.238-25.363-38.266-25.363-61.23 0.027344-22.957 9.1602-44.965 25.395-61.199 16.234-16.23 38.242-25.363 61.199-25.395zm172.98 132.85c-0.13281-1.2227-0.57812-2.3867-1.2891-3.3867 0 0 0-0.17188-0.125-0.25l-0.11328-0.11328c-0.60547-0.78516-1.3594-1.4492-2.2188-1.9492-1.1719-0.75-2.5273-1.1641-3.918-1.1992h-47.234c-4.3477 0-7.8711 3.5273-7.8711 7.875 0 4.3477 3.5234 7.8711 7.8711 7.8711h24.09l-142.01 108.07-121.13-98.434h-0.003906c-3.0156-2.4453-7.3711-2.3281-10.246 0.28516l-164.76 149.57c-1.6172 1.3867-2.6016 3.3633-2.7344 5.4883-0.13281 2.1211 0.59766 4.207 2.0273 5.7812 1.4297 1.5742 3.4375 2.5039 5.5625 2.5781 2.125 0.070312 4.1914-0.72266 5.7227-2.1953l159.69-145.02 120.7 98.07c2.8164 2.293 6.8359 2.3555 9.7305 0.15625l152.73-116.17v31.188c0 4.3477 3.5273 7.8711 7.875 7.8711 4.3477 0 7.8711-3.5234 7.8711-7.8711v-47.23c-0.046875-0.33203-0.11719-0.65625-0.20703-0.97656zm-149.36 166.29h-47.23c-6.2656 0-12.27 2.4844-16.699 6.9141-4.4297 4.4297-6.918 10.438-6.918 16.699v157.44c0 2.0859 0.82812 4.0898 2.3047 5.5664 1.4766 1.4766 3.4805 2.3047 5.5664 2.3047h78.723c2.0859 0 4.0898-0.82812 5.5664-2.3047 1.4766-1.4766 2.3047-3.4805 2.3047-5.5664v-157.44c0-6.2617-2.4883-12.27-6.918-16.699-4.4297-4.4297-10.434-6.9141-16.699-6.9141zm7.8711 173.18h-62.973v-149.57c0-4.3477 3.5234-7.8711 7.8711-7.8711h47.23c2.0898 0 4.0898 0.82812 5.5664 2.3047 1.4766 1.4766 2.3047 3.4805 2.3047 5.5664zm-133.82-236.16h-47.23c-6.2617 0-12.27 2.4883-16.699 6.9141-4.4297 4.4297-6.918 10.438-6.918 16.699v220.42c0 2.0859 0.83203 4.0898 2.3086 5.5664 1.4727 1.4766 3.4766 2.3047 5.5664 2.3047h78.719c2.0859 0 4.0898-0.82812 5.5664-2.3047 1.4766-1.4766 2.3047-3.4805 2.3047-5.5664v-220.42c0-6.2617-2.4883-12.27-6.918-16.699-4.4258-4.4258-10.434-6.9141-16.699-6.9141zm7.875 236.16h-62.977v-212.55c0-4.3477 3.5234-7.8711 7.8711-7.8711h47.23c2.0898 0 4.0898 0.82812 5.5664 2.3047s2.3086 3.4805 2.3086 5.5664zm-133.82-125.95h-47.234c-6.2617 0-12.27 2.4883-16.699 6.918-4.4297 4.4258-6.918 10.434-6.918 16.699v110.21c0 2.0859 0.83203 4.0898 2.3086 5.5664 1.4766 1.4766 3.4766 2.3047 5.5664 2.3047h78.719c2.0898 0 4.0898-0.82812 5.5664-2.3047 1.4766-1.4766 2.3047-3.4805 2.3047-5.5664v-110.21c0-6.2656-2.4883-12.273-6.9141-16.699-4.4297-4.4297-10.438-6.918-16.699-6.918zm7.8711 125.95h-62.977v-102.34c0-4.3477 3.5234-7.875 7.8711-7.875h47.234c2.0859 0 4.0898 0.83203 5.5664 2.3086 1.4766 1.4766 2.3047 3.4766 2.3047 5.5664zm369.98-236.16h-47.23c-6.2656 0-12.273 2.4883-16.699 6.9141-4.4297 4.4297-6.918 10.438-6.918 16.699v220.42c0 2.0859 0.82813 4.0898 2.3047 5.5664 1.4766 1.4766 3.4805 2.3047 5.5664 2.3047h78.723c2.0859 0 4.0898-0.82812 5.5664-2.3047 1.4727-1.4766 2.3047-3.4805 2.3047-5.5664v-220.42c0-6.2617-2.4883-12.27-6.918-16.699-4.4297-4.4258-10.438-6.9141-16.699-6.9141zm7.8711 236.16h-62.977v-212.55c0-4.3477 3.5273-7.8711 7.875-7.8711h47.23c2.0898 0 4.0898 0.82812 5.5664 2.3047s2.3047 3.4805 2.3047 5.5664z"/>
 </g>
</svg>