<?xml version="1.0" encoding="UTF-8"?>
<!-- The Best Svg Icon site in the world: iconSvg.co, Visit us! https://iconsvg.co -->
<svg fill="#000000" width="800px" height="800px" version="1.1" viewBox="144 144 512 512" xmlns="http://www.w3.org/2000/svg">
 <g>
  <path d="m370.81 344.93h-88.02c-5.5625 0-10.098 4.5273-10.098 10.098v18.363c0 5.5625 4.5273 10.09 10.098 10.09h88.02c5.5625 0 10.098-4.5234 10.098-10.09v-18.363c0-5.5664-4.5312-10.098-10.098-10.098zm-2.5 25.953h-83.02v-13.355h83.023z"/>
  <path d="m574.61 230.08c-12.488-19.41-31.789-32.797-54.348-37.691-6.0625-1.3203-12.258-1.9844-18.41-1.9844-40.316 0-75.793 28.637-84.359 68.094-4.0156 18.496-1.6641 37.598 6.0703 54.395l-158.87 0.003907c-12.012 0-21.773 9.7695-21.773 21.773v123.48l-22.738 123.03c-0.070312 0.37891-0.10547 0.76172-0.10547 1.1445 0 13.406 10.906 24.312 24.312 24.312h277.96c13.41 0 24.32-10.906 24.32-24.312 0-0.38281-0.035156-0.76562-0.10547-1.1445l-22.738-123.03v-97.75c30.746-8.1602 55.57-33.109 62.547-65.238 4.9062-22.559 0.72656-45.668-11.762-65.082zm-245.61 331.82h-58.238c-3.4766 0-6.2969-2.8203-6.2969-6.2969 0-3.4766 2.8203-6.2969 6.2969-6.2969h58.246c3.4766 0 6.2969 2.8203 6.2969 6.2969 0 3.4766-2.8203 6.2969-6.3047 6.2969zm0-32.43h-54.988c-3.4766 0-6.2969-2.8203-6.2969-6.2969s2.8203-6.2969 6.2969-6.2969h54.992c3.4766 0 6.2969 2.8203 6.2969 6.2969 0 3.4727-2.8164 6.2969-6.3008 6.2969zm0-30.961h-50.008c-3.4766 0-6.2969-2.8203-6.2969-6.2969 0-3.4766 2.8203-6.2969 6.2969-6.2969h50.008c3.4766 0 6.2969 2.8203 6.2969 6.2969 0.003906 3.4766-2.8125 6.2969-6.2969 6.2969zm169.62 63.391h-143.15c-3.4766 0-6.2969-2.8203-6.2969-6.2969 0-3.4766 2.8203-6.2969 6.2969-6.2969h143.15c3.4766 0 6.2969 2.8203 6.2969 6.2969 0 3.4766-2.8164 6.2969-6.2969 6.2969zm-143.15-45.027h138.54c3.4766 0 6.2969 2.8203 6.2969 6.2969 0 3.4766-2.8203 6.2969-6.2969 6.2969l-138.54 0.003906c-3.4766 0-6.2969-2.8203-6.2969-6.2969s2.8203-6.3008 6.2969-6.3008zm-6.2969-24.66c0-3.4766 2.8203-6.2969 6.2969-6.2969h132.29c3.4766 0 6.2969 2.8203 6.2969 6.2969 0 3.4766-2.8203 6.2969-6.2969 6.2969h-132.29c-3.4766 0-6.2969-2.8164-6.2969-6.2969zm162.06-39.77h-255.72v-117.77c0-5.0625 4.1172-9.1797 9.1797-9.1797h165.96c3.125 4.5898 6.707 8.9141 10.727 12.879l-8.4141 38.742c-0.43359 1.9961 0.37891 4.0508 2.0508 5.2109 0.86719 0.59766 1.8672 0.89844 2.8711 0.89844 0.94531 0 1.8945-0.26562 2.7266-0.80078l35.84-23.059c2.4648 0.77734 4.8203 1.4062 7.1406 1.9102 6.0625 1.3203 12.262 1.9844 18.41 1.9844h0.003906c3.1094 0 6.1758-0.22656 9.2148-0.55859v89.738zm37.332-174.99c-0.63672 1.293-1.9531 2.1172-3.3945 2.1172h-13.336v27.953c0 2.0859-1.6914 3.7773-3.7773 3.7773l-53.867-0.003906c-2.0859 0-3.7773-1.6914-3.7773-3.7773v-27.953h-13.34c-1.4414 0-2.7617-0.82031-3.3945-2.1211-0.63672-1.293-0.47266-2.8398 0.41406-3.9805l23.297-29.91c0.71875-0.92188 1.8125-1.457 2.9844-1.457h41.523c1.1641 0 2.2617 0.53906 2.9844 1.457l23.285 29.91c0.875 1.1445 1.0352 2.6875 0.39844 3.9883z"/>
  <path d="m369.32 407.88h-90.324c-3.4766 0-6.2969 2.8203-6.2969 6.2969 0 3.4766 2.8203 6.2969 6.2969 6.2969h90.324c3.4766 0 6.2969-2.8203 6.2969-6.2969 0-3.4766-2.8164-6.2969-6.2969-6.2969z"/>
  <path d="m487.76 407.88h-88.848c-3.4766 0-6.2969 2.8203-6.2969 6.2969 0 3.4766 2.8203 6.2969 6.2969 6.2969h88.848c3.4766 0 6.2969-2.8203 6.2969-6.2969 0-3.4766-2.8203-6.2969-6.2969-6.2969z"/>
 </g>
</svg>