<?xml version="1.0" encoding="UTF-8"?>
<!-- The Best Svg Icon site in the world: iconSvg.co, Visit us! https://iconsvg.co -->
<svg fill="#000000" width="800px" height="800px" version="1.1" viewBox="144 144 512 512" xmlns="http://www.w3.org/2000/svg">
 <path d="m499.19 305.54h42.508c5.625 0 10.82-3 13.633-7.8711 2.8125-4.875 2.8125-10.875 0-15.746-2.8125-4.8711-8.0078-7.8711-13.633-7.8711h-53.215l24.402-48.965c4.8477-9.7578 4.3086-21.328-1.4297-30.594-5.7383-9.2617-15.855-14.902-26.75-14.906h-169.41c-10.898 0.003907-21.016 5.6445-26.754 14.906-5.7383 9.2656-6.2773 20.836-1.4297 30.594l24.402 48.965h-53.215c-5.625 0-10.82 3-13.633 7.8711-2.8125 4.8711-2.8125 10.871 0 15.746 2.8125 4.8711 8.0078 7.8711 13.633 7.8711h42.512c-30.207 21.102-52.895 51.289-64.766 86.172-11.871 34.879-12.305 72.641-1.2461 107.79 11.062 35.148 33.047 65.852 62.758 87.648 29.707 21.793 65.594 33.547 102.44 33.547 36.844 0 72.73-11.754 102.44-33.547 29.707-21.797 51.691-52.5 62.754-87.648 11.062-35.145 10.625-72.906-1.2461-107.79-11.871-34.883-34.559-65.07-64.762-86.172zm-183.89-94.465h169.41l-31.488 62.977h-106.43zm84.703 377.86c-37.582 0-73.621-14.926-100.2-41.5-26.574-26.574-41.504-62.613-41.504-100.2 0-37.578 14.93-73.621 41.504-100.2 26.574-26.57 62.613-41.5 100.2-41.5 37.578 0 73.621 14.93 100.19 41.5 26.574 26.574 41.504 62.617 41.504 100.2 0 37.582-14.93 73.621-41.504 100.2-26.57 26.574-62.613 41.5-100.19 41.5zm-15.746-173.18c0 4.1758 1.6602 8.1797 4.6133 11.133 2.9531 2.9531 6.957 4.6133 11.133 4.6133 14.887 0.11328 28.848 7.2422 37.672 19.234 8.8242 11.988 11.48 27.438 7.1641 41.688-4.3164 14.25-15.098 25.629-29.094 30.707v2.832c0 5.625-3 10.824-7.8711 13.637s-10.875 2.8125-15.746 0-7.8711-8.0117-7.8711-13.637v-2.832c-9.1875-3.25-17.145-9.2578-22.781-17.207-5.6367-7.9492-8.6797-17.445-8.707-27.191 0-5.625 3-10.824 7.8711-13.633 4.8711-2.8125 10.875-2.8125 15.746 0 4.8711 2.8086 7.8711 8.0078 7.8711 13.633 0 4.1758 1.6602 8.1797 4.6133 11.133 2.9531 2.9531 6.957 4.6094 11.133 4.6094s8.1797-1.6562 11.133-4.6094c2.9492-2.9531 4.6094-6.957 4.6094-11.133s-1.6602-8.1797-4.6094-11.133c-2.9531-2.9531-6.957-4.6094-11.133-4.6094-14.891-0.11719-28.852-7.2461-37.676-19.238-8.8242-11.988-11.48-27.438-7.1641-41.688s15.098-25.629 29.094-30.707v-2.832c0-5.625 3-10.824 7.8711-13.637s10.875-2.8125 15.746 0 7.8711 8.0117 7.8711 13.637v2.832c9.1875 3.25 17.145 9.2578 22.781 17.207 5.6406 7.9492 8.6797 17.445 8.707 27.191 0 5.625-3 10.824-7.8711 13.637s-10.875 2.8125-15.746 0c-4.8711-2.8125-7.8711-8.0117-7.8711-13.637s-3-10.82-7.8711-13.633-10.875-2.8125-15.746 0-7.8711 8.0078-7.8711 13.633z"/>
</svg>