<?xml version="1.0" encoding="UTF-8"?>
<!-- The Best Svg Icon site in the world: iconSvg.co, Visit us! https://iconsvg.co -->
<svg width="800px" height="800px" version="1.1" viewBox="144 144 512 512" xmlns="http://www.w3.org/2000/svg">
 <defs>
  <clipPath id="a">
   <path d="m200 148.09h400v503.81h-400z"/>
  </clipPath>
 </defs>
 <g clip-path="url(#a)">
  <path d="m441.98 257.7v-36.137h20.992c2.7812 0 5.4531-1.1055 7.4219-3.0742 1.9648-1.9688 3.0742-4.6367 3.0742-7.4219v-41.984h20.992l-0.003906-20.992h-188.93v20.992h20.992v41.984c0 2.7852 1.1055 5.4531 3.0742 7.4219s4.6367 3.0742 7.4219 3.0742h20.992v36.137c-48.133 10.367-90.73 38.172-119.59 78.062-28.859 39.887-41.941 89.047-36.73 138 5.2109 48.961 28.352 94.258 64.961 127.18 36.613 32.922 84.105 51.133 133.34 51.133 49.234 0 96.73-18.211 133.34-51.133 36.613-32.922 59.75-78.219 64.961-127.18 5.2148-48.957-7.8711-98.117-36.73-138-28.859-39.891-71.457-67.695-119.59-78.062zm-41.984 373.21c-44.734 0.03125-87.848-16.75-120.79-47.016-32.941-30.27-53.301-71.809-57.043-116.39-3.7461-44.578 9.4023-88.934 36.832-124.27 27.43-35.336 67.137-59.074 111.25-66.504 5.0508-0.85156 8.75-5.2266 8.7539-10.352v-44.816h20.992v-20.992h-52.48v-31.488h104.96v31.488h-20.992c-5.7969 0-10.496 4.6992-10.496 10.496v55.312c0 5.125 3.6992 9.5 8.7539 10.352 44.109 7.4297 83.82 31.168 111.25 66.504 27.43 35.336 40.574 79.691 36.832 124.27-3.7461 44.578-24.105 86.117-57.047 116.39-32.938 30.266-76.051 47.047-120.78 47.016z"/>
 </g>
 <path d="m400 546.94v20.992c30.609-0.035156 59.953-12.211 81.598-33.855 21.645-21.645 33.82-50.988 33.855-81.598h-20.992c-0.027344 25.043-9.9883 49.055-27.695 66.766-17.711 17.707-41.723 27.668-66.766 27.695z"/>
 <path d="m400 358.02v-20.992c-30.613 0.035156-59.957 12.211-81.602 33.855-21.645 21.645-33.82 50.988-33.855 81.602h20.992c0.03125-25.047 9.9922-49.055 27.699-66.766 17.711-17.707 41.719-27.668 66.766-27.699z"/>
 <path d="m410.5 504.96h10.496c5.5664 0 10.906-2.2109 14.844-6.1484 3.9336-3.9336 6.1484-9.2734 6.1484-14.844v-20.988c0-5.5703-2.2148-10.91-6.1484-14.844-3.9375-3.9375-9.2773-6.1484-14.844-6.1484h-41.984v-20.992h41.984v10.496h20.992v-10.496c0-5.5703-2.2148-10.91-6.1484-14.844-3.9375-3.9375-9.2773-6.1484-14.844-6.1484h-10.496v-20.992h-20.992v20.992h-10.496c-5.5703 0-10.91 2.2109-14.844 6.1484-3.9375 3.9336-6.1484 9.2734-6.1484 14.844v20.992c0 5.5664 2.2109 10.906 6.1484 14.844 3.9336 3.9336 9.2734 6.1484 14.844 6.1484h41.984v20.992l-41.984-0.003906v-10.492h-20.992v10.496-0.003906c0 5.5703 2.2109 10.91 6.1484 14.844 3.9336 3.9375 9.2734 6.1484 14.844 6.1484h10.496v20.992h20.992z"/>
 <path d="m516.5 351.3c-5.4648-8.8711-15.137-14.273-25.559-14.273-10.418 0-20.09 5.4023-25.555 14.273-4.1992 5.082-5.8984 6.7188-9.4453 6.7188-3.5469 0-5.2461-1.6367-9.4453-6.7188h-0.003906c-5.7031-8.5938-15.199-13.906-25.504-14.273v20.992c3.5391 0 5.2461 1.6367 9.4453 6.7188v-0.003906c5.4688 8.8711 15.148 14.273 25.566 14.273 10.422 0 20.098-5.4023 25.57-14.273 4.1992-5.0898 5.8984-6.7266 9.4453-6.7266 3.3711 0 4.9453 1.3438 9.4453 6.7188 5.6953 8.5898 15.184 13.91 25.484 14.285v-20.992c-3.3672 0-4.9414-1.3438-9.4453-6.7188z"/>
 <path d="m369.56 540.23c-5.6953-8.6016-15.195-13.918-25.504-14.277-10.324 0.35156-19.848 5.6641-25.566 14.266-4.1992 5.0898-5.8984 6.7266-9.4453 6.7266s-5.2461-1.6367-9.4453-6.7266h-0.003906c-5.7148-8.5977-15.23-13.91-25.547-14.266v20.992c3.5391 0 5.2461 1.6367 9.4453 6.7266v0.003906c5.7188 8.5977 15.238 13.91 25.559 14.262 10.324-0.34766 19.848-5.6602 25.566-14.262 4.1992-5.0898 5.8984-6.7266 9.4453-6.7266 3.3711 0 4.9453 1.3555 9.4453 6.7188l0.003907-0.003906c5.6953 8.5977 15.191 13.914 25.496 14.273v-20.992c-3.3711 0-4.9453-1.3516-9.4492-6.7148z"/>
 <path d="m284.54 473.47h20.992v20.992h-20.992z"/>
 <path d="m494.46 410.5h20.992v20.992h-20.992z"/>
</svg>