<?xml version="1.0" encoding="UTF-8"?>
<!-- The Best Svg Icon site in the world: iconSvg.co, Visit us! https://iconsvg.co -->
<svg fill="#000000" width="800px" height="800px" version="1.1" viewBox="144 144 512 512" xmlns="http://www.w3.org/2000/svg">
 <g>
  <path d="m337.02 410.5v-10.496h20.992c2.7812 0 5.4531-1.1055 7.4219-3.0742s3.0742-4.6406 3.0742-7.4219v-41.984c0-2.7852-1.1055-5.4531-3.0742-7.4219s-4.6406-3.0742-7.4219-3.0742h-52.48v-20.992h52.48c5.7969 0 10.496-4.6992 10.496-10.496s-4.6992-10.496-10.496-10.496h-20.992v-10.496c0-5.7969-4.6992-10.496-10.496-10.496s-10.496 4.6992-10.496 10.496v10.496h-20.992c-5.7969 0-10.496 4.6992-10.496 10.496v41.984c0 2.7812 1.1055 5.4531 3.0742 7.4219s4.6367 3.0742 7.4219 3.0742h52.48v20.992h-52.48c-5.7969 0-10.496 4.6992-10.496 10.496s4.6992 10.496 10.496 10.496h20.992v10.496c0 5.7969 4.6992 10.496 10.496 10.496s10.496-4.6992 10.496-10.496z"/>
  <path d="m620.41 274.05h-136.45v-31.488c0-2.7852-1.1055-5.4531-3.0742-7.4219-1.9648-1.9688-4.6367-3.0742-7.418-3.0742h-293.89c-5.7969 0-10.496 4.6992-10.496 10.496v209.92c0 2.7812 1.1055 5.4531 3.0742 7.4219 1.9688 1.9648 4.6367 3.0742 7.4219 3.0742h20.992v52.48-0.003906c0.019531 4.2383 2.5859 8.0469 6.5078 9.6562 3.9062 1.6445 8.4219 0.77734 11.441-2.2031l59.824-59.93h37.684v31.488-0.003906c0 2.7852 1.1055 5.457 3.0742 7.4219 1.9688 1.9688 4.6367 3.0742 7.4219 3.0742h195.12l59.828 59.934c3.0156 2.9805 7.5312 3.8477 11.438 2.2031 3.9219-1.6094 6.4883-5.418 6.5078-9.6562v-52.48h20.992c2.7852 0 5.4531-1.1055 7.4219-3.0742 1.9688-1.9648 3.0742-4.6367 3.0742-7.4219v-209.92c0-2.7852-1.1055-5.4531-3.0742-7.4219s-4.6367-3.0742-7.4219-3.0742zm-346.37 167.94c-2.7891-0.019531-5.4727 1.0781-7.4531 3.043l-45.027 45.133v-37.68c0-2.7852-1.1055-5.457-3.0742-7.4219-1.9688-1.9688-4.6367-3.0742-7.4219-3.0742h-20.992v-188.93h272.9v188.93zm335.87 41.984-20.992-0.003906c-5.7969 0-10.496 4.6992-10.496 10.496v37.68l-45.027-45.133v0.003907c-1.9805-1.9648-4.6602-3.0625-7.4531-3.0469h-188.93v-20.988h136.45c2.7812 0 5.4531-1.1094 7.418-3.0742 1.9688-1.9688 3.0742-4.6406 3.0742-7.4219v-157.44h125.95z"/>
  <path d="m546.94 420.99c8.3516 0 16.363-3.3203 22.266-9.2227 5.9062-5.9062 9.2227-13.914 9.2227-22.266 0-8.3516-3.3164-16.363-9.2227-22.266-5.9023-5.9062-13.914-9.2227-22.266-9.2227-8.3516 0-16.359 3.3164-22.266 9.2227-5.9023 5.9023-9.2227 13.914-9.2227 22.266 0 8.3516 3.3203 16.359 9.2227 22.266 5.9062 5.9023 13.914 9.2227 22.266 9.2227zm0-41.984c4.2461 0 8.0742 2.5547 9.6992 6.4766s0.72656 8.4375-2.2773 11.441c-3 3-7.5156 3.8984-11.438 2.2734s-6.4805-5.4531-6.4805-9.6953c0-5.7969 4.6992-10.496 10.496-10.496z"/>
 </g>
</svg>