<?xml version="1.0" encoding="UTF-8"?>
<!-- The Best Svg Icon site in the world: iconSvg.co, Visit us! https://iconsvg.co -->
<svg width="800px" height="800px" version="1.1" viewBox="144 144 512 512" xmlns="http://www.w3.org/2000/svg">
 <defs>
  <clipPath id="b">
   <path d="m190 148.09h41v40.906h-41z"/>
  </clipPath>
  <clipPath id="a">
   <path d="m527 611h41v40.902h-41z"/>
  </clipPath>
 </defs>
 <path d="m551.54 573.18h-289.96c-3.1758 0-6.2266-3.0781-6.2266-6.2578v-385.46c0-3.1758 3.0508-4.832 6.2266-4.832h217.26c1.4844 0 2.9102 0.11328 3.9805 1.1406l72.777 69.512c1.1289 1.0859 1.8477 2.3555 1.8477 3.9219v315.72c-0.003906 3.1758-2.7266 6.2578-5.9062 6.2578zm-283.39-11.809h277.49l0.003906-307.72-69.109-66.203h-208.38z"/>
 <path d="m514.71 603.69h-289.96c-3.1797 0-5.8164-2.5156-5.8164-5.6953v-385.46c0-3.1758 2.7266-5.7539 5.9023-5.7539s5.9023 2.5742 5.9023 5.7539l0.003906 380.34h283.96c3.1758 0 5.7539 2.2344 5.7539 5.4102 0 3.1797-2.5742 5.4141-5.7539 5.4141z"/>
 <path d="m549.07 257.32h-0.023438-70.008c-3.1758 0-6.2305-2.4922-6.2305-5.668l0.003906-70.656c0-2.332 1.6484-4.4336 3.8047-5.3203 2.1523-0.88672 4.7539-0.38672 6.3945 1.2695l69.773 70.359c1.2148 1.0547 2.0156 2.5664 2.0156 4.3047-0.003907 3.1797-2.5508 5.7109-5.7305 5.7109zm-64.453-11.805h50.633l-50.633-50.539z"/>
 <path d="m517.02 316.36h-222.07c-3.1758 0-5.7539-2.2344-5.7539-5.4102s2.5742-5.4102 5.7539-5.4102h222.07c3.1758 0 5.7539 2.2344 5.7539 5.4102-0.003907 3.1758-2.5781 5.4102-5.7539 5.4102z"/>
 <path d="m517.02 346.86h-222.07c-3.1758 0-5.7539-2.7266-5.7539-5.9023 0-3.1758 2.5742-5.9023 5.7539-5.9023h222.07c3.1758 0 5.7539 2.7266 5.7539 5.9023-0.003907 3.1758-2.5781 5.9023-5.7539 5.9023z"/>
 <path d="m517.02 378.35h-222.07c-3.1758 0-5.7539-2.7266-5.7539-5.9023s2.5742-5.9023 5.7539-5.9023h222.07c3.1758 0 5.7539 2.7266 5.7539 5.9023-0.003907 3.1758-2.5781 5.9023-5.7539 5.9023z"/>
 <path d="m517.02 409.84h-222.07c-3.1758 0-5.7539-2.7266-5.7539-5.9023s2.5742-5.9023 5.7539-5.9023h222.07c3.1758 0 5.7539 2.7266 5.7539 5.9023-0.003907 3.1758-2.5781 5.9023-5.7539 5.9023z"/>
 <path d="m406.55 528.95c-3.1758 0-5.7539-2.5742-5.7539-5.7539v-9.6758c-5.0664-0.38672-10.25-1.8242-15.141-4.3203-2.8281-1.4453-3.9531-4.9102-2.5078-7.7383 1.4453-2.8281 4.9102-3.9531 7.7383-2.5078 10.191 5.2031 19.152 3.2461 23.73-0.015625 2.5312-1.8047 3.8789-4.0781 3.5977-6.0898-0.44531-3.1953-4.6875-6.5156-11.348-8.8789-18.363-6.5156-23.637-17.137-22.445-24.902 1.1094-7.2461 7.3438-12.512 16.371-14.207v-10.262c0-3.1797 2.5742-5.7539 5.7539-5.7539 3.1797 0 5.7539 2.5742 5.7539 5.7539v9.9453c3.5469 0.39062 7.2539 1.1953 11.086 2.4062 3.0273 0.96094 4.7031 4.1953 3.7461 7.2227-0.96094 3.0273-4.1953 4.707-7.2227 3.7461-4.9414-1.5664-9.5078-2.2773-13.59-2.1172-6.4453 0.23437-10.168 2.6953-10.52 5.0078-0.41016 2.6758 3.2227 8.168 14.922 12.316 14.977 5.3164 18.266 13.641 18.895 18.133 0.88672 6.3398-2.2227 12.715-8.3203 17.055-2.6836 1.9102-5.7266 3.3086-8.9922 4.1914v10.695c0 3.1758-2.5742 5.75-5.7539 5.75z"/>
 <path d="m523 532c0 3.1758-2.5742 5.7539-5.7539 5.7539h-62.297c-3.1758 0-5.7539-2.5742-5.7539-5.7539v-96.73c0-3.1758 2.5742-5.7539 5.7539-5.7539h62.297c3.1758 0 5.7539 2.5742 5.7539 5.7539zm-62.977-6.0547h51.168v-85.609h-51.168z"/>
 <path d="m364.57 532c0 3.1758-2.5742 5.7539-5.7539 5.7539h-63.277c-3.1758 0-5.7539-2.5742-5.7539-5.7539v-96.73c0-3.1758 2.5742-5.7539 5.7539-5.7539h63.277c3.1758 0 5.7539 2.5742 5.7539 5.7539zm-62.977-6.0547h50.184v-85.609h-50.184z"/>
 <path d="m614.51 570.38c0 3.1758-2.5742 5.7539-5.7539 5.7539h-35.727c-3.1758 0-5.7539-2.5742-5.7539-5.7539v-226.62c0-3.1758 2.5742-5.7539 5.7539-5.7539h35.727c3.1758 0 5.7539 2.5742 5.7539 5.7539zm-35.426-6.0547h23.617v-215.5h-23.617z"/>
 <path d="m614.51 570.38c0 3.1758-2.5742 5.7539-5.7539 5.7539h-35.727c-3.1758 0-5.7539-2.5742-5.7539-5.7539v-43.598c0-3.1758 2.5742-5.7539 5.7539-5.7539h35.727c3.1758 0 5.7539 2.5742 5.7539 5.7539zm-35.426-6.0547h23.617v-32.473h-23.617z"/>
 <path d="m614.51 528.07c0 3.1758-2.5742 5.7539-5.7539 5.7539h-35.727c-3.1758 0-5.7539-2.5742-5.7539-5.7539v-17.031c0-3.1758 2.5742-5.7539 5.7539-5.7539h35.727c3.1758 0 5.7539 2.5742 5.7539 5.7539zm-35.426-7.0391h23.617v-4.9219h-23.617z"/>
 <path d="m605.66 597.93c0 3.1758-2.5742 5.7539-5.7539 5.7539h-17.027c-3.1758 0-5.7539-2.5742-5.7539-5.7539v-27.855c0-3.1758 2.5742-5.7539 5.7539-5.7539h17.027c3.1758 0 5.7539 2.5742 5.7539 5.7539zm-17.715-5.0703h4.9219v-16.727h-4.9219z"/>
 <path d="m624.03 562.36h-14.957c-3.1758 0-5.7539-2.7266-5.7539-5.9023s2.5742-5.9023 5.7539-5.9023l9.375-0.003907v-64.168c0-3.1758 2.7266-5.7539 5.9023-5.7539 3.1758 0 5.9023 2.5742 5.9023 5.7539v70.188c0.003906 3.1797-3.0469 5.7891-6.2227 5.7891z"/>
 <path d="m608.53 348.83h-35.211c-1.9883 0-3.8359-0.71484-4.8867-2.4023-1.0469-1.6914-1.1523-3.6445-0.26953-5.4297l17.164-34.48c0.96094-1.9453 2.9336-2.9492 5.1016-2.9492h0.058593c2.1445 0 4.1133 1.0156 5.1055 2.9219l18.047 34.648c0.92578 1.7852 0.85547 3.5664-0.1875 5.2812-1.0469 1.7148-2.9102 2.4102-4.9219 2.4102zm-25.949-10.824h16.48l-8.4453-16.258z"/>
 <g clip-path="url(#b)">
  <path d="m210.95 188.37c-3.1758 0-5.7539-2.5742-5.7539-5.7539v-8.0547h-9.2031c-3.1758 0-5.7539-2.5742-5.7539-5.7539 0-3.1758 2.5742-5.7539 5.7539-5.7539h9.2031v-9.2031c0-3.1797 2.5742-5.7539 5.7539-5.7539 3.1758 0 5.7539 2.5742 5.7539 5.7539v9.2031h8.0547c3.1758 0 5.7539 2.5742 5.7539 5.7539 0 3.1758-2.5742 5.7539-5.7539 5.7539h-8.0547v8.0547c0 3.1758-2.5781 5.7539-5.7539 5.7539z"/>
 </g>
 <path d="m620.36 282.6c-1.4727 0-2.9453-0.5625-4.0664-1.6836l-10.41-10.41-10.41 10.41c-2.2461 2.2461-5.8906 2.2461-8.1367 0-2.2461-2.2461-2.2461-5.8906 0-8.1367l10.406-10.41-10.406-10.41c-2.2461-2.2461-2.2461-5.8906 0-8.1367 2.2461-2.2461 5.8906-2.2461 8.1367 0l10.41 10.41 10.41-10.41c2.2461-2.2461 5.8906-2.2461 8.1367 0 2.2461 2.2461 2.2461 5.8906 0 8.1367l-10.41 10.41 10.41 10.41c2.2461 2.2461 2.2461 5.8906 0 8.1367-1.125 1.1211-2.5977 1.6836-4.0703 1.6836z"/>
 <path d="m204.66 644.66c-1.4727 0-2.9453-0.5625-4.0664-1.6875l-10.41-10.41-10.41 10.41c-2.2461 2.2461-5.8906 2.2461-8.1367 0-2.2461-2.2461-2.2461-5.8867 0-8.1367l10.41-10.41-10.41-10.41c-2.2461-2.2461-2.2461-5.8906 0-8.1367 2.25-2.2461 5.8906-2.2461 8.1367 0l10.41 10.41 10.41-10.41c2.2461-2.2461 5.8906-2.2461 8.1367 0 2.2461 2.2461 2.2461 5.8906 0 8.1367l-10.41 10.41 10.41 10.41c2.2461 2.2461 2.2461 5.8906 0 8.1367-1.1289 1.125-2.6016 1.6875-4.0703 1.6875z"/>
 <path d="m560.07 204.74c-11.176 0-20.266-9.0742-20.266-20.23 0-11.172 9.0898-20.262 20.266-20.262 11.156 0 20.23 9.0898 20.23 20.262 0 11.156-9.0742 20.23-20.23 20.23zm0-28.988c-4.8281 0-8.7578 3.9297-8.7578 8.7578 0 4.8125 3.9297 8.7266 8.7578 8.7266 4.8125 0 8.7227-3.9141 8.7227-8.7266 0-4.8281-3.9141-8.7578-8.7227-8.7578z"/>
 <g clip-path="url(#a)">
  <path d="m547.62 651.9c-11.148 0-20.223-9.0703-20.223-20.223 0-11.16 9.0742-20.238 20.223-20.238 11.16 0 20.238 9.0781 20.238 20.238 0.003906 11.152-9.0781 20.223-20.238 20.223zm0-28.953c-4.8047 0-8.7148 3.918-8.7148 8.7344 0 4.8086 3.9102 8.7148 8.7148 8.7148 4.8164 0 8.7344-3.9102 8.7344-8.7148 0-4.8164-3.918-8.7344-8.7344-8.7344z"/>
 </g>
</svg>