<?xml version="1.0" encoding="UTF-8"?>
<!-- The Best Svg Icon site in the world: iconSvg.co, Visit us! https://iconsvg.co -->
<svg width="800px" height="800px" version="1.1" viewBox="144 144 512 512" xmlns="http://www.w3.org/2000/svg">
 <defs>
  <clipPath id="b">
   <path d="m155 557h490v94.902h-490z"/>
  </clipPath>
  <clipPath id="a">
   <path d="m321 148.09h158v126.91h-158z"/>
  </clipPath>
 </defs>
 <g clip-path="url(#b)">
  <path d="m643.47 641.1-31.488-78.719c-1.1992-2.9883-4.0938-4.9453-7.3125-4.9453h-94.465c-3.2188 0-6.1172 1.957-7.3125 4.9453l-24.176 60.449-24.176-60.449c-1.1953-2.9883-4.0938-4.9453-7.3125-4.9453h-94.465c-3.2188 0-6.1133 1.957-7.3125 4.9453l-24.176 60.449-24.176-60.449c-1.1953-2.9883-4.0938-4.9453-7.3125-4.9453h-94.465c-3.2188 0-6.1133 1.957-7.3125 4.9453l-31.488 78.719c-0.97266 2.4297-0.67578 5.1797 0.78906 7.3438 1.4648 2.1641 3.9102 3.4609 6.5234 3.457h472.32c2.6133 0.003906 5.0586-1.293 6.5234-3.457 1.4648-2.1641 1.7617-4.9141 0.78906-7.3438zm-468.01-4.9414 25.191-62.977h83.805l25.191 62.977zm157.44 0 25.191-62.977h83.805l25.191 62.977zm157.44 0 25.191-62.977h83.801l25.191 62.977z"/>
 </g>
 <path d="m236.04 538.24c1.4648 2.1641 3.9062 3.457 6.5195 3.457h314.88c2.6172 0 5.0586-1.293 6.5273-3.457 1.4648-2.168 1.7578-4.918 0.78906-7.3438l-31.488-78.719c-1.1992-2.9883-4.0938-4.9492-7.3164-4.9453h-94.461c-3.2227-0.003907-6.1172 1.957-7.3164 4.9453l-24.172 60.449-24.176-60.449c-1.1992-2.9883-4.0938-4.9492-7.3125-4.9453h-47.234c-4.3477 0-7.8711 3.5234-7.8711 7.8711 0 4.3477 3.5234 7.875 7.8711 7.875h41.902l25.191 62.977-134.19-0.003906 11.43-28.559c1.6211-4.0391-0.34375-8.625-4.3828-10.242-4.0391-1.6172-8.625 0.34766-10.242 4.3867l-15.742 39.359c-0.97266 2.4297-0.67578 5.1797 0.79297 7.3438zm200.78-75.262h83.805l25.191 62.977-134.19-0.003906z"/>
 <path d="m392.12 352.77c4.3477 0 7.875-3.5234 7.875-7.8711 0-4.3477-3.5273-7.8711-7.875-7.8711h-39.359c-3.2188-0.003907-6.1133 1.9531-7.3125 4.9414l-31.488 78.719v0.003906c-0.97266 2.4258-0.67578 5.1758 0.78906 7.3398 1.4648 2.1641 3.9102 3.4609 6.5234 3.4609h157.44c2.6133 0 5.0586-1.2969 6.5234-3.4609 1.4648-2.1641 1.7617-4.9141 0.78906-7.3398l-12.594-31.488c-1.6172-4.0391-6.2031-6.0039-10.242-4.3867-4.0391 1.6172-6.0039 6.2031-4.3867 10.242l8.2812 20.688h-134.18l25.191-62.977z"/>
 <g clip-path="url(#a)">
  <path d="m329.15 242.56h23.617v23.617c0 4.3477 3.5234 7.8711 7.8711 7.8711 4.3477 0 7.875-3.5234 7.875-7.8711v-31.488c0-2.0898-0.83203-4.0898-2.3086-5.5664-1.4766-1.4766-3.4766-2.3086-5.5664-2.3086h-13.812l53.176-59.039 53.176 59.039h-13.816c-4.3477 0-7.8711 3.5273-7.8711 7.875v31.488c0 4.3477 3.5234 7.8711 7.8711 7.8711s7.8711-3.5234 7.8711-7.8711v-23.617h23.617c3.1094 0 5.9258-1.832 7.1875-4.6719 1.2656-2.8398 0.73828-6.1562-1.3398-8.4688l-70.848-78.719c-1.5273-1.5938-3.6406-2.4922-5.8477-2.4922-2.2109 0-4.3203 0.89844-5.8516 2.4922l-70.848 78.719c-2.0781 2.3125-2.6055 5.6289-1.3398 8.4688 1.2656 2.8398 4.082 4.6719 7.1875 4.6719z"/>
 </g>
 <path d="m171.71 289.79h23.613v118.08c0 4.3477 3.5273 7.8711 7.875 7.8711 4.3477 0 7.8711-3.5234 7.8711-7.8711v-125.95c0-2.0859-0.82812-4.0898-2.3047-5.5664-1.4766-1.4766-3.4805-2.3047-5.5664-2.3047h-13.816l53.176-59.082 53.176 59.082h-13.816c-4.3477 0-7.8711 3.5234-7.8711 7.8711v47.23c0 4.3477 3.5234 7.875 7.8711 7.875 4.3477 0 7.8711-3.5273 7.8711-7.875v-39.359h23.617c3.1094 0 5.9258-1.8281 7.1914-4.668 1.2617-2.8398 0.73828-6.1602-1.3438-8.4688l-70.848-78.719v-0.003906c-1.5273-1.5898-3.6406-2.4922-5.8477-2.4922-2.207 0-4.3203 0.90234-5.8477 2.4922l-70.848 78.719-0.003906 0.003906c-2.0781 2.3086-2.6016 5.6289-1.3398 8.4688 1.2656 2.8398 4.082 4.668 7.1914 4.668z"/>
 <path d="m486.59 289.79h23.617v39.359c0 4.3477 3.5234 7.875 7.8711 7.875s7.8711-3.5273 7.8711-7.875v-47.23c0-2.0859-0.82812-4.0898-2.3047-5.5664-1.4766-1.4766-3.4766-2.3047-5.5664-2.3047h-13.816l53.176-59.082 53.176 59.082h-13.812c-4.3477 0-7.875 3.5234-7.875 7.8711v125.95c0 4.3477 3.5273 7.8711 7.875 7.8711 4.3477 0 7.8711-3.5234 7.8711-7.8711v-118.08h23.617c3.1055 0 5.9219-1.8281 7.1875-4.668 1.2656-2.8398 0.73828-6.1602-1.3398-8.4688l-70.848-78.719v-0.003906c-1.5312-1.5898-3.6406-2.4922-5.8516-2.4922-2.207 0-4.3203 0.90234-5.8477 2.4922l-70.848 78.719v0.003906c-2.0781 2.3086-2.6055 5.6289-1.3398 8.4688 1.2617 2.8398 4.0781 4.668 7.1875 4.668z"/>
 <path d="m470.85 337.02h-15.746v-15.746c0-4.3477-3.5234-7.8711-7.8711-7.8711-4.3477 0-7.8711 3.5234-7.8711 7.8711v15.742l-15.746 0.003907c-4.3477 0-7.8711 3.5234-7.8711 7.8711 0 4.3477 3.5234 7.8711 7.8711 7.8711h15.742v15.742l0.003906 0.003907c0 4.3477 3.5234 7.8711 7.8711 7.8711 4.3477 0 7.8711-3.5234 7.8711-7.8711v-15.746h15.746c4.3477 0 7.8711-3.5234 7.8711-7.8711 0-4.3477-3.5234-7.8711-7.8711-7.8711z"/>
 <path d="m274.05 431.49c-4.3477 0-7.8711 3.5234-7.8711 7.8711v7.8711h-7.875c-4.3477 0-7.8711 3.5234-7.8711 7.8711 0 4.3477 3.5234 7.875 7.8711 7.875h7.8711v7.8711h0.003906c0 4.3477 3.5234 7.8711 7.8711 7.8711s7.8711-3.5234 7.8711-7.8711v-7.8711h7.8711c4.3477 0 7.875-3.5273 7.875-7.875 0-4.3477-3.5273-7.8711-7.875-7.8711h-7.8711v-7.8711c0-2.0898-0.82812-4.0898-2.3047-5.5664-1.4766-1.4766-3.4805-2.3047-5.5664-2.3047z"/>
</svg>