<?xml version="1.0" encoding="UTF-8"?>
<!-- The Best Svg Icon site in the world: iconSvg.co, Visit us! https://iconsvg.co -->
<svg fill="#000000" width="800px" height="800px" version="1.1" viewBox="144 144 512 512" xmlns="http://www.w3.org/2000/svg">
 <g>
  <path d="m415.63 387.26c-0.16406-0.21484-0.64062-0.57031-1.4297-1.0625-0.79297-0.48828-1.7969-1.0195-3.0195-1.5938-1.2227-0.57031-2.5859-1.1133-4.082-1.6328-1.4961-0.51562-3.0078-0.88281-4.5312-1.1016v11.102l2.6133 0.65234c2.7734 0.76172 5.2773 1.5938 7.5117 2.4883 2.2344 0.89844 4.1211 2.0156 5.6758 3.3477 1.5508 1.332 2.7461 2.9531 3.5898 4.8594s1.2656 4.1914 1.2656 6.8594c0 3.1016-0.54687 5.7422-1.6328 7.918-1.0859 2.1758-2.543 3.957-4.3672 5.3477-1.8242 1.3867-3.918 2.4375-6.2852 3.1445-2.3672 0.70703-4.8594 1.1133-7.4727 1.2227v9.4688h-5.6328v-9.5508c-3.7578-0.32812-7.4688-1.0859-11.145-2.2852-3.6719-1.1953-6.9805-2.7773-9.918-4.7344l5.8789-11.676c0.21484 0.27344 0.80078 0.72266 1.7539 1.3477s2.1641 1.2812 3.6328 1.957c1.4688 0.67969 3.1289 1.3359 4.9805 1.9609 1.8477 0.625 3.7539 1.0742 5.7148 1.3477v-10.859l-3.918-1.1445c-2.668-0.81641-4.9805-1.7031-6.9375-2.6523-1.9609-0.95313-3.582-2.0547-4.8594-3.3047-1.2773-1.25-2.2344-2.6953-2.8594-4.3281s-0.9375-3.5391-0.9375-5.7148c0-2.8281 0.48828-5.3477 1.4688-7.5508 0.98047-2.2031 2.2969-4.0938 3.9609-5.6719 1.6602-1.5781 3.6172-2.8164 5.8789-3.7148 2.2578-0.89844 4.6953-1.4805 7.3047-1.7539v-8.2461h5.6328v8.2461c3.5352 0.32812 6.8594 1.1172 9.9609 2.3672 3.1016 1.2539 5.7969 2.5312 8.082 3.8359zm-22.613-0.73438c0 1.3594 0.47656 2.4375 1.4297 3.2266 0.95312 0.78906 2.3789 1.4844 4.2852 2.082v-10.043c-3.8125 0.32812-5.7148 1.9062-5.7148 4.7344zm15.836 25.961c0-1.4141-0.57031-2.5156-1.7109-3.3047-1.1445-0.78906-2.668-1.5078-4.5742-2.1602v9.7969c4.1914-0.16797 6.2852-1.6094 6.2852-4.332z"/>
  <path d="m400 456.22c-31.004 0-56.227-25.223-56.227-56.227s25.223-56.227 56.227-56.227 56.227 25.223 56.227 56.227c-0.003906 31.004-25.227 56.227-56.227 56.227zm0-104.58c-26.66 0-48.352 21.691-48.352 48.352s21.691 48.352 48.352 48.352 48.352-21.691 48.352-48.352-21.691-48.352-48.352-48.352z"/>
  <path d="m400 505.43c-58.133 0-105.43-47.293-105.43-105.43 0-2.1719 1.7617-3.9375 3.9375-3.9375 2.1719 0 3.9375 1.7617 3.9375 3.9375 0 53.793 43.762 97.555 97.555 97.555 53.793 0 97.555-43.762 97.555-97.555s-43.762-97.555-97.555-97.555c-2.1719 0-3.9375-1.7617-3.9375-3.9375 0-2.1719 1.7617-3.9375 3.9375-3.9375 58.133 0 105.43 47.293 105.43 105.43-0.003907 58.133-47.301 105.43-105.43 105.43z"/>
  <path d="m400 620.41c-58.875 0-114.23-22.926-155.86-64.559-41.633-41.629-64.559-96.98-64.559-155.86s22.926-114.23 64.559-155.86 96.98-64.559 155.86-64.559c58.875 0 114.23 22.926 155.86 64.559 41.629 41.633 64.555 96.98 64.555 155.86 0 58.875-22.926 114.23-64.559 155.86-41.629 41.629-96.98 64.555-155.86 64.555zm0-432.96c-117.2 0-212.55 95.348-212.55 212.55s95.348 212.54 212.54 212.54c117.2 0 212.54-95.348 212.54-212.54 0.003907-117.2-95.344-212.55-212.54-212.55z"/>
  <path d="m400 551.54c-83.559 0-151.54-67.98-151.54-151.54 0-83.559 67.98-151.54 151.54-151.54 83.559 0 151.54 67.98 151.54 151.54s-67.98 151.54-151.54 151.54zm0-295.2c-79.219 0-143.66 64.449-143.66 143.66 0 79.219 64.449 143.66 143.66 143.66 79.219 0 143.66-64.449 143.66-143.66 0-79.219-64.449-143.66-143.66-143.66z"/>
  <path d="m400 256.34c-2.1719 0-3.9375-1.7617-3.9375-3.9375v-68.879c0-2.1719 1.7617-3.9375 3.9375-3.9375 2.1719 0 3.9375 1.7617 3.9375 3.9375v68.879c-0.003906 2.1719-1.7656 3.9375-3.9375 3.9375z"/>
  <path d="m400 620.41c-2.1719 0-3.9375-1.7617-3.9375-3.9375v-68.879c0-2.1719 1.7617-3.9375 3.9375-3.9375 2.1719 0 3.9375 1.7617 3.9375 3.9375v68.879c-0.003906 2.1758-1.7656 3.9375-3.9375 3.9375z"/>
  <path d="m504.37 299.57c-1.0078 0-2.0156-0.38281-2.7812-1.1523-1.5391-1.5352-1.5391-4.0312 0-5.5664l48.703-48.707c1.5352-1.5352 4.0273-1.5352 5.5664 0 1.5391 1.5352 1.5391 4.0312 0 5.5664l-48.703 48.707c-0.76953 0.76563-1.7773 1.1523-2.7852 1.1523z"/>
  <path d="m246.93 557.01c-1.0078 0-2.0156-0.38281-2.7852-1.1523-1.5352-1.5352-1.5352-4.0312 0-5.5664l48.707-48.703c1.5391-1.5391 4.0312-1.5352 5.5664 0 1.5352 1.5352 1.5352 4.0312 0 5.5664l-48.707 48.703c-0.76953 0.76953-1.7773 1.1523-2.7812 1.1523z"/>
  <path d="m616.48 403.93h-68.879c-2.1719 0-3.9375-1.7617-3.9375-3.9375 0-2.1719 1.7617-3.9375 3.9375-3.9375h68.879c2.1719 0 3.9375 1.7617 3.9375 3.9375-0.003907 2.1758-1.7656 3.9375-3.9375 3.9375z"/>
  <path d="m252.4 403.93h-68.879c-2.1719 0-3.9375-1.7617-3.9375-3.9375 0-2.1719 1.7617-3.9375 3.9375-3.9375h68.879c2.1719 0 3.9375 1.7617 3.9375 3.9375 0 2.1758-1.7656 3.9375-3.9375 3.9375z"/>
  <path d="m553.07 557.01c-1.0078 0-2.0156-0.38281-2.7812-1.1523l-48.703-48.703c-1.5391-1.5352-1.5391-4.0312 0-5.5664 1.5352-1.5391 4.0312-1.5391 5.5664 0l48.703 48.703c1.5391 1.5352 1.5391 4.0312 0 5.5664-0.77344 0.76953-1.7812 1.1523-2.7852 1.1523z"/>
  <path d="m295.63 299.57c-1.0078 0-2.0156-0.38281-2.7852-1.1523l-48.707-48.707c-1.5352-1.5391-1.5352-4.0312 0-5.5664 1.5391-1.5352 4.0312-1.5352 5.5664 0l48.707 48.707c1.5352 1.5391 1.5352 4.0312 0 5.5664-0.76562 0.76563-1.7734 1.1523-2.7812 1.1523z"/>
 </g>
</svg>