<?xml version="1.0" encoding="UTF-8"?>
<!-- The Best Svg Icon site in the world: iconSvg.co, Visit us! https://iconsvg.co -->
<svg fill="#000000" width="800px" height="800px" version="1.1" viewBox="144 144 512 512" xmlns="http://www.w3.org/2000/svg">
 <g>
  <path d="m442.81 475.25c4.1719 0 7.5586-3.3867 7.5586-7.5586v-15.133c0-4.1719-3.3867-7.5586-7.5586-7.5586s-7.5586 3.3867-7.5586 7.5586v15.133c0 4.1758 3.3867 7.5586 7.5586 7.5586z"/>
  <path d="m442.81 530.75c4.1719 0 7.5586-3.3867 7.5586-7.5586v-15.141c0-4.1719-3.3867-7.5586-7.5586-7.5586s-7.5586 3.3867-7.5586 7.5586v15.141c0 4.1758 3.3867 7.5586 7.5586 7.5586z"/>
  <path d="m442.81 419.75c4.1719 0 7.5586-3.3867 7.5586-7.5586v-7.5586c0-4.1719-3.3867-7.5586-7.5586-7.5586s-7.5586 3.3867-7.5586 7.5586v7.5586c0 4.1758 3.3867 7.5586 7.5586 7.5586z"/>
  <path d="m313.1 366.23c4.1719 0 7.5586-3.3867 7.5586-7.5586v-7.5586c0-4.1719-3.3867-7.5586-7.5586-7.5586-4.1719 0-7.5586 3.3867-7.5586 7.5586v7.5586c0 4.1758 3.3867 7.5586 7.5586 7.5586z"/>
  <path d="m507.06 491.27c4.1719 0 7.5586-3.3867 7.5586-7.5586v-12.605c0-4.1719-3.3867-7.5586-7.5586-7.5586s-7.5586 3.3867-7.5586 7.5586v12.605c0.003906 4.1719 3.3867 7.5586 7.5586 7.5586z"/>
  <path d="m507.06 537.49c4.1719 0 7.5586-3.3867 7.5586-7.5586v-12.605c0-4.1719-3.3867-7.5586-7.5586-7.5586s-7.5586 3.3867-7.5586 7.5586v12.605c0.003906 4.1758 3.3867 7.5586 7.5586 7.5586z"/>
  <path d="m594.27 484.21-0.38281-50.934c-0.035156-4.7422-2.7344-9.0703-6.9844-11.18-4.2422-2.1172-9.3242-1.668-13.125 1.1641l-13.336 9.9141-87.828-75.742c-4.375-3.7695-10.535-4.7266-15.852-2.4297l-57.473 24.773-129.9-129.9c-5.9062-5.9062-15.469-5.9062-21.371 0-5.75 5.7422-5.8555 14.934-0.41797 20.863v140.95c-30.078 17.277-50.383 49.645-50.383 86.816 0 55.305 44.828 100.13 100.13 100.13 22.453 0 43.117-7.4805 59.812-19.965h214.97c4.1719 0 7.5586-3.3867 7.5586-7.5586v-72.609c0-0.058594-0.015625-0.10938-0.015625-0.17188 0.66406 0.10547 1.3398 0.17188 2.0117 0.17188h0.10156c6.957 0 12.594-5.6367 12.594-12.594 0-0.57812-0.035156-1.1445-0.10937-1.6992zm-209.1-75.812c4.3789 4.3789 10.988 5.6445 16.672 3.1953l58.207-25.086 42.969 37.059c-2.1016 1.3438-3.5078 3.6797-3.5078 6.3633v7.5586c0 4.1719 3.3867 7.5586 7.5586 7.5586 4.1719 0 7.5586-3.3867 7.5586-7.5586v-3.9102l20.957 18.078-11.602 8.625c-3.8086 2.832-5.7031 7.5586-4.9023 12.238 0.80078 4.6758 4.1602 8.5039 8.6953 9.9062l38.148 11.801c-0.83984 1.2188-1.3438 2.6914-1.3438 4.2891v65.051h-49.957c0-4.1719-3.3867-7.5586-7.5586-7.5586s-7.5586 3.3867-7.5586 7.5586h-49.141c0-4.1719-3.3867-7.5586-7.5586-7.5586s-7.5586 3.3867-7.5586 7.5586h-45.012c0-4.1719-3.3867-7.5586-7.5586-7.5586-1.7773 0-3.3867 0.64063-4.6758 1.6641 12.188-16.586 19.473-37 19.473-59.156 0-17.664-4.6094-34.23-12.641-48.637 3.1133-0.9375 5.3945-3.7891 5.3945-7.2031v-7.5586c0-4.1719-3.3867-7.5586-7.5586-7.5586s-7.5586 3.3867-7.5586 7.5586v0.38672c-14.555-17.945-35.172-30.723-58.746-35.262 2.5234-1.2227 4.2773-3.7891 4.2773-6.7812v-9.4883c0-4.1719-3.3867-7.5586-7.5586-7.5586-4.1719 0-7.5586 3.3867-7.5586 7.5586l0.011718 9.4766c0 2.1719 0.92578 4.1094 2.3945 5.4922-3.4766-0.36719-7.0078-0.57031-10.586-0.57031-12.195 0-23.824 2.2891-34.637 6.2812v-118.71zm-9.5078 152.39c-0.33203 0.85547-0.53516 1.7852-0.53516 2.7617h-1.75c0.77734-0.90625 1.5391-1.8242 2.2852-2.7617zm-70.754-7.2383v6.9766c0 4.1758-3.3789 7.5586-7.5586 7.5586-4.1758 0-7.5586-3.3789-7.5586-7.5586v-6.918c-6.1875-1.0391-14.148-4.0312-20.625-12.594-4.3125-5.6523-5.5078-11.465-5.5078-19.746 0 0 0.63672-6.5156 8.7656-6.5156 8.1328 0 8.0156 6.5156 8.0156 6.5156 0 12.488 9.8125 15.539 16.688 15.539 14.801 0 17.668-9.0039 17.66-13.637-0.023437-11.977-9.9453-13.961-15.133-15.23 0 0-27.797-4.875-33.621-20.148-6.7578-17.707-0.16016-27.941 3.7852-33.258 4.5156-6.0391 11.199-9.582 19.973-10.711v-7.3594c0-4.1758 3.3789-7.5586 7.5586-7.5586 4.1758 0 7.5586 3.3789 7.5586 7.5586v7.7578c7.332 1.4414 13.375 4.8164 17.629 10.398 3.6875 4.832 6.3398 12.977 5.668 17.84-0.14453 1.0781-1.3008 7.0312-8.7969 7.0312s-8.0156-6.2578-8.0156-6.2578c-0.4375-3.7969-0.95703-5.4023-2.5703-7.6016-2.9258-3.793-7.4102-4.9062-13.992-4.9062-3.875 0-7.1289 0.84766-9.7578 2.5352-3.2227 2.1094-4.3984 5.2109-4.832 9.2383-1.1367 10.559 9.5391 14.363 12.168 15.203l17.109 5.6445c19.051 6.5664 22.059 19.254 22.059 27.531-0.003906 11.375-7.2773 29.312-26.668 32.672z"/>
 </g>
</svg>