<?xml version="1.0" encoding="UTF-8"?>
<!-- The Best Svg Icon site in the world: iconSvg.co, Visit us! https://iconsvg.co -->
<svg fill="#000000" width="800px" height="800px" version="1.1" viewBox="144 144 512 512" xmlns="http://www.w3.org/2000/svg">
 <g>
  <path d="m400 187.45c-18.793 0-36.812 7.4648-50.098 20.75-13.289 13.289-20.754 31.309-20.754 50.098 0 18.793 7.4648 36.812 20.754 50.098 13.285 13.289 31.305 20.75 50.098 20.75 18.789 0 36.809-7.4609 50.098-20.75 13.285-13.285 20.75-31.305 20.75-50.098-0.023437-18.781-7.4961-36.789-20.777-50.07s-31.289-20.754-50.07-20.777zm0 125.95c-14.617 0-28.633-5.8047-38.965-16.141-10.336-10.332-16.141-24.348-16.141-38.965 0-14.613 5.8047-28.629 16.141-38.965 10.332-10.332 24.348-16.137 38.965-16.137 14.613 0 28.629 5.8047 38.965 16.137 10.332 10.336 16.137 24.352 16.137 38.965-0.015624 14.609-5.8281 28.617-16.156 38.949-10.332 10.328-24.336 16.141-38.945 16.156z"/>
  <path d="m407.87 305.54v-7.8711c8.4375 0 16.234-4.5039 20.453-11.809 4.2188-7.3086 4.2188-16.309 0-23.617-4.2188-7.3086-12.016-11.809-20.453-11.809h-15.746c-4.3477 0-7.8711-3.5234-7.8711-7.8711s3.5234-7.8711 7.8711-7.8711h15.746c2.0859 0 4.0898 0.82812 5.5664 2.3047 1.4766 1.4766 2.3047 3.4766 2.3047 5.5664 0 4.3477 3.5234 7.8711 7.8711 7.8711 4.3477 0 7.875-3.5234 7.875-7.8711 0-6.2656-2.4883-12.27-6.918-16.699-4.4297-4.4297-10.438-6.918-16.699-6.918v-7.8711c0-4.3477-3.5234-7.8711-7.8711-7.8711s-7.875 3.5234-7.875 7.8711v7.8711c-8.4375 0-16.23 4.5-20.449 11.809s-4.2188 16.309 0 23.617c4.2188 7.3047 12.012 11.809 20.449 11.809h15.746c4.3477 0 7.8711 3.5234 7.8711 7.8711s-3.5234 7.8711-7.8711 7.8711h-15.746c-4.3477 0-7.8711-3.5234-7.8711-7.8711s-3.5234-7.8711-7.8711-7.8711c-4.3477 0-7.8711 3.5234-7.8711 7.8711 0 6.2617 2.4883 12.27 6.9141 16.699 4.4297 4.4297 10.438 6.918 16.699 6.918v7.8711c0 4.3477 3.5273 7.8711 7.875 7.8711s7.8711-3.5234 7.8711-7.8711z"/>
  <path d="m226.81 352.77h346.37c2.0859 0 4.0898-0.82812 5.5664-2.3047 1.4766-1.4766 2.3047-3.4805 2.3047-5.5664v-173.18c0-2.0898-0.82813-4.0898-2.3047-5.5664-1.4766-1.4766-3.4805-2.3086-5.5664-2.3086h-346.37c-4.3477 0-7.8711 3.5273-7.8711 7.875v173.18c0 2.0859 0.82812 4.0898 2.3047 5.5664 1.4766 1.4766 3.4805 2.3047 5.5664 2.3047zm338.5-70.305h0.003906c-13.855 1.7656-26.73 8.082-36.605 17.957s-16.191 22.75-17.957 36.605h-221.5c-1.7656-13.855-8.082-26.73-17.957-36.605s-22.75-16.191-36.602-17.957v-48.316c13.852-1.7695 26.727-8.0859 36.602-17.961s16.191-22.75 17.957-36.602h221.5c1.7656 13.852 8.082 26.727 17.957 36.602s22.75 16.191 36.605 17.961zm-330.62 15.91c9.6484 1.6484 18.551 6.2539 25.473 13.176 6.9258 6.9219 11.527 15.824 13.176 25.477h-38.648zm291.97 38.652c1.6484-9.6523 6.2539-18.555 13.176-25.477 6.9219-6.9219 15.824-11.527 25.477-13.176v38.652zm38.652-118.79c-9.6523-1.6484-18.555-6.2539-25.477-13.176-6.9219-6.9258-11.527-15.824-13.176-25.477h38.652zm-291.98-38.652c-1.6484 9.6523-6.25 18.551-13.176 25.477-6.9219 6.9219-15.824 11.527-25.473 13.176v-38.652z"/>
  <path d="m518.08 250.43h-23.617c-4.3477 0-7.8711 3.5234-7.8711 7.8711 0 4.3477 3.5234 7.875 7.8711 7.875h23.617c4.3477 0 7.8711-3.5273 7.8711-7.875 0-4.3477-3.5234-7.8711-7.8711-7.8711z"/>
  <path d="m305.54 250.43h-23.617c-4.3477 0-7.8711 3.5234-7.8711 7.8711 0 4.3477 3.5234 7.875 7.8711 7.875h23.617c4.3477 0 7.8711-3.5273 7.8711-7.875 0-4.3477-3.5234-7.8711-7.8711-7.8711z"/>
  <path d="m565.31 423.61c2.0859 0 4.0898-0.82812 5.5664-2.3047 1.4766-1.4766 2.3047-3.4766 2.3047-5.5664v-23.617c0-2.0859-0.82812-4.0898-2.3047-5.5664-1.4766-1.4766-3.4805-2.3047-5.5664-2.3047h-157.44v-15.742c0-4.3477-3.5234-7.875-7.8711-7.875s-7.875 3.5273-7.875 7.875v15.742h-157.44c-4.3477 0-7.875 3.5234-7.875 7.8711v23.617c0 4.3477 3.5273 7.8711 7.875 7.8711s7.8711-3.5234 7.8711-7.8711v-15.742h149.57v15.742c0 4.3477 3.5273 7.8711 7.875 7.8711s7.8711-3.5234 7.8711-7.8711v-15.742h149.57v15.742c0 2.0898 0.83203 4.0898 2.3086 5.5664 1.4766 1.4766 3.4766 2.3047 5.5664 2.3047z"/>
  <path d="m415.74 510.21h-31.488c-14.609 0.015625-28.613 5.8281-38.945 16.156-10.332 10.332-16.141 24.34-16.16 38.949v62.977c0 2.0859 0.83203 4.0898 2.3086 5.5664 1.4766 1.4727 3.4766 2.3047 5.5664 2.3047h125.95c2.0859 0 4.0898-0.83203 5.5664-2.3047 1.4727-1.4766 2.3047-3.4805 2.3047-5.5664v-62.977c-0.019531-14.609-5.8281-28.617-16.16-38.949-10.328-10.328-24.336-16.141-38.945-16.156zm-70.848 110.21v-55.102c0.027344-8.1367 2.5859-16.059 7.3203-22.672l24.324 77.773zm34.086-45.027-13.855-44.242c4.0625-2.3203 8.5195-3.8672 13.148-4.5625l5.8242 23.223zm26.688-49.438-3.9375 15.742h-3.4648l-3.9375-15.742zm1.3398 94.465h-14.016l-4.25-13.699 9.8398-49.277h2.832l9.8398 49.277zm8.8945-70.613 5.8242-23.223v0.003906c4.625 0.69531 9.082 2.2422 13.145 4.5625l-13.855 44.242zm39.199 70.613h-31.645l24.324-77.777v0.003906c4.7383 6.6133 7.2969 14.535 7.3203 22.672z"/>
  <path d="m439.36 470.85c0-10.441-4.1484-20.453-11.527-27.832-7.3828-7.3828-17.395-11.527-27.832-11.527-10.441 0-20.453 4.1445-27.832 11.527-7.3828 7.3789-11.531 17.391-11.531 27.832 0 10.438 4.1484 20.449 11.531 27.832 7.3789 7.3789 17.391 11.527 27.832 11.527 10.434-0.011719 20.438-4.1641 27.816-11.543 7.3789-7.3789 11.531-17.383 11.543-27.816zm-39.359 23.617v-0.003906c-6.2656 0-12.273-2.4844-16.699-6.9141-4.4297-4.4297-6.918-10.438-6.918-16.699 0-6.2656 2.4883-12.27 6.918-16.699 4.4258-4.4297 10.434-6.918 16.699-6.918 6.2617 0 12.27 2.4883 16.699 6.918 4.4258 4.4297 6.9141 10.434 6.9141 16.699 0 6.2617-2.4883 12.27-6.9141 16.699-4.4297 4.4297-10.438 6.9141-16.699 6.9141z"/>
  <path d="m581.05 510.21h-31.488c-14.609 0.015625-28.613 5.8281-38.945 16.156-10.332 10.332-16.141 24.34-16.16 38.949v62.977c0 2.0859 0.83203 4.0898 2.3086 5.5664 1.4766 1.4727 3.4766 2.3047 5.5664 2.3047h125.95c2.0859 0 4.0898-0.83203 5.5664-2.3047 1.4727-1.4766 2.3047-3.4805 2.3047-5.5664v-62.977c-0.019531-14.609-5.8281-28.617-16.16-38.949-10.328-10.328-24.336-16.141-38.945-16.156zm-70.848 110.21v-55.102c0.027344-8.1367 2.5859-16.059 7.3203-22.672l24.324 77.773zm34.086-45.027-13.855-44.242c4.0625-2.3203 8.5195-3.8672 13.148-4.5625l5.8242 23.223zm26.688-49.438-3.9375 15.742h-3.4648l-3.9375-15.742zm1.3398 94.465h-14.016l-4.25-13.699 9.8398-49.277h2.832l9.8398 49.277zm8.8945-70.613 5.8242-23.223v0.003906c4.625 0.69531 9.082 2.2422 13.145 4.5625l-13.855 44.242zm39.199 70.613h-31.645l24.324-77.777v0.003906c4.7383 6.6133 7.2969 14.535 7.3203 22.672z"/>
  <path d="m604.67 470.85c0-10.441-4.1484-20.453-11.527-27.832-7.3828-7.3828-17.395-11.527-27.832-11.527-10.441 0-20.453 4.1445-27.832 11.527-7.3828 7.3789-11.531 17.391-11.531 27.832 0 10.438 4.1484 20.449 11.531 27.832 7.3789 7.3789 17.391 11.527 27.832 11.527 10.434-0.011719 20.438-4.1641 27.816-11.543 7.3789-7.3789 11.531-17.383 11.543-27.816zm-39.359 23.617v-0.003906c-6.2656 0-12.273-2.4844-16.699-6.9141-4.4297-4.4297-6.918-10.438-6.918-16.699 0-6.2656 2.4883-12.27 6.918-16.699 4.4258-4.4297 10.434-6.918 16.699-6.918 6.2617 0 12.27 2.4883 16.699 6.918 4.4258 4.4297 6.9141 10.434 6.9141 16.699 0 6.2617-2.4883 12.27-6.9141 16.699-4.4297 4.4297-10.438 6.9141-16.699 6.9141z"/>
  <path d="m250.43 510.21h-31.488c-14.609 0.015625-28.613 5.8281-38.945 16.156-10.332 10.332-16.141 24.34-16.16 38.949v62.977c0 2.0859 0.83203 4.0898 2.3086 5.5664 1.4766 1.4727 3.4766 2.3047 5.5664 2.3047h125.95c2.0859 0 4.0898-0.83203 5.5664-2.3047 1.4727-1.4766 2.3047-3.4805 2.3047-5.5664v-62.977c-0.019531-14.609-5.8281-28.617-16.16-38.949-10.328-10.328-24.336-16.141-38.945-16.156zm-70.848 110.21v-55.102c0.027344-8.1367 2.5859-16.059 7.3203-22.672l24.324 77.773zm34.086-45.027-13.855-44.242c4.0625-2.3203 8.5195-3.8672 13.148-4.5625l5.8242 23.223zm26.688-49.438-3.9375 15.742h-3.4648l-3.9375-15.742zm1.3398 94.465h-14.016l-4.25-13.699 9.8398-49.277h2.832l9.8398 49.277zm8.8945-70.613 5.8242-23.223v0.003906c4.625 0.69531 9.082 2.2422 13.145 4.5625l-13.855 44.242zm39.199 70.613h-31.645l24.324-77.777v0.003906c4.7383 6.6133 7.2969 14.535 7.3203 22.672z"/>
  <path d="m274.05 470.85c0-10.441-4.1484-20.453-11.527-27.832-7.3828-7.3828-17.395-11.527-27.832-11.527-10.441 0-20.453 4.1445-27.832 11.527-7.3828 7.3789-11.531 17.391-11.531 27.832 0 10.438 4.1484 20.449 11.531 27.832 7.3789 7.3789 17.391 11.527 27.832 11.527 10.434-0.011719 20.438-4.1641 27.816-11.543 7.3789-7.3789 11.531-17.383 11.543-27.816zm-39.359 23.617v-0.003906c-6.2656 0-12.273-2.4844-16.699-6.9141-4.4297-4.4297-6.918-10.438-6.918-16.699 0-6.2656 2.4883-12.27 6.918-16.699 4.4258-4.4297 10.434-6.918 16.699-6.918 6.2617 0 12.27 2.4883 16.699 6.918 4.4258 4.4297 6.9141 10.434 6.9141 16.699 0 6.2617-2.4883 12.27-6.9141 16.699-4.4297 4.4297-10.438 6.9141-16.699 6.9141z"/>
 </g>
</svg>