<?xml version="1.0" encoding="UTF-8"?>
<!-- The Best Svg Icon site in the world: iconSvg.co, Visit us! https://iconsvg.co -->
<svg width="800px" height="800px" version="1.1" viewBox="144 144 512 512" xmlns="http://www.w3.org/2000/svg">
 <defs>
  <clipPath id="a">
   <path d="m148.09 148.09h503.81v503.81h-503.81z"/>
  </clipPath>
 </defs>
 <g clip-path="url(#a)">
  <path d="m596.8 510.21h-15.742v-13.699h-0.003906c14.934-11.789 23.637-29.777 23.617-48.805v-16.848c-0.027344-12.352-4.9453-24.191-13.68-32.926-8.7305-8.7305-20.57-13.648-32.922-13.676h-17.004c-12.352 0.027344-24.191 4.9453-32.926 13.676-8.7344 8.7344-13.652 20.574-13.68 32.926v16.848c-0.019532 19.027 8.6875 37.016 23.617 48.805v13.699h-15.742c-14.617 0-28.633 5.8047-38.965 16.141-10.336 10.332-16.141 24.348-16.141 38.965v62.977c0 6.2617 2.4883 12.27 6.918 16.695 4.4297 4.4297 10.434 6.918 16.699 6.918h157.44c6.2617 0 12.27-2.4883 16.695-6.918 4.4297-4.4258 6.918-10.434 6.918-16.695v-62.977c0-14.617-5.8047-28.633-16.141-38.965-10.332-10.336-24.348-16.141-38.961-16.141zm-86.594-62.504v-16.848c0.011719-8.1797 3.2656-16.02 9.0508-21.805 5.7852-5.7852 13.629-9.0391 21.809-9.0508h17.004c8.1797 0.011719 16.02 3.2656 21.805 9.0508 5.7852 5.7852 9.0391 13.625 9.0508 21.805v16.848c0.015625 9.1758-2.6836 18.148-7.7539 25.797-5.0664 7.6484-12.285 13.625-20.742 17.184-6.9336 2.9922-14.793 2.9922-21.727 0-8.457-3.5586-15.672-9.5352-20.742-17.184-5.0703-7.6484-7.7695-16.621-7.7539-25.797zm55.105 57.938v4.5664c0 5.625-3.0039 10.82-7.875 13.633s-10.871 2.8125-15.742 0c-4.8711-2.8125-7.8711-8.0078-7.8711-13.633v-4.5664c10.074 4.1992 21.41 4.1992 31.488 0zm70.848 122.65c0 2.0859-0.83203 4.0898-2.3047 5.5664-1.4766 1.4727-3.4805 2.3047-5.5664 2.3047h-23.617v-39.359c0-4.3477-3.5234-7.875-7.8711-7.875-4.3477 0-7.875 3.5273-7.875 7.875v39.359h-78.719v-39.359c0-4.3477-3.5234-7.875-7.8711-7.875-4.3477 0-7.875 3.5273-7.875 7.875v39.359h-23.613c-4.3477 0-7.8711-3.5234-7.8711-7.8711v-62.977c0-10.441 4.1445-20.453 11.527-27.832 7.3789-7.3828 17.391-11.531 27.832-11.531h20.121c3.6523 6.4062 9.457 11.309 16.379 13.844 6.9258 2.5312 14.523 2.5312 21.445 0 6.9258-2.5352 12.727-7.4375 16.383-13.844h20.137c10.438 0 20.449 4.1484 27.832 11.531 7.3789 7.3789 11.527 17.391 11.527 27.832zm-338.5-118.08h-15.742v-13.699h-0.003906c14.934-11.789 23.637-29.777 23.617-48.805v-16.848c-0.027344-12.352-4.9453-24.191-13.68-32.926-8.7344-8.7305-20.57-13.648-32.922-13.676h-17.004c-12.352 0.027344-24.191 4.9453-32.926 13.676-8.7344 8.7344-13.652 20.574-13.68 32.926v16.848c-0.019531 19.027 8.6836 37.016 23.617 48.805v13.699h-15.742c-14.617 0-28.633 5.8047-38.965 16.141-10.336 10.332-16.141 24.348-16.141 38.965v62.977c0 6.2617 2.4883 12.27 6.918 16.695 4.4297 4.4297 10.434 6.918 16.699 6.918h157.44-0.003906c6.2656 0 12.273-2.4883 16.699-6.918 4.4297-4.4258 6.918-10.434 6.918-16.695v-62.977c0-14.617-5.8047-28.633-16.141-38.965-10.332-10.336-24.348-16.141-38.961-16.141zm-86.594-62.504v-16.848c0.011719-8.1797 3.2656-16.02 9.0508-21.805 5.7852-5.7852 13.625-9.0391 21.809-9.0508h17.004c8.1797 0.011719 16.02 3.2656 21.805 9.0508 5.7852 5.7852 9.0391 13.625 9.0508 21.805v16.848c0.015626 9.1758-2.6836 18.148-7.7539 25.797-5.0703 7.6484-12.285 13.625-20.742 17.184-6.9336 2.9922-14.793 2.9922-21.727 0-8.457-3.5586-15.672-9.5352-20.742-17.184-5.0703-7.6484-7.7695-16.621-7.7539-25.797zm55.105 57.938v4.5664c0 5.625-3.0039 10.82-7.875 13.633-4.8711 2.8125-10.871 2.8125-15.742 0s-7.8711-8.0078-7.8711-13.633v-4.5664c10.074 4.1992 21.41 4.1992 31.488 0zm70.848 122.65c0 2.0859-0.83203 4.0898-2.3086 5.5664-1.4727 1.4727-3.4766 2.3047-5.5664 2.3047h-23.613v-39.359c0-4.3477-3.5234-7.875-7.8711-7.875-4.3477 0-7.875 3.5273-7.875 7.875v39.359h-78.719v-39.359c0-4.3477-3.5234-7.875-7.8711-7.875-4.3477 0-7.875 3.5273-7.875 7.875v39.359h-23.613c-4.3477 0-7.875-3.5234-7.875-7.8711v-62.977c0-10.441 4.1484-20.453 11.531-27.832 7.3789-7.3828 17.391-11.531 27.832-11.531h20.121c3.6523 6.4062 9.457 11.309 16.379 13.844 6.9258 2.5312 14.523 2.5312 21.445 0 6.9258-2.5352 12.727-7.4375 16.383-13.844h20.137c10.438 0 20.449 4.1484 27.828 11.531 7.3828 7.3789 11.531 17.391 11.531 27.832zm55.102-417.22h15.746c4.1758 0 8.1797 1.6602 11.133 4.6094 2.9531 2.9531 4.6094 6.957 4.6094 11.133 0 4.3477 3.5273 7.875 7.875 7.875 4.3477 0 7.8711-3.5273 7.8711-7.875-0.027344-8.3438-3.3516-16.336-9.25-22.238-5.9023-5.8984-13.895-9.2227-22.238-9.25v-7.8711c0-4.3477-3.5234-7.8711-7.8711-7.8711s-7.875 3.5234-7.875 7.8711v7.8711c-11.25 0-21.645 6.0039-27.27 15.746-5.625 9.7422-5.625 21.746 0 31.488 5.625 9.7422 16.02 15.742 27.27 15.742h15.746c5.625 0 10.82 3.0039 13.633 7.875 2.8125 4.8711 2.8125 10.871 0 15.742-2.8125 4.8711-8.0078 7.8711-13.633 7.8711h-15.746c-4.1758 0-8.1797-1.6562-11.133-4.6094-2.9492-2.9531-4.6094-6.957-4.6094-11.133 0-4.3477-3.5234-7.8711-7.8711-7.8711-4.3477 0-7.875 3.5234-7.875 7.8711 0.027343 8.3438 3.3516 16.336 9.25 22.238 5.9023 5.8984 13.895 9.2227 22.238 9.25v7.8711c0 4.3477 3.5273 7.8711 7.875 7.8711s7.8711-3.5234 7.8711-7.8711v-7.8711c11.25 0 21.645-6.0039 27.27-15.746 5.625-9.7422 5.625-21.746 0-31.488-5.625-9.7422-16.02-15.742-27.27-15.742h-15.746c-5.625 0-10.82-3-13.633-7.8711s-2.8125-10.875 0-15.746 8.0078-7.8711 13.633-7.8711zm109.89 47.23h0.31641 15.742c6.2656 0 12.27 2.4883 16.699 6.918 4.4297 4.4297 6.918 10.438 6.918 16.699v59.828l-8.832-8.832c-3.0898-2.9844-8-2.9414-11.035 0.09375-3.0391 3.0391-3.0781 7.9492-0.097656 11.035l22.246 22.246c1.4766 1.4805 3.4844 2.3125 5.5742 2.3125 2.0898 0 4.0977-0.83203 5.5742-2.3125l22.246-22.246c2.9844-3.0859 2.9414-7.9961-0.097656-11.035-3.0352-3.0352-7.9453-3.0781-11.035-0.09375l-8.8008 8.832v-59.828c0-10.438-4.1445-20.449-11.527-27.832-7.3828-7.3828-17.391-11.527-27.832-11.527h-15.742-0.31641c-2.7148-34.551-22.734-65.375-53.188-81.914-30.457-16.535-67.211-16.535-97.668 0-30.453 16.539-50.469 47.363-53.188 81.914h-16.059c-10.438 0-20.449 4.1445-27.832 11.527-7.3828 7.3828-11.527 17.395-11.527 27.832v59.828l-8.832-8.832c-3.0898-2.9844-8-2.9414-11.035 0.09375-3.0391 3.0391-3.082 7.9492-0.097656 11.035l22.262 22.262c1.4766 1.4805 3.4844 2.3125 5.5742 2.3125 2.0898 0 4.0977-0.83203 5.5742-2.3125l22.246-22.246c2.9844-3.0859 2.9414-7.9961-0.097656-11.035-3.0352-3.0352-7.9453-3.0781-11.035-0.09375l-8.8164 8.8164v-59.828c0-6.2617 2.4883-12.27 6.918-16.699s10.438-6.918 16.699-6.918h16.059c2.7188 34.551 22.734 65.375 53.188 81.914 30.457 16.535 67.211 16.535 97.668 0 30.453-16.539 50.473-47.363 53.188-81.914zm-102.02 78.723c-22.969 0-44.992-9.125-61.23-25.363-16.238-16.238-25.363-38.266-25.363-61.23 0-22.965 9.125-44.992 25.363-61.23s38.262-25.363 61.23-25.363c22.965 0 44.988 9.125 61.227 25.363 16.242 16.238 25.363 38.266 25.363 61.23-0.039063 22.953-9.1758 44.953-25.406 61.184-16.23 16.23-38.23 25.367-61.184 25.41z"/>
 </g>
</svg>