<?xml version="1.0" encoding="UTF-8"?>
<!-- The Best Svg Icon site in the world: iconSvg.co, Visit us! https://iconsvg.co -->
<svg fill="#000000" width="800px" height="800px" version="1.1" viewBox="144 144 512 512" xmlns="http://www.w3.org/2000/svg">
 <g>
  <path d="m526.92 169.07h-205.8c-12.961 0-23.512 10.547-23.512 23.512v230.36c0 0.125 0.050781 0.21875 0.0625 0.32422-3.3477 1.5312-6.8633 2.6641-10.484 3.3359-4.0625 0.75391-6.7695 4.6719-6.0039 8.7734 0.27344 1.418 0.93359 2.7305 1.9297 3.7461 4.7969 5.0586 8.3867 11.211 10.434 17.855v0.94531c-2.0469 6.6445-5.6484 12.816-10.434 17.855-1.375 1.457-2.1094 3.3359-2.0586 5.3516 0.050781 1.9844 0.87109 3.8516 2.2969 5.207 1.0586 1.0273 2.3945 1.6992 3.832 1.9727 6.8438 1.2695 13.371 4.1445 18.934 8.3242l0.54687 0.75391c1.4492 4.1992 2.1836 8.6289 2.3398 13.078l-58.395 80.035c-1.2812 1.7617-1.3438 4.1445-0.16797 5.9609 1.1875 1.8281 3.4023 2.7305 5.4883 2.2773l47.852-10.148 28.035 40.074c1.0078 1.4375 2.625 2.2344 4.3047 2.2344 0.41797 0 0.85156-0.042969 1.2695-0.16797 2.1094-0.51562 3.6719-2.2969 3.9375-4.4492l11.156-91.758c0.55469 0.85937 1.2695 1.5938 1.7617 2.5 1.3125 2.4141 3.832 3.9141 6.582 3.9141 1.25 0 2.4766-0.32422 3.5273-0.88281 1.2891-0.69141 2.3633-1.7422 3.0547-3.0352 0.48438-0.90234 1.207-1.6367 1.7422-2.5l11.156 91.758c0.26172 2.1719 1.8359 3.9375 3.9375 4.4727 0.41797 0.10547 0.85156 0.16797 1.2695 0.16797 1.6914 0 3.3047-0.82031 4.3047-2.2344l28.035-40.094 47.852 10.148c2.1094 0.47266 4.3242-0.45312 5.4883-2.2773 1.1641-1.8281 1.1016-4.1758-0.16797-5.9414l-26.691-36.566h82.551c12.953 0 23.512-10.539 23.512-23.512l-0.003907-337.86c0.011719-12.973-10.527-23.512-23.477-23.512zm-194.36 442.35-22.168-31.699c-1.207-1.7227-3.3281-2.5625-5.3828-2.1289l-37.84 8.0195 44.555-61.023c1.1953 0.90234 2.625 1.6172 4.4492 1.8477 0.77734 0 2.5195-0.38672 3.2344-0.73438 6.0469-2.8672 12.793-4.4102 19.5-4.4102l0.66016 0.019531c0.31641 0.10547 0.62891 0.21094 0.93359 0.30469 1.0273 0.71484 1.8477 1.6992 2.8125 2.5195-0.0625 0.21875-0.19922 0.42969-0.21875 0.66016zm28.254-83.77c-3.9766-5.9609-9.1094-11.156-15.051-15.168-0.44141-0.30469-0.91406-0.53516-1.418-0.67188l-2.1406-0.69141c-0.50391-0.1875-1.0391-0.26172-1.5625-0.28516l-1.7422-0.019532c-6.582 0-13.16 1.1875-19.332 3.4648 0-0.45312-0.09375-0.90234-0.082031-1.375 0.125-0.73438 0.0625-1.457-0.125-2.1719-0.14844-5.9844-1.0273-11.953-3.0664-17.57-0.17969-0.49219-0.42969-0.96484-0.73438-1.375l-1.3438-1.8672c-0.30469-0.42969-0.66016-0.79688-1.0898-1.125-5.668-4.3867-12.164-7.6602-19.07-9.6133 4.4297-5.6367 7.7773-12.113 9.7734-19.008 0.14844-0.49219 0.21875-1.0273 0.21094-1.5547v-2.2773c0.011719-0.53516-0.0625-1.0703-0.21094-1.5547-1.9961-6.8867-5.332-13.34-9.7734-18.988 6.8945-1.9727 13.414-5.2266 19.07-9.6367 0.41016-0.32422 0.77734-0.71484 1.0898-1.1445l1.3438-1.8477c0.31641-0.42969 0.56641-0.88281 0.73438-1.375 2.4258-6.75 3.5391-13.938 3.2734-21.109 6.1719 2.2656 12.754 3.4648 19.332 3.4648l1.7422-0.019532c0.53516-0.019531 1.0703-0.11719 1.5625-0.29297l2.1406-0.69141c0.50391-0.15625 0.98828-0.37891 1.418-0.67188 5.9297-4.0312 11.074-9.2266 15.051-15.168 3.9766 5.9531 9.1016 11.137 15.039 15.168 0.44141 0.29297 0.91406 0.52344 1.4258 0.67188l2.1406 0.70312c0.50391 0.17969 1.0391 0.27344 1.5625 0.29297l1.7422 0.019531c6.5586 0 13.152-1.1875 19.332-3.4648-0.26172 7.1602 0.82812 14.367 3.2656 21.117 0.1875 0.49219 0.42969 0.96484 0.73438 1.375l1.332 1.8477c0.30469 0.42969 0.67188 0.82031 1.0898 1.1445 5.6562 4.3867 12.176 7.6523 19.082 9.6133-4.4492 5.6172-7.7891 12.09-9.7812 18.988-0.14844 0.49219-0.21875 1.0273-0.21094 1.5547v2.2773c-0.019531 0.53516 0.0625 1.0703 0.21094 1.5547 1.9844 6.8867 5.332 13.363 9.7812 19.008-6.9062 1.9531-13.426 5.2266-19.082 9.6133-0.41016 0.32422-0.77734 0.71484-1.0898 1.1445l-1.332 1.8477c-0.30469 0.41016-0.57812 0.88281-0.73438 1.375-2.0273 5.6367-2.9062 11.586-3.0664 17.59-0.1875 0.71484-0.23047 1.4375-0.125 2.1719 0.011719 0.45312-0.09375 0.90234-0.074218 1.3555-6.1719-2.2578-12.762-3.4648-19.332-3.4648l-1.7422 0.019531c-0.54688 0.019531-1.0586 0.125-1.5625 0.30469l-2.1523 0.69141c-0.50391 0.16797-0.98828 0.36719-1.418 0.67188-5.9336 4.0039-11.047 9.1914-15.035 15.152zm55.828 49.938c-2.0469-0.42969-4.1758 0.41016-5.3945 2.1289l-22.168 31.699-10.539-86.633c-0.03125-0.21875-0.16797-0.42969-0.21875-0.67188 0.97656-0.79688 1.793-1.7852 2.8242-2.5 0.31641-0.10547 0.62891-0.21094 0.93359-0.30469l0.66016-0.019532c6.7188 0 13.457 1.5312 19.5 4.4102 0.69141 0.34766 2.4453 0.73438 3.2422 0.73438 1.6992 0 3.2852-0.66016 4.5977-1.6602l44.398 60.844zm123.27-47.168c0 7.1797-5.8242 13.016-12.992 13.016h-89.238c-0.30469 0-0.57813 0.125-0.85938 0.16797l-24.191-33.145c0.16797-4.4297 0.88281-8.8594 2.3203-13.035 0.21094-0.26172 0.41016-0.55469 0.59766-0.82031 5.5508-4.1562 12.07-7.0117 18.902-8.2812 4.0625-0.75391 6.7695-4.6719 6.0039-8.7109-0.26172-1.4375-0.92188-2.7695-1.9297-3.832-4.7969-5.0273-8.4062-11.188-10.434-17.855l-0.003906-0.93359c2.0273-6.6445 5.6367-12.816 10.434-17.855 1.375-1.457 2.0898-3.3359 2.0469-5.3516-0.0625-1.9844-0.88281-3.8711-2.3398-5.2461-1.0703-1.0078-2.3828-1.6797-3.7891-1.9297-6.8242-1.2695-13.34-4.1445-18.926-8.3008-0.1875-0.26172-0.38672-0.55469-0.57812-0.79688-2.2344-6.582-2.9492-13.656-2.0469-20.551 0.26172-1.9844-0.26172-3.957-1.4805-5.5508-1.2266-1.5859-2.9922-2.6016-5.9414-2.9297-0.79688 0-2.5312 0.39844-3.2227 0.73438-6.0469 2.8867-12.805 4.4102-19.512 4.4102l-0.66016-0.011719c-0.31641-0.10547-0.62109-0.21094-0.93359-0.30469-5.6875-4.0078-10.41-9.3203-13.738-15.406-1.8906-3.5273-6.6445-4.9219-10.148-3.0352-1.2695 0.68359-2.3086 1.7109-3.0352 3.0234-3.2969 6.0977-8.0508 11.418-13.73 15.418-0.31641 0.09375-0.62109 0.19922-0.93359 0.30469l-0.66016 0.011719c-6.7266 0-13.465-1.5312-19.5-4.4102-0.70312-0.34766-2.4453-0.73438-3.2539-0.73438-2.8672 0-5.5195 1.6797-6.7695 4.2812-0.62109 1.3125-0.85156 2.7617-0.66016 4.1875 0.67188 5.1016 0.44141 10.309-0.62109 15.324v-219.69c0-7.1797 5.8359-13.016 13.016-13.016h205.79c7.1797 0 13.016 5.8359 13.016 13.016z"/>
  <path d="m376.36 230.73h92.07c2.8867 0 5.2461-2.3516 5.2461-5.2461 0-2.8984-2.3633-5.2461-5.2461-5.2461h-92.07c-2.8867 0-5.2461 2.3516-5.2461 5.2461-0.003907 2.8945 2.3281 5.2461 5.2461 5.2461z"/>
  <path d="m495.63 263.76h-146.5c-2.8867 0-5.2461 2.3516-5.2461 5.2461 0 2.8984 2.3633 5.2461 5.2461 5.2461h146.5c2.9062 0 5.2461-2.3516 5.2461-5.2461 0.003907-2.8984-2.3359-5.2461-5.2539-5.2461z"/>
  <path d="m495.63 307.29h-146.5c-2.8867 0-5.2461 2.3516-5.2461 5.2461 0 2.8984 2.3633 5.2461 5.2461 5.2461h146.5c2.9062 0 5.2461-2.3516 5.2461-5.2461 0.003907-2.8945-2.3359-5.2461-5.2539-5.2461z"/>
  <path d="m401.29 457.46c0-22.324-18.148-40.461-40.461-40.461-22.305 0-40.453 18.148-40.453 40.461 0 22.305 18.148 40.461 40.453 40.461 22.312 0 40.461-18.156 40.461-40.461zm-40.473 29.965c-16.531 0-29.965-13.445-29.965-29.965 0-16.52 13.445-29.957 29.965-29.957 16.52 0 29.957 13.426 29.957 29.957s-13.438 29.965-29.957 29.965z"/>
 </g>
</svg>