<?xml version="1.0" encoding="UTF-8"?>
<!-- The Best Svg Icon site in the world: iconSvg.co, Visit us! https://iconsvg.co -->
<svg fill="#000000" width="800px" height="800px" version="1.1" viewBox="144 144 512 512" xmlns="http://www.w3.org/2000/svg">
 <g>
  <path d="m179.89 531.66-15.742 55.105h-0.003907c-0.78516 2.75-0.019531 5.707 2 7.7305l39.359 39.359c3.0742 3.0742 8.0586 3.0742 11.133 0l15.742-15.742c2.1094-2.1094 2.8477-5.2266 1.9062-8.0547l-6.5742-19.68 7.2812-9.707 32.379 51.812v0.003906c1.4453 2.293 3.9648 3.6797 6.6758 3.6758h62.977c2.5273 0 4.9062-1.2148 6.3867-3.2695 1.4805-2.0508 1.8828-4.6914 1.082-7.0898l-7.8711-23.617c-0.55859-1.6602-1.6484-3.0859-3.1016-4.0625l-20.781-13.855-5.7773-34.699h128.08l52.742 82.949c1.4531 2.2812 3.9766 3.6602 6.6797 3.6445h55.105c2.0898 0 4.0898-0.83203 5.5664-2.3047 1.4766-1.4766 2.3047-3.4805 2.3047-5.5664v-23.617c0.019531-3-1.6719-5.7461-4.3516-7.0859l-27.137-13.523v-49.105l21.355 6.4062h0.003906c1.543 0.45703 3.1914 0.43359 4.7227-0.070312l21.633-7.2109 37.312 7.4531v0.003906c3.1289 0.64063 6.332-0.68359 8.0938-3.3477l15.742-23.617c2.082-3.1211 1.6719-7.2812-0.98438-9.9336l-22.906-22.93-23.121-38.574c-0.76953-1.2812-1.8867-2.3203-3.2266-2.9922l-63.395-31.676-55.105-23.617h0.003906c-0.75391-0.32031-1.5508-0.52344-2.3633-0.60547l-85.898-7.8086-85.957-23.395c-1.1328-0.30078-2.3164-0.35156-3.4688-0.15234l-59.891 10.848c-1.8594 0.33203-3.5352 1.3203-4.7266 2.7812l-34.547 42.453c-1.1484 1.4023-1.7734 3.1562-1.7734 4.9688v88.395c0 1.4727 0.41406 2.9219 1.1992 4.1719l1.4883 2.3633-9.8516 21.691c-0.16406 0.35547-0.29687 0.71875-0.39844 1.0938zm23.309-114.91 30.977-38 55.27-10.012 84.867 23.152c0.44531 0.12109 0.90234 0.20313 1.3633 0.24219l85.348 7.7539 53.531 22.938 60.922 30.457 22.441 37.398v0.003906c0.33203 0.55078 0.72656 1.0586 1.1797 1.5117l19.051 19.051-9.2266 13.832-34.164-6.8359c-1.3438-0.27344-2.7305-0.1875-4.0312 0.24609l-21.254 7.0859-76.359-22.898-4.5195 15.082 41.613 12.484v58.691c-0.015625 3 1.6719 5.7461 4.3516 7.0859l27.137 13.523v10.879h-42.91l-52.742-82.949v0.003906c-1.4531-2.2852-3.9766-3.6602-6.6836-3.6445h-141.7c-2.3164 0-4.5117 1.0195-6.0078 2.7852s-2.1367 4.1016-1.7578 6.3828l7.8711 47.23 0.003907 0.003906c0.35547 2.1445 1.5859 4.043 3.3906 5.25l21.371 14.25 3.5703 10.688h-47.699l-75.207-120.34zm-8.3359 119.8 5.2891-11.645 25.875 41.434-13.383 17.867c-1.5508 2.0664-1.9883 4.7617-1.1719 7.2109l6.2969 19.004-6.6992 6.7383-30.52-30.52z"/>
  <path d="m573.18 494.46c0.52734-0.015626 1.0547-0.066407 1.5742-0.15625 0.49219-0.085938 0.96875-0.24609 1.418-0.47266 0.5-0.17188 0.97656-0.41016 1.4141-0.70703 0.41406-0.29297 0.80859-0.60547 1.1836-0.94531 1.4375-1.5078 2.25-3.5039 2.2812-5.5898-0.011719-1.0273-0.22656-2.043-0.62891-2.9922-0.38281-0.96094-0.94141-1.8438-1.6523-2.5977l-1.1797-0.94531-0.003906 0.003906c-0.4375-0.30078-0.91406-0.53906-1.4141-0.71094-0.44922-0.22656-0.92578-0.38672-1.418-0.47266-2.5938-0.51562-5.2734 0.28125-7.1641 2.125-0.69531 0.76562-1.2539 1.6445-1.6523 2.5977-0.40234 0.94922-0.61719 1.9648-0.62891 2.9922-0.023438 2.0938 0.80078 4.1094 2.2812 5.5898 1.4805 1.4805 3.4961 2.3047 5.5898 2.2812z"/>
  <path d="m603.95 361.92 8.4219 25.254-96.469-48.234-38.18-68.723c-1.9727-3.5469-6.3203-5.0117-10.035-3.3828l-118.87 51.957-36.148-79.508c-0.74609-1.6445-2.0352-2.9805-3.6445-3.7891l-133.82-66.914-7.0391 14.09 131.33 65.66 38.234 84.078c1.7891 3.9102 6.3828 5.6602 10.32 3.9336l119.39-52.23 35.887 64.59h0.003906c0.77344 1.3867 1.9414 2.5078 3.3594 3.2227l98.652 49.332-25.262 8.4141 20.27 10.133 35.812-11.934-11.934-35.809z"/>
 </g>
</svg>