<?xml version="1.0" encoding="UTF-8"?>
<!-- The Best Svg Icon site in the world: iconSvg.co, Visit us! https://iconsvg.co -->
<svg fill="#000000" width="800px" height="800px" version="1.1" viewBox="144 144 512 512" xmlns="http://www.w3.org/2000/svg">
 <g>
  <path d="m203.2 171.71v456.58c0 2.0859 0.82812 4.0898 2.3047 5.5664 1.4766 1.4727 3.4766 2.3047 5.5664 2.3047h377.86c2.0898 0 4.0898-0.83203 5.5664-2.3047 1.4766-1.4766 2.3086-3.4805 2.3086-5.5664v-377.86c0-0.17188-0.085937-0.32422-0.10156-0.49609h-0.003907c-0.039062-0.6875-0.17187-1.3711-0.39844-2.0234-0.085937-0.25-0.14844-0.49609-0.26172-0.73828-0.38281-0.85547-0.91406-1.6367-1.5742-2.3086l-78.719-78.719c-0.67188-0.66016-1.457-1.1914-2.3164-1.5742-0.23438-0.10156-0.46484-0.16406-0.70703-0.25v-0.003906c-0.67188-0.23438-1.375-0.37109-2.0859-0.40625-0.125 0.007813-0.26953-0.074218-0.42578-0.074218h-299.14c-4.3477 0-7.8711 3.5273-7.8711 7.875zm314.88 19 51.848 51.848h-51.848zm-299.14-11.129h283.39v70.848c0 2.0898 0.82812 4.0898 2.3047 5.5664 1.4766 1.4766 3.4766 2.3047 5.5664 2.3047h70.848v362.11h-362.11z"/>
  <path d="m384.25 242.56h7.8711v9.3203c-7.0547 2.4844-12.508 8.1719-14.699 15.324-2.1914 7.1484-0.85547 14.918 3.5977 20.926 4.4531 6.0078 11.496 9.5469 18.977 9.5352 3.1836 0 6.0547 1.918 7.2695 4.8594 1.2188 2.9414 0.54688 6.3242-1.7031 8.5781-2.2539 2.25-5.6406 2.9258-8.582 1.707s-4.8594-4.0898-4.8594-7.2734h-15.742c0.019532 4.8672 1.543 9.6094 4.3633 13.574 2.8164 3.9688 6.793 6.9688 11.379 8.5938v9.3203h15.742l0.003906-9.3203c7.0547-2.4844 12.512-8.1719 14.699-15.324 2.1914-7.1523 0.85547-14.918-3.5977-20.926-4.4531-6.0117-11.496-9.5508-18.973-9.5352-3.1836 0-6.0547-1.918-7.2734-4.8594s-0.54687-6.3281 1.707-8.5781c2.25-2.2539 5.6367-2.9258 8.5781-1.707 2.9414 1.2188 4.8594 4.0898 4.8594 7.2734h15.742c-0.019531-4.8672-1.543-9.6094-4.3594-13.578-2.8203-3.9688-6.793-6.9688-11.383-8.5898v-9.3203h7.8711c10.434-0.011719 20.441-4.1641 27.82-11.543 7.375-7.3789 11.527-17.383 11.539-27.816 0-2.0898-0.82812-4.0898-2.3047-5.5664-1.4766-1.4766-3.4766-2.3086-5.5664-2.3086h-15.742c-12.438 0.035156-24.121 5.9688-31.488 15.988-7.3672-10.02-19.051-15.953-31.488-15.988h-15.746c-4.3477 0-7.8711 3.5273-7.8711 7.875 0.011719 10.434 4.1641 20.438 11.543 27.816s17.383 11.531 27.816 11.543zm47.23-31.488h6.5273c-1.6328 4.6016-4.6523 8.5859-8.6367 11.402-3.9883 2.8203-8.75 4.3359-13.633 4.3398h-6.5273c1.6367-4.6016 4.6523-8.582 8.6406-11.402 3.9883-2.8164 8.75-4.3359 13.633-4.3398zm-62.973 0c4.8828 0.003907 9.6445 1.5234 13.629 4.3398 3.9883 2.8203 7.0039 6.8008 8.6406 11.402h-6.5273c-4.8828-0.003906-9.6445-1.5195-13.629-4.3398-3.9883-2.8164-7.0078-6.8008-8.6406-11.402z"/>
  <path d="m242.56 478.72h165.31v-15.742h-140.41l24.82-8.2734c1.1602-0.39453 2.2109-1.043 3.0781-1.9062l20.176-20.176 42.617 14.168h0.003906c2.3047 0.76953 4.8359 0.42969 6.8555-0.92187l23.617-15.742-8.7383-13.098-20.414 13.672-43.578-14.523c-2.8281-0.94141-5.9453-0.20312-8.0547 1.9062l-22.301 22.27-35.109 11.695v-9.4453l43.141-43.141 44.754-7.4609h-0.003907c1.0977-0.17969 2.1445-0.59375 3.0703-1.2109l20.414-13.621 19.965 6.6523 4.9766-14.957-23.617-7.8711h-0.003906c-2.3047-0.75391-4.832-0.41406-6.8555 0.92187l-22.207 14.809-45.57 7.5977v-0.003906c-1.6172 0.26953-3.1094 1.0391-4.2656 2.1992l-33.797 33.84v-67.59h-15.742v118.08c0 2.0859 0.82812 4.0898 2.3047 5.5664 1.4766 1.4766 3.4766 2.3047 5.5664 2.3047z"/>
  <path d="m423.61 360.64v31.488c0 2.0898 0.83203 4.0898 2.3086 5.5664 1.4766 1.4766 3.4766 2.3086 5.5664 2.3086h31.488c2.0859 0 4.0898-0.83203 5.5664-2.3086 1.4727-1.4766 2.3047-3.4766 2.3047-5.5664v-31.488c0-2.0859-0.83203-4.0898-2.3047-5.5664-1.4766-1.4727-3.4805-2.3047-5.5664-2.3047h-31.488c-4.3477 0-7.875 3.5234-7.875 7.8711zm15.742 7.8711h15.742v15.742l-15.738 0.003906z"/>
  <path d="m470.85 455.1v-31.488c0-2.0859-0.83203-4.0898-2.3047-5.5664-1.4766-1.4766-3.4805-2.3047-5.5664-2.3047h-31.488c-4.3477 0-7.875 3.5234-7.875 7.8711v31.488c0 2.0898 0.83203 4.0898 2.3086 5.5664 1.4766 1.4766 3.4766 2.3086 5.5664 2.3086h31.488c2.0859 0 4.0898-0.83203 5.5664-2.3086 1.4727-1.4766 2.3047-3.4766 2.3047-5.5664zm-15.742-7.8711h-15.746v-15.742h15.742z"/>
  <path d="m486.59 368.51h78.719v15.742h-78.719z"/>
  <path d="m486.59 431.49h78.719v15.742h-78.719z"/>
  <path d="m297.66 510.21h133.82v15.742h-133.82z"/>
  <path d="m510.21 510.21h47.23v15.742h-47.23z"/>
  <path d="m297.66 573.18h133.82v15.742h-133.82z"/>
  <path d="m510.21 573.18h47.23v15.742h-47.23z"/>
  <path d="m447.23 510.21h47.23v15.742h-47.23z"/>
  <path d="m447.23 573.18h47.23v15.742h-47.23z"/>
  <path d="m258.3 494.46c-6.2617 0-12.27 2.4883-16.699 6.918-4.4258 4.4297-6.9141 10.438-6.9141 16.699 0 6.2656 2.4883 12.27 6.9141 16.699 4.4297 4.4297 10.438 6.918 16.699 6.918 6.2656 0 12.273-2.4883 16.699-6.918 4.4297-4.4297 6.918-10.434 6.918-16.699 0-6.2617-2.4883-12.27-6.918-16.699-4.4258-4.4297-10.434-6.918-16.699-6.918zm0 31.488c-3.1836 0-6.0547-1.918-7.2734-4.8594-1.2148-2.9414-0.54297-6.3242 1.707-8.5781 2.2539-2.25 5.6367-2.9258 8.582-1.707 2.9414 1.2188 4.8594 4.0898 4.8594 7.2734 0 2.0898-0.83203 4.0898-2.3086 5.5664-1.4766 1.4766-3.4766 2.3047-5.5664 2.3047z"/>
  <path d="m258.3 557.44c-6.2617 0-12.27 2.4883-16.699 6.918-4.4258 4.4297-6.9141 10.438-6.9141 16.699 0 6.2656 2.4883 12.27 6.9141 16.699 4.4297 4.4297 10.438 6.918 16.699 6.918 6.2656 0 12.273-2.4883 16.699-6.918 4.4297-4.4297 6.918-10.434 6.918-16.699 0-6.2617-2.4883-12.27-6.918-16.699-4.4258-4.4297-10.434-6.918-16.699-6.918zm0 31.488c-3.1836 0-6.0547-1.918-7.2734-4.8594-1.2148-2.9414-0.54297-6.3281 1.707-8.5781 2.2539-2.25 5.6367-2.9258 8.582-1.707 2.9414 1.2188 4.8594 4.0898 4.8594 7.2734 0 2.0898-0.83203 4.0898-2.3086 5.5664-1.4766 1.4766-3.4766 2.3047-5.5664 2.3047z"/>
 </g>
</svg>