<?xml version="1.0" encoding="UTF-8"?>
<!-- The Best Svg Icon site in the world: iconSvg.co, Visit us! https://iconsvg.co -->
<svg fill="#000000" width="800px" height="800px" version="1.1" viewBox="144 144 512 512" xmlns="http://www.w3.org/2000/svg">
 <g>
  <path d="m177.32 391.1 67.48-47.199v184.54c0 26.387 21.477 47.871 47.863 47.871h214.64c26.398 0 47.871-21.465 47.871-47.871v-184.54l67.488 47.199c0.90234 0.64062 1.9609 0.94531 2.9922 0.94531 1.6484 0 3.2852-0.77734 4.3047-2.2344 1.6602-2.3711 1.0898-5.6484-1.3008-7.3047l-73.484-51.398v-60.75c0-13.121-10.684-23.805-23.805-23.805s-23.816 10.676-23.816 23.805v27.438l-104.58-73.148c-1.8047-1.2578-4.1992-1.2578-6.0039 0l-225.66 157.85c-2.3828 1.6602-2.9609 4.9336-1.3008 7.3047 1.6875 2.3711 4.9531 2.9375 7.3125 1.2891zm340.75-120.75c0-7.3359 5.9609-13.309 13.32-13.309 7.3359 0 13.309 5.9727 13.309 13.309v53.395l-26.609-18.609zm-118.08-35.004 144.69 101.2v191.88c0 20.605-16.762 37.375-37.367 37.375h-214.65c-20.605 0-37.367-16.773-37.367-37.375v-191.87z"/>
  <path d="m356.59 433.55h86.785c2.8867 0 5.2461-2.3516 5.2461-5.2461v-86.633c0-2.8984-2.3633-5.2461-5.2461-5.2461h-86.785c-2.8984 0-5.2461 2.3516-5.2461 5.2461v86.633c0 2.9062 2.3516 5.2461 5.2461 5.2461zm33.66-63.48v-23.152h19.461v23.152c0 2.8984 2.3633 5.2461 5.2461 5.2461h23.164v19.332h-23.164c-2.8867 0-5.2461 2.3516-5.2461 5.2461v23.152h-19.461v-23.152c0-2.8984-2.3516-5.2461-5.2461-5.2461h-23.164v-19.332h23.164c2.8984 0.003907 5.2461-2.3398 5.2461-5.2461zm-28.41 52.984v-17.906h17.918v17.906zm76.293 0h-17.895v-17.906h17.895zm0-76.129v17.906h-17.895v-17.906zm-76.293 0h17.918v17.906h-17.918z"/>
 </g>
</svg>