<?xml version="1.0" encoding="UTF-8"?>
<!-- The Best Svg Icon site in the world: iconSvg.co, Visit us! https://iconsvg.co -->
<svg fill="#000000" width="800px" height="800px" version="1.1" viewBox="144 144 512 512" xmlns="http://www.w3.org/2000/svg">
 <g>
  <path d="m442.04 547.73h-83.035c5.6055-10.684 9.543-22.16 11.68-34.031 0.28516-1.4805 1.2773-2.7305 2.6562-3.3438 1.3789-0.60938 2.9688-0.50781 4.2578 0.27344 1.1445 0.74609 2.4805 1.1445 3.8477 1.1484h37.098c1.5117-0.035156 2.9844-0.47656 4.2617-1.2852 1.25-0.78906 2.8086-0.90625 4.168-0.32031 1.3359 0.59375 2.3203 1.7812 2.6562 3.207 2.6836 11.922 6.8555 23.465 12.41 34.352z"/>
  <path d="m418.55 520.95h-37.098c-3.082 0-6.0977-0.875-8.7031-2.5234-8.3164-4.8281-13.281-20.633-14.051-28.012-0.16016-1.5039 0.43359-2.9922 1.5859-3.9727 1.1523-0.97656 2.7148-1.3281 4.1758-0.92578 23.277 6.2578 47.801 6.2578 71.078 0 1.4609-0.39844 3.0234-0.050781 4.1758 0.93359 1.1523 0.98047 1.7422 2.4688 1.582 3.9766-0.77344 7.2266-5.6094 22.824-13.742 27.852v-0.003906c-2.6953 1.7109-5.8125 2.6367-9.0039 2.6758zm-49.281-24.836c1.2578 5.5195 4.1133 10.551 8.2109 14.457 1.1836 0.77734 2.5625 1.2031 3.9766 1.2188h37.098c1.5117-0.039063 2.9805-0.49609 4.2422-1.3242 3.9688-3.9219 6.7305-8.9023 7.9648-14.344-20.266 4.3516-41.227 4.3477-61.492-0.007812z"/>
  <path d="m496.55 591.2v13.328c-0.007813 2.9688-1.1914 5.8164-3.2969 7.9102-2.1055 2.0977-4.9531 3.2695-7.9258 3.2656h-170.01c-2.9648 0.003906-5.8086-1.1758-7.9062-3.2695-2.0977-2.0977-3.2734-4.9414-3.2695-7.9062v-13.328c0-9.0898 3.6094-17.809 10.031-24.242 6.4258-6.4336 15.137-10.051 24.227-10.062h123.85c9.0938 0.011719 17.812 3.6289 24.242 10.059 6.4336 6.4336 10.051 15.152 10.062 24.246z"/>
  <path d="m536.52 389.96c-1.3945 0-2.7148-0.63672-3.582-1.7266-0.87109-1.0938-1.1953-2.5195-0.88281-3.8789 2.1758-9.6328 3.2617-19.477 3.2383-29.352v-3.25c0-2.5312 2.0508-4.582 4.582-4.582 2.5273 0 4.5781 2.0508 4.5781 4.582v3.25c0.011719 8.25-0.69141 16.484-2.1016 24.609 2.8711-0.65234 5.6914-1.4922 8.4492-2.5195 17.488-6.0508 32.656-17.402 43.391-32.477 10.73-15.074 16.5-33.117 16.496-51.621v-44.922c-0.023438-7.8789-3.1719-15.426-8.7539-20.984-5.582-5.5625-13.141-8.6797-21.02-8.6719h-36.461v27.48c0 2.5273-2.0508 4.5781-4.5781 4.5781-2.5312 0-4.582-2.0508-4.582-4.5781v-32.062c0-2.5273 2.0508-4.5781 4.582-4.5781h41.039c10.309 0 20.191 4.0859 27.488 11.359 7.3008 7.2773 11.414 17.152 11.445 27.457v44.922c0.007812 20.383-6.3359 40.262-18.148 56.871-11.812 16.613-28.504 29.133-47.762 35.82-3.2852 1.2227-6.6523 2.2227-10.074 2.9844-2.3125 0.48828-4.4883 0.91797-6.668 1.2383-0.22266 0.03125-0.44922 0.046876-0.67578 0.050782z"/>
  <path d="m263.48 389.96c-0.22266-0.003906-0.44531-0.019532-0.66797-0.050782-2.1797-0.32031-4.3594-0.74609-6.5938-1.2266h-0.003906c-3.4961-0.78125-6.9414-1.8008-10.301-3.0508-19.219-6.7109-35.871-19.23-47.656-35.832-11.785-16.598-18.113-36.449-18.105-56.805v-44.922c0.027344-10.305 4.1445-20.18 11.441-27.457 7.2969-7.2734 17.184-11.359 27.488-11.359h41.051c1.2148 0 2.3789 0.48047 3.2383 1.3398 0.85938 0.85938 1.3398 2.0234 1.3398 3.2383v32.062c0 2.5273-2.0508 4.5781-4.5781 4.5781-2.5312 0-4.582-2.0508-4.582-4.5781v-27.48h-36.469c-7.8789-0.007813-15.438 3.1094-21.02 8.6719-5.582 5.5586-8.7305 13.105-8.75 20.984v44.922c0 18.477 5.7539 36.492 16.461 51.551 10.707 15.062 25.836 26.414 43.285 32.488 2.8047 1.043 5.6719 1.9023 8.5859 2.5781-1.4102-8.1289-2.1133-16.359-2.1016-24.609v-3.25c0-2.5312 2.0508-4.582 4.582-4.582 2.5273 0 4.5781 2.0508 4.5781 4.582v3.25c-0.023437 9.875 1.0625 19.719 3.2422 29.352 0.3125 1.3594-0.011719 2.7852-0.87891 3.8789-0.87109 1.0898-2.1914 1.7266-3.5859 1.7266z"/>
  <path d="m400 264.28c-20.57 0.003906-40.293 8.1797-54.832 22.727-14.543 14.547-22.711 34.273-22.707 54.844 0.003906 20.566 8.1797 40.289 22.723 54.832 14.547 14.543 34.273 22.711 54.844 22.707 20.566-0.003906 40.293-8.1758 54.832-22.719 14.543-14.547 22.715-34.273 22.711-54.84-0.023437-20.566-8.2031-40.281-22.746-54.82-14.543-14.539-34.262-22.715-54.824-22.73zm47.633 77.402-14.062 13.629-0.03125 0.027344v0.003906c-0.65234 0.63281-0.94141 1.5469-0.77734 2.4414l3.3281 19.379c0.77344 4.4883-1.0664 9.0273-4.7422 11.719-3.6797 2.6875-8.5625 3.0625-12.609 0.96484l-17.406-9.1328h0.003907c-0.80078-0.47266-1.793-0.48438-2.6016-0.027344l-17.406 9.1602h0.003906c-3.1641 1.6406-6.8945 1.7852-10.176 0.39453-3.3281-1.3906-5.8633-4.1953-6.9102-7.6523-0.085938-0.30078-0.14453-0.60547-0.17188-0.91797-0.023438-0.12891-0.042969-0.25781-0.058594-0.39453l-0.003906 0.003906c-0.21094-1.1055-0.24219-2.2305-0.10156-3.3438 0-0.20312 0.050782-0.41797 0.085938-0.60156l0.023437-0.14844 0.91797-5.3906c0-0.10547 0-0.21484 0.042969-0.3125l2.2891-13.676v0.003906c0.13672-0.60156 0.042969-1.2305-0.26562-1.7656-0.085937-0.21484-0.21094-0.41016-0.375-0.57031l-14.262-13.816c-3.2617-3.2031-4.4297-7.9727-3.0156-12.32 1.4141-4.3477 5.168-7.5195 9.6875-8.1914l19.379-2.8125c0.89062-0.10547 1.6602-0.66406 2.0391-1.4805l8.7461-17.672v0.003906c2.0273-4.0977 6.1992-6.6914 10.77-6.7031 4.5703-0.007813 8.75 2.5742 10.793 6.6602l8.7031 17.598c0.25391 0.54687 0.67578 0.99609 1.2031 1.2852 0.22266 0.070312 0.4375 0.16016 0.64062 0.26172l0.41406 0.070313 0.91797 0.16797 18.352 2.6133v0.003906c3.6641 0.50391 6.8828 2.6914 8.6992 5.9102 0.12109 0.21875 0.22266 0.44531 0.30469 0.67969 2.3281 4.6641 1.3711 10.297-2.3672 13.926z"/>
  <path d="m519.68 184.3h-239.17c-6.5938-0.019531-12.926 2.5781-17.605 7.2266-4.6797 4.6445-7.3242 10.957-7.3555 17.551v145.92c-0.015625 10.555 1.1523 21.078 3.4805 31.371 9.5977 43.07 38.352 79.391 78.074 98.605 39.719 19.219 86.043 19.227 125.77 0.023438 39.727-19.207 68.496-55.516 78.105-98.582 2.3281-10.309 3.4922-20.848 3.4805-31.418v-145.92c-0.003906-6.5703-2.6172-12.871-7.2617-17.516-4.6445-4.6445-10.945-7.2578-17.516-7.2617zm-119.68 244.25c-23-0.003906-45.051-9.1445-61.312-25.41-16.258-16.266-25.391-38.32-25.387-61.316 0.003907-23 9.1445-45.051 25.406-61.312 16.262-16.258 38.32-25.395 61.316-25.391 22.996 0 45.051 9.1367 61.312 25.398 16.262 16.262 25.395 38.32 25.395 61.316-0.023438 22.992-9.1719 45.039-25.43 61.293-16.262 16.258-38.309 25.402-61.301 25.422z"/>
  <path d="m441.52 331.19c-0.46094-0.55078-1.1211-0.90234-1.832-0.97656l-19.602-2.8359h-0.003906c-0.90234-0.11328-1.7852-0.36328-2.6133-0.74609l-0.12891-0.054687c-2.6914-1.125-4.8672-3.2031-6.1133-5.8398l-8.6602-17.488-0.003906 0.003906c-0.49219-0.98828-1.5039-1.6094-2.6055-1.6016-1.1055 0.011718-2.1094 0.64844-2.582 1.6445l-8.6719 17.508v0.003907c-1.6836 3.5898-5.0781 6.0742-9.0078 6.5977l-19.32 2.8047c-1.0859 0.16016-1.9844 0.92188-2.3242 1.9688-0.33984 1.043-0.058594 2.1914 0.72266 2.9609l14.027 13.566c0.98828 0.90234 1.7891 1.9922 2.3594 3.2031 0.68359 1.2812 1.1016 2.6797 1.2344 4.125 0.14844 1.2227 0.078124 2.4648-0.20703 3.6641l-2.1836 13.043c0 0.11328-0.027343 0.22266-0.042968 0.32031l-0.9375 5.625c0 0.11719-0.03125 0.24219-0.054688 0.35156-0.015625 0.14062-0.015625 0.28516 0 0.42578 0.027344 0.14062 0.070313 0.42578 0.10156 0.68359v0.042969l-0.027344-0.18359 0.03125 0.19141c0.3125 0.71875 0.89062 1.2891 1.6172 1.5938 0.75781 0.32813 1.6289 0.28516 2.3555-0.10937l17.367-9.1055h0.003906c1.7109-0.93359 3.6289-1.4219 5.5781-1.4297 1.9883 0 3.9414 0.51562 5.6719 1.4883l17.285 9.0469c0.96484 0.5 2.125 0.41016 3-0.23047s1.3125-1.7227 1.125-2.7891l-3.3203-19.336c-0.70312-3.9023 0.59766-7.8984 3.4609-10.637l14.051-13.621c0.96484-0.92969 1.1523-2.4023 0.45703-3.543-0.09375-0.097657-0.15234-0.22656-0.20703-0.33594z"/>
 </g>
</svg>