<?xml version="1.0" encoding="UTF-8"?>
<!-- The Best Svg Icon site in the world: iconSvg.co, Visit us! https://iconsvg.co -->
<svg fill="#000000" width="800px" height="800px" version="1.1" viewBox="144 144 512 512" xmlns="http://www.w3.org/2000/svg">
 <g>
  <path d="m406.17 335.33c3.0273 0.003906 5.7539-1.8125 6.918-4.6094 1.1602-2.793 0.52344-6.0117-1.6172-8.1523-2.1367-2.1406-5.3555-2.7812-8.1484-1.625-2.7969 1.1562-4.6211 3.8828-4.6211 6.9102 0 4.125 3.3438 7.4727 7.4688 7.4766z"/>
  <path d="m592.35 545.95h-15.793v-68.133c0-1.2539-0.5-2.457-1.3867-3.3438-0.88672-0.88281-2.0938-1.3828-3.3477-1.3789h-29.371v-120.05h20.281c2.6055 0 4.7227-2.1172 4.7227-4.7227v-74c-0.19141-10.492-5.8984-20.109-15.02-25.301-9.1211-5.1914-20.305-5.1914-29.426 0-9.1211 5.1914-14.828 14.809-15.02 25.301v21.188l-66.773 19.867c-3.2656-11.16-11.652-20.098-22.582-24.066-10.93-3.9688-23.094-2.4961-32.758 3.9688-9.668 6.4609-15.68 17.141-16.188 28.758l-0.45312 12.793-69.863 20.812v-55.059c0-2.6094-2.1133-4.7266-4.7227-4.7344h-40.344c-1.7188 0.003906-3.3047 0.9375-4.1328 2.4414-1.1406 2.0664-28.016 51.09-28.016 97.543v94.535c0 2.6094 2.1133 4.7227 4.7227 4.7227h29.164v48.906h-48.402c-1.2891-0.058594-2.5508 0.41016-3.4844 1.3047s-1.4648 2.1289-1.4648 3.4219c0 1.293 0.53125 2.5312 1.4648 3.4219 0.93359 0.89453 2.1953 1.3672 3.4844 1.3086h384.75c1.293 0.058594 2.5508-0.41406 3.4844-1.3086 0.9375-0.89062 1.4648-2.1289 1.4648-3.4219 0-1.293-0.52734-2.5273-1.4648-3.4219-0.93359-0.89453-2.1914-1.3633-3.4844-1.3047zm-25.25-1.6836h-58.746v-61.715h58.746zm-29.344-290.22c5.3789 0.007812 10.531 2.1445 14.332 5.9453 3.8008 3.8047 5.9414 8.957 5.9492 14.332v69.273h-40.59v-69.273c0.007812-5.3789 2.1523-10.539 5.957-14.34 3.8086-3.8047 8.9727-5.9375 14.352-5.9375zm-25.031 99h20.281v120.05h-29.383c-2.6094 0-4.7227 2.1133-4.7227 4.7227v68.133h-48.512l-7.7148-221.12 65.316-19.453v42.953c0.007812 2.6094 2.125 4.7227 4.7344 4.7227zm-106.56-54.398c6.957-0.011719 13.652 2.6602 18.688 7.457 5.0352 4.8008 8.0273 11.355 8.3516 18.305l7.6562 219.89h-29.973v-111.4c0-2.6094-2.1133-4.7227-4.7227-4.7227s-4.7227 2.1133-4.7227 4.7227v111.37h-29.984l7.6562-219.83v0.003906c0.31641-6.957 3.3086-13.523 8.3477-18.328 5.0391-4.8047 11.738-7.4766 18.703-7.4648zm-174.6 99.141c0-38.375 20.191-80.137 25.586-90.527h32.766v180.32h-58.352zm33.879 99.258 29.168-0.003907c2.6055 0 4.7227-2.1133 4.7227-4.7227v-124.79l69.559-20.715-6.8867 199.16h-96.562z"/>
 </g>
</svg>