<?xml version="1.0" encoding="UTF-8"?>
<!-- The Best Svg Icon site in the world: iconSvg.co, Visit us! https://iconsvg.co -->
<svg fill="#000000" width="800px" height="800px" version="1.1" viewBox="144 144 512 512" xmlns="http://www.w3.org/2000/svg">
 <g>
  <path d="m510.21 234.69c2.0859 0 4.0898-0.83203 5.5664-2.3086 1.4766-1.4766 2.3047-3.4766 2.3047-5.5664v-15.742c0-4.3477-3.5234-7.8711-7.8711-7.8711-4.3477 0-7.8711 3.5234-7.8711 7.8711v15.742c0 2.0898 0.82812 4.0898 2.3047 5.5664 1.4766 1.4766 3.4766 2.3086 5.5664 2.3086z"/>
  <path d="m426.71 264.66c3.0898 2.9805 8 2.9375 11.035-0.097656 3.0391-3.0352 3.082-7.9453 0.097656-11.035l-11.133-11.141v0.003906c-3.0742-3.0781-8.0625-3.0781-11.137 0-3.0781 3.0742-3.0781 8.0625 0 11.137z"/>
  <path d="m588.14 266.96c2.0859 0 4.0898-0.82813 5.5664-2.3047l11.141-11.133h-0.003906c3.0781-3.0742 3.0781-8.0625 0-11.137-3.0742-3.0781-8.0625-3.0781-11.137 0l-11.133 11.141v-0.003906c-2.25 2.25-2.9219 5.6367-1.707 8.5781 1.2188 2.9414 4.0898 4.8594 7.2734 4.8594z"/>
  <path d="m464.03 241.3c2.1875 3.7344 6.9766 5 10.727 2.8359 3.7461-2.1602 5.043-6.9453 2.9062-10.707l-7.8711-13.633c-1.0391-1.8242-2.7578-3.1562-4.7812-3.707-2.0234-0.55078-4.1836-0.26953-6 0.78125-1.8164 1.0469-3.1367 2.7773-3.6719 4.8047-0.53906 2.0273-0.24219 4.1836 0.81641 5.9922z"/>
  <path d="m545.63 244.18c3.7617 2.1719 8.5781 0.88281 10.75-2.8828l7.8711-13.633h0.003906c2.1367-3.7617 0.83984-8.543-2.9102-10.707-3.7461-2.1641-8.5391-0.89844-10.727 2.8359l-7.8711 13.633c-2.1758 3.7656-0.88281 8.5781 2.8828 10.754z"/>
  <path d="m266.18 565.31c-4.3477 0-7.875 3.5234-7.875 7.8711v15.742c0 4.3477 3.5273 7.875 7.875 7.875 4.3477 0 7.8711-3.5273 7.8711-7.875v-15.742c0-2.0898-0.83203-4.0898-2.3047-5.5664-1.4766-1.4766-3.4805-2.3047-5.5664-2.3047z"/>
  <path d="m182.68 535.34-11.141 11.129c-3.0742 3.0781-3.0742 8.0625 0 11.141 3.0781 3.0742 8.0664 3.0742 11.141 0l11.133-11.141c2.9805-3.0898 2.9375-8-0.097656-11.035-3.0352-3.0352-7.9453-3.0781-11.035-0.09375z"/>
  <path d="m349.66 535.34c-3.0898-2.9844-7.9961-2.9414-11.035 0.09375-3.0352 3.0352-3.0781 7.9453-0.09375 11.035l11.133 11.141h-0.003907c3.0781 3.0742 8.0625 3.0742 11.141 0 3.0742-3.0781 3.0742-8.0625 0-11.141z"/>
  <path d="m230.75 555.82c-3.7656-2.1719-8.5781-0.88281-10.754 2.8828l-7.8711 13.633c-1.0625 1.8086-1.3555 3.9688-0.82031 5.9961 0.53516 2.0234 1.8594 3.7539 3.6758 4.8047 1.8164 1.0469 3.9727 1.3281 5.9961 0.77734 2.0273-0.54688 3.7461-1.8828 4.7812-3.707l7.8711-13.633h0.003906c2.1719-3.7656 0.88281-8.5781-2.8828-10.754z"/>
  <path d="m312.35 558.7c-2.1875-3.7344-6.9805-5-10.727-2.8359-3.75 2.1641-5.0469 6.9453-2.9062 10.707l7.8711 13.633c2.1875 3.7344 6.9805 5 10.727 2.8359 3.7461-2.1602 5.0469-6.9453 2.9062-10.707z"/>
  <path d="m439.36 525.95h141.7v15.742h-141.7z"/>
  <path d="m447.23 400c-4.3477 0-7.8711 3.5234-7.8711 7.8711v72.188c-0.023437 2.0938 0.80078 4.1055 2.2812 5.5859l11.18 11.098v0.003906c1.4492 1.5 2.2656 3.5 2.2812 5.5898v7.8711h110.21v-7.8711c0.015625-2.0898 0.83203-4.0898 2.2812-5.5898l11.18-11.098v-0.003907c1.4805-1.4805 2.3008-3.4922 2.2812-5.5859v-9.2109h-102.34c-4.3477 0-7.8711-3.5234-7.8711-7.8711v-17.086c0.019532-2.0938-0.80469-4.1055-2.2852-5.5859l-11.18-11.098 0.003907-0.003906c-1.4492-1.5-2.2695-3.5-2.2852-5.5898v-15.742c0-2.0898-0.82812-4.0898-2.3047-5.5664-1.4766-1.4766-3.4766-2.3047-5.5664-2.3047z"/>
  <path d="m620.41 383.55c-9.6562-1.6328-18.566-6.2305-25.496-13.156-6.9258-6.9258-11.523-15.84-13.156-25.496h-143.11c-1.6289 9.6562-6.2266 18.57-13.156 25.496-6.9258 6.9258-15.836 11.523-25.492 13.156v32.906-0.003906c8.793 1.4961 16.98 5.4531 23.613 11.418v-19.996c0-8.4375 4.5039-16.234 11.809-20.453 7.3086-4.2188 16.309-4.2188 23.617 0 7.3047 4.2188 11.809 12.016 11.809 20.453v12.516l8.8164 8.8164c4.4609 4.4023 6.9609 10.422 6.9258 16.688v9.2109h95.172c1.6328-9.6562 6.2305-18.566 13.156-25.496 6.9297-6.9258 15.84-11.523 25.496-13.156zm-106.27 8.5781h7.8711c6.5625 0.011719 12.691 3.293 16.34 8.7539 3.6445 5.457 4.3281 12.375 1.8203 18.445-2.5078 6.0664-7.875 10.484-14.312 11.777l0.085938 8.1719c0.023437 2.0859-0.78125 4.0977-2.2422 5.5898-1.4609 1.4922-3.4531 2.3438-5.543 2.3672h-0.085937c-4.3125 0-7.8242-3.4727-7.8711-7.7852l-0.085937-7.957h-7.7852c-4.3477 0-7.875-3.5273-7.875-7.875 0-4.3477 3.5273-7.8711 7.875-7.8711h19.68c2.1719 0 3.9336-1.7617 3.9336-3.9375 0-2.1719-1.7617-3.9336-3.9336-3.9336h-7.8711c-6.543-0.011719-12.648-3.2734-16.297-8.7031-3.6484-5.4297-4.3633-12.316-1.9023-18.375 2.457-6.0625 7.7656-10.504 14.168-11.859l0.09375-8.3828c0.046875-4.3125 3.5586-7.7852 7.8711-7.7852h0.085937c2.0898 0.023437 4.082 0.875 5.543 2.3672 1.4609 1.4922 2.2656 3.5039 2.2422 5.5938l-0.085938 7.7852h7.9609c4.3477 0 7.8711 3.5234 7.8711 7.8711 0 4.3477-3.5234 7.8711-7.8711 7.8711h-19.68c-2.1758 0-3.9375 1.7617-3.9375 3.9375 0 2.1719 1.7617 3.9336 3.9375 3.9336zm66.91 15.746h-15.742c-4.3477 0-7.875-3.5234-7.875-7.8711s3.5273-7.875 7.875-7.875h15.742c4.3477 0 7.8711 3.5273 7.8711 7.875s-3.5234 7.8711-7.8711 7.8711z"/>
  <path d="m400 432.59v22.512h22.516-0.003906c-1.4258-5.4062-4.2617-10.34-8.2148-14.297-3.957-3.9531-8.8906-6.7891-14.297-8.2148z"/>
  <path d="m423.61 557.44h173.18v62.977h-173.18z"/>
  <path d="m620.41 455.1v-22.512c-5.4062 1.4258-10.34 4.2617-14.297 8.2148-3.9531 3.957-6.7891 8.8906-8.2148 14.297z"/>
  <path d="m400 344.89v22.516c5.4062-1.4297 10.34-4.2617 14.297-8.2188 3.9531-3.9531 6.7891-8.8867 8.2148-14.297z"/>
  <path d="m541.7 297.66c-4.3477 0-7.8711 3.5234-7.8711 7.8711v23.617h15.742v-23.617c0-2.0898-0.82812-4.0898-2.3047-5.5664-1.4766-1.4766-3.4805-2.3047-5.5664-2.3047z"/>
  <path d="m620.41 344.89h-22.512c1.4258 5.4102 4.2617 10.344 8.2148 14.297 3.957 3.957 8.8906 6.7891 14.297 8.2188z"/>
  <path d="m581.05 313.41c0-4.3477-3.5234-7.8711-7.8711-7.8711s-7.8711 3.5234-7.8711 7.8711v15.742h15.742z"/>
  <path d="m470.85 329.15h15.742v-23.613c0-4.3477-3.5234-7.8711-7.8711-7.8711s-7.8711 3.5234-7.8711 7.8711z"/>
  <path d="m502.34 329.15h15.742v-39.359c0-4.3477-3.5234-7.8711-7.8711-7.8711-4.3477 0-7.8711 3.5234-7.8711 7.8711z"/>
  <path d="m281.92 337.02h0.078125c14.598 0.035156 28.582 5.8555 38.895 16.184 10.316 10.328 16.113 24.324 16.133 38.918v-64.312c0.019531-2.0938-0.80469-4.1094-2.2852-5.5898l-6.5352-6.5352h0.003906c-4.4648-4.4023-6.9609-10.418-6.9297-16.688v-9.2109h-110.21v15.195c0.011719 7.9141-3.9492 15.309-10.551 19.68l-9.5234 6.375c-2.1992 1.4492-3.5273 3.9023-3.543 6.5352v70.297c0.011719 4.1719 1.6758 8.168 4.625 11.117s6.9492 4.6133 11.121 4.625h7.8711v-47.23c0-4.3477 3.5234-7.8711 7.8711-7.8711s7.8711 3.5234 7.8711 7.8711v15.742c0.019531-14.609 5.8281-28.613 16.16-38.945 10.328-10.328 24.336-16.141 38.945-16.156z"/>
  <path d="m274.05 430.7-0.078125-7.0859h-7.793c-4.3477 0-7.875-3.5234-7.875-7.8711 0-4.3477 3.5273-7.8711 7.875-7.8711h19.68c2.1719 0 3.9336-1.7617 3.9336-3.9375 0-2.1719-1.7617-3.9336-3.9336-3.9336h-7.875c-6.5312-0.019531-12.633-3.2773-16.281-8.6992-3.6445-5.4258-4.3594-12.305-1.9102-18.363 2.4492-6.0547 7.7461-10.504 14.141-11.867l0.054687-7.5039v0.003906c-11.945 2.4453-22.078 10.289-27.441 21.238-5.3672 10.945-5.3555 23.762 0.027343 34.699 5.3828 10.938 15.531 18.762 27.477 21.191z"/>
  <path d="m277.98 384.25h7.875c6.5625 0.011719 12.691 3.293 16.336 8.75 3.6484 5.4609 4.332 12.379 1.8242 18.445-2.5078 6.0703-7.875 10.484-14.312 11.781l0.085937 7.4688c11.957-2.4375 22.105-10.277 27.477-21.23 5.375-10.953 5.3672-23.777-0.023437-34.723-5.3906-10.945-15.551-18.773-27.508-21.191l-0.054687 7.0859 7.9844-0.003906c4.3477 0 7.8711 3.5273 7.8711 7.875 0 4.3477-3.5234 7.8711-7.8711 7.8711h-19.684c-2.1719 0-3.9336 1.7617-3.9336 3.9375 0 2.1719 1.7617 3.9336 3.9336 3.9336z"/>
  <path d="m195.32 258.3h141.7v15.742h-141.7z"/>
  <path d="m179.58 179.58h173.18v62.977h-173.18z"/>
  <path d="m329.15 494.46c2.0898 0 4.0938-0.82813 5.5664-2.3047 1.4766-1.4766 2.3086-3.4766 2.3086-5.5664v-94.465c0 19.688-10.504 37.879-27.555 47.723-17.047 9.8438-38.055 9.8438-55.102 0-17.051-9.8438-27.555-28.035-27.555-47.723v102.34c0 4.3477 3.5273 7.875 7.875 7.875s7.8711-3.5273 7.8711-7.875v-31.484c0-4.3477 3.5234-7.875 7.8711-7.875 4.3477 0 7.8711 3.5273 7.8711 7.875v47.23c0 4.3477 3.5273 7.8711 7.875 7.8711 4.3477 0 7.8711-3.5234 7.8711-7.8711v-47.23c0-4.3477 3.5234-7.875 7.8711-7.875 4.3477 0 7.8711 3.5273 7.8711 7.875v31.488-0.003906c0 4.3477 3.5273 7.875 7.875 7.875 4.3477 0 7.8711-3.5273 7.8711-7.875v-31.484c0-4.3477 3.5234-7.875 7.8711-7.875s7.8711 3.5273 7.8711 7.875v23.617-0.003906c0 2.0898 0.83203 4.0898 2.3047 5.5664 1.4766 1.4766 3.4805 2.3047 5.5664 2.3047z"/>
 </g>
</svg>