<?xml version="1.0" encoding="UTF-8"?>
<!-- The Best Svg Icon site in the world: iconSvg.co, Visit us! https://iconsvg.co -->
<svg fill="#000000" width="800px" height="800px" version="1.1" viewBox="144 144 512 512" xmlns="http://www.w3.org/2000/svg">
 <g>
  <path d="m265.98 405.69c0 11.266 9.1641 20.434 20.434 20.434 11.27 0 20.434-9.1641 20.434-20.434 0-11.266-9.1641-20.434-20.434-20.434-11.27 0-20.434 9.168-20.434 20.434zm32.156 0c0 6.4648-5.2617 11.723-11.723 11.723-6.4648 0-11.723-5.2617-11.723-11.723 0-6.4648 5.2617-11.723 11.723-11.723 6.4648 0 11.723 5.2578 11.723 11.723z"/>
  <path d="m609.79 374.9c0-12.672-10.309-22.98-22.98-22.98s-22.98 10.309-22.98 22.98c0 12.672 10.309 22.98 22.98 22.98 2.4023 0 4.3516-1.9492 4.3516-4.3516s-1.9492-4.3516-4.3516-4.3516c-7.8711 0-14.27-6.4023-14.27-14.27 0-7.8711 6.4023-14.27 14.27-14.27 7.8711 0 14.27 6.4023 14.27 14.27 0 0.58984 0.12109 1.1445 0.33203 1.6562-0.21094 0.50781-0.33203 1.0664-0.33203 1.6562v45.793 0.011719c0 9.1641-7.457 16.625-16.617 16.625h-12.004c-1.0273-30.363-12.785-59.234-33.383-81.703-21.445-23.391-50.586-37.883-82.055-40.789-2.3828-0.21484-4.5156 1.543-4.7344 3.9336-0.22266 2.3945 1.543 4.5156 3.9336 4.7344 61.355 5.668 107.62 56.473 107.62 118.17 0 51.625-32.945 96.977-81.996 112.9-0.011719 0.003906-0.023438 0.011718-0.035156 0.015624-0.039063 0.011719-0.085938 0.019532-0.125 0.035157-11.734 3.8047-24.027 5.7344-36.527 5.7344h-12.605-0.011719-84.75c-12.52 0-24.801-1.9297-36.52-5.7266-0.050781-0.015625-0.097656-0.03125-0.14453-0.046875-38.234-12.41-67.328-42.918-77.875-81.664-0.011719-0.046875-0.019531-0.085938-0.035156-0.13281-2.7305-10.113-4.1172-20.586-4.1172-31.121 0-7.5586 0.71094-15.094 2.1172-22.41 4.5273-23.711 16.07-45.23 33.383-62.242 2-1.9648 4.0312-3.8281 6.0508-5.5469 8.5352-7.3164 18.047-13.367 28.273-17.992 0.054687-0.019531 0.10547-0.046875 0.16016-0.070312 3.2734-1.4805 6.6758-2.8281 10.102-4.0039 11.508-3.9609 23.562-6.1094 35.832-6.3945 2.4023-0.054687 4.3086-2.0508 4.2539-4.4531-0.054687-2.4023-2.0547-4.3164-4.4531-4.2539-11.957 0.27344-23.719 2.2148-35.031 5.7539-5.4023-8.2734-23-28.324-66.695-28.324-1.4922 0-2.8828 0.76562-3.6797 2.0234-0.80078 1.2578-0.89062 2.8477-0.25 4.1914l23.316 49.105c-1.3359 1.2031-2.6641 2.4492-3.9805 3.7422-17.715 17.406-29.785 39.227-35.086 63.277h-14.117c-10.531 0-19.094 8.5664-19.094 19.094v26c0 10.531 8.5664 19.094 19.094 19.094h16.445c5.7383 19.133 16.027 36.828 29.902 51.359 13.871 14.523 31.078 25.625 49.926 32.25v27.98c0 8.9258 7.2617 16.188 16.188 16.188h26.816c8.9258 0 16.188-7.2617 16.188-16.188v-20.809h63.43v20.809c0 8.9258 7.2617 16.188 16.188 16.188h26.816c8.9219 0 16.184-7.2617 16.184-16.188v-27.996c24.141-8.4648 44.934-23.797 60.266-44.523 15.434-20.863 23.965-45.438 24.828-71.328h12.004c13.145 0 23.98-10.07 25.207-22.91 0.070312-0.31641 0.12109-0.64062 0.12109-0.97656v-47.246c0-0.58984-0.12109-1.1445-0.33203-1.6562 0.20703-0.48828 0.32422-1.0469 0.32422-1.6367zm-359.71-70.938c31.891 1.7617 46.02 15.426 51.207 22.41-1.8984 0.74609-3.7773 1.5312-5.6211 2.3633-0.054687 0.019531-0.10547 0.046875-0.16016 0.070313-9.3242 4.2031-18.086 9.5156-26.121 15.809zm-40.781 168.93c-5.7266 0-10.383-4.6602-10.383-10.383v-26c0-5.7266 4.6602-10.383 10.383-10.383h12.5c-0.92188 6.2109-1.3945 12.535-1.3945 18.871 0 9.4102 1.043 18.766 3.082 27.902l-14.188-0.003906zm146.75 120.3c0 4.125-3.3555 7.4805-7.4766 7.4805h-26.816c-4.1211 0-7.4766-3.3555-7.4766-7.4805v-25.277c10.848 2.957 22.094 4.4688 33.512 4.4688h8.2578zm122.62 0c0 4.125-3.3555 7.4805-7.4766 7.4805h-26.816c-4.1211 0-7.4766-3.3555-7.4766-7.4805v-20.809h8.2578c11.406 0 22.652-1.4961 33.512-4.457z"/>
  <path d="m343.02 357.23c0 2.4023 1.9492 4.3516 4.3516 4.3516h106.77c2.4023 0 4.3516-1.9492 4.3516-4.3516s-1.9492-4.3516-4.3516-4.3516h-106.77c-2.4023 0-4.3516 1.9492-4.3516 4.3516z"/>
  <path d="m404.57 306.89h-3.7773-0.015624-0.015626-16.934c-2.4023 0-4.3516 1.9492-4.3516 4.3516s1.9492 4.3516 4.3516 4.3516h12.594v10.43c0 2.4023 1.9492 4.3516 4.3516 4.3516 2.4023 0 4.3516-1.9492 4.3516-4.3516v-10.453c9.3906-0.29688 16.941-8.0156 16.941-17.477 0-9.6523-7.8555-17.508-17.504-17.508h-7.582c-4.8516 0-8.8008-3.9492-8.8008-8.8008 0-4.8516 3.9492-8.8008 8.8008-8.8008h20.742c2.4023 0 4.3516-1.9492 4.3516-4.3516 0-2.4023-1.9492-4.3516-4.3516-4.3516h-12.59v-10.422c0-2.4023-1.9492-4.3516-4.3516-4.3516s-4.3516 1.9492-4.3516 4.3516v10.453c-9.3945 0.29688-16.953 8.0156-16.953 17.48 0 9.6523 7.8555 17.508 17.508 17.508h7.5938c4.8477 0 8.7969 3.9492 8.7969 8.8008-0.011719 4.8398-3.957 8.7891-8.8047 8.7891z"/>
  <path d="m400.76 345.16c33.211 0 60.227-27.02 60.227-60.227 0-33.211-27.02-60.227-60.227-60.227-33.207 0-60.227 27.02-60.227 60.227 0.003906 33.211 27.023 60.227 60.227 60.227zm0-111.75c28.41 0 51.52 23.109 51.52 51.52s-23.109 51.52-51.52 51.52c-28.41 0-51.52-23.109-51.52-51.52 0.007813-28.402 23.117-51.52 51.52-51.52z"/>
  <path d="m400.76 213.79c2.4023 0 4.3516-1.9492 4.3516-4.3516v-14.465c0-2.4023-1.9492-4.3516-4.3516-4.3516-2.4023 0-4.3516 1.9492-4.3516 4.3516v14.465c0 2.4023 1.9492 4.3516 4.3516 4.3516z"/>
  <path d="m436.34 223.32c0.68359 0.39844 1.4375 0.58594 2.1719 0.58594 1.5078 0 2.9688-0.78125 3.7734-2.1758l7.2344-12.523c1.2031-2.082 0.48828-4.7461-1.5938-5.9492s-4.7461-0.48828-5.9492 1.5938l-7.2344 12.523c-1.1992 2.082-0.48828 4.7422 1.5977 5.9453z"/>
  <path d="m466.15 251.54c0.74219 0 1.4844-0.1875 2.1719-0.58594l12.523-7.2305c2.082-1.2031 2.7969-3.8633 1.5938-5.9492-1.2031-2.082-3.8633-2.7969-5.9492-1.5938l-12.523 7.2305c-2.082 1.2031-2.7969 3.8633-1.5938 5.9492 0.8125 1.4023 2.2773 2.1797 3.7773 2.1797z"/>
  <path d="m320.66 243.72 12.531 7.2305c0.68359 0.39453 1.4375 0.58594 2.1719 0.58594 1.5078 0 2.9688-0.78125 3.7734-2.1758 1.2031-2.082 0.48828-4.7461-1.5938-5.9492l-12.531-7.2305c-2.0859-1.2031-4.7461-0.48828-5.9492 1.5938-1.1992 2.082-0.48438 4.7461 1.5977 5.9453z"/>
  <path d="m359.23 221.73c0.80469 1.3945 2.2656 2.1758 3.7734 2.1758 0.74219 0 1.4844-0.1875 2.1719-0.58594 2.082-1.2031 2.7969-3.8633 1.5938-5.9492l-7.2344-12.523c-1.2031-2.082-3.8633-2.7969-5.9492-1.5938-2.082 1.2031-2.7969 3.8633-1.5938 5.9492z"/>
 </g>
</svg>