<?xml version="1.0" encoding="UTF-8"?>
<!-- The Best Svg Icon site in the world: iconSvg.co, Visit us! https://iconsvg.co -->
<svg fill="#000000" width="800px" height="800px" version="1.1" viewBox="144 144 512 512" xmlns="http://www.w3.org/2000/svg">
 <g>
  <path d="m400 603.69c-90.609 0-164.33-73.719-164.33-164.33v-108.24c0-3.8047 3.082-6.8867 6.8867-6.8867h314.88c3.8047 0 6.8867 3.082 6.8867 6.8867v108.24c0 90.609-73.719 164.33-164.33 164.33zm-150.55-265.68v101.35c0 83.016 67.539 150.55 150.55 150.55 83.016 0 150.55-67.539 150.55-150.55l0.003906-101.35z"/>
  <path d="m459.04 387.21h-216.48c-3.8047 0-6.8867-3.082-6.8867-6.8867 0-3.8047 3.082-6.8867 6.8867-6.8867h216.48c3.8047 0 6.8867 3.082 6.8867 6.8867 0 3.8008-3.082 6.8867-6.8867 6.8867z"/>
  <path d="m400 564.33c-3.8047 0-6.8867-3.082-6.8867-6.8867v-29.52c0-3.8047 3.082-6.8867 6.8867-6.8867s6.8867 3.082 6.8867 6.8867v29.52c0 3.8008-3.0859 6.8867-6.8867 6.8867z"/>
  <path d="m567.28 603.69h-334.56c-3.8047 0-6.8867-3.082-6.8867-6.8867 0-3.8047 3.082-6.8867 6.8867-6.8867h334.56c3.8047 0 6.8867 3.082 6.8867 6.8867 0 3.8008-3.0859 6.8867-6.8906 6.8867z"/>
  <path d="m508.24 338.01h-216.48c-3.8047 0-6.8867-3.082-6.8867-6.8867v-19.68c0-63.48 51.645-115.13 115.13-115.13 63.48 0 115.13 51.645 115.13 115.13v19.68c-0.003906 3.8008-3.0859 6.8867-6.8906 6.8867zm-209.59-13.777h202.7v-12.793c0-55.887-45.469-101.35-101.35-101.35-55.887 0-101.35 45.469-101.35 101.35z"/>
  <path d="m468.88 338.01h-137.76c-3.8047 0-6.8867-3.082-6.8867-6.8867v-19.68c0-41.777 33.988-75.77 75.77-75.77 41.777 0 75.77 33.988 75.77 75.77v19.68c-0.003906 3.8008-3.0859 6.8867-6.8906 6.8867zm-130.87-13.777h123.98v-12.793c0-34.184-27.809-61.992-61.992-61.992s-61.992 27.809-61.992 61.992z"/>
  <path d="m412.75 468.33c-0.13281-0.17578-0.52344-0.46484-1.1641-0.86719-0.64453-0.39844-1.4648-0.83203-2.4648-1.2969-1-0.46484-2.1094-0.91016-3.3281-1.332-1.2188-0.42188-2.4531-0.71875-3.6953-0.89844v9.0547l2.1328 0.53125c2.2617 0.62109 4.3047 1.2969 6.125 2.0312 1.8203 0.73047 3.3633 1.6406 4.625 2.7305 1.2656 1.0859 2.2422 2.4062 2.9297 3.9609 0.6875 1.5547 1.0312 3.418 1.0312 5.5938 0 2.5312-0.44531 4.6836-1.332 6.457-0.88672 1.7773-2.0742 3.2266-3.5625 4.3594s-3.1953 1.9883-5.125 2.5625c-1.9297 0.57812-3.9609 0.91016-6.0898 1v7.7227h-4.5938v-7.7891c-3.0625-0.26562-6.0938-0.88672-9.0859-1.8633-2.9961-0.97656-5.6914-2.2656-8.0898-3.8633l4.793-9.5195c0.17578 0.22266 0.65625 0.58984 1.4336 1.0977 0.77734 0.51172 1.7656 1.043 2.9609 1.5977 1.1992 0.55469 2.5508 1.0859 4.0625 1.5977 1.5078 0.51172 3.0625 0.87891 4.6602 1.0977v-8.8555l-3.1953-0.93359c-2.1758-0.66797-4.0625-1.3867-5.6602-2.1641-1.5977-0.77734-2.918-1.6758-3.9609-2.6953-1.043-1.0195-1.8203-2.1992-2.332-3.5273-0.51172-1.332-0.76562-2.8867-0.76562-4.6602 0-2.3086 0.39844-4.3594 1.1992-6.1602 0.80078-1.7969 1.875-3.3398 3.2305-4.625 1.3516-1.2852 2.9492-2.2969 4.793-3.0273 1.8398-0.73047 3.8281-1.2109 5.957-1.4297v-6.7266h4.5938v6.7266c2.8828 0.26562 5.5938 0.91016 8.1211 1.9297 2.5312 1.0195 4.7266 2.0625 6.5898 3.1289zm-18.441-0.59766c0 1.1094 0.38672 1.9883 1.1641 2.6328 0.77734 0.64453 1.9414 1.2109 3.4961 1.6992v-8.1875c-3.1055 0.26172-4.6602 1.5469-4.6602 3.8555zm12.918 21.172c0-1.1523-0.46484-2.0508-1.3984-2.6953-0.93359-0.64063-2.1758-1.2305-3.7305-1.7656v7.9883c3.418-0.13281 5.1289-1.3086 5.1289-3.5273z"/>
  <path d="m400 534.81c-30.926 0-56.09-25.16-56.09-56.09 0-30.926 25.16-56.09 56.09-56.09 30.926 0 56.09 25.16 56.09 56.09-0.003906 30.926-25.164 56.09-56.09 56.09zm0-98.402c-23.332 0-42.312 18.98-42.312 42.312s18.98 42.312 42.312 42.312 42.312-18.98 42.312-42.312-18.984-42.312-42.312-42.312z"/>
 </g>
</svg>