<?xml version="1.0" encoding="UTF-8"?>
<!-- The Best Svg Icon site in the world: iconSvg.co, Visit us! https://iconsvg.co -->
<svg fill="#000000" width="800px" height="800px" version="1.1" viewBox="144 144 512 512" xmlns="http://www.w3.org/2000/svg">
 <g>
  <path d="m586.42 416.36h-200.8v-200.79c0-2.8984-2.3516-5.2461-5.2461-5.2461-116.51-0.003906-211.29 94.777-211.29 211.28 0 116.53 94.777 211.3 211.29 211.3 116.5 0 211.29-94.77 211.29-211.3 0.011719-2.8945-2.3516-5.2461-5.2383-5.2461z"/>
  <path d="m419.62 167.09c-2.8867 0-5.2461 2.3516-5.2461 5.2461v206.04c0 2.8984 2.3633 5.2461 5.2461 5.2461l206.04 0.007812c2.8984 0 5.2461-2.3516 5.2461-5.2461 0-116.51-94.777-211.29-211.29-211.29z"/>
 </g>
</svg>