<?xml version="1.0" encoding="UTF-8"?>
<!-- The Best Svg Icon site in the world: iconSvg.co, Visit us! https://iconsvg.co -->
<svg fill="#000000" width="800px" height="800px" version="1.1" viewBox="144 144 512 512" xmlns="http://www.w3.org/2000/svg">
 <g>
  <path d="m455.1 187.45v7.8711c-8.4375 0-16.23 4.5039-20.449 11.809-4.2188 7.3086-4.2188 16.309 0 23.617s12.012 11.809 20.449 11.809h15.746c4.3477 0 7.8711 3.5234 7.8711 7.8711 0 4.3477-3.5234 7.8711-7.8711 7.8711h-15.746c-4.3477 0-7.8711-3.5234-7.8711-7.8711 0-4.3477-3.5234-7.8711-7.8711-7.8711s-7.8711 3.5234-7.8711 7.8711c0 6.2656 2.4883 12.27 6.9141 16.699 4.4297 4.4297 10.438 6.918 16.699 6.918v7.8711c0 4.3477 3.5273 7.8711 7.875 7.8711 4.3477 0 7.8711-3.5234 7.8711-7.8711v-7.8711c8.4375 0 16.234-4.5 20.453-11.809 4.2148-7.3086 4.2148-16.309 0-23.617-4.2188-7.3047-12.016-11.809-20.453-11.809h-15.746c-4.3477 0-7.8711-3.5234-7.8711-7.8711s3.5234-7.8711 7.8711-7.8711h15.746c2.0859 0 4.0898 0.82813 5.5664 2.3047 1.4766 1.4766 2.3047 3.4805 2.3047 5.5664 0 4.3477 3.5234 7.8711 7.8711 7.8711s7.8711-3.5234 7.8711-7.8711c0-6.2617-2.4844-12.27-6.9141-16.699-4.4297-4.4297-10.438-6.918-16.699-6.918v-7.8711c0-4.3477-3.5234-7.8711-7.8711-7.8711-4.3477 0-7.875 3.5234-7.875 7.8711z"/>
  <path d="m573.18 392.12v-7.8711c8.4375 0 16.234-4.5 20.453-11.809 4.2188-7.3047 4.2188-16.309 0-23.613-4.2188-7.3086-12.016-11.809-20.453-11.809h-15.746c-4.3477 0-7.8711-3.5273-7.8711-7.875 0-4.3477 3.5234-7.8711 7.8711-7.8711h15.746c2.0859 0 4.0898 0.83203 5.5664 2.3047 1.4766 1.4766 2.3047 3.4805 2.3047 5.5664 0 4.3477 3.5234 7.875 7.8711 7.875 4.3477 0 7.875-3.5273 7.875-7.875 0-6.2617-2.4883-12.27-6.918-16.695-4.4297-4.4297-10.438-6.918-16.699-6.918v-7.8711c0-4.3477-3.5234-7.875-7.8711-7.875s-7.875 3.5273-7.875 7.875v7.8711c-8.4375 0-16.23 4.5-20.449 11.809-4.2188 7.3047-4.2188 16.309 0 23.613 4.2188 7.3086 12.012 11.809 20.449 11.809h15.746c4.3477 0 7.8711 3.5234 7.8711 7.8711 0 4.3477-3.5234 7.875-7.8711 7.875h-15.746c-4.3477 0-7.8711-3.5273-7.8711-7.875 0-4.3477-3.5234-7.8711-7.8711-7.8711-4.3477 0-7.8711 3.5234-7.8711 7.8711 0 6.2656 2.4883 12.273 6.9141 16.699 4.4297 4.4297 10.438 6.918 16.699 6.918v7.8711c0 4.3477 3.5273 7.875 7.875 7.875s7.8711-3.5273 7.8711-7.875z"/>
  <path d="m565.31 274.05c-24.309 0.097656-46.863 12.652-59.762 33.25-12.898 20.602-14.336 46.379-3.8047 68.285 10.527 21.906 31.551 36.887 55.691 39.688v0.47266c0 2.0898-0.82812 4.0898-2.3047 5.5664-1.4766 1.4766-3.4766 2.3047-5.5664 2.3047h-67.07c-9.7148 0.023438-19.254 2.6016-27.652 7.4805-8.4023 4.8789-15.371 11.883-20.207 20.309l-3.1484 5.5117v-73.289c-0.015625-7.1797 3.2617-13.969 8.8945-18.422l15.664-12.594c9.3828-7.4219 14.84-18.738 14.801-30.703v-16.844c24.223-2.707 45.352-17.68 55.941-39.633 10.59-21.957 9.1484-47.812-3.8164-68.453-12.961-20.645-35.625-33.172-59.996-33.172-24.375 0-47.039 12.527-60 33.172-12.965 20.641-14.406 46.496-3.8164 68.453 10.59 21.953 31.719 36.926 55.941 39.633v16.848-0.003906c0.015626 7.1797-3.2617 13.969-8.8945 18.422l-15.664 12.594c-9.3828 7.4219-14.84 18.742-14.801 30.703v69.59l-12.754-25.504v-0.003907c-8.3867-16.848-23.148-29.652-41.012-35.582l-13.777-4.5664v0.003906c-7.8398-2.5977-14.664-7.6016-19.5-14.301-4.832-6.6992-7.4297-14.754-7.4219-23.016v-13.695c24.223-2.7109 45.355-17.68 55.941-39.633 10.59-21.957 9.1484-47.812-3.8125-68.453-12.961-20.645-35.625-33.172-60-33.172s-47.039 12.527-60 33.172c-12.961 20.641-14.402 46.496-3.8125 68.453 10.586 21.953 31.719 36.922 55.941 39.633v13.699-0.003906c0.003906 11.57 3.6445 22.844 10.414 32.223 6.7656 9.3828 16.316 16.398 27.293 20.047l13.777 4.5664h-0.003906c13.879 4.6055 25.352 14.551 31.883 27.633l17.871 35.816-30.781-22.043c-4.4609-3.1758-9.8906-4.6914-15.355-4.2891-5.4609 0.40234-10.609 2.6992-14.559 6.4961l-49.121 41.879c-1.4141 1.2383-3.2344 1.9102-5.1172 1.8867h-2.0469v-7.8711c0-2.0859-0.82812-4.0898-2.3047-5.5664-1.4766-1.4766-3.4766-2.3047-5.5664-2.3047h-23.617v-7.8711c0-2.0898-0.82812-4.0898-2.3047-5.5664-1.4766-1.4766-3.4766-2.3047-5.5664-2.3047h-78.719c-4.3477 0-7.875 3.5234-7.875 7.8711v157.44c0 2.0859 0.83203 4.0898 2.3086 5.5664 1.4766 1.4727 3.4766 2.3047 5.5664 2.3047h78.719c2.0898 0 4.0898-0.83203 5.5664-2.3047 1.4766-1.4766 2.3047-3.4805 2.3047-5.5664v-7.875h23.617c2.0898 0 4.0898-0.82812 5.5664-2.3047s2.3047-3.4766 2.3047-5.5664v-2.9922l13.461 6.6914c5.4453 2.7461 11.457 4.1758 17.555 4.1719h102.81c5.5352 0.039063 10.906-1.8789 15.16-5.418 4.2539-3.5391 7.1211-8.4648 8.0938-13.914 0.97266-5.4492-0.015626-11.062-2.7852-15.855 1.4531-0.89062 2.8008-1.9453 4.0156-3.1484 3.7031-3.6211 6.0938-8.375 6.793-13.508 0.69922-5.1328-0.33594-10.352-2.9375-14.832 1.457-0.89062 2.8047-1.9453 4.0156-3.1484 3.7031-3.6211 6.0938-8.375 6.793-13.508 0.69922-5.1328-0.33203-10.352-2.9375-14.832 1.457-0.89062 2.8047-1.9453 4.0156-3.1484 4.5-4.4141 7.0273-10.461 7.0078-16.766-0.019531-6.2578-2.5156-12.254-6.9375-16.68-4.4258-4.4258-10.422-6.918-16.68-6.9375h-10.074l11.18-19.523h-0.003907c7.0312-12.238 20.051-19.801 34.164-19.836h67.07c6.2578-0.019531 12.254-2.5117 16.68-6.9375 4.4258-4.4258 6.918-10.422 6.9375-16.68v-0.47266c24.145-2.8008 45.168-17.781 55.695-39.688s9.0898-47.684-3.8086-68.285c-12.895-20.598-35.453-33.152-59.758-33.25zm-157.44-39.359c0-14.617 5.8047-28.633 16.141-38.965 10.332-10.336 24.348-16.141 38.965-16.141 14.613 0 28.629 5.8047 38.961 16.141 10.336 10.332 16.141 24.348 16.141 38.965 0 14.613-5.8047 28.629-16.141 38.965-10.332 10.332-24.348 16.137-38.961 16.137-14.609-0.015624-28.617-5.8281-38.949-16.156-10.328-10.332-16.141-24.336-16.156-38.945zm-149.57 31.488c0-14.617 5.8086-28.633 16.141-38.965 10.336-10.336 24.352-16.141 38.965-16.141s28.629 5.8047 38.965 16.141c10.332 10.332 16.141 24.348 16.141 38.965 0 14.613-5.8086 28.629-16.141 38.961-10.336 10.336-24.352 16.141-38.965 16.141-14.609-0.015625-28.617-5.8281-38.945-16.156-10.332-10.332-16.141-24.336-16.16-38.945zm-15.742 354.24h-62.977v-141.7h62.977zm31.488-15.742h-15.746v-110.21h15.742zm105.48-27.789c-1.457 0.89063-2.8008 1.9492-4.0156 3.1484-4.5 4.418-7.0273 10.461-7.0039 16.77 0.019531 2.6836 0.5 5.3477 1.4141 7.8711h-49.121c-3.6641-0.011719-7.2734-0.875-10.547-2.5195l-20.469-10.234v-81.711h2.0469c5.6367 0.03125 11.09-1.9844 15.352-5.668l49.594-42.273c2.7188-2.7148 6.9844-3.1133 10.156-0.94531l33.219 23.773c1.3164 0.99219 2.1953 2.4648 2.4414 4.0938 0.066406 0.28516 0.09375 0.57422 0.078125 0.86719-0.039062 2.832-1.9766 5.2891-4.7227 5.9844-1.7734 0.45313-3.6562 0.078126-5.1172-1.0234l-14.094-10.551c-3.0195-2.3008-6.7695-3.4336-10.562-3.1875-3.7891 0.24609-7.3633 1.8516-10.059 4.5273l-10.941 10.941h-0.003907c-3.0859 3.0859-3.0859 8.0898 0 11.18 3.0898 3.0859 8.0938 3.0859 11.18 0l10.863-10.941 14.168 10.629v-0.003906c3.1602 2.3164 6.8867 3.7305 10.785 4.0938 0.32031 0.75781 0.6875 1.4922 1.1016 2.2031-1.4531 0.89062-2.8008 1.9492-4.0117 3.1484-3.707 3.6211-6.0977 8.375-6.7969 13.508-0.69922 5.1328 0.33594 10.352 2.9375 14.832-1.4531 0.89062-2.8008 1.9492-4.0156 3.1484-3.7031 3.6211-6.0938 8.375-6.793 13.508-0.69922 5.1328 0.33594 10.352 2.9375 14.832zm49.516 25.504c-1.4102 1.4922-3.3828 2.3203-5.4336 2.2852h-31.488c-4.3477 0-7.8711-3.5234-7.8711-7.8711-0.019531-2.1289 0.87109-4.1602 2.4414-5.5898 1.4102-1.4922 3.3789-2.3203 5.4297-2.2852h31.488c2.0898 0 4.0898 0.83203 5.5664 2.3086 1.4766 1.4766 2.3086 3.4766 2.3086 5.5664 0.015625 2.125-0.87109 4.1562-2.4414 5.5859zm7.8711-31.488c-1.4102 1.4922-3.3789 2.3203-5.4297 2.2852h-31.488c-4.3477 0-7.875-3.5234-7.875-7.8711-0.015625-2.125 0.87109-4.1602 2.4414-5.5898 1.4102-1.4922 3.3828-2.3203 5.4336-2.2852h31.488c2.0859 0 4.0898 0.83203 5.5664 2.3086 1.4727 1.4766 2.3047 3.4766 2.3047 5.5664 0.019531 2.125-0.87109 4.1562-2.4414 5.5859zm7.8711-31.488c-1.4102 1.4922-3.3789 2.3203-5.4297 2.2852h-31.488c-4.3477 0-7.8711-3.5234-7.8711-7.8711-0.019531-2.125 0.86719-4.1602 2.4375-5.5898 1.4102-1.4922 3.3828-2.3203 5.4336-2.2852h31.488c2.0859 0 4.0898 0.83203 5.5664 2.3086 1.4766 1.4766 2.3047 3.4766 2.3047 5.5664 0.019531 2.125-0.86719 4.1562-2.4414 5.5859zm2.4414-44.949c2.0898 0 4.0898 0.83203 5.5664 2.3086 1.4766 1.4766 2.3047 3.4766 2.3047 5.5664 0.019532 2.125-0.86719 4.1562-2.4375 5.5898-1.4102 1.4883-3.3828 2.3164-5.4336 2.2812h-31.488c-2.2891-0.027343-4.4531-1.0625-5.9023-2.8359 1.8906-1.375 3.5156-3.082 4.8008-5.0352 1.6445-2.3633 2.7695-5.0469 3.3047-7.875zm118.08-94.461c-14.617 0-28.633-5.8086-38.965-16.141-10.336-10.336-16.141-24.352-16.141-38.965s5.8047-28.629 16.141-38.965c10.332-10.332 24.348-16.141 38.965-16.141 14.613 0 28.629 5.8086 38.965 16.141 10.332 10.336 16.137 24.352 16.137 38.965-0.015624 14.609-5.8281 28.617-16.156 38.945-10.332 10.332-24.336 16.141-38.945 16.16z"/>
  <path d="m305.54 218.94v7.8711c-8.4375 0-16.234 4.5039-20.453 11.809-4.2188 7.3086-4.2188 16.309 0 23.617 4.2188 7.3086 12.016 11.809 20.453 11.809h15.742c4.3477 0 7.8711 3.5234 7.8711 7.8711 0 4.3477-3.5234 7.8711-7.8711 7.8711h-15.742c-4.3477 0-7.8711-3.5234-7.8711-7.8711 0-4.3477-3.5273-7.8711-7.875-7.8711-4.3477 0-7.8711 3.5234-7.8711 7.8711 0 6.2617 2.4883 12.27 6.918 16.699 4.4297 4.4297 10.434 6.918 16.699 6.918v7.8711c0 4.3477 3.5234 7.8711 7.8711 7.8711s7.8711-3.5234 7.8711-7.8711v-7.8711c8.4375 0 16.234-4.5039 20.453-11.809 4.2188-7.3086 4.2188-16.309 0-23.617-4.2188-7.3047-12.016-11.809-20.453-11.809h-15.742c-4.3477 0-7.8711-3.5234-7.8711-7.8711 0-4.3477 3.5234-7.8711 7.8711-7.8711h15.742c2.0898 0 4.0898 0.82812 5.5664 2.3047 1.4766 1.4766 2.3047 3.4805 2.3047 5.5664 0 4.3477 3.5273 7.8711 7.875 7.8711 4.3477 0 7.8711-3.5234 7.8711-7.8711 0-6.2617-2.4883-12.27-6.918-16.699-4.4297-4.4297-10.434-6.918-16.699-6.918v-7.8711c0-4.3477-3.5234-7.8711-7.8711-7.8711s-7.8711 3.5234-7.8711 7.8711z"/>
 </g>
</svg>