<?xml version="1.0" encoding="UTF-8"?>
<!-- The Best Svg Icon site in the world: iconSvg.co, Visit us! https://iconsvg.co -->
<svg fill="#000000" width="800px" height="800px" version="1.1" viewBox="144 144 512 512" xmlns="http://www.w3.org/2000/svg">
 <g>
  <path d="m313.41 392.12h15.742v15.742h-15.742z"/>
  <path d="m344.89 392.12h15.742v15.742h-15.742z"/>
  <path d="m281.92 392.12h15.742v15.742h-15.742z"/>
  <path d="m470.85 392.12h15.742v15.742h-15.742z"/>
  <path d="m502.34 392.12h15.742v15.742h-15.742z"/>
  <path d="m439.36 392.12h15.742v15.742h-15.742z"/>
  <path d="m171.71 337.02h141.7c2.0859 0 4.0898-0.83203 5.5664-2.3086 1.4766-1.4727 2.3047-3.4766 2.3047-5.5664v-94.461c0-2.0898-0.82812-4.0898-2.3047-5.5664-1.4766-1.4766-3.4805-2.3086-5.5664-2.3086h-39.359c0-11.25-6.0039-21.645-15.746-27.27-9.7422-5.625-21.746-5.625-31.488 0s-15.742 16.02-15.742 27.27h-39.359c-4.3477 0-7.875 3.5273-7.875 7.875v94.461c0 2.0898 0.83203 4.0938 2.3086 5.5664 1.4766 1.4766 3.4766 2.3086 5.5664 2.3086zm70.848-125.95c4.1758 0 8.1797 1.6602 11.133 4.6094 2.9531 2.9531 4.6094 6.957 4.6094 11.133h-31.488c0-4.1758 1.6602-8.1797 4.6133-11.133 2.9531-2.9492 6.957-4.6094 11.133-4.6094zm-62.977 31.488h125.95v31.488h-39.359v-7.8711c0-2.0898-0.83203-4.0898-2.3086-5.5664-1.4766-1.4766-3.4766-2.3086-5.5664-2.3086h-31.488c-4.3477 0-7.8711 3.5273-7.8711 7.875v7.8711h-39.359zm70.848 31.488v15.742h-15.742v-15.742zm-70.848 15.742h39.359v7.875c0 2.0859 0.82812 4.0898 2.3047 5.5664 1.4766 1.4727 3.4805 2.3047 5.5664 2.3047h31.488c2.0898 0 4.0898-0.83203 5.5664-2.3047 1.4766-1.4766 2.3086-3.4805 2.3086-5.5664v-7.875h39.359v31.488h-125.95z"/>
  <path d="m234.69 352.77v25.066c-7.0625 2.4961-12.52 8.1914-14.711 15.352-2.1914 7.1602-0.85937 14.938 3.5938 20.957 4.4531 6.0195 11.5 9.5703 18.988 9.5703 7.4883 0 14.531-3.5508 18.984-9.5703s5.7891-13.797 3.5977-20.957-7.6523-12.855-14.711-15.352v-25.066zm7.8711 55.105c-3.1836 0-6.0547-1.918-7.2734-4.8594-1.2188-2.9414-0.54297-6.3281 1.707-8.5781 2.25-2.2539 5.6367-2.9258 8.5781-1.707 2.9414 1.2188 4.8594 4.0898 4.8594 7.2734 0 2.0859-0.82813 4.0898-2.3047 5.5664-1.4766 1.4766-3.4805 2.3047-5.5664 2.3047z"/>
  <path d="m407.87 447.23v-25.062c7.0586-2.4961 12.516-8.1953 14.711-15.355 2.1914-7.1602 0.85547-14.938-3.5977-20.957s-11.496-9.5703-18.984-9.5703-14.535 3.5508-18.988 9.5703-5.7852 13.797-3.5938 20.957c2.1914 7.1602 7.6484 12.859 14.707 15.355v25.062zm-7.8711-55.105c3.1836 0 6.0547 1.918 7.2695 4.8594 1.2188 2.9414 0.54688 6.3281-1.7031 8.582-2.2539 2.25-5.6406 2.9219-8.582 1.7031-2.9414-1.2148-4.8594-4.0859-4.8594-7.2695 0-4.3477 3.5273-7.875 7.875-7.875z"/>
  <path d="m439.2 500.81c-0.49609-13.688-8.0898-26.121-20.039-32.812-11.945-6.6914-26.52-6.6719-38.445 0.058594-11.93 6.7266-19.484 19.184-19.938 32.871-21.395 6.3672-39.34 21.055-49.809 40.77h-13.309c-4.3477 0-7.875 3.5234-7.875 7.8711v31.488c0 2.0898 0.83203 4.0898 2.3086 5.5664 1.4727 1.4766 3.4766 2.3047 5.5664 2.3047h13.32-0.003906c4.332 8.9531 10.527 16.879 18.168 23.246v16.117c0 2.0859 0.83203 4.0898 2.3086 5.5664 1.4766 1.4727 3.4766 2.3047 5.5664 2.3047h31.488c2.0859 0 4.0898-0.83203 5.5664-2.3047 1.4766-1.4766 2.3047-3.4805 2.3047-5.5664v-5.7734c15.602 3 31.629 3 47.23 0v5.7734c0 2.0859 0.83203 4.0898 2.3086 5.5664 1.4766 1.4727 3.4766 2.3047 5.5664 2.3047h31.488c2.0859 0 4.0898-0.83203 5.5664-2.3047 1.4727-1.4766 2.3047-3.4805 2.3047-5.5664v-16.086c14.473-11.324 23.133-28.52 23.613-46.891 0-28.254-21.488-53.066-55.258-64.504zm-39.203-22.09c6.2617 0 12.27 2.4883 16.699 6.918 4.4258 4.4297 6.9141 10.434 6.9141 16.699 0 6.2617-2.4883 12.27-6.9141 16.699-4.4297 4.4258-10.438 6.9141-16.699 6.9141-6.2656 0-12.273-2.4883-16.699-6.9141-4.4297-4.4297-6.918-10.438-6.918-16.699 0-6.2656 2.4883-12.27 6.918-16.699 4.4258-4.4297 10.434-6.918 16.699-6.918zm58.168 123.5h-0.003907c-1.9297 1.4883-3.0586 3.7891-3.0625 6.2266v11.973h-15.742v-7.8711c0-2.4688-1.1562-4.793-3.125-6.2812s-4.5234-1.9648-6.8984-1.293c-19.184 5.3906-39.484 5.3906-58.668 0-2.375-0.67578-4.9297-0.19922-6.9023 1.2891-1.9688 1.4883-3.1289 3.8164-3.1289 6.2852v7.8711h-15.742v-11.988c-0.003906-2.4336-1.1289-4.7305-3.0547-6.2188-8.2109-6.0312-14.523-14.281-18.199-23.781-1.1133-3.1367-4.0742-5.2344-7.4023-5.2422h-10.703v-15.746h10.707-0.003907c3.3359 0.003906 6.3125-2.0977 7.4258-5.2422 7.4336-17.086 21.953-30.074 39.762-35.566 2.1328 5.4297 5.4492 10.316 9.707 14.305-6.7422 2.5273-12.891 6.4141-18.066 11.414l11.145 11.156c9.375-8.0469 21.441-12.266 33.789-11.809 12.344-0.45703 24.41 3.7617 33.785 11.809l11.148-11.117c-5.1914-5.0039-11.352-8.8906-18.105-11.414 4.2617-3.9922 7.5781-8.8828 9.7109-14.32 25.531 9.4492 42.18 28.332 42.18 48.66-0.68359 14.844-8.293 28.504-20.555 36.902z"/>
  <path d="m549.57 352.77v25.066c-7.0586 2.4961-12.516 8.1914-14.711 15.352-2.1914 7.1602-0.85547 14.938 3.5977 20.957s11.496 9.5703 18.984 9.5703 14.535-3.5508 18.988-9.5703 5.7852-13.797 3.5938-20.957c-2.1914-7.1602-7.6484-12.855-14.707-15.352v-25.066zm7.8711 55.105c-3.1836 0-6.0547-1.918-7.2695-4.8594-1.2188-2.9414-0.54688-6.3281 1.7031-8.5781 2.2539-2.2539 5.6406-2.9258 8.582-1.707s4.8594 4.0898 4.8594 7.2734c0 2.0859-0.83203 4.0898-2.3086 5.5664-1.4766 1.4766-3.4766 2.3047-5.5664 2.3047z"/>
  <path d="m563 166.14c-3.0742-3.0742-8.0547-3.0742-11.129 0l-10.18 10.18v-4.6133c0-2.0898-0.82812-4.0898-2.3047-5.5664-1.4766-1.4766-3.4805-2.3086-5.5664-2.3086h-31.488c-4.3477 0-7.875 3.5273-7.875 7.875v51.844l-13.438 13.438c-1.4727 1.4766-2.3047 3.4766-2.3047 5.5664v86.59c0 2.0898 0.82812 4.0938 2.3047 5.5664 1.4766 1.4766 3.4805 2.3086 5.5664 2.3086h141.7c2.0859 0 4.0898-0.83203 5.5664-2.3086 1.4727-1.4727 2.3047-3.4766 2.3047-5.5664v-86.59c0-2.0898-0.83203-4.0898-2.3086-5.5664zm-13.438 155.13h-15.742v-31.488h15.742zm31.488 0h-15.742v-31.488h15.742zm39.359 0h-23.613v-39.359c0-2.0859-0.83203-4.0898-2.3086-5.5664-1.4766-1.4766-3.4766-2.3047-5.5664-2.3047h-62.977c-4.3477 0-7.8711 3.5234-7.8711 7.8711v39.359h-23.617v-75.461l13.438-13.438c1.4766-1.4766 2.3086-3.4766 2.3086-5.5664v-47.23h15.742v15.742c0.003906 3.1836 1.9219 6.0547 4.8633 7.2734 2.9375 1.2188 6.3242 0.54297 8.5742-1.707l18.051-18.051 62.977 62.977z"/>
 </g>
</svg>