<?xml version="1.0" encoding="UTF-8"?>
<!-- The Best Svg Icon site in the world: iconSvg.co, Visit us! https://iconsvg.co -->
<svg fill="#000000" width="800px" height="800px" version="1.1" viewBox="144 144 512 512" xmlns="http://www.w3.org/2000/svg">
 <g>
  <path d="m400 294.84c-21.16 0-41.453 8.4023-56.414 23.367-14.961 14.961-23.367 35.254-23.367 56.41 0 21.16 8.4062 41.453 23.367 56.414 14.961 14.961 35.254 23.367 56.414 23.367 21.156 0 41.449-8.4062 56.41-23.367 14.965-14.961 23.367-35.254 23.367-56.414-0.023438-21.152-8.4375-41.43-23.391-56.387-14.957-14.957-35.238-23.367-56.387-23.391zm54.84 85.48h12.859c-1.1172 13.957-6.6016 27.207-15.672 37.875l-9.0742-9.0234h-0.003906c-2.3164-2.3086-6.0625-2.2969-8.3672 0.019531-2.3047 2.3164-2.2969 6.0625 0.019531 8.3672l9.0742 9.082v-0.003906c-10.672 9-23.867 14.477-37.773 15.68v-12.859c0-3.2617-2.6445-5.9023-5.9023-5.9023-3.2617 0-5.9062 2.6406-5.9062 5.9023v12.859c-13.906-1.2031-27.098-6.6758-37.773-15.672l9.0742-9.0742c2.2539-2.3125 2.2266-6.0078-0.054687-8.293-2.2852-2.2812-5.9805-2.3086-8.293-0.054688l-9.0742 8.9727c-9.0742-10.668-14.559-23.918-15.672-37.875h12.859c3.2578 0 5.9023-2.6445 5.9023-5.9062 0-3.2617-2.6445-5.9023-5.9023-5.9023h-12.859c1.3047-13.852 6.7656-26.984 15.672-37.676l9.0742 9.125v0.003906c1.0977 1.1289 2.5977 1.7695 4.1719 1.7852 1.5742 0.011719 3.0898-0.60547 4.207-1.7148 1.1133-1.1094 1.7383-2.6211 1.7344-4.1953-0.007812-1.5742-0.64062-3.0781-1.7656-4.1797l-9.0742-9.0703c10.672-8.9961 23.867-14.469 37.773-15.672v12.859c0 3.2617 2.6445 5.9062 5.9062 5.9062 3.2578 0 5.9023-2.6445 5.9023-5.9062v-12.859c13.906 1.2031 27.102 6.6758 37.773 15.672l-9.0742 9.0742c-1.1328 1.1016-1.7734 2.6133-1.7852 4.1914-0.011718 1.582 0.60938 3.0977 1.7266 4.2148 1.1172 1.1172 2.6367 1.7422 4.2148 1.7305 1.582-0.011719 3.0898-0.65234 4.1914-1.7852l9.0742-9.1758 0.003906-0.003906c8.9023 10.691 14.367 23.824 15.672 37.676h-12.859c-3.2617 0-5.9062 2.6406-5.9062 5.9023 0 3.2617 2.6445 5.9062 5.9062 5.9062z"/>
  <path d="m452.15 289.38v-80.477c0-18.633-9.9414-35.852-26.078-45.168-16.137-9.3125-36.016-9.3125-52.152 0-16.137 9.3164-26.074 26.535-26.074 45.168v80.473c-29.742 18.109-47.895 50.414-47.895 85.234 0 34.824 18.152 67.129 47.895 85.238v131.24c0 18.629 9.9375 35.848 26.074 45.164 16.137 9.3164 36.016 9.3164 52.152 0 16.137-9.3164 26.078-26.535 26.078-45.164v-131.24c29.742-18.113 47.891-50.414 47.891-85.238 0-34.82-18.148-67.125-47.891-85.234zm-92.496-80.477c0-14.414 7.6875-27.734 20.172-34.941 12.48-7.207 27.859-7.207 40.344 0 12.48 7.207 20.172 20.527 20.172 34.941v74.297c-25.723-11.25-54.969-11.25-80.688 0zm80.688 382.19c0 14.41-7.6914 27.73-20.172 34.938-12.484 7.207-27.863 7.207-40.344 0-12.484-7.207-20.172-20.527-20.172-34.938v-125.06c25.719 11.25 54.969 11.25 80.688 0zm-40.344-128.43c-23.352 0-45.746-9.2773-62.258-25.789-16.508-16.508-25.785-38.902-25.785-62.254 0-23.348 9.2773-45.742 25.785-62.254 16.512-16.512 38.906-25.785 62.258-25.785 23.348 0 45.742 9.2734 62.254 25.785 16.512 16.512 25.785 38.906 25.785 62.254-0.027343 23.344-9.3086 45.723-25.816 62.227-16.504 16.504-38.883 25.789-62.223 25.816z"/>
  <path d="m400 350.85c4.832 0.007813 8.75 3.9219 8.7578 8.7578 0 3.2617 2.6406 5.9023 5.9023 5.9023 3.2617 0 5.9023-2.6406 5.9023-5.9023-0.003906-4.4219-1.4336-8.7227-4.0742-12.27s-6.3516-6.1484-10.586-7.4219v-3.8789c0-3.2617-2.6445-5.9062-5.9023-5.9062-3.2617 0-5.9062 2.6445-5.9062 5.9062v3.8789c-6.3594 1.9062-11.406 6.7617-13.555 13.043-2.1484 6.2812-1.1289 13.215 2.7305 18.617 3.8594 5.3984 10.09 8.6016 16.73 8.6055 3.5391 0 6.7344 2.1328 8.0898 5.4062 1.3555 3.2695 0.60547 7.0391-1.8984 9.543-2.5039 2.5039-6.2734 3.2539-9.543 1.8984-3.2734-1.3555-5.4062-4.5508-5.4062-8.0938 0-3.2578-2.6445-5.9023-5.9062-5.9023-3.2617 0-5.9023 2.6445-5.9023 5.9023 0.003906 4.2461 1.3242 8.3828 3.7695 11.848 2.4492 3.4688 5.9102 6.0938 9.9062 7.5156v3.5039c0 3.2617 2.6445 5.9062 5.9062 5.9062 3.2578 0 5.9023-2.6445 5.9023-5.9062v-2.9141 0.003906c6.5625-1.6133 11.914-6.3516 14.312-12.672 2.3984-6.3164 1.5352-13.41-2.3047-18.973-3.8398-5.5625-10.168-8.8789-16.926-8.875-4.8398 0-8.7617-3.9219-8.7617-8.7617 0-4.8398 3.9219-8.7617 8.7617-8.7617z"/>
  <path d="m385.24 505.7c0 3.9141 1.5547 7.668 4.3242 10.438 2.7656 2.7695 6.5195 4.3242 10.438 4.3242 3.9141 0 7.668-1.5547 10.434-4.3242 2.7695-2.7695 4.3242-6.5234 4.3242-10.438s-1.5547-7.668-4.3242-10.438c-2.7656-2.7656-6.5195-4.3203-10.434-4.3203-3.9141 0.003907-7.668 1.5586-10.434 4.3242-2.7695 2.7695-4.3242 6.5195-4.3281 10.434zm17.711 0c0 1.1953-0.71875 2.2695-1.8203 2.7266-1.1055 0.45703-2.375 0.20703-3.2188-0.63672-0.84375-0.84766-1.0977-2.1172-0.64062-3.2188 0.45703-1.1016 1.5352-1.8203 2.7305-1.8203 1.6289 0 2.9492 1.3203 2.9492 2.9492z"/>
  <path d="m400 529.4c-3.918 0-7.6719 1.5547-10.438 4.3242-2.7695 2.7656-4.3242 6.5234-4.3242 10.438 0 3.9141 1.5547 7.668 4.3242 10.438 2.7656 2.7656 6.5195 4.3203 10.438 4.3203 3.9141 0 7.668-1.5547 10.434-4.3203 2.7695-2.7695 4.3242-6.5234 4.3242-10.438-0.003906-3.9141-1.5586-7.668-4.3281-10.434-2.7656-2.7656-6.5195-4.3242-10.43-4.3281zm0 17.711c-1.1953 0-2.2734-0.71875-2.7305-1.8203-0.45703-1.1055-0.20312-2.375 0.64062-3.2188s2.1133-1.0938 3.2188-0.64062c1.1016 0.45703 1.8203 1.5352 1.8203 2.7305-0.003907 1.625-1.3242 2.9414-2.9492 2.9414z"/>
  <path d="m400 567.86c-3.918 0-7.6719 1.5547-10.438 4.3242-2.7695 2.7695-4.3242 6.5234-4.3242 10.438 0 3.9141 1.5547 7.668 4.3242 10.438 2.7656 2.7656 6.5195 4.3203 10.438 4.3203 3.9141 0 7.668-1.5547 10.434-4.3203 2.7695-2.7695 4.3242-6.5234 4.3242-10.438-0.003906-3.9141-1.5586-7.6641-4.3281-10.434-2.7656-2.7656-6.5195-4.3242-10.43-4.3281zm0 17.711v0.003907c-1.1953 0-2.2734-0.72266-2.7305-1.8242s-0.20312-2.3711 0.64062-3.2148c0.84375-0.84766 2.1133-1.0977 3.2188-0.64062 1.1016 0.45703 1.8203 1.5312 1.8203 2.7266 0 1.6289-1.3203 2.9492-2.9492 2.9492z"/>
 </g>
</svg>