<?xml version="1.0" encoding="UTF-8"?>
<!-- The Best Svg Icon site in the world: iconSvg.co, Visit us! https://iconsvg.co -->
<svg fill="#000000" width="800px" height="800px" version="1.1" viewBox="144 144 512 512" xmlns="http://www.w3.org/2000/svg">
 <g>
  <path d="m628.29 211.07h-456.58c-4.3477 0-7.875 3.5234-7.875 7.8711v62.977c0 2.0898 0.83203 4.0898 2.3086 5.5664 1.4766 1.4766 3.4766 2.3047 5.5664 2.3047h23.613v55.105h-15.742c-4.3477 0-7.8711 3.5234-7.8711 7.8711v94.465c0 2.0898 0.82812 4.0898 2.3047 5.5664s3.4766 2.3047 5.5664 2.3047h47.23c2.0898 0 4.0898-0.82812 5.5664-2.3047 1.4766-1.4766 2.3086-3.4766 2.3086-5.5664v-94.465c0-2.0859-0.83203-4.0898-2.3086-5.5664-1.4766-1.4766-3.4766-2.3047-5.5664-2.3047h-15.742v-55.105h39.359v196.8c0 2.0898 0.82812 4.0898 2.3047 5.5664s3.4805 2.3047 5.5664 2.3047h157.84c1.9102 24.766 12.762 47.984 30.535 65.336 17.77 17.348 41.246 27.637 66.051 28.949 24.801 1.3125 49.23-6.4453 68.734-21.824 19.504-15.375 32.742-37.324 37.254-61.746 4.5117-24.426-0.019531-49.652-12.742-70.98-12.727-21.332-32.777-37.301-56.41-44.934v-99.473h78.723c2.0859 0 4.0898-0.82812 5.5664-2.3047 1.4727-1.4766 2.3047-3.4766 2.3047-5.5664v-62.977c0-2.0859-0.83203-4.0898-2.3047-5.5664-1.4766-1.4766-3.4805-2.3047-5.5664-2.3047zm-409.35 228.29h-7.8711v-55.105h-15.746v55.105h-7.8711v-78.723h31.488zm-39.359-212.55h212.54v47.23l-212.54 0.003906zm425.09 259.78c0 22.965-9.125 44.992-25.363 61.23-16.238 16.238-38.266 25.363-61.23 25.363s-44.988-9.125-61.23-25.363c-16.238-16.238-25.359-38.266-25.359-61.23s9.1211-44.988 25.359-61.23c16.242-16.238 38.266-25.359 61.23-25.359 22.957 0.027344 44.969 9.1562 61.199 25.391 16.234 16.234 25.367 38.242 25.395 61.199zm-70.848-101c-28.188-4.6289-57.02 2.8359-79.418 20.562-22.398 17.723-36.289 44.066-38.262 72.562h-149.97v-188.93h267.65zm86.59-111.55h-212.54v-47.234h212.54z"/>
  <path d="m510.21 439.36v9.3203c-7.0547 2.4844-12.512 8.1719-14.699 15.324-2.1914 7.1484-0.85547 14.918 3.5977 20.926 4.4531 6.0078 11.492 9.5469 18.973 9.5312 3.1836 0 6.0547 1.918 7.2734 4.8633 1.2188 2.9414 0.54688 6.3242-1.707 8.5781-2.25 2.25-5.6367 2.9219-8.5781 1.707-2.9414-1.2188-4.8594-4.0898-4.8594-7.2734h-15.746c0.023437 4.8672 1.5469 9.6094 4.3633 13.574 2.8203 3.9688 6.793 6.9688 11.383 8.5938v9.3203h15.742v-9.3203c7.0547-2.4844 12.512-8.1719 14.703-15.324 2.1914-7.1523 0.85547-14.918-3.5977-20.93-4.4531-6.0078-11.496-9.5469-18.977-9.5312-3.1836 0-6.0547-1.918-7.2734-4.8594s-0.54297-6.3281 1.707-8.5781c2.2539-2.2539 5.6367-2.9258 8.5781-1.707s4.8594 4.0898 4.8594 7.2734h15.746c-0.019531-4.8672-1.543-9.6094-4.3633-13.578-2.8164-3.9688-6.793-6.9688-11.383-8.5898v-9.3203z"/>
  <path d="m439.36 486.59c0 20.879 8.293 40.902 23.055 55.664 14.766 14.762 34.785 23.059 55.664 23.059s40.902-8.2969 55.664-23.059c14.762-14.762 23.059-34.785 23.059-55.664s-8.2969-40.898-23.059-55.664c-14.762-14.762-34.785-23.055-55.664-23.055-20.871 0.023437-40.879 8.3242-55.637 23.082-14.758 14.758-23.059 34.766-23.082 55.637zm141.7 0c0 16.703-6.6328 32.723-18.445 44.531-11.809 11.812-27.828 18.445-44.531 18.445s-32.719-6.6328-44.531-18.445c-11.809-11.809-18.445-27.828-18.445-44.531s6.6367-32.719 18.445-44.531c11.812-11.809 27.828-18.445 44.531-18.445 16.699 0.019531 32.703 6.6602 44.512 18.469 11.805 11.805 18.445 27.812 18.465 44.508z"/>
  <path d="m557.44 478.72h15.742v15.742h-15.742z"/>
  <path d="m462.98 478.72h15.742v15.742h-15.742z"/>
 </g>
</svg>