<?xml version="1.0" encoding="UTF-8"?>
<!-- The Best Svg Icon site in the world: iconSvg.co, Visit us! https://iconsvg.co -->
<svg fill="#000000" width="800px" height="800px" version="1.1" viewBox="144 144 512 512" xmlns="http://www.w3.org/2000/svg">
 <g>
  <path d="m607.17 588.31 0.070313-0.14844h-0.003907c0.082031-0.21094 0.15234-0.42969 0.20703-0.64844v-0.17969c0.042969-0.23828 0.066407-0.48438 0.070313-0.72656-0.003906-0.25-0.027344-0.49609-0.070313-0.73828v-0.16797c-0.046874-0.22656-0.11719-0.44531-0.20703-0.66016l-0.058593-0.12891v0.003906c-0.082032-0.18359-0.17578-0.35547-0.28516-0.52344l-0.078125-0.12891c-0.12891-0.1875-0.27344-0.35938-0.43359-0.51953l-0.11719-0.10938c-0.13672-0.14062-0.28906-0.26562-0.45312-0.375l-0.10938-0.089843h-0.050781l-30.25-19.324h0.003906c-1.8867-1.0195-4.2422-0.41016-5.4023 1.3984-1.1602 1.8047-0.73047 4.1992 0.98438 5.4922l18.383 11.75-370.43-0.003906 68.34-93.086c5.9062 4.0391 13.32 5.1953 20.172 3.1445 6.8555-2.0508 12.418-7.0898 15.133-13.707 2.7188-6.6172 2.3047-14.109-1.1289-20.383l34.184-29.52 60.469 74.559-0.003906-0.003906c-5.0312 5.8984-6.8672 13.883-4.9062 21.383 1.957 7.5 7.4609 13.57 14.734 16.254 7.2734 2.6797 15.398 1.6367 21.758-2.7969 6.3594-4.4336 10.148-11.695 10.148-19.449 0-0.62109 0-1.2305-0.078125-1.8398l61.105-59.504c3.8516 6.9297 10.91 11.473 18.809 12.109 7.9023 0.64062 15.598-2.7109 20.516-8.9258 4.9141-6.2188 6.4023-14.48 3.957-22.02-2.4414-7.5391-8.4883-13.359-16.117-15.516-7.625-2.1523-15.824-0.35156-21.852 4.7969-6.0234 5.1484-9.0781 12.969-8.1367 20.84l-60.832 59.238v-0.003907c-2.9336-5.7539-8.0938-10.059-14.281-11.918-6.1875-1.8594-12.867-1.1055-18.484 2.0781l-60.586-74.695 75.887-65.625v0.003906c4.1953 3.8477 9.6406 6.0586 15.332 6.2227 5.6953 0.16406 11.258-1.7305 15.668-5.332 4.4141-3.6016 7.3789-8.6719 8.3594-14.285h39.164c1.3828 7.8633 6.6289 14.5 13.957 17.66 7.3281 3.1641 15.758 2.4258 22.426-1.957 6.6719-4.3867 10.684-11.832 10.684-19.816 0-7.9805-4.0117-15.426-10.684-19.812-6.668-4.3867-15.098-5.1211-22.426-1.9609-7.3281 3.1641-12.574 9.8008-13.957 17.66h-39.164c-1.1992-6.8164-5.3164-12.77-11.273-16.297-5.957-3.5234-13.16-4.2695-19.711-2.0391-6.5547 2.2305-11.805 7.2148-14.375 13.641-2.5703 6.4297-2.1992 13.656 1.0117 19.789l-76.055 65.773-29.168-35.938c4.9688-6.6328 6.1133-15.379 3.0156-23.066-3.0938-7.6875-9.9805-13.199-18.16-14.535-8.1758-1.3398-16.461 1.6875-21.844 7.9883-5.3867 6.3008-7.0898 14.953-4.4961 22.824l-71.105 73.172v-239.47l11.75 18.41c1.3125 1.668 3.6719 2.0625 5.457 0.91797 1.7812-1.1484 2.4023-3.4609 1.4297-5.3438l-19.285-30.238-0.11719-0.16797c-0.078126-0.10937-0.16406-0.21094-0.25781-0.30469-0.76953-0.88281-1.8828-1.3906-3.0547-1.3906-1.1719 0-2.2852 0.50781-3.0547 1.3906-0.09375 0.09375-0.17969 0.19531-0.25391 0.30469-0.042969 0.054688-0.082032 0.10938-0.12109 0.16797l-19.383 30.238c-0.71875 0.91016-1.0156 2.082-0.82422 3.2227 0.19141 1.1445 0.85547 2.1562 1.832 2.7812 0.97266 0.625 2.168 0.8125 3.2891 0.51172 1.1172-0.30078 2.0586-1.0586 2.5898-2.0898l11.789-18.41v378.49c-0.003907 0.085937-0.003907 0.17578 0 0.26562v0.45312c0 0.14844 0.058593 0.25391 0.097656 0.38281 0.039063 0.12891 0.070313 0.25391 0.11719 0.38281 0.050782 0.12109 0.10547 0.23828 0.16797 0.35547 0.11719 0.24219 0.26172 0.46875 0.43359 0.67969 0.078125 0.10547 0.16406 0.20703 0.25781 0.30469 0.097656 0.10937 0.21484 0.20703 0.32422 0.30469l0.20703 0.17578 0.078124 0.050782 0.22656 0.13672c0.13281 0.089844 0.27734 0.16797 0.42188 0.23828l0.24609 0.097656c0.15625 0.058594 0.32031 0.10938 0.48047 0.14844l0.23438 0.058594h0.003906c0.24219 0.042969 0.48828 0.0625 0.73828 0.066406h378.61l-18.383 11.75c-1.8633 1.2422-2.3945 3.7461-1.1914 5.6367 1.2031 1.8867 3.6992 2.4648 5.6094 1.3008l30.25-19.324h0.050781l0.10938-0.089843h-0.003906c0.16016-0.10938 0.3125-0.23047 0.45312-0.36328l0.11719-0.11719v-0.003906c0.15625-0.15625 0.29688-0.32812 0.42188-0.51172l0.097656-0.14844 0.003906 0.003906c0.097656-0.17188 0.1875-0.35156 0.26562-0.53125zm-67.582-157.8c4.1055 0 8.0469 1.6289 10.949 4.5352 2.9062 2.9062 4.5391 6.8438 4.5391 10.953 0 4.1055-1.6328 8.0469-4.5391 10.949-2.9023 2.9062-6.8438 4.5391-10.949 4.5391-4.1094 0-8.0469-1.6328-10.953-4.5391-2.9023-2.9023-4.5352-6.8438-4.5352-10.949 0.003907-4.1094 1.6367-8.043 4.543-10.949 2.9023-2.9023 6.8398-4.5352 10.945-4.5391zm-89.957 88.344c-0.007812 4.1055-1.6484 8.043-4.5586 10.945-2.9102 2.9023-6.8516 4.5273-10.961 4.5234-4.1094-0.007812-8.0469-1.6445-10.949-4.5508-2.9023-2.9102-4.5312-6.8516-4.5273-10.957 0-4.1094 1.6367-8.0508 4.543-10.953 2.9062-2.9062 6.8438-4.5352 10.953-4.5352 4.1133 0.003907 8.0586 1.6406 10.965 4.5547 2.9062 2.9102 4.5352 6.8594 4.5352 10.973zm89.957-193.94c4.1094-0.003906 8.0547 1.6289 10.965 4.5352 2.9062 2.9062 4.543 6.8477 4.543 10.957 0 4.1133-1.6328 8.0547-4.5391 10.965-2.9062 2.9062-6.8516 4.5391-10.961 4.5391-4.1133 0-8.0547-1.6367-10.961-4.543-2.9062-2.9102-4.5391-6.8555-4.5352-10.965 0.003907-4.1055 1.6367-8.043 4.543-10.945 2.9023-2.9062 6.8398-4.5391 10.945-4.543zm-85.855 0c4.1133-0.003906 8.0547 1.6289 10.965 4.5352 2.9062 2.9062 4.543 6.8477 4.543 10.957 0 4.1133-1.6328 8.0547-4.5391 10.965-2.9062 2.9062-6.8516 4.5391-10.961 4.5391-4.1133 0-8.0547-1.6367-10.961-4.543-2.9062-2.9102-4.5391-6.8555-4.5352-10.965 0.007812-4.1055 1.6445-8.043 4.5469-10.945 2.9023-2.9023 6.8359-4.5352 10.941-4.543zm-153.07 160.39c-4.1133 0.003907-8.0625-1.6289-10.969-4.5391-2.9102-2.9102-4.543-6.8555-4.5391-10.973 0.003906-4.1133 1.6406-8.0586 4.5547-10.961 2.9141-2.9062 6.8633-4.5312 10.98-4.5234 4.1133 0.011718 8.0547 1.6562 10.953 4.5742 2.9023 2.918 4.5234 6.8711 4.5078 10.984-0.015625 4.1016-1.6523 8.0273-4.5547 10.922-2.9023 2.8984-6.8359 4.5273-10.934 4.5352zm7.8711-133.82c4.1094 0 8.0469 1.6328 10.953 4.5391 2.9023 2.9023 4.5352 6.8438 4.5352 10.949 0 4.1094-1.6328 8.0469-4.5352 10.953-2.9062 2.9023-6.8438 4.5352-10.953 4.5352s-8.0469-1.6328-10.953-4.5352c-2.9023-2.9062-4.5352-6.8438-4.5352-10.953 0.011719-4.1055 1.6562-8.0391 4.5625-10.938 2.9102-2.8984 6.8477-4.5234 10.957-4.5195zm-18.352 30.465c3.6797 4.5664 8.9297 7.5977 14.723 8.5078 5.793 0.91016 11.715-0.37109 16.617-3.5859l28.941 35.68-34.145 29.52c-5.8711-5.2109-13.938-7.1797-21.543-5.2539-7.6094 1.9258-13.77 7.4922-16.457 14.867-2.6836 7.3711-1.543 15.598 3.0469 21.965l-66.422 90.469v-114.73z"/>
  <path d="m608.48 377.79h-32.473c-1.3516 0-2.6133 0.66797-3.375 1.7812l-16.809 24.305c-1.1719 1.8633-0.66797 4.3203 1.1445 5.5742 1.8086 1.2539 4.2852 0.85547 5.6172-0.89844l15.578-22.535h30.328-0.003907c2.2734 0 4.1133-1.8398 4.1133-4.1133 0-2.2695-1.8398-4.1133-4.1133-4.1133z"/>
  <path d="m608.48 360.14h-24.602c-2.2695 0-4.1133 1.8438-4.1133 4.1133 0 2.2734 1.8438 4.1133 4.1133 4.1133h24.602c2.2695 0 4.1133-1.8398 4.1133-4.1133 0-2.2695-1.8438-4.1133-4.1133-4.1133z"/>
  <path d="m608.48 271.02h-32.473c-1.3477-0.003906-2.6133 0.66016-3.375 1.7695l-16.809 24.316c-1.1719 1.8633-0.66797 4.3203 1.1445 5.5742 1.8086 1.2539 4.2852 0.85547 5.6172-0.90234l15.578-22.535h30.328l-0.003907 0.003907c2.2734 0 4.1133-1.8438 4.1133-4.1133 0-2.2734-1.8398-4.1133-4.1133-4.1133z"/>
  <path d="m583.84 261.6h24.602c2.2695 0 4.1133-1.8398 4.1133-4.1133 0-2.2695-1.8438-4.1133-4.1133-4.1133h-24.602c-2.2734 0-4.1133 1.8438-4.1133 4.1133 0 2.2734 1.8398 4.1133 4.1133 4.1133z"/>
 </g>
</svg>