<?xml version="1.0" encoding="UTF-8"?>
<!-- The Best Svg Icon site in the world: iconSvg.co, Visit us! https://iconsvg.co -->
<svg fill="#000000" width="800px" height="800px" version="1.1" viewBox="144 144 512 512" xmlns="http://www.w3.org/2000/svg">
 <path d="m603.41 323.32c-0.039062-15.477-6.207-30.312-17.152-41.254-10.945-10.945-25.777-17.113-41.258-17.156h-29.754c23.094-15.641 36.945-41.695 36.996-69.59 0-4.1758-1.6562-8.1797-4.6094-11.133-2.9531-2.9492-6.957-4.6094-11.133-4.6094h-68.328c-27.133 0.023438-52.559 13.234-68.172 35.426-15.613-22.191-41.043-35.402-68.172-35.426h-68.332c-4.1758 0-8.1797 1.6602-11.133 4.6094-2.9492 2.9531-4.6094 6.957-4.6094 11.133 0.050782 27.895 13.906 53.949 37 69.59h-29.758c-17.91-0.058593-34.852 8.1211-45.941 22.184-11.09 14.062-15.094 32.445-10.859 49.848 4.2383 17.402 16.242 31.887 32.555 39.281v196.96c0 12.527 4.9766 24.539 13.832 33.398 8.8594 8.8555 20.875 13.832 33.398 13.832h244.04c12.527 0 24.539-4.9766 33.398-13.832 8.8555-8.8594 13.832-20.871 13.832-33.398v-196.96c10.141-4.6484 18.746-12.098 24.797-21.469 6.0547-9.3711 9.3047-20.277 9.3672-31.434zm-135.24-112.25h50.066-0.003906c-3.3516 10.648-10.016 19.949-19.02 26.547-9.0039 6.5977-19.883 10.148-31.043 10.137h-50.066c3.3711-10.637 10.043-19.922 19.043-26.516s19.863-10.156 31.023-10.168zm-136.34 0c11.156 0.011719 22.02 3.5742 31.02 10.168s15.672 15.879 19.047 26.516h-50.066c-11.164 0.011719-22.039-3.5391-31.047-10.137-9.0039-6.5977-15.668-15.898-19.02-26.547zm-76.832 85.332h129.26v53.688h-129.26c-7.4766 0.57422-14.852-1.9961-20.352-7.0938-5.5-5.0938-8.6289-12.254-8.6289-19.75s3.1289-14.656 8.6289-19.75c5.5-5.0977 12.875-7.668 20.352-7.0938zm7.2422 276.78v-191.61h122.02v207.35h-106.27c-4.1758 0-8.1797-1.6562-11.133-4.6094-2.9492-2.9531-4.6094-6.957-4.6094-11.133zm275.52 0c0 4.1758-1.6562 8.1797-4.6094 11.133-2.9531 2.9531-6.957 4.6094-11.133 4.6094h-106.27v-207.35h122.02zm7.2422-223.09h-129.26v-53.688h129.26c7.4766-0.57422 14.852 1.9961 20.355 7.0938 5.5 5.0938 8.625 12.254 8.625 19.75s-3.125 14.656-8.625 19.75c-5.5039 5.0977-12.879 7.668-20.355 7.0938z"/>
</svg>