<?xml version="1.0" encoding="UTF-8"?>
<!-- The Best Svg Icon site in the world: iconSvg.co, Visit us! https://iconsvg.co -->
<svg fill="#000000" width="800px" height="800px" version="1.1" viewBox="144 144 512 512" xmlns="http://www.w3.org/2000/svg">
 <g>
  <path d="m423.97 247.93c0 40.41-32.762 73.168-73.168 73.168-40.41 0-73.168-32.758-73.168-73.168 0-40.41 32.758-73.168 73.168-73.168 40.406 0 73.168 32.758 73.168 73.168"/>
  <path d="m538.7 536.86-9.4453 21.262v0.003906c-0.83594 1.8672-2.5 3.2383-4.4961 3.6953-0.46875 0.10547-0.94922 0.16016-1.4297 0.16016-1.5469 0-3.043-0.54688-4.2227-1.5469l-17.699-15.055-5.9844 5.0898 29.863 72.984 9.9961-20.414v-0.003906c2.6016-5.2773 8.6719-7.8594 14.277-6.0664l22.742 7.3633-27.051-65.75z"/>
  <path d="m483.71 560.43c-1.5586 1.3281-3.6523 1.8438-5.6484 1.3906s-3.6641-1.8242-4.4961-3.6953l-9.4453-21.27-5.7344 1.5-27.891 67.719 22.766-7.3398v0.003907c5.6016-1.793 11.672 0.78906 14.273 6.0664l9.9609 20.422 17.883-43.711-9.4141-23z"/>
  <path d="m444.07 542.33-2.4336 0.41406c-1.9844 0.52344-4.0938 0.074218-5.6953-1.2031-1.6055-1.2773-2.5117-3.2344-2.4453-5.2852l0.72656-23.242-22.777-4.4336c-2.0117-0.39062-3.7227-1.707-4.6133-3.5508-0.89062-1.8477-0.85938-4.0039 0.085937-5.8242l10.711-20.617-18.598-13.969v0.003906c-1.6367-1.2266-2.5977-3.1523-2.5977-5.1992 0-2.043 0.96094-3.9688 2.5977-5.1953l18.586-13.922-10.707-20.613c-0.94141-1.8164-0.97656-3.9766-0.082031-5.8203 0.89062-1.8438 2.5977-3.1602 4.6094-3.5508l22.777-4.4297-0.72656-23.246c-0.066406-2.0469 0.83984-4.0078 2.4453-5.2852 1.6016-1.2773 3.7148-1.7227 5.6953-1.1992l22.477 5.8867 8.3086-18.707c-11.422-10.977-26.453-17.418-42.277-18.121-19.105 24.391-48.363 38.641-79.348 38.641s-60.242-14.25-79.348-38.641c-16.777 0.76953-32.613 7.9727-44.219 20.113-11.609 12.137-18.094 28.281-18.117 45.074v134.24h234.11z"/>
  <path d="m574.49 471.86 16.531-12.418-16.52-12.379c-2.5508-1.9023-3.3398-5.375-1.8672-8.1953l9.5117-18.301-20.238-3.9375h-0.003906c-3.1367-0.59766-5.3672-3.3984-5.25-6.5898l0.64453-20.656-19.977 5.2305c-3.0742 0.81641-6.2891-0.73047-7.5742-3.6406l-8.3984-18.902-15.73 13.383c-2.4219 2.0742-5.9961 2.0742-8.418 0l-15.73-13.383-8.3945 18.895c-1.2852 2.9141-4.4961 4.4609-7.5781 3.6445l-19.977-5.2305 0.64453 20.656 0.003907 0.003906c0.10938 3.1875-2.1211 5.9844-5.2578 6.5781l-20.23 3.9375 9.5078 18.301c1.4727 2.8203 0.67969 6.293-1.8711 8.1953l-16.531 12.379 16.531 12.418v-0.003906c2.5508 1.9023 3.3438 5.3711 1.8711 8.1914l-9.5117 18.309 20.238 3.9375v-0.003906c3.1328 0.59766 5.3633 3.3906 5.2539 6.582l-0.64453 20.656 19.977-5.2305h-0.003906c0.54297-0.14453 1.1016-0.21484 1.6641-0.21484 2.5664 0 4.8867 1.5156 5.9219 3.8633l8.3906 18.895 15.73-13.383v-0.003906c2.4219-2.0742 6-2.0742 8.4219 0l15.727 13.383 8.3945-18.895v0.003907c1.2891-2.918 4.5039-4.4648 7.5859-3.6484l19.977 5.2305-0.64453-20.656h-0.003906c-0.10938-3.1914 2.1211-5.9844 5.2578-6.582l20.234-3.9375-9.5117-18.309v0.003906c-1.4688-2.8086-0.6875-6.2695 1.8477-8.1758zm-73.082 50.48v-0.003907c-16.676 0-32.668-6.6211-44.461-18.414-11.793-11.793-18.418-27.785-18.418-44.461s6.625-32.672 18.418-44.461c11.793-11.793 27.785-18.418 44.461-18.418s32.672 6.625 44.461 18.418c11.793 11.789 18.418 27.785 18.418 44.461-0.019531 16.668-6.6523 32.652-18.438 44.438-11.789 11.789-27.77 18.422-44.441 18.441z"/>
  <path d="m501.41 408.38c-13.543 0-26.535 5.3789-36.109 14.957-9.5781 9.5781-14.961 22.566-14.961 36.113 0 13.543 5.3828 26.531 14.961 36.109 9.5742 9.5781 22.566 14.961 36.109 14.961 13.547 0 26.535-5.3828 36.113-14.961s14.957-22.566 14.957-36.109c-0.015624-13.539-5.4023-26.52-14.977-36.094s-22.555-14.961-36.094-14.977zm0 46.012c5.5898 0.003906 10.949 2.2188 14.906 6.168 3.9609 3.9453 6.1914 9.3008 6.2148 14.887-0.085938 4.7266-1.7266 9.293-4.6641 12.996s-7.0117 6.3398-11.594 7.4961v4.4297c0 3.2617-2.6406 5.9023-5.9023 5.9023-3.2617 0-5.9062-2.6406-5.9062-5.9023v-5.1172c-4.0625-1.5-7.5781-4.1953-10.082-7.7305-2.5078-3.5312-3.8867-7.7422-3.9609-12.074 0-3.2461 2.6328-5.8789 5.8789-5.8789 3.25 0 5.8828 2.6328 5.8828 5.8789 0 4.7148 3.5508 8.6758 8.2344 9.1914 0.16406 0 0.32031 0.011719 0.48047 0.03125 0.16016 0.019531 0.33594 0.027343 0.51172 0.027343l0.003906-0.003906c2.5 0.078125 4.9258-0.86328 6.7227-2.6055 1.7969-1.7422 2.8125-4.1367 2.8125-6.6406 0-2.5-1.0156-4.8984-2.8125-6.6406-1.7969-1.7422-4.2227-2.6797-6.7227-2.6016-6.7969-0.007813-13.172-3.2969-17.113-8.832-3.9453-5.5352-4.9727-12.633-2.7578-19.059 2.2109-6.4258 7.3906-11.387 13.906-13.32v-5.3125c0-3.2617 2.6445-5.9062 5.9062-5.9062 3.2617 0 5.9023 2.6445 5.9023 5.9062v5.2227-0.003906c4.4062 1.25 8.2812 3.9023 11.039 7.5586 2.7539 3.6523 4.2422 8.1094 4.2344 12.688 0 3.2734-2.6562 5.9258-5.9297 5.9258-3.2734 0-5.9297-2.6523-5.9297-5.9258 0-3.7422-2.2539-7.1133-5.707-8.5469-3.4531-1.4297-7.4336-0.64062-10.078 2-2.6484 2.6445-3.4414 6.6211-2.0117 10.078 1.4258 3.457 4.7969 5.7109 8.5352 5.7188z"/>
 </g>
</svg>