<?xml version="1.0" encoding="UTF-8"?>
<!-- The Best Svg Icon site in the world: iconSvg.co, Visit us! https://iconsvg.co -->
<svg width="800px" height="800px" version="1.1" viewBox="144 144 512 512" xmlns="http://www.w3.org/2000/svg">
 <defs>
  <clipPath id="a">
   <path d="m148.09 148.09h503.81v503.81h-503.81z"/>
  </clipPath>
 </defs>
 <g clip-path="url(#a)">
  <path d="m392.12 344.89c-11.25 0-21.645 6-27.27 15.742-5.625 9.7422-5.625 21.746 0 31.488s16.02 15.746 27.27 15.746h15.746c5.625 0 10.82 3 13.633 7.8711 2.8125 4.8711 2.8125 10.875 0 15.746-2.8125 4.8711-8.0078 7.8711-13.633 7.8711h-15.746c-4.1758 0-8.1797-1.6602-11.133-4.6133-2.9492-2.9531-4.6094-6.957-4.6094-11.133 0-4.3477-3.5234-7.8711-7.8711-7.8711-4.3477 0-7.875 3.5234-7.875 7.8711 0.027343 8.3438 3.3516 16.34 9.25 22.238 5.9023 5.9023 13.895 9.2266 22.238 9.25v7.875c-0.023438 0.32031 0.03125 0.64453 0.16016 0.94141 0.43359 3.9336 3.7578 6.9102 7.7148 6.9102 3.9531 0 7.2773-2.9766 7.7148-6.9102 0.125-0.29688 0.17969-0.62109 0.15625-0.94141v-7.875c11.25 0 21.645-6 27.27-15.742s5.625-21.746 0-31.488c-5.625-9.7422-16.02-15.746-27.27-15.746h-15.746c-5.625 0-10.82-3-13.633-7.8711s-2.8125-10.871 0-15.742c2.8125-4.8711 8.0078-7.875 13.633-7.875h15.746c4.1758 0 8.1797 1.6602 11.133 4.6133s4.6094 6.957 4.6094 11.133c0 4.3477 3.5273 7.8711 7.875 7.8711 4.3477 0 7.8711-3.5234 7.8711-7.8711 0-8.3516-3.3164-16.359-9.2227-22.266s-13.914-9.2227-22.266-9.2227v-7.8711c0.023437-0.32422-0.03125-0.64844-0.15625-0.94531-0.4375-3.9336-3.7617-6.9062-7.7148-6.9062-3.957 0-7.2812 2.9727-7.7148 6.9062-0.12891 0.29688-0.18359 0.62109-0.16016 0.94531zm220.42-196.8h-425.09c-10.438 0-20.449 4.1484-27.832 11.527-7.3789 7.3828-11.527 17.395-11.527 27.832v425.09c0 10.438 4.1484 20.449 11.527 27.832 7.3828 7.3828 17.395 11.527 27.832 11.527h425.09c10.438 0 20.449-4.1445 27.832-11.527s11.527-17.395 11.527-27.832v-425.09c0-10.438-4.1445-20.449-11.527-27.832-7.3828-7.3789-17.395-11.527-27.832-11.527zm-448.71 39.359c0-6.2617 2.4883-12.27 6.918-16.699 4.4297-4.4297 10.438-6.918 16.699-6.918h204.67v29.285c-11.75-3.0547-24.238-1.2773-34.668 4.9414-10.43 6.2148-17.938 16.348-20.844 28.141-2.9062 11.789-0.96875 24.25 5.3828 34.602 6.3477 10.352 16.578 17.73 28.402 20.484 7.0352 1.7617 14.402 1.707 21.414-0.15625h0.31641l-0.003906 16.844c-24.309 1.9766-47.125 12.527-64.375 29.773-17.246 17.25-27.797 40.066-29.773 64.375h-28.652c-2.8789 0.023438-5.5234 1.5859-6.9297 4.0938-1.2695 2.6289-1.0898 5.7266 0.47266 8.1875 1.2656 1.8633 2.1719 3.9453 2.6758 6.1406 0.03125 0.43359 0.13672 0.86328 0.31641 1.2578 1.2344 4.4766 1.2891 9.1953 0.15625 13.699-2.1992 9.5664-8.9922 17.422-18.137 20.988-9.1484 3.5625-19.465 2.3672-27.559-3.1875-8.0898-5.5547-12.91-14.754-12.871-24.57-0.007813-2.5078 0.36328-5.0039 1.1016-7.3984 0.61719-2.6289 1.6836-5.1328 3.1484-7.4023 1.3594-2.4609 1.2969-5.4648-0.15625-7.8711-1.3281-2.4883-3.9492-4.0117-6.7695-3.9375h-40.938zm236.16 125.95h0.003906c2.6289-0.003906 5.2578 0.15234 7.8711 0.47266 20.137 1.8242 38.996 10.656 53.293 24.953 14.297 14.297 23.129 33.156 24.953 53.293 0.63281 5.2305 0.63281 10.516 0 15.746-1.8242 20.137-10.656 38.996-24.953 53.293-14.297 14.297-33.156 23.129-53.293 24.953-5.2305 0.63281-10.516 0.63281-15.746 0-20.137-1.8242-38.996-10.656-53.293-24.953-14.297-14.297-23.129-33.156-24.953-53.293-0.62891-5.2305-0.62891-10.516 0-15.746 1.8242-20.137 10.656-38.996 24.953-53.293s33.156-23.129 53.293-24.953c2.6133-0.32031 5.2422-0.47656 7.875-0.47266zm-3.9375 274.89h0.003906c-2.4688 1.4258-3.9766 4.0781-3.9375 6.9297v40.934h-204.67c-6.2617 0-12.27-2.4883-16.699-6.918-4.4297-4.4297-6.918-10.438-6.918-16.699v-204.67h29.285c-0.96484 3.5391-1.4414 7.1953-1.418 10.863-0.023437 14.215 6.6211 27.621 17.949 36.211 7.8477 6.0508 17.484 9.3203 27.395 9.2891 4.3711-0.011719 8.7188-0.64453 12.91-1.8906 7.6953-2.2656 14.652-6.5352 20.16-12.371 5.5039-5.8359 9.3594-13.031 11.172-20.848 1.7578-6.8242 1.7031-13.988-0.15625-20.781v-0.47266h16.844c1.9766 24.309 12.527 47.129 29.773 64.375 17.25 17.246 40.066 27.801 64.375 29.773v28.496c-0.019531 2.9297 1.5469 5.6406 4.0938 7.0859 2.6289 1.2695 5.7266 1.0938 8.1875-0.47266 1.6484-1.043 3.3906-1.9375 5.1953-2.6758 0.75 0.050781 1.5-0.058594 2.2031-0.31641 4.4766-1.2344 9.1953-1.2891 13.699-0.15625 9.8086 2.2305 17.809 9.3047 21.219 18.77s1.7617 20.016-4.3711 27.988c-3.3477 4.8672-8.1641 8.5352-13.746 10.461s-11.637 2.0117-17.27 0.24609c-2.6289-0.61719-5.1328-1.6836-7.4023-3.1484-2.4336-1.4062-5.4336-1.4062-7.8711 0zm240.1 24.246c0 6.2617-2.4883 12.27-6.918 16.699-4.4297 4.4297-10.438 6.918-16.699 6.918h-204.67v-29.285c3.5391 0.96484 7.1953 1.4414 10.863 1.418 14.215 0.023437 27.621-6.6211 36.211-17.949 8.6602-11.527 11.402-26.453 7.3984-40.305-2.2656-7.6953-6.5352-14.652-12.371-20.156-5.8359-5.5078-13.031-9.3633-20.848-11.176-6.875-1.7617-14.09-1.707-20.941 0.16016h-0.3125v-16.848c24.309-1.9727 47.129-12.527 64.375-29.773s27.801-40.066 29.773-64.375h28.656c2.8438 0.011718 5.457-1.5664 6.7695-4.0938 1.3672-2.5156 1.3086-5.5703-0.16016-8.0312-1.1602-1.8281-2.1094-3.7812-2.832-5.8242-0.027344-0.53516-0.13672-1.0664-0.31641-1.5742-1.2344-4.6367-1.2891-9.5078-0.15625-14.168 1.2734-5.082 3.8672-9.7383 7.5156-13.496 3.6484-3.7617 8.2266-6.4922 13.266-7.918 8.9883-2.6875 18.723-0.86719 26.137 4.8828 7.3633 5.6133 11.676 14.352 11.648 23.613-0.10156 5.2227-1.5664 10.324-4.25 14.801-1.3398 2.4531-1.3398 5.418 0 7.8711 1.4258 2.4727 4.0781 3.9766 6.9297 3.9375h40.934zm0-220.42h-29.285c0.93359-3.543 1.4102-7.1953 1.418-10.863-0.003907-14.203-6.6445-27.586-17.953-36.176-11.312-8.5938-25.988-11.398-39.672-7.5898-7.7695 2.1523-14.824 6.3359-20.441 12.117-5.6172 5.7852-9.5898 12.957-11.52 20.785-1.7578 7.0352-1.7031 14.402 0.16016 21.414v0.31641l-16.848-0.003906c-1.9727-24.309-12.527-47.125-29.773-64.375-17.246-17.246-40.066-27.797-64.375-29.773v-28.496c0.058594-2.8984-1.5273-5.582-4.0938-6.9258-2.5156-1.3672-5.5664-1.3086-8.0312 0.15625-1.8281 1.1602-3.7812 2.1133-5.8242 2.832-0.53906 0.015625-1.0703 0.12109-1.5742 0.31641-4.6367 1.2344-9.5078 1.2891-14.168 0.15625-9.7617-2.3594-17.664-9.5-21-18.973-3.3359-9.4688-1.6562-19.984 4.4688-27.945 4.3242-5.8008 10.664-9.7773 17.773-11.145 7.1055-1.3711 14.469-0.035156 20.641 3.7461 2.4531 1.418 5.4766 1.4062 7.9219-0.027344 2.4414-1.4336 3.9258-4.0664 3.8867-6.8984v-40.938h204.67c6.2617 0 12.27 2.4883 16.699 6.918 4.4297 4.4297 6.918 10.438 6.918 16.699z"/>
 </g>
</svg>