<?xml version="1.0" encoding="UTF-8"?>
<!-- The Best Svg Icon site in the world: iconSvg.co, Visit us! https://iconsvg.co -->
<svg fill="#000000" width="800px" height="800px" version="1.1" viewBox="144 144 512 512" xmlns="http://www.w3.org/2000/svg">
 <g>
  <path d="m632.1 235.38c-79.02-43.762-158.02-19.516-234.41 3.9375-76.609 23.539-148.99 45.777-222.16 5.2344-2.4414-1.3516-5.418-1.3086-7.8164 0.11328-2.4023 1.4219-3.875 4.0078-3.8672 6.7969v306.27c0.003906 2.8633 1.5586 5.5 4.0625 6.8867 29.246 16.27 62.223 24.645 95.688 24.309 46.801 0 93.227-14.258 138.73-28.238 76.617-23.539 148.99-45.77 222.16-5.2344l-0.003907 0.003906c2.4453 1.3516 5.4219 1.3047 7.8242-0.11719 2.4023-1.4219 3.8711-4.0117 3.8594-6.8047v-306.27c0-2.8633-1.5586-5.5-4.0625-6.8867zm-11.684 235.93c-74.887-35.312-149.03-12.738-214.85 7.4062l4.6133 15.051c65-19.891 138.51-42.25 210.24-4.8164v14.539c-24.582-11.598-51.352-17.832-78.531-18.293l-0.37891 15.742h0.003906c27.512 0.46094 54.539 7.3594 78.906 20.145v14.578c-75.129-35.426-150.11-12.367-222.73 9.9414-75.199 23.113-146.31 44.941-218.1 7.418v-14.691c24.582 11.605 51.352 17.848 78.531 18.32l0.37891-15.742v-0.003906c-27.523-0.47656-54.547-7.3984-78.91-20.207v-14.586c26.441 12.414 55.336 18.727 84.547 18.469 45.438 0 89.48-13.484 130.3-25.977l-4.6133-15.051c-78.445 24.016-144 39.5-210.24 4.8633v-14.531h0.10938c4.3945 2.0703 8.7852 3.9375 13.188 5.5898 1.3398 0.51953 2.6836 0.9375 4.0312 1.418 3.0469 1.0859 6.1016 2.1328 9.1484 3.0469 1.6445 0.48828 3.2812 0.92188 4.9219 1.3633 2.7773 0.74609 5.5586 1.4492 8.3281 2.0625 1.6992 0.37891 3.4102 0.73047 5.1094 1.0625 2.7695 0.52344 5.543 0.99609 8.3203 1.4102 1.6289 0.24219 3.2656 0.50391 4.8945 0.69922 3.0312 0.37109 6.0625 0.64453 9.0938 0.88281 1.3398 0.10156 2.6758 0.25 4.0234 0.33203 4.2812 0.25 8.5664 0.39453 12.84 0.39453h0.13281c5.3828 0 10.762-0.22656 16.137-0.58203 1.5742-0.10938 3.1484-0.27734 4.7227-0.41016 3.8477-0.32422 7.6992-0.70703 11.539-1.1875 1.793-0.22656 3.582-0.46484 5.3672-0.72266 3.8242-0.54297 7.6523-1.1641 11.469-1.8438 1.5742-0.27734 3.1094-0.52734 4.6602-0.78906 10.691-2.0391 21.34-4.5195 31.961-7.2969 1.5742-0.41016 3.1484-0.83594 4.7227-1.2578 3.8398-1.0508 7.6797-2.0977 11.516-3.1484l5.2891-1.5195c3.8711-1.1289 7.7344-2.2695 11.586-3.4258l4.4492-1.3398c5.0859-1.5312 10.156-3.082 15.207-4.6445l14.059-4.3047c3.1875-0.96875 6.3594-1.9141 9.5391-2.8594l4.4805-1.3477c2.8438-0.83594 5.6602-1.6289 8.4922-2.4336 1.8438-0.52734 3.6914-1.0781 5.5117-1.5742 2.6914-0.74609 5.375-1.4492 8.0547-2.1562 1.9609-0.52734 3.9375-1.0703 5.8711-1.5742 2.5977-0.66797 5.1875-1.2656 7.7852-1.8906 2.0312-0.48828 4.0625-1.0078 6.0938-1.4648 2.5508-0.57422 5.0938-1.0781 7.6367-1.5742 2.0547-0.42578 4.1094-0.88281 6.1562-1.2734 2.5195-0.48047 5.0234-0.86719 7.5352-1.2891 2.0781-0.34766 4.1562-0.73047 6.2266-1.0391 2.4727-0.36328 4.9453-0.62891 7.4141-0.92969 2.0938-0.26172 4.1953-0.55078 6.2969-0.78906 2.4414-0.23438 4.8789-0.37109 7.3203-0.53516 2.1172-0.14844 4.2344-0.33203 6.3516-0.41797 2.3633-0.10156 4.793-0.085938 7.1953-0.10938 2.1484 0 4.2969-0.070313 6.4453 0 2.3633 0.046875 4.7227 0.21875 7.0859 0.35547 2.1641 0.125 4.3359 0.21094 6.5039 0.41797 2.3633 0.21094 4.6758 0.55078 7.0156 0.85156 2.1953 0.28516 4.3945 0.54297 6.5898 0.91406 2.1953 0.37109 4.6211 0.90625 6.9258 1.3867 2.3047 0.48047 4.4492 0.90625 6.668 1.4648s4.5586 1.2734 6.832 1.9453c2.2734 0.66797 4.5117 1.3086 6.7617 2.0781s4.4961 1.6602 6.7383 2.5273c2.2422 0.86719 4.5742 1.7539 6.8633 2.7539s4.4336 2.0703 6.6523 3.1484c1.6523 0.78906 3.3047 1.6211 4.9609 2.4883zm0-32.363c-0.53516-0.25-1.0703-0.43359-1.5742-0.67578-2.2031-1.0156-4.4023-1.8906-6.6055-2.8008-2.6289-1.0938-5.2578-2.2031-7.8711-3.1484-2.2031-0.78906-4.4102-1.4883-6.6133-2.2031-2.6289-0.84375-5.2578-1.6914-7.8711-2.418-2.1953-0.59766-4.3945-1.1094-6.5898-1.6289-2.6367-0.62109-5.2734-1.2344-7.8711-1.7383-2.1797-0.41797-4.3672-0.78906-6.5508-1.1094-2.6445-0.41016-5.2969-0.78906-7.9414-1.1016-2.1641-0.25-4.3203-0.44922-6.4883-0.62891-2.6602-0.21875-5.3203-0.40234-7.9805-0.51953-2.1484-0.09375-4.2891-0.15625-6.4375-0.19531h-8.0234c-2.125 0.039062-4.2422 0.10156-6.3672 0.19531-2.6992 0.11719-5.3906 0.29297-8.0859 0.50391-2.0938 0.15625-4.1875 0.32422-6.2969 0.53516-2.7148 0.26953-5.4336 0.58984-8.1484 0.94531-2.0703 0.26172-4.1328 0.51953-6.1953 0.78906-2.7461 0.41016-5.5117 0.875-8.2422 1.3477-2.0234 0.34766-4.0469 0.68359-6.0625 1.0703-2.793 0.52734-5.5742 1.1094-8.3594 1.6992-1.9688 0.41797-3.9375 0.78906-5.9023 1.2656-2.8516 0.63672-5.6836 1.332-8.5156 2.0234-1.9141 0.46484-3.8242 0.91406-5.7305 1.3945-2.9141 0.74609-5.8242 1.5273-8.7305 2.3125-1.8281 0.48828-3.6445 0.96875-5.4648 1.4727-3.0469 0.84375-6.0938 1.7227-9.1328 2.5977-1.668 0.48828-3.3438 0.95312-5.0156 1.4492-3.4414 1.0078-6.8711 2.0469-10.305 3.0781l-3.7617 1.125c-4.6562 1.418-9.2969 2.8398-13.926 4.2656-4.7695 1.4648-9.5273 2.9219-14.273 4.3672l-1.0312 0.30859c-4.3555 1.3242-8.6953 2.6328-13.02 3.9375-1.2109 0.35547-2.4102 0.68359-3.6133 1.0391-3.4727 1.0078-6.9336 2.0156-10.391 2.9766-1.5742 0.43359-3.0703 0.78906-4.6133 1.2344-3.1094 0.85156-6.2188 1.6992-9.3203 2.4883-1.6992 0.43359-3.3867 0.78906-5.0781 1.2344-2.9375 0.71484-5.8711 1.4492-8.793 2.1094-1.8281 0.41016-3.6367 0.78906-5.457 1.1484-2.7773 0.58984-5.5586 1.1953-8.3281 1.7227-1.9297 0.36328-3.8398 0.65234-5.7617 0.98438-2.6602 0.46484-5.3281 0.9375-7.9883 1.332-1.9844 0.29297-3.9375 0.49609-5.9453 0.74609-2.582 0.33203-5.1641 0.67578-7.7461 0.92969-2.0469 0.19531-4.0938 0.30078-6.1328 0.44922-2.5117 0.17969-5.0156 0.38672-7.5195 0.48828-2.0859 0.085938-4.1719 0.070313-6.25 0.09375-2.4648 0-4.9219 0.085938-7.375 0-2.1172-0.046875-4.2188-0.19531-6.2969-0.31641-2.4258-0.13281-4.8477-0.23438-7.2734-0.46484-2.1406-0.19531-4.2734-0.51172-6.4141-0.78906-2.3633-0.30859-4.7695-0.58984-7.1562-0.99219-2.1641-0.36328-4.3203-0.85156-6.4883-1.3008-2.3633-0.48828-4.7227-0.96094-7.0859-1.5742-2.1797-0.55078-4.3516-1.2188-6.5352-1.8672-2.3633-0.68359-4.7227-1.3633-7.0312-2.1562-2.1953-0.74609-4.3945-1.6211-6.582-2.4727-2.3633-0.89844-4.6602-1.7852-6.9922-2.8008-2.2031-0.96094-4.4023-2.0547-6.6055-3.1484-1.6602-0.78906-3.3203-1.6289-4.9844-2.4961l0.011719-191.73c75.129 35.426 150.11 12.367 222.73-9.9414 75.109-23.105 146.21-44.895 218-7.418z"/>
  <path d="m397.68 271.58c-53.34 16.383-108.51 33.305-161.87 25.625-2.2695-0.34766-4.5742 0.32812-6.2969 1.8398-1.7305 1.4961-2.7227 3.668-2.7266 5.9531 0.26953 6.0742-2.3594 11.914-7.082 15.742-4.1211 2.8125-9.3633 3.4023-14.004 1.5742-2.4102-0.80469-5.0586-0.40234-7.1133 1.082-2.0586 1.4883-3.2734 3.875-3.2656 6.4141v80.594c0 3.3906 2.1719 6.3984 5.3867 7.4688 7.0977 2.0938 13.398 6.2891 18.059 12.039 4.6602 5.75 7.4648 12.781 8.043 20.16-0.003906 3.9141 2.8711 7.2383 6.7461 7.8008 9.9102 1.4023 19.906 2.0977 29.914 2.0781 46.832 0 93.457-14.32 138.82-28.254h0.070313c53.324-16.383 108.46-33.289 161.81-25.617 2.2695 0.35938 4.5781-0.3125 6.3008-1.832 1.7266-1.5 2.7188-3.6797 2.7148-5.9688-0.25781-6.082 2.3867-11.922 7.125-15.742 4.1172-2.8125 9.3633-3.3984 14.004-1.5742 2.4023 0.80078 5.0469 0.39453 7.1016-1.0898 2.0508-1.4883 3.2656-3.8711 3.2578-6.4062v-80.594c0-3.3906-2.168-6.3984-5.3867-7.4688-7.0977-2.0938-13.395-6.293-18.055-12.043-4.6602-5.7461-7.4688-12.777-8.0469-20.156 0-3.9102-2.875-7.2305-6.7461-7.793-56.844-8.2344-113.74 9.2656-168.75 26.168zm-155.71 171.48c-3.3984-16.996-14.961-31.223-30.906-38.023v-65.934c6.3906 0.125 12.645-1.8359 17.82-5.582 6.4766-4.8359 10.977-11.852 12.676-19.75 39.941 4.1094 79.797-3.8398 118.98-14.746-15.109 19.695-23.371 43.789-23.527 68.613 0 25.301 8.957 46.375 24.578 57.836 0.69922 0.51172 1.457 0.88281 2.1641 1.3477-40.543 11.641-81.691 20.613-121.79 16.238zm155.66-26.402c-8.9961 3.2109-19.004 1.7617-26.719-3.875-11.367-8.3438-18.152-25.211-18.152-45.145 0-36.086 22.246-72.422 49.594-81.027 3.2539-1.0508 6.6484-1.5977 10.07-1.6211 6-0.019532 11.844 1.918 16.648 5.5117 11.367 8.3203 18.152 25.195 18.152 45.129 0 36.086-22.246 72.43-49.594 81.027zm160.39-156.45c3.3945 16.996 14.957 31.223 30.902 38.023v65.938-0.003906c-6.3906-0.14453-12.652 1.8164-17.82 5.582-6.4766 4.832-10.98 11.852-12.676 19.75-39.949-4.1094-79.805 3.832-118.98 14.738 15.102-19.699 23.359-43.785 23.523-68.605 0-25.301-8.957-46.375-24.578-57.836-0.68359-0.50391-1.4102-0.91406-2.1172-1.3711 40.5-11.641 81.594-20.613 121.74-16.215z"/>
  <path d="m402.31 326.93c1.3711-0.58984 2.9375-0.51953 4.25 0.19141 0.94922 0.94922 1.4258 2.2695 1.3086 3.6055h15.742c0.18359-6.3359-2.6797-12.375-7.6992-16.242-2.375-1.7344-5.1367-2.8789-8.043-3.3359v-7.8711l-15.746-0.003906v11.125c-9.3516 5.3633-15.297 15.156-15.742 25.93-0.18359 6.3359 2.6797 12.371 7.6992 16.242 5.3125 3.7266 12.09 4.6836 18.23 2.582 1.3711-0.58594 2.9336-0.51172 4.2422 0.19531 0.94922 0.94531 1.4297 2.2578 1.3164 3.5898-0.21875 2.9844-1.2969 5.8438-3.1055 8.2305-1.8086 2.3828-4.2656 4.1953-7.082 5.2148-1.375 0.57422-2.9336 0.50391-4.25-0.1875-0.94922-0.95312-1.4258-2.2773-1.3086-3.6133h-15.742c-0.18359 6.332 2.6797 12.371 7.6992 16.238 2.3789 1.7383 5.1367 2.8867 8.043 3.3438v7.8711h15.742l0.003906-11.16c9.3516-5.3672 15.297-15.156 15.742-25.93 0.18359-6.3398-2.6797-12.379-7.707-16.25-5.3125-3.7148-12.082-4.6758-18.223-2.5898-1.3711 0.58594-2.9375 0.51953-4.25-0.1875-0.94141-0.94141-1.4219-2.2539-1.3086-3.582 0.22656-2.9766 1.3086-5.8281 3.1172-8.207 1.8047-2.3789 4.2617-4.1836 7.0703-5.1992z"/>
  <path d="m273.69 540.71 0.70703 15.742c42.988-1.9375 86.168-15.199 127.92-28.023 40.809-12.531 83.004-25.488 123.98-27.34l-0.70703-15.742c-42.98 1.9375-86.152 15.191-127.9 28.016-40.816 12.539-83.02 25.504-124.01 27.348z"/>
 </g>
</svg>