<?xml version="1.0" encoding="UTF-8"?>
<!-- The Best Svg Icon site in the world: iconSvg.co, Visit us! https://iconsvg.co -->
<svg fill="#000000" width="800px" height="800px" version="1.1" viewBox="144 144 512 512" xmlns="http://www.w3.org/2000/svg">
 <g>
  <path d="m527.19 169.09h-254.38c-14.465 0-26.238 11.777-26.238 26.238v409.34c0 14.465 11.777 26.238 26.238 26.238h254.38c14.465 0 26.238-11.777 26.238-26.238v-409.34c0-14.461-11.766-26.238-26.242-26.238zm15.746 435.59c0 8.6797-7.0625 15.742-15.742 15.742h-254.38c-8.6797 0-15.742-7.0625-15.742-15.742v-409.34c0-8.6797 7.0625-15.742 15.742-15.742h254.38c8.6797 0 15.742 7.0625 15.742 15.742z"/>
  <path d="m476.09 331.48c-12.699-0.21875-24.203-7.3789-29.977-18.672-4.1875-8.1641-4.9648-17.477-2.1523-26.207 2.8242-8.7422 8.8594-15.859 17.035-20.047 16.836-8.6484 37.598-1.9727 46.258 14.883 1.3125 2.5703 4.4805 3.6016 7.0625 2.2656 2.582-1.3242 3.5898-4.4805 2.2773-7.0625-5.4688-10.664-14.77-18.559-26.176-22.219-3.0234-0.96484-6.0859-1.5625-9.1836-1.8906l-0.003907-18.242c0-2.8984-2.3398-5.2461-5.2461-5.2461-2.8867 0-5.2461 2.3516-5.2461 5.2461v18.516c-5.0078 0.67187-9.918 2.0352-14.559 4.4102-10.664 5.4688-18.559 14.77-22.219 26.176-3.6641 11.41-2.6641 23.562 2.8008 34.219 7.5781 14.746 22.555 24.09 39.141 24.371 12.691 0.21875 24.191 7.3672 29.988 18.672 8.6484 16.855 1.9727 37.605-14.883 46.266-16.848 8.6367-37.605 1.9727-46.258-14.883-1.3242-2.582-4.4805-3.6016-7.0625-2.2656-2.582 1.3242-3.5898 4.4805-2.2656 7.0625 7.1914 13.992 20.762 22.535 35.34 24.059v18.285c0 2.9062 2.3516 5.2461 5.2461 5.2461 2.8984 0 5.2461-2.3398 5.2461-5.2461v-18.395c4.9531-0.66016 9.8672-2.1211 14.559-4.5352 10.676-5.4688 18.566-14.77 22.219-26.176 3.6523-11.41 2.6758-23.562-2.8008-34.227-7.5703-14.738-22.57-24.078-39.141-24.363z"/>
  <path d="m311.81 271.82h88.375c2.8984 0 5.2461-2.3516 5.2461-5.2461 0-2.8984-2.3516-5.2461-5.2461-5.2461h-88.375c-2.8984 0-5.2461 2.3516-5.2461 5.2461-0.003906 2.8945 2.3359 5.2461 5.2461 5.2461z"/>
  <path d="m311.81 355.79h88.375c2.8984 0 5.2461-2.3516 5.2461-5.2461 0-2.8984-2.3516-5.2461-5.2461-5.2461h-88.375c-2.8984 0-5.2461 2.3516-5.2461 5.2461-0.003906 2.8945 2.3359 5.2461 5.2461 5.2461z"/>
  <path d="m311.81 439.76h88.375c2.8984 0 5.2461-2.3516 5.2461-5.2461 0-2.8984-2.3516-5.2461-5.2461-5.2461h-88.375c-2.8984 0-5.2461 2.3516-5.2461 5.2461-0.003906 2.8945 2.3359 5.2461 5.2461 5.2461z"/>
  <path d="m488.57 513.23h-176.76c-2.8984 0-5.2461 2.3516-5.2461 5.2461 0 2.8984 2.3516 5.2461 5.2461 5.2461h176.76c2.8867 0 5.2461-2.3516 5.2461-5.2461 0.003907-2.8945-2.3477-5.2461-5.2461-5.2461z"/>
 </g>
</svg>