<?xml version="1.0" encoding="UTF-8"?>
<!-- The Best Svg Icon site in the world: iconSvg.co, Visit us! https://iconsvg.co -->
<svg fill="#000000" width="800px" height="800px" version="1.1" viewBox="144 144 512 512" xmlns="http://www.w3.org/2000/svg">
 <g>
  <path d="m226.81 273.99c4.3477 0 7.8711-3.5234 7.8711-7.8711v-62.977h94.465v259.78c0 4.3477 3.5234 7.8711 7.8711 7.8711 4.3477 0 7.8711-3.5234 7.8711-7.8711v-267.65c0-4.3477-3.5234-7.8711-7.8711-7.8711h-110.21c-4.3477 0-7.8711 3.5234-7.8711 7.8711v70.848c0 4.3477 3.5273 7.8711 7.8711 7.8711z"/>
  <path d="m242.56 297.61v165.31c0 4.3477 3.5234 7.8711 7.8711 7.8711 4.3477 0 7.8711-3.5234 7.8711-7.8711v-173.18c0-4.3477-3.5234-7.8711-7.8711-7.8711h-23.617l-55.102-0.003906c-4.3477 0-7.8711 3.5234-7.8711 7.8711v173.18c0 4.3477 3.5234 7.8711 7.8711 7.8711 4.3477 0 7.8711-3.5234 7.8711-7.8711v-165.31h47.23z"/>
  <path d="m366.6 258.01 70.844 17.711h0.003907l17.656 4.4141v182.78c0 4.3477 3.5234 7.8711 7.8711 7.8711 4.3477 0 7.8711-3.5234 7.8711-7.8711v-188.93c0-3.6133-2.4609-6.7617-5.9609-7.6367l-23.617-5.9023-70.848-17.711c-4.2031-1.0469-8.4922 1.5117-9.5469 5.7266-1.0547 4.2188 1.5078 8.4922 5.7266 9.5469z"/>
  <path d="m460.95 246.02 49.254-54.727 62.977 69.977v162.29c0 4.3477 3.5234 7.8711 7.8711 7.8711 4.3477 0 7.8711-3.5234 7.8711-7.8711v-165.31c0-1.9453-0.71875-3.8203-2.0234-5.2656l-70.848-78.719c-2.9844-3.3203-8.7188-3.3203-11.699 0l-55.105 61.227c-2.9102 3.2344-2.6484 8.2109 0.58594 11.117 3.2344 2.9141 8.2148 2.6406 11.117-0.58984z"/>
  <path d="m634 458.13c-1.4375-1.5156-3.418-2.3984-5.5039-2.4531l-47.23-1.2539c-4.3945-0.36719-7.9648 3.3164-8.0742 7.6602-0.11719 4.3438 3.3125 7.9609 7.6602 8.0742l26.098 0.69141-160.23 116.53-105.79-60.449c-2.4336-1.3906-5.4219-1.3828-7.8477 0.023437l-149.57 86.594c-3.7656 2.1758-5.0469 6.9922-2.8672 10.754 1.457 2.5234 4.1016 3.9297 6.8203 3.9297 1.3359 0 2.6953-0.34375 3.9375-1.0625l145.65-84.32 106.28 60.727c2.6875 1.543 6.0312 1.3555 8.5352-0.46875l168.09-122.25-0.78906 29.707c-0.11719 4.3438 3.3125 7.9609 7.6602 8.0742 0.070313 0.003906 0.14062 0.003906 0.21094 0.003906 4.25 0 7.7539-3.3867 7.8633-7.6641l1.2578-47.23c0.054688-2.0859-0.72266-4.1094-2.1602-5.6211z"/>
 </g>
</svg>