<?xml version="1.0" encoding="UTF-8"?>
<!-- The Best Svg Icon site in the world: iconSvg.co, Visit us! https://iconsvg.co -->
<svg fill="#000000" width="800px" height="800px" version="1.1" viewBox="144 144 512 512" xmlns="http://www.w3.org/2000/svg">
 <g>
  <path d="m558.93 399.2c-0.003906 5.9844-2.3828 11.727-6.6172 15.961-4.2344 4.2305-9.9727 6.6133-15.961 6.6172h-254.04c-5.9805-0.011719-11.711-2.3984-15.934-6.6289-4.2266-4.2344-6.5977-9.9688-6.6016-15.949-0.023438-5.9844 2.3516-11.727 6.5977-15.941 4.2305-4.2188 9.9609-6.5938 15.938-6.5938h254.01c5.9844-0.003907 11.727 2.3633 15.965 6.5898 4.2383 4.2266 6.625 9.9609 6.6367 15.945z"/>
  <path d="m289.55 219.57c-0.73047 2.4141 0.61719 4.9648 3.0234 5.7266 34.016 11.566 66.25 27.828 95.77 48.32-1.7852 4.1328-4.125 8-6.9648 11.496-10.258 12.641-26.336 19.328-45.848 19.328-3.0703 0-6.1836-0.18359-9.3906-0.50391-31.512-2.0156-45.617-25.879-60.594-51.113-9.8008-16.578-19.922-33.711-35.953-48.41l0.003906-0.003906c-1.1953-1.0664-1.7383-2.6875-1.4219-4.2578 0.32422-1.5898 1.4531-2.8906 2.9766-3.4375 67.191-23.543 114.96-21.895 141.98 4.9453v0.003906c7.4766 7.6094 13.008 16.91 16.121 27.113 3.8984 11.504 4.6094 23.848 2.0625 35.723-29.629-20.375-61.953-36.516-96.047-47.953-2.4141-0.74219-4.9766 0.60938-5.7227 3.0234z"/>
  <path d="m570.4 256.58c-11.73 11.617-21.629 24.941-29.359 39.527-12.41 20.93-24.09 40.719-50.562 42.41h-0.003907c-2.5547 0.27344-5.1211 0.41016-7.6914 0.41016-14.539 0.74219-28.613-5.2148-38.199-16.164-0.51563-0.61328-0.98828-1.2539-1.4219-1.9258 23.789-15.508 49.113-28.523 75.574-38.84 2.3633-0.89844 3.5547-3.543 2.6562-5.9062-0.89844-2.3672-3.543-3.5547-5.9102-2.6562-26.945 10.391-52.719 23.594-76.898 39.387-4.6133-11.898-4.8398-25.047-0.64063-37.098 2.6094-8.5117 7.2305-16.27 13.465-22.625 22.441-22.258 61.969-23.68 117.43-4.2148 1.5273 0.52734 2.6602 1.8203 2.9805 3.4023 0.32031 1.582-0.22266 3.2148-1.4219 4.293z"/>
  <path d="m414.88 385.83c-2.5312 0-4.582-2.0508-4.582-4.5781v-185.71c0-2.5273 2.0508-4.5781 4.582-4.5781 2.5273 0 4.5781 2.0508 4.5781 4.5781v185.71c0 1.2148-0.48047 2.3789-1.3398 3.2383-0.85938 0.85937-2.0234 1.3398-3.2383 1.3398z"/>
  <path d="m418.25 292.26c-0.86719 0.95703-2.0977 1.5078-3.3906 1.5117-1.1406-0.003906-2.2422-0.44531-3.0664-1.2383-7.418-6.7852-15.25-13.102-23.449-18.914 1.2969-2.9297 2.2969-5.9844 2.9766-9.1172 9.3438 6.5039 18.25 13.621 26.656 21.297 1.8516 1.7109 1.9766 4.5977 0.27344 6.4609z"/>
  <path d="m443.16 320.84c-9.25 6.0742-17.566 13.465-24.684 21.938-1.5625 1.9805-4.4258 2.3281-6.4141 0.78125-0.95703-0.74609-1.582-1.8398-1.7266-3.043-0.14453-1.207 0.19531-2.418 0.94922-3.3711 7.8633-9.3945 17.059-17.59 27.297-24.32 1.2188 2.8359 2.7539 5.5273 4.5781 8.0156z"/>
  <path d="m395.42 498.23c-0.10547 2.2969 0.97656 4.4883 2.8633 5.8008 2.5664 1.6562 5.4102 2.8398 8.3945 3.5v-18.781c-2.9609 0.28125-5.7891 1.3594-8.1875 3.1172-1.9922 1.5-3.1367 3.8711-3.0703 6.3633z"/>
  <path d="m420.88 520.28c-2.8359-1.543-5.8633-2.7031-9.0039-3.4531v18.32c8.0234-0.56641 12.035-3.8086 12.031-9.7227 0.03125-2.1484-1.1367-4.1328-3.0273-5.1445z"/>
  <path d="m287.03 430.94 39.25 171.75c1.2852 4.8906 4.1523 9.2188 8.1523 12.309 4.0039 3.0898 8.9141 4.7695 13.969 4.7734h121.88c5.0742-0.011719 10-1.7109 14.004-4.8281 4.0039-3.1172 6.8594-7.4766 8.1172-12.391l39.25-171.62zm122.29 141.52c-10.859 0.011718-21.52-2.9062-30.863-8.4453-9.3398-5.5352-17.016-13.488-22.223-23.02l-0.27344-0.41406v0.003906c-8.2422-15.383-9.4453-33.574-3.3008-49.91 6.1445-16.332 19.043-29.219 35.379-35.355 16.336-6.1367 34.527-4.9219 49.906 3.3281 15.965 8.5547 27.254 23.809 30.77 41.578 3.5156 17.766-1.1133 36.172-12.617 50.164-11.5 13.988-28.668 22.09-46.777 22.07z"/>
  <path d="m433.62 466.74c-12.996-6.9727-28.367-8.0234-42.191-2.8828-13.824 5.1406-24.773 15.977-30.059 29.746-5.2852 13.773-4.3945 29.148 2.4453 42.219 0.09375 0.13672 0.17578 0.27734 0.25781 0.42188 7.6719 14.32 21.672 24.164 37.746 26.543 16.07 2.375 32.32-2.9922 43.812-14.477 11.492-11.484 16.871-27.73 14.504-43.805-2.3672-16.074-12.199-30.082-26.516-37.766zm-4.4609 67.406c-1.7344 2.5352-4.125 4.5547-6.918 5.8398-3.2539 1.5195-6.7734 2.375-10.363 2.5195v6.0547c0.023438 0.68359-0.23438 1.3477-0.71875 1.832-0.51562 0.49219-1.207 0.75391-1.918 0.72266-0.67578 0.023438-1.3359-0.21875-1.832-0.67578-0.49609-0.49609-0.76172-1.1797-0.72656-1.8789v-6.0547c-5.9258-0.35156-11.75-1.707-17.223-4.0117-0.69531-0.28906-1.293-0.78125-1.7109-1.4062-0.99609-1.4062-0.87109-3.3164 0.30078-4.582 0.64062-0.70312 1.5586-1.0938 2.5117-1.0664 0.55859-0.003906 1.1133 0.11328 1.6211 0.33984 4.5781 2.0391 9.4961 3.1953 14.5 3.4102v-19.637c-3.3359-0.84766-6.6016-1.957-9.7617-3.3281-2.5781-1.1406-4.8438-2.8828-6.6094-5.0781-1.8281-2.3789-2.7617-5.3203-2.6445-8.3164-0.023438-2.875 0.72656-5.6992 2.1719-8.1836 1.5703-2.6211 3.8125-4.7695 6.4961-6.2266 3.1914-1.7461 6.7266-2.7656 10.359-2.9844v-5.957c-0.015624-0.69531 0.24219-1.3711 0.72266-1.875 0.47266-0.50781 1.1406-0.78516 1.832-0.76562 0.70312-0.007813 1.3789 0.26562 1.8789 0.76562 0.49609 0.49609 0.76953 1.1719 0.75781 1.875v5.8867c5.0703 0.12891 10.086 1.0781 14.852 2.8125 1.4961 0.4375 2.4922 1.8555 2.3906 3.4141 0.003906 0.90625-0.32031 1.7891-0.91797 2.4766-0.61328 0.73047-1.5234 1.1367-2.4766 1.1016-0.47656-0.027344-0.94141-0.14062-1.375-0.33594-4.0156-1.3867-8.2148-2.1602-12.461-2.293v20.301c3.4805 0.76953 6.8906 1.8281 10.199 3.1562 2.6484 1.0977 4.9805 2.8398 6.7773 5.0742 1.9258 2.5586 2.8984 5.7109 2.75 8.9062 0.011719 2.9102-0.84375 5.7539-2.4648 8.168z"/>
 </g>
</svg>