<?xml version="1.0" encoding="UTF-8"?>
<!-- The Best Svg Icon site in the world: iconSvg.co, Visit us! https://iconsvg.co -->
<svg fill="#000000" width="800px" height="800px" version="1.1" viewBox="144 144 512 512" xmlns="http://www.w3.org/2000/svg">
 <g>
  <path d="m514.75 440.82v-87.066c0-21.648-35.691-38.652-81.258-38.652-31.832 0-58.844 8.2852-72.246 20.664v-38.848c0-21.648-35.691-38.652-81.258-38.652-45.57 0-81.27 16.973-81.27 38.652l-0.003906 215.93c0 21.648 35.699 38.652 81.27 38.652 31.832 0 58.844-8.2852 72.234-20.664v29.156c0 21.648 35.691 38.652 81.27 38.652 15.371-0.023437 30.66-2.207 45.422-6.4844 21.441 9.2695 45.887 8.5703 66.762-1.9062 20.879-10.477 36.047-29.66 41.43-52.391 5.3828-22.727 0.42578-46.676-13.535-65.402-13.961-18.727-35.496-30.312-58.816-31.641zm-162.53 72.027c0 14.012-29.668 29.617-72.234 29.617-42.566 0-72.234-15.605-72.234-29.617l-0.003906-26.805c13.391 12.379 40.402 20.664 72.234 20.664s58.844-8.2852 72.234-20.664zm0-44.793c0 14.012-29.668 29.629-72.234 29.629-42.57 0-72.238-15.617-72.238-29.629v-26.805c13.391 12.379 40.402 20.664 72.234 20.664s58.844-8.2852 72.234-20.664zm0-63.172v18.383c0 14.012-29.668 29.629-72.234 29.629-42.566 0-72.234-15.617-72.234-29.629l-0.003906-26.805c13.391 12.379 40.402 20.664 72.234 20.664s58.844-8.2852 72.234-20.664zm0-26.41c0 14.012-29.668 29.629-72.234 29.629-42.566 0-72.234-15.617-72.234-29.629v-22.336c13.391 12.387 40.402 20.664 72.234 20.664 31.832 0 58.844-8.2852 72.234-20.664zm0-40.344c0 14.004-29.668 29.617-72.234 29.617-42.566 0-72.234-15.617-72.234-29.617l-0.003906-23.234c13.391 12.387 40.402 20.664 72.234 20.664s58.844-8.2852 72.234-20.664zm-72.277-11.594c-42.578 0-72.234-15.617-72.234-29.617 0-14.004 29.695-29.629 72.234-29.629 42.539 0 72.234 15.617 72.234 29.629 0.003906 14.012-29.625 29.617-72.234 29.617zm153.5-2.3711c42.566 0 72.234 15.617 72.234 29.629 0 14.012-29.668 29.617-72.234 29.617s-72.246-15.617-72.246-29.617c0.003907-14 29.711-29.629 72.246-29.629zm-72.246 47.605c13.402 12.387 40.414 20.664 72.246 20.664s58.832-8.2852 72.234-20.664l0.003906 23.312c0 14.004-29.668 29.617-72.234 29.617-42.566 0-72.246-15.617-72.246-29.617zm0 41.238c13.402 12.387 40.414 20.664 72.246 20.664s58.832-8.2852 72.234-20.664v27.809l0.003906 0.003906c-19.719 1.1289-38.297 9.6211-52.055 23.793-6.6953 0.83594-13.434 1.2773-20.184 1.3164-42.578 0-72.246-15.617-72.246-29.617zm0 41.238c13.402 12.387 40.414 20.664 72.246 20.664 4.25 0 8.3242-0.1875 12.023-0.45312l0.003907 0.003906c-6.8359 9.7383-11.367 20.902-13.254 32.648-41.91-0.29688-71.016-15.742-71.016-29.609zm0 41.238c13.098 12.102 39.203 20.301 70.102 20.664-0.050782 1.1719-0.078125 2.3438-0.078125 3.5234v0.003906c-0.011719 9.8164 1.8164 19.543 5.3945 28.684h-3.168c-42.578 0-72.246-15.617-72.246-29.617zm72.246 94.125c-42.578 0-72.246-15.617-72.246-29.617l0.003907-23.215c13.402 12.387 40.414 20.664 72.246 20.664 2.6172 0 5 0 7.3125-0.13672h-0.003906c6.3086 11.582 15.398 21.418 26.449 28.617-11.09 2.4336-22.406 3.668-33.762 3.6875zm76.754 0c-18.555 0-36.348-7.3711-49.465-20.488-13.121-13.121-20.488-30.914-20.488-49.469 0-18.551 7.3711-36.344 20.492-49.461 13.121-13.121 30.914-20.488 49.469-20.488 18.551 0.003906 36.344 7.375 49.461 20.496 13.117 13.121 20.488 30.914 20.484 49.469-0.023437 18.543-7.4023 36.32-20.516 49.434-13.113 13.113-30.895 20.488-49.438 20.508z"/>
  <path d="m510.21 463.02c-15.023 0-29.43 5.9688-40.051 16.59-10.621 10.621-16.59 25.027-16.59 40.051 0 15.02 5.9688 29.426 16.59 40.051 10.621 10.621 25.027 16.586 40.051 16.586 15.02 0 29.43-5.9648 40.051-16.586 10.621-10.625 16.59-25.031 16.59-40.051-0.015625-15.02-5.9883-29.414-16.609-40.035-10.617-10.617-25.016-16.59-40.031-16.605zm0 104.25c-12.629 0-24.742-5.0156-33.672-13.945-8.9297-8.9297-13.945-21.043-13.945-33.672 0.003906-12.629 5.0195-24.742 13.949-33.672 8.9336-8.9258 21.047-13.941 33.676-13.941 12.629 0.003906 24.738 5.0195 33.668 13.953 8.9297 8.9297 13.941 21.043 13.941 33.672-0.015625 12.625-5.0391 24.727-13.965 33.648-8.9258 8.9258-21.031 13.945-33.652 13.957z"/>
  <path d="m510.21 511.39c-3.9062-0.003907-7.4297-2.3594-8.9219-5.9727-1.4922-3.6094-0.66016-7.7656 2.1016-10.527 2.7656-2.7578 6.9219-3.5859 10.531-2.0898s5.9609 5.0195 5.9609 8.9297c-0.058594 1.2305 0.39453 2.4336 1.2461 3.3281 0.85156 0.89062 2.0312 1.3984 3.2656 1.3984s2.4141-0.50781 3.2695-1.3984c0.85156-0.89453 1.3008-2.0977 1.2422-3.3281-0.011719-4.1602-1.4062-8.1992-3.9688-11.473-2.5664-3.2773-6.1445-5.6055-10.18-6.6133v-3.8203c0.054688-1.2344-0.39453-2.4336-1.2461-3.3281-0.85156-0.89453-2.0312-1.3984-3.2656-1.3984-1.2344 0-2.4141 0.50391-3.2695 1.3984-0.85156 0.89453-1.3008 2.0938-1.2422 3.3281v3.8203c-5.9141 1.5195-10.707 5.8281-12.852 11.547-2.1406 5.7148-1.3555 12.117 2.1016 17.148 3.457 5.0273 9.1523 8.0547 15.258 8.1055 5.4375-0.007812 10.344 3.2656 12.426 8.2891 2.082 5.0234 0.92969 10.809-2.9219 14.648-3.8477 3.8438-9.6367 4.9844-14.656 2.8906-5.0195-2.0938-8.2812-7.0078-8.2617-12.445 0-2.4961-2.0234-4.5195-4.5156-4.5195-2.4961 0-4.5156 2.0234-4.5156 4.5195 0.007812 5.168 1.793 10.176 5.0625 14.18 3.2656 4.0078 7.8125 6.7656 12.875 7.8125v3.6914-0.003906c-0.058594 1.2344 0.39062 2.4375 1.2422 3.332 0.85547 0.89062 2.0352 1.3984 3.2695 1.3984 1.2344 0 2.4141-0.50781 3.2656-1.3984 0.85156-0.89453 1.3008-2.0977 1.2461-3.332v-3.6914 0.003906c7.3008-1.5391 13.359-6.6016 16.172-13.512 2.8086-6.9102 2.0078-14.766-2.1445-20.961-4.1562-6.1992-11.113-9.9297-18.574-9.957z"/>
  <path d="m597.43 258.3c-1.6055-0.24609-39.41-6.5352-39.41-52.438 0-2.4922-2.0234-4.5156-4.5156-4.5156-2.4961 0-4.5156 2.0234-4.5156 4.5156 0 45.902-37.805 52.152-39.41 52.438-2.2227 0.31641-3.8789 2.2188-3.8789 4.4648s1.6562 4.1484 3.8789 4.4609c1.6055 0.24609 39.41 6.5352 39.41 52.438 0 2.4961 2.0195 4.5156 4.5156 4.5156 2.4922 0 4.5156-2.0195 4.5156-4.5156 0-45.902 37.805-52.152 39.359-52.438 2.2227-0.3125 3.8789-2.2148 3.8789-4.4609s-1.6562-4.1484-3.8789-4.4648zm-43.926 35.18c-5.3008-13.66-15.754-24.688-29.109-30.711 13.355-6.0195 23.809-17.047 29.109-30.699 5.3008 13.652 15.754 24.676 29.105 30.699-13.352 6.0273-23.805 17.055-29.105 30.711z"/>
  <path d="m386.72 258.6c1.1133 0.16797 27.219 4.5742 27.219 36.406-0.058594 1.2344 0.39062 2.4375 1.2461 3.332 0.85156 0.89062 2.0312 1.3984 3.2656 1.3984s2.4141-0.50781 3.2695-1.3984c0.85156-0.89453 1.3008-2.0977 1.2422-3.332 0-31.805 26.117-36.211 27.207-36.406 2.2148-0.32812 3.8516-2.2305 3.8516-4.4688 0-2.2383-1.6367-4.1367-3.8516-4.4648-1.1133-0.16797-27.207-4.3477-27.207-36.406v-0.003906c-0.11328-2.4102-2.0977-4.3047-4.5117-4.3047s-4.3984 1.8945-4.5117 4.3047c0 31.785-26.066 36.211-27.219 36.406v0.003906c-2.2109 0.32813-3.8516 2.2266-3.8516 4.4648 0 2.2383 1.6406 4.1406 3.8516 4.4688zm31.734-23.262c3.8242 8.0625 10.172 14.66 18.078 18.793-7.9062 4.1367-14.254 10.734-18.078 18.797-3.8242-8.0625-10.172-14.656-18.074-18.797 7.9023-4.1367 14.25-10.734 18.074-18.793z"/>
 </g>
</svg>