<?xml version="1.0" encoding="UTF-8"?>
<!-- The Best Svg Icon site in the world: iconSvg.co, Visit us! https://iconsvg.co -->
<svg fill="#000000" width="800px" height="800px" version="1.1" viewBox="144 144 512 512" xmlns="http://www.w3.org/2000/svg">
 <g>
  <path d="m628.29 163.84h-456.58c-4.3477 0-7.875 3.5273-7.875 7.875v31.488c0 2.0859 0.83203 4.0898 2.3086 5.5664 1.4766 1.4766 3.4766 2.3047 5.5664 2.3047h7.8711v377.86h-7.8711c-4.3477 0-7.875 3.5273-7.875 7.875v31.488c0 2.0859 0.83203 4.0898 2.3086 5.5664 1.4766 1.4727 3.4766 2.3047 5.5664 2.3047h456.58c2.0859 0 4.0898-0.83203 5.5664-2.3047 1.4727-1.4766 2.3047-3.4805 2.3047-5.5664v-31.488c0-2.0898-0.83203-4.0898-2.3047-5.5664-1.4766-1.4766-3.4805-2.3086-5.5664-2.3086h-7.875v-377.86h7.875c2.0859 0 4.0898-0.82812 5.5664-2.3047 1.4727-1.4766 2.3047-3.4805 2.3047-5.5664v-31.488c0-2.0898-0.83203-4.0898-2.3047-5.5664-1.4766-1.4766-3.4805-2.3086-5.5664-2.3086zm-291.27 192.25c8.4102 6.2109 18.246 10.211 28.605 11.633-10.52 5.2695-20.168 12.121-28.605 20.316zm63.891 113.68h-0.003906c8.3516 0 16.363 3.3164 22.266 9.2227 5.9062 5.9023 9.2227 13.914 9.2227 22.266-0.023438 9.6914-4.5625 18.824-12.277 24.691h-38.41c-7.7188-5.8672-12.262-14.996-12.289-24.691 0-4.3477 3.5273-7.875 7.875-7.875s7.8711 3.5273 7.8711 7.875c0 4.1758 1.6602 8.1797 4.6094 11.133 2.9531 2.9492 6.957 4.6094 11.133 4.6094 4.1758 0 8.1836-1.6602 11.133-4.6094 2.9531-2.9531 4.6133-6.957 4.6133-11.133 0-4.1758-1.6602-8.1797-4.6133-11.133-2.9492-2.9531-6.957-4.6133-11.133-4.6133-10.293 0.011719-19.941-5.0156-25.824-13.465-5.8828-8.4453-7.2578-19.238-3.6758-28.891 3.5781-9.6523 11.66-16.938 21.629-19.504v-8.9883c0.027344-2.8516 1.6133-5.457 4.1328-6.793h7.4883c2.5156 1.3359 4.0977 3.9453 4.125 6.793v8.9883c6.7383 1.7422 12.711 5.6641 16.984 11.16 4.2734 5.4961 6.6055 12.25 6.6289 19.211 0 4.3477-3.5234 7.8711-7.8711 7.8711s-7.8711-3.5234-7.8711-7.8711c0-4.1758-1.6602-8.1797-4.6133-11.133-2.9492-2.9531-6.957-4.6094-11.133-4.6094-4.1758 0-8.1797 1.6562-11.133 4.6094-2.9492 2.9531-4.6094 6.957-4.6094 11.133 0 4.1758 1.6602 8.1797 4.6094 11.133 2.9531 2.9531 6.957 4.6133 11.133 4.6133zm7.6562 71.926c-0.44922 3.8867-3.7422 6.8203-7.6562 6.8203-3.9102 0-7.2031-2.9336-7.6523-6.8203zm-8.5703-162.49c-15.973 0.10547-31.609 4.5742-45.227 12.918h-6.2344c14.051-13.215 32.219-21.199 51.461-22.605 19.234 1.4062 37.402 9.3906 51.449 22.605h-6.2344c-13.613-8.3438-29.25-12.809-45.215-12.918zm-94.465 28.664h14.168c-5.375 7.3555-10.113 15.156-14.168 23.316zm-94.465 181.05h-15.746v-47.23h15.746zm0-62.977h-15.746v-118.08h15.746zm0-133.82h-15.746v-118.08h15.746zm0-133.82h-15.746v-47.23h15.746zm78.719 330.62h-62.977v-47.23h62.977zm0-62.977h-62.977v-118.08h62.977zm0-133.82h-62.977v-118.08h62.977zm0-133.82h-62.977v-47.23h62.977zm31.488 330.62h-15.742v-42.809c4.2969 6.7656 9.6055 12.832 15.742 17.98zm0-196.8h-15.742v-118.08h15.742zm0-133.82h-15.742v-47.23h15.742zm141.7 330.62h-125.95v-14.355c19.625 9.4023 41.223 13.957 62.977 13.277 21.75 0.67969 43.348-3.875 62.977-13.277zm0-200.88c-8.4414-8.1992-18.094-15.055-28.617-20.324 10.363-1.4219 20.203-5.4258 28.617-11.641zm-18.27-78.391c0-2.7383 3.3359-4.9688 7.4531-4.9688 4.1172 0 7.4453 2.2266 7.4453 4.9688 0 2.7383-3.3359 4.9688-7.4453 4.9688s-7.457-2.2188-7.457-4.9648zm18.27-16.59c-4.1172-2.1211-8.6758-3.2461-13.305-3.2773-10 0.011719-19.328 5.0391-24.836 13.383-5.5195-8.332-14.848-13.34-24.84-13.34-9.9961 0-19.324 5.0078-24.84 13.34-5.5117-8.3438-14.84-13.371-24.84-13.383-4.625 0.03125-9.1797 1.1562-13.293 3.2773v-19.02h125.95zm0-34.766h-125.95v-47.23h125.95zm31.488 330.62h-15.746v-24.836c6.1367-5.1523 11.449-11.219 15.742-17.988zm0-157.72h-0.003906c-4.0508-8.1641-8.793-15.973-14.168-23.332h14.168zm-0.003906-39.078h-15.742v-118.08h15.742zm0-133.82h-15.742v-47.23h15.742zm78.723 330.62h-62.977v-47.23h62.977zm0-62.977h-62.977v-118.08h62.977zm0-133.82h-62.977v-118.08h62.977zm0-133.82h-62.977v-47.23h62.977zm31.488 330.62h-15.746v-47.23h15.742zm0-62.977h-15.746v-118.08h15.742zm0-133.82h-15.746v-118.08h15.742zm0-133.82h-15.746v-47.23h15.742z"/>
  <path d="m536.01 430.04c3.4023 3.5352 4.8945 5.2656 4.8945 9.3203 0 4.3477 3.5273 7.8711 7.875 7.8711s7.8711-3.5234 7.8711-7.8711c-0.050782-7.7578-3.4297-15.121-9.2734-20.223l-0.89062-0.92969c-2.9883-3.1602-7.9727-3.2969-11.129-0.30859-3.1602 2.9883-3.2969 7.9727-0.30859 11.133z"/>
  <path d="m540.91 380.27c0 4.3477 3.5273 7.875 7.875 7.875s7.8711-3.5273 7.8711-7.875c-0.046875-7.7539-3.4297-15.117-9.2812-20.207-3.3945-3.5273-4.8867-5.2578-4.8867-9.2969s1.4961-5.7617 4.8867-9.2891c5.8516-5.0859 9.2305-12.445 9.2812-20.199 0-4.3477-3.5234-7.8711-7.8711-7.8711s-7.875 3.5234-7.875 7.8711c0 4.0312-1.4961 5.7617-4.8867 9.2891-5.8906 5.0586-9.2812 12.438-9.2812 20.203s3.3906 15.145 9.2812 20.203c3.3906 3.5273 4.8867 5.2617 4.8867 9.2969z"/>
  <path d="m252.62 430.04c3.4023 3.5352 4.8945 5.2656 4.8945 9.3203h0.003906c0 4.3477 3.5234 7.8711 7.8711 7.8711 4.3477 0 7.8711-3.5234 7.8711-7.8711-0.050781-7.7578-3.4258-15.121-9.2734-20.223l-0.89062-0.92969h0.003906c-2.9922-3.1602-7.9727-3.2969-11.133-0.30859-3.1602 2.9883-3.2969 7.9727-0.30859 11.133z"/>
  <path d="m257.52 380.27c0 4.3477 3.5234 7.875 7.8711 7.875 4.3477 0 7.8711-3.5273 7.8711-7.875-0.046874-7.7539-3.4258-15.117-9.2812-20.207-3.3945-3.5273-4.8867-5.2578-4.8867-9.2969s1.4961-5.7617 4.8867-9.2891c5.8516-5.0859 9.2344-12.445 9.2812-20.199 0-4.3477-3.5234-7.8711-7.8711-7.8711-4.3477 0-7.8711 3.5234-7.8711 7.8711 0 4.0312-1.4961 5.7617-4.8867 9.2891h-0.003906c-5.8906 5.0586-9.2812 12.438-9.2812 20.203s3.3906 15.145 9.2812 20.203c3.3945 3.5273 4.8906 5.2617 4.8906 9.2969z"/>
 </g>
</svg>