<?xml version="1.0" encoding="UTF-8"?>
<!-- The Best Svg Icon site in the world: iconSvg.co, Visit us! https://iconsvg.co -->
<svg fill="#000000" width="800px" height="800px" version="1.1" viewBox="144 144 512 512" xmlns="http://www.w3.org/2000/svg">
 <g>
  <path d="m352.04 391.67v-6.9766c19.391-3.3594 26.668-21.301 26.668-32.668 0-8.2734-3.0039-20.969-22.051-27.527l-17.109-5.6445c-2.6289-0.83984-13.305-4.6445-12.168-15.203 0.43359-4.0273 1.6055-7.1289 4.8281-9.2383 2.6289-1.6875 5.8828-2.5352 9.7578-2.5352 6.5859 0 11.062 1.1094 13.992 4.9062 1.6055 2.1953 2.125 3.8047 2.5703 7.6016 0 0 0.51953 6.2578 8.0156 6.2578 7.4961 0 8.6445-5.9609 8.7969-7.0312 0.67188-4.8672-1.9766-13.012-5.668-17.844-4.2539-5.582-10.297-8.957-17.629-10.398v-7.7578c0-4.1758-3.3789-7.5586-7.5586-7.5586-4.1758 0-7.5586 3.3789-7.5586 7.5586v7.3594c-8.7695 1.1289-15.453 4.6719-19.965 10.707-3.9492 5.3164-10.539 15.547-3.7852 33.258 5.8242 15.27 33.613 20.152 33.613 20.152 5.1953 1.2656 15.113 3.2539 15.141 15.227 0.011718 4.6406-2.8633 13.645-17.66 13.645-6.8789 0-16.688-3.043-16.688-15.531 0 0 0.11719-6.5156-8.0156-6.5156-8.1328 0-8.7656 6.5156-8.7656 6.5156 0 8.2734 1.1836 14.086 5.5 19.738 6.4844 8.5703 14.438 11.559 20.625 12.594v6.918c0 4.1758 3.3789 7.5586 7.5586 7.5586 4.1797-0.011719 7.5547-3.3945 7.5547-7.5664z"/>
  <path d="m535 583.13c30.57 0 54.516-15.352 54.516-34.953 0-19.602-23.945-34.949-54.516-34.949-16.168 0-31.344 4.5039-41.504 12.047-10.16-7.5469-25.336-12.047-41.504-12.047-30.57 0-54.516 15.352-54.516 34.949 0 19.598 23.945 34.949 54.516 34.949 12.551 0 24.469-2.7422 33.945-7.4805v28.602l-133.9-0.003906v-127.11h15.105c5.4375 18.625 30.637 32.328 61.852 32.328 35.312 0 62.977-17.523 62.977-39.887s-27.664-39.887-62.977-39.887c-31.223 0-56.422 13.703-61.852 32.328h-15.105v-25.086c55.852-3.9062 100.13-50.477 100.13-107.3 0-59.379-48.309-107.69-107.69-107.69s-107.69 48.309-107.69 107.69c0 56.828 44.281 103.4 100.13 107.3v54.742h-14.367c-5.4375-18.625-30.637-32.328-61.852-32.328-35.312 0-62.977 17.523-62.977 39.887s27.664 39.887 62.977 39.887c31.215 0 56.418-13.699 61.852-32.328h14.367v97.445l-72.676 0.003906c-4.1758 0-7.5586 3.3789-7.5586 7.5586 0 4.1758 3.3789 7.5586 7.5586 7.5586h298.21c4.1758 0 7.5586-3.3789 7.5586-7.5586 0-4.1758-3.3789-7.5586-7.5586-7.5586h-61.406v-28.602c9.4688 4.7461 21.391 7.4883 33.941 7.4883zm-106-138.32c28.207 0 47.863 13.055 47.863 24.773s-19.652 24.773-47.863 24.773c-22.168 0-39.012-8.0703-45.223-17.215h29.574c4.1758 0 7.5586-3.3789 7.5586-7.5586 0-4.1758-3.3789-7.5586-7.5586-7.5586h-29.578c6.2109-9.1445 23.047-17.215 45.227-17.215zm-16.41 103.37c0-9.3828 16.184-19.836 39.402-19.836 15.129 0 29.227 4.7578 35.906 12.117 2.8633 3.1523 8.3242 3.1484 11.191 0 6.6875-7.3594 20.781-12.117 35.906-12.117 23.219 0 39.402 10.453 39.402 19.836 0 9.3828-16.184 19.84-39.402 19.84-15.125 0-29.223-4.7578-35.906-12.117-1.4297-1.5781-3.4648-2.4727-5.5938-2.4727-2.125 0-4.1602 0.90234-5.5938 2.4805-6.6875 7.3594-20.781 12.117-35.906 12.117-23.223-0.011719-39.406-10.465-39.406-19.848zm-160.68-218.55c0-51.047 41.527-92.574 92.574-92.574s92.574 41.527 92.574 92.574-41.527 92.574-92.574 92.574-92.574-41.527-92.574-92.574zm8.7969 194.38c-28.207 0-47.863-13.055-47.863-24.773 0-11.715 19.652-24.773 47.863-24.773 22.172 0 39.016 8.0742 45.223 17.215l-36.922 0.003906c-4.1758 0-7.5586 3.3789-7.5586 7.5586 0 4.1758 3.3789 7.5586 7.5586 7.5586h36.918c-6.2109 9.1406-23.055 17.211-45.219 17.211z"/>
 </g>
</svg>