<?xml version="1.0" encoding="UTF-8"?>
<!-- The Best Svg Icon site in the world: iconSvg.co, Visit us! https://iconsvg.co -->
<svg fill="#000000" width="800px" height="800px" version="1.1" viewBox="144 144 512 512" xmlns="http://www.w3.org/2000/svg">
 <path d="m400 289.79c-29.23 0-57.262 11.613-77.93 32.281-20.668 20.668-32.281 48.699-32.281 77.93 0 29.227 11.613 57.258 32.281 77.926 20.668 20.668 48.699 32.281 77.93 32.281 29.227 0 57.258-11.613 77.926-32.281s32.281-48.699 32.281-77.926c-0.035156-29.219-11.656-57.234-32.316-77.895-20.66-20.66-48.672-32.281-77.891-32.316zm0 204.67c-25.055 0-49.082-9.9492-66.797-27.668-17.715-17.715-27.668-41.742-27.668-66.793 0-25.055 9.9531-49.082 27.668-66.797s41.742-27.668 66.797-27.668c25.051 0 49.078 9.9531 66.793 27.668 17.719 17.715 27.668 41.742 27.668 66.797-0.027344 25.043-9.9883 49.055-27.699 66.762-17.707 17.711-41.719 27.672-66.762 27.699zm-7.8711-133.82h15.742c4.1758 0 8.1797 1.6602 11.133 4.6133s4.6094 6.957 4.6094 11.133c0 4.3477 3.5273 7.8711 7.875 7.8711 4.3477 0 7.8711-3.5234 7.8711-7.8711 0-8.3516-3.3164-16.359-9.2227-22.266s-13.914-9.2227-22.266-9.2227v-7.8711c0-4.3477-3.5234-7.875-7.8711-7.875s-7.875 3.5273-7.875 7.875v7.8711c-11.25 0-21.645 6-27.27 15.742-5.625 9.7422-5.625 21.746 0 31.488s16.02 15.746 27.27 15.746h15.746c5.625 0 10.82 3 13.633 7.8711 2.8125 4.8711 2.8125 10.875 0 15.746-2.8125 4.8711-8.0078 7.8711-13.633 7.8711h-15.746c-4.1758 0-8.1797-1.6602-11.133-4.6133-2.9492-2.9531-4.6094-6.957-4.6094-11.133 0-4.3477-3.5234-7.8711-7.8711-7.8711-4.3477 0-7.875 3.5234-7.875 7.8711 0 8.3516 3.3203 16.363 9.2227 22.266 5.9062 5.9062 13.914 9.2227 22.266 9.2227v7.875c0 4.3477 3.5273 7.8711 7.875 7.8711s7.8711-3.5234 7.8711-7.8711v-7.875c11.25 0 21.645-6 27.27-15.742s5.625-21.746 0-31.488c-5.625-9.7422-16.02-15.746-27.27-15.746h-15.746c-5.625 0-10.82-3-13.633-7.8711s-2.8125-10.871 0-15.742c2.8125-4.8711 8.0078-7.875 13.633-7.875zm248.17 35.785c-41.297-81.316-140.12-138.12-240.3-138.12s-199.01 56.805-240.3 138.12c-1.1211 2.2422-1.1211 4.8867 0 7.1328 41.297 81.348 140.12 138.14 240.3 138.14s199-56.789 240.3-138.12c1.125-2.25 1.125-4.8984 0-7.1484zm-240.3 129.53c-91.504 0-185.12-52.758-224.38-125.95 39.262-73.191 132.88-125.95 224.38-125.95 91.504 0 185.12 52.758 224.38 125.95-39.266 73.191-132.86 125.95-224.38 125.95z"/>
</svg>