<?xml version="1.0" encoding="UTF-8"?>
<!-- The Best Svg Icon site in the world: iconSvg.co, Visit us! https://iconsvg.co -->
<svg fill="#000000" width="800px" height="800px" version="1.1" viewBox="144 144 512 512" xmlns="http://www.w3.org/2000/svg">
 <g>
  <path d="m305.54 337.02h10.496c2.7812 0 5.4531-1.1055 7.4219-3.0742s3.0742-4.6406 3.0742-7.4219v-31.488c0-2.7852-1.1055-5.4531-3.0742-7.4219s-4.6406-3.0742-7.4219-3.0742h-31.488v-10.496h31.488c5.7969 0 10.496-4.6992 10.496-10.496s-4.6992-10.496-10.496-10.496h-10.496c0-5.7969-4.6992-10.496-10.496-10.496-5.7969 0-10.496 4.6992-10.496 10.496h-10.496c-5.7969 0-10.496 4.6992-10.496 10.496v31.488c0 2.7812 1.1055 5.4531 3.0742 7.4219s4.6367 3.0742 7.4219 3.0742h31.488v10.496h-31.488c-5.7969 0-10.496 4.6992-10.496 10.496s4.6992 10.496 10.496 10.496h10.496c0 5.7969 4.6992 10.496 10.496 10.496 5.7969 0 10.496-4.6992 10.496-10.496z"/>
  <path d="m389.5 295.04c0-25.055-9.9531-49.082-27.668-66.797-17.719-17.715-41.746-27.668-66.797-27.668-25.055 0-49.082 9.9531-66.797 27.668-17.715 17.715-27.668 41.742-27.668 66.797 0 25.051 9.9531 49.078 27.668 66.797 17.715 17.715 41.742 27.668 66.797 27.668 25.051 0 49.078-9.9531 66.797-27.668 17.715-17.719 27.668-41.746 27.668-66.797zm-167.94 0c0-19.488 7.7422-38.176 21.52-51.953 13.777-13.777 32.465-21.52 51.953-21.52 19.484 0 38.172 7.7422 51.953 21.52 13.777 13.777 21.52 32.465 21.52 51.953 0 19.484-7.7422 38.172-21.52 51.953-13.781 13.777-32.469 21.52-51.953 21.52-19.488 0-38.176-7.7422-51.953-21.52-13.777-13.781-21.52-32.469-21.52-51.953z"/>
  <path d="m596.38 518.5-94.465-94.465c-1.9688-1.9883-4.6523-3.1055-7.4531-3.1055-2.7969 0-5.4805 1.1172-7.4492 3.1055l-94.465 94.465c-4.1172 4.1133-4.1172 10.789 0 14.902 4.1133 4.1172 10.789 4.1172 14.902 0l3.043-3.1484 0.003906 58.672c0 2.7852 1.1055 5.4531 3.0742 7.4219s4.6367 3.0742 7.4219 3.0742h146.94c2.7852 0 5.4531-1.1055 7.4219-3.0742s3.0742-4.6367 3.0742-7.4219v-58.672l3.043 3.1484h0.003906c4.1133 4.1172 10.785 4.1172 14.902 0 4.1172-4.1133 4.1172-10.789 0-14.902zm-122.91 59.93v-41.984h41.984v41.984zm83.969 0h-20.996v-52.48c0-2.7812-1.1055-5.4531-3.0742-7.4219-1.9648-1.9648-4.6367-3.0742-7.4219-3.0742h-62.973c-5.7969 0-10.496 4.6992-10.496 10.496v52.48h-20.992v-69.168l62.977-62.977 62.977 62.977z"/>
  <path d="m420.99 305.54h62.977v58.672l-13.539-13.645h-0.003907c-4.1133-4.1172-10.789-4.1172-14.902 0-4.1172 4.1172-4.1172 10.789 0 14.902l31.488 31.488c1.9688 1.9883 4.6523 3.1055 7.4492 3.1055 2.8008 0 5.4844-1.1172 7.4531-3.1055l31.488-31.488c4.1172-4.1133 4.1172-10.785 0-14.902-4.1133-4.1172-10.789-4.1172-14.902 0l-13.543 13.645v-69.168c0-2.7852-1.1055-5.4531-3.0742-7.4219-1.9648-1.9688-4.6367-3.0742-7.4219-3.0742h-73.469c-5.7969 0-10.496 4.6992-10.496 10.496 0 5.7969 4.6992 10.496 10.496 10.496z"/>
  <path d="m358.02 504.96h-52.48v-58.672l13.539 13.645c4.1172 4.1172 10.789 4.1172 14.902 0 4.1172-4.1133 4.1172-10.789 0-14.902l-31.488-31.488h0.003907c-1.9727-1.9883-4.6562-3.1055-7.4531-3.1055-2.8008 0-5.4805 1.1172-7.4531 3.1055l-31.488 31.488c-4.1172 4.1133-4.1172 10.789 0 14.902 4.1172 4.1172 10.789 4.1172 14.906 0l13.539-13.645v69.168c0 2.7852 1.1055 5.457 3.0742 7.4219 1.9688 1.9688 4.6367 3.0742 7.4219 3.0742h62.977c5.7969 0 10.496-4.6992 10.496-10.496s-4.6992-10.496-10.496-10.496z"/>
 </g>
</svg>