<?xml version="1.0" encoding="UTF-8"?>
<!-- The Best Svg Icon site in the world: iconSvg.co, Visit us! https://iconsvg.co -->
<svg fill="#000000" width="800px" height="800px" version="1.1" viewBox="144 144 512 512" xmlns="http://www.w3.org/2000/svg">
 <g>
  <path d="m346.96 214.38c-35.16 0-68.883 13.969-93.75 38.832-24.863 24.867-38.832 58.59-38.832 93.75 0 35.164 13.969 68.887 38.832 93.75 24.867 24.863 58.59 38.832 93.75 38.832 35.164 0 68.887-13.969 93.75-38.832 24.863-24.863 38.832-58.586 38.832-93.75 0-35.16-13.969-68.883-38.832-93.75-24.863-24.863-58.586-38.832-93.75-38.832zm0 238.65c-28.129 0-55.105-11.176-75-31.066-19.891-19.891-31.062-46.867-31.062-75 0-28.129 11.172-55.105 31.062-75 19.895-19.891 46.871-31.062 75-31.062 28.133 0 55.109 11.172 75 31.062 19.891 19.895 31.066 46.871 31.066 75 0 28.133-11.176 55.109-31.066 75s-46.867 31.066-75 31.066z"/>
  <path d="m338.75 310.51h41.363c7.3242 0 13.262-5.9375 13.262-13.262 0-7.3203-5.9375-13.258-13.262-13.258h-19.887v-3.3125c0-7.3242-5.9336-13.258-13.258-13.258-7.3203 0-13.258 5.9336-13.258 13.258v3.8438c-12.758 1.8555-23.707 10.039-29.098 21.754-5.3867 11.711-4.4805 25.352 2.4141 36.246 6.8906 10.895 18.832 17.559 31.723 17.703h16.441c3.2891-0.35156 6.5781 0.71094 9.0391 2.9258 2.4609 2.2109 3.8672 5.3672 3.8672 8.6758 0 3.3125-1.4062 6.4648-3.8672 8.6797-2.4609 2.2109-5.75 3.2734-9.0391 2.9219h-41.367c-7.3203 0-13.258 5.9375-13.258 13.258 0 7.3242 5.9375 13.258 13.258 13.258h19.887v3.3164c0 7.3203 5.9375 13.258 13.258 13.258 7.3242 0 13.258-5.9375 13.258-13.258v-3.8477c12.758-1.8516 23.711-10.039 29.098-21.75 5.3906-11.711 4.4805-25.355-2.4102-36.25-6.8945-10.891-18.832-17.555-31.723-17.703h-16.441c-3.293 0.35156-6.5781-0.71094-9.0391-2.9219-2.4648-2.2148-3.8711-5.3672-3.8711-8.6797 0-3.3086 1.4062-6.4648 3.8711-8.6758 2.4609-2.2148 5.7461-3.2773 9.0391-2.9219z"/>
  <path d="m621.54 549.68-79.551-79.551c-2.4883-2.5078-5.8789-3.9219-9.4141-3.9219s-6.9219 1.4141-9.4102 3.9219l-17.105 17.238-18.961-19.09 0.003907-0.003906c31.469-36.344 47.605-83.48 45.02-131.48-2.5859-48.004-23.699-93.133-58.891-125.89s-81.719-50.574-129.79-49.711c-48.066 0.86328-93.926 20.344-127.92 54.336s-53.473 79.852-54.336 127.92c-0.86328 48.066 16.957 94.594 49.711 129.79s77.883 56.305 125.89 58.891c48.004 2.5859 95.141-13.551 131.48-45.02l19.094 18.957-17.234 17.102-0.003907 0.003907c-2.5078 2.4883-3.9219 5.875-3.9219 9.4102s1.4141 6.9258 3.9219 9.4141l79.551 79.551c12.836 12.836 31.547 17.848 49.082 13.148 17.531-4.6953 31.23-18.395 35.926-35.926 4.6992-17.535-0.3125-36.246-13.148-49.082zm-274.58-43.621c-42.195 0-82.66-16.762-112.5-46.598-29.84-29.836-46.602-70.305-46.602-112.5 0-42.195 16.762-82.66 46.602-112.5 29.836-29.84 70.301-46.602 112.5-46.602 42.195 0 82.664 16.762 112.5 46.602 29.836 29.836 46.598 70.301 46.598 112.5 0 42.195-16.762 82.664-46.598 112.5-29.836 29.836-70.305 46.598-112.5 46.598zm255.75 96.652c-4.5117 4.582-10.672 7.1641-17.102 7.1641-6.4297 0-12.594-2.582-17.105-7.1641l-70.266-70.137 34.336-34.336 70.137 70.27v-0.003907c4.582 4.5117 7.1641 10.676 7.1641 17.105 0 6.4297-2.582 12.59-7.1641 17.102z"/>
 </g>
</svg>