<?xml version="1.0" encoding="UTF-8"?>
<!-- The Best Svg Icon site in the world: iconSvg.co, Visit us! https://iconsvg.co -->
<svg fill="#000000" width="800px" height="800px" version="1.1" viewBox="144 144 512 512" xmlns="http://www.w3.org/2000/svg">
 <g>
  <path d="m505.23 193.44v30.367-0.003907c0.003907 7.3281-5.9102 13.281-13.238 13.328h-183.98c-7.3438-0.027344-13.281-5.9844-13.281-13.328v-30.363c0-7.3359 5.9453-13.281 13.281-13.281h183.98c7.3203 0.023438 13.238 5.9609 13.238 13.281z"/>
  <path d="m534.59 284.58-46.074-28.215h-0.003907c-3.7266-2.2773-6.457-5.875-7.6484-10.078h-161.72c-1.1562 4.2188-3.8945 7.832-7.6484 10.078l-46.121 28.215c-14.812 9.0312-23.828 25.152-23.77 42.5v250.26c0.003906 11.262 4.4766 22.062 12.438 30.031 7.9609 7.9688 18.754 12.453 30.02 12.473h231.84c11.266-0.015625 22.07-4.5 30.035-12.469 7.9688-7.9648 12.453-18.77 12.469-30.035v-250.26c0.039062-17.355-8.9922-33.473-23.816-42.5zm-133.6 266.74h-0.98438c-39.34 0-75.688-20.984-95.355-55.051-19.668-34.066-19.668-76.039 0-110.11 19.668-34.066 56.016-55.055 95.355-55.055h1.0078c39.098 0.35547 75.07 21.422 94.52 55.34 19.445 33.922 19.445 75.609 0 109.53-19.449 33.922-55.422 54.984-94.52 55.34z"/>
  <path d="m381.62 423.06c-0.13281 3.0312 1.293 5.9219 3.7812 7.6602 3.3945 2.1875 7.1484 3.75 11.09 4.6211v-24.785c-3.9102 0.375-7.6484 1.7969-10.816 4.125-2.6211 1.9766-4.1289 5.0977-4.0547 8.3789z"/>
  <path d="m415.25 452.18c-3.75-2.0508-7.7539-3.5898-11.91-4.5781v24.219c10.598-0.75 15.895-5.0273 15.887-12.824h0.003906c0.054688-2.8398-1.4805-5.4727-3.9805-6.8164z"/>
  <path d="m399.96 369.56c-18.996 0.007812-37.211 7.5625-50.641 20.996-13.43 13.438-20.973 31.656-20.969 50.656 0.003906 18.996 7.5508 37.211 20.984 50.645 13.434 13.434 31.652 20.977 50.648 20.98 18.996 0 37.219-7.5469 50.652-20.977 13.434-13.43 20.984-31.648 20.988-50.645-0.015625-19-7.5742-37.219-21.008-50.652-13.438-13.434-31.656-20.988-50.656-21.004zm26.215 100.93v0.003907c-2.2852 3.3516-5.4414 6.0156-9.1328 7.7109-4.293 2.0078-8.9453 3.1406-13.684 3.3242v8c0.03125 0.90234-0.3125 1.7812-0.95312 2.4219-1.4062 1.2539-3.5234 1.2773-4.9609 0.058593-0.65234-0.65625-0.99609-1.5586-0.95312-2.4805v-8.0039c-7.8281-0.46094-15.523-2.25-22.754-5.293-0.91406-0.38672-1.6992-1.0312-2.25-1.8555-1.3398-1.8633-1.1758-4.4141 0.39062-6.0859 0.84766-0.93359 2.0586-1.4492 3.3164-1.4141 0.74219 0 1.4727 0.15625 2.1484 0.46094 6.043 2.6914 12.539 4.2188 19.148 4.5039v-25.906c-4.4102-1.1172-8.7227-2.5859-12.895-4.3945-3.4062-1.5039-6.3984-3.8047-8.7305-6.7031-2.4141-3.1445-3.6484-7.0352-3.4922-10.992-0.027344-3.7969 0.96094-7.5312 2.8672-10.816 2.0664-3.4648 5.0234-6.3125 8.5664-8.2422 4.2148-2.3047 8.8906-3.6523 13.684-3.9453v-7.8516c-0.019531-0.92188 0.32422-1.8125 0.95312-2.4805 0.62891-0.66797 1.5117-1.0352 2.4297-1.0117 0.92578-0.007813 1.8203 0.35547 2.4766 1.0117s1.0195 1.5508 1.0078 2.4805v7.7852c6.6953 0.17187 13.316 1.4258 19.609 3.7148 1.9766 0.57422 3.2891 2.4492 3.1523 4.5039 0 1.207-0.4375 2.3672-1.2344 3.2734-0.80859 0.96484-2.0156 1.5039-3.2773 1.4609-0.62109-0.042968-1.2266-0.19922-1.793-0.46094-5.3008-1.8359-10.848-2.8594-16.457-3.0391v26.812c4.5938 1.0156 9.0977 2.4102 13.465 4.168 3.5 1.4492 6.582 3.75 8.9609 6.6992 2.5312 3.3828 3.8047 7.5469 3.5977 11.77 0.039063 3.8438-1.0781 7.6133-3.207 10.816z"/>
  <path d="m400.91 340.27h-0.91406c-35.898 0.24219-68.969 19.531-86.848 50.664-17.879 31.129-17.879 69.414 0 100.54 17.879 31.129 50.949 50.418 86.848 50.66h0.98828c35.781-0.42969 68.656-19.77 86.418-50.836 17.758-31.062 17.742-69.207-0.039062-100.26s-50.672-50.367-86.453-50.773zm-0.96484 181.72v0.003906c-21.43-0.011719-41.977-8.5312-57.121-23.691-15.145-15.156-23.648-35.711-23.641-57.137 0.007812-21.43 8.5273-41.977 23.684-57.121 15.156-15.148 35.711-23.652 57.137-23.648 21.43 0.007812 41.977 8.5273 57.125 23.68 15.148 15.156 23.652 35.711 23.648 57.137-0.023438 21.426-8.5469 41.965-23.699 57.109-15.156 15.148-35.699 23.66-57.125 23.672z"/>
 </g>
</svg>