<?xml version="1.0" encoding="UTF-8"?>
<!-- The Best Svg Icon site in the world: iconSvg.co, Visit us! https://iconsvg.co -->
<svg width="800px" height="800px" version="1.1" viewBox="144 144 512 512" xmlns="http://www.w3.org/2000/svg">
 <defs>
  <clipPath id="a">
   <path d="m211 148.09h378v503.81h-378z"/>
  </clipPath>
 </defs>
 <path d="m400 462.98c-33.406 0-65.441-13.273-89.062-36.891-23.621-23.621-36.891-55.66-36.891-89.062 0-33.406 13.27-65.441 36.891-89.062 23.621-23.621 55.656-36.891 89.062-36.891 33.402 0 65.441 13.27 89.059 36.891 23.621 23.621 36.891 55.656 36.891 89.062-0.035157 33.391-13.32 65.406-36.93 89.02-23.613 23.609-55.629 36.895-89.02 36.934zm0-220.42c-25.055 0-49.082 9.9531-66.797 27.668-17.715 17.715-27.668 41.742-27.668 66.797 0 25.051 9.9531 49.078 27.668 66.797 17.715 17.715 41.742 27.668 66.797 27.668 25.051 0 49.078-9.9531 66.793-27.668 17.719-17.719 27.668-41.746 27.668-66.797-0.027344-25.047-9.9883-49.059-27.695-66.766-17.711-17.711-41.723-27.672-66.766-27.699z"/>
 <path d="m407.87 400h-39.359c-5.625 0-10.824-3.0039-13.637-7.875s-2.8125-10.871 0-15.742c2.8125-4.8711 8.0117-7.8711 13.637-7.8711h39.359c4.3477 0 7.8711-3.5273 7.8711-7.875 0-4.3477-3.5234-7.8711-7.8711-7.8711h-15.746c-14.059 0-27.055-7.5-34.086-19.68-7.0312-12.176-7.0312-27.184 0-39.359 7.0312-12.18 20.027-19.68 34.086-19.68h39.363c5.625 0 10.82 3 13.633 7.8711 2.8125 4.8711 2.8125 10.871 0 15.746-2.8125 4.8711-8.0078 7.8711-13.633 7.8711h-39.363c-4.3477 0-7.8711 3.5234-7.8711 7.8711s3.5234 7.8711 7.8711 7.8711h15.746c14.062 0 27.055 7.5039 34.086 19.68 7.0312 12.18 7.0312 27.184 0 39.363-7.0312 12.176-20.023 19.68-34.086 19.68z"/>
 <path d="m400 305.54c-4.1758 0-8.1797-1.6602-11.133-4.6133-2.9531-2.9531-4.6133-6.957-4.6133-11.133v-15.742c0-5.625 3-10.824 7.8711-13.637s10.875-2.8125 15.746 0 7.8711 8.0117 7.8711 13.637v15.742c0 4.1758-1.6602 8.1797-4.6094 11.133-2.9531 2.9531-6.957 4.6133-11.133 4.6133z"/>
 <path d="m400 415.74c-4.1758 0-8.1797-1.6602-11.133-4.6094-2.9531-2.9531-4.6133-6.957-4.6133-11.133v-15.746c0-5.625 3-10.82 7.8711-13.633s10.875-2.8125 15.746 0 7.8711 8.0078 7.8711 13.633v15.746c0 4.1758-1.6602 8.1797-4.6094 11.133-2.9531 2.9492-6.957 4.6094-11.133 4.6094z"/>
 <g clip-path="url(#a)">
  <path d="m400 651.9c-2.6328 0.003906-5.2266-0.65625-7.5352-1.9219-7.4102-4.043-181.39-101.38-181.39-312.96 0-50.109 19.906-98.164 55.336-133.59 35.43-35.43 83.484-55.336 133.59-55.336 50.105 0 98.16 19.906 133.59 55.336 35.434 35.43 55.336 83.484 55.336 133.59 0 211.59-173.98 308.91-181.39 312.96-2.3086 1.2656-4.8984 1.9258-7.5312 1.9219zm0-472.32c-41.742 0.046875-81.762 16.648-111.28 46.164s-46.117 69.535-46.164 111.28c0 168.45 125.07 259.88 157.44 280.7 32.363-20.828 157.44-112.25 157.44-280.7-0.046875-41.742-16.648-81.762-46.164-111.28-29.516-29.516-69.535-46.117-111.27-46.164z"/>
 </g>
</svg>