<?xml version="1.0" encoding="UTF-8"?>
<!-- The Best Svg Icon site in the world: iconSvg.co, Visit us! https://iconsvg.co -->
<svg fill="#000000" width="800px" height="800px" version="1.1" viewBox="144 144 512 512" xmlns="http://www.w3.org/2000/svg">
 <g>
  <path d="m423.23 381.87c-0.23047-0.30859-0.91406-0.8125-2.0312-1.5117-1.125-0.69531-2.5586-1.4531-4.3008-2.2656-1.7422-0.8125-3.6797-1.5859-5.8086-2.3242-2.1328-0.73438-4.2812-1.2578-6.4492-1.5703v15.805l3.7188 0.92969c3.9492 1.0859 7.5117 2.2656 10.691 3.543 3.1758 1.2773 5.8672 2.8672 8.0742 4.7656 2.207 1.8984 3.9102 4.2031 5.1133 6.9141 1.2031 2.7109 1.8008 5.9648 1.8008 9.7617 0 4.4141-0.77734 8.1758-2.3242 11.273s-3.6211 5.6367-6.2148 7.6094c-2.5938 1.9766-5.5781 3.4648-8.9453 4.4727-3.3711 1.0039-6.9141 1.5859-10.633 1.7422v13.48h-8.0195v-13.594c-5.3477-0.46484-10.633-1.5469-15.863-3.2539-5.2305-1.7031-9.9336-3.9531-14.117-6.7422l8.3672-16.617c0.30859 0.39063 1.1406 1.0273 2.5 1.918 1.3555 0.89062 3.0781 1.8242 5.1719 2.7891 2.0938 0.96875 4.4531 1.8984 7.0898 2.7891 2.6328 0.89062 5.3477 1.5312 8.1367 1.918v-15.457l-5.5781-1.625c-3.7969-1.1641-7.0898-2.4219-9.875-3.7773-2.7891-1.3555-5.0977-2.9258-6.9141-4.707-1.8203-1.7812-3.1758-3.8359-4.0664-6.1602-0.89062-2.3242-1.3359-5.0352-1.3359-8.1328 0-4.0273 0.69531-7.6094 2.0938-10.75 1.3945-3.1367 3.2734-5.8281 5.6367-8.0781 2.3594-2.2461 5.1484-4.0078 8.3672-5.2852 3.2109-1.2773 6.6797-2.1094 10.398-2.5v-11.738h8.0195v11.738c5.0312 0.46484 9.7578 1.5898 14.176 3.3711s8.25 3.6016 11.504 5.4609zm-32.188-1.0469c0 1.9375 0.67578 3.4688 2.0312 4.5898 1.3555 1.125 3.3867 2.1094 6.1016 2.9609v-14.293c-5.4219 0.46875-8.1328 2.7148-8.1328 6.7422zm22.543 36.953c0-2.0156-0.8125-3.582-2.4375-4.707-1.6289-1.125-3.7969-2.1484-6.5078-3.0781v13.945c5.9609-0.23047 8.9453-2.2852 8.9453-6.1602z"/>
  <path d="m607.62 403.93c-2.1719 0-3.9375-1.7617-3.9375-3.9375 0-111.77-90.934-202.7-202.7-202.7-55.418 0-107.16 21.938-145.7 61.777-1.5117 1.5625-4.0039 1.6055-5.5664 0.09375-1.5625-1.5117-1.6016-4.0039-0.09375-5.5664 40.035-41.383 93.789-64.176 151.36-64.176 116.11 0 210.58 94.465 210.58 210.58-0.003906 2.1719-1.7656 3.9336-3.9375 3.9336z"/>
  <path d="m400.98 610.57c-116.11 0-210.58-94.465-210.58-210.58 0-2.1719 1.7617-3.9375 3.9375-3.9375 2.1719 0 3.9375 1.7617 3.9375 3.9375 0 111.77 90.934 202.7 202.7 202.7 56.426 0 108.83-22.625 147.54-63.707 1.4922-1.582 3.9844-1.6562 5.5625-0.16406 1.582 1.4922 1.6562 3.9805 0.16406 5.5625-19.488 20.68-42.496 36.953-68.383 48.367-26.797 11.824-55.359 17.816-84.887 17.816z"/>
  <path d="m606.64 407.87c-1.0078 0-2.0156-0.38281-2.7812-1.1523l-24.602-24.602c-1.5391-1.5391-1.5391-4.0312 0-5.5664 1.5352-1.5352 4.0312-1.5352 5.5664 0l21.816 21.816 21.816-21.816c1.5352-1.5352 4.0312-1.5352 5.5664 0 1.5391 1.5391 1.5391 4.0312 0 5.5664l-24.602 24.602c-0.76562 0.76562-1.7773 1.1523-2.7812 1.1523z"/>
  <path d="m217.96 407.87c-1.0078 0-2.0156-0.38281-2.7852-1.1523l-21.812-21.816-21.816 21.816c-1.5391 1.5391-4.0312 1.5391-5.5664 0-1.5352-1.5352-1.5352-4.0312 0-5.5664l24.602-24.602c1.5391-1.5352 4.0312-1.5352 5.5664 0l24.602 24.602c1.5352 1.5352 1.5352 4.0312 0 5.5664-0.77344 0.76562-1.7812 1.1523-2.7891 1.1523z"/>
  <path d="m400.98 551.54c-83.559 0-151.54-67.98-151.54-151.54 0-83.559 67.98-151.54 151.54-151.54 83.559 0 151.54 67.98 151.54 151.54s-67.98 151.54-151.54 151.54zm0-295.2c-79.219 0-143.66 64.449-143.66 143.66 0 79.219 64.449 143.66 143.66 143.66 79.219 0 143.66-64.449 143.66-143.66 0-79.219-64.449-143.66-143.66-143.66z"/>
  <path d="m400.98 492.5c-51.004 0-92.496-41.492-92.496-92.496s41.492-92.496 92.496-92.496 92.496 41.492 92.496 92.496c0 51-41.496 92.496-92.496 92.496zm0-177.12c-46.66 0-84.625 37.961-84.625 84.625s37.961 84.625 84.625 84.625 84.625-37.961 84.625-84.625c-0.003906-46.664-37.965-84.625-84.625-84.625z"/>
  <path d="m336.04 384.25h19.68v19.68h-19.68z"/>
  <path d="m444.28 384.25h19.68v19.68h-19.68z"/>
 </g>
</svg>