<?xml version="1.0" encoding="UTF-8"?>
<!-- The Best Svg Icon site in the world: iconSvg.co, Visit us! https://iconsvg.co -->
<svg fill="#000000" width="800px" height="800px" version="1.1" viewBox="144 144 512 512" xmlns="http://www.w3.org/2000/svg">
 <g>
  <path d="m305.54 344.89v-7.8711c8.4375 0 16.234-4.5039 20.453-11.809 4.2148-7.3086 4.2148-16.309 0-23.617-4.2188-7.3047-12.016-11.809-20.453-11.809h-15.746c-4.3477 0-7.8711-3.5234-7.8711-7.8711 0-4.3477 3.5234-7.8711 7.8711-7.8711h15.746c2.0859 0 4.0898 0.82812 5.5664 2.3047 1.4766 1.4766 2.3047 3.4805 2.3047 5.5664 0 4.3477 3.5234 7.8711 7.8711 7.8711s7.8711-3.5234 7.8711-7.8711c0-6.2617-2.4844-12.27-6.9141-16.699s-10.438-6.918-16.699-6.918v-7.8711c0-4.3477-3.5234-7.8711-7.8711-7.8711-4.3477 0-7.875 3.5234-7.875 7.8711v7.8711c-8.4375 0-16.23 4.5039-20.449 11.809-4.2188 7.3086-4.2188 16.309 0 23.617 4.2188 7.3047 12.012 11.809 20.449 11.809h15.746c4.3477 0 7.8711 3.5234 7.8711 7.8711s-3.5234 7.8711-7.8711 7.8711h-15.746c-4.3477 0-7.8711-3.5234-7.8711-7.8711s-3.5234-7.8711-7.8711-7.8711-7.8711 3.5234-7.8711 7.8711c0 6.2617 2.4883 12.27 6.9141 16.699 4.4297 4.4297 10.438 6.918 16.699 6.918v7.8711c0 4.3477 3.5273 7.8711 7.875 7.8711 4.3477 0 7.8711-3.5234 7.8711-7.8711z"/>
  <path d="m431.49 297.66c0-35.496-14.102-69.531-39.199-94.629-25.094-25.098-59.133-39.199-94.625-39.199-35.496 0-69.531 14.102-94.629 39.199s-39.199 59.133-39.199 94.629c0 35.492 14.102 69.531 39.199 94.625 25.098 25.098 59.133 39.199 94.629 39.199 35.477-0.042969 69.496-14.152 94.582-39.242 25.09-25.086 39.199-59.105 39.242-94.582zm-251.91 0c0-31.32 12.441-61.352 34.586-83.496s52.176-34.586 83.496-34.586c31.316 0 61.348 12.441 83.492 34.586s34.586 52.176 34.586 83.496c0 31.316-12.441 61.348-34.586 83.492s-52.176 34.586-83.492 34.586c-31.309-0.035157-61.32-12.488-83.457-34.625-22.137-22.137-34.59-52.148-34.625-83.453z"/>
  <path d="m400 297.66c0-27.145-10.785-53.172-29.977-72.363-19.191-19.191-45.219-29.977-72.359-29.977-27.145 0-53.172 10.785-72.363 29.977-19.191 19.191-29.977 45.219-29.977 72.363 0 27.141 10.785 53.168 29.977 72.359 19.191 19.191 45.219 29.977 72.363 29.977 27.129-0.03125 53.141-10.824 72.328-30.008 19.184-19.188 29.977-45.199 30.008-72.328zm-188.93 0c0-22.969 9.1211-44.992 25.363-61.23 16.238-16.242 38.262-25.363 61.23-25.363 22.965 0 44.988 9.1211 61.227 25.363 16.242 16.238 25.363 38.262 25.363 61.23 0 22.965-9.1211 44.988-25.363 61.227-16.238 16.242-38.262 25.363-61.227 25.363-22.961-0.027344-44.969-9.1602-61.203-25.391-16.23-16.234-25.363-38.242-25.391-61.199z"/>
  <path d="m276.59 357.02c-17.816-6.4414-31.844-20.477-38.281-38.297-1.457-4.0977-5.9609-6.2383-10.059-4.7812s-6.2383 5.9609-4.7812 10.055c7.9102 22.348 25.484 39.93 47.828 47.848 1.9844 0.76562 4.1875 0.69922 6.1172-0.18359 1.9336-0.88672 3.4219-2.5117 4.1367-4.5117 0.71484-2 0.58984-4.2031-0.34375-6.1094-0.93359-1.9102-2.6016-3.3555-4.6172-4.0195z"/>
  <path d="m360.33 291.36c0.20312 2.0703 0.30859 4.1562 0.30859 6.2969l-0.003906 0.003906c0 4.3477 3.5273 7.8711 7.875 7.8711 4.3477 0 7.8711-3.5234 7.8711-7.8711 0-2.6445-0.13281-5.2578-0.38672-7.8711v-0.003907c-0.43359-4.3242-4.293-7.4805-8.6211-7.043-4.3242 0.43359-7.4766 4.293-7.043 8.6172z"/>
  <path d="m325.69 241.27c12.625 6.332 22.785 16.684 28.883 29.426 1.8945 3.875 6.5547 5.5039 10.453 3.6523 3.8945-1.8555 5.5742-6.4961 3.7617-10.414-7.6094-15.914-20.305-28.844-36.078-36.746-1.875-1.0078-4.0781-1.2148-6.1094-0.57031s-3.7109 2.0859-4.6641 3.9922c-0.94922 1.9062-1.0859 4.1133-0.37891 6.125 0.70703 2.0078 2.1992 3.6445 4.1328 4.5352z"/>
  <path d="m598.31 429.74-66.793-66.793c-3.1211-2.9531-8.0078-2.9531-11.129 0l-33.395 33.402c-3.0742 3.0703-3.0742 8.0547 0 11.129l66.785 66.793c13.922 13.922 19.359 34.215 14.266 53.23-5.0977 19.016-19.953 33.871-38.969 38.969-19.016 5.0938-39.309-0.34375-53.23-14.266l-66.793-66.801c-3.1211-2.9531-8.0078-2.9531-11.129 0l-33.395 33.402c-3.0742 3.0742-3.0742 8.0547 0 11.129l66.793 66.793c29.875 29.613 73.246 41.098 113.86 30.152 40.613-10.945 72.336-42.668 83.281-83.281 10.949-40.617-0.53906-83.984-30.152-113.86zm-72.359-50.098 11.133 11.133-22.262 22.27-11.133-11.133zm-122.46 122.46 11.141 11.141-22.262 22.262-11.141-11.125zm183.7 83.5c-19.191 19.191-45.219 29.969-72.359 29.969-27.141 0-53.168-10.777-72.359-29.969l-38.965-38.965 22.258-22.258 38.969 38.969c17.898 17.895 43.988 24.883 68.438 18.332 24.445-6.5547 43.543-25.652 50.09-50.102 6.5508-24.449-0.44141-50.539-18.34-68.434l-38.961-38.969 22.262-22.27 38.969 38.969c19.164 19.207 29.93 45.23 29.93 72.363s-10.766 53.156-29.93 72.363z"/>
  <path d="m486.99 351.81 11.133-11.133 11.133 11.133-11.133 11.133z"/>
  <path d="m464.72 329.54 11.133-11.133 11.133 11.133-11.133 11.133z"/>
  <path d="m464.72 374.07 11.133-11.133 11.133 11.133-11.133 11.133z"/>
  <path d="m442.46 351.81 11.133-11.129 11.129 11.133-11.133 11.129z"/>
  <path d="m364.53 474.27 11.133-11.133 11.133 11.133-11.133 11.133z"/>
  <path d="m342.27 452.01 11.133-11.133 11.133 11.133-11.133 11.133z"/>
  <path d="m342.26 496.53 11.133-11.129 11.129 11.133-11.133 11.129z"/>
  <path d="m319.99 474.27 11.133-11.133 11.133 11.133-11.133 11.133z"/>
  <path d="m457.41 248.12 11.133-11.133 86.59 86.59-11.133 11.133z"/>
  <path d="m551.88 342.59 11.133-11.133 15.742 15.742-11.133 11.133z"/>
  <path d="m236.99 460.67 11.133-11.133 86.59 86.59-11.133 11.133z"/>
  <path d="m331.46 555.13 11.133-11.133 15.742 15.742-11.133 11.133z"/>
 </g>
</svg>