<?xml version="1.0" encoding="UTF-8"?>
<!-- The Best Svg Icon site in the world: iconSvg.co, Visit us! https://iconsvg.co -->
<svg width="800px" height="800px" version="1.1" viewBox="144 144 512 512" xmlns="http://www.w3.org/2000/svg">
 <defs>
  <clipPath id="a">
   <path d="m148.09 163h503.81v488.9h-503.81z"/>
  </clipPath>
 </defs>
 <g clip-path="url(#a)">
  <path d="m392.12 344.89h15.746c4.1758 0 8.1797 1.6602 11.133 4.6094 2.9531 2.9531 4.6094 6.957 4.6094 11.133 0 4.3477 3.5273 7.875 7.875 7.875 4.3477 0 7.8711-3.5273 7.8711-7.875 0-8.3477-3.3164-16.359-9.2227-22.266-5.9062-5.9023-13.914-9.2227-22.266-9.2227v-7.8711c0-4.3477-3.5234-7.8711-7.8711-7.8711s-7.875 3.5234-7.875 7.8711v7.8711c-11.25 0-21.645 6.0039-27.27 15.746-5.625 9.7422-5.625 21.746 0 31.488 5.625 9.7422 16.02 15.742 27.27 15.742h15.746c5.625 0 10.82 3.0039 13.633 7.875s2.8125 10.871 0 15.742c-2.8125 4.8711-8.0078 7.8711-13.633 7.8711h-15.746c-4.1758 0-8.1797-1.6562-11.133-4.6094-2.9492-2.9531-4.6094-6.957-4.6094-11.133 0-4.3477-3.5234-7.8711-7.8711-7.8711-4.3477 0-7.875 3.5234-7.875 7.8711 0 8.3516 3.3203 16.359 9.2227 22.266 5.9062 5.9062 13.914 9.2227 22.266 9.2227v7.8711c0 4.3477 3.5273 7.8711 7.875 7.8711s7.8711-3.5234 7.8711-7.8711v-7.8711c11.25 0 21.645-6.0039 27.27-15.746 5.625-9.7422 5.625-21.746 0-31.488s-16.02-15.742-27.27-15.742h-15.746c-5.625 0-10.82-3-13.633-7.8711-2.8125-4.8711-2.8125-10.875 0-15.746s8.0078-7.8711 13.633-7.8711zm195.71-141.79c-1.2109-1.7109-3.0586-2.8672-5.125-3.2148-2.0703-0.34375-4.1914 0.14844-5.8945 1.375l-27.254 19.395-27.285-19.395c-3.5352-2.3555-8.3047-1.4766-10.773 1.9844-2.4648 3.4609-1.7383 8.2578 1.6445 10.832l22.844 16.23-22.844 16.25c-1.7734 1.1797-2.9961 3.0273-3.3789 5.125-0.38672 2.0977 0.09375 4.2578 1.3281 5.9922 1.2383 1.7383 3.125 2.8984 5.2305 3.2188 2.1094 0.31641 4.2539-0.23047 5.9492-1.5234l27.285-19.395 27.285 19.398v-0.003906c3.5391 2.3555 8.3086 1.4805 10.773-1.9844 2.4648-3.4609 1.7383-8.2539-1.6406-10.828l-22.832-16.234 22.844-16.23h0.003906c1.7031-1.2109 2.8516-3.0508 3.1992-5.1133 0.34375-2.0625-0.14453-4.1758-1.3594-5.8789zm32.449-39.266h-141.45c-8.3828 0.011718-16.418 3.3438-22.344 9.2695-5.9258 5.9297-9.2617 13.965-9.2695 22.348v62.723c0.007812 8.3828 3.3438 16.418 9.2695 22.344 5.9258 5.9297 13.961 9.2617 22.344 9.2695h38.387c6.2578 0.015626 12.262 2.5 16.703 6.9141l29.254 29.297c3.0703 3.0742 8.0547 3.0742 11.129 0l29.27-29.27v0.003906c4.4336-4.4258 10.438-6.918 16.703-6.9453 8.3828-0.007812 16.418-3.3398 22.344-9.2695 5.9297-5.9258 9.2617-13.961 9.2695-22.344v-62.723c-0.007813-8.3828-3.3398-16.418-9.2695-22.348-5.9258-5.9258-13.961-9.2578-22.344-9.2695zm15.871 94.34c-0.003906 4.207-1.6797 8.2422-4.6523 11.219-2.9766 2.9727-7.0117 4.6484-11.219 4.6523-10.445-0.035156-20.469 4.1172-27.836 11.523l-23.711 23.711-23.695-23.711c-7.3633-7.4062-17.387-11.559-27.832-11.523h-38.371c-4.207-0.003906-8.2422-1.6797-11.215-4.6523-2.9766-2.9766-4.6484-7.0117-4.6523-11.219v-62.723c0.003907-4.2109 1.6758-8.2422 4.6523-11.219 2.9727-2.9766 7.0078-4.6484 11.215-4.6523h141.45c4.207 0.003907 8.2422 1.6758 11.219 4.6523 2.9727 2.9766 4.6484 7.0078 4.6523 11.219zm-39.359 252.03h-15.742v-13.648h-0.003906c14.902-11.82 23.598-29.789 23.617-48.809v-16.957c-0.015625-12.336-4.9258-24.164-13.648-32.891-8.7266-8.7227-20.555-13.633-32.891-13.648h-17.129c-12.34 0.015625-24.168 4.9258-32.891 13.648-8.7266 8.7266-13.633 20.555-13.652 32.891v16.926c0.019531 19.02 8.7148 36.988 23.617 48.805v13.684h-15.742c-14.617 0-28.633 5.8047-38.965 16.141-10.336 10.332-16.141 24.348-16.141 38.965v62.977c0 6.2617 2.4883 12.27 6.918 16.695 4.4297 4.4297 10.434 6.918 16.699 6.918h157.44c6.2617 0 12.27-2.4883 16.695-6.918 4.4297-4.4258 6.918-10.434 6.918-16.695v-62.977c0-14.617-5.8047-28.633-16.141-38.965-10.332-10.336-24.348-16.141-38.961-16.141zm-86.594-62.488v-16.926c0.011719-8.1641 3.2617-15.988 9.0352-21.762 5.7695-5.7734 13.598-9.0195 21.762-9.0312h17.129c8.1641 0.011719 15.988 3.2578 21.762 9.0312 5.7734 5.7734 9.0195 13.598 9.0312 21.762v16.926c0.015625 9.1562-2.6641 18.117-7.7031 25.766-5.0391 7.6484-12.215 13.645-20.637 17.246-6.9922 2.9844-14.902 2.9844-21.898 0-8.4453-3.5781-15.652-9.5664-20.715-17.219-5.0664-7.6484-7.7656-16.617-7.7656-25.793zm55.105 57.938v4.5508c0 5.625-3.0039 10.82-7.875 13.633s-10.871 2.8125-15.742 0c-4.8711-2.8125-7.8711-8.0078-7.8711-13.633v-4.5508c10.098 4.082 21.387 4.082 31.488 0zm70.848 122.63c0 2.0859-0.83203 4.0898-2.3047 5.5664-1.4766 1.4727-3.4805 2.3047-5.5664 2.3047h-23.617v-39.359c0-4.3477-3.5234-7.875-7.8711-7.875-4.3477 0-7.875 3.5273-7.875 7.875v39.359h-78.719v-39.359c0-4.3477-3.5234-7.875-7.8711-7.875-4.3477 0-7.875 3.5273-7.875 7.875v39.359h-23.613c-4.3477 0-7.8711-3.5234-7.8711-7.8711v-62.977c0-10.441 4.1445-20.453 11.527-27.832 7.3789-7.3828 17.391-11.531 27.832-11.531h20.121c3.6523 6.4062 9.457 11.309 16.379 13.844 6.9258 2.5312 14.523 2.5312 21.445 0 6.9258-2.5352 12.727-7.4375 16.383-13.844h20.137c10.438 0 20.449 4.1484 27.832 11.531 7.3789 7.3789 11.527 17.391 11.527 27.832zm-315.01-464.45h-141.45c-8.3828 0.011718-16.418 3.3438-22.344 9.2695-5.9297 5.9297-9.2617 13.965-9.2695 22.348v62.723c0.007812 8.3828 3.3398 16.418 9.2695 22.344 5.9258 5.9297 13.961 9.2617 22.344 9.2695 6.2617 0.015626 12.262 2.5 16.707 6.9141l29.266 29.297c3.0742 3.0742 8.0586 3.0742 11.133 0l29.266-29.297c4.4414-4.4141 10.445-6.8984 16.707-6.9141h38.383c8.3789-0.011718 16.41-3.3477 22.336-9.2734 5.9219-5.9258 9.2539-13.961 9.2617-22.34v-62.723c-0.007813-8.3828-3.3398-16.418-9.2695-22.348-5.9258-5.9258-13.961-9.2578-22.344-9.2695zm15.871 94.34c-0.003907 4.207-1.6797 8.2422-4.6523 11.219-2.9766 2.9727-7.0117 4.6484-11.219 4.6523h-38.367c-10.445-0.035156-20.473 4.1172-27.836 11.523l-23.711 23.711-23.711-23.711c-7.3594-7.4023-17.379-11.555-27.82-11.523-4.207-0.003906-8.2422-1.6797-11.215-4.6523-2.9766-2.9766-4.6484-7.0117-4.6562-11.219v-62.723c0.007812-4.2109 1.6797-8.2422 4.6562-11.219 2.9727-2.9766 7.0078-4.6484 11.215-4.6523h141.45c4.207 0.003907 8.2422 1.6758 11.219 4.6523 2.9727 2.9766 4.6484 7.0078 4.6523 11.219zm-53.152-53.641-49.059 34.875-16.832-16.816c-3.0859-2.9844-7.9961-2.9414-11.035 0.097656-3.0352 3.0352-3.0781 7.9453-0.09375 11.035l21.535 21.535c2.7188 2.7266 7.0078 3.0859 10.141 0.85156l54.41-38.746c3.3828-2.5742 4.1094-7.3711 1.6445-10.832-2.4688-3.4609-7.2383-4.3398-10.773-1.9844zm13.793 305.67h-15.742v-13.648h-0.003906c14.902-11.82 23.598-29.789 23.617-48.809v-16.957c-0.019531-12.336-4.9258-24.164-13.652-32.891-8.7227-8.7227-20.551-13.633-32.887-13.648h-17.129c-12.34 0.015625-24.168 4.9258-32.891 13.648-8.7266 8.7266-13.633 20.555-13.652 32.891v16.926c0.019531 19.02 8.7148 36.988 23.617 48.805v13.684h-15.742c-14.617 0-28.633 5.8047-38.965 16.141-10.336 10.332-16.141 24.348-16.141 38.965v62.977c0 6.2617 2.4883 12.27 6.918 16.695 4.4297 4.4297 10.434 6.918 16.699 6.918h157.44-0.003906c6.2656 0 12.273-2.4883 16.699-6.918 4.4297-4.4258 6.918-10.434 6.918-16.695v-62.977c0-14.617-5.8047-28.633-16.141-38.965-10.332-10.336-24.348-16.141-38.961-16.141zm-86.594-62.488v-16.926c0.011719-8.1641 3.2617-15.988 9.0312-21.762 5.7734-5.7734 13.602-9.0195 21.766-9.0312h17.129c8.1641 0.011719 15.988 3.2578 21.762 9.0312 5.7695 5.7734 9.0195 13.598 9.0312 21.762v16.926c0.015626 9.1562-2.6641 18.117-7.7031 25.766-5.0391 7.6484-12.215 13.645-20.637 17.246-6.9922 2.9844-14.902 2.9844-21.898 0-8.4453-3.5781-15.652-9.5664-20.715-17.219-5.0664-7.6484-7.7656-16.617-7.7656-25.793zm55.105 57.938v4.5508c0 5.625-3.0039 10.82-7.875 13.633-4.8711 2.8125-10.871 2.8125-15.742 0s-7.8711-8.0078-7.8711-13.633v-4.5508c10.098 4.082 21.387 4.082 31.488 0zm70.848 122.63c0 2.0859-0.83203 4.0898-2.3086 5.5664-1.4727 1.4727-3.4766 2.3047-5.5664 2.3047h-23.613v-39.359c0-4.3477-3.5234-7.875-7.8711-7.875-4.3477 0-7.875 3.5273-7.875 7.875v39.359h-78.719v-39.359c0-4.3477-3.5234-7.875-7.8711-7.875-4.3477 0-7.875 3.5273-7.875 7.875v39.359h-23.613c-4.3477 0-7.875-3.5234-7.875-7.8711v-62.977c0-10.441 4.1484-20.453 11.531-27.832 7.3789-7.3828 17.391-11.531 27.832-11.531h20.121c3.6523 6.4062 9.457 11.309 16.379 13.844 6.9258 2.5312 14.523 2.5312 21.445 0 6.9258-2.5352 12.727-7.4375 16.383-13.844h20.137c10.438 0 20.449 4.1484 27.828 11.531 7.3828 7.3789 11.531 17.391 11.531 27.832z"/>
 </g>
</svg>