<?xml version="1.0" encoding="UTF-8"?>
<!-- The Best Svg Icon site in the world: iconSvg.co, Visit us! https://iconsvg.co -->
<svg fill="#000000" width="800px" height="800px" version="1.1" viewBox="144 144 512 512" xmlns="http://www.w3.org/2000/svg">
 <g>
  <path d="m557.44 549.57c-4.3477 0-7.8711 3.5234-7.8711 7.8711v36.684c0 14.5-11.793 26.293-26.289 26.293h-246.55c-14.5 0-26.293-11.793-26.293-26.289v-36.688c0-4.3477-3.5234-7.8711-7.8711-7.8711s-7.8711 3.5234-7.8711 7.8711v36.684c0 23.18 18.855 42.039 42.035 42.039h246.55c23.176 0 42.035-18.859 42.035-42.035v-36.688c0-4.3477-3.5273-7.8711-7.875-7.8711z"/>
  <path d="m604.67 423.61h-354.24v-217.74c0-14.5 11.793-26.293 26.293-26.293h246.55c14.496 0 26.289 11.793 26.289 26.293v186.25c0 4.3477 3.5234 7.8711 7.8711 7.8711s7.8711-3.5234 7.8711-7.8711l0.003906-186.25c0-23.18-18.859-42.039-42.035-42.039h-246.55c-23.18 0-42.035 18.859-42.035 42.039v217.74h-39.363c-4.3477 0-7.8711 3.5234-7.8711 7.8711v94.465c0 4.3477 3.5234 7.8711 7.8711 7.8711h409.34c4.3477 0 7.8711-3.5234 7.8711-7.8711l0.003907-94.461c0-4.3477-3.5234-7.875-7.8711-7.875zm-7.8711 94.465h-393.6v-78.719h393.6z"/>
  <path d="m372.73 494.46c1.4609 2.5234 4.1055 3.9375 6.8281 3.9375 1.332 0 2.6875-0.33984 3.9297-1.0547l8.6406-4.9883v9.9805c0 4.3477 3.5234 7.8711 7.8711 7.8711s7.8711-3.5234 7.8711-7.8711v-9.9805l8.6445 4.9922c1.2461 0.71484 2.5977 1.0508 3.9336 1.0508 2.7227 0 5.3672-1.4102 6.8281-3.9375 2.1719-3.7656 0.88281-8.5781-2.8828-10.754l-8.6445-4.9883 8.6406-4.9883c3.7656-2.1758 5.0547-6.9883 2.8828-10.754-2.1797-3.7656-6.9883-5.0547-10.754-2.8828l-8.6445 4.9883v-9.9805c0-4.3477-3.5234-7.8711-7.8711-7.8711s-7.8711 3.5234-7.8711 7.8711v9.9805l-8.6445-4.9922c-3.7891-2.168-8.5859-0.88281-10.758 2.8867-2.1719 3.7656-0.88281 8.5781 2.8828 10.754l8.6406 4.9883-8.6406 4.9883c-3.7656 2.1758-5.0547 6.9883-2.8828 10.754z"/>
  <path d="m234.2 462.98c-2.1719 3.7656-0.88281 8.5781 2.8828 10.754l8.6406 4.9883-8.6406 4.9883c-3.7695 2.1758-5.0547 6.9883-2.8828 10.754 1.4609 2.5234 4.1055 3.9375 6.8281 3.9375 1.332 0 2.6875-0.33984 3.9297-1.0547l8.6445-4.9922-0.003906 9.9844c0 4.3477 3.5234 7.8711 7.8711 7.8711s7.8711-3.5234 7.8711-7.8711v-9.9805l8.6445 4.9883c1.2422 0.71875 2.5977 1.0547 3.9297 1.0547 2.7227 0 5.3672-1.4102 6.8281-3.9375 2.1719-3.7656 0.88281-8.5781-2.8828-10.754l-8.6445-4.9883 8.6445-4.9883c3.7656-2.1758 5.0547-6.9883 2.8828-10.754-2.1836-3.7656-6.9844-5.0547-10.754-2.8828l-8.6445 4.9922-0.003906-9.9844c0-4.3477-3.5234-7.8711-7.8711-7.8711s-7.8711 3.5234-7.8711 7.8711v9.9805l-8.6445-4.9922c-3.7812-2.168-8.5781-0.88281-10.754 2.8867z"/>
  <path d="m501.84 494.46c1.4609 2.5234 4.1055 3.9375 6.8281 3.9375 1.332 0 2.6875-0.33984 3.9297-1.0547l8.6445-4.9922-0.003906 9.9844c0 4.3477 3.5234 7.8711 7.8711 7.8711 4.3477 0 7.8711-3.5234 7.8711-7.8711v-9.9805l8.6484 4.9883c1.2383 0.71875 2.5938 1.0547 3.9258 1.0547 2.7227 0 5.3672-1.4102 6.8281-3.9375 2.1719-3.7656 0.88281-8.5781-2.8828-10.754l-8.6445-4.9883 8.6445-4.9883c3.7656-2.1758 5.0547-6.9883 2.8828-10.754-2.1797-3.7695-6.9922-5.0547-10.754-2.8828l-8.6445 4.9922v-9.9844c0-4.3477-3.5234-7.8711-7.8711-7.8711-4.3477 0-7.8711 3.5234-7.8711 7.8711v9.9805l-8.6445-4.9922c-3.7812-2.168-8.582-0.88281-10.758 2.8867-2.1719 3.7656-0.88281 8.5781 2.8828 10.754l8.6406 4.9883-8.6406 4.9883c-3.7695 2.1758-5.0547 6.9883-2.8828 10.754z"/>
  <path d="m407.87 258.3c4.3477 0 7.8711-3.5234 7.8711-7.8711 0-4.3477-3.5234-7.8711-7.8711-7.8711h-31.488c-4.3477 0-7.8711 3.5234-7.8711 7.8711v149.57c0 4.3477 3.5234 7.8711 7.8711 7.8711h47.23c4.3477 0 7.8711-3.5234 7.8711-7.8711l0.003906-125.95c0-4.3477-3.5234-7.8711-7.8711-7.8711-4.3477 0-7.8711 3.5234-7.8711 7.8711v118.08h-31.488l-0.003906-133.83z"/>
  <path d="m470.85 218.94c-4.3477 0-7.8711 3.5234-7.8711 7.8711v173.18c0 4.3477 3.5234 7.8711 7.8711 7.8711h47.23c4.3477 0 7.8711-3.5234 7.8711-7.8711v-196.8c0-4.3477-3.5234-7.8711-7.8711-7.8711h-31.488c-4.3477 0-7.8711 3.5234-7.8711 7.8711 0 4.3477 3.5234 7.8711 7.8711 7.8711h23.617v181.05h-31.488v-165.31c0-4.3477-3.5234-7.8711-7.8711-7.8711z"/>
  <path d="m400 581.05c-4.3398 0-7.8711-3.5312-7.8711-7.8711 0-4.3477-3.5234-7.8711-7.8711-7.8711-4.3477 0-7.8711 3.5234-7.8711 7.8711 0 13.023 10.594 23.617 23.617 23.617 13.023 0 23.617-10.594 23.617-23.617 0-13.023-10.594-23.617-23.617-23.617-4.3477 0-7.8711 3.5234-7.8711 7.8711s3.5234 7.8711 7.8711 7.8711c4.3398 0 7.8711 3.5312 7.8711 7.8711-0.003906 4.3438-3.5352 7.875-7.875 7.875z"/>
  <path d="m305.54 392.12c-4.3477 0-7.8711 3.5234-7.8711 7.8711s3.5234 7.8711 7.8711 7.8711h23.617c4.3477 0 7.8711-3.5234 7.8711-7.8711v-102.33c0-4.3477-3.5234-7.8711-7.8711-7.8711h-47.23c-4.3477 0-7.8711 3.5234-7.8711 7.8711v87.062c0 4.3477 3.5234 7.8711 7.8711 7.8711s7.8711-3.5234 7.8711-7.8711l-0.003907-79.191h31.488v86.594z"/>
 </g>
</svg>