<?xml version="1.0" encoding="UTF-8"?>
<!-- The Best Svg Icon site in the world: iconSvg.co, Visit us! https://iconsvg.co -->
<svg fill="#000000" width="800px" height="800px" version="1.1" viewBox="144 144 512 512" xmlns="http://www.w3.org/2000/svg">
 <g>
  <path d="m555.99 241.97c-0.1875-0.25391-0.74609-0.66797-1.6641-1.2383-0.92188-0.57031-2.0938-1.1914-3.5234-1.8555-1.4297-0.66797-3.0156-1.3008-4.7617-1.9062-1.7461-0.60156-3.5078-1.0312-5.2852-1.2852v12.949l3.0508 0.76172c3.2344 0.88672 6.1562 1.8555 8.7578 2.9023 2.6055 1.0469 4.8086 2.3516 6.6172 3.9062 1.8125 1.5586 3.207 3.4453 4.1914 5.6641 0.98438 2.2227 1.4766 4.8867 1.4766 7.9961 0 3.6211-0.63672 6.6992-1.9062 9.2383-1.2695 2.5391-2.9648 4.6172-5.0938 6.2383-2.125 1.6172-4.5703 2.8438-7.332 3.6641-2.7617 0.82422-5.668 1.3008-8.7109 1.4297v11.047h-6.5703v-11.141c-4.3789-0.37891-8.7109-1.2695-12.996-2.6641-4.2852-1.3945-8.1406-3.2383-11.57-5.5234l6.8555-13.617c0.25391 0.31641 0.9375 0.83984 2.0469 1.5703 1.1133 0.73047 2.5234 1.4922 4.2383 2.2852 1.7148 0.79688 3.6523 1.5586 5.8086 2.2852 2.1562 0.73047 4.3789 1.2539 6.668 1.5703v-12.664l-4.5703-1.332c-3.1094-0.95312-5.8086-1.9844-8.0938-3.0938s-4.1758-2.3945-5.668-3.8555c-1.4922-1.4609-2.6055-3.1406-3.332-5.0469-0.73047-1.9062-1.0938-4.125-1.0938-6.6641 0-3.3008 0.57031-6.2383 1.7148-8.8086 1.1406-2.5703 2.6797-4.7734 4.6172-6.6172 1.9336-1.8398 4.2188-3.2852 6.8594-4.332 2.6328-1.0469 5.4727-1.7305 8.5195-2.0469v-9.6172h6.5703v9.6172c4.1211 0.37891 7.9961 1.3008 11.617 2.7617 3.6172 1.4609 6.7617 2.9531 9.4258 4.4766zm-26.375-0.85938c0 1.5859 0.55469 2.8438 1.6641 3.7617 1.1094 0.92188 2.7773 1.7305 5 2.4297l0.003906-11.715c-4.4453 0.38281-6.668 2.2227-6.668 5.5234zm18.473 30.281c0-1.6484-0.66797-2.9336-2-3.8555-1.332-0.92187-3.1094-1.7617-5.332-2.5234v11.426c4.8906-0.1875 7.332-1.8711 7.332-5.0469z"/>
  <path d="m265.6 528.38c-0.16406-0.21875-0.64062-0.57031-1.4297-1.0625-0.78906-0.48828-1.7969-1.0195-3.0195-1.5898-1.2227-0.57031-2.5859-1.1133-4.082-1.6328-1.4961-0.51562-3.0078-0.88281-4.5312-1.1016v11.098l2.6133 0.65234c2.7734 0.76172 5.2773 1.5898 7.5078 2.4883 2.2305 0.89844 4.1211 2.0117 5.6719 3.3438 1.5508 1.332 2.7461 2.9531 3.5898 4.8555 0.84375 1.9062 1.2656 4.1914 1.2656 6.8555 0 3.1016-0.54688 5.7422-1.6328 7.918-1.0859 2.1758-2.543 3.957-4.3672 5.3477-1.8242 1.3867-3.918 2.4375-6.2852 3.1406-2.3672 0.70703-4.8555 1.1172-7.4688 1.2227v9.4688h-5.6328v-9.5469c-3.7539-0.32812-7.4688-1.0859-11.141-2.2852s-6.9805-2.7734-9.918-4.7344l5.875-11.672c0.21875 0.27344 0.80469 0.72266 1.7539 1.3438 0.95312 0.625 2.1641 1.2812 3.6328 1.9609 1.4688 0.67969 3.1289 1.332 4.9805 1.957 1.8477 0.625 3.7539 1.0742 5.7148 1.3477v-10.855l-3.918-1.1406c-2.668-0.81641-4.9805-1.7031-6.9375-2.6523-1.9609-0.95312-3.5781-2.0508-4.8555-3.3047-1.2773-1.25-2.2305-2.6914-2.8555-4.3242-0.625-1.6328-0.9375-3.5391-0.9375-5.7148 0-2.8281 0.48828-5.3477 1.4688-7.5508 0.98047-2.2031 2.2969-4.0938 3.957-5.6719 1.6562-1.5781 3.6172-2.8164 5.875-3.7109 2.2578-0.89844 4.6914-1.4844 7.3047-1.7539l0.007813-8.2422h5.6328v8.2422c3.5352 0.32813 6.8555 1.1172 9.957 2.3672 3.1016 1.25 5.793 2.5273 8.082 3.8359zm-22.605-0.73828c0 1.3594 0.47656 2.4375 1.4297 3.2227 0.95312 0.78906 2.3789 1.4844 4.2852 2.082v-10.039c-3.8125 0.32812-5.7148 1.9062-5.7148 4.7344zm15.832 25.957c0-1.4141-0.57031-2.5156-1.7148-3.3047-1.1445-0.78906-2.668-1.5078-4.5703-2.1602v9.793c4.1914-0.16797 6.2852-1.6094 6.2852-4.3281z"/>
  <path d="m597.78 414.27h-403.44c-2.1719 0-3.9375-1.7617-3.9375-3.9375 0-2.1719 1.7617-3.9375 3.9375-3.9375h403.44c2.1719 0 3.9375 1.7617 3.9375 3.9375-0.003906 2.1758-1.7656 3.9375-3.9414 3.9375z"/>
  <path d="m301.41 513.19c-1.2891 0-2.5234-0.63672-3.2656-1.7383-10.273-15.258-27.375-24.371-45.742-24.371-13.121 0-25.84 4.7031-35.812 13.242-0.92969 0.79688-2.1758 1.1133-3.375 0.86328-1.1953-0.25391-2.2109-1.0469-2.7383-2.1523-13.316-27.812-20.066-57.656-20.066-88.703 0-30.945 6.7109-60.703 19.945-88.441 0.59375-1.2461 1.7969-2.0898 3.168-2.2227 1.3711-0.13672 2.7148 0.45703 3.5391 1.5664 9.582 12.848 24.254 20.215 40.258 20.215 20.086 0 38.191-11.93 46.125-30.391 0.73828-1.7188 2.582-2.6797 4.4141-2.3008 0.60156 0.125 1.2031 0.25 1.8047 0.37109 1.0664 0.21484 2 0.86328 2.5703 1.7891 0.57031 0.92969 0.73438 2.0508 0.44922 3.1016-7.9805 29.305-12.199 62.605-12.199 96.309 0 33.695 4.2188 66.996 12.199 96.309 0.28516 1.0508 0.125 2.1719-0.44922 3.1016-0.57031 0.92578-1.5039 1.5781-2.5703 1.793-2.5469 0.51562-5.0391 1.043-7.4062 1.5703-0.28125 0.058594-0.56641 0.089844-0.84766 0.089844zm-49.008-33.98c20.09 0 38.852 9.5352 50.719 25.645 0.29687-0.0625 0.59766-0.12891 0.89844-0.19141-7.4688-28.973-11.406-61.484-11.406-94.332 0-27.742 2.8086-55.238 8.1797-80.566-10.832 12.234-26.543 19.559-43.473 19.559-16.082 0-31.52-6.7969-42.43-18.441-11.023 25.062-16.609 51.758-16.609 79.449 0 28.207 5.793 55.375 17.223 80.836 10.699-7.7422 23.617-11.957 36.898-11.957z"/>
  <path d="m554.46 539.18c-0.85156 0-1.7148-0.27734-2.4336-0.84766-1.707-1.3477-2-3.8203-0.65234-5.5273 0.12109-0.15625 0.24609-0.3125 0.36719-0.46875-21.672-8.8906-44.953-15.887-69.281-20.805-1.0664-0.21484-1.9961-0.86328-2.5703-1.793-0.57031-0.92578-0.73438-2.0508-0.44922-3.1016 7.9805-29.305 12.199-62.609 12.199-96.309 0-33.695-4.2188-67-12.199-96.309-0.28516-1.0508-0.125-2.1719 0.44922-3.1016 0.57031-0.92578 1.5-1.5742 2.5703-1.793 3.7305-0.75391 7.5273-1.5781 11.285-2.4492 1.1758-0.27344 2.4141 0.011719 3.3555 0.76562 11.645 9.3789 25.703 14.332 40.656 14.332 12.121 0 23.957-3.375 34.223-9.7539 0.92578-0.57422 2.043-0.74219 3.0938-0.46094s1.9414 0.98437 2.4531 1.9453c15.828 29.598 24.191 63.078 24.191 96.832 0 44.594-14.039 87.02-40.602 122.7 0 0 0 0.003906-0.003907 0.003906-0.14062 0.1875-0.28125 0.37891-0.42578 0.56641-0.46875 0.625-0.94141 1.2461-1.4141 1.8633-0.007813 0.011718-0.019532 0.023437-0.027344 0.035156-0.55859 0.72656-1.1211 1.4492-1.6914 2.1719-0.003907 0.003906-0.007813 0.007812-0.007813 0.011719v0.003906c-0.77344 0.97656-1.9219 1.4922-3.0859 1.4922zm-66.352-34.516c24.047 5.1094 47.059 12.223 68.52 21.176 24.359-33.781 37.219-73.648 37.219-115.5 0-31.09-7.3789-61.945-21.371-89.496-10.629 5.7734-22.543 8.8086-34.715 8.8086-15.883 0-31.457-5.2656-44.074-14.871-1.8555 0.42187-3.7188 0.83203-5.5742 1.2266 7.4688 28.973 11.406 61.484 11.406 94.332-0.003906 32.848-3.9453 65.359-11.41 94.328z"/>
  <path d="m308.89 316.93c-0.26172 0-0.52344-0.027343-0.78906-0.078125h-0.003906c-0.003906 0-0.007812-0.003906-0.011718-0.003906l-1.8281-0.375c-1.1562-0.23828-2.1445-0.98828-2.6914-2.0352-0.54688-1.0508-0.59375-2.2852-0.125-3.375 2.6953-6.2656 4.0625-12.926 4.0625-19.793 0-18.59-10.211-35.574-26.645-44.32-1.2188-0.64844-2.0078-1.8867-2.082-3.2656-0.074219-1.3789 0.57812-2.6914 1.7188-3.4688l0.46875-0.32422c0.22266-0.15625 0.44922-0.3125 0.67578-0.46484l0.98047-0.64453c1.2109-0.80078 2.4258-1.5938 3.6523-2.3711 0.35547-0.22656 0.71484-0.44922 1.0742-0.67188l0.30078-0.1875c25.574-15.898 54.91-26.109 84.844-29.527 8.0898-0.92188 16.27-1.1836 23.301-1.3516 2.125-0.035157 3.9336 1.6211 4.0273 3.7656 0.09375 2.1406-1.543 3.9648-3.6836 4.1016-16.152 1.0195-30.133 7.918-42.742 21.078-8.6367 9.0156-16.254 20.156-23.285 34.055-3.4492 6.8203-6.6836 14.23-9.6094 22.027-0.75391 2.0078-7.0547 21.387-7.7266 23.902-0.007813 0.058594-0.019532 0.11328-0.03125 0.17188-0.37891 1.8711-2.0195 3.1562-3.8516 3.1562zm-18.82-73.598c13.406 9.1523 22.32 23.434 24.68 39.41 2.5898-6.5352 5.3867-12.781 8.3398-18.617 7.3867-14.602 15.441-26.363 24.625-35.945 4.9258-5.1445 10.059-9.4297 15.43-12.875-25.199 4.2539-49.668 13.477-71.332 26.941l-0.30469 0.1875c-0.33984 0.21094-0.67969 0.42187-1.0156 0.63672-0.14453 0.085938-0.28516 0.17188-0.42188 0.26172z"/>
  <path d="m483.23 316.93c-1.7422 0-3.3203-1.1602-3.793-2.9023-17.047-62.594-48.996-101.48-83.379-101.48-2.1719 0-3.9375-1.7617-3.9375-3.9375 0-2.1719 1.7617-3.9375 3.9375-3.9375 28.344 0 56.695 5.8867 81.992 17.027 0.96875 0.42578 1.7227 1.2227 2.0977 2.2148 0.37109 0.98828 0.33203 2.0898-0.11328 3.0469-4.8633 10.469-7.2227 20.238-7.2227 29.863 0 19.758 8.8516 38.211 24.285 50.621 1.1758 0.94531 1.707 2.4766 1.3711 3.9453-0.33594 1.4688-1.4805 2.6172-2.9453 2.957-3.8008 0.88281-7.668 1.7227-11.5 2.4961-0.26953 0.058594-0.53125 0.082031-0.79297 0.082031zm2.6797-8.9805c0.042969 0.14844 0.085938 0.29688 0.125 0.44531 0.085938-0.019531 0.17578-0.035156 0.26172-0.054687-0.12891-0.13281-0.25781-0.26172-0.38672-0.39063zm-56.672-92.613c7.4023 4.9141 14.512 11.484 21.18 19.641 5.1602 6.3086 10.02 13.512 14.523 21.488 0.050782-9.5117 2.125-19.07 6.3164-29.102-13.34-5.5352-27.504-9.5781-42.02-12.027z"/>
  <path d="m396.06 615.99c-2.1719 0-3.9375-1.7617-3.9375-3.9375 0-2.1719 1.7617-3.9375 3.9375-3.9375 34.383 0 66.332-38.883 83.379-101.48 0.54297-2 2.543-3.2344 4.5781-2.8242 26.613 5.3828 52.012 13.199 75.492 23.242 1.1094 0.47266 1.9414 1.4297 2.2539 2.5938 0.3125 1.1641 0.078125 2.4062-0.64453 3.375-4.4805 6.0156-9.3828 11.871-14.57 17.395-37.16 39.582-89.191 63.422-142.75 65.406l-0.63281 0.023437c-0.41016 0.019532-0.82031 0.035156-1.2344 0.046875-2.1094 0.0625-4.0273 0.09375-5.8672 0.09375zm89.98-103.72c-8.5742 30.035-20.855 55.363-35.621 73.418-6.625 8.0977-13.68 14.637-21.027 19.539 42.102-7.3477 81.699-28.539 111.42-60.195 3.8242-4.0703 7.4844-8.3281 10.926-12.699-20.605-8.4531-42.664-15.191-65.695-20.062z"/>
  <path d="m396.06 325.51c-29.934 0-59.523-2.9141-87.957-8.6641-1.0664-0.21484-2-0.86328-2.5703-1.793-0.57031-0.92578-0.73438-2.0508-0.44922-3.1016 8.6055-31.598 21.266-58.219 36.613-76.984 16.219-19.812 35.016-30.289 54.363-30.289s38.145 10.477 54.359 30.297c15.348 18.762 28.008 45.383 36.613 76.984 0.28516 1.0508 0.125 2.1719-0.44922 3.1016-0.57031 0.92578-1.5 1.5742-2.5703 1.793-28.43 5.7422-58.02 8.6562-87.953 8.6562zm-82.238-15.559c26.641 5.1016 54.285 7.6875 82.238 7.6875s55.598-2.5859 82.238-7.6875c-17.305-60.203-48.605-97.402-82.238-97.402s-64.934 37.199-82.238 97.402z"/>
  <path d="m396.06 615.99c-19.348 0-38.145-10.477-54.359-30.297-15.348-18.762-28.008-45.383-36.613-76.984-0.28516-1.0508-0.125-2.1719 0.44922-3.1016 0.57031-0.92578 1.5039-1.5781 2.5703-1.793 28.43-5.7461 58.023-8.6641 87.957-8.6641s59.523 2.9141 87.957 8.6641c1.0664 0.21484 1.9961 0.86328 2.5703 1.793 0.57031 0.92578 0.73438 2.0508 0.44922 3.1016-8.6055 31.598-21.266 58.219-36.613 76.984-16.223 19.82-35.02 30.297-54.367 30.297zm-82.238-105.28c17.305 60.207 48.605 97.402 82.238 97.402s64.934-37.199 82.238-97.402c-26.641-5.1016-54.289-7.6875-82.238-7.6875-27.953 0-55.598 2.5859-82.238 7.6875z"/>
  <path d="m395.72 615.98h-0.003906-0.027344-0.003906c-32.441-0.03125-64.754-7.8438-93.441-22.594-0.003907-0.003907-0.085938-0.046875-0.089844-0.046875-1.5078-0.77344-3.0781-1.6094-4.7969-2.5508-0.29297-0.16016-0.58203-0.32422-0.875-0.48828l-0.38672-0.21875c-1.1992-0.66797-2.3984-1.3477-3.5898-2.043l-0.67969-0.39844c-1.0547-0.62109-1.7617-1.6953-1.9141-2.9102-0.15234-1.2148 0.27344-2.4297 1.1445-3.2891 10.609-10.449 16.449-24.387 16.449-39.254 0-11.008-3.2383-21.633-9.3633-30.73-0.72656-1.082-0.87109-2.4492-0.39062-3.6602 0.48438-1.2109 1.5312-2.1016 2.8047-2.3828 2.5117-0.55469 5.0508-1.0938 7.5508-1.6016 2.0312-0.41016 4.0352 0.82422 4.5781 2.8242 8.3047 30.492 33.016 101.41 83.016 101.47h0.03125 0.011719c2.1719 0 3.9375 1.7617 3.9375 3.9375 0 2.1719-1.7617 3.9375-3.9375 3.9375h-0.023438zm-95.621-32.684 0.25 0.14062c0.26562 0.14844 0.53125 0.30078 0.79688 0.44531 1.6562 0.91016 3.1641 1.7109 4.6172 2.457 0.027343 0.015625 0.14062 0.074218 0.16797 0.089844 17.219 8.8516 35.832 15.105 55.004 18.551-9.5977-6.5156-18.508-15.918-26.668-28.16-7.7891-11.691-14.031-24.695-18.941-37.125 0.03125 0.82813 0.046875 1.6602 0.046875 2.4922 0.003906 15.27-5.3867 29.684-15.273 41.109z"/>
  <path d="m483.24 511.61c-0.25781 0-0.51953-0.027344-0.78516-0.078125-27.918-5.6445-56.988-8.5078-86.395-8.5078-29.41 0-58.477 2.8633-86.395 8.5078-2.0273 0.41016-4.0312-0.82422-4.5781-2.8242-8.1641-29.969-12.477-63.988-12.477-98.375 0-34.383 4.3164-68.402 12.477-98.375 0.54688-2 2.5469-3.2344 4.5781-2.8242 27.918 5.6445 56.988 8.5078 86.395 8.5078 29.41 0 58.477-2.8633 86.395-8.5078 2.0273-0.41016 4.0352 0.82422 4.5781 2.8242 8.1641 29.973 12.477 63.988 12.477 98.375s-4.3164 68.406-12.477 98.375c-0.47266 1.7383-2.0508 2.9023-3.793 2.9023zm-171.5-194.04c-7.3711 28.438-11.262 60.418-11.262 92.766 0 32.348 3.8867 64.332 11.262 92.766 27.316-5.2734 55.66-7.9453 84.32-7.9453s57.008 2.6719 84.32 7.9453c7.3711-28.434 11.258-60.418 11.258-92.766 0-32.348-3.8867-64.332-11.258-92.766-27.316 5.2734-55.66 7.9453-84.32 7.9453-28.66-0.003907-57.004-2.6719-84.32-7.9453z"/>
  <path d="m537.76 329.64c-40.152 0-72.816-32.664-72.816-72.816 0-40.152 32.664-72.816 72.816-72.816 40.152 0 72.816 32.664 72.816 72.816 0 40.152-32.664 72.816-72.816 72.816zm0-137.76c-35.812 0-64.945 29.133-64.945 64.945s29.133 64.945 64.945 64.945 64.945-29.133 64.945-64.945-29.133-64.945-64.945-64.945z"/>
  <path d="m252.4 605.16c-34.727 0-62.977-28.25-62.977-62.977s28.25-62.977 62.977-62.977c34.727 0 62.977 28.25 62.977 62.977s-28.25 62.977-62.977 62.977zm0-118.08c-30.383 0-55.105 24.719-55.105 55.105s24.719 55.105 55.105 55.105c30.383 0 55.105-24.719 55.105-55.105s-24.723-55.105-55.105-55.105z"/>
  <path d="m257.32 349.32c-32.012 0-58.055-26.043-58.055-58.055s26.043-58.055 58.055-58.055c32.012 0 58.055 26.043 58.055 58.055 0.003906 32.008-26.039 58.055-58.055 58.055zm0-108.24c-27.672 0-50.184 22.512-50.184 50.184s22.512 50.184 50.184 50.184 50.184-22.512 50.184-50.184c0.003906-27.672-22.512-50.184-50.184-50.184z"/>
 </g>
</svg>