<?xml version="1.0" encoding="UTF-8"?>
<!-- The Best Svg Icon site in the world: iconSvg.co, Visit us! https://iconsvg.co -->
<svg fill="#000000" width="800px" height="800px" version="1.1" viewBox="144 144 512 512" xmlns="http://www.w3.org/2000/svg">
 <g>
  <path d="m590.25 332.65-7.2656 10.91-12.105-12.105h-0.003906c-1.9531-1.957-4.793-2.7422-7.4766-2.0703l-31.488 7.8711c-0.875 0.21875-1.707 0.58594-2.457 1.0859l-22.316 14.879-37.863 7.5742c-1.0117 0.19922-1.9688 0.59375-2.8281 1.1641l-21.883 14.586-108.1 7.707c-0.57812 0.046875-1.1484 0.15234-1.7031 0.31641l-78.719 23.617v-0.003906c-0.74609 0.23047-1.457 0.5625-2.1094 0.99219l-47.23 31.488h-0.003906c-1.8047 1.207-3.0352 3.1094-3.3906 5.2539l-7.5977 45.57-30.551 45.836c-1.0469 1.5742-1.4961 3.4727-1.2578 5.3477l7.8086 62.488v23.129c0 2.0859 0.82812 4.0898 2.3047 5.5664 1.4766 1.4727 3.4766 2.3047 5.5664 2.3047h39.359c2.5312 0 4.9062-1.2148 6.3867-3.2695 1.4805-2.0508 1.8828-4.6914 1.0859-7.0898l-7.4727-22.406v-33.852l20.113-13.383v0.003906c0.74609-0.50781 1.3984-1.1445 1.9297-1.875l20.469-27.309 10.547 2.6367-5.7305 34.395c-0.37109 2.207 0.21484 4.4688 1.6133 6.2188l30.613 38.258 7.4219 22.285h0.003906c1.0703 3.2227 4.0898 5.3945 7.4844 5.3867h39.359c2.5312 0 4.9062-1.2148 6.3867-3.2695 1.4805-2.0508 1.8828-4.6914 1.0859-7.0898l-7.8711-23.617h-0.003907c-0.22656-0.66406-0.53516-1.2969-0.91797-1.8828l-28.395-42.594 14.305-19.066 23.281-4.6602 34.039 6.8086 28.938 57.867v13.887c-0.011719 1.2188 0.25781 2.4219 0.78906 3.5195l7.8711 15.742c1.3398 2.6836 4.0859 4.3711 7.0859 4.3555h31.488c2.5312 0 4.9062-1.2148 6.3867-3.2695 1.4805-2.0508 1.8828-4.6914 1.082-7.0898l-7.6758-23.035-7.2656-43.547 12.723-19.098 52.957-22.695h-0.003907c1.8281-0.78125 3.2891-2.2227 4.0938-4.0391l27.695-62.316 15.848 10.562v0.003907c2.6445 1.7656 6.0898 1.7656 8.7383 0l23.617-15.742-0.003907-0.003906c3.0859-2.0586 4.3125-5.9961 2.9453-9.4453l-15.184-37.957v-3.0547l17.32-3.4648h-0.003906c2.0469-0.40625 3.8477-1.6094 5.0078-3.3438l15.742-23.617-13.098-8.7383-13.949 20.898-11.02 2.207v-18.738c-0.003906-2.0859-0.83203-4.0898-2.3086-5.5625l-0.15625-0.15625 9.0117-13.523zm-252.49 275.52 4.0859 12.242h-22.766l-6.0781-18.23c-0.29297-0.88281-0.74219-1.707-1.3203-2.4336l-29.293-36.613 4.9453-29.684 28.82 7.2031-9.0469 12.059c-2.0039 2.6719-2.1055 6.3164-0.25391 9.0938zm257.23-171.82-13.934 9.3047-19.246-12.832c-1.9297-1.2891-4.332-1.6602-6.5625-1.0117-2.2305 0.64453-4.0586 2.2461-5.0039 4.3672l-30.23 68.023-52.27 22.402h0.003906c-1.4023 0.59766-2.6016 1.5938-3.4492 2.8633l-15.742 23.617c-1.1133 1.668-1.5469 3.6914-1.2148 5.668l7.8711 47.23c0.066406 0.40625 0.16406 0.80078 0.29297 1.1914l4.4258 13.238h-15.707l-4.8633-9.7305v-13.883c0.011719-1.2188-0.25781-2.4258-0.78906-3.5195l-31.488-62.977c-1.0898-2.1758-3.1211-3.7227-5.5078-4.1953l-39.359-7.8711-0.003906-0.003906c-1.0156-0.21094-2.0664-0.21094-3.082 0l-37.629 7.5195-61.285-15.312c-3.0742-0.76953-6.3086 0.37891-8.2109 2.9141l-22.828 30.41-22.477 14.996c-2.1875 1.4609-3.5 3.918-3.5 6.5508v39.359c0 0.84375 0.13281 1.6836 0.39844 2.4883l4.4258 13.254h-20.57v-15.742c0.003906-0.32812-0.015625-0.65234-0.0625-0.97656l-7.5039-60.07 29.859-44.793c0.62109-0.92578 1.0312-1.9727 1.2148-3.0703l7.3125-43.871 43.414-28.945 76.77-23.027 109.33-7.793c1.3633-0.097656 2.6758-0.55078 3.8125-1.3047l22.316-14.879 37.863-7.5898c1.0078-0.19922 1.9688-0.59375 2.8242-1.1641l22.484-14.957 25.836-6.4648 8.7539 8.7539-31.488 6.2969 3.0859 15.43 37.785-7.5586v31.312c0 1 0.19141 1.9961 0.55859 2.9258z"/>
  <path d="m580.08 177.78 25.262 8.418-114.39 57.188c-1.5273 0.76563-2.7656 2-3.5273 3.5273l-35.297 70.598-94.875-65.676c-1.8359-1.2734-4.125-1.7031-6.2969-1.1875s-4.0234 1.9258-5.0938 3.8867l-46.051 84.426-131.61 65.766 7.0391 14.09 133.82-66.914v0.003906c1.4375-0.72266 2.6172-1.8672 3.3906-3.2773l43.035-78.91 95.141 65.863 0.003906 0.003906c1.875 1.3008 4.2227 1.7227 6.4336 1.1562 2.2109-0.56641 4.0703-2.0664 5.0898-4.1094l38.18-76.359 112.05-55.992-8.4219 25.246 20.27-10.133 11.934-35.809-35.812-11.934z"/>
 </g>
</svg>