<?xml version="1.0" encoding="UTF-8"?>
<!-- The Best Svg Icon site in the world: iconSvg.co, Visit us! https://iconsvg.co -->
<svg fill="#000000" width="800px" height="800px" version="1.1" viewBox="144 144 512 512" xmlns="http://www.w3.org/2000/svg">
 <g>
  <path d="m596.53 281.72h-393.06c-6.1797 0.011719-12.105 2.4727-16.473 6.8398-4.3711 4.3711-6.8281 10.293-6.8398 16.473v83.402c0.011719 5.1562 1.7305 10.16 4.8867 14.238 3.1562 4.0742 7.5742 6.9922 12.562 8.2969l2.793 0.73438 82.211 21.344v-19.469c0-5.2617 2.0898-10.312 5.8086-14.039 3.7148-3.7266 8.7617-5.8242 14.023-5.8398h9.6641v-102.82h27.801v102.82h9.6641v-0.003906c5.2656 0.015625 10.309 2.1133 14.027 5.8398 3.7188 3.7266 5.8047 8.7773 5.8047 14.039v41.906l24.777 6.4141h0.003906c1.8984 0.49219 3.8516 0.73828 5.8164 0.73437 1.9922 0.003907 3.9766-0.24219 5.9062-0.73437l24.688-6.4141v-41.906c0.011719-5.2695 2.1094-10.316 5.832-14.043 3.7266-3.7266 8.7773-5.8242 14.047-5.8359h9.6641v-102.82h27.754v102.82l9.6641-0.003906c5.2695 0.011719 10.316 2.1094 14.043 5.8359 3.7266 3.7266 5.8242 8.7734 5.8359 14.043v19.418l78.777-20.383 3.3906-0.91797 2.8398-0.73437-0.003906 0.007812c4.9844-1.3086 9.3945-4.2266 12.543-8.3047 3.1484-4.0742 4.8594-9.0781 4.8633-14.23v-83.402c-0.003906-6.1836-2.457-12.113-6.832-16.484-4.3711-4.3711-10.301-6.8281-16.48-6.8281z"/>
  <path d="m330.81 290.86h-49.191c-2.5273 0-4.5781-2.0508-4.5781-4.5781v-15.258c0.015625-6.9336 5.6406-12.551 12.574-12.551h33.234c6.9336 0.011719 12.551 5.6289 12.559 12.562v15.258c-0.003906 1.2148-0.49219 2.3789-1.3516 3.2383-0.86328 0.85547-2.0312 1.332-3.2461 1.3281zm-44.609-9.1602h40.031l-0.003906-10.676c0-1.8789-1.5195-3.4023-3.3984-3.4023h-33.215c-1.875 0-3.3984 1.5234-3.3984 3.4023z"/>
  <path d="m518.42 290.86h-49.191c-2.5312 0-4.582-2.0508-4.582-4.5781v-15.258c0.015625-6.9297 5.6328-12.539 12.559-12.551h33.234c6.9336 0.011719 12.551 5.6289 12.559 12.562v15.258c-0.007813 2.5234-2.0547 4.5664-4.5781 4.5664zm-44.609-9.1602h40.031l-0.003906-10.676c0-1.8789-1.5195-3.4023-3.3984-3.4023h-33.234c-1.875 0-3.3984 1.5234-3.3984 3.4023z"/>
  <path d="m493.83 267.63c-2.5312 0-4.582-2.0508-4.582-4.5781v-23.902c-0.003906-5.5469-2.2109-10.863-6.1328-14.781-3.918-3.9219-9.2344-6.1289-14.777-6.1328h-10.859c-2.5312 0-4.582-2.0508-4.582-4.582 0-2.5273 2.0508-4.5781 4.582-4.5781h10.859c7.9727 0.007813 15.617 3.1797 21.254 8.8164s8.8086 13.281 8.8164 21.258v23.902c0 1.2148-0.48047 2.3789-1.3398 3.2383-0.85937 0.85938-2.0234 1.3398-3.2383 1.3398z"/>
  <path d="m306.2 267.63c-2.5312 0-4.582-2.0508-4.582-4.5781v-23.902c0.011718-7.9766 3.1797-15.621 8.8203-21.258 5.6367-5.6367 13.281-8.8086 21.254-8.8164h10.859c2.5312 0 4.582 2.0508 4.582 4.5781 0 2.5312-2.0508 4.582-4.582 4.582h-10.859c-5.543 0.003907-10.859 2.2109-14.781 6.1328-3.918 3.918-6.125 9.2344-6.1328 14.781v23.902c0 1.2148-0.48047 2.3789-1.3398 3.2383s-2.0234 1.3398-3.2383 1.3398z"/>
  <path d="m462.11 214.12c-0.007813 4.7578-1.9023 9.3203-5.2695 12.688-3.3633 3.3633-7.9258 5.2578-12.684 5.2656h-88.305c-4.7539-0.019531-9.3047-1.918-12.66-5.2812-3.3594-3.3633-5.2461-7.9219-5.25-12.672-0.003906-0.29297 0.011719-0.58203 0.046875-0.87109 0.18359-4.4688 2.0664-8.6953 5.2656-11.816 3.3398-3.3359 7.875-5.1992 12.598-5.1758h88.305c4.5859-0.035156 9.0078 1.707 12.344 4.8555 3.3398 3.1484 5.332 7.4609 5.5625 12.043 0.03125 0.32031 0.046875 0.64062 0.046875 0.96484z"/>
  <path d="m492.47 281.72h-36.914c-2.5273 0-4.5781 2.0508-4.5781 4.5781v107.4h9.1602v-102.82h27.754v102.82h9.1602v-107.41c0-1.2148-0.48438-2.3789-1.3398-3.2383-0.85938-0.85938-2.0273-1.3398-3.2422-1.3398z"/>
  <path d="m344.49 281.72h-36.961c-2.5312 0-4.582 2.0508-4.582 4.5781v107.4h9.1602v-102.82h27.801v102.82h9.1602v-107.41c0-1.2148-0.48047-2.3789-1.3398-3.2383-0.85937-0.85938-2.0234-1.3398-3.2383-1.3398z"/>
  <path d="m497.55 402.86h-47.082c-5.918 0.007813-10.711 4.8047-10.719 10.719v47.039c0.007813 5.9141 4.8008 10.707 10.719 10.715h47.082c5.9141-0.007812 10.711-4.8008 10.719-10.715v-47.039c-0.007813-5.9141-4.8047-10.711-10.719-10.719zm-18.754 38.816h-9.5273c-2.5312 0-4.582-2.0508-4.582-4.5781 0-2.5312 2.0508-4.582 4.582-4.582h9.5273c2.5273 0 4.5781 2.0508 4.5781 4.582 0 2.5273-2.0508 4.5781-4.5781 4.5781z"/>
  <path d="m349.57 402.86h-47.129c-5.8984 0.03125-10.668 4.8203-10.672 10.719v47.039c0.003907 5.8984 4.7734 10.688 10.672 10.715h47.129c2.8398-0.003906 5.5586-1.1367 7.5586-3.1445 2-2.0117 3.1211-4.7344 3.1133-7.5703v-47.039c0.007812-2.8359-1.1133-5.5586-3.1133-7.5703-2-2.0078-4.7188-3.1406-7.5586-3.1484zm-18.777 38.816h-9.5273c-2.5273 0-4.5781-2.0508-4.5781-4.5781 0-2.5312 2.0508-4.582 4.5781-4.582h9.5273c2.5312 0 4.582 2.0508 4.582 4.582 0 2.5273-2.0508 4.5781-4.582 4.5781z"/>
  <path d="m598.59 421.46-81.16 20.977v18.184h0.003906c-0.011719 5.2656-2.1094 10.316-5.8359 14.043-3.7266 3.7266-8.7734 5.8242-14.043 5.832h-47.082c-4.5391-0.011719-8.9336-1.5703-12.465-4.418-3.5312-2.8477-5.9844-6.8125-6.957-11.246l-22.855 5.9531v0.003906c-2.6797 0.67578-5.4336 1.0117-8.1953 1.0078-2.7344 0.011719-5.4609-0.32812-8.1094-1.0078l-22.945-5.9531v-0.003906c-0.96094 4.4297-3.4062 8.3945-6.9297 11.246-3.5234 2.8477-7.9141 4.4062-12.445 4.418h-47.129c-5.2617-0.011719-10.309-2.1094-14.023-5.8359-3.7188-3.7266-5.8086-8.7773-5.8086-14.039v-18.137l-82.211-21.344v159.32c0.011718 6.1797 2.4727 12.102 6.8398 16.473 4.3711 4.3672 10.293 6.8281 16.473 6.8398h352.57c6.1836 0 12.113-2.457 16.484-6.8281 4.3711-4.3711 6.8281-10.301 6.8281-16.484v-159.27zm-173.95 135.94c-2.1406 3.1602-5.1016 5.6758-8.5664 7.2812-4.043 1.875-8.418 2.9336-12.871 3.1133v7.5117c0.019531 0.85547-0.30859 1.6836-0.91406 2.2891-0.63281 0.625-1.4961 0.95312-2.3828 0.91797-0.85156 0.035157-1.6758-0.27734-2.2891-0.87109-0.61328-0.61719-0.93359-1.4688-0.87109-2.3359v-7.5117c-7.375-0.42969-14.625-2.1211-21.434-4.9922-1.75-0.74609-2.8984-2.4492-2.9336-4.3516-0.023437-1.1523 0.40625-2.2695 1.1914-3.1133 0.80469-0.86719 1.9375-1.3477 3.1172-1.3281 0.69531-0.011718 1.3867 0.14453 2.0117 0.45703 5.6992 2.5234 11.82 3.9531 18.047 4.2148v-24.367c-4.1445-1.0586-8.2031-2.4336-12.137-4.1211-3.2031-1.4375-6.0234-3.6016-8.2422-6.3203-2.2461-2.9727-3.3945-6.6289-3.2539-10.352-0.039062-3.5703 0.89453-7.0859 2.7031-10.168 1.9453-3.2539 4.7305-5.9258 8.0586-7.7383 3.9766-2.1406 8.3672-3.4062 12.871-3.7109v-7.4219c-0.035156-0.84766 0.27734-1.6758 0.87109-2.2891 0.58984-0.63281 1.4219-0.98438 2.2891-0.96094 0.87891-0.015624 1.7227 0.33203 2.3359 0.96094 0.63672 0.58984 0.98828 1.4258 0.96094 2.2891v7.3281c6.2852 0.16797 12.5 1.3438 18.414 3.4844 1.8672 0.54297 3.1055 2.3164 2.9766 4.2578 0.007812 1.1289-0.39844 2.2227-1.1445 3.0703-0.76172 0.89844-1.8906 1.4062-3.0703 1.3711-0.58594-0.03125-1.1602-0.16797-1.6953-0.41016-4.9844-1.7266-10.203-2.6992-15.48-2.8867v25.258c4.3164 0.95703 8.5469 2.2773 12.641 3.9414 3.2969 1.3398 6.1992 3.5 8.4297 6.2734 2.3984 3.1836 3.5977 7.1055 3.3906 11.086 0.035157 3.6055-1.0195 7.1445-3.0234 10.145z"/>
  <path d="m414.38 540.19c-3.5234-1.918-7.2852-3.3594-11.188-4.2891v22.781c9.9727-0.70703 14.957-4.7344 14.949-12.082 0.046875-2.6719-1.4062-5.1484-3.7617-6.4102z"/>
  <path d="m382.75 512.79c-0.12891 2.8516 1.2109 5.5703 3.5547 7.2031 3.1914 2.0586 6.7227 3.5312 10.434 4.3477v-23.312c-3.6797 0.34375-7.1992 1.6797-10.18 3.8633-2.4648 1.8672-3.8828 4.8047-3.8086 7.8984z"/>
 </g>
</svg>