<?xml version="1.0" encoding="UTF-8"?>
<!-- The Best Svg Icon site in the world: iconSvg.co, Visit us! https://iconsvg.co -->
<svg fill="#000000" width="800px" height="800px" version="1.1" viewBox="144 144 512 512" xmlns="http://www.w3.org/2000/svg">
 <g>
  <path d="m405.41 541.18c0-3.2227 0.15625-6.375 0.44922-9.3242h-171.2c-3.2578 0-5.9023-2.6445-5.9023-5.9062 0-3.2578 2.6445-5.9023 5.9023-5.9023h172.99c2.0781-9.8398 5.543-19.68 10.188-27.551h-183.18c-3.2578 0-5.9023-2.6445-5.9023-5.9062 0-3.2617 2.6445-5.9023 5.9023-5.9023h190.7c7.9531-11.348 18.352-20.762 30.43-27.555h-221.13c-3.2578 0-5.9023-2.6406-5.9023-5.9023s2.6445-5.9023 5.9023-5.9023h233.21c2.3125-0.09375 4.4531 1.2148 5.4219 3.3164 9.0195-3.3398 18.465-5.3789 28.055-6.0625v-232.86c0-14.973 6.6641-28.105 17.242-37.945h-279.93c-9.3398 0-18.301 3.6875-24.93 10.266-6.6289 6.5781-10.391 15.512-10.457 24.852l-2.0352 375.74c25.914 0 131.41 0.12891 211.34 0.13281v-0.003907c-4.7539-11.957-7.1875-24.711-7.1758-37.578zm-55.066-327.82c20.164 0 39.496 8.0078 53.754 22.262 14.258 14.258 22.266 33.594 22.266 53.754s-8.0078 39.496-22.266 53.754c-14.254 14.258-33.59 22.266-53.75 22.266-20.164 0-39.5-8.0078-53.754-22.266-14.258-14.258-22.266-33.59-22.266-53.754 0.023437-20.152 8.0391-39.477 22.289-53.727s33.574-22.27 53.727-22.289zm-115.68 188.61h233.21c3.2578 0 5.9023 2.6445 5.9023 5.9062 0 3.2617-2.6445 5.9023-5.9023 5.9023h-233.21c-3.2578 0-5.9023-2.6406-5.9023-5.9023 0-3.2617 2.6445-5.9062 5.9023-5.9062z"/>
  <path d="m350.34 353.58c17.031 0 33.363-6.7656 45.406-18.809 12.039-12.039 18.805-28.371 18.805-45.402s-6.7656-33.363-18.805-45.402c-12.043-12.043-28.375-18.809-45.406-18.809-17.027 0-33.359 6.7656-45.402 18.809-12.043 12.043-18.805 28.375-18.805 45.402 0.019531 17.023 6.7891 33.344 18.828 45.383 12.035 12.039 28.355 18.809 45.379 18.828zm0-55.984c-7.7031 0-14.941-3.6875-19.469-9.9219s-5.7969-14.258-3.4141-21.586c2.3867-7.3242 8.1367-13.066 15.465-15.441v-5.1367c0-3.2617 2.6445-5.9062 5.9062-5.9062 3.2578 0 5.9023 2.6445 5.9023 5.9062v4.3711c5.5234 1.0312 10.512 3.9609 14.102 8.2773 3.5938 4.3203 5.5625 9.7578 5.5703 15.375 0 3.2617-2.6445 5.9023-5.9023 5.9023-3.2617 0-5.9062-2.6406-5.9062-5.9023 0-4.957-2.9844-9.4258-7.5625-11.32-4.5781-1.8984-9.8516-0.84766-13.355 2.6562-3.5039 3.5039-4.5508 8.7734-2.6562 13.355 1.8984 4.5781 6.3633 7.5625 11.32 7.5625 7.8359 0 15.18 3.8125 19.688 10.223 4.5039 6.4062 5.6094 14.609 2.957 21.98-2.6523 7.3711-8.7305 12.992-16.285 15.062v5.9375c0 3.2578-2.6445 5.9023-5.9062 5.9023-3.2578 0-5.9023-2.6445-5.9023-5.9023v-5.7109c-5.2891-1.2344-10.004-4.2227-13.383-8.4766-3.3789-4.25-5.2227-9.5195-5.2305-14.953 0-3.2617 2.6445-5.9023 5.9062-5.9023s5.9023 2.6406 5.9023 5.9023c0 4.957 2.9844 9.4258 7.5664 11.32 4.5781 1.8984 9.8477 0.85156 13.352-2.6523 3.5078-3.5078 4.5547-8.7773 2.6562-13.355-1.8945-4.5781-6.3633-7.5664-11.32-7.5664z"/>
  <path d="m508 450.16c-29.809 0.011719-57.711 14.66-74.648 39.191-0.042969 0.066406-0.089844 0.13281-0.13672 0.19531-15.418 22.461-19.934 50.656-12.301 76.805 7.6367 26.152 26.613 47.488 51.691 58.121 25.082 10.637 53.613 9.4414 77.715-3.2539 24.105-12.691 41.23-35.543 46.652-62.238 5.4219-26.699-1.4336-54.418-18.68-75.508-17.242-21.09-43.047-33.316-70.289-33.309zm37.863 73.328-43.18 43.133c-1.1133 1.082-2.6172 1.6719-4.1719 1.6367h-0.019531c-1.5586 0.03125-3.0664-0.56641-4.1797-1.6602l-24.199-24.348v0.003906c-2.2656-2.3203-2.2383-6.0391 0.070312-8.3242 2.3047-2.2812 6.0234-2.2773 8.3203 0.015625l20.023 20.219 38.98-38.98h0.003906c1.0977-1.1172 2.5977-1.75 4.1641-1.7578 1.5664-0.007813 3.0742 0.60547 4.1836 1.7109 1.1133 1.1055 1.7344 2.6094 1.7344 4.1758s-0.625 3.0703-1.7344 4.1758z"/>
  <path d="m513.16 249.45h74.785l-0.003906-43.871c0-20.582-16.699-37.801-37.281-37.801h-0.21484c-20.605 0.98437-37.285 17.32-37.285 37.934z"/>
 </g>
</svg>