<?xml version="1.0" encoding="UTF-8"?>
<!-- The Best Svg Icon site in the world: iconSvg.co, Visit us! https://iconsvg.co -->
<svg fill="#000000" width="800px" height="800px" version="1.1" viewBox="144 144 512 512" xmlns="http://www.w3.org/2000/svg">
 <g>
  <path d="m401.66 549.73h-3.332c-10.254 0-18.59-8.3398-18.59-18.59 0-10.242 8.3398-18.586 18.59-18.586h21.938c1.8477 0 3.3555-1.4961 3.3555-3.3438 0-1.8477-1.5078-3.3555-3.3555-3.3555h-15.254v-12.363c0-1.8477-1.5-3.3516-3.3516-3.3516-1.8477 0-3.3516 1.5-3.3516 3.3516v12.363c-13.941 0.019532-25.27 11.355-25.27 25.293 0 13.949 11.348 25.297 25.293 25.297h3.332c10.254 0 18.59 8.3398 18.59 18.59 0 10.238-8.3281 18.582-18.574 18.586h-0.019532-0.023437-21.91c-1.8477 0-3.3516 1.5-3.3516 3.3516 0 1.8477 1.5 3.3516 3.3516 3.3516h18.59v12.367c0 1.8477 1.4961 3.3516 3.3516 3.3516s3.3516-1.5 3.3516-3.3516v-12.594c12.367-1.6484 21.941-12.258 21.941-25.066-0.003907-13.961-11.355-25.301-25.301-25.301z"/>
  <path d="m536.98 508.7c-21.574-29.004-51.09-50.074-85.352-60.938-1.2539-0.40234-2.543-0.80078-3.8945-1.1875v-34.203c25.723-15.566 43.289-43.332 44.617-75.219 12.844-1.6133 22.812-12.594 22.812-25.879 0-13.238-9.9297-24.203-22.727-25.855v-15.25c0-14.418-3.4219-28.758-9.875-41.555 0.25781-1.543 0.39453-3.1172 0.39453-4.7266v-1.1445c0-17.672-6.9336-33.543-20.047-45.887-9.2148-8.6758-19.652-13.672-21.289-13.672-0.94531 0-1.8438 0.39844-2.4844 1.1016-0.62891 0.69922-0.94141 1.6406-0.84766 2.5781 0.35938 3.582-0.73438 6.7266-3.3438 9.6133-14.605 16.137-67.41 17.391-83.246 17.391-3.5078 0-5.6133-0.058593-5.6328-0.058593h-0.097656c-15.957 0-28.938 12.984-28.938 28.938v1.1445c0 1.6055 0.13672 3.1836 0.39453 4.7266-6.4531 12.793-9.8711 27.129-9.8711 41.559v15.25c-12.809 1.6523-22.727 12.609-22.727 25.855 0 13.281 9.9688 24.27 22.816 25.879 0.95703 23.215 10.453 44.918 26.988 61.453 5.3711 5.3672 11.289 9.9922 17.625 13.828v34.133c-1.3438 0.38672-2.6289 0.78516-3.8828 1.1875-34.273 10.855-63.793 31.93-85.359 60.938-21.996 29.57-33.621 64.746-33.621 101.71 0 1.8438 1.5 3.3438 3.3516 3.3438h109.59c15.023 14.289 35.332 23.062 57.652 23.062 22.324 0 42.629-8.7773 57.652-23.062h109.6c1.8477 0 3.3438-1.5 3.3438-3.3438 0.007812-36.965-11.621-72.141-33.605-101.71zm-28.516-197.43c0 9.5508-6.9336 17.508-16.027 19.098v-38.188c9.0938 1.5938 16.027 9.5469 16.027 19.09zm-184.73-88.527c0-12.246 9.957-22.215 22.191-22.238 0.35937 0.011719 2.4297 0.066406 5.7734 0.066406 21.191 0 72.207-1.9102 88.207-19.598 2.5391-2.8047 4.1445-5.8828 4.8008-9.2148 9.582 5.2344 31.547 20.551 31.547 50.984v1.1445c0 12.262-9.9805 22.238-22.242 22.238h-108.04c-12.262 0-22.242-9.9766-22.242-22.238v-1.1445zm-32.211 88.527c0-9.543 6.9336-17.496 16.031-19.09v38.188c-9.0938-1.5859-16.031-9.5469-16.031-19.098zm22.734 21.973v-63.082c0-11.289 2.125-22.156 6.332-32.398 4.9219 8.9688 14.453 15.059 25.387 15.059h108.04c10.926 0 20.461-6.0898 25.383-15.055 4.207 10.246 6.3398 21.109 6.3398 32.398v63.082c0 47.273-38.461 85.727-85.734 85.727-22.902 0-44.441-8.9219-60.629-25.105-16.207-16.199-25.121-37.727-25.121-60.625zm8.6992 219.84c0-42.484 34.555-77.043 77.039-77.043 42.48 0 77.039 34.555 77.039 77.043 0 42.477-34.555 77.031-77.039 77.031s-77.039-34.562-77.039-77.031zm141.01 53.969c12.324-14.59 19.77-33.43 19.77-53.973 0-46.18-37.562-83.742-83.734-83.742-46.176 0-83.738 37.562-83.738 83.742 0 20.547 7.4453 39.383 19.773 53.973h-99.898c1.4023-70.391 46.965-131.57 114.29-152.91 1.9102-0.62109 3.8984-1.2031 6.0859-1.8047 1.457-0.40234 2.4648-1.7266 2.4648-3.2344v-32.996c12.594 6.2578 26.566 9.5625 41.039 9.5625 14.73 0 28.66-3.4648 41.031-9.6211v33.055c0 1.5078 1.0039 2.832 2.4531 3.2344 2.1953 0.59766 4.1875 1.1836 6.1016 1.8086 67.305 21.328 112.86 82.516 114.27 152.91z"/>
 </g>
</svg>