<?xml version="1.0" encoding="UTF-8"?>
<!-- The Best Svg Icon site in the world: iconSvg.co, Visit us! https://iconsvg.co -->
<svg fill="#000000" width="800px" height="800px" version="1.1" viewBox="144 144 512 512" xmlns="http://www.w3.org/2000/svg">
 <g>
  <path d="m633.74 394.83c-2.1211-5.3047-56.609-127.41-233.74-127.41s-231.62 122.11-233.74 127.41c-1.3984 3.3047-1.3984 7.0352 0 10.34 2.1211 5.3047 56.613 127.41 233.74 127.41s231.62-122.11 233.74-127.41h-0.003907c1.4023-3.3047 1.4023-7.0352 0-10.34zm-233.74 102.75c-25.883 0-50.699-10.281-69-28.582-18.301-18.297-28.582-43.117-28.582-68.996 0-25.883 10.281-50.699 28.582-69s43.117-28.582 69-28.582c25.879 0 50.699 10.281 68.996 28.582 18.301 18.301 28.582 43.117 28.582 69-0.035156 25.867-10.328 50.668-28.617 68.961-18.293 18.289-43.094 28.582-68.961 28.617zm-206.83-97.578c13.836-23.773 32.316-44.512 54.344-60.98s47.148-28.332 73.863-34.879c-28.805 23.492-45.516 58.691-45.516 95.859 0 37.164 16.711 72.363 45.516 95.855-26.723-6.5234-51.852-18.379-73.883-34.848-22.031-16.473-40.508-37.223-54.324-61.008zm285.45 95.855c28.801-23.492 45.512-58.691 45.512-95.855 0-37.168-16.711-72.367-45.512-95.859 26.711 6.5469 51.832 18.41 73.859 34.879 22.027 16.469 40.512 37.207 54.344 60.98-13.832 23.77-32.316 44.508-54.344 60.977-22.027 16.473-47.148 28.332-73.859 34.879z"/>
  <path d="m392.04 365.79h39.773c7.3242 0 13.262-5.9375 13.262-13.258 0-7.3242-5.9375-13.258-13.262-13.258h-18.559v-2.6523c0-7.3242-5.9375-13.258-13.258-13.258-7.3242 0-13.258 5.9336-13.258 13.258v3.1836-0.003906c-12.691 1.4922-23.703 9.4453-29.105 21.023-5.4023 11.578-4.4219 25.125 2.5859 35.805 7.0117 10.684 19.051 16.973 31.82 16.625h15.91c5.7852 0 10.473 4.6875 10.473 10.473 0 5.7852-4.6875 10.473-10.473 10.473h-39.773c-7.3242 0-13.258 5.9375-13.258 13.258 0 7.3242 5.9336 13.262 13.258 13.262h18.562v2.6523-0.003906c0 7.3242 5.9336 13.258 13.258 13.258 7.3203 0 13.258-5.9336 13.258-13.258v-3.1836 0.003906c12.688-1.4922 23.699-9.4453 29.102-21.023 5.4023-11.574 4.4219-25.125-2.5859-35.805-7.0078-10.684-19.051-16.973-31.82-16.621h-15.91c-5.7852 0-10.473-4.6914-10.473-10.477s4.6875-10.473 10.473-10.473z"/>
 </g>
</svg>