<?xml version="1.0" encoding="UTF-8"?>
<!-- The Best Svg Icon site in the world: iconSvg.co, Visit us! https://iconsvg.co -->
<svg fill="#000000" width="800px" height="800px" version="1.1" viewBox="144 144 512 512" xmlns="http://www.w3.org/2000/svg">
 <g>
  <path d="m423.23 381.87c-0.23047-0.30859-0.91016-0.8125-2.0312-1.5117-1.125-0.69531-2.5586-1.4531-4.3008-2.2656-1.7422-0.8125-3.6797-1.5859-5.8086-2.3242-2.1328-0.73438-4.2812-1.2578-6.4492-1.5703v15.805l3.7188 0.92969c3.9492 1.0859 7.5117 2.2656 10.691 3.543 3.1758 1.2773 5.8672 2.8672 8.0742 4.7656 2.2109 1.8984 3.9102 4.2031 5.1133 6.9141 1.2031 2.7109 1.8008 5.9648 1.8008 9.7617 0 4.418-0.77734 8.1758-2.3242 11.273s-3.6211 5.6367-6.2148 7.6094c-2.5977 1.9766-5.5781 3.4688-8.9453 4.4727-3.3711 1.0039-6.9141 1.5859-10.633 1.7422v13.48h-8.0195v-13.598c-5.3477-0.46484-10.633-1.5469-15.863-3.2539-5.2305-1.7031-9.9336-3.9531-14.117-6.7422l8.3672-16.617c0.30859 0.39062 1.1406 1.0273 2.5 1.918 1.3555 0.89062 3.0781 1.8242 5.1719 2.7891 2.0938 0.96875 4.4531 1.8984 7.0898 2.7891 2.6328 0.89062 5.3477 1.5312 8.1367 1.918v-15.457l-5.5781-1.625c-3.7969-1.1641-7.0898-2.4219-9.875-3.7773-2.7891-1.3555-5.0977-2.9219-6.9141-4.707-1.8203-1.7812-3.1758-3.8359-4.0664-6.1602-0.89062-2.3242-1.3359-5.0352-1.3359-8.1328 0-4.0273 0.69531-7.6094 2.0938-10.75 1.3945-3.1367 3.2734-5.8281 5.6367-8.0781 2.3594-2.2461 5.1484-4.0078 8.3672-5.2852 3.2109-1.2773 6.6797-2.1094 10.398-2.5v-11.738h8.0195v11.738c5.0312 0.46484 9.7617 1.5898 14.176 3.3711 4.418 1.7812 8.25 3.6016 11.504 5.4609zm-32.188-1.0469c0 1.9375 0.67578 3.4688 2.0312 4.5898 1.3555 1.125 3.3867 2.1094 6.1016 2.9609v-14.293c-5.4219 0.46875-8.1328 2.7148-8.1328 6.7422zm22.543 36.953c0-2.0117-0.8125-3.582-2.4375-4.707-1.6289-1.1211-3.7969-2.1484-6.5078-3.0781v13.945c5.9609-0.23047 8.9453-2.2852 8.9453-6.1602z"/>
  <path d="m607.62 406.89c-3.8047 0-6.8867-3.082-6.8867-6.8867 0-110.14-89.609-199.75-199.75-199.75-54.609 0-105.6 21.621-143.58 60.879-2.6445 2.7344-7.0039 2.8086-9.7383 0.16016-2.7344-2.6445-2.8047-7.0078-0.16016-9.7383 40.594-41.965 95.102-65.078 153.48-65.078 57.035 0 110.66 22.211 150.99 62.543 40.328 40.328 62.539 93.949 62.539 150.99 0 3.8008-3.0859 6.8867-6.8867 6.8867z"/>
  <path d="m400.98 613.53c-57.035 0-110.66-22.211-150.99-62.543-40.332-40.328-62.543-93.949-62.543-150.98 0-3.8047 3.082-6.8867 6.8867-6.8867 3.8047 0 6.8867 3.082 6.8867 6.8867 0 110.14 89.609 199.75 199.75 199.75 55.605 0 107.24-22.297 145.39-62.781 2.6094-2.7695 6.9688-2.8984 9.7383-0.28906s2.8984 6.9688 0.28906 9.7383c-19.758 20.969-43.086 37.469-69.336 49.043-27.18 11.984-56.145 18.062-86.082 18.062z"/>
  <path d="m606.64 410.82c-1.7617 0-3.5273-0.67188-4.8711-2.0156l-24.602-24.602c-2.6875-2.6875-2.6875-7.0508 0-9.7422 2.6914-2.6875 7.0508-2.6875 9.7422 0l19.73 19.73 19.73-19.73c2.6914-2.6875 7.0508-2.6875 9.7422 0 2.6875 2.6875 2.6875 7.0508 0 9.7422l-24.602 24.602c-1.3477 1.3398-3.1094 2.0156-4.8711 2.0156z"/>
  <path d="m217.96 410.82c-1.7617 0-3.5273-0.67188-4.8711-2.0156l-19.727-19.734-19.73 19.73c-2.6875 2.6875-7.0508 2.6875-9.7422 0-2.6914-2.6914-2.6914-7.0508 0-9.7422l24.602-24.602c2.6875-2.6875 7.0508-2.6875 9.7422 0l24.602 24.602c2.6914 2.6914 2.6914 7.0508 0 9.7422-1.3477 1.3438-3.1094 2.0195-4.875 2.0195z"/>
  <path d="m400.98 554.49c-85.184 0-154.49-69.305-154.49-154.49-0.003906-85.188 69.301-154.49 154.49-154.49 85.184 0 154.49 69.305 154.49 154.49s-69.305 154.49-154.49 154.49zm0-295.2c-77.59 0-140.71 63.121-140.71 140.71s63.121 140.71 140.71 140.71 140.71-63.121 140.71-140.71c0-77.586-63.125-140.71-140.71-140.71z"/>
  <path d="m400.98 495.45c-52.629 0-95.449-42.816-95.449-95.449 0-52.629 42.816-95.449 95.449-95.449 52.629 0 95.449 42.816 95.449 95.449-0.003906 52.633-42.82 95.449-95.449 95.449zm0-177.12c-45.035 0-81.672 36.637-81.672 81.672s36.637 81.672 81.672 81.672 81.672-36.637 81.672-81.672-36.641-81.672-81.672-81.672z"/>
  <path d="m336.04 384.25h19.68v19.68h-19.68z"/>
  <path d="m444.28 384.25h19.68v19.68h-19.68z"/>
 </g>
</svg>