<?xml version="1.0" encoding="UTF-8"?>
<!-- The Best Svg Icon site in the world: iconSvg.co, Visit us! https://iconsvg.co -->
<svg fill="#000000" width="800px" height="800px" version="1.1" viewBox="144 144 512 512" xmlns="http://www.w3.org/2000/svg">
 <g>
  <path d="m493.2 425.65c25.094-52.949-40.473-140.94-54.121-158.43l29.746-35.188c0.84766-1.0117 1.207-2.3398 0.98438-3.6406-0.070312-0.44141-1.8594-10.754-10.824-15.742-6.6602-3.6719-15.145-3.3867-25.199 0.875-6.4648 2.7266-8.0117 1.9688-8.0312 1.9688-0.48047-0.35547-1.1016-2.668-1.4766-4.0547-1.7422-6.5234-4.6641-17.445-24.234-17.445s-22.496 10.922-24.234 17.445c-0.375 1.3867-0.98438 3.6992-1.4766 4.0547 0 0-1.5664 0.74609-8.0312-1.9688-10.055-4.2617-18.539-4.5469-25.199-0.875-9.0039 4.9219-10.824 15.281-10.824 15.742-0.21875 1.3008 0.14062 2.6289 0.98438 3.6406l29.746 35.188c-13.688 17.457-79.25 105.45-54.121 158.43 12.191 25.723 43.551 38.762 93.203 38.762 49.656-0.003906 80.918-13.039 93.109-38.762zm-147.79-205.04c4.1211-2.2734 9.9492-1.8398 17.328 1.2773 7.1055 2.9531 11.887 3.5508 15.508 1.7695 4.1445-2.0273 5.2539-6.168 6.2305-9.8398 1.6133-6.0039 2.8828-10.746 15.52-10.746 12.633 0 13.902 4.7422 15.52 10.746 0.98438 3.6602 2.0859 7.8047 6.2305 9.8398 3.6211 1.7812 8.4141 1.2305 15.508-1.7695 7.3516-3.1094 13.156-3.5508 17.27-1.3086 3.4258 1.8594 5.1055 5.3242 5.8555 7.457l-29.273 34.605-62.215 0.007813-29.273-34.609c0.96875-3.0938 3.0273-5.7344 5.793-7.4297zm54.586 234.77c-45.855 0-74.469-11.305-85.039-33.605-23.152-48.812 43.711-136.91 54.012-150.1h62.051c10.305 13.188 77.215 101.29 54.012 150.1-10.566 22.297-39.184 33.602-85.035 33.602z"/>
  <path d="m400 352.92c-4.9102 0-9.6133-1.9492-13.082-5.418-3.4727-3.4688-5.418-8.1758-5.418-13.082s1.9492-9.6133 5.4219-13.082c3.4688-3.4688 8.1758-5.418 13.082-5.4141 4.9062 0 9.6133 1.9531 13.082 5.4219 3.4688 3.4727 5.4141 8.1797 5.4102 13.086 0.11328 2.4102 2.1016 4.3047 4.5117 4.3047 2.4141 0 4.4023-1.8945 4.5117-4.3047-0.003906-6.5156-2.3203-12.816-6.5312-17.785-4.2109-4.9727-10.047-8.2891-16.473-9.3633v-8.4531c0-2.4922-2.0234-4.5156-4.5156-4.5156-2.4961 0-4.5195 2.0234-4.5195 4.5156v8.4531c-9.0625 1.6406-16.711 7.7031-20.375 16.156-3.6641 8.4531-2.8594 18.176 2.1445 25.914 5 7.7383 13.535 12.461 22.75 12.59 6.5234 0 12.781 2.5938 17.395 7.207 4.6133 4.6133 7.2031 10.871 7.2031 17.395s-2.5898 12.781-7.2031 17.395c-4.6133 4.6133-10.871 7.207-17.395 7.207-6.5273 0-12.781-2.5938-17.395-7.207-4.6172-4.6133-7.207-10.871-7.207-17.395-0.11328-2.4102-2.0977-4.3047-4.5117-4.3047-2.4141 0-4.3984 1.8945-4.5117 4.3047 0.011719 8.1289 2.9609 15.98 8.3125 22.105 5.3477 6.1211 12.73 10.102 20.785 11.203v8.3828c0 2.4961 2.0234 4.5195 4.5156 4.5195 2.4961 0 4.5156-2.0234 4.5156-4.5195v-8.3828c11.348-1.5625 21.117-8.7969 25.922-19.195 4.8086-10.395 3.9883-22.523-2.1719-32.18s-16.812-15.512-28.266-15.535z"/>
  <path d="m562.89 476.25-4.0156-106.02c-0.23047-6.1172-3.5117-11.711-8.7383-14.898-5.2266-3.1836-11.703-3.5352-17.242-0.93359-5.543 2.6016-9.4102 7.8047-10.301 13.863l-10.707 73.516 0.003906-0.003906c-10.531 1.4062-19.988 7.1641-26.066 15.875l-31.281 44.781c-7.0312 10.031-10.793 21.984-10.777 34.234-0.011719 15.828 4.8281 31.281 13.867 44.277v20.48c0 2.4922 2.0195 4.5156 4.5156 4.5156 2.4922 0 4.5156-2.0234 4.5156-4.5156v-21.848c0-0.92188-0.28516-1.8203-0.81641-2.5781l-0.70703-0.98438c-8.0547-11.512-12.363-25.23-12.34-39.281-0.011719-10.418 3.1992-20.582 9.1914-29.105l31.281-44.781c3.2617-4.6719 7.832-8.2695 13.137-10.348 5.3008-2.0781 11.102-2.543 16.668-1.332l-24.246 76.754v-0.003906c-0.69141 2.3594 0.62891 4.8359 2.9688 5.5781 2.3438 0.74219 4.8516-0.52344 5.6406-2.8516l25.586-80.953c0.64844-2.375-0.57812-4.8594-2.8555-5.7852-2.9414-1.1016-6.0078-1.832-9.1328-2.1758l10.5-72.098c0.47656-3.2852 2.6836-6.0586 5.7734-7.2617 3.0938-1.2031 6.5938-0.65234 9.1641 1.4453 2.0703 1.6602 3.3047 4.1406 3.3867 6.7891l4.0156 106.01h-0.003906c0.12109 3.1875-0.44531 6.3594-1.6602 9.3086l-34.547 83.836h-0.003907c-0.22656 0.54297-0.34375 1.125-0.34375 1.7148v29.953c0 2.4922 2.0234 4.5156 4.5156 4.5156 2.4961 0 4.5195-2.0234 4.5195-4.5156v-29.09l34.203-83.012v0.003906c1.7109-4.1406 2.5078-8.6016 2.332-13.078z"/>
  <path d="m314.17 457.68c-6.0742-8.7031-15.531-14.453-26.055-15.84l-10.715-73.543v-0.003906c-0.89062-6.0547-4.7578-11.262-10.301-13.863-5.5391-2.5977-12.016-2.2461-17.242 0.9375-5.2266 3.1836-8.5078 8.7773-8.7383 14.895l-4.0156 105.99c-0.17188 4.4766 0.62891 8.9375 2.3438 13.078l34.203 83.012v29.086c0 2.4922 2.0234 4.5156 4.5156 4.5156 2.4961 0 4.5195-2.0234 4.5195-4.5156v-29.984c-0.003906-0.58984-0.12109-1.1719-0.34766-1.7109l-34.547-83.836v-0.003906c-1.2148-2.9453-1.7852-6.1211-1.6641-9.3086l4.0156-106.01v0.003906c0.16797-4.7695 3.9453-8.6211 8.7109-8.8789 4.7656-0.25391 8.9375 3.1719 9.6133 7.8945l10.496 72.137c-3.168 0.34375-6.2812 1.0781-9.2695 2.1953-2.2031 0.99609-3.3555 3.4492-2.7148 5.7852l25.586 80.906v-0.003907c0.78906 2.3281 3.2969 3.5977 5.6367 2.8555 2.3438-0.74219 3.6641-3.2227 2.9727-5.5781l-24.246-76.754c5.5703-1.2227 11.383-0.76562 16.695 1.3125 5.3125 2.0742 9.8906 5.6797 13.16 10.359l31.281 44.781c5.9648 8.5195 9.1562 18.668 9.1406 29.066 0.023438 14.051-4.2852 27.77-12.34 39.281l-0.71875 0.98438c-0.52344 0.75781-0.80469 1.6562-0.80469 2.5781v21.844c0 2.4961 2.0195 4.5195 4.5156 4.5195 2.4922 0 4.5156-2.0234 4.5156-4.5195v-20.348c9.0469-12.992 13.887-28.449 13.863-44.281 0.003907-12.254-3.7773-24.207-10.824-34.23z"/>
 </g>
</svg>