<?xml version="1.0" encoding="UTF-8"?>
<!-- The Best Svg Icon site in the world: iconSvg.co, Visit us! https://iconsvg.co -->
<svg fill="#000000" width="800px" height="800px" version="1.1" viewBox="144 144 512 512" xmlns="http://www.w3.org/2000/svg">
 <g>
  <path d="m357.12 414.96 15.742 7.8711c3.8906 1.9414 8.6211 0.36328 10.566-3.5273 1.9414-3.8906 0.36328-8.6211-3.5273-10.562l-15.742-7.8711-0.003906-0.003907c-3.8906-1.9414-8.6211-0.36328-10.562 3.5273-1.9453 3.8906-0.36719 8.6211 3.5273 10.566z"/>
  <path d="m423.61 423.61c1.2148 0.011719 2.418-0.25781 3.5117-0.78516l15.742-7.8711h0.003906c3.8906-1.9453 5.4688-6.6758 3.5234-10.566-1.9414-3.8906-6.6719-5.4688-10.562-3.5273l-15.742 7.8711v0.003906c-3.2266 1.6523-4.9102 5.293-4.0742 8.8203s3.9727 6.0273 7.5977 6.0547z"/>
  <path d="m565.31 455.1h-114.59c1.5938-2.6914 2.7773-5.6133 3.5039-8.6562 5.3359-1 10.301-3.4336 14.363-7.0391 4.0586-3.6055 7.0625-8.2461 8.6836-13.43 0.09375-0.28516 0.16797-0.57812 0.23047-0.875l19.316-100.76c2.4688-8.0195 3.8828-16.332 4.2031-24.719 9.332 2.6211 19.199 2.6953 28.57 0.22266s17.914-7.4062 24.738-14.289l11.141-11.141v0.003907c3.0742-3.0742 3.0742-8.0586 0-11.133l-11.141-11.133c-12.715-12.605-30.758-18.262-48.395-15.176l11.645-31.031h-0.003907c0.55859-1.4961 0.65234-3.1289 0.26172-4.6758l-5.3594-21.445h-0.003906c-1.6875-6.7227-6.5703-12.191-13.062-14.633-6.4883-2.4375-13.766-1.5391-19.465 2.4102-5.7031 3.9453-9.1055 10.438-9.1055 17.371l-10.102 17.059-8.4844-2.832c-7.6992-2.5703-15.762-3.8789-23.875-3.875h-56.773c-8.1172-0.003907-16.18 1.3047-23.879 3.875l-8.5273 2.8516-10.059-16.777v-0.30078c-0.007813-6.9297-3.4141-13.418-9.1172-17.359-5.6992-3.9414-12.973-4.8359-19.461-2.3945-6.4883 2.4414-11.367 7.9102-13.055 14.629l-5.3594 21.445c-0.39062 1.5508-0.30078 3.1797 0.25781 4.6758l11.645 31.031c-17.641-3.0859-35.68 2.5742-48.398 15.176l-11.141 11.133c-3.0703 3.0742-3.0703 8.0586 0 11.133l11.141 11.141v-0.003906c6.8242 6.8828 15.367 11.816 24.738 14.289 9.375 2.4727 19.238 2.3984 28.57-0.22266 0.32031 8.3867 1.7344 16.699 4.2031 24.719l19.316 100.76h0.003907c0.058593 0.29688 0.13281 0.58984 0.22656 0.875 1.6211 5.1836 4.625 9.8242 8.6836 13.43 4.0625 3.6055 9.0273 6.0391 14.367 7.0391 0.72266 3.043 1.9062 5.9648 3.5 8.6562h-114.58c-4.3477 0-7.875 3.5273-7.875 7.875v157.41c0 2.0898 0.83203 4.0898 2.3086 5.5664 1.4766 1.4766 3.4766 2.3086 5.5664 2.3086h330.62c2.0859 0 4.0898-0.83203 5.5664-2.3086 1.4766-1.4766 2.3047-3.4766 2.3047-5.5664v-157.44c0-2.0898-0.82812-4.0938-2.3047-5.5664-1.4766-1.4766-3.4805-2.3086-5.5664-2.3086zm-107.06-152.36c2.7891-2.5352 6.875-3.0352 10.191-1.25 3.3203 1.7852 5.1523 5.4688 4.5703 9.1953-0.57812 3.7227-3.4453 6.6758-7.1484 7.3672-3.7031 0.69141-7.4414-1.0273-9.3281-4.2891-2.5156-3.5312-1.7539-8.4219 1.7148-11.023zm-128.95 4.0234h0.003906c0.65625-2.0625 2.2148-3.7188 4.2344-4.5039 2.0195-0.78125 4.2852-0.60547 6.1602 0.47656 1.8789 1.0859 3.1602 2.9609 3.4961 5.1016 0.33203 2.1406-0.32422 4.3164-1.7852 5.918-0.65625 2.0625-2.2148 3.7188-4.2344 4.5-2.0195 0.78516-4.2852 0.60938-6.1602-0.47266-1.8789-1.0859-3.1602-2.9609-3.4961-5.1016-0.33203-2.1406 0.32422-4.3164 1.7852-5.918zm0.52734 72.785 16.414-13.68h0.003907c9.2344-7.7148 15.852-18.109 18.93-29.742 3.0781-11.637 2.4688-23.938-1.7461-35.211l-30.117-80.293 19.453-6.4883h-0.003907c6.082-2.0273 12.445-3.0625 18.855-3.0625h28.387v92.309c-0.039062 11.184 4.0938 21.984 11.598 30.285 7.5039 8.2969 17.832 13.496 28.965 14.582l34.984 3.4961-9.25 48.23-13.152-13.027h-0.003906c-11.746-11.832-27.746-18.473-44.418-18.434h-20.941c-14.242 0.015625-28.055 4.8555-39.195 13.727l-15.879 12.523zm8.0703 42.098-1.8125-9.4453 22.332-17.602h0.003907c8.3359-6.668 18.688-10.312 29.363-10.344h20.941c12.504-0.03125 24.504 4.9414 33.32 13.816l20.688 20.469-0.58984 3.0938v-0.003906c-1.125 3.0117-3.1719 5.5859-5.8516 7.3555-2.6797 1.7734-5.8516 2.6484-9.0586 2.5039h-94.465c-3.207 0.14453-6.375-0.72656-9.0547-2.4961-2.6797-1.7695-4.7305-4.3398-5.8555-7.3438zm99.348 25.586c-2.8125 4.8672-8.0039 7.8711-13.629 7.8711h-47.23c-5.6211 0-10.816-3.0039-13.625-7.8711zm120.2 118.71c-11.75 1.707-22.637 7.168-31.035 15.566-8.3984 8.3984-13.855 19.281-15.566 31.035h-221.68c-1.707-11.754-7.168-22.637-15.566-31.035-8.3984-8.3984-19.285-13.859-31.035-15.566v-48.492c11.75-1.707 22.637-7.168 31.035-15.566 8.3984-8.3984 13.859-19.285 15.566-31.035h221.68c1.7109 11.75 7.168 22.637 15.566 31.035 8.3984 8.3984 19.285 13.859 31.035 15.566z"/>
  <path d="m455.1 541.7c0 30.434-24.668 55.105-55.102 55.105s-55.105-24.672-55.105-55.105c0-30.434 24.672-55.105 55.105-55.105s55.102 24.672 55.102 55.105"/>
  <path d="m510.21 533.82h-31.488c-4.3477 0-7.8711 3.5234-7.8711 7.8711 0 4.3477 3.5234 7.8711 7.8711 7.8711h31.488c4.3477 0 7.8711-3.5234 7.8711-7.8711 0-4.3477-3.5234-7.8711-7.8711-7.8711z"/>
  <path d="m321.28 533.82h-31.488c-4.3477 0-7.8711 3.5234-7.8711 7.8711 0 4.3477 3.5234 7.8711 7.8711 7.8711h31.488c4.3477 0 7.8711-3.5234 7.8711-7.8711 0-4.3477-3.5234-7.8711-7.8711-7.8711z"/>
 </g>
</svg>