<?xml version="1.0" encoding="UTF-8"?>
<!-- The Best Svg Icon site in the world: iconSvg.co, Visit us! https://iconsvg.co -->
<svg fill="#000000" width="800px" height="800px" version="1.1" viewBox="144 144 512 512" xmlns="http://www.w3.org/2000/svg">
 <path d="m526.22 441.37c0.66016-5.9492 1.0273-11.984 1.0273-18.113 0-89.961-73.188-163.15-163.15-163.15-89.949 0-163.14 73.188-163.14 163.15-0.003907 89.965 73.188 163.15 163.14 163.15 23.254 0 45.379-4.9258 65.414-13.738 15.211 16.566 36.969 27.016 61.223 27.016 45.934 0 83.18-37.242 83.18-83.18 0.003907-33.219-19.527-61.812-47.695-75.137zm-152.42-79.359h19.699c-3.8242 5.2344-5.9141 11.547-5.9141 18.219 0 5.6797 1.5156 11.125 4.3594 15.887l-40.918-0.003906c-16.016 0-29.051 13.035-29.051 29.051s13.035 29.051 29.051 29.051h11.352c-2.5547 4.3672-3.9102 9.3359-3.9102 14.523 0 16.016 13.027 29.051 29.039 29.051h22.25c-1.3867 6.0273-2.1953 12.277-2.1953 18.727 0 16.07 4.6406 31.031 12.535 43.75-17.289 7.0938-36.188 11.031-56 11.031-31.773 0-61.211-10.098-85.352-27.207h31.137c15.887 0 28.812-12.934 28.812-28.828 0-15.891-12.922-28.824-28.812-28.824h-35.609c0.046874-0.67969 0.070312-1.3555 0.070312-2.0234 0-17.543-14.277-31.82-31.82-31.82h-23.508c-1.9141-9.4883-2.9336-19.301-2.9336-29.344 0-17.91 3.2031-35.09 9.0547-50.996h16.312c16.027 0 29.059-13.027 29.059-29.051 0-9.4219-4.6836-18.117-12.055-23.496 26.883-27.426 64.305-44.492 105.65-44.492 29.977 0 57.879 8.9844 81.215 24.355l-71.52 0.003906c-17.215 0-31.223 14-31.223 31.215s14.008 31.223 31.223 31.223zm59.594 85.043c6.3398-5.4648 10.113-13.445 10.113-21.887 0-4.8477-1.2031-9.543-3.4648-13.723h71.582c0.3125 3.8984 0.51562 7.8359 0.51562 11.812 0 4.3164-0.22656 8.5859-0.58984 12.809-6.6602-1.7188-13.602-2.7305-20.801-2.7305-20 0-38.344 7.0703-52.695 18.832-1.3555-1.8555-2.8945-3.5898-4.6602-5.1133zm63.359 122.37v6.7227c0 4.0195-3.2539 7.2812-7.2734 7.2812s-7.2734-3.2539-7.2734-7.2812v-6.6602c-5.9609-1.0039-13.621-3.8789-19.863-12.133-4.1602-5.4453-5.3008-11.047-5.3008-19.016 0 0 0.60547-6.2773 8.4336-6.2773 7.8438 0 7.7227 6.2773 7.7227 6.2773 0 12.031 9.4531 14.965 16.078 14.965 14.254 0 17.02-8.6719 17.008-13.141-0.023437-11.531-9.5781-13.445-14.586-14.664 0 0-26.766-4.6992-32.379-19.41-6.5078-17.055-0.16016-26.914 3.6523-32.031 4.3438-5.8125 10.781-9.2266 19.23-10.312v-7.0898c0-4.0195 3.2539-7.2812 7.2734-7.2812 4.0195 0 7.2734 3.2578 7.2734 7.2812v7.4727c7.0586 1.3867 12.883 4.6406 16.977 10.016 3.5625 4.6562 6.1016 12.5 5.457 17.184-0.14062 1.0391-1.25 6.7773-8.4727 6.7773-7.2148 0-7.7148-6.0273-7.7148-6.0273-0.42969-3.6641-0.93359-5.2109-2.4727-7.3242-2.8281-3.6562-7.1328-4.7266-13.477-4.7266-3.7344 0-6.8711 0.81641-9.4023 2.4375-3.0977 2.0312-4.2383 5.0234-4.6562 8.9023-1.0938 10.172 9.1836 13.828 11.723 14.641l16.48 5.4375c18.348 6.3164 21.242 18.551 21.242 26.516 0.011718 10.957-7.0039 28.238-25.68 31.465z"/>
</svg>