<?xml version="1.0" encoding="UTF-8"?>
<!-- The Best Svg Icon site in the world: iconSvg.co, Visit us! https://iconsvg.co -->
<svg fill="#000000" width="800px" height="800px" version="1.1" viewBox="144 144 512 512" xmlns="http://www.w3.org/2000/svg">
 <g>
  <path d="m586.74 572.04h-23.832v-160.39c-0.11719-2.5273-2.1992-4.5156-4.7266-4.5156-2.5312 0-4.6133 1.9883-4.7305 4.5156v160.39l-24.738 0.003907v-140.47c-0.11328-2.5273-2.1953-4.5156-4.7266-4.5156s-4.6133 1.9883-4.7305 4.5156v140.47h-24.734v-85.453c-0.11719-2.5273-2.1992-4.5156-4.7305-4.5156s-4.6133 1.9883-4.7266 4.5156v85.43l-24.738 0.003907v-74.984c-0.11719-2.5273-2.1992-4.5156-4.7305-4.5156-2.5273 0-4.6094 1.9883-4.7266 4.5156v75l-24.738 0.003907v-67.898c-0.11328-2.5273-2.1953-4.5156-4.7266-4.5156s-4.6133 1.9883-4.7305 4.5156v67.895l-24.734 0.003907v-85.453c-0.11719-2.5273-2.1992-4.5156-4.7305-4.5156s-4.6133 1.9883-4.7266 4.5156v85.43l-24.738 0.003907v-74.984c-0.11719-2.5273-2.1992-4.5156-4.7305-4.5156-2.5273 0-4.6094 1.9883-4.7266 4.5156v75l-24.738 0.003907v-61.254c0.058594-1.293-0.41406-2.5508-1.3047-3.4883-0.89453-0.93359-2.1289-1.4609-3.4219-1.4609s-2.5312 0.52734-3.4219 1.4609c-0.89453 0.9375-1.3672 2.1953-1.3086 3.4883v61.254h-24.738v-18.699c-0.11328-2.5273-2.1953-4.5156-4.7266-4.5156s-4.6133 1.9883-4.7266 4.5156v18.695l-29.648 0.003907 76.852-98.566v-0.003906c6.9414 3.7539 15.258 3.9766 22.395 0.60156s12.238-9.9453 13.746-17.691h61.992c1.4219 7.3047 6.0469 13.586 12.605 17.109 6.5547 3.5234 14.348 3.9141 21.223 1.0664 6.8789-2.8477 12.113-8.6367 14.258-15.762 2.1445-7.1289 0.97656-14.84-3.1875-21.012l44.281-44.281c6.4141 4.3672 14.5 5.4805 21.852 3.0078 7.3555-2.4688 13.125-8.2422 15.598-15.598 2.4727-7.3516 1.3594-15.438-3.0078-21.852l40.688-40.688c1.8438-1.8477 1.8438-4.8398-0.003906-6.6875-1.8477-1.8438-4.8438-1.8398-6.6875 0.007812l-40.68 40.688c-6.4102-4.3672-14.496-5.4805-21.852-3.0078-7.3516 2.4688-13.125 8.2422-15.598 15.598-2.4688 7.3516-1.3555 15.438 3.0117 21.852l-44.281 44.281v-0.003907c-6.8945-4.6641-15.676-5.5508-23.363-2.3633-7.6914 3.1875-13.27 10.023-14.848 18.195h-61.992c-1.457-7.5156-6.3047-13.938-13.137-17.395-6.832-3.4609-14.879-3.5703-21.801-0.29687-6.9219 3.2695-11.945 9.5586-13.609 17.031-1.6602 7.4766 0.22266 15.301 5.1055 21.199l-74.5 95.547v-327.35l19.258 19.258v-0.003907c1.8438 1.8477 4.8359 1.8477 6.6797 0 1.8477-1.8438 1.8477-4.8359 0-6.6797l-26.074-26.074v-0.003906c-0.51562-2.1172-2.4102-3.6094-4.5898-3.6094-2.1797 0-4.0781 1.4922-4.5898 3.6094l-26.078 26.078c-1.8438 1.8438-1.8438 4.8359 0 6.6797 1.8438 1.8477 4.8359 1.8477 6.6836 0l19.246-19.254v341.15 0.058593c-0.003906 0.085938-0.003906 0.17188 0 0.25781-0.003906 0.070313-0.003906 0.14062 0 0.21484-0.003906 0.070312-0.003906 0.14453 0 0.21484-0.003906 0.082032-0.003906 0.16406 0 0.24609v0.17578 0.003906c0.019532 0.089844 0.039063 0.17578 0.066406 0.26562 0.019532 0.058593 0.042969 0.11328 0.070313 0.16797 0 0.089843 0.058594 0.17578 0.097656 0.26562 0.039063 0.089844 0.058594 0.12891 0.089844 0.19531l0.10938 0.20703c0 0.078125 0.089844 0.14844 0.13672 0.22656 0.027343 0.054687 0.0625 0.10547 0.097656 0.15625 0 0.078125 0.10938 0.14844 0.15625 0.21484l0.11719 0.14844h0.003907c0.050781 0.066406 0.10547 0.12891 0.16797 0.1875l0.14844 0.15625 0.16797 0.14844 0.19531 0.16797h0.058594c0.19141 0.14844 0.39453 0.28516 0.60938 0.40234 0.19922 0.10938 0.40625 0.19922 0.62109 0.27734h0.10938-0.003906c0.21094 0.066406 0.42187 0.12109 0.64062 0.15625h0.15625c0.21484 0.039062 0.43359 0.058594 0.65234 0.058594h346.43c1.293 0.058593 2.5508-0.41016 3.4844-1.3047 0.9375-0.89453 1.4648-2.1289 1.4648-3.4219s-0.52734-2.5312-1.4648-3.4219c-0.93359-0.89453-2.1914-1.3672-3.4844-1.3086zm-58.41-214.46c4.0703 0 7.9766 1.6172 10.855 4.4961 2.8789 2.8789 4.4961 6.7812 4.4961 10.855 0 4.0703-1.6172 7.9727-4.4961 10.852s-6.7852 4.4961-10.855 4.4961c-4.0703 0-7.9766-1.6172-10.855-4.4961-2.8789-2.8789-4.4961-6.7812-4.4961-10.852 0.007812-4.0703 1.625-7.9727 4.5039-10.852 2.875-2.875 6.7773-4.4961 10.848-4.5zm-78.719 78.719c4.0703 0 7.9727 1.6172 10.852 4.4961 2.8789 2.8789 4.4961 6.7852 4.4961 10.855 0 4.0703-1.6172 7.9766-4.4961 10.855s-6.7812 4.4961-10.852 4.4961c-4.0742 0-7.9766-1.6172-10.855-4.4961-2.8789-2.8789-4.4961-6.7852-4.4961-10.855 0.007812-4.0664 1.6289-7.9648 4.5039-10.844 2.8789-2.875 6.7773-4.4922 10.848-4.4961zm-110.71 0c4.0703 0 7.9766 1.6172 10.855 4.4961 2.8789 2.8789 4.4961 6.7852 4.4961 10.855 0 4.0703-1.6172 7.9766-4.4961 10.855-2.8789 2.8789-6.7852 4.4961-10.855 4.4961-4.0703 0-7.9766-1.6172-10.855-4.4961s-4.4961-6.7852-4.4961-10.855c0.007813-4.0664 1.6289-7.9648 4.5039-10.844 2.8789-2.875 6.7773-4.4922 10.848-4.4961z"/>
  <path d="m409.33 362.73c-15.5 0-28.121-10.676-28.121-23.812h-0.003906c0-2.6094-2.1133-4.7227-4.7227-4.7227s-4.7227 2.1133-4.7227 4.7227c0 16.926 14.355 30.926 32.848 32.992v15.852c0.11328 2.5273 2.1953 4.5195 4.7266 4.5195s4.6133-1.9922 4.7266-4.5195v-15.852c18.488-2.0664 32.848-16.07 32.848-32.992 0-18.344-16.855-33.258-37.578-33.258-18.391 0-28.121-8.2344-28.121-23.812 0-13.137 12.625-23.812 28.121-23.812s28.121 10.676 28.121 23.812v-0.003906c0.11719 2.5273 2.1992 4.5195 4.7305 4.5195 2.5273 0 4.6094-1.9922 4.7266-4.5195 0-16.926-14.355-30.926-32.848-32.992v-15.852c-0.11328-2.5273-2.1953-4.5195-4.7266-4.5195s-4.6133 1.9922-4.7266 4.5195v15.852c-18.488 2.0664-32.848 16.07-32.848 32.992 0 20.82 14.043 33.258 37.57 33.258 15.508 0 28.121 10.688 28.121 23.812 0 13.129-12.613 23.816-28.121 23.816z"/>
 </g>
</svg>