<?xml version="1.0" encoding="UTF-8"?>
<!-- The Best Svg Icon site in the world: iconSvg.co, Visit us! https://iconsvg.co -->
<svg fill="#000000" width="800px" height="800px" version="1.1" viewBox="144 144 512 512" xmlns="http://www.w3.org/2000/svg">
 <g>
  <path d="m400 213.59c-31.648 0-62 12.57-84.375 34.949-22.379 22.375-34.949 52.727-34.949 84.375 0 31.645 12.57 61.996 34.949 84.371 22.375 22.379 52.727 34.949 84.375 34.949 31.645 0 61.996-12.57 84.371-34.949 22.379-22.375 34.949-52.727 34.949-84.371 0-31.648-12.57-62-34.949-84.375-22.375-22.379-52.727-34.949-84.371-34.949zm0 212.13c-24.617 0-48.223-9.7773-65.625-27.184-17.406-17.402-27.184-41.008-27.184-65.621 0-24.617 9.7773-48.223 27.184-65.625 17.402-17.406 41.008-27.184 65.625-27.184 24.613 0 48.219 9.7773 65.621 27.184 17.406 17.402 27.184 41.008 27.184 65.625 0 24.613-9.7773 48.219-27.184 65.621-17.402 17.406-41.008 27.184-65.621 27.184z"/>
  <path d="m393.37 306.39h33.145c7.3203 0 13.258-5.9336 13.258-13.258 0-7.3203-5.9375-13.258-13.258-13.258h-13.258c0-7.3203-5.9375-13.258-13.258-13.258-7.3242 0-13.258 5.9375-13.258 13.258v0.79688c-10.84 2.1992-19.863 9.6602-24.066 19.891-4.1992 10.227-3.0234 21.879 3.1367 31.062 6.1641 9.1797 16.5 14.684 27.559 14.676h13.258c1.7578 0 3.4414 0.69531 4.6875 1.9414 1.2422 1.2422 1.9414 2.9297 1.9414 4.6875 0 1.7578-0.69922 3.4414-1.9414 4.6875-1.2461 1.2422-2.9297 1.9414-4.6875 1.9414h-33.148c-7.3203 0-13.258 5.9336-13.258 13.258 0 7.3203 5.9375 13.258 13.258 13.258h13.262c0 7.3203 5.9336 13.258 13.258 13.258 7.3203 0 13.258-5.9375 13.258-13.258v-0.66406c11.84-1.1836 22.152-8.5938 27.047-19.441 4.8945-10.848 3.6328-23.484-3.3164-33.148-6.9453-9.6602-18.52-14.883-30.359-13.699h-13.258c-3.6641 0-6.6289-2.9688-6.6289-6.6289 0.27344-3.4531 3.1641-6.1094 6.6289-6.1016z"/>
  <path d="m488.7 481.27c30.336-18.246 54.316-45.395 68.684-77.75 14.367-32.355 18.418-68.352 11.609-103.09-6.8086-34.738-24.148-66.539-49.668-91.078-16.68-16.184-36.492-28.789-58.219-37.043-21.727-8.2539-44.91-11.98-68.129-10.953-37.047 1.5117-72.621 14.926-101.44 38.258s-49.344 55.336-58.527 91.258c-9.1836 35.922-6.543 73.848 7.5391 108.15s38.848 63.148 70.621 82.254c10.457 6.0703 18.082 16.035 21.215 27.711-12.691 5.1094-21.863 16.383-24.285 29.848-2.4258 13.465 2.2422 27.227 12.352 36.441v26.52c0.74609 10.559 5.6719 20.383 13.684 27.301 8.0117 6.918 18.453 10.359 29.008 9.5547h73.715c10.535 0.80469 20.957-2.6172 28.965-9.5078 8.0078-6.8867 12.949-16.68 13.727-27.215v-26.52c10.109-9.2148 14.777-22.977 12.352-36.441-2.4219-13.465-11.594-24.738-24.285-29.848 3.0977-11.691 10.668-21.691 21.082-27.844zm-22.406 64.57c0 3.5156-1.3984 6.8867-3.8828 9.375-2.4883 2.4844-5.8594 3.8828-9.375 3.8828h-106.07c-7.3203 0-13.258-5.9375-13.258-13.258 0-7.3242 5.9375-13.262 13.258-13.262h106.07c3.5156 0 6.8867 1.3984 9.375 3.8867 2.4844 2.4844 3.8828 5.8555 3.8828 9.375zm-13.258 56.082c0 4.7734-6.6289 10.207-16.176 10.207h-73.715c-9.5469 0-16.176-5.4375-16.176-10.207v-16.309h106.07zm-11.934-95.859h-82.199c-4.0898-19.98-16.477-37.285-34.074-47.594-36.027-21.73-60.918-57.961-68.277-99.387-7.3555-41.422 3.5352-84.008 29.879-116.82 26.344-32.805 65.57-52.637 107.61-54.398 39.703-1.625 78.348 13.02 107 40.547 28.656 27.531 44.836 65.559 44.805 105.29 0.15625 51.223-26.77 98.719-70.801 124.89-17.574 10.246-29.926 27.523-33.941 47.465z"/>
 </g>
</svg>