<?xml version="1.0" encoding="UTF-8"?>
<!-- The Best Svg Icon site in the world: iconSvg.co, Visit us! https://iconsvg.co -->
<svg fill="#000000" width="800px" height="800px" version="1.1" viewBox="144 144 512 512" xmlns="http://www.w3.org/2000/svg">
 <g>
  <path d="m634.14 390.05-225.39-198.87c-5.0078-4.3984-12.496-4.3984-17.5 0l-84.059 74.113v-37.652c0-3.5195-1.3984-6.8906-3.8828-9.375-2.4883-2.4883-5.8594-3.8867-9.375-3.8867h-66.289c-7.3242 0-13.262 5.9375-13.262 13.262v119.32l-48.523 43.086c-4.1328 3.6445-5.5781 9.4648-3.6367 14.621 1.9453 5.1562 6.875 8.5742 12.387 8.582h39.773v179.25c0 12.234 4.8633 23.973 13.516 32.625 8.6523 8.6523 20.387 13.512 32.625 13.512h278.42c12.328 0.14062 24.199-4.6562 32.965-13.324 8.7695-8.668 13.703-20.484 13.703-32.812v-179.25h39.773c5.5117-0.007812 10.441-3.4258 12.387-8.582 1.9453-5.1562 0.49609-10.977-3.6367-14.621zm-393.23-149.15h39.773v47.863l-39.773 35zm331.45 145.84c-7.3242 0-13.258 5.9336-13.258 13.258v192.51c0 5.2031-2.0703 10.195-5.75 13.875-3.6797 3.6797-8.668 5.7461-13.875 5.7461h-278.42 0.003907c-5.2969 0.14453-10.426-1.8594-14.219-5.5547-3.7969-3.6953-5.9375-8.7695-5.9336-14.066v-192.51c0-3.5195-1.3984-6.8906-3.8867-9.375-2.4844-2.4883-5.8555-3.8828-9.3711-3.8828h-18.031l190.39-167.98 190.39 167.98z"/>
  <path d="m293.93 466.29c0 28.129 11.176 55.109 31.066 75 19.891 19.891 46.867 31.066 75 31.066 28.129 0 55.105-11.176 74.996-31.066 19.895-19.891 31.066-46.871 31.066-75 0-28.129-11.172-55.109-31.066-75-19.891-19.891-46.867-31.066-74.996-31.066-28.133 0-55.109 11.176-75 31.066-19.891 19.891-31.066 46.871-31.066 75zm185.61 0c0 21.098-8.3789 41.332-23.297 56.25-14.922 14.918-35.152 23.301-56.25 23.301s-41.332-8.3828-56.25-23.301c-14.918-14.918-23.301-35.152-23.301-56.25 0-21.098 8.3828-41.332 23.301-56.25 14.918-14.918 35.152-23.297 56.25-23.297s41.328 8.3789 56.25 23.297c14.918 14.918 23.297 35.152 23.297 56.25z"/>
  <path d="m400 400c-7.3242 0-13.258 5.9336-13.258 13.258-11.844 1.1836-22.152 8.5938-27.051 19.441-4.8945 10.848-3.6289 23.484 3.3164 33.145 6.9453 9.6641 18.52 14.887 30.363 13.703h13.258c3.6602 0 6.6289 2.9688 6.6289 6.6289 0 3.6602-2.9688 6.6289-6.6289 6.6289h-33.148c-7.3203 0-13.258 5.9375-13.258 13.258 0 7.3242 5.9375 13.258 13.258 13.258h13.262c0 7.3242 5.9336 13.258 13.258 13.258 7.3203 0 13.258-5.9336 13.258-13.258 11.84-1.1836 22.152-8.5938 27.047-19.441 4.8945-10.848 3.6328-23.484-3.3164-33.145-6.9453-9.6641-18.52-14.887-30.359-13.703h-13.258c-3.6641 0-6.6289-2.9688-6.6289-6.6289s2.9648-6.6289 6.6289-6.6289h33.145c7.3203 0 13.258-5.9375 13.258-13.258 0-7.3242-5.9375-13.258-13.258-13.258h-13.258c0-3.5156-1.3984-6.8906-3.8828-9.375-2.4883-2.4883-5.8594-3.8828-9.375-3.8828z"/>
 </g>
</svg>