<?xml version="1.0" encoding="UTF-8"?>
<!-- The Best Svg Icon site in the world: iconSvg.co, Visit us! https://iconsvg.co -->
<svg fill="#000000" width="800px" height="800px" version="1.1" viewBox="144 144 512 512" xmlns="http://www.w3.org/2000/svg">
 <g>
  <path d="m567.28 586.96h-88.633c52.699-28.195 88.633-83.777 88.633-147.6v-108.24c0-5.4336-4.4062-9.8398-9.8398-9.8398h-39.359v-9.8398c0-65.109-52.973-118.08-118.08-118.08-65.105 0.003906-118.08 52.973-118.08 118.08v9.8398h-39.359c-5.4336 0-9.8398 4.4062-9.8398 9.8398v108.24c0 63.824 35.938 119.41 88.633 147.6h-88.633c-5.4336 0-9.8398 4.4062-9.8398 9.8398 0 5.4336 4.4062 9.8398 9.8398 9.8398h334.56c5.4336 0 9.8398-4.4062 9.8398-9.8398-0.003906-5.4336-4.4102-9.8398-9.8438-9.8398zm-265.68-275.52c0-54.258 44.141-98.398 98.398-98.398 54.258 0 98.398 44.141 98.398 98.398v9.8398h-19.68v-9.8398c0-43.406-35.312-78.719-78.719-78.719s-78.719 35.312-78.719 78.719v9.8398h-19.68zm157.44 9.8398h-118.08v-9.8398c0-32.555 26.484-59.039 59.039-59.039 32.555 0 59.039 26.484 59.039 59.039zm-206.64 118.08v-49.199h206.64c5.4336 0 9.8398-4.4062 9.8398-9.8398 0-5.4336-4.4062-9.8398-9.8398-9.8398l-206.64-0.003907v-29.52h295.2v98.398c0 81.387-66.215 147.6-147.6 147.6-81.383 0.003907-147.6-66.211-147.6-147.6z"/>
  <path d="m410.35 475.55c-4.082-1.6406-7.5664-2.3672-8.2539-2.5625v-9.0547c4.6094 0.66016 10.039 3.5781 10.652 4.3945l4.7969-9.0547c-1.8633-1.0664-4.0625-2.1094-6.5938-3.1289-2.5273-1.0195-5.2383-1.6641-8.1211-1.9297v-6.7266h-4.5938v6.7266c-10.047 1.0469-15.18 7.3789-15.18 15.246 0 7.8594 5.2188 10.754 12.715 13.051l3.1953 0.93359v8.8555c-5.9609-0.82813-12.184-4.2227-13.117-5.3906l-4.793 9.5195c5.0078 3.3398 11.348 5.2188 17.176 5.7266v7.7891h4.5938v-7.7227c3.9648-0.16797 8.0742-1.168 11.219-3.5625 1.4883-1.1328 2.6719-2.5859 3.5625-4.3594 0.88672-1.7734 1.332-3.9258 1.332-6.457-0.003906-5.7617-2.5312-9.8516-8.5898-12.293zm-11.387-3.4922c-1.5547-0.48828-2.7188-1.0547-3.4961-1.6992s-1.1641-1.5195-1.1641-2.6328c0-2.3047 1.5547-3.5938 4.6602-3.8594zm3.1289 20.371v-7.9883c1.5547 0.53516 2.7969 1.1211 3.7266 1.7656 0.93359 0.64453 1.3984 1.543 1.3984 2.6953 0.003906 2.2188-1.707 3.3945-5.125 3.5273z"/>
  <path d="m400 419.68c-32.555 0-59.039 26.484-59.039 59.039 0 29.203 21.316 53.504 49.199 58.203v20.516c0 5.4336 4.4062 9.8398 9.8398 9.8398s9.8398-4.4062 9.8398-9.8398v-20.516c27.887-4.6992 49.199-29.004 49.199-58.203 0-32.555-26.484-59.039-59.039-59.039zm0 98.398c-21.703 0-39.359-17.656-39.359-39.359s17.656-39.359 39.359-39.359 39.359 17.656 39.359 39.359-17.656 39.359-39.359 39.359z"/>
 </g>
</svg>