<?xml version="1.0" encoding="UTF-8"?>
<!-- The Best Svg Icon site in the world: iconSvg.co, Visit us! https://iconsvg.co -->
<svg fill="#000000" width="800px" height="800px" version="1.1" viewBox="144 144 512 512" xmlns="http://www.w3.org/2000/svg">
 <g>
  <path d="m525.95 462.98c-16.699 0-32.719 6.6328-44.527 18.445-11.812 11.809-18.445 27.828-18.445 44.527 0 16.703 6.6328 32.723 18.445 44.531 11.809 11.812 27.828 18.445 44.527 18.445 16.703 0 32.723-6.6328 44.531-18.445 11.812-11.809 18.445-27.828 18.445-44.531-0.015625-16.695-6.6602-32.703-18.465-44.508-11.805-11.809-27.812-18.449-44.512-18.465zm-7.8711 55.105h15.742l0.003907-0.003906c8.4375 0 16.23 4.5 20.449 11.809 4.2188 7.3086 4.2188 16.309 0 23.617-4.2188 7.3047-12.012 11.809-20.449 11.809v7.8711c0 4.3477-3.5273 7.8711-7.875 7.8711-4.3477 0-7.8711-3.5234-7.8711-7.8711v-7.8711c-6.2617 0-12.27-2.4883-16.699-6.918-4.4297-4.4297-6.918-10.438-6.918-16.699 0-4.3477 3.5273-7.8711 7.875-7.8711 4.3477 0 7.8711 3.5234 7.8711 7.8711 0 2.0859 0.82812 4.0898 2.3047 5.5664 1.4766 1.4766 3.4805 2.3047 5.5664 2.3047h15.746c4.3477 0 7.8711-3.5234 7.8711-7.8711 0-4.3477-3.5234-7.8711-7.8711-7.8711h-15.746c-8.4375 0-16.234-4.5039-20.453-11.809-4.2188-7.3086-4.2188-16.309 0-23.617 4.2188-7.3047 12.016-11.809 20.453-11.809v-7.8711c0-4.3477 3.5234-7.8711 7.8711-7.8711 4.3477 0 7.875 3.5234 7.875 7.8711v7.8711c6.2617 0 12.27 2.4883 16.699 6.918 4.4258 4.4297 6.9141 10.438 6.9141 16.699 0 4.3477-3.5234 7.8711-7.8711 7.8711s-7.8711-3.5234-7.8711-7.8711c0-2.0898-0.82812-4.0898-2.3047-5.5664s-3.4805-2.3047-5.5664-2.3047h-15.746c-4.3477 0-7.8711 3.5234-7.8711 7.8711 0 4.3477 3.5234 7.8711 7.8711 7.8711z"/>
  <path d="m218.94 240.36v118.31c-0.17188 51.203 14.004 101.43 40.922 144.99 26.918 43.559 65.504 78.703 111.38 101.45l28.758 14.371 28.758-14.375c4.5352-2.2422 9.0938-4.7227 13.707-7.4297h-0.003906c-6.8867-7.9961-12.586-16.941-16.926-26.559-3.3711 1.8984-6.918 3.8086-10.801 5.7773l-11.219 5.6133c-2.2148 1.1055-4.8203 1.1055-7.0352 0l-11.18-5.5898c-40.633-20.137-74.809-51.258-98.648-89.836-23.84-38.578-36.387-83.066-36.223-128.41v-89.98c0-3.3867 2.168-6.3984 5.3867-7.4688l141.7-47.23c1.6133-0.53906 3.3594-0.53906 4.9727 0l141.7 47.23h0.003906c3.2148 1.0703 5.3828 4.082 5.3828 7.4688v89.98c-0.050781 19.695-2.4531 39.316-7.1641 58.441 10.426 1.5625 20.574 4.625 30.121 9.0977 5.6133-22.074 8.4766-44.762 8.5312-67.539v-118.31l-181.05-60.355z"/>
  <path d="m525.95 431.49c-25.051 0-49.078 9.9492-66.793 27.668-17.719 17.715-27.668 41.742-27.668 66.793 0 25.055 9.9492 49.082 27.668 66.797 17.715 17.715 41.742 27.668 66.793 27.668 25.055 0 49.082-9.9531 66.797-27.668s27.668-41.742 27.668-66.797c-0.027343-25.043-9.9883-49.055-27.695-66.766-17.711-17.707-41.723-27.668-66.77-27.695zm0 173.18c-20.875 0-40.898-8.293-55.66-23.059-14.766-14.762-23.059-34.785-23.059-55.664 0-20.875 8.293-40.898 23.059-55.66 14.762-14.766 34.785-23.059 55.66-23.059 20.879 0 40.902 8.293 55.664 23.059 14.766 14.762 23.059 34.785 23.059 55.66-0.023437 20.871-8.3242 40.883-23.082 55.641-14.758 14.758-34.77 23.059-55.641 23.082z"/>
  <path d="m525.95 415.74h0.57422 0.003906c4.7969-18.645 7.25-37.816 7.2969-57.07v-84.305l-133.82-44.609-133.82 44.609v84.305c-0.16016 42.422 11.578 84.039 33.879 120.13 22.301 36.086 54.273 65.203 92.285 84.039l7.6602 3.8242 7.6602-3.8242c4.6289-2.3633 8.5977-4.5508 12.375-6.7461h-0.003906c-9.5625-33.234-2.9336-69.031 17.898-96.637 20.832-27.605 53.438-43.797 88.02-43.715zm-136.13 37.055c-3.0742 3.0742-8.0586 3.0742-11.133 0l-66.793-66.793c-3.0742-3.0742-3.0742-8.0586 0-11.133l22.262-22.27c3.0742-3.0742 8.0586-3.0742 11.133 0l38.965 38.965 88.105-88.102c3.0742-3.0742 8.0547-3.0742 11.129 0l22.27 22.262c3.0742 3.0742 3.0742 8.0547 0 11.129z"/>
  <path d="m389.82 408.27c-3.0742 3.0703-8.0586 3.0703-11.133 0l-38.965-38.969-11.133 11.133 55.664 55.672 104.81-104.81-11.133-11.133z"/>
 </g>
</svg>