<?xml version="1.0" encoding="UTF-8"?>
<!-- The Best Svg Icon site in the world: iconSvg.co, Visit us! https://iconsvg.co -->
<svg fill="#000000" width="800px" height="800px" version="1.1" viewBox="144 144 512 512" xmlns="http://www.w3.org/2000/svg">
 <g>
  <path d="m585.41 300.3-85.738-85.738h-0.003907c-1.3398-1.3242-3.3477-1.707-5.082-0.96484-0.87109 0.41406-1.6953 0.77734-2.2461 1.0977v0.003906c-33.637 15.242-64.344 36.254-90.73 62.09-24.379 24.168-46.371 50.625-65.68 79.008-12.672 18.383-23.344 38.066-31.828 58.715-1.418 3.4336-2.75 7.0547-4.2148 11.449v0.003906c-0.95703 2.9805-1.0664 6.1719-0.3125 9.2148 0.75 3.0391 2.3359 5.8125 4.5703 8.0039l18.781 18.781c0.93359 0.92188 2.2148 1.4062 3.5273 1.3281 1.3086-0.082031 2.5234-0.71484 3.3398-1.7422 32.062-40.809 39.207-49.234 40.578-50.656h0.003906c2.5039-2.3984 5.8281-3.7578 9.2969-3.8008 7.2617 0.011719 13.152 5.8828 13.191 13.145 0.03125 3.4922-1.3594 6.8477-3.8477 9.2969-1.375 1.418-9.8008 8.5195-50.562 40.719h-0.003907c-1.0469 0.78125-1.6875 1.9922-1.7383 3.2969-0.089843 1.3125 0.39453 2.5977 1.3281 3.5273l18.777 18.777c3.1953 3.2344 7.5469 5.0625 12.094 5.0859 1.7422 0 3.4727-0.27734 5.1289-0.82422 4.3516-1.418 7.9688-2.75 11.406-4.1211l-0.003906-0.003906c20.637-8.5742 40.316-19.289 58.719-31.969 28.387-19.277 54.848-41.258 79.004-65.633 25.82-26.395 46.852-57.078 62.152-90.684 0.36719-0.82422 0.73438-1.5586 1.0547-2.2891v-0.003906c0.75391-1.7383 0.37109-3.7656-0.96094-5.1133zm-122.06 36.273h-0.003906c-6.5938-6.6211-10.293-15.59-10.281-24.934 0.011719-9.3477 3.7344-18.305 10.348-24.91 6.6094-6.6055 15.574-10.312 24.918-10.312 9.3477 0 18.312 3.707 24.922 10.312 6.6133 6.6055 10.336 15.562 10.348 24.91 0.011719 9.3438-3.6875 18.312-10.285 24.934-6.6328 6.6133-15.617 10.328-24.984 10.328-9.3633 0-18.348-3.7148-24.984-10.328z"/>
  <path d="m190.2 482.79m-0.91797-1.5625v0.03125z"/>
  <path d="m357.04 507.23c-5.8516 7.5039-12.172 14.633-18.918 21.344-31.969 31.969-78 40.258-96.32 42.367h0.003906c-0.41406 0.039063-0.82422 0.054688-1.2383 0.046875-3.082-0.011719-6.0312-1.2461-8.1992-3.4375-2.4297-2.4297-3.625-5.832-3.25-9.25 2.0625-18.367 10.258-64.441 42.32-96.457 6.707-6.7305 13.82-13.051 21.297-18.918 1.3008 2.4805 2.9688 4.75 4.9453 6.7344l18.777 18.777c1.4688 1.5273 3.2969 2.6602 5.3125 3.3008-7.375 9.4336-14.746 18.871-21.297 27.297-0.0625 0.125-0.070312 0.27344-0.019531 0.40625 0.054688 0.12891 0.16016 0.23438 0.29688 0.28125l3.8008-2.9297c7.4648-5.8633 15.574-12.184 23.68-18.594v-0.003907c0.65234 2.0352 1.8008 3.875 3.3438 5.3594l18.777 18.777c1.957 1.9727 4.2148 3.6289 6.6875 4.8984z"/>
  <path d="m404.12 567.69c-15.625 15.012-33 28.082-51.754 38.934-9.8828 5.8008-20.539 10.168-31.648 12.961-0.57031 0.14453-1.1562 0.22266-1.7422 0.23047-2.8477-0.027344-5.4336-1.6602-6.6875-4.2148-1.6133-3.2148-0.77344-7.1211 2.0156-9.3906 19.785-15.48 62.426-53.863 65.496-98.379 3.1133-1.0078 6.0469-2.1055 9.0234-3.2969 20.977-8.7148 40.992-19.582 59.723-32.43 1.793 19.191-2.0117 56.062-44.426 95.586z"/>
  <path d="m327.82 351.42c-12.809 18.684-23.605 38.672-32.199 59.633-1.1445 2.793-2.2461 5.7695-3.4336 9.1602-44.656 2.9297-82.898 45.664-98.379 65.402l-0.046875 0.046875c-1.4414 1.7852-3.6133 2.8281-5.9102 2.8398-1.207-0.011719-2.3945-0.29297-3.4805-0.82422-3.1875-1.5547-4.8477-5.1289-3.9844-8.5664 3.1602-13.648 14.152-42.73 51.938-83.266 39.434-42.363 76.305-46.168 95.496-44.426z"/>
  <path d="m581.21 310.38c-1.2148 0.003906-2.3789-0.48047-3.2383-1.3359l-0.042968-0.042969c-1.1484-1.1523-1.5977-2.8281-1.1836-4.3984l-81.32-81.316c-1.5742 0.40625-3.2461-0.050781-4.4023-1.1953-1.0703-1.0664-1.5586-2.582-1.3125-4.0703 0.23438-1.4805 1.1797-2.75 2.5273-3.3984 35.828-16.57 73.777-28.105 112.77-34.289 4.0508-0.61328 8.1523 0.73438 11.047 3.6367 2.8906 2.8984 4.2344 7.0039 3.6094 11.051-6.1953 38.977-17.746 76.91-34.324 112.72-0.74219 1.6172-2.3672 2.6484-4.1484 2.6367zm-76.902-91.145 76.465 76.488h-0.003906c14.242-32.602 24.273-66.883 29.855-102.02 0.19141-1.1797-0.19531-2.375-1.0391-3.2227-0.84375-0.84375-2.0391-1.2305-3.2188-1.043-35.145 5.5586-69.441 15.566-102.06 29.777z"/>
  <path d="m519.73 280.2c-8.3438-8.3125-19.645-12.977-31.422-12.961-11.777 0.015625-23.07 4.707-31.387 13.047-8.3203 8.3359-12.992 19.637-12.98 31.414 0.007812 11.777 4.6914 23.07 13.023 31.395 8.332 8.3242 19.629 13 31.406 13 11.781-0.003906 23.074-4.6797 31.406-13.008 8.3242-8.3516 12.992-19.66 12.984-31.453-0.007812-11.789-4.6953-23.094-13.031-31.434zm-6.4141 56.383c-6.6094 6.6406-15.59 10.379-24.961 10.398-9.3711 0.015626-18.363-3.6953-24.996-10.312-6.6367-6.6172-10.367-15.598-10.379-24.969-0.007812-9.3711 3.7109-18.359 10.332-24.988 6.6211-6.6328 15.609-10.355 24.98-10.355 9.3672-0.003906 18.355 3.7227 24.98 10.348 6.5977 6.6211 10.309 15.582 10.316 24.93 0.007812 9.3477-3.6836 18.316-10.273 24.949z"/>
 </g>
</svg>