<?xml version="1.0" encoding="UTF-8"?>
<!-- The Best Svg Icon site in the world: iconSvg.co, Visit us! https://iconsvg.co -->
<svg fill="#000000" width="800px" height="800px" version="1.1" viewBox="144 144 512 512" xmlns="http://www.w3.org/2000/svg">
 <g>
  <path d="m294.2 258.3h-12.281v90.531l24.168 18.105c1.3594 1.0273 3.0195 1.582 4.7227 1.5742h128.55c2.0508 0.035156 4.0195-0.79297 5.4297-2.2852 1.7344-1.6133 2.6328-3.9336 2.4414-6.2969-0.71484-4.2344-4.4453-7.293-8.7383-7.1641h-14.879c-4.3477 0-7.8711-3.5234-7.8711-7.8711 0-4.3477 3.5234-7.8711 7.8711-7.8711h23.617c4.3477 0 7.8711-3.5273 7.8711-7.875 0-4.3477-3.5234-7.8711-7.8711-7.8711h-23.617c-4.3477 0-7.8711-3.5234-7.8711-7.8711s3.5234-7.8711 7.8711-7.8711h31.488c4.3477 0 7.875-3.5234 7.875-7.8711 0-4.3477-3.5273-7.875-7.875-7.875h-31.488c-4.3477 0-7.8711-3.5234-7.8711-7.8711 0-4.3477 3.5234-7.8711 7.8711-7.8711h15.746c2.0508 0.035156 4.0195-0.79297 5.4297-2.2852 1.5742-1.4297 2.4609-3.4609 2.4414-5.5859 0-2.0898-0.82812-4.0898-2.3047-5.5664-1.4766-1.4766-3.4805-2.3086-5.5664-2.3086h-78.723c-2.9766 0.035157-5.7031-1.6523-7.0039-4.3281l-21.414-42.824c-3.2227 0.125-6.0391 2.2188-7.082 5.2734l-8.582 25.742c-1.543 4.707-4.5391 8.8047-8.5547 11.703-4.0156 2.8984-8.8477 4.4531-13.801 4.4336z"/>
  <path d="m429.91 207.92c-1.5586 1.8711-3.8672 2.9492-6.3008 2.9492-2.4336 0-4.7383-1.0781-6.2969-2.9492l-21.254-28.34h-62.031l31.488 62.977h68.957l31.488-62.977h-14.797z"/>
  <path d="m400 573.18c16.699 0 32.719-6.6367 44.531-18.445 11.809-11.812 18.445-27.828 18.445-44.531s-6.6367-32.723-18.445-44.531c-11.812-11.809-27.832-18.445-44.531-18.445-16.703 0-32.723 6.6367-44.531 18.445-11.812 11.809-18.445 27.828-18.445 44.531 0.019531 16.695 6.6602 32.703 18.465 44.512 11.805 11.805 27.812 18.445 44.512 18.465zm7.8711-55.105h-15.746c-8.4375 0-16.23-4.5-20.449-11.809-4.2188-7.3047-4.2188-16.309 0-23.613 4.2188-7.3086 12.012-11.809 20.449-11.809v-7.8711c0-4.3477 3.5273-7.875 7.875-7.875s7.8711 3.5273 7.8711 7.875v7.8711c6.2617 0 12.27 2.4883 16.699 6.918 4.4297 4.4258 6.918 10.434 6.918 16.695 0 4.3477-3.5273 7.875-7.875 7.875-4.3477 0-7.8711-3.5273-7.8711-7.875 0-2.0859-0.82813-4.0898-2.3047-5.5664-1.4766-1.4727-3.4805-2.3047-5.5664-2.3047h-15.746c-4.3477 0-7.8711 3.5234-7.8711 7.8711 0 4.3477 3.5234 7.875 7.8711 7.875h15.746c8.4375 0 16.234 4.5 20.453 11.809 4.2188 7.3047 4.2188 16.309 0 23.613-4.2188 7.3086-12.016 11.809-20.453 11.809v7.8711c0 4.3477-3.5234 7.875-7.8711 7.875s-7.875-3.5273-7.875-7.875v-7.8711c-6.2617 0-12.27-2.4883-16.699-6.918-4.4258-4.4258-6.9141-10.434-6.9141-16.699 0-4.3477 3.5234-7.8711 7.8711-7.8711 4.3477 0 7.8711 3.5234 7.8711 7.8711 0 2.0898 0.82812 4.0898 2.3047 5.5664 1.4766 1.4766 3.4805 2.3086 5.5664 2.3086h15.746c4.3477 0 7.8711-3.5273 7.8711-7.875 0-4.3477-3.5234-7.8711-7.8711-7.8711z"/>
  <path d="m250.43 250.43h15.742v110.21h-15.742z"/>
  <path d="m179.58 242.56h55.105v125.95h-55.105z"/>
  <path d="m400 620.41c58.648 0 118.08-32.434 118.08-94.465 0-46.367-35.504-111.78-76.516-141.93l-0.003906 0.003906c-0.73047 0.12109-1.4648 0.19922-2.2031 0.23438h-81.32c-40.777 30.309-76.121 95.805-76.121 141.7 0 62.035 59.434 94.465 118.08 94.465zm0-188.93v0.003906c20.875 0 40.898 8.293 55.664 23.055 14.762 14.762 23.055 34.785 23.055 55.664 0 20.879-8.293 40.902-23.055 55.664-14.766 14.762-34.789 23.055-55.664 23.055-20.879 0-40.902-8.293-55.664-23.055-14.766-14.762-23.059-34.785-23.059-55.664 0.023437-20.871 8.3242-40.879 23.082-55.637 14.758-14.758 34.77-23.062 55.641-23.082z"/>
 </g>
</svg>