<?xml version="1.0" encoding="UTF-8"?>
<!-- The Best Svg Icon site in the world: iconSvg.co, Visit us! https://iconsvg.co -->
<svg width="800px" height="800px" version="1.1" viewBox="144 144 512 512" xmlns="http://www.w3.org/2000/svg">
 <defs>
  <clipPath id="a">
   <path d="m148.09 148.09h500.91v499.91h-500.91z"/>
  </clipPath>
 </defs>
 <g clip-path="url(#a)">
  <path d="m297.66 266.18h15.742c4.1758 0 8.1797 1.6562 11.133 4.6094 2.9531 2.9531 4.6094 6.957 4.6094 11.133 0 4.3477 3.5273 7.8711 7.875 7.8711 4.3477 0 7.8711-3.5234 7.8711-7.8711 0-8.3516-3.3164-16.359-9.2227-22.266s-13.914-9.2227-22.266-9.2227v-7.8711c0-4.3477-3.5234-7.8711-7.8711-7.8711s-7.8711 3.5234-7.8711 7.8711v7.8711c-11.25 0-21.648 6.0039-27.27 15.746-5.625 9.7422-5.625 21.742 0 31.488 5.6211 9.7422 16.02 15.742 27.27 15.742h15.742c5.625 0 10.824 3 13.633 7.8711 2.8125 4.8711 2.8125 10.875 0 15.746-2.8086 4.8711-8.0078 7.8711-13.633 7.8711h-15.742c-4.1758 0-8.1836-1.6602-11.133-4.6133-2.9531-2.9492-4.6133-6.957-4.6133-11.133 0-4.3477-3.5234-7.8711-7.8711-7.8711s-7.8711 3.5234-7.8711 7.8711c0 8.3516 3.3164 16.363 9.2227 22.266 5.9023 5.9062 13.914 9.2227 22.266 9.2227v7.875c0 4.3477 3.5234 7.8711 7.8711 7.8711s7.8711-3.5234 7.8711-7.8711v-7.875c11.25 0 21.645-6 27.27-15.742 5.625-9.7422 5.625-21.746 0-31.488s-16.02-15.742-27.27-15.742h-15.742c-5.625 0-10.824-3.0039-13.637-7.875-2.8125-4.8711-2.8125-10.871 0-15.742s8.0117-7.8711 13.637-7.8711zm333.57 282.87-113.64-113.64c-9.7383-9.6719-23.82-13.559-37.141-10.25l-37.535-37.535 0.003907 0.003906c-0.65234-0.65625-1.4141-1.1875-2.2539-1.5742 26.199-44.328 29.07-98.664 7.6836-145.5-21.383-46.84-64.32-80.262-114.98-89.496-50.652-9.2383-102.62 6.8789-139.16 43.152-36.574 36.422-52.957 88.465-43.844 139.27 9.1094 50.805 42.562 93.91 89.512 115.35 46.953 21.441 101.43 18.492 145.8-7.8945 0.375 0.875 0.91016 1.6758 1.5742 2.3594l37.941 37.992c-0.53125 2.5898-0.80859 5.2266-0.81641 7.8711-0.035156 10.445 4.1172 20.473 11.523 27.836l113.67 113.69c14.586 14.586 35.844 20.281 55.77 14.941 19.922-5.3359 35.484-20.898 40.824-40.824 5.3359-19.922-0.35938-41.18-14.945-55.766zm-325.7-101.82c-37.582 0-73.621-14.93-100.2-41.5-26.574-26.574-41.504-62.617-41.504-100.2 0-37.582 14.93-73.621 41.504-100.2 35.797-35.797 87.969-49.777 136.87-36.676 48.898 13.102 87.094 51.297 100.2 100.2 13.102 48.898-0.875 101.07-36.672 136.87-26.516 26.656-62.598 41.602-100.2 41.5zm130.38 14.168-4.1406 4.1406-33.188-33.203c6.4727-4.6953 12.582-9.875 18.277-15.492 5.4883-5.5703 10.555-11.535 15.164-17.852l33.141 33.062-16.438 16.453-12.785 12.785zm184.21 158.13v0.003906c-7.8828 7.8555-18.559 12.266-29.688 12.266-11.129 0-21.801-4.4102-29.684-12.266l-113.67-113.62c-4.418-4.4297-6.8984-10.43-6.8984-16.684 0-6.2539 2.4805-12.254 6.8984-16.68l26.008-26.008c4.4297-4.4336 10.438-6.9219 16.703-6.9219 6.2695 0 12.277 2.4883 16.707 6.9219l113.64 113.64c7.875 7.8711 12.297 18.551 12.297 29.684 0 11.137-4.4219 21.812-12.297 29.688zm-236.65-391.93c-24.227-24.23-58.344-35.812-92.312-31.34-33.973 4.4688-63.93 24.484-81.062 54.156-17.133 29.668-19.492 65.621-6.3828 97.277 13.109 31.656 40.199 55.414 73.293 64.281 33.094 8.8711 68.43 1.8438 95.613-19.012 27.184-20.855 43.121-53.168 43.125-87.43 0.082031-29.246-11.539-57.309-32.273-77.934zm-11.133 144.72c-20.766 20.77-50.008 30.699-79.125 26.867-29.117-3.832-54.797-20.988-69.484-46.422-14.684-25.434-16.703-56.25-5.4648-83.383 11.238-27.133 34.457-47.496 62.824-55.098 28.367-7.6016 58.656-1.5781 81.957 16.301 23.297 17.879 36.957 45.578 36.957 74.949 0.070312 25.066-9.8906 49.121-27.664 66.801z"/>
 </g>
</svg>