<?xml version="1.0" encoding="UTF-8"?>
<!-- The Best Svg Icon site in the world: iconSvg.co, Visit us! https://iconsvg.co -->
<svg fill="#000000" width="800px" height="800px" version="1.1" viewBox="144 144 512 512" xmlns="http://www.w3.org/2000/svg">
 <g>
  <path d="m299.34 416.73v14.762c-0.058594 1.3203 0.42187 2.6055 1.3359 3.5625 0.91406 0.95312 2.1758 1.4961 3.5 1.4961 1.3203 0 2.5859-0.54297 3.5-1.4961 0.91406-0.95703 1.3945-2.2422 1.3359-3.5625v-14.762c17.023-1.7031 31.969-12.066 39.531-27.414 7.5586-15.348 6.6719-33.512-2.3555-48.047-9.0234-14.535-24.906-23.391-42.016-23.422-8.0898 0-15.852-3.2148-21.57-8.9336-5.7227-5.7227-8.9336-13.48-8.9336-21.57s3.2109-15.848 8.9336-21.57c5.7188-5.7188 13.48-8.9336 21.57-8.9336 8.0898 0 15.848 3.2148 21.566 8.9336 5.7227 5.7227 8.9375 13.48 8.9375 21.57 0 2.6758 2.168 4.8398 4.8398 4.8398 2.6758 0 4.8398-2.1641 4.8398-4.8398-0.019531-9.8086-3.6211-19.277-10.133-26.617-6.5078-7.3398-15.473-12.051-25.211-13.246v-14.762 0.003906c-0.11719-2.5859-2.2461-4.625-4.8359-4.625s-4.7188 2.0391-4.8359 4.625v14.762-0.003907c-13.676 1.668-25.543 10.223-31.445 22.668-5.9062 12.445-5.0234 27.047 2.332 38.691 7.3594 11.645 20.168 18.711 33.945 18.719 10.578 0 20.727 4.1992 28.211 11.68 7.4805 7.4805 11.688 17.625 11.688 28.207 0.003906 10.582-4.1992 20.727-11.68 28.211-7.4805 7.4805-17.625 11.688-28.207 11.688-10.582 0-20.727-4.2031-28.211-11.684-7.4805-7.4805-11.684-17.629-11.684-28.207 0-2.6758-2.168-4.8438-4.8398-4.8438-2.6758 0-4.8438 2.168-4.8438 4.8438 0.027344 12.293 4.6211 24.141 12.883 33.246 8.2656 9.1055 19.613 14.816 31.852 16.031z"/>
  <path d="m623.37 250.56-23.469-53.48c-0.35156-1.6836-1.5664-3.0508-3.1992-3.5938-0.53906-0.17578-1.1094-0.25781-1.6797-0.23438h-0.14062c-0.19922 0.011719-0.40234 0.035156-0.59766 0.078125-0.40625 0.054687-0.79688 0.16406-1.1719 0.32422l-54.426 23.922c-2.4453 1.0859-3.5469 3.9492-2.4609 6.3945 1.0898 2.4453 3.9531 3.5469 6.3984 2.4609l44.34-19.512c-51.691 144.08-157.13 216.22-237.43 251.49-89.379 39.25-167.92 42.695-168.7 42.727l0.003906-0.003907c-2.668 0.050782-4.793 2.2539-4.7422 4.9219 0.046875 2.668 2.25 4.793 4.918 4.7422h0.1875c0.375 0 17.832-0.76562 45.531-5.5586v91.836h-45.707c-2.6758 0-4.8438 2.168-4.8438 4.8398 0 2.6758 2.168 4.8438 4.8438 4.8438h427.85c2.6758 0 4.8438-2.168 4.8438-4.8438 0-2.6719-2.168-4.8398-4.8438-4.8398h-71.762v-274.39-0.46094c24.695-33.957 44.414-71.266 58.559-110.8l18.844 43.027c1.0859 2.4453 3.9492 3.5469 6.3945 2.4609 1.1758-0.51953 2.0938-1.4883 2.5547-2.6875 0.46094-1.1992 0.42969-2.5352-0.09375-3.707zm-276.36 346.52h-50.473v-108.64c17.121-5.2891 33.965-11.434 50.473-18.41zm9.6914-131.25c17.316-7.75 34.168-16.5 50.469-26.207v157.44h-50.469zm60.141-32.137v-0.003906c17.648-11.094 34.512-23.387 50.469-36.801v200.2h-50.488zm-180.45 69.781c14.762-2.832 31.883-6.75 50.469-12.145v105.75h-50.469zm291.04 93.609h-50.469v-208.61c18.336-16.363 35.223-34.289 50.469-53.566z"/>
 </g>
</svg>