<?xml version="1.0" encoding="UTF-8"?>
<!-- The Best Svg Icon site in the world: iconSvg.co, Visit us! https://iconsvg.co -->
<svg fill="#000000" width="800px" height="800px" version="1.1" viewBox="144 144 512 512" xmlns="http://www.w3.org/2000/svg">
 <path d="m530.58 401.52c-7.2539-79.23-74.336-141.71-155.22-141.71h-0.85156-0.015625-0.55859c-41.648 0.37109-80.66 16.941-109.84 46.656-29.188 29.715-45.051 69.016-44.68 110.67 0.76953 85.215 70.699 154.54 155.9 154.54h0.85156 0.015625 0.55859c29.422-0.26172 56.891-8.7109 80.266-23.145 13.559 9.5859 30.074 15.277 47.941 15.277 45.934 0 83.18-37.242 83.18-83.18-0.003906-36.992-24.164-68.301-57.547-79.113zm-162.24 76.105c-21.977 0.86328-43.348 4.6133-62.688 10.828-6.8281-19.02-11.129-40.961-12.07-64.418l74.273-0.66406zm-0.625-69.363-74.273 0.66406c0.52734-24.188 4.6484-46.801 11.477-66.316 19.199 5.7539 40.266 8.9844 62.289 9.4219zm-1.1953-132.59 0.55078 61.238c-19.82-0.43359-39.012-3.3516-56.473-8.4336 13.266-29.047 33.137-48.859 55.922-52.805zm-45.371 10.035c-9.5586 10.242-17.914 23.137-24.641 38.059-6.8633-2.6211-13.332-5.5938-19.352-8.9062 12.906-12.57 27.793-22.402 43.992-29.152zm-54.504 40.543c7.5234 4.3984 15.629 8.2617 24.234 11.578-7.5078 21.141-12.016 45.383-12.555 71.238l-43.645 0.39453c1.3281-30.695 12.484-59.633 31.965-83.211zm-31.828 98.316 43.641-0.39453c0.95312 25.367 5.5312 48.941 12.898 69.484-8.6094 3.5234-16.691 7.5664-24.07 12.113-18.656-22.316-30.543-50.449-32.469-81.203zm43.105 92.574c5.9492-3.4766 12.332-6.6133 19.129-9.4062 6.8516 15.074 15.332 28.059 25.066 38.305-16.527-6.8047-31.496-16.68-44.195-28.898zm33.516-14.582c17.582-5.543 36.98-8.8789 57.035-9.6992l0.5625 63.137c-23.188-3.4648-43.773-23.629-57.598-53.438zm160.12-189.36c-5.8047 3.3164-12.051 6.293-18.641 8.9609-6.7227-14.402-14.957-26.828-24.348-36.711 16.004 6.5938 30.539 16.062 42.988 27.75zm-89.922-37.703c22.773 3.4062 43.023 22.887 56.84 51.809-17.387 5.3945-36.516 8.6523-56.289 9.4609zm2.5195 280.38-0.5625-63.152c13.684 0.3125 27.059 1.8906 39.836 4.4727 1.582 7.8398 4.3008 15.262 7.918 22.133-12.625 20.152-28.992 33.5-47.191 36.547zm45.527-10.242c3.6641-3.9414 7.0742-8.3867 10.352-13.074 1.5352 1.9141 3.168 3.75 4.8633 5.5234-4.9023 2.793-9.9688 5.3438-15.215 7.5508zm-7.9102-65c0 0.26562 0.039063 0.52344 0.039063 0.78516-12.312-2.207-25.121-3.5703-38.355-3.8203l-0.48828-54.355 62.375-0.5625c-14.57 14.988-23.57 35.402-23.57 57.953zm-38.941-72.512-0.50391-56.129c21.746-0.85156 42.91-4.5234 62.086-10.621 7.1836 19.402 11.715 41.938 12.688 66.09zm99.523-83.617c17.418 20.379 29.074 45.762 32.605 73.605-3.2852-0.39844-6.6133-0.66016-10.004-0.66016-11.695 0-22.809 2.4336-32.902 6.793-1.2227-24.852-5.8984-47.941-13.312-68.039 8.418-3.4102 16.344-7.3164 23.613-11.699zm28.609 208.04v6.7227c0 4.0195-3.2539 7.2812-7.2734 7.2812s-7.2734-3.2539-7.2734-7.2812v-6.6602c-5.9609-0.99609-13.621-3.8789-19.863-12.133-4.1602-5.4453-5.3086-11.047-5.3086-19.016 0 0 0.61328-6.2773 8.4453-6.2773 7.8438 0 7.7227 6.2773 7.7227 6.2773 0 12.031 9.4531 14.965 16.078 14.965 14.254 0 17.008-8.6719 17.004-13.141-0.019532-11.531-9.5742-13.445-14.582-14.664 0 0-26.766-4.6992-32.379-19.41-6.5078-17.055-0.16016-26.914 3.6406-32.031 4.3516-5.8203 10.797-9.2305 19.242-10.312v-7.0898c0-4.0195 3.2539-7.2812 7.2734-7.2812s7.2734 3.2578 7.2734 7.2812v7.4727c7.0625 1.3867 12.883 4.6406 16.977 10.016 3.5508 4.6562 6.1016 12.5 5.457 17.184-0.14062 1.0391-1.25 6.7773-8.4727 6.7773-7.2266 0-7.7148-6.0273-7.7148-6.0273-0.42969-3.6641-0.93359-5.2109-2.4727-7.3242-2.8281-3.6562-7.1328-4.7266-13.477-4.7266-3.7344 0-6.8711 0.81641-9.4023 2.4375-3.0977 2.0352-4.2383 5.0234-4.6562 8.9023-1.0938 10.172 9.1836 13.828 11.723 14.641l16.473 5.4375c18.355 6.3164 21.25 18.551 21.25 26.516 0.007813 10.953-7.0039 28.23-25.684 31.465z"/>
</svg>