<?xml version="1.0" encoding="UTF-8"?>
<!-- The Best Svg Icon site in the world: iconSvg.co, Visit us! https://iconsvg.co -->
<svg fill="#000000" width="800px" height="800px" version="1.1" viewBox="144 144 512 512" xmlns="http://www.w3.org/2000/svg">
 <g>
  <path d="m450.84 619.84h-101.68c-5.5352-0.023438-10.992-1.2969-15.961-3.7266-25.801-12.434-47.551-31.922-62.734-56.203-15.184-24.285-23.18-52.375-23.062-81.016 0.11719-32.348 10.457-63.832 29.547-89.949 19.086-26.117 45.945-45.531 76.73-55.461v-99.684c0-2.5273 2.0508-4.5781 4.582-4.5781h83.414c1.2148 0 2.3828 0.48047 3.2383 1.3398 0.85938 0.85938 1.3438 2.0234 1.3438 3.2383v99.676c30.805 9.9102 57.684 29.316 76.785 55.438 19.102 26.117 29.445 57.613 29.555 89.973 0.11719 28.645-7.8789 56.734-23.066 81.02s-36.941 43.77-62.746 56.203c-4.9688 2.4297-10.418 3.7031-15.949 3.7305zm-87.996-381.46v98.473c0 2.0312-1.3398 3.8242-3.293 4.3945-29.672 8.8359-55.711 26.992-74.262 51.781-18.547 24.793-28.621 54.895-28.727 85.855-0.10938 26.922 7.4062 53.324 21.68 76.148 14.27 22.828 34.715 41.148 58.969 52.836 3.7227 1.8242 7.8086 2.7852 11.953 2.8086h101.68c4.1445-0.019532 8.2266-0.97656 11.945-2.7969 24.258-11.688 44.707-30.004 58.98-52.836 14.273-22.828 21.789-49.234 21.676-76.16-0.097656-30.969-10.18-61.082-28.742-85.871-18.562-24.789-44.621-42.934-74.309-51.746-1.957-0.57031-3.2969-2.3633-3.2969-4.3984v-98.473z"/>
  <path d="m527.47 477.46c0.19531 22.492-5.543 44.641-16.641 64.203-11.098 19.566-27.16 35.855-46.566 47.23-5.4727 3.2031-11.703 4.8828-18.047 4.8555h-92.426c-6.3398 0.03125-12.574-1.6445-18.043-4.8555-19.406-11.375-35.469-27.664-46.566-47.23-11.098-19.562-16.84-41.711-16.641-64.203 0.011719-1.1875 0.48828-2.3242 1.3281-3.1602 0.875-0.875 2.0586-1.3711 3.2969-1.375h142.58c3.7656 6.1953 8.7539 11.555 14.656 15.758 9.25 6.582 20.32 10.121 31.672 10.121 11.352 0 22.422-3.5391 31.672-10.121 5.9336-4.1992 10.949-9.5625 14.746-15.758h10.352c1.2188-0.011719 2.3906 0.46875 3.2539 1.3281 0.16406 0.17578 0.31641 0.35938 0.45703 0.55078 0.58984 0.75781 0.91406 1.6953 0.91797 2.6562z"/>
  <path d="m461.51 192.39v33.758c-0.019531 6.7617-5.5078 12.234-12.273 12.227h-98.473c-6.7617 0.007812-12.254-5.4648-12.273-12.227v-33.758c0.015624-6.7656 5.5078-12.242 12.273-12.234h98.473c6.7695-0.007812 12.262 5.4688 12.273 12.234z"/>
  <path d="m361.94 388.67c-1.4844 0.25391-2.8867 0.85938-4.0938 1.7578-1.1328 0.84375-1.7812 2.1875-1.7344 3.6016-0.070312 1.2656 0.51953 2.4805 1.5625 3.2031 1.3086 0.85938 2.75 1.5078 4.2617 1.918z"/>
  <path d="m364.69 357.96c-12.043-0.003907-23.598 4.7734-32.117 13.285-8.5234 8.5117-13.312 20.062-13.316 32.105-0.007812 12.043 4.7695 23.598 13.281 32.117 8.5156 8.5195 20.062 13.312 32.105 13.316 12.043 0.007813 23.598-4.7734 32.117-13.285s13.312-20.059 13.316-32.102c-0.011719-12.039-4.7969-23.582-13.305-32.098-8.5078-8.5156-20.043-13.312-32.082-13.34zm14.238 61.008c-1.2695 1.8633-3.0234 3.3477-5.0703 4.293-2.0547 0.96875-4.2656 1.5586-6.5312 1.7383v3.2695c0.011719 0.71094-0.26172 1.3945-0.75781 1.8984-1.0781 0.99219-2.7305 1.0156-3.8359 0.054687-0.51562-0.51562-0.80078-1.2227-0.77734-1.9531v-3.2695c-3.8477-0.32031-7.6172-1.2461-11.172-2.7461-0.62891-0.26953-1.168-0.71484-1.5508-1.2812-0.93359-1.3125-0.81641-3.0938 0.27734-4.2695 1.0078-1.0391 2.5586-1.3242 3.8672-0.71484 2.7148 1.207 5.6172 1.9453 8.5781 2.1836v-11.66c-2.0859-0.55469-4.1289-1.2656-6.1055-2.1289-1.8867-0.83984-3.543-2.1172-4.8398-3.7188-1.3711-1.7812-2.0781-3.9844-2-6.2305-0.011719-2.1172 0.54297-4.1992 1.6055-6.0312 1.1484-1.9219 2.7852-3.5 4.7422-4.582 2.0391-1.1211 4.2812-1.8203 6.5977-2.0586v-3.2383c-0.023437-1.0977 0.625-2.0977 1.6367-2.5195 1.0078-0.42578 2.1758-0.19141 2.9414 0.59375 0.51562 0.50781 0.80078 1.2031 0.79297 1.9258v3.1562c3.25 0.16016 6.457 0.8125 9.5117 1.9297 1.3672 0.44531 2.2734 1.7461 2.2148 3.1797 0.003906 0.84375-0.30078 1.6562-0.85156 2.2891-0.59375 0.70312-1.4727 1.1016-2.3906 1.0781-0.44141-0.019531-0.87109-0.11719-1.2695-0.29688-2.3281-0.80469-4.7539-1.293-7.2148-1.4531v12.133c2.1719 0.51172 4.3008 1.1875 6.3711 2.0195 1.9414 0.80859 3.6523 2.0898 4.9727 3.7227 1.4414 1.9062 2.1719 4.2539 2.0664 6.6406 0.011719 2.1523-0.61719 4.2578-1.8086 6.0469z"/>
  <path d="m367.32 407.89v10.258c5.6641-0.6875 6.3477-3.5 6.3477-5.6094 0.039063-1.1523-0.59375-2.2227-1.6172-2.7461-1.4961-0.82422-3.0859-1.4609-4.7305-1.9023z"/>
  <path d="m463.34 440v-10.477c-1.4805 0.25391-2.8828 0.85547-4.0898 1.7539-1.1328 0.84375-1.7852 2.1914-1.7383 3.6094-0.070313 1.2656 0.51953 2.4766 1.5625 3.2031 1.3125 0.85547 2.7539 1.5 4.2656 1.9102z"/>
  <path d="m466.09 398.77c-12.926 0.003907-25.238 5.5078-33.855 15.141-8.6211 9.6289-12.73 22.477-11.305 35.32 1.4258 12.848 8.2578 24.477 18.777 31.98 11.816 8.4102 26.934 10.676 40.691 6.0938 13.758-4.5781 24.504-15.449 28.922-29.258 4.4219-13.809 1.9805-28.902-6.5625-40.617-8.543-11.715-22.168-18.648-36.668-18.66zm14.227 61.051v0.003907c-1.2734 1.8633-3.0273 3.3477-5.0742 4.2969-2.0586 0.96875-4.2695 1.5586-6.5391 1.7383v3.2695c0.019531 0.71484-0.25781 1.4023-0.76172 1.9023-1.0781 0.98828-2.7227 1.0117-3.8242 0.050781-0.51953-0.51562-0.80078-1.2227-0.78125-1.9531v-3.2695c-3.8438-0.32031-7.6133-1.2461-11.164-2.7461-0.63281-0.26562-1.1758-0.71094-1.5586-1.2773-0.92578-1.3125-0.80859-3.0977 0.28516-4.2734 1.0078-1.0352 2.5547-1.3203 3.8633-0.71484 2.7148 1.207 5.6133 1.9453 8.5742 2.1836v-11.664c-2.0859-0.55859-4.125-1.2695-6.1055-2.1328-1.8828-0.83203-3.543-2.1055-4.8359-3.7109-1.375-1.7812-2.0898-3.9844-2.0195-6.2344-0.011718-2.1172 0.54297-4.1992 1.6055-6.0312 1.1445-1.9219 2.7812-3.5039 4.7422-4.582 2.0391-1.125 4.2812-1.8242 6.5977-2.0664v-3.2344c-0.019531-1.0898 0.63281-2.0859 1.6406-2.5078 1.0078-0.42188 2.1719-0.1875 2.9375 0.58984 0.51172 0.50781 0.79297 1.1992 0.77734 1.918v3.1328c3.2539 0.16406 6.4609 0.8125 9.5195 1.9297 1.375 0.44531 2.2812 1.7617 2.2109 3.207 0.007813 0.84375-0.30078 1.6562-0.85547 2.2891-0.58594 0.70703-1.4648 1.1055-2.3828 1.0781-0.4375-0.019531-0.87109-0.11719-1.2734-0.30078-2.3203-0.8125-4.7422-1.3086-7.1992-1.4766v12.129-0.003906c2.1758 0.51172 4.3086 1.1875 6.3789 2.0234 1.9414 0.80469 3.6523 2.0859 4.9727 3.7227 1.4375 1.9062 2.168 4.2539 2.0586 6.6406 0.019531 2.1602-0.60156 4.2734-1.7891 6.0781z"/>
  <path d="m468.7 448.75v10.258c5.6719-0.6875 6.3516-3.5039 6.3516-5.6055 0.039063-1.1523-0.58984-2.2188-1.6133-2.75-1.4961-0.82422-3.0859-1.4609-4.7383-1.9023z"/>
 </g>
</svg>