<?xml version="1.0" encoding="UTF-8"?>
<!-- The Best Svg Icon site in the world: iconSvg.co, Visit us! https://iconsvg.co -->
<svg fill="#000000" width="800px" height="800px" version="1.1" viewBox="144 144 512 512" xmlns="http://www.w3.org/2000/svg">
 <g>
  <path d="m563.34 406.83c0.30859-1.2695 0.097656-2.6094-0.59375-3.7148-0.69141-1.1094-1.8008-1.8906-3.0742-2.168-1.2773-0.28125-2.6094-0.03125-3.6992 0.6875-1.0898 0.71875-1.8438 1.8477-2.0898 3.1289-0.90234 4.1953-2.0156 8.3438-3.3359 12.426-0.82031 2.543 0.57031 5.2734 3.1094 6.1016 0.48438 0.15625 0.98828 0.23438 1.4961 0.23828 2.0977-0.003906 3.9531-1.3555 4.6055-3.3477 1.4258-4.4375 2.6445-8.9258 3.582-13.352z"/>
  <path d="m561.38 386.86h0.089844c2.6367 0 4.7891-2.1172 4.832-4.7539 0.92578-50.359-29.805-80.48-31.113-81.742h-0.003906c-1.9414-1.7109-4.8906-1.5938-6.6875 0.27344-1.7969 1.8672-1.8086 4.8164-0.023438 6.6953 0.29688 0.28516 29 28.605 28.152 74.605-0.023438 1.2852 0.46484 2.5234 1.3555 3.4453 0.89453 0.92578 2.1172 1.4531 3.3984 1.4766z"/>
  <path d="m444.97 380.32c-4.7344 0-9.2773-1.8828-12.621-5.2305-3.3477-3.3477-5.2305-7.8867-5.2305-12.621s1.8828-9.2734 5.2305-12.621c3.3438-3.3477 7.8867-5.2305 12.621-5.2305s9.2734 1.8828 12.621 5.2305 5.2266 7.8867 5.2266 12.621c-0.054687 1.1914 0.37891 2.3516 1.1992 3.2148 0.82422 0.86328 1.9648 1.3516 3.1562 1.3516s2.332-0.48828 3.1562-1.3516c0.82031-0.86328 1.2539-2.0234 1.1992-3.2148-0.007813-6.2852-2.2383-12.363-6.3047-17.16-4.0625-4.793-9.6953-7.9922-15.895-9.0234v-8.1172c0.054687-1.1914-0.37891-2.3555-1.1992-3.2188-0.82422-0.85938-1.9648-1.3477-3.1562-1.3477s-2.332 0.48828-3.1562 1.3477c-0.82031 0.86328-1.2539 2.0273-1.1992 3.2188v8.1484-0.003906c-8.7773 1.5469-16.195 7.3906-19.754 15.562-3.5586 8.168-2.7812 17.582 2.0664 25.059 4.8516 7.4766 13.125 12.027 22.039 12.113 6.293-0.003906 12.332 2.4961 16.785 6.9453 4.4531 4.4492 6.9531 10.484 6.957 16.777 0.003906 6.2969-2.4961 12.332-6.9453 16.785-4.4492 4.4531-10.484 6.957-16.777 6.9609-6.2969 0-12.332-2.4961-16.785-6.9453-4.4531-4.4492-6.957-10.484-6.9609-16.781 0.058593-1.1875-0.375-2.3516-1.1992-3.2148-0.82031-0.86328-1.9609-1.3516-3.1523-1.3516-1.1953 0-2.332 0.48828-3.1562 1.3516s-1.2578 2.0273-1.1992 3.2148c0.011719 7.8438 2.8594 15.422 8.0234 21.324 5.1602 5.9062 12.289 9.7461 20.059 10.805v8.0898c0.11328 2.3242 2.0273 4.1523 4.3555 4.1523s4.2422-1.8281 4.3555-4.1523v-8.1406c10.797-1.6797 20.027-8.6836 24.555-18.633 4.5273-9.9453 3.7461-21.504-2.0781-30.754-5.8242-9.2461-15.91-14.945-26.836-15.16z"/>
  <path d="m571.84 475.67 1.7695-2.5078c19.074-26.699 29.293-58.703 29.227-91.512 0-51.531-16.324-87.684-48.531-107.46-20.879-12.793-40.973-8.7461-62.043-3.1875 55.449-35.426 46.484-90.48 46.367-91.148-0.21875-1.2852-0.94922-2.4297-2.0234-3.1719-1.0742-0.74219-2.4023-1.0156-3.6836-0.76562-50.961 10.086-74.273 41.645-84.625 63.91v0.003907c-2.6992-20.645-7.4922-40.961-14.297-60.637-0.41797-1.2383-1.3203-2.2539-2.5-2.8164-1.1758-0.56641-2.5352-0.62891-3.7617-0.17578-1.2266 0.44922-2.2188 1.3789-2.75 2.5742-0.53125 1.1914-0.55469 2.5508-0.070313 3.7656 0.1875 0.5 18.105 49.977 15.457 96.973-13.273-0.64844-25.703-3.9375-37.758-7.2109-22.867-6.1484-44.469-11.945-66.98 1.8711-32.195 19.777-48.52 55.93-48.52 107.46v-0.003906c-0.070312 32.398 9.8984 64.023 28.535 90.527l-75.957 28.734-37.684-0.003906c-1.3203-0.058594-2.6094 0.42578-3.5625 1.3398-0.95703 0.91016-1.4961 2.1758-1.4961 3.5 0 1.3203 0.53906 2.5859 1.4961 3.4961 0.95313 0.91406 2.2422 1.3984 3.5625 1.3398h38.582c0.58594 0 1.1641-0.10547 1.7109-0.30469l81.496-30.84c19.02-7.1914 39.973-7.4102 59.141-0.62109l43.297 15.32h-0.003906c4.1523 1.082 7.832 3.5078 10.457 6.9023 2.6211 3.3945 4.0469 7.5625 4.0469 11.855-0.027344 6.918-5.5547 12.562-12.477 12.73l-84.691-9.9492v0.003906c-2.6211-0.25-4.957 1.6406-5.2656 4.25-0.30859 2.6133 1.5273 4.9961 4.1328 5.3633l85 9.9766c0.1875 0.007812 0.37891 0.007812 0.57031 0 4.0781-0.003906 8.082-1.1211 11.574-3.2305s6.3438-5.1328 8.2422-8.7461l112.5-37.59c5.8516-1.9609 12.293-0.88672 17.188 2.8672 4.8945 3.7539 7.5977 9.6992 7.2188 15.855-0.38281 6.1562-3.8008 11.723-9.1211 14.844l-128.53 75.77c-29.922 17.668-65.328 23.629-99.387 16.727l-105.13-21.352c-0.32422-0.066406-0.65234-0.097656-0.98438-0.10156h-39.566c-2.6758 0-4.8438 2.168-4.8438 4.8438 0 2.6719 2.168 4.8398 4.8438 4.8398h39.086l104.55 21.176h-0.003906c36.414 7.4062 74.277 1.0508 106.27-17.84l128.52-75.77v0.003906c6.5859-3.875 11.316-10.254 13.109-17.68 1.793-7.4258 0.49609-15.262-3.5938-21.715-4.0898-6.4531-10.625-10.969-18.105-12.512zm-42.215-289.12c0.93359 16.641-2.5078 69.391-79.547 92.781 0.26562-5.0586 0.31641-10.117 0.17578-15.133 0.91797-5.3125 12.539-61.746 79.371-77.648zm-79.312 325.7 0.003906 0.003906c-0.11328-6.2578-2.2539-12.305-6.1016-17.242-3.8438-4.9375-9.1875-8.4922-15.223-10.133l-42.863-15.254c-19.789-6.9961-41.324-7.3047-61.305-0.875-0.14062-0.42969-0.34375-0.83594-0.60156-1.2109-17.91-25.062-27.504-55.117-27.434-85.922 0-47.941 14.762-81.316 43.918-99.219 18.961-11.633 37.707-6.6016 59.402-0.77734 14.051 3.7773 28.535 7.6758 44.859 7.6758 16.324 0 30.82-3.9375 44.871-7.6758 21.707-5.8242 40.453-10.824 59.402 0.77734 29.137 17.898 43.918 51.277 43.918 99.219h0.003906c0.070313 30.816-9.5312 60.875-27.457 85.941l-5.4102 7.7031v0.003906c-0.097657 0.14062-0.18359 0.29297-0.25781 0.45312-0.96875 0.21094-1.9297 0.47266-2.8711 0.78516z"/>
 </g>
</svg>