<?xml version="1.0" encoding="UTF-8"?>
<!-- The Best Svg Icon site in the world: iconSvg.co, Visit us! https://iconsvg.co -->
<svg fill="#000000" width="800px" height="800px" version="1.1" viewBox="144 144 512 512" xmlns="http://www.w3.org/2000/svg">
 <g>
  <path d="m417.64 290.07v-35.207c-0.10547-2.1914-1.9141-3.9102-4.1055-3.9102-2.1953 0-4.0039 1.7188-4.1094 3.9102v35.207c-0.054687 1.125 0.35156 2.2227 1.1289 3.0391 0.77734 0.81641 1.8516 1.2773 2.9805 1.2773 1.125 0 2.1992-0.46094 2.9766-1.2773 0.77734-0.81641 1.1836-1.9141 1.1289-3.0391z"/>
  <path d="m292.57 425.68c0 2.2695 1.8359 4.1094 4.1055 4.1133h35.207c1.125 0.054687 2.2227-0.35156 3.0352-1.1289 0.81641-0.77734 1.2773-1.8516 1.2773-2.9766 0-1.1289-0.46094-2.2031-1.2773-2.9805-0.8125-0.77734-1.9102-1.1836-3.0352-1.1289h-35.207c-1.0898 0-2.1328 0.43359-2.9023 1.2031-0.76953 0.76953-1.2031 1.8125-1.2031 2.8984z"/>
  <path d="m534.48 425.68c0-2.2656-1.8359-4.1016-4.1016-4.1016h-35.207c-1.125-0.054687-2.2227 0.35156-3.0391 1.1289-0.8125 0.77734-1.2773 1.8516-1.2773 2.9805 0 1.125 0.46484 2.1992 1.2773 2.9766 0.81641 0.77734 1.9141 1.1836 3.0391 1.1289h35.207c2.2695-0.003907 4.1016-1.8438 4.1016-4.1133z"/>
  <path d="m298.16 319.14 30.09 18.281c0.63672 0.39844 1.375 0.60938 2.125 0.60938 1.8438 0 3.4609-1.2305 3.957-3.0039 0.49609-1.7734-0.24609-3.6641-1.8203-4.6211l-30.082-18.293c-0.93359-0.60938-2.0703-0.81641-3.1602-0.56641-1.0859 0.24609-2.0234 0.92188-2.6055 1.875-0.57812 0.94922-0.74609 2.0977-0.46094 3.1758 0.28125 1.0781 0.98828 1.9922 1.957 2.543z"/>
  <path d="m496.68 338.01c0.75391-0.003906 1.4961-0.21484 2.1367-0.61328l30.09-18.25c0.97266-0.55078 1.6797-1.4648 1.9609-2.543 0.28125-1.0781 0.11328-2.2266-0.46484-3.1758-0.58203-0.95312-1.5195-1.6289-2.6055-1.875-1.0898-0.25-2.2266-0.042969-3.1602 0.56641l-30.082 18.293c-1.5742 0.95703-2.3164 2.8477-1.8203 4.6211 0.49609 1.7734 2.1133 3.0039 3.957 3.0039z"/>
  <path d="m413.53 309.4c-20.895-0.003906-40.68 9.4141-53.855 25.633s-18.34 37.516-14.059 57.969 17.555 37.887 36.133 47.457v49.328c-0.003906 1.0898 0.42578 2.1367 1.1992 2.9062 0.76953 0.77344 1.8125 1.207 2.9023 1.207h55.359c2.2734 0 4.1133-1.8438 4.1133-4.1133v-49.328c18.578-9.5703 31.852-27.008 36.133-47.461 4.2852-20.457-0.88281-41.75-14.062-57.969-13.176-16.219-32.965-25.633-53.863-25.629zm23.566 176.27h-47.133v-41.605c2.1875 0.79297 4.4141 1.4727 6.6719 2.0391h0.11719c10.926 2.7227 22.348 2.7422 33.281 0.058594l0.35547-0.078125h-0.003907c2.2734-0.57031 4.5117-1.2539 6.7109-2.0469zm-23.566-45.695c-4.1016 0-8.1914-0.41016-12.211-1.2305l-10.105-65.004 20.309 11.355c1.2461 0.70703 2.7734 0.70703 4.0156 0l20.32-11.355-10.105 65.004c-4.0234 0.81641-8.1172 1.2305-12.223 1.2305zm20.91-3.6914 10.824-69.609c0.24219-1.5547-0.42578-3.1094-1.7148-4.0078-1.293-0.89844-2.9844-0.98047-4.3555-0.21484l-25.672 14.348-25.672-14.348c-1.375-0.76953-3.0664-0.6875-4.3555 0.21094-1.2891 0.90234-1.9531 2.457-1.707 4.0117l10.824 69.609c-18.172-6.6094-32.148-21.422-37.699-39.945-5.5469-18.523-2.0117-38.578 9.5312-54.09 11.547-15.512 29.746-24.648 49.082-24.648 19.336 0 37.535 9.1367 49.082 24.648 11.543 15.512 15.078 35.566 9.5312 54.09s-19.527 33.336-37.699 39.945z"/>
  <path d="m413.53 192.96c-60.703 0-102.16 13.305-130.47 41.84-31.703 31.98-46.875 83.57-46.406 157.73l-28.867 83.285c-1.6523 4.7656-0.89453 10.039 2.0391 14.145 2.9336 4.1055 7.6719 6.5352 12.719 6.5195h29.027v47.41c-0.003906 8.1484 3.3906 15.934 9.3672 21.473 5.9766 5.543 13.996 8.3398 22.121 7.7227l84.469-6.3086v36.141c-0.054688 1.125 0.35156 2.2227 1.1289 3.0391 0.77734 0.81641 1.8516 1.2773 2.9766 1.2773 1.1289 0 2.2031-0.46094 2.9805-1.2773 0.77734-0.81641 1.1836-1.9141 1.1289-3.0391v-40.559c0.003906-1.1406-0.47266-2.2266-1.3086-3-0.82812-0.79297-1.957-1.1914-3.0977-1.0938l-88.992 6.6406h-0.003906c-5.8398 0.44141-11.602-1.5703-15.898-5.5586-4.2969-3.9844-6.7344-9.5781-6.7305-15.438v-51.523c0-2.2734-1.8438-4.1133-4.1133-4.1133h-33.102c-2.3828 0-4.6133-1.1484-5.9922-3.0898-1.3828-1.9375-1.7383-4.4219-0.95703-6.6719l29.145-83.957v0.003906c0.16016-0.44531 0.23828-0.91797 0.22656-1.3906-0.60156-72.227 13.777-122.13 43.977-152.52 26.668-26.941 66.273-39.418 124.63-39.418 120.11 0 171.34 53.137 171.34 177.6 0 110.39-75.156 179.83-75.914 180.52-0.85938 0.77734-1.3516 1.8828-1.3477 3.0391v40.57c-0.054687 1.125 0.35156 2.2227 1.1289 3.0391 0.77734 0.81641 1.8516 1.2773 2.9805 1.2773 1.125 0 2.1992-0.46094 2.9766-1.2773 0.77734-0.81641 1.1836-1.9141 1.1289-3.0391v-38.848c10.422-10.164 77.273-79.535 77.273-185.32 0-128.51-55.34-185.83-179.57-185.83z"/>
 </g>
</svg>