<?xml version="1.0" encoding="UTF-8"?>
<!-- The Best Svg Icon site in the world: iconSvg.co, Visit us! https://iconsvg.co -->
<svg fill="#000000" width="800px" height="800px" version="1.1" viewBox="144 144 512 512" xmlns="http://www.w3.org/2000/svg">
 <g>
  <path d="m284.05 596.53 100.2-100.16v-40.871l-120.61 120.59z"/>
  <path d="m322.26 327.32c-11.809-6.1445-22.777-14.895-30.52-26.703h-30.488v75.77h61.008z"/>
  <path d="m358.3 324.02c18.301 0 35.848-7.2695 48.789-20.211 12.938-12.938 20.207-30.488 20.207-48.785 0-18.301-7.2695-35.848-20.207-48.789-12.941-12.938-30.488-20.207-48.789-20.207-18.297 0-35.848 7.2695-48.785 20.207-12.941 12.941-20.211 30.488-20.211 48.789 0.023437 18.293 7.3008 35.828 20.234 48.762 12.934 12.934 30.469 20.211 48.762 20.234zm0-60.613v-0.003906c-8.375-0.003906-16.203-4.1484-20.914-11.074-4.707-6.9297-5.6836-15.734-2.6016-23.523 3.0781-7.7891 9.8086-13.547 17.98-15.383v-5.3047c0-3.2617 2.6445-5.9023 5.9062-5.9023 3.2578 0 5.9023 2.6406 5.9023 5.9023v5.4766c5.4414 1.3984 10.262 4.5664 13.703 9.0039 3.4453 4.4336 5.3164 9.8906 5.3242 15.508 0 3.2578-2.6445 5.9023-5.9023 5.9023-3.2617 0-5.9062-2.6445-5.9062-5.9023-0.007813-6.8281-5.1133-12.574-11.895-13.391-0.875 0.19141-1.7852 0.17188-2.6562-0.050782-7.2188 0.57031-12.703 6.7383-12.422 13.977 0.28516 7.2383 6.2344 12.957 13.48 12.957 8.2891 0 16.051 4.0586 20.781 10.867 4.7266 6.8086 5.8203 15.5 2.9297 23.266-2.8945 7.7695-9.4062 13.625-17.438 15.68v7.0742c0 3.2617-2.6445 5.9062-5.9023 5.9062-3.2617 0-5.9062-2.6445-5.9062-5.9062v-6.9023c-5.6055-1.2617-10.613-4.3945-14.203-8.8789-3.5938-4.4844-5.5547-10.059-5.5625-15.805 0-3.2578 2.6445-5.9023 5.9023-5.9023 3.2617 0 5.9062 2.6445 5.9062 5.9023 0 5.4609 3.2852 10.379 8.3281 12.469 5.043 2.0898 10.848 0.93359 14.707-2.9258s5.0117-9.6602 2.9258-14.703c-2.0898-5.043-7.0117-8.332-12.469-8.332z"/>
  <path d="m410.42 400.07c-4.5742 0-8.7031 2.7578-10.453 6.9844-1.75 4.2305-0.78516 9.0977 2.4531 12.332 3.2344 3.2383 8.1016 4.2031 12.332 2.4531 4.2266-1.75 6.9844-5.8789 6.9844-10.453-0.003906-6.25-5.0664-11.312-11.316-11.316z"/>
  <path d="m168.76 315.38h80.688v45.266h-80.688z"/>
  <path d="m358.3 335.62c-8.207 0.058593-16.375-1.1211-24.227-3.5039v51.156h35.766c9.1484-13.422 24.344-21.457 40.586-21.457 16.246 0 31.441 8.0352 40.59 21.457h116.27v-90.527h-137.76c-6.8633 12.941-17.117 23.766-29.664 31.32s-26.914 11.551-41.559 11.555z"/>
  <path d="m579.09 282.9h52.152v111.19h-52.152z"/>
  <path d="m436.41 496.37 100.29 100.16 20.367-20.434-120.66-120.59z"/>
  <path d="m410.42 374.03c-9.9062 0-19.41 3.9336-26.414 10.941-7.0078 7.0039-10.941 16.508-10.945 26.414 0 9.9062 3.9375 19.41 10.941 26.418 7.0078 7.0039 16.512 10.941 26.418 10.941s19.41-3.9375 26.414-10.941c7.0078-7.0078 10.945-16.508 10.945-26.418-0.011719-9.9023-3.9531-19.398-10.953-26.402-7.0039-7.0039-16.5-10.945-26.406-10.953zm0 60.48v-0.003907c-6.1328 0-12.012-2.4336-16.352-6.7695-4.3359-4.3398-6.7695-10.219-6.7695-16.352 0-6.1328 2.4336-12.016 6.7695-16.352 4.3398-4.3359 10.219-6.7734 16.352-6.7734s12.016 2.4375 16.352 6.7734c4.3359 4.3359 6.7734 10.219 6.7734 16.352-0.007813 6.1289-2.4453 12.008-6.7812 16.344-4.332 4.3359-10.211 6.7734-16.344 6.7773z"/>
  <path d="m396.06 458.38v155.14h28.535v-155.14c-4.6055 1.4883-9.4258 2.2188-14.266 2.1641-4.8359-0.019531-9.6445-0.75-14.27-2.1641z"/>
 </g>
</svg>