<?xml version="1.0" encoding="UTF-8"?>
<!-- The Best Svg Icon site in the world: iconSvg.co, Visit us! https://iconsvg.co -->
<svg width="800px" height="800px" version="1.1" viewBox="144 144 512 512" xmlns="http://www.w3.org/2000/svg">
 <defs>
  <clipPath id="b">
   <path d="m148.09 584h17.906v19h-17.906z"/>
  </clipPath>
  <clipPath id="a">
   <path d="m610 175h41.902v42h-41.902z"/>
  </clipPath>
 </defs>
 <g clip-path="url(#b)">
  <path d="m156.99 584.55c-4.9062 0-8.8984 3.9961-8.8984 8.9102 0 4.9219 3.9922 8.9258 8.8984 8.9258 4.9102 0 8.8984-4.0039 8.8984-8.9258 0.003906-4.9141-3.9883-8.9102-8.8984-8.9102z"/>
 </g>
 <path d="m219.34 209.62c2.293 2.293 6.0078 2.293 8.3008 0l10.641-10.637 10.637 10.637c1.1445 1.1445 2.6484 1.7188 4.1523 1.7188s3.0039-0.57422 4.1523-1.7188c2.293-2.293 2.293-6.0078 0-8.3008l-10.637-10.637 10.637-10.641c2.293-2.293 2.293-6.0078 0-8.3008-2.293-2.293-6.0078-2.293-8.3008 0l-10.641 10.637-10.641-10.637c-2.293-2.293-6.0078-2.293-8.3008 0-2.293 2.293-2.293 6.0078 0 8.3008l10.637 10.641-10.637 10.637c-2.293 2.2891-2.293 6.0078 0 8.3008z"/>
 <path d="m610.16 590.4c-2.293-2.2891-6.0078-2.2891-8.3008 0.003906l-10.621 10.625-10.621-10.625c-2.293-2.293-6.0078-2.293-8.3008-0.003906-2.293 2.293-2.293 6.0078 0 8.3008l10.621 10.625-10.621 10.625c-2.293 2.293-2.293 6.0078 0 8.3008 2.293 2.293 6.0078 2.293 8.3008 0l10.621-10.625 10.621 10.625c1.1484 1.1445 2.6484 1.7188 4.1523 1.7188 1.5 0 3.0039-0.57422 4.1523-1.7188 2.293-2.2891 2.293-6.0078 0-8.3008l-10.621-10.625 10.621-10.625c2.2891-2.293 2.2891-6.0078-0.003907-8.3008z"/>
 <g clip-path="url(#a)">
  <path d="m646.04 189.42h-8.8906v-8.3867c0-3.2422-2.6602-5.8711-5.9023-5.8711-3.2422 0-5.9023 2.6289-5.9023 5.8711l-0.003906 8.3867h-8.8438c-3.2422 0-5.8711 2.6641-5.8711 5.9023 0 3.2422 2.6289 5.9023 5.8711 5.9023l8.8438 0.003907v9.3711c0 3.2422 2.6602 5.8711 5.9023 5.8711 3.2422 0 5.9023-2.6289 5.9023-5.8711l0.003906-9.3711h8.8906c3.2422 0 5.8711-2.6641 5.8711-5.9023-0.003906-3.2422-2.6289-5.9062-5.8711-5.9062z"/>
 </g>
 <path d="m580.36 423.61h-9.1406v-8.6211c0-3.2422-2.5078-5.8711-5.75-5.8711-0.011719 0 0.039062 0.003906 0.027344 0.003906-0.011719 0-0.11328-0.003906-0.125-0.003906-3.2422 0-5.9609 2.6289-5.9609 5.8711v8.6211h-8.5938c-3.2422 0-5.8711 2.5586-5.8711 5.8008 0 0.070313 0.019532 0.10156 0.019532 0.17578-0.003907 0.070312-0.019532 0.015625-0.019532 0.085937 0 3.2422 2.6289 5.7461 5.8711 5.7461h8.5938v9.1133c0 3.2422 2.6289 5.8711 5.8711 5.8711 0.011718 0 0.035156-0.003906 0.035156-0.003906v0.003906c3.9375 0 5.9023-2.6289 5.9023-5.8711v-9.1133h9.1406c3.2422 0 5.8711-2.5234 5.8711-5.7656 0-0.070312-0.019531-0.085938-0.019531-0.15625 0.003907-0.070312 0.019531-0.042969 0.019531-0.11328 0-3.2422-2.6289-5.7734-5.8711-5.7734z"/>
 <path d="m602.64 571.21c0-3.2422-2.6289-5.9023-5.8711-5.9023h-27.527v-11.723c0-3.2422-2.6602-5.8711-5.9023-5.8711s-5.9023 2.6289-5.9023 5.8711l-0.003906 11.723h-18.695v-11.723c0-3.2422-2.6641-5.8711-5.9023-5.8711-3.2422 0-5.9023 2.6289-5.9023 5.8711l-0.003906 11.723h-19.68v-11.723c0-3.2422-2.6602-5.8711-5.9023-5.8711-3.2422 0-5.9023 2.6289-5.9023 5.8711l-0.003907 11.723h-18.695v-11.723c0-3.2422-2.6602-5.8711-5.9023-5.8711-3.2422 0-5.9023 2.6289-5.9023 5.8711l-0.003906 11.723h-18.695v-11.723c0-3.2422-2.6602-5.8711-5.9023-5.8711s-5.9023 2.6289-5.9023 5.8711l-0.003906 11.723h-20.664v-11.723c0-3.2422-2.6602-5.8711-5.9023-5.8711-3.2422 0-5.9023 2.6289-5.9023 5.8711l-0.003906 11.723h-18.695v-11.723c0-3.2422-2.6641-5.8711-5.9023-5.8711-3.2422 0-5.9023 2.6289-5.9023 5.8711l-0.003906 11.723h-18.695v-11.723c0-3.2422-2.6641-5.8711-5.9023-5.8711-3.2422 0-5.9023 2.6289-5.9023 5.8711l-0.003907 11.723h-19.68v-11.723c0-3.2422-2.6641-5.8711-5.9023-5.8711-3.2422 0-5.9023 2.6289-5.9023 5.8711l-0.003906 11.723h-18.695v-11.723c0-3.2422-2.6641-5.8711-5.9023-5.8711-3.2422 0-5.9023 2.6289-5.9023 5.8711l-0.003906 11.723h-18.695v-11.723c0-3.2422-2.6641-5.8711-5.9023-5.8711-3.2422 0-5.9023 2.6289-5.9023 5.8711l-0.003906 11.723h-19.68v-11.723c0-3.2422-2.6641-5.8711-5.9023-5.8711-3.2422 0-5.9023 2.6289-5.9023 5.8711l-0.003906 11.723h-15.676l76.801-104.86c3.8633 2.9531 8.6758 4.6641 13.91 4.6641 7.9258 0 14.918-4.0625 19.039-10.176l29.113 28.887c1.1055 1.0938 2.5938 1.6953 4.1367 1.6953 0.16797 0 0.33984-0.011719 0.50781-0.027344 1.7188-0.14844 3.2852-1.0508 4.2852-2.4609l37.047-52.348c3.6367 2.4219 8.0039 3.8398 12.695 3.8398 6.582 0 12.512-2.7969 16.699-7.2461l41.066 41.062c0.003906 0.003906 0.007813 0.003906 0.007813 0.007813 2.7266 9.5938 11.57 16.652 22.047 16.652 12.648 0 22.938-10.266 22.938-22.879 0-1.1758-0.11719-2.3164-0.28906-3.4453l52.016-78.523c1.2969 0.22656 2.625 0.37109 3.9883 0.37109 12.648 0 22.93-10.262 22.93-22.879 0-9.8242-6.0664-18.199-14.926-21.465v-65.148c15.742-2.7695 26.246-15.855 26.246-31.543 0-17.711-14.406-32.121-32.121-32.121-17.699 0-32.137 14.41-32.137 32.121 0 15.695 11.441 28.789 26.199 31.551v64c-9.8398 1.7852-19.172 11.23-19.172 22.609 0 7.0156 3.207 13.297 8.207 17.496l-47.184 71.285c-2.8828-3.0625-5.8125-5.3242-10.73-6.4414v-108.26c14.762-2.7852 26.172-15.859 26.172-31.535 0-17.711-14.422-32.121-32.133-32.121-17.699 0-32.109 14.41-32.109 32.121 0 15.711 10.523 28.809 26.266 31.555v108.22c-6.8867 1.7852-12.32 6.5781-15.121 12.879l-35.633-35.629c-0.26172-0.26172-0.54297-0.48047-0.83594-0.68359 0.34375-1.5742 0.58203-3.207 0.58203-4.8828 0-10.566-8.0312-19.465-16.887-22.113v-124.39c14.762-2.8203 26.062-15.879 26.062-31.52 0-17.711-14.43-32.121-32.145-32.121-17.699 0-32.098 14.41-32.098 32.121 0 15.742 10.625 28.863 26.371 31.574v124.27c-9.8398 2.5586-17.207 11.52-17.207 22.18 0 3.6211 0.86719 7.0352 2.375 10.082-0.31641 0.28516-0.60938 0.59766-0.86328 0.96094l-33.902 47.902-28.055-27.852c-0.16406-0.16406-0.34766-0.28516-0.52344-0.42578 0-0.050781-0.11719-0.097657-0.11719-0.14844 0-10.602-7.3164-19.523-17.156-22.137v-88.277c15.742-2.7773 26.344-15.859 26.344-31.539 0-17.711-14.348-32.121-32.059-32.121-17.699 0-32.227 14.41-32.227 32.121 0 15.703 11.375 28.801 26.133 31.555v88.246c-8.8555 2.5938-16.941 11.531-16.941 22.156 0 2.9648 0.53906 5.7891 1.5703 8.3906l-75.156 102.42v-366.53c0-3.2422-2.6641-5.8711-5.9023-5.8711-3.2422 0-5.9023 2.6289-5.9023 5.8711v16.738h-11.137c-3.2422 0-5.8711 2.6641-5.8711 5.9023 0 3.2422 2.6289 5.9023 5.8711 5.9023l11.137 0.003906v18.695h-11.137c-3.2422 0-5.8711 2.6602-5.8711 5.9023 0 3.2422 2.6289 5.9023 5.8711 5.9023l11.137 0.003907v19.68h-11.137c-3.2422 0-5.8711 2.6641-5.8711 5.9023 0 3.2422 2.6289 5.9023 5.8711 5.9023l11.137 0.003906v18.695h-11.137c-3.2422 0-5.8711 2.6641-5.8711 5.9023 0 3.2422 2.6289 5.9023 5.8711 5.9023l11.137 0.003906v18.695h-11.137c-3.2422 0-5.8711 2.6641-5.8711 5.9023 0 3.2422 2.6289 5.9023 5.8711 5.9023l11.137 0.003906v19.68h-11.137c-3.2422 0-5.8711 2.6641-5.8711 5.9023 0 3.2422 2.6289 5.9023 5.8711 5.9023l11.137 0.003906v18.695h-11.137c-3.2422 0-5.8711 2.6641-5.8711 5.9023 0 3.2422 2.6289 5.9023 5.8711 5.9023l11.137 0.003906v18.695h-11.137c-3.2422 0-5.8711 2.6641-5.8711 5.9023 0 3.2422 2.6289 5.9023 5.8711 5.9023l11.137 0.003906v19.68h-11.137c-3.2422 0-5.8711 2.6602-5.8711 5.9023 0 3.2422 2.6289 5.9023 5.8711 5.9023l11.137 0.003907v18.695h-11.137c-3.2422 0-5.8711 2.6641-5.8711 5.9023 0 3.2422 2.6289 5.9023 5.8711 5.9023l11.137 0.003906v18.695h-11.137c-3.2422 0-5.8711 2.6602-5.8711 5.9023s2.6289 5.9023 5.8711 5.9023l11.137 0.003906v20.664h-11.137c-3.2422 0-5.8711 2.168-5.8711 5.4102 0 3.2422 2.6289 5.4102 5.8711 5.4102l11.137 0.003906v16.43c0 0.13672 0.19531 0.26562 0.20312 0.39844 0.015625 0.21484 0.10547 0.42578 0.14453 0.63672 0.035156 0.1875 0.12891 0.36719 0.17969 0.54688 0.050781 0.18359 0.12109 0.36719 0.1875 0.54297 0.070313 0.17969 0.16797 0.34766 0.25391 0.51953 0.085938 0.16797 0.17188 0.33594 0.27734 0.49609 0.10156 0.16406 0.22656 0.30859 0.34375 0.46094 0.11719 0.14844 0.22656 0.29688 0.35938 0.43359 0.14844 0.15625 0.3125 0.28906 0.47266 0.42969 0.10156 0.085938 0.1875 0.1875 0.29688 0.26953 0.035157 0.023437 0.074219 0.042968 0.10938 0.066406 0.10156 0.070312 0.20703 0.12891 0.3125 0.19141 0.19922 0.12109 0.40234 0.23438 0.61328 0.33203 0.11328 0.054687 0.23047 0.097656 0.35156 0.14453 0.22656 0.085937 0.45703 0.15625 0.69141 0.21484 0.10938 0.027344 0.21484 0.22266 0.32812 0.24219 0.35156 0.066406 0.70703 0.27344 1.0625 0.27344h0.003907 407.07c3.2422 0 5.8672-2.6602 5.8672-5.9023zm-54.164-323.58c1.043-2.0352 3.5859-2.8438 5.6211-1.8008 3.6055 1.8477 6.293 0.86328 7.0234 0.51953 1.0078-0.47656 1.332-1.0234 1.3594-1.1367-0.058594-0.14453-0.80078-1.1367-3.3672-2.0508-8.4336-3.0039-11.211-8.1797-10.621-12.02 0.49609-3.2305 4.0234-5.6875 5.9922-6.8203v-2.6953c0-2.2891 2.6328-4.1445 4.9219-4.1445 2.2891 0 4.9219 1.8555 4.9219 4.1445v2.3359c0 0.19141 1.8438 0.47266 2.9805 0.83203 2.1836 0.69141 3.2031 3.0234 2.5117 5.207-0.69531 2.1797-3.1172 3.3867-5.3008 2.6914-1.7344-0.55078-3.4414-0.81641-4.8516-0.76562-0.015625 0-0.050781 0-0.0625 0.003906-1.2656 0.050781-2.0234 0.34375-2.3672 0.55078 0.375 0.56641 1.6094 1.7852 4.668 2.875 6.9414 2.4648 8.4922 6.5547 8.8008 8.7734 0.44922 3.2383-0.71484 6.4531-3.7305 8.6016-0.92578 0.65625-2.6484 1.1836-2.6484 1.5781v3.0234c0 2.2891-2.6328 4.1445-4.9219 4.1445-2.2891 0-4.9219-1.8555-4.9219-4.1445v-2.4297c-0.98438-0.3125-2.9297-0.875-4.5234-1.6914-2.0391-1.0469-2.5273-3.543-1.4844-5.582zm-80.848 60.699c1.043-2.0352 3.6094-2.8438 5.6445-1.8008 3.6055 1.8477 6.3047 0.86328 7.0352 0.51953 1.0078-0.47656 1.3398-1.0273 1.3633-1.1367-0.058593-0.14453-0.79688-1.1367-3.3672-2.0469-8.4336-3.0039-11.152-8.1797-10.562-12.02 0.49219-3.2305 4.0781-5.6875 6.0469-6.8203v-2.6953c0-2.2891 2.6328-4.1445 4.9219-4.1445 2.2891 0 4.9219 1.8555 4.9219 4.1445v2.3359c0 0.19141 1.7891 0.47266 2.9297 0.83203 2.1797 0.69531 3.1758 3.0234 2.4805 5.207-0.69531 2.1797-3.1328 3.3867-5.3125 2.6953-1.7344-0.55469-3.4453-0.81641-4.8594-0.76562-0.011719 0-0.050781 0-0.0625 0.003906-1.2656 0.050781-2.0234 0.34375-2.3711 0.55078 0.375 0.56641 1.6094 1.7852 4.6641 2.875 6.9414 2.4648 8.4922 6.5547 8.8008 8.7734 0.44922 3.2383-0.65625 6.4531-3.6758 8.6016-0.92578 0.65625-2.5938 1.1836-2.5938 1.5781v3.0234c0 2.2891-2.6328 4.1445-4.9219 4.1445-2.2891 0-4.9219-1.8555-4.9219-4.1445v-2.4297c-0.98438-0.3125-2.9844-0.87891-4.5781-1.6914-2.0352-1.0547-2.625-3.5508-1.582-5.5898zm-79.824-66.57c1.043-2.0352 3.6094-2.8438 5.6445-1.8008 3.6094 1.8477 6.3047 0.86328 7.0352 0.51953 1.0078-0.47656 1.3398-1.0234 1.3633-1.1367-0.058593-0.14453-0.79687-1.1367-3.3672-2.0508-8.4336-3.0039-11.094-8.1797-10.504-12.02 0.49219-3.2305 4.1406-5.6875 6.1094-6.8203v-2.6953c0-2.2891 2.6328-4.1445 4.9219-4.1445 2.2891 0 4.9219 1.8555 4.9219 4.1445v2.3359c0 0.19141 1.7266 0.47266 2.8672 0.83203 2.1797 0.69141 3.1445 3.0234 2.4531 5.207-0.69531 2.1797-3.1445 3.3867-5.3281 2.6914-1.7344-0.55078-3.4531-0.81641-4.8672-0.76562-0.011719 0-0.054688 0-0.066406 0.003906-1.2656 0.050782-2.0234 0.34375-2.3711 0.55078 0.375 0.56641 1.6094 1.7852 4.6641 2.875 6.9414 2.4648 8.4922 6.5547 8.8008 8.7734 0.44922 3.2383-0.59766 6.4531-3.6211 8.6016-0.92578 0.65625-2.5312 1.1836-2.5312 1.5781v3.0234c0 2.2891-2.6328 4.1445-4.9219 4.1445-2.2891 0-4.9219-1.8555-4.9219-4.1445v-2.4297c-0.98438-0.3125-3.0469-0.875-4.6406-1.6914-2.0312-1.043-2.6836-3.543-1.6406-5.582zm-106.81 66.59c1.043-2.0352 3.6094-2.8438 5.6484-1.8008 3.6055 1.8477 6.3047 0.86328 7.0391 0.51953 1.0078-0.47656 1.3398-1.0273 1.3633-1.1367-0.058594-0.14453-0.79688-1.1367-3.3633-2.0469-8.4336-3.0039-11.316-8.1797-10.727-12.02 0.49219-3.2305 3.918-5.6875 5.8867-6.8242v-2.6953c0-2.2891 2.6328-4.1445 4.9219-4.1445s4.9219 1.8555 4.9219 4.1445v2.3359c0 0.19141 1.9492 0.47266 3.0898 0.83203 2.1797 0.69531 3.2578 3.0234 2.5625 5.207-0.69531 2.1797-3.0898 3.4297-5.2695 2.7383-1.7344-0.55469-3.4258-0.72266-4.8398-0.72266h-0.054688c-1.2656 0-2.0195 0.30078-2.3633 0.50781 0.375 0.56641 1.6133 1.7656 4.668 2.8555 6.9414 2.4648 8.4922 6.543 8.8008 8.7617 0.44922 3.2383-0.82031 6.4492-3.8398 8.5938-0.92578 0.66016-2.7539 1.1797-2.7539 1.5742v3.0234c0 2.2891-2.6328 4.1445-4.9219 4.1445s-4.9219-1.8555-4.9219-4.1445v-2.4297c-0.98438-0.3125-2.8242-0.875-4.418-1.6914-2.043-1.043-2.4766-3.543-1.4297-5.582z"/>
</svg>