<?xml version="1.0" encoding="UTF-8"?>
<!-- The Best Svg Icon site in the world: iconSvg.co, Visit us! https://iconsvg.co -->
<svg width="800px" height="800px" version="1.1" viewBox="144 144 512 512" xmlns="http://www.w3.org/2000/svg">
 <defs>
  <clipPath id="b">
   <path d="m616 369h35.902v26h-35.902z"/>
  </clipPath>
  <clipPath id="a">
   <path d="m148.09 375h35.906v25h-35.906z"/>
  </clipPath>
 </defs>
 <path d="m515.85 513.67c-46.723 0-88.938-25.863-110.16-67.492-1.3438-2.6367-0.29688-5.8672 2.3398-7.207 2.6367-1.3438 5.8672-0.29688 7.207 2.3398 19.387 38.023 57.941 61.645 100.61 61.645 2.9609 0 5.3594 2.3984 5.3594 5.3594 0.003906 2.9531-2.3984 5.3555-5.3594 5.3555z"/>
 <path d="m517.89 526.1c-0.69141 0-1.0742-0.13281-1.7383-0.41016-2.0039-0.82812-2.9961-2.7812-2.9961-4.9492v-24.871c0-2.168 0.99609-4.1211 2.9961-4.9531s4.1523-0.37109 5.6836 1.1641l12.359 12.438c2.0938 2.0898 2.0547 5.4844-0.039063 7.5781l-12.457 12.438c-1.0234 1.0234-2.4141 1.5664-3.8086 1.5664z"/>
 <path d="m569.54 500.77c-1.9531 0-3.832-1.0703-4.7773-2.9258-1.3438-2.6406-0.29688-5.8672 2.3438-7.207 38.02-19.371 61.641-57.914 61.641-100.59 0-2.957 2.3984-5.3594 5.3594-5.3594 2.9609 0 5.3594 2.3984 5.3594 5.3594 0 46.723-25.859 88.926-67.492 110.13-0.78125 0.39844-1.6133 0.58594-2.4336 0.58594z"/>
 <g clip-path="url(#b)">
  <path d="m646.54 393.83c-0.007813-0.003906-0.011719 0.26562-0.019531 0.26562l-24.859-0.003906c-2.168 0-4.1211-1.5703-4.9492-3.5742-0.83203-2.0039-0.37109-4.4414 1.1641-5.9727l12.438-12.961c1.0039-1.0039 2.3672-2.0938 3.7891-2.0938h0.003906c1.4219 0 2.7852 1.0234 3.793 2.0312l12.145 12.391c1.1406 0.98438 1.8633 2.6836 1.8633 4.3086-0.007812 2.9609-2.4062 5.6094-5.3672 5.6094z"/>
 </g>
 <path d="m621.21 341.74c-1.9531 0-3.832-1.0703-4.7812-2.9297-19.375-38.035-57.914-61.664-100.58-61.664-2.9609 0-5.3594-2.3984-5.3594-5.3594 0-2.957 2.3984-5.3594 5.3594-5.3594 46.719 0 88.918 25.871 110.13 67.516 1.3438 2.6367 0.29688 5.8633-2.3438 7.207-0.77734 0.40234-1.6055 0.58984-2.4258 0.58984z"/>
 <path d="m513.61 289.6c-1.3984 0-2.7695-0.54687-3.793-1.5742l-12.422-12.453c-2.0859-2.0938-2.0859-5.4805 0.003907-7.5703l12.422-12.438c1.5312-1.5352 3.8867-1.9961 5.8906-1.1641 2.0039 0.82812 3.3555 2.7852 3.3555 4.9531v24.887c0 2.168-1.3555 4.125-3.3594 4.9531-0.66406 0.27344-1.4062 0.40625-2.0977 0.40625z"/>
 <path d="m397.58 395.41c-2.9609 0-5.3594-2.3984-5.3594-5.3594 0-46.688 25.859-88.895 67.484-110.15 2.6367-1.3477 5.8633-0.30078 7.2109 2.3359 1.3477 2.6367 0.30078 5.8633-2.3359 7.2109-38.023 19.418-61.641 57.969-61.641 100.61 0 2.957-2.3984 5.3594-5.3594 5.3594z"/>
 <path d="m397.58 409.21c-1.3711 0-2.7422-0.52344-3.7891-1.5703l-12.43-12.43c-1.5312-1.5312-1.9922-3.7578-1.1602-5.7617 0.82812-2.0039 2.7852-3.2266 4.9531-3.2266h24.895c2.168 0 4.1211 1.2266 4.9531 3.2344 0.82812 2.0039 0.36328 4.2734-1.168 5.8008l-12.465 12.406c-1.0508 1.0469-2.418 1.5469-3.7891 1.5469z"/>
 <path d="m230.47 505.96c-0.81641 0-1.6484-0.1875-2.4258-0.58594-41.633-21.191-67.492-63.391-67.492-110.12 0-2.9609 2.3984-5.3594 5.3594-5.3594 2.957 0 5.3594 2.3984 5.3594 5.3594 0 42.68 23.617 81.219 61.637 100.57 2.6367 1.3398 3.6875 4.5703 2.3477 7.207-0.94922 1.8633-2.832 2.9297-4.7852 2.9297z"/>
 <g clip-path="url(#a)">
  <path d="m178.34 399.02h-24.887c-2.168 0-4.1211-1.3516-4.9531-3.3516-0.82812-2.0039-0.37109-4.3281 1.1602-5.8633l12.461-12.645c1.0039-1.0039 2.3672-1.7539 3.7891-1.7539h0.003906c1.4219 0 2.7852 0.74219 3.793 1.75l12.43 12.547c1.5273 1.5352 1.9844 3.9258 1.1562 5.9258-0.83203 2-2.7852 3.3906-4.9531 3.3906z"/>
 </g>
 <path d="m172.05 343.39c-0.82031 0-1.6484-0.1875-2.4258-0.58594-2.6367-1.3438-3.6875-4.5703-2.3438-7.207 21.203-41.633 63.398-67.492 110.12-67.492 2.9609 0 5.3594 2.3984 5.3594 5.3594 0 2.9609-2.3984 5.3594-5.3594 5.3594-42.672 0-81.211 23.617-100.57 61.641-0.94531 1.8555-2.8281 2.9258-4.7812 2.9258z"/>
 <path d="m278.86 291.26c-0.69141 0-1.6094-0.13281-2.2734-0.41016-2.0039-0.82812-3.5312-2.7852-3.5312-4.9531v-24.867c0-2.168 1.5273-4.1211 3.5273-4.9531 2-0.82812 4.418-0.37109 5.9492 1.1602l12.492 12.43c1.0039 1.0039 1.5977 2.3672 1.5977 3.7891s-0.55078 2.7852-1.5547 3.793l-12.43 12.438c-1.0195 1.0273-2.3828 1.5742-3.7773 1.5742z"/>
 <path d="m279.58 509.62c-2.9609 0-5.3594-2.3984-5.3594-5.3594 0-2.9609 2.3984-5.3594 5.3594-5.3594 42.668 0 81.219-23.621 100.61-61.645 1.3438-2.6367 4.5742-3.6875 7.207-2.3398 2.6367 1.3438 3.6836 4.5703 2.3398 7.207-21.227 41.637-63.434 67.496-110.15 67.496z"/>
 <path d="m277.79 522.05c-1.3945 0-2.7656-0.54297-3.793-1.5703l-12.43-12.438c-2.0898-2.0898-2.0938-5.4844-0.003906-7.5742l12.43-12.453c1.5312-1.5352 3.7148-1.9961 5.7188-1.168 2.0039 0.82813 3.1875 2.7852 3.1875 4.9531v24.887c0 2.1641-1.1836 4.1211-3.1836 4.9492-0.66406 0.28125-1.2344 0.41406-1.9258 0.41406z"/>
 <path d="m397.58 395.41c-2.9609 0-5.3594-2.3984-5.3594-5.3594 0-42.656-23.621-81.207-61.641-100.61-2.6367-1.3438-3.6836-4.5742-2.3398-7.2109s4.5703-3.6836 7.207-2.3398c41.629 21.238 67.488 63.449 67.488 110.15 0.003906 2.9609-2.3945 5.3633-5.3555 5.3633z"/>
 <path d="m278.86 439.66c-2.957 0-5.3594-2.3984-5.3594-5.3594v-10.766c-5.2656-0.36328-10.668-1.8398-15.762-4.4414-2.6367-1.3438-3.6836-4.5742-2.3359-7.2109 1.3438-2.6367 4.5742-3.6836 7.2109-2.3359 10.812 5.5156 20.348 3.4219 25.227-0.050781 2.8047-1.9961 4.2852-4.5625 3.9648-6.8633-0.49219-3.5391-5.0391-7.1602-12.156-9.6914-18.68-6.6367-24.055-17.344-22.863-25.152 1.1172-7.3008 7.4883-12.605 16.715-14.273v-11.398c0-2.9609 2.3984-5.3594 5.3594-5.3594 2.9609 0 5.3594 2.3984 5.3594 5.3594v11.055c3.8594 0.36328 7.9141 1.207 12.117 2.5156 2.8242 0.88281 4.4023 3.8867 3.5234 6.7109-0.87891 2.8281-3.8828 4.4023-6.7109 3.5234-5.1289-1.5977-10.078-2.3594-14.312-2.2227-7.3047 0.27734-11.062 3.1523-11.453 5.7109-0.54688 3.5586 4.1836 9.2812 15.855 13.43 15.223 5.4102 18.551 13.793 19.184 18.309 0.88281 6.3359-2.2422 12.719-8.3633 17.078-2.9141 2.0742-6.2539 3.5586-9.8359 4.4336v11.641c-0.003906 2.957-2.4023 5.3594-5.3633 5.3594z"/>
 <path d="m278.69 480.43c-50.711 0-91.969-41.262-91.969-91.98 0-50.711 41.258-91.969 91.969-91.969 50.723 0 91.992 41.258 91.992 91.969 0 50.719-41.27 91.98-91.992 91.98zm0-173.23c-44.801 0-81.25 36.449-81.25 81.25 0 44.809 36.449 81.262 81.25 81.262 44.812 0 81.273-36.453 81.273-81.262 0-44.801-36.461-81.25-81.273-81.25z"/>
 <path d="m514.11 480.43c-50.715 0-91.977-41.262-91.977-91.98 0-50.711 41.262-91.969 91.977-91.969 50.73 0 92.008 41.258 92.008 91.969 0 50.719-41.277 91.98-92.008 91.98zm0-173.23c-44.805 0-81.258 36.449-81.258 81.25 0 44.809 36.449 81.262 81.258 81.262 44.824 0 81.285-36.453 81.285-81.262 0.003906-44.801-36.461-81.25-81.285-81.25z"/>
 <path d="m529.61 436.95c-26.727 0-48.473-21.75-48.473-48.492 0-26.727 21.746-48.469 48.473-48.469 2.9609 0 5.3594 2.3984 5.3594 5.3594s-2.3984 5.3594-5.3594 5.3594c-20.816 0-37.754 16.934-37.754 37.75 0 20.828 16.938 37.773 37.754 37.773 2.9609 0 5.3594 2.3984 5.3594 5.3594 0 2.9609-2.4023 5.3594-5.3594 5.3594z"/>
 <path d="m515.75 383.27h-43.949c-2.9609 0-5.3594-2.9453-5.3594-5.9023 0-2.9609 2.3984-5.9023 5.3594-5.9023h43.949c2.9609 0 5.3594 2.9453 5.3594 5.9023 0 2.9609-2.3984 5.9023-5.3594 5.9023z"/>
 <path d="m515.75 398.03h-43.949c-2.9609 0-5.3594-2.4531-5.3594-5.4102 0-2.9609 2.3984-5.4102 5.3594-5.4102h43.949c2.9609 0 5.3594 2.4531 5.3594 5.4102 0 2.957-2.3984 5.4102-5.3594 5.4102z"/>
 <path d="m393.56 287.45c-2.9609 0-5.3594-2.3984-5.3594-5.3594v-7.5039h-7.5039c-2.957 0-5.3594-2.3984-5.3594-5.3594 0-2.9609 2.3984-5.3594 5.3594-5.3594h7.5039v-8.5742c0-2.9609 2.3984-5.3594 5.3594-5.3594 2.9609 0 5.3594 2.3984 5.3594 5.3594v8.5742h8.5742c2.9609 0 5.3594 2.3984 5.3594 5.3594 0 2.9609-2.3984 5.3594-5.3594 5.3594l-8.5742 0.003906v7.5039c0 2.957-2.4023 5.3555-5.3594 5.3555z"/>
 <path d="m182.39 286.38c-2.957 0-5.3594-2.3984-5.3594-5.3594v-7.5039h-7.5039c-2.9609 0-5.3594-2.3984-5.3594-5.3594 0-2.957 2.3984-5.3594 5.3594-5.3594h7.5039v-8.5742c0-2.957 2.3984-5.3594 5.3594-5.3594 2.9609 0 5.3594 2.3984 5.3594 5.3594v8.5742h8.5742c2.957 0 5.3594 2.3984 5.3594 5.3594s-2.3984 5.3594-5.3594 5.3594h-8.5742v7.5039c0 2.9609-2.3984 5.3594-5.3594 5.3594z"/>
 <path d="m585.05 552.42c-1.3711 0-2.7422-0.52344-3.7891-1.5703l-9.7148-9.7031-9.7148 9.7031c-2.0938 2.0938-5.4883 2.0898-7.5781-0.007812-2.0938-2.0938-2.0898-5.4844 0.007812-7.5781l9.707-9.6953-9.707-9.6953c-2.0977-2.0898-2.0977-5.4844-0.007812-7.5781s5.4844-2.0977 7.5781-0.003907l9.7148 9.7031 9.7148-9.7031c2.0938-2.0938 5.4883-2.0938 7.5781 0.003907 2.0938 2.0938 2.0898 5.4883-0.003907 7.5781l-9.707 9.6953 9.707 9.6953c2.0938 2.0938 2.0977 5.4844 0.003907 7.5781-1.043 1.0547-2.418 1.5781-3.7891 1.5781z"/>
 <path d="m622.5 280.7c-1.3711 0-2.7422-0.52344-3.7891-1.5703l-9.6992-9.6992-9.6992 9.6992c-2.0898 2.0938-5.4883 2.0938-7.5781 0-2.0938-2.0938-2.0938-5.4844 0-7.5781l9.6953-9.6992-9.6953-9.6992c-2.0938-2.0938-2.0938-5.4883 0-7.5781 2.0898-2.0938 5.4883-2.0938 7.5781 0l9.6992 9.6992 9.6992-9.6992c2.0938-2.0938 5.4883-2.0938 7.5781 0 2.0938 2.0938 2.0938 5.4883 0 7.5781l-9.6953 9.6992 9.6953 9.6992c2.0938 2.0938 2.0938 5.4883 0 7.5781-1.0469 1.0469-2.418 1.5703-3.7891 1.5703z"/>
 <path d="m236.92 557c-10.41 0-18.879-8.4531-18.879-18.848 0-10.391 8.4688-18.844 18.879-18.844 10.391 0 18.848 8.4531 18.848 18.844 0 10.395-8.4531 18.848-18.848 18.848zm0-26.973c-4.4961 0-8.1602 3.6445-8.1602 8.1289s3.6602 8.1289 8.1602 8.1289c4.4805 0 8.1289-3.6445 8.1289-8.1289s-3.6445-8.1289-8.1289-8.1289z"/>
</svg>