<?xml version="1.0" encoding="UTF-8"?>
<!-- The Best Svg Icon site in the world: iconSvg.co, Visit us! https://iconsvg.co -->
<svg fill="#000000" width="800px" height="800px" version="1.1" viewBox="144 144 512 512" xmlns="http://www.w3.org/2000/svg">
 <g>
  <path d="m415.63 387.26c-0.16406-0.21484-0.64062-0.57031-1.4297-1.0625-0.78906-0.48828-1.7969-1.0195-3.0195-1.5938-1.2227-0.57031-2.5859-1.1133-4.082-1.6328-1.4961-0.51562-3.0078-0.88281-4.5312-1.1016v11.102l2.6133 0.65234c2.7734 0.76172 5.2773 1.5938 7.5117 2.4883 2.2305 0.89844 4.1211 2.0156 5.6758 3.3477 1.5508 1.332 2.7461 2.9531 3.5898 4.8594s1.2656 4.1914 1.2656 6.8594c0 3.1016-0.54687 5.7422-1.6328 7.918-1.0859 2.1758-2.543 3.957-4.3672 5.3477-1.8242 1.3867-3.918 2.4375-6.2852 3.1445-2.3672 0.70703-4.8594 1.1133-7.4688 1.2227v9.4688h-5.6328v-9.5508c-3.7578-0.32812-7.4688-1.0859-11.145-2.2852-3.6719-1.1953-6.9805-2.7773-9.918-4.7344l5.8789-11.676c0.21484 0.27344 0.80078 0.72266 1.7539 1.3477s2.1641 1.2812 3.6328 1.9609 3.1289 1.3359 4.9805 1.9609c1.8477 0.625 3.7539 1.0742 5.7148 1.3477v-10.859l-3.918-1.1406c-2.668-0.81641-4.9805-1.6992-6.9375-2.6523-1.9609-0.95312-3.582-2.0547-4.8594-3.3047-1.2773-1.25-2.2344-2.6953-2.8594-4.3281-0.625-1.6328-0.9375-3.5391-0.9375-5.7148 0-2.8281 0.48828-5.3477 1.4688-7.5508 0.98047-2.2031 2.2969-4.0938 3.9609-5.6719 1.6602-1.5781 3.6172-2.8164 5.8789-3.7148 2.2578-0.89844 4.6953-1.4805 7.3047-1.7539v-8.2461h5.6328v8.2461c3.5352 0.32812 6.8594 1.1172 9.9609 2.3672 3.1016 1.2539 5.7969 2.5312 8.082 3.8359zm-22.613-0.73438c0 1.3594 0.47656 2.4375 1.4297 3.2266 0.95312 0.78906 2.3789 1.4844 4.2852 2.082v-10.043c-3.8125 0.32812-5.7148 1.9062-5.7148 4.7344zm15.836 25.961c0-1.4141-0.57031-2.5156-1.7148-3.3047-1.1445-0.78906-2.668-1.5078-4.5742-2.1641v9.7969c4.1953-0.16406 6.2891-1.6055 6.2891-4.3281z"/>
  <path d="m400 459.18c-32.629 0-59.176-26.547-59.176-59.176s26.547-59.176 59.176-59.176c32.629-0.003907 59.176 26.543 59.176 59.176 0 32.629-26.547 59.176-59.176 59.176zm0-104.58c-25.035 0-45.402 20.367-45.402 45.402s20.367 45.402 45.402 45.402 45.402-20.367 45.402-45.402c-0.003906-25.035-20.371-45.402-45.402-45.402z"/>
  <path d="m400 508.38c-59.758 0-108.38-48.617-108.38-108.38 0-3.8047 3.082-6.8867 6.8867-6.8867 3.8047 0 6.8867 3.082 6.8867 6.8867 0 52.164 42.438 94.602 94.602 94.602 52.164 0 94.602-42.438 94.602-94.602 0-52.164-42.438-94.602-94.602-94.602-3.8047 0-6.8867-3.082-6.8867-6.8867 0-3.8047 3.082-6.8867 6.8867-6.8867 59.758 0 108.38 48.617 108.38 108.38 0 59.758-48.617 108.38-108.38 108.38z"/>
  <path d="m400 623.37c-59.664 0-115.76-23.234-157.95-65.422-42.191-42.191-65.426-98.281-65.426-157.95s23.234-115.76 65.426-157.95c42.188-42.191 98.281-65.426 157.95-65.426s115.76 23.234 157.95 65.422c42.188 42.191 65.422 98.285 65.422 157.95s-23.234 115.76-65.422 157.95c-42.191 42.188-98.281 65.422-157.95 65.422zm0-432.96c-115.57 0-209.59 94.023-209.59 209.59s94.023 209.59 209.59 209.59 209.59-94.023 209.59-209.59c-0.003906-115.57-94.027-209.59-209.59-209.59z"/>
  <path d="m400 554.49c-85.184 0-154.49-69.305-154.49-154.49 0-85.188 69.301-154.49 154.49-154.49 85.184 0 154.49 69.305 154.49 154.49s-69.305 154.49-154.49 154.49zm0-295.2c-77.59 0-140.71 63.121-140.71 140.71s63.121 140.71 140.71 140.71 140.71-63.121 140.71-140.71c0-77.586-63.121-140.71-140.71-140.71z"/>
  <path d="m400 259.29c-3.8047 0-6.8867-3.082-6.8867-6.8867l-0.003906-68.879c0-3.8047 3.082-6.8867 6.8867-6.8867 3.8047 0 6.8867 3.082 6.8867 6.8867v68.879c0.003907 3.8047-3.082 6.8867-6.8828 6.8867z"/>
  <path d="m400 623.37c-3.8047 0-6.8867-3.082-6.8867-6.8867v-68.879c0-3.8047 3.082-6.8867 6.8867-6.8867s6.8867 3.082 6.8867 6.8867v68.879c0 3.8047-3.0859 6.8867-6.8867 6.8867z"/>
  <path d="m504.37 302.52c-1.7617 0-3.5273-0.67188-4.8711-2.0156-2.6914-2.6875-2.6914-7.0508 0-9.7422l48.703-48.707c2.6914-2.6875 7.0508-2.6875 9.7422 0s2.6914 7.0508 0 9.7422l-48.703 48.707c-1.3438 1.3438-3.1094 2.0156-4.8711 2.0156z"/>
  <path d="m246.93 559.96c-1.7617 0-3.5273-0.67188-4.8711-2.0156-2.6914-2.6914-2.6914-7.0508 0-9.7422l48.707-48.707c2.6875-2.6914 7.0508-2.6875 9.7422 0 2.6914 2.6914 2.6914 7.0508 0 9.7422l-48.707 48.707c-1.3477 1.3438-3.1094 2.0156-4.8711 2.0156z"/>
  <path d="m616.48 406.89h-68.879c-3.8047 0-6.8867-3.082-6.8867-6.8867s3.082-6.8867 6.8867-6.8867h68.879c3.8047 0 6.8867 3.082 6.8867 6.8867 0 3.8008-3.082 6.8867-6.8867 6.8867z"/>
  <path d="m252.4 406.89h-68.879c-3.8047 0-6.8867-3.082-6.8867-6.8867s3.082-6.8867 6.8867-6.8867h68.879c3.8047 0 6.8867 3.082 6.8867 6.8867 0 3.8008-3.082 6.8867-6.8867 6.8867z"/>
  <path d="m553.07 559.96c-1.7617 0-3.5273-0.67188-4.8711-2.0195l-48.703-48.707c-2.6875-2.6875-2.6875-7.0508 0-9.7422 2.6875-2.6875 7.0508-2.6875 9.7422 0l48.703 48.707c2.6875 2.6875 2.6875 7.0508 0 9.7422-1.3477 1.3477-3.1094 2.0195-4.8711 2.0195z"/>
  <path d="m295.63 302.52c-1.7617 0-3.5273-0.67188-4.8711-2.0156l-48.707-48.707c-2.6914-2.6875-2.6914-7.0508 0-9.7422 2.6875-2.6875 7.0508-2.6875 9.7422 0l48.707 48.707c2.6914 2.6875 2.6914 7.0508 0 9.7422-1.3438 1.3438-3.1055 2.0156-4.8711 2.0156z"/>
 </g>
</svg>