<?xml version="1.0" encoding="UTF-8"?>
<!-- The Best Svg Icon site in the world: iconSvg.co, Visit us! https://iconsvg.co -->
<svg fill="#000000" width="800px" height="800px" version="1.1" viewBox="144 144 512 512" xmlns="http://www.w3.org/2000/svg">
 <g>
  <path d="m392.12 305.54v-7.8711c-6.2617 0-12.27-2.4883-16.699-6.918-4.4258-4.4297-6.9141-10.438-6.9141-16.699 0-4.3477 3.5234-7.8711 7.8711-7.8711 4.3477 0 7.8711 3.5234 7.8711 7.8711 0 2.0859 0.82812 4.0898 2.3047 5.5664 1.4766 1.4766 3.4805 2.3047 5.5664 2.3047h15.746c4.3477 0 7.8711-3.5234 7.8711-7.8711s-3.5234-7.8711-7.8711-7.8711h-15.746c-8.4375 0-16.23-4.5039-20.449-11.809-4.2188-7.3086-4.2188-16.309 0-23.617s12.012-11.809 20.449-11.809v-7.8711c0-4.3477 3.5273-7.8711 7.875-7.8711-19.688 0-37.879 10.5-47.723 27.551s-9.8438 38.055 0 55.105c9.8438 17.047 28.035 27.551 47.723 27.551-4.3477 0-7.875-3.5234-7.875-7.8711z"/>
  <path d="m400 203.2c2.0859 0 4.0898 0.82812 5.5664 2.3047 1.4766 1.4766 2.3047 3.4766 2.3047 5.5664v7.8711c6.2617 0 12.27 2.4883 16.699 6.918 4.4297 4.4297 6.918 10.434 6.918 16.699 0 4.3477-3.5273 7.8711-7.875 7.8711-4.3477 0-7.8711-3.5234-7.8711-7.8711 0-2.0898-0.82813-4.0898-2.3047-5.5664-1.4766-1.4766-3.4805-2.3047-5.5664-2.3047h-15.746c-4.3477 0-7.8711 3.5234-7.8711 7.8711s3.5234 7.8711 7.8711 7.8711h15.746c8.4375 0 16.234 4.5 20.453 11.809 4.2188 7.3086 4.2188 16.309 0 23.617-4.2188 7.3047-12.016 11.809-20.453 11.809v7.8711c0 2.0859-0.82812 4.0898-2.3047 5.5664-1.4766 1.4766-3.4805 2.3047-5.5664 2.3047 19.684 0 37.875-10.504 47.719-27.551 9.8438-17.051 9.8438-38.055 0-55.105s-28.035-27.551-47.719-27.551z"/>
  <path d="m234.69 298.37v38.652h38.652-0.003906c-1.6289-9.6602-6.2266-18.57-13.156-25.496-6.9258-6.9258-15.836-11.523-25.492-13.156z"/>
  <path d="m565.31 282.47v-48.332c-13.855-1.7578-26.734-8.0703-36.609-17.945s-16.188-22.754-17.945-36.609h-221.52c-1.7578 13.855-8.0703 26.734-17.945 36.609s-22.754 16.188-36.605 17.945v48.336-0.003906c13.852 1.7578 26.73 8.0703 36.605 17.945s16.188 22.754 17.945 36.609h221.52c1.7578-13.855 8.0703-26.734 17.945-36.609s22.754-16.188 36.609-17.945zm-259.78-16.293h-23.617c-4.3477 0-7.8711-3.5273-7.8711-7.875 0-4.3477 3.5234-7.8711 7.8711-7.8711h23.617c4.3477 0 7.8711 3.5234 7.8711 7.8711 0 4.3477-3.5234 7.875-7.8711 7.875zm94.465 62.977v-0.003906c-18.793 0-36.812-7.4609-50.098-20.75-13.289-13.285-20.754-31.305-20.754-50.098 0-18.789 7.4648-36.809 20.754-50.098 13.285-13.285 31.305-20.75 50.098-20.75 18.789 0 36.809 7.4648 50.098 20.75 13.285 13.289 20.75 31.309 20.75 50.098-0.023437 18.785-7.4922 36.793-20.773 50.074-13.285 13.285-31.293 20.754-50.074 20.773zm118.08-62.977h-23.621c-4.3477 0-7.8711-3.5273-7.8711-7.875 0-4.3477 3.5234-7.8711 7.8711-7.8711h23.617c4.3477 0 7.8711 3.5234 7.8711 7.8711 0 4.3477-3.5234 7.875-7.8711 7.875z"/>
  <path d="m273.34 179.58h-38.648v38.652c9.6562-1.6328 18.566-6.2305 25.492-13.156 6.9297-6.9258 11.527-15.84 13.156-25.496z"/>
  <path d="m565.31 218.23v-38.652h-38.652c1.6328 9.6562 6.2305 18.57 13.156 25.496 6.9258 6.9258 15.836 11.523 25.496 13.156z"/>
  <path d="m526.66 337.02h38.652v-38.652c-9.6602 1.6328-18.57 6.2305-25.496 13.156-6.9258 6.9258-11.523 15.836-13.156 25.496z"/>
  <path d="m305.54 494.46h188.93v15.742h-188.93z"/>
  <path d="m462.98 400c-11.746 0.019531-23.18 3.7852-32.637 10.75-9.457 6.9648-16.445 16.77-19.949 27.98l58.094-38.73z"/>
  <path d="m484.07 408.5-58.094 38.73h5.5117c11.742-0.019531 23.176-3.7852 32.633-10.754 9.4609-6.9648 16.449-16.766 19.949-27.977z"/>
  <path d="m337.02 400h-5.5117l58.094 38.73h0.003906c-3.5039-11.211-10.492-21.016-19.949-27.98-9.4609-6.9648-20.891-10.73-32.637-10.75z"/>
  <path d="m368.51 447.23h5.5117l-58.094-38.73h-0.003907c3.5039 11.211 10.492 21.012 19.949 27.977 9.457 6.9688 20.891 10.734 32.637 10.754z"/>
  <path d="m573.18 462.98c2.0859 0 4.0898 0.82813 5.5664 2.3047s2.3047 3.4766 2.3047 5.5664v149.57h15.742l0.003906-149.57c0-4.3477 3.5234-7.8711 7.8711-7.8711h9.3828l-25.262-40.25-25.055 40.25z"/>
  <path d="m185.95 462.98h9.375c2.0898 0 4.0898 0.82813 5.5664 2.3047s2.3086 3.4766 2.3086 5.5664v149.57h15.742v-149.57c0-4.3477 3.5234-7.8711 7.8711-7.8711h9.4453l-25.055-40.25z"/>
  <path d="m464 620.41 13.539-94.465h-155.08l13.539 94.465h-61.953v15.746h251.9v-15.746z"/>
  <path d="m392.12 352.77h15.742v125.95h-15.742z"/>
 </g>
</svg>