<?xml version="1.0" encoding="UTF-8"?>
<!-- The Best Svg Icon site in the world: iconSvg.co, Visit us! https://iconsvg.co -->
<svg fill="#000000" width="800px" height="800px" version="1.1" viewBox="144 144 512 512" xmlns="http://www.w3.org/2000/svg">
 <g>
  <path d="m367.82 342.61h-88.016c-5.5664 0-10.098 4.5273-10.098 10.098v18.359c0 5.5625 4.5273 10.09 10.098 10.09h88.016c5.5664 0 10.098-4.5273 10.098-10.09v-18.359c0-5.5664-4.5312-10.098-10.098-10.098zm-2.4961 25.953h-83.02v-13.355h83.02z"/>
  <path d="m517.55 194.65c-6.1523-1.3359-12.434-2.0117-18.676-2.0117-40.902 0-76.902 29.055-85.594 69.086-3.5781 16.48-2.1875 33.434 3.5117 48.859h-155.08c-12.004 0-21.773 9.7695-21.773 21.781v123.49l-22.73 123.02c-0.070312 0.37891-0.10547 0.76172-0.10547 1.1445 0 13.406 10.906 24.309 24.309 24.309h277.96c13.41 0 24.32-10.906 24.32-24.309 0-0.38281-0.035156-0.76562-0.10547-1.1445l-22.73-123.02-0.003906-90.676c31.336-8.1914 56.68-33.555 63.777-66.258 10.258-47.234-19.836-94.012-67.074-104.27zm1.8164 397.07h-277.96c-6.2891 0-11.43-4.9766-11.703-11.199l21.77-117.81h257.84l21.77 117.81c-0.27344 6.2227-5.4219 11.199-11.715 11.199zm-11.113-141.61h-255.72v-117.76c0-5.0625 4.1172-9.1836 9.1797-9.1836h160.92c3.8789 6.918 8.6758 13.367 14.391 19.09l-8.2656 38.074c-0.53906 2.4883 0.47266 5.0586 2.5625 6.5078 1.0781 0.74609 2.332 1.125 3.5859 1.125 1.1836 0 2.3672-0.33203 3.4062-1.0039l35.348-22.738c2.3008 0.70703 4.5078 1.2852 6.6875 1.7578 6.1523 1.3359 12.438 2.0117 18.68 2.0117h0.003906c3.1094 0 6.1719-0.22266 9.2148-0.55078l-0.003906 82.668zm64.062-153.87c-7.4414 34.277-38.258 59.164-73.277 59.164-5.3516 0-10.734-0.57812-16.012-1.7227-2.6094-0.57031-5.3047-1.3281-8.2383-2.3242-1.8125-0.61328-3.8125-0.37891-5.4297 0.66406l-25.066 16.121 5.7852-26.652c0.47266-2.1797-0.24219-4.4531-1.8906-5.9688-19.559-18.016-28.219-45.277-22.602-71.137 7.4414-34.277 38.266-59.164 73.285-59.164 5.3438 0 10.727 0.57812 16 1.7266 40.461 8.7891 66.227 48.84 57.445 89.293z"/>
  <path d="m326.02 483.59h-50.004c-3.4766 0-6.2969 2.8203-6.2969 6.2969s2.8203 6.2969 6.2969 6.2969h50.004c3.4766 0 6.2969-2.8203 6.2969-6.2969 0-3.4727-2.8203-6.2969-6.2969-6.2969z"/>
  <path d="m352.49 496.19h132.29c3.4766 0 6.2969-2.8203 6.2969-6.2969 0-3.4766-2.8203-6.2969-6.2969-6.2969l-132.29-0.003906c-3.4766 0-6.2969 2.8203-6.2969 6.2969 0 3.4805 2.8164 6.3008 6.2969 6.3008z"/>
  <path d="m326.02 514.55h-54.992c-3.4766 0-6.2969 2.8203-6.2969 6.2969 0 3.4766 2.8203 6.2969 6.2969 6.2969h54.992c3.4766 0 6.2969-2.8203 6.2969-6.2969 0-3.4766-2.8203-6.2969-6.2969-6.2969z"/>
  <path d="m352.49 527.15h138.53c3.4766 0 6.2969-2.8203 6.2969-6.2969 0-3.4766-2.8203-6.2969-6.2969-6.2969h-138.53c-3.4766 0-6.2969 2.8203-6.2969 6.2969 0 3.4766 2.8164 6.2969 6.2969 6.2969z"/>
  <path d="m366.33 405.57h-90.316c-3.4766 0-6.2969 2.8203-6.2969 6.2969 0 3.4766 2.8203 6.2969 6.2969 6.2969h90.316c3.4766 0 6.2969-2.8203 6.2969-6.2969 0-3.4766-2.8203-6.2969-6.2969-6.2969z"/>
  <path d="m484.77 405.57h-88.848c-3.4766 0-6.2969 2.8203-6.2969 6.2969 0 3.4766 2.8203 6.2969 6.2969 6.2969h88.848c3.4766 0 6.2969-2.8203 6.2969-6.2969 0-3.4766-2.8203-6.2969-6.2969-6.2969z"/>
  <path d="m326.02 546.98h-58.246c-3.4766 0-6.2969 2.8203-6.2969 6.2969s2.8203 6.2969 6.2969 6.2969h58.246c3.4766 0 6.2969-2.8203 6.2969-6.2969s-2.8203-6.2969-6.2969-6.2969z"/>
  <path d="m495.64 546.98h-143.15c-3.4766 0-6.2969 2.8203-6.2969 6.2969s2.8203 6.2969 6.2969 6.2969h143.15c3.4766 0 6.2969-2.8203 6.2969-6.2969s-2.8203-6.2969-6.3008-6.2969z"/>
  <path d="m523.46 237.99h-49.012c-1.9453 0-3.7773 0.89844-4.9688 2.4297l-27.488 35.301c-1.4766 1.8984-1.7422 4.4727-0.69141 6.6367 1.0547 2.1602 3.2539 3.5312 5.6562 3.5312h13.906v31.152c0 3.4766 2.8203 6.2969 6.2969 6.2969h63.582c3.4766 0 6.2969-2.8203 6.2969-6.2969l0.003907-31.152h13.906c2.4102 0 4.6055-1.3711 5.6562-3.5312 1.0547-2.1602 0.78906-4.7344-0.69141-6.6367l-27.488-35.301c-1.1914-1.5312-3.0195-2.4297-4.9648-2.4297zm7.2852 35.301c-3.4766 0-6.2969 2.8203-6.2969 6.2969v31.152h-50.984v-31.148c0-3.4766-2.8203-6.2969-6.2969-6.2969l-7.3164-0.003907 17.68-22.707h42.855l17.68 22.707z"/>
 </g>
</svg>