<?xml version="1.0" encoding="UTF-8"?>
<!-- The Best Svg Icon site in the world: iconSvg.co, Visit us! https://iconsvg.co -->
<svg fill="#000000" width="800px" height="800px" version="1.1" viewBox="144 144 512 512" xmlns="http://www.w3.org/2000/svg">
 <path d="m415.74 306.32v-111c0-5.625-3-10.82-7.8711-13.633s-10.875-2.8125-15.746 0-7.8711 8.0078-7.8711 13.633v5.668c-15.934-12.293-36.023-17.922-56.027-15.688-20.004 2.2305-38.355 12.148-51.188 27.656-2.1602 2.957-3.2148 6.5781-2.9922 10.23 0.69141 26.184 14.355 50.309 36.461 64.359 22.102 14.051 49.746 16.188 73.746 5.7031v13.066c-54.102 5.4375-101.57 38.406-125.55 87.207-23.984 48.797-21.094 106.52 7.6523 152.67 28.742 46.156 79.27 74.215 133.64 74.215 54.371 0 104.9-28.059 133.64-74.215 28.746-46.152 31.637-103.88 7.6562-152.67-23.984-48.801-71.453-81.77-125.55-87.207zm-43.453-42.191c-13.453 6.3242-29.102 5.9453-42.234-1.0234-13.133-6.9688-22.215-19.715-24.52-34.402 3.3906-3.1719 7.2734-5.7773 11.492-7.7148 13.5-6.5156 29.289-6.2383 42.551 0.75s22.418 19.855 24.676 34.676c-3.5352 3.2148-7.5781 5.8203-11.965 7.7148zm27.711 324.8c-33.406 0-65.441-13.27-89.062-36.891s-36.891-55.656-36.891-89.059c0-33.406 13.27-65.441 36.891-89.062 23.621-23.621 55.656-36.891 89.062-36.891 33.402 0 65.441 13.27 89.059 36.891 23.621 23.621 36.891 55.656 36.891 89.062 0 33.402-13.27 65.438-36.891 89.059-23.617 23.621-55.656 36.891-89.059 36.891zm-15.746-157.44c0 4.1758 1.6602 8.1797 4.6133 11.133 2.9531 2.9492 6.957 4.6094 11.133 4.6094 14.887 0.11719 28.848 7.2422 37.672 19.234 8.8242 11.992 11.48 27.441 7.1641 41.691-4.3164 14.246-15.098 25.625-29.094 30.703v2.8359c0 5.625-3 10.82-7.8711 13.633s-10.875 2.8125-15.746 0-7.8711-8.0078-7.8711-13.633v-2.8359c-9.1875-3.2461-17.145-9.2578-22.781-17.207-5.6367-7.9453-8.6797-17.445-8.707-27.191 0-5.6211 3-10.82 7.8711-13.633 4.8711-2.8125 10.875-2.8125 15.746 0 4.8711 2.8125 7.8711 8.0117 7.8711 13.633 0 4.1758 1.6602 8.1836 4.6133 11.133 2.9531 2.9531 6.957 4.6133 11.133 4.6133s8.1797-1.6602 11.133-4.6133c2.9492-2.9492 4.6094-6.957 4.6094-11.133 0-4.1719-1.6602-8.1797-4.6094-11.133-2.9531-2.9492-6.957-4.6094-11.133-4.6094-14.891-0.11719-28.852-7.2422-37.676-19.234s-11.48-27.441-7.1641-41.688c4.3164-14.25 15.098-25.629 29.094-30.707v-2.8359c0-5.625 3-10.82 7.8711-13.633s10.875-2.8125 15.746 0 7.8711 8.0078 7.8711 13.633v2.8359c9.1875 3.2461 17.145 9.2578 22.781 17.207 5.6406 7.9492 8.6797 17.445 8.707 27.191 0 5.625-3 10.82-7.8711 13.633s-10.875 2.8125-15.746 0c-4.8711-2.8125-7.8711-8.0078-7.8711-13.633s-3-10.824-7.8711-13.637-10.875-2.8125-15.746 0-7.8711 8.0117-7.8711 13.637z"/>
</svg>