<?xml version="1.0" encoding="UTF-8"?>
<!-- The Best Svg Icon site in the world: iconSvg.co, Visit us! https://iconsvg.co -->
<svg fill="#000000" width="800px" height="800px" version="1.1" viewBox="144 144 512 512" xmlns="http://www.w3.org/2000/svg">
 <g>
  <path d="m636.16 400c0-29.422-5.4219-58.078-16-85.297 0.5-2.9727-0.6875-5.8594-3.082-7.5859-24.113-56.438-70.215-102.07-127.01-125.44-28.613-11.836-58.918-17.84-90.066-17.84-29.539 0-58.305 5.4609-85.594 16.109-2.793-0.35937-5.5156 0.74219-7.2188 2.9375-55.535 23.711-100.56 68.727-124.27 124.23-2.3984 1.7305-3.582 4.6172-3.082 7.5898-10.574 27.223-16.004 55.875-16.004 85.297 0 29.434 5.4297 58.098 16.008 85.312-0.49219 2.9531 0.67969 5.8242 3.0664 7.5547 24.109 56.441 70.219 102.08 127.02 125.46 28.621 11.836 58.926 17.836 90.07 17.836 29.488 0 58.207-5.4453 85.469-16.062 0.36328 0.050782 0.73047 0.17188 1.0898 0.17188 2.4844 0 4.8516-1.2188 6.3594-3.2031 55.488-23.727 100.47-68.723 124.16-124.2 2.3906-1.7344 3.5625-4.6055 3.0703-7.5586 10.578-27.227 16.008-55.883 16.008-85.309zm-336.3-196.3c-1.3203 4.3398-2.6133 8.7148-3.8242 13.188-1.1367 4.1992 1.3438 8.5195 5.5352 9.6562 0.69141 0.18359 1.3828 0.27734 2.0664 0.27734 3.4688 0 6.6406-2.3086 7.5859-5.8203 2.4062-8.8789 5.0938-17.5 8.0039-26.043 25.734-10.164 52.879-15.371 80.77-15.371 27.887 0 55.027 5.207 80.762 15.375 2.8516 8.3281 5.5625 17.023 8.0039 26.039 0.94531 3.5078 4.1211 5.8203 7.5859 5.8203 0.68359 0 1.375-0.09375 2.0664-0.27734 4.1914-1.1367 6.6719-5.457 5.5352-9.6562-1.2109-4.4883-2.5078-8.8672-3.8203-13.184 41.18 21.047 75.102 54.961 96.148 96.133-16.469-5-34.238-9.3516-53.113-12.957-4.2812-0.80859-8.3945 1.9883-9.2109 6.2578-0.81641 4.2695 1.9844 8.3906 6.2578 9.2109 23.422 4.4727 45.027 10.141 64.82 16.895 9.207 23.309 14.309 47.77 15.191 72.887h-86.402c-4.3516 0-7.8711 3.5234-7.8711 7.8711s3.5195 7.8711 7.8711 7.8711h86.402c-0.87891 25.105-5.9766 49.559-15.18 72.871-25.625 8.7695-54.566 15.555-85.398 20.395 3.1641-24.898 5.2148-50.809 5.9727-77.301 0.12109-4.3477-3.3047-7.9688-7.6484-8.0898-4.168-0.27344-7.9727 3.2969-8.0938 7.6445-0.77734 27.512-2.9648 54.379-6.3945 80.086-66.656 8.8281-140.32 8.8281-206.97 0-3.1016-23.254-5.1992-47.508-6.1328-72.285-0.16797-4.3477-3.5586-7.7383-8.1641-7.5703-4.3438 0.16406-7.7344 3.8203-7.5664 8.1641 0.89062 23.719 2.8438 46.961 5.6914 69.352-30.824-4.8438-59.762-11.625-85.387-20.395-9.2031-23.301-14.301-47.758-15.18-72.867h94.273c4.3516 0 7.8711-3.5234 7.8711-7.8711s-3.5195-7.8711-7.8711-7.8711l-94.273-0.003906c0.87891-25.109 5.9805-49.566 15.184-72.883 19.504-6.6875 41.238-12.395 64.82-16.898 4.2734-0.82031 7.0742-4.9375 6.2578-9.2109-0.8125-4.2695-4.957-7.0586-9.2109-6.2578-18.941 3.6211-36.777 7.9883-53.109 12.949 21.051-41.164 54.969-75.074 96.148-96.129zm-96.18 296.41c24.199 7.3164 50.789 13.094 78.867 17.281 4.2695 28.688 10.094 55.199 17.316 78.918-41.199-21.059-75.129-54.996-96.184-96.199zm115.6 104.96c-8.6602-25.277-15.457-54.016-20.379-85.52 32.676 4.0977 66.836 6.2695 101.09 6.2695s68.418-2.1719 101.09-6.2695c-4.8945 31.32-11.664 59.949-20.375 85.516-25.73 10.156-52.855 15.359-80.719 15.359s-54.984-5.1992-80.715-15.355zm180.73-8.707c7.2773-23.918 13.102-50.355 17.363-78.961 28.102-4.1836 54.711-9.9688 78.93-17.289-21.062 41.234-55.039 75.195-96.293 96.25z"/>
  <path d="m310.14 405.5c23.844 24.367 55.758 37.789 89.859 37.789s66.012-13.422 89.836-37.773c17.406-17.66 29.074-39.789 33.762-64.008 1.5625-8.0273 2.3516-16.16 2.3516-24.168 0-9.7734-1.1289-19.547-3.3672-29.07-2.0078-8.3789-4.8594-16.523-8.4727-24.172-20.652-44.172-65.449-72.711-114.11-72.711-6.082 0-12.105 0.44531-18.027 1.3125-41.457 6.0664-78.012 32.746-96.07 71.367-3.6289 7.6758-6.4805 15.82-8.4961 24.234-2.2305 9.4922-3.3594 19.262-3.3594 29.039 0 8.0117 0.79297 16.145 2.3516 24.164 4.6914 24.223 16.359 46.355 33.742 63.996zm189.72-134.71c3.168 6.6953 5.6562 13.812 7.4023 21.105 1.9531 8.3164 2.9453 16.875 2.9453 25.441 0 7.0078-0.69141 14.129-2.0586 21.176-4.1055 21.164-14.305 40.512-29.543 55.977-20.859 21.316-48.773 33.055-78.605 33.055-29.836 0-57.75-11.738-78.629-33.074-15.215-15.445-25.414-34.793-29.52-55.965-1.3711-7.0391-2.0625-14.164-2.0625-21.168 0-8.5625 0.99219-17.125 2.9375-25.402 1.7539-7.3281 4.2422-14.445 7.4258-21.172 18.074-38.66 57.266-63.637 99.848-63.637 42.578 0 81.77 24.977 99.859 63.664z"/>
  <path d="m392.12 281.92v86.594h-31.488v-55.105c0-4.3477-3.5195-7.8711-7.8711-7.8711s-7.8711 3.5234-7.8711 7.8711v55.105h-7.8711c-4.3516 0-7.8711 3.5234-7.8711 7.8711 0 4.3477 3.5195 7.8711 7.8711 7.8711h125.95c4.3516 0 7.8711-3.5234 7.8711-7.8711 0-4.3477-3.5195-7.8711-7.8711-7.8711h-7.8711l-0.003907-118.08c0-4.3477-3.5195-7.8711-7.8711-7.8711-4.3516 0-7.8711 3.5234-7.8711 7.8711v118.08h-31.488v-86.594c0-4.3477-3.5195-7.8711-7.8711-7.8711s-7.875 3.5234-7.875 7.8711z"/>
 </g>
</svg>