<?xml version="1.0" encoding="UTF-8"?>
<!-- The Best Svg Icon site in the world: iconSvg.co, Visit us! https://iconsvg.co -->
<svg fill="#000000" width="800px" height="800px" version="1.1" viewBox="144 144 512 512" xmlns="http://www.w3.org/2000/svg">
 <g>
  <path d="m400 271.09c-13.023 0-23.617-10.594-23.617-23.617 0-13.023 10.594-23.617 23.617-23.617 13.02 0 23.617 10.594 23.617 23.617-0.003907 13.023-10.598 23.617-23.617 23.617zm0-39.359c-8.6797 0-15.742 7.0625-15.742 15.742 0 8.6797 7.0625 15.742 15.742 15.742s15.742-7.0625 15.742-15.742c0-8.6797-7.0625-15.742-15.742-15.742z"/>
  <path d="m622.32 300.61h-444.65c-1.8516 0-3.4531-1.2891-3.8438-3.0977-0.39453-1.8086 0.52734-3.6484 2.2109-4.418 41.668-19.047 75.852-36.281 112.04-54.523 33.566-16.922 68.273-34.418 109.88-53.707 1.0742-0.49609 2.3125-0.48438 3.375 0.03125l222.71 108.24c1.6484 0.80078 2.5273 2.6367 2.1172 4.4219-0.41797 1.7852-2.0078 3.0508-3.8398 3.0508zm-426.75-7.8711h409.65l-205.65-99.945c-40.734 18.922-74.898 36.145-107.95 52.809-31.445 15.852-61.383 30.941-96.047 47.137z"/>
  <path d="m592.8 585.98h-383.76c-2.1719 0-3.9375-1.7617-3.9375-3.9375v-39.359c0-2.1719 1.7617-3.9375 3.9375-3.9375h383.76c2.1719 0 3.9375 1.7617 3.9375 3.9375v39.359c0 2.1719-1.7617 3.9375-3.9375 3.9375zm-379.82-7.875h375.89v-31.488h-375.89z"/>
  <path d="m612.48 615.5c-2.1719 0-3.9375-1.7617-3.9375-3.9375v-25.586h-415.25v25.586c0 2.1719-1.7617 3.9375-3.9375 3.9375-2.1719 0-3.9375-1.7617-3.9375-3.9375v-29.52c0-2.1719 1.7617-3.9375 3.9375-3.9375h423.12c2.1719 0 3.9375 1.7617 3.9375 3.9375v29.52c0.003907 2.1758-1.7578 3.9375-3.9336 3.9375z"/>
  <path d="m287.76 546.61h-49.199c-2.1719 0-3.9375-1.7617-3.9375-3.9375v-203.03c-11.156-1.8789-19.68-11.605-19.68-23.289v-19.68c0-2.1719 1.7617-3.9375 3.9375-3.9375h88.559c2.1719 0 3.9375 1.7617 3.9375 3.9375v19.68c0 11.68-8.5273 21.41-19.68 23.289l-0.003907 203.03c0 2.1719-1.7617 3.9336-3.9336 3.9336zm-45.266-7.8711h41.328v-202.7c0-2.1719 1.7617-3.9375 3.9375-3.9375 8.6797 0 15.742-7.0625 15.742-15.742v-15.742h-80.688v15.742c0 8.6797 7.0625 15.742 15.742 15.742 2.1719 0 3.9375 1.7617 3.9375 3.9375z"/>
  <path d="m425.52 546.61h-49.199c-2.1719 0-3.9375-1.7617-3.9375-3.9375v-203.03c-11.156-1.8789-19.68-11.605-19.68-23.289v-19.68c0-2.1719 1.7617-3.9375 3.9375-3.9375h88.559c2.1719 0 3.9375 1.7617 3.9375 3.9375v19.68c0 11.68-8.5273 21.41-19.68 23.289l-0.003907 203.03c0 2.1719-1.7617 3.9336-3.9336 3.9336zm-45.266-7.8711h41.328v-202.7c0-2.1719 1.7617-3.9375 3.9375-3.9375 8.6797 0 15.742-7.0625 15.742-15.742v-15.742h-80.688v15.742c0 8.6797 7.0625 15.742 15.742 15.742 2.1719 0 3.9375 1.7617 3.9375 3.9375z"/>
  <path d="m563.28 546.61h-49.199c-2.1719 0-3.9375-1.7617-3.9375-3.9375v-203.03c-11.156-1.8789-19.68-11.605-19.68-23.289v-19.68c0-2.1719 1.7617-3.9375 3.9375-3.9375h88.559c2.1719 0 3.9375 1.7617 3.9375 3.9375v19.68c0 11.68-8.5273 21.41-19.68 23.289v203.03c0 2.1719-1.7656 3.9336-3.9375 3.9336zm-45.262-7.8711h41.328v-202.7c0-2.1719 1.7617-3.9375 3.9375-3.9375 8.6797 0 15.742-7.0625 15.742-15.742v-15.742h-80.688v15.742c0 8.6797 7.0625 15.742 15.742 15.742 2.1719 0 3.9375 1.7617 3.9375 3.9375z"/>
  <path d="m376.32 517.09h-88.559c-2.1719 0-3.9375-1.7617-3.9375-3.9375 0-2.1719 1.7617-3.9375 3.9375-3.9375h88.559c2.1719 0 3.9375 1.7617 3.9375 3.9375s-1.7617 3.9375-3.9375 3.9375z"/>
  <path d="m514.08 517.09h-88.559c-2.1719 0-3.9375-1.7617-3.9375-3.9375 0-2.1719 1.7617-3.9375 3.9375-3.9375h88.559c2.1719 0 3.9375 1.7617 3.9375 3.9375s-1.7656 3.9375-3.9375 3.9375z"/>
 </g>
</svg>