<?xml version="1.0" encoding="UTF-8"?>
<!-- The Best Svg Icon site in the world: iconSvg.co, Visit us! https://iconsvg.co -->
<svg fill="#000000" width="800px" height="800px" version="1.1" viewBox="144 144 512 512" xmlns="http://www.w3.org/2000/svg">
 <g>
  <path d="m530.83 179.58h-244.07c-8.6797 0-15.742 7.0625-15.742 15.742v217.57c0.32422-0.125 0.55469-0.39844 0.90234-0.45312 5.207-0.68359 10.379-1.5938 15.449-2.707 2.9805-4.2812 5.8242-8.7344 8.4297-13.227 1.1758-2.0469 3.6719-3.0352 5.8867-2.4453 5.0898 1.3555 10.234 2.4883 15.324 3.4102 4.3984-2.8438 8.7109-5.8672 12.836-9.0039 1.8984-1.4375 4.5039-1.4375 6.3711 0 4.1562 3.168 8.4492 6.1914 12.848 9.0039 5.0898-0.92188 10.242-2.0586 15.305-3.4102 2.332-0.58594 4.7109 0.39844 5.9102 2.4453 2.6016 4.4922 5.4375 8.9414 8.418 13.227 5.0586 1.0898 10.254 2.0039 15.449 2.707 2.3633 0.30469 4.1875 2.1719 4.5234 4.5234 0.66016 5.1133 1.5625 10.297 2.707 15.449 4.2812 2.9688 8.7109 5.8047 13.227 8.4062 2.0469 1.1875 3.0664 3.6211 2.4336 5.9102-1.332 4.9961-2.4648 10.117-3.4023 15.293 2.8242 4.3984 5.8477 8.7031 8.9961 12.848 1.4375 1.8906 1.4375 4.5117 0 6.3711-3.1602 4.125-6.1836 8.4492-8.9961 12.836 0.93359 5.1641 2.0664 10.309 3.4023 15.312 0.62891 2.2969-0.38672 4.7109-2.4336 5.9102-4.4414 2.5508-8.8789 5.3828-13.227 8.4062-1.125 5.1328-2.0352 10.316-2.707 15.449-0.31641 2.3633-2.1641 4.1875-4.5352 4.5234-0.52344 0.074218-1.0703 0.21875-1.5859 0.27344l4.5977 8.7969h133.74c8.6797 0 15.742-7.0742 15.742-15.742v-341.68c-0.054687-8.6797-7.1172-15.742-15.797-15.742zm-184.49 61.516h124.9c5.8047 0 10.496 4.6914 10.496 10.496s-4.6914 10.496-10.496 10.496h-124.9c-5.8047 0-10.496-4.6914-10.496-10.496s4.6914-10.496 10.496-10.496zm144.79 118.98h-164.68c-5.8164 0-10.496-4.6797-10.496-10.496 0-5.8047 4.6797-10.496 10.496-10.496h164.66c5.8164 0 10.496 4.6914 10.496 10.496 0.011719 5.8164-4.6797 10.496-10.473 10.496zm0-48.672h-164.68c-5.8164 0-10.496-4.6914-10.496-10.496 0-5.8047 4.6797-10.496 10.496-10.496h164.66c5.8164 0 10.496 4.6914 10.496 10.496 0 5.8047-4.6797 10.496-10.473 10.496z"/>
  <path d="m260.02 618.99c-6.0352-3.1602-8.375-10.633-5.2148-16.68l29.578-56.5c0.99609 0.21094 1.9727 0.30469 2.9609 0.52344 2.9922 4.3047 5.8359 8.7539 8.4297 13.234 1.1758 2.0586 3.6094 3.043 5.8984 2.4453 0.78906-0.21875 1.6172-0.33594 2.4141-0.54688l-27.375 52.258c0 0.011719-0.011719 0.011719-0.011719 0.019532-3.1602 6.0742-10.625 8.4375-16.68 5.2461z"/>
  <path d="m412.05 611.75c-0.98828 3.1602-3.1367 5.7188-6.0547 7.2422-6.0039 3.1914-13.496 0.82031-16.688-5.207l-27.363-52.281c0.78906 0.19922 1.6172 0.30469 2.4023 0.53516 2.3633 0.59766 4.7227-0.38672 5.9102-2.4453 2.5938-4.4805 5.4258-8.9336 8.418-13.234 0.99609-0.21875 1.9727-0.31641 2.9688-0.52344l29.578 56.5c1.5234 2.918 1.8281 6.2734 0.82812 9.4141z"/>
  <path d="m403.61 490.18c2.5938-4.1445 5.3633-8.1992 8.2383-12.133-2.8867-3.9453-5.6562-8.0195-8.2383-12.145-0.66016-1.0898-0.94531-2.3945-0.72266-3.6641 0.80859-4.8398 1.8047-9.6562 2.9688-14.367-4.1758-2.5312-8.293-5.2383-12.258-8.082-1.0508-0.73437-1.7852-1.8477-2.0586-3.0977-1.1016-4.7773-2.0273-9.6133-2.7812-14.422-4.8594-0.74609-9.6992-1.668-14.41-2.7617-1.25-0.28516-2.3516-1.0273-3.0977-2.0664-2.832-3.9688-5.5195-8.082-8.0703-12.258-4.7852 1.1641-9.6055 2.1719-14.367 2.9688-1.25 0.21875-2.5703-0.050782-3.6719-0.71484-4.1367-2.582-8.1875-5.3633-12.133-8.2383-3.9375 2.8672-8.0195 5.6367-12.133 8.2383-1.0898 0.67188-2.3828 0.96484-3.6641 0.71484-4.7656-0.79688-9.582-1.793-14.379-2.9688-2.5312 4.1758-5.2383 8.293-8.082 12.258-0.73438 1.0508-1.8477 1.7852-3.0977 2.0664-4.7109 1.0898-9.5508 2.0039-14.41 2.7617-0.71484 4.7773-1.6602 9.6133-2.7617 14.41-0.28516 1.2578-1.0273 2.3711-2.0664 3.1055-0.95703 0.67188-1.9609 1.2578-2.9297 1.9297-0.50391 0.52344-1.0898 0.91406-1.793 1.1875-2.4883 1.668-4.9844 3.4023-7.5469 4.9648 1.1641 4.7109 2.1641 9.5312 2.9688 14.367 0.21875 1.2695-0.050781 2.5625-0.72266 3.6641-2.582 4.1367-5.3516 8.1992-8.2383 12.145 2.875 3.9375 5.6484 8.0078 8.2383 12.133 0.67188 1.0898 0.94531 2.3945 0.72266 3.6641-0.80859 4.8281-1.8047 9.6445-2.9688 14.379 4.1367 2.4766 8.2383 5.1836 12.27 8.0703 1.0586 0.74609 1.7852 1.8594 2.0664 3.1055 1.0898 4.7969 2.0156 9.6367 2.7617 14.402 1.5 0.21875 2.9805 0.60938 4.4727 0.85938 0.42969 0 0.85156 0.13672 1.2695 0.23047 2.8867 0.53516 5.793 1.0078 8.6602 1.6602 1.2578 0.27344 2.3711 1.0273 3.1055 2.0586 2.8438 3.9883 5.543 8.0938 8.082 12.27 3.0859-0.75391 6.2539-1.332 9.4062-1.9531 0.34766-0.125 0.69141-0.16797 1.082-0.21875 1.3125-0.23047 2.6016-0.58594 3.9141-0.79688 0.27344-0.0625 0.58594-0.082031 0.87109-0.082031 0.98828 0 1.9531 0.27344 2.793 0.79688 4.1367 2.5938 8.1992 5.375 12.133 8.2383 3.9453-2.8867 8.0195-5.6562 12.145-8.2383 1.0898-0.67188 2.4023-0.94531 3.6641-0.71484 1.3242 0.21875 2.6016 0.56641 3.9141 0.79688 0.35547 0.0625 0.70312 0.10547 1.0586 0.21875 3.1484 0.62109 6.3281 1.1641 9.4062 1.9531 2.5195-4.1562 5.2266-8.2812 8.0703-12.27 0.74609-1.0508 1.8477-1.7852 3.1055-2.0586 2.875-0.66016 5.7852-1.125 8.6602-1.6602 0.41797-0.125 0.83984-0.23047 1.2695-0.23047 1.4922-0.25 2.9805-0.64062 4.4727-0.85938 0.73438-4.7852 1.6602-9.6367 2.7812-14.402 0.27344-1.25 1.0273-2.3633 2.0586-3.1055 4.0312-2.8555 8.1133-5.5625 12.258-8.0703-1.1641-4.7344-2.1641-9.5508-2.9688-14.379-0.26172-1.2773 0.011719-2.5781 0.68359-3.6602zm-70.598 37.051c-27.121 0-49.207-22.074-49.207-49.195 0-27.145 22.082-49.207 49.207-49.207 27.121 0 49.195 22.074 49.195 49.207-0.011719 27.133-22.082 49.195-49.195 49.195z"/>
 </g>
</svg>