<?xml version="1.0" encoding="UTF-8"?>
<!-- The Best Svg Icon site in the world: iconSvg.co, Visit us! https://iconsvg.co -->
<svg width="800px" height="800px" version="1.1" viewBox="144 144 512 512" xmlns="http://www.w3.org/2000/svg">
 <defs>
  <clipPath id="b">
   <path d="m462 462h143v189.9h-143z"/>
  </clipPath>
  <clipPath id="a">
   <path d="m195 148.09h319v503.81h-319z"/>
  </clipPath>
 </defs>
 <path d="m307.11 544.84c-2.6094 3.4766-1.9062 8.4141 1.5742 11.02 14.961 11.293 33.211 17.379 51.953 17.32 25.582-0.011719 49.848-11.336 66.285-30.938 16.438-19.602 23.363-45.469 18.914-70.66-4.4453-25.195-19.809-47.129-41.965-59.918-22.152-12.785-48.832-15.121-72.867-6.3711-24.039 8.7461-42.977 27.68-51.73 51.719-8.7539 24.035-6.4258 50.715 6.3594 72.871 2.1875 3.7344 6.9805 5 10.727 2.8359 3.75-2.1641 5.0469-6.9453 2.9102-10.707-11.828-20.441-12.695-45.43-2.3125-66.637 10.383-21.211 30.652-35.852 54.051-39.047 23.395-3.1914 46.848 5.4805 62.535 23.129 15.688 17.648 21.551 41.957 15.637 64.816-5.918 22.863-22.832 41.273-45.113 49.098-22.281 7.8281-46.992 4.0352-65.906-10.105-1.6719-1.2617-3.7773-1.8047-5.8516-1.5117-2.0742 0.29688-3.9453 1.4062-5.1992 3.0859z"/>
 <path d="m361.1 510.21h-16.207c-4.3477 0-7.8711 3.5234-7.8711 7.8711s3.5234 7.8711 7.8711 7.8711h16.207c8.4375-0.082031 16.191-4.6602 20.336-12.008 4.1484-7.3477 4.0586-16.352-0.23047-23.617-4.2891-7.2656-12.133-11.688-20.57-11.605-4.3477 0-7.8711-3.5234-7.8711-7.8711s3.5234-7.8711 7.8711-7.8711h16.211c4.3477 0 7.8711-3.5273 7.8711-7.875 0-4.3477-3.5234-7.8711-7.8711-7.8711h-16.211c-8.4336 0.082031-16.188 4.6602-20.336 12.008-4.1445 7.3516-4.0547 16.352 0.23438 23.617 4.2891 7.2656 12.129 11.691 20.566 11.605 4.3477 0 7.875 3.5273 7.875 7.875 0 4.3477-3.5273 7.8711-7.875 7.8711z"/>
 <g clip-path="url(#b)">
  <path d="m599.56 487.09-62.977-23.617c-1.7773-0.65625-3.7305-0.65625-5.5117 0l-62.977 23.617c-3.0781 1.1484-5.1211 4.0898-5.1211 7.375v68.914c-0.027343 20.301 6.75 40.027 19.246 56.031 12.492 16 29.984 27.359 49.688 32.262 1.2539 0.3125 2.5703 0.3125 3.8242 0 19.703-4.9023 37.195-16.262 49.691-32.262 12.492-16.004 19.27-35.73 19.246-56.031v-68.914c0-3.2812-2.0352-6.2227-5.1094-7.375zm-10.637 76.289c0.019531 16.453-5.3594 32.457-15.312 45.555-9.957 13.102-23.934 22.574-39.789 26.961-15.859-4.3867-29.836-13.859-39.789-26.961-9.9531-13.098-15.336-29.102-15.316-45.555v-63.457l55.105-20.664 55.105 20.664z"/>
 </g>
 <g clip-path="url(#a)">
  <path d="m474.49 632.7c-6.0391 2.2734-12.441 3.4453-18.895 3.457h-189.92c-15.383 0.0625-30.051-6.4648-40.305-17.926-10.488-11.613-15.582-27.117-14.031-42.691l15.281-153.94c2.582-25.664 12.242-50.105 27.902-70.602s36.707-36.238 60.793-45.469h90.637c24.086 9.2305 45.133 24.973 60.793 45.469s25.32 44.938 27.902 70.602l2.6914 27.129c0.40234 4.0195 3.7852 7.082 7.8242 7.0859 0.26172 0.015626 0.52734 0.015626 0.78906 0 2.082-0.19922 3.9961-1.2188 5.3281-2.832 1.3281-1.6172 1.9609-3.6914 1.7539-5.7734l-2.6836-27.129v0.003906c-5.1445-50.68-34.789-95.625-79.348-120.3 4.543-3.8281 7.4648-9.2344 8.1836-15.129 0.71875-5.8945-0.82422-11.844-4.3164-16.648-3.4922-4.8047-8.6758-8.1094-14.504-9.2461l26.074-52.051c0.93359-1.8672 1.0859-4.0312 0.42578-6.0117-0.66406-1.9805-2.0859-3.6172-3.9531-4.5508-9.8633-4.9414-21.078-6.4805-31.906-4.3828l4.5352-18.145v-0.003906c0.125-0.42578 0.16797-0.87109 0.11719-1.3125 0.21875-2.2773-0.58594-4.5352-2.1875-6.1641-14.715-12.449-33.582-18.895-52.84-18.051-2.2656 0-4.4648 0.078125-6.5742 0.21094h0.003906c-13.141 0.90234-25.199 7.5977-32.906 18.281-5.4375 7.4414-8.5312 16.336-8.8789 25.543-11.406-2.6641-23.387-1.2383-33.852 4.0234-1.8672 0.93359-3.2891 2.5703-3.9531 4.5508-0.66016 1.9805-0.50781 4.1445 0.42578 6.0117l26.031 52.051h0.003906c-5.8281 1.1367-11.012 4.4414-14.504 9.2461-3.4922 4.8047-5.0352 10.754-4.3164 16.648 0.71875 5.8945 3.6406 11.301 8.1836 15.129-44.551 24.672-74.195 69.602-79.348 120.27l-15.273 153.95c-1.9844 19.988 4.5625 39.887 18.027 54.793 13.293 14.68 32.164 23.07 51.973 23.102h189.92c8.3359-0.007813 16.602-1.5156 24.402-4.4453 4.0742-1.5234 6.1445-6.0586 4.6211-10.133-1.5195-4.0742-6.0547-6.1406-10.129-4.6211zm-162.62-424.34 2.8164 0.9375 6.8242 27.301 0.003906-0.003906c0.875 3.5039 4.0234 5.9609 7.6328 5.9609 0.64844 0.003906 1.293-0.078125 1.9219-0.23828 4.2188-1.0547 6.7812-5.3281 5.7227-9.5469l-7.8711-31.488c-2.2109-8.793-0.39844-18.113 4.9531-25.434 4.9414-6.9414 12.75-11.277 21.254-11.809 1.7773-0.11719 3.6289-0.17969 5.5117-0.17969h-0.003906c13.605-0.42578 27.008 3.3633 38.379 10.848l-14.523 58.062c-1.0586 4.2188 1.5039 8.4922 5.7227 9.5469 0.625 0.16016 1.2656 0.23828 1.9102 0.23828 3.6094-0.003906 6.7539-2.4609 7.6289-5.9609l6.8242-27.301 2.8164-0.9375 0.003907 0.003906c6.1211-2.0625 12.703-2.3555 18.988-0.84375l-25.383 50.781h-84.734l-25.387-50.781c6.2852-1.5117 12.863-1.2188 18.988 0.84375zm-6.3359 65.684h110.21c4.3477 0 7.8711 3.5234 7.8711 7.8711 0 4.3477-3.5234 7.8711-7.8711 7.8711h-110.21c-4.3477 0-7.8711-3.5234-7.8711-7.8711 0-4.3477 3.5234-7.8711 7.8711-7.8711z"/>
 </g>
 <path d="m515.77 551.88c-3.0898-2.9844-8-2.9414-11.035 0.09375-3.0391 3.0391-3.082 7.9453-0.097656 11.035l15.746 15.746c3.0742 3.0703 8.0547 3.0703 11.129 0l31.488-31.488c2.9844-3.0898 2.9414-8-0.09375-11.035-3.0391-3.0391-7.9492-3.082-11.035-0.097656l-25.926 25.922z"/>
</svg>