<?xml version="1.0" encoding="UTF-8"?>
<!-- The Best Svg Icon site in the world: iconSvg.co, Visit us! https://iconsvg.co -->
<svg fill="#000000" width="800px" height="800px" version="1.1" viewBox="144 144 512 512" xmlns="http://www.w3.org/2000/svg">
 <g>
  <path d="m306.36 426.24h32.621c2.9023 0 5.2461-2.3477 5.2461-5.2461 0-2.9023-2.3477-5.2461-5.2461-5.2461h-38.117c-1.5625 0-3.0508 0.58594-4.0469 1.8008-0.99609 1.2031-1.4062 2.7383-1.1133 4.2656 0.14062 0.76172 0.23438 1.5078 0.23438 2.3086 0 7.1211-6.0938 12.91-13.586 12.91-0.87109 0-1.7109-0.10938-2.5352-0.25-1.5586-0.28516-2.9141 0.15234-4.0977 1.1445-1.1914 0.99609-1.6797 2.4648-1.6797 4.0195l0.003906 69.418c0 1.543 0.49219 3.0078 1.668 4.0078 1.1719 0.99219 2.6172 1.418 4.1602 1.1719 0.83984-0.14062 1.6445-0.24219 2.5312-0.24219 7.4961 0 13.566 5.793 13.566 12.914 0 0.80469-0.10938 1.5898-0.25 2.3555-0.29297 1.5391 0.10938 2.4492 1.1133 3.6523 0.99609 1.1992 2.4688 1.2227 4.0312 1.2227h165.91c2.9023 0 5.2461-2.3477 5.2461-5.2461 0-2.9023-2.3477-5.2461-5.2461-5.2461l-160.41-0.003906c-0.95312-10.496-11.324-19.238-21.82-20.082v-58.422c10.496-0.84375 20.859-10.711 21.82-21.207z"/>
  <path d="m544.61 417.55c-1.0039-1.2109-2.4883-1.8047-4.0586-1.8047h-165.7c-2.9023 0-5.2461 2.3477-5.2461 5.2461 0 2.9023 2.3477 5.2461 5.2461 5.2461h160.19c0.96484 10.5 11.895 20.367 22.391 21.211v58.422c-10.496 0.84375-21.43 9.5859-22.391 20.082h-32.602c-2.9023 0-5.2461 2.3477-5.2461 5.2461 0 2.9023 2.3477 5.2461 5.2461 5.2461h38.105c1.5703 0 3.0508-0.03125 4.0469-1.2344 0.99219-1.207 1.4023-2.4648 1.1016-4.0039-0.14062-0.76172-0.24219-1.3711-0.24219-2.168 0-7.1211 6.0977-12.824 13.594-12.824 0.88672 0 1.7422 0.13672 2.5781 0.28516 1.5156 0.24219 3.1758-0.14844 4.3555-1.1484 1.1836-0.99609 1.9492-2.4414 1.9492-3.9844v-69.422c0-1.5547-0.77734-3.0234-1.9688-4.0234-1.1914-1.0039-2.8125-1.4336-4.3359-1.1445-0.82031 0.14062-1.6914 0.24219-2.5547 0.24219-7.4961 0-13.602-5.793-13.602-12.922 0-0.79297 0.089844-1.5078 0.23438-2.2578 0.30078-1.5312-0.10938-3.0742-1.0977-4.2891z"/>
  <path d="m384.23 476.07c0 22.676 16.367 41.129 36.484 41.129 20.117 0 36.48-18.453 36.48-41.129s-16.363-41.129-36.48-41.129c-20.113 0-36.484 18.453-36.484 41.129zm62.469 0c0 16.895-11.656 30.633-25.984 30.633-14.328 0-25.988-13.738-25.988-30.633s11.66-30.633 25.988-30.633c14.328 0 25.984 13.738 25.984 30.633z"/>
  <path d="m599.43 395.09-257.16-0.33203v-62.98h45.027c2.0312 0 3.8789-1.1758 4.7461-3.0078 0.86719-1.832 0.59375-4.0078-0.69922-5.5742l-13.531-16.43c-1.8359-2.2344-5.1367-2.5664-7.3828-0.71484-2.2422 1.8438-2.5547 5.1445-0.71484 7.3828l6.4648 7.8477h-39.156c-2.9023 0-5.2461 2.3477-5.2461 5.2461v73.473c0 2.8984 2.3477 5.2422 5.2422 5.2461l257.16 0.33594v142.18l-346.37-0.019531-0.003906-221.21c0-2.9023-2.3477-5.2461-5.2461-5.2461h-36.359l84.41-95.336 37.152 40.223c1.9688 2.1289 5.2852 2.1523 7.4141 0.1875 2.1289-1.9688 2.2656-5.5195 0.30469-7.6523l-41.082-45.008c-0.99219-1.0859-2.3945-2.625-3.8555-2.625h-0.050781c-1.4805 0-2.8906 1.5898-3.8711 2.6992l-95.996 109.28c-1.3711 1.5469-1.6992 3.7539-0.85547 5.6328 0.85547 1.8828 2.7227 3.0898 4.7891 3.0898h42.75v221.21c0 2.9023 2.3477 5.2461 5.2461 5.2461l356.86 0.019531c1.3945 0 2.7305-0.55078 3.7109-1.5391 0.98438-0.98047 1.543-2.3086 1.543-3.707v-152.67c0-2.8945-2.3477-5.2461-5.2422-5.25z"/>
  <path d="m359.48 299.66c1.0273 1.1172 2.4414 1.6797 3.8477 1.6797 1.2734 0 2.5547-0.46094 3.5703-1.4023 2.125-1.9688 2.2578-5.2891 0.28516-7.4141l-20.105-21.711c-1.9688-2.1289-5.2969-2.2617-7.4141-0.28516-2.125 1.9688-2.2578 5.2891-0.28516 7.4141z"/>
 </g>
</svg>