<?xml version="1.0" encoding="UTF-8"?>
<!-- The Best Svg Icon site in the world: iconSvg.co, Visit us! https://iconsvg.co -->
<svg fill="#000000" width="800px" height="800px" version="1.1" viewBox="144 144 512 512" xmlns="http://www.w3.org/2000/svg">
 <g>
  <path d="m464.22 254.75c0-35.406-28.812-64.219-64.219-64.219-35.414 0-64.219 28.812-64.219 64.219-0.003906 35.406 28.805 64.223 64.219 64.223 35.406 0 64.219-28.816 64.219-64.223zm-118.58 0c0-29.973 24.383-54.355 54.355-54.355s54.355 24.383 54.355 54.355c0.003907 29.973-24.383 54.355-54.352 54.355-29.973 0-54.359-24.383-54.359-54.355z"/>
  <path d="m404.93 293.29v-5.2109c8.3477-2.2031 14.551-9.7422 14.551-18.777 0-10.742-8.7422-19.48-19.48-19.48-5.3047 0-9.6211-4.3164-9.6211-9.6211 0-5.3047 4.3164-9.6172 9.6211-9.6172h14.551c2.7266 0 4.9336-2.207 4.9336-4.9336 0-2.7266-2.207-4.9336-4.9336-4.9336h-9.6172l-0.003906-4.5039c0-2.7266-2.207-4.9336-4.9336-4.9336-2.7266 0-4.9336 2.207-4.9336 4.9336v5.2148c-8.3477 2.2031-14.551 9.7422-14.551 18.773 0 10.746 8.7422 19.488 19.48 19.488 5.3047 0 9.6172 4.3164 9.6172 9.6172 0 5.3047-4.3164 9.6211-9.6172 9.6211h-14.551c-2.7266 0-4.9336 2.207-4.9336 4.9336 0 2.7266 2.207 4.9336 4.9336 4.9336h9.6211v4.5c0 2.7266 2.207 4.9336 4.9336 4.9336 2.7344-0.003906 4.9336-2.2109 4.9336-4.9375z"/>
  <path d="m507.75 473.16h-102.83v-23.02c12.66-1.0664 47.34-6.1406 71.305-30.102 29.152-29.156 30.359-74.238 30.398-76.141 0.023438-1.3398-0.49219-2.6367-1.4453-3.582-0.94531-0.94531-2.2227-1.4414-3.582-1.4453-1.9062 0.039062-46.984 1.2461-76.141 30.395-9.5391 9.5391-16.043 20.766-20.535 31.645v-64.941c42.621-2.5703 76.535-37.961 76.535-81.219 0.003906-44.918-36.543-81.465-81.461-81.465s-81.465 36.547-81.465 81.465c0 43.258 33.91 78.645 76.535 81.219v64.941c-4.4922-10.879-11-22.105-20.535-31.645-29.156-29.152-74.238-30.355-76.141-30.395-1.3906-0.039063-2.6367 0.5-3.582 1.4453-0.94531 0.94531-1.4727 2.2422-1.4453 3.582 0.039062 1.9062 1.2461 46.98 30.398 76.141 23.965 23.965 58.648 29.035 71.305 30.102v23.02h-102.83c-2.7266 0-4.9336 2.207-4.9336 4.9336v23.719c0 2.7266 2.207 4.9336 4.9336 4.9336h8.2422l25.332 116.09c0.48828 2.2695 2.4961 3.8789 4.8125 3.8789h138.73c2.3164 0 4.3242-1.6133 4.8164-3.8828l25.332-116.09h8.2422c2.7266 0 4.9336-2.207 4.9336-4.9336v-23.719c0-2.7227-2.2031-4.9297-4.9336-4.9297zm-75.316-96.922c20.715-20.715 51.566-25.859 63.938-27.109-1.2383 12.363-6.3516 43.16-27.121 63.934-20.715 20.715-51.566 25.859-63.938 27.109 1.2422-12.359 6.3555-43.164 27.121-63.934zm-104.05-121.49c0-39.484 32.121-71.602 71.602-71.602 39.484 0 71.602 32.117 71.602 71.602s-32.113 71.602-71.594 71.602c-39.484 0-71.609-32.117-71.609-71.602zm2.3438 158.32c-20.711-20.715-25.855-51.555-27.113-63.934 12.379 1.2578 43.223 6.3984 63.934 27.109 20.711 20.711 25.855 51.555 27.113 63.934-12.379-1.2578-43.223-6.4023-63.934-27.109zm134.66 203.78h-130.8l-24.023-110.1h178.84zm37.43-119.96h-205.65v-13.855h205.65z"/>
 </g>
</svg>