<?xml version="1.0" encoding="UTF-8"?>
<!-- The Best Svg Icon site in the world: iconSvg.co, Visit us! https://iconsvg.co -->
<svg fill="#000000" width="800px" height="800px" version="1.1" viewBox="144 144 512 512" xmlns="http://www.w3.org/2000/svg">
 <g>
  <path d="m494.46 462.98h-83.965v-20.992h20.992c13.918 0 27.266-5.5312 37.105-15.371 9.8438-9.8438 15.371-23.191 15.371-37.109 0-2.7852-1.1055-5.4531-3.0742-7.4219-1.9648-1.9688-4.6367-3.0742-7.418-3.0742h-31.488c-11.367-0.0625-22.434 3.625-31.488 10.496v-32.121c32.297-3.6094 60.469-23.57 74.59-52.844 14.117-29.27 12.195-63.746-5.0859-91.27-17.285-27.523-47.504-44.23-80-44.23-32.5 0-62.719 16.707-80 44.23-17.285 27.523-19.207 62-5.0859 91.27 14.117 29.273 42.289 49.234 74.59 52.844v32.121c-9.0547-6.8711-20.125-10.559-31.488-10.496h-31.488c-5.7969 0-10.496 4.6992-10.496 10.496 0 13.918 5.5273 27.266 15.371 37.109 9.8398 9.8398 23.191 15.371 37.109 15.371h20.992v20.992h-83.969c-5.7969 0-10.496 4.6992-10.496 10.496v41.984-0.003906c0 2.7852 1.1055 5.457 3.0742 7.4219 1.9688 1.9688 4.6367 3.0742 7.4219 3.0742h11.441l9.5508 95.516c0.53906 5.3828 5.0859 9.4727 10.496 9.4453h125.95c5.4102 0.027344 9.9531-4.0625 10.496-9.4453l9.5508-95.516h11.438c2.7852 0 5.457-1.1055 7.4219-3.0742 1.9688-1.9648 3.0742-4.6367 3.0742-7.4219v-41.98c0-2.7852-1.1055-5.457-3.0742-7.4219-1.9648-1.9688-4.6367-3.0742-7.4219-3.0742zm-52.48-62.977h19.211c-2.1719 6.1406-6.1953 11.457-11.516 15.219-5.3203 3.7578-11.676 5.7734-18.188 5.7734h-19.211c2.1719-6.1445 6.1953-11.461 11.516-15.219 5.3203-3.7617 11.676-5.7773 18.191-5.7734zm-115.45-136.45c0-19.488 7.7383-38.176 21.52-51.953 13.777-13.777 32.465-21.52 51.953-21.52 19.484 0 38.172 7.7422 51.953 21.52 13.777 13.777 21.52 32.465 21.52 51.953 0 19.484-7.7422 38.172-21.52 51.953-13.781 13.777-32.469 21.52-51.953 21.52-19.488 0-38.176-7.7422-51.953-21.52-13.781-13.781-21.52-32.469-21.52-51.953zm41.984 157.44c-6.5156 0-12.871-2.0156-18.191-5.7734-5.3203-3.7617-9.3438-9.0781-11.512-15.219h19.207c6.5117-0.003906 12.867 2.0117 18.188 5.7734 5.3203 3.7578 9.3438 9.0742 11.516 15.219zm85.02 188.93-107.06-0.003906-8.3984-83.969h123.86zm30.434-104.96h-167.93v-20.992h167.93z"/>
  <path d="m410.5 305.54h10.496c2.7812 0 5.4531-1.1055 7.4219-3.0742 1.9648-1.9688 3.0742-4.6406 3.0742-7.4219v-31.488c0-2.7852-1.1094-5.4531-3.0742-7.4219-1.9688-1.9688-4.6406-3.0742-7.4219-3.0742h-31.488v-10.496h31.488c5.7969 0 10.496-4.6992 10.496-10.496s-4.6992-10.496-10.496-10.496h-10.496c0-5.7969-4.6992-10.496-10.496-10.496s-10.496 4.6992-10.496 10.496h-10.496c-5.7969 0-10.496 4.6992-10.496 10.496v31.488c0 2.7812 1.1055 5.4531 3.0742 7.4219s4.6367 3.0742 7.4219 3.0742h31.488v10.496h-31.488c-5.7969 0-10.496 4.6992-10.496 10.496 0 5.7969 4.6992 10.496 10.496 10.496h10.496c0 5.7969 4.6992 10.496 10.496 10.496s10.496-4.6992 10.496-10.496z"/>
 </g>
</svg>