<?xml version="1.0" encoding="UTF-8"?>
<!-- The Best Svg Icon site in the world: iconSvg.co, Visit us! https://iconsvg.co -->
<svg fill="#000000" width="800px" height="800px" version="1.1" viewBox="144 144 512 512" xmlns="http://www.w3.org/2000/svg">
 <g>
  <path d="m612.54 163.84h-425.09c-6.2578 0.019531-12.254 2.5156-16.676 6.9414-4.4258 4.4219-6.9219 10.418-6.9414 16.676v314.88c0.019531 6.2578 2.5156 12.254 6.9414 16.676 4.4219 4.4258 10.418 6.9219 16.676 6.9375h165.31v23.617c0 2.0898-0.82812 4.0898-2.3047 5.5664-1.4766 1.4766-3.4805 2.3047-5.5664 2.3047h-141.7c-14.062 0-27.059 7.5039-34.09 19.68-7.0312 12.18-7.0312 27.184 0 39.363 7.0312 12.176 20.027 19.68 34.09 19.68h181.05c6.2578-0.019531 12.254-2.5156 16.68-6.9375 4.4258-4.4258 6.918-10.422 6.9375-16.68v-7.8711c0-4.3477 3.5234-7.8711 7.8711-7.8711h63.684c1.8711 10.992 7.5664 20.969 16.078 28.172 8.5117 7.2031 19.297 11.164 30.445 11.188h62.977c16.875 0 32.469-9.0039 40.906-23.617s8.4375-32.617 0-47.23-24.031-23.617-40.906-23.617h-62.977c-11.148 0.023438-21.934 3.9844-30.445 11.188-8.5117 7.1992-14.207 17.18-16.078 28.172h-63.684c-6.2578 0.019531-12.254 2.5117-16.68 6.9375-4.4219 4.4258-6.918 10.422-6.9375 16.68v7.8711c0 2.0898-0.82812 4.0898-2.3047 5.5664-1.4766 1.4766-3.4766 2.3047-5.5664 2.3047h-181.05c-8.4375 0-16.234-4.5-20.453-11.809-4.2188-7.3047-4.2188-16.309 0-23.613 4.2188-7.3086 12.016-11.809 20.453-11.809h141.7c6.2578-0.019532 12.254-2.5117 16.68-6.9375 4.4219-4.4258 6.918-10.422 6.9375-16.68v-23.617h244.03c6.2578-0.015625 12.254-2.5117 16.68-6.9375 4.4219-4.4219 6.918-10.418 6.9375-16.676v-314.88c-0.019531-6.2578-2.5156-12.254-6.9375-16.676-4.4258-4.4258-10.422-6.9219-16.68-6.9414zm-62.977 393.6h39.359c11.25 0 21.645 6.0039 27.27 15.746 5.625 9.7422 5.625 21.746 0 31.488s-16.02 15.742-27.27 15.742h-39.359zm-23.617 0h7.8711v62.977h-7.8711c-11.246 0-21.645-6-27.27-15.742s-5.625-21.746 0-31.488c5.625-9.7422 16.023-15.746 27.27-15.746zm94.465-55.105v0.003907c0 2.0859-0.82812 4.0898-2.3047 5.5664-1.4766 1.4766-3.4766 2.3047-5.5664 2.3047h-425.09c-4.3477 0-7.8711-3.5234-7.8711-7.8711v-259.78h440.83zm0-275.52h-440.83v-39.359c0-4.3477 3.5234-7.8711 7.8711-7.8711h425.09c2.0898 0 4.0898 0.82812 5.5664 2.3047 1.4766 1.4766 2.3047 3.4805 2.3047 5.5664z"/>
  <path d="m510.21 596.8h7.8711c4.3477 0 7.8711-3.5273 7.8711-7.875 0-4.3477-3.5234-7.8711-7.8711-7.8711h-7.8711c-4.3477 0-7.8711 3.5234-7.8711 7.8711 0 4.3477 3.5234 7.875 7.8711 7.875z"/>
  <path d="m211.07 195.32h15.742v15.742h-15.742z"/>
  <path d="m242.56 195.32h15.742v15.742h-15.742z"/>
  <path d="m274.05 195.32h15.742v15.742h-15.742z"/>
  <path d="m565.31 195.32h-236.16c-4.3477 0-7.8711 3.5273-7.8711 7.875 0 4.3477 3.5234 7.8711 7.8711 7.8711h236.16c4.3477 0 7.8711-3.5234 7.8711-7.8711 0-4.3477-3.5234-7.875-7.8711-7.875z"/>
  <path d="m533.82 439.36h-15.746c-4.3477 0-7.8711-3.5234-7.8711-7.8711 0-4.3477-3.5234-7.875-7.8711-7.875-4.3477 0-7.875 3.5273-7.875 7.875 0 6.2617 2.4883 12.27 6.918 16.699 4.4297 4.4258 10.438 6.9141 16.699 6.9141v7.875c0 4.3477 3.5234 7.8711 7.8711 7.8711 4.3477 0 7.875-3.5234 7.875-7.8711v-7.875c8.4375 0 16.23-4.5 20.449-11.809 4.2188-7.3047 4.2188-16.309 0-23.613-4.2188-7.3086-12.012-11.809-20.449-11.809h-15.746c-4.3477 0-7.8711-3.5234-7.8711-7.8711s3.5234-7.875 7.8711-7.875h15.746c2.0859 0 4.0898 0.83203 5.5664 2.3086 1.4766 1.4766 2.3047 3.4766 2.3047 5.5664 0 4.3477 3.5234 7.8711 7.8711 7.8711s7.8711-3.5234 7.8711-7.8711c0-6.2656-2.4883-12.273-6.9141-16.699-4.4297-4.4297-10.438-6.918-16.699-6.918v-7.8711c0-4.3477-3.5273-7.875-7.875-7.875-4.3477 0-7.8711 3.5273-7.8711 7.875v7.8711c-8.4375 0-16.234 4.5-20.453 11.809-4.2188 7.3047-4.2188 16.309 0 23.613 4.2188 7.3086 12.016 11.809 20.453 11.809h15.746c4.3477 0 7.8711 3.5273 7.8711 7.875 0 4.3477-3.5234 7.8711-7.8711 7.8711z"/>
  <path d="m352.77 329.15h15.746c2.0859 0 4.0898 0.83203 5.5664 2.3086 1.4766 1.4766 2.3047 3.4766 2.3047 5.5664 0 4.3477 3.5234 7.8711 7.8711 7.8711s7.8711-3.5234 7.8711-7.8711c0-6.2656-2.4883-12.27-6.9141-16.699-4.4297-4.4297-10.438-6.918-16.699-6.918v-7.8711c0-4.3477-3.5273-7.8711-7.875-7.8711-4.3477 0-7.8711 3.5234-7.8711 7.8711v7.8711c-8.4375 0-16.234 4.5-20.453 11.809-4.2188 7.3047-4.2188 16.309 0 23.617 4.2188 7.3047 12.016 11.805 20.453 11.805h15.746c4.3477 0 7.8711 3.5273 7.8711 7.875 0 4.3477-3.5234 7.8711-7.8711 7.8711h-15.746c-4.3477 0-7.8711-3.5234-7.8711-7.8711 0-4.3477-3.5234-7.875-7.8711-7.875-4.3477 0-7.875 3.5273-7.875 7.875 0 6.2617 2.4883 12.27 6.918 16.699 4.4297 4.4258 10.438 6.9141 16.699 6.9141v7.875c0 4.3477 3.5234 7.8711 7.8711 7.8711 4.3477 0 7.875-3.5234 7.875-7.8711v-7.875c8.4375 0 16.23-4.5 20.449-11.805 4.2188-7.3086 4.2188-16.312 0-23.617-4.2188-7.3086-12.012-11.809-20.449-11.809h-15.746c-4.3477 0-7.8711-3.5234-7.8711-7.8711 0-4.3477 3.5234-7.875 7.8711-7.875z"/>
  <path d="m218.94 447.23h234.91c7.9766 18.258 22.578 32.812 40.863 40.73 18.285 7.9141 38.891 8.6016 57.664 1.9219 18.77-6.6797 34.312-20.227 43.488-37.914 9.1758-17.688 11.301-38.195 5.9492-57.387-5.3477-19.195-17.777-35.645-34.777-46.035-17.004-10.387-37.312-13.945-56.832-9.9492v-72.422c0-2.0898-0.82812-4.0898-2.3047-5.5664-1.4766-1.4766-3.4805-2.3086-5.5664-2.3086h-283.39c-4.3477 0-7.8711 3.5273-7.8711 7.875v173.18c0 2.0859 0.82813 4.0898 2.3047 5.5664 1.4766 1.4766 3.4805 2.3047 5.5664 2.3047zm7.8711-54.395c9.6523 1.6484 18.555 6.2539 25.477 13.176 6.9219 6.9219 11.527 15.824 13.176 25.477h-38.652zm362.11 22.906c0 16.703-6.6328 32.723-18.445 44.531-11.809 11.809-27.828 18.445-44.531 18.445-16.699 0-32.719-6.6367-44.527-18.445-11.812-11.809-18.445-27.828-18.445-44.531 0-16.703 6.6328-32.719 18.445-44.531 11.809-11.809 27.828-18.445 44.527-18.445 16.699 0.019531 32.707 6.6602 44.512 18.465 11.805 11.809 18.449 27.816 18.465 44.512zm-141.7 0c-0.007813 5.2891 0.51953 10.562 1.5742 15.746h-167.43c-1.7656-13.855-8.082-26.73-17.957-36.605s-22.75-16.191-36.605-17.957v-48.32c13.855-1.7656 26.73-8.082 36.605-17.957s16.191-22.75 17.957-36.602h158.53c1.7656 13.852 8.082 26.727 17.957 36.602s22.75 16.191 36.602 17.957v15.039c-14.023 6.1289-25.957 16.215-34.348 29.02-8.3867 12.801-12.863 27.773-12.883 43.078zm47.23-103.04c-9.6484-1.6523-18.551-6.2539-25.473-13.18-6.9219-6.9219-11.527-15.824-13.176-25.473h38.648zm-229-38.652c-1.6484 9.6484-6.2539 18.551-13.176 25.473-6.9219 6.9258-15.824 11.527-25.477 13.18v-38.652z"/>
  <path d="m297.66 344.89h-23.617c-4.3477 0-7.8711 3.5234-7.8711 7.8711s3.5234 7.8711 7.8711 7.8711h23.617c4.3477 0 7.8711-3.5234 7.8711-7.8711s-3.5234-7.8711-7.8711-7.8711z"/>
  <path d="m447.23 344.89h-23.617c-4.3477 0-7.8711 3.5234-7.8711 7.8711s3.5234 7.8711 7.8711 7.8711h23.617c4.3477 0 7.8711-3.5234 7.8711-7.8711s-3.5234-7.8711-7.8711-7.8711z"/>
 </g>
</svg>