<?xml version="1.0" encoding="UTF-8"?>
<!-- The Best Svg Icon site in the world: iconSvg.co, Visit us! https://iconsvg.co -->
<svg fill="#000000" width="800px" height="800px" version="1.1" viewBox="144 144 512 512" xmlns="http://www.w3.org/2000/svg">
 <path d="m365.2 414.01c-0.89062-3.4648-2.9375-6.5234-5.7969-8.668-2.8633-2.1445-6.3711-3.2539-9.9453-3.1406h-119.81c-3.5742-0.11328-7.082 0.99609-9.9453 3.1406-2.8594 2.1445-4.9062 5.2031-5.8008 8.668l-34.32 137.45c-1.1836 4.7773-0.0625 9.8359 3.0273 13.668s7.7969 6 12.715 5.8555h188.93c4.9219 0.14453 9.6289-2.0234 12.719-5.8555s4.2109-8.8906 3.0273-13.668zm-149.73 125.95 27.082-106.27h94.465l26.449 105.8zm404.94 11.492-34.32-137.45c-0.89453-3.4648-2.9375-6.5234-5.8008-8.668-2.8594-2.1445-6.3672-3.2539-9.9453-3.1406h-120.28c-3.5781-0.11328-7.0859 0.99609-9.9453 3.1406-2.8633 2.1445-4.9062 5.2031-5.8008 8.668l-34.32 137.45c-1.1836 4.7773-0.066406 9.8359 3.0234 13.668 3.0938 3.832 7.7969 6 12.719 5.8555h188.93c4.9219 0.14453 9.625-2.0234 12.715-5.8555 3.0938-3.832 4.2109-8.8906 3.0273-13.668zm-184.05-11.965 26.609-105.8h94.461l26.449 105.8zm-130.36-141.7 188.45-0.003906c4.9219 0.14453 9.6289-2.0195 12.719-5.8516 3.0898-3.832 4.2109-8.8906 3.0273-13.668l-34.793-137.45c-0.89453-3.4648-2.9414-6.5234-5.8008-8.668-2.8633-2.1484-6.3711-3.2539-9.9453-3.1406h-119.81c-3.5742-0.11328-7.082 0.99219-9.9453 3.1406-2.8594 2.1445-4.9062 5.2031-5.7969 8.668l-34.324 137.45c-1.1836 4.7773-0.0625 9.8359 3.0273 13.668 3.0898 3.832 7.7969 5.9961 12.719 5.8516zm47.23-137.29h93.992l26.449 105.8-147.99-0.003906z"/>
</svg>