<?xml version="1.0" encoding="UTF-8"?>
<!-- The Best Svg Icon site in the world: iconSvg.co, Visit us! https://iconsvg.co -->
<svg fill="#000000" width="800px" height="800px" version="1.1" viewBox="144 144 512 512" xmlns="http://www.w3.org/2000/svg">
 <g>
  <path d="m235.59 314.7h-28.121l115.13-97.848 48.137 40.926v-0.003907c0.066406 0.054688 0.14062 0.10547 0.21484 0.14844 0.10156 0.085937 0.20703 0.16406 0.31641 0.23828l0.41406 0.21484 0.32422 0.15625 0.51172 0.15625 0.29688 0.078125-0.003906 0.003906c0.28125 0.050781 0.5625 0.078125 0.84766 0.078125 0.31641 0.003906 0.62891-0.03125 0.93359-0.097656 0.070312-0.015625 0.13281-0.035156 0.19922-0.058594 0.23047-0.054688 0.46094-0.13281 0.67969-0.22656 0.097656 0 0.1875-0.097657 0.28516-0.14844 0.17969-0.097656 0.35156-0.20312 0.51953-0.31641 0.09375-0.066406 0.18359-0.13672 0.26562-0.21484 0.16016-0.12891 0.30859-0.26953 0.44531-0.42188 0.035156-0.03125 0.074219-0.066406 0.10547-0.10156l0.12891-0.17578 0.29688-0.42188c0.070313-0.11719 0.12891-0.23438 0.1875-0.35547h-0.003906c0.070312-0.14063 0.12891-0.28516 0.17969-0.43359 0.050782-0.12891 0.09375-0.26562 0.12891-0.40234 0.039063-0.14453 0.066407-0.28906 0.085938-0.43359 0.027344-0.15234 0.042969-0.30859 0.050781-0.46094 0.003907-0.082031 0.003907-0.16016 0-0.23828v-16.453h26.871v46.988 0.17578c0 0.058594 0 0.31641 0.050781 0.47266 0.015625 0.14062 0.039063 0.27734 0.078125 0.41406 0.03125 0.14453 0.074219 0.28516 0.12891 0.42188 0.050781 0.13672 0.097656 0.27734 0.15625 0.41406 0.0625 0.12891 0.12891 0.25391 0.20703 0.375 0.078125 0.12891 0.14844 0.25391 0.23438 0.375 0.089844 0.11719 0.17578 0.21484 0.26562 0.32422 0.089843 0.10938 0.21484 0.23438 0.33594 0.34375l0.11719 0.12891 31.047 26.391h-28.113c-2.4922 0.003907-4.5078 2.0234-4.5078 4.5156v117.82c0.11328 2.4102 2.1016 4.3047 4.5117 4.3047 2.4141 0 4.3984-1.8945 4.5117-4.3047v-113.32h35.887c1.9023 0.019532 3.6094-1.1523 4.2695-2.9375 0.66406-1.7812 0.13672-3.7852-1.3164-5.0117l-38.809-33.004v-49.406c0.003907-1.1992-0.47266-2.3477-1.3203-3.1953s-2-1.3242-3.1953-1.3203h-35.938c-2.4961 0-4.5156 2.0195-4.5156 4.5156v11.16l-43.621-37.051-0.070313-0.050781v0.003907c-0.14062-0.11328-0.29297-0.21484-0.45312-0.30469-0.089843-0.070312-0.18359-0.13281-0.28516-0.1875-0.16016-0.082031-0.32422-0.15625-0.49219-0.21875l-0.32422-0.11719c-0.15234-0.042968-0.3125-0.082031-0.47266-0.10547l-0.39453-0.070313h-0.86719l-0.39453 0.070313-0.46094 0.097656-0.33594 0.13672h0.003906c-0.16797 0.054687-0.32812 0.125-0.48047 0.20703-0.10547 0.054688-0.20703 0.11719-0.30469 0.1875-0.15625 0.089844-0.30469 0.19531-0.44531 0.30469l-0.070313 0.050781-127.37 108.3c-1.4414 1.2305-1.9609 3.2305-1.3008 5.0078 0.66016 1.7734 2.3594 2.9492 4.2539 2.9414h35.855v113.32c0.11328 2.4102 2.1016 4.3047 4.5117 4.3047 2.4141 0 4.3984-1.8945 4.5117-4.3047v-117.84c0-2.4883-2.0156-4.5117-4.5078-4.5156z"/>
  <path d="m607.73 363.73-75.531-64.227-0.070313-0.050781v0.003906c-0.14062-0.11328-0.29297-0.21484-0.44922-0.30469-0.097657-0.070313-0.19531-0.13281-0.29688-0.1875-0.16016-0.082032-0.32422-0.15234-0.49219-0.21484l-0.32422-0.12891-0.47266-0.097657-0.38281-0.070312h-0.44141-0.43359l-0.38281 0.070312-0.47266 0.097657-0.32422 0.12891h-0.003906c-0.16797 0.0625-0.33203 0.13281-0.49219 0.21484-0.097656 0.054687-0.19141 0.11328-0.28516 0.17578-0.16016 0.097656-0.3125 0.20312-0.46094 0.31641l-0.070312 0.050781-75.531 64.227v-0.003907c-1.4414 1.2305-1.9609 3.2305-1.3008 5.0078 0.66016 1.7773 2.3594 2.9531 4.2539 2.9453h19.445v65.367h-0.003907c0 2.4922 2.0234 4.5156 4.5195 4.5156 2.4922 0 4.5156-2.0234 4.5156-4.5156v-69.863c0.015624-1.207-0.45313-2.3711-1.3008-3.2305-0.84375-0.85938-2-1.3438-3.207-1.3477h-11.719l63.25-53.777 63.262 53.777h-11.68c-2.4922 0-4.5156 2.0234-4.5156 4.5156v69.867c0 2.4922 2.0234 4.5156 4.5156 4.5156 2.4961 0 4.5156-2.0234 4.5156-4.5156v-65.309h19.445c1.8945 0.007812 3.5938-1.168 4.2539-2.9453s0.14062-3.7773-1.3008-5.0078z"/>
  <path d="m322.56 338.68c-18.438 0.011719-36.117 7.3438-49.148 20.387s-20.352 30.73-20.344 49.168c0.007813 18.438 7.3398 36.121 20.379 49.152 13.043 13.035 30.727 20.355 49.164 20.352s36.121-7.3281 49.156-20.367c13.039-13.039 20.359-30.723 20.359-49.16-0.019531-18.441-7.3555-36.121-20.398-49.156-13.047-13.039-30.727-20.363-49.168-20.375zm0 130.04c-16.047 0-31.438-6.375-42.785-17.723-11.348-11.348-17.723-26.734-17.723-42.781 0-16.051 6.375-31.438 17.723-42.785 11.348-11.348 26.738-17.723 42.785-17.723s31.438 6.375 42.785 17.723c11.344 11.348 17.719 26.734 17.719 42.785-0.019531 16.039-6.4023 31.418-17.742 42.758-11.344 11.344-26.723 17.727-42.762 17.746z"/>
  <path d="m511.32 456.18c-11.812 0-23.145 4.6875-31.5 13.043-8.3516 8.3516-13.047 19.68-13.047 31.492s4.6914 23.141 13.043 31.492c8.3555 8.3555 19.684 13.047 31.496 13.047s23.141-4.6953 31.492-13.051c8.3516-8.3516 13.043-19.684 13.039-31.496-0.011719-11.805-4.707-23.121-13.055-31.469-8.3477-8.3477-19.664-13.043-31.469-13.059zm0 80.039c-9.4219 0.003906-18.453-3.7344-25.117-10.395-6.6602-6.6602-10.406-15.691-10.406-25.109-0.003906-9.4219 3.7383-18.453 10.398-25.117 6.6602-6.6602 15.691-10.402 25.109-10.402 9.4219 0 18.453 3.7383 25.113 10.398 6.6602 6.6602 10.402 15.695 10.402 25.113-0.007812 9.4141-3.75 18.441-10.406 25.098-6.6562 6.6602-15.68 10.406-25.094 10.414z"/>
  <path d="m409.52 523.98c-9.2344 0-18.09 3.668-24.617 10.195-6.5273 6.5273-10.195 15.383-10.195 24.617s3.668 18.09 10.195 24.617c6.5273 6.5273 15.383 10.195 24.617 10.195 9.2344 0 18.09-3.668 24.617-10.195 6.5273-6.5273 10.195-15.383 10.195-24.617-0.007813-9.2305-3.6797-18.078-10.207-24.605s-15.375-10.199-24.605-10.207zm0 60.594c-6.8398 0-13.402-2.7188-18.238-7.5547-4.8359-4.8398-7.5547-11.398-7.5508-18.238 0-6.8438 2.7188-13.402 7.5547-18.238 4.8398-4.8359 11.402-7.5508 18.242-7.5508 6.8398 0.003906 13.398 2.7227 18.234 7.5586 4.8359 4.8398 7.5508 11.402 7.5469 18.242-0.015625 6.832-2.7422 13.375-7.5742 18.203-4.8359 4.8242-11.383 7.5391-18.215 7.5469z"/>
  <path d="m322.56 399.38c-4.7773 0-9.082-2.8789-10.91-7.2891-1.8281-4.4141-0.81641-9.4922 2.5586-12.867 3.3789-3.3789 8.457-4.3906 12.871-2.5625 4.4102 1.8281 7.2891 6.1328 7.2891 10.91-0.058594 1.2344 0.39062 2.4375 1.2422 3.3281 0.85156 0.89453 2.0352 1.3984 3.2695 1.3984s2.4141-0.50391 3.2656-1.3984c0.85156-0.89063 1.3008-2.0938 1.2461-3.3281-0.007813-4.7305-1.6211-9.3164-4.582-13.008-2.9609-3.6914-7.0898-6.2617-11.703-7.293v-4.9219 0.003906c0-2.4961-2.0234-4.5156-4.5195-4.5156-2.4922 0-4.5156 2.0195-4.5156 4.5156v4.9219-0.003907c-6.7344 1.4922-12.289 6.2227-14.836 12.633s-1.75 13.664 2.1289 19.371c3.875 5.7031 10.328 9.1133 17.223 9.1094 4.2695 0 8.3672 1.6953 11.383 4.7148 3.0195 3.0195 4.7148 7.1133 4.7148 11.383s-1.6953 8.3633-4.7148 11.383c-3.0156 3.0195-7.1133 4.7148-11.383 4.7148-4.2695 0-8.3633-1.6953-11.383-4.7148s-4.7148-7.1133-4.7148-11.383c0.058594-1.2344-0.39062-2.4375-1.2422-3.3281-0.85547-0.89453-2.0352-1.3984-3.2695-1.3984-1.2344 0-2.4141 0.50391-3.2656 1.3984-0.85547 0.89062-1.3047 2.0938-1.2461 3.3281 0.003906 5.875 2.0664 11.562 5.8242 16.074 3.7578 4.5156 8.9766 7.5742 14.75 8.6445v4.8008c0 2.4961 2.0234 4.5156 4.5195 4.5156 2.4922 0 4.5156-2.0195 4.5156-4.5156v-4.8008c8.293-1.5234 15.27-7.1055 18.574-14.863 3.3047-7.7539 2.4961-16.652-2.1484-23.688-4.6445-7.0352-12.512-11.273-20.941-11.281z"/>
 </g>
</svg>