<?xml version="1.0" encoding="UTF-8"?>
<!-- The Best Svg Icon site in the world: iconSvg.co, Visit us! https://iconsvg.co -->
<svg fill="#000000" width="800px" height="800px" version="1.1" viewBox="144 144 512 512" xmlns="http://www.w3.org/2000/svg">
 <g>
  <path d="m363.48 392.12c4.3516 0 7.8711-3.5234 7.8711-7.8711v-204.67h57.305v221.68h-44.398c-4.3516 0-7.8711 3.5234-7.8711 7.8711 0 4.3516 3.5195 7.8711 7.8711 7.8711h52.266c4.3516 0 7.8711-3.5195 7.8711-7.8711l0.003906-237.42c0-4.3477-3.5195-7.8711-7.8711-7.8711h-73.047c-4.3516 0-7.8711 3.5234-7.8711 7.8711v212.54c-0.003907 4.3477 3.5195 7.8711 7.8711 7.8711z"/>
  <path d="m298.29 409.13v-95.727c0-4.3477-3.5195-7.8711-7.8711-7.8711s-7.8711 3.5234-7.8711 7.8711v87.852h-57.312v-112.1h40.938c4.3516 0 7.8711-3.5234 7.8711-7.8711 0-4.3477-3.5195-7.8711-7.8711-7.8711l-48.809-0.003907c-4.3516 0-7.8711 3.5234-7.8711 7.8711v127.84c0 4.3516 3.5195 7.8711 7.8711 7.8711h73.055c4.3516 0.003906 7.8711-3.5156 7.8711-7.8672z"/>
  <path d="m582.63 266.18c-4.3516 0-7.8711 3.5234-7.8711 7.8711v127.21h-57.309l-0.003906-148.63h39.988c4.3516 0 7.8711-3.5234 7.8711-7.8711 0-4.3477-3.5195-7.8711-7.8711-7.8711h-47.863c-4.3516 0-7.8711 3.5234-7.8711 7.8711v164.37c0 4.3516 3.5195 7.8711 7.8711 7.8711h73.055c4.3516 0 7.8711-3.5195 7.8711-7.8711l0.003906-135.09c0-4.3477-3.5234-7.8711-7.8711-7.8711z"/>
  <path d="m555.23 492.57h-115.88c-4.3516 0-7.8711 3.5195-7.8711 7.8711 0 4.3516 3.5195 7.8711 7.8711 7.8711h108l-0.003906 119.98c0 4.3516 3.5195 7.8711 7.8711 7.8711 4.3516 0 7.8711-3.5195 7.8711-7.8711l0.003907-127.84c0-4.3516-3.5234-7.875-7.8711-7.875z"/>
  <path d="m400 437.78c-4.3516 0-7.8711 3.5195-7.8711 7.8711v46.918h-147.36c-4.3516 0-7.8711 3.5195-7.8711 7.8711l-0.003906 127.85c0 4.3516 3.5195 7.8711 7.8711 7.8711 4.3516 0 7.8711-3.5195 7.8711-7.8711l0.003907-119.97h139.49v88.484c0 4.3516 3.5195 7.8711 7.8711 7.8711 4.3516 0 7.8711-3.5195 7.8711-7.8711l0.003906-151.14c0-4.3516-3.5195-7.875-7.8711-7.875z"/>
 </g>
</svg>