<?xml version="1.0" encoding="UTF-8"?>
<!-- The Best Svg Icon site in the world: iconSvg.co, Visit us! https://iconsvg.co -->
<svg width="800px" height="800px" version="1.1" viewBox="144 144 512 512" xmlns="http://www.w3.org/2000/svg">
 <defs>
  <clipPath id="a">
   <path d="m148.09 149h503.81v502.9h-503.81z"/>
  </clipPath>
 </defs>
 <g clip-path="url(#a)">
  <path d="m278.61 340.96h22.355c6.7812 0.035157 13.273 2.7539 18.055 7.5625 4.7812 4.8125 7.457 11.32 7.4492 18.102 0.070313 4.3203 3.5547 7.8047 7.875 7.8711 2.0859 0 4.0898-0.82813 5.5664-2.3047 1.4727-1.4766 2.3047-3.4805 2.3047-5.5664 0.019531-10.961-4.3125-21.48-12.051-29.246-7.7344-7.7656-18.238-12.141-29.199-12.16h-3.3047v-14.484c0-4.3477-3.5273-7.8711-7.875-7.8711-4.3477 0-7.8711 3.5234-7.8711 7.8711v14.484h-3.3047c-14.766 0-28.41 7.875-35.793 20.664-7.3828 12.785-7.3828 28.539 0 41.328 7.3828 12.785 21.027 20.664 35.793 20.664h22.355c9.1406 0 17.586 4.875 22.156 12.793 4.5703 7.9141 4.5703 17.668 0 25.582-4.5703 7.918-13.016 12.793-22.156 12.793h-22.355c-6.7812-0.035156-13.273-2.7539-18.055-7.5625-4.7812-4.8125-7.4609-11.32-7.4531-18.102-0.066407-4.3203-3.5508-7.8047-7.8711-7.8711-4.3477 0-7.8711 3.5234-7.8711 7.8711-0.023437 10.961 4.3125 21.48 12.047 29.246 7.7383 7.7656 18.242 12.141 29.203 12.16h3.3047v14.484c0 4.3477 3.5234 7.875 7.8711 7.875 4.3477 0 7.875-3.5273 7.875-7.875v-14.484h3.3047c14.766 0 28.41-7.875 35.789-20.664 7.3828-12.785 7.3828-28.539 0-41.328-7.3789-12.785-21.023-20.664-35.789-20.664h-22.355c-9.1406 0-17.586-4.875-22.156-12.789-4.5703-7.918-4.5703-17.668 0-25.586 4.5703-7.9141 13.016-12.793 22.156-12.793zm278.82-51.168h-15.742c-4.1758 0-8.1797-1.6562-11.133-4.6094-2.9531-2.9531-4.6133-6.957-4.6133-11.133 0-4.3477-3.5234-7.8711-7.8711-7.8711s-7.8711 3.5234-7.8711 7.8711c0.023438 8.3438 3.3516 16.336 9.25 22.238 5.8984 5.8984 13.895 9.2227 22.238 9.25v7.8711c0 4.3477 3.5234 7.8711 7.8711 7.8711s7.8711-3.5234 7.8711-7.8711v-7.8711c11.25 0 21.645-6.0039 27.27-15.746 5.625-9.7422 5.625-21.746 0-31.488-5.625-9.7422-16.02-15.742-27.27-15.742h-15.742c-5.625 0-10.824-3-13.637-7.8711s-2.8125-10.875 0-15.746 8.0117-7.8711 13.637-7.8711h15.742c4.1758 0 8.1797 1.6602 11.133 4.6094 2.9531 2.9531 4.6133 6.957 4.6133 11.133 0 4.3477 3.5234 7.875 7.8711 7.875 4.3477 0 7.8711-3.5273 7.8711-7.875-0.023437-8.3438-3.3477-16.336-9.25-22.238-5.8984-5.8984-13.895-9.2227-22.238-9.25v-7.8711c0-4.3477-3.5234-7.8711-7.8711-7.8711s-7.8711 3.5234-7.8711 7.8711v7.8711c-11.25 0-21.645 6.0039-27.27 15.746-5.625 9.7422-5.625 21.746 0 31.488 5.625 9.7422 16.02 15.742 27.27 15.742h15.742c5.625 0 10.824 3.0039 13.637 7.875 2.8125 4.8711 2.8125 10.871 0 15.742-2.8125 4.8711-8.0117 7.8711-13.637 7.8711zm-7.8711 157.44c-19.566 0.023437-38.719 5.6602-55.18 16.234-16.465 10.574-29.551 25.648-37.711 43.438l-47.391-31.016h0.003906c13.91-21.762 21.578-46.926 22.16-72.75 0.58203-25.82-5.9375-51.305-18.855-73.672l48.02-28.652c17.516 30.617 49.691 49.93 84.949 50.988 35.262 1.0586 68.535-16.289 87.859-45.801 19.32-29.512 21.914-66.949 6.8438-98.844-15.07-31.891-45.637-53.66-80.707-57.469-35.07-3.8125-69.598 10.879-91.168 38.793-21.57 27.91-27.078 65.031-14.547 98.004l-49.91 29.758v-0.003907c-23.496-32.023-59.355-52.719-98.844-57.039-39.484-4.3164-78.973 8.1367-108.84 34.328-29.863 26.191-47.359 63.715-48.23 103.43-0.86719 39.715 14.969 77.969 43.66 105.44 28.688 27.473 67.59 41.645 107.23 39.059 39.637-2.5859 76.371-21.691 101.25-52.656l50.852 33.219c-2.543 8.9609-3.8125 18.234-3.7773 27.551 0 27.141 10.781 53.172 29.973 72.363 19.191 19.191 45.223 29.973 72.363 29.973s53.172-10.781 72.363-29.973c19.191-19.191 29.973-45.223 29.973-72.363s-10.781-53.172-29.973-72.363c-19.191-19.191-45.223-29.973-72.363-29.973zm0-283.39c20.879-0.011719 41.059 7.5195 56.824 21.211 15.762 13.688 26.051 32.609 28.969 53.281s-1.7305 41.703-13.094 59.223c-11.359 17.516-28.668 30.336-48.73 36.102-20.066 5.7695-41.539 4.0898-60.469-4.7227-18.926-8.8125-34.031-24.164-42.535-43.234-5.0156-11.078-7.5938-23.105-7.5547-35.266 0.039063-22.953 9.1758-44.953 25.406-61.184 16.23-16.23 38.23-25.367 61.184-25.41zm-157.75 309.84-0.15625 0.15625c0 0.15625-0.15625 0.15625-0.15625 0.31641h-0.003906c-21.18 29.168-53.836 47.871-89.711 51.383-35.879 3.5117-71.539-8.5039-97.977-33.012-26.434-24.508-41.109-59.16-40.32-95.199 0.78906-36.039 16.973-70.012 44.457-93.34 27.484-23.324 63.641-33.766 99.328-28.684s67.488 25.199 87.371 55.266c0 0.15625 0.15625 0.15625 0.15625 0.31641 0 0.15625 0.31641 0.31641 0.31641 0.47266 13.5 20.344 20.676 44.227 20.625 68.645-0.039063 26.465-8.4102 52.242-23.93 73.68zm157.75 162.48c-22.965 0-44.988-9.125-61.23-25.363-16.238-16.238-25.359-38.266-25.359-61.23s9.1211-44.988 25.359-61.23c16.242-16.238 38.266-25.359 61.23-25.359s44.992 9.1211 61.23 25.359c16.238 16.242 25.363 38.266 25.363 61.23-0.042968 22.953-9.1797 44.953-25.41 61.184s-38.23 25.367-61.184 25.41zm-7.8711-125.95h15.742c4.1758 0 8.1797 1.6602 11.133 4.6094 2.9531 2.9531 4.6133 6.957 4.6133 11.133 0 4.3477 3.5234 7.875 7.8711 7.875 4.3477 0 7.8711-3.5273 7.8711-7.875-0.023437-8.3438-3.3477-16.336-9.25-22.234-5.8984-5.9023-13.895-9.2266-22.238-9.2539v-7.8711c0-4.3477-3.5234-7.8711-7.8711-7.8711s-7.8711 3.5234-7.8711 7.8711v7.8711c-11.25 0-21.645 6.0039-27.27 15.746-5.625 9.7422-5.625 21.746 0 31.488 5.625 9.7422 16.02 15.742 27.27 15.742h15.742c5.625 0 10.824 3.0039 13.637 7.875s2.8125 10.871 0 15.742c-2.8125 4.8711-8.0117 7.8711-13.637 7.8711h-15.742c-4.1758 0-8.1797-1.6562-11.133-4.6094s-4.6133-6.957-4.6133-11.133c0-4.3477-3.5234-7.8711-7.8711-7.8711s-7.8711 3.5234-7.8711 7.8711c0.023438 8.3438 3.3516 16.336 9.25 22.238 5.8984 5.8984 13.895 9.2227 22.238 9.25v7.8711c0 4.3477 3.5234 7.8711 7.8711 7.8711s7.8711-3.5234 7.8711-7.8711v-7.8711c11.25 0 21.645-6.0039 27.27-15.746 5.625-9.7422 5.625-21.746 0-31.488s-16.02-15.742-27.27-15.742h-15.742c-5.625 0-10.824-3-13.637-7.8711-2.8125-4.8711-2.8125-10.875 0-15.746s8.0117-7.8711 13.637-7.8711z"/>
 </g>
</svg>