<?xml version="1.0" encoding="UTF-8"?>
<!-- The Best Svg Icon site in the world: iconSvg.co, Visit us! https://iconsvg.co -->
<svg fill="#000000" width="800px" height="800px" version="1.1" viewBox="144 144 512 512" xmlns="http://www.w3.org/2000/svg">
 <g>
  <path d="m542.68 204c0-12.219-4.8555-23.938-13.496-32.574-8.6406-8.6406-20.359-13.496-32.578-13.496h-193.21c-12.219 0-23.938 4.8555-32.578 13.496-8.6406 8.6367-13.496 20.355-13.496 32.574v392.97c0 12.219 4.8555 23.938 13.496 32.578 8.6406 8.6367 20.359 13.492 32.578 13.492h193.21c12.219 0 23.938-4.8555 32.578-13.492 8.6406-8.6406 13.496-20.359 13.496-32.578zm-11.809 331.79h-261.75v-287.33h261.75zm-34.328 94.465h-193.09c-9.043 0.097656-17.75-3.418-24.195-9.7617-6.4414-6.3477-10.09-15-10.133-24.043v-48.852h261.75v48.852c-0.042969 9.043-3.6914 17.695-10.133 24.043-6.4453 6.3438-15.152 9.8594-24.195 9.7617zm34.328-393.6h-261.75v-33.105c0.042969-9.043 3.6914-17.695 10.133-24.043 6.4453-6.3438 15.152-9.8594 24.195-9.7617h193.09c9.043-0.097657 17.75 3.418 24.195 9.7617 6.4414 6.3477 10.09 15 10.133 24.043z"/>
  <path d="m434.18 194.34h-68.355c-3.2617 0-5.9023 2.6406-5.9023 5.9023 0 3.2617 2.6406 5.9023 5.9023 5.9023h68.355c3.2617 0 5.9062-2.6406 5.9062-5.9023 0-3.2617-2.6445-5.9023-5.9062-5.9023z"/>
  <path d="m400 562.36c-7.1445 0-13.996 2.8359-19.051 7.8906-5.0508 5.0508-7.8867 11.902-7.8867 19.047s2.8359 13.996 7.8867 19.047c5.0547 5.0508 11.906 7.8906 19.051 7.8906s13.996-2.8398 19.047-7.8906 7.8906-11.902 7.8906-19.047c-0.011719-7.1406-2.8516-13.988-7.9023-19.039-5.0469-5.0508-11.895-7.8906-19.035-7.8984zm0 42.066c-4.0156 0-7.8633-1.5938-10.699-4.4336-2.8359-2.8359-4.4297-6.6836-4.4297-10.695s1.5938-7.8633 4.4297-10.699c2.8359-2.8359 6.6836-4.4297 10.699-4.4297 4.0117 0 7.8594 1.5938 10.695 4.4297 2.8398 2.8359 4.4336 6.6875 4.4336 10.699-0.007812 4.0117-1.6016 7.8555-4.4375 10.691-2.8359 2.8359-6.6836 4.4297-10.691 4.4375z"/>
  <path d="m399.02 297.66c3.2578 0 5.9023-2.6445 5.9023-5.9062v-27.551c0-3.2617-2.6445-5.9062-5.9023-5.9062-3.2617 0-5.9062 2.6445-5.9062 5.9062v27.551c0 3.2617 2.6445 5.9062 5.9062 5.9062z"/>
  <path d="m493.5 338.54c1.5664 0.003907 3.0664-0.61719 4.1758-1.7266l19.703-19.703h-0.003906c1.1328-1.1016 1.7773-2.6133 1.7891-4.1914 0.007812-1.5781-0.61328-3.0977-1.7305-4.2148s-2.6367-1.7383-4.2148-1.7305c-1.5781 0.011719-3.0898 0.65625-4.1914 1.7891l-19.703 19.699c-1.6875 1.6875-2.1914 4.2266-1.2773 6.4336 0.91016 2.207 3.0664 3.6445 5.4531 3.6445z"/>
  <path d="m282.12 317.44 19.703 19.703v-0.003906c2.3086 2.2773 6.0195 2.2617 8.3125-0.03125s2.3086-6.0039 0.035156-8.3164l-19.703-19.703c-2.3125-2.2734-6.0234-2.2578-8.3164 0.035156-2.2891 2.293-2.3047 6.0039-0.03125 8.3164z"/>
  <path d="m340.02 308.22c0.625 1.4492 1.8086 2.5859 3.2812 3.1602 1.4727 0.57031 3.1133 0.52734 4.5508-0.12109 1.4414-0.64453 2.5664-1.8438 3.1172-3.3203 0.55078-1.4805 0.48828-3.1211-0.17969-4.5547l-11.402-25.418c-0.63672-1.4375-1.8164-2.5625-3.2852-3.125-1.4648-0.5625-3.0977-0.51562-4.5312 0.125-1.4336 0.64453-2.5508 1.832-3.1055 3.3047-0.55469 1.4688-0.5 3.0977 0.14844 4.5273z"/>
  <path d="m444.55 308.38c1.4609 0.55859 3.0859 0.51172 4.5156-0.12891 1.4297-0.64062 2.5469-1.8242 3.1016-3.2891l9.9062-26.043c0.57031-1.4648 0.53516-3.1016-0.10547-4.5391s-1.8242-2.5586-3.2969-3.1211c-1.4688-0.55859-3.1016-0.50781-4.5352 0.14062-1.4336 0.65234-2.5469 1.8438-3.0977 3.3203l-9.9062 26.043c-1.1602 3.0469 0.37109 6.457 3.418 7.6172z"/>
  <path d="m326.2 473.8h146.62c3.2578 0 5.9023-2.6406 5.9023-5.9023s-2.6445-5.9023-5.9023-5.9023h-19.289c14.625-14.285 22.938-33.816 23.098-54.258 0.16016-20.438-7.8477-40.098-22.246-54.605-14.398-14.512-33.992-22.672-54.434-22.672-20.441 0-40.035 8.1602-54.434 22.672-14.398 14.508-22.406 34.168-22.246 54.605 0.16016 20.441 8.4727 39.973 23.098 54.258h-20.164c-3.2617 0-5.9062 2.6406-5.9062 5.9023s2.6445 5.9023 5.9062 5.9023zm8.8711-66.715c0.003907-22.953 12.137-44.203 31.906-55.867 19.77-11.668 44.234-12.02 64.332-0.92188 20.098 11.094 32.832 31.984 33.492 54.934 0.66016 22.945-10.855 44.531-30.285 56.766h-32.242c1.6523-1.0938 2.6445-2.9414 2.6445-4.9219v-5.5898c7.8945-1.6523 14.449-7.125 17.484-14.598 3.0352-7.4727 2.1562-15.965-2.3477-22.656-4.5039-6.6914-12.039-10.703-20.105-10.699-5.0273 0-9.5586-3.0273-11.48-7.6719-1.9258-4.6445-0.86328-9.9883 2.6914-13.543 3.5547-3.5547 8.9023-4.6172 13.543-2.6953 4.6445 1.9258 7.6719 6.457 7.6719 11.484 0 3.2578 2.6445 5.9023 5.9062 5.9023 3.2578 0 5.9023-2.6445 5.9023-5.9023-0.007813-5.5625-1.9258-10.957-5.4297-15.273-3.5078-4.3164-8.3906-7.3008-13.836-8.4492v-4.7734c0-3.2617-2.6445-5.9023-5.9023-5.9023-3.2617 0-5.9062 2.6406-5.9062 5.9023v5.2461c-7.5156 2.2148-13.504 7.9258-16.062 15.332-2.5625 7.4062-1.3828 15.594 3.1641 21.977 4.5469 6.3828 11.902 10.172 19.738 10.176 5.0234 0 9.5586 3.0273 11.48 7.668 1.9219 4.6445 0.85937 9.9922-2.6953 13.543-3.5547 3.5547-8.8984 4.6172-13.543 2.6953-4.6406-1.9219-7.6719-6.4531-7.6719-11.48 0-3.2617-2.6406-5.9062-5.9023-5.9062-3.2617 0-5.9023 2.6445-5.9023 5.9062 0.007812 5.2305 1.7031 10.32 4.8398 14.512 3.1328 4.1875 7.5391 7.25 12.555 8.7344v6.0625c0 1.9805 0.99219 3.8281 2.6445 4.9219h-30.375c-18.922-11.828-30.387-32.594-30.309-54.91z"/>
 </g>
</svg>