<?xml version="1.0" encoding="UTF-8"?>
<!-- The Best Svg Icon site in the world: iconSvg.co, Visit us! https://iconsvg.co -->
<svg fill="#000000" width="800px" height="800px" version="1.1" viewBox="144 144 512 512" xmlns="http://www.w3.org/2000/svg">
 <g>
  <path d="m376.38 203.2c0 8.6953-7.0508 15.742-15.746 15.742-8.6953 0-15.742-7.0469-15.742-15.742 0-8.6953 7.0469-15.746 15.742-15.746 8.6953 0 15.746 7.0508 15.746 15.746"/>
  <path d="m313.41 447.23h-47.23c-4.1758 0-8.1836 1.6602-11.133 4.6133-2.9531 2.9492-4.6133 6.957-4.6133 11.133v47.23c0 4.1758 1.6602 8.1797 4.6133 11.133 2.9492 2.9531 6.957 4.6094 11.133 4.6094h47.23c4.1758 0 8.1797-1.6562 11.133-4.6094 2.9531-2.9531 4.6094-6.957 4.6094-11.133v-47.23c0-4.1758-1.6562-8.1836-4.6094-11.133-2.9531-2.9531-6.957-4.6133-11.133-4.6133zm-47.23 62.977v-47.23h47.23v47.23z"/>
  <path d="m344.89 384.25h62.977v15.742h-62.977z"/>
  <path d="m344.89 352.77h31.488v15.742h-31.488z"/>
  <path d="m344.89 494.46h31.488v15.742h-31.488z"/>
  <path d="m344.89 462.98h31.488v15.742h-31.488z"/>
  <path d="m392.12 352.77h47.23v15.742h-47.23z"/>
  <path d="m502.34 470.85c2.0859 0 4.0898 0.82812 5.5664 2.3047 1.4766 1.4766 2.3047 3.4805 2.3047 5.5664h15.742c-0.019531-4.8672-1.543-9.6094-4.3594-13.578-2.8203-3.9648-6.793-6.9688-11.383-8.5898v-9.3203h-15.746v9.3203c-7.0547 2.4844-12.508 8.1719-14.699 15.324-2.1914 7.1523-0.85547 14.918 3.5977 20.926 4.4531 6.0117 11.496 9.5469 18.977 9.5352 3.1836 0 6.0547 1.918 7.2734 4.8594 1.2148 2.9414 0.54297 6.3281-1.707 8.5781-2.2539 2.25-5.6367 2.9258-8.5781 1.707-2.9453-1.2188-4.8633-4.0898-4.8633-7.2734h-15.742c0.019531 4.8672 1.543 9.6094 4.3633 13.578 2.8164 3.9648 6.793 6.9688 11.379 8.5898v9.3203h15.742l0.003906-9.3203c7.0547-2.4844 12.512-8.1719 14.699-15.324 2.1914-7.1523 0.85547-14.918-3.5977-20.926-4.4531-6.0117-11.496-9.5469-18.973-9.5352-4.3477 0-7.875-3.5234-7.875-7.8711s3.5273-7.8711 7.875-7.8711z"/>
  <path d="m502.34 415.74c-20.879 0-40.902 8.293-55.664 23.059-14.762 14.762-23.059 34.785-23.059 55.66 0 20.879 8.2969 40.902 23.059 55.664 14.762 14.766 34.785 23.059 55.664 23.059 20.875 0 40.898-8.293 55.664-23.059 14.762-14.762 23.055-34.785 23.055-55.664-0.023438-20.867-8.3242-40.879-23.082-55.637-14.758-14.758-34.766-23.059-55.637-23.082zm0 141.7c-16.703 0-32.723-6.6328-44.531-18.445-11.812-11.809-18.445-27.828-18.445-44.531 0-16.699 6.6328-32.719 18.445-44.527 11.809-11.812 27.828-18.445 44.531-18.445 16.703 0 32.719 6.6328 44.531 18.445 11.809 11.809 18.445 27.828 18.445 44.527-0.019531 16.699-6.6602 32.707-18.469 44.512-11.805 11.805-27.812 18.449-44.508 18.465z"/>
  <path d="m612.54 494.46c-0.035157-23.715-7.7109-46.793-21.891-65.809-14.18-19.012-34.105-32.953-56.828-39.754v-106.98c-0.015625-10.434-4.1641-20.438-11.543-27.816-7.3789-7.3789-17.383-11.531-27.82-11.543h-40.145c-1.8281-8.8867-6.6602-16.867-13.688-22.602-7.0273-5.7383-15.816-8.875-24.887-8.8867h-15.742v-23.617c0-6.2617-2.4883-12.27-6.918-16.699-4.4297-4.4297-10.438-6.918-16.699-6.918h-31.488c-6.2617 0-12.27 2.4883-16.699 6.918-4.4297 4.4297-6.918 10.438-6.918 16.699v23.617h-15.742c-9.0703 0.011719-17.859 3.1484-24.887 8.8867-7.0273 5.7344-11.859 13.715-13.688 22.602h-40.148c-10.434 0.011718-20.438 4.1641-27.816 11.543-7.3789 7.3789-11.531 17.383-11.543 27.816v314.88c0.011719 10.434 4.1641 20.438 11.543 27.816 7.3789 7.3789 17.383 11.531 27.816 11.543h267.65c9.8398-0.03125 19.305-3.75 26.531-10.426 7.2266-6.6758 11.684-15.816 12.492-25.621 22.801-6.7422 42.816-20.668 57.062-39.707 14.246-19.035 21.961-42.164 21.996-65.945zm-330.62-244.03c0-6.2617 2.4883-12.27 6.918-16.699 4.4297-4.4297 10.434-6.918 16.699-6.918h23.617-0.003906c2.0898 0 4.0938-0.82812 5.5664-2.3047 1.4766-1.4766 2.3086-3.4766 2.3086-5.5664v-31.488c0-4.3477 3.5234-7.8711 7.8711-7.8711h31.488c2.0859 0 4.0898 0.82812 5.5664 2.3047 1.4766 1.4766 2.3047 3.4805 2.3047 5.5664v31.488c0 2.0898 0.82812 4.0898 2.3047 5.5664 1.4766 1.4766 3.4805 2.3047 5.5664 2.3047h23.617c6.2656 0 12.27 2.4883 16.699 6.918 4.4297 4.4297 6.918 10.438 6.918 16.699v23.617h-157.44zm212.54 369.98h-267.65c-6.2617 0-12.27-2.4883-16.699-6.9141-4.4258-4.4297-6.9141-10.438-6.9141-16.699v-314.88c0-6.2617 2.4883-12.27 6.9141-16.699 4.4297-4.4297 10.438-6.918 16.699-6.918h39.359v23.617h0.003906c0 2.0898 0.82812 4.0898 2.3047 5.5664 1.4766 1.4766 3.4766 2.3047 5.5664 2.3047h173.18c2.0898 0 4.0898-0.82812 5.5664-2.3047s2.3047-3.4766 2.3047-5.5664v-23.617h39.359c6.2656 0 12.273 2.4883 16.699 6.918 4.4297 4.4297 6.918 10.438 6.918 16.699v103.6c-30.27-4.3789-61 4.0273-84.828 23.207-23.824 19.18-38.602 47.402-40.797 77.91-2.1914 30.508 8.4023 60.555 29.242 82.941 20.84 22.387 50.055 35.102 80.641 35.098 4.8945-0.039063 9.7852-0.40234 14.633-1.0859-1.4531 4.8438-4.4258 9.0977-8.4766 12.125-4.0508 3.0312-8.9688 4.6797-14.031 4.7031zm7.8711-31.488h0.003907c-25.055 0-49.082-9.9492-66.797-27.668-17.715-17.715-27.668-41.742-27.668-66.797 0-25.051 9.9531-49.078 27.668-66.793 17.715-17.719 41.742-27.668 66.797-27.668 25.051 0 49.078 9.9492 66.797 27.668 17.715 17.715 27.668 41.742 27.668 66.793-0.027343 25.047-9.9883 49.059-27.699 66.77-17.711 17.707-41.723 27.668-66.766 27.695z"/>
  <path d="m541.7 486.59h15.742v15.742h-15.742z"/>
  <path d="m447.23 486.59h15.742v15.742h-15.742z"/>
  <path d="m331.46 331.46-8.707 8.7148c-2.6914-2.0312-5.9727-3.1367-9.3438-3.1484h-47.23c-4.1758 0-8.1836 1.6562-11.133 4.6094-2.9531 2.9531-4.6133 6.957-4.6133 11.133v47.234c0 4.1758 1.6602 8.1797 4.6133 11.133 2.9492 2.9492 6.957 4.6094 11.133 4.6094h47.23c4.1758 0 8.1797-1.6602 11.133-4.6094 2.9531-2.9531 4.6094-6.957 4.6094-11.133v-43.977l13.438-13.438zm-18.051 68.543h-47.23v-47.234h43.973l-20.359 20.359-10.18-10.18-11.133 11.133 15.742 15.742h0.007812c3.0703 3.0742 8.0547 3.0742 11.129 0l18.051-18.059z"/>
 </g>
</svg>