<?xml version="1.0" encoding="UTF-8"?>
<!-- The Best Svg Icon site in the world: iconSvg.co, Visit us! https://iconsvg.co -->
<svg fill="#000000" width="800px" height="800px" version="1.1" viewBox="144 144 512 512" xmlns="http://www.w3.org/2000/svg">
 <g>
  <path d="m364.71 266.07c7.5391 0 14.773-2.9961 20.102-8.3281 5.332-5.3281 8.3281-12.562 8.3281-20.102 0-7.5391-2.9961-14.77-8.3281-20.102-5.3281-5.3281-12.562-8.3242-20.102-8.3242-7.5391 0-14.77 2.9961-20.102 8.3242-5.3281 5.332-8.3242 12.562-8.3242 20.102 0.007813 7.5391 3.0039 14.766 8.3359 20.094 5.3281 5.3281 12.555 8.3281 20.09 8.3359zm0-47.398c5.0352 0 9.8633 2 13.426 5.5586 3.5586 3.5625 5.5586 8.3906 5.5586 13.426-0.003906 5.0352-2.0039 9.8633-5.5664 13.422-3.5586 3.5586-8.3867 5.5586-13.422 5.5547-5.0352 0-9.8633-2.0039-13.422-5.5664-3.5586-3.5586-5.5586-8.3906-5.5547-13.426 0.003906-5.0312 2.0078-9.8555 5.5664-13.41 3.5586-3.5586 8.3828-5.5586 13.414-5.5586z"/>
  <path d="m291.01 352.7c12.738 0 24.957-5.0625 33.969-14.07 9.0078-9.0117 14.07-21.23 14.07-33.969 0-12.742-5.0625-24.961-14.07-33.969-9.0117-9.0117-21.23-14.07-33.969-14.07-12.742 0-24.961 5.0586-33.969 14.07-9.0117 9.0078-14.07 21.227-14.07 33.969 0.011719 12.734 5.0781 24.945 14.082 33.953 9.0078 9.0039 21.219 14.07 33.957 14.086zm0-86.594c10.234 0.003906 20.051 4.0781 27.285 11.32 7.2344 7.2422 11.293 17.062 11.285 27.297-0.003906 10.238-4.0781 20.051-11.324 27.285-7.2422 7.2344-17.062 11.293-27.301 11.281-10.234-0.007812-20.051-4.082-27.281-11.328-7.2305-7.2461-11.289-17.066-11.277-27.301 0.011718-10.238 4.082-20.051 11.32-27.285 7.2422-7.2383 17.055-11.305 27.293-11.309z"/>
  <path d="m269.12 553.12c0-4.7656-1.8906-9.3359-5.2617-12.707-3.3711-3.3711-7.9414-5.2617-12.703-5.2617-4.7656 0-9.3359 1.8906-12.707 5.2617-3.3711 3.3711-5.2617 7.9414-5.2617 12.707 0 4.7617 1.8906 9.332 5.2617 12.703 3.3711 3.3711 7.9414 5.2617 12.707 5.2617 4.7617-0.003907 9.3281-1.8984 12.699-5.2656 3.3672-3.3711 5.2617-7.9375 5.2656-12.699zm-26.48 0h0.003907c-0.003907-3.4492 2.0703-6.5625 5.2539-7.8828 3.1836-1.3203 6.8516-0.59375 9.293 1.8438 2.4375 2.4414 3.1641 6.1094 1.8438 9.293-1.3203 3.1836-4.4336 5.2617-7.8789 5.2539-4.6953-0.015625-8.4922-3.8164-8.5039-8.5078z"/>
  <path d="m432.47 394.09c2.6055-0.003906 4.7148-2.1094 4.7266-4.7109v-7.707c4.4844-0.75 8.6836-2.7031 12.152-5.6484 4.6484-3.8008 7.3594-9.4805 7.3789-15.488 0.023438-6.0078-2.6406-11.711-7.2617-15.547-4.6836-4.0195-10.664-6.2109-16.836-6.168-9.7695 0-14.711-4.1523-14.68-12.23h-0.003907c0.082032-3.2578 1.582-6.3164 4.1055-8.375 2.9727-2.4727 6.7305-3.8008 10.598-3.75h0.078124c8.1172 0 14.699 5.5195 14.672 12.23-0.003907 1.2539 0.48828 2.4609 1.3711 3.3516 0.88672 0.88672 2.0859 1.3906 3.3398 1.3906 2.6016 0 4.7148-2.1016 4.7266-4.7031 0-10.48-8.3047-19.266-19.375-21.285v-7.7148 0.003907c0.003906-1.2539-0.48828-2.457-1.3711-3.3477-0.88281-0.88672-2.082-1.3906-3.332-1.3984-2.6016 0-4.7148 2.1055-4.7266 4.707v7.7148c-4.4883 0.73828-8.6914 2.6914-12.152 5.6445-4.6133 3.832-7.3125 9.4922-7.3789 15.488 0 10.461 6.2695 21.648 24.098 21.719 3.8945-0.042969 7.668 1.3203 10.637 3.8359 2.5508 2.0312 4.0352 5.1211 4.0195 8.3828-0.011718 3.2617-1.5195 6.3359-4.0859 8.3477-2.9688 2.4805-6.7305 3.8086-10.598 3.75h-0.070312c-8.1172 0-14.699-5.5117-14.68-12.223 0.007813-2.6094-2.0938-4.7383-4.7031-4.7539-2.6055 0.007813-4.7148 2.1133-4.7266 4.7148 0 10.48 8.3047 19.266 19.363 21.285v7.7148l0.003906-0.003907c-0.011718 1.2617 0.48047 2.4727 1.3633 3.3672 0.88672 0.89453 2.0898 1.4023 3.3477 1.4062z"/>
  <path d="m580.28 402.11c-5.2578-4.8594-11.77-8.1484-18.801-9.4961s-14.297-0.70703-20.98 1.8594l-46.25 17.957c-9.25-2.332-21.578-4.3398-35.621-6.1406 19.48-8.0664 34.105-24.723 39.586-45.078 5.4805-20.359 1.1914-42.109-11.605-58.863s-32.648-26.613-53.73-26.684h-0.25781c-19.582 0.03125-38.199 8.5156-51.066 23.277-12.871 14.758-18.738 34.355-16.102 53.762s13.523 36.727 29.867 47.516c-49.199-1.2695-100.17 17.094-117.21 23.871l-3.4258-20.055c-0.38672-2.2695-2.3516-3.9297-4.6523-3.9336h-47.305c-2.6055 0-4.7227 2.1133-4.7227 4.7227 0 2.6094 2.1172 4.7227 4.7227 4.7227h43.297l3.4922 20.379h0.003907c-0.19141 0.94141-0.082031 1.918 0.30469 2.793 0.070313 0.17188 0.15625 0.33594 0.25391 0.49219l23.715 138.75-75.316 9.4062c-2.5 0.28125-4.3398 2.4688-4.1875 4.9805 0.15234 2.5117 2.2422 4.4609 4.7578 4.4375 0.19922 0.015625 0.40234 0.015625 0.60156 0l80.227-10.027c1.2773-0.16016 2.4375-0.83594 3.207-1.8711s1.082-2.3398 0.86719-3.6094l-6.9453-40.621h114.08c15.918-0.03125 31.406-5.1641 44.191-14.641l123.59-92.043c4.0078-2.9844 6.4844-7.5938 6.7578-12.586 0.27344-4.9883-1.6797-9.8398-5.3398-13.246zm-206.07-58.785c0.078125-15.453 6.2656-30.246 17.215-41.152 10.945-10.902 25.766-17.035 41.215-17.051h0.22656c20.695 0.30469 39.684 11.531 49.922 29.52 10.238 17.984 10.199 40.047-0.10547 57.996-10.305 17.949-29.336 29.105-50.031 29.332h-0.17969c-15.496-0.0625-30.34-6.2734-41.262-17.27-10.926-10.992-17.039-25.875-17-41.375zm201.98 71.516c-0.11328 2.1875-1.1953 4.207-2.9531 5.5117l-123.59 92.043c-11.148 8.2734-24.656 12.758-38.543 12.793h-115.69l-15.656-91.512c15.152-6.0898 74.262-28.094 125.95-23.371l3.3359 0.30469c12.91 1.1719 34.527 3.1406 54.375 5.9023v0.003907c10.008 1.2539 19.941 3.0586 29.754 5.4023l0.49219 0.12891c6.8867 1.8125 9.3086 3.1992 10.145 3.9375 1.5664 1.3594 1.3789 4.1445-0.5625 8.2539l0.003906-0.003906c-4.5039 9.3281-13.238 15.902-23.449 17.645-18.344 3.2109-36.84 5.4766-55.418 6.7891-19.746 1.5-38.922 7.3164-56.176 17.035l-0.71875 0.41406v-0.003906c-2.2734 1.2852-3.0742 4.1641-1.793 6.4375 1.2852 2.2695 4.1641 3.0742 6.4375 1.7891l0.71875-0.40234c16.035-9.0352 33.863-14.445 52.219-15.844 18.902-1.3242 37.727-3.6211 56.395-6.8867 13.223-2.2812 24.527-10.82 30.336-22.918 5.1875-11.02 1.1133-16.887-1.7695-19.406v0.003906c-0.67578-0.57812-1.4023-1.0859-2.1758-1.5156l36.062-14.004c5.0273-1.9336 10.492-2.4219 15.781-1.4102 5.2891 1.0156 10.188 3.4922 14.145 7.1484 1.582 1.4766 2.4375 3.5742 2.3398 5.7344z"/>
 </g>
</svg>