<?xml version="1.0" encoding="UTF-8"?>
<!-- The Best Svg Icon site in the world: iconSvg.co, Visit us! https://iconsvg.co -->
<svg fill="#000000" width="800px" height="800px" version="1.1" viewBox="144 144 512 512" xmlns="http://www.w3.org/2000/svg">
 <g>
  <path d="m367.62 350.54c-18.438 0-36.117 7.3242-49.156 20.363-13.035 13.035-20.359 30.715-20.359 49.152s7.3203 36.121 20.359 49.156c13.035 13.039 30.719 20.359 49.156 20.363 18.434 0 36.117-7.3242 49.152-20.363 13.039-13.035 20.363-30.719 20.363-49.156-0.023437-18.43-7.3516-36.098-20.383-49.129-13.035-13.031-30.703-20.363-49.133-20.387zm0 66.109c8.4883 0.027344 16.406 4.2891 21.102 11.363 4.6953 7.0703 5.5508 16.02 2.2812 23.855-3.2695 7.832-10.23 13.52-18.562 15.156v4.8047c0 3.2578-2.6406 5.9023-5.9023 5.9023s-5.9062-2.6445-5.9062-5.9023v-5.2383c-5.3516-1.4805-10.066-4.6836-13.418-9.1094-3.3516-4.4297-5.1523-9.8359-5.1211-15.391 0.039063-3.25 2.6875-5.8633 5.9375-5.8633s5.8984 2.6133 5.9414 5.8633c-0.003906 5.5156 3.3164 10.488 8.4102 12.602 5.0938 2.1133 10.961 0.94922 14.863-2.9492 3.9023-3.8945 5.0742-9.7617 2.9648-14.859-2.1055-5.0938-7.0742-8.4219-12.59-8.4258-6.7539-0.003907-13.23-2.6797-18.016-7.4492-4.7852-4.7656-7.4883-11.234-7.5156-17.988-0.03125-5.5508 1.7695-10.961 5.1211-15.391 3.3516-4.4297 8.0703-7.6328 13.422-9.1133v-5.0898c0-3.2617 2.6445-5.9023 5.9062-5.9023s5.9023 2.6406 5.9023 5.9023v4.6562c5.7852 1.1328 10.996 4.2383 14.738 8.7852 3.7461 4.5508 5.7891 10.262 5.7852 16.152 0.019531 1.5703-0.58984 3.082-1.6914 4.1992-1.1055 1.1172-2.6094 1.7461-4.1758 1.7461-1.5703 0-3.0742-0.62891-4.1797-1.7461-1.1016-1.1172-1.7109-2.6289-1.6914-4.1992-0.003907-5.5078-3.3242-10.469-8.4141-12.574s-10.949-0.9375-14.84 2.9609c-3.8945 3.8984-5.0547 9.7578-2.9414 14.848 2.1133 5.0859 7.082 8.3984 12.59 8.3945z"/>
  <path d="m256.34 532.84h221.4v35.426h-221.4z"/>
  <path d="m477.73 316.36h-221.4v204.67h221.4zm-110.11 185.02c-21.57 0-42.254-8.5664-57.504-23.816-15.254-15.25-23.82-35.938-23.82-57.504 0-21.57 8.5664-42.254 23.816-57.508 15.254-15.25 35.938-23.816 57.508-23.816 21.566 0 42.254 8.5664 57.504 23.816 15.25 15.254 23.82 35.938 23.82 57.504-0.027344 21.562-8.6016 42.234-23.848 57.48-15.246 15.246-35.914 23.82-57.477 23.844z"/>
  <path d="m244.53 446.38v-141.83h-45.305c-7.8633 0.023438-15.395 3.1602-20.953 8.7148-5.5586 5.5586-8.6914 13.09-8.7188 20.949-0.082031 6.3281 1.8711 12.516 5.5781 17.645z"/>
  <path d="m568.89 346.3-79.348 50.953v48.102l101.23-65.027z"/>
  <path d="m573.83 331.77 24.258-15.605 32.359 50.305-24.258 15.605z"/>
  <path d="m433.27 231.73h-131.5c-23.398 0-43.152 18.695-44.742 41.328h220.98c-1.5898-22.633-21.34-41.328-44.738-41.328z"/>
  <path d="m256.34 284.87h221.4v19.68h-221.4z"/>
 </g>
</svg>