<?xml version="1.0" encoding="UTF-8"?>
<!-- The Best Svg Icon site in the world: iconSvg.co, Visit us! https://iconsvg.co -->
<svg fill="#000000" width="800px" height="800px" version="1.1" viewBox="144 144 512 512" xmlns="http://www.w3.org/2000/svg">
 <g>
  <path d="m266.18 352.77v-55.102h15.742l-39.359-55.105-39.359 55.105h15.742v55.102z"/>
  <path d="m423.61 281.92v-47.23h15.746l-39.359-55.105-39.363 55.105h15.746v47.23z"/>
  <path d="m581.05 344.89v-55.105h15.746l-39.363-55.102-39.359 55.102h15.746v55.105z"/>
  <path d="m423.61 329.15c-4.3477 0-7.8711-3.5234-7.8711-7.8711v-7.8711c0-4.3477 3.5234-7.8711 7.8711-7.8711 4.3477 0 7.875 3.5234 7.875 7.8711v7.8711c0 2.0898-0.83203 4.0898-2.3086 5.5664-1.4766 1.4766-3.4766 2.3047-5.5664 2.3047z"/>
  <path d="m376.38 329.15c-4.3477 0-7.8711-3.5234-7.8711-7.8711v-7.8711c0-4.3477 3.5234-7.8711 7.8711-7.8711 4.3477 0 7.8711 3.5234 7.8711 7.8711v7.8711c0 2.0898-0.82812 4.0898-2.3047 5.5664-1.4766 1.4766-3.4805 2.3047-5.5664 2.3047z"/>
  <path d="m423.61 360.64c-4.3477 0-7.8711-3.5234-7.8711-7.8711v-7.8711c0-4.3477 3.5234-7.8711 7.8711-7.8711 4.3477 0 7.875 3.5234 7.875 7.8711v7.8711c0 2.0898-0.83203 4.0898-2.3086 5.5664-1.4766 1.4766-3.4766 2.3047-5.5664 2.3047z"/>
  <path d="m376.38 360.64c-4.3477 0-7.8711-3.5234-7.8711-7.8711v-7.8711c0-4.3477 3.5234-7.8711 7.8711-7.8711 4.3477 0 7.8711 3.5234 7.8711 7.8711v7.8711c0 2.0898-0.82812 4.0898-2.3047 5.5664-1.4766 1.4766-3.4805 2.3047-5.5664 2.3047z"/>
  <path d="m218.94 400c-4.3477 0-7.8711-3.5273-7.8711-7.875v-7.8711c0-4.3477 3.5234-7.8711 7.8711-7.8711s7.8711 3.5234 7.8711 7.8711v7.8711c0 2.0898-0.82812 4.0898-2.3047 5.5664-1.4766 1.4766-3.4766 2.3086-5.5664 2.3086z"/>
  <path d="m218.94 431.49c-4.3477 0-7.8711-3.5273-7.8711-7.875v-7.8711c0-4.3477 3.5234-7.8711 7.8711-7.8711s7.8711 3.5234 7.8711 7.8711v7.8711c0 2.0898-0.82812 4.0898-2.3047 5.5664-1.4766 1.4766-3.4766 2.3086-5.5664 2.3086z"/>
  <path d="m218.94 462.98c-4.3477 0-7.8711-3.5273-7.8711-7.875v-7.8711c0-4.3477 3.5234-7.8711 7.8711-7.8711s7.8711 3.5234 7.8711 7.8711v7.8711c0 2.0898-0.82812 4.0898-2.3047 5.5664-1.4766 1.4766-3.4766 2.3086-5.5664 2.3086z"/>
  <path d="m266.18 400c-4.3477 0-7.875-3.5273-7.875-7.875v-7.8711c0-4.3477 3.5273-7.8711 7.875-7.8711 4.3477 0 7.8711 3.5234 7.8711 7.8711v7.8711c0 2.0898-0.83203 4.0898-2.3047 5.5664-1.4766 1.4766-3.4805 2.3086-5.5664 2.3086z"/>
  <path d="m266.18 431.49c-4.3477 0-7.875-3.5273-7.875-7.875v-7.8711c0-4.3477 3.5273-7.8711 7.875-7.8711 4.3477 0 7.8711 3.5234 7.8711 7.8711v7.8711c0 2.0898-0.83203 4.0898-2.3047 5.5664-1.4766 1.4766-3.4805 2.3086-5.5664 2.3086z"/>
  <path d="m266.18 462.98c-4.3477 0-7.875-3.5273-7.875-7.875v-7.8711c0-4.3477 3.5273-7.8711 7.875-7.8711 4.3477 0 7.8711 3.5234 7.8711 7.8711v7.8711c0 2.0898-0.83203 4.0898-2.3047 5.5664-1.4766 1.4766-3.4805 2.3086-5.5664 2.3086z"/>
  <path d="m533.82 392.12c-4.3477 0-7.875-3.5234-7.875-7.8711v-7.8711c0-4.3477 3.5273-7.8711 7.875-7.8711 4.3477 0 7.8711 3.5234 7.8711 7.8711v7.8711c0 2.0898-0.82812 4.0898-2.3047 5.5664-1.4766 1.4766-3.4805 2.3047-5.5664 2.3047z"/>
  <path d="m365.99 400-25.191 62.977h118.39l-25.191-62.977z"/>
  <path d="m400 528.39 19.836-49.672h-39.676z"/>
  <path d="m504.86 478.72h-68.016l-25.191 62.977h118.39z"/>
  <path d="m269.95 541.7h118.39l-25.191-62.977h-68.012z"/>
  <path d="m199.11 620.41h118.39l-25.191-62.977h-68.012z"/>
  <path d="m490.68 557.44h-39.676l19.84 49.676z"/>
  <path d="m348.99 557.44h-39.676l19.836 49.676z"/>
  <path d="m365.99 557.44-25.191 62.977h118.39l-25.191-62.977z"/>
  <path d="m575.7 557.44h-68.016l-25.191 62.977h118.39z"/>
  <path d="m533.82 423.61c2.0859 0 4.0898-0.82812 5.5664-2.3047 1.4766-1.4766 2.3047-3.4766 2.3047-5.5664v-7.8711c0-4.3477-3.5234-7.8711-7.8711-7.8711-4.3477 0-7.875 3.5234-7.875 7.8711v7.8711c0 2.0898 0.83203 4.0898 2.3086 5.5664 1.4766 1.4766 3.4766 2.3047 5.5664 2.3047z"/>
  <path d="m533.82 455.1c2.0859 0 4.0898-0.82812 5.5664-2.3047s2.3047-3.4766 2.3047-5.5664v-7.8711c0-4.3477-3.5234-7.8711-7.8711-7.8711-4.3477 0-7.875 3.5234-7.875 7.8711v7.8711c0 2.0898 0.83203 4.0898 2.3086 5.5664 1.4766 1.4766 3.4766 2.3047 5.5664 2.3047z"/>
  <path d="m581.05 392.12c-4.3477 0-7.8711-3.5234-7.8711-7.8711v-7.8711c0-4.3477 3.5234-7.8711 7.8711-7.8711 4.3477 0 7.8711 3.5234 7.8711 7.8711v7.8711c0 2.0898-0.82812 4.0898-2.3047 5.5664-1.4766 1.4766-3.4766 2.3047-5.5664 2.3047z"/>
  <path d="m581.05 423.61c-4.3477 0-7.8711-3.5234-7.8711-7.8711v-7.8711c0-4.3477 3.5234-7.8711 7.8711-7.8711 4.3477 0 7.8711 3.5234 7.8711 7.8711v7.8711c0 2.0898-0.82812 4.0898-2.3047 5.5664-1.4766 1.4766-3.4766 2.3047-5.5664 2.3047z"/>
  <path d="m581.05 455.1c-4.3477 0-7.8711-3.5234-7.8711-7.8711v-7.8711c0-4.3477 3.5234-7.8711 7.8711-7.8711 4.3477 0 7.8711 3.5234 7.8711 7.8711v7.8711c0 2.0898-0.82812 4.0898-2.3047 5.5664-1.4766 1.4766-3.4766 2.3047-5.5664 2.3047z"/>
 </g>
</svg>