<?xml version="1.0" encoding="UTF-8"?>
<!-- The Best Svg Icon site in the world: iconSvg.co, Visit us! https://iconsvg.co -->
<svg width="800px" height="800px" version="1.1" viewBox="144 144 512 512" xmlns="http://www.w3.org/2000/svg">
 <defs>
  <clipPath id="a">
   <path d="m205 148.09h369v499.91h-369z"/>
  </clipPath>
 </defs>
 <g clip-path="url(#a)">
  <path d="m400 211.07c-27.145 0-53.172 10.781-72.363 29.973-19.191 19.191-29.973 45.223-29.973 72.363s10.781 53.172 29.973 72.363c19.191 19.191 45.219 29.973 72.363 29.973 27.141 0 53.168-10.781 72.359-29.973 19.195-19.191 29.977-45.223 29.977-72.363-0.035157-27.133-10.828-53.141-30.012-72.324-19.184-19.188-45.195-29.98-72.324-30.012zm0 188.93c-22.969 0-44.992-9.125-61.23-25.363s-25.363-38.266-25.363-61.23 9.125-44.992 25.363-61.23 38.262-25.363 61.23-25.363c22.965 0 44.988 9.125 61.227 25.363 16.242 16.238 25.363 38.266 25.363 61.23-0.027344 22.957-9.1602 44.965-25.395 61.199-16.23 16.23-38.238 25.363-61.195 25.395zm-7.8711-125.95h15.742c4.1758 0 8.1797 1.6562 11.133 4.6094s4.6094 6.957 4.6094 11.133c0 4.3477 3.5273 7.875 7.875 7.875 4.3477 0 7.8711-3.5273 7.8711-7.875 0-8.3516-3.3164-16.359-9.2227-22.266-5.9062-5.9023-13.914-9.2227-22.266-9.2227v-7.8711c0-4.3477-3.5234-7.8711-7.8711-7.8711s-7.875 3.5234-7.875 7.8711v7.8711c-11.25 0-21.645 6.0039-27.27 15.746s-5.625 21.746 0 31.488c5.625 9.7422 16.02 15.742 27.27 15.742h15.746c5.625 0 10.82 3 13.633 7.8711 2.8125 4.875 2.8125 10.875 0 15.746-2.8125 4.8711-8.0078 7.8711-13.633 7.8711h-15.746c-4.1758 0-8.1797-1.6562-11.133-4.6094-2.9492-2.9531-4.6094-6.957-4.6094-11.133 0-4.3477-3.5234-7.875-7.8711-7.875-4.3477 0-7.875 3.5273-7.875 7.875 0 8.3516 3.3203 16.359 9.2227 22.266 5.9062 5.9023 13.914 9.2227 22.266 9.2227v7.8711c0 4.3477 3.5273 7.8711 7.875 7.8711s7.8711-3.5234 7.8711-7.8711v-7.8711c11.25 0 21.645-6.0039 27.27-15.746s5.625-21.746 0-31.488c-5.625-9.7422-16.02-15.742-27.27-15.742h-15.746c-5.625 0-10.82-3-13.633-7.8711-2.8125-4.875-2.8125-10.875 0-15.746 2.8125-4.8711 8.0078-7.8711 13.633-7.8711zm150.84 245.7-0.003906-0.003906c-14.371-38.031-10.992-80.496 9.2109-115.78 16.844-31.004 23.812-66.414 19.977-101.49-3.8359-35.074-18.289-68.141-41.434-94.773-23.145-26.633-53.871-45.562-88.066-54.25-34.199-8.6914-70.234-6.7305-103.29 5.6211-33.051 12.352-61.539 34.504-81.656 63.492-20.113 28.988-30.895 63.43-30.902 98.711 0 3.0234 0.09375 6.0156 0.28516 9.0039v0.003906c0.625 13.66-1.3281 27.316-5.7617 40.258l-14.988 45.734c-2.3555 7.2031-1.1094 15.094 3.3438 21.223s11.578 9.7461 19.152 9.7305h25.523v35.426c0 18.789 7.4648 36.809 20.75 50.098 13.285 13.285 31.309 20.75 50.098 20.75h40.492c5.6484-0.023437 11.117 1.9844 15.406 5.6641 4.2891 3.6758 7.1055 8.7734 7.9414 14.363l8.2656 53.812c1.0391 6.75 4.9531 12.723 10.727 16.375 5.7773 3.6484 12.848 4.6172 19.395 2.6602l123.7-37.094c6.3633-1.9062 11.637-6.3984 14.531-12.375 2.8477-5.9336 3.0781-12.785 0.63281-18.895zm8.4531 70.328c-0.96875 2-2.7344 3.4961-4.8672 4.125l-123.64 37.094v-0.003906c-2.1758 0.65625-4.5273 0.33984-6.4531-0.86719s-3.2344-3.1875-3.5898-5.4297l-8.2656-53.812c-1.3906-9.3125-6.0898-17.816-13.238-23.945-7.1484-6.1289-16.266-9.4766-25.684-9.4336h-40.477c-14.613 0-28.633-5.8047-38.965-16.137-10.336-10.336-16.141-24.352-16.141-38.965v-43.344c0-2.0898-0.82812-4.0898-2.3047-5.5664-1.4766-1.4766-3.4805-2.3047-5.5664-2.3047h-33.395c-2.5234 0-4.8945-1.2031-6.375-3.2461-1.4844-2.0391-1.8984-4.668-1.1172-7.0664l14.91-45.754c5.0469-14.816 7.2539-30.449 6.5-46.082-0.10938-2.6758-0.20312-5.3555-0.20312-8.0625-0.027344-41.828 16.605-81.945 46.219-111.49 29.613-29.543 69.77-46.078 111.6-45.953 9.9062 0.003906 19.793 0.90625 29.539 2.6953 49.336 9.4766 91.18 41.945 112.61 87.383s19.879 98.379-4.1875 142.48c-22.426 39.387-26.086 86.734-9.9805 129.1l23.285 58.254v-0.003906c0.84766 2.043 0.76562 4.3516-0.21875 6.332z"/>
 </g>
</svg>