<?xml version="1.0" encoding="UTF-8"?>
<!-- The Best Svg Icon site in the world: iconSvg.co, Visit us! https://iconsvg.co -->
<svg fill="#000000" width="800px" height="800px" version="1.1" viewBox="144 144 512 512" xmlns="http://www.w3.org/2000/svg">
 <g>
  <path d="m629.57 248.96-26.109-26.105c-2.0039-2.0039-5.2422-2.0039-7.2422 0l-26.105 26.105c-2 2-2 5.2383 0 7.2383s5.0547 2 7.0586 0l17-17.188v103.26h-36.316c-2.8281 0-5.668 3.5117-5.668 6.3398v56.637h-39.727c-2.8359 0-7.5078 1.2031-7.5078 4.0312v32.707h-33.793l0.13281-103.2c0-2.8281-2.2891-7.0117-5.1211-7.0117l-210.46-0.003906c-2.8281 0-2.6641 6.9648-2.6641 9.793v100.42h-39.125c-2.832 0-2.8594 3.168-2.8594 6.0039v35.977h-37.066c-2.8359 0-4.918 1.4258-4.918 4.2578v41.438c0 2.8281 2.418 5.1211 5.2461 5.1211s5.2461-2.293 5.2461-5.1211l0.003906-35.199h34.348c2.8281 0 7.6367-3.4102 7.6367-6.2383v-35.742h34.152c2.8281 0 7.832-1.6641 7.832-4.4922v-105.72h199.43v95.34l-1.2266 10.238c-0.03125 1.3789 0.015625 2.4102 0.97656 3.3906 0.96094 0.99219 1.8008 1.2422 3.1875 1.2422h46.551c2.8281 0 2.9922-1.6641 2.9922-4.4922l-0.003906-32.246h42.402c2.8281 0 4.8281-3.6367 4.8281-6.4648l0.003906-56.512h36.977c2.8281 0 5.0078-1.3281 5.0078-4.1562v-109.96l17.602 17.543c0.99609 0.99609 2.3398 1.5 3.6406 1.5 1.3125 0 2.6406-0.50391 3.6367-1.5 2.0078-1.9961 2.0234-5.2344 0.023438-7.2344z"/>
  <path d="m448.1 370.03c-0.38281 0.074218-0.78125 0.12109-1.1953 0.12109-3.625 0-6.5859-2.9531-6.5859-6.5898 0-0.41016 0.046876-0.8125 0.12109-1.2031 0.27734-1.4961-0.125-4.8008-1.0977-5.9727-0.97266-1.1758-2.4102-3.6172-3.9375-3.6172h-148.92c-1.5234 0-2.9609 2.4414-3.9414 3.6172-0.97266 1.1719-1.375 3.5938-1.0898 5.0859 0.074219 0.38672 0.11719 1.2383 0.11719 1.6484 0 3.6328-2.9492 6.8125-6.5859 6.8125-0.41406 0-0.8125 0.058593-1.2031-0.015626-1.4766-0.26953-2.5 0.17188-3.668 1.1484-1.1719 0.97266-1.3164 2.4688-1.3164 3.9961v43.074c0 1.5234 0.14062 2.9609 1.3125 3.9375 1.1719 0.97656 2.4609 1.3555 3.9375 1.0977 3.8242-0.71875 7.6602 2.4141 7.6602 6.4609 0 0.41016-0.10938 0.8125-0.1875 1.2031-0.28516 1.4961 0.09375 2.9531 1.0586 4.1367 0.97656 1.1719 2.3828 1.7656 3.9062 1.7656h148.92 0.10547c2.8281 0 5.1211-2.2031 5.1211-5.0312 0-0.60547-0.10547-1.1328-0.29297-1.6641-0.011719-0.14844-0.015625-0.27344-0.015625-0.42578 0-3.6328 2.9531-6.5742 6.5859-6.5742 0.41016 0 0.80859 0.050782 1.1953 0.12109 1.5078 0.29297 4.8242-0.10938 6-1.0898 1.1602-0.96875 3.6211-2.4141 3.6211-3.9336v-43.074c0-1.5273-2.4609-2.9688-3.625-3.9414-1.1836-0.97266-4.5039-1.3828-6-1.0938zm-0.87109 43.039c-10.496 1.2383-15.645 7.9258-16.883 13.172h-138.8c-1.2344-5.2461-1.7539-11.934-12.25-13.172v-32.941c10.496-1.2344 11.016-6.3672 12.25-16.863h138.8c1.2383 10.496 6.3867 15.629 16.883 16.863z"/>
  <path d="m360.95 375.11c-10.676 0-19.355 9.6406-19.355 21.484s8.6797 21.484 19.355 21.484c10.68 0 19.359-9.6406 19.359-21.484s-8.6797-21.484-19.359-21.484zm0 32.727c-5.0273 0-9.1172-5.043-9.1172-11.246 0-6.1992 4.0898-11.246 9.1172-11.246 5.0273 0 9.1211 5.0469 9.1211 11.246 0 6.2031-4.0938 11.246-9.1211 11.246z"/>
 </g>
</svg>