<?xml version="1.0" encoding="UTF-8"?>
<!-- The Best Svg Icon site in the world: iconSvg.co, Visit us! https://iconsvg.co -->
<svg width="800px" height="800px" version="1.1" viewBox="144 144 512 512" xmlns="http://www.w3.org/2000/svg">
 <defs>
  <clipPath id="a">
   <path d="m148.09 148.09h503.81v503.81h-503.81z"/>
  </clipPath>
 </defs>
 <g clip-path="url(#a)">
  <path d="m620.41 376.16v-7.8711h7.875c6.2617 0 12.27-2.4883 16.695-6.918 4.4297-4.4258 6.918-10.434 6.918-16.695v-31.488c0-0.25-0.125-0.47266-0.14062-0.72266v-0.003906c-0.050781-0.53516-0.15625-1.0625-0.31641-1.5742-0.45703-1.4531-1.3242-2.7461-2.5-3.7148-0.1875-0.15625-0.31641-0.37891-0.51953-0.53516l-226.53-151.68c-6.4766-4.3516-14.098-6.6719-21.898-6.6719s-15.426 2.3203-21.902 6.6719l-226.51 151.7c-0.21875 0.14062-0.33203 0.36328-0.51953 0.53516-1.1953 0.95312-2.0664 2.25-2.5039 3.7148-0.16016 0.51172-0.26562 1.0391-0.31641 1.5742 0 0.25-0.14062 0.45703-0.14062 0.72266v31.492c0 6.2617 2.4883 12.27 6.918 16.699 4.4297 4.4258 10.434 6.9141 16.699 6.9141h7.8555v7.875c0.019531 4.8633 1.543 9.6055 4.3633 13.574 2.8164 3.9688 6.793 6.9688 11.379 8.5898v159.6c-4.5859 1.625-8.5625 4.625-11.379 8.5938-2.8203 3.9648-4.3438 8.707-4.3633 13.574v8.6133h-7.8711c-6.2656 0-12.27 2.4883-16.699 6.918-4.4297 4.4258-6.918 10.434-6.918 16.699v31.488c0 2.0859 0.82812 4.0898 2.3047 5.5664 1.4766 1.4766 3.4805 2.3047 5.5664 2.3047h488.07c2.0859 0 4.0898-0.82812 5.5664-2.3047 1.4766-1.4766 2.3047-3.4805 2.3047-5.5664v-31.488c0-6.2656-2.4883-12.273-6.918-16.699-4.4258-4.4297-10.434-6.918-16.695-6.918h-7.875v-8.6133c-0.019531-4.8672-1.543-9.6094-4.3594-13.574-2.8203-3.9688-6.793-6.9688-11.383-8.5938v-159.61c4.5898-1.6211 8.5625-4.6211 11.383-8.5898 2.8164-3.9688 4.3398-8.7109 4.3594-13.578zm-233.55-208.12c3.8828-2.6172 8.457-4.0156 13.141-4.0156 4.6797 0 9.2539 1.3984 13.137 4.0156l204.99 137.27-436.27-0.003906zm-191.54 412.05c0.035156-3.6016 2.5352-6.707 6.0469-7.5078 0.59375 0.19531 1.207 0.31641 1.8281 0.35937h47.23c0.62109-0.042968 1.2344-0.16406 1.8281-0.35937 3.5078 0.80078 6.0117 3.9062 6.043 7.5078v7.8711h-62.977zm7.8711-196.06 0.003907 0.003906c-4.3477 0-7.875-3.5273-7.875-7.875v-7.8711h62.977v7.8711c0 2.0898-0.82812 4.0938-2.3047 5.5664-1.4766 1.4766-3.4766 2.3086-5.5664 2.3086zm39.359 15.742v156.7l-31.484 0.007813v-156.7zm385.73 204.67 0.003906 0.003907c2.0859 0 4.0898 0.83203 5.5664 2.3086 1.4727 1.4766 2.3047 3.4766 2.3047 5.5664v23.617l-472.32-0.003906v-23.617 0.003907c0-4.3477 3.5273-7.875 7.875-7.875h165.31c4.3477 0 7.8711-3.5234 7.8711-7.8711s-3.5234-7.8711-7.8711-7.8711h-62.977v-8.6133c-0.019531-4.8672-1.543-9.6094-4.3633-13.574-2.8164-3.9688-6.793-6.9688-11.383-8.5938v-159.6c4.5898-1.6211 8.5664-4.6211 11.383-8.5898 2.8203-3.9688 4.3438-8.7109 4.3633-13.578v-7.8711h47.23c4.3477 0 7.8711-3.5234 7.8711-7.8711 0-4.3477-3.5234-7.8711-7.8711-7.8711h-149.57c-4.3477 0-7.875-3.5234-7.875-7.8711v-23.617h472.32v23.617c0 2.0859-0.83203 4.0898-2.3047 5.5664-1.4766 1.4727-3.4805 2.3047-5.5664 2.3047h-157.44c-4.3477 0-7.8711 3.5234-7.8711 7.8711 0 4.3477 3.5234 7.8711 7.8711 7.8711h55.102v7.8711c0.023437 4.8672 1.5469 9.6094 4.3633 13.578 2.8203 3.9688 6.793 6.9688 11.383 8.5898v159.61c-4.5898 1.625-8.5625 4.625-11.383 8.5938-2.8164 3.9648-4.3398 8.707-4.3633 13.574v8.6133h-70.848c-4.3477 0-7.8711 3.5234-7.8711 7.8711s3.5234 7.8711 7.8711 7.8711zm-31.488-31.488 0.003906 0.003907c0.62109-0.042969 1.2344-0.16406 1.8242-0.35938 3.5117 0.80078 6.0117 3.9062 6.0469 7.5078v7.8711l-62.977 0.003906v-7.875c0.03125-3.6016 2.5352-6.707 6.0469-7.5078 0.58984 0.19531 1.2031 0.31641 1.8242 0.35938zm-39.359-16.477v-156.7h31.488v156.7zm39.359-172.45h-47.23c-4.3477 0-7.8711-3.5273-7.8711-7.875v-7.8711h62.977v7.8711c0 2.0898-0.83203 4.0938-2.3047 5.5664-1.4766 1.4766-3.4805 2.3086-5.5664 2.3086zm-94.465 70.848h0.003907c0.023437-25.148-9.2109-49.422-25.945-68.191-16.73-18.773-39.789-30.727-64.773-33.582-24.984-2.8555-50.145 3.5898-70.68 18.102-20.535 14.516-35.012 36.078-40.66 60.582-5.6484 24.504-2.0781 50.23 10.031 72.27s31.906 38.848 55.621 47.219c4.1055 1.4297 8.5938-0.74609 10.02-4.8555s-0.75-8.5938-4.8555-10.02c-25.879-9.1641-45.879-30.059-53.902-56.309-8.0273-26.254-3.1289-54.758 13.199-76.824 16.328-22.07 42.156-35.086 69.609-35.086 27.449 0 53.277 13.016 69.605 35.086 16.328 22.066 21.227 50.57 13.203 76.824-8.0273 26.25-28.027 47.145-53.902 56.309-3.6484 1.2461-5.8516 4.9531-5.2109 8.7539 0.64063 3.8008 3.9375 6.5781 7.793 6.5625 0.875 0.003906 1.75-0.14062 2.582-0.42578 19.973-7 37.273-20.043 49.508-37.32 12.23-17.273 18.785-37.926 18.758-59.094zm-102.33-244.77c-8.3516 0-16.363 3.3164-22.266 9.2227-5.9062 5.9062-9.2227 13.914-9.2227 22.266 0 8.3516 3.3164 16.359 9.2227 22.266 5.9023 5.9062 13.914 9.2227 22.266 9.2227s16.359-3.3164 22.266-9.2227c5.9023-5.9062 9.2227-13.914 9.2227-22.266 0-8.3516-3.3203-16.359-9.2227-22.266-5.9062-5.9062-13.914-9.2227-22.266-9.2227zm0 47.23c-4.1758 0-8.1797-1.6562-11.133-4.6094-2.9531-2.9531-4.6133-6.957-4.6133-11.133 0-4.1758 1.6602-8.1797 4.6133-11.133 2.9531-2.9531 6.957-4.6094 11.133-4.6094s8.1797 1.6562 11.133 4.6094c2.9492 2.9531 4.6094 6.957 4.6094 11.133 0 4.1758-1.6602 8.1797-4.6094 11.133-2.9531 2.9531-6.957 4.6094-11.133 4.6094zm16.703 311.42-8.832 8.832v-28.242c0-4.3477-3.5234-7.875-7.8711-7.875s-7.875 3.5273-7.875 7.875v28.23l-8.832-8.832v-0.003906c-3.0859-2.9805-7.9961-2.9414-11.035 0.097656-3.0352 3.0352-3.0781 7.9453-0.09375 11.035l22.246 22.246c1.4766 1.4805 3.4805 2.3125 5.5742 2.3125 2.0898 0 4.0938-0.83203 5.5703-2.3125l22.246-22.246c2.9844-3.0898 2.9414-8-0.09375-11.035-3.0352-3.0391-7.9453-3.0781-11.035-0.097656zm-8.832-74.516h-15.746c-4.1758 0-8.1797-1.6602-11.133-4.6094-2.9492-2.9531-4.6094-6.957-4.6094-11.133 0-4.3477-3.5234-7.875-7.8711-7.875-4.3477 0-7.875 3.5273-7.875 7.875 0 8.3477 3.3203 16.359 9.2227 22.266 5.9062 5.9023 13.914 9.2227 22.266 9.2227v7.8711c0 4.3477 3.5273 7.8711 7.875 7.8711s7.8711-3.5234 7.8711-7.8711v-7.8711c11.25 0 21.645-6.0039 27.27-15.746 5.625-9.7422 5.625-21.746 0-31.488-5.625-9.7422-16.02-15.742-27.27-15.742h-15.746c-5.625 0-10.82-3.0039-13.633-7.875-2.8125-4.8711-2.8125-10.871 0-15.742 2.8125-4.8711 8.0078-7.8711 13.633-7.8711h15.746c4.1758 0 8.1797 1.6562 11.133 4.6094 2.9531 2.9531 4.6094 6.957 4.6094 11.133 0 4.3477 3.5273 7.8711 7.875 7.8711 4.3477 0 7.8711-3.5234 7.8711-7.8711 0-8.3516-3.3164-16.359-9.2227-22.266s-13.914-9.2227-22.266-9.2227v-7.8711c0-4.3477-3.5234-7.8711-7.8711-7.8711s-7.875 3.5234-7.875 7.8711v7.8711c-11.25 0-21.645 6.0039-27.27 15.746-5.625 9.7422-5.625 21.746 0 31.488 5.625 9.7422 16.02 15.742 27.27 15.742h15.746c5.625 0 10.82 3 13.633 7.8711s2.8125 10.875 0 15.746-8.0078 7.8711-13.633 7.8711z"/>
 </g>
</svg>