<?xml version="1.0" encoding="UTF-8"?>
<!-- The Best Svg Icon site in the world: iconSvg.co, Visit us! https://iconsvg.co -->
<svg fill="#000000" width="800px" height="800px" version="1.1" viewBox="144 144 512 512" xmlns="http://www.w3.org/2000/svg">
 <g>
  <path d="m413.26 320.45c11.84-1.1836 22.152-8.5938 27.047-19.441 4.8945-10.848 3.6328-23.484-3.3164-33.148-6.9453-9.6602-18.52-14.883-30.359-13.699h-13.258c-3.6641 0-6.6289-2.9688-6.6289-6.6289 0-3.6641 2.9648-6.6289 6.6289-6.6289h33.145c7.3203 0 13.258-5.9375 13.258-13.258 0-7.3242-5.9375-13.262-13.258-13.262h-13.258c0-7.3203-5.9375-13.258-13.258-13.258-7.3242 0-13.258 5.9375-13.258 13.258-11.844 1.1875-22.152 8.5977-27.051 19.445-4.8945 10.848-3.6289 23.48 3.3164 33.145 6.9453 9.6641 18.52 14.887 30.363 13.703h13.258c3.6602 0 6.6289 2.9688 6.6289 6.6289 0 3.6602-2.9688 6.6289-6.6289 6.6289h-33.148c-7.3203 0-13.258 5.9375-13.258 13.258 0 7.3242 5.9375 13.258 13.258 13.258h13.262c0 7.3242 5.9336 13.258 13.258 13.258 7.3203 0 13.258-5.9336 13.258-13.258z"/>
  <path d="m598.87 398.67c-0.68359-6.8008-6.4258-11.965-13.258-11.93-54.625 0-92.809 14.32-115.48 42.426h-0.003907c-16.645 22.926-22.723 51.863-16.703 79.547 0.31641 1.0039 0.71484 1.9805 1.1914 2.918l-41.363 41.496v-180.57c36.027-4.5391 67.23-27.195 82.703-60.051 15.469-32.855 13.051-71.344-6.4023-102-19.453-30.664-53.246-49.246-89.559-49.246-36.316 0-70.105 18.582-89.562 49.246-19.453 30.66-21.867 69.148-6.3984 102 15.469 32.855 46.672 55.512 82.703 60.051v127.81l-41.234-41.234c0.57422-0.90625 1.0195-1.8867 1.3242-2.9141 5.8828-27.688-0.18359-56.57-16.703-79.551-22.008-28.637-60.855-42.957-115.75-42.957-6.832-0.035156-12.574 5.1328-13.258 11.934 0 2.7852-6.4961 69.738 32.746 108.59l0.003906-0.003906c18.824 18.059 44.207 27.637 70.266 26.52 6.0273-0.070313 12.047-0.46875 18.031-1.1953 1.6797-0.14062 3.3047-0.63672 4.7734-1.457l59.797 59.793v46.402c-0.13281 0.74609-0.13281 1.5117 0 2.2539v25.59h-53.035c-7.3203 0-13.258 5.9375-13.258 13.258 0 7.3242 5.9375 13.258 13.258 13.258h132.58c7.3242 0 13.258-5.9336 13.258-13.258 0-7.3203-5.9336-13.258-13.258-13.258h-53.031v-21.477l59.66-59.66v-0.003907c1.4688 0.82031 3.0977 1.3203 4.7734 1.4609 5.8555 0.66797 11.742 1.0234 17.633 1.0586 26.059 1.1172 51.445-8.4609 70.27-26.516 39.242-38.582 33.277-105.54 33.277-108.32zm-346.04 36.727c-21.609-21.348-25.188-56.348-25.188-75.176 38.98 1.8555 66.289 12.594 81.539 31.82h-0.003906c9.3242 12.621 14.008 28.078 13.258 43.754l-18.961-18.961h0.003907c-5.1719-5.1406-13.523-5.1406-18.695 0-2.5117 2.4883-3.9219 5.8789-3.9219 9.4141s1.4102 6.9219 3.9219 9.4141l17.898 17.898c-18.352 0.67578-36.238-5.8398-49.852-18.164zm67.617-167.98c0-21.098 8.3828-41.332 23.301-56.25s35.152-23.301 56.25-23.301 41.328 8.3828 56.25 23.301c14.918 14.918 23.297 35.152 23.297 56.25 0 21.098-8.3789 41.332-23.297 56.25-14.922 14.918-35.152 23.297-56.25 23.297s-41.332-8.3789-56.25-23.297-23.301-35.152-23.301-56.25zm226.45 221.01c-13.555 12.445-31.461 19.062-49.852 18.43l17.898-17.898c2.5117-2.4883 3.9219-5.8789 3.9219-9.4141s-1.4102-6.9219-3.9219-9.4141c-5.168-5.1406-13.523-5.1406-18.691 0l-18.961 18.961c-0.72656-15.672 3.9531-31.121 13.258-43.754 15.512-18.824 42.824-29.961 81.805-32.082 0 18.824-3.8477 53.828-25.457 75.172z"/>
 </g>
</svg>