<?xml version="1.0" encoding="UTF-8"?>
<!-- The Best Svg Icon site in the world: iconSvg.co, Visit us! https://iconsvg.co -->
<svg fill="#000000" width="800px" height="800px" version="1.1" viewBox="144 144 512 512" xmlns="http://www.w3.org/2000/svg">
 <g>
  <path d="m277.04 286.97c6.2461 3.1172 12.934 4.6992 19.871 4.6992 17.027 0 32.328-9.4648 39.938-24.703 10.977-21.996 2-48.828-20.008-59.824-6.2461-3.1133-12.93-4.6914-19.859-4.6914-17.039 0-32.344 9.4609-39.945 24.695-5.3203 10.664-6.168 22.762-2.3867 34.059 3.7734 11.312 11.734 20.457 22.391 25.766z"/>
  <path d="m507.63 291.68c6.9375 0 13.621-1.582 19.875-4.6992 10.656-5.3164 18.602-14.461 22.379-25.762 3.7773-11.301 2.9336-23.391-2.3867-34.051-7.5938-15.234-22.898-24.695-39.941-24.695-6.9336 0-13.617 1.5781-19.863 4.6914-22.008 10.988-30.98 37.82-20.008 59.816 7.6055 15.23 22.91 24.695 39.945 24.699z"/>
  <path d="m609.33 248.52c-1.9766-3.9648-5.3711-6.9219-9.5664-8.3164-1.707-0.57422-3.4805-0.86719-5.2734-0.86719-7.1328 0-13.453 4.5547-15.715 11.332-10.965 32.773-37.32 53.949-67.156 53.949-7.2734 0-14.688-1.2461-22.023-3.6992-18.965-6.3398-32.891-19.051-40.273-36.746-7.0898-17-7.3516-37.258-0.73438-57.043 2.8984-8.6602-1.7969-18.078-10.473-20.988-1.6992-0.57031-3.4648-0.85547-5.2461-0.85547-7.1445 0-13.469 4.5547-15.73 11.332-15.789 47.23-10.742 89.965 13.43 114.97l-6.3008 17.41c-16.086-2.7773-30.57-2.6289-42.93-1.0586l-7.2344-16.48c24.066-25.035 29.074-67.703 13.305-114.84-2.2617-6.7773-8.5859-11.332-15.73-11.332-1.7852 0-3.5469 0.28906-5.25 0.85547-8.6719 2.9102-13.367 12.324-10.469 20.988 6.6133 19.785 6.3516 40.043-0.73438 57.043-7.3867 17.703-21.312 30.41-40.273 36.746-7.3359 2.4531-14.746 3.6992-22.023 3.6992-29.836 0-56.191-21.176-67.156-53.949-2.2617-6.7773-8.5742-11.332-15.707-11.332-1.7891 0-3.5625 0.29297-5.2656 0.86328-4.1953 1.3945-7.5977 4.3477-9.5742 8.3047-1.9844 3.9648-2.2969 8.4688-0.89062 12.676 15.734 47.047 45.301 78.09 79.477 83.715l6.832 44.129c-17.781 24.52-28.312 54.633-28.312 87.176 0 9.7734 0.97266 19.32 2.7812 28.574-0.42969 1.3711-0.29297 2.8672 0.47266 4.125l0.66016 1.0781c15.352 65.863 74.488 115.1 144.95 115.1 82.098 0 148.88-66.789 148.88-148.88 0-32.691-10.617-62.938-28.555-87.516l9.0781-43.77c34.254-5.5625 63.879-36.621 79.629-83.738 1.3906-4.1992 1.0742-8.6953-0.89453-12.656zm-318.58 252.72h-20.934c-1.5469-8.1172-2.3867-16.48-2.3867-25.043 0-15.672 2.7305-30.723 7.707-44.715h14.641c15.438 0 27.996-12.555 27.996-27.992 0-8.7617-4.2305-16.832-10.906-22.047 24.203-24.094 57.547-39.012 94.312-39.012 25.641 0 49.609 7.2656 69.984 19.824h-16.832c-16.449 0-29.832 13.32-29.945 29.738-7.4219-1.9688-15.164-3.125-23.195-3.125-49.898 0-90.496 40.598-90.496 90.496 0 19.629 6.3516 37.77 17.012 52.613h-6.4453v-0.23047c0.003906-16.816-13.688-30.508-30.512-30.508zm185.82-21.867c0 41.562-33.816 75.379-75.379 75.379s-75.379-33.816-75.379-75.379 33.816-75.379 75.379-75.379c41.562-0.003906 75.379 33.812 75.379 75.379zm58.375-3.1758c0 73.762-60.004 133.77-133.77 133.77-27.348 0-52.793-8.2656-74.004-22.41h24.762c12.836 0 23.641-8.7656 26.809-20.625 7.1953 1.8438 14.688 2.9336 22.445 2.9336 23.977 0 45.742-9.4375 61.949-24.707 1.2148 0.17188 2.4336 0.34375 3.6406 0.34375h24.078c15.66 0 28.398-12.555 28.398-27.992 0-7.4062-3.1133-14.488-8.418-19.699 5.3047-5.1992 8.418-12.352 8.418-19.879 0-3.7773-0.75391-7.4531-2.207-10.855h17.547c0.20703 3.0234 0.34766 6.0586 0.34766 9.125z"/>
  <path d="m411.96 474.13-16.551-5.4609c-2.5508-0.81641-12.871-4.4922-11.777-14.707 0.41406-3.8984 1.5625-6.9023 4.6758-8.9414 2.543-1.6367 5.6914-2.4492 9.4531-2.4492 6.3672 0 10.699 1.0664 13.539 4.7422 1.5586 2.125 2.0547 3.6836 2.4844 7.3594 0 0 0.50391 6.0508 7.7539 6.0508 7.2539 0 8.3633-5.7617 8.5078-6.8047 0.64453-4.707-1.9141-12.59-5.4883-17.266-4.1055-5.4023-9.9492-8.6641-17.035-10.062v-7.5156c0-4.0508-3.2812-7.3359-7.332-7.3359s-7.3359 3.2812-7.3359 7.3359v7.1289c-8.4805 1.0977-14.938 4.5234-19.305 10.359-3.8203 5.1445-10.195 15.047-3.6562 32.184 5.6328 14.781 32.527 19.504 32.527 19.504 5.0234 1.2227 14.625 3.1484 14.645 14.73 0.003906 4.4883-2.7656 13.199-17.094 13.199-6.6484 0-16.141-2.9414-16.141-15.027 0 0 0.10938-6.3086-7.7695-6.3086-7.8633 0-8.4727 6.3086-8.4727 6.3086 0 8.0039 1.1484 13.633 5.332 19.109 6.2617 8.2812 13.957 11.176 19.938 12.176v6.707c0 4.0508 3.2852 7.3359 7.3359 7.3359 4.0508 0 7.332-3.2812 7.332-7.3359v-6.7617c18.75-3.2578 25.781-20.617 25.781-31.605-0.003907-8.0078-2.9102-20.297-21.348-26.648z"/>
 </g>
</svg>