<?xml version="1.0" encoding="UTF-8"?>
<!-- The Best Svg Icon site in the world: iconSvg.co, Visit us! https://iconsvg.co -->
<svg fill="#000000" width="800px" height="800px" version="1.1" viewBox="144 144 512 512" xmlns="http://www.w3.org/2000/svg">
 <g>
  <path d="m246.49 524.97h7.8711v20.664h-7.8711z"/>
  <path d="m240.59 557.44h6.8867v19.68h-6.8867z"/>
  <path d="m246.49 589.91h7.8711v19.68h-7.8711z"/>
  <path d="m226.81 524.97h7.8711v20.664h-7.8711z"/>
  <path d="m266.18 589.91h8.8555v19.68h-8.8555z"/>
  <path d="m266.18 524.97h8.8555v20.664h-8.8555z"/>
  <path d="m278.96 557.44h8.8555v19.68h-8.8555z"/>
  <path d="m220.91 557.44h7.8711v19.68h-7.8711z"/>
  <path d="m259.29 557.44h7.8711v19.68h-7.8711z"/>
  <path d="m188.44 524.97h7.8711v20.664h-7.8711z"/>
  <path d="m180.57 557.44h8.8555v19.68h-8.8555z"/>
  <path d="m188.44 589.91h7.8711v19.68h-7.8711z"/>
  <path d="m167.77 524.97h8.8555v20.664h-8.8555z"/>
  <path d="m167.77 589.91h8.8555v19.68h-8.8555z"/>
  <path d="m226.81 589.91h7.8711v19.68h-7.8711z"/>
  <path d="m208.12 524.97h6.8867v20.664h-6.8867z"/>
  <path d="m201.23 557.44h7.8711v19.68h-7.8711z"/>
  <path d="m208.12 589.91h6.8867v19.68h-6.8867z"/>
  <path d="m388.19 493.48h7.8711v19.68h-7.8711z"/>
  <path d="m368.51 493.48h7.8711v19.68h-7.8711z"/>
  <path d="m394.09 524.97h7.8711v20.664h-7.8711z"/>
  <path d="m388.19 557.44h7.8711v19.68h-7.8711z"/>
  <path d="m394.09 589.91h7.8711v19.68h-7.8711z"/>
  <path d="m413.77 524.97h7.8711v20.664h-7.8711z"/>
  <path d="m407.87 557.44h6.8867v19.68h-6.8867z"/>
  <path d="m413.77 589.91h7.8711v19.68h-7.8711z"/>
  <path d="m375.4 589.91h6.8867v19.68h-6.8867z"/>
  <path d="m335.05 524.97h8.8555v20.664h-8.8555z"/>
  <path d="m375.4 524.97h6.8867v20.664h-6.8867z"/>
  <path d="m347.85 557.44h8.8555v19.68h-8.8555z"/>
  <path d="m335.05 589.91h8.8555v19.68h-8.8555z"/>
  <path d="m355.72 589.91h7.8711v19.68h-7.8711z"/>
  <path d="m407.87 493.48h6.8867v19.68h-6.8867z"/>
  <path d="m355.72 524.97h7.8711v20.664h-7.8711z"/>
  <path d="m368.51 557.44h7.8711v19.68h-7.8711z"/>
  <path d="m347.85 493.48h8.8555v19.68h-8.8555z"/>
  <path d="m433.45 524.97h8.8555v20.664h-8.8555z"/>
  <path d="m446.25 557.44h8.8555v19.68h-8.8555z"/>
  <path d="m446.25 493.48h8.8555v19.68h-8.8555z"/>
  <path d="m433.45 589.91h8.8555v19.68h-8.8555z"/>
  <path d="m426.57 493.48h7.8711v19.68h-7.8711z"/>
  <path d="m426.57 557.44h7.8711v19.68h-7.8711z"/>
  <path d="m584.99 557.44h6.8867v19.68h-6.8867z"/>
  <path d="m584.99 493.48h6.8867v19.68h-6.8867z"/>
  <path d="m571.21 524.97h7.8711v20.664h-7.8711z"/>
  <path d="m590.89 461.01h7.8711v19.68h-7.8711z"/>
  <path d="m565.31 493.48h7.8711v19.68h-7.8711z"/>
  <path d="m571.21 461.01h7.8711v19.68h-7.8711z"/>
  <path d="m590.89 589.91h7.8711v19.68h-7.8711z"/>
  <path d="m590.89 524.97h7.8711v20.664h-7.8711z"/>
  <path d="m623.37 493.48h8.8555v19.68h-8.8555z"/>
  <path d="m623.37 557.44h8.8555v19.68h-8.8555z"/>
  <path d="m603.69 557.44h7.8711v19.68h-7.8711z"/>
  <path d="m603.69 493.48h7.8711v19.68h-7.8711z"/>
  <path d="m610.57 589.91h8.8555v19.68h-8.8555z"/>
  <path d="m610.57 524.97h8.8555v20.664h-8.8555z"/>
  <path d="m610.57 461.01h8.8555v19.68h-8.8555z"/>
  <path d="m532.84 589.91h7.8711v19.68h-7.8711z"/>
  <path d="m532.84 524.97h7.8711v20.664h-7.8711z"/>
  <path d="m524.97 493.48h8.8555v19.68h-8.8555z"/>
  <path d="m532.84 461.01h7.8711v19.68h-7.8711z"/>
  <path d="m524.97 557.44h8.8555v19.68h-8.8555z"/>
  <path d="m512.18 589.91h8.8555v19.68h-8.8555z"/>
  <path d="m512.18 524.97h8.8555v20.664h-8.8555z"/>
  <path d="m512.18 461.01h8.8555v19.68h-8.8555z"/>
  <path d="m552.52 589.91h6.8867v19.68h-6.8867z"/>
  <path d="m545.63 493.48h7.8711v19.68h-7.8711z"/>
  <path d="m552.52 461.01h6.8867v19.68h-6.8867z"/>
  <path d="m571.21 589.91h7.8711v19.68h-7.8711z"/>
  <path d="m552.52 524.97h6.8867v20.664h-6.8867z"/>
  <path d="m545.63 557.44h7.8711v19.68h-7.8711z"/>
  <path d="m565.31 557.44h7.8711v19.68h-7.8711z"/>
  <path d="m598.16 301.34-109.71-7.8359h-0.003906c-3.25-0.23437-6.0781 2.2148-6.3086 5.4688-0.23437 3.25 2.2148 6.0781 5.4688 6.3086l94.48 6.75-160.65 124.85-113.27-89.227c-2.3125-1.8203-5.6133-1.6602-7.7383 0.37891l-112.33 107.76c-2.3125 2.2617-2.3711 5.9688-0.12891 8.3047 2.2383 2.3359 5.9453 2.4297 8.3047 0.21484l108.62-104.2 112.86 88.906c2.1328 1.6797 5.1328 1.6875 7.2773 0.023437l165.79-128.84-6.8047 88.461c-0.12109 1.5625 0.38281 3.1094 1.4023 4.2969s2.4688 1.9258 4.0312 2.043c0.15625 0.011718 0.30859 0.019531 0.46094 0.019531h-0.003906c3.0859-0.003906 5.6445-2.3789 5.8828-5.4531l7.8359-101.88c0.12109-1.5664-0.38672-3.1172-1.4141-4.3047-1.0273-1.1914-2.4844-1.9219-4.0508-2.0352z"/>
  <path d="m375.14 324.26c17.773 0 34.816-7.0586 47.383-19.625 12.57-12.57 19.629-29.613 19.629-47.387 0-17.77-7.0586-34.816-19.629-47.383-12.566-12.566-29.609-19.625-47.383-19.625-17.77 0-34.816 7.0586-47.383 19.625-12.566 12.566-19.625 29.613-19.625 47.383 0.019532 17.766 7.0859 34.801 19.648 47.363s29.594 19.629 47.359 19.648zm0-58.691c-8.1797 0-15.836-4.0352-20.457-10.785s-5.6133-15.348-2.6523-22.973 9.4961-13.301 17.465-15.16v-4.5977c0-3.2617 2.6406-5.9062 5.9023-5.9062 3.2617 0 5.9023 2.6445 5.9023 5.9062v4.7148c5.3281 1.375 10.047 4.4766 13.418 8.8242 3.3711 4.3438 5.2031 9.6875 5.2109 15.188 0 3.2578-2.6445 5.9023-5.9062 5.9023-3.2578 0-5.9023-2.6445-5.9023-5.9023 0-5.25-3.1641-9.9844-8.0117-11.992-4.8516-2.0078-10.434-0.89844-14.145 2.8125-3.7109 3.7109-4.8242 9.2969-2.8125 14.145 2.0078 4.8516 6.7383 8.0117 11.988 8.0117 8.2422-0.003906 15.945 4.0898 20.555 10.918 4.6094 6.8281 5.5273 15.5 2.4453 23.145-3.0859 7.6406-9.7617 13.25-17.82 14.965v4.7188c0 3.2578-2.6445 5.9023-5.9062 5.9023-3.2617 0-5.9023-2.6445-5.9023-5.9023v-5.0781c-5.2188-1.4531-9.8164-4.5742-13.094-8.8867-3.2773-4.3125-5.0547-9.5742-5.0625-14.992 0-3.2578 2.6406-5.9023 5.9023-5.9023 3.2617 0 5.9062 2.6445 5.9062 5.9023 0 5.25 3.1602 9.9844 8.0117 11.992 4.8477 2.0078 10.43 0.89844 14.145-2.8125 3.7109-3.7148 4.8203-9.2969 2.8125-14.145-2.0078-4.8516-6.7422-8.0117-11.992-8.0117z"/>
 </g>
</svg>