<?xml version="1.0" encoding="UTF-8"?>
<!-- The Best Svg Icon site in the world: iconSvg.co, Visit us! https://iconsvg.co -->
<svg fill="#000000" width="800px" height="800px" version="1.1" viewBox="144 144 512 512" xmlns="http://www.w3.org/2000/svg">
 <g>
  <path d="m629.16 426.46c-0.042968-0.31641-0.042968-0.66016-0.15625-0.98828-0.10547-0.32422-0.28516-0.62109-0.47266-0.90234-0.16797-0.28516-0.26172-0.59766-0.49219-0.83984-0.21875-0.26172-0.49219-0.45312-0.75391-0.66016-0.24219-0.21875-0.49219-0.44141-0.77734-0.62109-0.29297-0.17969-0.66016-0.21875-0.98828-0.32422-0.28516-0.082031-0.55469-0.23047-0.85938-0.27344-0.042968 0-0.10547 0.011719-0.16797 0.011719s-0.10547-0.03125-0.15625-0.042969c-11.012-0.66016-19.836-9.4453-20.477-20.469-0.68359-12.059 8.5-22.418 20.508-23.121 0.011718 0 0.019531-0.019531 0.042968-0.019531h0.26172c0.30469-0.042969 0.56641-0.21094 0.85938-0.29297 0.32422-0.10547 0.66016-0.16797 0.97656-0.32422 0.29297-0.15625 0.53516-0.39844 0.78906-0.60938 0.24219-0.21875 0.54688-0.39844 0.75391-0.66016 0.21875-0.25 0.31641-0.54688 0.49219-0.83984 0.17969-0.30469 0.36719-0.57812 0.47266-0.91406 0.10547-0.31641 0.10547-0.66016 0.14844-0.98828 0.03125-0.30469 0.14844-0.59766 0.125-0.91406 0-0.0625-0.042968-0.10547-0.042968-0.16797-0.011719-0.050781 0.019531-0.09375 0.011718-0.14844-2.625-21.727-8.3008-42.938-16.879-63.039-0.019531-0.050781-0.082031-0.082031-0.10547-0.13672-0.019532-0.050781-0.019532-0.10547-0.042969-0.15625-0.14844-0.28516-0.36719-0.46094-0.55469-0.70312-0.21094-0.28516-0.37891-0.57812-0.64062-0.80859-0.26172-0.23047-0.58594-0.37891-0.85938-0.55469-0.28516-0.16797-0.55469-0.36719-0.85938-0.47266-0.28516-0.10547-0.62109-0.125-0.92188-0.17969-0.34766-0.0625-0.68359-0.15625-1.082-0.13672-0.27344 0.011719-0.60938 0.11719-0.89062 0.1875-0.32422 0.0625-0.66016 0.0625-0.97656 0.19922-0.074218 0.019531-0.09375 0.074219-0.15625 0.09375-0.042968 0.019531-0.10547 0.011719-0.15625 0.042969-9.8438 4.9336-21.875 1.7227-27.961-7.4844-6.6211-10.043-3.8398-23.605 6.2031-30.23 0.0625-0.042968 0.082031-0.10547 0.14844-0.14844 0.050781-0.019531 0.09375-0.011719 0.125-0.03125 0.21875-0.17969 0.35547-0.41797 0.55469-0.62891 0.25-0.26172 0.55469-0.50391 0.73438-0.82031 0.16797-0.27344 0.21875-0.57812 0.34766-0.88281 0.14844-0.32422 0.28516-0.64063 0.34766-0.98828 0.042969-0.32422 0-0.66016 0-0.98828 0-0.33594 0.019532-0.66016-0.042968-0.99609-0.09375-0.36719-0.25-0.70312-0.42969-1.0586-0.125-0.24219-0.15625-0.50391-0.30469-0.73438-0.019531-0.042968-0.0625-0.050781-0.082031-0.09375-0.042969-0.050781-0.042969-0.11719-0.082032-0.16797-13.141-17.496-28.645-33.02-46.152-46.141-0.050781-0.03125-0.11719-0.03125-0.15625-0.0625-0.058593-0.023438-0.046874-0.066407-0.10937-0.097657-0.25391-0.17969-0.56641-0.22266-0.85156-0.34766-0.29297-0.125-0.60938-0.29297-0.91406-0.36719-0.34766-0.082031-0.69141-0.050781-1.0703-0.050781-0.30469 0-0.64062-0.042969-0.92188 0-0.34766 0.0625-0.66016 0.21875-1.0078 0.34766-0.28516 0.11719-0.62109 0.19922-0.89062 0.36719-0.27344 0.17969-0.51563 0.44141-0.74609 0.68359-0.21875 0.21094-0.49219 0.35547-0.67188 0.60938-0.03125 0.042969-0.042969 0.10547-0.082031 0.15625-0.019532 0.042969-0.0625 0.0625-0.10547 0.10547-6.0664 9.2031-18.105 12.426-27.961 7.4844-10.746-5.3828-15.125-18.504-9.7617-29.262 0.03125-0.0625 0.019532-0.13672 0.050782-0.21094 0.03125-0.050782 0.082031-0.0625 0.10547-0.11719 0.15625-0.35547 0.15625-0.71484 0.21875-1.082 0.042969-0.24219 0.13672-0.48438 0.14844-0.72266 0.03125-0.54687-0.074219-1.0703-0.21094-1.5859-0.03125-0.11719-0.03125-0.23047-0.074218-0.34766-0.19922-0.58594-0.50391-1.1133-0.90234-1.5938-0.03125-0.042969-0.042969-0.082031-0.074219-0.125-0.41797-0.49219-0.94531-0.89062-1.543-1.207-0.03125-0.019532-0.050781-0.050782-0.082031-0.0625h-0.019531c-0.082031-0.042969-0.14844-0.125-0.23047-0.16797-20.078-8.5742-41.293-14.266-63.039-16.898-0.050781 0-0.11719 0.019531-0.16797 0.011719-0.050781-0.011719-0.082031-0.03125-0.13672-0.03125-0.24219 0-0.45312 0.082031-0.68359 0.10547-0.41797 0.03125-0.82813 0.050781-1.2266 0.1875-0.48438 0.14844-0.87109 0.38672-1.2695 0.65234-0.125 0.082032-0.26172 0.13672-0.37891 0.21875-0.42969 0.33594-0.76563 0.74609-1.0703 1.1953-0.082031 0.125-0.1875 0.21875-0.26172 0.35547-0.1875 0.34766-0.26172 0.73438-0.37891 1.125-0.074219 0.26172-0.21875 0.48438-0.25 0.76562-0.011719 0.074219 0.019531 0.13672 0.019531 0.21094-0.011719 0.03125-0.03125 0.0625-0.03125 0.10547-0.66016 11-9.4453 19.805-20.469 20.469-11.922 0.62891-22.355-8.4609-23.082-20.469 0-0.082031-0.050781-0.15625-0.050781-0.23047 0-0.03125 0.011719-0.050781 0-0.082031-0.011719-0.11719-0.082031-0.19922-0.09375-0.30469-0.10547-0.60938-0.27344-1.1641-0.55469-1.6797l-0.011719-0.011719c-0.31641-0.57812-0.73437-1.0586-1.2578-1.4688-0.09375-0.074219-0.21875-0.11719-0.32422-0.1875-0.39844-0.26172-0.79688-0.50391-1.2812-0.66016-0.42969-0.14844-0.88281-0.17969-1.3438-0.21094-0.21875-0.011719-0.39844-0.09375-0.62891-0.09375-0.042969 0-0.082031 0.03125-0.13672 0.03125-0.0625 0-0.125-0.019532-0.19922-0.011719-21.727 2.625-42.93 8.3125-63.027 16.898-0.0625 0.019532-0.10547 0.082032-0.16797 0.11719-0.042969 0.011718-0.082031 0.011718-0.125 0.03125-0.21875 0.11719-0.37891 0.30469-0.57812 0.45312-0.33594 0.23047-0.68359 0.44141-0.94531 0.74609-0.21875 0.24219-0.35547 0.53516-0.53516 0.82813-0.17969 0.28516-0.36719 0.54687-0.48438 0.85937-0.13672 0.37891-0.17969 0.77734-0.21875 1.1758-0.03125 0.25-0.10547 0.50391-0.10547 0.76562 0.011718 0.47266 0.14844 0.94531 0.29297 1.418 0.050782 0.16797 0.03125 0.34766 0.10547 0.51562 0.011719 0.019532 0.03125 0.03125 0.042969 0.050782 0.03125 0.082031 0.019531 0.16797 0.0625 0.24219 4.9453 9.8555 1.6992 21.883-7.4961 27.961-4.8594 3.2109-10.664 4.3242-16.406 3.168-5.7109-1.1641-10.633-4.4922-13.824-9.3516-0.03125-0.042969-0.074219-0.0625-0.10547-0.10547-0.03125-0.042968-0.03125-0.10547-0.074218-0.15625-0.21094-0.25-0.46094-0.41016-0.69141-0.62109-0.24219-0.23047-0.46094-0.49219-0.74609-0.67187-0.27344-0.17969-0.60938-0.25-0.91406-0.37891-0.30469-0.125-0.62891-0.27344-0.96484-0.33594-0.31641-0.050782-0.62891-0.011719-0.94531-0.011719-0.35547 0-0.70312-0.019531-1.0703 0.050781-0.30469 0.0625-0.59766 0.23047-0.90234 0.35547-0.26172 0.13672-0.57812 0.1875-0.85938 0.36719-0.050782 0.03125-0.0625 0.082032-0.11719 0.11719-0.042968 0.03125-0.09375 0.042969-0.13672 0.074219-17.496 13.121-33.02 28.645-46.152 46.141-0.03125 0.042968-0.042969 0.10547-0.074219 0.15625-0.03125 0.042968-0.074219 0.0625-0.10547 0.10547-0.16797 0.24219-0.21094 0.51563-0.30469 0.77734-0.15625 0.33594-0.33594 0.66016-0.41797 1.0195-0.074219 0.33594-0.042969 0.66016-0.050781 0.98828 0 0.33594-0.042969 0.67188 0.011719 0.99609 0.0625 0.33594 0.21875 0.62891 0.32422 0.94531 0.125 0.31641 0.21094 0.64062 0.38672 0.92188 0.17969 0.29297 0.44141 0.51562 0.66016 0.76562 0.21875 0.21875 0.35547 0.48438 0.62109 0.67188 0.03125 0.019531 0.082031 0.011719 0.11719 0.03125 0.0625 0.042969 0.082032 0.10547 0.14844 0.14844 9.1953 6.0859 12.426 18.105 7.4844 27.961-2.6016 5.2148-7.0859 9.1016-12.594 10.938-5.5625 1.8477-11.473 1.4375-16.68-1.1758-0.050782-0.019532-0.10547-0.019532-0.15625-0.042969-0.050782-0.019531-0.082032-0.074219-0.13672-0.09375-0.30469-0.13672-0.64062-0.125-0.94531-0.19922-0.30469-0.0625-0.62109-0.17969-0.92188-0.1875-0.37891-0.011718-0.72266 0.074219-1.0898 0.14844-0.29297 0.050781-0.59766 0.0625-0.88281 0.16797-0.32422 0.10547-0.59766 0.31641-0.89062 0.50391-0.27344 0.16797-0.56641 0.29297-0.80859 0.51562-0.24219 0.23047-0.44141 0.54688-0.66016 0.83984-0.17969 0.23047-0.39844 0.41797-0.54688 0.68359-0.019531 0.050781-0.019531 0.10547-0.042969 0.15625-0.019531 0.050781-0.074218 0.082031-0.09375 0.13672-8.5859 20.109-14.266 41.324-16.887 63.039-0.011719 0.050782 0.019531 0.09375 0.011718 0.14844 0 0.0625-0.042968 0.10547-0.042968 0.16797-0.019532 0.31641 0.10547 0.60938 0.13672 0.91406 0.042969 0.33594 0.042969 0.67188 0.14844 0.98828 0.10547 0.33594 0.29297 0.62109 0.47266 0.91406 0.15625 0.28516 0.27344 0.58594 0.49219 0.83984 0.21875 0.26172 0.49219 0.44141 0.75391 0.66016 0.24219 0.21094 0.49219 0.44141 0.78906 0.60938 0.28516 0.16797 0.65234 0.21875 0.97656 0.32422 0.29297 0.082031 0.55469 0.24219 0.85938 0.28516 0.082031 0.019531 0.17969 0.019531 0.26172 0.019531h0.042969c11.02 0.66016 19.816 9.457 20.469 20.469 0.71484 12.02-8.4688 22.379-20.469 23.09-0.0625 0-0.10547 0.03125-0.15625 0.042969-0.0625 0-0.11719-0.019531-0.16797-0.011719-0.30469 0.03125-0.56641 0.21094-0.85937 0.26172-0.32422 0.125-0.67188 0.1875-0.97656 0.32422-0.30469 0.16797-0.54688 0.41016-0.78906 0.62109-0.26172 0.21875-0.54687 0.41016-0.75391 0.66016-0.21094 0.26172-0.33594 0.56641-0.49219 0.83984-0.17969 0.30469-0.36719 0.58594-0.47266 0.92188-0.10547 0.30469-0.10547 0.66016-0.14844 0.99609-0.03125 0.29297-0.15625 0.59766-0.13672 0.90234 0 0.0625 0.042969 0.11719 0.042969 0.17969 0.011719 0.050781-0.019531 0.09375-0.011719 0.15625 2.625 21.715 8.3008 42.93 16.887 63.039 0.019531 0.042968 0.0625 0.042968 0.082031 0.10547 0.03125 0.0625 0.019532 0.125 0.050782 0.1875 0.39844 0.79688 1.0195 1.3867 1.6797 1.8906 0.17969 0.125 0.33594 0.19922 0.52344 0.27344 0.67188 0.37891 1.418 0.60938 2.1719 0.66016 0.125 0 0.21875 0.09375 0.31641 0.09375 0.050781 0 0.10547-0.03125 0.16797-0.03125 0.35547-0.019531 0.69141-0.14844 1.0703-0.21875 0.28516-0.0625 0.57812-0.050781 0.83984-0.16797 0.050781-0.019531 0.082031-0.0625 0.13672-0.10547 0.050781-0.019532 0.10547 0 0.15625-0.042969 9.8672-4.9336 21.895-1.6992 27.961 7.4844 6.6445 10.043 3.8516 23.594-6.1836 30.238-0.042969 0.03125-0.0625 0.074219-0.11719 0.11719-0.042969 0.03125-0.10547 0.03125-0.14844 0.0625-0.24219 0.19922-0.37891 0.44141-0.59766 0.66016-0.23047 0.23047-0.51562 0.48438-0.68359 0.77734-0.19922 0.26172-0.26172 0.59766-0.37891 0.90234-0.125 0.31641-0.27344 0.62891-0.33594 0.96484-0.03125 0.32422 0.011719 0.66016 0.011719 1.0078 0.011719 0.33594-0.019531 0.66016 0.050781 0.98828 0.082032 0.35547 0.26172 0.68359 0.41797 1.0273 0.11719 0.26172 0.16797 0.54688 0.30469 0.77734 0.019531 0.019531 0.074219 0.042968 0.09375 0.082031 0.042969 0.0625 0.042969 0.13672 0.082031 0.1875 13.141 17.496 28.652 33.02 46.152 46.141 0.03125 0.019531 0.074218 0.019531 0.10547 0.042968 0.0625 0.042969 0.09375 0.10547 0.15625 0.14844 0.79688 0.52344 1.6992 0.71484 2.5938 0.75391 0.11719 0 0.21094 0.10547 0.29297 0.10547 0.16797 0 0.30469-0.10547 0.46094-0.10547 0.45312-0.042968 0.85938-0.14844 1.2891-0.29297 0.27344-0.11719 0.54688-0.19922 0.79688-0.33594 0.45312-0.24219 0.82031-0.59766 1.1758-0.97656 0.14844-0.15625 0.33594-0.21875 0.47266-0.38672 0.042968-0.042969 0.042968-0.10547 0.074218-0.15625 0.03125-0.042969 0.074219-0.0625 0.10547-0.10547 6.0781-9.2031 18.074-12.449 27.961-7.5039 10.746 5.3945 15.137 18.516 9.7617 29.262-0.019532 0.074219-0.019532 0.11719-0.042969 0.17969-0.019531 0.050781-0.074219 0.082031-0.09375 0.13672-0.125 0.29297-0.11719 0.60938-0.1875 0.89062-0.082031 0.33594-0.21094 0.66016-0.21875 0.98828-0.011719 0.34766 0.074219 0.67188 0.13672 1.0273 0.0625 0.32422 0.082031 0.66016 0.19922 0.96484 0.11719 0.30469 0.31641 0.57813 0.48438 0.85938 0.17969 0.28516 0.31641 0.59766 0.55469 0.83984 0.21875 0.24219 0.53516 0.42969 0.80859 0.64062 0.24219 0.1875 0.42969 0.41797 0.70313 0.57812 0.042968 0.019531 0.09375 0 0.14844 0.019531 0.050781 0.019532 0.082031 0.082032 0.14844 0.10547 20.102 8.5859 41.324 14.266 63.039 16.887h0.26172c0.019531 0 0.03125 0.019531 0.042968 0.019531h0.042969 0.28516c0.27344 0 0.53516-0.11719 0.79687-0.15625 2.2344-0.27344 3.7383-1.8047 4.1992-3.8711 0.050781-0.21875 0.16797-0.35547 0.19922-0.59766 0.011719-0.019531-0.011719-0.074219-0.011719-0.13672s0.042969-0.10547 0.042969-0.17969c0.66016-11.012 9.4688-19.805 20.477-20.469 11.809-0.66016 22.355 8.4688 23.082 20.469 0 0.074219 0.042968 0.11719 0.042968 0.17969 0.011719 0.042969-0.019531 0.10547-0.011718 0.15625 0.042968 0.29297 0.1875 0.57813 0.26172 0.87109 0.082032 0.26172 0.13672 0.59766 0.25 0.85938 0.17969 0.32422 0.41797 0.59766 0.65234 0.88281 0.19922 0.21875 0.29297 0.44141 0.49219 0.64062 0.32422 0.27344 0.71484 0.47266 1.0898 0.67188 0.17969 0.09375 0.32422 0.21875 0.52344 0.30469 0.60938 0.23047 1.2383 0.36719 1.9219 0.36719h0.019531 0.29297c0.019531 0 0.019531-0.019531 0.042969-0.019531h0.26172c21.727-2.625 42.949-8.3008 63.039-16.879 0.0625-0.03125 0.10547-0.09375 0.14844-0.11719 0.074218-0.019532 0.125 0 0.16797-0.019532 0.26172-0.14844 0.46094-0.38672 0.69141-0.56641 0.26172-0.21875 0.59766-0.37891 0.79688-0.62891 0.23047-0.25 0.38672-0.55469 0.55469-0.85156 0.1875-0.28516 0.36719-0.54688 0.50391-0.85938 0.11719-0.30469 0.13672-0.65234 0.19922-0.95703 0.0625-0.34766 0.14844-0.67188 0.14844-1.0273-0.019532-0.32422-0.14844-0.66016-0.21875-0.99609-0.074219-0.27344-0.0625-0.60938-0.21094-0.89062-0.019531-0.050781-0.0625-0.082031-0.082031-0.14844-0.019531-0.0625-0.019531-0.10547-0.042969-0.16797-4.9453-9.8438-1.7227-21.875 7.4844-27.961 4.8594-3.2227 10.684-4.3242 16.406-3.168 5.7109 1.1641 10.633 4.5039 13.824 9.3633 0.019531 0.042968 0.0625 0.0625 0.10547 0.11719 0.03125 0.042969 0.03125 0.10547 0.074219 0.15625 0.13672 0.1875 0.31641 0.21875 0.45312 0.37891 0.36719 0.38672 0.74609 0.74609 1.1953 1.0195 0.24219 0.14844 0.51562 0.21875 0.77734 0.30469 0.42969 0.16797 0.83984 0.24219 1.3125 0.30469 0.15625 0 0.28516 0.10547 0.45313 0.10547 0.11719 0 0.21094-0.10547 0.28516-0.10547 0.90234-0.0625 1.8047-0.23047 2.5938-0.75391 0.074218-0.042969 0.11719-0.10547 0.17969-0.16797 0.019531-0.019531 0.0625 0 0.10547-0.019531 17.508-13.141 33.02-28.645 46.16-46.141 0.042969-0.050781 0.042969-0.125 0.082032-0.19922 0.019531-0.019532 0.0625-0.042969 0.082031-0.082032 0.16797-0.21875 0.19922-0.49219 0.30469-0.72266 0.16797-0.34766 0.32422-0.68359 0.42969-1.0586 0.0625-0.34766 0.042968-0.66016 0.042968-1.0078 0-0.32422 0.042969-0.66016 0-0.98828-0.0625-0.34766-0.21875-0.66016-0.34766-0.96484-0.125-0.30469-0.21875-0.64062-0.36719-0.90234-0.1875-0.29297-0.45312-0.53516-0.69141-0.79688-0.21094-0.21875-0.32422-0.47266-0.58594-0.66016-0.042969-0.03125-0.11719-0.03125-0.15625-0.0625-0.042969-0.03125-0.0625-0.082032-0.10547-0.11719-9.2266-6.0859-12.457-18.117-7.5156-27.961 2.6016-5.2148 7.1055-9.1016 12.605-10.938 5.543-1.8477 11.461-1.418 16.656 1.1875 0.050781 0.019531 0.125 0.019531 0.16797 0.042969 0.0625 0.019531 0.082031 0.074218 0.14844 0.09375 0.26172 0.11719 0.55469 0.10547 0.82031 0.17969 0.36719 0.082031 0.69141 0.21875 1.082 0.21875 0.074219 0 0.11719 0.03125 0.17969 0.03125 0.11719 0 0.21875-0.09375 0.30469-0.11719 0.76562-0.042969 1.5-0.25 2.1719-0.65234 0.1875-0.09375 0.35547-0.17969 0.53516-0.29297 0.66016-0.47266 1.2695-1.0703 1.6797-1.8672 0.019531-0.0625 0.019531-0.125 0.042968-0.1875 0.019532-0.042969 0.0625-0.0625 0.082032-0.10547 8.5859-20.109 14.266-41.332 16.887-63.039 0.011719-0.050781-0.019531-0.09375-0.011718-0.15625 0-0.0625 0.050781-0.10547 0.050781-0.17969 0.019531-0.27734-0.10547-0.58203-0.13672-0.89453zm-24.656 55.426c-6.2891-1.8672-12.941-1.8281-19.312 0.29297-8.1641 2.7383-14.82 8.5117-18.66 16.207-6.4336 12.867-3.4844 28.203 6.6211 37.828-10.82 13.762-23.227 26.125-36.957 36.957-4.5352-4.7539-10.328-8.0508-16.867-9.4062-8.4922-1.7422-17.078-0.0625-24.277 4.6914-12.02 7.9141-17.117 22.66-13.195 36.062-16.238 6.5195-33.18 11.051-50.508 13.531-3.6094-14.883-17.309-25.59-33.293-24.645-14.348 0.85938-26.145 11.074-29.441 24.645-17.328-2.5-34.281-7.0547-50.516-13.551 4.3125-14.695-2.3203-30.867-16.48-37.977-12.879-6.4141-28.215-3.4727-37.828 6.6211-13.762-10.82-26.145-23.219-36.957-36.969 11.094-10.59 13.426-27.918 4.6797-41.145-7.8984-12.008-22.645-17.102-36.027-13.164-6.5078-16.258-11.043-33.18-13.539-50.516 14.906-3.6094 25.602-17.434 24.656-33.262-0.85937-14.359-11.082-26.156-24.645-29.441 2.5-17.359 7.0547-34.32 13.57-50.59 2.9492 0.87109 5.9609 1.4688 9.0156 1.4688 3.4336 0 6.875-0.55469 10.242-1.6797 8.1875-2.7305 14.832-8.4922 18.684-16.207 6.4336-12.859 3.4844-28.184-6.6133-37.816 10.812-13.762 23.219-26.156 36.957-36.969 4.5234 4.7539 10.316 8.0508 16.867 9.3945 2.1836 0.44141 4.3672 0.66016 6.5391 0.66016 6.2656 0 12.395-1.8281 17.727-5.3633 11.996-7.9258 17.109-22.66 13.195-36.055 16.246-6.5078 33.188-11.043 50.516-13.539 3.4531 14.285 16.32 24.707 31.332 24.707 0.65234 0 1.3008-0.019531 1.9609-0.0625 14.379-0.85938 26.176-11.082 29.453-24.633 17.328 2.5 34.258 7.0312 50.484 13.539-4.3242 14.703 2.2969 30.879 16.488 37.977 4.5977 2.3086 9.5391 3.4102 14.422 3.4102 8.6914 0 17.078-3.6836 23.25-10.148 13.801 10.852 26.273 23.301 37.125 37.113-11.105 10.578-13.445 27.898-4.7031 41.133 6.1719 9.332 16.426 14.504 26.984 14.504 3.0117 0 6.0156-0.58594 9.0039-1.457 6.5195 16.281 11.094 33.262 13.57 50.645-14.906 3.6094-25.59 17.445-24.656 33.262 0.87109 14.367 11.105 26.156 24.656 29.453-2.4805 17.297-7.0156 34.258-13.523 50.492z"/>
  <path d="m283.71 400c0 64.121 52.176 116.3 116.3 116.3 64.129 0 116.3-52.188 116.3-116.3 0-64.129-52.176-116.3-116.3-116.3-64.121 0.007813-116.3 52.172-116.3 116.3zm222.11 0c0 58.367-47.453 105.81-105.81 105.81-58.359 0-105.8-47.453-105.8-105.81 0-58.348 47.453-105.81 105.8-105.81 58.355-0.003906 105.81 47.469 105.81 105.81z"/>
 </g>
</svg>