<?xml version="1.0" encoding="UTF-8"?>
<!-- The Best Svg Icon site in the world: iconSvg.co, Visit us! https://iconsvg.co -->
<svg fill="#000000" width="800px" height="800px" version="1.1" viewBox="144 144 512 512" xmlns="http://www.w3.org/2000/svg">
 <g>
  <path d="m566.39 445.58c-31.223 0-56.422 13.703-61.852 32.328h-14.375v-61.918c0-0.125-0.03125-0.25-0.039062-0.37891 51.777-3.8594 92.617-46.992 92.617-99.754 0-55.305-44.828-100.13-100.13-100.13-55.305 0.003907-100.13 44.832-100.13 100.14 0 52.766 40.832 95.895 92.617 99.754-0.003906 0.125-0.039063 0.25-0.039063 0.37891v32.254h-15.105c-5.4297-18.625-30.633-32.328-61.852-32.328-35.312 0-62.977 17.523-62.977 39.883 0 22.371 27.664 39.891 62.977 39.891 31.215 0 56.418-13.699 61.852-32.328h15.105v127.11l-183.23-0.003906v-37.176c8.543 5.2344 20.582 8.5039 33.945 8.5039 25.93 0 46.953-12.262 46.953-27.398 0-15.125-21.023-27.391-46.953-27.391-18.008 0-33.625 5.9141-41.504 14.59-7.8789-8.6758-23.496-14.59-41.504-14.59-25.93 0-46.953 12.273-46.953 27.398 0 15.129 21.023 27.398 46.953 27.398 13.367 0 25.402-3.2656 33.945-8.5v37.172h-36.27c-4.1758 0-7.5586 3.3867-7.5586 7.5586s3.3789 7.5586 7.5586 7.5586h309.84c4.1719 0 7.5586-3.3867 7.5586-7.5586s-3.3867-7.5586-7.5586-7.5586l-60.117-0.003906v-97.445h14.375c5.4375 18.621 30.637 32.324 61.852 32.324 35.316 0 62.977-17.523 62.977-39.883 0-22.367-27.66-39.887-62.977-39.887zm-152.66 17.781h29.574c-6.2109 9.1406-23.051 17.215-45.223 17.215-28.207 0-47.863-13.059-47.863-24.777 0-11.715 19.652-24.766 47.863-24.766 22.172 0 39.016 8.0742 45.227 17.215h-29.578c-4.1758 0-7.5586 3.3867-7.5586 7.5586 0.003906 4.168 3.3828 7.5547 7.5586 7.5547zm68.871-77.914c-4.1758 0-7.5586-3.3789-7.5586-7.5586v-6.918c-6.1875-1.0391-14.148-4.0312-20.625-12.594-4.3125-5.6523-5.5078-11.465-5.5078-19.746 0 0 0.63672-6.5156 8.7656-6.5156 8.1328 0 8.0156 6.5156 8.0156 6.5156 0 12.488 9.8125 15.539 16.688 15.539 14.801 0 17.668-9.0039 17.66-13.637-0.023437-11.977-9.9453-13.961-15.133-15.23 0 0-27.797-4.875-33.621-20.148-6.7578-17.707-0.16016-27.941 3.7852-33.258 4.5156-6.0391 11.199-9.582 19.973-10.711v-7.3594c0-4.1758 3.3789-7.5586 7.5586-7.5586 4.1758 0 7.5586 3.3789 7.5586 7.5586v7.7578c7.332 1.4414 13.375 4.8164 17.629 10.398 3.6875 4.832 6.3398 12.977 5.668 17.84-0.14453 1.0781-1.3008 7.0312-8.7969 7.0312s-8.0156-6.2578-8.0156-6.2578c-0.4375-3.7969-0.95703-5.4023-2.5703-7.6016-2.9258-3.793-7.4102-4.9062-13.992-4.9062-3.875 0-7.1289 0.84766-9.7578 2.5352-3.2227 2.1094-4.3984 5.2109-4.832 9.2383-1.1367 10.559 9.5391 14.363 12.168 15.203l17.109 5.6445c19.051 6.5664 22.059 19.254 22.059 27.531 0 11.367-7.2734 29.301-26.668 32.66v6.9766c0 4.1875-3.3789 7.5703-7.5586 7.5703zm83.785 124.79c-22.168 0-39.012-8.0703-45.223-17.211h36.914c4.1719 0 7.5586-3.3867 7.5586-7.5586s-3.3867-7.5586-7.5586-7.5586l-36.914 0.003906c6.207-9.1406 23.051-17.215 45.223-17.215 28.207 0 47.863 13.059 47.863 24.773 0 11.711-19.656 24.766-47.863 24.766z"/>
  <path d="m240.44 290.24h16.324v88.352c0 11.355 7.7422 23.59 24.758 23.59 17.012 0 24.766-12.234 24.766-23.59v-88.352h16.312c3.4102 0 6.4922-2.0234 7.8438-5.1523 1.3555-3.1289 0.71875-6.7617-1.6211-9.2461l-41.074-43.641c-1.6133-1.7188-3.8633-2.6914-6.2227-2.6914-2.3516 0-4.6055 0.97266-6.2188 2.6914l-41.082 43.641c-2.332 2.4844-2.9727 6.1172-1.6211 9.2461 1.3477 3.125 4.4297 5.1523 7.8359 5.1523z"/>
  <path d="m303.44 426.05c-3.0586-2.8398-7.8438-2.6602-10.68 0.39453-0.68359 0.73438-3.5273 3.1484-11.234 3.1484-7.7148 0-10.543-2.4102-11.23-3.1445-2.8359-3.0625-7.6211-3.2461-10.68-0.40234-3.0586 2.832-3.2383 7.6172-0.40234 10.676 3.375 3.6484 9.9922 7.9844 22.312 7.9844 12.312 0 18.93-4.3359 22.309-7.9805 2.8398-3.0547 2.6641-7.8398-0.39453-10.676z"/>
  <path d="m292.76 455.98c-0.68359 0.73438-3.5312 3.1523-11.234 3.1523-7.707 0-10.543-2.4141-11.23-3.1484-2.8359-3.0586-7.6211-3.2461-10.68-0.40234-3.0586 2.832-3.2383 7.6172-0.40234 10.676 3.3789 3.6484 9.9961 7.9922 22.312 7.9922 12.309 0 18.93-4.3359 22.309-7.9844 2.8398-3.0547 2.6641-7.8398-0.39453-10.676-3.0586-2.8438-7.8438-2.6602-10.68 0.39062z"/>
 </g>
</svg>