<?xml version="1.0" encoding="UTF-8"?>
<!-- The Best Svg Icon site in the world: iconSvg.co, Visit us! https://iconsvg.co -->
<svg fill="#000000" width="800px" height="800px" version="1.1" viewBox="144 144 512 512" xmlns="http://www.w3.org/2000/svg">
 <g>
  <path d="m198.48 473.47c-2.8125 0.50391-5.2969 2.1289-6.8828 4.5078-1.5859 2.375-2.1328 5.2969-1.5156 8.0859 0.50391 2.8125 2.1328 5.2969 4.5078 6.8789 2.3789 1.5859 5.2969 2.1328 8.0859 1.5156 207.82-41.98 339.55-188.93 386.25-250.64v19.734c0 2.7812 1.1055 5.4531 3.0742 7.4219s4.6406 3.0742 7.4219 3.0742c2.7852 0 5.4531-1.1055 7.4219-3.0742s3.0742-4.6406 3.0742-7.4219v-52.48c0.13672-3.3789-1.3594-6.6133-4.0234-8.6953-2.6641-2.0781-6.168-2.75-9.4102-1.8008l-50.383 14.801c-5.5625 1.6523-8.7344 7.5-7.082 13.066 1.6523 5.5625 7.5 8.7383 13.066 7.0859l20.992-6.2969c-43.453 58.355-171.09 203.73-374.6 244.24z"/>
  <path d="m620.41 578.43h-10.496v-157.44c0-2.7852-1.1055-5.4531-3.0742-7.4219s-4.6367-3.0742-7.4219-3.0742h-104.96c-5.7969 0-10.496 4.6992-10.496 10.496v157.44h-20.988v-94.465c0-2.7812-1.1094-5.4531-3.0742-7.418-1.9688-1.9688-4.6406-3.0742-7.4219-3.0742h-104.96c-5.7969 0-10.496 4.6992-10.496 10.492v94.465h-20.992v-52.48c0-2.7812-1.1055-5.4531-3.0742-7.4219-1.9688-1.9648-4.6406-3.0742-7.4219-3.0742h-104.96c-5.7969 0-10.496 4.6992-10.496 10.496v52.48h-10.496c-5.7969 0-10.496 4.6992-10.496 10.496s4.6992 10.496 10.496 10.496h440.83c5.7969 0 10.496-4.6992 10.496-10.496s-4.6992-10.496-10.496-10.496zm-409.34 0v-41.984h83.969v41.984zm146.95 0v-83.969h83.969v83.969zm146.95 0-0.003907-146.94h83.969v146.94z"/>
  <path d="m208.03 312.99 3.043-3.1484v58.672c0 2.7812 1.1055 5.4531 3.0742 7.4219s4.6367 3.0742 7.4219 3.0742h146.95c2.7812 0 5.4531-1.1055 7.4219-3.0742s3.0742-4.6406 3.0742-7.4219v-58.676l3.043 3.1484v0.003906c4.1172 4.1133 10.789 4.1133 14.902 0 4.1172-4.1172 4.1172-10.789 0-14.906l-94.465-94.465h0.003907c-1.9727-1.9883-4.6562-3.1055-7.4531-3.1055-2.8008 0-5.4805 1.1172-7.4531 3.1055l-94.465 94.465c-4.1133 4.1172-4.1133 10.789 0 14.906 4.1172 4.1133 10.789 4.1133 14.906 0zm66.02 45.027v-41.984h41.984v41.984zm20.992-132.14 62.977 62.977v69.168h-20.992v-52.48c0-2.7852-1.1055-5.4531-3.0742-7.4219s-4.6406-3.0742-7.4219-3.0742h-62.977c-5.7969 0-10.496 4.6992-10.496 10.496v52.48h-20.992v-69.172z"/>
 </g>
</svg>