<?xml version="1.0" encoding="UTF-8"?>
<!-- The Best Svg Icon site in the world: iconSvg.co, Visit us! https://iconsvg.co -->
<svg fill="#000000" width="800px" height="800px" version="1.1" viewBox="144 144 512 512" xmlns="http://www.w3.org/2000/svg">
 <g>
  <path d="m501.19 400c0-55.797-45.395-101.19-101.19-101.19-55.793 0-101.19 45.395-101.19 101.19s45.395 101.19 101.19 101.19 101.19-45.391 101.19-101.19zm-192.52 0c0-50.355 40.969-91.324 91.324-91.324 50.359-0.003906 91.328 40.969 91.328 91.324s-40.969 91.324-91.324 91.324-91.328-40.965-91.328-91.324z"/>
  <path d="m541.7 405.54h8.4961c2.7266 0 4.9336-2.207 4.9336-4.9336 0-2.7266-2.207-4.9336-4.9336-4.9336h-8.4961c-2.5547-74.281-62.484-134.2-136.77-136.76v-8.4961c0-2.7266-2.207-4.9336-4.9336-4.9336-2.7266 0-4.9336 2.207-4.9336 4.9336v8.4961c-74.281 2.5547-134.21 62.484-136.77 136.76h-8.4961c-2.7266 0-4.9336 2.207-4.9336 4.9336 0 2.7266 2.207 4.9336 4.9336 4.9336h8.4961c2.5547 74.281 62.484 134.21 136.77 136.77v8.4961c0 2.7266 2.207 4.9336 4.9336 4.9336 2.7266 0 4.9336-2.207 4.9336-4.9336v-8.4961c74.281-2.5547 134.21-62.484 136.77-136.77zm-273.53 0h8.2461c2.7266 0 4.9336-2.207 4.9336-4.9336 0-2.7266-2.207-4.9336-4.9336-4.9336h-8.2461c2.543-68.84 58.059-124.35 126.9-126.9v8.2461c0 2.7266 2.207 4.9336 4.9336 4.9336s4.9336-2.207 4.9336-4.9336v-8.2461c68.84 2.543 124.36 58.059 126.9 126.9l-8.25 0.003906c-2.7266 0-4.9336 2.207-4.9336 4.9336s2.207 4.9336 4.9336 4.9336h8.2461c-2.543 68.844-58.059 124.36-126.9 126.9v-8.2461c0-2.7266-2.207-4.9336-4.9336-4.9336-2.7266 0-4.9336 2.207-4.9336 4.9336v8.2461c-68.836-2.5391-124.35-58.055-126.89-126.9z"/>
  <path d="m404.93 462.57v-10.844c13.402-2.3477 23.625-14.043 23.625-28.098 0-15.75-12.812-28.562-28.555-28.562-10.309 0-18.695-8.3828-18.695-18.695 0-10.309 8.3828-18.691 18.695-18.691h23.625c2.7266 0 4.9336-2.207 4.9336-4.9336 0-2.7266-2.207-4.9336-4.9336-4.9336h-18.695v-10.383c0-2.7266-2.207-4.9336-4.9336-4.9336-2.7266 0-4.9336 2.207-4.9336 4.9336v10.844c-13.402 2.3477-23.625 14.043-23.625 28.098 0 15.75 12.812 28.562 28.555 28.562 10.309 0 18.695 8.3828 18.695 18.695 0 10.309-8.3828 18.691-18.695 18.691h-23.625c-2.7266 0-4.9336 2.207-4.9336 4.9336s2.207 4.9336 4.9336 4.9336h18.695v10.383c0 2.7266 2.207 4.9336 4.9336 4.9336 2.7266 0 4.9336-2.207 4.9336-4.9336z"/>
  <path d="m173.42 364.95c-0.058594 0.58984-0.058594 1.1758 0.082031 1.7227 0.023438 0.097656 0.089844 0.16797 0.12109 0.25781 0.16016 0.51562 0.36719 1.0195 0.68359 1.4492 0.035156 0.050781 0.097656 0.074219 0.13672 0.125 0.35156 0.44922 0.76172 0.85547 1.2539 1.1602 0.054687 0.035156 0.125 0.035156 0.17969 0.066406 0.50391 0.28125 1.043 0.51563 1.6484 0.60938l34.363 5.3516c0.25781 0.039062 0.51562 0.054688 0.76562 0.054688 1.1953 0 2.3164-0.4375 3.1875-1.1758 0.023438-0.023437 0.039062-0.058594 0.070312-0.085937 0.82813-0.73438 1.4258-1.7344 1.6055-2.9102v-0.011718c12.293-79.875 74.242-141.8 154.15-154.09h0.015625c0.58984-0.089844 1.1133-0.32422 1.6016-0.58984 0.070313-0.039062 0.16016-0.039062 0.22656-0.085937 0.53906-0.33203 1.0039-0.76562 1.375-1.2695 0.003906-0.003907 0.011719-0.011719 0.015625-0.015626 0.35156-0.48047 0.59766-1.0312 0.76172-1.6133 0.011719-0.035156 0.035157-0.066406 0.046876-0.10156 0.14062-0.55469 0.14453-1.1523 0.082031-1.7539-0.011719-0.070312 0.019531-0.13672 0.011719-0.20312v-0.003907l-5.332-34.375c-0.3125-2.0234-1.8242-3.5625-3.6836-4.0312-0.62109-0.15625-1.2734-0.19531-1.9414-0.089843h-0.003906-0.003906c-99.238 15.285-176.16 92.176-191.43 191.36 0 0.003906-0.003906 0.003906-0.003906 0.011719v0.003906c-0.011718 0.085938 0.019532 0.15625 0.011719 0.23828zm188.07-181 3.8203 24.625c-80.207 14.391-142.3 76.457-156.69 156.63l-24.617-3.8359c16.047-90.945 86.5-161.38 177.49-177.42z"/>
  <path d="m375.79 587.95c0.066407-0.59766 0.058594-1.1953-0.082031-1.7539-0.011719-0.035157-0.035156-0.066407-0.046875-0.10156-0.16016-0.57812-0.40625-1.1328-0.76172-1.6133-0.003907-0.003906-0.011719-0.011719-0.015626-0.015625-0.37109-0.50391-0.83594-0.9375-1.375-1.2695-0.066406-0.039063-0.15625-0.046875-0.22656-0.085938-0.49219-0.27344-1.0195-0.5-1.6016-0.58984h-0.003907c-78.691-12.086-142.11-75.52-154.21-154.26v-0.003907c-0.03125-0.19141-0.14453-0.34375-0.19531-0.52734-0.66016-2.3711-2.9531-3.9648-5.4258-3.5859h-0.003906l-34.375 5.3164c-0.42188 0.066406-0.77734 0.26172-1.1523 0.42187-0.22266 0.097657-0.48047 0.125-0.67969 0.25-0.30859 0.1875-0.52344 0.47266-0.77734 0.71875-0.20312 0.19141-0.44141 0.34375-0.60938 0.5625-0.27734 0.37891-0.4375 0.82813-0.59766 1.2695-0.054688 0.15625-0.16797 0.28125-0.20703 0.44141-0.13672 0.54297-0.14062 1.1289-0.082031 1.7188 0.011719 0.082031-0.023437 0.15625-0.011719 0.23828v0.003907 0.003906c15.266 99.32 92.219 176.3 191.48 191.56h0.003907c0.25781 0.039062 0.51562 0.058594 0.76562 0.058594 1.1953 0 2.3164-0.43359 3.1875-1.1758 0.17188-0.14453 0.28125-0.35156 0.43359-0.52344 0.23047-0.25781 0.48828-0.49219 0.66016-0.79688 0.10547-0.17969 0.13281-0.40625 0.21094-0.60938 0.14062-0.34766 0.3125-0.67969 0.37109-1.0664l5.332-34.375v-0.003906c0.015625-0.070312-0.011719-0.13672-0.007813-0.20703zm-191.85-149.52 24.625-3.8125c14.391 80.273 76.512 142.42 156.75 156.8l-3.8203 24.625c-91.023-16.043-161.5-86.547-177.55-177.62z"/>
  <path d="m424.21 212.04c-0.066406 0.59766-0.058593 1.1953 0.082031 1.7539 0.011719 0.035156 0.035157 0.066406 0.046876 0.10156 0.16016 0.57812 0.40625 1.1328 0.76172 1.6133l0.015625 0.015625c0.37109 0.50391 0.83594 0.9375 1.375 1.2695 0.066407 0.039063 0.15625 0.046875 0.22656 0.085937 0.49219 0.27344 1.0195 0.5 1.6016 0.58984h0.015625c79.914 12.293 141.86 74.215 154.15 154.1 0.035156 0.21094 0.14453 0.38672 0.20312 0.58984-0.22656 0.78516-0.33203 1.6055-0.13281 2.457 0.52734 2.2734 2.5586 3.8086 4.7969 3.8086 0.37109 0 0.75-0.046876 1.1289-0.13281l34.363-8.0312c0.26562-0.058594 0.47266-0.22656 0.71875-0.32812 0.30859-0.125 0.62109-0.22656 0.89062-0.40625 0.26562-0.17969 0.46875-0.41406 0.69531-0.64062 0.22266-0.22266 0.45703-0.42188 0.63672-0.67969 0.17969-0.26563 0.27734-0.5625 0.40234-0.85547 0.12109-0.28906 0.26172-0.55469 0.32812-0.86719 0.070313-0.31641 0.039063-0.64844 0.046875-0.98438 0.003906-0.26562 0.082031-0.51953 0.035156-0.78906-15.27-99.191-92.199-176.09-191.43-191.37h-0.003906-0.003906c-0.16797-0.023438-0.31641 0.03125-0.48438 0.019531-0.49219-0.023437-0.99219-0.050781-1.457 0.070313-1.1328 0.28906-2.0977 1.0039-2.7812 1.9492-0.066406 0.089844-0.16797 0.14453-0.22266 0.24219-0.19531 0.30469-0.26563 0.68359-0.38672 1.0352-0.097657 0.27344-0.25 0.50781-0.29688 0.80078l-5.332 34.375v0.003906c-0.007812 0.070312 0.015626 0.13281 0.011719 0.20312zm191.85 149.68-24.297 5.6797c-13.637-81.234-76.141-144.31-157.07-158.83l3.8203-24.625c91.105 16.07 161.62 86.66 177.55 177.78z"/>
  <path d="m626.65 435.08c0.015625-0.082031-0.019532-0.15625-0.011719-0.23828 0.058594-0.58984 0.054687-1.1758-0.082031-1.7188-0.039063-0.16016-0.15234-0.28906-0.20703-0.44141-0.16016-0.44141-0.32422-0.89062-0.59766-1.2695-0.16797-0.22266-0.40625-0.37109-0.60938-0.5625-0.25-0.24609-0.47266-0.52734-0.77734-0.71875-0.20313-0.125-0.45703-0.15625-0.67969-0.25-0.37109-0.16016-0.73047-0.35937-1.1523-0.42187l-34.375-5.3203h-0.003906c-2.3789-0.35938-4.5781 1.1133-5.3359 3.3359-0.089843 0.26563-0.24609 0.49219-0.29297 0.78125v0.003907c-12.105 78.742-75.52 142.18-154.21 154.27h-0.003906c-0.58984 0.089844-1.1133 0.32422-1.6016 0.58984-0.070313 0.039062-0.16016 0.039062-0.22656 0.085938-0.53906 0.33203-1.0039 0.76562-1.375 1.2695l-0.015625 0.015625c-0.35156 0.48047-0.59766 1.0312-0.76172 1.6133-0.011719 0.035156-0.035156 0.066406-0.046875 0.10156-0.14062 0.55469-0.14453 1.1523-0.082031 1.7539 0.011719 0.070312-0.019531 0.13672-0.011719 0.20312v0.003906l5.332 34.375c0.058593 0.38672 0.23047 0.71875 0.37109 1.0664 0.082031 0.19531 0.10547 0.42188 0.21094 0.60938 0.17188 0.30859 0.42969 0.53906 0.66016 0.79688 0.15234 0.17188 0.26172 0.37891 0.43359 0.52344 0.875 0.73047 2 1.168 3.1953 1.168 0.25 0 0.50781-0.019532 0.76562-0.054688h0.003906c99.266-15.262 176.22-92.242 191.49-191.56v-0.015625 0zm-188.15 180.98-3.8203-24.625c80.238-14.383 142.36-76.535 156.75-156.8l24.625 3.8125c-16.059 91.062-86.535 161.57-177.55 177.62z"/>
 </g>
</svg>