<?xml version="1.0" encoding="UTF-8"?>
<!-- The Best Svg Icon site in the world: iconSvg.co, Visit us! https://iconsvg.co -->
<svg fill="#000000" width="800px" height="800px" version="1.1" viewBox="144 144 512 512" xmlns="http://www.w3.org/2000/svg">
 <g>
  <path d="m400 492.49c56.684 0 102.8-46.117 102.8-102.8 0-57.902-46.059-146.63-102.8-146.63-56.75 0-102.81 88.727-102.81 146.63 0 56.688 46.125 102.8 102.81 102.8zm-62.875-189.66c18.426-29.98 41.344-47.176 62.875-47.176s44.449 17.195 62.871 47.176c16.605 27.02 27.336 61.117 27.336 86.855 0 49.742-40.465 90.207-90.207 90.207-49.746 0-90.211-40.465-90.211-90.207-0.003906-25.738 10.727-59.836 27.336-86.855z"/>
  <path d="m400 406.2c-9.5508 0-17.32-6.8555-17.32-15.289 0-3.4766-2.8203-6.2969-6.2969-6.2969-3.4766 0-6.2969 2.8203-6.2969 6.2969 0 13.359 10.137 24.547 23.617 27.25l-0.003906 7.0312c0 3.4766 2.8203 6.2969 6.2969 6.2969 3.4766 0 6.2969-2.8203 6.2969-6.2969v-7.0547c13.652-2.875 23.617-14.957 23.617-29.867 0-1.9062-0.86328-3.7148-2.3477-4.9062l-44.691-35.957c0.70703-5.2891 3.8203-14.941 17.121-14.941 9.5508 0 17.32 6.8555 17.32 15.285 0 3.4766 2.8203 6.2969 6.2969 6.2969s6.2969-2.8203 6.2969-6.2969c0-13.359-10.141-24.547-23.617-27.246v-7.0312c0-3.4766-2.8203-6.2969-6.2969-6.2969-3.4766 0-6.2969 2.8203-6.2969 6.2969v6.9688c-16.164 2.8828-23.617 16.777-23.617 29.82 0 1.9062 0.86328 3.7148 2.3477 4.9062l44.691 35.957c-1.2383 8.7734-8.1875 15.074-17.117 15.074z"/>
  <path d="m502.02 544.39-36.195-15.438 36.195-15.438c3.1992-1.3672 4.6836-5.0625 3.3242-8.2617-1.3672-3.1992-5.0742-4.6953-8.2617-3.3242l-47.309 20.176-47.312-20.176c-0.019532-0.003907-0.039063-0.003907-0.058594-0.011719-0.58594-0.24219-1.2109-0.32422-1.8438-0.38281-0.19141-0.015625-0.37891-0.10547-0.5625-0.10547-0.1875 0-0.37891 0.089843-0.5625 0.10547-0.63672 0.058594-1.2578 0.14062-1.8438 0.38281-0.019531 0.003906-0.039062 0.003906-0.058594 0.011719l-47.312 20.176-47.312-20.176c-3.1992-1.3711-6.8984 0.12109-8.2617 3.3242-1.3672 3.1992 0.12109 6.8984 3.3242 8.2617l36.199 15.438-36.199 15.438c-3.1992 1.3672-4.6836 5.0625-3.3242 8.2617 1.0234 2.3945 3.3516 3.8281 5.793 3.8281 0.82812 0 1.6641-0.16016 2.4688-0.50781l47.312-20.176 47.312 20.176c0.085938 0.035156 0.17578 0.019532 0.26562 0.054688 0.69922 0.26562 1.4297 0.44922 2.1914 0.44922h0.011718 0.011719c0.76172 0 1.4844-0.1875 2.1914-0.44922 0.089844-0.03125 0.17969-0.015625 0.26562-0.054688l47.312-20.176 47.309 20.176c0.80469 0.34375 1.6406 0.50781 2.4688 0.50781 2.4492 0 4.7773-1.4375 5.793-3.8281 1.3594-3.1953-0.125-6.8984-3.332-8.2617zm-102.02-1.0547-33.727-14.383 33.727-14.383 33.727 14.383z"/>
 </g>
</svg>