<?xml version="1.0" encoding="UTF-8"?>
<!-- The Best Svg Icon site in the world: iconSvg.co, Visit us! https://iconsvg.co -->
<svg fill="#000000" width="800px" height="800px" version="1.1" viewBox="144 144 512 512" xmlns="http://www.w3.org/2000/svg">
 <g>
  <path d="m599.42 316.03h-31.488v-31.488c0-2.9023-2.3516-5.2461-5.2461-5.2461h-47.23c-2.8984 0-5.2461 2.3477-5.2461 5.2461v31.488h-31.488c-2.8984 0-5.2461 2.3477-5.2461 5.2461v15.742l-262.55 0.003907c-2.9023 0-5.1094 2.3438-5.1094 5.2461v134.29c0 2.9023 2.3516 5.2461 5.2461 5.2461 2.8984 0 5.2461-2.3477 5.2461-5.2461l0.003906-129.04h257.15v15.742c0 2.9023 2.3516 5.2461 5.2461 5.2461h31.488v10.496l-253.2 0.003906c-2.8945 0-3.9453 2.1328-3.9453 5.0352v120.91c0 2.9023 1.0508 5.2461 3.9453 5.2461l264.18 0.003906c2.8984 0 4.7773-2.3477 4.7773-5.2461l-0.003906-99.715h36.734c2.8984 0 5.2461-2.3477 5.2461-5.2461v-31.488h31.488c2.8984 0 5.2461-2.3477 5.2461-5.2461v-41.984c0.007813-2.9062-2.3438-5.25-5.2422-5.25zm-83.969 183.68h-251.9v-110.21h246.66v10.496c0 2.9023 2.3516 5.2461 5.2461 5.2461zm78.723-141.7h-31.488c-2.8984 0-5.2461 2.3477-5.2461 5.2461v31.488h-36.734v-31.488c0-2.9023-2.3516-5.2461-5.2461-5.2461h-31.488v-31.488h31.488c2.8984 0 5.2461-2.3477 5.2461-5.2461v-31.488h36.734v31.488c0 2.9023 2.3516 5.2461 5.2461 5.2461h31.488z"/>
  <path d="m456.08 368.51c2.8984 0 5.2461-2.3477 5.2461-5.2461 0-2.9023-2.3516-5.2461-5.2461-5.2461l-99.172-0.003906c-2.8984 0-5.2461 2.3477-5.2461 5.2461 0 2.9023 2.3516 5.2461 5.2461 5.2461z"/>
  <path d="m331.57 363.26c0-2.9023-2.3516-5.2461-5.2461-5.2461h-92.535c-2.8984 0-6.9766 2.3516-6.9766 5.2539v31.23c0 2.9023 2.3516 5.2461 5.2461 5.2461 2.8984 0 5.2461-2.3477 5.2461-5.2461l0.003906-25.988h89.012c2.8984 0 5.25-2.3477 5.25-5.25z"/>
  <path d="m232.06 415.77c-2.8984 0-5.2461 2.3477-5.2461 5.2461v69.215c0 2.9023 2.3516 5.2461 5.2461 5.2461 2.8984 0 5.2461-2.3477 5.2461-5.2461v-69.211c0-2.9023-2.3516-5.25-5.2461-5.25z"/>
  <path d="m484.45 414.79c-0.44141 0.082032-0.89844 0.13281-1.3711 0.13281-4.1602 0-7.5508-3.3906-7.5508-7.5469 0-0.47266 0.050781-0.93359 0.13672-1.3867 0.28516-1.5312-0.13281-3.0078-1.1289-4.207-0.99609-1.207-2.4766-1.7812-4.0312-1.7812h-162.83c-1.5586 0-3.043 0.59375-4.0391 1.793-0.99609 1.2031-1.4062 2.7344-1.1172 4.2617 0.082031 0.44531 0.125 0.875 0.125 1.3438 0 4.1602-3.3867 7.543-7.543 7.543-0.47266 0-0.92969-0.0625-1.3711-0.14062-1.5391-0.30078-1.9766 0.11719-3.1797 1.1133-1.2031 0.99219-0.75781 2.4688-0.75781 4.0312v48.918c0 1.5625-0.44531 3.043 0.75391 4.0469 1.2031 0.99219 2.2148 1.3945 3.7539 1.1133 0.44141-0.082032 0.61328-0.13281 1.0859-0.13281 4.1562 0 7.3984 3.3906 7.3984 7.5586 0 0.46094-0.11719 0.92188-0.19922 1.3711-0.28906 1.5312 0.089844 3.207 1.0859 4.4141 0.99609 1.1914 2.4375 1.9805 4.0039 1.9805h162.84 0.10547c2.8984 0 5.2461-2.4414 5.2461-5.3438 0-0.62109-0.10938-1.2539-0.30469-1.8125-0.015626-0.1875-0.027344-0.40234-0.027344-0.59766 0-4.1602 3.3906-7.5664 7.5508-7.5664 0.46875 0 0.92188 0.046875 1.3711 0.125 1.5312 0.28516 2.3867-0.11719 3.6016-1.1133 1.1953-0.99609 1.1641-2.4805 1.1641-4.043v-48.918c0-1.5625 0.03125-3.043-1.1719-4.0469-1.207-0.99219-2.0547-1.3984-3.5938-1.1094zm-5.7305 48.836c-5.2461 1.2344-12.211 9.8477-13.449 15.094h-152.37c-1.2422-5.2461-7.3672-13.859-12.617-15.094v-38.438c5.2461-1.2383 11.371-9.4453 12.609-14.695h152.37c1.2422 5.25 8.207 13.453 13.453 14.691z"/>
  <path d="m389.08 416.98c-12.484 0-22.645 12.301-22.645 27.426 0 15.121 10.16 27.422 22.645 27.422 12.492 0 22.656-12.301 22.656-27.422 0-15.125-10.16-27.426-22.656-27.426zm0 44.352c-6.5859 0-12.148-7.75-12.148-16.926 0-9.1719 5.5664-16.93 12.148-16.93 6.5898 0 12.16 7.7578 12.16 16.93 0 9.1758-5.5664 16.926-12.16 16.926z"/>
 </g>
</svg>