<?xml version="1.0" encoding="UTF-8"?>
<!-- The Best Svg Icon site in the world: iconSvg.co, Visit us! https://iconsvg.co -->
<svg fill="#000000" width="800px" height="800px" version="1.1" viewBox="144 144 512 512" xmlns="http://www.w3.org/2000/svg">
 <g>
  <path d="m502.34 360.87c-0.0625-1.2109-1.0508-2.1719-2.2656-2.1953h-200.15c-1.2148 0.027344-2.1992 0.98438-2.2578 2.1953v53.891h204.67z"/>
  <path d="m404.92 337.91v4.0352c0.015625 2.0156-1.0391 3.8867-2.7695 4.9219h27.824c0.10547 0 0.21094-0.11719 0.32422-0.1875h-0.003906c14.418-8.875 24.23-23.617 26.848-40.34 2.6172-16.727-2.2148-33.762-13.23-46.617-11.016-12.859-27.109-20.246-44.039-20.223-16.93 0.023437-33 7.457-43.98 20.344-10.98 12.887-15.77 29.934-13.102 46.652 2.6641 16.719 12.516 31.434 26.957 40.27 0.070312 0.042969 0.13672 0.097656 0.20703 0.097656h25.93-0.003906c-1.7266-1.0352-2.7812-2.9023-2.7695-4.918v-4.5508c-4.5195-1.4531-8.4648-4.3047-11.262-8.1406-2.8008-3.8359-4.3125-8.4609-4.3203-13.211 0-3.2617 2.6445-5.9023 5.9062-5.9023 3.2617 0 5.9023 2.6406 5.9023 5.9023 0.007812 4.9453 3.4297 9.2344 8.25 10.34 1.168-0.30078 2.4023-0.22656 3.5273 0.21094 5.6055-0.61328 9.75-5.5039 9.4414-11.133-0.30469-5.6289-4.9648-10.035-10.602-10.035-7.3125 0.007813-14.168-3.5547-18.371-9.5391-4.1992-5.9883-5.2188-13.645-2.7266-20.52 2.4922-6.875 8.1797-12.105 15.238-14.012v-5.0156c0-3.2617 2.6445-5.9062 5.9062-5.9062 3.2578 0 5.9023 2.6445 5.9023 5.9062v5.0469c4.7305 1.3086 8.9023 4.1289 11.879 8.0352 2.9766 3.9023 4.5898 8.6758 4.5977 13.582 0 3.2617-2.6445 5.9062-5.9062 5.9062-3.2578 0-5.9023-2.6445-5.9023-5.9062 0-4.293-2.5859-8.1641-6.5547-9.8086-3.9648-1.6406-8.5312-0.73438-11.57 2.3008-3.0352 3.0391-3.9453 7.6055-2.3008 11.57 1.6445 3.9688 5.5156 6.5547 9.8086 6.5547 7.4219-0.003907 14.363 3.6641 18.539 9.793 4.1797 6.1328 5.0547 13.938 2.3359 20.84-2.7148 6.9062-8.6719 12.02-15.91 13.656z"/>
  <path d="m497.95 444.14c-2.1953-0.92188-3.5898-3.1133-3.4883-5.4922v-12.078h-188.93v12.074c0.10156 2.3672-1.2773 4.5508-3.457 5.4805-21.625 8.6797-35.902 30.504-35.902 54.305v113.28c0 14.395 11.543 26.426 25.957 26.426h215.75c14.395 0 25.941-12.031 25.941-26.441v-113.26c0-23.941-14.27-45.766-35.875-54.293z"/>
  <path d="m392.12 167.77v24.602c0 3.2578 2.6445 5.9023 5.9062 5.9023s5.9023-2.6445 5.9023-5.9023v-24.602c0-3.2617-2.6406-5.9023-5.9023-5.9023s-5.9062 2.6406-5.9062 5.9023z"/>
  <path d="m506.2 208.38c-1.1055-1.1094-2.6094-1.7305-4.1758-1.7305-1.5664 0-3.0664 0.62109-4.1719 1.7305l-17.754 17.758c-2.3086 2.3047-2.3086 6.043 0 8.3477 2.3047 2.3047 6.043 2.3047 8.3477 0l17.754-17.758c2.3047-2.3047 2.3047-6.043 0-8.3477z"/>
  <path d="m293.36 208.68c-1.1094 1.1055-1.7305 2.6055-1.7305 4.1719 0 1.5664 0.62109 3.0703 1.7305 4.1758l17.754 17.758c2.3086 2.3047 6.0469 2.3047 8.3516 0 2.3047-2.3086 2.3047-6.0469 0-8.3516l-17.758-17.754c-2.3047-2.3086-6.043-2.3086-8.3477 0z"/>
  <path d="m345.41 208.55c1.3359 2.9727 4.8281 4.3047 7.8047 2.9688 1.4297-0.64062 2.543-1.8242 3.1016-3.2891 0.55469-1.4609 0.50781-3.0859-0.13281-4.5156l-10.281-22.91c-1.3438-2.957-4.8281-4.2734-7.793-2.9414-2.9648 1.3281-4.2969 4.8047-2.9805 7.7773z"/>
  <path d="m453.07 174.48c-3.0469-1.1602-6.457 0.37109-7.6172 3.418l-8.9297 23.469c-0.55859 1.4648-0.51172 3.0898 0.12891 4.5156 0.64453 1.4297 1.8242 2.5469 3.2891 3.1016 3.0469 1.1602 6.457-0.37109 7.6172-3.418l8.9297-23.469c0.55859-1.4648 0.51172-3.0898-0.12891-4.5195-0.64062-1.4258-1.8242-2.543-3.2891-3.0977z"/>
 </g>
</svg>