<?xml version="1.0" encoding="UTF-8"?>
<!-- The Best Svg Icon site in the world: iconSvg.co, Visit us! https://iconsvg.co -->
<svg fill="#000000" width="800px" height="800px" version="1.1" viewBox="144 144 512 512" xmlns="http://www.w3.org/2000/svg">
 <g>
  <path d="m465.66 369.99c8.6055-10.766 11.332-25.086 7.2812-38.258-4.0547-13.172-14.359-23.484-27.527-27.547-13.168-4.0586-27.492-1.3438-38.262 7.2539l-51.434-51.395c-1.2852-1.2773-3.1836-1.7109-4.8945-1.1172-1.7109 0.59766-2.9297 2.1133-3.1445 3.9141 0 0.27734-3.375 27.996-17.211 67.895-12.793 36.715-37.266 91.562-81.672 144.31-15.508 18.422-16.543 42.98-2.3906 57.133l2.5469 2.5586c6.6719 6.6602 15.645 9.957 25.199 9.957h0.003906c6.4453-0.046874 12.809-1.4336 18.695-4.0625l69.344 45.059h-0.003906c1.8672 1.2148 4.332 0.95703 5.9062-0.62109l25.633-25.586c1.0195-1.0117 1.5234-2.4375 1.3594-3.8672-0.16016-1.4336-0.96484-2.7109-2.1875-3.4727l-62.227-38.965c36.668-26.527 77.008-47.566 119.74-62.457 39.844-13.922 67.562-17.27 67.84-17.27 1.8008-0.20703 3.3242-1.4258 3.9219-3.1406 0.59375-1.7148 0.15625-3.6172-1.1289-4.8984zm-9.8398-48.68c5.457 5.4609 8.7734 12.699 9.3398 20.398 0.57031 7.6992-1.6445 15.344-6.2383 21.547l-45.047-45.039-0.003906 0.003906c6.2031-4.5977 13.848-6.8164 21.547-6.2539 7.6992 0.55859 14.945 3.8672 20.414 9.3125zm-200.18 206.69-1.2773-1.2695-1.2773-1.2773c-10.648-10.648-9.3867-29.727 2.9531-44.367h-0.003907c10.832-12.875 20.934-26.344 30.258-40.348l54.121 54.121c-14.004 9.3203-27.477 19.418-40.344 30.25-2.6562 2.2422-5.5547 4.1797-8.6406 5.7734-0.15625 0.070313-0.32422 0.14844-0.48047 0.23438-12.805 6.3008-26.746 5.4258-35.309-3.1172zm127.2 28.91-18.695 18.695-61.992-40.285c1.3477-0.98438 2.6875-1.9688 3.9375-3.0586 5.4727-4.5938 10.953-8.9727 16.441-13.145zm64.758-115.3c-34.781 12.102-68.043 28.188-99.121 47.941l-56.922-56.934c19.746-31.082 35.832-64.34 47.93-99.121 6.9102-19.613 12.301-39.734 16.117-60.18l152.18 152.18c-20.445 3.8203-40.562 9.207-60.18 16.117z"/>
  <path d="m504.54 351.07c-0.058593 1.293 0.41406 2.5508 1.3047 3.4844 0.89453 0.93359 2.1289 1.4648 3.4219 1.4648s2.5312-0.53125 3.4219-1.4648c0.89453-0.93359 1.3672-2.1914 1.3086-3.4844-0.03125-23.312-9.3047-45.66-25.785-62.145-16.484-16.484-38.836-25.758-62.145-25.785-1.293-0.058593-2.5508 0.41016-3.4883 1.3047-0.93359 0.89453-1.4609 2.1289-1.4609 3.4219 0 1.293 0.52734 2.5312 1.4609 3.4219 0.9375 0.89453 2.1953 1.3672 3.4883 1.3086 20.805 0.023438 40.75 8.3008 55.461 23.012 14.711 14.711 22.984 34.656 23.012 55.461z"/>
  <path d="m398.65 213.59c-2.5312 0.11328-4.5195 2.1953-4.5195 4.7266s1.9883 4.6133 4.5195 4.7305c85.707 0 155.47 69.727 155.47 155.47h-0.003906c0.11719 2.5273 2.1992 4.5156 4.7305 4.5156s4.6133-1.9883 4.7266-4.5156c-0.027344-90.953-74.035-164.93-164.93-164.93z"/>
 </g>
</svg>