<?xml version="1.0" encoding="UTF-8"?>
<!-- The Best Svg Icon site in the world: iconSvg.co, Visit us! https://iconsvg.co -->
<svg width="800px" height="800px" version="1.1" viewBox="144 144 512 512" xmlns="http://www.w3.org/2000/svg">
 <defs>
  <clipPath id="a">
   <path d="m195 148.09h456.9v503.81h-456.9z"/>
  </clipPath>
 </defs>
 <g clip-path="url(#a)">
  <path d="m392.12 431.49h-15.742c-4.1758 0-8.1797-1.6602-11.133-4.6133s-4.6133-6.957-4.6133-11.133c0-4.3477-3.5234-7.8711-7.8711-7.8711s-7.8711 3.5234-7.8711 7.8711c0 8.3516 3.3164 16.359 9.2227 22.266s13.914 9.2227 22.266 9.2227v7.8711c0 4.3477 3.5234 7.875 7.8711 7.875s7.8711-3.5273 7.8711-7.875v-7.8711c11.25 0 21.645-6 27.27-15.742 5.625-9.7422 5.625-21.746 0-31.488s-16.02-15.746-27.27-15.746h-15.742c-5.625 0-10.824-3-13.637-7.8711-2.8125-4.8711-2.8125-10.875 0-15.746 2.8125-4.8711 8.0117-7.8711 13.637-7.8711h15.742c4.1758 0 8.1797 1.6602 11.133 4.6133 2.9531 2.9531 4.6133 6.957 4.6133 11.133 0 4.3477 3.5234 7.8711 7.8711 7.8711 4.3477 0 7.8711-3.5234 7.8711-7.8711 0-8.3516-3.3164-16.363-9.2227-22.266-5.9023-5.9062-13.914-9.2227-22.266-9.2227v-7.875c0-4.3477-3.5234-7.8711-7.8711-7.8711s-7.8711 3.5234-7.8711 7.8711v7.875c-11.25 0-21.645 6-27.27 15.742s-5.625 21.746 0 31.488c5.625 9.7422 16.02 15.746 27.27 15.746h15.742c5.625 0 10.824 3 13.637 7.8711s2.8125 10.871 0 15.742c-2.8125 4.8711-8.0117 7.875-13.637 7.875zm198.38 89.742-41.77 55.719-25.082-25.066h0.003906c-3.0898-2.9844-8-2.9414-11.035 0.09375-3.0352 3.0391-3.0781 7.9453-0.097657 11.035l31.488 31.488c1.4805 1.4766 3.4844 2.3047 5.5742 2.3008h0.55078c2.2812-0.16797 4.3789-1.3164 5.7461-3.1523l47.23-62.977 0.003906 0.003906c2.6094-3.4805 1.9023-8.4141-1.5742-11.023-3.4805-2.6094-8.4141-1.9023-11.023 1.5742zm-17.316-56.84v-182.47c-0.035156-0.25391-0.082032-0.50781-0.14062-0.75391-0.03125-0.27734-0.082031-0.55078-0.14453-0.82031-0.23047-1.3281-0.80469-2.5703-1.668-3.6055l-110.21-125.95c-0.96094-1.0352-2.1836-1.7891-3.543-2.1719-0.35547-0.10547-0.71875-0.18359-1.0859-0.23438-0.42188-0.13281-0.85547-0.22656-1.293-0.28516h-220.41c-10.441 0-20.453 4.1484-27.832 11.527-7.3828 7.3828-11.531 17.395-11.531 27.832v425.09c0 10.438 4.1484 20.449 11.531 27.832 7.3789 7.3828 17.391 11.527 27.832 11.527h313.57c0.625-0.046875 1.2461-0.17578 1.8398-0.375 2.4258 0.1875 4.8633 0.37891 7.3359 0.37891v-0.003906c31.742-0.18359 61.27-16.297 78.598-42.891 17.332-26.594 20.145-60.113 7.4922-89.223-12.652-29.113-39.078-49.922-70.344-55.398zm-110.21-287.47 85.016 97.125h-61.402c-6.2617 0-12.27-2.4883-16.699-6.918-4.4297-4.4297-6.9141-10.434-6.9141-16.699zm-7.668 97.125h-189.13c-4.3477 0-7.875-3.5234-7.875-7.8711v-47.234c0-4.3477 3.5273-7.8711 7.875-7.8711h181.05v39.359c0.03125 8.543 2.8711 16.844 8.0781 23.617zm-220.62 362.11c-6.2656 0-12.273-2.4883-16.699-6.918-4.4297-4.4297-6.918-10.438-6.918-16.699v-425.09c0-6.2617 2.4883-12.27 6.918-16.699 4.4258-4.4297 10.434-6.918 16.699-6.918h212.54v31.488h-181.05c-6.2656 0-12.273 2.4883-16.699 6.918-4.4297 4.4297-6.918 10.438-6.918 16.699v47.234c0 6.2617 2.4883 12.27 6.918 16.699 4.4258 4.4258 10.434 6.9141 16.699 6.9141h291.26v173.19c-26.82 0.011719-52.363 11.469-70.219 31.484h-236.79c-4.3477 0-7.8711 3.5273-7.8711 7.875 0 4.3477 3.5234 7.8711 7.8711 7.8711h225.33c-5.6406 9.7305-9.4883 20.395-11.352 31.488h-213.98c-4.3477 0-7.8711 3.5234-7.8711 7.8711s3.5234 7.8711 7.8711 7.8711h212.55c0.019532 10.734 1.8828 21.387 5.5078 31.488h-218.05c-4.3477 0-7.8711 3.5273-7.8711 7.875 0 4.3477 3.5234 7.8711 7.8711 7.8711h225.33c7.3164 12.625 17.438 23.398 29.586 31.488zm322.75 0c-20.875 0-40.898-8.293-55.664-23.059-14.762-14.762-23.055-34.785-23.055-55.664 0-20.875 8.293-40.898 23.055-55.664 14.766-14.762 34.789-23.055 55.664-23.055 20.879 0 40.902 8.293 55.664 23.055 14.766 14.766 23.059 34.789 23.059 55.664-0.027344 20.871-8.3281 40.879-23.086 55.637-14.758 14.758-34.766 23.059-55.637 23.086z"/>
 </g>
</svg>