<?xml version="1.0" encoding="UTF-8"?>
<!-- The Best Svg Icon site in the world: iconSvg.co, Visit us! https://iconsvg.co -->
<svg width="800px" height="800px" version="1.1" viewBox="144 144 512 512" xmlns="http://www.w3.org/2000/svg">
 <defs>
  <clipPath id="a">
   <path d="m148.09 190h503.81v294h-503.81z"/>
  </clipPath>
 </defs>
 <g clip-path="url(#a)">
  <path d="m620.41 190.08h-440.83c-8.3516 0-16.359 3.3164-22.266 9.2227s-9.2227 13.914-9.2227 22.266v230.91c0 8.3477 3.3164 16.359 9.2227 22.262 5.9062 5.9062 13.914 9.2227 22.266 9.2227h83.969v-20.988h-83.969c-5.7969 0-10.496-4.6992-10.496-10.496v-230.91c0-5.7969 4.6992-10.496 10.496-10.496h440.83c2.7852 0 5.4531 1.1055 7.4219 3.0742s3.0742 4.6367 3.0742 7.4219v230.91c0 2.7812-1.1055 5.4531-3.0742 7.4219-1.9688 1.9648-4.6367 3.0742-7.4219 3.0742h-83.969v20.992h83.969v-0.003906c8.3516 0 16.363-3.3164 22.266-9.2227 5.9062-5.9023 9.2227-13.914 9.2227-22.262v-230.91c0-8.3516-3.3164-16.359-9.2227-22.266-5.9023-5.9062-13.914-9.2227-22.266-9.2227z"/>
 </g>
 <path d="m242.56 431.49c0 2.7812 1.1055 5.4531 3.0742 7.4219 1.9688 1.9648 4.6367 3.0742 7.4219 3.0742h52.48v-20.992h-42.855c-2.2031-12.887-8.3516-24.773-17.594-34.016-9.2461-9.2461-21.129-15.391-34.016-17.594v-64.719c12.887-2.2031 24.77-8.3516 34.016-17.594 9.2422-9.2461 15.391-21.129 17.594-34.016h42.855v-20.992h-52.48c-5.7969 0-10.496 4.6992-10.496 10.496 0 11.133-4.4258 21.812-12.297 29.688-7.875 7.8711-18.555 12.297-29.688 12.297-5.7969 0-10.496 4.6992-10.496 10.496v83.969c0 2.7812 1.1055 5.4531 3.0742 7.4219s4.6367 3.0742 7.4219 3.0742c11.133 0 21.812 4.4219 29.688 12.297 7.8711 7.8711 12.297 18.551 12.297 29.688z"/>
 <path d="m557.44 242.56c0-2.7852-1.1055-5.4531-3.0742-7.4219s-4.6367-3.0742-7.4219-3.0742h-52.48v20.992h42.855c2.2031 12.887 8.3516 24.77 17.598 34.016 9.2422 9.2422 21.129 15.391 34.012 17.594v64.719c-12.883 2.2031-24.77 8.3477-34.012 17.594-9.2461 9.2422-15.395 21.129-17.598 34.016h-42.855v20.992h52.48c2.7852 0 5.4531-1.1094 7.4219-3.0742 1.9688-1.9688 3.0742-4.6406 3.0742-7.4219 0-11.137 4.4258-21.816 12.297-29.688 7.875-7.875 18.555-12.297 29.688-12.297 2.7852 0 5.4531-1.1055 7.4219-3.0742s3.0742-4.6406 3.0742-7.4219v-83.969c0-2.7852-1.1055-5.4531-3.0742-7.4219s-4.6367-3.0742-7.4219-3.0742c-11.133 0-21.812-4.4258-29.688-12.297-7.8711-7.875-12.297-18.555-12.297-29.688z"/>
 <path d="m190.08 232.06h20.992v20.992h-20.992z"/>
 <path d="m588.93 232.06h20.992v20.992h-20.992z"/>
 <path d="m588.93 420.99h20.992v20.992h-20.992z"/>
 <path d="m190.08 420.99h20.992v20.992h-20.992z"/>
 <path d="m400 232.06c-34.102 0.027344-66.066 16.605-85.73 44.465-19.668 27.855-24.586 63.527-13.195 95.668l19.785-7.0312c-9.082-25.66-5.168-54.125 10.508-76.375 15.672-22.254 41.156-35.527 68.375-35.617 27.215-0.085937 52.785 13.023 68.605 35.172 15.816 22.148 19.918 50.59 11 76.305l19.816 6.8867c11.176-32.105 6.1172-67.633-13.582-95.336s-51.59-44.152-85.582-44.137z"/>
 <path d="m494.46 462.98c0-2.7852-1.1055-5.457-3.0742-7.4219-1.9648-1.9688-4.6367-3.0742-7.4219-3.0742h-20.988v-52.48c-0.046874-5.5547-2.2734-10.867-6.2031-14.793-3.9258-3.9258-9.2383-6.1523-14.789-6.1992h-83.969c-5.5312 0.12109-10.797 2.3711-14.707 6.2812-3.9141 3.9141-6.1641 9.1797-6.2852 14.711v52.48h-20.992c-5.7969 0-10.496 4.6992-10.496 10.496v31.488l-20.992-0.003906v20.992h20.992v62.977c0 8.3516 3.3164 16.363 9.2227 22.266 5.9023 5.9062 13.914 9.2227 22.266 9.2227h125.95c8.3477 0 16.359-3.3164 22.262-9.2227 5.9062-5.9023 9.2227-13.914 9.2227-22.266v-62.977h20.992v-20.992h-20.992zm-136.45-62.137c0.082031-0.37891 0.1875-0.76562 0.09375-0.83984h83.223s0.50391 0.17969 0.65234 0.09375v52.387h-83.969zm-31.488 72.633h146.95v20.992l-146.95-0.003906zm146.95 104.96c0 2.7852-1.1094 5.4531-3.0742 7.4219-1.9688 1.9688-4.6406 3.0742-7.4219 3.0742h-125.95c-5.7969 0-10.496-4.6992-10.496-10.496v-62.977h146.95z"/>
 <path d="m389.5 536.45h20.992v20.992h-20.992z"/>
</svg>