<?xml version="1.0" encoding="UTF-8"?>
<!-- The Best Svg Icon site in the world: iconSvg.co, Visit us! https://iconsvg.co -->
<svg fill="#000000" width="800px" height="800px" version="1.1" viewBox="144 144 512 512" xmlns="http://www.w3.org/2000/svg">
 <path d="m513.78 360.55c0.62109-0.83594 1.0547-1.8203 1.0547-2.9375 0-1.2539-0.45703-2.4023-1.2148-3.2852l-36.145-62.598c-0.90234-1.5625-2.5625-2.5195-4.3633-2.5195h-146.34c-1.7969 0-3.4648 0.95703-4.3633 2.5195l-36.586 63.363c-0.023437 0.039062-0.03125 0.089844-0.054687 0.125-0.023437 0.046875-0.058594 0.082031-0.085937 0.12109-0.074219 0.14453-0.10156 0.30859-0.15625 0.45703-0.074219 0.20312-0.17188 0.38672-0.22266 0.59375-0.015625 0.054687-0.023437 0.10547-0.035156 0.16797-0.039063 0.17969-0.039063 0.35938-0.058594 0.54297-0.019531 0.21484-0.054687 0.43359-0.046875 0.65625 0 0.070313-0.003906 0.13672 0 0.20703 0.015625 0.15625 0.058594 0.3125 0.089844 0.46875 0.035156 0.22656 0.074219 0.45312 0.14453 0.67578 0.019531 0.082031 0.03125 0.15625 0.054688 0.23828 0.050781 0.13281 0.13672 0.25 0.19531 0.37891 0.066407 0.13281 0.097657 0.27734 0.16797 0.40234 0.050781 0.089844 0.12109 0.15234 0.17969 0.23828 0.050781 0.082031 0.074218 0.16797 0.13281 0.24609l109.75 148.14c0.054688 0.082031 0.15234 0.10547 0.21094 0.17578 0.16016 0.19531 0.32422 0.38281 0.51953 0.55078 0.22656 0.20703 0.48438 0.36719 0.74219 0.52344 0.050782 0.03125 0.089844 0.070312 0.13672 0.097656 0.070313 0.046875 0.11719 0.11719 0.1875 0.15234 0.019531 0.011719 0.035157 0.011719 0.054688 0.019531 0.019531 0.011719 0.035156 0.03125 0.054687 0.039063 0.070313 0.03125 0.14062 0.019531 0.21094 0.046875 0.60547 0.25781 1.2461 0.43359 1.9336 0.43359h0.10156c0.17969 0 0.33594-0.085937 0.51953-0.10547 0.39453-0.050782 0.78125-0.10156 1.1484-0.23047 0.40625-0.14453 0.75391-0.36719 1.1133-0.60938 0.10547-0.070312 0.20703-0.125 0.30859-0.20312 0.32422-0.26172 0.59766-0.54297 0.85156-0.875 0.003906-0.003906 0.015625-0.011719 0.019532-0.015625l109.3-147.54c0.14062-0.13672 0.22656-0.31641 0.35156-0.47266l0.097656-0.125c0.011718-0.023438 0.019531-0.046876 0.03125-0.066407zm-143.99 2.1016h60.301l-30.148 122.08-6.6992-27.125zm2.293-10.078 27.855-48.25 27.855 48.25zm128.89 0h-55.719l27.855-48.25zm-64.445-5.0391-27.855-48.25h55.715zm-73.168 0-27.855-48.25h55.715zm-8.7305 5.0391h-55.711l27.855-48.25zm4.7812 10.078 6.9688 28.219 22.641 91.672-50.621-68.32-38.203-51.57zm51.453 119.89 22.641-91.672 6.9688-28.219h59.219l-38.203 51.57z"/>
</svg>