<?xml version="1.0" encoding="UTF-8"?>
<!-- The Best Svg Icon site in the world: iconSvg.co, Visit us! https://iconsvg.co -->
<svg fill="#000000" width="800px" height="800px" version="1.1" viewBox="144 144 512 512" xmlns="http://www.w3.org/2000/svg">
 <g>
  <path d="m237.99 252c12.527 0 24.539-4.9766 33.398-13.832 8.8594-8.8594 13.832-20.871 13.832-33.398 0-12.527-4.9727-24.543-13.832-33.398-8.8594-8.8594-20.871-13.836-33.398-13.836-12.527 0-24.539 4.9766-33.398 13.836-8.8555 8.8555-13.832 20.871-13.832 33.398 0.10156 12.492 5.1094 24.449 13.945 33.285 8.8359 8.832 20.789 13.844 33.285 13.945zm0-79.824v0.003906c8.5703-0.023438 16.793 3.3672 22.863 9.4141 6.0703 6.0508 9.4844 14.266 9.4922 22.832 0.003906 8.5703-3.3945 16.789-9.4531 22.852-6.0625 6.0586-14.281 9.457-22.852 9.4531-8.5664-0.007813-16.781-3.4219-22.832-9.4922-6.0469-6.0703-9.4375-14.293-9.4141-22.863 0.019531-8.5312 3.418-16.711 9.4531-22.742 6.0312-6.0352 14.211-9.4336 22.742-9.4531z"/>
  <path d="m384.25 367.8-70.848-8.6602-4.25-2.9922v-16.766c-0.80859-23.652-13.891-45.168-34.52-56.77-20.629-11.598-45.812-11.598-66.441 0-20.625 11.602-33.711 33.117-34.516 56.77v100.37c-0.039063 0.65234-0.039063 1.3125 0 1.9648l29.52 107.14-14.723 85.332c-0.625 4.1719 2.1523 8.0977 6.2969 8.8945h1.2617c3.8242 0.070312 7.1445-2.6211 7.8711-6.375l15.035-87.145c0.24609-1.1133 0.24609-2.2695 0-3.3828l-27.707-98.953h103.12l11.176 100.92-15.742 85.961-0.003907 0.003906c-0.67969 4.1523 2.0273 8.1016 6.1406 8.9727h1.418c3.7773 0.085937 7.0781-2.5234 7.8711-6.2188l15.508-87.301c0.16016-0.72656 0.16016-1.4766 0-2.2031l-11.809-108v-13.383c0.53516-2.3359-0.027344-4.7852-1.5195-6.6602-1.4961-1.8711-3.7578-2.9609-6.1562-2.9609-2.3945 0-4.6602 1.0898-6.1523 2.9609-1.4922 1.875-2.0547 4.3242-1.5195 6.6602v6.1406h-104.78v-92.656c0.70703-18.23 10.844-34.785 26.762-43.707 15.922-8.918 35.332-8.918 51.25 0 15.922 8.9219 26.059 25.477 26.766 43.707v5.9023l-34.086-23.617v0.003906c-4.1484-2.918-9.0977-4.4844-14.172-4.4883-8.1055-0.003907-15.707 3.9297-20.387 10.551-3.8125 5.3594-5.3164 12.023-4.1719 18.5 1.2148 6.3867 4.8906 12.039 10.23 15.742l58.805 41.016h0.55078c3.4805 2.5586 7.5898 4.1367 11.887 4.5625l76.594 9.2109h2.6016c8.0234-0.64062 15.238-5.1406 19.344-12.066 4.1094-6.9219 4.5977-15.41 1.3164-22.762s-9.9297-12.652-17.828-14.215zm-2.6758 34.086-77.539-9.2109c-1.6875-0.16016-3.293-0.78516-4.6445-1.8086-0.38672-0.33203-0.80859-0.625-1.2617-0.86719l-57.781-40.539h0.003907c-2.0547-1.4141-3.4453-3.6016-3.8594-6.0625-0.48438-2.4531 0.089844-4.9961 1.5742-7.0078 1.7969-2.5586 4.7461-4.0586 7.8711-4.0117 1.8867-0.003906 3.7266 0.57422 5.2773 1.6523l55.105 38.887h-0.003907c1.0312 0.71484 2.2188 1.1758 3.4648 1.3398l72.738 8.8945c4.8984 0.62109 8.4883 4.9141 8.2422 9.8438-0.24609 4.9336-4.25 8.8398-9.1875 8.9688z"/>
  <path d="m256.96 481.55c0.011718-2.3828-1.0586-4.6445-2.9102-6.1445-1.8516-1.5039-4.2852-2.0859-6.6133-1.5859-2.332 0.5-4.3125 2.0312-5.3828 4.1602-1.0703 2.1289-1.1172 4.6289-0.12891 6.8008l13.066 61.797-17.398 87.457c-0.73438 4.1289 1.8945 8.1094 5.9844 9.0508h1.5742c3.6055-0.089844 6.6875-2.6211 7.4766-6.1406l17.789-88.953h0.003906c0.23438-1.0352 0.23438-2.1133 0-3.1484z"/>
  <path d="m561.93 252c12.527 0 24.539-4.9766 33.398-13.832 8.8594-8.8594 13.832-20.871 13.832-33.398 0-12.527-4.9727-24.543-13.832-33.398-8.8594-8.8594-20.871-13.836-33.398-13.836-12.527 0-24.539 4.9766-33.398 13.836-8.8555 8.8555-13.832 20.871-13.832 33.398 0.12109 12.488 5.1367 24.43 13.969 33.262 8.832 8.832 20.773 13.848 33.262 13.969zm0-79.824v0.003906c8.5703-0.023438 16.793 3.3672 22.863 9.4141 6.0703 6.0508 9.4844 14.266 9.4922 22.832 0.003906 8.5703-3.3945 16.789-9.4531 22.852-6.0625 6.0586-14.281 9.457-22.852 9.4531-8.5664-0.007813-16.781-3.4219-22.832-9.4922-6.0469-6.0703-9.4375-14.293-9.4141-22.863 0-8.5391 3.3906-16.73 9.4297-22.766 6.0391-6.0391 14.227-9.4297 22.766-9.4297z"/>
  <path d="m626.48 339.46c-0.80469-23.648-13.891-45.168-34.52-56.766-20.629-11.602-45.812-11.602-66.438 0-20.629 11.598-33.715 33.117-34.52 56.766v16.766l-4.25 2.9922-67.855 8.6602h-0.003906c-4.1328 0.60938-7.0703 4.3438-6.6914 8.5039 0.61328 4.1992 4.4414 7.1602 8.6602 6.6914l69.746-8.8945c1.2461-0.16406 2.4336-0.625 3.4648-1.3398l55.105-38.887h-0.003906c1.5781-1.082 3.4453-1.6562 5.3555-1.6523 3.1211-0.023437 6.0547 1.4766 7.8711 4.0117 1.4453 2.0391 2.0117 4.5742 1.5664 7.0312-0.44531 2.4609-1.8594 4.6367-3.9297 6.0391l-57.699 40.539c-0.49609 0.27734-0.97266 0.59375-1.418 0.94531-1.4141 1.0703-3.1094 1.7031-4.8789 1.8086l-73.211 9.2109c-3.5586 0.98438-5.957 4.3047-5.7656 7.9922 0.1875 3.6875 2.9141 6.7461 6.5508 7.3594h1.0234l73.133-9.3672c4.4844-0.35547 8.7891-1.9336 12.438-4.5664 0.31641-0.13672 0.60938-0.32422 0.86719-0.55078l58.094-40.777c5.4062-3.7617 9.0859-9.5273 10.227-16.016 1.1367-6.4883-0.36328-13.164-4.1641-18.543-3.7812-5.4531-9.5859-9.168-16.117-10.32-6.5352-1.1523-13.258 0.35156-18.68 4.1797l-34.008 23.617 0.003907-5.5117c0-18.703 9.9766-35.984 26.172-45.336 16.199-9.3516 36.152-9.3516 52.352 0 16.195 9.3516 26.172 26.633 26.172 45.336v92.656h-104.7v-6.1406c0-4.3477-3.5273-7.8711-7.875-7.8711-4.3477 0-7.8711 3.5234-7.8711 7.8711v13.461l-11.57 108.32c-0.11719 0.73047-0.11719 1.4766 0 2.207l16.371 87.062c0.79297 3.6953 4.0977 6.3047 7.875 6.2188h1.418-0.003906c4.1172-0.86719 6.8203-4.8203 6.1406-8.9727l-16.453-86.043 11.18-100.92h103.05l-27.16 99.188c-0.32812 1.0156-0.48828 2.082-0.47266 3.1484l14.957 86.594c0.72656 3.7539 4.0469 6.4453 7.8711 6.375h1.3398c4.1133-0.83203 6.8477-4.7461 6.2188-8.8945l-14.641-84.781c0.94531-3.543 1.8906-7.0859 2.9141-10.629 2.3633-8.7383 4.7227-17.398 7.1641-26.137 2.832-10.312 5.668-20.625 8.4219-30.859 2.4414-8.9727 4.8789-17.871 7.3984-26.844v0.003906c2.25-6.7109 3.5234-13.711 3.7773-20.781v-22.672-30.543-27.16-13.539z"/>
  <path d="m558.07 484.78c0.066407-3.7695-2.543-7.0586-6.2266-7.8438-3.6875-0.78906-7.4141 1.1484-8.8906 4.6133l-13.461 62.977c-0.15625 1.0469-0.15625 2.1055 0 3.1484l17.789 88.953 0.003906 0.003906c0.82422 3.6602 4.1172 6.2305 7.8711 6.1406h1.4961c4.1172-0.90625 6.793-4.8984 6.0625-9.0547l-17.793-87.145z"/>
 </g>
</svg>