<?xml version="1.0" encoding="UTF-8"?>
<!-- The Best Svg Icon site in the world: iconSvg.co, Visit us! https://iconsvg.co -->
<svg fill="#000000" width="800px" height="800px" version="1.1" viewBox="144 144 512 512" xmlns="http://www.w3.org/2000/svg">
 <g>
  <path d="m628.29 478.72h-23.617v-23.617c0-2.0859-0.83203-4.0898-2.3047-5.5664-1.4766-1.4766-3.4805-2.3047-5.5664-2.3047h-23.617v-228.29c0-2.0859-0.82812-4.0898-2.3047-5.5664-1.4766-1.4766-3.4805-2.3047-5.5664-2.3047h-291.27v-39.359c0-2.9062-1.5977-5.5742-4.1602-6.9414-2.5586-1.3711-5.6641-1.2227-8.082 0.39062l-19.246 12.848-19.246-12.848c-2.418-1.6133-5.5234-1.7617-8.0859-0.39062-2.5586 1.3672-4.1562 4.0352-4.1562 6.9414v39.359h-39.359c-4.3477 0-7.875 3.5234-7.875 7.8711v251.91c0 2.0859 0.83203 4.0898 2.3086 5.5664 1.4766 1.4766 3.4766 2.3047 5.5664 2.3047h39.359v86.594c0 2.9023 1.5977 5.5703 4.1562 6.9414 2.5625 1.3711 5.668 1.2188 8.0859-0.39453l19.246-12.848 19.246 12.832c2.4141 1.6094 5.5156 1.7617 8.0781 0.39844 2.5586-1.3672 4.1562-4.0312 4.1641-6.9297v-86.594h31.488v118.08c0 2.0859 0.82812 4.0898 2.3047 5.5664 1.4766 1.4727 3.4805 2.3047 5.5664 2.3047h23.617v23.617c0 2.0859 0.82812 4.0898 2.3047 5.5664 1.4766 1.4727 3.4766 2.3047 5.5664 2.3047h283.39c2.0859 0 4.0898-0.83203 5.5664-2.3047 1.4727-1.4766 2.3047-3.4805 2.3047-5.5664v-141.7c0-2.0859-0.83203-4.0898-2.3047-5.5664-1.4766-1.4766-3.4805-2.3047-5.5664-2.3047zm-401.48-292.3 11.375 7.5898c2.6484 1.7656 6.0938 1.7656 8.7383 0l11.375-7.5898v24.656h-31.488zm31.488 364.19-11.375-7.5898c-2.6445-1.7617-6.0898-1.7617-8.7383 0l-11.375 7.5898v-71.887h31.488zm47.234-95.504v7.8711l-125.95 0.003906v-236.16h377.86v220.42h-244.03c-4.3477 0-7.8711 3.5234-7.8711 7.8711zm15.742 7.8711 267.65 0.003906v125.95h-267.65zm299.14 157.44h-267.65v-15.742h244.04c2.0859 0 4.0898-0.83203 5.5664-2.3047 1.4727-1.4766 2.3047-3.4805 2.3047-5.5664v-102.34h15.742z"/>
  <path d="m376.38 502.34c-6.2656 0-12.27 2.4883-16.699 6.9141-4.4297 4.4297-6.918 10.438-6.918 16.699 0 6.2656 2.4883 12.273 6.918 16.699 4.4297 4.4297 10.434 6.918 16.699 6.918 6.2617 0 12.27-2.4883 16.699-6.918 4.4297-4.4258 6.918-10.434 6.918-16.699 0-6.2617-2.4883-12.27-6.918-16.699-4.4297-4.4258-10.438-6.9141-16.699-6.9141zm0 31.488c-3.1836 0-6.0547-1.918-7.2734-4.8594s-0.54297-6.3281 1.707-8.582c2.25-2.25 5.6367-2.9219 8.5781-1.7031 2.9414 1.2188 4.8594 4.0859 4.8594 7.2695 0 2.0898-0.82812 4.0898-2.3047 5.5664-1.4766 1.4766-3.4805 2.3086-5.5664 2.3086z"/>
  <path d="m533.82 502.34c-6.2656 0-12.273 2.4883-16.699 6.9141-4.4297 4.4297-6.918 10.438-6.918 16.699 0 6.2656 2.4883 12.273 6.918 16.699 4.4258 4.4297 10.434 6.918 16.699 6.918 6.2617 0 12.27-2.4883 16.699-6.918 4.4258-4.4258 6.9141-10.434 6.9141-16.699 0-6.2617-2.4883-12.27-6.9141-16.699-4.4297-4.4258-10.438-6.9141-16.699-6.9141zm0 31.488c-3.1836 0-6.0547-1.918-7.2734-4.8594s-0.54688-6.3281 1.707-8.582c2.25-2.25 5.6367-2.9219 8.5781-1.7031 2.9414 1.2188 4.8594 4.0859 4.8594 7.2695 0 2.0898-0.82812 4.0898-2.3047 5.5664s-3.4805 2.3086-5.5664 2.3086z"/>
  <path d="m455.1 502.34c2.0898 0 4.0898 0.82812 5.5664 2.3047 1.4766 1.4766 2.3086 3.4766 2.3086 5.5664h15.742c-0.019531-4.8672-1.543-9.6094-4.3633-13.578-2.8164-3.9688-6.793-6.9688-11.379-8.5898v-9.3203h-15.746v9.3203c-7.0547 2.4844-12.512 8.1719-14.699 15.324-2.1914 7.1523-0.85547 14.918 3.5977 20.926 4.4531 6.0117 11.496 9.5469 18.973 9.5352 3.1836 0 6.0547 1.918 7.2734 4.8594s0.54688 6.3281-1.707 8.5781c-2.25 2.25-5.6367 2.9258-8.5781 1.707s-4.8594-4.0898-4.8594-7.2734h-15.742c0.019531 4.8672 1.543 9.6094 4.3594 13.578 2.8203 3.9648 6.793 6.9688 11.383 8.5898v9.3203h15.742l0.003906-9.3203c7.0547-2.4844 12.508-8.1719 14.699-15.324 2.1914-7.1523 0.85547-14.918-3.5977-20.926-4.4531-6.0117-11.496-9.5469-18.977-9.5352-4.3477 0-7.8711-3.5234-7.8711-7.8711 0-4.3477 3.5234-7.8711 7.8711-7.8711z"/>
  <path d="m482.66 306.57-110.21-62.977h-0.003907c-2.418-1.3828-5.3867-1.3828-7.8086 0l-110.21 62.977c-2.4531 1.4023-3.9648 4.0078-3.9648 6.832s1.5117 5.4297 3.9648 6.832l11.809 6.7305v57.285h15.742v-48.285l15.742 8.9961 0.003906 47.16c0 2.0898 0.82813 4.0898 2.3047 5.5664l9.2188 9.2266c15.734 15.73 37.074 24.566 59.324 24.566s43.586-8.8359 59.324-24.566l9.2188-9.2266h-0.003907c1.457-1.4844 2.2617-3.4844 2.2461-5.5664v-47.16l43.297-24.727c2.4492-1.4023 3.9609-4.0078 3.9609-6.832s-1.5117-5.4297-3.9609-6.832zm-59.043 82.293-6.9102 6.918c-12.785 12.777-30.117 19.957-48.191 19.957s-35.41-7.1797-48.195-19.957l-6.9102-6.918v-34.902l51.168 29.254v-0.003906c2.418 1.3828 5.3906 1.3828 7.8086 0l51.23-29.25zm-55.105-21.547-94.336-53.914 94.34-53.914 94.336 53.914z"/>
 </g>
</svg>