<?xml version="1.0" encoding="UTF-8"?>
<!-- The Best Svg Icon site in the world: iconSvg.co, Visit us! https://iconsvg.co -->
<svg fill="#000000" width="800px" height="800px" version="1.1" viewBox="144 144 512 512" xmlns="http://www.w3.org/2000/svg">
 <path d="m628.29 431.49h-157.44c-4.3477 0-7.8711 3.5234-7.8711 7.8711v5.9922c-13.43-34.055-35.203-69.312-61.488-87.512l29.125-56.57c1.2578-2.4414 1.1523-5.3633-0.27734-7.707-1.4297-2.3438-3.9766-3.7734-6.7227-3.7734h-25.188c13.684-26.844 12.43-58.871-3.3125-84.562-15.738-25.695-43.703-41.355-73.836-41.355-30.129 0-58.094 15.66-73.836 41.355-15.742 25.691-16.992 57.719-3.3086 84.562h-25.191c-2.7461 0-5.293 1.4297-6.7227 3.7734-1.4258 2.3438-1.5312 5.2656-0.27344 7.707l29.125 56.57c-43.973 30.352-77.234 108.74-77.234 160.24 0 87.066 81.328 118.08 157.44 118.08 66.582 0 117.6-21.797 141.7-60.086l0.003906 52.215c0 2.0859 0.82813 4.0898 2.3047 5.5664 1.4766 1.4727 3.4766 2.3047 5.5664 2.3047h157.44c2.0859 0 4.0898-0.83203 5.5664-2.3047 1.4727-1.4766 2.3047-3.4805 2.3047-5.5664v-62.977c0-2.0898-0.83203-4.0898-2.3047-5.5664-1.4766-1.4766-3.4805-2.3086-5.5664-2.3086h-7.875v-15.742h7.875c2.0859 0 4.0898-0.82812 5.5664-2.3047 1.4727-1.4766 2.3047-3.4805 2.3047-5.5664v-31.488c0-2.0898-0.83203-4.0898-2.3047-5.5664-1.4766-1.4766-3.4805-2.3086-5.5664-2.3086h-7.875v-15.742h7.875c2.0859 0 4.0898-0.82812 5.5664-2.3047 1.4727-1.4766 2.3047-3.4805 2.3047-5.5664v-31.488c0-2.0898-0.83203-4.0898-2.3047-5.5664-1.4766-1.4766-3.4805-2.3047-5.5664-2.3047zm-165.31 47.23h141.7v15.742h-141.7zm-141.7-299.14c18.785 0.019531 36.793 7.4922 50.074 20.773s20.754 31.289 20.773 50.074c0.027344 14.023-4.1484 27.73-11.988 39.359h-50.988v-1.4492c7.0547-2.4844 12.512-8.168 14.703-15.32 2.1914-7.1523 0.85547-14.918-3.5977-20.93-4.4531-6.0078-11.496-9.5469-18.977-9.5312-3.1836 0-6.0547-1.918-7.2734-4.8594-1.2188-2.9414-0.54297-6.3281 1.707-8.5781 2.2539-2.2539 5.6367-2.9258 8.5781-1.707 2.9414 1.2188 4.8594 4.0898 4.8594 7.2734h15.746c-0.019531-4.8672-1.543-9.6094-4.3633-13.578-2.8164-3.9688-6.793-6.9688-11.383-8.5898v-17.195h-15.742v17.195c-7.0547 2.4844-12.512 8.1719-14.699 15.32-2.1914 7.1523-0.85547 14.922 3.5977 20.93 4.4531 6.0078 11.496 9.5469 18.973 9.5312 3.1836 0 6.0547 1.918 7.2734 4.8594s0.54688 6.3281-1.707 8.582c-2.25 2.25-5.6367 2.9219-8.5781 1.7031s-4.8594-4.0859-4.8594-7.2695h-15.742c0.019532 4.8672 1.543 9.6055 4.3594 13.574 2.8203 3.9688 6.793 6.9688 11.383 8.5898v1.4492h-50.988c-7.8438-11.625-12.02-25.336-11.988-39.359 0.019531-18.785 7.4922-36.793 20.773-50.074s31.293-20.754 50.074-20.773zm-89.426 125.95h178.85l-24.309 47.23h-22.969c5.0703-6.6562 6.3945-15.445 3.5117-23.301-2.8867-7.8594-9.582-13.703-17.758-15.496-8.1758-1.7969-16.699 0.70703-22.613 6.6328l-5.2891 5.2891-5.2891-5.2891c-5.8984-5.9766-14.449-8.5117-22.652-6.7266-8.2031 1.7852-14.922 7.6484-17.805 15.535-2.8789 7.8906-1.5234 16.703 3.6016 23.355h-22.973zm120.91 32.441c-0.003906 2.3359-0.93359 4.582-2.582 6.2422l-5.9688 5.9688 0.003906-0.003906c-3.4492 3.4492-9.0391 3.4492-12.488 0-3.4453-3.4453-3.4453-9.0352 0-12.484l5.9688-5.9688c2.5234-2.5234 6.3203-3.2812 9.6211-1.9141 3.2969 1.3672 5.4492 4.5859 5.4453 8.1602zm-39.359 5.9688v-0.003906c0.003906 3.5703-2.1484 6.793-5.4453 8.1562-3.3008 1.3672-7.0977 0.61328-9.6211-1.9141l-5.9688-5.9688v0.003906c-3.4453-3.4492-3.4453-9.0391 0-12.488 3.4492-3.4453 9.0391-3.4453 12.484 0l5.9688 5.9688c1.6484 1.6602 2.5781 3.9023 2.582 6.2422zm141.7 182c-4.3477 0-7.8711 3.5273-7.8711 7.875v31.488c0.039062 1.457 0.49219 2.875 1.3086 4.0859-21.625 32.535-67.316 51.016-127.26 51.016-131.46 0-141.7-78.324-141.7-102.34 0-47.781 34.031-125.27 74.105-149.57h32.844l-18.051 18.051 11.133 11.133 29.18-29.18h24.969l29.18 29.18 11.133-11.133-18.051-18.047h32.906c24.547 14.957 49.871 52.742 63.891 94.922v-0.003906c-3.2969 0.96875-5.5703 3.9805-5.5898 7.418v31.488c0 2.0859 0.82812 4.0898 2.3047 5.5664 1.4766 1.4766 3.4805 2.3047 5.5664 2.3047h7.8711v15.742zm7.8711 31.488 0.003906-15.742h141.7v15.742zm157.44 62.977h-141.7v-15.742h141.7zm0-31.488h-141.7v-15.742h141.7zm0-62.977h-141.7v-15.742h141.7zm0-62.977-141.7 0.003906v-15.746h141.7z"/>
</svg>