<?xml version="1.0" encoding="UTF-8"?>
<!-- The Best Svg Icon site in the world: iconSvg.co, Visit us! https://iconsvg.co -->
<svg fill="#000000" width="800px" height="800px" version="1.1" viewBox="144 144 512 512" xmlns="http://www.w3.org/2000/svg">
 <g>
  <path d="m603.66 315.93h-111.89c-13.34-48.355-38.27-93.09-73.535-130.77-1.5547-1.6797-3.2852-3.2539-4.9023-4.9023 86.004 5.207 158.84 59.66 190.32 135.67z"/>
  <path d="m492.46 410.02c-0.71484 21.684-3.7461 42.961-8.8594 63.555l-167.22-0.003906c-6.6953-26.977-9.7734-55.043-8.8281-83.602 0.71484-21.695 3.7578-42.973 8.8594-63.555h167.23c6.6758 27 9.75 55.043 8.8164 83.605z"/>
  <path d="m389.42 607.65c-33.41-35.676-57.141-77.934-70.238-123.58h161.67c-14.496 50.695-42.047 96.867-80.852 134.36-3.6133-3.5039-7.1484-7.0938-10.582-10.777z"/>
  <path d="m319.17 315.93c14.496-50.695 42.039-96.848 80.832-134.35 3.6211 3.4961 7.1484 7.0859 10.59 10.738 33.398 35.676 57.129 77.945 70.23 123.59z"/>
  <path d="m386.49 180.27c-37.574 38.363-64.203 84.852-78.207 135.66h-111.94c31.477-75.961 104.24-130.41 190.14-135.66z"/>
  <path d="m192.52 326.33c0.15625 0.011719 0.28516 0.09375 0.44141 0.09375h112.6c-4.9023 20.5-7.7891 41.648-8.5 63.195-0.94531 28.645 2.0273 56.793 8.5234 83.938h-112.62c-0.15625 0-0.28516 0.074218-0.44141 0.09375-8.2188-23.078-12.941-47.797-12.941-73.66s4.7227-50.57 12.941-73.66z"/>
  <path d="m196.34 484.07h111.9c13.352 48.344 38.258 93.078 73.516 130.75 1.5859 1.6992 3.2852 3.2656 4.9219 4.9219-85.996-5.1953-158.84-59.656-190.34-135.67z"/>
  <path d="m413.53 619.74c37.574-38.363 64.203-84.852 78.207-135.67h111.93c-31.469 75.961-104.24 130.43-190.14 135.67z"/>
  <path d="m607.48 473.68c-0.16797-0.019532-0.28516-0.10547-0.42969-0.10547h-112.61c4.9219-20.5 7.7891-41.648 8.5117-63.195 0.94531-28.645-2.0273-56.805-8.5352-83.945h112.62c0.14844 0 0.26172-0.082032 0.42969-0.09375 8.2344 23.078 12.945 47.797 12.945 73.668 0 25.852-4.6914 50.562-12.93 73.672z"/>
 </g>
</svg>