<?xml version="1.0" encoding="UTF-8"?>
<!-- The Best Svg Icon site in the world: iconSvg.co, Visit us! https://iconsvg.co -->
<svg fill="#000000" width="800px" height="800px" version="1.1" viewBox="144 144 512 512" xmlns="http://www.w3.org/2000/svg">
 <g>
  <path d="m326.2 497.41h15.742v29.52h-15.742z"/>
  <path d="m407.32 178.57-7.3242-6.2969-7.3281 6.2656c-43.602 38.121-96.207 58.113-152.14 58.113h-38.316v141.49c0 61.766 15.641 109.16 49.457 149.15 28.5 33.703 68.918 61.84 135.41 94.086l12.891 6.2578 12.871-6.2539c66.492-32.246 106.97-60.383 135.48-94.086 33.816-39.996 49.461-87.391 49.461-149.16v-141.49h-38.32c-55.934 0-108.54-19.953-152.14-58.082zm168.81 86.66v112.91c0 56.203-14.285 99.031-44.516 134.78-26.371 31.18-64.926 57.625-128.45 88.43l-0.61328 0.29688 0.003906-0.003907c-1.6406 0.78906-3.5508 0.78906-5.1875 0l-0.66016-0.29688c-63.52-30.801-101.97-57.25-128.34-88.43-30.227-35.742-44.508-78.57-44.508-134.77v-112.91c0.1875-3.3438 2.957-5.9531 6.3047-5.9453h10.363c56.535 0 110.41-18.805 155.81-54.566h0.003906c2.1055-1.7344 5.125-1.8047 7.3047-0.16406 45.395 35.762 99.277 54.73 155.81 54.73h10.367c3.3477-0.007812 6.1172 2.6016 6.3086 5.9453z"/>
  <path d="m326.2 412.79h15.742v29.52h-15.742z"/>
  <path d="m353.75 497.41h13.777v29.52h-13.777z"/>
  <path d="m362.61 455.1h12.793v29.52h-12.793z"/>
  <path d="m337.02 455.1h13.777v29.52h-13.777z"/>
  <path d="m429.52 412.79h13.777v29.52h-13.777z"/>
  <path d="m353.75 412.79h13.777v29.52h-13.777z"/>
  <path d="m403.66 384.8c14.543 0 28.484-5.7734 38.766-16.055s16.059-24.227 16.059-38.766c0-14.539-5.7773-28.484-16.059-38.766s-24.223-16.055-38.766-16.055c-14.539 0-28.48 5.7734-38.762 16.055s-16.059 24.227-16.059 38.766c0.015625 14.535 5.7969 28.469 16.074 38.746 10.277 10.277 24.215 16.059 38.746 16.074zm0-46.906c-7.168 0-13.875-3.5547-17.902-9.4883-4.0234-5.9375-4.8438-13.48-2.1914-20.145 2.6562-6.6641 8.4414-11.574 15.445-13.117v-4.0195c0-3.2617 2.6406-5.9062 5.9023-5.9062s5.9062 2.6445 5.9062 5.9062v4.7305c4.2266 1.4883 7.8867 4.25 10.48 7.9062 2.5898 3.6523 3.9844 8.0234 3.9922 12.504 0 3.2617-2.6445 5.9023-5.9062 5.9023-3.2578 0-5.9023-2.6406-5.9023-5.9023 0-3.9727-2.3945-7.5547-6.0625-9.0742-3.6719-1.5234-7.8945-0.67969-10.707 2.1289-2.8086 2.8086-3.6484 7.0312-2.1289 10.703 1.5234 3.6719 5.1016 6.0625 9.0742 6.0625 6.8672 0 13.324 3.2578 17.402 8.7812 4.0781 5.5234 5.293 12.656 3.2734 19.215-2.0234 6.5625-7.0391 11.773-13.516 14.043v4.6719c0 3.2617-2.6445 5.9023-5.9062 5.9023s-5.9023-2.6406-5.9023-5.9023v-3.957c-4.8125-1.0664-9.1133-3.7383-12.199-7.5781-3.0898-3.8398-4.7734-8.6172-4.7812-13.543 0-3.2617 2.6445-5.9062 5.9062-5.9062 3.2578 0 5.9023 2.6445 5.9023 5.9062 0 3.9727 2.3945 7.5547 6.0625 9.0742 3.6719 1.5195 7.8945 0.67969 10.707-2.1289 2.8086-2.8125 3.6484-7.0352 2.1289-10.707-1.5234-3.668-5.1055-6.0625-9.0781-6.0625z"/>
  <path d="m404.92 412.79h12.793v29.52h-12.793z"/>
  <path d="m379.34 412.79h13.777v29.52h-13.777z"/>
  <path d="m309.47 455.1h15.742v29.52h-15.742z"/>
  <path d="m455.1 497.41h15.742v29.52h-15.742z"/>
  <path d="m455.1 412.79h15.742v29.52h-15.742z"/>
  <path d="m400 216.73c-46.73 35.586-101.77 54.367-159.47 54.367h-4.8594v107.05c0 53.254 13.445 93.66 41.77 127.15 24.969 29.527 61.895 54.848 122.66 84.473 60.766-29.625 97.539-54.945 122.51-84.473 28.324-33.496 41.719-73.898 41.719-127.15v-107.05h-4.8672c-57.707 0-112.74-18.781-159.46-54.367zm3.668 46.625c17.672 0 34.617 7.0195 47.113 19.516 12.496 12.496 19.516 29.445 19.516 47.113 0 17.672-7.0195 34.621-19.516 47.117s-29.441 19.516-47.113 19.516-34.621-7.0234-47.113-19.52c-12.496-12.492-19.516-29.441-19.516-47.113 0.019532-17.664 7.0469-34.602 19.535-47.09 12.492-12.492 29.426-19.52 47.09-19.539zm78.988 185.16c-0.027344 1.5391-0.67578 3.0078-1.7969 4.0625-1.125 1.0586-2.6289 1.6133-4.168 1.543h-10.766v31.488h10.766c3.2812 0.023437 5.9414 2.6797 5.9648 5.9609v41.371c-0.019531 1.5625-0.66016 3.0508-1.7773 4.1406-1.1211 1.0898-2.6289 1.6875-4.1875 1.6641h-156.18c-3.2812 0.0625-6.0078-2.5234-6.1172-5.8047v-36.508h-10.766c-1.5508 0.046874-3.0586-0.53125-4.1797-1.6055-1.1172-1.0703-1.7617-2.5508-1.7812-4.1016v-41.367c0.011719-3.3008 2.6562-5.9922 5.9609-6.0625h10.766v-36.148c0.078125-3.3516 2.7656-6.0586 6.1172-6.1602h156.18c3.3203 0.11328 5.9531 2.8359 5.9648 6.1602z"/>
  <path d="m438.38 455.1h15.742v29.52h-15.742z"/>
  <path d="m379.34 497.41h13.777v29.52h-13.777z"/>
  <path d="m387.21 455.1h13.777v29.52h-13.777z"/>
  <path d="m404.92 497.41h12.793v29.52h-12.793z"/>
  <path d="m429.52 497.41h13.777v29.52h-13.777z"/>
  <path d="m412.79 455.1h13.777v29.52h-13.777z"/>
 </g>
</svg>