<?xml version="1.0" encoding="UTF-8"?>
<!-- The Best Svg Icon site in the world: iconSvg.co, Visit us! https://iconsvg.co -->
<svg fill="#000000" width="800px" height="800px" version="1.1" viewBox="144 144 512 512" xmlns="http://www.w3.org/2000/svg">
 <path d="m400 169.09c-127.33 0-230.91 103.59-230.91 230.91s103.59 230.91 230.91 230.91c127.34 0 230.91-103.59 230.91-230.91-0.003906-127.33-103.58-230.91-230.91-230.91zm98.219 272.46c-4.5547 10.746-10.801 20.645-18.578 29.367-18.945 21.277-45.039 33.902-73.473 35.57-2.1094 0.125-4.2188 0.1875-6.3203 0.1875-25.285 0-49.383-8.9219-68.75-25.359-5.9922 8.5664-11.523 17.477-15.996 26.91-1.0703 2.1953-3.0859 3.7266-5.4258 4.1562-0.30469 0.050781-1.0273 0.125-1.332 0.125-3.5781 0-6.6562-2.5508-7.3164-6.0781l-12.344-65.516c-0.27344-1.4492 0.0625-2.918 0.93359-4.1133 0.87109-1.1758 2.1953-1.9414 3.6523-2.0781l70.922-7.7461c3.0977 0.019531 5.2695 1.0273 6.6953 2.8438 2.5078 3.2539 1.9297 7.9453-1.2812 10.465-9.3398 7.2539-17.75 15.641-25.559 24.527 16.949 14.664 38.645 22.125 60.918 20.738 22.84-1.3125 43.789-11.461 59-28.559 6.2539-7.0117 11.273-14.945 14.926-23.574 2.2578-5.3633 8.418-7.8281 13.762-5.5742 5.3281 2.1914 7.8242 8.3633 5.5664 13.707zm12.168-78.324c-0.88281 1.1641-2.1953 1.9297-3.6641 2.0898l-71.73 7.7773c-2.2773 0-4.4727-1.082-5.8789-2.875-1.2266-1.5547-1.7617-3.5273-1.5234-5.5 0.23047-1.9727 1.2266-3.7383 2.8125-4.9648 9.332-7.2617 17.727-15.629 25.547-24.527-16.949-14.652-38.562-22.043-60.918-20.73-22.84 1.3242-43.801 11.473-59.008 28.559-6.2344 7-11.25 14.938-14.914 23.594-1.6992 4-5.582 6.3906-9.668 6.3906-1.3633 0-2.75-0.26172-4.0938-0.82812-5.332-2.2656-7.8281-8.4297-5.5742-13.77 4.5664-10.758 10.812-20.645 18.566-29.355 18.945-21.277 45.039-33.902 73.473-35.562 27.5-1.6367 54.074 7.3672 75.066 25.18 5.9844-8.5859 11.535-17.477 16.008-26.934 1.0273-2.1523 3.0234-3.6953 5.3516-4.1445 3.8086-0.70313 7.9883 2.0977 8.7344 5.9414l12.344 65.539c0.27734 1.457-0.070312 2.9453-0.92969 4.1211z"/>
</svg>