<?xml version="1.0" encoding="UTF-8"?>
<!-- The Best Svg Icon site in the world: iconSvg.co, Visit us! https://iconsvg.co -->
<svg fill="#000000" width="800px" height="800px" version="1.1" viewBox="144 144 512 512" xmlns="http://www.w3.org/2000/svg">
 <g>
  <path d="m628.29 289.79h-47.234v-47.23h15.746c2.9766 0.035156 5.7031-1.6523 7.0039-4.332 1.3516-2.6641 1.0781-5.8672-0.70703-8.2656l-47.469-62.977v0.003906c-1.5-1.9688-3.8242-3.1328-6.2969-3.1523-2.4805 0-4.8125 1.168-6.3008 3.1523l-46.996 62.977 0.003906-0.003906c-1.7891 2.3984-2.0625 5.6016-0.71094 8.2656 1.3164 2.6641 4.0352 4.3438 7.0078 4.332h15.742v47.23h-86.59v-47.23h15.742c2.9766 0.035156 5.707-1.6523 7.0078-4.332 1.3516-2.6641 1.0781-5.8672-0.71094-8.2656l-47.469-62.977v0.003906c-1.4961-1.9688-3.8242-3.1328-6.2969-3.1523-2.4766 0-4.8086 1.168-6.2969 3.1523l-46.996 62.977v-0.003906c-1.7852 2.3984-2.0625 5.6016-0.70703 8.2656 1.3164 2.6641 4.0352 4.3438 7.0039 4.332h15.742v47.23h-86.59v-47.23h15.746c2.9727 0.035156 5.7031-1.6523 7.0039-4.332 1.3516-2.6641 1.0781-5.8672-0.70703-8.2656l-47.469-62.977v0.003906c-1.5-1.9688-3.8242-3.1328-6.2969-3.1523-2.4805 0-4.8125 1.168-6.3008 3.1523l-46.996 62.977v-0.003906c-1.7852 2.3984-2.0586 5.6016-0.70703 8.2656 1.3164 2.6641 4.0352 4.3438 7.0078 4.332h15.742v47.23h-47.23c-4.3477 0-7.875 3.5273-7.875 7.875v330.62c0 2.0859 0.83203 4.0898 2.3086 5.5664 1.4766 1.4727 3.4766 2.3047 5.5664 2.3047h456.58c2.0859 0 4.0898-0.83203 5.5664-2.3047 1.4727-1.4766 2.3047-3.4805 2.3047-5.5664v-330.62c0-2.0898-0.83203-4.0938-2.3047-5.5664-1.4766-1.4766-3.4805-2.3086-5.5664-2.3086zm-110.29-62.977 31.332-41.957 31.645 41.957h-7.793c-4.3477 0-7.8711 3.5273-7.8711 7.875v55.105l-31.488-0.003907v-55.102c0-2.0898-0.83203-4.0898-2.3086-5.5664-1.4766-1.4766-3.4766-2.3086-5.5664-2.3086zm-149.57 0 31.332-41.957 31.645 41.957h-7.793c-4.3477 0-7.8711 3.5273-7.8711 7.875v55.105l-31.488-0.003907v-55.102c0-2.0898-0.82812-4.0898-2.3047-5.5664-1.4766-1.4766-3.4805-2.3086-5.5664-2.3086zm-149.57 0 31.332-41.957 31.648 41.957h-7.793c-4.3477 0-7.8711 3.5273-7.8711 7.875v55.105l-31.488-0.003907v-55.102c0-2.0898-0.83203-4.0898-2.3086-5.5664-1.4766-1.4766-3.4766-2.3086-5.5664-2.3086zm401.55 393.6h-440.83v-15.742h440.83zm0-31.488h-440.83v-15.742h440.83zm0-31.488h-440.83v-15.742h440.83zm0-31.488h-440.83v-220.41h440.83z"/>
  <path d="m392.12 392.12h15.746c2.0859 0 4.0898 0.83203 5.5664 2.3086 1.4766 1.4766 2.3047 3.4766 2.3047 5.5664 0 4.3477 3.5234 7.8711 7.8711 7.8711 4.3477 0 7.875-3.5234 7.875-7.8711 0-6.2656-2.4883-12.273-6.918-16.699-4.4297-4.4297-10.438-6.918-16.699-6.918v-7.8711c0-4.3477-3.5234-7.875-7.8711-7.875s-7.875 3.5273-7.875 7.875v7.8711c-8.4375 0-16.23 4.5-20.449 11.809-4.2188 7.3047-4.2188 16.309 0 23.613 4.2188 7.3086 12.012 11.809 20.449 11.809h15.746c4.3477 0 7.8711 3.5273 7.8711 7.875 0 4.3477-3.5234 7.8711-7.8711 7.8711h-15.746c-4.3477 0-7.8711-3.5234-7.8711-7.8711 0-4.3477-3.5234-7.875-7.8711-7.875-4.3477 0-7.8711 3.5273-7.8711 7.875 0 6.2617 2.4883 12.27 6.9141 16.699 4.4297 4.4258 10.438 6.9141 16.699 6.9141v7.875c0 4.3477 3.5273 7.8711 7.875 7.8711s7.8711-3.5234 7.8711-7.8711v-7.875c8.4375 0 16.234-4.5 20.453-11.809 4.2188-7.3047 4.2188-16.309 0-23.613-4.2188-7.3086-12.016-11.809-20.453-11.809h-15.746c-4.3477 0-7.8711-3.5234-7.8711-7.8711s3.5234-7.875 7.8711-7.875z"/>
  <path d="m400 337.02c-20.879 0-40.902 8.293-55.664 23.055-14.766 14.766-23.059 34.785-23.059 55.664 0 20.879 8.293 40.902 23.059 55.664 14.762 14.762 34.785 23.055 55.664 23.055 20.875 0 40.898-8.293 55.664-23.055 14.762-14.762 23.055-34.785 23.055-55.664-0.023438-20.871-8.3242-40.879-23.082-55.637-14.758-14.758-34.766-23.059-55.637-23.082zm0 141.7c-16.703 0-32.723-6.6367-44.531-18.445-11.812-11.809-18.445-27.828-18.445-44.531 0-16.703 6.6328-32.719 18.445-44.531 11.809-11.809 27.828-18.445 44.531-18.445 16.699 0 32.719 6.6367 44.531 18.445 11.809 11.812 18.445 27.828 18.445 44.531-0.019531 16.695-6.6602 32.703-18.469 44.512-11.805 11.805-27.812 18.445-44.508 18.465z"/>
  <path d="m604.67 344.89c-6.2656 0-12.27-2.4883-16.699-6.918-4.4297-4.4297-6.918-10.434-6.918-16.699 0-2.0859-0.82813-4.0898-2.3047-5.5664-1.4766-1.4766-3.4805-2.3047-5.5664-2.3047h-346.37c-4.3477 0-7.8711 3.5234-7.8711 7.8711 0 6.2656-2.4883 12.27-6.918 16.699-4.4258 4.4297-10.434 6.918-16.699 6.918-4.3477 0-7.8711 3.5234-7.8711 7.8711v125.95c0 2.0859 0.83203 4.0898 2.3047 5.5664 1.4766 1.4766 3.4805 2.3047 5.5664 2.3047 6.2656 0 12.273 2.4883 16.699 6.918 4.4297 4.4297 6.918 10.438 6.918 16.699 0 2.0859 0.82812 4.0898 2.3047 5.5664 1.4766 1.4766 3.4805 2.3047 5.5664 2.3047h346.37c2.0859 0 4.0898-0.82812 5.5664-2.3047 1.4766-1.4766 2.3047-3.4805 2.3047-5.5664 0-6.2617 2.4883-12.27 6.918-16.699 4.4297-4.4297 10.434-6.918 16.699-6.918 2.0859 0 4.0898-0.82812 5.5664-2.3047 1.4766-1.4766 2.3047-3.4805 2.3047-5.5664v-125.95c0-2.0859-0.82812-4.0898-2.3047-5.5664-1.4766-1.4766-3.4805-2.3047-5.5664-2.3047zm-7.8711 126.74c-7.5586 1.5547-14.496 5.293-19.953 10.75-5.457 5.457-9.1953 12.395-10.75 19.953h-332.2c-1.5547-7.5586-5.293-14.496-10.75-19.953-5.457-5.457-12.391-9.1953-19.949-10.75v-111.78c7.5586-1.5547 14.492-5.293 19.949-10.75 5.457-5.457 9.1953-12.395 10.75-19.953h332.2c1.5547 7.5586 5.293 14.496 10.75 19.953 5.457 5.457 12.395 9.1953 19.953 10.75z"/>
  <path d="m549.57 407.87h-31.488c-4.3477 0-7.8711 3.5234-7.8711 7.8711 0 4.3477 3.5234 7.8711 7.8711 7.8711h31.488c4.3477 0 7.8711-3.5234 7.8711-7.8711 0-4.3477-3.5234-7.8711-7.8711-7.8711z"/>
  <path d="m281.92 407.87h-31.488c-4.3477 0-7.8711 3.5234-7.8711 7.8711 0 4.3477 3.5234 7.8711 7.8711 7.8711h31.488c4.3477 0 7.8711-3.5234 7.8711-7.8711 0-4.3477-3.5234-7.8711-7.8711-7.8711z"/>
 </g>
</svg>