<?xml version="1.0" encoding="UTF-8"?>
<!-- The Best Svg Icon site in the world: iconSvg.co, Visit us! https://iconsvg.co -->
<svg fill="#000000" width="800px" height="800px" version="1.1" viewBox="144 144 512 512" xmlns="http://www.w3.org/2000/svg">
 <g>
  <path d="m503.98 465.98c-2.5195-0.875-5.3438-0.058593-7.0117 2.0352-0.12109 0.16016-13.055 15.93-28.863 15.93-11.371 0-17.637-3.4805-23.941-13.316l-1.6211-2.5625c-6.7109-10.672-14.324-22.766-32.812-22.766-5.8633 0-11.672 1.5508-17.023 4.5156-5.3555-2.9688-11.176-4.5156-17.035-4.5156-18.941 0-26.953 13.105-33.387 23.625l-1.1016 1.7891c-5.4062 8.7773-13.441 13.227-23.875 13.227-15.941 0-28.754-15.785-28.863-15.93-1.668-2.0977-4.4844-2.9102-7.0117-2.0352-2.5273 0.88281-4.2266 3.2656-4.2266 5.9492 0 35.207 31.75 62.785 72.281 62.785 17.773 0 32.277-4.5742 43.223-13.613 10.934 9.0391 25.438 13.613 43.211 13.613 40.535 0 72.285-27.578 72.285-62.785 0-2.6797-1.6992-5.0625-4.2266-5.9453z"/>
  <path d="m483.17 305.16c-32.762 0-60.418 22.047-69.062 52.062-6.3086-3.7031-13.613-5.8633-21.426-5.8633-7.8008 0-15.094 2.1562-21.391 5.8555-8.6445-30.016-36.301-52.055-69.059-52.055-39.656 0-71.914 32.258-71.914 71.914s32.258 71.914 71.914 71.914c38.047 0 69.199-29.719 71.672-67.152 4.0156-6.1953 10.922-10.316 18.781-10.316 7.8789 0 14.801 4.1328 18.816 10.34 2.4805 37.422 33.633 67.133 71.672 67.133 39.656 0 71.914-32.258 71.914-71.914 0-39.66-32.262-71.918-71.918-71.918zm-159.62 80.145c1.5703 1.1875 2.4883 3.043 2.4883 5.0195 0 10.879-7.3359 19.695-17.512 22.344v3.4727c0 3.4766-2.8203 6.2969-6.2969 6.2969-3.4766 0-6.2969-2.8203-6.2969-6.2969l-0.003907-3.4414c-10.055-2.5-17.508-10.711-17.508-20.535 0-3.4766 2.8203-6.2969 6.2969-6.2969 3.4766 0 6.2969 2.8203 6.2969 6.2969 0 4.8477 5.0273 8.7969 11.211 8.7969 5.4414 0 9.6367-3.1445 10.852-7.7852l-32.168-24.418c-1.5703-1.1875-2.4883-3.043-2.4883-5.0195 0-9.5859 5.5586-19.754 17.508-22.426v-3.293c0-3.4766 2.8203-6.2969 6.2969-6.2969 3.4766 0 6.2969 2.8203 6.2969 6.2969v3.4375c10.062 2.5 17.512 10.707 17.512 20.531 0 3.4766-2.8203 6.2969-6.2969 6.2969s-6.2969-2.8203-6.2969-6.2969c0-4.8477-5.0273-8.793-11.215-8.793-7.6562 0-10.117 4.3789-10.879 7.668zm180.94 0c1.5703 1.1875 2.4883 3.043 2.4883 5.0195 0 10.879-7.3359 19.695-17.512 22.344v3.4727c0 3.4766-2.8203 6.2969-6.2969 6.2969-3.4766 0-6.2969-2.8203-6.2969-6.2969v-3.4414c-10.055-2.5-17.508-10.711-17.508-20.535 0-3.4766 2.8203-6.2969 6.2969-6.2969 3.4766 0 6.2969 2.8203 6.2969 6.2969 0 4.8477 5.0273 8.7969 11.211 8.7969 5.4414 0 9.6367-3.1445 10.852-7.7852l-32.168-24.418c-1.5703-1.1875-2.4883-3.043-2.4883-5.0195 0-9.5859 5.5586-19.754 17.508-22.426v-3.293c0-3.4766 2.8203-6.2969 6.2969-6.2969 3.4766 0 6.2969 2.8203 6.2969 6.2969v3.4375c10.062 2.5 17.512 10.707 17.512 20.531 0 3.4766-2.8203 6.2969-6.2969 6.2969-3.4766 0-6.2969-2.8203-6.2969-6.2969 0-4.8477-5.0273-8.793-11.215-8.793-7.6562 0-10.117 4.3789-10.879 7.668z"/>
 </g>
</svg>