<?xml version="1.0" encoding="UTF-8"?>
<!-- The Best Svg Icon site in the world: iconSvg.co, Visit us! https://iconsvg.co -->
<svg fill="#000000" width="800px" height="800px" version="1.1" viewBox="144 144 512 512" xmlns="http://www.w3.org/2000/svg">
 <g>
  <path d="m518.08 502.34h15.746c2.0859 0 4.0898 0.82812 5.5664 2.3047s2.3047 3.4766 2.3047 5.5664c0 4.3477 3.5234 7.8711 7.8711 7.8711s7.8711-3.5234 7.8711-7.8711c0-6.2617-2.4883-12.27-6.9141-16.699-4.4297-4.4297-10.438-6.918-16.699-6.918v-7.8711c0-4.3477-3.5273-7.8711-7.875-7.8711-4.3477 0-7.8711 3.5234-7.8711 7.8711v7.8711c-8.4375 0-16.234 4.5039-20.453 11.809-4.2188 7.3086-4.2188 16.309 0 23.617 4.2188 7.3047 12.016 11.809 20.453 11.809h15.746c4.3477 0 7.8711 3.5234 7.8711 7.8711 0 4.3477-3.5234 7.8711-7.8711 7.8711h-15.746c-4.3477 0-7.8711-3.5234-7.8711-7.8711 0-4.3477-3.5234-7.8711-7.8711-7.8711-4.3477 0-7.875 3.5234-7.875 7.8711 0 6.2617 2.4883 12.27 6.918 16.699 4.4297 4.4297 10.438 6.918 16.699 6.918v7.8711c0 4.3477 3.5234 7.8711 7.8711 7.8711 4.3477 0 7.875-3.5234 7.875-7.8711v-7.8711c8.4375 0 16.23-4.5039 20.449-11.809 4.2188-7.3086 4.2188-16.309 0-23.617-4.2188-7.3086-12.012-11.809-20.449-11.809h-15.746c-4.3477 0-7.8711-3.5234-7.8711-7.8711 0-4.3477 3.5234-7.8711 7.8711-7.8711z"/>
  <path d="m525.95 447.23c-20.875 0-40.898 8.293-55.66 23.059-14.766 14.762-23.059 34.785-23.059 55.66 0 20.879 8.293 40.902 23.059 55.664 14.762 14.766 34.785 23.059 55.66 23.059 20.879 0 40.902-8.293 55.664-23.059 14.766-14.762 23.059-34.785 23.059-55.664-0.023437-20.871-8.3242-40.879-23.082-55.637-14.758-14.758-34.77-23.059-55.641-23.082zm0 141.7c-16.699 0-32.719-6.6328-44.527-18.445-11.812-11.809-18.445-27.828-18.445-44.531 0-16.699 6.6328-32.719 18.445-44.527 11.809-11.812 27.828-18.445 44.527-18.445 16.703 0 32.723 6.6328 44.531 18.445 11.812 11.809 18.445 27.828 18.445 44.527-0.015625 16.699-6.6602 32.707-18.465 44.512-11.805 11.805-27.812 18.449-44.512 18.465z"/>
  <path d="m586.76 434.12c6.6172-24.609 9.9883-49.973 10.039-75.453v-123.98c0-3.3906-2.1719-6.4023-5.3867-7.4727l-188.93-62.977c-1.6133-0.53516-3.3594-0.53516-4.9727 0l-188.93 62.977c-3.2148 1.0703-5.3867 4.082-5.3828 7.4727v123.98c-0.19141 54.137 14.789 107.25 43.25 153.3 28.457 46.055 69.25 83.215 117.75 107.26l32.273 16.137h0.003907c2.2148 1.1094 4.8203 1.1094 7.0352 0l32.273-16.129c5.9844-2.9609 12.004-6.3438 18.16-10.02h0.003906c23.016 19.883 53.234 29.363 83.488 26.184 30.25-3.1797 57.84-18.73 76.219-42.965 18.383-24.234 25.922-54.992 20.824-84.98-5.0938-29.988-22.367-56.535-47.723-73.336zm-158.01 170.99-28.754 14.371-28.758-14.375v0.003906c-45.875-22.75-84.461-57.895-111.38-101.45-26.918-43.555-41.094-93.785-40.922-144.99v-118.31l181.06-60.355 181.05 60.355v118.31c-0.054688 22.777-2.918 45.465-8.5312 67.539-9.5469-4.4727-19.695-7.5352-30.121-9.0977 4.7109-19.125 7.1133-38.746 7.1641-58.441v-89.98c0-3.3867-2.168-6.3984-5.3828-7.4688l-141.7-47.23h-0.003906c-1.6133-0.53906-3.3594-0.53906-4.9727 0l-141.7 47.23c-3.2188 1.0703-5.3867 4.082-5.3867 7.4688v89.98c-0.16406 45.348 12.383 89.836 36.223 128.41 23.84 38.578 58.016 69.699 98.648 89.836l11.18 5.5898c2.2148 1.1055 4.8203 1.1055 7.0352 0l11.219-5.6133c3.8828-1.9688 7.4297-3.8828 10.801-5.7773 4.3398 9.6172 10.039 18.562 16.926 26.559-4.6133 2.668-9.1719 5.1875-13.707 7.4336zm-13.012-79.164c0.023437 10.199 1.4688 20.344 4.2891 30.145-3.7773 2.1953-7.7461 4.4023-12.375 6.7461l-7.6562 3.8242-7.6602-3.8242c-38.012-18.836-69.984-47.953-92.285-84.039-22.301-36.09-34.039-77.707-33.879-120.13v-84.305l133.82-44.609 133.82 44.609v84.305c-0.046875 19.254-2.5 38.426-7.2969 57.07h-0.57422-0.003906c-29.219 0.03125-57.23 11.652-77.895 32.312-20.66 20.664-32.281 48.676-32.312 77.895zm110.21 94.465c-25.051 0-49.078-9.9531-66.793-27.668-17.719-17.715-27.668-41.742-27.668-66.797 0-25.051 9.9492-49.078 27.668-66.793 17.715-17.719 41.742-27.668 66.793-27.668 25.055 0 49.082 9.9492 66.797 27.668 17.715 17.715 27.668 41.742 27.668 66.793-0.027343 25.047-9.9883 49.059-27.695 66.77-17.711 17.707-41.723 27.668-66.77 27.695z"/>
  <path d="m384.25 455.1c-2.0859 0-4.0898-0.82812-5.5664-2.3047l-66.793-66.793c-3.0742-3.0742-3.0742-8.0586 0-11.133l22.262-22.27c3.0742-3.0742 8.0586-3.0742 11.133 0l38.965 38.965 88.105-88.102c3.0742-3.0742 8.0547-3.0742 11.129 0l22.27 22.262c3.0742 3.0742 3.0742 8.0547 0 11.129l-115.94 115.94c-1.4766 1.4766-3.4766 2.3047-5.5664 2.3047zm-55.664-74.668 55.664 55.668 104.81-104.81-11.133-11.133-88.109 88.105c-3.0742 3.0703-8.0586 3.0703-11.133 0l-38.965-38.969z"/>
 </g>
</svg>