<?xml version="1.0" encoding="UTF-8"?>
<!-- The Best Svg Icon site in the world: iconSvg.co, Visit us! https://iconsvg.co -->
<svg fill="#000000" width="800px" height="800px" version="1.1" viewBox="144 144 512 512" xmlns="http://www.w3.org/2000/svg">
 <g>
  <path d="m258.3 591.92 17.16 8.582h0.003906c5.4688 2.7539 11.508 4.1836 17.633 4.1719h117.84c6.9102 0.003906 13.699-1.8125 19.68-5.2734l132.25-76.359c3.5938-2.1055 6.2109-5.5469 7.2734-9.5742s0.48438-8.3125-1.6055-11.918c-2.125-3.5469-5.5469-6.1328-9.543-7.2031-3.9961-1.0742-8.2539-0.55078-11.871 1.457l-79.27 45.738c0.30078 3.5625 0.007812 7.1562-0.86719 10.625-2.1484 8.0898-7.4531 14.98-14.719 19.129-4.75 2.793-10.16 4.2578-15.668 4.25-2.7617-0.011719-5.5156-0.38281-8.1836-1.1016l-93.914-25.109c-4.2188-1.1328-6.7188-5.4648-5.5898-9.6836 1.1289-4.2188 5.4648-6.7188 9.6836-5.5898l93.914 25.191c4.0117 1.1094 8.3008 0.53906 11.887-1.5742 3.6406-2.0625 6.3086-5.4961 7.4062-9.5352 1.0977-4.043 0.53125-8.3516-1.5703-11.973-2.1016-3.6211-5.5625-6.2539-9.6172-7.3047l-117.45-31.488c-6.4648-1.7422-13.27-1.7969-19.758-0.15625l-45.109 11.258z"/>
  <path d="m226.81 494.46h15.742v110.21h-15.742z"/>
  <path d="m179.58 478.72h31.488v141.7h-31.488z"/>
  <path d="m397.09 321.28h-7.6367c-5.1523 0.082031-10.23-1.25-14.684-3.8438s-8.1133-6.3555-10.586-10.875c-22.91-3.7969-46.23 3.8477-62.453 20.465-16.219 16.621-23.293 40.121-18.945 62.934 4.3516 22.812 19.578 42.059 40.777 51.543 21.199 9.4844 45.695 8.0078 65.602-3.9531s32.711-32.898 34.289-56.066c1.582-23.172-8.2656-45.652-26.363-60.203zm-52.191 47.234h15.742c8.4375 0 16.234 4.5 20.453 11.809 4.2188 7.3047 4.2188 16.309 0 23.613-4.2188 7.3086-12.016 11.809-20.453 11.809v7.8711c0 4.3477-3.5234 7.875-7.8711 7.875s-7.8711-3.5273-7.8711-7.875v-7.8711c-6.2617 0-12.27-2.4883-16.699-6.918-4.4297-4.4258-6.918-10.434-6.918-16.699 0-4.3477 3.5234-7.8711 7.8711-7.8711 4.3477 0 7.875 3.5234 7.875 7.8711 0 2.0898 0.82812 4.0898 2.3047 5.5664 1.4766 1.4766 3.4766 2.3086 5.5664 2.3086h15.742c4.3477 0 7.875-3.5273 7.875-7.875s-3.5273-7.8711-7.875-7.8711h-15.742c-8.4375 0-16.234-4.5-20.453-11.809-4.2188-7.3047-4.2188-16.309 0-23.613 4.2188-7.3086 12.016-11.809 20.453-11.809v-7.875c0-4.3477 3.5234-7.8711 7.8711-7.8711s7.8711 3.5234 7.8711 7.8711v7.875c6.2656 0 12.273 2.4883 16.699 6.9141 4.4297 4.4297 6.918 10.438 6.918 16.699 0 4.3477-3.5234 7.875-7.8711 7.875-4.3477 0-7.8711-3.5273-7.8711-7.875 0-2.0859-0.83203-4.0898-2.3086-5.5664-1.4766-1.4727-3.4766-2.3047-5.5664-2.3047h-15.742c-4.3477 0-7.8711 3.5234-7.8711 7.8711 0 4.3477 3.5234 7.875 7.8711 7.875z"/>
  <path d="m588.93 211.07h31.488v141.7h-31.488z"/>
  <path d="m557.44 226.81h15.742v110.21h-15.742z"/>
  <path d="m541.7 329.15v-89.582l-17.16-8.6602c-5.4961-2.668-11.523-4.0664-17.633-4.0938h-117.85c-6.9062 0.003906-13.695 1.8242-19.68 5.2773l-132.25 76.359v-0.003907c-3.5938 2.1055-6.2109 5.5469-7.2734 9.5742-1.0625 4.0312-0.48437 8.3164 1.6055 11.918 2.1289 3.5508 5.5508 6.1328 9.543 7.2031 3.9961 1.0742 8.2539 0.55078 11.871-1.457l44.16-25.504c15.594-13.152 35.336-20.375 55.734-20.391 2.7539 0 5.4336 0.15625 8.1875 0.39453 0.78516-6.6523 4-12.785 9.0273-17.215 5.0234-4.4297 11.512-6.8516 18.211-6.793h74.785c4.3477 0 7.8711 3.5234 7.8711 7.8711s-3.5234 7.8711-7.8711 7.8711h-74.785c-6.2422 0.019531-11.402 4.8711-11.809 11.102-0.14453 3.0469 0.99609 6.0195 3.1484 8.1836 2.5742 2.7422 6.1602 4.3086 9.918 4.332h42.039c2.7812-0.015625 5.3633 1.4531 6.7695 3.8555l9.8398 16.375c7.1367 11.844 19.941 19.098 33.77 19.129h8.7383c10.449 0.039063 20.484-4.0977 27.867-11.492l1.8906-1.9688c1.5-1.4492 3.5-2.2695 5.5859-2.2852z"/>
 </g>
</svg>