<?xml version="1.0" encoding="UTF-8"?>
<!-- The Best Svg Icon site in the world: iconSvg.co, Visit us! https://iconsvg.co -->
<svg fill="#000000" width="800px" height="800px" version="1.1" viewBox="144 144 512 512" xmlns="http://www.w3.org/2000/svg">
 <g>
  <path d="m396.11 417.04c-9.4727 0-18.559-3.7656-25.258-10.461-6.6992-6.6992-10.461-15.781-10.465-25.254 0-9.4727 3.7617-18.559 10.457-25.258 6.6953-6.6992 15.777-10.465 25.25-10.469 9.4727-0.003906 18.559 3.7578 25.262 10.453 6.6992 6.6914 10.465 15.777 10.473 25.246 0.10938 2.3242 2.0273 4.1523 4.3516 4.1523 2.3281 0 4.2461-1.8281 4.3555-4.1523-0.011718-11.023-4.1211-21.648-11.523-29.816s-17.574-13.297-28.543-14.395v-17.781c0.054688-1.1875-0.37891-2.3516-1.2031-3.2148-0.82031-0.86328-1.9609-1.3516-3.1523-1.3516-1.1914 0-2.332 0.48828-3.1562 1.3516-0.82031 0.86328-1.2539 2.0273-1.1992 3.2148v17.812c-15.297 1.4805-28.742 10.762-35.547 24.543-6.8047 13.777-6.0039 30.094 2.1172 43.141 8.1211 13.047 22.41 20.969 37.781 20.945 12.285-0.007812 24.074 4.8672 32.77 13.551 8.6914 8.6836 13.578 20.469 13.586 32.758 0.003906 12.285-4.8711 24.074-13.559 32.766-8.6875 8.6914-20.473 13.578-32.758 13.578-12.289 0.003906-24.074-4.875-32.766-13.562-8.6914-8.6914-13.574-20.477-13.574-32.762 0.058594-1.1914-0.375-2.3555-1.1992-3.2148-0.82031-0.86328-1.9609-1.3516-3.1523-1.3516-1.1914 0-2.332 0.48828-3.1562 1.3516-0.82031 0.85938-1.2539 2.0234-1.1992 3.2148 0.015625 13.832 5.2344 27.152 14.621 37.316 9.3828 10.164 22.246 16.426 36.035 17.539v17.715c-0.054688 1.1875 0.37891 2.3516 1.1992 3.2148 0.82422 0.86328 1.9648 1.3516 3.1562 1.3516 1.1914 0 2.332-0.48828 3.1523-1.3516 0.82422-0.86328 1.2578-2.0273 1.2031-3.2148v-17.715c19.098-1.4922 36.047-12.809 44.742-29.879 8.6953-17.07 7.8867-37.434-2.1328-53.762-10.023-16.328-27.812-26.266-46.969-26.242z"/>
  <path d="m577.47 259.73h-83.012v-27.012c-0.007813-10.777-4.293-21.113-11.914-28.734-7.6211-7.6172-17.957-11.906-28.734-11.914h-107.67c-10.77 0.019532-21.094 4.3086-28.707 11.93s-11.895 17.945-11.902 28.719v27.059h-83.012c-11.938 0.015625-23.379 4.7656-31.82 13.207-8.4375 8.4414-13.184 19.887-13.199 31.82v258.2c0.015625 11.938 4.7617 23.379 13.203 31.82 8.4375 8.4375 19.883 13.184 31.816 13.199h354.95c11.938-0.015625 23.379-4.7617 31.82-13.199 8.4375-8.4414 13.184-19.883 13.199-31.82v-258.25c-0.015626-11.938-4.7617-23.383-13.199-31.824-8.4414-8.4414-19.883-13.188-31.82-13.203zm33.34 254.3-1.3398 0.11719-0.81641 0.070312-2.1172 0.24609-0.5625 0.078125-1.5547 0.21484-0.86719 0.14844-1.2383 0.20703-0.92578 0.16797-1.1719 0.22656-0.98438 0.19531-1.1328 0.24609-0.98437 0.22656-1.1016 0.27734-0.98438 0.24609-1.0938 0.29688-0.98438 0.27734-1.082 0.31641-0.92578 0.29688-1.082 0.35547-0.90625 0.30469c-0.35547 0.12891-0.71875 0.24609-1.0742 0.38281l-0.88672 0.31641-1.082 0.41406-0.85547 0.34375-1.0938 0.44141-0.82812 0.34375-1.1016 0.48047-0.79688 0.35547-1.1211 0.53125-0.74609 0.35547-1.1602 0.57031-0.6875 0.35547-1.2383 0.64844-0.58203 0.31641c-0.48047 0.25391-0.98438 0.53125-1.4258 0.79688l-0.36328 0.20703c-1.2109 0.69922-2.4023 1.418-3.5703 2.1758l-0.11719 0.070312c-0.54297 0.35547-1.0742 0.69922-1.6055 1.0625l-0.38281 0.26562-1.3086 0.90625c-0.15625 0.11719-0.31641 0.23438-0.48047 0.34375l-1.1797 0.86719-0.53125 0.40234-1.1016 0.84766-0.55078 0.44141-1.0547 0.84766-0.5625 0.46094-0.98438 0.86719-0.55078 0.47266-0.98438 0.88672-0.53125 0.49219c-0.33594 0.30469-0.66016 0.60156-0.98438 0.91406l-0.52344 0.49219-2.4688 2.4688-0.47266 0.5c-0.32422 0.33594-0.64062 0.67969-0.98438 0.98438l-0.44141 0.48047c-0.32422 0.35547-0.64062 0.71875-0.98438 1.0742l-0.40234 0.46094c-0.33594 0.38672-0.66406 0.76953-0.98438 1.1523l-0.35547 0.42188c-0.34375 0.41406-0.6875 0.84766-0.98438 1.2695l-0.26562 0.32422c-0.38281 0.49219-0.76562 0.98438-1.1406 1.4961l-0.10938 0.13672c-1.25 1.6719-2.4492 3.3945-3.582 5.1641l-0.078125 0.12891c-0.34375 0.53125-0.67969 1.0742-0.98438 1.6133l-0.21484 0.375c-0.28516 0.46094-0.5625 0.93359-0.83594 1.3984l-0.27734 0.5c-0.24609 0.43359-0.49219 0.86719-0.72656 1.3008l-0.31641 0.58203c-0.21484 0.41406-0.44141 0.82812-0.66016 1.25l-0.31641 0.62891c-0.20703 0.40234-0.41406 0.80859-0.60938 1.2188l-0.32422 0.66797-0.5625 1.1992c-0.10938 0.23437-0.21484 0.47266-0.31641 0.70703-0.17578 0.39453-0.35547 0.79688-0.52344 1.1914s-0.21484 0.49219-0.31641 0.73828c-0.097656 0.24609-0.32422 0.78906-0.48047 1.1797-0.15625 0.39453-0.20703 0.51172-0.30469 0.76562-0.097657 0.25391-0.30469 0.78906-0.45312 1.1797-0.14844 0.39453-0.1875 0.52344-0.28516 0.77734-0.14844 0.40234-0.28516 0.79688-0.42188 1.1914l-0.26562 0.79688c-0.13672 0.39453-0.26563 0.79688-0.39453 1.1992s-0.17578 0.53125-0.25391 0.80859-0.24609 0.79688-0.36328 1.1992l-0.23438 0.81641-0.32422 1.2188c-0.078125 0.27734-0.15625 0.55078-0.22656 0.82812-0.070312 0.27734-0.20703 0.83594-0.30469 1.25-0.058594 0.26562-0.12891 0.54297-0.19531 0.80859-0.097656 0.44141-0.19531 0.89453-0.28516 1.3477-0.058594 0.23438-0.10938 0.48047-0.15625 0.72656-0.11719 0.57031-0.22656 1.1523-0.33594 1.7305-0.058594 0.30469-0.10938 0.62109-0.16797 0.92578-0.089844 0.5-0.16797 0.98438-0.24609 1.5039-0.058594 0.33594-0.097656 0.67969-0.14844 0.98438-0.050781 0.30469-0.10938 0.72656-0.15625 1.1016-0.050781 0.375-0.089844 0.73828-0.12891 1.1016l-0.11719 0.98438c0 0.38281-0.070313 0.76562-0.10938 1.1523l-0.089844 0.98438c0 0.40234-0.058594 0.79688-0.078125 1.1992s-0.050781 0.64062-0.058593 0.98438c-0.011719 0.34375 0 0.81641-0.058594 1.2305v0.64062l-260.2-0.003906v-0.64063c0-0.41406 0-0.81641-0.058594-1.2305-0.058594-0.41406 0-0.64062-0.058594-0.98438-0.058593-0.34375 0-0.79688-0.078125-1.1992l-0.089844-0.98438c0-0.38281-0.070312-0.76562-0.10937-1.1523l-0.11719-0.98438c0-0.36328-0.089844-0.73828-0.12891-1.1016-0.039063-0.36328-0.10938-0.73828-0.15625-1.1016-0.050782-0.36328-0.089844-0.67969-0.14844-0.98438-0.078125-0.5-0.15625-0.98438-0.24609-1.5039-0.058593-0.30469-0.10937-0.62109-0.16797-0.92578-0.10938-0.58203-0.21484-1.1602-0.33594-1.7305 0-0.24609-0.097656-0.49219-0.15625-0.72656-0.089844-0.45313-0.1875-0.90625-0.28516-1.3477-0.070312-0.26562-0.13672-0.54297-0.19531-0.80859-0.097657-0.41406-0.19531-0.83594-0.30469-1.25-0.10938-0.41406-0.14844-0.55078-0.22656-0.82813l-0.32422-1.2188-0.23438-0.81641c-0.11719-0.40234-0.23438-0.79688-0.36328-1.1992-0.12891-0.40234-0.16797-0.54297-0.25391-0.80859-0.089844-0.26562-0.25391-0.80859-0.39453-1.1992l-0.26562-0.79688c-0.13672-0.39453-0.27734-0.78906-0.42188-1.1914-0.097656-0.25391-0.1875-0.52344-0.28516-0.77734-0.097657-0.25391-0.29688-0.78906-0.45312-1.1797-0.15625-0.39453-0.19531-0.51172-0.30469-0.76562-0.10938-0.25391-0.31641-0.78906-0.48047-1.1797-0.16797-0.39453-0.20703-0.49219-0.31641-0.73828-0.10938-0.24609-0.34375-0.79688-0.52344-1.1914-0.097656-0.23437-0.20703-0.47266-0.31641-0.70703l-0.5625-1.1992-0.32422-0.66797c-0.19531-0.41406-0.40234-0.81641-0.60938-1.2188-0.097656-0.20703-0.20703-0.42188-0.31641-0.62891-0.21484-0.42188-0.44141-0.83594-0.66016-1.25l-0.31641-0.58203c-0.23438-0.43359-0.48047-0.86719-0.72656-1.3008l-0.27734-0.5c-0.27734-0.46094-0.55078-0.98438-0.83594-1.3984l-0.21484-0.375c-0.33594-0.54297-0.66797-1.082-0.98438-1.6133l-0.078124-0.12891c-1.1328-1.7695-2.332-3.4922-3.582-5.1641l-0.10938-0.13672c-0.375-0.5-0.75781-0.98438-1.1406-1.4961l-0.26562-0.32422c-0.33594-0.42188-0.67969-0.85547-0.98438-1.2695l-0.35547-0.42188c-0.31641-0.37891-0.64453-0.76562-0.98438-1.1523l-0.40234-0.46094c-0.31641-0.35547-0.62891-0.71875-0.98438-1.0742l-0.44141-0.48047c-0.31641-0.34375-0.62891-0.6875-0.98438-0.98438l-0.47266-0.5-2.4688-2.4688-0.52344-0.49219c-0.32422-0.31641-0.64844-0.60938-0.98438-0.91406l-0.53125-0.49219-0.98438-0.88672-0.55078-0.47266-0.98438-0.86719-0.5625-0.46094-1.0547-0.84766-0.55078-0.44141-1.1016-0.84766-0.53125-0.40234-1.1797-0.86719c-0.16797-0.10938-0.32422-0.22656-0.48047-0.34375l-1.3086-0.90625-0.38281-0.26562c-0.53125-0.36328-1.0625-0.70703-1.6055-1.0625l-0.11719-0.070313c-1.1719-0.75781-2.3633-1.4766-3.5703-2.1758l-0.36328-0.20703-1.4258-0.79688-0.58203-0.31641c-0.41406-0.21484-0.82812-0.44141-1.2383-0.64844l-0.6875-0.35547-1.1602-0.57031-0.74609-0.35547-1.1211-0.53125-0.79688-0.35547-1.1016-0.48047-0.82812-0.34375-1.125-0.39844-0.85547-0.34375-1.082-0.41406-0.88672-0.31641c-0.35547-0.13672-0.71875-0.25391-1.0742-0.38281l-0.90625-0.30469-1.082-0.35547-0.92578-0.29688-1.082-0.31641-0.93359-0.27734-1.0938-0.29687-0.98438-0.24609-1.1016-0.27734-0.98438-0.22656-1.1328-0.24609-0.93359-0.19531-1.1719-0.22656-0.92578-0.16797-1.2383-0.20703-0.86719-0.14844-1.5547-0.21484-0.5625-0.078126-1.9922-0.28516-0.81641-0.070312-1.3398-0.11719-0.92578-0.070312-1.082-0.070313v-161.93h0.23438c1.3086-0.070312 2.6094-0.16797 3.9375-0.30469 1.3086-0.13672 2.6094-0.30469 3.9375-0.49219h0.24609c1.2383-0.1875 2.4688-0.40234 3.6914-0.64062l0.41406-0.078125c1.1797-0.23438 2.3633-0.5 3.5312-0.78906l0.48047-0.11719c1.1602-0.29688 2.3008-0.60156 3.4453-0.93359l0.48047-0.14844c1.1406-0.34375 2.2734-0.70703 3.3867-1.0938l0.43359-0.15625c1.1406-0.39453 2.2617-0.81641 3.3867-1.2578l0.30469-0.12891c1.1602-0.47266 2.3008-0.98438 3.4336-1.4648l0.078126-0.050781c1.1797-0.53125 2.332-1.0938 3.4844-1.6719 1.1133-0.57031 2.2031-1.1602 3.2969-1.7812l0.24609-0.13672c1.043-0.60156 2.0781-1.2188 3.0898-1.8516l0.35547-0.22656c0.98438-0.62891 1.9688-1.2773 2.9531-1.9688l0.375-0.25391c0.98438-0.66797 1.9102-1.3594 2.832-2.0664l0.35547-0.27734c0.98438-0.71875 1.8594-1.457 2.7656-2.2148l-0.007813 0.003907c0.097657-0.070313 0.1875-0.14844 0.27734-0.22656 0.98438-0.78906 1.8516-1.5859 2.7461-2.4023l0.12891-0.11719c1.8711-1.7109 3.6602-3.5039 5.3711-5.3711l0.11719-0.12891c0.81641-0.89453 1.6133-1.8125 2.4023-2.7461l0.22656-0.26562c0.75391-0.91016 1.4922-1.8359 2.2148-2.7734l0.26562-0.34375c0.70703-0.98438 1.3984-1.8789 2.0781-2.8438l0.25391-0.375c0.66797-0.98438 1.3203-1.9688 1.9688-2.9531l0.21484-0.34375c0.64062-0.98437 1.2578-2.0469 1.8594-3.0898 0-0.089844 0.089844-0.16797 0.13672-0.25391 0.60938-1.082 1.2109-2.1836 1.7812-3.2969 0.58984-1.1523 1.1523-2.3203 1.6914-3.4922v-0.078125c0.52344-1.1328 0.98438-2.2812 1.4766-3.4336l0.11719-0.30469c0.45312-1.1133 0.86719-2.2422 1.2695-3.3867l0.14844-0.42188c0.39453-1.1211 0.75781-2.2539 1.1016-3.3945 0-0.15625 0.097656-0.31641 0.13672-0.48047 0.34375-1.1406 0.64844-2.2812 0.98438-3.4453l0.11719-0.47266c0.28516-1.1719 0.55078-2.3516 0.78906-3.543 0-0.13672 0-0.27734 0.078125-0.41406 0.23438-1.2188 0.45312-2.4492 0.64062-3.6914v-0.23438c0.1875-1.3008 0.35547-2.5977 0.49219-3.9375 0.12891-1.3008 0.22656-2.5977 0.30469-3.9375v-0.22656h260.46v0.22656c0.078125 1.3086 0.17578 2.6094 0.30469 3.9375 0.13672 1.3086 0.30469 2.6094 0.49219 3.9375v-0.003907c-0.003906 0.078126-0.003906 0.15625 0 0.23828 0.1875 1.2383 0.40234 2.4688 0.64062 3.6914 0 0.13672 0.050781 0.27734 0.078125 0.41406 0.23438 1.1914 0.5 2.3711 0.78906 3.543l0.11719 0.47266c0.29688 1.1602 0.60156 2.3008 0.98438 3.4453 0 0.16797 0.089844 0.32422 0.13672 0.48047 0.34375 1.1406 0.70703 2.2734 1.1016 3.3945l0.14844 0.42188c0.39453 1.1406 0.81641 2.2734 1.2695 3.3867l0.11719 0.30469c0.47266 1.1523 0.98437 2.3008 1.4766 3.4336v0.078125c0.54297 1.1719 1.1016 2.3438 1.6914 3.4922 0.57031 1.1133 1.1719 2.2148 1.7812 3.2969 0.050782 0.089844 0.097656 0.16797 0.13672 0.25391 0.60156 1.043 1.2188 2.0664 1.8594 3.0898l0.21484 0.34375c0.62891 0.98438 1.2773 1.9688 1.9688 2.9531l0.25391 0.375c0.66797 0.98437 1.3672 1.9102 2.0781 2.8438l0.26562 0.34375c0.71484 0.92969 1.4531 1.8555 2.2148 2.7734l0.22656 0.26562c0.78906 0.93359 1.5859 1.8516 2.4023 2.7461l0.11719 0.12891c1.7109 1.8711 3.5039 3.6602 5.3711 5.3711l0.12891 0.11719c0.89453 0.81641 1.8125 1.6133 2.7461 2.4023 0.089844 0.078125 0.17969 0.15625 0.27734 0.22656 0.90625 0.75781 1.832 1.4961 2.7656 2.2148l0.35547 0.27734c0.92578 0.70703 1.8789 1.3984 2.832 2.0664l0.375 0.25391c0.98438 0.66797 1.9688 1.3203 2.9531 1.9688l0.35547 0.22656c0.98438 0.62891 2.0469 1.25 3.0898 1.8516l0.24609 0.13672c1.0938 0.62109 2.1836 1.2109 3.2969 1.7812 1.1523 0.58203 2.3008 1.1406 3.4844 1.6719l0.078125 0.050782c1.1328 0.51172 2.2734 0.98437 3.4336 1.4648l0.30469 0.12891c1.1211 0.44141 2.2422 0.86719 3.3867 1.2578l0.43359 0.15625c1.1133 0.38281 2.2422 0.74609 3.3867 1.0938l0.48047 0.14844c1.1406 0.33594 2.2812 0.64062 3.4453 0.93359l0.48047 0.11719c1.1719 0.28516 2.3516 0.55078 3.5312 0.78906l0.41406 0.078125c1.2188 0.23438 2.4492 0.45312 3.6914 0.64062h0.24609c1.2891 0.1875 2.5898 0.35547 3.9375 0.49219 1.2891 0.13672 2.5898 0.23438 3.9375 0.30469h0.23438l-0.007812 161.93-1.082 0.070312zm-156.12-254.3h-109.38v-18.02c0-6.8867 5.293-12.488 11.809-12.488h85.766c6.5156 0 11.809 5.5977 11.809 12.488zm158.13 45.027v37.52h-0.38281c-0.98438-0.070313-2.0156-0.14844-3.0195-0.25391l-0.62891-0.070313c-1.0234-0.11719-2.0469-0.25391-3.0703-0.41406l-0.44141-0.070312c-0.98438-0.16797-2.0156-0.34375-3.0195-0.54297l-0.28516-0.058593c-1.0312-0.21484-2.0547-0.45313-3.0703-0.69922l-0.49219-0.12891c-0.98438-0.24609-1.9688-0.52344-2.9531-0.80859l-0.58984-0.17578c-0.98438-0.28516-1.8789-0.58984-2.8125-0.91406l-0.58984-0.21484c-0.93359-0.32422-1.8516-0.67969-2.7539-1.043l-0.5625-0.22656c-0.92578-0.37891-1.8398-0.77344-2.7461-1.1797l-0.45313-0.21484c-0.93359-0.43359-1.8594-0.88672-2.7734-1.3477l-0.25391-0.13672c-0.89453-0.46094-1.7812-0.98438-2.6484-1.4453l-0.003906-0.003906c-0.10547-0.050781-0.20703-0.10547-0.30469-0.16797-0.88672-0.5-1.75-1.0312-2.6094-1.5664l-0.44141-0.28516c-0.82812-0.52344-1.6445-1.0742-2.4492-1.625l-0.49219-0.34375c-0.79688-0.5625-1.5742-1.1328-2.3516-1.7109l-0.48047-0.375c-0.76562-0.58984-1.5352-1.1992-2.2734-1.8203l-0.43359-0.36328c-0.75781-0.64844-1.5039-1.3008-2.2422-1.9688l-0.31641-0.29687c-0.74609-0.67969-1.4766-1.3789-2.1953-2.0977l-0.17578-0.17578c-0.70703-0.70703-1.4062-1.4453-2.0977-2.1836l-0.29688-0.32422c-0.66797-0.72656-1.3203-1.4766-1.9688-2.2344-0.12891-0.14844-0.24609-0.29687-0.375-0.43359-0.62109-0.74609-1.2188-1.5039-1.8125-2.2734l-0.38281-0.49219c-0.58203-0.76562-1.1523-1.5547-1.7031-2.3438l-0.35547-0.5c-0.55078-0.80859-1.0938-1.6133-1.625-2.4414-0.097656-0.14844-0.1875-0.30469-0.28516-0.46094-0.53125-0.84766-1.0625-1.7109-1.5664-2.5898l-0.17578-0.32422c-0.49219-0.85547-0.98438-1.7305-1.4258-2.6172l-0.14844-0.27734c-0.46094-0.90625-0.90625-1.832-1.3398-2.7539-0.070312-0.15625-0.14844-0.31641-0.22656-0.48047-0.40234-0.89453-0.79688-1.8008-1.1719-2.7148l-0.23438-0.58203c-0.36328-0.90625-0.70703-1.8125-1.043-2.7344l-0.21484-0.62109c-0.32422-0.92578-0.62891-1.8594-0.91406-2.793l-0.17578-0.60156c-0.28516-0.98438-0.5625-1.9688-0.80859-2.9023 0-0.16797-0.078125-0.33594-0.12891-0.5-0.24609-0.98437-0.48047-2.0273-0.6875-3.0391 0-0.10938 0-0.21484-0.070313-0.32422-0.19531-0.98438-0.375-1.9688-0.54297-2.9531 0-0.14844-0.050781-0.29688-0.070312-0.45312-0.15625-1.0156-0.29688-2.0391-0.41406-3.0703 0-0.20703-0.050781-0.41406-0.070312-0.62109-0.10938-0.98438-0.1875-1.9688-0.25391-3.0195v-0.38281h37.531c9.3594 0.015625 18.332 3.7305 24.961 10.34 6.6289 6.6055 10.371 15.57 10.414 24.93zm-297.65-72.039c0.007812-8.2148 3.2734-16.09 9.082-21.895 5.8047-5.8086 13.68-9.0742 21.895-9.082h107.71c8.2148 0.007812 16.09 3.2734 21.895 9.082 5.8086 5.8047 9.0742 13.68 9.082 21.895v27.059h-20.469l0.003906-18.066c0-12.223-9.6328-22.16-21.48-22.16h-85.766c-11.809 0-21.492 9.9375-21.492 22.16v18.016l-20.457 0.003907zm-92.645 36.691h37.52v0.38281c-0.070313 0.98438-0.14844 1.9688-0.25391 3.0195 0 0.20703 0 0.41406-0.070312 0.62109-0.11719 1.0352-0.25391 2.0586-0.41406 3.0703 0 0.15625 0 0.30469-0.070313 0.45312-0.16797 0.98438-0.34375 1.9688-0.54297 2.9531 0 0.10938 0 0.21484-0.070312 0.32422-0.20703 0.98438-0.44141 2.0273-0.6875 3.0391 0 0.16797-0.089844 0.33594-0.12891 0.5-0.24609 0.98437-0.52344 1.9688-0.80859 2.9023l-0.17578 0.60156c-0.28516 0.93359-0.58984 1.8711-0.91406 2.793l-0.21484 0.62109c-0.33594 0.92578-0.67969 1.832-1.043 2.7344l-0.23438 0.58203c-0.375 0.91406-0.76562 1.8203-1.1719 2.7148-0.078126 0.16797-0.15625 0.32422-0.22656 0.48047-0.43359 0.92578-0.875 1.8516-1.3398 2.7539l-0.14844 0.27734c-0.46094 0.88672-0.93359 1.7617-1.4258 2.6172l-0.17578 0.32422c-0.5 0.875-0.98438 1.7422-1.5664 2.5898-0.097656 0.15625-0.1875 0.31641-0.28516 0.46094-0.53125 0.82813-1.0742 1.6328-1.625 2.4414l-0.35547 0.5c-0.55078 0.78906-1.1211 1.5742-1.7031 2.3438l-0.38281 0.49219c-0.58984 0.76562-1.1914 1.5234-1.8125 2.2734-0.12891 0.13672-0.24609 0.28516-0.375 0.43359-0.64062 0.75781-1.2891 1.5039-1.9688 2.2344l-0.24609 0.39844c-0.6875 0.73828-1.3867 1.4766-2.0977 2.1836l-0.17578 0.17578c-0.71875 0.71875-1.4453 1.418-2.1953 2.0977l-0.31641 0.29688c-0.73828 0.66797-1.4844 1.3203-2.2422 1.9688l-0.43359 0.36328c-0.73828 0.62109-1.5039 1.2305-2.2734 1.8203l-0.48047 0.375c-0.77734 0.58203-1.5547 1.1523-2.3516 1.7109l-0.49219 0.34375c-0.80859 0.55078-1.625 1.1016-2.4492 1.625l-0.44141 0.28516c-0.85547 0.53125-1.7227 1.0625-2.6094 1.5664v-0.003906c-0.097656 0.0625-0.19922 0.11719-0.30469 0.16797-0.86719 0.5-1.75 0.98438-2.6484 1.4453l-0.25391 0.13672c-0.91406 0.46094-1.8398 0.91406-2.7734 1.3477l-0.45312 0.21484c-0.90625 0.39844-1.8203 0.79297-2.7461 1.1797l-0.5625 0.22656c-0.90625 0.36328-1.8203 0.71875-2.7539 1.043l-0.58984 0.21484c-0.93359 0.32422-1.8711 0.62891-2.8125 0.91406l-0.58984 0.17578c-0.98438 0.28516-1.9688 0.5625-2.9531 0.80859l-0.49219 0.12891c-0.98438 0.24609-2.0352 0.48047-3.0703 0.69922l-0.28516 0.058593c-0.98437 0.19531-1.9688 0.375-3.0195 0.54297l-0.44141 0.070313c-1.0234 0.15625-2.0469 0.29688-3.0703 0.41406l-0.62891 0.070313c-0.98438 0.10938-1.9688 0.1875-3.0195 0.25391h-0.38281l-0.007812-37.508c0.019531-9.3672 3.75-18.344 10.371-24.969 6.625-6.6211 15.598-10.355 24.965-10.379zm-35.344 293.55v-39.359h0.375c0.98437 0.070313 2.0547 0.15625 3.0781 0.26563l0.62891 0.070312c1.0352 0.11719 2.0703 0.25391 3.1016 0.41406l0.5 0.089844c1.0625 0.16797 2.125 0.35547 3.168 0.57031l0.31641 0.070312c1.0312 0.21484 2.0547 0.45312 3.0703 0.70703l0.32422 0.078126c0.98437 0.26562 2.0469 0.5625 3.0703 0.86719l0.46094 0.13672c0.98437 0.30078 1.9688 0.62891 2.9531 0.98438l0.54297 0.1875c0.98438 0.34375 1.8906 0.70703 2.8125 1.082l0.5625 0.23438c0.92578 0.38281 1.8398 0.77734 2.7461 1.1992l0.54297 0.25391c0.90625 0.42188 1.8125 0.86719 2.6953 1.3281l0.48047 0.25391c0.90625 0.47266 1.8008 0.98438 2.6758 1.4766l0.38281 0.22656c0.90625 0.53125 1.8125 1.082 2.6953 1.6523l0.21484 0.14844c0.89453 0.57031 1.7695 1.1719 2.6367 1.7812l0.16797 0.10937c0.86719 0.62109 1.7305 1.2695 2.5781 1.918l0.29687 0.22656c0.81641 0.64062 1.6133 1.3008 2.4023 1.9688l0.36328 0.30469c0.76562 0.66016 1.5234 1.3398 2.2617 2.0273l0.38672 0.41406c0.73828 0.6875 1.457 1.3984 2.1641 2.1172l0.35547 0.36328c0.70703 0.72656 1.4062 1.4766 2.0859 2.2344 0.10938 0.10938 0.20703 0.22656 0.30469 0.34375 0.6875 0.77734 1.3672 1.5664 2.0273 2.3633 0.078125 0.097657 0.14844 0.19531 0.22656 0.28516 0.67969 0.83594 1.3398 1.6836 1.9688 2.5391l-0.003907-0.003906c0.03125 0.054687 0.066407 0.10938 0.10938 0.15625 0.66797 0.89453 1.3203 1.8125 1.9688 2.7344 0.62891 0.92578 1.2305 1.8594 1.8125 2.8047l0.13672 0.21484c0.5625 0.91406 1.1016 1.8516 1.625 2.7852l0.17578 0.32422c0.51172 0.92578 0.98438 1.8516 1.4648 2.793 0.070312 0.12891 0.12891 0.26562 0.19531 0.39453 0.45313 0.93359 0.89453 1.8789 1.3203 2.8438 0.070313 0.13672 0.12891 0.27734 0.1875 0.41406 0.41406 0.98438 0.81641 1.9688 1.1992 2.9531l0.14844 0.39453c0.38281 0.98438 0.74609 1.9688 1.082 3.0312 0 0.097656 0.070313 0.20703 0.10938 0.31641 0.34375 1.0547 0.66797 2.1172 0.98437 3.1797v0.1875c0.625 2.2227 1.1484 4.4844 1.5742 6.7812v0.22656c0.19531 1.0938 0.375 2.1953 0.52344 3.3047l0.058593 0.38281c0.13672 1.082 0.25391 2.1641 0.35547 3.2578v0.48047c0.089844 1.082 0.15625 2.1562 0.20703 3.2383h-0.003906c-0.007812 0.089844-0.007812 0.18359 0 0.27344h-37.512c-9.3789-0.019531-18.363-3.7578-24.992-10.395-6.625-6.6367-10.348-15.633-10.352-25.008zm390.3 35.344h-37.621c0.003906-0.09375 0.003906-0.18359 0-0.27734 0.050781-1.082 0.11719-2.1562 0.20703-3.2383v-0.48047c0.097656-1.0938 0.21484-2.1758 0.35547-3.2578l0.058593-0.38281c0.14844-1.1133 0.32422-2.2148 0.52344-3.3047v-0.22656c0.43359-2.2891 0.95703-4.5508 1.5742-6.7812v-0.1875c0.30469-1.0625 0.62891-2.125 0.98438-3.1797 0-0.10938 0.070312-0.21484 0.10938-0.31641 0.33594-0.98438 0.69922-2.0273 1.082-3.0312l0.14844-0.39453c0.38281-0.98438 0.78906-1.9688 1.1992-2.9531 0.058594-0.13672 0.11719-0.27734 0.1875-0.41406 0.42188-0.98438 0.86719-1.9102 1.3203-2.8438l0.19531-0.39453c0.47266-0.98438 0.98438-1.8711 1.4648-2.793l0.17578-0.32422c0.52344-0.98438 1.0625-1.8711 1.625-2.7852l0.13672-0.21484c0.58203-0.98438 1.1797-1.8789 1.8125-2.8047 0.62891-0.92578 1.2773-1.8398 1.9688-2.7344l-0.003906 0.003906c0.039062-0.046875 0.078125-0.10156 0.10547-0.15625 0.64844-0.85547 1.3086-1.7031 1.9688-2.5391 0.078124-0.089844 0.14844-0.1875 0.22656-0.28516 0.66016-0.79687 1.3398-1.5859 2.0273-2.3633 0.097656-0.11719 0.19531-0.23438 0.30469-0.34375 0.67969-0.75781 1.3789-1.5039 2.0859-2.2344l0.35547-0.36328c0.70703-0.71875 1.4258-1.4258 2.1641-2.1172l0.38281-0.35547c0.73828-0.6875 1.4961-1.3672 2.2617-2.0273l0.36328-0.30469c0.78906-0.66797 1.5859-1.3281 2.4023-1.9688l0.29688-0.22656c0.84766-0.64844 1.7109-1.3008 2.5781-1.918l0.16797-0.10938c0.86719-0.60938 1.7422-1.2109 2.6367-1.7812l0.21484-0.14844c0.88672-0.57031 1.7891-1.1211 2.6953-1.6523l0.38281-0.22656c0.875-0.51172 1.7695-0.98438 2.6758-1.4766l0.48047-0.25391c0.88672-0.46094 1.7891-0.90625 2.6953-1.3281l0.54297-0.25391c0.90625-0.42188 1.8203-0.81641 2.7461-1.1992l0.5625-0.23438c0.92578-0.375 1.8594-0.73828 2.8125-1.082l0.54297-0.1875c0.96484-0.34766 1.9492-0.67578 2.9531-0.98437l0.46094-0.13672c0.98438-0.30469 2.0352-0.60156 3.0703-0.86719l0.32422-0.078125c1.0117-0.25391 2.0352-0.49219 3.0703-0.70703l0.31641-0.070313c1.043-0.21484 2.1055-0.40234 3.168-0.57031l0.5-0.089844c1.0312-0.15625 2.0625-0.29688 3.1016-0.41406l0.62891-0.070313c0.98438-0.10938 2.0469-0.19531 3.0781-0.26562h0.375v39.359l0.003907 0.003907c-0.019532 9.3477-3.7383 18.309-10.336 24.93-6.6016 6.6211-15.551 10.363-24.902 10.414z"/>
 </g>
</svg>