<?xml version="1.0" encoding="UTF-8"?>
<!-- The Best Svg Icon site in the world: iconSvg.co, Visit us! https://iconsvg.co -->
<svg fill="#000000" width="800px" height="800px" version="1.1" viewBox="144 144 512 512" xmlns="http://www.w3.org/2000/svg">
 <path d="m499.9 510.08c1.0508 0.30469 2.0664 0.47266 3.1367 0.47266 2.3398 0 4.6484-0.77734 6.5391-2.2969l122.64-97.961c4.5352-3.6211 5.2695-10.223 1.6602-14.746-3.6328-4.5234-10.254-5.2695-14.758-1.6484l-118.29 94.484-93.371-29.031-0.003906-30.492 92.48 28.727c3.3164 1.0391 6.9492 0.33594 9.6758-1.8281l122.64-97.961c3.0352-2.4141 4.4727-6.3281 3.7695-10.148-0.73438-3.8086-3.5039-6.918-7.2227-8.082l-328.7-102.12c-3.3477-1.0508-6.9492-0.35547-9.668 1.8281l-122.64 97.969c-3.043 2.4258-4.4805 6.3281-3.7695 10.148 0.72266 3.8086 3.4961 6.918 7.1992 8.082l98.703 30.668v30.5l-92.469-28.738c-5.5195-1.6992-11.418 1.3633-13.141 6.9062-1.7227 5.5312 1.375 11.41 6.9062 13.129l98.703 30.668v30.5l-92.469-28.738c-5.5195-1.6992-11.418 1.375-13.141 6.9062s1.375 11.418 6.9062 13.141l328.68 102.12c1.0508 0.30469 2.0664 0.47266 3.1367 0.47266 2.3398 0 4.6484-0.77734 6.5391-2.2969l122.64-97.961c4.5352-3.6211 5.2695-10.223 1.6602-14.746-3.6328-4.5352-10.254-5.2695-14.758-1.6367l-118.29 94.484-93.371-29.031v-30.48zm21.875-181.76 81.879 25.441-102.83 82.133-81.879-25.441zm-243.57 38.406-81.867-25.441 102.82-82.141 81.867 25.441z"/>
</svg>