<?xml version="1.0" encoding="UTF-8"?>
<!-- The Best Svg Icon site in the world: iconSvg.co, Visit us! https://iconsvg.co -->
<svg width="800px" height="800px" version="1.1" viewBox="144 144 512 512" xmlns="http://www.w3.org/2000/svg">
 <defs>
  <clipPath id="c">
   <path d="m274 148.09h252v251.91h-252z"/>
  </clipPath>
  <clipPath id="b">
   <path d="m148.09 541h189.91v110.9h-189.91z"/>
  </clipPath>
  <clipPath id="a">
   <path d="m462 541h189.9v110.9h-189.9z"/>
  </clipPath>
 </defs>
 <g clip-path="url(#c)">
  <path d="m400 400c-33.406 0-65.441-13.27-89.062-36.891s-36.891-55.66-36.891-89.062c0-33.406 13.27-65.441 36.891-89.062s55.656-36.891 89.062-36.891c33.402 0 65.441 13.27 89.059 36.891 23.621 23.621 36.891 55.656 36.891 89.062-0.035157 33.391-13.32 65.406-36.93 89.02-23.613 23.613-55.629 36.895-89.02 36.934zm0-220.42c-25.055 0-49.082 9.9531-66.797 27.668s-27.668 41.742-27.668 66.797 9.9531 49.082 27.668 66.797 41.742 27.668 66.797 27.668c25.051 0 49.078-9.9531 66.793-27.668 17.719-17.715 27.668-41.742 27.668-66.797-0.027344-25.047-9.9883-49.059-27.695-66.766-17.711-17.711-41.723-27.672-66.766-27.699z"/>
 </g>
 <path d="m407.87 337.02h-39.359c-5.625 0-10.824-3-13.637-7.875-2.8125-4.8711-2.8125-10.871 0-15.742s8.0117-7.8711 13.637-7.8711h39.359c4.3477 0 7.8711-3.5234 7.8711-7.8711 0-4.3477-3.5234-7.875-7.8711-7.875h-15.746c-14.059 0-27.055-7.5-34.086-19.68-7.0312-12.176-7.0312-27.18 0-39.359s20.027-19.68 34.086-19.68h39.363c5.625 0 10.82 3 13.633 7.8711s2.8125 10.875 0 15.746-8.0078 7.8711-13.633 7.8711h-39.363c-4.3477 0-7.8711 3.5234-7.8711 7.8711 0 4.3477 3.5234 7.8711 7.8711 7.8711h15.746c14.062 0 27.055 7.5039 34.086 19.68 7.0312 12.18 7.0312 27.184 0 39.363-7.0312 12.176-20.023 19.68-34.086 19.68z"/>
 <path d="m400 242.56c-4.1758 0-8.1797-1.6602-11.133-4.6133-2.9531-2.9531-4.6133-6.957-4.6133-11.133v-15.742c0-5.625 3-10.824 7.8711-13.637s10.875-2.8125 15.746 0 7.8711 8.0117 7.8711 13.637v15.742c0 4.1758-1.6602 8.1797-4.6094 11.133-2.9531 2.9531-6.957 4.6133-11.133 4.6133z"/>
 <path d="m400 352.77c-4.1758 0-8.1797-1.6562-11.133-4.6094-2.9531-2.9531-4.6133-6.957-4.6133-11.133v-15.746c0-5.625 3-10.82 7.8711-13.633s10.875-2.8125 15.746 0 7.8711 8.0078 7.8711 13.633v15.746c0 4.1758-1.6602 8.1797-4.6094 11.133-2.9531 2.9531-6.957 4.6094-11.133 4.6094z"/>
 <path d="m242.56 573.18c-16.703 0-32.723-6.6367-44.531-18.445-11.809-11.812-18.445-27.828-18.445-44.531s6.6367-32.723 18.445-44.531c11.809-11.809 27.828-18.445 44.531-18.445s32.719 6.6367 44.531 18.445c11.809 11.809 18.445 27.828 18.445 44.531-0.019531 16.695-6.6602 32.703-18.465 44.512-11.809 11.805-27.816 18.445-44.512 18.465zm0-94.465c-8.3516 0-16.359 3.3164-22.266 9.2227s-9.2227 13.914-9.2227 22.266c0 8.3516 3.3164 16.359 9.2227 22.266s13.914 9.2227 22.266 9.2227c8.3516 0 16.359-3.3164 22.266-9.2227s9.2227-13.914 9.2227-22.266c-0.011719-8.3477-3.332-16.352-9.2344-22.254s-13.906-9.2266-22.254-9.2344z"/>
 <g clip-path="url(#b)">
  <path d="m321.28 651.9h-157.44c-4.1719 0-8.1797-1.6562-11.133-4.6094-2.9492-2.9531-4.6094-6.957-4.6094-11.133 0-33.75 18.004-64.934 47.23-81.809 29.23-16.875 65.238-16.875 94.465 0 29.227 16.875 47.234 48.059 47.234 81.809 0 4.1758-1.6602 8.1797-4.6133 11.133s-6.957 4.6094-11.133 4.6094zm-139.7-31.488h121.95c-4.6875-18.152-17.219-33.273-34.188-41.25-16.969-7.9766-36.609-7.9766-53.578 0-16.969 7.9766-29.5 23.098-34.188 41.25z"/>
 </g>
 <path d="m557.44 573.18c-16.699 0-32.719-6.6367-44.531-18.445-11.809-11.812-18.445-27.828-18.445-44.531s6.6367-32.723 18.445-44.531c11.812-11.809 27.832-18.445 44.531-18.445 16.703 0 32.723 6.6367 44.531 18.445 11.812 11.809 18.445 27.828 18.445 44.531-0.015624 16.695-6.6562 32.703-18.465 44.512-11.805 11.805-27.812 18.445-44.512 18.465zm0-94.465c-8.3516 0-16.359 3.3164-22.266 9.2227-5.9023 5.9062-9.2227 13.914-9.2227 22.266 0 8.3516 3.3203 16.359 9.2227 22.266 5.9062 5.9062 13.914 9.2227 22.266 9.2227s16.363-3.3164 22.266-9.2227c5.9062-5.9062 9.2227-13.914 9.2227-22.266-0.007812-8.3477-3.3281-16.352-9.2305-22.254-5.9062-5.9023-13.906-9.2266-22.258-9.2344z"/>
 <g clip-path="url(#a)">
  <path d="m636.16 651.9h-157.44c-4.1758 0-8.1797-1.6562-11.133-4.6094-2.9531-2.9531-4.6094-6.957-4.6094-11.133 0-33.75 18.004-64.934 47.23-81.809 29.227-16.875 65.238-16.875 94.465 0s47.23 48.059 47.23 81.809c0 4.1758-1.6562 8.1797-4.6094 11.133s-6.957 4.6094-11.133 4.6094zm-139.7-31.488h121.95-0.003907c-4.6836-18.152-17.219-33.273-34.188-41.25-16.969-7.9766-36.609-7.9766-53.574 0-16.969 7.9766-29.504 23.098-34.191 41.25z"/>
 </g>
 <path d="m289.8 525.95c-4.6641 0.003906-9.0859-2.0586-12.082-5.6328-2.9961-3.5742-4.25-8.293-3.4297-12.883 0.82422-4.5898 3.6367-8.582 7.6875-10.895l102.27-58.441v-53.844c0-5.625 3-10.82 7.8711-13.633s10.875-2.8125 15.746 0 7.8711 8.0078 7.8711 13.633v62.977c0 2.7773-0.73438 5.5-2.125 7.9023-1.3945 2.4023-3.3984 4.3906-5.8086 5.7656l-110.21 62.977c-2.375 1.3594-5.0625 2.0742-7.7969 2.0742z"/>
 <path d="m510.19 525.95c-2.7344 0-5.4219-0.71484-7.7969-2.0742l-110.21-62.977c-3.6719-2.0469-6.375-5.4766-7.5-9.5273-1.1289-4.0508-0.58984-8.3828 1.4961-12.035 2.0859-3.6484 5.5469-6.3164 9.6094-7.3984 4.0586-1.0859 8.3867-0.5 12.016 1.625l110.21 62.977c4.0508 2.3125 6.8672 6.3047 7.6875 10.895s-0.43359 9.3086-3.4297 12.883c-2.9922 3.5742-7.418 5.6367-12.082 5.6328z"/>
</svg>