<?xml version="1.0" encoding="UTF-8"?>
<!-- The Best Svg Icon site in the world: iconSvg.co, Visit us! https://iconsvg.co -->
<svg fill="#000000" width="800px" height="800px" version="1.1" viewBox="144 144 512 512" xmlns="http://www.w3.org/2000/svg">
 <path d="m510.21 350.88v-61.09c0-29.227-11.613-57.262-32.281-77.93s-48.699-32.277-77.926-32.277c-29.23 0-57.262 11.609-77.93 32.277-20.668 20.668-32.281 48.703-32.281 77.93v61.246c-29.949 29.355-46.949 69.449-47.227 111.38-0.28125 41.938 16.184 82.254 45.738 112.01 29.555 29.754 69.762 46.484 111.7 46.484s82.141-16.73 111.7-46.484c29.555-29.754 46.02-70.07 45.738-112.01-0.27734-41.934-17.277-82.027-47.227-111.38zm-188.93-61.09c0-28.121 15.004-54.109 39.359-68.172 24.359-14.062 54.367-14.062 78.723 0s39.359 40.051 39.359 68.172v36.84l-2.5195-1.2578c-4.25-2.3633-8.8164-4.5664-13.227-6.6133l-4.25-1.7305c-5.6016-2.2695-11.332-4.2148-17.16-5.8242h-2.9922c-5.0391-1.2578-10.078-2.2031-15.742-2.9922h-5.0391c-5.8672-1.2617-11.812-2.1523-17.789-2.6758-6.1641 0.023438-12.316 0.44141-18.422 1.2578h-5.0391c-5.0391 0.78906-10.234 1.7305-15.742 2.9922h-2.8359c-5.8281 1.6094-11.555 3.5547-17.16 5.8242l-4.0938 1.7305c-4.5664 2.0469-9.1328 4.25-13.539 6.7695l-2.3633 1.1016zm78.719 299.14h0.003906c-45 0-86.582-24.004-109.08-62.977-22.5-38.969-22.5-86.98 0-125.95 22.496-38.973 64.078-62.977 109.08-62.977h11.652-0.003906c22.836 2.1914 44.625 10.637 62.977 24.402 3.1289 2.2383 6.125 4.6562 8.9727 7.2422 25.688 22.738 40.984 54.969 42.363 89.242 1.3789 34.277-11.281 67.629-35.055 92.359-23.773 24.727-56.605 38.688-90.906 38.656zm26.293-146.89h0.003907c-0.015625 8.2539-3.9258 16.016-10.551 20.941v31.488-0.003906c0 5.625-3 10.824-7.8711 13.637s-10.875 2.8125-15.746 0-7.8711-8.0117-7.8711-13.637v-31.484c-7.1641-5.4961-10.988-14.301-10.109-23.285 0.87891-8.9883 6.3359-16.883 14.43-20.887 8.0938-4 17.68-3.5391 25.355 1.2188 7.6719 4.7578 12.348 13.141 12.363 22.168z"/>
</svg>