<?xml version="1.0" encoding="UTF-8"?>
<!-- The Best Svg Icon site in the world: iconSvg.co, Visit us! https://iconsvg.co -->
<svg fill="#000000" width="800px" height="800px" version="1.1" viewBox="144 144 512 512" xmlns="http://www.w3.org/2000/svg">
 <g>
  <path d="m556.73 218.13c0-25.441-20.707-46.141-46.141-46.141-25.434 0-46.141 20.699-46.141 46.141 0 25.441 20.73 46.141 46.16 46.141 25.434 0 46.121-20.699 46.121-46.141z"/>
  <path d="m622.83 366.4-29.012-63.469c-5.0391-11.031-16.133-18.148-28.223-18.148h-220.57c-13.402 0-24.32 10.906-24.32 24.309s10.914 24.309 24.32 24.309h106.58v266.54c0 15.48 12.605 28.066 28.086 28.066 15.48 0 28.066-12.586 28.066-28.066v-143.13c0-3.1172 5.6797-3.1172 5.6797 0v143.13c0 15.48 12.586 28.066 28.086 28.066 15.48 0 28.066-12.586 28.066-28.066v-161.98c3.1172-0.92188 6.1289-2.457 8.7734-4.6719l36.098-30.125c10.738-8.9375 14.18-24.062 8.375-36.762zm-58.621 15.355v-26.617l8.8164 19.27z"/>
  <path d="m304.77 295.29-19.156 35.172h-25.938l-19.164-35.172z"/>
  <path d="m365.83 430.95c-21.348-34.176-47.988-64.414-79.098-89.992h-28.203c-31.109 25.59-57.75 55.828-79.086 89.992-9.668 15.504-5.1133 36.242 10.148 46.266 50.445 33.082 115.64 33.105 166.09 0 15.273-10.023 19.828-30.785 10.148-46.266zm-93.191 28.578c-23.121 0-41.941-18.82-41.941-41.934 0-23.121 18.809-41.941 41.941-41.941s41.941 18.82 41.941 41.941c0 23.113-18.809 41.934-41.941 41.934z"/>
  <path d="m241.2 417.59c0-13.402 8.4609-24.781 20.301-29.305-2.1094 1.5938-3.8945 3.6094-5.2148 5.9922-2.4766 4.5117-3.0664 9.7188-1.625 14.664 2.3203 7.9961 9.4688 13.57 17.789 13.887 2.4023 0.09375 4.7031 1.1758 6.2891 2.9922 1.5312 1.7539 2.2969 4.0078 2.1406 6.3398-0.15625 2.3398-1.2188 4.4727-2.9805 6.0039-3.6523 3.2031-9.1836 2.8125-12.375-0.82031-1.9102-2.2148-5.2383-2.4141-7.4102-0.51562-2.1836 1.9297-2.4023 5.2266-0.49219 7.3984 0.62109 0.71484 1.332 1.2695 2.0273 1.8672-10.859-4.9297-18.449-15.812-18.449-28.504z"/>
  <path d="m283.65 446.93c0.37891-0.26172 0.78906-0.51562 1.1445-0.82031 3.8711-3.3789 6.2031-8.082 6.5508-13.203s-1.3242-10.109-4.7109-13.98c-3.4844-3.9883-8.5117-6.3711-13.793-6.582-3.7891-0.14844-7.043-2.6758-8.0938-6.3398-0.65234-2.2344-0.38672-4.6094 0.73438-6.6641 1.1328-2.0469 2.9922-3.5391 5.2461-4.1758 4.6484-1.332 9.5195 1.332 10.863 5.9844 0.80859 2.7812 3.7148 4.375 6.5078 3.5781 2.7812-0.80859 4.3867-3.7148 3.5781-6.5078-1.0586-3.6523-3.1367-6.7266-5.8047-9.0586 10.727 5.0156 18.223 15.828 18.223 28.434-0.007812 13.445-8.543 24.863-20.445 29.336z"/>
 </g>
</svg>