<?xml version="1.0" encoding="UTF-8"?>
<!-- The Best Svg Icon site in the world: iconSvg.co, Visit us! https://iconsvg.co -->
<svg fill="#000000" width="800px" height="800px" version="1.1" viewBox="144 144 512 512" xmlns="http://www.w3.org/2000/svg">
 <g>
  <path d="m179.58 620.41h346.37v-68.328l-22.277-38.574c-1.0508-1.8125-1.332-3.9727-0.78516-5.9961 0.54688-2.0273 1.8789-3.75 3.6992-4.7891l6.7695-3.9375-20.781-36.055v0.003906c-14.52 5.3516-29.871 8.0938-45.344 8.1094-42.902 0.09375-83.25-20.387-108.5-55.074-25.246-34.688-32.332-79.379-19.051-120.18 13.281-40.793 45.316-72.75 86.145-85.93 40.828-13.18 85.5-5.9844 120.12 19.352v-49.438h-251.9v70.848c-0.019531 6.2578-2.5117 12.254-6.9375 16.68s-10.422 6.918-16.68 6.9375h-70.848zm39.359-314.88h78.723c4.3477 0 7.8711 3.5234 7.8711 7.8711s-3.5234 7.8711-7.8711 7.8711h-78.723c-4.3477 0-7.8711-3.5234-7.8711-7.8711s3.5234-7.8711 7.8711-7.8711zm0 31.488h78.723c4.3477 0 7.8711 3.5234 7.8711 7.8711 0 4.3477-3.5234 7.8711-7.8711 7.8711h-78.723c-4.3477 0-7.8711-3.5234-7.8711-7.8711 0-4.3477 3.5234-7.8711 7.8711-7.8711zm0 31.488h78.723c4.3477 0 7.8711 3.5234 7.8711 7.8711 0 4.3477-3.5234 7.8711-7.8711 7.8711h-78.723c-4.3477 0-7.8711-3.5234-7.8711-7.8711 0-4.3477 3.5234-7.8711 7.8711-7.8711zm0 31.488h78.723c4.3477 0 7.8711 3.5234 7.8711 7.8711s-3.5234 7.8711-7.8711 7.8711h-78.723c-4.3477 0-7.8711-3.5234-7.8711-7.8711s3.5234-7.8711 7.8711-7.8711zm0 31.488h110.21c4.3477 0 7.875 3.5234 7.875 7.8711s-3.5273 7.8711-7.875 7.8711h-110.21c-4.3477 0-7.8711-3.5234-7.8711-7.8711s3.5234-7.8711 7.8711-7.8711zm0 31.488h141.7c4.3477 0 7.875 3.5234 7.875 7.8711s-3.5273 7.8711-7.875 7.8711h-141.7c-4.3477 0-7.8711-3.5234-7.8711-7.8711s3.5234-7.8711 7.8711-7.8711zm0 125.95h15.742l0.003906-23.613c0-4.3477 3.5234-7.875 7.8711-7.875h31.488c2.0859 0 4.0898 0.83203 5.5664 2.3086 1.4766 1.4766 2.3047 3.4766 2.3047 5.5664v23.617h15.742l0.003906-55.105c0-4.3477 3.5234-7.875 7.8711-7.875h31.488c2.0859 0 4.0898 0.83203 5.5664 2.3086 1.4766 1.4766 2.3047 3.4766 2.3047 5.5664v55.105h15.742v-70.852c0-4.3477 3.5273-7.8711 7.875-7.8711h31.488c2.0859 0 4.0898 0.82812 5.5664 2.3047 1.4766 1.4766 2.3047 3.4805 2.3047 5.5664v70.848h15.742v-102.34c0-4.3477 3.5273-7.8711 7.875-7.8711h31.488c2.0859 0 4.0898 0.82812 5.5664 2.3047 1.4727 1.4766 2.3047 3.4805 2.3047 5.5664v102.34h15.742c4.3477 0 7.8711 3.5273 7.8711 7.875 0 4.3477-3.5234 7.8711-7.8711 7.8711h-267.65c-4.3477 0-7.8711-3.5234-7.8711-7.8711 0-4.3477 3.5234-7.875 7.8711-7.875z"/>
  <path d="m250.43 573.18h15.742v15.742h-15.742z"/>
  <path d="m376.38 525.95h15.742v62.977h-15.742z"/>
  <path d="m258.3 250.43v-59.75l-67.621 67.621h59.75c2.0898 0 4.0898-0.82812 5.5664-2.3047 1.4766-1.4766 2.3047-3.4766 2.3047-5.5664z"/>
  <path d="m313.41 541.7h15.742v47.23h-15.742z"/>
  <path d="m439.36 494.46h15.742v94.465h-15.742z"/>
  <path d="m603.96 608.53c5.4336-3.1289 9.3984-8.2891 11.02-14.34 1.625-6.0547 0.77734-12.508-2.3594-17.934l-50.457-87.457-6.8477 3.9375-13.617 7.8711-20.469 11.809 50.539 87.457h-0.003906c3.1055 5.4336 8.2539 9.4023 14.297 11.027s12.488 0.77344 17.898-2.3711z"/>
  <path d="m447.23 258.3c-20.879 0-40.902 8.2969-55.664 23.059-14.762 14.762-23.055 34.785-23.055 55.664 0 20.875 8.293 40.898 23.055 55.664 14.762 14.762 34.785 23.055 55.664 23.055 20.879 0 40.902-8.293 55.664-23.055 14.762-14.766 23.055-34.789 23.055-55.664-0.019531-20.871-8.3242-40.883-23.082-55.641-14.758-14.758-34.766-23.059-55.637-23.082zm-7.8711 70.848h15.742c8.4375 0 16.234 4.5039 20.453 11.809 4.2188 7.3086 4.2188 16.309 0 23.617-4.2188 7.3086-12.016 11.809-20.453 11.809v7.8711c0 4.3477-3.5234 7.8711-7.8711 7.8711-4.3477 0-7.8711-3.5234-7.8711-7.8711v-7.8711c-6.2656 0-12.27-2.4883-16.699-6.918-4.4297-4.4297-6.918-10.434-6.918-16.699 0-4.3477 3.5234-7.8711 7.8711-7.8711 4.3477 0 7.875 3.5234 7.875 7.8711 0 2.0898 0.82812 4.0898 2.3047 5.5664 1.4766 1.4766 3.4766 2.3047 5.5664 2.3047h15.742c4.3477 0 7.875-3.5234 7.875-7.8711s-3.5273-7.8711-7.875-7.8711h-15.742c-8.4375 0-16.234-4.5-20.453-11.809-4.2188-7.3047-4.2188-16.309 0-23.617 4.2188-7.3047 12.016-11.805 20.453-11.805v-7.875c0-4.3477 3.5234-7.8711 7.8711-7.8711 4.3477 0 7.8711 3.5234 7.8711 7.8711v7.875c6.2656 0 12.27 2.4844 16.699 6.9141 4.4297 4.4297 6.918 10.438 6.918 16.699 0 4.3477-3.5234 7.8711-7.8711 7.8711s-7.8711-3.5234-7.8711-7.8711c0-2.0859-0.83203-4.0898-2.3086-5.5664-1.4766-1.4766-3.4766-2.3047-5.5664-2.3047h-15.742c-4.3477 0-7.8711 3.5234-7.8711 7.8711s3.5234 7.8711 7.8711 7.8711z"/>
  <path d="m507.14 456.52 19.836 34.402 13.699-7.8711-19.918-34.32v-0.003907c-4.3828 2.8594-8.9297 5.4609-13.617 7.793z"/>
  <path d="m533.51 439.2 0.31641 0.54297v-0.84375c-0.11328 0.09375-0.20703 0.20312-0.31641 0.30078z"/>
  <path d="m447.23 218.94c-31.316 0-61.352 12.441-83.496 34.586-22.145 22.145-34.586 52.18-34.586 83.496 0 31.316 12.441 61.352 34.586 83.496 22.145 22.141 52.18 34.582 83.496 34.582 31.316 0 61.352-12.441 83.496-34.582 22.145-22.145 34.586-52.18 34.586-83.496-0.039062-31.305-12.492-61.32-34.629-83.457-22.137-22.133-52.148-34.586-83.453-34.625zm0 212.54v0.003906c-25.055 0-49.082-9.9531-66.797-27.668-17.715-17.719-27.668-41.746-27.668-66.797 0-25.055 9.9531-49.082 27.668-66.797 17.715-17.715 41.742-27.668 66.797-27.668 25.055 0 49.082 9.9531 66.797 27.668 17.715 17.715 27.668 41.742 27.668 66.797-0.027343 25.043-9.9883 49.055-27.699 66.766-17.707 17.711-41.719 27.672-66.766 27.699z"/>
 </g>
</svg>