<?xml version="1.0" encoding="UTF-8"?>
<!-- The Best Svg Icon site in the world: iconSvg.co, Visit us! https://iconsvg.co -->
<svg fill="#000000" width="800px" height="800px" version="1.1" viewBox="144 144 512 512" xmlns="http://www.w3.org/2000/svg">
 <path d="m541.7 179.58h-283.39c-20.875 0-40.898 8.293-55.664 23.055-14.762 14.766-23.055 34.789-23.055 55.664v283.39c0 20.879 8.293 40.898 23.055 55.664 14.766 14.762 34.789 23.055 55.664 23.055h283.39c20.879 0 40.898-8.293 55.664-23.055 14.762-14.766 23.055-34.785 23.055-55.664v-283.39c0-20.875-8.293-40.898-23.055-55.664-14.766-14.762-34.785-23.055-55.664-23.055zm47.23 362.11c0 12.527-4.9766 24.539-13.832 33.398-8.8594 8.8555-20.871 13.832-33.398 13.832h-283.39c-12.527 0-24.539-4.9766-33.398-13.832-8.8555-8.8594-13.832-20.871-13.832-33.398v-283.39c0-12.527 4.9766-24.539 13.832-33.398 8.8594-8.8555 20.871-13.832 33.398-13.832h283.39c12.527 0 24.539 4.9766 33.398 13.832 8.8555 8.8594 13.832 20.871 13.832 33.398zm-173.18-204.67v204.67c0 5.625-3 10.82-7.8711 13.633s-10.875 2.8125-15.746 0-7.8711-8.0078-7.8711-13.633v-204.67c0-5.625 3-10.824 7.8711-13.637s10.875-2.8125 15.746 0 7.8711 8.0117 7.8711 13.637zm-110.21 62.977v141.7c0 5.625-3 10.82-7.8711 13.633-4.875 2.8125-10.875 2.8125-15.746 0-4.8711-2.8125-7.8711-8.0078-7.8711-13.633v-141.7c0-5.625 3-10.824 7.8711-13.637 4.8711-2.8125 10.871-2.8125 15.746 0 4.8711 2.8125 7.8711 8.0117 7.8711 13.637zm220.41-125.95v267.65c0 5.625-3 10.82-7.8711 13.633s-10.871 2.8125-15.742 0c-4.8711-2.8125-7.875-8.0078-7.875-13.633v-267.65c0-5.625 3.0039-10.824 7.875-13.637 4.8711-2.8125 10.871-2.8125 15.742 0s7.8711 8.0117 7.8711 13.637z"/>
</svg>