<?xml version="1.0" encoding="UTF-8"?>
<!-- The Best Svg Icon site in the world: iconSvg.co, Visit us! https://iconsvg.co -->
<svg width="800px" height="800px" version="1.1" viewBox="144 144 512 512" xmlns="http://www.w3.org/2000/svg">
 <defs>
  <clipPath id="a">
   <path d="m179 148.09h472v503.81h-472z"/>
  </clipPath>
 </defs>
 <g clip-path="url(#a)">
  <path d="m557.44 447.62v-165.71c-0.03125-0.25391-0.082031-0.50781-0.14062-0.75391-0.03125-0.27734-0.078125-0.55078-0.14062-0.82031-0.23438-1.3281-0.80859-2.5703-1.668-3.6055l-110.21-125.95h-0.003906c-0.95703-1.0352-2.1836-1.7891-3.543-2.1719-0.35547-0.10547-0.71875-0.18359-1.0859-0.23438-0.42188-0.13281-0.85156-0.22656-1.2891-0.28516h-220.42c-10.438 0-20.449 4.1484-27.832 11.527-7.3789 7.3828-11.527 17.395-11.527 27.832v425.09c0 10.438 4.1484 20.449 11.527 27.832 7.3828 7.3828 17.395 11.527 27.832 11.527h329.59 1.0391-0.003906c35.379-0.35547 68.059-18.961 86.43-49.199 18.367-30.234 19.816-67.812 3.8281-99.375-15.988-31.559-47.141-52.625-82.387-55.703zm-110.21-270.7 85.02 97.125h-61.402c-6.2656 0-12.27-2.4883-16.699-6.918-4.4297-4.4297-6.918-10.434-6.918-16.699zm-228.29 459.24c-6.2617 0-12.27-2.4883-16.699-6.918-4.4297-4.4297-6.918-10.438-6.918-16.699v-425.09c0-6.2617 2.4883-12.27 6.918-16.699 4.4297-4.4297 10.438-6.918 16.699-6.918h212.55v86.594c0 10.438 4.1445 20.449 11.527 27.832 7.3789 7.3828 17.391 11.527 27.832 11.527h70.848v157.84c-28.812 2.1719-55.355 16.445-73.055 39.281-17.703 22.836-24.906 52.102-19.828 80.543 5.0742 28.445 21.961 53.41 46.469 68.711zm330.62 0c-22.965 0-44.988-9.125-61.23-25.363-16.238-16.238-25.359-38.266-25.359-61.23s9.1211-44.988 25.359-61.23c16.242-16.238 38.266-25.359 61.23-25.359s44.992 9.1211 61.23 25.359c16.238 16.242 25.363 38.266 25.363 61.23-0.03125 22.957-9.1641 44.965-25.395 61.199-16.234 16.23-38.242 25.363-61.199 25.395zm-7.8711-125.95h15.742c4.1758 0 8.1797 1.6602 11.133 4.6094 2.9531 2.9531 4.6133 6.957 4.6133 11.133 0 4.3477 3.5234 7.875 7.8711 7.875 4.3477 0 7.8711-3.5273 7.8711-7.875 0-8.3477-3.3164-16.359-9.2227-22.266-5.9023-5.9023-13.914-9.2227-22.266-9.2227v-7.8711c0-4.3477-3.5234-7.8711-7.8711-7.8711s-7.8711 3.5234-7.8711 7.8711v7.8711c-11.25 0-21.645 6.0039-27.27 15.746-5.625 9.7422-5.625 21.746 0 31.488 5.625 9.7422 16.02 15.742 27.27 15.742h15.742c5.625 0 10.824 3.0039 13.637 7.875s2.8125 10.871 0 15.742c-2.8125 4.8711-8.0117 7.8711-13.637 7.8711h-15.742c-4.1758 0-8.1797-1.6562-11.133-4.6094s-4.6133-6.957-4.6133-11.133c0-4.3477-3.5234-7.8711-7.8711-7.8711s-7.8711 3.5234-7.8711 7.8711c0 8.3516 3.3164 16.359 9.2227 22.266s13.914 9.2227 22.266 9.2227v7.8711c0 4.3477 3.5234 7.8711 7.8711 7.8711s7.8711-3.5234 7.8711-7.8711v-7.8711c11.25 0 21.645-6.0039 27.27-15.746 5.625-9.7422 5.625-21.746 0-31.488s-16.02-15.742-27.27-15.742h-15.742c-5.625 0-10.824-3-13.637-7.8711-2.8125-4.8711-2.8125-10.875 0-15.746s8.0117-7.8711 13.637-7.8711zm-102.34-63.434h-204.67c-4.3477 0-7.875 3.5234-7.875 7.8711 0 4.3477 3.5273 7.875 7.875 7.875h204.67c4.3477 0 7.8711-3.5273 7.8711-7.875 0-4.3477-3.5234-7.8711-7.8711-7.8711zm-204.67-31.488h267.65c4.3477 0 7.8711-3.5234 7.8711-7.8711 0-4.3477-3.5234-7.8711-7.8711-7.8711h-267.65c-4.3477 0-7.875 3.5234-7.875 7.8711 0 4.3477 3.5273 7.8711 7.875 7.8711zm188.93 78.719-188.93 0.003906c-4.3477 0-7.875 3.5234-7.875 7.8711s3.5273 7.8711 7.875 7.8711h188.93-0.003907c4.3477 0 7.875-3.5234 7.875-7.8711s-3.5273-7.8711-7.875-7.8711zm-188.93 62.977h173.18c4.3477 0 7.8711-3.5234 7.8711-7.8711s-3.5234-7.8711-7.8711-7.8711h-173.18c-4.3477 0-7.875 3.5234-7.875 7.8711s3.5273 7.8711 7.875 7.8711zm188.93 31.488h-188.93c-4.3477 0-7.875 3.5273-7.875 7.875s3.5273 7.8711 7.875 7.8711h188.93-0.003907c4.3477 0 7.875-3.5234 7.875-7.8711s-3.5273-7.875-7.875-7.875zm-110.21-299.14h-0.003906c6.2617 0 12.27-2.4883 16.699-6.9141 4.4297-4.4297 6.918-10.438 6.918-16.699 0-6.2656-2.4883-12.27-6.918-16.699-4.4297-4.4297-10.438-6.918-16.699-6.918s-12.27 2.4883-16.699 6.918c-4.4297 4.4297-6.918 10.434-6.918 16.699 0 6.2617 2.4883 12.27 6.918 16.699 4.4297 4.4258 10.438 6.9141 16.699 6.9141zm0-31.488h-0.003906c3.1836 0 6.0547 1.918 7.2734 4.8594 1.2188 2.9453 0.54297 6.3281-1.707 8.582-2.25 2.25-5.6367 2.9219-8.5781 1.707-2.9414-1.2188-4.8594-4.0898-4.8594-7.2734 0-4.3477 3.5234-7.875 7.8711-7.875zm-60.809 33.047c0.76563 2.8047 1.1172 5.707 1.0391 8.6133-0.57812 7.1602 1.6094 14.27 6.1094 19.871 5.5977 4.5 12.707 6.6875 19.871 6.1055 0.83594 0 1.5742 0.09375 2.457 0.14062l-0.003906 0.003906c-0.066407 0.25391-0.11719 0.51172-0.15625 0.76953v50.383c0 2.8984 1.5977 5.5664 4.1562 6.9336 2.5586 1.3711 5.6602 1.2227 8.0781-0.38672l19.254-12.832 19.254 12.832c2.418 1.6094 5.5195 1.7578 8.0781 0.38672 2.5586-1.3672 4.1562-4.0352 4.1562-6.9336v-51.168l2.2969-0.125v-0.003906c7.1641 0.58203 14.273-1.6055 19.871-6.1055 4.5234-5.5898 6.7344-12.703 6.1719-19.871-0.078125-2.9023 0.27344-5.7969 1.0391-8.5977 1.3828-2.3672 3.1016-4.5234 5.1016-6.4062 5.6406-4.7305 9.2227-11.473 9.9805-18.797-0.75781-7.3281-4.3398-14.07-9.9805-18.801-1.9961-1.8789-3.7109-4.0312-5.1016-6.3906-0.76563-2.8047-1.1172-5.707-1.0391-8.6133 0.58203-7.1602-1.6055-14.27-6.1094-19.867-5.5938-4.5078-12.707-6.6953-19.867-6.1094-2.9102 0.066406-5.8086-0.28906-8.6133-1.0547-2.3672-1.3867-4.5273-3.1055-6.4102-5.1016-4.7422-5.6406-11.496-9.207-18.828-9.9492-7.3125 0.76172-14.039 4.3359-18.766 9.9648-1.8828 1.9961-4.043 3.7148-6.4102 5.1016-2.8047 0.76563-5.7031 1.1211-8.6094 1.0547-7.1641-0.58594-14.277 1.6016-19.871 6.1094-4.5273 5.5859-6.7344 12.699-6.1719 19.867 0.078125 2.9023-0.27344 5.7969-1.0391 8.5977-1.3828 2.3672-3.1016 4.5273-5.1016 6.4062-5.6172 4.7422-9.1758 11.484-9.918 18.801 0.75781 7.3242 4.3398 14.066 9.9805 18.797 1.9922 1.875 3.7109 4.0234 5.1016 6.375zm76.547 71.102-11.383-7.5898c-2.6445-1.7617-6.0898-1.7617-8.7344 0l-11.383 7.5898-0.003907-27.613c4.168 4.2852 9.7812 6.8633 15.746 7.2266 5.9648-0.36328 11.578-2.9414 15.742-7.2266zm-70.168-104.3c3.375-3.1875 6.1445-6.9648 8.168-11.145 1.5469-4.5117 2.2852-9.2617 2.1758-14.031-0.1875-3.1914 0.34766-6.3828 1.5742-9.3359 2.9492-1.2266 6.1445-1.7656 9.3359-1.5742 4.7773 0.089844 9.5312-0.66797 14.043-2.2344 4.1797-2.0273 7.957-4.7969 11.148-8.1719 2.7227-2.5508 6.0938-5.7148 8.0156-5.7148s5.2891 3.1484 8.0156 5.7148h-0.003906c3.1875 3.375 6.9648 6.1445 11.145 8.1719 4.5117 1.5664 9.2695 2.3242 14.043 2.2344 3.1914-0.19141 6.3867 0.34766 9.3359 1.5742 1.2266 2.9531 1.7617 6.1445 1.5742 9.3359-0.085937 4.7773 0.67188 9.5312 2.2383 14.047 2.0273 4.1719 4.7969 7.9414 8.1719 11.129 2.5508 2.7227 5.7148 6.1094 5.7148 8.0312s-3.1484 5.3047-5.7148 8.0312v-0.003906c-3.3789 3.1914-6.1484 6.9688-8.1719 11.148-1.5664 4.5-2.3242 9.2461-2.2383 14.012 0.1875 3.1914-0.34766 6.3828-1.5742 9.3359-2.9492 1.2305-6.1445 1.7656-9.3359 1.5742-4.7773-0.078125-9.5312 0.68359-14.043 2.25-4.1797 2.0312-7.9531 4.7969-11.145 8.1719-2.7227 2.5352-6.0938 5.6992-8.0156 5.6992s-5.2891-3.1484-8.0156-5.6992h0.003906c-3.1914-3.375-6.9688-6.1406-11.148-8.1719-4.5117-1.5664-9.2656-2.3281-14.043-2.25-3.1914 0.19141-6.3867-0.34375-9.3359-1.5742-1.2227-2.9531-1.7617-6.1445-1.5742-9.3359 0.085937-4.7695-0.67188-9.5195-2.2383-14.027-2.0273-4.1758-4.7969-7.9453-8.168-11.133-2.5508-2.7227-5.7148-6.1094-5.7148-8.0312-0.003906-1.918 3.2266-5.3047 5.7773-8.0273z"/>
 </g>
</svg>