<?xml version="1.0" encoding="UTF-8"?>
<!-- The Best Svg Icon site in the world: iconSvg.co, Visit us! https://iconsvg.co -->
<svg fill="#000000" width="800px" height="800px" version="1.1" viewBox="144 144 512 512" xmlns="http://www.w3.org/2000/svg">
 <g>
  <path d="m400.18 363.8c-7.9766-0.13672-15.188-4.6289-18.828-11.734-2.6328-5.1211-3.1055-10.969-1.3438-16.449 1.7617-5.4805 5.5625-9.9492 10.684-12.586 10.57-5.4141 23.625-1.2383 29.074 9.3398 2.625 5.1523 8.9648 7.1992 14.129 4.5547s7.1992-8.9648 4.5547-14.129c-5.9609-11.629-16.625-19.164-28.477-21.875v-7.4961c0-5.8047-4.6914-10.496-10.496-10.496-5.8047 0-10.496 4.6914-10.496 10.496v7.8398c-2.6641 0.75391-5.2891 1.7617-7.8516 3.0742-10.109 5.1953-17.602 14.012-21.086 24.832-3.4727 10.82-2.5391 22.355 2.6562 32.465 7.1914 14 21.422 22.871 37.156 23.145 7.9648 0.13672 15.176 4.6172 18.82 11.723 2.6328 5.1211 3.1172 10.957 1.3555 16.449-1.7617 5.4883-5.5625 9.9492-10.715 12.586-5.1133 2.6328-10.988 3.1055-16.449 1.3555-5.4805-1.7617-9.9492-5.5625-12.586-10.695-2.6445-5.1641-8.9727-7.2227-14.129-4.5664-5.1641 2.6445-7.1992 8.9648-4.5547 14.137 5.1836 10.129 14.012 17.613 24.832 21.098 0.83984 0.25 1.6914 0.38672 2.5391 0.60938v7.6523c0 5.8047 4.6797 10.496 10.496 10.496 5.8047 0 10.496-4.6914 10.496-10.496l0.003907-7.5781c3.0547-0.76562 6.0664-1.8594 8.9531-3.3281 10.129-5.1836 17.613-14 21.098-24.824 3.4844-10.82 2.5391-22.355-2.6641-32.477-7.2148-14-21.449-22.859-37.172-23.121z"/>
  <path d="m610.75 535.66h-421.51c-11.117 0-20.152 9.0352-20.152 20.152 0 11.137 9.0352 20.172 20.152 20.172h421.51c11.137 0 20.164-9.0352 20.164-20.172-0.003906-11.094-9.0508-20.152-20.164-20.152z"/>
  <path d="m577.97 224.01h-355.95c-15.641 0-28.371 12.73-28.371 28.371v243.81c0 15.641 12.73 28.371 28.371 28.371h355.95c15.641 0 28.371-12.73 28.371-28.371v-243.8c0-15.652-12.73-28.383-28.371-28.383zm-99.469 213.71c-19.25 23.836-47.895 37.512-78.562 37.512-21.465 0-42.52-6.9492-59.797-19.68-14.402 12.406-32.602 19.156-51.746 19.156-7.8398 0-15.617-1.1562-23.133-3.4336-2.3086-0.70312-3.832-2.875-3.7148-5.2891 0.11719-2.4023 1.8594-4.418 4.207-4.8906 20.52-4.0938 37.828-17.602 46.793-36.391-20.75-35.992-17.285-81.398 8.9336-113.85 19.25-23.836 47.895-37.512 78.574-37.512 22.965 0 45.469 7.9648 63.363 22.43 20.973 16.93 34.09 41.039 36.945 67.848 2.8516 26.805-4.9023 53.129-21.863 74.102z"/>
 </g>
</svg>