<?xml version="1.0" encoding="UTF-8"?>
<!-- The Best Svg Icon site in the world: iconSvg.co, Visit us! https://iconsvg.co -->
<svg fill="#000000" width="800px" height="800px" version="1.1" viewBox="144 144 512 512" xmlns="http://www.w3.org/2000/svg">
 <g>
  <path d="m344.89 455.1v47.234c0 4.3477 3.5234 7.8711 7.8711 7.8711s7.8711-3.5234 7.8711-7.8711v-47.234c0-4.3477-3.5234-7.8711-7.8711-7.8711s-7.8711 3.5234-7.8711 7.8711z"/>
  <path d="m470.85 478.72v23.617c0.027344 6.1211-2.3359 12.016-6.5859 16.422-4.25 4.4102-10.055 6.9883-16.176 7.1836-6.1211 0.19531-12.074-2.0039-16.598-6.1289-4.293 3.9453-9.9141 6.1406-15.746 6.1406-5.832 0-11.453-2.1953-15.742-6.1406-4.293 3.9453-9.9141 6.1406-15.746 6.1406-5.832 0-11.453-2.1953-15.742-6.1406-3.1094 2.9023-6.9648 4.8828-11.137 5.7148-4.1719 0.83594-8.4922 0.49219-12.48-0.99219v17.16h208.92c-7.8008-8.6328-12.121-19.852-12.121-31.488s4.3203-22.855 12.121-31.488z"/>
  <path d="m376.38 455.1v47.234c0 4.3477 3.5234 7.8711 7.8711 7.8711s7.8711-3.5234 7.8711-7.8711v-47.234c0-4.3477-3.5234-7.8711-7.8711-7.8711s-7.8711 3.5234-7.8711 7.8711z"/>
  <path d="m588.93 478.72c-8.3516 0-16.359 3.3164-22.266 9.2227-5.9023 5.9062-9.2227 13.914-9.2227 22.266 0 8.3516 3.3203 16.359 9.2227 22.266 5.9062 5.9062 13.914 9.2227 22.266 9.2227 8.3516 0 16.363-3.3164 22.266-9.2227 5.9062-5.9062 9.2227-13.914 9.2227-22.266 0-8.3516-3.3164-16.359-9.2227-22.266-5.9023-5.9062-13.914-9.2227-22.266-9.2227zm0 39.359c4.3477 0 7.875 3.5234 7.875 7.8711 0 4.3477-3.5273 7.875-7.875 7.875-8.4375 0-16.23-4.5039-20.449-11.809-4.2188-7.3086-4.2188-16.309 0-23.617 4.2188-7.3047 12.012-11.809 20.449-11.809 4.3477 0 7.875 3.5234 7.875 7.8711 0 4.3477-3.5273 7.875-7.875 7.875-4.3477 0-7.8711 3.5234-7.8711 7.8711 0 4.3477 3.5234 7.8711 7.8711 7.8711z"/>
  <path d="m329.02 628.91h110.46c0-0.21094-0.125-0.40234-0.125-0.62109v-15.746c-0.015625-1.2188 0.25391-2.4219 0.78516-3.5195l14.957-29.828v-21.758h-110.21v15.746c0 4.3477-3.5234 7.8711-7.8711 7.8711-4.3477 0-7.875-3.5234-7.875-7.8711v-55.105c0-4.1758-1.6562-8.1797-4.6094-11.133-2.9531-2.9531-6.957-4.6094-11.133-4.6094h-7.8711v76.098l22.039 29.387c1.0234 1.3633 1.5742 3.0195 1.5742 4.7227v15.742c0 0.22266-0.10938 0.41016-0.125 0.625z"/>
  <path d="m407.87 455.1v47.234c0 4.3477 3.5234 7.8711 7.8711 7.8711 4.3477 0 7.8711-3.5234 7.8711-7.8711v-47.234c0-4.3477-3.5234-7.8711-7.8711-7.8711-4.3477 0-7.8711 3.5234-7.8711 7.8711z"/>
  <path d="m179.58 510.21c0 8.3516 3.3164 16.359 9.2227 22.266s13.914 9.2227 22.266 9.2227h78.719v-47.234c0-4.3477 3.5273-7.8711 7.875-7.8711h15.742c5.543 0.035156 10.98 1.543 15.742 4.3789v-12.25h-118.08c-8.3516 0-16.359 3.3164-22.266 9.2227s-9.2227 13.914-9.2227 22.266z"/>
  <path d="m439.36 455.1v47.234c0 4.3477 3.5234 7.8711 7.8711 7.8711 4.3477 0 7.8711-3.5234 7.8711-7.8711v-47.234c0-4.3477-3.5234-7.8711-7.8711-7.8711-4.3477 0-7.8711 3.5234-7.8711 7.8711z"/>
  <path d="m305.54 344.89c0.26953-11.773 2.4766-23.422 6.5312-34.48-7.8789-11.312-17.875-20.988-29.441-28.496h-48.648c-28.652 17.477-54.395 61.875-54.395 94.465 0 38.102 39.516 55.105 78.719 55.105 27.551 0 62.348-9.2109 74.312-34.637-17.262-11.598-27.461-31.164-27.078-51.957zm-55.105 7.8711h15.746c8.4336 0 16.23 4.5 20.449 11.809 4.2188 7.3086 4.2188 16.309 0 23.617-4.2188 7.3047-12.016 11.809-20.449 11.809v7.8711c0 4.3477-3.5273 7.8711-7.875 7.8711-4.3477 0-7.8711-3.5234-7.8711-7.8711v-7.8711c-6.2617 0-12.27-2.4883-16.699-6.918-4.4297-4.4297-6.918-10.438-6.918-16.699 0-4.3477 3.5273-7.8711 7.875-7.8711s7.8711 3.5234 7.8711 7.8711c0 2.0859 0.82812 4.0898 2.3047 5.5664 1.4766 1.4766 3.4805 2.3047 5.5664 2.3047h15.746c4.3477 0 7.8711-3.5234 7.8711-7.8711 0-4.3477-3.5234-7.8711-7.8711-7.8711h-15.746c-8.4375 0-16.234-4.5039-20.453-11.809-4.2188-7.3086-4.2188-16.309 0-23.617 4.2188-7.3047 12.016-11.809 20.453-11.809v-7.8711c0-4.3477 3.5234-7.8711 7.8711-7.8711 4.3477 0 7.875 3.5234 7.875 7.8711v7.8711c6.2617 0 12.27 2.4883 16.699 6.918 4.4258 4.4297 6.9141 10.438 6.9141 16.699 0 4.3477-3.5234 7.8711-7.8711 7.8711-4.3477 0-7.8711-3.5234-7.8711-7.8711 0-2.0898-0.83203-4.0898-2.3047-5.5664-1.4766-1.4766-3.4805-2.3047-5.5664-2.3047h-15.746c-4.3477 0-7.8711 3.5234-7.8711 7.8711 0 4.3477 3.5234 7.8711 7.8711 7.8711z"/>
  <path d="m421.33 193.04c-3.0938 3.0703-8.0859 3.0703-11.18 0l-13.383-13.461h-39.121l15.742 31.488h53.215l15.742-31.488h-7.6367z"/>
  <path d="m297.66 262.24c0-1.043-0.41797-2.0469-1.1562-2.7852-0.73828-0.73828-1.7383-1.1523-2.7812-1.1523h-70.848c-2.1758 0-3.9375 1.7617-3.9375 3.9375 0 2.1719 1.7617 3.9375 3.9375 3.9375h70.848c1.043 0 2.043-0.41797 2.7812-1.1562 0.73828-0.73828 1.1562-1.7383 1.1562-2.7812z"/>
  <path d="m563.03 224.53c-3.0938 3.0703-8.082 3.0703-11.176 0l-13.383-13.461h-39.125l15.742 31.488h53.215l15.742-31.488h-7.6367z"/>
  <path d="m581.05 262.24c0-1.043-0.41406-2.0469-1.1523-2.7852-0.73828-0.73828-1.7383-1.1523-2.7852-1.1523h-70.848c-2.1719 0-3.9336 1.7617-3.9336 3.9375 0 2.1719 1.7617 3.9375 3.9336 3.9375h70.848c1.0469 0 2.0469-0.41797 2.7852-1.1562 0.73828-0.73828 1.1523-1.7383 1.1523-2.7812z"/>
  <path d="m439.36 230.75c0-1.043-0.41406-2.0469-1.1523-2.7812-0.73828-0.73828-1.7422-1.1562-2.7852-1.1562h-70.848c-2.1719 0-3.9375 1.7656-3.9375 3.9375s1.7656 3.9375 3.9375 3.9375h70.848c1.043 0 2.0469-0.41797 2.7852-1.1562 0.73828-0.73438 1.1523-1.7383 1.1523-2.7812z"/>
  <path d="m400 400c18.707 0.52734 37.215-3.957 53.605-12.992 7.6875-3.9922 14.105-10.051 18.539-17.488 4.4375-7.4375 6.7109-15.965 6.5742-24.625-0.37891-11.32-2.75-22.488-7.0078-32.984-9.0898-24.906-25.672-46.383-47.465-61.48h-48.57c-28.656 17.477-54.398 61.875-54.398 94.465 0 38.102 39.52 55.105 78.723 55.105zm7.8711-62.977h-15.746c-8.4375 0-16.23-4.5039-20.449-11.809-4.2188-7.3086-4.2188-16.309 0-23.617 4.2188-7.3047 12.012-11.809 20.449-11.809v-7.8711c0-4.3477 3.5273-7.8711 7.875-7.8711s7.8711 3.5234 7.8711 7.8711v7.8711c6.2617 0 12.27 2.4883 16.699 6.918 4.4297 4.4297 6.918 10.438 6.918 16.699 0 4.3477-3.5273 7.8711-7.875 7.8711-4.3477 0-7.8711-3.5234-7.8711-7.8711 0-2.0859-0.82813-4.0898-2.3047-5.5664-1.4766-1.4766-3.4805-2.3047-5.5664-2.3047h-15.746c-4.3477 0-7.8711 3.5234-7.8711 7.8711s3.5234 7.8711 7.8711 7.8711h15.746c8.4375 0 16.234 4.5039 20.453 11.809 4.2188 7.3086 4.2188 16.309 0 23.617-4.2188 7.3047-12.016 11.809-20.453 11.809v7.8711c0 4.3477-3.5234 7.8711-7.8711 7.8711s-7.875-3.5234-7.875-7.8711v-7.8711c-6.2617 0-12.27-2.4883-16.699-6.918-4.4258-4.4297-6.9141-10.438-6.9141-16.699 0-4.3477 3.5234-7.8711 7.8711-7.8711 4.3477 0 7.8711 3.5234 7.8711 7.8711 0 2.0859 0.82812 4.0898 2.3047 5.5664 1.4766 1.4766 3.4805 2.3047 5.5664 2.3047h15.746c4.3477 0 7.8711-3.5234 7.8711-7.8711 0-4.3477-3.5234-7.8711-7.8711-7.8711z"/>
  <path d="m541.7 431.49c39.203 0 78.719-17.004 78.719-55.105 0-32.59-25.742-76.988-54.395-94.465h-48.648c-11.594 7.5312-21.617 17.234-29.52 28.574 4.0625 11.031 6.2969 22.652 6.6094 34.402 0.30859 20.773-9.9102 40.293-27.156 51.875 12.043 25.508 46.84 34.719 74.391 34.719zm7.8711-62.977h-15.742c-8.4375 0-16.234-4.5039-20.453-11.809-4.2188-7.3086-4.2188-16.309 0-23.617 4.2188-7.3047 12.016-11.809 20.453-11.809v-7.8711c0-4.3477 3.5234-7.8711 7.8711-7.8711 4.3477 0 7.8711 3.5234 7.8711 7.8711v7.8711c6.2656 0 12.27 2.4883 16.699 6.918 4.4297 4.4297 6.918 10.438 6.918 16.699 0 4.3477-3.5234 7.8711-7.8711 7.8711s-7.875-3.5234-7.875-7.8711c0-2.0898-0.82812-4.0898-2.3047-5.5664-1.4766-1.4766-3.4766-2.3047-5.5664-2.3047h-15.742c-4.3477 0-7.875 3.5234-7.875 7.8711 0 4.3477 3.5273 7.8711 7.875 7.8711h15.742c8.4375 0 16.234 4.5 20.453 11.809 4.2188 7.3086 4.2188 16.309 0 23.617-4.2188 7.3047-12.016 11.809-20.453 11.809v7.8711c0 4.3477-3.5234 7.8711-7.8711 7.8711-4.3477 0-7.8711-3.5234-7.8711-7.8711v-7.8711c-6.2656 0-12.273-2.4883-16.699-6.918-4.4297-4.4297-6.918-10.438-6.918-16.699 0-4.3477 3.5234-7.8711 7.8711-7.8711s7.8711 3.5234 7.8711 7.8711c0 2.0859 0.83203 4.0898 2.3086 5.5664 1.4766 1.4766 3.4766 2.3047 5.5664 2.3047h15.742c4.3477 0 7.8711-3.5234 7.8711-7.8711 0-4.3477-3.5234-7.8711-7.8711-7.8711z"/>
  <path d="m279.64 224.53c-3.0938 3.0703-8.0859 3.0703-11.18 0l-13.383-13.461h-39.125l15.742 31.488h53.215l15.742-31.488h-7.6367z"/>
 </g>
</svg>