<?xml version="1.0" encoding="UTF-8"?>
<!-- The Best Svg Icon site in the world: iconSvg.co, Visit us! https://iconsvg.co -->
<svg fill="#000000" width="800px" height="800px" version="1.1" viewBox="144 144 512 512" xmlns="http://www.w3.org/2000/svg">
 <g>
  <path d="m632.53 504.3h-15.066v-245.62c-0.050782-12.145-4.9141-23.773-13.531-32.332-8.6133-8.5586-20.273-13.348-32.418-13.316h-343.04c-12.145-0.03125-23.805 4.7578-32.418 13.316-8.6133 8.5586-13.48 20.188-13.527 32.332v245.62h-15.066c-3.2617 0-5.5977 3.0469-5.5977 6.3086v30.699c-0.050782 12.098 4.7227 23.719 13.27 32.285 8.543 8.5703 20.148 13.379 32.25 13.363h385.22c12.098 0.015624 23.703-4.793 32.25-13.363 8.543-8.5664 13.316-20.188 13.27-32.285v-30.699c0-3.2617-2.3398-6.3086-5.5977-6.3086zm-438.19-245.62c0.042969-9.0156 3.6641-17.641 10.062-23.984 6.4023-6.3477 15.062-9.8906 24.074-9.8555h164.64s-0.011719-0.0625-0.011719 0v27.551c0.019531 1.0156 0.24219 2.0195 0.64844 2.9531h-46.988l-7.3867-16.609c-1.3203-2.9883-4.8086-4.3477-7.8047-3.0352-2.9805 1.3789-4.3008 4.8984-2.9688 7.9023l5.2188 11.742h-105.88c-1.5508-0.066406-3.0664 0.49219-4.207 1.5508-1.1367 1.0586-1.8047 2.5273-1.8516 4.082v212.87c0.078125 3.2773 2.7812 5.8867 6.0586 5.8477h344.09c3.2812 0.039063 5.9805-2.5703 6.0586-5.8477v-212.87c-0.046874-1.5547-0.71484-3.0234-1.8516-4.082-1.1406-1.0586-2.6523-1.6172-4.207-1.5508h-115.87l5.9023-15.66 0.003906-0.003906c0.57031-1.4648 0.53125-3.1016-0.10938-4.543-0.64062-1.4375-1.832-2.5625-3.3047-3.1172-1.4727-0.55859-3.1094-0.5-4.543 0.15625-1.4297 0.65625-2.5391 1.8594-3.082 3.3398l-7.5 19.828h-39.27c0.41016-0.93359 0.62891-1.9375 0.64844-2.9531v-27.551c0-0.058594-0.007813 0-0.007813 0h166.61c9.0156-0.035156 17.672 3.5078 24.074 9.8555 6.3984 6.3438 10.02 14.969 10.066 23.984v245.62h-147.09c-1.6719 0.074218-3.2422 0.83594-4.3398 2.1055l-8.1016 8.6836c-6.4609 6.9492-15.527 10.887-25.016 10.855h-42.215 0.003906c-9.4766 0.066406-18.543-3.832-25.016-10.754l-8.1016-8.8906c-1.1094-1.2422-2.6797-1.9648-4.3438-2h-147.09zm247.48 8.4688c0.66797 0.94531 1.6289 1.6445 2.7305 1.9922 0.66797 0.27734 1.3789 0.43359 2.0977 0.45703 1.9023 0 3.7031-1.4609 4.8164-2.4453l114.83-0.003906v200.74h-332.59v-200.74h105.43l0.88672 1.8398h-0.003906c0.96094 2.1094 3.0742 3.4492 5.3906 3.4219 0.82422 0.035156 1.6484-0.10547 2.4141-0.41797 1.9453-0.87109 3.2734-2.7188 3.4727-4.8438zm184.5 274.16c0.050782 8.9688-3.4805 17.586-9.8086 23.938-6.332 6.3555-14.934 9.918-23.902 9.9023h-385.22c-8.9688 0.015625-17.574-3.5469-23.906-9.9023-6.3281-6.3516-9.8594-14.969-9.8047-23.938v-25.203h165.16l6.3516 6.8867v0.003906c8.6836 9.3984 20.898 14.746 33.695 14.758h42.215-0.003907c12.801-0.011718 25.016-5.3594 33.707-14.758l6.3477-6.8867 165.16-0.003906z"/>
  <path d="m323.26 367.72c-0.078125 20.68 8.2617 40.504 23.102 54.906h-20.164c-3.2617 0-5.9062 2.6445-5.9062 5.9062 0 3.2617 2.6445 5.9023 5.9062 5.9023h146.62c3.2578 0 5.9023-2.6406 5.9023-5.9023 0-3.2617-2.6445-5.9062-5.9023-5.9062h-19.289c18.391-17.945 26.574-43.91 21.793-69.16s-21.891-46.426-45.57-56.406-50.785-7.4414-72.195 6.7695c-21.414 14.207-34.289 38.195-34.293 63.891zm141.57 0c0.070313 22.312-11.391 43.078-30.309 54.906h-32.242c1.6484-1.0898 2.6406-2.9375 2.6406-4.918v-5.5898c7.8945-1.6523 14.449-7.125 17.484-14.598 3.0352-7.4727 2.1562-15.965-2.3477-22.656-4.5039-6.6914-12.039-10.703-20.105-10.699-5.0273 0-9.5586-3.0312-11.48-7.6719-1.9258-4.6445-0.86328-9.9922 2.6914-13.543 3.5547-3.5547 8.9023-4.6172 13.543-2.6953 4.6445 1.9258 7.6719 6.457 7.6719 11.48 0 3.2617 2.6445 5.9062 5.9062 5.9062 3.2578 0 5.9023-2.6445 5.9023-5.9062-0.007813-5.5625-1.9258-10.953-5.4297-15.27-3.5078-4.3203-8.3906-7.3008-13.836-8.4492v-4.7734c0-3.2617-2.6445-5.9023-5.9023-5.9023-3.2617 0-5.9062 2.6406-5.9062 5.9023v5.2461c-7.5156 2.2109-13.504 7.9219-16.062 15.332-2.5625 7.4062-1.3828 15.594 3.1641 21.977 4.5469 6.3828 11.902 10.172 19.738 10.172 5.0234 0 9.5586 3.0273 11.48 7.6719 1.9219 4.6445 0.85937 9.9883-2.6953 13.543s-8.8984 4.6172-13.543 2.6953c-4.6406-1.9258-7.6719-6.457-7.6719-11.48 0-3.2617-2.6406-5.9062-5.9023-5.9062-3.2617 0-5.9023 2.6445-5.9023 5.9062 0.007812 5.2305 1.7031 10.32 4.8398 14.508 3.1328 4.1914 7.5391 7.2539 12.555 8.7383v6.0625c0 1.9805 0.99219 3.8281 2.6445 4.918h-30.375c-19.426-12.23-30.941-33.816-30.281-56.762 0.66016-22.949 13.395-43.84 33.492-54.934 20.098-11.098 44.559-10.746 64.332 0.92188 19.77 11.664 31.902 32.91 31.906 55.867z"/>
  <path d="m493.5 299.18c1.5664 0.003906 3.0664-0.62109 4.1758-1.7266l19.703-19.703h-0.003906c1.125-1.1055 1.7578-2.6133 1.7656-4.1875 0.003907-1.5742-0.61719-3.082-1.7305-4.1953-1.1133-1.1133-2.625-1.7383-4.1992-1.7305-1.5742 0.007812-3.0781 0.64062-4.1836 1.7617l-19.703 19.703c-1.6875 1.6875-2.1953 4.2266-1.2812 6.4336 0.91406 2.207 3.0664 3.6445 5.457 3.6445z"/>
  <path d="m290.48 269.73c-2.3086-2.3047-6.0469-2.3047-8.3516 0-2.3047 2.3086-2.3047 6.0469 0 8.3516l19.703 19.703c2.3047 2.3047 6.043 2.3047 8.3477 0 2.3086-2.3086 2.3086-6.0469 0.003906-8.3516z"/>
 </g>
</svg>