<?xml version="1.0" encoding="UTF-8"?>
<!-- The Best Svg Icon site in the world: iconSvg.co, Visit us! https://iconsvg.co -->
<svg fill="#000000" width="800px" height="800px" version="1.1" viewBox="144 144 512 512" xmlns="http://www.w3.org/2000/svg">
 <g>
  <path d="m618.39 487.94c-0.097657 0.39844-0.25391 0.78516-0.45703 1.1445-2.3594 5.6094-6.7188 10.148-12.23 12.73l-163.23 93.023c-8.1914 4.6562-17.992 5.5391-26.887 2.4258l-117.57-41.906c-3.9805-1.4336-8.1797-2.1602-12.41-2.1523h-10.855v-125.72h26.199c14.344-0.003907 28.578 2.5234 42.043 7.4648l55.145 20.152h63.574c7.25 0.007813 14.176 3.0078 19.145 8.2891 4.5625 4.75 6.9375 11.191 6.5469 17.77-0.14453 2.4844-0.68359 4.9258-1.6016 7.2383l99.48-31.145c5.8867-2.6445 12.582-2.8594 18.625-0.60156 6.0469 2.2578 10.961 6.8125 13.672 12.668 2.7109 5.8555 3.0039 12.547 0.81641 18.621z"/>
  <path d="m265.58 409.94v158.93c-0.007812 4.8906-1.957 9.582-5.4141 13.043-3.4609 3.457-8.1523 5.4062-13.043 5.4141h-48.504c-4.8945-0.007813-9.5859-1.9531-13.047-5.4141-3.4609-3.457-5.4102-8.1484-5.418-13.043v-158.93c0.007812-4.8867 1.957-9.5703 5.418-13.023 3.4609-3.4531 8.1484-5.3906 13.039-5.3906h48.504-0.003907c4.8906 0 9.582 1.9336 13.043 5.3867 3.4648 3.4531 5.4141 8.1367 5.4258 13.027z"/>
  <path d="m467.97 299.88c-0.14844 3.2734 1.3906 6.3945 4.0781 8.2695 3.668 2.3594 7.7266 4.0508 11.984 4.9922v-26.77c-4.2266 0.39844-8.2617 1.9336-11.688 4.4375-2.8359 2.1406-4.4648 5.5156-4.375 9.0703z"/>
  <path d="m487.78 241.71c-20.621 0.003906-40.395 8.2031-54.973 22.785-14.574 14.582-22.766 34.359-22.762 54.977 0 20.621 8.1953 40.395 22.773 54.977 14.582 14.578 34.355 22.773 54.977 22.773 20.617 0.003906 40.395-8.1875 54.977-22.762 14.582-14.578 22.777-34.352 22.785-54.973-0.023438-20.621-8.2227-40.391-22.805-54.973s-34.352-22.781-54.973-22.805zm28.32 109.39h-0.003906c-2.4688 3.6211-5.8789 6.5039-9.8594 8.3359-4.6406 2.1641-9.668 3.3867-14.785 3.5898v8.6406c0.03125 0.97656-0.33984 1.9219-1.0312 2.6133-1.5195 1.3555-3.8047 1.3828-5.3594 0.0625-0.70312-0.70703-1.0781-1.6797-1.0273-2.6758v-8.6406c-8.4609-0.49609-16.77-2.4336-24.578-5.7188-0.99219-0.41797-1.8398-1.1133-2.4375-2.0078-0.62891-0.86719-0.96875-1.9141-0.96875-2.9844-0.019531-1.332 0.48438-2.6172 1.3945-3.5859 0.91797-1.0078 2.2266-1.5625 3.5859-1.5234 0.80078-0.003906 1.5898 0.16406 2.3164 0.49219 6.5312 2.9023 13.547 4.5547 20.688 4.8633v-27.988c-4.7656-1.1953-9.4258-2.7773-13.934-4.7266-3.6758-1.625-6.9102-4.1094-9.4258-7.2422-2.6055-3.3906-3.9414-7.5898-3.7734-11.863-0.035157-4.0977 1.0391-8.1328 3.0977-11.68 2.2383-3.7305 5.4297-6.8008 9.25-8.8828 4.5547-2.4883 9.6016-3.9414 14.785-4.2617v-8.5195 0.003906c-0.023438-0.99609 0.34766-1.9531 1.0273-2.6758 0.67969-0.72656 1.6328-1.125 2.625-1.0938 1.0039-0.011718 1.9688 0.38281 2.6758 1.0898 0.70703 0.71094 1.1016 1.6758 1.0898 2.6797v8.3945c7.2305 0.1875 14.383 1.543 21.18 4.0156 2.1367 0.62109 3.5547 2.6484 3.4062 4.8672 0 1.3008-0.47656 2.5586-1.3359 3.5312-0.875 1.043-2.1797 1.625-3.5391 1.5781-0.66797-0.042968-1.3242-0.20703-1.9375-0.48828-5.7266-1.9766-11.719-3.082-17.773-3.2773v28.961c4.9648 1.0977 9.8281 2.6055 14.547 4.5 3.7773 1.5664 7.1016 4.0508 9.6719 7.2344 2.7422 3.6523 4.1172 8.1523 3.8945 12.711 0.039062 4.1523-1.168 8.2148-3.4688 11.672z"/>
  <path d="m504.29 331.33c-4.0391-2.2031-8.3516-3.8594-12.824-4.9258v26.16c11.445-0.8125 17.164-5.4375 17.16-13.875v0.003906c0.054688-3.0742-1.6211-5.918-4.3359-7.3633z"/>
  <path d="m487.76 200.9c-31.441 0.007812-61.59 12.5-83.82 34.734-22.227 22.234-34.715 52.387-34.711 83.828 0 31.441 12.492 61.594 34.723 83.824 22.23 22.23 52.383 34.723 83.824 34.723 31.441 0.003906 61.594-12.484 83.828-34.711 22.234-22.23 34.73-52.379 34.734-83.82-0.023438-31.441-12.523-61.59-34.758-83.82-22.23-22.234-52.379-34.734-83.82-34.758zm0 205.48c-23.051-0.011718-45.152-9.1758-61.445-25.48-16.293-16.309-25.441-38.418-25.434-61.469 0.007813-23.051 9.1758-45.156 25.48-61.449 16.305-16.293 38.414-25.441 61.465-25.434s45.156 9.1719 61.449 25.477c16.297 16.305 25.445 38.414 25.438 61.465-0.023438 23.047-9.1953 45.141-25.496 61.43-16.301 16.293-38.398 25.449-61.441 25.461z"/>
 </g>
</svg>