<?xml version="1.0" encoding="UTF-8"?>
<!-- The Best Svg Icon site in the world: iconSvg.co, Visit us! https://iconsvg.co -->
<svg fill="#000000" width="800px" height="800px" version="1.1" viewBox="144 144 512 512" xmlns="http://www.w3.org/2000/svg">
 <g>
  <path d="m475.89 626.55h-272.69v-453.11h251.9v71.871c0 2.0898 0.83203 4.0898 2.3086 5.5664 1.4727 1.4766 3.4766 2.3047 5.5664 2.3047h70.219l-0.003906 226.16c0 4.3477 3.5273 7.8711 7.875 7.8711s7.8711-3.5234 7.8711-7.8711v-233.32-0.70703-0.003906c0.054688-2.4688-1.1289-4.8008-3.1484-6.2188l-77.066-78.719c-1.5391-1.4844-3.6133-2.2812-5.7461-2.2031h-267.65c-4.3477 0-7.8711 3.5234-7.8711 7.8711v468.39-0.003907c0 2.0898 0.83203 4.0898 2.3047 5.5664 1.4766 1.4766 3.4805 2.3086 5.5664 2.3086h280.56c2.332 0.53125 4.7852-0.027343 6.6562-1.5234 1.8711-1.4922 2.9648-3.7578 2.9648-6.1523s-1.0938-4.6602-2.9648-6.1562c-1.8711-1.4922-4.3242-2.0508-6.6562-1.5195zm-5.0391-441.46 51.797 52.508-51.797-0.003906z"/>
  <path d="m540.91 499.42c-18.766 0.10547-36.723 7.6523-49.934 20.984-13.207 13.328-20.59 31.359-20.52 50.125s7.582 36.738 20.891 49.973c13.305 13.234 31.32 20.648 50.09 20.613 18.766-0.035157 36.754-7.5156 50.012-20.797 13.258-13.281 20.703-31.281 20.703-50.051-0.125-18.82-7.6836-36.828-21.027-50.098s-31.395-20.73-50.215-20.75zm0 127.13c-14.82 0-29.039-5.8867-39.52-16.371-10.48-10.48-16.371-24.695-16.371-39.52 0-14.824 5.8906-29.039 16.371-39.52 10.48-10.484 24.699-16.371 39.52-16.371 14.824 0 29.039 5.8867 39.523 16.371 10.48 10.48 16.371 24.695 16.371 39.52-0.023437 14.816-5.918 29.02-16.395 39.5-10.477 10.477-24.68 16.371-39.5 16.391z"/>
  <path d="m557.44 549.57-23.617 26.371-9.8398-8.582 0.003906 0.003906c-3.2422-1.8125-7.3086-1.1133-9.7578 1.6797-2.4492 2.7891-2.6172 6.9102-0.39844 9.8906l15.742 13.617c3.2031 2.6094 7.8789 2.3008 10.707-0.70703l28.891-31.961c2.2188-3.2812 1.6523-7.7031-1.3242-10.32-2.9766-2.6172-7.4336-2.6133-10.406 0.007812z"/>
  <path d="m252.16 337.02c-7.3945-0.023438-14.492 2.8984-19.734 8.1133-5.2422 5.2188-8.1953 12.305-8.2109 19.699-0.011719 7.3945 2.9141 14.492 8.1367 19.73 5.2227 5.2383 12.309 8.1836 19.707 8.1914 7.3945 0.003907 14.488-2.9258 19.719-8.1562 5.2344-5.2266 8.1719-12.316 8.1719-19.711 0-7.3789-2.9258-14.453-8.1328-19.68-5.2109-5.2227-12.277-8.168-19.656-8.1875zm0 40.227c-5.0352 0-9.5781-3.0391-11.496-7.6992-1.9219-4.6562-0.84375-10.012 2.7305-13.562s8.9375-4.5977 13.582-2.6445c4.6445 1.9492 7.6562 6.5078 7.625 11.547 0.019532 3.3047-1.2852 6.4805-3.6211 8.8164-2.3359 2.3359-5.5117 3.6406-8.8203 3.6211z"/>
  <path d="m301.6 355.52h49.438c4.3477 0 7.8711-3.5273 7.8711-7.875 0-4.3477-3.5234-7.8711-7.8711-7.8711h-49.438c-4.3477 0-7.8711 3.5234-7.8711 7.8711 0 4.3477 3.5234 7.875 7.8711 7.875z"/>
  <path d="m442.19 374.34h-140.59c-4.3477 0-7.8711 3.5234-7.8711 7.8711 0 4.3477 3.5234 7.8711 7.8711 7.8711h140.59c4.3477 0 7.875-3.5234 7.875-7.8711 0-4.3477-3.5273-7.8711-7.875-7.8711z"/>
  <path d="m252.16 444.71c-7.3672 0-14.438 2.9297-19.648 8.1406-5.2109 5.2109-8.1367 12.277-8.1367 19.648s2.9258 14.438 8.1367 19.648c5.2109 5.2109 12.281 8.1406 19.648 8.1406 7.3711 0 14.441-2.9297 19.652-8.1406 5.2109-5.2109 8.1367-12.277 8.1367-19.648-0.019531-7.3633-2.9531-14.418-8.1602-19.625-5.207-5.207-12.262-8.1445-19.629-8.1641zm0 40.148c-6.4648-0.51562-11.449-5.9141-11.449-12.398 0-6.4844 4.9844-11.883 11.449-12.398 3.4609-0.27734 6.8789 0.90625 9.4297 3.2617 2.5469 2.3516 4 5.6641 4 9.1367 0 3.4688-1.4531 6.7812-4 9.1367-2.5508 2.3555-5.9688 3.5391-9.4297 3.2617z"/>
  <path d="m301.6 462.98h49.438c4.3477 0 7.8711-3.5273 7.8711-7.875 0-4.3477-3.5234-7.8711-7.8711-7.8711h-49.438c-4.3477 0-7.8711 3.5234-7.8711 7.8711 0 4.3477 3.5234 7.875 7.8711 7.875z"/>
  <path d="m442.19 481.87h-140.59c-4.3477 0-7.8711 3.5234-7.8711 7.8711 0 4.3477 3.5234 7.875 7.8711 7.875h140.59c4.3477 0 7.875-3.5273 7.875-7.875 0-4.3477-3.5273-7.8711-7.875-7.8711z"/>
  <path d="m252.16 229.57c-7.3672 0-14.438 2.9258-19.648 8.1367-5.2109 5.2109-8.1367 12.281-8.1367 19.652 0 7.3672 2.9258 14.438 8.1367 19.648 5.2109 5.2109 12.281 8.1367 19.648 8.1367 7.3711 0 14.441-2.9258 19.652-8.1367 5.2109-5.2109 8.1367-12.281 8.1367-19.648-0.019531-7.3672-2.9531-14.422-8.1602-19.629-5.207-5.207-12.262-8.1406-19.629-8.1602zm0 40.227c-5.0273 0-9.5625-3.0312-11.488-7.6797-1.9258-4.6484-0.86328-9.9961 2.6953-13.555 3.5586-3.5586 8.9062-4.6211 13.555-2.6953 4.6484 1.9258 7.6797 6.4609 7.6797 11.492 0.019532 3.3047-1.2852 6.4805-3.6211 8.8164-2.3359 2.3359-5.5117 3.6406-8.8203 3.6211z"/>
  <path d="m301.6 247.99h49.438c2.3359 0.53516 4.7852-0.027343 6.6562-1.5195 1.875-1.4922 2.9648-3.7578 2.9648-6.1523 0-2.3984-1.0898-4.6602-2.9648-6.1562-1.8711-1.4922-4.3203-2.0547-6.6562-1.5195h-49.438c-2.3359-0.53516-4.7852 0.027344-6.6562 1.5195-1.875 1.4961-2.9648 3.7578-2.9648 6.1562 0 2.3945 1.0898 4.6602 2.9648 6.1523 1.8711 1.4922 4.3203 2.0547 6.6562 1.5195z"/>
  <path d="m442.19 266.73h-140.59c-4.3477 0-7.8711 3.5234-7.8711 7.8711s3.5234 7.8711 7.8711 7.8711h140.59c4.3477 0 7.875-3.5234 7.875-7.8711s-3.5273-7.8711-7.875-7.8711z"/>
  <path d="m252.16 552.24c-7.3672 0-14.438 2.9297-19.648 8.1406-5.2109 5.2109-8.1367 12.277-8.1367 19.648s2.9258 14.438 8.1367 19.648c5.2109 5.2109 12.281 8.1406 19.648 8.1406 7.3711 0 14.441-2.9297 19.652-8.1406 5.2109-5.2109 8.1367-12.277 8.1367-19.648-0.019531-7.3633-2.9531-14.418-8.1602-19.625-5.207-5.207-12.262-8.1406-19.629-8.1641zm0 40.148c-6.4648-0.51562-11.449-5.9141-11.449-12.398 0-6.4844 4.9844-11.883 11.449-12.398 3.4609-0.27734 6.8789 0.90625 9.4297 3.2617 2.5469 2.3555 4 5.668 4 9.1367s-1.4531 6.7852-4 9.1367c-2.5508 2.3555-5.9688 3.5391-9.4297 3.2617z"/>
  <path d="m301.6 570.66h49.438c4.3477 0 7.8711-3.5234 7.8711-7.8711 0-4.3477-3.5234-7.8711-7.8711-7.8711h-49.438c-4.3477 0-7.8711 3.5234-7.8711 7.8711 0 4.3477 3.5234 7.8711 7.8711 7.8711z"/>
  <path d="m301.6 604.67h140.59c2.3359 0.53125 4.7852-0.027344 6.6602-1.5234 1.8711-1.4922 2.9609-3.7578 2.9609-6.1523 0-2.3945-1.0898-4.6602-2.9609-6.1523-1.875-1.4961-4.3242-2.0547-6.6602-1.5234h-140.59c-2.3359-0.53125-4.7852 0.027344-6.6562 1.5234-1.875 1.4922-2.9648 3.7578-2.9648 6.1523 0 2.3945 1.0898 4.6602 2.9648 6.1523 1.8711 1.4961 4.3203 2.0547 6.6562 1.5234z"/>
 </g>
</svg>