<?xml version="1.0" encoding="UTF-8"?>
<!-- The Best Svg Icon site in the world: iconSvg.co, Visit us! https://iconsvg.co -->
<svg fill="#000000" width="800px" height="800px" version="1.1" viewBox="144 144 512 512" xmlns="http://www.w3.org/2000/svg">
 <g>
  <path d="m400 284.54c-30.621 0-59.988 12.164-81.641 33.816s-33.816 51.02-33.816 81.641 12.164 59.984 33.816 81.637c21.652 21.652 51.02 33.816 81.641 33.816s59.984-12.164 81.637-33.816c21.652-21.652 33.816-51.016 33.816-81.637s-12.164-59.988-33.816-81.641c-21.652-21.652-51.016-33.816-81.637-33.816zm0 209.92v-0.003906c-25.055 0-49.082-9.9492-66.797-27.668-17.715-17.715-27.668-41.742-27.668-66.793 0-25.055 9.9531-49.082 27.668-66.797s41.742-27.668 66.797-27.668c25.051 0 49.078 9.9531 66.793 27.668 17.719 17.715 27.668 41.742 27.668 66.797 0 25.051-9.9492 49.078-27.668 66.793-17.715 17.719-41.742 27.668-66.793 27.668z"/>
  <path d="m629.12 394.12c-4.1953-6.1914-103.18-151.56-229.12-151.56-125.95 0-224.93 145.37-229.13 151.56-2.4023 3.5508-2.4023 8.2031 0 11.754 4.1992 6.1953 103.18 151.56 229.13 151.56 125.95 0 224.93-145.37 229.12-151.56 2.4023-3.5508 2.4023-8.2031 0-11.754zm-229.12 142.32c-101.08 0-187.88-109.58-207.51-136.45 19.629-26.871 106.43-136.45 207.51-136.45 101.07 0 187.88 109.58 207.5 136.45-19.625 26.867-106.43 136.45-207.5 136.45z"/>
  <path d="m431.49 368.51c5.7969 0 10.496-4.6992 10.496-10.496s-4.6992-10.496-10.496-10.496h-20.992v-10.496c0-5.7969-4.6992-10.496-10.496-10.496s-10.496 4.6992-10.496 10.496v10.496h-20.992c-5.7969 0-10.496 4.6992-10.496 10.496v41.984c0 2.7812 1.1055 5.4531 3.0742 7.4219s4.6367 3.0742 7.4219 3.0742h52.48v20.992h-52.48c-5.7969 0-10.496 4.6992-10.496 10.496s4.6992 10.496 10.496 10.496h20.992v10.496c0 5.7969 4.6992 10.496 10.496 10.496s10.496-4.6992 10.496-10.496v-10.496h20.992c2.7812 0 5.4531-1.1094 7.4219-3.0742 1.9648-1.9688 3.0742-4.6406 3.0742-7.4219v-41.984c0-2.7852-1.1094-5.4531-3.0742-7.4219-1.9688-1.9688-4.6406-3.0742-7.4219-3.0742h-52.48v-20.992z"/>
 </g>
</svg>