<?xml version="1.0" encoding="UTF-8"?>
<!-- The Best Svg Icon site in the world: iconSvg.co, Visit us! https://iconsvg.co -->
<svg width="800px" height="800px" version="1.1" viewBox="144 144 512 512" xmlns="http://www.w3.org/2000/svg">
 <defs>
  <clipPath id="d">
   <path d="m148.09 148.09h503.81v283.91h-503.81z"/>
  </clipPath>
  <clipPath id="c">
   <path d="m169 420h294v231.9h-294z"/>
  </clipPath>
  <clipPath id="b">
   <path d="m420 368h231.9v263h-231.9z"/>
  </clipPath>
  <clipPath id="a">
   <path d="m630 337h21.902v22h-21.902z"/>
  </clipPath>
 </defs>
 <g clip-path="url(#d)">
  <path d="m620.41 232.06h-136.45v-31.488h31.488c2.7852 0 5.457-1.1055 7.4219-3.0742 1.9688-1.9688 3.0742-4.6367 3.0742-7.4219v-20.992c0.12109-5.6016-2.0547-11.012-6.0156-14.973-3.9648-3.9648-9.3711-6.1367-14.977-6.0195h-209.92c-5.6055-0.11719-11.012 2.0547-14.977 6.0195-3.9609 3.9609-6.1367 9.3711-6.0156 14.973v20.992c0 2.7852 1.1055 5.4531 3.0742 7.4219s4.6367 3.0742 7.4219 3.0742h31.488v31.488h-136.45c-8.3516 0-16.359 3.3164-22.266 9.2227s-9.2227 13.914-9.2227 22.266v104.96c0 8.3516 3.3164 16.359 9.2227 22.266 5.9062 5.9023 13.914 9.2227 22.266 9.2227h157.44v20.992c0 2.7812 1.1055 5.4531 3.0742 7.4219 1.9688 1.9648 4.6367 3.0742 7.4219 3.0742h73.473v-20.992h-62.977v-41.984h83.969v20.992h20.992v-31.488c0-2.7852-1.1094-5.4531-3.0742-7.4219-1.9688-1.9688-4.6406-3.0742-7.4219-3.0742h-104.96c-5.7969 0-10.496 4.6992-10.496 10.496v20.992h-157.44c-5.7969 0-10.496-4.6992-10.496-10.496v-104.96c0-5.7969 4.6992-10.496 10.496-10.496h440.83c2.7852 0 5.4531 1.1055 7.4219 3.0742s3.0742 4.6367 3.0742 7.4219v41.984h20.992v-41.984c0-8.3516-3.3164-16.359-9.2227-22.266-5.9023-5.9062-13.914-9.2227-22.266-9.2227zm-325.38-62.977 209.92-0.57813h-0.003907c0.023438 0.19141 0.023438 0.38672 0 0.57813v10.496h-209.92zm41.984 31.488h125.95v31.488h-125.95z"/>
 </g>
 <g clip-path="url(#c)">
  <path d="m190.08 620.41v-199.42h-20.992v199.42c0 8.3516 3.3164 16.363 9.2227 22.266 5.9062 5.9062 13.914 9.2227 22.266 9.2227h262.4v-20.992h-262.4c-5.7969 0-10.496-4.6992-10.496-10.496z"/>
 </g>
 <g clip-path="url(#b)">
  <path d="m630.91 515.45c0 25.055-9.9531 49.082-27.668 66.797-17.715 17.715-41.742 27.668-66.797 27.668-25.051 0-49.078-9.9531-66.793-27.668-17.719-17.715-27.668-41.742-27.668-66.797 0-25.051 9.9492-49.078 27.668-66.793 17.715-17.719 41.742-27.668 66.793-27.668h31.488c8.4258 0.24609 16.578-2.9922 22.539-8.9531 5.957-5.9609 9.1953-14.113 8.9492-22.535v-20.992h-20.992v20.992c0.28125 2.8594-0.73438 5.6953-2.7656 7.7266-2.0312 2.0352-4.8672 3.0469-7.7305 2.7695h-31.488c-30.621 0-59.984 12.164-81.637 33.816s-33.816 51.016-33.816 81.637 12.164 59.988 33.816 81.641 51.016 33.816 81.637 33.816c30.621 0 59.988-12.164 81.641-33.816 21.652-21.652 33.816-51.02 33.816-81.641v-136.45h-20.992z"/>
 </g>
 <path d="m578.43 494.46v-10.496c0-5.5664-2.2109-10.906-6.1484-14.84-3.9336-3.9375-9.2734-6.1484-14.844-6.1484h-10.496v-20.992h-20.992v20.992h-10.496c-5.5664 0-10.906 2.2109-14.844 6.1484-3.9336 3.9336-6.1484 9.2734-6.1484 14.84v20.992c0 5.5703 2.2148 10.91 6.1484 14.844 3.9375 3.9375 9.2773 6.1484 14.844 6.1484h41.984v20.992h-41.984v-10.496h-20.992v10.496c0 5.5703 2.2148 10.91 6.1484 14.844 3.9375 3.9375 9.2773 6.1484 14.844 6.1484h10.496v20.992h20.992v-20.992h10.496c5.5703 0 10.91-2.2109 14.844-6.1484 3.9375-3.9336 6.1484-9.2734 6.1484-14.844v-20.992c0-5.5664-2.2109-10.906-6.1484-14.844-3.9336-3.9336-9.2734-6.1484-14.844-6.1484h-41.984v-20.992h41.984v10.496z"/>
 <g clip-path="url(#a)">
  <path d="m630.91 337.02h20.992v20.992h-20.992z"/>
 </g>
 <path d="m578.43 326.53h20.992v20.992h-20.992z"/>
 <path d="m211.07 567.93v31.488c0 2.7852 1.1055 5.4531 3.0742 7.4219s4.6367 3.0742 7.4219 3.0742h31.488v-20.992h-20.992v-20.992z"/>
</svg>