<?xml version="1.0" encoding="UTF-8"?>
<!-- The Best Svg Icon site in the world: iconSvg.co, Visit us! https://iconsvg.co -->
<svg fill="#000000" width="800px" height="800px" version="1.1" viewBox="144 144 512 512" xmlns="http://www.w3.org/2000/svg">
 <g>
  <path d="m175.9 445.38c-2.793-0.85937-5.7188 0.67188-6.582 3.4531-0.85156 2.7695 0.68359 5.7109 3.4531 6.5703l328.7 102.12c0.51562 0.15625 1.0508 0.23047 1.5547 0.23047 1.1641 0 2.332-0.41016 3.2734-1.1445l122.64-97.969c2.2656-1.8047 2.625-5.1133 0.82031-7.3789-1.8047-2.2656-5.1016-2.6328-7.3789-0.82812l-120.46 96.227-99.734-30.984v-41.492l99.281 30.836c0.51562 0.15625 1.0508 0.23047 1.5547 0.23047 1.1641 0 2.332-0.41016 3.2734-1.1445l122.64-97.969c2.2656-1.8047 2.625-5.1133 0.82031-7.3789-1.8047-2.2656-5.1016-2.6328-7.3789-0.82812l-120.46 96.227-99.734-30.996v-41.48l99.281 30.836c1.6602 0.52344 3.4727 0.1875 4.8281-0.91406l122.64-97.969c1.5234-1.2188 2.2461-3.1602 1.8789-5.0703-0.35547-1.9102-1.7422-3.4531-3.6016-4.0391l-328.68-102.08c-1.6602-0.51562-3.4727-0.1875-4.8281 0.91406l-122.64 97.969c-1.5234 1.2188-2.2461 3.168-1.8789 5.0703 0.35547 1.9219 1.7422 3.4648 3.6016 4.0508l102.4 31.805v41.492l-99.27-30.84c-2.793-0.83984-5.7188 0.68359-6.5703 3.4531-0.85938 2.7695 0.67188 5.7109 3.4414 6.5703l102.4 31.805v41.492zm326.04-3.6406-93.98-29.191 112.73-90.055 93.98 29.199zm-316.59-98.379 112.73-90.055 93.98 29.191-112.73 90.055zm100.33 37.562 118.48-94.652 104.43 32.441-114.89 91.797c-0.58594 0.47266-1.0391 1.0508-1.3633 1.6797-0.0625 0.125-0.082031 0.27344-0.125 0.41016-0.24219 0.56641-0.41016 1.1328-0.42969 1.7539 0 0.082031-0.0625 0.16797-0.0625 0.24219v97.832l-106.03-32.945z"/>
  <path d="m378.83 403.48-77.176-23.984c-2.7695-0.83984-5.7109 0.69141-6.5703 3.4531-0.85938 2.7695 0.68359 5.7109 3.4531 6.5703l77.168 23.984c0.52344 0.15625 1.0586 0.21875 1.5547 0.21875 2.2344 0 4.3125-1.4375 5.0156-3.6953 0.86719-2.7383-0.67578-5.6875-3.4453-6.5469z"/>
 </g>
</svg>