<?xml version="1.0" encoding="UTF-8"?>
<!-- The Best Svg Icon site in the world: iconSvg.co, Visit us! https://iconsvg.co -->
<svg fill="#000000" width="800px" height="800px" version="1.1" viewBox="144 144 512 512" xmlns="http://www.w3.org/2000/svg">
 <g>
  <path d="m600.15 578.65h-400.3c-5.2227 0-10.23-2.0742-13.926-5.7656-3.6914-3.6953-5.7656-8.7031-5.7656-13.926v-317.93c0-5.2227 2.0742-10.23 5.7656-13.926 3.6953-3.6914 8.7031-5.7656 13.926-5.7656h400.3c5.2227 0 10.234 2.0742 13.926 5.7656 3.6953 3.6953 5.7695 8.7031 5.7695 13.926v317.94c-0.003906 5.2227-2.0781 10.23-5.7734 13.922-3.6914 3.6914-8.6992 5.7617-13.922 5.7617zm-400.3-348.15c-5.8164 0-10.531 4.7148-10.531 10.535v317.93c0 5.8164 4.7148 10.535 10.531 10.535h400.3c5.8164 0 10.535-4.7188 10.535-10.535v-317.94c0-5.8164-4.7188-10.531-10.535-10.531z"/>
  <path d="m376.49 264.68c0 6.5234-5.2891 11.812-11.812 11.812-6.5234 0-11.812-5.2891-11.812-11.812 0-6.5234 5.2891-11.812 11.812-11.812 6.5234 0 11.812 5.2891 11.812 11.812"/>
  <path d="m241.54 264.68c0 6.5234-5.2891 11.812-11.812 11.812-6.5234 0-11.812-5.2891-11.812-11.812 0-6.5234 5.2891-11.812 11.812-11.812 6.5234 0 11.812 5.2891 11.812 11.812"/>
  <path d="m309.02 264.68c0 6.5234-5.2891 11.812-11.812 11.812-6.5234 0-11.812-5.2891-11.812-11.812 0-6.5234 5.2891-11.812 11.812-11.812 6.5234 0 11.812 5.2891 11.812 11.812"/>
  <path d="m600.15 221.34h-400.3c-5.2188 0.007812-10.227 2.082-13.918 5.7773-3.6914 3.6914-5.7695 8.6953-5.7734 13.918v60.488c0 1.2148 0.48047 2.3789 1.3398 3.2383s2.0234 1.3398 3.2383 1.3398h430.53c1.2148 0 2.3789-0.48047 3.2383-1.3398s1.3438-2.0234 1.3438-3.2383v-60.488c-0.007812-5.2227-2.0859-10.227-5.7773-13.918-3.6914-3.6953-8.6953-5.7695-13.918-5.7773zm-370.42 64.309c-5.5625 0.003906-10.902-2.2031-14.836-6.1367-3.9375-3.9297-6.1484-9.2617-6.1523-14.828 0-5.5625 2.207-10.898 6.1406-14.832 3.9297-3.9336 9.2656-6.1484 14.828-6.1484s10.898 2.207 14.832 6.1406c3.9336 3.9336 6.1445 9.2695 6.1445 14.832-0.007812 5.5586-2.2148 10.887-6.1445 14.816-3.9297 3.9336-9.2539 6.1445-14.812 6.1562zm67.477 0c-5.5625 0-10.895-2.2109-14.828-6.1445-3.9336-3.9297-6.1445-9.2656-6.1445-14.828s2.2109-10.895 6.1445-14.828c3.9336-3.9336 9.2656-6.1445 14.828-6.1445s10.898 2.2109 14.832 6.1445c3.9297 3.9336 6.1406 9.2656 6.1406 14.828-0.003907 5.5625-2.2148 10.891-6.1484 14.824-3.9297 3.9336-9.2617 6.1445-14.824 6.1484zm67.469 0c-5.5625 0-10.895-2.2109-14.828-6.1445-3.9336-3.9297-6.1445-9.2656-6.1445-14.828s2.2109-10.895 6.1445-14.828c3.9336-3.9336 9.2656-6.1445 14.828-6.1445s10.898 2.2109 14.832 6.1445c3.9336 3.9336 6.1406 9.2656 6.1406 14.828-0.003907 5.5586-2.2188 10.891-6.1484 14.824-3.9336 3.9297-9.2617 6.1406-14.824 6.1484z"/>
  <path d="m400 373.92c-16.633 0-32.582 6.6055-44.34 18.363-11.762 11.758-18.371 27.707-18.371 44.336-0.003906 16.629 6.6016 32.582 18.359 44.34 11.758 11.762 27.703 18.371 44.336 18.375 16.629 0.003907 32.578-6.6016 44.34-18.359 11.762-11.754 18.371-27.703 18.375-44.332-0.015625-16.629-6.625-32.57-18.379-44.328-11.754-11.758-27.695-18.375-44.32-18.395zm23.145 88.562h-0.003906c-2.0156 2.9609-4.8047 5.3164-8.0586 6.8086-3.793 1.7695-7.9023 2.7695-12.082 2.9375v7.0586c0.027344 0.79688-0.27734 1.5742-0.84375 2.1367-1.2422 1.1055-3.1094 1.1289-4.375 0.050781-0.57812-0.57422-0.88672-1.3711-0.84375-2.1875v-7.0586c-6.9102-0.40625-13.703-1.9883-20.086-4.6758-0.8125-0.33984-1.5039-0.91016-1.9883-1.6406-1.1836-1.6406-1.0352-3.8906 0.34766-5.3672 0.74609-0.82422 1.8164-1.2773 2.9258-1.2461 0.65234-0.003906 1.3008 0.13281 1.8984 0.39844 5.332 2.3789 11.07 3.7305 16.902 3.9805v-22.875c-3.8906-0.98047-7.6992-2.2773-11.383-3.8789-3.0039-1.3281-5.6445-3.3594-7.707-5.918-2.1289-2.7695-3.2227-6.1992-3.0859-9.6953-0.023438-3.3516 0.84766-6.6445 2.5352-9.543 1.8281-3.0508 4.4375-5.5586 7.5586-7.2617 3.7227-2.0312 7.8477-3.2227 12.082-3.4805v-6.9805c-0.015625-0.80859 0.28516-1.5938 0.84375-2.1836 0.55078-0.60156 1.332-0.93359 2.1445-0.91406 0.82422-0.011718 1.6133 0.32031 2.1836 0.91406 0.58984 0.57422 0.91016 1.3633 0.89062 2.1836v6.8711c5.9102 0.15234 11.754 1.2617 17.312 3.2852 1.7461 0.50781 2.9023 2.1602 2.7852 3.9766-0.003906 1.0625-0.39062 2.0859-1.0977 2.8828-0.71094 0.85156-1.7773 1.3281-2.8906 1.293-0.54688-0.035156-1.082-0.16797-1.582-0.39844-4.6797-1.6211-9.5781-2.5234-14.527-2.6836v23.668c4.0625 0.89062 8.043 2.1172 11.906 3.6641 3.0859 1.2812 5.8047 3.3164 7.9062 5.9141 2.2461 2.9844 3.3789 6.6602 3.207 10.391 0.015625 3.4102-0.99219 6.7461-2.9023 9.5742z"/>
  <path d="m383.79 420.61c-0.12109 2.6758 1.1367 5.2266 3.3359 6.7578 2.9961 1.9336 6.3125 3.3125 9.793 4.082v-21.875c-3.4531 0.32812-6.7539 1.582-9.5508 3.6289-2.3164 1.75-3.6484 4.5039-3.5781 7.4062z"/>
  <path d="m413.47 446.32c-3.3047-1.8008-6.8359-3.1523-10.496-4.0234v21.363c9.3594-0.66406 14.035-4.4453 14.023-11.34 0.039062-2.5-1.3203-4.8164-3.5273-6z"/>
  <path d="m400 338.91c-25.914 0.007813-50.766 10.305-69.086 28.633-18.32 18.328-28.613 43.18-28.609 69.094 0.003906 25.914 10.301 50.766 28.625 69.09 18.324 18.324 43.18 28.617 69.094 28.617 25.914 0 50.766-10.297 69.09-28.621 18.324-18.32 28.621-43.172 28.625-69.086-0.019531-25.918-10.324-50.766-28.648-69.09-18.328-18.32-43.176-28.621-69.09-28.637zm0 169.57c-19.062 0-37.344-7.5703-50.824-21.051-13.477-13.477-21.047-31.758-21.047-50.82s7.5742-37.34 21.055-50.816c13.477-13.48 31.758-21.051 50.82-21.047s37.34 7.5781 50.816 21.059c13.477 13.484 21.043 31.766 21.039 50.828-0.015625 19.051-7.5898 37.32-21.066 50.789-13.473 13.473-31.742 21.047-50.793 21.059z"/>
 </g>
</svg>