<?xml version="1.0" encoding="UTF-8"?>
<!-- The Best Svg Icon site in the world: iconSvg.co, Visit us! https://iconsvg.co -->
<svg fill="#000000" width="800px" height="800px" version="1.1" viewBox="144 144 512 512" xmlns="http://www.w3.org/2000/svg">
 <g>
  <path d="m548.34 169.09h-296.69c-14.473 0-26.238 11.777-26.238 26.238v409.34c0 14.465 11.766 26.238 26.238 26.238h296.71c14.473 0 26.238-11.777 26.238-26.238v-409.34c-0.019531-14.461-11.785-26.238-26.258-26.238zm15.742 435.59c0 8.6797-7.0547 15.742-15.742 15.742h-296.69c-8.6797 0-15.742-7.0625-15.742-15.742v-409.34c0-8.6797 7.0625-15.742 15.742-15.742h296.71c8.668 0 15.742 7.0625 15.742 15.742v409.34z"/>
  <path d="m401.16 358.56h94.758c8.6914 0 15.742-7.0625 15.742-15.742v-102.49c0-8.6797-7.0547-15.742-15.742-15.742h-94.758c-8.6797 0-15.742 7.0625-15.742 15.742v102.49c-0.003906 8.6797 7.0625 15.742 15.742 15.742zm-5.25-118.23c0-2.8984 2.3633-5.2461 5.2461-5.2461h94.758c2.8867 0 5.2461 2.3516 5.2461 5.2461v102.49c0 2.8984-2.3633 5.2461-5.2461 5.2461h-94.758c-2.8867 0-5.2461-2.3516-5.2461-5.2461z"/>
  <path d="m264.87 258.9h81.797c2.8984 0 5.2461-2.3516 5.2461-5.2461 0-2.8984-2.3516-5.2461-5.2461-5.2461h-81.797c-2.8984 0-5.2461 2.3516-5.2461 5.2461 0 2.8984 2.3398 5.2461 5.2461 5.2461z"/>
  <path d="m264.87 342.87h81.797c2.8984 0 5.2461-2.3516 5.2461-5.2461 0-2.8984-2.3516-5.2461-5.2461-5.2461h-81.797c-2.8984 0-5.2461 2.3516-5.2461 5.2461 0 2.8945 2.3398 5.2461 5.2461 5.2461z"/>
  <path d="m526.14 416.34h-261.27c-2.8984 0-5.2461 2.3633-5.2461 5.2461 0 2.8984 2.3516 5.2461 5.2461 5.2461l261.29 0.003907c2.8867 0 5.2461-2.3516 5.2461-5.2461 0.003906-2.8984-2.3594-5.25-5.2656-5.25z"/>
  <path d="m526.14 500.31h-261.27c-2.8984 0-5.2461 2.3633-5.2461 5.2461 0 2.8984 2.3516 5.2461 5.2461 5.2461l261.29 0.003907c2.8867 0 5.2461-2.3516 5.2461-5.2461 0.003906-2.8984-2.3594-5.25-5.2656-5.25z"/>
  <path d="m264.87 300.88h81.797c2.8984 0 5.2461-2.3516 5.2461-5.2461 0-2.8984-2.3516-5.2461-5.2461-5.2461h-81.797c-2.8984 0-5.2461 2.3516-5.2461 5.2461 0 2.8984 2.3398 5.2461 5.2461 5.2461z"/>
  <path d="m264.87 384.85h81.797c2.8984 0 5.2461-2.3516 5.2461-5.2461 0-2.8984-2.3516-5.2461-5.2461-5.2461h-81.797c-2.8984 0-5.2461 2.3516-5.2461 5.2461s2.3398 5.2461 5.2461 5.2461z"/>
  <path d="m526.14 458.32h-261.27c-2.8984 0-5.2461 2.3633-5.2461 5.2461 0 2.8984 2.3516 5.2461 5.2461 5.2461l261.29 0.003906c2.8867 0 5.2461-2.3516 5.2461-5.2461 0.003906-2.8984-2.3594-5.25-5.2656-5.25z"/>
  <path d="m526.14 542.29h-261.27c-2.8984 0-5.2461 2.3633-5.2461 5.2461 0 2.8984 2.3516 5.2461 5.2461 5.2461l261.29 0.003906c2.8867 0 5.2461-2.3516 5.2461-5.2461 0.003906-2.8984-2.3594-5.25-5.2656-5.25z"/>
 </g>
</svg>