<?xml version="1.0" encoding="UTF-8"?>
<!-- The Best Svg Icon site in the world: iconSvg.co, Visit us! https://iconsvg.co -->
<svg fill="#000000" width="800px" height="800px" version="1.1" viewBox="144 144 512 512" xmlns="http://www.w3.org/2000/svg">
 <g>
  <path d="m408.59 385.8c0.03125-1.0859-0.56641-2.0938-1.5312-2.5938-1.418-0.78906-2.9219-1.4023-4.4844-1.832v9.7852c5.3711-0.66406 6.0156-3.3438 6.0156-5.3594z"/>
  <path d="m400 413.5c9.6797 0.003906 18.965-3.8438 25.809-10.688 6.8477-6.8438 10.691-16.129 10.691-25.809 0.003906-9.6797-3.8438-18.965-10.688-25.809-6.8477-6.8477-16.129-10.691-25.812-10.691-9.6797 0-18.965 3.8477-25.809 10.691-6.8438 6.8477-10.688 16.133-10.688 25.812 0.011719 9.6758 3.8633 18.949 10.703 25.793 6.8398 6.8398 16.117 10.688 25.793 10.699zm-8.4961-35.488c-1.8164-0.80859-3.4102-2.0352-4.6562-3.582-1.3203-1.7188-2-3.8398-1.9258-6.0039-0.015625-2.0391 0.51953-4.0469 1.543-5.8086 1.1094-1.8477 2.6914-3.3672 4.5781-4.4023 1.9531-1.0703 4.0938-1.7461 6.3086-1.9766v-3.0742c-0.019531-1.0664 0.61328-2.0391 1.5977-2.4531 0.98438-0.41016 2.1211-0.18359 2.8672 0.57812 0.5 0.49609 0.77734 1.1719 0.76953 1.875v2.9727c3.1133 0.15625 6.1797 0.78125 9.1055 1.8555 1.332 0.41797 2.2148 1.6797 2.1484 3.0781 0 0.8125-0.29688 1.6016-0.83203 2.2148-0.57422 0.67969-1.4258 1.0625-2.3164 1.0391-0.42188-0.015625-0.83984-0.10938-1.2266-0.28516-2.2188-0.75781-4.5273-1.2188-6.8711-1.3711v11.574c2.0859 0.48438 4.125 1.1289 6.1055 1.9375 1.8672 0.78125 3.5117 2.0117 4.7812 3.5859 1.3906 1.8398 2.0898 4.1094 1.9844 6.4102 0.019531 2.082-0.58594 4.1211-1.7383 5.8555-1.2266 1.7891-2.9102 3.2109-4.8789 4.1211-1.9648 0.92578-4.082 1.4922-6.2461 1.6719v3.0859c0.003907 0.6875-0.26172 1.3438-0.74219 1.832-0.51172 0.49219-1.1953 0.75781-1.9023 0.74219-0.67969 0.015625-1.3359-0.23438-1.832-0.69531-0.50391-0.5-0.77734-1.1836-0.76172-1.8906v-3.1055c-3.6797-0.30859-7.2852-1.1953-10.688-2.6289-0.61719-0.25391-1.1406-0.68359-1.5117-1.2383-0.90625-1.2734-0.78906-3.0117 0.27734-4.1523 0.98047-1 2.4844-1.2734 3.7539-0.68359 2.5859 1.1484 5.3477 1.8555 8.168 2.0898v-11.133c-2-0.53125-3.9609-1.2109-5.8594-2.0352z"/>
  <path d="m369.27 473.28h61.441c0.96875-5.7461 3.6992-11.047 7.8203-15.168 4.1211-4.1172 9.4219-6.8516 15.168-7.8164v-146.59c-5.7461-0.96484-11.051-3.6992-15.168-7.8164-4.1211-4.1211-6.8555-9.4258-7.8203-15.172h-61.441c-0.96484 5.7461-3.6953 11.047-7.8164 15.168-4.1211 4.1211-9.4219 6.8555-15.164 7.8203v146.61c5.7422 0.96484 11.039 3.6953 15.16 7.8125 4.1172 4.1133 6.8516 9.4141 7.8203 15.156zm30.734-141.93c12.109 0 23.723 4.8086 32.285 13.371 8.5664 8.5625 13.375 20.176 13.375 32.285 0.003906 12.109-4.8086 23.723-13.371 32.289-8.5625 8.5625-20.176 13.371-32.285 13.375-12.109 0-23.723-4.8125-32.285-13.375s-13.375-20.176-13.375-32.285c0.015625-12.105 4.8281-23.711 13.387-32.27 8.5586-8.5586 20.164-13.375 32.27-13.391z"/>
  <path d="m562.71 226.62c-107.95-61.879-217.46-61.879-325.41 0h-0.003907c-7.2812 4.2422-11.746 12.043-11.723 20.473v246.68c-0.015625 7.832 3.8633 15.164 10.352 19.555l150.82 102.32c3.9023 2.6836 8.5234 4.1211 13.262 4.1211 4.7344 0 9.3555-1.4375 13.258-4.1211l150.82-102.32h0.003906c6.4844-4.3906 10.363-11.723 10.348-19.555v-246.68c0.027343-8.4297-4.4414-16.23-11.723-20.473zm-24.895 257.83c0 1.5156-0.75 2.9336-2.0039 3.7852l-133.23 90.402c-1.5547 1.0547-3.5938 1.0547-5.1445 0l-133.23-90.402c-1.2578-0.85156-2.0078-2.2695-2.0117-3.7852v-227.05c0-1.6875 0.92969-3.2383 2.4141-4.0352 45.301-24.332 90.859-36.672 135.4-36.672 44.535 0 90.094 12.34 135.4 36.672h-0.003906c1.4844 0.80078 2.4102 2.3516 2.4102 4.0352z"/>
  <path d="m393.31 371.08c1.2344 0.82422 2.5977 1.4414 4.0273 1.832v-9.9688c-1.3984 0.24609-2.7227 0.81641-3.8633 1.668-1.0781 0.80469-1.6953 2.0859-1.6523 3.4297-0.066406 1.2031 0.49609 2.3555 1.4883 3.0391z"/>
  <path d="m326.83 270.06v213.92c0.015625 4.8516 3.9531 8.7773 8.8086 8.7734h128.76c4.8438-0.003906 8.7695-3.9297 8.7773-8.7734v-213.92c0.003907-4.8555-3.9219-8.7969-8.7773-8.8125h-128.76c-4.8633 0.007812-8.8047 3.9492-8.8086 8.8125zm10.293 29.441c0-2.5312 2.0469-4.582 4.5781-4.582 4.9766-0.007813 9.75-1.9883 13.27-5.5078 3.5195-3.5195 5.5-8.293 5.5078-13.27 0-2.5312 2.0508-4.582 4.582-4.582h69.852c1.2148 0 2.3789 0.48438 3.2383 1.3438s1.3398 2.0234 1.3398 3.2383c0.007812 4.9766 1.9883 9.75 5.5078 13.27 3.5195 3.5195 8.293 5.5 13.27 5.5078 1.2148 0 2.3828 0.48438 3.2383 1.3398 0.85938 0.85938 1.3438 2.0273 1.3438 3.2422v155c0 1.2148-0.48437 2.3828-1.3438 3.2383-0.85547 0.85938-2.0234 1.3438-3.2383 1.3438-4.9766 0.007813-9.75 1.9883-13.27 5.5078-3.5195 3.5195-5.5 8.293-5.5078 13.27 0 1.2148-0.48047 2.3789-1.3398 3.2383s-2.0234 1.3438-3.2383 1.3438h-69.852c-2.5312 0-4.582-2.0508-4.582-4.582-0.007813-4.9766-1.9883-9.75-5.5078-13.27-3.5195-3.5195-8.293-5.5-13.27-5.5078-2.5312 0-4.5781-2.0508-4.5781-4.582z"/>
  <path d="m271.35 260.16v221.87l128.65 87.297 128.65-87.297v-221.87c-43.156-22.75-86.426-34.297-128.65-34.297-42.23 0-85.492 11.547-128.65 34.297zm210.99 9.9062v213.92c-0.007813 4.7539-1.8984 9.3125-5.2617 12.676-3.3594 3.3633-7.918 5.2539-12.676 5.2578h-128.76c-4.7617 0-9.3281-1.8867-12.695-5.25-3.3672-3.3633-5.2656-7.9258-5.2734-12.684v-213.92c0.003906-4.7656 1.8984-9.3359 5.2656-12.703 3.3672-3.3711 7.9375-5.2656 12.703-5.2695h128.76c4.7617 0.007812 9.3242 1.9062 12.684 5.2773 3.3633 3.3672 5.2539 7.9336 5.2539 12.695z"/>
 </g>
</svg>