<?xml version="1.0" encoding="UTF-8"?>
<!-- The Best Svg Icon site in the world: iconSvg.co, Visit us! https://iconsvg.co -->
<svg fill="#000000" width="800px" height="800px" version="1.1" viewBox="144 144 512 512" xmlns="http://www.w3.org/2000/svg">
 <g>
  <path d="m579.96 550.78-9.4453 21.266c-0.83594 1.8711-2.5 3.2383-4.4961 3.6914-2 0.45703-4.0938-0.058594-5.6523-1.3828l-17.699-15.059-5.9844 5.0898 29.863 72.984 9.9961-20.418h0.003906c2.5977-5.2773 8.668-7.8594 14.273-6.0664l22.742 7.3633-27.047-65.754z"/>
  <path d="m388.19 468.94v17.703c0 30.168 23.418 54.711 52.102 54.711 13.129-0.007812 25.738-5.1406 35.141-14.309l0.046875-0.10938-22.777-4.4297c-2.0117-0.39062-3.7188-1.7031-4.6094-3.5508-0.89062-1.8438-0.85938-4 0.082031-5.8164l10.715-20.621-18.598-13.969c-1.6367-1.2266-2.5977-3.1523-2.5977-5.1953 0-2.043 0.96094-3.9688 2.5977-5.1953l18.59-13.922-10.707-20.613v-0.003906c-0.94531-1.8164-0.97656-3.9727-0.085937-5.8203 0.89062-1.8438 2.6016-3.1602 4.6133-3.5508l22.777-4.4336-0.72266-23.246c-0.058593-2.0469 0.84766-4.0039 2.4453-5.2812 1.6211-1.2734 3.7422-1.7188 5.7383-1.2031l9.543 2.4883 0.003906-182.48h-254.34l-1.9688 252.89h146.28c1.5547 0.019532 3.0352 0.66016 4.1133 1.7812 1.0742 1.1211 1.6562 2.625 1.6172 4.1797zm-112.85-197.84h79.445c3.2578 0 5.9023 2.6445 5.9023 5.9062 0 3.2578-2.6445 5.9023-5.9023 5.9023h-79.445c-3.2617 0-5.9062-2.6445-5.9062-5.9023 0-3.2617 2.6445-5.9062 5.9062-5.9062zm0 59.039h161.45c3.2617 0 5.9062 2.6445 5.9062 5.9062 0 3.2617-2.6445 5.9023-5.9062 5.9023h-161.45c-3.2617 0-5.9062-2.6406-5.9062-5.9023 0-3.2617 2.6445-5.9062 5.9062-5.9062zm-5.9023 70.848-0.003906 0.003906c0-3.2617 2.6445-5.9062 5.9062-5.9062h161.45c3.2617 0 5.9062 2.6445 5.9062 5.9062 0 3.2578-2.6445 5.9023-5.9062 5.9023h-161.45c-1.5664 0-3.0703-0.62109-4.1758-1.7305-1.1094-1.1055-1.7305-2.6094-1.7305-4.1719z"/>
  <path d="m404.14 541.7c-16.648-12.793-27.758-32.398-27.758-55.055v-11.859h-208.61v11.855c0 30.172 23.531 55.059 52.215 55.059z"/>
  <path d="m494.52 612.66c5.6055-1.793 11.676 0.78906 14.277 6.0664l9.9609 20.422 17.879-43.711-9.4102-23-2.2539 1.9141c-1.5625 1.3281-3.6562 1.8438-5.6562 1.3867-1.9961-0.45312-3.6641-1.8242-4.4922-3.6992l-9.4453-21.262-5.7305 1.5-27.891 67.719z"/>
  <path d="m542.67 422.3c-13.543 0-26.531 5.3828-36.109 14.961-9.5781 9.5781-14.957 22.566-14.957 36.109 0.003907 13.547 5.3828 26.535 14.961 36.113 9.5781 9.5742 22.566 14.957 36.113 14.953 13.543 0 26.531-5.3789 36.109-14.957 9.5781-9.5781 14.957-22.566 14.957-36.109-0.015626-13.543-5.4023-26.523-14.977-36.098s-22.559-14.957-36.098-14.973zm0 46.012v-0.003906c6.8203-0.007813 13.223 3.2852 17.18 8.8359 3.9531 5.5547 4.9766 12.68 2.7383 19.121-2.2383 6.4453-7.457 11.402-14.004 13.309v4.5391c0 3.2578-2.6406 5.9023-5.9023 5.9023-3.2617 0-5.9062-2.6445-5.9062-5.9023v-4.5664c-4.3711-1.2656-8.2109-3.918-10.941-7.5586s-4.1992-8.0742-4.1836-12.625c0-3.2539 2.6367-5.8906 5.8906-5.8906 3.2539 0 5.8906 2.6367 5.8906 5.8906 0.007812 4.5938 3.3867 8.4883 7.9336 9.1406 0.83984-0.18359 1.7109-0.17969 2.5469 0.011719 4.8281-0.64062 8.332-4.9219 8.0039-9.7812-0.32812-4.8594-4.375-8.6328-9.2461-8.6211-6.8008-0.007813-13.18-3.3086-17.117-8.8516-3.9414-5.5469-4.957-12.656-2.7305-19.082 2.2305-6.4258 7.4258-11.379 13.953-13.297v-4.4766c0-3.2578 2.6445-5.9023 5.9062-5.9023 3.2617 0 5.9023 2.6445 5.9023 5.9023v4.4492c4.3867 1.2578 8.2383 3.9102 10.977 7.5586 2.7383 3.6484 4.2109 8.0898 4.1953 12.648 0 3.2695-2.6484 5.918-5.9141 5.918-3.2695 0-5.918-2.6484-5.918-5.918-0.007813-4.5352-3.3047-8.3945-7.7812-9.1133-0.98438 0.26563-2.0195 0.26953-3.0039 0.007813-4.7422 0.79688-8.0781 5.0938-7.6758 9.8828 0.39844 4.7891 4.4023 8.4688 9.207 8.4688z"/>
  <path d="m615.76 485.77 16.531-12.418-16.523-12.375h-0.003906c-2.5508-1.9023-3.3438-5.375-1.8672-8.1914l9.5117-18.309-20.238-3.9375c-3.1367-0.59766-5.3672-3.3906-5.2539-6.582l0.64453-20.656-19.977 5.2305h0.003907c-3.082 0.81641-6.3008-0.73047-7.5859-3.6484l-8.3906-18.895-15.73 13.383c-2.1914 1.9414-5.4453 2.0664-7.7812 0.30469 0.34375-0.67969 0.55469-1.4141 0.62891-2.1719v-230.83c0-3.2617-3.0664-5.7891-6.3281-5.7891h-256.17c-3.2617 0-5.9023 2.6406-5.9023 5.9023 0 3.2617 2.6406 5.9062 5.9023 5.9062h250.69v217.35l-4.9766-4.0547-8.5 18.895v-0.003906c-1.3125 2.918-4.543 4.4609-7.6367 3.6484l-19.996-5.2305 0.63281 20.656h-0.003906c0.10938 3.1914-2.125 5.9844-5.2617 6.5781l-20.238 3.9375 9.5078 18.309c1.4766 2.8203 0.68359 6.293-1.8672 8.1914l-16.523 12.375 16.531 12.418-0.003907 0.003906c2.5469 1.9023 3.3359 5.3711 1.8633 8.1875l-9.5078 18.301 20.238 3.9375c3.1328 0.60156 5.3633 3.3945 5.25 6.582l-0.64844 20.656 19.977-5.2305c3.0781-0.8125 6.2891 0.73047 7.5781 3.6406l8.3984 18.902 15.73-13.383h-0.003907c2.4258-2.0781 6-2.0781 8.4219 0l15.73 13.383 8.3945-18.895c1.2852-2.9141 4.4961-4.4609 7.5742-3.6484l19.977 5.2305-0.64453-20.656c-0.11328-3.1914 2.1211-5.9844 5.2578-6.5781l20.23-3.9375-9.5117-18.301 0.003906-0.003906c-1.4727-2.8164-0.67969-6.2852 1.8672-8.1836zm-73.09 50.48c-16.676-0.003906-32.668-6.6289-44.461-18.422-11.789-11.793-18.414-27.785-18.41-44.461 0-16.676 6.625-32.668 18.418-44.461 11.789-11.789 27.785-18.414 44.461-18.414s32.668 6.625 44.461 18.418c11.789 11.793 18.414 27.785 18.414 44.461-0.019531 16.672-6.6523 32.652-18.438 44.441-11.789 11.789-27.773 18.422-44.445 18.441z"/>
 </g>
</svg>