<?xml version="1.0" encoding="UTF-8"?>
<!-- The Best Svg Icon site in the world: iconSvg.co, Visit us! https://iconsvg.co -->
<svg fill="#000000" width="800px" height="800px" version="1.1" viewBox="144 144 512 512" xmlns="http://www.w3.org/2000/svg">
 <g>
  <path d="m600.56 594h-125.25v-313.19h2.1445c7.0156 0.007813 13.742 2.7969 18.703 7.7578 4.957 4.9609 7.75 11.688 7.7578 18.703v215.24c0 12.68 6.7656 24.398 17.746 30.738s24.512 6.3398 35.492 0c10.98-6.3398 17.746-18.059 17.746-30.738v-161.83h12.566c3.8789-0.003906 7.5977-1.5469 10.34-4.293 2.7422-2.7422 4.2852-6.4609 4.293-10.34v-66.223c-0.003906-3.8789-1.5469-7.6016-4.2891-10.348-2.7422-2.7461-6.4648-4.2891-10.344-4.293h-1.832v-38.93c0-1.4336-0.68359-2.7812-1.8398-3.6289l-30.855-22.723c-2.0078-1.3008-4.6836-0.80859-6.0977 1.1211-1.4141 1.9297-1.082 4.6289 0.76172 6.1523l29.02 21.363v36.645h-23.32c-3.8789 0.003906-7.5977 1.5469-10.34 4.2891-2.7461 2.7422-4.2891 6.4609-4.293 10.34v66.227c0.003907 3.8789 1.5469 7.5977 4.293 10.34 2.7422 2.7422 6.4609 4.2852 10.34 4.293h12.566v161.84c0 9.4531-5.043 18.188-13.23 22.914-8.1875 4.7305-18.273 4.7305-26.461 0-8.1875-4.7266-13.23-13.461-13.23-22.914v-215.24c-0.007812-9.4102-3.7539-18.434-10.406-25.086-6.6523-6.6562-15.676-10.398-25.086-10.41h-2.1445v-33.965c-0.011719-10.832-4.3242-21.219-11.984-28.875-7.6641-7.6602-18.051-11.965-28.883-11.973h-161.27c-10.832 0.011719-21.211 4.3203-28.871 11.977-7.6562 7.6602-11.965 18.039-11.977 28.871v356.21l-32.887-0.003906c-2.4102 0.11328-4.3047 2.1016-4.3047 4.5117 0 2.4141 1.8945 4.3984 4.3047 4.5117h401.12c2.4102-0.11328 4.3047-2.0977 4.3047-4.5117 0-2.4102-1.8945-4.3984-4.3047-4.5117zm-52.871-247.97v-66.223c0.003906-3.0938 2.5117-5.6016 5.6094-5.6094h34.164c3.0938 0.007813 5.6016 2.5156 5.6094 5.6094v66.223c-0.007812 3.0977-2.5156 5.6055-5.6094 5.6094h-34.164c-3.0898-0.003906-5.5938-2.5-5.6094-5.5898zm-306.33 247.97v-356.21 0.003906c0.007813-8.4375 3.3594-16.527 9.3242-22.492 5.9648-5.9648 14.051-9.3203 22.488-9.332h161.27c8.4375 0.011719 16.523 3.3672 22.488 9.332 5.9648 5.9648 9.3164 14.055 9.3242 22.492v356.21z"/>
  <path d="m350.29 379.34c-2.0352 2.5469-49.809 62.867-37.578 96.688 3.8672 10.695 12.961 17.586 27.031 20.477 4.5391 0.86719 9.1562 1.2695 13.777 1.1992h0.58203-0.003906c4.6211 0.070312 9.2383-0.33203 13.777-1.1992 14.07-2.8945 23.164-9.7812 27.031-20.477 12.23-33.82-35.543-94.141-37.578-96.688-0.89062-1.0156-2.1719-1.5977-3.5195-1.5977-1.3477 0-2.6289 0.58203-3.5195 1.5977zm36.141 93.617c-2.7656 7.6445-9.418 12.457-20.348 14.699-3.9453 0.73828-7.957 1.0664-11.973 0.98438h-0.58203c-4.0156 0.082031-8.0273-0.24609-11.977-0.98438-10.934-2.2422-17.586-7.0547-20.348-14.691-8.0195-22.168 18.203-64.109 32.609-83.414 14.418 19.309 40.648 61.254 32.621 83.445z"/>
  <path d="m437.96 230.85h-168.27c-2.4883 0.007813-4.5039 2.0273-4.5039 4.5156v88.996c0 1.1953 0.47266 2.3438 1.3203 3.1914 0.84766 0.84766 1.9961 1.3242 3.1953 1.3242h168.27c1.1953 0 2.3438-0.47656 3.1914-1.3242 0.84766-0.84766 1.3242-1.9961 1.3242-3.1914v-88.996c0-1.1992-0.47656-2.3477-1.3281-3.1953-0.84766-0.84766-2-1.3203-3.1992-1.3203zm-4.5078 88.992h-159.27v-79.957h159.27z"/>
  <path d="m269.67 351.62h84.141c2.4961 0 4.5156-2.0234 4.5156-4.5156 0-2.4961-2.0195-4.5195-4.5156-4.5195h-84.141c-2.4961 0-4.5156 2.0234-4.5156 4.5195 0 2.4922 2.0195 4.5156 4.5156 4.5156z"/>
  <path d="m304.16 369.59h-34.441c-1.2305-0.058594-2.4336 0.39062-3.3281 1.2422-0.89062 0.85156-1.3984 2.0352-1.3984 3.2695s0.50781 2.4141 1.3984 3.2656c0.89453 0.85156 2.0977 1.3008 3.3281 1.2461h34.441c1.2344 0.054687 2.4375-0.39453 3.3281-1.2461 0.89453-0.85156 1.3984-2.0312 1.3984-3.2656s-0.50391-2.418-1.3984-3.2695c-0.89062-0.85156-2.0938-1.3008-3.3281-1.2422z"/>
 </g>
</svg>