<?xml version="1.0" encoding="UTF-8"?>
<!-- The Best Svg Icon site in the world: iconSvg.co, Visit us! https://iconsvg.co -->
<svg fill="#000000" width="800px" height="800px" version="1.1" viewBox="144 144 512 512" xmlns="http://www.w3.org/2000/svg">
 <g>
  <path d="m310.05 614.51c1.1016 1.2109 2.6484 1.9219 4.2891 1.9688h171.33c1.6367-0.046875 3.1836-0.75781 4.2852-1.9688l23.625-25.082c1.0234-1.1289 1.5781-2.5977 1.5508-4.1172v-61.973c0.027344-1.4883-0.51953-2.9297-1.5195-4.0273l-23.328-24.98c-1.1094-1.1836-2.6602-1.8516-4.2812-1.8359h-171.66c-1.6172-0.015625-3.168 0.63672-4.2891 1.8047l-23.625 25c-1.0195 1.0938-1.5742 2.543-1.5508 4.0391v61.973c-0.023438 1.5195 0.52734 2.9922 1.5508 4.1172zm193.27-88.844v57.289l-20.195 21.715h-66.133c14.055-4.7891 25.461-15.254 31.438-28.848 5.9766-13.594 5.9805-29.074 0.003906-42.668-5.9766-13.598-17.379-24.062-31.438-28.852h66.434zm-103.32 69.766c-10.902 0-21.359-4.332-29.07-12.039-7.707-7.7109-12.039-18.168-12.039-29.07 0-10.902 4.332-21.359 12.039-29.066 7.7109-7.7109 18.168-12.039 29.07-12.039s21.355 4.3281 29.066 12.039c7.7109 7.707 12.039 18.164 12.039 29.066-0.011719 10.898-4.3438 21.348-12.051 29.055-7.707 7.707-18.156 12.043-29.055 12.055zm-103.32-69.742 20.195-21.387h66.125c-14.059 4.7891-25.461 15.254-31.438 28.852-5.9766 13.594-5.9727 29.074 0.003906 42.668 5.9766 13.594 17.383 24.059 31.438 28.848h-66.129l-20.195-21.711z"/>
  <path d="m400 537.43c3.4609 0.003906 6.2656 2.8125 6.2695 6.2734 0 3.2617 2.6445 5.9023 5.9023 5.9023 3.2617 0 5.9062-2.6406 5.9062-5.9023-0.007813-3.7578-1.1836-7.418-3.3633-10.477-2.1836-3.0586-5.2617-5.3633-8.8125-6.5898v-3.6406c0-3.2617-2.6445-5.9062-5.9023-5.9062-3.2617 0-5.9062 2.6445-5.9062 5.9062v3.6406c-5.4297 1.875-9.6484 6.2188-11.355 11.707-1.707 5.4844-0.70312 11.457 2.7031 16.086 3.4062 4.625 8.8125 7.3555 14.559 7.3555 3.4062-0.007812 6.1914 2.707 6.2734 6.1133 0.085937 3.4062-2.5664 6.2539-5.9688 6.4141-0.42578-0.097656-0.85547-0.14844-1.2891-0.14844-0.11328 0-0.22656 0.011719-0.33984 0.019531v-0.003906c-2.8867-0.625-4.9453-3.1758-4.9492-6.125 0-3.2617-2.6406-5.9062-5.9023-5.9062s-5.9062 2.6445-5.9062 5.9062c0.007812 3.5781 1.0703 7.0742 3.0625 10.051 1.9922 2.9727 4.8203 5.2891 8.1289 6.6562v3.1758c0 3.2617 2.6445 5.9062 5.9062 5.9062 3.2578 0 5.9023-2.6445 5.9023-5.9062v-2.5039c5.6484-1.5938 10.168-5.832 12.125-11.363 1.957-5.5352 1.1055-11.672-2.2812-16.461-3.3906-4.793-8.8945-7.6406-14.762-7.6367-3.4648 0-6.2734-2.8086-6.2734-6.2695 0-3.4648 2.8086-6.2734 6.2734-6.2734z"/>
  <path d="m503.21 199.44c-31.391-28.641-74.719-42.57-118.86-38.211-43.309 4.2734-82.25 25.887-106.87 59.336-22.434 31.059-32.383 70.258-27.301 107.51 5.168 39.629 26.363 74.84 45.094 106.06 6.9727 11.332 14.035 22.938 20.973 34.746h-48.621c-3.3945 0.066406-6.168 2.7344-6.3633 6.125v158.64c0 3.2617 3.1016 5.4648 6.3633 5.4648h264.77c3.2617 0 6.3633-2.2031 6.3633-5.4648l-0.003906-158.64c-0.19531-3.3906-2.9648-6.0586-6.3594-6.125h-49.227c2.7891-3.9375 5.5703-9.1953 8.2969-13.766 4.5625-7.6523 9.2812-15.508 13.926-23.156 18.426-30.539 39.316-65.125 44.52-104.45 6.2109-46.871-11.676-95.93-46.691-128.07zm-46.801 193.67h-50.504v-217.78c14.762 1.0312 29.375 13 41.262 34.031 16.004 29.344 24.25 75.25 21.094 117.36-1.4297 22.352-5.7852 42.777-11.852 66.391zm-113.28 0c-6.0664-23.617-10.367-44.043-11.797-66.461-3.1484-42.043 5.2695-88.059 21.23-117.32 11.922-21.102 26.777-32.965 41.535-33.996v217.78zm-56.109-165.59c18.246-24.789 45.148-42.508 75.867-50.508-6.918 6.082-13.973 14.672-20.762 26.691-17.023 31.203-25.879 79.676-22.57 123.77 1.4258 22.316 5.5586 43.012 11.395 65.641h-45.461c-11.098-20.664-20.508-43.164-23.594-66.812-4.6914-34.316 4.4805-70.195 25.125-98.777zm239.92 399.79h-253.87v-146.62h253.87zm-31.656-201.62c-4.6602 7.6758-9.3906 15.602-13.965 23.273-3.918 6.5664-7.9492 14.023-11.941 19.926h-139.4c-8.0977-13.777-16.422-27.785-24.613-41.094-4.4102-7.3516-8.9648-14.996-13.398-22.867h215.51c-4.0547 7.8711-8.1875 14.113-12.195 20.762zm42.914-99.91c-3.1797 24.008-12.855 46.676-24.137 67.34h-45.465c5.8359-22.633 9.9688-43.32 11.387-65.574 3.3125-44.156-5.543-92.738-22.609-124.02-6.875-12.164-14.023-20.754-21.031-26.836 21.914 5.4336 42.145 16.199 58.898 31.332 32.211 29.566 48.672 74.641 42.957 117.76z"/>
 </g>
</svg>