<?xml version="1.0" encoding="UTF-8"?>
<!-- The Best Svg Icon site in the world: iconSvg.co, Visit us! https://iconsvg.co -->
<svg fill="#000000" width="800px" height="800px" version="1.1" viewBox="144 144 512 512" xmlns="http://www.w3.org/2000/svg">
 <g>
  <path d="m502.34 266.18c0-18.793-7.4648-36.812-20.754-50.098-13.285-13.289-31.305-20.754-50.094-20.754-18.793 0-36.812 7.4648-50.098 20.754-13.289 13.285-20.754 31.305-20.754 50.098 0 18.789 7.4648 36.809 20.754 50.094 13.285 13.289 31.305 20.754 50.098 20.754 18.781-0.023438 36.789-7.4922 50.074-20.773 13.281-13.285 20.75-31.293 20.773-50.074zm-125.95 0c0-14.617 5.8047-28.633 16.141-38.965 10.332-10.336 24.348-16.141 38.965-16.141 14.613 0 28.629 5.8047 38.961 16.141 10.336 10.332 16.141 24.348 16.141 38.965 0 14.613-5.8047 28.629-16.141 38.961-10.332 10.336-24.348 16.141-38.961 16.141-14.609-0.015625-28.617-5.8281-38.949-16.156-10.328-10.332-16.141-24.336-16.156-38.945z"/>
  <path d="m423.61 218.94v7.8711c-8.4375 0-16.23 4.5039-20.449 11.809-4.2188 7.3086-4.2188 16.309 0 23.617 4.2188 7.3086 12.012 11.809 20.449 11.809h15.746c4.3477 0 7.8711 3.5234 7.8711 7.8711 0 4.3477-3.5234 7.8711-7.8711 7.8711h-15.746c-4.3477 0-7.8711-3.5234-7.8711-7.8711 0-4.3477-3.5234-7.8711-7.8711-7.8711s-7.8711 3.5234-7.8711 7.8711c0 6.2617 2.4883 12.27 6.9141 16.699 4.4297 4.4297 10.438 6.918 16.699 6.918v7.8711c0 4.3477 3.5273 7.8711 7.875 7.8711 4.3477 0 7.8711-3.5234 7.8711-7.8711v-7.8711c8.4375 0 16.234-4.5039 20.453-11.809 4.2188-7.3086 4.2188-16.309 0-23.617-4.2188-7.3047-12.016-11.809-20.453-11.809h-15.746c-4.3477 0-7.8711-3.5234-7.8711-7.8711 0-4.3477 3.5234-7.8711 7.8711-7.8711h15.746c2.0859 0 4.0898 0.82812 5.5664 2.3047 1.4766 1.4766 2.3047 3.4805 2.3047 5.5664 0 4.3477 3.5234 7.8711 7.8711 7.8711 4.3477 0 7.875-3.5234 7.875-7.8711 0-6.2617-2.4883-12.27-6.918-16.699-4.4297-4.4297-10.438-6.918-16.699-6.918v-7.8711c0-4.3477-3.5234-7.8711-7.8711-7.8711-4.3477 0-7.875 3.5234-7.875 7.8711z"/>
  <path d="m613.72 493.68c-4.1758-7.2188-11.043-12.492-19.102-14.66-8.0547-2.168-16.641-1.0586-23.879 3.0898l-76.754 44.32 0.003907-0.003906c-4.1914-6.2773-10.512-10.836-17.793-12.828l-36.84-9.8438v-48.648h23.617c18.781-0.027343 36.781-7.5 50.062-20.781s20.754-31.285 20.785-50.066c0-2.0859-0.83203-4.0898-2.3086-5.5664s-3.4766-2.3047-5.5664-2.3047h-31.488c-21.43-0.015624-41.707 9.7188-55.102 26.449v-34.715c35.52-2.7422 67.055-23.754 83.262-55.48 16.207-31.727 14.746-69.594-3.8516-99.98-18.598-30.383-51.66-48.91-87.281-48.91-35.625 0-68.688 18.527-87.285 48.91-18.598 30.387-20.059 68.254-3.8516 99.98 16.207 31.727 47.742 52.738 83.262 55.48v34.715c-13.395-16.73-33.672-26.465-55.102-26.449h-31.488c-4.3477 0-7.875 3.5234-7.875 7.8711 0.03125 18.781 7.5039 36.785 20.785 50.066s31.285 20.754 50.066 20.781h23.617v44.398l-64.867-17.32v0.003906c-9.0391-2.4414-18.551-2.5234-27.633-0.23828l-41.328 10.312v-5.668c0-2.0859-0.82812-4.0898-2.3047-5.5664-1.4766-1.4766-3.4766-2.3047-5.5664-2.3047h-23.617v-7.8711c0-2.0898-0.82812-4.0898-2.3047-5.5664-1.4766-1.4766-3.4766-2.3047-5.5664-2.3047h-78.719c-4.3477 0-7.875 3.5234-7.875 7.8711v157.44c0 2.0859 0.83203 4.0898 2.3086 5.5664 1.4766 1.4727 3.4766 2.3047 5.5664 2.3047h78.719c2.0898 0 4.0898-0.83203 5.5664-2.3047 1.4766-1.4766 2.3047-3.4805 2.3047-5.5664v-7.875h23.617c2.0898 0 4.0898-0.82812 5.5664-2.3047s2.3047-3.4766 2.3047-5.5664v-2.9922l10.156 5.0391c7.6523 3.8203 16.086 5.8125 24.641 5.8242h117.84c9.6758 0.023438 19.188-2.5312 27.551-7.3984l132.25-76.359c7.2031-4.1953 12.457-11.066 14.609-19.121 2.1523-8.0508 1.0312-16.629-3.1172-23.859zm-150.75-54.316h-5.5117l58.094-38.73c-3.5 11.211-10.492 21.012-19.949 27.977-9.457 6.9648-20.891 10.734-32.633 10.754zm31.488-47.23h5.5117l-58.094 38.73-0.003906-0.003906c3.5-11.211 10.492-21.012 19.949-27.977s20.891-10.734 32.633-10.754zm-94.465 47.23c-11.746-0.019531-23.18-3.7891-32.637-10.754-9.457-6.9648-16.445-16.766-19.949-27.977l58.094 38.73zm-37-47.23 5.5117-0.003906c11.746 0.019531 23.176 3.7891 32.637 10.754 9.457 6.9648 16.445 16.766 19.945 27.977zm-120.44 228.29h-62.977v-141.7h62.977zm31.488-15.742h-15.746v-110.21h15.742zm70.848-338.5c0-22.969 9.1211-44.992 25.363-61.23 16.238-16.242 38.262-25.363 61.23-25.363 22.965 0 44.988 9.1211 61.227 25.363 16.242 16.238 25.363 38.262 25.363 61.23 0 22.965-9.1211 44.988-25.363 61.227-16.238 16.242-38.262 25.363-61.227 25.363-22.965-0.015625-44.98-9.1406-61.215-25.379-16.238-16.234-25.363-38.25-25.379-61.211zm249.46 256.86-132.25 76.359c-5.9805 3.4609-12.77 5.2773-19.68 5.2734h-117.84c-6.125 0.011719-12.164-1.418-17.633-4.1719l-17.164-8.582v-83.441l45.105-11.258h0.003907c6.4883-1.6406 13.293-1.5859 19.758 0.15625l117.45 31.488c4.0547 1.0508 7.5156 3.6836 9.6172 7.3047 2.1016 3.6211 2.668 7.9297 1.5703 11.973-1.0977 4.0391-3.7656 7.4727-7.4062 9.5352-3.5859 2.1133-7.875 2.6836-11.887 1.5742l-93.914-25.191c-4.2188-1.1289-8.5547 1.3711-9.6836 5.5898s1.3711 8.5508 5.5898 9.6836l93.914 25.113v-0.003906c2.668 0.71875 5.4219 1.0898 8.1836 1.1016 5.5078 0.007812 10.918-1.457 15.668-4.25 7.2656-4.1484 12.57-11.039 14.719-19.129 0.875-3.4688 1.168-7.0625 0.86719-10.625l79.27-45.738c3.6172-2.0078 7.875-2.5312 11.871-1.457 3.9961 1.0703 7.418 3.6562 9.543 7.2031 2.0898 3.6055 2.668 7.8906 1.6055 11.918s-3.6797 7.4688-7.2734 9.5742z"/>
  <path d="m634.95 277.74-39.516-62.977c-1.4375-2.2969-3.957-3.6914-6.668-3.6914-2.7148 0.003907-5.2344 1.4102-6.668 3.7148l-39.211 62.977c-1.5078 2.4258-1.582 5.4805-0.19531 7.9766 1.3828 2.4961 4.0156 4.0469 6.8711 4.0508h15.742l0.003906 149.57c0 2.0859 0.82812 4.0898 2.3047 5.5664 1.4766 1.4766 3.4766 2.3047 5.5664 2.3047h31.488c2.0859 0 4.0898-0.82812 5.5664-2.3047 1.4766-1.4766 2.3047-3.4805 2.3047-5.5664v-149.57h15.746c2.8594 0 5.4961-1.5547 6.8828-4.0586 1.3867-2.5078 1.3047-5.5664-0.21875-7.9922zm-30.281-3.6914c-4.3477 0-7.8711 3.5234-7.8711 7.8711v149.57h-15.746v-149.57c0-2.0859-0.82813-4.0898-2.3047-5.5664-1.4766-1.4766-3.4805-2.3047-5.5664-2.3047h-9.4453l25.047-40.25 25.27 40.25z"/>
  <path d="m234.69 289.79h15.742v149.57c0 2.0859 0.82812 4.0898 2.3047 5.5664 1.4766 1.4766 3.4805 2.3047 5.5664 2.3047h31.488c2.0898 0 4.0898-0.82812 5.5664-2.3047 1.4766-1.4766 2.3086-3.4805 2.3086-5.5664v-149.57h15.742c2.8633 0 5.5-1.5547 6.8867-4.0586 1.3828-2.5078 1.3008-5.5664-0.21875-7.9922l-39.516-62.977h-0.003906c-1.4375-2.2969-3.957-3.6914-6.6641-3.6914-2.7148 0.003907-5.2344 1.4102-6.668 3.7148l-39.211 62.977c-1.5078 2.4258-1.5859 5.4805-0.19922 7.9766 1.3867 2.4961 4.0156 4.0469 6.875 4.0508zm39.227-55.992 25.258 40.25h-9.3828c-4.3477 0-7.8711 3.5234-7.8711 7.8711v149.57h-15.742v-149.57c0-2.0859-0.83203-4.0898-2.3086-5.5664-1.4766-1.4766-3.4766-2.3047-5.5664-2.3047h-9.4453z"/>
 </g>
</svg>