<?xml version="1.0" encoding="UTF-8"?>
<!-- The Best Svg Icon site in the world: iconSvg.co, Visit us! https://iconsvg.co -->
<svg fill="#000000" width="800px" height="800px" version="1.1" viewBox="144 144 512 512" xmlns="http://www.w3.org/2000/svg">
 <g>
  <path d="m533.92 457.07-18.68 37.391h37.375z"/>
  <path d="m502.43 484.62 18.695-37.391h-37.375z"/>
  <path d="m584.1 447.23h-37.375l18.68 37.391z"/>
  <path d="m512.41 510.21 21.414 85.625 21.41-85.625z"/>
  <path d="m452.14 494.46h37.5l-18.695-37.391z"/>
  <path d="m571.45 510.21-20.617 82.477 61.73-82.477z"/>
  <path d="m596.96 456.96-18.742 37.5h37.375z"/>
  <path d="m496.2 510.21h-41.07l61.535 81.883z"/>
  <path d="m400 275.23 12.277-32.668h-24.559z"/>
  <path d="m373.94 179.58-17.711 47.23h87.535l-17.711-47.23z"/>
  <path d="m481.16 242.56h-52.113l-17.711 47.23h87.535z"/>
  <path d="m301.12 289.79h87.539l-17.715-47.23h-52.109z"/>
  <path d="m373.94 305.54-17.711 47.23h87.535l-17.711-47.23z"/>
  <path d="m357.18 305.54h-24.562l12.281 32.668z"/>
  <path d="m536.26 305.54h-52.109l-17.715 47.23h87.539z"/>
  <path d="m467.38 305.54h-24.559l12.277 32.668z"/>
  <path d="m246.02 352.77h87.535l-17.711-47.23h-52.113z"/>
  <path d="m478.72 596.8h-91.207l10.18-10.18c2.9844-3.0898 2.9414-8-0.09375-11.035-3.0391-3.0352-7.9492-3.0781-11.035-0.097657l-23.617 23.617c-3.0742 3.0742-3.0742 8.0586 0 11.133l23.617 23.617v-0.003907c3.0859 2.9844 7.9961 2.9414 11.035-0.09375 3.0352-3.0391 3.0781-7.9492 0.09375-11.035l-10.18-10.18h91.207c4.3477 0 7.8711-3.5234 7.8711-7.8711s-3.5234-7.8711-7.8711-7.8711z"/>
  <path d="m633.85 378.69c-3.0742-3.0703-8.0547-3.0703-11.129 0l-10.18 10.18v-138.44c0-2.0859-0.82812-4.0898-2.3047-5.5664-1.4766-1.4766-3.4805-2.3047-5.5664-2.3047h-62.977c-4.3477 0-7.8711 3.5234-7.8711 7.8711 0 4.3477 3.5234 7.8711 7.8711 7.8711h55.105v130.57l-10.18-10.18c-3.0898-2.9805-8-2.9375-11.035 0.097656-3.0352 3.0352-3.0781 7.9453-0.097657 11.035l23.617 23.617c1.4766 1.4805 3.4805 2.3125 5.5742 2.3125 2.0898 0 4.0977-0.83203 5.5742-2.3125l23.617-23.617h-0.003906c3.0703-3.0781 3.0625-8.0625-0.015626-11.133z"/>
  <path d="m256 244.86-23.617-23.617v0.003906c-3.0898-2.9844-7.9961-2.9414-11.035 0.09375-3.0352 3.0391-3.0781 7.9453-0.09375 11.035l10.176 10.18h-59.715c-4.3477 0-7.875 3.5234-7.875 7.8711v188.93c0 4.3477 3.5273 7.8711 7.875 7.8711 4.3477 0 7.8711-3.5234 7.8711-7.8711v-181.06h51.844l-10.176 10.18c-1.5195 1.4688-2.3867 3.4844-2.4062 5.5938-0.015625 2.1133 0.8125 4.1406 2.3086 5.6367 1.4922 1.4922 3.5234 2.3203 5.6328 2.3047 2.1133-0.019531 4.1289-0.88672 5.5938-2.4023l23.617-23.617c3.0742-3.0742 3.0742-8.0586 0-11.133z"/>
  <path d="m266.18 447.23c-22.969 0-44.992 9.125-61.23 25.363-16.242 16.238-25.363 38.262-25.363 61.23 0 22.965 9.1211 44.988 25.363 61.23 16.238 16.238 38.262 25.359 61.23 25.359 22.965 0 44.988-9.1211 61.227-25.359 16.242-16.242 25.363-38.266 25.363-61.23-0.027344-22.957-9.1562-44.969-25.391-61.203-16.234-16.23-38.242-25.363-61.199-25.391zm0 165.31c-20.879 0-40.902-8.293-55.664-23.055-14.766-14.766-23.059-34.789-23.059-55.664 0-20.879 8.293-40.902 23.059-55.664 14.762-14.766 34.785-23.059 55.664-23.059 20.875 0 40.898 8.293 55.66 23.059 14.766 14.762 23.059 34.785 23.059 55.664-0.023437 20.871-8.3242 40.879-23.082 55.637-14.758 14.758-34.766 23.059-55.637 23.082z"/>
  <path d="m266.18 470.85c-16.703 0-32.723 6.6328-44.531 18.445-11.812 11.809-18.445 27.828-18.445 44.531 0 16.699 6.6328 32.719 18.445 44.531 11.809 11.809 27.828 18.445 44.531 18.445 16.699 0 32.719-6.6367 44.527-18.445 11.812-11.812 18.445-27.832 18.445-44.531-0.015626-16.699-6.6562-32.707-18.465-44.512-11.805-11.805-27.812-18.445-44.508-18.465zm-7.8711 55.105h15.742v-0.003906c8.4375 0 16.234 4.5039 20.453 11.809 4.2188 7.3086 4.2188 16.309 0 23.617s-12.016 11.809-20.453 11.809v7.8711c0 4.3477-3.5234 7.8711-7.8711 7.8711-4.3477 0-7.875-3.5234-7.875-7.8711v-7.8711c-6.2617 0-12.27-2.4883-16.699-6.918-4.4258-4.4297-6.9141-10.434-6.9141-16.699 0-4.3477 3.5234-7.8711 7.8711-7.8711s7.8711 3.5234 7.8711 7.8711c0 2.0898 0.82812 4.0898 2.3047 5.5664 1.4766 1.4766 3.4805 2.3047 5.5664 2.3047h15.746c4.3477 0 7.8711-3.5234 7.8711-7.8711s-3.5234-7.8711-7.8711-7.8711h-15.746c-8.4375 0-16.23-4.5-20.449-11.809-4.2188-7.3086-4.2188-16.309 0-23.617 4.2188-7.3047 12.012-11.809 20.449-11.809v-7.8711c0-4.3477 3.5273-7.8711 7.875-7.8711 4.3477 0 7.8711 3.5234 7.8711 7.8711v7.8711c6.2617 0 12.27 2.4883 16.699 6.918 4.4297 4.4297 6.918 10.438 6.918 16.699 0 4.3477-3.5273 7.8711-7.875 7.8711-4.3477 0-7.8711-3.5234-7.8711-7.8711 0-2.0859-0.82812-4.0898-2.3047-5.5664-1.4766-1.4766-3.4805-2.3047-5.5664-2.3047h-15.746c-4.3477 0-7.8711 3.5234-7.8711 7.8711s3.5234 7.8711 7.8711 7.8711z"/>
 </g>
</svg>