<?xml version="1.0" encoding="UTF-8"?>
<!-- The Best Svg Icon site in the world: iconSvg.co, Visit us! https://iconsvg.co -->
<svg width="800px" height="800px" version="1.1" viewBox="144 144 512 512" xmlns="http://www.w3.org/2000/svg">
 <defs>
  <clipPath id="a">
   <path d="m179 163h426v488.9h-426z"/>
  </clipPath>
 </defs>
 <path d="m415.74 494.46c-33.402 0-65.441-13.27-89.062-36.891-23.621-23.617-36.891-55.656-36.891-89.059 0-33.406 13.27-65.441 36.891-89.062 23.621-23.621 55.66-36.891 89.062-36.891 33.406 0 65.441 13.27 89.062 36.891 23.621 23.621 36.891 55.656 36.891 89.062-0.039062 33.391-13.32 65.406-36.934 89.02-23.613 23.609-55.625 36.895-89.02 36.93zm0-220.41c-25.055 0-49.082 9.9531-66.797 27.668-17.715 17.715-27.668 41.742-27.668 66.797 0 25.051 9.9531 49.078 27.668 66.797 17.715 17.715 41.742 27.668 66.797 27.668 25.055 0 49.082-9.9531 66.797-27.668 17.715-17.719 27.668-41.746 27.668-66.797-0.027343-25.047-9.9883-49.059-27.699-66.766-17.707-17.711-41.719-27.672-66.766-27.699z"/>
 <path d="m423.61 431.49h-39.359c-5.625 0-10.82-3.0039-13.633-7.875-2.8125-4.8711-2.8125-10.871 0-15.742s8.0078-7.8711 13.633-7.8711h39.359c4.3477 0 7.875-3.5273 7.875-7.875s-3.5273-7.8711-7.875-7.8711h-15.742c-14.062 0-27.055-7.5-34.086-19.68-7.0312-12.18-7.0312-27.184 0-39.359 7.0312-12.18 20.023-19.68 34.086-19.68h39.359c5.625 0 10.824 3 13.637 7.8711s2.8125 10.871 0 15.742c-2.8125 4.875-8.0117 7.875-13.637 7.875h-39.359c-4.3477 0-7.8711 3.5234-7.8711 7.8711 0 4.3477 3.5234 7.8711 7.8711 7.8711h15.742c14.062 0 27.059 7.5039 34.09 19.68 7.0312 12.18 7.0312 27.184 0 39.359-7.0312 12.18-20.027 19.684-34.09 19.684z"/>
 <path d="m415.74 337.02c-4.1758 0-8.1797-1.6602-11.133-4.6133s-4.6094-6.957-4.6094-11.133v-15.742c0-5.625 3-10.824 7.8711-13.637s10.871-2.8125 15.742 0c4.8711 2.8125 7.875 8.0117 7.875 13.637v15.742c0 4.1758-1.6602 8.1797-4.6133 11.133s-6.957 4.6133-11.133 4.6133z"/>
 <path d="m415.74 447.23c-4.1758 0-8.1797-1.6602-11.133-4.6094-2.9531-2.9531-4.6094-6.957-4.6094-11.133v-15.746c0-5.625 3-10.82 7.8711-13.633s10.871-2.8125 15.742 0c4.8711 2.8125 7.875 8.0078 7.875 13.633v15.746c0 4.1758-1.6602 8.1797-4.6133 11.133-2.9531 2.9492-6.957 4.6094-11.133 4.6094z"/>
 <g clip-path="url(#a)">
  <path d="m494.46 651.9h-125.95c-8.3477-0.007813-16.352-3.3281-22.258-9.2305-5.9023-5.9062-9.2227-13.91-9.2305-22.258v-62.977c-0.003907-4.1719-1.6641-8.1758-4.6172-11.129-2.9492-2.9492-6.9531-4.6094-11.129-4.6133h-47.23c-12.523-0.015624-24.527-4.9961-33.383-13.848-8.8555-8.8555-13.836-20.863-13.852-33.387v-35.883l-36.469-12.164c-4.5312-1.5078-8.1289-4.9922-9.7852-9.4688-1.6562-4.4805-1.1914-9.4688 1.2695-13.562l45.039-75.062v0.003907c1.1836-49.699 21.906-96.93 57.68-131.45 35.77-34.523 83.707-53.555 133.42-52.969 49.707 0.58203 97.184 20.738 132.13 56.09 34.953 35.352 54.559 83.059 54.574 132.77v94.465c-0.027344 22.316-7.9453 43.906-22.348 60.953-14.406 17.047-34.371 28.453-56.375 32.203v80.027c-0.007813 8.3477-3.332 16.352-9.2344 22.254-5.9023 5.9023-13.906 9.2227-22.254 9.2344zm-275.54-229.15 28.613 9.5469c3.1367 1.043 5.8633 3.0469 7.793 5.7266 1.9336 2.6797 2.9727 5.8984 2.9688 9.2031v47.23c0.003907 4.1758 1.6641 8.1797 4.6172 11.129 2.9531 2.9531 6.9531 4.6133 11.129 4.6172h47.23c12.523 0.011719 24.527 4.9961 33.383 13.848 8.8555 8.8555 13.836 20.863 13.852 33.383v62.992l125.95-0.015626v-94.465c0-4.1758 1.6602-8.1797 4.6133-11.133 2.9531-2.9492 6.957-4.6094 11.133-4.6094 16.695-0.015625 32.707-6.6562 44.512-18.465 11.809-11.805 18.449-27.812 18.465-44.512v-94.465c0-56.246-30.008-108.22-78.723-136.35-48.711-28.125-108.73-28.125-157.44 0-48.715 28.125-78.723 80.102-78.723 136.35 0.003907 2.8555-0.77344 5.6562-2.2422 8.1016z"/>
 </g>
</svg>