<?xml version="1.0" encoding="UTF-8"?>
<!-- The Best Svg Icon site in the world: iconSvg.co, Visit us! https://iconsvg.co -->
<svg fill="#000000" width="800px" height="800px" version="1.1" viewBox="144 144 512 512" xmlns="http://www.w3.org/2000/svg">
 <g>
  <path d="m195.63 270.8c0.13672 0.070313 0.27734 0.14844 0.42188 0.20703h0.089843l66.598 25.742-0.003907 116.5c0 25.465 55.812 39.211 108.32 39.211 52.508 0 108.32-13.777 108.32-39.211v-116.46l60.449-23.359v36.406c-12.684 5.7656-21.766 34.668-21.766 54.121h-0.003906c0.007812 2.4883 2.0273 4.5078 4.5156 4.5078h43.535c2.4883 0 4.5117-2.0195 4.5156-4.5078 0-19.465-9.082-48.363-21.766-54.121v-43-0.078125c0.003906-0.054687 0.003906-0.10547 0-0.16016-0.011719-0.23047-0.039063-0.46094-0.089844-0.6875 0.003907-0.035157 0.003907-0.070313 0-0.10938-0.058593-0.24609-0.13672-0.49219-0.23438-0.72656l-0.058594-0.12891c-0.22266-0.48047-0.53125-0.91797-0.90625-1.2891-0.027343-0.035156-0.0625-0.070312-0.097656-0.097656-0.16797-0.16016-0.34375-0.30859-0.53125-0.44141l-0.089844-0.050781-0.089843-0.058594c-0.22656-0.13672-0.46094-0.25781-0.70703-0.35547h-0.050782l-173.32-66.988c-1.043-0.41406-2.207-0.41406-3.25 0l-173.29 66.961-0.11719 0.070313-0.003906-0.003906c-0.10938 0.046875-0.21484 0.097656-0.3125 0.16016-0.16016 0.074219-0.31641 0.16016-0.46484 0.25391l-0.26562 0.20703-0.40234 0.34375c-0.085937 0.089844-0.16406 0.1875-0.23438 0.28516-0.11328 0.125-0.21875 0.25781-0.31641 0.39453-0.070313 0.10547-0.13281 0.21875-0.1875 0.33594-0.085938 0.14453-0.16016 0.29687-0.22656 0.45312-0.003906 0.027344-0.003906 0.058594 0 0.085938-0.03125 0.09375-0.058593 0.19141-0.078125 0.28516-0.054687 0.15625-0.097656 0.3125-0.12891 0.47266 0 0.13672 0 0.27734-0.058594 0.42188-0.058594 0.14844 0 0.29687 0 0.44141v0.45312c0 0.14844 0 0.27734 0.058594 0.42188v0.003906c0.035156 0.16016 0.078125 0.31641 0.12891 0.47266 0 0.089844 0 0.1875 0.078125 0.28516-0.003906 0.03125-0.003906 0.058594 0 0.089844 0.0625 0.15625 0.13672 0.30859 0.22656 0.45312 0.058594 0.10938 0.11719 0.22656 0.1875 0.33594v-0.003907c0.089844 0.13281 0.1875 0.25781 0.29297 0.375l0.25391 0.30469 0.36328 0.30469c0.10938 0.078124 0.20703 0.17578 0.31641 0.24609 0.11328 0.070313 0.25 0.14844 0.37891 0.21875zm274.71 142.45c0 14.277-40.777 30.188-99.285 30.188-58.508 0-99.285-15.891-99.285-30.188v-112.97l97.66 37.727c1.0469 0.40625 2.2031 0.40625 3.25 0l97.664-37.746zm91.098-53.816h-34.203c1.3789-21.402 12.035-41.625 17.102-41.625 5.0703 0.003906 15.734 20.195 17.105 41.625zm-190.38-154.72 160.8 62.129-160.8 62.129-160.77-62.129z"/>
  <path d="m602.21 575.61h-88.887c-0.19922-0.015625-0.40625-0.015625-0.60938 0l-142.85 19.766c-5.0781 0.71094-10.246-0.21875-14.758-2.6562l-131.98-70.699c-3.8555-2.0664-6.6172-5.7148-7.5625-9.9844-0.94531-4.2734 0.019532-8.7461 2.6445-12.246 2.7188-3.6406 6.5234-6.3164 10.871-7.6445 4.3438-1.3281 8.9961-1.2344 13.285 0.26562l97.418 33.859v0.33594c0.015626 6.5195 2.6094 12.766 7.2227 17.375 4.6094 4.6133 10.855 7.207 17.375 7.2227h98.223c2.4961 0 4.5195-2.0195 4.5195-4.5156s-2.0234-4.5156-4.5195-4.5156h-98.211c-4.1211-0.011719-8.0664-1.6523-10.984-4.5625-2.9141-2.9102-4.5625-6.8555-4.582-10.977v-5.4531 0.003907c0.011719-3.9922 1.3867-7.8594 3.8867-10.969 2.5039-3.1055 5.9922-5.2695 9.8867-6.1328l70.219-15.027c26.684-5.6875 54.52-1.7266 78.555 11.18l2.8555 1.5352h-0.003906c0.66016 0.35156 1.3984 0.53906 2.1445 0.53906h85.805c1.2344 0.058593 2.4375-0.39063 3.332-1.2422 0.89062-0.85547 1.3984-2.0352 1.3984-3.2695s-0.50781-2.4141-1.3984-3.2656c-0.89453-0.85156-2.0977-1.3047-3.332-1.2461h-84.641l-1.8516-0.98438c-25.926-13.918-55.945-18.188-84.723-12.043l-70.219 14.996c-5.2031 1.1406-9.9453 3.8086-13.617 7.668s-6.1055 8.7266-6.9883 13.98l-94.809-32.984c-6.0938-2.1367-12.711-2.2695-18.887-0.38672-6.1758 1.8867-11.59 5.6914-15.453 10.867-4.2109 5.6055-5.7617 12.77-4.25 19.613 1.5156 6.8438 5.9414 12.688 12.121 15.996l131.93 70.672c6.2148 3.332 13.328 4.6094 20.312 3.6406l142.53-19.68h88.562c1.2305 0.058593 2.4336-0.39062 3.3281-1.2461 0.89062-0.85156 1.3984-2.0312 1.3984-3.2656s-0.50781-2.4141-1.3984-3.2656c-0.89453-0.85547-2.0977-1.3047-3.3281-1.2461z"/>
 </g>
</svg>