<?xml version="1.0" encoding="UTF-8"?>
<!-- The Best Svg Icon site in the world: iconSvg.co, Visit us! https://iconsvg.co -->
<svg fill="#000000" width="800px" height="800px" version="1.1" viewBox="144 144 512 512" xmlns="http://www.w3.org/2000/svg">
 <g>
  <path d="m240.88 374.48v202.09h318.26v-202.09zm20.992 20.992h276.28v160.11h-276.28z"/>
  <path d="m495.46 297.62v59.082h59.184v-59.082zm20.992 20.992h17.199v17.098h-17.199z"/>
  <path d="m420.52 299.63v59.102h59.203v-59.102zm20.992 20.992h17.219v17.117h-17.219z"/>
  <path d="m420.52 261.54v59.082h59.203v-59.082zm20.992 20.992h17.219v17.098h-17.219z"/>
  <path d="m420.52 223.43v59.102h59.203v-59.102zm20.992 20.992h17.219v17.117h-17.219z"/>
  <path d="m240.88 296.98v61.746h163.65v-61.746zm20.992 20.992h121.67v19.762h-121.67z"/>
  <path d="m240.88 246.57v61.746h163.65v-61.746zm20.992 20.992h121.67v19.762h-121.67z"/>
  <path d="m314.94 412.87v54.652h54.695v-54.652zm20.992 20.992h12.711v12.668h-12.711z"/>
  <path d="m485.05 538.17v-56.09h-56.129v56.09zm-20.992-20.992h-14.145v-14.105h14.145z"/>
  <path d="m453.11 402.01-121.71 132.86 15.477 14.164 121.71-132.86z"/>
 </g>
</svg>