<?xml version="1.0" encoding="UTF-8"?>
<!-- The Best Svg Icon site in the world: iconSvg.co, Visit us! https://iconsvg.co -->
<svg width="800px" height="800px" version="1.1" viewBox="144 144 512 512" xmlns="http://www.w3.org/2000/svg">
 <defs>
  <clipPath id="b">
   <path d="m281 148.09h238v236.91h-238z"/>
  </clipPath>
  <clipPath id="a">
   <path d="m203 384h394v267.9h-394z"/>
  </clipPath>
 </defs>
 <g clip-path="url(#b)">
  <path d="m400 384.25c31.316 0 61.348-12.441 83.492-34.586 22.145-22.145 34.586-52.176 34.586-83.492 0-31.32-12.441-61.352-34.586-83.496-22.145-22.145-52.176-34.586-83.492-34.586s-61.352 12.441-83.496 34.586c-22.145 22.145-34.586 52.176-34.586 83.496 0.035156 31.305 12.488 61.316 34.625 83.453 22.137 22.137 52.148 34.59 83.457 34.625zm0-220.42c27.141 0 53.168 10.785 72.359 29.977 19.195 19.191 29.977 45.219 29.977 72.363 0 27.141-10.781 53.168-29.977 72.359-19.191 19.195-45.219 29.977-72.359 29.977-27.145 0-53.172-10.781-72.363-29.977-19.191-19.191-29.973-45.219-29.973-72.359 0.03125-27.133 10.82-53.145 30.008-72.328 19.184-19.188 45.195-29.98 72.328-30.012z"/>
 </g>
 <path d="m335.75 312.35c3.75-2.1875 5.0234-7 2.8438-10.754-11.828-20.438-12.695-45.426-2.3125-66.637 10.383-21.207 30.652-35.848 54.051-39.043 23.395-3.1953 46.848 5.4766 62.535 23.129 15.688 17.648 21.551 41.953 15.637 64.816-5.9141 22.859-22.832 41.27-45.113 49.098-22.281 7.8242-46.992 4.0352-65.906-10.109-3.4766-2.6094-8.4102-1.9023-11.02 1.5742-2.6094 3.4805-1.9023 8.4141 1.5742 11.023 14.961 11.293 33.211 17.375 51.957 17.316 25.578-0.011719 49.844-11.336 66.281-30.938s23.363-45.469 18.918-70.66c-4.4492-25.191-19.812-47.125-41.965-59.914-22.156-12.789-48.832-15.121-72.871-6.375-24.039 8.75-42.977 27.684-51.73 51.719-8.7539 24.039-6.4219 50.715 6.3594 72.871 1.0469 1.8125 2.7656 3.1328 4.7852 3.6719 2.0195 0.54297 4.168 0.25781 5.9766-0.78906z"/>
 <path d="m400.46 289.79h-16.211c-4.3477 0-7.8711 3.5273-7.8711 7.875 0 4.3477 3.5234 7.8711 7.8711 7.8711h16.211c8.4336-0.082031 16.188-4.6602 20.336-12.012 4.1445-7.3477 4.0547-16.348-0.23438-23.613-4.2891-7.2656-12.129-11.691-20.566-11.609-4.3477 0-7.875-3.5234-7.875-7.8711 0-4.3477 3.5273-7.8711 7.875-7.8711h16.207c4.3477 0 7.8711-3.5234 7.8711-7.8711s-3.5234-7.875-7.8711-7.875h-16.207c-8.4375 0.085938-16.191 4.6641-20.336 12.012-4.1484 7.3477-4.0586 16.352 0.23047 23.613 4.2891 7.2656 12.133 11.691 20.57 11.609 4.3477 0 7.8711 3.5234 7.8711 7.8711 0 4.3477-3.5234 7.8711-7.8711 7.8711z"/>
 <g clip-path="url(#a)">
  <path d="m549.57 589.56v-8.5039c-0.011718-9.6367-3.5508-18.938-9.9531-26.141-6.4023-7.2031-15.223-11.809-24.793-12.953l-11.02-18.332c-21.613-35.961-33.004-77.133-32.953-119.09v-12.414c0-2.0859-0.83203-4.0898-2.3047-5.5664-1.4766-1.4766-3.4805-2.3047-5.5664-2.3047-4.3477 0-7.875 3.5234-7.875 7.8711v12.406c-0.042968 44.82 12.137 88.801 35.219 127.21l13.152 21.883h0.003906c1.4219 2.3594 3.9727 3.8047 6.7305 3.8086 6.2617 0 12.27 2.4883 16.699 6.918 4.4297 4.4297 6.918 10.438 6.918 16.699v7.8711h-267.65v-7.8711c0-6.2617 2.4883-12.27 6.9141-16.699 4.4297-4.4297 10.438-6.918 16.699-6.918h110.21c4.3477 0 7.8711-3.5234 7.8711-7.8711s-3.5234-7.8711-7.8711-7.8711h-96.324l6.1797-10.312c22.879-38.188 34.988-81.859 35.039-126.38v-12.879c0-2.0859-0.82812-4.0898-2.3047-5.5664-1.4766-1.4766-3.4805-2.3047-5.5664-2.3047-4.3477 0-7.875 3.5234-7.875 7.8711v12.871c-0.039063 41.676-11.371 82.559-32.785 118.31l-11.18 18.664c-9.5664 1.1406-18.391 5.7461-24.793 12.949s-9.9492 16.5-9.9609 26.137v8.5039c-13.102 1.8906-25.09 8.4375-33.762 18.438-8.6719 10.004-13.453 22.797-13.469 36.035 0 2.0859 0.82812 4.0898 2.3047 5.5664 1.4766 1.4766 3.4766 2.3047 5.5664 2.3047h377.86c2.0898 0 4.0898-0.82812 5.5664-2.3047 1.4766-1.4766 2.3086-3.4805 2.3086-5.5664-0.027343-13.238-4.8125-26.023-13.484-36.023s-20.648-16.551-33.75-18.449zm-329.84 46.602c1.8242-8.8867 6.6562-16.871 13.684-22.605 7.0273-5.7344 15.816-8.875 24.887-8.8828h283.39c9.0703 0.007813 17.859 3.1484 24.887 8.8828 7.0273 5.7344 11.859 13.719 13.688 22.605z"/>
 </g>
</svg>