<?xml version="1.0" encoding="UTF-8"?>
<!-- The Best Svg Icon site in the world: iconSvg.co, Visit us! https://iconsvg.co -->
<svg fill="#000000" width="800px" height="800px" version="1.1" viewBox="144 144 512 512" xmlns="http://www.w3.org/2000/svg">
 <path d="m493.95 402.96c10.59-11.297 16.582-26.234 16.582-41.84 0-31.613-23.93-57.832-55.035-60.984-10.137-21.277-31.5-34.855-55.273-34.855-23.785 0-45.156 13.559-55.305 34.824-31.352 2.9102-55.461 29.125-55.461 61.016 0 15.742 6.0625 30.754 16.766 42.047-0.74609 0.71875-1.5156 1.4141-2.2109 2.1953-1.4766 1.6328-1.7344 4.0273-0.62891 5.9258 0.32422 0.55859 32.207 53.914 91.75 25.418 0.14453 19.16-1.0742 67.848-16.395 90.125-1.5781 2.293-0.99219 5.4297 1.3008 7.0078 0.875 0.59766 1.8672 0.88672 2.8516 0.88672 1.6016 0 3.1797-0.75391 4.1523-2.1875 17.035-24.777 18.379-75.48 18.184-95.734 12.035 5.9258 23.684 8.8984 34.844 8.8984 5.5508 0 10.984-0.73047 16.281-2.207 26.922-7.4883 40.168-31.312 40.719-32.324 1.0312-1.8906 0.74609-4.2109-0.69141-5.8047-0.75781-0.84375-1.5938-1.6289-2.4297-2.4062zm-194.41-41.84c0-27.531 21.504-50.008 48.957-51.168 1.9609-0.082031 3.6875-1.2891 4.4375-3.0898 7.9688-19.141 26.531-31.508 47.293-31.508 20.73 0 39.281 12.359 47.242 31.5 0.74609 1.7969 2.457 3.0039 4.3984 3.0977 27.246 1.3945 48.594 23.871 48.594 51.168 0 13.41-5.2852 26.262-14.609 35.789-7.7031-4.3789-17.055-6.5938-27.855-6.5938-11.688 0-22.73 2.6016-30.031 4.8125 8.0312-47.41-25.148-64.352-25.508-64.531-1.25-0.60938-2.6836-0.69141-3.9844-0.20703-0.35156 0.13672-34.195 13.383-25.871 64.773-7.3086-2.2227-18.43-4.8633-30.199-4.8633-10.922 0-20.348 2.2734-28.102 6.75-9.4297-9.5117-14.762-22.398-14.762-35.93zm154.02 72.688c-15.359 4.2422-32.395 0.98438-50.609-9.6719-0.77734-0.45312-2.0547-0.69141-2.9531-0.69141-0.050782 0-0.089844 0.011719-0.13672 0.019532-0.03125 0-0.058594-0.019532-0.089844-0.019532-0.082031 0.011719-0.13672 0.050782-0.21484 0.058594-0.51563 0.039063-1.0117 0.16797-1.4844 0.36328-0.11719 0.058593-0.23828 0.089843-0.35156 0.14453-0.070312 0.039062-0.14453 0.050781-0.21484 0.089843-47.695 27.305-75.621-4.0469-83.266-14.672 0.77734-0.69141 1.582-1.3281 2.4141-1.918v-0.011719c6.6055-4.7266 15.27-7.125 25.75-7.125 17.871 0 34.738 7.0312 34.902 7.1055 1.7539 0.73438 3.7695 0.43359 5.2148-0.78516 1.4453-1.2305 2.0859-3.168 1.6523-5.0078-10.086-42.559 9.2812-57.238 15.816-60.879 6.6289 4.3789 26.574 21.227 16.281 60.773-0.48438 1.8594 0.13672 3.8281 1.582 5.0781 1.457 1.2578 3.4922 1.5664 5.2656 0.82812 0.16797-0.070312 16.934-7.0938 34.875-7.0938 10.383 0 18.973 2.3516 25.555 6.9766h0.011719c0.92578 0.66016 1.8203 1.3672 2.6641 2.1172-4.2656 6.1367-15.246 19.52-32.664 24.32z"/>
</svg>