<?xml version="1.0" encoding="UTF-8"?>
<!-- The Best Svg Icon site in the world: iconSvg.co, Visit us! https://iconsvg.co -->
<svg fill="#000000" width="800px" height="800px" version="1.1" viewBox="144 144 512 512" xmlns="http://www.w3.org/2000/svg">
 <path d="m367.25 441.4 20.152 50.383-113.36-0.003906 20.152-50.383 73.051 0.003906m0-10.078h-73.051c-4.1172 0-7.8281 2.5078-9.3555 6.332l-20.152 50.383c-1.2383 3.1016-0.86328 6.6211 1.0117 9.3906 1.875 2.7695 4.9961 4.4297 8.3438 4.4297h113.36c3.3438 0 6.4688-1.6562 8.3438-4.4297 1.875-2.7656 2.2539-6.2891 1.0117-9.3906l-20.152-50.383c-1.5234-3.8203-5.2383-6.332-9.3555-6.332zm138.55 10.078 20.152 50.383-113.36-0.003906 20.152-50.383 73.051 0.003906m0-10.078h-73.051c-4.1172 0-7.8281 2.5078-9.3555 6.332l-20.152 50.383c-1.2383 3.1016-0.86328 6.6211 1.0117 9.3906 1.875 2.7695 4.9961 4.4297 8.3438 4.4297h113.36c3.3438 0 6.4688-1.6562 8.3438-4.4297 1.875-2.7656 2.2539-6.2891 1.0117-9.3906l-20.152-50.383c-1.5234-3.8203-5.2383-6.332-9.3555-6.332zm-69.273-68.219 20.152 50.383h-113.36l20.152-50.383h73.051m0-10.078h-73.051c-4.1172 0-7.8281 2.5078-9.3555 6.332l-20.152 50.383c-1.2383 3.1016-0.86328 6.6211 1.0117 9.3906 1.875 2.7695 4.9961 4.4297 8.3438 4.4297h113.36c3.3438 0 6.4688-1.6562 8.3438-4.4297 1.875-2.7656 2.2539-6.2891 1.0117-9.3906l-20.152-50.383c-1.5234-3.8203-5.2383-6.332-9.3555-6.332zm-31.488-51.117v-49.117c0-2.7812-2.2539-5.0391-5.0391-5.0391s-5.0391 2.2578-5.0391 5.0391v49.117c0 2.7812 2.2539 5.0391 5.0391 5.0391 2.7891 0 5.0391-2.2578 5.0391-5.0391zm-79.348 61.188c0-2.7812-2.2539-5.0391-5.0391-5.0391h-47.438c-2.7852 0-5.0391 2.2578-5.0391 5.0391s2.2539 5.0391 5.0391 5.0391h47.438c2.7852 0 5.0391-2.2578 5.0391-5.0391zm204.04 0c0-2.7812-2.2539-5.0391-5.0391-5.0391l-46.602 0.003906c-2.7852 0-5.0391 2.2578-5.0391 5.0391s2.2539 5.0391 5.0391 5.0391h46.602c2.7852-0.003906 5.0391-2.2617 5.0391-5.043zm-76.641-41.652 33.387-33.391c1.9688-1.9688 1.9688-5.1602 0-7.125-1.9688-1.9688-5.1523-1.9688-7.125 0l-33.387 33.391c-1.9688 1.9688-1.9688 5.1602 0 7.125 0.98438 0.98438 2.2734 1.4766 3.5625 1.4766 1.2891 0 2.582-0.48828 3.5625-1.4766zm-99.055 0c1.9688-1.9648 1.9688-5.1523 0-7.125l-34.117-34.133c-1.9688-1.9688-5.1523-1.9688-7.125 0-1.9688 1.9648-1.9688 5.1523 0 7.125l34.117 34.133c0.98438 0.98438 2.2734 1.4766 3.5625 1.4766 1.293 0 2.582-0.48828 3.5625-1.4766z"/>
</svg>