<?xml version="1.0" encoding="UTF-8"?>
<!-- The Best Svg Icon site in the world: iconSvg.co, Visit us! https://iconsvg.co -->
<svg fill="#000000" width="800px" height="800px" version="1.1" viewBox="144 144 512 512" xmlns="http://www.w3.org/2000/svg">
 <path d="m630.54 347.28c-0.03125-0.050782-0.09375-0.082032-0.125-0.13672-0.21875-0.53516-0.51562-1.0586-0.94531-1.5l-112.83-118.71c-0.21094-0.21875-0.45312-0.30469-0.66016-0.46094-0.19922-0.14844-0.34766-0.27344-0.56641-0.38672-0.78906-0.45312-1.6484-0.75391-2.5312-0.75391-0.019531 0-0.042969-0.011719-0.050781-0.011719h-225.66c-0.011718 0-0.03125 0.011719-0.042968 0.011719-0.89063 0-1.7539 0.30469-2.5391 0.75391-0.19922 0.11719-0.35547 0.24219-0.54688 0.38672-0.21875 0.16797-0.47266 0.26172-0.66016 0.47266l-112.84 118.68c-0.42969 0.44141-0.70312 0.96484-0.94531 1.5-0.019532 0.050781-0.082032 0.082031-0.11719 0.13672v0.042969c-0.34766 0.87109-0.37891 1.7852-0.24219 2.6875 0.03125 0.21875 0.074219 0.41016 0.13672 0.62109 0.21875 0.82812 0.60937 1.6055 1.2383 2.2578 0.03125 0.03125 0.03125 0.082031 0.0625 0.125l225.63 220.15c0.09375 0.10547 0.19922 0.19922 0.29297 0.27344 0.82031 0.70313 1.8047 1.0898 2.832 1.2188h0.011719c0.19922 0.019532 0.37891 0.03125 0.55469 0.03125 0.13672 0 0.31641 0.042969 0.34766-0.011718 1.2188-0.082032 2.4023-0.57812 3.3281-1.5l225.64-220.16c0.042969-0.03125 0.042969-0.082031 0.0625-0.125 0.65234-0.66016 1.0273-1.4375 1.25-2.2578 0.042969-0.21094 0.10547-0.39844 0.13672-0.62109 0.13672-0.90234 0.10547-1.8281-0.23047-2.6875 0.003906 0 0.003906-0.007813 0.003906-0.019531zm-117.7-109.11 100.61 105.83h-201.21zm-225.66 0 100.61 105.83h-201.21zm107.58 318.79-207.53-202.46h207.52zm5.25-215.34-100.61-105.83h201.21zm5.2461 215.34v-202.46h207.52z"/>
</svg>