<?xml version="1.0" encoding="UTF-8"?>
<!-- The Best Svg Icon site in the world: iconSvg.co, Visit us! https://iconsvg.co -->
<svg fill="#000000" width="800px" height="800px" version="1.1" viewBox="144 144 512 512" xmlns="http://www.w3.org/2000/svg">
 <g>
  <path d="m400 433.45c-19.027 0-36.973-4.8281-50.527-13.602-14.086-9.1133-21.84-21.406-21.84-34.617 0-7.6797 2.7461-15.312 7.9453-22.078 0.74609-0.96875 1.8984-1.5391 3.1211-1.5391 1.2227 0 2.375 0.57031 3.1211 1.5391 10.762 14.012 33.598 23.066 58.18 23.066s47.418-9.0547 58.18-23.062c0.74609-0.96875 1.8984-1.5391 3.1211-1.5391 1.2227 0 2.375 0.56641 3.1211 1.5391 5.1992 6.7656 7.9453 14.398 7.9453 22.078 0 13.207-7.7578 25.504-21.84 34.617-13.555 8.7695-31.5 13.598-50.527 13.598zm-60.898-61.41c-2.3906 4.2383-3.5977 8.6602-3.5977 13.195 0 22.246 28.934 40.344 64.496 40.344s64.496-18.098 64.496-40.344c0-4.5352-1.207-8.957-3.5977-13.195-13.199 13.711-35.941 22.051-60.898 22.051-24.961 0-47.699-8.3398-60.898-22.051z"/>
  <path d="m400 472.82c-19.027 0-36.973-4.8281-50.527-13.602-14.086-9.1133-21.84-21.406-21.84-34.617 0-7.6797 2.7461-15.312 7.9453-22.078 0.74609-0.96875 1.8984-1.5391 3.1211-1.5391 1.2227 0 2.375 0.57031 3.1211 1.5391 10.762 14.012 33.598 23.062 58.18 23.062s47.418-9.0508 58.18-23.062c0.74609-0.96875 1.8984-1.5391 3.1211-1.5391 1.2227 0 2.375 0.56641 3.1211 1.5391 5.1992 6.7617 7.9453 14.398 7.9453 22.078 0 13.211-7.7578 25.504-21.84 34.617-13.555 8.7695-31.5 13.602-50.527 13.602zm-60.898-61.414c-2.3906 4.2383-3.5977 8.6602-3.5977 13.195 0 22.246 28.934 40.344 64.496 40.344s64.496-18.098 64.496-40.344c0-4.5352-1.207-8.957-3.5977-13.195-13.199 13.711-35.941 22.051-60.898 22.051-24.961 0-47.699-8.3398-60.898-22.051z"/>
  <path d="m400 512.18c-19.027 0-36.973-4.8281-50.527-13.602-14.086-9.1133-21.84-21.406-21.84-34.617 0-7.6797 2.7461-15.312 7.9453-22.078 0.74609-0.96875 1.8984-1.5391 3.1211-1.5391 1.2227 0 2.375 0.57031 3.1211 1.5391 10.762 14.012 33.598 23.062 58.18 23.062s47.418-9.0508 58.18-23.062c0.74609-0.96875 1.8984-1.5391 3.1211-1.5391 1.2227 0 2.375 0.56641 3.1211 1.5391 5.1992 6.7617 7.9453 14.398 7.9453 22.078 0 13.211-7.7578 25.504-21.84 34.617-13.555 8.7695-31.5 13.602-50.527 13.602zm-60.898-61.41c-2.3906 4.2383-3.5977 8.6602-3.5977 13.195 0 22.246 28.934 40.344 64.496 40.344s64.496-18.098 64.496-40.344c0-4.5352-1.207-8.957-3.5977-13.195-13.199 13.707-35.941 22.051-60.898 22.051-24.961 0-47.699-8.3438-60.898-22.051z"/>
  <path d="m400 551.54c-19.027 0-36.973-4.8281-50.527-13.602-14.086-9.1133-21.84-21.406-21.84-34.617 0-7.6797 2.7461-15.312 7.9453-22.078 0.74609-0.96875 1.8984-1.5391 3.1211-1.5391 1.2227 0 2.375 0.57031 3.1211 1.5391 10.762 14.012 33.598 23.066 58.18 23.066s47.418-9.0508 58.18-23.062c0.74609-0.96875 1.8984-1.5391 3.1211-1.5391 1.2227 0 2.375 0.56641 3.1211 1.5391 5.1992 6.7617 7.9453 14.398 7.9453 22.078 0 13.211-7.7578 25.504-21.84 34.617-13.555 8.7695-31.5 13.598-50.527 13.598zm-60.898-61.41c-2.3906 4.2383-3.5977 8.6602-3.5977 13.195 0 22.246 28.934 40.344 64.496 40.344s64.496-18.098 64.496-40.344c0-4.5352-1.207-8.957-3.5977-13.195-13.199 13.711-35.941 22.051-60.898 22.051-24.961 0-47.699-8.3398-60.898-22.051z"/>
  <path d="m400 590.89c-19.027 0-36.973-4.832-50.527-13.602-14.086-9.1133-21.84-21.406-21.84-34.617 0-7.6797 2.7461-15.312 7.9453-22.078 0.74609-0.96875 1.8984-1.5391 3.1211-1.5391 1.2227 0 2.375 0.57031 3.1211 1.5391 10.762 14.012 33.598 23.066 58.18 23.066s47.418-9.0508 58.18-23.062c0.74609-0.96875 1.8984-1.5391 3.1211-1.5391 1.2227 0 2.375 0.56641 3.1211 1.5391 5.1992 6.7617 7.9453 14.398 7.9453 22.078 0 13.207-7.7578 25.5-21.84 34.617-13.559 8.7695-31.5 13.598-50.527 13.598zm-60.898-61.41c-2.3906 4.2383-3.5977 8.6602-3.5977 13.195 0 22.246 28.934 40.344 64.496 40.344s64.496-18.098 64.496-40.344c0-4.5352-1.207-8.957-3.5977-13.195-13.199 13.711-35.941 22.051-60.898 22.051-24.961 0-47.699-8.3398-60.898-22.051z"/>
  <path d="m400 630.25c-19.027 0-36.973-4.832-50.527-13.602-14.086-9.1133-21.84-21.406-21.84-34.617 0-7.6797 2.7461-15.312 7.9453-22.078 0.74609-0.96875 1.8984-1.5391 3.1211-1.5391 1.2227 0 2.375 0.56641 3.1211 1.5391 10.762 14.016 33.598 23.066 58.18 23.066s47.418-9.0508 58.18-23.062c0.74609-0.96875 1.8984-1.5391 3.1211-1.5391 1.2227 0 2.375 0.56641 3.1211 1.5391 5.1992 6.7656 7.9453 14.398 7.9453 22.078 0 13.207-7.7578 25.5-21.84 34.617-13.559 8.7695-31.5 13.598-50.527 13.598zm-60.898-61.41c-2.3906 4.2383-3.5977 8.6602-3.5977 13.195 0 22.246 28.934 40.344 64.496 40.344s64.496-18.098 64.496-40.344c0-4.5352-1.207-8.957-3.5977-13.195-13.199 13.711-35.941 22.051-60.898 22.051-24.961 0-47.699-8.3398-60.898-22.051z"/>
  <path d="m400 394.09c-27.352 0-52.035-10.016-64.422-26.137-5.1992-6.7656-7.9453-14.398-7.9453-22.078 0-13.207 7.7578-25.504 21.84-34.617 13.555-8.7695 31.496-13.598 50.527-13.598 19.027 0 36.973 4.832 50.527 13.602 14.086 9.1133 21.84 21.406 21.84 34.617 0 7.6797-2.7461 15.316-7.9453 22.078-12.387 16.117-37.07 26.133-64.422 26.133zm0-88.559c-35.562 0-64.496 18.098-64.496 40.344 0 6.0156 2.125 11.828 6.3164 17.281 10.762 14.008 33.598 23.062 58.18 23.062s47.418-9.0547 58.18-23.062c4.1914-5.4531 6.3164-11.27 6.3164-17.281 0-22.246-28.934-40.344-64.496-40.344z"/>
  <path d="m537.76 551.54c-19.027 0-36.973-4.8281-50.527-13.602-14.086-9.1133-21.84-21.406-21.84-34.617 0-7.6797 2.7461-15.316 7.9453-22.078 0.74609-0.96875 1.8984-1.5391 3.1211-1.5391 1.2227 0 2.375 0.57031 3.1211 1.5391 10.762 14.012 33.602 23.066 58.18 23.066 24.582 0 47.418-9.0508 58.18-23.062 0.74609-0.96875 1.8984-1.5391 3.1211-1.5391s2.375 0.56641 3.1211 1.5391c5.1992 6.7617 7.9453 14.398 7.9453 22.078 0 13.211-7.7578 25.504-21.84 34.617-13.555 8.7695-31.496 13.598-50.527 13.598zm-60.898-61.41c-2.3906 4.2383-3.5977 8.6602-3.5977 13.195 0 22.246 28.934 40.344 64.496 40.344s64.496-18.098 64.496-40.344c0-4.5352-1.207-8.957-3.5977-13.195-13.199 13.711-35.938 22.051-60.898 22.051-24.957 0-47.699-8.3398-60.898-22.051z"/>
  <path d="m537.76 590.89c-19.027 0-36.973-4.832-50.527-13.602-14.086-9.1133-21.84-21.406-21.84-34.617 0-7.6797 2.7461-15.316 7.9453-22.078 0.74609-0.96875 1.8984-1.5391 3.1211-1.5391 1.2227 0 2.375 0.57031 3.1211 1.5391 10.762 14.012 33.602 23.066 58.18 23.066 24.582 0 47.418-9.0508 58.18-23.062 0.74609-0.96875 1.8984-1.5391 3.1211-1.5391s2.375 0.56641 3.1211 1.5391c5.1992 6.7617 7.9453 14.398 7.9453 22.078 0 13.207-7.7578 25.5-21.84 34.617-13.555 8.7695-31.496 13.598-50.527 13.598zm-60.898-61.41c-2.3906 4.2383-3.5977 8.6602-3.5977 13.195 0 22.246 28.934 40.344 64.496 40.344s64.496-18.098 64.496-40.344c0-4.5352-1.207-8.957-3.5977-13.195-13.199 13.711-35.938 22.051-60.898 22.051-24.957 0-47.699-8.3398-60.898-22.051z"/>
  <path d="m537.76 630.25c-19.027 0-36.973-4.832-50.527-13.602-14.086-9.1133-21.84-21.406-21.84-34.617 0-7.6797 2.7461-15.312 7.9453-22.078 0.74609-0.96875 1.8984-1.5391 3.1211-1.5391 1.2227 0 2.375 0.57031 3.1211 1.5391 10.762 14.016 33.602 23.066 58.18 23.066 24.582 0 47.418-9.0508 58.18-23.062 0.74609-0.96875 1.8984-1.5391 3.1211-1.5391s2.375 0.56641 3.1211 1.5391c5.1992 6.7656 7.9453 14.398 7.9453 22.078 0 13.207-7.7578 25.5-21.84 34.617-13.555 8.7695-31.496 13.598-50.527 13.598zm-60.898-61.41c-2.3906 4.2383-3.5977 8.6602-3.5977 13.195 0 22.246 28.934 40.344 64.496 40.344s64.496-18.098 64.496-40.344c0-4.5352-1.207-8.957-3.5977-13.195-13.199 13.711-35.938 22.051-60.898 22.051-24.957 0-47.699-8.3398-60.898-22.051z"/>
  <path d="m537.76 512.18c-27.352 0-52.039-10.016-64.422-26.137-5.1992-6.7617-7.9453-14.398-7.9453-22.078 0-13.211 7.7578-25.504 21.84-34.617 13.555-8.7734 31.5-13.602 50.527-13.602 19.027 0 36.973 4.8281 50.527 13.602 14.086 9.1133 21.84 21.406 21.84 34.617 0 7.6797-2.7461 15.316-7.9453 22.078-12.383 16.121-37.07 26.137-64.422 26.137zm0-88.562c-35.562 0-64.496 18.098-64.496 40.344 0 6.0156 2.125 11.828 6.3164 17.281 10.762 14.012 33.602 23.066 58.18 23.066 24.582 0 47.418-9.0508 58.18-23.062 4.1914-5.4531 6.3164-11.266 6.3164-17.281 0-22.246-28.93-40.348-64.496-40.348z"/>
  <path d="m263.13 590.89c-19.027 0-36.973-4.832-50.527-13.602-14.086-9.1133-21.84-21.406-21.84-34.613 0-7.6797 2.7461-15.312 7.9453-22.078 0.74609-0.96875 1.8984-1.5391 3.1211-1.5391 1.2227 0 2.375 0.56641 3.1211 1.5391 10.762 14.008 33.602 23.062 58.18 23.062 24.582 0 47.418-9.0508 58.184-23.062 0.74609-0.96875 1.8984-1.5391 3.1211-1.5391s2.375 0.57031 3.1211 1.5391c5.1992 6.7656 7.9453 14.398 7.9453 22.078 0 13.207-7.7578 25.5-21.844 34.617-13.555 8.7695-31.5 13.598-50.527 13.598zm-60.898-61.41c-2.3906 4.2383-3.5977 8.6602-3.5977 13.195 0 22.246 28.934 40.344 64.496 40.344s64.496-18.098 64.496-40.344c0-4.5352-1.207-8.957-3.5977-13.195-13.199 13.711-35.941 22.051-60.898 22.051-24.957 0-47.699-8.3398-60.898-22.051z"/>
  <path d="m263.13 630.25c-19.027 0-36.973-4.832-50.527-13.602-14.086-9.1133-21.84-21.406-21.84-34.613 0-7.6797 2.7461-15.312 7.9453-22.078 0.74609-0.96875 1.8984-1.5391 3.1211-1.5391 1.2227 0 2.375 0.56641 3.1211 1.5391 10.762 14.012 33.602 23.062 58.18 23.062 24.582 0 47.418-9.0508 58.184-23.062 0.74609-0.96875 1.8984-1.5391 3.1211-1.5391s2.375 0.57031 3.1211 1.5391c5.1992 6.7656 7.9453 14.402 7.9453 22.078 0 13.207-7.7578 25.5-21.844 34.617-13.555 8.7695-31.5 13.598-50.527 13.598zm-60.898-61.41c-2.3906 4.2383-3.5977 8.6602-3.5977 13.195 0 22.246 28.934 40.344 64.496 40.344s64.496-18.098 64.496-40.344c0-4.5312-1.207-8.9531-3.5977-13.195-13.199 13.711-35.941 22.051-60.898 22.051-24.957 0-47.699-8.3398-60.898-22.051z"/>
  <path d="m263.13 551.54c-27.352 0-52.035-10.016-64.422-26.137-5.1992-6.7656-7.9453-14.398-7.9453-22.078 0-13.211 7.7578-25.504 21.844-34.617 13.551-8.7695 31.496-13.602 50.523-13.602 19.027 0 36.973 4.8281 50.527 13.602 14.086 9.1133 21.844 21.406 21.844 34.617 0 7.6797-2.7461 15.312-7.9453 22.078-12.391 16.121-37.074 26.137-64.426 26.137zm0-88.559c-35.562 0-64.496 18.098-64.496 40.344 0 6.0117 2.125 11.828 6.3164 17.281 10.762 14.008 33.602 23.062 58.18 23.062 24.582 0 47.418-9.0508 58.184-23.062 4.1914-5.457 6.3164-11.27 6.3164-17.281-0.003906-22.246-28.938-40.344-64.5-40.344z"/>
  <path d="m408.6 259.22c-3.5078 0-7.1094-0.19531-10.707-0.57812-1.8398-0.19531-3.293-1.6484-3.4961-3.4883-2.8086-25.891 4.3125-48.848 20.062-64.637 13.555-13.594 32.172-20.777 53.84-20.777 3.5078 0 7.1094 0.19531 10.707 0.57812 1.8398 0.19531 3.2969 1.6484 3.4961 3.4883 2.8086 25.902-4.3125 48.855-20.062 64.637-13.555 13.594-32.176 20.777-53.84 20.777zm-6.6719-8.1172c2.2461 0.16406 4.4805 0.24609 6.6719 0.24609 19.531 0 36.223-6.3867 48.27-18.465 13.391-13.418 19.762-32.867 18.102-55.027-2.2461-0.16406-4.4805-0.24609-6.668-0.24609-19.531 0-36.223 6.3867-48.27 18.465-13.395 13.426-19.766 32.875-18.105 55.027z"/>
  <path d="m386.87 259.22h-0.003906c-21.668 0-40.285-7.1836-53.844-20.777-15.746-15.781-22.871-38.734-20.059-64.637 0.19922-1.8398 1.6523-3.293 3.4961-3.4883 3.5977-0.38281 7.1992-0.57812 10.707-0.57812 21.668 0 40.289 7.1836 53.844 20.777 15.746 15.789 22.871 38.746 20.062 64.637-0.19922 1.8398-1.6523 3.293-3.4961 3.4883-3.6016 0.38281-7.2031 0.57812-10.707 0.57812zm-66.375-81.363c-1.6602 22.16 4.7109 41.605 18.102 55.027 12.047 12.078 28.738 18.465 48.27 18.465h0.003906c2.1875 0 4.4219-0.082031 6.668-0.24609 1.6602-22.152-4.7109-41.598-18.102-55.027-12.047-12.078-28.738-18.465-48.27-18.465-2.1914 0-4.4219 0.082031-6.6719 0.24609z"/>
  <path d="m398.31 344.89c-2.1719 0-3.9375-1.7617-3.9375-3.9375v-86.227c0-2.1719 1.7617-3.9375 3.9375-3.9375 2.1719 0 3.9375 1.7617 3.9375 3.9375v86.227c0 2.1758-1.7617 3.9375-3.9375 3.9375z"/>
  <path d="m560.63 242.14c-0.13281-0.17578-0.51562-0.46094-1.1523-0.85547-0.63672-0.39453-1.4453-0.82031-2.4297-1.2812-0.98828-0.46094-2.082-0.89844-3.2891-1.3164-1.207-0.41406-2.4219-0.71094-3.6484-0.88672v8.9375l2.1055 0.52734c2.2344 0.61328 4.2461 1.2812 6.0469 2.0039 1.793 0.72266 3.3203 1.6211 4.5703 2.6953s2.2109 2.3789 2.8906 3.9102c0.67969 1.5352 1.0195 3.375 1.0195 5.5195 0 2.5-0.44141 4.625-1.3164 6.375-0.875 1.7539-2.0469 3.1875-3.5156 4.3047s-3.1523 1.9609-5.0625 2.5312c-1.9062 0.57031-3.9141 0.89844-6.0156 0.98438v7.625h-4.5352v-7.6914c-3.0234-0.26172-6.0117-0.875-8.9688-1.8398s-5.6211-2.2344-7.9844-3.8125l4.7305-9.3984c0.17578 0.21875 0.64453 0.58203 1.4141 1.0859 0.76172 0.50391 1.7422 1.0312 2.9219 1.5781 1.1836 0.55078 2.5195 1.0742 4.0117 1.5781 1.4883 0.50391 3.0234 0.86719 4.6016 1.0859v-8.7422l-3.1562-0.92188c-2.1484-0.65625-4.0078-1.3672-5.5859-2.1367-1.5781-0.76562-2.8828-1.6523-3.9141-2.6602s-1.7969-2.168-2.3008-3.4844c-0.50391-1.3164-0.75391-2.8477-0.75391-4.6016 0-2.2773 0.39453-4.3047 1.1836-6.082 0.78906-1.7734 1.8516-3.2969 3.1836-4.5703 1.3359-1.2695 2.9141-2.2656 4.7344-2.9922 1.8164-0.72266 3.7773-1.1953 5.8828-1.4141v-6.6406h4.5352v6.6406c2.8477 0.26172 5.5195 0.89844 8.0195 1.9062 2.4961 1.0078 4.6641 2.0352 6.5078 3.0898zm-18.207-0.58984c0 1.0938 0.38281 1.9609 1.1484 2.5977 0.76562 0.63672 1.9141 1.1953 3.4531 1.6758v-8.0859c-3.0664 0.26172-4.6016 1.5352-4.6016 3.8125zm12.754 20.898c0-1.1406-0.46094-2.0273-1.3828-2.6602-0.92188-0.63281-2.1484-1.2148-3.6797-1.7422v7.8867c3.375-0.12891 5.0625-1.293 5.0625-3.4844z"/>
  <path d="m548.05 305.54c-29.297 0-53.137-23.836-53.137-53.137 0-29.301 23.836-53.137 53.137-53.137 29.297 0 53.137 23.836 53.137 53.137 0 29.301-23.84 53.137-53.137 53.137zm0-98.402c-24.957 0-45.266 20.305-45.266 45.266 0 24.957 20.305 45.266 45.266 45.266 24.957 0 45.266-20.305 45.266-45.266 0-24.957-20.309-45.266-45.266-45.266z"/>
  <path d="m255.59 350.39c-0.13281-0.17578-0.51562-0.46094-1.1484-0.85547-0.63672-0.39453-1.4453-0.82031-2.4336-1.2812-0.98438-0.46094-2.082-0.89844-3.2852-1.3164-1.207-0.41406-2.4219-0.71094-3.6484-0.88672v8.9375l2.1055 0.52734c2.2344 0.61328 4.25 1.2812 6.0469 2.0039s3.3203 1.6211 4.5703 2.6953c1.25 1.0742 2.2109 2.3789 2.8906 3.9102 0.67969 1.5352 1.0195 3.375 1.0195 5.5195 0 2.5-0.4375 4.625-1.3164 6.375-0.875 1.7539-2.0469 3.1875-3.5156 4.3047-1.4688 1.1172-3.1562 1.9609-5.0625 2.5312-1.9062 0.57031-3.9141 0.89844-6.0156 0.98438v7.625h-4.5352v-7.6914c-3.0234-0.26172-6.0156-0.875-8.9727-1.8398-2.957-0.96484-5.6211-2.2344-7.9844-3.8125l4.7305-9.3984c0.17578 0.21875 0.64844 0.58203 1.4141 1.0859 0.76562 0.50391 1.7422 1.0312 2.9258 1.5781 1.1836 0.55078 2.5195 1.0742 4.0078 1.5781 1.4883 0.50391 3.0234 0.86719 4.6016 1.0859v-8.7422l-3.1562-0.92188c-2.1484-0.65625-4.0117-1.3672-5.5859-2.1367-1.5781-0.76562-2.8828-1.6523-3.9141-2.6602-1.0312-1.0078-1.7969-2.168-2.3008-3.4844-0.50391-1.3164-0.75391-2.8477-0.75391-4.6016 0-2.2773 0.39453-4.3047 1.1836-6.082 0.78906-1.7734 1.8516-3.2969 3.1875-4.5703 1.3359-1.2695 2.9141-2.2656 4.7305-2.9922 1.8203-0.72266 3.7812-1.1953 5.8828-1.4141v-6.6406h4.5352v6.6406c2.8477 0.26172 5.5195 0.89844 8.0195 1.9062 2.4961 1.0078 4.668 2.0352 6.5078 3.0898zm-18.207-0.59375c0 1.0938 0.38281 1.9609 1.1484 2.5977s1.918 1.1953 3.4531 1.6758v-8.0859c-3.0664 0.26562-4.6016 1.5352-4.6016 3.8125zm12.75 20.902c0-1.1406-0.46094-2.0273-1.3789-2.6602-0.92187-0.63281-2.1484-1.2148-3.6797-1.7422v7.8867c3.3711-0.13281 5.0586-1.293 5.0586-3.4844z"/>
  <path d="m243 413.77c-29.301 0-53.137-23.836-53.137-53.137s23.836-53.137 53.137-53.137c29.301 0 53.137 23.836 53.137 53.137s-23.836 53.137-53.137 53.137zm0-98.398c-24.957 0-45.266 20.305-45.266 45.266 0 24.957 20.305 45.266 45.266 45.266 24.957 0 45.266-20.305 45.266-45.266s-20.305-45.266-45.266-45.266z"/>
 </g>
</svg>