<?xml version="1.0" encoding="UTF-8"?>
<!-- The Best Svg Icon site in the world: iconSvg.co, Visit us! https://iconsvg.co -->
<svg fill="#000000" width="800px" height="800px" version="1.1" viewBox="144 144 512 512" xmlns="http://www.w3.org/2000/svg">
 <g>
  <path d="m267.42 373.48c28.129 0 55.105-11.172 75-31.062 19.891-19.895 31.062-46.871 31.062-75 0-28.133-11.172-55.109-31.062-75-19.895-19.891-46.871-31.066-75-31.066-28.133 0-55.109 11.176-75 31.066s-31.066 46.867-31.066 75c0 28.129 11.176 55.105 31.066 75 19.891 19.891 46.867 31.062 75 31.062zm0-185.61c21.098 0 41.332 8.3828 56.25 23.301s23.297 35.152 23.297 56.25c0 21.098-8.3789 41.332-23.297 56.25s-35.152 23.297-56.25 23.297c-21.098 0-41.332-8.3789-56.25-23.297s-23.301-35.152-23.301-56.25c0-21.098 8.3828-41.332 23.301-56.25s35.152-23.301 56.25-23.301z"/>
  <path d="m274.05 293.93h-33.145c-7.3242 0-13.258 5.9375-13.258 13.258 0 7.3242 5.9336 13.258 13.258 13.258h13.258c0 7.3242 5.9336 13.258 13.258 13.258 7.3203 0 13.258-5.9336 13.258-13.258 11.84-1.1836 22.152-8.5938 27.047-19.441 4.8945-10.848 3.6328-23.484-3.3164-33.148-6.9453-9.6602-18.52-14.883-30.359-13.699h-13.258c-3.6641 0-6.6289-2.9688-6.6289-6.6289 0-3.6641 2.9648-6.6289 6.6289-6.6289h33.145c7.3203 0 13.258-5.9375 13.258-13.258 0-7.3242-5.9375-13.262-13.258-13.262h-13.258c0-7.3203-5.9375-13.258-13.258-13.258-7.3242 0-13.258 5.9375-13.258 13.258-11.844 1.1875-22.152 8.5977-27.047 19.445-4.8984 10.848-3.6328 23.48 3.3125 33.145 6.9453 9.6641 18.52 14.887 30.363 13.703h13.258c3.6602 0 6.6289 2.9688 6.6289 6.6289 0 3.6602-2.9688 6.6289-6.6289 6.6289z"/>
  <path d="m625.39 612.13h-13.258v-371.23c0-3.5195-1.3984-6.8906-3.8828-9.375-2.4883-2.4883-5.8594-3.8828-9.375-3.8828h-66.293c-7.3203 0-13.258 5.9336-13.258 13.258v371.23h-13.258v-291.68c0-3.5156-1.3945-6.8867-3.8828-9.375-2.4844-2.4844-5.8594-3.8828-9.375-3.8828h-66.289c-7.3242 0-13.258 5.9375-13.258 13.258v291.68h-13.258v-212.13c0-3.5195-1.3984-6.8906-3.8828-9.375-2.4883-2.4883-5.8594-3.8828-9.375-3.8828h-66.293c-7.3203 0-13.258 5.9336-13.258 13.258v212.13h-13.258v-132.58c0-3.5156-1.3984-6.8867-3.8828-9.375-2.4883-2.4844-5.8594-3.8828-9.375-3.8828h-66.293c-7.3203 0-13.258 5.9375-13.258 13.258v132.58h-13.258c-7.3203 0-13.258 5.9375-13.258 13.258 0 7.3242 5.9375 13.258 13.258 13.258h437.52c7.3242 0 13.258-5.9336 13.258-13.258 0-7.3203-5.9336-13.258-13.258-13.258zm-39.773-357.97v26.516h-39.773v-26.516zm-106.07 79.551v26.516l-39.773-0.003906v-26.516zm-145.84 79.547h39.773v26.516h-39.773zm-66.289 79.547v26.516h-39.773v-26.516zm-39.773 119.32v-66.289h39.773v66.289zm106.07 0-0.003907-145.84h39.773v145.84zm106.07 0-0.003906-225.39h39.773v225.39zm106.07 0-0.003906-304.94h39.773v304.94z"/>
 </g>
</svg>