<?xml version="1.0" encoding="UTF-8"?>
<!-- The Best Svg Icon site in the world: iconSvg.co, Visit us! https://iconsvg.co -->
<svg fill="#000000" width="800px" height="800px" version="1.1" viewBox="144 144 512 512" xmlns="http://www.w3.org/2000/svg">
 <g>
  <path d="m525.95 274.05h15.746c2.0859 0 4.0898 0.82812 5.5664 2.3047 1.4766 1.4766 2.3047 3.4805 2.3047 5.5664 0 4.3477 3.5234 7.8711 7.8711 7.8711s7.875-3.5234 7.875-7.8711c0-6.2617-2.4883-12.27-6.918-16.699-4.4297-4.4297-10.438-6.918-16.699-6.918v-7.8711c0-4.3477-3.5234-7.8711-7.8711-7.8711-4.3477 0-7.875 3.5234-7.875 7.8711v7.8711c-8.4336 0-16.23 4.5039-20.449 11.809-4.2188 7.3086-4.2188 16.309 0 23.617 4.2188 7.3047 12.016 11.809 20.449 11.809h15.746c4.3477 0 7.8711 3.5234 7.8711 7.8711s-3.5234 7.8711-7.8711 7.8711h-15.746c-4.3477 0-7.8711-3.5234-7.8711-7.8711s-3.5234-7.8711-7.8711-7.8711c-4.3477 0-7.8711 3.5234-7.8711 7.8711 0 6.2617 2.4883 12.27 6.9141 16.699 4.4297 4.4297 10.438 6.918 16.699 6.918v7.8711c0 4.3477 3.5273 7.8711 7.875 7.8711 4.3477 0 7.8711-3.5234 7.8711-7.8711v-7.8711c8.4375 0 16.234-4.5039 20.453-11.809 4.2188-7.3086 4.2188-16.309 0-23.617-4.2188-7.3047-12.016-11.809-20.453-11.809h-15.746c-4.3477 0-7.8711-3.5234-7.8711-7.8711 0-4.3477 3.5234-7.8711 7.8711-7.8711z"/>
  <path d="m612.54 462.98v-251.91c8.4375 0 16.234-4.5 20.453-11.809 4.2188-7.3086 4.2188-16.309 0-23.617-4.2188-7.3047-12.016-11.809-20.453-11.809h-425.09c-8.4375 0-16.234 4.5039-20.453 11.809-4.2188 7.3086-4.2188 16.309 0 23.617 4.2188 7.3086 12.016 11.809 20.453 11.809v251.91c-8.4375 0-16.234 4.5-20.453 11.805-4.2188 7.3086-4.2188 16.312 0 23.617 4.2188 7.3086 12.016 11.809 20.453 11.809h197.12l-85.332 113.36c-2.6094 3.4805-1.9062 8.4141 1.5742 11.023 3.4766 2.6094 8.4102 1.9023 11.02-1.5742l27.238-36.211h122.02l27.078 36.211c1.5 1.9688 3.8242 3.1328 6.2969 3.1484 1.707 0.019532 3.3711-0.53516 4.7266-1.5742 3.4766-2.6094 4.1797-7.543 1.5742-11.023l-84.703-113.36h196.48c8.4375 0 16.234-4.5 20.453-11.809 4.2188-7.3047 4.2188-16.309 0-23.617-4.2188-7.3047-12.016-11.805-20.453-11.805zm-432.96-275.52c0-4.3477 3.5234-7.8711 7.8711-7.8711h425.09c4.3477 0 7.8711 3.5234 7.8711 7.8711s-3.5234 7.8711-7.8711 7.8711h-425.09c-4.3477 0-7.8711-3.5234-7.8711-7.8711zm417.22 23.617v251.91h-393.6v-251.91zm-147.45 369.98h-98.398l49.359-65.574zm163.19-86.594h-425.09c-4.3477 0-7.8711-3.5234-7.8711-7.8711s3.5234-7.8711 7.8711-7.8711h425.09c4.3477 0 7.8711 3.5234 7.8711 7.8711s-3.5234 7.8711-7.8711 7.8711z"/>
  <path d="m518.08 431.49h-283.39v-181.06c0-4.3477-3.5273-7.8711-7.875-7.8711s-7.8711 3.5234-7.8711 7.8711v188.93c0 2.0859 0.82812 4.0898 2.3047 5.5664 1.4766 1.4766 3.4805 2.3047 5.5664 2.3047h291.27c4.3477 0 7.8711-3.5234 7.8711-7.8711s-3.5234-7.8711-7.8711-7.8711z"/>
  <path d="m258.3 376.38c2.4805 0 4.8125-1.168 6.3008-3.1484l17.316-23.09 17.32 23.09c1.5586 2.1602 4.1289 3.3516 6.7852 3.1484 2.6406-0.16406 5.0234-1.6406 6.3438-3.9375l29.223-51.168h50.535c2.543 0 4.9258-1.2305 6.4023-3.2969l32.738-45.824 9.4453 14.168v0.003906c2.4141 3.6172 7.3047 4.5938 10.922 2.1797 3.6172-2.4141 4.5898-7.3008 2.1797-10.918l-15.742-23.617h-0.003906c-1.4297-2.1758-3.8438-3.5-6.4453-3.543h-0.13281c-2.543 0.003906-4.9258 1.2305-6.4023 3.2969l-37.012 51.809h-51.051c-2.8203-0.007812-5.4258 1.4961-6.8359 3.9336l-25.543 44.707-16.43-21.875c-1.5469-1.8828-3.8594-2.9766-6.2969-2.9766s-4.75 1.0938-6.2969 2.9766l-23.617 31.488c-1.7891 2.3828-2.0781 5.5742-0.74219 8.2422 1.332 2.668 4.0586 4.3516 7.0391 4.3516z"/>
  <path d="m258.3 415.74h62.977c2.3906 0 4.6562-1.0859 6.1484-2.9531l25.145-31.426 17.516 23.359c1.5547 2.1172 4.082 3.3047 6.707 3.1484 2.5977-0.15234 4.957-1.5781 6.2969-3.8125l21.363-35.547h34.906c2.0859 0 4.0898-0.83203 5.5664-2.3086l31.488-31.488c2.9805-3.0859 2.9375-7.9961-0.097656-11.035-3.0352-3.0352-7.9453-3.0781-11.035-0.09375l-29.18 29.18h-36.102c-2.7656 0-5.3242 1.4492-6.7461 3.8203l-17.605 29.32-16.586-22.117c-1.457-1.9492-3.7383-3.1133-6.1719-3.1523-2.4336-0.011719-4.75 1.0703-6.2969 2.9531l-29.094 36.41h-59.199c-4.3477 0-7.8711 3.5234-7.8711 7.8711s3.5234 7.8711 7.8711 7.8711z"/>
 </g>
</svg>