<?xml version="1.0" encoding="UTF-8"?>
<!-- The Best Svg Icon site in the world: iconSvg.co, Visit us! https://iconsvg.co -->
<svg fill="#000000" width="800px" height="800px" version="1.1" viewBox="144 144 512 512" xmlns="http://www.w3.org/2000/svg">
 <g>
  <path d="m633.21 608.61h-37.391v-313.67c0-3.2617-2.1914-6.1328-5.4531-6.1328h-37.73c-3.3281 0.097656-5.9844 2.8047-6.0195 6.1328v313.67h-18.695v-245.07c-0.125-3.3008-2.8555-5.8984-6.1562-5.8516h-37.73c-3.2617 0-6.2969 2.5898-6.2969 5.8516v245.07h-18.695v-176.47c-0.007812-1.5273-0.64062-2.9883-1.75-4.0391-1.1094-1.0508-2.5977-1.6055-4.125-1.5312h-37.73c-1.5-0.0625-2.957 0.5-4.0195 1.5586s-1.6328 2.5117-1.5742 4.0117v176.47h-19.68v-130.73c0.074219-1.5469-0.48047-3.0586-1.5312-4.1953-1.0508-1.1367-2.5156-1.8008-4.0664-1.8438h-37.73c-3.2773 0.066407-5.8984 2.7578-5.875 6.0391v130.73h-18.695v-85.004c0-3.2617-3.0352-5.5234-6.2969-5.5234h-37.73c-3.2617 0-6.1562 2.2617-6.1562 5.5234v85.004h-18.695v-62.137c-0.03125-1.5625-0.68359-3.0469-1.8125-4.1289-1.1289-1.0781-2.6406-1.6641-4.2031-1.6289h-37.73c-3.2617 0-5.4531 2.4961-5.4531 5.7578v62.137h-37.395c-3.2617 0-5.9023 2.6445-5.9023 5.9062s2.6406 5.9023 5.9023 5.9023h40.273c0.77344 0.51563 1.6523 0.85156 2.5742 0.98438h37.73c0.91797-0.13281 1.7969-0.46875 2.5742-0.98438h25.723-0.003906c0.77734 0.51563 1.6562 0.85156 2.5742 0.98438h37.73c0.92188-0.13281 1.8008-0.46875 2.5742-0.98438h25.719c0.77734 0.51563 1.6562 0.85156 2.5742 0.98438h37.73c0.92188-0.13281 1.8008-0.46875 2.5742-0.98438h25.723c0.77344 0.51563 1.6523 0.85156 2.5742 0.98438h37.73c0.91797-0.13281 1.7969-0.46875 2.5742-0.98438h25.719c0.77734 0.51563 1.6562 0.85156 2.5742 0.98438h37.73c0.92188-0.13281 1.8008-0.46875 2.5742-0.98438h25.723c0.77734 0.51563 1.6562 0.85156 2.5742 0.98438h37.73c0.91797-0.13281 1.8008-0.46875 2.5742-0.98438h40.27c3.2617 0 5.9023-2.6406 5.9023-5.9023s-2.6406-5.9062-5.9023-5.9062zm-49.199-307.99v148.59h-25.586v-148.59zm-25.586 160.39h25.586v147.6h-25.586zm-42.312-91.512v114.14h-26.566v-114.14zm-26.566 125.95h26.566v113.16h-26.566zm-42.312-57.07v79.703h-25.582v-79.703zm-25.586 91.512h25.586v78.719h-25.582zm-43.297-46.25v57.07l-25.582 0.003907v-57.07zm-25.586 68.879h25.586v56.09h-25.582zm-42.312-22.633v33.457l-26.562 0.003906v-33.457zm-26.566 45.266h26.566v33.457h-26.562zm-42.309-22.629v22.633h-25.586v-22.633zm-25.586 34.441h25.586v21.648l-25.586-0.003906z"/>
  <path d="m285.14 364.27c24.57 0 48.133-9.7617 65.508-27.137 17.371-17.371 27.133-40.938 27.133-65.508s-9.7617-48.133-27.133-65.508c-17.375-17.371-40.938-27.133-65.508-27.133s-48.137 9.7617-65.508 27.133c-17.375 17.375-27.137 40.938-27.137 65.508 0.03125 24.562 9.7969 48.109 27.168 65.48 17.367 17.367 40.914 27.137 65.477 27.164zm0-173.48c21.438 0 41.996 8.5156 57.156 23.676s23.676 35.719 23.676 57.156c0 21.441-8.5156 42-23.676 57.16s-35.719 23.676-57.156 23.676-42-8.5156-57.16-23.676c-15.156-15.16-23.676-35.719-23.676-57.16 0.027343-21.43 8.5508-41.973 23.703-57.129 15.156-15.152 35.703-23.676 57.133-23.699z"/>
  <path d="m285.14 313.52c-4.3906-0.003906-8.6016-1.75-11.703-4.8555-3.1055-3.1055-4.8516-7.3125-4.8555-11.703 0-3.2617-2.6445-5.9062-5.9062-5.9062-3.2578 0-5.9023 2.6445-5.9023 5.9062 0.007812 6.6211 2.3281 13.027 6.5625 18.121 4.2305 5.0898 10.105 8.543 16.613 9.7617v7.2578c0 3.2617 2.6445 5.9062 5.9062 5.9062 3.2578 0 5.9023-2.6445 5.9023-5.9062v-7.5625c9.0859-2.1797 16.512-8.6914 19.859-17.414 3.3516-8.7227 2.1875-18.531-3.1016-26.23-5.293-7.6992-14.035-12.301-23.375-12.301-5.6758 0-10.953-2.9023-13.988-7.6953-3.0352-4.793-3.4062-10.805-0.98047-15.934s7.3086-8.6562 12.941-9.3516c0.73828 0.10547 1.4922 0.0625 2.2109-0.12891 4.3594 0.054687 8.5195 1.8203 11.582 4.918s4.7852 7.2773 4.7891 11.633c0 3.2617 2.6445 5.9023 5.9062 5.9023 3.2617 0 5.9023-2.6406 5.9023-5.9023-0.007812-6.7148-2.3945-13.207-6.7383-18.328-4.3398-5.1211-10.355-8.5391-16.977-9.6484v-7.0859c0-3.2578-2.6406-5.9023-5.9023-5.9023s-5.9062 2.6445-5.9062 5.9023v7.6133c-8.9766 2.3398-16.242 8.9219-19.457 17.625-3.2109 8.707-1.9648 18.43 3.3398 26.043 5.3047 7.6133 14 12.148 23.277 12.148 5.9141 0 11.383 3.1562 14.34 8.2773 2.957 5.125 2.957 11.438 0 16.559-2.957 5.125-8.4258 8.2812-14.34 8.2812z"/>
  <path d="m429.06 288.8h28.969l-185.33 185.48c-2.3047 2.3359-2.3047 6.0898 0 8.4258 1.1016 1.1211 2.6055 1.7578 4.1758 1.7734 1.5977 0.007813 3.1406-0.60547 4.293-1.7109l185.74-185.61v29.559c0 3.2617 2.6445 5.9023 5.9062 5.9023 3.2578 0 5.9023-2.6406 5.9023-5.9023v-43.516c-0.042969-0.6875-0.19922-1.3633-0.46875-1.9922-0.29688-0.96484-0.80859-1.8438-1.5-2.5742-1.5547-1.5547-3.8164-1.6406-5.7969-1.6406h-41.891c-3.2617 0-5.9062 2.6406-5.9062 5.9023 0 3.2617 2.6445 5.9023 5.9062 5.9023z"/>
 </g>
</svg>