<?xml version="1.0" encoding="UTF-8"?>
<!-- The Best Svg Icon site in the world: iconSvg.co, Visit us! https://iconsvg.co -->
<svg width="800px" height="800px" version="1.1" viewBox="144 144 512 512" xmlns="http://www.w3.org/2000/svg">
 <defs>
  <clipPath id="b">
   <path d="m415 415h236.9v236.9h-236.9z"/>
  </clipPath>
  <clipPath id="a">
   <path d="m148.09 148.09h456.91v456.91h-456.91z"/>
  </clipPath>
 </defs>
 <g clip-path="url(#b)">
  <path d="m533.82 415.74c-31.316 0-61.352 12.441-83.496 34.586s-34.586 52.18-34.586 83.496c0 31.316 12.441 61.352 34.586 83.492 22.145 22.145 52.18 34.586 83.496 34.586 31.316 0 61.352-12.441 83.492-34.586 22.145-22.141 34.586-52.176 34.586-83.492-0.035156-31.309-12.488-61.32-34.625-83.457-22.137-22.137-52.148-34.59-83.453-34.625zm0 220.42c-27.145 0-53.172-10.781-72.363-29.973-19.191-19.195-29.973-45.223-29.973-72.363 0-27.145 10.781-53.172 29.973-72.363 19.191-19.191 45.219-29.973 72.363-29.973 27.141 0 53.168 10.781 72.363 29.973 19.191 19.191 29.973 45.219 29.973 72.363-0.03125 27.129-10.824 53.141-30.008 72.328-19.188 19.184-45.199 29.977-72.328 30.008z"/>
 </g>
 <path d="m533.82 447.23c-20.359 0-40.066 7.1719-55.664 20.258-15.598 13.086-26.082 31.246-29.621 51.297-3.5352 20.047 0.10938 40.703 10.285 58.332 0.99609 1.9023 2.7227 3.3164 4.7852 3.9141 2.0586 0.59766 4.2734 0.32812 6.1328-0.74609 1.8555-1.0742 3.1953-2.8594 3.707-4.9414 0.50781-2.0859 0.14453-4.2852-1.0039-6.0977-11.84-20.449-12.707-45.457-2.3203-66.684 10.391-21.223 30.672-35.879 54.086-39.074 23.41-3.1992 46.879 5.4805 62.578 23.141 15.699 17.664 21.566 41.988 15.648 64.863-5.9219 22.879-22.852 41.301-45.148 49.129-22.297 7.832-47.027 4.0352-65.953-10.121-3.4766-2.6055-8.4102-1.9023-11.02 1.5742-2.6094 3.4805-1.9023 8.4141 1.5742 11.023 22.27 16.699 51.211 21.68 77.781 13.379 26.57-8.3047 47.527-28.871 56.328-55.281 8.7969-26.41 4.3633-55.438-11.918-78.02-16.281-22.578-42.422-35.953-70.258-35.945z"/>
 <path d="m534.29 557.44h-16.211c-4.3477 0-7.8711 3.5273-7.8711 7.875s3.5234 7.8711 7.8711 7.8711h16.211c8.4336-0.082032 16.188-4.6602 20.336-12.008 4.1445-7.3516 4.0547-16.352-0.23438-23.617s-12.129-11.691-20.566-11.609c-4.3477 0-7.875-3.5234-7.875-7.8711s3.5273-7.8711 7.875-7.8711h16.207c4.3477 0 7.8711-3.5234 7.8711-7.8711 0-4.3477-3.5234-7.875-7.8711-7.875h-16.207c-8.4375 0.085937-16.191 4.6641-20.336 12.012-4.1484 7.3477-4.0586 16.352 0.23047 23.617 4.2891 7.2617 12.133 11.688 20.57 11.605 4.3477 0 7.8711 3.5234 7.8711 7.8711s-3.5234 7.8711-7.8711 7.8711z"/>
 <g clip-path="url(#a)">
  <path d="m405.04 586.94c-7.0391 0.94531-13.957 1.4414-20.781 1.707v-47.355c2.9062-0.13281 5.7695-0.14062 8.6602-0.43359 4.3281-0.43359 7.4844-4.293 7.0508-8.6211-0.4375-4.3281-4.2969-7.4844-8.625-7.0508-2.3633 0.24219-4.7227 0.23438-7.125 0.36328v-47.234c9.9453-0.77734 19.723-3.0039 29.023-6.6133 2.0117-0.70312 3.6523-2.1953 4.5469-4.1289 0.89062-1.9375 0.96094-4.1523 0.19141-6.1406-0.76953-1.9883-2.3125-3.582-4.2773-4.4102-1.9648-0.82813-4.1797-0.82813-6.1445 0.007812-19.062 7.3984-40.133 7.8086-59.469 1.1641-19.34-6.6484-35.703-19.926-46.191-37.48-10.488-17.555-14.426-38.254-11.113-58.434s13.656-38.535 29.207-51.82c15.551-13.281 35.297-20.629 55.746-20.746 20.449-0.11719 40.281 7.0078 55.98 20.109l-33.699 33.699c-10.98-7.2656-24.855-8.582-37.004-3.5078-12.148 5.0742-20.969 15.867-23.516 28.785-2.5508 12.914 1.5039 26.25 10.812 35.559s22.648 13.367 35.562 10.816c12.914-2.5508 23.711-11.371 28.785-23.516 5.0703-12.148 3.7539-26.027-3.5117-37.004l33.699-33.699h0.003906c9.918 11.828 16.469 26.113 18.965 41.352 2.4922 15.234 0.83594 30.863-4.7969 45.238-1.5742 4.0547 0.4375 8.6172 4.4922 10.191 4.0547 1.5742 8.6172-0.4375 10.188-4.4922 3.6172-9.2891 5.8594-19.055 6.6523-28.992h47.23c-0.125 2.3633-0.11719 4.7227-0.36328 7.125h0.003906c-0.20703 2.0781 0.41797 4.1562 1.7383 5.7734 1.3242 1.6172 3.2344 2.6406 5.3125 2.8516 4.3281 0.43359 8.1875-2.7227 8.6211-7.0508 0.28516-2.9062 0.30078-5.793 0.43359-8.6992h47.359c-0.26953 6.8398-0.78906 13.762-1.7148 20.773-0.58594 4.3086 2.4336 8.2773 6.7422 8.8633 4.3086 0.58203 8.2734-2.4375 8.8594-6.7461 4.625-33.535 1.6914-67.68-8.5859-99.938-10.277-32.254-27.641-61.801-50.816-86.477l25.402-25.406h28.23c4.3477 0 7.8711-3.5234 7.8711-7.8711s-3.5234-7.8711-7.8711-7.8711h-12.488l18.051-18.051c2.9844-3.0898 2.9414-8-0.09375-11.035-3.0391-3.0352-7.9453-3.0781-11.035-0.097656l-18.051 18.051v-12.484c0-4.3477-3.5234-7.8711-7.8711-7.8711s-7.875 3.5234-7.875 7.8711v28.23l-25.402 25.402c-36.402-33.977-82.918-55.113-132.45-60.188-49.539-5.0781-99.375 6.1875-141.91 32.074-42.539 25.887-75.441 64.973-93.695 111.3-18.254 46.332-20.855 97.359-7.4062 145.3 13.449 47.945 42.211 90.176 81.898 120.25 39.684 30.074 88.117 46.348 137.91 46.332 10.289-0.023437 20.562-0.73438 30.754-2.125 2.0859-0.26172 3.9805-1.3438 5.2617-3.0078 1.2852-1.6641 1.8477-3.7734 1.5664-5.8555-0.28125-2.082-1.3828-3.9648-3.0586-5.2344-1.6758-1.2656-3.7891-1.8086-5.8711-1.5078zm-36.523-108.62v47.234c-36.836-1.9766-71.637-17.496-97.719-43.578-26.082-26.082-41.602-60.887-43.578-97.719h47.234c1.8945 24.316 12.414 47.152 29.66 64.398s40.086 27.766 64.402 29.664zm-94.062-109.8h-47.234c1.9766-36.836 17.496-71.637 43.578-97.719s60.883-41.602 97.719-43.578v47.234c-24.316 1.8945-47.156 12.414-64.402 29.66s-27.766 40.086-29.66 64.402zm109.8-94.062v-47.234c34.145 1.7695 66.641 15.25 92.008 38.172l-33.387 33.387h0.003906c-16.449-14.152-36.988-22.676-58.625-24.324zm15.746 101.93c0 6.2617-2.4883 12.27-6.918 16.699-4.4297 4.4297-10.438 6.918-16.699 6.918-6.2656 0-12.27-2.4883-16.699-6.918-4.4297-4.4297-6.918-10.438-6.918-16.699 0-6.2656 2.4883-12.27 6.918-16.699 4.4297-4.4297 10.434-6.918 16.699-6.918 3.5078 0.015625 6.9648 0.82031 10.113 2.3633l-15.68 15.68c-1.5195 1.4688-2.3828 3.4844-2.4023 5.5938-0.019531 2.1133 0.8125 4.1406 2.3047 5.6367 1.4922 1.4922 3.5234 2.3242 5.6367 2.3047 2.1094-0.019531 4.125-0.88672 5.5938-2.4023l15.688-15.676c1.5391 3.1523 2.3477 6.6094 2.3633 10.117zm54.012-66.496 33.367-33.383c22.922 25.367 36.402 57.859 38.172 92.008h-47.234c-1.6406-21.637-10.16-42.176-24.309-58.625zm134.72 58.625h-47.438c-1.793-38.312-16.922-74.789-42.77-103.12l33.512-33.512c34.711 37.25 54.836 85.758 56.695 136.64zm-101.35-114.27c-28.332-25.848-64.812-40.98-103.12-42.766v-47.438c50.883 1.8477 99.395 21.973 136.65 56.68zm-118.87-90.203v47.438c-41.008 1.9922-79.805 19.176-108.84 48.203-29.027 29.031-46.211 67.828-48.203 108.84h-47.438c2.0508-53.578 24.25-104.4 62.16-142.32 37.914-37.91 88.738-60.109 142.32-62.16zm-204.48 220.22h47.438c1.9922 41.008 19.176 79.805 48.203 108.83 29.031 29.031 67.828 46.215 108.84 48.207v47.438c-53.578-2.0508-104.4-24.25-142.32-62.16-37.91-37.914-60.109-88.738-62.16-142.32z"/>
 </g>
</svg>