<?xml version="1.0" encoding="UTF-8"?>
<!-- The Best Svg Icon site in the world: iconSvg.co, Visit us! https://iconsvg.co -->
<svg width="800px" height="800px" version="1.1" viewBox="144 144 512 512" xmlns="http://www.w3.org/2000/svg">
 <defs>
  <clipPath id="b">
   <path d="m215 461h173v190.9h-173z"/>
  </clipPath>
  <clipPath id="a">
   <path d="m412 461h173v190.9h-173z"/>
  </clipPath>
 </defs>
 <path d="m400 478.72c-33.406 0-65.441-13.27-89.062-36.891s-36.891-55.656-36.891-89.062c0-33.402 13.27-65.441 36.891-89.062s55.656-36.891 89.062-36.891c33.402 0 65.441 13.27 89.059 36.891 23.621 23.621 36.891 55.66 36.891 89.062-0.035157 33.395-13.32 65.406-36.93 89.02-23.613 23.613-55.629 36.895-89.02 36.934zm0-220.42c-25.055 0-49.082 9.9531-66.797 27.668s-27.668 41.742-27.668 66.797 9.9531 49.082 27.668 66.797 41.742 27.668 66.797 27.668c25.051 0 49.078-9.9531 66.793-27.668 17.719-17.715 27.668-41.742 27.668-66.797-0.027344-25.043-9.9883-49.055-27.695-66.766-17.711-17.711-41.723-27.672-66.766-27.699z"/>
 <path d="m407.87 415.74h-39.359c-5.625 0-10.824-3-13.637-7.8711s-2.8125-10.875 0-15.746 8.0117-7.8711 13.637-7.8711h39.359c4.3477 0 7.8711-3.5234 7.8711-7.8711 0-4.3477-3.5234-7.8711-7.8711-7.8711h-15.746c-14.059 0-27.055-7.5039-34.086-19.68-7.0312-12.18-7.0312-27.184 0-39.363 7.0312-12.176 20.027-19.68 34.086-19.68h39.363c5.625 0 10.82 3 13.633 7.875 2.8125 4.8711 2.8125 10.871 0 15.742s-8.0078 7.8711-13.633 7.8711h-39.363c-4.3477 0-7.8711 3.5234-7.8711 7.8711 0 4.3477 3.5234 7.875 7.8711 7.875h15.746c14.062 0 27.055 7.5 34.086 19.68 7.0312 12.176 7.0312 27.18 0 39.359s-20.023 19.68-34.086 19.68z"/>
 <path d="m400 321.28c-4.1758 0-8.1797-1.6562-11.133-4.6094-2.9531-2.9531-4.6133-6.957-4.6133-11.133v-15.746c0-5.625 3-10.82 7.8711-13.633s10.875-2.8125 15.746 0 7.8711 8.0078 7.8711 13.633v15.746c0 4.1758-1.6602 8.1797-4.6094 11.133-2.9531 2.9531-6.957 4.6094-11.133 4.6094z"/>
 <path d="m400 431.49c-4.1758 0-8.1797-1.6602-11.133-4.6133-2.9531-2.9531-4.6133-6.957-4.6133-11.133v-15.742c0-5.625 3-10.824 7.8711-13.637s10.875-2.8125 15.746 0 7.8711 8.0117 7.8711 13.637v15.742c0 4.1758-1.6602 8.1797-4.6094 11.133-2.9531 2.9531-6.957 4.6133-11.133 4.6133z"/>
 <path d="m350.37 544.23c-4.0625 0.019531-8.1055-0.60547-11.977-1.8516-13.656-5.9375-24.781-16.508-31.41-29.844-3.1719-5.6914-7.2031-10.859-11.949-15.32-5.7852-3.1992-12.027-5.4883-18.512-6.7891-14.602-2.1914-27.969-9.4375-37.773-20.477-7.4336-12.656-10.195-27.516-7.8125-42 0.76953-6.668 0.50391-13.414-0.78516-20-2.7383-5.7461-6.332-11.039-10.656-15.707-10.672-10.57-17.328-24.527-18.812-39.477 1.4883-14.945 8.1445-28.906 18.82-39.473 4.3242-4.668 7.9141-9.9648 10.652-15.707 1.2891-6.5898 1.5547-13.336 0.78906-20.004-2.3867-14.48 0.37891-29.34 7.8086-41.996 9.8086-11.047 23.18-18.297 37.785-20.488 6.4883-1.3008 12.738-3.5898 18.527-6.7891 4.7266-4.4648 8.7422-9.625 11.918-15.297 6.625-13.344 17.746-23.918 31.41-29.859 14.191-3.0938 29.02-1.125 41.91 5.5664 6.2422 2.8516 12.887 4.707 19.699 5.5117 6.8086-0.80469 13.457-2.6602 19.695-5.5117 12.898-6.6758 27.719-8.6445 41.91-5.5664 13.66 5.9414 24.781 16.508 31.41 29.844 3.1719 5.6914 7.2031 10.859 11.949 15.32 5.7852 3.1992 12.027 5.4883 18.512 6.7891 14.602 2.1914 27.969 9.4414 37.777 20.48 7.4297 12.656 10.191 27.516 7.8086 41.996-0.76953 6.668-0.50391 13.414 0.78906 20.004 2.7383 5.7422 6.3281 11.039 10.652 15.707 10.676 10.566 17.328 24.527 18.812 39.473-1.4883 14.949-8.1406 28.91-18.82 39.477-4.3203 4.668-7.9141 9.9609-10.652 15.707-1.2891 6.5859-1.5547 13.332-0.78906 20 2.3867 14.484-0.37891 29.344-7.8086 42-9.8086 11.043-23.18 18.293-37.785 20.484-6.4883 1.3008-12.738 3.5898-18.527 6.7891-4.7266 4.4648-8.7422 9.625-11.918 15.297-6.6211 13.344-17.746 23.922-31.41 29.859-14.191 3.082-29.016 1.1133-41.91-5.5664-6.2383-2.8477-12.887-4.707-19.695-5.5078-6.8125 0.80469-13.461 2.6641-19.699 5.5195-9.4453 4.2617-19.586 6.7734-29.934 7.4062zm0.0625-351.44c-0.78516-0.015624-1.5703 0.089844-2.3203 0.31641-4.6758 1.5234-9.9961 9.7461-14.684 17.004-5.0898 9.0469-11.816 17.07-19.84 23.66-8.8359 5.6406-18.633 9.6211-28.902 11.738-7.4414 1.1094-14.48 4.0664-20.48 8.6016-2.4023 7.0352-3.0234 14.555-1.8086 21.891 1.1367 10.484 0.36328 21.094-2.2891 31.301-3.7422 9.5586-9.2344 18.328-16.191 25.871-5.7656 7.0938-11.746 14.438-11.746 19.594s5.9844 12.5 11.746 19.594v0.003906c6.957 7.5391 12.449 16.312 16.191 25.867 2.6523 10.211 3.4258 20.816 2.2891 31.305-1.2148 7.332-0.58984 14.852 1.8164 21.883 5.9961 4.5273 13.031 7.4805 20.465 8.5859 10.27 2.125 20.066 6.1055 28.906 11.75 8.0234 6.5977 14.754 14.625 19.848 23.676 4.6875 7.2578 10.008 15.484 14.684 17.004 7.2891 0.042968 14.48-1.6797 20.957-5.0195 9.7617-4.3906 20.242-6.9648 30.93-7.5977 10.688 0.62891 21.168 3.2031 30.934 7.5977 6.4805 3.3281 13.668 5.0508 20.957 5.0156 4.6758-1.5234 9.9961-9.7461 14.684-17.004l-0.003907 0.003907c5.0938-9.0508 11.82-17.074 19.84-23.664 8.8398-5.6406 18.633-9.6172 28.902-11.738 7.4414-1.1094 14.484-4.0664 20.48-8.6016 2.4062-7.0352 3.0273-14.551 1.8164-21.887-1.1367-10.484-0.36328-21.094 2.2891-31.301 3.7422-9.5586 9.2305-18.328 16.191-25.871 5.7656-7.0977 11.746-14.438 11.746-19.594s-5.9844-12.5-11.746-19.594v-0.003907c-6.9609-7.5391-12.449-16.312-16.191-25.867-2.6523-10.211-3.4336-20.82-2.2969-31.309 1.2148-7.3359 0.58984-14.852-1.8125-21.887-6-4.5273-13.035-7.4805-20.469-8.5859-10.27-2.1211-20.066-6.1016-28.906-11.746-8.0195-6.5977-14.75-14.625-19.848-23.68-4.6875-7.2578-10.008-15.484-14.684-17.004v0.003906c-7.2891-0.039062-14.477 1.6836-20.957 5.0156-9.7617 4.3945-20.242 6.9688-30.926 7.6016-10.688-0.63281-21.172-3.207-30.934-7.5977-5.918-2.6836-12.195-4.4805-18.637-5.332z"/>
 <g clip-path="url(#b)">
  <path d="m316.71 656.31c-5.1445-0.003906-9.9648-2.5195-12.91-6.7422l-26.004-37.289-45.297 3.6758h0.003906c-2.7578 0.26172-5.5312-0.22656-8.0352-1.4062-2.5039-1.1836-4.6406-3.0195-6.1875-5.3125-3.1992-4.6211-3.6875-10.598-1.293-15.676l57.781-122.64v-0.003907c1.7188-3.875 4.9258-6.8945 8.8984-8.375 3.9727-1.4805 8.375-1.2969 12.211 0.51172 3.8359 1.8047 6.7773 5.0859 8.1641 9.0898 1.3867 4.0078 1.0977 8.4023-0.79688 12.195l-46.188 98.035 27.215-2.2031-0.003907-0.003907c2.7461-0.25 5.5117 0.23828 8.0078 1.4141 2.4922 1.1758 4.6289 2.9961 6.1836 5.2773l15.586 22.371 43.668-92.812v-0.003906c1.7773-3.7773 4.9844-6.6953 8.9141-8.1094 3.9297-1.4141 8.2578-1.2109 12.039 0.56641 3.7773 1.7773 6.6953 4.9844 8.1094 8.9141 1.418 3.9297 1.2109 8.2578-0.56641 12.039l-55.262 117.45c-2.3945 5.0898-7.3242 8.5156-12.93 8.9883-0.43359 0.035157-0.86328 0.054688-1.3086 0.054688z"/>
 </g>
 <g clip-path="url(#a)">
  <path d="m483.29 656.31c-0.44531 0-0.875-0.015625-1.3203-0.054688-5.6055-0.47266-10.535-3.8984-12.934-8.9883l-55.262-117.45c-2.3945-5.0898-1.8906-11.074 1.3242-15.695 3.2109-4.6172 8.6445-7.1758 14.25-6.7031 5.6094 0.47266 10.539 3.8984 12.934 8.9922l43.668 92.812 15.586-22.371h-0.003906c1.5469-2.2852 3.6836-4.1133 6.1797-5.293 2.4961-1.1758 5.2656-1.6562 8.0117-1.3945l27.215 2.2031-46.188-98.039c-1.8945-3.793-2.1836-8.1875-0.79688-12.195 1.3867-4.0078 4.3281-7.2852 8.1641-9.0938 3.8359-1.8047 8.2383-1.9922 12.211-0.51172 3.9727 1.4805 7.1797 4.5039 8.8984 8.3789l57.781 122.64c2.3984 5.082 1.9062 11.059-1.293 15.676-1.5508 2.293-3.6875 4.1289-6.1875 5.3125-2.5039 1.1836-5.2773 1.6719-8.0352 1.4141l-45.297-3.6758-25.996 37.285c-2.9414 4.2227-7.7617 6.7422-12.91 6.7461z"/>
 </g>
</svg>