<?xml version="1.0" encoding="UTF-8"?>
<!-- The Best Svg Icon site in the world: iconSvg.co, Visit us! https://iconsvg.co -->
<svg fill="#000000" width="800px" height="800px" version="1.1" viewBox="144 144 512 512" xmlns="http://www.w3.org/2000/svg">
 <g>
  <path d="m612.54 163.84h-425.09c-6.2617 0-12.27 2.4883-16.699 6.918-4.4297 4.4297-6.918 10.438-6.918 16.699v291.27c0 6.2617 2.4883 12.27 6.918 16.699 4.4297 4.4297 10.438 6.918 16.699 6.918h146.78l-26.645 86.59h-41.414c-8.4375 0-16.234 4.5039-20.453 11.809-4.2188 7.3086-4.2188 16.309 0 23.617 4.2188 7.3047 12.016 11.809 20.453 11.809h267.65c8.4375 0 16.23-4.5039 20.449-11.809 4.2188-7.3086 4.2188-16.309 0-23.617-4.2188-7.3047-12.012-11.809-20.449-11.809h-41.418l-26.645-86.59h146.78c6.2617 0 12.27-2.4883 16.699-6.918 4.4297-4.4297 6.918-10.438 6.918-16.699v-291.27c0-6.2617-2.4883-12.27-6.918-16.699-4.4297-4.4297-10.438-6.918-16.699-6.918zm-23.617 267.65h-377.86v-220.42h377.86z"/>
  <path d="m384.25 360.64h7.8711v7.875c0 4.3477 3.5273 7.8711 7.875 7.8711s7.8711-3.5234 7.8711-7.8711v-7.875h7.8711c2.0898 0 4.0898-0.82812 5.5664-2.3047 1.4766-1.4766 2.3047-3.4766 2.3047-5.5664v-47.23c0-2.0898-0.82812-4.0898-2.3047-5.5664-1.4766-1.4766-3.4766-2.3047-5.5664-2.3047h-7.8711v-7.875c0-4.3477-3.5234-7.8711-7.8711-7.8711s-7.875 3.5234-7.875 7.8711v7.8711l-7.8711 0.003906c-4.3477 0-7.8711 3.5234-7.8711 7.8711v47.23c0 2.0898 0.82813 4.0898 2.3047 5.5664 1.4766 1.4766 3.4805 2.3047 5.5664 2.3047z"/>
  <path d="m234.69 266.18h31.488c4.3477 0 7.8711-3.5273 7.8711-7.875 0-4.3477-3.5234-7.8711-7.8711-7.8711h-31.488c-4.3477 0-7.875 3.5234-7.875 7.8711 0 4.3477 3.5273 7.875 7.875 7.875z"/>
  <path d="m279.43 289.39c4.125 1.3672 8.5781-0.86328 9.9492-4.9844l15.742-47.23 0.003906-0.003906c1.375-4.1289-0.85938-8.5898-4.9922-9.9648-4.1289-1.375-8.5898 0.85938-9.9648 4.9922l-15.742 47.23c-0.66016 1.9844-0.50391 4.1523 0.4375 6.0195 0.9375 1.8672 2.582 3.2852 4.5664 3.9414z"/>
  <path d="m313.41 266.18h31.488c4.3477 0 7.8711-3.5273 7.8711-7.875 0-4.3477-3.5234-7.8711-7.8711-7.8711h-31.488c-4.3477 0-7.8711 3.5234-7.8711 7.8711 0 4.3477 3.5234 7.875 7.8711 7.875z"/>
  <path d="m234.69 407.87h157.44c21.613 0.003906 43.016-4.2539 62.977-12.531v4.6602c0 4.3477 3.5273 7.8711 7.875 7.8711 4.3477 0 7.8711-3.5234 7.8711-7.8711v-12.109c26.176-14.191 48.035-35.184 63.273-60.762 15.242-25.578 23.297-54.797 23.316-84.57 0-4.3477-3.5234-7.8711-7.8711-7.8711s-7.8711 3.5234-7.8711 7.8711c-0.0625 51.719-26.859 99.734-70.848 126.94v-24.602h7.8711c2.0859 0 4.0898-0.82812 5.5664-2.3047 1.4766-1.4766 2.3047-3.4805 2.3047-5.5664v-102.34c0-2.0898-0.82812-4.0898-2.3047-5.5664-1.4766-1.4766-3.4805-2.3086-5.5664-2.3086h-31.488c-4.3477 0-7.8711 3.5273-7.8711 7.875v102.34c0 2.0859 0.82812 4.0898 2.3047 5.5664 1.4766 1.4766 3.4805 2.3047 5.5664 2.3047h7.8711v33.141c-19.703 9.2578-41.203 14.066-62.977 14.09h-31.488v-23.613c0-2.0898-0.82812-4.0898-2.3047-5.5664-1.4766-1.4766-3.4766-2.3086-5.5664-2.3086h-7.8711v-23.613c0-4.3477-3.5234-7.875-7.8711-7.875-4.3477 0-7.875 3.5273-7.875 7.875v23.617l-7.8711-0.003906c-4.3477 0-7.8711 3.5273-7.8711 7.875v23.617l-78.719-0.003906c-4.3477 0-7.875 3.5273-7.875 7.875s3.5273 7.8711 7.875 7.8711z"/>
 </g>
</svg>