<?xml version="1.0" encoding="UTF-8"?>
<!-- The Best Svg Icon site in the world: iconSvg.co, Visit us! https://iconsvg.co -->
<svg fill="#000000" width="800px" height="800px" version="1.1" viewBox="144 144 512 512" xmlns="http://www.w3.org/2000/svg">
 <g>
  <path d="m424.12 347.06c-5.4844 8.8477-9.5508 18.496-12.047 28.602 2.5039-10.098 6.5742-19.746 12.059-28.59 0.03125-0.070313 0.082031-0.14062 0.125-0.21484-0.042969 0.070313-0.09375 0.13281-0.13672 0.20312z"/>
  <path d="m330.18 404.28v9.3555c5.1445-0.64844 5.7656-3.207 5.7656-5.1328 0.027344-1.043-0.54687-2.0039-1.4727-2.4805-1.3555-0.75-2.7969-1.3359-4.293-1.7422z"/>
  <path d="m409.2 463.66c3.5938 5.7266 7.6875 11.121 12.23 16.125h-223.74c-4.6523-0.011718-9.1133-1.8633-12.402-5.1562-3.2891-3.293-5.1367-7.7578-5.1367-12.41v-124.49c0.007812-4.6445 1.8594-9.0938 5.1484-12.375 3.2891-3.2812 7.7461-5.1211 12.391-5.1211h223.74c-4.4258 4.8594-8.4141 10.102-11.91 15.664-0.41406 0.64062-0.77734 1.1914-1.0977 1.7422-0.27344 0.45703-0.59375 0.91797-0.87109 1.418h-181.42c-2.5273 0-4.5781 2.0508-4.5781 4.582-0.011719 4.7773-1.918 9.3555-5.3008 12.73-3.3828 3.375-7.9648 5.2695-12.746 5.2695-2.5273 0-4.5781 2.0508-4.5781 4.5781v67.559c0 1.2148 0.48047 2.3789 1.3398 3.2383 0.85937 0.85938 2.0234 1.3398 3.2383 1.3398 4.7812 0 9.3633 1.8945 12.746 5.2695 3.3828 3.375 5.2891 7.9531 5.3008 12.73 0 1.2148 0.48047 2.3789 1.3398 3.2383 0.85937 0.85938 2.0234 1.3438 3.2383 1.3438h181.42c0.50391 0.91406 1.1016 1.7852 1.6484 2.7227z"/>
  <path d="m321.22 394.23c1.1836 0.78125 2.4844 1.3672 3.8555 1.7422v-9.5508c-1.3398 0.24219-2.6016 0.78906-3.6914 1.6016-1.0352 0.77344-1.625 2-1.5859 3.293-0.0625 1.1523 0.47656 2.2539 1.4219 2.9141z"/>
  <path d="m327.63 364.85c-9.3164 0.003907-18.25 3.7109-24.836 10.301s-10.285 15.527-10.285 24.848c0.003906 9.3164 3.707 18.25 10.297 24.84 6.5898 6.5859 15.523 10.289 24.844 10.289 9.3164 0 18.254-3.7031 24.844-10.289 6.5898-6.5898 10.293-15.523 10.293-24.84-0.007812-9.3203-3.7148-18.258-10.305-24.848-6.5938-6.5898-15.531-10.297-24.852-10.301zm13.281 49.648c-1.1836 1.7383-2.8203 3.125-4.7305 4.0078-1.8945 0.89453-3.9375 1.4414-6.0273 1.6172v2.9727c0.015625 0.67188-0.24609 1.3242-0.72266 1.8047-0.49609 0.48047-1.1641 0.74609-1.8555 0.73047-0.66406 0.019532-1.3125-0.23047-1.7969-0.6875-0.49219-0.48047-0.76172-1.1445-0.74219-1.832v-2.9727c-3.5508-0.29688-7.0352-1.1562-10.32-2.5391-0.60156-0.25-1.1133-0.67187-1.4727-1.2109-0.88672-1.2383-0.77734-2.9336 0.26172-4.0469 0.95313-0.98438 2.4258-1.2578 3.6641-0.67578 2.4922 1.1094 5.1562 1.7891 7.875 2.0117v-10.727c-1.9258-0.51172-3.8047-1.168-5.6289-1.9648-1.7578-0.78516-3.3047-1.9766-4.5117-3.4727-1.2852-1.6641-1.9453-3.7266-1.875-5.8242-0.011719-1.9766 0.50781-3.9219 1.5-5.6289 1.0742-1.7891 2.6016-3.2656 4.4336-4.2695 1.8789-1.0352 3.9453-1.6875 6.082-1.918v-2.9414c-0.023437-1.043 0.59766-1.9961 1.5586-2.3984 0.96094-0.40234 2.0742-0.17969 2.8047 0.56641 0.48828 0.48438 0.75781 1.1445 0.75 1.832v2.8477c3.0039 0.15234 5.9648 0.75391 8.7852 1.793 1.3047 0.41016 2.1641 1.6445 2.1016 3.0078 0 0.78906-0.28516 1.5547-0.80469 2.1523-0.5625 0.66797-1.3945 1.043-2.2656 1.0273-0.41797-0.019531-0.82422-0.11328-1.207-0.28125-2.1328-0.73828-4.3555-1.1875-6.6094-1.3359v11.129c2.0039 0.47656 3.9727 1.1016 5.8828 1.8672 1.8086 0.75391 3.4023 1.9492 4.6328 3.4727 1.3477 1.7852 2.0273 3.9805 1.9297 6.2109 0.023437 2.0156-0.55859 3.9922-1.668 5.6758z"/>
  <path d="m402.61 348.24h-172.3c-0.96484 5.5391-3.6172 10.645-7.5938 14.621-3.9766 3.9727-9.0781 6.625-14.617 7.5938v59.129c5.5391 0.96094 10.648 3.6094 14.625 7.5859s6.6289 9.0859 7.5859 14.629h172.3c-15.879-32.695-15.879-70.863 0-103.56zm-74.977 96.023c-11.746-0.011719-23.004-4.6914-31.301-13.004s-12.953-19.578-12.941-31.324c0.007813-11.746 4.6836-23.004 12.996-31.305 8.3086-8.2969 19.578-12.953 31.324-12.945 11.742 0.007812 23.004 4.6797 31.305 12.988 8.3008 8.3125 12.957 19.578 12.953 31.324-0.015625 11.746-4.6914 23.008-13.008 31.309-8.3125 8.3008-19.582 12.961-31.328 12.957z"/>
  <path d="m585.46 395.42h5.3867c-1.0156-18.34-8.2461-35.785-20.508-49.465l-3.7891 3.7891h0.003906c-0.85547 0.88281-2.0273 1.3867-3.2539 1.3984-1.2305 0.007813-2.4102-0.47266-3.2812-1.3438-0.86719-0.86719-1.3516-2.0469-1.3398-3.2773 0.011718-1.2266 0.51562-2.4023 1.3984-3.2539l3.7891-3.793c-13.68-12.262-31.125-19.496-49.465-20.508v5.3906c0 2.5273-2.0508 4.5781-4.582 4.5781s-4.5781-2.0508-4.5781-4.5781v-5.3789c-18.344 1.0117-35.789 8.2461-49.465 20.512l3.7891 3.793-0.003906-0.003906c0.97266 0.82812 1.5547 2.0234 1.6094 3.2969 0.050781 1.2773-0.42969 2.5156-1.332 3.4219-0.89844 0.90234-2.1328 1.3906-3.4102 1.3477-1.2734-0.046875-2.4727-0.62109-3.3047-1.5898l-3.7891-3.793c-12.25 13.68-19.473 31.125-20.488 49.457h5.3867c2.5312 0 4.582 2.0508 4.582 4.582 0 2.5273-2.0508 4.5781-4.582 4.5781h-5.3867c1.0117 18.34 8.2422 35.789 20.504 49.465l3.793-3.7969h-0.003907c1.7969-1.7344 4.6562-1.7109 6.4219 0.054687 1.7656 1.7695 1.793 4.625 0.054688 6.4219l-3.7969 3.7969c13.68 12.262 31.125 19.496 49.465 20.516v-5.4258c0-2.5273 2.0508-4.5781 4.582-4.5781 2.5273 0 4.5781 2.0508 4.5781 4.5781v5.4023c18.34-1.0195 35.789-8.2539 49.465-20.516l-3.793-3.7969c-1.7344-1.7969-1.7109-4.6523 0.058594-6.418 1.7656-1.7695 4.6211-1.793 6.418-0.058594l3.793 3.7969c12.238-13.68 19.453-31.113 20.461-49.441h-5.3867c-2.5312 0-4.582-2.0508-4.582-4.5781 0-2.5312 2.0508-4.582 4.582-4.582zm-27.516-37.051-34.059 34.055c1.2812 2.3203 1.9648 4.9258 1.9805 7.5781 0.011718 5.168-2.4766 10.023-6.6797 13.031-4.2031 3.0117-9.6016 3.8008-14.492 2.1211-4.8906-1.6797-8.668-5.6172-10.137-10.574h-33.133c-2.5273 0-4.5781-2.0508-4.5781-4.5781 0-2.5312 2.0508-4.582 4.5781-4.582h33.133c1.3281-4.6289 4.6953-8.4023 9.1445-10.242 4.4492-1.8438 9.4961-1.5547 13.707 0.78125l34.059-34.051c1.7969-1.7344 4.6523-1.7109 6.418 0.058594 1.7695 1.7656 1.793 4.6211 0.058594 6.418z"/>
  <path d="m544.82 295.69c-6.2812-2.1445-12.754-3.6914-19.328-4.625-33.898-4.9805-68.164 6.2656-92.516 30.363-0.50391 0.45703-1.0547 1.0078-1.5586 1.5586-5.3945 5.457-10.172 11.496-14.242 18-0.32031 0.42578-0.60938 0.86719-0.87109 1.3281-10.855 17.512-16.555 37.727-16.441 58.328s6.0352 40.754 17.082 58.145c4.5039 7.1523 9.8398 13.746 15.891 19.648 23.91 23.469 57.215 34.758 90.469 30.664 33.25-4.0938 62.824-23.121 80.328-51.688 17.504-28.566 21.031-63.555 9.582-95.039-11.449-31.488-36.629-56.035-68.395-66.684zm28.949 168.23h0.003907c-0.078126 0.058593-0.16016 0.11328-0.24609 0.16016-16.91 16.852-39.812 26.316-63.688 26.316s-46.777-9.4648-63.688-26.316c-0.074219-0.0625-0.16406-0.085937-0.23438-0.15625-0.070313-0.070313-0.089844-0.16406-0.16016-0.23828-16.84-16.887-26.301-39.758-26.309-63.605v-0.082031-0.089844-0.003906c0.011719-23.832 9.4648-46.688 26.285-63.566 0.074219-0.085938 0.10156-0.19531 0.18359-0.28125 0.082031-0.082032 0.19141-0.10938 0.27344-0.18359 16.906-16.836 39.789-26.293 63.648-26.293s46.746 9.457 63.648 26.293c0.085938 0.074218 0.20312 0.10547 0.28516 0.1875 0.082031 0.082031 0.11328 0.19531 0.19141 0.28906 16.812 16.879 26.258 39.727 26.27 63.551v0.089843 0.082031c-0.007813 23.844-9.4648 46.707-26.297 63.59-0.070312 0.089844-0.09375 0.18359-0.16406 0.25781z"/>
  <path d="m509.85 393.13c-3.2773-0.003906-6.1055 2.3047-6.7461 5.5195-0.64453 3.2148 1.0703 6.4375 4.0977 7.6953 3.0273 1.2578 6.5234 0.19922 8.3477-2.5234 1.8242-2.7227 1.4688-6.3555-0.84766-8.6758-1.2891-1.2891-3.0312-2.0117-4.8516-2.0156z"/>
 </g>
</svg>