<?xml version="1.0" encoding="UTF-8"?>
<!-- The Best Svg Icon site in the world: iconSvg.co, Visit us! https://iconsvg.co -->
<svg width="800px" height="800px" version="1.1" viewBox="144 144 512 512" xmlns="http://www.w3.org/2000/svg">
 <defs>
  <clipPath id="b">
   <path d="m564 373h87.902v131h-87.902z"/>
  </clipPath>
  <clipPath id="a">
   <path d="m148.09 377h87.906v132h-87.906z"/>
  </clipPath>
 </defs>
 <path d="m432.87 390.74c0 44.809 36.453 81.262 81.258 81.262 44.824 0 81.293-36.453 81.293-81.262 0-44.805-36.469-81.254-81.293-81.254-44.805 0-81.258 36.449-81.258 81.254zm102.12-43.215c0 2.9609-2.3984 5.2539-5.3594 5.2539-15.133 0-28.207 8.8398-34.223 21.633h19.922c2.9609 0 5.3594 2.4531 5.3594 5.4102 0 2.9609-2.3984 5.4102-5.3594 5.4102h-23.086c-0.16016 0.98438-0.26953 2.9531-0.32422 3.9375h23.41c2.9609 0 5.3594 2.4531 5.3594 5.4102 0 2.9609-2.3984 5.4102-5.3594 5.4102h-22.355c4.0547 15.742 18.949 28.684 36.656 28.684 2.9609 0 5.3594 2.293 5.3594 5.2539 0 2.9609-2.3984 5.3984-5.3594 5.3984-23.645 0-43.379-16.703-47.617-39.336h-9.832c-2.9609 0-5.3594-2.4531-5.3594-5.4102 0-2.9609 2.3984-5.4102 5.3594-5.4102h9.0195c0.042969-0.98438 0.11719-2.9531 0.23828-3.9375h-9.2578c-2.9609 0-5.3594-2.4531-5.3594-5.4102 0-2.9609 2.3984-5.4102 5.3594-5.4102h11.672c6.6016-18.695 24.621-32.402 45.777-32.402 2.9609 0 5.3594 2.5547 5.3594 5.5156z"/>
 <path d="m197.44 390.74c0 44.809 36.449 81.262 81.254 81.262 44.816 0 81.277-36.453 81.277-81.262 0-44.805-36.461-81.254-81.277-81.254-44.805 0-81.254 36.449-81.254 81.254zm86.445-45.984v10.68c3.9375 0.35156 8.1133 1.2031 12.395 2.5352 2.8242 0.87891 4.3828 3.8867 3.5039 6.7109-0.87891 2.8242-3.8398 4.4023-6.668 3.5234-5.1172-1.5938-10.023-2.3672-14.262-2.2227h-0.027344c-7.2969 0.28125-11.035 3.1562-11.43 5.7109-0.54688 3.5625 4.1992 9.2812 15.871 13.43 15.223 5.4102 18.582 13.793 19.211 18.312 0.88281 6.3359-2.3633 12.719-8.4844 17.078-2.9727 2.1172-6.1758 3.6133-10.113 4.4844v11.746c0 2.9609-2.4531 5.3594-5.4102 5.3594-2.9609 0-5.4102-2.3984-5.4102-5.3594v-10.938c-4.9219-0.38672-10.406-1.8594-15.43-4.4258-2.6367-1.3477-3.6719-4.5742-2.3281-7.2109 1.3477-2.6367 4.6328-3.6836 7.2695-2.3359 10.812 5.5195 20.379 3.4219 25.258-0.054688 2.8047-1.9961 4.3125-4.5625 3.9922-6.8633-0.49219-3.5391-5.0039-7.1602-12.125-9.6914-18.68-6.6367-24.227-17.344-23.031-25.152 1.1094-7.2461 7.5352-12.523 16.391-14.234v-11.082c0-2.9609 2.4531-5.3594 5.4102-5.3594 2.9648 0 5.418 2.3984 5.418 5.3594z"/>
 <path d="m236.93 532.32c-4.5 0-8.1602 3.6484-8.1602 8.1289 0 4.4844 3.6602 8.1289 8.1602 8.1289 4.4805 0 8.1289-3.6445 8.1289-8.1289 0-4.4844-3.6445-8.1289-8.1289-8.1289z"/>
 <path d="m521.35 494.37c-1.5312-1.5352-3.8516-1.9922-5.8555-1.1602-2.0039 0.82812-3.3242 2.7852-3.3242 4.9531v7.0156c-41.328-1.3125-78.105-24.648-96.938-61.582-1.3438-2.6367-4.5664-3.6836-7.2031-2.3398s-3.6953 4.5703-2.3516 7.207c20.676 40.539 61.23 66.117 106.5 67.43v7.1406c0 2.168 1.3203 4.1211 3.3242 4.9531 0.66406 0.27734 1.3672 0.41016 2.0547 0.41016 1.3945 0 2.7695-0.54688 3.793-1.5703l12.441-12.438c2.0938-2.0938 2.0938-5.4844 0-7.5781z"/>
 <g clip-path="url(#b)">
  <path d="m650.34 386.83-12.422-12.133c-1.0039-1.0039-2.3672-1.2656-3.7891-1.2656h-0.003906c-1.4219 0-2.7852 0.26172-3.7891 1.2656l-12.438 12.285c-1.5352 1.5312-1.9922 3.8047-1.1641 5.8086 0.82812 2.0039 2.7852 3.2773 4.9531 3.2773h7.0156c-1.3008 41.328-24.641 78.09-61.578 96.91-2.6406 1.3438-3.6875 4.5508-2.3438 7.1875 0.94531 1.8594 2.8281 2.918 4.7812 2.918 0.81641 0 1.6484-0.15234 2.4258-0.54688 40.551-20.664 66.129-61.207 67.434-106.47h7.125c2.168 0 4.1211-1.3477 4.9531-3.3516 0.82812-2 0.37109-4.3477-1.1602-5.8828z"/>
 </g>
 <path d="m510.33 290.31c1.0234 1.0273 2.3984 1.5742 3.7969 1.5742 0.69141 0 1.1719-0.13281 1.832-0.40625 2.0039-0.82812 3.1016-2.7852 3.1016-4.9531v-7.0312c41.328 1.2969 78.352 24.645 97.18 61.602 0.94922 1.8594 2.9336 2.9258 4.8867 2.9258 0.82031 0 1.7031-0.1875 2.4805-0.58594 2.6367-1.3438 3.5-4.5703 2.1562-7.207-20.664-40.57-60.457-66.156-106.7-67.457v-7.1406c0-2.168-1.0938-4.1211-3.0977-4.9531-2-0.82813-4.2031-0.36719-5.7344 1.1641l-12.367 12.438c-2.0898 2.0898-2.0625 5.4805 0.023438 7.5703z"/>
 <path d="m415.01 391.75c-0.82812-2.0039-2.7852-3.5625-4.9531-3.5625h-7.043c1.3047-40.344 24.645-77.848 61.582-96.711 2.6367-1.3477 3.6797-4.4492 2.3359-7.0859-1.3477-2.6367-4.5742-3.6211-7.2109-2.2734-30.508 15.578-52.527 42.449-62.125 74.051-9.5977-31.613-31.621-58.438-62.137-74.004-2.6367-1.3477-5.8672-0.29297-7.2109 2.3477-1.3477 2.6367-0.29688 5.6172 2.3398 6.9648 36.934 18.84 60.273 56.367 61.582 96.711h-7.0078c-2.168 0-4.1211 1.5547-4.9531 3.5586-0.82812 2-0.37109 4.4336 1.1602 5.9648l12.43 12.492c1.0469 1.0469 2.418 1.6016 3.7891 1.6016 1.3711 0 2.7383-0.50391 3.7852-1.5469l12.465-12.547c1.5391-1.5352 2-3.957 1.1719-5.9609z"/>
 <g clip-path="url(#a)">
  <path d="m235.26 505.33c1.3438-2.6367 0.29297-5.9727-2.3477-7.3164-36.93-18.801-60.27-55.703-61.574-97.031h7.0078c2.1641 0 4.1211-1.1953 4.9492-3.1992 0.83203-2 0.375-4.25-1.1562-5.7852l-12.43-12.758c-1.0039-1.0117-2.3672-1.875-3.7891-1.875h-0.003907c-1.4219 0-2.7852 0.89062-3.7891 1.8945l-12.461 12.625c-1.5312 1.5312-1.9922 3.8125-1.1602 5.8164 0.82812 2 2.7812 3.2812 4.9492 3.2812h7.1641c1.3086 45.266 26.887 85.945 67.434 106.59 0.78125 0.39844 1.6094 0.63672 2.4258 0.63672 1.9531 0 3.8359-1.0156 4.7812-2.875z"/>
 </g>
 <path d="m166.92 337.88c-1.3438 2.6367-0.11328 5.8633 2.5234 7.207 0.78125 0.39844 1.7031 0.58594 2.5195 0.58594 1.9531 0 3.5156-1.0703 4.4609-2.9297 18.816-36.938 56.293-60.277 96.637-61.578v7.0156c0 2.168 1.668 4.1211 3.6719 4.9531 0.66406 0.27344 1.5391 0.41016 2.2305 0.41016 1.3945 0 2.8555-0.54297 3.8828-1.5703l12.48-12.438c1.0039-1.0039 1.5938-2.3711 1.5938-3.793 0-1.4219-0.55469-2.7852-1.5586-3.7891l-12.43-12.43c-1.5312-1.5312-4.1992-1.9883-6.1992-1.1602-2.0039 0.82812-3.668 2.7852-3.668 4.9531v7.1328c-44.285 1.2969-85.492 26.879-106.14 67.43z"/>
 <path d="m387.41 437.21c-2.6367-1.3477-6.0312-0.29688-7.3789 2.3398-18.832 36.938-54.812 60.277-97.125 61.582v-7.0312c0-2.168-1.1406-4.1211-3.1445-4.9531-2.0039-0.82812-4.2266-0.37109-5.7578 1.168l-12.387 12.453c-2.0898 2.0938-2.0703 5.4844 0.023438 7.5742l12.441 12.438c1.0234 1.0273 2.4023 1.5703 3.7969 1.5703 0.69141 0 1.2227-0.13281 1.8828-0.40625 2.0039-0.83203 3.1445-2.7852 3.1445-4.9531v-7.1406c45.266-1.3086 86.004-26.887 106.68-67.43 1.3438-2.6367 0.46484-5.8672-2.1719-7.2109z"/>
 <path d="m380.5 277h7.6953v7.6602c0 2.9609 2.4531 5.3594 5.4102 5.3594 2.9609 0 5.4102-2.3984 5.4102-5.3594l0.003906-7.6602h8.4844c2.9609 0 5.3594-2.4531 5.3594-5.4102 0-2.9609-2.3984-5.4102-5.3594-5.4102l-8.4844-0.003907v-8.4883c0-2.9609-2.4531-5.3594-5.4102-5.3594-2.9609 0-5.4102 2.3984-5.4102 5.3594l-0.003906 8.4883h-7.6953c-2.9609 0-5.3594 2.4531-5.3594 5.4102-0.003907 2.9609 2.3984 5.4141 5.3594 5.4141z"/>
 <path d="m169.21 276.02h7.4141v7.7031c0 2.9609 2.4531 5.3594 5.4102 5.3594 2.9609 0 5.4102-2.3984 5.4102-5.3594l0.003906-7.7031h8.7695c2.9609 0 5.3594-2.4531 5.3594-5.4102 0-2.9609-2.3984-5.4102-5.3594-5.4102l-8.7695-0.003906v-8.4531c0-2.9609-2.4531-5.3594-5.4102-5.3594-2.9609 0-5.4102 2.3984-5.4102 5.3594l-0.003906 8.4531h-7.4141c-2.9609 0-5.3594 2.4531-5.3594 5.4102 0 2.9609 2.3984 5.4141 5.3594 5.4141z"/>
 <path d="m588.86 518.59c-2.0938-2.0938-5.4844-2.0977-7.5781-0.003906l-9.7148 9.7031-9.7148-9.7031c-2.0938-2.0938-5.4883-2.0898-7.5781 0.003906-2.0938 2.0938-2.0898 5.4883 0.003907 7.5781l9.707 9.6953-9.707 9.6953c-2.0938 2.0938-2.0977 5.4844-0.003907 7.5781 2.0938 2.0977 5.4883 2.0977 7.5781 0.003906l9.7148-9.7031 9.7148 9.7031c1.0469 1.0469 2.418 1.5664 3.7891 1.5664s2.7461-0.52344 3.793-1.5742c2.0938-2.0938 2.0898-5.4883-0.003906-7.5781l-9.707-9.6953 9.707-9.6953c2.0898-2.0859 2.0938-5.4805 0-7.5742z"/>
 <path d="m591.75 281.41c2.0938 2.0938 5.4883 2.0938 7.5781 0l9.6992-9.6992 9.6992 9.6992c1.0469 1.0469 2.418 1.5703 3.7891 1.5703s2.7461-0.52344 3.7891-1.5703c2.0938-2.0938 2.0938-5.4883 0-7.5781l-9.6992-9.6992 9.6992-9.6992c2.0938-2.0938 2.0938-5.4883 0-7.5781-2.0938-2.0938-5.4883-2.0938-7.5781 0l-9.6992 9.6992-9.6992-9.6992c-2.0898-2.0938-5.4883-2.0938-7.5781 0-2.0938 2.0938-2.0938 5.4883 0 7.5781l9.6992 9.6992-9.6992 9.6992c-2.0938 2.0898-2.0938 5.4844 0 7.5781z"/>
</svg>