<?xml version="1.0" encoding="UTF-8"?>
<!-- The Best Svg Icon site in the world: iconSvg.co, Visit us! https://iconsvg.co -->
<svg fill="#000000" width="800px" height="800px" version="1.1" viewBox="144 144 512 512" xmlns="http://www.w3.org/2000/svg">
 <g>
  <path d="m219.46 296.17c20.289-6.2969 41.562 4.4609 48.48 24.508l73.566 212.84v0.019531c6.2461 18.062 23.289 30.195 42.414 30.195h194.2c2.8867 0 5.2461-2.3633 5.2461-5.2461 0-2.8867-2.3633-5.2461-5.2461-5.2461h-194.21c-14.652 0-27.699-9.2891-32.484-23.145l-9.6758-28.004h196.73c24.738 0 44.871-20.133 44.871-44.871v-108.89c0-2.8984-2.3516-5.2461-5.2461-5.2461h-291.31l-8.9336-25.84-0.011719-0.011719c-8.8047-25.434-35.824-39.086-61.508-31.09-2.7695 0.85937-4.3125 3.8008-3.4531 6.5703 0.86328 2.7617 3.8008 4.293 6.5742 3.4531zm353.4 57.414v103.64c0 18.965-15.418 34.375-34.375 34.375h-200.37l-47.691-138z"/>
  <path d="m351.8 577.55c-14.703 0-26.68 11.977-26.68 26.691 0 14.715 11.965 26.668 26.68 26.668 14.703 0 26.672-11.953 26.672-26.672 0-14.715-11.969-26.688-26.672-26.688zm0 42.863c-8.9219 0-16.184-7.2539-16.184-16.195 0-8.9219 7.2539-16.176 16.184-16.176 8.9219 0 16.176 7.2539 16.176 16.176 0 8.9453-7.2539 16.195-16.176 16.195z"/>
  <path d="m560.68 577.55c-14.695 0-26.672 11.977-26.672 26.691 0 14.715 11.957 26.668 26.672 26.668s26.672-11.953 26.672-26.672c-0.003907-14.715-11.969-26.688-26.672-26.688zm0 42.863c-8.9219 0-16.176-7.2539-16.176-16.195 0-8.9219 7.2422-16.176 16.176-16.176s16.176 7.2539 16.176 16.176c-0.003906 8.9453-7.2539 16.195-16.176 16.195z"/>
  <path d="m430.3 291.79c0.92188 1.625 2.6641 2.625 4.5352 2.625 1.8906 0 3.6211-0.99609 4.5547-2.625l19.332-33.48c0.94531-1.625 0.94531-3.6211 0-5.2461-0.93359-1.625-2.6641-2.625-4.543-2.625h-14.098v-76.109c0-2.8984-2.3398-5.2461-5.2461-5.2461-2.8867 0-5.2461 2.3516-5.2461 5.2461l-0.003906 76.098h-14.086c-1.8789 0-3.6094 0.99609-4.543 2.625-0.93359 1.625-0.93359 3.6211 0 5.2461zm14.777-30.867-10.254 17.738-10.234-17.738z"/>
 </g>
</svg>