<?xml version="1.0" encoding="UTF-8"?>
<!-- The Best Svg Icon site in the world: iconSvg.co, Visit us! https://iconsvg.co -->
<svg fill="#000000" width="800px" height="800px" version="1.1" viewBox="144 144 512 512" xmlns="http://www.w3.org/2000/svg">
 <g>
  <path d="m592.41 326.4h-96.5v59.309c0 9.6992-3.8516 19-10.703 25.859-6.8555 6.8633-16.148 10.723-25.848 10.738h-146.15v96.5c0.011719 7.2695 2.9102 14.234 8.0547 19.367 5.1406 5.1367 12.113 8.0195 19.379 8.0234h166.95l56.242 56.289c2.668 2.6836 6.293 4.1953 10.078 4.2148 1.9141-0.007813 3.8125-0.37891 5.5859-1.1016 5.3867-2.1758 8.8945-7.4258 8.8398-13.234v-46.168h4.0781-0.003906c7.2695-0.003906 14.238-2.8867 19.383-8.0234 5.1406-5.1328 8.0391-12.098 8.0547-19.367v-164.97c-0.007812-7.2773-2.8984-14.25-8.043-19.395s-12.117-8.0352-19.395-8.0391zm-210.73 150.59c-5.5664 0-10.902-2.207-14.836-6.1406-3.9336-3.9375-6.1406-9.2695-6.1406-14.836 0-5.5625 2.207-10.898 6.1406-14.832 3.9336-3.9336 9.2695-6.1445 14.836-6.1445 5.5625 0 10.898 2.2109 14.832 6.1445 3.9336 3.9336 6.1445 9.2695 6.1445 14.832 0.003906 5.5664-2.2031 10.906-6.1367 14.84-3.9375 3.9375-9.2773 6.1445-14.84 6.1367zm84.824 0h-0.003906c-5.5625 0-10.898-2.207-14.832-6.1406-3.9336-3.9375-6.1445-9.2695-6.1445-14.836 0-5.5625 2.2109-10.898 6.1445-14.832 3.9336-3.9336 9.2695-6.1445 14.832-6.1445 5.5664 0 10.898 2.2109 14.836 6.1445 3.9336 3.9336 6.1406 9.2695 6.1406 14.832 0.003907 5.5664-2.2031 10.902-6.1367 14.84-3.9375 3.9336-9.2734 6.1406-14.84 6.1367zm84.824 0h-0.003906c-5.5664 0.011719-10.91-2.1875-14.852-6.1172-3.9414-3.9258-6.1641-9.2617-6.1719-14.828-0.007812-5.5664 2.1992-10.906 6.1289-14.848 3.9297-3.9375 9.2695-6.1562 14.832-6.1602 5.5664-0.003906 10.906 2.207 14.844 6.1406 3.9375 3.9336 6.1484 9.2695 6.1484 14.836 0.003906 5.5586-2.1992 10.887-6.1211 14.82-3.9258 3.9336-9.25 6.1484-14.809 6.1562z"/>
  <path d="m381.68 425.88c-7.9961 0-15.66 3.1758-21.312 8.8281-5.6523 5.6523-8.8242 13.316-8.8242 21.309 0 7.9922 3.1719 15.66 8.8242 21.312 5.6523 5.6523 13.316 8.8242 21.312 8.8242 7.9922 0 15.656-3.1719 21.309-8.8242 5.6523-5.6523 8.8281-13.32 8.8281-21.312-0.003906-7.9922-3.1797-15.656-8.8281-21.309-5.6523-5.6484-13.316-8.8242-21.309-8.8281zm0 51.113c-5.5664 0-10.902-2.207-14.836-6.1406-3.9336-3.9375-6.1406-9.2695-6.1406-14.836 0-5.5625 2.207-10.898 6.1406-14.832 3.9336-3.9336 9.2695-6.1445 14.836-6.1445 5.5625 0 10.898 2.2109 14.832 6.1445 3.9336 3.9336 6.1445 9.2695 6.1445 14.832 0.003906 5.5664-2.2031 10.906-6.1367 14.84-3.9375 3.9375-9.2773 6.1445-14.84 6.1367z"/>
  <path d="m466.5 425.88c-7.9922 0-15.656 3.1758-21.309 8.8281s-8.8281 13.316-8.8281 21.309c0 7.9922 3.1758 15.66 8.8281 21.312 5.6523 5.6523 13.316 8.8242 21.309 8.8242 7.9961 0 15.66-3.1719 21.312-8.8242 5.6523-5.6523 8.8242-13.32 8.8242-21.312-0.007813-7.9883-3.1875-15.648-8.8359-21.297-5.6523-5.6484-13.309-8.8281-21.301-8.8398zm0 51.113c-5.5625 0-10.898-2.207-14.832-6.1406-3.9336-3.9375-6.1445-9.2695-6.1445-14.836 0-5.5625 2.2109-10.898 6.1445-14.832 3.9336-3.9336 9.2695-6.1445 14.832-6.1445 5.5664 0 10.898 2.2109 14.836 6.1445 3.9336 3.9336 6.1406 9.2695 6.1406 14.832 0.003907 5.5664-2.2031 10.902-6.1367 14.84-3.9375 3.9336-9.2734 6.1406-14.84 6.1367z"/>
  <path d="m551.32 425.88c-7.9961-0.011719-15.668 3.1562-21.328 8.8008-5.6602 5.6484-8.8477 13.312-8.8555 21.305-0.007813 7.9961 3.1641 15.668 8.8125 21.328 5.6484 5.6562 13.316 8.8359 21.309 8.8398 7.9961 0.003906 15.668-3.168 21.32-8.8203 5.6562-5.6523 8.832-13.32 8.832-21.316-0.007812-7.9805-3.1797-15.633-8.8203-21.281-5.6406-5.6484-13.289-8.832-21.27-8.8555zm0 51.113c-5.5664 0.011719-10.91-2.1875-14.852-6.1172-3.9414-3.9258-6.1641-9.2617-6.1719-14.828-0.007812-5.5664 2.1992-10.906 6.1289-14.848 3.9297-3.9375 9.2695-6.1562 14.832-6.1602 5.5664-0.003906 10.906 2.207 14.844 6.1406 3.9375 3.9336 6.1484 9.2695 6.1484 14.836 0.003906 5.5586-2.1992 10.887-6.1211 14.82-3.9258 3.9336-9.25 6.1484-14.809 6.1562z"/>
  <path d="m341.59 309.46c-2.7227-1.4805-5.625-2.5938-8.6367-3.3125v17.602c7.6992-0.55078 11.543-3.6602 11.543-9.3359h-0.003906c0.042968-2.0664-1.082-3.9805-2.9023-4.9531z"/>
  <path d="m317.16 288.3c-0.10156 2.2031 0.9375 4.3047 2.7461 5.5703 2.4688 1.5859 5.1953 2.7227 8.0625 3.3555v-18.008c-2.8438 0.26562-5.5625 1.2969-7.8672 2.9844-1.9062 1.4375-3.0039 3.707-2.9414 6.0977z"/>
  <path d="m330.48 250.69c-13.469 0.007812-26.387 5.3672-35.906 14.895-9.5234 9.5312-14.871 22.453-14.867 35.922 0.003907 13.473 5.3555 26.391 14.883 35.918 9.5234 9.5234 22.441 14.875 35.914 14.879 13.469 0.003907 26.391-5.3438 35.922-14.863 9.5273-9.5234 14.887-22.441 14.895-35.91 0-13.484-5.3555-26.414-14.891-35.949-9.5352-9.5352-22.465-14.891-35.949-14.891zm19.055 72.086c-1.6641 2.4375-3.957 4.375-6.6367 5.6055-3.1211 1.457-6.5 2.2773-9.9414 2.4141v5.8125c0.019531 0.65625-0.23047 1.293-0.69531 1.7578-1.0195 0.91406-2.5586 0.93359-3.6016 0.046875-0.47656-0.47656-0.73047-1.1328-0.69141-1.8047v-5.8164c-5.6914-0.33203-11.281-1.6328-16.535-3.8477-0.66797-0.27734-1.2383-0.74609-1.6406-1.3477-0.96875-1.3516-0.85156-3.1992 0.28516-4.418 0.61719-0.67969 1.4961-1.0547 2.4141-1.0273 0.53516 0 1.0664 0.10937 1.5547 0.33203 4.3945 1.9531 9.1172 3.0664 13.922 3.2734v-18.828c-3.207-0.81641-6.3438-1.8867-9.375-3.207-2.4766-1.0938-4.6484-2.7656-6.3438-4.8711-1.7539-2.2852-2.6523-5.1094-2.5391-7.9844-0.019532-2.7578 0.70312-5.4727 2.0898-7.8555 1.5078-2.5 3.6523-4.5586 6.2188-5.9531 3.0664-1.6758 6.4609-2.6523 9.9492-2.8633v-5.7422c-0.015625-0.66797 0.23047-1.3125 0.69141-1.7969 0.45312-0.48828 1.0977-0.75781 1.7617-0.73828 0.67578-0.003906 1.3203 0.25781 1.7969 0.73438 0.47656 0.47656 0.74219 1.125 0.73828 1.8008v5.6523-0.003906c4.8633 0.125 9.6758 1.0391 14.246 2.7031 1.4336 0.42578 2.3828 1.7812 2.2891 3.2695-0.003907 0.87891-0.32813 1.7266-0.91406 2.3789-0.58594 0.70312-1.4648 1.0938-2.3789 1.0625-0.44922-0.027344-0.89062-0.13672-1.3047-0.32422-3.8516-1.3359-7.8828-2.082-11.957-2.2148v19.484c3.3359 0.74219 6.6094 1.7539 9.7812 3.0273 2.543 1.0547 4.7812 2.7305 6.5078 4.8711 1.8477 2.457 2.7734 5.4844 2.6211 8.5547 0.035156 2.793-0.77344 5.5312-2.3125 7.8594z"/>
  <path d="m331.18 229.4h-0.68359c-25.621 0.20703-49.207 13.992-61.957 36.211-12.75 22.223-12.75 49.543 0 71.766 12.75 22.219 36.336 36.008 61.957 36.211h0.71875c25.621-0.21094 49.203-14.004 61.949-36.227 12.746-22.227 12.738-49.547-0.019531-71.766-12.758-22.219-36.348-35.996-61.965-36.195zm-0.69922 132.05h-0.003906c-15.902-0.007813-31.152-6.3359-42.391-17.586-11.238-11.25-17.551-26.504-17.543-42.41 0.007813-15.902 6.332-31.152 17.582-42.391 11.25-11.242 26.504-17.555 42.406-17.547 15.906 0.003907 31.156 6.3281 42.398 17.578 11.238 11.25 17.551 26.504 17.547 42.406-0.011719 15.902-6.3398 31.152-17.59 42.395-11.25 11.238-26.504 17.555-42.41 17.555z"/>
  <path d="m459.36 193.3h-251.81c-7.2656 0.011719-14.23 2.9102-19.367 8.0508-5.1328 5.1445-8.0195 12.113-8.0195 19.383v164.97c0 7.2695 2.8867 14.238 8.0195 19.383 5.1367 5.1406 12.102 8.0391 19.367 8.0547h4.1211v46.074c-0.058593 5.8242 3.4219 11.102 8.8008 13.336 5.375 2.2383 11.574 0.98437 15.656-3.168l56.293-56.242h166.94c7.2695-0.015625 14.234-2.9141 19.367-8.0547 5.1367-5.1445 8.0195-12.113 8.0234-19.383v-164.97c-0.003906-7.2695-2.8867-14.238-8.0234-19.383-5.1328-5.1406-12.098-8.0391-19.367-8.0508zm-128.09 189.45h-0.76172c-28.883-0.21875-55.48-15.75-69.859-40.801-14.379-25.051-14.379-55.855 0-80.906 14.379-25.051 40.977-40.582 69.859-40.801h0.71875c28.883 0.21094 55.484 15.738 69.871 40.785 14.387 25.047 14.395 55.848 0.019531 80.902-14.371 25.055-40.965 40.594-69.848 40.82z"/>
 </g>
</svg>