<?xml version="1.0" encoding="UTF-8"?>
<!-- The Best Svg Icon site in the world: iconSvg.co, Visit us! https://iconsvg.co -->
<svg fill="#000000" width="800px" height="800px" version="1.1" viewBox="144 144 512 512" xmlns="http://www.w3.org/2000/svg">
 <g>
  <path d="m459.19 283.91c1.0273 1.1133 2.4414 1.6797 3.8477 1.6797 1.2734 0 2.5547-0.46094 3.5703-1.3945 2.125-1.9688 2.2578-5.2891 0.28516-7.4219l-20.105-21.711c-1.9609-2.125-5.2969-2.25-7.4141-0.28516-2.125 1.9688-2.2578 5.2891-0.28516 7.4219z"/>
  <path d="m364 415.74h50.297c1.0352 10.496 6.6992 18.914 17.195 19.953v21.711c0 2.8984 2.3477 5.2461 5.2461 5.2461 2.9023 0 5.2461-2.3516 5.2461-5.2461v-27.133c0-1.5625 0.45312-3.0508-0.76172-4.0469-1.207-0.99609-2.2188-1.4023-3.7578-1.1133-0.66016 0.125-1.0586 0.19531-1.7578 0.19531-6.2383 0-11.18-5.0742-11.18-11.309 0-0.70312 0.14062-1.3867 0.27344-2.0469 0.29297-1.5391-0.078125-3.3633-1.0703-4.5703-0.99219-1.2031-2.4375-2.1367-4.0078-2.1367h-61.148c-1.5586 0-3.0352 0.92969-4.0312 2.1211-0.99609 1.1953-1.418 2.8867-1.1328 4.418 0.12109 0.67578 0.19922 1.4336 0.19922 2.1562 0 6.2344-5.082 11.34-11.316 11.34-0.70703 0-1.3945-0.058594-2.0742-0.18359-1.5391-0.28906-4.2344 0.125-5.4375 1.1289-1.1875 1-3.0039 2.4844-3.0039 4.0469v88.152c0 2.8984 2.3477 5.2461 5.2461 5.2461 2.9023 0 5.2461-2.3516 5.2461-5.2461l0.003906-82.73c10.496-1.0391 20.688-9.457 21.727-19.953z"/>
  <path d="m470.39 504.96h-7.418v-115.45c0-2.8984-3.4023-5.2461-6.3047-5.2461l-14.688-0.003906v-68.223h45.027c2.0312 0 3.8711-1.1719 4.7383-3 0.87109-1.8359 0.60547-4.0039-0.68359-5.5742l-13.328-16.281c-1.832-2.2422-5.1367-2.5781-7.3828-0.73438-2.2422 1.8359-2.5703 5.1445-0.73438 7.3828l6.3125 7.7109h-39.199c-2.9023 0-5.2461 2.3516-5.2461 5.2461v73.473h-83.969v-73.473c0-2.8984-2.3477-5.2461-5.2461-5.2461h-36.359l84.41-95.34 37.152 40.227c1.9688 2.1367 5.2852 2.1562 7.4141 0.18359 2.1289-1.9688 2.2656-5.5156 0.30469-7.6523l-41.086-45.004c-0.99609-1.082-2.3906-2.625-3.8555-2.625h-0.050781c-1.4805 0-2.8906 1.5859-3.8711 2.6914l-95.984 109.29c-1.3711 1.543-1.6992 3.7461-0.85547 5.6328s2.7109 3.0938 4.7812 3.0938h42.75v68.223h-15.156c-2.8984 0-5.8359 2.3516-5.8359 5.25v154.53c0 20.773 19.648 39.645 43.078 39.645h111.29c23.434 0 42.492-18.59 42.492-39.359 0-20.773-19.059-39.363-42.492-39.363zm-112.4 66.254c-5.2656 0-10.477-1.1016-15.723-3.0273v-19.516c0-2.8984-2.3477-5.2461-5.2461-5.2461-2.9023 0-5.2461 2.3516-5.2461 5.2461v12.164c0-4.6289-5.2461-10.453-5.2461-16.793l-0.003906-149.29h125.95v110.21h-10.496v-17.137c0-2.8984-2.3477-5.2461-5.2461-5.2461-2.9023 0-5.2461 2.3516-5.2461 5.2461l-0.003907 17.137h-72.379c-2.9023 0-5.2461 3.0547-5.2461 5.9531 0 2.8984 2.3477 5.6016 5.2461 5.6016 17.637 0 31.43 12.363 31.43 27.348 0.003907 14.98-14.906 27.352-32.547 27.352zm112.4 1.9727h-81.883c8.0625-10.496 13.09-18.199 13.09-28.863-0.003906-10.664-5.0312-18.371-13.09-28.867h81.891c17.637 0 31.996 13.883 31.996 28.863-0.007813 14.98-14.363 28.867-32.004 28.867z"/>
 </g>
</svg>