<?xml version="1.0" encoding="UTF-8"?>
<!-- The Best Svg Icon site in the world: iconSvg.co, Visit us! https://iconsvg.co -->
<svg fill="#000000" width="800px" height="800px" version="1.1" viewBox="144 144 512 512" xmlns="http://www.w3.org/2000/svg">
 <path d="m537.3 338.64h51.797c2.6094 0 4.7227-2.1172 4.7227-4.7227v-93.945c0.003906-1.2539-0.49219-2.457-1.3789-3.3438-0.88672-0.89062-2.0898-1.3867-3.3438-1.3867h-51.797c-2.6133 0-4.7344 2.1172-4.7344 4.7305v9.6641l-49.828-45c-0.015625-0.003906-0.035156-0.003906-0.050781 0-0.19141-0.16406-0.39453-0.31641-0.60938-0.44922l-0.089844-0.058594v-0.003906c-0.21875-0.12891-0.44922-0.24219-0.6875-0.34375h-0.078125c-0.25-0.089844-0.50781-0.15625-0.76953-0.20703h-0.058594c-0.27344-0.050781-0.54688-0.074218-0.82422-0.078124h-36.191c-0.17188-0.007813-0.34375-0.007813-0.51172 0h-0.097656l-0.40234 0.070312-232.38 52.152h-0.082031c-0.039063-0.003906-0.078126-0.003906-0.11719 0-0.097656 0-0.20703 0.050781-0.30469 0.089844l-0.17578 0.058593-0.25391 0.097657-0.20703 0.097656-0.19531 0.10938-0.22656 0.13672-0.15625 0.097656-0.22656 0.16797-0.13672 0.10938h-0.007813c-0.070313 0.054687-0.13672 0.11719-0.19531 0.1875-0.050781 0.035156-0.097656 0.078124-0.13672 0.125-0.0625 0.058593-0.11719 0.12109-0.16797 0.1875-0.050781 0.046874-0.097656 0.10156-0.13672 0.15625l-0.27344 0.375h-0.003907c-0.03125 0.0625-0.070312 0.12109-0.10937 0.17969l-0.11719 0.21484-0.089844 0.17578-0.10938 0.23438c0 0.070313-0.050781 0.12891-0.070312 0.19531l-0.078125 0.23437-0.058594 0.22656c0 0.070313 0 0.13672-0.050781 0.21484l0.003906 0.007812c-0.003906 0.089844-0.003906 0.18359 0 0.27344v0.17578 0.31641 0.12891 34.312c0.0625 19.16 8.5078 37.336 23.117 49.734 14.605 12.398 33.91 17.781 52.828 14.727 18.914-3.0508 35.547-14.234 45.512-30.602v86.594l0.11719 5.9922c-5.7344 1.1719-10.852 4.3828-14.398 9.0391-3.5508 4.6562-5.2891 10.441-4.8945 16.281 0.39062 5.8398 2.8906 11.34 7.0273 15.48 4.1406 4.1367 9.6406 6.6367 15.48 7.0273 5.8398 0.39453 11.625-1.3438 16.281-4.8945 4.6562-3.5469 7.8672-8.6641 9.0391-14.398 0.52344-2.5547-1.1289-5.0508-3.6836-5.5742-2.5586-0.51953-5.0547 1.1289-5.5742 3.6836-0.75 3.6719-2.8672 6.918-5.918 9.0859-3.0547 2.168-6.8164 3.0938-10.527 2.5898-3.7109-0.50391-7.0938-2.3984-9.457-5.3008-2.3672-2.9023-3.543-6.5977-3.2852-10.332 0.25391-3.7383 1.9219-7.2344 4.6602-9.7891 2.7383-2.5547 6.3477-3.9727 10.09-3.9648 1.2695 0 2.4883-0.50781 3.375-1.4141 0.89062-0.90234 1.3789-2.1289 1.3594-3.3984l-0.19531-10.293v-115.55h101.39v223.75c-4.4219 0.20703-8.5977 2.1055-11.656 5.3086-3.0586 3.1992-4.7695 7.4531-4.7773 11.883v46.867h-70.504v-37.246c0-2.6094-2.1133-4.7227-4.7227-4.7227h-21.047v-37.242c0-2.6133-2.1133-4.7305-4.7227-4.7344h-51.543c-2.6094 0.003906-4.7227 2.1211-4.7227 4.7344v37.246l-21.051-0.003906c-2.6055 0-4.7227 2.1133-4.7227 4.7227v37.246h-28.27c-2.6094 0-4.7227 2.1133-4.7227 4.7227s2.1133 4.7227 4.7227 4.7227h378.19c2.6094 0 4.7227-2.1133 4.7227-4.7227s-2.1133-4.7227-4.7227-4.7227h-88.363v-46.867c-0.007813-4.4297-1.7188-8.6875-4.7812-11.887-3.0625-3.1992-7.2383-5.1016-11.66-5.3047v-223.75h48.273v34.59c0 1.2539 0.5 2.457 1.3867 3.3438 0.89062 0.88281 2.0938 1.3828 3.3477 1.3789zm4.7227-93.941h42.312v84.453h-42.312v-84.457zm-17.051 10.852h-40.68v-36.773zm-50.184-42.688-0.003906 42.688h-26.684v-42.688zm-221.21 42.688 185.06-41.523v41.523zm18.117 95.105c-14.047-0.011719-27.578-5.2891-37.918-14.793-10.344-9.5-16.742-22.539-17.934-36.535h111.69c-1.1914 13.992-7.5898 27.031-17.93 36.535-10.34 9.5-23.867 14.781-37.91 14.793zm2.6953 162h42.086v32.473h-42.086zm-25.77 41.969h42.086v32.52h-42.086zm51.543 32.52-0.003906-32.523h42.086v32.52zm191.11-46.867v46.867h-59.613v-46.867c0.011719-4.2773 3.4766-7.7461 7.7539-7.7539h44.102c4.2773 0.007813 7.7461 3.4766 7.7539 7.7539zm-16.434-17.211h-26.746v-223.73h26.746zm-259.21-233.21v-24.859h316.93v24.875z"/>
</svg>