<?xml version="1.0" encoding="UTF-8"?>
<!-- The Best Svg Icon site in the world: iconSvg.co, Visit us! https://iconsvg.co -->
<svg width="800px" height="800px" version="1.1" viewBox="144 144 512 512" xmlns="http://www.w3.org/2000/svg">
 <defs>
  <clipPath id="b">
   <path d="m148.09 358h503.81v293.9h-503.81z"/>
  </clipPath>
  <clipPath id="a">
   <path d="m200 148.09h400v189.91h-400z"/>
  </clipPath>
 </defs>
 <g clip-path="url(#b)">
  <path d="m620.41 358.02h-73.473v20.992h73.473c2.7852 0 5.4531 1.1055 7.4219 3.0742s3.0742 4.6367 3.0742 7.4219v230.91c0 2.7852-1.1055 5.4531-3.0742 7.4219s-4.6367 3.0742-7.4219 3.0742h-440.83c-5.7969 0-10.496-4.6992-10.496-10.496v-230.91c0-5.7969 4.6992-10.496 10.496-10.496h94.465v-20.992h-94.465c-8.3516 0-16.359 3.3164-22.266 9.2227-5.9062 5.9023-9.2227 13.914-9.2227 22.266v230.91c0 8.3516 3.3164 16.363 9.2227 22.266 5.9062 5.9062 13.914 9.2227 22.266 9.2227h440.83c8.3516 0 16.363-3.3164 22.266-9.2227 5.9062-5.9023 9.2227-13.914 9.2227-22.266v-230.91c0-8.3516-3.3164-16.363-9.2227-22.266-5.9023-5.9062-13.914-9.2227-22.266-9.2227z"/>
 </g>
 <path d="m242.56 599.42c0 2.7852 1.1055 5.4531 3.0742 7.4219s4.6367 3.0742 7.4219 3.0742h52.48v-20.992h-42.855c-2.2031-12.883-8.3516-24.77-17.594-34.012-9.2461-9.2461-21.129-15.395-34.016-17.598v-64.719c12.887-2.1992 24.77-8.3477 34.016-17.594 9.2422-9.2422 15.391-21.129 17.594-34.012h21.863c2.7812-0.003907 5.4531-1.1094 7.418-3.0781l59.902-59.898h111.11c2.7812 0 5.4492-1.1094 7.418-3.0781l34.562-34.562v37.641h20.992v-62.977c0-2.7852-1.1055-5.4531-3.0742-7.4219-1.9648-1.9688-4.6367-3.0742-7.4219-3.0742h-62.973v20.992h37.641l-31.488 31.488h-111.11c-2.7852 0-5.4531 1.1055-7.4219 3.0742l-59.902 59.902h-27.141c-5.7969 0-10.496 4.6992-10.496 10.496 0 11.133-4.4258 21.812-12.297 29.688-7.875 7.8711-18.555 12.297-29.688 12.297-5.7969 0-10.496 4.6992-10.496 10.496v83.969-0.003906c0 2.7852 1.1055 5.4531 3.0742 7.4219s4.6367 3.0742 7.4219 3.0742c11.133 0 21.812 4.4258 29.688 12.297 7.8711 7.875 12.297 18.555 12.297 29.688z"/>
 <path d="m557.44 410.5c0-2.7852-1.1055-5.4531-3.0742-7.4219s-4.6367-3.0742-7.4219-3.0742h-52.48v20.992h42.855c2.2031 12.883 8.3516 24.77 17.598 34.012 9.2422 9.2461 21.129 15.395 34.012 17.594v64.719c-12.883 2.2031-24.77 8.3516-34.012 17.598-9.2461 9.2422-15.395 21.129-17.598 34.012h-42.855v20.992h52.48c2.7852 0 5.4531-1.1055 7.4219-3.0742s3.0742-4.6367 3.0742-7.4219c0-11.133 4.4258-21.812 12.297-29.688 7.875-7.8711 18.555-12.297 29.688-12.297 2.7852 0 5.4531-1.1055 7.4219-3.0742s3.0742-4.6367 3.0742-7.4219v-83.965c0-2.7852-1.1055-5.457-3.0742-7.4219-1.9688-1.9688-4.6367-3.0742-7.4219-3.0742-11.133 0-21.812-4.4258-29.688-12.297-7.8711-7.875-12.297-18.555-12.297-29.688z"/>
 <path d="m190.08 400h20.992v20.992h-20.992z"/>
 <path d="m588.93 400h20.992v20.992h-20.992z"/>
 <path d="m588.93 588.93h20.992v20.992h-20.992z"/>
 <path d="m190.08 588.93h20.992v20.992h-20.992z"/>
 <path d="m400 609.92c27.836 0 54.531-11.059 74.215-30.742 19.688-19.684 30.742-46.379 30.742-74.219 0-27.836-11.055-54.531-30.742-74.215-19.684-19.684-46.379-30.742-74.215-30.742-27.84 0-54.535 11.059-74.219 30.742-19.684 19.684-30.742 46.379-30.742 74.215 0.03125 27.828 11.098 54.508 30.773 74.188 19.68 19.676 46.359 30.742 74.188 30.773zm0-188.93v0.003907c22.27 0 43.625 8.8438 59.371 24.594 15.75 15.746 24.594 37.102 24.594 59.371 0 22.273-8.8438 43.629-24.594 59.375-15.746 15.75-37.102 24.594-59.371 24.594s-43.629-8.8438-59.375-24.594c-15.75-15.746-24.594-37.102-24.594-59.375 0.023438-22.262 8.8789-43.602 24.621-59.344 15.742-15.742 37.086-24.598 59.348-24.621z"/>
 <g clip-path="url(#a)">
  <path d="m221.57 179.58c0-5.7969 4.6992-10.496 10.496-10.496h262.4v52.48c0 8.3516 3.3203 16.359 9.2227 22.266 5.9062 5.9062 13.918 9.2227 22.266 9.2227h20.992v-20.992h-20.992c-5.7969 0-10.496-4.6992-10.496-10.496v-37.641l62.977 62.977v90.121h20.992v-94.465c0-2.7852-1.1055-5.4531-3.0742-7.4219l-83.969-83.969c-1.9688-1.9688-4.6367-3.0742-7.4219-3.0742h-272.89c-8.3516 0-16.359 3.3164-22.266 9.2227s-9.2227 13.914-9.2227 22.266v157.44h20.992z"/>
 </g>
 <path d="m253.05 200.57h104.96v20.992h-104.96z"/>
 <path d="m253.05 242.56h20.992v20.992h-20.992z"/>
 <path d="m295.04 242.56h20.992v20.992h-20.992z"/>
</svg>