<?xml version="1.0" encoding="UTF-8"?>
<!-- The Best Svg Icon site in the world: iconSvg.co, Visit us! https://iconsvg.co -->
<svg fill="#000000" width="800px" height="800px" version="1.1" viewBox="144 144 512 512" xmlns="http://www.w3.org/2000/svg">
 <g>
  <path d="m349.54 448.66h21.316c2.7188 0 4.9258-2.2031 4.9258-4.9258 0-2.7266-2.2031-4.9258-4.9258-4.9258h-16.395v-8.9844c0-2.7188-2.2031-4.9258-4.9258-4.9258-2.7266 0-4.9258 2.2031-4.9258 4.9258v9.4883c-12.117 2.3281-21.312 13.035-21.312 25.879 0 14.551 11.77 26.383 26.238 26.383 9.0391 0 16.395 7.418 16.395 16.531 0 9.1172-7.3555 16.535-16.395 16.535h-21.312c-2.7188 0-4.9258 2.2031-4.9258 4.9258 0 2.7266 2.2031 4.9258 4.9258 4.9258h16.391v8.9766c0 2.7188 2.2031 4.9258 4.9258 4.9258 2.7266 0 4.9258-2.2031 4.9258-4.9258v-9.4805c12.117-2.3281 21.316-13.035 21.316-25.887 0-14.547-11.773-26.379-26.242-26.379-9.0391 0-16.391-7.418-16.391-16.535 0.003906-9.1094 7.3516-16.527 16.391-16.527z"/>
  <path d="m520.73 436.45c-45.812 0-83.09 37.512-83.09 83.617 0 46.113 37.277 83.621 83.09 83.621 45.816 0 83.094-37.512 83.094-83.621 0-46.109-37.277-83.617-83.094-83.617zm0 157.39c-40.387 0-73.238-33.094-73.238-73.773 0-40.676 32.852-73.77 73.238-73.77 40.391 0 73.242 33.09 73.242 73.77 0 40.68-32.855 73.773-73.242 73.773z"/>
  <path d="m520.73 413.59c-6.5547 0-13.145 0.65625-19.637 1.8789-10.367-16.258-23.652-30.648-39.594-42.762-28.613-21.887-48.27-50.582-56.855-82.988l-0.046875-0.16797c5.543-1.3711 9.9297-5.5586 11.637-10.965l24.324 11.926c6.2109 3.0547 9.4414 9.9258 7.8555 16.711-2.4922 10.629 2.1406 21.461 11.527 26.949l29.891 17.48c0.78516 0.45703 1.6367 0.67578 2.4844 0.67578 1.6914 0 3.3398-0.87109 4.2578-2.4375 1.3711-2.3477 0.58594-5.3594-1.7617-6.7422l-29.891-17.48c-5.6328-3.293-8.4141-9.8047-6.9141-16.199 2.6406-11.281-2.7461-22.711-13.109-27.797l-21.891-10.73 21.578-11.359c6.1172-3.2227 13.48-1.7578 17.945 3.5352 7.0391 8.3477 18.477 11.043 28.449 6.6797l31.719-13.84c2.4922-1.0938 3.6367-3.9883 2.5508-6.4844-1.0898-2.4922-3.9805-3.6328-6.4844-2.5508l-31.727 13.844c-5.9414 2.6016-12.777 0.99219-16.977-4-7.4727-8.8672-19.844-11.297-30.066-5.8984l-23.82 12.539c-1.9414-5.8906-7.0898-10.27-13.402-11.078l43.602-71.387c0.92578-1.5234 0.96094-3.4258 0.089844-4.9766-0.87109-1.5508-2.5156-2.5156-4.2969-2.5156h-50.148c-9.3438 0-18.129 3.6641-24.73 10.309-4.7344 4.7773-11.035 7.4023-17.734 7.4023s-13.004-2.625-17.746-7.4023c-6.6016-6.6562-15.387-10.32-24.734-10.32h-50.148c-1.7773 0-3.4258 0.96094-4.2969 2.5156-0.87109 1.5508-0.83594 3.457 0.089844 4.9766l43.602 71.387c-8.0352 1.0391-14.293 7.8477-14.293 16.164v5.2148c0 7.6719 5.3242 14.082 12.461 15.852l-0.046875 0.17578c-8.5781 32.406-28.242 61.098-56.844 82.969-40.766 31.004-64.16 76.773-64.16 125.59 0 81.527 63.488 128.29 174.19 128.29 42.777 0 80.504-7.4805 109.51-21.547 18.219 13.871 40.641 21.547 63.598 21.547 58.355 0 105.84-47.785 105.84-106.52 0-58.695-47.48-106.45-105.84-106.45zm-213.66-230.3c6.6992 0 13.004 2.625 17.746 7.4023 6.6055 6.6445 15.387 10.309 24.73 10.309 9.3398 0 18.121-3.6641 24.727-10.309 4.7344-4.7773 11.039-7.4023 17.738-7.4023h41.367l-42.031 68.82h-83.613l-42.031-68.82zm-15.188 90.406v-5.2148c0-3.5977 2.9219-6.5234 6.5234-6.5234h102.27c3.5977 0 6.5234 2.9219 6.5234 6.5234v5.2148c0 3.5977-2.9219 6.5234-6.5234 6.5234h-2.2227c-0.050781 0-0.097656-0.023438-0.14453-0.023438l-97.539-0.003906c-0.050782 0-0.097657 0.019532-0.14453 0.023438h-2.2227c-3.5977-0.003906-6.5234-2.9258-6.5234-6.5195zm55.738 343.01c-49.414 0-164.34-11.539-164.34-118.43 0-45.699 21.973-88.621 60.289-117.75 30.359-23.215 51.242-53.746 60.387-88.266l0.58594-2.1797h89.984l0.57812 2.1758c9.1484 34.531 30.027 65.059 60.402 88.289 14.07 10.699 25.961 23.242 35.422 37.336-0.38281 0.10938-0.74609 0.26562-1.1289 0.38281-1.2227 0.37891-2.418 0.81641-3.6211 1.2383-1.5859 0.55469-3.1758 1.1094-4.7188 1.7383-1.1953 0.48438-2.3594 1.0195-3.5273 1.543-1.5078 0.67578-3.0039 1.3555-4.4688 2.1016-1.1484 0.58594-2.2656 1.2031-3.3945 1.8281-1.4258 0.78906-2.8398 1.5938-4.2227 2.4492-1.0938 0.67578-2.168 1.3789-3.2344 2.0977-1.3438 0.89844-2.6719 1.8125-3.9688 2.7695-1.0391 0.76562-2.0508 1.5508-3.0625 2.3516-1.2539 0.99609-2.4883 2.0195-3.6992 3.0742-0.97266 0.84766-1.9297 1.707-2.8711 2.5898-1.1641 1.0898-2.3008 2.207-3.4141 3.3516-0.90625 0.92578-1.7969 1.8594-2.6641 2.8164-1.0742 1.1797-2.1055 2.3867-3.1289 3.6133-0.82812 0.99219-1.6484 1.9883-2.4375 3.0117-0.97656 1.2656-1.9102 2.5586-2.8281 3.8633-0.74609 1.0547-1.4844 2.1055-2.1914 3.1875-0.875 1.3438-1.6992 2.7188-2.5156 4.1016-0.65625 1.1094-1.3164 2.207-1.9297 3.3359-0.77734 1.4219-1.4805 2.875-2.1914 4.3359-0.55859 1.1484-1.1367 2.2891-1.6562 3.4609-0.66406 1.5-1.2539 3.0312-1.8477 4.5664-0.45703 1.1797-0.94531 2.3477-1.3672 3.543-0.55469 1.5938-1.0234 3.2148-1.5 4.832-0.35156 1.1836-0.74219 2.3516-1.0469 3.5508-0.44141 1.7188-0.78516 3.4648-1.1484 5.2109-0.23828 1.1367-0.51953 2.2617-0.71484 3.4102-0.33594 1.9531-0.55469 3.9453-0.78125 5.9297-0.10938 0.96875-0.27734 1.9258-0.36328 2.9023-0.25781 2.9727-0.39453 5.9766-0.39453 8.9961 0 1.9609 0.058594 3.9062 0.16016 5.8438 0.035156 0.63672 0.10156 1.2656 0.14453 1.8945 0.089843 1.3008 0.1875 2.6055 0.32812 3.8945 0.082031 0.75 0.19141 1.4961 0.28906 2.2422 0.15234 1.1641 0.30078 2.3242 0.48828 3.4766 0.13281 0.79688 0.28906 1.5859 0.43359 2.3828 0.20312 1.0898 0.40625 2.1758 0.64453 3.2539 0.17578 0.8125 0.37109 1.6172 0.57031 2.4297 0.25 1.0469 0.51562 2.0898 0.80078 3.1289 0.22266 0.8125 0.45703 1.6211 0.70703 2.4297 0.30859 1.0117 0.625 2.0234 0.95703 3.0273 0.26562 0.80469 0.54297 1.6133 0.83594 2.4102 0.35938 0.98828 0.73047 1.9648 1.1133 2.9414 0.3125 0.78906 0.625 1.5781 0.95703 2.3633 0.40625 0.96875 0.83984 1.9258 1.2812 2.875 0.35156 0.76953 0.69922 1.543 1.0742 2.3008 0.46484 0.94531 0.95312 1.8789 1.4414 2.8125 0.39453 0.74609 0.77734 1.4961 1.1836 2.2305 0.52344 0.94141 1.0781 1.8594 1.6328 2.7852 0.41797 0.69922 0.82031 1.4102 1.2578 2.1055 0.62109 0.98438 1.2734 1.9414 1.9258 2.9023 0.41406 0.60938 0.80078 1.2305 1.2305 1.832 1.0664 1.5117 2.1797 2.9961 3.332 4.457 0.45703 0.58594 0.95703 1.1445 1.4258 1.7188 0.73438 0.89062 1.4609 1.7891 2.2266 2.6562 0.57812 0.65625 1.1875 1.2891 1.7852 1.9297 0.70703 0.76172 1.4023 1.5273 2.125 2.2656 0.63672 0.64453 1.293 1.2695 1.9492 1.9062 0.54297 0.52734 1.0664 1.0742 1.6289 1.5938-27.121 12.156-61.91 18.559-101.2 18.559zm173.11 0c-21.746 0-43.02-7.5312-59.922-21.23-22.914-18.398-36.059-45.891-36.059-75.434 0-11.23 1.9766-22.129 5.6133-32.312 4.5508-12.73 11.703-24.348 20.859-34.098 12.816-13.648 29.562-23.633 48.594-27.887 6.8867-1.5312 13.926-2.3008 20.914-2.3008 52.926 0 95.984 43.336 95.984 96.605-0.003907 53.293-43.059 96.656-95.984 96.656z"/>
  <path d="m520.73 486.36h19.191c2.7188 0 4.9258-2.2031 4.9258-4.9258 0-2.7188-2.2031-4.9258-4.9258-4.9258l-14.27-0.003907v-7.5898c0-2.7188-2.2031-4.9258-4.9258-4.9258-2.7188 0-4.9258 2.2031-4.9258 4.9258v8.1133c-10.938 2.293-19.184 12.055-19.184 23.723 0 13.367 10.816 24.242 24.117 24.242 7.8633 0 14.262 6.4531 14.262 14.391 0 7.9336-6.3984 14.391-14.262 14.391h-19.191c-2.7188 0-4.9258 2.2031-4.9258 4.9258 0 2.7266 2.2031 4.9258 4.9258 4.9258h14.262v7.5938c0 2.7188 2.2031 4.9258 4.9258 4.9258 2.7188 0 4.9258-2.2031 4.9258-4.9258v-8.1133c10.941-2.293 19.191-12.055 19.191-23.73 0-13.367-10.816-24.242-24.117-24.242-7.8633 0-14.262-6.4531-14.262-14.391 0-7.9258 6.3984-14.383 14.262-14.383z"/>
  <path d="m300.19 579.45c-0.53516-0.023438-53.758-3.0742-76.164-48.352-21.508-43.449 6.4844-86.57 6.7656-86.996 1.5-2.2656 0.88672-5.3242-1.3789-6.8281-2.2617-1.5117-5.3164-0.89844-6.8203 1.3672-1.3008 1.9492-31.473 48.199-7.3945 96.828 24.953 50.418 82.105 53.707 84.523 53.82 0.082031 0.003907 0.16016 0.003907 0.24219 0.003907 2.6094 0 4.793-2.0547 4.918-4.6914 0.125-2.707-1.9688-5.0195-4.6914-5.1523z"/>
 </g>
</svg>