<?xml version="1.0" encoding="UTF-8"?>
<!-- The Best Svg Icon site in the world: iconSvg.co, Visit us! https://iconsvg.co -->
<svg fill="#000000" width="800px" height="800px" version="1.1" viewBox="144 144 512 512" xmlns="http://www.w3.org/2000/svg">
 <g>
  <path d="m613.34 585.91h-7.4688v-236.09c0-1.2812-0.51172-2.5117-1.418-3.418-0.91016-0.90625-2.1406-1.4141-3.4219-1.4102h-84.535v-64.66c0-2.668-2.1641-4.832-4.832-4.832h-35.898c-1.668-25.898-16.461-49.148-39.211-61.641-22.75-12.492-50.305-12.492-73.055 0-22.75 12.492-37.539 35.742-39.211 61.641h-35.957c-2.668 0-4.8281 2.1641-4.8281 4.832v64.68h-84.539c-2.6602 0-4.8203 2.1484-4.8281 4.8086v236.09h-7.4805c-2.5859 0.11719-4.6211 2.2461-4.6211 4.8359 0 2.5898 2.0352 4.7188 4.6211 4.8359h426.68c2.5859-0.11719 4.625-2.2461 4.625-4.8359 0-2.5898-2.0391-4.7188-4.625-4.8359zm-17.152-231.24v231.24h-79.703v-231.24zm-196.19-140.57c17.57 0 34.418 6.9766 46.844 19.398s19.406 29.273 19.406 46.844c0.003906 17.57-6.9766 34.418-19.402 46.844-12.422 12.422-29.273 19.402-46.844 19.402-17.57-0.003906-34.418-6.9844-46.84-19.406-12.426-12.426-19.402-29.277-19.398-46.848 0.019531-17.559 7.0039-34.395 19.422-46.812 12.418-12.414 29.25-19.398 46.812-19.422zm-196.19 140.59h79.703v231.24h-79.703zm152.96 231.24-0.003907-63.902h86.453v63.871zm96.129 0-0.003906-68.715c0.003906-1.2812-0.50391-2.5156-1.4102-3.4219-0.90625-0.91016-2.1367-1.418-3.4219-1.418h-96.137c-1.2812 0-2.5117 0.50781-3.418 1.418-0.90625 0.90625-1.4141 2.1406-1.4141 3.4219v68.703h-53.922v-300.74h31.055c1.6719 25.902 16.461 49.152 39.211 61.645 22.75 12.488 50.305 12.488 73.055 0 22.75-12.492 37.539-35.742 39.211-61.645h31.086v300.74z"/>
  <path d="m223.86 391.61h37.207-0.003906c2.5859-0.11719 4.625-2.2461 4.625-4.8359 0-2.5898-2.0391-4.7188-4.625-4.8359h-37.203c-1.3203-0.0625-2.6094 0.42188-3.5664 1.3359-0.95312 0.91406-1.4961 2.1758-1.4961 3.5 0 1.3203 0.54297 2.5859 1.4961 3.5 0.95703 0.91016 2.2461 1.3945 3.5664 1.3359z"/>
  <path d="m261.02 420.91h-37.156c-1.3203-0.0625-2.6094 0.42188-3.5664 1.3359-0.95312 0.91406-1.4961 2.1758-1.4961 3.5 0 1.3203 0.54297 2.5859 1.4961 3.5 0.95703 0.91016 2.2461 1.3945 3.5664 1.3359h37.207-0.003906c2.5859-0.11719 4.625-2.25 4.625-4.8359 0-2.5898-2.0391-4.7227-4.625-4.8359z"/>
  <path d="m261.02 459.89h-37.156c-1.3203-0.0625-2.6094 0.42188-3.5664 1.3359-0.95312 0.91406-1.4961 2.1758-1.4961 3.5 0 1.3203 0.54297 2.5859 1.4961 3.5 0.95703 0.91016 2.2461 1.3945 3.5664 1.3359h37.207-0.003906c2.5859-0.11719 4.625-2.25 4.625-4.8359 0-2.5898-2.0391-4.7227-4.625-4.8359z"/>
  <path d="m261.02 498.86h-37.156c-2.6758 0-4.8438 2.168-4.8438 4.8438 0 2.6719 2.168 4.8398 4.8438 4.8398h37.207-0.003906c2.6758 0 4.8438-2.168 4.8438-4.8398 0-2.6758-2.168-4.8438-4.8438-4.8438z"/>
  <path d="m261.02 537.84h-37.156c-2.6758 0-4.8438 2.168-4.8438 4.8438 0 2.6719 2.168 4.8398 4.8438 4.8398h37.207-0.003906c2.6758 0 4.8438-2.168 4.8438-4.8398 0-2.6758-2.168-4.8438-4.8438-4.8438z"/>
  <path d="m537.76 391.61h37.207c1.3203 0.058593 2.6055-0.42578 3.5625-1.3359 0.95703-0.91406 1.4961-2.1797 1.4961-3.5 0-1.3242-0.53906-2.5859-1.4961-3.5-0.95703-0.91406-2.2422-1.3984-3.5625-1.3359h-37.207c-2.5859 0.11719-4.6211 2.2461-4.6211 4.8359 0 2.5898 2.0352 4.7188 4.6211 4.8359z"/>
  <path d="m537.76 430.58h37.207c1.3203 0.058594 2.6055-0.42578 3.5625-1.3359 0.95703-0.91406 1.4961-2.1797 1.4961-3.5 0-1.3242-0.53906-2.5859-1.4961-3.5-0.95703-0.91406-2.2422-1.3984-3.5625-1.3359h-37.207c-2.5859 0.11328-4.6211 2.2461-4.6211 4.8359 0 2.5859 2.0352 4.7188 4.6211 4.8359z"/>
  <path d="m537.76 469.56h37.207c1.3203 0.058594 2.6055-0.42578 3.5625-1.3359 0.95703-0.91406 1.4961-2.1797 1.4961-3.5 0-1.3242-0.53906-2.5859-1.4961-3.5-0.95703-0.91406-2.2422-1.3984-3.5625-1.3359h-37.207c-2.5859 0.11328-4.6211 2.2461-4.6211 4.8359 0 2.5859 2.0352 4.7188 4.6211 4.8359z"/>
  <path d="m537.76 508.54h37.207c2.6719 0 4.8398-2.168 4.8398-4.8398 0-2.6758-2.168-4.8438-4.8398-4.8438h-37.207c-2.6719 0-4.8398 2.168-4.8398 4.8438 0 2.6719 2.168 4.8398 4.8398 4.8398z"/>
  <path d="m574.95 537.84h-37.188c-2.6719 0-4.8398 2.168-4.8398 4.8438 0 2.6719 2.168 4.8398 4.8398 4.8398h37.207c2.6719 0 4.8398-2.168 4.8398-4.8398 0-2.6758-2.168-4.8438-4.8398-4.8438z"/>
  <path d="m351.93 466.43h-31.715c-1.3203-0.0625-2.6055 0.42187-3.5625 1.3359-0.95703 0.91406-1.4961 2.1758-1.4961 3.5 0 1.3203 0.53906 2.5859 1.4961 3.5 0.95703 0.91406 2.2422 1.3945 3.5625 1.3359h31.715c1.3203 0.058594 2.6094-0.42187 3.5625-1.3359 0.95703-0.91406 1.4961-2.1797 1.4961-3.5 0-1.3242-0.53906-2.5859-1.4961-3.5-0.95313-0.91406-2.2422-1.3984-3.5625-1.3359z"/>
  <path d="m479.78 466.43h-31.715c-1.3203-0.0625-2.6055 0.42187-3.5625 1.3359-0.95703 0.91406-1.4961 2.1758-1.4961 3.5 0 1.3203 0.53906 2.5859 1.4961 3.5 0.95703 0.91406 2.2422 1.3945 3.5625 1.3359h31.715c1.3203 0.058594 2.6094-0.42187 3.5625-1.3359 0.95703-0.91406 1.4961-2.1797 1.4961-3.5 0-1.3242-0.53906-2.5859-1.4961-3.5-0.95312-0.91406-2.2422-1.3984-3.5625-1.3359z"/>
  <path d="m351.93 420.91h-31.715c-1.3203-0.0625-2.6055 0.42188-3.5625 1.3359-0.95703 0.91406-1.4961 2.1758-1.4961 3.5 0 1.3203 0.53906 2.5859 1.4961 3.5 0.95703 0.91016 2.2422 1.3945 3.5625 1.3359h31.715c1.3203 0.058594 2.6094-0.42578 3.5625-1.3359 0.95703-0.91406 1.4961-2.1797 1.4961-3.5 0-1.3242-0.53906-2.5859-1.4961-3.5-0.95313-0.91406-2.2422-1.3984-3.5625-1.3359z"/>
  <path d="m479.78 420.91h-31.715c-1.3203-0.0625-2.6055 0.42188-3.5625 1.3359-0.95703 0.91406-1.4961 2.1758-1.4961 3.5 0 1.3203 0.53906 2.5859 1.4961 3.5 0.95703 0.91016 2.2422 1.3945 3.5625 1.3359h31.715c1.3203 0.058594 2.6094-0.42578 3.5625-1.3359 0.95703-0.91406 1.4961-2.1797 1.4961-3.5 0-1.3242-0.53906-2.5859-1.4961-3.5-0.95312-0.91406-2.2422-1.3984-3.5625-1.3359z"/>
  <path d="m415.86 420.91h-31.723c-2.5859 0.11328-4.625 2.2461-4.625 4.8359 0 2.5859 2.0391 4.7188 4.625 4.8359h31.723c2.5859-0.11719 4.625-2.25 4.625-4.8359 0-2.5898-2.0391-4.7227-4.625-4.8359z"/>
  <path d="m351.93 381.93h-31.715c-1.3203-0.0625-2.6055 0.42188-3.5625 1.3359-0.95703 0.91406-1.4961 2.1758-1.4961 3.5 0 1.3203 0.53906 2.5859 1.4961 3.5 0.95703 0.91016 2.2422 1.3945 3.5625 1.3359h31.715c1.3203 0.058593 2.6094-0.42578 3.5625-1.3359 0.95703-0.91406 1.4961-2.1797 1.4961-3.5 0-1.3242-0.53906-2.5859-1.4961-3.5-0.95313-0.91406-2.2422-1.3984-3.5625-1.3359z"/>
  <path d="m479.78 381.93h-31.715c-1.3203-0.0625-2.6055 0.42188-3.5625 1.3359-0.95703 0.91406-1.4961 2.1758-1.4961 3.5 0 1.3203 0.53906 2.5859 1.4961 3.5 0.95703 0.91016 2.2422 1.3945 3.5625 1.3359h31.715c1.3203 0.058593 2.6094-0.42578 3.5625-1.3359 0.95703-0.91406 1.4961-2.1797 1.4961-3.5 0-1.3242-0.53906-2.5859-1.4961-3.5-0.95312-0.91406-2.2422-1.3984-3.5625-1.3359z"/>
  <path d="m415.86 381.93h-31.723c-2.5859 0.11719-4.625 2.2461-4.625 4.8359 0 2.5898 2.0391 4.7188 4.625 4.8359h31.723c2.5859-0.11719 4.625-2.2461 4.625-4.8359 0-2.5898-2.0391-4.7188-4.625-4.8359z"/>
  <path d="m415.86 466.43h-31.723c-2.5859 0.11719-4.625 2.2461-4.625 4.8359s2.0391 4.7188 4.625 4.8359h31.723c2.5859-0.11719 4.625-2.2461 4.625-4.8359s-2.0391-4.7188-4.625-4.8359z"/>
  <path d="m395.65 319.18v4.4883-0.003906c0 2.4023 1.9492 4.3516 4.3516 4.3516s4.3477-1.9492 4.3477-4.3516v-4.4883 0.003906c7.875-1.4492 14.496-6.7539 17.629-14.125 3.1328-7.3711 2.3555-15.82-2.0664-22.496-4.4258-6.6758-11.902-10.684-19.91-10.672-4.4766 0-8.5078-2.6953-10.219-6.8281-1.7148-4.1328-0.76562-8.8906 2.3984-12.051 3.1602-3.1641 7.918-4.1094 12.051-2.3984 4.1328 1.7109 6.8281 5.7461 6.8281 10.219 0.10938 2.3242 2.0273 4.1523 4.3555 4.1523 2.3242 0 4.2422-1.8281 4.3516-4.1523-0.007813-4.4844-1.5391-8.8281-4.3398-12.328-2.8008-3.4961-6.707-5.9414-11.078-6.9297v-4.5859c0-2.4023-1.9453-4.3477-4.3477-4.3477s-4.3516 1.9453-4.3516 4.3477v4.5859c-6.3438 1.4727-11.559 5.9766-13.938 12.043-2.3789 6.0625-1.6133 12.91 2.0391 18.305 3.6562 5.3945 9.7344 8.6406 16.25 8.6758 4.0156 0 7.8672 1.5977 10.707 4.4375 2.8398 2.8398 4.4336 6.6914 4.4336 10.707 0 4.0195-1.5938 7.8711-4.4336 10.711-2.8398 2.8398-6.6914 4.4336-10.707 4.4336-4.0195 0-7.8711-1.5938-10.711-4.4336-2.8398-2.8398-4.4336-6.6914-4.4336-10.711 0.054687-1.1914-0.37891-2.3516-1.1992-3.2148-0.82422-0.86328-1.9648-1.3516-3.1562-1.3516s-2.332 0.48828-3.1523 1.3516c-0.82422 0.86328-1.2578 2.0234-1.2031 3.2148 0.011719 5.5703 1.9648 10.957 5.5273 15.238 3.5586 4.2812 8.5039 7.1797 13.977 8.2031z"/>
 </g>
</svg>