<?xml version="1.0" encoding="UTF-8"?>
<!-- The Best Svg Icon site in the world: iconSvg.co, Visit us! https://iconsvg.co -->
<svg fill="#000000" width="800px" height="800px" version="1.1" viewBox="144 144 512 512" xmlns="http://www.w3.org/2000/svg">
 <g>
  <path d="m565.31 211.07c8.4375 0 16.23-4.5 20.449-11.809 4.2188-7.3086 4.2188-16.309 0-23.617-4.2188-7.3047-12.012-11.809-20.449-11.809h-330.62c-8.4375 0-16.234 4.5039-20.453 11.809-4.2188 7.3086-4.2188 16.309 0 23.617 4.2188 7.3086 12.016 11.809 20.453 11.809v94.465h-7.875c-4.3477 0-7.8711 3.5234-7.8711 7.8711s3.5234 7.8711 7.8711 7.8711h7.8711l0.003906 157.44h-7.875c-4.3477 0-7.8711 3.5234-7.8711 7.8711s3.5234 7.8711 7.8711 7.8711h7.8711l0.003906 94.465c-8.4375 0-16.234 4.5039-20.453 11.809-4.2188 7.3086-4.2188 16.309 0 23.617 4.2188 7.3047 12.016 11.809 20.453 11.809h330.62c8.4375 0 16.23-4.5039 20.449-11.809 4.2188-7.3086 4.2188-16.309 0-23.617-4.2188-7.3047-12.012-11.809-20.449-11.809h-7.875v-94.465h15.746c4.3477 0 7.8711-3.5234 7.8711-7.8711s-3.5234-7.8711-7.8711-7.8711h-15.746v-157.44h15.746c4.3477 0 7.8711-3.5234 7.8711-7.8711s-3.5234-7.8711-7.8711-7.8711h-15.746v-94.465zm-338.5-23.617c0-4.3477 3.5273-7.8711 7.875-7.8711h330.62c4.3477 0 7.8711 3.5234 7.8711 7.8711s-3.5234 7.8711-7.8711 7.8711h-330.62c-4.3477 0-7.875-3.5234-7.875-7.8711zm346.37 425.09c0 2.0898-0.82812 4.0898-2.3047 5.5664-1.4766 1.4766-3.4805 2.3047-5.5664 2.3047h-330.62c-4.3477 0-7.875-3.5234-7.875-7.8711 0-4.3477 3.5273-7.8711 7.875-7.8711h330.62c2.0859 0 4.0898 0.82812 5.5664 2.3047 1.4766 1.4766 2.3047 3.4805 2.3047 5.5664zm-31.488-23.617h-291.27v-94.465h291.27zm0-110.21h-291.27v-157.44h291.27zm0-173.18h-291.27v-94.465h291.27z"/>
  <path d="m368.51 439.66c3.9375 7.0469 12.594 15.438 31.488 15.438s27.551-8.3906 31.488-15.438c16.688-29.852-20.469-91.922-24.789-98.895-1.5312-2.1797-4.0312-3.4766-6.6914-3.4766-2.6641 0-5.1602 1.2969-6.6914 3.4766-4.3398 6.9727-41.504 69.047-24.805 98.895zm31.488-78.91c12.816 23.992 25.578 57.246 17.75 71.227-1.0156 1.8672-4.1172 7.3789-17.75 7.3789s-16.734-5.5117-17.75-7.375c-7.8281-13.984 4.9336-47.234 17.75-71.227z"/>
 </g>
</svg>