<?xml version="1.0" encoding="UTF-8"?>
<!-- The Best Svg Icon site in the world: iconSvg.co, Visit us! https://iconsvg.co -->
<svg fill="#000000" width="800px" height="800px" version="1.1" viewBox="144 144 512 512" xmlns="http://www.w3.org/2000/svg">
 <g>
  <path d="m274.81 289.36c6.7812 3.3789 14.031 5.0977 21.559 5.0977 18.477 0 35.074-10.27 43.324-26.793 11.906-23.859 2.1758-52.969-21.703-64.891-6.7773-3.3711-14.02-5.082-21.543-5.082-18.484 0-35.086 10.27-43.332 26.789-5.7695 11.566-6.6875 24.688-2.5898 36.945 4.1016 12.25 12.723 22.168 24.285 27.934zm-8.168-58.137c5.6641-11.359 17.086-18.418 29.801-18.418 5.1602 0 10.148 1.1797 14.801 3.4961 16.418 8.1953 23.109 28.215 14.93 44.613-5.6719 11.367-17.094 18.43-29.801 18.43-5.1602 0-10.148-1.1797-14.812-3.5117-7.9492-3.9609-13.879-10.781-16.695-19.207-2.8242-8.4297-2.1914-17.445 1.7773-25.402z"/>
  <path d="m507.1 294.46c7.5273 0 14.781-1.7148 21.555-5.0977 11.562-5.7617 20.188-15.684 24.285-27.938 4.1016-12.258 3.1797-25.375-2.5898-36.945-8.2422-16.523-24.844-26.789-43.328-26.789-7.5234 0-14.777 1.7148-21.555 5.0898-23.867 11.914-33.605 41.02-21.699 64.887 8.2578 16.523 24.859 26.789 43.332 26.793zm-14.879-78.152c4.6641-2.3242 9.6445-3.5 14.809-3.5 12.711 0 24.133 7.0586 29.801 18.426 3.9648 7.9492 4.6016 16.973 1.7852 25.402-2.8203 8.4219-8.7461 15.246-16.695 19.211-4.6641 2.3281-9.6484 3.5078-14.809 3.5078-12.707 0-24.129-7.0625-29.801-18.426-8.1953-16.418-1.5-36.43 14.91-44.621z"/>
  <path d="m612.18 245.84c-2.4219-4.8672-6.6094-8.5-11.75-10.211-5.1641-1.7383-10.68-1.3516-15.547 1.0742-4.8711 2.4297-8.5039 6.6094-10.23 11.773-6.3242 18.914-18.121 34.207-33.227 43.055-15.582 9.1328-33.273 10.797-51.172 4.8125-35.633-11.922-51.883-49.352-38.629-89.008 3.5664-10.637-2.1953-22.199-12.855-25.773-5.1445-1.7188-10.66-1.3281-15.531 1.0938-4.8711 2.4297-8.5039 6.6094-10.223 11.766-15.891 47.539-11.098 90.816 12.676 117.06l-5.2148 14.426c-6.1445-0.77734-12.395-1.2227-18.746-1.2227-5.8633 0-11.645 0.37891-17.332 1.043l-6.3672-14.516c23.562-26.27 28.27-69.418 12.43-116.8-3.5625-10.641-15.129-16.398-25.77-12.852-10.629 3.5703-16.398 15.129-12.852 25.766 6.3281 18.918 6.1016 38.234-0.64062 54.387-6.9531 16.668-20.082 28.641-37.977 34.625-35.625 11.898-71.133-8.207-84.398-47.867-1.7266-5.1641-5.3594-9.3438-10.23-11.773-4.8711-2.4219-10.387-2.8047-15.523-1.0781-5.1602 1.7188-9.3398 5.3438-11.77 10.207-2.4297 4.8672-2.8164 10.395-1.0898 15.551 15.781 47.176 45.301 78.746 79.742 85.75l6.7656 43.684c0.074219 0.48828 0.30859 0.89844 0.46875 1.3438-15.355 23.41-24.32 51.375-24.32 81.406 0 82.09 66.781 148.88 148.87 148.88 82.09 0 148.88-66.789 148.88-148.88 0-31.199-9.668-60.176-26.137-84.125l8.7656-42.25c34.555-6.8828 64.207-38.496 80.031-85.805 1.7148-5.1523 1.332-10.676-1.0938-15.543zm-328.14 93.562c-0.51953-3.3438-3.1953-5.9336-6.5547-6.3438-30.934-3.7852-58.207-32.371-72.953-76.469-0.44141-1.3281-0.34375-2.7539 0.28125-4.0039s1.6914-2.1758 3.0391-2.625c1.3242-0.45312 2.7461-0.35156 3.9883 0.27734 1.2539 0.625 2.1953 1.7031 2.6367 3.0391 16.047 47.961 59.59 72.109 103.53 57.41 43.949-14.695 64.199-60.176 48.164-108.13-0.91797-2.7422 0.57422-5.7266 3.3086-6.6445 2.7695-0.91797 5.7266 0.57812 6.6406 3.3164 14.746 44.098 10.152 83.34-12.293 104.96-2.2773 2.1953-2.9492 5.5781-1.6758 8.4805l6.8828 15.695c-31.32 7.0469-58.922 23.992-79.363 47.367zm21.684 61.461c0 8.4883-6.9062 15.395-15.402 15.395l-9.4258 0.003906c4.8281-10.148 10.898-19.594 18.012-28.137 4.1562 2.8203 6.8164 7.5703 6.8164 12.738zm-30.895 30.512h15.492c16.828 0 30.516-13.688 30.516-30.512 0-9.4219-4.5-18.098-11.598-23.789 24.035-23.055 56.617-37.266 92.48-37.266 23.859 0 46.27 6.3086 65.684 17.305h-12.531c-17.738 0-32.184 14.305-32.449 31.98-6.6562-1.5664-13.562-2.4805-20.691-2.4805-49.898 0-90.496 40.598-90.496 90.496 0 10.988 2.0664 21.484 5.6719 31.23-6.0625-7.4531-15.277-12.246-25.613-12.246h-21.387c-1.25-7.332-1.9336-14.848-1.9336-22.523 0-14.742 2.4258-28.922 6.8555-42.195zm258.87 20.473h-25.391c-3.0312 0-5.7734 1.8086-6.957 4.6055-1.1836 2.793-0.58594 6.0156 1.5156 8.1953 2.8008 2.9023 4.3359 6.6875 4.3359 10.652 0 5.5273-2.9336 10.5-7.8477 13.305-2.3477 1.3398-3.7969 3.8359-3.8086 6.5391-0.011719 2.707 1.4258 5.2031 3.7617 6.5586 4.9414 2.8672 7.8906 7.7891 7.8906 13.176 0 8.3438-7.2383 15.395-15.805 15.395h-16.461c0.46484-0.62891 0.86328-1.3008 1.3086-1.9453 0.32812-0.48047 0.64844-0.96094 0.97266-1.4492 1.3164-1.9844 2.5508-4.0117 3.6992-6.082 0.16797-0.3125 0.34766-0.60938 0.51953-0.92188 2.7188-5.0391 4.9531-10.305 6.6562-15.766 0.058594-0.17969 0.10547-0.36719 0.15625-0.55078 0.73438-2.4141 1.3672-4.8672 1.8945-7.3438 0.14062-0.67578 0.27734-1.3594 0.40234-2.0391 0.39844-2.0977 0.72656-4.207 0.96875-6.3398 0.097656-0.75391 0.19531-1.5 0.27344-2.2656 0.25781-2.8008 0.42969-5.6172 0.42969-8.4648 0-2.7422-0.16797-5.4609-0.41406-8.1719-0.070312-0.73438-0.14062-1.4609-0.22656-2.1914-0.27734-2.3711-0.625-4.7266-1.082-7.0625-0.066407-0.32422-0.10547-0.65625-0.16797-0.97266-0.52344-2.5078-1.1836-4.9844-1.918-7.4414-0.23828-0.79688-0.5-1.582-0.75-2.3672-0.62109-1.8789-1.3047-3.7344-2.0391-5.5703-0.25781-0.62891-0.48438-1.2695-0.75-1.8906-0.97656-2.2734-2.0664-4.5078-3.2344-6.707-0.38281-0.71484-0.78906-1.4062-1.1875-2.1055-0.49219-0.86328-0.94531-1.7383-1.4609-2.5859 1.0117-3.7266 3.3008-7.0898 6.5-9.457 2.6211-1.9414 3.6914-5.3438 2.6758-8.4375-1.0234-3.0977-3.9141-5.1875-7.1797-5.1875l-22.188 0.003906c-0.26172-0.21094-0.54297-0.39453-0.80469-0.59766-1.5-1.1953-3.0312-2.3477-4.5938-3.4414-0.96875-0.67578-1.9648-1.3164-2.957-1.9492-1.1484-0.73438-2.3125-1.4414-3.4922-2.1211-1.0273-0.59766-2.0508-1.2109-3.1094-1.7695-1.832-0.96875-3.7031-1.8789-5.6055-2.7188-0.47266-1.5781-0.71094-3.168-0.71094-4.7617 0-9.5742 7.7891-17.359 17.359-17.359h34.008c23.297 20.047 39.625 47.965 44.812 79.605zm-71.91 70.621c-0.69531 0.91016-1.3398 1.8477-2.0742 2.7305-0.54297 0.65625-1.1523 1.2578-1.7227 1.8945-1.1016 1.2344-2.1953 2.4727-3.3789 3.6484-13.617 13.426-32.289 21.738-52.879 21.738-41.562 0-75.379-33.816-75.379-75.379s33.816-75.379 75.379-75.379c9.875 0 19.285 1.9609 27.938 5.4258 1.5352 0.61328 3.0391 1.3086 4.5195 2.0234 0.5625 0.27344 1.1445 0.53516 1.6992 0.82031 1.3516 0.68359 2.6602 1.4258 3.9648 2.1914 0.64062 0.37891 1.2734 0.76172 1.9062 1.1602 1.25 0.78516 2.4805 1.6016 3.6836 2.4648 0.57813 0.41797 1.1484 0.85156 1.7188 1.2852 1.2227 0.93359 2.4375 1.875 3.6133 2.8828 6.8008 5.8438 12.559 12.848 16.934 20.746 0.36719 0.67188 0.69531 1.3594 1.043 2.0352 0.66016 1.2734 1.2891 2.5586 1.8672 3.875 0.34766 0.78125 0.67969 1.5703 1.0039 2.3633 0.5625 1.4062 1.082 2.8359 1.5703 4.2812 0.21094 0.63672 0.45313 1.2578 0.64453 1.8984 0.62109 2.0312 1.1523 4.0977 1.5977 6.1953 0.13281 0.62109 0.22656 1.2539 0.34375 1.8789 0.3125 1.6484 0.5625 3.3047 0.76172 4.9883 0.085937 0.67578 0.16016 1.3516 0.22656 2.0312 0.20312 2.2578 0.34375 4.5273 0.34375 6.8359 0 2.5938-0.13281 5.1602-0.38672 7.6836-0.015624 0.12109-0.046874 0.24219-0.054687 0.36328-1.4883 13.934-6.8398 26.695-14.883 37.316zm-135.58 4.3633h-1.9609c-0.10156-1.4297-0.31641-2.8203-0.59375-4.1953 0.83203 1.418 1.6523 2.8359 2.5547 4.1953zm-52.809-15.629h17.895c9.8789 0 17.922 8.0352 17.922 17.914 0 1.1992-0.13281 2.4492-0.40234 3.7266-0.46484 2.2266 0.10156 4.543 1.5352 6.3125 1.4375 1.7617 3.5938 2.793 5.8633 2.793h22.535c8.1562 7.9297 17.781 14.344 28.445 18.766-1.6172 6.6445-7.5781 11.613-14.711 11.613h-40.863c-17.84-16.289-31.238-37.344-38.219-61.125zm128.32 96.133c-25.684 0-49.688-7.2891-70.078-19.891h20.836c13.891 0 25.59-9.4062 29.156-22.172 6.4727 1.4766 13.18 2.3281 20.094 2.3281 22.98 0 43.922-8.6797 59.898-22.844 1.9062 0.38672 3.7969 0.62891 5.6992 0.62891h24.078c17.051 0 30.918-13.688 30.918-30.512 0-7.2617-2.7344-14.242-7.4805-19.699 4.7461-5.4609 7.4805-12.504 7.4805-19.879 0-2.8516-0.39844-5.6523-1.1641-8.3398h14.172c0.10547 2.1914 0.16797 4.3945 0.16797 6.6055-0.011718 73.766-60.02 133.77-133.78 133.77zm197.2-350.74c-14.746 44.094-42.02 72.68-72.945 76.465-3.2188 0.39453-5.8242 2.793-6.4844 5.9648l-7.2461 34.918c-20.02-22.191-46.621-38.309-76.691-45.328l5.9414-16.426c1.0195-2.8047 0.28906-5.9453-1.8594-8.0117-22.441-21.625-27.035-60.863-12.289-104.97 0.44141-1.3242 1.375-2.4023 2.6289-3.0273 1.25-0.62891 2.6641-0.73438 3.9883-0.29297 2.75 0.92578 4.2422 3.9062 3.3203 6.6445-16.035 47.961 4.2227 93.438 48.168 108.13 21.828 7.3047 44.43 5.1406 63.605-6.1016 18.258-10.699 32.434-28.922 39.922-51.309 0.44141-1.3359 1.3789-2.4141 2.6367-3.0391 1.2461-0.625 2.6641-0.72656 4.0117-0.27344 1.3242 0.44141 2.3984 1.3711 3.0234 2.625 0.625 1.2734 0.71875 2.6914 0.26953 4.0273z"/>
  <path d="m413.86 471.97-17.055-5.6289c-2.625-0.83984-13.266-4.6289-12.137-15.156 0.42969-4.0156 1.6055-7.1094 4.8164-9.2148 2.625-1.6836 5.8633-2.5234 9.7383-2.5234 6.5664 0 11.023 1.1016 13.949 4.8867 1.5977 2.1914 2.1211 3.793 2.5586 7.582 0 0 0.51953 6.2383 7.9922 6.2383 7.4766 0 8.6211-5.9414 8.7695-7.0117 0.66406-4.8516-1.9766-12.973-5.6523-17.789-4.2383-5.5625-10.254-8.9219-17.547-10.363v-7.7422c0-4.1758-3.3867-7.5586-7.5586-7.5586s-7.5586 3.3789-7.5586 7.5586v7.3438c-8.7305 1.1289-15.391 4.6602-19.891 10.672-3.9336 5.3008-10.508 15.508-3.7695 33.16 5.8047 15.23 33.512 20.094 33.512 20.094 5.1758 1.2578 15.07 3.25 15.09 15.18 0.011718 4.625-2.8477 13.598-17.609 13.598-6.8516 0-16.637-3.0312-16.637-15.488 0 0 0.11719-6.5039-8-6.5039-8.1016 0-8.7305 6.5039-8.7305 6.5039 0 8.2461 1.1797 14.047 5.4922 19.688 6.4531 8.5352 14.379 11.516 20.539 12.551v6.9062c0 4.1758 3.3867 7.5586 7.5586 7.5586s7.5586-3.3789 7.5586-7.5586v-6.9688c19.316-3.3594 26.562-21.242 26.562-32.566-0.003906-8.2383-3-20.906-21.992-27.445z"/>
 </g>
</svg>