<?xml version="1.0" encoding="UTF-8"?>
<!-- The Best Svg Icon site in the world: iconSvg.co, Visit us! https://iconsvg.co -->
<svg fill="#000000" width="800px" height="800px" version="1.1" viewBox="144 144 512 512" xmlns="http://www.w3.org/2000/svg">
 <g>
  <path d="m419.42 362.02c24.957 0 48.891-9.9141 66.539-27.562 17.648-17.648 27.562-41.582 27.562-66.539 0-24.957-9.9141-48.895-27.562-66.539-17.648-17.648-41.582-27.562-66.539-27.562s-48.895 9.9141-66.539 27.562c-17.648 17.645-27.562 41.582-27.562 66.539 0.027344 24.949 9.9492 48.867 27.594 66.508 17.641 17.645 41.559 27.566 66.508 27.594zm0-84.887c-10.574 0.007813-20.461-5.2422-26.379-14.008s-7.0898-19.898-3.1289-29.703c3.957-9.8047 12.531-17 22.875-19.199v-8.0703c0-3.2578 2.6445-5.9023 5.9062-5.9023 3.2617 0 5.9023 2.6445 5.9023 5.9023v7.7969c7.4336 1.2383 14.188 5.0664 19.062 10.812 4.875 5.7422 7.5547 13.027 7.5664 20.562 0 3.2617-2.6445 5.9062-5.9062 5.9062-3.2617 0-5.9023-2.6445-5.9023-5.9062 0-5.3008-2.1055-10.387-5.8555-14.137s-8.8359-5.8594-14.141-5.8594c-5.3008 0-10.387 2.1055-14.137 5.8555s-5.8594 8.8359-5.8594 14.141c0 5.3008 2.1094 10.387 5.8555 14.137 3.75 3.75 8.8359 5.8594 14.141 5.8594 10.746-0.003906 20.766 5.4219 26.637 14.422 5.875 9 6.8047 20.355 2.4766 30.191-4.332 9.832-13.332 16.816-23.938 18.562v8.5312c0 3.2578-2.6406 5.9023-5.9023 5.9023-3.2617 0-5.9062-2.6445-5.9062-5.9023v-8.8008c-7.1172-1.5273-13.496-5.4492-18.078-11.105-4.5781-5.6602-7.082-12.719-7.0938-20 0-3.2578 2.6445-5.9023 5.9062-5.9023 3.2617 0 5.9023 2.6445 5.9023 5.9023 0 5.3047 2.1094 10.391 5.8594 14.141s8.8359 5.8555 14.137 5.8555c5.3047 0 10.391-2.1055 14.141-5.8555 3.7461-3.75 5.8555-8.8359 5.8555-14.141 0-5.3008-2.1094-10.387-5.8594-14.137s-8.832-5.8555-14.137-5.8555z"/>
  <path d="m381.3 396.06h24.602v48.215h-24.602z"/>
  <path d="m394.09 457.07h24.602v48.215h-24.602z"/>
  <path d="m417.71 396.06h24.602v48.215h-24.602z"/>
  <path d="m417.71 518.08h24.602v47.23h-24.602z"/>
  <path d="m321.28 457.07h24.602v48.215h-24.602z"/>
  <path d="m357.69 457.07h24.602v48.215h-24.602z"/>
  <path d="m305.54 518.08h27.551v47.23h-27.551z"/>
  <path d="m430.5 457.07h24.602v48.215h-24.602z"/>
  <path d="m344.89 396.06h24.602v48.215h-24.602z"/>
  <path d="m344.89 518.08h24.602v47.23h-24.602z"/>
  <path d="m381.3 518.08h24.602v47.23h-24.602z"/>
  <path d="m357.69 578.1h24.602v48.215h-24.602z"/>
  <path d="m466.91 578.1h27.551v48.215h-27.551z"/>
  <path d="m394.09 578.1h24.602v48.215h-24.602z"/>
  <path d="m430.5 578.1h24.602v48.215h-24.602z"/>
  <path d="m490.53 518.08h27.551v47.23h-27.551z"/>
  <path d="m490.53 396.06h27.551v48.215h-27.551z"/>
  <path d="m321.28 578.1h24.602v48.215h-24.602z"/>
  <path d="m466.91 457.07h27.551v48.215h-27.551z"/>
  <path d="m454.12 518.08h24.602v47.23h-24.602z"/>
  <path d="m454.12 396.06h24.602v48.215h-24.602z"/>
  <path d="m305.54 396.06h27.551v48.215h-27.551z"/>
  <path d="m281.92 578.1h27.551v48.215h-27.551z"/>
  <path d="m281.92 457.07h27.551v48.215h-27.551z"/>
 </g>
</svg>