<?xml version="1.0" encoding="UTF-8"?>
<!-- The Best Svg Icon site in the world: iconSvg.co, Visit us! https://iconsvg.co -->
<svg fill="#000000" width="800px" height="800px" version="1.1" viewBox="144 144 512 512" xmlns="http://www.w3.org/2000/svg">
 <g>
  <path d="m628.29 163.84h-456.58c-4.3477 0-7.875 3.5273-7.875 7.875v31.488c0 2.0859 0.83203 4.0898 2.3086 5.5664 1.4766 1.4766 3.4766 2.3047 5.5664 2.3047h7.8711v377.86h-7.8711c-4.3477 0-7.875 3.5273-7.875 7.875v31.488c0 2.0859 0.83203 4.0898 2.3086 5.5664 1.4766 1.4727 3.4766 2.3047 5.5664 2.3047h456.58c2.0859 0 4.0898-0.83203 5.5664-2.3047 1.4727-1.4766 2.3047-3.4805 2.3047-5.5664v-31.488c0-2.0898-0.83203-4.0898-2.3047-5.5664-1.4766-1.4766-3.4805-2.3086-5.5664-2.3086h-7.875v-377.86h7.875c2.0859 0 4.0898-0.82812 5.5664-2.3047 1.4727-1.4766 2.3047-3.4805 2.3047-5.5664v-31.488c0-2.0898-0.83203-4.0898-2.3047-5.5664-1.4766-1.4766-3.4805-2.3086-5.5664-2.3086zm-417.22 47.234v47.23h-15.746v-47.23zm78.719 0v47.23h-62.977v-47.23zm31.488 0v47.23h-15.742v-47.23zm141.7 0v47.23h-125.95v-47.23zm31.488 0v47.23h-15.746v-47.23zm78.719 0v47.23h-62.977v-47.23zm-62.977 377.86v-47.23h62.977v47.23zm-31.488 0v-47.23h15.742v47.23zm-44.082 0c9.8672-2.0977 19.406-5.5391 28.34-10.23v10.23zm-129.1 0v-47.23h15.742v47.23zm-78.723 0v-47.23h62.977v47.23zm236.16-28.59h0.003906c-18.848 11.719-40.809 17.434-62.977 16.391-22.168 1.043-44.133-4.6719-62.977-16.391v-18.641h125.95zm-125.95-34.387v-118.08h125.95v118.08zm62.977-153.9v0.003907c17.992 0.83203 35.129 7.9336 48.441 20.07h-96.887c13.312-12.133 30.449-19.234 48.445-20.07zm62.977 11.996v0.003906c-6.8516-6.3789-14.426-11.926-22.57-16.531 8.5-3.0625 16.211-7.9844 22.57-14.406zm-34.125-29.66h-0.003906c2.4766-4.6133 3.7852-9.7656 3.8203-15.004 0-4.3477-3.5234-7.8711-7.8711-7.8711s-7.875 3.5234-7.875 7.8711c0 6.0469-3.2227 11.637-8.4609 14.66-5.2383 3.0234-11.688 3.0234-16.926 0-5.2344-3.0234-8.4609-8.6133-8.4609-14.66 0-4.3477-3.5234-7.8711-7.8711-7.8711s-7.875 3.5234-7.875 7.8711c0.035156 5.2383 1.3438 10.391 3.8203 15.004-8.9648-1.7031-17.129-6.2734-23.262-13.027-6.1328-6.7539-9.9023-15.32-10.738-24.402-0.42578-5.25 1.3398-10.445 4.8711-14.352 2.7852-3.1211 6.7617-4.9141 10.945-4.9414h0.085937c3.7305-0.078124 7.332 1.3594 9.9883 3.9805 2.8359 2.9219 4.3789 6.8594 4.2891 10.926 0 4.3477 3.5273 7.875 7.875 7.875s7.8711-3.5273 7.8711-7.875c0.71484-5.5273 4.0898-10.359 9.0352-12.938 4.9414-2.5781 10.836-2.5781 15.781 0 4.9414 2.5781 8.3164 7.4102 9.0312 12.938 0 4.3477 3.5273 7.875 7.875 7.875s7.8711-3.5273 7.8711-7.875c-0.089844-4.0664 1.4531-8.0039 4.2891-10.926 2.6562-2.6211 6.2578-4.0586 9.9883-3.9805h0.097657c4.1797 0.027344 8.1523 1.8242 10.934 4.9414 3.5352 3.9062 5.2969 9.1016 4.8711 14.352-0.83594 9.082-4.6055 17.648-10.738 24.402s-14.297 11.324-23.262 13.027zm-69.273 13.113-0.003906 0.003906c-8.1406 4.6094-15.711 10.16-22.551 16.547v-30.938c6.3633 6.4141 14.074 11.332 22.574 14.391zm-38.301 158.45h-15.742v-118.08h15.742zm157.44-118.08h15.742v118.08h-15.742zm0-15.742v-118.08h15.742v118.08zm-15.742-105.49c-4.7422-3.0234-10.234-4.6602-15.855-4.7227h-0.17578c-7.8867-0.066407-15.48 3.0156-21.094 8.5586-0.53516 0.54297-1.0547 1.0938-1.5742 1.668-6.4141-6.5117-15.172-10.18-24.309-10.18-9.1406 0-17.898 3.668-24.309 10.18-0.48828-0.57422-1.0078-1.125-1.5742-1.668h-0.003907c-5.5977-5.5273-13.164-8.6055-21.031-8.5586h-0.16797c-5.625 0.058593-11.117 1.6953-15.859 4.7227v-12.594h125.95zm-141.7 105.48h-15.742v-118.08h15.742zm-31.488 0h-62.977v-118.08h62.977zm-78.719 0h-15.746v-118.08h15.746zm-15.746 15.746h15.746v118.08h-15.746zm31.488 0h62.977v118.08h-62.977zm110.21 170.82c8.9336 4.6914 18.469 8.1328 28.34 10.23h-28.34zm173.18-52.746v-118.08h62.977v118.08zm78.719-118.08h15.742l0.003906 118.08h-15.746zm15.742-15.742-15.742-0.003906v-118.08h15.742zm-31.488 0-62.973-0.003906v-118.08h62.977zm-377.86 149.57h15.746v47.23h-15.746zm425.09 78.719h-440.83v-15.742h440.83zm-31.488-31.488v-47.23h15.742v47.23zm15.742-330.62h-15.742v-47.23h15.742zm15.742-62.977h-440.83v-15.742h440.83z"/>
  <path d="m547.38 419.14-0.89062-0.92969c-2.9883-3.1602-7.9727-3.2969-11.129-0.30859-3.1602 2.9883-3.2969 7.9727-0.30859 11.133l0.96094 1.0078c3.4023 3.5352 4.8945 5.2656 4.8945 9.3203 0 4.3477 3.5273 7.8711 7.875 7.8711s7.8711-3.5234 7.8711-7.8711c-0.050782-7.7578-3.4297-15.121-9.2734-20.223z"/>
  <path d="m536.02 370.97c3.3945 3.5273 4.8867 5.2578 4.8867 9.2969 0 4.3477 3.5273 7.875 7.875 7.875s7.8711-3.5273 7.8711-7.875c-0.046875-7.7539-3.4297-15.117-9.2812-20.207-3.3945-3.5273-4.8867-5.2578-4.8867-9.2969s1.4961-5.7617 4.8867-9.2891c5.8516-5.0859 9.2305-12.445 9.2812-20.199 0-4.3477-3.5234-7.8711-7.8711-7.8711s-7.875 3.5234-7.875 7.8711c0 4.0312-1.4961 5.7617-4.8867 9.2891-5.8906 5.0586-9.2812 12.438-9.2812 20.203s3.3906 15.145 9.2812 20.203z"/>
  <path d="m263.98 419.14-0.89062-0.92969h0.003906c-2.9922-3.1602-7.9727-3.2969-11.133-0.30859-3.1602 2.9883-3.2969 7.9727-0.30859 11.133l0.96094 1.0078c3.4023 3.5352 4.8945 5.2656 4.8945 9.3203h0.003906c0 4.3477 3.5234 7.8711 7.8711 7.8711 4.3477 0 7.8711-3.5234 7.8711-7.8711-0.050781-7.7578-3.4258-15.121-9.2734-20.223z"/>
  <path d="m252.62 370.97c3.3945 3.5273 4.8867 5.2578 4.8867 9.2969h0.003906c0 4.3477 3.5234 7.875 7.8711 7.875 4.3477 0 7.8711-3.5273 7.8711-7.875-0.046874-7.7539-3.4258-15.117-9.2812-20.207-3.3945-3.5273-4.8867-5.2578-4.8867-9.2969s1.4961-5.7617 4.8867-9.2891c5.8516-5.0859 9.2344-12.445 9.2812-20.199 0-4.3477-3.5234-7.8711-7.8711-7.8711-4.3477 0-7.8711 3.5234-7.8711 7.8711 0 4.0312-1.4961 5.7617-4.8867 9.2891h-0.003906c-5.8906 5.0586-9.2812 12.438-9.2812 20.203s3.3906 15.145 9.2812 20.203z"/>
  <path d="m400 462.98c-3.1836 0-6.0547-1.918-7.2734-4.8633-1.2188-2.9414-0.54687-6.3242 1.707-8.5781 2.25-2.25 5.6367-2.9219 8.5781-1.707 2.9414 1.2188 4.8594 4.0898 4.8594 7.2734 0 4.3477 3.5234 7.875 7.8711 7.875 4.3477 0 7.8711-3.5273 7.8711-7.875-0.019531-4.8672-1.543-9.6094-4.3594-13.574-2.8203-3.9688-6.793-6.9688-11.383-8.5938v-1.4453c0-4.3477-3.5234-7.875-7.8711-7.875s-7.875 3.5273-7.875 7.875v1.4492-0.003906c-7.0547 2.4844-12.508 8.1719-14.699 15.324-2.1914 7.1523-0.85547 14.918 3.5977 20.93 4.4531 6.0078 11.496 9.5469 18.977 9.5312 3.1836 0 6.0547 1.918 7.2695 4.8594 1.2188 2.9414 0.54688 6.3281-1.7031 8.5781-2.2539 2.2539-5.6406 2.9258-8.582 1.707s-4.8594-4.0898-4.8594-7.2734c0-4.3477-3.5234-7.8711-7.8711-7.8711s-7.8711 3.5234-7.8711 7.8711c0.019532 4.8672 1.543 9.6094 4.3633 13.578 2.8164 3.9688 6.793 6.9688 11.379 8.5898v1.4492c0 4.3477 3.5273 7.8711 7.875 7.8711s7.8711-3.5234 7.8711-7.8711v-1.4492c7.0547-2.4844 12.512-8.1719 14.699-15.324 2.1914-7.1484 0.85547-14.918-3.5977-20.926-4.4531-6.0078-11.496-9.5469-18.973-9.5312z"/>
 </g>
</svg>