<?xml version="1.0" encoding="UTF-8"?>
<!-- The Best Svg Icon site in the world: iconSvg.co, Visit us! https://iconsvg.co -->
<svg width="800px" height="800px" version="1.1" viewBox="144 144 512 512" xmlns="http://www.w3.org/2000/svg">
 <defs>
  <clipPath id="c">
   <path d="m462 148.09h175v173.91h-175z"/>
  </clipPath>
  <clipPath id="b">
   <path d="m148.09 337h503.81v314.9h-503.81z"/>
  </clipPath>
  <clipPath id="a">
   <path d="m163 148.09h174v173.91h-174z"/>
  </clipPath>
 </defs>
 <g clip-path="url(#c)">
  <path d="m485.32 280.86c3.7461-2.1875 5.0156-6.9922 2.8398-10.746-11.844-20.457-12.715-45.473-2.3242-66.707 10.395-21.23 30.68-35.891 54.102-39.09s46.898 5.4805 62.605 23.148c15.703 17.668 21.574 42 15.652 64.887-5.9258 22.887-22.863 41.316-45.168 49.145-22.305 7.832-47.043 4.0352-65.973-10.129-3.4805-2.6055-8.4141-1.9023-11.02 1.5742-2.6094 3.4805-1.9062 8.4141 1.5742 11.023 23.086 17.324 53.289 22.004 80.535 12.484 27.25-9.5234 47.961-31.996 55.234-59.93 7.2734-27.934 0.14844-57.652-18.996-79.254-19.148-21.602-47.797-32.242-76.402-28.375-28.605 3.8672-53.402 21.734-66.125 47.641-12.723 25.91-11.703 56.453 2.7266 81.453 2.1758 3.7539 6.9766 5.0391 10.738 2.875z"/>
 </g>
 <path d="m549.8 258.3h-16.203c-4.3477 0-7.8711 3.5273-7.8711 7.875 0 4.3477 3.5234 7.8711 7.8711 7.8711h16.203c8.4375-0.082031 16.188-4.6602 20.336-12.008 4.1484-7.3477 4.0625-16.348-0.22656-23.613s-12.129-11.691-20.566-11.613c-4.3477 0-7.875-3.5234-7.875-7.8711s3.5273-7.8711 7.875-7.8711h16.199c4.3477 0 7.8711-3.5234 7.8711-7.8711 0-4.3477-3.5234-7.875-7.8711-7.875h-16.199c-8.4375 0.082031-16.191 4.6602-20.34 12.008-4.1484 7.3477-4.0586 16.352 0.23047 23.617 4.2891 7.2656 12.129 11.691 20.566 11.609 4.3477 0 7.8711 3.5234 7.8711 7.8711 0 4.3477-3.5234 7.8711-7.8711 7.8711z"/>
 <g clip-path="url(#b)">
  <path d="m644.03 337.02h-188.93c-4.3477 0-7.8711 3.5234-7.8711 7.8711v31.488c0 6.2617 2.4883 12.27 6.918 16.699 4.4297 4.4297 10.434 6.918 16.699 6.918h70.848v15.742c0 2.0898-0.82812 4.0898-2.3047 5.5664-1.4766 1.4766-3.4805 2.3047-5.5664 2.3047h-103.46c-2.3047-9.0664-8.543-16.625-17.004-20.617-8.4648-3.9883-18.266-3.9883-26.727 0-8.4648 3.9922-14.699 11.551-17.008 20.617h-103.45c-4.3477 0-7.875-3.5234-7.875-7.8711v-15.742h70.848c6.2656 0 12.273-2.4883 16.699-6.918 4.4297-4.4297 6.918-10.438 6.918-16.699v-31.488c0-2.0898-0.82812-4.0898-2.3047-5.5664-1.4766-1.4766-3.4805-2.3047-5.5664-2.3047h-188.93c-4.3477 0-7.8711 3.5234-7.8711 7.8711v31.488c0 6.2617 2.4883 12.27 6.918 16.699 4.4297 4.4297 10.434 6.918 16.699 6.918h70.848v15.742c0 6.2656 2.4883 12.27 6.918 16.699 4.4258 4.4297 10.434 6.918 16.699 6.918h103.45c2.0625 7.9414 7.1484 14.762 14.168 19.004l-26.309 88.969c-1.2344 4.168 1.1445 8.5508 5.3164 9.7852 4.168 1.2344 8.5469-1.1445 9.7852-5.3164l26.348-88.953c0.37109 0 0.71484 0.10938 1.0859 0.10938 0.37109 0 0.71484-0.09375 1.0859-0.10938l51.324 173.31h-104.87l15.672-52.867v-0.003907c1.2383-4.168-1.1406-8.5469-5.3125-9.7852-4.168-1.2344-8.5508 1.1445-9.7852 5.3164l-18.664 62.977c-0.70312 2.3789-0.24609 4.9531 1.2422 6.9453 1.4844 1.9883 3.8242 3.1602 6.3086 3.1602h125.95c2.4805 0 4.8203-1.1719 6.3047-3.1602 1.4883-1.9922 1.9492-4.5664 1.2422-6.9453l-54.316-183.42c7.0234-4.25 12.105-11.074 14.16-19.02h103.46c6.2617 0 12.27-2.4883 16.699-6.918 4.4258-4.4297 6.9141-10.434 6.9141-16.699v-15.742h70.852c6.2617 0 12.27-2.4883 16.695-6.918 4.4297-4.4297 6.918-10.438 6.918-16.699v-31.488c0-2.0898-0.82812-4.0898-2.3047-5.5664-1.4766-1.4766-3.4805-2.3047-5.5664-2.3047zm-480.2 39.359v-23.617h173.19v23.617c0 2.0859-0.83203 4.0898-2.3086 5.5664-1.4727 1.4766-3.4766 2.3047-5.5664 2.3047h-157.44c-4.3477 0-7.875-3.5234-7.875-7.8711zm236.16 39.359h0.003906c5.0508 0.003906 9.7969 2.4375 12.742 6.543 2.9492 4.1055 3.7383 9.375 2.125 14.164-1.6133 4.7891-5.4336 8.5078-10.262 9.9961h-0.16406-0.003906c-0.050781 0.03125-0.10156 0.058594-0.15625 0.085938-1.3867 0.43359-2.8281 0.66797-4.2812 0.69922-1.4492-0.019531-2.8867-0.24219-4.2773-0.66016-0.0625 0-0.10156-0.070312-0.16406-0.09375-0.0625-0.023437-0.10938 0-0.17188 0-4.8672-1.4609-8.7266-5.1836-10.359-9.9922-1.6328-4.8086-0.83594-10.113 2.1367-14.23 2.9727-4.1211 7.7539-6.5469 12.836-6.5117zm236.16-39.359h0.003906c0 2.0859-0.83203 4.0898-2.3047 5.5664-1.4766 1.4766-3.4805 2.3047-5.5664 2.3047h-157.44c-4.3477 0-7.8711-3.5234-7.8711-7.8711v-23.617h173.18z"/>
 </g>
 <g clip-path="url(#a)">
  <path d="m186.19 280.86c3.7461-2.1875 5.0156-6.9922 2.8398-10.746-11.828-20.438-12.691-45.426-2.3086-66.637 10.383-21.207 30.648-35.848 54.047-39.043 23.398-3.1953 46.848 5.4766 62.535 23.129 15.691 17.648 21.555 41.953 15.637 64.816-5.9141 22.859-22.832 41.27-45.109 49.098-22.281 7.8242-46.996 4.0352-65.906-10.109-3.4805-2.6055-8.4141-1.9023-11.023 1.5742-2.6055 3.4805-1.9023 8.4141 1.5781 11.023 23.066 17.285 53.227 21.941 80.434 12.418 27.203-9.5234 47.879-31.977 55.129-59.875 7.25-27.898 0.12109-57.574-19.004-79.137s-47.742-32.184-76.305-28.312c-28.562 3.8672-53.324 21.711-66.027 47.586-12.699 25.875-11.68 56.375 2.7305 81.34 2.1758 3.7656 6.9883 5.0508 10.754 2.875z"/>
 </g>
 <path d="m250.66 258.3h-16.203c-4.3477 0-7.8711 3.5273-7.8711 7.875 0 4.3477 3.5234 7.8711 7.8711 7.8711h16.203c8.4336-0.082031 16.188-4.6602 20.336-12.008 4.1484-7.3477 4.0625-16.348-0.22656-23.613-4.2891-7.2656-12.129-11.691-20.566-11.613-4.3477 0-7.875-3.5234-7.875-7.8711s3.5273-7.8711 7.875-7.8711h16.199c4.3477 0 7.8711-3.5234 7.8711-7.8711 0-4.3477-3.5234-7.875-7.8711-7.875h-16.199c-8.4375 0.082031-16.191 4.6602-20.34 12.008-4.1484 7.3477-4.0586 16.352 0.23047 23.617s12.129 11.691 20.566 11.609c4.3477 0 7.8711 3.5234 7.8711 7.8711 0 4.3477-3.5234 7.8711-7.8711 7.8711z"/>
</svg>