<?xml version="1.0" encoding="UTF-8"?>
<!-- The Best Svg Icon site in the world: iconSvg.co, Visit us! https://iconsvg.co -->
<svg fill="#000000" width="800px" height="800px" version="1.1" viewBox="144 144 512 512" xmlns="http://www.w3.org/2000/svg">
 <g>
  <path d="m478.72 250.43c0 4.3477-3.5234 7.8711-7.8711 7.8711s-7.8711-3.5234-7.8711-7.8711c0-4.3477 3.5234-7.8711 7.8711-7.8711s7.8711 3.5234 7.8711 7.8711"/>
  <path d="m426.57 265.48c-5.3555 16.176-5.7812 33.578-1.2227 49.992 4.5625 16.418 13.906 31.105 26.84 42.199 3.6562 2.9297 5.4609 7.5977 4.7227 12.223l-6.1406 33.371c-0.046876 0.26953 0 0.54297-0.070313 0.78906 0 0.13281-0.125 0.23437-0.14844 0.37109l-0.003907-0.003906c-0.027343 0.36328-0.027343 0.72656 0 1.0859-1.1719 8.6562 0.75 17.449 5.4336 24.82s11.828 12.848 20.16 15.461c3.2539 0.94141 6.625 1.4258 10.012 1.4414 8.4688 0.007812 16.672-2.957 23.184-8.3711 6.5117-5.4141 10.918-12.938 12.453-21.266l6.4453-35h0.003907c0.91016-4.3281 4.0859-7.8242 8.3047-9.1484 27.93-9.8477 48.809-33.406 55.23-62.316 6.418-28.91-2.5234-59.09-23.66-79.84-21.133-20.746-51.473-29.125-80.262-22.168-28.789 6.957-51.953 28.266-61.281 56.375zm81.16 141.5-40.25-7.4141 1-5.4141 40.25 7.4141zm37.934-151.6h0.003906c12.68 15.5 19.027 35.227 17.766 55.215-1.0781 14.855-5.8633 32.754-18.828 41.723-5.9258 4.1016-13.273 5.3203-19.332 9.1641l-0.003906-0.003906c-5.9492 3.7227-10.27 9.5586-12.098 16.336-0.15625 0.62891-0.30078 1.2578-0.41797 1.8984l-1.1719 6.3516-40.25-7.4141 1.0859-5.9102v-0.003907c0.87891-4.9844 0.41797-10.113-1.3359-14.863-1.7539-4.75-4.7344-8.9492-8.6367-12.168-10.566-9.0703-18.199-21.074-21.922-34.492-3.7266-13.414-3.375-27.637 1.0039-40.852 3.2852-9.9141 8.793-18.945 16.098-26.402 11.262-11.797 27.34-17.734 43.566-16.094 17.719 3.3516 33.566 13.152 44.477 27.516z"/>
  <path d="m482.3 273.44c-1.3984 7.5938 0.27734 15.438 4.6562 21.797 4.3828 6.3633 11.113 10.723 18.707 12.121 7.1211 1.4805 11.754 8.375 10.438 15.523-1.3125 7.1523-8.0977 11.945-15.277 10.793-7.2539-1.3359-12.062-8.2891-10.746-15.547 0.44531-2.0781 0.027344-4.25-1.1523-6.0156-1.1797-1.7656-3.0273-2.9844-5.1172-3.3672-2.0898-0.38672-4.2461 0.089844-5.9805 1.3164-1.7344 1.2305-2.8984 3.1094-3.2266 5.2109-1.1836 6.2344-0.26953 12.684 2.5938 18.348 2.8633 5.6602 7.5195 10.219 13.246 12.957l-1.3633 7.375c-0.78906 4.2734 2.0273 8.375 6.2969 9.1719 0.47656 0.085938 0.95703 0.13281 1.4414 0.13672 3.793-0.007813 7.043-2.7188 7.7305-6.4492l1.3555-7.3281c9.3516-0.94531 17.672-6.3477 22.344-14.504 4.6719-8.1602 5.1211-18.07 1.2031-26.613-3.918-8.5469-11.723-14.676-20.949-16.461-7.1211-1.4766-11.754-8.3711-10.438-15.523 1.3125-7.1484 8.0977-11.941 15.277-10.793 7.2578 1.3281 12.07 8.2812 10.762 15.543-0.44531 2.0781-0.027343 4.2461 1.1523 6.0156 1.1797 1.7656 3.0273 2.9805 5.1172 3.3672s4.2461-0.089844 5.9805-1.3203c1.7344-1.2266 2.8984-3.1055 3.2266-5.207 1.1836-6.2344 0.26953-12.684-2.5938-18.348s-7.5234-10.219-13.246-12.961l1.3633-7.375c0.78906-4.2734-2.0391-8.3828-6.3125-9.1719-4.2773-0.78906-8.3828 2.0391-9.1719 6.3164l-1.3633 7.3828c-6.3281 0.51562-12.312 3.1094-17.012 7.3828-4.6992 4.2734-7.8516 9.9805-8.9648 16.234z"/>
  <path d="m525.83 195.82c0.47266 0.09375 0.95312 0.13672 1.4336 0.13672 3.793-0.007812 7.043-2.7188 7.7305-6.4492l2.5664-13.934c0.78516-4.2734-2.043-8.3789-6.3164-9.168-4.2773-0.78516-8.3828 2.043-9.168 6.3203l-2.5586 13.941c-0.78125 4.2695 2.043 8.3633 6.3125 9.1523z"/>
  <path d="m436.62 180.13c-3.5703 2.4766-4.4609 7.3789-1.9844 10.949l8.0391 11.668h-0.003906c1.1602 1.7734 2.9883 3.0078 5.0703 3.418 2.082 0.40625 4.2422-0.039063 5.9883-1.2461 1.7461-1.2031 2.9336-3.0625 3.293-5.1523 0.35547-2.0898-0.14453-4.2383-1.3945-5.9531l-8.0312-11.668h0.003906c-1.1875-1.7305-3.0117-2.9141-5.0742-3.293-2.0586-0.375-4.1875 0.082031-5.9062 1.2773z"/>
  <path d="m389.95 261.05 13.02 5.582v-0.003906c3.9688 1.5859 8.4766-0.28125 10.16-4.2109 1.6797-3.9258-0.078124-8.4805-3.9648-10.258l-13.02-5.582v0.003906c-1.9297-0.88281-4.1328-0.94922-6.1094-0.1875-1.9805 0.76562-3.5664 2.2969-4.4023 4.2461-0.83203 1.9492-0.84766 4.1562-0.035157 6.1133 0.8125 1.9609 2.3828 3.5078 4.3516 4.2969z"/>
  <path d="m603.83 210.94-11.672 8.0039c-1.7227 1.1836-2.8984 3.0039-3.2773 5.0586s0.074219 4.1719 1.2617 5.8906c2.4648 3.582 7.3672 4.4844 10.949 2.0156l11.664-8.0039c3.4883-2.5 4.332-7.332 1.8984-10.863s-7.2461-4.4688-10.824-2.1016z"/>
  <path d="m606.25 305.25c0.17188 4.2227 3.6484 7.5547 7.8711 7.5508h0.32422l14.168-0.56641c4.3477-0.17578 7.7305-3.8398 7.5586-8.1875-0.17578-4.3477-3.8398-7.7305-8.1875-7.5586l-14.168 0.56641c-2.0938 0.082031-4.0664 0.99219-5.4844 2.5273-1.4219 1.5391-2.168 3.5781-2.082 5.668z"/>
  <path d="m182.43 377.08c-11.75 21.84-11.332 48.215 1.1133 69.668 9.9609 18.051 21.887 34.949 35.555 50.383 8.5469 10.426 14.789 22.543 18.312 35.555l-9.1719 33.801v0.003907c-1.7891 0.35156-3.3984 1.3164-4.5508 2.7305l-9.8242 12.094c-11.105 13.742-17.168 30.875-17.184 48.547 0 2.0859 0.82812 4.0898 2.3047 5.5664 1.4766 1.4727 3.4805 2.3047 5.5664 2.3047h149.57c3.4492-0.058594 6.4648-2.3359 7.4688-5.6367 1.6445-5.6055-3.4961-9.4453-6.9023-12.957l-15.004-15.461-9.9336-10.234 14.168-62.277 17.531 2.25v0.003906c0.39062 0.054687 0.78516 0.078125 1.1797 0.0625 3.9141 0.011719 7.7188-1.2891 10.805-3.6914 3.0859-2.4023 5.2812-5.7695 6.2305-9.5664l14.703-57.734 0.003906 0.003906c0.65625-2.582-0.035156-5.3164-1.8359-7.2734l-1.2109-1.3164 5.1797-3.5664c2.0859-1.4336 3.3555-3.7852 3.4102-6.3164 0.054688-2.5312-1.1133-4.9375-3.1367-6.4609-4.2812-3.1914-8.3555-6.6445-12.207-10.344 0.38672-3.8359 0.03125-7.7109-1.0391-11.414l-13.094-45.406c-1.3867-5.0117-4.1094-9.5586-7.8711-13.152 13.238-17.668 17.648-40.434 11.957-61.766-0.60547-2.1055-2.0664-3.8672-4.0234-4.8516-1.9609-0.98828-4.2422-1.1094-6.2969-0.34375l-89.488 33.434c-3.9922 1.4375-8.1094 2.5117-12.297 3.2109-37.359 6.793-66.508 25.051-79.988 50.152zm144.9-2.4492 23.238-6.832h0.089844c2.4336 1.5898 4.1133 4.1055 4.6523 6.9609l13.082 45.391c0.70703 2.293 0.87109 4.7148 0.48047 7.082-0.14453 0.35938-0.26562 0.72656-0.35938 1.1016l-23.734 6.8398c-1.3008 0.40234-6.4531-2.5117-12.289-9.3359v0.003906c5.3125-3.3945 8.9531-8.8711 10.016-15.086 1.0664-6.2148-0.53906-12.594-4.418-17.562-3.8789-4.9688-9.6758-8.0742-15.965-8.5469 1.2812-6.1484 3.5039-9.5273 5.2109-10.012zm-10.488 26.309c1.8164-0.96484 3.9766-1.0547 5.8711-0.25 1.8945 0.80469 3.3281 2.4219 3.8984 4.3984 0.98828 3.3828-0.76562 6.9648-4.0469 8.25l-33.852 13.383c-4.043 1.6016-6.0195 6.1797-4.418 10.223 1.6016 4.043 6.1758 6.0234 10.219 4.4219 8.2695-3.3672 17.664-2.4062 25.082 2.5586 11.133 7.6367 25.105 13.383 34.723 10.32l18.352-5.832v-0.003906c-1.8594 3-1.4805 6.8711 0.92969 9.4492l4.4648 4.8477-2.2969 9.0195h-0.003906c-1.1562-0.37109-2.2422-0.94141-3.207-1.6836-1.6328-1.2969-3.7188-1.8906-5.793-1.6523s-3.9688 1.293-5.2656 2.9297c-2.7031 3.4062-2.1289 8.3555 1.2773 11.059 2.6992 2.1211 5.7891 3.6953 9.0898 4.6367l-7.4609 29.301c-0.18359 0.74609-0.8125 1.2969-1.5742 1.3828l-54.434-6.9844-0.003906 0.003906c-4.3125-0.55078-8.2539 2.4961-8.8086 6.8086-0.55078 4.3125 2.4961 8.2578 6.8086 8.8086l5.5117 0.70703 1.4961 3.3203v0.003907c6.2539 13.902 7.8047 29.465 4.4258 44.328l-4.4102 19.398v-0.003906c-0.58984 2.5938 0.17188 5.3086 2.0234 7.2188l13.191 13.598c-19.191-5.7891-37.652-13.77-55.016-23.781l-30.773-18.344 9.582-35.305c2.1445-1.5117 4.168-3.1836 6.0547-5.0078 6.8828-7.0469 11.727-15.832 14.02-25.414 2.2891-9.582 1.9375-19.605-1.0156-29.004l-1.2891-4.4492h-0.003906c2.3906-2.3164 3.9414-5.3633 4.4102-8.6602 0.67578-4.3125-2.25-8.3633-6.5586-9.0742-2.0195-0.33594-4.0938 0.16797-5.7305 1.4023-1.6367 1.2344-2.6953 3.0859-2.9297 5.1211-2.332 0.69922-4.8516 0.4375-6.9883-0.73047-2.1406-1.168-3.7227-3.1445-4.3984-5.4844-0.67578-2.3438-0.38672-4.8594 0.80078-6.9844 1.1875-2.1289 3.1758-3.6914 5.5273-4.3477h-0.15625l7.1562-2.0391 7.3984-2.7461h-0.003906c-1.1914-4.0938-4.0586-7.4961-7.8945-9.3594z"/>
  <path d="m514.23 560.43c3.0117-5.0898 5.6445-10.398 7.8711-15.879 1.7422-4.0586 1.9688-8.6094 0.64063-12.824-1.3281-4.2148-4.125-7.8086-7.8828-10.137l-33.496-20.547 4.5977-25.914c1.1406-6.457-1.25-13.031-6.2695-17.246-5.0234-4.2148-11.91-5.4297-18.07-3.1914-6.1641 2.2422-10.66 7.5977-11.801 14.055l-5.0859 28.598-17.184 16.129c-0.15625 0.14844-0.21094 0.37109-0.35547 0.52734-0.20312 0.16797-0.40234 0.34375-0.58984 0.52734-5.9648 8.0195-7.4023 18.535-3.8086 27.859l5.9258 15.5-5.6992 29.355c-4.0039-0.30078-7.5781 2.5039-8.2422 6.4648l-3.6367 21.984c-0.69922 4.2852 2.2031 8.332 6.4883 9.0391l65.809 10.773c2.0625 0.35156 4.1758-0.13672 5.8711-1.3555 1.6992-1.2188 2.8398-3.0664 3.168-5.1289l3.6055-21.945v-0.003907c0.33594-2.0586-0.15625-4.168-1.3711-5.8633-0.99219-1.3047-2.3672-2.2578-3.9375-2.7305l4.0938-22.969v-0.003906c8.0977-2.4531 14.996-7.8242 19.359-15.074zm-48.895-88.938c0.25391-1.4219 1.6094-2.375 3.0312-2.125 1.4141 0.25781 2.3516 1.6055 2.1094 3.0234l-5.3125 29.945-0.52734 0.96094-4.1641-4.4727zm-13.664 40.934 8.4766 9.0547c0.054687 0.070312 0.125 0.13281 0.1875 0.20312l0.14062 0.14844h0.003907c1.0625 0.97656 1.1406 2.625 0.17188 3.6953-0.46094 0.51172-1.1055 0.82031-1.793 0.85547-0.69531 0.027344-1.3711-0.21484-1.8906-0.66797-0.30078-0.27734-0.62109-0.52734-0.96094-0.74609l-10.414-6.8398zm23.664 83.254-36.766-6.043 6.0156-30.961c0.28516-1.4453 0.15234-2.9414-0.37891-4.3164l-6.7305-17.602c-0.66016-1.8047-0.92969-3.7266-0.78516-5.6445l10.234 6.7227c0.34766 0.29297 0.73047 0.51172 1.0938 0.78906-1.043 5.3125-0.31641 10.82 2.0625 15.68 6.4844 10.543 16.848 18.121 28.855 21.105zm12.477-34.816c-9.625-0.76172-18.371-5.8672-23.766-13.871-0.73047-1.7383-0.91797-3.6602-0.53516-5.5117 3.3984-0.90625 6.4609-2.7734 8.8242-5.3828 2.3984-2.6523 3.9805-5.9453 4.5547-9.4766s0.11328-7.1523-1.3203-10.43l0.10156-0.1875 31 19.012v-0.003906c1.1055 0.69141 1.5391 2.0859 1.0156 3.2812-1.918 4.7578-4.1836 9.3633-6.7773 13.785-2.7305 4.8398-7.5938 8.0977-13.105 8.7852z"/>
 </g>
</svg>