<?xml version="1.0" encoding="UTF-8"?>
<!-- The Best Svg Icon site in the world: iconSvg.co, Visit us! https://iconsvg.co -->
<svg fill="#000000" width="800px" height="800px" version="1.1" viewBox="144 144 512 512" xmlns="http://www.w3.org/2000/svg">
 <g>
  <path d="m410.5 368.51h10.496c2.7812 0 5.4531-1.1055 7.4219-3.0742 1.9648-1.9688 3.0742-4.6406 3.0742-7.4219v-31.488c0-2.7852-1.1094-5.4531-3.0742-7.4219-1.9688-1.9688-4.6406-3.0742-7.4219-3.0742h-31.488v-10.496h31.488c5.7969 0 10.496-4.6992 10.496-10.496 0-5.7969-4.6992-10.496-10.496-10.496h-10.496c0-5.7969-4.6992-10.496-10.496-10.496s-10.496 4.6992-10.496 10.496h-10.496c-5.7969 0-10.496 4.6992-10.496 10.496v31.488c0 2.7812 1.1055 5.4531 3.0742 7.4219s4.6367 3.0742 7.4219 3.0742h31.488v10.496h-31.488c-5.7969 0-10.496 4.6992-10.496 10.496s4.6992 10.496 10.496 10.496h10.496c0 5.7969 4.6992 10.496 10.496 10.496s10.496-4.6992 10.496-10.496z"/>
  <path d="m599.42 485.44v-32.957c0-2.7852-1.1055-5.457-3.0742-7.4219-1.9688-1.9688-4.6367-3.0742-7.4219-3.0742h-178.43v-21.625c32.297-3.6094 60.469-23.57 74.59-52.844 14.117-29.273 12.195-63.746-5.0859-91.27-17.285-27.523-47.504-44.23-80-44.23-32.5 0-62.719 16.707-80 44.23-17.285 27.523-19.207 61.996-5.0859 91.27 14.117 29.273 42.289 49.234 74.59 52.844v21.625h-178.43c-5.7969 0-10.496 4.6992-10.496 10.496v32.957c-13.309 3.4336-24.09 13.164-28.867 26.051-4.7812 12.887-2.9492 27.293 4.8984 38.574 7.8477 11.281 20.723 18.008 34.465 18.008 13.742 0 26.617-6.7266 34.465-18.008s9.6797-25.688 4.8984-38.574c-4.7773-12.887-15.562-22.617-28.867-26.051v-22.461h167.94v22.461c-13.309 3.4336-24.09 13.164-28.871 26.051-4.7773 12.887-2.9453 27.293 4.9023 38.574s20.719 18.008 34.465 18.008c13.742 0 26.613-6.7266 34.465-18.008 7.8477-11.281 9.6758-25.688 4.8984-38.574-4.7812-12.887-15.562-22.617-28.867-26.051v-22.461h167.93v22.461c-13.305 3.4336-24.09 13.164-28.867 26.051s-2.9492 27.293 4.8984 38.574c7.8516 11.281 20.723 18.008 34.465 18.008 13.746 0 26.617-6.7266 34.465-18.008s9.6797-25.688 4.9023-38.574c-4.7812-12.887-15.562-22.617-28.871-26.051zm-272.89-158.91c0-19.488 7.7383-38.176 21.52-51.953 13.777-13.781 32.465-21.52 51.953-21.52 19.484 0 38.172 7.7383 51.953 21.52 13.777 13.777 21.52 32.465 21.52 51.953 0 19.484-7.7422 38.172-21.52 51.953-13.781 13.777-32.469 21.52-51.953 21.52-19.488 0-38.176-7.7422-51.953-21.52-13.781-13.781-21.52-32.469-21.52-51.953zm-94.465 199.42c0 5.5703-2.2109 10.91-6.1484 14.844-3.9375 3.9375-9.2773 6.1484-14.844 6.1484-5.5664 0-10.906-2.2109-14.844-6.1484-3.9375-3.9336-6.1484-9.2734-6.1484-14.844 0-5.5664 2.2109-10.906 6.1484-14.844 3.9375-3.9336 9.2773-6.1484 14.844-6.1484 5.5664 0 10.906 2.2148 14.844 6.1484 3.9375 3.9375 6.1484 9.2773 6.1484 14.844zm188.93 0c0 5.5703-2.2148 10.91-6.1484 14.844-3.9375 3.9375-9.2773 6.1484-14.844 6.1484-5.5703 0-10.91-2.2109-14.844-6.1484-3.9375-3.9336-6.1484-9.2734-6.1484-14.844 0-5.5664 2.2109-10.906 6.1484-14.844 3.9336-3.9336 9.2734-6.1484 14.844-6.1484 5.5664 0 10.906 2.2148 14.844 6.1484 3.9336 3.9375 6.1484 9.2773 6.1484 14.844zm167.94 20.992h-0.003907c-5.5664 0-10.906-2.2109-14.844-6.1484-3.9336-3.9336-6.1484-9.2734-6.1484-14.844 0-5.5664 2.2148-10.906 6.1484-14.844 3.9375-3.9336 9.2773-6.1484 14.844-6.1484 5.5703 0 10.906 2.2148 14.844 6.1484 3.9375 3.9375 6.1484 9.2773 6.1484 14.844 0 5.5703-2.2109 10.91-6.1484 14.844-3.9375 3.9375-9.2734 6.1484-14.844 6.1484z"/>
 </g>
</svg>