<?xml version="1.0" encoding="UTF-8"?>
<!-- The Best Svg Icon site in the world: iconSvg.co, Visit us! https://iconsvg.co -->
<svg fill="#000000" width="800px" height="800px" version="1.1" viewBox="144 144 512 512" xmlns="http://www.w3.org/2000/svg">
 <g>
  <path d="m179.58 478.72h62.977v141.7h-62.977z"/>
  <path d="m258.3 494.46h15.742v110.21h-15.742z"/>
  <path d="m578.61 495.8-79.27 45.738c0.30078 3.5625 0.007812 7.1562-0.86719 10.625-2.1484 8.0898-7.4531 14.98-14.719 19.129-4.75 2.793-10.16 4.2578-15.668 4.25-2.7617-0.011719-5.5156-0.38281-8.1836-1.1016l-93.914-25.109c-4.2188-1.1328-6.7188-5.4648-5.5898-9.6836s5.4648-6.7188 9.6836-5.5898l93.914 25.191c4.0117 1.1094 8.3008 0.53906 11.887-1.5742 3.6406-2.0625 6.3086-5.4961 7.4062-9.5352 1.0977-4.043 0.53125-8.3516-1.5703-11.973-2.1016-3.6211-5.5625-6.2539-9.6172-7.3047l-117.45-31.488c-6.4648-1.7422-13.27-1.7969-19.758-0.15625l-45.109 11.258v83.445l17.16 8.582 0.003906-0.003906c5.4688 2.7539 11.508 4.1836 17.633 4.1719h117.84c6.9102 0.003906 13.699-1.8125 19.68-5.2734l132.25-76.359c3.5938-2.1055 6.2109-5.5469 7.2734-9.5742s0.48438-8.3125-1.6055-11.918c-2.125-3.5469-5.5469-6.1328-9.543-7.2031-3.9961-1.0742-8.2539-0.55078-11.871 1.457z"/>
  <path d="m518.08 266.18c0-22.969-9.1211-44.992-25.363-61.23-16.238-16.242-38.262-25.363-61.227-25.363-22.969 0-44.992 9.1211-61.23 25.363-16.242 16.238-25.363 38.262-25.363 61.23 0 22.965 9.1211 44.988 25.363 61.227 16.238 16.242 38.262 25.363 61.23 25.363 22.961-0.015625 44.977-9.1406 61.211-25.379 16.238-16.234 25.363-38.25 25.379-61.211zm-157.44 0c0-18.793 7.4648-36.812 20.754-50.098 13.285-13.289 31.305-20.754 50.098-20.754 18.789 0 36.809 7.4648 50.094 20.754 13.289 13.285 20.754 31.305 20.754 50.098 0 18.789-7.4648 36.809-20.754 50.094-13.285 13.289-31.305 20.754-50.094 20.754-18.785-0.023438-36.793-7.4922-50.074-20.773-13.285-13.285-20.754-31.293-20.777-50.074z"/>
  <path d="m423.61 313.41v-7.8711c-6.2617 0-12.27-2.4883-16.699-6.918-4.4258-4.4297-6.9141-10.438-6.9141-16.699 0-4.3477 3.5234-7.8711 7.8711-7.8711s7.8711 3.5234 7.8711 7.8711c0 2.0898 0.82812 4.0898 2.3047 5.5664s3.4805 2.3047 5.5664 2.3047h15.746c4.3477 0 7.8711-3.5234 7.8711-7.8711 0-4.3477-3.5234-7.8711-7.8711-7.8711h-15.746c-8.4375 0-16.23-4.5-20.449-11.809-4.2188-7.3086-4.2188-16.309 0-23.617 4.2188-7.3047 12.012-11.809 20.449-11.809v-7.8711c0-4.3477 3.5273-7.8711 7.875-7.8711-19.688 0-37.879 10.504-47.723 27.551-9.8438 17.051-9.8438 38.055 0 55.105 9.8438 17.051 28.035 27.551 47.723 27.551-4.3477 0-7.875-3.5234-7.875-7.8711z"/>
  <path d="m439.36 218.94v7.8711c6.2617 0 12.27 2.4883 16.699 6.918 4.4297 4.4297 6.918 10.438 6.918 16.699 0 4.3477-3.5273 7.8711-7.875 7.8711-4.3477 0-7.8711-3.5234-7.8711-7.8711 0-2.0859-0.82812-4.0898-2.3047-5.5664-1.4766-1.4766-3.4805-2.3047-5.5664-2.3047h-15.746c-4.3477 0-7.8711 3.5234-7.8711 7.8711 0 4.3477 3.5234 7.8711 7.8711 7.8711h15.746c8.4375 0 16.234 4.5039 20.453 11.809 4.2188 7.3086 4.2188 16.309 0 23.617-4.2188 7.3047-12.016 11.809-20.453 11.809v7.8711c0 2.0859-0.83203 4.0898-2.3047 5.5664-1.4766 1.4766-3.4805 2.3047-5.5664 2.3047 19.684 0 37.875-10.5 47.719-27.551 9.8438-17.051 9.8438-38.055 0-55.105-9.8438-17.047-28.035-27.551-47.719-27.551 2.0859 0 4.0898 0.82813 5.5664 2.3047 1.4727 1.4766 2.3047 3.4805 2.3047 5.5664z"/>
  <path d="m573.18 274.05c2.0859 0 4.0898 0.82812 5.5664 2.3047 1.4766 1.4766 2.3047 3.4805 2.3047 5.5664v149.57h15.742l0.003906-149.57c0-4.3477 3.5234-7.8711 7.8711-7.8711h9.3828l-25.262-40.25-25.055 40.25z"/>
  <path d="m266.18 281.92v149.57h15.742v-149.57c0-4.3477 3.5234-7.8711 7.8711-7.8711h9.3828l-25.262-40.25-25.055 40.25h9.4453c2.0898 0 4.0898 0.82812 5.5664 2.3047 1.4766 1.4766 2.3086 3.4805 2.3086 5.5664z"/>
  <path d="m515.56 400.63-58.094 38.73h5.5117c11.742-0.019531 23.176-3.7891 32.633-10.754 9.457-6.9648 16.449-16.766 19.949-27.977z"/>
  <path d="m494.46 392.12c-11.742 0.019531-23.176 3.7891-32.633 10.754s-16.449 16.766-19.949 27.977l58.094-38.73z"/>
  <path d="m368.51 392.12h-5.5117l58.094 38.73c-3.5-11.211-10.488-21.012-19.945-27.977-9.4609-6.9648-20.891-10.734-32.637-10.754z"/>
  <path d="m400 439.36h5.5117l-58.094-38.73h-0.003907c3.5039 11.211 10.492 21.012 19.949 27.977 9.457 6.9648 20.891 10.734 32.637 10.754z"/>
  <path d="m423.61 368.51h15.742v133.82h-15.742z"/>
 </g>
</svg>