<?xml version="1.0" encoding="UTF-8"?>
<!-- The Best Svg Icon site in the world: iconSvg.co, Visit us! https://iconsvg.co -->
<svg fill="#000000" width="800px" height="800px" version="1.1" viewBox="144 144 512 512" xmlns="http://www.w3.org/2000/svg">
 <g>
  <path d="m360.64 494.46h-15.742c-4.3516 0-7.8711 3.5195-7.8711 7.8711 0 4.3516 3.5195 7.8711 7.8711 7.8711h7.8711v47.23h-15.742v-39.359c0-4.3516-3.5195-7.8711-7.8711-7.8711-4.3516 0-7.8711 3.5195-7.8711 7.8711v47.23c0 4.3516 3.5195 7.8711 7.8711 7.8711h31.488c4.3516 0 7.8711-3.5195 7.8711-7.8711v-62.977c0-4.3438-3.5234-7.8672-7.875-7.8672z"/>
  <path d="m415.74 478.72c-4.3516 0-7.8711 3.5195-7.8711 7.8711v70.848h-15.742l-0.003906-94.461h7.8711c4.3516 0 7.8711-3.5195 7.8711-7.8711 0-4.3516-3.5195-7.8711-7.8711-7.8711h-15.742c-4.3516 0-7.8711 3.5195-7.8711 7.8711v110.21c0 4.3516 3.5195 7.8711 7.8711 7.8711h31.488c4.3516 0 7.8711-3.5195 7.8711-7.8711v-78.723c0-4.3516-3.5195-7.8711-7.8711-7.8711z"/>
  <path d="m447.23 486.59c0 4.3516 3.5195 7.8711 7.8711 7.8711h7.8711v62.977h-15.742v-47.23c0-4.3516-3.5195-7.8711-7.8711-7.8711s-7.8711 3.5195-7.8711 7.8711v55.105c0 4.3516 3.5195 7.8711 7.8711 7.8711h31.488c4.3516 0 7.8711-3.5195 7.8711-7.8711v-78.723c0-4.3516-3.5195-7.8711-7.8711-7.8711h-15.742c-4.3555 0-7.875 3.5195-7.875 7.8711z"/>
  <path d="m266.33 249.96c0.054688 0.34375 0.17578 0.64844 0.27734 0.97656 0.17188 0.57422 0.38672 1.1211 0.69141 1.6523 0.19141 0.33203 0.41016 0.62891 0.64844 0.92969 0.17969 0.22656 0.28516 0.49609 0.49219 0.70703l125.95 127.68c1.4766 1.5 3.4961 2.3438 5.6055 2.3438 2.1055 0 4.1289-0.84375 5.6055-2.3438l125.95-127.68c0.20703-0.21094 0.3125-0.47656 0.49219-0.70703 0.23828-0.30078 0.45703-0.59766 0.64844-0.92969 0.30469-0.53125 0.51562-1.0781 0.69141-1.6523 0.10156-0.32812 0.21875-0.63672 0.27734-0.97656 0.12891-0.78125 0.11719-1.5664 0.003906-2.3555-0.023437-0.15234 0.03125-0.29688 0-0.45312-0.003906-0.027344-0.023437-0.046875-0.03125-0.070312-0.1875-0.88672-0.51172-1.75-1.0156-2.5547l-0.14062-0.22266c-0.011719-0.019532-0.019531-0.035156-0.035156-0.054688l-47.938-76.719c-1.4336-2.2969-3.957-3.6992-6.668-3.6992h-155.69c-2.7148 0-5.2344 1.3984-6.6719 3.7031l-47.945 76.734s0 0.003906-0.003906 0.003906l-0.16016 0.25781c-0.50391 0.80469-0.82812 1.668-1.0156 2.5547-0.003906 0.027344-0.023437 0.042968-0.03125 0.070312-0.03125 0.15234 0.023437 0.29688 0 0.45312-0.10938 0.78516-0.12109 1.5703 0.003906 2.3516zm51.977-57.242 22.277 61.262-53.832-10.766zm194.93 50.496-53.832 10.766 22.277-61.262zm-77.949 29.102-35.293 82.355-35.293-82.355zm-69.266-15.742 33.973-62.281 33.969 62.281zm86.805 14.777 49.477-9.8945-79.984 81.078zm-7.0391-25.984-35.887-65.789h59.809zm-91.59 0-23.922-65.789h59.809zm-7.0391 25.984 30.508 71.184-79.984-81.078z"/>
  <path d="m533.82 407.87c0-32.637-11.887-64.07-33.457-88.52-2.8828-3.2617-7.8555-3.5586-11.117-0.69141-3.2578 2.875-3.5664 7.8477-0.69141 11.109 19.035 21.566 29.52 49.305 29.52 78.102 0 24.176-7.1445 47.039-20.668 66.684-18.504-34.934-55.203-58.812-97.41-58.812-42.211 0-78.906 23.879-97.414 58.809-13.523-19.641-20.668-42.508-20.668-66.68 0-27.145 8.957-52.664 25.898-73.797 2.7227-3.3906 2.1758-8.3438-1.2148-11.066-3.3906-2.7227-8.3555-2.168-11.07 1.2188-18.934 23.613-29.355 53.316-29.355 83.645 0 30.27 10.391 59.91 29.254 83.504-3.6133 10.891-5.6406 22.492-5.6406 34.574 0 60.77 49.438 110.21 110.21 110.21 60.77 0 110.21-49.438 110.21-110.21 0-12.086-2.0273-23.688-5.6367-34.574 18.867-23.594 29.258-53.238 29.258-83.504zm-133.82 212.54c-52.09 0-94.465-42.375-94.465-94.465 0-52.09 42.375-94.465 94.465-94.465s94.465 42.375 94.465 94.465c-0.003906 52.094-42.375 94.465-94.465 94.465z"/>
 </g>
</svg>