<?xml version="1.0" encoding="UTF-8"?>
<!-- The Best Svg Icon site in the world: iconSvg.co, Visit us! https://iconsvg.co -->
<svg fill="#000000" width="800px" height="800px" version="1.1" viewBox="144 144 512 512" xmlns="http://www.w3.org/2000/svg">
 <g>
  <path d="m588.77 485.9c-6.3242-9.0273-19.754-12.379-30.617-7.6445l-71.914 29.668c-3.0781-8.9961-11.723-15.402-21.879-15.402h-63.812c-9.5586 0-25.211-2.7852-34.219-6.0859l-0.36719-0.14453c-0.035156-0.015625-0.070312-0.023438-0.10938-0.039063-11.355-4.1758-28.809-6.6719-46.691-6.6719h-27.703v-7.3359c0-8.1328-6.6133-14.746-14.742-14.746h-14.863v-6.4102c0-2.5391-2.0547-4.5938-4.5938-4.5938h-44.84c-2.5352 0-4.5938 2.0547-4.5938 4.5938v164.97c0 2.5391 2.0547 4.5938 4.5938 4.5938h44.84c2.5352 0 4.5938-2.0547 4.5938-4.5938v-8.4844h14.863c8.1328 0 14.746-6.6133 14.746-14.746v-9.3594l118.62 27.523c2.5156 0.55078 5.3047 0.8125 8.2188 0.8125 9.3359 0 19.938-2.6797 26.895-7.1602l136.81-89.801c5.1172-3.3008 8.6992-8.4648 9.8242-14.172 1.0273-5.2344-0.058593-10.484-3.0547-14.773zm-336.11-23.809v0.011719 0.011719 140.88 0.011718 0.011719 8.4727h-35.656v-155.79h35.656v6.3945zm29.605 22.062c0 0.011719-0.003907 0.015625-0.003907 0.023438 0 0.011718 0.003907 0.015624 0.003907 0.023437v93.355 0.066406 15.215c0 3.0625-2.4922 5.5586-5.5586 5.5586h-14.863v-131.71h14.863c3.0625 0 5.5586 2.4922 5.5586 5.5586zm300.54 14.754c-0.64453 3.2695-2.75 6.2656-5.8203 8.2422l-136.81 89.801c-7.0547 4.5391-19.941 6.8633-28.086 5.0898l-120.64-27.992v-85.281h27.703c16.832 0 33.074 2.2773 43.469 6.0859l0.36719 0.14453c0.035157 0.015625 0.070313 0.023438 0.10938 0.039062 10 3.6797 26.793 6.6719 37.438 6.6719h63.812c7.4375 0 13.539 5.6289 13.887 12.855 0.011719 0.19141 0.015625 0.38672 0.015625 0.58984 0 0.85547-0.085938 1.6992-0.25781 2.5625-1.2695 6.3008-7.0078 10.879-13.645 10.879h-63.711c-1.9062-0.082031-19.059-0.40234-33.316 11.914-1.918 1.6562-2.1328 4.5586-0.47266 6.4805 0.90625 1.0547 2.1875 1.5938 3.4766 1.5938 1.0625 0 2.1328-0.36719 3.0039-1.1172 11.91-10.293 26.824-9.6914 26.953-9.6875 0.085938 0.003906 0.17188 0.003906 0.25 0.003906h63.812c10.992 0 20.516-7.6719 22.652-18.258 0.14062-0.69922 0.24219-1.4062 0.31641-2.1055l74.379-30.688c0.03125-0.015625 0.058594-0.023437 0.097656-0.039063 6.7656-2.9727 15.672-0.92187 19.453 4.4727 1.5469 2.2227 2.1016 4.9727 1.5586 7.7422z"/>
  <path d="m432.29 430.22v-19.566h1.6172c14.383 0 26.082-11.703 26.082-26.094s-11.699-26.098-26.082-26.098h-12.41c-9.3242 0-16.906-7.582-16.906-16.902 0-9.3242 7.5859-16.914 16.906-16.914h33.895c2.5391 0 4.5938-2.0547 4.5938-4.5938 0-2.5391-2.0547-4.5938-4.5938-4.5938h-23.105v-19.559c0-2.5352-2.0547-4.5938-4.5938-4.5938-2.5391 0-4.5938 2.0547-4.5938 4.5938v19.559h-1.6055c-14.391 0-26.098 11.707-26.098 26.098s11.707 26.094 26.098 26.094h12.402c9.3203 0 16.898 7.5859 16.898 16.906 0 9.3203-7.582 16.906-16.898 16.906h-33.906c-2.5352 0-4.5938 2.0547-4.5938 4.5938 0 2.5391 2.0547 4.5938 4.5938 4.5938h23.105v19.566c0 2.5391 2.0547 4.5938 4.5938 4.5938s4.6016-2.0547 4.6016-4.5898z"/>
  <path d="m318.79 425.32v0.019531 46.934c0 2.5391 2.0547 4.5938 4.5938 4.5938 2.5391 0 4.5938-2.0547 4.5938-4.5938v-8.1523h199.41v13.184c0 1.1875-0.22656 2.3516-0.67578 3.4492-0.95703 2.3477 0.17188 5.0273 2.5234 5.9844 0.5625 0.23047 1.1523 0.33594 1.7266 0.33594 1.8125 0 3.5312-1.0781 4.2578-2.8633 0.89844-2.207 1.3555-4.5352 1.3555-6.918v-51.984-0.011719-0.011719-28.875-0.011718-0.011719-28.875-0.011719-0.011718-28.875-0.011719-0.011719c0-20.242-5.6484-39.961-16.117-57.008-3.0625-4.9844-6.5352-9.7422-10.41-14.211-4.2305-4.8906-8.8633-9.3672-13.828-13.387-13.336-10.809-29.078-18.348-45.922-21.914 4.5156-8.9844 12.281-20.105 23.648-22 7.1992-1.1992 11.992-5.0586 13.16-10.578 1.1875-5.6172-1.7773-11.543-7.7422-15.461-9.8008-6.4375-28.371-7.543-51.68 7.9414-23.305-15.48-41.875-14.379-51.68-7.9414-5.9609 3.918-8.9258 9.8438-7.7422 15.461 1.168 5.5234 5.9648 9.3828 13.16 10.578 11.367 1.8945 19.133 13.02 23.648 22-23.113 4.8906-44.152 17.277-59.75 35.301-17.098 19.758-26.52 45.047-26.527 71.215v0.015625 0.019531 28.848 0.019532 0.019531 28.848 0.019531 0.019532 28.848c0.003906 0.0625-0.003906 0.070312-0.003906 0.078125zm64.148-224.27c-3.2188-0.53906-5.3438-1.8125-5.6836-3.4219-0.3125-1.4805 0.74219-3.8789 3.7969-5.8906 7.6367-5.0195 23.199-5.1406 43.977 9.5742 0.039062 0.03125 0.089844 0.046875 0.13281 0.074219 0.125 0.082031 0.25781 0.15234 0.38672 0.21484 0.14062 0.074219 0.27734 0.15234 0.42188 0.20703 0.12109 0.050781 0.24609 0.085938 0.37891 0.12109 0.16016 0.050781 0.31641 0.10156 0.48047 0.13281 0.125 0.023438 0.25781 0.03125 0.38281 0.046875 0.16016 0.015625 0.32422 0.035157 0.48438 0.035157 0.14062 0 0.27734-0.015626 0.41797-0.03125 0.15234-0.015626 0.30078-0.023438 0.45312-0.054688 0.14063-0.023438 0.28125-0.070312 0.42188-0.11719 0.14453-0.046874 0.29297-0.085937 0.43359-0.14062 0.13281-0.050782 0.25-0.12109 0.37891-0.1875 0.14453-0.074219 0.28906-0.15234 0.42969-0.24219 0.039063-0.023438 0.082031-0.039062 0.12109-0.070312 20.777-14.711 36.34-14.59 43.977-9.5742 3.0586 2.0117 4.1094 4.4023 3.7969 5.8906-0.33594 1.6016-2.4648 2.8828-5.6836 3.4141-15.816 2.6406-25.754 16.848-31.59 29.504-0.1875-0.019531-0.37109-0.050781-0.55859-0.074218-0.023437-0.003906-0.054687-0.003906-0.082031-0.011719-0.34375-0.039063-0.68359-0.058594-1.0273-0.097656-3.8203-0.39844-7.6641-0.61328-11.48-0.61328h-0.011719c-4.3828 0-8.7969 0.27734-13.164 0.79687-5.8359-12.641-15.781-26.852-31.59-29.484zm-54.957 228.86h40.84c2.5352 0 4.5938-2.0547 4.5938-4.5938 0-2.5391-2.0547-4.5938-4.5938-4.5938h-40.84v-19.703h25.945c2.5352 0 4.5938-2.0547 4.5938-4.5938 0-2.5391-2.0547-4.5938-4.5938-4.5938h-25.945v-19.711h25.945c2.5352 0 4.5938-2.0547 4.5938-4.5938 0-2.5352-2.0547-4.5938-4.5938-4.5938h-25.945v-19.711h40.84c2.5352 0 4.5938-2.0547 4.5938-4.5938 0-2.5391-2.0547-4.5938-4.5938-4.5938h-40.734c2.125-45.418 35.613-84.379 80.16-93.215 1.375-0.27344 2.7539-0.51953 4.1523-0.73438 0.20703-0.03125 0.41406-0.050782 0.62109-0.082032 4.8633-0.70703 9.793-1.0781 14.66-1.0781h0.003906c3.2734 0 6.5742 0.17969 9.8594 0.5 1.8125 0.17578 3.6211 0.38672 5.4141 0.66016 46.613 7.168 82.121 47.125 84.316 93.949h-40.727c-2.5391 0-4.5938 2.0547-4.5938 4.5938 0 2.5391 2.0547 4.5938 4.5938 4.5938h40.84v19.711h-25.945c-2.5391 0-4.5938 2.0547-4.5938 4.5938s2.0547 4.5938 4.5938 4.5938h25.945v19.711h-25.945c-2.5391 0-4.5938 2.0547-4.5938 4.5938 0 2.5391 2.0547 4.5938 4.5938 4.5938h25.945v19.703h-40.84c-2.5391 0-4.5938 2.0547-4.5938 4.5938 0 2.5391 2.0547 4.5938 4.5938 4.5938h40.84v25.027h-199.41v-25.027z"/>
 </g>
</svg>