<?xml version="1.0" encoding="UTF-8"?>
<!-- The Best Svg Icon site in the world: iconSvg.co, Visit us! https://iconsvg.co -->
<svg fill="#000000" width="800px" height="800px" version="1.1" viewBox="144 144 512 512" xmlns="http://www.w3.org/2000/svg">
 <path d="m279.14 422.41c-1.543-2.7344-0.57812-6.1953 2.1523-7.7383l210.72-120.98-13.949-5.4922c-3.0234-0.83984-4.7852-3.9688-3.9414-6.9922 0.83984-3.0195 3.9648-4.8008 6.9922-3.9336l27.121 9.1641h0.003907c0.023437 0.011719 0.054687 0.035157 0.085937 0.046876 0.67188 0.20312 1.3164 0.51562 1.8672 0.94531 0.58984 0.45703 1.0898 1.0234 1.4648 1.6875 0.36719 0.66016 0.59375 1.3789 0.68359 2.1211 0.085938 0.74219 0.03125 1.4844-0.16797 2.1914v0.003906l-7.0898 28.828c-0.70703 2.5039-2.9844 4.1445-5.4648 4.1445-0.50781 0-1.0195-0.070312-1.5312-0.21094-3.0234-0.83984-4.7812-3.9766-3.9336-6.9961l3.3906-15.602-210.67 120.96c-0.88281 0.5-1.8398 0.73438-2.793 0.73438-1.9766-0.003906-3.8984-1.0391-4.9414-2.8828zm256.89-14.746c0 5.125-1.5469 9.6797-4.0703 13.027 2.5234 3.3438 4.0703 7.9062 4.0703 13.023v22.582c0 4.9531-1.4609 9.3516-3.8359 12.672 2.375 3.3164 3.8359 7.7148 3.8359 12.668v22.59c0 10.488-6.4102 18.703-14.594 18.703h-69.059c-3.4062 0-6.4688-1.4805-8.9219-3.8945-2.457 2.4141-5.5234 3.8945-8.9258 3.8945h-69.051c-3.4258 0-6.5-1.4961-8.957-3.9258-2.457 2.3945-5.5117 3.8633-8.9023 3.8633h-69.047c-8.1875 0-14.602-8.2188-14.602-18.703v-22.57c0-10.488 6.4141-18.711 14.602-18.711h69.047c1.7266 0 3.3438 0.4375 4.875 1.1133-1.0078-2.5547-1.6211-5.4102-1.6211-8.5156v-22.59c0-10.484 6.4141-18.703 14.605-18.703h69.043c1.5664 0 3.0391 0.38281 4.4336 0.9375-0.75391-2.2734-1.1758-4.7852-1.1758-7.4531v-22.59c0-10.484 6.4102-18.703 14.594-18.703h69.051c8.1875 0 14.594 8.2188 14.594 18.703l0.007813 22.582zm-86.898 0c0 4.5742 2.2539 7.3516 3.25 7.3516h69.051c0.99219 0 3.25-2.7773 3.25-7.3516v-22.59c0-4.5703-2.2539-7.3516-3.25-7.3516h-69.055c-0.99219 0-3.25 2.7812-3.25 7.3516v22.59zm72.305 18.699h-69.059c-0.99219 0-3.25 2.7812-3.25 7.3516v22.578c0 3.3594 1.2188 5.7383 2.2617 6.7617 0.32812-0.03125 0.64453-0.12109 0.98438-0.12109h69.051c0.33594 0 0.65625 0.097656 0.98438 0.12109 1.043-1.0234 2.2617-3.4023 2.2617-6.7617v-22.582c0.007812-4.5664-2.2422-7.3477-3.2344-7.3477zm-159.21 29.117c0 4.5703 2.2578 7.3516 3.2539 7.3516h69.043c0.99219 0 3.2539-2.7812 3.2539-7.3516v-22.59c0-4.5703-2.2617-7.3516-3.2539-7.3516h-69.043c-0.99609 0-3.2539 2.7812-3.2539 7.3516zm-11.352 48.688v-22.574c0-4.5742-2.2539-7.3594-3.2539-7.3594l-69.047-0.003906c-0.98828 0-3.2539 2.7852-3.2539 7.3594v22.57c0 4.5703 2.2617 7.3516 3.2539 7.3516h69.047c1.0039 0.007813 3.2539-2.7734 3.2539-7.3438zm86.906 0.058594v-22.574c0-4.5742-2.2617-7.3516-3.2539-7.3516h-69.047c-0.99609 0-3.2539 2.7773-3.2539 7.3516v22.582c0 4.5742 2.2578 7.3516 3.2539 7.3516h69.043c0.99609-0.007813 3.2578-2.7773 3.2578-7.3594zm86.898-22.59c0-3.3672-1.2188-5.7383-2.2617-6.7617-0.32812 0.03125-0.64453 0.12109-0.98437 0.12109h-69.055c-0.33594 0-0.65625-0.097656-0.98438-0.12109-1.043 1.0234-2.2617 3.3945-2.2617 6.7617v22.59c0 4.5742 2.2539 7.3516 3.25 7.3516h69.051c0.99219 0 3.25-2.7773 3.25-7.3516v-22.59z"/>
</svg>