<?xml version="1.0" encoding="UTF-8"?>
<!-- The Best Svg Icon site in the world: iconSvg.co, Visit us! https://iconsvg.co -->
<svg width="800px" height="800px" version="1.1" viewBox="144 144 512 512" xmlns="http://www.w3.org/2000/svg">
 <defs>
  <clipPath id="a">
   <path d="m148.09 148.09h503.81v503.81h-503.81z"/>
  </clipPath>
 </defs>
 <g clip-path="url(#a)">
  <path d="m387.61 333.57h24.766c7.7578 0.007812 15.199 3.0938 20.684 8.582 5.4883 5.4883 8.5742 12.926 8.582 20.688 0 4.3477 3.5234 7.8711 7.8711 7.8711 4.3477 0 7.875-3.5234 7.875-7.8711-0.019531-11.934-4.7656-23.375-13.203-31.812s-19.879-13.184-31.809-13.199h-4.5039v-16.895c0-4.3477-3.5234-7.8711-7.8711-7.8711s-7.875 3.5234-7.875 7.8711v16.895h-4.5195 0.003906c-16.086 0-30.949 8.5781-38.988 22.508-8.043 13.93-8.043 31.09 0 45.02 8.0391 13.93 22.902 22.512 38.988 22.512h24.766c10.457 0 20.121 5.5781 25.352 14.637 5.2305 9.0586 5.2305 20.219 0 29.277-5.2305 9.0586-14.895 14.637-25.352 14.637h-24.766c-7.7617-0.007813-15.199-3.0938-20.688-8.582-5.4883-5.4844-8.5742-12.926-8.582-20.684 0-4.3477-3.5234-7.875-7.8711-7.875s-7.8711 3.5273-7.8711 7.875c0.015625 11.93 4.7617 23.371 13.199 31.809s19.879 13.184 31.812 13.203h4.5156v16.895-0.003906c0 4.3477 3.5273 7.875 7.875 7.875s7.8711-3.5273 7.8711-7.875v-16.891h4.5195c16.082 0 30.945-8.582 38.988-22.512 8.0391-13.93 8.0391-31.09 0-45.02-8.043-13.93-22.906-22.512-38.988-22.512h-24.781c-10.461 0-20.125-5.5781-25.355-14.637-5.2305-9.0586-5.2305-20.219 0-29.277 5.2305-9.0547 14.895-14.637 25.355-14.637zm240.68 11.32h-9.0703c-3.6016-0.089843-6.707-2.5664-7.5898-6.0625-4.5469-15.715-10.844-30.871-18.766-45.184-1.8477-3.1016-1.4023-7.0547 1.0859-9.668l6.4375-6.4375h0.003906c4.4258-4.4297 6.9141-10.438 6.9141-16.699s-2.4883-12.266-6.9141-16.695l-44.527-44.539c-4.4258-4.4297-10.434-6.9141-16.695-6.9141s-12.27 2.4844-16.695 6.9141l-6.4375 6.4375h-0.003906c-2.6211 2.4766-6.5625 2.918-9.6641 1.0859-14.316-7.9219-29.473-14.219-45.188-18.766-3.4961-0.88281-5.9727-3.9844-6.0625-7.5898v-9.0664c0-6.2656-2.4883-12.277-6.9219-16.707-4.4336-4.4297-10.441-6.9141-16.707-6.9102h-62.977c-6.2656 0-12.273 2.4883-16.699 6.918-4.4297 4.4297-6.918 10.434-6.918 16.699v9.0703-0.003906c-0.089843 3.6055-2.5664 6.707-6.0625 7.5898-15.715 4.5469-30.871 10.844-45.184 18.766-3.1055 1.8359-7.0508 1.3945-9.668-1.0859l-6.4375-6.4375c-4.4297-4.4297-10.438-6.9141-16.699-6.9141s-12.266 2.4844-16.695 6.9141l-44.539 44.523c-4.4297 4.4297-6.9141 10.434-6.9141 16.695s2.4844 12.27 6.9141 16.699l6.4375 6.4375c2.4922 2.6133 2.9336 6.5664 1.0859 9.668-7.9219 14.312-14.219 29.469-18.766 45.184-0.88281 3.4961-3.9844 5.9727-7.5898 6.0625h-9.0664c-6.2656 0-12.277 2.4883-16.707 6.9219-4.4297 4.4336-6.9141 10.445-6.9102 16.711v62.977c0 6.2617 2.4883 12.27 6.918 16.699 4.4297 4.4258 10.434 6.9141 16.699 6.9141h9.0703-0.003906c3.6094 0.089844 6.7148 2.5781 7.5898 6.0781 4.5508 15.711 10.848 30.859 18.766 45.168 1.8477 3.1016 1.4062 7.0547-1.0859 9.668l-6.4375 6.4375v0.003906c-4.4297 4.4258-6.9141 10.434-6.9141 16.695 0 6.2617 2.4844 12.27 6.9141 16.695l44.523 44.543c4.4297 4.4258 10.434 6.9141 16.695 6.9141s12.27-2.4883 16.699-6.9141l6.4375-6.4375v-0.003906c2.6055-2.5039 6.5703-2.9492 9.668-1.0859 14.312 7.9219 29.469 14.219 45.184 18.766 3.4961 0.88281 5.9727 3.9883 6.0625 7.5898v9.0703c0 6.2656 2.4883 12.273 6.9219 16.703 4.4336 4.4297 10.445 6.9141 16.711 6.9102h62.977c6.2617 0 12.27-2.4883 16.699-6.918 4.4258-4.4258 6.9141-10.434 6.9141-16.695v-9.0703c0.089844-3.6016 2.5664-6.707 6.0625-7.5898 15.715-4.5469 30.871-10.844 45.184-18.766 3.1016-1.8594 7.0586-1.4141 9.668 1.0859l6.4414 6.4414c4.4258 4.4258 10.434 6.9141 16.695 6.9141 6.2617 0 12.27-2.4883 16.695-6.9141l44.543-44.527c4.4258-4.4258 6.9141-10.434 6.9141-16.695s-2.4883-12.27-6.9141-16.695l-6.4414-6.4414c-2.4883-2.6133-2.9336-6.5664-1.0859-9.6641 7.9219-14.316 14.215-29.473 18.766-45.188 0.88281-3.4961 3.9883-5.9727 7.5898-6.0625h9.0703c6.2656 0 12.273-2.4883 16.703-6.9219 4.4297-4.4336 6.9141-10.441 6.9102-16.707v-62.977c0-6.2656-2.4883-12.273-6.918-16.699-4.4258-4.4297-10.434-6.918-16.695-6.918zm7.8711 86.594c0 2.0859-0.83203 4.0898-2.3047 5.5664-1.4766 1.4727-3.4805 2.3047-5.5664 2.3047h-9.0703c-5.1719 0.015625-10.199 1.7305-14.301 4.8789-4.1055 3.1484-7.0625 7.5586-8.418 12.551-4.2227 14.578-10.062 28.645-17.414 41.926-2.582 4.4922-3.6172 9.707-2.9414 14.848 0.67188 5.1367 3.0195 9.9102 6.6758 13.586l6.4375 6.4375c3.0742 3.0742 3.0742 8.0586 0 11.133l-44.539 44.539c-3.1172 2.9648-8.0156 2.9648-11.133 0l-6.4375-6.4375c-3.6758-3.6562-8.4492-6.0039-13.586-6.6758-5.1406-0.67578-10.355 0.35938-14.848 2.9414-13.281 7.3555-27.344 13.195-41.926 17.414-4.9922 1.3555-9.4023 4.3125-12.551 8.418-3.1484 4.1016-4.8633 9.1289-4.8789 14.301v9.0703c0 2.0859-0.83203 4.0898-2.3047 5.5664-1.4766 1.4727-3.4805 2.3047-5.5664 2.3047h-62.977c-4.3477 0-7.875-3.5234-7.875-7.8711v-9.0703c-0.015625-5.1758-1.7305-10.203-4.8828-14.305-3.1523-4.1055-7.5664-7.0625-12.559-8.4141-14.586-4.2188-28.648-10.059-41.926-17.414-3.6367-2.043-7.7344-3.125-11.906-3.1484-6.1953-0.011719-12.141 2.457-16.516 6.8477l-6.4375 6.4375v0.003906c-3.1172 2.9648-8.0117 2.9648-11.133 0l-44.539-44.508c-3.0703-3.0742-3.0703-8.0586 0-11.133l6.4375-6.4375h0.003907c3.6562-3.6758 6-8.4492 6.6758-13.586 0.67188-5.1406-0.36328-10.355-2.9453-14.848-7.3516-13.281-13.191-27.348-17.414-41.926-1.3555-4.9922-4.3125-9.4023-8.4141-12.551-4.1055-3.1484-9.1289-4.8633-14.305-4.8789h-9.0664c-4.3477 0-7.875-3.5234-7.875-7.8711v-62.977c0-4.3477 3.5273-7.875 7.875-7.875h9.0703-0.003906c5.1758-0.015625 10.203-1.7305 14.309-4.8828 4.1016-3.1523 7.0586-7.5664 8.4102-12.559 4.2188-14.586 10.059-28.648 17.414-41.926 2.582-4.4961 3.6172-9.7109 2.9453-14.852-0.67578-5.1367-3.0195-9.9102-6.6758-13.586l-6.4375-6.4375h-0.003907c-3.0703-3.0742-3.0703-8.0586 0-11.133l44.539-44.523c3.1211-2.9648 8.0156-2.9648 11.133 0l6.4375 6.4375v0.003907c3.6758 3.6562 8.4492 6 13.586 6.6758 5.1406 0.67188 10.359-0.36328 14.852-2.9453 13.277-7.3555 27.344-13.195 41.926-17.414 4.9922-1.3555 9.3984-4.3125 12.551-8.4141 3.1484-4.1055 4.8594-9.1289 4.875-14.305v-9.0664c0-4.3477 3.5273-7.875 7.875-7.875h62.977c2.0859 0 4.0898 0.83203 5.5664 2.3086 1.4727 1.4766 2.3047 3.4766 2.3047 5.5664v9.0703-0.003906c0.015625 5.1758 1.7305 10.203 4.8828 14.309 3.1523 4.1016 7.5664 7.0586 12.562 8.4102 14.582 4.2188 28.645 10.059 41.926 17.414 4.4922 2.582 9.707 3.6172 14.848 2.9453 5.1367-0.67578 9.9102-3.0195 13.586-6.6758l6.4375-6.4375v-0.003907c3.1172-2.9648 8.0156-2.9648 11.133 0l44.539 44.539c3.0742 3.0742 3.0742 8.0586 0 11.133l-6.4375 6.4375c-3.6562 3.6758-6.0039 8.4492-6.6758 13.586-0.67578 5.1406 0.35938 10.359 2.9414 14.852 7.3555 13.277 13.195 27.344 17.414 41.926 1.3555 4.9883 4.3086 9.3945 8.4102 12.543 4.1016 3.1484 9.1211 4.8633 14.293 4.8828h9.0703c2.0859 0 4.0898 0.83203 5.5664 2.3086 1.4727 1.4766 2.3047 3.4766 2.3047 5.5664zm-236.16-187.94c-41.5 0-81.297 16.484-110.64 45.828s-45.828 69.145-45.824 110.64c0 41.496 16.488 81.297 45.832 110.64 29.344 29.344 69.145 45.824 110.64 45.824 41.5-0.003907 81.297-16.492 110.64-45.84 29.34-29.344 45.824-69.145 45.816-110.64-0.046876-41.48-16.551-81.25-45.883-110.58s-69.098-45.824-110.58-45.871zm0 297.17c-37.324 0-73.117-14.824-99.504-41.215-26.391-26.391-41.219-62.184-41.219-99.504 0-37.324 14.828-73.117 41.219-99.504 26.387-26.391 62.18-41.219 99.504-41.219 37.32 0 73.113 14.828 99.504 41.219 26.391 26.387 41.215 62.18 41.215 99.504-0.042969 37.309-14.879 73.074-41.262 99.457-26.383 26.383-62.148 41.219-99.457 41.262z"/>
 </g>
</svg>