<?xml version="1.0" encoding="UTF-8"?>
<!-- The Best Svg Icon site in the world: iconSvg.co, Visit us! https://iconsvg.co -->
<svg fill="#000000" width="800px" height="800px" version="1.1" viewBox="144 144 512 512" xmlns="http://www.w3.org/2000/svg">
 <g>
  <path d="m486 336.23c8.1758 0.003906 16.02-3.2422 21.805-9.0234 5.7812-5.7812 9.0312-13.621 9.0352-21.797 0-8.1797-3.2461-16.02-9.0273-21.805-5.7812-5.7812-13.621-9.0312-21.801-9.0312-8.1758 0-16.016 3.2461-21.801 9.0273-5.7812 5.7812-9.0312 13.625-9.0312 21.801 0.007812 8.1719 3.2578 16.008 9.0352 21.789 5.7773 5.7773 13.613 9.0312 21.785 9.0391zm0-51.977v0.003907c5.6094 0 10.988 2.2266 14.953 6.1914s6.1953 9.3438 6.1953 14.953-2.2305 10.988-6.1953 14.953-9.3438 6.1914-14.953 6.1914-10.988-2.2266-14.953-6.1914-6.1914-9.3438-6.1914-14.953c0.003906-5.6055 2.2344-10.98 6.1992-14.945 3.9648-3.9648 9.3398-6.1953 14.945-6.1992z"/>
  <path d="m358.34 329.23c0-16.289-6.4688-31.91-17.988-43.426-11.516-11.516-27.137-17.988-43.422-17.988-16.289 0-31.91 6.4727-43.426 17.988-11.516 11.516-17.988 27.137-17.988 43.426 0 16.285 6.4727 31.906 17.988 43.422 11.516 11.52 27.137 17.988 43.426 17.988 16.281-0.019531 31.891-6.4961 43.402-18.008 11.512-11.512 17.988-27.121 18.008-43.402zm-61.41 51.738c-13.723 0-26.883-5.4531-36.586-15.156s-15.156-22.863-15.156-36.582c0-13.723 5.4531-26.883 15.156-36.586s22.863-15.156 36.586-15.156c13.719 0 26.879 5.4531 36.582 15.156 9.7031 9.7031 15.156 22.863 15.156 36.586-0.015624 13.715-5.4727 26.867-15.172 36.566-9.6992 9.6992-22.852 15.156-36.566 15.172z"/>
  <path d="m290.05 402.05c-7.0469 0-13.805 2.7969-18.789 7.7812-4.9805 4.9805-7.7812 11.738-7.7812 18.785s2.8008 13.805 7.7812 18.785c4.9844 4.9844 11.742 7.7812 18.789 7.7812s13.805-2.7969 18.785-7.7812c4.9844-4.9805 7.7812-11.738 7.7812-18.785s-2.7969-13.805-7.7812-18.785c-4.9805-4.9844-11.738-7.7812-18.785-7.7812zm0 43.473c-4.4844 0-8.7891-1.7773-11.961-4.9492-3.1719-3.168-4.9531-7.4688-4.9531-11.953-0.003906-4.4844 1.7773-8.7852 4.9492-11.957s7.4727-4.9531 11.957-4.9531c4.4844 0.003907 8.7852 1.7852 11.957 4.957 3.168 3.1719 4.9492 7.4727 4.9453 11.961-0.003906 4.4766-1.7852 8.7734-4.9531 11.938-3.168 3.168-7.4648 4.9492-11.941 4.957z"/>
  <path d="m380 289.43c7.5391 0 14.77-2.9961 20.102-8.3242 5.332-5.332 8.3242-12.562 8.3242-20.102 0-7.543-2.9922-14.773-8.3242-20.102-5.332-5.332-12.562-8.3281-20.102-8.3281-7.5391 0-14.77 2.9961-20.102 8.3281-5.332 5.3281-8.3281 12.559-8.3281 20.102 0.007812 7.5352 3.0078 14.762 8.3359 20.09 5.332 5.332 12.555 8.3281 20.094 8.3359zm0-47.184c4.9727 0 9.7461 1.9766 13.262 5.4961 3.5156 3.5156 5.4922 8.2852 5.4922 13.262 0 4.9727-1.9766 9.7422-5.4922 13.262-3.5156 3.5156-8.2891 5.4922-13.262 5.4922s-9.7461-1.9766-13.262-5.4922c-3.5195-3.5195-5.4922-8.2891-5.4922-13.262 0.003906-4.9727 1.9805-9.7422 5.4961-13.258 3.5156-3.5156 8.2852-5.4922 13.258-5.5z"/>
  <path d="m567.09 383.87c5.9336 0.003906 11.629-2.3555 15.824-6.5508 4.1992-4.1953 6.5586-9.8867 6.5586-15.824 0.003907-5.9336-2.3555-11.625-6.5508-15.824-4.1992-4.1953-9.8906-6.5547-15.828-6.5547-5.9336 0-11.625 2.3594-15.824 6.5586-4.1953 4.1992-6.5508 9.8945-6.5469 15.828 0.007813 5.9297 2.3672 11.613 6.5586 15.809 4.1914 4.1914 9.8789 6.5508 15.809 6.5586zm0-35.059c5.1328 0 9.7617 3.0898 11.727 7.8359 1.9648 4.7422 0.87891 10.203-2.7539 13.832-3.6289 3.6289-9.0898 4.7148-13.832 2.75-4.7422-1.9648-7.8359-6.5938-7.8359-11.727 0.015624-7 5.6914-12.668 12.695-12.672z"/>
  <path d="m467.36 514.73c17.789 0.042969 34.371-8.9805 43.996-23.941 15.922 8.543 34.785 9.6875 51.629 3.1367 16.84-6.5508 29.973-20.141 35.938-37.195 5.9688-17.059 4.1719-35.871-4.9102-51.492 15.078-11.77 24.543-29.309 26.105-48.375 1.5586-19.062-4.9258-37.91-17.887-51.977s-31.219-22.066-50.344-22.066c-1.8516 0-3.6992 0.078125-5.5391 0.22656h-0.003906c3.2383-20.047-1.6914-40.551-13.691-56.934-12-16.379-30.062-27.266-50.152-30.223s-40.523 2.2617-56.734 14.488c-10.719-15.711-27.02-26.742-45.586-30.852s-38-0.98438-54.348 8.7344c-16.344 9.7188-28.367 25.301-33.625 43.578-19.875-6.8047-41.707-4.8125-60.023 5.4688-18.316 10.285-31.383 27.887-35.926 48.395-4.543 20.512-0.12891 41.984 12.133 59.039-15.754 11.055-26.039 28.316-28.262 47.434-2.2227 19.117 3.8281 38.273 16.625 52.648 12.801 14.375 31.129 22.602 50.375 22.605 2.5625-0.007813 5.1211-0.15234 7.668-0.44531 8.7461 31.41 36.316 53.059 68.172 53.059 21.055-0.09375 40.98-9.5312 54.395-25.762v118.26h-172.28c-2.6719 0-4.8398 2.168-4.8398 4.8398 0 2.6758 2.168 4.8438 4.8398 4.8438h389.82c2.6719 0 4.8398-2.168 4.8398-4.8438 0-2.6719-2.168-4.8398-4.8398-4.8398h-150.26v-102.98c7.0898 3.4023 14.848 5.168 22.711 5.1758zm42.312-35.504c-4.9727 0-9.7461-1.9766-13.262-5.4922-3.5195-3.5195-5.4922-8.2891-5.4922-13.262 0-4.9766 1.9727-9.7461 5.4922-13.262 3.5156-3.5195 8.2891-5.4961 13.262-5.4961 4.9727 0 9.7461 1.9766 13.262 5.4961 3.5156 3.5156 5.4922 8.2852 5.4922 13.262-0.003907 4.9727-1.9844 9.7422-5.5 13.258-3.5195 3.5156-8.2891 5.4922-13.266 5.4961zm-132.31-2.4805c-5.0898 10.082-12.867 18.559-22.473 24.496-9.6094 5.9375-20.672 9.0977-31.965 9.1367-28.43 0-52.938-20.082-59.59-48.848v0.003906c-0.35547-1.5586-1.4609-2.8398-2.9531-3.4141-1.0859-0.92578-2.5273-1.3164-3.9336-1.0742-3.1016 0.50391-6.2383 0.75781-9.3789 0.75781-16.988-0.007813-33.113-7.4961-44.086-20.465-10.973-12.973-15.684-30.113-12.879-46.871 2.8086-16.758 12.844-31.43 27.445-40.117 1.2148-0.875 2.0312-2.1992 2.2656-3.6758 0.23047-1.4805-0.13672-2.9922-1.0273-4.1953-12.152-14.75-17.094-34.148-13.48-52.914 3.6172-18.762 15.41-34.938 32.172-44.117 16.762-9.1758 36.742-10.402 54.5-3.3398v0.003907c0.6875 0.70703 1.5703 1.1953 2.5391 1.3945 0.32422 0.0625 0.65234 0.089843 0.98437 0.089843 2.3203-0.007812 4.3086-1.6562 4.7422-3.9375 3.4297-17.066 13.559-32.047 28.117-41.59 14.559-9.543 32.336-12.852 49.355-9.1875 17.016 3.6641 31.855 13.996 41.199 28.688 0.3125 0.48828 0.71875 0.91797 1.1914 1.2578 0.47656 1.5703 1.7188 2.7891 3.293 3.2383 1.5781 0.44922 3.2734 0.066407 4.5078-1.0117 14.172-12.324 32.91-18.055 51.551-15.762s35.43 12.391 46.191 27.781c10.766 15.391 14.488 34.629 10.242 52.922-0.125 0.55859-0.14844 1.1289-0.078126 1.6953-0.32812 1.5703 0.14844 3.2031 1.2695 4.3477 1.1211 1.1484 2.7422 1.6602 4.3203 1.3672 3.4492-0.61328 6.9453-0.92188 10.449-0.92188 16.777-0.003906 32.758 7.1641 43.914 19.699 11.156 12.531 16.426 29.234 14.48 45.898-1.9453 16.664-10.922 31.707-24.664 41.332-2.2617 1.8867-3 5.0508-1.8008 7.7422 8.2188 12.207 10.895 27.316 7.375 41.602-3.5195 14.285-12.91 26.422-25.859 33.41-12.945 6.9922-28.242 8.1914-42.117 3.2969 7.7812-4.207 13.16-11.801 14.551-20.539 1.3906-8.7344-1.3672-17.621-7.457-24.039-6.0938-6.4141-14.824-9.6289-23.621-8.6953-8.7969 0.93359-16.66 5.9102-21.266 13.465-4.6094 7.5508-5.4375 16.82-2.2422 25.07 3.1953 8.25 10.051 14.543 18.543 17.02-6.1602 8.3203-15.133 14.121-25.25 16.32-10.113 2.2031-20.684 0.66016-29.746-4.3438-0.62891-0.35156-1.3281-0.55078-2.0469-0.58984v-55.004c0-15.961 26.863-37.531 37.215-44.488 1.2461-0.83594 2.0312-2.2031 2.1289-3.6992 0.097656-1.4961-0.50391-2.9531-1.625-3.9453-3.6211-3.1992-21.902-19.285-25.988-21.648-3.2188-1.832-6.8086-3.9375-50.047 37.539-14.828-14.199-49.949-32.363-51.57-33.199-2.2031-1.1367-4.9062-0.42188-6.2617 1.6523l-13.777 21.039h0.003907c-0.75781 1.1523-0.98828 2.5703-0.63281 3.9023 0.35547 1.332 1.2617 2.4492 2.4922 3.0742 11.355 5.7383 40.836 24.078 40.836 39.742zm57.574-32.562v168.36h-47.863v-168.4c0-20.457-29.234-39.008-41.387-45.836l8.4922-12.949c13.637 7.3008 40.492 22.801 48.215 32.473 0.85156 1.0664 2.1094 1.7227 3.4727 1.8086 1.3594 0.089843 2.6914-0.39844 3.6719-1.3438 17.219-16.621 37.234-34.566 43.629-38.375 3.375 2.5781 10.824 8.8555 18.242 15.352-11.391 8.3984-36.434 29.223-36.434 48.871z"/>
  <path d="m296.93 324.35c-2.8125 0.019532-5.3555-1.6562-6.4453-4.2461-1.0898-2.5938-0.50781-5.582 1.4727-7.5781 1.9805-1.9961 4.9688-2.5977 7.5664-1.5273 2.5977 1.0703 4.293 3.6055 4.293 6.4141 0 2.4102 1.9531 4.3594 4.3594 4.3594s4.3594-1.9492 4.3594-4.3594c-0.007812-3.3867-1.1094-6.6797-3.1484-9.3906-2.0352-2.707-4.8945-4.6797-8.1484-5.625v-2.4492c-0.10938-2.3242-2.0273-4.1523-4.3555-4.1523-2.3242 0-4.2422 1.8281-4.3516 4.1523v2.4492c-4.9141 1.375-8.8477 5.0625-10.535 9.8789-1.6914 4.8125-0.92578 10.148 2.0469 14.293 2.9727 4.1445 7.7852 6.5781 12.887 6.5195 4.0156 0 7.6367 2.4219 9.1719 6.1328s0.68359 7.9805-2.1562 10.82c-2.8398 2.8398-7.1133 3.6875-10.824 2.1445-3.7109-1.5391-6.125-5.1602-6.1211-9.1797-0.10938-2.3242-2.0273-4.1523-4.3555-4.1523s-4.2422 1.8281-4.3516 4.1523c0.015626 4.1797 1.4297 8.2305 4.0156 11.512 2.5898 3.2812 6.1992 5.5977 10.262 6.5859v2.3633-0.003906c0.10938 2.3242 2.0273 4.1523 4.3516 4.1523 2.3281 0 4.2461-1.8281 4.3555-4.1523v-2.3633 0.003906c5.9648-1.4297 10.844-5.7031 13.047-11.434 2.1992-5.7266 1.4336-12.168-2.043-17.223-3.4766-5.0547-9.2188-8.0703-15.352-8.0664z"/>
 </g>
</svg>