<?xml version="1.0" encoding="UTF-8"?>
<!-- The Best Svg Icon site in the world: iconSvg.co, Visit us! https://iconsvg.co -->
<svg fill="#000000" width="800px" height="800px" version="1.1" viewBox="144 144 512 512" xmlns="http://www.w3.org/2000/svg">
 <g>
  <path d="m293.04 434 23.73-14.758 84.273-10.348 23.531 64.395c-11.723 7.9766-25.043 13.477-38.961 16.027l-41.145-40.859c-4.6172-4.6094-11.535-6.0039-17.633-3.6094l-17.184 6.8555c-13.719 5.4688-28.738 7.4102-43.379 5.543-0.95703-0.125-1.7852-0.66016-2.2891-1.457-0.91406-1.4922-0.46094-3.4219 1.0078-4.3438z"/>
  <path d="m435.39 472.26-25.395-69.504 32.004-11.691 25.395 69.504z"/>
  <path d="m259.44 442.56c-6.3711 3.9766-8.3438 12.426-4.375 18.797 2.1836 3.5039 5.7852 5.8047 9.875 6.3398 16.438 2.0664 33.242-0.082031 48.598-6.2344l17.172-6.8438c2.1953-0.88281 4.6797-0.34766 6.3398 1.2891l52.27 51.926c0.64062 0.62109 1.1758 1.2891 1.6367 2.0352 1.625 2.5938 2.1406 5.6562 1.4688 8.6367-0.68359 2.9922-2.5 5.5117-5.0898 7.1602l-55.156 34.512c-3.8711 2.4453-8.8477 1.8789-12.09-1.3438l-3.0547-3.0352 5.2891-5.1211c3.8945-3.7695 6.0781-8.8477 6.1602-14.254 0.09375-5.4258-1.9531-10.547-5.7422-14.465-0.36719-0.36719-0.73438-0.72266-1.1016-1.0703l-49.121-43.359c-8.332-7.3594-21.875-7.0117-29.82 0.69141l-17.277 16.75c-3.6719-1.0898-7.125-2.6641-10.379-4.6484l45.27-54.883c4.2422-0.66016 8.5117-1.1953 12.773-1.3555z"/>
  <path d="m227.73 408.86 24.344 20.09-47.086 57.059-24.344-20.09z"/>
  <path d="m233.26 521.8c-0.77734-0.47266-1.5117-1.0703-2.1602-1.7422-4.3984-4.543-4.2812-11.809 0.24219-16.215l18.66-18.094c2.1523-2.0781 4.9844-3.2344 7.9766-3.2344 2.8008 0 5.4883 1.0195 7.5898 2.8555l49.656 43.883c1.8164 1.8906 2.8008 4.3438 2.7617 6.9688-0.042969 2.6016-1.0898 5.0469-2.9688 6.8633l-13.109 12.711c-3.1602 3.043-8.2695 3.6094-12.008 1.2812z"/>
  <path d="m244.06 429.3c0 7.0469-5.7148 12.762-12.762 12.762-7.0508 0-12.766-5.7148-12.766-12.762 0-7.0508 5.7148-12.766 12.766-12.766 7.0469 0 12.762 5.7148 12.762 12.766"/>
  <path d="m231.3 427.04c1.25 0 2.2656 1.0195 2.2656 2.2656 0 2.4883-4.5352 2.4883-4.5352 0-0.007813-1.2461 1.0078-2.2656 2.2695-2.2656z"/>
  <path d="m443.24 409.22c0 7.0508-5.7148 12.766-12.762 12.766-7.0508 0-12.766-5.7148-12.766-12.766 0-7.0469 5.7148-12.762 12.766-12.762 7.0469 0 12.762 5.7148 12.762 12.762"/>
  <path d="m428.2 409.22c0-1.25 1.0195-2.2656 2.2656-2.2656 1.25 0 2.2773 1.0195 2.2773 2.2656-0.011719 2.5-4.543 2.5-4.543 0z"/>
  <path d="m593.64 183.43h-270.32c-14.18 0-25.703 11.535-25.703 25.703v209.67l14.59-9.0781c0.66016-0.39844 1.375-0.66016 2.1289-0.73437l83.844-10.297c0.0625-0.42969 0.10547-0.87109 0.29297-1.2812 0.58594-1.2578 1.6602-2.2344 2.9609-2.7188l37.02-13.52h-85.438c-2.8867 0-5.2461-2.3633-5.2461-5.2461 0-2.9062 2.3633-5.2461 5.2461-5.2461h210.9c2.8867 0 5.2461 2.3398 5.2461 5.2461 0 2.8867-2.3633 5.2461-5.2461 5.2461l-114.71 0.003907c0.32422 0.41016 0.65234 0.83984 0.83984 1.3555l29 79.371c1.0078 2.7305-0.41016 5.7422-3.1289 6.7383l-41.848 15.305c-0.59766 0.21875-1.1953 0.30469-1.8047 0.30469-0.75391 0-1.5234-0.16797-2.2148-0.49219-0.38672-0.1875-0.69141-0.48438-1.0391-0.73438-10.547 6.9258-22.188 12.176-34.418 15.23l2.1523 2.1523c1.1953 1.1641 2.2656 2.5 3.1484 3.9375 3.1172 4.9648 4.1133 10.832 2.793 16.551-1.332 5.7305-4.7852 10.59-9.7617 13.707l-55.145 34.5c-3.3359 2.0898-7.0859 3.1172-10.781 3.1172-5.207 0-10.348-1.9961-14.273-5.9102l-3.1914-3.1797-0.27344 0.26172c-3.2031 3.0977-7.2539 4.9453-11.609 5.4688v22c0 14.191 11.535 25.703 25.703 25.703h270.32c14.191 0 25.703-11.547 25.703-25.703l0.003907-381.71c-0.03125-14.18-11.559-25.715-25.727-25.715zm-29.727 366.25h-105.45c-2.8867 0-5.2461-2.3516-5.2461-5.2461 0-2.8984 2.3633-5.2461 5.2461-5.2461h105.45c2.8867 0 5.2461 2.3516 5.2461 5.2461 0.003906 2.8945-2.3477 5.2461-5.2461 5.2461zm0-42.133h-65.969c-2.8984 0-5.2461-2.3516-5.2461-5.2461 0-2.8984 2.3516-5.2461 5.2461-5.2461h65.969c2.8867 0 5.2461 2.3516 5.2461 5.2461 0.003906 2.8945-2.3477 5.2461-5.2461 5.2461zm0-42.141h-65.969c-2.8984 0-5.2461-2.3516-5.2461-5.2461 0-2.8867 2.3516-5.2461 5.2461-5.2461h65.969c2.8867 0 5.2461 2.3633 5.2461 5.2461 0.003906 2.9062-2.3477 5.2461-5.2461 5.2461zm0-42.121h-65.969c-2.8984 0-5.2461-2.3633-5.2461-5.2461 0-2.8867 2.3516-5.2461 5.2461-5.2461h65.969c2.8867 0 5.2461 2.3633 5.2461 5.2461 0.003906 2.8828-2.3477 5.2461-5.2461 5.2461zm-155.2-179.03h99.504c2.8867 0 5.2461 2.3516 5.2461 5.2461 0 2.8984-2.3633 5.2461-5.2461 5.2461h-99.504c-2.8867 0-5.2461-2.3516-5.2461-5.2461-0.003906-2.8945 2.3594-5.2461 5.2461-5.2461zm155.2 94.77h-210.89c-2.8867 0-5.2461-2.3633-5.2461-5.2461 0-2.8984 2.3633-5.2461 5.2461-5.2461h210.9c2.8867 0 5.2461 2.3516 5.2461 5.2461s-2.3516 5.2461-5.25 5.2461zm0-42.141h-210.89c-2.8867 0-5.2461-2.3398-5.2461-5.2461 0-2.875 2.3633-5.2461 5.2461-5.2461h210.9c2.8867 0 5.2461 2.3711 5.2461 5.2461 0 2.9023-2.3516 5.2461-5.25 5.2461z"/>
 </g>
</svg>