<?xml version="1.0" encoding="UTF-8"?>
<!-- The Best Svg Icon site in the world: iconSvg.co, Visit us! https://iconsvg.co -->
<svg fill="#000000" width="800px" height="800px" version="1.1" viewBox="144 144 512 512" xmlns="http://www.w3.org/2000/svg">
 <g>
  <path d="m628.29 329.15h-31.488v-15.742c-0.019531-6.2578-2.5156-12.254-6.9375-16.68-4.4258-4.4219-10.422-6.918-16.68-6.9375-4.0664 0.015626-8.0586 1.1016-11.574 3.1484-4.293-6.8594-11.82-11.023-19.914-11.02-3.0234 0.011719-6.0156 0.59766-8.8164 1.7305-1.7695-6.7227-6.4336-12.316-12.734-15.266-6.2969-2.9492-13.578-2.9492-19.879 0-6.2969 2.9492-10.961 8.543-12.73 15.266-7.2734-2.9492-15.539-2.0859-22.047 2.3047-6.5078 4.3906-10.402 11.73-10.387 19.582v23.617l-62.977-0.003906c-4.3477 0-7.8711 3.5273-7.8711 7.875v125.95c0 2.0859 0.82812 4.0898 2.3047 5.5664 1.4766 1.4727 3.4805 2.3047 5.5664 2.3047h31.488v9.2109c-0.03125 6.2656 2.4648 12.285 6.9297 16.688l8.8164 8.8164v4.6445h-7.8711c-4.3477 0-7.875 3.5234-7.875 7.8711v23.617h-7.8711c-4.3477 0-7.8711 3.5234-7.8711 7.8711v78.723c0 2.0859 0.82812 4.0898 2.3047 5.5664 1.4766 1.4727 3.4805 2.3047 5.5664 2.3047h188.93c2.0859 0 4.0898-0.83203 5.5664-2.3047 1.4766-1.4766 2.3047-3.4805 2.3047-5.5664v-78.723c0-2.0859-0.82812-4.0898-2.3047-5.5664-1.4766-1.4766-3.4805-2.3047-5.5664-2.3047h-7.8711v-23.617c0-2.0859-0.83203-4.0898-2.3086-5.5664-1.4766-1.4766-3.4766-2.3047-5.5664-2.3047h-7.8711v-4.6445l8.8164-8.8164c4.4648-4.4023 6.9609-10.422 6.9297-16.688v-9.2109h31.488c2.0859 0 4.0898-0.83203 5.5664-2.3047 1.4727-1.4766 2.3047-3.4805 2.3047-5.5664v-125.95c0-2.0898-0.83203-4.0898-2.3047-5.5664-1.4766-1.4766-3.4805-2.3086-5.5664-2.3086zm-62.977-15.742c0-4.3477 3.5234-7.8711 7.8711-7.8711s7.8711 3.5234 7.8711 7.8711v15.742h-15.742zm-31.488-7.8711c0-4.3477 3.5234-7.8711 7.8711-7.8711 4.3477 0 7.8711 3.5234 7.8711 7.8711v23.617l-15.742-0.003906zm-31.488-15.742v-0.003907c0-4.3477 3.5234-7.8711 7.8711-7.8711 4.3477 0 7.8711 3.5234 7.8711 7.8711v39.359h-15.742zm-31.488 15.742c0-4.3477 3.5234-7.8711 7.8711-7.8711s7.8711 3.5234 7.8711 7.8711v23.617l-15.742-0.003906zm-70.848 39.359h22.516-0.003906c-1.4258 5.4102-4.2617 10.344-8.2148 14.297-3.957 3.957-8.8906 6.7891-14.297 8.2188zm0 110.21v-22.512c5.4062 1.4258 10.34 4.2617 14.297 8.2148 3.9531 3.957 6.7891 8.8906 8.2148 14.297zm39.359 70.848h141.7v15.742l-141.7 0.003906zm157.44 31.488v62.977h-173.19v-62.977zm-15.742-77.383-0.003906 0.003906c0.019531 2.0938-0.80078 4.1055-2.2812 5.5859l-11.18 11.098v0.003906c-1.4492 1.5-2.2656 3.5-2.2812 5.5898v7.8711h-110.21v-7.8711c-0.015624-2.0898-0.83203-4.0898-2.2812-5.5898l-11.18-11.098v-0.003907c-1.4805-1.4805-2.3047-3.4922-2.2812-5.5859v-72.188c0-4.3477 3.5234-7.8711 7.8711-7.8711 4.3477 0 7.8711 3.5234 7.8711 7.8711v15.742c0.015626 2.0898 0.83594 4.0898 2.2852 5.5898l11.18 11.098-0.003906 0.003907c1.4805 1.4805 2.3047 3.4922 2.2852 5.5859v17.086c0 2.0859 0.82812 4.0898 2.3047 5.5664 1.4766 1.4727 3.4805 2.3047 5.5664 2.3047h102.34zm39.355-24.953h-22.512c1.4258-5.4062 4.2617-10.34 8.2148-14.297 3.957-3.9531 8.8906-6.7891 14.297-8.2148zm0-38.652c-9.6562 1.6328-18.566 6.2305-25.496 13.156-6.9258 6.9297-11.523 15.84-13.156 25.496h-95.172v-9.2109c0.035156-6.2656-2.4648-12.285-6.9258-16.688l-8.8164-8.8164v-12.516c0-8.4375-4.5039-16.234-11.809-20.453-7.3086-4.2188-16.309-4.2188-23.617 0-7.3047 4.2188-11.809 12.016-11.809 20.453v19.996c-6.6328-5.9648-14.82-9.9219-23.613-11.418v-32.902c9.6562-1.6328 18.566-6.2305 25.492-13.156 6.9297-6.9258 11.527-15.84 13.156-25.496h143.11c1.6328 9.6562 6.2305 18.57 13.156 25.496 6.9297 6.9258 15.84 11.523 25.496 13.156zm0-49.043v0.003906c-5.4062-1.4297-10.34-4.2617-14.297-8.2188-3.9531-3.9531-6.7891-8.8867-8.2148-14.297h22.512z"/>
  <path d="m581.05 392.12h-15.742c-4.3477 0-7.875 3.5273-7.875 7.875s3.5273 7.8711 7.875 7.8711h15.742c4.3477 0 7.8711-3.5234 7.8711-7.8711s-3.5234-7.875-7.8711-7.875z"/>
  <path d="m510.21 234.69c2.0859 0 4.0898-0.83203 5.5664-2.3086 1.4766-1.4766 2.3047-3.4766 2.3047-5.5664v-15.742c0-4.3477-3.5234-7.8711-7.8711-7.8711-4.3477 0-7.8711 3.5234-7.8711 7.8711v15.742c0 2.0898 0.82812 4.0898 2.3047 5.5664 1.4766 1.4766 3.4766 2.3086 5.5664 2.3086z"/>
  <path d="m426.71 264.66c3.0898 2.9805 8 2.9375 11.035-0.097656 3.0391-3.0352 3.082-7.9453 0.097656-11.035l-11.133-11.141v0.003906c-3.0742-3.0781-8.0625-3.0781-11.137 0-3.0781 3.0742-3.0781 8.0625 0 11.137z"/>
  <path d="m588.14 266.96c2.0859 0 4.0898-0.82813 5.5664-2.3047l11.141-11.133h-0.003906c3.0781-3.0742 3.0781-8.0625 0-11.137-3.0742-3.0781-8.0625-3.0781-11.137 0l-11.133 11.141v-0.003906c-2.25 2.25-2.9219 5.6367-1.707 8.5781 1.2188 2.9414 4.0898 4.8594 7.2734 4.8594z"/>
  <path d="m464.03 241.3c2.1875 3.7344 6.9766 5 10.727 2.8359 3.7461-2.1602 5.043-6.9453 2.9062-10.707l-7.8711-13.633c-1.0391-1.8242-2.7578-3.1562-4.7812-3.707-2.0234-0.55078-4.1836-0.26953-6 0.78125-1.8164 1.0469-3.1367 2.7773-3.6719 4.8047-0.53906 2.0273-0.24219 4.1836 0.81641 5.9922z"/>
  <path d="m545.63 244.18c3.7617 2.1719 8.5781 0.88281 10.75-2.8828l7.8711-13.633h0.003906c2.1367-3.7617 0.83984-8.543-2.9102-10.707-3.7461-2.1641-8.5391-0.89844-10.727 2.8359l-7.8711 13.633c-2.1758 3.7656-0.88281 8.5781 2.8828 10.754z"/>
  <path d="m266.18 565.31c-4.3477 0-7.875 3.5234-7.875 7.8711v15.742c0 4.3477 3.5273 7.875 7.875 7.875 4.3477 0 7.8711-3.5273 7.8711-7.875v-15.742c0-2.0898-0.83203-4.0898-2.3047-5.5664-1.4766-1.4766-3.4805-2.3047-5.5664-2.3047z"/>
  <path d="m182.68 535.34-11.141 11.129c-3.0742 3.0781-3.0742 8.0625 0 11.141 3.0781 3.0742 8.0664 3.0742 11.141 0l11.133-11.141c2.9805-3.0898 2.9375-8-0.097656-11.035-3.0352-3.0352-7.9453-3.0781-11.035-0.09375z"/>
  <path d="m349.66 535.34c-3.0898-2.9844-7.9961-2.9414-11.035 0.09375-3.0352 3.0352-3.0781 7.9453-0.09375 11.035l11.133 11.141h-0.003907c3.0781 3.0742 8.0625 3.0742 11.141 0 3.0742-3.0781 3.0742-8.0625 0-11.141z"/>
  <path d="m230.75 555.82c-3.7656-2.1719-8.5781-0.88281-10.754 2.8828l-7.8711 13.633c-1.0625 1.8086-1.3555 3.9688-0.82031 5.9961 0.53516 2.0234 1.8594 3.7539 3.6758 4.8047 1.8164 1.0469 3.9727 1.3281 5.9961 0.77734 2.0273-0.54688 3.7461-1.8828 4.7812-3.707l7.8711-13.633h0.003906c2.1719-3.7656 0.88281-8.5781-2.8828-10.754z"/>
  <path d="m312.35 558.7c-2.1875-3.7344-6.9805-5-10.727-2.8359-3.75 2.1641-5.0469 6.9453-2.9062 10.707l7.8711 13.633c2.1875 3.7344 6.9805 5 10.727 2.8359 3.7461-2.1602 5.0469-6.9453 2.9062-10.707z"/>
  <path d="m282 337.02h-0.078125c-19.684 0.011718-37.863 10.523-47.695 27.574-9.832 17.051-9.8242 38.051 0.019532 55.094 9.8438 17.043 28.031 27.539 47.715 27.539 19.684 0 37.871-10.496 47.715-27.539 9.8477-17.043 9.8516-38.043 0.019531-55.094-9.832-17.051-28.012-27.562-47.695-27.574zm-39.438 55.102c0.007812-9.0586 3.1367-17.844 8.8594-24.867 5.7227-7.0234 13.691-11.863 22.566-13.703l-0.054687 7.5039v-0.003906c-6.4141 1.3438-11.738 5.7891-14.207 11.859-2.4648 6.0703-1.7461 12.973 1.918 18.406 3.6641 5.4336 9.7891 8.6875 16.34 8.6797h7.875c2.1719 0 3.9336 1.7617 3.9336 3.9336 0 2.1758-1.7617 3.9375-3.9336 3.9375h-19.68c-4.3477 0-7.875 3.5234-7.875 7.8711 0 4.3477 3.5273 7.8711 7.875 7.8711h7.7852l0.078124 7.0859c-8.8828-1.8281-16.867-6.6602-22.602-13.688-5.7344-7.0273-8.8711-15.816-8.8789-24.887zm47.23 38.574-0.078124-7.4609c6.4492-1.2852 11.832-5.7031 14.348-11.777 2.5117-6.0742 1.8281-13.004-1.8281-18.469-3.6562-5.4648-9.8008-8.7461-16.375-8.7383h-7.875c-2.1719 0-3.9336-1.7617-3.9336-3.9336 0-2.1758 1.7617-3.9375 3.9336-3.9375h19.684c4.3477 0 7.8711-3.5234 7.8711-7.8711 0-4.3477-3.5234-7.875-7.8711-7.875h-7.9922l0.054687-7.0859v0.003907c11.957 2.418 22.121 10.242 27.508 21.188 5.3906 10.945 5.4023 23.77 0.03125 34.723-5.375 10.953-15.523 18.797-27.477 21.234z"/>
  <path d="m514.14 384.25h19.68c4.3477 0 7.8711-3.5234 7.8711-7.8711 0-4.3477-3.5234-7.8711-7.8711-7.8711h-7.9609l0.085938-7.7852c0.023437-2.0898-0.78125-4.1016-2.2422-5.5938-1.4609-1.4922-3.4531-2.3438-5.543-2.3672h-0.085937c-4.3125 0-7.8242 3.4727-7.8711 7.7852l-0.09375 8.3828c-6.4023 1.3555-11.711 5.7969-14.168 11.859-2.4609 6.0586-1.7461 12.945 1.9023 18.375 3.6484 5.4297 9.7539 8.6914 16.297 8.7031h7.8711c2.1719 0 3.9336 1.7617 3.9336 3.9336 0 2.1758-1.7617 3.9375-3.9336 3.9375h-19.68c-4.3477 0-7.875 3.5234-7.875 7.8711 0 4.3477 3.5273 7.875 7.875 7.875h7.7852l0.085937 7.957c0.046875 4.3125 3.5586 7.7852 7.8711 7.7852h0.085937c2.0898-0.023438 4.082-0.875 5.543-2.3672 1.4609-1.4922 2.2656-3.5039 2.2422-5.5898l-0.085938-8.1719c6.4375-1.293 11.805-5.7109 14.312-11.777 2.5078-6.0703 1.8242-12.988-1.8203-18.445-3.6484-5.4609-9.7773-8.7422-16.34-8.7539h-7.8711c-2.1758 0-3.9375-1.7617-3.9375-3.9336 0-2.1758 1.7617-3.9375 3.9375-3.9375z"/>
  <path d="m360.64 163.84h-188.93c-4.3477 0-7.875 3.5273-7.875 7.875v78.719c0 2.0898 0.83203 4.0898 2.3086 5.5664 1.4766 1.4766 3.4766 2.3047 5.5664 2.3047h7.8711v23.617c0 2.0898 0.82812 4.0898 2.3047 5.5664 1.4766 1.4766 3.4805 2.3047 5.5664 2.3047h7.8711v15.195c-0.011719 2.6328-1.3398 5.0859-3.5391 6.5312l-9.5234 6.375-0.003907 0.003906c-6.5977 4.3711-10.562 11.762-10.547 19.68v70.297c0 8.3516 3.3164 16.359 9.2227 22.266 5.9023 5.9062 13.914 9.2227 22.266 9.2227h7.8711v55.105-0.003906c-0.015624 7.8516 3.8789 15.195 10.387 19.586 6.5078 4.3906 14.773 5.2539 22.047 2.3008 1.7695 6.7266 6.4336 12.316 12.73 15.266s13.582 2.9492 19.879 0 10.961-8.5391 12.73-15.266c2.8047 1.1328 5.7969 1.7188 8.8203 1.7305 8.0938 0.003906 15.617-4.1602 19.914-11.02 3.5156 2.0469 7.5039 3.1328 11.57 3.1484 6.2578-0.019531 12.254-2.5117 16.68-6.9375s6.918-10.422 6.9375-16.68v-158.78c0.035156-6.2695-2.4648-12.285-6.9258-16.688l-6.5352-6.5352c-1.4805-1.4805-2.3047-3.4961-2.2812-5.5898v-9.2109h7.8711c2.0859 0 4.0898-0.82812 5.5664-2.3047 1.4766-1.4766 2.3047-3.4766 2.3047-5.5664v-23.617h7.8711c2.0898 0 4.0898-0.82812 5.5664-2.3047 1.4766-1.4766 2.3086-3.4766 2.3086-5.5664v-78.719c0-2.0898-0.83203-4.0898-2.3086-5.5664-1.4766-1.4766-3.4766-2.3086-5.5664-2.3086zm-23.613 322.75c0 4.3477-3.5273 7.8711-7.875 7.8711-4.3477 0-7.8711-3.5234-7.8711-7.8711v-23.613c0-4.3477-3.5234-7.875-7.8711-7.875s-7.8711 3.5273-7.8711 7.875v31.488-0.003906c0 4.3477-3.5234 7.875-7.8711 7.875-4.3477 0-7.875-3.5273-7.875-7.875v-31.484c0-4.3477-3.5234-7.875-7.8711-7.875-4.3477 0-7.8711 3.5273-7.8711 7.875v47.23c0 4.3477-3.5234 7.8711-7.8711 7.8711-4.3477 0-7.875-3.5234-7.875-7.8711v-47.23c0-4.3477-3.5234-7.875-7.8711-7.875-4.3477 0-7.8711 3.5273-7.8711 7.875v31.488-0.003906c0 4.3477-3.5234 7.875-7.8711 7.875s-7.875-3.5273-7.875-7.875v-118.08c0-4.3477-3.5234-7.8711-7.8711-7.8711s-7.8711 3.5234-7.8711 7.8711v47.23h-7.8711c-4.1719-0.011719-8.1719-1.6758-11.121-4.625s-4.6133-6.9453-4.625-11.117v-70.297c0.015625-2.6328 1.3438-5.0859 3.543-6.5352l9.5234-6.375c6.6016-4.3711 10.562-11.766 10.551-19.68v-15.195h110.21v9.2109c-0.03125 6.2695 2.4648 12.285 6.9297 16.688l6.5352 6.5352h-0.003907c1.4805 1.4805 2.3047 3.4961 2.2852 5.5898zm0-212.54h-141.7v-15.746h141.7zm15.742-31.488h-173.18v-62.977h173.18z"/>
 </g>
</svg>