<?xml version="1.0" encoding="UTF-8"?>
<!-- The Best Svg Icon site in the world: iconSvg.co, Visit us! https://iconsvg.co -->
<svg fill="#000000" width="800px" height="800px" version="1.1" viewBox="144 144 512 512" xmlns="http://www.w3.org/2000/svg">
 <g>
  <path d="m586.55 470.5-14.816-205.25c-0.83203-12.047-10.152-21.664-22.164-22.871-13.18-1.3047-24.984 7.8984-26.895 20.992l-18.938 129.45c-0.53906-0.17578-1.0625-0.37891-1.6172-0.51953-7.9453-2.0508-16.117-0.22266-22.426 5.0273l-49.727 41.363c-6.8008 5.6562-10.883 13.977-11.199 22.824l-2.957 83.113-4.7656-1.6719c-1.2344-0.4375-2.5898-0.36328-3.7695 0.20703-1.1797 0.5625-2.0859 1.5781-2.5195 2.8125l-4.7617 13.602-4.7695-13.602c-0.43359-1.2344-1.3398-2.2461-2.5195-2.8125-1.1797-0.5625-2.5352-0.64453-3.7695-0.20703l-4.7656 1.6719-2.9453-83.121c-0.31641-8.8438-4.3984-17.16-11.199-22.816l-49.727-41.363c-6.3086-5.25-14.48-7.0742-22.426-5.0273-0.55469 0.14062-1.0781 0.34375-1.6172 0.51953l-18.941-129.45c-1.9141-13.094-13.73-22.312-26.895-20.992-12.016 1.2109-21.336 10.828-22.164 22.859l-14.816 205.26c-0.054687 0.73438 0.058594 1.4766 0.33203 2.168l45.727 115.71-5.7227 2.0117c-2.5703 0.90234-3.918 3.7188-3.0195 6.2812l9.3867 26.754c0.43359 1.2344 1.3398 2.2461 2.5195 2.8125 0.66406 0.3125 1.3984 0.47266 2.1289 0.47266 0.55078 0 1.1016-0.089844 1.6328-0.27734l133.57-46.867 133.57 46.863c0.52734 0.19141 1.082 0.28125 1.6289 0.28125 0.73047 0 1.4609-0.16016 2.1367-0.48438 1.1797-0.5625 2.0859-1.5781 2.5195-2.8125l9.3867-26.754c0.90234-2.5703-0.45313-5.3789-3.0195-6.2812l-5.7227-2.0117 45.727-115.71c0.26563-0.67969 0.37891-1.4258 0.32813-2.1602zm-363.2-0.40625 14.742-204.16c0.5-7.2383 6.0977-13.02 13.316-13.738 7.8828-0.78516 15.008 4.7422 16.156 12.605l19.512 133.38c-2.7617 2.5547-4.9609 5.7227-6.3867 9.3906-3.5938 9.2344-1.4141 19.766 5.543 26.824l31.301 31.762c1.9141 1.9414 5.0312 1.9609 6.9727 0.050781 1.9414-1.9102 1.9609-5.0312 0.050781-6.9727l-31.301-31.762c-4.2383-4.2969-5.5625-10.707-3.375-16.328 1.8086-4.6562 5.6211-8.0469 10.461-9.2969 4.832-1.2578 9.8086-0.14062 13.652 3.0586l49.727 41.367c4.6484 3.8633 7.4375 9.5469 7.6523 15.594l3.0547 86.188-105.62 37.059zm44.453 145.41-6.1211-17.453 125.86-44.16 6.1211 17.453zm264.37 0-125.86-44.16 6.1211-17.453 125.86 44.16zm-1-30.395-105.62-37.059 3.0547-86.188c0.21484-6.0391 3.0039-11.73 7.6523-15.594l49.727-41.363c3.8398-3.1953 8.8281-4.3086 13.652-3.0586 4.8398 1.25 8.6523 4.6406 10.461 9.2969 2.1875 5.6211 0.86328 12.035-3.375 16.328l-31.301 31.762c-1.9102 1.9414-1.8828 5.0625 0.050781 6.9727 1.9414 1.9102 5.0625 1.8828 6.9727-0.050781l31.301-31.762c6.9531-7.0586 9.1289-17.59 5.543-26.824-1.4258-3.668-3.6289-6.8398-6.3867-9.3906l19.512-133.38c1.1523-7.8633 8.3047-13.391 16.156-12.605 7.2188 0.72656 12.82 6.5039 13.316 13.754l14.742 204.14z"/>
  <path d="m455.77 243.85c0-30.754-25.02-55.773-55.773-55.773s-55.773 25.02-55.773 55.773 25.02 55.773 55.773 55.773 55.773-25.02 55.773-55.773zm-101.68 0c0-25.316 20.598-45.914 45.914-45.914s45.914 20.598 45.914 45.914c0 25.32-20.598 45.918-45.914 45.918s-45.914-20.602-45.914-45.918z"/>
  <path d="m404.93 276.89v-3.957c7.1875-2.1406 12.48-8.7344 12.48-16.609 0-9.5977-7.8086-17.406-17.406-17.406-4.1602 0-7.5508-3.3867-7.5508-7.5469s3.3906-7.5508 7.5508-7.5508h12.48c2.7188 0 4.9258-2.207 4.9258-4.9258s-2.207-4.9258-4.9258-4.9258h-7.5508v-3.1602c0-2.7188-2.207-4.9258-4.9258-4.9258s-4.9258 2.207-4.9258 4.9258v3.9531c-7.1875 2.1406-12.48 8.7344-12.48 16.609 0 9.5977 7.8086 17.406 17.406 17.406 4.1602 0 7.5508 3.3906 7.5508 7.5508-0.003907 4.1602-3.3945 7.5469-7.5547 7.5469h-12.48c-2.7188 0-4.9258 2.207-4.9258 4.9258s2.207 4.9258 4.9258 4.9258h7.5508v3.1602c0 2.7188 2.207 4.9258 4.9258 4.9258 2.7227 0.003906 4.9297-2.1992 4.9297-4.9219z"/>
  <path d="m395.07 412.05v23.332c0 2.7188 2.207 4.9258 4.9258 4.9258s4.9258-2.207 4.9258-4.9258v-23.332c11.445-1.0469 40.641-5.6562 60.945-25.965 25.199-25.199 26.238-64.137 26.273-65.777 0.023437-1.3398-0.49219-2.6367-1.4453-3.582-0.95312-0.94531-2.2148-1.4609-3.582-1.4453-1.6406 0.035156-40.578 1.0781-65.777 26.273-7.3516 7.3516-12.605 15.875-16.418 24.297l0.003906-51.695c36.605-2.5508 65.633-33.07 65.633-70.316 0.007812-38.906-31.648-70.559-70.555-70.559-38.91 0-70.562 31.656-70.562 70.562 0 37.246 29.023 67.766 65.633 70.316v51.695c-3.8125-8.4219-9.0625-16.941-16.418-24.297-25.199-25.199-64.129-26.238-65.777-26.273-1.3164-0.003906-2.6367 0.49219-3.582 1.4453-0.94531 0.94531-1.4648 2.2422-1.4453 3.582 0.035156 1.6406 1.0742 40.578 26.273 65.777 20.309 20.297 49.504 24.914 60.949 25.961zm33.242-63.523c17.148-17.148 42.512-21.746 53.551-22.957-1.2148 11.035-5.8086 36.398-22.957 53.551-17.148 17.148-42.516 21.746-53.551 22.957 1.2109-11.035 5.8086-36.402 22.957-53.551zm-89.02-104.68c0-33.473 27.23-60.703 60.703-60.703s60.703 27.23 60.703 60.703-27.23 60.711-60.703 60.711c-33.469 0-60.703-27.238-60.703-60.711zm32.391 104.68c17.148 17.148 21.746 42.516 22.957 53.551-11.035-1.2148-36.398-5.8125-53.551-22.957-17.148-17.145-21.746-42.516-22.957-53.551 11.035 1.2109 36.402 5.8047 53.551 22.957z"/>
 </g>
</svg>