<?xml version="1.0" encoding="UTF-8"?>
<!-- The Best Svg Icon site in the world: iconSvg.co, Visit us! https://iconsvg.co -->
<svg fill="#000000" width="800px" height="800px" version="1.1" viewBox="144 144 512 512" xmlns="http://www.w3.org/2000/svg">
 <g>
  <path d="m234.69 266.18c0 4.3477-3.5273 7.8711-7.875 7.8711s-7.8711-3.5234-7.8711-7.8711c0-4.3477 3.5234-7.875 7.8711-7.875s7.875 3.5273 7.875 7.875"/>
  <path d="m301.02 280.24c-2.6211-6.1953-7.5898-11.094-13.82-13.629-6.2305-2.5312-13.211-2.4883-19.406 0.12109-2.9609 1.2461-6.3477 0.9375-9.0312-0.83203-2.6836-1.7656-4.3086-4.7578-4.3281-7.9688-0.023438-3.2109 1.5625-6.2227 4.2227-8.0273 2.6562-1.8008 6.043-2.1562 9.0156-0.94922 2.3711 0.95312 4.2578 2.8164 5.2383 5.1719 1.6875 4.0078 6.3047 5.8906 10.316 4.1992 4.0078-1.6875 5.8867-6.3047 4.1992-10.316-2.0508-4.9336-5.625-9.0859-10.203-11.84-4.5781-2.7578-9.918-3.9766-15.242-3.4766l-2-4.7227h0.003907c-1.6875-4.0117-6.3047-5.8906-10.312-4.207-4.0117 1.6875-5.8906 6.3047-4.207 10.312l2.0078 4.7695v0.003906c-6.125 5.3008-9.3398 13.219-8.6445 21.289 0.69531 8.0742 5.2148 15.324 12.156 19.504 6.9414 4.1797 15.465 4.7773 22.926 1.6133 2.957-1.2656 6.3516-0.96484 9.0469 0.79688 2.6914 1.7617 4.3242 4.7539 4.3516 7.9727 0.023437 3.2188-1.5625 6.2344-4.2266 8.0391-2.6641 1.8047-6.0547 2.1602-9.0312 0.94141-2.3672-0.94922-4.2539-2.8086-5.2344-5.1641-1.6875-4.0078-6.3047-5.8906-10.312-4.2031s-5.8906 6.3047-4.2031 10.312c1.9414 4.5938 5.1953 8.5195 9.3516 11.277 4.1602 2.7617 9.0352 4.2383 14.027 4.2461 0.69141 0 1.3789-0.14844 2.0625-0.21094l2.0078 4.7227c0.78516 1.957 2.3242 3.5195 4.2734 4.332 1.9492 0.81641 4.1406 0.8125 6.0859-0.007812 1.9453-0.82031 3.4805-2.3867 4.2617-4.3477 0.78125-1.9609 0.73828-4.1562-0.11328-6.0859l-2.0078-4.7617c4.0195-3.4922 6.8398-8.1602 8.0547-13.344 1.2148-5.1836 0.76562-10.617-1.2852-15.531z"/>
  <path d="m234.31 196.04c2.6406 0 5.1055-1.3242 6.5625-3.5234 1.4609-2.2031 1.7188-4.9883 0.6875-7.418l-4.5117-10.746c-0.80078-1.9375-2.3477-3.4766-4.2852-4.2695-1.9414-0.79688-4.1211-0.78125-6.0508 0.035156-1.9336 0.81641-3.457 2.3711-4.2383 4.3164-0.78516 1.9453-0.75391 4.125 0.074219 6.0508l4.5352 10.746v-0.003906c1.2266 2.9102 4.0703 4.8008 7.2266 4.8125z"/>
  <path d="m192.48 233.46c1.6211-4.0195-0.31641-8.5977-4.3281-10.234l-10.801-4.4219c-4.0312-1.6406-8.625 0.29688-10.262 4.3242-1.6406 4.0273 0.29687 8.625 4.3242 10.262l10.801 4.3945c4.0195 1.6211 8.5938-0.3125 10.234-4.3242z"/>
  <path d="m170.32 286.28c-4.0273 0.70703-6.8438 4.3789-6.4844 8.4492 0.36328 4.0742 3.7812 7.1914 7.8711 7.1797 0.46484 0 0.93359-0.042969 1.3906-0.12891l11.477-2.0469 0.003906 0.003906c4.2773-0.76562 7.1289-4.8555 6.3633-9.1367-0.76562-4.2812-4.8555-7.1289-9.1367-6.3633z"/>
  <path d="m295.94 189.82c0.94141 0.38672 1.9492 0.58984 2.9688 0.58984 3.207 0 6.0898-1.9414 7.2969-4.9141l4.3945-10.809c1.6328-4.0273-0.30859-8.6211-4.3398-10.254-4.0312-1.6367-8.6211 0.30469-10.258 4.3359l-4.3906 10.816c-1.6211 4.0195 0.3125 8.5977 4.3281 10.234z"/>
  <path d="m346.88 237.13c1.6406 0 3.2383-0.51562 4.5742-1.4688l9.4453-6.793v-0.003906c1.7383-1.1992 2.9219-3.043 3.2852-5.125 0.36328-2.0781-0.125-4.2188-1.3555-5.9375-1.2266-1.7148-3.0938-2.8672-5.1797-3.1953-2.0898-0.32422-4.2188 0.19922-5.9141 1.4609l-9.4453 6.793c-2.7812 1.9922-3.957 5.5508-2.9102 8.8086s4.0781 5.4648 7.5 5.4609z"/>
  <path d="m486.59 242.56c0 4.3477-3.5234 7.8711-7.8711 7.8711s-7.8711-3.5234-7.8711-7.8711 3.5234-7.8711 7.8711-7.8711 7.8711 3.5234 7.8711 7.8711"/>
  <path d="m523.86 247.14 0.96875-7.1562c0.58594-4.3086-2.4336-8.2773-6.7422-8.8594-4.3086-0.58594-8.2734 2.4336-8.8594 6.7422l-0.96875 7.1797c-9.1875 1.3203-17.16 7.0195-21.383 15.285-4.2266 8.2656-4.1758 18.066 0.13281 26.285 4.3125 8.2227 12.344 13.84 21.543 15.066 6.9805 1.0547 11.824 7.5156 10.879 14.516-0.94531 6.9961-7.332 11.941-14.344 11.102-7.0742-0.95703-12.035-7.4648-11.082-14.539 0.58203-4.3086-2.4414-8.2734-6.7461-8.8555-4.3086-0.58594-8.2734 2.4375-8.8594 6.7461-0.80859 6.1562 0.40625 12.41 3.4609 17.816 3.0586 5.4102 7.7891 9.6758 13.48 12.16l-0.96875 7.1641c-0.27734 2.0703 0.27734 4.1641 1.543 5.8242 1.2656 1.6641 3.1406 2.7539 5.2109 3.0312 0.35156 0.042968 0.70312 0.0625 1.0547 0.0625 3.9414 0 7.2734-2.9141 7.8047-6.8164l0.95312-7.0859h-0.003906c9.1758-1.3477 17.129-7.0508 21.344-15.312 4.2148-8.2578 4.168-18.047-0.12891-26.266-4.293-8.2148-12.301-13.844-21.488-15.102-5.1836-0.68359-9.4453-4.4219-10.793-9.4727-1.3516-5.0508 0.47266-10.418 4.6211-13.598 4.1484-3.1836 9.8047-3.5508 14.332-0.93359 4.5273 2.6133 7.0312 7.6992 6.3477 12.883-0.58203 4.3086 2.4375 8.2773 6.75 8.8594 4.3086 0.58203 8.2773-2.4414 8.8594-6.75 0.8125-6.1562-0.40234-12.406-3.4531-17.812-3.0508-5.4102-7.7773-9.6758-13.465-12.164z"/>
  <path d="m527 162.38c-2.0664-0.28125-4.1641 0.27344-5.8242 1.5391-1.6602 1.2656-2.75 3.1367-3.0312 5.207l-1.8672 13.738 0.003906-0.003906c-0.28125 2.0703 0.27344 4.168 1.5391 5.8281 1.2695 1.6602 3.1445 2.75 5.2148 3.0273 0.35156 0.046874 0.70703 0.074218 1.0625 0.074218 3.9336-0.003906 7.2617-2.9141 7.793-6.8125l1.8594-13.746v0.003907c0.27734-2.0703-0.27734-4.1641-1.5391-5.8242-1.2656-1.6641-3.1406-2.7539-5.2109-3.0312z"/>
  <path d="m448.2 205.42c3 0.011719 5.7461-1.6797 7.082-4.3633 1.3359-2.6836 1.0312-5.8945-0.78516-8.2812l-8.3984-11.02c-2.6367-3.4609-7.5781-4.1289-11.039-1.4961-3.457 2.6367-4.1289 7.5781-1.4922 11.039l8.3984 11.02c1.4844 1.9453 3.7852 3.0938 6.2344 3.1016z"/>
  <path d="m406.22 266.68c4.0742 1.5195 8.6094-0.55078 10.129-4.6211 1.5234-4.0742-0.54688-8.6094-4.6211-10.133l-12.988-4.8477c-4.0742-1.5234-8.6094 0.54688-10.129 4.6211-1.5234 4.0703 0.54688 8.6094 4.6211 10.129z"/>
  <path d="m599.89 202.54-11.02 8.3984-0.003906 0.003906c-3.457 2.6367-4.125 7.5781-1.4883 11.035 2.6367 3.457 7.5781 4.125 11.039 1.4883l11.02-8.4062c1.7227-1.2422 2.875-3.1289 3.1875-5.2305 0.3125-2.1016-0.23828-4.2422-1.5273-5.9297-1.2891-1.6914-3.2031-2.7891-5.3125-3.043-2.1094-0.25781-4.2344 0.35156-5.8867 1.6836z"/>
  <path d="m606.64 294.76c0.35547 4.0586 3.7539 7.1758 7.832 7.1797h0.70703l13.809-1.2266v-0.003907c4.3008-0.41797 7.4609-4.2266 7.0781-8.5352-0.38672-4.3047-4.1719-7.4961-8.4805-7.1445l-13.809 1.2266c-4.3125 0.39062-7.5039 4.1875-7.1367 8.5039z"/>
  <path d="m511.59 202.83c-23.691-0.41797-46.457 9.1797-62.699 26.43-16.242 17.254-24.453 40.555-22.613 64.176 1.8398 23.621 13.559 45.371 32.277 59.898 3.6719 2.6523 5.6367 7.0703 5.1484 11.574l-4.4492 32.906v0.78906c0 0.125-0.10938 0.22656-0.125 0.37109v-0.003906c0 0.34766 0.023438 0.69922 0.070312 1.0469-0.72656 8.418 1.5 16.828 6.2969 23.785 4.8008 6.957 11.875 12.023 20.004 14.328 8.5508 17.32 23.059 53.074 14.5 83.004-3.3086 11.543-10.25 21.711-19.797 28.992-4.8398-30.699-26.883-63.992-54.633-77.492 21.664-3.6055 33.473-15.957 33.473-35.73 0.007813-6.3867-2.7461-12.465-7.5547-16.676-4.8047-4.207-11.195-6.1289-17.527-5.2773-6.332 0.85156-11.984 4.3984-15.508 9.7266-4.0938-6.1914-11.023-9.918-18.445-9.918-7.4258 0-14.355 3.7266-18.449 9.918-3.5195-5.332-9.1758-8.8828-15.508-9.7383-6.3359-0.85547-12.73 1.0703-17.535 5.2812-4.8086 4.2109-7.5625 10.293-7.5547 16.684 0 19.766 11.809 32.125 33.504 35.754-24.406 13.523-42.672 35.926-50.996 62.559-15.742 4.7227-48.934 12.793-67.887 2.875-5.9258-2.9844-10.332-8.3086-12.152-14.691-7.0859-22.625 14.855-37.383 41.996-52.988 2.3633-1.3477 4.5898-2.6367 6.707-3.8906v0.003907c11.621-6.168 21.707-14.867 29.52-25.457 11.129-17.094 13.223-38.539 5.6133-57.465 4.9727-4.3008 8.4531-10.066 9.9414-16.473 1.4844-6.4023 0.90625-13.113-1.6602-19.164l-11.375-26.984c-1.1367-2.9297-0.60156-6.2422 1.4023-8.6602 12.887-16.938 17.617-38.711 12.926-59.473-4.6914-20.758-18.328-38.379-37.246-48.129s-41.18-10.633-60.809-2.4102c-19.633 8.2227-34.617 24.711-40.938 45.035-6.3203 20.324-3.3242 42.402 8.1836 60.309 11.508 17.902 30.344 29.801 51.457 32.496 3.3477 0.29687 6.2812 2.3672 7.6836 5.4219l10.855 25.727c2.4492 5.8438 6.5508 10.84 11.801 14.383 5.2539 3.5391 11.426 5.4688 17.758 5.5508 1.9844-0.03125 3.957-0.25391 5.8945-0.67188 5.1523 13.867 3.4609 29.348-4.5547 41.777-6.5547 8.6016-14.91 15.66-24.484 20.68-2.0469 1.2188-4.2422 2.4805-6.5195 3.7852-24.113 13.863-60.559 34.809-49.191 71.32v0.003906c3.0508 10.383 10.246 19.051 19.895 23.953 9.6875 4.6055 20.336 6.8242 31.055 6.4727 13.574-0.27344 27.059-2.2305 40.148-5.8281-0.42969 3.207-0.66406 6.4414-0.69531 9.6758 0.03125 47.547 28.859 73.762 81.211 73.762 49.957 0 78.43-23.914 80.941-67.457h-0.003906c16.637-9.3828 28.914-24.938 34.18-43.297 8.9492-31.395-2.7461-66.328-12.18-87.223l0.003906 0.003906c6.9492-1.6445 13.23-5.3633 18.012-10.664 4.7812-5.3008 7.8359-11.934 8.7539-19.016l2.7773-20.609 1.875-13.895c0.67969-4.2109 3.582-7.7305 7.5859-9.2031 24.105-9.8359 42.293-30.281 49.258-55.367 6.9648-25.082 1.9258-51.977-13.652-72.836s-39.938-33.328-65.965-33.77zm-72.84 223c3.0625 0 5.5117 1.6523 5.5117 3.6914 0 2.0391-2.4727 3.6914-5.5117 3.6914-3.0391 0-5.5117-1.6523-5.5117-3.6914 0-2.0391 2.457-3.6914 5.5117-3.6914zm-129.1-98.762 1.5273 3.6133-28.465 12.012-1.3789-3.2812v-0.003906c-1.75-4.0469-4.5391-7.5586-8.0859-10.18-3.5469-2.6211-7.7227-4.2539-12.105-4.7383-11.086-1.4297-21.5-6.125-29.91-13.488-8.4102-7.3633-14.441-17.062-17.324-27.863-2.832-10.031-2.625-20.684 0.59766-30.598 3.2266-9.918 9.3164-18.652 17.508-25.102 38.637-28.395 108.4 19.355 86.789 65.652-5.2188 11.215-14.641 20.898-9.1289 33.973zm90.355 217.93c7.4766-0.011719 14.52 3.5234 18.973 9.5352 4.4531 6.0078 5.7891 13.773 3.5977 20.926-2.1875 7.1523-7.6445 12.84-14.699 15.324v1.4492c0 4.3477-3.5234 7.8711-7.8711 7.8711s-7.875-3.5234-7.875-7.8711v-1.4492c-4.5859-1.6211-8.5625-4.6211-11.379-8.5898-2.8203-3.9688-4.3438-8.7109-4.3633-13.578 0-4.3477 3.5234-7.8711 7.8711-7.8711s7.8711 3.5234 7.8711 7.8711c0 3.1836 1.918 6.0547 4.8594 7.2734s6.3281 0.54297 8.582-1.707c2.25-2.25 2.9219-5.6367 1.7031-8.5781-1.2148-2.9414-4.0859-4.8594-7.2695-4.8594-7.4844 0.019531-14.531-3.5156-18.988-9.5234-4.457-6.0117-5.793-13.781-3.6016-20.934 2.1953-7.1562 7.6562-12.84 14.715-15.32v-1.457c0-4.3477 3.5273-7.8711 7.875-7.8711s7.8711 3.5234 7.8711 7.8711v1.457c4.5898 1.6172 8.5703 4.6133 11.391 8.582 2.8164 3.9688 4.3398 8.7109 4.3516 13.578 0 4.3477-3.5234 7.8711-7.8711 7.8711-4.3477 0-7.8711-3.5234-7.8711-7.8711 0-3.1836-1.918-6.0547-4.8594-7.2734-2.9414-1.2188-6.3281-0.54297-8.5781 1.707-2.2539 2.25-2.9258 5.6367-1.707 8.5781s4.0898 4.8594 7.2734 4.8594zm0-63.82v0.003906c-24.91 0.92969-47.637 14.465-60.324 35.918 13.129-22.711 38.188-43.105 60.324-43.105s47.23 20.402 60.332 43.113h-0.003906c-12.688-21.457-35.418-34.992-60.328-35.926zm115.11-82.566-39.359-5.3203 0.67578-5.0078 39.359 5.3203zm49.508-93.18c-2.1797 16.105-9.0938 34.039-23.828 42.508-10.637 6.1016-20.23 10.391-22.043 23.984l-0.78906 6.0938-39.359-5.3125 0.78906-5.6602c0.62891-4.9453-0.0625-9.9688-2.0117-14.559-1.9453-4.5898-5.0781-8.5781-9.0703-11.562-10.73-8.3438-18.73-19.695-22.988-32.602-4.2578-12.91-4.5781-26.793-0.91797-39.883 8.1719-29.699 41.578-58 73.398-44.594 15.5 6.8047 28.41 18.402 36.836 33.086 8.4297 14.684 11.926 31.68 9.9844 48.5z"/>
 </g>
</svg>