<?xml version="1.0" encoding="UTF-8"?>
<!-- The Best Svg Icon site in the world: iconSvg.co, Visit us! https://iconsvg.co -->
<svg fill="#000000" width="800px" height="800px" version="1.1" viewBox="144 144 512 512" xmlns="http://www.w3.org/2000/svg">
 <g>
  <path d="m203.2 462.98h141.7c4.3477 0 7.8711-3.5234 7.8711-7.8711v-31.488c0-4.3477-3.5234-7.8711-7.8711-7.8711h-8.6289l10.73-45.43c1-4.2305-1.625-8.4688-5.8594-9.4648-4.207-1.0234-8.4688 1.6172-9.4648 5.8594l-11.547 49.031h-92.121l-14.859-62.977h76.645c4.3477 0 7.8711-3.5234 7.8711-7.8711 0-4.3477-3.5234-7.8711-7.8711-7.8711h-86.59c-2.4062 0-4.6797 1.0977-6.1719 2.9883-1.4922 1.8867-2.043 4.3516-1.4883 6.6914l16.289 69.039h-8.6289c-4.3477 0-7.8711 3.5234-7.8711 7.8711v31.488c-0.003906 4.3477 3.5234 7.875 7.8711 7.875zm7.8711-31.488h125.95v15.742h-125.95z"/>
  <path d="m346.23 472.33c-3.5273 2.5312-4.3359 7.4531-1.8008 10.984 10.602 14.758 16.203 32.227 16.203 50.512 0 47.746-38.844 86.594-86.594 86.594-47.742-0.003907-86.59-38.848-86.59-86.594 0-18.285 5.6055-35.75 16.203-50.512 2.5352-3.5312 1.7305-8.4531-1.8008-10.984-3.5391-2.5469-8.4531-1.7344-10.984 1.8008-12.535 17.449-19.16 38.094-19.16 59.695 0 56.43 45.906 102.34 102.34 102.34s102.34-45.906 102.34-102.34c0-21.602-6.625-42.242-19.16-59.699-2.5352-3.5273-7.4453-4.3438-10.988-1.7969z"/>
  <path d="m242.56 533.82c0 17.363 14.125 31.488 31.488 31.488s31.488-14.125 31.488-31.488-14.125-31.488-31.488-31.488-31.488 14.125-31.488 31.488zm47.23 0c0 8.6836-7.0625 15.742-15.742 15.742-8.6836 0-15.742-7.0625-15.742-15.742 0-8.6836 7.0625-15.742 15.742-15.742 8.6836-0.003906 15.742 7.0586 15.742 15.742z"/>
  <path d="m502.34 344.89c0 4.3477 3.5234 7.8711 7.8711 7.8711h76.645l-14.859 62.977h-92.121l-9.6953-41.164c-1-4.2383-5.2891-6.8711-9.4648-5.8594-4.2305 0.99609-6.8555 5.2305-5.8594 9.4648l8.8789 37.559h-8.6289c-4.3477 0-7.8711 3.5234-7.8711 7.8711v31.488c0 4.3477 3.5234 7.8711 7.8711 7.8711h141.7c4.3477 0 7.8711-3.5234 7.8711-7.8711v-31.488c0-4.3477-3.5234-7.8711-7.8711-7.8711h-8.6328l16.293-69.043c0.55469-2.3398 0.003907-4.8047-1.4883-6.6914-1.4922-1.8867-3.7617-2.9844-6.168-2.9844h-86.594c-4.3477 0-7.8711 3.5234-7.8711 7.8711zm86.59 102.34h-125.95v-15.742h125.95z"/>
  <path d="m611.23 477.17c-2.4062-3.6094-7.2891-4.5898-10.918-2.1992-3.6211 2.4102-4.6055 7.2969-2.1992 10.918 9.4375 14.195 14.426 30.773 14.426 47.938 0 47.746-38.844 86.594-86.594 86.594-47.746 0-86.594-38.844-86.594-86.594 0-18.285 5.6055-35.75 16.203-50.512 2.5352-3.5312 1.7305-8.4531-1.8008-10.984-3.543-2.5469-8.4531-1.7344-10.984 1.8008-12.531 17.449-19.16 38.094-19.16 59.695 0 56.43 45.906 102.34 102.34 102.34 56.43 0 102.34-45.906 102.34-102.34 0.003906-20.277-5.8945-39.863-17.051-56.656z"/>
  <path d="m494.46 533.82c0 17.363 14.125 31.488 31.488 31.488s31.488-14.125 31.488-31.488-14.125-31.488-31.488-31.488c-17.359 0-31.488 14.125-31.488 31.488zm47.234 0c0 8.6836-7.0625 15.742-15.742 15.742-8.6836 0-15.742-7.0625-15.742-15.742 0-8.6836 7.0625-15.742 15.742-15.742 8.6797-0.003906 15.742 7.0586 15.742 15.742z"/>
  <path d="m439.14 433.77c-1.0273-4.2266-5.3047-6.8203-9.5039-5.8008-16.816 4.0703-34.809 4.6016-51.867 1.5586-4.3398-0.78125-8.3711 2.0859-9.1328 6.3672-0.76562 4.2773 2.082 8.3672 6.3672 9.1328 8.1914 1.4609 16.602 2.2031 24.996 2.2031 11.273 0 22.488-1.3281 33.34-3.957 4.2227-1.0195 6.8203-5.2773 5.8008-9.5039z"/>
  <path d="m266.18 313.41c4.3477 0 7.8711-3.5234 7.8711-7.8711 0-69.449 56.504-125.95 125.95-125.95s125.95 56.504 125.95 125.95c0 4.9375-0.28906 9.9336-0.85547 14.836-0.50391 4.3164 2.5898 8.2266 6.9102 8.7266 0.30469 0.039063 0.61328 0.050782 0.91406 0.050782 3.9414 0 7.3398-2.9531 7.8086-6.9648 0.64062-5.5039 0.96484-11.102 0.96484-16.648 0-78.133-63.562-141.7-141.7-141.7s-141.7 63.562-141.7 141.7c-0.003907 4.3477 3.5234 7.8711 7.8711 7.8711z"/>
  <path d="m400 226.81c4.3477 0 7.8711-3.5234 7.8711-7.8711s-3.5234-7.8711-7.8711-7.8711h-15.742c-4.3477 0-7.8711 3.5234-7.8711 7.8711v125.95c0 4.3477 3.5234 7.8711 7.8711 7.8711h31.488c4.3477 0 7.8711-3.5234 7.8711-7.8711l-0.003907-110.21c0-4.3477-3.5234-7.8711-7.8711-7.8711-4.3477 0-7.8711 3.5234-7.8711 7.8711v102.34h-15.742l-0.003906-110.21z"/>
  <path d="m337.02 337.02c-4.3477 0-7.8711 3.5234-7.8711 7.8711 0 4.3477 3.5234 7.8711 7.8711 7.8711h15.742c4.3477 0 7.8711-3.5234 7.8711-7.8711v-94.465c0-4.3477-3.5234-7.8711-7.8711-7.8711h-31.488c-4.3477 0-7.8711 3.5234-7.8711 7.8711v70.848c0 4.3477 3.5234 7.8711 7.8711 7.8711s7.8711-3.5234 7.8711-7.8711v-62.977h15.742v78.719z"/>
  <path d="m447.23 289.79c-4.3477 0-7.8711 3.5234-7.8711 7.8711v47.23c0 4.3477 3.5234 7.8711 7.8711 7.8711h31.488c4.3477 0 7.8711-3.5234 7.8711-7.8711v-62.977c0-4.3477-3.5234-7.8711-7.8711-7.8711h-15.742c-4.3477 0-7.8711 3.5234-7.8711 7.8711 0 4.3477 3.5234 7.8711 7.8711 7.8711h7.8711v47.23h-15.742v-39.359c-0.003907-4.3398-3.5273-7.8672-7.875-7.8672z"/>
 </g>
</svg>