<?xml version="1.0" encoding="UTF-8"?>
<!-- The Best Svg Icon site in the world: iconSvg.co, Visit us! https://iconsvg.co -->
<svg fill="#000000" width="800px" height="800px" version="1.1" viewBox="144 144 512 512" xmlns="http://www.w3.org/2000/svg">
 <g>
  <path d="m644.03 628.92-192.16-278.04v-77.855h157.44c3.2734-0.25 6.0508-2.5078 6.9609-5.6641 0.91406-3.1562-0.23047-6.5469-2.8672-8.5078l-41.406-36.602 42.508-35.266v-0.003906c2.3086-2.1523 3.1094-5.4805 2.0273-8.4492-1.082-2.9688-3.832-5.0039-6.9883-5.168h-157.44v-6.6133c0-4.3477-3.5234-7.8711-7.8711-7.8711-4.3477 0-7.8711 3.5234-7.8711 7.8711v184.13l-96.195 139.41c-2.3164 3.5234-1.4492 8.2422 1.9688 10.707 3.5039 2.2656 8.1641 1.4023 10.625-1.9688l35.426-51.406 20.074 19.051v0.003906c1.625 1.4648 3.7891 2.1875 5.9688 1.9922 2.1797-0.19141 4.1797-1.2852 5.5234-3.0156l15.742-21.965 27.477 27.867c1.4531 1.4844 3.4336 2.332 5.5078 2.3633h0.55078c2.2539-0.1875 4.3203-1.3359 5.668-3.1484l21.57-29.125 126.82 183.96h-185.7c-4.3477 0-7.8711 3.5273-7.8711 7.875s3.5234 7.8711 7.8711 7.8711h200.34c2.8555-0.023438 5.4766-1.5898 6.8477-4.0938 1.4297-2.6562 1.2188-5.8984-0.55078-8.3438zm-55.812-440.12-32.984 27.395c-1.7383 1.4453-2.7695 3.5664-2.832 5.8242 0.023437 2.2344 0.99609 4.3516 2.6758 5.8242l33.848 29.836h-137.05v-26.766h67.07c2.3359 0.53516 4.7852-0.027344 6.6562-1.5195 1.875-1.4961 2.9648-3.7578 2.9648-6.1562 0-2.3945-1.0898-4.6602-2.9648-6.1523-1.8711-1.4922-4.3203-2.0547-6.6562-1.5195h-67.07v-26.766zm-120.76 265.52-26.766-27.867c-1.5977-1.5977-3.8047-2.4258-6.0586-2.2852-2.2617 0.10547-4.3477 1.2344-5.668 3.0703l-16.375 22.277-15.742-14.641 47.23-68.094 42.508 61.48z"/>
  <path d="m291.29 451.4c-1.4844-2.0117-3.8359-3.2031-6.3359-3.2031s-4.8555 1.1914-6.3359 3.2031l-122.65 177.52c-1.5547 2.3477-1.7344 5.3516-0.47266 7.8711 1.3711 2.5078 3.9922 4.0742 6.8516 4.0938h245.53c2.0859 0 4.0898-0.82812 5.5664-2.3047s2.3047-3.4805 2.3047-5.5664c-0.027344-2.0391-0.84766-3.9844-2.2812-5.4336zm-6.375 17.871 34.715 50.223-12.91 17.477-21.254-22.043c-1.6016-1.5742-3.8008-2.3867-6.043-2.2344-2.2383 0.14844-4.3086 1.25-5.6875 3.0234l-12.754 17.32-12.121-11.574zm-108 156.34 62.977-91.316 16.688 15.742v0.003906c1.6055 1.5156 3.7773 2.2891 5.9844 2.125 2.1953-0.23047 4.1953-1.3711 5.5078-3.1484l12.516-17.004 21.176 22.043c1.457 1.4844 3.4375 2.332 5.5117 2.3594h0.55078c2.2539-0.18359 4.3203-1.332 5.668-3.1484l15.664-20.465 64.156 92.812z"/>
 </g>
</svg>