<?xml version="1.0" encoding="UTF-8"?>
<!-- The Best Svg Icon site in the world: iconSvg.co, Visit us! https://iconsvg.co -->
<svg fill="#000000" width="800px" height="800px" version="1.1" viewBox="144 144 512 512" xmlns="http://www.w3.org/2000/svg">
 <path d="m625.39 312.89v-0.79688 0.003906c-0.13672-1.2188-0.40625-2.418-0.79688-3.582 0.074218-0.4375 0.074218-0.88672 0-1.3242v-1.0625l-75.969-125.02c-0.27734-0.42188-0.58594-0.82031-0.92578-1.1914l-0.66406-0.92969c-1.0039-1.1484-2.2188-2.0938-3.5781-2.7852-1.2852-0.49219-2.6211-0.84766-3.9805-1.0586h-278.16c-1.3555 0.23047-2.6836 0.58594-3.9766 1.0586-1.3594 0.69141-2.5742 1.6367-3.5781 2.7852v0.92969c-0.33984 0.37109-0.65234 0.76953-0.92969 1.1914l-76.367 124.76v1.0625-0.003907c-0.074219 0.4375-0.074219 0.88672 0 1.3281-0.46484 1.1836-0.73438 2.4375-0.79297 3.7109v0.66406c0.10156 1.5781 0.41406 3.1406 0.92578 4.6406l0.66406 1.0625v-0.003906c-0.10156 0.70312-0.10156 1.418 0 2.1211l212.13 286.91c2.5039 3.3398 6.4336 5.3047 10.609 5.3047 4.1719 0 8.1016-1.9648 10.605-5.3047l212.13-286.91c0.45703-0.60156 0.8125-1.2734 1.0625-1.9883v-1.1914c0.72656-1.3789 1.2617-2.8516 1.5898-4.3789zm-363.67-97.445 41.895 83.926h-92.809zm86.84 83.926 51.445-85.781 51.441 85.781zm108.98 26.516-57.535 209.61-57.543-209.61zm-34.07-124.76h92.809l-41.895 83.926zm-97.316 84.059-41.895-84.059h92.809zm-11.137 40.703 59.527 217.04-160.16-217.04zm169.97 0h100.63l-160.16 217.04zm11.402-26.516 41.895-83.926 50.383 83.926z"/>
</svg>