<?xml version="1.0" encoding="UTF-8"?>
<!-- The Best Svg Icon site in the world: iconSvg.co, Visit us! https://iconsvg.co -->
<svg fill="#000000" width="800px" height="800px" version="1.1" viewBox="144 144 512 512" xmlns="http://www.w3.org/2000/svg">
 <g>
  <path d="m594.73 172.94h-270.34c-19.965 0-36.199 16.238-36.199 36.199v214.9c-8.0391-0.70312-16.113-0.60938-24.098 0.35547-0.082031-0.0625-0.11719-0.17969-0.21094-0.24219l-32.441-26.766c-1.0898-0.88281-2.4258-1.2891-3.8398-1.1758-1.3867 0.14844-2.6562 0.80859-3.5469 1.8906l-53.762 65.168c-1.8594 2.2344-1.5312 5.543 0.69141 7.3984l32.441 26.754c0.95703 0.77734 2.1289 1.207 3.3359 1.207 0.16797 0 0.33594-0.019531 0.50391-0.019531 0.46094-0.050781 0.88281-0.23047 1.3125-0.41016 3.5703 2.3945 7.3984 4.3672 11.43 5.8672-3.043 7.7656-1.543 16.93 4.6172 23.32 1.25 1.2812 2.6328 2.4023 4.1562 3.3477l56.648 35.297c0.85938 0.53516 1.8281 0.82031 2.7383 1.207v23.617c0 19.965 16.238 36.199 36.199 36.199h270.32c19.965 0 36.199-16.238 36.199-36.199l0.007813-381.71c0.019531-19.961-16.227-36.199-36.172-36.199zm-300.62 261.07 23.723-14.746 84.281-10.359 23.531 64.395c-11.715 7.9766-25.023 13.465-38.973 16.027l-41.156-40.859c-4.6289-4.5977-11.555-6.0039-17.621-3.5898l-17.172 6.8438c-13.738 5.4688-28.738 7.3984-43.379 5.5508-0.95703-0.125-1.7734-0.66016-2.2969-1.4805-0.91406-1.4688-0.46094-3.4023 1.0195-4.3242zm142.34 38.238-25.402-69.504 32.004-11.684 25.402 69.504zm-175.93-29.684c-3.0859 1.9297-5.2461 4.9453-6.0781 8.4922-0.82812 3.5469-0.21875 7.2227 1.6992 10.297 2.1719 3.5039 5.7734 5.8164 9.875 6.3398 16.406 2.0898 33.23-0.082031 48.598-6.2148l17.172-6.8633c2.1836-0.85938 4.6719-0.34766 6.3398 1.2891l43.18 42.867 9.1016 9.0352c0.62891 0.62891 1.1875 1.3125 1.6484 2.0586 1.625 2.5938 2.1406 5.668 1.457 8.6484-0.67188 2.9805-2.5 5.5195-5.0898 7.1484l-55.156 34.512c-3.8828 2.4258-8.8594 1.8789-12.082-1.3555l-3.0625-3.0195 5.2891-5.1133c3.8945-3.7695 6.0781-8.8359 6.1602-14.254 0.082031-5.4141-1.9609-10.547-5.7109-14.422-0.37891-0.38672-0.75391-0.76562-1.1445-1.1016l-49.109-43.348c-8.3125-7.3281-21.852-7.0117-29.82 0.68359l-17.277 16.75c-3.6719-1.0898-7.125-2.6641-10.391-4.6484l45.281-54.883c4.2305-0.66016 8.4922-1.1953 12.762-1.3438zm-31.73-33.734 24.352 20.078-47.062 57.078-24.352-20.07zm5.5625 112.98c-0.79688-0.49219-1.5312-1.0898-2.1719-1.7422-4.3984-4.5547-4.2812-11.828 0.25-16.215l18.652-18.094c2.1523-2.0781 4.9961-3.2344 7.9883-3.2344 2.793 0 5.4805 1.0195 7.5898 2.8555l49.656 43.883c1.8281 1.8906 2.8008 4.3672 2.7617 6.9688-0.042969 2.625-1.0898 5.0586-2.9805 6.8867l-9.1953 8.9219h-0.011718l-3.8945 3.7695c-3.1484 3.0547-8.2695 3.6094-11.996 1.2812zm386.07 69.055c0 14.168-11.535 25.703-25.695 25.703h-270.34c-14.168 0-25.703-11.547-25.703-25.703v-22.012c4.3555-0.54688 8.4297-2.3945 11.617-5.4805l0.26172-0.25 3.2109 3.168c3.9258 3.8945 9.0703 5.9102 14.266 5.9102 3.7148 0 7.4297-1.0195 10.781-3.0977l55.156-34.52c4.9844-3.0977 8.4492-7.9766 9.7617-13.688 1.3125-5.7188 0.32422-11.609-2.793-16.551-0.88281-1.4258-1.9414-2.7617-3.1484-3.957l-2.1523-2.1289c12.238-3.0742 23.867-8.3008 34.406-15.23 0.32422 0.25 0.64062 0.56641 1.0273 0.73437 0.70312 0.32422 1.457 0.49219 2.2148 0.49219 0.62109 0 1.2188-0.11719 1.8047-0.32422l41.848-15.293c2.7383-1.0078 4.1367-4.0195 3.1289-6.7266l-29-79.371c-0.19922-0.51562-0.50391-0.94531-0.82812-1.3633h114.74c2.8867 0 5.2461-2.3516 5.2461-5.2461 0-2.8984-2.3633-5.2461-5.2461-5.2461l-210.89-0.007813c-2.8984 0-5.2461 2.3516-5.2461 5.2461 0 2.8984 2.3516 5.2461 5.2461 5.2461h85.438l-37.02 13.531c-1.8047 0.66016-2.9492 2.2266-3.2852 3.9883l-83.82 10.297c-0.75391 0.09375-1.5 0.33594-2.1289 0.74609l-14.602 9.0781v-209.67c0-14.18 11.547-25.703 25.703-25.703h270.34c14.18 0 25.695 11.535 25.695 25.703z"/>
  <path d="m409.8 254.75h99.504c2.8867 0 5.2461-2.3516 5.2461-5.2461 0-2.8984-2.3633-5.2461-5.2461-5.2461h-99.504c-2.8867 0-5.2461 2.3516-5.2461 5.2461 0 2.8945 2.3516 5.2461 5.2461 5.2461z"/>
  <path d="m565.01 286.39h-210.9c-2.8984 0-5.2461 2.3633-5.2461 5.2461 0 2.8984 2.3516 5.2461 5.2461 5.2461h210.9c2.8867 0 5.2461-2.3516 5.2461-5.2461s-2.3594-5.2461-5.2461-5.2461z"/>
  <path d="m565.01 328.53h-210.9c-2.8984 0-5.2461 2.3516-5.2461 5.2461 0 2.8867 2.3516 5.2461 5.2461 5.2461h210.9c2.8867 0 5.2461-2.3633 5.2461-5.2461 0-2.8945-2.3594-5.2461-5.2461-5.2461z"/>
  <path d="m232.38 442.07c7.0312 0 12.762-5.7188 12.762-12.762 0-7.043-5.7188-12.762-12.762-12.762s-12.773 5.7188-12.773 12.762c0 7.043 5.7344 12.762 12.773 12.762zm0-15.031c1.25 0 2.2656 1.0195 2.2656 2.2656 0 2.4883-4.543 2.4883-4.543 0 0-1.2344 1.0195-2.2656 2.2773-2.2656z"/>
  <path d="m431.57 396.46c-7.0547 0-12.773 5.7188-12.773 12.762 0 7.0312 5.7188 12.762 12.773 12.762 7.0312 0 12.754-5.7188 12.754-12.762 0-7.0391-5.7227-12.762-12.754-12.762zm-2.2891 12.762c0-1.25 1.0195-2.2656 2.2656-2.2656 1.25 0 2.2773 1.0195 2.2773 2.2656 0.003906 2.5-4.543 2.5-4.543 0z"/>
  <path d="m565.01 412.79h-65.969c-2.8984 0-5.2461 2.3633-5.2461 5.2461 0 2.8867 2.3516 5.2461 5.2461 5.2461h65.969c2.8867 0 5.2461-2.3633 5.2461-5.2461 0-2.8828-2.3594-5.2461-5.2461-5.2461z"/>
  <path d="m565.01 454.91h-65.969c-2.8984 0-5.2461 2.3633-5.2461 5.2461 0 2.8984 2.3516 5.2461 5.2461 5.2461h65.969c2.8867 0 5.2461-2.3516 5.2461-5.2461 0-2.8867-2.3594-5.2461-5.2461-5.2461z"/>
  <path d="m565.01 497.05h-65.969c-2.8984 0-5.2461 2.3516-5.2461 5.2461 0 2.8984 2.3516 5.2461 5.2461 5.2461h65.969c2.8867 0 5.2461-2.3516 5.2461-5.2461s-2.3594-5.2461-5.2461-5.2461z"/>
  <path d="m565.01 539.19h-105.45c-2.8867 0-5.2461 2.3516-5.2461 5.2461 0 2.8984 2.3633 5.2461 5.2461 5.2461h105.45c2.8867 0 5.2461-2.3516 5.2461-5.2461 0-2.8945-2.3594-5.2461-5.2461-5.2461z"/>
 </g>
</svg>