<?xml version="1.0" encoding="UTF-8"?>
<!-- The Best Svg Icon site in the world: iconSvg.co, Visit us! https://iconsvg.co -->
<svg fill="#000000" width="800px" height="800px" version="1.1" viewBox="144 144 512 512" xmlns="http://www.w3.org/2000/svg">
 <g>
  <path d="m443.25 461.86c0 28.234 22.973 51.207 51.207 51.207s51.207-22.973 51.207-51.207-22.973-51.207-51.207-51.207-51.207 22.973-51.207 51.207z"/>
  <path d="m254.34 461.86c0 28.238 22.973 51.211 51.207 51.211s51.203-22.973 51.203-51.211c0-28.234-22.969-51.207-51.203-51.207-28.238 0-51.207 22.969-51.207 51.207z"/>
  <path d="m617.51 499.43-10.195-10.203c12.352-38.395-4.4805-85.414-45.387-126.33-7.0469-7.043-19.332-7.0469-26.379 0-3.5273 3.5273-5.4727 8.2109-5.4648 13.195 0 4.9844 1.9414 9.668 5.4648 13.191 36.41 36.414 38.934 86.742 6 119.66-14.699 14.699-32.879 22.469-52.586 22.469-22.738 0.003906-46.605-10.168-67.223-28.633-15.062-13.504-28.789-13.441-43.5 0.039063-20.238 18.535-43.977 28.742-66.836 28.742-19.844 0-38.152-7.8242-52.957-22.621-16.555-16.551-24.5-37.156-22.984-59.574 1.457-21.504 11.754-42.84 29.004-60.086 7.2695-7.2812 7.2695-19.113 0-26.379-7.0469-7.0469-19.336-7.0469-26.383 0-40.91 40.906-57.75 87.922-45.395 126.32l-10.207 10.207c-0.71094 0.71094-1.1094 1.6719-1.1094 2.6719v80.141c0 0.99609 0.39844 1.9609 1.1094 2.6641 0.71094 0.70703 1.6719 1.1133 2.6719 1.1133l80.137-0.003906c1.0039 0 1.9648-0.39844 2.6719-1.1094l10.203-10.203c37.215 12.035 82.082-3.4023 121.85-41.07 19.004 17.973 54.547 45.168 95.543 45.168 9.0391 0 17.859-1.375 26.27-4.0977l10.207 10.203c0.71094 0.71094 1.668 1.1133 2.6719 1.1133h80.137c2.0859 0 3.7773-1.6914 3.7773-3.7773l-0.007813-80.133c0.007813-1-0.39453-1.9688-1.1016-2.6758z"/>
  <path d="m403.23 403.69c57.551 0 104.21-46.664 104.21-104.21 0-57.555-46.664-104.21-104.21-104.21s-104.2 46.652-104.2 104.21c0 57.555 46.652 104.21 104.2 104.21zm-30.629-154.28c5.1758-6.9219 12.891-10.902 23.074-12.031v-8.082c0-4.1758 3.3789-7.5586 7.5586-7.5586 4.1719 0 7.5586 3.3789 7.5586 7.5586v8.4453c8.5508 1.5 15.566 5.332 20.469 11.766 4.1094 5.3789 7.0547 14.434 6.3086 19.852-0.16797 1.1992-1.4453 7.8281-9.7852 7.8281-8.3398 0-8.9219-6.957-8.9219-6.957-0.49219-4.2383-1.0664-6.0273-2.8555-8.4688-3.2539-4.2227-8.2461-5.4609-15.566-5.4609-4.3086 0-7.9336 0.94531-10.863 2.8203-3.5781 2.3477-4.8984 5.8008-5.3711 10.289-1.2578 11.754 10.617 15.977 13.543 16.922l19.039 6.2773c21.207 7.3008 24.539 21.434 24.539 30.637 0 12.82-8.2969 33.152-30.527 36.496v9.9219c0 4.1719-3.3867 7.5586-7.5586 7.5586-4.1758 0-7.5586-3.3867-7.5586-7.5586v-9.875c-6.9922-1.0195-16.281-4.1953-23.809-14.137-4.8008-6.2891-6.125-12.766-6.125-21.973 0 0 0.71094-7.25 9.7656-7.25 9.0391 0 8.9219 7.25 8.9219 7.25 0 13.895 10.918 17.289 18.57 17.289 16.465 0 19.66-10.016 19.648-15.184-0.03125-13.316-11.062-15.531-16.848-16.941 0 0-30.93-5.4258-37.414-22.426-7.5273-19.703-0.19141-31.098 4.207-37.008z"/>
 </g>
</svg>