<?xml version="1.0" encoding="UTF-8"?>
<!-- The Best Svg Icon site in the world: iconSvg.co, Visit us! https://iconsvg.co -->
<svg fill="#000000" width="800px" height="800px" version="1.1" viewBox="144 144 512 512" xmlns="http://www.w3.org/2000/svg">
 <g>
  <path d="m426.31 367.61c24.328 0.003907 47.66-9.6641 64.863-26.863 17.203-17.203 26.871-40.535 26.871-64.867 0-24.328-9.6641-47.66-26.867-64.863s-40.535-26.867-64.867-26.867c-24.328 0-47.66 9.6641-64.863 26.867-17.203 17.203-26.867 40.535-26.867 64.867 0.027344 24.32 9.7031 47.633 26.898 64.832 17.199 17.195 40.512 26.867 64.832 26.895zm0-171.65c21.199 0 41.527 8.4219 56.516 23.41 14.988 14.988 23.41 35.316 23.41 56.512 0 21.199-8.4219 41.527-23.41 56.516-14.988 14.988-35.316 23.41-56.512 23.41-21.199 0-41.527-8.4219-56.516-23.41-14.988-14.988-23.41-35.316-23.41-56.512 0.023437-21.191 8.4531-41.504 23.438-56.488 14.98-14.984 35.297-23.41 56.484-23.438z"/>
  <path d="m426.31 317.27c-4.3281-0.003907-8.4766-1.7227-11.535-4.7852-3.0586-3.0586-4.7812-7.207-4.7852-11.535 0-3.2617-2.6445-5.9062-5.9062-5.9062-3.2578 0-5.9023 2.6445-5.9023 5.9062 0.007812 6.1289 2.0156 12.09 5.7188 16.977 3.7031 4.8867 8.8984 8.4297 14.797 10.098v8.0117c0 3.2617 2.6406 5.9023 5.9023 5.9023 3.2617 0 5.9062-2.6406 5.9062-5.9023v-7.2695c9.4414-1.4219 17.52-7.5391 21.449-16.246 3.9297-8.707 3.1719-18.812-2.0117-26.832-5.1797-8.0234-14.082-12.871-23.633-12.871-4.3281 0-8.4805-1.7188-11.539-4.7773-3.0625-3.0625-4.7812-7.2148-4.7812-11.543s1.7188-8.4805 4.7812-11.543c3.0586-3.0625 7.2109-4.7812 11.539-4.7812 4.332 0 8.4805 1.7188 11.543 4.7812s4.7812 7.2148 4.7812 11.543c0 3.2617 2.6445 5.9023 5.9023 5.9023 3.2617 0 5.9062-2.6406 5.9062-5.9023-0.011718-6.3867-2.1875-12.582-6.1797-17.57-3.9922-4.9844-9.5625-8.4648-15.793-9.875v-6.1758c0-3.2617-2.6406-5.9062-5.9023-5.9062-3.2617 0-5.9023 2.6445-5.9023 5.9062v6.0586c-9.1914 1.8789-16.836 8.2148-20.395 16.895-3.5586 8.6758-2.5547 18.559 2.6719 26.344 5.2266 7.7891 13.988 12.461 23.367 12.457 5.832 0 11.223 3.1094 14.137 8.1602 2.918 5.0508 2.918 11.273 0 16.324-2.9141 5.0508-8.3047 8.1602-14.137 8.1602z"/>
  <path d="m631.24 603.69h-29.52v-313.58l11.176-8.6758-3.2227 41.895v0.003906c-0.25 3.25 2.1836 6.0859 5.4336 6.3359 0.15625 0.011719 0.30859 0.019532 0.46094 0.019532 3.082-0.003906 5.6445-2.3789 5.8789-5.4531l4.2578-55.375c0.12109-1.5664-0.38672-3.1172-1.4141-4.3047-1.0234-1.1914-2.4844-1.9258-4.0508-2.0352l-59.629-4.2578v-0.003906c-3.2539-0.23047-6.0781 2.2148-6.3125 5.4688-0.23047 3.2539 2.2148 6.0781 5.4688 6.3125l44.469 3.1758-180.17 139.86-124.86-98.344c-2.3125-1.8242-5.6133-1.6602-7.7383 0.37891l-123.45 118.43c-2.3125 2.2656-2.3711 5.9688-0.13281 8.3047 2.2422 2.3359 5.9453 2.4297 8.3047 0.21484l20.117-19.301v180.94h-27.551c-3.2617 0-5.9023 2.6445-5.9023 5.9023 0 3.2617 2.6406 5.9062 5.9023 5.9062h462.48c3.2617 0 5.9062-2.6445 5.9062-5.9062 0-3.2578-2.6445-5.9023-5.9062-5.9023zm-41.328 0h-27.551v-283.03l27.551-21.387zm-106.27-221.92 27.551-21.387v243.31h-27.551zm-11.809 221.92h-27.555v-191.37l27.551-21.387zm51.168-252.48 27.551-21.387v273.86h-27.551zm-95.352 74.012 4.8203-3.7383v182.2h-27.551v-190.66l15.457 12.176c2.1328 1.6758 5.1328 1.6875 7.2734 0.023437zm-62.09-43.203 27.551 21.703v199.96h-27.551zm-11.809 221.67h-27.551v-252.67l27.551 21.703zm-57.812-276.51 18.453 14.535v261.98h-27.551v-267.79zm-20.906 276.51h-27.555v-230.03l27.551-26.43zm-66.914-192.27 27.551-26.43 0.003906 218.7h-27.555z"/>
 </g>
</svg>