<?xml version="1.0" encoding="UTF-8"?>
<!-- The Best Svg Icon site in the world: iconSvg.co, Visit us! https://iconsvg.co -->
<svg fill="#000000" width="800px" height="800px" version="1.1" viewBox="144 144 512 512" xmlns="http://www.w3.org/2000/svg">
 <g>
  <path d="m587.41 358.73c-3.8125-23.586-15.207-45.281-32.461-61.805 1.6367-7.5156 2.4727-15.184 2.4922-22.875-0.03125-29.219-11.652-57.234-32.312-77.895s-48.676-32.285-77.895-32.316c-16.348-0.035157-32.492 3.6172-47.23 10.684-14.742-7.0664-30.887-10.719-47.234-10.684-29.219 0.03125-57.234 11.656-77.895 32.316s-32.281 48.676-32.312 77.895c0.019531 7.6914 0.85547 15.359 2.4961 22.875-17.254 16.523-28.652 38.223-32.465 61.805-22.121 9.0625-38.922 27.695-45.656 50.633-6.7383 22.938-2.6758 47.695 11.031 67.277 13.711 19.586 35.578 31.875 59.438 33.402 23.859 1.5234 47.113-7.8828 63.203-25.566 22.973 4.6445 46.832 1.6094 67.906-8.6445v76.438c0.074219 26.441-10.438 51.812-29.184 70.457-2.25 2.25-2.9219 5.6367-1.7031 8.5781 1.2148 2.9414 4.0859 4.8594 7.2695 4.8594h39.359c2.0898 0 4.0898-0.83203 5.5664-2.3086l10.18-10.176 10.18 10.18-0.003907-0.003907c1.4766 1.4766 3.4805 2.3086 5.5664 2.3086h39.359c3.1836 0 6.0547-1.918 7.2734-4.8594 1.2188-2.9414 0.54297-6.3281-1.707-8.5781-18.746-18.645-29.254-44.016-29.18-70.457v-76.438c21.07 10.258 44.93 13.301 67.902 8.6602 16.098 17.645 39.34 27.02 63.176 25.48 23.836-1.5391 45.68-13.824 59.375-33.395 13.695-19.566 17.754-44.297 11.039-67.219-6.7148-22.922-23.484-41.547-45.574-50.629zm-344.85 135.73c-16.703 0-32.723-6.6328-44.531-18.445-11.809-11.809-18.445-27.828-18.445-44.527 0-16.703 6.6367-32.723 18.445-44.531 11.809-11.812 27.828-18.445 44.531-18.445s32.719 6.6328 44.531 18.445c11.809 11.809 18.445 27.828 18.445 44.531-0.019531 16.695-6.6602 32.703-18.469 44.508-11.805 11.809-27.812 18.449-44.508 18.465zm195.43 125.95h-18.988l-13.438-13.438c-3.0742-3.0703-8.0547-3.0703-11.129 0l-13.438 13.438h-18.988c14.516-19.75 22.316-43.637 22.246-68.148v-85.512c5.6484-3.9102 10.918-8.3398 15.746-13.227 4.8242 4.9023 10.094 9.3398 15.742 13.266v85.473c-0.066407 24.512 7.7305 48.398 22.246 68.148zm40.73-149.57c-28.098 0.023438-54.746-12.492-72.668-34.133-1.543-1.7188-3.7422-2.6992-6.0508-2.6992-2.3125 0-4.5117 0.98047-6.0547 2.6992-17.922 21.641-44.566 34.156-72.668 34.133-3.4375-0.015625-6.8711-0.21484-10.289-0.59766 9.9531-17.309 12.93-37.762 8.3203-57.188s-16.457-36.363-33.125-47.352c-16.672-10.988-36.902-15.207-56.574-11.789 4.6094-18.754 14.859-35.645 29.371-48.387 2.2266-1.9609 3.1602-5 2.4219-7.8711-7.4609-28.289-1.3398-58.438 16.562-81.574 17.902-23.137 45.547-36.629 74.801-36.508 15.184-0.027343 30.148 3.6484 43.59 10.715 2.2812 1.1914 5.0039 1.1914 7.2891 0 13.441-7.0664 28.402-10.742 43.586-10.715 29.254-0.12109 56.898 13.371 74.801 36.508 17.902 23.137 24.023 53.285 16.562 81.574-0.73828 2.8711 0.19922 5.9102 2.4258 7.8711 14.512 12.75 24.762 29.648 29.359 48.41-19.641-3.3203-39.812 0.94922-56.43 11.938-16.617 10.992-28.438 27.883-33.066 47.262-4.6328 19.375-1.7266 39.789 8.125 57.105-3.418 0.38281-6.8516 0.58203-10.289 0.59766zm78.719 23.617v-0.003906c-16.699 0-32.719-6.6328-44.531-18.445-11.809-11.809-18.445-27.828-18.445-44.527 0-16.703 6.6367-32.723 18.445-44.531 11.812-11.812 27.832-18.445 44.531-18.445 16.703 0 32.723 6.6328 44.531 18.445 11.812 11.809 18.445 27.828 18.445 44.531-0.019531 16.695-6.6602 32.703-18.465 44.508-11.805 11.809-27.812 18.449-44.512 18.465z"/>
  <path d="m242.56 407.87c2.0859 0 4.0898 0.82812 5.5664 2.3047 1.4766 1.4766 2.3047 3.4805 2.3047 5.5664h15.746c-0.023437-4.8672-1.5469-9.6094-4.3633-13.578-2.8203-3.9648-6.793-6.9688-11.383-8.5898v-9.3203h-15.742v9.3203c-7.0547 2.4844-12.512 8.1719-14.703 15.324-2.1875 7.1523-0.85547 14.918 3.5977 20.926 4.4531 6.0117 11.496 9.5469 18.977 9.5352 3.1836 0 6.0547 1.918 7.2734 4.8594s0.54297 6.3281-1.707 8.5781c-2.2539 2.25-5.6367 2.9258-8.5781 1.707s-4.8594-4.0898-4.8594-7.2734h-15.746c0.019532 4.8672 1.543 9.6094 4.3633 13.578 2.8164 3.9688 6.793 6.9688 11.383 8.5898v9.3203h15.742v-9.3203c7.0547-2.4844 12.512-8.1719 14.699-15.324 2.1914-7.1523 0.85547-14.918-3.5977-20.926-4.4531-6.0117-11.492-9.5469-18.973-9.5352-4.3477 0-7.8711-3.5234-7.8711-7.8711 0-4.3477 3.5234-7.8711 7.8711-7.8711z"/>
  <path d="m557.44 407.87c2.0898 0 4.0898 0.82812 5.5664 2.3047 1.4766 1.4766 2.3086 3.4805 2.3086 5.5664h15.742c-0.019532-4.8672-1.543-9.6094-4.3633-13.578-2.8164-3.9648-6.793-6.9688-11.379-8.5898v-9.3203h-15.746v9.3203c-7.0547 2.4844-12.512 8.1719-14.699 15.324-2.1914 7.1523-0.85547 14.918 3.5977 20.926 4.4531 6.0117 11.496 9.5469 18.973 9.5352 3.1836 0 6.0547 1.918 7.2734 4.8594s0.54687 6.3281-1.707 8.5781c-2.25 2.25-5.6367 2.9258-8.5781 1.707-2.9414-1.2188-4.8594-4.0898-4.8594-7.2734h-15.742c0.019531 4.8672 1.543 9.6094 4.3594 13.578 2.8203 3.9688 6.793 6.9688 11.383 8.5898v9.3203h15.742l0.003906-9.3203c7.0547-2.4844 12.508-8.1719 14.699-15.324 2.1914-7.1523 0.85547-14.918-3.5977-20.926-4.4531-6.0117-11.496-9.5469-18.977-9.5352-4.3477 0-7.8711-3.5234-7.8711-7.8711 0-4.3477 3.5234-7.8711 7.8711-7.8711z"/>
  <path d="m400 211.07c-20.879 0-40.902 8.293-55.664 23.055-14.766 14.766-23.059 34.789-23.059 55.664 0 20.879 8.293 40.902 23.059 55.664 14.762 14.762 34.785 23.059 55.664 23.059 20.875 0 40.898-8.2969 55.664-23.059 14.762-14.762 23.055-34.785 23.055-55.664-0.023438-20.871-8.3242-40.879-23.082-55.637-14.758-14.758-34.766-23.059-55.637-23.082zm0 141.7c-16.703 0-32.723-6.6328-44.531-18.445-11.812-11.809-18.445-27.828-18.445-44.531 0-16.703 6.6328-32.719 18.445-44.531 11.809-11.809 27.828-18.445 44.531-18.445 16.699 0 32.719 6.6367 44.531 18.445 11.809 11.812 18.445 27.828 18.445 44.531-0.019531 16.699-6.6602 32.703-18.469 44.512-11.805 11.805-27.812 18.445-44.508 18.465z"/>
  <path d="m400 266.18c2.0859 0 4.0898 0.82812 5.5664 2.3047 1.4766 1.4766 2.3047 3.4766 2.3047 5.5664h15.742c-0.019531-4.8672-1.543-9.6094-4.3594-13.578-2.8203-3.9688-6.793-6.9688-11.383-8.5898v-9.3203h-15.746v9.3203c-7.0547 2.4844-12.508 8.1719-14.699 15.324-2.1914 7.1484-0.85547 14.918 3.5977 20.926 4.4531 6.0078 11.496 9.5469 18.977 9.5352 3.1836 0 6.0547 1.918 7.2695 4.8594 1.2188 2.9414 0.54688 6.3242-1.7031 8.5781-2.2539 2.25-5.6406 2.9258-8.582 1.707s-4.8594-4.0898-4.8594-7.2734h-15.742c0.019532 4.8672 1.543 9.6094 4.3633 13.574 2.8164 3.9688 6.793 6.9688 11.379 8.5938v9.3203h15.742l0.003906-9.3203c7.0547-2.4844 12.512-8.1719 14.699-15.324 2.1914-7.1523 0.85547-14.918-3.5977-20.926-4.4531-6.0117-11.496-9.5508-18.973-9.5352-4.3477 0-7.875-3.5234-7.875-7.8711s3.5273-7.8711 7.875-7.8711z"/>
 </g>
</svg>