<?xml version="1.0" encoding="UTF-8"?>
<!-- The Best Svg Icon site in the world: iconSvg.co, Visit us! https://iconsvg.co -->
<svg fill="#000000" width="800px" height="800px" version="1.1" viewBox="144 144 512 512" xmlns="http://www.w3.org/2000/svg">
 <g>
  <path d="m612.54 226.81h-99.188c-24.371-39.164-67.23-62.977-113.36-62.977-46.129 0-88.988 23.812-113.36 62.977h-99.188c-6.2578 0.019531-12.254 2.5156-16.676 6.9375-4.4258 4.4258-6.9219 10.422-6.9414 16.68v267.65c0.019531 6.2578 2.5156 12.254 6.9414 16.68 4.4219 4.4258 10.418 6.918 16.676 6.9375h149.57v31.488h-39.359c-6.2578 0.019531-12.254 2.5117-16.68 6.9375-4.4258 4.4258-6.918 10.422-6.9375 16.68v31.488c0 2.0859 0.82812 4.0898 2.3047 5.5664 1.4766 1.4727 3.4805 2.3047 5.5664 2.3047h236.16c2.0898 0 4.0898-0.83203 5.5664-2.3047 1.4766-1.4766 2.3047-3.4805 2.3047-5.5664v-31.488c-0.015625-6.2578-2.5117-12.254-6.9375-16.68-4.4219-4.4258-10.418-6.918-16.676-6.9375h-39.359v-31.488h149.57c6.2578-0.019531 12.254-2.5117 16.68-6.9375 4.4219-4.4258 6.918-10.422 6.9375-16.68v-267.65c-0.019531-6.2578-2.5156-12.254-6.9375-16.68-4.4258-4.4219-10.422-6.918-16.68-6.9375zm-212.54-47.23c31.316 0 61.348 12.441 83.492 34.586 22.145 22.145 34.586 52.176 34.586 83.496 0 31.316-12.441 61.348-34.586 83.492-22.145 22.145-52.176 34.586-83.492 34.586s-61.352-12.441-83.496-34.586c-22.145-22.145-34.586-52.176-34.586-83.492 0.039062-31.309 12.492-61.32 34.625-83.457 22.137-22.137 52.148-34.586 83.457-34.625zm129.96 86.594h66.836v188.93h-393.6v-188.93h66.832c-10.258 41.586 0.21094 85.57 28.102 118.08h-20.152c-7.3086-0.003906-14.328 2.8828-19.52 8.0312-5.1523 5.1797-8.043 12.191-8.0352 19.5 0.011719 7.3047 2.9141 14.312 8.082 19.48 5.1641 5.168 12.168 8.0781 19.473 8.0938h244.04c7.3125 0.003906 14.328-2.8828 19.523-8.0312 5.1523-5.1797 8.0391-12.191 8.0312-19.5-0.007812-7.3086-2.9141-14.312-8.0781-19.48-5.168-5.168-12.172-8.0781-19.477-8.0938h-20.152c27.891-32.508 38.359-76.492 28.102-118.08zm-216.01 133.82c12.227 10.277 26.195 18.277 41.25 23.613h-77.227c-4.7695-0.003906-9.0703-2.8789-10.898-7.2891-1.8242-4.4102-0.81641-9.4844 2.5547-12.863 2.2031-2.2266 5.2109-3.4766 8.3438-3.4609zm130.83 23.617v-0.003907c15.055-5.3359 29.027-13.336 41.25-23.613h35.977c4.7734 0.003906 9.0742 2.8789 10.898 7.2891 1.8242 4.4102 0.81641 9.4844-2.5547 12.863-2.2031 2.2266-5.2109 3.4766-8.3438 3.4609zm57.547 165.31c2.0859 0 4.0898 0.83203 5.5664 2.3086 1.4766 1.4766 2.3047 3.4766 2.3047 5.5664v23.617l-220.42-0.003907v-23.613c0-4.3477 3.5273-7.875 7.875-7.875zm-149.57-15.742v-31.488h94.465v31.488zm267.65-55.105c0 2.0898-0.82812 4.0898-2.3047 5.5664-1.4766 1.4766-3.4766 2.3047-5.5664 2.3047h-425.09c-4.3477 0-7.8711-3.5234-7.8711-7.8711v-23.617h440.83zm0-39.359h-440.83v-228.29c0-4.3477 3.5234-7.8711 7.8711-7.8711h90.766c-1.1797 2.5977-2.2812 5.1953-3.3047 7.8711h-79.59c-4.3477 0-7.8711 3.5234-7.8711 7.8711v204.68c0 2.0859 0.83203 4.0898 2.3047 5.5664 1.4766 1.4727 3.4805 2.3047 5.5664 2.3047h409.35c2.0859 0 4.0898-0.83203 5.5664-2.3047 1.4766-1.4766 2.3047-3.4805 2.3047-5.5664v-204.68c0-2.0859-0.82812-4.0898-2.3047-5.5664-1.4766-1.4766-3.4805-2.3047-5.5664-2.3047h-79.586c-1.0234-2.6758-2.125-5.2734-3.3047-7.8711h90.762c2.0898 0 4.0898 0.82812 5.5664 2.3047 1.4766 1.4766 2.3047 3.4805 2.3047 5.5664z"/>
  <path d="m581.05 502.34h-15.742c-4.3477 0-7.875 3.5234-7.875 7.8711 0 4.3477 3.5273 7.8711 7.875 7.8711h15.742c4.3477 0 7.8711-3.5234 7.8711-7.8711 0-4.3477-3.5234-7.8711-7.8711-7.8711z"/>
  <path d="m407.87 321.28h-15.746c-4.3477 0-7.8711-3.5234-7.8711-7.8711s-3.5234-7.8711-7.8711-7.8711c-4.3477 0-7.8711 3.5234-7.8711 7.8711 0 6.2617 2.4883 12.27 6.9141 16.699 4.4297 4.4297 10.438 6.918 16.699 6.918v7.8711c0 4.3477 3.5273 7.8711 7.875 7.8711s7.8711-3.5234 7.8711-7.8711v-7.8711c8.4375 0 16.234-4.5039 20.453-11.809 4.2188-7.3086 4.2188-16.309 0-23.617-4.2188-7.3047-12.016-11.809-20.453-11.809h-15.746c-4.3477 0-7.8711-3.5234-7.8711-7.8711 0-4.3477 3.5234-7.8711 7.8711-7.8711h15.746c2.0859 0 4.0898 0.82812 5.5664 2.3047 1.4766 1.4766 2.3047 3.4805 2.3047 5.5664 0 4.3477 3.5234 7.8711 7.8711 7.8711 4.3477 0 7.875-3.5234 7.875-7.8711 0-6.2617-2.4883-12.27-6.918-16.699-4.4297-4.4297-10.438-6.918-16.699-6.918v-7.8711c0-4.3477-3.5234-7.8711-7.8711-7.8711s-7.875 3.5234-7.875 7.8711v7.8711c-8.4375 0-16.23 4.5039-20.449 11.809-4.2188 7.3086-4.2188 16.309 0 23.617 4.2188 7.3047 12.012 11.809 20.449 11.809h15.746c4.3477 0 7.8711 3.5234 7.8711 7.8711s-3.5234 7.8711-7.8711 7.8711z"/>
  <path d="m400 400c27.141 0 53.168-10.785 72.359-29.977 19.195-19.191 29.977-45.219 29.977-72.359 0-27.145-10.781-53.172-29.977-72.363-19.191-19.191-45.219-29.977-72.359-29.977-27.145 0-53.172 10.785-72.363 29.977-19.191 19.191-29.973 45.219-29.973 72.363 0.03125 27.129 10.82 53.141 30.008 72.328 19.184 19.184 45.195 29.977 72.328 30.008zm0-188.93c22.965 0 44.988 9.1211 61.227 25.363 16.242 16.238 25.363 38.262 25.363 61.23 0 22.965-9.1211 44.988-25.363 61.227-16.238 16.242-38.262 25.363-61.227 25.363-22.969 0-44.992-9.1211-61.23-25.363-16.238-16.238-25.363-38.262-25.363-61.227 0.027344-22.961 9.1602-44.969 25.391-61.203 16.234-16.23 38.246-25.363 61.203-25.391z"/>
  <path d="m325.8 323.99c7.9102 22.348 25.484 39.93 47.832 47.848 1.9805 0.76562 4.1836 0.69922 6.1172-0.18359 1.9297-0.88672 3.4219-2.5117 4.1328-4.5117 0.71484-2 0.58984-4.2031-0.34375-6.1094-0.93359-1.9102-2.6016-3.3555-4.6172-4.0195-17.816-6.4414-31.844-20.477-38.281-38.297-1.457-4.0977-5.9609-6.2383-10.059-4.7812-4.0977 1.457-6.2383 5.9609-4.7812 10.055z"/>
  <path d="m462.67 291.36c0.20312 2.0703 0.30859 4.1562 0.30859 6.2969v0.003906c0 4.3477 3.5234 7.8711 7.8711 7.8711s7.8711-3.5234 7.8711-7.8711c0-2.6445-0.13281-5.2578-0.38672-7.8711v-0.003907c-0.43359-4.3242-4.293-7.4805-8.6172-7.043-4.3281 0.43359-7.4805 4.293-7.0469 8.6172z"/>
  <path d="m428.02 241.27c12.625 6.332 22.785 16.684 28.883 29.426 1.8945 3.875 6.5547 5.5039 10.453 3.6523 3.8945-1.8555 5.5742-6.4961 3.7617-10.414-7.6094-15.914-20.305-28.844-36.078-36.746-1.875-1.0078-4.0781-1.2148-6.1094-0.57031s-3.7109 2.0859-4.6641 3.9922c-0.94922 1.9062-1.0859 4.1133-0.37891 6.125 0.70703 2.0078 2.1992 3.6445 4.1328 4.5352z"/>
 </g>
</svg>