<?xml version="1.0" encoding="UTF-8"?>
<!-- The Best Svg Icon site in the world: iconSvg.co, Visit us! https://iconsvg.co -->
<svg width="800px" height="800px" version="1.1" viewBox="144 144 512 512" xmlns="http://www.w3.org/2000/svg">
 <defs>
  <clipPath id="a">
   <path d="m148.09 326h503.81v295h-503.81z"/>
  </clipPath>
 </defs>
 <g clip-path="url(#a)">
  <path d="m620.41 326.53h-188.93v20.992h188.93c2.7852 0 5.4531 1.1055 7.4219 3.0742s3.0742 4.6367 3.0742 7.4219v230.91c0 2.7852-1.1055 5.4531-3.0742 7.4219s-4.6367 3.0742-7.4219 3.0742h-440.83c-5.7969 0-10.496-4.6992-10.496-10.496v-230.91c0-5.7969 4.6992-10.496 10.496-10.496h188.93v-20.992h-188.93c-8.3516 0-16.359 3.3164-22.266 9.2227-5.9062 5.9023-9.2227 13.914-9.2227 22.266v230.91c0 8.3516 3.3164 16.363 9.2227 22.266 5.9062 5.9062 13.914 9.2227 22.266 9.2227h440.83c8.3516 0 16.363-3.3164 22.266-9.2227 5.9062-5.9023 9.2227-13.914 9.2227-22.266v-230.91c0-8.3516-3.3164-16.363-9.2227-22.266-5.9023-5.9062-13.914-9.2227-22.266-9.2227z"/>
 </g>
 <path d="m242.56 567.93c0 2.7852 1.1055 5.4531 3.0742 7.4219s4.6367 3.0742 7.4219 3.0742h52.48v-20.992h-42.855c-2.2031-12.883-8.3516-24.77-17.594-34.012-9.2461-9.2461-21.129-15.395-34.016-17.598v-64.715c12.887-2.2031 24.77-8.3516 34.016-17.598 9.2422-9.2422 15.391-21.129 17.594-34.012h42.855v-20.992h-52.48c-5.7969 0-10.496 4.6992-10.496 10.496 0 11.133-4.4258 21.812-12.297 29.688-7.875 7.8711-18.555 12.297-29.688 12.297-5.7969 0-10.496 4.6992-10.496 10.496v83.969-0.003906c0 2.7852 1.1055 5.457 3.0742 7.4219 1.9688 1.9688 4.6367 3.0742 7.4219 3.0742 11.133 0 21.812 4.4258 29.688 12.297 7.8711 7.875 12.297 18.555 12.297 29.688z"/>
 <path d="m557.44 379.01c0-2.7852-1.1055-5.4531-3.0742-7.4219s-4.6367-3.0742-7.4219-3.0742h-52.48v20.992h42.855c2.2031 12.883 8.3516 24.77 17.598 34.012 9.2422 9.2461 21.129 15.395 34.012 17.598v64.719-0.003906c-12.883 2.2031-24.77 8.3516-34.012 17.598-9.2461 9.2422-15.395 21.129-17.598 34.012h-42.855v20.992h52.48c2.7852 0 5.4531-1.1055 7.4219-3.0742s3.0742-4.6367 3.0742-7.4219c0-11.133 4.4258-21.812 12.297-29.688 7.875-7.8711 18.555-12.297 29.688-12.297 2.7852 0 5.4531-1.1055 7.4219-3.0742 1.9688-1.9648 3.0742-4.6367 3.0742-7.4219v-83.965c0-2.7852-1.1055-5.457-3.0742-7.4219-1.9688-1.9688-4.6367-3.0742-7.4219-3.0742-11.133 0-21.812-4.4258-29.688-12.297-7.8711-7.875-12.297-18.555-12.297-29.688z"/>
 <path d="m190.08 368.51h20.992v20.992h-20.992z"/>
 <path d="m588.93 368.51h20.992v20.992h-20.992z"/>
 <path d="m588.93 557.44h20.992v20.992h-20.992z"/>
 <path d="m190.08 557.44h20.992v20.992h-20.992z"/>
 <path d="m400 557.44c-21.742 0.003906-42.633-8.4297-58.285-23.52-15.648-15.086-24.84-35.66-25.633-57.383-0.79297-21.727 6.8711-42.914 21.383-59.102l-15.617-14.023h-0.003906c-18.086 20.176-27.672 46.562-26.746 73.645 0.92188 27.078 12.285 52.754 31.707 71.648 19.418 18.895 45.395 29.547 72.492 29.73 27.094 0.17969 53.211-10.125 72.883-28.758 19.672-18.637 31.371-44.156 32.66-71.223 1.2852-27.066-7.9492-53.578-25.766-73.992l-15.805 13.801c14.211 16.285 21.594 37.418 20.613 59.012-0.97656 21.59-10.242 41.969-25.867 56.902-15.625 14.934-36.406 23.266-58.016 23.262z"/>
 <path d="m274.05 284.54h94.465v-20.992h-83.969v-52.48c0-5.7969 4.6992-10.496 10.496-10.496h83.969c2.7812 0 5.4531 1.1055 7.4219 3.0742s3.0742 4.6367 3.0742 7.4219v10.496h-73.473v20.992h73.473v136.45h20.992v-136.45h73.473l-0.003906-20.992h-73.469v-10.496c0-5.7969 4.6992-10.496 10.496-10.496h83.969-0.003907c2.7852 0 5.457 1.1055 7.4219 3.0742 1.9688 1.9688 3.0742 4.6367 3.0742 7.4219v52.48h-83.965v20.992h94.465-0.003906c2.7852 0 5.457-1.1055 7.4219-3.0742 1.9688-1.9688 3.0742-4.6406 3.0742-7.4219v-62.977c0-8.3516-3.3164-16.359-9.2227-22.266-5.9023-5.9062-13.914-9.2227-22.266-9.2227h-83.965c-7.7734 0.027344-15.254 2.9453-20.992 8.1875-5.7383-5.2422-13.223-8.1602-20.992-8.1875h-83.969c-8.3516 0-16.359 3.3164-22.266 9.2227s-9.2227 13.914-9.2227 22.266v62.977c0 2.7812 1.1055 5.4531 3.0742 7.4219s4.6367 3.0742 7.4219 3.0742z"/>
 <path d="m392.65 403.04-41.984 41.984 14.84 14.84 23.996-24.035v48.133h20.992v-48.195l24.141 24.141 14.797-14.883-41.984-41.984c-4.1562-3.9102-10.641-3.9102-14.797 0z"/>
 <path d="m389.5 504.96h20.992v20.992h-20.992z"/>
</svg>