<?xml version="1.0" encoding="UTF-8"?>
<!-- The Best Svg Icon site in the world: iconSvg.co, Visit us! https://iconsvg.co -->
<svg fill="#000000" width="800px" height="800px" version="1.1" viewBox="144 144 512 512" xmlns="http://www.w3.org/2000/svg">
 <g>
  <path d="m395.08 352.77c-24.598 0-44.609-20.012-44.609-44.609v-31.156c0-3.8047 3.082-6.8867 6.8867-6.8867h75.441c3.8047 0 6.8867 3.082 6.8867 6.8867v31.16c0.003906 24.594-20.008 44.605-44.605 44.605zm-30.832-68.879v24.273c0 17 13.832 30.832 30.832 30.832s30.832-13.832 30.832-30.832v-24.273z"/>
  <path d="m432.8 529.89h-75.441c-3.8047 0-6.8867-3.082-6.8867-6.8867v-31.16c0-24.598 20.012-44.609 44.609-44.609s44.609 20.012 44.609 44.609v31.16c0 3.8047-3.0859 6.8867-6.8906 6.8867zm-68.551-13.777h61.664v-24.273c0-17-13.832-30.828-30.832-30.828s-30.832 13.832-30.832 30.832z"/>
  <path d="m508.24 579.09h-226.32c-3.8047 0-6.8867-3.082-6.8867-6.8867v-63.961c0-26.234 8.3125-51.16 24.035-72.074 11.562-15.379 26.848-27.848 44.098-36.168-17.25-8.3203-32.531-20.789-44.098-36.168-15.723-20.914-24.035-45.836-24.035-72.07v-63.961c0-3.8047 3.082-6.8867 6.8867-6.8867h226.32c3.8047 0 6.8867 3.082 6.8867 6.8867v63.961c0 26.234-8.3125 51.156-24.039 72.07-11.562 15.383-26.844 27.848-44.098 36.168 17.25 8.3203 32.531 20.789 44.098 36.168 15.73 20.918 24.039 45.84 24.039 72.074v63.961c0 3.8047-3.082 6.8867-6.8867 6.8867zm-219.43-13.773h212.54v-57.07c0-47.07-30.219-87.922-75.195-101.65-2.8984-0.88281-4.875-3.5586-4.875-6.5898s1.9805-5.7031 4.875-6.5898c44.98-13.73 75.199-54.582 75.199-101.65v-57.07h-212.55v57.07c0 47.07 30.219 87.922 75.195 101.65 2.8984 0.88281 4.875 3.5586 4.875 6.5898s-1.9805 5.7031-4.875 6.5898c-44.977 13.727-75.195 54.578-75.195 101.65z"/>
  <path d="m547.6 234.69h-305.04c-3.8047 0-6.8867-3.082-6.8867-6.8867v-29.523c0-2.3008 1.1523-4.4531 3.0664-5.7305l29.52-19.68c1.1328-0.75391 2.4609-1.1562 3.8203-1.1562h246c1.3594 0 2.6875 0.40234 3.8203 1.1562l29.52 19.68c1.918 1.2773 3.0703 3.4297 3.0703 5.7305v29.52c0 3.8047-3.0859 6.8906-6.8906 6.8906zm-298.15-13.777h291.27v-18.945l-24.719-16.48h-241.83l-24.719 16.48z"/>
  <path d="m508.24 628.29h-236.16c-1.3594 0-2.6875-0.40234-3.8203-1.1562l-29.52-19.68c-1.918-1.2812-3.0664-3.4297-3.0664-5.7344v-29.52c0-3.8047 3.082-6.8867 6.8867-6.8867h305.04c3.8047 0 6.8867 3.082 6.8867 6.8867v29.52c0 2.6094-1.4727 4.9922-3.8086 6.1602l-39.359 19.68c-0.95312 0.48047-2.0078 0.73047-3.0781 0.73047zm-234.07-13.777h232.45l34.098-17.051v-18.375h-291.27v18.945z"/>
  <path d="m395.08 461.01c-3.8047 0-6.8867-3.082-6.8867-6.8867v-59.039c0-3.8047 3.082-6.8867 6.8867-6.8867s6.8867 3.082 6.8867 6.8867v59.039c0 3.8008-3.082 6.8867-6.8867 6.8867z"/>
  <path d="m229.29 430.13c-0.11719-0.15625-0.46484-0.41406-1.0352-0.76953s-1.3008-0.73828-2.1875-1.1523c-0.88672-0.41406-1.875-0.80859-2.957-1.1836-1.0859-0.375-2.1797-0.64063-3.2812-0.79688v8.0469l1.8945 0.47266c2.0117 0.55078 3.8242 1.1523 5.4414 1.8047 1.6172 0.65234 2.9883 1.4609 4.1094 2.4258 1.125 0.96484 1.9922 2.1406 2.6016 3.5195 0.61328 1.3789 0.91797 3.0352 0.91797 4.9688 0 2.2461-0.39453 4.1602-1.1836 5.7383-0.78906 1.5781-1.8438 2.8672-3.1641 3.875-1.3203 1.0039-2.8398 1.7656-4.5547 2.2773-1.7148 0.51172-3.5195 0.80859-5.4141 0.88672v6.8633h-4.082v-6.9219c-2.7227-0.23438-5.4102-0.78906-8.0742-1.6562-2.6641-0.86719-5.0586-2.0117-7.1875-3.4297l4.2578-8.4609c0.15625 0.19922 0.58203 0.52344 1.2734 0.97656s1.5664 0.92578 2.6328 1.418c1.0664 0.49219 2.2695 0.96875 3.6094 1.418 1.3398 0.45312 2.7227 0.77734 4.1406 0.97656v-7.8672l-2.8398-0.82812c-1.9336-0.59375-3.6094-1.2305-5.0273-1.9219s-2.5938-1.4883-3.5195-2.3984c-0.92578-0.90625-1.6172-1.9531-2.0703-3.1367-0.45313-1.1836-0.67969-2.5625-0.67969-4.1406 0-2.0508 0.35547-3.875 1.0664-5.4727 0.71094-1.5977 1.6641-2.9648 2.8711-4.1133 1.2031-1.1445 2.6211-2.0391 4.2578-2.6914 1.6367-0.65234 3.4023-1.0742 5.293-1.2734v-5.9766h4.082v5.9766c2.5625 0.23438 4.9688 0.80859 7.2148 1.7148 2.25 0.91016 4.1992 1.832 5.8555 2.7812zm-16.387-0.53125c0 0.98438 0.34375 1.7656 1.0352 2.3359 0.69141 0.57031 1.7266 1.0742 3.1055 1.5078v-7.2773c-2.7578 0.23828-4.1406 1.3828-4.1406 3.4336zm11.477 18.812c0-1.0234-0.41406-1.8242-1.2422-2.3945-0.82812-0.57031-1.9336-1.0938-3.3125-1.5703v7.0977c3.0352-0.11719 4.5547-1.1602 4.5547-3.1328z"/>
  <path d="m217.96 490.53c-28.215 0-51.168-22.953-51.168-51.168s22.953-51.168 51.168-51.168c28.215 0 51.168 22.953 51.168 51.168s-22.953 51.168-51.168 51.168zm0-88.562c-20.617 0-37.391 16.773-37.391 37.391 0 20.617 16.773 37.391 37.391 37.391 20.617 0 37.391-16.773 37.391-37.391 0.003906-20.613-16.773-37.391-37.391-37.391z"/>
  <path d="m593.37 351.41c-0.11719-0.15625-0.46484-0.41406-1.0352-0.76953-0.57031-0.35547-1.3008-0.73828-2.1875-1.1523-0.88672-0.41406-1.8711-0.80859-2.957-1.1836s-2.1797-0.64063-3.2852-0.80078v8.0469l1.8945 0.47266c2.0117 0.55469 3.8242 1.1523 5.4414 1.8047 1.6172 0.65234 2.9883 1.4609 4.1133 2.4258s1.9922 2.1406 2.6016 3.5195c0.61328 1.3789 0.91797 3.0352 0.91797 4.9688 0 2.25-0.39453 4.1602-1.1836 5.7383s-1.8438 2.8672-3.1641 3.875c-1.3203 1.0039-2.8398 1.7656-4.5547 2.2773-1.7148 0.51172-3.5195 0.80859-5.4102 0.88672v6.8633h-4.082v-6.9219c-2.7227-0.23828-5.4141-0.78906-8.0742-1.6562-2.6602-0.86719-5.0586-2.0117-7.1875-3.4297l4.2578-8.4609c0.15625 0.19922 0.58203 0.52344 1.2734 0.97656s1.5664 0.92578 2.6328 1.418c1.0664 0.49219 2.2695 0.96484 3.6094 1.418 1.3398 0.45313 2.7227 0.78125 4.1406 0.97656v-7.8672l-2.8398-0.82813c-1.9336-0.59375-3.6094-1.2305-5.0273-1.9219-1.418-0.69141-2.5938-1.4883-3.5195-2.3945-0.92578-0.90625-1.6172-1.9531-2.0703-3.1367-0.45312-1.1836-0.67969-2.5625-0.67969-4.1406 0-2.0508 0.35547-3.875 1.0664-5.4727 0.71094-1.5977 1.6641-2.9648 2.8711-4.1094 1.2031-1.1445 2.6211-2.0391 4.2578-2.6914s3.4023-1.0742 5.293-1.2695v-5.9766h4.082v5.9766c2.5625 0.23828 4.9688 0.80859 7.2148 1.7148s4.1992 1.832 5.8555 2.7812zm-16.387-0.53125c0 0.98438 0.34375 1.7656 1.0352 2.3359 0.69141 0.57031 1.7266 1.0742 3.1055 1.5078v-7.2773c-2.7578 0.23828-4.1406 1.3828-4.1406 3.4336zm11.477 18.809c0-1.0234-0.41406-1.8242-1.2422-2.3945-0.82812-0.57031-1.9336-1.0938-3.3125-1.5664v7.0977c3.0352-0.11719 4.5547-1.1602 4.5547-3.1367z"/>
  <path d="m582.04 411.8c-28.215 0-51.168-22.953-51.168-51.168 0-28.215 22.953-51.168 51.168-51.168 28.215 0 51.168 22.953 51.168 51.168 0 28.215-22.953 51.168-51.168 51.168zm0-88.559c-20.617 0-37.391 16.773-37.391 37.391 0 20.617 16.773 37.391 37.391 37.391 20.617 0 37.391-16.773 37.391-37.391 0-20.617-16.773-37.391-37.391-37.391z"/>
 </g>
</svg>