<?xml version="1.0" encoding="UTF-8"?>
<!-- The Best Svg Icon site in the world: iconSvg.co, Visit us! https://iconsvg.co -->
<svg fill="#000000" width="800px" height="800px" version="1.1" viewBox="144 144 512 512" xmlns="http://www.w3.org/2000/svg">
 <g>
  <path d="m513.25 577.7-22.043-74.102h0.003907c-2.6797-11.547-9.1914-21.852-18.473-29.227-9.2852-7.375-20.789-11.391-32.645-11.391h-80.086c-11.887-0.019531-23.43 4-32.734 11.398-9.3047 7.3984-15.824 17.738-18.484 29.324l-22.148 75.465c-1.375 6.1719-2.082 12.469-2.0977 18.789v1.4688c0 8.3516 3.3164 16.363 9.2227 22.266 5.9062 5.9062 13.914 9.2227 22.266 9.2227h167.93c8.3516 0 16.363-3.3164 22.266-9.2227 5.9062-5.9023 9.2227-13.914 9.2227-22.266v-2.832c0-6.3633-0.73828-12.703-2.2031-18.895zm-92.258-41.25c2.7812 0 5.4531 1.1094 7.4219 3.0742 1.9648 1.9688 3.0742 4.6406 3.0742 7.4219v31.488c0 2.7852-1.1094 5.4531-3.0742 7.4219-1.9688 1.9688-4.6406 3.0742-7.4219 3.0742h-10.496c0 5.7969-4.6992 10.496-10.496 10.496s-10.496-4.6992-10.496-10.496h-10.496c-5.7969 0-10.496-4.6992-10.496-10.496 0-5.7969 4.6992-10.496 10.496-10.496h31.488v-10.496h-31.488c-5.7969 0-10.496-4.6992-10.496-10.496v-31.488c0-5.7969 4.6992-10.496 10.496-10.496h10.496c0-5.7969 4.6992-10.496 10.496-10.496s10.496 4.6992 10.496 10.496h10.496c5.7969 0 10.496 4.6992 10.496 10.496s-4.6992 10.496-10.496 10.496h-31.488v10.496z"/>
  <path d="m473.47 305.54h-31.488c-11.367-0.0625-22.434 3.625-31.488 10.496v-32.957c8.9883-2.3242 16.953-7.5586 22.652-14.887 5.6953-7.332 8.8047-16.344 8.8359-25.629 0.074219-28.309-13.383-54.949-36.215-71.688-3.5-2.3086-8.0391-2.3086-11.543 0-22.832 16.738-36.289 43.379-36.211 71.688 0.027344 9.2852 3.1367 18.297 8.832 25.629 5.6992 7.3281 13.664 12.562 22.656 14.887v32.957c-9.0547-6.8711-20.125-10.559-31.488-10.496h-31.488c-5.7969 0-10.496 4.6992-10.496 10.496 0 13.918 5.5273 27.266 15.371 37.109 9.8398 9.8398 23.191 15.371 37.109 15.371h20.992v10.496h20.992v-10.496h20.992c13.918 0 27.266-5.5312 37.105-15.371 9.8438-9.8438 15.371-23.191 15.371-37.109 0-2.7852-1.1055-5.4531-3.0742-7.4219-1.9648-1.9688-4.6367-3.0742-7.418-3.0742z"/>
  <path d="m345 443.66c4.9297-1.0938 9.9609-1.6562 15.008-1.6758h80.086c5.0117 0.019531 10.012 0.58203 14.902 1.6758l7.9805-30.648c0.79297-3.1367 0.097657-6.4688-1.8906-9.0234-2.0703-2.625-5.2656-4.1055-8.6055-3.9883h-104.96c-3.2305-0.019531-6.2891 1.4531-8.293 3.9883-1.9883 2.5547-2.6875 5.8867-1.8906 9.0234z"/>
 </g>
</svg>