<?xml version="1.0" encoding="UTF-8"?>
<!-- The Best Svg Icon site in the world: iconSvg.co, Visit us! https://iconsvg.co -->
<svg fill="#000000" width="800px" height="800px" version="1.1" viewBox="144 144 512 512" xmlns="http://www.w3.org/2000/svg">
 <g>
  <path d="m456.84 179.58c-4.3633 12.051-15.965 20.582-29.168 20.582h-55.324c-13.203 0-24.801-8.5352-29.18-20.582z"/>
  <path d="m499.43 179.58h-31.707c-4.7461 17.969-21.141 31.078-40.031 31.078h-55.324c-18.926 0-35.297-13.109-40.031-31.078h-31.73c-8.6797 0-15.742 7.0625-15.742 15.742v409.34c0 8.6797 7.0625 15.742 15.742 15.742h198.85c8.668 0 15.742-7.0625 15.742-15.742v-409.34c-0.019531-8.6797-7.0938-15.742-15.766-15.742zm-33.133 251.62c-11.418 25.914-37.07 42.645-65.391 42.645-8.8164 0-17.434-1.6055-25.664-4.7969-12.02 9.793-26.984 15.113-42.539 15.113-1.5234-0.21875-2.7305-0.042968-4.1133-0.13672-2.3711-0.14844-4.3438-1.8594-4.8281-4.168-0.47266-2.3398 0.66016-4.6797 2.793-5.7422 9.7305-4.9023 17.906-12.195 23.848-21.234-20.781-20.773-26.809-52.07-14.84-79.254 11.418-25.926 37.094-42.668 65.41-42.668 9.918 0 19.598 2.0352 28.738 6.0781 17.465 7.6836 30.891 21.707 37.809 39.496 6.9102 17.797 6.4688 37.203-1.2227 54.668z"/>
  <path d="m370.76 459.07c-6.4766 5.8359-14.105 10.023-22.316 12.395 5.1836-4.9141 9.6367-10.578 13.215-16.867 1.2266-2.1641 0.76562-4.8789-1.0898-6.5273-19.934-17.645-26.125-45.836-15.406-70.199 9.1719-20.855 29.23-34.605 51.766-36.098-0.74609 0.90234-1.25 2.0156-1.25 3.2852v8.4688c-2.3398 0.48438-4.6602 1.1641-6.8945 2.3203-13.457 6.9062-18.777 23.469-11.883 36.934 4.6172 9.0039 13.781 14.727 23.93 14.906 6.2656 0.11719 11.922 3.6406 14.789 9.2031 2.0469 4.0195 2.4336 8.6055 1.0508 12.898-1.3867 4.3047-4.3555 7.8086-8.3867 9.8672-4.0195 2.0664-8.6055 2.4336-12.922 1.0703-4.3047-1.3867-7.8086-4.3672-9.8672-8.3984-1.3242-2.5703-4.4922-3.5703-7.0742-2.2773-2.5703 1.332-3.6016 4.4922-2.2773 7.0742 3.3477 6.5195 9.0352 11.348 16.008 13.594 1.1641 0.36719 2.3516 0.62891 3.5273 0.82812v8.2383c0 1.2891 0.52344 2.457 1.3125 3.3594-7.0938-0.45312-14.012-2.0664-20.613-4.9844-1.8711-0.80078-4.0664-0.46484-5.6172 0.91016z"/>
  <path d="m456.68 426.95c-9.1641 20.844-29.223 34.605-51.758 36.086 0.74609-0.90234 1.25-2.0156 1.25-3.2852v-8.4062c2.3828-0.51562 4.6914-1.2266 6.9062-2.3828 6.5195-3.3359 11.336-9.0156 13.582-15.984 2.2461-6.9922 1.625-14.41-1.7109-20.93-4.6289-9.0156-13.793-14.727-23.93-14.906-6.2656-0.11719-11.922-3.6406-14.777-9.1953-4.2617-8.3008-0.97656-18.535 7.3359-22.809 8.3008-4.293 18.535-0.96484 22.797 7.3359 1.332 2.5938 4.4922 3.5781 7.0742 2.2656 2.5625-1.3125 3.6016-4.4922 2.2656-7.0625-4.0508-7.8828-11.43-12.879-19.531-14.348v-8.3125c0-1.3008-0.52344-2.457-1.3125-3.3789 7.1055 0.46094 14.023 2.0781 20.637 4.9844 30.723 13.551 44.723 49.594 31.172 80.328z"/>
 </g>
</svg>