<?xml version="1.0" encoding="UTF-8"?>
<!-- The Best Svg Icon site in the world: iconSvg.co, Visit us! https://iconsvg.co -->
<svg width="800px" height="800px" version="1.1" viewBox="144 144 512 512" xmlns="http://www.w3.org/2000/svg">
 <defs>
  <clipPath id="a">
   <path d="m148.09 179h503.81v472.9h-503.81z"/>
  </clipPath>
 </defs>
 <g clip-path="url(#a)">
  <path d="m596.8 525.95h-15.742v-14.484h-0.003906c14.988-12.77 23.621-31.473 23.617-51.168v-8.9727c-0.015625-13.605-5.4297-26.652-15.051-36.273-9.625-9.6211-22.668-15.035-36.277-15.051h-7.5547c-13.609 0.015625-26.652 5.4297-36.273 15.051-9.625 9.6211-15.035 22.668-15.055 36.273v8.957c-0.003907 19.695 8.6289 38.398 23.617 51.168v14.5h-21.27c-4.4531-9.3867-11.473-17.328-20.246-22.898-8.7695-5.5703-18.941-8.5469-29.332-8.5898h-15.742v-14.484c14.988-12.77 23.621-31.473 23.613-51.168v-8.9727c-0.015624-13.605-5.4297-26.652-15.051-36.273-9.6211-9.6211-22.668-15.035-36.273-15.051h-7.5586c-13.605 0.015625-26.652 5.4297-36.273 15.051-9.6211 9.6211-15.035 22.668-15.051 36.273v8.957c-0.011719 19.699 8.6211 38.41 23.617 51.184v14.484h-15.746c-10.391 0.042968-20.562 3.0195-29.332 8.5898-8.7734 5.5703-15.793 13.512-20.246 22.898h-21.27v-14.484c14.988-12.77 23.621-31.473 23.617-51.168v-8.9727c-0.019531-13.605-5.4297-26.652-15.051-36.273-9.625-9.6211-22.668-15.035-36.277-15.051h-7.5547c-13.609 0.015625-26.652 5.4297-36.273 15.051-9.625 9.6211-15.035 22.668-15.055 36.273v8.957c-0.003907 19.695 8.6289 38.398 23.617 51.168v14.5h-15.742c-14.617 0-28.633 5.8086-38.965 16.141-10.336 10.336-16.141 24.352-16.141 38.965v47.234c0 6.2617 2.4883 12.27 6.918 16.695 4.4297 4.4297 10.434 6.918 16.699 6.918h456.58c6.2617 0 12.27-2.4883 16.695-6.918 4.4297-4.4258 6.918-10.434 6.918-16.695v-47.234c0-14.613-5.8047-28.629-16.141-38.965-10.332-10.332-24.348-16.141-38.961-16.141zm-385.73-65.652v-8.9727c0.011719-9.4336 3.7656-18.477 10.434-25.145 6.6719-6.6719 15.715-10.426 25.148-10.438h7.5547c9.4336 0.011718 18.477 3.7656 25.148 10.438 6.668 6.668 10.422 15.711 10.434 25.145v8.957c0.007813 10.109-2.957 19.996-8.5273 28.434-5.5703 8.4336-13.5 15.043-22.801 19.004-5.1328 2.1875-10.93 2.1875-16.059 0-9.3008-3.9609-17.227-10.566-22.797-19-5.5742-8.4297-8.5391-18.312-8.5352-28.422zm55.105 61.133v4.5195c0 5.625-3.0039 10.824-7.875 13.637-4.8711 2.8125-10.871 2.8125-15.742 0s-7.8711-8.0117-7.8711-13.637v-4.5352c0.53516 0.23438 1.0078 0.56641 1.5742 0.80469 9.0586 3.8242 19.277 3.8242 28.34 0 0.56641-0.23438 1.0391-0.55078 1.5742-0.80078zm-47.234 114.73v-55.105c0-4.3477-3.5234-7.8711-7.8711-7.8711-4.3477 0-7.8711 3.5234-7.8711 7.8711v55.105h-31.488c-4.3477 0-7.875-3.5234-7.875-7.8711v-47.234c0-10.438 4.1484-20.449 11.531-27.832 7.3789-7.3789 17.391-11.527 27.832-11.527h20.121c3.6523 6.4102 9.457 11.316 16.383 13.852s14.527 2.5352 21.453 0c6.9297-2.5352 12.734-7.4414 16.387-13.852h20.922c-0.45703 2.6016-0.72656 5.2305-0.80078 7.8711v78.723c0.023438 2.6875 0.51563 5.3477 1.4453 7.8711zm141.7-207.35v-8.9766c0.015625-9.4336 3.7656-18.477 10.438-25.145 6.668-6.6719 15.711-10.426 25.145-10.438h7.543c9.4336 0.011719 18.477 3.7656 25.145 10.438 6.6719 6.668 10.426 15.711 10.438 25.145v8.957c0.007812 10.109-2.9609 19.996-8.5312 28.434-5.5703 8.4336-13.5 15.043-22.801 19.004-5.1289 2.1875-10.93 2.1875-16.059 0-9.2969-3.9609-17.219-10.57-22.789-19-5.5664-8.4336-8.5312-18.316-8.5273-28.422zm55.105 61.117v4.5312c0 5.625-3 10.824-7.8711 13.637s-10.875 2.8125-15.746 0-7.8711-8.0117-7.8711-13.637v-4.5352c0.53516 0.23438 1.0078 0.56641 1.5742 0.80469 9.0586 3.8242 19.281 3.8242 28.34 0 0.56641-0.23438 1.0391-0.55078 1.5742-0.80078zm70.848 138.36c0 2.0859-0.82812 4.0898-2.3047 5.5664-1.4766 1.4727-3.4805 2.3047-5.5664 2.3047h-23.617v-55.105c0-4.3477-3.5234-7.8711-7.8711-7.8711-4.3477 0-7.8711 3.5234-7.8711 7.8711v55.105h-78.719l-0.003906-55.105c0-4.3477-3.5234-7.8711-7.8711-7.8711s-7.8711 3.5234-7.8711 7.8711v55.105h-23.617c-4.3477 0-7.8711-3.5234-7.8711-7.8711v-78.723c0-10.438 4.1484-20.449 11.527-27.832 7.3828-7.3789 17.395-11.527 27.832-11.527h20.121c3.6523 6.4102 9.457 11.316 16.383 13.852 6.9297 2.5352 14.531 2.5352 21.457 0 6.9258-2.5352 12.73-7.4414 16.383-13.852h20.121c10.438 0 20.449 4.1484 27.832 11.527 7.3828 7.3828 11.527 17.395 11.527 27.832zm23.617-167.99v-8.9727c0.011719-9.4336 3.7656-18.477 10.434-25.145 6.6719-6.6719 15.715-10.426 25.148-10.438h7.543-0.003906c9.4375 0.007812 18.484 3.7578 25.156 10.43 6.6758 6.6719 10.43 15.715 10.441 25.152v8.957c0.007813 10.109-2.957 19.996-8.5273 28.434-5.5703 8.4336-13.5 15.043-22.801 19.004-5.1289 2.1875-10.93 2.1875-16.059 0-9.3008-3.9609-17.227-10.566-22.797-19-5.5742-8.4297-8.5391-18.312-8.5352-28.422zm55.105 61.133v4.5195c0 5.625-3.0039 10.824-7.875 13.637s-10.871 2.8125-15.742 0c-4.8711-2.8125-7.8711-8.0117-7.8711-13.637v-4.5352c0.53516 0.23438 1.0078 0.56641 1.5742 0.80469 9.0586 3.8242 19.277 3.8242 28.34 0 0.56641-0.23438 1.0391-0.55078 1.5742-0.80078zm70.848 106.86c0 2.0859-0.83203 4.0898-2.3047 5.5664-1.4766 1.4727-3.4805 2.3047-5.5664 2.3047h-31.488v-55.105c0-4.3477-3.5273-7.8711-7.875-7.8711-4.3477 0-7.8711 3.5234-7.8711 7.8711v55.105h-80.168c0.93359-2.5234 1.4219-5.1836 1.4492-7.8711v-78.723c-0.078126-2.6406-0.34375-5.2695-0.80469-7.8711h20.926c3.6523 6.4102 9.457 11.316 16.383 13.852 6.9258 2.5352 14.527 2.5352 21.453 0 6.9297-2.5352 12.734-7.4414 16.387-13.852h20.121c10.438 0 20.449 4.1484 27.832 11.527 7.3789 7.3828 11.527 17.395 11.527 27.832zm-78.723-291.27h-15.742c-4.1758 0-8.1797-1.6602-11.133-4.6133s-4.6133-6.957-4.6133-11.133c0-4.3477-3.5234-7.8711-7.8711-7.8711s-7.8711 3.5234-7.8711 7.8711c0 8.3516 3.3164 16.359 9.2227 22.266s13.914 9.2227 22.266 9.2227v7.8711c0 4.3477 3.5234 7.875 7.8711 7.875s7.8711-3.5273 7.8711-7.875v-7.8711c11.25 0 21.645-6 27.27-15.742 5.625-9.7422 5.625-21.746 0-31.488-5.625-9.7422-16.02-15.746-27.27-15.746h-15.742c-5.625 0-10.824-3-13.637-7.8711-2.8125-4.8711-2.8125-10.871 0-15.742 2.8125-4.8711 8.0117-7.875 13.637-7.875h15.742c4.1758 0 8.1797 1.6602 11.133 4.6133 2.9531 2.9531 4.6133 6.957 4.6133 11.133 0 4.3477 3.5234 7.8711 7.8711 7.8711 4.3477 0 7.8711-3.5234 7.8711-7.8711 0-8.3516-3.3164-16.359-9.2227-22.266-5.9023-5.9062-13.914-9.2227-22.266-9.2227v-7.8711c0-4.3477-3.5234-7.875-7.8711-7.875s-7.8711 3.5273-7.8711 7.875v7.8711c-11.25 0-21.645 6-27.27 15.742-5.625 9.7422-5.625 21.746 0 31.488 5.625 9.7422 16.02 15.746 27.27 15.746h15.742c5.625 0 10.824 3 13.637 7.8711s2.8125 10.871 0 15.742c-2.8125 4.875-8.0117 7.875-13.637 7.875zm-149.57-47.234h-15.746c-4.1758 0-8.1797-1.6562-11.133-4.6094-2.9492-2.9531-4.6094-6.957-4.6094-11.133 0-4.3477-3.5234-7.8711-7.8711-7.8711-4.3477 0-7.875 3.5234-7.875 7.8711 0 8.3516 3.3203 16.359 9.2227 22.266 5.9062 5.9023 13.914 9.2227 22.266 9.2227v7.8711c0 4.3477 3.5273 7.8711 7.875 7.8711s7.8711-3.5234 7.8711-7.8711v-7.8711c11.25 0 21.645-6.0039 27.27-15.746 5.625-9.7422 5.625-21.746 0-31.488-5.625-9.7422-16.02-15.742-27.27-15.742h-15.746c-5.625 0-10.82-3-13.633-7.8711s-2.8125-10.875 0-15.746 8.0078-7.8711 13.633-7.8711h15.746c4.1758 0 8.1797 1.6602 11.133 4.6094 2.9531 2.9531 4.6094 6.957 4.6094 11.133 0 4.3477 3.5273 7.875 7.875 7.875 4.3477 0 7.8711-3.5273 7.8711-7.875 0-8.3516-3.3164-16.359-9.2227-22.266-5.9062-5.9023-13.914-9.2227-22.266-9.2227v-7.8711c0-4.3477-3.5234-7.8711-7.8711-7.8711s-7.875 3.5234-7.875 7.8711v7.8711c-11.25 0-21.645 6.0039-27.27 15.746-5.625 9.7422-5.625 21.746 0 31.488 5.625 9.7422 16.02 15.742 27.27 15.742h15.746c5.625 0 10.82 3.0039 13.633 7.875 2.8125 4.8711 2.8125 10.871 0 15.742-2.8125 4.8711-8.0078 7.8711-13.633 7.8711zm-149.57 47.234h-15.742c-4.1758 0-8.1797-1.6602-11.133-4.6133s-4.6133-6.957-4.6133-11.133c0-4.3477-3.5234-7.8711-7.8711-7.8711s-7.8711 3.5234-7.8711 7.8711c0 8.3516 3.3164 16.359 9.2227 22.266s13.914 9.2227 22.266 9.2227v7.8711c0 4.3477 3.5234 7.875 7.8711 7.875 4.3477 0 7.8711-3.5273 7.8711-7.875v-7.8711c11.25 0 21.645-6 27.27-15.742 5.625-9.7422 5.625-21.746 0-31.488-5.625-9.7422-16.02-15.746-27.27-15.746h-15.742c-5.625 0-10.824-3-13.637-7.8711-2.8125-4.8711-2.8125-10.871 0-15.742 2.8125-4.8711 8.0117-7.875 13.637-7.875h15.742c4.1758 0 8.1797 1.6602 11.133 4.6133 2.9531 2.9531 4.6133 6.957 4.6133 11.133 0 4.3477 3.5234 7.8711 7.8711 7.8711 4.3477 0 7.8711-3.5234 7.8711-7.8711 0-8.3516-3.3164-16.359-9.2227-22.266-5.9023-5.9062-13.914-9.2227-22.266-9.2227v-7.8711c0-4.3477-3.5234-7.875-7.8711-7.875-4.3477 0-7.8711 3.5273-7.8711 7.875v7.8711c-11.25 0-21.645 6-27.27 15.742-5.625 9.7422-5.625 21.746 0 31.488 5.625 9.7422 16.02 15.746 27.27 15.746h15.742c5.625 0 10.824 3 13.637 7.8711s2.8125 10.871 0 15.742c-2.8125 4.875-8.0117 7.875-13.637 7.875z"/>
 </g>
</svg>