<?xml version="1.0" encoding="UTF-8"?>
<!-- The Best Svg Icon site in the world: iconSvg.co, Visit us! https://iconsvg.co -->
<svg fill="#000000" width="800px" height="800px" version="1.1" viewBox="144 144 512 512" xmlns="http://www.w3.org/2000/svg">
 <g>
  <path d="m634.59 614.91h-56.758v-124.38c0-2.0898-0.82812-4.0898-2.3047-5.5664-1.4766-1.4766-3.4805-2.3047-5.5664-2.3047h-37.707c-4.3477 0-7.875 3.5234-7.875 7.8711v124.38h-22.039v-168.62c0-2.0859-0.83203-4.0898-2.3086-5.5664-1.4727-1.4766-3.4766-2.3047-5.5664-2.3047h-38.098c-4.3477 0-7.875 3.5234-7.875 7.8711v168.62h-22.277v-149.57c0-2.0859-0.82813-4.0898-2.3047-5.5664-1.4766-1.4766-3.4766-2.3047-5.5664-2.3047h-37.785c-4.3477 0-7.8711 3.5234-7.8711 7.8711v149.57h-22.277v-182.39c0-2.0898-0.83203-4.0938-2.3086-5.5664-1.4766-1.4766-3.4766-2.3086-5.5664-2.3086h-37.785c-4.3477 0-7.8711 3.5273-7.8711 7.875v182.39h-22.355v-229.86c0-2.0898-0.83203-4.0898-2.3086-5.5664-1.4727-1.4766-3.4766-2.3086-5.5664-2.3086h-37.707c-4.3438 0-7.8711 3.5273-7.8711 7.875v229.86h-48.02v-20.469h9.6836c4.3477 0 7.8711-3.5234 7.8711-7.8711s-3.5234-7.8711-7.8711-7.8711h-9.6836v-31.488h9.6836c4.3477 0 7.8711-3.5273 7.8711-7.875 0-4.3477-3.5234-7.8711-7.8711-7.8711h-9.6836v-31.488h9.6836c4.3477 0 7.8711-3.5234 7.8711-7.8711 0-4.3477-3.5234-7.8711-7.8711-7.8711h-9.6836v-31.488h9.6836c4.3477 0 7.8711-3.5273 7.8711-7.875 0-4.3477-3.5234-7.8711-7.8711-7.8711h-9.6836v-29.125h9.6836c4.3477 0 7.8711-3.5234 7.8711-7.8711s-3.5234-7.875-7.8711-7.875h-9.6836v-31.488h9.6836c4.3477 0 7.8711-3.5234 7.8711-7.8711s-3.5234-7.8711-7.8711-7.8711h-9.6836v-31.488h9.6836c4.3477 0 7.8711-3.5234 7.8711-7.8711s-3.5234-7.8711-7.8711-7.8711h-9.6836v-31.488h9.6836c3.582-0.81641 6.1211-4.0039 6.1211-7.6758 0-3.6758-2.5391-6.8594-6.1211-7.6758h-9.6836v-31.488h9.6836c3.582-0.81641 6.1211-4 6.1211-7.6758 0-3.6719-2.5391-6.8594-6.1211-7.6758h-9.6836v-26.527c0.53516-2.3359-0.027344-4.7852-1.5195-6.6602-1.4961-1.8711-3.7578-2.9609-6.1562-2.9609-2.3945 0-4.6602 1.0898-6.1523 2.9609-1.4922 1.875-2.0547 4.3242-1.5195 6.6602v445.08c0 2.0898 0.82812 4.0898 2.3047 5.5664 1.4766 1.4766 3.4766 2.3086 5.5664 2.3086h469.02c4.3477 0 7.8711-3.5273 7.8711-7.875 0-4.3477-3.5234-7.8711-7.8711-7.8711zm-397.93 0-0.003906-222.15h22.516v222.15zm75.809 0-0.003906-174.68h22.516v174.68zm75.809 0-0.003907-142.25h22.516l-0.003906 142.25zm75.809 0-0.003906-160.91h22.512v160.91zm75.809 0-0.007813-116.66h22.516v116.66z"/>
  <path d="m244.05 345.84 151.61 88.48c2.0156 1.1484 4.4375 1.3516 6.6133 0.55078l72.582-27 67.305 35.031-6.2969 1.8125v-0.003906c-3.3398 1.3633-5.3242 4.8164-4.8203 8.3867 0.5 3.5664 3.3633 6.3398 6.9453 6.7266 0.73047 0.082031 1.4727 0.082031 2.2031 0l22.277-6.6133v0.003906c3.4102-1.0703 5.6758-4.3008 5.5117-7.875l-2.2812-23.145-0.003906 0.003907c0.25-2.3555-0.57422-4.6914-2.2383-6.3711-1.6641-1.6797-4-2.5195-6.3516-2.293-2.3555 0.23047-4.4805 1.5078-5.7891 3.4766-1.3125 1.9688-1.668 4.4219-0.96875 6.6797l0.70703 7.0078-72.344-38.574c-1.9844-0.85156-4.2344-0.85156-6.2188 0l-72.5 27.082-148.46-86.594h-0.003906c-3.5508-1.2695-7.5039 0.15625-9.4258 3.4023s-1.2695 7.4023 1.5547 9.9023z"/>
 </g>
</svg>