<?xml version="1.0" encoding="UTF-8"?>
<!-- The Best Svg Icon site in the world: iconSvg.co, Visit us! https://iconsvg.co -->
<svg fill="#000000" width="800px" height="800px" version="1.1" viewBox="144 144 512 512" xmlns="http://www.w3.org/2000/svg">
 <path d="m555.55 408.82h-164.37v-164.37c0-4.1758-1.6602-8.1836-4.6133-11.133-2.9531-2.9531-6.957-4.6133-11.133-4.6133-51.945 0-101.76 20.637-138.49 57.363-36.73 36.73-57.363 86.547-57.363 138.49 0 51.945 20.633 101.76 57.363 138.49 36.73 36.73 86.547 57.363 138.49 57.363s101.76-20.633 138.49-57.363c36.73-36.73 57.363-86.547 57.363-138.49 0-4.1758-1.6562-8.1797-4.6094-11.133s-6.957-4.6094-11.133-4.6094zm-180.11 180.11c-42.172-0.082031-82.699-16.371-113.2-45.496-30.5-29.129-48.637-68.863-50.66-110.99-2.0195-42.125 12.227-83.414 39.793-115.33 27.57-31.918 66.352-52.012 108.32-56.133v163.58c0 4.1758 1.6562 8.1797 4.6094 11.133 2.9531 2.9531 6.957 4.6133 11.133 4.6133h163.58c-3.9492 40.66-22.883 78.398-53.121 105.87-30.234 27.473-69.609 42.711-110.46 42.754zm49.121-409.34c-4.1758 0-8.1797 1.6602-11.133 4.6094-2.9531 2.9531-4.6094 6.957-4.6094 11.133v180.11c0 4.1758 1.6562 8.1797 4.6094 11.133 2.9531 2.9531 6.957 4.6133 11.133 4.6133h180.11c4.1758 0 8.1797-1.6602 11.133-4.6133 2.9531-2.9531 4.6094-6.957 4.6094-11.133-0.039062-51.93-20.688-101.72-57.41-138.45-36.723-36.719-86.512-57.367-138.45-57.41zm15.742 180.11 0.003907-147.84c38.098 3.5195 73.777 20.203 100.9 47.184 27.129 26.984 44 62.574 47.719 100.66z"/>
</svg>