<?xml version="1.0" encoding="UTF-8"?>
<!-- The Best Svg Icon site in the world: iconSvg.co, Visit us! https://iconsvg.co -->
<svg fill="#000000" width="800px" height="800px" version="1.1" viewBox="144 144 512 512" xmlns="http://www.w3.org/2000/svg">
 <g>
  <path d="m400 283.25c-85.891 0-155.77 69.879-155.77 155.77 0 85.891 69.879 155.77 155.77 155.77s155.77-69.879 155.77-155.77c-0.003906-85.895-69.879-155.77-155.77-155.77zm111.25 162.01h32.582c-1.5312 33.992-14.984 66.355-38 91.414l-22.992-23.078c-2.2852-2.3047-6.0117-2.3203-8.3164-0.03125-2.3047 2.2891-2.3203 6.0117-0.03125 8.3203l22.992 22.98c-25.039 23.145-57.508 36.613-91.578 37.984v-32.582c0-3.2617-2.6445-5.9023-5.9023-5.9023-3.2617 0-5.9062 2.6406-5.9062 5.9023v32.582c-34.07-1.375-66.539-14.848-91.578-38l22.992-22.992c2.3086-2.3047 2.3086-6.043 0.003907-8.3477-2.3086-2.3086-6.0469-2.3086-8.3516 0l-22.992 23.164c-23.016-25.059-36.469-57.422-38-91.414h32.582c3.2617 0 5.9023-2.6406 5.9023-5.9023s-2.6406-5.9062-5.9023-5.9062h-32.582c1.3398-34.129 14.816-66.66 38-91.746l22.992 22.91c1.1094 1.0977 2.6133 1.7031 4.1758 1.6836 2.3867-0.011719 4.5352-1.457 5.4492-3.6641 0.91016-2.2109 0.40625-4.75-1.2773-6.4453l-22.992-22.996c25.039-23.152 57.504-36.625 91.578-38.004v32.582c0 3.2617 2.6445 5.9023 5.9062 5.9023 3.2578 0 5.9023-2.6406 5.9023-5.9023v-32.582c34.07 1.375 66.539 14.844 91.578 37.992l-22.992 22.996c-2.3047 2.3086-2.3086 6.0469 0 8.3516 2.3047 2.3047 6.043 2.3047 8.3477 0l22.992-22.824c23.184 25.086 36.66 57.617 38 91.746h-32.582c-3.2578 0-5.9023 2.6445-5.9023 5.9062s2.6445 5.9023 5.9023 5.9023z"/>
  <path d="m436.41 245.9v-39.754h13.613c3.3516-0.14063 6.0156-2.875 6.0664-6.2305v-29.52c0-3.2617-2.8086-5.5781-6.0664-5.5781h-100.04c-3.2617 0-6.0703 2.3164-6.0703 5.5781v29.52c0.050782 3.3555 2.7148 6.0898 6.0703 6.2305h13.609v39.754c-90.527 17.055-160.16 97.156-160.16 193.12 0 108.34 88.184 196.48 196.52 196.48 108.34 0 196.59-88.141 196.59-196.48 0-95.961-69.609-176.06-160.14-193.12zm-80.688-69.273h88.559v17.715h-88.559zm19.68 29.52h49.199v37.906c-16.336-2.0234-32.863-2.0234-49.199 0zm24.602 417.55c-101.83 0-184.68-82.844-184.68-184.68 0-91.277 66.57-167.29 153.71-182.06h-0.003906c0.21094 0.019531 0.41797 0.03125 0.62891 0.035157 0.84766-0.003907 1.6875-0.1875 2.457-0.54297 18.484-2.8047 37.281-2.8047 55.766 0 0.76953 0.35547 1.6094 0.53906 2.4609 0.54297 0.20703-0.003907 0.41797-0.015626 0.625-0.035157 87.137 14.773 153.71 90.785 153.71 182.06-0.007813 101.83-82.852 184.68-184.68 184.68z"/>
  <path d="m400 384.73c6.3203 0.007813 12.383 2.5234 16.852 6.9922 4.4727 4.4727 6.9844 10.531 6.9922 16.855 0 3.2578 2.6445 5.9023 5.9023 5.9023 3.2617 0 5.9062-2.6445 5.9062-5.9023-0.011719-8.6016-3.1289-16.906-8.7734-23.395-5.6445-6.4844-13.445-10.715-21.961-11.914v-10.668c0-3.2617-2.6445-5.9023-5.9023-5.9023-3.2617 0-5.9062 2.6406-5.9062 5.9023v10.996c-11.691 2.3008-21.457 10.293-26.031 21.293-4.5742 11.004-3.3477 23.562 3.2656 33.477 6.6133 9.9102 17.738 15.863 29.656 15.863 6.3242 0 12.391 2.5117 16.859 6.9844 4.4727 4.4727 6.9883 10.539 6.9883 16.863s-2.5156 12.391-6.9844 16.863c-4.4727 4.4688-10.539 6.9844-16.863 6.9844s-12.391-2.5156-16.863-6.9883c-4.4727-4.4688-6.9844-10.535-6.9844-16.859 0-3.2617-2.6406-5.9062-5.9023-5.9062s-5.9062 2.6445-5.9062 5.9062c0.011719 7.9102 2.6484 15.598 7.5 21.848 4.8477 6.25 11.637 10.715 19.297 12.691v11.523c0 3.2578 2.6445 5.9023 5.9062 5.9023s5.9023-2.6445 5.9023-5.9023v-10.543c12.344-1.0273 23.266-8.3828 28.855-19.434 5.5898-11.051 5.043-24.211-1.4414-34.762-6.4883-10.547-17.98-16.977-30.363-16.98-8.5195 0-16.395-4.543-20.652-11.922-4.2617-7.3789-4.2617-16.469 0-23.848 4.2578-7.375 12.133-11.922 20.652-11.922z"/>
 </g>
</svg>