<?xml version="1.0" encoding="UTF-8"?>
<!-- The Best Svg Icon site in the world: iconSvg.co, Visit us! https://iconsvg.co -->
<svg fill="#000000" width="800px" height="800px" version="1.1" viewBox="144 144 512 512" xmlns="http://www.w3.org/2000/svg">
 <g>
  <path d="m423.46 576.43h-222.02v-26.445c0-6.5703 5.3438-11.914 11.914-11.914h165.5c2.6797 0 4.8516-2.1719 4.8516-4.8516 0-2.6797-2.1719-4.8516-4.8516-4.8516h-14.445v-92.832c0-2.6797-2.1719-4.8516-4.8516-4.8516-2.6797 0-4.8516 2.1719-4.8516 4.8516v92.832h-15.699v-125.53c0-2.6797-2.1719-4.8516-4.8516-4.8516-2.6797 0-4.8516 2.1719-4.8516 4.8516v125.53h-15.699v-92.832c0-2.6797-2.1719-4.8516-4.8516-4.8516-2.6797 0-4.8516 2.1719-4.8516 4.8516v92.832h-15.699v-50.457c0-2.6797-2.1719-4.8516-4.8516-4.8516s-4.8516 2.1719-4.8516 4.8516v50.457h-16.012v-51.363c0-0.03125-0.011719-0.058593-0.011719-0.089843-0.003906-0.19141-0.03125-0.37891-0.054688-0.5625-0.019531-0.13672-0.03125-0.27344-0.058593-0.40234-0.035157-0.14453-0.085938-0.28906-0.13281-0.42969-0.050781-0.16016-0.097656-0.32422-0.16797-0.47266-0.050782-0.11719-0.11719-0.21484-0.17578-0.32812-0.089844-0.16797-0.17578-0.33203-0.28125-0.48828-0.066406-0.089844-0.14062-0.17188-0.21094-0.25781-0.13281-0.16016-0.26172-0.32422-0.41406-0.46484-0.066406-0.058594-0.14062-0.11719-0.20703-0.17188-0.17969-0.15625-0.36328-0.30078-0.5625-0.42969-0.019531-0.011718-0.03125-0.023437-0.050781-0.039062l-46.352-28.145c-3.0938-14.082-20.395-102.86 18.609-167.26 19.559-32.293 50.391-53.73 91.637-63.711 1.4023-0.33594 2.5781-1.2852 3.2148-2.5781 0.125-0.25781 11.758-23.488 31.754-26.328l-8.0703 23.773c-0.83984 2.4727 0.42969 5.168 2.8711 6.0977l39.238 14.918c5.2148 7.5625 31.785 45.09 56.914 62.836l2.3828 27.734-25.844 13.844c-5.8359-6.1953-20.859-19.738-44.25-24.434-27.438-5.4766-38.918-10.309-40.949-17.219-0.69141-2.3438-3.0117-3.8086-5.4258-3.4219-2.4141 0.38672-4.1602 2.5078-4.0742 4.9531 0.070312 2.2031 2.5586 54.43 68.93 104.21 2.2148 1.6641 4.3945 3.375 6.4688 5.0898 2.0664 1.707 5.125 1.4141 6.832-0.64844 1.707-2.0664 1.4141-5.125-0.64844-6.832-2.1914-1.8125-4.4883-3.6172-6.8281-5.3711-32.637-24.48-48.586-49.5-56.219-66.18-2.6797-5.8633-4.5547-11.133-5.8594-15.582 8.1914 4.293 20.152 7.3789 35.875 10.52 26.383 5.2969 41.07 23.805 41.207 23.98 1.4453 1.875 4.0391 2.4336 6.1328 1.3164l32.062-17.176c1.707-0.91797 2.7109-2.7617 2.543-4.6914l-2.8516-33.207c-0.125-1.4727-0.91797-2.8008-2.1406-3.6211-26.363-17.574-56.77-62.363-57.078-62.809-0.55859-0.82812-1.3594-1.4648-2.2969-1.8203l-36.285-13.793 8.8008-25.922c0.48047-1.4141 0.28125-2.9727-0.53906-4.2188-0.81641-1.25-2.168-2.0508-3.6562-2.1758-26.414-2.207-42.391 22.398-46.598 29.852-42.82 10.836-74.961 33.582-95.566 67.637-23.234 38.395-27.227 84.371-26.48 116.18 0.80078 34.301 6.957 59.273 7.2188 60.32 0.30859 1.2383 1.0977 2.3086 2.1875 2.9727l45.766 27.789v48.629h-39.422c-0.25781 0-0.51562 0.011719-0.76562 0.019531-0.070312-0.003906-0.13281-0.019531-0.20312-0.019531-11.922 0-21.617 9.6992-21.617 21.617 0 1.082 0.36719 2.0742 0.96875 2.8828v28.414c0 2.6797 2.1719 4.8516 4.8516 4.8516h226.88c2.6797 0 4.8516-2.1719 4.8516-4.8516-0.011719-2.6953-2.1836-4.8672-4.8633-4.8672z"/>
  <path d="m467.81 492.63h12.699c9.457 0 17.148 7.6992 17.148 17.164 0 9.4609-7.6914 17.16-17.148 17.16h-34.711c-2.6797 0-4.8516 2.1719-4.8516 4.8516 0 2.6797 2.1719 4.8516 4.8516 4.8516h23.508v19.887c0 2.6797 2.1719 4.8516 4.8516 4.8516 2.6797 0 4.8516-2.1719 4.8516-4.8516v-19.887h1.5c14.809 0 26.852-12.051 26.852-26.863 0-14.816-12.047-26.867-26.852-26.867h-12.699c-9.4609 0-17.16-7.6992-17.16-17.156 0-9.4648 7.6992-17.164 17.16-17.164h34.703c2.6797 0 4.8516-2.1719 4.8516-4.8516 0-2.6797-2.1719-4.8516-4.8516-4.8516h-23.504v-19.871c0-2.6797-2.1719-4.8516-4.8516-4.8516-2.6797 0-4.8516 2.1719-4.8516 4.8516v19.871h-1.4961c-14.812 0-26.867 12.051-26.867 26.867-0.003906 14.809 12.055 26.859 26.867 26.859z"/>
  <path d="m375.82 487.79c0 54.23 44.117 98.348 98.348 98.348s98.348-44.117 98.348-98.348c0-54.23-44.117-98.348-98.348-98.348-54.23-0.003906-98.348 44.117-98.348 98.348zm98.344-88.648c48.879 0 88.645 39.766 88.645 88.645s-39.766 88.645-88.645 88.645c-48.879 0-88.645-39.766-88.645-88.645 0.003907-48.879 39.77-88.645 88.645-88.645z"/>
  <path d="m474.16 381.46c2.6797 0 4.8516-2.1719 4.8516-4.8516v-21.348c0-2.6797-2.1719-4.8516-4.8516-4.8516-2.6797 0-4.8516 2.1719-4.8516 4.8516v21.348c0 2.6797 2.1719 4.8516 4.8516 4.8516z"/>
  <path d="m436.12 388.05c0.55078 0 1.1133-0.097656 1.6562-0.29297 2.5195-0.91797 3.8203-3.6992 2.9023-6.2188l-7.3008-20.062c-0.91797-2.5195-3.6992-3.8125-6.2188-2.9023-2.5195 0.91016-3.8203 3.6992-2.9023 6.2188l7.3008 20.062c0.72266 1.9766 2.582 3.1953 4.5625 3.1953z"/>
  <path d="m473.48 594.1c-2.6797 0-4.8516 2.1719-4.8516 4.8516v21.348c0 2.6797 2.1719 4.8516 4.8516 4.8516s4.8516-2.1719 4.8516-4.8516v-21.348c0-2.6758-2.1758-4.8516-4.8516-4.8516z"/>
  <path d="m516.09 590.71c-0.91797-2.5195-3.7031-3.8203-6.2188-2.9023-2.5195 0.91797-3.8203 3.6992-2.9023 6.2188l7.3008 20.062c0.71484 1.9688 2.5781 3.1953 4.5586 3.1953 0.55078 0 1.1133-0.097656 1.6562-0.29297 2.5195-0.91797 3.8203-3.6992 2.9023-6.2188z"/>
  <path d="m548.74 570.05c-1.7227-2.0508-4.7812-2.3242-6.8359-0.59766-2.0508 1.7227-2.3242 4.7812-0.59766 6.8359l13.723 16.355c0.95703 1.1445 2.332 1.7344 3.7188 1.7344 1.0977 0 2.207-0.37109 3.1133-1.1328 2.0508-1.7227 2.3242-4.7812 0.59766-6.8359z"/>
  <path d="m590.85 550.14-18.488-10.676c-2.3242-1.3398-5.2891-0.54297-6.625 1.7734-1.3398 2.3242-0.54297 5.2852 1.7734 6.625l18.488 10.676c0.76562 0.44141 1.5977 0.64844 2.4219 0.64844 1.6758 0 3.3086-0.87109 4.207-2.4297 1.3359-2.3164 0.54297-5.2773-1.7773-6.6172z"/>
  <path d="m605.11 506.35-21.023-3.707c-2.6406-0.46484-5.1523 1.3008-5.6211 3.9336-0.46484 2.6406 1.293 5.1523 3.9336 5.6211l21.023 3.707c0.28906 0.050781 0.57031 0.074219 0.84766 0.074219 2.3125 0 4.3594-1.6562 4.7695-4.0117 0.47656-2.6328-1.2891-5.1523-3.9297-5.6172z"/>
  <path d="m578.59 469.66c0.41406 2.3516 2.4648 4.0117 4.7695 4.0117 0.27734 0 0.5625-0.023438 0.84766-0.074219l21.023-3.707c2.6406-0.46484 4.3984-2.9844 3.9336-5.6211-0.46484-2.6406-2.9766-4.3984-5.6211-3.9336l-21.023 3.707c-2.6367 0.46094-4.3945 2.9766-3.9297 5.6172z"/>
  <path d="m570.28 437.35c0.82031 0 1.6562-0.21094 2.4219-0.64844l18.488-10.676c2.3242-1.3398 3.1133-4.3086 1.7734-6.6289-1.3398-2.3242-4.3086-3.1172-6.625-1.7734l-18.488 10.676c-2.3242 1.3398-3.1133 4.3086-1.7734 6.625 0.89453 1.5508 2.5234 2.4258 4.2031 2.4258z"/>
  <path d="m545.54 407.69c1.3867 0 2.7617-0.58984 3.7188-1.7344l13.723-16.355c1.7227-2.0508 1.457-5.1133-0.59766-6.8359-2.0508-1.7227-5.1133-1.457-6.8359 0.59766l-13.723 16.355c-1.7227 2.0508-1.457 5.1133 0.59766 6.8359 0.91016 0.76562 2.0195 1.1367 3.1172 1.1367z"/>
  <path d="m510.51 387.99c0.55078 0.20312 1.1094 0.29297 1.6562 0.29297 1.9805 0 3.8438-1.2227 4.5586-3.1953l7.3008-20.062c0.91797-2.5195-0.38281-5.3008-2.9023-6.2188-2.5156-0.91797-5.3008 0.38281-6.2188 2.9023l-7.3008 20.062c-0.91016 2.5195 0.38672 5.3047 2.9062 6.2188z"/>
 </g>
</svg>