<?xml version="1.0" encoding="UTF-8"?>
<!-- The Best Svg Icon site in the world: iconSvg.co, Visit us! https://iconsvg.co -->
<svg fill="#000000" width="800px" height="800px" version="1.1" viewBox="144 144 512 512" xmlns="http://www.w3.org/2000/svg">
 <g>
  <path d="m394.09 272.09v-97.07c-47.102 23.414-82.312 64.902-102.11 118 7.5547 4.1172 15.344 7.8008 23.32 11.027 21.836-19.355 49.645-30.637 78.793-31.961z"/>
  <path d="m367.66 176.61c-48.227 6.8672-92.895 29.266-127.25 63.805-2.3047 2.3047-4.5508 4.6562-6.7344 7.0469 14.078 15.328 30.207 28.641 47.926 39.562 17.84-46.812 47.277-84.977 86.055-110.41z"/>
  <path d="m306.11 313.02c-6.1445-2.6445-12.164-5.5391-18.07-8.6836-7.1094 22.387-11.566 45.531-13.281 68.957 4.8203-22.551 15.656-43.379 31.352-60.273z"/>
  <path d="m566.34 247.48c-2.1992-2.3906-4.4492-4.7461-6.7539-7.0625-34.348-34.539-79.02-56.941-127.25-63.809 38.84 25.477 68.305 63.719 86.137 110.62 17.73-10.953 33.84-24.336 47.863-39.754z"/>
  <path d="m512.03 495.42c7.0625-22.316 11.496-45.383 13.207-68.73-4.8047 22.469-15.574 43.227-31.176 60.09 6.1094 2.6289 12.098 5.5078 17.969 8.6406z"/>
  <path d="m277.57 298.37c-19.117-11.492-36.523-25.617-51.711-41.953-32.168 38.789-50.301 87.301-51.469 137.68h87.586c0.55469-34.352 5.918-66.562 15.594-95.727z"/>
  <path d="m522.51 298.59c9.6289 29.105 14.969 61.238 15.52 95.504h87.582c-1.1641-50.367-19.289-98.867-51.441-137.66-15.137 16.43-32.531 30.621-51.66 42.152z"/>
  <path d="m512.03 304.57c-5.8594 3.1367-11.848 6.0156-17.965 8.6367v0.003906c15.602 16.863 26.371 37.617 31.176 60.082-1.7109-23.344-6.1445-46.406-13.211-68.723z"/>
  <path d="m405.9 272.09c29.242 1.3281 57.137 12.676 79 32.141 7.9375-3.2109 15.684-6.875 23.199-10.98-19.785-53.211-55.027-94.785-102.2-118.23z"/>
  <path d="m518.48 512.77c-17.828 46.906-47.289 85.145-86.117 110.63 48.219-6.875 92.879-29.273 127.22-63.805 2.3086-2.3125 4.5625-4.668 6.7539-7.0625v-0.003906c-14.023-15.418-30.133-28.801-47.859-39.758z"/>
  <path d="m508.11 506.74c-7.5156-4.1016-15.262-7.7695-23.203-10.984-21.863 19.469-49.758 30.816-79 32.148v97.082c47.172-23.453 82.414-65.031 102.2-118.25z"/>
  <path d="m522.51 501.41c19.129 11.531 36.523 25.723 51.66 42.152 32.152-38.789 50.277-87.289 51.441-137.66h-87.586c-0.55078 34.266-5.8867 66.398-15.516 95.504z"/>
  <path d="m516.24 400c0-30.832-12.246-60.398-34.047-82.195-21.797-21.801-51.363-34.047-82.191-34.047-30.832 0-60.398 12.246-82.195 34.047-21.801 21.797-34.047 51.363-34.047 82.195 0 30.828 12.246 60.395 34.047 82.191 21.797 21.801 51.363 34.047 82.195 34.047 30.816-0.035156 60.363-12.293 82.152-34.086 21.793-21.789 34.051-51.336 34.086-82.152zm-116.24-1.8633c12.82 0 24.758 6.5469 31.648 17.359 6.8945 10.816 7.7891 24.398 2.3711 36.023-5.4141 11.621-16.387 19.676-29.102 21.359v13.711c0 3.2617-2.6445 5.9062-5.9023 5.9062-3.2617 0-5.9062-2.6445-5.9062-5.9062v-14.023c-8.6055-1.6172-16.375-6.1875-21.973-12.922-5.5938-6.7383-8.6602-15.215-8.6758-23.969 0-3.2617 2.6445-5.9062 5.9062-5.9062 3.2617 0 5.9023 2.6445 5.9023 5.9062 0 6.8203 2.7109 13.367 7.5391 18.191 4.8242 4.8242 11.367 7.5352 18.191 7.5352s13.367-2.7109 18.191-7.5352c4.8242-4.8281 7.5352-11.371 7.5352-18.195 0-6.8203-2.7109-13.367-7.5352-18.191-4.8242-4.8242-11.371-7.5352-18.191-7.5352-12.711 0.003907-24.555-6.4258-31.48-17.082-6.9219-10.652-7.9883-24.09-2.8242-35.699 5.1641-11.613 15.848-19.824 28.398-21.82v-11.113c0-3.2617 2.6445-5.9023 5.9062-5.9023 3.2578 0 5.9023 2.6406 5.9023 5.9023v11.113c8.8164 1.4141 16.84 5.9219 22.637 12.711 5.7969 6.793 8.9844 15.426 8.9961 24.355 0 3.2617-2.6445 5.9023-5.9062 5.9023-3.2578 0-5.9023-2.6406-5.9023-5.9023 0-6.8242-2.7109-13.367-7.5352-18.191-4.8242-4.8242-11.371-7.5352-18.191-7.5352-6.8242 0-13.367 2.7109-18.195 7.5352-4.8242 4.8242-7.5352 11.367-7.5352 18.191 0 6.8242 2.7109 13.367 7.5352 18.191 4.8281 4.8242 11.371 7.5352 18.195 7.5352z"/>
  <path d="m291.98 506.97c19.805 53.102 55.016 94.598 102.12 118.02v-97.082c-29.148-1.3281-56.965-12.609-78.797-31.969-7.9805 3.2305-15.766 6.9141-23.32 11.035z"/>
  <path d="m261.97 405.9h-87.586c1.168 50.379 19.301 98.891 51.469 137.68 15.188-16.336 32.594-30.461 51.711-41.953-9.6797-29.164-15.043-61.375-15.594-95.727z"/>
  <path d="m281.6 512.98c-17.719 10.918-33.844 24.227-47.922 39.555 2.1914 2.3867 4.4375 4.7344 6.7344 7.0469 34.344 34.535 79.004 56.934 127.22 63.805-38.773-25.441-68.203-63.602-86.035-110.41z"/>
  <path d="m306.11 486.97c-15.699-16.895-26.535-37.727-31.355-60.281 1.7148 23.43 6.1758 46.578 13.285 68.969 5.8906-3.1523 11.918-6.0469 18.07-8.6875z"/>
 </g>
</svg>