<?xml version="1.0" encoding="UTF-8"?>
<!-- The Best Svg Icon site in the world: iconSvg.co, Visit us! https://iconsvg.co -->
<svg fill="#000000" width="800px" height="800px" version="1.1" viewBox="144 144 512 512" xmlns="http://www.w3.org/2000/svg">
 <g>
  <path d="m541.7 289.79h-15.746c-4.3477 0-7.8711-3.5234-7.8711-7.8711 0-4.3477-3.5234-7.8711-7.8711-7.8711-4.3477 0-7.8711 3.5234-7.8711 7.8711 0 6.2617 2.4883 12.27 6.9141 16.699 4.4297 4.4297 10.438 6.918 16.699 6.918v7.8711c0 4.3477 3.5273 7.8711 7.875 7.8711 4.3477 0 7.8711-3.5234 7.8711-7.8711v-7.8711c8.4375 0 16.234-4.5039 20.453-11.809 4.2188-7.3086 4.2188-16.309 0-23.617-4.2188-7.3047-12.016-11.809-20.453-11.809h-15.746c-4.3477 0-7.8711-3.5234-7.8711-7.8711 0-4.3477 3.5234-7.8711 7.8711-7.8711h15.746c2.0859 0 4.0898 0.82812 5.5664 2.3047 1.4766 1.4766 2.3047 3.4805 2.3047 5.5664 0 4.3477 3.5234 7.8711 7.8711 7.8711s7.875-3.5234 7.875-7.8711c0-6.2617-2.4883-12.27-6.918-16.699-4.4297-4.4297-10.438-6.918-16.699-6.918v-7.8711c0-4.3477-3.5234-7.8711-7.8711-7.8711-4.3477 0-7.875 3.5234-7.875 7.8711v7.8711c-8.4336 0-16.23 4.5039-20.449 11.809-4.2188 7.3086-4.2188 16.309 0 23.617 4.2188 7.3086 12.016 11.809 20.449 11.809h15.746c4.3477 0 7.8711 3.5234 7.8711 7.8711 0 4.3477-3.5234 7.8711-7.8711 7.8711z"/>
  <path d="m533.82 344.89c20.875 0 40.898-8.293 55.664-23.059 14.762-14.762 23.055-34.785 23.055-55.66 0-20.879-8.293-40.902-23.055-55.664-14.766-14.766-34.789-23.059-55.664-23.059-20.879 0-40.902 8.293-55.664 23.059-14.766 14.762-23.059 34.785-23.059 55.664 0.023438 20.871 8.3242 40.879 23.082 55.637 14.758 14.758 34.77 23.059 55.641 23.082zm0-141.7c16.699 0 32.719 6.6328 44.531 18.445 11.809 11.809 18.445 27.828 18.445 44.531 0 16.699-6.6367 32.719-18.445 44.527-11.812 11.812-27.832 18.445-44.531 18.445-16.703 0-32.723-6.6328-44.531-18.445-11.812-11.809-18.445-27.828-18.445-44.527 0.019532-16.699 6.6602-32.707 18.465-44.512 11.805-11.805 27.812-18.449 44.512-18.465z"/>
  <path d="m462.27 404.64-31.488-70.848v-0.003906c-1.2461-2.8359-4.0625-4.6641-7.1641-4.6445h-23.613v-15.742c0-2.0859-0.83203-4.0898-2.3086-5.5664-1.4766-1.4766-3.4766-2.3047-5.5664-2.3047h-157.44c-4.3477 0-7.875 3.5234-7.875 7.8711v15.742h-23.613c-3.1016-0.019532-5.918 1.8086-7.1641 4.6445l-31.488 70.848v0.003906c-0.46875 1.0117-0.71094 2.1133-0.71094 3.2266v39.359c0.023437 6.9648 2.3555 13.723 6.6289 19.223 4.2734 5.4961 10.246 9.4219 16.988 11.164v150.67c0 2.0859 0.83203 4.0898 2.3047 5.5664 1.4766 1.4727 3.4805 2.3047 5.5664 2.3047h236.16c2.0859 0 4.0898-0.83203 5.5664-2.3047 1.4727-1.4766 2.3047-3.4805 2.3047-5.5664v-150.67c6.7422-1.7422 12.715-5.668 16.988-11.164 4.2734-5.5 6.6055-12.258 6.6289-19.223v-39.359c0-1.1133-0.24219-2.2148-0.71094-3.2266zm-219.71-83.367h141.7v31.488h-141.7zm-34.242 23.617h18.496v15.742c0 2.0898 0.83203 4.0898 2.3086 5.5664 1.4766 1.4766 3.4766 2.3086 5.5664 2.3086h157.44c2.0898 0 4.0898-0.83203 5.5664-2.3086 1.4766-1.4766 2.3086-3.4766 2.3086-5.5664v-15.742h18.5l24.48 55.105h-259.15zm191.68 70.848v31.488c0 5.625-3.0039 10.824-7.875 13.637s-10.871 2.8125-15.742 0c-4.8711-2.8125-7.8711-8.0117-7.8711-13.637v-31.488zm-47.23 0v31.488h-0.003906c0 5.625-3 10.824-7.8711 13.637-4.8711 2.8125-10.871 2.8125-15.746 0-4.8711-2.8125-7.8711-8.0117-7.8711-13.637v-31.488zm-47.23 0v31.488h-0.003906c0 5.625-3 10.824-7.8711 13.637-4.875 2.8125-10.875 2.8125-15.746 0-4.8711-2.8125-7.8711-8.0117-7.8711-13.637v-31.488zm-47.23 0v31.488h-0.007813c0 5.625-3 10.824-7.8711 13.637-4.8711 2.8125-10.871 2.8125-15.742 0s-7.875-8.0117-7.875-13.637v-31.488zm-78.727 31.488v-31.488h31.488v31.488c0 5.625-3 10.824-7.8711 13.637-4.8711 2.8125-10.875 2.8125-15.746 0s-7.8711-8.0117-7.8711-13.637zm102.34 173.18h-47.23v-94.465h47.23zm141.7 0h-125.95v-102.34c0-2.0859-0.83203-4.0898-2.3086-5.5664-1.4766-1.4766-3.4766-2.3047-5.5664-2.3047h-62.977c-4.3477 0-7.8711 3.5234-7.8711 7.8711v102.34h-15.742v-142.8c6.0977-1.625 11.574-5.0234 15.742-9.7617 5.9102 6.8945 14.535 10.863 23.617 10.863 9.0781 0 17.707-3.9688 23.617-10.863 5.9062 6.8945 14.535 10.863 23.613 10.863 9.082 0 17.707-3.9688 23.617-10.863 5.9102 6.8945 14.535 10.863 23.617 10.863 9.0781 0 17.707-3.9688 23.613-10.863 5.9102 6.8945 14.539 10.863 23.617 10.863 9.082 0 17.707-3.9688 23.617-10.863 4.168 4.7383 9.6445 8.1367 15.742 9.7617zm23.617-173.18c0 5.625-3 10.824-7.8711 13.637s-10.875 2.8125-15.746 0c-4.8711-2.8125-7.8711-8.0117-7.8711-13.637v-31.488h31.488z"/>
  <path d="m400 525.95h-78.723c-4.3477 0-7.8711 3.5273-7.8711 7.875v47.23c0 2.0898 0.82812 4.0898 2.3047 5.5664 1.4766 1.4766 3.4805 2.3047 5.5664 2.3047h78.723c2.0859 0 4.0898-0.82812 5.5664-2.3047 1.4766-1.4766 2.3047-3.4766 2.3047-5.5664v-47.23c0-2.0898-0.82812-4.0898-2.3047-5.5664-1.4766-1.4766-3.4805-2.3086-5.5664-2.3086zm-7.8711 47.23-62.98 0.003906v-31.488h62.977z"/>
  <path d="m533.82 368.51c27.141 0 53.168-10.781 72.363-29.977 19.191-19.191 29.973-45.219 29.973-72.359 0-27.145-10.781-53.172-29.973-72.363-19.195-19.191-45.223-29.977-72.363-29.977-27.145 0-53.172 10.785-72.363 29.977-19.191 19.191-29.973 45.219-29.973 72.363 0.03125 27.129 10.82 53.141 30.008 72.328 19.184 19.184 45.195 29.977 72.328 30.008zm0-188.93c22.965 0 44.988 9.1211 61.23 25.363 16.238 16.238 25.359 38.262 25.359 61.23 0 22.965-9.1211 44.988-25.359 61.227-16.242 16.242-38.266 25.363-61.23 25.363-22.969 0-44.992-9.1211-61.23-25.363-16.238-16.238-25.363-38.262-25.363-61.227 0.027343-22.961 9.1602-44.969 25.391-61.203 16.234-16.23 38.246-25.363 61.203-25.391z"/>
  <path d="m620.41 360.64c-4.3477 0-7.8711 3.5273-7.8711 7.875-0.042969 39.652-15.816 77.672-43.855 105.71-28.039 28.039-66.059 43.812-105.71 43.855-4.3477 0-7.875 3.5234-7.875 7.8711 0 4.3477 3.5273 7.875 7.875 7.875 43.828-0.050781 85.848-17.48 116.84-48.473 30.992-30.992 48.422-73.012 48.473-116.84 0-2.0898-0.83203-4.0898-2.3086-5.5664-1.4766-1.4766-3.4766-2.3086-5.5664-2.3086z"/>
  <path d="m286.77 289.43c1.9922 0.625 4.1523 0.43359 6.0039-0.53125 1.8516-0.96484 3.2422-2.625 3.8711-4.6172 9.4609-30.422 28.43-57.008 54.117-75.852s56.742-28.957 88.602-28.848c4.3477 0 7.8711-3.5234 7.8711-7.8711 0-4.3477-3.5234-7.875-7.8711-7.875-35.211-0.11328-69.535 11.062-97.926 31.891-28.391 20.828-49.359 50.211-59.824 83.828-0.625 1.9961-0.43359 4.1562 0.53516 6.0078 0.96484 1.8516 2.6289 3.2422 4.6211 3.8672z"/>
 </g>
</svg>