<?xml version="1.0" encoding="UTF-8"?>
<!-- The Best Svg Icon site in the world: iconSvg.co, Visit us! https://iconsvg.co -->
<svg fill="#000000" width="800px" height="800px" version="1.1" viewBox="144 144 512 512" xmlns="http://www.w3.org/2000/svg">
 <path d="m622.15 270.43c-0.87109-7.5234-4.418-14.48-10-19.598-5.5781-5.1211-12.816-8.0547-20.387-8.2695-61.93-1.7891-122.2-20.461-174.29-54.004-5.1719-3.4492-11.254-5.293-17.473-5.293-6.2227 0-12.305 1.8438-17.477 5.293-52.094 33.543-112.36 52.215-174.29 54.004-7.5664 0.21484-14.805 3.1484-20.387 8.2695-5.582 5.1172-9.1289 12.074-9.9961 19.598-6.3008 63.922-9.6055 278.36 217.42 349.99 3.0625 1.0586 6.3867 1.0586 9.4492 0 227.03-71.633 223.72-286.07 217.43-349.99zm-222.15 318.5c-199.64-66.125-196.49-257.89-190.5-314.88 67.715-2.1016 133.58-22.621 190.5-59.355 56.992 36.832 122.98 57.359 190.82 59.355 5.668 56.992 8.8164 248.75-190.82 314.88z"/>
</svg>