<?xml version="1.0" encoding="UTF-8"?>
<!-- The Best Svg Icon site in the world: iconSvg.co, Visit us! https://iconsvg.co -->
<svg fill="#000000" width="800px" height="800px" version="1.1" viewBox="144 144 512 512" xmlns="http://www.w3.org/2000/svg">
 <g>
  <path d="m577.86 400.02c0-2.8867 2.3633-5.2461 5.2461-5.2461h37.039c-0.62109-26.082-5.8047-51.02-14.758-74.133l-12.133 5.0273c-0.66016 0.26172-1.332 0.39844-2.0039 0.39844-2.0469 0-4-1.2188-4.8398-3.2422-1.1016-2.6758 0.16797-5.75 2.8438-6.8555l12.176-5.0273c-10.371-23.363-24.707-44.523-42.109-62.789l-9.2266 9.2383c-1.0273 1.0273-2.3828 1.5312-3.7148 1.5312-1.3555 0-2.6875-0.52344-3.7266-1.5312-2.0469-2.0469-2.0469-5.375 0-7.4219l9.2266-9.2383c-18.242-17.402-39.422-31.73-62.766-42.109l-5.0586 12.176c-0.83984 2.0039-2.793 3.2422-4.8398 3.2422-0.67188 0-1.3555-0.13672-2.0039-0.39844-2.6875-1.1133-3.957-4.1992-2.8555-6.875l5.0273-12.113c-23.102-8.9648-48.031-14.16-74.133-14.758v37.031c0 2.8867-2.3516 5.2461-5.2461 5.2461-2.8984 0-5.2461-2.3633-5.2461-5.2461v-37.051c-26.094 0.62109-51.031 5.8047-74.145 14.758l5.0273 12.113c1.1016 2.6758-0.16797 5.75-2.8438 6.8555-0.66016 0.26172-1.332 0.39844-2.0039 0.39844-2.0586 0-4.0078-1.2188-4.8477-3.2539l-5.0586-12.156c-23.359 10.383-44.531 24.707-62.781 42.121l9.2266 9.2266c2.0469 2.0469 2.0469 5.375 0 7.4219-1.0273 1.0273-2.3711 1.5312-3.7148 1.5312s-2.6875-0.52344-3.7148-1.5312l-9.2188-9.2383c-17.414 18.254-31.73 39.434-42.109 62.766l12.188 5.0391c2.6758 1.1016 3.9453 4.1758 2.8438 6.8555-0.83984 2.0039-2.793 3.2422-4.8477 3.2422-0.67188 0-1.3555-0.13672-2.0039-0.39844l-12.121-5.0273c-8.9648 23.113-14.148 48.051-14.77 74.133h37.031c2.8984 0 5.2461 2.3633 5.2461 5.2461 0 2.8984-2.3516 5.2461-5.2461 5.2461l-37.047 0.003906c0.62109 26.094 5.793 51.02 14.77 74.145l12.121-5.0273c2.6641-1.1133 5.75 0.17969 6.8555 2.8438 1.1016 2.6875-0.16797 5.7617-2.8438 6.8555l-12.188 5.0273c10.371 23.363 24.695 44.523 42.109 62.777l9.2266-9.2266c2.0469-2.0352 5.375-2.0352 7.4219 0 2.0469 2.0469 2.0469 5.3828 0 7.4219l-9.2266 9.2266c18.254 17.414 39.422 31.73 62.777 42.121l5.0469-12.176c1.1133-2.6875 4.207-3.9766 6.8555-2.8438 2.6758 1.1016 3.9453 4.1758 2.8438 6.8555l-5.0273 12.102c23.113 8.9648 48.051 14.168 74.145 14.777v-37.039c0-2.8867 2.3516-5.2461 5.2461-5.2461 2.8984 0 5.2461 2.3633 5.2461 5.2461v37.039c26.105-0.62891 51.031-5.8164 74.133-14.758l-5.0273-12.121c-1.1016-2.6758 0.16797-5.75 2.8438-6.8555 2.6641-1.125 5.7617 0.16797 6.8438 2.8438l5.0586 12.176c23.355-10.371 44.504-24.707 62.766-42.121l-9.2266-9.2266c-2.0469-2.0352-2.0469-5.375 0-7.4219 2.0469-2.0352 5.375-2.0352 7.4219 0l9.2266 9.2266c17.402-18.254 31.73-39.434 42.109-62.777l-12.176-5.0273c-2.6875-1.0898-3.957-4.168-2.8438-6.8555 1.1016-2.6641 4.1758-3.9375 6.8438-2.8438l12.113 5.0273c8.9727-23.121 14.168-48.051 14.777-74.145h-37.039c-2.8516 0.039063-5.1914-2.3086-5.1914-5.207zm-73.199-94.402c-22.062 30.5-42.395 62.746-60.438 95.777-0.71484 23.332-19.531 42.152-42.844 42.867-33.062 18.062-65.285 38.383-95.797 60.438-1.25 0.92188-2.7383 1.3945-4.3047 1.3945-1.5547 0-3.0547-0.47266-4.3125-1.3945-1.5625-1.125-2.625-2.832-2.9375-4.7773-0.31641-1.9414 0.14844-3.8711 1.3008-5.4688 22.051-30.5 42.383-62.734 60.438-95.785 0.71484-23.32 19.543-42.152 42.855-42.867 33.062-18.062 65.285-38.383 95.785-60.438 1.2695-0.91406 2.75-1.3945 4.3047-1.3945 1.5312 0 3.0352 0.48438 4.2812 1.3945 1.5938 1.1445 2.6445 2.8438 2.9492 4.7969 0.33203 1.9297-0.14062 3.8633-1.2812 5.457z"/>
  <path d="m422.85 400.02c0 12.621-10.23 22.852-22.848 22.852-12.621 0-22.852-10.23-22.852-22.852 0-12.621 10.23-22.852 22.852-22.852 12.617 0 22.848 10.23 22.848 22.852"/>
  <path d="m412.35 400.02c0 6.8242-5.5312 12.355-12.352 12.355-6.8242 0-12.355-5.5312-12.355-12.355s5.5312-12.355 12.355-12.355c6.8203 0 12.352 5.5312 12.352 12.355"/>
 </g>
</svg>