<?xml version="1.0" encoding="UTF-8"?>
<!-- The Best Svg Icon site in the world: iconSvg.co, Visit us! https://iconsvg.co -->
<svg fill="#000000" width="800px" height="800px" version="1.1" viewBox="144 144 512 512" xmlns="http://www.w3.org/2000/svg">
 <g>
  <path d="m400 620.41 39.359-55.102h-15.746v-47.234h-47.23v47.234h-15.746l39.363 55.102"/>
  <path d="m533.82 447.23v55.105h-15.746l39.359 55.102 39.363-55.102h-15.746v-55.105z"/>
  <path d="m218.94 439.36v55.102h-15.742l39.359 55.105 39.359-55.105h-15.742v-55.102z"/>
  <path d="m423.61 494.46c-4.3477 0-7.8711-3.5234-7.8711-7.8711v-7.8711c0-4.3477 3.5234-7.8711 7.8711-7.8711 4.3477 0 7.875 3.5234 7.875 7.8711v7.8711c0 2.0898-0.83203 4.0898-2.3086 5.5664-1.4766 1.4766-3.4766 2.3047-5.5664 2.3047z"/>
  <path d="m376.38 494.46c-4.3477 0-7.8711-3.5234-7.8711-7.8711v-7.8711c0-4.3477 3.5234-7.8711 7.8711-7.8711 4.3477 0 7.8711 3.5234 7.8711 7.8711v7.8711c0 2.0898-0.82812 4.0898-2.3047 5.5664-1.4766 1.4766-3.4805 2.3047-5.5664 2.3047z"/>
  <path d="m423.61 462.98c-4.3477 0-7.8711-3.5273-7.8711-7.875v-7.8711c0-4.3477 3.5234-7.8711 7.8711-7.8711 4.3477 0 7.875 3.5234 7.875 7.8711v7.8711c0 2.0898-0.83203 4.0898-2.3086 5.5664-1.4766 1.4766-3.4766 2.3086-5.5664 2.3086z"/>
  <path d="m376.38 462.98c-4.3477 0-7.8711-3.5273-7.8711-7.875v-7.8711c0-4.3477 3.5234-7.8711 7.8711-7.8711 4.3477 0 7.8711 3.5234 7.8711 7.8711v7.8711c0 2.0898-0.82812 4.0898-2.3047 5.5664-1.4766 1.4766-3.4805 2.3086-5.5664 2.3086z"/>
  <path d="m423.61 431.49c-4.3477 0-7.8711-3.5273-7.8711-7.875v-7.8711c0-4.3477 3.5234-7.8711 7.8711-7.8711 4.3477 0 7.875 3.5234 7.875 7.8711v7.8711c0 2.0898-0.83203 4.0898-2.3086 5.5664-1.4766 1.4766-3.4766 2.3086-5.5664 2.3086z"/>
  <path d="m376.38 431.49c-4.3477 0-7.8711-3.5273-7.8711-7.875v-7.8711c0-4.3477 3.5234-7.8711 7.8711-7.8711 4.3477 0 7.8711 3.5234 7.8711 7.8711v7.8711c0 2.0898-0.82812 4.0898-2.3047 5.5664-1.4766 1.4766-3.4805 2.3086-5.5664 2.3086z"/>
  <path d="m218.94 415.74c-4.3477 0-7.8711-3.5234-7.8711-7.8711v-7.8711c0-4.3477 3.5234-7.875 7.8711-7.875s7.8711 3.5273 7.8711 7.875v7.8711c0 2.0859-0.82812 4.0898-2.3047 5.5664-1.4766 1.4766-3.4766 2.3047-5.5664 2.3047z"/>
  <path d="m266.18 415.74c-4.3477 0-7.875-3.5234-7.875-7.8711v-7.8711c0-4.3477 3.5273-7.875 7.875-7.875 4.3477 0 7.8711 3.5273 7.8711 7.875v7.8711c0 2.0859-0.83203 4.0898-2.3047 5.5664-1.4766 1.4766-3.4805 2.3047-5.5664 2.3047z"/>
  <path d="m533.82 423.61c-4.3477 0-7.875-3.5234-7.875-7.8711v-7.8711c0-4.3477 3.5273-7.8711 7.875-7.8711 4.3477 0 7.8711 3.5234 7.8711 7.8711v7.8711c0 2.0898-0.82812 4.0898-2.3047 5.5664-1.4766 1.4766-3.4805 2.3047-5.5664 2.3047z"/>
  <path d="m581.05 423.61c-4.3477 0-7.8711-3.5234-7.8711-7.8711v-7.8711c0-4.3477 3.5234-7.8711 7.8711-7.8711 4.3477 0 7.8711 3.5234 7.8711 7.8711v7.8711c0 2.0898-0.82812 4.0898-2.3047 5.5664-1.4766 1.4766-3.4766 2.3047-5.5664 2.3047z"/>
  <path d="m400 258.3c-16.703 0-32.723 6.6367-44.531 18.445-11.812 11.812-18.445 27.828-18.445 44.531s6.6328 32.723 18.445 44.531c11.809 11.812 27.828 18.445 44.531 18.445 16.699 0 32.719-6.6328 44.531-18.445 11.809-11.809 18.445-27.828 18.445-44.531-0.019531-16.695-6.6602-32.703-18.469-44.508-11.805-11.809-27.812-18.449-44.508-18.469zm-7.8711 55.105h15.742c8.4375 0 16.234 4.5 20.453 11.809 4.2188 7.3047 4.2188 16.309 0 23.617-4.2188 7.3047-12.016 11.805-20.453 11.805v7.875c0 4.3477-3.5234 7.8711-7.8711 7.8711s-7.875-3.5234-7.875-7.8711v-7.875c-6.2617 0-12.27-2.4883-16.699-6.9141-4.4258-4.4297-6.9141-10.438-6.9141-16.699 0-4.3477 3.5234-7.875 7.8711-7.875 4.3477 0 7.8711 3.5273 7.8711 7.875 0 2.0859 0.82812 4.0898 2.3047 5.5664 1.4766 1.4766 3.4805 2.3047 5.5664 2.3047h15.746c4.3477 0 7.8711-3.5234 7.8711-7.8711 0-4.3477-3.5234-7.875-7.8711-7.875h-15.746c-8.4375 0-16.23-4.5-20.449-11.805-4.2188-7.3086-4.2188-16.312 0-23.617 4.2188-7.3086 12.012-11.809 20.449-11.809v-7.8711c0-4.3477 3.5273-7.8711 7.875-7.8711s7.8711 3.5234 7.8711 7.8711v7.8711c6.2617 0 12.27 2.4883 16.699 6.918 4.4297 4.4297 6.918 10.434 6.918 16.699 0 4.3477-3.5273 7.8711-7.875 7.8711-4.3477 0-7.8711-3.5234-7.8711-7.8711 0-2.0898-0.82813-4.0898-2.3047-5.5664s-3.4805-2.3047-5.5664-2.3047h-15.746c-4.3477 0-7.8711 3.5234-7.8711 7.8711s3.5234 7.8711 7.8711 7.8711z"/>
  <path d="m557.44 179.58c-16.699 0-32.719 6.6367-44.531 18.445-11.809 11.809-18.445 27.828-18.445 44.531s6.6367 32.719 18.445 44.531c11.812 11.809 27.832 18.445 44.531 18.445 16.703 0 32.723-6.6367 44.531-18.445 11.812-11.812 18.445-27.828 18.445-44.531-0.019531-16.695-6.6602-32.703-18.465-44.512-11.805-11.805-27.812-18.445-44.512-18.465zm-7.8711 55.105h15.746c8.4375 0 16.23 4.5 20.449 11.805 4.2188 7.3086 4.2188 16.312 0 23.617-4.2188 7.3086-12.012 11.809-20.449 11.809v7.8711c0 4.3477-3.5273 7.875-7.875 7.875s-7.8711-3.5273-7.8711-7.875v-7.8711c-6.2617 0-12.27-2.4883-16.699-6.918-4.4297-4.4258-6.918-10.434-6.918-16.699 0-4.3477 3.5273-7.8711 7.875-7.8711 4.3477 0 7.8711 3.5234 7.8711 7.8711 0 2.0898 0.82813 4.0898 2.3047 5.5664 1.4766 1.4766 3.4805 2.3086 5.5664 2.3086h15.746c4.3477 0 7.8711-3.5273 7.8711-7.875 0-4.3477-3.5234-7.8711-7.8711-7.8711h-15.746c-8.4375 0-16.234-4.5-20.453-11.809-4.2188-7.3047-4.2188-16.309 0-23.613 4.2188-7.3086 12.016-11.809 20.453-11.809v-7.875c0-4.3477 3.5234-7.8711 7.8711-7.8711s7.875 3.5234 7.875 7.8711v7.875c6.2617 0 12.27 2.4883 16.699 6.9141 4.4258 4.4297 6.9141 10.438 6.9141 16.699 0 4.3477-3.5234 7.875-7.8711 7.875-4.3477 0-7.8711-3.5273-7.8711-7.875 0-2.0859-0.82812-4.0898-2.3047-5.5664-1.4766-1.4766-3.4805-2.3047-5.5664-2.3047h-15.746c-4.3477 0-7.8711 3.5234-7.8711 7.8711s3.5234 7.875 7.8711 7.875z"/>
  <path d="m242.56 179.58c-16.703 0-32.723 6.6367-44.531 18.445s-18.445 27.828-18.445 44.531 6.6367 32.719 18.445 44.531c11.809 11.809 27.828 18.445 44.531 18.445s32.719-6.6367 44.531-18.445c11.809-11.812 18.445-27.828 18.445-44.531-0.019531-16.695-6.6602-32.703-18.469-44.512-11.805-11.805-27.812-18.445-44.508-18.465zm-7.8711 55.105h15.742c8.4375 0 16.234 4.5 20.453 11.805 4.2188 7.3086 4.2188 16.312 0 23.617-4.2188 7.3086-12.016 11.809-20.453 11.809v7.8711c0 4.3477-3.5234 7.875-7.8711 7.875s-7.8711-3.5273-7.8711-7.875v-7.8711c-6.2656 0-12.273-2.4883-16.699-6.918-4.4297-4.4258-6.918-10.434-6.918-16.699 0-4.3477 3.5234-7.8711 7.8711-7.8711s7.8711 3.5234 7.8711 7.8711c0 2.0898 0.83203 4.0898 2.3086 5.5664 1.4766 1.4766 3.4766 2.3086 5.5664 2.3086h15.742c4.3477 0 7.8711-3.5273 7.8711-7.875 0-4.3477-3.5234-7.8711-7.8711-7.8711h-15.742c-8.4375 0-16.234-4.5-20.453-11.809-4.2188-7.3047-4.2188-16.309 0-23.613 4.2188-7.3086 12.016-11.809 20.453-11.809v-7.875c0-4.3477 3.5234-7.8711 7.8711-7.8711s7.8711 3.5234 7.8711 7.8711v7.875c6.2656 0 12.27 2.4883 16.699 6.9141 4.4297 4.4297 6.918 10.438 6.918 16.699 0 4.3477-3.5234 7.875-7.8711 7.875-4.3477 0-7.875-3.5273-7.875-7.875 0-2.0859-0.82812-4.0898-2.3047-5.5664-1.4766-1.4766-3.4766-2.3047-5.5664-2.3047h-15.742c-4.3477 0-7.875 3.5234-7.875 7.8711s3.5273 7.875 7.875 7.875z"/>
  <path d="m218.94 360.64c-4.3477 0-7.8711 3.5273-7.8711 7.875v7.8711c0 4.3477 3.5234 7.8711 7.8711 7.8711s7.8711-3.5234 7.8711-7.8711v-7.8711c0-2.0898-0.82812-4.0898-2.3047-5.5664-1.4766-1.4766-3.4766-2.3086-5.5664-2.3086z"/>
  <path d="m218.94 329.15c-4.3477 0-7.8711 3.5273-7.8711 7.875v7.8711c0 4.3477 3.5234 7.8711 7.8711 7.8711s7.8711-3.5234 7.8711-7.8711v-7.8711c0-2.0898-0.82812-4.0898-2.3047-5.5664-1.4766-1.4766-3.4766-2.3086-5.5664-2.3086z"/>
  <path d="m266.18 360.64c-4.3477 0-7.875 3.5273-7.875 7.875v7.8711c0 4.3477 3.5273 7.8711 7.875 7.8711 4.3477 0 7.8711-3.5234 7.8711-7.8711v-7.8711c0-2.0898-0.83203-4.0898-2.3047-5.5664-1.4766-1.4766-3.4805-2.3086-5.5664-2.3086z"/>
  <path d="m266.18 329.15c-4.3477 0-7.875 3.5273-7.875 7.875v7.8711c0 4.3477 3.5273 7.8711 7.875 7.8711 4.3477 0 7.8711-3.5234 7.8711-7.8711v-7.8711c0-2.0898-0.83203-4.0898-2.3047-5.5664-1.4766-1.4766-3.4805-2.3086-5.5664-2.3086z"/>
  <path d="m533.82 368.51c-4.3477 0-7.875 3.5234-7.875 7.8711v7.8711c0 4.3477 3.5273 7.8711 7.875 7.8711 4.3477 0 7.8711-3.5234 7.8711-7.8711v-7.8711c0-2.0898-0.82812-4.0898-2.3047-5.5664-1.4766-1.4766-3.4805-2.3047-5.5664-2.3047z"/>
  <path d="m533.82 337.02c-4.3477 0-7.875 3.5234-7.875 7.8711v7.8711c0 4.3477 3.5273 7.8711 7.875 7.8711 4.3477 0 7.8711-3.5234 7.8711-7.8711v-7.8711c0-2.0898-0.82812-4.0898-2.3047-5.5664s-3.4805-2.3047-5.5664-2.3047z"/>
  <path d="m581.05 368.51c-4.3477 0-7.8711 3.5234-7.8711 7.8711v7.8711c0 4.3477 3.5234 7.8711 7.8711 7.8711 4.3477 0 7.8711-3.5234 7.8711-7.8711v-7.8711c0-2.0898-0.82812-4.0898-2.3047-5.5664-1.4766-1.4766-3.4766-2.3047-5.5664-2.3047z"/>
  <path d="m581.05 337.02c-4.3477 0-7.8711 3.5234-7.8711 7.8711v7.8711c0 4.3477 3.5234 7.8711 7.8711 7.8711 4.3477 0 7.8711-3.5234 7.8711-7.8711v-7.8711c0-2.0898-0.82812-4.0898-2.3047-5.5664-1.4766-1.4766-3.4766-2.3047-5.5664-2.3047z"/>
 </g>
</svg>