<?xml version="1.0" encoding="UTF-8"?>
<!-- The Best Svg Icon site in the world: iconSvg.co, Visit us! https://iconsvg.co -->
<svg fill="#000000" width="800px" height="800px" version="1.1" viewBox="144 144 512 512" xmlns="http://www.w3.org/2000/svg">
 <g>
  <path d="m401.61 365.11h-3.2031c-9.8633 0-17.891-8.0273-17.891-17.891 0-9.8633 8.0273-17.891 17.891-17.891h21.113c1.7852 0 3.2227-1.4453 3.2227-3.2227 0-1.7773-1.4414-3.2227-3.2227-3.2227h-14.688v-11.906c0-1.7852-1.4414-3.2227-3.2227-3.2227-1.7852 0-3.2227 1.4453-3.2227 3.2227v11.906c-13.41 0.011719-24.32 10.922-24.32 24.34 0 13.422 10.918 24.34 24.34 24.34h3.2031c9.8633 0 17.895 8.0273 17.895 17.891 0 9.8594-8.0195 17.879-17.875 17.891h-0.015625-0.023437-21.09c-1.7852 0-3.2227 1.4453-3.2227 3.2227 0 1.7852 1.4414 3.2305 3.2227 3.2305h17.891v11.898c0 1.7852 1.4453 3.2305 3.2227 3.2305s3.2227-1.4453 3.2227-3.2305v-12.121c11.898-1.582 21.113-11.793 21.113-24.121 0-13.422-10.918-24.344-24.34-24.344z"/>
  <path d="m400 287.75c-44.438 0-80.59 36.152-80.59 80.59s36.152 80.59 80.59 80.59 80.59-36.152 80.59-80.59c-0.007812-44.438-36.152-80.59-80.59-80.59zm0 154.73c-40.883 0-74.141-33.266-74.141-74.145 0-40.879 33.262-74.141 74.141-74.141s74.141 33.262 74.141 74.141c0 40.875-33.262 74.145-74.141 74.145z"/>
  <path d="m358.97 533.93c-9.3359 0-16.93 7.5938-16.93 16.922 0 9.2969 7.5938 16.859 16.93 16.859s16.93-7.5625 16.93-16.859c-0.003907-9.3281-7.5938-16.922-16.93-16.922zm0 27.34c-5.7773 0-10.48-4.6719-10.48-10.41 0-5.875 4.6055-10.48 10.48-10.48 5.7773 0 10.48 4.707 10.48 10.48 0 5.7383-4.7031 10.41-10.48 10.41z"/>
  <path d="m441.04 533.93c-9.3359 0-16.922 7.5938-16.922 16.922 0 9.2969 7.5938 16.859 16.922 16.859 9.332 0 16.93-7.5625 16.93-16.859-0.003906-9.3281-7.6016-16.922-16.93-16.922zm0 27.34c-5.7734 0-10.48-4.6719-10.48-10.41 0-5.7734 4.707-10.48 10.48-10.48 5.8789 0 10.48 4.6055 10.48 10.48-0.003906 5.7383-4.7031 10.41-10.48 10.41z"/>
  <path d="m617.64 306.15c-7.9961-9.9453-18.129-18.152-29.305-23.746-11.965-5.9766-24.691-9.0078-37.832-9.0078-3.2656 0-6.5 0.19141-9.8047 0.57422 0.097656-23.051-5.0117-47.035-15.203-71.375-2.6992-7.5664-10.41-12.262-18.379-11.164-4.4648 0.63672-8.4102 2.9766-11.113 6.5898-2.6992 3.6055-3.8359 8.0508-3.1992 12.484 1.8633 13.715 0.74219 26.355-3.4297 38.543-25.695-9.75-57.273-15.094-89.375-15.094-32.102 0-63.688 5.3516-89.375 15.094-4.1758-12.184-5.2969-24.828-3.4297-38.52 0.64062-4.457-0.5-8.9023-3.1992-12.504-2.707-3.6055-6.6484-5.9492-11.129-6.5898-7.957-1.0938-15.664 3.5977-18.359 11.168-10.191 24.34-15.301 48.324-15.203 71.375-3.3047-0.38672-6.5391-0.57422-9.8047-0.57422-13.141 0-25.871 3.0312-37.832 9.0078-11.18 5.5938-21.312 13.801-29.305 23.746-5.6523 5.9609-6.1016 15.352-1.0195 21.941 8.3125 10.551 18.801 19.148 30.324 24.863 5.1523 2.5859 10.555 4.6445 16.051 6.1367 4.7188 1.2695 9.5508 2.1406 14.402 2.5938 3.2344 31.355 17.176 57.566 30.672 82.926 12.484 23.457 25.391 47.723 29.383 75.625 0.34766 2.7969 1.7578 5.1836 3.9062 6.7578-3.3008 7.2852-5.1406 15.367-5.1406 23.867 0 31.922 26.035 57.895 58.039 57.895h82.066c32.004 0 58.039-25.973 58.039-57.895 0-8.5039-1.8398-16.586-5.1445-23.867 2.1523-1.5703 3.5586-3.9492 3.8984-6.6953 3.9961-27.965 16.902-52.227 29.387-75.684 13.496-25.363 27.438-51.57 30.672-82.926 4.8516-0.45312 9.6836-1.3203 14.402-2.5938 5.4922-1.4844 10.891-3.5508 16.035-6.125 11.527-5.7188 22.016-14.316 30.348-24.895 5.0586-6.5781 4.6094-15.973-1.043-21.934zm-176.61 296.16h-82.066c-28.445 0-51.59-23.078-51.59-51.449 0-8.4453 2.0391-16.426 5.6523-23.469 0.17188-0.23828 0.3125-0.50391 0.41406-0.78516 8.6953-16.254 25.84-27.332 45.523-27.332h82.066c19.684 0 36.832 11.082 45.523 27.336 0.10156 0.28906 0.24219 0.54297 0.40625 0.77734 3.6133 7.043 5.6523 15.027 5.6523 23.473 0 28.367-23.137 51.449-51.582 51.449zm172.56-278.21c-7.7266 9.8047-17.457 17.785-28.145 23.09-4.7695 2.3945-9.7695 4.3008-14.844 5.6719-5.1953 1.4023-10.535 2.2734-15.875 2.5938-1.5977 0.097656-2.8867 1.3555-3.0234 2.9531-2.5625 31.258-16.609 57.645-30.188 83.176-12.742 23.949-25.922 48.715-30.086 77.855-0.082031 0.64062-0.28906 1.1836-0.60547 1.6406-10.156-16.914-28.676-28.258-49.801-28.258h-82.066c-21.121 0-39.645 11.348-49.797 28.254-0.32422-0.46484-0.53516-1.0273-0.62109-1.6914-4.1562-29.086-17.332-53.852-30.078-77.797-13.582-25.523-27.625-51.918-30.191-83.176-0.13281-1.5977-1.4219-2.8555-3.0195-2.9531-5.3438-0.32422-10.688-1.1953-15.875-2.5938-5.0781-1.375-10.07-3.2852-14.852-5.6797-10.68-5.2969-20.41-13.281-28.117-23.059-3.1602-4.0898-2.8672-9.9453 0.67969-13.613 0.070312-0.070313 0.13672-0.14453 0.19531-0.22266 7.4297-9.2734 16.852-16.922 27.246-22.121 11.059-5.5273 22.816-8.3281 34.949-8.3281 4.1562 0 8.2734 0.33203 12.582 1.0195 0.94531 0.15234 1.9141-0.125 2.6367-0.76172 0.71875-0.62891 1.125-1.5586 1.0938-2.5156-0.67969-23.305 4.2578-47.73 14.68-72.582 0.023438-0.058594 0.046876-0.12109 0.070313-0.1875 1.6562-4.7422 6.4648-7.6875 11.41-7.0078 2.7539 0.39844 5.1953 1.8398 6.8672 4.0703 1.6719 2.2266 2.3711 4.9727 1.9766 7.75-2.1719 15.965-0.5625 30.613 4.9141 44.777 0.3125 0.80078 0.93359 1.4492 1.7227 1.793s1.6836 0.35156 2.4844 0.035157c25.484-10.211 57.473-15.84 90.074-15.84 32.598 0 64.59 5.6289 90.07 15.84 0.79688 0.32422 1.6914 0.30859 2.4844-0.035157 0.78906-0.34375 1.4102-0.99219 1.7227-1.793 5.4766-14.168 7.082-28.809 4.9141-44.797-0.39844-2.75 0.30859-5.4961 1.9766-7.7266 1.6719-2.2305 4.1094-3.6719 6.8516-4.0703 4.9492-0.67969 9.7695 2.2617 11.43 7.0078 0.019532 0.058594 0.046876 0.12109 0.070313 0.1875 10.418 24.859 15.359 49.277 14.676 72.582-0.023437 0.95703 0.37109 1.8828 1.0977 2.5156 0.71875 0.62891 1.6875 0.91797 2.6289 0.76172 4.3086-0.68359 8.4297-1.0195 12.586-1.0195 12.125 0 23.887 2.8008 34.949 8.3242 10.395 5.1992 19.82 12.848 27.246 22.121 0.066406 0.074219 0.125 0.15234 0.19531 0.22266 3.5469 3.6719 3.8438 9.5273 0.70312 13.586z"/>
 </g>
</svg>