<?xml version="1.0" encoding="UTF-8"?>
<!-- The Best Svg Icon site in the world: iconSvg.co, Visit us! https://iconsvg.co -->
<svg fill="#000000" width="800px" height="800px" version="1.1" viewBox="144 144 512 512" xmlns="http://www.w3.org/2000/svg">
 <g>
  <path d="m423.61 377.33c0-12.758-9.9336-23.41-22.688-24.438-0.67969-0.097656-1.2969-0.125-2.0273-0.125h-32.355c-2.3281 0-4.543 1.0352-6.0352 2.8203l-62.844 75.125-62.844-75.121c-1.4961-1.7891-3.7109-2.8242-6.0391-2.8242h-32.355c-13.629 0-24.715 11.02-24.715 24.562v157.68c0 55.777 43.539 101.16 97.062 101.16h57.781c32.035 0 61.945-16.457 80.02-44 11.145-16.906 17.039-36.672 17.039-57.156zm-15.742 157.68c0 17.398-4.9961 34.164-14.453 48.504-15.16 23.109-40.16 36.906-66.867 36.906h-57.781c-44.84 0-81.316-38.312-81.316-85.41v-157.68c0-4.8633 4.0273-8.8164 8.9727-8.8164h28.684l66.52 79.52c2.9844 3.5742 9.0859 3.5742 12.07 0l66.527-79.527 28.258-0.0625c0.33984 0.066406 0.67578 0.10938 1.0156 0.12891 4.6953 0.29688 8.3711 4.1445 8.3711 8.7578z"/>
  <path d="m260.85 334.41c3.207 2.9336 8.1797 2.7422 11.125-0.47656 2.9453-3.2031 2.7305-8.1836-0.46875-11.125-17.738-16.273-36.816-46.117-36.816-73.172 0-38.629 28.25-70.059 62.977-70.059 34.723 0 62.977 31.43 62.977 70.059-0.003906 40.211-41.629 87.383-62.977 87.383-4.3516 0-7.8711 3.5234-7.8711 7.8711 0 4.3477 3.5195 7.8711 7.8711 7.8711 31.082 0 78.719-55.312 78.719-103.12 0-47.312-35.316-85.805-78.719-85.805-43.406 0-78.723 38.492-78.723 85.805 0 31.98 21.051 65.617 41.906 84.773z"/>
  <path d="m297.66 525.95c-4.3516 0-7.8711 3.5234-7.8711 7.8711v47.23c0 4.3477 3.5195 7.8711 7.8711 7.8711 4.3516 0 7.8711-3.5234 7.8711-7.8711v-47.23c0-4.3438-3.5234-7.8711-7.8711-7.8711z"/>
  <path d="m329.15 510.21c-4.3516 0-7.8711 3.5234-7.8711 7.8711v62.977c0 4.3477 3.5195 7.8711 7.8711 7.8711 4.3516 0 7.8711-3.5234 7.8711-7.8711v-62.977c0.003907-4.3477-3.5195-7.8711-7.8711-7.8711z"/>
  <path d="m266.18 541.7c-4.3516 0-7.8711 3.5234-7.8711 7.8711v31.488c0 4.3477 3.5195 7.8711 7.8711 7.8711 4.3516 0 7.8711-3.5234 7.8711-7.8711v-31.488c0-4.3477-3.5234-7.8711-7.8711-7.8711z"/>
  <path d="m346.89 461.13-21.508-5.7617c-4.1914-1.1289-8.5195 1.3633-9.6406 5.5664s1.3672 8.5195 5.5664 9.6406l3.1484 0.84375-35.344 20.41-12.238-4.7109c-2.2383-0.86328-4.7031-0.66406-6.7656 0.52734l-39.32 22.703c-3.7656 2.1758-5.0586 6.9883-2.8828 10.754 1.4609 2.5234 4.1055 3.9375 6.8281 3.9375 1.3359 0 2.6914-0.33984 3.9297-1.0547l36.062-20.82 12.238 4.7109c2.2227 0.85156 4.6953 0.66016 6.7656-0.52734l38.605-22.289-0.84375 3.1484c-1.1289 4.1992 1.3672 8.5156 5.5664 9.6406 0.68359 0.18359 1.3672 0.27344 2.043 0.27344 3.4766-0.003906 6.6484-2.3203 7.5938-5.8398l5.7656-21.504c0.53906-2.0156 0.26172-4.1641-0.78516-5.9727-1.0508-1.8164-2.7734-3.1367-4.7852-3.6758z"/>
  <path d="m603.57 352.77h-32.355c-2.3281 0-4.543 1.0352-6.0352 2.8203l-62.844 75.125-56.258-67.25c-2.7734-3.3203-7.7344-3.7852-11.086-0.98828-3.3359 2.7891-3.7734 7.7539-0.98438 11.09l62.293 74.469c2.9844 3.5742 9.0859 3.5742 12.07 0l66.52-79.52h28.684c4.9414 0 8.9688 3.9531 8.9688 8.8164v157.68c0 47.098-36.477 85.41-81.32 85.41h-57.781c-19.234 0-37.867-7.1641-52.469-20.18-3.2305-2.8867-8.2109-2.6133-11.109 0.63672-2.8984 3.2422-2.6133 8.2227 0.63672 11.117 17.488 15.586 39.836 24.172 62.945 24.172h57.781c53.52 0 97.062-45.379 97.062-101.16v-157.68c0-13.543-11.086-24.562-24.719-24.562z"/>
  <path d="m502.34 352.77c4.3516 0 7.8711-3.5234 7.8711-7.8711 0-4.3477-3.5195-7.8711-7.8711-7.8711-21.348 0-62.977-47.172-62.977-87.379 0-38.633 28.25-70.062 62.977-70.062 34.723 0 62.977 31.43 62.977 70.059 0 27.051-19.082 56.895-36.816 73.168-3.1992 2.9414-3.4141 7.9219-0.46875 11.125 2.9375 3.1992 7.918 3.4141 11.125 0.47656 20.855-19.152 41.902-52.789 41.902-84.77 0-47.312-35.316-85.805-78.719-85.805-43.406 0-78.723 38.492-78.723 85.805 0 47.812 47.641 103.12 78.723 103.12z"/>
  <path d="m494.46 533.82v47.23c0 4.3477 3.5195 7.8711 7.8711 7.8711 4.3516 0 7.8711-3.5234 7.8711-7.8711v-47.23c0-4.3477-3.5195-7.8711-7.8711-7.8711-4.3477-0.003906-7.8711 3.5234-7.8711 7.8711z"/>
  <path d="m525.95 518.08v62.977c0 4.3477 3.5195 7.8711 7.8711 7.8711 4.3516 0 7.8711-3.5234 7.8711-7.8711v-62.977c0-4.3477-3.5195-7.8711-7.8711-7.8711-4.3477 0-7.8711 3.5234-7.8711 7.8711z"/>
  <path d="m462.98 549.57v31.488c0 4.3477 3.5195 7.8711 7.8711 7.8711 4.3516 0 7.8711-3.5234 7.8711-7.8711v-31.488c0-4.3477-3.5195-7.8711-7.8711-7.8711-4.3516 0-7.8711 3.5234-7.8711 7.8711z"/>
  <path d="m481.55 487.12c-2.2305-0.86328-4.7109-0.66406-6.7656 0.52734l-39.32 22.703c-3.7656 2.1758-5.0586 6.9883-2.8828 10.754 1.4609 2.5234 4.1055 3.9375 6.8281 3.9375 1.3359 0 2.6914-0.33984 3.9297-1.0547l36.062-20.82 12.238 4.7109c2.2227 0.85156 4.7031 0.66016 6.7656-0.52734l38.605-22.289-0.84375 3.1484c-1.1289 4.1992 1.3672 8.5156 5.5664 9.6406 0.68359 0.18359 1.3672 0.27344 2.043 0.27344 3.4766-0.003906 6.6484-2.3203 7.5938-5.8398l5.7656-21.504c0.53906-2.0156 0.26172-4.1641-0.78516-5.9727-1.0469-1.8047-2.7656-3.1289-4.7812-3.668l-21.508-5.7617c-4.1758-1.1289-8.5195 1.3633-9.6406 5.5664-1.1211 4.2031 1.3672 8.5195 5.5664 9.6406l3.1484 0.84375-35.344 20.41z"/>
 </g>
</svg>