<?xml version="1.0" encoding="UTF-8"?>
<!-- The Best Svg Icon site in the world: iconSvg.co, Visit us! https://iconsvg.co -->
<svg fill="#000000" width="800px" height="800px" version="1.1" viewBox="144 144 512 512" xmlns="http://www.w3.org/2000/svg">
 <g>
  <path d="m541.7 352.77c0-2.9023-2.3516-5.2461-5.2461-5.2461h-278.15c-2.8984 0-5.2461 2.3477-5.2461 5.2461v131.2c0 2.9023 2.3516 5.2461 5.2461 5.2461h278.14c2.8984 0 5.2461-2.3477 5.2461-5.2461zm-10.496 125.95h-267.65v-120.7h267.65z"/>
  <path d="m495.24 331.77c0 2.9023 2.3516 5.2461 5.2461 5.2461h20.5c2.8984 0 5.2461-2.3477 5.2461-5.2461 0-2.9023-2.3516-5.2461-5.2461-5.2461h-20.5c-2.8945 0-5.2461 2.3438-5.2461 5.2461z"/>
  <path d="m363.33 326.53c-2.8984 0-5.2461 2.3477-5.2461 5.2461 0 2.9023 2.3516 5.2461 5.2461 5.2461h104.9c2.8984 0 5.2461-2.3477 5.2461-5.2461 0-2.9023-2.3516-5.2461-5.2461-5.2461z"/>
  <path d="m237.31 337.02h93.668c2.8984 0 5.2461-2.3477 5.2461-5.2461 0-2.9023-2.3516-5.2461-5.2461-5.2461l-98.914-0.003906c-2.8984 0-5.2461 2.3711-5.2461 5.2734l-0.003906 33.035c0 2.9023 2.3516 5.2461 5.2461 5.2461 2.8984 0 5.2461-2.3477 5.2461-5.2461z"/>
  <path d="m232.06 387.64c-2.8984 0-5.2461 2.3477-5.2461 5.2461v73.215c0 2.9023 2.3516 5.2461 5.2461 5.2461 2.8984 0 5.2461-2.3477 5.2461-5.2461v-73.211c0-2.8984-2.3516-5.25-5.2461-5.25z"/>
  <path d="m216.32 449.94v-133.91h287.92c2.8984 0 5.2461-2.3477 5.2461-5.2461 0-2.9023-2.3516-5.2461-5.2461-5.2461l-292.84-0.003906c-2.8945 0-5.5742 2.3438-5.5742 5.2461v139.16c0 2.9023 2.3516 5.2461 5.2461 5.2461 2.9023 0.003906 5.25-2.3477 5.25-5.2461z"/>
  <path d="m296.42 449.71c0.49219-0.09375 1.0039-0.14844 1.5312-0.14844 4.5703 0 8.2852 3.7227 8.2852 8.293 0 0.51563-0.050781 1.0117-0.14062 1.5078-0.28906 1.5312 0.12109 1.8164 1.1172 3.0234 0.99609 1.2031 2.4766 0.59375 4.0391 0.59375h172.25 0.10547c2.8984 0 5.2461-1.043 5.2461-3.9453 0-0.63672-0.10938-0.58203-0.31641-1.1445-0.019531-0.22656-0.03125-0.125-0.03125-0.35547 0-4.5703 3.7227-8.1328 8.2969-8.1328 0.52344 0 1.0352 0.13672 1.5312 0.23047 1.543 0.27344 3.3281-0.09375 4.5234-1.0859 1.1992-1.0039 2.1055-2.4414 2.1055-4v-51.738c0-1.5625-0.91406-3.043-2.1133-4.0469-1.207-0.99219-2.9141-1.4023-4.4414-1.1133-4.8867 0.91406-9.8516-3.0664-9.8438-8.1445 0-0.51562 0.03125-1.0117 0.125-1.5078 0.28906-1.5312-0.13672-2.125-1.1328-3.332-1.0039-1.1953-2.4922-0.90234-4.0547-0.90234h-172.25c-1.5586 0-3.043-0.29297-4.0391 0.90625-0.99609 1.2031-1.4062 2.293-1.1172 3.8242 0.09375 0.49219 0.14062 0.74609 0.14062 1.2539 0 4.5703-3.7148 8.1719-8.2852 8.1719-0.51562 0-1.0117-0.11719-1.5-0.21094-1.5273-0.28906-3.3359 0.089844-4.5391 1.082-1.2031 1-2.1133 2.4531-2.1133 4.0195v51.738c0 1.5586 0.90234 3.0391 2.1055 4.0352 1.1953 1 2.9961 1.4062 4.5234 1.1289zm3.8672-51.617c10.496-1.207 15.027-8.5859 16.238-13.836h161.69c1.207 5.25 5.75 12.629 16.246 13.836v41.18c-10.496 1.2031-15.039 7.9609-16.25 13.211h-161.69c-1.207-5.25-5.7383-12.008-16.234-13.215z"/>
  <path d="m397.37 447.38c13.047 0 23.656-12.879 23.656-28.711 0-15.828-10.613-28.707-23.656-28.707-13.047 0-23.656 12.879-23.656 28.707-0.003906 15.832 10.609 28.711 23.656 28.711zm0-46.918c7.1367 0 13.16 8.3398 13.16 18.211 0 9.8711-6.0234 18.215-13.16 18.215-7.1328 0-13.16-8.3438-13.16-18.215-0.003907-9.8711 6.0273-18.211 13.16-18.211z"/>
  <path d="m400 546.94h-162.69v-45.453l7.7266 7.7305c1.0234 1.0234 2.3672 1.5391 3.7109 1.5391s2.6875-0.51562 3.7109-1.5391c2.0508-2.0508 2.0508-5.3672 0-7.4219l-16.355-16.359c-1.9688-1.9688-5.4531-1.9688-7.4219 0l-16.359 16.359c-2.0508 2.0508-2.0508 5.3672 0 7.4219 2.0508 2.0508 5.3672 2.0508 7.4219 0l7.0703-7.0742v50.047c0 2.9023 2.3516 5.2461 5.2461 5.2461h162.69v62.977c0 2.9023 2.3516 5.2461 5.2461 5.2461 2.8984 0 5.2461-2.3477 5.2461-5.2461l0.007813-68.223c0-2.9023-2.3516-5.25-5.2461-5.25z"/>
  <path d="m604.67 232.06h-199.43v-52.48c0-2.9023-2.3516-5.2461-5.2461-5.2461-2.8984 0-5.2461 2.3477-5.2461 5.2461v57.727c0 2.9023 2.3516 5.2461 5.2461 5.2461h199.43v83.969h-41.984c-0.28516 0-0.53125 0.11719-0.79688 0.15625l7.7656-7.7617c2.0508-2.0508 2.0508-5.3672 0-7.4219-2.0508-2.0508-5.3672-2.0508-7.4219 0l-15.902 15.895c-0.98828 0.98828-1.5391 2.3125-1.5391 3.7109 0 1.3945 0.55078 2.7305 1.5391 3.7109l15.902 15.895c1.0234 1.0234 2.3672 1.5391 3.7109 1.5391s2.6875-0.51562 3.7109-1.5391c2.0508-2.0508 2.0508-5.3672 0-7.4219l-6.2734-6.2617h46.535c2.8984 0 5.2461-2.3477 5.2461-5.2461v-94.469c0-2.9023-2.3516-5.2461-5.2461-5.2461zm-52.453 99.047 0.13281-0.13281c-0.011718 0.078126-0.035156 0.14063-0.042968 0.21875z"/>
 </g>
</svg>