<?xml version="1.0" encoding="UTF-8"?>
<!-- The Best Svg Icon site in the world: iconSvg.co, Visit us! https://iconsvg.co -->
<svg fill="#000000" width="800px" height="800px" version="1.1" viewBox="144 144 512 512" xmlns="http://www.w3.org/2000/svg">
 <g>
  <path d="m412.52 223.4c6.6914 0 13.105-2.6562 17.836-7.3867 4.7266-4.7305 7.3867-11.145 7.3867-17.832s-2.6602-13.105-7.3867-17.832c-4.7305-4.7305-11.145-7.3867-17.836-7.3867-6.6875 0-13.102 2.6562-17.832 7.3867-4.7305 4.7266-7.3867 11.145-7.3867 17.832 0.007812 6.6875 2.668 13.098 7.3945 17.824 4.7305 4.7266 11.141 7.3867 17.824 7.3945zm0-41.73c4.3828-0.011719 8.5898 1.7148 11.695 4.8086 3.1094 3.0898 4.8594 7.2891 4.8672 11.672 0.007812 4.3789-1.7266 8.5859-4.8203 11.688-3.0938 3.1055-7.293 4.8516-11.676 4.8555-4.3828 0.003906-8.5859-1.7344-11.684-4.832-3.1016-3.0938-4.8438-7.2969-4.8438-11.68 0.003906-4.3711 1.7383-8.5586 4.8242-11.652 3.0859-3.0938 7.2695-4.8398 11.637-4.8594z"/>
  <path d="m514.83 298.28c9.8086 0 19.219-3.8984 26.156-10.836 6.9375-6.9336 10.832-16.344 10.832-26.156 0-9.8086-3.8984-19.219-10.836-26.152-6.9375-6.9375-16.348-10.832-26.16-10.832-9.8086 0-19.219 3.9023-26.152 10.84-6.9375 6.9375-10.832 16.348-10.828 26.16 0.011719 9.8047 3.9141 19.203 10.848 26.137 6.9336 6.9297 16.336 10.832 26.141 10.84zm0-65.258c7.5039-0.011719 14.703 2.9609 20.012 8.2578 5.3125 5.3008 8.3008 12.492 8.3086 19.996 0.007812 7.5039-2.9688 14.699-8.2695 20.008-5.3008 5.3086-12.496 8.293-20 8.2969-7.5 0.003907-14.699-2.9727-20.004-8.2773-5.3086-5.3047-8.2891-12.5-8.2891-20 0.007812-7.4922 2.9844-14.676 8.2773-19.977 5.293-5.3008 12.473-8.2852 19.965-8.3047z"/>
  <path d="m627.86 405.79c-2.3867-0.23828-4.5234 1.4844-4.793 3.8672-2.2617 21.234-11.453 30.711-19.465 32.777h0.003906c0.56641-1.1719 1.0508-2.3867 1.4453-3.6289 3.8281-12.121-1.8203-17.84-4.4297-19.738-4.8125-3.4453-11.277-3.4766-16.125-0.082031-5.1172 3.6406-6.8867 10.156-4.6562 17.438 1.0234 3.4688 2.8984 6.6289 5.4531 9.1914-6.6406 0.98437-14.562-1.0547-19.059-2.6289h-0.003906c-1.5312-8.1211-3.8047-16.086-6.7891-23.793-11.02-28.289-36.91-64.887-97.645-78.543-3.0117-0.67969-5.9727-1.2891-8.8555-1.8789h0.003907c8.9102-21.273 6.5312-45.602-6.3281-64.75-12.859-19.148-34.48-30.555-57.547-30.352-23.066 0.19922-44.484 11.977-57.012 31.344s-14.48 43.734-5.2031 64.852c-22.375 6.2969-35.996 14.66-41.652 18.695-27.484-22.898-63.852-22.633-65.465-22.633h-0.003907c-1.3672 0.019531-2.6445 0.67969-3.4531 1.7812-0.80469 1.1016-1.0508 2.5195-0.66016 3.8281l18.203 60.426c-21.773 13.602-34.93 34.441-37.871 42.598-1.5039 1.9688-11.867 4.0547-21.727 4.3008-2.0117 0.050781-3.7266 1.4688-4.1523 3.4336-4.418 20.457-0.33594 61.117 6.7305 66.914 4.7344 3.8867 20.793 4.3672 31.586 4.2031 15.625 29.215 44.281 40.168 54.18 43.168v56.09-0.003906c0 1.1562 0.45703 2.2656 1.2734 3.082 0.82031 0.82031 1.9297 1.2773 3.0859 1.2773h39.586c1.5977 0 3.0664-0.87891 3.8281-2.2812l17.445-32.246c72.129 24.797 143.42 5.3516 160.39 0l15.742 32.109 0.003907-0.003906c0.73047 1.5039 2.2617 2.4531 3.9336 2.4414h33.703c1.1562 0 2.2656-0.45703 3.082-1.2773 0.82031-0.81641 1.2773-1.9258 1.2773-3.082v-68.535c16.207-24.098 26.629-62.977 21.844-101.6 4.5234 1.2539 9.1836 1.9141 13.875 1.9688 4.125 0.082031 8.2188-0.71875 12.004-2.3516 0.69922-0.32422 1.3789-0.67969 2.0391-1.0742 2.1641 0.44922 4.3828 0.5625 6.582 0.34375 12.27-1.1602 26.469-12.508 29.52-40.906v0.003906c0.22266-2.3945-1.5312-4.5156-3.9258-4.7461zm-238.23-153.39c20.684-0.011719 39.91 10.66 50.844 28.219 10.938 17.559 12.031 39.516 2.9023 58.078-0.71484 0.63672-1.1992 1.4922-1.3789 2.4297v0.22656c-9.9414 17.875-28.305 29.457-48.719 30.73h-6.2695c-20.844-1.2188-39.547-13.199-49.367-31.629-9.8164-18.426-9.332-40.637 1.2812-58.617 10.617-17.977 29.828-29.133 50.707-29.438zm148.33 297.92c-0.50391 0.73047-0.77734 1.5977-0.77734 2.4883v65.523h-26.637l-16.18-33.082c-0.97266-1.9883-3.2852-2.9297-5.3711-2.1836-0.80859 0.28516-82.727 28.793-161.79 0-2.0273-0.73438-4.2852 0.125-5.3164 2.0156l-17.988 33.238-32.617 0.003906v-55.035c-0.003906-2.0312-1.4062-3.7891-3.3867-4.2422-0.36328-0.089844-36.664-8.7891-52.969-41.938-0.74609-1.5273-2.3164-2.4766-4.0117-2.4297-11.73 0.32422-26.047-0.52344-28.367-1.9688-3.1016-3.9375-7.793-34.832-4.5664-55.262 9.8906-0.55078 23.488-2.6094 26.066-9.7109 1.7109-4.7031 13.699-26.566 37.086-39.98 1.7422-1.0195 2.5547-3.1016 1.9648-5.0312l-17.395-57.828c11.426 0.98438 37.184 5 56.344 22.484 1.625 1.4766 4.0938 1.5156 5.7656 0.089844 0.13672-0.11719 14.129-11.809 43.109-19.68 7.2578 11.93 17.961 21.379 30.699 27.098-25.031 4.8125-40.344 14.148-41.652 14.938-2.0391 1.2695-2.6641 3.957-1.3906 5.9961 1.2695 2.043 3.957 2.6641 5.9961 1.3945 0.58984-0.375 60.262-36.406 138.53 0.24609 2.1328 0.80859 4.5312-0.16016 5.5-2.2266 0.96875-2.0625 0.17969-4.5273-1.8086-5.6484-15.234-7.2188-31.383-12.324-48-15.172 12.562-5.9492 23.039-15.551 30.051-27.551 3.6328 0.69922 7.3008 1.457 11.051 2.293 56.992 12.793 81.18 46.887 91.434 73.211 17.812 45.695 6.75 98.957-13.371 127.95zm58.793-114.14c-0.55469 1.875-1.4883 3.6172-2.7461 5.1172-2.832-1.6172-4.9219-4.2773-5.8242-7.4102-1.1016-3.6328-0.62109-6.4062 1.3672-7.8125 0.86719-0.59766 1.8984-0.91406 2.9531-0.90625 1.0547-0.007812 2.0898 0.31641 2.9492 0.92578 2.332 1.6797 2.7969 5.4023 1.3516 10.105z"/>
  <path d="m385.24 351.15v4.4766c-0.054687 1.1914 0.37891 2.3555 1.1992 3.2148 0.82422 0.86328 1.9648 1.3516 3.1562 1.3516s2.332-0.48828 3.1523-1.3516c0.82422-0.85938 1.2578-2.0234 1.1992-3.2148v-4.4766c7.8633-1.4648 14.469-6.7734 17.594-14.137 3.1211-7.3633 2.3438-15.801-2.0664-22.473-4.4141-6.6719-11.875-10.684-19.875-10.691-4.4727 0.003907-8.5117-2.6875-10.227-6.8203s-0.76953-8.8906 2.3906-12.059c3.1641-3.1641 7.9219-4.1133 12.055-2.4023 4.1367 1.7148 6.832 5.7461 6.832 10.223-0.058594 1.1875 0.375 2.3516 1.1992 3.2148 0.82422 0.86328 1.9609 1.3516 3.1562 1.3516 1.1914 0 2.332-0.48828 3.1523-1.3516 0.82422-0.86328 1.2578-2.0273 1.1992-3.2148-0.003907-4.4844-1.5312-8.8359-4.332-12.336-2.7969-3.5039-6.7031-5.9492-11.078-6.9414v-4.5664c-0.10937-2.3242-2.0273-4.1523-4.3516-4.1523-2.3281 0-4.2461 1.8281-4.3555 4.1523v4.5664c-6.375 1.4492-11.617 5.9531-14.012 12.035-2.3945 6.082-1.625 12.953 2.0508 18.359 3.6758 5.4023 9.7852 8.6406 16.32 8.6484 4.0156 0.003906 7.8672 1.6016 10.703 4.4414 2.8398 2.8438 4.4336 6.6953 4.4297 10.711 0 4.0156-1.5977 7.8672-4.4375 10.703-2.8398 2.8398-6.6914 4.4336-10.707 4.4336-4.0156 0-7.8672-1.5977-10.707-4.4375s-4.4336-6.6914-4.4336-10.707c0-2.4023-1.9492-4.3477-4.3516-4.3477s-4.3477 1.9453-4.3477 4.3477c0.007812 5.5664 1.9609 10.957 5.5195 15.238s8.5 7.1875 13.973 8.2109z"/>
  <path d="m243.47 433.03-8.7852 7.418c-1.3945 1.1836-1.9062 3.1094-1.2773 4.8281 0.62891 1.7148 2.2617 2.8555 4.0898 2.8594 1.0273 0.003906 2.0234-0.36328 2.8047-1.0352l8.7891-7.418c1.8359-1.5508 2.0664-4.2969 0.51562-6.1367-1.5508-1.8359-4.3008-2.0664-6.1367-0.51562z"/>
 </g>
</svg>