<?xml version="1.0" encoding="UTF-8"?>
<!-- The Best Svg Icon site in the world: iconSvg.co, Visit us! https://iconsvg.co -->
<svg fill="#000000" width="800px" height="800px" version="1.1" viewBox="144 144 512 512" xmlns="http://www.w3.org/2000/svg">
 <g>
  <path d="m337.04 506.28c-4.1719 0-7.5586 3.3789-7.5586 7.5586v15.133c0 4.1758 3.3867 7.5586 7.5586 7.5586s7.5586-3.3789 7.5586-7.5586v-15.133c0-4.1758-3.3867-7.5586-7.5586-7.5586z"/>
  <path d="m337.04 450.78c-4.1719 0-7.5586 3.3789-7.5586 7.5586v15.133c0 4.1758 3.3867 7.5586 7.5586 7.5586s7.5586-3.3789 7.5586-7.5586v-15.133c0-4.1758-3.3867-7.5586-7.5586-7.5586z"/>
  <path d="m272.79 515.37c-4.1719 0-7.5586 3.3789-7.5586 7.5586v12.656c0 4.1758 3.3867 7.5586 7.5586 7.5586s7.5586-3.3789 7.5586-7.5586v-12.656c0-4.1719-3.3867-7.5586-7.5586-7.5586z"/>
  <path d="m532.25 407.76v-113.48l1.4297 1.1484c3.4219 2.7422 7.7188 4.2539 12.195 4.2539 10.672 0 19.355-8.6875 19.355-19.355 0-0.80078-0.046875-1.5859-0.13672-2.3633l-0.96094-41.953c-0.13281-5.7383-2.7695-11.082-7.2461-14.664-4.3945-3.5234-10.23-4.9883-15.887-3.8828l-43.047 8.5664c-7.3516 1.4648-13.246 7.1133-15.02 14.391-1.7773 7.2812 0.85156 15.008 6.6953 19.695l5.5977 4.4883-110.22 131.18-40.043-21.93c-8.2891-4.5234-19.098-2.9766-25.789 3.7031l-118.35 118.75c-4.1016 4.1016-6.3633 9.5508-6.3633 15.355 0 5.4453 2.0547 10.543 5.6992 14.547v50.688c0 4.1758 2.2617 7.5586 5.0547 7.5586h214.95c0.69531 0 1.3555-0.21094 1.9531-0.58984 19.68 21.219 47.707 34.602 78.859 34.602 59.379 0 107.69-48.309 107.69-107.69 0.003906-48.496-32.238-89.582-76.406-103.02zm-132.75 67.289c-0.74219-0.24219-1.5234-0.40625-2.3438-0.40625-4.1719 0-7.5586 3.3789-7.5586 7.5586v12.656c0 2.9375 1.6914 5.457 4.1406 6.707-0.26172 3.043-0.46875 6.1055-0.46875 9.2188 0 3.7383 0.19531 7.4297 0.5625 11.07-2.5 1.2305-4.2422 3.7773-4.2422 6.7617v7.5586c0 4.1758 3.3867 7.5586 7.5586 7.5586 0.43359 0 0.85547-0.054688 1.2695-0.125 2.9492 9.1836 7.125 17.816 12.289 25.746l-66.109-0.011718c0-4.1758-3.3867-7.5586-7.5586-7.5586s-7.5586 3.3789-7.5586 7.5586h-49.141c0-4.1758-3.3867-7.5586-7.5586-7.5586s-7.5586 3.3789-7.5586 7.5586h-49.957v-36.051c0.30859 0.011719 0.59375 0.089844 0.90234 0.089844 5.8008 0 11.25-2.2578 15.367-6.375l34.457-34.578c1.2188 2.5391 3.793 4.3008 6.7969 4.3008 4.1719 0 7.5586-3.3789 7.5586-7.5586v-7.5586c0-1.0586-0.22266-2.0664-0.61328-2.9766l53.809-53.996c1.0547 0.55469 2.2266 0.89844 3.4961 0.89844 2.5234 0 4.7422-1.25 6.1172-3.1484l36.602 20.047c3.0234 1.6523 6.4141 2.5352 9.8477 2.625v3.3906c0 4.1758 3.3867 7.5586 7.5586 7.5586s7.5586-3.3789 7.5586-7.5586v-7.5586c0-0.48438-0.054687-0.95312-0.14062-1.4141 0.76172-0.67969 1.5586-1.3281 2.2227-2.125l55.902-66.531c1.168 0.74609 2.5547 1.1953 4.0469 1.1953 4.1719 0 7.5586-3.3789 7.5586-7.5586v-7.4453l42.816-50.973v98.402c-5.2852-0.80078-10.656-1.3516-16.164-1.3516-46.84 0.003906-86.684 30.113-101.46 71.957zm-187.98 31.941 118.35-118.75c1.25-1.25 2.9062-1.9336 4.6758-1.9336 1.1016 0 2.1953 0.28125 3.1641 0.8125l45.469 24.902c3.1641 1.7344 7.1055 0.99219 9.418-1.7695l119.18-141.85c1.3086-1.5586 1.9336-3.5781 1.7383-5.6016-0.20312-2.0234-1.2109-3.8828-2.8008-5.1523l-11.633-9.3242c-1.2812-1.0273-1.8555-2.7188-1.4648-4.3164 0.38672-1.5938 1.6836-2.832 3.2891-3.1484l43.023-8.5664c1.2383-0.24219 2.5352 0.074219 3.5 0.85156 0.97266 0.78125 1.5586 1.9492 1.5781 3.2148l0.97266 42.379c0.011719 0.32422 0.039062 0.64844 0.089843 0.96875 0.03125 0.20703 0.039063 0.41406 0.039063 0.625 0 2.3359-1.9062 4.2422-4.3281 4.2422-0.95703 0-1.9062-0.32812-2.6484-0.93359l-10.328-8.2773c-3.2188-2.5742-7.875-2.1016-10.516 1.0391l-4.4141 5.25c-0.16016 0.15234-0.28906 0.3125-0.39844 0.48047l-122.24 145.5c-1.9648 2.332-5.5469 3.0078-8.2227 1.5469l-46.336-25.383c-0.066406-0.035157-0.13672-0.035157-0.20312-0.070313-0.63672-0.32812-1.3164-0.58594-2.0352-0.71875-0.097656-0.015625-0.1875-0.015625-0.28125-0.03125-0.36719-0.054687-0.73438-0.10938-1.1133-0.10938-0.27734 0-0.52734 0.050781-0.79688 0.082031-0.14453 0.015626-0.28906 0.019532-0.42969 0.039063-0.70703 0.11719-1.3672 0.32422-1.9883 0.62109-0.11719 0.054687-0.22656 0.12109-0.33594 0.1875-0.66016 0.35156-1.2734 0.76953-1.7969 1.293l-110.86 111.24c-2.5 2.4922-6.832 2.5-9.3359 0-1.2461-1.2461-1.9336-2.9023-1.9336-4.6641 0-1.7656 0.69531-3.4219 1.9492-4.6758zm289.45 96.367c-51.047 0-92.574-41.527-92.574-92.574s41.527-92.574 92.574-92.574 92.574 41.527 92.574 92.574-41.527 92.574-92.574 92.574z"/>
  <path d="m513.14 505.64-17.109-5.6445c-2.6289-0.83984-13.305-4.6445-12.168-15.203 0.43359-4.0273 1.6055-7.1289 4.832-9.2383 2.625-1.6875 5.8828-2.5352 9.7578-2.5352 6.5859 0 11.062 1.1094 13.992 4.9062 1.6055 2.1953 2.1328 3.8047 2.5703 7.6016 0 0 0.51953 6.2578 8.0156 6.2578s8.6523-5.9609 8.7969-7.0312c0.67188-4.8672-1.9805-13.012-5.668-17.844-4.2539-5.582-10.297-8.957-17.629-10.398v-7.7578c0-4.1758-3.3789-7.5586-7.5586-7.5586-4.1758 0-7.5586 3.3789-7.5586 7.5586v7.3594c-8.7695 1.1289-15.453 4.6719-19.973 10.707-3.9453 5.3164-10.539 15.547-3.7852 33.258 5.8242 15.27 33.621 20.152 33.621 20.152 5.1875 1.2656 15.109 3.2539 15.133 15.227 0.011719 4.6406-2.8555 13.645-17.66 13.645-6.8711 0-16.688-3.043-16.688-15.531 0 0 0.11719-6.5156-8.0156-6.5156s-8.7656 6.5156-8.7656 6.5156c0 8.2734 1.1875 14.086 5.5078 19.738 6.4805 8.5703 14.438 11.559 20.625 12.594v6.918c0 4.1758 3.3789 7.5586 7.5586 7.5586 4.1758 0 7.5586-3.3789 7.5586-7.5586v-6.9766c19.391-3.3594 26.668-21.301 26.668-32.668-0.003907-8.2734-3.0117-20.969-22.059-27.535z"/>
 </g>
</svg>