<?xml version="1.0" encoding="UTF-8"?>
<!-- The Best Svg Icon site in the world: iconSvg.co, Visit us! https://iconsvg.co -->
<svg width="800px" height="800px" version="1.1" viewBox="144 144 512 512" xmlns="http://www.w3.org/2000/svg">
 <defs>
  <clipPath id="c">
   <path d="m148.09 478h173.91v173.9h-173.91z"/>
  </clipPath>
  <clipPath id="b">
   <path d="m447 478h204.9v173.9h-204.9z"/>
  </clipPath>
  <clipPath id="a">
   <path d="m344 148.09h112v63.906h-112z"/>
  </clipPath>
 </defs>
 <g clip-path="url(#c)">
  <path d="m234.69 478.72c-20.359 0-40.07 7.1719-55.664 20.258-15.598 13.086-26.082 31.246-29.621 51.297-3.5352 20.047 0.10938 40.703 10.285 58.332 0.99609 1.9023 2.7227 3.3164 4.7852 3.9141 2.0586 0.59766 4.2734 0.32812 6.1328-0.74609 1.8555-1.0742 3.1953-2.8594 3.7031-4.9414 0.51172-2.0859 0.14844-4.2852-1-6.0977-11.844-20.457-12.715-45.473-2.3242-66.707 10.391-21.23 30.68-35.891 54.102-39.09 23.422-3.1992 46.898 5.4805 62.602 23.148 15.707 17.668 21.574 42 15.652 64.887-5.9219 22.887-22.859 41.316-45.164 49.145-22.305 7.832-47.047 4.0352-65.977-10.129-3.4766-2.6055-8.4102-1.9023-11.02 1.5742-2.6094 3.4805-1.9023 8.4141 1.5742 11.023 22.27 16.699 51.211 21.68 77.781 13.375 26.57-8.3008 47.527-28.867 56.328-55.277 8.7969-26.41 4.3633-55.438-11.918-78.02-16.281-22.578-42.422-35.953-70.258-35.945z"/>
 </g>
 <path d="m234.91 588.93h-16.199c-4.3477 0-7.875 3.5273-7.875 7.875 0 4.3477 3.5273 7.8711 7.875 7.8711h16.199c8.4375-0.082031 16.191-4.6602 20.34-12.008 4.1445-7.3477 4.0586-16.348-0.23047-23.613-4.2891-7.2656-12.129-11.691-20.566-11.613-4.3477 0-7.8711-3.5234-7.8711-7.8711s3.5234-7.8711 7.8711-7.8711h16.203c4.3477 0 7.8711-3.5234 7.8711-7.8711 0-4.3477-3.5234-7.875-7.8711-7.875h-16.203c-8.4375 0.082031-16.188 4.6602-20.336 12.008-4.1484 7.3477-4.0625 16.352 0.22656 23.617 4.2891 7.2656 12.129 11.691 20.566 11.609 4.3477 0 7.8711 3.5234 7.8711 7.8711 0 4.3477-3.5234 7.8711-7.8711 7.8711z"/>
 <g clip-path="url(#b)">
  <path d="m651.48 520.38c0.09375-0.28125 0.16797-0.57031 0.22266-0.85938 0.125-0.67578 0.15625-1.3672 0.10156-2.0547v-0.66797c-0.14844-0.89453-0.44922-1.7578-0.89062-2.5508-0.09375-0.16406-0.23438-0.30859-0.34766-0.46484h0.003906c-0.26953-0.45312-0.58203-0.87891-0.9375-1.2695l-31.488-31.488c-1.4844-1.4805-3.5-2.3125-5.5977-2.3047h-125.95c-2.0859 0-4.0898 0.83203-5.5664 2.3047l-31.488 31.488h0.003906c-0.35547 0.39062-0.66797 0.8125-0.9375 1.2617-0.10937 0.16406-0.25 0.30859-0.34766 0.47266-0.44141 0.79297-0.74219 1.6562-0.89062 2.5508v0.66797c-0.054687 0.6875-0.019531 1.3789 0.10547 2.0547 0.054688 0.29297 0.125 0.58203 0.21875 0.86719 0.070312 0.22656 0.078125 0.48047 0.17188 0.70703 0.22266 0.46094 0.48438 0.90234 0.78906 1.3164 0.078124 0.125 0.09375 0.26953 0.17969 0.39453l94.348 125.82 0.085938 0.125c0.046875 0.054687 0.11719 0.078125 0.16406 0.13281 0.63281 0.77734 1.4062 1.4219 2.2852 1.9062 0.22656 0.13672 0.46484 0.25781 0.70703 0.37109 1.9805 0.99219 4.3164 0.99219 6.2969 0 0.24219-0.11328 0.48047-0.23438 0.71094-0.37109 0.875-0.48438 1.6484-1.1289 2.2812-1.9062 0.046875-0.054687 0.11719-0.078125 0.16406-0.13281l0.085937-0.125 94.371-125.82c0.085937-0.125 0.10156-0.26953 0.17969-0.39453l0.003907 0.003906c0.30078-0.41406 0.56641-0.85547 0.78516-1.3164 0.10156-0.23438 0.10938-0.48047 0.17969-0.71484zm-147.05 5.5703 23.984 76.746-57.559-76.746zm77.012 16.105v0.003906c-4.1328-1.2773-8.5195 1.0234-9.8242 5.1484l-22.043 70.43-28.652-91.688h107.38l-57.559 76.746 15.836-50.766c1.3047-4.1445-0.99219-8.5625-5.1328-9.8711zm-48.785-31.848 16.918-13.539 16.918 13.539zm92.379 0h-33.328l-19.68-15.742h37.266zm-135.18-15.746h37.266l-19.68 15.742-33.332 0.003906z"/>
 </g>
 <path d="m299.14 286.52c1.4844 2.0547 3.8633 3.2695 6.3945 3.2656h188.93c2.5312 0 4.9062-1.2188 6.3828-3.2695 1.4805-2.0508 1.8828-4.6914 1.082-7.0898l-15.742-47.23h-0.003906c-1.0703-3.2148-4.0742-5.3828-7.4609-5.3867h-62.977c-3.3867 0.003906-6.3906 2.1719-7.4609 5.3867l-8.2812 24.836-8.2812-24.836c-1.0703-3.2148-4.0781-5.3828-7.4648-5.3867h-62.977c-3.3867 0.003906-6.3906 2.1719-7.4609 5.3867l-15.742 47.23h-0.003907c-0.80078 2.3984-0.40234 5.0391 1.0703 7.0938zm122.28-43.965h51.625l10.492 31.488h-72.609zm-94.465 0h51.625l10.492 31.488h-72.609z"/>
 <g clip-path="url(#a)">
  <path d="m352.77 211.07h94.465c2.5273-0.003906 4.9023-1.2188 6.3828-3.2695 1.4766-2.0547 1.8789-4.6914 1.0781-7.0898l-15.742-47.23v-0.003907c-1.0703-3.2109-4.0742-5.3789-7.4609-5.3828h-62.977c-3.3867 0.003906-6.3945 2.1719-7.4648 5.3828l-15.742 47.23v0.003907c-0.80078 2.3984-0.39844 5.0352 1.082 7.0898 1.4766 2.0508 3.8516 3.2656 6.3789 3.2695zm21.418-47.23h51.625l10.492 31.488-72.609-0.003906z"/>
 </g>
 <path d="m468.4 584.57c-40.352 14.859-84.445 16.176-125.61 3.7539-4.1602-1.2656-8.5586 1.082-9.8242 5.2422-1.2656 4.1602 1.082 8.5586 5.2422 9.8242 44.457 13.473 92.102 12.047 135.68-4.0625 4.0742-1.5195 6.1445-6.0586 4.625-10.133-1.5234-4.0781-6.0625-6.1484-10.137-4.625z"/>
 <path d="m204.14 467.38c0.77734 0 1.5508-0.11719 2.293-0.33984 2-0.60547 3.6719-1.9805 4.6562-3.8242s1.1953-4 0.58594-6c-12.516-41.23-11.156-85.43 3.8711-125.82s42.891-74.723 79.312-97.746c1.7812-1.1133 3.0469-2.8867 3.5117-4.9336 0.46484-2.043 0.097656-4.1914-1.0273-5.9648-1.125-1.7695-2.9102-3.0195-4.957-3.4727-2.0508-0.44922-4.1953-0.0625-5.957 1.0742-39.332 24.867-69.418 61.953-85.641 105.57-16.227 43.613-17.695 91.344-4.1797 135.87 1.0078 3.3164 4.0664 5.582 7.5312 5.582z"/>
 <path d="m505.14 233.68c35.805 22.594 63.355 56.145 78.555 95.66 15.203 39.516 17.238 82.879 5.8086 123.64-1.168 4.1914 1.2812 8.5352 5.4688 9.7031s8.5312-1.2773 9.7031-5.4688c12.34-44.023 10.137-90.852-6.2773-133.52-16.414-42.672-46.164-78.906-84.828-103.31-3.668-2.2891-8.4961-1.1875-10.809 2.4648-2.3164 3.6523-1.2539 8.4883 2.3789 10.832z"/>
 <path d="m352.77 439.36v7.8711c0 2.0898 0.83203 4.0898 2.3047 5.5664 1.4766 1.4766 3.4805 2.3047 5.5664 2.3047h78.723c2.0859 0 4.0898-0.82812 5.5664-2.3047 1.4766-1.4766 2.3047-3.4766 2.3047-5.5664v-7.8711c-0.003907-8.4492-2.2773-16.746-6.5781-24.02-4.3008-7.2734-10.477-13.258-17.879-17.332 5.707-5.9805 8.8359-13.965 8.7109-22.23-0.12891-8.2656-3.5-16.152-9.3906-21.953s-13.828-9.0508-22.094-9.0508c-8.2695 0-16.203 3.25-22.094 9.0508s-9.2656 13.688-9.3906 21.953c-0.12891 8.2656 3 16.25 8.7109 22.23-7.4062 4.0742-13.578 10.059-17.883 17.332-4.3008 7.2734-6.5742 15.57-6.5781 24.02zm31.488-62.977c0-4.1758 1.6602-8.1797 4.6133-11.133 2.9531-2.9531 6.957-4.6133 11.133-4.6133s8.1797 1.6602 11.133 4.6133c2.9492 2.9531 4.6094 6.957 4.6094 11.133 0 4.1758-1.6602 8.1797-4.6094 11.133-2.9531 2.9531-6.957 4.6094-11.133 4.6094s-8.1797-1.6562-11.133-4.6094c-2.9531-2.9531-4.6133-6.957-4.6133-11.133zm15.742 31.488h0.003906c8.3516 0 16.359 3.3164 22.266 9.2227 5.9023 5.9062 9.2227 13.914 9.2227 22.266h-62.977c0-8.3516 3.3164-16.359 9.2227-22.266 5.9023-5.9062 13.914-9.2227 22.266-9.2227z"/>
</svg>