<?xml version="1.0" encoding="UTF-8"?>
<!-- The Best Svg Icon site in the world: iconSvg.co, Visit us! https://iconsvg.co -->
<svg fill="#000000" width="800px" height="800px" version="1.1" viewBox="144 144 512 512" xmlns="http://www.w3.org/2000/svg">
 <g>
  <path d="m348.96 332.9c22.535 0 44.148-8.9531 60.086-24.891 15.934-15.938 24.887-37.551 24.887-60.086 0-22.539-8.9531-44.152-24.891-60.086-15.934-15.938-37.547-24.891-60.086-24.891-22.535 0-44.148 8.9531-60.086 24.891-15.938 15.934-24.887 37.551-24.887 60.086 0.023438 22.527 8.9844 44.129 24.914 60.059 15.934 15.93 37.531 24.891 60.062 24.918zm0-158.14c19.402 0 38.016 7.7109 51.734 21.43 13.723 13.723 21.43 32.332 21.43 51.738s-7.707 38.016-21.43 51.738c-13.723 13.723-32.332 21.43-51.738 21.43-19.402 0-38.016-7.7109-51.734-21.43-13.723-13.723-21.434-32.332-21.434-51.738 0.023437-19.398 7.7383-37.996 21.457-51.711 13.719-13.719 32.316-21.434 51.715-21.453z"/>
  <path d="m601.94 454.23-18.586-13.922 10.711-20.617c0.94141-1.8164 0.97266-3.9727 0.082031-5.8164s-2.6016-3.1602-4.6094-3.5508l-22.777-4.4297 0.72656-23.242c0.066406-2.0508-0.83984-4.0117-2.4414-5.2891-1.6016-1.2812-3.7148-1.7266-5.6992-1.207l-22.484 5.8867-9.4453-21.262c-0.82812-1.8711-2.4961-3.2422-4.4922-3.6992-2-0.45312-4.0938 0.0625-5.6523 1.3906l-17.699 15.055-15.812-13.578c-14.613-17.008-35.902-26.816-58.324-26.863-1.8984 0.050781-3.6602 0.98828-4.7578 2.5352-16.734 22.879-43.375 36.395-71.719 36.391-28.344-0.007813-54.98-13.539-71.703-36.422-1.1016-1.5391-2.8672-2.4688-4.7578-2.5039-42.48 0-77.172 34.848-77.172 77.324v139.7c0.03125 3.375 2.668 6.1484 6.0391 6.3477h235.14l-18.773 45.352h0.003906c-1.7852 4.2227-0.90234 9.1016 2.2539 12.426 3.125 3.3945 7.9531 4.6328 12.324 3.1641l22.766-7.3789 9.9648 20.402c1.9492 4.082 6.0859 6.668 10.609 6.6367 0.13672 0 0.27734 0 0.41406-0.011719h-0.003906c4.6719-0.11719 8.8242-3.0117 10.559-7.3516l13.297-32.57 12.602 30.793v0.003907c1.7344 4.3398 5.8867 7.2266 10.559 7.3477 0.13672 0 0.27344 0.007813 0.41016 0.007813h0.003907c4.5234 0.027343 8.6562-2.5625 10.609-6.6445l9.9844-20.43 22.742 7.3633h-0.003906c4.3867 1.4219 9.1953 0.16406 12.324-3.2188 3.1328-3.3828 4.0117-8.2773 2.2578-12.539l-23.672-57.48 1.6133 0.42188c1.9805 0.52344 4.0938 0.078125 5.6953-1.1992 1.6055-1.2773 2.5117-3.2383 2.4453-5.2852l-0.72656-23.246 22.773-4.4297c2.0117-0.38672 3.7227-1.7031 4.6133-3.5508 0.89062-1.8438 0.85937-4.0039-0.085938-5.8203l-10.715-20.625 18.598-13.973c1.6328-1.2266 2.5938-3.1523 2.5938-5.1992-0.003906-2.043-0.96875-3.9688-2.6055-5.1914zm-394.8 90.418v-134.24c0.035157-16.805 6.5391-32.949 18.156-45.09 11.621-12.137 27.469-19.336 44.258-20.105 19.117 24.391 48.387 38.637 79.379 38.637 30.988 0 60.262-14.246 79.379-38.637 15.828 0.70312 30.855 7.1445 42.277 18.121l-8.3086 18.707-22.477-5.8867c-1.9805-0.51953-4.0938-0.074219-5.6953 1.2031-1.6016 1.2773-2.5078 3.2344-2.4453 5.2852l0.72656 23.246-22.777 4.4297v-0.003906c-2.0078 0.39062-3.7188 1.707-4.6094 3.5508-0.89062 1.8477-0.85938 4.0039 0.085937 5.8203l10.707 20.613-18.586 13.922h-0.003906c-1.6367 1.2266-2.6016 3.1523-2.6016 5.1953 0 2.0469 0.96094 3.9727 2.5977 5.1992l18.598 13.969-10.711 20.617c-0.94531 1.8164-0.97656 3.9766-0.085937 5.8203s2.6016 3.1641 4.6133 3.5508l22.777 4.4336-0.72656 23.242v0.003906c-0.066406 2.0469 0.83984 4.0078 2.4414 5.2852 1.6055 1.2773 3.7148 1.7227 5.6992 1.2031l2.4336-0.41406-0.86328 2.3203zm268.52 80.582-9.9609-20.422h0.003906c-2.6016-5.2773-8.6719-7.8594-14.277-6.0664l-22.766 7.3398 27.891-67.719 5.7344-1.5 9.4453 21.27v-0.003906c0.83594 1.8711 2.5 3.2422 4.4961 3.6953 2 0.45312 4.0938-0.0625 5.6523-1.3906l2.2539-1.918 9.4102 23zm94.809-20.898-22.742-7.3633 0.003906-0.003906c-5.6055-1.793-11.676 0.78906-14.277 6.0664l-9.9961 20.414-29.863-72.98 5.9844-5.0898 17.699 15.055-0.003906-0.003907c1.1797 1.0039 2.6797 1.5508 4.2266 1.5508 2.5625 0 4.8867-1.5117 5.9258-3.8594l9.4453-21.262 6.5508 1.7148zm2.1953-132.48v-0.003907c-2.543 1.9023-3.3281 5.3711-1.8594 8.1875l9.5117 18.309-20.234 3.9375v-0.003906c-3.1367 0.59766-5.3672 3.3906-5.2539 6.582l0.64453 20.656-19.977-5.2305c-3.082-0.81641-6.2969 0.73047-7.582 3.6484l-8.3945 18.895-15.727-13.383v-0.003907c-2.4219-2.0781-6-2.0781-8.4258 0l-15.73 13.383-8.3945-18.895 0.003906 0.003906c-1.0312-2.3516-3.3555-3.8672-5.9219-3.8672-0.55859 0-1.1172 0.074219-1.6602 0.21484l-19.977 5.2305 0.64453-20.656c0.11328-3.1875-2.1172-5.9805-5.25-6.5781l-20.238-3.9375 9.5078-18.309v0.003906c1.4727-2.8203 0.68359-6.2891-1.8633-8.1914l-16.531-12.418 16.531-12.379v0.003907c2.5508-1.9023 3.3438-5.375 1.8672-8.1953l-9.5117-18.301 20.234-3.9375h0.003907c3.1328-0.59766 5.3672-3.3906 5.2539-6.582l-0.64453-20.656 19.977 5.2305c3.082 0.81641 6.2969-0.73047 7.582-3.6484l8.3945-18.895 15.73 13.383v0.003906c2.4219 2.0742 5.9961 2.0742 8.418 0l15.73-13.383 8.3984 18.902h-0.003906c1.2891 2.9102 4.5 4.4531 7.5781 3.6406l19.977-5.2305-0.64453 20.656c-0.11328 3.1875 2.1172 5.9805 5.25 6.582l20.238 3.9375-9.5117 18.301c-1.4727 2.8203-0.67969 6.293 1.8711 8.1914l16.523 12.379z"/>
  <path d="m499.57 396.57c-16.676 0-32.672 6.625-44.461 18.418-11.793 11.789-18.418 27.785-18.418 44.461s6.625 32.668 18.418 44.461c11.789 11.793 27.785 18.414 44.461 18.414 16.676 0 32.668-6.6211 44.461-18.414 11.793-11.793 18.418-27.785 18.418-44.461-0.023438-16.672-6.6523-32.652-18.441-44.441-11.785-11.785-27.77-18.418-44.438-18.438zm0 113.96c-13.547 0-26.535-5.3828-36.113-14.957-9.5781-9.5781-14.957-22.57-14.957-36.113s5.3789-26.535 14.957-36.113c9.5781-9.5742 22.566-14.957 36.113-14.957 13.543 0 26.535 5.3828 36.109 14.957 9.5781 9.5781 14.961 22.57 14.961 36.113-0.015625 13.539-5.4023 26.52-14.977 36.094-9.5742 9.5742-22.555 14.961-36.094 14.977z"/>
  <path d="m499.57 435.9c5.1055 0.003906 9.2461 4.1406 9.25 9.25 0 3.2617 2.6406 5.9023 5.9023 5.9023 3.2617 0 5.9062-2.6406 5.9062-5.9023-0.007812-4.5859-1.5117-9.043-4.2773-12.695-2.7695-3.6523-6.6523-6.3047-11.066-7.5547v-5.2188c0-3.2617-2.6406-5.9062-5.9023-5.9062-3.2617 0-5.9023 2.6445-5.9023 5.9062v5.3125c-6.5 1.9648-11.652 6.9414-13.84 13.371-2.1875 6.4258-1.1406 13.516 2.8125 19.035 3.9531 5.5195 10.328 8.7969 17.117 8.7969 2.5-0.078124 4.9258 0.85938 6.7227 2.6016s2.8125 4.1406 2.8125 6.6406c0 2.5039-1.0156 4.8984-2.8125 6.6406s-4.2227 2.6836-6.7227 2.6055c-0.17187 0-0.33984-0.015625-0.51172-0.027344-0.17188-0.007812-0.32422-0.027344-0.48438-0.03125l-0.003907 0.003906c-4.6875-0.51562-8.2383-4.4727-8.2461-9.1914 0-3.2617-2.6445-5.9023-5.9023-5.9023-3.2617 0-5.9062 2.6406-5.9062 5.9023 0.007813 4.3398 1.3516 8.5742 3.8555 12.117 2.5 3.5469 6.0352 6.2344 10.125 7.6953v5.1172c0 3.2617 2.6406 5.9023 5.9023 5.9023 3.2617 0 5.9062-2.6406 5.9062-5.9023v-4.4297c6.7734-1.5586 12.344-6.3672 14.875-12.848 2.5312-6.4766 1.6992-13.785-2.2266-19.527-3.9219-5.7422-10.43-9.1758-17.383-9.1758-5-0.14453-8.9805-4.2422-8.9805-9.2422 0-5.0039 3.9805-9.1016 8.9805-9.2461z"/>
 </g>
</svg>