<?xml version="1.0" encoding="UTF-8"?>
<!-- The Best Svg Icon site in the world: iconSvg.co, Visit us! https://iconsvg.co -->
<svg fill="#000000" width="800px" height="800px" version="1.1" viewBox="144 144 512 512" xmlns="http://www.w3.org/2000/svg">
 <g>
  <path d="m515.45 389.5c25.055 0 49.082-9.9531 66.797-27.668 17.715-17.719 27.668-41.746 27.668-66.797 0-25.055-9.9531-49.082-27.668-66.797-17.715-17.715-41.742-27.668-66.797-27.668-25.051 0-49.078 9.9531-66.793 27.668-17.719 17.715-27.668 41.742-27.668 66.797 0 25.051 9.9492 49.078 27.668 66.797 17.715 17.715 41.742 27.668 66.793 27.668zm-20.992-83.969c-5.7969 0-10.496-4.6992-10.496-10.496v-31.488c0-5.7969 4.6992-10.496 10.496-10.496h10.496c0-5.7969 4.6992-10.496 10.496-10.496s10.496 4.6992 10.496 10.496h10.496c5.7969 0 10.496 4.6992 10.496 10.496s-4.6992 10.496-10.496 10.496h-31.488v10.496h31.488c2.7852 0 5.4531 1.1055 7.4219 3.0742s3.0742 4.6367 3.0742 7.4219v31.488c0 2.7812-1.1055 5.4531-3.0742 7.4219s-4.6367 3.0742-7.4219 3.0742h-10.496c0 5.7969-4.6992 10.496-10.496 10.496s-10.496-4.6992-10.496-10.496h-10.496c-5.7969 0-10.496-4.6992-10.496-10.496s4.6992-10.496 10.496-10.496h31.488v-10.496z"/>
  <path d="m620.41 578.43h-10.496v-52.48c0-2.7812-1.1055-5.4531-3.0742-7.4219-1.9688-1.9648-4.6367-3.0742-7.4219-3.0742h-104.96c-5.7969 0-10.496 4.6992-10.496 10.496v52.48h-20.988v-94.465c0-2.7812-1.1094-5.4531-3.0742-7.418-1.9688-1.9688-4.6406-3.0742-7.4219-3.0742h-104.96c-5.7969 0-10.496 4.6992-10.496 10.492v94.465h-20.992v-157.44c0-2.7852-1.1055-5.4531-3.0742-7.4219s-4.6406-3.0742-7.4219-3.0742h-104.96c-5.7969 0-10.496 4.6992-10.496 10.496v157.44h-10.496c-5.7969 0-10.496 4.6992-10.496 10.496s4.6992 10.496 10.496 10.496h440.83c5.7969 0 10.496-4.6992 10.496-10.496s-4.6992-10.496-10.496-10.496z"/>
  <path d="m569.2 462.03-18.055 13.539c-4.6367 3.4766-5.5781 10.055-2.0977 14.695 1.9805 2.6406 5.0938 4.1953 8.3945 4.1953 2.2734 0 4.4805-0.73438 6.3008-2.0977l41.984-31.488c2.6406-1.9805 4.1953-5.0938 4.1953-8.3945 0-3.3047-1.5547-6.418-4.1953-8.3984l-41.984-31.488c-4.6406-3.4766-11.219-2.5391-14.695 2.0977-3.4805 4.6406-2.5391 11.219 2.0977 14.695l15.324 11.547c-195.75-12.281-301.76-132.77-356.86-234.8-2.9297-4.6758-8.9766-6.2891-13.844-3.6914-4.8672 2.6016-6.8906 8.5234-4.6289 13.559 58.148 107.58 170.14 234.69 378.07 246.03z"/>
 </g>
</svg>