<?xml version="1.0" encoding="UTF-8"?>
<!-- The Best Svg Icon site in the world: iconSvg.co, Visit us! https://iconsvg.co -->
<svg fill="#000000" width="800px" height="800px" version="1.1" viewBox="144 144 512 512" xmlns="http://www.w3.org/2000/svg">
 <g>
  <path d="m400.46 283.98c13.996 0 27.16-5.4531 37.055-15.352 20.434-20.434 20.434-53.688-0.003906-74.121-9.8984-9.8945-23.059-15.34-37.055-15.34-13.996 0-27.156 5.4531-37.051 15.348-9.8984 9.8984-15.352 23.062-15.352 37.059 0 13.996 5.457 27.156 15.352 37.051 9.8945 9.8984 23.055 15.352 37.055 15.355z"/>
  <path d="m465.56 348.82-2.9375-17.738c35.535-19.008 56.625-64.148 56.625-121.75 0-10.973-8.9219-19.895-19.891-19.895-10.973 0-19.895 8.9219-19.895 19.895 0 50.691-33.227 87.488-79.004 87.488-45.777 0-79.004-36.793-79.004-87.488 0-10.973-8.9219-19.895-19.891-19.895-10.973 0-19.895 8.9219-19.895 19.895 0 57.605 21.09 102.75 56.613 121.75l-2.9375 17.734c-49.543 24.199-83.762 75.098-83.762 133.85 0 9.7734 0.97266 19.32 2.7812 28.574-0.42969 1.3711-0.29297 2.8672 0.47266 4.125l0.65625 1.0781c15.352 65.875 74.492 115.11 144.96 115.11 82.09 0 148.88-66.789 148.88-148.88 0-58.754-34.219-109.65-83.77-133.86zm-198.86 133.85c0-15.672 2.7305-30.723 7.707-44.715h14.641c15.438 0 27.996-12.555 27.996-27.992 0-8.7617-4.2305-16.832-10.906-22.047 24.203-24.094 57.547-39.012 94.312-39.012 25.641 0 49.609 7.2656 69.98 19.824h-16.828c-16.445 0-29.824 13.32-29.945 29.738-7.418-1.9688-15.164-3.125-23.195-3.125-49.898 0-90.496 40.598-90.496 90.496 0 19.629 6.3516 37.77 17.012 52.613h-6.4453v-0.23047c0-16.82-13.688-30.512-30.516-30.512h-20.934c-1.5391-8.1094-2.3828-16.48-2.3828-25.039zm58.383 3.1758c0-41.562 33.816-75.379 75.379-75.379s75.379 33.816 75.379 75.379c0.003906 41.562-33.812 75.375-75.379 75.375-41.562 0-75.379-33.812-75.379-75.375zm75.371 130.59c-27.348 0-52.793-8.2656-74.004-22.41h24.762c12.836 0 23.641-8.7656 26.809-20.625 7.1875 1.8516 14.684 2.9336 22.441 2.9336 23.977 0 45.742-9.4375 61.949-24.707 1.2188 0.17188 2.4375 0.34375 3.6406 0.34375h24.078c15.66 0 28.398-12.555 28.398-27.992 0-7.4062-3.1133-14.488-8.418-19.699 5.3047-5.1992 8.418-12.352 8.418-19.879 0-3.7773-0.75391-7.4531-2.207-10.855h17.547c0.20703 3.0195 0.34766 6.0547 0.34766 9.125 0.003906 73.762-60.004 133.77-133.76 133.77z"/>
  <path d="m407.42 546.86v-6.8672c19.039-3.3086 26.18-20.934 26.18-32.098 0-8.125-2.9531-20.605-21.676-27.055l-16.809-5.5469c-2.5898-0.82812-13.074-4.5586-11.965-14.938 0.42187-3.9609 1.5859-7.0078 4.7461-9.0781 2.5859-1.6641 5.7773-2.4883 9.5977-2.4883 6.4688 0 10.867 1.0898 13.75 4.8164 1.5781 2.1602 2.0898 3.7383 2.5195 7.4766 0 0 0.50781 6.1445 7.875 6.1445 7.3711 0 8.5-5.8555 8.6445-6.9141 0.65625-4.7812-1.9453-12.785-5.5703-17.531-4.1719-5.4805-10.105-8.7969-17.297-10.219v-7.625c0-4.1172-3.3359-7.4531-7.4531-7.4531-4.1094 0-7.4531 3.3359-7.4531 7.4531v7.2383c-8.6055 1.1133-15.164 4.5898-19.602 10.516-3.8789 5.2227-10.359 15.281-3.7148 32.684 5.7227 15.008 33.035 19.805 33.035 19.805 5.0977 1.2461 14.852 3.1992 14.871 14.965 0.011719 4.5586-2.8047 13.406-17.355 13.406-6.75 0-16.395-2.9883-16.395-15.266 0 0 0.11719-6.4023-7.8828-6.4023-7.9844 0-8.6055 6.4023-8.6055 6.4023 0 8.125 1.1641 13.844 5.4102 19.406 6.3633 8.4102 14.172 11.352 20.242 12.375v6.8047c0 4.1172 3.3359 7.4531 7.4531 7.4531 4.1211-0.019531 7.4531-3.3477 7.4531-7.4648z"/>
 </g>
</svg>