<?xml version="1.0" encoding="UTF-8"?>
<!-- The Best Svg Icon site in the world: iconSvg.co, Visit us! https://iconsvg.co -->
<svg fill="#000000" width="800px" height="800px" version="1.1" viewBox="144 144 512 512" xmlns="http://www.w3.org/2000/svg">
 <path d="m562.69 424.16v-1.0977c0-15.613-12.699-28.312-28.32-28.312h-118.62v-136.76c0-6.2148 5.9297-25.301 40.574-29.711 0.56641-0.058594 1.0898-0.10938 1.6758-0.16406 6.8477 7.1094 18.992 14.668 39.801 14.668 44.414 0 50.285-34.023 50.34-34.363 0.45703-2.8594-1.5078-5.5469-4.3672-6.0039-42.516-6.7734-83.113-1.3398-90.816-0.18359l-0.72266 0.10938c-27.703 3.7383-42.93 15.441-50.852 24.703-8.3242-9.7305-24.434-21.879-53.922-25.07-7.6953-1.1797-48.23-6.7188-91.215 0.12109-2.8594 0.45703-4.8125 3.1445-4.3555 6.0039 0.050782 0.33984 5.9414 34.363 50.359 34.363 20.781 0 32.945-7.5469 39.797-14.648 0.82422 0.066406 1.6367 0.14062 2.4297 0.22656 24.324 2.6133 38.477 13.082 39.664 29.473 0 0.03125 0.13281 0.1875 0.13281 0.33984l-0.011719 136.9h-118.62c-15.617 0-28.32 12.699-28.32 28.32v1.0977c0 9.5312 4.7656 17.934 12.004 23.07-7.2383 5.1289-12.004 13.531-12.004 23.062v1.0977c0 9.5234 4.7656 17.934 12.004 23.07-7.2383 5.125-12.004 13.535-12.004 23.062v1.0977c0 9.5078 4.7539 17.922 12.012 23.059-7.2461 5.1328-12.012 13.543-12.012 23.078v1.0977c0 15.613 12.703 28.312 28.32 28.312h268.75c15.613 0 28.312-12.699 28.312-28.32v-1.0977c0-9.5156-4.75-17.902-11.965-23.039 7.2148-5.1328 11.965-13.551 11.965-23.098v-1.0977c0-9.5312-4.7656-17.934-12.004-23.07 7.2383-5.1289 12.004-13.531 12.004-23.062v-1.0977c0-9.5312-4.7656-17.934-12.004-23.07 7.2383-5.1289 12.004-13.531 12.004-23.062zm-168.1-167.39c-0.73828-10.277-7.043-34.652-48.941-39.145-1.7422-0.1875-3.5859-0.33594-5.4336-0.45703-1.6367-0.10547-3.2852 0.58203-4.3555 1.8594-7.2422 8.5977-18.559 12.953-33.613 12.953-25.566 0-35.004-12.926-38.316-20.383 40.121-5.3047 77.609 0.10156 82.164 0.79297 26.523 2.875 40.461 13.387 47.484 21.695 1.2188 1.4414 2.3711 2.9844 3.418 4.5703 0.97266 1.4766 2.6133 2.3633 4.375 2.3633h0.003906c1.7617 0 3.4023-0.88281 4.375-2.3516 1.0859-1.6445 2.2109-3.1445 3.4219-4.582 6.6758-7.8945 19.805-18.008 44.531-21.34l0.79297-0.12109c7.0742-1.0586 42.84-5.8516 81.551-0.71484-3.3477 7.4453-12.832 20.387-38.277 20.387-15.082 0-26.398-4.3672-33.633-12.977-1.0742-1.2812-2.7227-1.9766-4.3711-1.8594-1.5781 0.10547-3.1289 0.23047-4.75 0.39844-44 5.5938-49.215 33.672-49.84 39.246-0.023437 0.1875 0.074219 0.38281 0.074219 0.57422v137.07h-10.496v-137.1c0-0.12109-0.15234-0.76562-0.16406-0.88672zm157.61 167.39c0 9.8281-7.9922 17.824-17.824 17.824h-39.906c-2.9023 0-5.2461 2.3516-5.2461 5.2461 0 2.8984 2.3477 5.2461 5.2461 5.2461h39.906c9.832 0.003907 17.824 7.9961 17.824 17.824v1.0977c0 9.8242-7.9922 17.816-17.824 17.816h-113.38c-2.9023 0-5.2461 2.3516-5.2461 5.2461 0 2.8984 2.3477 5.2461 5.2461 5.2461h113.38c9.8281 0.003907 17.82 7.9961 17.82 17.824v1.0977c0 9.8242-7.918 17.816-17.656 17.816-0.019531 0-0.035156 0.011719-0.058594 0.011719-0.035156 0-0.074218-0.011719-0.10937-0.011719h-186.85c-2.9023 0-5.2461 2.3516-5.2461 5.2461 0 2.8984 2.3477 5.2461 5.2461 5.2461h186.85c9.8281 0.003906 17.82 8 17.82 17.828v1.0977c0 9.8242-7.9922 17.816-17.824 17.816h-268.74c-9.832 0-17.824-7.9922-17.824-17.824v-1.0977c0-9.8203 7.9922-17.816 17.824-17.816h39.906c2.9023 0 5.2461-2.3516 5.2461-5.2461 0-2.8984-2.3477-5.2461-5.2461-5.2461h-39.742c-9.9219-0.003907-17.988-7.9961-17.988-17.824v-1.0977c0-9.8242 7.9922-17.816 17.824-17.816h113.38c2.9023 0 5.2461-2.3516 5.2461-5.2461 0-2.8984-2.3477-5.2461-5.2461-5.2461l-113.38-0.003906c-9.832 0-17.824-7.9922-17.824-17.824v-1.0977c0-9.8203 7.9922-17.812 17.824-17.812h186.85c2.9023 0 5.2461-2.3516 5.2461-5.2461 0-2.8984-2.3477-5.2461-5.2461-5.2461l-186.85-0.003906c-9.832 0-17.824-7.9961-17.824-17.824v-1.0977c0-9.8242 7.9922-17.816 17.824-17.816h268.75c9.8242 0 17.816 7.9922 17.816 17.824z"/>
</svg>