<?xml version="1.0" encoding="UTF-8"?>
<!-- The Best Svg Icon site in the world: iconSvg.co, Visit us! https://iconsvg.co -->
<svg fill="#000000" width="800px" height="800px" version="1.1" viewBox="144 144 512 512" xmlns="http://www.w3.org/2000/svg">
 <g>
  <path d="m298.34 470.56c4.1914 1.1445 8.5156-1.3203 9.668-5.5078 11.695-42.645 50.176-88.672 91.992-88.672s80.293 46.027 91.992 88.672c0.93359 3.4141 4.0352 5.7852 7.5781 5.793 0.70703 0 1.4102-0.09375 2.0859-0.28516 4.1914-1.1484 6.6562-5.4766 5.5117-9.6641-10.117-37.105-34.004-68.957-66.793-89.059 10.52-3.5586 19.754-10.141 26.543-18.93 6.793-8.7852 10.836-19.383 11.629-30.457 0.74609-9.5977-2.5117-19.074-9-26.184-5.7422-6.3359-13.875-9.9727-22.426-10.023-7.9492-0.12891-15.617 2.9609-21.254 8.5664-0.54297 0.54297-1.0547 1.0938-1.5742 1.6602-6.4141-6.5078-15.168-10.168-24.301-10.168-9.1367 0-17.891 3.6602-24.301 10.168-0.49609-0.56641-1.0078-1.1172-1.5742-1.6602-5.6172-5.5508-13.211-8.6328-21.105-8.5664h-0.16797c-8.5469 0.050781-16.684 3.6875-22.426 10.023-6.4883 7.1094-9.7461 16.586-8.9961 26.184 0.78906 11.074 4.832 21.672 11.625 30.457 6.7891 8.7891 16.023 15.371 26.543 18.93-32.789 20.102-56.676 51.953-66.793 89.059-0.54688 2.0156-0.27344 4.168 0.76562 5.9805s2.7578 3.1406 4.7773 3.6836zm38.809-149.29c-0.42188-5.2461 1.3359-10.434 4.8633-14.344 2.7891-3.1211 6.7656-4.918 10.953-4.9492h0.085937c3.7305-0.074219 7.3359 1.3633 9.9961 3.9844 2.832 2.9219 4.375 6.8555 4.2812 10.926 0 4.3477 3.5273 7.8711 7.875 7.8711s7.8711-3.5234 7.8711-7.8711c0.71484-5.5312 4.0898-10.363 9.0352-12.938 4.9414-2.5781 10.836-2.5781 15.781 0 4.9414 2.5742 8.3164 7.4062 9.0312 12.938 0 4.3477 3.5273 7.8711 7.875 7.8711s7.8711-3.5234 7.8711-7.8711c-0.089844-4.0703 1.4492-8.0039 4.2812-10.926 2.6602-2.6211 6.2656-4.0586 9.9961-3.9844h0.089844c4.1836 0.03125 8.1602 1.8281 10.949 4.9492 3.5273 3.9102 5.2891 9.0977 4.8633 14.344-0.83203 9.0859-4.6016 17.656-10.738 24.406-6.1367 6.7539-14.305 11.328-23.27 13.027 2.4766-4.6172 3.793-9.7656 3.8281-15.004 0-4.3477-3.5234-7.875-7.8711-7.875s-7.875 3.5273-7.875 7.875c0 6.0469-3.2227 11.633-8.4609 14.656-5.2383 3.0234-11.688 3.0234-16.926 0-5.2344-3.0234-8.4609-8.6094-8.4609-14.656 0-4.3477-3.5234-7.875-7.8711-7.875s-7.875 3.5273-7.875 7.875c0.039063 5.2383 1.3516 10.387 3.8281 15.004-8.9648-1.6992-17.133-6.2734-23.27-13.027-6.1367-6.75-9.9062-15.32-10.738-24.406z"/>
  <path d="m400 502.34c-4.1758 0-8.1797-1.6602-11.133-4.6133-2.9531-2.9531-4.6133-6.957-4.6133-11.133 0-4.3477-3.5234-7.8711-7.8711-7.8711-4.3477 0-7.8711 3.5234-7.8711 7.8711 0.023437 6.9609 2.3555 13.719 6.6289 19.211 4.2734 5.4961 10.246 9.4219 16.984 11.16v8.9883c0 4.3477 3.5273 7.875 7.875 7.875s7.8711-3.5273 7.8711-7.875v-8.9883c9.9688-2.5664 18.051-9.8516 21.629-19.504 3.582-9.6523 2.207-20.445-3.6758-28.891-5.8828-8.4453-15.531-13.477-25.824-13.465-4.1758 0-8.1797-1.6562-11.133-4.6094-2.9531-2.9531-4.6133-6.957-4.6133-11.133s1.6602-8.1797 4.6133-11.133c2.9531-2.9531 6.957-4.6133 11.133-4.6133s8.1797 1.6602 11.133 4.6133c2.9492 2.9531 4.6094 6.957 4.6094 11.133 0 4.3477 3.5234 7.8711 7.8711 7.8711 4.3477 0 7.875-3.5234 7.875-7.8711-0.027343-6.9609-2.3594-13.719-6.6328-19.211-4.2734-5.4961-10.246-9.4219-16.984-11.16v-8.9883c0-4.3477-3.5234-7.875-7.8711-7.875s-7.875 3.5273-7.875 7.875v8.9883c-9.9688 2.5664-18.047 9.8516-21.629 19.504-3.582 9.6523-2.207 20.445 3.6758 28.891 5.8867 8.4453 15.531 13.477 25.828 13.465 5.625 0 10.82 3 13.633 7.8711s2.8125 10.871 0 15.742c-2.8125 4.875-8.0078 7.875-13.633 7.875z"/>
  <path d="m305.54 533.82h31.488c4.3477 0 7.8711-3.5273 7.8711-7.875 0-4.3477-3.5234-7.8711-7.8711-7.8711h-31.488c-31.309-0.035156-61.32-12.488-83.457-34.625s-34.59-52.148-34.625-83.453v-62.977c0.035156-31.309 12.488-61.32 34.625-83.457 22.137-22.137 52.148-34.59 83.457-34.625h188.93c31.309 0.035156 61.32 12.488 83.457 34.625 22.137 22.137 34.59 52.148 34.625 83.457v62.977c-0.035157 31.305-12.488 61.316-34.625 83.453s-52.148 34.59-83.457 34.625h-15.742c-4.3477 0-7.8711 3.5234-7.8711 7.8711v1.1719l-13.531-16.914 13.531-16.918v1.1719c0 2.0898 0.82812 4.0938 2.3047 5.5664 1.4766 1.4766 3.4805 2.3086 5.5664 2.3086h15.742c27.133-0.03125 53.145-10.824 72.328-30.008 19.188-19.188 29.98-45.199 30.012-72.328v-62.977c-0.03125-27.133-10.824-53.145-30.012-72.328-19.184-19.188-45.195-29.977-72.328-30.008h-188.93c-27.133 0.03125-53.145 10.82-72.328 30.008-19.188 19.184-29.977 45.195-30.008 72.328v62.977c0.03125 27.129 10.82 53.141 30.008 72.328 19.184 19.184 45.195 29.977 72.328 30.008h31.488c4.3477 0 7.8711-3.5273 7.8711-7.875 0-4.3477-3.5234-7.8711-7.8711-7.8711h-31.488c-22.957-0.027344-44.969-9.1562-61.199-25.391-16.234-16.234-25.367-38.242-25.395-61.199v-62.977c0.027344-22.957 9.1602-44.969 25.395-61.203 16.23-16.23 38.242-25.363 61.199-25.391h188.93c22.961 0.027343 44.969 9.1602 61.203 25.391 16.23 16.234 25.363 38.246 25.391 61.203v62.977c-0.027344 22.957-9.1602 44.965-25.391 61.199-16.234 16.234-38.242 25.363-61.203 25.391h-7.8711v-15.742c0.003906-3.3438-2.1094-6.3242-5.2656-7.4336-3.1523-1.1055-6.6641-0.097656-8.7539 2.5117l-31.488 39.359c-2.3008 2.8789-2.3008 6.9648 0 9.8398l31.488 39.359v0.003906c1.4961 1.8672 3.7578 2.9531 6.1484 2.9492 0.88672 0 1.7656-0.14844 2.6055-0.4375 3.1562-1.1094 5.2695-4.0898 5.2656-7.4336v-15.742h7.8711c35.48-0.039063 69.496-14.152 94.586-39.242 25.09-25.086 39.199-59.102 39.242-94.582v-62.977c-0.042968-35.48-14.152-69.496-39.242-94.586s-59.105-39.199-94.586-39.238h-188.93c-35.48 0.039062-69.496 14.148-94.586 39.238-25.086 25.09-39.199 59.105-39.238 94.586v62.977c0.039062 35.48 14.152 69.496 39.238 94.582 25.09 25.09 59.105 39.203 94.586 39.242z"/>
  <path d="m525.95 305.54c-4.3477 0-7.8711 3.5234-7.8711 7.8711v7.8711c0 4.3477 3.5234 7.8711 7.8711 7.8711 4.3477 0 7.875-3.5234 7.875-7.8711v-7.8711c0-2.0859-0.83203-4.0898-2.3086-5.5664-1.4766-1.4766-3.4766-2.3047-5.5664-2.3047z"/>
  <path d="m510.21 329.15h-7.8711c-4.3477 0-7.875 3.5273-7.875 7.875 0 4.3477 3.5273 7.8711 7.875 7.8711h7.8711c4.3477 0 7.8711-3.5234 7.8711-7.8711 0-4.3477-3.5234-7.875-7.8711-7.875z"/>
  <path d="m541.7 344.89h7.8711c4.3477 0 7.8711-3.5234 7.8711-7.8711 0-4.3477-3.5234-7.875-7.8711-7.875h-7.8711c-4.3477 0-7.8711 3.5273-7.8711 7.875 0 4.3477 3.5234 7.8711 7.8711 7.8711z"/>
  <path d="m518.08 360.64c0 4.3477 3.5234 7.875 7.8711 7.875 4.3477 0 7.875-3.5273 7.875-7.875v-7.8711c0-4.3477-3.5273-7.8711-7.875-7.8711-4.3477 0-7.8711 3.5234-7.8711 7.8711z"/>
  <path d="m281.92 376.38c0-4.3477-3.5234-7.8711-7.8711-7.8711s-7.8711 3.5234-7.8711 7.8711v7.8711c0 4.3477 3.5234 7.8711 7.8711 7.8711s7.8711-3.5234 7.8711-7.8711z"/>
  <path d="m258.3 392.12h-7.8711c-4.3477 0-7.8711 3.5273-7.8711 7.875s3.5234 7.8711 7.8711 7.8711h7.8711c4.3477 0 7.875-3.5234 7.875-7.8711s-3.5273-7.875-7.875-7.875z"/>
  <path d="m289.79 407.87h7.875c4.3477 0 7.8711-3.5234 7.8711-7.8711s-3.5234-7.875-7.8711-7.875h-7.875c-4.3477 0-7.8711 3.5273-7.8711 7.875s3.5234 7.8711 7.8711 7.8711z"/>
  <path d="m274.05 431.49c2.0859 0 4.0898-0.83203 5.5664-2.3086 1.4766-1.4766 2.3047-3.4766 2.3047-5.5664v-7.8711c0-4.3477-3.5234-7.8711-7.8711-7.8711s-7.8711 3.5234-7.8711 7.8711v7.8711c0 2.0898 0.82812 4.0898 2.3047 5.5664 1.4766 1.4766 3.4766 2.3086 5.5664 2.3086z"/>
  <path d="m540.67 632.17c1.3984-2.4688 1.3594-5.5-0.10156-7.9336l-23.617-39.359v-0.003906c-1.4219-2.3672-3.9844-3.8164-6.7461-3.8164h-43.508l0.30859-0.16406h-0.003906c3.7344-2.2266 4.957-7.0586 2.7344-10.793-2.2266-3.7344-7.0586-4.957-10.793-2.7305-18.062 9.7734-38.426 14.5-58.945 13.688-37.465 0-64.449-11.141-80.199-33.062h-0.003906c-1.1797-1.7812-3.0352-3.0078-5.1367-3.3906-2.1055-0.38672-4.2734 0.097657-6.0117 1.3438-1.7383 1.2461-2.8906 3.1484-3.1992 5.2617-0.30859 2.1172 0.25391 4.2656 1.5664 5.957 6.9492 9.6953 15.852 17.836 26.133 23.891h-43.359c-2.7617 0-5.3242 1.4492-6.7461 3.8164l-23.617 39.359 0.003907 0.003906c-1.4609 2.4297-1.5039 5.4609-0.10547 7.9297 1.3945 2.4688 4.0117 3.9961 6.8516 3.9961h267.65c2.832 0 5.4492-1.5273 6.8477-3.9922zm-260.6-11.754 14.168-23.617 211.51 0.003906 14.168 23.617z"/>
 </g>
</svg>