<?xml version="1.0" encoding="UTF-8"?>
<!-- The Best Svg Icon site in the world: iconSvg.co, Visit us! https://iconsvg.co -->
<svg fill="#000000" width="800px" height="800px" version="1.1" viewBox="144 144 512 512" xmlns="http://www.w3.org/2000/svg">
 <g>
  <path d="m220.52 467.15h358.97c2.7266 0 4.9258-2.207 4.9258-4.9258s-2.207-4.9258-4.9258-4.9258l-62.164-0.003906v-143.8l57.234-48.645v14.398c0 2.7188 2.207 4.9258 4.9258 4.9258s4.9258-2.207 4.9258-4.9258v-25.043c0-0.23047-0.10156-0.43359-0.13281-0.65625-0.046876-0.35938-0.085938-0.70703-0.21094-1.0469-0.11719-0.30859-0.29688-0.57031-0.46875-0.84766-0.13281-0.21484-0.19141-0.45703-0.36328-0.65625-0.046875-0.054688-0.11719-0.082031-0.16797-0.13281-0.20703-0.22266-0.45703-0.37891-0.70703-0.55859-0.28125-0.20703-0.54297-0.43359-0.85547-0.57422-0.20312-0.089844-0.42969-0.11719-0.64062-0.17969-0.40625-0.12109-0.80469-0.23828-1.2344-0.24609-0.054688 0-0.10156-0.03125-0.15234-0.03125h-28.332c-2.7266 0-4.9258 2.207-4.9258 4.9258 0 2.7227 2.207 4.9297 4.9258 4.9297h14.918l-53.664 45.609-10.785-9.168c0.99609-2.0898 1.5781-4.3672 1.5781-6.7578 0-8.6523-7.043-15.688-15.699-15.688-8.6367 0-15.66 7.0391-15.66 15.688 0 2.2227 0.48438 4.3594 1.3555 6.332l-58.82 49.992-11.922-10.152c1.0469-2.1367 1.668-4.4688 1.668-6.9219 0-8.6523-7.043-15.684-15.695-15.684-8.6367 0-15.66 7.0391-15.66 15.684 0 2.4336 0.60547 4.75 1.6367 6.8711l-55.121 46.848-15.629-13.281c1.0938-2.168 1.7344-4.5508 1.7344-7.0469 0-8.6523-7.043-15.684-15.695-15.684-8.6367 0-15.66 7.0391-15.66 15.684 0 2.5 0.64062 4.8828 1.7266 7.0469l-50.305 42.758 0.007813-157.05c0-2.7188-2.207-4.9258-4.9258-4.9258s-4.9258 2.207-4.9258 4.9258v208.02c-0.011718 2.7188 2.1914 4.9258 4.918 4.9258zm74.09-90.812c0.69922-0.23047 1.375-0.50781 2.0312-0.83594l17.699 15.043v66.746h-19.734v-80.953zm187.97-72.656v153.61l-63.293 0.003907v-103.39l60.527-51.449c0.88672 0.50391 1.8047 0.91797 2.7656 1.2344zm-73.152 153.61h-16.066v-114.35c0.74219-0.24609 1.4492-0.54297 2.1406-0.90234l13.926 11.859zm-25.922-114.35v114.35h-59.309v-66.75l57.105-48.535c0.71484 0.37109 1.4414 0.67969 2.2031 0.93359zm108.93 114.35v-153.61c0.80078-0.26563 1.5703-0.59766 2.3242-0.99609l12.711 10.801v143.8h-15.035zm-4.9492-174.3c3.2188 0 5.8438 2.6133 5.8438 5.8281 0 1.5703-0.60938 3.0469-1.7148 4.1562-2.1758 2.1875-5.9961 2.2227-8.2188 0-1.1016-1.1133-1.7148-2.5898-1.7148-4.1602 0.007812-3.207 2.6094-5.8242 5.8047-5.8242zm-99.07 39.258c3.2188 0 5.8398 2.6133 5.8398 5.8281 0 1.5703-0.60547 3.0469-1.7148 4.1562-2.1914 2.1875-5.9961 2.2227-8.2188 0-1.1016-1.1016-1.707-2.5859-1.707-4.1562 0-3.2109 2.6016-5.8281 5.8008-5.8281zm-98.734 33.395c3.2188 0 5.8398 2.6133 5.8398 5.8281 0 1.5703-0.60547 3.0469-1.7148 4.1602-2.1914 2.1914-5.9961 2.2227-8.2188 0-1.1016-1.1016-1.707-2.5859-1.707-4.1562 0-3.2188 2.6016-5.832 5.8008-5.832zm-6.9336 19.859c0.64844 0.32422 1.3164 0.59766 2 0.82812v80.961h-59.301v-33.086z"/>
  <path d="m621.79 223.8h-443.57c-2.7188 0-4.9258 2.207-4.9258 4.9258v280.32c0 2.7188 2.207 4.9258 4.9258 4.9258h162.05v17.277h-14.594c-2.207 0-4.1445 1.4727-4.7461 3.5977l-9.8594 35.09c-0.41797 1.4844-0.11719 3.0781 0.81641 4.3125 0.92578 1.2305 2.3828 1.9492 3.9297 1.9492h168.36c1.5469 0 2.9961-0.71875 3.9297-1.9492 0.93359-1.2305 1.2383-2.8281 0.81641-4.3125l-9.8594-35.09c-0.59375-2.125-2.5352-3.5977-4.7461-3.5977h-14.594v-17.277h162.05c2.7266 0 4.9258-2.207 4.9258-4.9258v-280.32c0.007813-2.7188-2.1953-4.9258-4.918-4.9258zm-4.9336 9.8594v247.04h-433.71v-247.04zm-146.27 307.44 7.0898 25.234h-155.36l7.0898-25.234h10.855v10.227c0 2.7188 2.207 4.9258 4.9258 4.9258h109.61c2.7266 0 4.9258-2.207 4.9258-4.9258v-10.227zm-20.715 5.3008h-99.746v-32.43h99.746zm4.9258-42.285h-271.65v-13.551h433.71v13.551z"/>
 </g>
</svg>