<?xml version="1.0" encoding="UTF-8"?>
<!-- The Best Svg Icon site in the world: iconSvg.co, Visit us! https://iconsvg.co -->
<svg fill="#000000" width="800px" height="800px" version="1.1" viewBox="144 144 512 512" xmlns="http://www.w3.org/2000/svg">
 <g>
  <path d="m494.16 492.27c-0.97656-3.3672-4.0586-5.6836-7.5664-5.6836h-57.898l-21.309-57.828c-1.1445-3.0898-4.0898-5.1406-7.3828-5.1406-3.2969 0-6.2422 2.0508-7.3867 5.1406l-21.309 57.828h-57.898c-3.5078 0-6.5938 2.3164-7.5703 5.6836-0.97266 3.3711 0.39844 6.9805 3.3672 8.8477l45.043 28.441-16.902 57.137c-0.94922 3.2266 0.25391 6.7031 3 8.6484 2.7461 1.9453 6.4258 1.9336 9.1562-0.035156l50.5-36.449 50.5 36.449h-0.003906c2.7305 1.9688 6.4102 1.9805 9.1562 0.035156 2.7461-1.9453 3.9531-5.4219 3-8.6484l-16.902-57.137 45.043-28.441c2.9688-1.8711 4.3398-5.4766 3.3633-8.8477z"/>
  <path d="m475.02 374.24c-1.7695-1.1797-3.9414-1.5938-6.0234-1.1445-2.0781 0.44531-3.8906 1.7148-5.0195 3.5195-1.125 1.8047-1.4766 3.9883-0.96875 6.0547 0.50781 2.0664 1.832 3.8359 3.668 4.9141 31.16 19.441 52.277 51.516 57.828 87.824 5.5508 36.305-5.0234 73.223-28.953 101.09-23.926 27.863-58.824 43.895-95.551 43.895-36.73 0-71.629-16.031-95.555-43.895-23.93-27.867-34.504-64.785-28.953-101.09 5.5508-36.309 26.672-68.383 57.832-87.824 1.8359-1.0781 3.1562-2.8477 3.6641-4.9141 0.50781-2.0664 0.16016-4.25-0.96875-6.0547-1.1289-1.8047-2.9375-3.0742-5.0195-3.5195-2.0781-0.44922-4.25-0.035156-6.0234 1.1445-35.051 21.875-58.809 57.961-65.047 98.801-6.2422 40.844 5.6523 82.379 32.574 113.72 26.918 31.344 66.176 49.379 107.5 49.379 41.316 0 80.574-18.035 107.5-49.379 26.918-31.344 38.812-72.879 32.574-113.72-6.2422-40.84-30-76.926-65.051-98.801z"/>
  <path d="m394.65 165.93-102.34 94.465v-0.003907c-2.3789 2.2031-3.1641 5.6328-1.9844 8.6484 1.1836 3.0195 4.0898 5.0039 7.332 5.0039h47.23v39.359c0 2.0859 0.82812 4.0898 2.3047 5.5664 1.4766 1.4766 3.4805 2.3047 5.5664 2.3047h94.465c2.0898 0 4.0898-0.82812 5.5664-2.3047 1.4766-1.4766 2.3047-3.4805 2.3047-5.5664v-39.359h47.234c3.2383 0 6.1484-1.9844 7.3281-5.0039 1.1797-3.0156 0.39453-6.4453-1.9844-8.6484l-102.34-94.465v0.003906c-3.0156-2.793-7.6719-2.793-10.691 0z"/>
  <path d="m352.77 352.77h94.465c4.3477 0 7.8711-3.5234 7.8711-7.8711 0-4.3477-3.5234-7.8711-7.8711-7.8711h-94.465c-4.3477 0-7.8711 3.5234-7.8711 7.8711 0 4.3477 3.5234 7.8711 7.8711 7.8711z"/>
  <path d="m352.77 384.25h94.465c4.3477 0 7.8711-3.5234 7.8711-7.8711 0-4.3477-3.5234-7.8711-7.8711-7.8711h-94.465c-4.3477 0-7.8711 3.5234-7.8711 7.8711 0 4.3477 3.5234 7.8711 7.8711 7.8711z"/>
  <path d="m352.77 415.74h94.465c4.3477 0 7.8711-3.5234 7.8711-7.8711s-3.5234-7.8711-7.8711-7.8711h-94.465c-4.3477 0-7.8711 3.5234-7.8711 7.8711s3.5234 7.8711 7.8711 7.8711z"/>
  <path d="m549.57 289.79v7.875c0 4.3477 3.5234 7.8711 7.8711 7.8711s7.875-3.5234 7.875-7.8711v-7.875c0-4.3477-3.5273-7.8711-7.875-7.8711s-7.8711 3.5234-7.8711 7.8711z"/>
  <path d="m557.44 321.28c-4.3477 0-7.8711 3.5234-7.8711 7.8711v7.875c0 4.3477 3.5234 7.8711 7.8711 7.8711s7.875-3.5234 7.875-7.8711v-7.875c0-2.0859-0.83203-4.0898-2.3086-5.5664-1.4766-1.4727-3.4766-2.3047-5.5664-2.3047z"/>
  <path d="m541.7 305.54h-7.8711c-4.3477 0-7.875 3.5234-7.875 7.8711s3.5273 7.8711 7.875 7.8711h7.8711c4.3477 0 7.8711-3.5234 7.8711-7.8711s-3.5234-7.8711-7.8711-7.8711z"/>
  <path d="m581.05 305.54h-7.8711c-4.3477 0-7.8711 3.5234-7.8711 7.8711s3.5234 7.8711 7.8711 7.8711h7.8711c4.3477 0 7.8711-3.5234 7.8711-7.8711s-3.5234-7.8711-7.8711-7.8711z"/>
  <path d="m234.69 242.56v7.8711c0 4.3477 3.5234 7.8711 7.8711 7.8711s7.8711-3.5234 7.8711-7.8711v-7.8711c0-4.3477-3.5234-7.8711-7.8711-7.8711s-7.8711 3.5234-7.8711 7.8711z"/>
  <path d="m242.56 274.05c-4.3477 0-7.8711 3.5234-7.8711 7.8711v7.8711c0 4.3477 3.5234 7.875 7.8711 7.875s7.8711-3.5273 7.8711-7.875v-7.8711c0-2.0859-0.82813-4.0898-2.3047-5.5664-1.4766-1.4766-3.4805-2.3047-5.5664-2.3047z"/>
  <path d="m226.81 258.3h-7.8711c-4.3477 0-7.8711 3.5273-7.8711 7.875 0 4.3477 3.5234 7.8711 7.8711 7.8711h7.8711c4.3477 0 7.875-3.5234 7.875-7.8711 0-4.3477-3.5273-7.875-7.875-7.875z"/>
  <path d="m266.18 274.05c4.3477 0 7.8711-3.5234 7.8711-7.8711 0-4.3477-3.5234-7.875-7.8711-7.875h-7.875c-4.3477 0-7.8711 3.5273-7.8711 7.875 0 4.3477 3.5234 7.8711 7.8711 7.8711z"/>
  <path d="m518.08 234.69v7.8711c0 4.3477 3.5234 7.8711 7.8711 7.8711 4.3477 0 7.875-3.5234 7.875-7.8711v-7.8711c0-4.3477-3.5273-7.875-7.875-7.875-4.3477 0-7.8711 3.5273-7.8711 7.875z"/>
  <path d="m266.18 337.02v7.8711c0 4.3477 3.5234 7.8711 7.8711 7.8711s7.8711-3.5234 7.8711-7.8711v-7.8711c0-4.3477-3.5234-7.875-7.8711-7.875s-7.8711 3.5273-7.8711 7.875z"/>
 </g>
</svg>