<?xml version="1.0" encoding="UTF-8"?>
<!-- The Best Svg Icon site in the world: iconSvg.co, Visit us! https://iconsvg.co -->
<svg fill="#000000" width="800px" height="800px" version="1.1" viewBox="144 144 512 512" xmlns="http://www.w3.org/2000/svg">
 <g>
  <path d="m400 600.73c-88.984 0-161.38-72.395-161.38-161.38l-0.003906-108.24c0-2.1719 1.7617-3.9375 3.9375-3.9375h314.88c2.1719 0 3.9375 1.7617 3.9375 3.9375v108.24c-0.003906 88.984-72.398 161.38-161.38 161.38zm-153.51-265.68v104.3c0 84.645 68.863 153.5 153.5 153.5 84.645 0 153.5-68.863 153.5-153.5l0.003906-104.3z"/>
  <path d="m459.04 384.25h-216.48c-2.1719 0-3.9375-1.7617-3.9375-3.9375 0-2.1719 1.7617-3.9375 3.9375-3.9375h216.48c2.1719 0 3.9375 1.7617 3.9375 3.9375 0 2.1758-1.7656 3.9375-3.9375 3.9375z"/>
  <path d="m400 561.38c-2.1719 0-3.9375-1.7617-3.9375-3.9375v-29.52c0-2.1719 1.7617-3.9375 3.9375-3.9375 2.1719 0 3.9375 1.7617 3.9375 3.9375v29.52c-0.003906 2.1758-1.7656 3.9375-3.9375 3.9375z"/>
  <path d="m567.28 600.73h-334.56c-2.1719 0-3.9375-1.7617-3.9375-3.9375 0-2.1719 1.7617-3.9375 3.9375-3.9375h334.56c2.1719 0 3.9375 1.7617 3.9375 3.9375-0.003906 2.1758-1.7656 3.9375-3.9414 3.9375z"/>
  <path d="m508.24 335.05h-216.48c-2.1719 0-3.9375-1.7617-3.9375-3.9375v-19.68c0-61.855 50.32-112.18 112.18-112.18 61.852 0 112.18 50.32 112.18 112.18v19.68c0.003906 2.1758-1.7578 3.9375-3.9336 3.9375zm-212.54-7.8711h208.61v-15.742c0-57.516-46.793-104.3-104.3-104.3-57.516 0-104.3 46.789-104.3 104.3z"/>
  <path d="m468.88 335.05h-137.76c-2.1719 0-3.9375-1.7617-3.9375-3.9375v-19.68c0-40.152 32.664-72.816 72.816-72.816s72.816 32.664 72.816 72.816v19.68c0.003906 2.1758-1.7617 3.9375-3.9336 3.9375zm-133.82-7.8711h129.89v-15.742c0-35.812-29.133-64.945-64.945-64.945s-64.945 29.133-64.945 64.945z"/>
  <path d="m412.75 468.33c-0.13281-0.17578-0.52344-0.46875-1.168-0.86719-0.64062-0.39844-1.4648-0.83203-2.4648-1.2969-1-0.46484-2.1094-0.91016-3.3281-1.332-1.2188-0.42188-2.4531-0.71875-3.6953-0.89844v9.0547l2.1328 0.53125c2.2617 0.62109 4.3047 1.2969 6.125 2.0312 1.8203 0.73437 3.3633 1.6406 4.6289 2.7305 1.2656 1.0859 2.2383 2.4062 2.9297 3.9609 0.6875 1.5547 1.0312 3.418 1.0312 5.5938 0 2.5312-0.44531 4.6836-1.332 6.457-0.88672 1.7773-2.0742 3.2266-3.5625 4.3594s-3.1953 1.9883-5.125 2.5625c-1.9297 0.57812-3.9609 0.91016-6.0898 1v7.7227h-4.5938v-7.7891c-3.0625-0.26562-6.0938-0.88672-9.0859-1.8633-2.9961-0.97656-5.6914-2.2656-8.0898-3.8633l4.793-9.5195c0.17578 0.22266 0.65625 0.58984 1.4336 1.0977 0.77734 0.51172 1.7656 1.043 2.9609 1.5977 1.1992 0.55469 2.5508 1.0859 4.0625 1.5977 1.5078 0.51172 3.0625 0.87891 4.6602 1.0977v-8.8555l-3.1953-0.92969c-2.1758-0.66797-4.0625-1.3867-5.6562-2.1641-1.5977-0.77734-2.918-1.6719-3.9609-2.6953-1.043-1.0195-1.8203-2.1953-2.332-3.5273s-0.76562-2.8867-0.76562-4.6602c0-2.3086 0.39844-4.3594 1.1992-6.1602 0.80078-1.7969 1.875-3.3398 3.2305-4.625 1.3516-1.2852 2.9492-2.2969 4.793-3.0273 1.8398-0.73047 3.8281-1.2109 5.957-1.4336v-6.7266h4.5938v6.7266c2.8867 0.26562 5.5938 0.91016 8.1211 1.9297 2.5312 1.0195 4.7266 2.0625 6.5898 3.1289zm-18.441-0.59766c0 1.1094 0.38672 1.9883 1.1641 2.6328 0.77734 0.64453 1.9414 1.2109 3.4961 1.6992v-8.1875c-3.1055 0.26172-4.6602 1.5469-4.6602 3.8555zm12.918 21.172c0-1.1562-0.46484-2.0508-1.3984-2.6953-0.93359-0.64063-2.1758-1.2305-3.7305-1.7656v7.9883c3.418-0.13281 5.1289-1.3086 5.1289-3.5273z"/>
  <path d="m400 531.86c-29.301 0-53.137-23.836-53.137-53.137 0-29.297 23.836-53.137 53.137-53.137 29.297 0 53.137 23.836 53.137 53.137-0.003907 29.297-23.84 53.137-53.137 53.137zm0-98.402c-24.957 0-45.266 20.305-45.266 45.266 0 24.957 20.305 45.266 45.266 45.266 24.957 0 45.266-20.305 45.266-45.266-0.003906-24.957-20.309-45.266-45.266-45.266z"/>
 </g>
</svg>