<?xml version="1.0" encoding="UTF-8"?>
<!-- The Best Svg Icon site in the world: iconSvg.co, Visit us! https://iconsvg.co -->
<svg fill="#000000" width="800px" height="800px" version="1.1" viewBox="144 144 512 512" xmlns="http://www.w3.org/2000/svg">
 <g>
  <path d="m339.74 492.71c-4.1758 0-7.5586 3.3789-7.5586 7.5586v15.133c0 4.1758 3.3789 7.5586 7.5586 7.5586 4.1758 0 7.5586-3.3789 7.5586-7.5586v-15.133c0-4.1797-3.3867-7.5586-7.5586-7.5586z"/>
  <path d="m339.74 437.21c-4.1758 0-7.5586 3.3789-7.5586 7.5586v15.133c0 4.1758 3.3789 7.5586 7.5586 7.5586 4.1758 0 7.5586-3.3789 7.5586-7.5586v-15.133c0-4.1797-3.3867-7.5586-7.5586-7.5586z"/>
  <path d="m275.49 501.8c-4.1758 0-7.5586 3.3789-7.5586 7.5586v12.656c0 4.1758 3.3789 7.5586 7.5586 7.5586 4.1758 0 7.5586-3.3789 7.5586-7.5586v-12.656c-0.003906-4.1797-3.3867-7.5586-7.5586-7.5586z"/>
  <path d="m534.95 394.18v-113.48l1.4297 1.1484c3.4219 2.7422 7.7227 4.2539 12.195 4.2539 10.672 0 19.355-8.6875 19.355-19.355 0-0.80078-0.046876-1.5859-0.14063-2.3633l-0.96094-41.953c-0.125-5.7383-2.7695-11.082-7.2461-14.664-4.3984-3.5273-10.242-4.9766-15.887-3.8828l-43.047 8.5664c-7.3516 1.4648-13.246 7.1133-15.02 14.391-1.7773 7.2812 0.84766 15.008 6.6953 19.695l5.5977 4.4883-110.21 131.18-40.043-21.93c-8.2891-4.5273-19.109-2.9844-25.797 3.7031l-118.35 118.75c-4.1016 4.1016-6.3633 9.5508-6.3633 15.355 0 5.4453 2.0547 10.543 5.6992 14.547v50.688c0 4.1758 2.2656 7.5586 5.0625 7.5586h215.56c0.52734 0 1.0312-0.15625 1.5156-0.38281 19.672 21.098 47.613 34.395 78.676 34.395 59.379 0 107.69-48.305 107.69-107.69 0.011719-48.5-32.234-89.586-76.402-103.02zm-65.5-17.75c-4.1758 0-7.5586 3.3789-7.5586 7.5586v12.418c0 0.51562 0.054687 1.0117 0.15234 1.4922-27.875 11.73-49.711 34.91-59.836 63.574-0.74219-0.24219-1.5156-0.40625-2.3359-0.40625-4.1758 0-7.5586 3.3789-7.5586 7.5586v12.656c0 2.9375 1.6914 5.457 4.1406 6.707-0.26172 3.043-0.46875 6.1055-0.46875 9.2188 0 3.7383 0.19531 7.4297 0.57031 11.07-2.5039 1.2344-4.2422 3.7852-4.2422 6.7617v7.5586c0 4.1758 3.3789 7.5586 7.5586 7.5586 0.43359 0 0.85547-0.054687 1.2695-0.125 2.9492 9.1836 7.125 17.809 12.281 25.746l-66.121-0.011719c0-4.1758-3.3789-7.5586-7.5586-7.5586-4.1758 0-7.5586 3.3789-7.5586 7.5586h-49.141c0-4.1758-3.3789-7.5586-7.5586-7.5586-4.1758 0-7.5586 3.3789-7.5586 7.5586h-49.953v-36.051c0.30078 0.011719 0.59375 0.089844 0.90234 0.089844 5.8008 0 11.254-2.2578 15.367-6.375l34.457-34.578c1.2188 2.5391 3.7891 4.3008 6.7969 4.3008 4.1758 0 7.5586-3.3789 7.5586-7.5586v-7.5586c0-1.0586-0.22266-2.0664-0.61328-2.9766l53.812-54.004c1.0469 0.55469 2.2266 0.89844 3.4961 0.89844 2.5234 0 4.7422-1.25 6.1172-3.1484l36.598 20.047c3.0234 1.6523 6.418 2.5352 9.8555 2.625v3.3867c0 4.1758 3.3789 7.5586 7.5586 7.5586 4.1758 0 7.5586-3.3789 7.5586-7.5586v-7.5586c0-0.48438-0.054688-0.95312-0.14062-1.4141 0.76172-0.68359 1.5586-1.3281 2.2227-2.125l55.898-66.531c1.168 0.74609 2.5547 1.1953 4.0469 1.1953 4.1758 0 7.5586-3.3789 7.5586-7.5586v-7.4453l42.828-50.977v98.402c-5.2852-0.80078-10.656-1.3516-16.164-1.3516-9.2188 0-18.121 1.2891-26.668 3.4766v-9.0039c-0.015625-4.1562-3.3984-7.543-7.5703-7.543zm-255.23 116.98 118.35-118.75c1.25-1.25 2.9062-1.9336 4.6719-1.9336 1.1016 0 2.2031 0.28125 3.1641 0.8125l45.469 24.902c3.1484 1.7266 7.0977 0.99219 9.418-1.7695l119.18-141.85c1.3086-1.5586 1.9336-3.5781 1.7344-5.6016-0.20312-2.0234-1.2109-3.8828-2.7969-5.1523l-11.629-9.3203c-1.2812-1.0273-1.8555-2.7188-1.4648-4.3164 0.39453-1.5938 1.6836-2.832 3.2891-3.1484l43.031-8.5664c1.2461-0.24219 2.5352 0.074219 3.4961 0.85156 0.97656 0.78125 1.5586 1.9492 1.582 3.2148l0.97266 42.379c0.003906 0.32422 0.035156 0.64844 0.085938 0.96875 0.03125 0.20703 0.039062 0.41406 0.039062 0.625 0 2.3359-1.8984 4.2422-4.3281 4.2422-0.96094 0-1.9062-0.32812-2.6562-0.93359l-10.328-8.2773c-3.2031-2.5703-7.875-2.1055-10.508 1.0391l-4.3633 5.1875c-0.23828 0.21094-0.42188 0.42969-0.55469 0.66016l-122.14 145.38c-1.9688 2.332-5.543 3.0078-8.2227 1.5469l-46.336-25.383c-0.058594-0.035156-0.13281-0.035156-0.19531-0.070312-0.64062-0.32813-1.3242-0.58984-2.0547-0.72656-0.082032-0.015625-0.16016-0.011719-0.24219-0.023437-0.37109-0.054688-0.74609-0.10938-1.1328-0.10938-0.28125 0-0.55078 0.050782-0.82031 0.085938-0.13672 0.015625-0.26562 0.015625-0.39844 0.039062-0.70703 0.11719-1.375 0.32422-2 0.625-0.10938 0.054688-0.21484 0.11719-0.32812 0.17578-0.66016 0.35156-1.2812 0.77734-1.8047 1.3008l-110.86 111.24c-2.4883 2.4883-6.832 2.5039-9.3359 0-1.25-1.2461-1.9336-2.9023-1.9336-4.6641 0-1.7617 0.69141-3.4141 1.9492-4.6758zm289.45 96.363c-51.047 0-92.574-41.527-92.574-92.574s41.527-92.57 92.574-92.57 92.574 41.527 92.574 92.574-41.531 92.57-92.574 92.57z"/>
  <path d="m466.01 471.61c6.9375 0 12.582 5.6445 12.582 12.582 0 4.1758 3.3789 7.5586 7.5586 7.5586 4.1758 0 7.5586-3.3789 7.5586-7.5586 0-15.27-12.426-27.695-27.695-27.695s-27.695 12.426-27.695 27.695c0 4.1758 3.3789 7.5586 7.5586 7.5586 4.1758 0 7.5586-3.3789 7.5586-7.5586-0.007813-6.9414 5.6406-12.582 12.574-12.582z"/>
  <path d="m541.97 456.49c-15.27 0-27.695 12.426-27.695 27.695 0 4.1758 3.3789 7.5586 7.5586 7.5586 4.1758 0 7.5586-3.3789 7.5586-7.5586 0-6.9336 5.6445-12.582 12.582-12.582 6.9336 0 12.582 5.6445 12.582 12.582 0 4.1758 3.3789 7.5586 7.5586 7.5586 4.1758 0 7.5586-3.3789 7.5586-7.5586-0.007812-15.273-12.434-27.695-27.703-27.695z"/>
  <path d="m546.11 519.16c-3.8906-1.5273-8.2734 0.38672-9.793 4.2773-5.3047 13.516-18.121 22.254-32.648 22.254h-0.003907c-14.117 0-26.793-8.4023-32.301-21.41-1.6289-3.8477-6.0664-5.6367-9.9062-4.0156-3.8438 1.6289-5.6445 6.0625-4.0156 9.9062 7.875 18.617 26.016 30.641 46.215 30.641h0.003906c20.789 0 39.125-12.5 46.719-31.848 1.5352-3.8945-0.38281-8.2773-4.2695-9.8047z"/>
 </g>
</svg>