<?xml version="1.0" encoding="UTF-8"?>
<!-- The Best Svg Icon site in the world: iconSvg.co, Visit us! https://iconsvg.co -->
<svg fill="#000000" width="800px" height="800px" version="1.1" viewBox="144 144 512 512" xmlns="http://www.w3.org/2000/svg">
 <g>
  <path d="m502.34 305.54h-7.875v-133.82c0.003906-2.9609-1.6602-5.6719-4.2969-7.0156-2.6367-1.3438-5.8086-1.0938-8.2031 0.64453l-17.012 12.383-17.004-12.383c-2.7578-2.0078-6.5039-2.0078-9.2656 0l-16.984 12.375-16.973-12.375c-2.7617-2.0078-6.5039-2.0078-9.2656 0l-17.043 12.383-16.988-12.383c-2.7617-2.0039-6.4961-2.0039-9.2578 0l-17.082 12.391-17.059-12.398c-2.3945-1.7344-5.5625-1.9805-8.1992-0.63672s-4.2969 4.0547-4.293 7.0156v133.82h-7.8711c-6.2656 0-12.273 2.4883-16.699 6.918-4.4297 4.4258-6.918 10.434-6.918 16.695v283.39c0 6.2617 2.4883 12.27 6.918 16.699 4.4258 4.4297 10.434 6.918 16.699 6.918h204.67c6.2617 0 12.27-2.4883 16.699-6.918 4.4258-4.4297 6.9141-10.438 6.9141-16.699v-283.39c0-6.2617-2.4883-12.27-6.9141-16.695-4.4297-4.4297-10.438-6.918-16.699-6.918zm-181.06-118.38 9.1875 6.6758c2.7578 2 6.4922 2 9.25 0l17.051-12.391 17.02 12.383c2.7617 2.0078 6.5039 2.0078 9.2656 0l17.012-12.383 17.004 12.383c2.7617 2.0078 6.5039 2.0078 9.2656 0l16.961-12.375 17.004 12.375c2.7617 2.0039 6.5 2.0039 9.2578 0l9.1641-6.6523v118.36h-157.44zm188.93 425.39c0 2.0898-0.82812 4.0898-2.3047 5.5664-1.4766 1.4766-3.4805 2.3047-5.5664 2.3047h-204.67c-4.3477 0-7.875-3.5234-7.875-7.8711v-283.39c0-4.3477 3.5273-7.8711 7.875-7.8711h204.67c2.0859 0 4.0898 0.83203 5.5664 2.3047 1.4766 1.4766 2.3047 3.4805 2.3047 5.5664z"/>
  <path d="m400 384.25c2.0859 0 4.0898 0.82812 5.5664 2.3047 1.4766 1.4766 2.3047 3.4805 2.3047 5.5664h15.742c-0.019531-4.8672-1.543-9.6055-4.3594-13.574-2.8203-3.9688-6.793-6.9688-11.383-8.5938v-9.3203h-15.746v9.3203c-7.0547 2.4883-12.508 8.1719-14.699 15.324-2.1914 7.1523-0.85547 14.918 3.5977 20.93 4.4531 6.0078 11.496 9.5469 18.977 9.5312 3.1836 0 6.0547 1.918 7.2695 4.8594 1.2188 2.9414 0.54688 6.3281-1.7031 8.5781-2.2539 2.2539-5.6406 2.9258-8.582 1.707s-4.8594-4.0898-4.8594-7.2734h-15.742c0.019532 4.8672 1.543 9.6094 4.3633 13.578 2.8164 3.9688 6.793 6.9688 11.379 8.5898v9.3203h15.742l0.003906-9.3203c7.0547-2.4844 12.512-8.1719 14.699-15.32 2.1914-7.1523 0.85547-14.922-3.5977-20.93s-11.496-9.5469-18.973-9.5312c-4.3477 0-7.875-3.5273-7.875-7.875s3.5273-7.8711 7.875-7.8711z"/>
  <path d="m478.72 337.02h-157.44c-4.1758 0-8.1797 1.6562-11.133 4.6094-2.9531 2.9531-4.6094 6.957-4.6094 11.133v110.21c0 4.1719 1.6562 8.1797 4.6094 11.133 2.9531 2.9492 6.957 4.6094 11.133 4.6094h157.44c4.1758 0 8.1797-1.6602 11.133-4.6094 2.9531-2.9531 4.6094-6.9609 4.6094-11.133v-110.21c0-4.1758-1.6562-8.1797-4.6094-11.133-2.9531-2.9531-6.957-4.6094-11.133-4.6094zm-157.44 125.95v-110.21h157.44v110.21z"/>
  <path d="m486.59 494.46h-173.18c-4.3477 0-7.8711 3.5273-7.8711 7.875v94.465c0 2.0859 0.82812 4.0898 2.3047 5.5664 1.4766 1.4727 3.4805 2.3047 5.5664 2.3047h173.18c2.0898 0 4.0898-0.83203 5.5664-2.3047 1.4766-1.4766 2.3047-3.4805 2.3047-5.5664v-94.465c0-2.0898-0.82813-4.0898-2.3047-5.5664-1.4766-1.4766-3.4766-2.3086-5.5664-2.3086zm-70.848 94.465h-39.359v-31.488h39.359zm0-47.23h-39.359v-31.488h39.359zm-55.105-31.488v31.488h-39.359v-31.488zm-39.359 47.23h39.359v31.488h-39.359zm157.44 31.488h-47.23v-78.719h47.23z"/>
  <path d="m352.77 211.07h31.488v15.742h-31.488z"/>
  <path d="m400 211.07h47.23v15.742h-47.23z"/>
  <path d="m352.77 242.56h31.488v15.742h-31.488z"/>
  <path d="m400 242.56h47.23v15.742h-47.23z"/>
  <path d="m352.77 274.05h31.488v15.742h-31.488z"/>
  <path d="m400 274.05h47.23v15.742h-47.23z"/>
 </g>
</svg>