<?xml version="1.0" encoding="UTF-8"?>
<!-- The Best Svg Icon site in the world: iconSvg.co, Visit us! https://iconsvg.co -->
<svg fill="#000000" width="800px" height="800px" version="1.1" viewBox="144 144 512 512" xmlns="http://www.w3.org/2000/svg">
 <g>
  <path d="m452.82 238.15c-16.953 0-33.211 6.7344-45.199 18.723-11.988 11.988-18.723 28.246-18.723 45.199 0 16.953 6.7344 33.211 18.723 45.199 11.988 11.988 28.246 18.723 45.199 18.723 16.953 0 33.211-6.7344 45.199-18.723s18.723-28.246 18.723-45.199c0-16.953-6.7344-33.211-18.723-45.199-11.988-11.988-28.246-18.723-45.199-18.723zm0 112.41c-12.887 0-25.246-5.1211-34.355-14.234-9.1094-9.1172-14.223-21.477-14.215-34.363 0.007812-12.887 5.1328-25.242 14.254-34.344 9.1172-9.1055 21.48-14.215 34.367-14.199 12.887 0.011719 25.238 5.1484 34.34 14.273 9.0977 9.1211 14.199 21.488 14.18 34.375-0.019531 12.867-5.1484 25.203-14.254 34.293-9.1055 9.0938-21.449 14.199-34.316 14.199z"/>
  <path d="m453.37 294.43h-0.62891c-2.6758 0-4.6445-1.4961-4.6445-2.9141s1.9688-2.9922 4.6445-2.9922v0.003906c2.6523-0.003906 5.2383 0.82422 7.3984 2.3594 3.1602 2.6523 7.832 2.4102 10.707-0.55078 2.8984-3.0391 2.8984-7.8203 0-10.863-3.0039-2.6211-6.5977-4.4844-10.473-5.4297v-2.9141c0-4.3477-3.5234-7.8711-7.8711-7.8711s-7.8711 3.5234-7.8711 7.8711v3.2266c-3.5273 1.2344-6.5938 3.5195-8.7891 6.543-2.1953 3.0234-3.4141 6.6484-3.4922 10.383 0.22656 5.0039 2.4062 9.7227 6.0703 13.137s8.5234 5.2539 13.531 5.1289h0.62891c2.5977 0 4.5664 1.5742 4.5664 2.9922s-1.9688 2.9141-4.5664 2.9141v-0.003906c-2.6602 0.0625-5.2656-0.76953-7.3984-2.3633-3.1523-2.7188-7.8789-2.5117-10.785 0.47266-2.8984 3.043-2.8984 7.8242 0 10.863 2.9219 2.5078 6.3633 4.3359 10.078 5.3555v2.832c0 4.3477 3.5234 7.8711 7.8711 7.8711s7.8711-3.5234 7.8711-7.8711v-3.1484c3.5117-1.2617 6.5586-3.5508 8.75-6.5703 2.1875-3.0195 3.418-6.625 3.5312-10.355-0.28125-4.8867-2.418-9.4805-5.9727-12.848-3.5547-3.3633-8.2617-5.2461-13.156-5.2578z"/>
  <path d="m634.59 614.91h-27.473v-233.88c0-2.0898-0.83203-4.0898-2.3086-5.5664-1.4766-1.4766-3.4766-2.3047-5.5664-2.3047-4.3477 0-7.8711 3.5234-7.8711 7.8711v233.88h-27.629v-199.95c0.53125-2.3359-0.03125-4.7891-1.5234-6.6602-1.4922-1.8711-3.7578-2.9609-6.1523-2.9609s-4.6602 1.0898-6.1562 2.9609c-1.4922 1.8711-2.0508 4.3242-1.5195 6.6602v199.95h-25.035v-171.06c0-2.0859-0.82812-4.0898-2.3047-5.5625-1.4766-1.4766-3.4766-2.3086-5.5664-2.3086-4.3477 0-7.8711 3.5273-7.8711 7.8711v171.06l-27.551 0.003906v-136.19c0-4.3477-3.5273-7.8711-7.875-7.8711s-7.8711 3.5234-7.8711 7.8711v136.19h-24.953v-136.66c0-2.0859-0.83203-4.0898-2.3047-5.5664-1.4766-1.4766-3.4805-2.3047-5.5664-2.3047-4.3477 0-7.875 3.5234-7.875 7.8711v136.66h-27.316v-161.69c0-4.3477-3.5234-7.875-7.8711-7.875-4.3477 0-7.8711 3.5273-7.8711 7.875v161.69h-24.719v-190.66c0-2.0898-0.82813-4.0938-2.3047-5.5664-1.4766-1.4766-3.4805-2.3086-5.5664-2.3086-4.3477 0-7.8711 3.5273-7.8711 7.875v190.66h-27.555v-172.08c0-4.3477-3.5234-7.875-7.8711-7.875-4.3477 0-7.8711 3.5273-7.8711 7.875v172.08h-24.719v-144.93c0-2.0859-0.82812-4.0898-2.3047-5.5664-1.4766-1.4766-3.4805-2.3047-5.5664-2.3047-4.3477 0-7.8711 3.5234-7.8711 7.8711v144.84h-27.555v-120.36c0.53125-2.332-0.027344-4.7852-1.5195-6.6562-1.4961-1.8711-3.7578-2.9648-6.1562-2.9648-2.3945 0-4.6602 1.0938-6.1523 2.9648-1.4922 1.8711-2.0547 4.3242-1.5234 6.6562v120.45h-40.383v-20.469h9.6836c4.3477 0 7.8711-3.5234 7.8711-7.8711s-3.5234-7.8711-7.8711-7.8711h-9.6836v-31.488h9.6836c4.3477 0 7.8711-3.5273 7.8711-7.875 0-4.3477-3.5234-7.8711-7.8711-7.8711h-9.6836v-31.488h9.6836c4.3477 0 7.8711-3.5234 7.8711-7.8711 0-4.3477-3.5234-7.8711-7.8711-7.8711h-9.6836v-31.488h9.6836c4.3477 0 7.8711-3.5273 7.8711-7.875 0-4.3477-3.5234-7.8711-7.8711-7.8711h-9.6836v-29.125h9.6836c4.3477 0 7.8711-3.5234 7.8711-7.8711s-3.5234-7.875-7.8711-7.875h-9.6836v-31.488h9.6836c4.3477 0 7.8711-3.5234 7.8711-7.8711s-3.5234-7.8711-7.8711-7.8711h-9.6836v-31.488h9.6836c3.582-0.81641 6.1211-4 6.1211-7.6758 0-3.6719-2.5391-6.8594-6.1211-7.6758h-9.6836v-31.488h9.6836c3.582-0.81641 6.1211-4 6.1211-7.6758 0-3.6719-2.5391-6.8555-6.1211-7.6719h-9.6836v-31.488h9.6836c3.582-0.81641 6.1211-4.0039 6.1211-7.6758 0-3.6758-2.5391-6.8594-6.1211-7.6758h-9.6836v-26.922c0.53516-2.3359-0.027344-4.7852-1.5195-6.6602-1.4961-1.8711-3.7578-2.9609-6.1562-2.9609-2.3945 0-4.6602 1.0898-6.1523 2.9609-1.4922 1.875-2.0547 4.3242-1.5195 6.6602v445.08c0 2.0898 0.82812 4.0898 2.3047 5.5664 1.4766 1.4766 3.4766 2.3086 5.5664 2.3086h469.02c4.3477 0 7.8711-3.5273 7.8711-7.875 0-4.3477-3.5234-7.8711-7.8711-7.8711z"/>
  <path d="m377.8 386.54c-3.3906-1.6602-7.4844-0.67578-9.75 2.3398-2.2695 3.0195-2.0742 7.2227 0.46094 10.016l54.473 40.465c1.3242 1.0352 2.9609 1.5938 4.6445 1.5742 3.1992-0.21484 5.9453-2.3477 6.9492-5.3906 1-3.043 0.058594-6.3906-2.3828-8.4648z"/>
  <path d="m318.13 385.52-101.39 70.297c-3.4141 2.4648-4.2812 7.1836-1.9688 10.703 1.4531 2.043 3.793 3.2695 6.2969 3.3086 1.5781-0.019531 3.1133-0.51562 4.4102-1.418l101.39-70.219c2.1953-0.91016 3.8633-2.7617 4.5391-5.043 0.67578-2.2773 0.28125-4.7422-1.0664-6.6992-1.3516-1.957-3.5117-3.1992-5.8828-3.3789-2.3711-0.18359-4.6953 0.71875-6.3281 2.4492z"/>
  <path d="m637.26 316.71c-0.089844-2.7539-1.6133-5.2617-4.0156-6.6094l-17.633-7.8711v-0.003907c-3.6211-0.70703-7.25 1.1992-8.7227 4.582-1.4766 3.3828-0.40234 7.3398 2.582 9.5117l5.4336 2.4414-141.78 108c-2.3984 2.1055-3.2891 5.4531-2.2539 8.4727s3.793 5.1172 6.9766 5.3047c1.6758-0.015624 3.3047-0.56641 4.6445-1.5742l139.49-106.98v4.0938c0 2.0859 0.83203 4.0898 2.3086 5.5664 1.4766 1.4766 3.4766 2.3047 5.5664 2.3047 2.0859 0 4.0898-0.82812 5.5664-2.3047 1.4727-1.4766 2.3047-3.4805 2.3047-5.5664z"/>
  <path d="m452.82 443.21c-3.1836 0-6.0547 1.918-7.2734 4.8594-1.2188 2.9414-0.54297 6.3281 1.707 8.582 2.25 2.25 5.6367 2.9219 8.5781 1.7031 2.9414-1.2188 4.8594-4.0859 4.8594-7.2695 0-2.0898-0.82812-4.0938-2.3047-5.5664-1.4766-1.4766-3.4805-2.3086-5.5664-2.3086z"/>
  <path d="m348.2 367.02c-3.1836 0-6.0547 1.918-7.2695 4.8594-1.2188 2.9414-0.54688 6.3281 1.7031 8.5781 2.2539 2.25 5.6406 2.9258 8.582 1.707s4.8594-4.0898 4.8594-7.2734c0-2.0859-0.83203-4.0898-2.3086-5.5664-1.4766-1.4766-3.4766-2.3047-5.5664-2.3047z"/>
 </g>
</svg>