<?xml version="1.0" encoding="UTF-8"?>
<!-- The Best Svg Icon site in the world: iconSvg.co, Visit us! https://iconsvg.co -->
<svg fill="#000000" width="800px" height="800px" version="1.1" viewBox="144 144 512 512" xmlns="http://www.w3.org/2000/svg">
 <path d="m270.23 373.64 146.8 46.238c0.5 0.15625 1.0078 0.23047 1.5156 0.23047 0.52734 0 1.0547-0.10547 1.5664-0.27734 0.050781-0.015625 0.10547-0.003906 0.15625-0.023437l82.117-29.875c2.5938-0.94531 3.9453-3.7969 3.0312-6.4023l-16.957-48.402c-0.20312-0.57812-0.52344-1.0938-0.92188-1.5625-0.12109-0.14453-0.27344-0.26172-0.40625-0.39453-0.29297-0.27734-0.59766-0.52344-0.95312-0.72656-0.1875-0.10547-0.37109-0.19141-0.57422-0.27734-0.16797-0.070313-0.3125-0.17969-0.48828-0.23047l-136.21-39.73c-0.96875-0.28125-2-0.27734-2.9609 0.046875l-55.449 17.941c-0.13281 0.039063-0.23047 0.13281-0.35938 0.1875-0.23828 0.10156-0.45312 0.21094-0.67578 0.34375-0.29297 0.17578-0.55078 0.37891-0.78906 0.60547-0.17578 0.16016-0.33594 0.3125-0.49219 0.5-0.26172 0.31641-0.45703 0.66406-0.62891 1.0391-0.066407 0.125-0.16797 0.22266-0.21484 0.35156l-20.277 53.836c-0.48828 1.293-0.42188 2.7344 0.17969 3.9805 0.59766 1.2383 1.6836 2.1875 3 2.6016zm154.64 33.77 3.4375-21.383 4.4141-27.457 23.52-7.6094 24.324-7.8711 13.695 39.07zm-77.316-105.09 119 34.707-5.1641 1.6719-33.23 10.746-91.895-26.801-27.094-7.8984zm-52.457 18.816 127.46 37.172-8.0664 50.199-136.15-42.883zm159.88 101.85c-0.90234-2.5781-3.7148-3.9688-6.3008-3.1289l-53.977 17.461-119-34.707 17.875-5.7773c2.6445-0.85547 4.0977-3.6992 3.2461-6.3438-0.85156-2.6445-3.6797-4.0977-6.3438-3.2461l-33.469 10.82c-0.10938 0.035156-0.1875 0.12109-0.29688 0.16797-0.35938 0.14062-0.67578 0.33594-0.99219 0.55859-0.22266 0.15234-0.4375 0.29297-0.625 0.47266-0.24609 0.23828-0.43359 0.51562-0.62891 0.80078-0.17188 0.25-0.34375 0.49219-0.46875 0.76953-0.046875 0.089843-0.11719 0.15625-0.15234 0.24609l-20.277 53.844c-0.48828 1.293-0.42188 2.7344 0.17969 3.9805 0.60547 1.2461 1.6992 2.1875 3.0195 2.6016l146.8 46.238c0.5 0.15625 1.0078 0.23047 1.5156 0.23047 0.52734 0 1.0547-0.10547 1.5664-0.27734 0.050782-0.015625 0.10547-0.003907 0.15625-0.023438l82.105-29.883c2.5938-0.94531 3.9453-3.7969 3.0312-6.4023zm-193.35-13.98 127.47 37.176-8.0664 50.199-136.16-42.887zm129.79 86.266 3.4375-21.383 4.4141-27.457 47.832-15.477 13.695 39.07zm175.05-58.059-16.965-48.406c-0.90234-2.5781-3.7031-3.9766-6.3008-3.1289l-55.461 17.941c-1.7969 0.58594-3.125 2.125-3.4258 3.9961l-9.6836 60.344c-0.28906 1.7617 0.38672 3.5469 1.7695 4.6797 0.91797 0.75391 2.0547 1.1523 3.2109 1.1523 0.57812 0 1.1602-0.10156 1.7227-0.30078l82.105-29.883c2.5859-0.9375 3.9414-3.7891 3.0273-6.3945zm-80.523 23.879 7.8398-48.84 47.84-15.477 13.695 39.07z"/>
</svg>