<?xml version="1.0" encoding="UTF-8"?>
<!-- The Best Svg Icon site in the world: iconSvg.co, Visit us! https://iconsvg.co -->
<svg fill="#000000" width="800px" height="800px" version="1.1" viewBox="144 144 512 512" xmlns="http://www.w3.org/2000/svg">
 <g>
  <path d="m632.58 212.51 0.078125-0.11719-70.848-47.23v-0.003906c-2.6445-1.7656-6.0938-1.7656-8.7383 0l-70.848 47.23 0.078125 0.11719v0.003907c-2.2031 1.3984-3.5508 3.8203-3.582 6.4297v78.723c0 2.0859 0.82812 4.0898 2.3047 5.5664 1.4766 1.4727 3.4805 2.3047 5.5664 2.3047h141.7c2.0859 0 4.0898-0.83203 5.5664-2.3047 1.4727-1.4766 2.3047-3.4805 2.3047-5.5664v-78.723c-0.03125-2.6094-1.3789-5.0312-3.582-6.4297zm-12.164 77.277h-15.742v-39.359c0-2.0859-0.83203-4.0898-2.3047-5.5664-1.4766-1.4766-3.4805-2.3047-5.5664-2.3047h-78.723c-4.3477 0-7.8711 3.5234-7.8711 7.8711v39.359h-15.746v-62.977h125.95z"/>
  <path d="m510.21 400h-78.719c-4.3477 0-7.875 3.5234-7.875 7.8711v55.105h-70.848c-4.3477 0-7.8711 3.5234-7.8711 7.8711v62.977h-15.746c-1.7852-0.003907-3.5234 0.60547-4.918 1.7227l-39.359 31.488c-1.8672 1.4961-2.9531 3.7578-2.9531 6.1484v55.105c0 2.0859 0.82812 4.0898 2.3047 5.5664 1.4766 1.4727 3.4805 2.3047 5.5664 2.3047h220.42c2.0859 0 4.0898-0.83203 5.5664-2.3047 1.4766-1.4766 2.3047-3.4805 2.3047-5.5664v-220.42c0-2.0898-0.82812-4.0898-2.3047-5.5664-1.4766-1.4766-3.4805-2.3047-5.5664-2.3047zm-181.06 151.77 16.918 13.543h-33.852zm31.488 68.645h-62.973v-39.359h62.977zm62.977-86.594-62.977 0.003907v-55.105h62.977zm78.723 86.594h-23.617v-47.23c0.007812-2.3867-1.0664-4.6484-2.9219-6.1484l-36.438-29.125v-122.17h62.977z"/>
  <path d="m455.1 462.98c2.0898 0 4.0898-0.83203 5.5664-2.3086 1.4766-1.4766 2.3086-3.4766 2.3086-5.5664v-15.742c0-4.3477-3.5273-7.8711-7.875-7.8711-4.3477 0-7.8711 3.5234-7.8711 7.8711v15.742c0 2.0898 0.82812 4.0898 2.3047 5.5664 1.4766 1.4766 3.4805 2.3086 5.5664 2.3086z"/>
  <path d="m486.59 462.98c2.0898 0 4.0898-0.83203 5.5664-2.3086 1.4766-1.4766 2.3047-3.4766 2.3047-5.5664v-15.742c0-4.3477-3.5234-7.8711-7.8711-7.8711s-7.8711 3.5234-7.8711 7.8711v15.742c0 2.0898 0.82812 4.0898 2.3047 5.5664 1.4766 1.4766 3.4805 2.3086 5.5664 2.3086z"/>
  <path d="m455.1 510.21c2.0898 0 4.0898-0.82812 5.5664-2.3047 1.4766-1.4766 2.3086-3.4805 2.3086-5.5664v-15.746c0-4.3477-3.5273-7.8711-7.875-7.8711-4.3477 0-7.8711 3.5234-7.8711 7.8711v15.746c0 2.0859 0.82812 4.0898 2.3047 5.5664 1.4766 1.4766 3.4805 2.3047 5.5664 2.3047z"/>
  <path d="m486.59 510.21c2.0898 0 4.0898-0.82812 5.5664-2.3047 1.4766-1.4766 2.3047-3.4805 2.3047-5.5664v-15.746c0-4.3477-3.5234-7.8711-7.8711-7.8711s-7.8711 3.5234-7.8711 7.8711v15.746c0 2.0859 0.82812 4.0898 2.3047 5.5664 1.4766 1.4766 3.4805 2.3047 5.5664 2.3047z"/>
  <path d="m376.38 518.08c2.0859 0 4.0898-0.82812 5.5664-2.3047 1.4766-1.4766 2.3047-3.4805 2.3047-5.5664v-15.746c0-4.3477-3.5234-7.8711-7.8711-7.8711-4.3477 0-7.8711 3.5234-7.8711 7.8711v15.746c0 2.0859 0.82812 4.0898 2.3047 5.5664 1.4766 1.4766 3.4766 2.3047 5.5664 2.3047z"/>
  <path d="m407.87 518.08c2.0859 0 4.0898-0.82812 5.5664-2.3047 1.4766-1.4766 2.3047-3.4805 2.3047-5.5664v-15.746c0-4.3477-3.5234-7.8711-7.8711-7.8711s-7.8711 3.5234-7.8711 7.8711v15.746c0 2.0859 0.82812 4.0898 2.3047 5.5664 1.4766 1.4766 3.4766 2.3047 5.5664 2.3047z"/>
  <path d="m313.41 276.9c-0.71484-22.074-12.395-42.34-31.141-54.023 9.0859-7.6562 14.516-18.789 14.957-30.664 0.16406-4.4414-1.168-8.8086-3.7812-12.402-2.6172-3.5938-6.3633-6.2031-10.641-7.4102-5.6562-1.5625-11.715-0.44922-16.445 3.0234-3.5352-2.2578-7.6445-3.4609-11.84-3.4609s-8.3047 1.2031-11.84 3.4609c-4.7344-3.4727-10.793-4.5859-16.453-3.0234-4.2695 1.207-8.0078 3.8125-10.621 7.3984-2.6133 3.5859-3.9492 7.9414-3.793 12.375 0.72266 11.828 6.4219 22.793 15.684 30.184-19.16 11.617-31.148 32.129-31.867 54.52 0 34.785 22.043 55.555 58.891 55.555s58.891-20.742 58.891-55.531zm-58.891 31.938c-8.3516 0-16.359-3.3164-22.266-9.2227s-9.2227-13.914-9.2227-22.266c0-4.3477 3.5234-7.8711 7.8711-7.8711 4.3477 0 7.875 3.5234 7.875 7.8711 0 4.1758 1.6562 8.1797 4.6094 11.133 2.9531 2.9531 6.957 4.6133 11.133 4.6133 4.3477 0 7.8711 3.5234 7.8711 7.8711s-3.5234 7.8711-7.8711 7.8711z"/>
  <path d="m400 218.94c-4.3477 0-7.875 3.5234-7.875 7.8711v15.742l-15.742 0.003906c-4.3477 0-7.8711 3.5234-7.8711 7.8711 0 4.3477 3.5234 7.8711 7.8711 7.8711h15.742v15.746c0 4.3477 3.5273 7.8711 7.875 7.8711s7.8711-3.5234 7.8711-7.8711v-15.746h15.742c4.3477 0 7.875-3.5234 7.875-7.8711 0-4.3477-3.5273-7.8711-7.875-7.8711h-15.742v-15.746c0-2.0859-0.82812-4.0898-2.3047-5.5664-1.4766-1.4766-3.4805-2.3047-5.5664-2.3047z"/>
  <path d="m368.51 337.02h-15.746c-3.1836 0-6.0508 1.918-7.2695 4.8594-1.2188 2.9414-0.54688 6.3242 1.7031 8.5781l47.23 47.23h0.003906c3.0742 3.0742 8.0547 3.0742 11.129 0l47.23-47.23h0.003906c2.25-2.2539 2.9219-5.6367 1.7031-8.5781-1.2148-2.9414-4.0859-4.8594-7.2695-4.8594h-15.742v-31.488c0-2.0898-0.83203-4.0898-2.3086-5.5664-1.4766-1.4766-3.4766-2.3047-5.5664-2.3047h-47.23c-4.3477 0-7.8711 3.5234-7.8711 7.8711z"/>
 </g>
</svg>