<?xml version="1.0" encoding="UTF-8"?>
<!-- The Best Svg Icon site in the world: iconSvg.co, Visit us! https://iconsvg.co -->
<svg width="800px" height="800px" version="1.1" viewBox="144 144 512 512" xmlns="http://www.w3.org/2000/svg">
 <defs>
  <clipPath id="c">
   <path d="m400 400h251.9v251.9h-251.9z"/>
  </clipPath>
  <clipPath id="b">
   <path d="m148.09 321h409.91v221h-409.91z"/>
  </clipPath>
  <clipPath id="a">
   <path d="m148.09 226h409.91v127h-409.91z"/>
  </clipPath>
 </defs>
 <g clip-path="url(#c)">
  <path d="m525.95 651.9c-33.402 0-65.441-13.27-89.059-36.891-23.621-23.621-36.891-55.656-36.891-89.062 0-33.402 13.27-65.441 36.891-89.059 23.617-23.621 55.656-36.891 89.059-36.891 33.406 0 65.441 13.27 89.062 36.891 23.621 23.617 36.891 55.656 36.891 89.059-0.039063 33.395-13.32 65.41-36.934 89.02-23.609 23.613-55.625 36.895-89.02 36.934zm0-220.42v0.003906c-25.051 0-49.078 9.9492-66.793 27.668-17.719 17.715-27.668 41.742-27.668 66.793 0 25.055 9.9492 49.082 27.668 66.797 17.715 17.715 41.742 27.668 66.793 27.668 25.055 0 49.082-9.9531 66.797-27.668s27.668-41.742 27.668-66.797c-0.027343-25.043-9.9883-49.055-27.695-66.766-17.711-17.707-41.723-27.668-66.77-27.695z"/>
 </g>
 <path d="m533.82 588.93h-39.363c-5.6211 0-10.82-3-13.633-7.8711-2.8125-4.8711-2.8125-10.871 0-15.742s8.0117-7.875 13.633-7.875h39.363c4.3477 0 7.8711-3.5234 7.8711-7.8711s-3.5234-7.8711-7.8711-7.8711h-15.746c-14.062 0-27.055-7.5039-34.086-19.68-7.0312-12.18-7.0312-27.184 0-39.359 7.0312-12.18 20.023-19.68 34.086-19.68h39.359c5.625 0 10.824 3 13.637 7.8711s2.8125 10.871 0 15.742-8.0117 7.8711-13.637 7.8711h-39.359c-4.3477 0-7.8711 3.5273-7.8711 7.875 0 4.3477 3.5234 7.8711 7.8711 7.8711h15.746c14.062 0 27.055 7.5 34.086 19.68 7.0312 12.18 7.0312 27.184 0 39.359-7.0312 12.18-20.023 19.68-34.086 19.68z"/>
 <path d="m525.95 494.46c-4.1758 0-8.1797-1.6562-11.133-4.6094-2.9492-2.9531-4.6094-6.957-4.6094-11.133v-15.742c0-5.625 3-10.824 7.8711-13.637s10.875-2.8125 15.746 0c4.8711 2.8125 7.8711 8.0117 7.8711 13.637v15.742c0 4.1758-1.6602 8.1797-4.6133 11.133-2.9492 2.9531-6.957 4.6094-11.133 4.6094z"/>
 <path d="m525.95 604.67c-4.1758 0-8.1797-1.6602-11.133-4.6133-2.9492-2.9531-4.6094-6.957-4.6094-11.133v-15.742c0-5.625 3-10.824 7.8711-13.637s10.875-2.8125 15.746 0c4.8711 2.8125 7.8711 8.0117 7.8711 13.637v15.742c0 4.1758-1.6602 8.1797-4.6133 11.133-2.9492 2.9531-6.957 4.6133-11.133 4.6133z"/>
 <g clip-path="url(#b)">
  <path d="m415.74 541.7h-220.42c-12.52-0.015624-24.527-4.9961-33.383-13.848-8.8516-8.8555-13.832-20.863-13.848-33.387v-157.44c0-4.1758 1.6602-8.1797 4.6094-11.133 2.9531-2.9531 6.9609-4.6133 11.133-4.6133h377.86c4.1758 0 8.1797 1.6602 11.133 4.6133s4.6094 6.957 4.6094 11.133v79.98c0 5.6211-3 10.82-7.8711 13.633s-10.871 2.8125-15.742 0c-4.8711-2.8125-7.875-8.0117-7.875-13.633v-64.238h-346.37v141.7c0.003907 4.1758 1.6602 8.1797 4.6133 11.133 2.9531 2.9492 6.957 4.6094 11.129 4.6133h220.42c5.625 0 10.824 3 13.637 7.8711s2.8125 10.875 0 15.746c-2.8125 4.8711-8.0117 7.8711-13.637 7.8711z"/>
 </g>
 <g clip-path="url(#a)">
  <path d="m541.7 352.77h-377.86c-4.1719 0-8.1797-1.6562-11.133-4.6094-2.9492-2.9531-4.6094-6.957-4.6094-11.133v-62.977c0.015625-12.523 4.9961-24.527 13.848-33.383 8.8555-8.8555 20.863-13.836 33.383-13.852h314.88c12.523 0.015625 24.527 4.9961 33.383 13.852 8.8555 8.8555 13.836 20.859 13.848 33.383v62.977c0 4.1758-1.6562 8.1797-4.6094 11.133s-6.957 4.6094-11.133 4.6094zm-362.11-31.488h346.37v-47.23c0-4.1758-1.6602-8.1797-4.6133-11.129-2.9531-2.9531-6.9531-4.6133-11.129-4.6172h-314.88c-4.1719 0.003907-8.1758 1.6641-11.129 4.6172-2.9531 2.9492-4.6094 6.9531-4.6133 11.129z"/>
 </g>
 <path d="m274.05 368.51c-4.1758 0-8.1797-1.6602-11.133-4.6133-2.9531-2.9531-4.6133-6.957-4.6133-11.133v-31.488c0-5.625 3.0039-10.82 7.875-13.633 4.8711-2.8125 10.871-2.8125 15.742 0 4.8711 2.8125 7.8711 8.0078 7.8711 13.633v31.488c0 4.1758-1.6562 8.1797-4.6094 11.133-2.9531 2.9531-6.957 4.6133-11.133 4.6133z"/>
 <path d="m431.49 368.51c-4.1758 0-8.1836-1.6602-11.133-4.6133-2.9531-2.9531-4.6133-6.957-4.6133-11.133v-31.488c0-5.625 3-10.82 7.8711-13.633 4.8711-2.8125 10.875-2.8125 15.746 0s7.8711 8.0078 7.8711 13.633v31.488c0 4.1758-1.6602 8.1797-4.6094 11.133-2.9531 2.9531-6.957 4.6133-11.133 4.6133z"/>
 <path d="m431.49 258.3h-157.44c-4.1758 0-8.1797-1.6562-11.133-4.6094-2.9531-2.9531-4.6133-6.957-4.6133-11.133v-31.488c0.015625-12.523 4.9961-24.527 13.852-33.383 8.8555-8.8555 20.859-13.836 33.383-13.852h94.465c12.52 0.015624 24.527 4.9961 33.383 13.852 8.8516 8.8555 13.836 20.859 13.848 33.383v31.488c0 4.1758-1.6602 8.1797-4.6094 11.133-2.9531 2.9531-6.957 4.6094-11.133 4.6094zm-141.7-31.488h125.95v-15.742c-0.003907-4.1758-1.6602-8.1797-4.6133-11.129-2.9531-2.9531-6.957-4.6133-11.129-4.6172h-94.465c-4.1758 0.003906-8.1797 1.6641-11.133 4.6172-2.9492 2.9492-4.6094 6.9531-4.6133 11.129z"/>
</svg>