<?xml version="1.0" encoding="UTF-8"?>
<!-- The Best Svg Icon site in the world: iconSvg.co, Visit us! https://iconsvg.co -->
<svg fill="#000000" width="800px" height="800px" version="1.1" viewBox="144 144 512 512" xmlns="http://www.w3.org/2000/svg">
 <g>
  <path d="m605.74 416.27-20.621-2.1914c-5.918-10.867-13.914-20.461-23.539-28.234l1.1133-10.035c1.2305-11.074 1.457-14.324 1.0977-16.676-0.67969-5.4102-5.0586-9.1914-10.883-9.2344v-0.003907c-3.1172 0.011719-6.2227 0.40234-9.25 1.1602v-82.691c0.003906-14.5-12.004-25.805-26.508-25.805h-7.9297v-46.5c-0.023437-6.9844-2.8086-13.672-7.7539-18.602-4.9414-4.9336-11.637-7.707-18.617-7.7148h-254.15c-23.102 0-42.613 19.27-42.613 42.066 0 0.6875 0.21094 1.3711 0.24219 2.0508-0.03125 0.24219 0.14062 0.49219 0.14062 0.73828v373.04c-0.050781 11.25 4.3711 22.062 12.289 30.055 7.9219 7.9883 18.691 12.508 29.941 12.559h288.45c6.9961-0.003906 13.711-2.7695 18.676-7.6992 4.9648-4.9297 7.7812-11.621 7.8359-18.617v-50.762c7.4492-0.98047 14.492-3.9727 20.367-8.6602 5.8242-4.7734 9.9883-11.266 11.891-18.551 1.9062-7.2852 1.457-14.984-1.2852-22 4.125-4.9023 7.6953-10.242 10.656-15.926l20.859-2.2109c0.11328-0.019531 0.22656-0.046875 0.33594-0.082031 4.0977-0.78906 7.0547-4.3828 7.0391-8.5547v-52.262c0.09375-4.4883-3.3125-8.2734-7.7852-8.6602zm-377.04-234.72h254.15c3.8516 0.003907 7.543 1.5312 10.273 4.25 2.7266 2.7188 4.2695 6.4062 4.2891 10.258v46.5h-268.71c-8.1484 0.10156-16-3.0664-21.793-8.8008-5.7891-5.7344-9.0391-13.555-9.0156-21.703 0-16.398 14.109-30.504 30.809-30.504zm288.45 436.89h-288.44c-8.125-0.042968-15.902-3.3164-21.609-9.0977-5.7109-5.7812-8.8867-13.598-8.8281-21.723v-346.49c6.8867 7.8906 18.188 13.234 30.422 13.234h288.45c7.9883 0 14.699 6.0078 14.699 14v86.234c-1.9688 0.79688-4.7383 1.7031-7.2539 2.707l0.003906-0.003906c-3.6719-13.621-13.75-24.602-27.012-29.418-13.258-4.8164-28.035-2.8672-39.594 5.2227-11.555 8.0898-18.445 21.305-18.457 35.414 0 1.4961 0.078126 2.9922 0.23438 4.4844-15.516 7.3125-28.922 18.449-38.953 32.363-0.070312 0.0625-0.15625 0.10938-0.22266 0.17969h-0.003906c-5.4844 5.418-13.434 7.5156-20.875 5.5039-7.4453-2.0117-13.258-7.8242-15.27-15.266-2.0117-7.4453 0.085937-15.395 5.5039-20.879 2.3047-2.3047 2.3047-6.043 0-8.3477-2.3047-2.3086-6.043-2.3086-8.3516 0-6.7617 6.7539-10.312 16.082-9.7539 25.625s5.1719 18.391 12.68 24.312c7.5039 5.9219 17.184 8.3477 26.594 6.668-3.2461 7.457-5.2148 15.406-5.832 23.516-0.007812 0.12109-0.050781 0.24609-0.050781 0.36719v3.8711l0.003907 0.003906c0.070312 16.629 5.3594 32.816 15.113 46.285-8.7305 14.047-7.2656 31.922 3.9961 43.793h0.003907c7.2891 7.6562 17.312 12.117 27.883 12.414 0.058594 0 0.125 0.089843 0.18359 0.089843h1.1055c10.164 0.042969 19.953-3.8477 27.316-10.855l5.0195-4.8633c13.434 2.8125 27.258 3.2266 40.836 1.2266l3.6406 3.3359c5.9688 5.5664 13.457 9.2383 21.516 10.547v51.043-0.003906c-0.050781 3.8672-1.625 7.5547-4.375 10.273-2.75 2.7148-6.4609 4.2344-10.328 4.2344zm-53.203-224.35c-8.8242-6.4922-13.641-17.102-12.727-28.02 0.91406-10.914 7.4258-20.574 17.203-25.512 9.7773-4.9414 21.418-4.4492 30.746 1.293 9.3281 5.7461 15.008 15.918 15 26.871 0 9.8906-4.5859 18.48-12.637 25.367zm137.77 80.289-20.367 2.1719c-1.7148 0.16016-3.3008 0.96875-4.4375 2.2617-0.45703 0.47266-0.83203 1.0234-1.1016 1.6211-3.1953 6.6367-7.3398 12.773-12.301 18.219-0.70703 0.78125-1.1914 1.7422-1.4023 2.7734-0.48047 1.6992-0.23438 3.5234 0.68359 5.0312 2.3398 4.832 2.9844 10.312 1.832 15.559-1.1523 5.2461-4.0391 9.9492-8.1914 13.355-10.91 8.8633-27.664 8.1289-38.117-1.6406l-5.2148-4.9414c-1.3164-1.2812-3.0898-1.9766-4.9258-1.9297-0.33594 0-0.67188 0.03125-1.0039 0.085938-13.727 2.3242-27.777 1.8789-41.328-1.3086-0.44531-0.10547-0.89844-0.16016-1.3555-0.16016-1.8438-0.046875-3.625 0.65625-4.9453 1.9492l-6.875 6.6914 0.003906-0.003906c-5.168 4.9023-12.031 7.6172-19.152 7.5781h-1.0156c-7.4492-0.12109-14.527-3.2812-19.586-8.7539-8.0859-8.5195-8.4961-21.859-0.98438-31.652v0.003907c0.22656-0.30469 0.42969-0.63281 0.59766-0.97656 1.3164-2.418 1.0156-5.3945-0.75391-7.5-9.6133-12.457-14.73-26.949-14.73-41.895v-3.6797c0.95703-8.0547 3.1836-15.91 6.6016-23.266l3.7617-7.2148c8.0547-13.273 20.422-24.297 35.223-31.848 1.3164 3.2266 2.9727 6.3047 4.9453 9.1797h-5.207c-3.2578 0-5.9023 2.6445-5.9023 5.9062 0 3.2578 2.6445 5.9023 5.9023 5.9023h80.746c3.2617 0 5.9023-2.6445 5.9023-5.9023 0-3.2617-2.6406-5.9062-5.9023-5.9062h-5.3008c5.0977-7.8711 7.9492-15.621 8.1367-24.508 16.047-6.6289 23.184-7.9648 26.176-7.9648h0.03125c-0.039062 2.9531-0.78906 9.3789-1.1758 12.859l-1.3828 12.738h-0.003906c-0.023437 0.21484-0.035156 0.43359-0.035156 0.64844-0.046875 1.875 0.67969 3.6875 2.0078 5.0117 0.17578 0.17188 0.35938 0.33984 0.55469 0.49219 9.9648 7.5469 18.094 17.254 23.777 28.391 0.28125 0.56641 0.65625 1.0859 1.1055 1.5312 1.0938 1.3008 2.6523 2.1133 4.3438 2.2695l20.367 2.1758z"/>
  <path d="m531.69 418.2c-5.7422 0-10.922 3.4609-13.117 8.7656-2.1992 5.3086-0.98437 11.414 3.0781 15.477s10.168 5.2773 15.477 3.0781c5.3047-2.1992 8.7656-7.3789 8.7656-13.121-0.011719-7.8398-6.3633-14.191-14.203-14.199zm0 16.59c-0.96484 0-1.8398-0.58203-2.207-1.4766-0.37109-0.89062-0.16797-1.9219 0.51562-2.6055s1.7148-0.88672 2.6094-0.51953c0.89062 0.37109 1.4766 1.2422 1.4766 2.2109-0.003906 1.3203-1.0742 2.3906-2.3945 2.3906z"/>
 </g>
</svg>