<?xml version="1.0" encoding="UTF-8"?>
<!-- The Best Svg Icon site in the world: iconSvg.co, Visit us! https://iconsvg.co -->
<svg fill="#000000" width="800px" height="800px" version="1.1" viewBox="144 144 512 512" xmlns="http://www.w3.org/2000/svg">
 <g>
  <path d="m386.74 458.73v2.3867c-12.113 1.8125-22.469 9.6719-27.477 20.852-5.0039 11.18-3.9727 24.137 2.7422 34.379 6.7148 10.246 18.188 16.363 30.434 16.23h15.113c2.7109-0.32031 5.4258 0.53516 7.4648 2.3438 2.0391 1.8125 3.2031 4.4102 3.2031 7.1367 0 2.7266-1.1641 5.3242-3.2031 7.1367-2.0391 1.8125-4.7539 2.6641-7.4648 2.3438h-37.918c-7.3203 0-13.258 5.9375-13.258 13.258 0 7.3242 5.9375 13.258 13.258 13.258h17.105v1.8555c0 7.3242 5.9336 13.258 13.258 13.258 7.3203 0 13.258-5.9336 13.258-13.258v-2.3867c12.113-1.8125 22.469-9.668 27.473-20.848 5.0078-11.18 3.9727-24.137-2.7422-34.383-6.7148-10.242-18.184-16.359-30.434-16.23h-15.113c-2.707 0.32031-5.4258-0.53125-7.4648-2.3438-2.0391-1.8086-3.2031-4.4062-3.2031-7.1328 0-2.7305 1.1641-5.3281 3.2031-7.1367 2.0391-1.8125 4.7578-2.6641 7.4648-2.3438h37.918c7.3242 0 13.258-5.9375 13.258-13.258 0-7.3242-5.9336-13.258-13.258-13.258h-17.102v-1.8594c0-7.3203-5.9375-13.258-13.258-13.258-7.3242 0-13.258 5.9375-13.258 13.258z"/>
  <path d="m413.26 175.27v-0.66406c0-7.3203-5.9375-13.258-13.258-13.258-7.3242 0-13.258 5.9375-13.258 13.258-43.379 3.3477-83.883 22.973-113.39 54.941-29.512 31.965-45.836 73.91-45.707 117.41 0.023438 5.3516 3.2656 10.164 8.2188 12.199 4.9375 2.0742 10.637 0.97656 14.449-2.7852 11.566-11.578 27.258-18.082 43.621-18.082 16.363 0 32.055 6.5039 43.617 18.082 0.93359 0.78516 1.957 1.4531 3.0508 1.9883h1.1953c1.5742 0.97266 3.3359 1.6055 5.168 1.8555h3.3125l2.5195-0.92969 2.2539-1.457h0.003907c0.46875-0.21484 0.91406-0.48047 1.3242-0.79297 8.2617-8.5352 18.801-14.516 30.363-17.238v60.988c-40.801 4.5625-76.387 29.773-94.219 66.75-17.836 36.977-15.406 80.523 6.4219 115.29 21.832 34.766 60 55.871 101.05 55.871 41.051 0 79.219-21.105 101.05-55.871s24.258-78.312 6.4258-115.29c-17.836-36.977-53.422-62.188-94.219-66.75v-60.988c11.484 2.5352 22.016 8.2852 30.359 16.574 0.41016 0.3125 0.85547 0.58203 1.3281 0.79688l2.2539 1.457 2.5195 0.92969h3.3125c1.6328-0.015625 3.2539-0.32812 4.7734-0.92969h1.1914c1.0938-0.53906 2.1172-1.207 3.0508-1.9883 11.562-11.578 27.254-18.082 43.617-18.082 16.367 0 32.059 6.5039 43.621 18.082 2.6445 2.4844 6.1875 3.7773 9.8125 3.5781 1.7383 0.046875 3.4648-0.31641 5.0352-1.0586 4.9531-2.0352 8.1953-6.8477 8.2227-12.199-0.039063-43.391-16.441-85.168-45.934-117-29.492-31.824-69.902-51.359-113.16-54.695zm-13.258 136.56c-14.473-0.003906-28.723 3.5469-41.5 10.34-0.28906-41.871 14.434-82.465 41.5-114.42 27.066 31.953 41.785 72.547 41.496 114.42-12.777-6.793-27.027-10.344-41.496-10.34zm-143.32 8.6172c5.3047-28.148 18.785-54.113 38.758-74.648 19.969-20.535 45.547-34.738 73.535-40.828-23.812 33.812-36.68 74.121-36.855 115.48-23.887-11.262-51.555-11.262-75.438 0zm236.12 198.87c0 24.617-9.7773 48.223-27.184 65.625-17.402 17.406-41.008 27.184-65.621 27.184-24.617 0-48.223-9.7773-65.625-27.184-17.406-17.402-27.184-41.008-27.184-65.625 0-24.613 9.7773-48.219 27.184-65.621 17.402-17.406 41.008-27.184 65.625-27.184 24.613 0 48.219 9.7773 65.621 27.184 17.406 17.402 27.184 41.008 27.184 65.621zm-24.926-198.87c-0.089844-41.555-13.008-82.07-36.988-116.01 28.086 6.1055 53.742 20.375 73.746 41.016 20 20.637 33.461 46.73 38.684 74.992-23.887-11.262-51.555-11.262-75.441 0z"/>
 </g>
</svg>