<?xml version="1.0" encoding="UTF-8"?>
<!-- The Best Svg Icon site in the world: iconSvg.co, Visit us! https://iconsvg.co -->
<svg fill="#000000" width="800px" height="800px" version="1.1" viewBox="144 144 512 512" xmlns="http://www.w3.org/2000/svg">
 <g>
  <path d="m409.84 213.04c0 5.4336-4.4023 9.8398-9.8398 9.8398-5.4336 0-9.8398-4.4062-9.8398-9.8398 0-5.4375 4.4062-9.8398 9.8398-9.8398 5.4375 0 9.8398 4.4023 9.8398 9.8398"/>
  <path d="m557.44 360.64c0 5.4375-4.4023 9.8398-9.8398 9.8398-5.4336 0-9.8398-4.4023-9.8398-9.8398 0-5.4336 4.4062-9.8398 9.8398-9.8398 5.4375 0 9.8398 4.4062 9.8398 9.8398"/>
  <path d="m262.24 360.64c0 5.4375-4.4062 9.8398-9.8398 9.8398-5.4375 0-9.8398-4.4023-9.8398-9.8398 0-5.4336 4.4023-9.8398 9.8398-9.8398 5.4336 0 9.8398 4.4062 9.8398 9.8398"/>
  <path d="m610.35 523c3.4375-6.2227 5.2305-12.922 5.2305-19.68 0-21.77-17.695-40.156-43.898-48.809 16.883-29.57 25.117-60.391 25.117-93.875 0-108.52-88.285-196.8-196.8-196.8s-196.8 88.285-196.8 196.8c0 48.184 17.41 93.418 47.738 128.51-38.125 3.8125-66.527 25.953-66.527 53.535 0 6.7578 1.793 13.453 5.2305 19.68-3.4375 6.2266-5.2305 12.922-5.2305 19.68 0 30.348 34.383 54.121 78.273 54.121 29.789 0 55.18-10.957 68.434-27.48 29.566 36.863 108.34 36.594 137.31-0.54688 13.125 16.832 38.766 28.023 68.879 28.023 43.891 0 78.273-23.773 78.273-54.121 0-6.7422-1.7812-13.418-5.2031-19.629 6.8281-12.391 7.0625-26.57-0.027344-39.406zm-108.07 47.066c-12.797-5.7305-25.52-16.711-23.316-30.438 30.504 23.605 85.879 23.832 116.7 0 0.92969 5.7812-0.83203 11.297-4.3164 16.121-0.18359 0.19922-0.36719 0.39844-0.53125 0.61719-3.6289 4.7266-8.8516 8.8242-15.16 12.102-9.043 4.8672-23.145 8.6523-38.34 8.6523-9.0352-0.003906-24.309-2.2578-35.031-7.0547zm-119.8 5.4961c-13.234-2.4922-28.207-8.4922-36.43-19.199-0.16797-0.21875-0.35156-0.41797-0.53516-0.61719-3.4297-4.7539-5.2266-10.219-4.3281-16.008 30.789 23.652 85.992 23.605 116.72 0 1.9492 12.625-8.7227 22.859-20.023 28.73-13.328 7.1758-34.508 10.961-55.406 7.0938zm5.1328-38.559c-15.047-1.9141-32.438-8.1211-41.562-20-0.16797-0.21875-0.35156-0.41797-0.53516-0.61719-3.4297-4.7539-5.2266-10.219-4.3281-16.008 30.789 23.652 85.992 23.605 116.72 0 2.6016 16.828-16.57 29.094-33.086 33.887-7.3047 2.1641-16.301 3.5-25.277 3.5-1.6602-0.007813-8.3008-0.29688-11.934-0.76172zm70.285-76.098c0.92969 5.7812-0.83203 11.297-4.3164 16.121-0.18359 0.19922-0.36719 0.39844-0.53125 0.61719-6.6406 8.6406-17.676 14.195-28.223 17.258-11.527 3.4141-25.672 4.5547-39.738 2.3906-14.176-2.2031-30.355-8.3438-39.039-19.648-0.16797-0.21875-0.35156-0.41797-0.53516-0.61719-3.4766-4.8164-5.2422-10.328-4.3125-16.117 30.777 23.855 86.188 23.59 116.7-0.003906zm-4.8477-22.621c-9.6875 12.605-30.688 20.754-53.5 20.754-17.434 0-38.289-5.1172-50.484-17.328-23.895-23.914 8.3047-51.551 50.484-51.551 40.105 0 71.281 24.977 53.5 48.125zm137.76 78.719c-9.6836 12.609-30.684 20.754-53.496 20.754-4.2773 0-8.4922-0.28516-12.578-0.83594-17.711-2.375-33.051-9.6758-40.922-19.922-3.3789-4.3945-5.0938-9-5.0938-13.68 0-18.668 26.832-34.441 58.594-34.441 40.102 0 71.281 24.977 53.496 48.125zm-190.81-333.48c97.668 0 177.12 79.453 177.12 177.12 0 31.945-8.4062 61.242-25.668 89.422-25.387-3.0781-54.273 2.043-73.855 17.926 0.85156-8.4062-0.93359-16.34-5.0039-23.707 3.4375-6.2227 5.2305-12.922 5.2305-19.68 0-30.348-34.383-54.121-78.273-54.121s-78.273 23.773-78.273 54.121c0 6.7578 1.793 13.453 5.2305 19.68-7.0742 12.812-6.8672 26.992-0.03125 39.414-3.8516 6.9961-5.7266 14.703-5.0586 22.871-10.938-8.5273-25.781-14.578-42.793-16.926-35.945-33.836-55.742-79.637-55.742-129 0-97.664 79.453-177.12 177.12-177.12zm-137.31 324.72c39.984 0 71.332 24.918 53.5 48.125-9.6875 12.609-30.688 20.754-53.5 20.754-17.48 0-38.316-5.1445-50.484-17.328-4.6562-4.6602-8.1094-10.477-8.1094-17.109 0-18.668 26.836-34.441 58.594-34.441zm0 108.24c-31.762 0-58.594-15.773-58.594-34.441 0-1.0195 0.082031-2.0391 0.24219-3.0508 29.797 23.098 84.809 24.371 116.7 0 0.16406 1.0117 0.24219 2.0312 0.24219 3.0508 0.003906 18.668-26.828 34.441-58.59 34.441zm136.87 0c-31.762 0-58.594-15.773-58.594-34.441 0-0.98437 0.078125-1.9648 0.23047-2.9414 30.789 23.652 85.992 23.605 116.72 0 0.15234 0.97656 0.23047 1.957 0.23047 2.9414 0.003906 18.668-26.832 34.441-58.59 34.441zm137.76 0c-31.762 0-58.594-15.773-58.594-34.441 0-0.98437 0.078125-1.9648 0.23047-2.9414 30.785 23.648 85.988 23.609 116.72 0 0.15234 0.97656 0.23047 1.957 0.23047 2.9414 0 18.668-26.832 34.441-58.59 34.441z"/>
  <path d="m444.09 281.47-4.7305 9.3984c4.9453 3.2969 11.203 5.1523 16.957 5.6523v7.6914h4.5352v-7.625c6.0703-0.25391 11.863-2.3672 14.59-7.8203 1.6992-3.3945 1.7188-8.6758 0.29688-11.898-1.1562-2.6094-3.3047-4.9336-7.4609-6.6055-4.0234-1.6172-7.4688-2.3359-8.1523-2.5312v-8.9375c4.5625 0.65625 9.9219 3.5391 10.516 4.3398l4.7344-8.9375c-1.8398-1.0508-4.0117-2.082-6.5078-3.0898-2.5-1.0078-5.1719-1.6445-8.0195-1.9062l0.007813-6.6406h-4.5352v6.6406c-9.8945 1.0312-14.988 7.2578-14.988 15.051 0 3.1562 0.80078 5.875 3.0547 8.0859 3.5781 3.5117 10.168 4.9062 12.652 5.7188v8.7422c-5.8789-0.82031-12.031-4.1758-12.949-5.3281zm16.039-2.4297c1.5352 0.52734 2.7617 1.1055 3.6836 1.7422 0.91797 0.63672 1.3789 1.5234 1.3789 2.6641 0 2.1914-1.6875 3.3516-5.0625 3.4844zm-6.5391-13.902c-0.76562-0.63281-1.1484-1.5-1.1484-2.5977 0-2.2773 1.5352-3.5508 4.6016-3.8125v8.0859c-1.5391-0.48047-2.6875-1.0391-3.4531-1.6758z"/>
  <path d="m296.49 370.03-4.7344 9.3984c4.9648 3.3086 11.227 5.1523 16.957 5.6523v7.6914h4.5352v-7.625c9.1914-0.38281 15.906-4.9609 15.906-14.195 0-5.6484-2.4688-9.707-8.4805-12.125-4.0234-1.6172-7.4688-2.3359-8.1484-2.5312v-8.9375c4.5586 0.65625 9.918 3.5391 10.516 4.3398l4.7344-8.9375c-1.8398-1.0508-4.0078-2.082-6.5078-3.0898-2.4961-1.0078-5.1719-1.6445-8.0195-1.9062l0.003906-6.6484h-4.5352v6.6406c-9.7969 1.0234-14.988 7.1641-14.988 15.051 0 3.1641 0.80469 5.8828 3.0547 8.0859 3.582 3.5078 10.141 4.8984 12.652 5.7188v8.7422c-5.8789-0.81641-12.027-4.1719-12.945-5.3242zm16.035-2.4336c1.5352 0.52734 2.7617 1.1055 3.6797 1.7422 0.92188 0.63672 1.3789 1.5234 1.3789 2.6641 0 2.1914-1.6875 3.3516-5.0625 3.4844zm-6.5391-13.902c-0.76562-0.63281-1.1484-1.5-1.1484-2.5977 0-2.2773 1.5352-3.5508 4.6016-3.8125v8.0859c-1.5391-0.48047-2.6875-1.0391-3.4531-1.6758z"/>
  <path d="m305.39 299.53 88.559 68.879c2.6055 2.0273 6.043 2.6055 9.1523 1.5664l88.562-29.52c5.1562-1.7188 7.9414-7.293 6.2227-12.445-1.7188-5.1562-7.2891-7.9414-12.445-6.2227l-83.566 27.855-84.402-65.648c-4.2891-3.3359-10.473-2.5625-13.809 1.7266-3.3359 4.2891-2.5625 10.469 1.7266 13.809z"/>
 </g>
</svg>