<?xml version="1.0" encoding="UTF-8"?>
<!-- The Best Svg Icon site in the world: iconSvg.co, Visit us! https://iconsvg.co -->
<svg fill="#000000" width="800px" height="800px" version="1.1" viewBox="144 144 512 512" xmlns="http://www.w3.org/2000/svg">
 <path d="m581.05 305.54c10.434-0.011718 20.441-4.1641 27.82-11.543 7.375-7.3789 11.527-17.383 11.539-27.816-0.019531-0.92578-0.20312-1.8438-0.55078-2.7031-0.078125-0.22266-0.16797-0.44531-0.26562-0.66016-0.09375-0.19531-0.14062-0.41016-0.25-0.59766l-55.105-94.465c-1.4102-2.4219-4-3.9102-6.8047-3.9141h-330.62c-2.8047 0.007812-5.3984 1.5078-6.8008 3.9375l-55.105 94.465c-0.10938 0.1875-0.15625 0.40234-0.25 0.59766-0.10156 0.21484-0.19141 0.4375-0.26562 0.66016-0.34375 0.85156-0.53125 1.7617-0.55469 2.6797-0.023438 9.8047 3.6211 19.262 10.219 26.516 6.5977 7.2539 15.672 11.777 25.434 12.676 9.7656 0.90234 19.512-1.8828 27.324-7.8086v204.78c0 2.0859 0.83203 4.0898 2.3086 5.5664 1.4766 1.4766 3.4766 2.3047 5.5664 2.3047h233.68c-3.5391 7.3711-5.3828 15.441-5.3906 23.617v94.465c0 2.0859 0.82813 4.0898 2.3047 5.5664 1.4766 1.4727 3.4766 2.3047 5.5664 2.3047h141.7c2.0898 0 4.0898-0.83203 5.5664-2.3047 1.4766-1.4766 2.3047-3.4805 2.3047-5.5664v-94.465c-0.015624-14.215-5.5234-27.871-15.371-38.121-9.8516-10.246-23.277-16.293-37.48-16.875 9.8672-6.4453 16.961-16.355 19.887-27.777 2.9258-11.418 1.4648-23.52-4.0898-33.914-5.5547-10.398-14.801-18.336-25.922-22.254v-97.324c6.793 5.168 15.086 7.9688 23.617 7.9766zm0-15.742v-0.003907c-4.8828-0.003906-9.6445-1.5195-13.633-4.3398-3.9844-2.8203-7.0039-6.8008-8.6367-11.402h44.539c-1.6328 4.6016-4.6523 8.582-8.6367 11.402-3.9883 2.8203-8.75 4.3359-13.633 4.3398zm-76.098-110.21 32.801 78.719h-45.02l-19.68-78.719zm35.426 94.465h-0.003906c-2.1797 6.1797-6.832 11.18-12.844 13.793-6.0117 2.6172-12.84 2.6172-18.848 0-6.0117-2.6133-10.664-7.6133-12.848-13.793zm-83.555-94.465 19.68 78.719h-45.656l-6.5508-78.719zm20.547 94.465h-0.003906c-2.1797 6.1797-6.832 11.18-12.844 13.793-6.0117 2.6172-12.84 2.6172-18.848 0-6.0117-2.6133-10.664-7.6133-12.848-13.793zm-101.62-94.465h32.746l6.5586 78.719h-45.863zm38.645 94.465h-0.003907c-2.1797 6.1797-6.832 11.18-12.844 13.793-6.0117 2.6172-12.84 2.6172-18.848 0-6.0117-2.6133-10.664-7.6133-12.848-13.793zm-54.445-94.465-6.5586 78.719h-45.656l19.68-78.719zm-8.5312 94.465c-2.1836 6.1797-6.8359 11.18-12.848 13.793-6.0117 2.6172-12.836 2.6172-18.848 0-6.0117-2.6133-10.664-7.6133-12.848-13.793zm-40.227-94.465-19.68 78.719h-45.023l32.805-78.719zm-22.75 94.465c-2.1836 6.1797-6.8359 11.18-12.848 13.793-6.0078 2.6172-12.836 2.6172-18.848 0-6.0117-2.6133-10.664-7.6133-12.848-13.793zm-85.246 15.742c-4.8828-0.003906-9.6445-1.5195-13.633-4.3398-3.9883-2.8203-7.0039-6.8008-8.6367-11.402h44.539c-1.6367 4.6016-4.6523 8.582-8.6406 11.402-3.9844 2.8203-8.7461 4.3359-13.629 4.3398zm26.238-31.488h-44.023l45.918-78.719h30.906zm123.33 236.16h-78.719v-157.44h78.719zm15.742 0 0.003907-165.31c0-2.0859-0.83203-4.0898-2.3086-5.5664-1.4766-1.4727-3.4766-2.3047-5.5664-2.3047h-94.461c-4.3477 0-7.875 3.5234-7.875 7.8711v165.31h-15.742v-196.9c8.3203 6.3242 18.824 9.0586 29.172 7.5977 10.348-1.457 19.684-6.9883 25.934-15.367 7.4297 9.9141 19.098 15.746 31.484 15.746 12.391 0 24.055-5.832 31.488-15.746 7.4336 9.9141 19.102 15.746 31.488 15.746 12.391 0 24.055-5.832 31.488-15.746 7.4336 9.9141 19.102 15.746 31.488 15.746 12.391 0 24.055-5.832 31.488-15.746 6.2461 8.3828 15.582 13.918 25.93 15.383 10.348 1.4609 20.852-1.2695 29.176-7.5898v94.543c-5.3672 0.015625-10.691 0.94531-15.746 2.7578v-65.734c0-2.0859-0.82812-4.0898-2.3047-5.5664-1.4766-1.4727-3.4766-2.3047-5.5664-2.3047h-125.95c-4.3477 0-7.8711 3.5234-7.8711 7.8711v110.21c0 2.0859 0.82812 4.0898 2.3047 5.5664 1.4766 1.4766 3.4805 2.3047 5.5664 2.3047h103.05c2.1992 12.945 9.6797 24.391 20.656 31.598-13.602 0.53516-26.516 6.1094-36.234 15.633zm141.7-157.44v67.227c-7.9453 7.1211-13.242 16.719-15.035 27.238h-95.172v-94.465zm94.465 196.8v86.59h-125.95v-86.59c0.011719-10.438 4.1641-20.441 11.543-27.82 7.3789-7.3789 17.383-11.527 27.816-11.543v7.875c0 2.0859 0.83203 4.0898 2.3086 5.5625l5.2266 5.2266-7.4961 72.652c-0.23438 2.2812 0.53906 4.5469 2.1094 6.2109l15.742 16.664 0.003906 0.003906c1.4883 1.5742 3.5547 2.4648 5.7227 2.4648 2.1641 0 4.2344-0.89062 5.7227-2.4648l15.742-16.664v-0.003907c1.5898-1.6562 2.375-3.9258 2.1523-6.2109l-7.4961-72.684 5.2266-5.2266c1.457-1.4727 2.2695-3.4609 2.2695-5.5312v-7.875c10.434 0.015624 20.438 4.1641 27.816 11.543s11.531 17.383 11.543 27.82zm-60.668-29.18-0.003906-0.003906c-1.4805 1.4727-2.3086 3.4766-2.3047 5.5664-0.011718-2.0703-0.83984-4.0508-2.3086-5.5117l-5.5625-5.6211v-4.6133h15.742v4.6133zm5.2344 79.191-7.543 7.9805-7.543-7.9805 7.543-72.844c0-0.26953 0.039063-0.53516 0.039063-0.78906 0 0.26172 0 0.52734 0.039063 0.78906zm23.945-144.48c0 8.3516-3.3164 16.359-9.2227 22.266-5.9062 5.9023-13.914 9.2227-22.266 9.2227-8.3516 0-16.359-3.3203-22.266-9.2227-5.9062-5.9062-9.2227-13.914-9.2227-22.266s3.3164-16.359 9.2227-22.266 13.914-9.2227 22.266-9.2227c8.3516 0 16.359 3.3164 22.266 9.2227s9.2227 13.914 9.2227 22.266zm-18.367-181.06-32.801-78.719h30.906l45.918 78.719z"/>
</svg>