<?xml version="1.0" encoding="UTF-8"?>
<!-- The Best Svg Icon site in the world: iconSvg.co, Visit us! https://iconsvg.co -->
<svg fill="#000000" width="800px" height="800px" version="1.1" viewBox="144 144 512 512" xmlns="http://www.w3.org/2000/svg">
 <g>
  <path d="m433.45 329.45c29.238-4.8789 45.113-21.523 45.113-48.137h0.003906c0-8.5977-3.7148-16.773-10.184-22.434-6.4688-5.6562-15.07-8.2461-23.586-7.1016-8.5195 1.1406-16.133 5.9102-20.879 13.074-5.5156-8.332-14.844-13.34-24.836-13.34s-19.32 5.0078-24.836 13.34c-4.75-7.1641-12.359-11.934-20.879-13.074-8.5195-1.1445-17.117 1.4453-23.586 7.1016-6.4727 5.6602-10.184 13.836-10.184 22.434 0 26.617 15.879 43.297 45.113 48.137-42.391 20.625-74.918 75.508-74.918 120.77 0 64.07 38.809 99.352 109.29 99.352 70.477 0 109.29-35.281 109.29-99.352-0.003907-45.258-32.531-100.14-74.922-120.77zm17.789-63.039c4.1172 0 7.4531 2.2266 7.4531 4.9688 0 2.7383-3.3359 4.9688-7.4531 4.9688s-7.4531-2.2188-7.4531-4.9688 3.3398-4.9688 7.457-4.9688zm-51.234 165.08c10.293-0.015625 19.941 5.0156 25.824 13.461 5.8828 8.4492 7.2578 19.242 3.6758 28.895-3.5781 9.6484-11.66 16.934-21.629 19.5v8.9922c0 4.3477-3.5234 7.8711-7.8711 7.8711s-7.875-3.5234-7.875-7.8711v-8.9922c-6.7383-1.7383-12.711-5.6641-16.984-11.156-4.2734-5.4961-6.6055-12.254-6.6289-19.211 0-4.3477 3.5234-7.875 7.8711-7.875 4.3477 0 7.8711 3.5273 7.8711 7.875 0 4.1719 1.6602 8.1797 4.6133 11.133 2.9531 2.9492 6.957 4.6094 11.133 4.6094s8.1797-1.6602 11.133-4.6094c2.9492-2.9531 4.6094-6.9609 4.6094-11.133 0-4.1758-1.6602-8.1836-4.6094-11.133-2.9531-2.9531-6.957-4.6133-11.133-4.6133-10.297 0.011719-19.941-5.0156-25.828-13.465-5.8828-8.4453-7.2578-19.238-3.6758-28.891 3.582-9.6523 11.66-16.938 21.629-19.504v-8.9883c0-4.3477 3.5273-7.8711 7.875-7.8711s7.8711 3.5234 7.8711 7.8711v8.9883c6.7383 1.7422 12.711 5.6641 16.984 11.16 4.2734 5.4961 6.6055 12.25 6.6328 19.211 0 4.3477-3.5273 7.8711-7.875 7.8711-4.3477 0-7.8711-3.5234-7.8711-7.8711 0-4.1758-1.6602-8.1797-4.6094-11.133-2.9531-2.9531-6.957-4.6094-11.133-4.6094s-8.1797 1.6562-11.133 4.6094c-2.9531 2.9531-4.6133 6.957-4.6133 11.133 0 4.1758 1.6602 8.1797 4.6133 11.133 2.9531 2.9531 6.957 4.6133 11.133 4.6133zm-0.92188-90.527c-31.723 0-61.621 18.207-81.215 48.359 17.672-30.566 51.414-58.047 81.215-58.047 29.805 0 63.543 27.48 81.215 58.047-19.594-30.184-49.492-48.363-81.215-48.363z"/>
  <path d="m620.41 360.64-19.578-0.070313c-5.1875-26.746-15.75-52.164-31.047-74.711l13.895-13.902c2.9531-2.9531 4.6094-6.957 4.6094-11.133 0-4.1758-1.6562-8.1797-4.6094-11.129l-33.391-33.379c-3-2.8633-6.9883-4.4609-11.133-4.4609-4.1445 0-8.1328 1.5977-11.133 4.4609l-13.883 13.816c-22.578-15.262-48.023-25.781-74.785-30.922v-19.625c0-4.1758-1.6602-8.1797-4.6133-11.133s-6.957-4.6133-11.133-4.6133h-47.23c-4.1758 0-8.1797 1.6602-11.133 4.6133s-4.6133 6.957-4.6133 11.133l-0.070313 19.578c-26.746 5.1875-52.164 15.75-74.711 31.047l-13.887-13.895c-3-2.8633-6.9844-4.4609-11.133-4.4609-4.1445 0-8.1328 1.5977-11.129 4.4609l-33.395 33.395c-2.9531 2.9531-4.6094 6.957-4.6094 11.129 0 4.1758 1.6562 8.1797 4.6094 11.133l13.816 13.887c-15.262 22.578-25.781 48.02-30.922 74.781h-19.625c-4.1758 0-8.1797 1.6602-11.133 4.6133s-4.6133 6.957-4.6133 11.133v47.23c0 4.1758 1.6602 8.1797 4.6133 11.133s6.957 4.6133 11.133 4.6133l19.578 0.070313c5.1875 26.746 15.75 52.164 31.047 74.715l-13.895 13.883c-2.9531 2.9531-4.6094 6.957-4.6094 11.133 0 4.1758 1.6562 8.1797 4.6094 11.133l33.395 33.395v-0.003906c2.9961 2.8633 6.9844 4.4648 11.129 4.4648 4.1484 0 8.1328-1.6016 11.133-4.4648l13.887-13.816c22.578 15.266 48.02 25.785 74.781 30.922v19.625c0 4.1758 1.6602 8.1797 4.6133 11.133s6.957 4.6133 11.133 4.6133h47.23c4.1758 0 8.1797-1.6602 11.133-4.6133s4.6133-6.957 4.6133-11.133l0.070313-19.578c26.746-5.1875 52.164-15.75 74.715-31.047l13.902 13.895h-0.003906c3 2.8633 6.9883 4.4648 11.133 4.4648s8.1328-1.6016 11.133-4.4648l33.395-33.395-0.003906 0.003907c2.9531-2.9531 4.6094-6.957 4.6094-11.133 0-4.1758-1.6562-8.1797-4.6094-11.133l-13.832-13.883c15.266-22.578 25.785-48.023 30.922-74.785h19.625c4.1758 0 8.1797-1.6602 11.133-4.6133s4.6133-6.957 4.6133-11.133v-47.23c0-4.1758-1.6602-8.1797-4.6133-11.133s-6.957-4.6133-11.133-4.6133zm-220.41 204.68c-43.844 0-85.895-17.418-116.89-48.422-31.004-31-48.418-73.047-48.418-116.89s17.414-85.895 48.418-116.89c31-31.004 73.051-48.418 116.89-48.418s85.891 17.414 116.89 48.418c31.004 31 48.422 73.051 48.422 116.89-0.050781 43.828-17.48 85.848-48.473 116.84-30.992 30.992-73.012 48.422-116.84 48.473z"/>
 </g>
</svg>