<?xml version="1.0" encoding="UTF-8"?>
<!-- The Best Svg Icon site in the world: iconSvg.co, Visit us! https://iconsvg.co -->
<svg fill="#000000" width="800px" height="800px" version="1.1" viewBox="144 144 512 512" xmlns="http://www.w3.org/2000/svg">
 <g>
  <path d="m515.48 322.81c-0.10547-0.14062-0.41797-0.37109-0.93359-0.69141-0.51562-0.32031-1.1719-0.66406-1.9727-1.0391-0.80078-0.37109-1.6875-0.72656-2.6641-1.0664-0.97656-0.33594-1.9609-0.57812-2.957-0.71875v7.2422l1.7031 0.42578c1.8125 0.49609 3.4414 1.0391 4.8984 1.625 1.457 0.58594 2.6914 1.3125 3.7031 2.1836 1.0117 0.87109 1.793 1.9258 2.3438 3.168s0.82812 2.7344 0.82812 4.4727c0 2.0234-0.35547 3.7461-1.0664 5.168-0.71094 1.418-1.6602 2.582-2.8477 3.4883-1.1914 0.90625-2.5547 1.5898-4.1016 2.0508-1.543 0.46094-3.168 0.72656-4.8711 0.80078v6.1758h-3.6758v-6.2305c-2.4492-0.21484-4.8711-0.71094-7.2695-1.4922-2.3984-0.78125-4.5547-1.8125-6.4727-3.0898l3.8359-7.6172c0.14062 0.17969 0.52344 0.47266 1.1445 0.87891 0.62109 0.41016 1.4102 0.83594 2.3711 1.2773 0.96094 0.44531 2.043 0.87109 3.25 1.2773 1.207 0.41016 2.4492 0.70312 3.7266 0.87891v-7.082l-2.5586-0.74609c-1.7422-0.53516-3.25-1.1094-4.5273-1.7305-1.2773-0.62109-2.3359-1.3398-3.1719-2.1562-0.83594-0.81641-1.457-1.7578-1.8633-2.8242-0.41016-1.0664-0.61328-2.3086-0.61328-3.7266 0-1.8477 0.32031-3.4883 0.96094-4.9258 0.63672-1.4375 1.5-2.6719 2.582-3.7031 1.082-1.0273 2.3594-1.8359 3.8359-2.4219 1.4727-0.58594 3.0625-0.96875 4.7656-1.1445v-5.3789h3.6758v5.3789c2.3086 0.21484 4.4727 0.72656 6.4961 1.543 2.0234 0.81641 3.7812 1.6523 5.2734 2.5039zm-14.75-0.47656c0 0.88672 0.30859 1.5898 0.93359 2.1055 0.62109 0.51562 1.5547 0.96875 2.7969 1.3594v-6.5508c-2.4883 0.20703-3.7305 1.2383-3.7305 3.0859zm10.332 16.938c0-0.92188-0.37109-1.6406-1.1172-2.1562-0.74609-0.51562-1.7383-0.98438-2.9844-1.4102v6.3906c2.7344-0.10938 4.1016-1.0508 4.1016-2.8242z"/>
  <path d="m348.76 298.71c-3.8438-3.8438-3.8438-10.074 0-13.918s10.074-3.8438 13.918 0 3.8438 10.074 0 13.918c-3.8477 3.8438-10.078 3.8438-13.918 0z"/>
  <path d="m378.28 288.88c-3.8438-3.8438-3.8438-10.074 0-13.918s10.074-3.8438 13.918 0 3.8438 10.074 0 13.918-10.074 3.8438-13.918 0z"/>
  <path d="m407.8 279.04c-3.8438-3.8438-3.8438-10.074 0-13.918s10.074-3.8438 13.918 0 3.8438 10.074 0 13.918-10.074 3.8438-13.918 0z"/>
  <path d="m437.32 269.2c-3.8438-3.8438-3.8438-10.074 0-13.918s10.074-3.8438 13.918 0 3.8438 10.074 0 13.918-10.074 3.8438-13.918 0z"/>
  <path d="m466.84 259.36c-3.8438-3.8438-3.8438-10.074 0-13.918s10.074-3.8438 13.918 0 3.8438 10.074 0 13.918-10.074 3.8438-13.918 0z"/>
  <path d="m496.36 249.52c-3.8438-3.8438-3.8438-10.074 0-13.918s10.074-3.8438 13.918 0 3.8438 10.074 0 13.918-10.074 3.8438-13.918 0z"/>
  <path d="m525.88 239.68c-3.8438-3.8438-3.8438-10.074 0-13.918s10.074-3.8438 13.918 0 3.8438 10.074 0 13.918c-3.8477 3.8438-10.078 3.8438-13.918 0z"/>
  <path d="m555.4 229.84c-3.8438-3.8438-3.8438-10.074 0-13.918s10.074-3.8438 13.918 0 3.8438 10.074 0 13.918c-3.8477 3.8438-10.078 3.8438-13.918 0z"/>
  <path d="m505.29 377.37c-25.5 0-46.25-20.746-46.25-46.25 0-25.5 20.746-46.25 46.25-46.25 25.5 0 46.25 20.746 46.25 46.25 0 25.504-20.746 46.25-46.25 46.25zm0-78.723c-17.906 0-32.473 14.566-32.473 32.473s14.566 32.473 32.473 32.473 32.473-14.566 32.473-32.473c0-17.902-14.566-32.473-32.473-32.473z"/>
  <path d="m505.29 593.85c-3.8047 0-6.8867-3.082-6.8867-6.8867v-216.48c0-3.8047 3.082-6.8867 6.8867-6.8867 3.8047 0 6.8867 3.082 6.8867 6.8867v216.48c0.003906 3.8047-3.082 6.8906-6.8867 6.8906z"/>
  <path d="m526.93 456.09h-21.648c-3.8047 0-6.8867-3.082-6.8867-6.8867 0-30.926 25.16-56.09 56.09-56.09h21.648c3.8047 0 6.8867 3.082 6.8867 6.8867 0 30.93-25.16 56.09-56.09 56.09zm-14.199-13.773h14.199c20.984 0 38.453-15.355 41.754-35.426h-14.199c-20.988 0-38.453 15.355-41.754 35.426z"/>
  <path d="m526.93 534.81h-21.648c-3.8047 0-6.8867-3.082-6.8867-6.8867 0-30.926 25.16-56.09 56.09-56.09h21.648c3.8047 0 6.8867 3.082 6.8867 6.8867 0 30.926-25.16 56.09-56.09 56.09zm-14.199-13.777h14.199c20.984 0 38.453-15.355 41.754-35.426h-14.199c-20.988 0-38.453 15.359-41.754 35.426z"/>
  <path d="m507.25 456.09h-21.648c-30.926 0-56.09-25.16-56.09-56.09 0-3.8047 3.082-6.8867 6.8867-6.8867h21.648c30.926 0 56.09 25.16 56.09 56.09 0.003906 3.8047-3.082 6.8867-6.8867 6.8867zm-63.398-49.199c3.3008 20.066 20.766 35.426 41.754 35.426h14.199c-3.3008-20.066-20.766-35.426-41.754-35.426z"/>
  <path d="m507.25 534.81h-21.648c-30.926 0-56.09-25.16-56.09-56.09 0-3.8047 3.082-6.8867 6.8867-6.8867h21.648c30.926 0 56.09 25.16 56.09 56.09 0.003906 3.8008-3.082 6.8867-6.8867 6.8867zm-63.398-49.203c3.3008 20.066 20.766 35.426 41.754 35.426h14.199c-3.3008-20.066-20.766-35.426-41.754-35.426z"/>
  <path d="m335.69 358.03c-0.089844-0.12109-0.36328-0.32422-0.80859-0.60156-0.44531-0.27734-1.0156-0.57813-1.707-0.89844-0.69141-0.32422-1.4609-0.62891-2.3086-0.92188-0.84766-0.29297-1.6992-0.5-2.5625-0.62109v6.2773l1.4766 0.36719c1.5703 0.42969 2.9844 0.89844 4.2461 1.4062 1.2617 0.50781 2.332 1.1367 3.207 1.8906 0.87891 0.75391 1.5547 1.668 2.0312 2.7461s0.71484 2.3711 0.71484 3.8789c0 1.7539-0.30859 3.2461-0.92578 4.4766-0.61328 1.2305-1.4375 2.2383-2.4688 3.0234-1.0312 0.78516-2.2148 1.3789-3.5547 1.7773-1.3398 0.39844-2.7461 0.62891-4.2227 0.69141v5.3555h-3.1836v-5.4023c-2.125-0.18359-4.2227-0.61328-6.3008-1.293-2.0781-0.67578-3.9453-1.5703-5.6094-2.6758l3.3242-6.6016c0.12109 0.15234 0.45313 0.41016 0.99219 0.76172 0.53906 0.35547 1.2227 0.72266 2.0547 1.1094 0.83203 0.38672 1.7695 0.75391 2.8164 1.1094s2.125 0.60938 3.2305 0.76172v-6.1406l-2.2148-0.64844c-1.5078-0.46094-2.8164-0.96094-3.9219-1.5-1.1094-0.53906-2.0234-1.1602-2.7461-1.8711-0.72266-0.70703-1.2617-1.5234-1.6172-2.4453-0.35547-0.92578-0.53125-2-0.53125-3.2305 0-1.6016 0.27734-3.0234 0.83203-4.2695 0.55469-1.2461 1.3008-2.3125 2.2383-3.207 0.9375-0.89063 2.0469-1.5938 3.3242-2.1016s2.6523-0.83984 4.1289-0.99219v-4.6641h3.1836v4.6641c2 0.18359 3.8789 0.62891 5.6328 1.3398 1.7539 0.70703 3.2773 1.4297 4.5703 2.168zm-12.785-0.41797c0 0.76953 0.26953 1.3789 0.80859 1.8242 0.53906 0.44531 1.3477 0.83984 2.4219 1.1758v-5.6758c-2.1523 0.18359-3.2305 1.0781-3.2305 2.6758zm8.957 14.68c0-0.80078-0.32422-1.4219-0.96875-1.8711-0.64844-0.44531-1.5078-0.85547-2.5859-1.2227v5.5391c2.3672-0.089843 3.5547-0.90625 3.5547-2.4453z"/>
  <path d="m326.86 406.23c-22.609 0-41-18.395-41-41s18.391-41 41-41 41 18.395 41 41c0 22.609-18.395 41-41 41zm0-68.223c-15.012 0-27.227 12.211-27.227 27.223s12.211 27.223 27.223 27.223c15.012 0 27.223-12.211 27.223-27.223 0.003906-15.012-12.207-27.223-27.219-27.223z"/>
  <path d="m326.86 593.85c-3.8047 0-6.8867-3.082-6.8867-6.8867l-0.003906-187.62c0-3.8047 3.082-6.8867 6.8867-6.8867 3.8047 0 6.8867 3.082 6.8867 6.8867l0.003907 187.62c0 3.8008-3.0859 6.8867-6.8867 6.8867z"/>
  <path d="m345.62 474.45h-18.762c-3.8047 0-6.8867-3.082-6.8867-6.8867 0-27.309 22.219-49.527 49.527-49.527h18.762c3.8047 0 6.8867 3.082 6.8867 6.8867 0 27.309-22.219 49.527-49.527 49.527zm-11.211-13.773h11.207c17.359 0 31.867-12.438 35.086-28.863l-11.203-0.003906c-17.359 0-31.867 12.438-35.09 28.867z"/>
  <path d="m345.62 542.68h-18.762c-3.8047 0-6.8867-3.082-6.8867-6.8867 0-27.309 22.219-49.527 49.527-49.527h18.762c3.8047 0 6.8867 3.082 6.8867 6.8867 0 27.309-22.219 49.527-49.527 49.527zm-11.211-13.777h11.207c17.359 0 31.867-12.434 35.086-28.863h-11.203c-17.359 0-31.867 12.434-35.09 28.863z"/>
  <path d="m328.56 474.45h-18.762c-27.309 0-49.527-22.219-49.527-49.527 0-3.8047 3.082-6.8867 6.8867-6.8867h18.762c27.309 0 49.527 22.219 49.527 49.527 0.003907 3.8047-3.082 6.8867-6.8867 6.8867zm-53.848-42.641c3.2188 16.43 17.73 28.863 35.086 28.863h11.207c-3.2188-16.43-17.73-28.863-35.086-28.863z"/>
  <path d="m328.56 542.68h-18.762c-27.309 0-49.527-22.219-49.527-49.527 0-3.8047 3.082-6.8867 6.8867-6.8867h18.762c27.309 0 49.527 22.219 49.527 49.527 0.003907 3.8008-3.082 6.8867-6.8867 6.8867zm-53.848-42.641c3.2227 16.43 17.73 28.863 35.086 28.863h11.207c-3.2188-16.43-17.73-28.863-35.086-28.863z"/>
  <path d="m601.72 593.85h-373.92c-3.8047 0-6.8867-3.082-6.8867-6.8867v-364.08c0-3.8047 3.082-6.8867 6.8867-6.8867s6.8867 3.082 6.8867 6.8867v357.19h367.03c3.8047 0 6.8867 3.082 6.8867 6.8867 0.003907 3.8047-3.0781 6.8906-6.8828 6.8906z"/>
  <path d="m227.8 249.45h-29.52c-3.8047 0-6.8867-3.082-6.8867-6.8867 0-3.8047 3.082-6.8867 6.8867-6.8867h29.52c3.8047 0 6.8867 3.082 6.8867 6.8867 0.003906 3.8047-3.082 6.8867-6.8867 6.8867z"/>
  <path d="m227.8 278.96h-29.52c-3.8047 0-6.8867-3.082-6.8867-6.8867s3.082-6.8867 6.8867-6.8867h29.52c3.8047 0 6.8867 3.082 6.8867 6.8867 0.003906 3.8047-3.082 6.8867-6.8867 6.8867z"/>
  <path d="m227.8 308.48h-29.52c-3.8047 0-6.8867-3.082-6.8867-6.8867 0-3.8047 3.082-6.8867 6.8867-6.8867h29.52c3.8047 0 6.8867 3.082 6.8867 6.8867 0.003906 3.8047-3.082 6.8867-6.8867 6.8867z"/>
  <path d="m227.8 338.01h-29.52c-3.8047 0-6.8867-3.082-6.8867-6.8867 0-3.8047 3.082-6.8867 6.8867-6.8867h29.52c3.8047 0 6.8867 3.082 6.8867 6.8867 0.003906 3.8008-3.082 6.8867-6.8867 6.8867z"/>
  <path d="m227.8 367.53h-29.52c-3.8047 0-6.8867-3.082-6.8867-6.8867s3.082-6.8867 6.8867-6.8867h29.52c3.8047 0 6.8867 3.082 6.8867 6.8867 0.003906 3.8008-3.082 6.8867-6.8867 6.8867z"/>
  <path d="m227.8 397.05h-29.52c-3.8047 0-6.8867-3.082-6.8867-6.8867 0-3.8047 3.082-6.8867 6.8867-6.8867h29.52c3.8047 0 6.8867 3.082 6.8867 6.8867 0.003906 3.8008-3.082 6.8867-6.8867 6.8867z"/>
  <path d="m227.8 426.57h-29.52c-3.8047 0-6.8867-3.082-6.8867-6.8867 0-3.8047 3.082-6.8867 6.8867-6.8867h29.52c3.8047 0 6.8867 3.082 6.8867 6.8867 0.003906 3.8047-3.082 6.8867-6.8867 6.8867z"/>
  <path d="m227.8 456.09h-29.52c-3.8047 0-6.8867-3.082-6.8867-6.8867 0-3.8047 3.082-6.8867 6.8867-6.8867h29.52c3.8047 0 6.8867 3.082 6.8867 6.8867 0.003906 3.8047-3.082 6.8867-6.8867 6.8867z"/>
  <path d="m227.8 485.61h-29.52c-3.8047 0-6.8867-3.082-6.8867-6.8867s3.082-6.8867 6.8867-6.8867h29.52c3.8047 0 6.8867 3.082 6.8867 6.8867 0.003906 3.8047-3.082 6.8867-6.8867 6.8867z"/>
  <path d="m227.8 515.12h-29.52c-3.8047 0-6.8867-3.082-6.8867-6.8867 0-3.8047 3.082-6.8867 6.8867-6.8867h29.52c3.8047 0 6.8867 3.082 6.8867 6.8867 0.003906 3.8047-3.082 6.8867-6.8867 6.8867z"/>
  <path d="m227.8 544.65h-29.52c-3.8047 0-6.8867-3.082-6.8867-6.8867 0-3.8047 3.082-6.8867 6.8867-6.8867h29.52c3.8047 0 6.8867 3.082 6.8867 6.8867 0.003906 3.8008-3.082 6.8867-6.8867 6.8867z"/>
  <path d="m227.8 574.17h-29.52c-3.8047 0-6.8867-3.082-6.8867-6.8867s3.082-6.8867 6.8867-6.8867h29.52c3.8047 0 6.8867 3.082 6.8867 6.8867 0.003906 3.8008-3.082 6.8867-6.8867 6.8867z"/>
 </g>
</svg>