<?xml version="1.0" encoding="UTF-8"?>
<!-- The Best Svg Icon site in the world: iconSvg.co, Visit us! https://iconsvg.co -->
<svg fill="#000000" width="800px" height="800px" version="1.1" viewBox="144 144 512 512" xmlns="http://www.w3.org/2000/svg">
 <g>
  <path d="m400 274.05c-4.3477 0-7.875-3.5234-7.875-7.8711h-15.742c0.019532 4.8672 1.543 9.6055 4.3633 13.574 2.8164 3.9688 6.793 6.9688 11.379 8.5898v9.3242h15.742l0.003906-9.3242c7.0547-2.4844 12.512-8.168 14.699-15.32 2.1914-7.1523 0.85547-14.918-3.5977-20.93-4.4531-6.0078-11.496-9.5469-18.973-9.5312-3.1836 0-6.0547-1.918-7.2734-4.8594-1.2188-2.9414-0.54687-6.3281 1.707-8.5781 2.25-2.2539 5.6367-2.9258 8.5781-1.707 2.9414 1.2188 4.8594 4.0898 4.8594 7.2734h15.742c-0.019531-4.8672-1.543-9.6094-4.3594-13.578-2.8203-3.9688-6.793-6.9688-11.383-8.5898v-9.3203h-15.746v9.3203c-7.0547 2.4844-12.508 8.1719-14.699 15.32-2.1914 7.1523-0.85547 14.922 3.5977 20.93 4.4531 6.0078 11.496 9.5469 18.977 9.5312 4.3477 0 7.8711 3.5273 7.8711 7.875 0 4.3477-3.5234 7.8711-7.8711 7.8711z"/>
  <path d="m366.23 331.43c-3.1562-2.9141-8.0195-2.9141-11.176 0-0.69531 0.76562-1.2539 1.6445-1.6562 2.5977-0.83594 1.9062-0.83594 4.0781 0 5.9844 0.40234 0.94922 0.96094 1.8281 1.6562 2.5977 3.1016 3.043 8.0742 3.043 11.176 0 0.69531-0.76953 1.2539-1.6484 1.6523-2.5977 0.84375-1.9062 0.84375-4.0781 0-5.9844-0.39844-0.95312-0.95703-1.832-1.6523-2.5977z"/>
  <path d="m444.95 331.43c-3.1602-2.9141-8.0234-2.9141-11.18 0-0.69531 0.76562-1.2539 1.6445-1.6523 2.5977-0.83984 1.9062-0.83984 4.0781 0 5.9844 0.40234 0.94922 0.96094 1.8281 1.6523 2.5977 1.4844 1.4766 3.4961 2.2969 5.5898 2.2812 1.0234 0.011719 2.0391-0.17578 2.9922-0.55078 0.9375-0.45703 1.8125-1.0391 2.5977-1.7305 0.69141-0.76953 1.25-1.6484 1.6523-2.5977 0.83984-1.9062 0.83984-4.0781 0-5.9844-0.39844-0.95312-0.96094-1.832-1.6523-2.5977z"/>
  <path d="m541.7 541.7c-7.4141-0.003906-14.59 2.6133-20.254 7.3906-2.7578-4.5625-6.6211-8.3555-11.234-11.027v-193.16c-0.011719-10.434-4.1641-20.438-11.543-27.816-7.3789-7.3789-17.383-11.531-27.816-11.543h-4.1016c14.027-16.973 21.062-38.652 19.672-60.629s-11.098-42.598-27.152-57.668c-16.055-15.07-37.246-23.461-59.266-23.461s-43.215 8.3906-59.27 23.461c-16.051 15.07-25.762 35.691-27.152 57.668s5.6445 43.656 19.672 60.629h-4.1016c-10.434 0.011719-20.438 4.1641-27.816 11.543-7.3789 7.3789-11.531 17.383-11.543 27.816v236.16c0.011719 9.0703 3.1484 17.859 8.8828 24.887 5.7383 7.0273 13.723 11.859 22.605 13.688v16.531h15.742l0.003907-55.105c-0.015626-4.1758 1.6445-8.1836 4.6133-11.121 3.1445-3.082 7.4062-4.75 11.809-4.6211 3.875-0.003906 7.6016 1.4844 10.41 4.1562 2.8047 2.6758 4.4727 6.3281 4.6562 10.199v40.746c0 4.3477 3.5234 7.875 7.8711 7.875 4.3477 0 7.8711-3.5273 7.8711-7.875v-40.047-0.99219-132.14c0-5.625 3-10.82 7.8711-13.633s10.875-2.8125 15.746 0 7.8711 8.0078 7.8711 13.633v141.7c0 4.3477 3.5234 7.875 7.8711 7.875 4.3477 0 7.875-3.5273 7.875-7.875v-31.488c0.054688-4.2812 1.832-8.3594 4.9258-11.32 3.0898-2.9609 7.2461-4.5547 11.523-4.4219 3.9883 0 7.8125 1.582 10.633 4.4023 2.8203 2.8203 4.4062 6.6445 4.4062 10.633v40.07c0 4.3477 3.5234 7.8711 7.8711 7.8711s7.8711-3.5234 7.8711-7.8711v-31.488c0-5.625 3-10.824 7.8711-13.637s10.875-2.8125 15.746 0c4.8711 2.8125 7.8711 8.0117 7.8711 13.637v39.359c0 4.3477 3.5234 7.8711 7.8711 7.8711s7.8711-3.5234 7.8711-7.8711v-31.488c0-5.625 3.0039-10.824 7.875-13.637 4.8711-2.8125 10.871-2.8125 15.742 0s7.8711 8.0117 7.8711 13.637v62.977h15.742l0.003906-62.977c0-8.3516-3.3164-16.359-9.2227-22.266s-13.914-9.2227-22.266-9.2227zm-212.55-291.27c0-18.789 7.4648-36.809 20.754-50.098 13.285-13.285 31.305-20.75 50.098-20.75 18.789 0 36.809 7.4648 50.098 20.75 13.285 13.289 20.75 31.309 20.75 50.098 0 18.789-7.4648 36.812-20.75 50.098-13.289 13.285-31.309 20.75-50.098 20.75-18.785-0.019532-36.793-7.4922-50.074-20.773-13.285-13.281-20.754-31.289-20.777-50.074zm-7.8711 330.62v22.16c-4.5859-1.6211-8.5625-4.6211-11.379-8.5859-2.8164-3.9688-4.3438-8.707-4.3633-13.574v-7.8711h16.84-0.003906c-0.69141 2.5664-1.0625 5.2109-1.0938 7.8711zm173.18-47.23c-7.3125-0.011719-14.395 2.5391-20.023 7.2109-2.793-4.6758-6.7656-8.5312-11.523-11.18-4.7578-2.6484-10.129-3.9961-15.574-3.9062-5.5664-0.003907-11.039 1.4648-15.852 4.2617v-82.98c0-11.25-6.0039-21.645-15.746-27.27-9.7422-5.625-21.746-5.625-31.488 0-9.7422 5.625-15.742 16.02-15.742 27.27v106.27c-4.7852-2.6328-10.168-3.9883-15.629-3.9375-7.6367 0.011719-15.012 2.8125-20.734 7.8711h-26.613v-188.93h188.93zm0-181.05-188.93-0.003906v-7.8711c0-6.2617 2.4883-12.27 6.918-16.699 4.4258-4.4297 10.434-6.918 16.695-6.918h21.258c10.125 7.125 21.672 11.984 33.848 14.242v9.375h31.488v-9.375c12.191-2.2539 23.75-7.1094 33.891-14.242h21.215c6.2617 0 12.27 2.4883 16.699 6.918 4.4297 4.4297 6.9141 10.438 6.9141 16.699z"/>
  <path d="m224.51 166.14c-3.0742-3.0742-8.0586-3.0742-11.133 0l-47.23 47.23c-2.25 2.2539-2.9258 5.6367-1.707 8.5781s4.0898 4.8594 7.2734 4.8594h23.613v23.617c0 2.0898 0.83203 4.0898 2.3086 5.5664 1.4766 1.4766 3.4766 2.3047 5.5664 2.3047h31.488c2.0859 0 4.0898-0.82812 5.5664-2.3047 1.4766-1.4766 2.3047-3.4766 2.3047-5.5664v-23.617h23.617c3.1836 0 6.0508-1.918 7.2695-4.8594s0.54688-6.3242-1.707-8.5781zm10.18 44.926c-4.3477 0-7.875 3.5234-7.875 7.8711v23.617h-15.742v-23.617c0-2.0859-0.82812-4.0898-2.3047-5.5664s-3.4805-2.3047-5.5664-2.3047h-12.488l28.23-28.23 28.23 28.23z"/>
  <path d="m195.32 274.05h47.23v15.742h-47.23z"/>
  <path d="m195.32 305.54h47.23v15.742h-47.23z"/>
  <path d="m586.62 166.14c-3.0742-3.0742-8.0586-3.0742-11.133 0l-47.23 47.23c-2.25 2.2539-2.9258 5.6367-1.707 8.5781s4.0898 4.8594 7.2734 4.8594h23.617v23.617h-0.003906c0 2.0898 0.83203 4.0898 2.3086 5.5664 1.4766 1.4766 3.4766 2.3047 5.5664 2.3047h31.488c2.0859 0 4.0898-0.82812 5.5664-2.3047 1.4727-1.4766 2.3047-3.4766 2.3047-5.5664v-23.617h23.617c3.1797 0 6.0508-1.918 7.2695-4.8594s0.54297-6.3242-1.707-8.5781zm10.18 44.926c-4.3477 0-7.875 3.5234-7.875 7.8711v23.617h-15.742v-23.617c0-2.0859-0.82812-4.0898-2.3047-5.5664-1.4766-1.4766-3.4805-2.3047-5.5664-2.3047h-12.488l28.23-28.23 28.23 28.23z"/>
  <path d="m557.44 274.05h47.23v15.742h-47.23z"/>
  <path d="m557.44 305.54h47.23v15.742h-47.23z"/>
 </g>
</svg>