<?xml version="1.0" encoding="UTF-8"?>
<!-- The Best Svg Icon site in the world: iconSvg.co, Visit us! https://iconsvg.co -->
<svg fill="#000000" width="800px" height="800px" version="1.1" viewBox="144 144 512 512" xmlns="http://www.w3.org/2000/svg">
 <g>
  <path d="m400 344.89c-4.3477 0-7.875-3.5234-7.875-7.8711h-15.742c0.019532 4.8672 1.543 9.6094 4.3633 13.574 2.8164 3.9688 6.793 6.9688 11.379 8.5938v9.3203h15.742l0.003906-9.3203c7.0547-2.4844 12.512-8.1719 14.699-15.324 2.1914-7.1523 0.85547-14.918-3.5977-20.93-4.4531-6.0078-11.496-9.5469-18.973-9.5312-3.1836 0-6.0547-1.918-7.2734-4.8594s-0.54687-6.3281 1.707-8.5781c2.25-2.2539 5.6367-2.9258 8.5781-1.707 2.9414 1.2188 4.8594 4.0898 4.8594 7.2734h15.742c-0.019531-4.8672-1.543-9.6094-4.3594-13.578-2.8203-3.9688-6.793-6.9688-11.383-8.5898v-9.3203h-15.746v9.3203c-7.0547 2.4844-12.508 8.1719-14.699 15.324-2.1914 7.1484-0.85547 14.918 3.5977 20.926 4.4531 6.0078 11.496 9.5469 18.977 9.5312 4.3477 0 7.8711 3.5273 7.8711 7.875 0 4.3477-3.5234 7.8711-7.8711 7.8711z"/>
  <path d="m400 407.87c22.965 0 44.988-9.125 61.227-25.363 16.242-16.238 25.363-38.266 25.363-61.23s-9.1211-44.988-25.363-61.23c-16.238-16.238-38.262-25.359-61.227-25.359-22.969 0-44.992 9.1211-61.23 25.359-16.238 16.242-25.363 38.266-25.363 61.23 0.027344 22.957 9.1602 44.969 25.391 61.199 16.234 16.234 38.246 25.367 61.203 25.395zm0-157.44c18.789 0 36.809 7.4648 50.098 20.75 13.285 13.289 20.75 31.309 20.75 50.098 0 18.793-7.4648 36.812-20.75 50.098-13.289 13.289-31.309 20.75-50.098 20.75-18.793 0-36.812-7.4609-50.098-20.75-13.289-13.285-20.754-31.305-20.754-50.098 0.023437-18.781 7.4922-36.793 20.777-50.074 13.281-13.281 31.289-20.754 50.074-20.773z"/>
  <path d="m439.36 313.41h15.742v15.742h-15.742z"/>
  <path d="m344.89 313.41h15.742v15.742h-15.742z"/>
  <path d="m608.12 556.59-76.973-157.92c0.27734-0.39453 0.59766-0.73047 0.85156-1.1562 4.9297-8.5156 1.2188-18.75-2.0391-27.789-2.1523-4.543-3.3125-9.4922-3.4062-14.516 0.71484-2.668 5.7773-6.9102 9.8398-10.328 7.5117-6.2969 16.012-13.438 16.012-23.617 0-10.18-8.5-17.32-16.012-23.617-4.0547-3.4102-9.1172-7.6523-9.832-10.32v0.003906c0.089844-5.0273 1.25-9.9805 3.3984-14.527 3.2656-9.0352 6.9648-19.27 2.0391-27.789-4.9297-8.5156-15.801-10.523-25.332-12.211v0.003907c-4.9219-0.39063-9.7031-1.8164-14.035-4.1797-2.3633-4.332-3.7891-9.1172-4.1797-14.035-1.6914-9.5312-3.5977-20.348-12.219-25.34-8.6211-4.9922-18.75-1.2266-27.789 2.0391-4.543 2.1406-9.4883 3.3008-14.516 3.4062-2.668-0.71484-6.9102-5.7773-10.328-9.8398-6.2969-7.5117-13.438-16.012-23.617-16.012-10.18 0-17.32 8.5-23.617 16.012-3.4102 4.0547-7.6523 9.1172-10.32 9.832h0.003906c-5.0273-0.09375-9.9766-1.2539-14.523-3.3984-9.0273-3.2578-19.238-6.9648-27.789-2.0391s-10.492 15.828-12.18 25.363c-0.39063 4.918-1.8125 9.7031-4.1797 14.035-4.332 2.3633-9.1133 3.7891-14.035 4.1797-9.5312 1.6914-20.348 3.5977-25.34 12.219s-1.2188 18.75 2.0391 27.789v-0.003907c2.1523 4.543 3.3164 9.4922 3.4102 14.52-0.71484 2.668-5.7773 6.9102-9.8398 10.328-7.5117 6.2969-16.012 13.438-16.012 23.617s8.5 17.32 16.012 23.617c4.0547 3.4102 9.1172 7.6523 9.832 10.32v-0.003906c-0.09375 5.0273-1.2539 9.9766-3.4023 14.523-3.2656 9.0352-6.9648 19.27-2.0391 27.789 0.25 0.42578 0.57422 0.78906 0.85156 1.1562l-76.973 157.89c-1.2695 2.6055-1.0039 5.7031 0.69531 8.0547 1.6992 2.3516 4.5508 3.5781 7.4258 3.1953l79.113-10.715 40.328 69 0.003906-0.003906c1.4102 2.4141 3.9961 3.8984 6.793 3.8984h0.30078-0.003906c2.8984-0.11328 5.5-1.8086 6.7734-4.418l66.691-136.73 66.699 136.73v-0.003906c1.2695 2.6094 3.875 4.3086 6.7773 4.418h0.29297-0.003906c2.7969 0 5.3828-1.4844 6.7969-3.8984l40.328-69 79.113 10.715c2.875 0.38672 5.7305-0.83984 7.4258-3.1914 1.6992-2.3516 1.9688-5.4492 0.69531-8.0547zm-344.78-235.31c0-2.8164 6.25-8.0625 10.383-11.539 6.7109-4.4648 11.926-10.848 14.957-18.32 1.1523-8.1797-0.17188-16.516-3.8008-23.938-1.668-4.6289-4.4727-12.375-3.2188-14.547 1.25-2.1719 9.2266-3.668 14.461-4.6055 8.1602-0.53516 15.973-3.5117 22.418-8.5508 5.0234-6.4453 7.9883-14.254 8.5156-22.41 0.92969-5.2266 2.3203-13.121 4.5898-14.438 2.2656-1.3164 9.9336 1.5742 14.555 3.2109 7.4219 3.6406 15.766 4.9609 23.949 3.7969 7.4688-3.0352 13.848-8.2461 18.309-14.957 3.4805-4.1094 8.7227-10.359 11.543-10.359 2.8164 0 8.0625 6.25 11.539 10.383 4.4648 6.7109 10.848 11.922 18.316 14.957 8.1836 1.1602 16.523-0.16406 23.941-3.8047 4.6367-1.668 12.391-4.4492 14.547-3.2188 2.2812 1.3242 3.668 9.2266 4.6055 14.461 0.53125 8.1641 3.5117 15.977 8.5469 22.422 6.4492 5.0195 14.258 7.9883 22.414 8.5156 5.2266 0.92969 13.121 2.3203 14.438 4.5898 1.3164 2.2656-1.5742 9.9258-3.2109 14.555h-0.003907c-3.6328 7.4219-4.9531 15.766-3.793 23.945 3.0234 7.4648 8.2188 13.844 14.918 18.312 4.1328 3.4805 10.383 8.7227 10.383 11.539s-6.25 8.0625-10.383 11.539v0.003906c-6.7109 4.4648-11.922 10.848-14.957 18.316-1.1523 8.1797 0.17188 16.52 3.8008 23.938 1.668 4.6289 4.4727 12.375 3.2188 14.547-1.25 2.1719-9.2266 3.668-14.461 4.6055h0.003906c-8.1641 0.53516-15.977 3.5156-22.422 8.5508-5.0156 6.4492-7.9766 14.258-8.5 22.41-0.92969 5.2266-2.3633 13.121-4.5898 14.438-2.2266 1.3164-9.9258-1.5742-14.555-3.2109-7.4258-3.6328-15.766-4.9531-23.949-3.793-7.4609 3.0195-13.84 8.2188-18.309 14.918-3.4805 4.1328-8.7227 10.383-11.539 10.383s-8.0625-6.25-11.539-10.383h-0.003907c-4.4648-6.7148-10.848-11.926-18.316-14.957-1.7734-0.46875-3.5977-0.69922-5.4336-0.6875-6.3789 0.44141-12.633 1.957-18.508 4.4883-4.6289 1.6758-12.375 4.4648-14.547 3.2188-2.1719-1.2422-3.668-9.2266-4.6055-14.461-0.53125-8.1602-3.5117-15.973-8.5469-22.418-6.4492-5.0156-14.258-7.9805-22.414-8.5039-5.2266-0.92969-13.121-2.3203-14.438-4.5898-1.3164-2.2656 1.5742-9.9258 3.2109-14.555h0.003906c3.6328-7.4219 4.9531-15.762 3.793-23.945-3.0195-7.4609-8.2188-13.844-14.918-18.309-4.1484-3.4805-10.398-8.7227-10.398-11.543zm62.27 284.18-33.402-57.137 32.668-66.984-14.168-6.9023-32.637 66.914-65.598 8.9102 34.93-71.637 35.367 17.254 6.9023-14.168-35.375-17.262 27.859-57.16v0.003906c3.6758 1.0234 7.4062 1.8359 11.176 2.4297 4.9219 0.39453 9.7031 1.8164 14.035 4.1836 2.3672 4.332 3.7891 9.1133 4.1797 14.035 1.6914 9.5312 3.5977 20.348 12.219 25.34 8.6211 4.9922 18.75 1.2188 27.789-2.0391 4.5391-2.1562 9.4883-3.3164 14.516-3.4102 2.668 0.71484 6.9102 5.7773 10.328 9.8398 4 5.4062 8.9688 10.023 14.656 13.613l-23.617 48.367-35.312-17.234-6.9023 14.168 35.344 17.242zm196.3-64.102-32.637-66.914-14.168 6.9023 32.668 66.984-33.379 57.129-34.961-71.633 35.344-17.238-6.9023-14.168-35.344 17.238-23.617-48.367c5.707-3.5859 10.691-8.207 14.703-13.621 3.4102-4.0547 7.6523-9.1172 10.32-9.832 5.0273 0.09375 9.9805 1.2539 14.523 3.4023 9.0273 3.2578 19.246 6.9648 27.789 2.0391 8.543-4.9297 10.523-15.801 12.211-25.332 0.39062-4.9219 1.8164-9.7031 4.1797-14.035 4.332-2.3672 9.1133-3.7891 14.035-4.1836 3.7734-0.59766 7.5078-1.4102 11.188-2.4297l27.859 57.152-35.395 17.262 6.9023 14.168 35.367-17.254 34.93 71.637z"/>
 </g>
</svg>