<?xml version="1.0" encoding="UTF-8"?>
<!-- The Best Svg Icon site in the world: iconSvg.co, Visit us! https://iconsvg.co -->
<svg fill="#000000" width="800px" height="800px" version="1.1" viewBox="144 144 512 512" xmlns="http://www.w3.org/2000/svg">
 <g>
  <path d="m620.41 578.43h-10.496v-52.48c0-2.7812-1.1055-5.4531-3.0742-7.4219-1.9688-1.9648-4.6367-3.0742-7.4219-3.0742h-104.96c-5.7969 0-10.496 4.6992-10.496 10.496v52.48h-20.988v-94.465c0-2.7812-1.1094-5.4531-3.0742-7.418-1.9688-1.9688-4.6406-3.0742-7.4219-3.0742h-104.96c-5.7969 0-10.496 4.6992-10.496 10.492v94.465h-20.992v-157.44c0-2.7852-1.1055-5.4531-3.0742-7.4219s-4.6406-3.0742-7.4219-3.0742h-104.96c-5.7969 0-10.496 4.6992-10.496 10.496v157.44h-10.496c-5.7969 0-10.496 4.6992-10.496 10.496s4.6992 10.496 10.496 10.496h440.83c5.7969 0 10.496-4.6992 10.496-10.496s-4.6992-10.496-10.496-10.496z"/>
  <path d="m569.2 462.03-18.055 13.539c-4.6367 3.4766-5.5781 10.055-2.0977 14.695 3.4766 4.6367 10.055 5.5742 14.695 2.0977l41.984-31.488c2.6406-1.9805 4.1953-5.0938 4.1953-8.3945 0-3.3047-1.5547-6.418-4.1953-8.3984l-41.984-31.488c-4.6406-3.4766-11.219-2.5391-14.695 2.0977-3.4805 4.6406-2.5391 11.219 2.0977 14.695l15.324 11.547c-195.75-12.281-301.76-132.77-356.86-234.8-2.9297-4.6758-8.9766-6.2891-13.844-3.6914-4.8672 2.6016-6.8906 8.5234-4.6289 13.559 58.148 107.58 170.14 234.69 378.07 246.03z"/>
  <path d="m483.96 337.02h41.984v41.984h-41.984z"/>
  <path d="m417.95 312.99 3.043-3.1484 0.003907 58.672c0 2.7812 1.1055 5.4531 3.0742 7.4219 1.9648 1.9688 4.6367 3.0742 7.4219 3.0742h31.488v-52.48c0-5.7969 4.6992-10.496 10.496-10.496h62.977-0.003907c2.7852 0 5.4531 1.1055 7.4219 3.0742s3.0742 4.6367 3.0742 7.4219v52.48h31.488c2.7852 0 5.4531-1.1055 7.4219-3.0742s3.0742-4.6406 3.0742-7.4219v-58.676l3.043 3.1484 0.003906 0.003906c4.1133 4.1133 10.785 4.1133 14.902 0 4.1172-4.1172 4.1172-10.789 0-14.906l-94.465-94.465c-1.9688-1.9883-4.6523-3.1055-7.4531-3.1055-2.7969 0-5.4805 1.1172-7.4492 3.1055l-94.465 94.465c-4.1172 4.1172-4.1172 10.789 0 14.906 4.1133 4.1133 10.789 4.1133 14.902 0z"/>
 </g>
</svg>