<?xml version="1.0" encoding="UTF-8"?>
<!-- The Best Svg Icon site in the world: iconSvg.co, Visit us! https://iconsvg.co -->
<svg width="800px" height="800px" version="1.1" viewBox="144 144 512 512" xmlns="http://www.w3.org/2000/svg">
 <defs>
  <clipPath id="c">
   <path d="m400 352h251.9v299.9h-251.9z"/>
  </clipPath>
  <clipPath id="b">
   <path d="m148.09 352h236.91v299.9h-236.91z"/>
  </clipPath>
  <clipPath id="a">
   <path d="m392 148.09h16v47.906h-16z"/>
  </clipPath>
 </defs>
 <g clip-path="url(#c)">
  <path d="m612.54 352.77c-10.434 0.011719-20.438 4.1641-27.816 11.543-7.3789 7.3789-11.531 17.383-11.543 27.816v57.238l-22.633 22.633c-1.1445-8.5117-5.0703-16.406-11.164-22.457-7.3867-7.3711-17.395-11.512-27.828-11.512-10.438 0-20.445 4.1406-27.832 11.512l-72.203 72.195v-0.003906c-7.4062 7.3672-11.555 17.391-11.523 27.836v94.465c0 2.0859 0.82812 4.0898 2.3047 5.5664 1.4766 1.4766 3.4766 2.3047 5.5664 2.3047h125.95c2.0859 0 4.0898-0.82812 5.5664-2.3047 1.4766-1.4766 2.3047-3.4805 2.3047-5.5664v-51.844l98.684-98.676c7.4062-7.3672 11.555-17.391 11.523-27.836v-73.551c-0.011719-10.434-4.1641-20.438-11.543-27.816s-17.383-11.531-27.816-11.543zm23.617 112.91c0.015625 6.2656-2.4727 12.281-6.9141 16.703l-100.99 100.98c-1.4766 1.4727-2.3047 3.4766-2.3086 5.5625v47.23l-110.21 0.003906v-86.594c-0.019532-6.2656 2.4688-12.281 6.9102-16.703l72.203-72.195c5.9688-5.9648 14.664-8.2969 22.812-6.1133 8.1523 2.1836 14.52 8.5508 16.703 16.703 2.1836 8.1484-0.14844 16.844-6.1133 22.812l-57.805 57.805c-2.207 2.2812-2.8281 5.6641-1.5742 8.5781 1.1328 2.3359 3.293 4 5.8398 4.5039 2.543 0.5 5.1758-0.22266 7.1094-1.9531l104.79-104.81c1.4766-1.4766 2.3047-3.4766 2.3047-5.5625v-60.508c0-8.4375 4.5039-16.23 11.809-20.449 7.3086-4.2188 16.309-4.2188 23.617 0 7.3047 4.2188 11.809 12.012 11.809 20.449z"/>
 </g>
 <g clip-path="url(#b)">
  <path d="m305.14 460.67 65.676 65.676c1.4688 1.5195 3.4844 2.3867 5.5938 2.4023 2.1133 0.019531 4.1406-0.8125 5.6367-2.3047 1.4922-1.4922 2.3242-3.5234 2.3047-5.6328-0.019531-2.1133-0.88672-4.1289-2.4023-5.5938l-65.676-65.676c-6.9453-6.9453-16.23-11.043-26.039-11.492-9.8086-0.44531-19.43 2.7852-26.977 9.0664-7.5469 6.2812-12.473 15.156-13.812 24.883l-22.633-22.633v-57.238c0-14.059-7.5-27.055-19.68-34.086-12.176-7.0312-27.18-7.0312-39.359 0-12.176 7.0312-19.68 20.027-19.68 34.086v73.551c-0.03125 10.445 4.1211 20.469 11.523 27.836l98.684 98.676v51.844c0 2.0859 0.83203 4.0898 2.3086 5.5664 1.4766 1.4766 3.4766 2.3047 5.5664 2.3047h110.21c4.3477 0 7.8711-3.5234 7.8711-7.8711s-3.5234-7.8711-7.8711-7.8711h-102.34v-47.234c0-2.0859-0.83203-4.0898-2.3086-5.5625l-100.99-100.98c-4.4414-4.4219-6.9297-10.438-6.9141-16.703v-73.551c0-8.4375 4.5039-16.23 11.809-20.449 7.3086-4.2188 16.309-4.2188 23.617 0 7.3086 4.2188 11.809 12.012 11.809 20.449v60.508c0 2.0859 0.82813 4.0859 2.3047 5.5625l104.81 104.81c1.9531 1.7344 4.6016 2.457 7.1641 1.957s4.7461-2.168 5.9062-4.5078c1.2188-2.9414 0.54297-6.3281-1.7109-8.5781l-57.805-57.805c-4.4297-4.4297-6.918-10.438-6.918-16.703 0-6.2617 2.4883-12.27 6.918-16.699 4.5-4.293 10.48-6.6914 16.703-6.6914 6.2188 0 12.199 2.3984 16.699 6.6914z"/>
 </g>
 <path d="m400 462.98c31.316 0 61.348-12.441 83.492-34.586 22.145-22.145 34.586-52.18 34.586-83.496 0-31.316-12.441-61.352-34.586-83.496-22.145-22.145-52.176-34.586-83.492-34.586s-61.352 12.441-83.496 34.586c-22.145 22.145-34.586 52.18-34.586 83.496 0.035156 31.305 12.488 61.32 34.625 83.457 22.137 22.137 52.148 34.586 83.457 34.625zm0-220.42c27.141 0 53.168 10.781 72.359 29.973 19.195 19.191 29.977 45.223 29.977 72.363s-10.781 53.172-29.977 72.363c-19.191 19.191-45.219 29.973-72.359 29.973-27.145 0-53.172-10.781-72.363-29.973-19.191-19.191-29.973-45.223-29.973-72.363 0.03125-27.133 10.82-53.145 30.008-72.328 19.184-19.184 45.195-29.977 72.328-30.008z"/>
 <path d="m324.99 388.19c2.1914 3.7305 6.9805 5 10.73 2.8359 3.7461-2.1641 5.043-6.9453 2.9062-10.707-11.828-20.441-12.695-45.43-2.3125-66.637 10.387-21.211 30.652-35.852 54.051-39.047 23.395-3.1953 46.848 5.4805 62.535 23.129s21.551 41.957 15.637 64.816c-5.9141 22.863-22.832 41.273-45.113 49.098-22.277 7.8242-46.992 4.0352-65.906-10.105-3.4766-2.6094-8.4102-1.9062-11.02 1.5742-2.6094 3.4766-1.9023 8.4102 1.5742 11.02 23.066 17.285 53.23 21.941 80.434 12.418 27.207-9.5234 47.879-31.973 55.129-59.871 7.25-27.898 0.125-57.574-19-79.141-19.129-21.562-47.742-32.18-76.305-28.312-28.566 3.8672-53.324 21.711-66.027 47.586-12.703 25.875-11.68 56.379 2.7305 81.344z"/>
 <path d="m400.46 368.51h-16.211c-4.3477 0-7.8711 3.5234-7.8711 7.8711 0 4.3477 3.5234 7.8711 7.8711 7.8711h16.211c8.4336-0.082031 16.188-4.6602 20.336-12.008 4.1445-7.3477 4.0547-16.352-0.23438-23.617-4.2891-7.2656-12.129-11.691-20.566-11.605-4.3477 0-7.875-3.5273-7.875-7.875 0-4.3477 3.5273-7.8711 7.875-7.8711h16.207c4.3477 0 7.8711-3.5234 7.8711-7.8711s-3.5234-7.8711-7.8711-7.8711h-16.207c-8.4375 0.082032-16.191 4.6602-20.336 12.008-4.1484 7.3477-4.0586 16.352 0.23047 23.617 4.2891 7.2656 12.133 11.688 20.57 11.605 4.3477 0 7.8711 3.5234 7.8711 7.8711 0 4.3477-3.5234 7.875-7.8711 7.875z"/>
 <g clip-path="url(#a)">
  <path d="m400 195.32c2.0859 0 4.0898-0.82812 5.5664-2.3047 1.4766-1.4766 2.3047-3.4766 2.3047-5.5664v-31.488c0-4.3477-3.5234-7.8711-7.8711-7.8711s-7.875 3.5234-7.875 7.8711v31.488c0 2.0898 0.83203 4.0898 2.3086 5.5664 1.4766 1.4766 3.4766 2.3047 5.5664 2.3047z"/>
 </g>
 <path d="m500.2 236.83c2.0859 0.003906 4.0898-0.82422 5.5625-2.3086l22.262-22.27c1.5195-1.4648 2.3867-3.4805 2.4062-5.5938 0.015625-2.1094-0.8125-4.1406-2.3086-5.6328-1.4922-1.4961-3.5234-2.3242-5.6328-2.3086-2.1133 0.019531-4.1289 0.88672-5.5938 2.4062l-22.262 22.27c-2.25 2.25-2.9258 5.6367-1.707 8.5781s4.0898 4.8594 7.2734 4.8594z"/>
 <path d="m294.24 234.52c3.0898 2.9844 8 2.9414 11.035-0.09375 3.0352-3.0391 3.0781-7.9492 0.09375-11.035l-22.262-22.27c-1.4648-1.5195-3.4805-2.3867-5.5938-2.4062-2.1094-0.015625-4.1406 0.8125-5.6328 2.3086-1.4922 1.4922-2.3242 3.5234-2.3047 5.6328 0.015625 2.1133 0.88281 4.1289 2.4023 5.5938z"/>
</svg>