<?xml version="1.0" encoding="UTF-8"?>
<!-- The Best Svg Icon site in the world: iconSvg.co, Visit us! https://iconsvg.co -->
<svg fill="#000000" width="800px" height="800px" version="1.1" viewBox="144 144 512 512" xmlns="http://www.w3.org/2000/svg">
 <g>
  <path d="m318.5 396.34c0-37.484-30.391-67.879-67.875-67.879-37.488 0-67.879 30.391-67.879 67.879 0 37.488 30.383 67.879 67.879 67.879 37.488 0 67.875-30.391 67.875-67.879zm-107.05-2.5273c-3.4766 0-6.2969-2.8203-6.2969-6.2969 0-11 8.9492-19.941 19.945-19.941 11.004 0 19.949 8.9414 19.949 19.941 0 3.4766-2.8203 6.2969-6.2969 6.2969-3.4766 0-6.2969-2.8203-6.2969-6.2969 0-4.0508-3.3008-7.3438-7.3555-7.3438-4.0547 0-7.3516 3.293-7.3516 7.3438 0.003907 3.4727-2.8203 6.2969-6.2969 6.2969zm71.941 24.477c-5.3203 13.566-18.184 22.34-32.762 22.34-14.172 0-26.895-8.4336-32.414-21.492-1.3555-3.2031 0.14453-6.8984 3.3516-8.2539 3.2148-1.3555 6.9023 0.14062 8.2539 3.3516 3.543 8.3789 11.715 13.793 20.812 13.793 9.3672 0 17.625-5.6289 21.039-14.34 1.2695-3.2383 4.9258-4.832 8.1602-3.5664 3.2305 1.2773 4.8203 4.9297 3.5586 8.168zm6.8438-24.477c-3.4766 0-6.2969-2.8203-6.2969-6.2969 0-4.0508-3.293-7.3438-7.3516-7.3438-4.0547 0-7.3516 3.293-7.3516 7.3438 0 3.4766-2.8203 6.2969-6.2969 6.2969-3.4766 0-6.2969-2.8203-6.2969-6.2969 0-11 8.9492-19.941 19.945-19.941 11 0 19.945 8.9414 19.945 19.941 0.003906 3.4727-2.8125 6.2969-6.2969 6.2969z"/>
  <path d="m285.96 309.66c6.957 0 12.594-5.6367 12.594-12.594 0-34.457 28.027-62.488 62.484-62.488 27.23 0 50.391 17.543 58.926 41.891h-6.2109c-4.7422 0-9.0898 2.6602-11.238 6.8906-2.1445 4.2305-1.7344 9.3086 1.0742 13.133l22.371 30.582c2.3711 3.2461 6.1523 5.1523 10.168 5.1523s7.793-1.9141 10.168-5.1523l22.375-30.582c2.7969-3.8281 3.2109-8.9062 1.0625-13.133-2.1445-4.2266-6.4844-6.8906-11.23-6.8906h-12.316c-9.3086-38.426-43.898-67.082-85.141-67.082-48.344 0-87.672 39.332-87.672 87.68-0.007812 6.957 5.6289 12.594 12.586 12.594z"/>
  <path d="m475.36 486.79c-6.957 0-12.594 5.6367-12.594 12.594 0 34.457-28.031 62.488-62.488 62.488-27.234 0-50.391-17.543-58.93-41.891h6.2188c4.7422 0 9.082-2.6602 11.23-6.8906 2.1445-4.2305 1.7383-9.3086-1.0664-13.133l-22.371-30.582c-2.3711-3.2461-6.1445-5.1523-10.168-5.1523-4.0195 0-7.793 1.9141-10.168 5.1523l-22.371 30.582c-2.8047 3.8281-3.2148 8.9062-1.0664 13.133 2.1523 4.2305 6.4883 6.8906 11.23 6.8906h12.316c9.3008 38.426 43.891 67.082 85.133 67.082 48.344 0 87.68-39.332 87.68-87.68 0.007812-6.9531-5.6289-12.594-12.586-12.594z"/>
  <path d="m380.45 456.95c4.1758 0 7.5586-3.3867 7.5586-7.5586v-6.125c15.68-3.3359 21.582-18.164 21.582-27.629 0-7.0312-2.5586-17.852-18.777-23.438l-14.57-4.8008c-2.2383-0.71875-11.324-3.9531-10.359-12.941 0.36328-3.4297 1.3672-6.0664 4.1094-7.8711 2.2305-1.4375 5.0078-2.1562 8.3047-2.1562 5.6055 0 9.4219 0.94531 11.914 4.1719 1.3672 1.8672 1.8086 3.2383 2.1875 6.4727 0 0 0.44141 5.332 6.8203 5.332 6.3828 0 7.3672-5.0742 7.4961-5.9844 0.55859-4.1406-1.6836-11.078-4.832-15.195-3.4023-4.4648-8.1562-7.25-13.887-8.5938v-6.8633c0-4.1719-3.3789-7.5586-7.5586-7.5586-4.1758 0-7.5586 3.3867-7.5586 7.5586v6.4023c-6.9219 1.1172-12.227 4.0898-15.875 8.9727-3.3594 4.5234-8.9766 13.246-3.2227 28.32 4.957 13 28.621 17.148 28.621 17.148 4.4219 1.082 12.867 2.7773 12.891 12.969 0.003907 3.707-2.2617 10.617-12.984 11.445-0.60547-0.15234-1.2188-0.26172-1.8672-0.26172-0.71484 0-1.3906 0.13281-2.0469 0.3125-5.6133-0.52344-12.348-3.5586-12.348-13.121 0 0 0.10547-5.5508-6.8203-5.5508-6.9258 0-7.4609 5.5508-7.4609 5.5508 0 7.0391 1.0078 11.996 4.6836 16.809 5.1484 6.8047 11.352 9.4258 16.438 10.469v6.1445c0.003907 4.1836 3.3867 7.5703 7.5625 7.5703z"/>
  <path d="m568.94 386.63c4.957 0 9.4453-2.9531 11.418-7.5078 1.9688-4.5547 1.043-9.8398-2.3633-13.457l-59.785-46.266c-2.3438-2.5-5.6172-3.9141-9.0625-3.9141-3.4141 0-6.6992 1.4141-9.043 3.9141l-59.801 46.266c-3.3945 3.6172-4.3164 8.9023-2.3633 13.457 1.9688 4.5547 6.4531 7.5078 11.418 7.5078h7.6484v39.105h-6.6094c-6.3477 0-11.48 5.1445-11.48 11.492 0 6.3477 5.1406 11.492 11.48 11.492h117.52c6.3477 0 11.492-5.1445 11.492-11.492 0-6.3477-5.1445-11.492-11.492-11.492h-6.6055v-39.105zm-80.246 25.613c0 4.1719-3.3867 7.5586-7.5586 7.5586s-7.5586-3.3867-7.5586-7.5586v-23.723c0-4.1719 3.3867-7.5586 7.5586-7.5586s7.5586 3.3867 7.5586 7.5586zm28.016 0c0 4.1719-3.3867 7.5586-7.5586 7.5586s-7.5586-3.3867-7.5586-7.5586v-23.723c0-4.1719 3.3867-7.5586 7.5586-7.5586s7.5586 3.3867 7.5586 7.5586zm28.016 0c0 4.1719-3.3867 7.5586-7.5586 7.5586s-7.5586-3.3867-7.5586-7.5586v-23.723c0-4.1719 3.3867-7.5586 7.5586-7.5586s7.5586 3.3867 7.5586 7.5586z"/>
 </g>
</svg>