<?xml version="1.0" encoding="UTF-8"?>
<!-- The Best Svg Icon site in the world: iconSvg.co, Visit us! https://iconsvg.co -->
<svg fill="#000000" width="800px" height="800px" version="1.1" viewBox="144 144 512 512" xmlns="http://www.w3.org/2000/svg">
 <g>
  <path d="m502 403.62c-1.6211-4.2852-4.5078-7.9766-8.2812-10.578-3.7734-2.6016-8.25-3.9922-12.832-3.9844h-1.3281c-3.7266 0.17188-7.3594-1.1797-10.066-3.75-2.707-2.5664-4.2461-6.125-4.2695-9.8555v-0.73438 0.003906c0.32812-6.3125-1.9805-12.48-6.3711-17.027-4.3945-4.543-10.477-7.0625-16.797-6.9531-6.3203 0.10938-12.309 2.8398-16.543 7.5352-2.5703 2.8789-6.2578 4.5156-10.121 4.4922-3.8672-0.015626-7.5508-1.6445-10.168-4.4922-3.0273-3.4727-7.0586-5.9219-11.539-7.0039-4.4805-1.0859-9.1875-0.75-13.469 0.96094-4.3281 1.6094-8.0625 4.5117-10.691 8.3125-2.6289 3.8008-4.0273 8.3164-4.0078 12.938v1.2383c0.25391 3.7109-1.0781 7.3555-3.6641 10.031-2.5586 2.7695-6.168 4.3359-9.9414 4.3047h-0.6875c-6.1875-0.38281-12.262 1.8242-16.762 6.0898-4.6094 4.3984-7.2227 10.484-7.2344 16.855-0.003906 1.6641 0.17969 3.3242 0.54688 4.9453 0.09375 0.51562 0.23438 1.0195 0.41406 1.5117 0.078125 0.35938 0.1875 0.71094 0.32031 1.0547 0.1875 0.56641 0.41797 1.1172 0.6875 1.6484 1.2891 2.8828 3.1797 5.4609 5.5391 7.5586 0.50391 0.50391 1.0078 1.0078 1.5117 1.5586 0.41406 0.55078 0.82422 1.0977 1.1914 1.6953h2.3359v-0.003907c1.7617-0.003906 3.3672-1.0195 4.1211-2.6094 0.64453-1.3594 0.59375-2.9453-0.13672-4.2617-0.13672-0.22266-0.28906-0.4375-0.45703-0.64062-0.73438-0.90625-1.5469-1.75-2.4258-2.5195-2.8828-2.4922-4.5234-6.1289-4.4883-9.9375 0.027344-3.8594 1.6133-7.5391 4.3945-10.215 2.7305-2.6055 6.4531-3.9062 10.215-3.5703h0.91797-0.003906c6.2852-0.011718 12.293-2.5938 16.629-7.1445 4.2422-4.4453 6.4648-10.445 6.1367-16.582v-1.0078c0.023437-5.6328 3.5117-10.672 8.7773-12.68 5.2617-2.0078 11.219-0.57422 14.992 3.6133 4.3281 4.7812 10.473 7.5078 16.922 7.5078s12.598-2.7266 16.926-7.5078c3.8906-4.3438 10.113-5.7344 15.484-3.457 5.3711 2.2773 8.6992 7.7148 8.2852 13.531v0.96094c0.03125 6.2578 2.6094 12.227 7.1445 16.535 4.4336 4.2695 10.434 6.5234 16.582 6.2305h1.0977c5.6094-0.035156 10.641 3.4414 12.594 8.6992 2.0977 5.3086 0.62891 11.359-3.6641 15.117-0.83594 0.76563-1.6133 1.5938-2.3359 2.4727-0.046874 0.046875-0.046874 0.046875-0.046874 0.089843h0.003906c-1.0664 1.3828-1.25 3.2461-0.48438 4.8125 0.76953 1.5664 2.3594 2.5586 4.1016 2.5625h2.3828c0.35547-0.59375 0.75-1.1602 1.1914-1.6953 0.42578-0.54688 0.89844-1.0508 1.418-1.5117 1.9023-1.7109 3.5117-3.7227 4.7617-5.9531 0.097656-0.16016 0.17187-0.32812 0.23047-0.50391 0.32031-0.55859 0.59766-1.1406 0.82422-1.7422 0.30078-0.59375 0.53125-1.2266 0.6875-1.875 0.22656-0.62891 0.41016-1.2734 0.55078-1.9258 0.035156-0.11719 0.050782-0.24219 0.042969-0.36328 0.13672-0.64062 0.23047-1.2812 0.32031-1.8789 0.39453-3.6992-0.10938-7.4375-1.4648-10.902z"/>
  <path d="m619.84 207.92v230.33c-0.007812 7.5586-3.0078 14.805-8.3477 20.156-5.3398 5.3477-12.582 8.3594-20.141 8.3789h-78.641c0.039062-0.33594 0.054687-0.67188 0.046875-1.0078 0-2.1523-0.21484-4.3008-0.64453-6.4102-1.4531-6.6523-4.9609-12.676-10.027-17.223-0.92969-0.82422-1.4492-2.0117-1.4219-3.25 0.007812-1.0078 0.36328-1.9805 1.0078-2.75l0.41406-0.45703 0.13672-0.13672c1.207-1.1016 2.3242-2.2969 3.3438-3.5742h33.066c1.2148 0 2.3789-0.48437 3.2383-1.3398 0.85938-0.85938 1.3438-2.0273 1.3438-3.2383 0.015625-9.8672 3.9453-19.324 10.926-26.297 6.9805-6.9727 16.441-10.891 26.309-10.895 1.2148 0 2.3789-0.48438 3.2383-1.3438 0.85938-0.85547 1.3438-2.0234 1.3438-3.2383v-124.95c0-1.2148-0.48438-2.3789-1.3438-3.2383s-2.0234-1.3398-3.2383-1.3398c-9.8633-0.011718-19.32-3.9336-26.297-10.906-6.9805-6.9688-10.914-16.422-10.938-26.285 0-1.2148-0.48438-2.3789-1.3438-3.2383s-2.0234-1.3398-3.2383-1.3398h-277.28c-2.5312 0-4.582 2.0508-4.582 4.5781-0.011719 9.8594-3.9375 19.312-10.906 26.281-6.9727 6.9727-16.422 10.895-26.281 10.91-2.5312 0-4.582 2.0508-4.582 4.5781v124.95c0 1.2148 0.48438 2.3828 1.3438 3.2383 0.85938 0.85938 2.0234 1.3438 3.2383 1.3438 9.8594 0.007813 19.316 3.9258 26.289 10.898 6.9727 6.9727 10.895 16.43 10.898 26.293 0 1.2109 0.48438 2.3789 1.3438 3.2383 0.85938 0.85547 2.0234 1.3398 3.2383 1.3398h63.848c0.98438 1.207 2.0547 2.3398 3.2031 3.3906 0.3125 0.26562 0.60547 0.55469 0.87109 0.86719 0.55469 0.77734 0.85547 1.707 0.87109 2.6602 0.015625 1.2695-0.53906 2.4805-1.5117 3.2969-5.0625 4.5156-8.543 10.535-9.9375 17.176-0.49609 2.4375-0.69531 4.9297-0.59766 7.418h-109.42c-7.5625-0.007812-14.816-3.0156-20.168-8.3672-5.3477-5.3477-8.3555-12.602-8.3633-20.168v-230.33c0.011719-7.5547 3.0234-14.797 8.375-20.129 5.3516-5.3359 12.602-8.3242 20.156-8.3125h382.67c7.5469-0.003906 14.789 2.9922 20.129 8.3242 5.3438 5.3359 8.3477 12.57 8.3594 20.117z"/>
  <path d="m580.45 256.1c-9.8633-0.011718-19.32-3.9336-26.297-10.906-6.9805-6.9688-10.914-16.422-10.938-26.285 0-1.2148-0.48438-2.3789-1.3438-3.2383s-2.0234-1.3398-3.2383-1.3398h-277.28c-2.5312 0-4.582 2.0508-4.582 4.5781-0.011719 9.8594-3.9375 19.312-10.906 26.281-6.9727 6.9727-16.422 10.895-26.281 10.91-2.5312 0-4.582 2.0508-4.582 4.5781v124.95c0 1.2148 0.48438 2.3828 1.3438 3.2383 0.85938 0.85938 2.0234 1.3438 3.2383 1.3438 9.8594 0.007813 19.316 3.9258 26.289 10.898 6.9727 6.9727 10.895 16.43 10.898 26.293 0 1.2109 0.48438 2.3789 1.3438 3.2383 0.85938 0.85547 2.0234 1.3398 3.2383 1.3398h63.848c-2.2695-2.7188-4.0391-5.8203-5.2227-9.1602h-54.273c-1.0703-10.652-5.7891-20.609-13.359-28.184-7.5703-7.5703-17.527-12.289-28.184-13.359v-116.24c10.652-1.0742 20.605-5.7969 28.176-13.367 7.5664-7.5703 12.289-17.523 13.367-28.172h268.57c1.0781 10.656 5.8086 20.613 13.387 28.184 7.5781 7.5703 17.543 12.289 28.203 13.355v116.24c-10.664 1.0586-20.629 5.7773-28.211 13.348-7.582 7.5742-12.309 17.535-13.379 28.195h-23.402c-1.2305 3.3359-3.0273 6.4375-5.3125 9.1602h33.066c1.2148 0 2.3789-0.48437 3.2383-1.3398 0.85938-0.85938 1.3438-2.0273 1.3438-3.2383 0.015625-9.8672 3.9453-19.324 10.926-26.297 6.9805-6.9727 16.441-10.891 26.309-10.895 1.2148 0 2.3789-0.48438 3.2383-1.3438 0.85938-0.85547 1.3438-2.0234 1.3438-3.2383v-124.95c0-2.5273-2.0508-4.5781-4.582-4.5781z"/>
  <path d="m415.43 405.88c-8.7578-0.011718-17.164 3.457-23.367 9.6406-6.1992 6.1875-9.6914 14.582-9.7031 23.344-0.007812 8.7578 3.4609 17.164 9.6484 23.363 6.1875 6.1992 14.582 9.6875 23.344 9.6992 8.7578 0.007813 17.16-3.4648 23.359-9.6523 6.1992-6.1875 9.6875-14.586 9.6953-23.344-0.011718-8.75-3.4883-17.137-9.668-23.332-6.1797-6.1914-14.559-9.6875-23.309-9.7188z"/>
  <path d="m503.14 461.24c-1.0273-4.7266-3.5273-9.0117-7.1445-12.227-5.4023-4.8672-6.0078-13.129-1.3711-18.734 0.42578-0.54688 0.89844-1.0508 1.418-1.5117 4.5664-4.1367 7.2617-9.9453 7.4766-16.102 0.21875-6.1562-2.0664-12.137-6.332-16.586-4.2617-4.4453-10.145-6.9766-16.305-7.0195h-1.3281c-3.7266 0.17188-7.3594-1.1797-10.066-3.75-2.707-2.5664-4.2461-6.125-4.2695-9.8555v-0.73438 0.003906c0.32812-6.3125-1.9805-12.48-6.3711-17.027-4.3945-4.543-10.477-7.0625-16.797-6.9531-6.3203 0.10938-12.309 2.8398-16.543 7.5352-2.5703 2.8789-6.2578 4.5156-10.121 4.4922-3.8672-0.015626-7.5508-1.6445-10.168-4.4922-3.0273-3.4727-7.0586-5.9219-11.539-7.0039-4.4805-1.0859-9.1875-0.75-13.469 0.96094-4.3281 1.6094-8.0625 4.5117-10.691 8.3125-2.6289 3.8008-4.0273 8.3164-4.0078 12.938v1.2383c0.25391 3.7109-1.0781 7.3555-3.6641 10.031-2.5586 2.7695-6.168 4.3359-9.9414 4.3047h-0.6875c-6.1875-0.38281-12.262 1.8242-16.762 6.0898-4.6094 4.3984-7.2227 10.484-7.2344 16.855-0.015625 6.3945 2.7188 12.484 7.5078 16.719 0.50391 0.50391 1.0078 1.0078 1.5117 1.5586v-0.003906c1.9766 2.4375 3.0586 5.4766 3.0703 8.6133 0.015625 3.8672-1.6367 7.5547-4.5352 10.121-3.6133 3.2109-6.1016 7.4961-7.0977 12.227-1.3555 6.8008 0.39062 13.855 4.7617 19.238 4.2461 5.3086 10.699 8.3672 17.496 8.2891h1.2812c3.7109-0.23828 7.3516 1.0898 10.031 3.6641 2.7344 2.582 4.2773 6.1797 4.2617 9.9375v0.73438c-0.27734 5.0234 1.1289 9.9961 4 14.129 2.8711 4.1328 7.0391 7.1875 11.848 8.6797 2.2969 0.79688 4.7109 1.1992 7.1445 1.1914 6.4102 0.003906 12.508-2.7695 16.715-7.6016 2.6641-2.7461 6.3242-4.2969 10.145-4.2969 3.8242 0 7.4844 1.5508 10.145 4.2969 4.1289 4.5742 9.9336 7.2852 16.094 7.5117 6.1562 0.22656 12.145-2.0547 16.594-6.3164 4.4531-4.2656 6.9844-10.148 7.0234-16.312v-1.3359c-0.18359-3.7227 1.168-7.3594 3.7383-10.062 2.5703-2.6992 6.1367-4.2266 9.8633-4.2266h0.73438c6.207 0.39062 12.293-1.8164 16.809-6.0938 5.7969-5.5 8.3594-13.598 6.7773-21.434zm-87.707 19.824c-11.191 0.011719-21.934-4.4258-29.852-12.332-7.9219-7.9102-12.371-18.645-12.379-29.836-0.003906-11.191 4.4414-21.93 12.355-29.844 7.9141-7.9141 18.652-12.359 29.844-12.355 11.191 0.003906 21.926 4.457 29.836 12.379 7.9062 7.918 12.344 18.66 12.332 29.852-0.027343 11.168-4.4727 21.871-12.371 29.766-7.8945 7.8984-18.598 12.344-29.766 12.371z"/>
  <path d="m452.53 534.57v81.344c-0.011719 1.793-1.0625 3.4141-2.6914 4.1641-1.6289 0.74609-3.5469 0.48047-4.9102-0.68359l-29.496-25.559-29.543 25.559c-0.84375 0.71484-1.9141 1.1055-3.0234 1.0977-0.64844 0.023437-1.293-0.11719-1.875-0.41016-1.6523-0.72656-2.7148-2.3633-2.7031-4.168v-81.344h0.046876c3.2695 1.1367 6.707 1.7109 10.168 1.6953 8.9883 0.019531 17.551-3.8359 23.496-10.582 0.89453-0.89062 2.1211-1.3711 3.3867-1.3281 1.2461-0.058594 2.457 0.40625 3.3438 1.2852 4.0742 4.6016 9.4062 7.9102 15.34 9.5234 5.9336 1.6094 12.207 1.4531 18.051-0.45703z"/>
  <path d="m504.6 262.62h-209.2c-2.5312 0-4.5781-2.0508-4.5781-4.5781 0-2.5312 2.0469-4.582 4.5781-4.582h209.2c2.5312 0 4.582 2.0508 4.582 4.582 0 2.5273-2.0508 4.5781-4.582 4.5781z"/>
  <path d="m504.6 307.56h-209.2c-2.5312 0-4.5781-2.0508-4.5781-4.5781 0-2.5312 2.0469-4.582 4.5781-4.582h209.2c2.5312 0 4.582 2.0508 4.582 4.582 0 2.5273-2.0508 4.5781-4.582 4.5781z"/>
 </g>
</svg>