<?xml version="1.0" encoding="UTF-8"?>
<!-- The Best Svg Icon site in the world: iconSvg.co, Visit us! https://iconsvg.co -->
<svg fill="#000000" width="800px" height="800px" version="1.1" viewBox="144 144 512 512" xmlns="http://www.w3.org/2000/svg">
 <g>
  <path d="m567.93 258.3h-31.488v-31.488c0-2.9023-2.3516-5.2461-5.2461-5.2461h-52.48c-2.8984 0-5.2461 2.3477-5.2461 5.2461v31.488h-31.488c-2.8984 0-5.2461 2.3477-5.2461 5.2461v18.32c-15.191-5.1133-31.043-7.8125-47.23-7.8125-81.75 0-148.25 66.504-148.25 148.25-0.007812 81.75 66.496 148.26 148.25 148.26s148.25-66.508 148.25-148.26c0-24.309-6.0391-48.219-17.383-69.535h10.828c2.8984 0 5.2461-2.3477 5.2461-5.2461v-31.488h31.488c2.8984 0 5.2461-2.3477 5.2461-5.2461v-47.23c0.003906-2.9062-2.3477-5.2539-5.2461-5.2539zm-58.949 95.395c11.953 20.773 18.273 44.496 18.273 68.605 0 75.969-61.797 137.76-137.75 137.76-75.961 0-137.76-61.793-137.76-137.76 0-75.961 61.797-137.75 137.75-137.75 16.23 0 32.125 2.8125 47.23 8.3242l0.003906 17.906c0 2.9023 2.3516 5.2461 5.2461 5.2461h31.488v31.488c0 2.9023 2.3516 5.2461 5.2461 5.2461h29.957c0.11328 0.3125 0.14453 0.64062 0.3125 0.93359zm53.703-48.16h-31.488c-2.8984 0-5.2461 2.3477-5.2461 5.2461v31.488h-41.984v-31.488c0-2.9023-2.3516-5.2461-5.2461-5.2461h-31.488v-36.734h31.488c2.8984 0 5.2461-2.3477 5.2461-5.2461v-31.488h41.984v31.488c0 2.9023 2.3516 5.2461 5.2461 5.2461h31.488z"/>
  <path d="m389.5 326.23c-52.969 0-96.066 43.098-96.066 96.07 0 12.289 2.2891 24.25 6.7891 35.539 1.0703 2.6992 4.1133 4.0156 6.8164 2.9336 2.6914-1.0703 4.0039-4.125 2.9297-6.8164-4.0078-10.055-6.0391-20.703-6.0391-31.656 0-47.184 38.383-85.574 85.57-85.574 47.184 0 85.57 38.383 85.57 85.574 0 47.18-38.383 85.57-85.57 85.57-4.6328 0-9.2422-0.36328-13.676-1.082-2.8828-0.46875-5.5586 1.4844-6.0195 4.3438-0.46094 2.8594 1.4844 5.5586 4.3438 6.0156 4.9961 0.80469 10.16 1.2109 15.355 1.2109 52.969 0 96.066-43.098 96.066-96.066-0.007813-52.965-43.102-96.062-96.07-96.062z"/>
  <path d="m353.98 500.18c-9.3086-4.2617-17.711-10.098-24.969-17.352-3.5625-3.5742-6.7969-7.4219-9.6133-11.434-1.6602-2.3789-4.9336-2.9492-7.3086-1.2891-2.3711 1.6641-2.9492 4.9336-1.2852 7.3086 3.1602 4.5117 6.7852 8.832 10.781 12.832 8.1484 8.1484 17.582 14.699 28.031 19.477 0.70703 0.32422 1.4492 0.47656 2.1836 0.47656 1.9883 0 3.8945-1.1406 4.7773-3.0664 1.1992-2.6406 0.035156-5.7539-2.5977-6.9531z"/>
  <path d="m388.09 460.04c-10.266 0-17.535-3.707-24.66-7.5508l-5.4844 9.5469c7.418 5.5586 15.812 8.6992 26.309 9.4062v12.52h10.496v-12.664c15.742-2.1367 25.18-14.543 25.18-29.363 0-38.059-47.918-23.09-47.918-45.898 0-7.9805 2.9062-15.25 16.879-15.25 6.2695 0 13.781 1.7109 21.621 6.8438l5.7344-9.1211c-6.418-4.8516-16.246-7.8438-21.496-8.6992v-11.797h-10.496v11.797c-15.742 1.4219-24.16 10.832-24.16 26.371 0 35.492 47.711 16.246 47.711 46.75-0.007813 9.5547-4.8867 17.109-19.715 17.109z"/>
 </g>
</svg>