<?xml version="1.0" encoding="UTF-8"?>
<!-- The Best Svg Icon site in the world: iconSvg.co, Visit us! https://iconsvg.co -->
<svg fill="#000000" width="800px" height="800px" version="1.1" viewBox="144 144 512 512" xmlns="http://www.w3.org/2000/svg">
 <g>
  <path d="m606.75 571.5h-55.477v-132.14h55.477c2.1914-0.10938 3.9141-1.9141 3.9141-4.1094 0-2.1914-1.7227-4-3.9141-4.1094h-59.59c-2.2656 0-4.1016 1.8398-4.1016 4.1055v24.008l-85.48-27.906c-6.6484-2.0273-13.5-3.3008-20.43-3.7969v-74.785c-0.003906-2.2656-1.8438-4.1016-4.1133-4.1016h-73.07v-52.863c-0.007813-2.2656-1.8477-4.1016-4.1133-4.1016h-104.83c-2.2656 0-4.1016 1.8359-4.1016 4.1016v173.25l-26.883-12.684c-6.707-3.1289-14.547-2.6172-20.789 1.3594-6.2422 3.9766-10.02 10.867-10.016 18.266 0.003906 7.4023 3.7852 14.289 10.031 18.262l122.93 77.734h0.003906c5.8789 3.7422 12.707 5.7305 19.68 5.7383 2.4688-0.003907 4.9297-0.25 7.3477-0.73828l160.77-32.473h33.074v31.008-0.003906c0 2.2695 1.8359 4.1055 4.1016 4.1055h59.594c2.1914-0.10938 3.9102-1.9141 3.9102-4.1094 0-2.1914-1.7188-4-3.9102-4.1094zm-226.12-144.21c-2.2734 0-4.1133 1.8438-4.1133 4.1133v14.762l-16.551 8.1875v-44.684h68.969v17.711c-7.8477 0.066407-15.621 1.4961-22.977 4.2227l-21.227 10.539v-10.738c0-2.2656-1.8359-4.1055-4.1016-4.1133zm-81.957 0h-0.003907c-2.2695 0-4.1094 1.8438-4.1094 4.1133v22.898h-14.387v-22.898c0.054687-1.1211-0.35547-2.2188-1.1328-3.0352-0.77344-0.81641-1.8516-1.2773-2.9766-1.2773s-2.2031 0.46094-2.9805 1.2773c-0.77344 0.81641-1.1836 1.9141-1.1289 3.0352v22.898h-16.816v-44.633h96.648v44.633h-49.004v-22.898c0-1.0938-0.43359-2.1406-1.2109-2.9141-0.77344-0.77344-1.8242-1.2031-2.9219-1.1992zm29.52-70.465 23.594 0.003906v44.625l-49.023-0.003906v-0.19531-26.027c0-2.2695-1.8398-4.1133-4.1133-4.1133-2.2695 0-4.1133 1.8438-4.1133 4.1133v26.027c-0.003906 0.066407-0.003906 0.13281 0 0.19531h-14.383c0.003906-0.0625 0.003906-0.12891 0-0.19531v-26.027c0.054687-1.125-0.35547-2.2227-1.1328-3.0352-0.77344-0.81641-1.8516-1.2773-2.9766-1.2773s-2.2031 0.46094-2.9805 1.2773c-0.77344 0.8125-1.1836 1.9102-1.1289 3.0352v26.027 0.19531h-16.797v-44.621zm100.74 44.625h-44.203v-22.402c-0.10547-2.1914-1.9141-3.9141-4.1094-3.9141-2.1914 0-4 1.7227-4.1055 3.9141v22.406l-16.551-0.003906v-44.621h68.969zm-77.148-101.54v48.699h-49.004v-21.922c0-2.2734-1.8398-4.1133-4.1133-4.1133-2.2695 0-4.1094 1.8398-4.1094 4.1133v21.922h-14.387v-21.922c-0.10938-2.1914-1.918-3.9141-4.1094-3.9141-2.1953 0-4 1.7227-4.1094 3.9141v21.922h-16.816v-48.699zm-96.648 171.29v-8.6797h88.234c-15.605 7.6641-28.918 14.148-32.414 15.664-4.6445 1.9688-14.484 6.6797-18.281 12.449l-37.852-17.816c0.20703-0.51562 0.3125-1.0625 0.3125-1.6172zm254.45 65.191c-0.27344 0-0.54688 0.027344-0.81641 0.078125l-161.17 32.473h-0.003906c-7.2617 1.4531-14.801 0.042969-21.047-3.9336l-122.93-77.734-0.003906-0.003907c-5.9883-3.7969-7.9961-11.598-4.582-17.812 3.418-6.2148 11.078-8.707 17.492-5.6836l76.113 35.895c0.17578 0.21484 0.35547 0.44141 0.55078 0.64844 1.7227 3.4141 8.9258 14.762 28.723 14.762 5.3789-0.0625 10.73-0.76172 15.941-2.0859l71.074-17.25-1.9688-7.9883-71.074 17.258c-28.613 6.8867-35.238-8.0195-35.492-8.6211-0.21094-0.51562-0.51953-0.98438-0.90234-1.3867 1.3086-2.1953 7.9297-6.4336 14.68-9.3086 9.8398-4.2891 91.926-45.086 95.066-46.66 20.723-7.9883 45.48 0 45.746 0.070313l86.938 28.387h-0.003906c0.36328 0.10937 0.73438 0.17187 1.1133 0.17578v68.672z"/>
  <path d="m381.2 271.87c-0.070312 0.12891-0.14844 0.25391-0.20703 0.39453-0.21484 0.50391-0.32422 1.0469-0.32422 1.5938v0.30469c0.007813 0.16797 0.027344 0.33594 0.058594 0.50391 0.027344 0.13281 0.066406 0.26562 0.11719 0.39062 0 0.12891 0.070312 0.25391 0.11719 0.375 0.078125 0.18359 0.16797 0.35547 0.27734 0.52344 0 0.058594 0.058594 0.11719 0.097656 0.17578 0.12109 0.17188 0.25 0.33594 0.39453 0.49219l0.097657 0.11719c0.16797 0.17187 0.35547 0.32422 0.55078 0.46094 0.47266 0.32422 1.0039 0.54688 1.5664 0.65234 2.2227 0.47266 36.664 8.3633 36.664 45.422-0.058594 1.1211 0.35156 2.2227 1.1289 3.0352 0.77344 0.81641 1.8516 1.2773 2.9766 1.2773s2.2031-0.46094 2.9805-1.2773c0.77344-0.8125 1.1836-1.9141 1.1289-3.0352 0-36.82 34.016-44.852 36.625-45.41h0.20703v-0.003907c0.19922-0.046875 0.39844-0.10938 0.58984-0.1875l0.21484-0.097656c0.16016-0.074219 0.31641-0.16016 0.46484-0.25391l0.20703-0.13672v-0.003906c0.14062-0.10156 0.27344-0.21484 0.40234-0.33203 0.050781-0.058593 0.10547-0.10937 0.16797-0.16016 0.125-0.14062 0.24219-0.28516 0.35156-0.44141l0.10938-0.14844c0.11719-0.18359 0.21875-0.37891 0.30469-0.57812 0.019531-0.027344 0.039062-0.058594 0.050781-0.089844 0.10156-0.24219 0.17578-0.49219 0.22656-0.74609 0.023437-0.26953 0.050781-0.53906 0.078124-0.80859 0-0.54688-0.10547-1.0898-0.31641-1.5938-0.070312-0.15625-0.15234-0.30859-0.24609-0.45312-0.035156-0.082031-0.078124-0.16016-0.125-0.23438-0.125-0.18359-0.26172-0.35547-0.41406-0.51172l-0.078125-0.097657v-0.003906c-0.17969-0.17969-0.375-0.34375-0.58203-0.49219-0.46875-0.32031-0.99609-0.54297-1.5547-0.64844-2.0859-0.44141-36.684-8.2852-36.684-45.43-0.10937-2.1914-1.9141-3.9141-4.1094-3.9141-2.1914 0-4 1.7227-4.1055 3.9141 0 37.164-34.629 45-36.672 45.43h-0.003906c-0.55469 0.10547-1.0781 0.32422-1.543 0.64062l-0.13672 0.10938c-0.15625 0.12891-0.32422 0.25391-0.46094 0.39453-0.13672 0.13672-0.10937 0.12891-0.15625 0.1875l-0.003906-0.003906c-0.125 0.13672-0.23828 0.27734-0.34766 0.42578 0.019531 0.066406 0.019531 0.17578-0.085938 0.27344zm43.602-25.75c6.3359 15.164 18.695 23.457 27.867 27.73-9.1602 4.2695-21.531 12.566-27.867 27.73-6.3359-15.164-18.695-23.457-27.867-27.73 9.1602-4.2734 21.527-12.598 27.867-27.73z"/>
  <path d="m476.22 386.72c0.10547 0.51953 0.30859 1.0078 0.60156 1.4492v0.050781-0.003906c0.12891 0.19141 0.27344 0.36719 0.43359 0.53125l0.10938 0.11719c0.14844 0.12891 0.29688 0.25391 0.45312 0.375l0.17578 0.11719v0.003906c0.15234 0.097657 0.31641 0.18359 0.48047 0.26562l0.20703 0.097656c0.1875 0.074219 0.38281 0.13672 0.58203 0.1875h0.12891c0.98438 0.20703 24.688 5.4023 24.688 30.504 0.10547 2.1875 1.9141 3.9102 4.1055 3.9102 2.1953 0 4.0039-1.7227 4.1094-3.9102 0-25.152 23.684-30.348 24.68-30.504 1.4766-0.28906 2.6797-1.3672 3.1289-2.8047 0.44922-1.4375 0.074219-3.0039-0.97656-4.0859-0.14844-0.14844-0.30859-0.28906-0.48047-0.41406l-0.13672-0.10938v0.003906c-0.17969-0.11328-0.36328-0.21484-0.55078-0.30469l-0.14844-0.078125c-0.25781-0.10938-0.52344-0.19141-0.79688-0.24609-1.0742-0.22656-24.68-5.4414-24.68-30.504v-0.003906c-0.10547-2.1875-1.9141-3.9102-4.1094-3.9102-2.1914 0-4 1.7227-4.1055 3.9102 0 24.738-22.887 30.168-24.602 30.504v0.003906c-0.83203 0.14453-1.6016 0.54688-2.1953 1.1484-0.039062 0.054687-0.082031 0.10937-0.125 0.16016-0.12891 0.13672-0.25 0.28516-0.35547 0.44141-0.61719 0.90625-0.84375 2.0234-0.62109 3.0977zm32.02-17.309c3.6719 7.0469 9.4062 12.801 16.434 16.504-7.0273 3.707-12.758 9.4688-16.434 16.512-3.6797-7.043-9.4141-12.801-16.441-16.512 7.0273-3.7031 12.762-9.4609 16.441-16.504z"/>
 </g>
</svg>