<?xml version="1.0" encoding="UTF-8"?>
<!-- The Best Svg Icon site in the world: iconSvg.co, Visit us! https://iconsvg.co -->
<svg width="800px" height="800px" version="1.1" viewBox="144 144 512 512" xmlns="http://www.w3.org/2000/svg">
 <defs>
  <clipPath id="b">
   <path d="m415 384h236.9v237h-236.9z"/>
  </clipPath>
  <clipPath id="a">
   <path d="m148.09 179h409.91v442h-409.91z"/>
  </clipPath>
 </defs>
 <path d="m518.08 368.51c2.0898 0 4.0898-0.83203 5.5664-2.3086 1.4766-1.4766 2.3047-3.4766 2.3047-5.5664v-110.21c0-2.0859-0.82812-4.0898-2.3047-5.5664-1.4766-1.4766-3.4766-2.3047-5.5664-2.3047-6.2617 0-12.27-2.4883-16.699-6.918-4.4297-4.4297-6.918-10.434-6.918-16.699 0-2.0859-0.82813-4.0898-2.3047-5.5664s-3.4766-2.3047-5.5664-2.3047h-267.65c-4.3477 0-7.8711 3.5234-7.8711 7.8711 0 6.2656-2.4883 12.27-6.918 16.699-4.4297 4.4297-10.434 6.918-16.699 6.918-4.3477 0-7.8711 3.5234-7.8711 7.8711v110.21c0 2.0898 0.82812 4.0898 2.3047 5.5664 1.4766 1.4766 3.4805 2.3086 5.5664 2.3086 6.2656 0 12.27 2.4883 16.699 6.9141 4.4297 4.4297 6.918 10.438 6.918 16.699 0 2.0898 0.82813 4.0898 2.3047 5.5664 1.4766 1.4766 3.4805 2.3086 5.5664 2.3086h236.16c4.3477 0 7.875-3.5273 7.875-7.875s-3.5273-7.8711-7.875-7.8711h-229.07c-1.5547-7.5586-5.293-14.496-10.75-19.953-5.457-5.457-12.395-9.1914-19.953-10.746v-96.039c7.5586-1.5547 14.496-5.293 19.953-10.75 5.457-5.457 9.1953-12.395 10.75-19.953h253.48c1.5547 7.5586 5.2891 14.496 10.746 19.953 5.457 5.457 12.395 9.1953 19.953 10.75v103.12c0 2.0898 0.82812 4.0898 2.3047 5.5664 1.4766 1.4766 3.4805 2.3086 5.5664 2.3086z"/>
 <path d="m305.54 305.54c0 12.527 4.9766 24.539 13.832 33.398 8.8594 8.8555 20.871 13.832 33.398 13.832s24.543-4.9766 33.398-13.832c8.8594-8.8594 13.836-20.871 13.836-33.398s-4.9766-24.543-13.836-33.398c-8.8555-8.8594-20.871-13.836-33.398-13.836-12.523 0.015625-24.527 4.9922-33.383 13.848-8.8555 8.8555-13.836 20.863-13.848 33.387zm78.719 0c0 8.3516-3.3164 16.359-9.2227 22.266-5.9062 5.9023-13.914 9.2227-22.266 9.2227s-16.359-3.3203-22.266-9.2227c-5.9023-5.9062-9.2227-13.914-9.2227-22.266 0-8.3516 3.3203-16.359 9.2227-22.266 5.9062-5.9062 13.914-9.2227 22.266-9.2227s16.359 3.3164 22.266 9.2227 9.2227 13.914 9.2227 22.266z"/>
 <g clip-path="url(#b)">
  <path d="m533.82 384.25c-31.316 0-61.352 12.441-83.496 34.586-22.145 22.145-34.586 52.18-34.586 83.496 0 31.316 12.441 61.352 34.586 83.496 22.145 22.141 52.18 34.582 83.496 34.582 31.316 0 61.352-12.441 83.492-34.582 22.145-22.145 34.586-52.18 34.586-83.496-0.035156-31.309-12.488-61.32-34.625-83.457-22.137-22.137-52.148-34.59-83.453-34.625zm0 220.42c-27.145 0-53.172-10.781-72.363-29.973-19.191-19.195-29.973-45.223-29.973-72.363 0-27.141 10.781-53.172 29.973-72.363 19.191-19.191 45.219-29.973 72.363-29.973 27.141 0 53.168 10.781 72.363 29.973 19.191 19.191 29.973 45.223 29.973 72.363-0.03125 27.129-10.824 53.141-30.008 72.328-19.188 19.184-45.199 29.977-72.328 30.008z"/>
 </g>
 <path d="m533.82 415.74c-20.359-0.003907-40.07 7.168-55.668 20.254-15.598 13.086-26.086 31.246-29.621 51.297-3.5391 20.051 0.10156 40.707 10.281 58.34 2.1914 3.7305 6.9805 4.9961 10.73 2.8359 3.7461-2.1641 5.043-6.9492 2.9062-10.711-11.828-20.438-12.695-45.426-2.3125-66.637 10.387-21.207 30.652-35.848 54.051-39.043 23.395-3.1953 46.848 5.4766 62.535 23.129 15.688 17.648 21.551 41.953 15.637 64.816-5.9141 22.859-22.832 41.273-45.113 49.098-22.277 7.8242-46.992 4.0352-65.906-10.109-3.4766-2.6055-8.4102-1.9023-11.02 1.5742-2.6094 3.4805-1.9023 8.4141 1.5742 11.023 14.953 11.285 33.191 17.367 51.926 17.316 30.934 0 59.523-16.504 74.988-43.293 15.469-26.793 15.469-59.801 0-86.594-15.465-26.793-44.055-43.297-74.988-43.297z"/>
 <path d="m534.29 525.95h-16.211c-4.3477 0-7.8711 3.5273-7.8711 7.875 0 4.3477 3.5234 7.8711 7.8711 7.8711h16.211c8.4336-0.082031 16.188-4.6602 20.336-12.008 4.1445-7.3516 4.0547-16.352-0.23438-23.617-4.2891-7.2656-12.129-11.691-20.566-11.609-4.3477 0-7.875-3.5234-7.875-7.8711s3.5273-7.8711 7.875-7.8711h16.207c4.3477 0 7.8711-3.5234 7.8711-7.8711s-3.5234-7.8711-7.8711-7.8711h-16.207c-8.4375 0.082032-16.191 4.6602-20.336 12.008-4.1484 7.3477-4.0586 16.352 0.23047 23.617 4.2891 7.2656 12.133 11.688 20.57 11.605 4.3477 0 7.8711 3.5234 7.8711 7.8711s-3.5234 7.8711-7.8711 7.8711z"/>
 <g clip-path="url(#a)">
  <path d="m455.1 604.67h-283.39c-4.3477 0-7.875-3.5234-7.875-7.8711v-23.617h244.04c4.3477 0 7.8711-3.5234 7.8711-7.8711s-3.5234-7.875-7.8711-7.875h-244.04v-31.488h228.29c4.3477 0 7.875-3.5234 7.875-7.8711s-3.5273-7.8711-7.875-7.8711h-228.29v-31.488h228.29c4.3477 0 7.875-3.5234 7.875-7.8711s-3.5273-7.8711-7.875-7.8711h-228.29v-31.488h251.91c4.3477 0 7.8711-3.5273 7.8711-7.875 0-4.3477-3.5234-7.8711-7.8711-7.8711h-251.91v-212.54c0-4.3477 3.5273-7.875 7.875-7.875h362.11c2.0859 0 4.0898 0.83203 5.5664 2.3086 1.4766 1.4766 2.3047 3.4766 2.3047 5.5664v157.44c0 4.3477 3.5234 7.875 7.8711 7.875s7.8711-3.5273 7.8711-7.875v-157.44c0-6.2656-2.4883-12.273-6.9141-16.699-4.4297-4.4297-10.438-6.918-16.699-6.918h-362.11c-6.2656 0-12.27 2.4883-16.699 6.918-4.4297 4.4258-6.918 10.434-6.918 16.699v393.6c0 6.2617 2.4883 12.27 6.918 16.699 4.4297 4.4258 10.434 6.9141 16.699 6.9141h283.39c4.3477 0 7.875-3.5234 7.875-7.8711 0-4.3477-3.5273-7.8711-7.875-7.8711z"/>
 </g>
</svg>