<?xml version="1.0" encoding="UTF-8"?>
<!-- The Best Svg Icon site in the world: iconSvg.co, Visit us! https://iconsvg.co -->
<svg fill="#000000" width="800px" height="800px" version="1.1" viewBox="144 144 512 512" xmlns="http://www.w3.org/2000/svg">
 <g>
  <path d="m557.44 163.84h-314.88c-13.023 0-23.617 10.594-23.617 23.617v425.09c0 13.023 10.594 23.617 23.617 23.617h299.14c4.3477 0 7.8711-3.5234 7.8711-7.8711 0-4.3477-3.5234-7.8711-7.8711-7.8711l-299.14-0.003907c-4.3398 0-7.8711-3.5312-7.8711-7.8711v-425.09c0-4.3398 3.5312-7.8711 7.8711-7.8711h314.88c4.3398 0 7.8711 3.5312 7.8711 7.8711v425.09c0 4.3477 3.5234 7.8711 7.8711 7.8711s7.8711-3.5234 7.8711-7.8711v-425.09c0-13.023-10.594-23.617-23.617-23.617z"/>
  <path d="m305.54 226.81c0-13.023-10.594-23.617-23.617-23.617-13.023 0-23.617 10.594-23.617 23.617s10.594 23.617 23.617 23.617c13.023 0 23.617-10.594 23.617-23.617zm-23.617 7.875c-4.3398 0-7.8711-3.5312-7.8711-7.8711s3.5312-7.8711 7.8711-7.8711c4.3398 0 7.8711 3.5312 7.8711 7.8711 0 4.3359-3.5312 7.8711-7.8711 7.8711z"/>
  <path d="m392.12 415.74v110.21c0 4.3477 3.5234 7.8711 7.8711 7.8711s7.8711-3.5234 7.8711-7.8711l0.003906-110.21c0-4.3477-3.5234-7.8711-7.8711-7.8711s-7.875 3.5234-7.875 7.8711z"/>
  <path d="m455.1 447.23v78.719c0 4.3477 3.5234 7.8711 7.8711 7.8711s7.8711-3.5234 7.8711-7.8711l0.003906-78.719c0-4.3477-3.5234-7.8711-7.8711-7.8711-4.3477 0-7.875 3.5234-7.875 7.8711z"/>
  <path d="m329.15 415.74v110.21c0 4.3477 3.5234 7.8711 7.8711 7.8711 4.3477 0 7.8711-3.5234 7.8711-7.8711l0.003906-110.21c0-4.3477-3.5234-7.8711-7.8711-7.8711-4.3477 0-7.875 3.5234-7.875 7.8711z"/>
  <path d="m525.95 313.41c4.3477 0 7.8711-3.5234 7.8711-7.8711v-31.488c0-1.0234-0.21094-2.0469-0.60937-3.0078-0.79688-1.9258-2.332-3.457-4.2578-4.2578-0.95703-0.39844-1.9766-0.60547-3.0039-0.60547h-31.488c-4.3477 0-7.8711 3.5234-7.8711 7.8711s3.5234 7.8711 7.8711 7.8711h12.484l-75.457 75.461-41.668-41.668c-2.9805-2.9688-7.7539-3.0859-10.863-0.25781l-86.594 78.719c-3.2188 2.9219-3.4531 7.9023-0.52734 11.121 1.5547 1.707 3.6875 2.5781 5.832 2.5781 1.8867 0 3.7812-0.67578 5.293-2.0469l81.039-73.668 41.926 41.926c3.0742 3.0742 8.0547 3.0742 11.133 0l81.02-81.031v12.484c0 4.3477 3.5273 7.8711 7.8711 7.8711z"/>
 </g>
</svg>