<?xml version="1.0" encoding="UTF-8"?>
<!-- The Best Svg Icon site in the world: iconSvg.co, Visit us! https://iconsvg.co -->
<svg fill="#000000" width="800px" height="800px" version="1.1" viewBox="144 144 512 512" xmlns="http://www.w3.org/2000/svg">
 <g>
  <path d="m408.16 419.68c68.879 77.551 108.44 95.664 130.39 95.664 1.7266 0.003906 3.4531-0.11719 5.1641-0.36328 12.695-1.832 18.027-9.8906 19.277-12.133 1.6055-1.9688 7.0547-9.9883 3.9375-22.445-5.0664-20.289-33.543-52.23-139.93-89.543v-0.12109c-0.003906-10.73-5.4414-20.73-14.445-26.566 28.262-108.96 17.625-150.37 3.6094-165.89-8.5898-9.5156-18.254-9.4453-20.82-9.2383-2.5469-0.21484-12.223-0.28516-20.82 9.2383-14.012 15.52-24.648 56.926 3.6094 165.9-9.0039 5.8359-14.441 15.836-14.445 26.57v0.097656c-106.37 37.312-134.91 69.262-139.97 89.555-3.1211 12.457 2.332 20.438 3.9375 22.445 1.2578 2.2422 6.5938 10.301 19.285 12.133 1.7109 0.24609 3.4375 0.36719 5.1641 0.36328 21.953 0 61.559-18.125 130.4-95.684 0.29688 0.12891 0.58203 0.25391 0.88672 0.375l-23.73 182.75h-132.79c-2.2695 0-4.1094 1.8438-4.1094 4.1133 0 2.2734 1.8398 4.1133 4.1094 4.1133h336.89c2.2734 0 4.1133-1.8398 4.1133-4.1133 0-2.2695-1.8398-4.1133-4.1133-4.1133h-132.73l-23.773-182.73zm150.72 62.406c2.5977 9.8398-2.1055 15.418-2.3633 15.742l-0.11719 0.16797c-0.078125 0.097656-0.15625 0.19922-0.22656 0.30469-0.085938 0.125-0.16406 0.25781-0.23438 0.39453 0 0.058594-0.070313 0.097657-0.097656 0.15625-0.03125 0.058594-3.3359 6.6016-13.293 8.0391-15.262 2.1758-51.926-6.8867-127.27-91.512h-0.003907c5.1172-4.1484 8.8164-9.7891 10.578-16.137 106.52 37.5 129.1 67.934 133.03 82.844zm-178.47-278.05c6.7305-7.6445 13.965-6.8867 14.348-6.7891h0.51953c0.22656 0.011718 0.44922 0.011718 0.67187 0h0.078126c0.058593 0 7.3398-0.91406 14.09 6.5625 10.312 11.434 23.203 46.984-5.0781 156.79v-0.003906c-6.2773-2.0117-13.027-2.0117-19.305 0-28.184-109.3-15.508-144.99-5.3242-156.56zm14.938 163.28v-0.003906c6.8086-0.003906 13.281 2.9492 17.734 8.0977 4.457 5.1484 6.4492 11.98 5.4609 18.719-0.98828 6.7344-4.8555 12.707-10.602 16.363-0.60547 0.16016-1.168 0.45312-1.6406 0.86719-0.070313 0.058593-0.10938 0.11719-0.16797 0.17578-6.7891 3.5234-14.875 3.5039-21.648-0.050781l-0.10938-0.12891v0.003907c-0.44922-0.39062-0.98047-0.67969-1.5547-0.84766-5.75-3.6484-9.6289-9.6172-10.625-16.355-0.99609-6.7383 0.99219-13.578 5.4453-18.73 4.4492-5.1562 10.926-8.1172 17.738-8.1133zm-146.88 139.58c-10.098-1.3281-13.461-7.7656-13.648-8.1172 0-0.078126-0.089844-0.14844-0.12891-0.22656l-0.12891-0.20703c-0.097657-0.14844-0.19531-0.28516-0.30469-0.42188l-0.089844-0.12891c-0.20703-0.22656-4.9688-5.7969-2.3633-15.742 3.9375-14.906 26.566-45.352 133.07-82.934h0.007813c1.7461 6.3555 5.4258 12.008 10.527 16.176-75.02 84.242-111.68 93.617-126.94 91.602zm174.32 95.891h-54.895l23.496-180.64c1.3086 0.16406 2.6211 0.25 3.9375 0.25781 1.3164 0 2.6289-0.082031 3.9375-0.24609z"/>
  <path d="m484.39 268.29c1.7891 1.3906 4.3672 1.0703 5.7578-0.71875 0 0 3.7383-4.6836 9.2578-5.0977 3.9375-0.27734 8 1.5859 12.223 5.5703 4.3984 4.1523 8.4336 5.6289 12.055 5.6289 5.4336 0 9.9492-3.3047 13.402-5.8438 5.7383-4.1914 8.2852-5.5312 12.359-2.7344v-0.003906c1.875 1.2734 4.4258 0.78906 5.7031-1.082 1.2773-1.8672 0.80469-4.418-1.0586-5.707-9.2695-6.3164-16.543-0.98438-21.855 2.9531-6.2109 4.5469-9.1914 6.3164-14.965 0.86719-6.0039-5.6758-12.262-8.2773-18.598-7.7852-9.1797 0.74609-14.762 7.9609-15.027 8.2773-1.3398 1.7773-1.0078 4.3047 0.74609 5.6758z"/>
  <path d="m576.48 289.65c-9.2578-6.3281-16.531-0.98438-21.844 2.8945-6.1992 4.5469-9.1914 6.3281-14.965 0.86719-6.0039-5.668-12.262-8.2539-18.598-7.7734-9.1797 0.74609-14.762 7.9609-15.035 8.2656l-0.003906-0.003906c-1.2539 1.8047-0.87109 4.2734 0.86719 5.6133 1.7422 1.3359 4.2266 1.0703 5.6445-0.60547 0 0 3.7383-4.6758 9.2578-5.0859 3.8867-0.26562 8 1.5859 12.211 5.5586 4.4102 4.1641 8.4414 5.6289 12.062 5.6289 5.4336 0 9.9492-3.3047 13.402-5.8359 5.7383-4.2031 8.2852-5.5312 12.359-2.7461l0.003906 0.003906c1.875 1.2773 4.4297 0.79688 5.707-1.0742 1.2812-1.8711 0.80078-4.4258-1.0703-5.707z"/>
  <path d="m229.08 343.64s3.7383-4.6836 9.2578-5.0977c3.9375-0.27734 8 1.5859 12.211 5.5703 4.4102 4.1523 8.4336 5.6172 12.062 5.6172 5.4336 0 9.9492-3.3047 13.402-5.8359 5.7383-4.2031 8.2852-5.5312 12.359-2.7344h0.003906c1.8711 1.1797 4.3398 0.66797 5.5859-1.1602 1.25-1.8281 0.82812-4.3164-0.95313-5.6289-9.2578-6.3281-16.543-0.98438-21.855 2.8945-6.1992 4.5469-9.1797 6.3281-14.957 0.86719-6.0039-5.668-12.25-8.2852-18.598-7.7734-9.1797 0.74609-14.762 7.9609-15.035 8.2656v-0.003906c-1.3086 1.8008-0.94531 4.3164 0.81641 5.6758 1.7656 1.3594 4.2891 1.0703 5.6992-0.65625z"/>
  <path d="m278.59 369.5c-6.0117-5.6758-12.25-8.2773-18.598-7.7734-9.1797 0.73828-14.762 7.9492-15.035 8.2656-1.2578 1.8008-0.875 4.2695 0.86719 5.6094 1.7422 1.3359 4.2266 1.0742 5.6445-0.60156 0-0.050782 3.7383-4.6836 9.25-5.0977 3.8789-0.25391 8.0117 1.5859 12.223 5.5703 4.3984 4.1523 8.4336 5.6289 12.062 5.6289 5.4336 0 9.9492-3.3047 13.402-5.8438 5.7266-4.2031 8.2773-5.5312 12.359-2.7344v-0.003906c1.8711 1.1797 4.3398 0.66406 5.5898-1.1602 1.2461-1.8281 0.82422-4.3164-0.95703-5.6289-9.2695-6.3281-16.543-0.98437-21.855 2.9531-6.1953 4.4844-9.1875 6.2578-14.953 0.81641z"/>
 </g>
</svg>