<?xml version="1.0" encoding="UTF-8"?>
<!-- The Best Svg Icon site in the world: iconSvg.co, Visit us! https://iconsvg.co -->
<svg fill="#000000" width="800px" height="800px" version="1.1" viewBox="144 144 512 512" xmlns="http://www.w3.org/2000/svg">
 <g>
  <path d="m627.89 625.8-15.742-47.23-0.003906-0.003906c-1.0703-3.2148-4.0781-5.3828-7.4688-5.3828h-17.941l-13.949-41.848c-1.0703-3.2148-4.082-5.3867-7.4688-5.3867h-25.812l-13.949-41.848c-1.0742-3.2148-4.082-5.3828-7.4727-5.3828h-47.23c-3.3906 0-6.3984 2.168-7.4727 5.3828l-13.949 41.848h-25.812c-3.3867 0-6.3984 2.1719-7.4688 5.3867l-13.949 41.848h-17.941c-3.3906 0-6.3984 2.168-7.4688 5.3828l-15.742 47.23-0.003907 0.003906c-0.79687 2.3984-0.39453 5.0391 1.0859 7.0898 1.4805 2.0547 3.8555 3.2695 6.3867 3.2695h78.719c1.3867-0.011718 2.7461-0.39062 3.9375-1.1016 1.1875 0.71094 2.5469 1.0898 3.9336 1.1016h78.723c1.3867-0.011718 2.7422-0.39062 3.9336-1.1016 1.1914 0.71094 2.5508 1.0898 3.9375 1.1016h78.719c2.5312 0 4.9062-1.2148 6.3867-3.2695 1.4805-2.0508 1.8828-4.6914 1.0859-7.0898zm-57.75-52.617h-56.883l10.5-31.488h35.879zm-77.871 0-10.492-31.488h25.379l-10.492 31.488zm-15.742-78.719h35.879l10.5 31.488-56.883-0.003906zm-47.23 47.23h35.879l10.5 31.488h-56.883zm-49.863 78.719 10.5-31.488h35.879l10.5 31.488zm71.738-5.2188-8.7539-26.27h17.508zm14.852 5.2188 10.5-31.488h35.879l10.5 31.488zm71.738-5.2188-8.7539-26.27h17.508zm14.855 5.2188 10.5-31.488h35.879l10.5 31.488z"/>
  <path d="m392.12 533.82h-204.67c-4.3477 0-7.8711-3.5273-7.8711-7.875v-204.67c0-4.3477 3.5234-7.8711 7.8711-7.8711h409.35c2.0859 0 4.0898 0.82812 5.5664 2.3047 1.4727 1.4766 2.3047 3.4805 2.3047 5.5664v204.67c0 2.0898-0.83203 4.0898-2.3047 5.5664-1.4766 1.4766-3.4805 2.3086-5.5664 2.3086v15.742c6.2617 0 12.27-2.4883 16.699-6.918 4.4258-4.4258 6.9141-10.434 6.9141-16.699v-330.62c0-6.2617-2.4883-12.27-6.9141-16.699-4.4297-4.4258-10.438-6.9141-16.699-6.9141h-409.35c-6.2617 0-12.27 2.4883-16.699 6.9141-4.4297 4.4297-6.918 10.438-6.918 16.699v330.62c0 6.2656 2.4883 12.273 6.918 16.699 4.4297 4.4297 10.438 6.918 16.699 6.918h204.67zm-204.67-346.37h409.35c2.0859 0 4.0898 0.83203 5.5664 2.3047 1.4727 1.4766 2.3047 3.4805 2.3047 5.5664v103.79c-2.5234-0.92969-5.1836-1.4219-7.8711-1.4453h-409.35c-2.6875 0.023438-5.3516 0.51563-7.8711 1.4453v-103.79c0-4.3477 3.5234-7.8711 7.8711-7.8711z"/>
  <path d="m329.15 423.61c0 16.703 6.6367 32.723 18.445 44.531 11.812 11.812 27.832 18.445 44.531 18.445 16.703 0 32.723-6.6328 44.531-18.445 11.812-11.809 18.445-27.828 18.445-44.531 0-16.699-6.6328-32.719-18.445-44.531-11.809-11.809-27.828-18.445-44.531-18.445-16.695 0.019531-32.703 6.6602-44.508 18.469-11.809 11.805-18.449 27.812-18.469 44.508zm110.21 0h0.003906c0 12.527-4.9766 24.543-13.836 33.398-8.8555 8.8594-20.871 13.836-33.398 13.836-12.523 0-24.539-4.9766-33.398-13.836-8.8555-8.8555-13.832-20.871-13.832-33.398 0-12.527 4.9766-24.539 13.832-33.398 8.8594-8.8555 20.875-13.832 33.398-13.832 12.523 0.011719 24.531 4.9922 33.387 13.848s13.836 20.859 13.848 33.383z"/>
  <path d="m195.32 266.18h393.6v15.742h-393.6z"/>
  <path d="m195.32 234.69h393.6v15.742h-393.6z"/>
  <path d="m195.32 203.2h393.6v15.742h-393.6z"/>
  <path d="m297.66 344.89h-78.723c-4.3477 0-7.8711 3.5234-7.8711 7.8711v47.23h15.742v-39.359h70.848z"/>
  <path d="m573.18 352.77c0-2.0859-0.82812-4.0898-2.3047-5.5664-1.4766-1.4766-3.4805-2.3047-5.5664-2.3047h-78.723v15.742h70.848v39.359h15.742z"/>
  <path d="m211.07 447.23v47.23c0 2.0898 0.82813 4.0938 2.3047 5.5664 1.4766 1.4766 3.4805 2.3086 5.5664 2.3086h78.723v-15.746h-70.852v-39.359z"/>
  <path d="m557.44 486.59h-7.8711v15.742h15.742l0.003906 0.003907c2.0859 0 4.0898-0.83203 5.5664-2.3086 1.4766-1.4727 2.3047-3.4766 2.3047-5.5664v-47.23h-15.746z"/>
 </g>
</svg>