<?xml version="1.0" encoding="UTF-8"?>
<!-- The Best Svg Icon site in the world: iconSvg.co, Visit us! https://iconsvg.co -->
<svg width="800px" height="800px" version="1.1" viewBox="144 144 512 512" xmlns="http://www.w3.org/2000/svg">
 <defs>
  <clipPath id="a">
   <path d="m148.09 242h503.81v409.9h-503.81z"/>
  </clipPath>
 </defs>
 <g clip-path="url(#a)">
  <path d="m642.93 335.61c0-0.09375 0 0-0.09375 0v-0.15625l-0.25391-0.25391c-0.66797-1.5156-1.8359-2.7617-3.3047-3.5273h-0.26953c-7.1797-6.6992-16.645-10.414-26.465-10.391h-118.08v-39.359c0-10.438-4.1445-20.449-11.527-27.832-7.3789-7.3828-17.391-11.527-27.832-11.527h-110.21c-10.438 0-20.449 4.1445-27.832 11.527-7.3828 7.3828-11.527 17.395-11.527 27.832v39.359h-118.08c-10.391 0.023437-20.352 4.1562-27.707 11.492-0.15625 0-0.31641 0.15625-0.47266 0.31641h-0.16016c-0.15625 0.15625-0.31641 0.31641-0.31641 0.47266-0.31641 0.31641-0.62891 0.78906-0.94531 1.1016h0.003907c-0.12109 0.125-0.17969 0.30078-0.15625 0.47266-6.3008 6.9922-9.7266 16.098-9.6055 25.504v251.91c0 10.438 4.1484 20.449 11.527 27.832 7.3828 7.3828 17.395 11.527 27.832 11.527h425.09c10.438 0 20.449-4.1445 27.832-11.527s11.527-17.395 11.527-27.832v-251.91c0.039062-9.1367-3.1367-18-8.9727-25.031zm-321.65-53.688c0-6.2617 2.4883-12.27 6.918-16.699 4.4297-4.4297 10.438-6.918 16.699-6.918h110.21c6.2656 0 12.27 2.4883 16.699 6.918 4.4297 4.4297 6.918 10.438 6.918 16.699v39.359h-15.742v-39.359c0-2.0859-0.83203-4.0898-2.3086-5.5664-1.4766-1.4766-3.4766-2.3047-5.5664-2.3047h-110.21c-4.3477 0-7.8711 3.5234-7.8711 7.8711v39.359h-15.746zm125.95 7.8711v31.488h-94.465v-31.488zm-272.69 51.168c3.8047-2.5859 8.3086-3.9609 12.91-3.9336h425.09c4.5039-0.027344 8.9062 1.3516 12.594 3.9336-22.984 39.047-73.367 69.59-135.4 84.703-2.2812 0.62891-4.4727 1.0859-6.707 1.5742-0.29688-0.55859-0.65625-1.0898-1.0703-1.5742-19.414-26.316-50.277-41.715-82.98-41.402-32.699 0.3125-63.266 16.297-82.172 42.977-65.023-14.484-118.39-45.973-142.48-86.277zm312.05 145.63c0 30.938-16.504 59.523-43.297 74.992-26.789 15.469-59.801 15.469-86.59 0-26.793-15.469-43.297-44.055-43.297-74.992-0.027344-14.109 3.4336-28.012 10.078-40.461 0.20312-0.45312 0.46875-0.87891 0.78516-1.2617 2.4414-4.668 5.3984-9.0508 8.8164-13.066 0.32812-0.45312 0.69531-0.875 1.1016-1.2578 16.211-19.18 39.977-30.332 65.086-30.543 25.109-0.21484 49.062 10.539 65.59 29.441 3.9492 4.2734 7.3359 9.0352 10.078 14.168 7.6562 13.027 11.68 27.871 11.648 42.98zm-259.92 149.57h-39.219c-6.2617 0-12.27-2.4883-16.699-6.918-4.4297-4.4297-6.918-10.438-6.918-16.699v-39.078c4.4922-1.3906 9.1562-2.1289 13.855-2.1875 13.547-0.003906 26.539 5.3633 36.133 14.926 9.5898 9.5625 15 22.539 15.035 36.086-0.054687 4.7031-0.78906 9.375-2.1875 13.871zm409.49-23.617c0 6.2617-2.4883 12.27-6.918 16.699-4.4297 4.4297-10.438 6.918-16.699 6.918h-39.25c-1.3906-4.4883-2.1172-9.1562-2.1562-13.855 0.039062-13.543 5.4453-26.523 15.039-36.086 9.5898-9.5625 22.586-14.93 36.129-14.926 4.6992 0.058593 9.3672 0.79688 13.855 2.1875zm0-55.434c-4.5508-1.0156-9.1953-1.543-13.855-1.5742-17.719 0-34.715 7.0273-47.258 19.543-12.543 12.512-19.613 29.492-19.656 47.211 0.035156 4.6602 0.5625 9.3047 1.5742 13.855h-313.92c1.0156-4.5508 1.543-9.1953 1.5742-13.855-0.042969-17.719-7.1094-34.699-19.652-47.211-12.547-12.516-29.543-19.543-47.262-19.543-4.6602 0.03125-9.3047 0.55859-13.852 1.5742v-196.47c0.015625-1.9141 0.28125-3.8164 0.78516-5.668 27.078 40.461 79.508 71.477 143.74 86.594-0.37109 0.48828-0.6875 1.0156-0.94531 1.5742-6.4688 13.57-9.8086 28.422-9.7734 43.453 0 36.562 19.504 70.348 51.168 88.625 31.66 18.281 70.672 18.281 102.34 0 31.66-18.277 51.168-52.062 51.168-88.625 0.039062-15.625-3.5742-31.043-10.551-45.027 2.3203-0.42969 4.6133-0.99219 6.8672-1.6836h0.15625c61.086-15.742 110.68-45.973 136.34-85.176l0.09375-0.15625v0.15625c0.63281 1.9297 0.94922 3.9492 0.94531 5.9844zm-244.04-109.88h15.746c4.1758 0 8.1797 1.6602 11.133 4.6133 2.9531 2.9492 4.6094 6.957 4.6094 11.133 0 4.3477 3.5273 7.8711 7.875 7.8711 4.3477 0 7.8711-3.5234 7.8711-7.8711-0.019531-4.625-1.0391-9.1914-2.9922-13.383-2.9766-6.1719-7.8242-11.238-13.855-14.484-4.5-2.4141-9.5352-3.6562-14.641-3.6211v-7.875c0-4.3477-3.5234-7.8711-7.8711-7.8711s-7.875 3.5234-7.875 7.8711v7.875c-5.7031-0.039062-11.312 1.4844-16.215 4.4062-5.8086 3.5273-10.336 8.8242-12.91 15.113-1.582 3.793-2.3867 7.8594-2.3633 11.969 0.027343 8.3398 3.3516 16.336 9.25 22.234 5.9023 5.9023 13.895 9.2266 22.238 9.25h15.746c5.625 0 10.82 3.0039 13.633 7.875 2.8125 4.8711 2.8125 10.871 0 15.742s-8.0078 7.8711-13.633 7.8711h-15.746c-4.1758 0-8.1797-1.6562-11.133-4.6094-2.9492-2.9531-4.6094-6.957-4.6094-11.133 0-4.3477-3.5234-7.8711-7.8711-7.8711-4.3477 0-7.875 3.5234-7.875 7.8711 0.027343 8.3438 3.3516 16.34 9.25 22.238 5.9023 5.8984 13.895 9.2266 22.238 9.25v7.8711c0 4.3477 3.5273 7.8711 7.875 7.8711s7.8711-3.5234 7.8711-7.8711v-7.8711c11.25 0 21.645-6.0039 27.27-15.746 5.625-9.7422 5.625-21.742 0-31.488-5.625-9.7422-16.02-15.742-27.27-15.742h-15.746c-4.1758 0-8.1797-1.6602-11.133-4.6094-2.9492-2.9531-4.6094-6.9609-4.6094-11.133-0.042968-4.1914 1.6016-8.2188 4.5625-11.18 2.9648-2.9648 6.9922-4.6094 11.18-4.5664z"/>
 </g>
</svg>