<?xml version="1.0" encoding="UTF-8"?>
<!-- The Best Svg Icon site in the world: iconSvg.co, Visit us! https://iconsvg.co -->
<svg width="800px" height="800px" version="1.1" viewBox="144 144 512 512" xmlns="http://www.w3.org/2000/svg">
 <defs>
  <clipPath id="b">
   <path d="m148.09 158h354.91v484h-354.91z"/>
  </clipPath>
  <clipPath id="a">
   <path d="m253 295h398.9v347h-398.9z"/>
  </clipPath>
 </defs>
 <g clip-path="url(#b)">
  <path d="m169.09 546.94v-167.93c0.03125-25.047 9.9922-49.055 27.703-66.766 17.707-17.707 41.719-27.668 66.762-27.699h10.496c2.7812 0 5.4531-1.1055 7.4219-3.0742s3.0742-4.6406 3.0742-7.4219v-20.992h20.992v10.496c-0.12109 5.6016 2.0547 11.012 6.0156 14.973 3.9648 3.9648 9.3711 6.1367 14.977 6.0195h10.496v20.992h-20.992v20.992h20.992c5.6016 0.11719 11.012-2.0547 14.973-6.0195 3.9648-3.9609 6.1367-9.3711 6.0195-14.973v-20.992c0.11719-5.6055-2.0547-11.012-6.0195-14.977-3.9609-3.9609-9.3711-6.1367-14.973-6.0156h-10.496v-10.496c0.11719-5.6055-2.0547-11.012-6.0195-14.977-3.9609-3.9609-9.3711-6.1328-14.973-6.0156h-73.473v-52.48h83.969c2.8594-0.28125 5.6953 0.73438 7.7266 2.7656 2.0352 2.0352 3.0508 4.8711 2.7695 7.7305 0 5.7969 4.6992 10.496 10.496 10.496 5.7969 0 10.496-4.6992 10.496-10.496v-10.496h94.465v41.859c0.30469 2.875-0.69922 5.7383-2.7344 7.7969-2.0312 2.0586-4.8828 3.0938-7.7617 2.8242h-73.473v20.992h31.488v20.992c0 2.7812 1.1055 5.4531 3.0742 7.4219s4.6367 3.0742 7.4219 3.0742h10.496c29.758-0.10938 57.801 13.914 75.57 37.785l16.793-12.594c-21.715-29.184-55.992-46.324-92.363-46.184v-10.496h20.992c8.4219 0.24609 16.574-2.9922 22.535-8.9531 5.9609-5.957 9.1992-14.109 8.9531-22.535v-52.48c0-2.7852-1.1094-5.4531-3.0742-7.4219-1.9688-1.9688-4.6406-3.0742-7.4219-3.0742h-104.96c-5.0312-0.11328-9.9297 1.6211-13.773 4.8711-5.2969-3.3359-11.461-5.0312-17.715-4.8711h-94.465c-5.7969 0-10.496 4.6992-10.496 10.496v62.977c-0.11719 5.6016 2.0547 11.012 6.0156 14.973 3.9648 3.9648 9.375 6.1367 14.977 6.0195h31.488v10.496c-30.609 0.035157-59.957 12.211-81.602 33.855s-33.82 50.992-33.855 81.602v167.93c-0.13672 36.375 17.004 70.652 46.184 92.367 1.8164 1.3633 4.0273 2.0977 6.2969 2.0977h31.488v-20.992h-27.887c-22.285-17.863-35.203-44.914-35.09-73.473z"/>
 </g>
 <path d="m263.55 316.03c-16.891-0.64062-33.285 5.7891-45.234 17.738-11.953 11.953-18.383 28.348-17.742 45.238h20.992c-0.44922-11.27 3.832-22.207 11.805-30.184 7.9727-7.9727 18.914-12.25 30.18-11.801z"/>
 <g clip-path="url(#a)">
  <path d="m620.41 389.5h-94.465v20.992h94.465c2.7852 0 5.4531 1.1055 7.4219 3.0742s3.0742 4.6367 3.0742 7.4219v188.93c0 2.7852-1.1055 5.4531-3.0742 7.4219s-4.6367 3.0742-7.4219 3.0742h-335.87c-5.7969 0-10.496-4.6992-10.496-10.496v-188.93c0-5.7969 4.6992-10.496 10.496-10.496h178.43c2.7812-0.003906 5.4492-1.1094 7.418-3.0781l38.91-38.906h37.637c2.7852 0 5.4531-1.1094 7.4219-3.0781l34.562-34.562v37.641h20.992v-62.977c0-2.7852-1.1055-5.4531-3.0742-7.4219s-4.6367-3.0742-7.4219-3.0742h-62.977v20.992h37.641l-31.488 31.488h-37.641c-2.7812 0-5.4492 1.1055-7.418 3.0742l-38.91 38.91h-174.09c-8.3516 0-16.359 3.3164-22.266 9.2227-5.9062 5.9023-9.2227 13.914-9.2227 22.266v188.93c0 8.3516 3.3164 16.363 9.2227 22.266 5.9062 5.9062 13.914 9.2227 22.266 9.2227h335.87c8.3516 0 16.363-3.3164 22.266-9.2227 5.9062-5.9023 9.2227-13.914 9.2227-22.266v-188.93c0-8.3516-3.3164-16.363-9.2227-22.266-5.9023-5.9062-13.914-9.2227-22.266-9.2227z"/>
 </g>
 <path d="m567.93 441.98c0-2.7852-1.1055-5.457-3.0742-7.4219-1.9688-1.9688-4.6367-3.0742-7.4219-3.0742h-209.92c-5.7969 0-10.496 4.6992-10.496 10.496 0 8.3477-3.3203 16.359-9.2227 22.266-5.9062 5.9023-13.914 9.2227-22.266 9.2227-5.7969 0-10.496 4.6992-10.496 10.492v62.977c0 2.7852 1.1055 5.4531 3.0742 7.4219s4.6367 3.0742 7.4219 3.0742c8.3516 0 16.359 3.3203 22.266 9.2227 5.9023 5.9062 9.2227 13.914 9.2227 22.266 0 2.7852 1.1055 5.4531 3.0742 7.4219s4.6367 3.0742 7.4219 3.0742h209.92c2.7852 0 5.4531-1.1055 7.4219-3.0742s3.0742-4.6367 3.0742-7.4219c0-8.3516 3.3203-16.359 9.2227-22.266 5.9062-5.9023 13.914-9.2227 22.266-9.2227 2.7852 0 5.4531-1.1055 7.4219-3.0742s3.0742-4.6367 3.0742-7.4219v-62.977c0-2.7812-1.1055-5.4531-3.0742-7.418-1.9688-1.9688-4.6367-3.0742-7.4219-3.0742-8.3516 0-16.359-3.3203-22.266-9.2227-5.9023-5.9062-9.2227-13.918-9.2227-22.266zm-52.48 73.473v-0.003906c0 16.703-6.6328 32.723-18.445 44.531-11.809 11.812-27.828 18.445-44.527 18.445-16.703 0-32.723-6.6328-44.531-18.445-11.812-11.809-18.445-27.828-18.445-44.531 0-16.699 6.6328-32.719 18.445-44.527 11.809-11.812 27.828-18.445 44.531-18.445 16.695 0.015625 32.703 6.6562 44.512 18.461 11.805 11.809 18.445 27.816 18.461 44.512zm-158.49 62.973c-2.0742-10.078-7.0547-19.324-14.332-26.602-7.2734-7.2773-16.523-12.258-26.602-14.332v-44.082c10.078-2.0742 19.328-7.0586 26.602-14.332 7.2773-7.2773 12.258-16.523 14.332-26.602h40.168c-18.18 15.875-28.613 38.836-28.613 62.973 0 24.141 10.434 47.102 28.613 62.977zm231.96-40.934c-10.078 2.0742-19.324 7.0547-26.602 14.332-7.2773 7.2773-12.258 16.523-14.332 26.602h-40.156c18.18-15.875 28.613-38.836 28.613-62.977 0-24.137-10.434-47.098-28.613-62.973h40.156c2.0742 10.078 7.0547 19.324 14.332 26.602 7.2773 7.2734 16.523 12.258 26.602 14.332z"/>
 <path d="m295.04 431.49h20.992v20.992h-20.992z"/>
 <path d="m588.93 431.49h20.992v20.992h-20.992z"/>
 <path d="m588.93 578.43h20.992v20.992h-20.992z"/>
 <path d="m284.54 578.43h20.992v20.992h-20.992z"/>
</svg>