<?xml version="1.0" encoding="UTF-8"?>
<!-- The Best Svg Icon site in the world: iconSvg.co, Visit us! https://iconsvg.co -->
<svg width="800px" height="800px" version="1.1" viewBox="144 144 512 512" xmlns="http://www.w3.org/2000/svg">
 <defs>
  <clipPath id="d">
   <path d="m148.09 169h461.91v179h-461.91z"/>
  </clipPath>
  <clipPath id="c">
   <path d="m462 368h189.9v106h-189.9z"/>
  </clipPath>
  <clipPath id="b">
   <path d="m148.09 620h21.906v22h-21.906z"/>
  </clipPath>
  <clipPath id="a">
   <path d="m148.09 567h21.906v22h-21.906z"/>
  </clipPath>
 </defs>
 <path d="m588.93 578.43c0 2.7852-1.1055 5.4531-3.0742 7.4219s-4.6367 3.0742-7.4219 3.0742h-73.473v20.992h73.473c8.3516 0 16.363-3.3164 22.266-9.2227 5.9062-5.9023 9.2227-13.914 9.2227-22.266v-83.969h-20.992z"/>
 <g clip-path="url(#d)">
  <path d="m169.09 200.57c0-5.7969 4.6992-10.496 10.496-10.496h230.91c2.7812 0 5.4531 1.1055 7.4219 3.0742 1.9648 1.9688 3.0742 4.6367 3.0742 7.4219v31.488h-220.42v20.992h377.86c2.7852 0 5.4531 1.1055 7.4219 3.0742s3.0742 4.6367 3.0742 7.4219v83.969h20.992v-83.969c0-8.3516-3.3164-16.359-9.2227-22.266-5.9023-5.9062-13.914-9.2227-22.266-9.2227h-136.45v-31.488c0-8.3516-3.3203-16.359-9.2227-22.266-5.9062-5.9062-13.914-9.2227-22.266-9.2227h-230.91c-8.3516 0-16.359 3.3164-22.266 9.2227s-9.2227 13.914-9.2227 22.266v125.95h20.992z"/>
 </g>
 <g clip-path="url(#c)">
  <path d="m620.41 368.51h-125.95c-8.3477 0-16.359 3.3164-22.262 9.2227-5.9062 5.9023-9.2227 13.914-9.2227 22.266v20.992h20.992l-0.003906-20.992c0-5.7969 4.6992-10.496 10.496-10.496h125.95c2.7852 0 5.4531 1.1055 7.4219 3.0742s3.0742 4.6367 3.0742 7.4219v41.984c0 2.7812-1.1055 5.4531-3.0742 7.4219-1.9688 1.9648-4.6367 3.0742-7.4219 3.0742h-115.46v20.992h115.46c8.3516 0 16.363-3.3203 22.266-9.2227 5.9062-5.9062 9.2227-13.918 9.2227-22.266v-41.984c0-8.3516-3.3164-16.363-9.2227-22.266-5.9023-5.9062-13.914-9.2227-22.266-9.2227z"/>
 </g>
 <path d="m504.96 410.5h20.992v20.992h-20.992z"/>
 <path d="m557.44 337.02v-41.984c0-2.7852-1.1055-5.4531-3.0742-7.4219s-4.6367-3.0742-7.4219-3.0742h-41.984v20.992h31.488v31.488z"/>
 <path d="m379.01 410.5c-30.609 0.035156-59.957 12.211-81.602 33.855-21.645 21.645-33.82 50.988-33.855 81.598v41.984h-31.488v20.992h41.984c2.7812 0 5.4531-1.1055 7.4219-3.0742s3.0742-4.6367 3.0742-7.4219v-52.48c0-25.051 9.9531-49.078 27.668-66.793 17.715-17.719 41.742-27.668 66.797-27.668 25.051 0 49.078 9.9492 66.797 27.668 17.715 17.715 27.668 41.742 27.668 66.793 0 25.055-9.9531 49.082-27.668 66.797-17.719 17.715-41.746 27.668-66.797 27.668h-188.93v20.992h188.93c41.246 0 79.363-22.004 99.988-57.727 20.621-35.723 20.621-79.734 0-115.46-20.625-35.723-58.742-57.727-99.988-57.727z"/>
 <path d="m337.02 546.94v10.496c0 5.5703 2.2109 10.91 6.1484 14.844 3.9375 3.9375 9.2734 6.1484 14.844 6.1484h10.496v20.992h20.992v-20.992h10.496c5.5664 0 10.906-2.2109 14.844-6.1484 3.9336-3.9336 6.1484-9.2734 6.1484-14.844v-20.992c0-5.5664-2.2148-10.906-6.1484-14.844-3.9375-3.9336-9.2773-6.1484-14.844-6.1484h-41.984v-20.992h41.984v10.496h20.992v-10.496c0-5.5664-2.2148-10.906-6.1484-14.84-3.9375-3.9375-9.2773-6.1484-14.844-6.1484h-10.496v-20.992h-20.992v20.992h-10.496c-5.5703 0-10.906 2.2109-14.844 6.1484-3.9375 3.9336-6.1484 9.2734-6.1484 14.84v20.992c0 5.5703 2.2109 10.91 6.1484 14.844 3.9375 3.9375 9.2734 6.1484 14.844 6.1484h41.984v20.992h-41.984v-10.496z"/>
 <path d="m360.66 383.2 19.23-8.3984-0.003906 0.003906c-15.309-35.031-46.969-60.215-84.547-67.25s-76.203 4.9922-103.15 32.113c-26.949 27.121-38.719 65.82-31.441 103.36 7.2773 37.531 32.664 69.027 67.797 84.109l8.2812-19.293c-28.742-12.344-49.508-38.109-55.461-68.816-5.9492-30.707 3.6797-62.371 25.727-84.559 22.043-22.188 53.645-32.027 84.387-26.273 30.746 5.7539 56.648 26.352 69.18 55.008z"/>
 <path d="m316.03 400v-10.496c0-5.5703-2.2109-10.91-6.1484-14.844-3.9375-3.9375-9.2773-6.1484-14.844-6.1484h-10.496v-20.992h-20.992v20.992h-10.496c-5.5664 0-10.906 2.2109-14.844 6.1484-3.9375 3.9336-6.1484 9.2734-6.1484 14.844v20.992c0 5.5664 2.2109 10.906 6.1484 14.844 3.9375 3.9336 9.2773 6.1484 14.844 6.1484h20.992v-20.992h-20.992v-20.992h41.984v10.496z"/>
 <g clip-path="url(#b)">
  <path d="m148.09 620.41h20.992v20.992h-20.992z"/>
 </g>
 <path d="m190.08 567.93h20.992v20.992h-20.992z"/>
 <g clip-path="url(#a)">
  <path d="m148.09 567.93h20.992v20.992h-20.992z"/>
 </g>
</svg>