<?xml version="1.0" encoding="UTF-8"?>
<!-- The Best Svg Icon site in the world: iconSvg.co, Visit us! https://iconsvg.co -->
<svg fill="#000000" width="800px" height="800px" version="1.1" viewBox="144 144 512 512" xmlns="http://www.w3.org/2000/svg">
 <g>
  <path d="m245.99 438.88 39.402 82.246c44.5-18.879 97.121-12.531 120.64-8.1797l-78.18-163.18c-11.742 21.039-40.828 66.898-81.863 89.117z"/>
  <path d="m366.18 319c-2.7812-5.8086-8.4492-9.6875-14.867-10.184-6.4219-0.49609-12.617 2.4727-16.254 7.7852-3.6406 5.3125-4.168 12.164-1.3867 17.969l87.957 183.61v0.003906c2.0664 4.3086 5.7578 7.6211 10.27 9.207 4.5078 1.5859 9.4609 1.3203 13.77-0.74609 4.3086-2.0703 7.6172-5.7617 9.207-10.27 1.5859-4.5039 1.3203-9.457-0.73828-13.77z"/>
  <path d="m174.17 473.45c-4.8242 2.3203-8.5352 6.457-10.312 11.508-1.7812 5.0508-1.4844 10.602 0.82422 15.434l21.828 45.566c2.3125 4.8281 6.4531 8.543 11.504 10.324 5.0547 1.7773 10.605 1.4766 15.438-0.83594l2.8398-1.3594-39.277-81.996z"/>
  <path d="m187.66 466.99 47.742-22.871 39.277 81.996-47.742 22.871z"/>
  <path d="m279.85 536.73-46.051 22.059 46.723 50.715v-0.003906c3.668 3.9844 8.8008 6.3008 14.215 6.4141 5.4141 0.11719 10.641-1.9766 14.477-5.7969 3.5508-3.5547 5.6328-8.3125 5.8281-13.332 0.19531-5.0195-1.5117-9.9258-4.7734-13.742-10.957-12.688-21.633-28.973-30.418-46.312z"/>
  <path d="m577.77 270.31c-26.133-9.207-55.062-5.7344-78.277 9.3945-23.211 15.133-38.066 40.195-40.195 67.824-2.1289 27.625 8.7148 54.672 29.336 73.176 20.621 18.508 48.68 26.371 75.914 21.273 27.238-5.0938 50.555-22.566 63.09-47.277 12.539-24.707 12.871-53.844 0.90234-78.832-10.219-21.312-28.48-37.695-50.77-45.559zm-0.17578 134.13 3.2695 6.8242v-0.003906c1.4102 2.9414 0.16797 6.4688-2.7734 7.8789-2.9414 1.4062-6.4648 0.16406-7.875-2.7734l-3.4336-7.1719c-6.7305 1.4922-13.77 0.66016-19.969-2.3516-6.1992-3.0156-11.195-8.0391-14.176-14.254-1.375-2.9336-0.12891-6.4297 2.793-7.8281 2.9258-1.4023 6.4297-0.18359 7.8555 2.7266 2.1406 4.4766 5.9766 7.9141 10.656 9.5625 4.6797 1.6484 9.8203 1.3711 14.297-0.77344 4.4727-2.1406 7.9141-5.9766 9.5625-10.656 1.6484-4.6797 1.3672-9.8203-0.77344-14.297-2.1445-4.4727-5.9766-7.9141-10.656-9.5625-4.6797-1.6484-9.8242-1.3672-14.297 0.77344-9.0898 4.3555-19.742 3.9375-28.465-1.1094-8.7227-5.0469-14.391-14.074-15.145-24.125-0.75781-10.051 3.5-19.824 11.367-26.117l-4.1328-8.6289c-1.4062-2.9414-0.16406-6.4648 2.7773-7.8711 2.9375-1.4102 6.4609-0.16797 7.8711 2.7695l3.9688 8.2852v-0.003906c6.9492-2.0234 14.391-1.5156 21 1.4297 6.6094 2.9492 11.961 8.1484 15.094 14.672 1.4062 2.9375 0.16406 6.4609-2.7734 7.8711-2.9414 1.4062-6.4648 0.16797-7.875-2.7695-2.1445-4.4766-5.9766-7.9141-10.656-9.5664-4.6797-1.6484-9.8203-1.3672-14.297 0.77344-4.4727 2.1445-7.9141 5.9766-9.5625 10.656-1.6484 4.6797-1.3711 9.8242 0.77344 14.297 2.1445 4.4766 5.9766 7.9141 10.656 9.5625 4.6797 1.6484 9.8242 1.3711 14.297-0.77344 9.3047-4.4531 20.227-3.9102 29.039 1.4531 8.8125 5.3594 14.32 14.809 14.641 25.121 0.32031 10.309-4.5898 20.082-13.051 25.98z"/>
  <path d="m420.99 298.03c3.8594 0 7.5664-1.5352 10.297-4.2656 2.7305-2.7305 4.2656-6.4336 4.2656-10.297 0-3.8633-1.5352-7.5664-4.2656-10.297-2.7305-2.7305-6.4375-4.2656-10.297-4.2656-3.8633 0-7.5703 1.5352-10.301 4.2656-2.7305 2.7305-4.2656 6.4336-4.2656 10.297 0.007813 3.8594 1.543 7.5625 4.2734 10.293 2.7305 2.7305 6.4297 4.2656 10.293 4.2695z"/>
  <path d="m563.67 541.46c-2.707 0-5.1484 1.6328-6.1836 4.1328-1.0352 2.5-0.46094 5.3789 1.4492 7.293 1.9141 1.9141 4.793 2.4844 7.293 1.4492s4.1328-3.4766 4.1328-6.1836c-0.003906-3.6914-3-6.6836-6.6914-6.6914z"/>
  <path d="m625.45 483.54c0 12.379-10.035 22.414-22.414 22.414s-22.414-10.035-22.414-22.414c0-12.383 10.035-22.418 22.414-22.418s22.414 10.035 22.414 22.418"/>
  <path d="m526.93 497.48c0 8.4219-6.8281 15.25-15.25 15.25-8.4219 0-15.25-6.8281-15.25-15.25s6.8281-15.25 15.25-15.25c8.4219 0 15.25 6.8281 15.25 15.25"/>
  <path d="m547.27 209.66c0 14.129-11.453 25.586-25.582 25.586s-25.586-11.457-25.586-25.586 11.457-25.582 25.586-25.582 25.582 11.453 25.582 25.582"/>
 </g>
</svg>