<?xml version="1.0" encoding="UTF-8"?>
<!-- The Best Svg Icon site in the world: iconSvg.co, Visit us! https://iconsvg.co -->
<svg fill="#000000" width="800px" height="800px" version="1.1" viewBox="144 144 512 512" xmlns="http://www.w3.org/2000/svg">
 <g>
  <path d="m269.97 429.71c-30.934 0-56.102 26.105-56.102 58.23 0 0.16797 0.019531 0.29297 0.019531 0.45312v0.019531 0.011719c0.25 31.887 25.305 57.75 56.082 57.75 30.934 0 56.102-26.105 56.102-58.23 0-32.129-25.168-58.234-56.102-58.234zm0 105.97c-23.668 0-42.961-19.031-45.176-43.223 8.9414-1.3555 17.527-4.0312 25.484-8.0703-0.21875 0.62891-0.30469 1.3008-0.26172 1.9727-0.30469-0.042969-0.57812-0.19922-0.88281-0.19922-4.8711 0-8.8281 3.957-8.8281 8.8281 0 4.8789 3.957 8.8359 8.8281 8.8359 4.8711 0 8.8281-3.957 8.8281-8.8359 0-1.4375-0.41797-2.7383-1.0273-3.9375 12.637-2.7188 24.707-7.9766 35.297-15.406 4.7344 8.0703 13.562 13.016 23.289 12.941-0.36328 26.027-20.621 47.094-45.551 47.094z"/>
  <path d="m299.64 495.01c0 4.875-3.9492 8.8281-8.8242 8.8281s-8.8281-3.9531-8.8281-8.8281 3.9531-8.8281 8.8281-8.8281 8.8242 3.9531 8.8242 8.8281"/>
  <path d="m275.33 518.29c-3.1484 2.5195-7.5664 2.5195-10.715 0-2.2656-1.8047-5.5625-1.4492-7.3789 0.83984-1.8047 2.2578-1.4375 5.5508 0.82812 7.3594 3.5039 2.8125 7.7031 4.1875 11.902 4.1875 4.1992 0 8.3984-1.4062 11.902-4.1875 2.2656-1.8047 2.6328-5.1016 0.82812-7.3594-1.7969-2.2773-5.1133-2.625-7.3672-0.83984z"/>
  <path d="m606.82 620.41h-12.816v-373.82c0-2.8867-2.3398-5.2461-5.2461-5.2461h-21.684l-0.003906-67.02c0-2.8984-2.3633-5.2461-5.2461-5.2461h-168.6c-2.8984 0-5.2461 2.3516-5.2461 5.2461v67.016h-21.695c-2.8984 0-5.2461 2.3633-5.2461 5.2461l-0.003907 373.82h-12.805c-2.8984 0-5.2461 2.3633-5.2461 5.2461 0 2.8867 2.3516 5.2461 5.2461 5.2461h258.58c2.8867 0 5.2461-2.3633 5.2461-5.2461-0.003906-2.8828-2.332-5.2461-5.2383-5.2461zm-146.41-36.902h-67.102c-2.8984 0-5.2461-2.3398-5.2461-5.2461 0-2.8867 2.3516-5.2461 5.2461-5.2461h67.102c2.8867 0 5.2461 2.3633 5.2461 5.2461 0 2.9141-2.3594 5.2461-5.2461 5.2461zm0-47.348h-67.102c-2.8984 0-5.2461-2.3633-5.2461-5.2461 0-2.9062 2.3516-5.2461 5.2461-5.2461h67.102c2.8867 0 5.2461 2.3398 5.2461 5.2461 0 2.8828-2.3594 5.2461-5.2461 5.2461zm0-47.402h-67.102c-2.8984 0-5.2461-2.3633-5.2461-5.2461 0-2.8867 2.3516-5.2461 5.2461-5.2461h67.102c2.8867 0 5.2461 2.3633 5.2461 5.2461 0 2.8867-2.3594 5.2461-5.2461 5.2461zm0-47.398h-67.102c-2.8984 0-5.2461-2.3516-5.2461-5.2461 0-2.8867 2.3516-5.2461 5.2461-5.2461h67.102c2.8867 0 5.2461 2.3633 5.2461 5.2461 0 2.9062-2.3594 5.2461-5.2461 5.2461zm0-47.367h-67.102c-2.8984 0-5.2461-2.3398-5.2461-5.2461 0-2.8867 2.3516-5.2461 5.2461-5.2461h67.102c2.8867 0 5.2461 2.3633 5.2461 5.2461 0 2.9023-2.3594 5.2461-5.2461 5.2461zm0-47.379h-67.102c-2.8984 0-5.2461-2.3516-5.2461-5.2461 0-2.8984 2.3516-5.2461 5.2461-5.2461h67.102c2.8867 0 5.2461 2.3516 5.2461 5.2461 0 2.8945-2.3594 5.2461-5.2461 5.2461zm0-47.379h-67.102c-2.8984 0-5.2461-2.3633-5.2461-5.2461 0-2.9062 2.3516-5.2461 5.2461-5.2461h67.102c2.8867 0 5.2461 2.3398 5.2461 5.2461 0 2.8945-2.3594 5.2461-5.2461 5.2461zm101.33 284.27h-67.102c-2.8867 0-5.2461-2.3398-5.2461-5.2461 0-2.8867 2.3633-5.2461 5.2461-5.2461h67.102c2.9062 0 5.2461 2.3633 5.2461 5.2461 0.003907 2.9141-2.3281 5.2461-5.2461 5.2461zm0-47.348h-67.102c-2.8867 0-5.2461-2.3633-5.2461-5.2461 0-2.9062 2.3633-5.2461 5.2461-5.2461h67.102c2.9062 0 5.2461 2.3398 5.2461 5.2461 0.003907 2.8828-2.3281 5.2461-5.2461 5.2461zm0-47.402h-67.102c-2.8867 0-5.2461-2.3633-5.2461-5.2461 0-2.8867 2.3633-5.2461 5.2461-5.2461h67.102c2.9062 0 5.2461 2.3633 5.2461 5.2461 0.003907 2.8867-2.3281 5.2461-5.2461 5.2461zm0-47.398h-67.102c-2.8867 0-5.2461-2.3516-5.2461-5.2461 0-2.8867 2.3633-5.2461 5.2461-5.2461h67.102c2.9062 0 5.2461 2.3633 5.2461 5.2461 0.003907 2.9062-2.3281 5.2461-5.2461 5.2461zm0-47.367h-67.102c-2.8867 0-5.2461-2.3398-5.2461-5.2461 0-2.8867 2.3633-5.2461 5.2461-5.2461h67.102c2.9062 0 5.2461 2.3633 5.2461 5.2461 0.003907 2.9023-2.3281 5.2461-5.2461 5.2461zm0-47.379h-67.102c-2.8867 0-5.2461-2.3516-5.2461-5.2461 0-2.8984 2.3633-5.2461 5.2461-5.2461h67.102c2.9062 0 5.2461 2.3516 5.2461 5.2461 0.003907 2.8945-2.3281 5.2461-5.2461 5.2461zm0-47.379h-67.102c-2.8867 0-5.2461-2.3633-5.2461-5.2461 0-2.9062 2.3633-5.2461 5.2461-5.2461h67.102c2.9062 0 5.2461 2.3398 5.2461 5.2461 0.003907 2.8945-2.3281 5.2461-5.2461 5.2461z"/>
  <path d="m261.05 549.96c-0.89062-2.0898-2.9805-3.3164-5.3125-3.1797-11.379 1.0391-22.691 3.3164-33.617 6.8008-15.23 4.8789-27.176 16.887-31.938 32.148-0.96484 3.1055-1.7109 6.3086-2.1953 9.5078-0.21875 1.5234 0.21875 3.0547 1.2188 4.1992 0.99609 1.1445 2.4453 1.8281 3.9766 1.8281h63.562c2.3398 0 4.3867-1.5312 5.0391-3.7891l7.3594-25.441c0.33594-1.1641 0.26172-2.4023-0.21094-3.5039z"/>
  <path d="m252.8 590.79h-53.16c0.17969-0.64062 0.36719-1.2578 0.55469-1.9102 3.7578-12.008 13.152-21.445 25.129-25.273 8.9727-2.8555 18.242-4.8789 27.574-5.9727l5.6367 13.309z"/>
  <path d="m350.74 599.45c0.99609-1.1562 1.4375-2.6992 1.2188-4.1875-0.48438-3.2344-1.2266-6.4141-2.1953-9.5078-4.7773-15.25-16.711-27.27-31.938-32.148-10.926-3.4844-22.23-5.7852-33.609-6.8125-2.3398-0.14844-4.418 1.0898-5.3125 3.1914l-7.8828 18.59c-0.47266 1.0898-0.54688 2.3516-0.21094 3.5039l7.3594 25.441c0.65234 2.2578 2.707 3.7891 5.0391 3.7891h63.562c1.5117-0.03125 2.9609-0.70312 3.9688-1.8594z"/>
  <path d="m287.14 590.79-5.7422-19.867 5.6484-13.297c9.3398 1.0898 18.59 3.0977 27.574 5.9609 11.977 3.832 21.371 13.289 25.129 25.273 0.19922 0.64062 0.38672 1.2695 0.55469 1.9102z"/>
 </g>
</svg>