<?xml version="1.0" encoding="UTF-8"?>
<!-- The Best Svg Icon site in the world: iconSvg.co, Visit us! https://iconsvg.co -->
<svg fill="#000000" width="800px" height="800px" version="1.1" viewBox="144 144 512 512" xmlns="http://www.w3.org/2000/svg">
 <g>
  <path d="m219.83 318.08 251.3 43.656 23.969-137.97-251.3-43.648zm36.074-97.176c14.609 2.2695 26.684-4.5664 29.363-16.613 0.6875-3.0781 3.6719-5.0781 6.7773-4.5352l151.35 26.289c3.1055 0.53906 5.2422 3.4258 4.8477 6.5547-0.73047 5.6289 0.85156 11.316 4.3789 15.762 3.8984 4.9336 9.8867 8.2969 17.32 9.7266 3.1602 0.60937 5.25 3.6367 4.6992 6.8086l-8.8984 51.223c-0.55078 3.1719-3.5391 5.3164-6.7188 4.8203-14.609-2.2617-26.684 4.5664-29.363 16.617-0.68359 3.082-3.668 5.082-6.7773 4.5352l-151.01-26.23c-3.1094-0.53906-5.2461-3.4297-4.8477-6.5586 1.5742-12.434-7.2812-22.695-22.043-25.539-3.1602-0.60938-5.25-3.6367-4.6992-6.8086l8.8984-51.223c0.55078-3.1719 3.5391-5.3203 6.7227-4.8281z"/>
  <path d="m279 305.11 140.84 24.465c5.457-13.238 19.117-21.348 35.211-20.844l7.0312-40.484c-15.395-4.9336-25.25-16.973-25.801-31.453l-141.18-24.523c-5.2969 12.852-18.324 20.859-33.812 20.867-0.46484 0-0.92969-0.007813-1.3984-0.023438l-7.0312 40.48c15.582 4.9531 25.574 17.023 26.141 31.516zm33.836-41.941v0.003906c2.0703-11.832 8.7461-22.359 18.566-29.273 9.8203-6.9141 21.984-9.6484 33.82-7.6094 15.02 2.6172 27.719 12.609 33.789 26.598 6.0742 13.984 4.7031 30.086-3.6445 42.848-8.3516 12.758-22.555 20.461-37.805 20.5-2.6289 0-5.2578-0.22656-7.8477-0.67969-11.836-2.0586-22.371-8.7305-29.289-18.555-6.9141-9.8242-9.6445-21.992-7.5898-33.828z"/>
  <path d="m351.73 303.92c10.258 1.7812 20.766-1.3086 28.422-8.3633 7.6602-7.0547 11.602-17.27 10.668-27.641-0.93359-10.371-6.6367-19.715-15.434-25.289-8.7969-5.5703-19.684-6.7344-29.457-3.1484-9.7773 3.5859-17.328 11.512-20.434 21.453-3.1055 9.9375-1.4141 20.754 4.582 29.27 5.0938 7.2812 12.891 12.219 21.652 13.719z"/>
  <path d="m493.38 403.79c-3.832 0-7.2852 2.3086-8.7539 5.8477-1.4688 3.543-0.65625 7.6172 2.0547 10.328 2.707 2.7109 6.7852 3.5195 10.324 2.0547 3.543-1.4688 5.8516-4.9219 5.8516-8.7539-0.007813-5.2305-4.2461-9.4727-9.4766-9.4766z"/>
  <path d="m581 392.83c-0.45312-0.44922-0.83203-0.96875-1.1211-1.5352-10.348-20.695-25.664-38.984-45.508-54.363-0.19531-0.15625-0.38281-0.32031-0.55859-0.49219-1.5-1.5156-2.3125-3.5781-2.2461-5.707 0-0.21484 0.011719-0.42969 0.035156-0.64062l2.5625-23.582c1.6523-14.887 2.5273-24.008 2.0977-26.586-0.019531-0.10547-0.03125-0.21094-0.042968-0.31641-0.074219-0.66797-0.27344-2.4375-3.8711-2.4375h-0.20312c-5.0977-0.17578-15.422 1.2383-35.844 8.7031l-14.543 83.707-0.003906-0.003906c-0.49219 2.832-2.9531 4.8984-5.8242 4.8945-0.34375 0-0.68359-0.027344-1.0234-0.085937l-182.57-31.719c-9.6094 8.0469-18.258 17.18-25.77 27.215-2.2578-1.1172-4.9766-0.67187-6.7617 1.1055-11.438 11.336-28.043 15.734-43.59 11.543-15.551-4.1914-27.695-16.336-31.887-31.887-4.1914-15.547 0.20703-32.152 11.543-43.59 2.2734-2.3125 2.2578-6.0234-0.035157-8.3164s-6.0039-2.3086-8.3125-0.035156c-12.98 12.984-18.918 31.418-15.957 49.535 2.9648 18.117 14.469 33.699 30.91 41.867s35.809 7.9219 52.039-0.66016l-3.0664 5.9531c-7.3945 15.34-11.84 30.973-12.824 45.223v6.9922c0 28.863 9.9219 56.785 28.48 80.785 2.1133 2.3242 2.4766 5.7539 0.89453 8.4688-0.17188 0.32812-0.37891 0.63672-0.61328 0.92578-15.449 20.137-14.551 47.477 2.1562 65.086 10.426 10.898 24.59 17.535 39.887 17.535h1.9688c14.469 0.16797 28.438-5.2695 38.984-15.18l12.777-12.164c1.5078-1.4648 3.5508-2.25 5.6523-2.1836 0.45703 0 0.91016 0.054687 1.3516 0.15625 25.785 6.0703 52.523 6.918 78.641 2.4961 0.33203-0.058593 0.66797-0.085937 1.0078-0.085937 2.0938-0.070313 4.1289 0.70703 5.6406 2.1641l9.6992 9.1875c10.469 9.7227 24.074 15.375 38.352 15.941 14.098 0.68359 27.957-3.8164 38.965-12.652 8.6289-7.0703 14.609-16.852 16.973-27.75 2.3594-10.902 0.96094-22.281-3.9688-32.285-1.082-1.6758-1.3477-3.75-0.73047-5.6445 0.19922-1.0898 0.69922-2.1016 1.4453-2.918 9.543-10.453 17.516-22.234 23.668-34.98 0.29688-0.60156 0.69141-1.1523 1.1719-1.6211 1.3906-1.543 3.3047-2.5195 5.3672-2.7422l42.879-4.5078v-95.547l-42.887-4.5273h0.003907c-2.0703-0.22266-3.9883-1.1992-5.3906-2.7383zm-87.617 41.715c-5.6445 0-11.059-2.2422-15.051-6.2344-3.9883-3.9922-6.2344-9.4062-6.2344-15.051s2.2422-11.059 6.2344-15.051c3.9922-3.9883 9.4062-6.2305 15.051-6.2305 5.6445 0 11.059 2.2422 15.051 6.2344 3.9922 3.9883 6.2344 9.4023 6.2344 15.051-0.007812 5.6406-2.25 11.051-6.2422 15.039-3.9883 3.9922-9.3984 6.2344-15.043 6.2422z"/>
 </g>
</svg>