<?xml version="1.0" encoding="UTF-8"?>
<!-- The Best Svg Icon site in the world: iconSvg.co, Visit us! https://iconsvg.co -->
<svg fill="#000000" width="800px" height="800px" version="1.1" viewBox="144 144 512 512" xmlns="http://www.w3.org/2000/svg">
 <g>
  <path d="m440.46 464.74c4.1758 0 7.5586-3.3789 7.5586-7.5586v-15.133c0-4.1758-3.3789-7.5586-7.5586-7.5586-4.1758 0-7.5586 3.3789-7.5586 7.5586v15.133c0 4.1719 3.3828 7.5586 7.5586 7.5586z"/>
  <path d="m440.46 520.24c4.1758 0 7.5586-3.3789 7.5586-7.5586v-15.133c0-4.1758-3.3789-7.5586-7.5586-7.5586-4.1758 0-7.5586 3.3789-7.5586 7.5586v15.133c0 4.1719 3.3828 7.5586 7.5586 7.5586z"/>
  <path d="m504.72 526.98c4.1758 0 7.5586-3.3789 7.5586-7.5586v-12.605c0-4.1758-3.3789-7.5586-7.5586-7.5586-4.1758 0-7.5586 3.3789-7.5586 7.5586v12.605c0.003906 4.1719 3.3828 7.5586 7.5586 7.5586z"/>
  <path d="m599.48 473.21-0.38281-50.496c-0.054687-7.6328-4.3359-14.484-11.164-17.887-6.6289-3.3164-15.086-2.5508-21.008 1.8633l-8.4805 6.3008-83.234-71.789c-6.4648-5.5703-15.941-7.0312-23.781-3.6523l-52.77 22.742-126.27-126.27c-4.2812-4.2812-9.9766-6.6406-16.031-6.6406-6.0547 0-11.75 2.3594-16.031 6.6406s-6.6406 9.9766-6.6406 16.031c0 6.0547 2.3594 11.75 6.6406 16.031l4.9258 4.9258v126.61c-34.387 18-57.938 53.984-57.938 95.41 0 59.379 48.309 107.69 107.69 107.69 30.672 0 58.324-12.957 77.953-33.605 0.69531 0.64453 1.4922 1.0469 2.3477 1.0469h197.33c2.6016 0 4.707-3.3789 4.707-7.5586l0.003906-65.203c0.66406 0.066406 1.3281 0.15234 1.9961 0.15234h0.10156c11.113 0 20.152-9.0391 20.152-20.152 0.003906-0.74609-0.035156-1.4766-0.11328-2.1914zm-288.72-117.49c4.1758 0 7.5586-3.3789 7.5586-7.5586v-4.0977l59.168 59.168c6.4727 6.4805 16.59 8.4219 25.004 4.793l30.422-13.113v6.7695c0 4.1758 3.3789 7.5586 7.5586 7.5586 4.1758 0 7.5586-3.3789 7.5586-7.5586v-7.5586c0-1.8906-0.71875-3.5977-1.8633-4.9219l10.188-4.3945 40.82 35.199v6.9727c0 4.1758 3.3789 7.5586 7.5586 7.5586 2.4141 0 4.5352-1.1484 5.9141-2.9062l10.52 9.0742-4.0312 2.9961c-3.7969 2.8281-6.3945 6.7852-7.5117 11.18-1.3203-1.1328-3.0195-1.8438-4.8984-1.8438-4.1758 0-7.5586 3.3789-7.5586 7.5586v12.605c0 4.1758 3.3789 7.5586 7.5586 7.5586 4.1758 0 7.5586-3.3789 7.5586-7.5586v-2.2969c2.5195 3.8633 6.3242 6.8008 10.918 8.2227l39.039 12.07v61.844h-49.957c0-4.1758-3.3789-7.5586-7.5586-7.5586-4.1758 0-7.5586 3.3789-7.5586 7.5586h-49.141c0-4.1758-3.3789-7.5586-7.5586-7.5586-4.1758 0-7.5586 3.3789-7.5586 7.5586h-45.012c0-1.4453-0.42969-2.7852-1.1328-3.9336 10.035-16.359 15.93-35.523 15.93-56.078 0-20.742-5.9961-40.066-16.199-56.523 0.87109-1.2344 1.4023-2.7305 1.4023-4.3594v-7.5586c0-4.1758-3.3789-7.5586-7.5586-7.5586-2.5586 0-4.8164 1.2812-6.1836 3.2305-14.66-15.93-33.98-27.461-55.848-32.309v-2.6094c0-2.7969-3.3789-7.5938-7.5586-7.5938-4.1758 0-7.5586 4.8008-7.5586 7.5938v0.41797c-2.7148-0.20703-5.4258-0.41797-8.1914-0.41797-12.125 0-23.75 2.1055-34.637 5.8203v-105.04l47.5 47.5c-2.7422 1.1328-4.6719 3.8281-4.6719 6.9844v7.5586c0.015625 4.1758 3.3945 7.5586 7.5703 7.5586zm-15.75 229.89c-51.047 0-92.574-41.527-92.574-92.574s41.531-92.574 92.574-92.574c51.047 0 92.574 41.527 92.574 92.574 0.003907 51.047-41.531 92.574-92.574 92.574zm284.44-105.17h-0.10156c-0.50781 0-1.0078-0.074219-1.4844-0.22266l-50.195-15.523c-1.8242-0.5625-3.1523-2.0859-3.4766-3.9648-0.32422-1.8828 0.42969-3.7578 1.9609-4.8984l11.602-8.625c1.8398-1.3672 2.957-3.4961 3.043-5.7891 0.085937-2.293-0.88281-4.5-2.6211-5.9961l-75.539-65.141c-1.3945-1.2031-3.1523-1.832-4.9375-1.832-1.0078 0-2.0234 0.20312-2.9883 0.62109l-58.207 25.086c-2.8125 1.2148-6.1758 0.55469-8.332-1.5977l-137.15-137.16c-1.4258-1.4258-2.2109-3.3242-2.2109-5.3398s0.78516-3.9141 2.2109-5.3438c2.8555-2.8516 7.8281-2.8516 10.688 0l129.9 129.9c2.1875 2.1914 5.4883 2.8203 8.332 1.5977l57.473-24.773c2.6133-1.1289 5.7734-0.64063 7.9258 1.2148l87.824 75.742c2.6758 2.3125 6.6016 2.4531 9.4453 0.34375l13.348-9.9219c1.4805-1.1016 3.5625-1.2891 5.2461-0.45703 1.707 0.85156 2.7773 2.5625 2.793 4.4688l0.38281 50.934c0 0.33594 0.023437 0.67188 0.074218 1.0039 0.03125 0.21094 0.039063 0.41797 0.039063 0.63672 0 2.7812-2.2617 5.0391-5.0391 5.0391z"/>
  <path d="m295.23 510.42h-0.003906c-20.688 0-38.996 11.566-46.633 29.477-1.6367 3.8398 0.14453 8.2812 3.9844 9.9219 0.96875 0.41406 1.9766 0.60938 2.9609 0.60938 2.9375 0 5.7266-1.7227 6.9531-4.5938 5.1797-12.141 18.332-20.293 32.734-20.293h0.003906c14.211 0 26.93 7.6719 32.391 19.543 1.75 3.7852 6.2305 5.457 10.027 3.707 3.7891-1.7422 5.4531-6.2305 3.707-10.027-7.9219-17.219-26.027-28.344-46.125-28.344z"/>
  <path d="m340.59 470c-2.3711 2.3789-5.5312 3.6836-8.8906 3.6836s-6.5195-1.3086-8.8984-3.6836c-2.9531-2.9531-7.7344-2.9531-10.688 0-2.9531 2.9492-2.9531 7.7383 0 10.688 5.2305 5.2344 12.184 8.1133 19.582 8.1133 7.3945 0 14.355-2.8828 19.582-8.1133 2.9492-2.9531 2.9492-7.7383 0-10.691-2.9492-2.9492-7.7344-2.9492-10.688 0.003906z"/>
  <path d="m258.32 488.8c7.3945 0 14.355-2.8828 19.582-8.1133 2.9492-2.9531 2.9492-7.7383 0-10.691-2.9531-2.9492-7.7383-2.9492-10.691 0-2.3711 2.3789-5.5312 3.6836-8.8906 3.6836s-6.5195-1.3086-8.8984-3.6836c-2.9531-2.9531-7.7344-2.9531-10.688 0-2.9531 2.9492-2.9531 7.7383 0 10.688 5.2344 5.2383 12.188 8.1172 19.586 8.1172z"/>
 </g>
</svg>