<?xml version="1.0" encoding="UTF-8"?>
<!-- The Best Svg Icon site in the world: iconSvg.co, Visit us! https://iconsvg.co -->
<svg fill="#000000" width="800px" height="800px" version="1.1" viewBox="144 144 512 512" xmlns="http://www.w3.org/2000/svg">
 <g>
  <path d="m365.56 328.17c10.961 0 21.473-4.3555 29.223-12.105s12.105-18.262 12.105-29.223c0-10.961-4.3555-21.473-12.105-29.227-7.75-7.75-18.262-12.102-29.223-12.102-10.961 0-21.473 4.3516-29.223 12.102-7.75 7.7539-12.105 18.266-12.105 29.227 0.023437 10.953 4.3867 21.449 12.129 29.195 7.7461 7.7461 18.246 12.109 29.199 12.133zm0-73.711v-0.003906c8.5781-0.007813 16.809 3.3906 22.883 9.4453 6.0742 6.0586 9.4883 14.281 9.5 22.859 0.011719 8.5781-3.3867 16.812-9.4453 22.883-6.0586 6.0742-14.281 9.4922-22.859 9.5039-8.5781 0.007813-16.809-3.3906-22.883-9.4453-6.0703-6.0586-9.4883-14.281-9.5-22.859 0.011719-8.5703 3.4141-16.785 9.4688-22.848 6.0586-6.0625 14.266-9.4766 22.836-9.5z"/>
  <path d="m289.99 328.23c-8.457-0.003906-16.562 3.3516-22.543 9.3281-5.9805 5.9766-9.3398 14.086-9.3398 22.539s3.3555 16.562 9.3359 22.539c5.9766 5.9805 14.086 9.3359 22.539 9.3359s16.562-3.3594 22.539-9.3398c5.9766-5.9805 9.332-14.086 9.3281-22.543-0.007812-8.4453-3.3711-16.543-9.3438-22.516-5.9727-5.9727-14.07-9.3359-22.516-9.3438zm0 54.699c-6.0586 0.003907-11.871-2.4023-16.156-6.6836-4.2852-4.2812-6.6914-10.09-6.6953-16.148 0-6.0586 2.4062-11.867 6.6875-16.152s10.094-6.6914 16.148-6.6914c6.0586-0.003906 11.867 2.4023 16.152 6.6875 4.2852 4.2812 6.6914 10.094 6.6914 16.148-0.003906 6.0547-2.4141 11.859-6.6914 16.141-4.2812 4.2812-10.086 6.6914-16.137 6.6992z"/>
  <path d="m477.66 327.27c-14.195 0-27.809 5.6406-37.844 15.676-10.039 10.039-15.676 23.652-15.676 37.844 0 14.195 5.6367 27.809 15.676 37.848 10.035 10.035 23.648 15.676 37.844 15.676s27.809-5.6406 37.844-15.676c10.039-10.039 15.676-23.652 15.676-37.848-0.015625-14.188-5.6602-27.793-15.691-37.824-10.035-10.035-23.641-15.68-37.828-15.695zm0 98.008c-11.801 0-23.113-4.6875-31.457-13.031-8.3438-8.3398-13.031-19.656-13.031-31.457 0-11.797 4.6875-23.113 13.031-31.457 8.3438-8.3398 19.656-13.027 31.457-13.027 11.797 0 23.113 4.6875 31.457 13.027 8.3438 8.3438 13.031 19.66 13.031 31.457-0.015625 11.797-4.707 23.105-13.047 31.445s-19.648 13.031-31.441 13.043z"/>
  <path d="m476.88 373c-3.1836 0-6.0547-1.918-7.2734-4.8594-1.2188-2.9414-0.54297-6.3281 1.707-8.5781s5.6367-2.9258 8.5781-1.707 4.8594 4.0898 4.8594 7.2734c0 2.4961 2.0234 4.5156 4.5156 4.5156 2.4961 0 4.5195-2.0195 4.5195-4.5156 0-3.6953-1.2109-7.293-3.4492-10.234-2.2383-2.9453-5.3789-5.0742-8.9414-6.0586v-2.8555c-0.11328-2.4102-2.0977-4.3047-4.5117-4.3047-2.4102 0-4.3984 1.8945-4.5117 4.3047v2.8555c-5.2852 1.4727-9.5234 5.418-11.367 10.586-1.8477 5.168-1.0664 10.906 2.0898 15.395 3.1602 4.4883 8.2969 7.1602 13.785 7.168 4.5117-0.003907 8.5781 2.7109 10.309 6.875 1.7266 4.168 0.77734 8.9648-2.4141 12.156-3.1875 3.1875-7.9805 4.1445-12.148 2.418-4.168-1.7227-6.8867-5.7891-6.8867-10.301 0-2.4922-2.0195-4.5156-4.5156-4.5156-2.4922 0-4.5156 2.0234-4.5156 4.5156 0 4.5703 1.5508 9.0039 4.3945 12.578 2.8477 3.5742 6.8203 6.0781 11.27 7.1016v2.7773c-0.058594 1.2305 0.39453 2.4336 1.2461 3.3281 0.85156 0.89453 2.0312 1.3984 3.2656 1.3984 1.2344 0 2.4141-0.50391 3.2695-1.3984 0.85156-0.89453 1.3008-2.0977 1.2422-3.3281v-2.7969c6.5078-1.4766 11.863-6.082 14.301-12.297 2.4375-6.2148 1.6406-13.23-2.125-18.742-3.7656-5.5078-10.016-8.7969-16.691-8.7812z"/>
  <path d="m600.62 596.11h-162.47l-8.6367-13.973c-3.6094-5.8438-5.5234-12.574-5.5195-19.441v-53.965c9.9062 4.043 20.508 6.1094 31.211 6.082 19.324 0 37.695-6.5039 50.695-16.48 18.391-14.129 25.801-33.801 20.879-54.691 34.973-1.2188 60.242-19.484 68.152-49.672s-4.2891-62.859-28.449-77.855c5.7266-24.383-0.48047-46.719-17.711-63.191-17.227-16.473-43.176-24.141-63.555-19.277-13.617-22.406-34.34-36.004-58.734-38.375-27.473-2.707-56.215 8.8555-75.828 30.289-33.219-13.777-63.961-10.332-84.742 9.6328v-0.003906c-8.4297 8.0703-14.438 18.332-17.348 29.633-2.9062 11.305-2.5977 23.191 0.89453 34.328-37.875 13.273-50.457 57.621-43.059 96.098 4.4961 23.391 16.836 45.973 36.406 58.559 2.0859 1.8281 4.5352 3.1875 7.1836 3.9961 8.8086 4.1719 18.445 6.3047 28.191 6.2383 1.5859 0 3.207-0.058593 4.8398-0.16797 5.3242 22.07 22.297 39.645 47.164 48.59 9.9375 3.5625 20.379 5.5 30.93 5.7461v44.488c0 6.8672-1.9102 13.598-5.5195 19.441l-8.6289 13.973h-147.6c-2.4961 0-4.5156 2.0234-4.5156 4.5156 0 2.4961 2.0195 4.5195 4.5156 4.5195h401.25c2.4961 0 4.5195-2.0234 4.5195-4.5195 0-2.4922-2.0234-4.5156-4.5195-4.5156zm-122.97-149.86c-17.371 0-34.031-6.8984-46.312-19.184-12.285-12.285-19.184-28.945-19.184-46.312 0-17.371 6.9023-34.031 19.188-46.312 12.285-12.285 28.945-19.184 46.316-19.18 17.371 0 34.027 6.9023 46.309 19.188 12.281 12.285 19.18 28.945 19.18 46.316-0.023438 17.363-6.9297 34.008-19.207 46.285-12.277 12.277-28.926 19.18-46.289 19.199zm6.6406-190.27c0.011719 5.0078-1.9688 9.8164-5.5039 13.363-3.5352 3.5469-8.3359 5.543-13.344 5.5469-5.0078 0.007813-9.8164-1.9766-13.359-5.5156-3.543-3.5391-5.5352-8.3398-5.5391-13.348 0-5.0117 1.9883-9.8125 5.5312-13.355 3.5391-3.5391 8.3438-5.5273 13.352-5.5273 5.0039 0.007813 9.7969 1.9961 13.332 5.5312 3.5391 3.5391 5.5273 8.332 5.5312 13.332zm-239.11 183.16v-0.003906c-0.003906-4.5273 2.9102-8.5391 7.2148-9.9375 4.3086-1.3984 9.0234 0.13672 11.68 3.8008 2.6562 3.6641 2.6484 8.625-0.019531 12.281-2.668 3.6562-7.3906 5.1797-11.691 3.7656-1.1602-0.58984-2.293-1.2109-3.4062-1.8789h0.003906c-2.4023-1.9648-3.8047-4.8984-3.8281-8zm88.066 64.797c-23.23-8.3633-38.602-25.023-42.164-45.715 0-0.10937-0.058594-0.21484-0.089844-0.32422l0.003906-0.003906c-0.03125-0.15234-0.074219-0.30078-0.12891-0.44531-0.050782-0.13672-0.10938-0.26953-0.17578-0.40234-0.058593-0.13672-0.12891-0.26562-0.20703-0.39453-0.070312-0.11328-0.14453-0.22656-0.22656-0.33203-0.097657-0.12891-0.19531-0.26562-0.30469-0.38281-0.10938-0.11719-0.15625-0.14844-0.23438-0.22656v-0.003906c-0.13672-0.12891-0.27734-0.25-0.42578-0.36328l-0.20703-0.12891v0.003906c-0.17578-0.12109-0.35938-0.22656-0.55078-0.32812l-0.17578-0.070312v0.003906c-0.21094-0.089844-0.42969-0.16016-0.64844-0.21875h-0.1875c-0.22266-0.039063-0.44531-0.066406-0.66797-0.078125h-0.32422-0.42578c-6.0273 0.75-12.129 0.63672-18.125-0.33203 5-4.1094 7.6367-10.43 7.0273-16.875-0.60938-6.4414-4.3789-12.16-10.059-15.258s-12.531-3.1719-18.277-0.19141c-5.7422 2.9766-9.6328 8.6133-10.375 15.043-11.258-11.906-18.086-28.062-21.027-43.375-6.8867-35.918 5.0195-77.383 41.191-87.125l0.26562-0.097657 0.22656-0.070312c0.058594 0 0.097657-0.058594 0.14844-0.078125h-0.003907c0.16406-0.070313 0.32813-0.15234 0.48047-0.24219l0.30469-0.19531c0.13672-0.097656 0.26562-0.20703 0.39453-0.31641l0.27734-0.26562c0.10938-0.11719 0.20703-0.23438 0.30469-0.36328l0.22656-0.32422v-0.003906c0.085937-0.12891 0.16016-0.26172 0.22656-0.40234 0.058594-0.11719 0.11719-0.24609 0.16797-0.375 0.054687-0.13672 0.10156-0.27734 0.13672-0.42188 0-0.13672 0.070312-0.27734 0.097656-0.41406 0.011719-0.14453 0.011719-0.28906 0-0.43359v-0.45312-0.41406c0-0.13672 0-0.32422-0.078125-0.48047-0.003906-0.0625-0.003906-0.125 0-0.1875 0-0.078125-0.070313-0.14844-0.097656-0.22656-0.019531-0.089844-0.042969-0.17578-0.070313-0.26562-3.8906-9.9492-4.7617-20.828-2.5-31.273 2.2578-10.441 7.5469-19.988 15.203-27.441 18.629-17.898 47.004-20.301 77.863-6.582l0.20703 0.070312c0.16406 0.0625 0.33203 0.11719 0.50391 0.16406l0.35547 0.070312h-0.003907c0.16797 0.03125 0.33594 0.050781 0.50391 0.058594h0.85547l0.39453-0.070313c0.14453-0.027343 0.29297-0.066406 0.43359-0.11719l0.40234-0.15625 0.38281-0.1875c0.13672-0.078125 0.26953-0.16406 0.39453-0.25391 0.10938-0.074219 0.21484-0.15234 0.31641-0.23828 0.12891-0.10938 0.25-0.22656 0.36328-0.35547 0.050781 0 0.10937-0.097657 0.15625-0.15625 17.477-20.527 45.059-32.215 70.277-29.688 13.176 1.2891 30.66 6.8008 45.066 24.383-8.4219-1.6016-17.113 0.75391-23.574 6.3906-6.4648 5.6328-9.9805 13.926-9.5391 22.488 0.4375 8.5625 4.7852 16.449 11.789 21.391 7.0039 4.9453 15.895 6.3984 24.109 3.9414 8.2148-2.4531 14.844-8.5469 17.988-16.523 3.1445-7.9766 2.4531-16.953-1.8789-24.352 17.191-3.207 38.68 3.6914 53.137 17.484 15.469 14.828 20.566 35.305 14.355 57.664 0 0.097656 0 0.19531-0.058594 0.29688v-0.003906c-0.042968 0.18359-0.074218 0.36719-0.089843 0.55078-0.007813 0.14453-0.007813 0.28906 0 0.43359v0.44141c0.023437 0.15625 0.058593 0.30469 0.10156 0.45312 0.019531 0.13281 0.046875 0.26562 0.085938 0.39453 0.046875 0.14063 0.10547 0.28125 0.16797 0.41406 0.058593 0.12891 0.10937 0.26562 0.17578 0.39453 0.070312 0.11719 0.14453 0.23438 0.22656 0.34375 0.078125 0.12891 0.16406 0.25391 0.25781 0.375l0.31641 0.31641c0.097656 0.097657 0.19531 0.20703 0.30469 0.29688l-0.003907-0.003907c0.14453 0.11328 0.29688 0.21484 0.45312 0.30469 0.085938 0.0625 0.17578 0.125 0.26562 0.17578 22.633 12.113 34.242 41.949 27.051 69.391-3.2656 12.469-15.105 40.441-56.992 42.844 18.543-17.828 26.578-43.965 21.246-69.133-5.332-25.168-23.273-45.801-47.453-54.582-24.184-8.7773-51.18-4.457-71.418 11.43-20.234 15.883-30.84 41.086-28.051 66.66 2.7852 25.574 18.574 47.902 41.754 59.055 23.184 11.152 50.48 9.5547 72.203-4.2266 4.9805 18.047-1.1406 35.199-17.082 47.449-17.84 13.625-48.344 20.023-74.914 8.3711l28.898-32.867 0.003906 0.003906c1.2812-1.4492 1.4961-3.5547 0.53516-5.2344-0.96484-1.6758-2.8906-2.5547-4.7891-2.1758l-39.586 7.6445-14.102-26.352c-1.5664-2.9531-6.4336-2.9531-8 0l-14.129 26.352-39.605-7.6562c-1.8945-0.36328-3.8086 0.51562-4.7695 2.1875-0.96094 1.6758-0.75 3.7734 0.51953 5.2227l30.504 34.676v7.875c-9.5039-0.26562-18.906-2.0352-27.859-5.2461zm55.684 92.141h-31.395l5.707-9.2305c4.4961-7.2695 6.8789-15.641 6.8867-24.188v-63.016c-0.003906-1.0859-0.40234-2.1367-1.1211-2.9531l-22.887-26.035 29.902 5.7852c1.9453 0.37891 3.9102-0.55469 4.8438-2.3008l11.711-21.883 11.699 21.883h-0.003906c0.9375 1.7422 2.8984 2.6758 4.8438 2.3008l29.902-5.7852-22.887 26.035c-0.71875 0.81641-1.1172 1.8672-1.1211 2.9531v63.047c0.007813 8.543 2.3906 16.918 6.8867 24.184l5.707 9.2305z"/>
 </g>
</svg>