<?xml version="1.0" encoding="UTF-8"?>
<!-- The Best Svg Icon site in the world: iconSvg.co, Visit us! https://iconsvg.co -->
<svg fill="#000000" width="800px" height="800px" version="1.1" viewBox="144 144 512 512" xmlns="http://www.w3.org/2000/svg">
 <g>
  <path d="m628.29 384.25h-39.363v-133.82c-0.015625-2.0859-0.83203-4.0859-2.2812-5.5898l-78.719-78.719c-1.5039-1.4492-3.5039-2.2695-5.5898-2.2852h-283.39c-4.3477 0-7.8711 3.5273-7.8711 7.875v212.54h-39.359c-4.3477 0-7.875 3.5234-7.875 7.8711v236.16c0 2.0859 0.83203 4.0898 2.3086 5.5664 1.4766 1.4727 3.4766 2.3047 5.5664 2.3047h456.58c2.0859 0 4.0898-0.83203 5.5664-2.3047 1.4727-1.4766 2.3047-3.4805 2.3047-5.5664v-236.16c0-2.0859-0.83203-4.0898-2.3047-5.5664-1.4766-1.4766-3.4805-2.3047-5.5664-2.3047zm-118.08-193.57 51.875 51.879h-44.004c-4.3477 0-7.8711-3.5234-7.8711-7.8711zm-283.39-11.098h267.65v55.105c0.019531 6.2578 2.5156 12.254 6.9414 16.676 4.4219 4.4258 10.418 6.9219 16.676 6.9375h55.105v125.95h-346.37zm393.6 440.83h-440.83v-220.41h440.83z"/>
  <path d="m392.12 486.59h15.746c2.0859 0 4.0898 0.83203 5.5664 2.3047 1.4766 1.4766 2.3047 3.4805 2.3047 5.5664 0 4.3477 3.5234 7.875 7.8711 7.875 4.3477 0 7.875-3.5273 7.875-7.875 0-6.2617-2.4883-12.27-6.918-16.695-4.4297-4.4297-10.438-6.918-16.699-6.918v-7.8711c0-4.3477-3.5234-7.875-7.8711-7.875s-7.875 3.5273-7.875 7.875v7.8711c-8.4375 0-16.23 4.5-20.449 11.809-4.2188 7.3047-4.2188 16.309 0 23.613 4.2188 7.3086 12.012 11.809 20.449 11.809h15.746c4.3477 0 7.8711 3.5234 7.8711 7.8711 0 4.3477-3.5234 7.875-7.8711 7.875h-15.746c-4.3477 0-7.8711-3.5273-7.8711-7.875 0-4.3477-3.5234-7.8711-7.8711-7.8711-4.3477 0-7.8711 3.5234-7.8711 7.8711 0 6.2656 2.4883 12.273 6.9141 16.699 4.4297 4.4297 10.438 6.918 16.699 6.918v7.8711c0 4.3477 3.5273 7.875 7.875 7.875s7.8711-3.5273 7.8711-7.875v-7.8711c8.4375 0 16.234-4.5 20.453-11.809 4.2188-7.3047 4.2188-16.309 0-23.613-4.2188-7.3086-12.016-11.809-20.453-11.809h-15.746c-4.3477 0-7.8711-3.5273-7.8711-7.875 0-4.3477 3.5234-7.8711 7.8711-7.8711z"/>
  <path d="m297.66 289.79h-15.746c-4.3477 0-7.8711-3.5234-7.8711-7.8711 0-4.3477-3.5234-7.8711-7.8711-7.8711-4.3477 0-7.875 3.5234-7.875 7.8711 0 6.2617 2.4883 12.27 6.918 16.699 4.4297 4.4297 10.438 6.918 16.699 6.918v7.8711c0 4.3477 3.5234 7.8711 7.8711 7.8711 4.3477 0 7.875-3.5234 7.875-7.8711v-7.8711c8.4336 0 16.23-4.5039 20.449-11.809 4.2188-7.3086 4.2188-16.309 0-23.617-4.2188-7.3047-12.016-11.809-20.449-11.809h-15.746c-4.3477 0-7.8711-3.5234-7.8711-7.8711 0-4.3477 3.5234-7.8711 7.8711-7.8711h15.746c2.0859 0 4.0898 0.82812 5.5664 2.3047 1.4727 1.4766 2.3047 3.4805 2.3047 5.5664 0 4.3477 3.5234 7.8711 7.8711 7.8711s7.8711-3.5234 7.8711-7.8711c0-6.2617-2.4883-12.27-6.918-16.699-4.4258-4.4297-10.434-6.918-16.695-6.918v-7.8711c0-4.3477-3.5273-7.8711-7.875-7.8711-4.3477 0-7.8711 3.5234-7.8711 7.8711v7.8711c-8.4375 0-16.234 4.5039-20.453 11.809-4.2188 7.3086-4.2188 16.309 0 23.617 4.2188 7.3086 12.016 11.809 20.453 11.809h15.746c4.3477 0 7.8711 3.5234 7.8711 7.8711 0 4.3477-3.5234 7.8711-7.8711 7.8711z"/>
  <path d="m400 431.49c-20.879 0-40.902 8.293-55.664 23.055-14.766 14.762-23.059 34.785-23.059 55.664 0 20.879 8.293 40.902 23.059 55.664 14.762 14.762 34.785 23.055 55.664 23.055 20.875 0 40.898-8.293 55.664-23.055 14.762-14.762 23.055-34.785 23.055-55.664-0.023438-20.871-8.3242-40.879-23.082-55.637-14.758-14.758-34.766-23.062-55.637-23.082zm0 141.7c-16.703 0-32.723-6.6367-44.531-18.445-11.812-11.812-18.445-27.828-18.445-44.531s6.6328-32.723 18.445-44.531c11.809-11.809 27.828-18.445 44.531-18.445 16.699 0 32.719 6.6367 44.531 18.445 11.809 11.809 18.445 27.828 18.445 44.531-0.019531 16.695-6.6602 32.703-18.469 44.512-11.805 11.805-27.812 18.445-44.508 18.465z"/>
  <path d="m573.18 407.87h-346.37c-4.3477 0-7.8711 3.5234-7.8711 7.8711 0 6.2656-2.4883 12.27-6.918 16.699-4.4258 4.4297-10.434 6.918-16.699 6.918-4.3477 0-7.8711 3.5234-7.8711 7.8711v125.95c0 2.0859 0.83203 4.0898 2.3047 5.5664 1.4766 1.4766 3.4805 2.3047 5.5664 2.3047 6.2656 0 12.273 2.4883 16.699 6.918 4.4297 4.4297 6.918 10.434 6.918 16.699 0 2.0859 0.82812 4.0898 2.3047 5.5664 1.4766 1.4766 3.4805 2.3047 5.5664 2.3047h346.37c2.0859 0 4.0898-0.82812 5.5664-2.3047 1.4766-1.4766 2.3047-3.4805 2.3047-5.5664 0-6.2656 2.4883-12.27 6.918-16.699 4.4297-4.4297 10.434-6.918 16.699-6.918 2.0859 0 4.0898-0.82813 5.5664-2.3047 1.4766-1.4766 2.3047-3.4805 2.3047-5.5664v-125.95c0-2.0859-0.82812-4.0898-2.3047-5.5664-1.4766-1.4766-3.4805-2.3047-5.5664-2.3047-6.2656 0-12.27-2.4883-16.699-6.918-4.4297-4.4297-6.918-10.434-6.918-16.699 0-2.0859-0.82813-4.0898-2.3047-5.5664-1.4766-1.4766-3.4805-2.3047-5.5664-2.3047zm23.617 46.445v111.78c-7.5586 1.5547-14.496 5.293-19.953 10.75-5.457 5.457-9.1953 12.395-10.75 19.953h-332.2c-1.5547-7.5586-5.293-14.496-10.75-19.953-5.457-5.457-12.391-9.1953-19.949-10.75v-111.78c7.5586-1.5547 14.492-5.293 19.949-10.75 5.457-5.457 9.1953-12.395 10.75-19.953h332.2c1.5547 7.5586 5.293 14.496 10.75 19.953 5.457 5.457 12.395 9.1953 19.953 10.75z"/>
  <path d="m360.64 274.05h110.21c4.3477 0 7.8711-3.5234 7.8711-7.8711 0-4.3477-3.5234-7.875-7.8711-7.875h-110.21c-4.3477 0-7.8711 3.5273-7.8711 7.875 0 4.3477 3.5234 7.8711 7.8711 7.8711z"/>
  <path d="m360.64 242.56h110.21c4.3477 0 7.8711-3.5234 7.8711-7.8711s-3.5234-7.875-7.8711-7.875h-110.21c-4.3477 0-7.8711 3.5273-7.8711 7.875s3.5234 7.8711 7.8711 7.8711z"/>
  <path d="m533.82 289.79h-173.19c-4.3477 0-7.8711 3.5273-7.8711 7.875 0 4.3477 3.5234 7.8711 7.8711 7.8711h173.19c4.3477 0 7.8711-3.5234 7.8711-7.8711 0-4.3477-3.5234-7.875-7.8711-7.875z"/>
  <path d="m533.82 321.28h-173.19c-4.3477 0-7.8711 3.5234-7.8711 7.8711 0 4.3477 3.5234 7.875 7.8711 7.875h173.19c4.3477 0 7.8711-3.5273 7.8711-7.875 0-4.3477-3.5234-7.8711-7.8711-7.8711z"/>
  <path d="m533.82 352.77h-267.65c-4.3477 0-7.875 3.5234-7.875 7.8711 0 4.3477 3.5273 7.875 7.875 7.875h267.65c4.3477 0 7.8711-3.5273 7.8711-7.875 0-4.3477-3.5234-7.8711-7.8711-7.8711z"/>
  <path d="m549.57 502.34h-31.488c-4.3477 0-7.8711 3.5234-7.8711 7.8711 0 4.3477 3.5234 7.8711 7.8711 7.8711h31.488c4.3477 0 7.8711-3.5234 7.8711-7.8711 0-4.3477-3.5234-7.8711-7.8711-7.8711z"/>
  <path d="m281.92 502.34h-31.488c-4.3477 0-7.8711 3.5234-7.8711 7.8711 0 4.3477 3.5234 7.8711 7.8711 7.8711h31.488c4.3477 0 7.8711-3.5234 7.8711-7.8711 0-4.3477-3.5234-7.8711-7.8711-7.8711z"/>
 </g>
</svg>