<?xml version="1.0" encoding="UTF-8"?>
<!-- The Best Svg Icon site in the world: iconSvg.co, Visit us! https://iconsvg.co -->
<svg fill="#000000" width="800px" height="800px" version="1.1" viewBox="144 144 512 512" xmlns="http://www.w3.org/2000/svg">
 <g>
  <path d="m179.58 518.08c0 35.504 13.809 118.08 141.7 118.08h94.465c127.89 0 141.7-82.578 141.7-118.08 0.4375-41.246-5.3086-82.328-17.043-121.88 0.8125-1.207 1.2617-2.6211 1.3008-4.0781v-7.8711c0-5.625 3-10.82 7.8711-13.633s10.875-2.8125 15.746 0 7.8711 8.0078 7.8711 13.633v244.04c0 2.0859 0.82812 4.0898 2.3047 5.5664 1.4766 1.4727 3.4805 2.3047 5.5664 2.3047h31.488c2.0898 0 4.0898-0.83203 5.5664-2.3047 1.4766-1.4766 2.3047-3.4805 2.3047-5.5664v-244.04c0.03125-16.359-6.3203-32.086-17.699-43.844-11.379-11.754-26.895-18.605-43.246-19.105-16.355-0.5-32.258 5.3945-44.336 16.434-13.863-24.699-33.098-45.969-56.281-62.234 2.6758-5.3438 4.0859-11.227 4.125-17.203 0.011719-10.434 4.1602-20.438 11.539-27.816s17.383-11.531 27.82-11.543h15.742v-15.742h-15.742c-10.09 0.007812-19.98 2.7891-28.598 8.0352-8.6172 5.2461-15.629 12.754-20.273 21.711-6.5469-7.7227-15.84-12.602-25.914-13.602l18.352-27.551h-0.003906c2.0859-3.125 1.6719-7.2812-0.98047-9.9375l-10.172-10.145c-5.125-4.8828-11.93-7.6016-19.004-7.6016-7.0742 0-13.879 2.7188-19.004 7.6016l-4.6133 4.6133-4.6133-4.6133c-5.1211-4.8828-11.926-7.6016-19-7.6016-7.0781 0-13.883 2.7188-19.004 7.6016l-4.6133 4.6133-4.6133-4.6133c-5.125-4.8828-11.926-7.6016-19.004-7.6016-7.0742 0-13.879 2.7188-19.004 7.6016l-10.176 10.176c-2.6562 2.6562-3.0664 6.8125-0.98438 9.9375l18.344 27.551h-0.003906c-10.066 1.0117-19.352 5.8867-25.898 13.602-4.6367-8.9609-11.648-16.48-20.266-21.73-8.6172-5.25-18.512-8.0352-28.602-8.0469h-15.746v15.742h15.746c10.434 0.011719 20.438 4.1641 27.816 11.543s11.531 17.383 11.543 27.816c0.035156 5.9766 1.4453 11.859 4.125 17.203-61.836 42.223-98.59 131.98-98.59 242.57zm377.86-181.05c12.523 0.011718 24.531 4.9922 33.387 13.848 8.8555 8.8555 13.836 20.859 13.848 33.383v236.16h-15.746v-236.16c0-11.25-6-21.645-15.742-27.27-9.7422-5.625-21.746-5.625-31.488 0-9.7422 5.625-15.746 16.02-15.746 27.27h-15.742c0.011719-12.523 4.9922-24.527 13.848-33.383 8.8555-8.8555 20.863-13.836 33.383-13.848zm-110.21-78.723c0 6.2656-2.4883 12.273-6.918 16.699-4.4258 4.4297-10.434 6.918-16.699 6.918-6.2617 0-12.27-2.4883-16.699-6.918-4.4258-4.4258-6.9141-10.434-6.9141-16.699 0-6.2617 2.4883-12.27 6.9141-16.699 4.4297-4.4258 10.438-6.9141 16.699-6.9141 6.2656 0 12.273 2.4883 16.699 6.9141 4.4297 4.4297 6.918 10.438 6.918 16.699zm-139.44-69.848 5.6133-5.6055c4.4023-4.2109 11.34-4.2109 15.742 0l10.18 10.18c3.0742 3.0742 8.0586 3.0742 11.133 0l10.176-10.18c4.4062-4.2109 11.344-4.2109 15.746 0l10.18 10.18c3.0742 3.0742 8.0547 3.0742 11.129 0l10.18-10.18c4.4023-4.2109 11.34-4.2109 15.742 0l5.6133 5.6133-23.223 34.84v0.003907c-6.0352 2.9883-11.203 7.4688-15.02 13.02-5.8984-6.0742-14.008-9.5039-22.473-9.5039-8.4688 0-16.578 3.4297-22.477 9.5039-3.8164-5.5547-8.9883-10.039-15.027-13.027zm5.6133 46.234c6.2617 0 12.27 2.4883 16.699 6.9141 4.4297 4.4297 6.918 10.438 6.918 16.699 0 6.2656-2.4883 12.273-6.918 16.699-4.4297 4.4297-10.438 6.918-16.699 6.918s-12.27-2.4883-16.699-6.918c-4.4297-4.4258-6.918-10.434-6.918-16.699 0-6.2617 2.4883-12.27 6.918-16.699 4.4297-4.4258 10.438-6.9141 16.699-6.9141zm-25.586 53.277c7.6055 6.6602 17.492 10.121 27.59 9.6602 10.102-0.46484 19.629-4.8164 26.594-12.145 6.9609-7.3281 10.816-17.07 10.762-27.18 0-5.625 3-10.82 7.8711-13.633 4.8711-2.8125 10.875-2.8125 15.746 0 4.8711 2.8125 7.8711 8.0078 7.8711 13.633 0.011719 10.438 4.1641 20.441 11.543 27.82s17.383 11.527 27.816 11.543c9.4141-0.035156 18.496-3.4805 25.57-9.6914 23.117 16.152 42.02 37.629 55.102 62.613-6.418 10.055-9.8281 21.738-9.8242 33.668v7.8711c0 2.0898 0.83203 4.0898 2.3086 5.5664 1.4766 1.4766 3.4766 2.3086 5.5664 2.3086h22.758c11.453 38.297 17.047 78.105 16.602 118.08 0 38.219-16.367 102.34-125.95 102.34h-94.465c-109.59 0-125.95-64.117-125.95-102.34 0-105.84 34.504-191.1 92.496-230.11z"/>
  <path d="m368.51 525.95c-6.2656 0-12.273-2.4883-16.699-6.9141-4.4297-4.4297-6.918-10.438-6.918-16.699 0-2.0898-0.82812-4.0898-2.3047-5.5664-1.4766-1.4766-3.4805-2.3086-5.5664-2.3086h-31.488c-4.3477 0-7.8711 3.5273-7.8711 7.875 0.015626 14.637 4.5664 28.91 13.023 40.855 8.457 11.945 20.406 20.98 34.207 25.859v27.75c0 2.0859 0.82812 4.0898 2.3047 5.5664 1.4766 1.4727 3.4805 2.3047 5.5664 2.3047h31.488c2.0898 0 4.0898-0.83203 5.5664-2.3047 1.4766-1.4766 2.3047-3.4805 2.3047-5.5664v-27.742c21.176-7.4844 37.543-24.566 44.117-46.039 6.5703-21.473 2.5703-44.789-10.789-62.844-13.355-18.051-34.484-28.695-56.941-28.688-6.2656 0-12.273-2.4883-16.699-6.918-4.4297-4.4297-6.918-10.438-6.918-16.699 0-6.2656 2.4883-12.27 6.918-16.699 4.4258-4.4297 10.434-6.918 16.699-6.918 6.2617 0 12.27 2.4883 16.699 6.918 4.4258 4.4297 6.9141 10.434 6.9141 16.699 0 2.0859 0.83203 4.0898 2.3086 5.5664 1.4766 1.4766 3.4766 2.3047 5.5664 2.3047h31.488c2.0859 0 4.0898-0.82813 5.5664-2.3047 1.4727-1.4766 2.3047-3.4805 2.3047-5.5664 0.011719-14.652-4.5273-28.941-12.988-40.902-8.4609-11.961-20.426-20.996-34.246-25.859v-27.703c0-2.0859-0.82812-4.0898-2.3047-5.5664-1.4766-1.4766-3.4766-2.3047-5.5664-2.3047h-31.488c-4.3477 0-7.8711 3.5234-7.8711 7.8711v27.742c-21.172 7.4805-37.543 24.562-44.113 46.035-6.5742 21.477-2.5703 44.793 10.785 62.844 13.359 18.055 34.488 28.699 56.945 28.691 8.4375 0 16.23 4.5 20.449 11.809 4.2188 7.3047 4.2188 16.309 0 23.617-4.2188 7.3047-12.012 11.805-20.449 11.805zm0-62.977v0.003906c-18.035 0.011719-34.934-8.8047-45.238-23.605-10.305-14.801-12.707-33.711-6.4336-50.617 6.2734-16.906 20.43-29.672 37.895-34.168 3.4766-0.89844 5.9023-4.0312 5.9023-7.6211v-25.688h15.742v25.664h0.003906c-0.003906 3.5938 2.4297 6.7344 5.9102 7.6289 10.523 2.6953 20.012 8.4531 27.266 16.539 7.2539 8.082 11.949 18.137 13.496 28.891h-15.973c-1.9961-9.7812-7.6328-18.438-15.77-24.219s-18.168-8.2539-28.059-6.918c-9.8906 1.3359-18.906 6.3789-25.223 14.109-6.3125 7.7305-9.4531 17.574-8.7852 27.531 0.66797 9.9609 5.0938 19.293 12.387 26.113 7.2891 6.8164 16.895 10.613 26.879 10.613 18.031-0.011719 34.93 8.8086 45.23 23.609 10.301 14.801 12.703 33.707 6.4297 50.613s-20.43 29.672-37.895 34.168c-3.4688 0.89844-5.8945 4.0312-5.8945 7.6211v25.684h-15.746v-25.684c0-3.5898-2.4219-6.7227-5.8945-7.6211-10.512-2.7148-19.988-8.4727-27.242-16.551-7.2539-8.082-11.961-18.121-13.535-28.863h15.973c1.9961 9.7812 7.6328 18.438 15.77 24.215 8.1406 5.7812 18.168 8.2539 28.059 6.918 9.8945-1.332 18.91-6.3789 25.223-14.109s9.4531-17.57 8.7852-27.531c-0.66797-9.957-5.0938-19.293-12.383-26.109-7.2891-6.8203-16.898-10.613-26.879-10.613z"/>
 </g>
</svg>