<?xml version="1.0" encoding="UTF-8"?>
<!-- The Best Svg Icon site in the world: iconSvg.co, Visit us! https://iconsvg.co -->
<svg fill="#000000" width="800px" height="800px" version="1.1" viewBox="144 144 512 512" xmlns="http://www.w3.org/2000/svg">
 <g>
  <path d="m613.72 493.68c-4.1758-7.2188-11.043-12.492-19.102-14.66-8.0547-2.168-16.641-1.0586-23.879 3.0898l-76.754 44.32 0.003907-0.003906c-4.1914-6.2773-10.512-10.836-17.793-12.828l-117.45-31.41c-9.0391-2.4414-18.551-2.5234-27.633-0.23828l-41.328 10.312v-5.668c0-2.0859-0.82812-4.0898-2.3047-5.5664-1.4766-1.4766-3.4766-2.3047-5.5664-2.3047h-23.617v-7.8711c0-2.0898-0.82812-4.0898-2.3047-5.5664-1.4766-1.4766-3.4766-2.3047-5.5664-2.3047h-78.719c-4.3477 0-7.875 3.5234-7.875 7.8711v157.44c0 2.0859 0.83203 4.0898 2.3086 5.5664 1.4766 1.4727 3.4766 2.3047 5.5664 2.3047h78.719c2.0898 0 4.0898-0.83203 5.5664-2.3047 1.4766-1.4766 2.3047-3.4805 2.3047-5.5664v-7.875h23.617c2.0898 0 4.0898-0.82812 5.5664-2.3047s2.3047-3.4766 2.3047-5.5664v-2.9922l10.156 5.0391c7.6562 3.8125 16.086 5.8047 24.641 5.8242h117.84c9.6758 0.023438 19.188-2.5312 27.551-7.3984l132.25-76.359c7.2031-4.1953 12.457-11.066 14.609-19.121 2.1523-8.0508 1.0312-16.629-3.1172-23.859zm-371.16 126.74h-62.977v-141.7h62.977zm31.488-15.742h-15.746v-110.21h15.742zm320.31-81.633-132.25 76.359c-5.9805 3.4609-12.77 5.2773-19.68 5.2734h-117.84c-6.125 0.011719-12.164-1.418-17.633-4.1719l-17.164-8.582v-83.441l45.105-11.258h0.003907c6.4883-1.6406 13.293-1.5898 19.758 0.15625l117.45 31.488c4.0547 1.0508 7.5156 3.6836 9.6172 7.3047 2.1016 3.6211 2.668 7.9297 1.5703 11.973-1.0977 4.0391-3.7656 7.4727-7.4062 9.5352-3.5859 2.1133-7.875 2.6836-11.887 1.5742l-93.914-25.191c-4.2188-1.1289-8.5547 1.3711-9.6836 5.5898s1.3711 8.5508 5.5898 9.6836l93.914 25.113v-0.003906c2.668 0.71875 5.4219 1.0898 8.1836 1.1016 5.5078 0.007812 10.918-1.457 15.668-4.25 7.2656-4.1484 12.57-11.039 14.719-19.129 0.875-3.4688 1.168-7.0625 0.86719-10.625l79.27-45.738c3.6172-2.0078 7.875-2.5312 11.871-1.457 3.9961 1.0703 7.418 3.6562 9.543 7.2031 2.0898 3.6055 2.668 7.8906 1.6055 11.918s-3.6797 7.4688-7.2734 9.5742z"/>
  <path d="m635.37 294.12-47.074-94.465c-1.418-2.6797-4.2109-4.3516-7.2422-4.332h-188.93c-3.5938-0.003907-6.7344 2.4258-7.6328 5.9062l-46.602 92.891h-0.003906c-1.3516 2.6641-1.0781 5.8672 0.71094 8.2656l141.93 188.93v-0.003906c1.4844 1.9844 3.8164 3.1484 6.2969 3.1484 2.4727-0.015626 4.7969-1.1797 6.2969-3.1484l141.46-188.93v0.003907c1.7773-2.3945 2.082-5.5781 0.78516-8.2656zm-66.91-83.051-34.637 68.957-34.324-68.957zm-47.312 78.719h-69.039l34.637-68.957zm-47.152-78.719-34.637 68.957-34.324-68.957zm-81.711 9.7617 34.398 68.957h-69.035zm-31.648 84.703h72.578l36.211 144.84zm125.95 148.62-37.156-148.62h74.312zm17.004-3.1484 36.371-145.47h72.578zm42.98-161.22 34.637-68.957 34.402 68.957z"/>
 </g>
</svg>