<?xml version="1.0" encoding="UTF-8"?>
<!-- The Best Svg Icon site in the world: iconSvg.co, Visit us! https://iconsvg.co -->
<svg fill="#000000" width="800px" height="800px" version="1.1" viewBox="144 144 512 512" xmlns="http://www.w3.org/2000/svg">
 <g>
  <path d="m489.77 594.07h-283.38c-6.957-0.007812-13.629-2.7734-18.547-7.6953-4.918-4.918-7.6875-11.586-7.6914-18.543v-65.996c0-9.8203 3.0469-19.398 8.7227-27.414 5.6758-8.0156 13.699-14.07 22.965-17.328l77.656-28.695 13.434-4.0781v0.003906c1.1055-0.38672 2.3164-0.33594 3.3828 0.14063 0.27344 0.12891 0.53516 0.28125 0.78125 0.45703l40.988 21.277 41.09-21.383h-0.003906c1.1641-0.74219 2.5977-0.94531 3.9258-0.55469l13.305 4.0703 78 28.785-0.003906 0.003907c9.2461 3.2734 17.246 9.332 22.906 17.34 5.6562 8.0078 8.6953 17.574 8.6992 27.379v65.992c-0.007812 6.9531-2.7734 13.625-7.6914 18.543-4.918 4.918-11.59 7.6875-18.543 7.6953zm-185.83-160.47-11.539 3.4883-77.438 28.617c-7.4922 2.6211-13.984 7.5078-18.582 13.98-4.5938 6.4727-7.0625 14.211-7.0664 22.148v65.996c0.003906 4.5273 1.8047 8.8672 5.0039 12.066 3.2031 3.2031 7.543 5.0039 12.07 5.0117h283.38c4.5273-0.007812 8.8672-1.8086 12.066-5.0117 3.2031-3.1992 5.0039-7.5391 5.0078-12.066v-65.996c-0.003906-7.9219-2.4648-15.648-7.043-22.117-4.5781-6.4648-11.047-11.352-18.52-13.988l-77.812-28.727-11.266-3.4453-42.004 21.863c-1.3242 0.6875-2.8984 0.6875-4.2227 0z"/>
  <path d="m349.95 458.11h-3.7227c-1.7852 0-3.4102-1.0391-4.1562-2.6602-0.75-1.6211-0.48828-3.5312 0.67188-4.8906l1.8633-2.1797c0.89844-0.97656 2.1602-1.5312 3.4805-1.5312 1.3242 0 2.5859 0.55469 3.4844 1.5312l1.8594 2.1797c1.1562 1.3594 1.4219 3.2656 0.67187 4.8906-0.74609 1.6211-2.3672 2.6602-4.1523 2.6602z"/>
  <path d="m348.09 455.93c-0.73438 0.003906-1.457-0.17578-2.1094-0.51562l-43.629-22.645c-1.5195-0.78906-2.4727-2.3555-2.4688-4.0664v-26.285c-0.003906-1.9258 1.1992-3.6445 3.0078-4.3086 1.8086-0.66016 3.8359-0.11719 5.0742 1.3555 11.637 13.777 25.469 21.07 40.008 21.07 14.461 0 28.73-7.5586 40.191-21.273v-0.003906c1.2344-1.4805 3.2617-2.0312 5.0742-1.375s3.0195 2.3789 3.0234 4.3047v26.477c-0.003906 1.707-0.95703 3.2734-2.4688 4.0586l-43.59 22.691c-0.65234 0.33984-1.375 0.51953-2.1133 0.51562zm-39.047-30.008 39.047 20.266 39.012-20.305v-12.367 0.003907c-10.578 10.066-24.531 15.824-39.129 16.145-14.508-0.32812-28.379-6.0234-38.93-15.988z"/>
  <path d="m372.01 588.89c0.11328 1.2266-0.26562 2.4492-1.0586 3.3945-0.78906 0.94531-1.9258 1.5391-3.1523 1.6445-6.5039 0.45703-13.238 0.73438-20.016 0.73438-7.0078 0-13.742-0.23047-20.52-0.73438-1.2266-0.082032-2.3672-0.66406-3.1602-1.6016-0.78516-0.91406-1.1797-2.0977-1.0977-3.3008l0.23047-3.1133 8.6094-82.395-6.3203-6.3203c1.0391-0.60938 2.0195-1.3164 2.9297-2.1094 0.95312-0.79688 1.8398-1.6719 2.6562-2.6094l16.992-19.969 17.082 20.062c0.41406 0.50391 0.87109 0.96094 1.5117 1.6016 1.0586 1.0039 2.1914 1.9219 3.3906 2.7461l-6.6406 6.6875z"/>
  <path d="m417.77 437.84-21.48 45.113c-1.8672 4.3164-5.7383 7.4336-10.352 8.3359-0.94922 0.19922-1.918 0.30469-2.8867 0.32031-3.7266 0.003907-7.3047-1.4414-9.9844-4.0312-0.36719-0.36719-0.6875-0.6875-1.0078-1.0547l-23.953-28.121-23.953 28.121v0.003906c-0.48828 0.5625-1.0273 1.0859-1.6055 1.5547-2.6172 2.2695-5.9688 3.5234-9.4336 3.5273-1.1094-0.007812-2.2148-0.12891-3.2969-0.36719-4.5078-1.0312-8.2305-4.1914-9.9844-8.4727l-21.391-44.977c-0.55469-1.168-0.58984-2.5156-0.089844-3.707 0.47266-1.1992 1.4414-2.1367 2.6562-2.5664l8.4727-3.1133 13.602-4.1211v-0.003906c1.2812-0.39062 2.668-0.20703 3.8008 0.50391l41.223 21.391 41.449-21.57v-0.003906c1.0859-0.57422 2.3477-0.70312 3.5273-0.36328l13.328 4.0781 8.793 3.25c1.207 0.44531 2.1719 1.3789 2.6602 2.5742 0.48828 1.1914 0.45312 2.5352-0.09375 3.6992z"/>
  <path d="m347.97 429.69c-17.07 0-33.766-8.6328-47.012-24.305v-0.003906c-13.922-17.246-22.633-38.109-25.109-60.137-0.71094-5.5234-1.0664-11.086-1.0703-16.656-0.007813-7.6133 0.67969-15.207 2.0586-22.695 0.03125-0.27344 0.078124-0.54688 0.14453-0.8125 0.71484-4.0508 1.668-8.0508 2.8594-11.984 0.097656-0.31641 0.22656-0.625 0.39062-0.91406 3.0469-5.4062 8.3789-9.1445 14.5-10.168 18.637-3.2344 36.723-9.0742 53.727-17.355 16.09-7.6641 32.922-14.461 46.305-6.4141 15.113 9.0977 22.902 36.184 25.164 87.758v0.003906c0.011719 0.27734 0 0.55469-0.039062 0.82812-2.6758 21.348-11.23 41.535-24.707 58.305-13.219 15.824-29.988 24.551-47.211 24.551zm-59.508-133.44c-1.0391 3.543-1.875 7.1367-2.5078 10.773-0.03125 0.20312-0.058594 0.40625-0.10547 0.63672-1.2656 6.9062-1.8984 13.914-1.8867 20.934 0.003906 5.1836 0.33594 10.355 0.99219 15.496 2.2383 20.266 10.215 39.473 22.984 55.367 11.648 13.785 25.48 21.07 40.016 21.07 14.461 0 28.73-7.5586 40.191-21.273 12.293-15.34 20.113-33.77 22.598-53.27-2.0898-46.633-8.8633-72.77-20.715-79.895-8.5664-5.1328-20.754-1.1914-37.648 6.8711-17.777 8.6758-36.703 14.777-56.203 18.125-3.1914 0.53516-6 2.418-7.7148 5.1641z"/>
  <path d="m423.99 334.15c-0.035157 0.085937-0.050782 0.17969-0.042969 0.27344l-4.0781 15.023c-0.54688 2.2148-2.6406 3.6875-4.9102 3.457-2.2656-0.23047-4.0195-2.0938-4.1133-4.375l-0.089844-2.0625c-2.0625-46.945-8.8398-73.234-20.703-80.379-8.5664-5.1289-20.746-1.1914-37.648 6.8711-17.785 8.6562-36.703 14.746-56.195 18.09-3.3633 0.57422-6.2891 2.625-7.9727 5.5898-0.57422 0.97656-0.97656 2.043-1.1875 3.1602-0.45703 2.2461-0.77734 4.582-1.0977 6.9609h-0.003906c-0.003907 0.1875-0.035157 0.37109-0.089844 0.55078 0.046875 0 0 0.13672-0.046875 0.32031-1.2578 6.9062-1.8867 13.91-1.8789 20.93-0.003906 5.1914 0.33203 10.379 1.0078 15.527l0.23047 3.8945c0.12891 2.3047-1.4805 4.3477-3.7578 4.7617-0.26562 0.074218-0.54687 0.10547-0.82422 0.089844-2-0.011719-3.7695-1.3047-4.3945-3.2031-0.6875-2.2891-17.266-56.473-6-101.13 4.2148-16.762 18.551-29.953 40.395-37.191 31.879-10.625 71.906-6.7344 91.648 8.793 6.2305 2.7031 41.27 22.262 21.754 114.05z"/>
  <path d="m280.39 349.24c-2.3047-0.003907-4.25-1.7148-4.5391-4-0.71094-5.5234-1.0664-11.086-1.0703-16.656-0.007813-7.6133 0.67969-15.207 2.0586-22.695 0.45703-2.418 2.75-4.043 5.1875-3.6719 2.4336 0.36719 4.1406 2.5977 3.8633 5.0469-1.25 12.352-1.5547 24.777-0.91797 37.176 0.10938 2.4531-1.7383 4.5547-4.1836 4.7656-0.13281 0.015625-0.26562 0.03125-0.39844 0.035157z"/>
  <path d="m497.52 341.94c-3.3594 0-6.3828 2.0234-7.668 5.125-1.2852 3.0977-0.57422 6.668 1.7969 9.043 2.375 2.3711 5.9453 3.082 9.0469 1.7969 3.1016-1.2812 5.1211-4.3086 5.1211-7.6641 0.003907-2.2031-0.87109-4.3164-2.4297-5.8711-1.5547-1.5586-3.668-2.4297-5.8672-2.4297z"/>
  <path d="m540.28 341.94c-3.3555 0-6.3828 2.0195-7.6719 5.1211-1.2852 3.1016-0.57422 6.6719 1.7969 9.043 2.375 2.375 5.9453 3.0859 9.0469 1.8047 3.1016-1.2852 5.1211-4.3125 5.1211-7.668 0.003907-2.2031-0.87109-4.3125-2.4258-5.8711-1.5547-1.5547-3.668-2.4297-5.8672-2.4297z"/>
  <path d="m603.76 291.45h-126.96c-4.2617 0.007812-8.3477 1.7031-11.359 4.7148-3.0156 3.0156-4.7109 7.1016-4.7148 11.363v83.176-0.003906c0.003907 4.2344 1.6719 8.293 4.6484 11.301 2.9727 3.0078 7.0117 4.7266 11.242 4.7773v20.977c-0.011719 3.8477 2.2969 7.3242 5.8516 8.8008 3.5547 1.4766 7.6484 0.66016 10.363-2.0664l27.711-27.711h83.219c4.2656 0.003906 8.3555-1.6914 11.371-4.707 3.0156-3.0156 4.707-7.1055 4.707-11.371v-83.16c0.003906-4.2656-1.6875-8.3594-4.7031-11.379-3.0156-3.0156-7.1094-4.7109-11.375-4.7109zm-106.26 76.23c-4.6289 0-9.0703-1.8398-12.348-5.1133-3.2734-3.2734-5.1133-7.7148-5.1133-12.348 0.003906-4.6289 1.8438-9.0703 5.1172-12.344 3.2734-3.2734 7.7148-5.1133 12.348-5.1133 4.6289 0 9.0703 1.8438 12.344 5.1172 3.2734 3.2773 5.1133 7.7188 5.1133 12.348 0 4.6289-1.8359 9.0703-5.1055 12.344-3.2734 3.2773-7.707 5.1172-12.336 5.125zm42.754 0c-4.6289 0.003906-9.0703-1.8359-12.348-5.1094-3.2734-3.2734-5.1133-7.7148-5.1133-12.348-0.003906-4.6289 1.8359-9.0703 5.1133-12.348 3.2734-3.2734 7.7148-5.1133 12.348-5.1133 4.6289 0 9.0703 1.8398 12.344 5.1172 3.2734 3.2734 5.1133 7.7148 5.1133 12.348 0 4.6289-1.8359 9.0664-5.1055 12.344-3.2695 3.2734-7.7031 5.1172-12.332 5.125zm42.754 0h0.003906c-4.6328 0.003906-9.0742-1.8359-12.348-5.1094-3.2773-3.2734-5.1172-7.7148-5.1172-12.348 0-4.6289 1.8398-9.0703 5.1133-12.348 3.2734-3.2734 7.7148-5.1133 12.348-5.1133 4.6289 0 9.0703 1.8398 12.344 5.1172 3.2773 3.2734 5.1133 7.7148 5.1133 12.348 0 4.6289-1.8359 9.0664-5.1055 12.344-3.2656 3.2734-7.7031 5.1172-12.332 5.125z"/>
  <path d="m583.03 341.94c-3.3555 0-6.3828 2.0195-7.668 5.1211-1.2891 3.1016-0.57812 6.6719 1.793 9.043 2.375 2.375 5.9453 3.0859 9.0469 1.8047 3.1016-1.2852 5.125-4.3125 5.125-7.668 0-2.2031-0.875-4.3125-2.4297-5.8711-1.5547-1.5547-3.6641-2.4297-5.8672-2.4297z"/>
 </g>
</svg>