<?xml version="1.0" encoding="UTF-8"?>
<!-- The Best Svg Icon site in the world: iconSvg.co, Visit us! https://iconsvg.co -->
<svg fill="#000000" width="800px" height="800px" version="1.1" viewBox="144 144 512 512" xmlns="http://www.w3.org/2000/svg">
 <g>
  <path d="m402.3 274.68c5.1875 1.1953 15.109 3.0742 15.141 14.379 0.011719 4.3828-2.8633 12.879-17.664 12.879-6.8711 0-16.688-2.8711-16.688-14.664 0 0 0.11719-6.1523-8.0117-6.1523-8.1367 0-8.7656 6.1523-8.7656 6.1523 0 7.8086 1.1836 13.301 5.5 18.641 6.4844 8.0859 14.438 10.914 20.625 11.891v6.5312c0 4.1758 3.3867 7.5586 7.5586 7.5586s7.5586-3.3789 7.5586-7.5586v-6.5898c19.391-3.168 26.668-20.105 26.668-30.844 0-7.8086-3.0039-19.801-22.051-25.992l-17.109-5.332c-2.625-0.79688-13.305-4.3867-12.16-14.355 0.43359-3.8047 1.6016-6.7305 4.8281-8.7227 2.6289-1.5938 5.8828-2.3945 9.7578-2.3945 6.5859 0 11.07 1.0469 13.992 4.6289 1.6055 2.0742 2.1328 3.5859 2.5703 7.1797 0 0 0.52344 5.9062 8.0195 5.9062 7.4922 0 8.6445-5.6289 8.7969-6.6406 0.67188-4.5938-1.9805-12.281-5.668-16.848-4.2578-5.2734-10.305-8.4648-17.633-9.8203v-7.3242c0-4.1758-3.3867-7.5586-7.5586-7.5586s-7.5586 3.3789-7.5586 7.5586v6.9492c-8.7695 1.0664-15.445 4.4102-19.965 10.113-3.9453 5.0195-10.539 14.68-3.7891 31.398 5.8125 14.422 33.605 19.031 33.605 19.031z"/>
  <path d="m608.67 421.55c-2.207-3.543-6.8711-4.6367-10.402-2.4219l-35.77 22.254c-3.5234 2.2109-8.207 1.1484-10.418-2.3828l-58.559-93.277c-2.2109-3.5273-1.1484-8.2031 2.3516-10.398l35.746-22.238c3.5469-2.207 4.6289-6.8633 2.4219-10.41-2.207-3.543-6.8711-4.6367-10.402-2.4219l-35.777 22.254c-6.3672 3.9961-10 10.676-10.488 17.652-18.035-3.457-37.18 3.125-60.746 14.688l-15.27 5.6328-34.746-13.215c-15.688-4.9062-28.789-8.3789-40.266-9.4766-1.082-6.0977-4.5547-11.75-10.207-15.301l-35.746-22.238c-3.5312-2.2109-8.2031-1.1172-10.402 2.4219-2.207 3.5469-1.125 8.2031 2.4219 10.41l35.715 22.219c2.2383 1.4062 3.4766 3.8047 3.5234 6.2734-0.52734 1.0586-0.85156 2.2383-0.82813 3.5v0.003907c-0.10547 0.21094-0.1875 0.43359-0.3125 0.64062l-58.547 93.277c-1.1016 1.7617-2.8203 2.9062-4.6992 3.3359-0.023438 0.003906-0.046875 0.003906-0.066407 0.011719-1.8789 0.41406-3.9141 0.12109-5.6836-0.97656l-35.746-22.238c-3.5312-2.2109-8.2031-1.1172-10.402 2.4219-2.207 3.5469-1.125 8.2031 2.4219 10.41l35.719 22.223c3.082 1.9336 6.457 2.9922 9.8633 3.3164 2.6133 6.9961 6.957 17.789 14.133 28.59-3.6797 3.5078-6.2773 7.9766-7.4375 13.02-1.5703 6.8203-0.35156 13.852 3.4258 19.773 5.0273 7.8945 13.68 12.234 22.504 12.234 0.67578 0 1.3516-0.085937 2.0195-0.13672 0.17188 4.5391 1.4414 8.9883 3.9531 12.934 5.0273 7.8945 13.68 12.238 22.512 12.238 1.9844 0 3.9648-0.27734 5.9297-0.71875-0.17578 5.1836 1.1992 10.297 4.0625 14.781 5.0273 7.8906 13.68 12.227 22.512 12.227 0.83594 0 1.6719-0.089844 2.5078-0.17188 0.14062 4.6094 1.4141 9.1289 3.9688 13.129 5.0312 7.8945 13.68 12.234 22.504 12.234 4.7969 0 9.6445-1.2812 13.992-3.9609l10.566-7.6914c2.5898 0.79688 5.25 1.2578 7.918 1.2578 7.4805 0 14.898-3.1094 20.051-9.1406 2.6211-3.0625 4.3281-6.6367 5.2812-10.43 4.3359 2.7266 9.2461 4.1367 14.16 4.1367 7.5625 0 15.086-3.1641 20.32-9.2969 4.0039-4.6914 6.0469-10.5 6.1211-16.555 0.48047 0.023437 0.94531 0.11719 1.4219 0.11719 7.5664 0 15.078-3.1641 20.309-9.2969 2.7148-3.1797 4.4727-6.8906 5.4219-10.82 4.0547 2.2656 8.5586 3.3867 13.047 3.3789 7.5625 0 15.078-3.1602 20.309-9.2891 4.5742-5.3594 6.7656-12.16 6.1562-19.148-0.57031-6.5234-3.5938-12.41-8.3789-16.82l4.4492-5.1328c1.7266-1.9961 3.8125-4.2461 6.0469-6.6719 7.0039-7.582 15.281-16.566 20.082-25.258 1.7227 0.41406 3.4922 0.63672 5.2734 0.63672 4.1016 0 8.2617-1.1133 11.98-3.4492l35.746-22.238c3.5547-2.2031 4.6328-6.8633 2.4336-10.41zm-342.43 89.211c-1.5781-2.4844-2.0898-5.4219-1.4375-8.2734 0.37109-1.6367 1.1445-3.1133 2.1797-4.3984 0.60938 0.65625 1.1602 1.3438 1.7969 1.9844l15.734 12.383-2.6797 1.9609c-5.3438 3.1367-12.297 1.5195-15.594-3.6562zm28.484 25.031c-1.5781-2.4805-2.0898-5.4141-1.4375-8.2617 0.36328-1.5859 1.0938-3.0273 2.0742-4.2891l1.4805-1.0781 17.879 14.078-4.3984 3.2148c-5.3438 3.1289-12.293 1.5195-15.598-3.6641zm32.496 26.289c-1.5781-2.4805-2.0898-5.4102-1.4375-8.2578 0.51953-2.2539 1.7227-4.2383 3.4375-5.7617l17.75 14.652-4.1445 3.0312c-5.3594 3.1328-12.305 1.5273-15.605-3.6641zm28.988 25.195c-1.5781-2.4805-2.0898-5.4141-1.4375-8.2617 0.58984-2.5742 2.1055-4.7773 4.2383-6.3633l17.758 14.656-4.9609 3.6328c-5.3398 3.1328-12.297 1.5195-15.598-3.6641zm157.19-67.047c-4.0703 4.7578-11.332 5.3789-16.199 1.3672l-14.09-11.586c-0.10547-0.085937-0.17578-0.19531-0.28125-0.28125l-73.203-60.137-2.2773-1.875c-2.9062-2.3945-7.0469-2.2266-9.7773 0.1875-0.30078 0.26562-0.59375 0.53516-0.86328 0.85547-1.6211 1.9805-2.0664 4.5352-1.4258 6.8281 0.011718 0.039062 0.011718 0.085937 0.023437 0.125 0.085938 0.28125 0.21484 0.55078 0.32812 0.82812 0.082032 0.17578 0.125 0.35938 0.21484 0.52734 0.070312 0.125 0.16797 0.23828 0.24219 0.36328 0.43359 0.71875 0.96094 1.3945 1.6523 1.9648l75.781 62.312c2.1211 1.8906 3.4453 4.4219 3.6836 7.2266 0.25781 2.9219-0.66406 5.7773-2.6016 8.0391-4.0664 4.7617-11.324 5.3789-16.199 1.3594l-3.3672-2.7656c-0.03125-0.023437-0.050781-0.054687-0.082031-0.082031l-72.023-59.18c-3.2305-2.6445-7.9922-2.1797-10.637 1.043-0.32812 0.40234-0.61328 0.83203-0.84766 1.2734-1.6406 3.1094-0.9375 7.043 1.8906 9.3594l72.125 59.262c2.2422 1.8984 3.6328 4.5195 3.8828 7.418 0.25781 2.9219-0.66016 5.7734-2.5859 8.0273-4.0703 4.7656-11.332 5.3789-16.199 1.3711l-15.195-12.48c-0.12109-0.10547-0.21094-0.23047-0.33203-0.33203l-55.07-45.172-1.4414-1.1836c-0.40234-0.33203-0.83203-0.61328-1.2812-0.84766-3.1016-1.6367-7.0273-0.93359-9.3438 1.8789 0 0.003906-0.003906 0.003906-0.011719 0.011719 0 0-0.003906 0-0.003906 0.003906-2.1719 2.6445-2.207 6.3086-0.38281 9.0078 0.11719 0.17969 0.21484 0.37109 0.35156 0.54297 0.035156 0.039063 0.082032 0.070313 0.10938 0.10938 0.29297 0.34375 0.60547 0.67578 0.96094 0.96875l56.824 46.68c2.1445 1.9141 3.4805 4.4648 3.7266 7.2695 0.24609 2.8359-0.63672 5.5938-2.4844 7.7539-3.9688 4.6602-11.168 5.1953-16.016 1.1797l-63.039-52.047c-0.023438-0.019532-0.054688-0.035156-0.085938-0.054688-0.019531-0.019531-0.035156-0.039062-0.058594-0.058594l-48.629-38.215c-11.164-11.316-17.516-26.082-21.027-35.277 2.5898-1.7227 4.875-3.9766 6.6289-6.7695l58.547-93.273c0.22266-0.35156 0.33594-0.73438 0.53906-1.0938 8.8516 0.66406 20.516 3.4648 37.816 8.8711l22.516 8.5703-23.316 10.957c-6.3281 3.3789-10.914 8.9844-12.918 15.77-1.9609 6.6367-1.1953 13.609 2.1445 19.633 4.7695 8.6289 13.898 13.492 23.176 13.492 4.1719 0 8.3672-0.98438 12.223-3.043l60.023-27.719 34.676 28.008c2.3164 1.9141 3.7383 4.5898 3.9961 7.5352 0.25781 2.9219-0.66406 5.7695-2.5898 8.0195-4.0703 4.7695-11.332 5.375-16.426 1.1875l-29.121-22.168c-0.14062-0.10938-0.30859-0.17969-0.45312-0.27734-0.24219-0.15625-0.48047-0.31641-0.73047-0.44922-0.20703-0.10547-0.41797-0.17578-0.62891-0.26172-0.24609-0.10156-0.48828-0.20312-0.74219-0.27344-0.23047-0.066407-0.47266-0.10156-0.71094-0.14062-0.23828-0.039063-0.47266-0.097656-0.71875-0.10938-0.25-0.019531-0.5-0.011719-0.74609-0.003907-0.23047 0.003907-0.46484 0-0.69531 0.023438-0.25 0.03125-0.5 0.089844-0.74219 0.14062-0.22656 0.050781-0.45312 0.089844-0.67578 0.15625-0.23828 0.074219-0.46875 0.17969-0.69922 0.28125-0.21484 0.089844-0.43359 0.17578-0.64453 0.28906-0.22266 0.12109-0.42969 0.27344-0.64062 0.41797-0.19531 0.13672-0.39453 0.26172-0.57812 0.41797-0.20312 0.16797-0.38281 0.36719-0.57031 0.55859-0.13281 0.13672-0.28906 0.25-0.40625 0.40234-0.035156 0.039063-0.054687 0.089844-0.089844 0.13281-0.039062 0.046875-0.085937 0.082031-0.11719 0.125-0.12109 0.16797-0.20703 0.34766-0.31641 0.51953-0.13672 0.21484-0.28125 0.42188-0.39453 0.64844-0.10938 0.22656-0.19531 0.45312-0.28906 0.68359-0.089844 0.23047-0.1875 0.45703-0.25781 0.69141-0.066406 0.23828-0.10156 0.48047-0.14062 0.71875-0.039063 0.23828-0.097657 0.48047-0.10547 0.71875-0.019531 0.23828-0.011719 0.47266-0.003907 0.71094 0.003907 0.24609 0 0.49219 0.03125 0.74219 0.023438 0.22656 0.082032 0.44922 0.125 0.67578 0.050782 0.24609 0.10156 0.5 0.17188 0.74219 0.070312 0.21094 0.16016 0.41797 0.25 0.62891 0.10156 0.24219 0.19531 0.48438 0.31641 0.71484 0.10938 0.20312 0.24609 0.38281 0.37109 0.57422 0.14453 0.21484 0.29297 0.44141 0.46484 0.64844 0.15234 0.17578 0.32422 0.33594 0.49219 0.50391 0.15625 0.15625 0.28906 0.32422 0.45703 0.46484l85.352 71.066c2.3242 1.9102 3.7383 4.5898 3.9961 7.5312 0.26562 2.9375-0.65234 5.7891-2.5781 8.0391zm8.6602-48.219c-2.3594 2.5508-4.543 4.9219-6.3672 7.0273l-4.5508 5.2539-28.984-24.137c4.1094-1.5234 7.9062-4.0391 10.934-7.5781 4.5742-5.3594 6.7617-12.16 6.1523-19.148-0.60938-7.0117-3.9609-13.367-9.4922-17.93l-38.391-31.004c-0.10547-0.089844-0.23828-0.14453-0.34766-0.22656-0.23828-0.17578-0.48047-0.34375-0.73437-0.48438-0.19141-0.10547-0.38672-0.19531-0.58984-0.28906-0.24219-0.10938-0.48438-0.21094-0.73438-0.29688-0.21484-0.070312-0.4375-0.12109-0.66406-0.17578-0.24609-0.054687-0.5-0.10547-0.75-0.13672-0.22656-0.03125-0.45703-0.039062-0.68359-0.046874-0.25781-0.003907-0.50781-0.011719-0.76172 0.011718-0.24609 0.015625-0.48438 0.054688-0.73047 0.097656-0.23047 0.039063-0.45703 0.082032-0.69141 0.14063-0.27734 0.074218-0.53906 0.17578-0.8125 0.28125-0.13281 0.050781-0.27734 0.082031-0.40625 0.14062l-64.684 29.887c-5.5703 2.9883-12.5 1.0781-15.438-4.2422-1.3672-2.4648-1.6719-5.3164-0.87109-8.0352 0.84766-2.875 2.8203-5.2656 5.1953-6.5508l55.188-25.93c0.011718-0.003907 0.015625-0.011719 0.023437-0.015625l0.10156-0.039063c29.809-14.656 45.48-17.523 59.883-10.914 0.14062 0.066406 0.29688 0.097656 0.4375 0.15234l56 89.215c0.38281 0.61328 0.82031 1.168 1.2539 1.7344-3.5664 7.0469-12.008 16.23-18.484 23.238z"/>
 </g>
</svg>