<?xml version="1.0" encoding="UTF-8"?>
<!-- The Best Svg Icon site in the world: iconSvg.co, Visit us! https://iconsvg.co -->
<svg fill="#000000" width="800px" height="800px" version="1.1" viewBox="144 144 512 512" xmlns="http://www.w3.org/2000/svg">
 <g>
  <path d="m614.84 579.42h-137.62l-27.406-147.03c-0.003906-0.066406-0.003906-0.13672 0-0.20703l-11.109-59.562 132.57 45.09v29.176c-20.902 1.6797-39.434 14.102-48.93 32.797-9.5 18.695-8.6055 40.984 2.3633 58.859s30.434 28.77 51.402 28.77c20.973 0 40.438-10.895 51.406-28.77 10.965-17.875 11.863-40.164 2.3633-58.859-9.5-18.695-28.027-31.117-48.934-32.797v-61.648c0-2.0312-1.2695-3.8477-3.1758-4.5469l-148.53-54.012c-6.6797-17.172-21.234-27.965-39.223-27.965-7.2617-0.019532-14.359 2.168-20.348 6.2773l-91.445-33.277 2.3438-9.4844v-0.003907c3.0977-10.809 1.6641-22.41-3.9688-32.145-5.6367-9.7305-14.984-16.75-25.902-19.445-10.914-2.6953-22.457-0.83594-31.977 5.1523-9.5156 5.9883-16.188 15.594-18.477 26.602l-10.203 41.328c-7.9883 32.898-2.6836 67.625 14.758 96.641v107.04h-18.48c-2.668 0-4.8281 2.1641-4.8281 4.832v87.191h-13.078c-2.6758 0-4.8438 2.168-4.8438 4.8398 0 2.6758 2.168 4.8438 4.8438 4.8438h446.42c2.6719 0 4.8398-2.168 4.8398-4.8438 0-2.6719-2.168-4.8398-4.8398-4.8398zm-262.39-207.88 30.238 22.07-37.875 28.535zm106.33 161.73-59.039-52.23 42.145-38.473zm-66.234-45.699 60.793 53.777h-119.68zm-0.097656-13.008-46.562-41.113 44.949-33.852 46.562 33.941zm6.4844-81.113 29.609-22.285 9.4766 50.871zm-8.168-5.9023-25.199-18.43h49.664zm-49.051 55.105 43.531 38.504-57.25 52.281zm-16.363 108.4h136.78l5.293 28.367h-146.36zm301.4-44.043v-0.003907c0 13.43-5.3359 26.309-14.832 35.801-9.4961 9.4961-22.375 14.828-35.801 14.828-13.43-0.003907-26.305-5.3398-35.801-14.836-9.4922-9.4961-14.824-22.375-14.82-35.805 0.003907-13.43 5.3398-26.305 14.84-35.797 9.5-9.4922 22.379-14.824 35.809-14.816 13.418 0.019532 26.281 5.3594 35.766 14.852 9.4883 9.4922 14.824 22.355 14.84 35.773zm-55.469-118.35v18.863l-134.64-45.816-3.9375-20.801c-0.10937-0.98438-0.24609-1.8906-0.40234-2.8047zm-148.08-46.25 3.1875 17.082h-72.105l2.5586-16.984c2.8125-10.449 11.57-34.074 33.191-34.074 17.406-0.050781 30.719 13.48 33.168 33.93zm-61.746-30.07c-5.0195 5.8828-8.9141 12.637-11.492 19.926l-79.961-27.219c0.11719-0.47266 0.24609-0.98438 0.36328-1.4258l5.5391-22.426zm-162.07-26.281 10.215-41.328c1.9766-8.2109 7.1445-15.289 14.359-19.676 7.2148-4.3828 15.879-5.7109 24.074-3.6875 8.1953 2.0234 15.246 7.2305 19.594 14.469 4.3438 7.2383 5.6211 15.91 3.5508 24.094l-3.3672 13.656v0.058594l-6.8203 27.629 0.003906 0.007812c-7.2305 28.965-25.109 54.145-50.074 70.523-14.484-26.117-18.602-56.73-11.535-85.746zm15.008 94.965c24.652-15.617 43.262-39.156 52.77-66.746l80 27.219-13.777 90.891-22.109 147.03h-73.633v-87.191c0-1.2852-0.50781-2.5156-1.418-3.4219-0.90625-0.90625-2.1406-1.4141-3.4219-1.4102h-18.41zm-23.223 198.39v-82.352h36.781v82.352z"/>
  <path d="m571.76 465.02v4.5664c-6.3789 1.4492-11.625 5.9609-14.016 12.043-2.3945 6.0859-1.6211 12.961 2.0586 18.363 3.6797 5.4062 9.7969 8.6406 16.336 8.6406 4.0156 0 7.8672 1.5938 10.707 4.4336s4.4336 6.6953 4.4336 10.711-1.5938 7.8672-4.4336 10.707-6.6914 4.4375-10.707 4.4375c-4.0195 0-7.8711-1.5977-10.711-4.4375-2.8398-2.8398-4.4336-6.6914-4.4336-10.707-0.11328-2.3242-2.0273-4.1523-4.3555-4.1523s-4.2422 1.8281-4.3555 4.1523c0.007812 5.5664 1.9609 10.957 5.5195 15.238 3.5586 4.2812 8.5039 7.1836 13.977 8.2109v4.4766c-0.058594 1.1914 0.375 2.3516 1.1992 3.2148 0.82031 0.86328 1.9609 1.3516 3.1523 1.3516s2.332-0.48828 3.1562-1.3516c0.82422-0.86328 1.2539-2.0234 1.1992-3.2148v-4.4766c7.875-1.4492 14.496-6.7578 17.629-14.125 3.1328-7.3711 2.3555-15.82-2.0703-22.496-4.4219-6.6758-11.898-10.684-19.906-10.672-4.4805 0.003906-8.5195-2.6914-10.234-6.8281-1.7188-4.1367-0.77344-8.8984 2.3906-12.066 3.168-3.168 7.9297-4.1172 12.066-2.4023 4.1367 1.7109 6.8359 5.75 6.8359 10.227-0.058593 1.1914 0.375 2.3516 1.1992 3.2148s1.9609 1.3516 3.1562 1.3516c1.1914 0 2.332-0.48828 3.1523-1.3516 0.82422-0.86328 1.2578-2.0234 1.1992-3.2148-0.003906-4.4844-1.5352-8.832-4.3359-12.336-2.8008-3.5-6.707-5.9492-11.082-6.9414v-4.5664c-0.10938-2.3242-2.0273-4.1484-4.3555-4.1484-2.3242 0-4.2422 1.8242-4.3516 4.1484z"/>
 </g>
</svg>