<?xml version="1.0" encoding="UTF-8"?>
<!-- The Best Svg Icon site in the world: iconSvg.co, Visit us! https://iconsvg.co -->
<svg fill="#000000" width="800px" height="800px" version="1.1" viewBox="144 144 512 512" xmlns="http://www.w3.org/2000/svg">
 <path d="m573.18 384.25h-94.465v-157.44c0-12.523-4.9766-24.539-13.832-33.398-8.8594-8.8555-20.875-13.832-33.398-13.832h-204.68c-12.523 0-24.539 4.9766-33.398 13.832-8.8555 8.8594-13.832 20.875-13.832 33.398v283.39c0 29.23 11.609 57.262 32.277 77.93s48.703 32.277 77.93 32.277h220.42c29.23 0 57.262-11.609 77.93-32.277s32.277-48.699 32.277-77.93v-78.719c0-12.527-4.9766-24.543-13.832-33.398-8.8594-8.8594-20.871-13.836-33.398-13.836zm-362.11 125.95v-283.39c0-4.1758 1.6602-8.1797 4.6094-11.133 2.9531-2.9492 6.957-4.6094 11.133-4.6094h204.68c4.1758 0 8.1797 1.6602 11.133 4.6094 2.9492 2.9531 4.6094 6.957 4.6094 11.133v362.11h-157.44c-20.875 0-40.898-8.293-55.664-23.055-14.762-14.762-23.055-34.785-23.055-55.664zm377.86 0c0 20.879-8.293 40.902-23.055 55.664-14.762 14.762-34.785 23.055-55.664 23.055h-31.488v-173.18h94.465c4.1758 0 8.1797 1.6602 11.133 4.6133 2.9531 2.9492 4.6094 6.957 4.6094 11.133zm-188.93-251.91h-141.7c-4.1758 0-8.1797 1.6602-11.133 4.6133-2.9531 2.9531-4.6094 6.957-4.6094 11.133v94.465c0 4.1758 1.6562 8.1797 4.6094 11.133s6.957 4.6094 11.133 4.6094h141.7c4.1758 0 8.1797-1.6562 11.133-4.6094 2.9492-2.9531 4.6094-6.957 4.6094-11.133v-94.465c0-4.1758-1.6602-8.1797-4.6094-11.133-2.9531-2.9531-6.957-4.6133-11.133-4.6133zm-15.742 94.465h-110.21v-62.977h110.21zm31.488 78.719-0.003906 0.003906c0 4.1758-1.6602 8.1797-4.6094 11.133-2.9531 2.9492-6.957 4.6094-11.133 4.6094h-141.7c-5.625 0-10.82-3-13.633-7.8711s-2.8125-10.875 0-15.746c2.8125-4.8711 8.0078-7.8711 13.633-7.8711h141.7c4.1758 0 8.1797 1.6602 11.133 4.6133 2.9492 2.9492 4.6094 6.957 4.6094 11.133zm-62.977 62.977h-0.003906c0 4.1758-1.6562 8.1836-4.6094 11.133-2.9531 2.9531-6.957 4.6133-11.133 4.6133h-78.723c-5.625 0-10.82-3-13.633-7.8711-2.8125-4.8711-2.8125-10.875 0-15.746s8.0078-7.8711 13.633-7.8711h78.723c4.1758 0 8.1797 1.6602 11.133 4.6094 2.9531 2.9531 4.6094 6.9609 4.6094 11.133z"/>
</svg>