<?xml version="1.0" encoding="UTF-8"?>
<!-- The Best Svg Icon site in the world: iconSvg.co, Visit us! https://iconsvg.co -->
<svg fill="#000000" width="800px" height="800px" version="1.1" viewBox="144 144 512 512" xmlns="http://www.w3.org/2000/svg">
 <g>
  <path d="m643.13 465.23-18.586-13.922 10.707-20.609c0.94531-1.8164 0.98047-3.9766 0.089844-5.8203-0.89062-1.8477-2.5977-3.1641-4.6094-3.5547l-22.777-4.4297 0.72656-23.242h-0.003906c0.066406-2.0508-0.83984-4.0078-2.4414-5.2852-1.6016-1.2812-3.7148-1.7266-5.6953-1.207l-22.484 5.8867-9.4453-21.27v0.003906c-0.83594-1.8672-2.5-3.2344-4.4961-3.6953-1.9414-0.44531-3.9766 0.070312-5.4688 1.3906l-14.984 12.895v-224.52c0-3.2617-3.0039-5.8242-6.2656-5.8242h-266.01c-3.2617 0-5.9062 2.6406-5.9062 5.9023 0 3.2617 2.6445 5.9023 5.9062 5.9023h260.46v212.81l-8.6094-7.1719v-0.003906c-1.5977-1.3242-3.7188-1.8359-5.7422-1.3828-2.0078 0.45703-3.6836 1.8242-4.5391 3.6953l-9.4453 21.266-1.1797-0.30859-0.003906-191.97c0-3.2617-2.6797-5.4414-5.9375-5.4414h-266.01c-1.5312-0.0625-3.0195 0.49609-4.1289 1.5469-1.1133 1.0508-1.7539 2.5078-1.7773 4.0352l-2.0117 259.12h-62.301c-3.332 0.019531-6.0547 2.6641-6.1719 5.9961v17.703c0 35.602 27.555 64.762 61.012 66.434v0.39453h219.43v-0.46094c0.98438 0.089844 2.6914 0.15234 4.0703 0.15234v-0.003907c12.336 0.019531 24.391-3.6719 34.602-10.59l-0.24609 7.6094c-0.066406 2.0508 0.83984 4.0078 2.4414 5.2852 1.6016 1.2812 3.7109 1.7266 5.6953 1.2109l2.4336-0.63672-24.496 59.473v-0.003906c-1.7539 4.2617-0.875 9.1562 2.2539 12.539 3.1328 3.3828 7.9414 4.6367 12.324 3.2188l22.762-7.3516 9.9609 20.422 0.003907-0.003906c1.9492 4.082 6.0859 6.668 10.609 6.6406 0.13672 0 0.27344 0 0.41406-0.007812l-0.003906 0.003906c4.6719-0.12109 8.8242-3.0117 10.559-7.3516l13.297-32.57 12.594 30.793h0.003906c1.7344 4.3398 5.8867 7.2305 10.559 7.3516 0.13672 0.003907 0.27734 0.007813 0.41406 0.007813v-0.003906c4.5234 0.027343 8.6562-2.5586 10.609-6.6406l9.9844-20.43 22.742 7.3672-0.003907-0.003906c4.3867 1.418 9.1953 0.16406 12.324-3.2188 3.1328-3.3828 4.0117-8.2773 2.2578-12.539l-23.676-57.48 1.6172 0.42578c1.9844 0.51953 4.0938 0.070313 5.6953-1.207 1.6016-1.2773 2.5078-3.2344 2.4414-5.2812l-0.72656-23.246 22.777-4.4336c2.0117-0.39063 3.7188-1.707 4.6133-3.5508 0.89062-1.8477 0.85547-4.0039-0.085938-5.8203l-10.711-20.617 18.598-13.973-0.003906-0.003906c1.6367-1.2266 2.5977-3.1523 2.5938-5.1992 0-2.043-0.96484-3.9688-2.6016-5.1914zm-425.05 73.512c-28.68 0-52.277-24.852-52.277-55.02v-11.891h208.61v11.891c0 22.656 11.176 42.227 27.824 55.02zm220.27-0.3125c-28.68 0-52.133-24.543-52.133-54.711v-17.699c0.058594-1.5508-0.50781-3.0586-1.5742-4.1875-1.0625-1.125-2.5352-1.7773-4.0859-1.8086h-146.29l1.9688-252.89h254.28v182.51l-9.5156-2.4883c-1.9844-0.51953-4.0977-0.074219-5.7031 1.2031-1.6055 1.2773-2.5156 3.2344-2.4531 5.2852l0.72266 23.246-22.773 4.4297v-0.003906c-2.0117 0.39062-3.7188 1.707-4.6133 3.5547-0.89062 1.8438-0.85938 4 0.085938 5.8203l10.707 20.613-18.59 13.922c-1.6328 1.2266-2.5977 3.1523-2.5977 5.1953s0.96484 3.9688 2.5977 5.1953l18.598 13.969-10.715 20.625v-0.003907c-0.94141 1.8203-0.97266 3.9766-0.082032 5.8203 0.89063 1.8438 2.6016 3.1562 4.6094 3.5469l22.777 4.4336-0.0625 0.10938v0.003906c-9.4062 9.1719-22.023 14.305-35.164 14.312zm78.492 97.797-9.9609-20.422 0.003906 0.003906c-2.6016-5.2773-8.6719-7.8594-14.277-6.0703l-22.766 7.3398 27.891-67.719 5.7305-1.5 9.4453 21.262h0.003907c0.83203 1.875 2.5 3.2461 4.4961 3.6992 1.9961 0.45703 4.0938-0.058593 5.6523-1.3867l2.2539-1.918 9.4102 23zm94.809-20.898-22.742-7.3672h0.003907c-5.6055-1.7852-11.676 0.79297-14.277 6.0703l-9.9961 20.414-29.859-72.98 5.9844-5.0898 17.699 15.055-0.003906-0.003907c1.1797 1.0039 2.6758 1.5508 4.2227 1.5508 0.48047 0 0.95703-0.054687 1.4258-0.16016 1.9961-0.45703 3.6602-1.8281 4.5-3.6953l9.4453-21.266 6.5508 1.7148zm2.1953-132.48h0.003907c-2.5508 1.9023-3.3398 5.3711-1.8672 8.1875l9.5078 18.309-20.23 3.9375c-3.1367 0.59375-5.3672 3.3906-5.2578 6.5781l0.64453 20.656-19.977-5.2305 0.003907 0.003907c-3.0781-0.81641-6.293 0.73047-7.5781 3.6445l-8.3945 18.895-15.73-13.383c-2.4258-2.0742-6-2.0742-8.4219 0l-15.73 13.383-8.3984-18.902h0.003907c-1.2891-2.9102-4.5-4.4531-7.5781-3.6406l-19.977 5.2305 0.64453-20.656h0.003907c0.10937-3.1875-2.1172-5.9805-5.2539-6.5781l-20.238-3.9375 9.5078-18.309c1.4727-2.8164 0.68359-6.2852-1.8594-8.1875l-16.531-12.418 16.523-12.379c2.5508-1.9023 3.3438-5.375 1.8672-8.1953l-9.5078-18.301 20.234-3.9375c3.1328-0.59766 5.3672-3.3906 5.2539-6.5781l-0.64453-20.656 19.977 5.2305v-0.003907c3.0781 0.8125 6.293-0.73438 7.582-3.6484l8.3945-18.895 15.727 13.383-0.003907 0.003906c2.4258 2.0781 6 2.0781 8.4258 0l15.73-13.383 8.3945 18.895-0.003906-0.003906c1.2852 2.918 4.5039 4.4688 7.5859 3.6484l19.977-5.2305-0.64844 20.652c-0.11328 3.1914 2.1172 5.9844 5.2539 6.582l20.238 3.9375-9.5117 18.309c-1.4766 2.8203-0.68359 6.293 1.8672 8.1914l16.523 12.375z"/>
  <path d="m540.77 407.57c-16.676 0-32.668 6.625-44.461 18.418-11.793 11.793-18.418 27.785-18.418 44.461s6.625 32.668 18.418 44.461c11.793 11.793 27.785 18.418 44.461 18.418s32.668-6.625 44.461-18.418c11.793-11.793 18.418-27.785 18.418-44.461-0.019531-16.672-6.6523-32.652-18.438-44.438-11.789-11.789-27.77-18.422-44.441-18.441zm0 113.96c-13.543 0-26.535-5.3828-36.113-14.957-9.5742-9.5781-14.957-22.57-14.957-36.113 0-13.543 5.3828-26.535 14.957-36.113 9.5781-9.5742 22.57-14.957 36.113-14.957 13.547 0 26.535 5.3828 36.113 14.957 9.5781 9.5781 14.957 22.57 14.957 36.113-0.019532 13.539-5.4062 26.516-14.98 36.09-9.5742 9.5703-22.551 14.957-36.09 14.973z"/>
  <path d="m539.23 447.04c0.98438 0.26172 2.0195 0.25781 3-0.011718 4.4805 0.72266 7.7734 4.582 7.7812 9.1172 0 3.2617 2.6406 5.9023 5.9023 5.9023s5.9062-2.6406 5.9062-5.9023c-0.007813-4.5586-1.4961-8.9961-4.2383-12.637-2.7422-3.6445-6.5898-6.3008-10.973-7.5703v-4.4453c0-3.2617-2.6406-5.9062-5.9023-5.9062-3.2617 0-5.9023 2.6445-5.9023 5.9062v4.4766-0.003906c-6.5234 1.9297-11.715 6.8906-13.93 13.324-2.2188 6.4297-1.1914 13.535 2.7578 19.074 3.9453 5.5391 10.328 8.8281 17.129 8.832 4.8711-0.011718 8.9141 3.7578 9.2422 8.6211 0.32813 4.8594-3.1719 9.1367-8 9.7812-0.83984-0.19531-1.7109-0.19922-2.5508-0.011719-4.5508-0.65234-7.9297-4.5469-7.9375-9.1406 0-3.2617-2.6406-5.9062-5.9023-5.9062-3.2617 0-5.9062 2.6445-5.9062 5.9062 0.007812 4.5391 1.4805 8.957 4.1992 12.594 2.7227 3.6367 6.543 6.2969 10.898 7.5898v4.5664c0 3.2617 2.6406 5.9023 5.9023 5.9023 3.2617 0 5.9023-2.6406 5.9023-5.9023v-4.5391c6.5547-1.8945 11.781-6.8438 14.031-13.281 2.2461-6.4375 1.2383-13.566-2.7109-19.125-3.9492-5.5586-10.348-8.8594-17.168-8.8594-4.8125 0.011719-8.8242-3.6758-9.2227-8.4688-0.40234-4.7969 2.9453-9.0938 7.6914-9.8828z"/>
  <path d="m273.44 279.95h79.445c3.2617 0 5.9062-2.6406 5.9062-5.9023s-2.6445-5.9062-5.9062-5.9062h-79.445c-3.2578 0-5.9023 2.6445-5.9023 5.9062s2.6445 5.9023 5.9023 5.9023z"/>
  <path d="m273.44 338.99h161.45c3.2617 0 5.9023-2.6445 5.9023-5.9062 0-3.2617-2.6406-5.9023-5.9023-5.9023h-161.45c-3.2578 0-5.9023 2.6406-5.9023 5.9023 0 3.2617 2.6445 5.9062 5.9023 5.9062z"/>
  <path d="m440.79 398.03c0-3.2617-2.6406-5.9062-5.9023-5.9062h-161.45c-3.2578 0-5.9023 2.6445-5.9023 5.9062s2.6445 5.9023 5.9023 5.9023h161.45c3.2617 0 5.9023-2.6406 5.9023-5.9023z"/>
 </g>
</svg>