<?xml version="1.0" encoding="UTF-8"?>
<!-- The Best Svg Icon site in the world: iconSvg.co, Visit us! https://iconsvg.co -->
<svg fill="#000000" width="800px" height="800px" version="1.1" viewBox="144 144 512 512" xmlns="http://www.w3.org/2000/svg">
 <g>
  <path d="m627.87 308.58-73.473-73.473c-1.9688-1.9883-4.6523-3.1055-7.4531-3.1055-2.7969 0-5.4805 1.1172-7.4492 3.1055l-73.473 73.473c-2.9805 3.0195-3.8477 7.5312-2.207 11.441 1.6133 3.918 5.4219 6.4844 9.6602 6.5078h31.488l-0.003907 230.91c0 2.7852 1.1094 5.4531 3.0742 7.4219 1.9688 1.9688 4.6406 3.0742 7.4219 3.0742h62.977c2.7852 0 5.4531-1.1055 7.4219-3.0742s3.0742-4.6367 3.0742-7.4219v-230.91h31.488c4.2383-0.023438 8.0469-2.5898 9.6562-6.5078 1.6445-3.9102 0.77344-8.4219-2.2031-11.441z"/>
  <path d="m459.62 402.83-136.45-125.95c-4.0273-3.7344-10.25-3.7344-14.273 0l-136.45 125.95c-3.7695 4.0273-3.7773 10.289-0.015624 14.328 3.7578 4.0352 10.004 4.4727 14.289 0.99609l13.855-12.805v110.1c0 2.7852 1.1055 5.457 3.0742 7.4219 1.9688 1.9688 4.6367 3.0742 7.4219 3.0742h209.92c2.7812 0 5.4531-1.1055 7.4219-3.0742 1.9648-1.9648 3.0742-4.6367 3.0742-7.4219v-110l13.855 12.699h-0.003906c1.9883 2.125 4.7695 3.3281 7.6758 3.3242 2.9102-0.003907 5.6875-1.2148 7.668-3.3398 1.9844-2.1289 2.9961-4.9844 2.793-7.8867-0.20312-2.9023-1.6016-5.5898-3.8594-7.4219zm-112.1 7.6641c2.7812 0 5.4531 1.1055 7.4219 3.0742s3.0742 4.6367 3.0742 7.4219v41.984c0 2.7812-1.1055 5.4531-3.0742 7.4219-1.9688 1.9648-4.6406 3.0742-7.4219 3.0742h-20.992v10.496-0.003906c0 5.7969-4.6992 10.496-10.496 10.496s-10.496-4.6992-10.496-10.496v-10.492h-20.992c-5.7969 0-10.496-4.6992-10.496-10.496 0-5.7969 4.6992-10.496 10.496-10.496h52.48v-20.992h-52.48c-5.7969 0-10.496-4.6992-10.496-10.496v-41.984c0-5.7969 4.6992-10.496 10.496-10.496h20.992v-10.496c0-5.7969 4.6992-10.496 10.496-10.496s10.496 4.6992 10.496 10.496v10.496h20.992c5.7969 0 10.496 4.6992 10.496 10.496 0 5.7969-4.6992 10.496-10.496 10.496h-52.48v20.992z"/>
 </g>
</svg>