<?xml version="1.0" encoding="UTF-8"?>
<!-- The Best Svg Icon site in the world: iconSvg.co, Visit us! https://iconsvg.co -->
<svg fill="#000000" width="800px" height="800px" version="1.1" viewBox="144 144 512 512" xmlns="http://www.w3.org/2000/svg">
 <g>
  <path d="m532.32 238.07v84.992l-89.586 37.168v-45.879l-110.58 45.879v-45.879l-131.59 54.594v192.99h398.85v-323.86h-67.098zm20.992 20.992h25.113v281.88h-356.86v-157.99l89.605-37.145v45.859l110.58-45.859v45.859l131.57-54.57v-78.023z"/>
  <path d="m371.11 427.77v57.77h57.77v-57.77zm20.992 20.992h15.785v15.785h-15.785z"/>
  <path d="m267.85 427.77v57.77h57.77v-57.77zm20.992 20.992h15.785v15.785h-15.785z"/>
  <path d="m474.37 427.77v57.77h57.77v-57.77zm20.992 20.992h15.785v15.785h-15.785z"/>
 </g>
</svg>