<?xml version="1.0" encoding="UTF-8"?>
<!-- The Best Svg Icon site in the world: iconSvg.co, Visit us! https://iconsvg.co -->
<svg fill="#000000" width="800px" height="800px" version="1.1" viewBox="144 144 512 512" xmlns="http://www.w3.org/2000/svg">
 <g>
  <path d="m559.93 469.51c-2.9258-0.40234-5.6953 1.4219-6.4844 4.2695-1.168 4.1992-5.2969 16.176-10.391 21.422v-0.003906c-6.9766 6.293-16.047 9.7695-25.441 9.7539h-0.33984c-9.2734 0.011719-18.215-3.4688-25.039-9.7422-6.6641-6.7695-10.184-14.996-10.184-23.793l-0.003907-0.003907c0-3.2578-2.6406-5.9023-5.9023-5.9023-3.2617 0-5.9023 2.6445-5.9023 5.9023-0.074219 9.0195-3.7305 17.637-10.172 23.945-6.9609 6.3477-16.027 9.8828-25.445 9.9258h-0.027344c-9.4453-0.011718-18.551-3.543-25.539-9.9062-5.3594-5.2422-8.8828-12.074-10.047-19.477v-131.54c0-11.43 9.7383-20.383 21.934-20.383 12.195 0 21.844 8.9531 21.844 20.383 0 3.2812 2.6602 5.9414 5.9375 5.9414 3.2812 0 5.9375-2.6602 5.9375-5.9414 0-18.051-14.914-32.191-33.73-32.191-18.816 0.003906-33.73 14.141-33.73 32.191v125.16c0 0.59766-0.13672 1.2344-0.13672 1.8984v0.003907c-0.039062 8.9531-3.668 17.52-10.074 23.777-6.9648 6.2969-16.02 9.7734-25.406 9.7578h-0.31641c-9.2695 0.007813-18.207-3.4688-25.027-9.7422-6.6641-6.7695-10.18-14.996-10.18-23.797 0-3.2617-2.6445-5.9023-5.9062-5.9023-3.2617 0-5.9023 2.6406-5.9023 5.9023-0.070312 9.0156-3.7305 17.633-10.168 23.945-6.9609 6.3438-16.027 9.8828-25.445 9.9258h-0.023437c-9.3945-0.003906-18.441-3.5391-25.355-9.9023-5.1016-5.2383-9.2344-17.32-10.402-21.516-0.76562-2.8516-3.5273-4.6992-6.457-4.3164-2.9297 0.37891-5.1289 2.875-5.1367 5.8281 0 43.812 17.91 84.949 50.422 115.86 32.434 30.824 75.57 47.797 121.46 47.797s89.031-16.98 121.46-47.805c32.516-30.906 50.422-72.055 50.422-115.87 0-2.9531-2.1836-5.4492-5.1094-5.8477zm-53.449 113.15c-30.23 28.734-70.477 44.555-113.33 44.555-42.855 0-83.102-15.824-113.33-44.555-22.77-21.648-37.812-48.684-43.812-78.09h0.003906c8.8984 7.8594 20.363 12.191 32.234 12.188h0.44922c12.375 0.011719 24.305-4.6016 33.457-12.93 0.078125-0.070312 0.15234-0.14062 0.22266-0.21484 3.0234-3.0273 5.6406-6.4375 7.7891-10.137 2.1484 3.7031 4.7656 7.1094 7.793 10.141 0.0625 0.0625 0.125 0.125 0.19141 0.18359h-0.003906c9.0039 8.3359 20.824 12.969 33.094 12.961 0.14844 0 0.27734-0.007813 0.44922 0 12.371 0.011719 24.305-4.6016 33.453-12.93 0.078125-0.070313 0.15234-0.14063 0.22266-0.21484h0.003906c3.0234-3.0312 5.6406-6.4375 7.7852-10.141 2.1523 3.6992 4.7695 7.1094 7.793 10.141 0.0625 0.0625 0.125 0.125 0.19141 0.18359 9 8.3359 20.82 12.965 33.094 12.961h0.44922c12.371 0.007813 24.301-4.6055 33.449-12.934 0.078126-0.070312 0.15234-0.14062 0.22266-0.21484 3.0234-3.0312 5.6445-6.4375 7.793-10.137 2.1484 3.7031 4.7695 7.1094 7.793 10.141 0.0625 0.0625 0.125 0.125 0.19141 0.18359 9 8.3359 20.82 12.969 33.09 12.961 0.14844 0 0.29688-0.007813 0.44922 0 11.992 0.007813 23.586-4.3242 32.629-12.199-5.9961 29.406-21.039 56.449-43.816 78.098z"/>
  <path d="m308.7 214.3c0-14.145-5.6211-27.707-15.621-37.707-10-10.004-23.562-15.621-37.707-15.621s-27.707 5.6172-37.711 15.617c-10 10.004-15.617 23.566-15.617 37.711s5.6172 27.707 15.617 37.707c10 10.004 23.566 15.621 37.711 15.621 14.137-0.015625 27.691-5.6406 37.688-15.637 10-9.9961 15.625-23.551 15.641-37.691zm-94.848 0c0-11.012 4.375-21.574 12.16-29.359s18.348-12.16 29.359-12.16 21.57 4.375 29.359 12.16c7.7852 7.7852 12.16 18.348 12.16 29.359s-4.375 21.574-12.16 29.359c-7.7891 7.7852-18.348 12.16-29.359 12.16-11.008-0.011718-21.562-4.3906-29.344-12.176-7.7852-7.7812-12.164-18.336-12.176-29.344z"/>
  <path d="m260.27 246.49v-0.84766c5.6914-1.5859 10.258-5.8438 12.238-11.41 1.9805-5.5664 1.1328-11.75-2.2773-16.578-3.4062-4.8281-8.9492-7.6953-14.855-7.6914-3.3867 0-6.1797-2.6445-6.3672-6.0234s2.2969-6.3164 5.6602-6.6914c0.22656 0.027344 0.45312 0.042969 0.68359 0.042969 0.23438 0 0.47266-0.015625 0.70703-0.046875 3.2344 0.35547 5.6875 3.0859 5.6914 6.3398 0 3.2617 2.6445 5.9062 5.9062 5.9062 3.2578 0 5.9023-2.6445 5.9023-5.9062-0.007813-3.7891-1.1953-7.4805-3.4023-10.562-2.2031-3.082-5.3164-5.3984-8.9023-6.6289v-0.91016c0-3.2578-2.6445-5.9023-5.9023-5.9023-3.2617 0-5.9062 2.6445-5.9062 5.9023v0.92969c-5.4648 1.8828-9.7109 6.2539-11.434 11.773-1.7227 5.5195-0.71484 11.527 2.7148 16.184 3.4258 4.6562 8.8633 7.4062 14.648 7.4023 2.5781 0 4.9023 1.5508 5.8906 3.9336 0.98828 2.3867 0.44141 5.1289-1.3828 6.9531-1.8242 1.8242-4.5664 2.3672-6.9492 1.3828-2.3828-0.98828-3.9375-3.3125-3.9375-5.8945 0-3.2617-2.6445-5.9023-5.9023-5.9023-3.2617 0-5.9062 2.6406-5.9062 5.9023 0.003906 3.6055 1.0781 7.125 3.0859 10.117 2.0078 2.9961 4.8555 5.3242 8.1875 6.6953v1.5312c0 3.2617 2.6445 5.9062 5.9062 5.9062 3.2578 0 5.9023-2.6445 5.9023-5.9062z"/>
  <path d="m509.22 432.88c14.145 0 27.707-5.6211 37.707-15.621s15.617-23.566 15.613-37.707c0-14.145-5.6172-27.707-15.621-37.707-10-10-23.562-15.617-37.707-15.617-14.145 0-27.707 5.6172-37.707 15.617-10 10.004-15.617 23.566-15.617 37.711 0.015625 14.137 5.6406 27.691 15.637 37.691 10 9.9961 23.555 15.621 37.695 15.633zm0-94.848v0.003906c11.012 0 21.57 4.375 29.355 12.164 7.7852 7.7852 12.16 18.348 12.156 29.359 0 11.008-4.375 21.57-12.16 29.355-7.7891 7.7852-18.348 12.16-29.359 12.156-11.012 0-21.57-4.375-29.355-12.16-7.7891-7.7852-12.16-18.348-12.16-29.355 0.011719-11.012 4.3906-21.566 12.176-29.348 7.7852-7.7852 18.34-12.164 29.348-12.172z"/>
  <path d="m509.22 399.79c-3.5195-0.003906-6.3711-2.8555-6.375-6.3789 0-3.2578-2.6445-5.9023-5.9062-5.9023-3.2578 0-5.9023 2.6445-5.9023 5.9023 0.003907 3.6094 1.0781 7.1367 3.0898 10.129 2.0117 2.9961 4.8672 5.3281 8.207 6.6953v1.5742c0 3.2617 2.6406 5.9062 5.9023 5.9062s5.9062-2.6445 5.9062-5.9062v-0.91016 0.003907c5.6836-1.5977 10.238-5.8594 12.211-11.422 1.9727-5.5664 1.1211-11.742-2.2852-16.566-3.4062-4.8203-8.9414-7.6875-14.848-7.6875-3.3516 0-6.1328-2.5938-6.3633-5.9375s2.1719-6.2969 5.4922-6.75c0.57813 0.09375 1.168 0.09375 1.7461 0 3.1523 0.4375 5.4961 3.1289 5.5039 6.3086 0 3.2617 2.6445 5.9023 5.9023 5.9023 3.2617 0 5.9062-2.6406 5.9062-5.9023-0.007812-3.7852-1.1953-7.4727-3.3984-10.551-2.1992-3.082-5.3047-5.3945-8.8867-6.6289v-0.86719c0-3.2578-2.6406-5.9023-5.9023-5.9023-3.2617 0-5.9023 2.6445-5.9023 5.9023v0.86328c-5.4766 1.875-9.7305 6.2461-11.457 11.766-1.7305 5.5234-0.72656 11.539 2.7031 16.199 3.4258 4.6602 8.8711 7.4102 14.656 7.4062 3.5234 0 6.3789 2.8555 6.3789 6.375 0 3.5234-2.8555 6.3789-6.3789 6.3789z"/>
  <path d="m593.06 204.73-155.59-27.027c-1.543-0.26953-3.1289 0.085937-4.4062 0.98828-1.2812 0.90234-2.1523 2.2734-2.4219 3.8164l-15.379 88.523h0.003906c-0.55859 3.2109 1.5938 6.2695 4.8047 6.8281l155.58 27.027c0.33594 0.058593 0.67969 0.085937 1.0195 0.085937 2.8672-0.003906 5.3164-2.0703 5.8047-4.8945l15.383-88.516c0.55859-3.2109-1.5938-6.2695-4.8047-6.8281zm-21.195 87.512-143.95-25.008 13.355-76.887 143.95 25.004z"/>
  <path d="m445 250.91c6.6289 1.2773 10.473 5.543 9.7969 10.875-0.39844 3.1289 1.7383 6.0195 4.8438 6.5586l81.98 14.242c0.33594 0.058594 0.67578 0.085937 1.0156 0.085937 2.7695 0 5.1602-1.9219 5.7617-4.625 1.1484-5.168 6.332-7.9531 12.891-6.9375 3.1797 0.49219 6.168-1.6523 6.7188-4.8203l4.832-27.809c0.55078-3.1719-1.5391-6.1992-4.6992-6.8086-6.4102-1.2344-10.273-5.5938-9.6133-10.852l-0.003907 0.003906c0.39453-3.1289-1.7383-6.0156-4.8438-6.5547l-82.164-14.273c-3.1094-0.53906-6.0938 1.457-6.7773 4.5352-1.1484 5.168-6.3242 7.9609-12.891 6.9375-3.1797-0.48828-6.1641 1.6562-6.7188 4.8242l-4.832 27.809c-0.55078 3.1719 1.5391 6.1992 4.7031 6.8086zm63.719-21.984c6.6133 1.1523 11.145 7.3164 10.273 13.973-0.86719 6.6602-6.8281 11.453-13.516 10.871-6.6914-0.58203-11.734-6.3281-11.445-13.039 0.29297-6.707 5.8164-11.996 12.531-11.992 0.72266 0 1.4453 0.0625 2.1562 0.1875zm51.602 12.645-3.0508 17.574c-8.0625 0.44922-14.891 4.5312-18.402 10.98l-27.984-4.8594 0.003906-0.003906c6.5859-1.1914 12.395-5.043 16.059-10.645 3.6641-5.6016 4.8594-12.465 3.3086-18.98-1.5469-6.5117-5.707-12.098-11.504-15.453l28.125 4.8867c1.1133 7.2344 6.0938 13.363 13.445 16.5zm-104.45-18.133c8.0625-0.44922 14.891-4.5312 18.402-10.977l27.953 4.8555v-0.003906c-6.5859 1.2031-12.383 5.0586-16.043 10.66-3.6562 5.6055-4.8477 12.469-3.2969 18.977 1.5547 6.5078 5.7148 12.094 11.508 15.445l-27.914-4.8477c-1.0664-7.3477-6.0781-13.449-13.648-16.574z"/>
  <path d="m299.72 260.79c-1.4961 0.46484-2.7461 1.5039-3.4727 2.8906l-73.453 139.79c-1.5156 2.8867-0.40625 6.4531 2.4805 7.9688l79.535 41.793c2.8867 1.5156 6.4531 0.40234 7.9688-2.4805l73.453-139.79c1.5156-2.8867 0.40625-6.4531-2.4805-7.9727l-79.535-41.793c-1.3828-0.72656-3-0.87109-4.4961-0.40625zm73.316 49.91-67.961 129.34-69.082-36.301 67.961-129.34z"/>
  <path d="m254.96 386.66c4.7773 2.8008 5.9453 9.0781 2.8398 15.254v-0.003906c-1.4453 2.8789-0.32031 6.3828 2.5312 7.8789l25.949 13.637c2.8477 1.4961 6.3711 0.43359 7.9219-2.3867 3.3828-6.1641 9.0781-8.7031 14.168-6.3164 2.8594 1.3359 6.2617 0.19141 7.7305-2.6016l40.211-76.5c1.4688-2.793 0.48047-6.2422-2.2383-7.8398-4.7773-2.8047-5.9453-9.0781-2.8398-15.254v0.003906c1.4453-2.8789 0.32031-6.3828-2.5312-7.8789l-25.953-13.641c-2.8516-1.4961-6.375-0.4375-7.9258 2.3867-3.3242 6.0547-8.9883 8.5234-14.086 6.1445l0.003906-0.003907c-2.8594-1.3359-6.2617-0.1875-7.7266 2.6055l-40.289 76.676c-1.4688 2.793-0.48438 6.2422 2.2344 7.8398zm46.238-74.711c7.5273 1.2695 15.227-1.7227 20.664-8.0703l16.727 8.7891c-2.1953 8.1523-0.32031 16.254 5 21.762l-17.656 33.609c3.8281-7.5938 3.3516-16.645-1.25-23.793-4.6016-7.1484-12.645-11.328-21.141-10.984-8.4922 0.34375-16.172 5.1523-20.188 12.648zm14.109 50.941h-0.003907c-1.4883 2.8906-4.0664 5.0703-7.168 6.0469-3.1016 0.98047-6.4648 0.67969-9.3438-0.83203-2.8789-1.5117-5.0312-4.1133-5.9844-7.2227-0.95313-3.1094-0.625-6.4688 0.91016-9.332 1.5-2.8711 4.082-5.0195 7.1719-5.9727 4.7109-1.4648 9.8398 0.050781 12.996 3.8438 3.1562 3.7891 3.7148 9.1094 1.418 13.477zm-32.188-16.539v0.003907c-3.8906 7.582-3.4648 16.66 1.1172 23.848 4.5859 7.1875 12.637 11.402 21.152 11.074s16.223-5.1484 20.238-12.664l-17.695 33.68c-7.6328-1.3555-15.305 1.6797-20.801 8.2461l-16.688-8.7695c2.1914-8.1523 0.32031-16.254-5.0039-21.762z"/>
 </g>
</svg>