<?xml version="1.0" encoding="UTF-8"?>
<!-- The Best Svg Icon site in the world: iconSvg.co, Visit us! https://iconsvg.co -->
<svg fill="#000000" width="800px" height="800px" version="1.1" viewBox="144 144 512 512" xmlns="http://www.w3.org/2000/svg">
 <g>
  <path d="m399.97 425.92c-123.26 0-219.82-31.445-219.82-71.586v-91.402c0-2.5273 2.0469-4.5781 4.5781-4.5781s4.582 2.0508 4.582 4.5781c0 14.656 20.004 29.742 54.891 41.395 40.098 13.367 96.867 21.016 155.77 21.016 58.895 0 115.74-7.6641 155.84-21.027 34.879-11.645 54.875-26.73 54.875-41.383 0-2.5273 2.0508-4.5781 4.5781-4.5781 2.5312 0 4.582 2.0508 4.582 4.5781v91.402c0 40.141-96.578 71.586-219.87 71.586zm-210.66-141.74v70.152c0 30.145 84.645 62.426 210.65 62.426 126 0 210.72-32.281 210.72-62.426v-70.152c-9.7773 10.828-27.293 20.582-51.984 28.855-41.598 13.867-97.973 21.527-158.74 21.527-59.84 0-117.67-7.832-158.65-21.504-24.691-8.2969-42.203-18.055-51.992-28.879z"/>
  <path d="m619.84 354.3v91.418c0 40.121-96.547 71.586-219.84 71.586-123.3 0.003907-219.84-31.461-219.84-71.582v-91.422c0-2.5273 2.0469-4.5781 4.5781-4.5781s4.582 2.0508 4.582 4.5781c0 14.656 20.016 29.727 54.914 41.402 40.074 13.375 96.867 21.023 155.77 21.023 58.898 0 115.74-7.6484 155.82-21.023 34.898-11.68 54.871-26.746 54.871-41.402h-0.003906c0-2.5273 2.0508-4.5781 4.5781-4.5781 2.5312 0 4.582 2.0508 4.582 4.5781z"/>
  <path d="m399.97 608.66c-123.26 0-219.82-31.441-219.82-71.586v-91.398c0-2.5312 2.0469-4.582 4.5781-4.582s4.582 2.0508 4.582 4.582c0 14.656 20.004 29.742 54.891 41.395 40.098 13.363 96.867 21.023 155.77 21.023 58.895 0 115.74-7.668 155.84-21.031 34.879-11.648 54.875-26.734 54.875-41.387 0-2.5312 2.0508-4.582 4.5781-4.582 2.5312 0 4.582 2.0508 4.582 4.582v91.398c0 40.145-96.578 71.586-219.87 71.586zm-210.66-141.73v70.148c0 30.145 84.645 62.426 210.65 62.426 126 0 210.72-32.277 210.72-62.426v-70.148c-9.7773 10.824-27.293 20.582-51.984 28.855-41.598 13.867-97.973 21.527-158.74 21.527-59.84 0-117.67-7.8359-158.65-21.527-24.691-8.2734-42.203-18.031-51.992-28.855z"/>
  <path d="m374.02 248.13c0 2.6992 1.7812 4.7812 5.3438 6.25 5.0742 1.8516 10.344 3.1172 15.703 3.7695v-20.219c-5.2578 0.23438-10.438 1.3672-15.312 3.3555-3.8281 1.7461-5.7383 4.0273-5.7344 6.8438z"/>
  <path d="m421.62 271.89c-5.4961-1.7109-11.129-2.9531-16.832-3.7227v19.758c15.004-0.60938 22.5-4.1055 22.488-10.48 0-2.3828-1.8789-4.2344-5.6562-5.5547z"/>
  <path d="m400 191.34c-123.3 0-219.84 31.465-219.84 71.586 0 40.121 96.539 71.578 219.84 71.578s219.84-31.418 219.84-71.586-96.559-71.578-219.84-71.578zm37.098 95.484c-3.7969 3.0195-8.207 5.168-12.926 6.293-6.3281 1.6758-12.832 2.5859-19.375 2.7109v6.5273c-0.03125 0.86328-0.55469 1.6289-1.3438 1.9727-2.2266 1.0273-4.7852 1.0469-7.0234 0.050781-0.81641-0.34375-1.3516-1.1367-1.375-2.0234v-6.5273c-10.852-0.34375-21.645-1.7891-32.207-4.3164-1.168-0.25-2.2695-0.76562-3.2031-1.5117-0.75-0.51953-1.2188-1.3516-1.2734-2.2578 0.078125-1.168 0.77734-2.2031 1.832-2.707 1.4258-0.82031 3.0508-1.2188 4.6953-1.1523 1.0234-0.003906 2.043 0.12109 3.0352 0.37109 8.8711 2.2344 17.965 3.4609 27.109 3.6641v-21.125c-7.2266-1.1016-13.312-2.2969-18.258-3.582-4.4219-1.0586-8.6172-2.9219-12.363-5.4961-3.0703-1.9453-4.9336-5.3242-4.9453-8.9609 0.085938-3.375 1.5547-6.5625 4.0664-8.8203 3.4727-3.1328 7.6172-5.4297 12.117-6.7109 6.2852-1.9297 12.801-3.0078 19.375-3.2031v-6.4219c0.050782-0.875 0.57812-1.6523 1.3711-2.0195 1.0508-0.58984 2.2422-0.875 3.4414-0.82422 1.2188-0.042968 2.4297 0.24219 3.5039 0.82422 0.81641 0.34766 1.3672 1.1289 1.4258 2.0195v6.3438c9.3281 0.12109 18.621 1.1367 27.758 3.0312 2.9727 0.60938 4.4609 1.832 4.4609 3.6641-0.085938 1.1289-0.74609 2.1367-1.75 2.6641-1.3906 0.85547-3.0039 1.2734-4.6328 1.1953-0.85938-0.027344-1.7109-0.15234-2.543-0.36719-7.6758-1.5156-15.473-2.3438-23.293-2.4766v21.871c6.4062 0.8125 12.766 1.9453 19.059 3.3984 4.5391 1 8.8398 2.8594 12.684 5.4688 3.2383 2.1172 5.1641 5.75 5.0977 9.6172-0.10547 3.4688-1.7656 6.707-4.5195 8.8164z"/>
 </g>
</svg>