<?xml version="1.0" encoding="UTF-8"?>
<!-- The Best Svg Icon site in the world: iconSvg.co, Visit us! https://iconsvg.co -->
<svg fill="#000000" width="800px" height="800px" version="1.1" viewBox="144 144 512 512" xmlns="http://www.w3.org/2000/svg">
 <g>
  <path d="m400 636.16c-3 0.003906-5.9336-0.85547-8.457-2.4688-69.34-44.18-125.62-106.09-163.01-179.31-53.336-104.59-49.152-238.24-48.938-243.88 0.16797-4.6836 2.418-9.0508 6.1328-11.906 3.7188-2.8594 8.5156-3.9141 13.086-2.875 39.133 8.9141 79.773 8.918 118.91 0.015625 26.133-6.0664 51.188-16.09 74.293-29.723 2.418-1.4258 5.1719-2.1797 7.9805-2.1797 2.8047 0 5.5625 0.75391 7.9766 2.1797 23.109 13.633 48.16 23.656 74.293 29.723 39.141 8.8945 79.777 8.8906 118.91-0.015625 4.6172-1.0508 9.4609 0.03125 13.191 2.9453 3.7305 2.918 5.9492 7.3594 6.043 12.09 1.9453 90.91-20.504 180.68-65.004 259.97-36.406 64.117-86.309 119.56-146.25 162.49-2.6719 1.9141-5.875 2.9453-9.1602 2.9453zm-188.91-406.03c0.82812 39.5 7.0703 134.58 45.5 209.95v0.003906c33.184 64.988 82.363 120.46 142.91 161.18 52.406-39.34 96.145-89.047 128.49-146.03 38.668-68.824 59.617-146.18 60.953-225.11-37.812 6.082-76.441 4.8164-113.77-3.7227-26.254-6.082-51.547-15.742-75.168-28.711-23.625 12.973-48.918 22.637-75.168 28.719-37.328 8.5273-75.941 9.793-113.75 3.7266z"/>
  <path d="m400 494.46c-33.406 0-65.441-13.27-89.062-36.891-23.621-23.617-36.891-55.656-36.891-89.059 0-33.406 13.27-65.441 36.891-89.062 23.621-23.621 55.656-36.891 89.062-36.891 33.402 0 65.441 13.27 89.059 36.891 23.621 23.621 36.891 55.656 36.891 89.062-0.035157 33.391-13.32 65.406-36.93 89.02-23.613 23.609-55.629 36.895-89.02 36.93zm0-220.41c-25.055 0-49.082 9.9531-66.797 27.668s-27.668 41.742-27.668 66.797c0 25.051 9.9531 49.078 27.668 66.797 17.715 17.715 41.742 27.668 66.797 27.668 25.051 0 49.078-9.9531 66.793-27.668 17.719-17.719 27.668-41.746 27.668-66.797-0.027344-25.047-9.9883-49.059-27.695-66.766-17.711-17.711-41.723-27.672-66.766-27.699z"/>
  <path d="m407.87 431.49h-39.359c-5.625 0-10.824-3.0039-13.637-7.875-2.8125-4.8711-2.8125-10.871 0-15.742s8.0117-7.8711 13.637-7.8711h39.359c4.3477 0 7.8711-3.5273 7.8711-7.875s-3.5234-7.8711-7.8711-7.8711h-15.746c-14.059 0-27.055-7.5-34.086-19.68-7.0312-12.18-7.0312-27.184 0-39.359 7.0312-12.18 20.027-19.68 34.086-19.68h39.363c5.625 0 10.82 3 13.633 7.8711s2.8125 10.871 0 15.742c-2.8125 4.875-8.0078 7.875-13.633 7.875h-39.363c-4.3477 0-7.8711 3.5234-7.8711 7.8711 0 4.3477 3.5234 7.8711 7.8711 7.8711h15.746c14.062 0 27.055 7.5039 34.086 19.68 7.0312 12.18 7.0312 27.184 0 39.359-7.0312 12.18-20.023 19.684-34.086 19.684z"/>
  <path d="m400 337.02c-4.1758 0-8.1797-1.6602-11.133-4.6133-2.9531-2.9531-4.6133-6.957-4.6133-11.133v-15.742c0-5.625 3-10.824 7.8711-13.637s10.875-2.8125 15.746 0 7.8711 8.0117 7.8711 13.637v15.742c0 4.1758-1.6602 8.1797-4.6094 11.133-2.9531 2.9531-6.957 4.6133-11.133 4.6133z"/>
  <path d="m400 447.23c-4.1758 0-8.1797-1.6602-11.133-4.6094-2.9531-2.9531-4.6133-6.957-4.6133-11.133v-15.746c0-5.625 3-10.82 7.8711-13.633s10.875-2.8125 15.746 0 7.8711 8.0078 7.8711 13.633v15.746c0 4.1758-1.6602 8.1797-4.6094 11.133-2.9531 2.9492-6.957 4.6094-11.133 4.6094z"/>
 </g>
</svg>