<?xml version="1.0" encoding="UTF-8"?>
<!-- The Best Svg Icon site in the world: iconSvg.co, Visit us! https://iconsvg.co -->
<svg fill="#000000" width="800px" height="800px" version="1.1" viewBox="144 144 512 512" xmlns="http://www.w3.org/2000/svg">
 <g>
  <path d="m601.51 413.65c0 2.8984-2.3633 5.2461-5.2461 5.2461-2.9062 0-5.2461-2.3516-5.2461-5.2461l-0.003906-8.4062h-13.676v15.984c0 2.8984-2.3398 5.2461-5.2461 5.2461-2.8867 0-5.2461-2.3516-5.2461-5.2461l-0.003906-15.984h-13.656v8.4062c0 2.8984-2.3633 5.2461-5.2461 5.2461-2.8867 0-5.2461-2.3516-5.2461-5.2461l-0.003906-8.4062h-13.676v15.984c0 2.8984-2.3398 5.2461-5.2461 5.2461-2.8867 0-5.2461-2.3516-5.2461-5.2461l-0.003907-15.984h-13.656v8.4062c0 2.8984-2.3633 5.2461-5.2461 5.2461-2.8867 0-5.2461-2.3516-5.2461-5.2461l-0.003906-8.4062h-10.781c-2.9062 0-5.2461-2.3516-5.2461-5.2461 0-2.8867 2.3398-5.2461 5.2461-5.2461h10.781v-8.4062c0-2.8984 2.3633-5.2461 5.2461-5.2461 2.8867 0 5.2461 2.3516 5.2461 5.2461l0.003906 8.4023h13.656v-15.977c0-2.9062 2.3633-5.2461 5.2461-5.2461 2.9062 0 5.2461 2.3398 5.2461 5.2461l0.003906 15.977h13.676v-8.4062c0-2.8984 2.3633-5.2461 5.2461-5.2461 2.8867 0 5.2461 2.3516 5.2461 5.2461l0.003906 8.4062h13.676v-15.977c0-2.9062 2.3398-5.2461 5.2461-5.2461 2.8867 0 5.2461 2.3398 5.2461 5.2461l0.003906 15.977h13.656v-8.4062c0-2.8984 2.3398-5.2461 5.2461-5.2461 2.8867 0 5.2461 2.3516 5.2461 5.2461l0.003907 8.4062h18.609c-2.7617-117.34-97.551-212.11-214.88-214.91v18.629h8.4062c2.8867 0 5.2461 2.3516 5.2461 5.2461 0 2.8867-2.3633 5.2461-5.2461 5.2461l-8.4062 0.007812v13.664h15.977c2.9062 0 5.2461 2.3633 5.2461 5.2461 0 2.8984-2.3398 5.2461-5.2461 5.2461l-15.977 0.003906v13.664h8.4062c2.8867 0 5.2461 2.3516 5.2461 5.2461 0 2.8984-2.3633 5.2461-5.2461 5.2461l-8.4062 0.003907v13.664h15.977c2.9062 0 5.2461 2.3516 5.2461 5.2461 0 2.8867-2.3398 5.2461-5.2461 5.2461l-15.977 0.007812v13.656h8.4062c2.8867 0 5.2461 2.3633 5.2461 5.2461 0 2.8984-2.3633 5.2461-5.2461 5.2461l-8.4062 0.003906v10.781c0 2.9062-2.3516 5.2461-5.2461 5.2461-2.8984 0-5.2461-2.3398-5.2461-5.2461v-10.781h-8.4062c-2.8984 0-5.2461-2.3516-5.2461-5.2461 0-2.8867 2.3516-5.2461 5.2461-5.2461l8.4023-0.003907v-13.656h-15.996c-2.8984 0-5.2461-2.3633-5.2461-5.2461 0-2.8984 2.3516-5.2461 5.2461-5.2461l15.996-0.003906v-13.676h-8.4062c-2.8984 0-5.2461-2.3516-5.2461-5.2461 0-2.8984 2.3516-5.2461 5.2461-5.2461l8.4062-0.003907v-13.645h-15.996c-2.8984 0-5.2461-2.3516-5.2461-5.2461 0-2.8867 2.3516-5.2461 5.2461-5.2461l15.996-0.003906v-13.668h-8.4062c-2.8984 0-5.2461-2.3633-5.2461-5.2461 0-2.8984 2.3516-5.2461 5.2461-5.2461l8.4062-0.003906v-18.641c-117.34 2.793-212.12 97.562-214.91 214.91h18.621v-8.4062c0-2.8984 2.3516-5.2461 5.2461-5.2461 2.8984 0 5.2461 2.3516 5.2461 5.2461l0.003907 8.4062h13.664v-15.977c0-2.9062 2.3516-5.2461 5.2461-5.2461 2.8984 0 5.2461 2.3398 5.2461 5.2461l0.003906 15.977h13.664v-8.4062c0-2.8984 2.3516-5.2461 5.2461-5.2461 2.8984 0 5.2461 2.3516 5.2461 5.2461l0.007812 8.4062h13.656v-15.977c0-2.9062 2.3516-5.2461 5.2461-5.2461 2.8984 0 5.2461 2.3398 5.2461 5.2461v15.977h13.664v-8.4062c0-2.8984 2.3516-5.2461 5.2461-5.2461 2.8984 0 5.2461 2.3516 5.2461 5.2461l0.007812 8.4062h10.781c2.8984 0 5.2461 2.3633 5.2461 5.2461 0 2.8984-2.3516 5.2461-5.2461 5.2461h-10.781v8.4062c0 2.8984-2.3516 5.2461-5.2461 5.2461-2.8984 0-5.2461-2.3516-5.2461-5.2461l-0.003907-8.4023h-13.664v15.984c0 2.8984-2.3516 5.2461-5.2461 5.2461-2.8984 0-5.2461-2.3516-5.2461-5.2461l-0.007812-15.984h-13.656v8.4062c0 2.8984-2.3516 5.2461-5.2461 5.2461-2.8984 0-5.2461-2.3516-5.2461-5.2461v-8.4062h-13.668v15.984c0 2.8984-2.3516 5.2461-5.2461 5.2461-2.8984 0-5.2461-2.3516-5.2461-5.2461l-0.003906-15.984h-13.652v8.4062c0 2.8984-2.3516 5.2461-5.2461 5.2461-2.8984 0-5.2461-2.3516-5.2461-5.2461l-0.003907-8.4062h-18.633c2.7812 117.35 97.57 212.12 214.91 214.91v-18.629h-8.4062c-2.8984 0-5.2461-2.3516-5.2461-5.2461 0-2.8984 2.3516-5.2461 5.2461-5.2461l8.4062-0.003906v-13.664h-15.996c-2.8984 0-5.2461-2.3516-5.2461-5.2461 0-2.8867 2.3516-5.2461 5.2461-5.2461l15.996-0.007813v-13.656h-8.4062c-2.8984 0-5.2461-2.3633-5.2461-5.2461 0-2.9062 2.3516-5.2461 5.2461-5.2461h8.4062v-13.664h-15.996c-2.8984 0-5.2461-2.3516-5.2461-5.2461 0-2.8984 2.3516-5.2461 5.2461-5.2461l15.996-0.007813v-13.664h-8.4062c-2.8984 0-5.2461-2.3633-5.2461-5.2461 0-2.8984 2.3516-5.2461 5.2461-5.2461l8.4062-0.003906v-10.789c0-2.8984 2.3516-5.2461 5.2461-5.2461 2.8984 0 5.2461 2.3516 5.2461 5.2461v10.789h8.4062c2.8867 0 5.2461 2.3516 5.2461 5.2461 0 2.8867-2.3633 5.2461-5.2461 5.2461l-8.4023 0.003907v13.664h15.977c2.9062 0 5.2461 2.3516 5.2461 5.2461 0 2.8984-2.3398 5.2461-5.2461 5.2461l-15.977 0.003906v13.664h8.4062c2.8867 0 5.2461 2.3398 5.2461 5.2461 0 2.8867-2.3633 5.2461-5.2461 5.2461l-8.4062 0.007813v13.656h15.977c2.9062 0 5.2461 2.3633 5.2461 5.2461 0 2.8984-2.3398 5.2461-5.2461 5.2461h-15.977v13.668h8.4062c2.8867 0 5.2461 2.3516 5.2461 5.2461 0 2.8984-2.3633 5.2461-5.2461 5.2461l-8.4062 0.003907v18.621c117.32-2.7734 212.11-97.551 214.91-214.9h-18.629v8.4062zm-160.67-8.4062h-11.156c-2.1953 12.469-11.996 22.25-24.445 24.445v11.156c0 2.8867-2.3516 5.2461-5.2461 5.2461-2.8984 0-5.2461-2.3633-5.2461-5.2461v-11.156c-12.457-2.1953-22.25-12.008-24.445-24.445h-11.156c-2.8984 0-5.2461-2.3516-5.2461-5.2461 0-2.8867 2.3516-5.2461 5.2461-5.2461h11.156c2.1953-12.457 11.996-22.25 24.445-24.445v-11.156c0-2.8984 2.3516-5.2461 5.2461-5.2461 2.8984 0 5.2461 2.3516 5.2461 5.2461v11.156c12.449 2.1953 22.25 12.008 24.445 24.445h11.156c2.9062 0 5.2461 2.3633 5.2461 5.2461 0 2.8945-2.3398 5.2461-5.2461 5.2461z"/>
  <path d="m419.73 400c0 10.898-8.832 19.73-19.73 19.73s-19.734-8.832-19.734-19.73 8.8359-19.734 19.734-19.734 19.73 8.8359 19.73 19.734"/>
 </g>
</svg>