<?xml version="1.0" encoding="UTF-8"?>
<!-- The Best Svg Icon site in the world: iconSvg.co, Visit us! https://iconsvg.co -->
<svg fill="#000000" width="800px" height="800px" version="1.1" viewBox="144 144 512 512" xmlns="http://www.w3.org/2000/svg">
 <g>
  <path d="m634.8 377.33c-2.4883-2.5117-5.8789-3.9219-9.4141-3.9219-3.5352 0-6.9219 1.4102-9.4141 3.9219l-17.102 17.234v-219.95c0-3.5156-1.3984-6.8867-3.8828-9.375-2.4883-2.4844-5.8594-3.8828-9.375-3.8828h-92.809c-7.3203 0-13.258 5.9375-13.258 13.258v339.28l-26.516 26.516v-259.73c0-3.5156-1.3984-6.8906-3.8828-9.375-2.4883-2.4883-5.8594-3.8828-9.375-3.8828h-92.809c-7.3203 0-13.258 5.9336-13.258 13.258v178.72c-5.0352-3.0859-11.539-2.2617-15.645 1.9883l-10.871 10.871v-85.512c0-3.5195-1.3984-6.8906-3.8828-9.375-2.4883-2.4883-5.8594-3.8867-9.375-3.8867h-92.809c-7.3203 0-13.258 5.9375-13.258 13.262v204.84l-22.672 22.672c-5.1406 5.1719-5.1406 13.523 0 18.695 2.5039 2.4805 5.8906 3.8633 9.4141 3.8438 3.5234 0.019532 6.9102-1.3633 9.4141-3.8438l143.45-143.45 97.578 97.578c5.1719 5.1406 13.523 5.1406 18.695 0l58.469-58.336 132.58-132.58c2.5078-2.4883 3.9219-5.875 3.9219-9.4102 0-3.5352-1.4141-6.9258-3.9219-9.4141zm-420.42 22.672h66.289v98.773l-66.289 66.289zm291.68-212.13h66.289l0.003907 233.21-66.289 66.289zm-145.84 296.98v-190.92h66.289l0.003906 257.21z"/>
  <path d="m254.16 307.19h-33.148c-7.3203 0-13.258 5.9375-13.258 13.258 0 7.3242 5.9375 13.258 13.258 13.258h13.262c0 7.3242 5.9336 13.258 13.258 13.258 7.3203 0 13.258-5.9336 13.258-13.258 11.84-1.1836 22.152-8.5938 27.047-19.441 4.8945-10.848 3.6328-23.484-3.3164-33.145-6.9453-9.6641-18.52-14.887-30.359-13.703h-13.258c-3.6641 0-6.6289-2.9688-6.6289-6.6289 0-3.6641 2.9648-6.6289 6.6289-6.6289h33.145c7.3203 0 13.258-5.9375 13.258-13.258 0-7.3242-5.9375-13.258-13.258-13.258h-13.258c0-7.3242-5.9375-13.262-13.258-13.262-7.3242 0-13.258 5.9375-13.258 13.262-11.844 1.1836-22.152 8.5938-27.051 19.441-4.8945 10.848-3.6289 23.48 3.3164 33.145 6.9453 9.6641 18.52 14.887 30.363 13.703h13.258c3.6602 0 6.6289 2.9688 6.6289 6.6289s-2.9688 6.6289-6.6289 6.6289z"/>
 </g>
</svg>