<?xml version="1.0" encoding="UTF-8"?>
<!-- The Best Svg Icon site in the world: iconSvg.co, Visit us! https://iconsvg.co -->
<svg fill="#000000" width="800px" height="800px" version="1.1" viewBox="144 144 512 512" xmlns="http://www.w3.org/2000/svg">
 <g>
  <path d="m257.12 462.98-12.121 72.656 11.254 37.551h4.0938l11.258-37.551-12.121-72.656z"/>
  <path d="m218.94 431.49c-1.7305 0-3.3867 0.31641-5.0391 0.47266l20.859 69.512 7.4766-45.105-12.434-24.879z"/>
  <path d="m302.7 431.96c-1.6523-0.15625-3.3047-0.47266-5.0391-0.47266l-10.863 0.003906-12.438 24.875 7.4766 45.105z"/>
  <path d="m321.28 518.08v102.34h60.301l-40.855-136.11c-11.992 7.0312-19.383 19.871-19.445 33.77z"/>
  <path d="m336.79 468.48c-0.78516-13.012-7.9805-24.781-19.207-31.41l-40.855 136.11h28.812v-55.105c0.023438-10.367 2.9688-20.52 8.4961-29.289 5.5273-8.7695 13.414-15.809 22.754-20.305z"/>
  <path d="m402.99 494.46 7.875-15.742h-21.727l7.8711 15.742z"/>
  <path d="m179.58 470.85v102.34h60.301l-40.855-136.11c-11.992 7.0352-19.383 19.871-19.445 33.773z"/>
  <path d="m544.69 447.23 7.8711-15.742h-21.727l7.8711 15.742z"/>
  <path d="m261.29 447.23 7.8711-15.742h-21.727l7.875 15.742z"/>
  <path d="m463.21 468.48c9.3438 4.4961 17.227 11.535 22.754 20.305 5.5273 8.7695 8.4727 18.922 8.4961 29.289v55.105h28.812l-40.855-136.11c-11.223 6.6289-18.422 18.398-19.207 31.41z"/>
  <path d="m540.52 462.98-12.125 72.656 11.258 37.551h4.0938l11.258-37.551-12.125-72.656z"/>
  <path d="m586.09 431.96c-1.6523-0.15625-3.3047-0.47266-5.0391-0.47266l-10.863 0.003906-12.438 24.875 7.4766 45.105z"/>
  <path d="m600.97 437.07-40.855 136.11h60.297v-102.34c-0.0625-13.902-7.4531-26.738-19.441-33.773z"/>
  <path d="m502.34 431.49c-1.7305 0-3.3867 0.31641-5.0391 0.47266l20.859 69.512 7.4766-45.105-12.434-24.879z"/>
  <path d="m459.27 484.31-40.855 136.11h60.301v-102.34c-0.0625-13.898-7.4531-26.738-19.445-33.77z"/>
  <path d="m360.64 478.72c-1.7305 0-3.3867 0.31641-5.0391 0.47266l20.859 69.512 7.4766-45.105-12.434-24.879z"/>
  <path d="m398.82 510.21-12.121 72.66 11.258 37.547h4.0938l11.254-37.547-12.121-72.66z"/>
  <path d="m444.4 479.19c-1.6523-0.15625-3.3047-0.47266-5.0391-0.47266h-10.863l-12.438 24.875 7.4766 45.105z"/>
  <path d="m400 305.54c16.699 0 32.719-6.6367 44.531-18.445 11.809-11.812 18.445-27.828 18.445-44.531s-6.6367-32.723-18.445-44.531c-11.812-11.809-27.832-18.445-44.531-18.445-16.703 0-32.723 6.6367-44.531 18.445-11.812 11.809-18.445 27.828-18.445 44.531 0.019531 16.695 6.6602 32.703 18.465 44.508 11.805 11.809 27.812 18.449 44.512 18.469zm7.8711-55.105h-15.746c-8.4375 0-16.23-4.5-20.449-11.809-4.2188-7.3047-4.2188-16.309 0-23.613 4.2188-7.3086 12.012-11.809 20.449-11.809v-7.875c0-4.3477 3.5273-7.8711 7.875-7.8711s7.8711 3.5234 7.8711 7.8711v7.875c6.2617 0 12.27 2.4883 16.699 6.9141 4.4297 4.4297 6.918 10.438 6.918 16.699 0 4.3477-3.5273 7.875-7.875 7.875-4.3477 0-7.8711-3.5273-7.8711-7.875 0-2.0859-0.82813-4.0898-2.3047-5.5664-1.4766-1.4766-3.4805-2.3047-5.5664-2.3047h-15.746c-4.3477 0-7.8711 3.5234-7.8711 7.8711s3.5234 7.875 7.8711 7.875h15.746c8.4375 0 16.234 4.5 20.453 11.805 4.2188 7.3086 4.2188 16.312 0 23.617-4.2188 7.3086-12.016 11.809-20.453 11.809v7.8711c0 4.3477-3.5234 7.875-7.8711 7.875s-7.875-3.5273-7.875-7.875v-7.8711c-6.2617 0-12.27-2.4883-16.699-6.918-4.4258-4.4258-6.9141-10.434-6.9141-16.699 0-4.3477 3.5234-7.8711 7.8711-7.8711 4.3477 0 7.8711 3.5234 7.8711 7.8711 0 2.0898 0.82812 4.0898 2.3047 5.5664 1.4766 1.4766 3.4805 2.3086 5.5664 2.3086h15.746c4.3477 0 7.8711-3.5273 7.8711-7.875 0-4.3477-3.5234-7.8711-7.8711-7.8711z"/>
  <path d="m289.79 368.51c0 17.391-14.098 31.488-31.488 31.488s-31.488-14.098-31.488-31.488 14.098-31.488 31.488-31.488 31.488 14.098 31.488 31.488"/>
  <path d="m573.18 368.51c0 17.391-14.098 31.488-31.488 31.488-17.391 0-31.488-14.098-31.488-31.488s14.098-31.488 31.488-31.488c17.391 0 31.488 14.098 31.488 31.488"/>
  <path d="m431.49 415.74c0 17.391-14.098 31.488-31.488 31.488s-31.488-14.098-31.488-31.488c0-17.391 14.098-31.488 31.488-31.488s31.488 14.098 31.488 31.488"/>
  <path d="m392.12 321.28h15.742v47.23h-15.742z"/>
  <path d="m478.72 234.69v15.742h55.105v70.848h15.742v-78.719c0-2.0898-0.82812-4.0898-2.3047-5.5664-1.4766-1.4766-3.4805-2.3047-5.5664-2.3047z"/>
  <path d="m321.28 234.69v15.742h-55.102v70.848h-15.746v-78.719c0-4.3477 3.5234-7.8711 7.8711-7.8711z"/>
 </g>
</svg>