<?xml version="1.0" encoding="UTF-8"?>
<!-- The Best Svg Icon site in the world: iconSvg.co, Visit us! https://iconsvg.co -->
<svg fill="#000000" width="800px" height="800px" version="1.1" viewBox="144 144 512 512" xmlns="http://www.w3.org/2000/svg">
 <g>
  <path d="m609.77 478.71-0.027344 0.070313 4.3477 1.4531z"/>
  <path d="m618.38 481.75c0 0.046875-0.046875 0.089844-0.046875 0.13672l-4.2578-1.6484 4.2578 1.6953c-0.12891 0.36719-0.29688 0.72266-0.50391 1.0508-2.3281 5.582-6.6562 10.09-12.137 12.641l-163.23 93.023c-4.9023 2.7812-10.441 4.25-16.078 4.2578-3.6641 0.007813-7.3047-0.61328-10.762-1.832l-117.62-41.859c-3.9922-1.457-8.207-2.2031-12.457-2.1992h-10.809v-125.72h26.152c5.375-0.027344 10.746 0.32812 16.074 1.0508 8.8672 1.1797 17.574 3.3281 25.969 6.4141l55.191 20.152h63.57c7.25 0.019532 14.172 3.0156 19.145 8.2891 4.5586 4.7578 6.9336 11.195 6.5508 17.77-0.19141 2.4766-0.73047 4.9141-1.6016 7.2383l99.434-31.145c5.8906-2.6523 12.59-2.875 18.645-0.62109 6.0508 2.2578 10.973 6.8086 13.691 12.672 2.7148 5.8594 3.0117 12.559 0.82422 18.637z"/>
  <path d="m462.88 497.95h-69.203c-2.5312 0-4.582-2.0508-4.582-4.582 0-2.5273 2.0508-4.5781 4.582-4.5781h69.203c0.85547 0 1.707-0.070313 2.5469-0.21094l0.089843-0.027343 4.0312-1.2852v-0.003906c2.3125-0.75 4.8086 0.42969 5.6875 2.6953 0.88281 2.2656-0.16016 4.8242-2.3711 5.832-3.1289 1.4375-6.5391 2.1758-9.9844 2.1602z"/>
  <path d="m265.57 403.75v158.93c-0.007813 4.8906-1.957 9.582-5.418 13.043-3.457 3.457-8.1484 5.4062-13.043 5.4141h-48.547c-4.8867-0.011719-9.5703-1.9609-13.023-5.4219s-5.3906-8.1484-5.3867-13.035v-158.93c0-4.8828 1.9375-9.5664 5.3906-13.02s8.1367-5.3906 13.02-5.3906h48.551-0.003907c4.8906-0.003906 9.5781 1.9336 13.039 5.3867 3.4609 3.4531 5.4102 8.1367 5.4219 13.023z"/>
  <path d="m495.68 249.09c-1.7227 5.543-3.7852 10.973-6.1836 16.258-2.7969 6.2227-6.2695 12.121-10.352 17.586-0.93359 1.2422-2.4375 1.9141-3.9844 1.7891-0.59375-0.046875-1.2383-0.089844-1.832-0.089844l-69.25-0.003906c-0.75 0-1.5 0.046875-2.2422 0.13672-0.24219 0.042969-0.48828 0.058593-0.73438 0.046875-1.4648-0.003906-2.8398-0.70312-3.7109-1.8789-7.0234-10.402-12.34-21.859-15.754-33.938-1.1758-3.8789-0.24219-8.0938 2.4609-11.117 2.7031-3.0195 6.7891-4.4141 10.773-3.6758 6.5859 1.25 13.02 3.1992 19.191 5.8164 0.71484 0.32031 1.5312 0.32031 2.2461 0 0.61328-0.33203 1.0742-0.89062 1.2812-1.5586 2.6914-8.875 6.3789-17.418 10.992-25.465 2.0625-3.6484 5.9297-5.9062 10.121-5.9062 4.1953 0 8.0625 2.2578 10.121 5.9062 4.5977 8.0508 8.2695 16.594 10.949 25.465 0.20703 0.68359 0.6875 1.2461 1.3281 1.5586 0.71484 0.30859 1.5273 0.30859 2.2422 0 6.125-2.6211 12.512-4.5703 19.055-5.8164 4.0117-0.75391 8.125 0.64844 10.84 3.6953 2.7188 3.043 3.6445 7.2891 2.4414 11.191z"/>
  <path d="m478.68 316.18h-80.609c-0.30078 0-0.62891 0-0.94531-0.046875h0.003906c-5.1992-0.23828-10.105-2.4727-13.703-6.2344-3.5938-3.7617-5.6055-8.7656-5.6094-13.969 0.023438-4.8828 1.8047-9.5977 5.0117-13.281 3.2109-3.6797 7.6367-6.0859 12.473-6.7773 0.91016-0.13281 1.8281-0.19922 2.7461-0.19531h80.609c0.60156 0 1.2305 0.042968 1.832 0.082031 5.0352 0.44922 9.7227 2.7656 13.133 6.4961 3.4102 3.7305 5.3008 8.6055 5.293 13.66 0.019531 5.2031-1.9805 10.215-5.5781 13.98-3.5977 3.7656-8.5117 5.9922-13.711 6.2148-0.3125 0.039063-0.62891 0.0625-0.94531 0.070313zm-80.609-31.34v-0.003906c-0.48047-0.003906-0.96094 0.027344-1.4375 0.097656-5.5039 0.75391-9.6172 5.4375-9.6562 10.992-0.011719 2.9258 1.1562 5.7305 3.2344 7.7852 1.9492 2.0039 4.6016 3.168 7.3945 3.2422 0.25 0.007813 0.5 0.039063 0.75 0.089844l80.324-0.023437c5.8984-0.011719 10.758-4.6367 11.059-10.531 0.30078-5.8906-4.0625-10.984-9.9297-11.598-0.32422 0-0.73828-0.054687-1.125-0.054687z"/>
  <path d="m567.77 442.73c-3.4336-54.41-42.871-112.62-91.738-135.34-0.82812-0.44141-1.7852-0.57031-2.7031-0.36719h-69.297c-0.91406-0.17969-1.8633-0.050782-2.6992 0.36719-39.25 18.273-73.281 60.41-86.289 105.48l3.207 0.41406-0.003906-0.003906c9.5078 1.2617 18.848 3.5664 27.848 6.8711l53.633 19.602h61.969c9.7812 0.015625 19.125 4.0586 25.832 11.176 4.7852 5.0469 7.8594 11.473 8.793 18.367l71.586-22.398c0.003906-1.375-0.042969-2.793-0.13672-4.168zm-107.28-30.328c-1.8047 2.6367-4.2891 4.7383-7.1914 6.0703-3.3828 1.582-7.043 2.4688-10.773 2.6172v6.2969c0.023438 0.71094-0.24609 1.3984-0.75 1.9023-1.1055 0.98828-2.7734 1.0078-3.9023 0.050782-0.51563-0.51562-0.78906-1.2266-0.75-1.9531v-6.2969c-6.1641-0.36328-12.223-1.7695-17.914-4.168-0.72266-0.30469-1.3398-0.8125-1.7773-1.4609-1.0469-1.4688-0.91797-3.4688 0.3125-4.7891 0.66406-0.73438 1.6211-1.1406 2.6094-1.1094 0.58203-0.003906 1.1602 0.11719 1.6914 0.35547 4.7578 2.1172 9.8711 3.3203 15.078 3.5469v-20.402c-3.4727-0.87109-6.8711-2.0273-10.156-3.4531-2.6797-1.1836-5.0352-2.9961-6.8711-5.2812-1.8984-2.4727-2.8672-5.5312-2.7461-8.6445-0.023438-2.9883 0.75781-5.9297 2.2617-8.5117 1.6289-2.7188 3.9531-4.9531 6.7383-6.4688 3.3203-1.8164 7-2.8789 10.777-3.1055v-6.2109c-0.015625-0.72266 0.25391-1.4219 0.75-1.9492 0.49219-0.52734 1.1875-0.81641 1.9102-0.79688 0.73047-0.007813 1.4375 0.27734 1.9531 0.79688 0.51953 0.51562 0.80469 1.2227 0.79297 1.9531v6.1172c5.2695 0.13672 10.484 1.125 15.438 2.9297 1.5586 0.45312 2.5898 1.9297 2.4805 3.5469 0 0.94531-0.34375 1.8594-0.96875 2.5703-0.63672 0.76172-1.5859 1.1875-2.5781 1.1523-0.49219-0.03125-0.96875-0.15234-1.418-0.35547-4.1719-1.4414-8.5391-2.25-12.953-2.3906v21.105c3.6211 0.80078 7.1641 1.8984 10.605 3.2773 2.7539 1.1445 5.1758 2.957 7.0469 5.2773 1.9961 2.6641 3 5.9414 2.8359 9.2656 0.027344 3.0273-0.85547 5.9961-2.5312 8.5156z"/>
  <path d="m425.41 375.07c-0.10938 2.3828 1.0117 4.6602 2.9727 6.0273 2.6719 1.7188 5.6289 2.9531 8.7344 3.6328v-19.504c-3.082 0.29297-6.0234 1.4102-8.5195 3.2344-2.0664 1.5586-3.25 4.0195-3.1875 6.6094z"/>
  <path d="m451.88 397.99c-2.9492-1.6055-6.0977-2.8125-9.3633-3.5898v19.066c8.3398-0.59375 12.508-3.9609 12.508-10.109 0.042968-2.2383-1.1719-4.3125-3.1445-5.3672z"/>
 </g>
</svg>