<?xml version="1.0" encoding="UTF-8"?>
<!-- The Best Svg Icon site in the world: iconSvg.co, Visit us! https://iconsvg.co -->
<svg fill="#000000" width="800px" height="800px" version="1.1" viewBox="144 144 512 512" xmlns="http://www.w3.org/2000/svg">
 <g>
  <path d="m211.07 266.18v228.29h377.86v-228.29c0-2.0898-0.82812-4.0898-2.3047-5.5664-1.4766-1.4766-3.4766-2.3086-5.5664-2.3086h-78.719v15.742h62.977v0.003906c2.0859 0 4.0898 0.82812 5.5664 2.3047 1.4766 1.4766 2.3047 3.4805 2.3047 5.5664v188.93c0 2.0859-0.82812 4.0898-2.3047 5.5664-1.4766 1.4766-3.4805 2.3047-5.5664 2.3047h-330.62c-4.3477 0-7.875-3.5234-7.875-7.8711v-188.93c0-4.3477 3.5273-7.8711 7.875-7.8711h62.977v-15.746h-78.723c-4.3477 0-7.8711 3.5273-7.8711 7.875z"/>
  <path d="m297.66 313.41v-23.617h-55.105v173.19h314.88v-173.19h-55.102v23.617c0 2.0859-0.83203 4.0898-2.3086 5.5664-1.4727 1.4766-3.4766 2.3047-5.5664 2.3047h-66.91l-21.254 28.34c-1.4883 1.9844-3.8203 3.1484-6.2969 3.1484-2.4805 0-4.8125-1.1641-6.3008-3.1484l-21.254-28.34h-66.91c-4.3477 0-7.8711-3.5234-7.8711-7.8711zm173.18 31.488c0-4.3477 3.5234-7.8711 7.8711-7.8711h31.488c2.0859 0 4.0898 0.82812 5.5664 2.3047 1.4766 1.4766 2.3047 3.4766 2.3047 5.5664v94.465c0 2.0859-0.82812 4.0898-2.3047 5.5664-1.4766 1.4766-3.4805 2.3047-5.5664 2.3047h-31.488c-4.3477 0-7.8711-3.5234-7.8711-7.8711zm-62.977 15.742c0-4.3477 3.5234-7.8711 7.8711-7.8711h31.488c2.0898 0 4.0898 0.83203 5.5664 2.3047 1.4766 1.4766 2.3047 3.4805 2.3047 5.5664v78.723c0 2.0859-0.82812 4.0898-2.3047 5.5664-1.4766 1.4766-3.4766 2.3047-5.5664 2.3047h-31.488c-4.3477 0-7.8711-3.5234-7.8711-7.8711zm-62.977 31.488c0-4.3477 3.5234-7.8711 7.8711-7.8711h31.488c2.0898 0 4.0898 0.82812 5.5664 2.3047 1.4766 1.4766 2.3047 3.4805 2.3047 5.5664v47.234c0 2.0859-0.82812 4.0898-2.3047 5.5664-1.4766 1.4766-3.4766 2.3047-5.5664 2.3047h-31.488c-4.3477 0-7.8711-3.5234-7.8711-7.8711zm-15.742 15.742v31.488l-0.003906 0.003906c0 2.0859-0.82813 4.0898-2.3047 5.5664-1.4766 1.4766-3.4766 2.3047-5.5664 2.3047h-31.488c-4.3477 0-7.8711-3.5234-7.8711-7.8711v-31.488c0-4.3477 3.5234-7.8711 7.8711-7.8711h31.488c2.0898 0 4.0898 0.82812 5.5664 2.3047 1.4766 1.4766 2.3047 3.4766 2.3047 5.5664z"/>
  <path d="m382.68 308.68 17.32 23.066 17.32-23.066h-0.003906c1.5-1.9688 3.8242-3.1328 6.2969-3.1484h62.977v-125.95h-173.18v125.95h62.977c2.4727 0.015625 4.8008 1.1797 6.2969 3.1484zm-14.168-50.383c0-4.3477 3.5234-7.8711 7.8711-7.8711 4.3477 0 7.8711 3.5234 7.8711 7.8711 0 2.0898 0.82812 4.0898 2.3047 5.5664 1.4766 1.4766 3.4805 2.3086 5.5664 2.3086h15.746c4.3477 0 7.8711-3.5273 7.8711-7.875 0-4.3477-3.5234-7.8711-7.8711-7.8711h-15.746c-8.4375 0-16.23-4.5-20.449-11.809-4.2188-7.3047-4.2188-16.309 0-23.613 4.2188-7.3086 12.012-11.809 20.449-11.809v-7.875c0-4.3477 3.5273-7.8711 7.875-7.8711s7.8711 3.5234 7.8711 7.8711v7.875c6.2617 0 12.27 2.4883 16.699 6.9141 4.4297 4.4297 6.918 10.438 6.918 16.699 0 4.3477-3.5273 7.875-7.875 7.875-4.3477 0-7.8711-3.5273-7.8711-7.875 0-2.0859-0.82813-4.0898-2.3047-5.5664-1.4766-1.4766-3.4805-2.3047-5.5664-2.3047h-15.746c-4.3477 0-7.8711 3.5234-7.8711 7.8711s3.5234 7.875 7.8711 7.875h15.746c8.4375 0 16.234 4.5 20.453 11.805 4.2188 7.3086 4.2188 16.312 0 23.617-4.2188 7.3086-12.016 11.809-20.453 11.809v7.8711c0 4.3477-3.5234 7.875-7.8711 7.875s-7.875-3.5273-7.875-7.875v-7.8711c-6.2617 0-12.27-2.4883-16.699-6.918-4.4258-4.4258-6.9141-10.434-6.9141-16.699z"/>
  <path d="m297.66 415.74h15.742v15.742h-15.742z"/>
  <path d="m360.64 400h15.742v31.488h-15.742z"/>
  <path d="m486.59 352.77h15.742v78.719h-15.742z"/>
  <path d="m423.61 368.51h15.742v62.977h-15.742z"/>
  <path d="m179.58 612.54c0 2.0898 0.82812 4.0898 2.3047 5.5664 1.4766 1.4766 3.4805 2.3047 5.5664 2.3047h425.09c2.0898 0 4.0898-0.82812 5.5664-2.3047s2.3047-3.4766 2.3047-5.5664v-7.8711h-440.83z"/>
  <path d="m354.97 588.93h90.059l-3.9375-15.742h-82.184z"/>
  <path d="m338.75 588.93 6.375-25.504c0.87109-3.5117 4.0195-5.9805 7.6367-5.9844h94.465c3.6172 0.003906 6.7695 2.4727 7.6367 5.9844l6.375 25.504h156.1l-26.211-78.719h-382.27l-26.215 78.719zm226.56-62.977h15.742v15.742l-15.742 0.003906zm0 31.488h15.742v15.742l-15.742 0.003906zm-31.488-31.488h15.742v15.742l-15.742 0.003906zm0 31.488h15.742v15.742l-15.742 0.003906zm-31.488-31.488h15.742v15.742l-15.742 0.003906zm-31.488 0h15.742v15.742l-15.742 0.003906zm0 31.488h47.23v15.742l-47.23 0.003906zm-31.488-31.488h15.742v15.742l-15.742 0.003906zm-31.488 0h15.742v15.742l-15.742 0.003906zm-31.488 0h15.742v15.742l-15.742 0.003906zm-31.488 0h15.742v15.742l-15.742 0.003906zm-31.488 0h15.742v15.742l-15.742 0.003906zm-31.488 0h15.742v15.742l-15.742 0.003906zm0 31.488h47.23v15.742l-47.23 0.003906zm-31.488-31.488h15.742v15.742l-15.742 0.003906zm0 31.488h15.742v15.742l-15.742 0.003906zm-31.488-31.488h15.742v15.742l-15.742 0.003906zm0 31.488h15.742v15.742l-15.742 0.003906z"/>
 </g>
</svg>