<?xml version="1.0" encoding="UTF-8"?>
<!-- The Best Svg Icon site in the world: iconSvg.co, Visit us! https://iconsvg.co -->
<svg fill="#000000" width="800px" height="800px" version="1.1" viewBox="144 144 512 512" xmlns="http://www.w3.org/2000/svg">
 <g>
  <path d="m614.51 585.88h-34.145v-203.88c0-2.2656-1.8359-4.1055-4.1055-4.1133h-103.61v-36.93c0-71.645-137.99-132.21-143.86-134.75-1.2695-0.55859-2.7344-0.43359-3.8867 0.33594-1.1602 0.75781-1.8594 2.0508-1.8594 3.4336v96.887h-99.387c-2.2656 0.003907-4.1016 1.8438-4.1016 4.1133v274.9h-34.078c-2.2695 0-4.1133 1.8438-4.1133 4.1133 0 2.2734 1.8438 4.1133 4.1133 4.1133h429.03c2.2695 0 4.1133-1.8398 4.1133-4.1133 0-2.2695-1.8438-4.1133-4.1133-4.1133zm-42.312-199.75v199.75h-25.172v-46.934c0-2.2695-1.8359-4.1094-4.1016-4.1133h-41.016c-2.2695 0-4.1133 1.8398-4.1133 4.1133v46.938l-25.141-0.003906v-199.75zm-33.359 199.75h-32.824v-42.82h32.797zm-207.57-369.47c26.234 12.32 133.18 66.145 133.18 124.55v244.92h-133.18zm-103.47 98.707h95.254v270.77h-22.996v-35.02c0-2.2695-1.8438-4.1133-4.1133-4.1133h-41.004c-2.2734 0-4.1133 1.8438-4.1133 4.1133v35.02h-23.027zm64.039 270.77h-32.797v-30.906h32.797z"/>
  <path d="m501.91 424.67h41.016c2.1914-0.10938 3.9102-1.9141 3.9102-4.1094 0-2.1914-1.7188-4-3.9102-4.1094h-41.016c-1.1211-0.054688-2.2227 0.35547-3.0352 1.1328-0.81641 0.77344-1.2773 1.8516-1.2773 2.9766s0.46094 2.2031 1.2773 2.9805c0.8125 0.77344 1.9141 1.1836 3.0352 1.1289z"/>
  <path d="m501.91 452.83h41.016c2.2695 0 4.1133-1.8398 4.1133-4.1133 0-2.2695-1.8438-4.1133-4.1133-4.1133h-41.016c-2.2695 0-4.1133 1.8438-4.1133 4.1133 0 2.2734 1.8438 4.1133 4.1133 4.1133z"/>
  <path d="m501.91 480.98h41.016c2.1914-0.10547 3.9102-1.9141 3.9102-4.1055 0-2.1953-1.7188-4.0039-3.9102-4.1094h-41.016c-1.1211-0.054687-2.2227 0.35156-3.0352 1.1289-0.81641 0.77734-1.2773 1.8516-1.2773 2.9805 0 1.125 0.46094 2.1992 1.2773 2.9766 0.8125 0.77734 1.9141 1.1836 3.0352 1.1289z"/>
  <path d="m501.91 509.14h41.016c2.2695 0 4.1133-1.8438 4.1133-4.1133 0-2.2734-1.8438-4.1133-4.1133-4.1133h-41.016c-2.2695 0-4.1133 1.8398-4.1133 4.1133 0 2.2695 1.8438 4.1133 4.1133 4.1133z"/>
  <path d="m356.39 345.1h43.613c2.2695 0 4.1133-1.8438 4.1133-4.1133v-37.945c0-2.2695-1.8438-4.1133-4.1133-4.1133h-43.613c-2.2695 0-4.1133 1.8438-4.1133 4.1133v37.914c-0.007813 1.0977 0.42187 2.1523 1.1953 2.9297 0.77344 0.77734 1.8242 1.2148 2.918 1.2148zm39.496-8.2148-13.598-0.003907v-29.727h13.578zm-35.426-29.727h13.578v29.727h-13.578z"/>
  <path d="m254.94 363.59c2.2656-0.003906 4.1016-1.8438 4.1016-4.1133v-18.52c-0.10547-2.1914-1.9141-3.9102-4.1055-3.9102-2.1953 0-4.0039 1.7188-4.1094 3.9102v18.453c-0.019531 1.1016 0.40625 2.1641 1.1797 2.9531 0.77344 0.78516 1.8281 1.2266 2.9336 1.2266z"/>
  <path d="m275.45 363.59c2.2656-0.003906 4.1016-1.8438 4.1016-4.1133v-18.52c-0.10547-2.1914-1.9141-3.9102-4.1094-3.9102-2.1914 0-4 1.7188-4.1055 3.9102v18.453c-0.019531 1.1016 0.40625 2.1641 1.1797 2.9531 0.77344 0.78516 1.8281 1.2266 2.9336 1.2266z"/>
  <path d="m295.94 363.59c2.2695 0 4.1133-1.8398 4.1133-4.1133v-18.52c-0.10938-2.1914-1.918-3.9102-4.1094-3.9102-2.1953 0-4 1.7188-4.1094 3.9102v18.453c-0.015626 1.0977 0.40625 2.1602 1.1758 2.9492 0.77344 0.78516 1.8281 1.2305 2.9297 1.2305z"/>
  <path d="m254.94 403.39c2.2656-0.007812 4.1016-1.8477 4.1016-4.1133v-18.449c0.054688-1.125-0.35156-2.2227-1.1289-3.0391-0.77734-0.81641-1.8516-1.2773-2.9766-1.2773-1.1289 0-2.2031 0.46094-2.9805 1.2773-0.77734 0.81641-1.1836 1.9141-1.1289 3.0391v18.449c0 2.2695 1.8398 4.1133 4.1133 4.1133z"/>
  <path d="m275.45 403.39c2.2656-0.007812 4.1016-1.8477 4.1016-4.1133v-18.449c0.054687-1.125-0.35156-2.2227-1.1289-3.0391-0.77734-0.81641-1.8555-1.2773-2.9805-1.2773s-2.2031 0.46094-2.9766 1.2773c-0.77734 0.81641-1.1875 1.9141-1.1289 3.0391v18.449c0 2.2695 1.8398 4.1133 4.1133 4.1133z"/>
  <path d="m295.94 403.39c2.2695 0 4.1133-1.8438 4.1133-4.1133v-18.449c0.054687-1.125-0.35547-2.2227-1.1328-3.0391-0.77344-0.81641-1.8516-1.2773-2.9766-1.2773s-2.2031 0.46094-2.9805 1.2773c-0.77344 0.81641-1.1836 1.9141-1.1289 3.0391v18.449c0 2.2656 1.8359 4.1055 4.1055 4.1133z"/>
  <path d="m254.94 443.23c2.2656-0.007812 4.1016-1.8477 4.1016-4.1133v-18.449c0.054688-1.125-0.35156-2.2227-1.1289-3.0391s-1.8516-1.2773-2.9766-1.2773c-1.1289 0-2.2031 0.46094-2.9805 1.2773s-1.1836 1.9141-1.1289 3.0391v18.449c0 2.2695 1.8398 4.1133 4.1133 4.1133z"/>
  <path d="m275.45 443.23c2.2656-0.007812 4.1016-1.8477 4.1016-4.1133v-18.449c0.054687-1.125-0.35156-2.2227-1.1289-3.0391-0.77734-0.81641-1.8555-1.2773-2.9805-1.2773s-2.2031 0.46094-2.9766 1.2773c-0.77734 0.81641-1.1875 1.9141-1.1289 3.0391v18.449c0 1.0898 0.42969 2.1367 1.2031 2.9062 0.76953 0.77344 1.8164 1.207 2.9102 1.207z"/>
  <path d="m295.94 443.23c2.2695 0 4.1133-1.8438 4.1133-4.1133v-18.449c0.054687-1.125-0.35547-2.2227-1.1328-3.0391-0.77344-0.81641-1.8516-1.2773-2.9766-1.2773s-2.2031 0.46094-2.9805 1.2773c-0.77344 0.81641-1.1836 1.9141-1.1289 3.0391v18.449c0 2.2656 1.8359 4.1055 4.1055 4.1133z"/>
  <path d="m254.94 483.06c2.2656-0.003906 4.1016-1.8477 4.1016-4.1133v-18.441c0.054688-1.125-0.35156-2.2227-1.1289-3.0352-0.77734-0.81641-1.8516-1.2773-2.9766-1.2773-1.1289 0-2.2031 0.46094-2.9805 1.2773-0.77734 0.8125-1.1836 1.9102-1.1289 3.0352v18.441c0 2.2695 1.8398 4.1133 4.1133 4.1133z"/>
  <path d="m275.45 483.06c2.2656-0.003906 4.1016-1.8477 4.1016-4.1133v-18.441c0.054687-1.125-0.35156-2.2227-1.1289-3.0352-0.77734-0.81641-1.8555-1.2773-2.9805-1.2773s-2.2031 0.46094-2.9766 1.2773c-0.77734 0.8125-1.1875 1.9102-1.1289 3.0352v18.441c0 1.0898 0.42969 2.1367 1.2031 2.9062 0.76953 0.77344 1.8164 1.207 2.9102 1.207z"/>
  <path d="m295.94 483.06c2.2695 0 4.1133-1.8438 4.1133-4.1133v-18.441c0.054687-1.125-0.35547-2.2227-1.1328-3.0352-0.77344-0.81641-1.8516-1.2773-2.9766-1.2773s-2.2031 0.46094-2.9805 1.2773c-0.77344 0.8125-1.1836 1.9102-1.1289 3.0352v18.441c0 2.2656 1.8359 4.1094 4.1055 4.1133z"/>
  <path d="m254.94 522.9c2.2656-0.007813 4.1016-1.8477 4.1016-4.1133v-18.422c0.054688-1.125-0.35156-2.2227-1.1289-3.0391-0.77734-0.8125-1.8516-1.2773-2.9766-1.2773-1.1289 0-2.2031 0.46484-2.9805 1.2773-0.77734 0.81641-1.1836 1.9141-1.1289 3.0391v18.449c0.015625 2.2617 1.8516 4.0859 4.1133 4.0859z"/>
  <path d="m275.45 522.9c2.2656-0.007813 4.1016-1.8477 4.1016-4.1133v-18.422c0.054687-1.125-0.35156-2.2227-1.1289-3.0391-0.77734-0.8125-1.8555-1.2773-2.9805-1.2773s-2.2031 0.46484-2.9766 1.2773c-0.77734 0.81641-1.1875 1.9141-1.1289 3.0391v18.449c0.015625 2.2617 1.8516 4.0859 4.1133 4.0859z"/>
  <path d="m295.94 522.9c2.2695 0 4.1133-1.8438 4.1133-4.1133v-18.422c0.054687-1.125-0.35547-2.2227-1.1328-3.0391-0.77344-0.8125-1.8516-1.2773-2.9766-1.2773s-2.2031 0.46484-2.9805 1.2773c-0.77344 0.81641-1.1836 1.9141-1.1289 3.0391v18.449c0.015624 2.2578 1.8477 4.0781 4.1055 4.0859z"/>
  <path d="m356.39 413.14h43.613c2.2695 0 4.1133-1.8438 4.1133-4.1133v-37.945c0-2.2695-1.8438-4.1133-4.1133-4.1133h-43.613c-2.2695 0-4.1133 1.8438-4.1133 4.1133v37.945c0 1.0898 0.43359 2.1367 1.207 2.9062 0.76953 0.77344 1.8164 1.207 2.9062 1.207zm39.5-8.2188h-13.602v-29.727h13.578zm-35.426-29.727h13.578v29.727h-13.578z"/>
  <path d="m356.39 481.17h43.613c2.2656 0 4.1055-1.8359 4.1133-4.1016v-37.953c0-2.2734-1.8438-4.1133-4.1133-4.1133h-43.613c-2.2695 0-4.1133 1.8398-4.1133 4.1133v37.953c0.007812 2.2656 1.8477 4.1016 4.1133 4.1016zm39.496-8.2148h-13.598v-29.727h13.578zm-35.426-29.727h13.578v29.727h-13.578z"/>
  <path d="m356.39 549.2h43.613c2.2656 0 4.1055-1.8359 4.1133-4.1055v-37.949c0-2.2734-1.8438-4.1133-4.1133-4.1133h-43.613c-2.2695 0-4.1133 1.8398-4.1133 4.1133v37.953-0.003906c0.007812 2.2695 1.8477 4.1055 4.1133 4.1055zm39.496-8.2148h-13.598v-29.73h13.578zm-35.426-29.727h13.578v29.727h-13.578z"/>
 </g>
</svg>