<?xml version="1.0" encoding="UTF-8"?>
<!-- The Best Svg Icon site in the world: iconSvg.co, Visit us! https://iconsvg.co -->
<svg fill="#000000" width="800px" height="800px" version="1.1" viewBox="144 144 512 512" xmlns="http://www.w3.org/2000/svg">
 <g>
  <path d="m467.3 287.92c8.8789 23.82 14.086 51.344 15.062 79.598 0.046875 1.3594 1.1602 2.4336 2.5195 2.4336h0.019532l50.266-0.45312c0.69141-0.003906 1.3438-0.29688 1.8203-0.79688 0.46875-0.50391 0.71484-1.1797 0.67578-1.8633-2.0039-35.238-15.355-68.113-38.617-95.074-0.80078-0.93359-2.1602-1.1523-3.2188-0.50391-8.2109 5.0078-17.324 9.5312-27.094 13.441-1.2773 0.50781-1.9062 1.9375-1.4336 3.2188z"/>
  <path d="m372.23 381.79c-0.48047-0.47266-1.0234-0.80469-1.793-0.73047l-84.227 0.75391c-0.67969 0.003906-1.3281 0.28906-1.7969 0.78125-0.47266 0.49219-0.72656 1.1523-0.69531 1.832 0.96875 26.191 5.7852 51.879 13.941 74.277 0.37109 1.0234 1.3359 1.6562 2.3672 1.6562 0.25781 0 0.52344-0.039063 0.78125-0.12109 21.562-7.0117 45.68-11.211 69.758-12.137 1.3555-0.050781 2.4219-1.1641 2.4219-2.5195v-62.008c-0.015625-0.66797-0.28125-1.3125-0.75781-1.7852z"/>
  <path d="m293.64 476.01c-0.55469-1.2383-2-1.8125-3.2461-1.3047-8.4297 3.4141-16.328 7.3008-23.484 11.551-0.67578 0.39844-1.125 1.0898-1.2148 1.8672-0.089843 0.77734 0.17969 1.5508 0.74219 2.1016 15.828 15.461 34.285 27.293 54.844 35.152 0.29688 0.10938 0.59766 0.16797 0.90234 0.16797h0.054687c1.3672-0.019531 2.5625-1.1133 2.5625-2.5195 0-0.91797-0.48828-1.7227-1.2227-2.1602-11.734-11.652-21.812-26.742-29.938-44.855z"/>
  <path d="m286.2 371.73h0.019531l84.258-0.75391c1.3789-0.011719 2.5-1.1367 2.5-2.5195l-0.003906-64.141c0-1.375-1.1016-2.5-2.4844-2.5195-24.801-0.37109-48.492-3.918-70.402-10.555-1.3008-0.39844-2.6484 0.29688-3.1016 1.5625-8.1953 22.898-12.801 49.309-13.312 76.363-0.011719 0.67969 0.25 1.3359 0.73047 1.8203 0.48047 0.47656 1.125 0.74219 1.7969 0.74219z"/>
  <path d="m220.73 372.32h0.019531l50.355-0.45312c1.3672-0.011719 2.4727-1.1094 2.5-2.4727 0.49219-28.172 5.2812-55.75 13.844-79.77 0.45703-1.2891-0.19531-2.7109-1.4766-3.1992-9.8828-3.7734-19.195-8.2109-27.66-13.199-1.0742-0.62891-2.4219-0.38672-3.2148 0.55859-22.766 27.352-35.52 60.52-36.883 95.922-0.023438 0.68359 0.22656 1.3555 0.71094 1.8477 0.46875 0.48828 1.125 0.76562 1.8047 0.76562z"/>
  <path d="m302.72 278.57c-0.30078 0.66016-0.29688 1.4258 0.003906 2.0859 0.30078 0.66406 0.875 1.1602 1.5781 1.3672 20.516 6.0508 43.371 9.4297 66.109 9.7734h0.035157c0.66016 0 1.293-0.26172 1.7695-0.72656 0.48047-0.47266 0.75-1.125 0.75-1.793v-70.234c0-0.72656-0.3125-1.4141-0.85547-1.8906-0.54297-0.47266-1.2656-0.69922-1.9844-0.60938-22.695 2.9258-43.172 18.816-59.207 45.957-2.6758 4.5273-5.2812 9.6445-8.1992 16.07z"/>
  <path d="m266.2 266.28c7.2188 4.0352 15.145 7.6914 23.562 10.871 0.29297 0.10938 0.59375 0.16016 0.89063 0.16016 0.96875 0 1.8906-0.5625 2.3008-1.4961 3.2734-7.4023 6.2305-13.262 9.3008-18.445 5.8789-9.9492 12.504-18.695 19.695-26.012 0.83594-0.84766 0.96094-2.168 0.30078-3.1602-0.66016-0.99219-1.918-1.3789-3.0273-0.94531-20.098 7.9766-38.113 19.758-53.559 35.035-0.5625 0.55469-0.83203 1.3438-0.72656 2.1328 0.10547 0.78906 0.57422 1.4727 1.2617 1.8594z"/>
  <path d="m288.05 462.18c-8.6055-23.723-13.453-49.902-14.426-77.805-0.046875-1.3594-1.1602-2.4336-2.5195-2.4336h-0.019531l-50.246 0.45313c-0.69141 0.003906-1.3438 0.29687-1.8203 0.79687-0.46875 0.50391-0.71484 1.1797-0.67578 1.8633 1.9766 34.605 14.914 67.008 37.418 93.703 0.49219 0.58594 1.2031 0.89844 1.9297 0.89844 0.45312 0 0.91797-0.12109 1.3242-0.37891 8.3828-5.2109 17.668-9.8828 27.598-13.898 1.2734-0.51562 1.9023-1.9258 1.4375-3.1992z"/>
  <path d="m461.59 274.15c0.42187 0.92187 1.3359 1.4648 2.2891 1.4648 0.3125 0 0.62891-0.054687 0.9375-0.17969 8.082-3.2305 15.781-6.9609 22.887-11.094 0.68359-0.39844 1.1445-1.0938 1.2344-1.8828 0.089844-0.78906-0.19141-1.5703-0.76172-2.1172-15.559-14.832-33.543-26.219-53.461-33.832-1.1289-0.43359-2.3789-0.015624-3.0234 0.99219-0.64453 1.0039-0.5 2.3164 0.35156 3.1523 11.535 11.336 21.473 25.973 29.547 43.496z"/>
  <path d="m385.57 291.63h0.10547c22.586-0.91797 44.281-4.6094 64.484-10.973 0.69531-0.21484 1.2578-0.72656 1.5508-1.3906 0.29297-0.66406 0.28125-1.4258-0.023438-2.0859-16.164-34.352-40.113-56.375-65.711-60.422-0.73047-0.12109-1.4727 0.097656-2.0312 0.57031-0.55859 0.48047-0.88281 1.1797-0.88281 1.9141v69.867c0 0.68359 0.28125 1.3438 0.77734 1.8203 0.45312 0.44922 1.0781 0.69922 1.7305 0.69922z"/>
  <path d="m385.57 370.84h0.019532l84.195-0.75391c0.67969-0.003906 1.3281-0.28906 1.7969-0.78125 0.46875-0.49219 0.71875-1.1523 0.69531-1.832-0.98828-26.918-6.0547-53.246-14.645-76.156-0.47266-1.2578-1.8555-1.9258-3.1328-1.5117-21.34 6.8672-45.219 10.988-69.031 11.906-1.3555 0.050781-2.4219 1.1641-2.4219 2.5195v64.094c0 0.67188 0.26562 1.3164 0.74609 1.7891 0.47266 0.46484 1.1133 0.72656 1.7773 0.72656z"/>
  <path d="m611.77 374.45-0.78906-34.602c-0.12109-5.1094-2.4727-9.8789-6.4688-13.105-3.9336-3.1523-9.1758-4.4727-14.203-3.4648l-32.883 6.5391c-20.578-79.895-93.191-139.11-179.42-139.11-102.16 0-185.28 83.113-185.28 185.27 0 79.336 50.148 147.13 120.39 173.49l-4.5 4.5156c-3.6367 3.6367-5.6367 8.4688-5.6367 13.613 0 5.1445 2 9.9766 5.6484 13.621 2.6094 2.6016 7.1836 3.9141 13.609 3.9141 5.4453 0 9.4766-1.0078 12.203-2.8906h242.63c3.4766 0 6.2969-2.8203 6.2969-6.2969v-186.2l0.30078 0.24219c3.0547 2.457 6.9023 3.8086 10.906 3.8086 9.5391 0 17.301-7.7656 17.301-17.301 0.003907-0.69141-0.039062-1.375-0.11328-2.0469zm-403.93 1.5273c0-93.824 76.332-170.16 170.16-170.16 80.676 0 148.37 56.457 165.77 131.92-1.1094 1.6523-1.9766 3.4805-2.457 5.4766-1.5938 6.5 0.75391 13.406 5.9844 17.617l0.15625 0.125c0.17969 2.0703 0.36719 4.1406 0.47266 6.2305l-10.977 13.07c-0.44922-0.41797-0.94141-0.65625-1.7031-0.67578l-50.371 0.45312c-1.3672 0.011719-2.4727 1.1094-2.5 2.4727-0.46875 27.43-5.0312 54.391-13.195 77.949-0.066407 0.17969-0.054688 0.36328-0.074219 0.55078l-7.7188 9.1914-32.129-17.594c-0.4375-0.23828-0.90625-0.39844-1.3594-0.59766 9.8633 1.7148 19.441 3.9492 28.656 6.7617 0.24219 0.074219 0.49219 0.10938 0.73437 0.10938 1.0469 0 2.0195-0.65625 2.3789-1.6914 7.8906-22.742 12.141-47.793 12.641-74.453 0.011718-0.67969-0.25-1.3359-0.73047-1.8203-0.48047-0.48437-1.1133-0.64844-1.8125-0.74609l-84.227 0.75391c-1.3789 0.011719-2.5 1.1367-2.5 2.5195v62.094c0 1.375 1.1016 2.5 2.4805 2.5195 11.07 0.17969 21.871 1.0117 32.375 2.4141-4.2812 0.48047-8.4141 2.3008-11.523 5.4102l-3.1172 3.1328c-5.8633-0.50781-11.754-0.88672-17.648-0.98828-0.67969-0.089844-1.3281 0.24609-1.8086 0.72656-0.48438 0.47266-0.75 1.1172-0.75 1.793v18.75l-10.078 10.113v-28.703c0-0.68359-0.28125-1.3398-0.77734-1.8203-0.49219-0.47266-1.1875-0.75-1.8438-0.69922-22.898 0.92578-44.891 4.7109-65.363 11.254-0.68359 0.21484-1.2461 0.71875-1.5352 1.3789-0.29297 0.66016-0.28906 1.4102 0.011719 2.0664 9.8281 21.508 22.637 38.301 37.023 49.117l-15.543 15.594c-67.902-22.355-117.1-86.324-117.1-161.62zm385.3 2.2227-8.5234-6.832c-3.2031-2.5742-7.875-2.1055-10.508 1.0391l-104.96 124.91c-1.2461 1.4766-3.4805 1.8945-5.1602 0.97266l-38.281-20.969c-2.9492-1.6172-6.6094-1.0898-8.9844 1.293l-90.746 91.082c-1.0039 1.1328-2.0312 1.9258-3.5977 1.918-1.3359 0-2.9922-0.86719-3.6836-1.8828-0.38672-0.64062-0.59766-1.375-0.59766-2.1445 0-1.1094 0.42969-2.1445 1.2188-2.9375l97.766-98.09c1.2695-1.2656 3.3398-1.5625 4.9219-0.69922l37.559 20.566c3.1602 1.7344 7.0977 0.99609 9.418-1.7695l98.449-117.18c1.3086-1.5586 1.9336-3.5781 1.7344-5.6016-0.20312-2.0234-1.2109-3.8828-2.7969-5.1523l-9.6016-7.6836c-0.66406-0.53516-0.96875-1.4102-0.76172-2.2422 0.20313-0.82031 0.86719-1.4609 1.6914-1.6211l35.992-7.1133c0.5 0 0.98438 0.17188 1.3516 0.46484 0.51562 0.41406 0.81641 1.0273 0.83203 1.6758l0.80078 35.004c0.003907 0.32812 0.050781 0.96875 0.10156 1.2891-0.011719 1.6641-2.2344 2.832-3.6367 1.6992z"/>
 </g>
</svg>