<?xml version="1.0" encoding="UTF-8"?>
<!-- The Best Svg Icon site in the world: iconSvg.co, Visit us! https://iconsvg.co -->
<svg fill="#000000" width="800px" height="800px" version="1.1" viewBox="144 144 512 512" xmlns="http://www.w3.org/2000/svg">
 <g>
  <path d="m400 628.29h-226.32c-3.8047 0-6.8867-3.082-6.8867-6.8867l-0.003907-317.49c0-18.637 15.164-33.801 33.801-33.801h12.449c3.8047 0 6.8867 3.082 6.8867 6.8867v298.15h180.07c3.8047 0 6.8867 3.082 6.8867 6.8867v39.359c0 3.8086-3.0859 6.8945-6.8867 6.8945zm-219.43-13.777h212.54v-25.586h-180.07c-3.8047 0-6.8867-3.082-6.8867-6.8867l-0.003906-298.15h-5.5625c-11.039 0-20.02 8.9805-20.02 20.023z"/>
  <path d="m626.32 628.29h-226.32c-3.8047 0-6.8867-3.082-6.8867-6.8867v-39.359c0-3.8047 3.082-6.8867 6.8867-6.8867h180.07l-0.003907-298.16c0-3.8047 3.082-6.8867 6.8867-6.8867h12.449c18.637 0 33.797 15.164 33.797 33.797l0.003906 317.49c0 3.8047-3.082 6.8906-6.8867 6.8906zm-219.43-13.777h212.54v-310.6c0-11.039-8.9805-20.023-20.023-20.023h-5.5586v298.15c0 3.8047-3.082 6.8867-6.8867 6.8867h-180.07z"/>
  <path d="m508.24 372.45h-49.199c-3.8047 0-6.8867-3.082-6.8867-6.8867 0-3.8047 3.082-6.8867 6.8867-6.8867h49.199c3.8047 0 6.8867 3.082 6.8867 6.8867 0 3.8047-3.082 6.8867-6.8867 6.8867z"/>
  <path d="m547.6 401.96h-88.559c-3.8047 0-6.8867-3.082-6.8867-6.8867s3.082-6.8867 6.8867-6.8867h88.559c3.8047 0 6.8867 3.082 6.8867 6.8867 0.003906 3.8047-3.082 6.8867-6.8867 6.8867z"/>
  <path d="m547.6 431.49h-88.559c-3.8047 0-6.8867-3.082-6.8867-6.8867 0-3.8047 3.082-6.8867 6.8867-6.8867h88.559c3.8047 0 6.8867 3.082 6.8867 6.8867 0.003906 3.8008-3.082 6.8867-6.8867 6.8867z"/>
  <path d="m547.6 461.01h-88.559c-3.8047 0-6.8867-3.082-6.8867-6.8867 0-3.8047 3.082-6.8867 6.8867-6.8867h88.559c3.8047 0 6.8867 3.082 6.8867 6.8867 0.003906 3.8008-3.082 6.8867-6.8867 6.8867z"/>
  <path d="m547.6 490.53h-88.559c-3.8047 0-6.8867-3.082-6.8867-6.8867s3.082-6.8867 6.8867-6.8867h88.559c3.8047 0 6.8867 3.082 6.8867 6.8867 0.003906 3.8008-3.082 6.8867-6.8867 6.8867z"/>
  <path d="m547.6 520.05h-88.559c-3.8047 0-6.8867-3.082-6.8867-6.8867 0-3.8047 3.082-6.8867 6.8867-6.8867h88.559c3.8047 0 6.8867 3.082 6.8867 6.8867 0.003906 3.8047-3.082 6.8867-6.8867 6.8867z"/>
  <path d="m547.6 549.57h-32.203c-3.8047 0-6.8867-3.082-6.8867-6.8867 0-3.8047 3.082-6.8867 6.8867-6.8867l32.203-0.003907c3.8047 0 6.8867 3.082 6.8867 6.8867 0.003906 3.8086-3.082 6.8906-6.8867 6.8906z"/>
  <path d="m301.6 372.45h-49.199c-3.8047 0-6.8867-3.082-6.8867-6.8867 0-3.8047 3.082-6.8867 6.8867-6.8867h49.199c3.8047 0 6.8867 3.082 6.8867 6.8867 0 3.8047-3.082 6.8867-6.8867 6.8867z"/>
  <path d="m340.96 401.96h-88.559c-3.8047 0-6.8867-3.082-6.8867-6.8867s3.082-6.8867 6.8867-6.8867h88.559c3.8047 0 6.8867 3.082 6.8867 6.8867 0.003906 3.8047-3.082 6.8867-6.8867 6.8867z"/>
  <path d="m340.96 431.49h-88.559c-3.8047 0-6.8867-3.082-6.8867-6.8867 0-3.8047 3.082-6.8867 6.8867-6.8867h88.559c3.8047 0 6.8867 3.082 6.8867 6.8867 0.003906 3.8008-3.082 6.8867-6.8867 6.8867z"/>
  <path d="m340.96 461.01h-88.559c-3.8047 0-6.8867-3.082-6.8867-6.8867 0-3.8047 3.082-6.8867 6.8867-6.8867h88.559c3.8047 0 6.8867 3.082 6.8867 6.8867 0.003906 3.8008-3.082 6.8867-6.8867 6.8867z"/>
  <path d="m340.96 490.53h-88.559c-3.8047 0-6.8867-3.082-6.8867-6.8867s3.082-6.8867 6.8867-6.8867h88.559c3.8047 0 6.8867 3.082 6.8867 6.8867 0.003906 3.8008-3.082 6.8867-6.8867 6.8867z"/>
  <path d="m340.96 520.05h-88.559c-3.8047 0-6.8867-3.082-6.8867-6.8867 0-3.8047 3.082-6.8867 6.8867-6.8867h88.559c3.8047 0 6.8867 3.082 6.8867 6.8867 0.003906 3.8047-3.082 6.8867-6.8867 6.8867z"/>
  <path d="m340.96 549.57h-32.203c-3.8047 0-6.8867-3.082-6.8867-6.8867 0-3.8047 3.082-6.8867 6.8867-6.8867l32.203-0.003907c3.8047 0 6.8867 3.082 6.8867 6.8867 0.003906 3.8086-3.082 6.8906-6.8867 6.8906z"/>
  <path d="m420.14 240.91c-0.21094-0.28125-0.82422-0.73437-1.8398-1.3672-1.0156-0.62891-2.3125-1.3164-3.8906-2.0508s-3.332-1.4375-5.2578-2.1055c-1.9297-0.66406-3.875-1.1367-5.8359-1.418v14.301l3.3672 0.83984c3.5742 0.98047 6.7969 2.0508 9.6758 3.207 2.875 1.1562 5.3125 2.5938 7.3086 4.3125 2 1.7188 3.5391 3.8047 4.625 6.2578 1.0859 2.457 1.6289 5.3984 1.6289 8.832 0 3.9961-0.70312 7.3984-2.1055 10.199-1.4023 2.8047-3.2773 5.1016-5.625 6.8906-2.3516 1.7852-5.0469 3.1367-8.0977 4.0469-3.0508 0.91016-6.2578 1.4375-9.6211 1.5781v12.199h-7.2578v-12.301c-4.8398-0.42188-9.6211-1.4023-14.355-2.9453s-8.9922-3.5742-12.777-6.1016l7.5703-15.039c0.28125 0.35156 1.0352 0.92969 2.2617 1.7344 1.2266 0.80859 2.7852 1.6484 4.6797 2.5234 1.8945 0.87891 4.0312 1.7188 6.4141 2.5234 2.3828 0.80859 4.8398 1.3867 7.3633 1.7344v-13.988l-5.0469-1.4727c-3.4375-1.0508-6.4141-2.1914-8.9375-3.418-2.5234-1.2266-4.6133-2.6445-6.2578-4.2578-1.6484-1.6133-2.875-3.4688-3.6797-5.5742-0.80469-2.1016-1.2109-4.5547-1.2109-7.3594 0-3.6445 0.62891-6.8906 1.8945-9.7266 1.2617-2.8398 2.9609-5.2734 5.1016-7.3086 2.1367-2.0312 4.6602-3.6289 7.5703-4.7852 2.9062-1.1562 6.0469-1.9102 9.4141-2.2617l-0.003906-10.617h7.2578v10.621c4.5547 0.42187 8.832 1.4375 12.828 3.0508s7.4648 3.2617 10.41 4.9414zm-29.129-0.94922c0 1.7539 0.61328 3.1406 1.8398 4.1562 1.2266 1.0156 3.0664 1.9102 5.5234 2.6797l-0.003906-12.934c-4.9062 0.42187-7.3594 2.4531-7.3594 6.0977zm20.402 33.445c0-1.8242-0.73438-3.2422-2.207-4.2578s-3.4375-1.9453-5.8906-2.7852v12.621c5.3984-0.21484 8.0977-2.0742 8.0977-5.5781z"/>
  <path d="m382.29 334.01v181.11c0 9.7812 7.9297 17.711 17.711 17.711s17.711-7.9297 17.711-17.711v-41.328l0.003907-139.79c-5.6953 1.3086-11.617 2.0273-17.711 2.0273s-12.02-0.71484-17.715-2.0273z"/>
  <path d="m400 588.93h-186.96c-3.8047 0-6.8867-3.082-6.8867-6.8867l-0.003906-344.4c0-3.8047 3.082-6.8867 6.8867-6.8867h110.72c2.1289 0 4.1406 0.98438 5.4453 2.668 1.3047 1.6836 1.7578 3.875 1.2266 5.9375-1.5 5.832-2.2578 11.875-2.2578 17.961 0 33.664 22.891 62.441 55.664 69.98 3.1289 0.71875 5.3438 3.5039 5.3438 6.7109v181.12c0 5.9688 4.8555 10.824 10.824 10.824 3.8047 0 6.8867 3.082 6.8867 6.8867v49.199c0 3.8086-3.0859 6.8906-6.8867 6.8906zm-180.07-13.773h173.18v-36.406c-10.223-2.9883-17.711-12.445-17.711-23.617v-175.82c-16.438-4.9414-31.227-14.855-42.082-28.316-12.203-15.133-18.926-34.195-18.926-53.676 0-4.293 0.32031-8.5703 0.95312-12.793l-95.418 0.003906z"/>
  <path d="m586.96 588.93h-186.96c-3.8047 0-6.8867-3.082-6.8867-6.8867v-49.199c0-3.8047 3.082-6.8867 6.8867-6.8867 5.9688 0 10.824-4.8555 10.824-10.824v-181.12c0-3.207 2.2148-5.9922 5.3438-6.7109 32.773-7.5391 55.664-36.316 55.664-69.984 0-6.0859-0.76172-12.129-2.2656-17.961-0.53125-2.0625-0.078125-4.2539 1.2266-5.9375 1.3047-1.6836 3.3125-2.668 5.4453-2.668h110.72c3.8047 0 6.8867 3.082 6.8867 6.8867v344.4c0 3.8047-3.0859 6.8867-6.8867 6.8867zm-180.07-13.773h173.18v-330.62h-95.414c0.63281 4.2188 0.95312 8.4961 0.95312 12.793 0 19.48-6.7227 38.543-18.926 53.676-10.855 13.457-25.645 23.375-42.082 28.316l-0.003906 175.81c0 11.176-7.4883 20.633-17.711 23.617z"/>
  <path d="m400 342.93c-47.203 0-85.609-38.402-85.609-85.609 0-47.203 38.402-85.609 85.609-85.609 47.203 0 85.609 38.402 85.609 85.609-0.003906 47.207-38.406 85.609-85.609 85.609zm0-157.44c-39.609 0-71.832 32.223-71.832 71.832s32.223 71.832 71.832 71.832 71.832-32.223 71.832-71.832c0-39.605-32.227-71.832-71.832-71.832z"/>
 </g>
</svg>