<?xml version="1.0" encoding="UTF-8"?>
<!-- The Best Svg Icon site in the world: iconSvg.co, Visit us! https://iconsvg.co -->
<svg fill="#000000" width="800px" height="800px" version="1.1" viewBox="144 144 512 512" xmlns="http://www.w3.org/2000/svg">
 <g>
  <path d="m439.36 313.41h15.742c2.0898 0 4.0898 0.82812 5.5664 2.3047 1.4766 1.4766 2.3086 3.4805 2.3086 5.5664 0 4.3477 3.5234 7.8711 7.8711 7.8711s7.8711-3.5234 7.8711-7.8711c0-6.2617-2.4883-12.27-6.918-16.699-4.4297-4.4297-10.434-6.9141-16.699-6.9141v-7.875c0-4.3477-3.5234-7.8711-7.8711-7.8711-4.3477 0-7.8711 3.5234-7.8711 7.8711v7.875c-8.4375 0-16.234 4.5-20.453 11.805-4.2188 7.3086-4.2188 16.312 0 23.617 4.2188 7.3086 12.016 11.809 20.453 11.809h15.742c4.3477 0 7.875 3.5234 7.875 7.8711s-3.5273 7.8711-7.875 7.8711h-15.742c-4.3477 0-7.8711-3.5234-7.8711-7.8711s-3.5273-7.8711-7.875-7.8711c-4.3477 0-7.8711 3.5234-7.8711 7.8711 0 6.2656 2.4883 12.27 6.918 16.699 4.4297 4.4297 10.434 6.918 16.699 6.918v7.8711c0 4.3477 3.5234 7.8711 7.8711 7.8711 4.3477 0 7.8711-3.5234 7.8711-7.8711v-7.8711c8.4375 0 16.234-4.5 20.453-11.809 4.2188-7.3086 4.2188-16.309 0-23.617-4.2188-7.3047-12.016-11.809-20.453-11.809h-15.742c-4.3477 0-7.8711-3.5234-7.8711-7.8711s3.5234-7.8711 7.8711-7.8711z"/>
  <path d="m626.24 568.38-54.398-94.23c-1.043-1.8242-2.7695-3.1562-4.8008-3.6992-2.0195-0.53125-4.168-0.25-5.9844 0.78906l-6.7695 3.9375-20.781-35.977c28.664-24.137 45.875-59.199 47.434-96.641 1.5586-37.438-12.684-73.809-39.246-100.24v-70.609c0-2.0898-0.82812-4.0898-2.3047-5.5664-1.4766-1.4766-3.4805-2.3086-5.5664-2.3086h-267.65c-1.0547 0.019531-2.0977 0.23437-3.0703 0.63281-0.94141 0.37891-1.7969 0.94141-2.5195 1.6523l-94.465 94.465c-0.71094 0.72266-1.2734 1.5781-1.6523 2.5195-0.39844 0.97266-0.61328 2.0156-0.63281 3.0703v362.11c0 2.0859 0.83203 4.0898 2.3086 5.5664 1.4766 1.4727 3.4766 2.3047 5.5664 2.3047h362.11c2.0859 0 4.0898-0.83203 5.5664-2.3047 1.4766-1.4766 2.3047-3.4805 2.3047-5.5664v-48.965l16.375 28.418c3.4609 5.9922 8.4414 10.969 14.438 14.426 6 3.4531 12.805 5.2656 19.727 5.2539 6.8867 0.03125 13.656-1.7891 19.602-5.2734 9.0391-5.2227 15.637-13.816 18.336-23.902 2.7031-10.082 1.2891-20.824-3.9297-29.863zm-85.57-85.336-13.699 7.8711-19.836-34.402v0.003906c4.6875-2.332 9.2344-4.9336 13.617-7.793zm24.641-146.02c0 31.316-12.441 61.352-34.586 83.496-22.145 22.141-52.18 34.582-83.496 34.582-31.316 0-61.352-12.441-83.496-34.582-22.145-22.145-34.586-52.18-34.586-83.496 0-31.316 12.441-61.352 34.586-83.496 22.145-22.145 52.18-34.586 83.496-34.586 31.305 0.039063 61.316 12.492 83.453 34.625 22.137 22.137 34.59 52.152 34.629 83.457zm-307.01-146.34v59.75c0 2.0898-0.82812 4.0898-2.3047 5.5664-1.4766 1.4766-3.4766 2.3047-5.5664 2.3047h-59.75zm267.65 429.73h-346.37v-346.37h70.848c6.2578-0.019531 12.254-2.5117 16.68-6.9375s6.918-10.422 6.9375-16.68v-70.848h251.9v49.438c-34.617-25.242-79.23-32.375-119.99-19.18-40.762 13.191-72.734 45.113-85.996 85.852-13.262 40.738-6.207 85.363 18.977 120.02s65.445 55.156 108.29 55.133c15.473-0.015625 30.824-2.7578 45.344-8.1094l20.781 36.055-6.7695 3.9375v-0.003907c-1.8203 1.0391-3.1523 2.7617-3.6992 4.7891-0.54688 2.0234-0.26562 4.1836 0.78516 5.9961l22.277 38.574zm89.031-26.215 0.003906 0.003906c-1.6367 6.0273-5.5977 11.164-11.012 14.281-5.418 3.1172-11.848 3.9609-17.883 2.3438-6.0391-1.6133-11.188-5.5547-14.324-10.957l-50.539-87.461 20.469-11.809 13.617-7.8711 6.8477-3.9375 50.461 87.457v0.003906c3.1523 5.4258 4.0039 11.891 2.3633 17.949z"/>
  <path d="m486.59 588.93h-15.742v-102.34c0-2.0859-0.83203-4.0898-2.3047-5.5664-1.4766-1.4766-3.4805-2.3047-5.5664-2.3047h-31.488c-4.3477 0-7.875 3.5234-7.875 7.8711v102.34h-15.742v-70.848c0-2.0859-0.82812-4.0898-2.3047-5.5664-1.4766-1.4766-3.4805-2.3047-5.5664-2.3047h-31.488c-4.3477 0-7.875 3.5234-7.875 7.8711v70.848h-15.742v-55.102c0-2.0898-0.82812-4.0898-2.3047-5.5664-1.4766-1.4766-3.4805-2.3086-5.5664-2.3086h-31.488c-4.3477 0-7.8711 3.5273-7.8711 7.875v55.105l-15.746-0.003907v-23.613c0-2.0898-0.82812-4.0898-2.3047-5.5664-1.4766-1.4766-3.4805-2.3086-5.5664-2.3086h-31.488c-4.3477 0-7.8711 3.5273-7.8711 7.875v23.617l-15.746-0.003907c-4.3477 0-7.8711 3.5273-7.8711 7.875 0 4.3477 3.5234 7.8711 7.8711 7.8711h267.65c4.3477 0 7.8711-3.5234 7.8711-7.8711 0-4.3477-3.5234-7.875-7.8711-7.875zm-220.41 0h-15.746v-15.742h15.742zm62.977 0h-15.746v-47.23h15.742zm62.977 0h-15.746v-62.977h15.742zm62.977 0h-15.746v-94.465h15.742z"/>
  <path d="m218.94 352.77h78.723c4.3477 0 7.8711-3.5234 7.8711-7.8711 0-4.3477-3.5234-7.8711-7.8711-7.8711h-78.723c-4.3477 0-7.8711 3.5234-7.8711 7.8711 0 4.3477 3.5234 7.8711 7.8711 7.8711z"/>
  <path d="m218.94 321.28h78.723c4.3477 0 7.8711-3.5234 7.8711-7.8711s-3.5234-7.8711-7.8711-7.8711h-78.723c-4.3477 0-7.8711 3.5234-7.8711 7.8711s3.5234 7.8711 7.8711 7.8711z"/>
  <path d="m218.94 384.25h78.723c4.3477 0 7.8711-3.5234 7.8711-7.8711 0-4.3477-3.5234-7.8711-7.8711-7.8711h-78.723c-4.3477 0-7.8711 3.5234-7.8711 7.8711 0 4.3477 3.5234 7.8711 7.8711 7.8711z"/>
  <path d="m218.94 415.74h78.723c4.3477 0 7.8711-3.5234 7.8711-7.8711s-3.5234-7.8711-7.8711-7.8711h-78.723c-4.3477 0-7.8711 3.5234-7.8711 7.8711s3.5234 7.8711 7.8711 7.8711z"/>
  <path d="m218.94 447.23h110.21c4.3477 0 7.875-3.5234 7.875-7.8711s-3.5273-7.8711-7.875-7.8711h-110.21c-4.3477 0-7.8711 3.5234-7.8711 7.8711s3.5234 7.8711 7.8711 7.8711z"/>
  <path d="m218.94 478.72h141.7c4.3477 0 7.875-3.5234 7.875-7.8711s-3.5273-7.8711-7.875-7.8711h-141.7c-4.3477 0-7.8711 3.5234-7.8711 7.8711s3.5234 7.8711 7.8711 7.8711z"/>
  <path d="m447.23 242.56c-25.055 0-49.082 9.9531-66.797 27.668-17.715 17.715-27.668 41.742-27.668 66.797 0 25.051 9.9531 49.078 27.668 66.797 17.715 17.715 41.742 27.668 66.797 27.668 25.055 0 49.082-9.9531 66.797-27.668 17.715-17.719 27.668-41.746 27.668-66.797-0.027343-25.047-9.9883-49.059-27.699-66.766-17.707-17.711-41.719-27.672-66.766-27.699zm0 173.18c-20.879 0-40.902-8.293-55.664-23.055-14.762-14.766-23.055-34.789-23.055-55.664 0-20.879 8.293-40.902 23.055-55.664 14.762-14.762 34.785-23.059 55.664-23.059 20.879 0 40.902 8.2969 55.664 23.059s23.055 34.785 23.055 55.664c-0.019531 20.871-8.3242 40.879-23.082 55.637-14.758 14.758-34.766 23.059-55.637 23.082z"/>
 </g>
</svg>