<?xml version="1.0" encoding="UTF-8"?>
<!-- The Best Svg Icon site in the world: iconSvg.co, Visit us! https://iconsvg.co -->
<svg fill="#000000" width="800px" height="800px" version="1.1" viewBox="144 144 512 512" xmlns="http://www.w3.org/2000/svg">
 <g>
  <path d="m601.19 599.08h-398.27v-402.27c0.054688-1.125-0.35547-2.2227-1.1328-3.0391-0.77344-0.81641-1.8516-1.2773-2.9766-1.2773s-2.2031 0.46094-2.9805 1.2773c-0.77344 0.81641-1.1836 1.9141-1.1289 3.0391v406.39-0.003906c0 2.2734 1.8438 4.1133 4.1133 4.1133h402.38c1.125 0.058594 2.2227-0.35156 3.0391-1.1289 0.8125-0.77344 1.2773-1.8516 1.2773-2.9766s-0.46484-2.2031-1.2773-2.9805c-0.81641-0.77734-1.9141-1.1836-3.0391-1.1289z"/>
  <path d="m237.78 488.84h24.02v25.301c0.10547 2.1875 1.9141 3.9102 4.1055 3.9102 2.1953 0 4.0039-1.7227 4.1094-3.9102v-25.301h24.02c1.0898 0 2.1367-0.43359 2.9062-1.2031 0.76953-0.77344 1.1992-1.8203 1.1953-2.9102v-103.02c0.003907-1.0898-0.42578-2.1367-1.1953-2.9102-0.76953-0.76953-1.8164-1.2031-2.9062-1.2031h-24.02v-24.758c0.054687-1.125-0.35156-2.2227-1.1289-3.0391-0.77734-0.8125-1.8555-1.2773-2.9805-1.2773s-2.2031 0.46484-2.9766 1.2773c-0.77734 0.81641-1.1836 1.9141-1.1289 3.0391v24.758h-24.02c-2.2578 0.019531-4.0742 1.8555-4.0742 4.1133v103.02c0 2.2578 1.8164 4.0938 4.0742 4.1133zm4.1133-103.02h48.027v94.809h-48.027z"/>
  <path d="m329.05 558.84h24.008v25.238h0.003906c-0.054688 1.125 0.35156 2.2227 1.1289 3.0391 0.77734 0.81641 1.8516 1.2773 2.9766 1.2773 1.1289 0 2.2031-0.46094 2.9805-1.2773 0.77734-0.81641 1.1836-1.9141 1.1289-3.0391v-25.238h24.02c2.2734 0 4.1133-1.8398 4.1133-4.1133v-106.58c-0.003906-2.2656-1.8438-4.1016-4.1133-4.1016h-24.02v-24.758c0.054687-1.125-0.35156-2.2227-1.1289-3.0391-0.77734-0.8125-1.8516-1.2734-2.9805-1.2734-1.125 0-2.1992 0.46094-2.9766 1.2734-0.77734 0.81641-1.1836 1.9141-1.1289 3.0391v24.758h-24.012c-2.2656 0-4.1055 1.8359-4.1133 4.1016v106.58c0 1.0898 0.43359 2.1367 1.207 2.9102 0.76953 0.76953 1.8164 1.2031 2.9062 1.2031zm4.1016-106.58h48.039v98.352h-48.035z"/>
  <path d="m420.32 429.07h24.02v25.238c-0.054688 1.125 0.35547 2.2227 1.1328 3.0391 0.77344 0.81641 1.8516 1.2773 2.9766 1.2773s2.2031-0.46094 2.9805-1.2773c0.77344-0.81641 1.1836-1.9141 1.1289-3.0391v-25.238h24.02c2.2656-0.007812 4.1016-1.8477 4.1016-4.1133v-133.58c0-2.2695-1.8359-4.1094-4.1016-4.1133h-24.02v-24.758c0.054687-1.125-0.35547-2.2227-1.1289-3.0391-0.77734-0.8125-1.8555-1.2734-2.9805-1.2734s-2.2031 0.46094-2.9766 1.2734c-0.77734 0.81641-1.1875 1.9141-1.1328 3.0391v24.758h-24.02c-2.2695 0-4.1133 1.8398-4.1133 4.1133v133.58c0 1.0898 0.43359 2.1367 1.207 2.9062 0.76953 0.77344 1.8164 1.207 2.9062 1.207zm4.1016-133.58h48.039l0.003907 125.35h-48.039z"/>
  <path d="m511.59 516.27h24.02v25.25c-0.054688 1.1211 0.35156 2.2188 1.1289 3.0352 0.77734 0.81641 1.8516 1.2773 2.9766 1.2773 1.1289 0 2.2031-0.46094 2.9805-1.2773 0.77734-0.81641 1.1836-1.9141 1.1289-3.0352v-25.25h24.02c2.2695-0.007812 4.1016-1.8477 4.1016-4.1133v-71.559c0-2.2656-1.832-4.1055-4.1016-4.1133h-24.02v-24.758c-0.10547-2.1914-1.9141-3.9102-4.1094-3.9102-2.1914 0-4 1.7188-4.1055 3.9102v24.758h-24.02c-2.2734 0-4.1133 1.8438-4.1133 4.1133v71.578c0.007813 2.2617 1.8477 4.0938 4.1133 4.0938zm4.1133-71.559h48.027v63.34h-48.027z"/>
 </g>
</svg>