<?xml version="1.0" encoding="UTF-8"?>
<!-- The Best Svg Icon site in the world: iconSvg.co, Visit us! https://iconsvg.co -->
<svg fill="#000000" width="800px" height="800px" version="1.1" viewBox="144 144 512 512" xmlns="http://www.w3.org/2000/svg">
 <g>
  <path d="m542.75 431.65c-2.9492-1.6094-6.0977-2.8203-9.3672-3.5977v19.086c8.3477-0.59375 12.52-3.9648 12.516-10.117h0.003907c0.042968-2.2422-1.1758-4.3164-3.1523-5.3711z"/>
  <path d="m516.25 408.7c-0.10938 2.3906 1.0156 4.668 2.9766 6.0391 2.6758 1.7227 5.6328 2.957 8.7383 3.6406v-19.531c-3.0781 0.29297-6.0234 1.4102-8.5234 3.2383-2.0664 1.5625-3.2539 4.0234-3.1914 6.6133z"/>
  <path d="m530.7 367.51c-14.715 0.003906-28.824 5.8516-39.227 16.258s-16.246 24.52-16.246 39.234 5.8477 28.828 16.25 39.23c10.406 10.406 24.52 16.25 39.234 16.254 14.715 0 28.824-5.8438 39.234-16.246 10.406-10.402 16.254-24.516 16.258-39.23-0.011719-14.715-5.8633-28.824-16.27-39.23s-24.516-16.258-39.234-16.27zm20.66 78.566c-1.8008 2.6406-4.2891 4.7422-7.1953 6.0781-3.3828 1.582-7.0508 2.4727-10.785 2.6211v6.3008c0.023438 0.71484-0.24609 1.4062-0.75 1.9102-0.53906 0.50781-1.2578 0.78125-1.9961 0.75-0.70703 0.027344-1.3945-0.22656-1.9141-0.70312-0.51953-0.51562-0.78906-1.2266-0.75391-1.957v-6.3008c-6.168-0.36328-12.234-1.7773-17.93-4.1719-0.72266-0.30469-1.3398-0.8125-1.7773-1.4609-1.0547-1.4688-0.92187-3.4766 0.3125-4.7969 0.66406-0.73828 1.6211-1.1445 2.6133-1.1133 0.58203 0 1.1602 0.12109 1.6914 0.35547 4.7695 2.125 9.8984 3.332 15.113 3.5508v-20.418c-3.4766-0.875-6.875-2.0352-10.164-3.4609-2.6758-1.1875-5.0312-3-6.8672-5.2812-1.9023-2.4766-2.875-5.5391-2.75-8.6562-0.023437-2.9922 0.75781-5.9375 2.2617-8.5234 1.6328-2.7227 3.9648-4.9609 6.7461-6.4805 3.3281-1.8125 7.0078-2.875 10.789-3.1055v-6.2148c-0.03125-0.71484 0.21875-1.4141 0.69531-1.9492 0.49219-0.52734 1.1914-0.81641 1.9141-0.79688 0.73047-0.007812 1.4336 0.28125 1.9531 0.79688 0.51562 0.51953 0.80078 1.2227 0.79688 1.9531v6.1289c5.2852 0.12891 10.516 1.1094 15.488 2.9102 1.5586 0.45703 2.5898 1.9336 2.4805 3.5508 0.003907 0.94922-0.34375 1.8672-0.97266 2.5781-0.63672 0.76172-1.5898 1.1875-2.5781 1.1484-0.49219-0.027343-0.97266-0.14844-1.418-0.35156-4.1758-1.4453-8.5469-2.2539-12.965-2.3945v21.117c3.6211 0.80469 7.1719 1.9023 10.613 3.2852 2.7539 1.1445 5.1797 2.9609 7.0547 5.2812 1.9961 2.6758 2.9961 5.9648 2.8242 9.2969 0.027344 3.0312-0.85156 6-2.5312 8.5234z"/>
  <path d="m531.49 335.28h-0.77734c-31.344 0-60.309 16.723-75.977 43.867-15.672 27.145-15.672 60.586 0 87.73 15.668 27.145 44.633 43.867 75.977 43.867h0.82422c31.129-0.32812 59.754-17.125 75.223-44.145 15.465-27.016 15.457-60.207-0.023438-87.219-15.48-27.008-44.117-43.793-75.246-44.102zm-0.79297 152.36v0.003906c-17.145-0.003906-33.586-6.8203-45.707-18.945-12.121-12.129-18.93-28.574-18.926-45.719 0.003906-17.148 6.8203-33.59 18.945-45.711 12.129-12.121 28.574-18.926 45.719-18.922s33.59 6.8203 45.711 18.945c12.117 12.129 18.926 28.574 18.922 45.719-0.019531 17.141-6.8398 33.574-18.965 45.691-12.121 12.117-28.559 18.93-45.699 18.941z"/>
  <path d="m530.71 326.12h0.77734c1.5586 0 3.0703 0.046875 4.582 0.18359v-118.67c0-7.2891-2.8984-14.281-8.0508-19.434-5.1523-5.1523-12.145-8.0469-19.43-8.0469h-299.54c-7.2891 0-14.277 2.8945-19.434 8.0469-5.1523 5.1523-8.0469 12.145-8.0469 19.434v384.68c0.003906 7.293 2.8984 14.285 8.0508 19.445 5.1523 5.1602 12.137 8.0664 19.43 8.082h299.54c7.2891-0.015625 14.277-2.9219 19.43-8.082 5.1523-5.1602 8.0469-12.152 8.0508-19.445v-72.594c-1.4648 0.13672-2.9766 0.18359-4.4414 0.18359h-0.91797c-34.617 0-66.602-18.469-83.91-48.445-17.309-29.98-17.309-66.914 0-96.895 17.309-29.977 49.293-48.445 83.91-48.445zm-296.47-101.04h249.16c2.5273 0 4.5781 2.0508 4.5781 4.5781 0 2.5312-2.0508 4.582-4.5781 4.582h-249.16c-2.5312 0-4.582-2.0508-4.582-4.582 0-2.5273 2.0508-4.5781 4.582-4.5781zm0 48.688h249.16v-0.003907c2.5273 0 4.5781 2.0508 4.5781 4.582s-2.0508 4.5781-4.5781 4.5781h-249.16c-2.5312 0-4.582-2.0469-4.582-4.5781s2.0508-4.582 4.582-4.582zm0 145.97h185.04v-0.003907c2.5273 0 4.5781 2.0508 4.5781 4.582 0 2.5273-2.0508 4.5781-4.5781 4.5781h-185.04c-2.5312 0-4.582-2.0508-4.582-4.5781 0-2.5312 2.0508-4.582 4.582-4.582zm-4.582-44.105v-0.003907c0-2.5312 2.0508-4.582 4.582-4.582h194.2c2.5273 0 4.5781 2.0508 4.5781 4.582 0 2.5273-2.0508 4.5781-4.5781 4.5781h-194.2c-2.5312 0-4.582-2.0508-4.582-4.5781zm4.582 92.746h194.2v-0.003906c2.5273 0 4.5781 2.0508 4.5781 4.582 0 2.5273-2.0508 4.5781-4.5781 4.5781h-194.2c-2.5312 0-4.582-2.0508-4.582-4.5781 0-2.5312 2.0508-4.582 4.582-4.582zm249.16 106.44-249.16-0.003907c-2.5312 0-4.582-2.0508-4.582-4.5781 0-2.5312 2.0508-4.582 4.582-4.582h249.16c2.5273 0 4.5781 2.0508 4.5781 4.582 0 2.5273-2.0508 4.5781-4.5781 4.5781zm0-57.801v-0.003907c2.5273 0 4.5781 2.0508 4.5781 4.582 0 2.5273-2.0508 4.5781-4.5781 4.5781h-249.16c-2.5312 0-4.582-2.0508-4.582-4.5781 0-2.5312 2.0508-4.582 4.582-4.582zm-249.16-185.45c-2.5312 0-4.582-2.0508-4.582-4.5781 0-2.5312 2.0508-4.582 4.582-4.582h249.16c2.5273 0 4.5781 2.0508 4.5781 4.582 0 2.5273-2.0508 4.5781-4.5781 4.5781z"/>
 </g>
</svg>