<?xml version="1.0" encoding="UTF-8"?>
<!-- The Best Svg Icon site in the world: iconSvg.co, Visit us! https://iconsvg.co -->
<svg fill="#000000" width="800px" height="800px" version="1.1" viewBox="144 144 512 512" xmlns="http://www.w3.org/2000/svg">
 <g>
  <path d="m614.78 483.73c-12.98-11.039-29.949-15.812-46.57-13.094-42.648 7.0078-81.102 10.223-118.42 9.7852 3.1523-4.7344 5.0039-10.223 5.2773-15.941 0.39453-8.332-2.6641-16.367-8.6211-22.609-6.2891-6.6016-15.098-10.383-24.16-10.383h-45.902c-8.3398 0-16.234 3.2578-22.309 9.25-5.9219 5.9922-9.1797 13.887-9.1797 22.238 0 7.8047 2.8516 15.266 8.0391 21.012v0.007813c0.40625 0.45312 0.875 0.84766 1.3125 1.2773 0.76953 1.0898 1.8398 1.9023 3.0781 2.4883 0.58203 0.30078 1.1953 0.50781 1.8359 0.65625 0.12891 0.027343 0.23047 0.10938 0.35938 0.12891 0.042969 0.003906 0.09375 0.011719 0.13672 0.019531 0.03125 0.003906 0.058594 0.023438 0.089844 0.027344 14.777 2.2031 30.688 4.4766 49.051 5.8672h2.6953c50.492 3.9102 101.11 1.2695 159.26-8.2891 12.215-2.0078 24.238 1.3984 33.828 9.5469 10.062 8.5547 15.832 21.211 15.832 34.719 0 21.023-13.699 38.977-33.328 43.664-108.93 26.176-275.86-10.832-277.54-11.199-3.1992-0.70703-6.5 0.61328-8.3008 3.3516l-33.832 51.336-84.441-51.703 34.777-49.492c14.301-25.062 40.273-39.328 67.77-37.547 8.1016 0.59375 16.645 1.4922 26.871 2.8125 4.3047 0.58594 8.2617-2.4766 8.8203-6.7891 0.5625-4.3125-2.4844-8.2656-6.793-8.8164-10.531-1.3672-19.348-2.2891-27.781-2.9141-33.656-2.3047-65.238 15.082-82.164 44.816l-39.203 55.734c-1.2539 1.7773-1.7109 3.9961-1.2695 6.1289 0.4375 2.1289 1.7422 3.9805 3.5938 5.1133l98.086 60.062c1.2852 0.78516 2.7031 1.1641 4.1055 1.1641 2.5625 0 5.0703-1.2539 6.582-3.543l35.055-53.199c30.188 6.3438 176.69 34.672 279.33 10 26.734-6.3867 45.402-30.641 45.402-58.98 0.003906-18.133-7.7891-35.16-21.375-46.707zm-249.58-31.855c3.0391-3 7.0078-4.6445 11.184-4.6445h45.902c4.7812 0 9.4336 2.0078 12.77 5.5039 2.957 3.0977 4.4766 7.0039 4.2852 10.992-0.18359 3.8906-1.8242 7.5938-4.543 10.348-3.0391 3-7.0078 4.6445-11.184 4.6445l-11.332 0.019531c-18.277-1.4102-34.816-3.5664-47.75-5.3984-2.5078-2.8398-3.8945-6.5117-3.8945-10.363 0-4.1758 1.6445-8.1523 4.5625-11.102z"/>
  <path d="m329.52 530.15c-1.3125 4.1445 0.98828 8.5703 5.1328 9.8789 47.027 14.875 113.19 17.41 152.77 17.41 2.5352 0 4.9688-0.015625 7.2773-0.03125 21.574-0.16016 39.125-17.812 39.125-39.344 0-4.3516-3.5234-7.8711-7.8711-7.8711s-7.8711 3.5195-7.8711 7.8711c0 12.914-10.539 23.5-23.5 23.602-37.32 0.30078-107.2-1.4688-155.18-16.645-4.1562-1.3203-8.5781 0.98438-9.8867 5.1289z"/>
  <path d="m337.1 327.95c1.1172 3.6875 3.2109 6.9492 6.0352 9.4336 1.1406 1 2.8125 2.1914 4.668 3.4727 1.4258 0.98828 4.0625 2.8125 5.4883 4.1484l-11.18 34.383c-1.5547 4.7773-0.71484 10.055 2.2383 14.117 2.9492 4.0664 7.7109 6.4922 12.734 6.4922h85.832c5.0234 0 9.7852-2.4258 12.738-6.4922 2.9531-4.0625 3.7891-9.3398 2.2383-14.117l-11.879-36.527c-1.3438-4.1328-5.7617-6.3828-9.9219-5.0547-4.1367 1.3438-6.3945 5.7891-5.0547 9.9219l11.879 36.523h-85.832l11.879-36.527c3.0117-9.2734-6.1367-15.613-12.191-19.812-1.2812-0.88281-2.457-1.668-3.2422-2.3594-0.62109-0.55078-1.0938-1.3047-1.3633-2.1836l-29.156-95.91c-3.6133-11.883-1.4805-24.848 5.6992-34.684 6.1094-8.3672 14.77-13.055 25.043-13.195l93.156 0.003907c9.6133 0.13672 18.273 4.8242 24.387 13.195 7.1797 9.8359 9.3125 22.801 5.7031 34.68l-29.254 96.199c-1.543 4.0625 0.50781 8.6094 4.5742 10.148 4.0469 1.5547 8.6055-0.50391 10.148-4.5742 0.15625-0.41406 0.30469-0.83984 0.43359-1.2773l29.164-95.914c5.0391-16.586 2.0312-34.73-8.0508-48.543-8.9727-12.281-22.41-19.445-36.871-19.66-0.042969 0-0.85547-0.003906-0.89453-0.003906h-92.496c-0.039062 0-0.85156 0.003906-0.89062 0.003906-14.465 0.21484-27.902 7.3789-36.871 19.66-10.082 13.812-13.094 31.957-8.0508 48.543z"/>
 </g>
</svg>