<?xml version="1.0" encoding="UTF-8"?>
<!-- The Best Svg Icon site in the world: iconSvg.co, Visit us! https://iconsvg.co -->
<svg fill="#000000" width="800px" height="800px" version="1.1" viewBox="144 144 512 512" xmlns="http://www.w3.org/2000/svg">
 <g>
  <path d="m231.59 519.28c-13.375 0-26.203 5.3125-35.66 14.77s-14.77 22.285-14.77 35.66 5.3125 26.199 14.77 35.656c9.457 9.4609 22.285 14.773 35.66 14.773s26.203-5.3125 35.66-14.773c9.457-9.457 14.77-22.281 14.77-35.656-0.015625-13.371-5.332-26.191-14.785-35.645-9.457-9.4531-22.273-14.77-35.645-14.785zm0 91.188c-10.809 0-21.176-4.2969-28.82-11.938-7.6406-7.6445-11.938-18.012-11.938-28.82 0-10.812 4.2969-21.18 11.938-28.82 7.6445-7.6445 18.012-11.938 28.82-11.938 10.809 0 21.176 4.293 28.82 11.938 7.6445 7.6406 11.938 18.008 11.938 28.82-0.015625 10.805-4.3164 21.16-11.953 28.801-7.6406 7.6406-18 11.941-28.805 11.957z"/>
  <path d="m568.42 334.79c-13.375-0.003906-26.203 5.3086-35.664 14.762-9.457 9.457-14.773 22.281-14.777 35.656-0.003907 13.371 5.3047 26.199 14.762 35.66 9.4531 9.4609 22.277 14.777 35.652 14.781 13.375 0.003906 26.203-5.3047 35.664-14.758 9.4609-9.4531 14.777-22.277 14.781-35.652-0.007813-13.371-5.3203-26.195-14.773-35.652-9.4531-9.4609-22.273-14.781-35.645-14.797zm0 91.168c-10.809 0-21.176-4.293-28.816-11.938-7.6445-7.6445-11.934-18.012-11.934-28.82 0.003906-10.809 4.3008-21.172 11.945-28.812 7.6445-7.6406 18.016-11.93 28.824-11.926 10.809 0.003906 21.172 4.3047 28.809 11.953 7.6406 7.6484 11.926 18.016 11.918 28.824-0.019531 10.797-4.3203 21.148-11.961 28.781-7.6367 7.6289-17.988 11.926-28.785 11.938z"/>
  <path d="m427.55 389.18v-82.164c41.523-0.82812 72.07-12.367 90.812-34.34 24.887-29.227 19.395-65.727 19.141-67.27-0.37891-2.3438-2.3984-4.0703-4.7734-4.0742-36.406 0-65.121 10.223-85.266 30.395h0.003906c-9.1992 9.3008-16.453 20.34-21.336 32.473-2.2734-14.051-7.6445-29.973-19.168-44.281-21.402-26.555-57.938-40.059-108.59-40.059-2.2852 0.003906-4.2539 1.5977-4.7344 3.8281-0.41406 1.9688-9.8398 47.695 19.02 83.395 20.969 25.949 56.363 39.359 105.2 39.93v81.938l0.003906 0.003907c-40.73 0.875-77.992 23.117-98.098 58.551-20.102 35.434-20.074 78.828 0.066406 114.24 20.145 35.41 57.434 57.609 98.164 58.438 40.73 0.83203 78.891-19.832 100.46-54.395 21.566-34.562 23.359-77.922 4.7148-114.14-18.645-36.219-54.973-59.961-95.633-62.492zm100.78-178.11c0.55078 9.7812 0 35.012-17.426 55.391-16.809 19.68-44.754 30.012-83.09 30.848 3.8281-6.6602 22.414-35.141 65.023-45.609 2.5977-0.63672 4.1836-3.2617 3.5469-5.8594-0.64062-2.5977-3.2617-4.1875-5.8594-3.5469-28.645 7.0469-47.23 21.352-58.371 33.219 8.3047-26.352 31.477-62.867 96.176-64.441zm-208.04 49.996c-21.402-26.422-19.227-60.223-17.711-71.508 45.383 0.69922 77.961 12.91 96.875 36.328 12.941 16.02 17.191 34.746 18.203 49.516-22.633-34.688-63.047-46.031-65.031-46.562-2.5781-0.69922-5.2344 0.82031-5.9336 3.3945-0.70312 2.5781 0.82031 5.2344 3.3945 5.9336 0.51172 0.14844 50.184 14.188 67.137 57.398-0.070312 0.62891-0.14844 1.2305-0.21484 1.7617-45.312-0.64844-77.824-12.883-96.719-36.262zm100.09 349.39c-37.605-0.34375-72.207-20.598-90.922-53.215-18.711-32.621-18.73-72.715-0.046875-105.35 18.684-32.633 53.266-52.918 90.867-53.301 1.4258 0.82812 3.1758 0.86719 4.6367 0.10938 37.262 1.6094 70.934 22.695 88.652 55.516 17.715 32.82 16.863 72.543-2.2422 104.57-19.105 32.035-53.648 51.656-90.945 51.668z"/>
  <path d="m460.07 531.59c-0.011718-10.23-4.082-20.039-11.316-27.273-7.2344-7.2383-17.043-11.309-27.273-11.32-6.0234 0-11.801-2.3906-16.059-6.6523-4.2617-4.2578-6.6523-10.035-6.6523-16.059 0-6.0234 2.3906-11.801 6.6523-16.059 4.2578-4.2578 10.035-6.6523 16.059-6.6523 6.0234 0 11.797 2.3945 16.059 6.6523 4.2578 4.2578 6.6523 10.035 6.6523 16.059-0.058594 1.1914 0.375 2.3516 1.1992 3.2148 0.82031 0.86328 1.9609 1.3516 3.1523 1.3516 1.1953 0 2.332-0.48828 3.1562-1.3516s1.2578-2.0234 1.1992-3.2148c-0.015626-7.5742-2.7578-14.887-7.7266-20.602-4.9727-5.7148-11.836-9.4453-19.332-10.512v-10.754c0.054687-1.1914-0.37891-2.3555-1.1992-3.2148-0.82422-0.86328-1.9648-1.3516-3.1562-1.3516s-2.332 0.48828-3.1562 1.3516c-0.82031 0.85938-1.2539 2.0234-1.1992 3.2148v10.754c-10.598 1.4883-19.711 8.2695-24.18 17.992-4.4688 9.7266-3.6797 21.055 2.0898 30.07 5.7734 9.0117 15.738 14.465 26.441 14.469 7.9258 0 15.527 3.1523 21.129 8.7539 5.6055 5.6055 8.7539 13.207 8.7539 21.133 0 7.9258-3.1484 15.527-8.7539 21.129-5.6016 5.6055-13.203 8.7539-21.129 8.7539s-15.527-3.1484-21.133-8.7539c-5.6055-5.6016-8.7539-13.203-8.7539-21.129 0-2.4023-1.9453-4.3516-4.3477-4.3516s-4.3477 1.9492-4.3477 4.3516c0.007812 9.2852 3.3633 18.254 9.4492 25.27 6.082 7.0156 14.488 11.605 23.68 12.93v10.824c0 2.4023 1.9492 4.3477 4.3516 4.3477 2.3984 0 4.3477-1.9453 4.3477-4.3477v-10.578c9.6328-0.82422 18.609-5.2305 25.152-12.348 6.543-7.1172 10.18-16.43 10.191-26.098z"/>
 </g>
</svg>