<?xml version="1.0" encoding="UTF-8"?>
<!-- The Best Svg Icon site in the world: iconSvg.co, Visit us! https://iconsvg.co -->
<svg fill="#000000" width="800px" height="800px" version="1.1" viewBox="144 144 512 512" xmlns="http://www.w3.org/2000/svg">
 <g>
  <path d="m400 169.09c-127.33 0-230.91 103.59-230.91 230.91s103.59 230.91 230.91 230.91c127.34 0 230.91-103.59 230.91-230.91-0.003906-127.33-103.58-230.91-230.91-230.91zm5.2461 451.07v-18.629h8.418c2.8867 0 5.2461-2.3516 5.2461-5.2461 0-2.8984-2.3633-5.2461-5.2461-5.2461l-8.418-0.003906v-13.664h15.977c2.9062 0 5.2461-2.3633 5.2461-5.2461 0-2.8984-2.3398-5.2461-5.2461-5.2461l-15.977-0.007813v-13.656h8.418c2.8867 0 5.2461-2.3633 5.2461-5.2461 0-2.9062-2.3633-5.2461-5.2461-5.2461h-8.418v-13.664h15.977c2.9062 0 5.2461-2.3516 5.2461-5.2461 0-2.8984-2.3398-5.2461-5.2461-5.2461l-15.977-0.007813v-13.656h8.418c2.8867 0 5.2461-2.3516 5.2461-5.2461 0-2.8984-2.3633-5.2461-5.2461-5.2461l-8.418-0.003906v-10.789c0-2.8867-2.3516-5.2461-5.2461-5.2461-2.8984 0-5.2461 2.3633-5.2461 5.2461v10.789h-8.4062c-2.8984 0-5.2461 2.3516-5.2461 5.2461 0 2.8984 2.3516 5.2461 5.2461 5.2461l8.4023 0.003906v13.656h-15.996c-2.8984 0-5.2461 2.3516-5.2461 5.2461 0 2.8984 2.3516 5.2461 5.2461 5.2461l15.996 0.003906v13.664h-8.4062c-2.8984 0-5.2461 2.3398-5.2461 5.2461 0 2.8867 2.3516 5.2461 5.2461 5.2461l8.4062 0.007813v13.656h-15.996c-2.8984 0-5.2461 2.3516-5.2461 5.2461 0 2.8867 2.3516 5.2461 5.2461 5.2461h15.996v13.668h-8.4062c-2.8984 0-5.2461 2.3516-5.2461 5.2461 0 2.8984 2.3516 5.2461 5.2461 5.2461l8.4062 0.003907v18.621c-117.34-2.7734-212.12-97.551-214.91-214.9h18.621v8.4062c0 2.8984 2.3516 5.2461 5.2461 5.2461 2.8984 0 5.2461-2.3516 5.2461-5.2461l0.003907-8.4062h13.664v15.984c0 2.8984 2.3516 5.2461 5.2461 5.2461 2.8984 0 5.2461-2.3516 5.2461-5.2461l0.003906-15.984h13.664v8.4062c0 2.8984 2.3516 5.2461 5.2461 5.2461 2.8984 0 5.2461-2.3516 5.2461-5.2461l0.007812-8.4062h13.656v15.984c0 2.8984 2.3516 5.2461 5.2461 5.2461 2.8984 0 5.2461-2.3516 5.2461-5.2461v-15.984h13.664v8.4062c0 2.8984 2.3516 5.2461 5.2461 5.2461 2.8984 0 5.2461-2.3516 5.2461-5.2461l0.007812-8.4062h10.781c2.8984 0 5.2461-2.3516 5.2461-5.2461 0-2.8984-2.3516-5.2461-5.2461-5.2461h-10.781v-8.4062c0-2.8984-2.3516-5.2461-5.2461-5.2461-2.8984 0-5.2461 2.3516-5.2461 5.2461l-0.003907 8.4023h-13.664v-15.996c0-2.8984-2.3516-5.2461-5.2461-5.2461-2.8984 0-5.2461 2.3516-5.2461 5.2461l-0.007812 15.996h-13.656v-8.4062c0-2.8984-2.3516-5.2461-5.2461-5.2461-2.8984 0-5.2461 2.3516-5.2461 5.2461v8.4062h-13.668v-15.996c0-2.8984-2.3516-5.2461-5.2461-5.2461-2.8984 0-5.2461 2.3516-5.2461 5.2461l-0.003906 15.996h-13.652v-8.4062c0-2.8984-2.3516-5.2461-5.2461-5.2461-2.8984 0-5.2461 2.3516-5.2461 5.2461l-0.003907 8.4062h-18.633c2.7812-117.34 97.57-212.11 214.91-214.91v18.633h-8.4062c-2.8984 0-5.2461 2.3516-5.2461 5.2461 0 2.8984 2.3516 5.2461 5.2461 5.2461l8.4062 0.003906v13.664h-15.996c-2.8984 0-5.2461 2.3516-5.2461 5.2461 0 2.8984 2.3516 5.2461 5.2461 5.2461l15.996 0.003906v13.656h-8.4062c-2.8984 0-5.2461 2.3516-5.2461 5.2461 0 2.8984 2.3516 5.2461 5.2461 5.2461l8.4062 0.003906v13.656h-15.996c-2.8984 0-5.2461 2.3516-5.2461 5.2461 0 2.8984 2.3516 5.2461 5.2461 5.2461h15.996v13.656h-8.4062c-2.8984 0-5.2461 2.3516-5.2461 5.2461 0 2.8984 2.3516 5.2461 5.2461 5.2461l8.4062 0.003907v10.789c0 2.8984 2.3516 5.2461 5.2461 5.2461 2.8984 0 5.2461-2.3516 5.2461-5.2461v-10.789h8.418c2.8867 0 5.2461-2.3516 5.2461-5.2461 0-2.8984-2.3633-5.2461-5.2461-5.2461l-8.4141-0.003906v-13.656h15.977c2.9062 0 5.2461-2.3516 5.2461-5.2461 0-2.8984-2.3398-5.2461-5.2461-5.2461l-15.977-0.003906v-13.656h8.418c2.8867 0 5.2461-2.3516 5.2461-5.2461 0-2.8984-2.3633-5.2461-5.2461-5.2461h-8.418v-13.656h15.977c2.9062 0 5.2461-2.3516 5.2461-5.2461 0-2.8984-2.3398-5.2461-5.2461-5.2461l-15.977-0.003906v-13.664h8.418c2.8867 0 5.2461-2.3516 5.2461-5.2461 0-2.8984-2.3633-5.2461-5.2461-5.2461l-8.418-0.003907v-18.633c117.34 2.793 212.12 97.562 214.89 214.91h-18.621v-8.4062c0-2.8984-2.3516-5.2461-5.2461-5.2461-2.8984 0-5.2461 2.3516-5.2461 5.2461v8.4062h-13.664v-15.996c0-2.8984-2.3398-5.2461-5.2461-5.2461-2.8867 0-5.2461 2.3516-5.2461 5.2461l-0.007813 15.996h-13.656v-8.4062c0-2.8984-2.3633-5.2461-5.2461-5.2461-2.8984 0-5.2461 2.3516-5.2461 5.2461v8.4062h-13.676v-15.996c0-2.8984-2.3516-5.2461-5.2461-5.2461-2.8867 0-5.2461 2.3516-5.2461 5.2461l-0.007813 15.996h-13.656v-8.4062c0-2.8984-2.3633-5.2461-5.2461-5.2461-2.8867 0-5.2461 2.3516-5.2461 5.2461v8.4062h-10.781c-2.9062 0-5.2461 2.3516-5.2461 5.2461 0 2.8984 2.3398 5.2461 5.2461 5.2461h10.781v8.4062c0 2.8984 2.3633 5.2461 5.2461 5.2461 2.8867 0 5.2461-2.3516 5.2461-5.2461l0.003907-8.4023h13.656v15.984c0 2.8984 2.3633 5.2461 5.2461 5.2461 2.8984 0 5.2461-2.3516 5.2461-5.2461v-15.984h13.676v8.4062c0 2.8984 2.3516 5.2461 5.2461 5.2461 2.8867 0 5.2461-2.3516 5.2461-5.2461l0.007813-8.4062h13.664v15.984c0 2.8984 2.3516 5.2461 5.2461 5.2461 2.8984 0 5.2461-2.3516 5.2461-5.2461l0.003906-15.984h13.656v8.4062c0 2.8984 2.3516 5.2461 5.2461 5.2461 2.8984 0 5.2461-2.3516 5.2461-5.2461l0.003907-8.4062h18.621c-2.7734 117.35-97.562 212.11-214.9 214.91z"/>
  <path d="m440.85 394.75h-11.156c-2.1953-12.457-11.996-22.25-24.445-24.445v-11.156c0-2.8984-2.3516-5.2461-5.2461-5.2461-2.8984 0-5.2461 2.3516-5.2461 5.2461v11.156c-12.457 2.1953-22.25 11.996-24.445 24.445h-11.156c-2.8984 0-5.2461 2.3516-5.2461 5.2461 0 2.8984 2.3516 5.2461 5.2461 5.2461h11.156c2.1953 12.469 11.996 22.25 24.445 24.445v11.156c0 2.8867 2.3516 5.2461 5.2461 5.2461 2.8984 0 5.2461-2.3633 5.2461-5.2461v-11.156c12.457-2.1953 22.25-12.008 24.445-24.445h11.156c2.8984 0 5.2461-2.3516 5.2461-5.2461 0.003906-2.8945-2.3359-5.2461-5.2461-5.2461zm-40.848 24.98c-10.875 0-19.734-8.8477-19.734-19.734 0-10.883 8.8594-19.734 19.734-19.734s19.734 8.8477 19.734 19.734c-0.003906 10.887-8.8633 19.734-19.734 19.734z"/>
 </g>
</svg>