<?xml version="1.0" encoding="UTF-8"?>
<!-- The Best Svg Icon site in the world: iconSvg.co, Visit us! https://iconsvg.co -->
<svg fill="#000000" width="800px" height="800px" version="1.1" viewBox="144 144 512 512" xmlns="http://www.w3.org/2000/svg">
 <g>
  <path d="m395.9 613.53c-41.637 0-84.5-10.742-123.97-31.066-38.988-20.074-74.812-49.551-103.61-85.238-2.0352-2.5234-2.0352-6.1172-0.007812-8.6406 28.781-35.777 64.578-65.352 103.52-85.527 39.531-20.477 82.465-31.32 124.16-31.363h0.36719c42.113 0 86.238 10.711 127.64 30.992 41.984 20.566 79.223 50.066 107.68 85.312 2.0352 2.5234 2.0391 6.1211 0.007813 8.6445-28.414 35.305-65.617 64.887-107.58 85.559-41.488 20.434-85.742 31.266-127.97 31.328h-0.23437zm-213.31-120.64c56.008 67.027 135.35 106.86 213.31 106.86h0.22266c80.285-0.11719 166.52-42.121 221.28-107.42-54.773-65.102-140.88-106.86-221.05-106.86h-0.33984c-77.98 0.078125-157.37 40.137-213.43 107.42z"/>
  <path d="m395.08 611.67c-66.195 0-120.05-53.852-120.05-120.05s53.852-120.05 120.05-120.05 120.05 53.852 120.05 120.05-53.852 120.05-120.05 120.05zm0-226.32c-58.598 0-106.27 47.672-106.27 106.27 0 58.598 47.676 106.27 106.27 106.27s106.27-47.672 106.27-106.27-47.672-106.27-106.27-106.27z"/>
  <path d="m395.9 239.94c-3.8047 0-6.8867-3.082-6.8867-6.8867l-0.003906-39.695c0-3.8047 3.082-6.8867 6.8867-6.8867 3.8047 0 6.8867 3.082 6.8867 6.8867v39.695c0.003906 3.8008-3.0781 6.8867-6.8828 6.8867z"/>
  <path d="m518.22 306.1c-2.4609 0-4.8359-1.3203-6.0781-3.6406-1.793-3.3555-0.53125-7.5273 2.8242-9.3242l36.789-19.688c3.3555-1.793 7.5273-0.53125 9.3242 2.8242 1.793 3.3555 0.53125 7.5273-2.8242 9.3242l-36.789 19.688c-1.0352 0.55469-2.1484 0.81641-3.2461 0.81641z"/>
  <path d="m273.58 306.1c-1.0977 0-2.2109-0.26172-3.2461-0.81641l-36.789-19.688c-3.3555-1.793-4.6172-5.9688-2.8242-9.3242 1.793-3.3516 5.9688-4.6172 9.3242-2.8242l36.789 19.688c3.3555 1.793 4.6172 5.9688 2.8242 9.3242-1.2383 2.3203-3.6172 3.6406-6.0781 3.6406z"/>
  <path d="m463.34 262.86c-1.2305 0-2.4766-0.32812-3.6016-1.0234-3.2383-1.9922-4.25-6.2383-2.2578-9.4766l12.91-20.977c1.9922-3.2383 6.2344-4.25 9.4766-2.2539 3.2383 1.9922 4.25 6.2383 2.2578 9.4766l-12.91 20.977c-1.3047 2.1133-3.5625 3.2773-5.875 3.2773z"/>
  <path d="m556.62 372.58h-25.816c-3.8047 0-6.8867-3.082-6.8867-6.8867 0-3.8047 3.082-6.8867 6.8867-6.8867h25.816c3.8047 0 6.8867 3.082 6.8867 6.8867 0.003906 3.8008-3.082 6.8867-6.8867 6.8867z"/>
  <path d="m261.32 372.58h-25.816c-3.8047 0-6.8867-3.082-6.8867-6.8867 0-3.8047 3.082-6.8867 6.8867-6.8867h25.816c3.8047 0 6.8867 3.082 6.8867 6.8867 0.003906 3.8008-3.082 6.8867-6.8867 6.8867z"/>
  <path d="m328.46 262.86c-2.3125 0-4.5703-1.1641-5.8711-3.2773l-12.91-20.977c-1.9922-3.2383-0.98438-7.4805 2.2539-9.4766 3.2422-1.9961 7.4844-0.98438 9.4766 2.2539l12.91 20.977c1.9922 3.2383 0.98438 7.4805-2.2539 9.4766-1.125 0.69531-2.3711 1.0234-3.6055 1.0234z"/>
  <path d="m395.9 297.71c-3.8047 0-6.8867-3.082-6.8867-6.8867v-22.266c0-3.8047 3.082-6.8867 6.8867-6.8867 3.8047 0 6.8867 3.082 6.8867 6.8867v22.266c0 3.8047-3.082 6.8867-6.8867 6.8867z"/>
  <path d="m460.78 335.14c-2.3711 0-4.6758-1.2227-5.957-3.418-1.918-3.2852-0.80859-7.5039 2.4805-9.4219l19.363-11.297c3.2891-1.918 7.5039-0.80469 9.418 2.4805 1.918 3.2852 0.80859 7.5039-2.4805 9.4219l-19.363 11.297c-1.0898 0.63672-2.2852 0.9375-3.4609 0.9375z"/>
  <path d="m331.03 335.14c-1.1797 0-2.375-0.30469-3.4648-0.94141l-19.363-11.297c-3.2852-1.918-4.3984-6.1328-2.4805-9.418 1.9141-3.2852 6.1328-4.3984 9.418-2.4805l19.363 11.297c3.2852 1.918 4.3984 6.1328 2.4805 9.418-1.2773 2.1992-3.582 3.4219-5.9531 3.4219z"/>
  <path d="m431.72 310.62c-1.1797 0-2.3711-0.30078-3.4648-0.9375-3.2852-1.918-4.3984-6.1328-2.4805-9.418l6.7773-11.617c1.918-3.2852 6.1328-4.3984 9.418-2.4805s4.3984 6.1328 2.4805 9.418l-6.7773 11.617c-1.2773 2.1914-3.5859 3.418-5.9531 3.418z"/>
  <path d="m360.41 310.62c-2.3203 0-4.5859-1.1719-5.8828-3.2969l-7.0977-11.617c-1.9844-3.2461-0.96094-7.4844 2.2852-9.4688 3.25-1.9844 7.4844-0.96094 9.4688 2.2852l7.0977 11.617c1.9844 3.2461 0.96094 7.4844-2.2852 9.4688-1.1211 0.68359-2.3594 1.0117-3.5859 1.0117z"/>
  <path d="m411.44 480.15c-0.17188-0.22656-0.67188-0.59766-1.4961-1.1133-0.82812-0.51172-1.8789-1.0664-3.1602-1.6641s-2.707-1.168-4.2734-1.7109c-1.5664-0.53906-3.1484-0.92578-4.7422-1.1523v11.621l2.7344 0.68359c2.9062 0.79688 5.5234 1.6641 7.8594 2.6055 2.3359 0.94141 4.3164 2.1094 5.9375 3.5039 1.625 1.3984 2.875 3.0898 3.7578 5.0859 0.88281 1.9961 1.3242 4.3867 1.3242 7.1758 0 3.25-0.57031 6.0117-1.7109 8.2891-1.1367 2.2773-2.6641 4.1445-4.5703 5.5977-1.9102 1.4531-4.1016 2.5508-6.5781 3.2891-2.4766 0.73828-5.0859 1.168-7.8203 1.2812v9.9102h-5.8945v-9.9961c-3.9297-0.34375-7.8164-1.1367-11.664-2.3945-3.8438-1.25-7.3047-2.9062-10.383-4.957l6.1523-12.219c0.22656 0.28516 0.83984 0.75391 1.8359 1.4102s2.2656 1.3398 3.8008 2.0508c1.5391 0.71484 3.2773 1.3945 5.2109 2.0508 1.9336 0.65625 3.9297 1.125 5.9805 1.4102v-11.363l-4.1016-1.1953c-2.793-0.85547-5.2109-1.7812-7.2617-2.7773-2.0508-0.99609-3.7461-2.1484-5.0859-3.4609-1.3398-1.3086-2.3359-2.8203-2.9922-4.5312-0.65625-1.707-0.98438-3.7031-0.98438-5.9805 0-2.9609 0.51172-5.5977 1.5391-7.9023 1.0234-2.3086 2.4062-4.2852 4.1445-5.9375 1.7344-1.6523 3.7891-2.9453 6.1523-3.8867 2.3633-0.94141 4.9141-1.5508 7.6484-1.8359v-8.6289h5.8945v8.6289c3.7031 0.33984 7.1758 1.168 10.426 2.4766 3.25 1.3125 6.0664 2.6484 8.4609 4.0156zm-23.668-0.76953c0 1.4258 0.49609 2.5508 1.4961 3.375 0.99609 0.82812 2.4922 1.5508 4.4883 2.1797v-10.512c-3.9922 0.34375-5.9844 1.9961-5.9844 4.957zm16.578 27.172c0-1.4805-0.59766-2.6328-1.793-3.4609-1.1992-0.82422-2.793-1.582-4.7852-2.2656v10.254c4.3828-0.16797 6.5781-1.6758 6.5781-4.5273z"/>
  <path d="m395.08 564.33c-39.066 0-70.848-31.781-70.848-70.848 0-39.066 31.781-70.848 70.848-70.848s70.848 31.781 70.848 70.848c0 39.062-31.781 70.848-70.848 70.848zm0-127.92c-31.469 0-57.07 25.602-57.07 57.07s25.602 57.07 57.07 57.07 57.07-25.602 57.07-57.07c0.003906-31.469-25.602-57.07-57.07-57.07z"/>
 </g>
</svg>