<?xml version="1.0" encoding="UTF-8"?>
<!-- The Best Svg Icon site in the world: iconSvg.co, Visit us! https://iconsvg.co -->
<svg fill="#000000" width="800px" height="800px" version="1.1" viewBox="144 144 512 512" xmlns="http://www.w3.org/2000/svg">
 <path d="m496.4 375.61c-44.855-24.93-75.137-6.1836-90.324 9.0352v-26.336c25.277-3.0117 44.949-24.547 44.949-50.629 0-28.133-22.895-51.027-51.027-51.027-28.133 0-51.027 22.895-51.027 51.027 0 26.082 19.672 47.613 44.949 50.629v24.312c-15.191-15.219-45.484-33.961-90.324-9.0469-1.6172 0.90625-2.7422 2.4883-3.043 4.3086-0.30078 1.8281 0.24219 3.6875 1.4805 5.0664 1.3359 1.4844 32.156 34.797 91.887 24.324v17.77h-81.57c-1.9141 0-3.7227 0.90234-4.8711 2.4453-1.1484 1.543-1.5 3.5234-0.94531 5.3594l31.633 106.15c0.76172 2.5781 3.1328 4.3359 5.8203 4.3359h118.11c2.8125 0 5.2539-1.9258 5.9141-4.6602l25.555-106.13c0.43359-1.8125 0.019532-3.7227-1.1367-5.1875-1.1523-1.457-2.9102-2.3125-4.7695-2.3125l-81.586-0.003906v-15.785c8.082 1.4141 15.668 2.0859 22.691 2.0859 44.855 0 68.043-25.086 69.191-26.363 1.2383-1.375 1.7852-3.2461 1.4805-5.0664-0.30078-1.8164-1.4219-3.3945-3.0391-4.2969zm-179.09 4.6758c38.605-17.316 62.531 3.4922 72.316 15.387-37.66 5.9492-61.719-7.3672-72.316-15.387zm140 150.9h-108.8l-28.012-93.98h159.44zm-96.18-223.5c0-21.434 17.438-38.867 38.867-38.867 21.434 0 38.867 17.438 38.867 38.867 0.003907 21.434-17.434 38.875-38.863 38.875-21.434 0-38.871-17.441-38.871-38.875zm49.199 90.008c9.7305-11.93 33.543-32.789 72.312-15.406-10.688 7.9688-34.902 21.273-72.312 15.406zm-12.52-65.512v-5.5156c-5.7734-0.61328-9.3711-4.1445-10.727-10.57l6.8164-1.8906c0.64062 4.0469 2.7148 6.0625 6.2812 6.0625 1.668 0 2.875-0.43359 3.6719-1.293 0.78125-0.85547 1.1797-1.9141 1.1797-3.1523 0-1.2578-0.39844-2.1953-1.1797-2.8555-0.79687-0.66016-2.5391-1.4922-5.2344-2.4844-2.418-0.89062-4.3086-1.7539-5.6914-2.6289-1.3672-0.86328-2.4531-2.082-3.3164-3.6367-0.83984-1.5312-1.2695-3.3672-1.2695-5.4258 0-2.7148 0.74609-5.1641 2.2812-7.3203 1.5117-2.1797 3.9102-3.4922 7.1836-3.9805v-4.2969h4.4102v4.2969c4.9258 0.62109 8.1211 3.5469 9.5938 8.7969l-6.1016 2.6367c-1.1875-3.6055-3.0273-5.4062-5.5-5.4062-1.2383 0-2.2539 0.39844-3.0039 1.2031-0.76562 0.80469-1.1328 1.7852-1.1328 2.9062 0 1.1797 0.36328 2.0703 1.082 2.6914 0.74609 0.60938 2.2812 1.4023 4.6914 2.3086 2.625 1.0234 4.6797 1.9648 6.168 2.8828 1.4805 0.88672 2.6758 2.1211 3.5703 3.6797 0.89062 1.5938 1.3281 3.4414 1.3281 5.5469 0 3.2305-0.91797 5.9336-2.7422 8.1016-1.832 2.1523-4.4883 3.4414-7.957 3.8047v5.5469l-4.4023-0.011719z"/>
</svg>