<?xml version="1.0" encoding="UTF-8"?>
<!-- The Best Svg Icon site in the world: iconSvg.co, Visit us! https://iconsvg.co -->
<svg fill="#000000" width="800px" height="800px" version="1.1" viewBox="144 144 512 512" xmlns="http://www.w3.org/2000/svg">
 <path d="m400 169.09c-106.5 0-189.93 35.812-189.93 81.555v298.71c0 45.723 83.422 81.555 189.93 81.555s189.93-35.832 189.93-81.555v-298.73c0-45.742-83.434-81.543-189.93-81.543zm179.43 380.27c0 38.512-82.164 71.059-179.43 71.059s-179.43-32.547-179.43-71.059v-47.672c25.441 32.043 95.113 54.539 179.43 54.539s153.99-22.504 179.43-54.539zm0-74.688c0 38.512-82.164 71.047-179.43 71.047s-179.43-32.539-179.43-71.047v-47.672c25.441 32.043 95.113 54.539 179.43 54.539s153.99-22.504 179.43-54.539zm0-74.668c0 38.5-82.164 71.059-179.43 71.059s-179.43-32.539-179.43-71.059v-47.672c25.441 32.043 95.113 54.527 179.43 54.527s153.99-22.492 179.43-54.527zm0-74.691c0 38.512-82.164 71.059-179.43 71.059s-179.43-32.539-179.43-71.059v-47.672c25.441 32.043 95.113 54.527 179.43 54.527s153.99-22.492 179.43-54.527zm-179.43-3.6406c-97.266 0-179.43-32.539-179.43-71.047 0-38.512 82.16-71.051 179.43-71.051 97.266 0 179.43 32.539 179.43 71.059 0 38.52-82.164 71.039-179.43 71.039z"/>
</svg>