<?xml version="1.0" encoding="UTF-8"?>
<!-- The Best Svg Icon site in the world: iconSvg.co, Visit us! https://iconsvg.co -->
<svg fill="#000000" width="800px" height="800px" version="1.1" viewBox="144 144 512 512" xmlns="http://www.w3.org/2000/svg">
 <g>
  <path d="m281.21 470.85-12.676 132.72 3.8594 16.844h34.793l3.8555-16.844-12.672-132.72z"/>
  <path d="m266.02 464.47-12.594-25.109h-18.734c-1.3438 0-2.6836 0.078125-4.0156 0.23438l26.688 115.48z"/>
  <path d="m179.58 620.41h76.672l-40.934-177.43c-10.48 3.9336-19.516 10.969-25.902 20.164-6.3828 9.1992-9.8164 20.121-9.8359 31.316z"/>
  <path d="m308.53 439.36h-37.473l7.8711 15.742h21.727z"/>
  <path d="m400 494.46c-0.023438-11.195-3.4531-22.117-9.8398-31.316-6.3828-9.1953-15.418-16.23-25.902-20.164l-40.934 177.43h76.676z"/>
  <path d="m348.91 439.59c-1.332-0.15625-2.6758-0.23438-4.0156-0.23438h-18.734l-12.594 25.113 8.6602 90.605z"/>
  <path d="m337.02 360.64c0 26.086-21.148 47.234-47.234 47.234-26.086 0-47.23-21.148-47.23-47.234 0-26.082 21.145-47.23 47.23-47.23 26.086 0 47.234 21.148 47.234 47.23"/>
  <path d="m541.7 203.2c-16.703 0-32.723 6.6328-44.531 18.445-11.809 11.809-18.445 27.828-18.445 44.531 0 16.699 6.6367 32.719 18.445 44.527 11.809 11.812 27.828 18.445 44.531 18.445 16.703 0 32.719-6.6328 44.531-18.445 11.809-11.809 18.445-27.828 18.445-44.527-0.019531-16.699-6.6602-32.707-18.465-44.512-11.809-11.805-27.816-18.449-44.512-18.465zm-7.8711 55.105h15.742v-0.003907c8.4375 0 16.234 4.5039 20.453 11.809 4.2188 7.3086 4.2188 16.309 0 23.617-4.2188 7.3047-12.016 11.809-20.453 11.809v7.8711c0 4.3477-3.5234 7.8711-7.8711 7.8711-4.3477 0-7.8711-3.5234-7.8711-7.8711v-7.8711c-6.2656 0-12.273-2.4883-16.699-6.918-4.4297-4.4297-6.918-10.438-6.918-16.699 0-4.3477 3.5234-7.8711 7.8711-7.8711s7.8711 3.5234 7.8711 7.8711c0 2.0898 0.83203 4.0898 2.3086 5.5664 1.4766 1.4766 3.4766 2.3047 5.5664 2.3047h15.742c4.3477 0 7.8711-3.5234 7.8711-7.8711 0-4.3477-3.5234-7.8711-7.8711-7.8711h-15.742c-8.4375 0-16.234-4.5-20.453-11.809-4.2188-7.3086-4.2188-16.309 0-23.617 4.2188-7.3047 12.016-11.809 20.453-11.809v-7.8711c0-4.3477 3.5234-7.8711 7.8711-7.8711 4.3477 0 7.8711 3.5234 7.8711 7.8711v7.8711c6.2656 0 12.27 2.4883 16.699 6.918 4.4297 4.4297 6.918 10.438 6.918 16.699 0 4.3477-3.5234 7.8711-7.8711 7.8711s-7.875-3.5234-7.875-7.8711c0-2.0859-0.82812-4.0898-2.3047-5.5664-1.4766-1.4766-3.4766-2.3047-5.5664-2.3047h-15.742c-4.3477 0-7.875 3.5234-7.875 7.8711 0 4.3477 3.5273 7.8711 7.875 7.8711z"/>
  <path d="m541.7 179.58c-22.965 0-44.992 9.1211-61.23 25.363-16.238 16.238-25.363 38.262-25.363 61.23 0 22.965 9.125 44.988 25.363 61.227 16.238 16.242 38.266 25.363 61.23 25.363 22.965 0 44.992-9.1211 61.23-25.363 16.238-16.238 25.363-38.262 25.363-61.227-0.027343-22.961-9.1602-44.969-25.395-61.203-16.234-16.23-38.242-25.363-61.199-25.391zm0 165.31c-20.879 0-40.902-8.293-55.664-23.059-14.762-14.762-23.055-34.785-23.055-55.66 0-20.879 8.293-40.902 23.055-55.664 14.762-14.766 34.785-23.059 55.664-23.059 20.879 0 40.898 8.293 55.664 23.059 14.762 14.762 23.055 34.785 23.055 55.664-0.023437 20.871-8.3242 40.879-23.082 55.637-14.758 14.758-34.766 23.059-55.637 23.082z"/>
  <path d="m289.07 281.42c1.9609 0.74219 4.1328 0.67188 6.043-0.19531 1.9062-0.86719 3.3906-2.4609 4.1211-4.4258 10.75-28.496 29.91-53.051 54.934-70.41 25.023-17.363 54.73-26.711 85.188-26.809 4.3477 0 7.8711-3.5234 7.8711-7.8711 0-4.3477-3.5234-7.875-7.8711-7.875-33.668 0.10547-66.508 10.434-94.172 29.625-27.66 19.188-48.84 46.332-60.727 77.828-1.5234 4.0742 0.54297 8.6094 4.6133 10.133z"/>
  <path d="m612.54 360.64c-4.3477 0-7.8711 3.5273-7.8711 7.875-0.042969 39.652-15.816 77.672-43.855 105.71-28.043 28.039-66.059 43.812-105.71 43.855-4.3477 0-7.8711 3.5234-7.8711 7.8711 0 4.3477 3.5234 7.875 7.8711 7.875 43.828-0.050781 85.852-17.48 116.84-48.473 30.992-30.992 48.426-73.012 48.473-116.84 0-2.0898-0.82812-4.0898-2.3047-5.5664-1.4766-1.4766-3.4766-2.3086-5.5664-2.3086z"/>
 </g>
</svg>