<?xml version="1.0" encoding="UTF-8"?>
<!-- The Best Svg Icon site in the world: iconSvg.co, Visit us! https://iconsvg.co -->
<svg width="800px" height="800px" version="1.1" viewBox="144 144 512 512" xmlns="http://www.w3.org/2000/svg">
 <defs>
  <clipPath id="b">
   <path d="m148.09 148.09h503.81v503.81h-503.81z"/>
  </clipPath>
  <clipPath id="a">
   <path d="m274 148.09h252v335.91h-252z"/>
  </clipPath>
 </defs>
 <path d="m452.48 420.99h157.44v20.992h-157.44z"/>
 <path d="m190.08 420.99h157.44v20.992h-157.44z"/>
 <g clip-path="url(#b)">
  <path d="m620.41 148.09h-104.96v20.992h104.96c2.7852 0 5.4531 1.1055 7.4219 3.0742s3.0742 4.6367 3.0742 7.4219v314.88c0 2.7852-1.1055 5.457-3.0742 7.4219-1.9688 1.9688-4.6367 3.0742-7.4219 3.0742h-440.83c-5.7969 0-10.496-4.6992-10.496-10.496v-314.88c0-5.7969 4.6992-10.496 10.496-10.496h104.96v-20.992h-104.96c-8.3516 0-16.359 3.3164-22.266 9.2227s-9.2227 13.914-9.2227 22.266v314.88c0 8.3516 3.3164 16.363 9.2227 22.266 5.9062 5.9062 13.914 9.2227 22.266 9.2227h136.45v62.977h-20.992c-5.7969 0-10.496 4.6992-10.496 10.496v31.488h-20.992v20.992h272.89v-20.992h-20.992v-31.488c0-2.7812-1.1055-5.4531-3.0742-7.4219-1.9648-1.9688-4.6367-3.0742-7.4219-3.0742h-20.992v-62.977h136.45c8.3516 0 16.363-3.3164 22.266-9.2227 5.9062-5.9023 9.2227-13.914 9.2227-22.266v-314.88c0-8.3516-3.3164-16.359-9.2227-22.266-5.9023-5.9062-13.914-9.2227-22.266-9.2227zm-125.95 482.82h-188.93v-20.992h188.93zm-31.488-41.984h-125.95v-62.977h125.95z"/>
 </g>
 <path d="m599.42 400v-188.93c0-2.7852-1.1055-5.4531-3.0742-7.4219s-4.6367-3.0742-7.4219-3.0742h-41.984v20.992h31.488v178.43z"/>
 <path d="m253.05 221.57v-20.992h-41.984c-5.7969 0-10.496 4.6992-10.496 10.496v188.93h20.992v-178.43z"/>
 <g clip-path="url(#a)">
  <path d="m389.5 399.46v23.457c-6.1211 2.1641-11.422 6.1641-15.18 11.453-3.7539 5.293-5.7852 11.613-5.8125 18.105v31.488h20.992v-31.488c0-5.7969 4.6992-10.496 10.496-10.496s10.496 4.6992 10.496 10.496v31.488h20.992v-31.488c-0.027343-6.4922-2.0586-12.812-5.8164-18.105-3.7578-5.2891-9.0586-9.2891-15.176-11.453v-23.457c43.594-3.6484 82.18-29.656 101.91-68.699 19.734-39.047 17.793-85.535-5.1289-122.8-22.918-37.266-63.535-59.969-107.28-59.969-43.75 0-84.367 22.703-107.29 59.969-22.922 37.266-24.859 83.754-5.125 122.8 19.734 39.043 58.316 65.051 101.91 68.699zm10.496-230.38c27.836 0 54.531 11.059 74.215 30.742 19.688 19.684 30.742 46.379 30.742 74.219 0 27.836-11.055 54.535-30.742 74.219-19.684 19.684-46.379 30.742-74.215 30.742-27.84 0-54.535-11.059-74.219-30.742s-30.742-46.383-30.742-74.219c0.03125-27.828 11.098-54.508 30.773-74.184 19.68-19.68 46.359-30.746 74.188-30.777z"/>
 </g>
 <path d="m379.01 326.53h10.496v20.992h20.992v-20.992h10.496c5.5664 0 10.906-2.2109 14.844-6.1484 3.9336-3.9375 6.1484-9.2773 6.1484-14.844v-20.992c0-5.5664-2.2148-10.906-6.1484-14.844-3.9375-3.9375-9.2773-6.1484-14.844-6.1484h-41.984v-20.992h41.984v10.496h20.992v-10.496c0-5.5664-2.2148-10.906-6.1484-14.844-3.9375-3.9375-9.2773-6.1484-14.844-6.1484h-10.496v-20.992h-20.992v20.992h-10.496c-5.5703 0-10.91 2.2109-14.844 6.1484-3.9375 3.9375-6.1484 9.2773-6.1484 14.844v20.992c0 5.5664 2.2109 10.906 6.1484 14.844 3.9336 3.9375 9.2734 6.1484 14.844 6.1484h41.984v20.992h-41.984v-10.496h-20.992v10.496c0 5.5664 2.2109 10.906 6.1484 14.844 3.9336 3.9375 9.2734 6.1484 14.844 6.1484z"/>
 <path d="m316.03 263.55h20.992v20.992h-20.992z"/>
 <path d="m462.98 263.55h20.992v20.992h-20.992z"/>
</svg>