<?xml version="1.0" encoding="UTF-8"?>
<!-- The Best Svg Icon site in the world: iconSvg.co, Visit us! https://iconsvg.co -->
<svg fill="#000000" width="800px" height="800px" version="1.1" viewBox="144 144 512 512" xmlns="http://www.w3.org/2000/svg">
 <g>
  <path d="m471.34 381.13c2.6914 3.8203 3.0352 8.8203 0.88672 12.973-2.1445 4.1523-6.4258 6.7617-11.102 6.7656h-25.512v211.74c-0.007813 3.9883-3.2344 7.2227-7.2227 7.2383h-56.715c-3.9922-0.007812-7.2305-3.2422-7.2383-7.2383v-211.74h-25.602c-4.6602-0.03125-8.9219-2.6445-11.066-6.7852-2.1406-4.1406-1.8125-9.1289 0.85547-12.953l61.191-86.242h-0.003906c2.3516-3.3047 6.1562-5.2695 10.215-5.2695 4.0547 0 7.8594 1.9648 10.215 5.2695z"/>
  <path d="m333.13 490.64c2.6992 3.8125 3.0469 8.8125 0.89453 12.961-2.1484 4.1484-6.4375 6.7461-11.109 6.7344h-25.508v102.27c-0.007812 3.9961-3.2461 7.2305-7.2383 7.2383h-56.715c-3.9922-0.007812-7.2305-3.2422-7.2383-7.2383v-102.27h-25.602c-4.6523 0.011719-8.918-2.5898-11.039-6.7305-2.1875-4.1445-1.8867-9.1602 0.78125-13.008l61.25-86.246c2.3672-3.2852 6.1719-5.2305 10.223-5.2188 4.0508 0.007813 7.8516 1.9688 10.203 5.2656z"/>
  <path d="m610.48 284.54c-2.1211 4.1953-6.4258 6.832-11.129 6.8242h-25.512v321.25c0.007812 1.9141-0.74609 3.75-2.0938 5.1094-1.3516 1.3555-3.1836 2.1211-5.0977 2.1289h-56.73c-1.9141-0.007812-3.7461-0.77344-5.0938-2.1289-1.3516-1.3594-2.1055-3.1953-2.0977-5.1094v-321.25h-25.648c-4.6641-0.035156-8.9219-2.6484-11.066-6.7891-2.1406-4.1406-1.8125-9.125 0.85156-12.953l61.176-86.242c2.3711-3.2773 6.168-5.2227 10.215-5.2227 4.0469 0 7.8438 1.9453 10.215 5.2227l61.098 86.289c2.7109 3.7734 3.0664 8.75 0.91406 12.871z"/>
 </g>
</svg>