<?xml version="1.0" encoding="UTF-8"?>
<!-- The Best Svg Icon site in the world: iconSvg.co, Visit us! https://iconsvg.co -->
<svg fill="#000000" width="800px" height="800px" version="1.1" viewBox="144 144 512 512" xmlns="http://www.w3.org/2000/svg">
 <g>
  <path d="m337.02 289.79h55.105v16.207l-0.003906 0.003906c-24.223 2.707-45.352 17.676-55.941 39.633-10.586 21.953-9.1484 47.809 3.8164 68.453 12.961 20.641 35.625 33.172 60 33.172 24.371 0 47.035-12.531 60-33.172 12.961-20.645 14.402-46.5 3.8125-68.453-10.586-21.957-31.719-36.926-55.941-39.633v-47.699h55.105c14.605-0.015625 28.613-5.8281 38.941-16.16 10.332-10.328 16.141-24.332 16.16-38.941v-31.488c0-2.0898-0.82812-4.0898-2.3047-5.5664-1.4766-1.4766-3.4805-2.3086-5.5664-2.3086h-62.977c-13.473 0.023437-26.473 4.9727-36.547 13.922-10.074 8.9492-16.523 21.273-18.133 34.648-10.359-10.902-24.742-17.078-39.785-17.082h-62.977c-4.3477 0-7.8711 3.5273-7.8711 7.875v31.488c0.019531 14.605 5.832 28.613 16.16 38.941 10.332 10.332 24.336 16.141 38.945 16.16zm118.08 86.594c0 14.613-5.8047 28.629-16.137 38.965-10.336 10.332-24.352 16.141-38.965 16.141-14.617 0-28.633-5.8086-38.965-16.141-10.336-10.336-16.141-24.352-16.141-38.965 0-14.613 5.8047-28.633 16.141-38.965 10.332-10.336 24.348-16.141 38.965-16.141 14.605 0.019531 28.613 5.832 38.941 16.16 10.332 10.332 16.141 24.336 16.16 38.945zm-7.8711-196.8h55.105v23.617c-0.011719 10.434-4.1641 20.438-11.543 27.816-7.3789 7.3789-17.383 11.531-27.816 11.543h-55.105v-15.746h55.105v-15.742h-54.32c1.8281-8.8828 6.6641-16.867 13.688-22.602 7.0273-5.7383 15.816-8.875 24.887-8.8867zm-149.57 31.488h55.105-0.003906c9.0703 0.011719 17.859 3.1484 24.887 8.8867 7.0273 5.7344 11.859 13.715 13.688 22.602h-54.316v15.742h55.105v15.742l-55.105 0.003906c-10.438-0.011719-20.441-4.1641-27.82-11.543s-11.527-17.383-11.539-27.816z"/>
  <path d="m392.12 329.15v9.3242c-7.0547 2.4844-12.508 8.168-14.699 15.32-2.1914 7.1523-0.85547 14.918 3.5977 20.93 4.4531 6.0078 11.496 9.5469 18.977 9.5312 3.1836 0 6.0547 1.918 7.2695 4.8594 1.2188 2.9414 0.54688 6.3281-1.7031 8.5781-2.2539 2.2539-5.6406 2.9258-8.582 1.707s-4.8594-4.0898-4.8594-7.2734h-15.742c0.019532 4.8672 1.543 9.6094 4.3633 13.578 2.8164 3.9688 6.793 6.9688 11.379 8.5898v9.3203h15.742l0.003906-9.3203c7.0547-2.4844 12.512-8.1719 14.699-15.32 2.1914-7.1523 0.85547-14.922-3.5977-20.93-4.4531-6.0078-11.496-9.5469-18.973-9.5312-3.1836 0-6.0547-1.918-7.2734-4.8594s-0.54687-6.3281 1.707-8.582c2.25-2.25 5.6367-2.9219 8.5781-1.7031 2.9414 1.2188 4.8594 4.0859 4.8594 7.2695h15.742c-0.019531-4.8672-1.543-9.6055-4.3594-13.574-2.8203-3.9688-6.793-6.9688-11.383-8.5898v-9.3242z"/>
  <path d="m242.56 494.46h149.57v31.488h15.742l0.003906-31.488h149.57v31.488h15.742l0.003906-31.488c0-4.1719-1.6602-8.1797-4.6133-11.133-2.9531-2.9492-6.957-4.6094-11.133-4.6094h-149.57v-15.742h-15.746v15.742h-149.57c-4.1758 0-8.1797 1.6602-11.133 4.6094-2.9531 2.9531-4.6133 6.9609-4.6133 11.133v31.488h15.742z"/>
  <path d="m274.05 541.7h-78.723c-4.3477 0-7.8711 3.5234-7.8711 7.8711v78.723c0 2.0859 0.83203 4.0898 2.3047 5.5664 1.4766 1.4727 3.4805 2.3047 5.5664 2.3047h78.723c2.0859 0 4.0898-0.83203 5.5664-2.3047 1.4766-1.4766 2.3047-3.4805 2.3047-5.5664v-78.723c0-2.0859-0.82812-4.0898-2.3047-5.5664-1.4766-1.4766-3.4805-2.3047-5.5664-2.3047zm-7.8711 78.719h-62.977v-62.977h62.977z"/>
  <path d="m439.36 541.7h-78.723c-4.3477 0-7.8711 3.5234-7.8711 7.8711v78.723c0 2.0859 0.83203 4.0898 2.3047 5.5664 1.4766 1.4727 3.4805 2.3047 5.5664 2.3047h78.723c2.0859 0 4.0898-0.83203 5.5664-2.3047 1.4766-1.4766 2.3047-3.4805 2.3047-5.5664v-78.723c0-2.0859-0.82812-4.0898-2.3047-5.5664-1.4766-1.4766-3.4805-2.3047-5.5664-2.3047zm-7.8711 78.719h-62.977v-62.977h62.977z"/>
  <path d="m604.67 541.7h-78.723c-4.3477 0-7.8711 3.5234-7.8711 7.8711v78.723c0 2.0859 0.83203 4.0898 2.3047 5.5664 1.4766 1.4727 3.4805 2.3047 5.5664 2.3047h78.723c2.0859 0 4.0898-0.83203 5.5664-2.3047 1.4766-1.4766 2.3047-3.4805 2.3047-5.5664v-78.723c0-2.0859-0.82812-4.0898-2.3047-5.5664-1.4766-1.4766-3.4805-2.3047-5.5664-2.3047zm-7.8711 78.719h-62.977v-62.977h62.977z"/>
 </g>
</svg>