<?xml version="1.0" encoding="UTF-8"?>
<!-- The Best Svg Icon site in the world: iconSvg.co, Visit us! https://iconsvg.co -->
<svg fill="#000000" width="800px" height="800px" version="1.1" viewBox="144 144 512 512" xmlns="http://www.w3.org/2000/svg">
 <g>
  <path d="m550.23 417.34c-5.2578-4.6602-11.938-7.4023-18.953-7.7812 20.734-22.266 29.051-53.375 22.188-83.016-6.8633-29.641-28.008-53.93-56.418-64.812-28.41-10.883-60.371-6.9375-85.281 10.531-24.906 17.473-39.504 46.176-38.949 76.594 0.55469 30.418 16.191 58.574 41.719 75.121 25.531 16.551 57.613 19.328 85.609 7.4141-1.0117 3.1562-1.5352 6.4492-1.5547 9.7617-0.29688 37.059-26.293 68.832-62.68 81.672 8.4805-9.3281 13-21.59 12.598-34.191-0.39844-12.602-5.6836-24.551-14.738-33.324-9.0547-8.7734-21.168-13.676-33.777-13.676-12.605 0-24.719 4.9023-33.773 13.676-9.0547 8.7734-14.344 20.723-14.742 33.324-0.39844 12.602 4.1172 24.863 12.602 34.191-36.684-12.898-62.719-44.961-62.719-82.371h-0.003907c-0.011718-8.625-3.6055-16.859-9.918-22.738-6.3555-5.9023-14.902-8.8516-23.547-8.1289-16.207 1.2773-28.734 15.684-28.535 32.816 0.62109 46.738 23.891 89.801 63.852 118.08 2.707 1.8633 5.0859 4.1602 7.043 6.7969 2.875 3.9961 7.6953 11.809 7.6953 19.09v28.539c0 2.6719 2.168 4.8398 4.8438 4.8398 2.6719 0 4.8398-2.168 4.8398-4.8398v-28.535c0-9.5039-5.1758-18.695-9.5234-24.738v-0.003906c-2.582-3.5039-5.7227-6.5586-9.3008-9.043-37.391-26.52-59.199-66.754-59.777-110.38-0.15625-12.035 8.4414-22.16 19.59-23.035 5.9766-0.50781 11.887 1.5508 16.258 5.6602 4.3789 4.0352 6.875 9.7188 6.8867 15.676 0 52.605 45.934 95.676 103.37 97.996 3.2695 0.32813 6.5664 0.32813 9.8398 0 57.023-2.332 102.95-45.066 103.32-97.277 0.089844-11.07 8.3242-20.664 18.754-21.902v-0.003906c6.0664-0.74219 12.16 1.1523 16.734 5.2031 4.5781 4.0547 7.1953 9.8711 7.1953 15.984 0 44.566-23.086 86.996-61.738 113.5-8.2344 5.6484-13.777 13.105-16.117 21.59l0.003906-0.003906c-0.85938 3.1289-1.3008 6.3594-1.3086 9.6055v29.797-0.003906c0.11719 2.5859 2.2461 4.625 4.8359 4.625 2.5898 0 4.7188-2.0391 4.8359-4.625v-29.793c0.015625-2.3906 0.34766-4.7656 0.98438-7.0664 2.1562-7.8711 7.8711-13.117 12.262-16.137 41.328-28.32 65.93-73.73 65.93-121.48h-0.003906c-0.015625-8.8594-3.8086-17.289-10.43-23.176zm-189.1 72.887c0.011719-10.066 3.9258-19.734 10.918-26.973 6.9961-7.2383 16.527-11.48 26.586-11.836 10.059-0.35156 19.863 3.2109 27.352 9.9375 7.4844 6.7305 12.066 16.102 12.785 26.141 0.71484 10.039-2.4922 19.969-8.9453 27.691-6.457 7.7227-15.656 12.641-25.664 13.719-1.3789 0.050781-2.7734 0.089844-4.1719 0.089844-1.3984 0-2.7734 0-4.1641-0.089844h0.003906c-9.5352-1.0391-18.348-5.5625-24.75-12.703-6.4023-7.1367-9.9453-16.387-9.9492-25.977zm21.098-143.26c0-21.762 8.6445-42.633 24.035-58.023 15.387-15.387 36.258-24.031 58.023-24.031 21.762 0 42.633 8.6445 58.02 24.031 15.391 15.391 24.035 36.262 24.035 58.023 0 21.762-8.6445 42.633-24.035 58.023-15.387 15.387-36.258 24.031-58.02 24.031-21.758-0.023437-42.613-8.6797-57.996-24.062-15.383-15.383-24.035-36.238-24.062-57.992z"/>
  <path d="m464.29 283.38c-16.863 0-33.035 6.6992-44.957 18.621-11.922 11.926-18.621 28.094-18.621 44.957 0 16.863 6.6992 33.031 18.621 44.957 11.922 11.922 28.094 18.621 44.957 18.621 16.859 0 33.031-6.6992 44.953-18.621 11.922-11.926 18.621-28.094 18.621-44.957-0.019531-16.855-6.7227-33.016-18.641-44.934-11.918-11.922-28.078-18.625-44.934-18.645zm0 117.47v0.003907c-14.297 0-28.008-5.6797-38.117-15.789s-15.789-23.82-15.789-38.117 5.6836-28.008 15.793-38.117 23.82-15.785 38.117-15.785c14.297 0.003906 28.008 5.6836 38.117 15.793 10.105 10.113 15.785 23.824 15.781 38.121-0.015625 14.289-5.6992 27.992-15.805 38.094-10.105 10.105-23.809 15.785-38.098 15.801z"/>
  <path d="m289.15 326.13c12.539 0.011719 24.574-4.957 33.453-13.82 8.875-8.8594 13.867-20.887 13.875-33.426 0.007812-12.543-4.9648-24.578-13.832-33.449-8.8633-8.875-20.891-13.863-33.434-13.867-12.543-0.003906-24.57 4.9766-33.441 13.844-8.8711 8.8672-13.855 20.895-13.855 33.438 0.015625 12.527 4.9961 24.535 13.848 33.398 8.8555 8.8633 20.859 13.855 33.387 13.883zm0-84.891c9.9727 0 19.539 3.9648 26.59 11.016 7.0547 7.0547 11.016 16.621 11.016 26.594 0 9.9766-3.9609 19.539-11.016 26.594-7.0508 7.0547-16.617 11.016-26.59 11.016-9.9766 0-19.543-3.9609-26.594-11.016-7.0547-7.0547-11.016-16.617-11.016-26.594 0.007812-9.9727 3.9766-19.531 11.027-26.582 7.0508-7.0508 16.609-11.016 26.582-11.027z"/>
  <path d="m386.97 250.93c9.3984 0.011718 18.418-3.7109 25.07-10.348 6.6523-6.6367 10.395-15.648 10.406-25.047 0.007813-9.3945-3.7188-18.414-10.359-25.062-6.6406-6.6484-15.652-10.387-25.051-10.395-9.3984-0.003906-18.41 3.7266-25.059 10.371-6.6484 6.6445-10.383 15.656-10.383 25.055 0 9.3867 3.7266 18.391 10.359 25.031 6.6328 6.6406 15.629 10.379 25.016 10.395zm0-61.086v-0.003906c6.8164 0 13.355 2.7109 18.176 7.5273 4.8203 4.8203 7.5273 11.359 7.5273 18.176s-2.707 13.355-7.5273 18.176c-4.8203 4.8203-11.359 7.5273-18.176 7.5273s-13.352-2.707-18.172-7.5273c-4.8203-4.8203-7.5273-11.359-7.5273-18.176 0.007813-6.8125 2.7188-13.344 7.5391-18.164 4.8164-4.8164 11.348-7.5273 18.16-7.5391z"/>
  <path d="m464.29 338.58c-4.3789 0-8.3281-2.6367-10-6.6836-1.6758-4.043-0.75-8.6992 2.3438-11.797 3.0977-3.0938 7.7539-4.0195 11.797-2.3438 4.043 1.6758 6.6836 5.6211 6.6836 10-0.058594 1.1914 0.375 2.3516 1.1992 3.2148 0.82031 0.86328 1.9609 1.3516 3.1523 1.3516 1.1914 0 2.332-0.48828 3.1562-1.3516 0.82031-0.86328 1.2539-2.0234 1.1992-3.2148-0.007812-4.4258-1.5117-8.7188-4.2695-12.18-2.7617-3.457-6.6094-5.8828-10.926-6.8711v-4.4492c0.058594-1.1914-0.375-2.3516-1.1992-3.2148-0.82031-0.86328-1.9609-1.3516-3.1523-1.3516-1.1914 0-2.332 0.48828-3.1562 1.3516-0.82031 0.86328-1.2539 2.0234-1.1992 3.2148v4.4492c-6.2969 1.4414-11.477 5.8984-13.836 11.914-2.3594 6.0117-1.5938 12.805 2.0469 18.141 3.6367 5.3398 9.6797 8.5352 16.141 8.5391 3.9414-0.003906 7.7266 1.5586 10.516 4.3477 2.7891 2.7852 4.3594 6.5703 4.3594 10.512 0.003906 3.9453-1.5625 7.7266-4.3516 10.516-2.7852 2.793-6.5664 4.3594-10.512 4.3594-3.9453 0-7.7266-1.5664-10.516-4.3516-2.7891-2.7891-4.3555-6.5703-4.3555-10.516 0.054688-1.1914-0.37891-2.3516-1.1992-3.2148-0.82422-0.86328-1.9648-1.3516-3.1562-1.3516-1.1914 0-2.332 0.48828-3.1562 1.3516-0.82031 0.86328-1.2539 2.0234-1.1992 3.2148 0.011719 5.4922 1.9336 10.812 5.4414 15.039 3.5078 4.2266 8.3789 7.1016 13.777 8.125v4.3594c-0.054687 1.1875 0.37891 2.3516 1.1992 3.2148 0.82422 0.86328 1.9648 1.3516 3.1562 1.3516 1.1914 0 2.332-0.48828 3.1523-1.3516 0.82422-0.86328 1.2578-2.0273 1.1992-3.2148v-4.3594c7.6562-1.582 14.035-6.8516 17.035-14.07 2.9961-7.2188 2.2305-15.453-2.0547-21.996-4.2812-6.5391-11.523-10.535-19.336-10.676z"/>
 </g>
</svg>