<?xml version="1.0" encoding="UTF-8"?>
<!-- The Best Svg Icon site in the world: iconSvg.co, Visit us! https://iconsvg.co -->
<svg fill="#000000" width="800px" height="800px" version="1.1" viewBox="144 144 512 512" xmlns="http://www.w3.org/2000/svg">
 <g>
  <path d="m295.04 389.5c25.051 0 49.078-9.9531 66.797-27.668 17.715-17.719 27.668-41.746 27.668-66.797 0-25.055-9.9531-49.082-27.668-66.797-17.719-17.715-41.746-27.668-66.797-27.668-25.055 0-49.082 9.9531-66.797 27.668-17.715 17.715-27.668 41.742-27.668 66.797 0 25.051 9.9531 49.078 27.668 66.797 17.715 17.715 41.742 27.668 66.797 27.668zm-20.992-83.969c-5.7969 0-10.496-4.6992-10.496-10.496v-31.488c0-5.7969 4.6992-10.496 10.496-10.496h10.496c0-5.7969 4.6992-10.496 10.496-10.496 5.7969 0 10.496 4.6992 10.496 10.496h10.496c5.7969 0 10.496 4.6992 10.496 10.496s-4.6992 10.496-10.496 10.496h-31.488v10.496h31.488c2.7812 0 5.4531 1.1055 7.4219 3.0742s3.0742 4.6367 3.0742 7.4219v31.488c0 2.7812-1.1055 5.4531-3.0742 7.4219s-4.6406 3.0742-7.4219 3.0742h-10.496c0 5.7969-4.6992 10.496-10.496 10.496-5.7969 0-10.496-4.6992-10.496-10.496h-10.496c-5.7969 0-10.496-4.6992-10.496-10.496s4.6992-10.496 10.496-10.496h31.488v-10.496z"/>
  <path d="m200.57 494.46h2.0977c207.82-41.98 339.44-188.93 386.25-250.64v19.734c0 2.7812 1.1055 5.4531 3.0742 7.4219s4.6406 3.0742 7.4219 3.0742c2.7852 0 5.4531-1.1055 7.4219-3.0742s3.0742-4.6406 3.0742-7.4219v-52.48c0.13672-3.3789-1.3594-6.6133-4.0234-8.6953-2.6641-2.0781-6.168-2.75-9.4102-1.8008l-50.383 14.801c-5.5625 1.6211-8.7578 7.4492-7.1367 13.012 0.77734 2.6992 2.6055 4.9688 5.0703 6.3125 2.4648 1.3398 5.3633 1.6367 8.0508 0.82812l20.992-6.2969c-43.559 58.355-171.09 203.73-374.6 244.24-2.7852 0.27734-5.3438 1.6484-7.1172 3.8164-1.7695 2.1641-2.6094 4.9453-2.332 7.7266 0.58203 5.7969 5.75 10.027 11.547 9.4453z"/>
  <path d="m620.41 578.43h-10.496v-157.44c0-2.7852-1.1055-5.4531-3.0742-7.4219s-4.6367-3.0742-7.4219-3.0742h-104.96c-5.7969 0-10.496 4.6992-10.496 10.496v157.44h-20.988v-94.465c0-2.7812-1.1094-5.4531-3.0742-7.418-1.9688-1.9688-4.6406-3.0742-7.4219-3.0742h-104.96c-5.7969 0-10.496 4.6992-10.496 10.492v94.465h-20.992v-52.48c0-2.7812-1.1055-5.4531-3.0742-7.4219-1.9688-1.9648-4.6406-3.0742-7.4219-3.0742h-104.96c-5.7969 0-10.496 4.6992-10.496 10.496v52.48h-10.496c-5.7969 0-10.496 4.6992-10.496 10.496s4.6992 10.496 10.496 10.496h440.83c5.7969 0 10.496-4.6992 10.496-10.496s-4.6992-10.496-10.496-10.496z"/>
 </g>
</svg>