<?xml version="1.0" encoding="UTF-8"?>
<!-- The Best Svg Icon site in the world: iconSvg.co, Visit us! https://iconsvg.co -->
<svg fill="#000000" width="800px" height="800px" version="1.1" viewBox="144 144 512 512" xmlns="http://www.w3.org/2000/svg">
 <g>
  <path d="m620.41 365.5c5.375-6.0938 8.1836-14.027 7.8438-22.145-0.33594-8.1133-3.8008-15.785-9.6641-21.41-5.8633-5.6211-13.672-8.7617-21.793-8.7617-8.125 0-15.934 3.1406-21.797 8.7617-5.8633 5.625-9.3242 13.297-9.6641 21.41-0.33984 8.1172 2.4688 16.051 7.8438 22.145v18.75h-15.746v-181.05c-0.011719-10.438-4.1602-20.441-11.539-27.82-7.3789-7.3789-17.383-11.527-27.82-11.543h-314.88c-10.438 0.015624-20.441 4.1641-27.82 11.543s-11.527 17.383-11.543 27.82v393.6c0.015624 10.434 4.1641 20.438 11.543 27.816 7.3789 7.3789 17.383 11.531 27.82 11.543h314.88c10.438-0.011718 20.441-4.1641 27.82-11.543 7.3789-7.3789 11.527-17.383 11.539-27.816v-196.8h15.742l0.003906 125.95c0 2.0898 0.82812 4.0898 2.3047 5.5664 1.4766 1.4766 3.4805 2.3086 5.5664 2.3086h31.488c2.0898 0 4.0898-0.83203 5.5664-2.3086s2.3047-3.4766 2.3047-5.5664v-125.95h15.742l0.003906-15.746h-15.746zm-78.719 231.3c0 6.2617-2.4883 12.27-6.918 16.699-4.4297 4.4258-10.434 6.9141-16.699 6.9141h-314.88c-6.2656 0-12.273-2.4883-16.699-6.9141-4.4297-4.4297-6.918-10.438-6.918-16.699v-393.6c0-6.2656 2.4883-12.273 6.918-16.699 4.4258-4.4297 10.434-6.918 16.699-6.918h314.88c6.2656 0 12.27 2.4883 16.699 6.918 4.4297 4.4258 6.918 10.434 6.918 16.699zm62.977-78.719-15.746-0.003906v-78.719h15.742zm0-94.465-15.746-0.003907v-23.613h15.742zm0-39.359-15.746-0.003906v-8.9883c5.1445 1.4883 10.602 1.4883 15.746 0zm-7.8711-23.617v-0.003906c-4.1758 0-8.1836-1.6562-11.133-4.6094-2.9531-2.9531-4.6133-6.957-4.6133-11.133s1.6602-8.1797 4.6133-11.133c2.9492-2.9531 6.957-4.6133 11.133-4.6133s8.1797 1.6602 11.133 4.6133c2.9492 2.9531 4.6094 6.957 4.6094 11.133s-1.6602 8.1797-4.6094 11.133c-2.9531 2.9531-6.957 4.6094-11.133 4.6094z"/>
  <path d="m449.51 350.48c3.1055 3.043 8.0742 3.043 11.18 0 0.69531-0.76953 1.2539-1.6445 1.6523-2.5977 0.83984-1.9062 0.83984-4.0781 0-5.9844-0.37891-0.96094-0.94141-1.8438-1.6523-2.5977-0.375-0.33984-0.76953-0.65234-1.1797-0.94531-0.4375-0.29688-0.91406-0.53516-1.418-0.70703-0.44531-0.22656-0.92188-0.38672-1.418-0.47266-1.5312-0.32422-3.1289-0.16016-4.5664 0.47266-0.95312 0.39844-1.832 0.95703-2.5977 1.6523-0.71094 0.75391-1.2695 1.6367-1.6523 2.5977-0.83984 1.9062-0.83984 4.0781 0 5.9844 0.40234 0.95312 0.96094 1.8281 1.6523 2.5977z"/>
  <path d="m357.65 352.21c0.94922 0.375 1.9648 0.5625 2.9883 0.55078 2.6367 0.027344 5.1055-1.2773 6.5664-3.4688s1.7148-4.9727 0.67578-7.3945c-0.37891-0.96094-0.94141-1.8438-1.6523-2.5977-0.76562-0.69531-1.6445-1.2539-2.5977-1.6523-1.4336-0.63281-3.0312-0.79688-4.5664-0.47266-0.49219 0.085937-0.96875 0.24609-1.4141 0.47266-0.50391 0.17188-0.98047 0.41016-1.418 0.70703-0.41406 0.29297-0.80859 0.60547-1.1797 0.94531-0.71484 0.75391-1.2734 1.6367-1.6562 2.5977-1.2539 2.9297-0.59766 6.3281 1.6562 8.582 0.78125 0.69141 1.6562 1.2734 2.5977 1.7305z"/>
  <path d="m518.08 195.32h-314.88c-4.3477 0-7.875 3.5273-7.875 7.875v393.6c0 2.0859 0.83203 4.0898 2.3086 5.5664 1.4766 1.4727 3.4766 2.3047 5.5664 2.3047h314.88c2.0898 0 4.0898-0.83203 5.5664-2.3047 1.4766-1.4766 2.3047-3.4805 2.3047-5.5664v-393.6c0-2.0898-0.82812-4.0898-2.3047-5.5664-1.4766-1.4766-3.4766-2.3086-5.5664-2.3086zm-7.8711 393.6h-299.14v-62.977h299.14zm-220.42-102.34v23.617h-47.23v-23.617zm-47.23-15.742v-23.617h47.23v23.617zm62.977 39.359v-62.977h15.742v62.977zm78.719-23.617v23.617h-47.23v-23.617zm-47.23-15.742v-23.617h47.23v23.617zm141.7 15.742v23.617h-47.23v-23.617zm-47.23-15.742v-23.617h47.23v23.617zm78.719 39.359h-15.746v-70.848c0-2.0898-0.82813-4.0898-2.3047-5.5664-1.4766-1.4766-3.4766-2.3047-5.5664-2.3047h-62.977c-4.3477 0-7.8711 3.5234-7.8711 7.8711v70.848h-15.742v-70.848c0-2.0898-0.83203-4.0898-2.3086-5.5664-1.4766-1.4766-3.4766-2.3047-5.5664-2.3047h-157.44c-4.3477 0-7.875 3.5234-7.875 7.8711v70.848h-15.742v-94.465h299.14zm0-110.21h-299.14v-15.746h299.14zm-220.42-94.465v23.617l-47.23-0.003906v-23.613zm-47.23-15.742v-23.617h47.23v23.617zm47.23 55.105v23.617l-47.23-0.003906v-23.617zm94.465-62.977v23.617l-47.23-0.003906v-23.617zm-47.23-15.742v-23.621h47.23v23.617zm47.23 55.105v47.23l-47.23-0.003906v-47.234zm31.488 0v47.23l-15.742-0.003906v-47.234zm-15.742-15.742v-62.984h15.742v62.977zm78.719-23.617v23.617l-47.23-0.007813v-23.617zm-47.23-15.742v-23.625h47.23v23.617zm47.23 55.105v47.23l-47.23-0.007812v-47.234zm31.488 47.23-15.746-0.007812v-133.82c0-2.0898-0.82813-4.0898-2.3047-5.5664-1.4766-1.4766-3.4766-2.3086-5.5664-2.3086h-157.44c-4.3477 0-7.8711 3.5273-7.8711 7.875v133.82h-15.742v-110.21c0-2.0859-0.83203-4.0898-2.3047-5.5664-1.4766-1.4766-3.4805-2.3047-5.5664-2.3047h-62.977c-4.3477 0-7.875 3.5234-7.875 7.8711v110.21h-15.742v-157.44h299.14z"/>
  <path d="m335.54 579.56c0.72266 0 1.457-0.039063 2.1875-0.10938l55.215-5.5117c5.5117-0.53906 10.387-3.793 13-8.6758 2.6094-4.8828 2.6094-10.746 0-15.629-2.6133-4.8828-7.4883-8.1406-13-8.6797l-55.215-5.5117v0.003906c-6.0273-0.60547-12.043 1.293-16.637 5.2461-4.5898 3.9531-7.3633 9.6172-7.6602 15.668-0.30078 6.0508 1.8945 11.961 6.0742 16.352 4.1797 4.3867 9.9766 6.8672 16.035 6.8633zm-4.2969-26.844c1.1641-1.0625 2.6875-1.6484 4.2656-1.6445 0.21875-0.011718 0.43359-0.011718 0.65234 0l55.215 5.5117c0.45312 0 0.82031 0.36719 0.82031 0.81641 0 0.45312-0.36719 0.82031-0.82031 0.82031l-55.215 5.5117c-2.7383 0.26562-5.3398-1.25-6.457-3.7656-1.1172-2.5117-0.5-5.4609 1.5391-7.3125z"/>
 </g>
</svg>