<?xml version="1.0" encoding="UTF-8"?>
<!-- The Best Svg Icon site in the world: iconSvg.co, Visit us! https://iconsvg.co -->
<svg fill="#000000" width="800px" height="800px" version="1.1" viewBox="144 144 512 512" xmlns="http://www.w3.org/2000/svg">
 <g>
  <path d="m400 169.09c-36.191 0-70.895 14.375-96.484 39.965-25.59 25.59-39.965 60.297-39.965 96.484s14.375 70.895 39.965 96.484c25.59 25.586 60.293 39.965 96.484 39.965 36.188 0 70.895-14.379 96.48-39.965 25.59-25.59 39.965-60.297 39.965-96.484s-14.375-70.895-39.965-96.484c-25.586-25.59-60.293-39.965-96.48-39.965zm0 230.91c-25.055 0-49.082-9.9531-66.797-27.668-17.715-17.719-27.668-41.746-27.668-66.797 0-25.055 9.9531-49.082 27.668-66.797 17.715-17.715 41.742-27.668 66.797-27.668 25.051 0 49.078 9.9531 66.793 27.668 17.719 17.715 27.668 41.742 27.668 66.797 0 25.051-9.9492 49.078-27.668 66.797-17.715 17.715-41.742 27.668-66.793 27.668z"/>
  <path d="m400 232.06c-19.488 0-38.176 7.7422-51.953 21.52-13.781 13.777-21.52 32.465-21.52 51.953 0 19.484 7.7383 38.172 21.52 51.953 13.777 13.777 32.465 21.52 51.953 21.52 19.484 0 38.172-7.7422 51.953-21.52 13.777-13.781 21.52-32.469 21.52-51.953 0-19.488-7.7422-38.176-21.52-51.953-13.781-13.777-32.469-21.52-51.953-21.52zm20.992 62.977c2.7812 0 5.4531 1.1055 7.4219 3.0742 1.9648 1.9688 3.0742 4.6367 3.0742 7.4219v31.488c0 2.7812-1.1094 5.4531-3.0742 7.4219-1.9688 1.9688-4.6406 3.0742-7.4219 3.0742h-10.496c0 5.7969-4.6992 10.496-10.496 10.496s-10.496-4.6992-10.496-10.496h-10.496c-5.7969 0-10.496-4.6992-10.496-10.496 0-5.7969 4.6992-10.496 10.496-10.496h31.488v-10.496h-31.488c-5.7969 0-10.496-4.6992-10.496-10.496v-31.488c0-5.7969 4.6992-10.496 10.496-10.496h10.496c0-5.7969 4.6992-10.496 10.496-10.496s10.496 4.6992 10.496 10.496h10.496c5.7969 0 10.496 4.6992 10.496 10.496s-4.6992 10.496-10.496 10.496h-31.488v10.496z"/>
  <path d="m431.49 483.96h-10.496v-22.566c-13.918 2.1016-28.07 2.1016-41.984 0v22.566h-10.496c-5.7969 0-10.496 4.6992-10.496 10.496v92.578c-0.24219 10.688 3.4883 21.09 10.465 29.191 6.9766 8.1055 16.711 13.332 27.32 14.68 11.84 1.1914 23.633-2.6992 32.441-10.707 8.8047-8.0078 13.801-19.375 13.742-31.277v-94.465c0-2.7812-1.1094-5.4531-3.0742-7.4219-1.9688-1.9648-4.6406-3.0742-7.4219-3.0742z"/>
 </g>
</svg>