<?xml version="1.0" encoding="UTF-8"?>
<!-- The Best Svg Icon site in the world: iconSvg.co, Visit us! https://iconsvg.co -->
<svg fill="#000000" width="800px" height="800px" version="1.1" viewBox="144 144 512 512" xmlns="http://www.w3.org/2000/svg">
 <g>
  <path d="m595.57 408.53c-3.3789-1.1055-7.3359 0.21094-9.3086 2.8828-0.046874 0.050782-4.0469 4.5508-15.691 6.5859-13.793-65.23-76.105-114.91-154.82-121.08v-56.699c0-0.11719 0.09375-0.21875 0.09375-0.24219 1.2695-14.68 13.781-24.262 35.039-26.965 0.47266-0.046875 0.96484-0.09375 1.4414-0.13672 6.4492 6.6328 17.84 13.625 37.184 13.625 41.605 0 47.137-31.938 47.184-32.258 0.45703-2.8594-1.4922-5.5469-4.3516-6.0039-39.555-6.293-77.371-1.25-84.555-0.17578l-0.65625 0.10156c-25.543 3.4492-39.738 14.16-47.238 22.77-7.8633-9.043-22.887-20.168-50.078-23.113-7.1602-1.1016-44.883-6.2617-84.93 0.10938-2.8594 0.45703-4.8125 3.1445-4.3594 6.0039 0.050781 0.32422 5.582 32.266 47.191 32.266 19.328 0 30.707-6.9844 37.145-13.609 0.70703 0.0625 1.4023 0.125 2.0781 0.19531 30.316 3.2578 36.406 18.148 37.328 27.406v56.715c-19.883 1.5312-39.449 5.9297-57.508 13.059l-1.2969-3.9375c-1.8828-5.7461-5.8984-10.41-11.301-13.145-5.3203-2.6914-11.586-3.1758-17.281-1.3086-3.2734 1.0859-5.543 4-5.7773 7.4141l-2.2656 31.473c-23.012 16.312-40.688 37.359-51.309 61.102l-23.152 11.891c-9.1172 4.4844-13.793 13.266-13.793 22.906v36.16c0 9.6367 4.6758 18.41 13.785 22.902l23.641 11.887c11.898 26.625 32.133 49.547 59.156 66.504l11.977 45.074c0.99609 3.668 4.2305 6.2812 8.0312 6.2812h34.742c3.8086 0 7.1602-2.625 8.1445-6.2969l5.1523-19.18c22.113 3.8086 45.328 3.8906 67.512 0.24219l5.0859 18.965c1 3.6602 4.3516 6.2695 8.1562 6.2695h34.738c3.8008 0 7.1484-2.6133 8.1562-6.2969l11.75-43.754c43.273-26.359 70.156-68.539 72.637-113.77 17.957-5.793 28.156-18.316 28.156-34.805-0.003906-3.6328-2.3281-6.8516-5.8281-8.0195zm-200.87-169.38c-0.84375-9.6445-7.0781-32.547-46.645-36.789-1.6211-0.17969-3.3047-0.31641-5.0312-0.42578-1.707-0.12109-3.2812 0.58203-4.3516 1.8594-6.6602 7.9023-17.078 11.914-30.965 11.914-23.055 0-31.859-11.383-35.082-18.285 37.082-4.8164 71.598 0.16406 75.816 0.80469 24.539 2.6602 37.422 12.371 43.906 20.043 1.1953 1.418 2.2344 2.8281 3.1523 4.2188 0.97266 1.4688 2.6133 2.3555 4.375 2.3633h0.003906c1.7578 0 3.4023-0.88281 4.3711-2.3516 0.92188-1.3945 1.9609-2.8125 3.1602-4.2266 6.1719-7.293 18.305-16.633 41.188-19.715l0.73438-0.10938c6.5391-0.98047 39.469-5.3789 75.23-0.73047-3.25 6.8867-12.09 18.289-35.059 18.289-13.902 0-24.336-4.0156-30.988-11.934-1.082-1.2812-2.7148-1.9688-4.3711-1.8594-1.4688 0.10156-2.9219 0.21484-4.4414 0.37109-37.52 4.7695-43.523 27.109-44.363 36.805-0.007813 0.1875-0.09375 0.39062-0.09375 0.58203v56.395c0-0.050782-3.668-0.10938-5.5508-0.10938-1.6758 0-3.2695 0.078125-4.9453 0.11719v-56.426c0-0.14844-0.035156-0.64844-0.050781-0.80078zm172.14 203.11-3.8477 0.98828-0.10156 3.9727c-1.043 43.684-27.016 84.785-69.488 109.95l-1.8438 1.1445-12.441 46.359h-31.598l-7.1836-26.77-4.7812 0.88281c-23.926 4.5234-49.309 4.4141-73.148-0.30078l-4.8125-0.90234-7.2695 27.09h-31.586l-12.77-47.559-1.7891-1.1172c-26.66-16.289-46.648-38.645-57.812-64.609l-0.76563-1.7852-26.609-13.594c-5.4922-2.7109-7.9219-7.8867-7.9219-13.488v-36.16c0-5.6172 2.4297-10.785 7.9297-13.492l27.102-13.594 0.51953-1.7773c10.043-23.363 27.379-44.059 50.355-59.836l2.0195-1.4258 2.5-35.031c2.6914-0.57031 5.457-0.21094 7.9453 1.0508 2.8984 1.4688 5.043 3.9727 6.0508 7.0547l4.8477 14.762 5.2695-2.2734c22.809-9.8359 48.453-15.031 74.164-15.031 80.625 0 150.04 50.719 161.46 117.97l0.82031 4.8125 4.8594-0.46875c12.188-1.1719 19.477-4.6719 23.496-7.4766-2.0312 10-10.219 17.246-23.574 20.66z"/>
  <path d="m281.36 369.77c-6.9766 0-12.238 8.0156-12.238 18.645 0 10.629 5.2578 18.641 12.238 18.641s12.238-8.0156 12.238-18.641-5.2617-18.645-12.238-18.645zm0 26.199c-0.75-1.1914-1.7422-3.7266-1.7422-7.5508s0.99219-6.3594 1.7422-7.5586c0.75 1.1914 1.7422 3.7305 1.7422 7.5586 0 3.8242-0.99219 6.3594-1.7422 7.5508z"/>
  <path d="m460.4 326.5c-2.4336-0.76562-4.8555-1.4766-7.2539-2.125-2.7695-0.76172-5.6797 0.88281-6.4453 3.6836-0.76562 2.8008 0.88672 5.6836 3.6836 6.4453 2.2656 0.62109 4.5508 1.2852 6.8398 2.0039 0.75391 0.24219 1.1758 1.0508 0.9375 1.8047-0.21484 0.69141-0.85938 1.0039-1.7852 0.92188-6.582-2.0742-13.383-3.7852-20.227-5.1016-19.469-3.7461-39.477-4.375-59.461-1.8906-2.875 0.35547-4.918 2.9805-4.5586 5.8555 0.35547 2.8828 2.9805 4.918 5.8555 4.5586 18.902-2.3516 37.797-1.7461 56.184 1.7852 6.4453 1.2383 12.852 2.8555 19.086 4.8125 1.1797 0.36328 2.3711 0.54688 3.543 0.54688 5.2383 0 9.8086-3.3594 11.371-8.3477 1.9766-6.2578-1.5078-12.961-7.7695-14.953z"/>
  <path d="m356.58 335.92c-4.1445 1.0273-6.7656 1.8906-7.1641 2.0352-0.46875 0.16797-0.85937 0.058594-1.0977-0.058593-0.23438-0.11719-0.55078-0.34766-0.71875-0.82031-0.16406-0.46094-0.058594-0.84375 0.058594-1.0859 0.11719-0.24219 0.35156-0.5625 0.80859-0.72266 1.0508-0.36719 26.086-9.0156 61.91-7.1641 6.4492 0.33203 12.938 0.99609 19.285 1.9766 0.27344 0.042969 0.53906 0.0625 0.80469 0.0625 2.5469 0 4.7812-1.8516 5.1797-4.4453 0.44141-2.8672-1.5234-5.5469-4.3867-5.9883-6.6914-1.0352-13.539-1.7383-20.34-2.0898-37.809-1.9609-64.809 7.3438-65.938 7.7422-3 1.0547-5.4141 3.2188-6.7891 6.0859-1.3789 2.8711-1.5547 6.1133-0.50391 9.0938 1.043 3 3.1914 5.4141 6.0547 6.8008 1.6367 0.79297 3.4023 1.1953 5.1758 1.1953 1.3281 0 2.6641-0.22656 3.9688-0.67578 0.26953-0.09375 2.457-0.82031 6.2227-1.7539 2.8125-0.69922 4.5234-3.5469 3.8242-6.3594-0.69922-2.8164-3.5586-4.5234-6.3555-3.8281z"/>
 </g>
</svg>