<?xml version="1.0" encoding="UTF-8"?>
<!-- The Best Svg Icon site in the world: iconSvg.co, Visit us! https://iconsvg.co -->
<svg fill="#000000" width="800px" height="800px" version="1.1" viewBox="144 144 512 512" xmlns="http://www.w3.org/2000/svg">
 <g>
  <path d="m234.69 478.72h330.62v-157.44h-330.62zm165.31-117.96c12.816 23.992 25.578 57.246 17.75 71.227-1.0156 1.8633-4.1172 7.375-17.75 7.375s-16.734-5.5117-17.75-7.375c-7.8281-13.984 4.9336-47.234 17.75-71.227z"/>
  <path d="m234.69 494.46h330.62v78.719h-330.62z"/>
  <path d="m565.31 588.93h-330.62c-8.4375 0-16.234 4.5039-20.453 11.809-4.2188 7.3086-4.2188 16.309 0 23.617 4.2188 7.3047 12.016 11.809 20.453 11.809h330.62c8.4375 0 16.23-4.5039 20.449-11.809 4.2188-7.3086 4.2188-16.309 0-23.617-4.2188-7.3047-12.012-11.809-20.449-11.809z"/>
  <path d="m234.69 226.81h330.62v78.719h-330.62z"/>
  <path d="m565.31 163.84h-330.62c-8.4375 0-16.234 4.5039-20.453 11.809-4.2188 7.3086-4.2188 16.309 0 23.617 4.2188 7.3086 12.016 11.809 20.453 11.809h330.62c8.4375 0 16.23-4.5 20.449-11.809 4.2188-7.3086 4.2188-16.309 0-23.617-4.2188-7.3047-12.012-11.809-20.449-11.809z"/>
 </g>
</svg>