<?xml version="1.0" encoding="UTF-8"?>
<!-- The Best Svg Icon site in the world: iconSvg.co, Visit us! https://iconsvg.co -->
<svg fill="#000000" width="800px" height="800px" version="1.1" viewBox="144 144 512 512" xmlns="http://www.w3.org/2000/svg">
 <g>
  <path d="m400 274.05c-4.3477 0-7.875-3.5234-7.875-7.8711h-15.742c0.019532 4.8672 1.543 9.6055 4.3633 13.574 2.8164 3.9688 6.793 6.9688 11.379 8.5898v9.3242h15.742l0.003906-9.3242c7.0547-2.4844 12.512-8.168 14.699-15.32 2.1914-7.1523 0.85547-14.918-3.5977-20.93-4.4531-6.0078-11.496-9.5469-18.973-9.5312-3.1836 0-6.0547-1.918-7.2734-4.8594-1.2188-2.9414-0.54687-6.3281 1.707-8.5781 2.25-2.2539 5.6367-2.9258 8.5781-1.707 2.9414 1.2188 4.8594 4.0898 4.8594 7.2734h15.742c-0.019531-4.8672-1.543-9.6094-4.3594-13.578-2.8203-3.9688-6.793-6.9688-11.383-8.5898v-9.3203h-15.746v9.3203c-7.0547 2.4844-12.508 8.1719-14.699 15.32-2.1914 7.1523-0.85547 14.922 3.5977 20.93 4.4531 6.0078 11.496 9.5469 18.977 9.5312 4.3477 0 7.8711 3.5273 7.8711 7.875 0 4.3477-3.5234 7.8711-7.8711 7.8711z"/>
  <path d="m604.67 455.1v-23.613h23.617c2.0859 0 4.0898-0.83203 5.5664-2.3086 1.4727-1.4766 2.3047-3.4766 2.3047-5.5664v-31.488c0-0.22656-0.10938-0.41797-0.125-0.63672-0.054687-0.59766-0.17578-1.1836-0.35547-1.7539-0.10938-0.37109-0.25-0.73047-0.41797-1.0781-0.26172-0.51172-0.58203-0.98828-0.95312-1.4258-0.22656-0.30859-0.47656-0.59766-0.74609-0.86719-0.44141-0.37109-0.91797-0.69531-1.4258-0.96875-0.33203-0.21484-0.67969-0.40625-1.0391-0.57422-0.085937 0-0.14844-0.10156-0.24219-0.13281l-181.98-62.754c20.504-14.012 34.004-36.148 37.074-60.789 3.0703-24.641-4.5859-49.414-21.023-68.027-16.434-18.613-40.07-29.273-64.902-29.273-24.832 0-48.469 10.66-64.906 29.273-16.438 18.613-24.094 43.387-21.023 68.027s16.574 46.777 37.074 60.789l-182.02 62.754c-0.09375 0-0.15625 0.10156-0.24219 0.13281h-0.003906c-0.35547 0.16797-0.69922 0.35938-1.0312 0.57422-0.51172 0.26953-0.99219 0.59375-1.4297 0.96875-0.28516 0.26953-0.54688 0.55859-0.78906 0.86719-0.37109 0.4375-0.69141 0.91406-0.95313 1.4258-0.16797 0.34766-0.30859 0.70703-0.41797 1.0781-0.17969 0.56641-0.29688 1.1523-0.35156 1.7461 0 0.22656-0.125 0.41797-0.125 0.64453v31.488h-0.003906c0 2.0898 0.83203 4.0898 2.3086 5.5664 1.4766 1.4766 3.4766 2.3086 5.5664 2.3086h23.652v23.617-0.003907c0 2.0898 0.83203 4.0898 2.3086 5.5664 1.4766 1.4766 3.4766 2.3086 5.5664 2.3086v94.461c-4.3477 0-7.875 3.5273-7.875 7.875v23.617l-23.613-0.003907c-4.3477 0-7.875 3.5273-7.875 7.875v31.488c0 2.0859 0.83203 4.0898 2.3086 5.5664 1.4766 1.4727 3.4766 2.3047 5.5664 2.3047h456.58c2.0859 0 4.0898-0.83203 5.5664-2.3047 1.4727-1.4766 2.3047-3.4805 2.3047-5.5664v-31.488c0-2.0898-0.83203-4.0898-2.3047-5.5664-1.4766-1.4766-3.4805-2.3086-5.5664-2.3086h-23.617v-23.613c0-2.0898-0.83203-4.0898-2.3047-5.5664-1.4766-1.4766-3.4805-2.3086-5.5664-2.3086v-94.461c2.0859 0 4.0898-0.83203 5.5664-2.3086 1.4727-1.4766 2.3047-3.4766 2.3047-5.5664zm-275.52-204.67c-0.039063-17.094 6.0977-33.621 17.285-46.547 11.188-12.922 26.668-21.363 43.59-23.77 16.922-2.4062 34.145 1.3867 48.492 10.68 14.344 9.2891 24.848 23.453 29.57 39.883 4.7266 16.426 3.3516 34.004-3.8672 49.5-7.2188 15.492-19.793 27.855-35.41 34.805l-26.246-9.0469 0.003906 0.003906c-1.6641-0.58594-3.4727-0.58594-5.1328 0l-26.324 9.1055c-12.496-5.5586-23.109-14.621-30.555-26.09-7.4492-11.465-11.41-24.848-11.406-38.523zm70.848 71.305 181.31 62.52h-362.62zm220.42 282.94v15.742h-440.83v-15.742zm-409.34-157.44v-15.742h47.23v15.742zm39.359 15.742v94.465h-31.488v-94.461zm7.8711 110.21v15.742l-47.23 0.003906v-15.742zm39.359-110.21 0.003906 94.465c-4.3477 0-7.875 3.5273-7.875 7.875v23.617l-15.742-0.003907v-23.613c0-2.0898-0.83203-4.0898-2.3047-5.5664-1.4766-1.4766-3.4805-2.3086-5.5664-2.3086v-94.461c2.0859 0 4.0898-0.83203 5.5664-2.3086 1.4727-1.4766 2.3047-3.4766 2.3047-5.5664v-23.613h15.742v23.617-0.003907c0 2.0898 0.83203 4.0898 2.3086 5.5664 1.4727 1.4766 3.4766 2.3086 5.5664 2.3086zm7.8711-15.742 0.003906-15.742h47.23v15.742zm39.359 15.742 0.003906 94.465h-31.488v-94.461zm7.8711 110.21v15.742l-47.227 0.003906v-15.742zm86.598-110.2v94.461c-4.3477 0-7.8711 3.5273-7.8711 7.875v23.617l-62.977-0.003907v-23.613c0-2.0898-0.83203-4.0898-2.3086-5.5664-1.4766-1.4766-3.4766-2.3086-5.5664-2.3086v-94.461c2.0898 0 4.0898-0.83203 5.5664-2.3086 1.4766-1.4766 2.3086-3.4766 2.3086-5.5664v-23.613h62.977v23.617-0.003907c0 2.0898 0.82812 4.0898 2.3047 5.5664 1.4766 1.4766 3.4766 2.3086 5.5664 2.3086zm7.8711-15.742v-15.746h47.23v15.742zm39.359 15.742v94.461h-31.488v-94.461zm7.8711 110.21v15.742h-47.23v-15.742zm39.359-110.21 0.003907 94.461c-4.3477 0-7.875 3.5273-7.875 7.875v23.617l-15.742-0.003907v-23.613c0-2.0898-0.82812-4.0898-2.3047-5.5664-1.4766-1.4766-3.4805-2.3086-5.5664-2.3086v-94.461c2.0859 0 4.0898-0.83203 5.5664-2.3086 1.4766-1.4766 2.3047-3.4766 2.3047-5.5664v-23.613h15.742v23.617-0.003907c0 2.0898 0.83203 4.0898 2.3086 5.5664 1.4766 1.4766 3.4766 2.3086 5.5664 2.3086zm7.8711-15.742 0.003906-15.746h47.23v15.742zm39.359 15.742 0.003907 94.461h-31.488v-94.461zm7.8711 110.21v15.742h-47.227v-15.742zm-409.34-157.44v-15.742h440.83v15.742z"/>
 </g>
</svg>