<?xml version="1.0" encoding="UTF-8"?>
<!-- The Best Svg Icon site in the world: iconSvg.co, Visit us! https://iconsvg.co -->
<svg fill="#000000" width="800px" height="800px" version="1.1" viewBox="144 144 512 512" xmlns="http://www.w3.org/2000/svg">
 <g>
  <path d="m301.35 446.43h24.184c5.8047 0 10.496 4.6914 10.496 10.496 0 5.8164-4.6914 10.496-10.496 10.496h-28.781c-0.46094 5.207-0.30469 10.539 0.15625 15.828h28.645c5.8047 0 10.496 4.6914 10.496 10.496 0 5.8164-4.6914 10.496-10.496 10.496h-24.152c5.0469 13.707 13.465 23.637 22.965 26.809 6.6758 2.2266 13.246 1.0391 19.605-3.5391 7.4297-5.3125 13.582-14.672 17.297-26.43 1.7539-5.5117 7.6523-8.5742 13.184-6.8125 5.5117 1.7539 8.5664 7.6523 6.8125 13.184-5.082 16.016-14.012 29.199-25.105 37.145-7.9023 5.625-16.613 8.5234-25.402 8.5234-4.3672 0-8.7422-0.70312-13.059-2.1523-16.816-5.5938-30.469-21.465-37.48-43.516-12.113-38.133-1.0898-82.645 25.137-101.35 11.82-8.4297 25.473-10.684 38.426-6.3516 16.824 5.5938 30.469 21.477 37.48 43.516 1.7539 5.5195-1.3008 11.43-6.8125 13.195-5.5195 1.7617-11.43-1.3125-13.184-6.8242-4.8906-15.355-13.898-26.543-24.129-29.957-6.6445-2.1953-13.227-1.0273-19.586 3.5273-7.0781 5-12.59 13.305-16.199 23.223zm138.05-1.9844c-40.797-10.203-73.586-40.621-87.031-80.031-59.91-11.672-118.82 26.535-132.09 86.52-6.5195 29.516-1.1445 59.773 15.094 85.258 16.246 25.473 41.461 43.074 70.965 49.605 60.949 13.457 121.4-25.16 134.86-86.066 4.0469-18.285 3.3008-37.305-1.7969-55.285z"/>
  <path d="m485.68 317.04c-1.9414-0.68359-3.9062-1.125-5.8984-1.5742v-49.922c5.5508 2.5 10.043 6.7812 12.625 12.375 2.8555 6.1719 3.1602 13.098 0.80859 19.48-1.9727 5.457 0.80859 11.484 6.2656 13.465 5.4258 1.9727 11.484-0.80859 13.457-6.2539 4.2617-11.66 3.7148-24.277-1.4922-35.551-5.2148-11.25-14.535-19.828-26.176-24.078-1.793-0.66016-3.6523-1.0078-5.4688-1.4375l0.003906-9.5898c0-5.8047-4.6914-10.496-10.496-10.496-5.8164 0-10.496 4.6914-10.496 10.496v9.4258c-3.0977 0.72266-6.1289 1.7305-9.0781 3.0977-11.25 5.2266-19.805 14.527-24.09 26.176-4.25 11.652-3.7266 24.277 1.4922 35.551 5.2266 11.262 14.527 19.836 26.176 24.09 1.793 0.66016 3.6523 1.0703 5.5 1.5v52.449c-6.0469-2.5938-10.926-7.1914-13.73-13.195-2.9922-6.4531-3.2852-13.719-0.83984-20.395 1.9727-5.457-0.80859-11.473-6.2539-13.465-5.4492-1.9609-11.473 0.80859-13.465 6.2539-4.375 11.965-3.8203 24.898 1.5312 36.465 5.3633 11.555 14.883 20.332 26.859 24.707 1.9531 0.70312 3.9258 1.1328 5.9102 1.5742v7.168c0 5.8047 4.6914 10.496 10.496 10.496 5.8047 0 10.496-4.6914 10.496-10.496v-7.168c15.23-3.4727 28.52-14.211 34.289-29.957 4.375-11.953 3.8203-24.906-1.5312-36.465-5.3867-11.566-14.918-20.34-26.895-24.727zm-40.312-37.168c2.3398-6.3711 7.0117-11.492 13.203-14.336 0.082032-0.050781 0.16797-0.0625 0.21875-0.09375v46.309c-11.984-5.4492-18.031-19.285-13.422-31.879zm48.973 91.117c-2.625 7.168-8.0391 12.469-14.559 15.273v-48.859c6.0469 2.5938 10.926 7.1797 13.719 13.195 2.9922 6.4492 3.3281 13.691 0.83984 20.391zm-25.023 66.773c-62.379 0-113.12-50.758-113.12-113.12 0-62.379 50.75-113.12 113.12-113.12 62.355 0 113.11 50.738 113.11 113.12 0 62.359-50.746 113.12-113.11 113.12z"/>
 </g>
</svg>