<?xml version="1.0" encoding="UTF-8"?>
<!-- The Best Svg Icon site in the world: iconSvg.co, Visit us! https://iconsvg.co -->
<svg fill="#000000" width="800px" height="800px" version="1.1" viewBox="144 144 512 512" xmlns="http://www.w3.org/2000/svg">
 <g>
  <path d="m180.16 400.37h439.69v32.957h-439.69z"/>
  <path d="m619.84 391.21v-35.812c-0.007812-6.9453-2.7695-13.605-7.6836-18.52-4.9102-4.9102-11.57-7.6719-18.516-7.6797h-387.29c-6.9453 0.007812-13.605 2.7695-18.516 7.6797-4.9102 4.9141-7.6758 11.574-7.6797 18.52v35.812z"/>
  <path d="m274.34 544.73c-0.82422-0.84766-1.5938-1.7344-2.3398-2.6484-0.32422-0.39844-0.67188-0.77734-0.98438-1.1875-1.0117-1.3164-1.9414-2.6914-2.7852-4.1211-0.125-0.20703-0.21484-0.42969-0.33594-0.64063-0.70703-1.25-1.3477-2.5312-1.9219-3.8477-0.22266-0.51562-0.41406-1.043-0.61328-1.5664-0.41797-1.0625-0.79297-2.1406-1.1172-3.2344-0.17578-0.58203-0.33594-1.1602-0.48047-1.7461-0.28906-1.1367-0.51172-2.2891-0.69922-3.4531-0.085938-0.53125-0.19531-1.0547-0.26172-1.5898l-0.003906 0.003907c-0.22266-1.707-0.33594-3.4219-0.34766-5.1406 0.011719-1.7227 0.125-3.4453 0.34766-5.1562 0.0625-0.53125 0.16797-1.0547 0.25781-1.5859 0.19141-1.1719 0.42187-2.3359 0.70703-3.4805 0.14844-0.57813 0.30859-1.1484 0.45703-1.7227 0.32812-1.1133 0.71484-2.207 1.1367-3.2852 0.19531-0.50781 0.37891-1.0195 0.59375-1.5195 0.58984-1.3594 1.2539-2.6836 1.9883-3.9688 0.097656-0.17578 0.16797-0.35156 0.26953-0.52344 0.85547-1.4453 1.793-2.8359 2.8164-4.168 0.29297-0.38281 0.61328-0.74219 0.91797-1.1133 0.76562-0.91797 1.5625-1.832 2.4102-2.7109 0.40625-0.41797 0.82813-0.82031 1.2539-1.2227 0.42578-0.40234 0.71875-0.73828 1.1094-1.0781h-0.003906c-3-0.88672-6.1172-1.3359-9.2461-1.332-9.5156 0.015625-18.559 4.1602-24.785 11.355-6.2266 7.1953-9.0273 16.742-7.6719 26.16 1.3555 9.4219 6.7266 17.789 14.727 22.941 8.0039 5.1523 17.848 6.582 26.98 3.918-0.38281-0.33594-0.71875-0.71484-1.0898-1.0625-0.43359-0.41797-0.86719-0.81641-1.2852-1.2734z"/>
  <path d="m304.48 482.7c-5.6797-0.027343-11.266 1.4648-16.172 4.3242-9.2852 5.3203-15.391 14.84-16.348 25.5-0.95703 10.656 3.3516 21.113 11.543 28 8.1914 6.8906 19.227 9.3438 29.566 6.5742 10.336-2.7695 18.668-10.414 22.32-20.473 3.6484-10.062 2.1523-21.27-4.0039-30.023-6.1602-8.7539-16.203-13.945-26.906-13.91z"/>
  <path d="m180.16 442.49v134.04c0 6.9531 2.7617 13.617 7.6719 18.539 4.9102 4.918 11.574 7.6914 18.523 7.707h387.29c6.9531-0.015625 13.613-2.7891 18.523-7.707 4.9102-4.9219 7.6719-11.586 7.6758-18.539v-134.04zm124.32 115.07c-6.4102-0.035157-12.73-1.5352-18.473-4.3945-11.488 5.6758-24.945 5.7891-36.531 0.30859-11.582-5.4805-20.031-15.953-22.934-28.434-2.9062-12.484 0.050781-25.609 8.0312-35.641 7.9766-10.031 20.098-15.867 32.914-15.848 6.4336 0.023437 12.773 1.5391 18.52 4.4258 5.7305-2.8867 12.055-4.4023 18.473-4.4258 15.008 0 28.875 8.0039 36.375 21 7.5039 12.996 7.5039 29.008 0 42.004-7.5 12.996-21.367 21.004-36.375 21.004zm265.48-37.402h-170.09c-2.5312 0-4.582-2.0508-4.582-4.5781 0-2.5312 2.0508-4.582 4.582-4.582h170.09c2.5273 0 4.5781 2.0508 4.5781 4.582 0 2.5273-2.0508 4.5781-4.5781 4.5781z"/>
  <path d="m564.66 338.59c-2.5273 0-4.5781-2.0508-4.5781-4.582v-48.625c-0.011719-10.445-4.1641-20.457-11.547-27.844-7.3867-7.3828-17.398-11.535-27.844-11.547h-175.19c-2.5312 0-4.582-2.0508-4.582-4.5781 0-2.5312 2.0508-4.582 4.582-4.582h175.2c12.871 0.015625 25.211 5.1328 34.312 14.234 9.1016 9.1016 14.223 21.445 14.234 34.316v48.625c0 1.2188-0.48438 2.3828-1.3438 3.2422-0.86328 0.85938-2.0273 1.3398-3.2461 1.3398z"/>
  <path d="m385.06 285.59c-1.2148-0.003906-2.375-0.48438-3.2344-1.3438l-39.621-39.582c-1.7891-1.7891-1.7891-4.6875 0-6.4766l39.617-39.617c1.7969-1.7344 4.6523-1.7109 6.4219 0.054688 1.7656 1.7695 1.7891 4.625 0.054687 6.4219l-36.391 36.379 36.375 36.34c1.3125 1.3086 1.707 3.2812 1 4.9922-0.71094 1.7148-2.3828 2.832-4.2383 2.832z"/>
 </g>
</svg>