<?xml version="1.0" encoding="UTF-8"?>
<!-- The Best Svg Icon site in the world: iconSvg.co, Visit us! https://iconsvg.co -->
<svg fill="#000000" width="800px" height="800px" version="1.1" viewBox="144 144 512 512" xmlns="http://www.w3.org/2000/svg">
 <g>
  <path d="m400 362.06c49.68 0 90.102-40.414 90.102-90.102s-40.418-90.102-90.102-90.102c-49.688 0-90.102 40.422-90.102 90.102 0 49.68 40.418 90.102 90.102 90.102zm0-165.09c41.348 0 74.988 33.641 74.988 74.988-0.003906 41.348-33.637 74.988-74.988 74.988s-74.988-33.641-74.988-74.988c0-41.348 33.641-74.988 74.988-74.988z"/>
  <path d="m402.04 280.83c4.5781 1.1172 13.32 2.8711 13.34 13.426 0.003906 4.0898-2.5195 12.02-15.566 12.02-6.0625 0-14.711-2.6836-14.711-13.695 0 0 0.10547-5.75-7.0625-5.75-7.168 0-7.7266 5.75-7.7266 5.75 0 7.2891 1.0469 12.418 4.8516 17.402 5.4102 7.1484 11.977 9.8789 17.285 10.926v8.0898c0 4.1758 3.3789 7.5586 7.5586 7.5586 4.1758 0 7.5586-3.3789 7.5586-7.5586v-8.1211c16.43-3.3438 22.609-18.797 22.609-28.648 0-7.2891-2.6484-18.48-19.441-24.262l-15.086-4.9766c-2.3164-0.74609-11.73-4.0898-10.727-13.402 0.38281-3.5508 1.4219-6.2891 4.2578-8.1484 2.3164-1.4844 5.1875-2.2383 8.6055-2.2383 5.8047 0 9.7539 0.97656 12.332 4.3242 1.4141 1.9336 1.8789 3.3555 2.2617 6.707 0 0 0.45703 5.5117 7.0703 5.5117 6.6094 0 7.6211-5.25 7.7578-6.1953 0.58984-4.293-1.7422-11.465-4.9961-15.73-3.5703-4.6914-8.5898-7.5977-14.645-8.9609l-0.007812-7.0352c0-4.1758-3.3789-7.5586-7.5586-7.5586-4.1758 0-7.5586 3.3789-7.5586 7.5586v6.6055c-7.2969 1.1172-12.883 4.207-16.707 9.3242-3.4805 4.6797-9.2891 13.707-3.3398 29.316 5.1445 13.457 29.645 17.762 29.645 17.762z"/>
  <path d="m220.46 471.12c1.8945 2.5938 4.918 4.125 8.1328 4.125s6.2305-1.5312 8.1328-4.125l11.039-15.086c2.2422-3.0625 2.5703-7.1289 0.85156-10.508-1.7188-3.3867-5.1875-5.5156-8.9883-5.5156h-1.2812c12.977-27.977 81.352-31.488 134.09-31.488 7.9648 0 14.68-1.5625 20.133-4.6016v36.086h-3.4766c-3.793 0-7.2695 2.1328-8.9883 5.5156-1.7188 3.3867-1.3867 7.4453 0.85156 10.508l11.035 15.086c1.8945 2.5938 4.918 4.125 8.1328 4.125s6.2305-1.5312 8.1328-4.125l11.039-15.086c2.2422-3.0625 2.5703-7.1289 0.85156-10.508-1.7188-3.3867-5.1875-5.5156-8.9883-5.5156h-3.4805v-36.012c5.4297 2.9883 12.105 4.5234 20.008 4.5234 52.738 0 121.11 3.5117 134.09 31.488h-1.2812c-3.793 0-7.2695 2.1328-8.9883 5.5156-1.7188 3.3867-1.3867 7.4453 0.85156 10.508l11.035 15.086c1.8945 2.5938 4.918 4.125 8.1328 4.125 3.2148 0 6.2305-1.5312 8.1328-4.125l11.039-15.086c2.2422-3.0625 2.5703-7.1289 0.85156-10.508-1.7188-3.3867-5.1875-5.5156-8.9883-5.5156l-4.6641 0.003906c-9.8242-40.777-80.715-46.602-150.21-46.602-7.5234 0-12.973-1.793-16.207-5.332-4.2812-4.6797-3.793-11.477-3.7734-11.742 0.41797-4.125-2.5703-7.8203-6.6953-8.2734-0.58594-0.066406-1.1602-0.039062-1.7227 0.03125h-0.10156c-4.1211 0.41406-7.1445 4.1055-6.7773 8.2305 0.003906 0.070313 0.57422 6.9961-3.7734 11.75-3.2344 3.5352-8.6875 5.332-16.207 5.332-69.492 0-140.38 5.8242-150.21 46.602h-4.6758c-3.793 0-7.2695 2.1328-8.9883 5.5156-1.7188 3.3867-1.3867 7.4453 0.85156 10.508z"/>
  <path d="m228.59 490.51c-32.336 0-58.637 26.305-58.637 58.637 0 32.336 26.305 58.637 58.637 58.637 32.328 0 58.637-26.305 58.637-58.637s-26.305-58.637-58.637-58.637zm0 102.16c-24 0-43.523-19.523-43.523-43.523 0-23.996 19.523-43.523 43.523-43.523 23.996 0 43.523 19.523 43.523 43.523 0 23.996-19.527 43.523-43.523 43.523z"/>
  <path d="m205.4 542.5c0-2.1914 1.7852-3.9766 3.9766-3.9766 2.1953 0 3.9805 1.7852 3.9805 3.9766 0 3.4766 2.8203 6.2969 6.2969 6.2969s6.2969-2.8203 6.2969-6.2969c0-9.1328-7.4375-16.57-16.574-16.57-9.1328 0-16.57 7.4297-16.57 16.57 0 3.4766 2.8203 6.2969 6.2969 6.2969 3.4766 0 6.2969-2.8203 6.2969-6.2969z"/>
  <path d="m231.56 542.5c0 3.4766 2.8203 6.2969 6.2969 6.2969 3.4766 0 6.2969-2.8203 6.2969-6.2969 0-2.1914 1.7852-3.9766 3.9766-3.9766s3.9766 1.7852 3.9766 3.9766c0 3.4766 2.8203 6.2969 6.2969 6.2969 3.4766 0 6.2969-2.8203 6.2969-6.2969 0-9.1328-7.4375-16.57-16.57-16.57-9.1328 0-16.57 7.4336-16.57 16.57z"/>
  <path d="m251.13 558.07c-3.2344-1.2695-6.8906 0.32422-8.1602 3.5625-2.3359 5.9531-7.9805 9.8047-14.379 9.8047-6.2188 0-11.805-3.7031-14.227-9.4375-1.3555-3.2109-5.0586-4.6992-8.2539-3.3516-3.2031 1.3555-4.707 5.0469-3.3516 8.2539 4.4023 10.402 14.539 17.125 25.832 17.125 11.617 0 21.867-6.9883 26.105-17.801 1.2656-3.2305-0.33203-6.8867-3.5664-8.1562z"/>
  <path d="m400 490.51c-32.336 0-58.637 26.305-58.637 58.637 0 32.336 26.305 58.637 58.637 58.637 32.328 0 58.637-26.305 58.637-58.637s-26.305-58.637-58.637-58.637zm0 102.16c-24 0-43.523-19.523-43.523-43.523 0-23.996 19.523-43.523 43.523-43.523 23.996 0 43.523 19.523 43.523 43.523 0 23.996-19.523 43.523-43.523 43.523z"/>
  <path d="m376.81 542.5c0-2.1914 1.7852-3.9766 3.9766-3.9766 2.1953 0 3.9805 1.7852 3.9805 3.9766 0 3.4766 2.8203 6.2969 6.2969 6.2969s6.2969-2.8203 6.2969-6.2969c0-9.1328-7.4375-16.57-16.574-16.57-9.1328 0-16.57 7.4297-16.57 16.57 0 3.4766 2.8203 6.2969 6.2969 6.2969 3.4766 0 6.2969-2.8203 6.2969-6.2969z"/>
  <path d="m402.96 542.5c0 3.4766 2.8203 6.2969 6.2969 6.2969 3.4766 0 6.2969-2.8203 6.2969-6.2969 0-2.1914 1.7852-3.9766 3.9766-3.9766s3.9766 1.7852 3.9766 3.9766c0 3.4766 2.8203 6.2969 6.2969 6.2969 3.4766 0 6.2969-2.8203 6.2969-6.2969 0-9.1328-7.4375-16.57-16.57-16.57-9.1328 0-16.57 7.4336-16.57 16.57z"/>
  <path d="m422.54 558.07c-3.2383-1.2695-6.8906 0.32422-8.1602 3.5625-2.3398 5.957-7.9805 9.8008-14.379 9.8008-6.2188 0-11.805-3.7031-14.227-9.4375-1.3555-3.2109-5.0625-4.6992-8.2539-3.3516-3.2031 1.3555-4.707 5.0469-3.3516 8.2539 4.4023 10.402 14.539 17.125 25.832 17.125 11.617 0 21.867-6.9883 26.105-17.801 1.2695-3.2266-0.32812-6.8828-3.5664-8.1523z"/>
  <path d="m571.54 490.51c-32.336 0-58.637 26.305-58.637 58.637 0 32.336 26.305 58.637 58.637 58.637 32.328 0 58.637-26.305 58.637-58.637 0.003906-32.332-26.309-58.637-58.637-58.637zm0 102.16c-24 0-43.523-19.523-43.523-43.523 0-23.996 19.523-43.523 43.523-43.523 23.996 0 43.523 19.523 43.523 43.523 0 23.996-19.527 43.523-43.523 43.523z"/>
  <path d="m548.34 542.5c0-2.1914 1.7852-3.9766 3.9766-3.9766 2.1953 0 3.9805 1.7852 3.9805 3.9766 0 3.4766 2.8203 6.2969 6.2969 6.2969 3.4766 0 6.2969-2.8203 6.2969-6.2969 0-9.1328-7.4375-16.57-16.574-16.57-9.1328 0-16.57 7.4297-16.57 16.57 0 3.4766 2.8203 6.2969 6.2969 6.2969s6.2969-2.8203 6.2969-6.2969z"/>
  <path d="m591.07 525.93c-9.1328 0-16.57 7.4297-16.57 16.57 0 3.4766 2.8203 6.2969 6.2969 6.2969 3.4766 0 6.2969-2.8203 6.2969-6.2969 0-2.1914 1.7852-3.9766 3.9766-3.9766s3.9766 1.7852 3.9766 3.9766c0 3.4766 2.8203 6.2969 6.2969 6.2969 3.4766 0 6.2969-2.8203 6.2969-6.2969 0-9.1367-7.4297-16.57-16.57-16.57z"/>
  <path d="m594.07 558.07c-3.2383-1.2695-6.8906 0.32422-8.1602 3.5625-2.3359 5.9531-7.9805 9.8047-14.379 9.8047-6.2188 0-11.805-3.7031-14.227-9.4375-1.3594-3.2109-5.0586-4.6992-8.2539-3.3516-3.2031 1.3555-4.707 5.0469-3.3516 8.2539 4.4023 10.402 14.539 17.125 25.832 17.125 11.617 0 21.867-6.9883 26.105-17.801 1.2695-3.2305-0.32812-6.8867-3.5664-8.1562z"/>
 </g>
</svg>