<?xml version="1.0" encoding="UTF-8"?>
<!-- The Best Svg Icon site in the world: iconSvg.co, Visit us! https://iconsvg.co -->
<svg width="800px" height="800px" version="1.1" viewBox="144 144 512 512" xmlns="http://www.w3.org/2000/svg">
 <defs>
  <clipPath id="a">
   <path d="m148.09 148.09h503.81v503.81h-503.81z"/>
  </clipPath>
 </defs>
 <g clip-path="url(#a)">
  <path d="m596.8 305.54h-33.457c-16.531-28.645-40.277-52.453-68.883-69.055v-33.281c0-14.617-5.8047-28.633-16.137-38.965-10.336-10.336-24.352-16.141-38.965-16.141h-78.723c-14.613 0-28.629 5.8047-38.961 16.141-10.336 10.332-16.141 24.348-16.141 38.965v33.484c-28.582 16.535-52.328 40.273-68.867 68.852h-33.469c-14.617 0-28.633 5.8047-38.965 16.141-10.336 10.332-16.141 24.348-16.141 38.961v78.723c0 14.613 5.8047 28.629 16.141 38.965 10.332 10.332 24.348 16.137 38.965 16.137h33.504c16.527 28.574 40.262 52.309 68.832 68.836v33.504c0 14.613 5.8047 28.629 16.141 38.961 10.332 10.336 24.348 16.141 38.961 16.141h78.723c14.613 0 28.629-5.8047 38.965-16.141 10.332-10.332 16.137-24.348 16.137-38.961v-33.488c28.574-16.531 52.312-40.273 68.836-68.852h33.504c14.613 0 28.629-5.8047 38.961-16.137 10.336-10.336 16.141-24.352 16.141-38.965v-78.723c0-14.613-5.8047-28.629-16.141-38.961-10.332-10.336-24.348-16.141-38.961-16.141zm-275.52-70.848v-31.488c0-10.441 4.1484-20.453 11.527-27.832 7.3828-7.3828 17.395-11.531 27.832-11.531h78.723c10.438 0 20.449 4.1484 27.832 11.531 7.3789 7.3789 11.527 17.391 11.527 27.832v55.102h-31.488v-23.613c-0.023438-0.90234-0.20703-1.793-0.53516-2.6289 0.27734-1.7383 0.45703-3.4883 0.53516-5.2461 0-16.871-9.0039-32.465-23.617-40.902s-32.617-8.4375-47.23 0c-14.613 8.4375-23.617 24.031-23.617 40.902 0.078125 1.7578 0.25781 3.5078 0.53516 5.2461-0.32812 0.83594-0.51172 1.7266-0.53516 2.6289v23.613h-31.488zm157.44 39.359c0 5.625-3 10.82-7.8711 13.633s-10.875 2.8125-15.746 0c-4.8711-2.8125-7.8711-8.0078-7.8711-13.633zm-47.23-47.234c0 8.3516-3.3203 16.363-9.2227 22.266-5.9062 5.9062-13.914 9.2227-22.266 9.2227s-16.363-3.3164-22.266-9.2227c-5.9062-5.9023-9.2227-13.914-9.2227-22.266s3.3164-16.359 9.2227-22.266c5.9023-5.9023 13.914-9.2227 22.266-9.2227s16.359 3.3203 22.266 9.2227c5.9023 5.9062 9.2227 13.914 9.2227 22.266zm-78.723 47.234c0 5.625-3 10.82-7.8711 13.633-4.8711 2.8125-10.871 2.8125-15.746 0-4.8711-2.8125-7.8711-8.0078-7.8711-13.633zm-113.55 204.67h-36.02c-10.441 0-20.453-4.1484-27.832-11.527-7.3828-7.3828-11.531-17.395-11.531-27.832v-78.723c0-10.438 4.1484-20.449 11.531-27.832 7.3789-7.3789 17.391-11.527 27.832-11.527h55.102v31.488h-23.613c-0.90234 0.023437-1.793 0.20703-2.6289 0.53516-1.7383-0.27734-3.4883-0.45703-5.2461-0.53516-16.871 0-32.465 9.0039-40.902 23.617-8.4375 14.613-8.4375 32.617 0 47.23s24.031 23.617 40.902 23.617c1.7578-0.078125 3.5078-0.25781 5.2461-0.53516 0.83594 0.32813 1.7266 0.51172 2.6289 0.53516h23.613v31.488h-15.664c-1.125-0.25391-2.293-0.25391-3.418 0zm19.082-78.719c0 8.3516-3.3164 16.359-9.2227 22.266-5.9023 5.9023-13.914 9.2227-22.266 9.2227s-16.359-3.3203-22.266-9.2227c-5.9023-5.9062-9.2227-13.914-9.2227-22.266s3.3203-16.363 9.2227-22.266c5.9062-5.9062 13.914-9.2227 22.266-9.2227s16.363 3.3164 22.266 9.2227c5.9062 5.9023 9.2227 13.914 9.2227 22.266zm220.42 165.31v31.488c0 10.438-4.1484 20.449-11.527 27.832-7.3828 7.3789-17.395 11.527-27.832 11.527h-78.723c-10.438 0-20.449-4.1484-27.832-11.527-7.3789-7.3828-11.527-17.395-11.527-27.832v-35.992c0.27344-1.1602 0.27344-2.3672 0-3.5273v-15.586h31.488v23.617c0.023437 0.89844 0.20703 1.7891 0.53516 2.6289-0.27734 1.7344-0.45703 3.4844-0.53516 5.2422 0 16.875 9.0039 32.465 23.617 40.902 14.613 8.4375 32.617 8.4375 47.23 0s23.617-24.027 23.617-40.902c-0.078125-1.7578-0.25781-3.5078-0.53516-5.2422 0.32813-0.83984 0.51172-1.7305 0.53516-2.6289v-23.617h31.488zm-157.44-39.363c0-5.625 3-10.82 7.8711-13.633 4.875-2.8125 10.875-2.8125 15.746 0 4.8711 2.8125 7.8711 8.0078 7.8711 13.633zm47.23 47.23 0.003907 0.003906c0-8.3516 3.3164-16.359 9.2227-22.266 5.9023-5.9062 13.914-9.2227 22.266-9.2227s16.359 3.3164 22.266 9.2227c5.9023 5.9062 9.2227 13.914 9.2227 22.266 0 8.3516-3.3203 16.359-9.2227 22.266-5.9062 5.9062-13.914 9.2227-22.266 9.2227s-16.363-3.3164-22.266-9.2227c-5.9062-5.9062-9.2227-13.914-9.2227-22.266zm78.719-47.23h0.003907c0-5.625 3-10.82 7.8711-13.633 4.8711-2.8125 10.875-2.8125 15.746 0s7.8711 8.0078 7.8711 13.633zm47.23 18.703 0.003907-18.703c0-11.246-6-21.645-15.742-27.27s-21.746-5.625-31.488 0c-9.7422 5.625-15.742 16.023-15.742 27.27v12.281c-8.5859-7.8984-19.824-12.285-31.488-12.285-11.668 0-22.906 4.3867-31.488 12.285v-12.281c0-11.246-6.0039-21.645-15.746-27.27s-21.746-5.625-31.488 0c-9.7422 5.625-15.742 16.023-15.742 27.27v18.707c-20.031-13.07-37.121-30.164-50.191-50.195h18.703c11.25 0 21.645-6 27.27-15.742s5.625-21.746 0-31.488c-5.625-9.7422-16.02-15.742-27.27-15.742h-12.281c7.9023-8.5859 12.285-19.824 12.285-31.488 0-11.668-4.3828-22.906-12.285-31.488h12.281c11.25 0 21.645-6.0039 27.27-15.746s5.625-21.746 0-31.488c-5.625-9.7422-16.02-15.742-27.27-15.742h-18.703c13.074-20.027 30.164-37.117 50.191-50.191v18.703c0 11.25 6 21.645 15.742 27.27 9.7422 5.625 21.746 5.625 31.488 0s15.746-16.02 15.746-27.27v-12.281c8.582 7.9023 19.82 12.285 31.488 12.285 11.664 0 22.902-4.3828 31.488-12.285v12.281c0 11.25 6 21.645 15.742 27.27 9.7422 5.625 21.746 5.625 31.488 0s15.742-16.02 15.742-27.27v-18.734c20.039 13.082 37.141 30.188 50.227 50.223h-18.738c-11.246 0-21.645 6-27.27 15.742-5.625 9.7422-5.625 21.746 0 31.488s16.023 15.746 27.27 15.746h12.281c-7.8984 8.582-12.285 19.82-12.285 31.488 0 11.664 4.3867 22.902 12.285 31.488h-12.281c-11.246 0-21.645 6-27.27 15.742-5.625 9.7422-5.625 21.746 0 31.488s16.023 15.742 27.27 15.742h18.707c-13.074 20.027-30.168 37.121-50.195 50.195zm-220.41-65.934v-31.488c5.625 0 10.82 3 13.633 7.8711 2.8125 4.8711 2.8125 10.875 0 15.746s-8.0078 7.8711-13.633 7.8711zm0-125.95v-31.488c5.625 0 10.82 3 13.633 7.8711 2.8125 4.875 2.8125 10.875 0 15.746-2.8125 4.8711-8.0078 7.8711-13.633 7.8711zm251.91-31.488v31.488h-0.003906c-5.625 0-10.82-3-13.633-7.8711-2.8125-4.8711-2.8125-10.871 0-15.746 2.8125-4.8711 8.0078-7.8711 13.633-7.8711zm0 125.95v31.488h-0.003906c-5.625 0-10.82-3-13.633-7.8711s-2.8125-10.875 0-15.746c2.8125-4.8711 8.0078-7.8711 13.633-7.8711zm110.21-7.8711c0 10.438-4.1484 20.449-11.527 27.832-7.3828 7.3789-17.395 11.527-27.832 11.527h-36.008c-1.1406-0.25781-2.3242-0.25781-3.4648 0h-15.633v-31.488h23.617c0.89844-0.023438 1.7891-0.20703 2.6289-0.53516 1.7344 0.27734 3.4844 0.45703 5.2422 0.53516 16.875 0 32.465-9.0039 40.902-23.617s8.4375-32.617 0-47.23c-8.4375-14.613-24.027-23.617-40.902-23.617-1.7578 0.078125-3.5078 0.25781-5.2422 0.53516-0.83984-0.32812-1.7305-0.51172-2.6289-0.53516h-23.617v-31.488h55.105c10.438 0 20.449 4.1484 27.832 11.527 7.3789 7.3828 11.527 17.395 11.527 27.832zm-94.465-39.359c0-8.3516 3.3164-16.363 9.2227-22.266 5.9062-5.9062 13.914-9.2227 22.266-9.2227 8.3516 0 16.359 3.3164 22.266 9.2227 5.9062 5.9023 9.2227 13.914 9.2227 22.266s-3.3164 16.359-9.2227 22.266c-5.9062 5.9023-13.914 9.2227-22.266 9.2227-8.3516 0-16.359-3.3203-22.266-9.2227-5.9062-5.9062-9.2227-13.914-9.2227-22.266zm-149.57-39.359h15.742l0.003906-0.003906c4.1758 0 8.1797 1.6602 11.133 4.6133s4.6094 6.957 4.6094 11.133c0 4.3477 3.5273 7.8711 7.875 7.8711 4.3477 0 7.8711-3.5234 7.8711-7.8711 0-8.3516-3.3164-16.359-9.2227-22.266s-13.914-9.2227-22.266-9.2227v-7.8711c0-4.3477-3.5234-7.875-7.8711-7.875s-7.875 3.5273-7.875 7.875v7.8711c-11.25 0-21.645 6-27.27 15.742-5.625 9.7422-5.625 21.746 0 31.488s16.02 15.746 27.27 15.746h15.746c5.625 0 10.82 3 13.633 7.8711 2.8125 4.8711 2.8125 10.875 0 15.746-2.8125 4.8711-8.0078 7.8711-13.633 7.8711h-15.746c-4.1758 0-8.1797-1.6602-11.133-4.6133-2.9492-2.9531-4.6094-6.957-4.6094-11.133 0-4.3477-3.5234-7.8711-7.8711-7.8711-4.3477 0-7.875 3.5234-7.875 7.8711 0 8.3516 3.3203 16.363 9.2227 22.266 5.9062 5.9062 13.914 9.2227 22.266 9.2227v7.875c0 4.3477 3.5273 7.8711 7.875 7.8711s7.8711-3.5234 7.8711-7.8711v-7.875c11.25 0 21.645-6 27.27-15.742s5.625-21.746 0-31.488c-5.625-9.7422-16.02-15.746-27.27-15.746h-15.746c-5.625 0-10.82-3-13.633-7.8711s-2.8125-10.871 0-15.742c2.8125-4.8711 8.0078-7.875 13.633-7.875z"/>
 </g>
</svg>