<?xml version="1.0" encoding="UTF-8"?>
<!-- The Best Svg Icon site in the world: iconSvg.co, Visit us! https://iconsvg.co -->
<svg fill="#000000" width="800px" height="800px" version="1.1" viewBox="144 144 512 512" xmlns="http://www.w3.org/2000/svg">
 <path d="m539.71 301.03c-1.1875-0.10547-2.4023-0.15625-3.5898-0.15625h-50.633v-46.297c0-47.141-38.363-85.492-85.5-85.492s-85.5 38.352-85.5 85.488v46.297l-50.625 0.003906c-22.355 0-40.547 18.191-40.547 40.547 0 1.1953 0.050782 2.3945 0.15625 3.5898l22.113 248.93c1.8828 21.074 19.246 36.965 40.406 36.965h228.04c21.141 0 38.5-15.891 40.391-36.957l22.113-248.93c1.9609-22.281-14.559-42.016-36.82-43.988zm-214.72-46.457c0-41.352 33.641-74.992 75.008-74.992 41.344 0 74.996 33.641 74.996 74.996v46.297h-149.99zm218.96 338.46c-1.3984 15.605-14.277 27.383-29.957 27.383h-228c-15.68 0-28.559-11.777-29.945-27.383l-22.117-248.95c-0.082032-0.88281-0.11719-1.7734-0.11719-2.6641 0-16.574 13.477-30.051 30.051-30.051h50.633v17.969c-8.6914 2.3398-15.137 10.203-15.137 19.629 0 11.242 9.1406 20.383 20.383 20.383 11.242 0 20.383-9.1523 20.383-20.383 0-9.4141-6.4453-17.285-15.137-19.629v-17.969h150v17.969c-8.6914 2.3398-15.145 10.203-15.145 19.629 0 11.242 9.1406 20.383 20.395 20.383 11.23 0 20.395-9.1523 20.395-20.383 0-9.4141-6.4531-17.285-15.145-19.629v-17.969h50.633c0.88281 0 1.7852 0.042968 2.6641 0.11719 16.48 1.4688 28.719 16.09 27.27 32.59zm-224.21-253.97c5.457 0 9.8867 4.4414 9.8867 9.8984s-4.4414 9.8867-9.8867 9.8867c-5.4492 0-9.8867-4.4414-9.8867-9.8867 0-5.457 4.4297-9.8984 9.8867-9.8984zm160.5 0c5.457 0 9.8984 4.4414 9.8984 9.8984s-4.4492 9.8867-9.8984 9.8867c-5.4688 0-9.8984-4.4414-9.8984-9.8867-0.011719-5.457 4.4375-9.8984 9.8984-9.8984z"/>
</svg>