<?xml version="1.0" encoding="UTF-8"?>
<!-- The Best Svg Icon site in the world: iconSvg.co, Visit us! https://iconsvg.co -->
<svg fill="#000000" width="800px" height="800px" version="1.1" viewBox="144 144 512 512" xmlns="http://www.w3.org/2000/svg">
 <g>
  <path d="m341.02 514.86c4.1758 0 7.5586-3.3867 7.5586-7.5586v-15.133c0-4.1719-3.3789-7.5586-7.5586-7.5586-4.1758 0-7.5586 3.3867-7.5586 7.5586v15.133c0.003907 4.1719 3.3828 7.5586 7.5586 7.5586z"/>
  <path d="m341.02 459.36c4.1758 0 7.5586-3.3867 7.5586-7.5586v-15.141c0-4.1719-3.3789-7.5586-7.5586-7.5586-4.1758 0-7.5586 3.3867-7.5586 7.5586v15.141c0.003907 4.1719 3.3828 7.5586 7.5586 7.5586z"/>
  <path d="m276.76 521.47c4.1758 0 7.5586-3.3867 7.5586-7.5586v-12.66c0-4.1719-3.3789-7.5586-7.5586-7.5586-4.1758 0-7.5586 3.3867-7.5586 7.5586v12.66c0 4.1719 3.3828 7.5586 7.5586 7.5586z"/>
  <path d="m535.8 393.87c0.25-0.75391 0.42188-1.5586 0.42188-2.3984v-125.86c0-1.2031-0.30859-2.3281-0.8125-3.3398l6.9688 5.5859c2.1367 1.7148 4.75 2.5938 7.3789 2.5938h0.089844c6.5234 0 11.801-5.2852 11.801-11.801 0-0.59766-0.039063-1.1875-0.125-1.7734l-0.97266-42.375c-0.082031-3.4805-1.6914-6.7578-4.4102-8.9375-2.7148-2.1758-6.2578-3.043-9.6836-2.3633l-43.051 8.5586c-4.5 0.89844-8.0703 4.3164-9.1484 8.7773-1.0938 4.4492 0.50391 9.1289 4.0742 12.004l11.645 9.3203-119.19 141.86-45.469-24.902c-5.5234-3.0234-12.367-2.0391-16.816 2.4102l-118.36 118.75c-4.7578 4.75-5.3945 12.047-1.9648 17.512-2.3984 1.2695-4.0469 3.7578-4.0469 6.6562v51.078c0 4.1719 3.3789 7.5586 7.5586 7.5586h225.62c17.828 16.379 41.535 26.461 67.648 26.461 55.305 0 100.13-44.828 100.13-100.13-0.003906-44.535-29.094-82.23-69.289-95.246zm-305.64 106.13 39.047-39.18v6.6875c0 4.1719 3.3789 7.5586 7.5586 7.5586 4.1758 0 7.5586-3.3867 7.5586-7.5586v-7.5586c0-3.9102-2.9844-7.0938-6.7969-7.4766l55.938-56.145c0.011718 4.1602 3.3867 7.5312 7.5586 7.5312 4.1758 0 7.5586-3.3867 7.5586-7.5586v-3.4219l38.777 21.246c2.2227 1.2109 4.6484 1.7773 7.0469 1.7344-0.50781 1.0117-0.82031 2.1445-0.82031 3.3555v7.5586c0 4.1719 3.3789 7.5586 7.5586 7.5586 4.1758 0 7.5586-3.3867 7.5586-7.5586v-7.5586c0-3.2734-2.1016-6.0391-5.0117-7.082 0.45312-0.41797 0.90625-0.83203 1.3164-1.3164l58.176-69.238v1.2031c0 4.1719 3.3789 7.5586 7.5586 7.5586 4.1758 0 7.5586-3.3867 7.5586-7.5586v-7.5586c0-2.9375-1.6914-5.457-4.1406-6.707l46.965-55.902v117.78c-5.2695-0.86328-10.641-1.4219-16.156-1.4219-9.5977 0-18.844 1.4297-27.629 3.9492 0.59375-1.082 0.96094-2.3008 0.96094-3.6211v-12.691c0-4.1719-3.3789-7.5586-7.5586-7.5586-4.1758 0-7.5586 3.3867-7.5586 7.5586v12.691c0 3.0898 1.8594 5.7422 4.5195 6.9141-28.531 11.453-50.512 35.633-58.996 65.547v-1.2344c0-4.1719-3.3789-7.5586-7.5586-7.5586-4.1758 0-7.5586 3.3867-7.5586 7.5586v12.66c0 4.1719 3.3789 7.5586 7.5586 7.5586 1.543 0 2.9727-0.46875 4.168-1.2578-0.30859 3.168-0.48828 6.3789-0.48828 9.6211 0 3.9766 0.29688 7.875 0.74609 11.73-1.25-0.90625-2.7656-1.457-4.4219-1.457-4.1758 0-7.5586 3.3867-7.5586 7.5586v7.5586c0 4.1719 3.3789 7.5586 7.5586 7.5586 3.6914 0 6.7578-2.6484 7.418-6.1523 3.2148 11.574 8.4336 22.285 15.289 31.766h-75.27c0-4.1719-3.3789-7.5586-7.5586-7.5586-4.1758 0-7.5586 3.3867-7.5586 7.5586h-49.141c0-4.1719-3.3789-7.5586-7.5586-7.5586-4.1758 0-7.5586 3.3867-7.5586 7.5586h-49.957v-43.52c0-0.03125-0.011718-0.058594-0.011718-0.089844 0.30859 0.019532 0.60938 0.089844 0.91797 0.089844 3.6055-0.003906 7.2305-1.3906 9.9961-4.1523zm216.99-16.363c-4.1758 0-7.5586-3.3867-7.5586-7.5586 0-15.266 12.418-27.688 27.688-27.688 15.277 0 27.699 12.426 27.699 27.688 0 4.1719-3.3789 7.5586-7.5586 7.5586-4.1758 0-7.5586-3.3867-7.5586-7.5586 0-6.9336-5.6484-12.574-12.586-12.574-6.9336 0-12.574 5.6445-12.574 12.574 0.007812 4.1719-3.3711 7.5586-7.5508 7.5586zm104.52 37.215c-7.5859 19.348-25.926 31.848-46.715 31.848h-0.015625c-20.199 0-38.336-12.027-46.211-30.637-1.6289-3.8477 0.17188-8.2812 4.0156-9.9102 3.8398-1.6055 8.2773 0.17188 9.9062 4.0156 5.5078 13.012 18.184 21.418 32.293 21.418h0.011719c14.531 0 27.348-8.7305 32.648-22.254 1.5234-3.8828 5.8945-5.8047 9.793-4.2773 3.8828 1.5312 5.7969 5.9141 4.2734 9.7969zm11.727-37.215c-4.1758 0-7.5586-3.3867-7.5586-7.5586 0-6.9336-5.6445-12.574-12.582-12.574-6.9336 0-12.574 5.6445-12.574 12.574 0 4.1719-3.3789 7.5586-7.5586 7.5586-4.1758 0-7.5586-3.3867-7.5586-7.5586 0-15.266 12.418-27.688 27.688-27.688 15.27 0 27.695 12.426 27.695 27.688 0.003906 4.1719-3.3828 7.5586-7.5508 7.5586z"/>
 </g>
</svg>