<?xml version="1.0" encoding="UTF-8"?>
<!-- The Best Svg Icon site in the world: iconSvg.co, Visit us! https://iconsvg.co -->
<svg fill="#000000" width="800px" height="800px" version="1.1" viewBox="144 144 512 512" xmlns="http://www.w3.org/2000/svg">
 <g>
  <path d="m585.95 458.38c-0.35156 0.003906-0.70312-0.039062-1.043-0.11719-2.4609-0.57422-3.9922-3.0352-3.4219-5.4961 8.1836-35.277 6.5742-72.117-4.6562-106.54-11.227-34.426-31.645-65.133-59.047-88.801-27.406-23.672-60.754-39.406-96.449-45.504-2.4961-0.42187-4.1758-2.7891-3.7539-5.2852s2.7891-4.1758 5.2852-3.7539c37.34 6.3789 72.23 22.836 100.9 47.598 28.672 24.762 50.031 56.887 61.777 92.902 11.746 36.016 13.43 74.559 4.8672 111.46-0.48438 2.0742-2.332 3.5391-4.4609 3.5391z"/>
  <path d="m189.99 458.38c-2.1289 0-3.9727-1.4688-4.457-3.5391-8.5586-36.902-6.8789-75.445 4.8672-111.46 11.746-36.02 33.109-68.141 61.781-92.902 28.672-24.762 63.562-41.219 100.91-47.598 2.4961-0.41797 4.8594 1.2656 5.2773 3.7578 0.42187 2.4961-1.2617 4.8594-3.7578 5.2812-35.695 6.0977-69.043 21.832-96.449 45.5-27.406 23.672-47.824 54.375-59.051 88.805-11.227 34.426-12.836 71.266-4.6562 106.54 0.57031 2.4609-0.96094 4.9219-3.4219 5.4961-0.33984 0.078126-0.6875 0.12109-1.0391 0.11719z"/>
  <path d="m387.95 615.58c-35.012 0.078125-69.469-8.7266-100.14-25.594-30.68-16.867-56.578-41.238-75.273-70.84-1.2969-2.1328-0.64844-4.9102 1.457-6.2461 2.1055-1.3398 4.8945-0.74219 6.2734 1.3359 24.008 37.816 60.09 66.41 102.39 81.137 42.301 14.73 88.34 14.73 130.64 0 42.301-14.727 78.387-43.32 102.39-81.137 0.64062-1.0508 1.6758-1.8008 2.875-2.0781 1.1953-0.28125 2.457-0.066406 3.4961 0.59375 1.0352 0.66016 1.7656 1.707 2.0234 2.9102 0.25391 1.2031 0.015625 2.4609-0.66406 3.4844-18.699 29.605-44.605 53.98-75.293 70.848-30.691 16.867-65.156 25.668-100.17 25.586z"/>
  <path d="m335.97 241.07c-1.6719 0-3.207-0.91016-4.0117-2.375-0.80469-1.4648-0.75-3.25 0.14453-4.6602l15.984-25.191-25.191-15.984h0.003907c-2.1172-1.3633-2.7344-4.1758-1.3867-6.3008 1.3477-2.125 4.1562-2.7656 6.2891-1.4336l29.082 18.434h0.003907c1.0273 0.64844 1.7539 1.6836 2.0195 2.8672 0.26953 1.1875 0.050781 2.4297-0.60156 3.457l-18.445 29.062h0.003906c-0.84766 1.332-2.3164 2.1328-3.8945 2.125z"/>
  <path d="m585.95 458.55c-0.35547 0-0.71094-0.039063-1.0586-0.125-1.1797-0.27734-2.2031-1.0156-2.8438-2.0508l-18.055-29.312c-0.70703-1.0352-0.96484-2.3125-0.70703-3.5391 0.26172-1.2266 1.0117-2.293 2.0781-2.9531 1.0664-0.65625 2.3555-0.85156 3.5703-0.53125 1.2109 0.32031 2.2422 1.1211 2.8438 2.2188l15.648 25.406 25.41-15.676 0.003906-0.003906c2.1406-1.1953 4.8438-0.49609 6.1328 1.5898 1.2891 2.0898 0.70312 4.8203-1.3242 6.1953l-29.312 18.082c-0.71484 0.44922-1.543 0.69141-2.3867 0.69922z"/>
  <path d="m208.43 554.75c-0.35938 0-0.71875-0.042969-1.0703-0.125-2.4492-0.58594-3.9648-3.0391-3.3906-5.4961l7.9609-33.512h-0.003906c0.58594-2.4492 3.043-3.9648 5.4961-3.3945l33.48 7.9688v0.003906c2.4609 0.58594 3.9844 3.0547 3.3984 5.5156-0.58594 2.4609-3.0547 3.9805-5.5195 3.3945l-29.023-6.9102-6.8789 29.039c-0.49219 2.0586-2.332 3.5156-4.4492 3.5156z"/>
  <path d="m386.84 401.64c-3.7383 0.11328-6.8438 2.9219-7.3281 6.6289 0 0.16016-0.03125 0.42969-0.03125 0.71875-0.011719 2.9805 1.7734 5.6719 4.5234 6.8164 2.7461 1.1484 5.9141 0.52344 8.0234-1.5781 2.1094-2.1016 2.7422-5.2695 1.6055-8.0195-1.1406-2.7539-3.8242-4.5469-6.8008-4.5469z"/>
  <path d="m491.43 404.41h10.078c-1.0664-27.246-11.84-53.215-30.371-73.219l-7.082 7.0859c-1.7891 1.7891-4.6914 1.7891-6.4805 0-1.7891-1.7891-1.7891-4.6914 0-6.4805l7.0859-7.082c-20.004-18.531-45.973-29.301-73.219-30.367v10.078-0.003907c0 2.5312-2.0508 4.582-4.5781 4.582-2.5312 0-4.582-2.0508-4.582-4.582v-10.078 0.003906c-27.246 1.0664-53.215 11.836-73.215 30.367l7.0859 7.082h-0.003907c1.793 1.7891 1.793 4.6875 0.003907 6.4805-1.7891 1.7891-4.6875 1.7891-6.4766 0l-7.0859-7.0859c-18.531 20.004-29.305 45.973-30.371 73.219h10.078-0.003907c2.5312 0 4.582 2.0508 4.582 4.5781 0 2.5312-2.0508 4.582-4.582 4.582h-10.074c1.0625 27.242 11.828 53.211 30.352 73.219l7.0859-7.1016c0.85156-0.88281 2.0273-1.3867 3.2539-1.3984 1.2305-0.007813 2.4102 0.47266 3.2773 1.3438 0.87109 0.86719 1.3516 2.0469 1.3438 3.2773-0.011719 1.2266-0.51562 2.4023-1.3984 3.2539l-7.0859 7.082c19.996 18.547 45.965 29.332 73.219 30.41v-10.074c0-2.5312 2.0469-4.582 4.5781-4.582s4.582 2.0508 4.582 4.582v10.074c27.246-1.0664 53.211-11.84 73.211-30.375l-7.082-7.082c-1.7969-1.7891-1.8047-4.6953-0.015625-6.4961 1.7891-1.7969 4.6992-1.8047 6.4961-0.015625l7.0781 7.082c18.535-20 29.309-45.969 30.375-73.219h-10.078c-2.5273 0-4.5781-2.0508-4.5781-4.5781 0-2.5312 2.0508-4.582 4.5781-4.582zm-104.59 21.094c-3.7812-0.050781-7.4297-1.375-10.363-3.7617-2.9297-2.3867-4.9727-5.6914-5.7891-9.3828h-47.758c-2.5312 0-4.582-2.0508-4.582-4.5781 0-2.5312 2.0508-4.582 4.582-4.582h48.551-0.003907c1.7578-4.582 5.4453-8.1602 10.078-9.7812v-65.742c0-2.5312 2.0508-4.582 4.5781-4.582 2.5312 0 4.582 2.0508 4.582 4.582v65.34c5.2461 1.3008 9.5234 5.0938 11.441 10.148 1.9219 5.0508 1.2422 10.727-1.8164 15.184-3.0625 4.457-8.1133 7.1328-13.52 7.1562z"/>
  <path d="m386.83 252.76c-41.441 0.007812-81.184 16.477-110.48 45.781-29.297 29.309-45.754 69.051-45.75 110.49 0.007813 41.441 16.477 81.18 45.781 110.48 29.309 29.301 69.055 45.758 110.49 45.75 41.441-0.007813 81.18-16.473 110.48-45.781 29.297-29.305 45.754-69.051 45.746-110.49-0.042968-41.426-16.523-81.145-45.82-110.44-29.301-29.289-69.023-45.758-110.45-45.789zm87.637 243.88c-0.082032 0.082031-0.19141 0.10938-0.28125 0.18359h0.003906c-23.188 23.129-54.602 36.113-87.352 36.113-32.746 0-64.16-12.984-87.348-36.113-0.085937-0.074218-0.19531-0.10156-0.28125-0.18359-0.082031-0.082031-0.10938-0.19141-0.18359-0.28125l0.003906 0.003906c-23.129-23.188-36.113-54.602-36.113-87.348 0-32.75 12.984-64.164 36.113-87.352 0.074218-0.085937 0.10156-0.19531 0.18359-0.28125 0.082031-0.082031 0.19141-0.10938 0.28125-0.18359l-0.003907 0.003907c23.188-23.129 54.602-36.113 87.352-36.113s64.164 12.984 87.352 36.113c0.082032 0.074219 0.19141 0.10156 0.27344 0.18359 0.082031 0.082032 0.10938 0.19141 0.18359 0.27344 23.129 23.188 36.113 54.602 36.113 87.352s-12.984 64.164-36.113 87.352c-0.074219 0.074219-0.10156 0.18359-0.18359 0.27734z"/>
 </g>
</svg>