<?xml version="1.0" encoding="UTF-8"?>
<!-- The Best Svg Icon site in the world: iconSvg.co, Visit us! https://iconsvg.co -->
<svg fill="#000000" width="800px" height="800px" version="1.1" viewBox="144 144 512 512" xmlns="http://www.w3.org/2000/svg">
 <g>
  <path d="m588.93 313.41c2.0898 0 4.0898-0.82812 5.5664-2.3047 1.4766-1.4766 2.3086-3.4805 2.3086-5.5664v-7.8711c0-4.3477-3.5273-7.875-7.875-7.875-4.3477 0-7.8711 3.5273-7.8711 7.875v7.8711c0 2.0859 0.82812 4.0898 2.3047 5.5664 1.4766 1.4766 3.4805 2.3047 5.5664 2.3047z"/>
  <path d="m588.93 329.15c-4.3477 0-7.8711 3.5273-7.8711 7.875v7.8711c0 4.3477 3.5234 7.8711 7.8711 7.8711 4.3477 0 7.875-3.5234 7.875-7.8711v-7.8711c0-2.0898-0.83203-4.0898-2.3086-5.5664-1.4766-1.4766-3.4766-2.3086-5.5664-2.3086z"/>
  <path d="m557.44 321.28c0 2.0898 0.83203 4.0898 2.3086 5.5664 1.4766 1.4766 3.4766 2.3047 5.5664 2.3047h7.8711c4.3477 0 7.8711-3.5234 7.8711-7.8711s-3.5234-7.8711-7.8711-7.8711h-7.8711c-4.3477 0-7.875 3.5234-7.875 7.8711z"/>
  <path d="m604.67 329.15h7.8711c4.3477 0 7.8711-3.5234 7.8711-7.8711s-3.5234-7.8711-7.8711-7.8711h-7.8711c-4.3477 0-7.8711 3.5234-7.8711 7.8711s3.5234 7.8711 7.8711 7.8711z"/>
  <path d="m211.07 234.69c2.0859 0 4.0898-0.83203 5.5664-2.3086 1.4766-1.4766 2.3047-3.4766 2.3047-5.5664v-7.8711c0-4.3477-3.5234-7.8711-7.8711-7.8711-4.3477 0-7.8711 3.5234-7.8711 7.8711v7.8711c0 2.0898 0.82812 4.0898 2.3047 5.5664 1.4766 1.4766 3.4766 2.3086 5.5664 2.3086z"/>
  <path d="m211.07 250.43c-4.3477 0-7.8711 3.5234-7.8711 7.8711v7.875c0 4.3477 3.5234 7.8711 7.8711 7.8711 4.3477 0 7.8711-3.5234 7.8711-7.8711v-7.875c0-2.0859-0.82812-4.0898-2.3047-5.5664-1.4766-1.4766-3.4805-2.3047-5.5664-2.3047z"/>
  <path d="m187.45 250.43h7.8711c4.3477 0 7.875-3.5234 7.875-7.8711s-3.5273-7.8711-7.875-7.8711h-7.8711c-4.3477 0-7.8711 3.5234-7.8711 7.8711s3.5234 7.8711 7.8711 7.8711z"/>
  <path d="m226.81 250.43h7.875c4.3477 0 7.8711-3.5234 7.8711-7.8711s-3.5234-7.8711-7.8711-7.8711h-7.875c-4.3477 0-7.8711 3.5234-7.8711 7.8711s3.5234 7.8711 7.8711 7.8711z"/>
  <path d="m557.44 258.3c2.0898 0 4.0898-0.82812 5.5664-2.3047 1.4766-1.4766 2.3086-3.4766 2.3086-5.5664v-7.8711c0-4.3477-3.5273-7.8711-7.875-7.8711s-7.8711 3.5234-7.8711 7.8711v7.8711c0 2.0898 0.82812 4.0898 2.3047 5.5664 1.4766 1.4766 3.4805 2.3047 5.5664 2.3047z"/>
  <path d="m234.69 313.41v7.8711c0 4.3477 3.5234 7.8711 7.8711 7.8711s7.8711-3.5234 7.8711-7.8711v-7.8711c0-4.3477-3.5234-7.8711-7.8711-7.8711s-7.8711 3.5234-7.8711 7.8711z"/>
  <path d="m345.53 287.35c-67.172 32.676-118.72 119.64-118.72 191.37 0 101.55 61.504 157.44 173.18 157.44 111.68 0 173.18-55.891 173.18-157.44 0-71.723-51.547-158.69-118.72-191.37 46.301-7.7383 71.488-34.102 71.488-76.281-0.007813-13.617-5.8906-26.566-16.141-35.531-10.254-8.9609-23.875-13.062-37.371-11.254-13.492 1.8125-25.551 9.3594-33.078 20.703-8.75-13.191-23.531-21.121-39.359-21.121-15.832 0-30.609 7.9297-39.363 21.121-7.5234-11.344-19.582-18.891-33.078-20.703-13.496-1.8086-27.117 2.293-37.367 11.254-10.254 8.9648-16.137 21.914-16.145 35.531 0 42.18 25.191 68.543 71.484 76.281zm137.12-99.898c6.5195 0 11.809 3.5273 11.809 7.8711s-5.2891 7.8711-11.809 7.8711c-6.5195 0.003907-11.809-3.5234-11.809-7.8711 0-4.3438 5.2891-7.8711 11.809-7.8711zm-82.656 267.65c15.867 0.09375 30.633 8.1484 39.297 21.445s10.07 30.059 3.7461 44.613c-6.3242 14.555-19.539 24.961-35.172 27.699v16.453c0 4.3477-3.5234 7.8711-7.8711 7.8711s-7.875-3.5234-7.875-7.8711v-16.453c-10.992-1.8672-20.973-7.5625-28.176-16.074-7.1992-8.5156-11.164-19.301-11.184-30.449 0-4.3477 3.5234-7.875 7.8711-7.875 4.3477 0 7.875 3.5273 7.875 7.875 0 8.3516 3.3164 16.359 9.2227 22.266 5.9023 5.9023 13.914 9.2227 22.266 9.2227s16.359-3.3203 22.266-9.2227c5.9023-5.9062 9.2227-13.914 9.2227-22.266 0-8.3516-3.3203-16.363-9.2227-22.266-5.9062-5.9062-13.914-9.2227-22.266-9.2227-15.871-0.09375-30.637-8.1484-39.301-21.445-8.6641-13.297-10.07-30.059-3.7461-44.613 6.3281-14.555 19.539-24.961 35.172-27.699v-16.453c0-4.3477 3.5273-7.8711 7.875-7.8711s7.8711 3.5234 7.8711 7.8711v16.453c10.992 1.8672 20.973 7.5625 28.176 16.074 7.2031 8.5156 11.164 19.301 11.184 30.449 0 4.3477-3.5234 7.875-7.8711 7.875s-7.8711-3.5273-7.8711-7.875c0-8.3516-3.3203-16.359-9.2227-22.266-5.9062-5.9023-13.914-9.2227-22.266-9.2227s-16.363 3.3203-22.266 9.2227c-5.9062 5.9062-9.2227 13.914-9.2227 22.266 0 8.3516 3.3164 16.363 9.2227 22.266 5.9023 5.9062 13.914 9.2227 22.266 9.2227zm0-164.92c47.23 0 100.7 43.539 128.7 91.984-31.047-47.781-78.43-76.633-128.7-76.633s-97.613 28.852-128.7 76.633c28-48.445 81.465-91.984 128.7-91.984z"/>
 </g>
</svg>