<?xml version="1.0" encoding="UTF-8"?>
<!-- The Best Svg Icon site in the world: iconSvg.co, Visit us! https://iconsvg.co -->
<svg fill="#000000" width="800px" height="800px" version="1.1" viewBox="144 144 512 512" xmlns="http://www.w3.org/2000/svg">
 <g>
  <path d="m590.34 385.2h-148.39c-5.625 0-11.02 2.2266-15.004 6.1992-3.9805 3.9688-6.2305 9.3516-6.25 14.977v213.02c0.019531 5.625 2.2695 11.012 6.25 14.98 3.9844 3.9688 9.3789 6.1953 15.004 6.1953h148.39c5.625 0 11.02-2.2266 15-6.1953 3.9844-3.9688 6.2344-9.3555 6.2539-14.98v-213.02c-0.019531-5.625-2.2695-11.008-6.2539-14.977-3.9805-3.9727-9.375-6.1992-15-6.1992zm5.8242 234.19c0 1.5469-0.61328 3.0273-1.7031 4.1211-1.0938 1.0898-2.5742 1.707-4.1211 1.707h-148.39c-3.2188 0-5.8242-2.6094-5.8242-5.8281v-213.02c0-3.2188 2.6055-5.8242 5.8242-5.8242h148.39c1.5469 0 3.0273 0.61328 4.1211 1.7031 1.0898 1.0938 1.7031 2.5742 1.7031 4.1211z"/>
  <path d="m569.64 416.37h-106.66c-7.5352 0-13.656 6.0859-13.699 13.621v22.277c0.042968 7.5352 6.1641 13.617 13.699 13.617h106.66c7.5352 0 13.652-6.082 13.699-13.617v-22.277c-0.046875-7.5352-6.1641-13.621-13.699-13.621zm0 35.66-106.66 0.23828v-22.043h106.82z"/>
  <path d="m474.15 478.09h-13.777c-6.3008 0-11.414 5.1094-11.414 11.414v13.777c0 6.3008 5.1133 11.414 11.414 11.414h13.777c3.0273 0 5.9297-1.2031 8.0703-3.3438 2.1406-2.1406 3.3438-5.043 3.3438-8.0703v-13.777c0-6.3047-5.1094-11.414-11.414-11.414zm-2.4414 22.75h-8.7344v-8.8945h8.8945z"/>
  <path d="m571.92 478.09h-13.773c-6.3047 0-11.414 5.1094-11.414 11.414v13.777c0 6.3008 5.1094 11.414 11.414 11.414h13.777-0.003906c3.0273 0 5.9336-1.2031 8.0742-3.3438 2.1406-2.1406 3.3438-5.043 3.3438-8.0703v-13.777c0-6.3047-5.1133-11.414-11.418-11.414zm-2.4414 22.75h-8.8945v-8.8945h8.8945z"/>
  <path d="m523.04 478.09h-13.777c-6.3047 0-11.414 5.1094-11.414 11.414v13.777c0 6.3008 5.1094 11.414 11.414 11.414h13.777c3.0273 0 5.9297-1.2031 8.0703-3.3438 2.1406-2.1406 3.3438-5.043 3.3438-8.0703v-13.777c0-6.3047-5.1094-11.414-11.414-11.414zm-2.4414 22.75h-8.8945v-8.8945h8.8945z"/>
  <path d="m474.15 526.82h-13.777c-6.3008 0-11.414 5.1094-11.414 11.414v13.699c0 6.3047 5.1133 11.414 11.414 11.414h13.777c3.0273 0 5.9297-1.2031 8.0703-3.3438s3.3438-5.043 3.3438-8.0703v-13.699c0-3.0273-1.2031-5.9297-3.3438-8.0703s-5.043-3.3438-8.0703-3.3438zm-2.4414 22.75h-8.7344v-8.9727h8.8945z"/>
  <path d="m523.04 526.82h-13.777c-6.3047 0-11.414 5.1094-11.414 11.414v13.699c0 6.3047 5.1094 11.414 11.414 11.414h13.777c3.0273 0 5.9297-1.2031 8.0703-3.3438s3.3438-5.043 3.3438-8.0703v-13.699c0-3.0273-1.2031-5.9297-3.3438-8.0703s-5.043-3.3438-8.0703-3.3438zm-2.4414 22.75h-8.8945v-8.9727h8.8945z"/>
  <path d="m474.15 576.65h-13.777c-6.3008 0-11.414 5.1094-11.414 11.414v13.777-0.003906c0 6.3047 5.1133 11.414 11.414 11.414h13.777c3.0273 0 5.9297-1.1992 8.0703-3.3398s3.3438-5.0469 3.3438-8.0742v-13.773c0-3.0273-1.2031-5.9336-3.3438-8.0742s-5.043-3.3398-8.0703-3.3398zm-2.4414 22.75h-8.7344v-8.8984h8.8945z"/>
  <path d="m571.92 526.82h-13.773c-6.3047 0-11.414 5.1094-11.414 11.414v63.605c0 6.3047 5.1094 11.414 11.414 11.414h13.777-0.003906c3.0273 0 5.9336-1.1992 8.0742-3.3398s3.3438-5.0469 3.3438-8.0742v-63.605c0-3.0273-1.2031-5.9297-3.3438-8.0703s-5.0469-3.3438-8.0742-3.3438zm-2.4414 72.578-8.8945 0.003907v-58.805h8.8945z"/>
  <path d="m523.04 576.65h-13.777c-6.3047 0-11.414 5.1094-11.414 11.414v13.777-0.003906c0 6.3047 5.1094 11.414 11.414 11.414h13.777c3.0273 0 5.9297-1.1992 8.0703-3.3398s3.3438-5.0469 3.3438-8.0742v-13.773c0-3.0273-1.2031-5.9336-3.3438-8.0742s-5.043-3.3398-8.0703-3.3398zm-2.4414 22.75h-8.8945v-8.8984h8.8945z"/>
  <path d="m403.23 624.82h-198.06c-0.73828 0-1.3359-0.60156-1.3359-1.3398v-447.37c0-0.73828 0.59766-1.3359 1.3359-1.3359h212.94v67.07-0.003906c0.0625 4.3867 1.8477 8.5703 4.9688 11.648 3.125 3.082 7.332 4.8047 11.719 4.8047h73.602v105.49c0 4.3477 3.5273 7.8711 7.875 7.8711 4.3477 0 7.8711-3.5234 7.8711-7.8711v-112.89c-0.027344-2.1562-0.9375-4.2031-2.5195-5.668l-90.605-83.758c-1.4922-1.2891-3.3867-2.0117-5.3555-2.0469h-220.42 0.003906c-4.4492-0.019532-8.7227 1.7266-11.883 4.8555-3.1562 3.1289-4.9453 7.3867-4.9648 11.832v447.37c0.019531 4.4336 1.7969 8.6797 4.9375 11.805 3.1445 3.1289 7.3984 4.8867 11.828 4.8867h198.06c2.3359 0.53125 4.7852-0.03125 6.6562-1.5234 1.875-1.4922 2.9648-3.7578 2.9648-6.1523s-1.0898-4.6602-2.9648-6.1562c-1.8711-1.4922-4.3203-2.0508-6.6562-1.5195zm30.227-440.12 62.977 58.488h-61.637c-0.72266-0.039062-1.3008-0.61719-1.3398-1.3398z"/>
  <path d="m382.84 487.3c-6.3516-12.781-16.137-23.535-28.266-31.059-12.125-7.5195-26.105-11.516-40.375-11.531-12.258 0-24.332 2.9727-35.191 8.6602-17.754 9.2617-31.184 25.102-37.414 44.133-6.2266 19.035-4.7617 39.75 4.082 57.715 8.8438 17.969 24.371 31.762 43.254 38.43 23.516 8.4336 49.668 4.8516 70.055-9.5898 20.383-14.441 32.434-37.926 32.281-62.91 0.003906-11.711-2.6875-23.27-7.875-33.77zm-17.477 0-47.781 23.617-24.719-47.23v-0.003906c6.832-2.5273 14.051-3.832 21.336-3.8594 20.66 0.078125 39.895 10.551 51.168 27.867zm-112.57 33.852 0.003907-0.003906c0.070312-20.082 9.9453-38.859 26.449-50.301l26.293 51.324-19.129 54.316c-10.125-5.168-18.625-13.035-24.555-22.73-5.9336-9.6992-9.0703-20.848-9.0586-32.215zm61.402 61.48 0.003906-0.003906c-4.3711 0.011719-8.7266-0.46094-12.992-1.418l19.207-54.555 51.797-25.586 0.003907 0.003907c2.2734 6.4492 3.4453 13.234 3.4648 20.074 0.10156 16.375-6.3281 32.113-17.871 43.727-11.539 11.617-27.238 18.148-43.609 18.148z"/>
  <path d="m450.14 318.52c0-2.0898-0.83203-4.0898-2.3086-5.5664-1.4727-1.4766-3.4766-2.3047-5.5664-2.3047h-172.55c-4.3477 0-7.8711 3.5234-7.8711 7.8711 0 4.3477 3.5234 7.8711 7.8711 7.8711h173.19c4.0977-0.32812 7.2539-3.7578 7.2422-7.8711z"/>
  <path d="m402.83 361.74c0-2.0898-0.82812-4.0898-2.3047-5.5664-1.4766-1.4766-3.4805-2.3086-5.5664-2.3086h-77.934c-3.582 0.81641-6.1211 4.0039-6.1211 7.6758 0 3.6758 2.5391 6.8594 6.1211 7.6758h78.168c4.1094-0.11719 7.4336-3.375 7.6367-7.4766z"/>
 </g>
</svg>