<?xml version="1.0" encoding="UTF-8"?>
<!-- The Best Svg Icon site in the world: iconSvg.co, Visit us! https://iconsvg.co -->
<svg fill="#000000" width="800px" height="800px" version="1.1" viewBox="144 144 512 512" xmlns="http://www.w3.org/2000/svg">
 <g>
  <path d="m400 274.05c-14.648 0-26.566-11.918-26.566-26.566 0-14.648 11.918-26.566 26.566-26.566s26.566 11.918 26.566 26.566c0 14.648-11.918 26.566-26.566 26.566zm0-39.359c-7.0547 0-12.793 5.7383-12.793 12.793 0 7.0547 5.7383 12.793 12.793 12.793s12.793-5.7383 12.793-12.793c-0.003907-7.0547-5.7422-12.793-12.793-12.793z"/>
  <path d="m622.32 303.57h-444.65c-3.2383 0-6.0391-2.2578-6.7305-5.4219-0.6875-3.1641 0.92188-6.3828 3.8672-7.7305 41.617-19.027 75.773-36.246 111.94-54.477 33.586-16.934 68.316-34.441 109.96-53.75 1.875-0.87109 4.0469-0.85156 5.9062 0.054688l222.71 108.24c2.8867 1.4023 4.4219 4.6133 3.7031 7.7383-0.72266 3.1289-3.5078 5.3438-6.7148 5.3438zm-413.55-13.777h383.62l-192.85-93.727c-40.133 18.672-73.906 35.699-106.59 52.176-27.801 14.016-54.418 27.434-84.176 41.551z"/>
  <path d="m592.8 588.93h-383.76c-3.8047 0-6.8867-3.082-6.8867-6.8867v-39.359c0-3.8047 3.082-6.8867 6.8867-6.8867h383.76c3.8047 0 6.8867 3.082 6.8867 6.8867v39.359c0.003906 3.8047-3.082 6.8867-6.8867 6.8867zm-376.87-13.773h369.98v-25.586h-369.98z"/>
  <path d="m612.48 618.45c-3.8047 0-6.8867-3.082-6.8867-6.8867v-22.633h-409.34v22.633c0 3.8047-3.082 6.8867-6.8867 6.8867-3.8047 0-6.8867-3.082-6.8867-6.8867v-29.52c0-3.8047 3.082-6.8867 6.8867-6.8867h423.12c3.8047 0 6.8867 3.082 6.8867 6.8867v29.52c0 3.8047-3.0859 6.8867-6.8906 6.8867z"/>
  <path d="m287.76 549.57h-49.199c-3.8047 0-6.8867-3.082-6.8867-6.8867l-0.003906-200.66c-11.32-3.043-19.68-13.395-19.68-25.664v-19.68c0-3.8047 3.082-6.8867 6.8867-6.8867h88.559c3.8047 0 6.8867 3.082 6.8867 6.8867v19.68c0 12.27-8.3594 22.621-19.68 25.664l0.003907 200.66c0 3.8047-3.082 6.8867-6.8867 6.8867zm-42.312-13.777h35.426v-199.75c0-3.8047 3.082-6.8867 6.8867-6.8867 7.0547 0 12.793-5.7383 12.793-12.793v-12.793h-74.785v12.793c0 7.0547 5.7383 12.793 12.793 12.793 3.8047 0 6.8867 3.082 6.8867 6.8867z"/>
  <path d="m425.52 549.57h-49.199c-3.8047 0-6.8867-3.082-6.8867-6.8867l-0.003906-200.66c-11.32-3.043-19.68-13.395-19.68-25.664v-19.68c0-3.8047 3.082-6.8867 6.8867-6.8867h88.559c3.8047 0 6.8867 3.082 6.8867 6.8867v19.68c0 12.27-8.3594 22.621-19.68 25.664l0.003906 200.66c0 3.8047-3.0859 6.8867-6.8867 6.8867zm-42.312-13.777h35.426l-0.003907-199.75c0-3.8047 3.082-6.8867 6.8867-6.8867 7.0547 0 12.793-5.7383 12.793-12.793v-12.793h-74.785v12.793c0 7.0547 5.7383 12.793 12.793 12.793 3.8047 0 6.8867 3.082 6.8867 6.8867z"/>
  <path d="m563.28 549.57h-49.199c-3.8047 0-6.8867-3.082-6.8867-6.8867v-200.66c-11.32-3.043-19.68-13.395-19.68-25.664v-19.68c0-3.8047 3.082-6.8867 6.8867-6.8867h88.559c3.8047 0 6.8867 3.082 6.8867 6.8867v19.68c0 12.27-8.3594 22.621-19.68 25.664l0.003906 200.66c0 3.8047-3.0859 6.8867-6.8906 6.8867zm-42.312-13.777h35.426v-199.75c0-3.8047 3.082-6.8867 6.8867-6.8867 7.0547 0 12.793-5.7383 12.793-12.793v-12.793h-74.785v12.793c0 7.0547 5.7383 12.793 12.793 12.793 3.8047 0 6.8867 3.082 6.8867 6.8867z"/>
  <path d="m376.32 520.05h-88.559c-3.8047 0-6.8867-3.082-6.8867-6.8867 0-3.8047 3.082-6.8867 6.8867-6.8867h88.559c3.8047 0 6.8867 3.082 6.8867 6.8867 0.003907 3.8047-3.082 6.8867-6.8867 6.8867z"/>
  <path d="m514.08 520.05h-88.559c-3.8047 0-6.8867-3.082-6.8867-6.8867 0-3.8047 3.082-6.8867 6.8867-6.8867h88.559c3.8047 0 6.8867 3.082 6.8867 6.8867 0 3.8047-3.082 6.8867-6.8867 6.8867z"/>
 </g>
</svg>