<?xml version="1.0" encoding="UTF-8"?>
<!-- The Best Svg Icon site in the world: iconSvg.co, Visit us! https://iconsvg.co -->
<svg fill="#000000" width="800px" height="800px" version="1.1" viewBox="144 144 512 512" xmlns="http://www.w3.org/2000/svg">
 <path d="m542.72 375.75-137.89-106.05c-1.793-1.3711-4.2891-1.3945-6.0898-0.035156l-141.41 106.05c-1.2695 0.94531-2.0156 2.4453-2.0156 4.0312v34.359c0 1.9102 1.0781 3.6523 2.7852 4.5078 1.707 0.84766 3.7539 0.67969 5.2734-0.48047l30.027-22.516v142.91c0 2.7852 2.2539 5.0391 5.0391 5.0391h203.14c2.7852 0 5.0391-2.2539 5.0391-5.0391v-143.48l29.977 23.055c0.89844 0.69141 1.9805 1.043 3.0664 1.043 0.75391 0 1.5234-0.17188 2.2227-0.51953 1.7227-0.85156 2.8164-2.6055 2.8164-4.5195v-34.359c0-1.5664-0.73047-3.043-1.9688-3.9961zm-46.195 157.75h-193.06v-145.1l96.531-71.285 96.531 71.285zm38.09-129.62-129.79-99.816c-1.793-1.3711-4.2891-1.3945-6.0898-0.035156l-133.36 100v-21.766l136.34-102.24 132.9 102.2zm-36.238-76.621c0.92188 0.74609 2.0469 1.1367 3.1875 1.1367 0.73438 0 1.4727-0.15625 2.1602-0.48828 1.7578-0.83203 2.875-2.6055 2.875-4.5508l0.003907-61.902c0-2.7852-2.2539-5.0391-5.0391-5.0391h-26.047c-2.7852 0-5.0391 2.2539-5.0391 5.0391v40.621c0 1.5117 0.67969 2.9492 1.8477 3.8984zm-17.82-60.77h15.973v46.246l-15.973-13.047zm-74.961 114.7v10.863c12.48 1.5781 20.539 8.9844 24.254 22.254l-15.41 6.6602c-3.0234-9.1172-7.6562-13.664-13.906-13.664-3.1445 0-5.7227 1.0195-7.5977 3.0469-1.9492 2.0508-2.8672 4.5-2.8672 7.3516 0 2.9961 0.92188 5.2383 2.7461 6.8125 1.8828 1.5469 5.7734 3.543 11.855 5.8242 6.6406 2.5898 11.828 4.9766 15.598 7.3047 3.75 2.2305 6.7617 5.3555 9.0195 9.3203 2.2461 4.0156 3.3789 8.6797 3.3789 14.012 0 8.1523-2.3086 15.02-6.9531 20.477-4.6367 5.4375-11.332 8.7148-20.117 9.6328v14.027l-11.141-0.003906v-13.957c-14.617-1.5664-23.703-10.484-27.137-26.73l17.227-4.7656c1.6367 10.211 6.8867 15.316 15.914 15.316 4.207 0 7.2656-1.0938 9.2734-3.2656 1.9961-2.1758 3.0039-4.8398 3.0039-7.9648 0-3.1992-1.0078-5.5625-3.0039-7.25-2.0039-1.6484-6.4023-3.7617-13.219-6.2617-6.1367-2.2617-10.914-4.4297-14.402-6.6797-3.4453-2.168-6.2109-5.2344-8.3945-9.168-2.1523-3.875-3.2109-8.5156-3.2109-13.742 0-6.8672 1.8828-13.062 5.7734-18.512 3.8203-5.5078 9.9062-8.8438 18.172-10.078v-10.863h11.145z"/>
</svg>