<?xml version="1.0" encoding="UTF-8"?>
<!-- The Best Svg Icon site in the world: iconSvg.co, Visit us! https://iconsvg.co -->
<svg fill="#000000" width="800px" height="800px" version="1.1" viewBox="144 144 512 512" xmlns="http://www.w3.org/2000/svg">
 <g>
  <path d="m400 608.61c-56.246 0-109.13-21.902-148.9-61.676-39.777-39.77-61.68-92.652-61.68-148.9s21.902-109.13 61.676-148.9c39.773-39.773 92.652-61.68 148.9-61.68 56.246 0 109.12 21.902 148.9 61.676 39.773 39.773 61.676 92.652 61.676 148.9 0 56.246-21.902 109.13-61.676 148.9-39.773 39.773-92.652 61.676-148.9 61.676zm0-413.28c-111.77 0-202.71 90.934-202.71 202.71s90.934 202.7 202.7 202.7c111.77 0 202.7-90.934 202.7-202.7 0.003906-111.77-90.93-202.71-202.7-202.71z"/>
  <path d="m400 549.57c-36.055 0-70.988-12.879-98.363-36.266-27.07-23.125-45.207-55.094-51.066-90.02-0.19141-1.1406 0.12891-2.3086 0.875-3.1953 0.74609-0.88281 1.8477-1.3945 3.0039-1.3945l17.629 0.003906c11.395 0 20.664-9.2695 20.664-20.664s-9.2695-20.664-20.664-20.664h-17.629c-1.1562 0-2.2578-0.50781-3.0039-1.3945-0.74609-0.88281-1.0703-2.0508-0.875-3.1953 5.8594-34.922 23.996-66.891 51.066-90.02 27.371-23.383 62.305-36.266 98.363-36.266 36.055 0 70.988 12.879 98.363 36.266 26.969 23.039 45.066 54.852 51 89.621 0.089844 0.33203 0.14062 0.68359 0.14062 1.0469 0 2.1719-1.7617 3.9375-3.9375 3.9375h-0.019531l-17.629 0.003907c-11.395 0-20.664 9.2695-20.664 20.664s9.2695 20.664 20.664 20.664h17.629c1.1562 0 2.2578 0.50781 3.0039 1.3945 0.74609 0.88281 1.0703 2.0508 0.87891 3.1953-5.8594 34.922-23.996 66.891-51.066 90.02-27.375 23.383-62.309 36.262-98.363 36.262zm-140.82-123c13.441 66.992 71.934 115.13 140.82 115.13 68.887 0 127.38-48.137 140.82-115.13h-12.902c-15.734 0-28.535-12.801-28.535-28.535s12.801-28.535 28.535-28.535h12.898c-13.438-66.992-71.93-115.13-140.82-115.13s-127.38 48.137-140.82 115.13h12.902c15.734 0 28.535 12.801 28.535 28.535s-12.801 28.535-28.535 28.535z"/>
  <path d="m407.95 484.62c-33.52 0-60.789-37.082-60.789-82.656 0-45.578 27.27-82.656 60.789-82.656 17.512 0 34.16 10.219 45.68 28.039 1.1797 1.8242 0.65625 4.2617-1.168 5.4414-1.8281 1.1797-4.2617 0.65625-5.4414-1.168-10.043-15.531-24.285-24.438-39.07-24.438-29.18 0-52.918 33.547-52.918 74.785 0 41.234 23.738 74.785 52.918 74.785 14.785 0 29.023-8.9102 39.066-24.441 1.1797-1.8242 3.6172-2.3477 5.4414-1.168 1.8242 1.1797 2.3477 3.6172 1.168 5.4414-11.52 17.816-28.168 28.035-45.676 28.035z"/>
  <path d="m413.77 386.22h-78.719c-2.1719 0-3.9375-1.7617-3.9375-3.9375 0-2.1719 1.7617-3.9375 3.9375-3.9375h78.719c2.1719 0 3.9375 1.7617 3.9375 3.9375 0 2.1758-1.7617 3.9375-3.9375 3.9375z"/>
  <path d="m413.77 425.58h-78.719c-2.1719 0-3.9375-1.7617-3.9375-3.9375 0-2.1719 1.7617-3.9375 3.9375-3.9375h78.719c2.1719 0 3.9375 1.7617 3.9375 3.9375s-1.7617 3.9375-3.9375 3.9375z"/>
  <path d="m522.02 612.54h-285.36c-2.1719 0-3.9375-1.7617-3.9375-3.9375 0-2.1719 1.7617-3.9375 3.9375-3.9375h285.36c2.1719 0 3.9375 1.7617 3.9375 3.9375s-1.7617 3.9375-3.9336 3.9375z"/>
 </g>
</svg>