<?xml version="1.0" encoding="UTF-8"?>
<!-- The Best Svg Icon site in the world: iconSvg.co, Visit us! https://iconsvg.co -->
<svg fill="#000000" width="800px" height="800px" version="1.1" viewBox="144 144 512 512" xmlns="http://www.w3.org/2000/svg">
 <path d="m625.69 325.11c-2.1406-1.5938-5.168-1.1562-6.7695 0.98438l-22.117 29.629c-1.1367 1.5273-2.8359 2.5391-4.7227 2.8164-1.8828 0.27344-3.8008-0.21094-5.3242-1.3516l-4.7148-3.5039c-0.125-0.19922-0.26172-0.39063-0.41406-0.57031-0.60156-0.66797-1.3789-1.1562-2.2422-1.4062l-103.04-76.754v0.003906c-1.5273-1.1367-2.5391-2.832-2.8164-4.7148-0.27734-1.8828 0.20312-3.7969 1.3398-5.3242l22.102-29.637c1.5938-2.1406 1.1523-5.1719-0.98828-6.7656s-5.1719-1.1523-6.7656 0.98828l-22.082 29.637c-2.6719 3.5898-3.8125 8.0977-3.1641 12.523 0.64844 4.4297 3.0273 8.4219 6.6172 11.094l2.5391 1.8906c-8.1484 13.43-12.93 17.18-13.676 17.477-0.72656-0.097656-2.5195-0.62109-4.25-1.1328-12.91-3.8086-43.129-12.723-66.734 17.711-1.4062 1.8125-2.7461 3.5625-4.0547 5.2734-8.0312-5.2852-15.273-7.9219-22.297-10.48l-0.003907 0.003906c-5.0312-1.6758-9.918-3.7578-14.613-6.2305-9.0312-5.0195-22.465-16.52-28.398-21.758h0.003907c1.5117-3.2891 1.9219-6.9805 1.1719-10.527-0.75-3.543-2.6211-6.7539-5.3359-9.1523l-27.758-24.43c-0.95703-0.89453-2.2383-1.3633-3.5469-1.3008-1.3086 0.066406-2.5352 0.65625-3.3984 1.6406s-1.293 2.2773-1.1875 3.582c0.10547 1.3086 0.73438 2.5156 1.7461 3.3477l27.758 24.395c2.9727 2.6172 3.2617 7.1484 0.64844 10.125l-90.922 103.42c-1.25 1.4297-3.0234 2.3008-4.918 2.4219-1.8984 0.10938-3.7617-0.52734-5.1953-1.7734l-27.777-24.41c-2.0195-1.6641-4.9922-1.4258-6.7188 0.53906-1.7266 1.9648-1.5781 4.9453 0.33203 6.7305l27.758 24.402v0.003906c3.0625 2.7109 7.0156 4.207 11.109 4.1992h1.1016c2.8906-0.17969 5.6836-1.1094 8.1094-2.6953 10.695 8.1953 31.273 25.172 35 33.871 2.9531 6.8281 14.051 24.09 37.391 46.602l-1.9688 2.3906c-7.4492 9.0625-5.9023 22.711 3.4844 30.414l0.26562 0.22656c4.0039 3.2891 9.0195 5.0859 14.199 5.0859 0.47266 0 0.98438 0 1.4258-0.050781l0.003906 0.003906c-0.23828 2.1211-0.14453 4.2656 0.27344 6.3555 1.2031 5.7969 4.3828 10.992 8.9922 14.703l0.29687 0.24609c4.5195 3.7852 10.203 5.8945 16.098 5.9727 2.1602 0 4.3086-0.33203 6.3672-0.98438 0.73828 5.6445 3.6016 10.801 8.0117 14.406l0.26562 0.21484c3.9922 3.3164 9.0156 5.1328 14.207 5.1484 0.55078 0 1.1133 0 1.6641-0.058594v-0.003906c3.2617-0.23438 6.4258-1.2227 9.2383-2.8906 1.3711 3.7031 3.707 6.9727 6.7695 9.4648l0.23438 0.19531 0.003907 0.003906c3.8672 3.2266 8.7344 5.0156 13.773 5.0547 5.125 0.10938 10.023-2.0977 13.336-6.0117l5.3242-6.4766c2.3633 1.1914 4.7539 2.3828 7.1914 3.5703v0.003907c4.2031 1.918 8.7734 2.9023 13.391 2.8945 8.2969 0.13672 16.191-3.5664 21.395-10.027 5.207-6.3164 5.6562-15.301 4.418-22.375v-0.003906c0.86328 0.10156 1.7305 0.15625 2.5977 0.16016h0.70703c6.4453-0.19531 11.945-3.0391 16.363-8.4336 5.4883-6.3633 7.5859-14.969 5.6484-23.145 8.5703-0.27734 15.41-5.2266 19.602-14.406 2.3164-4.8789 3.0938-10.344 2.2344-15.676 1.0273-0.03125 2.0547-0.12891 3.0703-0.28516 7.1719-1.1406 13.047-5.207 17.465-12.082 5.9023-9.1133 5.6367-19.297-0.26562-29.52 6.6523-9.4375 20.93-32.168 25.586-42.242 3.2578-7.0938 15.066-19.031 22.031-25.586l2.8828 2.2148c3.5859 2.6797 8.0938 3.8242 12.527 3.1758 4.4297-0.64844 8.4219-3.0352 11.09-6.6289l22.082-29.637v-0.003906c0.75781-1.0352 1.0742-2.3359 0.875-3.6055-0.19922-1.2695-0.89844-2.4102-1.9414-3.1641zm-323.29 176.91-0.26562-0.21484c-5.2461-4.3203-6.2188-11.855-2.1562-16.797l11.996-14.574v-0.003906c1.9609-2.3633 4.8086-3.8242 7.8711-4.0312h0.92578c3.0664 0.042969 6.0195 1.1602 8.3438 3.1562 5.2461 4.3203 6.2109 11.809 2.1562 16.797l-11.957 14.562c-4.1016 4.9102-11.668 5.4219-16.914 1.1055zm25.23 26.402-3.0781 3.7305 2.7852-3.9375-0.003906-0.003906c-2.8906-2.2969-4.8906-5.5273-5.6562-9.1406-0.65625-2.7656-0.03125-5.6797 1.7031-7.9297l7.6172-9.25 7.7656-9.4453 4.1836-5.0859c3.7188-4.5273 11.551-4.25 17.711 0.84766l-0.003906-0.003907c2.8789 2.2812 4.8789 5.4922 5.6562 9.082 0.65625 2.7656 0.027343 5.6797-1.7109 7.9297l-11.906 14.543-4.2227 5.1367-3.375 4.1133c-3.7383 4.5273-11.57 4.2617-17.465-0.58984zm39.734 22.543v-0.003906c-3.2695 0.22266-6.4922-0.83594-8.9922-2.9492l-0.27734-0.22656c-5.2461-4.3203-6.2109-11.809-2.1562-16.785l4.2227-5.1367 7.7734-9.4453v-0.003906c1.9609-2.3672 4.8047-3.8242 7.8711-4.0352h0.92578c3.0664 0.039062 6.0195 1.1602 8.3438 3.1602 4.082 3.2578 5.6602 8.7383 3.9375 13.668l-9.2383 11.227h-0.003906c-0.91016 1.1172-1.6641 2.3516-2.2422 3.6719l-2.3008 2.8047v-0.003906c-1.957 2.375-4.7969 3.8398-7.8633 4.0547zm36.574 9.3359c-2.8945 3.5039-8.9258 3.3359-13.453-0.38281l-3.0703 3.7383 2.832-3.9375c-3.582-2.9531-5.1445-7.2305-4.2305-10.637l8.707-10.578h0.003906c1.0156-1.2344 1.8828-2.5859 2.5781-4.0234 1.4258-1.3008 3.2969-2.0039 5.2266-1.9688h0.14844c2.9062 0.070313 5.6953 1.1641 7.8711 3.0898 4.5273 3.7188 5.8555 9.6055 2.9531 13.117zm118.74-105.39c-2.9023 4.5156-6.4531 7.0547-10.824 7.7656-8.1953 1.2773-19.68-3.8477-33.309-14.906v-0.003906c-2.0703-1.6875-5.1172-1.375-6.8047 0.69531-1.6875 2.0703-1.3789 5.1172 0.69141 6.8047 10.109 8.2266 19.293 13.512 27.551 15.863 0.79688 1.9688 2.1562 6.8008-0.6875 13.039-3.3359 7.3008-8.0117 9.8398-15.164 8.3633-0.29688-0.070313-0.60938-0.15625-0.98438-0.26562l0.003907-0.003907c-0.48828-0.30859-1.0312-0.52734-1.5977-0.64062-5.2461-2.3438-13.402-8.2773-18.016-12.074v0.003906c-2.0664-1.6797-5.1016-1.375-6.793 0.67969-1.6914 2.0586-1.4023 5.0938 0.64453 6.7969 1.3594 1.1133 11.633 9.457 19.965 13.285 1.6523 2.9531 4.8516 10.883-2.0273 19.297-2.5977 3.168-5.5977 4.7734-9.1602 4.9219-9.4648 0.22656-21.324-9.9297-25.031-13.902l-0.003906-0.003906c-1.8398-1.8594-4.8203-1.918-6.7344-0.13672-1.9141 1.7812-2.0703 4.7578-0.34766 6.7305 0.46094 0.49219 8.1875 8.6992 18.195 13.52 1.418 3.3438 3.6328 13.941-0.98438 19.531-9.0742 11-22.582 4.832-23.105 4.5859-1.832-0.89453-3.6328-1.7812-5.4219-2.6758 3.9375-7.5469 1.5938-17.711-6.3086-24.246-3.9297-3.293-8.8945-5.0938-14.023-5.0898-1.0391 0.027344-2.0742 0.12891-3.0977 0.31641-0.64062-5.9922-3.6328-11.48-8.3164-15.273-4.1992-3.4727-9.5195-5.293-14.965-5.125 0.375-2.4219 0.32422-4.8867-0.14844-7.293-1.2539-5.918-4.543-11.211-9.3008-14.957-7.1055-5.8438-16.188-7.3789-23.398-4.6953v0.003906c-0.91406-5.4961-3.8008-10.473-8.1172-13.992-4.4336-3.6836-10.125-5.5078-15.871-5.0898-5.707 0.39453-11 3.1211-14.633 7.5391l-3.9375 4.6836c-21.902-21.227-32.234-37.227-34.676-42.922-4.8516-11.336-27.266-29.461-36.988-36.949l84.27-95.832c6.4336 5.668 19.906 17.121 29.52 22.484 5.1367 2.7266 10.488 5.0312 16 6.8867 6.6133 2.4102 12.91 4.7031 19.797 9.1406-17.34 23.676-23.398 37.875-13.312 51.492v0.003907c4.3008 5.9766 11.344 9.3555 18.695 8.9727 12.508-0.38281 25.586-9.9883 37.059-27.098 1.5156-0.51172 4.8398-1.0625 9.0117 1.6055 7.625 4.9219 8.9453 5.9023 9.1992 6.0312l1.75 1.1797c30.555 20.555 52.625 35.426 64.855 44.508 10.219 7.5352 25.945 22.344 16.883 36.445zm24.602-70.562c-3.9375 8.6484-15.941 27.918-22.781 37.992-3.8867-4.3281-8.207-8.2383-12.902-11.672-12.418-9.2305-34.566-24.137-65.23-44.773l-1.4844-0.98438c-0.35547-0.26562-1.9688-1.418-9.6445-6.3359-8.5703-5.4922-16.609-3.4922-20.004-1.4375v0.003907c-0.625 0.375-1.1562 0.89062-1.5547 1.5039-9.6914 14.898-20.664 23.617-30.031 23.891-4.1641 0.23047-8.1562-1.6758-10.598-5.0547-6.9453-9.3789-2.2031-20.242 23.047-52.84 19.562-25.25 44.406-17.918 56.344-14.395v-0.003907c1.8906 0.62109 3.8281 1.1055 5.793 1.4453 4.2109 0.5625 10.559-1.4766 22.633-21.266l89.367 66.52c-6.8086 6.4648-18.934 18.688-22.938 27.406z"/>
</svg>