<?xml version="1.0" encoding="UTF-8"?>
<!-- The Best Svg Icon site in the world: iconSvg.co, Visit us! https://iconsvg.co -->
<svg fill="#000000" width="800px" height="800px" version="1.1" viewBox="144 144 512 512" xmlns="http://www.w3.org/2000/svg">
 <g>
  <path d="m371.63 410.9-52.715-33.5c-2.293-1.457-5.3398-0.77734-6.8008 1.5156-10.695 16.82-5.7031 39.211 11.125 49.914 5.8477 3.7148 12.5 5.6328 19.285 5.6328 2.6445 0 5.3203-0.29297 7.9688-0.88281 9.4414-2.1055 17.488-7.7422 22.656-15.879 1.4531-2.2969 0.77734-5.3398-1.5195-6.8008zm-43.105 9.6094c-10.82-6.8789-14.914-20.398-10.344-31.895l43.613 27.715c-8.4727 9.0195-22.453 11.055-33.27 4.1797z"/>
  <path d="m622.74 392.29c-1.0234-0.21094-25.16-5.3516-32.012-29.008-5.1797-17.875-19.633-25.605-30.84-28.969 20.25-13.336 31.07-33.59 31.035-59.461-0.070312-49.262-59.977-89.059-62.531-90.727-1.9883-1.3008-4.6094-1.0039-6.2539 0.70703-1.6484 1.7148-1.8398 4.3477-0.45703 6.2773 20.934 29.332 27.555 51.73 19.68 66.578-11.613 21.875-52.859 23.102-67.051 22.871-16.234-9.4883-34.734-14.523-53.629-14.523h-41.359c-18.902 0-37.406 5.043-53.641 14.523-14.223 0.23828-55.438-1.0039-67.047-22.871-7.875-14.848-1.2539-37.246 19.68-66.578 1.375-1.9297 1.1836-4.5703-0.45703-6.2773-1.6367-1.7031-4.2578-2.0039-6.2539-0.70703-2.5508 1.668-62.469 41.465-62.527 90.727-0.039063 25.871 10.781 46.125 31.035 59.461-11.211 3.3711-25.664 11.094-30.84 28.969-6.8516 23.652-30.988 28.797-32.004 29.004-2.1328 0.42188-3.7383 2.1875-3.9531 4.3477s1.0117 4.207 3.0195 5.043c0.34375 0.14062 17.094 6.8906 37.457 6.8906 14.852 0 31.609-3.6172 45.324-15.98-1.3438 6.3633-2.4805 12.816-3.3594 19.367-0.21484 1.6328 0.39453 3.2734 1.6328 4.3633 38.359 33.676 61.207 76.668 67.895 127.8 3.4023 25.645 25.887 44.98 52.297 44.98h44.84c4.4844 0 8.8477-0.59766 13.07-1.6719v24.348c0 2.7188 2.207 4.9258 4.9258 4.9258h65.188c2.7266 0 4.9258-2.207 4.9258-4.9258l-0.007812-64.766h32.535c1.9102 0 3.6523-1.1094 4.4688-2.8398 0.80469-1.7344 0.54297-3.7773-0.68359-5.2461l-51.723-61.957c11.348-22.488 27.285-42.895 47.5-60.652 1.2383-1.0898 1.8555-2.7266 1.6328-4.3633-0.88281-6.5508-2.0156-13-3.3594-19.355 13.715 12.363 30.477 15.98 45.328 15.977 20.355 0 37.109-6.7461 37.453-6.8906 2-0.83203 3.2188-2.8711 3.0117-5.0273-0.21484-2.1641-1.8203-3.9297-3.9453-4.3594zm-72.668-129.98c7.1758-13.531 5.3867-31.094-5.3086-52.395 16.469 15.332 36.27 39.133 36.305 64.957 0.050782 32.965-20.652 55.531-58.305 63.934-4-8.4648-8.3828-16.668-13.219-24.312-5.7852-9.1836-13.121-17.418-21.543-24.375 21.25-1.2461 50.957-6.8633 62.07-27.809zm-331.14 12.562c0.035156-25.773 19.816-49.57 36.285-64.914-10.676 21.285-12.461 38.828-5.2852 52.352 11.109 20.938 40.812 26.574 62.059 27.82-8.418 6.9531-15.742 15.18-21.527 24.355-4.832 7.6367-9.2148 15.844-13.227 24.32-37.656-8.4062-58.355-30.969-58.305-63.934zm-25.562 121.72c9.3203-4.9727 20.621-14.168 25.371-30.57 6.0664-20.945 29.676-23.973 35-24.395 5.8945 2.5508 12.34 4.6719 19.32 6.332-2.5859 6.1172-4.9414 12.359-7.0273 18.75-17.547 36.488-53.23 34.312-72.664 29.883zm312.23 140.56c-2.7266 0-4.9258 2.207-4.9258 4.9258v64.754l-55.328 0.003906v-64.754c0-2.7188-2.207-4.9258-4.9258-4.9258h-26.93l59.52-71.293 59.52 71.293zm-17.336-68.406-11.473-13.742c-1.8672-2.2422-5.6992-2.2461-7.5664 0l-70.055 83.918c-1.2305 1.4648-1.4922 3.5117-0.67969 5.2461s2.5508 2.8398 4.4648 2.8398h32.531v30.18c-4.1602 1.3281-8.5391 2.0391-13.07 2.0391h-44.84c-21.488 0-39.77-15.66-42.527-36.41-6.8906-52.664-30.156-97.109-69.172-132.14 3.293-22.742 9.5312-44.324 18.547-64.184 4.2461-9.3867 9.0781-18.379 14.367-26.738 7.6719-12.172 18.305-22.566 30.742-30.051 14.984-9.0273 32.199-13.801 49.785-13.801h41.359c17.582 0 34.793 4.7695 49.785 13.801 12.438 7.4883 23.07 17.875 30.742 30.059 5.2891 8.3672 10.121 17.359 14.363 26.738 9.0078 19.855 15.242 41.434 18.547 64.18-19.109 17.172-34.477 36.684-45.852 58.07zm45.699-102.04c-2.0859-6.3867-4.4453-12.629-7.0273-18.742 6.9844-1.6641 13.426-3.7773 19.324-6.332 5.3242 0.41797 28.934 3.4453 35 24.395 4.7578 16.402 16.055 25.598 25.371 30.57-19.434 4.4258-55.129 6.5977-72.668-29.891z"/>
  <path d="m481.09 377.4-52.715 33.5c-2.3008 1.4609-2.9766 4.5078-1.5156 6.8008 6.8789 10.832 18.602 16.758 30.578 16.758 6.625 0 13.336-1.8203 19.332-5.6328 16.828-10.695 21.816-33.086 11.125-49.906-1.4648-2.3008-4.5156-2.9805-6.8047-1.5195zm-9.6055 43.105c-10.816 6.8789-24.797 4.8477-33.273-4.1797l43.613-27.715c4.5625 11.496 0.46875 25.02-10.34 31.895z"/>
 </g>
</svg>