<?xml version="1.0" encoding="UTF-8"?>
<!-- The Best Svg Icon site in the world: iconSvg.co, Visit us! https://iconsvg.co -->
<svg fill="#000000" width="800px" height="800px" version="1.1" viewBox="144 144 512 512" xmlns="http://www.w3.org/2000/svg">
 <g>
  <path d="m368.51 392.12h15.742v15.742h-15.742z"/>
  <path d="m400 392.12h15.742v15.742h-15.742z"/>
  <path d="m337.02 392.12h15.742v15.742h-15.742z"/>
  <path d="m368.51 423.61h15.742v15.742h-15.742z"/>
  <path d="m400 423.61h15.742v15.742h-15.742z"/>
  <path d="m337.02 423.61h15.742v15.742h-15.742z"/>
  <path d="m368.51 455.1h15.742v15.742h-15.742z"/>
  <path d="m400 455.1h15.742v15.742h-15.742z"/>
  <path d="m337.02 455.1h15.742v15.742h-15.742z"/>
  <path d="m368.51 486.59h15.742v15.742h-15.742z"/>
  <path d="m400 486.59h15.742v15.742h-15.742z"/>
  <path d="m337.02 486.59h15.742v15.742h-15.742z"/>
  <path d="m368.51 360.64h15.742v15.742h-15.742z"/>
  <path d="m400 360.64h15.742v15.742h-15.742z"/>
  <path d="m337.02 360.64h15.742v15.742h-15.742z"/>
  <path d="m368.51 329.15h15.742v15.742h-15.742z"/>
  <path d="m400 329.15h15.742v15.742h-15.742z"/>
  <path d="m337.02 329.15h15.742v15.742h-15.742z"/>
  <path d="m368.51 297.66h15.742v15.742h-15.742z"/>
  <path d="m400 297.66h15.742v15.742h-15.742z"/>
  <path d="m337.02 297.66h15.742v15.742h-15.742z"/>
  <path d="m368.51 266.18h15.742v15.742h-15.742z"/>
  <path d="m400 266.18h15.742v15.742h-15.742z"/>
  <path d="m337.02 266.18h15.742v15.742h-15.742z"/>
  <path d="m462.98 344.89h62.977v15.742h-62.977z"/>
  <path d="m462.98 376.38h62.977v15.742h-62.977z"/>
  <path d="m462.98 407.87h62.977v15.742h-62.977z"/>
  <path d="m226.81 376.38h62.977v15.742h-62.977z"/>
  <path d="m226.81 407.87h62.977v15.742h-62.977z"/>
  <path d="m226.81 439.36h62.977v15.742h-62.977z"/>
  <path d="m226.81 470.85h62.977v15.742h-62.977z"/>
  <path d="m226.81 502.34h62.977v15.742h-62.977z"/>
  <path d="m226.81 533.82h62.977v15.742h-62.977z"/>
  <path d="m533.82 510.21c2.0859 0 4.0898 0.82812 5.5664 2.3047 1.4766 1.4766 2.3047 3.4805 2.3047 5.5664h15.742c-0.019531-4.8672-1.543-9.6094-4.3594-13.574-2.8203-3.9688-6.793-6.9688-11.383-8.5938v-9.3203h-15.746v9.3203c-7.0547 2.4844-12.508 8.1719-14.699 15.324s-0.85547 14.918 3.5977 20.926c4.4531 6.0117 11.496 9.5508 18.977 9.5352 3.1836 0 6.0547 1.918 7.2734 4.8594 1.2148 2.9414 0.54297 6.3281-1.707 8.5781-2.2539 2.25-5.6367 2.9258-8.582 1.707-2.9414-1.2188-4.8594-4.0898-4.8594-7.2734h-15.742c0.019531 4.8672 1.543 9.6094 4.3633 13.578 2.8164 3.9688 6.793 6.9688 11.379 8.5898v9.3203h15.742l0.003906-9.3203c7.0547-2.4844 12.512-8.1719 14.699-15.324 2.1914-7.1484 0.85547-14.918-3.5977-20.926s-11.496-9.5469-18.973-9.5352c-4.3477 0-7.875-3.5234-7.875-7.8711s3.5273-7.8711 7.875-7.8711z"/>
  <path d="m533.82 455.1c-20.879 0-40.902 8.293-55.664 23.059-14.766 14.762-23.059 34.785-23.059 55.664 0 20.875 8.293 40.898 23.059 55.664 14.762 14.762 34.785 23.055 55.664 23.055 20.875 0 40.898-8.293 55.664-23.055 14.762-14.766 23.055-34.789 23.055-55.664-0.023438-20.871-8.3242-40.883-23.082-55.641-14.758-14.758-34.766-23.059-55.637-23.082zm0 141.7v0.003906c-16.703 0-32.723-6.6367-44.531-18.445-11.812-11.812-18.445-27.832-18.445-44.531 0-16.703 6.6328-32.723 18.445-44.531 11.809-11.812 27.828-18.445 44.531-18.445 16.699 0 32.719 6.6328 44.531 18.445 11.809 11.809 18.445 27.828 18.445 44.531-0.019531 16.695-6.6602 32.703-18.469 44.508-11.805 11.809-27.812 18.449-44.508 18.469z"/>
  <path d="m557.44 434.34v-105.2h15.742l0.003906-15.742h-125.95v-70.848c0-2.0898-0.82812-4.0898-2.3047-5.5664-1.4766-1.4766-3.4805-2.3047-5.5664-2.3047h-15.746v-23.617c0-2.0898-0.82812-4.0898-2.3047-5.5664-1.4766-1.4766-3.4766-2.3047-5.5664-2.3047h-31.488v-39.363h-15.742v39.363h-31.488c-4.3477 0-7.875 3.5234-7.875 7.8711v23.617h-15.742c-4.3477 0-7.8711 3.5234-7.8711 7.8711v102.34h-125.95v15.742h15.742v236.16h-31.488v15.742h304.69c24.023 19.965 55.855 27.855 86.426 21.426 30.566-6.4297 56.52-26.473 70.469-54.426 13.945-27.949 14.355-60.742 1.1094-89.031-13.242-28.289-38.691-48.977-69.09-56.168zm-15.742-105.2v102.74c-2.6055-0.20312-5.2109-0.40234-7.8711-0.40234v0.003906c-35.207 0.035157-67.918 18.176-86.594 48.02v-150.36zm-196.8-110.21h62.977v15.742l-62.977 0.003906zm-133.82 141.7h94.465v236.16h-94.465zm110.21-110.21h110.21v346.37h-15.746v-55.105c0-2.0898-0.82813-4.0898-2.3047-5.5664-1.4766-1.4766-3.4805-2.3047-5.5664-2.3047h-62.977c-4.3477 0-7.8711 3.5234-7.8711 7.8711v55.105h-15.746zm31.488 346.37v-47.23h47.23v47.23zm94.465-8.6602v0.003906c1.8828 2.9883 3.918 5.8789 6.1016 8.6602h-6.1016zm86.594 32.277c-22.969 0-44.992-9.1211-61.23-25.359-16.238-16.242-25.363-38.266-25.363-61.23 0-22.969 9.125-44.992 25.363-61.23s38.262-25.363 61.23-25.363c22.965 0 44.988 9.125 61.23 25.363 16.238 16.238 25.359 38.262 25.359 61.23-0.027343 22.957-9.1562 44.965-25.391 61.199-16.234 16.234-38.242 25.363-61.199 25.391z"/>
  <path d="m573.18 525.95h15.742v15.742h-15.742z"/>
  <path d="m478.72 525.95h15.742v15.742h-15.742z"/>
 </g>
</svg>