<?xml version="1.0" encoding="UTF-8"?>
<!-- The Best Svg Icon site in the world: iconSvg.co, Visit us! https://iconsvg.co -->
<svg fill="#000000" width="800px" height="800px" version="1.1" viewBox="144 144 512 512" xmlns="http://www.w3.org/2000/svg">
 <g>
  <path d="m637.53 271.09h-64.234c-3.3008 0.039062-5.9688 2.7031-6.0195 6.0039v3.8359h-132.6c2.9648-8.3867 4.4648-17.223 4.4297-26.117-0.015625-28.867-15.43-55.535-40.434-69.957-25.008-14.422-55.812-14.41-80.805 0.039063-24.996 14.445-40.383 41.129-40.367 69.996-0.0625 11.723 2.5 23.309 7.4961 33.91h-29.555c-3.3086 0.066406-5.9648 2.75-5.9961 6.0586v8.7031h-86.98c-3.2578 0-5.5156 3.0977-5.5156 6.3594v56.984c-0.074219 1.4844 0.48438 2.9336 1.5352 3.9883 1.0469 1.0547 2.4961 1.6172 3.9805 1.5469h86.98v9.5273c0.019532 3.3398 2.6602 6.0781 5.9961 6.2188h66.82v1.3906c0 3.2617 2.6562 5.4961 5.9141 5.4961h35.734c-1.7617 5.1875-2.6602 10.629-2.6562 16.105-0.003906 13.352 5.4102 26.133 15.008 35.414l-125.21 125.27c-2.3047 2.3203-2.3047 6.0664 0 8.3867l28.785 28.789v0.003906c1.1055 1.1094 2.6094 1.7305 4.1758 1.7305 1.5781 0.003906 3.0938-0.61719 4.2188-1.7266l96.027-95.984v106.81c0 3.2617 2.5586 5.4609 5.8164 5.4609h40.707c1.4883 0.089843 2.9453-0.45313 4.0156-1.4922 1.0742-1.0391 1.6562-2.4766 1.6133-3.9688v-106.8l96.121 95.984v-0.003907c1.1328 1.1133 2.6602 1.7344 4.2461 1.7305 1.5781 0.003906 3.0898-0.62109 4.2109-1.7305l28.801-28.785v0.003906c1.1094-1.1055 1.7344-2.6094 1.7383-4.1719 0-1.5664-0.61719-3.0703-1.7266-4.1797l-125.22-125.22c6.7266-6.5586 11.457-14.887 13.645-24.023s1.7422-18.703-1.2852-27.598h110.34v4.6523c0.035156 3.3359 2.6875 6.0547 6.0195 6.1719h64.234c3.2617 0 5.5156-2.9102 5.5156-6.1719v-122.63c0-3.2578-2.2539-6.0039-5.5156-6.0039zm-279.23-85.066c18.301 0 35.848 7.2695 48.789 20.207 12.938 12.941 20.207 30.488 20.207 48.789 0 18.297-7.2695 35.848-20.207 48.785-12.941 12.941-30.488 20.211-48.789 20.211-18.297 0-35.848-7.2695-48.785-20.211-12.941-12.938-20.211-30.488-20.211-48.785 0.023437-18.293 7.3008-35.828 20.234-48.766 12.934-12.934 30.469-20.211 48.762-20.23zm-189.54 174.61v-45.262h80.688v45.266zm92.496 15.742v-75.766h30.488c7.7422 11.809 18.711 20.559 30.52 26.703v49.066zm22.797 220.14-20.414-20.434 120.62-120.59v40.871zm112.01 17.004v-155.14c4.625 1.4141 9.4336 2.1445 14.27 2.1641 4.8398 0.054687 9.6602-0.67578 14.266-2.1641v155.14zm140.64-17-100.29-100.16v-40.875l120.66 120.6zm-126.28-147.79c-9.9062 0.003906-19.41-3.9336-26.414-10.941-7.0078-7.0039-10.941-16.508-10.945-26.414 0-9.9062 3.9375-19.41 10.945-26.418 7.0039-7.0039 16.508-10.941 26.414-10.941 9.9102 0 19.41 3.9375 26.418 10.945 7.0039 7.0039 10.941 16.508 10.941 26.414-0.011719 9.9062-3.9531 19.398-10.957 26.402-7 7.0039-16.496 10.945-26.402 10.953zm40.59-65.473c-9.1484-13.422-24.344-21.457-40.59-21.457-16.242 0-31.438 8.0352-40.586 21.457h-35.766v-51.156c7.8516 2.3828 16.02 3.5625 24.227 3.5039 14.645-0.003907 29.012-4 41.559-11.555s22.801-18.379 29.664-31.32h137.76v90.527zm180.23 10.824h-52.152v-111.19h52.152z"/>
  <path d="m410.42 388.27c-6.1328 0-12.012 2.4375-16.352 6.7734-4.3359 4.3359-6.7695 10.219-6.7695 16.352s2.4336 12.012 6.7695 16.352c4.3398 4.3359 10.219 6.7695 16.352 6.7695s12.016-2.4336 16.352-6.7695c4.3359-4.3398 6.7734-10.219 6.7734-16.352-0.007813-6.1328-2.4453-12.012-6.7812-16.344-4.332-4.3359-10.211-6.7734-16.344-6.7812zm0 34.441c-4.5742 0-8.7031-2.7578-10.453-6.9883-1.75-4.2266-0.78516-9.0938 2.4531-12.332 3.2344-3.2344 8.1016-4.2031 12.332-2.4531 4.2266 1.7539 6.9844 5.8789 6.9844 10.457-0.007812 6.2461-5.0703 11.305-11.316 11.312z"/>
  <path d="m358.3 290.39c-7.4492-0.007813-13.484-6.043-13.492-13.492 0-3.2578-2.6445-5.9023-5.9062-5.9023-3.2578 0-5.9023 2.6445-5.9023 5.9023 0.007812 5.7461 1.9688 11.32 5.5625 15.805 3.5898 4.4844 8.5977 7.6172 14.203 8.8789v6.9023c0 3.2617 2.6445 5.9062 5.9062 5.9062 3.2578 0 5.9023-2.6445 5.9023-5.9062v-7.0742c8.0312-2.0547 14.543-7.9102 17.438-15.68 2.8906-7.7656 1.7969-16.457-2.9297-23.266-4.7305-6.8086-12.492-10.867-20.781-10.867-7.2422 0-13.191-5.7188-13.477-12.957-0.28516-7.2383 5.1992-13.406 12.422-13.977 0.87109 0.22266 1.7773 0.24219 2.6562 0.050782 6.7773 0.81641 11.883 6.5625 11.895 13.391 0 3.2578 2.6406 5.9023 5.9023 5.9023s5.9062-2.6445 5.9062-5.9023c-0.007813-5.6172-1.8828-11.074-5.3242-15.512-3.4453-4.4336-8.2656-7.6016-13.707-9v-5.4766c0-3.2617-2.6445-5.9023-5.9023-5.9023-3.2617 0-5.9062 2.6406-5.9062 5.9023v5.3047c-8.1758 1.8281-14.918 7.5898-18 15.379-3.0859 7.793-2.1094 16.605 2.6055 23.535 4.7109 6.9297 12.551 11.078 20.93 11.07 7.4531 0 13.492 6.043 13.492 13.496 0 7.4492-6.0391 13.492-13.492 13.492z"/>
 </g>
</svg>