<?xml version="1.0" encoding="UTF-8"?>
<!-- The Best Svg Icon site in the world: iconSvg.co, Visit us! https://iconsvg.co -->
<svg width="800px" height="800px" version="1.1" viewBox="144 144 512 512" xmlns="http://www.w3.org/2000/svg">
 <defs>
  <clipPath id="a">
   <path d="m148.09 242h503.81v409.9h-503.81z"/>
  </clipPath>
 </defs>
 <g clip-path="url(#a)">
  <path d="m407.87 447.23h-15.746c-4.1758 0-8.1797-1.6602-11.133-4.6094-2.9492-2.9531-4.6094-6.957-4.6094-11.133 0-4.3477-3.5234-7.875-7.8711-7.875-4.3477 0-7.875 3.5273-7.875 7.875 0 8.3477 3.3203 16.359 9.2227 22.266 5.9062 5.9023 13.914 9.2227 22.266 9.2227v7.8711c0 4.3477 3.5273 7.8711 7.875 7.8711s7.8711-3.5234 7.8711-7.8711v-7.8711c11.25 0 21.645-6.0039 27.27-15.746 5.625-9.7422 5.625-21.746 0-31.488-5.625-9.7422-16.02-15.742-27.27-15.742h-15.746c-5.625 0-10.82-3.0039-13.633-7.875s-2.8125-10.871 0-15.742c2.8125-4.8711 8.0078-7.8711 13.633-7.8711h15.746c4.1758 0 8.1797 1.6562 11.133 4.6094s4.6094 6.957 4.6094 11.133c0 4.3477 3.5273 7.8711 7.875 7.8711 4.3477 0 7.8711-3.5234 7.8711-7.8711 0-8.3516-3.3164-16.359-9.2227-22.266s-13.914-9.2227-22.266-9.2227v-7.8711c0-4.3477-3.5234-7.8711-7.8711-7.8711s-7.875 3.5234-7.875 7.8711v7.8711c-11.25 0-21.645 6.0039-27.27 15.746-5.625 9.7422-5.625 21.746 0 31.488s16.02 15.742 27.27 15.742h15.746c5.625 0 10.82 3 13.633 7.8711 2.8125 4.8711 2.8125 10.875 0 15.746s-8.0078 7.8711-13.633 7.8711zm181.05 86.594v-251.91c0-2.0859-0.82812-4.0898-2.3047-5.5664-1.4766-1.4766-3.4766-2.3047-5.5664-2.3047h-362.11c-4.3477 0-7.8711 3.5234-7.8711 7.8711v251.91c0 2.0859 0.82813 4.0898 2.3047 5.5664s3.4805 2.3047 5.5664 2.3047h362.11c2.0898 0 4.0898-0.82812 5.5664-2.3047 1.4766-1.4766 2.3047-3.4805 2.3047-5.5664zm-15.742-7.875h-346.37v-236.16h346.37zm-173.18-15.742c27.141 0 53.168-10.781 72.359-29.973 19.195-19.191 29.977-45.223 29.977-72.363s-10.781-53.172-29.977-72.363c-19.191-19.191-45.219-29.973-72.359-29.973-27.145 0-53.172 10.781-72.363 29.973-19.191 19.191-29.973 45.223-29.973 72.363 0.03125 27.129 10.824 53.141 30.008 72.324 19.184 19.188 45.195 29.977 72.328 30.012zm0-188.93c22.965 0 44.988 9.125 61.227 25.363 16.242 16.238 25.363 38.266 25.363 61.23s-9.1211 44.988-25.363 61.23c-16.238 16.238-38.262 25.359-61.227 25.359-22.969 0-44.992-9.1211-61.23-25.359-16.238-16.242-25.363-38.266-25.363-61.23 0.027344-22.957 9.1602-44.965 25.395-61.199 16.234-16.23 38.242-25.363 61.199-25.395zm244.03 251.91h-23.617v-291.27c0-10.438-4.1445-20.449-11.527-27.832-7.3828-7.3828-17.395-11.527-27.832-11.527h-362.11c-10.438 0-20.449 4.1445-27.832 11.527-7.3789 7.3828-11.527 17.395-11.527 27.832v291.27h-23.617c-4.3477 0-7.8711 3.5234-7.8711 7.8711v31.488c0 10.438 4.1484 20.449 11.527 27.832 7.3828 7.3828 17.395 11.527 27.832 11.527h425.09c10.438 0 20.449-4.1445 27.832-11.527s11.527-17.395 11.527-27.832v-31.488c0-2.0859-0.82812-4.0898-2.3047-5.5664-1.4766-1.4766-3.4805-2.3047-5.5664-2.3047zm-448.71-291.27c0-6.2617 2.4883-12.27 6.918-16.699 4.4297-4.4297 10.438-6.918 16.699-6.918h362.11c6.2656 0 12.27 2.4883 16.699 6.918 4.4297 4.4297 6.918 10.438 6.918 16.699v291.27h-135.18c-6.2656-0.019532-12.281 2.4688-16.703 6.9102l-6.5195 6.5195c-1.4844 1.4648-3.4844 2.293-5.5742 2.2969h-81.41c-2.0898-0.003906-4.0898-0.83203-5.5742-2.2969l-6.5195-6.5195c-4.418-4.4375-10.426-6.9258-16.688-6.9102h-135.18zm440.83 330.62h0.003906c0 6.2617-2.4883 12.27-6.918 16.699-4.4297 4.4297-10.438 6.918-16.699 6.918h-425.09c-6.2617 0-12.27-2.4883-16.699-6.918-4.4297-4.4297-6.918-10.438-6.918-16.699v-23.617h166.67c2.0859 0.007813 4.0898 0.83203 5.5742 2.3008l6.5195 6.5195v-0.003906c4.4141 4.4453 10.422 6.9375 16.688 6.9297h81.43-0.003906c6.2695 0.019531 12.285-2.4727 16.707-6.9141l6.5195-6.5195-0.003906 0.003907c1.4805-1.4688 3.4766-2.3008 5.5586-2.3164h166.67z"/>
 </g>
</svg>