<?xml version="1.0" encoding="UTF-8"?>
<!-- The Best Svg Icon site in the world: iconSvg.co, Visit us! https://iconsvg.co -->
<svg fill="#000000" width="800px" height="800px" version="1.1" viewBox="144 144 512 512" xmlns="http://www.w3.org/2000/svg">
 <g>
  <path d="m470.85 400c0.054688 21.629-9.75 42.105-26.637 55.625-16.887 13.52-39.012 18.609-60.109 13.824-21.094-4.7891-38.859-18.926-48.258-38.406-9.3984-19.484-9.4062-42.188-0.023438-61.68 9.3828-19.488 27.137-33.641 48.23-38.441 21.09-4.8008 43.223 0.26953 60.117 13.777l22.324-22.324v-0.003906c-27.129-23.254-64.402-30.727-98.402-19.723-33.996 11-59.828 38.895-68.191 73.633-8.3594 34.742 1.9453 71.336 27.215 96.602 25.27 25.27 61.859 35.578 96.602 27.215 34.742-8.3633 62.633-34.191 73.637-68.191 11-34 3.5273-71.273-19.727-98.402l-22.324 22.324c10.066 12.52 15.551 28.105 15.547 44.172z"/>
  <path d="m518.08 400c0.125 36.398-16.484 70.836-45.051 93.395-28.566 22.559-65.918 30.738-101.3 22.18-35.379-8.5586-64.863-32.902-79.961-66.027-15.094-33.121-14.129-71.344 2.6172-103.66 16.75-32.32 47.422-55.145 83.191-61.906 35.766-6.7617 72.656 3.2891 100.05 27.262l22.254-22.238c-39.172-35.27-93.965-47.418-144.37-32.008-50.406 15.414-89.039 56.125-101.79 107.27-12.75 51.145 2.2461 105.23 39.52 142.5 37.27 37.27 91.352 52.27 142.5 39.516 51.141-12.75 91.855-51.383 107.27-101.79s3.2617-105.2-32.008-144.37l-22.254 22.254c18.902 21.445 29.332 49.043 29.34 77.629z"/>
  <path d="m392.12 447.23v-7.8711c-6.2617 0-12.27-2.4883-16.699-6.918-4.4258-4.4297-6.9141-10.434-6.9141-16.699 0-4.3477 3.5234-7.8711 7.8711-7.8711 4.3477 0 7.8711 3.5234 7.8711 7.8711 0 2.0898 0.82812 4.0898 2.3047 5.5664 1.4766 1.4766 3.4805 2.3047 5.5664 2.3047h15.746c4.3477 0 7.8711-3.5234 7.8711-7.8711 0-4.3477-3.5234-7.8711-7.8711-7.8711h-15.746c-8.4375 0-16.23-4.5-20.449-11.809s-4.2188-16.309 0-23.617c4.2188-7.3047 12.012-11.809 20.449-11.809v-7.8711c0-4.3477 3.5273-7.8711 7.875-7.8711-19.688 0-37.879 10.504-47.723 27.551-9.8438 17.051-9.8438 38.055 0 55.105s28.035 27.551 47.723 27.551c-4.3477 0-7.875-3.5234-7.875-7.8711z"/>
  <path d="m565.31 400c0.14844 38.082-12.805 75.055-36.688 104.72s-57.242 50.211-94.477 58.191c-37.238 7.9844-76.086 2.918-110.03-14.352-33.941-17.266-60.914-45.684-76.387-80.48-15.477-34.797-18.512-73.855-8.5977-110.62 9.9141-36.77 32.168-69.012 63.039-91.316 30.867-22.305 68.465-33.312 106.49-31.18 38.023 2.1367 74.156 17.281 102.33 42.898l22.387-22.387h0.003906c-34.293-31.766-78.805-50.234-125.51-52.074v15.547c0 4.3477-3.5234 7.8711-7.8711 7.8711s-7.875-3.5234-7.875-7.8711v-15.547c-49.398 2.0391-96.23 22.578-131.19 57.539-34.961 34.961-55.5 81.793-57.539 131.19h15.547c4.3477 0 7.8711 3.5273 7.8711 7.875s-3.5234 7.8711-7.8711 7.8711h-15.547c2.0391 49.402 22.578 96.23 57.539 131.19 34.961 34.965 81.793 55.5 131.19 57.539v-15.547c0-4.3477 3.5273-7.8711 7.875-7.8711s7.8711 3.5234 7.8711 7.8711v15.547c49.402-2.0391 96.23-22.574 131.19-57.539 34.965-34.961 55.5-81.789 57.539-131.19h-15.547c-4.3477 0-7.8711-3.5234-7.8711-7.8711s3.5234-7.875 7.8711-7.875h15.547c-1.8359-46.711-20.305-91.23-52.074-125.53l-22.387 22.406c27.746 30.309 43.145 69.902 43.172 111z"/>
  <path d="m407.87 352.77v7.8711c6.2617 0 12.27 2.4883 16.699 6.918 4.4297 4.4297 6.918 10.438 6.918 16.699 0 4.3477-3.5273 7.8711-7.875 7.8711-4.3477 0-7.8711-3.5234-7.8711-7.8711 0-2.0859-0.82813-4.0898-2.3047-5.5664s-3.4805-2.3047-5.5664-2.3047h-15.746c-4.3477 0-7.8711 3.5234-7.8711 7.8711s3.5234 7.8711 7.8711 7.8711h15.746c8.4375 0 16.234 4.5039 20.453 11.809 4.2188 7.3086 4.2188 16.309 0 23.617-4.2188 7.3086-12.016 11.809-20.453 11.809v7.8711c0 2.0898-0.82812 4.0898-2.3047 5.5664-1.4766 1.4766-3.4805 2.3047-5.5664 2.3047 19.684 0 37.875-10.5 47.719-27.551s9.8438-38.055 0-55.105c-9.8438-17.047-28.035-27.551-47.719-27.551 2.0859 0 4.0898 0.82812 5.5664 2.3047 1.4766 1.4766 2.3047 3.4805 2.3047 5.5664z"/>
  <path d="m400 163.84c-4.3477 0-7.875 3.5273-7.875 7.875v31.684c2.6133-0.10156 5.2344-0.19531 7.8711-0.19531 2.6367 0 5.2578 0.09375 7.8711 0.19531l0.003906-31.684c0-2.0898-0.82812-4.0898-2.3047-5.5664-1.4766-1.4766-3.4805-2.3086-5.5664-2.3086z"/>
  <path d="m203.39 392.12h-31.684c-4.3477 0-7.875 3.5273-7.875 7.875s3.5273 7.8711 7.875 7.8711h31.684c-0.10156-2.6133-0.19531-5.2344-0.19531-7.8711s0.09375-5.2617 0.19531-7.875z"/>
  <path d="m400 596.8c-2.6367 0-5.2578-0.09375-7.8711-0.19531l-0.003906 31.684c0 4.3477 3.5273 7.8711 7.875 7.8711s7.8711-3.5234 7.8711-7.8711v-31.688c-2.6133 0.10156-5.2344 0.19922-7.8711 0.19922z"/>
  <path d="m628.29 392.12h-31.688c0.10156 2.6133 0.19531 5.2344 0.19531 7.8711 0 2.6367-0.09375 5.2578-0.19531 7.8711l31.688 0.003906c4.3477 0 7.8711-3.5234 7.8711-7.8711s-3.5234-7.875-7.8711-7.875z"/>
  <path d="m601.18 198.82-6.1484-27.504-38.375 38.637 3.7148 18.555-26.965 26.965c3.8516 3.5625 7.5625 7.2734 11.133 11.133l26.961-26.961 18.555 3.707 38.629-38.383z"/>
 </g>
</svg>