<?xml version="1.0" encoding="UTF-8"?>
<!-- The Best Svg Icon site in the world: iconSvg.co, Visit us! https://iconsvg.co -->
<svg fill="#000000" width="800px" height="800px" version="1.1" viewBox="144 144 512 512" xmlns="http://www.w3.org/2000/svg">
 <g>
  <path d="m527.92 392.12c0-3.2578-2.6406-5.9023-5.9023-5.9023h-292.25c-3.2617 0-5.9023 2.6445-5.9023 5.9023v142.68c0 3.2578 2.6406 5.9023 5.9023 5.9023h292.25c3.2617 0 5.9023-2.6445 5.9023-5.9023zm-11.809 41.328h-35.422v-35.422h35.426zm-234.19 11.809h37.391v36.406l-37.391 0.003906zm-11.809 36.406-34.438 0.003906v-36.41h34.441zm149.57-48.215h-38.379v-35.422h38.375zm11.809-35.426h37.391v35.426h-37.391zm-50.184 47.23h38.375v36.406l-38.379 0.007813zm-11.809 36.406-38.379 0.007813v-36.41h38.375zm0-48.215-38.379 0.003906v-35.422h38.375zm-50.184 0-37.395 0.003906v-35.422h37.391zm0 60.023v35.426l-37.395 0.003906v-35.422zm11.809 0h38.375v35.426l-38.379 0.003906zm50.184 0h38.375v35.426l-38.379 0.003906zm50.184 0h37.391v35.426l-37.391 0.003906zm0-11.809v-36.402h37.391v36.406zm49.199-36.406h35.426v36.406l-35.426 0.007813zm-210.58-47.227v35.426l-34.438-0.003906v-35.422zm-34.438 95.449h34.441v35.426l-34.441-0.003906zm245.02 35.426v-35.426h35.426v35.426z"/>
  <path d="m553.56 204.82c-33.852 0-63.242 20.031-77.605 47.582h-280.7c-19.738 0-35.359 16.379-35.359 36.113v270.71c-0.082032 9.4258 3.6094 18.492 10.254 25.18 6.6406 6.6875 15.68 10.441 25.105 10.426h360.46c19.734 0 36.16-15.867 36.16-35.605v-189.04c28.535-14.117 48.836-43.965 48.836-78.32 0-47.953-39.199-87.047-87.152-87.047zm-358.3 59.391h275.77c-7.207 21.719-5.5781 45.402 4.5391 65.926h-303.86v-41.621c0-13.223 10.324-24.305 23.551-24.305zm384.81 295.02c0 13.227-11.129 23.797-24.352 23.797h-360.46c-6.2969 0.019531-12.336-2.4922-16.762-6.9648s-6.875-10.535-6.7891-16.832v-217.29h310.9c16.227 23.215 42.812 36.984 71.133 36.848 8.918 0.003907 17.789-1.3086 26.324-3.8945zm-26.508-192.12c-19.934 0-39.051-7.918-53.148-22.012-14.094-14.094-22.012-33.211-22.012-53.145 0-19.934 7.918-39.051 22.012-53.148 14.098-14.094 33.215-22.012 53.148-22.012s39.051 7.918 53.145 22.012c14.094 14.098 22.012 33.215 22.012 53.148-0.019531 19.926-7.9453 39.031-22.035 53.121-14.094 14.09-33.195 22.016-53.121 22.035z"/>
  <path d="m553.56 258.55c4 0.003906 7.8359 1.5938 10.664 4.4219 2.8281 2.832 4.418 6.6641 4.4258 10.668 0 3.2578 2.6406 5.9023 5.9023 5.9023 3.2617 0 5.9023-2.6445 5.9023-5.9023-0.007812-6.2891-2.2148-12.375-6.2383-17.207-4.0234-4.832-9.6133-8.1016-15.797-9.2461v-5.6094c0-3.2617-2.6406-5.9023-5.9023-5.9023s-5.9062 2.6406-5.9062 5.9023v6.0781c-8.4766 2.2656-15.316 8.5273-18.32 16.773-3.0039 8.25-1.7969 17.441 3.2344 24.633s13.258 11.473 22.035 11.473c4 0 7.8398 1.5898 10.668 4.4219 2.8281 2.8281 4.418 6.668 4.418 10.668s-1.5898 7.8398-4.418 10.668c-2.8281 2.832-6.668 4.4219-10.668 4.4219-4.0039 0-7.8398-1.5898-10.672-4.4219-2.8281-2.8281-4.418-6.668-4.418-10.668 0-3.2617-2.6445-5.9023-5.9062-5.9023-3.2578 0-5.9023 2.6406-5.9023 5.9023 0.007813 5.9219 1.9648 11.676 5.5742 16.371 3.6055 4.6992 8.6562 8.0742 14.375 9.6133v6.2422c0 3.2578 2.6445 5.9023 5.9062 5.9023s5.9023-2.6445 5.9023-5.9023v-5.7773c8.8828-1.6289 16.355-7.6094 19.891-15.918 3.5391-8.3086 2.668-17.836-2.3125-25.367-4.9805-7.5352-13.41-12.062-22.438-12.062-5.3633-0.042968-10.301-2.9258-12.969-7.5781-2.668-4.6523-2.668-10.367 0-15.02 2.668-4.6484 7.6055-7.5352 12.969-7.5781z"/>
 </g>
</svg>