<?xml version="1.0" encoding="UTF-8"?>
<!-- The Best Svg Icon site in the world: iconSvg.co, Visit us! https://iconsvg.co -->
<svg width="800px" height="800px" version="1.1" viewBox="144 144 512 512" xmlns="http://www.w3.org/2000/svg">
 <defs>
  <clipPath id="a">
   <path d="m148.09 226h503.81v425.9h-503.81z"/>
  </clipPath>
 </defs>
 <g clip-path="url(#a)">
  <path d="m407.87 384.25h-15.746c-4.1758 0-8.1797-1.6562-11.133-4.6094-2.9492-2.9531-4.6094-6.957-4.6094-11.133 0-4.3477-3.5234-7.875-7.8711-7.875-4.3477 0-7.875 3.5273-7.875 7.875 0 8.3516 3.3203 16.359 9.2227 22.266 5.9062 5.9023 13.914 9.2227 22.266 9.2227v7.8711c0 4.3477 3.5273 7.8711 7.875 7.8711s7.8711-3.5234 7.8711-7.8711v-7.8711c11.25 0 21.645-6.0039 27.27-15.746 5.625-9.7422 5.625-21.746 0-31.488s-16.02-15.742-27.27-15.742h-15.746c-5.625 0-10.82-3-13.633-7.875-2.8125-4.8711-2.8125-10.871 0-15.742s8.0078-7.8711 13.633-7.8711h15.746c4.1758 0 8.1797 1.6562 11.133 4.6094s4.6094 6.957 4.6094 11.133c0 4.3477 3.5273 7.8711 7.875 7.8711 4.3477 0 7.8711-3.5234 7.8711-7.8711 0-8.3516-3.3164-16.359-9.2227-22.266-5.9062-5.9023-13.914-9.2227-22.266-9.2227v-7.8711c0-4.3477-3.5234-7.8711-7.8711-7.8711s-7.875 3.5234-7.875 7.8711v7.8711c-11.25 0-21.645 6.0039-27.27 15.746-5.625 9.7422-5.625 21.746 0 31.488 5.625 9.7422 16.02 15.742 27.27 15.742h15.746c5.625 0 10.82 3 13.633 7.8711 2.8125 4.8711 2.8125 10.875 0 15.746-2.8125 4.8711-8.0078 7.8711-13.633 7.8711zm-173.18 47.23h-15.742l-0.003906 0.003906c-4.1758 0-8.1797-1.6602-11.133-4.6133s-4.6094-6.957-4.6094-11.133c0-4.3477-3.5273-7.8711-7.875-7.8711-4.3477 0-7.8711 3.5234-7.8711 7.8711 0 8.3516 3.3164 16.359 9.2227 22.266s13.914 9.2227 22.266 9.2227v7.8711c0 4.3477 3.5234 7.875 7.8711 7.875s7.875-3.5273 7.875-7.875v-7.8711c11.25 0 21.645-6 27.27-15.742 5.625-9.7422 5.625-21.746 0-31.488s-16.02-15.746-27.27-15.746h-15.746c-5.625 0-10.82-3-13.633-7.8711-2.8125-4.8711-2.8125-10.875 0-15.746 2.8125-4.8711 8.0078-7.8711 13.633-7.8711h15.746c4.1758 0 8.1797 1.6602 11.133 4.6133 2.9492 2.9531 4.6094 6.957 4.6094 11.133 0 4.3477 3.5234 7.8711 7.8711 7.8711 4.3477 0 7.875-3.5234 7.875-7.8711 0-8.3516-3.3203-16.363-9.2227-22.266-5.9062-5.9062-13.914-9.2227-22.266-9.2227v-7.875c0-4.3477-3.5273-7.8711-7.875-7.8711s-7.8711 3.5234-7.8711 7.8711v7.875c-11.25 0-21.645 6-27.27 15.742s-5.625 21.746 0 31.488c5.625 9.7422 16.02 15.746 27.27 15.746h15.746c5.625 0 10.82 3 13.633 7.8711s2.8125 10.871 0 15.742c-2.8125 4.8711-8.0078 7.875-13.633 7.875zm212.54 15.746h-94.465c-8.5977-0.03125-16.832 3.4648-22.773 9.6797-5.9453 6.2109-9.0781 14.59-8.6719 23.176 0.41016 8.5898 4.3281 16.633 10.836 22.25-6.9062 5.9023-10.883 14.531-10.883 23.613 0 9.0859 3.9766 17.715 10.883 23.617-6.9062 5.9023-10.883 14.531-10.883 23.617 0 9.0859 3.9766 17.715 10.883 23.617-6.5078 5.6172-10.426 13.66-10.836 22.246-0.40625 8.5898 2.7266 16.969 8.6719 23.18 5.9414 6.2109 14.176 9.7109 22.773 9.6758h94.465c8.5977 0.035156 16.832-3.4648 22.777-9.6758 5.9414-6.2109 9.0781-14.59 8.668-23.18-0.41016-8.5859-4.3281-16.629-10.836-22.246 6.9062-5.9023 10.883-14.531 10.883-23.617 0-9.0859-3.9766-17.715-10.883-23.617 6.9062-5.9023 10.883-14.531 10.883-23.617 0-9.082-3.9766-17.711-10.883-23.613 6.5078-5.6172 10.426-13.66 10.836-22.25 0.41016-8.5859-2.7266-16.965-8.668-23.176-5.9453-6.2148-14.18-9.7109-22.777-9.6797zm0 188.93h-94.465c-5.625 0-10.82-3-13.633-7.8711-2.8125-4.875-2.8125-10.875 0-15.746 2.8125-4.8711 8.0078-7.8711 13.633-7.8711h94.465c5.625 0 10.824 3 13.637 7.8711 2.8125 4.8711 2.8125 10.871 0 15.746-2.8125 4.8711-8.0117 7.8711-13.637 7.8711zm0-47.23-94.465-0.003907c-5.625 0-10.82-3-13.633-7.8711-2.8125-4.8711-2.8125-10.871 0-15.742s8.0078-7.875 13.633-7.875h94.465c5.625 0 10.824 3.0039 13.637 7.875s2.8125 10.871 0 15.742c-2.8125 4.8711-8.0117 7.8711-13.637 7.8711zm0-47.23-94.465-0.003907c-5.625 0-10.82-3-13.633-7.8711-2.8125-4.8711-2.8125-10.875 0-15.746s8.0078-7.8711 13.633-7.8711h94.465c5.625 0 10.824 3 13.637 7.8711s2.8125 10.875 0 15.746c-2.8125 4.8711-8.0117 7.8711-13.637 7.8711zm0-47.23-94.465-0.007812c-5.625 0-10.82-3-13.633-7.8711s-2.8125-10.871 0-15.742 8.0078-7.8711 13.633-7.8711h94.465c5.625 0 10.824 3 13.637 7.8711s2.8125 10.871 0 15.742-8.0117 7.8711-13.637 7.8711zm133.82-157.44h-15.742v-0.003906c-4.1758 0-8.1797-1.6602-11.133-4.6133-2.9531-2.9531-4.6133-6.957-4.6133-11.133 0-4.3477-3.5234-7.8711-7.8711-7.8711-4.3477 0-7.8711 3.5234-7.8711 7.8711 0 8.3516 3.3164 16.359 9.2227 22.266 5.9023 5.9062 13.914 9.2227 22.266 9.2227v7.8711c0 4.3477 3.5234 7.875 7.8711 7.875s7.8711-3.5273 7.8711-7.875v-7.8711c11.25 0 21.645-6 27.27-15.742 5.625-9.7422 5.625-21.746 0-31.488-5.625-9.7422-16.02-15.746-27.27-15.746h-15.742c-5.625 0-10.824-3-13.637-7.8711-2.8125-4.8711-2.8125-10.871 0-15.742 2.8125-4.8711 8.0117-7.875 13.637-7.875h15.742c4.1758 0 8.1797 1.6602 11.133 4.6133 2.9531 2.9531 4.6133 6.957 4.6133 11.133 0 4.3477 3.5234 7.8711 7.8711 7.8711s7.8711-3.5234 7.8711-7.8711c0-8.3516-3.3164-16.359-9.2227-22.266s-13.914-9.2227-22.266-9.2227v-7.8711c0-4.3477-3.5234-7.875-7.8711-7.875s-7.8711 3.5273-7.8711 7.875v7.8711c-11.25 0-21.645 6-27.27 15.742-5.625 9.7422-5.625 21.746 0 31.488 5.625 9.7422 16.02 15.746 27.27 15.746h15.742c5.625 0 10.824 3 13.637 7.8711s2.8125 10.871 0 15.742c-2.8125 4.875-8.0117 7.875-13.637 7.875zm59.969 118.08v-0.007813c6.5078-5.6172 10.426-13.66 10.836-22.246 0.41016-8.5898-2.7227-16.969-8.668-23.18-5.9453-6.2109-14.18-9.7109-22.777-9.6758h-94.465c-8.5977-0.035156-16.828 3.4648-22.773 9.6758-5.9453 6.2109-9.0781 14.59-8.668 23.18 0.41016 8.5859 4.3242 16.629 10.836 22.246-6.9102 5.9023-10.887 14.531-10.887 23.617s3.9766 17.715 10.887 23.617c-6.9102 5.9023-10.887 14.531-10.887 23.613 0 9.0859 3.9766 17.715 10.887 23.617-6.9102 5.9023-10.887 14.531-10.887 23.617 0 9.0859 3.9766 17.715 10.887 23.617-6.5117 5.6172-10.426 13.66-10.836 22.246-0.41016 8.5898 2.7227 16.969 8.668 23.18 5.9453 6.2109 14.176 9.7109 22.773 9.6758h94.465c8.5977 0.035156 16.832-3.4648 22.777-9.6758 5.9453-6.2109 9.0781-14.59 8.668-23.18-0.41016-8.5859-4.3281-16.629-10.836-22.246 6.9062-5.9023 10.883-14.531 10.883-23.617 0-9.0859-3.9766-17.715-10.883-23.617 6.9062-5.9023 10.883-14.531 10.883-23.617 0-9.082-3.9766-17.711-10.883-23.613 6.9062-5.9023 10.883-14.531 10.883-23.617s-3.9766-17.715-10.883-23.617zm-20.609 181.05h-94.465c-5.625 0-10.82-3-13.633-7.8711-2.8125-4.875-2.8125-10.875 0-15.746 2.8125-4.8711 8.0078-7.8711 13.633-7.8711h94.465c5.625 0 10.824 3 13.637 7.8711 2.8125 4.8711 2.8125 10.871 0 15.746-2.8125 4.8711-8.0117 7.8711-13.637 7.8711zm0-47.23-94.465-0.003907c-5.625 0-10.82-3-13.633-7.8711-2.8125-4.8711-2.8125-10.871 0-15.742s8.0078-7.875 13.633-7.875h94.465c5.625 0 10.824 3.0039 13.637 7.875s2.8125 10.871 0 15.742c-2.8125 4.8711-8.0117 7.8711-13.637 7.8711zm0-47.23-94.465-0.003907c-5.625 0-10.82-3-13.633-7.8711-2.8125-4.8711-2.8125-10.875 0-15.746s8.0078-7.8711 13.633-7.8711h94.465c5.625 0 10.824 3 13.637 7.8711s2.8125 10.875 0 15.746c-2.8125 4.8711-8.0117 7.8711-13.637 7.8711zm0-47.23-94.465-0.007812c-5.625 0-10.82-3-13.633-7.8711s-2.8125-10.871 0-15.742 8.0078-7.8711 13.633-7.8711h94.465c5.625 0 10.824 3 13.637 7.8711s2.8125 10.871 0 15.742-8.0117 7.8711-13.637 7.8711zm0-47.23-94.465-0.007812c-5.625 0-10.82-3-13.633-7.8711s-2.8125-10.875 0-15.746c2.8125-4.8711 8.0078-7.8711 13.633-7.8711h94.465c5.625 0 10.824 3 13.637 7.8711 2.8125 4.8711 2.8125 10.875 0 15.746s-8.0117 7.8711-13.637 7.8711zm-346.37 47.223h-94.465c-8.5977-0.03125-16.832 3.4688-22.777 9.6797-5.9414 6.2109-9.0781 14.59-8.668 23.18 0.41016 8.5859 4.3281 16.629 10.836 22.246-6.9062 5.9023-10.883 14.531-10.883 23.617 0 9.0859 3.9766 17.715 10.883 23.617-6.5078 5.6172-10.426 13.66-10.836 22.246-0.41016 8.5898 2.7266 16.969 8.668 23.18 5.9453 6.2109 14.18 9.7109 22.777 9.6758h94.465c8.5977 0.035156 16.832-3.4648 22.773-9.6758 5.9453-6.2109 9.0781-14.59 8.6719-23.18-0.41016-8.5859-4.3281-16.629-10.836-22.246 6.9062-5.9023 10.883-14.531 10.883-23.617 0-9.0859-3.9766-17.715-10.883-23.617 6.5078-5.6172 10.426-13.66 10.836-22.246 0.40625-8.5898-2.7266-16.969-8.6719-23.18-5.9414-6.2109-14.176-9.7109-22.773-9.6797zm0 141.7-94.465 0.003906c-5.625 0-10.824-3-13.637-7.8711-2.8125-4.875-2.8125-10.875 0-15.746 2.8125-4.8711 8.0117-7.8711 13.637-7.8711h94.465c5.625 0 10.82 3 13.633 7.8711 2.8125 4.8711 2.8125 10.871 0 15.746-2.8125 4.8711-8.0078 7.8711-13.633 7.8711zm0-47.23h-94.465c-5.625 0-10.824-3-13.637-7.8711-2.8125-4.8711-2.8125-10.871 0-15.742s8.0117-7.875 13.637-7.875h94.465c5.625 0 10.82 3.0039 13.633 7.875s2.8125 10.871 0 15.742c-2.8125 4.8711-8.0078 7.8711-13.633 7.8711zm0-47.23h-94.465c-5.625 0-10.824-3-13.637-7.8711-2.8125-4.8711-2.8125-10.875 0-15.746s8.0117-7.8711 13.637-7.8711h94.465c5.625 0 10.82 3 13.633 7.8711s2.8125 10.875 0 15.746c-2.8125 4.8711-8.0078 7.8711-13.633 7.8711z"/>
 </g>
</svg>