<?xml version="1.0" encoding="UTF-8"?>
<!-- The Best Svg Icon site in the world: iconSvg.co, Visit us! https://iconsvg.co -->
<svg fill="#000000" width="800px" height="800px" version="1.1" viewBox="144 144 512 512" xmlns="http://www.w3.org/2000/svg">
 <path d="m415.74 344.58v-48.176c19.766-5.0977 35.668-19.758 42.352-39.043 1.5391-3.9922 1.3867-8.4336-0.41797-12.312-1.8047-3.875-5.1094-6.8516-9.1523-8.2422-4.043-1.3906-8.4766-1.0742-12.285 0.87109-3.8086 1.9453-6.6602 5.3555-7.9023 9.4492-2.0391 5.875-5.8711 10.965-10.953 14.551-5.082 3.5859-11.164 5.4922-17.383 5.4414-9.2617 0.042968-18.027-4.1641-23.789-11.406-5.7656-7.2461-7.8906-16.734-5.7695-25.746 2.1211-9.0117 8.2578-16.555 16.648-20.469 4.1797-1.5 7.5312-4.6914 9.2305-8.7969 1.6992-4.1016 1.5898-8.7305-0.30859-12.746-1.8945-4.0156-5.3984-7.043-9.6484-8.3398-4.2461-1.293-8.8438-0.73438-12.656 1.543-15.348 7.2148-27.039 20.445-32.312 36.562-5.2773 16.121-3.668 33.699 4.4453 48.594 8.1133 14.895 22.012 25.781 38.414 30.09v48.176c-54.09 3.9727-104.68 28.25-141.61 67.965-36.938 39.711-57.496 91.922-57.547 146.16v15.742c0.32031 12.148 5.3086 23.699 13.93 32.262 8.6211 8.5625 20.207 13.473 32.355 13.711h337.24c12.227-0.24219 23.883-5.2188 32.516-13.879 8.6328-8.6641 13.57-20.336 13.773-32.566v-15.742c-0.17188-54.152-20.785-106.25-57.711-145.86-36.926-39.609-87.445-63.82-141.45-67.789zm167.68 229.39c0.039062 3.9531-1.5 7.7578-4.2812 10.566-2.7773 2.8125-6.5664 4.3906-10.52 4.3906h-337.24c-3.9531 0-7.7383-1.5781-10.52-4.3906-2.7812-2.8086-4.3203-6.6133-4.2773-10.566v-15.742c0-48.645 19.324-95.301 53.719-129.7 34.398-34.398 81.051-53.723 129.7-53.723 48.645 0 95.297 19.324 129.7 53.723 34.398 34.395 53.723 81.051 53.723 129.7z"/>
</svg>