<?xml version="1.0" encoding="UTF-8"?>
<!-- The Best Svg Icon site in the world: iconSvg.co, Visit us! https://iconsvg.co -->
<svg width="800px" height="800px" version="1.1" viewBox="144 144 512 512" xmlns="http://www.w3.org/2000/svg">
 <defs>
  <clipPath id="a">
   <path d="m274 510h252v141.9h-252z"/>
  </clipPath>
 </defs>
 <path d="m588.93 541.7h-377.86c-12.523-0.015624-24.527-4.9961-33.383-13.848-8.8555-8.8555-13.836-20.863-13.852-33.387v-283.39c0.015624-12.523 4.9961-24.527 13.852-33.383s20.859-13.836 33.383-13.852h377.86c12.523 0.015624 24.531 4.9961 33.383 13.852 8.8555 8.8555 13.836 20.859 13.852 33.383v283.39c-0.015625 12.523-4.9961 24.531-13.852 33.387-8.8516 8.8516-20.859 13.832-33.383 13.848zm-377.86-346.37c-4.1758 0.003906-8.1758 1.6641-11.129 4.6172s-4.6133 6.9531-4.6172 11.129v283.39c0.003906 4.1758 1.6641 8.1797 4.6172 11.129 2.9531 2.9531 6.9531 4.6133 11.129 4.6172h377.86c4.1758-0.003906 8.1797-1.6641 11.129-4.6172 2.9531-2.9492 4.6133-6.9531 4.6172-11.129v-283.39c-0.003906-4.1758-1.6641-8.1758-4.6172-11.129-2.9492-2.9531-6.9531-4.6133-11.129-4.6172z"/>
 <g clip-path="url(#a)">
  <path d="m486.59 651.9h-173.18c-14.062 0-27.055-7.5-34.086-19.68-7.0312-12.176-7.0312-27.18 0-39.359 7.0312-12.18 20.023-19.68 34.086-19.68h14.73l14.684-51.543v-0.003906c0.94141-3.2891 2.9258-6.1836 5.6562-8.2461 2.7344-2.0625 6.0625-3.1797 9.4844-3.1836h84.074c3.4219 0.003907 6.7539 1.1211 9.4844 3.1836 2.7344 2.0625 4.7188 4.957 5.6602 8.2461l14.684 51.547h14.727c14.062 0 27.059 7.5 34.086 19.68 7.0312 12.18 7.0312 27.184 0 39.359-7.0273 12.18-20.023 19.68-34.086 19.68zm-173.18-47.23c-4.3477 0-7.8711 3.5234-7.8711 7.8711 0 4.3477 3.5234 7.8711 7.8711 7.8711h173.18c4.3477 0 7.8711-3.5234 7.8711-7.8711 0-4.3477-3.5234-7.8711-7.8711-7.8711h-26.605c-3.4258-0.003906-6.7539-1.1211-9.4844-3.1836-2.7344-2.0625-4.7188-4.957-5.6602-8.25l-14.691-51.543h-60.301l-14.684 51.543c-0.94141 3.293-2.9297 6.1914-5.6602 8.2539-2.7344 2.0625-6.0664 3.1758-9.4883 3.1797z"/>
 </g>
 <path d="m400 478.72c-33.406 0-65.441-13.27-89.062-36.891s-36.891-55.656-36.891-89.062c0-33.402 13.27-65.441 36.891-89.062s55.656-36.891 89.062-36.891c33.402 0 65.441 13.27 89.059 36.891 23.621 23.621 36.891 55.66 36.891 89.062-0.035157 33.395-13.32 65.406-36.93 89.02-23.613 23.613-55.629 36.895-89.02 36.934zm0-220.42c-25.055 0-49.082 9.9531-66.797 27.668s-27.668 41.742-27.668 66.797 9.9531 49.082 27.668 66.797 41.742 27.668 66.797 27.668c25.051 0 49.078-9.9531 66.793-27.668 17.719-17.715 27.668-41.742 27.668-66.797-0.027344-25.043-9.9883-49.055-27.695-66.766-17.711-17.711-41.723-27.672-66.766-27.699z"/>
 <path d="m407.87 415.74h-39.359c-5.625 0-10.824-3-13.637-7.8711s-2.8125-10.875 0-15.746 8.0117-7.8711 13.637-7.8711h39.359c4.3477 0 7.8711-3.5234 7.8711-7.8711 0-4.3477-3.5234-7.8711-7.8711-7.8711h-15.746c-14.059 0-27.055-7.5039-34.086-19.68-7.0312-12.18-7.0312-27.184 0-39.363 7.0312-12.176 20.027-19.68 34.086-19.68h39.363c5.625 0 10.82 3 13.633 7.875 2.8125 4.8711 2.8125 10.871 0 15.742s-8.0078 7.8711-13.633 7.8711h-39.363c-4.3477 0-7.8711 3.5234-7.8711 7.8711 0 4.3477 3.5234 7.875 7.8711 7.875h15.746c14.062 0 27.055 7.5 34.086 19.68 7.0312 12.176 7.0312 27.18 0 39.359s-20.023 19.68-34.086 19.68z"/>
 <path d="m400 321.28c-4.1758 0-8.1797-1.6562-11.133-4.6094-2.9531-2.9531-4.6133-6.957-4.6133-11.133v-15.746c0-5.625 3-10.82 7.8711-13.633s10.875-2.8125 15.746 0 7.8711 8.0078 7.8711 13.633v15.746c0 4.1758-1.6602 8.1797-4.6094 11.133-2.9531 2.9531-6.957 4.6094-11.133 4.6094z"/>
 <path d="m400 431.49c-4.1758 0-8.1797-1.6602-11.133-4.6133-2.9531-2.9531-4.6133-6.957-4.6133-11.133v-15.742c0-5.625 3-10.824 7.8711-13.637s10.875-2.8125 15.746 0 7.8711 8.0117 7.8711 13.637v15.742c0 4.1758-1.6602 8.1797-4.6094 11.133-2.9531 2.9531-6.957 4.6133-11.133 4.6133z"/>
</svg>