<?xml version="1.0" encoding="UTF-8"?>
<!-- The Best Svg Icon site in the world: iconSvg.co, Visit us! https://iconsvg.co -->
<svg fill="#000000" width="800px" height="800px" version="1.1" viewBox="144 144 512 512" xmlns="http://www.w3.org/2000/svg">
 <g>
  <path d="m382.68 410.04-5.8789 11.676c6.1875 4.1211 13.977 6.4023 21.062 7.0195v9.5508h5.6328v-9.4688c7.5391-0.31641 14.738-2.9336 18.125-9.7148 1.0898-2.1758 1.6328-4.8164 1.6328-7.918 0-7.0508-3.0508-12.055-10.531-15.062-4.9297-1.9844-9.5273-2.9727-10.121-3.1445v-11.102c5.6445 0.80859 12.32 4.3906 13.062 5.3867l5.8789-11.102c-2.2852-1.3086-4.9805-2.5859-8.082-3.8359-3.1055-1.25-6.4258-2.0391-9.9609-2.3672v-8.2461h-5.6328v8.2461c-12.285 1.2812-18.613 9.0039-18.613 18.695 0 6.0898 2.4258 10.324 8.6562 13.348 4.3828 2.1328 9.0742 3.2266 10.859 3.7969v10.859c-7.1797-1-14.93-5.1562-16.09-6.6172zm19.918-3.0195c1.9062 0.65234 3.4297 1.375 4.5703 2.1641 1.1445 0.78906 1.7148 1.8906 1.7148 3.3047 0 2.7227-2.0977 4.1641-6.2852 4.3281zm-8.1211-17.266c-0.95312-0.78906-1.4297-1.8633-1.4297-3.2266 0-2.8281 1.9062-4.4102 5.7148-4.7344v10.043c-1.9062-0.60156-3.332-1.293-4.2852-2.082z"/>
  <path d="m400.02 462.13c34.258 0 62.129-27.871 62.129-62.129s-27.871-62.129-62.129-62.129c-34.258 0-62.129 27.871-62.129 62.129s27.871 62.129 62.129 62.129zm0-104.58c23.406 0 42.449 19.043 42.449 42.449s-19.043 42.449-42.449 42.449-42.449-19.043-42.449-42.449 19.043-42.449 42.449-42.449z"/>
  <path d="m400.02 288.67c-5.4336 0-9.8398 4.4062-9.8398 9.8398 0 5.4336 4.4062 9.8398 9.8398 9.8398 50.535 0 91.648 41.113 91.648 91.648s-41.113 91.648-91.648 91.648c-50.535 0-91.648-41.113-91.648-91.648 0-5.4336-4.4062-9.8398-9.8398-9.8398s-9.8398 4.4062-9.8398 9.8398c0 61.387 49.941 111.33 111.33 111.33 61.387 0 111.33-49.941 111.33-111.33-0.003907-61.383-49.945-111.33-111.33-111.33z"/>
  <path d="m400.02 173.68c-60.453 0-117.29 23.543-160.03 66.289-88.445 88.445-88.457 231.61 0 320.07 42.746 42.742 99.578 66.285 160.03 66.285 125.08 0 226.32-101.22 226.32-226.32 0-124.89-101.23-226.32-226.32-226.32zm152.84 365.25-34.828-34.832c22.488-25.469 36.879-58.238 39.113-94.254h49.273c-2.3359 49.57-22.215 94.629-53.559 129.09zm-359.24-129.09h49.277c2.2344 36.016 16.625 68.785 39.113 94.254l-34.832 34.832c-31.348-34.457-51.227-79.516-53.559-129.09zm53.559-148.77 34.832 34.832c-22.492 25.469-36.883 58.238-39.113 94.254h-49.277c2.332-49.574 22.211-94.633 53.559-129.09zm152.84 276.68c-75.961 0-137.76-61.801-137.76-137.76 0-75.961 61.801-137.76 137.76-137.76 75.961 0 137.76 61.801 137.76 137.76 0 75.965-61.801 137.76-137.76 137.76zm104.09-255.77c-25.469-22.492-58.238-36.883-94.254-39.113v-49.277c49.57 2.3359 94.633 22.211 129.09 53.559zm-113.93-39.113c-36.016 2.2344-68.785 16.625-94.254 39.113l-34.832-34.832c34.453-31.344 79.516-51.223 129.09-53.559zm-94.254 275.13c25.469 22.488 58.238 36.883 94.254 39.113v49.277c-49.57-2.3359-94.629-22.211-129.09-53.559zm113.93 39.117c36.016-2.2344 68.785-16.625 94.254-39.113l34.828 34.832c-34.453 31.344-79.516 51.223-129.09 53.559zm147.29-166.96c-2.2344-36.016-16.625-68.785-39.113-94.254l34.828-34.832c31.344 34.453 51.223 79.516 53.559 129.09z"/>
 </g>
</svg>