<?xml version="1.0" encoding="UTF-8"?>
<!-- The Best Svg Icon site in the world: iconSvg.co, Visit us! https://iconsvg.co -->
<svg fill="#000000" width="800px" height="800px" version="1.1" viewBox="144 144 512 512" xmlns="http://www.w3.org/2000/svg">
 <g>
  <path d="m456.55 169.09c-93.805 0-170.09 76.305-170.09 170.08 0 38.164 12.785 73.293 34.082 101.69l-139.6 144.26c-10.348 10.707-10.066 27.836 0.62891 38.195 5.2305 5.0664 12.008 7.6055 18.777 7.6055 7.0742 0 14.137-2.7695 19.43-8.2188l139.52-144.2c27.594 19.332 61.086 30.773 97.258 30.773 93.781 0 170.08-76.316 170.08-170.09 0-93.777-76.316-170.09-170.09-170.09zm0 329.66c-88 0-159.59-71.582-159.59-159.58s71.586-159.58 159.59-159.58c88 0 159.57 71.582 159.57 159.58s-71.582 159.58-159.57 159.58z"/>
  <path d="m561.18 287.07c-0.0625-0.41797-0.011719-0.85156-0.125-1.2578-0.38672-1.3867-1.0273-2.7188-1.9961-3.8945-0.98828-1.1758-2.1719-2.0469-3.4648-2.6875-0.35547-0.17969-0.76562-0.19922-1.1562-0.33594-0.98828-0.34766-1.9727-0.62891-3.0117-0.67188-0.16797 0-0.27344-0.09375-0.42969-0.09375h-37.23c-5.8047 0-10.496 4.6914-10.496 10.496s4.6914 10.496 10.496 10.496h8.1445l-64.875 53.867-22.629-50.727c-1.375-3.0742-4.1445-5.3125-7.4297-5.9922-3.3047-0.71484-6.7266 0.24219-9.2266 2.5078l-77.902 70.953c-4.2812 3.9062-4.5977 10.539-0.68359 14.832 2.0664 2.2656 4.9141 3.4219 7.7578 3.4219 2.5195 0 5.0469-0.90234 7.0742-2.7383l67.152-61.172 22.355 50.109c1.332 3 4 5.1953 7.1992 5.9414 3.1797 0.73438 6.5586-0.050781 9.0898-2.1406l75.52-62.715-1.5117 8.0195c-1.0586 5.6992 2.707 11.18 8.4062 12.25 0.66016 0.11719 1.2891 0.17969 1.9414 0.17969 4.9531 0 9.3828-3.5273 10.297-8.5664l6.832-36.59c0.03125-0.15625-0.042969-0.30469-0.019532-0.46094 0.17188-1.0156 0.089844-2.0234-0.078125-3.0312z"/>
 </g>
</svg>