<?xml version="1.0" encoding="UTF-8"?>
<!-- The Best Svg Icon site in the world: iconSvg.co, Visit us! https://iconsvg.co -->
<svg fill="#000000" width="800px" height="800px" version="1.1" viewBox="144 144 512 512" xmlns="http://www.w3.org/2000/svg">
 <g>
  <path d="m574.82 332.07c-18.02 0-35.297 7.1562-48.035 19.895-12.742 12.738-19.898 30.02-19.898 48.035-0.003906 18.016 7.1562 35.297 19.895 48.035 12.738 12.742 30.016 19.898 48.035 19.898 18.016 0 35.293-7.1562 48.035-19.895 12.738-12.742 19.898-30.02 19.898-48.035-0.023437-18.012-7.1875-35.277-19.922-48.012s-30-19.898-48.008-19.922zm0 124.05c-14.887 0-29.16-5.9102-39.688-16.434-10.527-10.527-16.438-24.801-16.441-39.688 0-14.883 5.9141-29.16 16.438-39.688 10.527-10.523 24.801-16.438 39.688-16.438 14.883 0 29.16 5.9141 39.684 16.438 10.527 10.527 16.441 24.801 16.441 39.688-0.019531 14.879-5.9375 29.145-16.457 39.664-10.52 10.523-24.785 16.441-39.664 16.457z"/>
  <path d="m574.82 375.83c5.6055 0.007813 10.152 4.5508 10.156 10.16 0 3.2617 2.6445 5.9023 5.9062 5.9023s5.9023-2.6406 5.9023-5.9023c-0.003906-4.9102-1.6562-9.6797-4.6836-13.543-3.0312-3.8672-7.2656-6.6055-12.035-7.7852v-4.0234c0-3.2578-2.6406-5.9023-5.9023-5.9023s-5.9062 2.6445-5.9062 5.9023v4.3867c-6.7344 2.1094-12.047 7.3281-14.277 14.023-2.2305 6.6992-1.1055 14.062 3.0234 19.789 4.1289 5.7266 10.758 9.1172 17.816 9.1211 4.1094 0 7.8125 2.4727 9.3867 6.2695 1.5742 3.7969 0.70312 8.168-2.2031 11.074s-7.2734 3.7734-11.07 2.2031c-3.7969-1.5742-6.2734-5.2812-6.2734-9.3906 0-3.2578-2.6445-5.9023-5.9023-5.9023-3.2617 0-5.9062 2.6445-5.9062 5.9023 0.007812 4.6797 1.5039 9.2344 4.2734 13.004 2.7695 3.7734 6.6719 6.5625 11.133 7.9648v4.2109c0 3.2617 2.6445 5.9062 5.9062 5.9062s5.9023-2.6445 5.9023-5.9062v-3.8516 0.003906c7.0117-1.7266 12.727-6.7852 15.289-13.535s1.6445-14.328-2.457-20.273c-4.0977-5.9414-10.859-9.4883-18.078-9.4883-5.5742-0.054688-10.062-4.5859-10.062-10.16 0-5.5703 4.4883-10.105 10.062-10.16z"/>
  <path d="m533.65 314.97c18.016 0 35.297-7.1562 48.035-19.895 12.738-12.742 19.895-30.02 19.895-48.035 0-18.016-7.1562-35.297-19.895-48.035-12.742-12.738-30.02-19.895-48.035-19.895-18.016 0-35.293 7.1562-48.035 19.895-12.738 12.742-19.895 30.02-19.895 48.035 0.019531 18.012 7.1836 35.277 19.918 48.012s30.004 19.898 48.012 19.918zm0-124.05v0.003907c14.887 0 29.16 5.9102 39.688 16.438 10.523 10.523 16.438 24.801 16.434 39.684 0 14.887-5.9102 29.16-16.438 39.684-10.523 10.527-24.801 16.438-39.684 16.438-14.883 0-29.16-5.9102-39.684-16.438-10.527-10.523-16.438-24.801-16.438-39.684 0.015625-14.879 5.9336-29.145 16.457-39.668 10.52-10.52 24.785-16.438 39.664-16.453z"/>
  <path d="m533.65 275.32c-5.6055-0.007812-10.152-4.5508-10.156-10.16 0-3.2617-2.6445-5.9062-5.9062-5.9062-3.2617 0-5.9023 2.6445-5.9023 5.9062 0.003906 4.6484 1.4844 9.1797 4.2227 12.938 2.7422 3.7578 6.6016 6.5508 11.027 7.9766v4.7031c0 3.2617 2.6445 5.9062 5.9062 5.9062 3.2617 0 5.9023-2.6445 5.9023-5.9062v-4.2539c7.043-1.6758 12.805-6.7188 15.402-13.473 2.6016-6.7539 1.707-14.355-2.3867-20.324-4.0977-5.9648-10.871-9.5312-18.109-9.5352-4.1094 0-7.8125-2.4727-9.3867-6.2695-1.5703-3.7969-0.70312-8.168 2.2031-11.074s7.2734-3.7734 11.07-2.2031c3.7969 1.5742 6.2734 5.2773 6.2734 9.3867 0 3.2617 2.6445 5.9062 5.9023 5.9062 3.2617 0 5.9062-2.6445 5.9062-5.9062-0.007813-4.9375-1.6758-9.7305-4.7344-13.605-3.0625-3.8789-7.3359-6.6094-12.141-7.7617v-3.543c0-3.2617-2.6406-5.9023-5.9023-5.9023-3.2617 0-5.9062 2.6406-5.9062 5.9023v3.9961c-6.7031 2.1523-11.969 7.3906-14.16 14.082-2.1875 6.6875-1.0391 14.023 3.0898 19.727 4.1328 5.6992 10.746 9.0742 17.785 9.0742 5.5742 0.054687 10.062 4.5898 10.062 10.16s-4.4883 10.105-10.062 10.16z"/>
  <path d="m465.72 552.96c0 18.016 7.1562 35.297 19.895 48.035 12.742 12.742 30.02 19.898 48.035 19.898 18.016 0 35.297-7.1562 48.035-19.898 12.742-12.738 19.898-30.016 19.898-48.031 0-18.02-7.1562-35.297-19.898-48.035-12.738-12.742-30.016-19.898-48.035-19.898-18.008 0.019531-35.277 7.1836-48.012 19.918-12.734 12.734-19.898 30.004-19.918 48.012zm67.93-56.121c14.887 0 29.16 5.9141 39.688 16.438 10.523 10.527 16.438 24.801 16.434 39.684 0 14.887-5.9102 29.16-16.438 39.688-10.523 10.523-24.801 16.438-39.684 16.438-14.883 0-29.16-5.9141-39.684-16.441-10.527-10.523-16.438-24.797-16.438-39.684 0.015625-14.879 5.9336-29.145 16.457-39.664 10.52-10.523 24.785-16.441 39.664-16.457z"/>
  <path d="m534.16 581.21c-0.66797-0.16016-1.3633-0.19531-2.0469-0.10156-4.9531-0.76172-8.6094-5.0195-8.6211-10.031 0-3.2617-2.6406-5.9023-5.9023-5.9023-3.2617 0-5.9023 2.6406-5.9023 5.9023 0.003906 4.6523 1.4844 9.1797 4.2227 12.938 2.7422 3.7578 6.6016 6.5508 11.027 7.9766v4.8125c0 3.2578 2.6445 5.9023 5.9062 5.9023 3.2617 0 5.9023-2.6445 5.9023-5.9023v-4.3633c7.043-1.6758 12.805-6.7148 15.406-13.473 2.6016-6.7539 1.707-14.355-2.3906-20.324-4.0938-5.9688-10.871-9.5352-18.109-9.5312-4.1094 0-7.8125-2.4766-9.3867-6.2734-1.5703-3.7969-0.70312-8.168 2.2031-11.07 2.9062-2.9062 7.2734-3.7773 11.07-2.2031 3.7969 1.5703 6.2734 5.2773 6.2734 9.3867 0 3.2578 2.6445 5.9023 5.9023 5.9023 3.2617 0 5.9062-2.6445 5.9062-5.9023-0.007813-4.9375-1.6758-9.7305-4.7383-13.605-3.0586-3.875-7.3359-6.6055-12.137-7.7578v-4.4258c0-3.2617-2.6406-5.9062-5.9023-5.9062-3.2617 0-5.9062 2.6445-5.9062 5.9062v4.875c-6.7031 2.1523-11.969 7.3867-14.16 14.078-2.1875 6.6914-1.0391 14.023 3.0898 19.727 4.1328 5.6992 10.746 9.0742 17.785 9.0742 5.5078 0.003907 10.012 4.3945 10.148 9.9023 0.13672 5.5039-4.1367 10.117-9.6406 10.391z"/>
  <path d="m182.83 446.25h11.043c0.89844 6.4375 3.9766 12.371 8.7148 16.82 4.7383 4.4492 10.859 7.1406 17.34 7.6289v103.47c-0.042969 1.543 0.53516 3.043 1.6094 4.1523 1.0742 1.1133 2.5508 1.7422 4.0977 1.75h46.742c1.5352-0.011718 2.9961-0.64844 4.0547-1.7617 1.0586-1.1133 1.6172-2.6094 1.5508-4.1406v-97.355l125.01 23.414c0.38281 0.066407 0.77344 0.097657 1.1602 0.097657 1.3438 0 2.6445-0.48438 3.6602-1.3594 1.3242-1.1328 2.0664-2.8008 2.0273-4.543v-188.85c0.0625-1.7383-0.66797-3.4102-1.9844-4.543-1.3203-1.1328-3.082-1.6055-4.7891-1.2812l-156.83 29.398h-24.051c-7.0469 0.007812-13.844 2.6289-19.07 7.3516-5.2305 4.7266-8.5234 11.223-9.2422 18.234h-11.047c-14.109 0-25.879 10.984-25.879 25.094v40.344c0 14.105 11.77 26.074 25.879 26.074zm83.348 122.02h-34.441v-97.414h14.504l19.938 3.7539zm131.86-80.953-122.89-23.07c-0.85938-0.50391-1.8398-0.77344-2.8398-0.77344-0.32031 0.003906-0.63672 0.027344-0.95312 0.070312l-18.945-3.5312v-120.01l145.63-27.305zm-192.87-129.58c0.070313-4.4688 1.8945-8.7344 5.082-11.871 3.1836-3.1367 7.4727-4.8945 11.941-4.8984h18.402v118.08h-18.402c-4.4688-0.003906-8.7578-1.7617-11.941-4.8984-3.1875-3.1367-5.0117-7.4023-5.082-11.871zm-36.406 22.102c0-7.5977 6.4727-13.285 14.07-13.285h10.531v67.895h-10.531c-7.5938 0-14.07-6.6719-14.07-14.27z"/>
  <path d="m487.57 394.09h-48.215c-3.2617 0-5.9062 2.6445-5.9062 5.9062 0 3.2578 2.6445 5.9023 5.9062 5.9023h48.215c3.2617 0 5.9062-2.6445 5.9062-5.9023 0-3.2617-2.6445-5.9062-5.9062-5.9062z"/>
  <path d="m427.85 356.7c0.85547 0 1.707-0.1875 2.4844-0.55469l42.312-19.68c1.4336-0.64844 2.5469-1.8477 3.0938-3.3242 0.54688-1.4766 0.48047-3.1133-0.18359-4.5391-0.66406-1.4297-1.8711-2.5312-3.3516-3.0664-1.4844-0.53125-3.1172-0.45312-4.5391 0.22656l-42.312 19.68c-2.5117 1.168-3.875 3.9258-3.2734 6.6289 0.59766 2.707 2.9961 4.6289 5.7695 4.6289z"/>
  <path d="m425.35 454.55 42.312 19.68c1.4219 0.67969 3.0586 0.75781 4.5391 0.22656 1.4805-0.53516 2.6914-1.6367 3.3555-3.0664 0.66406-1.4258 0.73047-3.0625 0.18359-4.5391-0.54688-1.4766-1.6641-2.6758-3.0977-3.3242l-42.312-19.68v-0.003906c-1.4219-0.67578-3.0547-0.75781-4.5352-0.22266-1.4844 0.53125-2.6914 1.6367-3.3555 3.0664-0.66406 1.4258-0.73047 3.0625-0.18359 4.5391 0.54688 1.4766 1.6602 2.6719 3.0938 3.3242z"/>
 </g>
</svg>