<?xml version="1.0" encoding="UTF-8"?>
<!-- The Best Svg Icon site in the world: iconSvg.co, Visit us! https://iconsvg.co -->
<svg fill="#000000" width="800px" height="800px" version="1.1" viewBox="144 144 512 512" xmlns="http://www.w3.org/2000/svg">
 <g>
  <path d="m513.25 577.7-22.043-95.094h0.003907c-2.1133-9.043-6.5898-17.363-12.969-24.113-6.3828-6.75-14.438-11.684-23.348-14.301l7.7656-31.488c0.79688-3.1406 0.097656-6.4727-1.8906-9.0273-2.0625-2.418-5.1133-3.7695-8.2891-3.6719h-41.984v-31.488h20.992c13.918 0 27.266-5.5312 37.105-15.371 9.8438-9.8438 15.371-23.191 15.371-37.109 0-2.7852-1.1055-5.4531-3.0742-7.4219-1.9648-1.9688-4.6367-3.0742-7.418-3.0742h-31.488c-11.367-0.0625-22.434 3.625-31.488 10.496v-32.957c8.9883-2.3242 16.953-7.5586 22.652-14.887 5.6953-7.332 8.8047-16.344 8.8359-25.629 0.074219-28.309-13.383-54.949-36.215-71.688-3.5-2.3086-8.0391-2.3086-11.543 0-22.832 16.738-36.289 43.379-36.211 71.688 0.027344 9.2852 3.1367 18.297 8.832 25.629 5.6992 7.3281 13.664 12.562 22.656 14.887v32.957c-9.0547-6.8711-20.125-10.559-31.488-10.496h-31.488c-5.7969 0-10.496 4.6992-10.496 10.496 0 13.918 5.5273 27.266 15.371 37.109 9.8398 9.8398 23.191 15.371 37.109 15.371h20.992v31.488h-41.984c-3.2305-0.019531-6.2891 1.4531-8.293 3.9883-1.9883 2.5547-2.6875 5.8867-1.8906 9.0234l7.7656 31.488h0.003907c-8.9141 2.6172-16.969 7.5547-23.348 14.305-6.3828 6.7461-10.855 15.07-12.969 24.113l-22.148 96.246c-1.4883 6.6484-2.1914 13.449-2.0977 20.258 0 8.3516 3.3164 16.363 9.2227 22.266 5.9062 5.9062 13.914 9.2227 22.266 9.2227h167.93c8.3516 0 16.363-3.3164 22.266-9.2227 5.9062-5.9023 9.2227-13.914 9.2227-22.266 0.16797-7.3047-0.57031-14.602-2.2031-21.727zm-71.266-251.17h19.207c-2.1719 6.1406-6.1953 11.457-11.516 15.219-5.3203 3.7578-11.676 5.7773-18.188 5.7734h-19.211c2.1719-6.1445 6.1953-11.461 11.516-15.219 5.3203-3.7617 11.676-5.7773 18.191-5.7734zm-62.977-83.969c-0.054687-18.625 7.5352-36.457 20.992-49.332 13.453 12.875 21.043 30.707 20.992 49.332 0 7.5-4.0039 14.43-10.496 18.18-6.4961 3.75-14.5 3.75-20.992 0-6.4961-3.75-10.496-10.68-10.496-18.18zm-10.496 104.96c-6.5156 0.003907-12.871-2.0156-18.191-5.7734-5.3203-3.7617-9.3438-9.0781-11.512-15.219h19.207c6.5117-0.003906 12.867 2.0117 18.188 5.7734 5.3203 3.7578 9.3438 9.0742 11.516 15.219zm70.535 73.473-5.2461 20.992h-67.598l-5.2461-20.992zm55.414 178.43c0 2.7852-1.1055 5.4531-3.0742 7.4219-1.9648 1.9688-4.6367 3.0742-7.4219 3.0742h-167.93c-5.7969 0-10.496-4.6992-10.496-10.496-0.11328-5.2227 0.41797-10.438 1.5742-15.531l22.148-96.457-0.003906-0.003906c1.5977-6.957 5.5078-13.168 11.094-17.613 5.5898-4.4414 12.523-6.8555 19.66-6.8398h80.086c7.1055 0.003907 14.004 2.4102 19.566 6.832 5.5664 4.4219 9.4688 10.594 11.082 17.516l22.043 95.094c1.2891 5.5742 1.8516 11.289 1.6758 17.004z"/>
  <path d="m420.99 515.45c5.7969 0 10.496-4.6992 10.496-10.496s-4.6992-10.496-10.496-10.496h-10.496c0-5.7969-4.6992-10.496-10.496-10.496s-10.496 4.6992-10.496 10.496h-10.496c-5.7969 0-10.496 4.6992-10.496 10.496v31.488c0 2.7852 1.1055 5.4531 3.0742 7.4219s4.6367 3.0742 7.4219 3.0742h31.488v10.496h-31.488c-5.7969 0-10.496 4.6992-10.496 10.496s4.6992 10.496 10.496 10.496h10.496c0 5.7969 4.6992 10.496 10.496 10.496s10.496-4.6992 10.496-10.496h10.496c2.7812 0 5.4531-1.1055 7.4219-3.0742 1.9648-1.9688 3.0742-4.6367 3.0742-7.4219v-31.488c0-2.7812-1.1094-5.4531-3.0742-7.4219-1.9688-1.9648-4.6406-3.0742-7.4219-3.0742h-31.488v-10.496z"/>
 </g>
</svg>