<?xml version="1.0" encoding="UTF-8"?>
<!-- The Best Svg Icon site in the world: iconSvg.co, Visit us! https://iconsvg.co -->
<svg fill="#000000" width="800px" height="800px" version="1.1" viewBox="144 144 512 512" xmlns="http://www.w3.org/2000/svg">
 <g>
  <path d="m562.08 242.56-51.875-51.879v44.008c0 2.0859 0.82812 4.0898 2.3047 5.5664 1.4766 1.4766 3.4805 2.3047 5.5664 2.3047z"/>
  <path d="m226.81 179.58v204.67h346.37v-125.95h-55.105c-6.2578-0.015625-12.254-2.5117-16.676-6.9375-4.4258-4.4219-6.9219-10.418-6.9414-16.676v-55.105zm133.82 47.23h110.21c4.3477 0 7.8711 3.5273 7.8711 7.875s-3.5234 7.8711-7.8711 7.8711h-110.21c-4.3477 0-7.8711-3.5234-7.8711-7.8711s3.5234-7.875 7.8711-7.875zm0 31.488h110.21c4.3477 0 7.8711 3.5273 7.8711 7.875 0 4.3477-3.5234 7.8711-7.8711 7.8711h-110.21c-4.3477 0-7.8711-3.5234-7.8711-7.8711 0-4.3477 3.5234-7.875 7.8711-7.875zm-62.977 15.742-15.742 0.003906c-8.4375 0-16.234-4.5-20.453-11.809-4.2188-7.3086-4.2188-16.309 0-23.617 4.2188-7.3047 12.016-11.809 20.453-11.809v-7.8711c0-4.3477 3.5234-7.8711 7.8711-7.8711 4.3477 0 7.875 3.5234 7.875 7.8711v7.8711c6.2617 0 12.27 2.4883 16.695 6.918 4.4297 4.4297 6.918 10.438 6.918 16.699 0 4.3477-3.5234 7.8711-7.8711 7.8711s-7.8711-3.5234-7.8711-7.8711c0-2.0859-0.83203-4.0898-2.3047-5.5664-1.4766-1.4766-3.4805-2.3047-5.5664-2.3047h-15.746c-4.3477 0-7.8711 3.5234-7.8711 7.8711 0 4.3477 3.5234 7.8711 7.8711 7.8711h15.746c8.4336 0 16.23 4.5039 20.449 11.809 4.2188 7.3086 4.2188 16.309 0 23.617-4.2188 7.3047-12.016 11.809-20.449 11.809v7.8711c0 4.3477-3.5273 7.8711-7.875 7.8711-4.3477 0-7.8711-3.5234-7.8711-7.8711v-7.8711c-6.2617 0-12.27-2.4883-16.699-6.918-4.4297-4.4297-6.918-10.438-6.918-16.699 0-4.3477 3.5273-7.8711 7.875-7.8711 4.3477 0 7.8711 3.5234 7.8711 7.8711 0 2.0898 0.82812 4.0898 2.3047 5.5664 1.4766 1.4766 3.4805 2.3047 5.5664 2.3047h15.746c4.3477 0 7.8711-3.5234 7.8711-7.8711 0-4.3477-3.5234-7.8711-7.8711-7.8711zm236.16 94.469h-267.65c-4.3477 0-7.875-3.5273-7.875-7.875 0-4.3477 3.5273-7.8711 7.875-7.8711h267.65c4.3477 0 7.8711 3.5234 7.8711 7.8711 0 4.3477-3.5234 7.875-7.8711 7.875zm0-31.488h-173.19c-4.3477 0-7.8711-3.5273-7.8711-7.875 0-4.3477 3.5234-7.8711 7.8711-7.8711h173.19c4.3477 0 7.8711 3.5234 7.8711 7.8711 0 4.3477-3.5234 7.875-7.8711 7.875zm0-47.23v-0.003907c4.3477 0 7.8711 3.5273 7.8711 7.875 0 4.3477-3.5234 7.8711-7.8711 7.8711h-173.19c-4.3477 0-7.8711-3.5234-7.8711-7.8711 0-4.3477 3.5234-7.875 7.8711-7.875z"/>
  <path d="m400 573.18c16.699 0 32.719-6.6367 44.531-18.445 11.809-11.812 18.445-27.828 18.445-44.531s-6.6367-32.723-18.445-44.531c-11.812-11.809-27.832-18.445-44.531-18.445-16.703 0-32.723 6.6367-44.531 18.445-11.812 11.809-18.445 27.828-18.445 44.531 0.019531 16.695 6.6602 32.703 18.465 44.512 11.805 11.805 27.812 18.445 44.512 18.465zm7.8711-55.105h-15.746c-8.4375 0-16.23-4.5-20.449-11.809-4.2188-7.3047-4.2188-16.309 0-23.613 4.2188-7.3086 12.012-11.809 20.449-11.809v-7.8711c0-4.3477 3.5273-7.875 7.875-7.875s7.8711 3.5273 7.8711 7.875v7.8711c6.2617 0 12.27 2.4883 16.699 6.918 4.4297 4.4258 6.918 10.434 6.918 16.695 0 4.3477-3.5273 7.875-7.875 7.875-4.3477 0-7.8711-3.5273-7.8711-7.875 0-2.0859-0.82813-4.0898-2.3047-5.5664-1.4766-1.4727-3.4805-2.3047-5.5664-2.3047h-15.746c-4.3477 0-7.8711 3.5234-7.8711 7.8711 0 4.3477 3.5234 7.875 7.8711 7.875h15.746c8.4375 0 16.234 4.5 20.453 11.809 4.2188 7.3047 4.2188 16.309 0 23.613-4.2188 7.3086-12.016 11.809-20.453 11.809v7.8711c0 4.3477-3.5234 7.875-7.8711 7.875s-7.875-3.5273-7.875-7.875v-7.8711c-6.2617 0-12.27-2.4883-16.699-6.918-4.4258-4.4258-6.9141-10.434-6.9141-16.699 0-4.3477 3.5234-7.8711 7.8711-7.8711 4.3477 0 7.8711 3.5234 7.8711 7.8711 0 2.0898 0.82812 4.0898 2.3047 5.5664 1.4766 1.4766 3.4805 2.3086 5.5664 2.3086h15.746c4.3477 0 7.8711-3.5273 7.8711-7.875 0-4.3477-3.5234-7.8711-7.8711-7.8711z"/>
  <path d="m233.9 596.8h332.2c1.5547-7.5586 5.293-14.496 10.75-19.953 5.457-5.457 12.395-9.1953 19.953-10.75v-111.78c-7.5586-1.5547-14.496-5.293-19.953-10.75-5.457-5.457-9.1953-12.395-10.75-19.953h-332.2c-1.5547 7.5586-5.293 14.496-10.75 19.953-5.457 5.457-12.391 9.1953-19.949 10.75v111.78c7.5586 1.5547 14.492 5.293 19.949 10.75 5.457 5.457 9.1953 12.395 10.75 19.953zm284.18-94.465h31.488c4.3477 0 7.8711 3.5234 7.8711 7.8711 0 4.3477-3.5234 7.8711-7.8711 7.8711h-31.488c-4.3477 0-7.8711-3.5234-7.8711-7.8711 0-4.3477 3.5234-7.8711 7.8711-7.8711zm-118.08-70.848c20.875 0 40.898 8.293 55.664 23.055 14.762 14.762 23.055 34.785 23.055 55.664 0 20.879-8.293 40.902-23.055 55.664-14.766 14.762-34.789 23.055-55.664 23.055-20.879 0-40.902-8.293-55.664-23.055-14.766-14.762-23.059-34.785-23.059-55.664 0.023437-20.871 8.3242-40.879 23.082-55.637 14.758-14.758 34.77-23.062 55.641-23.082zm-149.57 70.848h31.488c4.3477 0 7.8711 3.5234 7.8711 7.8711 0 4.3477-3.5234 7.8711-7.8711 7.8711h-31.488c-4.3477 0-7.8711-3.5234-7.8711-7.8711 0-4.3477 3.5234-7.8711 7.8711-7.8711z"/>
  <path d="m179.58 620.41h440.83v-220.41h-440.83zm7.8711-173.18c0-4.3477 3.5234-7.8711 7.8711-7.8711 6.2656 0 12.273-2.4883 16.699-6.918 4.4297-4.4297 6.918-10.434 6.918-16.699 0-4.3477 3.5234-7.8711 7.8711-7.8711h346.37c2.0859 0 4.0898 0.82812 5.5664 2.3047 1.4766 1.4766 2.3047 3.4805 2.3047 5.5664 0 6.2656 2.4883 12.27 6.918 16.699 4.4297 4.4297 10.434 6.918 16.699 6.918 2.0859 0 4.0898 0.82812 5.5664 2.3047 1.4766 1.4766 2.3047 3.4805 2.3047 5.5664v125.95c0 2.0859-0.82812 4.0898-2.3047 5.5664-1.4766 1.4766-3.4805 2.3047-5.5664 2.3047-6.2656 0-12.27 2.4883-16.699 6.918-4.4297 4.4297-6.918 10.434-6.918 16.699 0 2.0859-0.82813 4.0898-2.3047 5.5664-1.4766 1.4766-3.4805 2.3047-5.5664 2.3047h-346.37c-4.3477 0-7.8711-3.5234-7.8711-7.8711 0-6.2656-2.4883-12.27-6.918-16.699-4.4258-4.4297-10.434-6.918-16.699-6.918-4.3477 0-7.8711-3.5234-7.8711-7.8711z"/>
 </g>
</svg>