<?xml version="1.0" encoding="UTF-8"?>
<!-- The Best Svg Icon site in the world: iconSvg.co, Visit us! https://iconsvg.co -->
<svg fill="#000000" width="800px" height="800px" version="1.1" viewBox="144 144 512 512" xmlns="http://www.w3.org/2000/svg">
 <g>
  <path d="m545.02 347.63v224.84c0 2.4297 1.9688 4.3984 4.3984 4.3984 2.4297 0 4.3984-1.9688 4.3984-4.3984v-224.84c0-2.4297-1.9688-4.3984-4.3984-4.3984-2.4297 0-4.3984 1.9688-4.3984 4.3984z"/>
  <path d="m484.6 354.78c0.10156 0.83984 2.6797 20.793 18.129 30.637 5.4922 3.5 11.828 5.2539 18.941 5.2539 5.4883 0 11.441-1.043 17.824-3.1289 0.035156-0.011718 0.066406-0.03125 0.10156-0.046874 0.058594-0.019532 0.12109-0.035157 0.17578-0.058594 0.039062-0.015625 0.074218-0.039063 0.11719-0.054688 0.13672-0.058594 0.26562-0.12109 0.39844-0.19141 0.039063-0.019531 0.070313-0.046875 0.10547-0.070312 0.019531-0.011719 0.039063-0.023438 0.058594-0.039063 0.066406-0.039063 0.125-0.082031 0.1875-0.12109 0.097656-0.066406 0.1875-0.13672 0.27734-0.21094 0.058593-0.046875 0.11719-0.097656 0.17188-0.14453 0.039062-0.035156 0.082031-0.066406 0.11719-0.10156 0.03125-0.03125 0.054688-0.066406 0.085938-0.097656 0.10156-0.10547 0.20703-0.21094 0.29688-0.33203 0.023437-0.035156 0.050781-0.074218 0.074218-0.10937 0.011719-0.011719 0.015626-0.023438 0.023438-0.035157 0.046875-0.066406 0.089844-0.13281 0.13672-0.19531 0.03125-0.046875 0.066406-0.089844 0.097656-0.14062 0.019531-0.035156 0.03125-0.074219 0.050781-0.11719 0.046875-0.085937 0.089844-0.17188 0.13672-0.26172 0.046875-0.10156 0.085937-0.19531 0.125-0.29688 0.03125-0.082031 0.058594-0.16016 0.085937-0.24219 0.023438-0.085937 0.050782-0.16797 0.070313-0.25 0.023437-0.10547 0.046875-0.21484 0.066406-0.32422 0.015625-0.085937 0.03125-0.17578 0.039063-0.26172 0.011718-0.085938 0.015625-0.17578 0.019531-0.26563 0.003906-0.10547 0.003906-0.21094 0.003906-0.31641 0-0.089844-0.003906-0.17969-0.011719-0.27344-0.011718-0.097657-0.019531-0.19141-0.035156-0.28906-0.011718-0.050781-0.003906-0.10547-0.015625-0.15625-2.8516-15.164-9.4297-25.668-19.543-31.215-16.055-8.8047-34.789-1.4766-35.578-1.1602-0.085938 0.035156-0.16016 0.089844-0.24609 0.125-0.14453 0.070313-0.28906 0.13672-0.42188 0.22266-0.11719 0.070313-0.22656 0.15625-0.33594 0.23828-0.11719 0.085937-0.23047 0.17578-0.33594 0.27734-0.10547 0.097656-0.19531 0.20312-0.28906 0.30078-0.097656 0.10547-0.19141 0.21484-0.27734 0.33203-0.074219 0.10547-0.14453 0.21484-0.21094 0.33203-0.082031 0.13281-0.15625 0.26562-0.22266 0.40234-0.050782 0.10938-0.089844 0.22266-0.13281 0.33203-0.054687 0.15625-0.10938 0.30859-0.15234 0.46875-0.023438 0.11719-0.046876 0.22656-0.058594 0.34375-0.023438 0.16797-0.050782 0.32812-0.058594 0.5-0.003906 0.12109 0.003906 0.24609 0.003906 0.36719 0.003906 0.13281-0.007812 0.25 0.003906 0.375zm34.129 4.2852c5.3438 2.9492 9.4258 7.9492 12.203 14.914l-18.234-10.797c-2.0898-1.2383-4.793-0.55078-6.0273 1.543-1.2383 2.0898-0.54297 4.793 1.543 6.0273l18.238 10.797c-7.4414 0.91797-13.789-0.25781-18.949-3.5273-8.5352-5.4102-12.098-15.426-13.441-20.758 5.3242-1.3867 15.82-3.0781 24.668 1.8008z"/>
  <path d="m556.08 382.54c-0.011719 0.054687-0.003906 0.10547-0.015625 0.15625-0.015625 0.097656-0.03125 0.19141-0.035156 0.28906-0.011719 0.089844-0.011719 0.17969-0.011719 0.27344-0.003906 0.10547-0.003906 0.21094 0.003907 0.31641 0.003906 0.089844 0.011718 0.17578 0.019531 0.26562 0.011719 0.085938 0.023437 0.17578 0.039062 0.26172 0.019531 0.10938 0.039063 0.21484 0.066407 0.32422 0.019531 0.085937 0.046874 0.17187 0.070312 0.25 0.023438 0.082031 0.054688 0.16016 0.089844 0.24219 0.039062 0.10156 0.082031 0.20312 0.125 0.29688 0.039062 0.089844 0.085937 0.17578 0.13672 0.26172 0.019532 0.035156 0.03125 0.074219 0.050782 0.11719 0.03125 0.050782 0.066406 0.089844 0.097656 0.14062 0.046875 0.066407 0.085938 0.13281 0.13672 0.19531 0.011719 0.011718 0.015625 0.023437 0.023437 0.035156 0.023438 0.035156 0.050782 0.074219 0.074219 0.10938 0.097656 0.12109 0.19531 0.22656 0.29688 0.33203 0.03125 0.03125 0.050781 0.058594 0.082031 0.089844 0.039063 0.035156 0.082031 0.070312 0.11719 0.10547 0.054687 0.050781 0.10938 0.097656 0.17188 0.14453 0.089844 0.074219 0.17969 0.14453 0.27734 0.21094 0.058593 0.039062 0.12109 0.082031 0.17969 0.12109 0.019531 0.011719 0.039063 0.023438 0.058594 0.039063 0.035156 0.019531 0.070312 0.050781 0.10547 0.070312 0.13281 0.070313 0.26562 0.13672 0.39844 0.19141 0.039063 0.015626 0.070313 0.039063 0.10938 0.054688 0.058594 0.023438 0.12109 0.039062 0.17578 0.058594 0.035157 0.011718 0.066407 0.03125 0.10156 0.046875 6.3867 2.0859 12.34 3.1289 17.824 3.1289 7.1133 0 13.453-1.7539 18.941-5.2539 15.445-9.8438 18.027-29.789 18.129-30.637 0.011719-0.097656 0-0.1875 0.003906-0.27734 0.011719-0.16016 0.015625-0.31641 0.011719-0.48047-0.003906-0.14063-0.03125-0.27734-0.050781-0.41406-0.019531-0.14062-0.039063-0.28125-0.074219-0.42188s-0.082031-0.27734-0.13281-0.41406c-0.046876-0.13281-0.097657-0.26172-0.15234-0.38281-0.058594-0.125-0.13281-0.24609-0.20312-0.37109-0.070313-0.12109-0.14453-0.24219-0.23047-0.35938-0.082031-0.10938-0.17188-0.21094-0.26172-0.31641-0.097656-0.10938-0.19141-0.21484-0.30078-0.31641-0.10547-0.097656-0.21484-0.17969-0.33203-0.27344-0.10938-0.085937-0.22266-0.16797-0.34375-0.24219-0.13672-0.085938-0.27734-0.15234-0.42188-0.22266-0.085938-0.039062-0.16016-0.097656-0.24609-0.13281-0.78906-0.31641-19.52-7.6484-35.578 1.1602-10.094 5.5547-16.668 16.059-19.527 31.227zm48.406-25.277c-1.3242 5.3047-4.8477 15.27-13.406 20.727-5.1641 3.2891-11.527 4.4727-18.992 3.5586l18.238-10.797c2.0898-1.2383 2.7812-3.9336 1.543-6.0273-1.2383-2.0898-3.9336-2.7812-6.0273-1.543l-18.234 10.797c2.7773-6.9609 6.8555-11.965 12.203-14.914 8.8594-4.8906 19.363-3.1875 24.676-1.8008z"/>
  <path d="m541.61 430.09c-0.011719-0.097657-0.019531-0.19141-0.035156-0.28906-0.011719-0.050781-0.003907-0.10547-0.015625-0.15625-2.2461-11.934-7.457-20.219-15.488-24.625-12.723-6.9844-27.508-1.1953-28.133-0.94141-0.085938 0.035156-0.16016 0.085937-0.24609 0.125-0.14453 0.070312-0.29297 0.13672-0.42969 0.22266-0.12109 0.070313-0.22656 0.15625-0.33594 0.24219-0.11719 0.085938-0.23047 0.17578-0.33594 0.27344-0.10547 0.097656-0.19531 0.20312-0.29297 0.30859-0.097656 0.10547-0.1875 0.21094-0.27344 0.32812-0.082032 0.10547-0.14453 0.22266-0.21484 0.33594-0.082032 0.13281-0.15625 0.26172-0.22266 0.40234-0.050782 0.10547-0.089844 0.22266-0.13281 0.33203-0.058594 0.15625-0.10938 0.3125-0.15234 0.47266-0.023437 0.10937-0.039062 0.22266-0.058593 0.33203-0.03125 0.17188-0.050782 0.33594-0.058594 0.51562-0.003906 0.11719 0.003906 0.23047 0.003906 0.34766 0.003906 0.125-0.011719 0.25 0.011719 0.37891 0.082031 0.66406 2.1172 16.414 14.355 24.215 4.3828 2.793 9.418 4.1875 15.059 4.1875 4.3125 0 8.9844-0.81641 13.98-2.4492 0.03125-0.011719 0.054688-0.023437 0.085938-0.035156 0.066406-0.023437 0.13672-0.039063 0.19531-0.066406 0.03125-0.011719 0.054688-0.023438 0.085938-0.039063 0.14453-0.058594 0.29297-0.13281 0.43359-0.20703 0.023438-0.015625 0.046875-0.03125 0.070313-0.046875 0.035156-0.019531 0.066406-0.046875 0.10156-0.066406 0.054688-0.035156 0.10938-0.070313 0.16797-0.10547 0.10156-0.070313 0.20312-0.14453 0.29688-0.22656 0.050781-0.039062 0.10156-0.082031 0.14453-0.125 0.046875-0.039062 0.089844-0.074218 0.13281-0.11719 0.019531-0.019531 0.039062-0.046875 0.058594-0.066406 0.10937-0.11719 0.22266-0.23047 0.32422-0.35938 0.015625-0.019532 0.03125-0.046875 0.046875-0.070313 0.019531-0.023437 0.035157-0.054687 0.054688-0.082031 0.039062-0.058594 0.085937-0.11719 0.12109-0.17578 0.03125-0.050781 0.070313-0.097657 0.10156-0.14453 0.023437-0.039063 0.035156-0.085938 0.054687-0.125 0.046876-0.082032 0.089844-0.16797 0.13281-0.25 0.046875-0.097657 0.085937-0.19531 0.125-0.29688 0.03125-0.085937 0.066406-0.17187 0.089844-0.25 0.023437-0.082031 0.046875-0.16016 0.070312-0.24609 0.023438-0.10547 0.046875-0.21094 0.066407-0.32422 0.015624-0.089844 0.03125-0.17578 0.039062-0.26562 0.011719-0.085937 0.015625-0.17578 0.019531-0.26172 0.003907-0.10547 0.003907-0.21094 0.003907-0.31641 0.003906-0.10938-0.003907-0.19922-0.007813-0.28906zm-27.82-8.4023 11.117 6.5859c-4.0664 0.035157-7.6016-0.88281-10.574-2.7617-5.7539-3.6406-8.4336-10.207-9.5938-14.293 4.1406-0.94531 11.184-1.7578 17.145 1.5352 3.0781 1.7031 5.5859 4.3633 7.5078 7.9453l-11.117-6.5859c-2.0898-1.2344-4.793-0.54297-6.0273 1.543-1.2422 2.0938-0.54688 4.7891 1.543 6.0312z"/>
  <path d="m541.61 474.41c-0.011719-0.097656-0.019531-0.19141-0.035156-0.28906-0.011719-0.050782-0.003907-0.10547-0.015625-0.15625-2.2461-11.934-7.457-20.219-15.488-24.625-12.723-6.9844-27.508-1.1875-28.133-0.94141-0.085938 0.035156-0.16016 0.085937-0.24609 0.125-0.14453 0.070312-0.29297 0.13672-0.42969 0.22266-0.12109 0.070312-0.22656 0.15625-0.33594 0.24219-0.11719 0.085938-0.23047 0.17578-0.33594 0.27344-0.10547 0.097656-0.19531 0.20312-0.29297 0.30859-0.097656 0.10547-0.1875 0.21094-0.27344 0.32813-0.082032 0.10547-0.14453 0.22266-0.21484 0.33594-0.082032 0.13281-0.15625 0.26172-0.22266 0.40234-0.050782 0.10547-0.089844 0.22266-0.13281 0.33203-0.058594 0.15625-0.10938 0.3125-0.15234 0.47266-0.023437 0.10938-0.039062 0.22266-0.058593 0.33203-0.03125 0.17187-0.050782 0.33594-0.058594 0.51562-0.003906 0.11719 0.003906 0.23047 0.003906 0.34766 0.003906 0.125-0.011719 0.25 0.011719 0.37891 0.082031 0.66406 2.1172 16.414 14.355 24.215 4.3828 2.793 9.418 4.1875 15.059 4.1875 4.3125 0 8.9844-0.81641 13.98-2.4492 0.03125-0.011719 0.054688-0.023438 0.085938-0.035156 0.066406-0.023438 0.13672-0.039063 0.19531-0.066406 0.03125-0.011719 0.054688-0.023438 0.085938-0.039063 0.14453-0.058594 0.29297-0.13281 0.43359-0.20703 0.023438-0.015625 0.046875-0.03125 0.070313-0.046875 0.035156-0.019531 0.066406-0.046875 0.10156-0.066407 0.054688-0.035156 0.10938-0.070312 0.16797-0.10547 0.10156-0.070313 0.20312-0.14453 0.29688-0.22656 0.050781-0.039062 0.10156-0.082031 0.14453-0.125 0.046875-0.039062 0.089844-0.074219 0.13281-0.11719 0.019531-0.019532 0.039062-0.046875 0.058594-0.066406 0.10937-0.11719 0.22266-0.23047 0.32422-0.35938 0.015625-0.019531 0.03125-0.046874 0.046875-0.070312 0.019531-0.023438 0.035157-0.054688 0.054688-0.082031 0.039062-0.058594 0.085937-0.11719 0.12109-0.17578 0.03125-0.050782 0.070313-0.097657 0.10156-0.14453 0.023437-0.039062 0.035156-0.085937 0.054687-0.125 0.046876-0.082031 0.089844-0.16797 0.13281-0.25 0.046875-0.097656 0.085937-0.19531 0.125-0.29688 0.03125-0.085937 0.066406-0.17188 0.089844-0.25 0.023437-0.082031 0.046875-0.16016 0.070312-0.24609 0.023438-0.10547 0.046875-0.21094 0.066407-0.32422 0.015624-0.089844 0.03125-0.17578 0.039062-0.26562 0.011719-0.085938 0.015625-0.17578 0.019531-0.26172 0.003907-0.10547 0.003907-0.21094 0.003907-0.31641 0.003906-0.10547-0.003907-0.19922-0.007813-0.28906zm-27.82-8.4023 11.117 6.5859c-4.0664 0.035156-7.6016-0.88281-10.574-2.7617-5.7539-3.6406-8.4336-10.207-9.5938-14.293 4.1406-0.94531 11.184-1.7539 17.145 1.5352 3.0781 1.7031 5.5859 4.3633 7.5078 7.9453l-11.117-6.5859c-2.0898-1.2344-4.793-0.54297-6.0273 1.543-1.2422 2.0977-0.54688 4.793 1.543 6.0312z"/>
  <path d="m541.57 518.45c-0.011718-0.050781-0.003906-0.10547-0.015624-0.15625-2.2461-11.934-7.457-20.219-15.488-24.625-12.727-6.9844-27.508-1.1875-28.133-0.94141-0.085938 0.035156-0.16016 0.085938-0.24219 0.125-0.14453 0.070313-0.29297 0.14062-0.42969 0.22656-0.12109 0.070312-0.22656 0.15625-0.33594 0.23828-0.11719 0.085938-0.23047 0.17578-0.33594 0.27344-0.10547 0.10156-0.20312 0.20703-0.29688 0.3125-0.089844 0.10547-0.17969 0.20703-0.26172 0.31641-0.085938 0.11719-0.15625 0.23828-0.22656 0.35938-0.070313 0.12109-0.14063 0.24219-0.20313 0.37109-0.058593 0.125-0.10547 0.25-0.15234 0.38281-0.050781 0.13672-0.097657 0.27344-0.13281 0.41406-0.035156 0.14062-0.054687 0.28125-0.074218 0.42187-0.019532 0.13672-0.039063 0.27344-0.050782 0.41406-0.011718 0.15625 0 0.31641 0.011719 0.48047 0.003906 0.089844-0.003906 0.1875 0.003906 0.27734 0.082031 0.66406 2.1172 16.414 14.355 24.215 4.3789 2.793 9.418 4.1875 15.059 4.1875 4.3125 0 8.9844-0.81641 13.984-2.4492 0.03125-0.011718 0.054687-0.023437 0.085937-0.035156 0.066406-0.023437 0.13672-0.039062 0.19531-0.066406 0.03125-0.011719 0.054687-0.023438 0.085937-0.039062 0.14453-0.058594 0.29297-0.13281 0.43359-0.20703 0.023438-0.015625 0.046875-0.03125 0.070312-0.046875 0.035157-0.019531 0.066407-0.046875 0.10156-0.066406 0.054687-0.035156 0.10938-0.070313 0.16797-0.10547 0.10156-0.070312 0.20312-0.14453 0.29688-0.22656 0.050781-0.039063 0.10156-0.082032 0.14453-0.125 0.046875-0.039063 0.089844-0.074219 0.13281-0.11719 0.019532-0.019531 0.039063-0.046875 0.058594-0.066406 0.10938-0.11719 0.22266-0.23047 0.32422-0.35938 0.015625-0.019531 0.03125-0.046875 0.046875-0.070313 0.019531-0.023437 0.035156-0.054687 0.054688-0.082031 0.039062-0.058593 0.085937-0.11719 0.12109-0.17578 0.03125-0.050781 0.070313-0.097656 0.10156-0.14453 0.023437-0.039063 0.035156-0.085938 0.054687-0.125 0.046875-0.082031 0.089844-0.16797 0.125-0.25 0.046875-0.097657 0.085938-0.19531 0.125-0.29688 0.03125-0.085938 0.066407-0.17188 0.089844-0.25 0.023437-0.082032 0.046875-0.16016 0.070313-0.24609 0.023437-0.10547 0.046874-0.21094 0.066406-0.32422 0.015625-0.089843 0.03125-0.17578 0.039062-0.26562 0.011719-0.085937 0.015625-0.17578 0.019532-0.26172 0.003906-0.10547 0.003906-0.21094 0.003906-0.31641 0-0.089843-0.003906-0.17969-0.011719-0.27344-0.011719-0.10938-0.023437-0.20703-0.039063-0.30078zm-27.781-8.1133 11.117 6.5859c-4.0664 0.035156-7.6016-0.88281-10.574-2.7617-5.7539-3.6367-8.4297-10.195-9.5938-14.281 4.1367-0.9375 11.176-1.7422 17.094 1.5078 3.0977 1.7031 5.6211 4.3672 7.5508 7.9688l-11.117-6.5859c-2.0898-1.2344-4.793-0.54297-6.0273 1.543-1.2344 2.0898-0.53906 4.7852 1.5508 6.0234z"/>
  <path d="m602.4 407.52c-0.019532-0.14062-0.039063-0.28906-0.074219-0.42188-0.035156-0.14062-0.082031-0.27734-0.13281-0.40625-0.046874-0.13281-0.097656-0.26172-0.15234-0.38672-0.058594-0.13281-0.13281-0.24609-0.20312-0.36719-0.070313-0.12109-0.14453-0.24219-0.23047-0.35938-0.082031-0.10938-0.17188-0.21094-0.26172-0.31641-0.097656-0.10547-0.19141-0.21484-0.29688-0.31641-0.10547-0.097656-0.22266-0.1875-0.33594-0.27344-0.10938-0.082031-0.21484-0.16797-0.33594-0.24219-0.13672-0.085937-0.28125-0.15625-0.42969-0.22656-0.085938-0.039063-0.15625-0.089844-0.24219-0.125-0.625-0.25-15.41-6.0391-28.133 0.94141-8.0312 4.4102-13.246 12.691-15.488 24.625-0.011719 0.050781-0.003907 0.10547-0.015626 0.15625-0.015624 0.097656-0.03125 0.19141-0.035156 0.28906-0.011718 0.089843-0.011718 0.17969-0.011718 0.27344-0.003907 0.10547-0.003907 0.21094 0.003906 0.31641 0.003906 0.089844 0.011718 0.17578 0.019531 0.26172 0.011719 0.089844 0.023437 0.17578 0.039063 0.26562 0.019531 0.10547 0.039062 0.21094 0.066406 0.31641 0.019531 0.085938 0.046875 0.16797 0.070312 0.24609 0.023438 0.085937 0.058594 0.17188 0.089844 0.25 0.039062 0.10156 0.074219 0.19531 0.12109 0.29297 0.039062 0.085937 0.085937 0.17188 0.13281 0.25 0.019532 0.039062 0.035156 0.082031 0.054688 0.12109 0.03125 0.050781 0.070312 0.097656 0.10156 0.14453 0.039063 0.058593 0.082032 0.12109 0.125 0.17969 0.015625 0.019532 0.03125 0.046875 0.046875 0.066406 0.019531 0.023438 0.035157 0.054688 0.054688 0.082032 0.10156 0.125 0.20703 0.24219 0.31641 0.35156 0.023437 0.023438 0.046875 0.050782 0.066406 0.074219 0.039063 0.039063 0.085938 0.074219 0.125 0.11719 0.050781 0.046876 0.10156 0.085938 0.15234 0.13281 0.097656 0.082031 0.19141 0.15625 0.29297 0.22656 0.054687 0.039062 0.10938 0.070312 0.17188 0.10937 0.03125 0.019532 0.058593 0.039063 0.089843 0.058594 0.023438 0.015625 0.050782 0.035156 0.074219 0.050782 0.13672 0.082031 0.28125 0.14453 0.42969 0.20703 0.03125 0.011719 0.054687 0.03125 0.085937 0.039062 0.066406 0.023438 0.13281 0.046875 0.19531 0.066407 0.03125 0.011718 0.054687 0.03125 0.085937 0.039062 5.0039 1.6328 9.668 2.4492 13.98 2.4492 5.6445 0 10.68-1.3945 15.059-4.1875 12.238-7.8008 14.273-23.547 14.355-24.215 0.011718-0.097656 0-0.1875 0.003906-0.27734 0.011718-0.16016 0.015625-0.31641 0.011718-0.48047 0-0.125-0.019531-0.26172-0.042968-0.39844zm-19.047 17.961c-2.9844 1.8984-6.5352 2.8281-10.621 2.793l11.117-6.5859c2.0898-1.2383 2.7812-3.9336 1.543-6.0273-1.2383-2.0898-3.9336-2.7812-6.0273-1.543l-11.117 6.5859c1.918-3.582 4.4297-6.2422 7.5078-7.9453 5.9609-3.293 13-2.4883 17.133-1.543-1.1641 4.0781-3.8438 10.637-9.5352 14.266z"/>
  <path d="m412.66 491.62c-0.011718-0.097657-0.019531-0.19141-0.035156-0.28906-0.011719-0.050781-0.003906-0.10547-0.015625-0.15625-2.2461-11.934-7.457-20.219-15.488-24.625-12.723-6.9844-27.512-1.1953-28.133-0.94141-0.085937 0.035156-0.16016 0.085937-0.24219 0.125-0.14453 0.070312-0.29297 0.14062-0.42969 0.22656-0.12109 0.070313-0.22656 0.15625-0.33594 0.23828-0.11719 0.085938-0.23047 0.17578-0.33594 0.27344s-0.20312 0.20703-0.29688 0.3125c-0.089844 0.10547-0.17969 0.20703-0.26172 0.31641-0.085938 0.11719-0.15625 0.23828-0.22656 0.35938-0.070313 0.12109-0.14062 0.24219-0.20312 0.37109-0.058594 0.125-0.10547 0.25-0.15234 0.38281-0.050781 0.13672-0.097656 0.27344-0.13281 0.41406s-0.054688 0.28125-0.074219 0.42188c-0.019531 0.13672-0.039063 0.27344-0.050781 0.41406-0.011719 0.16016 0 0.31641 0.011718 0.48047 0.003907 0.097656-0.003906 0.17969 0.003907 0.27734 0.082031 0.66406 2.1172 16.414 14.355 24.215 4.3789 2.793 9.418 4.1875 15.059 4.1875 4.3125 0 8.9844-0.81641 13.984-2.4492 0.03125-0.011719 0.058594-0.03125 0.089844-0.039063 0.058594-0.019531 0.125-0.039062 0.1875-0.058593 0.035156-0.015625 0.070312-0.035157 0.10547-0.050781 0.13672-0.058594 0.27734-0.12109 0.40625-0.19531 0.03125-0.019531 0.058593-0.039063 0.097656-0.058594 0.023437-0.015625 0.050781-0.03125 0.074219-0.046875 0.058594-0.039062 0.12109-0.074218 0.17969-0.11719 0.097657-0.066407 0.19141-0.14062 0.28125-0.21484 0.054688-0.046875 0.10938-0.089844 0.16016-0.13672 0.039062-0.035156 0.082031-0.070312 0.12109-0.10547 0.03125-0.023438 0.050781-0.058594 0.082031-0.085938 0.10547-0.10547 0.20703-0.21484 0.30078-0.33594 0.023437-0.03125 0.046875-0.066406 0.070312-0.10156 0.011719-0.015625 0.019532-0.03125 0.03125-0.046875 0.046875-0.066406 0.089844-0.125 0.13281-0.19141 0.03125-0.050781 0.066406-0.089844 0.097656-0.14062 0.019531-0.039063 0.03125-0.082032 0.054687-0.11719 0.046876-0.085937 0.089844-0.17188 0.13672-0.25781 0.046875-0.097656 0.085938-0.19531 0.125-0.29688 0.03125-0.082031 0.066407-0.16016 0.089844-0.24609 0.023437-0.082031 0.050781-0.16797 0.070313-0.25 0.023437-0.10547 0.046874-0.21094 0.066406-0.32422 0.015625-0.085937 0.03125-0.17578 0.039062-0.26172 0.011719-0.085938 0.015625-0.17578 0.019532-0.26563 0.003906-0.10547 0.003906-0.21094 0.003906-0.31641-0.015625-0.11328-0.019532-0.20312-0.023438-0.29297zm-27.82-8.4062 11.117 6.5859c-4.0664 0.035156-7.6016-0.88281-10.574-2.7617-5.7539-3.6367-8.4297-10.195-9.5938-14.281 4.1367-0.9375 11.176-1.7422 17.094 1.5078 3.0977 1.7031 5.6211 4.3672 7.5508 7.9688l-11.117-6.5859c-2.0898-1.2344-4.793-0.54297-6.0273 1.5469-1.2305 2.0859-0.53906 4.7852 1.5508 6.0195z"/>
  <path d="m473.45 469.05c-0.019531-0.14453-0.039063-0.28906-0.082031-0.42969-0.035156-0.13672-0.082032-0.26562-0.125-0.39844-0.050782-0.13672-0.097656-0.27344-0.15625-0.39844-0.054688-0.12109-0.12109-0.23047-0.1875-0.34375-0.082032-0.13672-0.15625-0.26562-0.25-0.39453-0.070313-0.097657-0.14453-0.17969-0.22656-0.27344-0.10938-0.125-0.22266-0.25-0.34766-0.36328-0.082031-0.074219-0.17188-0.14062-0.26172-0.21094-0.13672-0.10547-0.27344-0.20703-0.42188-0.30078-0.10156-0.058594-0.20703-0.10938-0.30859-0.16016-0.10938-0.054688-0.21484-0.125-0.33203-0.17578-0.625-0.25-15.41-6.0391-28.133 0.94141-8.0312 4.4102-13.246 12.691-15.488 24.625-0.011718 0.050781-0.003906 0.10547-0.015624 0.15625-0.015626 0.097656-0.03125 0.19141-0.035157 0.28906-0.011719 0.089844-0.011719 0.17969-0.011719 0.27344-0.003906 0.10547-0.003906 0.21094 0.003907 0.31641 0.003906 0.089844 0.011719 0.17578 0.019531 0.26562 0.011719 0.089844 0.023438 0.17578 0.039062 0.26172 0.019532 0.10938 0.039063 0.21484 0.066407 0.32422 0.019531 0.085937 0.046875 0.16797 0.070312 0.25 0.023438 0.082031 0.058594 0.16797 0.089844 0.24609 0.039063 0.10156 0.082031 0.20312 0.125 0.29688 0.039063 0.085938 0.085937 0.17188 0.13672 0.25781 0.019531 0.039062 0.03125 0.082031 0.054687 0.11719 0.03125 0.050782 0.066407 0.089844 0.097657 0.14062 0.046874 0.066407 0.085937 0.13281 0.13281 0.19141 0.011719 0.015624 0.019531 0.03125 0.03125 0.046874 0.023438 0.03125 0.046875 0.066407 0.070312 0.10156 0.097657 0.12109 0.19531 0.23047 0.30078 0.33594 0.023437 0.03125 0.050781 0.058594 0.082031 0.085938 0.039063 0.039062 0.082031 0.070312 0.12109 0.10547 0.050781 0.050781 0.10547 0.089843 0.16016 0.13672 0.089844 0.074218 0.1875 0.15234 0.28125 0.21484 0.058594 0.039063 0.12109 0.082031 0.17969 0.11719 0.023438 0.015625 0.050782 0.03125 0.074219 0.046875 0.03125 0.019531 0.058594 0.039062 0.097657 0.058594 0.13281 0.074218 0.27344 0.13672 0.40625 0.19531 0.035156 0.015625 0.070312 0.035156 0.10547 0.050781 0.058594 0.023438 0.125 0.039063 0.1875 0.058594 0.03125 0.011719 0.058594 0.03125 0.089844 0.039063 5.0039 1.6328 9.668 2.4492 13.984 2.4492 5.6445 0 10.68-1.3945 15.059-4.1875 12.238-7.8008 14.273-23.547 14.355-24.215 0.011718-0.097656 0-0.1875 0.003906-0.27734 0.011718-0.16016 0.019531-0.31641 0.011718-0.48047-0.011718-0.12109-0.035156-0.25-0.054687-0.38672zm-19.094 17.984c-2.9727 1.8828-6.5078 2.8008-10.574 2.7617l11.117-6.5859c2.0898-1.2383 2.7812-3.9336 1.5469-6.0273-1.2383-2.0898-3.9414-2.7812-6.0273-1.5469l-11.117 6.5859c1.918-3.582 4.4297-6.2422 7.5078-7.9453 5.9648-3.293 13.008-2.4844 17.145-1.543-1.1641 4.0938-3.8398 10.66-9.5977 14.301z"/>
  <path d="m412.62 534.05c-0.011719-0.050781-0.003906-0.10547-0.015625-0.15625-2.2461-11.934-7.457-20.219-15.488-24.625-12.723-6.9844-27.512-1.1953-28.133-0.94141-0.085937 0.035156-0.16016 0.085937-0.24219 0.125-0.14453 0.070312-0.29297 0.14062-0.42969 0.22656-0.12109 0.070313-0.22656 0.15625-0.33594 0.23828-0.11719 0.085938-0.23047 0.17578-0.33594 0.27344s-0.20312 0.20703-0.29688 0.3125c-0.089844 0.10547-0.17969 0.20703-0.26172 0.31641-0.085938 0.11719-0.15625 0.23828-0.22656 0.35938-0.070313 0.12109-0.14062 0.24219-0.20312 0.37109-0.058594 0.125-0.10547 0.25-0.15234 0.38281-0.050781 0.13672-0.097656 0.27344-0.13281 0.41406s-0.054688 0.28125-0.074219 0.42188c-0.019531 0.13672-0.039063 0.27344-0.050781 0.41406-0.011719 0.16016 0 0.31641 0.011718 0.48047 0.003907 0.097656-0.003906 0.1875 0.003907 0.27734 0.082031 0.66406 2.1172 16.414 14.355 24.215 4.3789 2.793 9.418 4.1875 15.059 4.1875 4.3125 0 8.9844-0.81641 13.984-2.4492 0.03125-0.011719 0.058594-0.03125 0.089844-0.039063 0.058594-0.019531 0.125-0.039062 0.1875-0.058593 0.035156-0.015625 0.070312-0.035157 0.10547-0.050781 0.13672-0.058594 0.27734-0.12109 0.40625-0.19531 0.03125-0.019531 0.058593-0.039063 0.097656-0.058594 0.023437-0.015625 0.050781-0.03125 0.074219-0.046875 0.058594-0.039062 0.12109-0.074218 0.17969-0.11719 0.097657-0.066407 0.19141-0.14062 0.28125-0.21484 0.054688-0.046875 0.10938-0.089844 0.16016-0.13672 0.039062-0.035156 0.082031-0.070312 0.12109-0.10547 0.03125-0.023438 0.050781-0.058594 0.082031-0.085938 0.10547-0.10547 0.20703-0.21484 0.30078-0.33594 0.023437-0.03125 0.046875-0.066406 0.070312-0.10156 0.011719-0.015625 0.019532-0.03125 0.03125-0.046875 0.046875-0.066406 0.089844-0.125 0.13281-0.19141 0.03125-0.050781 0.066406-0.089844 0.097656-0.14062 0.019531-0.039063 0.03125-0.082032 0.054687-0.11719 0.046876-0.085937 0.089844-0.17188 0.13672-0.25781 0.046875-0.097656 0.085938-0.19531 0.125-0.29688 0.03125-0.082031 0.066407-0.16016 0.089844-0.24609 0.023437-0.082031 0.050781-0.16797 0.070313-0.25 0.023437-0.10547 0.046874-0.21094 0.066406-0.32422 0.015625-0.085937 0.03125-0.17578 0.039062-0.26172 0.011719-0.085938 0.015625-0.17578 0.019532-0.26563 0.003906-0.10547 0.003906-0.21094 0.003906-0.31641 0-0.089844-0.003906-0.17969-0.011719-0.27344-0.023437-0.11719-0.039063-0.21094-0.046875-0.30859zm-27.785-8.1094 11.117 6.5859c-4.0664 0.035156-7.6016-0.88281-10.574-2.7617-5.7539-3.6367-8.4297-10.195-9.5938-14.281 4.1367-0.9375 11.176-1.7422 17.094 1.5078 3.0977 1.7031 5.6211 4.3672 7.5508 7.9688l-11.117-6.5859c-2.0898-1.2344-4.793-0.54297-6.0273 1.5469-1.2305 2.0781-0.53906 4.7773 1.5508 6.0195z"/>
  <path d="m473.38 511.34c-0.035156-0.13672-0.082031-0.26562-0.125-0.39844-0.050781-0.13672-0.097656-0.27344-0.15625-0.39844-0.054687-0.12109-0.12109-0.23047-0.1875-0.34375-0.082031-0.13672-0.15625-0.26562-0.25-0.39453-0.070312-0.097657-0.14453-0.17969-0.22656-0.27344-0.10938-0.125-0.22266-0.25-0.34766-0.36328-0.082032-0.074219-0.17188-0.14062-0.26172-0.21094-0.13672-0.10547-0.27344-0.20703-0.42188-0.30078-0.10156-0.058594-0.20703-0.10938-0.30859-0.16016-0.10938-0.054688-0.21484-0.125-0.33203-0.17578-0.625-0.25-15.41-6.0391-28.133 0.94141-8.0312 4.4102-13.246 12.691-15.488 24.625-0.011719 0.050781-0.003906 0.10547-0.015625 0.15625-0.015625 0.097656-0.03125 0.19141-0.035156 0.28906-0.011719 0.089844-0.011719 0.17969-0.011719 0.27344-0.003906 0.10547-0.003906 0.21094 0.003906 0.31641 0.003907 0.089844 0.011719 0.17578 0.019531 0.26562 0.011719 0.089844 0.023438 0.17578 0.039063 0.26172 0.019531 0.10938 0.039063 0.21484 0.066406 0.32422 0.019531 0.085937 0.046875 0.16797 0.070313 0.25 0.023437 0.082031 0.058594 0.16797 0.089844 0.24609 0.039062 0.10156 0.082031 0.20312 0.125 0.29688 0.039062 0.085938 0.085937 0.17188 0.13672 0.25781 0.019532 0.039062 0.03125 0.082031 0.054688 0.11719 0.03125 0.050782 0.066406 0.089844 0.097656 0.14062 0.046875 0.066407 0.085938 0.13281 0.13281 0.19141 0.011719 0.015624 0.019532 0.03125 0.03125 0.046874 0.023438 0.03125 0.046876 0.066407 0.070313 0.10156 0.097656 0.12109 0.19531 0.23047 0.30078 0.33594 0.023438 0.03125 0.050782 0.058594 0.082032 0.085938 0.039062 0.039062 0.082031 0.070312 0.12109 0.10547 0.050781 0.050781 0.10547 0.089843 0.16016 0.13672 0.089843 0.074218 0.1875 0.15234 0.28125 0.21484 0.058593 0.039063 0.12109 0.082031 0.17969 0.11719 0.023437 0.015625 0.050781 0.03125 0.074219 0.046875 0.03125 0.019531 0.058594 0.039062 0.089844 0.058594 0.13281 0.074218 0.27344 0.13672 0.40625 0.19531 0.035156 0.015625 0.070312 0.035156 0.10547 0.050781 0.058594 0.023438 0.125 0.039063 0.1875 0.058594 0.03125 0.011719 0.058594 0.03125 0.089844 0.039063 5.0039 1.6328 9.668 2.4492 13.984 2.4492 5.6445 0 10.68-1.3945 15.059-4.1875 12.238-7.8008 14.273-23.547 14.355-24.215 0.011718-0.097656 0-0.1875 0.003906-0.27734 0.011718-0.16016 0.015625-0.31641 0.011718-0.48047-0.003906-0.14062-0.023437-0.27344-0.046874-0.40625-0.027344-0.12891-0.046876-0.26953-0.082032-0.41016zm-19.02 18.414c-2.9727 1.8828-6.5078 2.8008-10.574 2.7617l11.117-6.5859c2.0898-1.2383 2.7812-3.9336 1.5469-6.0273-1.2383-2.0898-3.9414-2.7812-6.0273-1.5469l-11.117 6.5859c1.918-3.582 4.4297-6.2422 7.5078-7.9453 5.9648-3.293 13.008-2.4844 17.145-1.543-1.1641 4.0938-3.8398 10.66-9.5977 14.301z"/>
  <path d="m286.58 553.85c-2.2461-11.934-7.457-20.219-15.488-24.625-12.723-6.9844-27.512-1.1953-28.133-0.94141-0.085938 0.035156-0.16016 0.085938-0.24219 0.125-0.14453 0.070312-0.29297 0.14062-0.42969 0.22656-0.12109 0.070313-0.22656 0.15625-0.33594 0.23828-0.11719 0.085937-0.23047 0.17578-0.33594 0.27344-0.10547 0.097657-0.20313 0.20703-0.29688 0.3125-0.089843 0.10547-0.17969 0.20703-0.26172 0.31641-0.085938 0.11719-0.15625 0.23828-0.22656 0.35937-0.070312 0.12109-0.14062 0.24219-0.20312 0.37109-0.058594 0.125-0.10547 0.25-0.15234 0.38281-0.050781 0.13672-0.097656 0.27344-0.13281 0.41406s-0.054688 0.28125-0.074219 0.42188c-0.019531 0.13672-0.039062 0.27344-0.050781 0.41406-0.011719 0.16016 0 0.31641 0.011719 0.48047 0.003906 0.097656-0.003907 0.17969 0.003906 0.27734 0.082031 0.66406 2.1172 16.414 14.355 24.215 4.3789 2.793 9.418 4.1875 15.059 4.1875 4.3125 0 8.9844-0.81641 13.98-2.4492 0.03125-0.011718 0.054688-0.023437 0.085938-0.035156 0.066406-0.023438 0.13672-0.039062 0.20312-0.066406 0.03125-0.011719 0.054687-0.023438 0.082031-0.039063 0.14453-0.058593 0.29297-0.13281 0.43359-0.20703 0.023437-0.015625 0.046875-0.03125 0.070312-0.046875 0.035156-0.019531 0.066406-0.046875 0.10156-0.066406 0.054687-0.035157 0.10938-0.070313 0.16797-0.10547 0.10156-0.070312 0.20312-0.14453 0.29687-0.22656 0.050782-0.039063 0.10156-0.082032 0.15234-0.125 0.046875-0.039063 0.089844-0.074219 0.13281-0.11719 0.019531-0.019531 0.039062-0.046875 0.058593-0.066406 0.10938-0.11719 0.22266-0.23047 0.31641-0.35938 0.019531-0.023438 0.035156-0.054688 0.054687-0.082031 0.015625-0.023438 0.03125-0.046876 0.050782-0.070313 0.039062-0.058594 0.085937-0.11719 0.12109-0.17578 0.03125-0.050782 0.070313-0.097656 0.10156-0.14453 0.023437-0.039062 0.035156-0.082031 0.054687-0.12109 0.046875-0.085938 0.089844-0.17188 0.13281-0.25781 0.046875-0.097656 0.085937-0.19141 0.12109-0.28906 0.03125-0.085938 0.066406-0.17188 0.089843-0.25781 0.023438-0.082031 0.050781-0.16797 0.070313-0.25 0.023437-0.10547 0.046875-0.20703 0.066406-0.3125 0.015625-0.089843 0.035156-0.17969 0.046875-0.27344 0.011719-0.089844 0.015625-0.17578 0.019531-0.26562 0.003906-0.10156 0.003906-0.20703 0.003906-0.30859 0-0.089844-0.003906-0.1875-0.011718-0.27734-0.011719-0.097656-0.023438-0.19141-0.039063-0.29297-0.027343-0.058593-0.023437-0.10937-0.03125-0.16016zm-27.77-7.9609 11.117 6.5859c-4.0664 0.035156-7.6016-0.88281-10.574-2.7617-5.7539-3.6367-8.4297-10.195-9.5938-14.281 4.1367-0.9375 11.176-1.7422 17.094 1.5078 3.0977 1.7031 5.6211 4.3672 7.5508 7.9688l-11.117-6.5859c-2.0898-1.2344-4.793-0.54297-6.0273 1.543-1.2305 2.0898-0.54297 4.7891 1.5508 6.0234z"/>
  <path d="m347.22 530.89c-0.046875-0.13281-0.097656-0.26172-0.15234-0.38281-0.058594-0.13281-0.13281-0.24609-0.20312-0.37109-0.070312-0.12109-0.14453-0.24219-0.23047-0.35937-0.082031-0.10938-0.17187-0.21094-0.26172-0.31641-0.097656-0.10547-0.19141-0.21484-0.29688-0.3125-0.10547-0.097656-0.22266-0.1875-0.33203-0.27344-0.10938-0.085938-0.21484-0.16797-0.33594-0.23828-0.13672-0.085937-0.28125-0.15625-0.42969-0.22266-0.085937-0.039062-0.15625-0.089844-0.24219-0.125-0.625-0.25-15.41-6.0391-28.133 0.94141-8.0312 4.4102-13.246 12.691-15.488 24.625-0.011719 0.050782-0.003906 0.10156-0.015625 0.15625-0.015625 0.097657-0.03125 0.19141-0.039062 0.29297-0.011719 0.089844-0.011719 0.17969-0.011719 0.27734-0.003906 0.10547-0.003906 0.20703 0.003906 0.30859 0.003907 0.089843 0.011719 0.17578 0.019531 0.26562 0.011719 0.089844 0.023438 0.17969 0.046876 0.27344 0.019531 0.10547 0.039062 0.21094 0.066406 0.3125 0.019531 0.085938 0.046875 0.16797 0.070312 0.25 0.023438 0.085938 0.058594 0.17188 0.089844 0.25 0.039062 0.10156 0.074219 0.19531 0.12109 0.29297 0.039062 0.085938 0.085937 0.17188 0.13281 0.25781 0.019532 0.039063 0.03125 0.082032 0.054688 0.12109 0.03125 0.050782 0.070312 0.097656 0.10156 0.14453 0.039063 0.058593 0.082032 0.12109 0.12109 0.17578 0.015625 0.023437 0.03125 0.050781 0.050781 0.070312 0.019531 0.023438 0.035157 0.054688 0.054688 0.082031 0.10156 0.125 0.21094 0.24609 0.32422 0.35938 0.019531 0.019531 0.039062 0.046874 0.058593 0.066406 0.039063 0.039062 0.085938 0.074218 0.13281 0.11719 0.050781 0.046875 0.10156 0.085938 0.15234 0.125 0.097656 0.082031 0.19531 0.15625 0.29687 0.22656 0.054688 0.035156 0.10547 0.070312 0.16016 0.10547 0.035156 0.019532 0.066406 0.046876 0.10156 0.066407 0.023438 0.015625 0.046875 0.03125 0.070313 0.046875 0.14062 0.082031 0.28906 0.14453 0.43359 0.21094 0.023437 0.011719 0.050781 0.023438 0.082031 0.039063 0.066406 0.023437 0.13672 0.046875 0.20312 0.066406 0.03125 0.011719 0.054687 0.023438 0.085937 0.035156 5.0039 1.6328 9.668 2.4492 13.98 2.4492 5.6445 0 10.68-1.3945 15.059-4.1875 12.238-7.8008 14.273-23.547 14.355-24.215 0.011719-0.089843 0-0.17969 0.003907-0.27734 0.011719-0.16016 0.019531-0.32422 0.011719-0.48047-0.003907-0.14062-0.023438-0.27344-0.046876-0.40625-0.019531-0.14062-0.039062-0.28906-0.082031-0.42969-0.046875-0.14453-0.097656-0.27734-0.14453-0.41406zm-18.844 18.797c-2.9844 1.8984-6.5352 2.8281-10.621 2.793l11.117-6.5859c2.0898-1.2383 2.7812-3.9336 1.543-6.0273-1.2383-2.0898-3.9336-2.7812-6.0273-1.543l-11.117 6.5859c1.918-3.582 4.4297-6.2422 7.5078-7.9453 5.9609-3.293 13-2.4844 17.133-1.543-1.1602 4.0742-3.8359 10.637-9.5352 14.266z"/>
  <path d="m602.4 451.84c-0.019532-0.14062-0.039063-0.28906-0.074219-0.42188-0.035156-0.14062-0.082031-0.27734-0.13281-0.40625-0.046874-0.13281-0.097656-0.26172-0.15234-0.38672-0.058594-0.125-0.13281-0.24609-0.20312-0.36719-0.070313-0.12109-0.14453-0.24219-0.23047-0.35937-0.082031-0.10938-0.17188-0.21094-0.26172-0.31641-0.097656-0.10547-0.19141-0.21484-0.29688-0.31641-0.10547-0.097656-0.22266-0.1875-0.33594-0.27344-0.10938-0.082032-0.21484-0.16797-0.33594-0.23828-0.13672-0.085937-0.28125-0.15625-0.42969-0.22656-0.085938-0.039063-0.15625-0.089844-0.24219-0.125-0.625-0.25-15.41-6.0391-28.133 0.94141-8.0312 4.4102-13.246 12.691-15.488 24.625-0.011719 0.050781-0.003907 0.10547-0.015626 0.15625-0.015624 0.097656-0.03125 0.19141-0.035156 0.28906-0.011718 0.089844-0.011718 0.17969-0.011718 0.27344-0.003907 0.10547-0.003907 0.21094 0.003906 0.31641 0.003906 0.089844 0.011718 0.17578 0.019531 0.26172 0.011719 0.089844 0.023437 0.17578 0.039063 0.26562 0.019531 0.10547 0.039062 0.21094 0.066406 0.31641 0.019531 0.085938 0.046875 0.16797 0.070312 0.24609 0.023438 0.085938 0.058594 0.17188 0.089844 0.25 0.039062 0.10156 0.074219 0.19531 0.12109 0.29297 0.039062 0.085937 0.085937 0.17188 0.13281 0.25 0.019532 0.039062 0.035156 0.082031 0.054688 0.12109 0.03125 0.050782 0.070312 0.097657 0.10156 0.14453 0.039063 0.058594 0.082032 0.12109 0.125 0.17969 0.015625 0.019531 0.03125 0.046875 0.046875 0.066407 0.019531 0.023437 0.035157 0.054687 0.054688 0.082031 0.10156 0.125 0.20703 0.24219 0.31641 0.35156 0.023437 0.023438 0.046875 0.050781 0.066406 0.074219 0.039063 0.039062 0.085938 0.074219 0.125 0.11719 0.050781 0.046874 0.10156 0.085937 0.15234 0.13281 0.097656 0.082031 0.19141 0.15625 0.29297 0.22656 0.054687 0.039063 0.10938 0.070313 0.17188 0.10938 0.03125 0.019531 0.058593 0.039062 0.089843 0.058593 0.023438 0.015625 0.050782 0.035157 0.074219 0.050781 0.13672 0.082032 0.28125 0.14453 0.42969 0.20703 0.03125 0.011718 0.054687 0.03125 0.085937 0.039062 0.066406 0.023438 0.13281 0.046875 0.19531 0.066406 0.03125 0.011719 0.054687 0.03125 0.085937 0.039063 5.0039 1.6328 9.668 2.4492 13.98 2.4492 5.6445 0 10.68-1.3945 15.059-4.1875 12.238-7.8008 14.273-23.547 14.355-24.215 0.011718-0.097656 0-0.1875 0.003906-0.27734 0.011718-0.16016 0.015625-0.31641 0.011718-0.48047 0-0.12891-0.019531-0.26563-0.042968-0.40234zm-19.047 17.961c-2.9844 1.8984-6.5352 2.8281-10.621 2.793l11.117-6.5859c2.0898-1.2383 2.7812-3.9336 1.543-6.0273-1.2383-2.0898-3.9336-2.7812-6.0273-1.543l-11.117 6.5859c1.918-3.582 4.4297-6.2422 7.5078-7.9453 5.9609-3.293 13-2.4844 17.133-1.543-1.1641 4.0781-3.8438 10.641-9.5352 14.266z"/>
  <path d="m602.33 495.74c-0.035156-0.14063-0.082031-0.27734-0.13281-0.41406-0.046874-0.13281-0.089843-0.25781-0.15234-0.38281-0.058594-0.13281-0.13281-0.25-0.20312-0.37109-0.070313-0.12109-0.14453-0.24219-0.22656-0.35938-0.082031-0.10938-0.17188-0.21484-0.26172-0.31641-0.097656-0.10547-0.19141-0.21484-0.29687-0.3125-0.10547-0.10156-0.22266-0.1875-0.33594-0.27344-0.10938-0.082031-0.21484-0.16797-0.33594-0.23828-0.13672-0.085938-0.28125-0.15625-0.42969-0.22656-0.085937-0.039062-0.15625-0.089844-0.24219-0.125-0.625-0.25-15.41-6.0391-28.133 0.94141-8.0312 4.4102-13.246 12.691-15.488 24.625-0.011719 0.050782-0.003906 0.10547-0.015625 0.15625-0.015625 0.097657-0.03125 0.19141-0.035157 0.28906-0.011718 0.089844-0.011718 0.17969-0.011718 0.27344-0.003906 0.10547-0.003906 0.21094 0.003906 0.31641 0.003906 0.089843 0.011719 0.17578 0.019531 0.26172 0.011719 0.089843 0.023438 0.17578 0.039063 0.26562 0.019531 0.10547 0.039062 0.21094 0.066406 0.31641 0.019531 0.085937 0.046875 0.16797 0.070312 0.24609 0.023438 0.085938 0.058594 0.17188 0.089844 0.25 0.039063 0.10156 0.074219 0.19531 0.12109 0.29297 0.039062 0.085938 0.085938 0.17188 0.13281 0.25 0.019532 0.039063 0.035157 0.082031 0.054688 0.12109 0.03125 0.050781 0.070312 0.097656 0.10156 0.14453 0.039063 0.058594 0.082032 0.12109 0.125 0.17969 0.015626 0.019531 0.03125 0.046875 0.046876 0.066406 0.019531 0.023438 0.035156 0.054688 0.054687 0.082031 0.10156 0.125 0.20703 0.24219 0.31641 0.35156 0.023438 0.023437 0.046875 0.050781 0.066407 0.074218 0.039062 0.039063 0.085937 0.074219 0.125 0.11719 0.050781 0.046875 0.10156 0.085938 0.15234 0.13281 0.097657 0.082032 0.19141 0.15625 0.29297 0.22656 0.054688 0.039063 0.10938 0.070313 0.17188 0.10938 0.03125 0.019531 0.058594 0.039062 0.089844 0.058594 0.023437 0.015625 0.050781 0.035156 0.074219 0.050781 0.13672 0.082031 0.28125 0.14453 0.42969 0.20703 0.03125 0.011719 0.054687 0.03125 0.085937 0.039063 0.066407 0.023437 0.13281 0.046875 0.19531 0.066406 0.03125 0.011719 0.054687 0.03125 0.085937 0.039063 5.0039 1.6328 9.668 2.4492 13.98 2.4492 5.6445 0 10.68-1.3945 15.059-4.1875 12.238-7.8008 14.273-23.547 14.355-24.215 0.011718-0.097656 0-0.1875 0.003906-0.27734 0.011719-0.16016 0.019531-0.31641 0.011719-0.48047-0.003907-0.14062-0.03125-0.27734-0.050781-0.41406-0.015626-0.12891-0.039063-0.26953-0.070313-0.40625zm-18.973 18.383c-2.9844 1.8984-6.5352 2.8281-10.621 2.793l11.117-6.5859c2.0898-1.2383 2.7812-3.9336 1.543-6.0273-1.2383-2.0898-3.9336-2.7812-6.0273-1.543l-11.117 6.5859c1.918-3.582 4.4297-6.2422 7.5078-7.9453 5.9609-3.2891 13-2.4844 17.133-1.543-1.1641 4.082-3.8438 10.641-9.5352 14.266z"/>
  <path d="m546.27 302.22h5.2109c2.5547 0 4.6289 2.0742 4.6289 4.6367 0 2.5547-2.0742 4.6289-4.6289 4.6289h-14.242c-2.4297 0-4.3984 1.9688-4.3984 4.3984 0 2.4297 1.9688 4.3984 4.3984 4.3984h7.2344v5.75c0 2.4297 1.9688 4.3984 4.3984 4.3984 2.4297 0 4.3984-1.9688 4.3984-4.3984v-5.8828c6.5586-0.88281 11.633-6.5 11.633-13.297 0-7.4062-6.0273-13.43-13.426-13.43h-5.2109c-2.5547 0-4.6367-2.0742-4.6367-4.6289s2.0742-4.6367 4.6367-4.6367h14.238c2.4297 0 4.3984-1.9688 4.3984-4.3984 0-2.4297-1.9688-4.3984-4.3984-4.3984h-7.2344v-5.7422c0-2.4297-1.9688-4.3984-4.3984-4.3984-2.4297 0-4.3984 1.9688-4.3984 4.3984v5.8789c-6.5586 0.88281-11.637 6.5-11.637 13.297 0 7.4062 6.0273 13.426 13.434 13.426z"/>
  <path d="m548.88 340.59c23.578 0 42.758-19.18 42.758-42.758s-19.18-42.758-42.758-42.758-42.758 19.18-42.758 42.758c0 23.57 19.18 42.758 42.758 42.758zm0-76.719c18.727 0 33.961 15.234 33.961 33.961 0 18.727-15.234 33.961-33.961 33.961s-33.961-15.234-33.961-33.961c0-18.727 15.234-33.961 33.961-33.961z"/>
  <path d="m415.47 410.05v162.42c0 2.4297 1.9688 4.3984 4.3984 4.3984 2.4297 0 4.3984-1.9688 4.3984-4.3984v-162.42c0-2.4297-1.9688-4.3984-4.3984-4.3984-2.4258-0.003906-4.3984 1.9648-4.3984 4.3984z"/>
  <path d="m355.06 417.2c0.10156 0.84766 2.6797 20.793 18.129 30.637 5.4922 3.5 11.828 5.2539 18.941 5.2539 5.4883 0 11.441-1.043 17.824-3.1289 0.03125-0.011719 0.058594-0.03125 0.089844-0.039063 0.066406-0.019531 0.13281-0.039063 0.19141-0.066406 0.03125-0.015625 0.058594-0.03125 0.097656-0.046875 0.14062-0.058594 0.28125-0.125 0.41797-0.20312 0.023438-0.015625 0.050781-0.035157 0.082031-0.050781 0.03125-0.019532 0.058594-0.039063 0.089844-0.058594 0.054687-0.035156 0.11719-0.070313 0.17188-0.10938 0.10156-0.070313 0.19531-0.14453 0.29297-0.22656 0.050781-0.039062 0.10156-0.085937 0.15234-0.13281 0.046876-0.039063 0.089844-0.074219 0.13281-0.11719 0.019531-0.019531 0.039063-0.046875 0.058594-0.066406 0.10938-0.11719 0.22266-0.23047 0.32422-0.35938 0.019531-0.023437 0.03125-0.050781 0.050781-0.070313 0.019531-0.023437 0.035156-0.054687 0.054687-0.082031 0.039063-0.054687 0.082032-0.11719 0.12109-0.17578 0.035156-0.050781 0.070312-0.097656 0.10156-0.15234 0.023438-0.039062 0.035157-0.085937 0.054688-0.125 0.046875-0.082031 0.089844-0.16797 0.125-0.25 0.046875-0.097656 0.085938-0.19141 0.12109-0.29297 0.035156-0.085938 0.066406-0.17188 0.097656-0.26172 0.023438-0.082031 0.046875-0.16016 0.066406-0.24219 0.023438-0.10547 0.046875-0.20703 0.066406-0.31641 0.015626-0.089844 0.035157-0.17969 0.046876-0.27734 0.011718-0.085937 0.015624-0.17188 0.019531-0.25781 0.003906-0.10156 0.003906-0.20703 0.003906-0.30859 0-0.097656-0.003906-0.19141-0.011719-0.28906-0.011718-0.097656-0.023437-0.1875-0.035156-0.28125-0.011719-0.050781-0.003906-0.10547-0.015625-0.15625-2.8516-15.164-9.4297-25.668-19.543-31.215-16.055-8.8047-34.789-1.4766-35.578-1.1602-0.085937 0.035157-0.16016 0.085938-0.24219 0.125-0.14453 0.070313-0.29297 0.14063-0.42969 0.22266-0.12109 0.070312-0.22656 0.15625-0.33594 0.23828-0.11719 0.085938-0.23047 0.17578-0.33594 0.27344-0.10547 0.097656-0.19531 0.20312-0.29297 0.30859-0.097656 0.10547-0.1875 0.21094-0.27344 0.32812-0.082031 0.10938-0.15234 0.22656-0.21484 0.34375-0.074219 0.13281-0.15234 0.25781-0.21484 0.39844-0.050782 0.10938-0.097657 0.22656-0.13672 0.34375-0.054688 0.15234-0.10547 0.30078-0.14453 0.45703-0.03125 0.11719-0.046876 0.23047-0.066407 0.35156-0.023437 0.16016-0.050781 0.32422-0.054687 0.48828-0.003906 0.125 0.003906 0.25 0.003906 0.37891-0.007812 0.13281-0.019531 0.25-0.003906 0.37109zm34.125 4.293c5.3438 2.9492 9.4219 7.9492 12.195 14.914l-18.234-10.797c-2.0898-1.2344-4.793-0.54297-6.0273 1.543-1.2383 2.0898-0.54297 4.793 1.543 6.0273l18.238 10.797c-7.4414 0.91016-13.789-0.25781-18.941-3.5273-8.5352-5.4102-12.098-15.426-13.441-20.758 5.3242-1.3906 15.82-3.082 24.668 1.8008z"/>
  <path d="m426.54 444.96c-0.011718 0.050781-0.003906 0.10547-0.015624 0.15625-0.015626 0.097656-0.03125 0.1875-0.035157 0.28125-0.011719 0.097656-0.011719 0.19141-0.011719 0.28906-0.003906 0.10547 0 0.20703 0.003907 0.30859 0.003906 0.085938 0.011719 0.17188 0.019531 0.25781 0.011719 0.089844 0.023438 0.1875 0.046875 0.27734 0.019531 0.10547 0.039063 0.21094 0.066406 0.3125 0.019531 0.082032 0.039063 0.16016 0.066407 0.24609 0.023437 0.085938 0.058593 0.17188 0.097656 0.26172 0.039062 0.10156 0.074218 0.19531 0.12109 0.29297 0.039062 0.085937 0.085937 0.16797 0.125 0.25 0.019531 0.039062 0.035156 0.085937 0.054687 0.125 0.03125 0.050781 0.070313 0.10156 0.10156 0.15234 0.039062 0.058594 0.082031 0.11719 0.12109 0.17578 0.019531 0.023438 0.035157 0.054688 0.054688 0.082032 0.015625 0.023437 0.03125 0.050781 0.050781 0.070312 0.10156 0.125 0.21094 0.24609 0.32422 0.35938 0.019531 0.019531 0.039062 0.046875 0.058593 0.066407 0.039063 0.039062 0.085938 0.074218 0.13281 0.11719 0.050781 0.046875 0.10156 0.085937 0.15234 0.125 0.097656 0.082031 0.19141 0.15625 0.29297 0.22656 0.054687 0.039062 0.10937 0.074218 0.17187 0.10937 0.03125 0.019532 0.058594 0.039063 0.089844 0.058594 0.023438 0.015625 0.050782 0.035156 0.082032 0.050782 0.13672 0.074218 0.27734 0.14062 0.41797 0.20312 0.03125 0.015626 0.058594 0.03125 0.097656 0.046876 0.058594 0.023437 0.125 0.039062 0.19141 0.066406 0.03125 0.011718 0.058593 0.03125 0.089843 0.039062 6.3867 2.0859 12.34 3.1289 17.828 3.1289 7.1133 0 13.453-1.7539 18.941-5.2539 15.445-9.8438 18.02-29.789 18.129-30.637 0.011719-0.097657 0-0.1875 0.003906-0.27734 0.011719-0.16016 0.019532-0.31641 0.011719-0.48047-0.003906-0.14062-0.023437-0.27344-0.046875-0.40625-0.019531-0.14453-0.039062-0.28906-0.082031-0.42969-0.035157-0.13672-0.082031-0.27344-0.125-0.40234-0.046875-0.13672-0.097657-0.26562-0.15625-0.39453-0.058594-0.12109-0.125-0.23828-0.19141-0.35156-0.074218-0.13281-0.15234-0.25781-0.24219-0.37891-0.074219-0.10156-0.15625-0.19141-0.23828-0.28906-0.10547-0.12109-0.21094-0.24219-0.33203-0.34766-0.089843-0.082031-0.1875-0.15625-0.28125-0.22656-0.125-0.10156-0.25781-0.19531-0.39844-0.28125-0.10938-0.066406-0.22656-0.12109-0.33594-0.17578-0.10547-0.050781-0.20313-0.11719-0.3125-0.16016-0.78906-0.31641-19.52-7.6523-35.578 1.1602-10.137 5.5312-16.711 16.031-19.562 31.195zm48.391-25.277c-1.3438 5.332-4.9062 15.352-13.441 20.758-5.1523 3.2695-11.508 4.4453-18.941 3.5273l18.238-10.797c2.0898-1.2383 2.7812-3.9336 1.543-6.0273-1.2383-2.0898-3.9336-2.7812-6.0273-1.543l-18.234 10.797c2.7773-6.9609 6.8555-11.965 12.203-14.914 8.8477-4.8789 19.34-3.1875 24.66-1.8008z"/>
  <path d="m416.71 364.65h5.2109c2.5547 0 4.6289 2.0742 4.6289 4.6367 0 2.5547-2.0742 4.6289-4.6289 4.6289h-14.242c-2.4297 0-4.3984 1.9688-4.3984 4.3984 0 2.4297 1.9688 4.3984 4.3984 4.3984h7.2344v5.75c0 2.4297 1.9688 4.3984 4.3984 4.3984 2.4297 0 4.3984-1.9688 4.3984-4.3984v-5.8828c6.5547-0.88281 11.633-6.5 11.633-13.297 0-7.4062-6.0273-13.43-13.426-13.43h-5.2109c-2.5547 0-4.6367-2.0742-4.6367-4.6289 0-2.5547 2.0742-4.6367 4.6367-4.6367h14.238c2.4297 0 4.3984-1.9688 4.3984-4.3984 0-2.4297-1.9688-4.3984-4.3984-4.3984h-7.2344v-5.7422c0-2.4297-1.9688-4.3984-4.3984-4.3984-2.4297 0-4.3984 1.9688-4.3984 4.3984v5.8789c-6.5586 0.88281-11.637 6.5-11.637 13.297 0.003906 7.3984 6.0273 13.426 13.434 13.426z"/>
  <path d="m419.32 403.02c23.578 0 42.758-19.18 42.758-42.758 0-23.578-19.18-42.758-42.758-42.758s-42.758 19.18-42.758 42.758c0 23.574 19.18 42.758 42.758 42.758zm0-76.723c18.727 0 33.961 15.234 33.961 33.961 0 18.727-15.234 33.961-33.961 33.961-18.727 0-33.961-15.234-33.961-33.961 0-18.727 15.234-33.961 33.961-33.961z"/>
  <path d="m289.44 472.48v99.996c0 2.4297 1.9688 4.3984 4.3984 4.3984 2.4297 0 4.3984-1.9688 4.3984-4.3984v-99.996c0-2.4297-1.9688-4.3984-4.3984-4.3984-2.4258-0.003906-4.3984 1.9648-4.3984 4.3984z"/>
  <path d="m286.75 509.52c0.023437-0.082032 0.046875-0.16016 0.070312-0.24609 0.023438-0.10156 0.046875-0.20703 0.066406-0.30859 0.015626-0.097656 0.035157-0.1875 0.046876-0.28125 0.011718-0.085938 0.015624-0.17188 0.019531-0.26172 0.003906-0.10156 0.003906-0.20312 0.003906-0.30078s-0.003906-0.19141-0.011719-0.28906c-0.011718-0.097657-0.023437-0.19141-0.039062-0.28125-0.011719-0.050782-0.003906-0.10156-0.015625-0.15625-2.8516-15.164-9.4297-25.668-19.543-31.215-16.055-8.8047-34.789-1.4766-35.578-1.1602-0.085937 0.035156-0.16016 0.085937-0.24219 0.125-0.14453 0.070312-0.29297 0.14062-0.42969 0.22266-0.12109 0.070312-0.22656 0.15625-0.33594 0.23828-0.11719 0.085937-0.23047 0.17578-0.33594 0.27344-0.10547 0.097657-0.19531 0.20313-0.29297 0.30859-0.097656 0.10547-0.1875 0.21094-0.27344 0.32812-0.082031 0.10938-0.15234 0.22656-0.21484 0.34375-0.074219 0.13281-0.15234 0.25781-0.21484 0.39844-0.050781 0.10938-0.097656 0.22656-0.13672 0.34375-0.054687 0.15234-0.10547 0.30078-0.14453 0.45703-0.03125 0.11719-0.046875 0.23047-0.066406 0.35156-0.023437 0.16016-0.050781 0.32422-0.054687 0.48828-0.003907 0.125 0.003906 0.25 0.003906 0.37891 0.003906 0.12109-0.011719 0.23828 0.003906 0.35938 0.10156 0.84766 2.6797 20.793 18.129 30.637 5.4922 3.5 11.828 5.2539 18.941 5.2539 5.4883 0 11.441-1.043 17.824-3.1289 0.03125-0.011719 0.058594-0.03125 0.089844-0.039063 0.066406-0.023437 0.13281-0.039062 0.19141-0.066406 0.03125-0.011719 0.058594-0.03125 0.089844-0.046875 0.14453-0.058594 0.28906-0.125 0.42188-0.20703 0.023438-0.015625 0.050781-0.035157 0.074219-0.050781 0.03125-0.019532 0.058593-0.039063 0.097656-0.058594 0.054687-0.035156 0.11719-0.070313 0.17188-0.10938 0.10156-0.070313 0.19531-0.14453 0.29688-0.22656 0.050781-0.039062 0.10156-0.085937 0.15234-0.125 0.046875-0.039062 0.089843-0.074218 0.13281-0.11719 0.019531-0.019531 0.039063-0.046875 0.058594-0.066407 0.10938-0.11719 0.22266-0.23047 0.32422-0.35937 0.019531-0.023438 0.03125-0.050782 0.050781-0.070313 0.019531-0.023437 0.035156-0.050781 0.054687-0.082031 0.039063-0.054688 0.082032-0.11719 0.12109-0.17578 0.035156-0.050781 0.070313-0.097656 0.10156-0.15234 0.023437-0.039063 0.035156-0.082031 0.054687-0.12109 0.046875-0.085937 0.089844-0.16797 0.13281-0.25 0.046875-0.097656 0.082031-0.19141 0.12109-0.28906 0.023438-0.089843 0.054688-0.18359 0.082032-0.26562zm-34.105-13.922 18.238 10.797c-7.4414 0.91797-13.789-0.25781-18.941-3.5273-8.5352-5.4102-12.098-15.426-13.441-20.758 5.3203-1.3867 15.82-3.082 24.668 1.8047 5.3438 2.9492 9.4258 7.9492 12.203 14.914l-18.234-10.797c-2.0898-1.2344-4.7852-0.54297-6.0273 1.543-1.2539 2.0898-0.55859 4.7852 1.5352 6.0234z"/>
  <path d="m300.51 507.39c-0.011718 0.050781-0.003906 0.10156-0.015624 0.15625-0.015626 0.097656-0.03125 0.19141-0.039063 0.28906-0.011719 0.089843-0.011719 0.1875-0.011719 0.27734-0.003906 0.10547-0.003906 0.20703 0.003906 0.3125 0.003907 0.089844 0.011719 0.17578 0.019532 0.26562 0.011718 0.089844 0.023437 0.17578 0.039062 0.26562 0.019532 0.10547 0.039063 0.21094 0.066406 0.31641 0.019532 0.085937 0.046876 0.16797 0.070313 0.25 0.023437 0.085937 0.058594 0.16797 0.089844 0.25 0.039062 0.10156 0.074219 0.19531 0.12109 0.29297 0.039063 0.085938 0.085938 0.17188 0.13281 0.25781 0.019531 0.039062 0.03125 0.082031 0.054687 0.11719 0.03125 0.050782 0.066407 0.097656 0.097657 0.14062 0.039062 0.066407 0.085937 0.125 0.13281 0.19141 0.015625 0.015624 0.023438 0.035156 0.035157 0.054687 0.023437 0.03125 0.039062 0.058594 0.066406 0.089844 0.097656 0.12109 0.20312 0.23047 0.30859 0.34375 0.023437 0.023437 0.050781 0.058593 0.074218 0.085937 0.039063 0.039063 0.082032 0.070313 0.12109 0.10547 0.050781 0.046875 0.10547 0.089844 0.16016 0.13672 0.097656 0.074218 0.1875 0.15234 0.28906 0.21484 0.058593 0.039062 0.12109 0.082031 0.17969 0.11719 0.023438 0.015625 0.050782 0.035156 0.082032 0.050781s0.054687 0.039063 0.085937 0.054688c0.13281 0.074218 0.27344 0.13672 0.40625 0.19531 0.035156 0.015625 0.070313 0.035156 0.10547 0.050782 0.058594 0.023437 0.125 0.039062 0.1875 0.058593 0.03125 0.011719 0.058594 0.03125 0.089844 0.039063 6.3867 2.0859 12.34 3.1289 17.824 3.1289 7.1133 0 13.453-1.7539 18.941-5.2539 15.445-9.8438 18.02-29.789 18.129-30.637 0.011719-0.097656 0-0.17969 0.003906-0.27734 0.011719-0.16016 0.015625-0.31641 0.011719-0.48047-0.003906-0.14062-0.023438-0.27344-0.046875-0.40625-0.019531-0.14453-0.039063-0.28906-0.074219-0.42969s-0.082031-0.27344-0.13281-0.40234c-0.046876-0.13672-0.097657-0.26562-0.15625-0.39453-0.058594-0.12109-0.125-0.23828-0.19141-0.35156-0.074219-0.13281-0.15625-0.25781-0.24219-0.37891-0.070313-0.10156-0.15625-0.19141-0.23828-0.28125-0.10547-0.12109-0.21094-0.24219-0.33203-0.34766-0.089843-0.082031-0.17969-0.15234-0.28125-0.22656-0.13281-0.10156-0.25781-0.19531-0.40234-0.28906-0.10547-0.066406-0.22266-0.12109-0.33594-0.17578-0.10547-0.050781-0.20312-0.12109-0.3125-0.16797-0.78516-0.31641-19.52-7.6484-35.578 1.1602-10.109 5.5625-16.684 16.066-19.539 31.23zm48.395-25.277c-1.3438 5.332-4.9062 15.348-13.441 20.758-5.1523 3.2695-11.504 4.4375-18.941 3.5273l18.234-10.797c2.0898-1.2383 2.7812-3.9336 1.543-6.0273-1.2383-2.0898-3.9336-2.7812-6.0273-1.543l-18.234 10.797c2.7773-6.9609 6.8555-11.965 12.203-14.914 8.8477-4.8789 19.344-3.1836 24.664-1.8008z"/>
  <path d="m290.69 427.08h5.2109c2.5547 0 4.6289 2.0742 4.6289 4.6367 0 2.5547-2.0742 4.6289-4.6289 4.6289h-14.238c-2.4297 0-4.3984 1.9688-4.3984 4.3984 0 2.4297 1.9688 4.3984 4.3984 4.3984h7.2344v5.75c0 2.4297 1.9688 4.3984 4.3984 4.3984 2.4297 0 4.3984-1.9688 4.3984-4.3984v-5.8828c6.5547-0.88281 11.633-6.5 11.633-13.297 0-7.4062-6.0273-13.43-13.426-13.43h-5.2109c-2.5547 0-4.6367-2.0742-4.6367-4.6289 0-2.5547 2.0742-4.6367 4.6367-4.6367h14.238c2.4297 0 4.3984-1.9688 4.3984-4.3984 0-2.4297-1.9688-4.3984-4.3984-4.3984h-7.2344v-5.7422c0-2.4297-1.9688-4.3984-4.3984-4.3984-2.4297 0-4.3984 1.9688-4.3984 4.3984v5.8789c-6.5586 0.88281-11.637 6.5-11.637 13.297-0.003906 7.3984 6.0234 13.426 13.43 13.426z"/>
  <path d="m293.3 465.44c23.578 0 42.758-19.18 42.758-42.758 0-23.578-19.18-42.758-42.758-42.758s-42.758 19.18-42.758 42.758c0 23.578 19.18 42.758 42.758 42.758zm0-76.719c18.727 0 33.961 15.234 33.961 33.961 0 18.727-15.234 33.961-33.961 33.961s-33.961-15.234-33.961-33.961c0-18.727 15.234-33.961 33.961-33.961z"/>
  <path d="m609.57 579.51h-387.47v-352.8l19.77 19.77c0.86328 0.85547 1.9844 1.2891 3.1133 1.2891s2.2539-0.42969 3.1133-1.2891c1.7188-1.7188 1.7188-4.5039 0-6.2227l-27.281-27.281c-0.011718-0.011719-0.023437-0.015625-0.035156-0.023438-0.19531-0.19141-0.40625-0.36719-0.63672-0.51953-0.10547-0.070312-0.22266-0.12109-0.33203-0.17969-0.14062-0.074218-0.27734-0.16016-0.42969-0.22266-0.13672-0.054687-0.28125-0.085937-0.41797-0.13281-0.13672-0.039063-0.26172-0.089844-0.40234-0.12109-0.25-0.050781-0.50781-0.070312-0.76172-0.074219-0.03125 0-0.066406-0.011719-0.097656-0.011719-0.039063 0-0.074219 0.011719-0.11719 0.011719-0.24609 0.003907-0.49219 0.023438-0.74219 0.074219-0.14062 0.03125-0.27344 0.082031-0.41406 0.12109-0.13672 0.039062-0.27734 0.070312-0.41406 0.125-0.15234 0.066406-0.29297 0.15234-0.43359 0.22656-0.10547 0.058594-0.22266 0.10547-0.32422 0.17578-0.23047 0.15234-0.44141 0.32812-0.64062 0.52344-0.011719 0.011719-0.023438 0.015625-0.03125 0.023437l-27.281 27.281c-1.7188 1.7188-1.7188 4.5039 0 6.2227s4.5039 1.7188 6.2227 0l19.77-19.77v102.22h-19.398c-2.4297 0-4.3984 1.9688-4.3984 4.3984s1.9688 4.3984 4.3984 4.3984h19.398v18.656h-10.887c-2.4297 0-4.3984 1.9688-4.3984 4.3984s1.9688 4.3984 4.3984 4.3984h10.887v18.656h-19.398c-2.4297 0-4.3984 1.9688-4.3984 4.3984s1.9688 4.3984 4.3984 4.3984h19.398v18.656h-10.887c-2.4297 0-4.3984 1.9688-4.3984 4.3984s1.9688 4.3984 4.3984 4.3984h10.887v18.656h-19.398c-2.4297 0-4.3984 1.9688-4.3984 4.3984s1.9688 4.3984 4.3984 4.3984h19.398v18.656h-10.887c-2.4297 0-4.3984 1.9688-4.3984 4.3984s1.9688 4.3984 4.3984 4.3984h10.887v18.656h-19.398c-2.4297 0-4.3984 1.9688-4.3984 4.3984s1.9688 4.3984 4.3984 4.3984h19.398v18.656h-10.887c-2.4297 0-4.3984 1.9688-4.3984 4.3984s1.9688 4.3984 4.3984 4.3984h10.887v18.656h-19.398c-2.4297 0-4.3984 1.9688-4.3984 4.3984s1.9688 4.3984 4.3984 4.3984h19.398v26.531c0 2.4297 1.9688 4.3984 4.3984 4.3984h391.87c2.4297 0 4.3984-1.9688 4.3984-4.3984 0.011718-2.4023-1.9609-4.3711-4.3867-4.3711z"/>
 </g>
</svg>