<?xml version="1.0" encoding="UTF-8"?>
<!-- The Best Svg Icon site in the world: iconSvg.co, Visit us! https://iconsvg.co -->
<svg fill="#000000" width="800px" height="800px" version="1.1" viewBox="144 144 512 512" xmlns="http://www.w3.org/2000/svg">
 <path d="m597.9 421.48h-5.7422c-4.0195-20.773-12.469-40.902-24.707-58.809 12.617-14.191 19.039-32.82 17.613-51.883-0.14844-1.7109-1.0898-3.2539-2.582-4.125-1.4805-0.85938-3.2852-0.95703-4.8398-0.25l-43.664 20.016c-20.973-16.91-46.023-29.117-73.02-35.656 11.156-18.379 15.008-41.113 8.6914-63.363-5.8477-20.605-19.355-37.691-38.027-48.137-18.684-10.434-40.305-12.961-60.949-7.1367-42.52 12.039-67.312 56.438-55.273 98.969 3.4648 12.219 9.7734 23.133 18.055 32.16-42.164 19.523-73.723 52.438-89.078 93.676-0.62891 1.6797-1.0508 3.4023-1.6055 5.0898-5.0586-3.8203-11.012-6.3398-17.488-7.0625-2.3711-0.27344-4.7109-0.30469-7.0312-0.10547-0.54688-0.60938-1.1016-1.207-1.6914-1.7852-8.4375-8.4492-19.648-13.121-31.605-13.129-1.0898 0-2.1641 0.042969-3.2422 0.11719-2.8867 0.19922-5.0586 2.707-4.8711 5.5938 0.21094 2.8867 2.6758 4.9766 5.6055 4.8711 8.8281-0.66016 17.234 2.0781 23.898 7.4609-2.625 1.207-5.1133 2.7383-7.4297 4.5977-4.4297 3.5273-7.9961 8.1328-10.309 13.289-4.8477 10.781-0.03125 23.512 10.746 28.352 2.8125 1.2695 5.8047 1.9102 8.7969 1.9102 2.5625 0 5.1328-0.47266 7.6211-1.418 5.3633-2.0273 9.6055-6.0234 11.945-11.23 1.2578-2.7695 1.8984-5.7422 1.8984-8.7969 0.011718-6.7266-1.457-13.227-4.2422-19.133 5.4141 0.87109 10.242 3.5156 14.031 7.4297-8.9648 35.34-5.0078 72.328 11.684 105.7 13.066 26.156 33.418 48.605 58.902 65.336l-20.277 39.215c-0.83984 1.6367-0.76562 3.5703 0.1875 5.1445 0.95703 1.5742 2.6445 2.5195 4.4805 2.5195h71.039c1.9609 0 3.7578-1.0898 4.6602-2.8438l8.5859-16.605c11.922 2.2344 24.078 3.5039 36.273 3.5039 12.176 0 24.328-1.2891 36.266-3.5039l8.5742 16.605c0.90625 1.7461 2.7227 2.8477 4.6719 2.8477h71.039c1.8477 0 3.5273-0.94531 4.4922-2.5195 0.94531-1.5547 1.0273-3.5039 0.1875-5.1445l-20.277-39.191c21.832-14.348 40.02-33.082 52.953-54.652h25.074c13.93 0 25.254-11.336 25.254-25.254v-57.402c-0.011719-13.926-11.336-25.262-25.273-25.262zm-379.75 7.7031c-2.4766 5.4883-8.9727 7.9766-14.484 5.4883-5.5-2.4766-7.9648-8.9727-5.4805-14.496 1.6367-3.6328 4.1562-6.8867 7.293-9.3945 2.5195-2.0039 5.3516-3.5039 8.3438-4.4297 3.4531 5.4375 5.3008 11.746 5.2891 18.348 0.015624 1.5781-0.3125 3.0664-0.96094 4.4844zm107.36-160.93c-10.477-36.957 11.074-75.539 48.031-86.016 17.895-5.0586 36.727-2.8672 52.953 6.2031 16.246 9.0703 27.992 23.93 33.043 41.828 10.477 36.934-11.051 75.488-47.957 85.992-8.3867 0.17969-16.75 0.93359-25.023 2.3828-28.68-2.4453-53.207-22.672-61.047-50.391zm287.15 235.91c0 8.1328-6.6211 14.758-14.758 14.758h-27.98c-0.21875 0-0.42969 0.10547-0.66016 0.14844-0.36719 0.042969-0.69141 0.082032-1.0508 0.21094-0.32422 0.10547-0.62109 0.26172-0.90234 0.42969-0.28516 0.1875-0.55469 0.34766-0.80859 0.57812-0.27344 0.21875-0.50391 0.51562-0.70312 0.82031-0.14844 0.16797-0.31641 0.28516-0.42969 0.47266-12.922 22.523-31.98 41.984-55.062 56.27-0.24219 0.14844-0.38672 0.36719-0.62109 0.57812-0.26172 0.21875-0.55469 0.42969-0.77734 0.71484-0.19922 0.26172-0.30469 0.57812-0.47266 0.85938-0.15625 0.30469-0.30469 0.59766-0.41016 0.92188-0.082031 0.30469-0.082031 0.64062-0.11719 0.94531-0.03125 0.34766-0.082031 0.69141-0.042968 1.0508 0.042968 0.32422 0.17969 0.64062 0.25 0.94531 0.10547 0.28516 0.11719 0.57812 0.24219 0.85938l18.473 35.75h-59.219l-8.8594-17.141c-0.074218-0.125-0.17969-0.1875-0.21875-0.28516-0.19922-0.28516-0.41016-0.53516-0.65234-0.77734-0.24219-0.24219-0.46094-0.51562-0.74609-0.71484-0.26172-0.21094-0.56641-0.32422-0.87109-0.47266-0.29297-0.14844-0.57812-0.26172-0.88281-0.34766-0.33594-0.10547-0.68359-0.125-1.082-0.14844-0.30469 0-0.62109-0.019532-0.94531 0-0.13672 0.019531-0.23047-0.019532-0.36719 0-24.949 5.2266-51.285 5.2266-76.234 0-0.125-0.019532-0.23047 0.019531-0.35547 0-0.32422-0.042969-0.64062-0.019532-0.96484 0-0.35547 0.019531-0.70312 0.042968-1.0586 0.14844-0.31641 0.082031-0.59766 0.21094-0.89062 0.36719-0.30469 0.14844-0.59766 0.24219-0.85938 0.45313-0.28516 0.21094-0.51562 0.47266-0.75391 0.71484-0.21875 0.24219-0.44141 0.47266-0.62109 0.77734-0.074218 0.10547-0.17969 0.16797-0.23047 0.28516l-8.8594 17.141h-59.219l18.473-35.75c0.14844-0.26172 0.15625-0.57812 0.24219-0.85938 0.10547-0.30469 0.21875-0.62109 0.26172-0.94531 0.042969-0.34766-0.011719-0.69141-0.042969-1.0508-0.03125-0.32422-0.019531-0.64063-0.11719-0.96484-0.09375-0.30469-0.25-0.59766-0.41016-0.90234-0.15625-0.30469-0.26172-0.62109-0.48437-0.88281-0.21875-0.26172-0.50391-0.47266-0.76563-0.71484-0.21094-0.1875-0.35547-0.41016-0.60937-0.57812-25.77-15.934-46.191-37.984-59.094-63.793-17.918-35.855-20.141-76.117-6.2656-113.4 14.82-39.82 45.836-71.477 87.359-89.594 6.7812 5.6055 14.547 9.9727 22.852 13.109-5.4141 1.7539-10.77 3.6836-16.008 5.9922-2.6562 1.1758-3.8516 4.2734-2.6758 6.9258 0.85938 1.9609 2.793 3.1289 4.7969 3.1289 0.70312 0 1.4375-0.14844 2.1211-0.44141 32.348-14.305 68.949-17.035 103.02-7.6953 2.8438 0.76562 5.6992-0.89062 6.4531-3.6836 0.74609-2.793-0.88281-5.6797-3.6953-6.4453-7.8281-2.1523-15.797-3.5781-23.805-4.5352 7.6094-4.7109 14.254-10.578 19.805-17.34 28.117 6.1406 54.16 18.684 75.445 36.527 0.98828 0.82812 2.1719 1.2266 3.3594 1.2266 0.03125 0 0.074219-0.019532 0.10547-0.019532 0.66016-0.011718 1.3125-0.15625 1.9727-0.42969 0.042969-0.019531 0.082031-0.011719 0.125-0.03125l39.234-17.988c-0.77734 14.664-6.9375 28.59-17.488 39.086-0.16797 0.15625-0.21875 0.36719-0.35547 0.53516-0.21875 0.27344-0.41797 0.54687-0.58594 0.85937-0.14844 0.31641-0.24219 0.60938-0.33594 0.93359-0.09375 0.32422-0.17969 0.64062-0.19922 0.97656-0.019531 0.33594 0 0.65234 0.042969 0.97656 0.019531 0.34766 0.082031 0.67188 0.19922 1.0078 0.09375 0.31641 0.23047 0.60938 0.41016 0.90234 0.11719 0.19922 0.14844 0.41797 0.27344 0.60937 13.531 18.672 22.555 40.23 26.156 62.348 0.042968 0.21875 0.16797 0.42969 0.21875 0.66016 0.09375 0.28516 0.16797 0.55469 0.27344 0.82031 0.1875 0.34766 0.41016 0.64062 0.65234 0.92187 0.17969 0.21875 0.29297 0.42969 0.49219 0.59766 0.30469 0.28516 0.66016 0.49219 1.0391 0.69141 0.19922 0.10547 0.35547 0.24219 0.58594 0.32422 0.59766 0.24219 1.2383 0.38672 1.9219 0.38672h0.011718 9.918c8.125 0 14.746 6.6211 14.746 14.758v57.422z"/>
</svg>