<?xml version="1.0" encoding="UTF-8"?>
<!-- The Best Svg Icon site in the world: iconSvg.co, Visit us! https://iconsvg.co -->
<svg fill="#000000" width="800px" height="800px" version="1.1" viewBox="144 144 512 512" xmlns="http://www.w3.org/2000/svg">
 <g>
  <path d="m512.38 307.02-44.336 44.336c27.383 34.066 35.305 79.828 20.977 121.12-14.332 41.293-48.902 72.305-91.504 82.082-42.598 9.7812-87.23-3.0469-118.14-33.953s-43.734-75.539-33.957-118.14c9.7812-42.598 40.793-77.168 82.082-91.5 41.293-14.332 87.055-6.4062 121.12 20.973l44.336-44.336c-37.105-32.074-85.207-48.508-134.18-45.84-48.977 2.668-95.008 24.227-128.41 60.145-33.402 35.918-51.57 83.391-50.68 132.43 0.89063 49.039 20.766 95.82 55.449 130.5 34.68 34.68 81.465 54.559 130.5 55.449 49.039 0.88672 96.512-17.277 132.43-50.68 35.914-33.402 57.477-79.434 60.145-128.41 2.668-48.977-13.766-97.074-45.844-134.18z"/>
  <path d="m436.58 382.84-48.863 48.871c-0.27344 4.7578-2.3828 9.2266-5.8828 12.465s-8.1211 4.9922-12.887 4.8984c-4.7656-0.097656-9.3086-2.0352-12.676-5.4102-3.3711-3.375-5.2969-7.9258-5.3828-12.691-0.082031-4.7656 1.6836-9.3828 4.9297-12.875s7.7188-5.5898 12.48-5.8516l48.863-48.824c-13.934-10.004-30.66-15.371-47.812-15.344-24.906-0.046875-48.504 11.137-64.238 30.445-15.738 19.305-21.934 44.672-16.867 69.059 5.0664 24.387 20.855 45.188 42.98 56.629 22.121 11.438 48.223 12.293 71.051 2.332 22.824-9.9609 39.945-29.684 46.602-53.684s2.1406-49.723-12.297-70.02z"/>
  <path d="m618.5 239.98-52.027 51.988c-0.86328 0.85938-2.0352 1.3398-3.2539 1.3281h-0.26953l-49.008-2.9805c-2.3008-0.13281-4.1445-1.957-4.3047-4.2578l-2.9297-49.008v0.003907c-0.089843-1.3125 0.39453-2.6016 1.3281-3.5273l51.984-52.031h-0.003906c1.2695-1.2852 3.1797-1.6992 4.8672-1.0547 1.6875 0.64844 2.832 2.2266 2.9219 4.0312l2.7031 44.977 45.027 2.75h-0.003906c1.8047 0.089843 3.3828 1.2344 4.0273 2.9219 0.64453 1.6875 0.23047 3.5938-1.0547 4.8633z"/>
  <path d="m369.31 435.27c-1.8516 0-3.5234-1.1172-4.2305-2.8281-0.71094-1.7109-0.31641-3.6797 0.99219-4.9922l144.9-144.91c0.85547-0.88672 2.0273-1.3906 3.2578-1.3984 1.2266-0.011719 2.4062 0.47266 3.2773 1.3398 0.86719 0.86719 1.3516 2.0508 1.3398 3.2773-0.011718 1.2305-0.51562 2.4023-1.3984 3.2578l-144.89 144.88c-0.85547 0.875-2.0234 1.3672-3.2461 1.375z"/>
 </g>
</svg>