<?xml version="1.0" encoding="UTF-8"?>
<!-- The Best Svg Icon site in the world: iconSvg.co, Visit us! https://iconsvg.co -->
<svg fill="#000000" width="800px" height="800px" version="1.1" viewBox="144 144 512 512" xmlns="http://www.w3.org/2000/svg">
 <g>
  <path d="m364.02 447.23h15.742v15.742h-15.742z"/>
  <path d="m243.05 369.9c-0.32422-3.0781-0.48828-6.168-0.48828-9.2656 0-1.7305 0.050781-3.4492 0.14844-5.1484l-15.742-0.9375c-0.125 2.0078-0.17969 4.0391-0.17969 6.0859h-0.003906c0 3.6523 0.19531 7.3047 0.58203 10.938z"/>
  <path d="m305.54 604.67h15.742v15.742h-15.742z"/>
  <path d="m343.77 258.3-15.824 0.007813 0.16406 15.746 15.66-0.007813z"/>
  <path d="m359.51 258.3h15.742v15.742h-15.742z"/>
  <path d="m337.02 604.67h15.742v15.742h-15.742z"/>
  <path d="m230.6 388.3c1.5352 5.4766 3.5273 10.82 5.957 15.965l14.234-6.7227c-2.0508-4.3516-3.7344-8.8633-5.0312-13.492z"/>
  <path d="m286.75 285.11-7.7148-13.723v0.003906c-4.9531 2.7852-9.6719 5.9805-14.098 9.5469l9.8945 12.25c3.7461-3.0156 7.7305-5.7188 11.918-8.0781z"/>
  <path d="m299.15 458.51c5.4414 1.6562 11.012 2.8594 16.652 3.5977l2.0312-15.609c-4.7695-0.625-9.4766-1.6445-14.078-3.0469z"/>
  <path d="m313.77 275.41-2.7852-15.492h-0.003906c-5.5977 1.0039-11.102 2.4766-16.453 4.4023l5.3203 14.816h0.003906c4.5273-1.6289 9.1836-2.875 13.918-3.7266z"/>
  <path d="m268.79 443.29c4.5898 3.3633 9.4531 6.3359 14.539 8.8906l7.0859-14.074-0.003906-0.003906c-4.3008-2.1523-8.4141-4.6641-12.293-7.5078z"/>
  <path d="m368.51 604.67h15.742v15.742h-15.742z"/>
  <path d="m267.18 421.13c-3.3633-3.4492-6.4336-7.1641-9.1797-11.117l-12.926 8.9883c3.25 4.6719 6.8828 9.0625 10.863 13.133z"/>
  <path d="m264.39 303.17-11.77-10.453c-3.7773 4.25-7.1992 8.8047-10.23 13.617l13.383 8.375-0.003906 0.003906c2.5508-4.082 5.4336-7.9414 8.6211-11.543z"/>
  <path d="m249.12 327.49-14.539-6.0391-0.003907 0.003906c-2.1797 5.2617-3.9141 10.695-5.1875 16.246l15.344 3.5195c1.0781-4.6914 2.5469-9.2812 4.3867-13.73z"/>
  <path d="m332.53 447.23h15.742v15.742h-15.742z"/>
  <path d="m521.35 505.89c-1.8672-5.4766-4.2773-10.75-7.1953-15.746l-13.586 7.9336h-0.003906c2.3828 4.082 4.3516 8.3906 5.875 12.863z"/>
  <path d="m391 258.3h15.742v15.742h-15.742z"/>
  <path d="m485.02 588.03 10.148 12.035c4.4141-3.7188 8.4492-7.8672 12.043-12.383l-12.367-9.7773c-2.9336 3.6914-6.2227 7.082-9.8242 10.125z"/>
  <path d="m509.63 524.73c0.37891 3.0156 0.57031 6.0508 0.57422 9.0938 0 1.6992-0.054687 3.3945-0.17188 5.0625l15.703 1.1094c0.14062-2.0469 0.21094-4.1055 0.21094-6.1719 0.003906-3.7109-0.23438-7.4141-0.70703-11.094z"/>
  <path d="m476.46 455.56c-5.2227-2.4766-10.68-4.4219-16.289-5.8086l-3.7695 15.289c4.582 1.1211 9.0391 2.7031 13.305 4.7227z"/>
  <path d="m502.5 565.99 14.004 7.1953c2.6328-5.1484 4.7422-10.547 6.2969-16.113l-15.176-4.2031c-1.2656 4.5312-2.9805 8.9297-5.125 13.121z"/>
  <path d="m491.26 464.49-9.4453 12.594v0.003906c3.7812 2.8398 7.2734 6.0508 10.422 9.5781l11.746-10.484c-3.8438-4.3086-8.1055-8.2227-12.723-11.691z"/>
  <path d="m400 604.67h15.742v15.742h-15.742z"/>
  <path d="m442.41 463.04 0.64453-15.742c-1.2266-0.066406-2.457-0.066406-3.6914-0.066406h-12.367v15.742l12.367 0.003906c1.0234 0 2.0391 0 3.0469 0.0625z"/>
  <path d="m395.5 447.23h15.742v15.742h-15.742z"/>
  <path d="m460.29 601.52 4.6523 15.043c5.5195-1.7148 10.855-3.9727 15.926-6.7383l-7.5586-13.816h0.003906c-4.1484 2.2656-8.5117 4.1094-13.023 5.5117z"/>
  <path d="m439.36 604.67h-7.8711v15.742h7.8711c2.9141 0 5.793-0.14062 8.6211-0.42578l-1.5742-15.664c-2.3047 0.23047-4.6562 0.34766-7.0469 0.34766z"/>
  <path d="m525.95 242.56c2.0898 0 4.0898 0.82812 5.5664 2.3047 1.4766 1.4766 2.3086 3.4805 2.3086 5.5664h15.742c-0.019531-4.8672-1.543-9.6094-4.3594-13.578-2.8203-3.9648-6.7969-6.9688-11.383-8.5898v-9.3203h-15.746v9.3203c-7.0547 2.4844-12.508 8.1719-14.699 15.324-2.1914 7.1523-0.85547 14.918 3.5977 20.926 4.4531 6.0117 11.496 9.5469 18.973 9.5352 3.1875 0 6.0547 1.918 7.2734 4.8594s0.54688 6.3281-1.707 8.5781c-2.25 2.25-5.6367 2.9258-8.5781 1.707s-4.8594-4.0898-4.8594-7.2734h-15.742c0.019531 4.8672 1.543 9.6094 4.3594 13.578 2.8203 3.9688 6.793 6.9688 11.383 8.5898v9.3203h15.742l0.003907-9.3203c7.0547-2.4844 12.508-8.1719 14.699-15.324 2.1914-7.1523 0.85547-14.918-3.5977-20.926-4.4531-6.0117-11.496-9.5469-18.977-9.5352-4.3477 0-7.8711-3.5234-7.8711-7.8711 0-4.3477 3.5234-7.8711 7.8711-7.8711z"/>
  <path d="m525.95 187.45c-20.875 0-40.898 8.293-55.66 23.059-14.766 14.762-23.059 34.785-23.059 55.664 0 20.875 8.293 40.898 23.059 55.66 14.762 14.766 34.785 23.059 55.66 23.059 20.879 0 40.902-8.293 55.664-23.059 14.766-14.762 23.059-34.785 23.059-55.66-0.023437-20.871-8.3242-40.883-23.082-55.641-14.758-14.758-34.77-23.059-55.641-23.082zm0 141.7c-16.699 0-32.719-6.6328-44.527-18.445-11.812-11.809-18.445-27.828-18.445-44.527 0-16.703 6.6328-32.723 18.445-44.531 11.809-11.812 27.828-18.445 44.527-18.445 16.703 0 32.723 6.6328 44.531 18.445 11.812 11.809 18.445 27.828 18.445 44.531-0.015625 16.695-6.6602 32.703-18.465 44.508-11.805 11.809-27.812 18.449-44.512 18.465z"/>
  <path d="m525.95 163.84c-27.141 0-53.168 10.785-72.359 29.977-19.195 19.191-29.977 45.219-29.977 72.363 0 27.141 10.781 53.168 29.977 72.359 19.191 19.195 45.219 29.977 72.359 29.977 27.145 0 53.172-10.781 72.363-29.977 19.191-19.191 29.977-45.219 29.977-72.359-0.03125-27.133-10.824-53.145-30.012-72.328-19.184-19.188-45.195-29.98-72.328-30.012zm0 188.93c-22.965 0-44.988-9.1211-61.227-25.363-16.242-16.238-25.363-38.262-25.363-61.227 0-22.969 9.1211-44.992 25.363-61.23 16.238-16.242 38.262-25.363 61.227-25.363 22.969 0 44.992 9.1211 61.23 25.363 16.242 16.238 25.363 38.262 25.363 61.23-0.027344 22.957-9.1602 44.965-25.391 61.199-16.234 16.234-38.242 25.363-61.203 25.391z"/>
  <path d="m565.31 258.3h15.742v15.742h-15.742z"/>
  <path d="m470.85 258.3h15.742v15.742h-15.742z"/>
  <path d="m242.56 462.98c-16.695 0.015626-32.703 6.6562-44.512 18.465-11.805 11.805-18.445 27.812-18.465 44.508 0 41.832 54.727 104.86 57.055 107.52v0.003906c1.4961 1.6914 3.6445 2.6641 5.9062 2.6641 2.2578 0 4.4102-0.97266 5.9023-2.6641 2.3633-2.6719 57.09-65.695 57.09-107.53-0.019531-16.695-6.6602-32.703-18.469-44.508-11.805-11.809-27.812-18.449-44.508-18.465zm0 153.07c-17.16-21.145-47.234-63.691-47.234-90.098 0-16.871 9.0039-32.465 23.617-40.902 14.613-8.4375 32.617-8.4375 47.234 0 14.613 8.4375 23.613 24.031 23.613 40.902 0 26.406-30.07 68.953-47.23 90.098z"/>
  <path d="m242.56 494.46c-8.3516 0-16.359 3.3203-22.266 9.2227-5.9062 5.9062-9.2227 13.918-9.2227 22.266 0 8.3516 3.3164 16.363 9.2227 22.266 5.9062 5.9062 13.914 9.2227 22.266 9.2227 8.3516 0 16.359-3.3164 22.266-9.2227 5.9062-5.9023 9.2227-13.914 9.2227-22.266 0-8.3477-3.3164-16.359-9.2227-22.266-5.9062-5.9023-13.914-9.2227-22.266-9.2227zm0 47.23v0.003906c-4.1758 0-8.1797-1.6602-11.133-4.6133-2.9531-2.9492-4.6133-6.957-4.6133-11.133s1.6602-8.1797 4.6133-11.133c2.9531-2.9492 6.957-4.6094 11.133-4.6094 4.1758 0 8.1797 1.6602 11.133 4.6094 2.9531 2.9531 4.6094 6.957 4.6094 11.133s-1.6562 8.1836-4.6094 11.133c-2.9531 2.9531-6.957 4.6133-11.133 4.6133z"/>
 </g>
</svg>