<?xml version="1.0" encoding="UTF-8"?>
<!-- The Best Svg Icon site in the world: iconSvg.co, Visit us! https://iconsvg.co -->
<svg fill="#000000" width="800px" height="800px" version="1.1" viewBox="144 144 512 512" xmlns="http://www.w3.org/2000/svg">
 <g>
  <path d="m437.36 524.14h-3.0625c-9.3359 0-16.934-7.5977-16.934-16.93 0-9.3398 7.6016-16.938 16.934-16.938h20.188c1.793 0 3.2539-1.4609 3.2539-3.2539 0-1.7969-1.457-3.2539-3.2539-3.2539h-13.871v-11.215c0-1.7891-1.457-3.25-3.2539-3.25s-3.2539 1.457-3.2539 3.25v11.227c-12.844 0.10547-23.25 10.57-23.25 23.438 0 12.914 10.52 23.438 23.438 23.438h3.0625c9.3398 0 16.938 7.5938 16.938 16.93 0 9.3359-7.582 16.918-16.906 16.941-0.011718 0-0.019531-0.011719-0.03125-0.011719-0.015624 0-0.03125 0.011719-0.050781 0.011719h-20.141c-1.7891 0-3.2539 1.457-3.2539 3.25 0 1.7969 1.4609 3.2539 3.2539 3.2539h16.938v11.203c0 1.7969 1.457 3.2539 3.2539 3.2539 1.7969 0 3.2539-1.457 3.2539-3.2539v-11.438c11.391-1.5938 20.188-11.391 20.188-23.215 0.003906-12.922-10.508-23.438-23.438-23.438z"/>
  <path d="m583.35 618.66h-94.434c19.93-10.047 33.648-30.707 33.648-54.512v-73.504c0-31.469-23.824-57.555-54.793-60.684-0.023438-0.75391-0.10156-1.5-0.24609-2.2383 11.719-8.2227 17.824-15.191 18.617-21.254 0.37109-2.8867-0.44922-5.582-2.3867-7.8086-4.0117-4.6133-8.6211-7.0117-13.715-7.1328-3.2305-0.082032-6.1914 0.80469-8.6445 1.9766 0.70703-5.7891 0.46875-13.082-4.1094-16.871-4.3359-3.5781-10.863-3.1328-19.922 1.3711-9.0625-4.5078-15.598-4.9492-19.926-1.3672-4.5781 3.7852-4.8164 11.082-4.1094 16.867-2.3672-1.125-5.1953-1.9688-8.2734-1.9688v-31.883-0.011719c0-23.234 18.902-42.133 42.133-42.133 23.219 0 42.113 18.883 42.133 42.098v0.035156c0 1.793 1.457 3.2539 3.25 3.2539 1.7969 0 3.2539-1.4609 3.2539-3.2539v-0.035156c0.015625-23.219 18.914-42.098 42.133-42.098 23.207 0 42.09 18.863 42.129 42.062v0.070313c0 1.793 1.457 3.2539 3.2539 3.2539 1.793 0 3.2539-1.4609 3.2539-3.2539v-0.070313c-0.039062-101.87-82.926-184.73-184.8-184.73-101.9 0-184.8 82.902-184.8 184.8 0 1.793 1.4609 3.2539 3.2539 3.2539s3.25-1.4609 3.25-3.2539c0-23.234 18.902-42.133 42.137-42.133 23.227 0 42.125 18.895 42.133 42.117v0.015625c0 1.793 1.4609 3.2539 3.2539 3.2539 1.793 0 3.2539-1.4609 3.2539-3.2539v-0.015625c0.011718-23.23 18.906-42.117 42.137-42.117 23.227 0 42.129 18.895 42.133 42.125v0.003907 33.242c-2.7148 1.168-5.25 3.0977-7.582 5.7773-1.9102 2.2031-2.7344 4.8555-2.3984 7.707 0.67969 5.6289 5.9453 12.031 16.066 19.52-0.45312 1.3047-0.71484 2.6797-0.75391 4.0859-26.398 2.6836-48.195 22.234-53.57 48.496-0.8125 3.9531-1.2227 8.0156-1.2305 12.07-7.7188-13.629-21.637-23.312-38.059-25.145-0.023437-0.33203-0.070312-0.66406-0.12109-0.98828 9.4766-6.6953 14.414-12.426 15.074-17.477 0.32812-2.5234-0.38672-4.8828-2.082-6.8203-3.375-3.8828-7.2695-5.9102-11.582-6.0039-2.3086-0.054687-4.4375 0.46875-6.2969 1.2188 0.4375-4.6719-0.019531-10.148-3.7031-13.184-3.6836-3.043-9.1133-2.7539-16.574 0.90625-7.4609-3.6523-12.898-3.9453-16.582-0.90625-3.6797 3.043-4.1406 8.5234-3.7031 13.184-1.8555-0.75-3.9844-1.2812-6.2969-1.2188-4.3086 0.10547-8.207 2.1211-11.582 6.0039-1.6719 1.9141-2.3945 4.2422-2.0898 6.7266 0.5625 4.6836 4.8125 9.9336 12.941 16.02-0.25 0.8125-0.40625 1.668-0.48047 2.543-25.223 2.8164-44.559 24.152-44.559 49.852v59.738c0 18.715 10.305 35.055 25.527 43.684h-18.672c-1.793 0-3.2539 1.457-3.2539 3.2539 0 1.7891 1.4609 3.25 3.2539 3.25h363.1c1.793 0 3.2539-1.457 3.2539-3.25 0.003906-1.8047-1.4492-3.2617-3.2422-3.2617zm-172.99-188.21c0-1.3906 0.38281-2.7344 1.1172-3.8945 1.3594-2.168 3.6875-3.457 6.2305-3.457h36.219c2.9922 0 5.6523 1.7852 6.7969 4.5352 0.36719 0.89063 0.55859 1.8398 0.55859 2.8164v4.8828c0 4.0547-3.3008 7.3438-7.3555 7.3438h-36.219c-4.0547 0-7.3516-3.2891-7.3516-7.3438zm-53.949-119.45c-20.672 0-38.359 12.969-45.387 31.188-7.0312-18.219-24.719-31.188-45.387-31.188-16.559 0-31.199 8.3281-39.992 21 13.32-85.234 87.234-150.66 176.15-150.66s162.83 65.426 176.15 150.66c-8.7852-12.676-23.434-21-39.992-21-20.676 0-38.355 12.969-45.395 31.188-7.0312-18.219-24.719-31.188-45.383-31.188-20.672 0-38.359 12.969-45.387 31.188-7.0273-18.219-24.715-31.188-45.383-31.188zm38.613 94.59c-0.125-1.0234 0.13672-1.8438 0.84766-2.6602 2.7461-3.1641 5.7539-4.8125 8.9219-4.8984 5.9102-0.15625 10.973 4.9609 11.02 5.0117 1.043 1.0898 2.6914 1.3203 3.9961 0.55078 1.3008-0.76172 1.9062-2.3164 1.4609-3.7578-1.4258-4.6719-3.2305-15.266 0.31641-18.199 2.1875-1.8086 7.3789-0.75391 14.254 2.8867 0.94531 0.50391 2.0898 0.50391 3.043 0 6.8672-3.6406 12.062-4.6953 14.254-2.8867 3.5469 2.9258 1.75 13.523 0.31641 18.191-0.44141 1.4375 0.16797 2.9844 1.457 3.7422 1.293 0.76562 2.9492 0.53906 3.9961-0.52734 0.054688-0.054687 5.0664-5.2188 11.023-5.0195 3.1758 0.085938 6.1719 1.7344 8.9219 4.8906 0.71875 0.82812 0.97266 1.6641 0.83594 2.707-0.23828 1.8594-2.2266 7.0039-14.969 16.113-2.5859-3.2109-6.5078-5.1445-10.785-5.1445h-36.219c-3.6172 0-7.0078 1.3789-9.5469 3.8086-10.789-8.0273-12.895-12.688-13.145-14.809zm-130.62 60.738c0-2.9531 2.4102-5.3555 5.3672-5.3555h29.438c2.9531 0 5.3594 2.4102 5.3594 5.3555v3.9688c0 2.957-2.4102 5.3594-5.3594 5.3594h-29.438c-2.957 0-5.3672-2.4102-5.3672-5.3594zm-12.465-20.277c-0.082031-0.66016 0.082031-1.1484 0.54297-1.6875 2.1445-2.4648 4.375-3.6914 6.7969-3.7695 4.5039-0.10938 8.4727 3.8594 8.5039 3.8828 1.043 1.0938 2.6953 1.3203 3.9883 0.55469 1.3008-0.75391 1.9062-2.3125 1.4648-3.7578-1.4414-4.7148-2.2148-12.254 0.066406-14.137 1.5586-1.2891 5.6367-0.38281 10.906 2.4141 0.95312 0.50781 2.0977 0.50781 3.0469 0 5.2695-2.7969 9.3438-3.6992 10.902-2.4141 2.2891 1.8828 1.5078 9.418 0.066406 14.137-0.44141 1.4297 0.16016 2.9844 1.457 3.7422 1.2891 0.76562 2.9492 0.55078 3.9961-0.52734 0.039063-0.039063 4-4 8.5078-3.8945 2.4219 0.074218 4.6484 1.3047 6.8008 3.7695 0.46875 0.55078 0.625 1.043 0.53906 1.7227-0.1875 1.4102-1.7188 5.3008-11.477 12.359-2.1719-2.4297-5.3242-3.9805-8.8438-3.9805h-29.438c-2.9766 0-5.6914 1.1094-7.7773 2.9258-8.5625-6.457-9.8984-10.039-10.051-11.34zm-32.047 128.93v-59.738c0-22.148 16.5-40.57 38.133-43.312 0.80078 5.7734 5.7539 10.238 11.742 10.238h29.438c5.9844 0 10.938-4.4648 11.738-10.238 21.617 2.7422 38.113 21.145 38.129 43.281v48.941c0 0.015624 0.003907 0.03125 0.003907 0.039062v10.793c0 24.086-19.602 43.684-43.691 43.684h-41.812c-24.082-0.003906-43.68-19.602-43.68-43.688zm110.16 43.684c11.609-6.5781 20.355-17.637 23.852-30.824 5.7695 13.562 16.262 24.395 29.043 30.824zm80.039 0c-22.129 0-42.512-13.895-50.715-34.57-0.80078-2.0156-1.4766-4.082-2.0156-6.1445-0.79688-3.0195-1.3281-6.1328-1.5938-9.2617-0.125-1.4648-0.1875-2.9727-0.1875-4.5v-48.949-0.03125-24.566c0-3.6562 0.36719-7.3086 1.0977-10.879 4.7617-23.262 23.938-40.621 47.238-43.262 0.60547 7.0898 6.5547 12.68 13.793 12.68h36.219c7.2461 0 13.195-5.5859 13.793-12.68 27.363 3.082 48.332 26.234 48.332 54.141v73.504c0 30.059-24.449 54.512-54.504 54.512l-51.457 0.003906z"/>
  <path d="m283.24 548.37h2.4922c7.25 0 13.156 5.8984 13.156 13.145 0 7.25-5.8945 13.148-13.145 13.156h-0.011719-0.019531-16.383c-1.793 0-3.2539 1.457-3.2539 3.2539s1.457 3.2539 3.2539 3.2539h13.148v8.5c0 1.793 1.4609 3.2539 3.2539 3.2539s3.2539-1.457 3.2539-3.2539v-8.7969c9.2969-1.5586 16.402-9.6289 16.402-19.367 0-10.832-8.8164-19.652-19.66-19.652h-2.4922c-7.25 0-13.156-5.8984-13.156-13.148 0-7.2539 5.9062-13.156 13.156-13.156h16.402c1.793 0 3.2539-1.457 3.2539-3.25 0-1.793-1.457-3.2539-3.2539-3.2539h-10.66v-8.5039c0-1.7891-1.457-3.25-3.2539-3.25-1.7969 0-3.2539 1.457-3.2539 3.25v8.5391c-10.484 0.40234-18.895 9.0352-18.895 19.617 0.007813 10.84 8.8242 19.664 19.664 19.664z"/>
 </g>
</svg>