<?xml version="1.0" encoding="UTF-8"?>
<!-- The Best Svg Icon site in the world: iconSvg.co, Visit us! https://iconsvg.co -->
<svg fill="#000000" width="800px" height="800px" version="1.1" viewBox="144 144 512 512" xmlns="http://www.w3.org/2000/svg">
 <g>
  <path d="m483.64 208.12h42.312l-0.003906-25.273c-0.003907-5.6211-2.2617-11.004-6.2656-14.945-4.0039-3.9414-9.418-6.1133-15.039-6.0273h-0.13672 0.003907c-5.5703-0.058594-10.926 2.1328-14.855 6.0781-3.9297 3.9453-6.0977 9.3125-6.0156 14.879z"/>
  <path d="m422.86 393.8c0 14.57 5.7891 28.543 16.094 38.848 10.301 10.301 24.277 16.09 38.848 16.09 14.57 0 28.547-5.7891 38.848-16.09 10.305-10.305 16.094-24.277 16.094-38.848 0-14.574-5.7891-28.547-16.094-38.852-10.301-10.301-24.277-16.09-38.848-16.09-14.566 0.015625-28.531 5.8125-38.828 16.109-10.301 10.301-16.094 24.266-16.113 38.832zm29.586-5.9883h0.003906c2.3164-2.293 6.0547-2.2773 8.3477 0.039062l11.051 11.164 22.977-22.977c1.1016-1.1328 2.6133-1.7773 4.1914-1.7852 1.5781-0.011718 3.0977 0.60938 4.2148 1.7266 1.1172 1.1172 1.7422 2.6367 1.7305 4.2148-0.011719 1.582-0.65625 3.0898-1.7852 4.1914l-27.172 27.418c-1.0859 1.1758-2.582 1.8789-4.1758 1.9688h-0.015625c-1.6016-0.09375-3.1016-0.80859-4.1797-1.9922l-15.227-15.5c-2.2969-2.3633-2.2773-6.1289 0.042969-8.4688z"/>
  <path d="m288.23 181.42-1.2695 233.96c18.992 0 79.832-0.13281 127.68-0.12891-2.375-6.875-3.5859-14.094-3.582-21.363 0-1.2852 0.046875-1.7656 0.11719-3.7305h-105.38c-3.2578 0-5.9023-2.6445-5.9023-5.9062 0-3.2617 2.6445-5.9023 5.9023-5.9023h107.12c1.1406-4.3945 2.6719-8.6758 4.582-12.793h-111.71c-3.2578 0-5.9023-2.6445-5.9023-5.9023 0-3.2617 2.6445-5.9062 5.9023-5.9062h118.92c3.793-4.793 8.1719-9.0898 13.035-12.793h-131.95c-3.2617 0-5.9023-2.6406-5.9023-5.9023 0-3.2617 2.6406-5.9062 5.9023-5.9062h146.74c1.6406-0.09375 3.25 0.46875 4.4727 1.5664 4.7695-1.7539 9.75-2.8789 14.812-3.3477v-144.52c-0.1875-7.6602 2.4375-15.117 7.3711-20.973h-170.89c-5.2578-0.082032-10.332 1.9336-14.102 5.6016-3.7695 3.668-5.918 8.6914-5.9766 13.949zm170.21 129.03c0 3.2617-2.6445 5.9062-5.9062 5.9062h-146.75c-3.2578 0-5.9023-2.6445-5.9023-5.9062 0-3.2578 2.6445-5.9023 5.9023-5.9023h146.75c3.2617 0 5.9062 2.6445 5.9062 5.9023zm-79.855-129.62c14.492 0 28.395 5.7578 38.645 16.008s16.008 24.152 16.004 38.648c0 14.492-5.7578 28.395-16.008 38.645s-24.152 16.008-38.645 16.008c-14.496 0-28.398-5.7578-38.648-16.008s-16.008-24.152-16.008-38.648c0.019531-14.488 5.7812-28.383 16.027-38.629 10.246-10.246 24.141-16.008 38.633-16.023z"/>
  <path d="m378.59 278.33c11.363-0.003906 22.262-4.5156 30.293-12.555 8.0352-8.0352 12.551-18.934 12.551-30.297-0.003906-11.363-4.5156-22.262-12.551-30.293-8.0352-8.0352-18.934-12.551-30.297-12.551-11.367 0-22.262 4.5156-30.297 12.551-8.0352 8.0352-12.551 18.934-12.551 30.297 0.015624 11.359 4.5312 22.25 12.566 30.285 8.0312 8.0312 18.926 12.551 30.285 12.562zm0-35.48v-0.003906c-5.4492 0.003906-10.582-2.5547-13.855-6.9102-3.2734-4.3516-4.3086-9.9922-2.793-15.227 1.5156-5.2305 5.4062-9.4453 10.5-11.375v-2.6953c0-3.2578 2.6445-5.9023 5.9062-5.9023 3.2578 0 5.9023 2.6445 5.9023 5.9023v2.5156c3.4023 1.1797 6.3555 3.3867 8.4453 6.3203 2.0898 2.9297 3.2188 6.4414 3.2227 10.043 0 3.2617-2.6406 5.9023-5.9023 5.9023s-5.9062-2.6406-5.9062-5.9023c0-2.2344-1.3438-4.2461-3.4062-5.1016-2.0664-0.85547-4.4414-0.38281-6.0195 1.1953-1.5781 1.582-2.0508 3.957-1.1953 6.0195 0.85156 2.0625 2.8672 3.4102 5.1016 3.4102 5.6328-0.011719 10.918 2.7188 14.172 7.3203 3.25 4.6016 4.0625 10.496 2.1719 15.801-1.8867 5.3086-6.2422 9.3672-11.668 10.879v1.625c0 3.2578-2.6406 5.9023-5.9023 5.9023-3.2617 0-5.9062-2.6445-5.9062-5.9023v-2.5195c-3.0352-1.3711-5.6094-3.5898-7.4219-6.3867-1.8086-2.7969-2.7734-6.0586-2.7773-9.3906 0-3.2617 2.6445-5.9023 5.9062-5.9023 3.2578 0 5.9023 2.6406 5.9023 5.9023 0 2.2344 1.3438 4.2461 3.4102 5.1016 2.0625 0.85547 4.4375 0.38281 6.0156-1.1953 1.582-1.582 2.0547-3.957 1.1992-6.0195-0.85547-2.0625-2.8711-3.4102-5.1016-3.4102z"/>
  <path d="m483.64 327.29c33.457 2.7695 61.121 31.527 61.121 66.504 0 36.801-30.152 66.742-66.957 66.742v0.003906c-23.848-0.023437-45.875-12.758-57.789-33.418-57.938 0-138.99-0.027344-138.99-0.027344-1.5742-0.011719-3.0781-0.64844-4.1836-1.7695-1.1055-1.043-1.7266-2.4961-1.7188-4.0117l0.95703-176.79h-76.82v249.93h401.47v-249.93h-117.09z"/>
  <path d="m199.26 506.27h401.47v57.07h-401.47z"/>
  <path d="m503.75 627.3h-38.73l-14.66-52.152h-100.71l-14.66 52.152h-38.734c-3.2578 0-5.9023 2.6406-5.9023 5.9023s2.6445 5.9023 5.9023 5.9023h207.49c3.2578 0 5.9023-2.6406 5.9023-5.9023s-2.6445-5.9023-5.9023-5.9023z"/>
 </g>
</svg>