<?xml version="1.0" encoding="UTF-8"?>
<!-- The Best Svg Icon site in the world: iconSvg.co, Visit us! https://iconsvg.co -->
<svg width="800px" height="800px" version="1.1" viewBox="144 144 512 512" xmlns="http://www.w3.org/2000/svg">
 <defs>
  <clipPath id="b">
   <path d="m148.09 478h189.91v127h-189.91z"/>
  </clipPath>
  <clipPath id="a">
   <path d="m462 478h189.9v127h-189.9z"/>
  </clipPath>
 </defs>
 <g clip-path="url(#b)">
  <path d="m321.28 604.67h-157.44c-5.0586-0.003906-9.8086-2.4375-12.766-6.543-2.9609-4.1055-3.7656-9.3828-2.168-14.184l31.488-94.465c1.043-3.1328 3.0508-5.8594 5.7305-7.793 2.6797-1.9297 5.9023-2.9688 9.2031-2.9688h94.465c3.3047 0 6.5273 1.0391 9.207 2.9688 2.6797 1.9336 4.6836 4.6602 5.7305 7.793l31.488 94.465c1.5977 4.8008 0.79297 10.078-2.168 14.184-2.957 4.1055-7.707 6.5391-12.77 6.543zm-135.6-31.488h113.76l-20.992-62.977h-71.773z"/>
 </g>
 <path d="m478.72 604.67h-157.44c-5.0586-0.003906-9.8086-2.4375-12.77-6.543-2.957-4.1055-3.7617-9.3828-2.1641-14.184l31.488-94.465h-0.003906c1.0469-3.1328 3.0508-5.8594 5.7344-7.793 2.6797-1.9297 5.8984-2.9688 9.2031-2.9688h94.465c3.3047 0 6.5234 1.0391 9.207 2.9688 2.6797 1.9336 4.6836 4.6602 5.7305 7.793l31.488 94.465c1.5977 4.8008 0.78906 10.078-2.168 14.184-2.957 4.1055-7.7109 6.5391-12.77 6.543zm-135.6-31.488h113.76l-20.996-62.977h-71.77z"/>
 <path d="m400 510.21h-157.44c-5.0625-0.003906-9.8125-2.4375-12.77-6.543-2.957-4.1055-3.7656-9.3828-2.168-14.184l31.488-94.465c1.0469-3.1328 3.0508-5.8594 5.7305-7.7891 2.6836-1.9336 5.9023-2.9727 9.207-2.9727h94.465c3.3047 0 6.5234 1.0391 9.2031 2.9727 2.6797 1.9297 4.6875 4.6562 5.7305 7.7891l31.488 94.465c1.5977 4.8008 0.79297 10.078-2.1641 14.184-2.9609 4.1055-7.7109 6.5391-12.77 6.543zm-135.6-31.488h113.76l-20.996-62.977h-71.77z"/>
 <path d="m557.44 510.21h-157.44c-5.0625-0.003906-9.8125-2.4375-12.77-6.543-2.9609-4.1055-3.7656-9.3828-2.168-14.184l31.488-94.465c1.043-3.1328 3.0508-5.8594 5.7305-7.7891 2.6797-1.9336 5.9023-2.9727 9.207-2.9727h94.465-0.003906c3.3047 0 6.5273 1.0391 9.207 2.9727 2.6797 1.9297 4.6875 4.6562 5.7305 7.7891l31.488 94.465c1.5977 4.8008 0.79297 10.078-2.168 14.184-2.957 4.1055-7.707 6.5391-12.77 6.543zm-135.6-31.488h113.76l-20.996-62.977h-71.77z"/>
 <path d="m478.72 415.74h-157.44c-5.0586-0.003907-9.8086-2.4375-12.77-6.543-2.957-4.1055-3.7617-9.3789-2.1641-14.184l31.488-94.465-0.003906 0.003907c1.0469-3.1367 3.0508-5.8633 5.7344-7.793 2.6797-1.9336 5.8984-2.9727 9.2031-2.9727h94.465c3.3047 0 6.5234 1.0391 9.207 2.9727 2.6797 1.9297 4.6836 4.6562 5.7305 7.793l31.488 94.465v-0.003906c1.5977 4.8047 0.78906 10.078-2.168 14.184s-7.7109 6.5391-12.77 6.543zm-135.6-31.488h113.76l-20.996-62.977h-71.77z"/>
 <g clip-path="url(#a)">
  <path d="m636.16 604.67h-157.44c-5.0586-0.003906-9.8125-2.4375-12.77-6.543-2.957-4.1055-3.7656-9.3828-2.168-14.184l31.488-94.465c1.0469-3.1328 3.0508-5.8594 5.7305-7.793 2.6836-1.9297 5.9023-2.9688 9.207-2.9688h94.465c3.3047 0 6.5234 1.0391 9.2031 2.9688 2.6836 1.9336 4.6875 4.6602 5.7344 7.793l31.488 94.465h-0.003906c1.5977 4.8008 0.79297 10.078-2.1641 14.184-2.9609 4.1055-7.7109 6.5391-12.77 6.543zm-135.6-31.488h113.76l-20.996-62.977h-71.77z"/>
 </g>
 <path d="m400 258.3c-4.1758 0-8.1797-1.6562-11.133-4.6094-2.9531-2.9531-4.6133-6.957-4.6133-11.133v-47.234c0-5.625 3-10.82 7.8711-13.633s10.875-2.8125 15.746 0 7.8711 8.0078 7.8711 13.633v47.234c0 4.1758-1.6602 8.1797-4.6094 11.133-2.9531 2.9531-6.957 4.6094-11.133 4.6094z"/>
 <path d="m282.73 295.23c-5.1445 0.003906-9.9648-2.5039-12.91-6.7227l-27.074-38.711c-3.1016-4.6094-3.5391-10.516-1.1602-15.535 2.3828-5.0195 7.2344-8.4102 12.766-8.9258 5.5352-0.51562 10.926 1.9258 14.195 6.418l27.066 38.707c2.207 3.1602 3.1836 7.0195 2.7344 10.852-0.44531 3.8281-2.2852 7.3633-5.1641 9.9258-2.8789 2.5664-6.5977 3.9883-10.457 3.9922z"/>
 <path d="m214.07 377.38c-2.2695 0-4.5156-0.49219-6.5781-1.4453l-42.902-19.758c-3.8477-1.7148-6.8477-4.8945-8.332-8.8359-1.4805-3.9414-1.3242-8.3125 0.4375-12.137 1.7617-3.8203 4.9805-6.7812 8.9414-8.2148 3.957-1.4336 8.3281-1.2188 12.129 0.58984l42.902 19.758c4.3828 2.0195 7.5977 5.9336 8.7227 10.625 1.125 4.6875 0.039063 9.6367-2.9492 13.422-2.9883 3.7891-7.543 5.9961-12.367 5.9961z"/>
 <path d="m517.26 295.23c-3.8555-0.007813-7.5742-1.4258-10.453-3.9922-2.8789-2.5625-4.7148-6.0977-5.1641-9.9258-0.44531-3.832 0.52734-7.6914 2.7383-10.852l27.062-38.707c3.2695-4.4922 8.6641-6.9336 14.195-6.418s10.383 3.9062 12.766 8.9258 1.9414 10.926-1.1602 15.535l-27.066 38.711c-2.9492 4.2188-7.7695 6.7305-12.918 6.7227z"/>
 <path d="m585.92 377.38c-4.8242 0-9.3828-2.207-12.367-5.9961-2.9883-3.7852-4.0742-8.7344-2.9492-13.422 1.125-4.6914 4.3398-8.6055 8.7188-10.625l42.906-19.758c3.7969-1.7891 8.1523-1.9844 12.098-0.54688s7.1523 4.3906 8.9102 8.2031c1.7578 3.8125 1.918 8.1719 0.44531 12.102-1.4688 3.9336-4.4492 7.1172-8.2773 8.8398l-42.902 19.758c-2.0664 0.95312-4.3086 1.4453-6.582 1.4453z"/>
</svg>