<?xml version="1.0" encoding="UTF-8"?>
<!-- The Best Svg Icon site in the world: iconSvg.co, Visit us! https://iconsvg.co -->
<svg fill="#000000" width="800px" height="800px" version="1.1" viewBox="144 144 512 512" xmlns="http://www.w3.org/2000/svg">
 <g>
  <path d="m635.78 347.32-7.4922-2.4258-2.5664-7.4375-1.5195 0.51953 2.5586-3.6992-19.445-13.383-8.9414 12.934 12.594 8.7031-43.074 14.855c-4.707-7.1875-12.168-12.117-20.625-13.633s-17.164 0.51953-24.074 5.6289l-94.715-77.863c1.9609-4.1328 2.9883-8.6445 3.0078-13.219-0.027343-6.9609-2.3594-13.715-6.6328-19.211-4.2734-5.4922-10.246-9.418-16.984-11.156v-25.484l15.539 10.715 8.9336-12.965-19.438-13.383-5.0352 7.2734v-6.6367h-15.746v12.133l-7.6055-11.02-19.445 13.383 8.9453 12.984 18.105-12.523v25.488c-8.3438 2.0078-15.473 7.4062-19.672 14.891-4.2031 7.4844-5.0898 16.383-2.4531 24.551l-121.31 73.996c-6.6992-6.5391-15.965-9.75-25.273-8.7461-9.3047 1.0039-17.68 6.1172-22.824 13.934l-11.566-3.9922 10.051-6.9336-8.9648-12.957-19.445 13.383 2.7305 3.9375-4.2578 12.336 26.43 9.1289c-0.0625 0.78906-0.24219 1.5742-0.24219 2.4492h-0.003906c0 8.3516 3.3203 16.359 9.2227 22.266 5.9062 5.9023 13.914 9.2227 22.266 9.2227 2.8047-0.039062 5.5859-0.45703 8.2734-1.2461l64.219 111.94h0.003906c-5.6172 5.4102-8.9961 12.734-9.4648 20.52-0.46484 7.7852 2.0078 15.465 6.9375 21.508l-35.66 47.562-3.2344-10.004-14.957 4.8398 7.2734 22.477 6.0938-1.9766 8.3359 6.2969 44.699-59.598h-0.003906c7.5352 3.125 15.992 3.1914 23.57 0.17969 7.582-3.0117 13.688-8.8594 17.027-16.301l121.23 21.082-0.003906-0.003906c0.76562 10.012 6.2812 19.047 14.832 24.297 8.5547 5.25 19.109 6.082 28.379 2.2344l11.586 15.5h-9.957v15.742h23.617v-6.2969l8.3828-6.2969-21.168-28.215c6.0039-7.3594 8.3125-17.059 6.2695-26.336-2.043-9.2773-8.2148-17.109-16.754-21.266l26.766-125.91c8.0781-0.35938 15.711-3.8164 21.309-9.6523 5.6016-5.8359 8.7422-13.605 8.7695-21.691 0-0.83594-0.17969-1.6211-0.24219-2.4414l43.004-14.824-2.418 7.4609 14.957 4.8398zm-408.97 32.32c-4.1758 0-8.1797-1.6562-11.133-4.6094-2.9492-2.9531-4.6094-6.957-4.6094-11.133 0-4.1758 1.6602-8.1797 4.6094-11.133 2.9531-2.9531 6.957-4.6133 11.133-4.6133s8.1797 1.6602 11.133 4.6133c2.9531 2.9531 4.6133 6.957 4.6133 11.133 0 4.1758-1.6602 8.1797-4.6133 11.133-2.9531 2.9531-6.957 4.6094-11.133 4.6094zm286.4-18.105h0.003906c-1.9609 4.1328-2.9883 8.6445-3.0078 13.219 0 0.83594 0.17969 1.6289 0.24219 2.4492l-102.58 35.391v-123.92c3.8164-0.98438 7.4141-2.6797 10.602-5zm-113.21-118.98c4.1758 0 8.1797 1.6562 11.133 4.6094 2.9492 2.9531 4.6094 6.957 4.6094 11.133s-1.6602 8.1797-4.6094 11.133c-2.9531 2.9531-6.957 4.6133-11.133 4.6133s-8.1797-1.6602-11.133-4.6133c-2.9531-2.9531-4.6133-6.957-4.6133-11.133s1.6602-8.1797 4.6133-11.133c2.9531-2.9531 6.957-4.6094 11.133-4.6094zm-21.883 38.305h-0.003907c3.918 3.7734 8.7461 6.4648 14.012 7.8086v123.92l-134.07-46.25c0.0625-0.82812 0.24219-1.6133 0.24219-2.4492v0.003907c-0.042969-3.082-0.54688-6.1367-1.4883-9.0703zm-56.84 263.45c-4.1758 0-8.1797-1.6602-11.133-4.6133-2.9531-2.9492-4.6094-6.957-4.6094-11.129 0-4.1758 1.6562-8.1836 4.6094-11.133 2.9531-2.9531 6.957-4.6133 11.133-4.6133 4.1758 0 8.1797 1.6602 11.133 4.6133 2.9531 2.9492 4.6133 6.957 4.6133 11.133 0 4.1719-1.6602 8.1797-4.6133 11.129-2.9531 2.9531-6.957 4.6133-11.133 4.6133zm11.98-44.871c-3.7969-1.5664-7.8711-2.3672-11.98-2.3594-2.8008 0.035156-5.582 0.45312-8.2734 1.2422l-64.219-111.94c1.5938-1.5508 3.0195-3.2695 4.25-5.125l134.19 46.289zm140.46 47.617-121.23-21.082h0.003907c-0.5-6.2031-2.8438-12.117-6.7305-16.977l54.238-72.266 77.84 103.79h-0.003906c-1.6406 2.0078-3.0234 4.2188-4.1172 6.5703zm44.359 12.996c0 4.1758-1.6562 8.1836-4.6094 11.133-2.9531 2.9531-6.957 4.6133-11.133 4.6133-4.1758 0-8.1797-1.6602-11.133-4.6133-2.9531-2.9492-4.6133-6.957-4.6133-11.133 0-4.1719 1.6602-8.1797 4.6133-11.133 2.9531-2.9492 6.957-4.6094 11.133-4.6094 4.1758 0 8.1797 1.6602 11.133 4.6094 2.9531 2.9531 4.6094 6.9609 4.6094 11.133zm-17.129-31.348v0.003906c-3.6367 0.12891-7.2227 0.89062-10.594 2.25l-77.582-103.41 102.7-35.426c3.0742 4.5625 7.2852 8.2461 12.219 10.684zm40.746-138.21c-4.1758 0-8.1797-1.6562-11.133-4.6094s-4.6133-6.957-4.6133-11.133c0-4.1758 1.6602-8.1797 4.6133-11.133s6.957-4.6133 11.133-4.6133c4.1758 0 8.1797 1.6602 11.133 4.6133s4.6094 6.957 4.6094 11.133c0 4.1758-1.6562 8.1797-4.6094 11.133s-6.957 4.6094-11.133 4.6094z"/>
  <path d="m555.38 544.69 7.2617-22.473 14.98 4.8438-7.2617 22.473z"/>
  <path d="m569.91 499.75 7.2773-22.469 14.977 4.8516-7.2773 22.469z"/>
  <path d="m540.84 589.63 7.2773-22.469 14.977 4.8516-7.2773 22.469z"/>
  <path d="m584.45 454.81 7.2617-22.473 14.98 4.8438-7.2617 22.473z"/>
  <path d="m598.99 409.88 7.2773-22.469 14.977 4.8516-7.2773 22.469z"/>
  <path d="m520.61 280.2 8.9375-12.961 19.441 13.406-8.9375 12.961z"/>
  <path d="m213.82 500.64 14.98-4.8477 7.2695 22.469-14.98 4.8477z"/>
  <path d="m326.2 228.79 19.441-13.41 8.9375 12.961-19.441 13.41z"/>
  <path d="m287.32 255.6 19.441-13.406 8.9375 12.961-19.441 13.406z"/>
  <path d="m228.36 545.58 14.977-4.8516 7.2773 22.469-14.977 4.8516z"/>
  <path d="m209.55 309.23 19.441-13.406 8.9375 12.961-19.441 13.406z"/>
  <path d="m442.85 226.56 8.9414-12.961 19.441 13.41-8.9414 12.961z"/>
  <path d="m559.49 307.01 8.9375-12.961 19.441 13.406-8.9375 12.961z"/>
  <path d="m481.73 253.38 8.9414-12.961 19.441 13.41-8.9414 12.961z"/>
  <path d="m170.2 365.81 14.98-4.8438 7.2695 22.469-14.98 4.8438z"/>
  <path d="m374.3 604.67h23.617v15.742h-23.617z"/>
  <path d="m327.06 604.67h23.617v15.742h-23.617z"/>
  <path d="m421.53 604.67h23.617v15.742h-23.617z"/>
  <path d="m199.29 455.7 14.98-4.8477 7.2734 22.469-14.98 4.8477z"/>
  <path d="m279.83 604.67h23.617v15.742h-23.617z"/>
  <path d="m468.76 604.67h23.617v15.742h-23.617z"/>
  <path d="m184.74 410.76 14.98-4.8477 7.2695 22.469-14.98 4.8477z"/>
  <path d="m248.43 282.42 19.441-13.41 8.9414 12.961-19.441 13.41z"/>
 </g>
</svg>