<?xml version="1.0" encoding="UTF-8"?>
<!-- The Best Svg Icon site in the world: iconSvg.co, Visit us! https://iconsvg.co -->
<svg fill="#000000" width="800px" height="800px" version="1.1" viewBox="144 144 512 512" xmlns="http://www.w3.org/2000/svg">
 <g>
  <path d="m269.4 514.61c-16.953 0-33.211 6.7383-45.199 18.723-11.988 11.988-18.723 28.246-18.723 45.199s6.7344 33.211 18.723 45.199 28.246 18.723 45.199 18.723 33.211-6.7344 45.199-18.723c11.988-11.988 18.723-28.246 18.723-45.199s-6.7344-33.211-18.723-45.199c-11.988-11.984-28.246-18.723-45.199-18.723zm0 112.41c-12.891 0.019531-25.262-5.082-34.387-14.188-9.125-9.1055-14.258-21.465-14.262-34.355-0.007812-12.891 5.1094-25.258 14.227-34.371 9.1133-9.1172 21.477-14.234 34.367-14.227 12.891 0.007812 25.25 5.1367 34.355 14.262s14.211 21.496 14.191 34.387c0 12.863-5.1094 25.195-14.203 34.289s-21.43 14.203-34.289 14.203z"/>
  <path d="m276.25 572.16c-1.9492-0.64062-3.9531-1.1133-5.9844-1.418-1.7109-0.09375-3.3828-0.57813-4.8789-1.418-0.42188-0.38672-0.67578-0.92188-0.70703-1.4961 0-1.418 1.9688-2.9922 4.6445-2.9922v0.003906c2.5977-0.058594 5.1445 0.74219 7.2422 2.2812 1.3398 1.9766 3.5039 3.2383 5.8828 3.4297 2.3789 0.19141 4.7188-0.70703 6.3555-2.4453 1.6406-1.7344 2.4023-4.1211 2.0742-6.4883-0.33203-2.3633-1.7148-4.4492-3.7656-5.6758-2.9336-2.5273-6.4062-4.3594-10.156-5.3516v-2.9141c0-4.3438-3.5234-7.8711-7.8711-7.8711-4.3477 0-7.8711 3.5273-7.8711 7.8711v3.2305c-3.5273 1.2344-6.5938 3.5156-8.7891 6.5391-2.1953 3.0273-3.4141 6.6484-3.4922 10.383 0.023437 5.0781 2.2344 9.8945 6.0625 13.227 3.6094 2.9766 8.0195 4.8086 12.672 5.2734 1.25 0.17969 2.4883 0.44141 3.7031 0.78906 1.2578 0.39453 2.7539 1.1797 2.7539 2.5195 0 1.3398-1.9688 2.9141-4.5664 2.9141v-0.003906c-2.6641 0.082031-5.2773-0.75-7.3984-2.3594-3.2031-1.9453-7.3281-1.3672-9.8711 1.3867-2.543 2.75-2.793 6.9102-0.59766 9.9492 2.9688 2.4766 6.4297 4.3008 10.152 5.3516v2.8359c0 4.3477 3.5234 7.8711 7.8711 7.8711s7.875-3.5234 7.875-7.8711v-3.1523c3.6055-1.3164 6.7148-3.7188 8.8984-6.875 2.1875-3.1602 3.3398-6.918 3.3008-10.758-0.16016-3.875-1.5664-7.5977-4.0039-10.617-2.4375-3.0195-5.7773-5.1758-9.5352-6.1484z"/>
  <path d="m261.61 464.86v10.707c0 4.3477 3.5234 7.8711 7.8711 7.8711 4.3477 0 7.8711-3.5234 7.8711-7.8711v-10.629c1.0664 0.57812 2.2539 0.90234 3.4648 0.94531 3.2344-0.17969 6.0273-2.3281 7.0391-5.4062 1.0078-3.082 0.027343-6.4648-2.4727-8.5273l-11.098-7.8711h-0.003906c-1.3828-0.91406-2.9883-1.4336-4.6445-1.4961-1.6094 0.050781-3.168 0.57031-4.4844 1.4961l-11.18 7.8711c-1.7305 1.1953-2.9141 3.0312-3.2852 5.1016-0.37109 2.0703 0.10547 4.2031 1.3164 5.9219 2.375 2.7852 6.3516 3.5664 9.6055 1.8867z"/>
  <path d="m269.32 488.8c-4.3477 0-7.875 3.5234-7.875 7.8711v1.1797c0 4.3477 3.5273 7.8711 7.875 7.8711 4.3477 0 7.8711-3.5234 7.8711-7.8711v-1.1797c0-4.3477-3.5234-7.8711-7.8711-7.8711z"/>
  <path d="m557.44 566.1h20.391c4.2812 0.17188 8.4531-1.4102 11.543-4.3828 3.0898-2.9688 4.832-7.0742 4.832-11.359v-22.199c0-4.2891-1.7422-8.3906-4.832-11.363-3.0898-2.9727-7.2617-4.5547-11.543-4.3828h-71.793l-0.47266-100.37c16.531-1.1016 62.27-9.918 74.547-73.211 0.38672-1.8555-0.074219-3.7891-1.2578-5.2734-1.1836-1.5078-2.9648-2.4258-4.8828-2.5195h-1.9688c-11.73 0-51.484 1.8906-70.848 26.449-10.418 14.211-13.539 32.496-8.4219 49.359v23.617c-5.9258-8.9297-14.059-16.172-23.617-21.02-41.25-21.098-98.793 5.7461-101.23 6.9258-1.8125 0.86328-3.1641 2.4727-3.6992 4.4102-0.52344 1.9609-0.17969 4.0547 0.94531 5.7461 46.367 67.699 104.07 57.703 127.05 50.145v35.582h-54.082c-4.2812-0.17188-8.4492 1.4102-11.539 4.3828-3.0938 2.9727-4.8359 7.0742-4.832 11.359v22.355l-20.391 0.003907c-4.2812-0.17188-8.4492 1.4102-11.543 4.3828-3.0898 2.9688-4.832 7.0742-4.8281 11.359v22.516c-0.003906 4.2852 1.7383 8.3906 4.8281 11.359 3.0938 2.9727 7.2617 4.5547 11.543 4.3828h20.387v22.828h0.003906c-0.003906 4.2891 1.7383 8.3906 4.832 11.363 3.0898 2.9727 7.2578 4.5547 11.539 4.3828h139.96c4.2852 0.17187 8.4531-1.4102 11.543-4.3828 3.0898-2.9727 4.8359-7.0742 4.832-11.363v-23.062c0.003906-4.2891-1.7422-8.3906-4.832-11.363-3.0898-2.9688-7.2578-4.5547-11.543-4.3828h-20.625zm-46.445-200.03c13.383-16.848 40.777-20.547 54.238-21.332-10.547 39.754-36.527 50.852-53.137 53.766h0.003906c7.5195-9.4336 16.285-17.801 26.055-24.875 2.9336-2.1758 3.5508-6.3164 1.3789-9.25-2.1758-2.9375-6.3164-3.5508-9.25-1.3789-10.113 7.2656-19.242 15.812-27.16 25.426 0.15234-8.1445 3.0039-16.008 8.1094-22.355zm-129.57 60.141c16.215-6.1406 54.16-17.789 81.238-3.8555 11.773 6.3398 20.695 16.922 24.953 29.598-16.051-8.793-33.285-15.234-51.168-19.129-3.6875-0.6875-7.2539 1.6836-8.043 5.3516-0.78906 3.6719 1.4844 7.3008 5.1328 8.1875 17.523 3.8789 34.371 10.355 49.984 19.211-20.543 6.0586-64.078 10.391-102.1-39.363zm55.578 102.34h141.7v21.809h-141.7zm-37 59.828v-22.121h141.7v21.965zm178.77 15.742v22.121h-141.7l-0.003906-21.566s142.01 0 142.01-0.47266z"/>
  <path d="m371.34 228.07c-1.9453-0.62109-3.9492-1.043-5.9805-1.2617-1.668-0.1875-3.2773-0.72656-4.7266-1.5742-0.41797-0.38672-0.67578-0.92188-0.70703-1.4961 0-1.418 1.9688-2.9922 4.5664-2.9922v0.003906c2.6211-0.046875 5.1875 0.75391 7.3203 2.2812 1.3203 2.0391 3.5039 3.3555 5.9219 3.5703 2.4219 0.21094 4.8008-0.70312 6.457-2.4844 1.6523-1.7773 2.3906-4.2188 2.0039-6.6172-0.38672-2.3984-1.8594-4.4805-3.9922-5.6484-2.9414-2.5352-6.4102-4.3906-10.152-5.4297v-2.8359c0.53125-2.332-0.03125-4.7852-1.5234-6.6562s-3.7578-2.9648-6.1523-2.9648c-2.3984 0-4.6602 1.0938-6.1562 2.9648-1.4922 1.8711-2.0508 4.3242-1.5195 6.6562v3.2305c-3.5273 1.2344-6.5938 3.5156-8.7891 6.5391-2.1953 3.0273-3.4141 6.6484-3.4922 10.383 0.035156 4.8789 2.0859 9.5234 5.668 12.832 3.6094 2.9766 8.0195 4.8125 12.676 5.2734 1.2305 0.13281 2.4453 0.39844 3.6211 0.78906 1.3398 0.39453 2.832 1.1797 2.832 2.4414 0 1.2578-1.9688 2.9922-4.5664 2.9922-2.6641 0.082032-5.2734-0.75391-7.3984-2.3633-3.0312-2.8477-7.7539-2.8477-10.785 0-2.9492 3.0508-2.9492 7.8906 0 10.941 2.957 2.5 6.4219 4.3281 10.156 5.3516v2.8359c-0.53516 2.3359 0.027344 4.7852 1.5195 6.6602 1.4961 1.8711 3.7578 2.9609 6.1562 2.9609 2.3945 0 4.6602-1.0898 6.1523-2.9609 1.4922-1.875 2.0547-4.3242 1.5195-6.6602v-3.2266c3.5391-1.2305 6.6133-3.5117 8.8242-6.5352 2.207-3.0234 3.4414-6.6484 3.5352-10.391-0.15625-3.7773-1.4961-7.4102-3.8242-10.391-2.332-2.9805-5.5352-5.1523-9.1641-6.2188z"/>
  <path d="m441.33 234.69c0.019531-18.328-6.5078-36.055-18.406-49.992-11.902-13.934-28.391-23.156-46.492-26.004-18.102-2.8438-36.625 0.875-52.23 10.484-15.602 9.6094-27.254 24.48-32.855 41.93-5.6016 17.445-4.7852 36.32 2.3086 53.219 7.0898 16.898 19.988 30.703 36.363 38.926v36.449c0.0625 3.9062 1.6562 7.6289 4.4414 10.367 2.7812 2.7383 6.5312 4.2734 10.438 4.2734h39.359c3.9453 0 7.7305-1.5664 10.52-4.3555 2.793-2.793 4.3594-6.5742 4.3594-10.523v-36.445c12.641-6.4023 23.266-16.172 30.711-28.227 7.4453-12.059 11.418-25.934 11.484-40.102zm-57.074 104.22-38.652 0.55078v-30.699c6.2188 1.6445 12.621 2.4922 19.051 2.5195 6.4883-0.019531 12.949-0.89453 19.207-2.5977zm-19.602-43.059c-16.332 0.042969-32.012-6.418-43.574-17.953-11.562-11.531-18.062-27.195-18.062-43.527 0-16.332 6.5-31.996 18.062-43.527 11.566-11.535 27.242-17.996 43.574-17.953 16.336 0.042969 31.98 6.582 43.484 18.176 11.504 11.594 17.922 27.285 17.84 43.621-0.10547 16.242-6.625 31.789-18.141 43.246-11.516 11.457-27.094 17.898-43.34 17.918z"/>
  <path d="m369.14 376.38h-9.2891c-4.3477 0-7.8711-3.5234-7.8711-7.8711 0-4.3477 3.5234-7.875 7.8711-7.875h9.2891c4.3477 0 7.8711 3.5273 7.8711 7.875 0 4.3477-3.5234 7.8711-7.8711 7.8711z"/>
  <path d="m369.14 332.69h-9.2891c-2.3359 0.53516-4.7852-0.027344-6.6602-1.5195-1.8711-1.4961-2.9609-3.7578-2.9609-6.1562 0-2.3945 1.0898-4.6602 2.9609-6.1523 1.875-1.4922 4.3242-2.0547 6.6602-1.5195h9.2891c2.3359-0.53516 4.7852 0.027344 6.6562 1.5195 1.875 1.4922 2.9648 3.7578 2.9648 6.1523 0 2.3984-1.0898 4.6602-2.9648 6.1562-1.8711 1.4922-4.3203 2.0547-6.6562 1.5195z"/>
  <path d="m268.54 241.85h-17.316c-3.582-0.8125-6.125-4-6.125-7.6719 0-3.6758 2.543-6.8594 6.125-7.6758h17.32-0.003906c2.3359-0.53125 4.7852 0.027344 6.6602 1.5195 1.8711 1.4961 2.9609 3.7578 2.9609 6.1562 0 2.3945-1.0898 4.6602-2.9609 6.1523-1.875 1.4922-4.3242 2.0547-6.6602 1.5195z"/>
  <path d="m257.59 275.3c-3.375-0.26172-6.2031-2.6523-7.0234-5.9375-0.82031-3.2852 0.54688-6.7266 3.4023-8.5469l15.273-7.8711c3.3984-0.72266 6.8672 0.87109 8.5352 3.918 1.6719 3.0508 1.1445 6.832-1.293 9.3086l-15.273 7.8711c-1.0742 0.73438-2.3242 1.168-3.6211 1.2578z"/>
  <path d="m272.87 217.05c-1.2656-0.015625-2.5078-0.33984-3.6211-0.94141l-15.273-7.8711v-0.003906c-3.6523-2.0664-5.0391-6.6406-3.1484-10.391 2.0703-3.6523 6.6406-5.0352 10.391-3.1484l15.273 7.8711c2.8516 1.8242 4.2227 5.2617 3.4023 8.5469-0.82031 3.2852-3.6523 5.6758-7.0234 5.9375z"/>
  <path d="m477.77 241.85h-17.32 0.003906c-2.3359 0.53516-4.7891-0.027344-6.6602-1.5195s-2.9609-3.7578-2.9609-6.1523c0-2.3984 1.0898-4.6602 2.9609-6.1562 1.8711-1.4922 4.3242-2.0508 6.6602-1.5195h17.32-0.003906c3.582 0.81641 6.125 4 6.125 7.6758 0 3.6719-2.543 6.8594-6.125 7.6719z"/>
  <path d="m471.4 275.3c-1.2695 0.003906-2.5156-0.32031-3.6211-0.94531l-15.273-7.8711c-2.7773-2.4062-3.5195-6.418-1.7852-9.6602 1.7344-3.2461 5.4844-4.8555 9.0273-3.8789l15.273 7.8711c2.8516 1.8203 4.2227 5.2617 3.4023 8.5469-0.82031 3.2852-3.6484 5.6758-7.0234 5.9375z"/>
  <path d="m456.12 217.05c-3.375-0.26172-6.2031-2.6523-7.0234-5.9375-0.82031-3.2852 0.55078-6.7227 3.4023-8.5469l15.273-7.8711c3.75-1.8867 8.3203-0.50391 10.391 3.1484 1.8906 3.75 0.50391 8.3242-3.1484 10.391l-15.273 7.8711v0.003906c-1.1133 0.60156-2.3555 0.92578-3.6211 0.94141z"/>
 </g>
</svg>