<?xml version="1.0" encoding="UTF-8"?>
<!-- The Best Svg Icon site in the world: iconSvg.co, Visit us! https://iconsvg.co -->
<svg fill="#000000" width="800px" height="800px" version="1.1" viewBox="144 144 512 512" xmlns="http://www.w3.org/2000/svg">
 <g>
  <path d="m340.52 400.26c0-41.59-33.836-75.43-75.43-75.43s-75.434 33.836-75.434 75.43 33.84 75.434 75.434 75.434 75.43-33.84 75.43-75.434zm-75.426 60.32c-33.262 0-60.32-27.059-60.32-60.32 0-33.258 27.059-60.316 60.32-60.316 33.258 0 60.316 27.059 60.316 60.316-0.003906 33.262-27.059 60.32-60.316 60.32z"/>
  <path d="m239.55 384.08c4.0547 0 7.3555 3.293 7.3555 7.3438 0 3.4766 2.8203 6.2969 6.2969 6.2969 3.4766 0 6.2969-2.8203 6.2969-6.2969 0-11-8.9531-19.941-19.949-19.941-11 0-19.941 8.9492-19.941 19.941 0 3.4766 2.8203 6.2969 6.2969 6.2969 3.4766 0 6.2969-2.8203 6.2969-6.2969-0.003906-4.043 3.2969-7.3438 7.3477-7.3438z"/>
  <path d="m291.05 371.49c-11 0-19.941 8.9492-19.941 19.941 0 3.4766 2.8203 6.2969 6.2969 6.2969s6.2969-2.8203 6.2969-6.2969c0-4.0508 3.293-7.3438 7.3438-7.3438 4.0547 0 7.3516 3.293 7.3516 7.3438 0 3.4766 2.8203 6.2969 6.2969 6.2969 3.4766 0 6.2969-2.8203 6.2969-6.2969 0.003906-10.992-8.9453-19.941-19.941-19.941z"/>
  <path d="m294.29 414.05c-3.2344-1.2734-6.8906 0.32812-8.1602 3.5625-3.4141 8.7109-11.672 14.34-21.035 14.34-9.0977 0-17.27-5.4141-20.812-13.801-1.3555-3.2031-5.0625-4.707-8.2539-3.3516-3.2031 1.3555-4.707 5.0469-3.3516 8.2539 5.5234 13.055 18.242 21.488 32.414 21.488 14.582 0 27.441-8.7656 32.758-22.332 1.2734-3.2383-0.32422-6.8906-3.5586-8.1602z"/>
  <path d="m300.43 321.15c11.113 0 20.152-9.0391 20.152-20.152 0-30.289 24.641-54.93 54.93-54.93 19.781 0 37.789 10.707 47.488 27.457-5.457 1.4492-10.105 5.1445-12.75 10.352-3.457 6.8125-2.7969 14.863 1.7148 21.016l22.363 30.582c3.7852 5.168 9.8594 8.2539 16.27 8.2539s12.484-3.082 16.27-8.2539l22.375-30.582c4.5039-6.1562 5.1484-14.207 1.7031-21.016-3.4453-6.8047-10.34-11.035-17.965-11.035l-6.5742 0.003906c-12.277-39.785-48.836-67.082-90.891-67.082-52.512 0-95.234 42.723-95.234 95.234-0.003906 11.109 9.0352 20.152 20.148 20.152zm75.082-100.27c37.059 0 69.051 25.207 77.789 61.305 0.82031 3.3906 3.8594 5.7773 7.3438 5.7773h12.316c1.9062 0 3.6289 1.0547 4.4883 2.7539 0.86719 1.7031 0.70703 3.7188-0.42187 5.2539l-22.375 30.582c-1.8906 2.5898-6.2383 2.5898-8.125 0l-22.371-30.586c-1.1289-1.5352-1.2891-3.5508-0.43359-5.2461 0.86719-1.7031 2.5938-2.7617 4.5039-2.7617h6.2109c2.4492 0 4.7461-1.1875 6.168-3.1836 1.4219-1.9961 1.7773-4.5586 0.96875-6.8711-9.8438-28.082-36.395-46.949-66.059-46.949-38.621 0-70.043 31.422-70.043 70.043 0 2.7773-2.2617 5.0391-5.0391 5.0391-2.7773 0-5.0391-2.2617-5.0391-5.0391-0.003906-44.176 35.938-80.117 80.117-80.117z"/>
  <path d="m489.83 483.16c-11.113 0-20.152 9.0391-20.152 20.152 0 30.289-24.641 54.93-54.926 54.93-19.781 0-37.789-10.707-47.488-27.457 5.457-1.4492 10.105-5.1484 12.746-10.359 3.4492-6.8047 2.7969-14.863-1.707-21.016l-22.371-30.582c-3.7773-5.168-9.8633-8.2539-16.27-8.2539-6.4023 0-12.484 3.082-16.262 8.2539l-22.371 30.578c-4.5078 6.1562-5.1602 14.211-1.707 21.02 3.457 6.8047 10.34 11.035 17.973 11.035h6.5664c12.273 39.785 48.828 67.082 90.891 67.082 52.512 0 95.23-42.723 95.23-95.234 0-11.113-9.0391-20.148-20.152-20.148zm-75.078 100.27c-37.066 0-69.059-25.207-77.789-61.305-0.82031-3.3906-3.8594-5.7773-7.3438-5.7773h-12.316c-1.9102 0-3.6328-1.0586-4.4922-2.7539-0.86328-1.7031-0.69922-3.7188 0.42188-5.2539l22.375-30.582c0.94531-1.293 2.4648-2.0664 4.0664-2.0664s3.1172 0.76953 4.0664 2.0664l22.371 30.582c1.1289 1.5352 1.2891 3.5508 0.42969 5.25-0.86328 1.6992-2.5859 2.7539-4.4922 2.7539h-6.2188c-2.4492 0-4.7461 1.1875-6.168 3.1836-1.4141 2-1.7773 4.5586-0.96875 6.8711 9.8477 28.082 36.395 46.945 66.059 46.945 38.621 0 70.039-31.422 70.039-70.043 0-2.7773 2.2578-5.0391 5.0391-5.0391s5.0391 2.2617 5.0391 5.0391c0 44.184-35.941 80.129-80.117 80.129z"/>
  <path d="m394.91 460.88c4.1758 0 7.5586-3.3789 7.5586-7.5586v-6.1328c15.68-3.3359 21.578-18.164 21.578-27.625 0-7.0391-2.5547-17.852-18.777-23.438l-14.57-4.8047c-2.2422-0.71875-11.324-3.9531-10.359-12.941 0.36719-3.4297 1.3711-6.0703 4.1094-7.8711 2.2383-1.4375 5.0078-2.1562 8.3086-2.1562 5.6055 0 9.4219 0.94531 11.914 4.1758 1.3711 1.8672 1.8125 3.2383 2.1875 6.4727 0 0 0.44141 5.3242 6.8203 5.3242 6.3789 0 7.3672-5.0742 7.4922-5.9844 0.5625-4.1445-1.6836-11.078-4.832-15.195-3.4023-4.4648-8.1562-7.25-13.887-8.5938v-6.8672c0-4.1758-3.3789-7.5586-7.5586-7.5586-4.1758 0-7.5586 3.3789-7.5586 7.5586v6.4141c-6.9219 1.1133-12.227 4.0898-15.875 8.9727-3.3594 4.5234-8.9766 13.238-3.2227 28.312 4.957 13.004 28.621 17.156 28.621 17.156 4.418 1.0781 12.867 2.7695 12.891 12.965 0.003906 3.7148-2.2617 10.621-12.973 11.453-0.60547-0.15625-1.2305-0.26562-1.8828-0.26562-0.71875 0-1.4023 0.13281-2.0625 0.31641-5.6133-0.52734-12.332-3.5703-12.332-13.121 0 0 0.10156-5.5508-6.8203-5.5508-6.9219 0-7.4609 5.5508-7.4609 5.5508 0 7.0391 1.0078 11.996 4.6836 16.809 5.1445 6.8008 11.352 9.4219 16.438 10.469v6.1445c0.011718 4.1875 3.3984 7.5703 7.5703 7.5703z"/>
  <path d="m583.41 398.11c7.9922 0 15.195-4.7344 18.355-12.066 3.168-7.332 1.6758-15.82-3.7969-21.633-0.27344-0.28906-0.55859-0.55469-0.875-0.79688l-59.367-45.938c-3.7188-3.707-8.8203-5.8203-14.102-5.8203-5.2695 0-10.367 2.1094-14.09 5.8203l-59.375 45.941c-0.3125 0.24609-0.60938 0.51562-0.88672 0.80469-5.457 5.8125-6.9492 14.297-3.7891 21.629 3.168 7.332 10.375 12.066 18.355 12.066l0.089843 24.016c-10.066 0.49219-18.102 8.8438-18.102 19.027 0 10.504 8.543 19.051 19.043 19.051h117.51c10.504 0 19.051-8.543 19.051-19.051 0-10.184-8.0352-18.531-18.098-19.023v-24.016l0.074219 0.003906zm-7.6328 39.105h6.6055c2.1719 0 3.9336 1.7695 3.9336 3.9336 0 2.168-1.7695 3.9336-3.9336 3.9336l-117.52 0.003907c-2.1719 0-3.9297-1.7617-3.9297-3.9336s1.7617-3.9336 3.9297-3.9336h6.6094c4.1719 0 7.5586-3.3789 7.5586-7.5586v-39.105c0-4.1758-3.3867-7.5586-7.5586-7.5586h-7.6484c-1.9492 0-3.7031-1.1523-4.4727-2.9375-0.71484-1.6484-0.45703-3.5352 0.62891-4.9375l59.207-45.812c0.3125-0.24609 0.60938-0.51562 0.88672-0.80469 1.8398-1.9531 5.2695-1.9336 7.0781-0.003906 0.27734 0.29688 0.57031 0.5625 0.89062 0.8125l59.207 45.816c1.0898 1.3945 1.3438 3.2812 0.625 4.9336-0.76562 1.7852-2.5234 2.9375-4.4727 2.9375h-7.6367c-4.1719 0-7.5586 3.3789-7.5586 7.5586v39.105c0.011719 4.1641 3.3984 7.5508 7.5703 7.5508z"/>
  <path d="m498.99 384.88c-4.1719 0-7.5586 3.3789-7.5586 7.5586v23.723c0 4.1758 3.3867 7.5586 7.5586 7.5586s7.5586-3.3789 7.5586-7.5586l-0.003906-23.723c0-4.1758-3.3789-7.5586-7.5547-7.5586z"/>
  <path d="m523.62 384.88c-4.1719 0-7.5586 3.3789-7.5586 7.5586v23.723c0 4.1758 3.3867 7.5586 7.5586 7.5586 4.1719 0 7.5586-3.3789 7.5586-7.5586v-23.723c0-4.1758-3.3867-7.5586-7.5586-7.5586z"/>
  <path d="m548.25 384.88c-4.1719 0-7.5586 3.3789-7.5586 7.5586v23.723c0 4.1758 3.3867 7.5586 7.5586 7.5586s7.5586-3.3789 7.5586-7.5586v-23.723c0-4.1758-3.3867-7.5586-7.5586-7.5586z"/>
 </g>
</svg>