<?xml version="1.0" encoding="UTF-8"?>
<!-- The Best Svg Icon site in the world: iconSvg.co, Visit us! https://iconsvg.co -->
<svg fill="#000000" width="800px" height="800px" version="1.1" viewBox="144 144 512 512" xmlns="http://www.w3.org/2000/svg">
 <g>
  <path d="m324.44 392.04c9.5469 9.5469 23.461 13.273 36.5 9.7773 13.039-3.4922 23.227-13.68 26.723-26.719 3.4922-13.039-0.23438-26.953-9.7812-36.5s-23.461-13.277-36.5-9.7812c-13.043 3.4922-23.227 13.68-26.723 26.719-3.4922 13.043 0.23438 26.957 9.7812 36.504zm26.727-55.016c7.5117-0.011719 14.723 2.9688 20.031 8.2852 6.25 6.2305 9.2422 15.016 8.1016 23.766-1.1445 8.75-6.293 16.473-13.93 20.891-7.6406 4.4219-16.902 5.0352-25.055 1.6602-8.1562-3.3711-14.277-10.348-16.566-18.871-2.2852-8.5234-0.47656-17.625 4.8945-24.629 5.3711-7 13.695-11.105 22.523-11.102z"/>
  <path d="m588.93 445.41-97.789-97.789c-0.86719-0.86719-2.0391-1.3594-3.2656-1.3789l-54.613-0.89453-86.594-86.594c-31.113-31.074-91.434-45.875-119.68-17.613s-13.453 88.559 17.645 119.68l86.594 86.594 0.89453 54.613v-0.003907c0.015625 1.2266 0.51172 2.3984 1.375 3.2656l97.793 97.793c1.4297 1.418 3.6055 1.7734 5.4141 0.88672 1.8086-0.88672 2.8594-2.8242 2.6133-4.8242l-8.1953-60.426c11-4.0391 21.527-9.2656 31.398-15.578l40.57 40.57c1.5352 1.5781 3.9531 1.8867 5.8359 0.74609 1.8828-1.1406 2.7266-3.4297 2.0352-5.5195l-15.91-49.711 49.605 15.832c2.0898 0.69922 4.3867-0.14453 5.5312-2.0273 1.1445-1.8828 0.83203-4.3086-0.75-5.8438l-40.059-40.051c6.3906-9.9336 11.488-20.645 15.164-31.871l60.367 8.1758v0.003906c0.20703 0.03125 0.41797 0.046875 0.62891 0.046875 1.9141 0.003907 3.6445-1.1445 4.375-2.9141 0.73438-1.7656 0.32812-3.8047-1.0273-5.1523zm-355.22-197.59c20.949-20.949 65.496-13.027 94.945 8.0703-8.668 29.859-26.066 53.574-51.797 70.539-10.816 7.1719-22.641 12.695-35.082 16.383-21.125-29.41-29.066-74.035-8.0664-94.992zm107.8 252.09-0.70703-42.934 80.621 80.609 6.6211 48.855zm147.7-2.5c-1.6719-0.51562-3.4922-0.0625-4.7305 1.1758-1.2383 1.2383-1.6875 3.0547-1.1758 4.7305l12.715 39.824-29.52-29.52-64.344-64.355-4.832-37.863 37.875 4.8203 93.875 93.883zm13.352-27.109-61.875-61.883c-0.74219-0.73828-1.707-1.2148-2.7422-1.3477l-45.531-5.8047c-1.4492-0.1875-2.9062 0.30859-3.9375 1.3438-1.0352 1.0352-1.5312 2.4883-1.3477 3.9375l5.8047 45.539c0.13281 1.043 0.60547 2.0078 1.3516 2.7461l61.352 61.352v0.003906c-8.9844 5.5664-18.527 10.184-28.469 13.773l-175.85-175.85c-1.0742-1.0703-2.1289-2.1875-3.1602-3.3555v-0.003907c11.855-3.9062 23.145-9.3633 33.574-16.227 26.113-17 45.496-42.562 54.828-72.293 1.1797 1.0508 2.3203 2.1211 3.4258 3.2188l175.89 175.87c-3.2266 10.168-7.6992 19.902-13.312 28.977zm20.879-34.746-80.609-80.609 42.934 0.70703 86.535 86.523z"/>
  <path d="m383.65 267h0.058594l28.113-0.36328 16.227 22.957c0.89453 1.2383 2.332 1.9727 3.8594 1.9688 0.24609 0 0.49219-0.019531 0.73828-0.058594 1.7773-0.28516 3.2422-1.5508 3.7773-3.2695l8.3438-26.844 26.844-8.3438c1.7148-0.53906 2.9766-2.0039 3.2539-3.7773 0.28125-1.7773-0.46875-3.5547-1.9336-4.5977l-22.949-16.195 0.36328-28.113h0.003906c0.015626-1.7969-0.98437-3.4492-2.5859-4.2656-1.6055-0.81641-3.5312-0.65234-4.9727 0.41797l-22.523 16.816-26.629-9.0312c-1.7031-0.57031-3.582-0.12891-4.8516 1.1406-1.2695 1.2695-1.7109 3.1484-1.1406 4.8516l9.0234 26.629-16.809 22.523h0.003907c-1.0742 1.4297-1.2461 3.3477-0.44531 4.9492 0.80078 1.6016 2.4414 2.6094 4.2305 2.6055zm22.082-26.41c0.93359-1.2461 1.1914-2.875 0.69141-4.3477l-6.75-19.898 19.906 6.75c1.4727 0.49219 3.0977 0.23828 4.3477-0.6875l16.848-12.574-0.27734 21.02v-0.003906c-0.03125 1.5586 0.70312 3.0273 1.9688 3.9375l17.16 12.145-20.074 6.2383v-0.003907c-1.4844 0.46094-2.6484 1.625-3.1094 3.1094l-6.2383 20.062-12.102-17.188c-0.89453-1.2422-2.332-1.9766-3.8594-1.9688h-0.058594l-21.02 0.26562z"/>
  <path d="m286.1 522.64-17.859-12.633 0.27734-21.863-0.003906-0.003907c0.023437-1.7969-0.97656-3.4531-2.5781-4.2695s-3.5273-0.65234-4.9688 0.42188l-17.535 13.117-20.664-7.0273v0.003906c-1.7031-0.57422-3.582-0.13281-4.8516 1.1406-1.2695 1.2695-1.7109 3.1484-1.1406 4.8516l7.0273 20.664-13.129 17.543c-1.0664 1.4336-1.2383 3.3477-0.43359 4.9453 0.80078 1.5938 2.4336 2.6055 4.2227 2.6016h0.058594l21.863-0.27734 12.633 17.852h0.003907c0.89062 1.2461 2.3281 1.9805 3.8555 1.9688 0.24609 0.015624 0.49219 0.015624 0.73828 0 1.7773-0.28516 3.2383-1.5508 3.7812-3.2656l6.4844-20.891 20.891-6.4961c1.7148-0.53125 2.9805-1.9922 3.2617-3.7695 0.28125-1.7734-0.46875-3.5547-1.9336-4.5938zm-27.395 6.5742c-1.4883 0.46094-2.6484 1.625-3.1094 3.1094l-4.3867 14.109-8.5312-12.062h-0.003907c-0.89062-1.2422-2.3281-1.9727-3.8555-1.9688h-0.058593l-14.762 0.1875 8.8555-11.809c0.93359-1.2422 1.1914-2.8672 0.6875-4.3398l-4.7617-14.062 13.992 4.7422c1.4766 0.5 3.1016 0.24219 4.3516-0.6875l11.809-8.8555-0.1875 14.762c-0.027344 1.5547 0.70703 3.0234 1.9648 3.9336l12.062 8.5312z"/>
 </g>
</svg>