<?xml version="1.0" encoding="UTF-8"?>
<!-- The Best Svg Icon site in the world: iconSvg.co, Visit us! https://iconsvg.co -->
<svg fill="#000000" width="800px" height="800px" version="1.1" viewBox="144 144 512 512" xmlns="http://www.w3.org/2000/svg">
 <g>
  <path d="m228.78 536.77v1.8867c-5.8555 2.0781-10.375 6.8047-12.191 12.746-1.8125 5.9414-0.69922 12.391 2.9961 17.383 3.6992 4.9922 9.543 7.9336 15.754 7.9297 3.1562 0 6 1.8984 7.207 4.8125s0.53906 6.2695-1.6914 8.5-5.582 2.8984-8.4961 1.6914c-2.9141-1.207-4.8164-4.0508-4.8164-7.2031 0-3.2617-2.6406-5.9062-5.9023-5.9062s-5.9062 2.6445-5.9062 5.9062c0.007813 3.8672 1.1523 7.6484 3.3008 10.867 2.1445 3.2188 5.1953 5.7305 8.7617 7.2227v4.0312c0 3.2578 2.6445 5.9023 5.9062 5.9023 3.2578 0 5.9023-2.6445 5.9023-5.9023v-3c6.3398-1.4102 11.566-5.8711 13.961-11.906 2.3945-6.0352 1.6406-12.867-2.0078-18.238-3.6484-5.3711-9.7227-8.5859-16.219-8.5859-3.9922 0-7.3398-3.0195-7.75-6.9883-0.41406-3.9727 2.2383-7.6133 6.1484-8.4375 0.3125 0.050781 0.62891 0.082031 0.94922 0.082031 0.50781 0 1.0156-0.066406 1.5078-0.19531 3.9492 0.4375 6.9375 3.7734 6.9453 7.75 0 3.2578 2.6406 5.9023 5.9023 5.9023s5.9062-2.6445 5.9062-5.9023c-0.007813-4.2852-1.4141-8.4453-4.0078-11.855-2.5898-3.4062-6.2266-5.875-10.352-7.0234v-1.4688c0-3.2578-2.6445-5.9023-5.9023-5.9023-3.2617 0-5.9062 2.6445-5.9062 5.9023z"/>
  <path d="m621.44 345.28c-11.086-9.0195-23.789-15.844-37.43-20.102v-35.129c-0.13281-0.94531-0.47266-1.8438-0.99219-2.6406l-5.8984-11.059v-11.48l16.367-12.723h0.003906c1.3203-1.0117 2.1641-2.5234 2.3281-4.1797 0.14453-1.6328-0.39844-3.2578-1.5039-4.4727l-14.832-16.078 14.957-17.023c2.1406-2.4336 1.9219-6.1367-0.49219-8.2969l-33.828-30.238c-2.0586-1.8398-5.1172-2.0078-7.3633-0.40234l-21.453 15.375c-1.5312 1.1172-2.4258 2.9102-2.3984 4.8047v133.07c-14.336 4.1016-27.68 11.102-39.207 20.566-1.3633 1.1289-2.1445 2.8125-2.1211 4.582v103.51c-0.046875 1.5156 0.53125 2.9805 1.5977 4.0547 1.0703 1.0742 2.5352 1.6602 4.0508 1.6172h56.344v85.781c0 40.258-32.82 72.645-73.078 72.645h-1.7656c-19.293 0.050781-37.809-7.582-51.461-21.215-13.652-13.629-21.316-32.137-21.297-51.43v-168.41c0-46.77-38.348-84.82-85.117-84.82-46.766 0-85.113 38.051-85.113 84.82v133.58c0 0.11719 0.18359 0.23437 0.19141 0.35156v0.003906c-20.344 1.1133-38.672 12.648-48.477 30.512-9.8047 17.859-9.6953 39.516 0.28516 57.273 9.9844 17.762 28.426 29.113 48.777 30.027 20.355 0.91016 39.738-8.7461 51.27-25.543 11.527-16.801 13.574-38.359 5.4062-57.023s-25.391-31.793-45.555-34.723c-0.007812-0.29297-0.039062-0.58594-0.089843-0.87891v-133.58c0-40.258 33.051-73.012 73.309-73.012 40.258 0 73.309 32.754 73.309 73.012v168.41c-0.015625 22.422 8.8906 43.93 24.758 59.773 15.863 15.848 37.383 24.727 59.805 24.676h1.7617c46.773 0 84.891-37.68 84.891-84.449v-85.781h56.188c1.5312 0.050782 3.0156-0.52734 4.1094-1.5977 1.0977-1.0703 1.707-2.543 1.6953-4.0742v-103.51c0.09375-1.7422-0.61719-3.4297-1.9297-4.5781zm-339.09 223.78c0 12.469-4.9531 24.422-13.77 33.238-8.8125 8.8164-20.77 13.766-33.234 13.766-12.469 0-24.422-4.9492-33.238-13.766-8.8164-8.8164-13.766-20.77-13.766-33.238 0-12.465 4.9492-24.422 13.766-33.234 8.8164-8.8164 20.77-13.77 33.238-13.77 12.461 0.015625 24.406 4.9727 33.215 13.785 8.8125 8.8125 13.77 20.758 13.781 33.219zm258.36-374.39 15.137-10.863 25.906 23.191-14.609 16.617c-1.9961 2.2656-1.957 5.6758 0.089844 7.8984l14.113 15.293-13.602 10.547h-0.003906c-1.4688 1.1016-2.3633 2.8086-2.4297 4.6406v15.746c0.12891 0.94141 0.46875 1.8438 0.99219 2.6406l5.8945 11.055v31.02c-5.4688-0.89453-10.996-1.3555-16.539-1.3789-5.0039 0.007813-10 0.38281-14.949 1.125zm70.848 252.55h-112.18v-94.52c16.727-12.98 36.035-19.824 56.09-19.824 20.055 0 39.359 6.8438 56.09 19.824z"/>
  <path d="m532.47 415.74c0 3.2617 2.6406 5.9062 5.9023 5.9062h34.035c3.2578 0 5.9023-2.6445 5.9023-5.9062 0-3.2617-2.6445-5.9023-5.9023-5.9023h-34.035c-3.2617 0-5.9023 2.6406-5.9023 5.9023z"/>
 </g>
</svg>