<?xml version="1.0" encoding="UTF-8"?>
<!-- The Best Svg Icon site in the world: iconSvg.co, Visit us! https://iconsvg.co -->
<svg fill="#000000" width="800px" height="800px" version="1.1" viewBox="144 144 512 512" xmlns="http://www.w3.org/2000/svg">
 <g>
  <path d="m271.5 472.74-0.023437-0.046876-0.085938 0.046876z"/>
  <path d="m530.45 472.74-0.03125-0.015626-0.007813 0.015626z"/>
  <path d="m620.41 400c-0.015624-48.062-15.746-94.805-44.785-133.1-29.043-38.297-69.805-66.051-116.08-79.035-46.273-12.984-95.527-10.488-140.25 7.1094-44.723 17.598-82.473 49.332-107.49 90.371-25.02 41.035-35.938 89.125-31.098 136.95 4.8438 47.816 25.18 92.742 57.918 127.93l22.34-22.34c-33.32-36.203-51.203-83.977-49.844-133.16 1.3594-49.188 21.855-95.898 57.121-130.21 35.27-34.309 82.535-53.504 131.74-53.504 49.203 0 96.465 19.195 131.73 53.504 35.27 34.309 55.762 81.02 57.121 130.21 1.3594 49.184-16.523 96.957-49.844 133.16l22.387 22.34c38.098-40.723 59.215-94.453 59.039-150.22z"/>
  <path d="m379.53 388.19c-4.2188 7.3125-4.2148 16.32 0.007812 23.629 4.2227 7.3086 12.023 11.809 20.469 11.809 8.4414-0.003906 16.238-4.5117 20.457-11.824 4.6836-8.125 11.469-44.871 16.129-75.18-23.906 19.195-52.34 43.449-57.062 51.566zm28.34-1.8281c4.0312 2.3281 6.8242 6.3203 7.6328 10.902s-0.45312 9.2891-3.4453 12.852c-2.9922 3.5664-7.4062 5.625-12.059 5.625-2.7656 0.011718-5.4844-0.71875-7.875-2.1094-3.6445-2.0742-6.3125-5.5156-7.4102-9.5625-1.0977-4.0469-0.53906-8.3633 1.5586-11.996 2.0977-3.6328 5.5547-6.2773 9.6094-7.3477 4.0547-1.0742 8.3711-0.48437 11.988 1.6367z"/>
  <path d="m329.15 620.41h141.7c6.2617 0 12.27-2.4883 16.699-6.9141 4.4297-4.4297 6.9141-10.438 6.9141-16.699v-78.723c0-6.2617-2.4844-12.27-6.9141-16.699-4.4297-4.4297-10.438-6.918-16.699-6.918h-141.7c-6.2617 0-12.27 2.4883-16.695 6.918-4.4297 4.4297-6.918 10.438-6.918 16.699v78.723c0 6.2617 2.4883 12.27 6.918 16.699 4.4258 4.4258 10.434 6.9141 16.695 6.9141zm78.719-55.105-15.742 0.003906c-8.4375 0-16.23-4.5039-20.449-11.809-4.2188-7.3086-4.2188-16.309 0-23.617 4.2188-7.3086 12.012-11.809 20.449-11.809v-7.8711c0-4.3477 3.5273-7.8711 7.875-7.8711s7.8711 3.5234 7.8711 7.8711v7.8711c6.2617 0 12.27 2.4883 16.699 6.918 4.4297 4.4297 6.918 10.434 6.918 16.699 0 4.3477-3.5273 7.8711-7.875 7.8711-4.3477 0-7.8711-3.5234-7.8711-7.8711 0-2.0898-0.82813-4.0898-2.3047-5.5664-1.4766-1.4766-3.4805-2.3047-5.5664-2.3047h-15.746c-4.3477 0-7.8711 3.5234-7.8711 7.8711 0 4.3477 3.5234 7.8711 7.8711 7.8711h15.746c8.4375 0 16.234 4.5 20.453 11.809s4.2188 16.309 0 23.617c-4.2188 7.3047-12.016 11.809-20.453 11.809v7.8711c0 4.3477-3.5234 7.8711-7.8711 7.8711s-7.875-3.5234-7.875-7.8711v-7.8711c-6.2617 0-12.27-2.4883-16.699-6.918-4.4258-4.4297-6.9141-10.438-6.9141-16.699 0-4.3477 3.5234-7.8711 7.8711-7.8711 4.3477 0 7.8711 3.5234 7.8711 7.8711 0 2.0859 0.82812 4.0898 2.3047 5.5664 1.4766 1.4766 3.4805 2.3047 5.5664 2.3047h15.746c4.3477 0 7.8711-3.5234 7.8711-7.8711s-3.5234-7.8711-7.8711-7.8711z"/>
  <path d="m498.32 465.86c-3.7344-2.1875-5-6.9805-2.8359-10.727s6.9453-5.0469 10.707-2.9062l20.246 11.691v-0.003906c8.8203-17.441 13.934-36.523 15.02-56.039h-23.379c-4.3477 0-7.8711-3.5234-7.8711-7.8711s3.5234-7.875 7.8711-7.875h23.215c-1.0391-19.492-6.1328-38.555-14.957-55.969l-20.145 11.621c-1.8086 1.0586-3.9648 1.3555-5.9922 0.81641-2.0273-0.53516-3.7578-1.8555-4.8047-3.6719-1.0508-1.8164-1.3281-3.9766-0.78125-6 0.55078-2.0234 1.8828-3.7461 3.707-4.7812l20.16-11.645v0.003906c-10.719-16.32-24.668-30.27-40.988-40.984l-11.637 20.16c-2.1875 3.7344-6.9805 5-10.727 2.8359-3.7461-2.1641-5.0469-6.9453-2.9062-10.707l11.617-20.129c-17.414-8.8203-36.477-13.914-55.969-14.957v23.199c0 4.3477-3.5234 7.8711-7.8711 7.8711s-7.875-3.5234-7.875-7.8711v-23.215c-19.492 1.043-38.555 6.1367-55.969 14.957l11.617 20.129h0.003906c1.0586 1.8086 1.3555 3.9648 0.81641 5.9922-0.53516 2.0273-1.8555 3.7578-3.6719 4.8047-1.8164 1.0508-3.9766 1.332-6 0.78125-2.0234-0.55078-3.7461-1.8828-4.7812-3.707l-11.637-20.16h0.003906c-16.324 10.715-30.273 24.664-40.992 40.984l20.16 11.645v-0.003906c1.8242 1.0352 3.1562 2.7578 3.707 4.7812 0.55078 2.0234 0.26953 4.1836-0.78125 6-1.0469 1.8125-2.7773 3.1367-4.8047 3.6719s-4.1836 0.24219-5.9922-0.82031l-20.129-11.602c-8.8203 17.414-13.914 36.477-14.957 55.969h23.199c4.3477 0 7.8711 3.5273 7.8711 7.875s-3.5234 7.8711-7.8711 7.8711h-23.379c1.082 19.516 6.2109 38.59 15.059 56.016l20.207-11.668v0.003906c1.8086-1.0625 3.9648-1.3555 5.9922-0.82031s3.7578 1.8594 4.8047 3.6758c1.0508 1.8125 1.332 3.9727 0.78125 5.9961-0.55078 2.0234-1.8828 3.7461-3.707 4.7812l-25.191 14.547h0.003906c5.0352 7.5586 10.746 14.645 17.059 21.176 3.1406-6.8047 8.1602-12.57 14.469-16.621 6.3047-4.0508 13.641-6.2148 21.133-6.2383h141.7c7.7383 0.007812 15.305 2.2969 21.754 6.5742 6.4492 4.2812 11.496 10.363 14.512 17.492 6.5703-6.6406 12.512-13.875 17.742-21.609zm-64.234-46.176c-5.1992 9.0586-13.805 15.664-23.902 18.34-3.3359 0.89453-6.7773 1.3516-10.23 1.3555-14.051-0.023438-27.023-7.5352-34.039-19.707-7.0156-12.176-7.0117-27.164 0.015626-39.332 9.2031-15.941 69.637-63.031 76.5-68.352v-0.003906c2.5273-1.9414 5.9766-2.1641 8.7344-0.56641 2.7578 1.5938 4.2812 4.6992 3.8594 7.8555-1.1641 8.5898-11.73 84.469-20.938 100.41z"/>
 </g>
</svg>