<?xml version="1.0" encoding="UTF-8"?>
<!-- The Best Svg Icon site in the world: iconSvg.co, Visit us! https://iconsvg.co -->
<svg fill="#000000" width="800px" height="800px" version="1.1" viewBox="144 144 512 512" xmlns="http://www.w3.org/2000/svg">
 <g>
  <path d="m608.84 565.79h-36.062v-88.926c0-1.2109-0.53125-2.3633-1.457-3.1484l-23.293-19.602-0.058594-32.129v0.003907c11.348-1.2656 21.508-7.6211 27.602-17.277 6.0977-9.6562 7.4688-21.562 3.7305-32.352-3.7383-10.789-12.184-19.293-22.945-23.105-10.766-3.8125-22.68-2.5195-32.375 3.5078l-206.89-64.02 4.9219-15.969 7.5781-24.461-0.003906-0.003906c0.32031-1.0391 0.21484-2.168-0.29297-3.1289-0.50781-0.96484-1.3828-1.6875-2.4219-2.0039l-54.801-17.004c-1.043-0.32812-2.168-0.22656-3.1367 0.28125-0.96484 0.50781-1.6875 1.3789-2.0078 2.4219l-7.5977 24.504-39.941 128.96c-0.21484 0.75-0.21484 1.5469 0 2.293l13.934 51.098v82.656l-14.387 0.003906c-2.2656 0.003907-4.1016 1.8438-4.1016 4.1133v43.297h-23.617c-1.125-0.058594-2.2227 0.35156-3.0391 1.1289-0.8125 0.77344-1.2734 1.8516-1.2734 2.9766s0.46094 2.2031 1.2734 2.9805c0.81641 0.77734 1.9141 1.1836 3.0391 1.1289h417.62c1.125 0.054688 2.2227-0.35156 3.0352-1.1289 0.81641-0.77734 1.2773-1.8555 1.2773-2.9805s-0.46094-2.2031-1.2773-2.9766c-0.8125-0.77734-1.9102-1.1875-3.0352-1.1289zm-44.281-62.387h-41.277v-24.602l20.664-17.379 20.664 17.379zm-24.895-81.438 0.14844 32.148-23.281 19.602c-0.93359 0.78125-1.4688 1.9336-1.4688 3.1484v88.926h-72.953c0.64844-13.312 0.71875-53.785 0-182.04l70.621 21.863c6.1523 9.1289 15.996 15.105 26.934 16.355zm33.516-37.32c0 7.7812-3.0938 15.246-8.5938 20.75-5.5039 5.5-12.969 8.5938-20.75 8.5938s-15.246-3.0938-20.75-8.5938c-5.5-5.5039-8.5938-12.969-8.5938-20.75s3.0938-15.246 8.5938-20.75c5.5039-5.5 12.969-8.5938 20.75-8.5938 7.7773 0.011718 15.238 3.1055 20.738 8.6055s8.5938 12.957 8.6055 20.738zm-56.797-25.586c-4.4961 4.8047-7.6445 10.707-9.1328 17.113-1.4883 6.4062-1.2656 13.094 0.64844 19.387l-204.29-63.262 11.051-35.699zm-242.84-123.82 47.016 14.555-5.1836 16.617-47.016-14.555zm-7.5781 24.461 47.016 14.562-4.9219 15.969-13.48 43.551-19.926 64.383-34.988 29.711-12.062-44.281zm-24.461 177.39 39.359-33.406h0.003907c0.59766-0.50781 1.0352-1.1719 1.2656-1.918l19.07-61.609 91.867 28.438v197.2h-133.05v-43.297c0-2.2695-1.8438-4.1133-4.1133-4.1133h-14.398zm-18.5 128.71 0.003906-39.152h28.793v39.152zm178.26 0 0.003906-194.66 32.621 10.098c0.375 67.363 0.69922 164.8 0.22656 184.56zm122.02 0 0.003906-54.168h41.277v54.168z"/>
  <path d="m416.25 355.21c3.0273 0 5.7578-1.8242 6.918-4.6211s0.51953-6.0195-1.6211-8.1602c-2.1445-2.1406-5.3633-2.7812-8.1641-1.625-2.7969 1.1602-4.6211 3.8906-4.6211 6.918 0 1.9883 0.78906 3.8906 2.1953 5.2969 1.4023 1.4023 3.3086 2.1914 5.293 2.1914z"/>
 </g>
</svg>