<?xml version="1.0" encoding="UTF-8"?>
<!-- The Best Svg Icon site in the world: iconSvg.co, Visit us! https://iconsvg.co -->
<svg fill="#000000" width="800px" height="800px" version="1.1" viewBox="144 144 512 512" xmlns="http://www.w3.org/2000/svg">
 <g>
  <path d="m264.4 520.93c-1.4297-1.8281-3.6289-2.8984-5.9492-2.8984h-61.375c-2.3242 0-4.5156 1.0664-5.9492 2.8984l-30.688 39.152c-1.7852 2.2773-2.1094 5.3711-0.84766 7.9688 1.2656 2.6016 3.9062 4.2461 6.7969 4.2461h13.332v52.898c0 4.1758 3.3789 7.5586 7.5586 7.5586h80.977c4.1758 0 7.5586-3.3789 7.5586-7.5586v-52.898h13.332c2.8906 0 5.5312-1.6523 6.7969-4.2461 1.2656-2.6016 0.9375-5.6914-0.84766-7.9688zm3.8555 36.258c-4.1758 0-7.5586 3.3789-7.5586 7.5586v52.898h-65.863v-52.898c0-4.1758-3.3789-7.5586-7.5586-7.5586h-5.3633l18.844-24.035h54.023l18.836 24.035z"/>
  <path d="m374.14 474.06h-58.082c-4.1758 0-7.5586 3.3789-7.5586 7.5586v143.59c0 4.1758 3.3789 7.5586 7.5586 7.5586h58.086c4.1758 0 7.5586-3.3789 7.5586-7.5586v-143.59c-0.003907-4.1758-3.3828-7.5586-7.5625-7.5586zm-7.5547 143.59h-42.969v-128.47h42.969z"/>
  <path d="m460.38 436.28h-58.086c-4.1758 0-7.5586 3.3789-7.5586 7.5586v181.37c0 4.1758 3.3789 7.5586 7.5586 7.5586h58.086c4.1719 0 7.5586-3.3789 7.5586-7.5586v-181.37c0-4.1758-3.3867-7.5586-7.5586-7.5586zm-7.5586 181.37h-42.969v-166.26h42.969z"/>
  <path d="m627.73 353.15h-128.68c-4.1719 0-7.5586 3.3789-7.5586 7.5586v264.5c0 4.1758 3.3867 7.5586 7.5586 7.5586h128.68c4.1719 0 7.5586-3.3789 7.5586-7.5586v-264.5c0-4.1758-3.3828-7.5586-7.5547-7.5586zm-80.488 264.5v-62.977h32.293v62.977zm72.93 0h-25.523v-70.535c0-4.1758-3.3867-7.5586-7.5586-7.5586h-47.41c-4.1719 0-7.5586 3.3789-7.5586 7.5586v70.535h-25.52v-249.39h113.57l0.003906 249.39z"/>
  <path d="m524.03 419.78h23.996c4.1719 0 7.5586-3.3789 7.5586-7.5586l-0.003906-24.512c0-4.1758-3.3867-7.5586-7.5586-7.5586h-23.996c-4.1719 0-7.5586 3.3789-7.5586 7.5586v24.52c0.003906 4.1719 3.3906 7.5508 7.5625 7.5508zm7.5547-24.516h8.8828v9.4062h-8.8828z"/>
  <path d="m524.03 469.54h23.996c4.1719 0 7.5586-3.3789 7.5586-7.5586v-24.52c0-4.1758-3.3867-7.5586-7.5586-7.5586h-23.996c-4.1719 0-7.5586 3.3789-7.5586 7.5586v24.52c0 4.1758 3.3867 7.5586 7.5586 7.5586zm7.5547-24.516h8.8828v9.4062h-8.8828z"/>
  <path d="m524.03 519.54h23.996c4.1719 0 7.5586-3.3789 7.5586-7.5586v-24.516c0-4.1758-3.3867-7.5586-7.5586-7.5586h-23.996c-4.1719 0-7.5586 3.3789-7.5586 7.5586v24.516c0 4.1758 3.3867 7.5586 7.5586 7.5586zm7.5547-24.516h8.8828v9.4023h-8.8828z"/>
  <path d="m578.75 419.39h23.996c4.1719 0 7.5586-3.3789 7.5586-7.5586v-24.52c0-4.1758-3.3867-7.5586-7.5586-7.5586h-23.996c-4.1719 0-7.5586 3.3789-7.5586 7.5586v24.52c0 4.1719 3.3867 7.5586 7.5586 7.5586zm7.5586-24.52h8.8828v9.4062h-8.8828z"/>
  <path d="m578.75 469.14h23.996c4.1719 0 7.5586-3.3789 7.5586-7.5586v-24.52c0-4.1758-3.3867-7.5586-7.5586-7.5586l-23.996 0.003907c-4.1719 0-7.5586 3.3789-7.5586 7.5586v24.52c0 4.1719 3.3867 7.5547 7.5586 7.5547zm7.5586-24.52h8.8828v9.4062h-8.8828z"/>
  <path d="m578.75 519.15h23.996c4.1719 0 7.5586-3.3789 7.5586-7.5586v-24.516c0-4.1758-3.3867-7.5586-7.5586-7.5586l-23.996 0.003906c-4.1719 0-7.5586 3.3789-7.5586 7.5586v24.516c0 4.1758 3.3867 7.5547 7.5586 7.5547zm7.5586-24.516h8.8828v9.4023h-8.8828z"/>
  <path d="m195.88 476.63 1.3203 0.011719c10.066 0 63.672-1.4062 130.8-29.195 60.133-24.887 144.54-77.492 208.42-187.14l3.6562 2.2383c3.5117 2.1445 7.5312 3.293 11.648 3.332 0.15625 0.003907 0.29297 0.003907 0.44922 0 12.426-0.089843 22.504-10.227 22.504-22.672 0-1.3672-0.11719-2.7148-0.35156-4.0273l-4.1797-50.215c-0.59375-7.1797-4.625-13.715-10.77-17.461-6.1172-3.7383-13.887-4.3359-20.461-1.6211l-48.59 20.004c-7.9414 3.2695-13.289 10.617-13.961 19.172-0.68359 8.5586 3.4453 16.66 10.777 21.137l10.586 6.4688c-45.805 79.305-108.29 135.93-185.79 168.36-61.027 25.531-109.8 26.273-115.1 26.277l-0.81641-0.019532c-12.121 0-22.176 9.9688-22.426 22.223-0.24609 12.496 9.7148 22.867 22.277 23.125zm0.14844-30.234 0.75 0.011718c5.6719 0 57.242-0.76953 120.99-27.441 82.75-34.621 148.94-95.602 196.74-181.25 1.9805-3.543 0.80469-8.0156-2.6562-10.133l-16.828-10.281c-2.4375-1.4922-3.8203-4.1914-3.5938-7.043 0.22656-2.8516 2.0039-5.3008 4.6562-6.3867l48.598-20.012c2.1875-0.91016 4.7656-0.71094 6.8164 0.54297 2.0469 1.25 3.3867 3.4258 3.582 5.8203l4.2188 50.613c0.023437 0.29688 0.070313 0.58984 0.125 0.875 0.10156 0.48438 0.14062 0.98828 0.14062 1.5 0 4.168-3.3906 7.5586-7.5586 7.5586h-0.050781c-1.5234 0.082031-2.793-0.37891-3.9883-1.1094l-10.297-6.293c-1.7539-1.0742-3.875-1.3789-5.8438-0.86719-1.9883 0.51953-3.6719 1.8203-4.6836 3.6055-62.188 110.5-145.76 162.89-204.92 187.37-64.488 26.691-115.46 28.043-125.02 28.043l-1.082-0.003907c-4.168-0.085937-7.4883-3.5469-7.4062-7.707 0.085937-4.0898 3.3672-7.4141 7.3164-7.4141z"/>
 </g>
</svg>