<?xml version="1.0" encoding="UTF-8"?>
<!-- The Best Svg Icon site in the world: iconSvg.co, Visit us! https://iconsvg.co -->
<svg fill="#000000" width="800px" height="800px" version="1.1" viewBox="144 144 512 512" xmlns="http://www.w3.org/2000/svg">
 <g>
  <path d="m400 283.18c-16.957 0-33.223 6.7383-45.211 18.734-11.988 11.992-18.719 28.258-18.711 45.215s6.75 33.219 18.75 45.199c11.996 11.984 28.266 18.711 45.223 18.695s33.215-6.7656 45.191-18.77c11.98-12.004 18.699-28.273 18.676-45.23-0.019531-16.938-6.7617-33.176-18.75-45.148-11.984-11.969-28.23-18.695-45.168-18.695zm0 112.41c-12.887 0.019531-25.254-5.0781-34.379-14.18-9.125-9.0977-14.258-21.453-14.273-34.336-0.011718-12.887 5.0938-25.25 14.199-34.371s21.461-14.246 34.348-14.254c12.887-0.007813 25.246 5.1055 34.359 14.219 9.1172 9.1094 14.234 21.465 14.234 34.352 0 12.867-5.1055 25.211-14.195 34.316-9.0938 9.1055-21.426 14.234-34.293 14.254z"/>
  <path d="m400.47 339.7c-2.2812-0.39453-4.4102-1.0234-5.0391-2.6758-0.62891-1.6523 2.6758-3.6211 4.4102-3.6211h-0.003906c2.6641-0.082032 5.2773 0.75 7.4023 2.3594 3.1992 1.9453 7.3281 1.3672 9.8672-1.3867 2.543-2.75 2.793-6.9102 0.60156-9.9492-2.8633-2.4609-6.2188-4.2852-9.8398-5.3516v-2.8359c0.53125-2.332-0.027344-4.7852-1.5234-6.6562-1.4922-1.8711-3.7578-2.9648-6.1523-2.9648-2.3945 0-4.6602 1.0938-6.1523 2.9648-1.4961 1.8711-2.0547 4.3242-1.5234 6.6562v3.1523c-3.5156 1.25-6.5703 3.5391-8.7617 6.5586-2.1914 3.0195-3.418 6.6328-3.5195 10.363 0.15625 4.2383 1.7461 8.293 4.5039 11.512 2.7578 3.2188 6.5273 5.4023 10.691 6.2031 2.2031 0.55078 9.6055 0 9.6055 3.6992 0 1.418-1.9688 2.9922-4.5664 2.9922-2.6602 0.039062-5.2578-0.78906-7.4023-2.3633-3.1836-1.8711-7.2383-1.2812-9.7539 1.4258-2.5156 2.7031-2.8125 6.793-0.71484 9.832 2.9375 2.5312 6.4062 4.3594 10.156 5.3516v2.9141c0 4.3477 3.5234 7.8711 7.8711 7.8711s7.8711-3.5234 7.8711-7.8711v-3.2266c3.5273-1.2344 6.5938-3.5195 8.7891-6.543 2.1953-3.0234 3.4141-6.6484 3.4922-10.383-0.71094-12.047-10.078-16.531-20.309-18.027z"/>
  <path d="m405.51 446.68c-3.0586-3-7.957-3-11.02 0l-31.488 32.984c-2 2.2656-2.5234 5.4766-1.3477 8.2617 1.1758 2.7852 3.8398 4.6523 6.8594 4.8047h11.258l-0.003906 134.77c0 4.3477 3.5273 7.8711 7.875 7.8711s7.8711-3.5234 7.8711-7.8711v-142.48c0-2.0859-0.82812-4.0898-2.3047-5.5664-1.4766-1.4766-3.4805-2.3047-5.5664-2.3047h-0.86719l13.227-14.168 13.699 14.168h-0.87109c-4.3477 0-7.8711 3.5234-7.8711 7.8711v114.62c0 4.3477 3.5234 7.8711 7.8711 7.8711s7.875-3.5234 7.875-7.8711v-106.9h10.785c3.0156-0.15234 5.6836-2.0195 6.8555-4.8047 1.1758-2.7852 0.65234-5.9961-1.3477-8.2617z"/>
  <path d="m412.83 616.09c-4.3477 0-7.8711 3.5234-7.8711 7.8711v3.6992c0 4.3477 3.5234 7.875 7.8711 7.875s7.875-3.5273 7.875-7.875v-3.6992c0-2.0859-0.83203-4.0898-2.3086-5.5664-1.4727-1.4766-3.4766-2.3047-5.5664-2.3047z"/>
  <path d="m547.05 512.02c-3.0703-3.0508-8.0273-3.0508-11.098 0l-31.488 32.984c-1.9492 2.2695-2.4453 5.4492-1.2773 8.207 1.168 2.7539 3.8008 4.6094 6.7852 4.7812h11.258v69.512c0 4.3477 3.5273 7.8711 7.875 7.8711 4.3477 0 7.8711-3.5234 7.8711-7.8711v-77.223c0-2.0898-0.83203-4.0938-2.3047-5.5664-1.4766-1.4766-3.4805-2.3086-5.5664-2.3086h-0.86719l13.461-13.934 13.617 14.168-1.0234 0.003906c-4.3477 0-7.8711 3.5234-7.8711 7.8711v49.359c0.81641 3.5781 4 6.1211 7.6758 6.1211 3.6719 0 6.8594-2.543 7.6758-6.1211v-41.883h11.414c3.0625-0.035156 5.8281-1.8477 7.0859-4.6445 1.168-2.832 0.58594-6.0898-1.4961-8.3438z"/>
  <path d="m554.29 616.09c-4.3477 0-7.8711 3.5234-7.8711 7.8711v3.6992c-0.53125 2.3359 0.027343 4.7891 1.5234 6.6602 1.4922 1.8711 3.7578 2.9609 6.1523 2.9609s4.6602-1.0898 6.1523-2.9609c1.4961-1.8711 2.0547-4.3242 1.5234-6.6602v-3.6992c0.003907-4.1992-3.2852-7.6602-7.4805-7.8711z"/>
  <path d="m264.05 547.99c-3.0703-3.0508-8.0273-3.0508-11.098 0l-31.805 33.062c-2.0781 2.2539-2.6641 5.5078-1.4922 8.3438 1.2539 2.7969 4.0195 4.6094 7.082 4.6445h11.258v33.457c-0.53125 2.3359 0.027343 4.7852 1.5234 6.6602 1.4922 1.8711 3.7578 2.9609 6.1523 2.9609s4.6602-1.0898 6.1523-2.9609c1.4961-1.875 2.0547-4.3242 1.5234-6.6602v-41.172c0-2.0859-0.83203-4.0898-2.3086-5.5664-1.4727-1.4766-3.4766-2.3047-5.5664-2.3047h-0.78906l13.621-14.012 13.699 14.168h-0.86719c-4.3477 0-7.8711 3.5273-7.8711 7.875v13.305-0.003907c0.81641 3.582 4 6.125 7.6758 6.125 3.6719 0 6.8594-2.543 7.6758-6.125v-5.668h11.258-0.003906c2.9883-0.17188 5.6211-2.0273 6.7891-4.7812 1.168-2.7578 0.67188-5.9375-1.2773-8.207z"/>
  <path d="m271.29 616.09c-4.3477 0-7.8711 3.5234-7.8711 7.8711v3.6992c-0.53125 2.3359 0.027343 4.7891 1.5234 6.6602 1.4922 1.8711 3.7578 2.9609 6.1523 2.9609s4.6602-1.0898 6.1523-2.9609c1.4961-1.8711 2.0547-4.3242 1.5234-6.6602v-3.6992c0.003907-4.1992-3.2852-7.6602-7.4805-7.8711z"/>
  <path d="m368.51 213.04h11.258v33.535h-0.003906c0 4.3477 3.5273 7.8711 7.875 7.8711s7.8711-3.5234 7.8711-7.8711v-41.25c0-2.0898-0.82812-4.0898-2.3047-5.5664-1.4766-1.4766-3.4805-2.3047-5.5664-2.3047h-0.86719l13.227-14.016 13.695 14.25h-0.86719c-4.3477 0-7.8711 3.5234-7.8711 7.8711v13.383c0 4.3477 3.5234 7.8711 7.8711 7.8711s7.875-3.5234 7.875-7.8711v-5.9023h10.785c2.9844-0.17578 5.6172-2.0312 6.7852-4.7852 1.168-2.7539 0.67578-5.9336-1.2773-8.2031l-31.488-32.984c-3.0586-3-7.957-3-11.02 0l-31.488 32.984c-1.9492 2.2695-2.4453 5.4492-1.2773 8.2031 1.1719 2.7539 3.8008 4.6094 6.7891 4.7852z"/>
  <path d="m412.83 235.16c-4.3477 0-7.8711 3.5234-7.8711 7.8711v3.7773c0 4.3477 3.5234 7.8711 7.8711 7.8711s7.875-3.5234 7.875-7.8711v-4.25c-0.25-4.1641-3.7031-7.4062-7.875-7.3984z"/>
  <path d="m266.8 394.33c-3.0625-3-7.9609-3-11.023 0l-31.488 32.906 0.003906-0.003906c-2.1094 2.2383-2.7266 5.4961-1.5781 8.3438 1.2344 2.8281 4.0039 4.6758 7.0859 4.7266h11.258v33.457-0.003907c0 4.3477 3.5234 7.875 7.8711 7.875s7.8711-3.5273 7.8711-7.875v-41.168c0-2.0898-0.82813-4.0898-2.3047-5.5664-1.4766-1.4766-3.4766-2.3086-5.5664-2.3086h-0.86719l13.699-14.168 13.699 14.168h-1.418c-4.3477 0-7.8711 3.5273-7.8711 7.875v13.305-0.003906c0 4.3477 3.5234 7.875 7.8711 7.875s7.8711-3.5273 7.8711-7.875v-5.5898h11.18v0.003907c3.082-0.050782 5.8516-1.8984 7.082-4.7266 1.1719-2.832 0.58594-6.0898-1.4922-8.3438z"/>
  <path d="m281.92 473.76v-3.6992c0-4.3477-3.5234-7.8711-7.8711-7.8711s-7.8711 3.5234-7.8711 7.8711v3.6992c0 4.3477 3.5234 7.875 7.8711 7.875s7.8711-3.5273 7.8711-7.875z"/>
  <path d="m509.73 440.3h11.258v33.457-0.003907c0 4.3477 3.5234 7.875 7.8711 7.875 4.3477 0 7.8711-3.5273 7.8711-7.875v-41.168c0-2.0898-0.82812-4.0898-2.3047-5.5664-1.4766-1.4766-3.4766-2.3086-5.5664-2.3086h-0.86719l13.699-14.012 13.617 14.168-1.0234 0.003906c-4.3477 0-7.8711 3.5234-7.8711 7.8711v13.305c-0.53125 2.3359 0.027343 4.7852 1.5234 6.6562 1.4922 1.875 3.7578 2.9648 6.1523 2.9648s4.6602-1.0898 6.1523-2.9648c1.4961-1.8711 2.0547-4.3203 1.5234-6.6562v-5.5898h11.414c3.082-0.050782 5.8516-1.8984 7.0859-4.7227 1.168-2.8359 0.58594-6.0938-1.4961-8.3438l-31.488-32.906c-3.0703-3.0508-8.0312-3.0508-11.102 0l-31.488 32.906c-1.9961 2.2656-2.5234 5.4766-1.3477 8.2617 1.1758 2.7852 3.8398 4.6523 6.8594 4.8047z"/>
  <path d="m554.29 462.34c-4.3477 0-7.8711 3.5273-7.8711 7.875v3.6992c-0.53125 2.3359 0.027343 4.7852 1.5234 6.6562 1.4922 1.875 3.7578 2.9648 6.1523 2.9648s4.6602-1.0898 6.1523-2.9648c1.4961-1.8711 2.0547-4.3203 1.5234-6.6562v-3.8594c-0.078125-4.1367-3.3477-7.5078-7.4805-7.7148z"/>
 </g>
</svg>