<?xml version="1.0" encoding="UTF-8"?>
<!-- The Best Svg Icon site in the world: iconSvg.co, Visit us! https://iconsvg.co -->
<svg fill="#000000" width="800px" height="800px" version="1.1" viewBox="144 144 512 512" xmlns="http://www.w3.org/2000/svg">
 <g>
  <path d="m619.11 232.5h-401.36c-2.668 0-4.832 2.1641-4.832 4.832v39.508h-32.02c-1.2812 0-2.5156 0.50781-3.4219 1.4141-0.91016 0.90625-1.418 2.1367-1.418 3.418v280.99c0 1.2812 0.50781 2.5117 1.418 3.418 0.90625 0.91016 2.1406 1.418 3.4219 1.4141h397.27c1.2852 0.003906 2.5156-0.50391 3.4258-1.4141 0.90625-0.90625 1.418-2.1367 1.418-3.418v-28.387h36.102c1.2852 0 2.5156-0.50781 3.4219-1.4141 0.91016-0.90625 1.4219-2.1367 1.4219-3.418v-292.11c0-1.2812-0.51172-2.5117-1.4219-3.418-0.90625-0.90625-2.1367-1.4141-3.4219-1.4141zm-45.773 325.32h-387.61v-271.31h387.61zm40.945-33.219-31.254-0.003907v-242.93c0-1.2812-0.51172-2.5117-1.418-3.418-0.91016-0.90625-2.1406-1.4141-3.4219-1.4141h-355.6v-34.664h391.69z"/>
  <path d="m214.02 519.37c5.6172 0.80859 9.5938 2.7344 11.809 5.7461h-0.003906c1.6367 2.3398 2.3672 5.1953 2.0586 8.0312-0.25781 1.4102 0.125 2.8633 1.043 3.9648 0.91797 1.1016 2.2773 1.7383 3.7109 1.7422h293.78c1.4336 0 2.793-0.63672 3.7148-1.7383 0.91797-1.0977 1.3008-2.5469 1.0508-3.9609-0.3125-2.7969 0.38672-5.6172 1.9648-7.9492 2.2031-3.0586 6.1992-5.0195 11.875-5.8359h0.003906c2.3828-0.33594 4.1523-2.375 4.1523-4.7812v-184.84c0-2.4062-1.7695-4.4453-4.1523-4.7812-5.6172-0.80859-9.5938-2.7344-11.809-5.7461-1.6289-2.3477-2.3594-5.1992-2.0547-8.0391 0.25-1.4102-0.13281-2.8633-1.0508-3.9609-0.92188-1.1016-2.2812-1.7383-3.7148-1.7383h-293.78c-1.4141 0.03125-2.75 0.66797-3.6602 1.7461-0.91016 1.082-1.3125 2.5039-1.1055 3.9023 0.33203 2.8516-0.38672 5.7305-2.0273 8.0898-2.2148 3.0117-6.1875 4.9219-11.809 5.7461h0.003907c-2.3828 0.33594-4.1523 2.375-4.1523 4.7812v184.84c0 2.4062 1.7695 4.4453 4.1523 4.7812zm307.6-204.21c0.40625 3.4766 1.6875 6.7891 3.7188 9.6367 3.1484 4.3594 7.8711 7.3594 14.211 8.9453v176.86c-6.2969 1.5859-11.059 4.5859-14.211 8.9453-2.0312 2.8438-3.3086 6.1602-3.7188 9.6328h-95.598c27.961-12.148 50.051-34.754 61.555-62.98 11.504-28.227 11.504-59.836 0-88.062-11.504-28.227-33.594-50.832-61.555-62.98zm-142.09 214.02c-28.383 0-55.602-11.27-75.672-31.34-20.07-20.066-31.348-47.285-31.348-75.664-0.003907-28.383 11.27-55.602 31.34-75.672 20.066-20.07 47.285-31.344 75.668-31.348 28.379 0 55.598 11.273 75.668 31.344 20.07 20.066 31.344 47.285 31.344 75.668-0.03125 28.371-11.312 55.57-31.375 75.629-20.059 20.062-47.254 31.348-75.625 31.383zm-160.01-195.45c6.3047-1.582 11.059-4.5859 14.18-8.9414 2.0312-2.8477 3.3086-6.1602 3.7188-9.6367h95.664c-27.957 12.148-50.051 34.754-61.555 62.98-11.504 28.227-11.504 59.836 0 88.062 11.504 28.227 33.598 50.832 61.555 62.98h-95.637c-0.41797-3.4766-1.707-6.7891-3.7461-9.6328-3.1406-4.3594-7.8711-7.3594-14.211-8.9453z"/>
  <path d="m379.53 406.96c-6.2617 0-12.27-2.4883-16.699-6.918-4.4297-4.4297-6.918-10.438-6.918-16.699 0-6.2656 2.4883-12.27 6.918-16.699 4.4297-4.4297 10.438-6.918 16.699-6.918s12.27 2.4883 16.699 6.918c4.4297 4.4297 6.918 10.434 6.918 16.699 0.11719 2.5859 2.2461 4.6211 4.8359 4.6211s4.7188-2.0352 4.8359-4.6211c-0.011718-7.9961-2.8906-15.727-8.1211-21.777-5.2266-6.0508-12.453-10.023-20.367-11.195v-11.133c0.0625-1.3203-0.42188-2.6055-1.3359-3.5625-0.91406-0.95312-2.1758-1.4961-3.5-1.4961-1.3203 0-2.5859 0.54297-3.5 1.4961-0.91406 0.95703-1.3945 2.2422-1.3359 3.5625v11.102c-11.223 1.625-20.852 8.8516-25.547 19.176-4.6992 10.32-3.8203 22.324 2.3242 31.855 6.1484 9.5312 16.723 15.281 28.062 15.262 8.2773 0 16.215 3.2852 22.066 9.1367 5.8516 5.8516 9.1367 13.789 9.1367 22.066 0 8.2734-3.2852 16.211-9.1367 22.062-5.8516 5.8516-13.789 9.1406-22.066 9.1406-8.2734 0-16.211-3.2891-22.062-9.1406-5.8516-5.8516-9.1367-13.789-9.1367-22.062 0.058594-1.3203-0.42578-2.6094-1.3398-3.5664-0.91016-0.95312-2.1758-1.4961-3.5-1.4961-1.3203 0-2.5859 0.54297-3.4961 1.4961-0.91406 0.95703-1.3984 2.2461-1.3398 3.5664 0.015625 9.9961 3.6875 19.645 10.328 27.117 6.6367 7.4766 15.781 12.266 25.707 13.461v11.043c0.11719 2.5859 2.2461 4.6211 4.8359 4.6211s4.7188-2.0352 4.8359-4.6211v-11.043c13.91-1.6797 25.992-10.367 32.012-23.02 6.0156-12.652 5.1367-27.508-2.3359-39.359-7.4727-11.852-20.496-19.051-34.508-19.074z"/>
 </g>
</svg>