<?xml version="1.0" encoding="UTF-8"?>
<!-- The Best Svg Icon site in the world: iconSvg.co, Visit us! https://iconsvg.co -->
<svg fill="#000000" width="800px" height="800px" version="1.1" viewBox="144 144 512 512" xmlns="http://www.w3.org/2000/svg">
 <g>
  <path d="m533.82 289.79c-4.3477 0-7.875-3.5234-7.875-7.8711h-15.742c0.019531 4.8672 1.543 9.6094 4.3633 13.578 2.8164 3.9688 6.793 6.9688 11.379 8.5898v9.3203h15.742l0.003906-9.3203c7.0547-2.4844 12.512-8.1719 14.699-15.324 2.1914-7.1523 0.85547-14.918-3.5977-20.926-4.4531-6.0117-11.496-9.5469-18.973-9.5352-3.1836 0-6.0547-1.918-7.2734-4.8594s-0.54688-6.3281 1.707-8.5781c2.25-2.25 5.6367-2.9258 8.5781-1.707 2.9414 1.2188 4.8594 4.0898 4.8594 7.2734h15.742c-0.019531-4.8672-1.543-9.6094-4.3594-13.578-2.8203-3.9648-6.793-6.9688-11.383-8.5898v-9.3203h-15.746v9.3203c-7.0547 2.4844-12.508 8.1719-14.699 15.324-2.1914 7.1523-0.85547 14.918 3.5977 20.926 4.4531 6.0117 11.496 9.5469 18.977 9.5352 4.3477 0 7.8711 3.5234 7.8711 7.8711 0 4.3477-3.5234 7.8711-7.8711 7.8711z"/>
  <path d="m533.82 344.89c20.875 0 40.898-8.293 55.664-23.059 14.762-14.762 23.055-34.785 23.055-55.66 0-20.879-8.293-40.902-23.055-55.664-14.766-14.766-34.789-23.059-55.664-23.059-20.879 0-40.902 8.293-55.664 23.059-14.766 14.762-23.059 34.785-23.059 55.664 0.023438 20.871 8.3242 40.879 23.082 55.637 14.758 14.758 34.77 23.059 55.641 23.082zm0-141.7c16.699 0 32.719 6.6328 44.531 18.445 11.809 11.809 18.445 27.828 18.445 44.531 0 16.699-6.6367 32.719-18.445 44.527-11.812 11.812-27.832 18.445-44.531 18.445-16.703 0-32.723-6.6328-44.531-18.445-11.812-11.809-18.445-27.828-18.445-44.527 0.019532-16.699 6.6602-32.707 18.465-44.512 11.805-11.805 27.812-18.449 44.512-18.465z"/>
  <path d="m533.82 368.51c27.141 0 53.168-10.781 72.363-29.977 19.191-19.191 29.973-45.219 29.973-72.359 0-27.145-10.781-53.172-29.973-72.363-19.195-19.191-45.223-29.977-72.363-29.977-27.145 0-53.172 10.785-72.363 29.977-19.191 19.191-29.973 45.219-29.973 72.363 0.03125 27.129 10.82 53.141 30.008 72.328 19.184 19.184 45.195 29.977 72.328 30.008zm0-188.93c22.965 0 44.988 9.1211 61.23 25.363 16.238 16.238 25.359 38.262 25.359 61.23 0 22.965-9.1211 44.988-25.359 61.227-16.242 16.242-38.266 25.363-61.23 25.363-22.969 0-44.992-9.1211-61.23-25.363-16.238-16.238-25.363-38.262-25.363-61.227 0.027343-22.961 9.1602-44.969 25.391-61.203 16.234-16.23 38.246-25.363 61.203-25.391z"/>
  <path d="m573.18 258.3h15.742v15.742h-15.742z"/>
  <path d="m478.72 258.3h15.742v15.742h-15.742z"/>
  <path d="m431.49 486.59v-23.613c0-0.73437-0.10547-1.4648-0.30859-2.168l-14.113-49.391v0.003906c-0.94922-3.2852-2.9336-6.1758-5.6641-8.2344-2.7266-2.0586-6.0508-3.1797-9.4688-3.1875h-17.68v-15.746c0-4.1758-1.6562-8.1797-4.6094-11.133s-6.957-4.6094-11.133-4.6094h-141.7c-4.1758 0-8.1797 1.6562-11.133 4.6094-2.9492 2.9531-4.6094 6.957-4.6094 11.133v15.742l-17.68 0.003906c-3.418 0.007812-6.7383 1.1289-9.4688 3.1836-2.7266 2.0586-4.7148 4.9453-5.6641 8.2305l-14.113 49.395c-0.20312 0.70312-0.30859 1.4336-0.30859 2.168v23.617-0.003906c0.039062 12.324 5.8711 23.914 15.746 31.285v102.54c0 4.1758 1.6602 8.1797 4.6094 11.133 2.9531 2.9531 6.957 4.6133 11.133 4.6133h204.68c4.1758 0 8.1797-1.6602 11.133-4.6133 2.9492-2.9531 4.6094-6.957 4.6094-11.133v-102.54c9.875-7.3711 15.707-18.961 15.746-31.285zm-204.68-102.34h141.7v62.977h-141.7zm0 236.16v-62.977h31.488v62.977zm173.18 0h-125.95v-70.848c0-2.0859-0.83203-4.0898-2.3047-5.5664-1.4766-1.4766-3.4805-2.3047-5.5664-2.3047h-47.234c-4.3477 0-7.8711 3.5234-7.8711 7.8711v70.848h-15.746v-95.25c7.3047 1.4883 14.883 0.875 21.852-1.7734 6.9648-2.6484 13.039-7.2188 17.512-13.184 7.4336 9.9102 19.098 15.742 31.488 15.742 12.387 0 24.055-5.832 31.488-15.742 7.418 9.9609 19.121 15.809 31.543 15.766 12.418-0.042968 24.082-5.9727 31.43-15.984 4.418 6.0312 10.477 10.672 17.453 13.367 6.9766 2.6914 14.582 3.3242 21.91 1.8242zm15.742-133.82h0.003907c0 8.4375-4.5 16.234-11.809 20.453-7.3047 4.2188-16.309 4.2188-23.613 0-7.3086-4.2188-11.809-12.016-11.809-20.453 0-4.3477-3.5273-7.8711-7.875-7.8711-4.3477 0-7.8711 3.5234-7.8711 7.8711 0 8.4375-4.5 16.234-11.809 20.453-7.3047 4.2188-16.309 4.2188-23.613 0-7.3086-4.2188-11.809-12.016-11.809-20.453 0-4.3477-3.5234-7.8711-7.8711-7.8711-4.3477 0-7.875 3.5234-7.875 7.8711 0 8.4375-4.5 16.234-11.809 20.453-7.3047 4.2188-16.309 4.2188-23.613 0-7.3086-4.2188-11.809-12.016-11.809-20.453 0-4.3477-3.5234-7.8711-7.8711-7.8711s-7.875 3.5234-7.875 7.8711c0 8.4375-4.5 16.234-11.805 20.453-7.3086 4.2188-16.312 4.2188-23.617 0-7.3086-4.2188-11.809-12.016-11.809-20.453v-22.512l13.809-48.336h17.68v31.488c0 4.1758 1.6602 8.1797 4.6094 11.133 2.9531 2.9531 6.957 4.6133 11.133 4.6133h141.7c4.1758 0 8.1797-1.6602 11.133-4.6133s4.6094-6.957 4.6094-11.133v-31.488h17.68l13.809 48.336z"/>
  <path d="m376.38 541.7h-78.719c-4.3477 0-7.875 3.5234-7.875 7.8711v47.234c0 2.0859 0.83203 4.0898 2.3086 5.5664 1.4727 1.4727 3.4766 2.3047 5.5664 2.3047h78.719c2.0859 0 4.0898-0.83203 5.5664-2.3047 1.4766-1.4766 2.3047-3.4805 2.3047-5.5664v-47.234c0-2.0859-0.82812-4.0898-2.3047-5.5664-1.4766-1.4766-3.4805-2.3047-5.5664-2.3047zm-7.8711 47.23h-62.977v-31.488h62.977z"/>
  <path d="m581.05 400c0-8.2578-0.55859-16.5-1.668-24.68l-15.594 2.125c1.0078 7.4766 1.5156 15.012 1.5195 22.555 0.039062 38.684-13.5 76.156-38.266 105.88-24.762 29.719-59.172 49.805-97.23 56.746l2.8164 15.492h0.003907c41.684-7.6016 79.379-29.598 106.5-62.148 27.125-32.555 41.957-73.598 41.914-115.97z"/>
  <path d="m225.78 350.55 15.137 4.2891h0.003906c10.918-38.277 35.266-71.34 68.574-93.133 33.309-21.797 73.355-30.859 112.8-25.539l2.1016-15.602c-8.0898-1.082-16.242-1.6289-24.402-1.6289-39.379 0.097656-77.66 12.984-109.08 36.723-31.422 23.734-54.281 57.039-65.137 94.891z"/>
  <path d="m601.17 362.09c9.5234 50.855-0.53516 103.43-28.16 147.18-27.625 43.746-70.773 75.426-120.79 88.684l4.0078 15.23h-0.003907c53.859-14.273 100.33-48.387 130.08-95.496s40.59-103.73 30.336-158.49z"/>
  <path d="m400 195.32c12.715 0 25.406 1.1719 37.91 3.5039l2.8984-15.477c-39.031-7.3086-79.312-3.9531-116.6 9.7188-37.281 13.672-70.184 37.152-95.234 67.965-25.051 30.809-41.324 67.809-47.105 107.1l15.578 2.2578h0.003906c7.293-48.559 31.723-92.902 68.875-125.02 37.152-32.109 84.566-49.863 133.67-50.051z"/>
 </g>
</svg>