<?xml version="1.0" encoding="UTF-8"?>
<!-- The Best Svg Icon site in the world: iconSvg.co, Visit us! https://iconsvg.co -->
<svg fill="#000000" width="800px" height="800px" version="1.1" viewBox="144 144 512 512" xmlns="http://www.w3.org/2000/svg">
 <g>
  <path d="m396.57 342.81c-2.2812 0.33594-4.4492 1.2344-6.3047 2.6055-1.6719 1.25-2.6328 3.2383-2.5703 5.3242-0.097656 1.8867 0.78516 3.6914 2.3359 4.7695 2.0039 1.3125 4.2148 2.2812 6.5352 2.8672z"/>
  <path d="m412.96 376.64c0.027344-1.7188-0.90625-3.3125-2.4258-4.1211-2.2656-1.2461-4.6719-2.207-7.1719-2.8633v15.227c6.4492-0.69531 9.5977-3.4023 9.5977-8.2422z"/>
  <path d="m400 308.56c-14.652 0-28.703 5.8203-39.062 16.176-10.359 10.359-16.18 24.41-16.18 39.059 0 14.652 5.8164 28.699 16.176 39.062 10.355 10.359 24.406 16.18 39.055 16.184 14.652 0.003906 28.703-5.8164 39.062-16.172 10.363-10.355 16.184-24.406 16.188-39.055-0.011719-14.648-5.8359-28.691-16.191-39.051-10.359-10.359-24.402-16.188-39.047-16.203zm19.629 76.844c-1.7383 2.5547-4.1406 4.5898-6.9453 5.8906-2.9336 1.375-6.1016 2.1992-9.3359 2.4219v4.9062c0.023438 0.89453-0.32422 1.7617-0.96484 2.3906-1.3594 1.2539-3.4453 1.2773-4.8398 0.058594-0.65625-0.64062-1.0117-1.5312-0.97656-2.4492v-4.9297c-5.4492-0.41016-10.797-1.6992-15.832-3.8242-0.82031-0.33984-1.5234-0.91797-2.0156-1.6562-1.1914-1.6875-1.0391-3.9805 0.36719-5.4961 1.2969-1.332 3.293-1.6992 4.9766-0.91797 3.957 1.7578 8.1875 2.8086 12.504 3.1055v-16.996c-2.9883-0.78125-5.918-1.793-8.75-3.0273-2.582-1.1445-4.8516-2.8906-6.625-5.0938-1.8633-2.4258-2.8242-5.4258-2.7148-8.4805-0.019531-2.8945 0.73828-5.7422 2.1953-8.2461 1.5742-2.6289 3.8164-4.793 6.5039-6.2695 2.9023-1.5938 6.1016-2.5703 9.3984-2.8711v-4.8477c-0.03125-1.3828 0.78516-2.6445 2.0625-3.1836 1.2773-0.53516 2.7539-0.23438 3.7188 0.75781 0.64844 0.64062 1.0078 1.5156 0.99609 2.4258v4.7266c4.6211 0.20312 9.1836 1.1133 13.527 2.6992 1.7891 0.54297 2.9688 2.2344 2.8633 4.0977 0 1.0859-0.39063 2.1328-1.1055 2.9453-0.75781 0.90234-1.8828 1.4102-3.0586 1.375-0.5625-0.027344-1.1172-0.15625-1.6328-0.39062-3.418-1.1797-6.9844-1.8789-10.594-2.0781v17.625c3.1133 0.72266 6.168 1.6836 9.1367 2.875 2.6562 1.1094 4.9961 2.8594 6.8047 5.0977 1.957 2.6016 2.9453 5.8008 2.8008 9.0508 0.023438 2.9531-0.83594 5.8477-2.4648 8.3086z"/>
  <path d="m595.8 245.99h-391.6c-6.3711-0.003907-12.484 2.5195-16.996 7.0195-4.5078 4.5-7.0469 10.609-7.0547 16.98v187.51c-0.003906 6.3828 2.5273 12.508 7.0352 17.023 4.5078 4.5156 10.625 7.0586 17.008 7.0703h391.6c6.3789-0.019531 12.492-2.5625 17-7.0781s7.0391-10.633 7.0469-17.016v-187.51c-0.019531-6.3672-2.5586-12.465-7.0625-16.965-4.5039-4.4961-10.609-7.0273-16.977-7.0352zm-4.3125 168.66c0 1.2148-0.48438 2.3789-1.3398 3.2383-0.85938 0.85938-2.0273 1.3398-3.2422 1.3398-7.8047 0.011719-15.285 3.1172-20.805 8.6367-5.5195 5.5195-8.6211 13.004-8.6289 20.809 0 1.2148-0.48437 2.3789-1.3438 3.2383-0.85937 0.85938-2.0234 1.3438-3.2383 1.3438h-305.79c-2.5273 0-4.5781-2.0508-4.5781-4.582-0.011719-7.8047-3.1133-15.289-8.6328-20.809-5.5195-5.5195-13.004-8.625-20.809-8.6367-2.5312 0-4.582-2.0508-4.582-4.5781v-101.71c0-2.5312 2.0508-4.582 4.582-4.582 7.8047-0.007813 15.285-3.1133 20.805-8.6289 5.5195-5.5195 8.625-13 8.6367-20.805 0-2.5312 2.0508-4.582 4.5781-4.582h305.79c1.2148 0 2.3789 0.48438 3.2383 1.3398 0.85938 0.85938 1.3438 2.0273 1.3438 3.2422 0.007813 7.8008 3.1133 15.285 8.6289 20.805 5.5195 5.5156 13.004 8.6211 20.805 8.6289 1.2148 0 2.3828 0.48438 3.2422 1.3438 0.85547 0.85938 1.3398 2.0234 1.3398 3.2383z"/>
  <path d="m548.59 283.5h-297.17c-1.0391 8.5898-4.9297 16.582-11.047 22.699-6.1211 6.1211-14.113 10.012-22.703 11.051v93.094c8.5898 1.043 16.582 4.9375 22.703 11.055 6.1172 6.1172 10.008 14.113 11.047 22.703h297.17c1.0391-8.5898 4.9297-16.582 11.047-22.703 6.1172-6.1172 14.109-10.012 22.699-11.055v-93.094c-8.5898-1.0391-16.582-4.9297-22.699-11.051-6.1172-6.1172-10.008-14.109-11.047-22.699zm-148.59 144.7c-17.082 0-33.465-6.7852-45.543-18.867-12.078-12.078-18.859-28.461-18.859-45.539 0-17.082 6.7891-33.465 18.871-45.539 12.078-12.078 28.461-18.859 45.543-18.855 17.082 0 33.461 6.7891 45.535 18.871s18.855 28.465 18.852 45.547c-0.023438 17.07-6.8164 33.438-18.887 45.504-12.074 12.07-28.441 18.859-45.512 18.879z"/>
  <path d="m595.8 522.47h-391.57c-6.3828-0.007812-12.5-2.5469-17.016-7.0625-4.5117-4.5156-7.0508-10.633-7.0586-17.02v-40.879c0-2.5312 2.0469-4.582 4.5781-4.582s4.582 2.0508 4.582 4.582c0.003906 3.957 1.5781 7.75 4.375 10.547 2.7969 2.8008 6.5938 4.375 10.551 4.3789h391.56c3.9531-0.011719 7.7383-1.5859 10.527-4.3867 2.7891-2.7969 4.3555-6.5898 4.3516-10.539 0-2.5312 2.0508-4.582 4.5781-4.582 2.5312 0 4.582 2.0508 4.582 4.582v40.883-0.003906c-0.003906 6.3789-2.5352 12.5-7.0391 17.012-4.5078 4.5156-10.621 7.0586-17 7.0703zm-406.49-46.07v21.984c0.003906 3.957 1.5781 7.75 4.375 10.551 2.8008 2.7969 6.5938 4.3672 10.551 4.3711h391.56c3.9531-0.007813 7.7383-1.582 10.527-4.3789 2.7891-2.7969 4.3516-6.5859 4.3516-10.539v-21.984c-4.2305 3.3594-9.4688 5.1836-14.867 5.1758h-391.59c-5.4141 0.007813-10.672-1.8164-14.914-5.1797z"/>
  <path d="m619.84 498.4v31.512c-0.007812 6.3789-2.5391 12.496-7.0469 17.012s-10.621 7.0625-17 7.0781h-391.6c-6.3828-0.007812-12.5-2.5508-17.008-7.0703-4.5078-4.5156-7.0391-10.641-7.0352-17.02v-31.512c0-2.5312 2.0469-4.582 4.5781-4.582s4.582 2.0508 4.582 4.582c0.003906 3.9492 1.5742 7.7383 4.3633 10.535 2.7891 2.7969 6.5703 4.3789 10.52 4.3945h391.6c3.9492-0.015625 7.7344-1.5977 10.523-4.3945 2.7891-2.7969 4.3555-6.5859 4.3633-10.535 0-2.5312 2.0508-4.582 4.5781-4.582 2.5312 0 4.582 2.0508 4.582 4.582z"/>
 </g>
</svg>