<?xml version="1.0" encoding="UTF-8"?>
<!-- The Best Svg Icon site in the world: iconSvg.co, Visit us! https://iconsvg.co -->
<svg fill="#000000" width="800px" height="800px" version="1.1" viewBox="144 144 512 512" xmlns="http://www.w3.org/2000/svg">
 <path d="m390.16 402.76 13.109-122.48c0.14062-1.3359-0.25-2.6602-1.0898-3.7031-0.83984-1.0391-2.0625-1.7031-3.3906-1.8398-4.5898-0.48828-9.2656-0.73438-13.906-0.73438-72.055 0-130.68 58.625-130.68 130.68 0.003906 72.055 58.625 130.67 130.68 130.67 35.938 0 69.434-14.289 94.324-40.23 0.92578-0.96094 1.4258-2.2578 1.4023-3.5938-0.03125-1.3398-0.58594-2.6094-1.5508-3.5312zm-5.2773 122.52c-66.496 0-120.6-54.098-120.6-120.6 0-66.504 54.105-120.6 120.6-120.6 2.6055 0 5.2148 0.085938 7.8125 0.25l-12.82 119.81c-0.16797 1.5586 0.39453 3.0898 1.5234 4.1719l86.977 83.402c-22.555 21.684-52.008 33.562-83.492 33.562zm44.137-260.62c-2.8008-0.27734-5.2461 1.707-5.543 4.4727l-13.371 124.93c-0.16797 1.5586 0.39453 3.0898 1.5234 4.1719l90.688 86.957c0.97656 0.9375 2.2305 1.4023 3.4883 1.4023 1.3242 0 2.6445-0.51953 3.6367-1.5508 23.441-24.445 36.355-56.562 36.355-90.445-0.007813-67.035-50.207-122.9-116.78-129.94zm76.559 209.7-85.191-81.684 12.559-117.37c58.93 8.6914 102.76 59.113 102.76 119.29 0.007813 29.582-10.664 57.715-30.129 79.758zm-142.45-52.754c1.0742 1.9141 1.6016 4.1406 1.6016 6.6797 0 3.8945-1.1094 7.1641-3.3047 9.7773-2.2109 2.5898-5.4141 4.1523-9.5977 4.5859v6.6914h-5.3242v-6.6484c-6.9609-0.74609-11.301-5.0078-12.934-12.758l8.2227-2.2773c0.76953 4.8828 3.2734 7.3086 7.582 7.3086 2.0117 0 3.4766-0.52344 4.4336-1.5625 0.94531-1.0273 1.4258-2.3086 1.4258-3.8047 0-1.5156-0.48438-2.6445-1.4258-3.4492-0.95312-0.79688-3.0664-1.793-6.3125-2.9922-2.9258-1.0781-5.1992-2.1094-6.8672-3.1836-1.6406-1.0391-2.9688-2.5039-4.0039-4.3789-1.0195-1.8477-1.5312-4.0664-1.5312-6.5547 0-3.2734 0.89844-6.2266 2.7539-8.8281 1.8203-2.6289 4.7188-4.2227 8.6602-4.8125v-5.1758h5.3242v5.1758c5.9453 0.75391 9.793 4.2891 11.574 10.617l-7.3672 3.1875c-1.4258-4.3594-3.6406-6.5234-6.6211-6.5234-1.5 0-2.7266 0.47266-3.6289 1.4492-0.92578 0.97266-1.3672 2.1523-1.3672 3.5078 0 1.4258 0.4375 2.5 1.3047 3.2461 0.90234 0.73438 2.75 1.6875 5.6562 2.793 3.1602 1.2305 5.6445 2.3672 7.4375 3.4766 1.7891 1.0781 3.2266 2.5625 4.3086 4.4531zm126.42-52.242c1.0742 1.918 1.6016 4.1406 1.6016 6.6914 0 3.8945-1.1094 7.1523-3.3047 9.7695-2.2109 2.6016-5.4141 4.1523-9.5977 4.5898v6.6875h-5.3242v-6.6484c-6.9609-0.74219-11.301-4.9961-12.934-12.75l8.2227-2.2734c0.76953 4.8711 3.2734 7.3086 7.582 7.3086 2.0117 0 3.4766-0.52344 4.4336-1.5664 0.94531-1.0312 1.4258-2.3086 1.4258-3.8047 0-1.5156-0.48438-2.6445-1.4258-3.4492-0.95312-0.79688-3.0664-1.793-6.3125-2.9922-2.9258-1.0742-5.1992-2.1172-6.8672-3.1797-1.6406-1.043-2.9688-2.5078-4.0039-4.3828-1.0195-1.8477-1.5312-4.0625-1.5312-6.5547 0-3.2695 0.89844-6.2266 2.7539-8.832 1.8203-2.625 4.7188-4.2109 8.6602-4.8008v-5.1758h5.3242v5.1758c5.9453 0.74609 9.793 4.2812 11.574 10.609l-7.3672 3.1836c-1.4258-4.3516-3.6406-6.5234-6.6211-6.5234-1.5 0-2.7266 0.48438-3.6289 1.457-0.92578 0.97266-1.3672 2.1445-1.3672 3.5078 0 1.4219 0.4375 2.4922 1.3047 3.2461 0.90234 0.73438 2.75 1.6914 5.6562 2.7852 3.1602 1.2344 5.6445 2.3711 7.4375 3.4805 1.7891 1.0664 3.2305 2.5625 4.3086 4.4414z"/>
</svg>