<?xml version="1.0" encoding="UTF-8"?>
<!-- The Best Svg Icon site in the world: iconSvg.co, Visit us! https://iconsvg.co -->
<svg width="800px" height="800px" version="1.1" viewBox="144 144 512 512" xmlns="http://www.w3.org/2000/svg">
 <defs>
  <clipPath id="e">
   <path d="m211 148.09h379v425.91h-379z"/>
  </clipPath>
  <clipPath id="d">
   <path d="m337 541h126v110.9h-126z"/>
  </clipPath>
  <clipPath id="c">
   <path d="m148.09 321h47.906v32h-47.906z"/>
  </clipPath>
  <clipPath id="b">
   <path d="m148.09 321h47.906v32h-47.906z"/>
  </clipPath>
  <clipPath id="a">
   <path d="m604 321h47.902v32h-47.902z"/>
  </clipPath>
 </defs>
 <path d="m400 462.98c-33.406 0-65.441-13.273-89.062-36.891-23.621-23.621-36.891-55.66-36.891-89.062 0-33.406 13.27-65.441 36.891-89.062 23.621-23.621 55.656-36.891 89.062-36.891 33.402 0 65.441 13.27 89.059 36.891 23.621 23.621 36.891 55.656 36.891 89.062-0.035157 33.391-13.32 65.406-36.93 89.02-23.613 23.609-55.629 36.895-89.02 36.934zm0-220.42c-25.055 0-49.082 9.9531-66.797 27.668-17.715 17.715-27.668 41.742-27.668 66.797 0 25.051 9.9531 49.078 27.668 66.797 17.715 17.715 41.742 27.668 66.797 27.668 25.051 0 49.078-9.9531 66.793-27.668 17.719-17.719 27.668-41.746 27.668-66.797-0.027344-25.047-9.9883-49.059-27.695-66.766-17.711-17.711-41.723-27.672-66.766-27.699z"/>
 <path d="m407.87 400h-39.359c-5.625 0-10.824-3.0039-13.637-7.875s-2.8125-10.871 0-15.742c2.8125-4.8711 8.0117-7.8711 13.637-7.8711h39.359c4.3477 0 7.8711-3.5273 7.8711-7.875 0-4.3477-3.5234-7.8711-7.8711-7.8711h-15.746c-14.059 0-27.055-7.5-34.086-19.68-7.0312-12.176-7.0312-27.184 0-39.359 7.0312-12.18 20.027-19.68 34.086-19.68h39.363c5.625 0 10.82 3 13.633 7.8711 2.8125 4.8711 2.8125 10.871 0 15.746-2.8125 4.8711-8.0078 7.8711-13.633 7.8711h-39.363c-4.3477 0-7.8711 3.5234-7.8711 7.8711s3.5234 7.8711 7.8711 7.8711h15.746c14.062 0 27.055 7.5039 34.086 19.68 7.0312 12.18 7.0312 27.184 0 39.363-7.0312 12.176-20.023 19.68-34.086 19.68z"/>
 <path d="m400 305.54c-4.1758 0-8.1797-1.6602-11.133-4.6133-2.9531-2.9531-4.6133-6.957-4.6133-11.133v-15.742c0-5.625 3-10.824 7.8711-13.637s10.875-2.8125 15.746 0 7.8711 8.0117 7.8711 13.637v15.742c0 4.1758-1.6602 8.1797-4.6094 11.133-2.9531 2.9531-6.957 4.6133-11.133 4.6133z"/>
 <path d="m400 415.74c-4.1758 0-8.1797-1.6602-11.133-4.6094-2.9531-2.9531-4.6133-6.957-4.6133-11.133v-15.746c0-5.625 3-10.82 7.8711-13.633s10.875-2.8125 15.746 0 7.8711 8.0078 7.8711 13.633v15.746c0 4.1758-1.6602 8.1797-4.6094 11.133-2.9531 2.9492-6.957 4.6094-11.133 4.6094z"/>
 <g clip-path="url(#e)">
  <path d="m447.23 573.18h-94.465c-4.1758 0-8.1797-1.6602-11.133-4.6133-2.9531-2.9531-4.6094-6.957-4.6094-11.133v-17.527c-0.019532-7.0508-2.0195-13.953-5.7734-19.922-3.75-5.9727-9.1055-10.766-15.453-13.84-36.957-18.406-66.871-48.41-85.164-85.426-18.293-37.012-23.961-79-16.141-119.54 7.8242-40.539 28.707-77.402 59.461-104.95 34.656-31.031 79.543-48.188 126.06-48.184 46.52 0.007813 91.402 17.172 126.05 48.211 34.652 31.035 56.637 73.766 61.742 120 4.4102 38.418-3.1523 77.262-21.648 111.22-18.496 33.961-47.027 61.383-81.695 78.52-6.3945 3.082-11.797 7.8906-15.598 13.887-3.8008 5.9961-5.8438 12.934-5.8945 20.031v17.512c0 4.1758-1.6602 8.1797-4.6133 11.133-2.9531 2.9531-6.957 4.6133-11.133 4.6133zm-78.719-31.488h62.977v-1.7695c0.03125-12.949 3.6953-25.633 10.574-36.609 6.8789-10.973 16.695-19.797 28.34-25.473 28.898-14.305 52.676-37.176 68.086-65.5 15.414-28.32 21.707-60.707 18.02-92.742-6.1406-55.219-40.93-103.12-91.547-126.04-50.617-22.918-109.56-17.461-155.11 14.355-45.551 31.816-70.961 85.285-66.859 140.7 4.0977 55.41 37.094 104.56 86.832 129.33 11.602 5.668 21.383 14.484 28.223 25.438 6.8398 10.953 10.469 23.609 10.469 36.523z"/>
 </g>
 <path d="m478.72 573.18h-157.44c-5.625 0-10.82-3-13.633-7.8711s-2.8125-10.875 0-15.746 8.0078-7.8711 13.633-7.8711h157.44c5.625 0 10.824 3 13.633 7.8711 2.8125 4.8711 2.8125 10.875 0 15.746-2.8086 4.8711-8.0078 7.8711-13.633 7.8711z"/>
 <g clip-path="url(#d)">
  <path d="m400 651.9c-16.699-0.019532-32.707-6.6602-44.512-18.465-11.805-11.805-18.445-27.812-18.465-44.512v-31.488c0-4.1758 1.6562-8.1797 4.6094-11.133 2.9531-2.9492 6.957-4.6094 11.133-4.6094h94.465c4.1758 0 8.1797 1.6602 11.133 4.6094 2.9531 2.9531 4.6133 6.957 4.6133 11.133v31.488c-0.019531 16.699-6.6602 32.707-18.469 44.512-11.805 11.805-27.812 18.445-44.508 18.465zm-31.488-78.719v15.742c0 11.25 6 21.645 15.742 27.27 9.7422 5.625 21.746 5.625 31.488 0 9.7422-5.625 15.746-16.02 15.746-27.27v-15.742z"/>
 </g>
 <g clip-path="url(#c)">
  <path d="m179.58 352.77h-15.746c-5.6211 0-10.82-3-13.633-7.8711-2.8125-4.8711-2.8125-10.871 0-15.746 2.8125-4.8711 8.0117-7.8711 13.633-7.8711h15.746c5.625 0 10.82 3 13.633 7.8711 2.8125 4.875 2.8125 10.875 0 15.746-2.8125 4.8711-8.0078 7.8711-13.633 7.8711z"/>
 </g>
 <path d="m229.4 213.19c-3.6328 0-7.1523-1.2578-9.9648-3.5586l-12.188-9.9727h0.003906c-4.3555-3.5586-6.4766-9.1758-5.5703-14.727 0.91016-5.5508 4.7109-10.195 9.9727-12.184 5.2617-1.9883 11.184-1.0195 15.539 2.543l12.188 9.9727-0.003906-0.003906c3.375 2.7617 5.4531 6.793 5.7422 11.145 0.28906 4.3477-1.2383 8.6211-4.2188 11.805-2.9766 3.1797-7.1406 4.9844-11.5 4.9805z"/>
 <path d="m217.23 502.31c-4.3555 0-8.5195-1.8047-11.5-4.9844-2.9766-3.1797-4.5039-7.4531-4.2148-11.805 0.28516-4.3477 2.3633-8.3789 5.7383-11.141l12.188-9.9727-0.003906 0.003906c4.3555-3.5625 10.277-4.5352 15.539-2.543 5.2617 1.9883 9.0625 6.6328 9.9727 12.184 0.90625 5.5508-1.2148 11.164-5.5703 14.727l-12.188 9.9727h0.003906c-2.8125 2.3008-6.332 3.5586-9.9648 3.5586z"/>
 <g clip-path="url(#b)">
  <path d="m179.58 352.77h-15.746c-5.6211 0-10.82-3-13.633-7.8711-2.8125-4.8711-2.8125-10.871 0-15.746 2.8125-4.8711 8.0117-7.8711 13.633-7.8711h15.746c5.625 0 10.82 3 13.633 7.8711 2.8125 4.875 2.8125 10.875 0 15.746-2.8125 4.8711-8.0078 7.8711-13.633 7.8711z"/>
 </g>
 <path d="m217.23 502.31c-4.3555 0-8.5195-1.8047-11.5-4.9844-2.9766-3.1797-4.5039-7.4531-4.2148-11.805 0.28516-4.3477 2.3633-8.3789 5.7383-11.141l12.188-9.9727-0.003906 0.003906c4.3555-3.5625 10.277-4.5352 15.539-2.543 5.2617 1.9883 9.0625 6.6328 9.9727 12.184 0.90625 5.5508-1.2148 11.164-5.5703 14.727l-12.188 9.9727h0.003906c-2.8125 2.3008-6.332 3.5586-9.9648 3.5586z"/>
 <path d="m229.4 213.19c-3.6328 0-7.1523-1.2578-9.9648-3.5586l-12.188-9.9727h0.003906c-4.3555-3.5586-6.4766-9.1758-5.5703-14.727 0.91016-5.5508 4.7109-10.195 9.9727-12.184 5.2617-1.9883 11.184-1.0195 15.539 2.543l12.188 9.9727-0.003906-0.003906c3.375 2.7617 5.4531 6.793 5.7422 11.145 0.28906 4.3477-1.2383 8.6211-4.2188 11.805-2.9766 3.1797-7.1406 4.9844-11.5 4.9805z"/>
 <g clip-path="url(#a)">
  <path d="m636.16 352.77h-15.746c-5.625 0-10.82-3-13.633-7.8711-2.8125-4.8711-2.8125-10.871 0-15.746 2.8125-4.8711 8.0078-7.8711 13.633-7.8711h15.746c5.625 0 10.82 3 13.633 7.8711 2.8125 4.875 2.8125 10.875 0 15.746-2.8125 4.8711-8.0078 7.8711-13.633 7.8711z"/>
 </g>
 <path d="m582.77 502.31c-3.6328 0-7.1523-1.2578-9.9609-3.5586l-12.188-9.9727c-4.3555-3.5625-6.4766-9.1758-5.5664-14.727 0.90625-5.5508 4.707-10.195 9.9727-12.188 5.2617-1.9883 11.184-1.0156 15.535 2.5469l12.184 9.9727 0.003906-0.003907c3.3711 2.7617 5.4492 6.793 5.7383 11.141 0.28516 4.3516-1.2383 8.625-4.2188 11.805-2.9766 3.1797-7.1406 4.9844-11.5 4.9844z"/>
 <path d="m570.6 213.19c-4.3555 0.003906-8.5195-1.8008-11.5-4.9805-2.9805-3.1836-4.5078-7.457-4.2188-11.805 0.28906-4.3516 2.3672-8.3828 5.7422-11.145l12.188-9.9727v0.003907c4.3516-3.5625 10.273-4.5312 15.535-2.543s9.0625 6.6328 9.9727 12.184c0.90625 5.5508-1.2148 11.168-5.5664 14.727l-12.184 9.9727h-0.003906c-2.8086 2.3008-6.3281 3.5586-9.9648 3.5586z"/>
</svg>