<?xml version="1.0" encoding="UTF-8"?>
<!-- The Best Svg Icon site in the world: iconSvg.co, Visit us! https://iconsvg.co -->
<svg fill="#000000" width="800px" height="800px" version="1.1" viewBox="144 144 512 512" xmlns="http://www.w3.org/2000/svg">
 <g>
  <path d="m323.63 257.33h-10.746c-2.5703 0-4.6562 2.0859-4.6562 4.6562s2.0859 4.6562 4.6562 4.6562h4.1328v3.0078c0 2.5703 2.0859 4.6562 4.6562 4.6562 2.5703 0 4.6562-2.0859 4.6562-4.6562v-3.3359c5.0273-1.2148 8.7812-5.7422 8.7812-11.141 0-6.3242-5.1445-11.473-11.465-11.473h-3.9336c-1.1953 0-2.1602-0.96875-2.1602-2.1602 0-1.1953 0.96875-2.1602 2.1602-2.1602h10.746c2.5703 0 4.6562-2.0859 4.6562-4.6562 0-2.5703-2.0859-4.6562-4.6562-4.6562h-4.125v-3.0039c0-2.5703-2.0859-4.6562-4.6562-4.6562-2.5703 0-4.6562 2.0859-4.6562 4.6562v3.3359c-5.0273 1.2148-8.7812 5.7422-8.7812 11.141 0 6.3242 5.1445 11.465 11.465 11.465h3.9336c1.1875 0 2.1602 0.97266 2.1602 2.1602-0.007812 1.1992-0.98047 2.1641-2.168 2.1641z"/>
  <path d="m321.67 286.62c21.105 0 38.273-17.168 38.273-38.273 0-21.105-17.168-38.273-38.273-38.273s-38.273 17.168-38.273 38.273c-0.003906 21.105 17.168 38.273 38.273 38.273zm0-67.242c15.977 0 28.969 12.992 28.969 28.969 0 15.977-12.992 28.969-28.969 28.969-15.977 0-28.969-12.992-28.969-28.969-0.003907-15.969 12.996-28.969 28.969-28.969z"/>
  <path d="m421.65 222.97h-10.746c-2.5703 0-4.6562 2.0859-4.6562 4.6562s2.082 4.6562 4.6562 4.6562h4.1328v3.0039c0 2.5703 2.082 4.6562 4.6562 4.6562 2.5703 0 4.6562-2.0859 4.6562-4.6562v-3.3359c5.0273-1.2148 8.7812-5.7383 8.7812-11.141 0-6.3242-5.1445-11.473-11.465-11.473h-3.9336c-1.1953 0-2.1602-0.96875-2.1602-2.1602 0-1.1953 0.97266-2.1602 2.1602-2.1602h10.746c2.5703 0 4.6562-2.0859 4.6562-4.6562s-2.082-4.6562-4.6562-4.6562h-4.125v-3.0039c0-2.5703-2.082-4.6562-4.6562-4.6562-2.5703 0-4.6562 2.0859-4.6562 4.6562v3.3359c-5.0273 1.2148-8.7812 5.7422-8.7812 11.141 0 6.3242 5.1445 11.465 11.465 11.465h3.9336c1.1875 0 2.1602 0.97266 2.1602 2.1602-0.007812 1.2031-0.98047 2.168-2.168 2.168z"/>
  <path d="m419.68 252.27c21.105 0 38.273-17.168 38.273-38.273 0-21.105-17.168-38.273-38.273-38.273-21.105 0-38.273 17.168-38.273 38.273-0.003906 21.105 17.168 38.273 38.273 38.273zm0-67.242c15.973 0 28.969 12.992 28.969 28.969 0 15.977-13 28.969-28.969 28.969-15.977 0-28.969-12.992-28.969-28.969 0-15.973 12.992-28.969 28.969-28.969z"/>
  <path d="m400.78 305.14h10.746c2.5703 0 4.6562-2.0859 4.6562-4.6562 0-2.5703-2.082-4.6562-4.6562-4.6562h-4.125v-3.0039c0-2.5703-2.082-4.6562-4.6562-4.6562-2.5703 0-4.6562 2.0859-4.6562 4.6562v3.3359c-5.0273 1.2148-8.7812 5.7422-8.7812 11.141 0 6.3242 5.1445 11.465 11.465 11.465h3.9336c1.1875 0 2.1602 0.97266 2.1602 2.1602s-0.96875 2.1602-2.1602 2.1602h-10.746c-2.5703 0-4.6562 2.0859-4.6562 4.6562 0 2.5703 2.0859 4.6562 4.6562 4.6562h4.125v3.0078c0 2.5703 2.0859 4.6562 4.6562 4.6562 2.5703 0 4.6562-2.0859 4.6562-4.6562v-3.3359c5.0273-1.2148 8.7812-5.7422 8.7812-11.141 0-6.3242-5.1445-11.473-11.465-11.473h-3.9336c-1.1953 0-2.1602-0.96875-2.1602-2.1602-0.007813-1.1836 0.96484-2.1562 2.1602-2.1562z"/>
  <path d="m402.75 275.85c-21.105 0-38.273 17.168-38.273 38.273s17.168 38.273 38.273 38.273 38.273-17.168 38.273-38.273-17.168-38.273-38.273-38.273zm0 67.242c-15.977 0-28.969-12.992-28.969-28.969s12.992-28.969 28.969-28.969c15.973 0 28.969 12.992 28.969 28.969s-13 28.969-28.969 28.969z"/>
  <path d="m501.26 294.16h-10.75c-2.5703 0-4.6562 2.0859-4.6562 4.6562 0 2.5703 2.082 4.6562 4.6562 4.6562h4.1328v3.0078c0 2.5703 2.082 4.6562 4.6562 4.6562 2.5703 0 4.6562-2.0859 4.6562-4.6562v-3.3359c5.0273-1.2148 8.7812-5.7422 8.7812-11.141 0-6.3242-5.1445-11.473-11.465-11.473h-3.9336c-1.1953 0-2.1602-0.96875-2.1602-2.1602 0-1.1953 0.97266-2.1602 2.1602-2.1602h10.746c2.5703 0 4.6562-2.0859 4.6562-4.6562 0-2.5703-2.082-4.6562-4.6562-4.6562h-4.125v-3.0039c0-2.5703-2.082-4.6562-4.6562-4.6562-2.5703 0-4.6562 2.0859-4.6562 4.6562v3.3359c-5.0273 1.2148-8.7812 5.7383-8.7812 11.141 0 6.3242 5.1445 11.465 11.465 11.465h3.9336c1.1875 0 2.1602 0.97266 2.1602 2.1602 0 1.1914-0.96875 2.1641-2.1641 2.1641z"/>
  <path d="m499.3 323.45c21.105 0 38.273-17.168 38.273-38.273 0-21.105-17.168-38.273-38.273-38.273s-38.273 17.168-38.273 38.273c-0.003906 21.105 17.164 38.273 38.273 38.273zm0-67.242c15.973 0 28.969 12.992 28.969 28.969 0 15.977-13 28.969-28.969 28.969-15.973 0-28.969-12.992-28.969-28.969 0-15.977 12.992-28.969 28.969-28.969z"/>
  <path d="m472.48 384.85h10.746c2.5703 0 4.6562-2.0859 4.6562-4.6562 0-2.5703-2.082-4.6562-4.6562-4.6562h-4.125v-3.0039c0-2.5703-2.082-4.6562-4.6562-4.6562-2.5703 0-4.6562 2.0859-4.6562 4.6562v3.3359c-5.0273 1.2148-8.7812 5.7383-8.7812 11.141 0 6.3242 5.1445 11.465 11.465 11.465h3.9336c1.1875 0 2.1602 0.97266 2.1602 2.1602 0 1.1953-0.96875 2.1602-2.1602 2.1602h-10.746c-2.5703 0-4.6562 2.082-4.6562 4.6562 0 2.5703 2.082 4.6562 4.6562 4.6562h4.1328v3.0039c0 2.5703 2.082 4.6562 4.6562 4.6562 2.5703 0 4.6562-2.082 4.6562-4.6562v-3.3359c5.0273-1.2148 8.7812-5.7383 8.7812-11.141 0-6.3242-5.1445-11.473-11.465-11.473h-3.9336c-1.1953 0-2.1602-0.96875-2.1602-2.1602-0.007813-1.1797 0.96484-2.1523 2.1523-2.1523z"/>
  <path d="m474.45 355.56c-21.105 0-38.273 17.168-38.273 38.273s17.168 38.273 38.273 38.273 38.273-17.168 38.273-38.273-17.172-38.273-38.273-38.273zm0 67.242c-15.973 0-28.969-13-28.969-28.969 0-15.977 13-28.969 28.969-28.969 15.973 0 28.969 12.992 28.969 28.969 0 15.969-12.996 28.969-28.969 28.969z"/>
  <path d="m371.09 424.1h-10.746c-2.5703 0-4.6562 2.082-4.6562 4.6562 0 2.5703 2.0859 4.6562 4.6562 4.6562h4.1328v3.0039c0 2.5703 2.0859 4.6562 4.6562 4.6562 2.5703 0 4.6562-2.082 4.6562-4.6562v-3.3359c5.0273-1.2148 8.7812-5.7422 8.7812-11.141 0-6.3242-5.1445-11.473-11.465-11.473h-3.9336c-1.1953 0-2.1602-0.96875-2.1602-2.1602 0-1.1953 0.96875-2.1602 2.1602-2.1602h10.746c2.5703 0 4.6562-2.082 4.6562-4.6562 0-2.5703-2.0859-4.6562-4.6562-4.6562h-4.125v-3.0039c0-2.5703-2.0859-4.6562-4.6562-4.6562-2.5703 0-4.6562 2.0859-4.6562 4.6562v3.3359c-5.0273 1.2148-8.7812 5.7422-8.7812 11.141 0 6.3242 5.1445 11.465 11.465 11.465h3.9336c1.1875 0 2.1602 0.97266 2.1602 2.1602-0.007812 1.1953-0.98047 2.168-2.168 2.168z"/>
  <path d="m369.12 453.4c21.105 0 38.273-17.168 38.273-38.273s-17.168-38.273-38.273-38.273-38.273 17.168-38.273 38.273c0 21.102 17.168 38.273 38.273 38.273zm0-67.246c15.977 0 28.969 12.992 28.969 28.969 0 15.973-12.992 28.969-28.969 28.969s-28.969-13-28.969-28.969c0-15.973 13-28.969 28.969-28.969z"/>
  <path d="m306.53 364.04v-3.332c5.0273-1.2148 8.7812-5.7383 8.7812-11.141 0-6.3242-5.1445-11.473-11.465-11.473h-3.9336c-1.1953 0-2.1602-0.96875-2.1602-2.1602 0-1.1953 0.96875-2.1602 2.1602-2.1602h10.746c2.5703 0 4.6562-2.0859 4.6562-4.6562 0-2.5703-2.0859-4.6562-4.6562-4.6562h-4.125v-3.0039c0-2.5703-2.0859-4.6562-4.6562-4.6562-2.5703 0-4.6562 2.0859-4.6562 4.6562v3.3359c-5.0273 1.2148-8.7812 5.7422-8.7812 11.141 0 6.3242 5.1445 11.465 11.465 11.465h3.9336c1.1875 0 2.1602 0.97266 2.1602 2.1602 0 1.1953-0.96875 2.1602-2.1602 2.1602h-10.746c-2.5703 0-4.6562 2.0859-4.6562 4.6562 0 2.5703 2.0859 4.6562 4.6562 4.6562h4.125v3.0039c0 2.5703 2.0859 4.6562 4.6562 4.6562 2.5703 0.003906 4.6562-2.082 4.6562-4.6523z"/>
  <path d="m340.16 342.75c0-21.105-17.168-38.273-38.273-38.273-21.105 0-38.273 17.168-38.273 38.273 0 21.105 17.168 38.273 38.273 38.273 21.102 0 38.273-17.164 38.273-38.273zm-67.242 0c0-15.977 12.992-28.969 28.969-28.969 15.977 0 28.969 12.992 28.969 28.969 0 15.977-12.992 28.969-28.969 28.969-15.977 0-28.969-12.992-28.969-28.969z"/>
  <path d="m492.83 509.21h-88.359v-56.141c0-2.5703-2.082-4.6562-4.6562-4.6562-2.5703 0-4.6562 2.082-4.6562 4.6562v56.141h-88.359c-8.0664 0-14.629 6.5664-14.629 14.629v1.7383c0 6.5938 4.3828 12.176 10.395 14l23.508 81.328c0.57422 1.9883 2.3984 3.3594 4.4688 3.3594h138.55c2.0703 0 3.8945-1.3711 4.4688-3.3594l23.496-81.316c2.2812-0.68359 4.3789-1.9297 6.1094-3.668 2.7656-2.7656 4.2812-6.4375 4.2812-10.344v-1.7383c0.011719-8.0664-6.5547-14.629-14.617-14.629zm-27.234 105.75h-131.55l-21.609-74.75h174.76zm27.234-84.059h-186.02c-2.9375 0-5.3242-2.3867-5.3242-5.3242v-1.7383c0-2.9375 2.3867-5.3242 5.3242-5.3242h186.02c2.9375 0 5.3242 2.3867 5.3242 5.332v1.7344c0 2.9297-2.3867 5.3203-5.3242 5.3203z"/>
  <path d="m415.36 355.27c-9.5273 0-17.277 7.75-17.277 17.277 0 9.5273 7.75 17.277 17.277 17.277 9.5273 0 17.277-7.75 17.277-17.277 0-9.5273-7.75-17.277-17.277-17.277zm0 25.246c-4.3945 0-7.9688-3.5703-7.9688-7.9688 0-4.3984 3.5781-7.9688 7.9688-7.9688 4.3945 0 7.9688 3.5781 7.9688 7.9688 0.003907 4.3906-3.5742 7.9688-7.9688 7.9688z"/>
  <path d="m412.23 436.41c0 9.5273 7.75 17.277 17.277 17.277 9.5273 0 17.277-7.75 17.277-17.277s-7.75-17.277-17.277-17.277c-9.5273 0-17.277 7.7539-17.277 17.277zm17.277-7.9648c4.3945 0 7.9688 3.5781 7.9688 7.9688 0 4.3945-3.5781 7.9688-7.9688 7.9688-4.3945 0-7.9688-3.5781-7.9688-7.9688 0-4.3945 3.5742-7.9688 7.9688-7.9688z"/>
  <path d="m481.37 243.97c9.5273 0 17.277-7.75 17.277-17.277s-7.75-17.277-17.277-17.277c-9.5273 0-17.277 7.75-17.277 17.277 0.003906 9.5273 7.75 17.277 17.277 17.277zm0-25.242c4.3945 0 7.9688 3.5703 7.9688 7.9688 0 4.3984-3.5781 7.9688-7.9688 7.9688-4.3945 0-7.9688-3.5703-7.9688-7.9688 0-4.3945 3.5781-7.9688 7.9688-7.9688z"/>
  <path d="m359.41 213.8c9.5273 0 17.277-7.75 17.277-17.277s-7.75-17.277-17.277-17.277-17.277 7.75-17.277 17.277c0.003907 9.5312 7.75 17.277 17.277 17.277zm0-25.238c4.3945 0 7.9688 3.5781 7.9688 7.9688 0 4.3945-3.5703 7.9688-7.9688 7.9688-4.3984 0-7.9688-3.5703-7.9688-7.9688 0-4.3984 3.5781-7.9688 7.9688-7.9688z"/>
  <path d="m290.84 287.12c0-9.5273-7.75-17.277-17.277-17.277s-17.277 7.75-17.277 17.277 7.75 17.277 17.277 17.277c9.5273-0.003907 17.277-7.75 17.277-17.277zm-25.246 0c0-4.3945 3.5703-7.9688 7.9688-7.9688s7.9688 3.5781 7.9688 7.9688c0 4.3945-3.5703 7.9688-7.9688 7.9688s-7.9688-3.5781-7.9688-7.9688z"/>
  <path d="m305.31 419.77c9.5273 0 17.277-7.75 17.277-17.277s-7.75-17.277-17.277-17.277-17.277 7.75-17.277 17.277 7.75 17.277 17.277 17.277zm0-25.242c4.3945 0 7.9688 3.5781 7.9688 7.9688 0 4.3945-3.5703 7.9688-7.9688 7.9688s-7.9688-3.5781-7.9688-7.9688 3.5742-7.9688 7.9688-7.9688z"/>
  <path d="m366.48 258.85c0 7.3242 5.9609 13.289 13.289 13.289 7.3242 0 13.289-5.9609 13.289-13.289 0-7.3242-5.9609-13.289-13.289-13.289-7.332 0-13.289 5.957-13.289 13.289zm13.289-3.9844c2.1953 0 3.9805 1.7891 3.9805 3.9805 0 2.1953-1.7891 3.9805-3.9805 3.9805s-3.9805-1.7852-3.9805-3.9805c-0.003906-2.1914 1.7852-3.9805 3.9805-3.9805z"/>
  <path d="m454.12 267.72c0-7.3242-5.9609-13.289-13.289-13.289-7.332 0-13.289 5.9609-13.289 13.289 0 7.3242 5.9609 13.289 13.289 13.289s13.289-5.9648 13.289-13.289zm-13.285 3.9805c-2.1953 0-3.9805-1.7891-3.9805-3.9805s1.7891-3.9805 3.9805-3.9805c2.1914 0 3.9805 1.7852 3.9805 3.9805s-1.7891 3.9805-3.9805 3.9805z"/>
  <path d="m444.81 335.12c0 7.3242 5.9609 13.289 13.285 13.289 7.3242 0 13.289-5.9609 13.289-13.289 0-7.332-5.9609-13.289-13.289-13.289-7.3242 0.003907-13.285 5.9648-13.285 13.289zm13.289-3.9766c2.1953 0 3.9805 1.7852 3.9805 3.9805s-1.7891 3.9805-3.9805 3.9805c-2.1953 0-3.9805-1.7852-3.9805-3.9805 0-2.1992 1.7852-3.9805 3.9805-3.9805z"/>
  <path d="m480.7 340.89c0 7.3242 5.9609 13.289 13.289 13.289 7.3242 0 13.289-5.9609 13.289-13.289 0-7.3242-5.9609-13.289-13.289-13.289-7.3281 0-13.289 5.957-13.289 13.289zm17.27 0c0 2.1953-1.7891 3.9805-3.9805 3.9805-2.1953 0-3.9805-1.7891-3.9805-3.9805 0-2.1914 1.7891-3.9805 3.9805-3.9805 2.1953-0.003906 3.9805 1.7852 3.9805 3.9805z"/>
  <path d="m530.41 321.09c-7.3242 0-13.285 5.9609-13.285 13.289 0 7.3242 5.9609 13.289 13.285 13.289 7.3242 0 13.289-5.9609 13.289-13.289 0.003906-7.332-5.957-13.289-13.289-13.289zm0 17.27c-2.1953 0-3.9805-1.7891-3.9805-3.9805 0-2.1914 1.7852-3.9805 3.9805-3.9805 2.1953 0 3.9805 1.7852 3.9805 3.9805 0 2.1953-1.7852 3.9805-3.9805 3.9805z"/>
  <path d="m526.38 355.27c-7.3242 0-13.285 5.9609-13.285 13.289 0 7.332 5.9609 13.289 13.285 13.289 7.3242 0 13.289-5.9609 13.289-13.289 0.003906-7.3281-5.9609-13.289-13.289-13.289zm0 17.27c-2.1953 0-3.9805-1.7891-3.9805-3.9805 0-2.1914 1.7852-3.9805 3.9805-3.9805 2.1953 0 3.9805 1.7852 3.9805 3.9805 0 2.1992-1.7891 3.9805-3.9805 3.9805z"/>
  <path d="m347.05 356.38c0 7.3242 5.9609 13.289 13.289 13.289 7.3242 0 13.289-5.9609 13.289-13.289 0-7.3242-5.9609-13.289-13.289-13.289-7.332 0-13.289 5.9648-13.289 13.289zm13.285-3.9805c2.1953 0 3.9805 1.7852 3.9805 3.9805 0 2.1953-1.7852 3.9805-3.9805 3.9805-2.1953 0-3.9805-1.7891-3.9805-3.9805s1.7891-3.9805 3.9805-3.9805z"/>
  <path d="m344.93 288.42c-7.3242 0-13.289 5.9609-13.289 13.289 0 7.3242 5.9609 13.289 13.289 13.289 7.3242 0 13.289-5.9609 13.289-13.289 0.003906-7.3203-5.957-13.289-13.289-13.289zm0 17.273c-2.1953 0-3.9805-1.7891-3.9805-3.9805 0-2.1914 1.7891-3.9805 3.9805-3.9805 2.1914 0 3.9805 1.7852 3.9805 3.9805 0 2.1953-1.7812 3.9805-3.9805 3.9805z"/>
 </g>
</svg>