<?xml version="1.0" encoding="UTF-8"?>
<!-- The Best Svg Icon site in the world: iconSvg.co, Visit us! https://iconsvg.co -->
<svg width="800px" height="800px" version="1.1" viewBox="144 144 512 512" xmlns="http://www.w3.org/2000/svg">
 <defs>
  <clipPath id="a">
   <path d="m163 148.09h474v503.81h-474z"/>
  </clipPath>
 </defs>
 <g clip-path="url(#a)">
  <path d="m344.89 289.79h-15.746c-4.1719 0-8.1797-1.6562-11.133-4.6094-2.9492-2.9531-4.6094-6.957-4.6094-11.133 0-4.3477-3.5234-7.8711-7.8711-7.8711s-7.8711 3.5234-7.8711 7.8711c0 8.3516 3.3164 16.359 9.2227 22.266 5.9023 5.9023 13.914 9.2227 22.262 9.2227v7.8711c0 4.3477 3.5273 7.8711 7.875 7.8711 4.3477 0 7.8711-3.5234 7.8711-7.8711v-7.8711c11.25 0 21.645-6.0039 27.27-15.746 5.625-9.7422 5.625-21.746 0-31.488-5.625-9.7422-16.02-15.742-27.27-15.742h-15.746c-5.6211 0-10.82-3-13.633-7.8711s-2.8125-10.875 0-15.746 8.0117-7.8711 13.633-7.8711h15.746c4.1758 0 8.1797 1.6602 11.133 4.6094 2.9531 2.9531 4.6094 6.957 4.6094 11.133 0 4.3477 3.5273 7.875 7.875 7.875 4.3477 0 7.8711-3.5273 7.8711-7.875 0-8.3516-3.3164-16.359-9.2227-22.266-5.9062-5.9023-13.914-9.2227-22.266-9.2227v-7.8711c0-4.3477-3.5234-7.8711-7.8711-7.8711-4.3477 0-7.875 3.5234-7.875 7.8711v7.8711c-11.246 0-21.645 6.0039-27.27 15.746-5.6211 9.7422-5.6211 21.746 0 31.488 5.625 9.7422 16.023 15.742 27.27 15.742h15.746c5.625 0 10.82 3.0039 13.633 7.875 2.8125 4.8711 2.8125 10.871 0 15.742-2.8125 4.8711-8.0078 7.8711-13.633 7.8711zm-7.8711 62.977c27.141 0 53.168-10.781 72.363-29.973 19.191-19.191 29.973-45.223 29.973-72.363 0-27.141-10.781-53.172-29.973-72.363-19.195-19.191-45.223-29.973-72.363-29.973-27.141 0-53.172 10.781-72.363 29.973s-29.973 45.223-29.973 72.363c0.03125 27.133 10.824 53.141 30.008 72.328 19.188 19.184 45.195 29.977 72.328 30.008zm0-188.93c22.965 0 44.988 9.125 61.23 25.363 16.238 16.238 25.359 38.266 25.359 61.23 0 22.965-9.1211 44.992-25.359 61.23-16.242 16.238-38.266 25.363-61.23 25.363-22.969 0-44.992-9.125-61.23-25.363-16.238-16.238-25.363-38.266-25.363-61.23 0.03125-22.957 9.1602-44.965 25.395-61.199 16.234-16.23 38.242-25.363 61.199-25.395zm291.27 251.91c-4.3477 0-7.875 3.5234-7.875 7.8711v29.363l-152.17-137.54h0.003906c-2.8789-2.5977-7.2227-2.7109-10.234-0.26953l-120.85 98.18-159.69-137.4c-3.3047-2.7383-8.1953-2.3242-10.992 0.92969s-2.4766 8.1484 0.72656 11.008l164.68 141.7c2.8906 2.4883 7.1484 2.5508 10.105 0.14062l120.71-98.086 145.3 131.34h-26.953c-4.3477 0-7.8711 3.5234-7.8711 7.8711s3.5234 7.8711 7.8711 7.8711h47.234c3.3203-0.035156 6.2617-2.1523 7.3516-5.2891 0.089844-0.34375 0.16016-0.6875 0.20312-1.0391 0.16016-0.51172 0.26562-1.0391 0.31641-1.5742v-47.234c-0.019531-4.3359-3.5391-7.8398-7.8711-7.8398zm-393.6-15.742h-47.234c-6.2617 0-12.27 2.4883-16.699 6.9141-4.4297 4.4297-6.918 10.438-6.918 16.699v220.42c0 2.0859 0.83203 4.0898 2.3086 5.5664 1.4766 1.4766 3.4766 2.3047 5.5664 2.3047h78.719c2.0898 0 4.0898-0.82812 5.5664-2.3047 1.4766-1.4766 2.3047-3.4805 2.3047-5.5664v-220.42c0-6.2617-2.4883-12.27-6.9141-16.699-4.4297-4.4258-10.438-6.9141-16.699-6.9141zm7.8711 236.16h-62.977v-212.55c0-4.3477 3.5234-7.8711 7.8711-7.8711h47.234c2.0859 0 4.0898 0.82812 5.5664 2.3047 1.4766 1.4766 2.3047 3.4805 2.3047 5.5664zm244.03-236.16h-47.23c-6.2656 0-12.27 2.4883-16.699 6.9141-4.4297 4.4297-6.918 10.438-6.918 16.699v220.42c0 2.0859 0.82812 4.0898 2.3047 5.5664 1.4766 1.4766 3.4805 2.3047 5.5664 2.3047h78.723c2.0859 0 4.0898-0.82812 5.5664-2.3047 1.4766-1.4766 2.3047-3.4805 2.3047-5.5664v-220.42c0-6.2617-2.4883-12.27-6.918-16.699-4.4297-4.4258-10.434-6.9141-16.699-6.9141zm7.8711 236.16h-62.973v-212.55c0-4.3477 3.5234-7.8711 7.8711-7.8711h47.23c2.0898 0 4.0898 0.82812 5.5664 2.3047s2.3047 3.4805 2.3047 5.5664zm118.08-125.95h-47.23c-6.2656 0-12.273 2.4883-16.699 6.918-4.4297 4.4258-6.918 10.434-6.918 16.699v110.21c0 2.0859 0.82813 4.0898 2.3047 5.5664 1.4766 1.4766 3.4805 2.3047 5.5664 2.3047h78.723c2.0859 0 4.0898-0.82812 5.5664-2.3047 1.4727-1.4766 2.3047-3.4805 2.3047-5.5664v-110.21c0-6.2656-2.4883-12.273-6.918-16.699-4.4297-4.4297-10.438-6.918-16.699-6.918zm7.8711 125.95h-62.977v-102.34c0-4.3477 3.5273-7.875 7.875-7.875h47.23c2.0898 0 4.0898 0.83203 5.5664 2.3086 1.4766 1.4766 2.3047 3.4766 2.3047 5.5664zm-259.78-173.18h-47.23c-6.2617 0-12.27 2.4844-16.699 6.9141-4.4297 4.4297-6.918 10.438-6.918 16.699v157.44c0 2.0859 0.83203 4.0898 2.3086 5.5664 1.4727 1.4766 3.4766 2.3047 5.5664 2.3047h78.719c2.0859 0 4.0898-0.82812 5.5664-2.3047 1.4766-1.4766 2.3047-3.4805 2.3047-5.5664v-157.44c0-6.2617-2.4883-12.27-6.918-16.699-4.4258-4.4297-10.434-6.9141-16.699-6.9141zm7.875 173.18h-62.977v-149.57c0-4.3477 3.5234-7.8711 7.8711-7.8711h47.23c2.0898 0 4.0898 0.82812 5.5664 2.3047 1.4766 1.4766 2.3086 3.4805 2.3086 5.5664z"/>
 </g>
</svg>