<?xml version="1.0" encoding="UTF-8"?>
<!-- The Best Svg Icon site in the world: iconSvg.co, Visit us! https://iconsvg.co -->
<svg fill="#000000" width="800px" height="800px" version="1.1" viewBox="144 144 512 512" xmlns="http://www.w3.org/2000/svg">
 <g>
  <path d="m544.93 255.96h-43.582c-7.3281-0.007813-14.355-2.9258-19.535-8.1055-5.1797-5.1836-8.0938-12.207-8.1016-19.535v-43.59c0.003906-1.8477 1.1211-3.5156 2.8281-4.2227 1.707-0.70703 3.6758-0.31641 4.9844 0.98828l66.641 66.645c1.3086 1.3125 1.7031 3.2812 0.99219 4.9922-0.70703 1.7109-2.3789 2.8281-4.2305 2.8281zm-62.059-60.164v32.52c0.003906 4.8984 1.9531 9.5938 5.418 13.059 3.4609 3.4648 8.1602 5.4141 13.059 5.4219h32.52z"/>
  <path d="m581.99 322.27h-173.45c-4.8477 0.019531-8.7734 3.9453-8.793 8.793v45.984c0.019531 4.8516 3.9453 8.7773 8.793 8.7969h173.45c2.332 0 4.5703-0.92969 6.2188-2.5781 1.6484-1.6484 2.5742-3.8867 2.5742-6.2188v-45.984c0-2.332-0.92578-4.5664-2.5742-6.2148-1.6484-1.6523-3.8867-2.5781-6.2188-2.5781zm-0.36719 54.41-172.71 0.003906v-45.254h172.71z"/>
  <path d="m460.38 467.86h18.363v18.363h-18.363z"/>
  <path d="m408.92 411.93h18.363v18.363h-18.363z"/>
  <path d="m511.82 467.86h18.363v18.363h-18.363z"/>
  <path d="m408.92 467.86h18.363v18.363h-18.363z"/>
  <path d="m511.82 523.77h18.363v18.363h-18.363z"/>
  <path d="m460.38 411.93h18.363v18.363h-18.363z"/>
  <path d="m460.38 523.77h18.363v18.363h-18.363z"/>
  <path d="m593.99 293.51h-197.4c-6.7852 0.011719-13.293 2.7148-18.09 7.5117-4.8008 4.8008-7.5 11.305-7.5117 18.09v240.96c0.011719 6.7852 2.7109 13.289 7.5117 18.09 4.7969 4.7969 11.305 7.5 18.09 7.5117h197.4c6.7852-0.011719 13.293-2.7148 18.09-7.5117 4.8008-4.8008 7.5-11.305 7.5117-18.09v-240.96c-0.011719-6.7852-2.7109-13.289-7.5117-18.09-4.7969-4.7969-11.305-7.5-18.09-7.5117zm-185.08 37.922h172.71v45.25l-172.71 0.003906zm27.531 211.25v0.003906c-0.003906 4.7539-3.8594 8.6094-8.6133 8.6133h-19.453c-4.7539-0.007813-8.6055-3.8594-8.6094-8.6133v-19.449c0-4.7539 3.8516-8.6133 8.6094-8.6211h19.453c4.7578 0.007813 8.6094 3.8633 8.6133 8.6211zm0-55.918v0.003906c-0.003906 4.7539-3.8594 8.6094-8.6133 8.6133h-19.453c-4.7539-0.007812-8.6055-3.8594-8.6094-8.6133v-19.441c0.003906-4.7539 3.8555-8.6055 8.6094-8.6133h19.453c4.7539 0.003906 8.6094 3.8594 8.6133 8.6133zm0-55.922c-0.003906 4.7578-3.8594 8.6094-8.6133 8.6172h-19.453c-4.7539-0.007812-8.6055-3.8633-8.6094-8.6172v-19.449c0.003906-4.7539 3.8555-8.6094 8.6094-8.6172h19.453c4.7539 0.003906 8.6094 3.8594 8.6133 8.6172zm51.457 111.84c-0.007812 4.7539-3.8633 8.6094-8.6211 8.6133h-19.445c-4.7578-0.003906-8.6094-3.8594-8.6133-8.6133v-19.449c0.003906-4.7578 3.8555-8.6133 8.6133-8.6211h19.445c4.7617 0.007813 8.6172 3.8633 8.6211 8.6211zm0-55.918c-0.007812 4.7539-3.8633 8.6094-8.6211 8.6133h-19.445c-4.7578-0.003906-8.6094-3.8594-8.6133-8.6133v-19.441c0.003906-4.7539 3.8555-8.6094 8.6133-8.6133h19.445c4.7578 0.003906 8.6133 3.8594 8.6211 8.6133zm0-55.922v-0.003906c-0.007812 4.7578-3.8633 8.6094-8.6211 8.6172h-19.445c-4.7578-0.007812-8.6094-3.8594-8.6133-8.6172v-19.449c0.003906-4.7578 3.8555-8.6133 8.6133-8.6172h19.445c4.7578 0.003906 8.6133 3.8594 8.6211 8.6172zm51.453 111.84c-0.003906 4.7539-3.8594 8.6094-8.6133 8.6133h-19.441c-4.7539-0.003906-8.6094-3.8594-8.6133-8.6133v-19.449c0.003906-4.7578 3.8594-8.6133 8.6133-8.6211h19.453c4.7578 0.007813 8.6094 3.8633 8.6172 8.6211zm0-55.918c-0.003906 4.7539-3.8594 8.6094-8.6133 8.6133h-19.441c-4.7539-0.003906-8.6094-3.8594-8.6133-8.6133v-19.441c-0.003907-4.7578 3.8555-8.6211 8.6133-8.6289h19.453c4.7578 0.015626 8.6055 3.875 8.6016 8.6289zm0-55.922v-0.003906c-0.003906 4.7578-3.8594 8.6094-8.6133 8.6172h-19.441c-4.7539-0.007812-8.6094-3.8594-8.6133-8.6172v-19.449c0.003906-4.7578 3.8594-8.6133 8.6133-8.6172h19.453c4.7578 0.003906 8.6094 3.8594 8.6172 8.6172zm14.77-19.453c0.007812-4.7578 3.8594-8.6133 8.6172-8.6172h19.453-0.003906c4.7539 0.007812 8.6055 3.8633 8.6133 8.6172v19.453-0.003906c-0.007813 4.7539-3.8594 8.6094-8.6133 8.6172h-19.449c-4.7578-0.007812-8.6094-3.8594-8.6172-8.6172zm36.695 131.29v-0.003906c-0.003906 4.7539-3.8555 8.6055-8.6094 8.6133h-19.469c-4.7539-0.007812-8.6055-3.8594-8.6133-8.6133v-75.348c0.007812-4.75 3.8594-8.6055 8.6133-8.6094h19.469c4.7539 0.003906 8.6055 3.8594 8.6094 8.6094z"/>
  <path d="m563.28 467.87h18.375v74.258h-18.375z"/>
  <path d="m408.92 523.77h18.363v18.363h-18.363z"/>
  <path d="m511.82 411.93h18.363v18.363h-18.363z"/>
  <path d="m563.28 411.93h18.363v18.363h-18.363z"/>
  <path d="m291.87 294.95c-2.9805-1.6211-6.1602-2.8438-9.4609-3.6328v19.281c8.4375-0.60937 12.652-4.0195 12.645-10.223v0.003906c0.042968-2.2656-1.1875-4.3594-3.1836-5.4297z"/>
  <path d="m265.11 271.76c-0.10938 2.4102 1.0234 4.7109 3.0039 6.0938 2.7031 1.7344 5.6953 2.9766 8.832 3.6641v-19.699c-3.1133 0.29688-6.0898 1.4258-8.6094 3.2773-2.0859 1.5703-3.2852 4.0508-3.2266 6.6641z"/>
  <path d="m279.7 230.12c-14.875 0.007812-29.141 5.918-39.656 16.441-10.52 10.52-16.426 24.789-16.422 39.664 0 14.875 5.9102 29.141 16.43 39.66 10.52 10.52 24.789 16.43 39.664 16.43s29.141-5.9062 39.664-16.426c10.52-10.516 16.43-24.781 16.434-39.656-0.011718-14.879-5.9297-29.145-16.449-39.664-10.52-10.52-24.785-16.438-39.664-16.449zm20.871 79.41c-1.8203 2.668-4.3359 4.793-7.2695 6.1445-3.418 1.5938-7.125 2.4961-10.895 2.6445v6.3672c0.023438 0.71875-0.25391 1.4141-0.76172 1.9219-1.1172 1.0039-2.8047 1.0234-3.9492 0.050781-0.51953-0.51953-0.79688-1.2383-0.75781-1.9727v-6.3672c-6.2344-0.36719-12.359-1.793-18.113-4.2188-0.73047-0.30469-1.3555-0.81641-1.7969-1.4727-1.0625-1.4844-0.92969-3.5117 0.31641-4.8477 0.67578-0.74219 1.6406-1.1523 2.6406-1.1211 0.58984-0.003906 1.1719 0.12109 1.7109 0.36328 4.8086 2.1406 9.9805 3.3555 15.242 3.5859v-20.613c-3.5117-0.88281-6.9453-2.0508-10.27-3.4922-2.707-1.1992-5.0898-3.0312-6.9492-5.3359-1.918-2.5-2.8984-5.5938-2.7773-8.7422-0.023437-3.0234 0.76953-6 2.2891-8.6133 1.6484-2.75 4-5.0078 6.8164-6.543 3.3555-1.8359 7.0742-2.9062 10.895-3.1367v-6.3008c-0.015624-0.73047 0.25781-1.4414 0.76172-1.9727 0.5-0.53125 1.2031-0.82422 1.9297-0.80469 0.74219-0.007812 1.4531 0.28125 1.9727 0.80469 0.52344 0.52344 0.8125 1.2344 0.80469 1.9727v6.1875c5.3281 0.14062 10.602 1.1367 15.609 2.9609 1.5742 0.45703 2.6172 1.9492 2.5078 3.5859 0 0.95703-0.34766 1.8828-0.98438 2.6016-0.64062 0.76953-1.6016 1.1992-2.6055 1.1641-0.49219-0.03125-0.97656-0.15234-1.4297-0.35938-4.2188-1.4609-8.6328-2.2773-13.098-2.418v21.344c3.6562 0.80859 7.2422 1.918 10.719 3.3164 2.7852 1.1523 5.2383 2.9883 7.1289 5.3359 2.0195 2.6953 3.0352 6.0078 2.8672 9.3711 0.03125 3.0625-0.85938 6.0625-2.5547 8.6094z"/>
  <path d="m396.59 284.35h152.93v-32.977c0-1.2148-0.48438-2.3789-1.3398-3.2383-0.85938-0.85938-2.0273-1.3438-3.2422-1.3438h-43.602c-4.8906-0.007813-9.582-1.9531-13.043-5.4141-3.457-3.4609-5.4062-8.1484-5.4141-13.043v-43.602c0-1.2148-0.48047-2.3789-1.3398-3.2383s-2.0234-1.3398-3.2383-1.3398h-279.34c-4.9258 0.011719-9.6406 1.9766-13.121 5.4609-3.4766 3.4883-5.4297 8.207-5.4297 13.133v402.54c0.011719 4.918 1.9688 9.6289 5.4453 13.105 3.4766 3.4766 8.1875 5.4336 13.105 5.4453h332.03c4.918-0.011719 9.6289-1.9688 13.105-5.4453 3.4766-3.4766 5.4336-8.1875 5.4453-13.105v-6.457h-152.95c-9.2148-0.011719-18.051-3.6797-24.566-10.195s-10.184-15.352-10.195-24.566v-240.96c0.011719-9.2148 3.6797-18.051 10.195-24.566s15.352-10.184 24.566-10.195zm-116.88 67.098c-17.309-0.003907-33.906-6.8867-46.141-19.129-12.234-12.242-19.105-28.844-19.098-46.152 0.003906-17.309 6.8867-33.906 19.133-46.137 12.242-12.234 28.844-19.105 46.152-19.098 17.309 0.011718 33.906 6.8945 46.137 19.141 12.234 12.242 19.102 28.848 19.09 46.156-0.023437 17.297-6.9102 33.883-19.148 46.109-12.238 12.227-28.824 19.102-46.125 19.109z"/>
 </g>
</svg>