<?xml version="1.0" encoding="UTF-8"?>
<!-- The Best Svg Icon site in the world: iconSvg.co, Visit us! https://iconsvg.co -->
<svg fill="#000000" width="800px" height="800px" version="1.1" viewBox="144 144 512 512" xmlns="http://www.w3.org/2000/svg">
 <g>
  <path d="m451.21 398.35c0.34375-1.5352-0.13281-3.1406-1.2539-4.2422l-17.566-17.285c-1.3555-1.3281-3.3906-1.6836-5.1133-0.88672l-63.516 29.414c-1.3555 0.62891-2.3242 1.8828-2.5742 3.3594-0.25781 1.4727 0.22656 2.9766 1.293 4.0312l16.641 16.375-71.695 44.547c-1.9883 1.2344-2.7148 3.7773-1.6875 5.8789 0.78516 1.6016 2.3984 2.5508 4.0977 2.5508 0.52734 0 1.0664-0.089844 1.5938-0.28906l108.82-40.516c1.3164-0.48828 2.332-1.5586 2.7539-2.8984 0.42188-1.3398 0.20703-2.7969-0.58984-3.9531l-13.09-19.055 38.949-13.723c1.4844-0.52734 2.5938-1.7773 2.9336-3.3086zm-50.527 10.406c-1.3359 0.47266-2.3789 1.5352-2.8203 2.8867-0.44141 1.3516-0.22656 2.8281 0.57812 3.9961l13.148 19.141-60.664 22.59 37.934-23.566c1.1875-0.74219 1.9688-1.9805 2.125-3.3711 0.15625-1.3906-0.33594-2.7695-1.3359-3.7539l-16.082-15.82 54.672-25.32 10.113 9.9492z"/>
  <path d="m491.32 435.46c-1.7773-1.7773-4.6641-1.7773-6.4492 0l-91.586 91.582c-13.984 13.984-32.617 21.688-52.453 21.688-19.836 0-38.465-7.7031-52.453-21.688-28.918-28.922-28.918-75.98 0-104.9l60.891-60.891 0.003907-0.003906 0.003906-0.003907 30.691-30.691c1.7773-1.7773 1.7773-4.6641 0-6.4492l-41.379-41.379c-1.7773-1.7773-4.6641-1.7773-6.4492 0l-30.691 30.691-0.003907 0.003906-60.887 60.887c-26.742 26.742-41.473 62.355-41.473 100.27 0 37.922 14.727 73.531 41.469 100.27 26.742 26.742 62.355 41.469 100.27 41.469 37.922 0 73.531-14.727 100.27-41.473l60.895-60.895s0.003906-0.003907 0.003906-0.003907l30.688-30.688c1.7773-1.7773 1.7773-4.6641 0-6.4492zm-155.95-143.06 34.93 34.93-24.242 24.242-34.93-34.93zm99.289 276.02c-25.02 25.02-58.34 38.805-93.828 38.805-35.484 0-68.805-13.777-93.828-38.797-25.023-25.02-38.805-58.34-38.797-93.828 0-35.484 13.777-68.805 38.805-93.828l57.668-57.668 34.93 34.93-57.668 57.668c-32.477 32.477-32.477 85.32 0 117.8 15.707 15.707 36.625 24.359 58.895 24.359 22.27 0 43.191-8.6523 58.898-24.359l57.672-57.668 34.93 34.93zm64.117-64.117-34.93-34.93 24.25-24.242 34.93 34.93z"/>
  <path d="m504.88 226.65c0.89063 0.89062 2.0547 1.3359 3.2227 1.3359 1.1641 0 2.332-0.44141 3.2227-1.3359l23.703-23.703c1.7773-1.7773 1.7773-4.6641 0-6.4492-1.7773-1.7773-4.6641-1.7773-6.4492 0l-23.703 23.703c-1.7812 1.7852-1.7812 4.6719 0.003906 6.4492z"/>
  <path d="m489.72 211.49c0.89062 0.89062 2.0547 1.3359 3.2227 1.3359 1.1641 0 2.332-0.44141 3.2227-1.3359l15.863-15.863c1.7773-1.7773 1.7773-4.6641 0-6.4492-1.7773-1.7773-4.6641-1.7773-6.4492 0l-15.863 15.863c-1.7812 1.7812-1.7812 4.668 0.003906 6.4492z"/>
  <path d="m465.12 210.33c1.1641 0 2.332-0.44141 3.2227-1.3359l20.035-20.035c1.7773-1.7773 1.7773-4.6641 0-6.4492-1.7773-1.7773-4.6641-1.7773-6.4492 0l-20.035 20.035c-1.7773 1.7773-1.7773 4.6641 0 6.4492 0.89062 0.89062 2.0586 1.3359 3.2266 1.3359z"/>
  <path d="m522.54 263.18c-1.7773 1.7773-1.7773 4.6641 0 6.4492 0.89063 0.89063 2.0547 1.3359 3.2227 1.3359 1.1641 0 2.332-0.44141 3.2227-1.3359l20.035-20.035c1.7773-1.7773 1.7773-4.6641 0-6.4492-1.7773-1.7773-4.6641-1.7773-6.4492 0z"/>
  <path d="m520.04 235.37c-1.7773 1.7773-1.7773 4.6641 0 6.4492 0.89062 0.89062 2.0547 1.3359 3.2227 1.3359 1.1641 0 2.332-0.44141 3.2227-1.3359l15.859-15.863c1.7773-1.7773 1.7773-4.6641 0-6.4492s-4.6641-1.7773-6.4492 0z"/>
  <path d="m448.22 276.86-3.3164 3.3164c-1.7773 1.7773-1.7773 4.6641 0 6.4492 0.89062 0.89062 2.0547 1.3359 3.2227 1.3359s2.332-0.44141 3.2227-1.3359l3.457-3.457c2.1406 1.5117 4.6836 2.3359 7.3555 2.3359h0.003906c3.4141 0 6.625-1.3281 9.043-3.75 2.4141-2.418 3.7422-5.6289 3.75-9.043 0-3.4141-1.3281-6.6289-3.7422-9.043l-3.3594-3.3594c-0.69531-0.69531-1.0781-1.6172-1.0781-2.6016 0-0.98438 0.38281-1.9062 1.0742-2.5938 1.4375-1.4297 3.7617-1.4297 5.1953 0l9.1758 9.1758c1.7773 1.7773 4.6641 1.7773 6.4492 0 1.7773-1.7773 1.7773-4.6641 0-6.4492l-4.2734-4.2734 3.3164-3.3164c1.7773-1.7773 1.7773-4.6641 0-6.4492-1.7773-1.7773-4.6641-1.7773-6.4492 0l-3.457 3.457c-4.9883-3.5156-11.941-3.0547-16.398 1.4062-2.4141 2.4141-3.7422 5.6289-3.7422 9.043 0 3.4141 1.3281 6.6289 3.7422 9.043l3.3594 3.3594c0.69531 0.69141 1.0742 1.6133 1.0742 2.5938 0 0.98438-0.38281 1.9062-1.0781 2.6016-1.3867 1.3867-3.8047 1.3906-5.1875 0l-9.1719-9.1719c-1.7773-1.7773-4.6641-1.7773-6.4492 0-1.7773 1.7773-1.7773 4.6641 0 6.4492z"/>
  <path d="m466.31 310.16c24.777 0 44.934-20.156 44.934-44.941 0-24.781-20.156-44.941-44.934-44.941s-44.941 20.156-44.941 44.941c0.003906 24.781 20.164 44.941 44.941 44.941zm0-80.758c19.75 0 35.82 16.066 35.82 35.82s-16.066 35.82-35.82 35.82-35.82-16.066-35.82-35.82 16.066-35.82 35.82-35.82z"/>
  <path d="m582.31 314.12c-1.7773-1.7773-4.6641-1.7773-6.4492 0l-23.703 23.703c-1.7773 1.7773-1.7773 4.6641 0 6.4492 0.89062 0.89062 2.0547 1.3359 3.2227 1.3359 1.168 0 2.332-0.44141 3.2227-1.3359l23.703-23.703c1.7812-1.7852 1.7812-4.6719 0.003906-6.4492z"/>
  <path d="m537 329.12c0.89062 0.89062 2.0547 1.3359 3.2227 1.3359 1.168 0 2.332-0.44141 3.2227-1.3359l15.863-15.863c1.7773-1.7773 1.7773-4.6641 0-6.4492-1.7773-1.7773-4.6641-1.7773-6.4492 0l-15.863 15.863c-1.7812 1.7852-1.7812 4.6719 0.003906 6.4492z"/>
  <path d="m529.21 300.13-20.035 20.035c-1.7773 1.7773-1.7773 4.6641 0 6.4492 0.89062 0.89062 2.0547 1.3359 3.2227 1.3359 1.168 0 2.332-0.44141 3.2227-1.3359l20.035-20.035c1.7773-1.7773 1.7773-4.6641 0-6.4492-1.7812-1.7812-4.668-1.7812-6.4453 0z"/>
  <path d="m596.3 360.77c-1.7773-1.7773-4.6641-1.7773-6.4492 0l-20.035 20.035c-1.7773 1.7773-1.7773 4.6641 0 6.4492 0.89063 0.89063 2.0547 1.3359 3.2227 1.3359s2.332-0.44141 3.2227-1.3359l20.035-20.035c1.7812-1.7852 1.7812-4.6719 0.003907-6.4492z"/>
  <path d="m573.77 359.44 15.863-15.863c1.7773-1.7773 1.7773-4.6641 0-6.4492-1.7773-1.7773-4.6641-1.7773-6.4492 0l-15.863 15.863c-1.7773 1.7773-1.7773 4.6641 0 6.4492 0.89062 0.89062 2.0547 1.3359 3.2227 1.3359 1.1719 0 2.3359-0.44531 3.2266-1.3359z"/>
  <path d="m531.67 371.21 3.3164-3.3164c1.7773-1.7773 1.7773-4.6641 0-6.4492-1.7773-1.7773-4.6641-1.7773-6.4492 0l-3.457 3.457c-4.9883-3.5117-11.941-3.0547-16.398 1.4062-2.4141 2.4141-3.7422 5.6289-3.7422 9.043 0 3.4141 1.3281 6.6289 3.7422 9.043l3.3594 3.3594c1.4297 1.4297 1.4258 3.7578-0.003906 5.1875-0.69531 0.69531-1.6172 1.0742-2.5938 1.0781-0.97656 0-1.8984-0.38281-2.5938-1.0742l-9.1797-9.1797c-1.7773-1.7773-4.6641-1.7773-6.4492 0-1.7773 1.7773-1.7773 4.6641 0 6.4492l4.2734 4.2734-3.3164 3.3164c-1.7773 1.7773-1.7773 4.6641 0 6.4492 0.89062 0.89062 2.0547 1.3359 3.2227 1.3359 1.168 0 2.332-0.44141 3.2227-1.3359l3.457-3.457c2.1406 1.5117 4.6797 2.3359 7.3555 2.3359 3.4141 0 6.625-1.3281 9.043-3.75 4.9883-4.9883 4.9883-13.098 0.003907-18.086l-3.3594-3.3594c-0.69531-0.69531-1.0781-1.6172-1.0781-2.6016s0.38281-1.9062 1.0742-2.5938c1.4375-1.4297 3.7617-1.4297 5.1953 0l9.1758 9.1758c1.7773 1.7773 4.6641 1.7773 6.4492 0 1.7773-1.7773 1.7773-4.6641 0-6.4492z"/>
  <path d="m513.59 337.91c-24.777 0-44.934 20.156-44.934 44.941 0 24.777 20.156 44.941 44.934 44.941 24.777 0 44.941-20.156 44.941-44.941 0-24.785-20.164-44.941-44.941-44.941zm0 80.754c-19.75 0-35.82-16.066-35.82-35.82 0-19.75 16.066-35.82 35.82-35.82 19.754 0 35.82 16.066 35.82 35.82 0.003906 19.754-16.07 35.82-35.82 35.82z"/>
 </g>
</svg>