<?xml version="1.0" encoding="UTF-8"?>
<!-- The Best Svg Icon site in the world: iconSvg.co, Visit us! https://iconsvg.co -->
<svg fill="#000000" width="800px" height="800px" version="1.1" viewBox="144 144 512 512" xmlns="http://www.w3.org/2000/svg">
 <g>
  <path d="m611.08 585.68c0.019531-0.046876 0.046875-0.089844 0.078125-0.12891 0.10156-0.16797 0.19141-0.33984 0.27344-0.51953 0-0.050781 0.050781-0.089844 0.070312-0.13672 0.082031-0.21484 0.14844-0.42969 0.19531-0.65234 0.007813-0.058594 0.007813-0.11719 0-0.17578 0.042969-0.24219 0.066407-0.48438 0.070313-0.72656-0.003906-0.25-0.027344-0.49609-0.070313-0.73828 0.003907-0.058593 0.003907-0.11328 0-0.16797-0.050781-0.22266-0.11328-0.4375-0.19531-0.64844 0-0.050781-0.050781-0.089844-0.070312-0.13672v-0.003907c-0.078126-0.17578-0.16797-0.34766-0.27344-0.51172l-0.089844-0.13672c-0.125-0.18359-0.26953-0.35938-0.42188-0.52344l-0.11719-0.10938v0.003907c-0.14453-0.13281-0.29688-0.25781-0.45312-0.375l-0.11719-0.078126h-0.050781l-30.504-19.484c-0.91016-0.71484-2.082-1.0156-3.2266-0.82422-1.1406 0.19141-2.1523 0.85547-2.7773 1.832-0.62891 0.97656-0.81641 2.168-0.51563 3.2891 0.30078 1.1211 1.0586 2.0625 2.0898 2.5938l18.648 11.906h-46.762v-294.52-0.050782 0.003906c-0.003906-0.18359-0.023437-0.36328-0.058594-0.54297 0.007813-0.085938 0.007813-0.17578 0-0.26562-0.03125-0.14062-0.074219-0.27734-0.125-0.41406 0-0.11719-0.070312-0.24609-0.11719-0.36328-0.050782-0.11719-0.097656-0.17578-0.14844-0.27734-0.050781-0.097656-0.15625-0.29688-0.24609-0.43359-0.058593-0.078126-0.12891-0.13672-0.1875-0.21484-0.058593-0.078125-0.19531-0.24609-0.31641-0.36328l-0.27734-0.22656c-0.11719-0.089844-0.22656-0.1875-0.35547-0.26562h0.003906c-0.10156-0.0625-0.20703-0.12109-0.31641-0.16406l-0.39453-0.19531-0.34375-0.10938v-0.003906c-0.13281-0.042969-0.27344-0.078125-0.41016-0.10547-0.14844-0.027344-0.29688-0.042969-0.44531-0.050781h-0.30469-57.07c-2.2734 0-4.1133 1.8438-4.1133 4.1133v193.5h-52.969c-2.2734 0-4.1133 1.8398-4.1133 4.1133v96.836h-49.387v-152.76c-0.007812-2.2695-1.8477-4.1055-4.1133-4.1055h-52.93v-74.398c0-2.2656-1.8398-4.1055-4.1055-4.1055h-57.07c-2.2695 0-4.1094 1.8359-4.1133 4.1055v231.24h-36.941v-368.02l11.906 18.684c0.54297 1.0039 1.4805 1.7383 2.5859 2.0234 1.1055 0.28516 2.2812 0.097656 3.2422-0.51953 0.96094-0.61719 1.6211-1.6055 1.8242-2.7305 0.19922-1.125-0.074219-2.2812-0.76172-3.1914l-19.484-30.504v-0.050781l-0.089844-0.12891c-0.10938-0.15625-0.23047-0.30469-0.36328-0.44141-0.035156-0.042969-0.078125-0.082031-0.11719-0.11719-0.16016-0.15625-0.33203-0.29688-0.51172-0.42578l-0.097656-0.078124c-0.16406-0.10547-0.33594-0.19531-0.51172-0.27344l-0.16797-0.078125c-0.21094-0.085937-0.42969-0.15234-0.64844-0.20703h-0.17969c-0.23828-0.042969-0.48438-0.066406-0.72656-0.070313-0.25 0.003907-0.49609 0.027344-0.73828 0.070313h-0.16797c-0.22266 0.050781-0.4375 0.12109-0.64844 0.20703l-0.13672 0.070313v-0.003907c-0.17969 0.078125-0.35156 0.17188-0.51172 0.27734l-0.13672 0.089844-0.003907-0.003907c-0.18359 0.12891-0.35937 0.26953-0.51953 0.42578l-0.10938 0.11719c-0.13281 0.13672-0.25781 0.28516-0.36328 0.44141l-0.097656 0.12891v0.050781l-19.484 30.504c-0.6875 0.91016-0.96484 2.0664-0.76172 3.1914 0.19922 1.125 0.86328 2.1133 1.8242 2.7305 0.96094 0.61719 2.1367 0.80469 3.2422 0.51953 1.1055-0.28516 2.0391-1.0195 2.582-2.0234l11.918-18.637v372.1c0 2.2695 1.8398 4.1094 4.1133 4.1094h381.79l-18.648 11.918c-1.6641 1.3125-2.0586 3.6719-0.91406 5.457 1.1445 1.7812 3.457 2.4023 5.3438 1.4297l30.504-19.492h0.050781l0.089843-0.070313-0.003906 0.003906c0.17578-0.11719 0.33594-0.25 0.48438-0.39453l0.097657-0.097656c0.17578-0.16406 0.33984-0.33594 0.49219-0.52344zm-121.26-185.9 48.816-34.805v26.055l-48.816 34.805zm48.816-44.891-48.816 34.805v-26.055l48.816-34.805zm-48.816 81.043 48.816-34.812v26.055l-48.816 34.816zm48.816 63.535-48.816 34.805v-26.035l48.816-34.805zm-48.816 44.898 48.816-34.812v26.066l-48.816 34.809zm48.816-225.63-48.816 34.82v-26.066l48.816-34.805zm-48.816 163.66v-10.312l48.816-34.805v26.055l-48.816 34.805zm48.816 63.32v33.516h-47.016zm-8.7461-256.91-40.09 28.535v-28.535zm-97.109 197.69h48.816v92.734h-48.816zm-65.828 12.98-48.828 34.805v-26.039l48.828-34.805zm-48.828 44.898 48.828-34.812v26.066l-48.828 34.805zm48.828-81.043-48.828 34.805v-26.055l48.828-34.805zm0 82.379v33.516l-47.027 0.003906zm-4.7734-115.13-44.055 31.414v-31.41zm-101.1-78.5h48.828l-0.003906 227.15h-48.824z"/>
  <path d="m369.11 405.24c0.60547 0.32812 1.2812 0.5 1.9688 0.49219 1.5156 0.003906 2.9062-0.82812 3.6211-2.1641l15.223-28.34h32.562c2.1875-0.10547 3.9102-1.9141 3.9102-4.1094 0-2.1914-1.7227-4-3.9102-4.1055h-35.051c-1.5156-0.003906-2.9062 0.82812-3.6211 2.1641l-16.375 30.504c-0.51562 0.96094-0.62891 2.082-0.31641 3.125 0.31641 1.043 1.0312 1.918 1.9883 2.4336z"/>
  <path d="m396.75 355.46h25.703c2.1914-0.10547 3.9141-1.9141 3.9141-4.1055 0-2.1953-1.7227-4.0039-3.9141-4.1094h-25.703c-1.125-0.054688-2.2227 0.35156-3.0352 1.1289-0.81641 0.77734-1.2773 1.8555-1.2773 2.9805s0.46094 2.2031 1.2773 2.9766c0.8125 0.77734 1.9102 1.1875 3.0352 1.1289z"/>
  <path d="m540.8 266.3c2 1.0781 4.4922 0.32812 5.5664-1.6719l15.211-28.328h32.562c2.2734 0 4.1133-1.8438 4.1133-4.1133 0-2.2734-1.8398-4.1133-4.1133-4.1133h-35.02c-1.5273-0.011719-2.9336 0.82422-3.6484 2.1758l-16.383 30.504h-0.003906c-0.50781 0.96094-0.61328 2.0859-0.29297 3.1289 0.32031 1.0391 1.043 1.9102 2.0078 2.418z"/>
  <path d="m568.45 216.53h25.691c2.2734 0 4.1133-1.8398 4.1133-4.1133 0-2.2734-1.8398-4.1133-4.1133-4.1133h-25.691c-2.2695 0-4.1133 1.8398-4.1133 4.1133 0 2.2734 1.8438 4.1133 4.1133 4.1133z"/>
 </g>
</svg>