<?xml version="1.0" encoding="UTF-8"?>
<!-- The Best Svg Icon site in the world: iconSvg.co, Visit us! https://iconsvg.co -->
<svg fill="#000000" width="800px" height="800px" version="1.1" viewBox="144 144 512 512" xmlns="http://www.w3.org/2000/svg">
 <g>
  <path d="m512.21 333.66c-3.9297-0.72656-7.1719-3.5-8.4961-7.2695-1.1328-3.2852-2.4688-6.4961-4-9.6172-1.7227-3.5664-1.4023-7.7812 0.84375-11.043l12.367-18.137c-7.3281-10.02-16.18-18.828-26.23-26.105l-17.992 12.418v-0.003906c-3.25 2.2227-7.4336 2.5547-10.992 0.87109-3.1445-1.543-6.3867-2.8867-9.6992-4.0312-3.7578-1.3125-6.5273-4.5312-7.2695-8.4453l-4.0625-21.559c-12.262-1.8164-24.73-1.7891-36.984 0.09375l-3.9492 21.461h0.003906c-0.80469 4.2969-4.0547 7.7227-8.3008 8.7539-2.8008 0.72656-5.4805 1.8555-7.957 3.3516-3.668 2.0742-8.1992 1.8828-11.68-0.5l-18.133-12.367 0.003906 0.003906c-10.023 7.3242-18.832 16.172-26.109 26.227l12.418 17.984v0.003906c2.2109 3.2695 2.5234 7.4648 0.82031 11.023-1.5195 3.1328-2.8477 6.3516-3.9844 9.6406-1.3242 3.7695-4.5625 6.5391-8.4883 7.2617l-21.527 4.0859v-0.003907c-0.90234 6.1016-1.3633 12.262-1.3711 18.426 0 6.2188 0.48828 12.43 1.4609 18.57l21.43 3.9375c3.9219 0.73047 7.1523 3.5 8.4805 7.2617 1.1367 3.293 2.4688 6.5156 3.9883 9.6523 1.6992 3.5469 1.3945 7.7305-0.80078 10.992l-12.344 18.133c7.3242 10.023 16.172 18.832 26.227 26.105l17.992-12.418v0.003906c1.8281-1.2578 4-1.9297 6.2188-1.9297 1.6602 0 3.3008 0.37891 4.7891 1.1133 3.1406 1.5078 6.3633 2.8359 9.6562 3.9766 3.7656 1.3242 6.5352 4.5625 7.2656 8.4844l4.0781 21.527h-0.003906c12.266 1.8281 24.738 1.7969 36.992-0.085938l3.9219-21.438v-0.003906c0.73047-3.918 3.5-7.1484 7.2656-8.4688 3.2969-1.1406 6.5234-2.4805 9.6562-4.0156 3.5703-1.6914 7.7695-1.3672 11.035 0.85547l18.133 12.367c10.02-7.3203 18.832-16.172 26.105-26.227l-12.41-17.984c-2.2461-3.2539-2.5703-7.4648-0.85156-11.023 1.5312-3.1211 2.8672-6.332 4-9.6172 1.3281-3.7695 4.5703-6.5391 8.4961-7.2617l21.527-4.0781v0.003907c0.90625-6.1016 1.3633-12.262 1.375-18.426-0.003906-6.2148-0.49219-12.422-1.4648-18.559zm-93.891 87.367c-17.207 0.003906-33.707-6.8281-45.875-18.992-12.164-12.164-19-28.664-19.004-45.867 0-17.203 6.832-33.703 18.996-45.867 12.164-12.168 28.664-19 45.871-19 17.203 0 33.703 6.8359 45.867 19 12.164 12.168 18.996 28.668 18.992 45.871-0.019531 17.195-6.8594 33.676-19.016 45.836-12.156 12.156-28.641 18.996-45.832 19.02z"/>
  <path d="m425.65 180.34c-31.289-1.4805-62.391 5.5469-90 20.344-27.605 14.793-50.684 36.801-66.777 63.672-16.09 26.875-24.59 57.609-24.594 88.93-0.019532 5.5977 0.25391 11.195 0.82422 16.762 0.22266 1.7188 0.019532 3.4648-0.59766 5.0859l-33.664 88.027c-2.3945 6.2812-1.5547 13.336 2.2461 18.875 3.8047 5.543 10.086 8.8633 16.809 8.8828h6.7773c6.2188 0.011719 11.254 5.0469 11.27 11.266v63.023c0.003906 5.4141 2.1562 10.609 5.9883 14.438 3.8281 3.832 9.0195 5.9844 14.438 5.9883h59.543-0.003906c6.2188 0.011719 11.258 5.0508 11.27 11.266 0.011719 6.0859 2.4297 11.914 6.7305 16.215s10.133 6.7227 16.215 6.7344h163.28c6.8516 0.027344 13.355-3.0117 17.73-8.2891 4.3711-5.2773 6.1484-12.234 4.8477-18.965l-8.3359-43.832c-3.2656-17.121-1.4492-34.824 5.2227-50.93l30.641-74.016 3.25-7.5117 0.089844-0.32031 0.003906 0.003906c13.262-34.25 15.301-71.832 5.8164-107.32-9.4844-35.48-29.996-67.035-58.578-90.102-28.582-23.066-63.758-36.453-100.44-38.23zm117.05 195.85c-0.62109 3.75-3.5156 6.7148-7.25 7.4219l-21.527 4.0781c-0.69141 0.11328-1.2773 0.58203-1.5352 1.2344-1.2578 3.6523-2.7422 7.2227-4.4414 10.691-0.27344 0.59766-0.20312 1.2969 0.17969 1.832l12.367 18.145c2.1445 3.1406 2.0977 7.2891-0.11719 10.379-7.8672 10.887-17.426 20.445-28.312 28.316-3.0938 2.2148-7.2461 2.2578-10.383 0.10547l-18.137-12.367c-0.55859-0.39062-1.2812-0.45312-1.8984-0.16016-3.457 1.6875-7.0117 3.1602-10.648 4.4141-0.65234 0.25391-1.125 0.83594-1.2383 1.5273l-4.0234 21.48c-0.69922 3.7344-3.6641 6.6367-7.4141 7.2578-13.254 2.1016-26.758 2.1016-40.012 0-3.7539-0.61719-6.7188-3.5156-7.4258-7.25l-4.0781-21.527h0.003907c-0.11719-0.69531-0.59375-1.2812-1.25-1.5391-3.6406-1.2578-7.1992-2.7227-10.668-4.3906-0.58984-0.29297-1.293-0.24219-1.832 0.13672l-18.152 12.367c-3.1367 2.1523-7.2852 2.1055-10.379-0.10938-10.891-7.8555-20.461-17.398-28.34-28.273-2.2148-3.0898-2.2617-7.2344-0.11328-10.371l12.367-18.145h-0.003906c0.375-0.54688 0.43359-1.2539 0.15625-1.8555-1.6797-3.4648-3.1523-7.0312-4.4062-10.672-0.26172-0.65234-0.84375-1.125-1.5391-1.2422l-21.527-4.082v0.003906c-3.707-0.72656-6.5781-3.6797-7.1992-7.4062-2.1016-13.258-2.1016-26.758 0-40.012 0.62109-3.7539 3.5156-6.7188 7.25-7.4258l21.527-4.082c0.69531-0.11328 1.2773-0.58594 1.5352-1.2383 1.2539-3.6406 2.7227-7.1992 4.4023-10.66 0.28516-0.61719 0.21875-1.3438-0.17578-1.8984l-12.367-18.109v-0.003906c-2.1445-3.1367-2.0977-7.2852 0.12109-10.375 7.8672-10.891 17.426-20.449 28.309-28.32 3.0938-2.2031 7.2344-2.2461 10.375-0.10547l18.145 12.367c0.57813 0.41016 1.3398 0.45703 1.9609 0.11719 3.2305-1.9375 6.7305-3.3906 10.383-4.3125 0.73828-0.19922 1.293-0.80469 1.4219-1.5586l4.0859-21.527c0.69922-3.7383 3.6719-6.6367 7.4258-7.25 13.25-2.0859 26.746-2.0859 39.996 0 3.7539 0.61719 6.7188 3.5195 7.4219 7.2578l4.0625 21.555v-0.003906c0.12109 0.6875 0.59766 1.2539 1.25 1.4883 3.6523 1.2617 7.2227 2.7461 10.691 4.4453 0.60156 0.26172 1.293 0.19531 1.832-0.17969l18.152-12.367c3.1367-2.1367 7.2734-2.0977 10.367 0.10547 10.891 7.8711 20.453 17.434 28.328 28.324 2.2109 3.0898 2.2539 7.2344 0.10938 10.371l-12.367 18.145c-0.39062 0.53906-0.46094 1.25-0.17578 1.8555 1.6953 3.4609 3.1758 7.0273 4.4336 10.676 0.25781 0.65625 0.84375 1.1289 1.5391 1.2422l21.527 4.0781-0.003906-0.003906c3.7344 0.70703 6.6328 3.6719 7.25 7.4219 2.1094 13.25 2.1094 26.754 0 40.004z"/>
 </g>
</svg>