<?xml version="1.0" encoding="UTF-8"?>
<!-- The Best Svg Icon site in the world: iconSvg.co, Visit us! https://iconsvg.co -->
<svg fill="#000000" width="800px" height="800px" version="1.1" viewBox="144 144 512 512" xmlns="http://www.w3.org/2000/svg">
 <g>
  <path d="m563.19 366.54c-16.965-0.019531-33.238 6.6992-45.242 18.684-12.004 11.984-18.754 28.25-18.758 45.211-0.007812 16.961 6.7266 33.23 18.719 45.223 11.996 11.996 28.266 18.73 45.227 18.723 16.961-0.003906 33.227-6.7539 45.211-18.758s18.703-28.277 18.684-45.242c-0.019532-16.926-6.7539-33.148-18.723-45.117s-28.195-18.703-45.117-18.723zm0 112.33c-12.863 0-25.195-5.1094-34.289-14.203s-14.203-21.426-14.203-34.289c0-12.859 5.1094-25.191 14.203-34.285 9.0938-9.0977 21.426-14.203 34.289-14.203 12.859 0 25.191 5.1055 34.285 14.203 9.0938 9.0938 14.203 21.426 14.203 34.285-0.039062 12.836-5.168 25.129-14.258 34.188-9.0898 9.0625-21.398 14.148-34.23 14.148z"/>
  <path d="m570.04 424.01c-1.9805-0.62109-4.0078-1.0664-6.0625-1.3359-1.7031-0.14453-3.3633-0.62891-4.8789-1.418-0.36719-0.44922-0.58594-1-0.63281-1.5742 0-1.3398 1.9688-2.9141 4.5664-2.9141 2.6211-0.046875 5.1914 0.75391 7.3203 2.2812 3.1719 2.0781 7.375 1.6016 10-1.1406 2.6211-2.7383 2.918-6.957 0.70703-10.035-2.9688-2.4805-6.4297-4.3047-10.156-5.3555v-2.5156c0-4.3477-3.5234-7.875-7.8711-7.875s-7.8711 3.5273-7.8711 7.875v3.1484c-3.5078 1.2617-6.5586 3.5508-8.7461 6.5703-2.1914 3.0195-3.4219 6.625-3.5352 10.352 0.03125 4.9023 2.082 9.5742 5.668 12.91 3.6406 2.9609 8.082 4.7695 12.754 5.1992 1.2227 0.18359 2.4297 0.44922 3.6211 0.78516 1.2578 0.47266 2.832 1.2578 2.832 2.5195 0 1.2578-1.9688 2.9922-4.6445 2.9922-2.6289 0.027344-5.1992-0.80078-7.3203-2.3633-3.1836-1.8711-7.2383-1.2812-9.7539 1.4258-2.5156 2.7031-2.8125 6.793-0.71484 9.832 2.9336 2.5312 6.4062 4.3594 10.156 5.3516v2.9141c0.81641 3.582 4 6.1211 7.6719 6.1211 3.6758 0 6.8594-2.5391 7.6758-6.1211v-3.2266c4.9062-1.5742 8.8828-5.2031 10.895-9.9414 2.0156-4.7422 1.8672-10.125-0.40625-14.746-2.2734-4.6211-6.4492-8.0234-11.434-9.3203z"/>
  <path d="m555.31 316.79v10.707-0.003906c0 4.3477 3.5273 7.875 7.875 7.875 4.3438 0 7.8711-3.5273 7.8711-7.875v-10.703c1.043 0.5625 2.1992 0.88672 3.3828 0.94141 3.1992-0.21484 5.9453-2.3477 6.9492-5.3906 1-3.043 0.058594-6.3906-2.3828-8.4609l-11.098-7.8711v-0.003907c-2.7344-1.9453-6.3984-1.9453-9.1328 0l-11.098 7.8711-0.003907 0.003906c-2.3633 2.582-2.7344 6.418-0.91016 9.4102 1.8242 2.9922 5.4023 4.418 8.7852 3.5z"/>
  <path d="m563.03 340.64c-4.3477 0-7.8711 3.5234-7.8711 7.8711v1.1016c0 4.3477 3.5234 7.8711 7.8711 7.8711s7.8711-3.5234 7.8711-7.8711v-1.1016c0-2.0898-0.82813-4.0898-2.3047-5.5664-1.4766-1.4766-3.4766-2.3047-5.5664-2.3047z"/>
  <path d="m236.81 233.27c-16.957 0-33.223 6.7383-45.211 18.73-11.988 11.992-18.719 28.258-18.711 45.215 0.007813 16.957 6.75 33.219 18.75 45.203 11.996 11.98 28.266 18.707 45.223 18.691 16.957-0.011719 33.215-6.7656 45.195-18.766 11.977-12.004 18.695-28.273 18.672-45.234-0.019531-16.938-6.7617-33.176-18.746-45.145-11.988-11.973-28.234-18.695-45.172-18.695zm0 112.41v-0.003906c-12.887 0.023437-25.254-5.0781-34.379-14.176-9.125-9.1016-14.258-21.453-14.27-34.34-0.015624-12.887 5.0938-25.25 14.195-34.371 9.1055-9.1172 21.461-14.246 34.348-14.254 12.887-0.003906 25.246 5.1094 34.359 14.219 9.1172 9.1094 14.238 21.469 14.238 34.352 0 12.871-5.1094 25.211-14.199 34.32-9.0938 9.1055-21.426 14.23-34.293 14.25z"/>
  <path d="m243.66 290.73c-1.9531-0.61328-3.9531-1.0586-5.9844-1.3359-1.7031-0.13672-3.3672-0.61719-4.8789-1.418-0.40234-0.40234-0.65234-0.92969-0.70703-1.4961 0-1.418 1.9688-2.9922 4.6445-2.9922 2.5938-0.039063 5.1367 0.76172 7.2422 2.2852 3.0391 2.8984 7.8203 2.8984 10.863 0 2.9492-3.0547 2.9492-7.8945 0-10.945-2.957-2.5-6.4219-4.3242-10.156-5.3516v-3.3047c0-4.3477-3.5234-7.875-7.8711-7.875s-7.875 3.5273-7.875 7.875v3.2266c-3.5273 1.2344-6.5898 3.5156-8.7852 6.5391-2.1953 3.0273-3.4141 6.6484-3.4922 10.387 0.03125 4.875 2.0859 9.5195 5.668 12.828 3.6094 2.9766 8.0195 4.8125 12.672 5.2773 1.2578 0.14062 2.4961 0.40234 3.6992 0.78516 1.2578 0.39453 2.7539 1.1797 2.7539 2.4414 0 1.2578-1.9688 2.9922-4.5664 2.9922h0.003906c-2.6641 0.082031-5.2773-0.75391-7.3984-2.3633-3.2188-2.1367-7.5117-1.6211-10.133 1.2188-2.625 2.8359-2.8008 7.1562-0.41797 10.195 2.957 2.5195 6.4219 4.3711 10.156 5.4336v2.832c0 4.3477 3.5234 7.8711 7.8711 7.8711s7.8711-3.5234 7.8711-7.8711v-3.2266c4.9023-1.582 8.875-5.2227 10.875-9.9688 2.0039-4.7461 1.8438-10.125-0.44141-14.742-2.2852-4.6172-6.4688-8.0117-11.457-9.2969z"/>
  <path d="m229.02 183.52v10.703c0 4.3477 3.5234 7.875 7.8711 7.875s7.8711-3.5273 7.8711-7.875v-10.703c1.0508 0.61328 2.2461 0.9375 3.4648 0.94141 3.1953-0.21484 5.9453-2.3438 6.9453-5.3906 1.0039-3.043 0.0625-6.3867-2.3789-8.4609l-11.18-7.8711v-0.003906c-1.3281-0.96094-2.9258-1.4844-4.5664-1.4961-1.6094 0.050781-3.168 0.57422-4.4844 1.4961l-11.18 7.8711v0.003906c-2.3633 2.582-2.7383 6.418-0.91406 9.4102 1.8242 2.9922 5.4062 4.418 8.7852 3.5z"/>
  <path d="m236.73 207.37c-4.3477 0-7.875 3.5234-7.875 7.8711v1.1016c0 4.3477 3.5273 7.8711 7.875 7.8711s7.8711-3.5234 7.8711-7.8711v-1.2578c-0.085938-4.2891-3.5859-7.7148-7.8711-7.7148z"/>
  <path d="m456.36 563.11h20.387c4.2852 0.17188 8.4531-1.4102 11.543-4.3828 3.0898-2.9688 4.8359-7.0742 4.832-11.359v-22.199c0.003906-4.2891-1.7422-8.3906-4.832-11.363-3.0898-2.9688-7.2578-4.5508-11.543-4.3828h-72.105l-0.47266-107.84c16.609-1.1016 62.348-9.918 74.625-73.211 0.36719-1.8945-0.125-3.8555-1.3359-5.3516-1.1875-1.4961-2.9766-2.3906-4.8828-2.4414h-1.7305c-11.73 0-51.484 1.8906-70.848 26.449-10.434 14.203-13.555 32.496-8.4258 49.359v23.617-0.003906c-5.9297-8.918-14.066-16.16-23.613-21.016-41.172-21.098-98.715 5.7461-101.16 6.8477-1.8398 0.87109-3.1953 2.5156-3.6992 4.4883-0.56641 1.9336-0.21875 4.0195 0.94141 5.668 46.367 67.777 104.07 57.781 127.05 50.223v43.375h-54.078c-4.2969-0.19531-8.4883 1.3789-11.594 4.3516-3.1094 2.9727-4.8633 7.0898-4.8594 11.391v22.355h-20.547c-4.2305-0.19141-8.3594 1.3281-11.453 4.2188-3.0938 2.8867-4.8984 6.9023-5 11.133v22.594c0.10156 4.2305 1.9062 8.2461 5 11.133 3.0938 2.8906 7.2227 4.4102 11.453 4.2188h20.387v22.594l0.003906-0.003906c0.054688 4.2891 1.8594 8.3711 4.9961 11.297 3.1367 2.9258 7.3281 4.4492 11.613 4.2109h139.73c4.2188 0.17188 8.3242-1.3594 11.402-4.2422 3.0781-2.8867 4.8711-6.8867 4.9727-11.105v-22.594c-0.10156-4.2188-1.8945-8.2188-4.9727-11.105-3.0781-2.8867-7.1836-4.4141-11.402-4.2461h-20.469zm-46.445-207.98c13.383-16.766 40.777-20.469 54.238-21.254-10.547 39.359-36.605 50.852-53.137 53.766 7.5-9.4531 16.27-17.824 26.055-24.875 2.957-2.1758 3.5938-6.3359 1.418-9.2891-2.1719-2.957-6.332-3.5938-9.2891-1.418-10.09 7.2656-19.195 15.812-27.078 25.426 0.035156-8.1133 2.7773-15.98 7.793-22.355zm-129.81 60.141c16.137-6.1406 54.082-17.711 81.238-3.7773 11.73 6.3359 20.617 16.887 24.875 29.52-16.047-8.7305-33.246-15.145-51.09-19.051-1.8164-0.44141-3.7344-0.13281-5.3203 0.85937-1.582 0.99609-2.6992 2.5859-3.0938 4.4141-0.39062 1.8281-0.03125 3.7383 1.0078 5.2969 1.0352 1.5547 2.6562 2.625 4.4922 2.9688 17.555 3.9844 34.406 10.594 49.988 19.602-20.703 5.5898-64.156 10-102.1-39.832zm55.578 110.21h142.09v22.121h-141.7zm-36.684 59.906-0.003906-22.117h141.7v21.965zm178.77 15.742v22.121h-141.7l-0.003906-21.723s141.62-0.16016 141.7-0.31641z"/>
 </g>
</svg>