<?xml version="1.0" encoding="UTF-8"?>
<!-- The Best Svg Icon site in the world: iconSvg.co, Visit us! https://iconsvg.co -->
<svg fill="#000000" width="800px" height="800px" version="1.1" viewBox="144 144 512 512" xmlns="http://www.w3.org/2000/svg">
 <path d="m527.89 357.95c0.019531-0.10547-0.019531-0.22266-0.003907-0.32812 0.058594-0.44922 0.050782-0.89063-0.015624-1.3398-0.023438-0.17969-0.035157-0.35938-0.082032-0.53906-0.15234-0.59375-0.38281-1.1797-0.76172-1.7031l-39.301-54.391c-0.15625-0.22266-0.36328-0.39453-0.55078-0.58594-0.11719-0.10938-0.21094-0.25-0.33594-0.35156-0.10156-0.085937-0.22266-0.13672-0.32422-0.21094-0.125-0.085938-0.25-0.15625-0.37891-0.23047-0.15234-0.089844-0.29297-0.20312-0.45312-0.27734l-44.32-19.566c-0.64453-0.28125-1.3398-0.42969-2.0352-0.42969h-78.648c-0.69922 0-1.3906 0.14453-2.0352 0.42969l-44.32 19.566c-0.16016 0.074219-0.29687 0.1875-0.44922 0.27734-0.13281 0.074219-0.26172 0.14453-0.38672 0.23828-0.10547 0.074219-0.22266 0.12109-0.31641 0.20703-0.125 0.10547-0.22266 0.24219-0.33594 0.35156-0.1875 0.19141-0.39453 0.36328-0.55078 0.58594l-39.301 54.391c-0.37891 0.52344-0.60938 1.1094-0.76172 1.7031-0.046875 0.17969-0.054688 0.35937-0.082031 0.53906-0.066407 0.44922-0.074219 0.89062-0.015625 1.3398 0.015625 0.10547-0.023438 0.22266-0.003906 0.32812 0.019531 0.097656 0.085937 0.16016 0.10547 0.25 0.10938 0.45312 0.30078 0.875 0.53906 1.2891 0.082031 0.14062 0.13281 0.29688 0.22656 0.42188 0.035157 0.050782 0.046875 0.10547 0.082031 0.14453l122.94 159.98c0.019531 0.03125 0.058593 0.039063 0.082031 0.070313 0.42969 0.52344 0.95312 0.94141 1.5469 1.2578 0.12109 0.070313 0.24609 0.11719 0.37891 0.17578 0.625 0.27344 1.2852 0.46484 1.9961 0.46484s1.3672-0.19141 1.9961-0.46484c0.13281-0.058593 0.25781-0.10547 0.37891-0.17578 0.58984-0.31641 1.1172-0.73438 1.5469-1.2578 0.019531-0.03125 0.058594-0.039063 0.082031-0.070313l122.94-159.98c0.035156-0.046876 0.046874-0.10156 0.082031-0.14453 0.097656-0.125 0.14453-0.28125 0.22656-0.42188 0.24219-0.41406 0.42969-0.83594 0.53906-1.2891-0.007813-0.085938 0.058594-0.15625 0.078125-0.25391zm-210.11-48.703 2.6562 1.543 34.691 20.137-10.727 62.562-60.109-37.891zm164.45 0 33.484 46.344-60.098 37.891-7.5781-44.141-3.1602-18.418 34.691-20.137zm-47.152 24.117 10.867 63.371h-91.879l10.004-58.375 0.85547-4.9922zm9.043 73.449-44.117 97.898-44.117-97.898 88.234-0.003906zm-100.01-1.5898 33.508 74.355-79.348-103.26zm111.79 0 45.848-28.902-79.359 103.26zm-17.633-117.15 34.293 15.141-7.3906 4.293-27.195 15.789h-75.926l-34.59-20.082 34.293-15.141z"/>
</svg>