<?xml version="1.0" encoding="UTF-8"?>
<!-- The Best Svg Icon site in the world: iconSvg.co, Visit us! https://iconsvg.co -->
<svg fill="#000000" width="800px" height="800px" version="1.1" viewBox="144 144 512 512" xmlns="http://www.w3.org/2000/svg">
 <g>
  <path d="m400 623.37c-59.664 0-115.76-23.234-157.95-65.422-42.191-42.191-65.426-98.281-65.426-157.95s23.234-115.76 65.426-157.95c42.188-42.191 98.281-65.426 157.95-65.426s115.76 23.234 157.95 65.422c42.188 42.191 65.422 98.285 65.422 157.95s-23.234 115.76-65.422 157.95c-42.191 42.188-98.281 65.422-157.95 65.422zm0-432.96c-115.57 0-209.59 94.023-209.59 209.59s94.023 209.59 209.59 209.59 209.59-94.023 209.59-209.59c-0.003906-115.57-94.027-209.59-209.59-209.59z"/>
  <path d="m400 554.49c-3.8047 0-6.8867-3.082-6.8867-6.8867 0-3.8047 3.082-6.8867 6.8867-6.8867 77.59 0 140.71-63.121 140.71-140.71s-63.121-140.71-140.71-140.71c-3.8047 0-6.8867-3.082-6.8867-6.8867s3.082-6.8867 6.8867-6.8867c85.184 0 154.49 69.305 154.49 154.49 0 85.176-69.305 154.48-154.49 154.48z"/>
  <path d="m616.48 410.82h-216.48c-3.8047 0-6.8867-3.082-6.8867-6.8867l-0.003906-220.42c0-3.8047 3.082-6.8867 6.8867-6.8867 3.8047 0 6.8867 3.082 6.8867 6.8867v213.53h209.59c3.8047 0 6.8867 3.082 6.8867 6.8867 0.003907 3.8047-3.0781 6.8906-6.8828 6.8906z"/>
  <path d="m400 410.82c-2.0195 0-4.0234-0.88281-5.3828-2.5859l-133.82-167.28c-2.375-2.9727-1.8945-7.3047 1.0742-9.6797 2.9727-2.375 7.3047-1.8945 9.6797 1.0742l133.82 167.28c2.375 2.9727 1.8945 7.3047-1.0742 9.6797-1.2695 1.0156-2.7891 1.5117-4.2969 1.5117z"/>
  <path d="m308.28 433.04c-0.13281-0.17578-0.51562-0.46094-1.1484-0.85547-0.63672-0.39453-1.4453-0.82031-2.4336-1.2812-0.98438-0.46094-2.082-0.89844-3.2852-1.3164-1.207-0.41797-2.4219-0.71094-3.6484-0.88672v8.9414l2.1055 0.52734c2.2344 0.61328 4.25 1.2812 6.0469 2.0039 1.7969 0.72266 3.3203 1.6211 4.5703 2.6953 1.25 1.0742 2.2109 2.3789 2.8906 3.9102 0.67969 1.5352 1.0195 3.375 1.0195 5.5195 0 2.4961-0.4375 4.6211-1.3164 6.375-0.875 1.7539-2.0469 3.1875-3.5156 4.3047-1.4688 1.1172-3.1562 1.9609-5.0625 2.5312-1.9062 0.57031-3.9102 0.89844-6.0156 0.98828v7.625h-4.5352v-7.6914c-3.0234-0.26562-6.0156-0.875-8.9727-1.8398s-5.6211-2.2344-7.9844-3.8125l4.7305-9.3984c0.17578 0.21875 0.64844 0.58203 1.4141 1.0859s1.7422 1.0312 2.9258 1.5781 2.5195 1.0742 4.0117 1.5781c1.4883 0.50391 3.0234 0.86719 4.6016 1.0859v-8.7422l-3.1562-0.92188c-2.1484-0.65625-4.0117-1.3711-5.5859-2.1367-1.5781-0.76562-2.8828-1.6523-3.9102-2.6602-1.0312-1.0078-1.7969-2.168-2.3008-3.4844-0.50391-1.3125-0.75391-2.8477-0.75391-4.6016 0-2.2773 0.39453-4.3047 1.1836-6.082 0.78906-1.7734 1.8516-3.2969 3.1875-4.5703 1.3359-1.2695 2.9141-2.2656 4.7305-2.9883 1.8164-0.72266 3.7773-1.1953 5.8828-1.4141v-6.6406h4.5352v6.6406c2.8477 0.26562 5.5195 0.89844 8.0195 1.9062 2.4961 1.0078 4.668 2.0352 6.5078 3.0898zm-18.207-0.59375c0 1.0938 0.38281 1.9609 1.1484 2.5977s1.918 1.1953 3.4492 1.6758v-8.0859c-3.0625 0.26172-4.5977 1.5352-4.5977 3.8125zm12.754 20.902c0-1.1406-0.46094-2.0273-1.3789-2.6641-0.92188-0.63281-2.1484-1.2148-3.6797-1.7422v7.8867c3.3711-0.12891 5.0586-1.2891 5.0586-3.4805z"/>
  <path d="m295.7 499.38c-30.926 0-56.09-25.16-56.09-56.09 0-30.926 25.16-56.09 56.09-56.09 30.926 0 56.09 25.16 56.09 56.09-0.003906 30.93-25.164 56.09-56.09 56.09zm0-98.398c-23.332 0-42.312 18.98-42.312 42.312s18.98 42.312 42.312 42.312c23.332 0 42.312-18.98 42.312-42.312s-18.984-42.312-42.312-42.312z"/>
 </g>
</svg>