<?xml version="1.0" encoding="UTF-8"?>
<!-- The Best Svg Icon site in the world: iconSvg.co, Visit us! https://iconsvg.co -->
<svg width="800px" height="800px" version="1.1" viewBox="144 144 512 512" xmlns="http://www.w3.org/2000/svg">
 <defs>
  <clipPath id="a">
   <path d="m148.09 148.09h503.81v488.91h-503.81z"/>
  </clipPath>
 </defs>
 <g clip-path="url(#a)">
  <path d="m613.88 220.71c-15.84-20.055-35.477-36.789-57.789-49.25-22.312-12.457-46.859-20.398-72.242-23.363-3.8086-0.41797-7.3672 1.9688-8.4219 5.6523l-62.977 220.42c-0.68359 2.375-0.21094 4.9336 1.2812 6.9102 1.4883 1.9766 3.8164 3.1367 6.2891 3.1328h220.42c3.6875 0 6.8789-2.5586 7.6836-6.1562 5.7148-27.156 5.6211-55.219-0.28125-82.336-5.9023-27.121-17.477-52.684-33.961-75.008zm20.09 147.8h-203.51l58.254-203.84h-0.003906c44.523 6.8164 84.801 30.273 112.7 65.637 14.527 19.617 24.906 41.988 30.504 65.75 5.5977 23.762 6.2969 48.414 2.0547 72.453zm-52.918 39.359h-209.57l63.277-193.94c0.66406-2.0312 0.47266-4.2422-0.52734-6.1328-1-1.8867-2.7266-3.2891-4.7773-3.8789-44.426-12.781-91.746-11.273-135.27 4.3164-43.52 15.586-81.039 44.461-107.25 82.539-26.207 38.082-39.781 83.438-38.797 129.65 0.98047 46.219 16.469 90.957 44.273 127.89 27.805 36.934 66.516 64.188 110.66 77.91 44.145 13.723 91.484 13.219 135.33-1.4414 43.84-14.656 81.965-42.73 108.98-80.242 27.012-37.516 41.543-82.574 41.543-128.8 0-2.0859-0.82812-4.0898-2.3047-5.5664-1.4766-1.4766-3.4766-2.3047-5.5664-2.3047zm-212.54-196.8c16.406-0.003906 32.758 1.9648 48.695 5.8711l-59.324 181.89-109.97-148.09c34.934-25.762 77.195-39.664 120.6-39.676zm-204.68 204.67c0.011718-29.523 6.4258-58.695 18.801-85.5 12.375-26.809 30.418-50.609 52.883-69.766l114.93 154.65-135.4 135.4h0.003907c-32.941-37.176-51.156-85.113-51.219-134.79zm204.68 204.67c-53.41 0.007813-104.69-20.941-142.82-58.348l138.47-138.45h208.88c-2.1016 52.859-24.562 102.86-62.684 139.54-38.121 36.68-88.949 57.199-141.85 57.262zm161.38-377.65h15.746c4.1719 0 8.1797 1.6602 11.133 4.6133 2.9492 2.9531 4.6094 6.957 4.6094 11.133 0 4.3477 3.5234 7.8711 7.8711 7.8711s7.8711-3.5234 7.8711-7.8711c0-8.3516-3.3164-16.363-9.2227-22.266-5.9023-5.9062-13.914-9.2227-22.262-9.2227v-7.8711c0-4.3477-3.5273-7.875-7.875-7.875-4.3477 0-7.8711 3.5273-7.8711 7.875v7.8711c-11.25 0-21.645 6-27.27 15.742-5.625 9.7422-5.625 21.746 0 31.488s16.02 15.746 27.27 15.746h15.746c5.6211 0 10.82 3 13.633 7.8711 2.8125 4.8711 2.8125 10.871 0 15.742s-8.0117 7.875-13.633 7.875h-15.746c-4.1758 0-8.1797-1.6602-11.133-4.6133s-4.6094-6.957-4.6094-11.133c0-4.3477-3.5273-7.8711-7.875-7.8711-4.3477 0-7.8711 3.5234-7.8711 7.8711 0 8.3516 3.3164 16.359 9.2227 22.266s13.914 9.2227 22.266 9.2227v7.8711c0 4.3477 3.5234 7.875 7.8711 7.875 4.3477 0 7.875-3.5273 7.875-7.875v-7.8711c11.246 0 21.645-6 27.27-15.742 5.6211-9.7422 5.6211-21.746 0-31.488-5.625-9.7422-16.023-15.746-27.27-15.746h-15.746c-5.625 0-10.82-3-13.633-7.8711s-2.8125-10.871 0-15.746c2.8125-4.8711 8.0078-7.8711 13.633-7.8711z"/>
 </g>
</svg>