<?xml version="1.0" encoding="UTF-8"?>
<!-- The Best Svg Icon site in the world: iconSvg.co, Visit us! https://iconsvg.co -->
<svg width="800px" height="800px" version="1.1" viewBox="144 144 512 512" xmlns="http://www.w3.org/2000/svg">
 <defs>
  <clipPath id="a">
   <path d="m148.09 148.09h503.81v503.81h-503.81z"/>
  </clipPath>
 </defs>
 <g clip-path="url(#a)">
  <path d="m388.85 340.96h22.293c6.7852 0.007813 13.285 2.707 18.082 7.5039 4.7969 4.7969 7.4961 11.297 7.5039 18.082 0 4.3477 3.5234 7.8711 7.8711 7.8711 4.3477 0 7.8711-3.5234 7.8711-7.8711-0.011718-10.957-4.3711-21.461-12.117-29.211-7.75-7.7461-18.254-12.105-29.211-12.117h-3.2734v-14.438c0-4.3477-3.5234-7.8711-7.8711-7.8711s-7.875 3.5234-7.875 7.8711v14.438h-3.2734c-14.766 0-28.41 7.875-35.793 20.664-7.3789 12.785-7.3789 28.539 0 41.328 7.3828 12.785 21.027 20.664 35.793 20.664h22.293c9.1406 0 17.586 4.875 22.156 12.793 4.5703 7.9141 4.5703 17.668 0 25.582-4.5703 7.918-13.016 12.793-22.156 12.793h-22.293c-6.7812-0.007812-13.285-2.707-18.082-7.5039s-7.4922-11.297-7.5-18.082c0-4.3477-3.5273-7.8711-7.875-7.8711-4.3477 0-7.8711 3.5234-7.8711 7.8711 0.011718 10.957 4.3711 21.465 12.117 29.211 7.75 7.7461 18.254 12.105 29.211 12.117h3.2734v14.438c0 4.3477 3.5273 7.875 7.875 7.875s7.8711-3.5273 7.8711-7.875v-14.438h3.2734c14.766 0 28.41-7.875 35.793-20.664 7.3828-12.785 7.3828-28.539 0-41.328-7.3828-12.785-21.027-20.664-35.793-20.664h-22.293c-9.1406 0-17.586-4.875-22.156-12.789-4.5703-7.918-4.5703-17.668 0-25.586 4.5703-7.9141 13.016-12.793 22.156-12.793zm223.69 19.68c-9.0703 0.003906-17.863 3.1367-24.887 8.875-7.0273 5.7383-11.855 13.727-13.672 22.613h-32.684c-1.7422-32.055-14.379-62.555-35.816-86.449l23.145-23.145c10.945 7.2383 24.777 8.543 36.887 3.4805 12.105-5.0625 20.895-15.824 23.434-28.699 2.5391-12.875-1.5078-26.168-10.785-35.449-9.2812-9.2773-22.574-13.32-35.445-10.781-12.875 2.5391-23.641 11.324-28.699 23.434-5.0625 12.105-3.7578 25.938 3.4766 36.887l-23.176 23.109c-23.895-21.438-54.395-34.074-86.449-35.816v-32.684c12.855-2.625 23.559-11.484 28.543-23.625 4.9805-12.141 3.582-25.965-3.7266-36.863-7.3086-10.898-19.566-17.438-32.688-17.438-13.125 0-25.383 6.5391-32.691 17.438-7.3086 10.898-8.707 24.723-3.7227 36.863 4.9805 12.141 15.684 21 28.539 23.625v32.684c-32.055 1.7422-62.555 14.379-86.449 35.816l-23.129-23.094c7.2383-10.949 8.543-24.781 3.4805-36.887-5.0625-12.109-15.824-20.895-28.699-23.434-12.875-2.5391-26.168 1.5039-35.445 10.785-9.2812 9.2773-13.324 22.57-10.785 35.445 2.5391 12.875 11.324 23.637 23.434 28.699 12.105 5.0625 25.938 3.7578 36.887-3.4805l23.145 23.145c-21.453 23.887-34.105 54.379-35.867 86.434h-32.684c-2.625-12.855-11.484-23.559-23.625-28.539-12.141-4.9844-25.965-3.5859-36.863 3.7227-10.898 7.3086-17.438 19.566-17.438 32.691 0 13.121 6.5391 25.379 17.438 32.688 10.898 7.3086 24.723 8.707 36.863 3.7266 12.141-4.9844 21-15.688 23.625-28.543h32.684c1.7422 32.055 14.379 62.555 35.816 86.449l-23.145 23.145h0.003906c-10.949-7.2344-24.781-8.5391-36.887-3.4805-12.109 5.0625-20.898 15.828-23.434 28.699-2.5391 12.875 1.5039 26.168 10.781 35.449 9.2812 9.2773 22.574 13.324 35.449 10.785 12.875-2.5391 23.637-11.328 28.699-23.434 5.0625-12.109 3.7578-25.941-3.4805-36.887l23.145-23.145c23.898 21.457 54.41 34.105 86.48 35.848v32.684c-12.855 2.625-23.559 11.484-28.539 23.625-4.9844 12.141-3.5859 25.965 3.7227 36.863 7.3086 10.898 19.566 17.438 32.691 17.438 13.121 0 25.379-6.5391 32.688-17.438 7.3086-10.898 8.707-24.723 3.7266-36.863-4.9844-12.141-15.688-21-28.543-23.625v-32.684c32.055-1.7422 62.555-14.379 86.449-35.816l23.145 23.145c-7.2344 10.945-8.5391 24.777-3.4805 36.887 5.0625 12.105 15.828 20.895 28.699 23.434 12.875 2.5391 26.168-1.5078 35.449-10.785 9.2773-9.2812 13.324-22.574 10.785-35.445-2.5391-12.875-11.328-23.641-23.434-28.699-12.109-5.0625-25.941-3.7578-36.887 3.4766l-23.145-23.145c21.457-23.898 34.105-54.41 35.848-86.48h32.684c2 9.7812 7.6367 18.438 15.773 24.219 8.1406 5.7773 18.172 8.25 28.062 6.9141 9.8945-1.3359 18.91-6.3828 25.223-14.113 6.3125-7.7344 9.4492-17.578 8.7773-27.535-0.66797-9.9609-5.0977-19.293-12.391-26.113-7.293-6.8164-16.902-10.605-26.887-10.605zm-78.957-127.62c5.1914-5.1914 12.5-7.6758 19.781-6.7188 7.2773 0.95312 13.699 5.2422 17.371 11.598 3.6758 6.3594 4.1836 14.062 1.375 20.844-2.8086 6.7852-8.6094 11.879-15.699 13.781-7.0938 1.9023-14.664 0.39844-20.492-4.0664-5.8242-4.4688-9.2422-11.391-9.2461-18.73-0.015625-6.2695 2.4727-12.281 6.9102-16.707zm-267.18 33.395c-5.1914 5.1914-12.5 7.6758-19.777 6.7227-7.2812-0.95703-13.703-5.2422-17.375-11.602-3.6719-6.3555-4.1797-14.059-1.375-20.844 2.8086-6.7852 8.6094-11.875 15.703-13.781 7.0898-1.9023 14.66-0.39844 20.488 4.0664 5.8281 4.4688 9.2461 11.391 9.2461 18.734 0.003907 6.2617-2.4805 12.273-6.9102 16.703zm-78.957 157.2c-6.2617 0-12.27-2.4883-16.699-6.9141-4.4297-4.4297-6.918-10.438-6.918-16.699 0-6.2656 2.4883-12.273 6.918-16.699 4.4297-4.4297 10.438-6.918 16.699-6.918 6.2656 0 12.27 2.4883 16.699 6.918 4.4297 4.4258 6.918 10.434 6.918 16.699 0 6.2617-2.4883 12.27-6.918 16.699-4.4297 4.4258-10.434 6.9141-16.699 6.9141zm78.957 143.37c-5.1914 5.1914-12.5 7.6758-19.777 6.7227-7.2812-0.95703-13.703-5.2461-17.375-11.602-3.6719-6.3555-4.1797-14.059-1.375-20.844 2.8086-6.7852 8.6094-11.879 15.703-13.781 7.0898-1.9023 14.66-0.39844 20.488 4.0664 5.8281 4.4688 9.2461 11.391 9.2461 18.734 0.003907 6.2617-2.4805 12.27-6.9102 16.703zm267.19-33.395c5.1914-5.1914 12.5-7.6758 19.781-6.7188 7.2773 0.95312 13.699 5.2422 17.371 11.598 3.6758 6.3555 4.1836 14.062 1.375 20.844-2.8086 6.7852-8.6094 11.879-15.699 13.781-7.0938 1.9023-14.664 0.39844-20.492-4.0664-5.8242-4.4688-9.2422-11.391-9.2461-18.73-0.019531-6.2656 2.4648-12.277 6.8945-16.707zm-157.22-346.13c0-6.2617 2.4883-12.27 6.918-16.699 4.4258-4.4297 10.434-6.918 16.699-6.918 6.2617 0 12.27 2.4883 16.699 6.918 4.4258 4.4297 6.9141 10.438 6.9141 16.699 0 6.2656-2.4883 12.27-6.9141 16.699-4.4297 4.4297-10.438 6.918-16.699 6.918-6.2656 0-12.273-2.4883-16.699-6.918-4.4297-4.4297-6.918-10.434-6.918-16.699zm47.23 425.09c0 6.2617-2.4883 12.27-6.9141 16.699-4.4297 4.4297-10.438 6.918-16.699 6.918-6.2656 0-12.273-2.4883-16.699-6.918-4.4297-4.4297-6.918-10.438-6.918-16.699s2.4883-12.27 6.918-16.699c4.4258-4.4297 10.434-6.918 16.699-6.918 6.2617 0 12.27 2.4883 16.699 6.918 4.4258 4.4297 6.9141 10.438 6.9141 16.699zm70.848-204.67h31.098c-1.7188 27.887-12.715 54.398-31.238 75.32l-22.043-21.965h0.003906c-3.0898-2.9844-8-2.9414-11.035 0.097657-3.0391 3.0352-3.082 7.9453-0.097656 11.035l21.965 21.965v-0.003907c-22.922 20.371-52.52 31.625-83.188 31.625-30.664 0-60.262-11.254-83.184-31.625l22.027-21.898c2.9844-3.0898 2.9414-8-0.09375-11.035-3.0391-3.0391-7.9492-3.0781-11.035-0.097657l-22.043 21.965c-18.508-20.949-29.477-47.484-31.156-75.383h31.094c4.3477 0 7.8711-3.5234 7.8711-7.8711s-3.5234-7.875-7.8711-7.875h-31.094c1.7188-27.887 12.711-54.398 31.234-75.316l22.043 21.965v-0.003907c3.0859 2.9844 7.9961 2.9414 11.035-0.09375 3.0352-3.0391 3.0781-7.9492 0.09375-11.035l-21.965-21.965h0.003907c22.918-20.371 52.52-31.625 83.184-31.625 30.664 0 60.262 11.254 83.184 31.625l-22.027 21.898c-1.5195 1.4688-2.3828 3.4844-2.4023 5.5938-0.019531 2.1133 0.8125 4.1445 2.3047 5.6367 1.4922 1.4922 3.5234 2.3242 5.6367 2.3047 2.1094-0.019531 4.125-0.88281 5.5938-2.4023l22.043-21.965h-0.003906c18.508 20.949 29.477 47.484 31.16 75.383h-31.098c-4.3477 0-7.8711 3.5273-7.8711 7.875s3.5234 7.8711 7.8711 7.8711zm118.08 15.742c-6.2617 0-12.27-2.4883-16.699-6.9141-4.4297-4.4297-6.918-10.438-6.918-16.699 0-6.2656 2.4883-12.273 6.918-16.699 4.4297-4.4297 10.438-6.918 16.699-6.918s12.27 2.4883 16.699 6.918c4.4297 4.4258 6.918 10.434 6.918 16.699 0 6.2617-2.4883 12.27-6.918 16.699-4.4297 4.4258-10.438 6.9141-16.699 6.9141z"/>
 </g>
</svg>