<?xml version="1.0" encoding="UTF-8"?>
<!-- The Best Svg Icon site in the world: iconSvg.co, Visit us! https://iconsvg.co -->
<svg fill="#000000" width="800px" height="800px" version="1.1" viewBox="144 144 512 512" xmlns="http://www.w3.org/2000/svg">
 <g>
  <path d="m633.98 486.14c-56.473-69.941-147.65-117.52-238.9-117.52-3.0352 0-6.043 0.11328-9.0234 0.33203-87.121 3.5938-166.44 51.129-220.04 117.77-2.8984 3.6055-2.8945 8.7461 0.007812 12.348 56.324 69.809 140.18 117.41 229.87 117.41h0.25c87.266-0.12891 179.58-45.59 237.85-117.99 2.9023-3.6055 2.8984-8.75-0.007813-12.352zm-135.58 5.4844c0 56.973-46.348 103.32-103.32 103.32s-103.32-46.348-103.32-103.32c0-54.289 42.09-98.934 95.348-103.02 5.125-0.20703 9.1758-0.23047 13.715-0.14453 54.312 2.9922 97.578 48.117 97.578 103.16zm-311.96 1.2578c33.773-39.918 75.859-69.957 120.88-87.352-48.23 49.156-46.867 128.22 3.5469 175.66-46.359-17.055-89.777-47.484-124.43-88.305zm290.61 90.359c53.434-47.859 54.918-130.77 3.0117-180.45 50.594 17.094 98.332 48.543 133.46 89.543-35.812 41.926-84.742 73.934-136.48 90.91z"/>
  <path d="m395.9 242.89c5.4336 0 9.8398-4.4062 9.8398-9.8398v-39.695c0-5.4336-4.4062-9.8398-9.8398-9.8398s-9.8398 4.4062-9.8398 9.8398v39.695c0 5.4336 4.4023 9.8398 9.8398 9.8398z"/>
  <path d="m522.86 307.89 36.789-19.688c4.793-2.5625 6.5977-8.5273 4.0352-13.32-2.5625-4.793-8.5273-6.5977-13.32-4.0352l-36.789 19.688c-4.793 2.5625-6.5977 8.5273-4.0352 13.32 2.5664 4.793 8.5273 6.6016 13.32 4.0352z"/>
  <path d="m232.16 288.2 36.789 19.688c4.7891 2.5625 10.754 0.75781 13.32-4.0352 2.5625-4.793 0.75781-10.754-4.0352-13.32l-36.789-19.688c-4.793-2.5664-10.754-0.75781-13.32 4.0352-2.5625 4.7969-0.75781 10.758 4.0352 13.32z"/>
  <path d="m463.34 265.81c3.3047 0 6.5312-1.6641 8.3906-4.6836l12.91-20.977c2.8477-4.6289 1.4062-10.688-3.2227-13.539-4.6289-2.8477-10.688-1.4062-13.539 3.2227l-12.91 20.977c-4.0547 6.5898 0.75781 15 8.3711 15z"/>
  <path d="m556.62 355.85h-25.816c-5.4336 0-9.8398 4.4062-9.8398 9.8398s4.4062 9.8398 9.8398 9.8398h25.816c5.4336 0 9.8398-4.4062 9.8398-9.8398s-4.4062-9.8398-9.8398-9.8398z"/>
  <path d="m235.51 375.54h25.816c5.4336 0 9.8398-4.4062 9.8398-9.8398 0-5.4336-4.4062-9.8398-9.8398-9.8398l-25.816-0.003907c-5.4336 0-9.8398 4.4062-9.8398 9.8398 0 5.4375 4.4023 9.8438 9.8398 9.8438z"/>
  <path d="m320.07 261.12c2.8555 4.6406 8.918 6.0625 13.539 3.2227 4.6289-2.8477 6.0703-8.9102 3.2227-13.539l-12.91-20.977c-2.8477-4.6289-8.9062-6.0703-13.539-3.2227-4.6289 2.8477-6.0703 8.9102-3.2227 13.539z"/>
  <path d="m395.9 300.66c5.4336 0 9.8398-4.4062 9.8398-9.8398v-22.27c0-5.4336-4.4062-9.8398-9.8398-9.8398s-9.8398 4.4062-9.8398 9.8398v22.27c0 5.4336 4.4023 9.8398 9.8398 9.8398z"/>
  <path d="m465.73 336.76 19.363-11.297c4.6953-2.7383 6.2812-8.7617 3.543-13.457-2.7383-4.6953-8.7617-6.2773-13.457-3.543l-19.363 11.297c-4.6953 2.7383-6.2812 8.7617-3.543 13.457 2.7461 4.707 8.7773 6.2695 13.457 3.543z"/>
  <path d="m306.71 325.46 19.363 11.297c4.6641 2.7227 10.703 1.1836 13.457-3.543 2.7383-4.6953 1.1523-10.719-3.543-13.457l-19.363-11.297c-4.6914-2.7383-10.719-1.1523-13.457 3.543-2.7344 4.6953-1.1523 10.719 3.543 13.457z"/>
  <path d="m431.71 313.57c3.3867 0 6.6797-1.75 8.5078-4.8828l6.7773-11.617c2.7383-4.6953 1.1523-10.719-3.543-13.457-4.6953-2.7383-10.719-1.1523-13.457 3.543l-6.7773 11.617c-3.8438 6.5898 0.97656 14.797 8.4922 14.797z"/>
  <path d="m352 308.86c1.8555 3.0352 5.0898 4.7109 8.4062 4.7109 7.5703 0 12.426-8.3594 8.3867-14.973l-7.0977-11.617c-2.832-4.6367-8.8906-6.0977-13.527-3.2656-4.6367 2.832-6.0977 8.8906-3.2656 13.527z"/>
  <path d="m392.81 453.4v8.6289c-7.9336 0.82812-14.652 4.2539-17.941 11.664-1.9531 4.3984-1.9531 10.238-0.55469 13.887 1.4414 3.7695 4.4453 6.2266 8.0742 7.9883 4.5898 2.2305 9.4688 3.3672 11.367 3.9727v11.363c-2.0508-0.28516-4.0469-0.75391-5.9805-1.4102-2.8711-0.96875-6.4961-2.4414-9.0156-4.1016-0.99609-0.65234-1.6094-1.125-1.8359-1.4102l-6.1523 12.219c6.4492 4.3008 14.598 6.6992 22.043 7.3477v9.9961h5.8945v-9.9102c5.0508-0.21094 10.344-1.4844 14.398-4.5703 1.9062-1.4531 3.4336-3.3164 4.5703-5.5977 2.2109-4.418 2.2383-11.281 0.38281-15.465-1.4922-3.3672-4.2812-6.4062-9.6992-8.5898-5.2305-2.1016-9.6875-3.0312-10.598-3.2891v-11.621c1.5938 0.22656 3.1758 0.61328 4.7422 1.1523 2.3711 0.82031 5.293 2.0469 7.4336 3.375 0.82422 0.51172 1.3242 0.88281 1.4961 1.1133l6.1523-11.621c-2.3945-1.3672-5.2109-2.7031-8.4609-4.0156-3.2461-1.3086-6.7227-2.1367-10.426-2.4766v-8.6289l-5.8906-0.003906zm0.94141 31.531c-1.9961-0.625-3.4922-1.3516-4.4883-2.1797-0.99609-0.82422-1.4961-1.9531-1.4961-3.375 0-2.9609 1.9922-4.6133 5.9805-4.957zm8.8008 18.16c1.1992 0.82812 1.793 1.9805 1.793 3.4609 0 2.8516-2.1953 4.3594-6.582 4.5312v-10.254c2 0.67969 3.5898 1.4336 4.7891 2.2617z"/>
  <path d="m321.28 493.48c0 40.695 33.105 73.801 73.801 73.801s73.801-33.105 73.801-73.801c0-40.695-33.105-73.801-73.801-73.801-40.691 0-73.801 33.105-73.801 73.801zm127.92 0c0 29.844-24.277 54.121-54.121 54.121s-54.121-24.277-54.121-54.121 24.277-54.121 54.121-54.121 54.121 24.277 54.121 54.121z"/>
 </g>
</svg>