<?xml version="1.0" encoding="UTF-8"?>
<!-- The Best Svg Icon site in the world: iconSvg.co, Visit us! https://iconsvg.co -->
<svg fill="#000000" width="800px" height="800px" version="1.1" viewBox="144 144 512 512" xmlns="http://www.w3.org/2000/svg">
 <g>
  <path d="m399.98 318.74c-21.543 0.035157-42.191 8.6211-57.406 23.875-15.215 15.254-23.746 35.926-23.723 57.473 0.019532 21.543 8.5977 42.195 23.844 57.418s35.914 23.766 57.457 23.754c21.543-0.011718 42.203-8.5781 57.434-23.816 15.227-15.238 23.785-35.898 23.785-57.441-0.042969-21.562-8.6367-42.227-23.895-57.461-15.258-15.234-35.934-23.793-57.496-23.801zm0.023438 75.277c7.4844 0 14.5 3.6523 18.793 9.7852 4.2891 6.1367 5.3164 13.98 2.75 21.012-2.5664 7.0312-8.4062 12.371-15.641 14.297v6.1523c0 3.2617-2.6445 5.9062-5.9023 5.9062-3.2617 0-5.9062-2.6445-5.9062-5.9062v-6.1562c-4.8789-1.3086-9.1914-4.1875-12.273-8.1914-3.0781-4.0078-4.75-8.918-4.7578-13.969 0-3.2617 2.6445-5.9062 5.9062-5.9062s5.9023 2.6445 5.9023 5.9062c0 4.5 2.7109 8.5586 6.8711 10.277 4.1562 1.7227 8.9414 0.77344 12.125-2.4102 3.1797-3.1836 4.1328-7.9688 2.4102-12.125s-5.7773-6.8672-10.277-6.8672c-7.6055 0-14.719-3.7734-18.984-10.066-4.2656-6.2969-5.1328-14.297-2.3164-21.363 2.8164-7.0625 8.9531-12.273 16.379-13.902v-3.7852c0-3.2617 2.6445-5.9062 5.9062-5.9062 3.2578 0 5.9023 2.6445 5.9023 5.9062v4.3047c4.6484 1.4727 8.7109 4.3828 11.598 8.3164 2.8828 3.9336 4.4414 8.6836 4.4492 13.559 0 3.2617-2.6445 5.9062-5.9062 5.9062-3.2578 0-5.9023-2.6445-5.9023-5.9062 0-4.5-2.7109-8.5547-6.8711-10.277-4.1562-1.7227-8.9414-0.76953-12.125 2.4141-3.1797 3.1797-4.1328 7.9648-2.4102 12.125 1.7227 4.1562 5.7812 6.8672 10.281 6.8672z"/>
  <path d="m508.35 423.09c0.60547-2.5078 2.7344-4.3555 5.3008-4.5977l26.074-2.5391 0.003907-31.902-26.434-2.5469h-0.003906c-2.5781-0.24219-4.7188-2.1016-5.3125-4.625-2.8398-13.133-8.1172-25.621-15.555-36.809-1.4453-2.1719-1.293-5.0312 0.36719-7.0391l16.793-20.254-22.191-22.426-20.211 16.758c-1.9844 1.6367-4.8008 1.8008-6.9609 0.40625-11.266-7.3828-23.773-12.66-36.922-15.578-2.5273-0.56641-4.4023-2.6914-4.6484-5.2695l-2.543-26.398h-31.961l-2.543 26.395c-0.23828 2.5898-2.1055 4.7344-4.6367 5.3359-13.148 2.8164-25.656 8.0742-36.867 15.504-2.168 1.4336-5.0234 1.2773-7.0234-0.38281l-20.234-16.777-22.516 22.473 16.766 20.227c1.6445 1.9922 1.8047 4.8203 0.39453 6.9844-7.3789 11.258-12.668 23.75-15.609 36.883-0.57031 2.4961-2.6758 4.3516-5.2266 4.5938l-26.383 2.5469v31.898l26.383 2.5469v-0.003906c2.5664 0.24219 4.6875 2.1055 5.2617 4.6211 2.8398 13.133 8.1172 25.621 15.559 36.809 1.4414 2.1719 1.293 5.0312-0.37109 7.0391l-16.77 20.227 22.512 22.473 20.234-16.773c1.9844-1.6367 4.7969-1.8008 6.9609-0.40234 11.262 7.3789 23.773 12.656 36.922 15.574 2.5234 0.56641 4.4023 2.6953 4.6445 5.2695l2.543 26.398h31.961l2.543-26.395c0.24219-2.5898 2.1094-4.7344 4.6367-5.3359 13.152-2.8164 25.656-8.0742 36.867-15.5 2.1719-1.4375 5.0234-1.2812 7.0273 0.37891l20.234 16.777 22.512-22.473-16.77-20.227c-1.6484-1.9883-1.8125-4.8203-0.40234-6.9844 7.3711-11.258 12.656-23.75 15.594-36.879zm-108.38 69.977c-24.676-0.035156-48.328-9.8672-65.754-27.336-17.43-17.469-27.207-41.141-27.184-65.816 0.023438-24.676 9.8438-48.332 27.305-65.77s41.129-27.227 65.805-27.215c24.676 0.011718 48.336 9.8242 65.781 27.273 17.445 17.453 27.242 41.121 27.242 65.797-0.042969 24.691-9.8789 48.355-27.352 65.805-17.473 17.445-41.152 27.25-65.844 27.262z"/>
  <path d="m606.93 380.09c-1.1211-1.3516-2.7852-2.1367-4.543-2.1367s-3.4219 0.78516-4.543 2.1367l-37.59 45.316c-1.4648 1.8281-1.7734 4.3242-0.80078 6.4531 0.95312 2.1094 3.0273 3.4961 5.3438 3.5664h29.707c-6.7656 50.094-31.758 95.938-70.203 128.76-36.172 31.016-81.617 48.715-124.69 48.715-28.094 0-57.465-7.6133-84.934-21.938v0.003907c-28.52-14.898-53.254-36.125-72.312-62.051-0.89453-1.332-2.2969-2.2422-3.8789-2.5195-1.582-0.27734-3.207 0.097656-4.5039 1.0469s-2.1523 2.3828-2.3672 3.9727c-0.21484 1.5938 0.22656 3.2031 1.2266 4.4609 20.129 27.379 46.258 49.789 76.379 65.52 29.148 15.199 60.406 23.23 90.391 23.23 45.848 0 94.094-18.652 132.38-51.477 40.957-35.145 67.461-84.203 74.414-137.72h33.566c2.3164-0.070313 4.3906-1.4531 5.3438-3.5664 0.97266-2.1289 0.66406-4.625-0.79688-6.4531z"/>
  <path d="m240.54 368.14c-0.95312-2.1094-3.0273-3.4961-5.3398-3.5664h-29.711c6.7656-50.094 31.762-95.934 70.203-128.76 36.172-31.016 81.617-48.715 124.69-48.715 28.094 0 57.465 7.6133 84.934 21.938v-0.003906c28.52 14.902 53.254 36.125 72.312 62.051 0.89453 1.332 2.2969 2.2422 3.8789 2.5234 1.582 0.27734 3.207-0.10156 4.5039-1.0508 1.2969-0.94531 2.1523-2.3828 2.3672-3.9727 0.21484-1.5938-0.22656-3.2031-1.2227-4.4609-20.133-27.379-46.258-49.789-76.383-65.52-29.148-15.199-60.406-23.23-90.391-23.23-45.848 0-94.094 18.652-132.38 51.477-40.957 35.148-67.461 84.203-74.414 137.72h-33.566c-2.3125 0.082031-4.3789 1.4609-5.3398 3.5625-0.96484 2.1016-0.65625 4.5703 0.79688 6.3711l37.59 45.363h-0.003906c1.1172 1.3594 2.7812 2.1484 4.5391 2.1562 1.7578 0.003906 3.4258-0.77344 4.5508-2.125l37.59-45.398c1.4609-1.793 1.7695-4.2656 0.79297-6.3633z"/>
 </g>
</svg>