<?xml version="1.0" encoding="UTF-8"?>
<!-- The Best Svg Icon site in the world: iconSvg.co, Visit us! https://iconsvg.co -->
<svg fill="#000000" width="800px" height="800px" version="1.1" viewBox="144 144 512 512" xmlns="http://www.w3.org/2000/svg">
 <g>
  <path d="m373.2 234.2c-15.914-29.691-45.383-49.684-78.855-53.504-33.469-3.8164-66.684 9.0273-88.879 34.371s-30.547 59.961-22.344 92.637c8.1992 32.676 31.902 59.25 63.434 71.109 31.531 11.863 66.875 7.5 94.578-11.668s44.238-50.707 44.25-84.395c0.007812-16.941-4.1758-33.621-12.184-48.551zm-77.109 28.453c2.5312 0 4.582 2.0508 4.582 4.5781 0 2.5312-2.0508 4.582-4.582 4.582h-42.996c-1.5703 7.2227-1.5703 14.699 0 21.922h42.996c2.5312 0 4.582 2.0508 4.582 4.582 0 2.5273-2.0508 4.5781-4.582 4.5781h-40.16c3.8047 9.1641 10.133 17.055 18.246 22.766 8.1133 5.7109 17.676 9.0039 27.586 9.5 2.5273 0.058594 4.5273 2.1602 4.4688 4.6914-0.0625 2.5273-2.1641 4.5273-4.6953 4.4688h-0.23828c-12.27-0.62109-24.074-4.8945-33.895-12.277-9.8203-7.3789-17.211-17.527-21.215-29.141h-6.082c-2.5312 0-4.582-2.0508-4.582-4.582 0-2.5273 2.0508-4.5781 4.582-4.5781h3.6641c-1.3516-7.2461-1.3516-14.68 0-21.926h-3.6641c-2.5312 0-4.582-2.0508-4.582-4.582 0-2.5273 2.0508-4.5781 4.582-4.5781h6.082c4.0039-11.613 11.395-21.766 21.215-29.145 9.8203-7.3828 21.625-11.656 33.895-12.273 2.5312-0.12891 4.6836 1.8203 4.8086 4.3516 0.12891 2.5273-1.8203 4.6797-4.3477 4.8086-9.9102 0.49219-19.477 3.7852-27.586 9.4961-8.1133 5.7109-14.441 13.605-18.25 22.766z"/>
  <path d="m500.97 501.17c-0.12109 2.6797 1.1367 5.2383 3.3359 6.7734 3.0039 1.9336 6.3242 3.3203 9.8125 4.0898v-21.922c-3.457 0.32812-6.7617 1.582-9.5625 3.6367-2.3242 1.75-3.6602 4.5156-3.5859 7.4219z"/>
  <path d="m530.71 526.93c-3.3164-1.8047-6.8594-3.1602-10.535-4.0352v21.422c9.3711-0.66406 14.055-4.4531 14.051-11.359 0.050781-2.5078-1.3086-4.8359-3.5156-6.0273z"/>
  <path d="m565.75 426.84c-26.062-13.977-56.895-16.035-84.586-5.6367-27.688 10.398-49.547 32.234-59.973 59.914-10.426 27.68-8.3984 58.512 5.5547 84.594 0.09375 0.21484 0.21875 0.41406 0.36719 0.59375 15.5 28.449 43.523 47.902 75.594 52.48 32.07 4.5781 64.418-6.2578 87.254-29.234 22.84-22.973 33.488-55.387 28.719-87.43-4.7695-32.043-24.391-59.949-52.93-75.281zm-25.371 116.29c-2.0234 2.9648-4.8125 5.3242-8.0742 6.8242-3.8008 1.7734-7.918 2.7734-12.105 2.9375v7.0781-0.003907c0.027343 0.80078-0.28125 1.5742-0.84766 2.1406-1.2422 1.1094-3.1133 1.1328-4.3828 0.054688-0.58203-0.57812-0.89062-1.375-0.84766-2.1953v-7.0742c-6.9258-0.40625-13.73-1.9883-20.125-4.6836-0.80859-0.33984-1.5039-0.91016-1.9922-1.6367-1.1758-1.6523-1.0312-3.8984 0.34766-5.3828 0.75-0.82422 1.8203-1.2812 2.9375-1.25 0.65234 0 1.2969 0.13672 1.8945 0.40234 5.3477 2.3789 11.098 3.7344 16.945 3.9844v-22.902 0.003907c-3.8984-0.98438-7.7148-2.2812-11.402-3.8867-3.0156-1.3359-5.6641-3.3789-7.7227-5.9531-2.1328-2.7773-3.2227-6.2148-3.0859-9.7148-0.027344-3.3555 0.84766-6.6602 2.5352-9.5625 1.832-3.0547 4.4453-5.5664 7.5703-7.2734 3.7305-2.0352 7.8633-3.2266 12.105-3.4844v-6.9727c-0.027344-0.81641 0.26953-1.6094 0.82812-2.207 0.55078-0.60156 1.3359-0.93359 2.1484-0.91406 0.82031-0.007813 1.6094 0.31641 2.1875 0.89453 0.58203 0.58203 0.90234 1.3711 0.89453 2.1914v6.8711c5.9219 0.14844 11.777 1.2617 17.344 3.2891 1.75 0.50781 2.9102 2.1641 2.7891 3.9844 0.011719 1.0742-0.375 2.1133-1.0859 2.9219-0.71484 0.85156-1.7852 1.3281-2.8945 1.2891-0.55078-0.03125-1.0898-0.16797-1.5898-0.39453-4.6875-1.625-9.5938-2.5312-14.551-2.6875v23.711c4.0625 0.90234 8.0469 2.1328 11.906 3.6875 3.0977 1.2812 5.8203 3.3203 7.9258 5.9258 2.25 2.9922 3.3828 6.6758 3.2031 10.41 0.03125 3.4102-0.96484 6.7461-2.8555 9.5781z"/>
  <path d="m563.59 435.44c-0.76172 0-1.5078-0.1875-2.1758-0.54688-4.4805-2.4219-9.1484-4.4688-13.965-6.1211-1.1797-0.36719-2.1641-1.1953-2.7227-2.2969-0.55859-1.1016-0.65234-2.3867-0.25-3.5547 0.39844-1.1719 1.2539-2.1289 2.3711-2.6602 1.1172-0.52734 2.4023-0.58594 3.5586-0.15234 3.3125 1.1328 6.5625 2.4336 9.7383 3.9062 0.45703-3.1016 0.85938-6.2578 1.1445-9.4297 0.22656-2.5195 2.4531-4.3828 4.9766-4.1562 2.5195 0.22656 4.3789 2.4531 4.1523 4.9766-0.49219 5.4883-1.2695 10.945-2.3359 16.352-0.43359 2.1328-2.3125 3.6641-4.4922 3.6641z"/>
  <path d="m419.19 522.67c-2.5156 0-4.5586-2.0273-4.5781-4.543v-0.91797c-0.011719-10.59 1.6211-21.113 4.8359-31.203 0.34375-1.1875 1.1562-2.1836 2.2461-2.7617 1.0859-0.58203 2.3672-0.69531 3.543-0.32422 1.1758 0.375 2.1523 1.2109 2.7031 2.3164 0.55469 1.1016 0.63672 2.3828 0.23438 3.5508-2.9297 9.1875-4.4141 18.777-4.4023 28.422v0.86328c0.007813 1.2148-0.46484 2.3828-1.3203 3.2461-0.85156 0.86328-2.0117 1.3555-3.2266 1.3633zm18.648-58.414h0.003906c-1.7188-0.003906-3.293-0.97266-4.0703-2.5039-0.78125-1.5352-0.63672-3.375 0.375-4.7656 6.4062-8.8203 14.172-16.566 23.008-22.953 2.0508-1.4805 4.9141-1.0195 6.3984 1.0312 1.4805 2.0508 1.0195 4.9141-1.0312 6.3945-8.0508 5.8164-15.129 12.875-20.969 20.91-0.86328 1.1836-2.2422 1.8867-3.7109 1.8867zm49.734-35.898h0.003907c-2.2617 0-4.1836-1.6523-4.5273-3.8867s0.99609-4.3867 3.1523-5.0625c10.047-3.1719 20.516-4.7734 31.051-4.75h1.125c1.2148 0.015625 2.375 0.51172 3.2227 1.3828 0.84766 0.87109 1.3125 2.0391 1.2969 3.2539 0 1.2188-0.49219 2.3867-1.3633 3.2383-0.875 0.85156-2.0508 1.3125-3.2695 1.2852h-1.0117c-9.5898-0.011718-19.125 1.4531-28.27 4.3438-0.45703 0.14062-0.92969 0.20312-1.4062 0.19531z"/>
  <path d="m414.9 570.4c-1.2148 0.050781-2.4023-0.37891-3.2969-1.1992-0.89844-0.82031-1.4336-1.9648-1.4883-3.1797-0.11328-2.5273 1.8477-4.6719 4.3789-4.7812 3.1758-0.28516 6.3359-0.66797 9.4492-1.1484l-0.003906-0.003906c-1.4609-3.1836-2.7578-6.4414-3.8867-9.7578-0.39063-1.1523-0.30859-2.4102 0.22656-3.5 0.53906-1.0898 1.4844-1.9219 2.6367-2.3125 2.3945-0.81641 4.9961 0.46484 5.8125 2.8633 1.6367 4.8281 3.668 9.5117 6.0781 14.008 0.6875 1.2812 0.72656 2.8125 0.10547 4.1289-0.61719 1.3125-1.8281 2.2539-3.2539 2.5352-5.4062 1.0586-10.859 1.8359-16.348 2.3281-0.13672-0.003906-0.27734 0.019532-0.41016 0.019532z"/>
  <path d="m382.56 570.17c-0.15234 0-0.30469-0.011719-0.45703-0.027344-11.047-1.1484-21.953-3.3711-32.566-6.6328-2.418-0.74219-3.7734-3.3086-3.0312-5.7266 0.74219-2.418 3.3086-3.7734 5.7266-3.0312 10.043 3.0859 20.367 5.1914 30.816 6.2812 2.4297 0.24219 4.2422 2.3477 4.1172 4.7852-0.12109 2.4375-2.1328 4.3516-4.5742 4.3516zm-61.496-18.941c-0.75781 0.003907-1.5039-0.1875-2.168-0.54687-9.7656-5.2695-18.996-11.469-27.566-18.512-0.94531-0.76953-1.543-1.8867-1.6641-3.0977-0.12109-1.2109 0.24609-2.4219 1.0195-3.3633 0.77344-0.94141 1.8906-1.5352 3.1016-1.6523 1.2109-0.11328 2.4219 0.25781 3.3594 1.0352 8.1172 6.668 16.859 12.539 26.105 17.527 1.8477 0.99609 2.7812 3.1211 2.2656 5.1562-0.51562 2.0312-2.3477 3.457-4.4453 3.4531zm-49.676-40.875c-1.3711 0-2.6719-0.60937-3.543-1.668-7.0547-8.5625-13.262-17.793-18.535-27.555-0.62891-1.0703-0.79688-2.3516-0.46094-3.5508 0.33594-1.1992 1.1406-2.207 2.2344-2.8008 1.0977-0.58984 2.3828-0.70703 3.5703-0.33203 1.1836 0.37891 2.1641 1.2227 2.7148 2.3398 4.9883 9.2344 10.863 17.969 17.535 26.074 1.1289 1.3672 1.3633 3.2617 0.60938 4.8633-0.75391 1.6055-2.3672 2.6289-4.1406 2.6289zm-30.531-56.629c-2.0039 0.003906-3.7734-1.2969-4.375-3.207-3.2617-10.605-5.4883-21.508-6.6406-32.543-0.14844-1.2188 0.20312-2.4453 0.96875-3.4062 0.76562-0.96094 1.8828-1.5703 3.1055-1.6992 1.2188-0.125 2.4414 0.24219 3.3867 1.0234 0.94922 0.78125 1.543 1.9102 1.6484 3.1328 1.0898 10.441 3.1953 20.754 6.2852 30.793 0.4375 1.3906 0.18359 2.9102-0.67969 4.0859-0.86719 1.1758-2.2383 1.8711-3.6992 1.8672z"/>
  <path d="m234.16 389.59h-0.41797c-1.2109-0.10938-2.3281-0.69531-3.1055-1.6289s-1.1523-2.1367-1.043-3.3477c0.48047-5.4883 1.2539-10.949 2.3125-16.359 0.28125-1.4219 1.2227-2.6289 2.5352-3.25 1.3125-0.62109 2.8398-0.58203 4.1172 0.10547 4.4922 2.4062 9.1719 4.4453 13.992 6.0938 2.3945 0.81641 3.6758 3.4219 2.8555 5.8164-0.81641 2.3945-3.418 3.6719-5.8125 2.8555-3.3125-1.1328-6.5664-2.4375-9.7461-3.9023-0.48047 3.1133-0.86719 6.2734-1.1484 9.4492-0.21484 2.3516-2.1797 4.1562-4.5391 4.168z"/>
  <path d="m282.78 385.38h-1.1094c-1.2148-0.007812-2.375-0.49609-3.2305-1.3633-0.85547-0.86328-1.3281-2.0312-1.3203-3.2461 0.011718-2.5273 2.0781-4.5664 4.6055-4.5508h1.0547c9.5977 0.007812 19.141-1.4609 28.293-4.3555 1.1758-0.42578 2.4727-0.35156 3.5898 0.19922 1.1211 0.55469 1.9648 1.5391 2.3398 2.7305 0.375 1.1914 0.24609 2.4844-0.35156 3.5781-0.60156 1.0938-1.6211 1.8984-2.8281 2.2227-10.043 3.1758-20.512 4.7891-31.043 4.7852zm57.426-18.555c-1.9922 0.003907-3.7539-1.2773-4.3672-3.168-0.61328-1.8906 0.0625-3.9648 1.6758-5.125 8.0508-5.8242 15.125-12.887 20.961-20.93 1.4961-2.0117 4.332-2.4453 6.3633-0.97266s2.5 4.3047 1.0508 6.3516c-6.4023 8.8281-14.168 16.586-23.004 22.977-0.78125 0.5625-1.7188 0.86719-2.6797 0.86719zm36.008-49.676c-0.46875 0-0.92969-0.070312-1.375-0.21484-2.4102-0.76953-3.7383-3.3438-2.9727-5.7539 2.9219-9.1914 4.4062-18.777 4.3984-28.422v-0.85938l9.1602-0.082031v0.9375c0.007813 10.586-1.6211 21.113-4.832 31.203-0.60547 1.9062-2.3789 3.1992-4.3789 3.1914z"/>
  <path d="m375.58 255.65c-1.9609 0-3.7031-1.2461-4.3398-3.1016-1.6484-4.8203-3.6875-9.5-6.0977-13.988-0.69141-1.2773-0.73047-2.8086-0.10938-4.125s1.8281-2.2578 3.2539-2.5391c5.4062-1.0586 10.863-1.8359 16.352-2.332 1.2148-0.11719 2.4258 0.25391 3.3672 1.0352 0.94141 0.77734 1.5312 1.9023 1.6406 3.1172 0.10547 1.2148-0.27344 2.4258-1.0625 3.3594-0.78516 0.93359-1.9141 1.5156-3.1289 1.6133-3.1797 0.28906-6.3359 0.67188-9.4453 1.1484 1.4648 3.1836 2.7656 6.4336 3.9023 9.7461 0.39453 1.1523 0.3125 2.4102-0.22266 3.5-0.53516 1.0938-1.4805 1.9258-2.6289 2.3203-0.47656 0.16016-0.97656 0.24219-1.4805 0.24609z"/>
  <path d="m565.61 387.11c-2.3516-0.003907-4.3164-1.7852-4.5508-4.1211-1.0898-10.445-3.1914-20.762-6.2852-30.797-0.74609-2.418 0.60937-4.9805 3.0234-5.7266 2.418-0.74609 4.9844 0.60547 5.7305 3.0234 3.2656 10.609 5.4883 21.512 6.6406 32.551 0.12891 1.2109-0.23047 2.4219-0.99609 3.3672-0.76562 0.94531-1.875 1.5469-3.0859 1.6719-0.15625 0.019531-0.31641 0.03125-0.47656 0.03125zm-18.957-61.492c-1.6836 0-3.2344-0.92188-4.0352-2.4062-4.9922-9.2461-10.871-17.988-17.547-26.105-0.78906-0.93359-1.1719-2.1484-1.0625-3.3672 0.11328-1.2188 0.70703-2.3438 1.6523-3.1211 0.94531-0.78125 2.1641-1.1484 3.3828-1.0234 1.2148 0.12891 2.332 0.73438 3.1016 1.6914 7.0547 8.5703 13.262 17.809 18.539 27.578 0.57812 1.0664 0.70703 2.3203 0.35938 3.4844-0.35156 1.1641-1.1445 2.1445-2.2148 2.7188-0.66797 0.36328-1.4141 0.55469-2.1758 0.55078zm-40.91-49.695c-1.0586 0.003906-2.0859-0.36719-2.9062-1.0391-8.1172-6.6719-16.859-12.547-26.105-17.535-1.0977-0.5625-1.9219-1.543-2.2891-2.7188-0.36328-1.1758-0.24219-2.4492 0.34375-3.5312 0.58594-1.0859 1.582-1.8867 2.7656-2.2305 1.1836-0.33984 2.4531-0.1875 3.5234 0.41797 9.7656 5.2695 19 11.473 27.574 18.523 1.4922 1.2266 2.0508 3.2617 1.3984 5.0781-0.65234 1.8203-2.375 3.0352-4.3086 3.0352zm-56.656-30.523v0.003907c-0.46484 0.003906-0.92578-0.066407-1.3711-0.20313-10.027-3.0859-20.332-5.1914-30.77-6.2773-2.5156-0.26172-4.3477-2.5117-4.0859-5.0312 0.26172-2.5156 2.5117-4.3438 5.0273-4.0859 11.043 1.1523 21.949 3.375 32.562 6.6367 2.168 0.66797 3.5234 2.8164 3.1836 5.0625-0.33594 2.2422-2.2617 3.8984-4.5312 3.8984z"/>
 </g>
</svg>