<?xml version="1.0" encoding="UTF-8"?>
<!-- The Best Svg Icon site in the world: iconSvg.co, Visit us! https://iconsvg.co -->
<svg fill="#000000" width="800px" height="800px" version="1.1" viewBox="144 144 512 512" xmlns="http://www.w3.org/2000/svg">
 <g>
  <path d="m373.34 223.83c1.9336 0 3.8711-0.73438 5.3438-2.2109l18.801-18.809v70.367c0 4.1758 3.3867 7.5586 7.5586 7.5586 4.1719 0 7.5586-3.3789 7.5586-7.5586l-0.003906-70.367 18.797 18.801c1.4766 1.4766 3.4102 2.2109 5.3438 2.2109s3.8711-0.73437 5.3438-2.2109c2.9531-2.9492 2.9531-7.7344 0-10.688l-31.691-31.691c-0.70703-0.70703-1.5469-1.2578-2.4727-1.6484-0.039062-0.015625-0.082031-0.019531-0.11719-0.035156-0.85938-0.33984-1.7891-0.53906-2.7617-0.53906s-1.8984 0.20313-2.7539 0.53516c-0.039062 0.015625-0.082031 0.019531-0.11719 0.035156-0.93359 0.38281-1.7734 0.94141-2.4727 1.6484l-31.695 31.699c-2.9531 2.9531-2.9531 7.7383 0 10.688 1.4727 1.4727 3.4062 2.2148 5.3398 2.2148z"/>
  <path d="m629.4 408.9c0.015624-0.039063 0.019531-0.082032 0.035156-0.11719 0.33203-0.85156 0.53516-1.7852 0.53516-2.7539 0-0.97266-0.20312-1.8984-0.53516-2.7539-0.015625-0.039063-0.019532-0.082032-0.035156-0.11719-0.38281-0.93359-0.94531-1.7734-1.6484-2.4727l-31.695-31.695c-2.9531-2.9531-7.7344-2.9531-10.688 0-2.9531 2.9492-2.9531 7.7383 0 10.688l18.797 18.797-70.363-0.003906c-4.1719 0-7.5586 3.3789-7.5586 7.5586 0 4.1758 3.3867 7.5586 7.5586 7.5586h70.371l-18.797 18.797c-2.9531 2.9492-2.9531 7.7383 0 10.688 1.4766 1.4766 3.4102 2.2109 5.3438 2.2109s3.8711-0.73438 5.3438-2.2109l31.695-31.695c0.69922-0.70312 1.2578-1.5469 1.6406-2.4766z"/>
  <path d="m431.39 585.51-18.797 18.801v-70.371c0-4.1758-3.3867-7.5586-7.5586-7.5586s-7.5586 3.3789-7.5586 7.5586v70.371l-18.797-18.801c-2.9531-2.9531-7.7344-2.9531-10.688 0-2.9531 2.9492-2.9531 7.7344 0 10.688l31.695 31.699c0.70703 0.70703 1.5469 1.2578 2.4727 1.6484 0.039063 0.015625 0.082032 0.019531 0.11719 0.035156 0.85547 0.33594 1.7852 0.53516 2.7539 0.53516 0.97266 0 1.8984-0.20312 2.7539-0.53516 0.039063-0.015625 0.082032-0.019531 0.11719-0.035156 0.93359-0.38281 1.7734-0.94141 2.4727-1.6484l31.695-31.699c2.9531-2.9531 2.9531-7.7383 0-10.688-2.9414-2.9531-7.7266-2.9531-10.68 0z"/>
  <path d="m205.91 413.41h70.371c4.1719 0 7.5586-3.3789 7.5586-7.5586 0-4.1758-3.3867-7.5586-7.5586-7.5586l-70.371 0.003906 18.797-18.797c2.9531-2.9492 2.9531-7.7383 0-10.688-2.9531-2.9531-7.7344-2.9531-10.688 0l-31.695 31.695c-0.70703 0.69922-1.2656 1.543-1.6484 2.4727-0.015625 0.039063-0.019531 0.082031-0.035156 0.11719-0.33203 0.85156-0.53516 1.7773-0.53516 2.7539 0 0.97656 0.20313 1.8984 0.53516 2.7539 0.015625 0.039063 0.019531 0.082031 0.035156 0.11719 0.38281 0.93359 0.94531 1.7734 1.6484 2.4727l31.695 31.695c1.4766 1.4766 3.4102 2.2109 5.3438 2.2109s3.8711-0.73438 5.3438-2.2109c2.9531-2.9492 2.9531-7.7383 0-10.688z"/>
  <path d="m497.46 321.09c1.9336 0 3.8711-0.73438 5.3438-2.2109l49.762-49.758v26.586c0 4.1758 3.3867 7.5586 7.5586 7.5586s7.5586-3.3789 7.5586-7.5586v-44.828c0-0.97656-0.20312-1.8984-0.53516-2.7539-0.015626-0.035156-0.019532-0.074218-0.035157-0.10938-0.76562-1.8633-2.2539-3.3516-4.1094-4.1094-0.039062-0.015625-0.082031-0.019531-0.11719-0.035156-0.85547-0.33594-1.7852-0.53516-2.7539-0.53516h-44.828c-4.1719 0-7.5586 3.3789-7.5586 7.5586 0 4.1758 3.3867 7.5586 7.5586 7.5586h26.586l-49.762 49.758c-2.9531 2.9492-2.9531 7.7344 0 10.688 1.4609 1.4492 3.3984 2.1914 5.332 2.1914z"/>
  <path d="m557.23 508.8c-4.1719 0-7.5586 3.3789-7.5586 7.5586v26.586l-49.758-49.758c-2.9531-2.9531-7.7344-2.9531-10.688 0-2.9531 2.9492-2.9531 7.7344 0 10.688l49.758 49.758h-26.582c-4.1719 0-7.5586 3.3789-7.5586 7.5586 0 4.1758 3.3867 7.5586 7.5586 7.5586h44.824c0.97266 0 1.8984-0.20312 2.7539-0.53516 0.039063-0.015626 0.082031-0.019532 0.11719-0.035157 1.8594-0.76562 3.3438-2.2461 4.1094-4.1094 0.015624-0.039062 0.019531-0.082031 0.035156-0.11719 0.33203-0.85156 0.53516-1.7773 0.53516-2.75v-44.828c0.007812-4.1953-3.3789-7.5742-7.5469-7.5742z"/>
  <path d="m307.73 492.58-49.762 49.758 0.003906-26.586c0-4.1719-3.3867-7.5586-7.5586-7.5586s-7.5586 3.3789-7.5586 7.5586l-0.003906 44.828c0 0.97656 0.20312 1.8984 0.53516 2.7539 0.015625 0.035157 0.019531 0.074219 0.035156 0.10938 0.76562 1.8633 2.2539 3.3516 4.1094 4.1094 0.039063 0.015625 0.082032 0.019531 0.11719 0.035157 0.85547 0.33594 1.7852 0.53516 2.7539 0.53516h44.836c4.1719 0 7.5586-3.3789 7.5586-7.5586 0-4.1758-3.3867-7.5586-7.5586-7.5586h-26.59l49.762-49.758c2.9531-2.9492 2.9531-7.7344 0-10.688-2.9492-2.9414-7.7305-2.9336-10.68 0.019531z"/>
  <path d="m249.93 306.03c4.1719 0 7.5586-3.3789 7.5586-7.5586v-26.586l49.762 49.758c1.4766 1.4766 3.4102 2.2109 5.3438 2.2109s3.8711-0.73438 5.3438-2.2109c2.9531-2.9531 2.9531-7.7383 0-10.688l-49.762-49.758h26.586c4.1719 0 7.5586-3.3789 7.5586-7.5586 0-4.1758-3.3867-7.5586-7.5586-7.5586h-44.828c-0.97266 0-1.8984 0.20312-2.7539 0.53516-0.039063 0.015624-0.082032 0.019531-0.11719 0.035156-1.8594 0.76562-3.3438 2.2539-4.1094 4.1094-0.015625 0.035156-0.019531 0.074219-0.035156 0.10938-0.33203 0.85547-0.53516 1.7852-0.53516 2.7539v44.828c-0.011719 4.1953 3.375 7.5781 7.5469 7.5781z"/>
  <path d="m495.96 459.27c0-8.2109-6.6562-14.879-14.871-14.879h-8.5508v-50.617h9.8828c6.4219 0 12.238-3.8203 14.777-9.7188 2.5508-5.8945 1.3555-12.734-3.0547-17.418l-77.398-59.883c-3.0312-3.2344-7.2734-5.0664-11.723-5.0664-4.4297 0-8.6758 1.832-11.707 5.0664l-77.402 59.883c-4.3945 4.6797-5.5977 11.523-3.0586 17.418 2.5508 5.8984 8.3594 9.7188 14.781 9.7188h9.8984v50.617h-8.5586c-8.2188 0-14.867 6.6602-14.867 14.879s6.6484 14.879 14.867 14.879h152.11c8.2148 0 14.871-6.6602 14.871-14.879zm-83.375-19.641v8.1172c0 4.1758-3.3867 7.5586-7.5586 7.5586s-7.5586-3.3789-7.5586-7.5586v-8.0938c-5.3164-1.0469-11.875-3.7773-17.289-10.926-3.7969-4.9766-4.8516-10.113-4.8516-17.402 0 0 0.55859-5.75 7.7344-5.75 7.1641 0 7.0625 5.75 7.0625 5.75 0 11.008 8.6523 13.695 14.711 13.695 13.047 0 15.578-7.9297 15.566-12.027-0.019531-10.551-8.7656-12.305-13.34-13.422 0 0-24.5-4.3008-29.641-17.758-5.9531-15.609-0.13672-24.637 3.3359-29.312 3.8281-5.125 9.418-8.2109 16.707-9.332v-6.6055c0-4.1758 3.3867-7.5586 7.5586-7.5586s7.5586 3.3789 7.5586 7.5586v7.043c6.0508 1.3672 11.07 4.2734 14.641 8.9609 3.2539 4.2617 5.5859 11.438 4.9961 15.723-0.125 0.94531-1.1445 6.1953-7.7539 6.1953-6.6055 0-7.0625-5.5117-7.0625-5.5117-0.38281-3.3555-0.84766-4.7695-2.2617-6.707-2.5781-3.3438-6.5352-4.3242-12.328-4.3242-3.4141 0-6.2891 0.74609-8.6094 2.2305-2.8359 1.8594-3.8789 4.5938-4.2539 8.1484-1.0039 9.3086 8.4023 12.656 10.727 13.402l15.074 4.9727c16.797 5.7773 19.441 16.977 19.441 24.262 0.003907 9.8711-6.1719 25.328-22.605 28.672z"/>
 </g>
</svg>