<?xml version="1.0" encoding="UTF-8"?>
<!-- The Best Svg Icon site in the world: iconSvg.co, Visit us! https://iconsvg.co -->
<svg width="800px" height="800px" version="1.1" viewBox="144 144 512 512" xmlns="http://www.w3.org/2000/svg">
 <defs>
  <clipPath id="b">
   <path d="m148.09 163h393.91v379h-393.91z"/>
  </clipPath>
  <clipPath id="a">
   <path d="m271 271h380.9v366h-380.9z"/>
  </clipPath>
 </defs>
 <path d="m352.77 478.72c-33.402 0-65.441-13.27-89.062-36.891s-36.891-55.656-36.891-89.062c0-33.402 13.27-65.441 36.891-89.062s55.66-36.891 89.062-36.891c33.406 0 65.441 13.27 89.062 36.891s36.891 55.66 36.891 89.062c-0.039062 33.395-13.32 65.406-36.934 89.02-23.613 23.613-55.625 36.895-89.02 36.934zm0-220.42c-25.055 0-49.082 9.9531-66.797 27.668s-27.668 41.742-27.668 66.797 9.9531 49.082 27.668 66.797 41.742 27.668 66.797 27.668 49.082-9.9531 66.797-27.668 27.668-41.742 27.668-66.797c-0.027344-25.043-9.9883-49.055-27.699-66.766-17.707-17.711-41.719-27.672-66.766-27.699z"/>
 <g clip-path="url(#b)">
  <path d="m163.84 541.7c-3.7305 0-7.3438-1.3281-10.191-3.7461-2.8477-2.4141-4.7422-5.7656-5.3438-9.4531-0.60547-3.6836 0.12109-7.4648 2.0469-10.664l40.621-67.496h-0.003906c-23.875-39.594-32.395-86.574-23.953-132.04 8.4453-45.457 33.27-86.242 69.77-114.62 36.504-28.379 82.148-42.387 128.29-39.367 46.141 3.0195 89.566 22.855 122.06 55.75 32.492 32.898 51.789 76.57 54.238 122.74 2.4453 46.172-12.125 91.641-40.957 127.79-28.832 36.148-69.922 60.465-115.48 68.344-45.559 7.8828-92.43-1.2227-131.73-25.586l-84.469 27.574c-1.5781 0.51562-3.2305 0.77734-4.8906 0.77734zm91.629-61.402h0.003906c3.1641 0 6.25 0.95312 8.8633 2.7383 43.613 29.605 99.148 35.418 147.95 15.484s84.383-62.969 94.793-114.64c10.41-51.676-5.7344-105.13-43.008-142.4-37.273-37.273-90.73-53.418-142.4-43.008-51.676 10.41-94.707 45.992-114.64 94.793-19.934 48.797-14.121 104.33 15.484 147.95 1.6953 2.4883 2.6445 5.4102 2.7305 8.418 0.085937 3.0117-0.69531 5.9805-2.2461 8.5625l-23.883 39.691 51.484-16.805h-0.003906c1.5781-0.51562 3.2227-0.77734 4.8828-0.77734z"/>
 </g>
 <g clip-path="url(#a)">
  <path d="m636.16 636.16c-1.6602 0-3.3125-0.26172-4.8906-0.77734l-84.465-27.574h0.003906c-31.215 19.348-67.391 29.18-104.11 28.297-36.715-0.88281-72.375-12.445-102.62-33.27-30.25-20.828-53.773-50.016-67.699-83.996-2.1289-5.207-1.3203-11.156 2.125-15.602 3.4492-4.4492 9.0039-6.7188 14.578-5.957 5.5742 0.75781 10.32 4.4336 12.445 9.6445 18 43.902 54.832 77.352 100.27 91.047 45.43 13.691 94.613 6.168 133.88-20.477 4.0352-2.7422 9.1133-3.4688 13.754-1.9609l51.484 16.805-23.887-39.691c-1.5547-2.5781-2.332-5.5508-2.2461-8.5586 0.085937-3.0117 1.0312-5.9336 2.7266-8.4219 26.633-39.254 34.164-88.414 20.496-133.84-13.664-45.422-47.07-82.273-90.938-100.32-5.2031-2.1367-8.8711-6.8906-9.6172-12.465-0.75-5.5781 1.5312-11.129 5.9883-14.566 4.4531-3.4336 10.402-4.2344 15.605-2.0938 33.699 13.863 62.672 37.172 83.438 67.117 20.762 29.945 32.426 65.254 33.594 101.68 1.1641 36.422-8.2188 72.402-27.027 103.62l40.621 67.496c1.9258 3.1992 2.6562 6.9805 2.0508 10.668-0.60547 3.6875-2.5 7.0391-5.3516 9.457-2.8477 2.418-6.4648 3.7461-10.199 3.7422z"/>
 </g>
 <path d="m360.64 415.74h-39.359c-5.625 0-10.82-3-13.633-7.8711s-2.8125-10.875 0-15.746 8.0078-7.8711 13.633-7.8711h39.359c4.3477 0 7.875-3.5234 7.875-7.8711 0-4.3477-3.5273-7.8711-7.875-7.8711h-15.742c-14.062 0-27.055-7.5039-34.086-19.68-7.0312-12.18-7.0312-27.184 0-39.363 7.0312-12.176 20.023-19.68 34.086-19.68h39.359c5.625 0 10.824 3 13.637 7.875 2.8125 4.8711 2.8125 10.871 0 15.742s-8.0117 7.8711-13.637 7.8711h-39.359c-4.3477 0-7.8711 3.5234-7.8711 7.8711 0 4.3477 3.5234 7.875 7.8711 7.875h15.742c14.062 0 27.059 7.5 34.09 19.68 7.0312 12.176 7.0312 27.18 0 39.359s-20.027 19.68-34.09 19.68z"/>
 <path d="m352.77 321.28c-4.1758 0-8.1797-1.6562-11.133-4.6094-2.9531-2.9531-4.6094-6.957-4.6094-11.133v-15.746c0-5.625 3-10.82 7.8711-13.633 4.8711-2.8125 10.871-2.8125 15.742 0 4.8711 2.8125 7.875 8.0078 7.875 13.633v15.746c0 4.1758-1.6602 8.1797-4.6133 11.133-2.9531 2.9531-6.957 4.6094-11.133 4.6094z"/>
 <path d="m352.77 431.49c-4.1758 0-8.1797-1.6602-11.133-4.6133-2.9531-2.9531-4.6094-6.957-4.6094-11.133v-15.742c0-5.625 3-10.824 7.8711-13.637 4.8711-2.8125 10.871-2.8125 15.742 0 4.8711 2.8125 7.875 8.0117 7.875 13.637v15.742c0 4.1758-1.6602 8.1797-4.6133 11.133-2.9531 2.9531-6.957 4.6133-11.133 4.6133z"/>
</svg>