<?xml version="1.0" encoding="UTF-8"?>
<!-- The Best Svg Icon site in the world: iconSvg.co, Visit us! https://iconsvg.co -->
<svg fill="#000000" width="800px" height="800px" version="1.1" viewBox="144 144 512 512" xmlns="http://www.w3.org/2000/svg">
 <g>
  <path d="m188.32 558.79c0 5.8047 4.7031 10.496 10.496 10.496h402.37c5.8047 0 10.496-4.6914 10.496-10.496 0-5.8047-4.6914-10.496-10.496-10.496h-402.37c-5.7969 0-10.496 4.6914-10.496 10.496z"/>
  <path d="m623.74 587.92h-447.49c-5.793 0-10.496 4.6914-10.496 10.496 0 5.8047 4.7031 10.496 10.496 10.496h447.5c5.793 0 10.496-4.6914 10.496-10.496 0-5.8047-4.7148-10.496-10.508-10.496z"/>
  <path d="m627.29 307.6c-67.457-53.059-143.45-92.188-225.82-116.32-0.96484-0.26172-1.9727-0.26172-2.9375 0-82.375 24.129-158.36 63.258-225.84 116.32-4.1055 3.2227-4.8086 9.1836-1.5742 13.309 1.8047 2.2891 4.5117 3.6094 7.4297 3.6094h442.88c5.2266 0 9.4688-4.25 9.4688-9.4688 0.011718-2.9141-1.3086-5.6445-3.6094-7.4492zm-227.29-17.551c-15.902 0-28.832-12.93-28.832-28.832-0.003907-15.898 12.93-28.832 28.832-28.832s28.832 12.93 28.832 28.832-12.934 28.832-28.832 28.832z"/>
  <path d="m418.34 261.22c0 10.129-8.2109 18.336-18.336 18.336-10.129 0-18.34-8.207-18.34-18.336 0-10.125 8.2109-18.336 18.34-18.336 10.125 0 18.336 8.2109 18.336 18.336"/>
  <path d="m241.46 509.96h-0.96484c-2.8984 0-5.2461 2.3398-5.2461 5.2461 0 2.8867 2.3516 5.2461 5.2461 5.2461h56.824c2.8867 0 5.2461-2.3633 5.2461-5.2461 0-2.9062-2.3633-5.2461-5.2461-5.2461h-0.97656c-8.375-51.578-8.375-103.8 0-155.38h0.98828c2.8867 0 5.2461-2.3398 5.2461-5.2461 0-2.8867-2.3633-5.2461-5.2461-5.2461l-56.824-0.003906c-2.8984 0-5.2461 2.3633-5.2461 5.2461 0 2.9062 2.3516 5.2461 5.2461 5.2461h0.97656c8.3438 51.594 8.3438 103.81-0.023437 155.39z"/>
  <path d="m372.56 509.96h-0.97656c-2.8867 0-5.2461 2.3398-5.2461 5.2461 0 2.8867 2.3633 5.2461 5.2461 5.2461h56.824c2.8984 0 5.2461-2.3633 5.2461-5.2461 0-2.9062-2.3516-5.2461-5.2461-5.2461h-0.97656c-8.3672-51.578-8.375-103.8 0-155.38h0.97656c2.8984 0 5.2461-2.3398 5.2461-5.2461 0-2.8867-2.3516-5.2461-5.2461-5.2461h-56.824c-2.8867 0-5.2461 2.3633-5.2461 5.2461 0 2.9062 2.3633 5.2461 5.2461 5.2461h0.98828c8.3516 51.59 8.3516 103.8-0.011719 155.38z"/>
  <path d="m503.65 509.96h-0.96484c-2.8984 0-5.2461 2.3398-5.2461 5.2461 0 2.8867 2.3516 5.2461 5.2461 5.2461h56.824c2.8984 0 5.2461-2.3633 5.2461-5.2461 0-2.9062-2.3516-5.2461-5.2461-5.2461h-0.97656c-8.3672-51.578-8.3672-103.8 0-155.38h0.98828c2.8867 0 5.2461-2.3398 5.2461-5.2461 0-2.8867-2.3633-5.2461-5.2461-5.2461h-56.824c-2.8867 0-5.2461 2.3633-5.2461 5.2461 0 2.9062 2.3633 5.2461 5.2461 5.2461h0.97656c8.3516 51.59 8.3516 103.8-0.023437 155.38z"/>
 </g>
</svg>