<?xml version="1.0" encoding="UTF-8"?>
<!-- The Best Svg Icon site in the world: iconSvg.co, Visit us! https://iconsvg.co -->
<svg fill="#000000" width="800px" height="800px" version="1.1" viewBox="144 144 512 512" xmlns="http://www.w3.org/2000/svg">
 <g>
  <path d="m539.39 221.25-23.617-23.617h0.003907c-3.0742-3.0742-8.0586-3.0742-11.133 0l-18.051 18.051-10.176-10.18c-2.2539-2.25-5.6367-2.9219-8.5781-1.707-2.9414 1.2188-4.8594 4.0898-4.8594 7.2734v55.105c0 2.0859 0.82813 4.0898 2.3047 5.5664 1.4766 1.4727 3.4766 2.3047 5.5664 2.3047h55.105-0.003906c3.1836 0 6.0547-1.918 7.2734-4.8594s0.54297-6.3281-1.707-8.5781l-10.18-10.18 18.051-18.051c3.0742-3.0742 3.0742-8.0547 0-11.129z"/>
  <path d="m260.61 232.38 18.051 18.051-10.18 10.18c-2.25 2.25-2.9219 5.6367-1.707 8.5781 1.2188 2.9414 4.0898 4.8594 7.2734 4.8594h55.105-0.003906c2.0898 0 4.0938-0.83203 5.5664-2.3047 1.4766-1.4766 2.3086-3.4805 2.3086-5.5664v-55.105c0-3.1836-1.918-6.0547-4.8594-7.2734-2.9414-1.2148-6.3281-0.54297-8.5781 1.707l-10.18 10.18-18.051-18.051c-3.0742-3.0742-8.0586-3.0742-11.129 0l-23.617 23.617c-3.0742 3.0742-3.0742 8.0547 0 11.129z"/>
  <path d="m539.39 567.62-18.051-18.051 10.18-10.18c2.25-2.25 2.9258-5.6367 1.707-8.5742-1.2188-2.9414-4.0898-4.8594-7.2734-4.8633h-55.102c-4.3477 0-7.8711 3.5273-7.8711 7.875v55.105-0.003907c0 3.1836 1.918 6.0547 4.8594 7.2734 2.9414 1.2188 6.3242 0.54297 8.5781-1.707l10.176-10.18 18.051 18.051c3.0742 3.0742 8.0586 3.0742 11.133 0l23.617-23.617-0.003906 0.003906c3.0742-3.0742 3.0742-8.0586 0-11.133z"/>
  <path d="m329.15 525.95h-55.102c-3.1836 0.003906-6.0547 1.9219-7.2734 4.8633-1.2148 2.9375-0.54297 6.3242 1.707 8.5742l10.18 10.18-18.051 18.051c-3.0742 3.0742-3.0742 8.0586 0 11.133l23.617 23.617v-0.003907c3.0703 3.0742 8.0547 3.0742 11.129 0l18.051-18.051 10.18 10.18c2.25 2.25 5.6367 2.9258 8.5781 1.707 2.9414-1.2188 4.8594-4.0898 4.8594-7.2734v-55.102c0-2.0898-0.83203-4.0898-2.3086-5.5664-1.4727-1.4766-3.4766-2.3086-5.5664-2.3086z"/>
  <path d="m611.7 216.95c5.7109-5.9766 8.8398-13.961 8.7109-22.23-0.125-8.2656-3.5-16.148-9.3906-21.949s-13.824-9.0508-22.094-9.0508c-8.2656 0-16.203 3.25-22.094 9.0508s-9.2617 13.684-9.3906 21.949c-0.125 8.2695 3.0039 16.254 8.7109 22.23-7.4023 4.0742-13.578 10.062-17.879 17.336-4.3008 7.2734-6.5742 15.566-6.5781 24.016v7.875c0 2.0859 0.82813 4.0898 2.3047 5.5664 1.4766 1.4727 3.4805 2.3047 5.5664 2.3047h78.723c2.0859 0 4.0898-0.83203 5.5664-2.3047 1.4727-1.4766 2.3047-3.4805 2.3047-5.5664v-7.875c-0.003906-8.4492-2.2773-16.742-6.5781-24.016-4.3047-7.2734-10.477-13.262-17.883-17.336z"/>
  <path d="m171.71 274.05h78.719c2.0898 0 4.0898-0.83203 5.5664-2.3047 1.4766-1.4766 2.3047-3.4805 2.3047-5.5664v-7.875c-0.003906-8.4492-2.2773-16.742-6.5781-24.016-4.3008-7.2734-10.477-13.262-17.879-17.336 5.7109-5.9766 8.8359-13.961 8.7109-22.23-0.12891-8.2656-3.5-16.148-9.3906-21.949-5.8906-5.8008-13.828-9.0508-22.094-9.0508-8.2656 0-16.203 3.25-22.094 9.0508-5.8906 5.8008-9.2656 13.684-9.3906 21.949-0.12891 8.2695 3 16.254 8.7109 22.23-7.4023 4.0742-13.578 10.062-17.879 17.336-4.3047 7.2734-6.5742 15.566-6.582 24.016v7.875c0 2.0859 0.83203 4.0898 2.3086 5.5664 1.4766 1.4727 3.4766 2.3047 5.5664 2.3047z"/>
  <path d="m611.7 579.06c5.7109-5.9766 8.8398-13.965 8.7109-22.23-0.125-8.2656-3.5-16.148-9.3906-21.949-5.8906-5.8008-13.824-9.0508-22.094-9.0508-8.2656 0-16.203 3.25-22.094 9.0508-5.8906 5.8008-9.2617 13.684-9.3906 21.949-0.125 8.2656 3.0039 16.254 8.7109 22.23-7.4023 4.0742-13.578 10.062-17.879 17.336-4.3008 7.2734-6.5742 15.566-6.5781 24.016v7.875c0 2.0859 0.82813 4.0898 2.3047 5.5664 1.4766 1.4727 3.4805 2.3047 5.5664 2.3047h78.723c2.0859 0 4.0898-0.83203 5.5664-2.3047 1.4727-1.4766 2.3047-3.4805 2.3047-5.5664v-7.875c-0.003906-8.4492-2.2773-16.742-6.5781-24.016-4.3047-7.2734-10.477-13.262-17.883-17.336z"/>
  <path d="m233.84 579.06c5.7109-5.9766 8.8359-13.965 8.7109-22.23-0.12891-8.2656-3.5-16.148-9.3906-21.949-5.8906-5.8008-13.828-9.0508-22.094-9.0508-8.2656 0-16.203 3.25-22.094 9.0508-5.8906 5.8008-9.2656 13.684-9.3906 21.949-0.12891 8.2656 3 16.254 8.7109 22.23-7.4023 4.0742-13.578 10.062-17.879 17.336-4.3047 7.2734-6.5742 15.566-6.582 24.016v7.875c0 2.0859 0.83203 4.0898 2.3086 5.5664 1.4766 1.4727 3.4766 2.3047 5.5664 2.3047h78.719c2.0898 0 4.0898-0.83203 5.5664-2.3047 1.4766-1.4766 2.3047-3.4805 2.3047-5.5664v-7.875c-0.003906-8.4492-2.2773-16.742-6.5781-24.016-4.3008-7.2734-10.477-13.262-17.879-17.336z"/>
  <path d="m274.05 510.21h251.9c2.0898 0 4.0898-0.82812 5.5664-2.3047 1.4766-1.4766 2.3086-3.4805 2.3086-5.5664v-78.723h23.617-0.003906c2.9062 0 5.5742-1.5977 6.9453-4.1562 1.3672-2.5625 1.2188-5.668-0.39453-8.082l-31.488-47.23v-0.003906c-1.4609-2.1875-3.918-3.5039-6.5508-3.5039h-50.953c7.6367-23.934 3.3867-50.078-11.438-70.363-14.82-20.285-38.438-32.281-63.559-32.281-25.125 0-48.742 11.996-63.562 32.281-14.824 20.285-19.07 46.43-11.438 70.363h-50.953c-2.6328 0-5.0898 1.3164-6.5508 3.5039l-31.488 47.23v0.003906c-1.6094 2.4141-1.7617 5.5195-0.39062 8.082 1.3672 2.5586 4.0352 4.1562 6.9414 4.1562h23.617v78.723c0 2.0859 0.82812 4.0898 2.3047 5.5664 1.4766 1.4766 3.4766 2.3047 5.5664 2.3047zm247.69-133.82 20.988 31.488h-59.828l-20.988-31.488zm-121.74-102.34c16.695 0.019531 32.703 6.6602 44.508 18.465 11.809 11.809 18.449 27.812 18.469 44.512-0.007812 8.1016-1.5977 16.121-4.6797 23.613h-36.137c0.93359-2.5195 1.4258-5.1836 1.4531-7.8711 0-6.2617-2.4883-12.27-6.9141-16.699-4.4297-4.4297-10.438-6.918-16.699-6.918-3.1836 0-6.0547-1.918-7.2734-4.8594-1.2188-2.9414-0.54687-6.3242 1.707-8.5781 2.25-2.25 5.6367-2.9258 8.5781-1.707 2.9414 1.2188 4.8594 4.0898 4.8594 7.2734 0 4.3477 3.5234 7.8711 7.8711 7.8711 4.3477 0 7.8711-3.5234 7.8711-7.8711-0.019531-4.8672-1.543-9.6094-4.3594-13.574-2.8203-3.9688-6.793-6.9688-11.383-8.5938v-1.4453c0-4.3477-3.5234-7.875-7.8711-7.875s-7.875 3.5273-7.875 7.875v1.4492-0.003906c-7.0547 2.4844-12.508 8.1719-14.699 15.324-2.1914 7.1523-0.85547 14.918 3.5977 20.926 4.4531 6.0117 11.496 9.5508 18.977 9.5352 3.1836 0 6.0547 1.918 7.2695 4.8594 1.2188 2.9414 0.54688 6.3281-1.7031 8.5781-2.2539 2.2539-5.6406 2.9258-8.582 1.707s-4.8594-4.0898-4.8594-7.2734c0-4.3477-3.5234-7.8711-7.8711-7.8711s-7.8711 3.5234-7.8711 7.8711c0.027344 2.6875 0.51563 5.3516 1.4492 7.8711h-36.133c-3.082-7.4922-4.668-15.512-4.6758-23.613 0.019531-16.699 6.6602-32.703 18.465-44.512 11.805-11.805 27.812-18.445 44.512-18.465zm-142.73 133.82 20.988-31.488h154.29l-20.988 31.488z"/>
 </g>
</svg>