<?xml version="1.0" encoding="UTF-8"?>
<!-- The Best Svg Icon site in the world: iconSvg.co, Visit us! https://iconsvg.co -->
<svg fill="#000000" width="800px" height="800px" version="1.1" viewBox="144 144 512 512" xmlns="http://www.w3.org/2000/svg">
 <g>
  <path d="m337.02 410.5c2.7812 0 5.4531-1.1055 7.4219-3.0742s3.0742-4.6406 3.0742-7.4219c0-18.75 10-36.074 26.238-45.449 16.238-9.375 36.242-9.375 52.48 0s26.242 26.699 26.242 45.449c0 5.7969 4.6992 10.496 10.496 10.496 5.7969 0 10.496-4.6992 10.496-10.496 0-115.46-10.496-163.21-68.121-197.96-3.2461-1.875-7.25-1.875-10.496 0-57.832 34.742-68.328 82.5-68.328 197.96 0 2.7812 1.1055 5.4531 3.0742 7.4219s4.6367 3.0742 7.4219 3.0742z"/>
  <path d="m400 410.5c-25.055 0-49.082 9.9492-66.797 27.668-17.715 17.715-27.668 41.742-27.668 66.793 0 25.055 9.9531 49.082 27.668 66.797s41.742 27.668 66.797 27.668c25.051 0 49.078-9.9531 66.793-27.668 17.719-17.715 27.668-41.742 27.668-66.797 0-25.051-9.9492-49.078-27.668-66.793-17.715-17.719-41.742-27.668-66.793-27.668zm20.992 83.969v-0.003906c2.7812 0 5.4531 1.1094 7.4219 3.0742 1.9648 1.9688 3.0742 4.6406 3.0742 7.4219v31.488c0 2.7852-1.1094 5.4531-3.0742 7.4219-1.9688 1.9688-4.6406 3.0742-7.4219 3.0742h-10.496c0 5.7969-4.6992 10.496-10.496 10.496s-10.496-4.6992-10.496-10.496h-10.496c-5.7969 0-10.496-4.6992-10.496-10.496 0-5.7969 4.6992-10.496 10.496-10.496h31.488v-10.496h-31.488c-5.7969 0-10.496-4.6992-10.496-10.496v-31.484c0-5.7969 4.6992-10.496 10.496-10.496h10.496c0-5.7969 4.6992-10.496 10.496-10.496s10.496 4.6992 10.496 10.496h10.496c5.7969 0 10.496 4.6992 10.496 10.496 0 5.793-4.6992 10.492-10.496 10.492h-31.488v10.496z"/>
  <path d="m306.16 358.75c2.3086-74.207 13.121-119.34 48.492-152.72-43.789 10.227-82.84 34.949-110.81 70.16-27.973 35.211-43.223 78.84-43.273 123.81 0 5.7969 4.6992 10.496 10.496 10.496 5.7969 0 10.496-4.6992 10.496-10.496 0.0625-13.125 5.0391-25.746 13.949-35.379 8.9102-9.6328 21.105-15.582 34.184-16.668s26.086 2.7656 36.465 10.797z"/>
  <path d="m445.34 206.03c35.371 33.379 46.184 78.617 48.492 152.72 10.379-8.0312 23.387-11.883 36.465-10.797s25.273 7.0352 34.184 16.668c8.9102 9.6328 13.887 22.254 13.949 35.379 0 5.7969 4.6992 10.496 10.496 10.496s10.496-4.6992 10.496-10.496c-0.050781-44.969-15.301-88.598-43.27-123.81-27.973-35.211-67.02-59.934-110.81-70.16z"/>
  <path d="m284.54 504.96c0.054687-17.184 3.9258-34.141 11.336-49.645-24.047 7.5469-42.547 26.895-49.012 51.258-6.4648 24.359 0.011718 50.336 17.152 68.812 17.141 18.477 42.559 26.879 67.336 22.258-29.398-21.738-46.766-56.117-46.812-92.684z"/>
  <path d="m504.12 455.31c11.594 24.141 14.395 51.574 7.918 77.559-6.4805 25.984-21.828 48.895-43.398 64.77 24.777 4.6211 50.195-3.7812 67.336-22.258 17.141-18.477 23.617-44.453 17.152-68.812-6.4648-24.363-24.961-43.711-49.008-51.258z"/>
 </g>
</svg>