<?xml version="1.0" encoding="UTF-8"?>
<!-- The Best Svg Icon site in the world: iconSvg.co, Visit us! https://iconsvg.co -->
<svg fill="#000000" width="800px" height="800px" version="1.1" viewBox="144 144 512 512" xmlns="http://www.w3.org/2000/svg">
 <path d="m600.88 594h-53.285v-224.73c0.003906-1.1992-0.47266-2.3516-1.3203-3.1992-0.84766-0.84766-1.9961-1.3203-3.1953-1.3203h-50.301c-2.4961 0-4.5195 2.0234-4.5195 4.5195v224.73h-48.215v-104.3c-0.003906-2.4883-2.0273-4.5039-4.5156-4.5039h-50.293c-1.1953-0.003906-2.3438 0.46875-3.1914 1.3164-0.84766 0.84375-1.3242 1.9922-1.3242 3.1875v104.3h-48.215v-166.3h-0.003906c0-2.4883-2.0156-4.5039-4.5039-4.5039h-50.266c-1.1953-0.003906-2.3438 0.46875-3.1914 1.3164-0.84766 0.84375-1.3242 1.9922-1.3242 3.1875v166.3h-69.586v-145.08c0.089844-0.078125 0.19531-0.13672 0.28516-0.21484l99.777-92.793 99.648 97.348c0.83984 0.82812 1.9688 1.293 3.1484 1.2891h0.46484c1.3281-0.14062 2.5273-0.85938 3.2734-1.9688l130.48-192.87 8.4336 44.281v-0.003907c0.40625 2.1289 2.2617 3.668 4.4258 3.6719 0.28906-0.003906 0.57422-0.027344 0.85938-0.078125 2.4453-0.47266 4.0469-2.8359 3.5781-5.2852l-10.469-55.035c-0.16406-0.84375-0.56641-1.6211-1.1602-2.2422l-0.058594-0.070312c-0.20703-0.21484-0.43359-0.40625-0.67969-0.57031-0.19922-0.12891-0.41016-0.24219-0.62891-0.33594l-0.10938-0.058594c-0.25391-0.11328-0.52344-0.19922-0.79688-0.25391-0.27344-0.058594-0.54688-0.089844-0.82812-0.10156h-0.058594c-0.28125 0-0.56641 0.023438-0.84375 0.070313h-0.089844l-55.094 10.469c-2.3125 0.58984-3.7695 2.8789-3.3203 5.2266 0.44922 2.3438 2.6445 3.9336 5.0117 3.6289l44.367-8.4414-127.46 188.46-98.863-96.59c-1.7266-1.6797-4.4609-1.7109-6.2305-0.078125l-97.059 90.273v-235.18c0-2.4922-2.0234-4.5156-4.5195-4.5156-2.4922 0-4.5156 2.0234-4.5156 4.5156v397.05c0.003906 2.4922 2.0234 4.5117 4.5156 4.5156h401.77c2.4961 0 4.5156-2.0234 4.5156-4.5156 0-2.4961-2.0195-4.5156-4.5156-4.5156zm-103.59-220.22h41.258v41.258h-41.258zm-107.52 120.48h41.258v41.27h-41.258zm-107.53-62.082h41.27v41.258l-41.27 0.003906zm0 161.82v-111.53h41.27v111.53zm107.53 0v-49.445h41.258v49.445zm107.52 0v-169.93h41.258v169.93z"/>
</svg>