<?xml version="1.0" encoding="UTF-8"?>
<!-- The Best Svg Icon site in the world: iconSvg.co, Visit us! https://iconsvg.co -->
<svg width="800px" height="800px" version="1.1" viewBox="144 144 512 512" xmlns="http://www.w3.org/2000/svg">
 <defs>
  <clipPath id="f">
   <path d="m148.09 211h440.91v440.9h-440.91z"/>
  </clipPath>
  <clipPath id="e">
   <path d="m211 462h95v189.9h-95z"/>
  </clipPath>
  <clipPath id="d">
   <path d="m337 494h95v157.9h-95z"/>
  </clipPath>
  <clipPath id="c">
   <path d="m462 525h96v126.9h-96z"/>
  </clipPath>
  <clipPath id="b">
   <path d="m148.09 337h377.91v174h-377.91z"/>
  </clipPath>
  <clipPath id="a">
   <path d="m400 148.09h251.9v251.91h-251.9z"/>
  </clipPath>
 </defs>
 <g clip-path="url(#f)">
  <path d="m573.18 651.9h-377.86c-12.52-0.011719-24.527-4.9922-33.383-13.848-8.8516-8.8555-13.832-20.859-13.848-33.383v-377.86c0-5.625 3-10.82 7.8711-13.633s10.875-2.8125 15.746 0c4.8711 2.8125 7.8711 8.0078 7.8711 13.633v377.86c0.003907 4.1719 1.6641 8.1758 4.6172 11.129 2.9492 2.9492 6.9531 4.6094 11.125 4.6133h377.86c5.625 0 10.82 3 13.633 7.875 2.8125 4.8711 2.8125 10.871 0 15.742s-8.0078 7.8711-13.633 7.8711z"/>
 </g>
 <g clip-path="url(#e)">
  <path d="m289.79 651.9h-62.977c-4.1758 0-8.1797-1.6562-11.133-4.6094-2.9492-2.9531-4.6094-6.957-4.6094-11.133v-157.44c0-4.1758 1.6602-8.1797 4.6094-11.133 2.9531-2.9531 6.957-4.6094 11.133-4.6094h62.977c4.1758 0 8.1797 1.6562 11.133 4.6094 2.9531 2.9531 4.6133 6.957 4.6133 11.133v157.44c0 4.1758-1.6602 8.1797-4.6133 11.133s-6.957 4.6094-11.133 4.6094zm-47.23-31.488h31.488v-125.95h-31.488z"/>
 </g>
 <g clip-path="url(#d)">
  <path d="m415.74 651.9h-62.977c-4.1758 0-8.1797-1.6562-11.133-4.6094-2.9531-2.9531-4.6094-6.957-4.6094-11.133v-125.95c0-4.1758 1.6562-8.1797 4.6094-11.133 2.9531-2.9531 6.957-4.6133 11.133-4.6133h62.977c4.1758 0 8.1797 1.6602 11.133 4.6133s4.6133 6.957 4.6133 11.133v125.95c0 4.1758-1.6602 8.1797-4.6133 11.133s-6.957 4.6094-11.133 4.6094zm-47.23-31.488h31.488v-94.465h-31.488z"/>
 </g>
 <g clip-path="url(#c)">
  <path d="m541.7 651.9h-62.977c-4.1758 0-8.1797-1.6562-11.133-4.6094-2.9531-2.9531-4.6094-6.957-4.6094-11.133v-94.465c0-4.1758 1.6562-8.1797 4.6094-11.133 2.9531-2.9531 6.957-4.6133 11.133-4.6133h62.977c4.1758 0 8.1797 1.6602 11.133 4.6133s4.6094 6.957 4.6094 11.133v94.465c0 4.1758-1.6562 8.1797-4.6094 11.133s-6.957 4.6094-11.133 4.6094zm-47.23-31.488h31.488l-0.003906-62.977h-31.488z"/>
 </g>
 <g clip-path="url(#b)">
  <path d="m510.21 510.21c-4.1758 0.003907-8.1836-1.6562-11.133-4.6133l-54.945-54.945-52.828 26.414c-2.957 1.4727-6.3008 1.9766-9.5625 1.4492-3.2578-0.53125-6.2695-2.0703-8.6094-4.4023l-54.945-54.945-52.84 26.406c-2.7383 1.3633-5.8164 1.9023-8.8594 1.5508-3.043-0.35547-5.9141-1.582-8.2695-3.543l-94.465-78.719h0.003906c-4.3203-3.6016-6.3906-9.2383-5.4336-14.781 0.96094-5.543 4.8086-10.152 10.086-12.094 5.2812-1.9375 11.195-0.91406 15.516 2.6875l86.547 72.125 53.766-26.883c2.957-1.4688 6.3047-1.9766 9.5625-1.4453 3.2617 0.52734 6.2734 2.0664 8.6133 4.3984l54.945 54.945 52.828-26.414v0.003906c2.957-1.4688 6.3008-1.9727 9.5625-1.4453 3.2578 0.53125 6.2695 2.0664 8.6094 4.3945l62.977 62.977c2.9531 2.9531 4.6133 6.957 4.6133 11.133 0 4.1758-1.6562 8.1797-4.6094 11.133-2.9492 2.9531-6.9531 4.6133-11.129 4.6133z"/>
 </g>
 <g clip-path="url(#a)">
  <path d="m525.95 400c-33.402 0-65.441-13.27-89.059-36.891-23.621-23.621-36.891-55.66-36.891-89.062 0-33.406 13.27-65.441 36.891-89.062 23.617-23.621 55.656-36.891 89.059-36.891 33.406 0 65.441 13.27 89.062 36.891 23.621 23.621 36.891 55.656 36.891 89.062-0.039063 33.391-13.32 65.406-36.934 89.02-23.609 23.613-55.625 36.895-89.02 36.934zm0-220.42c-25.051 0-49.078 9.9531-66.793 27.668-17.719 17.715-27.668 41.742-27.668 66.797s9.9492 49.082 27.668 66.797c17.715 17.715 41.742 27.668 66.793 27.668 25.055 0 49.082-9.9531 66.797-27.668s27.668-41.742 27.668-66.797c-0.027343-25.047-9.9883-49.059-27.695-66.766-17.711-17.711-41.723-27.672-66.77-27.699z"/>
 </g>
 <path d="m533.82 337.02h-39.363c-5.6211 0-10.82-3-13.633-7.875-2.8125-4.8711-2.8125-10.871 0-15.742s8.0117-7.8711 13.633-7.8711h39.363c4.3477 0 7.8711-3.5234 7.8711-7.8711 0-4.3477-3.5234-7.875-7.8711-7.875h-15.746c-14.062 0-27.055-7.5-34.086-19.68-7.0312-12.176-7.0312-27.18 0-39.359s20.023-19.68 34.086-19.68h39.359c5.625 0 10.824 3 13.637 7.8711s2.8125 10.875 0 15.746-8.0117 7.8711-13.637 7.8711h-39.359c-4.3477 0-7.8711 3.5234-7.8711 7.8711 0 4.3477 3.5234 7.8711 7.8711 7.8711h15.746c14.062 0 27.055 7.5039 34.086 19.68 7.0312 12.18 7.0312 27.184 0 39.363-7.0312 12.176-20.023 19.68-34.086 19.68z"/>
 <path d="m525.95 242.56c-4.1758 0-8.1797-1.6602-11.133-4.6133-2.9492-2.9531-4.6094-6.957-4.6094-11.133v-15.742c0-5.625 3-10.824 7.8711-13.637s10.875-2.8125 15.746 0c4.8711 2.8125 7.8711 8.0117 7.8711 13.637v15.742c0 4.1758-1.6602 8.1797-4.6133 11.133-2.9492 2.9531-6.957 4.6133-11.133 4.6133z"/>
 <path d="m525.95 352.77c-4.1758 0-8.1797-1.6562-11.133-4.6094-2.9492-2.9531-4.6094-6.957-4.6094-11.133v-15.746c0-5.625 3-10.82 7.8711-13.633s10.875-2.8125 15.746 0c4.8711 2.8125 7.8711 8.0078 7.8711 13.633v15.746c0 4.1758-1.6602 8.1797-4.6133 11.133-2.9492 2.9531-6.957 4.6094-11.133 4.6094z"/>
</svg>