<?xml version="1.0" encoding="UTF-8"?>
<!-- The Best Svg Icon site in the world: iconSvg.co, Visit us! https://iconsvg.co -->
<svg width="800px" height="800px" version="1.1" viewBox="144 144 512 512" xmlns="http://www.w3.org/2000/svg">
 <defs>
  <clipPath id="c">
   <path d="m179 490h162v161.9h-162z"/>
  </clipPath>
  <clipPath id="b">
   <path d="m258 148.09h64v70.906h-64z"/>
  </clipPath>
  <clipPath id="a">
   <path d="m218 148.09h364v283.91h-364z"/>
  </clipPath>
 </defs>
 <g clip-path="url(#c)">
  <path d="m226.96 492.32c-1.5195-1.4688-3.5469-2.2969-5.6602-2.3047-2.1211 0.023437-4.1445 0.90625-5.6055 2.4414l-34.047 35.652c-2.9648 3.0938-2.9102 7.9922 0.125 11.02l110.52 110.52c3.0742 3.0742 8.0586 3.0742 11.133 0l34.855-34.855v-0.003906c3.0742-3.0742 3.0742-8.0547 0-11.129zm70.902 140.62-99.52-99.516 23.176-24.27 100.07 100.06z"/>
 </g>
 <path d="m607.47 440.73c-7.8203-6.7305-17.93-10.199-28.238-9.6953s-20.027 4.9492-27.156 12.414l-35.426 35.426-35.637-0.15234c4.5859-5.7188 7.4102-12.652 8.125-19.949 1.082-11.051-2.5547-22.047-10.016-30.273-7.4609-8.2266-18.051-12.918-29.156-12.918h-115.54c-12.535-0.035156-24.562 4.9453-33.402 13.832l-51.805 51.812c-2.9844 3.0898-2.9414 7.9961 0.09375 11.035 3.0391 3.0352 7.9492 3.0781 11.035 0.09375l51.805-51.812h0.003906c5.8945-5.9219 13.914-9.2383 22.27-9.2188h115.54c6.6758 0 13.043 2.8203 17.52 7.7734 4.4805 4.9492 6.6562 11.562 5.9883 18.207-0.80859 5.9766-3.793 11.445-8.375 15.367-4.5859 3.9219-10.453 6.0156-16.484 5.8867h-72.234c-4.3477 0-7.8711 3.5234-7.8711 7.8711 0 4.3477 3.5234 7.8711 7.8711 7.8711l143.56 0.31641c2.1016 0.023438 4.1211-0.80859 5.5977-2.3086l37.707-37.699c4.3164-4.5391 10.191-7.2852 16.449-7.6836 6.2539-0.39844 12.43 1.5781 17.289 5.5352 4.8281 4.332 7.6641 10.457 7.8398 16.941 0.17578 6.4844-2.3242 12.758-6.9102 17.344l-48.16 48.16c-4.4258 4.4414-10.445 6.9336-16.715 6.918l-162.66-0.29297v0.003906c-2.0859 0-4.0898 0.82812-5.5625 2.3047l-26.449 26.441h-0.003906c-3.0742 3.0742-3.0781 8.0586-0.003907 11.137 3.0742 3.0742 8.0586 3.0781 11.137 0.003907l24.137-24.137 159.4 0.28516h-0.003906c10.449 0.027344 20.477-4.125 27.844-11.535l48.16-48.16c7.6211-7.6445 11.781-18.074 11.52-28.867-0.25-10.832-4.9883-21.074-13.086-28.277z"/>
 <g clip-path="url(#b)">
  <path d="m266.18 218.9c2.0859 0 4.0898-0.82812 5.5664-2.3047 1.4727-1.4766 2.3047-3.4805 2.3047-5.5664v-47.195h31.488v15.746c0 4.3477 3.5234 7.8711 7.8711 7.8711s7.8711-3.5234 7.8711-7.8711v-23.617c0-2.0859-0.82812-4.0898-2.3047-5.5664-1.4766-1.4766-3.4805-2.3047-5.5664-2.3047h-47.23c-4.3477 0-7.875 3.5234-7.875 7.8711v55.105c0.023438 4.332 3.543 7.832 7.875 7.832z"/>
 </g>
 <path d="m346.47 371.66c-2.6094 3.4766-1.9023 8.4102 1.5742 11.02 14.961 11.293 33.211 17.375 51.957 17.32 25.578-0.011719 49.844-11.34 66.281-30.941 16.438-19.598 23.363-45.469 18.918-70.66-4.4492-25.191-19.812-47.125-41.965-59.914-22.156-12.789-48.832-15.121-72.871-6.3711-24.039 8.7461-42.977 27.68-51.73 51.719-8.7539 24.035-6.4219 50.715 6.3594 72.871 1.0391 1.8203 2.7578 3.1562 4.7812 3.707 2.0234 0.54688 4.1836 0.26562 6-0.78125 1.8164-1.0469 3.1367-2.7773 3.6758-4.8047 0.53516-2.0273 0.23828-4.1836-0.82031-5.9922-11.828-20.441-12.695-45.43-2.3125-66.637 10.387-21.211 30.652-35.852 54.051-39.047 23.395-3.1953 46.848 5.4805 62.535 23.129 15.688 17.648 21.551 41.957 15.637 64.816-5.9141 22.863-22.832 41.273-45.113 49.098-22.277 7.8242-46.992 4.0352-65.906-10.105-1.6719-1.2656-3.7773-1.8086-5.8516-1.5117s-3.9453 1.4062-5.1992 3.0859z"/>
 <path d="m400.23 337.02h-16.199c-4.3477 0-7.875 3.5234-7.875 7.8711 0 4.3477 3.5273 7.8711 7.875 7.8711h16.199c8.4375-0.082031 16.191-4.6562 20.34-12.004 4.1445-7.3477 4.0586-16.352-0.23047-23.617-4.2891-7.2656-12.129-11.691-20.566-11.609-4.3477 0-7.8711-3.5234-7.8711-7.8711 0-4.3477 3.5234-7.875 7.8711-7.875h16.203c4.3477 0 7.8711-3.5234 7.8711-7.8711 0-4.3477-3.5234-7.8711-7.8711-7.8711h-16.203c-8.4375 0.082031-16.188 4.6562-20.336 12.004-4.1484 7.3477-4.0625 16.352 0.22656 23.617 4.2891 7.2656 12.129 11.691 20.566 11.609 4.3477 0 7.8711 3.5234 7.8711 7.8711 0 4.3477-3.5234 7.875-7.8711 7.875z"/>
 <g clip-path="url(#a)">
  <path d="m231.04 272.78 27.258-17.348v168.14c0 4.3477 3.5273 7.8711 7.875 7.8711 4.3477 0 7.8711-3.5234 7.8711-7.8711v-178.17l125.95-80.145 125.95 80.145v178.17c0 4.3477 3.5273 7.8711 7.875 7.8711 4.3477 0 7.8711-3.5234 7.8711-7.8711v-168.14l27.262 17.32v-0.003906c3.668 2.3359 8.5352 1.2539 10.871-2.4141 2.332-3.6719 1.25-8.5391-2.418-10.871l-173.18-110.21v-0.003906c-2.5781-1.6406-5.875-1.6406-8.457 0l-173.18 110.21v0.003907c-3.668 2.332-4.75 7.1992-2.4141 10.871 2.332 3.668 7.1992 4.75 10.871 2.4141z"/>
 </g>
</svg>