<?xml version="1.0" encoding="UTF-8"?>
<!-- The Best Svg Icon site in the world: iconSvg.co, Visit us! https://iconsvg.co -->
<svg fill="#000000" width="800px" height="800px" version="1.1" viewBox="144 144 512 512" xmlns="http://www.w3.org/2000/svg">
 <g>
  <path d="m400 187.45c-18.793 0-36.812 7.4648-50.098 20.75-13.289 13.289-20.754 31.309-20.754 50.098 0 18.793 7.4648 36.812 20.754 50.098 13.285 13.289 31.305 20.75 50.098 20.75 18.789 0 36.809-7.4609 50.098-20.75 13.285-13.285 20.75-31.305 20.75-50.098-0.023437-18.781-7.4961-36.789-20.777-50.07s-31.289-20.754-50.07-20.777zm0 125.95c-14.617 0-28.633-5.8047-38.965-16.141-10.336-10.332-16.141-24.348-16.141-38.965 0-14.613 5.8047-28.629 16.141-38.965 10.332-10.332 24.348-16.137 38.965-16.137 14.613 0 28.629 5.8047 38.965 16.137 10.332 10.336 16.137 24.352 16.137 38.965-0.015624 14.609-5.8281 28.617-16.156 38.949-10.332 10.328-24.336 16.141-38.945 16.156z"/>
  <path d="m407.87 305.54v-7.8711c8.4375 0 16.234-4.5039 20.453-11.809 4.2188-7.3086 4.2188-16.309 0-23.617-4.2188-7.3086-12.016-11.809-20.453-11.809h-15.746c-4.3477 0-7.8711-3.5234-7.8711-7.8711s3.5234-7.8711 7.8711-7.8711h15.746c2.0859 0 4.0898 0.82812 5.5664 2.3047 1.4766 1.4766 2.3047 3.4766 2.3047 5.5664 0 4.3477 3.5234 7.8711 7.8711 7.8711 4.3477 0 7.875-3.5234 7.875-7.8711 0-6.2656-2.4883-12.27-6.918-16.699-4.4297-4.4297-10.438-6.918-16.699-6.918v-7.8711c0-4.3477-3.5234-7.8711-7.8711-7.8711s-7.875 3.5234-7.875 7.8711v7.8711c-8.4375 0-16.23 4.5-20.449 11.809s-4.2188 16.309 0 23.617c4.2188 7.3047 12.012 11.809 20.449 11.809h15.746c4.3477 0 7.8711 3.5234 7.8711 7.8711s-3.5234 7.8711-7.8711 7.8711h-15.746c-4.3477 0-7.8711-3.5234-7.8711-7.8711s-3.5234-7.8711-7.8711-7.8711c-4.3477 0-7.8711 3.5234-7.8711 7.8711 0 6.2617 2.4883 12.27 6.9141 16.699 4.4297 4.4297 10.438 6.918 16.699 6.918v7.8711c0 4.3477 3.5273 7.8711 7.875 7.8711s7.8711-3.5234 7.8711-7.8711z"/>
  <path d="m633.8 404.56-54.711-54.633v0.003906c1.2422-1.3906 1.9414-3.1797 1.9688-5.0391v-173.18c0-2.0898-0.82813-4.0898-2.3047-5.5664-1.4766-1.4766-3.4805-2.3086-5.5664-2.3086h-346.37c-4.3477 0-7.8711 3.5273-7.8711 7.875v173.18c0.03125 1.8594 0.72656 3.6484 1.9688 5.0391l-54.711 54.629c-3.043 3.1055-3.043 8.0742 0 11.18l77.934 77.934c3.1055 3.043 8.0742 3.043 11.18 0l5.5117-5.5898 38.965 38.965-5.5898 5.5898c-4.3906 4.4492-6.8477 10.441-6.8477 16.691 0 6.2461 2.457 12.242 6.8477 16.688 4.1328 4.1289 9.6719 6.543 15.508 6.7695 0.26172 5.8281 2.6758 11.352 6.7695 15.508 4.125 4.1406 9.668 6.5625 15.508 6.7695 0.21875 5.8398 2.6367 11.379 6.7695 15.508 4.1289 4.1328 9.6719 6.5508 15.508 6.7695 0.23438 5.8359 2.6523 11.371 6.7695 15.508 4.4453 4.3906 10.441 6.8516 16.688 6.8516 6.25 0 12.246-2.4609 16.691-6.8516l5.5898-5.5898 5.5898 5.5898h-0.003906c4.3125 4.3516 10.148 6.8516 16.273 6.957 6.1211 0.10938 12.047-2.1797 16.508-6.375 4.4609-4.1953 7.1016-9.9688 7.3672-16.09 5.8242-0.28125 11.344-2.6914 15.508-6.7695 4.1016-4.1484 6.5156-9.6758 6.7695-15.508 5.8242-0.21875 11.352-2.6289 15.48-6.7422 4.1289-4.1133 6.5586-9.6328 6.7969-15.457 5.8203-0.26953 11.328-2.7148 15.43-6.8477h0.078125c4.3945-4.4492 6.8555-10.453 6.8398-16.703-0.015625-6.2539-2.5-12.246-6.918-16.676l-5.5117-5.5898 38.965-38.965 5.5117 5.5898h0.003906c3.1016 3.043 8.0742 3.043 11.176 0l77.934-77.934c3.0469-3.1055 3.0469-8.0742 0-11.18zm-68.484-224.98v38.652c-9.6602-1.6328-18.57-6.2305-25.496-13.156-6.9258-6.9258-11.523-15.84-13.156-25.496zm-330.62 0h38.652-0.003906c-1.6289 9.6562-6.2266 18.57-13.156 25.496-6.9258 6.9258-15.836 11.523-25.492 13.156zm0 54.555c13.852-1.7578 26.73-8.0703 36.605-17.945s16.188-22.754 17.945-36.609h221.52c1.7578 13.855 8.0703 26.734 17.945 36.609s22.754 16.188 36.609 17.945v48.336-0.003906c-13.855 1.7578-26.734 8.0703-36.609 17.945s-16.188 22.754-17.945 36.609h-221.52c-1.7578-13.855-8.0703-26.734-17.945-36.609s-22.754-16.188-36.605-17.945zm330.62 64.234v38.652h-38.652c1.6328-9.6602 6.2305-18.57 13.156-25.496 6.9258-6.9258 15.836-11.523 25.496-13.156zm-131.94 83.992 5.5898 5.5117-16.531 16.531c-0.078125 0.078125-0.15625 0.078125-0.23438 0.15625l-11.102 11.18-5.5117-5.5898c-1.1016-1.082-2.4961-1.8203-4.0117-2.125l-25.504-5.1172-15.035-15.035 5.5898-5.5117h-0.003906c3.0703-3.0938 3.0703-8.082 0-11.176l-18.5-18.422h103.75l-18.5 18.422c-3.0703 3.0938-3.0703 8.082 0 11.176zm-198.69-83.992c9.6562 1.6328 18.566 6.2305 25.492 13.156 6.9297 6.9258 11.527 15.836 13.156 25.496h-38.648zm15.035 178.62-66.836-66.836 57.387-57.387h85.648l24.008 24.008zm22.277 0 77.934-77.934 11.098 11.098-77.934 77.934zm22.199 22.277 80.531-80.531 21.41 4.25 42.824 42.824c3.0703 3.0938 3.0703 8.0859 0 11.18-3.0703 3.0508-8.0273 3.0508-11.098 0l-16.766-16.688-0.003906-0.003906c-3.0938-2.9922-8.0039-2.9922-11.098 0-3.1133 2.9531-7.9922 2.9531-11.102 0l-5.5898-5.5898v0.003907c-3.0938-3.0703-8.082-3.0703-11.176 0l-61.164 61.246zm133.67 122.41c-3.1289 2.9883-8.0547 2.9883-11.18 0l-11.102-11.102c-3.0664-3.0938-3.0664-8.082 0-11.176 3.0703-3.0547 8.0312-3.0547 11.102 0l11.18 11.18v-0.003906c2.9922 3.0938 2.9922 8.0078 0 11.102zm22.199-22.277c-1.4648 1.4883-3.4648 2.332-5.5508 2.332-2.0898 0-4.0898-0.84375-5.5508-2.332l-11.098-11.098v-0.003906c-3.0547-3.0703-3.0547-8.0273 0-11.098 1.4375-1.5078 3.4258-2.3594 5.5078-2.3633 2.1055 0 4.1211 0.85156 5.5898 2.3633l11.098 11.098h0.003906c1.5 1.4727 2.3516 3.4844 2.3594 5.5898-0.007812 2.082-0.85938 4.0703-2.3594 5.5117zm22.277-22.199c-3.0703 3.0508-8.0312 3.0508-11.102 0l-11.18-11.18h0.003906c-1.4844-1.4805-2.3047-3.4961-2.2852-5.5898 0.10547-4.3047 3.5703-7.7695 7.8711-7.8711 2.1055 0.007812 4.1172 0.85938 5.5898 2.3633l11.098 11.098h0.003906c3.0703 3.0938 3.0703 8.0859 0 11.18zm22.277-22.277c-3.1133 2.9492-7.9883 2.9492-11.102 0l-11.18-11.18h0.003906c-3.0547-3.0703-3.0547-8.0312 0-11.102 3.1016-3.043 8.0742-3.043 11.176 0l11.102 11.102c3.0703 3.0938 3.0703 8.0859 0 11.18zm-6.6133-37.941v-0.003907c-7.125-3.4219-15.492-3.0312-22.266 1.0469-6.7734 4.0742-11.039 11.285-11.348 19.184-5.7734 0.19922-11.27 2.5273-15.43 6.5352-4.1328 4.1289-6.5508 9.668-6.7695 15.508-5.8242 0.28125-11.344 2.6914-15.508 6.7695-4.1445 4.1836-6.5625 9.7773-6.7695 15.664-7.8867 0.23828-15.109 4.4805-19.16 11.254-4.0469 6.7734-4.3633 15.145-0.83594 22.203l-6.6133 6.5352c-3.0938 3.0703-8.082 3.0703-11.176 0-1.4883-1.5039-2.2852-3.5547-2.207-5.668-0.03125-2.0352 0.76172-3.9961 2.207-5.4336l11.18-11.18-0.003906 0.003907c3.0547-3.0703 3.0547-8.0312 0-11.102-3.0938-3.0703-8.082-3.0703-11.176 0l-11.102 11.102c-1.4258 1.6641-3.4844 2.6602-5.6758 2.7461-2.1914 0.082031-4.3164-0.75-5.8672-2.3008s-2.3867-3.6797-2.3008-5.8711c0.082031-2.1914 1.0781-4.25 2.7461-5.6758l11.098-11.098c3.0703-3.0938 3.0703-8.0859 0-11.18-3.0703-3.0508-8.0273-3.0508-11.098 0l-11.18 11.18c-3.0703 3.0508-8.0273 3.0508-11.098 0-3.0703-3.0938-3.0703-8.0859 0-11.18l16.688-16.688c3.0508-3.0703 3.0508-8.0312 0-11.102-3.0938-3.0703-8.0859-3.0703-11.18 0l-16.688 16.688v0.003906c-3.0703 3.0508-8.0312 3.0508-11.102 0-3.0664-3.0938-3.0664-8.0859 0-11.18l72.344-72.344c3.5039 3.3867 7.9453 5.6406 12.746 6.4688 4.8047 0.82812 9.7422 0.19141 14.18-1.8242l12.043 12.043c4.3672 4.6875 10.453 7.3984 16.859 7.5117 6.4102 0.11328 12.586-2.3789 17.117-6.9102s7.0273-10.711 6.9141-17.117-2.8242-12.492-7.5117-16.859l-27.789-27.867 5.5117-5.5898 78.012 78.012zm28.891-28.891-77.934-77.934 11.098-11.098 77.934 77.934zm33.379-11.098-100.21-100.21 24.008-24.012h85.648l57.387 57.387z"/>
  <path d="m518.08 250.43h-23.617c-4.3477 0-7.8711 3.5234-7.8711 7.8711 0 4.3477 3.5234 7.875 7.8711 7.875h23.617c4.3477 0 7.8711-3.5273 7.8711-7.875 0-4.3477-3.5234-7.8711-7.8711-7.8711z"/>
  <path d="m305.54 250.43h-23.617c-4.3477 0-7.8711 3.5234-7.8711 7.8711 0 4.3477 3.5234 7.875 7.8711 7.875h23.617c4.3477 0 7.8711-3.5273 7.8711-7.875 0-4.3477-3.5234-7.8711-7.8711-7.8711z"/>
 </g>
</svg>