<?xml version="1.0" encoding="UTF-8"?>
<!-- The Best Svg Icon site in the world: iconSvg.co, Visit us! https://iconsvg.co -->
<svg fill="#000000" width="800px" height="800px" version="1.1" viewBox="144 144 512 512" xmlns="http://www.w3.org/2000/svg">
 <path d="m638.64 515.08-26.516-79.551v0.003906c-1.8945-5.6406-7.3164-9.3281-13.258-9.0156h-43.488l-22.805-70.535c-1.8945-5.6367-7.3164-9.3242-13.258-9.0156h-36.855l-23.469-70.531c-1.8242-5.4023-6.8945-9.0312-12.594-9.0156h-92.809c-5.6992-0.015625-10.77 3.6133-12.594 9.0156l-23.469 70.531h-36.855c-5.6992-0.011719-10.773 3.6172-12.598 9.0156l-23.465 70.535h-43.488c-5.9414-0.3125-11.359 3.375-13.258 9.0156l-26.516 79.551v-0.003906c-1.332 4.0469-0.64453 8.4844 1.8555 11.934 2.6094 3.6719 6.9023 5.7695 11.402 5.5664h450.78c4.2656-0.019531 8.2656-2.0898 10.738-5.5664 2.7305-3.332 3.668-7.7812 2.5195-11.934zm-111.23-88.562h-108.98l17.633-53.031h73.715zm-47.863 50.91-8.0859-24.395h16.176zm-79.551-79.551-8.0859-24.395h16.176zm-36.855-103.94h73.715l17.633 53.031h-108.98zm-72.918 79.551h73.715l17.633 53.031h-108.98zm30.227 103.94-8.0859-24.395h16.176zm-127.41 28.637 17.633-53.031h73.715l17.633 53.031zm145.84 0 17.633-53.031h86.973l17.633 53.031zm159.1 0 17.633-53.031h73.715l17.633 53.031z"/>
</svg>