<?xml version="1.0" encoding="UTF-8"?>
<!-- The Best Svg Icon site in the world: iconSvg.co, Visit us! https://iconsvg.co -->
<svg fill="#000000" width="800px" height="800px" version="1.1" viewBox="144 144 512 512" xmlns="http://www.w3.org/2000/svg">
 <g>
  <path d="m398.95 513.55c-7.6875 0-13.137-2.7773-18.477-5.6641l-4.7695 7.1602c5.5508 4.168 13.801 6.5195 19.047 7.0547v9.0938h10.496v-9.2031c10.496-1.6016 18.215-10.895 18.215-22.004 0-28.523-36.238-17.301-36.238-34.395 0-5.9844 2.0195-11.43 12.492-11.43 4.7031 0 10.242 1.2812 16.121 5.1289l4.9141-6.8398c-4.8125-3.6367-10.254-5.8828-15.504-6.5234v-9.1992h-10.496v9.1992c-10.496 1.0703-17.449 8.1172-17.449 19.766 0 26.598 36.09 12.176 36.09 35.035 0 7.1562-3.332 12.82-14.441 12.82z"/>
  <path d="m400 411.99c-40.41 0-73.289 32.879-73.289 73.289 0 9.3789 1.7422 18.5 5.1797 27.117 1.0742 2.6992 4.1367 3.9883 6.8242 2.9297 2.6914-1.0742 4.0039-4.1289 2.9297-6.8164-2.9453-7.375-4.4336-15.188-4.4336-23.223 0-34.625 28.168-62.793 62.793-62.793s62.793 28.172 62.793 62.793c-0.003906 34.621-28.172 62.785-62.797 62.785-3.3906 0-6.7656-0.26953-10.039-0.79687-2.8711-0.46875-5.5586 1.4844-6.0156 4.3438-0.45703 2.8594 1.4844 5.5586 4.3438 6.0156 3.8242 0.62109 7.7617 0.92969 11.707 0.92969 40.41 0 73.289-32.879 73.289-73.289 0-40.406-32.875-73.285-73.285-73.285z"/>
  <path d="m373.93 542.43c-6.8281-3.1211-12.992-7.4062-18.32-12.73-2.6094-2.6133-4.9805-5.4375-7.0586-8.3906-1.6602-2.3711-4.9297-2.9492-7.3086-1.2852-2.3711 1.6641-2.9492 4.9375-1.2812 7.3086 2.418 3.4531 5.1836 6.7422 8.2188 9.7891 6.2227 6.2148 13.418 11.215 21.379 14.855 0.70703 0.32422 1.4492 0.47656 2.1797 0.47656 1.9961 0 3.8945-1.1406 4.7773-3.0664 1.2109-2.6406 0.050781-5.75-2.5859-6.957z"/>
  <path d="m452.48 385.98v-69.945h44.715c2.082 0 3.9766-1.2344 4.8086-3.1484 0.83594-1.9102 0.46094-4.1367-0.96094-5.668l-13.074-14.105c-1.9766-2.1289-5.2969-2.2578-7.4141-0.28516-2.125 1.9688-2.25 5.2891-0.28516 7.4141l4.8984 5.2969h-37.938c-2.9023 0-5.2461 2.3516-5.2461 5.2461v70.328c-12.988-5.2539-27.137-8.2148-41.984-8.2148s-28.996 2.9609-41.984 8.2148v-70.328c0-2.8984-2.3477-5.2461-5.2461-5.2461h-37.949l85.176-91.711 37.977 40.797c1.9766 2.125 5.2969 2.2344 7.4219 0.26953 2.1211-1.9727 2.2422-5.2969 0.26953-7.4141l-41.82-44.93c-1.9883-2.1367-5.6992-2.1367-7.6875 0l-97.207 104.67c-1.4219 1.5312-1.793 3.7539-0.96094 5.668 0.82812 1.9102 2.7227 3.1484 4.8086 3.1484h44.723v69.945c-35.586 18.883-59.906 56.289-59.906 99.309 0 61.969 50.414 112.39 112.39 112.39s112.39-50.418 112.39-112.39c0-43.02-24.32-80.426-59.906-99.309zm-52.48 201.2c-56.18 0-101.89-45.703-101.89-101.89 0-39.602 22.762-73.914 55.844-90.77 0.79297-0.1875 1.5117-0.51953 2.1211-1.0234 13.32-6.4023 28.184-10.098 43.926-10.098s30.605 3.6953 43.926 10.098c0.60938 0.50391 1.3281 0.83594 2.1211 1.0234 33.082 16.852 55.844 51.168 55.844 90.77 0 56.18-45.711 101.89-101.89 101.89z"/>
  <path d="m469.17 288.27c1.0352 1.1133 2.4414 1.6797 3.8477 1.6797 1.2734 0 2.5547-0.46094 3.5703-1.4023 2.125-1.9688 2.2578-5.2891 0.28516-7.4141l-20.277-21.895c-1.9727-2.1289-5.2969-2.2578-7.4141-0.28516-2.125 1.9688-2.2578 5.2891-0.28516 7.4141z"/>
 </g>
</svg>