<?xml version="1.0" encoding="UTF-8"?>
<!-- The Best Svg Icon site in the world: iconSvg.co, Visit us! https://iconsvg.co -->
<svg width="800px" height="800px" version="1.1" viewBox="144 144 512 512" xmlns="http://www.w3.org/2000/svg">
 <defs>
  <clipPath id="a">
   <path d="m148.09 148.09h503.81v503.81h-503.81z"/>
  </clipPath>
 </defs>
 <g clip-path="url(#a)">
  <path d="m203.2 462.98h15.742c4.3477 0 7.8711-3.5273 7.8711-7.875 0-4.3477-3.5234-7.8711-7.8711-7.8711h-15.742c-4.3477 0-7.875 3.5234-7.875 7.8711 0 4.3477 3.5273 7.875 7.875 7.875zm0-62.977h15.742c4.3477 0 7.8711-3.5273 7.8711-7.875s-3.5234-7.8711-7.8711-7.8711h-15.742c-4.3477 0-7.875 3.5234-7.875 7.8711s3.5273 7.875 7.875 7.875zm0 125.95h15.742v-0.003906c4.3477 0 7.8711-3.5234 7.8711-7.8711s-3.5234-7.8711-7.8711-7.8711h-15.742c-4.3477 0-7.875 3.5234-7.875 7.8711s3.5273 7.8711 7.875 7.8711zm213.5-69.461-8.832 8.832v-43.992c0-4.3477-3.5234-7.8711-7.8711-7.8711s-7.875 3.5234-7.875 7.8711v43.973l-8.832-8.832c-3.0859-2.9844-7.9961-2.9414-11.035 0.09375-3.0352 3.0391-3.0781 7.9492-0.09375 11.035l22.246 22.246v0.003906c1.4766 1.4805 3.4805 2.3125 5.5742 2.3125 2.0898 0 4.0938-0.83203 5.5703-2.3125l22.246-22.246v-0.003907c2.9844-3.0859 2.9414-7.9961-0.09375-11.035-3.0352-3.0352-7.9453-3.0781-11.035-0.09375zm195.84-135.21h-70.848v-86.59c0-10.441-4.1484-20.453-11.527-27.832-7.3828-7.3828-17.395-11.531-27.832-11.531h-7.875v-23.613c0-6.2656-2.4844-12.27-6.9141-16.699-4.4297-4.4297-10.438-6.918-16.699-6.918h-141.7c-6.2617 0-12.27 2.4883-16.695 6.918-4.4297 4.4297-6.918 10.434-6.918 16.699v23.613h-7.8711c-10.441 0-20.453 4.1484-27.832 11.531-7.3828 7.3789-11.531 17.391-11.531 27.832v86.59h-70.848c-10.438 0-20.449 4.1484-27.832 11.527-7.3789 7.3828-11.527 17.395-11.527 27.832v283.39c0 2.0859 0.82812 4.0898 2.3047 5.5664 1.4766 1.4766 3.4805 2.3047 5.5664 2.3047h488.07c2.0859 0 4.0898-0.82812 5.5664-2.3047 1.4766-1.4766 2.3047-3.4805 2.3047-5.5664v-283.39c0-10.438-4.1445-20.449-11.527-27.832-7.3828-7.3789-17.395-11.527-27.832-11.527zm-385.73 314.88h-31.488v-39.359c0-4.3477 3.5273-7.875 7.875-7.875h15.742c2.0898 0 4.0898 0.83203 5.5664 2.3086 1.4766 1.4766 2.3047 3.4766 2.3047 5.5664zm31.488 0h-15.742v-39.359c0-6.2656-2.4883-12.273-6.918-16.699-4.4297-4.4297-10.434-6.918-16.699-6.918h-15.742c-6.2656 0-12.273 2.4883-16.699 6.918-4.4297 4.4258-6.918 10.434-6.918 16.699v39.359h-15.746v-275.52c0-6.2617 2.4883-12.27 6.918-16.699 4.4297-4.4258 10.438-6.9141 16.699-6.9141h70.848zm62.977-464.45c0-4.3477 3.5234-7.875 7.8711-7.875h141.7c2.0859 0 4.0898 0.83203 5.5664 2.3086 1.4766 1.4766 2.3047 3.4766 2.3047 5.5664v23.613h-157.44zm70.848 464.45h-55.102v-86.594c0-6.2617 2.4883-12.27 6.9141-16.699 4.4297-4.4297 10.438-6.918 16.699-6.918h31.488zm70.852 0h-55.105v-110.21h31.488c6.2617 0 12.27 2.4883 16.699 6.918 4.4297 4.4297 6.918 10.438 6.918 16.699zm62.977 0h-47.234v-86.594c0-10.438-4.1484-20.449-11.527-27.832-7.3828-7.3789-17.395-11.527-27.832-11.527h-78.723c-10.438 0-20.449 4.1484-27.832 11.527-7.3789 7.3828-11.527 17.395-11.527 27.832v86.594h-47.23v-401.47c0-6.2656 2.4883-12.273 6.918-16.699 4.4258-4.4297 10.434-6.918 16.699-6.918h204.67c6.2617 0 12.27 2.4883 16.699 6.918 4.4258 4.4258 6.9141 10.434 6.9141 16.699zm78.719 0h-31.488v-39.359c0-4.3477 3.5234-7.875 7.8711-7.875h15.746c2.0859 0 4.0898 0.83203 5.5664 2.3086 1.4727 1.4766 2.3047 3.4766 2.3047 5.5664zm31.488 0h-15.746v-39.359c0-6.2656-2.4883-12.273-6.9141-16.699-4.4297-4.4297-10.438-6.918-16.699-6.918h-15.746c-6.2617 0-12.27 2.4883-16.699 6.918-4.4297 4.4258-6.918 10.434-6.918 16.699v39.359h-15.742v-299.14h70.848c6.2617 0 12.27 2.4883 16.699 6.9141 4.4297 4.4297 6.918 10.438 6.918 16.699zm-39.359-188.93h-15.746c-4.3477 0-7.8711 3.5234-7.8711 7.8711 0 4.3477 3.5234 7.875 7.8711 7.875h15.746c4.3477 0 7.8711-3.5273 7.8711-7.875 0-4.3477-3.5234-7.8711-7.8711-7.8711zm0-62.977h-15.746c-4.3477 0-7.8711 3.5234-7.8711 7.8711s3.5234 7.875 7.8711 7.875h15.746c4.3477 0 7.8711-3.5273 7.8711-7.875s-3.5234-7.8711-7.8711-7.8711zm-188.93-13.477h-15.746c-4.1758 0-8.1797-1.6602-11.133-4.6094-2.9492-2.9531-4.6094-6.957-4.6094-11.133 0-4.3477-3.5234-7.875-7.8711-7.875-4.3477 0-7.875 3.5273-7.875 7.875 0 8.3477 3.3203 16.359 9.2227 22.266 5.9062 5.9023 13.914 9.2227 22.266 9.2227v7.8711c0 4.3477 3.5273 7.8711 7.875 7.8711s7.8711-3.5234 7.8711-7.8711v-7.8711c11.25 0 21.645-6.0039 27.27-15.746 5.625-9.7422 5.625-21.746 0-31.488-5.625-9.7422-16.02-15.742-27.27-15.742h-15.746c-5.625 0-10.82-3.0039-13.633-7.875s-2.8125-10.871 0-15.742c2.8125-4.8711 8.0078-7.8711 13.633-7.8711h15.746c4.1758 0 8.1797 1.6562 11.133 4.6094s4.6094 6.957 4.6094 11.133c0 4.3477 3.5273 7.8711 7.875 7.8711 4.3477 0 7.8711-3.5234 7.8711-7.8711 0-8.3516-3.3164-16.359-9.2227-22.266s-13.914-9.2227-22.266-9.2227v-7.8711c0-4.3477-3.5234-7.8711-7.8711-7.8711s-7.875 3.5234-7.875 7.8711v7.8711c-11.25 0-21.645 6.0039-27.27 15.746-5.625 9.7422-5.625 21.746 0 31.488s16.02 15.742 27.27 15.742h15.746c5.625 0 10.82 3 13.633 7.8711s2.8125 10.875 0 15.746-8.0078 7.8711-13.633 7.8711zm2.1094-143.51c-35.996-3.3359-71.34 11.191-94.582 38.883-23.242 27.688-31.43 65.016-21.906 99.887 9.5234 34.875 35.543 62.863 69.633 74.895 4.0664 1.3281 8.4492-0.83594 9.8711-4.8711 1.418-4.0312-0.64062-8.4648-4.6445-9.9766-28.391-10.051-50.289-33.035-58.949-61.879-8.6641-28.844-3.0547-60.09 15.102-84.121 18.16-24.027 46.684-37.961 76.801-37.504 30.113 0.45703 58.203 15.246 75.625 39.812 17.422 24.566 22.082 55.969 12.551 84.539-9.5312 28.57-32.113 50.879-60.797 60.066-3.7148 1.168-6.0156 4.8711-5.418 8.7188s3.918 6.6797 7.8125 6.6641c0.80859 0 1.6172-0.125 2.3906-0.36328 32.559-10.387 58.453-35.285 70.109-67.41 11.652-32.121 7.7461-67.836-10.574-96.68-18.324-28.844-48.992-47.559-83.023-50.66zm186.82 282.94h-15.746c-4.3477 0-7.8711 3.5234-7.8711 7.8711s3.5234 7.8711 7.8711 7.8711h15.746c4.3477 0 7.8711-3.5234 7.8711-7.8711s-3.5234-7.8711-7.8711-7.8711z"/>
 </g>
</svg>