<?xml version="1.0" encoding="UTF-8"?>
<!-- The Best Svg Icon site in the world: iconSvg.co, Visit us! https://iconsvg.co -->
<svg width="800px" height="800px" version="1.1" viewBox="144 144 512 512" xmlns="http://www.w3.org/2000/svg">
 <defs>
  <clipPath id="a">
   <path d="m195 148.09h410v503.81h-410z"/>
  </clipPath>
 </defs>
 <g clip-path="url(#a)">
  <path d="m392.12 455.1h15.746c4.1758 0 8.1797 1.6602 11.133 4.6133s4.6094 6.957 4.6094 11.133c0 4.3477 3.5273 7.8711 7.875 7.8711 4.3477 0 7.8711-3.5234 7.8711-7.8711 0-8.3516-3.3164-16.359-9.2227-22.266s-13.914-9.2227-22.266-9.2227v-7.8711c0-4.3477-3.5234-7.875-7.8711-7.875s-7.875 3.5273-7.875 7.875v7.8711c-11.25 0-21.645 6-27.27 15.742-5.625 9.7422-5.625 21.746 0 31.488 5.625 9.7422 16.02 15.746 27.27 15.746h15.746c5.625 0 10.82 3 13.633 7.8711 2.8125 4.8711 2.8125 10.871 0 15.742-2.8125 4.8711-8.0078 7.875-13.633 7.875h-15.746c-4.1758 0-8.1797-1.6602-11.133-4.6133-2.9492-2.9531-4.6094-6.957-4.6094-11.133 0-4.3477-3.5234-7.8711-7.8711-7.8711-4.3477 0-7.875 3.5234-7.875 7.8711 0 8.3516 3.3203 16.359 9.2227 22.266 5.9062 5.9062 13.914 9.2227 22.266 9.2227v7.8711c0 4.3477 3.5273 7.875 7.875 7.875s7.8711-3.5273 7.8711-7.875v-7.8711c11.25 0 21.645-6 27.27-15.742 5.625-9.7422 5.625-21.746 0-31.488-5.625-9.7422-16.02-15.746-27.27-15.746h-15.746c-5.625 0-10.82-3-13.633-7.8711s-2.8125-10.871 0-15.742c2.8125-4.875 8.0078-7.875 13.633-7.875zm-157.44 149.57c-3.1836 0-6.0547 1.918-7.2734 4.8594s-0.54687 6.3281 1.707 8.5781c2.25 2.25 5.6367 2.9258 8.5781 1.707 2.9414-1.2188 4.8594-4.0898 4.8594-7.2734 0-2.0859-0.82812-4.0898-2.3047-5.5664-1.4766-1.4766-3.4805-2.3047-5.5664-2.3047zm0-236.16c-3.1836 0-6.0547 1.918-7.2734 4.8594s-0.54687 6.3281 1.707 8.5781c2.25 2.25 5.6367 2.9258 8.5781 1.707 2.9414-1.2188 4.8594-4.0898 4.8594-7.2734 0-2.0898-0.82812-4.0898-2.3047-5.5664-1.4766-1.4766-3.4805-2.3047-5.5664-2.3047zm330.62-31.488h-39.363v-62.977c0-45-24.004-86.578-62.973-109.08-38.973-22.5-86.984-22.5-125.95 0-38.973 22.5-62.977 64.078-62.977 109.08v62.977h-39.359c-10.441 0-20.453 4.1445-27.832 11.527-7.3828 7.3828-11.531 17.395-11.531 27.832v236.16c0 10.438 4.1484 20.449 11.531 27.832 7.3789 7.3828 17.391 11.527 27.832 11.527h330.62c10.438 0 20.449-4.1445 27.832-11.527 7.3789-7.3828 11.527-17.395 11.527-27.832v-236.16c0-10.438-4.1484-20.449-11.527-27.832-7.3828-7.3828-17.395-11.527-27.832-11.527zm-275.52-62.977c0-39.375 21.008-75.758 55.105-95.445 34.098-19.684 76.109-19.684 110.21 0 34.102 19.688 55.105 56.07 55.105 95.445v62.977h-220.42zm299.14 338.5c0 6.2617-2.4883 12.27-6.9141 16.699-4.4297 4.4297-10.438 6.918-16.699 6.918h-330.62c-6.2656 0-12.273-2.4883-16.699-6.918-4.4297-4.4297-6.918-10.438-6.918-16.699v-236.16c0-6.2656 2.4883-12.27 6.918-16.699 4.4258-4.4297 10.434-6.918 16.699-6.918h330.62c6.2617 0 12.27 2.4883 16.699 6.918 4.4258 4.4297 6.9141 10.434 6.9141 16.699zm-23.613-244.03c-3.1836 0-6.0547 1.918-7.2734 4.8594s-0.54687 6.3281 1.707 8.5781c2.25 2.25 5.6367 2.9258 8.5781 1.707 2.9414-1.2188 4.8594-4.0898 4.8594-7.2734 0-2.0898-0.82812-4.0898-2.3047-5.5664-1.4766-1.4766-3.4805-2.3047-5.5664-2.3047zm0 236.16c-3.1836 0-6.0547 1.918-7.2734 4.8594s-0.54687 6.3281 1.707 8.5781c2.25 2.25 5.6367 2.9258 8.5781 1.707 2.9414-1.2188 4.8594-4.0898 4.8594-7.2734 0-2.0859-0.82812-4.0898-2.3047-5.5664-1.4766-1.4766-3.4805-2.3047-5.5664-2.3047zm-165.31-212.55c-27.145 0-53.172 10.785-72.363 29.977-19.191 19.191-29.973 45.219-29.973 72.359 0 27.145 10.781 53.172 29.973 72.363 19.191 19.191 45.219 29.977 72.363 29.977 27.141 0 53.168-10.785 72.359-29.977 19.195-19.191 29.977-45.219 29.977-72.363-0.035157-27.129-10.828-53.141-30.012-72.324-19.184-19.184-45.195-29.977-72.324-30.012zm0 188.93c-22.969 0-44.992-9.1211-61.23-25.363-16.238-16.238-25.363-38.262-25.363-61.23 0-22.965 9.125-44.988 25.363-61.227 16.238-16.242 38.262-25.363 61.23-25.363 22.965 0 44.988 9.1211 61.227 25.363 16.242 16.238 25.363 38.262 25.363 61.227-0.027344 22.957-9.1602 44.965-25.395 61.199-16.23 16.234-38.238 25.367-61.195 25.395z"/>
 </g>
</svg>