<?xml version="1.0" encoding="UTF-8"?>
<!-- The Best Svg Icon site in the world: iconSvg.co, Visit us! https://iconsvg.co -->
<svg fill="#000000" width="800px" height="800px" version="1.1" viewBox="144 144 512 512" xmlns="http://www.w3.org/2000/svg">
 <g>
  <path d="m426.16 400c0 14.449-11.715 26.164-26.164 26.164-14.453 0-26.168-11.715-26.168-26.164 0-14.453 11.715-26.168 26.168-26.168 14.449 0 26.164 11.715 26.164 26.168"/>
  <path d="m342.7 437.39h49.953c-17.438-3.9375-30.633-18.965-30.633-37.391s13.195-33.457 30.633-37.391l-49.98-0.003906c-2.8477 10.824-12.543 19.484-25.332 21.605v31.555c12.789 2.0703 22.574 9.8164 25.359 21.625z"/>
  <path d="m437.97 400c0 18.426-13.195 33.457-30.633 37.391h49.98c2.8516-10.824 12.543-19.484 25.336-21.605v-31.586c-12.793-2.1289-22.238-10.77-25.059-21.594h-50.258c17.438 3.9375 30.633 18.965 30.633 37.395z"/>
  <path d="m297.66 456.09h204.67v-112.18h-204.67zm7.8711-77.246v0.003906c0.050782-3.25 2.6641-5.875 5.9102-5.9375 11.426-0.20703 19.832-6.9727 20.27-16.406 0.14062-3.1641 2.7305-5.668 5.8984-5.7031h125.05c3.1758 0.027344 5.7852 2.5234 5.9531 5.6992 0.44922 9.5859 8.4961 16.234 19.938 16.441v-0.003906c3.2422 0.050781 5.8555 2.6641 5.9102 5.9062v42.32c-0.050782 3.2461-2.6641 5.8711-5.9102 5.9375-11.426 0.20703-19.832 6.9727-20.27 16.406-0.14453 3.1602-2.7305 5.6602-5.8984 5.6953h-124.77c-3.1836-0.027344-5.793-2.5312-5.9531-5.707-0.4375-9.5781-8.5977-16.223-20.215-16.434h-0.003906c-3.2383-0.050782-5.8555-2.6641-5.9102-5.9023z"/>
  <path d="m400.6 241.75c-87.578 0-158.82 71.078-158.82 158.44 0 87.367 71.242 158.44 158.82 158.44 87.578 0 158.82-71.078 158.82-158.44s-71.246-158.44-158.82-158.44zm114.52 96.262v123.98c0 3.2578-2.6406 5.9023-5.9023 5.9023h-217.46c-3.2617 0-5.9023-2.6445-5.9023-5.9023v-123.98c0-3.2617 2.6406-5.9062 5.9023-5.9062h217.46c3.2617 0 5.9023 2.6445 5.9023 5.9062z"/>
  <path d="m636.66 394.09h-43.297c-3.0898-101.35-85.129-183.6-186.48-186.66v-43.492c0-3.2617-2.6445-5.9062-5.9023-5.9062-3.2617 0-5.9062 2.6445-5.9062 5.9062v43.492c-102.34 3.0664-184.15 85.312-187.24 186.66h-44.504c-3.2617 0-5.9023 2.6445-5.9023 5.9062 0 3.2578 2.6406 5.9023 5.9023 5.9023h44.504c3.0547 101.35 84.906 183.98 187.24 187.05v43.109c0 3.2617 2.6445 5.9062 5.9062 5.9062 3.2578 0 5.9023-2.6445 5.9023-5.9062v-43.109c101.35-3.0742 183.43-85.703 186.48-187.05h43.297c3.2617 0 5.9062-2.6445 5.9062-5.9023 0-3.2617-2.6445-5.9062-5.9062-5.9062zm-236.06 187.16c-99.836 0-181.05-81.223-181.05-181.05 0-99.836 81.223-181.05 181.05-181.05 99.836 0 181.05 81.223 181.05 181.05 0.003906 99.836-81.219 181.05-181.05 181.05z"/>
  <path d="m429.32 191.55c45.504 6.2812 87.707 27.258 120.19 59.738 32.48 32.48 53.457 74.688 59.734 120.19 0.40234 2.9219 2.8945 5.0938 5.8398 5.1016 0.26953-0.003906 0.54297-0.019531 0.8125-0.058593 3.2305-0.44531 5.4883-3.4258 5.043-6.6562-6.6289-48.051-28.781-92.625-63.082-126.93-34.297-34.301-78.867-56.453-126.92-63.086-3.2305-0.44531-6.2109 1.8125-6.6562 5.043-0.44531 3.2305 1.8125 6.2109 5.043 6.6562z"/>
  <path d="m371.89 608.82c-45.5-6.2773-87.703-27.254-120.18-59.73-32.48-32.48-53.457-74.684-59.734-120.18-0.20703-1.5625-1.0234-2.9727-2.2734-3.9258-1.25-0.95703-2.832-1.3711-4.3906-1.1562-1.5547 0.21484-2.9648 1.043-3.9102 2.3008-0.94531 1.2578-1.3477 2.8398-1.125 4.3945 6.6328 48.051 28.785 92.621 63.086 126.92 34.297 34.301 78.867 56.449 126.92 63.082 0.26953 0.035156 0.54297 0.054687 0.81641 0.054687 3.1055 0 5.6797-2.4023 5.8906-5.5039 0.21094-3.0977-2.0156-5.8281-5.0938-6.25z"/>
  <path d="m185.31 376.52c0.26953 0.039062 0.53906 0.054687 0.8125 0.058593 2.9453-0.003906 5.4414-2.1797 5.8438-5.1016 6.2773-45.5 27.254-87.707 59.734-120.18 32.477-32.48 74.684-53.457 120.18-59.734 3.2305-0.44531 5.4883-3.4258 5.043-6.6562-0.44531-3.2305-3.4258-5.4883-6.6562-5.043-48.051 6.6289-92.621 28.781-126.92 63.082-34.301 34.301-56.449 78.871-63.082 126.92-0.44531 3.2305 1.8125 6.2109 5.043 6.6562z"/>
  <path d="m430.11 620.58c0.27344 0 0.54688-0.019531 0.81641-0.054687 48.051-6.6289 92.621-28.781 126.92-63.082 34.301-34.301 56.449-78.871 63.082-126.92 0.23828-1.5625-0.16016-3.1562-1.1055-4.4219-0.94531-1.2695-2.3594-2.1016-3.9258-2.3203-1.5625-0.21484-3.1523 0.20703-4.4062 1.168-1.25 0.96484-2.0664 2.3906-2.2578 3.9609-6.2812 45.5-27.258 87.707-59.734 120.18-32.48 32.48-74.688 53.457-120.19 59.734-3.0742 0.42578-5.2969 3.1562-5.0859 6.25 0.21094 3.0977 2.7812 5.5 5.8828 5.5039z"/>
 </g>
</svg>