<?xml version="1.0" encoding="UTF-8"?>
<!-- The Best Svg Icon site in the world: iconSvg.co, Visit us! https://iconsvg.co -->
<svg fill="#000000" width="800px" height="800px" version="1.1" viewBox="144 144 512 512" xmlns="http://www.w3.org/2000/svg">
 <path d="m557.44 326.53c0.046875-38.039-13.68-74.805-38.641-103.51-24.965-28.699-59.473-47.395-97.148-52.625-37.672-5.2305-75.969 3.3555-107.8 24.172-31.836 20.812-55.062 52.449-65.383 89.062-10.316 36.609-7.0352 75.719 9.2461 110.09 16.277 34.379 44.453 61.699 79.316 76.914v16.27c-6.457 3.7266-10.453 10.598-10.496 18.051v20.992c0.039062 3.6992 1.0508 7.3203 2.9375 10.496-1.8867 3.1797-2.8984 6.8008-2.9375 10.496v20.992c0 5.5703 2.2109 10.91 6.1484 14.844 3.9375 3.9375 9.2734 6.1484 14.844 6.1484h10.496v10.496c0 8.3516 3.3164 16.363 9.2227 22.266 5.9023 5.9062 13.914 9.2227 22.266 9.2227h20.992c8.3516 0 16.359-3.3164 22.266-9.2227 5.9023-5.9023 9.2227-13.914 9.2227-22.266v-10.496h10.496c5.5664 0 10.906-2.2109 14.844-6.1484 3.9336-3.9336 6.1484-9.2734 6.1484-14.844v-20.992c-0.039062-3.6953-1.0547-7.3164-2.9414-10.496 1.8867-3.1758 2.9023-6.7969 2.9414-10.496v-20.992c-0.046875-7.4531-4.043-14.324-10.496-18.051v-16.27c27.98-12.328 51.797-32.5 68.559-58.074 16.766-25.574 25.762-55.457 25.902-86.035zm-293.89 0c-0.035156-33.328 12.129-65.52 34.199-90.496 22.066-24.973 52.516-41.008 85.594-45.078 33.078-4.0664 66.504 4.1133 93.969 22.996 27.461 18.887 47.062 47.168 55.105 79.512 8.0391 32.344 3.9648 66.516-11.457 96.062-15.426 29.543-41.129 52.422-72.262 64.32-4.0352 1.5586-6.7031 5.4336-6.7148 9.7617v20.359h-31.488v-104.96h20.992c2.7812 0 5.4531-1.1055 7.4219-3.0742 1.9648-1.9688 3.0742-4.6406 3.0742-7.4219v-41.984c0-2.7852-1.1094-5.4531-3.0742-7.4219-1.9688-1.9688-4.6406-3.0742-7.4219-3.0742h-52.48v-20.992h52.48c5.7969 0 10.496-4.6992 10.496-10.496s-4.6992-10.496-10.496-10.496h-20.992v-10.496c0-5.7969-4.6992-10.496-10.496-10.496s-10.496 4.6992-10.496 10.496v10.496h-20.992c-5.7969 0-10.496 4.6992-10.496 10.496v41.984c0 2.7812 1.1055 5.4531 3.0742 7.4219s4.6367 3.0742 7.4219 3.0742h52.48v20.992h-52.48c-5.7969 0-10.496 4.6992-10.496 10.496s4.6992 10.496 10.496 10.496h20.992v104.96h-31.488v-20.359c-0.015625-4.3281-2.6797-8.2031-6.7188-9.7617-25.73-9.9414-47.867-27.406-63.52-50.117-15.652-22.715-24.098-49.617-24.227-77.199zm188.93 199.42h-104.96v-20.992h104.96zm-31.488 73.473c0 2.7852-1.1094 5.4531-3.0742 7.4219-1.9688 1.9688-4.6406 3.0742-7.4219 3.0742h-20.992c-5.7969 0-10.496-4.6992-10.496-10.496v-10.496h41.984zm10.496-31.488h-83.969v-20.992h104.96v20.992z"/>
</svg>