<?xml version="1.0" encoding="UTF-8"?>
<!-- The Best Svg Icon site in the world: iconSvg.co, Visit us! https://iconsvg.co -->
<svg fill="#000000" width="800px" height="800px" version="1.1" viewBox="144 144 512 512" xmlns="http://www.w3.org/2000/svg">
 <g>
  <path d="m572.36 174.61h-344.71c-10.551 0-20.668 4.1914-28.125 11.648-7.4609 7.4609-11.652 17.578-11.652 28.125v66.289l-13.258 0.003906c-7.3203 0-13.258 5.9336-13.258 13.258v53.031c0 3.5156 1.3984 6.8906 3.8828 9.375 2.4883 2.4883 5.8594 3.8828 9.375 3.8828h13.258v39.773l-13.258 0.003906c-7.3203 0-13.258 5.9336-13.258 13.258v53.031c0 3.5156 1.3984 6.8906 3.8828 9.375 2.4883 2.4883 5.8594 3.8828 9.375 3.8828h13.258v66.293c0 10.547 4.1914 20.664 11.652 28.121 7.457 7.4609 17.574 11.652 28.125 11.652v39.773c0 3.5156 1.3945 6.8906 3.8828 9.375 2.4844 2.4883 5.8555 3.8828 9.375 3.8828h53.031c3.5156 0 6.8867-1.3945 9.375-3.8828 2.4844-2.4844 3.8828-5.8594 3.8828-9.375v-39.773h185.61v39.773c0 3.5156 1.3984 6.8906 3.8828 9.375 2.4883 2.4883 5.8594 3.8828 9.375 3.8828h53.035c3.5156 0 6.8867-1.3945 9.375-3.8828 2.4844-2.4844 3.8828-5.8594 3.8828-9.375v-39.773c10.547 0 20.664-4.1914 28.125-11.652 7.457-7.457 11.648-17.574 11.648-28.121v-331.46c0-10.547-4.1914-20.664-11.648-28.125-7.4609-7.457-17.578-11.648-28.125-11.648zm-384.49 132.58h53.035v26.516h-53.035zm79.551-53.031h265.16v251.9h-265.16zm-53.035 106.06h26.52v39.773l-26.52 0.003906zm-26.516 66.293h53.035v26.516h-53.035zm92.809 185.61h-26.516v-26.516h26.516zm265.16 0h-26.52v-26.516h26.516zm39.773-66.289c0 3.5156-1.3984 6.8867-3.8828 9.375-2.4883 2.4844-5.8594 3.8828-9.375 3.8828h-344.71c-7.3242 0-13.262-5.9375-13.262-13.258v-66.293h26.52v26.516c0 7.0352 2.793 13.777 7.7656 18.75 4.9727 4.9727 11.715 7.7656 18.75 7.7656h265.16c7.0352 0 13.777-2.793 18.75-7.7656s7.7695-11.715 7.7695-18.75v-251.9c0-7.0352-2.7969-13.777-7.7695-18.75s-11.715-7.7656-18.75-7.7656h-265.16c-7.0352 0-13.777 2.793-18.75 7.7656-4.9727 4.9727-7.7656 11.715-7.7656 18.75v26.516h-26.52v-66.293c0-7.3203 5.9375-13.258 13.262-13.258h344.71c3.5156 0 6.8867 1.3984 9.375 3.8828 2.4844 2.4883 3.8828 5.8594 3.8828 9.375z"/>
  <path d="m462.45 317.66c-2.4922-2.5078-5.8789-3.9219-9.4141-3.9219s-6.9258 1.4141-9.4141 3.9219l-7.1602 7.1602c-10.824-7.1289-23.5-10.926-36.457-10.926-12.961 0-25.637 3.7969-36.461 10.926l-7.1602-7.1602c-5.1992-5.1992-13.629-5.1992-18.828 0-5.1953 5.1992-5.1953 13.629 0 18.828l7.1602 7.1602c-7.1289 10.824-10.926 23.5-10.926 36.457 0 12.961 3.7969 25.637 10.926 36.461l-7.1602 7.1602c-2.5078 2.4883-3.918 5.8789-3.918 9.4141 0 3.5352 1.4102 6.9219 3.918 9.4141 2.4922 2.5078 5.8789 3.9219 9.4141 3.9219s6.9258-1.4141 9.4141-3.9219l7.1602-7.1602c10.824 7.1289 23.5 10.926 36.461 10.926 12.957 0 25.633-3.7969 36.457-10.926l7.1602 7.1602c2.4883 2.5078 5.8789 3.9219 9.4141 3.9219s6.9219-1.4141 9.4141-3.9219c2.5078-2.4922 3.9219-5.8789 3.9219-9.4141 0-3.5352-1.4141-6.9258-3.9219-9.4141l-7.1602-7.1602c7.1289-10.824 10.926-23.5 10.926-36.461 0-12.957-3.7969-25.633-10.926-36.457l7.1602-7.1602c2.5078-2.4883 3.9219-5.8789 3.9219-9.4141s-1.4141-6.9219-3.9219-9.4141zm-102.22 62.445c0-10.547 4.1914-20.664 11.652-28.121 7.457-7.4609 17.574-11.652 28.125-11.652 10.547 0 20.664 4.1914 28.125 11.652 7.457 7.457 11.648 17.574 11.648 28.121 0 10.551-4.1914 20.668-11.648 28.125-7.4609 7.4609-17.578 11.652-28.125 11.652-10.551 0-20.668-4.1914-28.125-11.652-7.4609-7.457-11.652-17.574-11.652-28.125z"/>
 </g>
</svg>