<?xml version="1.0" encoding="UTF-8"?>
<!-- The Best Svg Icon site in the world: iconSvg.co, Visit us! https://iconsvg.co -->
<svg fill="#000000" width="800px" height="800px" version="1.1" viewBox="144 144 512 512" xmlns="http://www.w3.org/2000/svg">
 <g>
  <path d="m499.43 169.09h-198.84c-14.473 0-26.238 11.777-26.238 26.238v409.34c0 14.465 11.766 26.238 26.238 26.238h198.85c14.473 0 26.238-11.777 26.238-26.238v-409.34c0-14.461-11.766-26.238-26.242-26.238zm-42.582 10.496c-4.3633 12.059-15.965 20.57-29.168 20.57h-55.324c-13.203 0-24.801-8.5234-29.18-20.57zm58.328 425.09c0 8.6797-7.0742 15.742-15.742 15.742h-198.85c-8.6797 0-15.742-7.0625-15.742-15.742v-409.34c0-8.6797 7.0625-15.742 15.742-15.742h31.707c4.7344 17.965 21.117 31.062 40.031 31.062h55.336c18.926 0 35.289-13.109 40.031-31.066h31.707c8.668 0 15.742 7.0625 15.742 15.742v409.34z"/>
  <path d="m429.71 337.03c-9.1406-4.0312-18.82-6.0781-28.738-6.0781-28.316 0-54.012 16.75-65.41 42.668-11.965 27.195-5.9414 58.484 14.852 79.254-5.9531 9.0469-14.137 16.352-23.859 21.223-2.1211 1.0703-3.2656 3.4219-2.793 5.7422 0.48438 2.3398 2.457 4.0508 4.8281 4.1875 1.375 0.09375 2.75 0.13672 4.125 0.13672 15.543 0 30.523-5.3516 42.531-15.113 8.2305 3.1797 16.848 4.7969 25.664 4.7969 28.316 0 53.992-16.742 65.402-42.645 7.6719-17.465 8.1016-36.883 1.207-54.664-6.9062-17.801-20.34-31.812-37.809-39.508zm-58.953 122.04c-6.4648 5.8164-14.105 10.023-22.316 12.395 5.1836-4.9141 9.6445-10.59 13.215-16.887 1.2266-2.1641 0.76562-4.8789-1.0898-6.5195-19.934-17.633-26.125-45.836-15.406-70.199 9.1719-20.855 29.23-34.594 51.766-36.098-0.74609 0.90234-1.25 2.0156-1.25 3.2852v8.4492c-2.3398 0.49219-4.6602 1.1875-6.8945 2.332-13.457 6.918-18.777 23.48-11.883 36.934 4.6289 9.0156 13.793 14.727 23.93 14.906 6.2656 0.10547 11.922 3.6328 14.789 9.2031 2.0469 4.0195 2.4336 8.5977 1.0508 12.898-1.3867 4.3125-4.3555 7.8203-8.3867 9.8672-8.3125 4.2617-18.547 0.96484-22.809-7.3281-1.3125-2.582-4.4922-3.6016-7.0625-2.2656-2.5703 1.3242-3.6016 4.4922-2.2656 7.0625 4.0391 7.8711 11.43 12.742 19.523 14.211v8.4492c0 1.2891 0.52344 2.457 1.3125 3.3594-7.0938-0.45312-14.012-2.0664-20.613-4.9766-1.8633-0.80859-4.0781-0.45313-5.6094 0.92187zm85.918-32.117c-9.1641 20.867-29.223 34.605-51.758 36.098 0.74609-0.90234 1.25-2.0039 1.25-3.2852v-8.4297c2.3633-0.49219 4.6719-1.207 6.9062-2.3711 6.5195-3.3477 11.336-9.0273 13.582-15.996s1.625-14.41-1.7109-20.93c-4.6289-9.0039-13.793-14.715-23.93-14.895-6.2656-0.10547-11.922-3.6328-14.777-9.1953-4.2617-8.3008-0.97656-18.535 7.3359-22.797 8.3008-4.2812 18.535-0.96484 22.797 7.3359 1.332 2.582 4.4922 3.5781 7.0742 2.2656 2.5625-1.3242 3.6016-4.4922 2.2656-7.0625-4.0508-7.8711-11.43-12.879-19.531-14.348v-8.3125c0-1.3125-0.52344-2.4648-1.3125-3.3789 7.1055 0.45312 14.023 2.0781 20.637 4.9844 14.883 6.5586 26.344 18.527 32.223 33.691 5.8867 15.18 5.5117 31.742-1.0508 46.625z"/>
 </g>
</svg>