<?xml version="1.0" encoding="UTF-8"?>
<!-- The Best Svg Icon site in the world: iconSvg.co, Visit us! https://iconsvg.co -->
<svg fill="#000000" width="800px" height="800px" version="1.1" viewBox="144 144 512 512" xmlns="http://www.w3.org/2000/svg">
 <g>
  <path d="m639.78 399.29c0-2.0859-0.83203-4.0898-2.3047-5.5664-1.4766-1.4766-3.4805-2.3047-5.5664-2.3047h-75.496c1.3047-4.2031 1.9414-8.5859 1.8906-12.988-0.89453-14.848-9.3398-28.203-22.367-35.379-13.031-7.1797-28.828-7.1797-41.855 0-13.031 7.1758-21.473 20.531-22.371 35.379-0.074219 4.6484 0.61719 9.2734 2.0469 13.695h-158.86 0.003906c-2.8281 0.050781-5.4141 1.6133-6.7695 4.0938-1.2656 2.5195-1.082 5.5234 0.47266 7.875 5.582 7.6602 6.8945 17.633 3.4922 26.48-3.4023 8.8477-11.059 15.371-20.336 17.32-9.2773 1.9492-18.91-0.9375-25.586-7.6719-5.25-5.2383-8.2188-12.34-8.2656-19.758 0.015625-5.6055 1.6875-11.082 4.8008-15.742 1.5312-2.3672 1.6797-5.3672 0.39453-7.8711-1.3711-2.5078-3.9922-4.0742-6.8516-4.0938h-86.594 0.003906c-4.2617 0.19531-7.6758 3.6094-7.8711 7.8711v230.26c0 2.0859 0.82812 4.0898 2.3047 5.5664 1.4766 1.4727 3.4766 2.3047 5.5664 2.3047h462.48c2.0859 0 4.0898-0.83203 5.5664-2.3047 1.4766-1.4766 2.3047-3.4805 2.3047-5.5664zm-153.19 8.582c2.8594-0.10938 5.4336-1.7578 6.7266-4.3086 1.2891-2.5547 1.0977-5.6055-0.50781-7.9727-3.3711-4.5664-5.2422-10.066-5.3516-15.742 0.019531-7.4336 2.9766-14.559 8.2266-19.824 5.25-5.2617 12.363-8.2383 19.797-8.2812 7.4141 0.019531 14.516 2.9688 19.766 8.2031 5.25 5.2344 8.2188 12.332 8.2578 19.742 0.019532 5.793-1.8008 11.445-5.1953 16.141-1.5586 2.3633-1.7305 5.3867-0.44141 7.9102 1.2852 2.5234 3.832 4.1641 6.6602 4.2891h80.293l0.003907 215.22h-215.3v-66.914c4 1.2422 8.1719 1.8516 12.359 1.8125 11.488-0.042969 22.492-4.6406 30.598-12.789 8.1016-8.1445 12.641-19.176 12.621-30.664-0.089843-11.785-4.7461-23.07-12.992-31.488-8.2109-8.0938-19.328-12.547-30.855-12.359-4.1367 0-8.2461 0.60938-12.203 1.8086v-64.551zm-200.97 55.891c11.559 0.042969 22.656-4.5312 30.828-12.703 8.1758-8.1719 12.746-19.27 12.703-30.828-0.035157-4.2031-0.72656-8.3711-2.043-12.359h65.574v77.383h-0.003907c0.054688 2.8906 1.6875 5.5195 4.2539 6.8477h0.47266c2.5195 1.2617 5.5195 1.082 7.8711-0.47266 4.6289-3.1953 10.117-4.9258 15.742-4.9609 6.3711 0.011719 12.551 2.1914 17.516 6.1875 4.9648 3.9922 8.4219 9.5547 9.8008 15.777 0.31641 1.6602 0.47656 3.3477 0.47266 5.0391 0.14062 7.3984-2.6953 14.543-7.8711 19.836-5.1758 5.1445-12.148 8.0781-19.445 8.1875-5.6367-0.18359-11.102-1.9883-15.742-5.1953-2.3672-1.6055-5.4219-1.7969-7.9727-0.50391-2.5508 1.2891-4.1992 3.8633-4.3086 6.7227v80.293h-216.25v-214.67h66.836c-1.0703 3.9766-1.5742 8.082-1.4961 12.199 0.039062 11.422 4.5859 22.367 12.648 30.461 8.0625 8.0898 18.988 12.676 30.41 12.758z"/>
  <path d="m628.29 380.71c-3.9805 0.035156-7.3555-2.9023-7.875-6.8477 0-2.4414-0.62891-4.8789-1.0234-7.3203 0.17969-3.75 2.9844-6.8516 6.6992-7.4102 3.7148-0.55469 7.3047 1.5938 8.5742 5.125 0 2.5977 0.70703 5.1953 1.0234 7.8711v0.003906c0.375 4.1875-2.6055 7.9297-6.7695 8.5zm-7.8711-37.629h-0.003907c-3.418-0.054687-6.4062-2.3164-7.3984-5.5859-0.62891-2.3633-1.418-4.7227-2.125-7.0859-1.25-2.0508-1.4961-4.5586-0.66406-6.8125 0.82813-2.2539 2.6406-4.0078 4.9219-4.7578 2.2812-0.75391 4.7812-0.42188 6.7852 0.89453 2.0078 1.3203 3.3047 3.4805 3.5195 5.875 0.86719 2.5195 1.6523 5.0391 2.3633 7.8711 1.082 4.0508-1.2031 8.2422-5.1953 9.5234-0.73047 0.10547-1.4688 0.12891-2.207 0.078125zm-13.699-35.895c-2.9375-0.039062-5.6055-1.707-6.9297-4.3281-1.1016-2.2031-2.2031-4.4102-3.3867-6.6133h0.003906c-0.99219-3.5703 0.64062-7.3516 3.918-9.0742 3.2812-1.7266 7.3203-0.92969 9.6992 1.9102 1.2578 2.3633 2.4414 4.7227 3.6211 7.0859 1.7656 3.8516 0.16406 8.4062-3.6211 10.312-0.96484 0.4375-2.0078 0.67969-3.0703 0.70703zm-19.289-33.141c-2.5039-0.039063-4.8438-1.2656-6.2969-3.3086l-4.4102-5.9844 0.003906 0.003906c-1.9023-1.5234-2.9961-3.8398-2.9531-6.2734 0.039062-2.4375 1.2031-4.7188 3.1523-6.1758 1.9492-1.4609 4.4648-1.9336 6.8164-1.2852 2.3477 0.64844 4.2617 2.3477 5.1836 4.6016l4.6445 6.375c1.4766 2.3477 1.6094 5.2969 0.35156 7.7656-1.2617 2.4688-3.7266 4.0977-6.4922 4.2812zm-24.719-29.441h0.003906c-1.9609 0.042969-3.8594-0.69531-5.2773-2.0469l-5.3516-5.1953c-2.0508-1.2227-3.4336-3.3125-3.7656-5.6758-0.32812-2.3672 0.43359-4.75 2.0742-6.4883 1.6367-1.7383 3.9766-2.6367 6.3555-2.4453s4.543 1.4531 5.8828 3.4297l5.668 5.5898c2.9023 3.0391 2.9023 7.8242 0 10.863-1.5078 1.418-3.5156 2.1797-5.5859 2.125zm-28.887-24.719c-1.5938 0-3.1445-0.52734-4.4102-1.4961l-6.1406-4.25c-2.4961-2.668-2.8281-6.7031-0.80078-9.7461 2.0273-3.0391 5.8789-4.2852 9.3047-3.0078 2.2031 1.4961 4.4102 2.9922 6.5352 4.5664h-0.003906c3.3633 2.5156 4.1602 7.2266 1.8125 10.707-1.4688 2.0117-3.8047 3.207-6.2969 3.2266zm-33.301-19.758c-1.168-0.027344-2.3203-0.29688-3.3828-0.78906l-6.7695-3.2266c-2.9492-2.2109-3.9727-6.168-2.4609-9.5273 1.5078-3.3594 5.1484-5.2227 8.7578-4.4844l7.2422 3.3867v-0.003906c3.7266 1.9609 5.25 6.5039 3.4609 10.312-1.3047 2.5977-3.9414 4.2617-6.8477 4.332zm-193.81-4.8047c-3.4883-0.27344-6.375-2.8203-7.0859-6.2461-0.71094-3.4258 0.92578-6.9102 4.0156-8.5508l7.3984-2.9922c3.6055-0.49609 7.0781 1.5391 8.4062 4.9219 1.3281 3.3867 0.16406 7.2422-2.8164 9.3281l-6.8477 3.5391c-1.0117 0.20312-2.0586 0.20312-3.0703 0zm157.99-9.207c-0.73438 0.074218-1.4727 0.074218-2.2031 0l-7.4023-2.3633c-4.043-1.1484-6.4688-5.2734-5.5078-9.3672 1.1484-4.082 5.3242-6.5195 9.4453-5.5117l7.8711 2.125c3.3438 1.375 5.3203 4.8438 4.8008 8.418-0.52344 3.5742-3.4102 6.3359-7.0039 6.6992zm-121.62-2.8359c-3.5391-0.49609-6.3008-3.3125-6.7227-6.8594-0.42578-3.5469 1.5898-6.9375 4.9141-8.2539l7.8711-1.8125c3.6836 0.054687 6.8359 2.6523 7.5938 6.2578 0.75391 3.6055-1.0938 7.2539-4.4453 8.7773l-7.3984 1.6562zm83.996-5.0391h-0.86719l-7.3984-0.78906v0.003906c-2.3555 0.28125-4.7109-0.51172-6.4141-2.1602-1.7031-1.6484-2.5742-3.9766-2.3672-6.3398 0.20312-2.3633 1.4648-4.5078 3.4297-5.8359 1.9609-1.3281 4.4219-1.7031 6.6914-1.0156l7.8711 0.86719c4.2344 0.60938 7.207 4.4883 6.6914 8.7383-0.64453 3.7305-3.8516 6.4727-7.6367 6.5312zm-46.051-1.0234c-3.6211-0.67578-6.2852-3.7734-6.418-7.4531-0.12891-3.6797 2.3047-6.9609 5.8672-7.8945 2.5977 0 5.2734-0.39453 7.8711-0.47266 4.3477-0.17578 8.0117 3.207 8.1875 7.5547 0.17188 4.3477-3.2109 8.0156-7.5586 8.1875-2.4414 0-4.9609 0-7.3984 0.47266z"/>
  <path d="m169.98 375.44h-1.0234c-4.1992-0.64844-7.1289-4.5156-6.6094-8.7383 0.39453-2.5977 0.78906-5.1953 1.2578-7.8711-0.14062-2.3984 0.82422-4.7266 2.6133-6.3281 1.7891-1.5977 4.2109-2.293 6.5781-1.8867 2.3672 0.40625 4.418 1.8711 5.5703 3.9766 1.1562 2.1055 1.2852 4.6211 0.35156 6.8359-0.39453 2.4414-0.78906 4.8789-1.1016 7.3203-0.57422 3.793-3.8008 6.6211-7.6367 6.6914zm8.4219-37.473 0.003906 0.003906c-0.75781 0.10938-1.5273 0.10938-2.2852 0-4.0078-1.3516-6.2305-5.6289-5.0391-9.6836 0.78906-2.5195 1.6523-5.0391 2.5195-7.8711 1.4805-3.9648 5.8242-6.0508 9.8398-4.7266 3.8906 1.5117 5.9297 5.793 4.6445 9.7617l-2.3633 7.0859h0.003906c-1.0391 3.1836-3.9727 5.3633-7.3203 5.4336z"/>
  <path d="m231.46 172.97c-18.922-0.019531-37.078 7.4805-50.473 20.852-13.391 13.371-20.918 31.52-20.926 50.441-0.007813 18.926 7.5078 37.078 20.891 50.461 13.383 13.379 31.531 20.895 50.457 20.887s37.07-7.5352 50.441-20.926 20.875-31.547 20.852-50.473c-0.019531-18.887-7.5312-36.996-20.887-50.352s-31.465-20.871-50.355-20.891zm0 127.13c-14.82 0-29.039-5.8867-39.52-16.371-10.48-10.48-16.371-24.695-16.371-39.52 0-14.824 5.8906-29.039 16.371-39.52 10.48-10.484 24.699-16.371 39.52-16.371 14.824 0 29.039 5.8867 39.523 16.371 10.48 10.48 16.371 24.695 16.371 39.52-0.023437 14.816-5.918 29.02-16.395 39.5-10.477 10.477-24.68 16.371-39.5 16.391z"/>
  <path d="m247.99 223.11-23.617 26.371-9.918-8.6602v0.003906c-3.2578-1.8906-7.4023-1.2031-9.8789 1.6367-2.4766 2.8398-2.5898 7.0391-0.27344 10.012l15.43 13.699c3.1914 2.6758 7.9219 2.4023 10.785-0.63281l28.891-31.961h-0.003906c1.8398-3.2109 1.1953-7.2695-1.5508-9.75-2.7461-2.4844-6.8516-2.7148-9.8633-0.55859z"/>
 </g>
</svg>