<?xml version="1.0" encoding="UTF-8"?>
<!-- The Best Svg Icon site in the world: iconSvg.co, Visit us! https://iconsvg.co -->
<svg width="800px" height="800px" version="1.1" viewBox="144 144 512 512" xmlns="http://www.w3.org/2000/svg">
 <defs>
  <clipPath id="a">
   <path d="m148.09 305h503.81v295h-503.81z"/>
  </clipPath>
 </defs>
 <g clip-path="url(#a)">
  <path d="m620.41 305.54h-94.465v20.992h94.465c2.7852 0 5.4531 1.1055 7.4219 3.0742s3.0742 4.6367 3.0742 7.4219v230.91c0 2.7852-1.1055 5.4531-3.0742 7.4219s-4.6367 3.0742-7.4219 3.0742h-440.83c-5.7969 0-10.496-4.6992-10.496-10.496v-230.91c0-5.7969 4.6992-10.496 10.496-10.496h94.465v-20.992h-94.465c-8.3516 0-16.359 3.3164-22.266 9.2227-5.9062 5.9023-9.2227 13.914-9.2227 22.266v230.91c0 8.3516 3.3164 16.363 9.2227 22.266 5.9062 5.9062 13.914 9.2227 22.266 9.2227h440.83c8.3516 0 16.363-3.3164 22.266-9.2227 5.9062-5.9023 9.2227-13.914 9.2227-22.266v-230.91c0-8.3516-3.3164-16.363-9.2227-22.266-5.9023-5.9062-13.914-9.2227-22.266-9.2227z"/>
 </g>
 <path d="m242.56 546.94c0 2.7852 1.1055 5.4531 3.0742 7.4219s4.6367 3.0742 7.4219 3.0742h52.48v-20.992h-42.855c-2.2031-12.883-8.3516-24.77-17.594-34.012-9.2461-9.2461-21.129-15.395-34.016-17.594v-64.719c12.887-2.2031 24.77-8.3516 34.016-17.598 9.2422-9.2422 15.391-21.129 17.594-34.012h11.367v-20.992h-20.992c-5.7969 0-10.496 4.6992-10.496 10.496 0 11.133-4.4258 21.812-12.297 29.688-7.875 7.8711-18.555 12.297-29.688 12.297-5.7969 0-10.496 4.6992-10.496 10.496v83.969-0.003906c0 2.7852 1.1055 5.457 3.0742 7.4219 1.9688 1.9688 4.6367 3.0742 7.4219 3.0742 11.133 0 21.812 4.4258 29.688 12.297 7.8711 7.875 12.297 18.555 12.297 29.688z"/>
 <path d="m557.44 358.02c0-2.7852-1.1055-5.4531-3.0742-7.4219s-4.6367-3.0742-7.4219-3.0742h-20.992v20.992h11.367c2.2031 12.883 8.3516 24.77 17.598 34.012 9.2422 9.2461 21.129 15.395 34.012 17.598v64.719c-12.883 2.1992-24.77 8.3477-34.012 17.594-9.2461 9.2422-15.395 21.129-17.598 34.012h-42.855v20.992h52.48c2.7852 0 5.4531-1.1055 7.4219-3.0742s3.0742-4.6367 3.0742-7.4219c0-11.133 4.4258-21.812 12.297-29.688 7.875-7.8711 18.555-12.297 29.688-12.297 2.7852 0 5.4531-1.1055 7.4219-3.0742 1.9688-1.9648 3.0742-4.6367 3.0742-7.4219v-83.965c0-2.7852-1.1055-5.4531-3.0742-7.4219s-4.6367-3.0742-7.4219-3.0742c-11.133 0-21.812-4.4258-29.688-12.297-7.8711-7.875-12.297-18.555-12.297-29.688z"/>
 <path d="m190.08 347.52h20.992v20.992h-20.992z"/>
 <path d="m588.93 347.52h20.992v20.992h-20.992z"/>
 <path d="m588.93 536.45h20.992v20.992h-20.992z"/>
 <path d="m190.08 536.45h20.992v20.992h-20.992z"/>
 <path d="m295.04 236.41v216.07c0 37.496 20.004 72.148 52.48 90.898 32.473 18.746 72.484 18.746 104.96 0 32.473-18.75 52.477-53.402 52.477-90.898v-216.07l34.562 34.562 14.84-14.84-52.48-52.48h0.003906c-4.0977-4.0977-10.742-4.0977-14.84 0l-52.48 52.48 14.84 14.84 34.562-34.562v216.07c0 29.996-16.004 57.719-41.98 72.719-25.98 14.996-57.988 14.996-83.969 0-25.98-15-41.984-42.723-41.984-72.719v-216.07l34.562 34.562 14.84-14.84-52.48-52.48c-4.0977-4.0977-10.742-4.0977-14.84 0l-52.48 52.48 14.84 14.84z"/>
 <path d="m358.02 400v20.992c0 5.5664 2.2109 10.906 6.1484 14.844 3.9336 3.9336 9.2734 6.1484 14.844 6.1484h41.984v20.992h-41.984v-10.496h-20.992v10.496c0 5.5664 2.2109 10.906 6.1484 14.84 3.9336 3.9375 9.2734 6.1484 14.844 6.1484h10.496v20.992h20.992v-20.992h10.496c5.5664 0 10.906-2.2109 14.844-6.1484 3.9336-3.9336 6.1484-9.2734 6.1484-14.84v-20.992c0-5.5703-2.2148-10.91-6.1484-14.844-3.9375-3.9375-9.2773-6.1484-14.844-6.1484h-41.984v-20.992h41.984v10.496h20.992v-10.496c0-5.5703-2.2148-10.91-6.1484-14.844-3.9375-3.9375-9.2773-6.1484-14.844-6.1484h-10.496v-20.992h-20.992v20.992h-10.496c-5.5703 0-10.91 2.2109-14.844 6.1484-3.9375 3.9336-6.1484 9.2734-6.1484 14.844z"/>
 <path d="m389.5 305.54h20.992v20.992h-20.992z"/>
 <path d="m431.49 305.54h20.992v20.992h-20.992z"/>
 <path d="m347.52 305.54h20.992v20.992h-20.992z"/>
</svg>