<?xml version="1.0" encoding="UTF-8"?>
<!-- The Best Svg Icon site in the world: iconSvg.co, Visit us! https://iconsvg.co -->
<svg fill="#000000" width="800px" height="800px" version="1.1" viewBox="144 144 512 512" xmlns="http://www.w3.org/2000/svg">
 <g>
  <path d="m588.93 462.98h-118.08v-7.875c0.027344-6.1211-2.3359-12.016-6.5859-16.422-4.25-4.4102-10.055-6.9883-16.176-7.1836-6.1211-0.19531-12.074 2.0039-16.598 6.1289-4.293-3.9453-9.9141-6.1406-15.746-6.1406-5.832 0-11.453 2.1953-15.742 6.1406-4.293-3.9453-9.9141-6.1406-15.746-6.1406-5.832 0-11.453 2.1953-15.742 6.1406-4.5273-4.125-10.48-6.3242-16.602-6.1289-6.1211 0.19531-11.922 2.7734-16.172 7.1836-4.2539 4.4062-6.6133 10.301-6.5898 16.422v7.8711l-118.08 0.003906c-16.875 0-32.469 9-40.906 23.613-8.4375 14.613-8.4375 32.621 0 47.234s24.031 23.613 40.906 23.613h78.719v23.617c0 1.7031 0.55469 3.3594 1.5742 4.7227l22.043 29.387v13.125c0 4.3477 3.5234 7.8711 7.8711 7.8711s7.8711-3.5234 7.8711-7.8711v-15.746c0-1.7031-0.55078-3.3594-1.5742-4.7227l-22.039-29.387v-76.098h7.8711c4.1758 0 8.1797 1.6562 11.133 4.6094 2.9531 2.9531 4.6094 6.957 4.6094 11.133v55.105c0 4.3477 3.5273 7.8711 7.875 7.8711 4.3477 0 7.8711-3.5234 7.8711-7.8711v-15.746h110.21v21.758l-14.957 29.828c-0.53125 1.0977-0.80078 2.3008-0.78516 3.5195v15.746c0 4.3477 3.5234 7.8711 7.8711 7.8711 4.3477 0 7.8711-3.5234 7.8711-7.8711v-13.887l14.957-29.828c0.53125-1.0977 0.80078-2.3008 0.78906-3.5195v-23.617h118.08c16.875 0 32.469-9 40.906-23.613s8.4375-32.621 0-47.234c-8.4375-14.613-24.031-23.613-40.906-23.613zm-141.7-15.746c2.0898 0 4.0898 0.82812 5.5664 2.3047 1.4766 1.4766 2.3047 3.4805 2.3047 5.5664v47.234c0 4.3477-3.5234 7.8711-7.8711 7.8711-4.3477 0-7.8711-3.5234-7.8711-7.8711v-47.234c0-4.3477 3.5234-7.8711 7.8711-7.8711zm-31.488 0c2.0898 0 4.0898 0.82812 5.5664 2.3047 1.4766 1.4766 2.3047 3.4805 2.3047 5.5664v47.234c0 4.3477-3.5234 7.8711-7.8711 7.8711-4.3477 0-7.8711-3.5234-7.8711-7.8711v-47.234c0-4.3477 3.5234-7.8711 7.8711-7.8711zm-31.488 0c2.0898 0 4.0898 0.82812 5.5664 2.3047 1.4766 1.4766 2.3047 3.4805 2.3047 5.5664v47.234c0 4.3477-3.5234 7.8711-7.8711 7.8711s-7.8711-3.5234-7.8711-7.8711v-47.234c0-4.3477 3.5234-7.8711 7.8711-7.8711zm-39.359 7.8711c0-4.3477 3.5234-7.8711 7.8711-7.8711s7.8711 3.5234 7.8711 7.8711v47.234c0 4.3477-3.5234 7.8711-7.8711 7.8711s-7.8711-3.5234-7.8711-7.8711zm-31.488 31.488h-15.742c-4.3477 0-7.875 3.5234-7.875 7.8711v47.23l-78.719 0.003906c-11.25 0-21.645-6.0039-27.27-15.746-5.625-9.7422-5.625-21.742 0-31.488 5.625-9.7422 16.02-15.742 27.27-15.742h118.08v12.25c-4.7617-2.8359-10.199-4.3438-15.742-4.3789zm31.488 37.91v0.003906c3.9883 1.4844 8.3086 1.8281 12.48 0.99219 4.1719-0.83203 8.0273-2.8125 11.137-5.7188 4.2891 3.9492 9.9102 6.1406 15.742 6.1406 5.832 0 11.453-2.1914 15.746-6.1406 4.2891 3.9492 9.9102 6.1406 15.742 6.1406 5.832 0 11.453-2.1914 15.746-6.1406 4.5195 4.125 10.473 6.3242 16.59 6.1328 6.1172-0.19531 11.914-2.7656 16.168-7.168 4.25-4.4023 6.6211-10.289 6.6016-16.406v-23.617h82.969c-7.8008 8.6328-12.121 19.852-12.121 31.488s4.3203 22.855 12.121 31.488h-208.92zm244.03 17.195c-8.3516 0-16.359-3.3164-22.266-9.2227-5.9023-5.9062-9.2227-13.914-9.2227-22.266 0-8.3516 3.3203-16.359 9.2227-22.266 5.9062-5.9062 13.914-9.2227 22.266-9.2227 8.3516 0 16.363 3.3164 22.266 9.2227 5.9062 5.9062 9.2227 13.914 9.2227 22.266 0 8.3516-3.3164 16.359-9.2227 22.266-5.9023 5.9062-13.914 9.2227-22.266 9.2227z"/>
  <path d="m588.93 502.34c4.3477 0 7.875-3.5273 7.875-7.875 0-4.3477-3.5273-7.8711-7.875-7.8711-8.4375 0-16.23 4.5039-20.449 11.809-4.2188 7.3086-4.2188 16.309 0 23.617 4.2188 7.3047 12.012 11.809 20.449 11.809 4.3477 0 7.875-3.5273 7.875-7.875 0-4.3477-3.5273-7.8711-7.875-7.8711-4.3477 0-7.8711-3.5234-7.8711-7.8711 0-4.3477 3.5234-7.8711 7.8711-7.8711z"/>
  <path d="m407.87 352.77h-15.746c-4.3477 0-7.8711-3.5234-7.8711-7.8711 0-4.3477-3.5234-7.8711-7.8711-7.8711-4.3477 0-7.8711 3.5234-7.8711 7.8711 0 6.2617 2.4883 12.27 6.9141 16.699 4.4297 4.4297 10.438 6.918 16.699 6.918v7.8711c0 4.3477 3.5273 7.8711 7.875 7.8711s7.8711-3.5234 7.8711-7.8711v-7.8711c8.4375 0 16.234-4.5039 20.453-11.809 4.2188-7.3086 4.2188-16.309 0-23.617-4.2188-7.3047-12.016-11.809-20.453-11.809h-15.746c-4.3477 0-7.8711-3.5234-7.8711-7.8711s3.5234-7.8711 7.8711-7.8711h15.746c2.0859 0 4.0898 0.82812 5.5664 2.3047 1.4766 1.4766 2.3047 3.4805 2.3047 5.5664 0 4.3477 3.5234 7.8711 7.8711 7.8711 4.3477 0 7.875-3.5234 7.875-7.8711 0-6.2617-2.4883-12.27-6.918-16.699-4.4297-4.4297-10.438-6.918-16.699-6.918v-7.8711c0-4.3477-3.5234-7.8711-7.8711-7.8711s-7.875 3.5234-7.875 7.8711v7.8711c-8.4375 0-16.23 4.5039-20.449 11.809-4.2188 7.3086-4.2188 16.309 0 23.617 4.2188 7.3047 12.012 11.809 20.449 11.809h15.746c4.3477 0 7.8711 3.5234 7.8711 7.8711 0 4.3477-3.5234 7.8711-7.8711 7.8711z"/>
  <path d="m549.57 384.25h-15.742c-4.3477 0-7.875-3.5234-7.875-7.8711 0-4.3477-3.5234-7.8711-7.8711-7.8711s-7.8711 3.5234-7.8711 7.8711c0 6.2617 2.4883 12.27 6.918 16.699 4.4258 4.4297 10.434 6.918 16.699 6.918v7.8711c0 4.3477 3.5234 7.8711 7.8711 7.8711 4.3477 0 7.8711-3.5234 7.8711-7.8711v-7.8711c8.4375 0 16.234-4.5039 20.453-11.809 4.2188-7.3086 4.2188-16.309 0-23.617-4.2188-7.3086-12.016-11.809-20.453-11.809h-15.742c-4.3477 0-7.875-3.5234-7.875-7.8711 0-4.3477 3.5273-7.8711 7.875-7.8711h15.742c2.0898 0 4.0898 0.82812 5.5664 2.3047 1.4766 1.4766 2.3047 3.4766 2.3047 5.5664 0 4.3477 3.5273 7.8711 7.875 7.8711s7.8711-3.5234 7.8711-7.8711c0-6.2617-2.4883-12.27-6.918-16.699-4.4297-4.4297-10.434-6.918-16.699-6.918v-7.8711c0-4.3477-3.5234-7.8711-7.8711-7.8711-4.3477 0-7.8711 3.5234-7.8711 7.8711v7.8711c-8.4375 0-16.234 4.5039-20.453 11.809-4.2188 7.3086-4.2188 16.309 0 23.617 4.2188 7.3047 12.016 11.809 20.453 11.809h15.742c4.3477 0 7.8711 3.5234 7.8711 7.8711 0 4.3477-3.5234 7.8711-7.8711 7.8711z"/>
  <path d="m250.43 337.02h15.746c2.0859 0 4.0898 0.82812 5.5664 2.3047 1.4727 1.4766 2.3047 3.4766 2.3047 5.5664 0 4.3477 3.5234 7.8711 7.8711 7.8711 4.3477 0 7.8711-3.5234 7.8711-7.8711 0-6.2617-2.4883-12.27-6.9141-16.699-4.4297-4.4297-10.438-6.918-16.699-6.918v-7.8711c0-4.3477-3.5273-7.8711-7.875-7.8711-4.3477 0-7.8711 3.5234-7.8711 7.8711v7.8711c-8.4375 0-16.234 4.5039-20.453 11.809-4.2188 7.3086-4.2188 16.309 0 23.617 4.2188 7.3047 12.016 11.809 20.453 11.809h15.746c4.3477 0 7.8711 3.5234 7.8711 7.8711 0 4.3477-3.5234 7.8711-7.8711 7.8711h-15.746c-4.3477 0-7.8711-3.5234-7.8711-7.8711 0-4.3477-3.5234-7.8711-7.8711-7.8711s-7.875 3.5234-7.875 7.8711c0 6.2617 2.4883 12.27 6.918 16.699 4.4297 4.4297 10.438 6.918 16.699 6.918v7.8711c0 4.3477 3.5234 7.8711 7.8711 7.8711 4.3477 0 7.875-3.5234 7.875-7.8711v-7.8711c8.4336 0 16.23-4.5039 20.449-11.809 4.2188-7.3086 4.2188-16.309 0-23.617-4.2188-7.3086-12.016-11.809-20.449-11.809h-15.746c-4.3477 0-7.8711-3.5234-7.8711-7.8711 0-4.3477 3.5234-7.8711 7.8711-7.8711z"/>
  <path d="m587.9 278.69c3.9688-2.5898 6.8633-6.5273 8.1562-11.086 1.2891-4.5586 0.89062-9.4297-1.1289-13.715-2.0195-4.2852-5.5234-7.6953-9.8594-9.6016l18.734-37.551v0.003907c1.2266-2.4375 1.1055-5.3359-0.32031-7.6641-1.4258-2.3242-3.957-3.7422-6.6836-3.7539h-23.617c-2.0859 0.015625-4.0898 0.83594-5.5898 2.2852l-10.156 10.234-10.156-10.234h0.003906c-1.5039-1.4492-3.5039-2.2695-5.5898-2.2852h-55.105c-2.7266 0.011719-5.2578 1.4297-6.6836 3.7539-1.4297 2.3281-1.5508 5.2266-0.32031 7.6641l18.734 37.551v-0.003907c-4.3281 1.8984-7.8242 5.293-9.8477 9.5625-2.0195 4.2695-2.4336 9.125-1.1602 13.676 1.2734 4.5508 4.1484 8.4844 8.0938 11.086-5.2539 4.6094-10.102 9.6641-14.484 15.113-8.4258-17.625-20.219-33.43-34.715-46.523 3.9688-2.5898 6.8633-6.5273 8.1562-11.086 1.2891-4.5586 0.88672-9.4297-1.1328-13.715s-5.5195-7.6953-9.8555-9.6016l18.734-37.551v0.003906c1.2266-2.4375 1.1055-5.3359-0.32031-7.6602-1.4297-2.3281-3.957-3.7461-6.6875-3.7578h-23.613c-2.0898 0.015624-4.0898 0.83594-5.5898 2.2852l-10.156 10.234-10.156-10.234c-1.5-1.4492-3.5-2.2695-5.5859-2.2852h-55.105c-2.7305 0.011718-5.2578 1.4297-6.6836 3.7578-1.4297 2.3242-1.5508 5.2227-0.32422 7.6602l18.734 37.551 0.003906-0.003907c-4.3398 1.9062-7.8398 5.3164-9.8594 9.6016s-2.4219 9.1562-1.1289 13.715c1.2891 4.5586 4.1875 8.4961 8.1523 11.086-14.441 13.141-26.227 28.938-34.715 46.523-4.4023-5.4297-9.2461-10.484-14.484-15.113 3.9453-2.6016 6.8203-6.5352 8.0938-11.086 1.2734-4.5508 0.85938-9.4062-1.1602-13.676-2.0234-4.2695-5.5195-7.6641-9.8477-9.5625l18.734-37.551 0.003906 0.003907c1.2266-2.4375 1.1055-5.3359-0.32422-7.6641-1.4258-2.3242-3.957-3.7422-6.6836-3.7539h-23.617c-2.0859 0.015625-4.0859 0.83594-5.5898 2.2852l-10.152 10.234-10.156-10.234c-1.5-1.4492-3.5-2.2695-5.5898-2.2852h-55.102c-2.7305 0.011719-5.2578 1.4297-6.6875 3.7539-1.4258 2.3281-1.5469 5.2266-0.32031 7.6641l18.734 37.551v-0.003907c-4.3359 1.9062-7.8359 5.3164-9.8555 9.6016-2.0195 4.2852-2.4219 9.1562-1.1328 13.715 1.293 4.5586 4.1875 8.4961 8.1562 11.086-27 23.852-48.258 65.102-48.258 97.691 0 48.965 47.469 70.848 94.465 70.848 33.457 0 72.578-11.414 87.93-42.508h0.003906c16.93 7.4688 35.262 11.227 53.766 11.02 18.504 0.23437 36.844-3.5273 53.766-11.02 15.348 31.094 54.473 42.508 87.93 42.508 46.996 0 94.465-21.883 94.465-70.848 0-32.59-21.254-73.84-48.258-97.691zm-49.434-67.621 13.383 13.461c3.0938 3.0703 8.082 3.0703 11.176 0l13.383-13.461h7.6367l-15.742 31.488h-53.219l-15.742-31.488zm42.586 51.168c0 1.043-0.41406 2.043-1.1523 2.7812-0.73828 0.73828-1.7383 1.1562-2.7852 1.1562h-70.848c-2.1719 0-3.9336-1.7656-3.9336-3.9375 0-2.1758 1.7617-3.9375 3.9336-3.9375h70.848c1.0469 0 2.0469 0.41406 2.7852 1.1523 0.73828 0.73828 1.1523 1.7422 1.1523 2.7852zm-184.29-82.656 13.383 13.461c3.0938 3.0703 8.0859 3.0703 11.18 0l13.383-13.461h7.6367l-15.742 31.488h-53.219l-15.742-31.488zm42.59 51.168c0 1.043-0.41406 2.0469-1.1523 2.7812-0.73828 0.73828-1.7422 1.1562-2.7852 1.1562h-70.848c-2.1719 0-3.9375-1.7656-3.9375-3.9375s1.7656-3.9375 3.9375-3.9375h70.848c1.043 0 2.0469 0.41797 2.7852 1.1562 0.73828 0.73438 1.1523 1.7383 1.1523 2.7812zm-184.29-19.68 13.383 13.461c3.0938 3.0703 8.0859 3.0703 11.18 0l13.383-13.461h7.6367l-15.742 31.488h-53.219l-15.742-31.488zm42.59 51.168c0 1.043-0.41797 2.043-1.1562 2.7812-0.73828 0.73828-1.7383 1.1562-2.7812 1.1562h-70.848c-2.1758 0-3.9375-1.7656-3.9375-3.9375 0-2.1758 1.7617-3.9375 3.9375-3.9375h70.848c1.043 0 2.043 0.41406 2.7812 1.1523 0.73828 0.73828 1.1562 1.7422 1.1562 2.7852zm-39.363 169.25c-39.203 0-78.719-17.004-78.719-55.105 0-32.59 25.742-76.988 54.395-94.465h48.648c11.566 7.5078 21.562 17.184 29.441 28.496-4.0547 11.059-6.2617 22.707-6.5312 34.48-0.38281 20.793 9.8164 40.359 27.078 51.957-11.965 25.426-46.758 34.637-74.312 34.637zm195.3-44.477v-0.003907c-16.391 9.0352-34.898 13.52-53.605 12.992-39.203 0-78.719-17.004-78.719-55.105 0-32.59 25.742-76.988 54.395-94.465h48.57c21.793 15.098 38.375 36.574 47.465 61.48 4.2578 10.496 6.6289 21.664 7.0078 32.984 0.13672 8.6602-2.1367 17.188-6.5742 24.625-4.4336 7.4375-10.852 13.496-18.539 17.488zm88.09 44.477c-27.551 0-62.348-9.2109-74.391-34.715v-0.003907c17.246-11.582 27.465-31.102 27.156-51.875-0.3125-11.75-2.5469-23.371-6.6094-34.402 7.9023-11.34 17.926-21.043 29.52-28.574h48.648c28.652 17.477 54.395 61.875 54.395 94.465 0 38.102-39.516 55.105-78.719 55.105z"/>
 </g>
</svg>