<?xml version="1.0" encoding="UTF-8"?>
<!-- The Best Svg Icon site in the world: iconSvg.co, Visit us! https://iconsvg.co -->
<svg fill="#000000" width="800px" height="800px" version="1.1" viewBox="144 144 512 512" xmlns="http://www.w3.org/2000/svg">
 <g>
  <path d="m510.2 169.09h-220.38c-20.258 0-36.734 16.48-36.734 36.734v388.35c0 20.27 16.48 36.734 36.734 36.734h220.36c20.258 0 36.734-16.469 36.734-36.734v-388.35c0.023438-20.246-16.477-36.734-36.715-36.734zm26.242 425.09c0 14.465-11.785 26.238-26.238 26.238h-220.38c-14.465 0-26.238-11.777-26.238-26.238v-388.35c0-14.465 11.777-26.238 26.238-26.238h220.36c14.473 0 26.238 11.777 26.238 26.238v388.35z"/>
  <path d="m471.95 216.96h-143.88c-21.77 0-39.484 17.719-39.484 39.484 0 21.77 17.719 39.484 39.484 39.484h143.88c21.758 0 39.484-17.719 39.484-39.484s-17.715-39.484-39.484-39.484zm0 68.477h-143.88c-15.977 0-28.988-13.004-28.988-28.988 0-15.984 13.004-28.988 28.988-28.988h143.88c15.977 0 28.988 13.004 28.988 28.988 0 15.984-13.004 28.988-28.988 28.988z"/>
  <path d="m400.01 359.65c-15.094 0-27.383 12.289-27.383 27.395 0 15.113 12.289 27.395 27.383 27.395 15.105 0 27.406-12.289 27.406-27.395 0-15.094-12.301-27.395-27.406-27.395zm0 44.305c-9.3203 0-16.887-7.5781-16.887-16.898 0-9.3086 7.5781-16.898 16.887-16.898 9.332 0 16.91 7.5977 16.91 16.898 0 9.3203-7.5781 16.898-16.91 16.898z"/>
  <path d="m478.56 359.65c-15.105 0-27.383 12.289-27.383 27.395 0 15.113 12.281 27.395 27.383 27.395 15.105 0 27.383-12.289 27.383-27.395 0.011719-15.094-12.27-27.395-27.383-27.395zm0 44.305c-9.3203 0-16.887-7.5781-16.887-16.898 0-9.3086 7.5781-16.898 16.887-16.898 9.332 0 16.887 7.5977 16.887 16.898 0.011719 9.3203-7.5586 16.898-16.887 16.898z"/>
  <path d="m321.46 359.65c-15.105 0-27.395 12.289-27.395 27.395 0 15.113 12.289 27.395 27.395 27.395 15.094 0 27.395-12.289 27.395-27.395 0-15.094-12.293-27.395-27.395-27.395zm0 44.305c-9.332 0-16.898-7.5781-16.898-16.898 0-9.3086 7.5781-16.898 16.898-16.898 9.3203 0 16.898 7.5977 16.898 16.898 0 9.3203-7.5898 16.898-16.898 16.898z"/>
  <path d="m400.01 438.2c-15.094 0-27.383 12.301-27.383 27.395s12.289 27.406 27.383 27.406c15.105 0 27.406-12.289 27.406-27.406 0-15.113-12.301-27.395-27.406-27.395zm0 44.305c-9.3203 0-16.887-7.5977-16.887-16.91 0-9.3086 7.5781-16.898 16.887-16.898 9.332 0 16.91 7.5898 16.91 16.898 0 9.3125-7.5781 16.91-16.91 16.91z"/>
  <path d="m478.56 438.2c-15.105 0-27.383 12.301-27.383 27.395v78.551c0 15.094 12.281 27.395 27.383 27.395 15.105 0 27.383-12.281 27.383-27.395v-78.551c0.011719-15.094-12.27-27.395-27.383-27.395zm0 122.88c-9.3203 0-16.887-7.5977-16.887-16.91v-78.551c0-9.3203 7.5781-16.887 16.887-16.887 9.332 0 16.887 7.5781 16.887 16.887v78.551c0.011719 9.3086-7.5586 16.91-16.887 16.91z"/>
  <path d="m321.46 438.2c-15.105 0-27.395 12.301-27.395 27.395s12.289 27.406 27.395 27.406c15.094 0 27.395-12.289 27.395-27.406 0-15.113-12.293-27.395-27.395-27.395zm0 44.305c-9.332 0-16.898-7.5977-16.898-16.91 0-9.3086 7.5781-16.898 16.898-16.898 9.3203 0 16.898 7.5898 16.898 16.898 0 9.3125-7.5898 16.91-16.898 16.91z"/>
  <path d="m400.01 516.76c-15.094 0-27.383 12.289-27.383 27.395 0 15.094 12.289 27.395 27.383 27.395 15.105 0 27.406-12.281 27.406-27.395 0-15.117-12.301-27.395-27.406-27.395zm0 44.324c-9.3203 0-16.887-7.5977-16.887-16.91 0-9.332 7.5781-16.898 16.887-16.898 9.332 0 16.91 7.5781 16.91 16.898 0 9.3086-7.5781 16.91-16.91 16.91z"/>
  <path d="m321.46 516.76c-15.105 0-27.395 12.289-27.395 27.395 0 15.094 12.289 27.395 27.395 27.395 15.094 0 27.395-12.281 27.395-27.395 0-15.117-12.293-27.395-27.395-27.395zm0 44.324c-9.332 0-16.898-7.5977-16.898-16.91 0-9.332 7.5781-16.898 16.898-16.898 9.3203 0 16.898 7.5781 16.898 16.898 0 9.3086-7.5898 16.91-16.898 16.91z"/>
 </g>
</svg>