<?xml version="1.0" encoding="UTF-8"?>
<!-- The Best Svg Icon site in the world: iconSvg.co, Visit us! https://iconsvg.co -->
<svg fill="#000000" width="800px" height="800px" version="1.1" viewBox="144 144 512 512" xmlns="http://www.w3.org/2000/svg">
 <g>
  <path d="m242.56 612.54v-7.8711c8.4375 0 16.234-4.5 20.453-11.809 4.2188-7.3086 4.2188-16.309 0-23.617-4.2188-7.3047-12.016-11.809-20.453-11.809h-15.746c-4.3477 0-7.8711-3.5234-7.8711-7.8711s3.5234-7.8711 7.8711-7.8711h15.746c2.0859 0 4.0898 0.82813 5.5664 2.3047s2.3047 3.4805 2.3047 5.5664c0 4.3477 3.5234 7.8711 7.8711 7.8711 4.3477 0 7.875-3.5234 7.875-7.8711 0-6.2617-2.4883-12.27-6.918-16.699-4.4297-4.4297-10.438-6.918-16.699-6.918v-7.8711c0-4.3477-3.5234-7.8711-7.8711-7.8711s-7.875 3.5234-7.875 7.8711v7.8711c-8.4375 0-16.23 4.5039-20.449 11.809-4.2188 7.3086-4.2188 16.309 0 23.617s12.012 11.809 20.449 11.809h15.746c4.3477 0 7.8711 3.5234 7.8711 7.8711 0 4.3477-3.5234 7.8711-7.8711 7.8711h-15.746c-4.3477 0-7.8711-3.5234-7.8711-7.8711 0-4.3477-3.5234-7.8711-7.8711-7.8711-4.3477 0-7.8711 3.5234-7.8711 7.8711 0 6.2656 2.4883 12.27 6.9141 16.699 4.4297 4.4297 10.438 6.918 16.699 6.918v7.8711c0 4.3477 3.5273 7.8711 7.875 7.8711s7.8711-3.5234 7.8711-7.8711z"/>
  <path d="m234.69 494.46c-18.793 0-36.812 7.4648-50.098 20.754-13.289 13.285-20.754 31.305-20.754 50.098 0 18.789 7.4648 36.809 20.754 50.098 13.285 13.285 31.305 20.75 50.098 20.75 18.789 0 36.809-7.4648 50.098-20.75 13.285-13.289 20.75-31.309 20.75-50.098-0.023437-18.785-7.4961-36.793-20.777-50.074s-31.289-20.754-50.07-20.777zm0 125.95c-14.617 0-28.633-5.8047-38.965-16.137-10.336-10.336-16.141-24.352-16.141-38.965 0-14.617 5.8047-28.633 16.141-38.965 10.332-10.336 24.348-16.141 38.965-16.141 14.613 0 28.629 5.8047 38.965 16.141 10.332 10.332 16.137 24.348 16.137 38.965-0.015624 14.609-5.8281 28.613-16.156 38.945-10.332 10.328-24.336 16.141-38.945 16.156z"/>
  <path d="m407.87 612.54v-7.8711c8.4375 0 16.234-4.5 20.453-11.809 4.2188-7.3086 4.2188-16.309 0-23.617-4.2188-7.3047-12.016-11.809-20.453-11.809h-15.746c-4.3477 0-7.8711-3.5234-7.8711-7.8711s3.5234-7.8711 7.8711-7.8711h15.746c2.0859 0 4.0898 0.82813 5.5664 2.3047s2.3047 3.4805 2.3047 5.5664c0 4.3477 3.5234 7.8711 7.8711 7.8711 4.3477 0 7.875-3.5234 7.875-7.8711 0-6.2617-2.4883-12.27-6.918-16.699-4.4297-4.4297-10.438-6.918-16.699-6.918v-7.8711c0-4.3477-3.5234-7.8711-7.8711-7.8711s-7.875 3.5234-7.875 7.8711v7.8711c-8.4375 0-16.23 4.5039-20.449 11.809-4.2188 7.3086-4.2188 16.309 0 23.617s12.012 11.809 20.449 11.809h15.746c4.3477 0 7.8711 3.5234 7.8711 7.8711 0 4.3477-3.5234 7.8711-7.8711 7.8711h-15.746c-4.3477 0-7.8711-3.5234-7.8711-7.8711 0-4.3477-3.5234-7.8711-7.8711-7.8711-4.3477 0-7.8711 3.5234-7.8711 7.8711 0 6.2656 2.4883 12.27 6.9141 16.699 4.4297 4.4297 10.438 6.918 16.699 6.918v7.8711c0 4.3477 3.5273 7.8711 7.875 7.8711s7.8711-3.5234 7.8711-7.8711z"/>
  <path d="m400 494.46c-18.793 0-36.812 7.4648-50.098 20.754-13.289 13.285-20.754 31.305-20.754 50.098 0 18.789 7.4648 36.809 20.754 50.098 13.285 13.285 31.305 20.75 50.098 20.75 18.789 0 36.809-7.4648 50.098-20.75 13.285-13.289 20.75-31.309 20.75-50.098-0.023437-18.785-7.4961-36.793-20.777-50.074s-31.289-20.754-50.07-20.777zm0 125.95c-14.617 0-28.633-5.8047-38.965-16.137-10.336-10.336-16.141-24.352-16.141-38.965 0-14.617 5.8047-28.633 16.141-38.965 10.332-10.336 24.348-16.141 38.965-16.141 14.613 0 28.629 5.8047 38.965 16.141 10.332 10.332 16.137 24.348 16.137 38.965-0.015624 14.609-5.8281 28.613-16.156 38.945-10.332 10.328-24.336 16.141-38.945 16.156z"/>
  <path d="m573.18 612.54v-7.8711c8.4375 0 16.234-4.5 20.453-11.809 4.2188-7.3086 4.2188-16.309 0-23.617-4.2188-7.3047-12.016-11.809-20.453-11.809h-15.746c-4.3477 0-7.8711-3.5234-7.8711-7.8711s3.5234-7.8711 7.8711-7.8711h15.746c2.0859 0 4.0898 0.82813 5.5664 2.3047s2.3047 3.4805 2.3047 5.5664c0 4.3477 3.5234 7.8711 7.8711 7.8711 4.3477 0 7.875-3.5234 7.875-7.8711 0-6.2617-2.4883-12.27-6.918-16.699-4.4297-4.4297-10.438-6.918-16.699-6.918v-7.8711c0-4.3477-3.5234-7.8711-7.8711-7.8711s-7.875 3.5234-7.875 7.8711v7.8711c-8.4375 0-16.23 4.5039-20.449 11.809-4.2188 7.3086-4.2188 16.309 0 23.617s12.012 11.809 20.449 11.809h15.746c4.3477 0 7.8711 3.5234 7.8711 7.8711 0 4.3477-3.5234 7.8711-7.8711 7.8711h-15.746c-4.3477 0-7.8711-3.5234-7.8711-7.8711 0-4.3477-3.5234-7.8711-7.8711-7.8711-4.3477 0-7.8711 3.5234-7.8711 7.8711 0 6.2656 2.4883 12.27 6.9141 16.699 4.4297 4.4297 10.438 6.918 16.699 6.918v7.8711c0 4.3477 3.5273 7.8711 7.875 7.8711s7.8711-3.5234 7.8711-7.8711z"/>
  <path d="m565.31 494.46c-18.793 0-36.812 7.4648-50.098 20.754-13.289 13.285-20.754 31.305-20.754 50.098 0 18.789 7.4648 36.809 20.754 50.098 13.285 13.285 31.305 20.75 50.098 20.75 18.789 0 36.809-7.4648 50.098-20.75 13.285-13.289 20.75-31.309 20.75-50.098-0.023437-18.785-7.4922-36.793-20.773-50.074-13.285-13.285-31.293-20.754-50.074-20.777zm0 125.95c-14.617 0-28.633-5.8047-38.965-16.137-10.336-10.336-16.141-24.352-16.141-38.965 0-14.617 5.8047-28.633 16.141-38.965 10.332-10.336 24.348-16.141 38.965-16.141 14.613 0 28.629 5.8047 38.965 16.141 10.332 10.332 16.137 24.348 16.137 38.965-0.015624 14.609-5.8281 28.613-16.156 38.945-10.332 10.328-24.336 16.141-38.945 16.156z"/>
  <path d="m439.36 258.3h-78.723c-14.609 0.019531-28.613 5.8281-38.945 16.16-10.328 10.328-16.141 24.336-16.156 38.945v78.719c0 2.0898 0.82812 4.0898 2.3047 5.5664 1.4766 1.4766 3.4805 2.3086 5.5664 2.3086h173.18c2.0898 0 4.0898-0.83203 5.5664-2.3086 1.4766-1.4766 2.3047-3.4766 2.3047-5.5664v-78.719c-0.015626-14.609-5.8242-28.617-16.156-38.945-10.332-10.332-24.336-16.141-38.945-16.16zm-118.08 125.95v-70.848c0.019531-6.9336 1.8828-13.734 5.3945-19.711 3.5156-5.9766 8.5547-10.91 14.602-14.297l39.438 104.86zm56.992-51.168-22.043-58.566h0.003907c1.4609-0.23438 2.9297-0.39453 4.4062-0.47266h10.863l12.438 24.875zm24.168 51.168h-4.8789l-8.1875-21.805 9.4453-56.914h2.3633l9.5234 56.758zm0.55078-94.465h-5.9844l-7.8711-15.742h21.727zm25.504-15.742h10.867c1.4766 0.078125 2.9492 0.23828 4.4062 0.47266l-22.043 58.41-5.668-34.008zm50.227 110.21h-59.434l39.438-104.86c6.0508 3.3867 11.09 8.3203 14.602 14.297 3.5156 5.9766 5.375 12.777 5.3945 19.711z"/>
  <path d="m447.23 211.07c0-12.527-4.9766-24.539-13.832-33.398-8.8594-8.8594-20.875-13.836-33.398-13.836-12.527 0-24.543 4.9766-33.398 13.836-8.8594 8.8594-13.836 20.871-13.836 33.398 0 12.527 4.9766 24.539 13.836 33.398 8.8555 8.8555 20.871 13.832 33.398 13.832 12.52-0.011719 24.527-4.9922 33.383-13.848 8.8555-8.8555 13.836-20.859 13.848-33.383zm-47.23 31.488c-8.3516 0-16.363-3.3164-22.266-9.2227-5.9062-5.9062-9.2227-13.914-9.2227-22.266 0-8.3516 3.3164-16.359 9.2227-22.266 5.9023-5.9062 13.914-9.2227 22.266-9.2227s16.359 3.3164 22.266 9.2227c5.9023 5.9062 9.2227 13.914 9.2227 22.266 0 8.3516-3.3203 16.359-9.2227 22.266-5.9062 5.9062-13.914 9.2227-22.266 9.2227z"/>
  <path d="m234.69 478.72c2.0859 0 4.0898-0.82812 5.5664-2.3047 1.4766-1.4766 2.3047-3.4805 2.3047-5.5664v-15.746h149.57v15.746c0 4.3477 3.5273 7.8711 7.875 7.8711s7.8711-3.5234 7.8711-7.8711v-15.746h149.57v15.746c0 4.3477 3.5273 7.8711 7.875 7.8711s7.8711-3.5234 7.8711-7.8711v-23.617c0-2.0859-0.82812-4.0898-2.3047-5.5664-1.4766-1.4766-3.4805-2.3047-5.5664-2.3047h-157.44v-15.746c0-4.3477-3.5234-7.8711-7.8711-7.8711s-7.875 3.5234-7.875 7.8711v15.742l-157.44 0.003906c-4.3477 0-7.875 3.5234-7.875 7.8711v23.617c0 2.0859 0.83203 4.0898 2.3086 5.5664 1.4766 1.4766 3.4766 2.3047 5.5664 2.3047z"/>
 </g>
</svg>