<?xml version="1.0" encoding="UTF-8"?>
<!-- The Best Svg Icon site in the world: iconSvg.co, Visit us! https://iconsvg.co -->
<svg fill="#000000" width="800px" height="800px" version="1.1" viewBox="144 144 512 512" xmlns="http://www.w3.org/2000/svg">
 <g>
  <path d="m515.44 590.27c-0.80469 1.4453-2.332 2.3398-3.9883 2.3359h-222.91c-1.6523-0.007813-3.1719-0.90234-3.9805-2.3438-0.80469-1.4414-0.77344-3.207 0.085938-4.6172l111.43-181.64v-0.003906c0.88281-1.2773 2.3398-2.043 3.8945-2.043 1.5547 0 3.0078 0.76562 3.8906 2.043l111.48 181.64v0.003907c0.875 1.4102 0.91016 3.1836 0.09375 4.625z"/>
  <path d="m615.26 410.99h-430.53c-2.5312 0-4.5781-2.0508-4.5781-4.582 0-2.5273 2.0469-4.5781 4.5781-4.5781h430.53c2.5312 0 4.582 2.0508 4.582 4.5781 0 2.5312-2.0508 4.582-4.582 4.582z"/>
  <path d="m335.62 235.83h-109.32c-7.8555 0-14.223-6.3672-14.223-14.219 0-7.8555 6.3672-14.223 14.223-14.223h109.32c7.8438 0.007812 14.203 6.3555 14.227 14.199-0.027343 7.8438-6.3828 14.195-14.227 14.223zm-109.32-19.281c-1.3398-0.003906-2.6289 0.52344-3.5781 1.4688-0.94922 0.94531-1.4844 2.2305-1.4844 3.5703 0.003906 2.793 2.2695 5.0547 5.0625 5.0625h109.32c2.7852-0.023438 5.043-2.2773 5.0664-5.0625-0.019531-2.7852-2.2812-5.0352-5.0664-5.0391z"/>
  <path d="m338.46 386c0.35938 1.3711 0.054687 2.832-0.82422 3.9414-0.875 1.1055-2.207 1.7461-3.6172 1.7383h-106.12c-1.4102 0.007812-2.7461-0.63281-3.6172-1.7383-0.88281-1.1094-1.1875-2.5703-0.82422-3.9414l9.1602-36.367v0.003907c4.3203-16.852 17.055-30.266 33.66-35.449 1.9961-0.68359 3.3242-2.5664 3.3008-4.6719v-0.73438c-0.046875-2.207-1.5352-4.125-3.6641-4.7188-5.6406-1.7773-10.918-4.5547-15.574-8.1953-8.7656-6.8281-15.004-16.387-17.723-27.16l-9.1602-36.32c-0.34766-1.375-0.042969-2.8281 0.82422-3.9453 0.86719-1.1172 2.2031-1.7734 3.6172-1.7812h106.14c1.4141 0.007813 2.7461 0.66406 3.6133 1.7812 0.86719 1.1172 1.1719 2.5703 0.82812 3.9453l-9.1602 36.32c-4.2891 16.867-17.039 30.293-33.664 35.449-1.9844 0.6875-3.2969 2.5742-3.25 4.6719v0.77734c0.039063 2.1875 1.5117 4.0859 3.6172 4.6719 16.449 5.2422 29.031 18.605 33.273 35.34z"/>
  <path d="m335.62 410.99h-109.32c-7.8398-0.015626-14.199-6.3594-14.223-14.199 0.023438-7.8398 6.3828-14.188 14.223-14.199h109.32c7.8555 0 14.223 6.3672 14.223 14.223 0 7.8516-6.3672 14.219-14.223 14.219zm-109.32-19.281v-0.003907c-2.7812 0.015625-5.0352 2.2578-5.0625 5.0391-0.003907 1.3477 0.52734 2.6367 1.4766 3.5898 0.94922 0.95312 2.2383 1.4922 3.5859 1.4961h109.32c2.7852-0.011719 5.0391-2.2578 5.0664-5.0391-0.015625-2.7891-2.2773-5.0391-5.0664-5.0391z"/>
  <path d="m506.71 297.82c-2.5117 0.36328-4.8984 1.3438-6.9375 2.8555-1.8281 1.3633-2.8789 3.5352-2.8086 5.8164-0.11328 2.0625 0.85547 4.0391 2.5547 5.2148 2.207 1.4375 4.6328 2.5 7.1875 3.1484z"/>
  <path d="m524.43 334.48c0.039062-1.8945-0.99219-3.6484-2.668-4.5312-2.4844-1.3633-5.1289-2.4102-7.8711-3.1211v16.656c7.0898-0.73438 10.539-3.6797 10.539-9.0039z"/>
  <path d="m510.33 264.74c-14.82 0-29.031 5.8867-39.512 16.367-10.477 10.48-16.367 24.691-16.367 39.512 0 14.82 5.8906 29.031 16.367 39.512 10.48 10.477 24.691 16.363 39.512 16.363s29.031-5.8867 39.512-16.363c10.477-10.48 16.367-24.691 16.367-39.512-0.011719-14.816-5.9023-29.023-16.379-39.5-10.477-10.477-24.684-16.367-39.5-16.379zm21.188 79.191c-1.8711 2.7461-4.4531 4.9336-7.4688 6.3281-3.1914 1.4922-6.6328 2.3789-10.145 2.6172v5.3789-0.003906c0.023437 0.94922-0.34375 1.8711-1.0195 2.5391-1.4414 1.3242-3.6523 1.3516-5.1289 0.0625-0.69531-0.67969-1.0703-1.625-1.0352-2.6016v-5.375c-5.9062-0.4375-11.703-1.8281-17.16-4.125-0.875-0.36328-1.625-0.97656-2.1523-1.7617-1.2617-1.6953-1.1953-4.0352 0.15625-5.6602 1.3516-1.6211 3.6367-2.1133 5.5352-1.1836 4.3086 1.9141 8.918 3.0586 13.621 3.375v-18.52c-3.2461-0.85156-6.4258-1.9492-9.5039-3.2852-2.7812-1.2383-5.2266-3.1211-7.1367-5.4961-2.0078-2.6055-3.0391-5.832-2.9219-9.1211-0.019531-3.1211 0.79688-6.1875 2.3594-8.8828 1.6953-2.8281 4.1133-5.1562 7.0039-6.7422 3.1484-1.7266 6.6211-2.7852 10.199-3.1055v-5.3125c-0.03125-1.4648 0.83594-2.8047 2.1875-3.3711 1.3555-0.57031 2.918-0.25391 3.9414 0.79688 0.69141 0.67578 1.0742 1.6094 1.0547 2.5742v5.1914c5.0156 0.20703 9.9688 1.1875 14.684 2.9102 1.8945 0.58203 3.1523 2.3828 3.043 4.3672 0.003906 1.1523-0.41797 2.2656-1.1797 3.1328-0.80078 0.96094-1.9961 1.5039-3.2461 1.4688-0.60547-0.027344-1.1992-0.17188-1.75-0.42578-3.7266-1.2891-7.6172-2.043-11.551-2.25v19.191c3.3867 0.78125 6.707 1.8242 9.9297 3.125 2.8594 1.1953 5.3789 3.082 7.3281 5.4961 2.1055 2.7969 3.1719 6.2461 3.0117 9.7461 0.023437 3.1719-0.89844 6.2773-2.6562 8.9219z"/>
  <path d="m510.31 231.61c-23.605 0.007812-46.246 9.3906-62.934 26.09-16.691 16.695-26.062 39.34-26.055 62.949 0.003907 23.605 9.3867 46.246 26.086 62.934 16.699 16.691 39.34 26.062 62.949 26.059 23.609-0.007813 46.246-9.3906 62.938-26.09 16.688-16.699 26.059-39.34 26.055-62.949-0.023437-23.602-9.4102-46.23-26.105-62.918-16.695-16.684-39.328-26.062-62.934-26.074zm0 154.04c-17.246 0-33.789-6.8516-45.988-19.047-12.195-12.199-19.047-28.742-19.047-45.988 0-17.25 6.8516-33.793 19.047-45.988 12.199-12.199 28.742-19.051 45.988-19.051 17.25 0 33.793 6.8516 45.988 19.051 12.199 12.195 19.051 28.738 19.051 45.988-0.015625 17.238-6.8711 33.77-19.059 45.965-12.191 12.191-28.719 19.051-45.961 19.07z"/>
 </g>
</svg>