<?xml version="1.0" encoding="UTF-8"?>
<!-- The Best Svg Icon site in the world: iconSvg.co, Visit us! https://iconsvg.co -->
<svg fill="#000000" width="800px" height="800px" version="1.1" viewBox="144 144 512 512" xmlns="http://www.w3.org/2000/svg">
 <g>
  <path d="m612.54 243.8c0.097656-3.2773-2.4609-6.0234-5.7383-6.1602h-123.16v-12.789h48.246c3.2617 0 5.875-2.1914 5.875-5.4531l-0.003907-31.238c-0.007812-8.7852-3.4961-17.207-9.6992-23.426-6.2031-6.2148-14.621-9.7227-23.402-9.75h-196.34c-8.3945-0.054688-16.473 3.2305-22.449 9.125-5.9805 5.8984-9.375 13.926-9.4375 22.324l-0.27734 51.207h-82.957c-3.2773 0.13672-5.8359 2.8828-5.7383 6.1602v330.05c0 3.2617 2.4766 6.2227 5.7383 6.2227h144.19l-14.965 53.137h-26.164c-3.2617 0-5.9062 2.6445-5.9062 5.9023 0 3.2617 2.6445 5.9062 5.9062 5.9062h207.49c3.2578 0 5.9023-2.6445 5.9023-5.9062 0-3.2578-2.6445-5.9023-5.9023-5.9023h-26.168l-14.965-53.137h144.19c3.2617 0 5.7383-2.9609 5.7383-6.2227zm-189.68 155.41c0-14.57 5.7891-28.543 16.094-38.848 10.301-10.305 24.277-16.094 38.848-16.094 14.57 0 28.547 5.7891 38.848 16.094 10.305 10.305 16.094 24.277 16.094 38.848 0 14.57-5.7891 28.547-16.094 38.848-10.301 10.305-24.277 16.094-38.848 16.094-14.566-0.019532-28.531-5.8125-38.828-16.113-10.301-10.297-16.094-24.262-16.113-38.828zm81.742-232.42h0.042969-0.003907c5.6719 0.027344 11.098 2.3047 15.09 6.3281 3.9961 4.0234 6.2305 9.4688 6.2148 15.137v24.785h-42.309v-24.797c0-11.766 9.1172-21.453 20.871-21.453zm-216.37 19.801c0.046875-5.2891 2.1836-10.34 5.9492-14.051 3.7656-3.7109 8.8438-5.7773 14.129-5.75h170.89c-5.0469 5.9062-7.3672 13.559-7.3672 21.465v144.52c-5.0508 0.39453-10.031 1.4375-14.812 3.1055-1.1953-1.168-2.8047-1.8164-4.4766-1.8086h-146.75c-3.2578 0-5.9023 2.6445-5.9023 5.9023 0 3.2617 2.6445 5.9062 5.9023 5.9062h131.96c-4.8672 3.6992-9.2461 7.9961-13.039 12.793h-118.92c-3.2578 0-5.9023 2.6406-5.9023 5.9023s2.6445 5.9023 5.9023 5.9023h111.71c-1.9102 4.1211-3.4414 8.4023-4.582 12.793h-107.12c-3.2578 0-5.9023 2.6445-5.9023 5.9062 0 3.2578 2.6445 5.9023 5.9023 5.9023h105.38c-0.070312 1.9688-0.11719 2.6953-0.11719 3.9766v0.003906c-0.003906 7.3477 1.207 14.648 3.582 21.605-47.844 0-108.68 0.011719-127.68 0.007813zm-88.973 62.855h76.82l-0.95312 177.03c-0.007812 1.5898 0.60938 3.1211 1.7188 4.2578 1.1055 1.1211 2.6094 1.7617 4.1836 1.7734 0 0 81.051 0.027344 138.99 0.027344v-0.003906c11.914 20.66 33.941 33.398 57.789 33.418 36.801 0 66.957-29.938 66.957-66.742 0-34.98-27.668-63.738-61.121-66.504v-83.258h117.09v249.94h-401.47zm266.05 383.76h-130.63l14.965-53.137h100.7zm135.42-64.945h-401.47v-57.07h401.47z"/>
  <path d="m378.59 295.55c14.492 0 28.395-5.7617 38.645-16.012s16.008-24.148 16.004-38.645c0-14.496-5.7578-28.398-16.008-38.645-10.25-10.25-24.152-16.008-38.645-16.008-14.496 0-28.398 5.7578-38.648 16.008s-16.008 24.152-16.008 38.648c0.015625 14.488 5.7812 28.383 16.027 38.629 10.246 10.246 24.141 16.008 38.633 16.023zm0-97.5c11.363 0 22.262 4.5156 30.293 12.551 8.0352 8.0352 12.551 18.934 12.551 30.297-0.003906 11.363-4.5156 22.262-12.551 30.297-8.0352 8.0352-18.934 12.547-30.297 12.547-11.363 0-22.262-4.5117-30.297-12.547-8.0352-8.0352-12.551-18.934-12.551-30.297 0.015624-11.363 4.5312-22.254 12.566-30.285 8.0312-8.0312 18.922-12.551 30.285-12.562z"/>
  <path d="m378.59 259.3c-3.0508-0.003907-5.5195-2.4727-5.5234-5.5195 0-3.2617-2.6445-5.9062-5.9023-5.9062-3.2617 0-5.9062 2.6445-5.9062 5.9062 0.003906 3.332 0.96875 6.5898 2.7773 9.3867 1.8125 2.8008 4.3867 5.0156 7.4219 6.3906v2.5156c0 3.2617 2.6445 5.9023 5.9062 5.9023 3.2617 0 5.9023-2.6406 5.9023-5.9023v-1.625c5.4219-1.5156 9.7695-5.5703 11.656-10.875s1.0742-11.195-2.1719-15.797c-3.25-4.5977-8.5312-7.3281-14.16-7.3242-2.2344 0-4.25-1.3438-5.1016-3.4102-0.85547-2.0625-0.38281-4.4375 1.1953-6.0156 1.5781-1.582 3.9531-2.0547 6.0195-1.1992 2.0625 0.85547 3.4062 2.8711 3.4062 5.1016 0 3.2617 2.6445 5.9062 5.9062 5.9062s5.9023-2.6445 5.9023-5.9062c-0.003906-3.6016-1.1289-7.1094-3.2227-10.043-2.0898-2.9336-5.043-5.1406-8.4453-6.3203v-2.5156c0-3.2617-2.6445-5.9062-5.9023-5.9062-3.2617 0-5.9062 2.6445-5.9062 5.9062v2.6914c-5.0938 1.9297-8.9844 6.1445-10.5 11.379-1.5156 5.2305-0.48047 10.871 2.793 15.227 3.2734 4.3555 8.4062 6.9141 13.855 6.9102 3.0469 0 5.5195 2.4727 5.5195 5.5234 0 3.0469-2.4727 5.5195-5.5195 5.5195z"/>
  <path d="m305.8 321.28h146.75c3.2617 0 5.9062-2.6406 5.9062-5.9023s-2.6445-5.9062-5.9062-5.9062h-146.75c-3.2578 0-5.9023 2.6445-5.9023 5.9062s2.6445 5.9023 5.9023 5.9023z"/>
  <path d="m467.64 416.95c1.1055 1.1172 2.6094 1.7461 4.1836 1.75h0.011719c1.5664 0 3.0664-0.62109 4.1719-1.7266l27.172-27.168v-0.003906c1.1328-1.1016 1.7773-2.6094 1.7852-4.1914 0.011718-1.5781-0.60938-3.0977-1.7266-4.2148-1.1172-1.1133-2.6367-1.7383-4.2148-1.7266-1.582 0.011719-3.0898 0.65234-4.1914 1.7852l-22.977 22.977-11.051-11.16c-2.3008-2.2695-6-2.2617-8.2969 0.011719-2.2969 2.2734-2.3398 5.9688-0.09375 8.293z"/>
 </g>
</svg>