<?xml version="1.0" encoding="UTF-8"?>
<!-- The Best Svg Icon site in the world: iconSvg.co, Visit us! https://iconsvg.co -->
<svg width="800px" height="800px" version="1.1" viewBox="144 144 512 512" xmlns="http://www.w3.org/2000/svg">
 <defs>
  <clipPath id="a">
   <path d="m148.09 148.09h503.81v503.81h-503.81z"/>
  </clipPath>
 </defs>
 <g clip-path="url(#a)">
  <path d="m306.89 509.59-64.66 64.66-31.691-31.691c-3.0898-2.9844-8-2.9414-11.035 0.09375s-3.0781 7.9453-0.097656 11.035l37.266 37.266c3.0742 3.0742 8.0586 3.0742 11.133 0l70.219-70.219c2.9844-3.0859 2.9414-7.9961-0.097656-11.035-3.0352-3.0352-7.9453-3.0781-11.035-0.09375zm280.24-13.32h0.003906c-3.0742-3.0742-8.0586-3.0742-11.133 0l-34.305 34.289-34.289-34.289c-3.0898-2.9844-8-2.9414-11.035 0.097656-3.0391 3.0352-3.082 7.9453-0.097656 11.035l34.289 34.289-33.785 33.785c-1.5195 1.4688-2.3828 3.4844-2.4023 5.5938-0.019531 2.1133 0.8125 4.1445 2.3047 5.6367 1.4922 1.4922 3.5234 2.3242 5.6328 2.3047 2.1133-0.019531 4.1289-0.88281 5.5977-2.4023l33.785-33.789 34.289 34.289v0.003907c3.0898 2.9844 8 2.9414 11.035-0.097657 3.0391-3.0352 3.082-7.9453 0.097657-11.035l-34.293-34.289 34.289-34.289h0.003907c3.0742-3.0742 3.0742-8.0586 0-11.133zm-328.83-64.785c-29.227 0-57.258 11.609-77.93 32.277-20.668 20.668-32.277 48.699-32.277 77.93 0 29.23 11.609 57.262 32.277 77.93 20.672 20.668 48.703 32.277 77.93 32.277 29.23 0 57.262-11.609 77.93-32.277s32.281-48.699 32.281-77.93c-0.035157-29.219-11.656-57.23-32.316-77.895-20.66-20.66-48.676-32.281-77.895-32.312zm0 204.67c-25.051 0-49.078-9.9531-66.797-27.668-17.715-17.715-27.668-41.742-27.668-66.797 0-25.055 9.9531-49.082 27.668-66.797 17.719-17.715 41.746-27.668 66.797-27.668 25.055 0 49.082 9.9531 66.797 27.668 17.715 17.715 27.668 41.742 27.668 66.797-0.027344 25.043-9.9922 49.055-27.699 66.766-17.711 17.707-41.719 27.668-66.766 27.699zm133.82-417.22h15.746c4.1758 0 8.1797 1.6602 11.133 4.6133 2.9531 2.9531 4.6094 6.957 4.6094 11.133 0 4.3477 3.5273 7.8711 7.875 7.8711 4.3477 0 7.8711-3.5234 7.8711-7.8711 0-8.3516-3.3164-16.363-9.2227-22.266-5.9062-5.9062-13.914-9.2227-22.266-9.2227v-7.875c0-4.3477-3.5234-7.8711-7.8711-7.8711s-7.875 3.5234-7.875 7.8711v7.875c-11.25 0-21.645 6-27.27 15.742-5.625 9.7422-5.625 21.746 0 31.488 5.625 9.7422 16.02 15.746 27.27 15.746h15.746c5.625 0 10.82 3 13.633 7.8711s2.8125 10.871 0 15.742c-2.8125 4.8711-8.0078 7.875-13.633 7.875h-15.746c-4.1758 0-8.1797-1.6602-11.133-4.6133-2.9492-2.9531-4.6094-6.957-4.6094-11.133 0-4.3477-3.5234-7.8711-7.8711-7.8711-4.3477 0-7.875 3.5234-7.875 7.8711 0 8.3516 3.3203 16.359 9.2227 22.266 5.9062 5.9062 13.914 9.2227 22.266 9.2227v7.8711c0 4.3477 3.5273 7.8711 7.875 7.8711s7.8711-3.5234 7.8711-7.8711v-7.8711c11.25 0 21.645-6 27.27-15.742 5.625-9.7461 5.625-21.746 0-31.488-5.625-9.7422-16.02-15.746-27.27-15.746h-15.746c-5.625 0-10.82-3-13.633-7.8711s-2.8125-10.875 0-15.746 8.0078-7.8711 13.633-7.8711zm62.977 196.8c-4.3477 0-7.8711 3.5234-7.8711 7.8711 0 4.3477 3.5234 7.875 7.8711 7.875h31.488c1.082 0.003907 2.1562-0.21875 3.1484-0.64844 0.20312-0.078125 0.34766-0.26953 0.55078-0.36328v0.003907c0.75781-0.38281 1.4492-0.88281 2.0469-1.4805l0.17187-0.125h0.003907c0.21094-0.3125 0.40234-0.64062 0.56641-0.97656 0.73828-0.88672 1.1602-1.9961 1.1953-3.1484 0.09375-0.375 0.15625-0.75391 0.1875-1.1367v-31.488c0-4.3477-3.5234-7.8711-7.8711-7.8711s-7.8711 3.5234-7.8711 7.8711v13.902l-47.23-42.238c34.109-10.172 61.207-36.191 72.758-69.859 11.547-33.668 6.125-70.844-14.562-99.809s-54.09-46.156-89.684-46.156c-35.598 0-69 17.191-89.688 46.156-20.684 28.965-26.109 66.141-14.559 99.809 11.547 33.668 38.645 59.688 72.758 69.859l-47.23 42.164-0.003906-13.828c0-4.3477-3.5234-7.8711-7.8711-7.8711s-7.8711 3.5234-7.8711 7.8711v31.488c0.046875 0.38281 0.12891 0.76562 0.23438 1.1367 0.035157 1.1523 0.45703 2.2617 1.1992 3.1484 0.16016 0.33594 0.35156 0.66406 0.56641 0.97656l0.17188 0.125c0.59766 0.59766 1.2891 1.0977 2.0469 1.4805 0.1875 0.10938 0.34766 0.28516 0.55078 0.36328v-0.003906c0.99219 0.42969 2.0664 0.65234 3.1484 0.64844h31.488c4.3477 0 7.8711-3.5273 7.8711-7.875 0-4.3477-3.5234-7.8711-7.8711-7.8711h-10.863l53.672-47.957c8.3125 1.0195 16.719 1.0195 25.031 0 0.29688 0.51172 0.64844 0.98828 1.0547 1.418l52.129 46.539zm-55.102-62.977c-25.055 0-49.082-9.9531-66.797-27.668s-27.668-41.742-27.668-66.797c0-25.051 9.9531-49.078 27.668-66.797 17.715-17.715 41.742-27.668 66.797-27.668 25.051 0 49.078 9.9531 66.793 27.668 17.719 17.719 27.668 41.746 27.668 66.797-0.027344 25.047-9.9883 49.055-27.699 66.766-17.707 17.707-41.719 27.672-66.762 27.699zm141.7 78.719v0.003906c-29.23 0-57.262 11.609-77.93 32.277s-32.277 48.699-32.277 77.93c0 29.23 11.609 57.262 32.277 77.93s48.699 32.277 77.93 32.277c29.23 0 57.262-11.609 77.93-32.277s32.277-48.699 32.277-77.93c-0.03125-29.219-11.656-57.23-32.316-77.895-20.66-20.66-48.672-32.281-77.891-32.312zm0 204.67v0.003906c-25.055 0-49.082-9.9531-66.797-27.668-17.715-17.715-27.668-41.742-27.668-66.797 0-25.055 9.9531-49.082 27.668-66.797 17.715-17.715 41.742-27.668 66.797-27.668 25.055 0 49.082 9.9531 66.797 27.668 17.715 17.715 27.668 41.742 27.668 66.797-0.03125 25.043-9.9922 49.055-27.699 66.766-17.711 17.707-41.723 27.668-66.766 27.699z"/>
 </g>
</svg>