<?xml version="1.0" encoding="UTF-8"?>
<!-- The Best Svg Icon site in the world: iconSvg.co, Visit us! https://iconsvg.co -->
<svg width="800px" height="800px" version="1.1" viewBox="144 144 512 512" xmlns="http://www.w3.org/2000/svg">
 <defs>
  <clipPath id="b">
   <path d="m148.09 148.09h460.91v334.91h-460.91z"/>
  </clipPath>
  <clipPath id="a">
   <path d="m191 313h460.9v338.9h-460.9z"/>
  </clipPath>
 </defs>
 <path d="m400 281.92c-31.316 0-61.352 12.441-83.496 34.586-22.145 22.145-34.586 52.18-34.586 83.496s12.441 61.348 34.586 83.492c22.145 22.145 52.18 34.586 83.496 34.586s61.348-12.441 83.492-34.586c22.145-22.145 34.586-52.176 34.586-83.492-0.035156-31.309-12.488-61.32-34.625-83.457s-52.148-34.59-83.453-34.625zm0 220.42c-27.145 0-53.172-10.781-72.363-29.977-19.191-19.191-29.973-45.219-29.973-72.359 0-27.145 10.781-53.172 29.973-72.363 19.191-19.191 45.219-29.973 72.363-29.973 27.141 0 53.168 10.781 72.359 29.973 19.195 19.191 29.977 45.219 29.977 72.363-0.03125 27.129-10.824 53.141-30.008 72.328-19.188 19.184-45.199 29.977-72.328 30.008z"/>
 <path d="m400 313.41c-20.359 0-40.07 7.1719-55.664 20.258-15.598 13.086-26.082 31.246-29.621 51.297-3.5352 20.047 0.10938 40.703 10.285 58.332 0.99609 1.9023 2.7227 3.3164 4.7852 3.9141 2.0586 0.59766 4.2734 0.32812 6.1328-0.74609 1.8555-1.0742 3.1953-2.8594 3.7031-4.9414 0.51172-2.0859 0.14844-4.2852-1-6.0977-11.84-20.453-12.707-45.457-2.3203-66.684 10.391-21.223 30.672-35.879 54.082-39.074 23.414-3.1992 46.883 5.4805 62.582 23.141 15.699 17.664 21.566 41.988 15.648 64.863-5.9219 22.879-22.852 41.301-45.148 49.129-22.297 7.832-47.027 4.0352-65.953-10.121-3.4766-2.6055-8.4102-1.9023-11.02 1.5742-2.6094 3.4805-1.9023 8.4141 1.5742 11.023 22.27 16.699 51.211 21.68 77.781 13.375 26.57-8.3008 47.527-28.867 56.328-55.277 8.7969-26.41 4.3633-55.438-11.918-78.02-16.281-22.578-42.422-35.953-70.258-35.945z"/>
 <path d="m400.46 423.61h-16.211c-4.3477 0-7.8711 3.5273-7.8711 7.875 0 4.3477 3.5234 7.8711 7.8711 7.8711h16.211c8.4336-0.082031 16.188-4.6602 20.336-12.012 4.1445-7.3477 4.0547-16.348-0.23438-23.613-4.2891-7.2656-12.129-11.691-20.566-11.609-4.3477 0-7.875-3.5234-7.875-7.8711s3.5273-7.8711 7.875-7.8711h16.207c4.3477 0 7.8711-3.5234 7.8711-7.8711 0-4.3477-3.5234-7.875-7.8711-7.875h-16.207c-8.4375 0.085937-16.191 4.6641-20.336 12.012-4.1484 7.3477-4.0586 16.352 0.23047 23.613 4.2891 7.2656 12.133 11.691 20.57 11.609 4.3477 0 7.8711 3.5234 7.8711 7.8711 0 4.3477-3.5234 7.8711-7.8711 7.8711z"/>
 <g clip-path="url(#b)">
  <path d="m163.84 400c-0.011719-46.703 13.824-92.363 39.77-131.2 25.941-38.832 62.824-69.098 105.97-86.965 43.152-17.867 90.633-22.531 136.43-13.406 45.805 9.1289 87.867 31.637 120.88 64.684 3.0742 3.0703 8.0547 3.0703 11.129 0l5.6602-5.6523 7.4141 51.957-51.957-7.4141 5.5156-5.5156c3.0703-3.0742 3.0703-8.0547 0-11.129-33.312-33.348-77.113-54.168-124-58.945-46.891-4.7734-93.992 6.7891-133.34 32.734-39.348 25.945-68.531 64.68-82.613 109.66-14.082 44.98-12.203 93.441 5.3242 137.2 1.6406 4 6.2031 5.9258 10.215 4.3164 4.0117-1.6133 5.9766-6.1562 4.3945-10.184-15.934-39.758-17.875-83.758-5.5078-124.77 12.371-41.008 38.316-76.594 73.578-100.91 35.262-24.32 77.746-35.93 120.48-32.918 42.727 3.0117 83.164 20.461 114.67 49.484l-10.941 10.957c-2.1211 2.1055-2.8672 5.2305-1.9258 8.0703 0.94531 2.8359 3.4141 4.8945 6.375 5.3125l77.934 11.133-0.003906-0.003907c2.457 0.36328 4.9375-0.46484 6.6836-2.2266 1.7539-1.7539 2.582-4.2305 2.2305-6.6836l-11.133-77.934c-0.41406-2.9609-2.4727-5.4336-5.3086-6.3789-2.8398-0.94531-5.9648-0.19922-8.0742 1.9258l-11.281 11.285c-40.641-38.215-92.82-61.855-148.35-67.207-55.531-5.3477-111.27 7.8945-158.46 37.648-47.191 29.758-83.164 74.34-102.27 126.75-19.105 52.414-20.27 109.69-3.3008 162.84 1.0312 3.2734 4.0625 5.5039 7.4961 5.5078 0.80078-0.007813 1.5977-0.13281 2.3594-0.375 4.1367-1.3281 6.418-5.7578 5.0938-9.8984-7.3906-23.195-11.145-47.398-11.125-71.742z"/>
 </g>
 <g clip-path="url(#a)">
  <path d="m639.82 322.97c-0.54297-2.1016-1.9258-3.8867-3.8281-4.9336-1.8984-1.043-4.1484-1.2617-6.2109-0.59375-2.0664 0.66406-3.7656 2.1523-4.6953 4.1133-0.92969 1.9609-1.0117 4.2148-0.22266 6.2383 16.23 50.434 15.023 104.86-3.4297 154.52-18.453 49.668-53.078 91.68-98.301 119.28-45.223 27.602-98.418 39.188-151.02 32.891s-101.57-30.109-139-67.602c-3.0742-3.0742-8.0586-3.0742-11.133 0l-5.6602 5.6523-7.4141-51.957 51.957 7.4141-5.5117 5.5117c-3.0742 3.0742-3.0742 8.0586 0 11.133 33.688 33.719 78.098 54.617 125.55 59.086 47.457 4.4648 94.984-7.7812 134.38-34.625s68.172-66.598 81.371-112.4c13.199-45.805 9.9922-94.777-9.0703-138.47-1.8203-3.8438-6.3672-5.543-10.266-3.8438-3.8984 1.7031-5.7383 6.1953-4.1562 10.145 10.434 23.789 15.805 49.488 15.766 75.469 0.027344 49.199-19.148 96.465-53.449 131.74-34.297 35.27-81.008 55.766-130.19 57.113-49.18 1.3516-96.945-16.543-133.13-49.879l10.941-10.949v-0.003907c2.125-2.1055 2.8711-5.2305 1.9258-8.0703-0.94141-2.8359-3.4102-4.8945-6.3711-5.3086l-77.934-11.133c-2.457-0.35156-4.9336 0.47266-6.6875 2.2266-1.75 1.7539-2.5781 4.2305-2.2227 6.6836l11.133 77.934h-0.003906c0.41406 2.9609 2.4727 5.4336 5.3086 6.3789 2.8398 0.94531 5.9688 0.19922 8.0742-1.9219l11.281-11.297c40.676 38.246 92.91 61.887 148.49 67.207 55.578 5.3203 111.35-7.9805 158.54-37.812 47.195-29.832 83.137-74.508 102.18-126.99 19.035-52.488 20.09-109.82 2.9922-162.97z"/>
 </g>
</svg>