<?xml version="1.0" encoding="UTF-8"?>
<!-- The Best Svg Icon site in the world: iconSvg.co, Visit us! https://iconsvg.co -->
<svg fill="#000000" width="800px" height="800px" version="1.1" viewBox="144 144 512 512" xmlns="http://www.w3.org/2000/svg">
 <g>
  <path d="m171.71 636.16h251.9c2.0898 0 4.0898-0.83203 5.5664-2.3047 1.4766-1.4766 2.3086-3.4805 2.3086-5.5664v-62.977h70.848c18.781-0.023438 36.793-7.4922 50.074-20.777 13.281-13.281 20.754-31.289 20.773-50.074v-86.59c0-2.0898-0.82812-4.0898-2.3047-5.5664-1.4766-1.4766-3.4805-2.3047-5.5664-2.3047v-15.746h23.617-0.003907c10.438-0.011718 20.441-4.1641 27.82-11.543 7.3789-7.3789 11.527-17.383 11.543-27.816 0-2.0898-0.83203-4.0898-2.3086-5.5664-1.4766-1.4766-3.4766-2.3047-5.5664-2.3047h-78.719c-10.434 0.011718-20.441 4.1641-27.82 11.539-7.375 7.3789-11.527 17.387-11.539 27.82v23.617c-4.3477 0-7.875 3.5234-7.875 7.8711v70.848c0 2.0859-0.82813 4.0898-2.3047 5.5664-1.4766 1.4766-3.4766 2.3047-5.5664 2.3047h-157.44v-8.6602c28.496-12.91 48.664-39.195 53.762-70.059h9.2148c8.4375 0 16.234-4.5 20.453-11.809s4.2188-16.309 0-23.617c-4.2188-7.3047-12.016-11.809-20.453-11.809h-7.8711v-39.359c-0.011718-9.2695-3.2891-18.238-9.2578-25.332s-14.246-11.855-23.379-13.453c-1.5469-4.7383-4.5547-8.8711-8.5898-11.801-4.0312-2.9297-8.8906-4.5117-13.879-4.5156h-78.719c-14.609 0.015625-28.617 5.8242-38.945 16.156-10.332 10.332-16.141 24.336-16.16 38.945v39.359h-7.8711c-8.4375 0-16.234 4.5039-20.453 11.809-4.2188 7.3086-4.2188 16.309 0 23.617s12.016 11.809 20.453 11.809h9.2188c5.0977 30.863 25.266 57.148 53.758 70.059v8.6602h-78.719c-4.3477 0-7.875 3.5234-7.875 7.8711v133.83c0 2.0859 0.83203 4.0898 2.3086 5.5664 1.4766 1.4727 3.4766 2.3047 5.5664 2.3047zm212.54-259.78h7.8711c4.3477 0 7.875 3.5234 7.875 7.8711s-3.5273 7.8711-7.875 7.8711h-7.8711zm-188.93 15.742h-7.8711c-4.3477 0-7.8711-3.5234-7.8711-7.8711s3.5234-7.8711 7.8711-7.8711h7.8711zm80.934 228.29 11.809-47.23h3.4492l11.809 47.23zm1.0469-70.848 12.484-12.484 12.484 12.484-7.8711 7.8711h-9.2266zm264.39-196.8h69.504-0.003907c-1.6328 4.6016-4.6484 8.5859-8.6367 11.402-3.9883 2.8203-8.75 4.3359-13.633 4.3438h-69.5c1.6328-4.6016 4.6523-8.5859 8.6367-11.406 3.9883-2.8164 8.75-4.332 13.633-4.3398zm-23.617 31.488h31.488v15.742l-31.488 0.003906zm-31.488 118.08c6.2656 0 12.27-2.4883 16.699-6.918 4.4297-4.4297 6.918-10.438 6.918-16.699v-62.977h47.23v78.719c-0.015625 14.609-5.8242 28.617-16.156 38.949-10.332 10.328-24.336 16.141-38.945 16.156h-78.723c-4.3477 0-7.8711 3.5234-7.8711 7.8711v62.977h-61.465l20.836-118.08zm-148.3 118.08h-18.734l-13.18-52.688 7.0312-7.0273 2.3047 2.3047c1.4766 1.4766 3.4805 2.3086 5.5664 2.3086h0.55859c2.2812-0.16797 4.375-1.3164 5.7383-3.1484l27.457-36.613zm14.477-118.08-32.34 43.121-19.504-19.508 23.617-23.617zm-102.34-220.42h78.719c2.0898 0 4.0938 0.82812 5.5664 2.3047 1.4766 1.4766 2.3086 3.4805 2.3086 5.5664 0 2.0898 0.82812 4.0898 2.3047 5.5664 1.4766 1.4766 3.4766 2.3086 5.5664 2.3086 4.8672 0.019532 9.6094 1.543 13.578 4.3594 3.9648 2.8203 6.9688 6.793 8.5898 11.383h-155.21c1.8281-8.8828 6.6641-16.867 13.688-22.602 7.0273-5.7383 15.816-8.875 24.887-8.8867zm-39.359 110.21v-39.359c0-6.2617 2.4883-12.27 6.918-16.699 4.4258-4.4297 10.434-6.918 16.699-6.918h110.21c6.2617 0 12.27 2.4883 16.699 6.918 4.4297 4.4297 6.918 10.438 6.918 16.699v39.359c0.054687 15.852-4.707 31.344-13.652 44.426-8.9453 13.086-21.656 23.141-36.445 28.84-3.0195 1.1797-5.0078 4.0898-5.0078 7.3281v18.484l-23.617 23.617-23.617-23.617 0.003906-18.484c-0.003906-3.2383-1.9883-6.1484-5.0078-7.3281-14.789-5.6992-27.5-15.754-36.445-28.84-8.9453-13.082-13.707-28.574-13.652-44.426zm43.973 110.21 23.617 23.617-19.508 19.508-32.34-43.121zm-3.0391 59.832c1.3672 1.832 3.4609 2.9805 5.7383 3.1484h0.55859c2.0898 0 4.0898-0.83203 5.5664-2.3086l2.3086-2.3047 7.0312 7.0312-13.18 52.684h-18.734l-16.746-94.863zm-72.422-59.828h24.883l20.836 118.08h-45.719z"/>
  <path d="m559.01 219.1c-1.0352-0.23438-2.1094-0.23438-3.1484 0-0.49219 0.085938-0.96875 0.24609-1.4141 0.47266-0.50391 0.17188-0.98047 0.41016-1.418 0.71094l-1.1797 0.94531c-0.71484 0.75-1.2734 1.6328-1.6562 2.5977-1.2539 2.9258-0.59766 6.3242 1.6562 8.5781 0.76563 0.69531 1.6406 1.2539 2.5977 1.6523 1.9023 0.83984 4.0742 0.83984 5.9805 0 0.95312-0.39844 1.832-0.95703 2.5977-1.6523 2.2539-2.2539 2.9102-5.6523 1.6523-8.5781-0.37891-0.96484-0.94141-1.8477-1.6523-2.5977l-1.1797-0.94531c-0.4375-0.30078-0.91406-0.53906-1.418-0.71094-0.44531-0.22656-0.92188-0.38672-1.418-0.47266z"/>
  <path d="m588.93 215.68c-0.03125-20.312-10.203-39.266-27.109-50.516-2.6445-1.7656-6.0938-1.7656-8.7383 0-16.914 11.25-27.094 30.203-27.129 50.516l-44.934 44.934c-1.4727 1.4766-2.2969 3.4766-2.2969 5.5664v31.488c0 2.0859 0.82812 4.0898 2.3047 5.5664 1.4766 1.4727 3.4805 2.3047 5.5664 2.3047h47.23v15.742h15.742l0.003906-15.742h15.742v15.742h15.742l0.003907-15.742h47.234c2.0859 0 4.0898-0.83203 5.5664-2.3047 1.4727-1.4766 2.3047-3.4805 2.3047-5.5664v-31.488c0-2.0898-0.83203-4.0898-2.3086-5.5664zm-62.977 74.113h-31.488v-20.355l31.488-31.488zm47.23 0h-31.484v-73.957c-0.015624-13.176 5.7383-25.695 15.742-34.266 10.008 8.5703 15.758 21.09 15.746 34.266zm47.23 0h-31.484v-51.844l31.488 31.488z"/>
  <path d="m321.28 384.25c0-4.3477 3.5234-7.8711 7.8711-7.8711 4.3477 0 7.875 3.5234 7.875 7.8711v7.8711h15.742v-7.8711c0-8.4375-4.5-16.234-11.809-20.453-7.3047-4.2188-16.309-4.2188-23.613 0-7.3086 4.2188-11.809 12.016-11.809 20.453v7.8711h15.742z"/>
  <path d="m258.3 392.12h15.742l0.003906-7.8711c0-8.4375-4.5-16.234-11.809-20.453-7.3086-4.2188-16.309-4.2188-23.617 0-7.3047 4.2188-11.809 12.016-11.809 20.453v7.8711h15.742l0.003906-7.8711c0-4.3477 3.5234-7.8711 7.8711-7.8711 4.3477 0 7.8711 3.5234 7.8711 7.8711z"/>
  <path d="m289.79 455.1c8.3516 0 16.363-3.3164 22.266-9.2227 5.9062-5.9023 9.2227-13.914 9.2227-22.266v-15.742h-62.977v15.742c0 8.3516 3.3203 16.363 9.2227 22.266 5.9062 5.9062 13.914 9.2227 22.266 9.2227zm15.742-31.488h0.003906c0 5.625-3 10.824-7.8711 13.637-4.875 2.8125-10.875 2.8125-15.746 0-4.8711-2.8125-7.8711-8.0117-7.8711-13.637z"/>
 </g>
</svg>