<?xml version="1.0" encoding="UTF-8"?>
<!-- The Best Svg Icon site in the world: iconSvg.co, Visit us! https://iconsvg.co -->
<svg fill="#000000" width="800px" height="800px" version="1.1" viewBox="144 144 512 512" xmlns="http://www.w3.org/2000/svg">
 <g>
  <path d="m542.1 318.7c4.0508-25.418-0.91406-51.457-14.035-73.602l36.359-69.746c1.668-3.2109 0.93359-7.1484-1.7812-9.5391-2.7188-2.3906-6.7148-2.625-9.6875-0.5625l-59.277 41.164c-23.223-16.695-50.918-26.043-79.508-26.828-38.574 0.49609-50.57-12.73-50.578-12.738-2.1406-2.6992-5.793-3.6914-9.0039-2.4453-3.2148 1.2422-5.2461 4.4336-5.0156 7.8711 1.2266 16.879 6.5117 33.215 15.398 47.617-2.6367 1.3086-4.3086 3.9844-4.332 6.9258v16.297c-27.938 2.5781-54.461 13.477-76.145 31.281-28.922 25.461-46.656 23.273-46.656 23.273-3.3867-0.64844-6.7969 0.98047-8.4219 4.0195-1.6211 3.0391-1.082 6.7812 1.3359 9.2344 7.25 7.1055 15.34 13.297 24.09 18.445-13.031 9.4375-24.988 20.273-35.66 32.312-24.797 28.16-44.328 23.012-45.02 22.828l-0.003906 0.003906c-3.4492-1.1211-7.2188 0.26172-9.125 3.3477-1.9062 3.0898-1.457 7.0781 1.0898 9.6641 10.895 10.883 23.941 19.375 38.305 24.93-18.469 18.383-31.445 41.559-37.461 66.914-5.5273 22.059-3.8672 45.305 4.7461 66.352 8.3359 18.895 18.477 37 28.277 54.488 4.0547 7.2578 8.1094 14.5 12.043 21.812v0.003906c1.3672 2.543 4.0234 4.1328 6.9102 4.1406h0.69922c3.1367-0.28125 5.8008-2.4023 6.7812-5.3945l6.793-20.781c6.3555-20.895 20.863-38.352 40.242-48.43 20.207-10.422 36.094-27.633 44.871-48.609 14.254-6.8594 25.59-18.586 31.961-33.066 6.375-14.48 7.3672-30.758 2.8008-45.906l-6.3672-21.254h-0.003906c19.812-11.117 35.105-28.82 43.227-50.035 8.1211-21.215 8.5547-44.605 1.2305-66.109 2.8906 0.69922 5.8477 1.0625 8.8242 1.0898 4.3477 0 7.8711-3.5273 7.8711-7.875 0-4.3477-3.5234-7.8711-7.8711-7.8711-6.2656 0-12.273-2.4883-16.699-6.918-4.4297-4.4258-6.918-10.434-6.918-16.699v-23.613h23.617c6.2617 0 12.27 2.4883 16.699 6.9141 4.4258 4.4297 6.9141 10.438 6.9141 16.699 0 2.0898 0.83203 4.0898 2.3086 5.5664 1.4766 1.4766 3.4766 2.3086 5.5664 2.3086 1.1602-0.007812 2.3008-0.27734 3.3438-0.78906 1.0938 4.9023 3.7383 9.3164 7.543 12.594l24.812 21.254v0.003906c5.3047 4.5586 12.363 6.5195 19.262 5.3516 4.7812-0.82422 9.1836-3.1211 12.594-6.5664l89.922 89.523c21.809 21.82 31.449 32.605 31.449 59.684 0 19.516-16.02 47.23-30.984 47.23h-7.9805c-5.7578 0.023437-11.406-1.5703-16.305-4.5977-4.8945-3.0273-8.8477-7.3633-11.406-12.523-2.1875-4.3984-5.7109-7.9922-10.062-10.273-4.3516-2.2812-9.3125-3.1328-14.176-2.4297-27.742 3.9258-56.016 1.3789-82.609-7.4492-13.66-4.5391-25.547-13.27-33.965-24.949-8.418-11.68-12.941-25.715-12.926-40.113 0-4.3477-3.5273-7.8711-7.875-7.8711s-7.8711 3.5234-7.8711 7.8711c-5.168 21.496-2.0312 44.145 8.7812 63.426s28.5 33.773 49.535 40.574c-5.7734 39.309-5.0859 79.297 2.0312 118.39l1.0547 5.9023h-179.48c-4.3477 0-7.875 3.5273-7.875 7.875 0 4.3477 3.5273 7.8711 7.875 7.8711h188.93c2.3359 0 4.5508-1.0352 6.0469-2.8281 1.4961-1.793 2.1172-4.1562 1.6992-6.4531l-2.7617-15.184v-0.003906c-8.0977-44.406-7.5117-89.961 1.7227-134.14 22.961 5.0547 46.641 5.9609 69.922 2.6758 3.2578-0.44531 6.4375 1.2227 7.9258 4.1562 3.8555 7.7812 9.8125 14.328 17.203 18.891 7.3867 4.5664 15.906 6.9688 24.59 6.9375h7.9805c26.664 0 46.73-38.203 46.73-62.977 0-33.125-13.027-47.773-36.078-70.848zm-6.3945-122.32-2.9688 5.6992c-1.4492-0.21094-2.9219-0.35547-4.3203-0.64453zm-46.367 88.953 0.003906 0.003907c-1.1836 2.0078-3.1953 3.3906-5.4922 3.7734-2.3008 0.38281-4.6523-0.27344-6.418-1.7891l-24.812-21.254-0.003907-0.003906c-1.4102-1.2812-2.293-3.043-2.4688-4.9414 13.59 8.2969 29.184 12.727 45.105 12.816zm10.027-19.246c-0.48047 0-0.92188 0.085937-1.4102 0.085937l0.003906 0.003906c-15.523 0.44922-30.742-4.3438-43.207-13.605l26.844-18.633c9.5859 4.4102 19.867 7.1016 30.383 7.9609zm-9.4453-37.902 29.543-20.469h0.003906c3.0742 0.83203 6.1875 1.5078 9.3281 2.0234l-12.832 24.617c-8.9883-0.48828-17.816-2.5781-26.07-6.1719z"/>
  <path d="m596.8 462.98c2.0859 0 4.0898-0.83203 5.5664-2.3086 1.4727-1.4766 2.3047-3.4766 2.3047-5.5664v-15.742c0-4.3477-3.5234-7.8711-7.8711-7.8711-4.3477 0-7.875 3.5234-7.875 7.8711v15.742c0 2.0898 0.83203 4.0898 2.3086 5.5664 1.4766 1.4766 3.4766 2.3086 5.5664 2.3086z"/>
  <path d="m455.1 360.64c0-5.625 3-10.82 7.875-13.633 4.8711-2.8125 10.871-2.8125 15.742 0s7.8711 8.0078 7.8711 13.633c0 4.3477 3.5234 7.875 7.8711 7.875 4.3477 0 7.875-3.5273 7.875-7.875 0-11.246-6.0039-21.645-15.746-27.27-9.7422-5.625-21.746-5.625-31.488 0-9.7422 5.625-15.742 16.023-15.742 27.27 0 4.3477 3.5234 7.875 7.8711 7.875 4.3477 0 7.8711-3.5273 7.8711-7.875z"/>
  <path d="m274.05 163.84c-4.3477 0-7.8711 3.5273-7.8711 7.875v7.8711c0 4.3477 3.5234 7.8711 7.8711 7.8711s7.8711-3.5234 7.8711-7.8711v-7.8711c0-2.0898-0.82812-4.0898-2.3047-5.5664-1.4766-1.4766-3.4805-2.3086-5.5664-2.3086z"/>
  <path d="m266.18 218.94c0 4.3477 3.5234 7.8711 7.8711 7.8711s7.8711-3.5234 7.8711-7.8711v-7.8711c0-4.3477-3.5234-7.8711-7.8711-7.8711s-7.8711 3.5234-7.8711 7.8711z"/>
  <path d="m258.3 187.45h-7.8711c-4.3477 0-7.8711 3.5234-7.8711 7.8711 0 4.3477 3.5234 7.875 7.8711 7.875h7.8711c4.3477 0 7.875-3.5273 7.875-7.875 0-4.3477-3.5273-7.8711-7.875-7.8711z"/>
  <path d="m289.79 203.2h7.875c4.3477 0 7.8711-3.5273 7.8711-7.875 0-4.3477-3.5234-7.8711-7.8711-7.8711h-7.875c-4.3477 0-7.8711 3.5234-7.8711 7.8711 0 4.3477 3.5234 7.875 7.8711 7.875z"/>
  <path d="m510.21 502.34c-4.3477 0-7.8711 3.5234-7.8711 7.8711v7.8711c0 4.3477 3.5234 7.8711 7.8711 7.8711 4.3477 0 7.8711-3.5234 7.8711-7.8711v-7.8711c0-2.0898-0.82812-4.0898-2.3047-5.5664-1.4766-1.4766-3.4805-2.3047-5.5664-2.3047z"/>
  <path d="m502.34 557.44c0 4.3477 3.5234 7.875 7.8711 7.875 4.3477 0 7.8711-3.5273 7.8711-7.875v-7.8711c0-4.3477-3.5234-7.8711-7.8711-7.8711-4.3477 0-7.8711 3.5234-7.8711 7.8711z"/>
  <path d="m494.46 525.95h-7.8711c-4.3477 0-7.8711 3.5273-7.8711 7.875 0 4.3477 3.5234 7.8711 7.8711 7.8711h7.8711c4.3477 0 7.875-3.5234 7.875-7.8711 0-4.3477-3.5273-7.875-7.875-7.875z"/>
  <path d="m525.95 541.7h7.875c4.3477 0 7.8711-3.5234 7.8711-7.8711 0-4.3477-3.5234-7.875-7.8711-7.875h-7.875c-4.3477 0-7.8711 3.5273-7.8711 7.875 0 4.3477 3.5234 7.8711 7.8711 7.8711z"/>
 </g>
</svg>