<?xml version="1.0" encoding="UTF-8"?>
<!-- The Best Svg Icon site in the world: iconSvg.co, Visit us! https://iconsvg.co -->
<svg fill="#000000" width="800px" height="800px" version="1.1" viewBox="144 144 512 512" xmlns="http://www.w3.org/2000/svg">
 <g>
  <path d="m636.52 497.18c-5.3047-13.344-16.215-23.676-29.832-28.238-13.602-4.5117-28.492-2.918-40.832 4.375l-95.988 57.672h-1.5938c3.1914-6.3828 4.8672-13.414 4.9062-20.551-0.035156-12.402-4.9492-24.293-13.684-33.102-8.7344-8.8086-20.582-13.824-32.984-13.965h-142.26c-2.6445-0.003906-5.2305 0.78125-7.4219 2.2539l-22.672 14.852c-2.2617-5.1367-5.9766-9.4922-10.691-12.535-4.7148-3.0391-10.219-4.6289-15.824-4.5703h-36.461c-7.5391 0.035156-14.754 3.0547-20.07 8.3984-5.3164 5.3398-8.3047 12.57-8.3047 20.109v118.26c-0.035156 7.5469 2.9414 14.797 8.2656 20.148 5.3242 5.3477 12.562 8.3555 20.109 8.3555h37.254c5.6133 0.078125 11.125-1.5039 15.84-4.5469 4.7188-3.043 8.4336-7.4102 10.676-12.555l22.273 14.848c2.1953 1.4766 4.7812 2.2617 7.4258 2.2539h188.8c2.3789 0 4.7148-0.64062 6.7617-1.8555l135.5-79.551h-0.003907c9.9961-5.9492 17.566-15.238 21.375-26.227 3.8086-10.992 3.6094-22.973-0.55859-33.832zm-406.1 112.96c0 1.0977-0.89062 1.9883-1.9883 1.9883h-37.254c-1.0469-0.070312-1.8594-0.94141-1.8555-1.9883v-118.26c-0.003906-1.0508 0.80859-1.9219 1.8555-1.9883h37.254c1.0977 0 1.9883 0.88672 1.9883 1.9883zm372.02-75.305-132.58 77.293h-181.64l-31.289-20.816v-80.477l31.289-20.949 138.29 0.003906c7.3398 0 14.125 3.9141 17.797 10.273 3.6719 6.3594 3.6719 14.191 0 20.551-3.6719 6.3555-10.457 10.273-17.797 10.273h-74.246c-7.3242 0-13.258 5.9375-13.258 13.258 0 7.3242 5.9336 13.258 13.258 13.258h121.58c2.418-0.019531 4.7891-0.66016 6.8945-1.8555l99.172-59.527h-0.003906c5.6992-3.4883 12.664-4.2188 18.961-1.9883 5.5156 1.8008 10.117 5.6719 12.836 10.801 2.7188 5.125 3.3398 11.105 1.7383 16.684-1.6016 5.5781-5.3047 10.316-10.332 13.215z"/>
  <path d="m307.19 269.54c12.812 7.9414 27.617 12.078 42.691 11.93 11.855-0.21484 23.613-2.2266 34.867-5.9648v137.75c0 7.3203 5.9375 13.258 13.262 13.258 7.3203 0 13.258-5.9375 13.258-13.258v-139.34c12.754 4.6406 26.199 7.1055 39.773 7.293 14.73 0.050781 29.191-3.9883 41.762-11.668 41.895-26.516 49.852-85.383 50.117-87.902 0.83984-6.8047-3.6406-13.129-10.344-14.582-46.934-10.875-83.523-5.7031-108.32 14.051-10.926 9.043-19.293 20.793-24.262 34.074-4.9727-13.281-13.336-25.031-24.266-34.074-24.789-19.754-61.383-24.926-108.32-14.051-6.6484 1.5117-11.062 7.8203-10.211 14.582-0.26562 2.5195 7.6914 61.914 49.984 87.902zm113.22-22.141h0.003907c0.20312-17.621 7.6914-34.367 20.68-46.273 16.176-13.258 40.836-16.707 73.449-11.27h0.003906c-4.3281 22.711-16.77 43.066-35.004 57.277-18.312 9.7031-40.074 10.438-59 1.9883zm-61.516-46.273c13.051 11.73 20.68 28.332 21.082 45.875v1.7227c-19.016 8.7461-41.012 8.1602-59.531-1.5898-18.352-14.023-30.98-34.238-35.531-56.879 33.145-5.4336 57.805-1.7227 73.98 10.871z"/>
 </g>
</svg>