<?xml version="1.0" encoding="UTF-8"?>
<!-- The Best Svg Icon site in the world: iconSvg.co, Visit us! https://iconsvg.co -->
<svg fill="#000000" width="800px" height="800px" version="1.1" viewBox="144 144 512 512" xmlns="http://www.w3.org/2000/svg">
 <g>
  <path d="m601.16 590.25-47.23-31.488c-2.418-1.6055-5.5312-1.7695-8.0781-0.39062-2.5625 1.3672-4.1602 4.0352-4.1602 6.9414v23.617h-330.62v-212.54c0-4.3477-3.5234-7.8711-7.8711-7.8711-4.3477 0-7.8711 3.5234-7.8711 7.8711v220.42c0 4.3516 3.5234 7.8711 7.8711 7.8711h338.5v23.617c0 2.9062 1.5977 5.5742 4.1602 6.9414 1.1602 0.61719 2.4375 0.92578 3.7109 0.92578 1.5273 0 3.0469-0.44531 4.3672-1.3203l47.23-31.488c2.1914-1.4609 3.5078-3.9219 3.5078-6.5508 0-2.6289-1.3164-5.0898-3.5078-6.5508zm-43.727 23.332v-33.562l25.168 16.781z"/>
  <path d="m596.8 195.33h-338.5v-23.617c0-2.9023-1.5977-5.5703-4.1602-6.9414-2.5586-1.3711-5.6641-1.2188-8.0781 0.39062l-47.23 31.488c-2.1914 1.4609-3.5078 3.918-3.5078 6.5508 0 2.6328 1.3164 5.0898 3.5039 6.5508l47.23 31.488c1.3242 0.87891 2.8438 1.3203 4.3711 1.3203 1.2734 0 2.5508-0.30859 3.7148-0.92969 2.5586-1.3711 4.1562-4.0391 4.1562-6.9414v-23.617h330.62v212.54c0 4.3516 3.5234 7.8711 7.8711 7.8711s7.8711-3.5195 7.8711-7.8711v-220.42c0.003906-4.3438-3.5234-7.8672-7.8672-7.8672zm-354.24 24.648-25.168-16.777 25.168-16.777z"/>
  <path d="m407.87 274.05c4.3477 0 7.8711-3.5234 7.8711-7.8711 0-4.3477-3.5234-7.8711-7.8711-7.8711h-39.359c-4.3477 0-7.8711 3.5234-7.8711 7.8711v251.91c0 4.3516 3.5234 7.8711 7.8711 7.8711h62.977c4.3477 0 7.8711-3.5195 7.8711-7.8711v-220.42c0-4.3477-3.5234-7.8711-7.8711-7.8711-4.3477 0-7.8711 3.5234-7.8711 7.8711v212.54h-47.23v-236.16z"/>
  <path d="m494.46 510.21c-4.3477 0-7.8711 3.5195-7.8711 7.8711s3.5234 7.8711 7.8711 7.8711h47.23c4.3477 0 7.8711-3.5195 7.8711-7.8711v-188.93c0-4.3477-3.5234-7.8711-7.8711-7.8711h-62.977c-4.3477 0-7.8711 3.5234-7.8711 7.8711v157.44c0 4.3516 3.5234 7.8711 7.8711 7.8711s7.8711-3.5195 7.8711-7.8711v-149.57h47.23v173.18z"/>
  <path d="m258.3 400c-4.3477 0-7.8711 3.5234-7.8711 7.8711v110.21c0 4.3516 3.5234 7.8711 7.8711 7.8711h62.977c4.3477 0 7.8711-3.5195 7.8711-7.8711v-141.7c0-4.3477-3.5234-7.8711-7.8711-7.8711h-39.359c-4.3477 0-7.8711 3.5234-7.8711 7.8711 0 4.3477 3.5234 7.8711 7.8711 7.8711h31.488v125.95h-47.23v-102.34c0-4.3477-3.5273-7.8711-7.875-7.8711z"/>
 </g>
</svg>