<?xml version="1.0" encoding="UTF-8"?>
<!-- The Best Svg Icon site in the world: iconSvg.co, Visit us! https://iconsvg.co -->
<svg fill="#000000" width="800px" height="800px" version="1.1" viewBox="144 144 512 512" xmlns="http://www.w3.org/2000/svg">
 <path d="m629.18 551.23-66.801-66.785c-3.0898-2.9844-8-2.9414-11.035 0.097656-3.0352 3.0352-3.0781 7.9453-0.097656 11.035l66.801 66.785h0.003907c3.0859 2.9844 7.9961 2.9414 11.035-0.097657 3.0352-3.0352 3.0781-7.9453 0.09375-11.035zm-111.32-44.523c-3.0898-2.9844-8-2.9414-11.035 0.097656-3.0391 3.0352-3.082 7.9453-0.097657 11.035l53.027 53.027v-0.003906c3.0898 2.9844 8 2.9414 11.035-0.09375 3.0352-3.0391 3.0781-7.9453 0.09375-11.035zm-22.262 44.523c-3.0898-2.9805-8-2.9375-11.035 0.097656-3.0391 3.0352-3.082 7.9453-0.097656 11.035l66.785 66.801c3.0898 2.9844 8 2.9414 11.035-0.09375 3.0391-3.0391 3.082-7.9492 0.097656-11.035zm51.562-114.84h-0.003906c-10.109-20.156-21.5-39.645-34.102-58.348l95.426-19.477c2.8438-0.57422 5.1406-2.668 5.9766-5.4453 0.83594-2.7773 0.078125-5.793-1.9766-7.8398l-56.68-56.68c-15.043-15.18-36.188-22.68-57.434-20.371l-75.477 7.8711c-30.879-26.527-65.23-48.727-102.1-65.984-44.738-20.789-92.555-34.176-141.59-39.645-2.3867-0.27344-4.7695 0.55469-6.4688 2.2539s-2.5273 4.082-2.2539 6.4688c5.4688 49.031 18.855 96.848 39.645 141.59 17.246 36.852 39.43 71.188 65.938 102.05l-7.8711 75.477h-0.003906c-2.2461 21.242 5.2422 42.359 20.375 57.434l56.68 56.68c1.4766 1.4766 3.4844 2.3008 5.5703 2.2969 0.76953 0.007812 1.5352-0.10547 2.2695-0.32812 2.7812-0.83203 4.8828-3.125 5.4609-5.9688l19.477-95.426c18.703 12.602 38.191 23.992 58.348 34.102 3.0273 1.5078 6.6758 0.91016 9.0703-1.4766l100.2-100.2c2.3828-2.375 2.9961-6 1.5234-9.0234zm-47.23-152.54h-0.003907c16.535-1.7578 32.977 4.0742 44.715 15.852l46.367 46.367-87.742 17.902c-19.074-26.613-40.695-51.305-64.551-73.73zm-153.86 307.15-46.367-46.363c-11.766-11.734-17.594-28.16-15.852-44.684l6.3906-61.309c22.426 23.859 47.117 45.48 73.73 64.551zm92.293-60.488c-93.121-46.703-168.3-122.73-213.96-216.37-18.668-40.152-31.16-82.898-37.047-126.79 43.887 5.8867 86.633 18.379 126.79 37.047 93.645 45.66 169.67 120.85 216.37 213.98zm-187.7-279.85c-5.9062 5.9023-9.2266 13.914-9.2266 22.266-0.003906 8.3516 3.3164 16.359 9.2188 22.266 5.9062 5.9062 13.918 9.2227 22.27 9.2227 8.3516 0 16.359-3.3164 22.266-9.2227s9.2227-13.914 9.2227-22.266c-0.003907-8.3516-3.3203-16.363-9.2266-22.266-5.9062-5.9062-13.914-9.2227-22.262-9.2227-8.3516 0-16.359 3.3164-22.262 9.2227zm33.391 33.391c-2.9531 2.9531-6.957 4.6133-11.133 4.6133s-8.1797-1.6562-11.133-4.6094-4.6133-6.957-4.6133-11.133c0-4.1758 1.6602-8.1836 4.6133-11.133 2.9531-2.9531 6.957-4.6133 11.133-4.6133s8.1797 1.6602 11.133 4.6133 4.6094 6.957 4.6094 11.133c0 4.1719-1.6562 8.1758-4.6094 11.129zm144.72 89.062v0.003906c-5.9023-5.9062-13.91-9.2227-22.262-9.2227-8.3477 0-16.355 3.3164-22.262 9.2227l-11.129 11.129c-4 3.8633-9.7383 5.3281-15.102 3.8594-5.3633-1.4688-9.5508-5.6602-11.02-11.02-1.4727-5.3633-0.003906-11.102 3.8594-15.102l11.133-11.133-0.003906 0.003906c2.9531-2.9531 6.957-4.6133 11.133-4.6133 4.1719 0 8.1758 1.6602 11.129 4.6133 3.0898 2.9805 8 2.9375 11.035-0.097656 3.0352-3.0352 3.0781-7.9453 0.097657-11.035-5.9062-5.9023-13.914-9.2188-22.262-9.2188-8.3516 0-16.359 3.3164-22.262 9.2188l-5.5742-5.5742c-3.0898-2.9844-8-2.9414-11.035 0.097656-3.0391 3.0352-3.082 7.9453-0.097656 11.035l5.5742 5.5742c-7.7266 7.9961-10.66 19.477-7.7188 30.199 2.9414 10.723 11.316 19.102 22.043 22.043 10.723 2.9375 22.203 0.003906 30.199-7.7188l11.133-11.133c3.9961-3.8633 9.7383-5.3281 15.098-3.8594 5.3633 1.4727 9.5508 5.6602 11.023 11.023 1.4688 5.3594 0.003907 11.098-3.8594 15.098l-11.133 11.133c-2.9531 2.9492-6.957 4.6094-11.129 4.6094-4.1758 0-8.1797-1.6602-11.133-4.6094-3.0898-2.9844-8-2.9414-11.035 0.09375-3.0352 3.0391-3.0781 7.9492-0.09375 11.035 5.9023 5.9062 13.91 9.2188 22.262 9.2188 8.3477 0 16.355-3.3125 22.262-9.2188l5.5742 5.5742c3.0859 2.9844 7.9961 2.9414 11.035-0.09375 3.0352-3.0391 3.0781-7.9492 0.09375-11.035l-5.5742-5.5742c5.9062-5.9062 9.2188-13.914 9.2188-22.262 0-8.3516-3.3125-16.359-9.2188-22.262z"/>
</svg>