<?xml version="1.0" encoding="UTF-8"?>
<!-- The Best Svg Icon site in the world: iconSvg.co, Visit us! https://iconsvg.co -->
<svg width="800px" height="800px" version="1.1" viewBox="144 144 512 512" xmlns="http://www.w3.org/2000/svg">
 <defs>
  <clipPath id="b">
   <path d="m185 148.09h43v41.906h-43z"/>
  </clipPath>
  <clipPath id="a">
   <path d="m246 610h42v41.902h-42z"/>
  </clipPath>
 </defs>
 <path d="m554.55 599.75h-297.3c-3.2578 0-5.8359-3.0156-5.8359-6.2734v-113.44c0-0.99219 0.16016-1.9727 0.64063-2.8438l18.055-33.02v-226.22h-4.6016c-3.2578 0-6.2227-2.2852-6.2227-5.5391v-14.156c0-3.2578 2.9609-5.8867 6.2227-5.8867h215.49c1.543 0 3.0234 0.59766 4.1289 1.6797l73.523 72.07c1.1328 1.1094 1.7422 2.625 1.7422 4.2109v323.14c0 3.2539-2.5859 6.2695-5.8438 6.2695zm-291.32-12.789h285.36v-314.15l-69.996-68.629h-207.49v2.9531h5.0312c3.2578 0 6.7773 2.0273 6.7773 5.2812v233.27c0 0.99219-0.65234 1.9727-1.1328 2.8438l-18.547 33.016z"/>
 <path d="m553 276.02h-0.023438-71.57c-3.2578 0-5.6367-2.5312-5.6367-5.7891v-71.848c0-2.3867 1.3086-4.5391 3.5156-5.4531 2.207-0.91406 4.6797-0.40625 6.3672 1.2891l71.234 71.543c1.25 1.082 2.0312 2.625 2.0312 4.4141-0.003906 3.2578-2.6602 5.8438-5.918 5.8438zm-65.422-10.824h51.195l-51.195-52.531z"/>
 <path d="m282.9 446.25c0 3.2578-2.6406 5.8984-5.8984 5.8984h-37.402c-3.2578 0-5.8984-2.6406-5.8984-5.8984v-233.22c0-3.2578 2.6406-5.8984 5.8984-5.8984h37.402c3.2578 0 5.8984 2.6406 5.8984 5.8984zm-37.391-5.9062h24.602l-0.003906-222.39h-24.598z"/>
 <path d="m282.9 257.32c0 3.2578-2.6406 5.8984-5.8984 5.8984h-37.402c-3.2578 0-5.8984-2.6406-5.8984-5.8984v-44.293c0-3.2578 2.6406-5.8984 5.8984-5.8984h37.402c3.2578 0 5.8984 2.6406 5.8984 5.8984zm-37.391-5.9102h24.602l-0.003906-33.457h-24.598z"/>
 <path d="m282.9 275.04c0 3.2578-2.6406 5.8984-5.8984 5.8984h-37.402c-3.2578 0-5.8984-2.6406-5.8984-5.8984v-17.723c0-3.2578 2.6406-5.8984 5.8984-5.8984h37.402c3.2578 0 5.8984 2.6406 5.8984 5.8984zm-37.391-5.9102h24.602v-5.9023h-24.602z"/>
 <path d="m271.09 213.04c0 3.2578-2.6406 5.8984-5.8984 5.8984h-14.77c-3.2578 0-5.8984-2.6406-5.8984-5.8984v-28.547c0-3.2578 2.6406-5.8984 5.8984-5.8984h14.77c3.2578 0 5.8984 2.6406 5.8984 5.8984zm-15.742-5.9102h3.9375l-0.003906-16.727h-3.9375z"/>
 <path d="m291.27 305.62c-3.2578 0-5.4102-2.6406-5.4102-5.8984v-66.016h-9.7305c-3.2578 0-5.8984-2.6445-5.8984-5.9023 0-3.2578 2.6406-5.9023 5.8984-5.9023h15.336c3.2578 0 5.2148 2.6016 5.2148 5.8594v71.965c0.003907 3.2539-2.1523 5.8945-5.4102 5.8945z"/>
 <path d="m257.13 487.57h-0.0625c-2.2227 0-4.2461-1.2969-5.2305-3.293l-17.59-35.664c-0.90234-1.8281-0.79688-3.8789 0.28125-5.6094 1.0781-1.7305 2.9727-2.668 5.0078-2.668h36.102c2.0586 0 3.9727 0.95703 5.043 2.7188 1.0703 1.7617 1.1445 3.8945 0.19531 5.7227l-18.512 35.637c-1.0156 1.957-3.0352 3.1562-5.2344 3.1562zm-8.1055-35.422 8.2383 16.699 8.668-16.699z"/>
 <path d="m406.47 502.51c-36.617 0-66.406-29.801-66.406-66.434 0-36.605 29.789-66.387 66.406-66.387 36.621 0 66.418 29.781 66.418 66.387-0.003906 36.633-29.797 66.434-66.418 66.434zm0-121.02c-30.113 0-54.609 24.488-54.609 54.59 0 30.125 24.496 54.633 54.609 54.633 30.117 0 54.617-24.508 54.617-54.633 0-30.102-24.5-54.59-54.617-54.59z"/>
 <path d="m420.05 547.6h-27.137c-3.2578 0-6.6992-2.7695-6.6992-6.0312v-18.66c-1.9688-0.57031-4.5078-1.2422-6.8477-1.9453l-8.832 15.652c-0.78125 1.3555-1.9727 2.3438-3.4844 2.75-1.5117 0.40234-3.0703 0.19141-4.4297-0.58984l-23.238-13.445c-2.8203-1.6289-3.7734-5.2344-2.1445-8.0547l9.0391-15.656c-1.8125-1.7031-3.6602-3.5547-5.3516-5.3477l-15.641 9.0195c-2.8242 1.6289-6.4297 0.66016-8.0547-2.1602l-13.445-23.301c-1.6289-2.8203-0.66016-6.4297 2.1602-8.0586l15.637-9.1992c-0.71094-2.3594-1.3867-4.5195-1.9492-7.4688h-17.562c-3.2578 0-6.3867-2.2969-6.3867-5.5547v-27.133c0-3.2578 3.1289-5.6875 6.3867-5.6875h17.57c0.55859-1.9688 1.2266-4.957 1.9375-7.3008l-15.617-9.0195c-1.3594-0.78125-2.3516-2.0977-2.7578-3.6094s-0.19531-3.1367 0.58594-4.4961l13.445-23.293c1.6289-2.8203 5.2344-3.793 8.0586-2.1602l15.648 9.0312c1.6875-1.7852 3.5352-3.625 5.3477-5.3203l-9.0195-15.641c-1.625-2.8203-0.66406-6.4219 2.1562-8.0547l23.277-13.469c1.3555-0.78516 2.9727-0.99609 4.4805-0.59375 1.5117 0.40625 2.8047 1.3984 3.5859 2.7539l8.6055 15.645c2.3594-0.71094 4.875-1.3867 6.8438-1.9531v-17.676c0-3.2578 3.4414-6.3594 6.6992-6.3594h27.137c3.2578 0 5.5273 3.1016 5.5273 6.3594v17.684c2.9531 0.57031 5.0703 1.2422 7.4062 1.9453l9.1133-15.645c0.78125-1.3555 2.1172-2.3477 3.6289-2.75 1.5117-0.40625 3.1484-0.19141 4.5039 0.58984l23.309 13.473c1.3555 0.78516 2.3477 2.0742 2.7539 3.5859 0.40234 1.5117 0.19141 3.1211-0.58984 4.4766l-9.043 15.637c1.7969 1.6836 3.6484 3.5273 5.3398 5.3242l15.648-9.0195c2.8242-1.625 6.4258-0.66016 8.0547 2.1602l13.469 23.312c0.78516 1.3594 0.99609 2.9766 0.58594 4.4922-0.41016 1.5156-1.4102 2.8047-2.7695 3.582l-15.637 9.0195c0.70703 2.3242 1.3789 5.3203 1.9492 7.2891l17.586-0.003906c3.2578 0 5.2148 2.4297 5.2148 5.6875v27.133c0 3.2578-1.957 5.5547-5.2148 5.5547h-17.602c-0.56641 2.9531-1.2422 5.1172-1.957 7.4688l15.672 9.1133c1.3555 0.78125 2.3477 2.1133 2.7539 3.625 0.40625 1.5117 0.19531 3.1445-0.58984 4.5l-13.473 23.312c-1.6289 2.8164-5.2305 3.7891-8.0508 2.1641l-15.648-9.0156c-1.6914 1.8008-3.543 3.6562-5.3516 5.3516l9.043 15.645c0.78516 1.3555 0.99609 2.9688 0.59375 4.4805-0.40625 1.5117-1.3945 2.8008-2.75 3.582l-23.309 13.445c-1.3555 0.78125-2.9727 0.99219-4.4805 0.58594-1.5117-0.40625-2.8008-1.3984-3.582-2.7539l-9.1797-15.641c-2.3477 0.71094-4.4492 1.3789-7.3984 1.9453v18.656c-0.003907 3.2656-2.2734 6.0352-5.5312 6.0352zm-21.039-11.809h15.742v-17.656c0-2.8555 1.7422-5.3047 4.5586-5.8086 4.3633-0.78125 10.465-2.4648 14.715-4 2.6914-0.97266 5.6172 0.125 7.043 2.6055l8.4062 14.68 13.062-7.5469-8.5-14.688c-1.4336-2.4805-0.88281-5.6289 1.3086-7.4688 3.457-2.9062 8.0508-7.5 10.922-10.926 1.8359-2.1914 4.9805-2.75 7.4648-1.3203l14.695 8.4688 7.5664-13.086-14.715-8.4766c-2.4883-1.4336-3.5859-4.4492-2.5938-7.1484 1.5195-4.1328 3.2031-10.578 4-15.082 0.49609-2.8164 2.9453-5.0469 5.8047-5.0469l16.789 0.003907v-14.762h-16.758c-2.8477 0-5.2891-2.1484-5.8008-4.9492-0.81641-4.4531-2.5117-10.75-4.0352-14.895-0.99219-2.7031 0.11328-5.7578 2.6133-7.1836l14.68-8.3828-7.5547-13.078-14.691 8.4648c-2.4805 1.4336-5.6289 0.87109-7.4648-1.3203-2.8906-3.4453-7.4766-8.0195-10.902-10.875-2.207-1.8398-2.7695-5-1.332-7.4844l8.4961-14.691-13.078-7.5625-8.4648 14.684c-1.4297 2.4805-4.4375 3.5742-7.125 2.5977-4.1445-1.5078-10.098-3.1953-14.574-4.0117-2.8047-0.51172-4.5391-2.9531-4.5391-5.8008l0.003906-16.035h-15.742v16.023c0 2.8555-2.1445 5.3047-4.957 5.8047-4.3711 0.78516-10.684 2.4727-14.945 4.0117-2.6875 0.97266-5.7148-0.12109-7.1445-2.6055l-8.4648-14.676-13.066 7.5586 8.4727 14.691c1.4297 2.4805 0.87109 5.6289-1.3203 7.4688-3.5 2.9336-8.0977 7.5156-10.938 10.887-1.8398 2.1875-4.9844 2.7422-7.4648 1.3125l-14.68-8.4766-7.5391 13.059 14.66 8.4219c2.4883 1.4297 3.5859 4.4414 2.6055 7.1367-1.5469 4.2422-3.2227 10.582-3.9844 14.918-0.49609 2.8242-2.9453 4.9922-5.8086 4.9922h-16.938v14.762h16.938c2.8633 0 5.3164 2.2344 5.8086 5.0586 0.78125 4.4609 2.4609 10.816 3.9844 14.992 0.98438 2.6914-0.10938 5.7461-2.5898 7.1797l-14.68 8.4961 7.5508 13.098 14.68-8.457c2.4766-1.4297 5.6211-0.87109 7.4609 1.3164 2.8398 3.3789 7.4492 7.9844 10.953 10.945 2.1797 1.8438 2.7266 4.9805 1.3008 7.4531l-8.4805 14.695 13.051 7.543 8.4766-14.684c1.4297-2.4766 4.4258-3.5703 7.1172-2.5977 4.1445 1.5 10.516 3.1836 15.012 4.0078 2.8008 0.51172 4.9375 2.9531 4.9375 5.8008z"/>
 <path d="m405.9 476.68c-3.2578 0-5.8984-2.6406-5.8984-5.8984v-6.4883c-3.4688-0.51172-6.957-1.6094-10.277-3.3047-2.9023-1.4805-4.0547-5.0352-2.5703-7.9375 1.4805-2.9023 5.0352-4.0508 7.9375-2.5703 7.4883 3.8242 13.984 2.4414 17.273 0.10156 1.543-1.0977 2.4102-2.4297 2.2656-3.4766-0.20703-1.4766-2.4375-3.9062-8.0469-5.8984-15.219-5.3984-19.562-14.43-18.547-21.078 0.875-5.7422 5.3672-10.055 11.969-11.879v-7.0664c0-3.2578 2.6406-5.8984 5.8984-5.8984 3.2578 0 5.8984 2.6406 5.8984 5.8984v6.3867c2.75 0.33203 5.6289 0.96094 8.6094 1.8867 3.1133 0.96484 4.8516 4.2734 3.8867 7.3828-0.96484 3.1133-4.2773 4.8516-7.3828 3.8867-3.7461-1.1602-7.2969-1.7227-10.258-1.6211-4.9102 0.1875-6.8359 2.0039-6.957 2.8008-0.19531 1.2891 2.2578 5.1445 10.832 8.1836 12.484 4.4336 15.246 11.543 15.785 15.387 0.76562 5.5-1.8867 11.004-7.1055 14.719-2.2148 1.5781-4.7227 2.7344-7.4062 3.4727v7.1211c-0.007813 3.25-2.6484 5.8906-5.9062 5.8906z"/>
 <path d="m473.14 572.2h-133.31c-3.2578 0-5.8984-2.6445-5.8984-5.9023s2.6406-5.9023 5.8984-5.9023h133.31c3.2578 0 5.8984 2.6445 5.8984 5.9023s-2.6406 5.9023-5.8984 5.9023z"/>
 <g clip-path="url(#b)">
  <path d="m221.18 189.58c-1.5078 0-3.0195-0.57812-4.1719-1.7266l-10.668-10.672-10.668 10.668c-2.3008 2.3047-6.0391 2.3047-8.3398 0-2.3047-2.3047-2.3047-6.0391-0.003906-8.3438l10.672-10.676-10.672-10.668c-2.3008-2.3047-2.3008-6.0391 0.003906-8.3438 2.3047-2.3008 6.0391-2.3008 8.3398 0l10.668 10.672 10.668-10.668c2.3008-2.3047 6.0352-2.3047 8.3438 0 2.3047 2.3047 2.3047 6.0391 0 8.3438l-10.672 10.672 10.672 10.676c2.3008 2.3047 2.3008 6.0391 0 8.3438-1.1523 1.1484-2.6641 1.7227-4.1719 1.7227z"/>
 </g>
 <path d="m614.77 607.23c-1.5078 0-3.0195-0.57422-4.1719-1.7266l-10.676-10.672-10.672 10.672c-2.3008 2.3047-6.0391 2.3047-8.3438 0-2.3047-2.3047-2.3047-6.0391 0-8.3438l10.672-10.672-10.672-10.676c-2.3047-2.3008-2.3047-6.0391 0-8.3438 2.3008-2.3047 6.0391-2.3047 8.3438 0l10.672 10.672 10.676-10.672c2.3008-2.3047 6.0391-2.3047 8.3398 0 2.3047 2.3047 2.3047 6.0391 0 8.3438l-10.672 10.676 10.672 10.672c2.3047 2.3008 2.3047 6.0391 0 8.3438-1.1523 1.1523-2.6602 1.7266-4.168 1.7266z"/>
 <path d="m541.57 213.6c-3.2578 0-5.8984-2.6406-5.8984-5.8984v-9.4375h-8.2578c-3.2617 0-5.8984-2.6406-5.8984-5.8984 0-3.2578 2.6406-5.8984 5.8984-5.8984h8.2578v-8.2617c0-3.2578 2.6406-5.8984 5.8984-5.8984 3.2617 0 5.8984 2.6406 5.8984 5.8984v8.2578h9.4375c3.2617 0 5.8984 2.6406 5.8984 5.8984s-2.6406 5.8984-5.8984 5.8984h-9.4375v9.4375c0 3.2617-2.6406 5.9023-5.8984 5.9023z"/>
 <path d="m200.07 437.09c-11.438 0-20.742-9.3125-20.742-20.762s9.3047-20.762 20.742-20.762c11.457 0 20.777 9.3125 20.777 20.762s-9.3203 20.762-20.777 20.762zm0-29.727c-4.9336 0-8.9453 4.0234-8.9453 8.9648s4.0117 8.9648 8.9453 8.9648c4.9531 0 8.9805-4.0195 8.9805-8.9648s-4.0312-8.9648-8.9805-8.9648z"/>
 <g clip-path="url(#a)">
  <path d="m267.12 651.9c-11.441 0-20.75-9.3086-20.75-20.746s9.3086-20.742 20.75-20.742c11.438 0 20.742 9.3047 20.742 20.742 0 11.441-9.3047 20.746-20.742 20.746zm0-29.688c-4.9375 0-8.9531 4.0117-8.9531 8.9453s4.0156 8.9492 8.9531 8.9492c4.9336 0 8.9453-4.0156 8.9453-8.9492s-4.0156-8.9453-8.9453-8.9453z"/>
 </g>
</svg>