<?xml version="1.0" encoding="UTF-8"?>
<!-- The Best Svg Icon site in the world: iconSvg.co, Visit us! https://iconsvg.co -->
<svg fill="#000000" width="800px" height="800px" version="1.1" viewBox="144 144 512 512" xmlns="http://www.w3.org/2000/svg">
 <g>
  <path d="m203.2 297.66h15.742v86.59h15.742l0.003906-94.465c0-2.0859-0.83203-4.0898-2.3086-5.5664-1.4766-1.4766-3.4766-2.3047-5.5664-2.3047h-4.6133l28.23-28.23 28.23 28.23h-4.6133c-4.3477 0-7.8711 3.5234-7.8711 7.8711v94.465h15.742v-86.59h15.746c3.1797-0.003906 6.0508-1.9219 7.2695-4.8633 1.2188-2.9414 0.54297-6.3242-1.707-8.5742l-47.23-47.23v-0.003906c-3.0742-3.0742-8.0586-3.0742-11.133 0l-47.23 47.23v0.003906c-2.25 2.25-2.9258 5.6328-1.707 8.5742 1.2188 2.9414 4.0898 4.8594 7.2734 4.8633z"/>
  <path d="m352.77 226.81h15.742l0.003907 86.594h15.742v-94.465c0-2.0859-0.82812-4.0898-2.3047-5.5664-1.4766-1.4766-3.4805-2.3047-5.5664-2.3047h-4.6133l28.23-28.23 28.227 28.23h-4.6133c-4.3477 0-7.8711 3.5234-7.8711 7.8711v94.465h15.742l0.003906-86.594h15.742c3.1836 0 6.0547-1.918 7.2695-4.8594 1.2188-2.9414 0.54688-6.3242-1.7031-8.5781l-47.23-47.23h-0.003906c-3.0742-3.0742-8.0547-3.0742-11.129 0l-47.23 47.23h-0.003906c-2.25 2.2539-2.9219 5.6367-1.7031 8.5781s4.0859 4.8594 7.2695 4.8594z"/>
  <path d="m502.34 274.05h15.742v86.59h15.742l0.003907-94.461c0-2.0898-0.83203-4.0898-2.3086-5.5664s-3.4766-2.3086-5.5664-2.3086h-4.6133l28.23-28.227 28.23 28.227h-4.6133c-4.3477 0-7.8711 3.5273-7.8711 7.875v94.461h15.742v-86.59h15.746c3.1836 0 6.0508-1.918 7.2695-4.8594s0.54688-6.3281-1.707-8.5781l-47.23-47.23v-0.003906c-3.0742-3.0703-8.0586-3.0703-11.133 0l-47.23 47.23v0.003906c-2.25 2.25-2.9258 5.6367-1.707 8.5781s4.0898 4.8594 7.2734 4.8594z"/>
  <path d="m368.51 329.15h15.742v31.488h-15.742z"/>
  <path d="m368.51 376.38h15.742v15.742h-15.742z"/>
  <path d="m415.74 344.89h15.742v31.488h-15.742z"/>
  <path d="m518.08 376.38h15.742v31.488h-15.742z"/>
  <path d="m518.08 423.61h15.742v15.742h-15.742z"/>
  <path d="m565.31 392.12h15.742v15.742h-15.742z"/>
  <path d="m565.31 439.36h15.742v15.742h-15.742z"/>
  <path d="m218.94 400h15.742v15.742h-15.742z"/>
  <path d="m218.94 431.49h15.742v15.742h-15.742z"/>
  <path d="m549.57 541.7c2.0898 0 4.0898 0.82813 5.5664 2.3047 1.4766 1.4766 2.3047 3.4805 2.3047 5.5664h15.746c-0.019532-4.8672-1.543-9.6094-4.3633-13.578-2.8164-3.9648-6.793-6.9648-11.383-8.5898v-9.3203h-15.742v9.3203c-7.0547 2.4844-12.512 8.1719-14.699 15.324-2.1914 7.1523-0.85547 14.918 3.5977 20.926 4.4531 6.0117 11.492 9.5469 18.973 9.5352 3.1836 0 6.0547 1.918 7.2734 4.8594 1.2188 2.9414 0.54297 6.3281-1.707 8.5781s-5.6367 2.9258-8.5781 1.707c-2.9414-1.2188-4.8594-4.0898-4.8594-7.2734h-15.746c0.023437 4.8672 1.5469 9.6094 4.3633 13.578 2.8203 3.9688 6.793 6.9688 11.383 8.5898v9.3203h15.742v-9.3203c7.0547-2.4844 12.512-8.1719 14.703-15.324 2.1875-7.1523 0.85547-14.918-3.5977-20.926-4.4531-6.0117-11.496-9.5469-18.977-9.5352-4.3477 0-7.8711-3.5234-7.8711-7.8711s3.5234-7.8711 7.8711-7.8711z"/>
  <path d="m549.57 494.46c-18.789 0-36.809 7.4648-50.098 20.754-13.285 13.285-20.75 31.305-20.75 50.098 0 18.789 7.4648 36.809 20.75 50.098 13.289 13.285 31.309 20.75 50.098 20.75 18.789 0 36.812-7.4648 50.098-20.75 13.285-13.289 20.75-31.309 20.75-50.098-0.019531-18.785-7.4922-36.793-20.773-50.074-13.281-13.285-31.289-20.754-50.074-20.777zm0 125.95c-14.613 0-28.629-5.8047-38.965-16.137-10.332-10.336-16.141-24.352-16.141-38.965 0-14.617 5.8086-28.633 16.141-38.965 10.336-10.336 24.352-16.141 38.965-16.141 14.613 0 28.633 5.8047 38.965 16.141 10.336 10.332 16.141 24.348 16.141 38.965-0.015625 14.609-5.8281 28.613-16.16 38.945-10.328 10.328-24.336 16.141-38.945 16.156z"/>
  <path d="m581.05 557.44h15.742v15.742h-15.742z"/>
  <path d="m502.34 557.44h15.742v15.742h-15.742z"/>
  <path d="m250.43 518.08c2.0898 0 4.0898 0.83203 5.5664 2.3047 1.4766 1.4766 2.3047 3.4805 2.3047 5.5664h15.746c-0.019531-4.8672-1.543-9.6055-4.3633-13.574-2.8164-3.9688-6.793-6.9688-11.383-8.5898v-9.3242h-15.742v9.3242c-7.0547 2.4844-12.512 8.168-14.703 15.32-2.1875 7.1523-0.85156 14.918 3.6016 20.93 4.4531 6.0078 11.492 9.5469 18.973 9.5312 3.1836 0 6.0547 1.918 7.2734 4.8594 1.2188 2.9414 0.54297 6.3281-1.707 8.5781-2.25 2.2539-5.6367 2.9258-8.5781 1.707-2.9414-1.2188-4.8594-4.0898-4.8594-7.2734h-15.746c0.023438 4.8672 1.5469 9.6094 4.3633 13.578 2.8164 3.9688 6.793 6.9688 11.383 8.5898v9.3203h15.742v-9.3203c7.0547-2.4844 12.512-8.1719 14.703-15.32 2.1875-7.1523 0.85547-14.922-3.5977-20.93-4.4531-6.0078-11.496-9.5469-18.977-9.5312-4.3477 0-7.8711-3.5273-7.8711-7.875 0-4.3477 3.5234-7.8711 7.8711-7.8711z"/>
  <path d="m250.43 470.85c-18.789 0-36.809 7.4648-50.098 20.75-13.285 13.285-20.75 31.309-20.75 50.098 0 18.789 7.4648 36.809 20.75 50.098 13.289 13.285 31.309 20.75 50.098 20.75 18.789 0 36.812-7.4648 50.098-20.75 13.285-13.289 20.75-31.309 20.75-50.098-0.019532-18.785-7.4922-36.793-20.773-50.074s-31.289-20.754-50.074-20.773zm0 125.95c-14.613 0-28.629-5.8086-38.965-16.141-10.332-10.336-16.141-24.352-16.141-38.965 0-14.613 5.8086-28.633 16.141-38.965 10.336-10.336 24.352-16.141 38.965-16.141 14.613 0 28.633 5.8047 38.965 16.141 10.336 10.332 16.141 24.352 16.141 38.965-0.019531 14.609-5.8281 28.617-16.16 38.945-10.328 10.332-24.336 16.141-38.945 16.16z"/>
  <path d="m281.92 533.82h15.742v15.742h-15.742z"/>
  <path d="m203.2 533.82h15.742v15.742h-15.742z"/>
  <path d="m400 462.98c2.0859 0 4.0898 0.82813 5.5664 2.3047 1.4766 1.4766 2.3047 3.4766 2.3047 5.5664h15.742c-0.019531-4.8672-1.543-9.6094-4.3594-13.578-2.8203-3.9688-6.793-6.9688-11.383-8.5898v-9.3203h-15.746v9.3203c-7.0547 2.4844-12.508 8.1719-14.699 15.324-2.1914 7.1484-0.85547 14.918 3.5977 20.926 4.4531 6.0078 11.496 9.5469 18.977 9.5312 3.1836 0 6.0547 1.918 7.2695 4.8633 1.2188 2.9414 0.54688 6.3242-1.7031 8.5781-2.2539 2.25-5.6406 2.9219-8.582 1.707-2.9414-1.2188-4.8594-4.0898-4.8594-7.2734h-15.742c0.019532 4.8672 1.543 9.6094 4.3633 13.574 2.8164 3.9688 6.793 6.9688 11.379 8.5938v9.3203h15.742l0.003906-9.3203c7.0547-2.4844 12.512-8.1719 14.699-15.324 2.1914-7.1523 0.85547-14.918-3.5977-20.93-4.4531-6.0078-11.496-9.5469-18.973-9.5312-4.3477 0-7.875-3.5234-7.875-7.8711s3.5273-7.8711 7.875-7.8711z"/>
  <path d="m400 415.74c-18.793 0-36.812 7.4648-50.098 20.75-13.289 13.289-20.754 31.309-20.754 50.098 0 18.793 7.4648 36.812 20.754 50.098 13.285 13.289 31.305 20.75 50.098 20.75 18.789 0 36.809-7.4609 50.098-20.75 13.285-13.285 20.75-31.305 20.75-50.098-0.023437-18.781-7.4922-36.793-20.773-50.074-13.285-13.281-31.293-20.754-50.074-20.773zm0 125.95c-14.617 0-28.633-5.8047-38.965-16.141-10.336-10.332-16.141-24.348-16.141-38.965 0-14.613 5.8047-28.629 16.141-38.965 10.332-10.332 24.348-16.137 38.965-16.137 14.613 0 28.629 5.8047 38.965 16.137 10.332 10.336 16.137 24.352 16.137 38.965-0.015624 14.609-5.8281 28.617-16.156 38.945-10.332 10.332-24.336 16.145-38.945 16.16z"/>
  <path d="m431.49 478.72h15.742v15.742h-15.742z"/>
  <path d="m352.77 478.72h15.742v15.742h-15.742z"/>
  <path d="m415.74 392.12h15.742v15.742h-15.742z"/>
  <path d="m266.18 415.74h15.742v31.488h-15.742z"/>
 </g>
</svg>