<?xml version="1.0" encoding="UTF-8"?>
<!-- The Best Svg Icon site in the world: iconSvg.co, Visit us! https://iconsvg.co -->
<svg fill="#000000" width="800px" height="800px" version="1.1" viewBox="144 144 512 512" xmlns="http://www.w3.org/2000/svg">
 <g>
  <path d="m490.29 263.58c-33.316 0-65.086 12.055-90.031 34.004l-14.176-14.176c-1.9258-1.9258-5.043-1.9258-6.9688 0l-17.891 17.887c-5.7773-3.0312-11.859-5.543-18.156-7.4883l-0.003906-25.301c0-2.7266-2.207-4.9258-4.9258-4.9258h-56.871c-2.7188 0-4.9258 2.207-4.9258 4.9258v25.293c-6.2969 1.9492-12.383 4.457-18.164 7.4883l-17.887-17.887c-1.9258-1.9258-5.043-1.9258-6.9688 0l-40.219 40.223c-0.92188 0.92188-1.4453 2.1758-1.4453 3.4883 0 1.3086 0.51953 2.5586 1.4453 3.4883l17.891 17.887c-3.0391 5.7891-5.5469 11.875-7.4922 18.164h-25.293c-2.7188-0.007813-4.9258 2.1953-4.9258 4.9219v56.859c0 2.7266 2.207 4.9258 4.9258 4.9258h25.293c1.9453 6.2969 4.4531 12.379 7.4883 18.164l-17.887 17.887c-0.92188 0.92188-1.4453 2.1758-1.4453 3.4883 0 1.3086 0.51953 2.5586 1.4453 3.4883l40.219 40.219c1.9258 1.9258 5.043 1.9258 6.9688 0l17.887-17.887c5.7773 3.0312 11.863 5.543 18.164 7.4922v25.293c0 2.7266 2.207 4.9258 4.9258 4.9258h56.863c2.7188 0 4.9258-2.207 4.9258-4.9258v-25.293c6.2969-1.9492 12.379-4.457 18.156-7.4922l17.891 17.887c1.9258 1.9258 5.043 1.9258 6.9688 0l14.176-14.176c24.945 21.945 56.715 34.004 90.031 34.004 75.234-0.007813 136.43-61.207 136.43-136.43 0-75.227-61.195-136.42-136.42-136.42zm-63.992 212.8c0.92188-0.92188 1.4453-2.1758 1.4453-3.4883 0-1.3086-0.51953-2.5586-1.4453-3.4883l-17.891-17.887c3.0391-5.7773 5.5469-11.863 7.4922-18.164h25.285c2.7266 0 4.9258-2.207 4.9258-4.9258l0.003907-56.852c0-2.7266-2.207-4.9258-4.9258-4.9258h-25.285c-1.9492-6.2969-4.457-12.379-7.4922-18.164l17.891-17.887c0.92187-0.92188 1.4453-2.1758 1.4453-3.4883 0-1.3086-0.51953-2.5586-1.4453-3.4883l-2.7305-2.7305c18.66-15.793 42.164-24.441 66.719-24.441 57.098 0 103.55 46.453 103.55 103.55 0 57.098-46.457 103.55-103.55 103.55-24.555 0-48.059-8.6445-66.719-24.441zm-43.703 29.766-17.02-17.012c-1.5664-1.5625-4-1.8984-5.9297-0.79688-7.1133 4.0625-14.785 7.2305-22.809 9.4102-2.1445 0.58594-3.6367 2.5352-3.6367 4.7578v24.066h-47.004v-24.066c0-2.2227-1.4922-4.1719-3.6367-4.7578-8.0273-2.1797-15.699-5.3438-22.812-9.4102-1.9336-1.1094-4.3594-0.76953-5.9297 0.79688l-17.012 17.012-33.25-33.246 17.02-17.012c1.5703-1.5664 1.8945-4 0.79688-5.9297-4.0664-7.1172-7.2344-14.793-9.4062-22.809-0.58594-2.1445-2.5352-3.6367-4.7578-3.6367h-24.066v-47.004h24.062c2.2266 0 4.1758-1.4922 4.7578-3.6367 2.1719-8.0117 5.3359-15.684 9.4062-22.809 1.1016-1.9297 0.77734-4.3633-0.79688-5.9297l-17.02-17.012 33.25-33.246 17.012 17.012c1.5703 1.5703 4 1.9062 5.9297 0.79688 7.1133-4.0625 14.785-7.2305 22.812-9.4102 2.1445-0.58594 3.6367-2.5352 3.6367-4.7578v-24.066h47.004v24.066c0 2.2227 1.4922 4.1719 3.6367 4.7578 8.0195 2.1797 15.695 5.3438 22.809 9.4102 1.9336 1.1133 4.3633 0.78125 5.9297-0.79688l17.02-17.012 33.25 33.25-17.02 17.012c-1.5703 1.5664-1.8945 4-0.79688 5.9297 4.0664 7.1133 7.2305 14.793 9.4102 22.809 0.58594 2.1445 2.5352 3.6367 4.7578 3.6367h24.062v47.004h-24.062c-2.2227 0-4.1719 1.4922-4.7578 3.6367-2.1797 8.0273-5.3438 15.699-9.4102 22.809-1.1016 1.9297-0.77734 4.3594 0.79688 5.9297l17.02 17.012-2.9414 2.9414zm107.7 20.418c-30.691 0-59.992-11.012-83.062-31.105l9.4414-9.4414c20.535 17.633 46.453 27.391 73.621 27.391 62.539 0 113.41-50.875 113.41-113.41-0.003906-62.531-50.879-113.41-113.41-113.41-27.172 0-53.086 9.7578-73.621 27.391l-9.4414-9.4414c23.07-20.098 52.371-31.105 83.062-31.105 69.789 0 126.56 56.773 126.56 126.56-0.003907 69.789-56.777 126.56-126.56 126.56z"/>
  <path d="m495.21 485.47v-16.355c18.188-2.4219 32.273-18 32.273-36.84 0-20.516-16.691-37.207-37.207-37.207-15.078 0-27.348-12.27-27.348-27.348s12.27-27.348 27.348-27.348h32.273c2.7266 0 4.9258-2.207 4.9258-4.9258s-2.207-4.9258-4.9258-4.9258h-27.348v-15.992c0-2.7266-2.207-4.9258-4.9258-4.9258s-4.9258 2.207-4.9258 4.9258v16.355c-18.188 2.4219-32.273 18-32.273 36.84 0 20.516 16.691 37.207 37.207 37.207 15.078 0 27.348 12.27 27.348 27.348s-12.27 27.348-27.348 27.348h-32.273c-2.7266 0-4.9258 2.207-4.9258 4.9258s2.207 4.9258 4.9258 4.9258h27.348v15.992c0 2.7266 2.207 4.9258 4.9258 4.9258 2.7188 0.003907 4.9258-2.1992 4.9258-4.9258z"/>
  <path d="m309.7 329.89c-38.656 0-70.105 31.449-70.105 70.105s31.449 70.105 70.105 70.105c38.66 0 70.113-31.449 70.113-70.105 0-38.66-31.453-70.105-70.113-70.105zm0 130.36c-33.223 0-60.246-27.031-60.246-60.25 0-33.223 27.031-60.25 60.246-60.25 33.223 0 60.25 27.031 60.25 60.25 0.003906 33.219-27.023 60.25-60.25 60.25z"/>
 </g>
</svg>