<?xml version="1.0" encoding="UTF-8"?>
<!-- The Best Svg Icon site in the world: iconSvg.co, Visit us! https://iconsvg.co -->
<svg fill="#000000" width="800px" height="800px" version="1.1" viewBox="144 144 512 512" xmlns="http://www.w3.org/2000/svg">
 <path d="m400 179.58c-58.41 0-157.44 11.652-157.44 55.105v330.62c0 43.453 99.031 55.102 157.44 55.102s157.44-11.652 157.44-55.105l-0.003906-330.62c0-43.453-99.027-55.105-157.44-55.105zm125.95 200.58v73.84h-0.003906c-0.59375 0.61328-1.2266 1.1914-1.8867 1.7344 0 0-0.94531 0.94531-1.8906 1.5742l-4.4102 2.3633-2.832 1.418-7.2422 2.832-3.3047 1.2578-9.918 2.832-4.0938 1.2578c-3.7773 0.94531-8.1875 1.7305-12.594 2.5195l-4.8789 1.1016-15.742 2.2031-5.3516 0.78906-17.789 1.5742h-6.4531c-8.6602 0-17.949 0.78906-27.711 0.78906-9.7617 0-19.051 0-27.711-0.78906h-6.4531l-17.789-1.5742-5.3516-0.78906-15.742-2.2031-4.8789-1.1016c-4.4102 0-8.8164-1.5742-12.594-2.5195l-3.7969-1.2578-9.918-2.832-3.3047-1.2578-7.2422-2.832-2.832-1.418-4.4102-2.3633c-0.94531 0-1.2578-1.1016-1.8906-1.5742h-0.003906c-0.66016-0.54297-1.293-1.1211-1.8867-1.7344v-73.84h1.418c3.7773 1.5742 7.5586 2.9922 11.809 4.4102h0.78906l13.383 3.7773 4.5664 1.1016 10.234 2.0469 5.1953 0.94531c3.7773 0.78906 7.5586 1.2578 11.336 1.8906h3.7773l15.742 1.7305h3.7773l11.492 0.94531h65.805l11.492-0.94531h3.7773l15.742-1.7305h3.7773c3.7773 0 7.5586-1.1016 11.336-1.8906l5.1953-0.94531 10.234-2.0469 4.5664-1.1016 13.383-3.7773h0.78906c4.25-1.418 8.0312-2.832 11.809-4.4102zm0-110.21v73.84h-0.003906c-0.59375 0.61328-1.2266 1.1914-1.8867 1.7305l-1.8906 1.5742-4.4102 2.3633-2.832 1.418-7.2422 2.832-3.3047 1.2578-9.918 2.832-4.0938 1.2578c-3.7773 0.94531-8.1875 1.7305-12.594 2.5195l-4.8789 1.1016-15.742 2.2031-5.3516 0.78906-17.789 1.5742h-6.4531c-8.6602 0-17.949 0.78906-27.711 0.78906-9.7617 0-19.051 0-27.711-0.78906h-6.4531l-17.789-1.5742-5.3516-0.78906-15.742-2.2031-4.8789-1.1016c-4.4102-0.78906-8.8164-1.5742-12.594-2.5195l-3.7969-1.2539-9.918-2.832-3.3047-1.2578-7.2422-2.832-2.832-1.418-4.4102-2.3633-1.8906-1.5742-0.003906-0.003906c-0.66016-0.53906-1.293-1.1172-1.8867-1.7305v-73.84h1.418c3.7773 1.5742 7.5586 2.9922 11.809 4.4102h0.78906l13.383 3.7773 4.5664 1.1016 10.234 2.0469 5.1953 0.94531c3.7773 0.78906 7.5586 1.2578 11.336 1.8906h3.7773l15.742 1.7305h3.7773l11.492 0.94531h65.805l11.492-0.94531h3.7773l15.742-1.7305h3.7773c3.7773 0 7.5586-1.1016 11.336-1.8906l5.1953-0.94531 9.7695-1.1016 4.5664-1.1016 13.383-3.7773h0.78906c4.25-1.418 8.0312-2.832 11.809-4.4102zm-1.1016-35.426-1.418 1.2578-2.3633 1.5742-3.7773 2.0469-3.6211 1.7305-5.668 2.2031-5.0391 1.8906-7.7148 2.0469-6.2969 1.8906-10.234 2.0508-7.5586 1.418-12.281 1.7305-8.3438 1.2578-15.742 1.2578h-8.3438c-7.8711 1.418-16.848 1.418-26.449 1.418h-27.078-8.3438l-15.742-1.2578-8.3438-1.2578-12.281-1.7305-6.9336-2.8359-9.7617-2.0469-5.9805-1.8906-7.7148-2.0469-5.0391-1.8906-5.668-2.2031-4.4062-1.7305-3.7773-2.0469-2.3633-1.5742-1.418-1.2578c8.8164-7.7188 50.539-23.461 124.85-23.461 74.309 0 116.03 15.742 124.85 23.457zm1.0977 329.68c-5.668 7.7148-47.23 24.719-125.95 24.719-78.719 0-120.29-17.004-125.95-24.719l0.003906-73.836h1.418c3.7773 1.5742 7.5586 2.9922 11.809 4.4102h0.78906l13.383 3.7773 4.5664 1.1016 10.234 2.0469 5.1953 0.94531c3.7773 0.78906 7.5586 1.2578 11.336 1.8906h3.7773l15.742 1.7305h3.7773l11.492 0.94531h65.805l11.492-0.94531h3.7773l15.742-1.7305h3.7773c3.7773 0 7.5586-1.1016 11.336-1.8906l5.1953-0.94531 10.234-2.0469 4.5664-1.1016 13.383-3.7773h0.78906c4.25-1.418 8.0312-2.832 11.809-4.4102h1.418z"/>
</svg>