<?xml version="1.0" encoding="UTF-8"?>
<!-- The Best Svg Icon site in the world: iconSvg.co, Visit us! https://iconsvg.co -->
<svg fill="#000000" width="800px" height="800px" version="1.1" viewBox="144 144 512 512" xmlns="http://www.w3.org/2000/svg">
 <g>
  <path d="m305.54 455.1c-0.019531-6.2578-2.5156-12.254-6.9375-16.676-4.4258-4.4258-10.422-6.9219-16.68-6.9375h-94.465c-6.2578 0.015625-12.254 2.5117-16.676 6.9375-4.4258 4.4219-6.9219 10.418-6.9414 16.676v15.746c0.015624 5.8281 2.207 11.441 6.1406 15.742-3.9336 4.3008-6.125 9.9141-6.1406 15.746v15.742c0.015624 5.832 2.207 11.445 6.1406 15.746-3.9336 4.3008-6.125 9.9141-6.1406 15.742v15.746c0.015624 5.8281 2.207 11.441 6.1406 15.742-3.9336 4.3008-6.125 9.9141-6.1406 15.746v15.742c0.019531 6.2578 2.5156 12.254 6.9414 16.68 4.4219 4.4219 10.418 6.918 16.676 6.9375h94.465c6.2578-0.019531 12.254-2.5156 16.68-6.9375 4.4219-4.4258 6.918-10.422 6.9375-16.68v-15.742c-0.015625-5.832-2.207-11.445-6.1406-15.746 3.9336-4.3008 6.125-9.9141 6.1406-15.742v-15.746c-0.015625-5.8281-2.207-11.441-6.1406-15.742 3.9336-4.3008 6.125-9.9141 6.1406-15.746v-15.742c-0.015625-5.832-2.207-11.445-6.1406-15.746 3.9336-4.3008 6.125-9.9141 6.1406-15.742zm-15.746 157.44c0 2.0898-0.82812 4.0898-2.3047 5.5664s-3.4766 2.3047-5.5664 2.3047h-7.8711v-15.742h-15.746v15.742h-15.742v-15.742h-15.746v15.742h-15.742v-15.742h-15.746v15.742h-7.8711c-4.3477 0-7.8711-3.5234-7.8711-7.8711v-15.742c0-4.3477 3.5234-7.875 7.8711-7.875h94.465c2.0898 0 4.0898 0.83203 5.5664 2.3086s2.3047 3.4766 2.3047 5.5664zm0-47.23c0 2.0859-0.82812 4.0898-2.3047 5.5664-1.4766 1.4766-3.4766 2.3047-5.5664 2.3047h-7.8711v-15.746h-15.746v15.742l-15.742 0.003906v-15.746h-15.746v15.742l-15.742 0.003906v-15.746h-15.746v15.742l-7.8711 0.003906c-4.3477 0-7.8711-3.5234-7.8711-7.8711v-15.746c0-4.3477 3.5234-7.8711 7.8711-7.8711h94.465c2.0898 0 4.0898 0.82813 5.5664 2.3047s2.3047 3.4805 2.3047 5.5664zm0-47.23v-0.003906c0 2.0898-0.82812 4.0898-2.3047 5.5664-1.4766 1.4766-3.4766 2.3047-5.5664 2.3047h-7.8711v-15.742h-15.746v15.742h-15.742v-15.742h-15.746v15.742h-15.742v-15.742h-15.746v15.742h-7.8711c-4.3477 0-7.8711-3.5234-7.8711-7.8711v-15.742c0-4.3477 3.5234-7.875 7.8711-7.875h94.465c2.0898 0 4.0898 0.83203 5.5664 2.3086 1.4766 1.4766 2.3047 3.4766 2.3047 5.5664zm0-47.23v-0.003906c0 2.0859-0.82812 4.0898-2.3047 5.5664-1.4766 1.4766-3.4766 2.3047-5.5664 2.3047h-7.8711v-15.742h-15.746v15.742h-15.742v-15.742h-15.746v15.742h-15.742v-15.742h-15.746v15.742h-7.8711c-4.3477 0-7.8711-3.5234-7.8711-7.8711v-15.746c0-4.3477 3.5234-7.8711 7.8711-7.8711h94.465c2.0898 0 4.0898 0.82812 5.5664 2.3047 1.4766 1.4766 2.3047 3.4805 2.3047 5.5664z"/>
  <path d="m470.85 407.87c-0.019531-6.2578-2.5156-12.254-6.9375-16.68-4.4258-4.4258-10.422-6.918-16.68-6.9375h-94.465c-6.2578 0.019532-12.254 2.5117-16.676 6.9375-4.4258 4.4258-6.9219 10.422-6.9414 16.68v15.742c0.015624 5.832 2.207 11.445 6.1406 15.746-3.9336 4.3008-6.125 9.9141-6.1406 15.742v15.746c0.015624 5.8281 2.207 11.441 6.1406 15.742-3.9336 4.3008-6.125 9.9141-6.1406 15.746v15.742c0.015624 5.832 2.207 11.445 6.1406 15.746-3.9336 4.3008-6.125 9.9141-6.1406 15.742v15.746c0.015624 5.8281 2.207 11.441 6.1406 15.742-3.9336 4.3008-6.125 9.9141-6.1406 15.746v15.742c0.019531 6.2578 2.5156 12.254 6.9414 16.68 4.4219 4.4219 10.418 6.918 16.676 6.9375h94.465c6.2578-0.019531 12.254-2.5156 16.68-6.9375 4.4219-4.4258 6.918-10.422 6.9375-16.68v-15.742c-0.015625-5.832-2.207-11.445-6.1406-15.746 3.9336-4.3008 6.125-9.9141 6.1406-15.742v-15.746c-0.015625-5.8281-2.207-11.441-6.1406-15.742 3.9336-4.3008 6.125-9.9141 6.1406-15.746v-15.742c-0.015625-5.832-2.207-11.445-6.1406-15.746 3.9336-4.3008 6.125-9.9141 6.1406-15.742v-15.746c-0.015625-5.8281-2.207-11.441-6.1406-15.742 3.9336-4.3008 6.125-9.9141 6.1406-15.746zm-15.746 204.67c0 2.0898-0.82812 4.0898-2.3047 5.5664s-3.4766 2.3047-5.5664 2.3047h-7.8711v-15.742h-15.746v15.742h-15.742v-15.742h-15.746v15.742h-15.742v-15.742h-15.746v15.742h-7.8711c-4.3477 0-7.8711-3.5234-7.8711-7.8711v-15.742c0-4.3477 3.5234-7.875 7.8711-7.875h94.465c2.0898 0 4.0898 0.83203 5.5664 2.3086s2.3047 3.4766 2.3047 5.5664zm0-47.23c0 2.0859-0.82812 4.0898-2.3047 5.5664-1.4766 1.4766-3.4766 2.3047-5.5664 2.3047h-7.8711v-15.746h-15.746v15.742l-15.742 0.003906v-15.746h-15.746v15.742l-15.742 0.003906v-15.746h-15.746v15.742l-7.8711 0.003906c-4.3477 0-7.8711-3.5234-7.8711-7.8711v-15.746c0-4.3477 3.5234-7.8711 7.8711-7.8711h94.465c2.0898 0 4.0898 0.82813 5.5664 2.3047s2.3047 3.4805 2.3047 5.5664zm0-47.23v-0.003906c0 2.0898-0.82812 4.0898-2.3047 5.5664-1.4766 1.4766-3.4766 2.3047-5.5664 2.3047h-7.8711v-15.742h-15.746v15.742h-15.742v-15.742h-15.746v15.742h-15.742v-15.742h-15.746v15.742h-7.8711c-4.3477 0-7.8711-3.5234-7.8711-7.8711v-15.742c0-4.3477 3.5234-7.875 7.8711-7.875h94.465c2.0898 0 4.0898 0.83203 5.5664 2.3086 1.4766 1.4766 2.3047 3.4766 2.3047 5.5664zm0-47.23v-0.003906c0 2.0859-0.82812 4.0898-2.3047 5.5664-1.4766 1.4766-3.4766 2.3047-5.5664 2.3047h-7.8711v-15.742h-15.746v15.742h-15.742v-15.742h-15.746v15.742h-15.742v-15.742h-15.746v15.742h-7.8711c-4.3477 0-7.8711-3.5234-7.8711-7.8711v-15.746c0-4.3477 3.5234-7.8711 7.8711-7.8711h94.465c2.0898 0 4.0898 0.82812 5.5664 2.3047 1.4766 1.4766 2.3047 3.4805 2.3047 5.5664zm0-47.23v-0.007813c0 2.0898-0.82812 4.0898-2.3047 5.5664-1.4766 1.4766-3.4766 2.3086-5.5664 2.3086h-7.8711v-15.746h-15.746v15.742l-15.742 0.003906v-15.746h-15.746v15.742l-15.742 0.003906v-15.746h-15.746v15.742l-7.8711 0.003906c-4.3477 0-7.8711-3.5273-7.8711-7.875v-15.742c0-4.3477 3.5234-7.8711 7.8711-7.8711h94.465c2.0898 0 4.0898 0.82812 5.5664 2.3047 1.4766 1.4766 2.3047 3.4766 2.3047 5.5664z"/>
  <path d="m636.16 313.41c-0.019531-6.2578-2.5156-12.254-6.9375-16.68-4.4258-4.4219-10.422-6.918-16.68-6.9375h-94.465c-6.2578 0.019532-12.254 2.5156-16.676 6.9375-4.4258 4.4258-6.9219 10.422-6.9414 16.68v15.742c0.015624 5.832 2.207 11.445 6.1406 15.746-3.9336 4.3008-6.125 9.9141-6.1406 15.742v15.746c0.015624 5.8281 2.207 11.441 6.1406 15.742-3.9336 4.3008-6.125 9.918-6.1406 15.746v15.742c0.015624 5.832 2.207 11.445 6.1406 15.746-3.9336 4.3008-6.125 9.9141-6.1406 15.742v15.746c0.015624 5.8281 2.207 11.441 6.1406 15.742-3.9336 4.3008-6.125 9.9141-6.1406 15.746v15.742c0.015624 5.832 2.207 11.445 6.1406 15.746-3.9336 4.3008-6.125 9.9141-6.1406 15.742v15.746c0.015624 5.8281 2.207 11.441 6.1406 15.742-3.9336 4.3008-6.125 9.9141-6.1406 15.746v15.742c0.019531 6.2578 2.5156 12.254 6.9414 16.68 4.4219 4.4219 10.418 6.918 16.676 6.9375h94.465c6.2578-0.019531 12.254-2.5156 16.68-6.9375 4.4219-4.4258 6.918-10.422 6.9375-16.68v-15.742c-0.015625-5.832-2.207-11.445-6.1406-15.746 3.9336-4.3008 6.125-9.9141 6.1406-15.742v-15.746c-0.015625-5.8281-2.207-11.441-6.1406-15.742 3.9336-4.3008 6.125-9.9141 6.1406-15.746v-15.742c-0.015625-5.832-2.207-11.445-6.1406-15.746 3.9336-4.3008 6.125-9.9141 6.1406-15.742v-15.746c-0.015625-5.8281-2.207-11.441-6.1406-15.742 3.9336-4.3008 6.125-9.9141 6.1406-15.746v-15.742c-0.015625-5.8281-2.207-11.445-6.1406-15.746 3.9336-4.3008 6.125-9.9141 6.1406-15.742v-15.746c-0.015625-5.8281-2.207-11.441-6.1406-15.742 3.9336-4.3008 6.125-9.9141 6.1406-15.746zm-15.746 299.14c0 2.0898-0.82812 4.0898-2.3047 5.5664s-3.4766 2.3047-5.5664 2.3047h-7.8711v-15.742h-15.746v15.742h-15.742v-15.742h-15.746v15.742h-15.742v-15.742h-15.746v15.742h-7.8711c-4.3477 0-7.8711-3.5234-7.8711-7.8711v-15.742c0-4.3477 3.5234-7.875 7.8711-7.875h94.465c2.0898 0 4.0898 0.83203 5.5664 2.3086s2.3047 3.4766 2.3047 5.5664zm0-47.23c0 2.0859-0.82812 4.0898-2.3047 5.5664-1.4766 1.4766-3.4766 2.3047-5.5664 2.3047h-7.8711v-15.746h-15.746v15.742l-15.742 0.003906v-15.746h-15.746v15.742l-15.742 0.003906v-15.746h-15.746v15.742l-7.8711 0.003906c-4.3477 0-7.8711-3.5234-7.8711-7.8711v-15.746c0-4.3477 3.5234-7.8711 7.8711-7.8711h94.465c2.0898 0 4.0898 0.82813 5.5664 2.3047s2.3047 3.4805 2.3047 5.5664zm0-47.23v-0.003906c0 2.0898-0.82812 4.0898-2.3047 5.5664-1.4766 1.4766-3.4766 2.3047-5.5664 2.3047h-7.8711v-15.742h-15.746v15.742h-15.742v-15.742h-15.746v15.742h-15.742v-15.742h-15.746v15.742h-7.8711c-4.3477 0-7.8711-3.5234-7.8711-7.8711v-15.742c0-4.3477 3.5234-7.875 7.8711-7.875h94.465c2.0898 0 4.0898 0.83203 5.5664 2.3086 1.4766 1.4766 2.3047 3.4766 2.3047 5.5664zm0-47.23v-0.003906c0 2.0859-0.82812 4.0898-2.3047 5.5664-1.4766 1.4766-3.4766 2.3047-5.5664 2.3047h-7.8711v-15.742h-15.746v15.742h-15.742v-15.742h-15.746v15.742h-15.742v-15.742h-15.746v15.742h-7.8711c-4.3477 0-7.8711-3.5234-7.8711-7.8711v-15.746c0-4.3477 3.5234-7.8711 7.8711-7.8711h94.465c2.0898 0 4.0898 0.82812 5.5664 2.3047 1.4766 1.4766 2.3047 3.4805 2.3047 5.5664zm0-47.23v-0.007813c0 2.0898-0.82812 4.0898-2.3047 5.5664-1.4766 1.4766-3.4766 2.3086-5.5664 2.3086h-7.8711v-15.746h-15.746v15.742l-15.742 0.003906v-15.746h-15.746v15.742l-15.742 0.003906v-15.746h-15.746v15.742l-7.8711 0.003906c-4.3477 0-7.8711-3.5273-7.8711-7.875v-15.742c0-4.3477 3.5234-7.8711 7.8711-7.8711h94.465c2.0898 0 4.0898 0.82812 5.5664 2.3047 1.4766 1.4766 2.3047 3.4766 2.3047 5.5664zm0-47.23v-0.007813c0 2.0859-0.82812 4.0898-2.3047 5.5664-1.4766 1.4766-3.4766 2.3047-5.5664 2.3047h-7.8711v-15.742h-15.746v15.742h-15.742v-15.742h-15.746v15.742h-15.742v-15.742h-15.746v15.742h-7.8711c-4.3477 0-7.8711-3.5234-7.8711-7.8711v-15.746c0-4.3477 3.5234-7.8711 7.8711-7.8711h94.465c2.0898 0 4.0898 0.83203 5.5664 2.3047 1.4766 1.4766 2.3047 3.4805 2.3047 5.5664zm0-47.23v-0.011718c0 2.0898-0.82812 4.0938-2.3047 5.5664-1.4766 1.4766-3.4766 2.3086-5.5664 2.3086h-7.8711v-15.746h-15.746v15.742l-15.742 0.003907v-15.746h-15.746v15.742l-15.742 0.003907v-15.746h-15.746v15.742l-7.8711 0.003907c-4.3477 0-7.8711-3.5273-7.8711-7.875v-15.742c0-4.3477 3.5234-7.8711 7.8711-7.8711h94.465c2.0898 0 4.0898 0.82812 5.5664 2.3047 1.4766 1.4766 2.3047 3.4805 2.3047 5.5664z"/>
  <path d="m228.91 397.46c1.4844 1.6211 3.582 2.5391 5.7812 2.5352 1.9805 0 3.8867-0.74609 5.3438-2.0859l96.777-89.332 57.625 57.625v-0.003906c3.0742 3.0742 8.0547 3.0742 11.129 0l151.88-151.88v36.102c0 4.3477 3.5273 7.8711 7.875 7.8711s7.8711-3.5234 7.8711-7.8711v-55.105c0-2.0859-0.82812-4.0898-2.3047-5.5664-1.4766-1.4727-3.4805-2.3047-5.5664-2.3047h-55.105c-4.3477 0-7.8711 3.5234-7.8711 7.8711 0 4.3477 3.5234 7.875 7.8711 7.875h36.102l-146.31 146.31-57.41-57.41h-0.003906c-2.9844-2.9922-7.8047-3.0898-10.91-0.22266l-102.34 94.465c-3.1914 2.9531-3.3828 7.9336-0.43359 11.125z"/>
  <path d="m226.81 187.45v7.8711c-8.4375 0-16.23 4.5039-20.449 11.809-4.2188 7.3086-4.2188 16.309 0 23.617s12.012 11.809 20.449 11.809h15.746c4.3477 0 7.8711 3.5234 7.8711 7.8711 0 4.3477-3.5234 7.8711-7.8711 7.8711h-15.746c-4.3477 0-7.8711-3.5234-7.8711-7.8711 0-4.3477-3.5234-7.8711-7.8711-7.8711-4.3477 0-7.8711 3.5234-7.8711 7.8711 0 6.2656 2.4883 12.27 6.9141 16.699 4.4297 4.4297 10.438 6.918 16.699 6.918v7.8711c0 4.3477 3.5273 7.8711 7.875 7.8711s7.8711-3.5234 7.8711-7.8711v-7.8711c8.4375 0 16.234-4.5 20.453-11.809 4.2188-7.3086 4.2188-16.309 0-23.617-4.2188-7.3047-12.016-11.809-20.453-11.809h-15.746c-4.3477 0-7.8711-3.5234-7.8711-7.8711s3.5234-7.8711 7.8711-7.8711h15.746c2.0859 0 4.0898 0.82813 5.5664 2.3047s2.3047 3.4805 2.3047 5.5664c0 4.3477 3.5234 7.8711 7.8711 7.8711 4.3477 0 7.875-3.5234 7.875-7.8711 0-6.2617-2.4883-12.27-6.918-16.699-4.4297-4.4297-10.438-6.918-16.699-6.918v-7.8711c0-4.3477-3.5234-7.8711-7.8711-7.8711s-7.875 3.5234-7.875 7.8711z"/>
  <path d="m234.69 305.54c18.789 0 36.809-7.4648 50.098-20.75 13.285-13.289 20.75-31.309 20.75-50.098 0-18.793-7.4648-36.812-20.75-50.098-13.289-13.289-31.309-20.754-50.098-20.754-18.793 0-36.812 7.4648-50.098 20.754-13.289 13.285-20.754 31.305-20.754 50.098 0.023437 18.781 7.4922 36.789 20.777 50.074 13.281 13.281 31.289 20.75 50.074 20.773zm0-125.95c14.613 0 28.629 5.8047 38.965 16.141 10.332 10.332 16.137 24.348 16.137 38.965 0 14.613-5.8047 28.629-16.137 38.965-10.336 10.332-24.352 16.137-38.965 16.137-14.617 0-28.633-5.8047-38.965-16.137-10.336-10.336-16.141-24.352-16.141-38.965 0.015625-14.609 5.8281-28.617 16.156-38.949 10.332-10.328 24.34-16.141 38.949-16.156z"/>
 </g>
</svg>