<?xml version="1.0" encoding="UTF-8"?>
<!-- The Best Svg Icon site in the world: iconSvg.co, Visit us! https://iconsvg.co -->
<svg width="800px" height="800px" version="1.1" viewBox="144 144 512 512" xmlns="http://www.w3.org/2000/svg">
 <defs>
  <clipPath id="b">
   <path d="m203 148.09h394v440.91h-394z"/>
  </clipPath>
  <clipPath id="a">
   <path d="m203 400h190v251.9h-190z"/>
  </clipPath>
 </defs>
 <g clip-path="url(#b)">
  <path d="m549.57 148.09h-299.14c-12.523 0.011719-24.527 4.9922-33.383 13.848-8.8555 8.8555-13.836 20.863-13.848 33.383v70.852c0 2.0859 0.82812 4.0898 2.3047 5.5664 1.4766 1.4727 3.4766 2.3047 5.5664 2.3047h47.23c4.3477 0 7.875-3.5234 7.875-7.8711 0-4.3477-3.5273-7.875-7.875-7.875h-39.359v-62.977c0-11.246 6.0039-21.645 15.746-27.27s21.746-5.625 31.488 0c9.7422 5.625 15.742 16.023 15.742 27.27v181.06c0 4.3477 3.5234 7.8711 7.8711 7.8711 4.3477 0 7.875-3.5234 7.875-7.8711v-181.06c0.007813-11.625-4.2891-22.84-12.062-31.488h263.96c8.3516 0 16.359 3.3203 22.266 9.2227 5.9062 5.9062 9.2227 13.918 9.2227 22.266v377.86h-165.31c-4.3477 0-7.8711 3.5234-7.8711 7.8711 0 4.3477 3.5234 7.8711 7.8711 7.8711h173.18c2.0898 0 4.0898-0.82812 5.5664-2.3047 1.4766-1.4766 2.3086-3.4766 2.3086-5.5664v-385.73c-0.015625-12.52-4.9961-24.527-13.848-33.383-8.8555-8.8555-20.863-13.836-33.387-13.848z"/>
 </g>
 <path d="m353.23 258.3h-16.207c-4.3477 0-7.875 3.5273-7.875 7.875 0 4.3477 3.5273 7.8711 7.875 7.8711h16.207c8.4375-0.082031 16.191-4.6602 20.336-12.012 4.1484-7.3477 4.0586-16.348-0.23047-23.613-4.293-7.2656-12.133-11.691-20.57-11.609-4.3477 0-7.8711-3.5234-7.8711-7.8711s3.5234-7.8711 7.8711-7.8711h16.211c4.3477 0 7.8711-3.5234 7.8711-7.8711 0-4.3477-3.5234-7.875-7.8711-7.875h-16.211c-8.4375 0.085937-16.188 4.6641-20.336 12.012-4.1445 7.3477-4.0586 16.352 0.23437 23.613 4.2891 7.2656 12.129 11.691 20.566 11.609 4.3477 0 7.8711 3.5234 7.8711 7.8711 0 4.3477-3.5234 7.8711-7.8711 7.8711z"/>
 <path d="m541.7 211.07c4.3477 0 7.8711-3.5234 7.8711-7.8711 0-4.3477-3.5234-7.875-7.8711-7.875h-78.719c-4.3477 0-7.875 3.5273-7.875 7.875 0 4.3477 3.5273 7.8711 7.875 7.8711z"/>
 <path d="m415.74 242.56h125.95c4.3477 0 7.8711-3.5234 7.8711-7.8711s-3.5234-7.875-7.8711-7.875h-125.95c-4.3477 0-7.8711 3.5273-7.8711 7.875s3.5234 7.8711 7.8711 7.8711z"/>
 <path d="m415.74 274.05h94.465c4.3477 0 7.8711-3.5234 7.8711-7.8711 0-4.3477-3.5234-7.875-7.8711-7.875h-94.465c-4.3477 0-7.8711 3.5273-7.8711 7.875 0 4.3477 3.5234 7.8711 7.8711 7.8711z"/>
 <path d="m415.74 211.07h15.746c4.3477 0 7.8711-3.5234 7.8711-7.8711 0-4.3477-3.5234-7.875-7.8711-7.875h-15.746c-4.3477 0-7.8711 3.5273-7.8711 7.875 0 4.3477 3.5234 7.8711 7.8711 7.8711z"/>
 <g clip-path="url(#a)">
  <path d="m368.51 400h-141.7c-6.2617 0-12.27 2.4883-16.699 6.9141-4.4258 4.4297-6.9141 10.438-6.9141 16.699v204.68c0 6.2617 2.4883 12.27 6.9141 16.695 4.4297 4.4297 10.438 6.918 16.699 6.918h141.7c6.2617 0 12.27-2.4883 16.699-6.918 4.4258-4.4258 6.9141-10.434 6.9141-16.695v-204.68c0-6.2617-2.4883-12.27-6.9141-16.699-4.4297-4.4258-10.438-6.9141-16.699-6.9141zm7.8711 228.29c0 2.0859-0.82812 4.0898-2.3047 5.5664-1.4766 1.4727-3.4805 2.3047-5.5664 2.3047h-141.7c-4.3477 0-7.8711-3.5234-7.8711-7.8711v-204.68c0-4.3477 3.5234-7.8711 7.8711-7.8711h141.7c2.0859 0 4.0898 0.82812 5.5664 2.3047s2.3047 3.4805 2.3047 5.5664z"/>
 </g>
 <path d="m352.77 431.49h-110.21c-4.3477 0-7.8711 3.5234-7.8711 7.8711v47.23c0 2.0898 0.82812 4.0898 2.3047 5.5664 1.4766 1.4766 3.4766 2.3047 5.5664 2.3047h110.21c2.0898 0 4.0898-0.82813 5.5664-2.3047 1.4766-1.4766 2.3047-3.4766 2.3047-5.5664v-47.23c0-2.0898-0.82812-4.0898-2.3047-5.5664-1.4766-1.4766-3.4766-2.3047-5.5664-2.3047zm-7.8711 47.23h-94.465v-31.488h94.465z"/>
 <path d="m258.3 525.95h-15.742c-4.3477 0-7.8711 3.5273-7.8711 7.875 0 4.3477 3.5234 7.8711 7.8711 7.8711h15.742c4.3477 0 7.875-3.5234 7.875-7.8711 0-4.3477-3.5273-7.875-7.875-7.875z"/>
 <path d="m305.54 525.95h-15.746c-4.3477 0-7.8711 3.5273-7.8711 7.875 0 4.3477 3.5234 7.8711 7.8711 7.8711h15.746c4.3477 0 7.8711-3.5234 7.8711-7.8711 0-4.3477-3.5234-7.875-7.8711-7.875z"/>
 <path d="m352.77 525.95h-15.742c-4.3477 0-7.875 3.5273-7.875 7.875 0 4.3477 3.5273 7.8711 7.875 7.8711h15.742c4.3477 0 7.8711-3.5234 7.8711-7.8711 0-4.3477-3.5234-7.875-7.8711-7.875z"/>
 <path d="m258.3 557.44h-15.742c-4.3477 0-7.8711 3.5273-7.8711 7.875s3.5234 7.8711 7.8711 7.8711h15.742c4.3477 0 7.875-3.5234 7.875-7.8711s-3.5273-7.875-7.875-7.875z"/>
 <path d="m305.54 557.44h-15.746c-4.3477 0-7.8711 3.5273-7.8711 7.875s3.5234 7.8711 7.8711 7.8711h15.746c4.3477 0 7.8711-3.5234 7.8711-7.8711s-3.5234-7.875-7.8711-7.875z"/>
 <path d="m352.77 557.44h-15.742c-4.3477 0-7.875 3.5273-7.875 7.875s3.5273 7.8711 7.875 7.8711h15.742c4.3477 0 7.8711-3.5234 7.8711-7.8711s-3.5234-7.875-7.8711-7.875z"/>
 <path d="m258.3 588.93h-15.742c-4.3477 0-7.8711 3.5273-7.8711 7.875 0 4.3477 3.5234 7.8711 7.8711 7.8711h15.742c4.3477 0 7.875-3.5234 7.875-7.8711 0-4.3477-3.5273-7.875-7.875-7.875z"/>
 <path d="m305.54 588.93h-15.746c-4.3477 0-7.8711 3.5273-7.8711 7.875 0 4.3477 3.5234 7.8711 7.8711 7.8711h15.746c4.3477 0 7.8711-3.5234 7.8711-7.8711 0-4.3477-3.5234-7.875-7.8711-7.875z"/>
 <path d="m352.77 588.93h-15.742c-4.3477 0-7.875 3.5273-7.875 7.875 0 4.3477 3.5273 7.8711 7.875 7.8711h15.742c4.3477 0 7.8711-3.5234 7.8711-7.8711 0-4.3477-3.5234-7.875-7.8711-7.875z"/>
 <path d="m415.74 407.87c-4.3477 0-7.8711 3.5234-7.8711 7.8711v125.95c0 2.0859 0.82812 4.0898 2.3047 5.5664 1.4766 1.4766 3.4805 2.3047 5.5664 2.3047h141.7c4.3477 0 7.875-3.5234 7.875-7.8711 0-4.3477-3.5273-7.8711-7.875-7.8711h-133.82v-118.08c0-2.0859-0.82812-4.0898-2.3047-5.5664-1.4766-1.4766-3.4766-2.3047-5.5664-2.3047z"/>
 <path d="m452.8 515.77 25.922-25.922 10.18 10.18v-0.003906c3.0742 3.0742 8.0547 3.0742 11.129 0l55.105-55.105v0.003906c2.9844-3.0898 2.9414-8-0.097656-11.035-3.0352-3.0391-7.9453-3.082-11.035-0.097656l-49.539 49.539-10.18-10.18h0.003906c-3.0742-3.0703-8.0586-3.0703-11.133 0l-31.488 31.488c-1.5195 1.4688-2.3828 3.4844-2.4023 5.5938-0.019531 2.1133 0.8125 4.1406 2.3047 5.6367 1.4961 1.4922 3.5234 2.3242 5.6367 2.3047 2.1094-0.019531 4.125-0.88281 5.5938-2.4023z"/>
 <path d="m384.25 313.41c0 2.0859 0.82812 4.0898 2.3047 5.5664 1.4766 1.4766 3.4805 2.3047 5.5664 2.3047h157.44c4.3477 0 7.8711-3.5234 7.8711-7.8711s-3.5234-7.8711-7.8711-7.8711h-157.44c-4.3477 0-7.8711 3.5234-7.8711 7.8711z"/>
 <path d="m329.15 352.77h220.42c4.3477 0 7.8711-3.5234 7.8711-7.8711 0-4.3477-3.5234-7.8711-7.8711-7.8711h-220.42c-4.3477 0-7.8711 3.5234-7.8711 7.8711 0 4.3477 3.5234 7.8711 7.8711 7.8711z"/>
 <path d="m329.15 384.25h188.93c4.3477 0 7.8711-3.5234 7.8711-7.8711 0-4.3477-3.5234-7.8711-7.8711-7.8711h-188.93c-4.3477 0-7.8711 3.5234-7.8711 7.8711 0 4.3477 3.5234 7.8711 7.8711 7.8711z"/>
 <path d="m321.28 313.41c0 2.0859 0.83203 4.0898 2.3047 5.5664 1.4766 1.4766 3.4805 2.3047 5.5664 2.3047h31.488c4.3477 0 7.875-3.5234 7.875-7.8711s-3.5273-7.8711-7.875-7.8711h-31.488c-4.3477 0-7.8711 3.5234-7.8711 7.8711z"/>
</svg>