<?xml version="1.0" encoding="UTF-8"?>
<!-- The Best Svg Icon site in the world: iconSvg.co, Visit us! https://iconsvg.co -->
<svg fill="#000000" width="800px" height="800px" version="1.1" viewBox="144 144 512 512" xmlns="http://www.w3.org/2000/svg">
 <g>
  <path d="m267.22 306.95h-27.645l0.003906-63.051c0-2.7266-2.207-4.9336-4.9336-4.9336-2.7266 0-4.9336 2.207-4.9336 4.9336v63.051h-27.645c-2.7266 0-4.9336 2.207-4.9336 4.9336v204.34c0 2.7266 2.207 4.9336 4.9336 4.9336h27.645v63.051c0 2.7266 2.207 4.9336 4.9336 4.9336 2.7266 0 4.9336-2.207 4.9336-4.9336v-63.051h27.645c2.7266 0 4.9336-2.207 4.9336-4.9336l-0.003906-204.34c-0.003906-2.7227-2.2109-4.9336-4.9336-4.9336zm-4.9297 204.35h-55.293v-194.48h55.289v194.48z"/>
  <path d="m379.76 241.27h-27.645v-63.055c0-2.7227-2.207-4.9297-4.9336-4.9297-2.7266 0-4.9336 2.207-4.9336 4.9336v63.051h-27.645c-2.7266 0-4.9336 2.207-4.9336 4.9336v224.62c0 2.7266 2.207 4.9336 4.9336 4.9336h27.645v63.051c0 2.7266 2.207 4.9336 4.9336 4.9336 2.7266 0 4.9336-2.207 4.9336-4.9336v-63.055h27.645c2.7266 0 4.9336-2.207 4.9336-4.9336l-0.003906-224.62c0-2.7227-2.207-4.9297-4.9297-4.9297zm-4.9336 224.62h-55.289v-214.75h55.289z"/>
  <path d="m597.93 241.27h-27.645v-63.055c-0.003906-2.7227-2.2109-4.9297-4.9297-4.9297s-4.9336 2.207-4.9336 4.9336v63.051h-27.645c-2.7266 0-4.9336 2.207-4.9336 4.9336v173.29c0 2.7266 2.207 4.9336 4.9336 4.9336h27.645v114.39c0 2.7266 2.207 4.9336 4.9336 4.9336 2.7266 0 4.9336-2.207 4.9336-4.9336l-0.003906-114.39h27.645c2.7266 0 4.9336-2.207 4.9336-4.9336v-173.29c0-2.7227-2.2109-4.9297-4.9336-4.9297zm-4.9336 173.29h-55.293v-163.42h55.289v163.42z"/>
  <path d="m489.08 293.27h-27.645v-63.047c0-2.7266-2.207-4.9336-4.9336-4.9336-2.7266 0-4.9336 2.207-4.9336 4.9336v63.047h-27.641c-2.7266 0-4.9336 2.207-4.9336 4.9336v255.59c0 2.7266 2.207 4.9336 4.9336 4.9336h27.645v63.051c0 2.7266 2.207 4.9336 4.9336 4.9336 2.7266 0 4.9336-2.207 4.9336-4.9336l-0.003906-63.055h27.645c2.7266 0 4.9336-2.207 4.9336-4.9336v-255.59c0-2.7188-2.207-4.9297-4.9336-4.9297zm-4.9258 255.59h-55.293v-245.73h55.289l-0.003906 245.73z"/>
 </g>
</svg>