<?xml version="1.0" encoding="UTF-8"?>
<!-- The Best Svg Icon site in the world: iconSvg.co, Visit us! https://iconsvg.co -->
<svg fill="#000000" width="800px" height="800px" version="1.1" viewBox="144 144 512 512" xmlns="http://www.w3.org/2000/svg">
 <g>
  <path d="m497.7 517.84c28.234 0 51.207-22.973 51.207-51.207s-22.973-51.207-51.207-51.207c-28.234 0-51.207 22.973-51.207 51.207 0 28.238 22.969 51.207 51.207 51.207z"/>
  <path d="m257.57 466.64c0 28.238 22.973 51.211 51.207 51.211s51.203-22.973 51.203-51.211c0-28.234-22.969-51.207-51.203-51.207-28.23 0-51.207 22.973-51.207 51.207z"/>
  <path d="m620.75 504.22-10.195-10.203c12.352-38.398-4.4805-85.422-45.387-126.34-7.0469-7.043-19.332-7.0469-26.379 0-3.5273 3.5273-5.4727 8.2109-5.4648 13.195 0 4.9844 1.9414 9.668 5.4648 13.191 36.41 36.414 38.934 86.742 6 119.66-14.699 14.699-32.879 22.469-52.586 22.469-22.738 0-46.605-10.168-67.223-28.633-15.062-13.504-28.789-13.441-43.5 0.035157-20.238 18.535-43.977 28.742-66.836 28.742-19.844 0-38.152-7.8203-52.957-22.621-16.555-16.555-24.5-37.156-22.984-59.574 1.457-21.504 11.754-42.84 29.004-60.086 7.2695-7.2812 7.2695-19.113 0-26.379-7.0469-7.0469-19.336-7.0469-26.383 0-40.914 40.902-57.746 87.918-45.395 126.32l-10.207 10.207c-0.71094 0.71094-1.1094 1.6719-1.1094 2.6719v80.141c0 1.0039 0.39844 1.9648 1.1094 2.6719 0.71094 0.70703 1.6719 1.1094 2.6719 1.1094h80.137c1.0039 0 1.9648-0.39844 2.6719-1.1094l10.203-10.203c37.215 12.035 82.082-3.4023 121.85-41.07 19.004 17.973 54.547 45.16 95.543 45.16 9.0391 0 17.859-1.375 26.27-4.0898l10.207 10.207c0.71094 0.71094 1.668 1.1094 2.6719 1.1094h80.137c2.0859 0 3.7773-1.6914 3.7773-3.7773l-0.007813-80.141c0.007813-1-0.39062-1.9648-1.1016-2.668z"/>
  <path d="m481.98 304.36c6.7305 0 12.82-4.0039 15.492-10.188 2.6719-6.1836 1.4141-13.355-3.2031-18.262l-81.156-62.812c-3.1797-3.3906-7.6289-5.3164-12.305-5.3164-4.6367 0-9.0977 1.9258-12.277 5.3164l-81.172 62.805c-4.6094 4.9062-5.8633 12.082-3.2031 18.262 2.6719 6.1875 8.7617 10.188 15.496 10.188h10.379v53.086h-8.9766c-8.6133 0-15.586 6.9883-15.586 15.602 0 8.6133 6.9727 15.602 15.586 15.602h159.53c8.6133 0 15.602-6.9883 15.602-15.602 0-8.6133-6.9883-15.602-15.602-15.602h-8.9609l-0.003906-53.078zm-106.52 37.18c0 5.6641-4.5938 10.258-10.258 10.258-5.6641 0-10.258-4.5938-10.258-10.258v-32.207c0-5.6641 4.5938-10.258 10.258-10.258 5.6641 0 10.258 4.5938 10.258 10.258zm38.035 0c0 5.6641-4.5938 10.258-10.262 10.258-5.6641 0-10.258-4.5938-10.258-10.258v-32.207c0-5.6641 4.5938-10.258 10.258-10.258 5.668 0 10.262 4.5938 10.262 10.258zm38.023 0c0 5.6641-4.5938 10.258-10.254 10.258-5.668 0-10.262-4.5938-10.262-10.258v-32.207c0-5.6641 4.5938-10.258 10.262-10.258 5.6562 0 10.254 4.5938 10.254 10.258z"/>
 </g>
</svg>