<?xml version="1.0" encoding="UTF-8"?>
<!-- The Best Svg Icon site in the world: iconSvg.co, Visit us! https://iconsvg.co -->
<svg fill="#000000" width="800px" height="800px" version="1.1" viewBox="144 144 512 512" xmlns="http://www.w3.org/2000/svg">
 <g>
  <path d="m604.78 432.52-45.57-63.098c-0.082032-0.10547-0.16797-0.20312-0.25781-0.29688-0.015625-0.019531-0.03125-0.039062-0.050781-0.058594-0.10938-0.11719-0.23828-0.22266-0.36328-0.31641-0.019531-0.015625-0.039062-0.035156-0.058593-0.050781-0.089844-0.066406-0.1875-0.11719-0.28125-0.17188-0.054688-0.035156-0.10547-0.070312-0.16797-0.10156-0.035156-0.015626-0.070312-0.03125-0.10547-0.046876-0.046875-0.019531-0.097656-0.035156-0.13672-0.054687h-0.003906c-0.070312-0.023437-0.13281-0.058594-0.20312-0.085937l-104.06-37.281c5.5078-8.8047 8.2305-16.762 8.4805-17.508 0.27344-0.81641 0.20703-1.7148-0.17578-2.4844-0.38281-0.76953-1.0625-1.3594-1.8789-1.6328-0.48828-0.16016-12.055-3.9609-25.711-3.9609-17.375 0-30.066 6.2422-37.23 17.941v-34.031c27.992-1.6875 50.254-24.988 50.254-53.402 0-29.504-24.008-53.508-53.508-53.508-29.504 0-53.508 24.008-53.508 53.508 0 28.41 22.258 51.711 50.254 53.402v34.031c-7.1641-11.699-19.855-17.941-37.238-17.941-13.648 0-25.215 3.7969-25.703 3.9609-0.82031 0.27344-1.4961 0.86328-1.8828 1.6328s-0.44922 1.668-0.17578 2.4844c0.28125 0.84766 3.7578 10.992 10.879 21.125l-93.898 33.633c-0.13281 0.039062-0.25781 0.097656-0.37891 0.15234h-0.003906c-0.35156 0.15625-0.67969 0.37109-0.95312 0.64062-0.019531 0.019532-0.039063 0.046875-0.058594 0.070313l-0.015625 0.015625c-0.097656 0.10156-0.1875 0.20312-0.26562 0.3125-0.003906 0.003906-0.011719 0.015625-0.019531 0.019531l-45.57 63.098c-0.59375 0.82031-0.76563 1.8672-0.48047 2.8359 0.29297 0.96875 1.0195 1.75 1.9609 2.1055l43.484 16.551v100.77c0 1.3516 0.83594 2.5586 2.0977 3.043l156.57 59.59c0.03125 0.011719 0.058594 0.015625 0.089844 0.023437 0.11719 0.039063 0.23828 0.074219 0.35938 0.10156 0.054687 0.015625 0.10938 0.03125 0.17188 0.039062 0.17578 0.03125 0.35156 0.050781 0.53516 0.050781h0.003906 0.003906c0.17969 0 0.35938-0.019531 0.53516-0.050781 0.054687-0.011719 0.10938-0.023437 0.17188-0.039062 0.12109-0.023438 0.24219-0.058594 0.36328-0.10156 0.023437-0.011718 0.058594-0.015625 0.085937-0.023437l156.57-59.59c1.2656-0.48438 2.0977-1.6914 2.0977-3.043v-100.77l43.484-16.551c0.94531-0.35938 1.668-1.1367 1.9609-2.1055 0.27734-0.96875 0.097656-2.0117-0.49609-2.832zm-210.93-43.594c0.30859-0.011719 0.62109-0.003907 0.93359-0.011719 23.254 0 45.082 6.2734 60.926 17.32l-55.715 21.207-62.301-23.715c15.215-9.293 35.27-14.641 56.156-14.801zm40.383-77.047c8.4375 0 16.168 1.6211 20.359 2.6992-3.7891 9.1094-16.332 34.582-38.109 34.582-6.0742 0-12.555-1.9766-19.289-5.8789 2.4648-20.844 14.922-31.402 37.039-31.402zm-17.75 43.781c14.883 0 25.816-9.2891 33.234-19.16l97.469 34.918-84.258 32.066c-16.672-13.023-40.457-20.609-65.922-21.027v-31.887c6.668 3.3828 13.203 5.0898 19.477 5.0898zm-69.742-119.78c0-25.922 21.09-47.004 47.004-47.004 25.922 0 47.004 21.09 47.004 47.004 0 25.914-21.09 47.004-47.004 47.004-25.914-0.003907-47.004-21.09-47.004-47.004zm6.5156 76c22.121 0 34.578 10.566 37.047 31.402-6.7305 3.8984-13.215 5.8789-19.289 5.8789h-0.003906c-21.773 0-34.324-25.477-38.109-34.582 4.1914-1.0781 11.922-2.6992 20.355-2.6992zm17.754 43.781c6.2812 0 12.812-1.7148 19.488-5.0898v31.93c-23.004 0.71094-44.234 7.168-60.312 18.363l-77.375-29.449 87.758-31.438c7.2812 8.4727 17.324 15.684 30.441 15.684zm-126.42 19.598 140.44 53.449 9.8477 3.75-41.629 57.629-150.28-57.199zm2.0859 81.234 106.59 40.57c0.37891 0.14062 0.76953 0.21094 1.1523 0.21094 1.0234 0 2.0117-0.48438 2.6406-1.3516l39.68-54.945v168.68l-56.156-21.371v-53.848c0-0.039062-0.011719-0.082031-0.011719-0.11719 0-0.085938-0.015625-0.16797-0.023438-0.25-0.015625-0.125-0.03125-0.26172-0.058593-0.38281-0.015626-0.074218-0.046876-0.14062-0.066407-0.21484-0.039062-0.13281-0.085937-0.26172-0.14062-0.38672-0.03125-0.066406-0.066406-0.12109-0.10156-0.1875-0.070313-0.125-0.14062-0.25-0.22266-0.36328-0.015626-0.019531-0.019532-0.039062-0.035157-0.058593-0.035156-0.050781-0.082031-0.085938-0.11719-0.125-0.085938-0.10156-0.17188-0.19531-0.26562-0.28906-0.070313-0.066406-0.14062-0.12109-0.21484-0.17578-0.089844-0.074219-0.17969-0.13672-0.27734-0.20312-0.085937-0.050781-0.17578-0.097656-0.26562-0.14062-0.097656-0.046875-0.19531-0.097656-0.29688-0.13281-0.10156-0.035156-0.20312-0.066406-0.30078-0.097656-0.10156-0.023437-0.20312-0.054687-0.30078-0.070312-0.11719-0.019532-0.23828-0.03125-0.35938-0.039063-0.066406 0-0.125-0.015625-0.19141-0.015625-0.03125 0-0.054688 0.003906-0.085938 0.003906-0.125 0.003907-0.25781 0.019532-0.38672 0.039063-0.085937 0.015625-0.16797 0.019531-0.24609 0.039063-0.12109 0.023437-0.24219 0.070312-0.36328 0.10937-0.082031 0.03125-0.16016 0.050782-0.23828 0.089844-0.10938 0.050782-0.21484 0.10938-0.32812 0.17578-0.074219 0.046874-0.15234 0.085937-0.22266 0.13281-0.03125 0.023438-0.070313 0.039062-0.10156 0.066406l-19.07 14.469-19.922-30.113-0.015625-0.015625c-0.039063-0.066406-0.097657-0.11719-0.14062-0.17578-0.34766-0.44922-0.78125-0.78516-1.2695-0.99609-0.003906 0-0.011718-0.003906-0.019531-0.011719-0.39844-0.16797-0.83203-0.25781-1.2578-0.25781-0.011719 0-0.019531 0.003906-0.03125 0.003906-0.20312 0-0.40234 0.019531-0.60547 0.058594-0.074219 0.015625-0.14453 0.046875-0.21484 0.066406-0.13281 0.035156-0.26172 0.070312-0.38672 0.11719-0.11719 0.050781-0.22656 0.11719-0.33594 0.17578-0.070312 0.039062-0.14453 0.070312-0.21094 0.10938-0.003906 0.003906-0.011718 0.011718-0.015624 0.015625-0.14063 0.097656-0.26563 0.20312-0.39453 0.31641-0.11719 0.10547-0.22266 0.22656-0.31641 0.34766-0.058594 0.074219-0.125 0.14062-0.17969 0.22266-0.058593 0.089843-0.10156 0.17969-0.15234 0.27734-0.050781 0.097657-0.10547 0.17969-0.15234 0.28125-0.035156 0.089844-0.054687 0.17578-0.082031 0.26562-0.050782 0.15234-0.089844 0.3125-0.11719 0.48047-0.023437 0.16016-0.050781 0.32422-0.050781 0.5v0.015625 51.184l-43.734-16.645v-96.043zm66.105 96.312c0.015626 0.023437 0.039063 0.046875 0.058594 0.070312 0.023438 0.035156 0.039063 0.074219 0.066406 0.10547 0.070313 0.097656 0.16016 0.16797 0.24219 0.25 0.082031 0.085937 0.15625 0.17188 0.24219 0.25 0.12109 0.10156 0.25 0.17969 0.38281 0.26172 0.085938 0.058594 0.16797 0.12109 0.25781 0.16797 0.15625 0.082032 0.32422 0.13281 0.48828 0.17969 0.074218 0.023438 0.15234 0.066406 0.22656 0.085938 0.24609 0.058593 0.5 0.097656 0.75391 0.097656 0.16797 0 0.32813-0.015625 0.48828-0.039063 0.050781-0.011719 0.10547-0.023437 0.15625-0.035156 0.10547-0.023437 0.21484-0.046875 0.32812-0.082031 0.066406-0.023438 0.12109-0.050782 0.1875-0.074219 0.097656-0.035156 0.19141-0.070313 0.28125-0.11719 0.066406-0.03125 0.13281-0.070313 0.19531-0.10547 0.054688-0.03125 0.10938-0.054688 0.16016-0.089844 0.023437-0.019531 0.046874-0.039063 0.070312-0.054687 0.035156-0.023438 0.070312-0.046876 0.10547-0.070313l16.617-12.617v44.613l-37.16-13.984v-42.797zm240.53-0.26172-150.07 57.117v-168.68l39.68 54.945c0.625 0.86719 1.6133 1.3516 2.6367 1.3516 0.38672 0 0.77734-0.070312 1.1523-0.21094l106.59-40.57 0.003906 96.047zm-106.57-62.453-41.629-57.629 17.543-6.6797 132.74-50.516 41.625 57.637z"/>
  <path d="m398.04 273.14v-6.8984c7.8047-1.5234 13.719-8.4023 13.719-16.652 0-9.3555-7.6133-16.969-16.973-16.969h-2.082c-5.7734 0-10.465-4.6953-10.465-10.465s4.6953-10.465 10.465-10.465h13.715c1.7969 0 3.2539-1.457 3.2539-3.2539s-1.457-3.2539-3.2539-3.2539h-8.3828v-6.5742c0-1.793-1.457-3.2539-3.2539-3.2539s-3.2539 1.457-3.2539 3.2539v6.6289c-8.8125 0.60547-15.801 7.9492-15.801 16.906 0 9.3555 7.6133 16.969 16.969 16.969h2.082c5.7734 0 10.469 4.6953 10.469 10.465s-4.6914 10.461-10.453 10.465h-0.011719-0.015625-13.699c-1.793 0-3.2539 1.457-3.2539 3.2539s1.457 3.2539 3.2539 3.2539h10.465v6.5742c0 1.793 1.457 3.2539 3.2539 3.2539 1.7969 0.003906 3.2539-1.4414 3.2539-3.2383z"/>
 </g>
</svg>