<?xml version="1.0" encoding="UTF-8"?>
<!-- The Best Svg Icon site in the world: iconSvg.co, Visit us! https://iconsvg.co -->
<svg fill="#000000" width="800px" height="800px" version="1.1" viewBox="144 144 512 512" xmlns="http://www.w3.org/2000/svg">
 <path d="m510.21 179.58h-220.42c-29.227 0-57.262 11.609-77.93 32.277s-32.277 48.703-32.277 77.93v220.42c0 29.23 11.609 57.262 32.277 77.93s48.703 32.277 77.93 32.277h220.42c29.23 0 57.262-11.609 77.93-32.277s32.277-48.699 32.277-77.93v-220.42c0-29.227-11.609-57.262-32.277-77.93s-48.699-32.277-77.93-32.277zm78.719 330.62c0 20.879-8.293 40.902-23.055 55.664-14.762 14.762-34.785 23.055-55.664 23.055h-220.42c-20.875 0-40.898-8.293-55.664-23.055-14.762-14.762-23.055-34.785-23.055-55.664v-220.42c0-20.875 8.293-40.898 23.055-55.664 14.766-14.762 34.789-23.055 55.664-23.055h220.42c20.879 0 40.902 8.293 55.664 23.055 14.762 14.766 23.055 34.789 23.055 55.664zm-78.719-110.21c0 4.1758-1.6602 8.1797-4.6133 11.133-2.9492 2.9492-6.957 4.6094-11.133 4.6094h-78.719v78.719c0 5.625-3 10.824-7.8711 13.637s-10.875 2.8125-15.746 0-7.8711-8.0117-7.8711-13.637v-78.719h-78.719c-5.625 0-10.824-3-13.637-7.8711s-2.8125-10.875 0-15.746 8.0117-7.8711 13.637-7.8711h78.719v-78.719c0-5.625 3-10.824 7.8711-13.637s10.875-2.8125 15.746 0 7.8711 8.0117 7.8711 13.637v78.719h78.719c4.1758 0 8.1836 1.6602 11.133 4.6133 2.9531 2.9531 4.6133 6.957 4.6133 11.133z"/>
</svg>