<?xml version="1.0" encoding="UTF-8"?>
<!-- The Best Svg Icon site in the world: iconSvg.co, Visit us! https://iconsvg.co -->
<svg fill="#000000" width="800px" height="800px" version="1.1" viewBox="144 144 512 512" xmlns="http://www.w3.org/2000/svg">
 <g>
  <path d="m243.54 466.28v107.7c0.16406 3.3711 2.9141 6.0352 6.2891 6.0938h233.02c1.5664-0.050781 3.0469-0.72266 4.1172-1.8633 1.0703-1.1445 1.6406-2.6641 1.5898-4.2305v-114.58l107.57-69.141 2.0938 3.1758-0.003907-0.003906c1.7852 2.7461 5.4492 3.5352 8.2031 1.7734l34.188-21.992h0.003906c2.7422-1.7656 3.5352-5.418 1.7695-8.1602l-38.75-60.234h0.003906c-1.7656-2.7422-5.418-3.5352-8.1602-1.7695l-34.188 21.992c-2.7422 1.7617-3.5352 5.418-1.7695 8.1602l1.9414 3.1758-72.914 46.84v-107.18c0-0.6875 0.089843-1.3789 0.066406-2.0664h-0.003906c-0.48438-14.594-6.7305-28.398-17.375-38.391-10.566-10.039-24.578-15.641-39.148-15.652h-131.5c-14.59 0.011719-28.617 5.6133-39.199 15.652-10.711 9.9492-17.047 23.734-17.625 38.34-0.023438 0.6875-0.23047 1.4258-0.23047 2.1172v16.707h-45.496c-10.98 0.035156-21.504 4.418-29.258 12.191-7.7578 7.7734-12.117 18.301-12.125 29.285-0.089843 8.832 2.6758 17.461 7.8789 24.598zm233.21-181.41v19.68h-221.4v-19.68zm0 236.16h-221.4v-204.67h221.4zm-221.4 47.23v-35.422h221.4v35.426zm341.56-252.09 32.359 50.301-24.254 15.605-32.363-50.305zm-29.051 30.133 21.84 34.023-101.14 65.031v-48.105zm-267.26-114.57h131.5c23.398 0 43.152 18.695 44.742 41.328h-220.98c1.5898-22.633 21.34-41.328 44.742-41.328zm-102.55 72.816h45.496v141.83l-69.496-94.52c-4.3086-5.9492-6.2734-13.281-5.5117-20.586 0.76172-7.3086 4.1953-14.078 9.6445-19.008 5.4453-4.9336 12.52-7.6797 19.867-7.7148z"/>
  <path d="m366.45 501.38c21.566 0 42.254-8.5664 57.504-23.816 15.25-15.254 23.82-35.938 23.82-57.508 0-21.566-8.5703-42.25-23.82-57.504-15.25-15.25-35.938-23.816-57.504-23.816-21.57 0-42.254 8.5664-57.508 23.816-15.25 15.254-23.816 35.938-23.816 57.504 0.023438 21.562 8.5977 42.234 23.844 57.48 15.246 15.246 35.918 23.82 57.48 23.844zm0-150.84c18.434 0 36.117 7.3242 49.152 20.363 13.039 13.035 20.363 30.719 20.363 49.152 0 18.438-7.3242 36.121-20.363 49.156-13.035 13.039-30.719 20.363-49.152 20.363-18.438 0-36.121-7.3242-49.156-20.363-13.035-13.035-20.359-30.719-20.359-49.156 0.019531-18.43 7.3516-36.098 20.383-49.129 13.031-13.035 30.703-20.363 49.133-20.387z"/>
  <path d="m366.45 455.71c-7.5234-0.007813-13.621-6.1055-13.629-13.625 0-3.2617-2.6445-5.9062-5.9023-5.9062-3.2617 0-5.9062 2.6445-5.9062 5.9062 0.007813 5.5586 1.832 10.961 5.1992 15.387 3.3633 4.4219 8.0859 7.625 13.441 9.1172v5.2383c0 3.2578 2.6406 5.9023 5.9023 5.9023 3.2617 0 5.9023-2.6445 5.9023-5.9023v-4.8047c8.3242-1.6719 15.262-7.3867 18.5-15.234 3.2383-7.8477 2.3516-16.793-2.3711-23.848-4.7188-7.0547-12.648-11.293-21.137-11.293-5.5117 0-10.48-3.3203-12.59-8.4102-2.1094-5.0938-0.94531-10.957 2.9531-14.852 3.8984-3.8984 9.7578-5.0664 14.852-2.957 5.0898 2.1094 8.4102 7.0781 8.4102 12.59 0 3.2617 2.6445 5.9062 5.9062 5.9062 3.2578 0 5.9023-2.6445 5.9023-5.9062-0.007813-5.8711-2.043-11.562-5.7656-16.109-3.7227-4.543-8.9023-7.6602-14.66-8.8281v-4.6562c0-3.2617-2.6406-5.9023-5.9023-5.9023-3.2617 0-5.9023 2.6406-5.9023 5.9023v5.0898c-7.9727 2.2109-14.375 8.1602-17.156 15.949-2.7852 7.7891-1.6055 16.445 3.1562 23.211 4.7656 6.7617 12.523 10.781 20.797 10.781 7.5273 0 13.629 6.1016 13.629 13.629s-6.1016 13.629-13.629 13.629z"/>
 </g>
</svg>