<?xml version="1.0" encoding="UTF-8"?>
<!-- The Best Svg Icon site in the world: iconSvg.co, Visit us! https://iconsvg.co -->
<svg fill="#000000" width="800px" height="800px" version="1.1" viewBox="144 144 512 512" xmlns="http://www.w3.org/2000/svg">
 <g>
  <path d="m179.58 179.58h102.34v-15.746h-102.34c-4.1758 0-8.1797 1.6602-11.133 4.6133s-4.6133 6.957-4.6133 11.133v102.34h15.746z"/>
  <path d="m620.41 163.84h-102.34v15.746h102.34v102.34h15.742l0.003906-102.34c0-4.1758-1.6602-8.1797-4.6133-11.133s-6.957-4.6133-11.133-4.6133z"/>
  <path d="m179.58 518.08h-15.746v102.34c0 4.1758 1.6602 8.1797 4.6133 11.133s6.957 4.6133 11.133 4.6133h102.34v-15.746h-102.34z"/>
  <path d="m620.41 620.41h-102.34v15.742l102.34 0.003906c4.1758 0 8.1797-1.6602 11.133-4.6133s4.6133-6.957 4.6133-11.133v-102.34h-15.746z"/>
  <path d="m415.74 455.1h-31.488c-6.2617 0-12.27-2.4883-16.699-6.9141-4.4297-4.4297-6.918-10.438-6.918-16.699h-15.742c0.011719 10.434 4.1641 20.438 11.543 27.816 7.3789 7.3789 17.383 11.531 27.816 11.543h7.8711v15.742h15.742l0.003906-15.742h7.8711c14.062 0 27.055-7.5039 34.086-19.68 7.0312-12.18 7.0312-27.184 0-39.363-7.0312-12.176-20.023-19.68-34.086-19.68h-31.488c-8.4375 0-16.234-4.5-20.453-11.805-4.2188-7.3086-4.2188-16.312 0-23.617 4.2188-7.3086 12.016-11.809 20.453-11.809h31.488c6.2656 0 12.27 2.4883 16.699 6.918 4.4297 4.4258 6.918 10.434 6.918 16.699h15.742c-0.011718-10.438-4.1641-20.441-11.539-27.82-7.3789-7.3789-17.387-11.527-27.82-11.543h-7.8711v-15.742h-15.746v15.742h-7.8711c-14.062 0-27.055 7.5039-34.086 19.684-7.0312 12.176-7.0312 27.18 0 39.359 7.0312 12.176 20.023 19.68 34.086 19.68h31.488c8.4375 0 16.234 4.5 20.453 11.809 4.2188 7.3047 4.2188 16.309 0 23.613-4.2188 7.3086-12.016 11.809-20.453 11.809z"/>
  <path d="m588.73 407.87h15.941v-15.746h-15.941c-2.0312-47.312-21.738-92.145-55.223-125.63-33.488-33.488-78.32-53.195-125.64-55.227v-15.941h-15.746v15.941c-47.312 2.0312-92.145 21.738-125.63 55.227-33.488 33.488-53.195 78.32-55.227 125.63h-15.941v15.742l15.941 0.003906c2.0312 47.316 21.738 92.148 55.227 125.64 33.488 33.484 78.32 53.191 125.63 55.223v15.941h15.742l0.003906-15.941c47.316-2.0312 92.148-21.738 125.64-55.223 33.484-33.488 53.191-78.32 55.223-125.64zm-180.86 165.11v-15.945c38.918-1.9844 75.723-18.336 103.28-45.891 27.555-27.555 43.906-64.359 45.891-103.28h15.949-0.003906c-2.0117 43.141-20.055 83.98-50.594 114.52s-71.379 48.582-114.52 50.594zm-149.17-180.86c1.9648-34.746 16.652-67.551 41.262-92.16s57.414-39.297 92.16-41.262v15.344h15.742l0.003906-15.344c34.746 1.9648 67.551 16.652 92.16 41.262s39.297 57.414 41.262 92.16h-15.344v15.742h15.344v0.003906c-1.9648 34.746-16.652 67.551-41.262 92.16s-57.414 39.297-92.16 41.262v-15.344h-15.746v15.344c-34.746-1.9648-67.551-16.652-92.16-41.262s-39.297-57.414-41.262-92.16h15.344v-15.746zm314.28 0h-15.945c-1.9844-38.918-18.336-75.719-45.891-103.28-27.555-27.555-64.359-43.906-103.28-45.887v-15.949c43.141 2.0117 83.98 20.055 114.52 50.594 30.539 30.539 48.582 71.379 50.594 114.52zm-180.86-165.11v15.949c-38.918 1.9805-75.719 18.332-103.28 45.887-27.555 27.559-43.906 64.359-45.887 103.28h-15.949c2.0117-43.141 20.055-83.98 50.594-114.52 30.539-30.539 71.379-48.582 114.52-50.594zm-165.11 180.86h15.949c1.9805 38.918 18.332 75.723 45.887 103.28 27.559 27.555 64.359 43.906 103.28 45.891v15.949-0.003906c-43.141-2.0117-83.98-20.055-114.52-50.594-30.539-30.539-48.582-71.379-50.594-114.52z"/>
  <path d="m470.85 392.12h15.742v15.742h-15.742z"/>
  <path d="m313.41 392.12h15.742v15.742h-15.742z"/>
 </g>
</svg>