<?xml version="1.0" encoding="UTF-8"?>
<!-- The Best Svg Icon site in the world: iconSvg.co, Visit us! https://iconsvg.co -->
<svg width="800px" height="800px" version="1.1" viewBox="144 144 512 512" xmlns="http://www.w3.org/2000/svg">
 <defs>
  <clipPath id="a">
   <path d="m289 148.09h222v503.81h-222z"/>
  </clipPath>
 </defs>
 <g clip-path="url(#a)">
  <path d="m486.59 494.46h-78.719v-20.355l33.172-33.172c2.2148 0.31641 4.4414 0.51562 6.6758 0.59766 18.637 0.042969 36.332-8.1992 48.293-22.492 11.957-14.297 16.945-33.168 13.613-51.504-0.57812-3.2539-3.125-5.8008-6.3789-6.3789-19.508-3.5469-39.543 2.3516-54.016 15.902-14.477 13.551-21.684 33.152-19.43 52.855l-21.93 21.93v-99.473c35.52-2.7383 67.055-23.754 83.262-55.477 16.207-31.727 14.746-69.598-3.8516-99.98-18.598-30.383-51.66-48.91-87.281-48.91-35.625 0-68.688 18.527-87.285 48.91-18.598 30.383-20.055 68.254-3.8516 99.98 16.207 31.723 47.746 52.738 83.262 55.477v99.473l-21.93-21.93c2.2305-19.688-4.9844-39.27-19.453-52.801-14.465-13.535-34.484-19.43-53.977-15.891-3.2539 0.57422-5.8008 3.1211-6.3789 6.375-3.332 18.336 1.6562 37.207 13.617 51.504 11.957 14.293 29.652 22.535 48.289 22.492 2.2344-0.082031 4.4648-0.28125 6.6758-0.59766l33.156 33.109v20.355h-78.719c-6.4492-0.023438-12.625 2.6016-17.082 7.2578-4.4609 4.6602-6.8125 10.945-6.5039 17.383 0.30469 6.4414 3.2422 12.477 8.125 16.688v0.1875l24.953 87.379v0.003906c2.3828 8.2148 7.3594 15.434 14.188 20.582 6.8281 5.1445 15.145 7.9375 23.695 7.9609h78.438c8.5312-0.042969 16.824-2.8477 23.637-7.9922 6.8086-5.1445 11.773-12.352 14.148-20.551l24.953-87.363v-0.1875c4.8828-4.207 7.8242-10.23 8.1406-16.664 0.32031-6.4336-2.0156-12.719-6.457-17.383-4.4453-4.6641-10.605-7.3047-17.051-7.3008zm-27.773-104.71v0.003906c9.4648-9.5195 22.566-14.504 35.961-13.684 0.77734 13.391-4.2031 26.473-13.684 35.957-9.4844 9.4844-22.566 14.461-35.957 13.684-0.75-13.383 4.2227-26.457 13.68-35.957zm-139.92 22.277 0.003906 0.003906c-9.457-9.5039-14.434-22.574-13.684-35.961 13.391-0.77734 26.473 4.2031 35.957 13.688 9.4805 9.4844 14.461 22.566 13.684 35.953-13.395 0.80859-26.488-4.1758-35.957-13.68zm-5.4922-161.59c0-22.965 9.125-44.992 25.363-61.23s38.262-25.363 61.23-25.363c22.965 0 44.988 9.125 61.227 25.363 16.242 16.238 25.363 38.266 25.363 61.23 0 22.965-9.1211 44.992-25.363 61.23-16.238 16.238-38.262 25.363-61.227 25.363-22.961-0.027344-44.969-9.1562-61.203-25.391-16.234-16.234-25.367-38.246-25.391-61.203zm148.53 368.6c-1.4258 4.9258-4.4102 9.2617-8.5078 12.352-4.0938 3.0859-9.082 4.7617-14.211 4.7773h-78.438c-5.1289-0.019531-10.109-1.6992-14.203-4.7852-4.0938-3.0898-7.0742-7.4219-8.5-12.344l-22.105-77.336h168.05zm24.652-93.082h-173.18c-4.3477 0-7.8711-3.5234-7.8711-7.8711s3.5234-7.8711 7.8711-7.8711h173.18c4.3477 0 7.8711 3.5234 7.8711 7.8711s-3.5234 7.8711-7.8711 7.8711zm-78.719-212.54v-7.8711c11.25 0 21.645-6.0039 27.27-15.746 5.625-9.7422 5.625-21.746 0-31.488-5.625-9.7422-16.02-15.742-27.27-15.742h-15.746c-5.625 0-10.82-3-13.633-7.8711s-2.8125-10.875 0-15.746 8.0078-7.8711 13.633-7.8711h15.746c4.1758 0 8.1797 1.6602 11.133 4.6094 2.9531 2.9531 4.6094 6.957 4.6094 11.133 0 4.3477 3.5273 7.875 7.875 7.875 4.3477 0 7.8711-3.5273 7.8711-7.875 0-8.3516-3.3164-16.359-9.2227-22.266-5.9062-5.9023-13.914-9.2227-22.266-9.2227v-7.8711c0-4.3477-3.5234-7.8711-7.8711-7.8711s-7.875 3.5234-7.875 7.8711v7.8711c-11.25 0-21.645 6.0039-27.27 15.746-5.625 9.7422-5.625 21.746 0 31.488 5.625 9.7422 16.02 15.742 27.27 15.742h15.746c5.625 0 10.82 3.0039 13.633 7.875 2.8125 4.8711 2.8125 10.871 0 15.742-2.8125 4.8711-8.0078 7.8711-13.633 7.8711h-15.746c-4.1758 0-8.1797-1.6562-11.133-4.6094-2.9492-2.9531-4.6094-6.957-4.6094-11.133 0-4.3477-3.5234-7.8711-7.8711-7.8711-4.3477 0-7.875 3.5234-7.875 7.8711 0 8.3516 3.3203 16.359 9.2227 22.266 5.9062 5.9023 13.914 9.2227 22.266 9.2227v7.8711c0 4.3477 3.5273 7.8711 7.875 7.8711s7.8711-3.5234 7.8711-7.8711z"/>
 </g>
</svg>