<?xml version="1.0" encoding="UTF-8"?>
<!-- The Best Svg Icon site in the world: iconSvg.co, Visit us! https://iconsvg.co -->
<svg fill="#000000" width="800px" height="800px" version="1.1" viewBox="144 144 512 512" xmlns="http://www.w3.org/2000/svg">
 <path d="m573.18 507.37-60.613-165.31c-1.8359-5.0469-2.793-10.371-2.8359-15.742v-62.977c9.9414-8.5078 15.688-20.922 15.746-34.008v-4.5664c-0.042969-11.887-4.75-23.285-13.113-31.738-8.3633-8.4531-19.711-13.281-31.602-13.445h-161.54c-11.969 0.042969-23.438 4.8164-31.902 13.281-8.4648 8.4648-13.242 19.934-13.281 31.902v4.0938c0.058594 13.086 5.8047 25.5 15.742 34.008v62.977c-0.042968 5.3711-1 10.695-2.832 15.746l-60.145 165.78c-11.781 24.324-10.266 52.988 4.0156 75.93 14.285 22.941 39.336 36.953 66.363 37.113h205.62c27.023-0.16016 52.074-14.172 66.359-37.113 14.281-22.941 15.797-51.605 4.0156-75.93zm-267.65-282.61c0-7.5625 6.1328-13.695 13.695-13.695h161.54c3.6328 0 7.1172 1.4414 9.6836 4.0117 2.5703 2.5703 4.0117 6.0508 4.0117 9.6836v4.0938c0 7.5664-6.1289 13.699-13.695 13.699h-161.54c-7.5625 0-13.695-6.1328-13.695-13.699zm237.42 341.8c-8.6094 13.898-23.797 22.355-40.145 22.355h-205.62c-16.355-0.019531-31.531-8.5-40.125-22.414-8.5898-13.914-9.375-31.281-2.0703-45.914 0.066406-0.57422 0.066406-1.1562 0-1.7305l61.559-166.1c3.1523-8.6797 4.75-17.844 4.7227-27.078v-51.641h157.44v51.797c-0.007812 9.1797 1.5898 18.293 4.7227 26.922l60.93 165.94c-0.066406 0.57812-0.066406 1.1562 0 1.7344 7.5859 14.574 7.0469 32.047-1.418 46.129z"/>
</svg>