<?xml version="1.0" encoding="UTF-8"?>
<!-- The Best Svg Icon site in the world: iconSvg.co, Visit us! https://iconsvg.co -->
<svg fill="#000000" width="800px" height="800px" version="1.1" viewBox="144 144 512 512" xmlns="http://www.w3.org/2000/svg">
 <g>
  <path d="m400 525.95c-33.406 0-65.441-13.27-89.062-36.891-23.621-23.617-36.891-55.656-36.891-89.059 0-33.406 13.27-65.441 36.891-89.062s55.656-36.891 89.062-36.891c33.402 0 65.441 13.27 89.059 36.891 23.621 23.621 36.891 55.656 36.891 89.062-0.035157 33.391-13.32 65.406-36.93 89.02-23.613 23.609-55.629 36.895-89.02 36.93zm0-220.42v0.003906c-25.055 0-49.082 9.9531-66.797 27.668s-27.668 41.742-27.668 66.797c0 25.051 9.9531 49.078 27.668 66.793 17.715 17.719 41.742 27.668 66.797 27.668 25.051 0 49.078-9.9492 66.793-27.668 17.719-17.715 27.668-41.742 27.668-66.793-0.027344-25.047-9.9883-49.059-27.695-66.766-17.711-17.711-41.723-27.672-66.766-27.699z"/>
  <path d="m407.87 462.98h-39.359c-5.625 0-10.824-3.0039-13.637-7.875-2.8125-4.8711-2.8125-10.871 0-15.742s8.0117-7.8711 13.637-7.8711h39.359c4.3477 0 7.8711-3.5273 7.8711-7.875 0-4.3477-3.5234-7.8711-7.8711-7.8711h-15.746c-14.059 0-27.055-7.5-34.086-19.68s-7.0312-27.184 0-39.359c7.0312-12.18 20.027-19.68 34.086-19.68h39.363c5.625 0 10.82 3 13.633 7.8711 2.8125 4.8711 2.8125 10.871 0 15.742-2.8125 4.8711-8.0078 7.875-13.633 7.875h-39.363c-4.3477 0-7.8711 3.5234-7.8711 7.8711 0 4.3477 3.5234 7.8711 7.8711 7.8711h15.746c14.062 0 27.055 7.5039 34.086 19.68 7.0312 12.18 7.0312 27.184 0 39.359-7.0312 12.18-20.023 19.684-34.086 19.684z"/>
  <path d="m400 368.51c-4.1758 0-8.1797-1.6602-11.133-4.6133-2.9531-2.9531-4.6133-6.957-4.6133-11.133v-15.742c0-5.625 3-10.824 7.8711-13.637s10.875-2.8125 15.746 0 7.8711 8.0117 7.8711 13.637v15.742c0 4.1758-1.6602 8.1797-4.6094 11.133-2.9531 2.9531-6.957 4.6133-11.133 4.6133z"/>
  <path d="m400 478.72c-4.1758 0-8.1797-1.6602-11.133-4.6094-2.9531-2.9531-4.6133-6.9609-4.6133-11.133v-15.746c0-5.625 3-10.82 7.8711-13.633s10.875-2.8125 15.746 0 7.8711 8.0078 7.8711 13.633v15.746c0 4.1719-1.6602 8.1797-4.6094 11.133-2.9531 2.9492-6.957 4.6094-11.133 4.6094z"/>
  <path d="m400 636.16c-62.637 0-122.7-24.883-166.99-69.172-44.289-44.289-69.172-104.36-69.172-166.99 0-62.637 24.883-122.7 69.172-166.99 44.289-44.289 104.36-69.172 166.99-69.172 62.633 0 122.7 24.883 166.99 69.172 44.289 44.289 69.172 104.36 69.172 166.99-0.070312 62.609-24.977 122.64-69.25 166.91-44.273 44.273-104.3 69.18-166.91 69.25zm0-440.84c-54.285 0-106.34 21.566-144.73 59.949-38.383 38.383-59.949 90.441-59.949 144.73 0 54.281 21.566 106.34 59.949 144.72 38.383 38.387 90.441 59.949 144.73 59.949 54.281 0 106.34-21.562 144.72-59.949 38.387-38.383 59.949-90.441 59.949-144.72-0.0625-54.266-21.645-106.29-60.016-144.66s-90.395-59.953-144.66-60.016z"/>
  <path d="m400 305.54c-4.1758 0-8.1797-1.6602-11.133-4.6133-2.9531-2.9531-4.6133-6.957-4.6133-11.133v-110.21c0-5.625 3-10.824 7.8711-13.637s10.875-2.8125 15.746 0 7.8711 8.0117 7.8711 13.637v110.21c0 4.1758-1.6602 8.1797-4.6094 11.133-2.9531 2.9531-6.957 4.6133-11.133 4.6133z"/>
  <path d="m555.86 571.6c-4.1758 0.007813-8.1836-1.6523-11.133-4.6133l-77.922-77.934 0.003907 0.003907c-3.8633-4-5.332-9.7383-3.8594-15.102 1.4688-5.3633 5.6562-9.5508 11.02-11.02 5.3633-1.4727 11.102-0.003906 15.102 3.8594l77.922 77.934-0.003906-0.003906c2.9531 2.9531 4.6133 6.957 4.6133 11.133-0.003906 4.1758-1.6602 8.1797-4.6133 11.133-2.9492 2.9492-6.9531 4.6094-11.129 4.6094z"/>
  <path d="m500 369.39c-4.8242 0.007812-9.3828-2.1953-12.371-5.9766-2.9922-3.7812-4.0859-8.7227-2.9688-13.414 1.1172-4.6914 4.3203-8.6094 8.6953-10.637l99.98-46.355c5.1016-2.3672 11.082-1.832 15.684 1.4023 4.6016 3.2344 7.1289 8.6797 6.625 14.285-0.5 5.6016-3.9531 10.512-9.0547 12.879l-99.984 46.355c-2.0703 0.96094-4.3242 1.4609-6.6055 1.4609z"/>
 </g>
</svg>