<?xml version="1.0" encoding="UTF-8"?>
<!-- The Best Svg Icon site in the world: iconSvg.co, Visit us! https://iconsvg.co -->
<svg fill="#000000" width="800px" height="800px" version="1.1" viewBox="144 144 512 512" xmlns="http://www.w3.org/2000/svg">
 <g>
  <path d="m628.29 203.2c-72.152 0.019531-143.83-11.609-212.27-34.441l-13.531-4.5117h-0.003906c-1.6133-0.54297-3.3594-0.54297-4.9727 0l-13.531 4.5117c-68.441 22.832-140.12 34.461-212.27 34.441-4.3477 0-7.875 3.5234-7.875 7.8711v117.43c0.14453 69.754 23.098 137.55 65.355 193.04 42.262 55.496 101.51 95.648 168.71 114.34 1.3672 0.37891 2.8164 0.37891 4.1875 0 67.203-18.688 126.45-58.84 168.71-114.34 42.258-55.496 65.211-123.29 65.355-193.04v-117.43c0-2.0898-0.83203-4.0898-2.3047-5.5664-1.4766-1.4766-3.4805-2.3047-5.5664-2.3047zm-7.875 125.3c-0.13281 65.941-21.707 130.05-61.469 182.65-39.758 52.605-95.547 90.852-158.95 108.97-63.402-18.121-119.19-56.367-158.95-108.97-39.762-52.602-61.336-116.71-61.469-182.65v-109.6c71.203-0.78906 141.85-12.668 209.39-35.211l11.023-3.6758 11.02 3.6758c67.547 22.543 138.19 34.422 209.39 35.211z"/>
  <path d="m437.79 289.79h-99.793c-8.7812-0.007812-17.312 2.9258-24.234 8.3281-6.9219 5.4062-11.832 12.973-13.953 21.492l-8.3828 33.535h-0.003906c-13.434 1.5469-25.836 7.9766-34.844 18.066-9.0078 10.09-13.996 23.133-14.016 36.66v62.977c0 2.0859 0.82812 4.0898 2.3047 5.5664 1.4766 1.4766 3.4805 2.3047 5.5664 2.3047h7.8711v23.617c0 2.0859 0.83203 4.0898 2.3086 5.5664 1.4766 1.4766 3.4766 2.3047 5.5664 2.3047h47.23c2.0859 0 4.0898-0.82812 5.5664-2.3047 1.4766-1.4766 2.3047-3.4805 2.3047-5.5664v-23.617h157.44v23.617c0 2.0859 0.82812 4.0898 2.3047 5.5664 1.4766 1.4766 3.4805 2.3047 5.5664 2.3047h47.234c2.0859 0 4.0898-0.82812 5.5664-2.3047 1.4766-1.4766 2.3047-3.4805 2.3047-5.5664v-23.617h7.8711c2.0898 0 4.0898-0.82812 5.5664-2.3047 1.4766-1.4766 2.3047-3.4805 2.3047-5.5664v-62.977c-0.019531-2.5039-0.20703-5-0.56641-7.4805l11.32 4.9844c2.9727 1.3086 6.4414 0.65625 8.7383-1.6406 2.293-2.293 2.9453-5.7617 1.6367-8.7344l-12.871-29.285 31.805-3.4805v0.003906c3.2227-0.35938 5.8984-2.6562 6.7383-5.7891 0.83984-3.1328-0.32812-6.4609-2.9453-8.3828l-25.812-18.918 25.812-18.895v0.003906c2.6172-1.9219 3.7852-5.25 2.9453-8.3828-0.83984-3.1328-3.5156-5.4297-6.7383-5.7891l-31.812-3.4805 12.871-29.293v0.003906c1.3086-2.9727 0.65625-6.4414-1.6367-8.7344-2.2969-2.2969-5.7656-2.9492-8.7383-1.6406l-29.285 12.871-3.4805-31.805h0.003906c-0.35547-3.2227-2.6562-5.8984-5.7891-6.7383-3.1328-0.83984-6.4609 0.33203-8.3828 2.9453l-18.914 25.789-18.895-25.812c-1.918-2.6172-5.2461-3.7852-8.3828-2.9453-3.1328 0.83984-5.4297 3.5156-5.7852 6.7383l-3.4805 31.812-29.293-12.871c-2.9688-1.3086-6.4414-0.65625-8.7344 1.6406-2.2969 2.293-2.9453 5.7617-1.6406 8.7344zm-122.7 33.629c1.2773-5.1055 4.2266-9.6406 8.3789-12.883 4.1484-3.2383 9.2656-5 14.531-5h124.02c5.2656 0 10.379 1.7617 14.531 5 4.1484 3.2422 7.0977 7.7773 8.375 12.883l7.3359 29.348h-184.5zm-9.5469 171.04h-31.488v-15.742h31.488zm220.42 0h-31.492v-15.742h31.488zm15.742-31.488-283.39 0.003906v-55.105c0.015625-10.438 4.1641-20.441 11.543-27.82 7.3789-7.3789 17.383-11.527 27.82-11.539h204.67c10.434 0.011719 20.438 4.1602 27.816 11.539 7.3789 7.3789 11.531 17.383 11.543 27.82zm-72.422-178.44c2.2969 1.0195 4.9492 0.87891 7.1289-0.375 2.1758-1.2578 3.625-3.4844 3.8906-5.9844l2.4414-22.324 13.289 18.105h-0.003907c1.5508 1.918 3.8867 3.0352 6.3555 3.0352s4.8008-1.1172 6.3516-3.0352l13.289-18.105 2.4414 22.324c0.26562 2.5 1.7148 4.7227 3.8945 5.9766 2.1797 1.2578 4.8242 1.3945 7.125 0.375l20.609-9.0547-9.125 20.617c-1.0195 2.3008-0.87891 4.9492 0.375 7.1289 1.2578 2.1758 3.4766 3.625 5.9766 3.8945l22.332 2.4492-18.105 13.281 0.003907-0.003906c-2.0273 1.4844-3.2266 3.8438-3.2266 6.3555 0 2.5078 1.1992 4.8672 3.2266 6.3516l18.105 13.281-22.332 2.4492-0.003906-0.003907c-2.5 0.26953-4.7188 1.7188-5.9766 3.8984-1.2539 2.1758-1.3945 4.8242-0.375 7.125l9.0547 20.602-6.1484-2.6992v-0.003906c-8.7539-14.988-24.051-24.98-41.289-26.977l-8.3828-33.535c-2.1094-8.5352-7.0156-16.117-13.938-21.535-6.9219-5.418-15.461-8.3594-24.25-8.3555h-7.0859l-6.2969-14.32z"/>
  <path d="m297.66 384.25c-6.2656 0-12.273 2.4883-16.699 6.918-4.4297 4.4297-6.918 10.434-6.918 16.699 0 6.2617 2.4883 12.27 6.918 16.699 4.4258 4.4297 10.434 6.918 16.699 6.918 6.2617 0 12.27-2.4883 16.695-6.918 4.4297-4.4297 6.918-10.438 6.918-16.699 0-6.2656-2.4883-12.27-6.918-16.699-4.4258-4.4297-10.434-6.918-16.695-6.918zm0 31.488c-3.1875 0-6.0547-1.918-7.2734-4.8594-1.2188-2.9414-0.54688-6.3281 1.707-8.5781 2.25-2.25 5.6367-2.9258 8.5781-1.707 2.9414 1.2188 4.8594 4.0898 4.8594 7.2734 0 2.0859-0.83203 4.0898-2.3047 5.5664-1.4766 1.4766-3.4805 2.3047-5.5664 2.3047z"/>
  <path d="m502.34 384.25c-6.2656 0-12.27 2.4883-16.699 6.918-4.4297 4.4297-6.918 10.434-6.918 16.699 0 6.2617 2.4883 12.27 6.918 16.699 4.4297 4.4297 10.434 6.918 16.699 6.918 6.2617 0 12.27-2.4883 16.699-6.918 4.4258-4.4297 6.9141-10.438 6.9141-16.699 0-6.2656-2.4883-12.27-6.9141-16.699-4.4297-4.4297-10.438-6.918-16.699-6.918zm0 31.488c-3.1836 0-6.0547-1.918-7.2734-4.8594-1.2188-2.9414-0.54688-6.3281 1.707-8.5781 2.25-2.25 5.6367-2.9258 8.5781-1.707s4.8594 4.0898 4.8594 7.2734c0 2.0859-0.82812 4.0898-2.3047 5.5664-1.4766 1.4766-3.4805 2.3047-5.5664 2.3047z"/>
  <path d="m431.49 400h-62.977c-4.3477 0-7.875 3.5234-7.875 7.8711v31.488c0 2.0859 0.83203 4.0898 2.3086 5.5664 1.4766 1.4766 3.4766 2.3047 5.5664 2.3047h62.977c2.0859 0 4.0898-0.82812 5.5664-2.3047 1.4727-1.4766 2.3047-3.4805 2.3047-5.5664v-31.488c0-2.0898-0.83203-4.0898-2.3047-5.5664-1.4766-1.4766-3.4805-2.3047-5.5664-2.3047zm-7.8711 31.488h-47.234v-15.746h47.23z"/>
 </g>
</svg>