<?xml version="1.0" encoding="UTF-8"?>
<!-- The Best Svg Icon site in the world: iconSvg.co, Visit us! https://iconsvg.co -->
<svg fill="#000000" width="800px" height="800px" version="1.1" viewBox="144 144 512 512" xmlns="http://www.w3.org/2000/svg">
 <path d="m629.18 426.39c-0.042969-0.32422-0.042969-0.66016-0.14844-0.98828-0.125-0.34766-0.30469-0.64062-0.49219-0.95703-0.15625-0.27344-0.26172-0.56641-0.47266-0.78906-0.21875-0.28516-0.53516-0.49219-0.82031-0.71484-0.23047-0.19922-0.45312-0.39844-0.71484-0.55469-0.32422-0.1875-0.69141-0.24219-1.0703-0.34766-0.26172-0.082031-0.49219-0.21875-0.77734-0.25-0.0625-0.011719-0.10547 0.019531-0.16797 0.011719-0.050781-0.011719-0.10547-0.042969-0.15625-0.042969-11.02-0.66016-19.816-9.457-20.477-20.469-0.33594-5.8164 1.5859-11.418 5.4688-15.785 3.8711-4.3555 9.2031-6.9492 15.031-7.293 0.019532 0 0.03125-0.011719 0.050782-0.011719 0.09375-0.011719 0.17969-0.011719 0.25-0.019531 0.28516-0.03125 0.51562-0.1875 0.77734-0.25 0.35547-0.10547 0.72266-0.17969 1.0703-0.35547 0.26172-0.14844 0.48438-0.35547 0.71484-0.54688 0.28516-0.23047 0.59766-0.42969 0.82031-0.71484 0.21094-0.23047 0.31641-0.53516 0.47266-0.79688 0.1875-0.31641 0.36719-0.60938 0.49219-0.94531 0.10547-0.31641 0.10547-0.66016 0.14844-0.99609 0.03125-0.30469 0.14844-0.59766 0.125-0.91406 0-0.0625-0.042969-0.11719-0.042969-0.16797 0-0.050782 0.019531-0.09375 0.011719-0.14844-2.625-21.727-8.3008-42.938-16.879-63.051-0.019531-0.050781-0.082031-0.082031-0.10547-0.13672-0.019531-0.050781-0.019531-0.10547-0.042968-0.15625-0.14844-0.28516-0.36719-0.47266-0.56641-0.71484-0.21875-0.26172-0.36719-0.57812-0.62891-0.79687-0.26172-0.24219-0.59766-0.38672-0.90234-0.57813-0.25-0.16797-0.51563-0.34766-0.79688-0.45312-0.30469-0.125-0.64062-0.13672-0.96484-0.1875-0.34766-0.0625-0.67188-0.15625-1.0508-0.14844-0.28516 0.019531-0.59766 0.125-0.90234 0.1875-0.31641 0.074219-0.66016 0.074219-0.96484 0.21094-0.0625 0.019531-0.082031 0.074218-0.14844 0.09375-0.042968 0.019531-0.10547 0.011718-0.15625 0.042968-9.8438 4.9336-21.875 1.7109-27.961-7.4961-6.6211-10.035-3.8398-23.594 6.1914-30.219 0.074219-0.042968 0.09375-0.11719 0.15625-0.15625 0.042969-0.019531 0.082031-0.011718 0.11719-0.03125 0.23047-0.1875 0.35547-0.42969 0.55469-0.64062 0.25-0.26172 0.54688-0.50391 0.73438-0.82031 0.16797-0.26172 0.23047-0.57812 0.35547-0.88281 0.13672-0.32422 0.28516-0.64062 0.34766-0.98828 0.042969-0.32422 0-0.66016 0-0.98828 0-0.33594 0.019532-0.66016-0.042968-0.99609-0.09375-0.36719-0.26172-0.70312-0.42969-1.0586-0.125-0.24219-0.15625-0.51562-0.30469-0.73437-0.019531-0.042969-0.0625-0.0625-0.082031-0.10547-0.042969-0.042969-0.042969-0.10547-0.09375-0.16797-13.129-17.488-28.645-33.012-46.152-46.141-0.042969-0.019531-0.10547-0.03125-0.14844-0.0625s-0.074219-0.082031-0.125-0.125c-0.24219-0.16797-0.54688-0.21094-0.80859-0.31641-0.33594-0.15625-0.65234-0.31641-0.99609-0.39844-0.28516-0.0625-0.59766-0.042969-0.89062-0.042969-0.37891-0.019531-0.73438-0.0625-1.0898 0-0.30469 0.0625-0.57812 0.19922-0.85938 0.29297-0.34766 0.13672-0.67188 0.21875-1.0078 0.41797-0.26172 0.17969-0.49219 0.42969-0.71484 0.66016-0.23047 0.21094-0.51562 0.35547-0.70312 0.62891-0.042969 0.050782-0.042969 0.11719-0.074219 0.15625-0.042969 0.042969-0.082031 0.0625-0.10547 0.10547-6.0859 9.2031-18.105 12.426-27.961 7.4844-10.758-5.375-15.137-18.504-9.7734-29.254 0.03125-0.0625 0.03125-0.13672 0.050781-0.19922 0.019532-0.042969 0.0625-0.050781 0.082032-0.09375 0.14844-0.28516 0.13672-0.57812 0.21094-0.88281 0.074219-0.32422 0.21094-0.65234 0.21094-0.98828 0.019532-0.34766-0.0625-0.67188-0.13672-1.0273-0.050782-0.31641-0.074219-0.64062-0.19922-0.95703-0.10547-0.31641-0.30469-0.57812-0.47266-0.85937-0.1875-0.29297-0.31641-0.59766-0.55469-0.85156-0.21875-0.24219-0.54688-0.42969-0.82031-0.64062-0.23047-0.17969-0.42969-0.41016-0.69141-0.55469-0.050781-0.019531-0.10547-0.019531-0.16797-0.042968-0.042969-0.019532-0.082032-0.0625-0.13672-0.082032-20.078-8.5742-41.301-14.254-63.027-16.879-0.0625-0.011718-0.10547 0.011719-0.16797 0.011719-0.0625-0.011719-0.10547-0.03125-0.14844-0.042969-0.26172-0.011718-0.49219 0.082032-0.73438 0.11719-0.41016 0.019531-0.82812 0.042968-1.2188 0.17969-0.41016 0.13672-0.75391 0.35547-1.1133 0.57812-0.1875 0.11719-0.36719 0.1875-0.55469 0.31641-0.39844 0.32422-0.69141 0.71484-0.98828 1.1445-0.10547 0.14844-0.21875 0.24219-0.28516 0.38672-0.21094 0.38672-0.30469 0.82031-0.41797 1.2578-0.050781 0.21875-0.17969 0.39844-0.21094 0.62891-0.011719 0.0625 0.019531 0.10547 0.011718 0.15625 0 0.0625-0.042968 0.11719-0.042968 0.17969-0.66016 11-9.457 19.805-20.477 20.457-11.914 0.64062-22.355-8.4688-23.082-20.469 0-0.074219-0.042969-0.125-0.042969-0.1875 0-0.042969 0.019531-0.09375 0.011719-0.14844-0.019532-0.16797-0.125-0.30469-0.15625-0.47266-0.37891-1.8672-1.5938-3.3164-3.4727-3.8516-0.35547-0.125-0.73438-0.125-1.1016-0.16797-0.26172-0.019531-0.50391-0.125-0.77734-0.11719-0.050781 0.011718-0.10547 0.03125-0.15625 0.042968-0.0625 0-0.11719-0.019531-0.16797-0.011718-21.727 2.625-42.938 8.3008-63.039 16.887-0.050781 0.019532-0.082031 0.0625-0.14844 0.082032-0.050781 0.03125-0.10547 0.019531-0.15625 0.042968-0.27344 0.14844-0.46094 0.37891-0.70312 0.55469-0.26172 0.21094-0.58594 0.38672-0.79688 0.64062-0.23047 0.25-0.37891 0.55469-0.56641 0.85156-0.16797 0.28516-0.35547 0.54688-0.48438 0.85938-0.11719 0.30469-0.13672 0.64062-0.1875 0.95703-0.0625 0.34766-0.15625 0.67187-0.13672 1.0273 0.011719 0.33594 0.13672 0.66016 0.21094 0.98828 0.074219 0.30469 0.0625 0.60938 0.1875 0.90234 0.019531 0.042969 0.074219 0.050782 0.09375 0.09375 0.03125 0.0625 0.019531 0.13672 0.050781 0.19922 4.9336 9.8555 1.6992 21.875-7.4961 27.949-4.8711 3.2109-10.676 4.3125-16.406 3.168-5.6992-1.1875-10.613-4.5039-13.801-9.3633-0.042968-0.042969-0.082031-0.0625-0.11719-0.10547-0.03125-0.042968-0.03125-0.10547-0.074219-0.15625-0.21094-0.27344-0.48438-0.41797-0.72266-0.65234-0.21875-0.21875-0.44141-0.47266-0.69141-0.64062-0.31641-0.21094-0.67188-0.29297-1.0508-0.42969-0.26172-0.09375-0.53516-0.21875-0.82031-0.28516-0.36719-0.0625-0.72266-0.019531-1.1016 0-0.29297 0-0.59766-0.019531-0.89062 0.042969-0.33594 0.074219-0.66016 0.24219-0.98828 0.38672-0.26172 0.125-0.56641 0.16797-0.80859 0.32422-0.050781 0.042969-0.074219 0.09375-0.125 0.125-0.042969 0.03125-0.10547 0.042969-0.14844 0.0625-17.496 13.121-33.02 28.645-46.141 46.141-0.03125 0.074219-0.042969 0.125-0.074219 0.17969-0.03125 0.042969-0.082031 0.0625-0.11719 0.10547-0.16797 0.24219-0.19922 0.51562-0.29297 0.76562-0.16797 0.33594-0.33594 0.66016-0.41797 1.0195-0.074219 0.33594-0.042969 0.66016-0.050781 0.99609 0 0.33594-0.050782 0.66016 0.011718 0.99609 0.0625 0.33594 0.21875 0.64062 0.31641 0.95703 0.13672 0.31641 0.21875 0.64063 0.38672 0.92188 0.1875 0.29297 0.44141 0.51562 0.67187 0.76562 0.21875 0.21875 0.35547 0.48438 0.60938 0.67188 0.03125 0.019531 0.082031 0.011718 0.11719 0.03125 0.074219 0.042968 0.09375 0.10547 0.15625 0.14844 9.1953 6.0781 12.418 18.117 7.4844 27.961-2.6016 5.2148-7.0859 9.0898-12.605 10.938-5.5625 1.8359-11.461 1.4258-16.668-1.1875-0.050781-0.03125-0.10547-0.019531-0.15625-0.042968-0.0625-0.019532-0.09375-0.074219-0.14844-0.09375-0.29297-0.125-0.62891-0.125-0.93359-0.19922-0.31641-0.074219-0.62109-0.17969-0.93359-0.19922-0.36719-0.011718-0.71484 0.082032-1.082 0.14844-0.30469 0.0625-0.62891 0.074218-0.92188 0.17969-0.30469 0.11719-0.58594 0.31641-0.88281 0.50391-0.27344 0.16797-0.58594 0.30469-0.82031 0.53516-0.25 0.21875-0.42969 0.53516-0.66016 0.82031-0.17969 0.24219-0.39844 0.41797-0.54688 0.69141-0.019531 0.050782-0.019531 0.10547-0.042969 0.15625-0.019531 0.050782-0.074218 0.082032-0.10547 0.13672-8.5742 20.109-14.254 41.324-16.879 63.051-0.011719 0.050782 0.011719 0.09375 0.011719 0.14844 0 0.050781-0.042969 0.10547-0.042969 0.16797-0.019531 0.31641 0.09375 0.60938 0.125 0.91406 0.042969 0.33594 0.042969 0.67188 0.14844 0.99609 0.125 0.33594 0.30469 0.62891 0.49219 0.94531 0.15625 0.26172 0.26172 0.56641 0.47266 0.79687 0.21875 0.28516 0.53516 0.48438 0.82813 0.71484 0.21875 0.1875 0.44141 0.39844 0.70312 0.54688 0.32422 0.1875 0.69141 0.25 1.082 0.35547 0.25 0.074219 0.49219 0.21875 0.76562 0.25 0.09375 0.011719 0.17969 0.011719 0.25 0.019531 0.019531 0 0.03125 0.011719 0.050781 0.011719 11.02 0.66016 19.816 9.457 20.477 20.469 0.34766 5.8164-1.5859 11.43-5.4688 15.797-3.8633 4.3555-9.2031 6.9375-15.031 7.2852-0.050781 0-0.10547 0.03125-0.15625 0.042969-0.050781 0.011719-0.11719-0.019531-0.16797-0.011719-0.27344 0.03125-0.51562 0.19922-0.76562 0.25-0.36719 0.10547-0.73438 0.17969-1.082 0.34766-0.27344 0.15625-0.48438 0.36719-0.71484 0.55469-0.28516 0.21875-0.59766 0.42969-0.82031 0.71484-0.21094 0.21875-0.31641 0.51562-0.48438 0.78906-0.17969 0.31641-0.35547 0.60938-0.48438 0.95703-0.10547 0.30469-0.10547 0.66016-0.14844 0.98828-0.03125 0.30469-0.14844 0.60938-0.125 0.92188 0 0.0625 0.042968 0.10547 0.042968 0.16797 0.011719 0.050781-0.019531 0.10547-0.011718 0.14844 2.625 21.738 8.3008 42.949 16.879 63.059 0.019531 0.042969 0.074219 0.0625 0.09375 0.10547 0.03125 0.0625 0.019531 0.125 0.050781 0.1875 0.39844 0.78906 0.99609 1.375 1.668 1.8672 0.17969 0.13672 0.34766 0.21875 0.54688 0.30469 0.67188 0.36719 1.418 0.59766 2.1953 0.66016 0.10547 0 0.1875 0.082031 0.27344 0.082031 0.0625 0 0.10547-0.03125 0.15625-0.03125 0.39844-0.011719 0.77734-0.13672 1.1562-0.23047 0.24219-0.0625 0.51562-0.050781 0.74609-0.15625 0.050781-0.019531 0.082031-0.074219 0.13672-0.09375 0.0625-0.019531 0.11719-0.019531 0.16797-0.042969 9.8867-4.9453 21.895-1.6914 27.961 7.4961 6.6328 10.035 3.8516 23.586-6.1836 30.23-0.042969 0.03125-0.0625 0.074219-0.11719 0.10547-0.050781 0.03125-0.10547 0.03125-0.15625 0.082031-0.26172 0.19922-0.41797 0.47266-0.64062 0.70312-0.21875 0.23047-0.47266 0.45312-0.66016 0.70312-0.1875 0.29297-0.25 0.64062-0.38672 0.94531-0.125 0.32422-0.25 0.62109-0.32422 0.94531 0.011718 0.30469 0.0625 0.66016 0.0625 0.98828 0.011718 0.32422-0.019532 0.66016 0.050781 1.0078 0.082031 0.33594 0.25 0.66016 0.41016 1.0078 0.125 0.26172 0.15625 0.53516 0.30469 0.77734 0.019531 0.042969 0.082031 0.042969 0.10547 0.082031 0.12109 0.046875 0.12109 0.10938 0.16016 0.16016 13.152 17.52 28.652 33.031 46.141 46.152 0.042969 0.019531 0.082031 0 0.13672 0.042969 0.050781 0.042969 0.082031 0.09375 0.13672 0.13672 0.80859 0.54688 1.7109 0.72266 2.6133 0.77734 0.10547 0.011719 0.1875 0.09375 0.27344 0.09375 0.14844 0 0.26172-0.082031 0.41016-0.10547 0.49219-0.042969 0.93359-0.14844 1.3945-0.31641 0.23047-0.09375 0.49219-0.17969 0.72266-0.29297 0.45312-0.25 0.83984-0.62109 1.207-1.0078 0.13672-0.16797 0.32422-0.21875 0.45312-0.37891 0.042969-0.050781 0.042969-0.10547 0.074219-0.15625 0.03125-0.042969 0.074218-0.0625 0.11719-0.10547 6.0664-9.1836 18.074-12.449 27.949-7.5039 10.758 5.3945 15.137 18.527 9.7734 29.273-0.019532 0.0625-0.019532 0.10547-0.042969 0.16797-0.019531 0.050781-0.074219 0.082031-0.10547 0.13672-0.125 0.27344-0.11719 0.60938-0.1875 0.89062-0.074219 0.32422-0.19922 0.66016-0.21094 0.98828-0.011718 0.35547 0.074219 0.68359 0.13672 1.0273 0.050781 0.32422 0.074219 0.66016 0.1875 0.97656 0.125 0.29297 0.31641 0.57813 0.48438 0.85938 0.19922 0.27344 0.31641 0.59766 0.56641 0.85156 0.21875 0.24219 0.53516 0.41797 0.82031 0.64062 0.21875 0.1875 0.41016 0.41016 0.68359 0.55469 0.042969 0.019532 0.09375 0 0.14844 0.019532 0.0625 0.042968 0.09375 0.09375 0.15625 0.11719 20.141 8.5742 41.332 14.273 63.039 16.879 0.082031 0 0.16797 0 0.25 0.019531h0.050781 0.0625c0.09375 0 0.17969 0.019531 0.25 0.019531 0.19922 0 0.34766-0.082031 0.54688-0.10547 2.4023-0.15625 4.0312-1.7852 4.4922-3.9688 0.042969-0.19922 0.15625-0.35547 0.17969-0.56641 0-0.074219-0.019531-0.125-0.019531-0.16797 0-0.0625 0.042969-0.10547 0.042969-0.17969 0.66016-11.012 9.4688-19.816 20.477-20.469 5.7852-0.38672 11.41 1.5859 15.777 5.4688 4.3555 3.8633 6.957 9.2031 7.3047 15.02 0 0.0625 0.042969 0.10547 0.042969 0.16797 0.011719 0.0625-0.019531 0.10547-0.011719 0.15625 0.042969 0.29297 0.1875 0.56641 0.25 0.85156 0.10547 0.30469 0.14844 0.62109 0.27344 0.89062 0.17969 0.31641 0.39844 0.56641 0.62891 0.82812 0.17969 0.21875 0.30469 0.48438 0.53516 0.67188 0.28516 0.26172 0.66016 0.45312 1.0195 0.66016 0.21875 0.10547 0.36719 0.26172 0.58594 0.34766 0.59766 0.21875 1.2383 0.36719 1.9102 0.36719h0.019532c0.10547 0 0.21094 0 0.30469-0.019531h0.0625c0.09375-0.019531 0.17969-0.019531 0.24219-0.019531 21.684-2.6016 42.898-8.3008 63.039-16.879 0.0625-0.019532 0.10547-0.074219 0.14844-0.11719 0.0625-0.019531 0.11719 0 0.15625-0.019531 0.27344-0.14844 0.46094-0.36719 0.68359-0.55469 0.28516-0.21875 0.60938-0.38672 0.82031-0.64062 0.23047-0.25 0.36719-0.57812 0.55469-0.85156 0.17969-0.28516 0.36719-0.56641 0.49219-0.85938 0.11719-0.31641 0.13672-0.65234 0.1875-0.97656 0.0625-0.32422 0.14844-0.66016 0.14844-1.0273-0.019531-0.32422-0.14844-0.66016-0.21875-0.98828-0.074219-0.28516-0.0625-0.62109-0.19922-0.89062-0.019531-0.050781-0.0625-0.082031-0.082031-0.13672-0.019531-0.0625-0.019531-0.10547-0.042969-0.16797-4.9453-9.8438-1.7227-21.875 7.4844-27.961 4.8789-3.2227 10.676-4.3672 16.406-3.168 5.7109 1.1641 10.621 4.5039 13.824 9.3633 0.019532 0.042968 0.0625 0.0625 0.10547 0.10547 0.03125 0.050782 0.042969 0.10547 0.074219 0.15625 0.125 0.15625 0.29297 0.21875 0.44141 0.35547 0.36719 0.41016 0.75391 0.75391 1.2266 1.0273 0.21875 0.125 0.46094 0.21875 0.69141 0.29297 0.47266 0.17969 0.92188 0.27344 1.418 0.31641 0.14844 0.019531 0.26172 0.10547 0.41016 0.10547 0.10547 0 0.1875-0.082031 0.27344-0.10547 0.90234-0.042969 1.8164-0.21875 2.6133-0.76562 0.0625-0.042969 0.082032-0.09375 0.14844-0.13672 0.042969-0.042968 0.082031-0.019531 0.125-0.042968 17.496-13.141 33.02-28.645 46.16-46.152 0.042969-0.050782 0.042969-0.11719 0.082032-0.17969 0.019531-0.042968 0.0625-0.042968 0.082031-0.082031 0.16797-0.23047 0.21094-0.52344 0.30469-0.75391 0.16797-0.34766 0.33594-0.67188 0.42969-1.0508 0.0625-0.32422 0.042968-0.66016 0.042968-0.99609 0-0.33594 0.042969-0.66016 0-0.99609-0.0625-0.33594-0.21875-0.66016-0.34766-0.98828-0.125-0.29297-0.21094-0.62109-0.36719-0.88281-0.1875-0.28516-0.44141-0.51562-0.67188-0.77734-0.21094-0.21875-0.34766-0.47266-0.60938-0.66016-0.050781-0.042968-0.11719-0.042968-0.15625-0.074218-0.042969-0.03125-0.0625-0.074219-0.10547-0.10547-9.2148-6.0781-12.449-18.105-7.5039-27.961 2.6016-5.2148 7.0938-9.1016 12.605-10.949 5.5312-1.8281 11.461-1.418 16.656 1.1875 0.050782 0.019532 0.11719 0.019532 0.15625 0.042969 0.0625 0.019531 0.082032 0.074219 0.14844 0.09375 0.24219 0.11719 0.53516 0.09375 0.77734 0.16797 0.38672 0.09375 0.75391 0.21875 1.1328 0.21875 0.042969 0 0.09375 0.042969 0.13672 0.042969 0.10547 0 0.1875-0.082031 0.27344-0.082031 0.78906-0.042969 1.5312-0.26172 2.2266-0.66016 0.1875-0.10547 0.34766-0.17969 0.51562-0.29297 0.67188-0.47266 1.2891-1.0703 1.6797-1.8672 0.042968-0.0625 0.019531-0.125 0.0625-0.1875 0.019531-0.042969 0.0625-0.0625 0.082031-0.10547 8.5742-20.109 14.254-41.324 16.879-63.059 0.011719-0.050781-0.019531-0.09375-0.011719-0.14844 0-0.0625 0.042969-0.10547 0.042969-0.16797 0.03125-0.25781-0.085937-0.53125-0.11719-0.85938zm-229.16 89.891c-64.109 0-116.3-52.176-116.3-116.3 0-64.121 52.188-116.3 116.3-116.3 64.129 0 116.3 52.176 116.3 116.3 0 64.129-52.176 116.3-116.3 116.3z"/>
</svg>