<?xml version="1.0" encoding="UTF-8"?>
<!-- The Best Svg Icon site in the world: iconSvg.co, Visit us! https://iconsvg.co -->
<svg fill="#000000" width="800px" height="800px" version="1.1" viewBox="144 144 512 512" xmlns="http://www.w3.org/2000/svg">
 <g>
  <path d="m384.25 510.21c-4.3477 0-7.8711-3.5234-7.8711-7.8711 0-2.125-0.10937-4.2109-0.31641-6.2969-0.20703-2.082 0.41797-4.1562 1.7383-5.7734 1.3242-1.6172 3.2344-2.6445 5.3125-2.8516 4.3281-0.43359 8.1875 2.7188 8.625 7.0469 0.25 2.5742 0.38672 5.1875 0.38672 7.832l-0.003906 0.003906c0.011719 2.0938-0.8125 4.1055-2.2891 5.5898-1.4805 1.4844-3.4883 2.3203-5.582 2.3203z"/>
  <path d="m305.54 478.72h15.742c2.0898 0 4.0898 0.82812 5.5664 2.3047 1.4766 1.4766 2.3047 3.4805 2.3047 5.5664 0 4.3477 3.5273 7.8711 7.875 7.8711 4.3477 0 7.8711-3.5234 7.8711-7.8711 0-6.2617-2.4883-12.27-6.918-16.699-4.4297-4.4297-10.434-6.9141-16.699-6.9141v-7.875c0-4.3477-3.5234-7.8711-7.8711-7.8711s-7.8711 3.5234-7.8711 7.8711v7.875c-8.4375 0-16.234 4.5-20.453 11.805-4.2188 7.3086-4.2188 16.312 0 23.617 4.2188 7.3086 12.016 11.809 20.453 11.809h15.742c4.3477 0 7.8711 3.5234 7.8711 7.8711s-3.5234 7.8711-7.8711 7.8711h-15.742c-4.3477 0-7.8711-3.5234-7.8711-7.8711s-3.5273-7.8711-7.875-7.8711c-4.3477 0-7.8711 3.5234-7.8711 7.8711 0 6.2656 2.4883 12.27 6.918 16.699 4.4297 4.4297 10.434 6.918 16.699 6.918v7.8711c0 4.3477 3.5234 7.8711 7.8711 7.8711s7.8711-3.5234 7.8711-7.8711v-7.8711c8.4375 0 16.234-4.5 20.453-11.809 4.2188-7.3086 4.2188-16.309 0-23.617-4.2188-7.3047-12.016-11.809-20.453-11.809h-15.742c-4.3477 0-7.8711-3.5234-7.8711-7.8711s3.5234-7.8711 7.8711-7.8711z"/>
  <path d="m313.41 368.51c-35.492 0-69.531 14.098-94.629 39.195-25.098 25.098-39.195 59.137-39.195 94.629 0 35.492 14.098 69.531 39.195 94.629 25.098 25.094 59.137 39.195 94.629 39.195s69.531-14.102 94.629-39.195c25.098-25.098 39.195-59.137 39.195-94.629-0.039063-35.48-14.152-69.496-39.238-94.586-25.09-25.09-59.105-39.199-94.586-39.238zm0 251.91v-0.003907c-31.316 0-61.352-12.441-83.496-34.582-22.145-22.145-34.586-52.18-34.586-83.496 0-31.316 12.441-61.352 34.586-83.496 22.145-22.145 52.18-34.586 83.496-34.586s61.352 12.441 83.496 34.586c22.145 22.145 34.586 52.18 34.586 83.496-0.035156 31.305-12.488 61.32-34.625 83.457s-52.152 34.586-83.457 34.621z"/>
  <path d="m313.41 400c-27.141 0-53.172 10.781-72.363 29.973-19.191 19.191-29.973 45.223-29.973 72.363 0 27.141 10.781 53.168 29.973 72.363 19.191 19.191 45.223 29.973 72.363 29.973s53.172-10.781 72.363-29.973c19.191-19.195 29.973-45.223 29.973-72.363-0.03125-27.133-10.824-53.145-30.008-72.328-19.184-19.188-45.195-29.977-72.328-30.008zm0 188.93v-0.003907c-22.965 0-44.992-9.1211-61.23-25.359-16.238-16.242-25.363-38.266-25.363-61.23 0-22.969 9.125-44.992 25.363-61.23s38.266-25.363 61.23-25.363 44.992 9.125 61.23 25.363 25.363 38.262 25.363 61.23c-0.027344 22.957-9.1602 44.965-25.395 61.199s-38.242 25.363-61.199 25.391z"/>
  <path d="m292.33 561.69c-17.816-6.4453-31.844-20.48-38.281-38.301-1.457-4.0977-5.957-6.2383-10.055-4.7812s-6.2383 5.9609-4.7852 10.059c7.9102 22.348 25.488 39.93 47.832 47.844 0.84766 0.30859 1.7422 0.46484 2.6445 0.46484 3.832 0.003907 7.1055-2.7539 7.7617-6.5273 0.65234-3.7773-1.5078-7.4727-5.1172-8.7578z"/>
  <path d="m384.53 468.6c-7.6094-15.914-20.305-28.844-36.078-36.746-1.875-0.98828-4.0664-1.1797-6.0859-0.53125-2.0156 0.64844-3.6836 2.082-4.6328 3.9805-0.94531 1.8945-1.0859 4.0898-0.39453 6.0938 0.69531 2 2.168 3.6367 4.082 4.543 12.633 6.3281 22.797 16.68 28.891 29.426 1.8945 3.875 6.5586 5.5 10.453 3.6484 3.8945-1.8555 5.5742-6.4961 3.7656-10.414z"/>
  <path d="m510.21 636.16c-1.6562 0-3.2695-0.51953-4.6133-1.4883l-55.105-39.84c-2.0586-1.4922-3.2695-3.8828-3.2539-6.4258 0.015625-2.5391 1.2578-4.918 3.3359-6.3828l55.105-38.887h-0.003906c2.4023-1.6953 5.5469-1.9062 8.1562-0.55469 2.6094 1.3516 4.25 4.0469 4.25 6.9844v15.742h62.977v0.003906c2.0898 0 4.0898-0.83203 5.5664-2.3086 1.4766-1.4766 2.3047-3.4766 2.3047-5.5664v-149.57c0-4.3477 3.5273-7.8711 7.875-7.8711h31.488c2.0859 0 4.0898 0.82812 5.5664 2.3047 1.4727 1.4766 2.3047 3.4766 2.3047 5.5664v149.57c-0.019531 14.609-5.8281 28.617-16.16 38.949-10.328 10.328-24.336 16.141-38.945 16.156h-62.977v15.746c0 2.0859-0.82812 4.0898-2.3047 5.5664-1.4766 1.4727-3.4805 2.3047-5.5664 2.3047zm-41.555-47.625 33.684 24.348v-8.2109c0-4.3477 3.5234-7.8711 7.8711-7.8711h70.848c10.434-0.015625 20.441-4.1641 27.82-11.543 7.375-7.3789 11.527-17.383 11.539-27.82v-141.7h-15.742v141.7c0 6.2656-2.4883 12.273-6.918 16.699-4.4297 4.4297-10.434 6.918-16.699 6.918h-70.848c-4.3477 0-7.8711-3.5234-7.8711-7.8711v-8.4219z"/>
  <path d="m203.2 400h-31.488c-4.3477 0-7.875-3.5273-7.875-7.875v-149.57c0.019531-14.609 5.8281-28.617 16.16-38.945 10.332-10.332 24.336-16.145 38.945-16.16h47.23l0.003906-15.742c-0.003906-2.9609 1.6523-5.668 4.2852-7.0156 2.6367-1.3477 5.8008-1.1016 8.1992 0.62891l55.105 39.84h-0.003906c2.0625 1.4922 3.2734 3.8828 3.2617 6.4258-0.015626 2.5391-1.2539 4.918-3.332 6.3828l-55.105 38.887 0.003906 0.003906c-2.4023 1.6953-5.5547 1.9102-8.1641 0.55859-2.6133-1.3516-4.2539-4.0508-4.25-6.9922v-15.742h-47.234c-4.3477 0-7.8711 3.5234-7.8711 7.8711v149.57c0 2.0898-0.82812 4.0898-2.3047 5.5664-1.4766 1.4766-3.4805 2.3086-5.5664 2.3086zm-23.617-15.746h15.742v-141.7c0-6.2656 2.4883-12.27 6.918-16.699 4.4297-4.4297 10.438-6.918 16.699-6.918h55.105c2.0859 0 4.0898 0.82812 5.5664 2.3047 1.4766 1.4766 2.3047 3.4805 2.3047 5.5664v8.4219l33.684-23.773-33.684-24.344v8.207c0 2.0898-0.82812 4.0898-2.3047 5.5664-1.4766 1.4766-3.4805 2.3086-5.5664 2.3086h-55.105c-10.434 0.011719-20.438 4.1602-27.816 11.539-7.3789 7.3789-11.531 17.383-11.543 27.82z"/>
  <path d="m480.95 428.88c1.4922 1.6562 3.6211 2.6016 5.8516 2.6055 2.2344-0.003906 4.3633-0.95312 5.8555-2.6133l141.49-157.44c2.1562-2.4023 2.6289-5.8789 1.1875-8.7695l-47.027-94.465c-1.418-2.6875-4.2109-4.3672-7.25-4.3633h-188.93c-3.5977 0.007812-6.7344 2.4492-7.6172 5.9375l-46.641 92.891h-0.003907c-1.4531 2.8984-0.98047 6.3906 1.1914 8.8008zm42.297-154.84-36.652 122.17-36.652-122.17zm-70.965-15.742 34.312-68.93 34.316 68.926zm87.379 15.742h70.949l-106.48 118.5zm-40.352-94.465h69.039l-34.52 69.336zm-59.945 69.336-34.52-69.336h69.039zm-5.8594 25.129 35.379 117.94-106.29-117.94zm182.07-15.742-68.828-0.003907 34.418-69.133zm-223.37-68.789 34.242 68.785h-68.785z"/>
 </g>
</svg>