<?xml version="1.0" encoding="UTF-8"?>
<!-- The Best Svg Icon site in the world: iconSvg.co, Visit us! https://iconsvg.co -->
<svg fill="#000000" width="800px" height="800px" version="1.1" viewBox="144 144 512 512" xmlns="http://www.w3.org/2000/svg">
 <g>
  <path d="m525.95 431.49h-31.488c-2.8984 0-5.2461 2.3477-5.2461 5.2461 0 2.9023 2.3516 5.2461 5.2461 5.2461h31.488c2.8984 0 5.2461-2.3477 5.2461-5.2461 0.003907-2.9023-2.3477-5.2461-5.2461-5.2461z"/>
  <path d="m274.05 441.98h31.488c2.8984 0 5.2461-2.3477 5.2461-5.2461 0-2.9023-2.3516-5.2461-5.2461-5.2461h-31.488c-2.8984 0-5.2461 2.3477-5.2461 5.2461-0.003906 2.8984 2.3477 5.2461 5.2461 5.2461z"/>
  <path d="m525.95 452.48h-94.461v-10.496h36.734c2.8984 0 5.2461-2.3477 5.2461-5.2461 0-2.9023-2.3516-5.2461-5.2461-5.2461h-36.734v-10.496h94.465c2.8984 0 5.2461-2.3477 5.2461-5.2461 0-2.9023-2.3516-5.2461-5.2461-5.2461l-94.465-0.007812v-10.496h92.617 0.10547c2.8984 0 5.2461-2.4297 5.2461-5.332 0-1.332-0.5-2.5938-1.3164-3.5156l-36.742-61.805c-0.94531-1.5898-2.6562-2.8203-4.5039-2.8203h-173.79c-1.8477 0-3.5586 1.2109-4.5039 2.7969l-37.223 62.453c-0.97266 1.6211-0.99219 3.7773-0.058594 5.4141 0.93359 1.6484 2.6758 2.8086 4.5664 2.8086h92.629v10.496h-94.465c-2.8984 0-5.2461 2.3477-5.2461 5.2461 0 2.9023 2.3516 5.2461 5.2461 5.2461h94.465v10.496h-36.734c-2.8984 0-5.2461 2.3477-5.2461 5.2461 0 2.9023 2.3516 5.2461 5.2461 5.2461h36.734v10.496l-94.465 0.007813c-2.8984 0-5.2461 2.3477-5.2461 5.2461 0 2.9023 2.3516 5.2461 5.2461 5.2461h251.91c2.8984 0 5.2461-2.3477 5.2461-5.2461 0-2.9023-2.3516-5.2461-5.25-5.2461zm-11.086-62.977h-84.547l-0.42969-5.2461h51.691 0.10547c2.8984 0 5.2461-1.0703 5.2461-3.9727 0-1.0703-0.32422-1.4258-0.875-2.2734 0.97656-0.27734 2.875 0.14062 4.8789 0.33984 0.17969 0.015626 0.35156 0.65234 0.52344 0.65234h0.10547c2.8984 0 5.2461-2.6562 5.2461-5.5586 0-1.332-0.50391-2.7148-1.3281-3.6367l-12.957-21.594c-1.0508-1.7461-3.0273-2.7773-5.0469-2.5508-0.41016 0.042969-0.84375 0.046876-1.2969 0.046876-3.8477 0-7.1523-0.17188-8.0312-0.79297-0.64453-2.1914-2.6641-2.6484-5.0273-2.6484h-41.18l-0.42578-5.2461h62.398zm-91.137-36.738h36.383c3.3008 0 9.582 4.3047 14.992 4.5078l7.5625 12.008c-2.9062 0.9375-5.1641 0.99609-6.5039 3.1758-0.54297 0.90234-0.92188 1.3008-1.1211 1.3008h-46.934zm-51.832 20.992h-46.941c-0.20312 0-0.57812-0.67578-1.1289-1.5742-1.3398-2.1797-3.5938-3.1641-6.5039-4.0938l7.5625-11.133c5.457-0.20703 11.789-4.1914 15.027-4.1914h36.363zm-55.812-36.734h62.41l-0.42969 5.2461h-41.188c-2.3125 0-4.3086 0.38672-4.9961 2.5195-1.0859 0.79688-4.3203 1.4531-8.0664 1.4531-0.45703 0-0.89062-0.30469-1.3086-0.33984-2.0156-0.20312-3.9922 0.625-5.043 2.3711l-13.43 22.234c-1.0234 1.6992-0.99609 3.8008 0.0625 5.4805 1.0664 1.6758 2.9609 2.5469 4.9609 2.3945 2.0508-0.21094 4.0039 0.015626 4.9648 0.30859-0.99609 1.5234-1.1445 2.1836-0.34766 3.8477 0.875 1.832 2.7148 1.7148 4.7422 1.7148h51.699l-0.42969 5.2461-84.559 0.003906z"/>
  <path d="m235.52 416.63c-2.0508-2.0508-5.3672-2.0508-7.4219 0-2.0508 2.0508-2.0508 5.3672 0 7.4219l7.4336 7.4336h-50.703c-2.8984 0-5.2461 2.3477-5.2461 5.2461 0 2.9023 2.3516 5.2461 5.2461 5.2461h50.637l-7.3672 7.3672c-2.0508 2.0508-2.0508 5.3672 0 7.4219 1.0234 1.0234 2.3672 1.5391 3.7109 1.5391s2.6875-0.51562 3.7109-1.5391l16.359-16.359c2.0508-2.0508 2.0508-5.3672 0-7.4219z"/>
  <path d="m268.06 365.2-16.359-16.359c-2.0508-2.0508-5.3672-2.0508-7.4219 0l-16.359 16.359c-2.0508 2.0508-2.0508 5.3672 0 7.4219 2.0508 2.0508 5.3672 2.0508 7.4219 0l7.2188-7.2227v24.102h-57.73c-2.8984 0-5.2461 2.3477-5.2461 5.2461 0 2.9023 2.3516 5.2461 5.2461 5.2461h62.977c2.8984 0 5.2461-2.3477 5.2461-5.2461v-29.703l7.582 7.5781c1.0234 1.0234 2.3672 1.5391 3.7109 1.5391s2.6875-0.51562 3.7109-1.5391c2.0547-2.0469 2.0547-5.3672 0.003906-7.4219z"/>
  <path d="m546.94 394.75c0 2.9023 2.3516 5.2461 5.2461 5.2461h62.977c2.8984 0 5.2461-2.3477 5.2461-5.2461 0-2.9023-2.3516-5.2461-5.2461-5.2461h-57.727v-24.898l8.0195 8.0195c1.0234 1.0234 2.3672 1.5391 3.7109 1.5391s2.6875-0.51562 3.7109-1.5391c2.0508-2.0508 2.0508-5.3672 0-7.4219l-16.359-16.359c-2.0508-2.0508-5.3672-2.0508-7.4219 0l-16.359 16.359c-2.0508 2.0508-2.0508 5.3672 0 7.4219 2.0508 2.0508 5.3672 2.0508 7.4219 0l6.7812-6.7812z"/>
  <path d="m615.17 431.49h-50.34l7.4297-7.4297c2.0508-2.0508 2.0508-5.3672 0-7.4219-2.0508-2.0508-5.3672-2.0508-7.4219 0l-16.359 16.359c-2.0508 2.0508-2.0508 5.3672 0 7.4219l16.359 16.359c1.0234 1.0234 2.3672 1.5391 3.7109 1.5391s2.6875-0.51562 3.7109-1.5391c2.0508-2.0508 2.0508-5.3672 0-7.4219l-7.3672-7.3711h50.277c2.8984 0 5.2461-2.3477 5.2461-5.2461 0-2.9062-2.3516-5.25-5.2461-5.25z"/>
 </g>
</svg>