<?xml version="1.0" encoding="UTF-8"?>
<!-- The Best Svg Icon site in the world: iconSvg.co, Visit us! https://iconsvg.co -->
<svg fill="#000000" width="800px" height="800px" version="1.1" viewBox="144 144 512 512" xmlns="http://www.w3.org/2000/svg">
 <path d="m384.62 285.26c0-6.8711 10.711-25.914 11.93-28.062 0.89844-1.5781 3.4805-1.5781 4.3789 0 1.2188 2.1523 11.93 21.191 11.93 28.062 0 7.7891-6.332 14.121-14.121 14.121s-14.117-6.3359-14.117-14.121zm48.234 10.625c-2.3828 0.66016-23.418 6.5547-28.277 11.418-2.6641 2.6602-4.1367 6.207-4.1367 9.9805 0 3.7695 1.4727 7.3164 4.1367 9.9844 2.6641 2.6641 6.2109 4.1328 9.9805 4.1328 3.7734 0 7.3203-1.4727 9.9844-4.1367 4.8555-4.8555 10.75-25.902 11.41-28.277 0.24219-0.875-0.011719-1.8086-0.64844-2.4492-0.64062-0.64062-1.5781-0.88672-2.4492-0.65234zm-59.637 31.379c2.6641 2.6641 6.2109 4.1367 9.9844 4.1367 3.7695 0 7.3164-1.4648 9.9805-4.1328 5.5078-5.5117 5.5078-14.469 0-19.973-4.8633-4.8633-25.895-10.758-28.273-11.418-0.88672-0.23047-1.8086 0.015625-2.4492 0.64844-0.64062 0.64062-0.89062 1.5781-0.64844 2.4492 0.66016 2.3906 6.5508 23.434 11.406 28.289zm59.492 5.9219c-2.3828 0.66016-23.418 6.5547-28.277 11.41-5.5078 5.5-5.5078 14.461 0 19.973 2.6641 2.6641 6.207 4.1328 9.9805 4.1328 3.7734 0 7.3164-1.4648 9.9844-4.1328 4.8555-4.8633 10.75-25.902 11.41-28.277 0.24219-0.875-0.011719-1.8086-0.64844-2.4492-0.63281-0.64062-1.5703-0.89453-2.4492-0.65625zm-59.633 31.383c2.6641 2.6641 6.207 4.1328 9.9805 4.1328 3.7734 0 7.3164-1.4648 9.9805-4.1328 5.5-5.5078 5.5-14.465 0-19.973-4.8633-4.8555-25.895-10.75-28.273-11.41-0.88281-0.23828-1.8086 0.015625-2.4492 0.64844-0.64062 0.64062-0.89062 1.5781-0.64844 2.4492 0.66016 2.3828 6.5508 23.422 11.41 28.285zm41.27 41.434c3.7734 0 7.3203-1.4727 9.9844-4.1367 4.8555-4.8555 10.75-25.895 11.41-28.273 0.24219-0.875-0.011719-1.8086-0.64844-2.4492-0.63672-0.63672-1.5703-0.88672-2.4492-0.64844-2.3828 0.66016-23.418 6.5508-28.277 11.41-5.5078 5.5-5.5078 14.461 0 19.973 2.6641 2.6562 6.2109 4.125 9.9805 4.125zm-41.336-4.1367c2.6641 2.6641 6.207 4.1367 9.9805 4.1367 3.7695 0 7.3164-1.4648 9.9805-4.1328 5.5078-5.5117 5.5078-14.469 0-19.973-4.8633-4.8633-25.895-10.75-28.273-11.41-0.875-0.23828-1.8125 0.015625-2.4492 0.64844-0.64062 0.64063-0.89062 1.5781-0.64844 2.4492 0.66016 2.3867 6.5508 23.426 11.41 28.281zm59.664 5.9258c-2.3828 0.66016-23.418 6.5547-28.285 11.41-5.4961 5.5078-5.4961 14.461 0 19.973 2.6719 2.6641 6.2109 4.1328 9.9844 4.1328 3.7695 0 7.3164-1.4648 9.9805-4.1328 4.8633-4.8633 10.758-25.902 11.418-28.277 0.24219-0.875-0.011719-1.8086-0.64844-2.4492-0.63281-0.64453-1.5742-0.89062-2.4492-0.65625zm-67.941 0c-0.88672-0.23047-1.8125 0.015626-2.4492 0.64844-0.64062 0.64062-0.89062 1.5781-0.64844 2.4492 0.66016 2.3828 6.5508 23.418 11.406 28.277 2.6719 2.6641 6.2109 4.1328 9.9844 4.1328 3.7695 0 7.3164-1.4648 9.9766-4.1328 5.5078-5.5078 5.5078-14.465 0-19.973-4.8555-4.8477-25.887-10.742-28.27-11.402zm67.875 37.297c-2.3828 0.66016-23.418 6.5547-28.285 11.418-5.5 5.5-5.5 14.461 0 19.973 2.6719 2.6641 6.2188 4.1328 9.9844 4.1328 3.7734 0 7.3164-1.4727 9.9805-4.1367 4.8633-4.8555 10.758-25.902 11.418-28.277 0.24219-0.875-0.011719-1.8086-0.64844-2.4492-0.64063-0.64844-1.5742-0.90234-2.4492-0.66016zm-39.672 11.414c-4.8555-4.8633-25.891-10.758-28.27-11.418-0.88281-0.24219-1.8125 0.011719-2.4492 0.64844-0.64062 0.64062-0.89062 1.5781-0.64844 2.4492 0.66016 2.3828 6.5508 23.422 11.406 28.277 2.6641 2.6641 6.2109 4.1367 9.9844 4.1367 3.7695 0 7.3086-1.4648 9.9766-4.1328 2.6641-2.6641 4.1367-6.2109 4.1367-9.9844 0-3.7695-1.4688-7.3164-4.1367-9.9766zm5.7734 24.047c-2.7852 0-5.0391 2.2539-5.0391 5.0391l0.003906 53.363c0 2.7852 2.2539 5.0391 5.0391 5.0391 2.7852 0 5.0391-2.2539 5.0391-5.0391l-0.003906-53.363c0-2.7812-2.25-5.0391-5.0391-5.0391zm-98.258-111.09c0.95312 0 1.9062-0.125 2.8359-0.37109 2.8125-0.75 5.1523-2.5586 6.6133-5.0781 1.4492-2.5195 1.832-5.457 1.082-8.2578-1.3008-4.8672-11.668-15.551-13.738-17.648-0.63672-0.64062-1.5781-0.88672-2.4453-0.66406-0.87109 0.23828-1.5586 0.92578-1.7852 1.7969-0.74219 2.8398-4.3789 17.285-3.0781 22.148 1.2773 4.75 5.6055 8.0742 10.516 8.0742zm7.5742 3.0273c-2.9922 5.1992-1.1992 11.871 3.9961 14.883 1.6523 0.94531 3.5312 1.4492 5.4297 1.4492 3.8828 0 7.4961-2.082 9.4453-5.4414 2.5156-4.3633 2.7461-19.246 2.7656-22.184 0.003906-0.91016-0.47266-1.75-1.2578-2.2031-0.78516-0.45703-1.7539-0.45312-2.5352 0.003906-2.5391 1.4961-15.316 9.1328-17.844 13.492zm-17.859 20.738c1.6562 0.94531 3.5312 1.457 5.4375 1.457 3.8828 0 7.4961-2.0859 9.4414-5.4414 2.9961-5.2031 1.2031-11.879-3.9883-14.879-4.3516-2.5195-19.242-2.75-22.176-2.7695h-0.019531c-0.90234 0-1.7344 0.48437-2.1797 1.2578-0.45313 0.78125-0.45313 1.7539 0.003906 2.5352 1.4844 2.5312 9.1211 15.309 13.48 17.84zm24.734 5.2891c-3.0039 5.1953-1.2148 11.871 3.9844 14.883 1.6523 0.94531 3.5312 1.4492 5.4297 1.4492 3.8828 0 7.5-2.0859 9.4414-5.4453 2.5195-4.3594 2.75-19.246 2.7695-22.184 0.003906-0.91016-0.47266-1.75-1.2578-2.2031-0.78516-0.45703-1.7578-0.44922-2.5352 0.003907-2.5312 1.4961-15.316 9.1445-17.832 13.496zm-17.863 20.723c1.6523 0.95703 3.5312 1.4648 5.4375 1.4648 3.8828 0 7.4961-2.0859 9.4375-5.4414 2.9961-5.1992 1.2031-11.871-3.9844-14.871-4.3594-2.5195-19.246-2.75-22.184-2.7695h-0.019532c-0.90234 0-1.7344 0.48047-2.1797 1.2578-0.45312 0.78125-0.45312 1.7539 0.003906 2.5352 1.4883 2.5312 9.125 15.312 13.488 17.824zm24.777 5.2852c-2.9961 5.1992-1.2109 11.875 3.9883 14.887 1.6523 0.94531 3.5312 1.4492 5.4297 1.4492 3.8828 0 7.4961-2.0859 9.4414-5.4453 2.5195-4.3594 2.7461-19.246 2.7656-22.188 0.003906-0.90625-0.48047-1.7422-1.2578-2.1953-0.78516-0.45703-1.7578-0.45313-2.5352 0.003906-2.5273 1.4922-15.305 9.1289-17.832 13.488zm-17.855 20.734c1.6523 0.94531 3.5312 1.4492 5.4297 1.4492 3.8828 0 7.4961-2.082 9.4414-5.4414 2.9922-5.1992 1.2031-11.871-3.9844-14.879-4.3633-2.5078-19.25-2.7422-22.188-2.7617h-0.019531c-0.90234 0-1.7344 0.48437-2.1797 1.2578-0.45703 0.78516-0.45312 1.7539 0.003907 2.5352 1.4922 2.5391 9.1328 15.312 13.496 17.84zm24.848 5.2539c-3.0039 5.1953-1.2148 11.871 3.9844 14.879 1.6523 0.95313 3.5312 1.4609 5.4375 1.4609 3.8828 0 7.5-2.0859 9.4453-5.4453 2.5078-4.3633 2.7422-19.246 2.7617-22.184 0.003906-0.91016-0.47266-1.75-1.2578-2.2031-0.78516-0.45703-1.7578-0.45312-2.5352 0.003906-2.5352 1.5-15.312 9.1328-17.836 13.488zm-17.863 20.738c1.6523 0.95312 3.5312 1.4609 5.4375 1.4609 3.8828 0 7.4961-2.0859 9.4414-5.4453 2.9922-5.1992 1.2031-11.871-3.9883-14.871-4.3594-2.5195-19.242-2.75-22.176-2.7695h-0.019531c-0.90234 0-1.7344 0.48437-2.1797 1.2578-0.45312 0.78125-0.45312 1.7539 0.003907 2.5352 1.4844 2.5312 9.125 15.316 13.48 17.832zm42.617-8.207c-2.5391 1.4922-15.32 9.1328-17.84 13.488-2.9922 5.1953-1.2031 11.871 3.9883 14.887 1.6523 0.94531 3.5312 1.4492 5.4297 1.4492 3.8828 0 7.5-2.0859 9.4414-5.4453 2.5195-4.3594 2.75-19.246 2.7695-22.184 0.003906-0.91016-0.47266-1.75-1.2578-2.2031-0.77734-0.46094-1.75-0.44922-2.5312 0.007812zm-24.82 15.355c-4.3477-2.5156-19.234-2.7422-22.176-2.7617h-0.015625c-0.90234 0-1.7344 0.48438-2.1797 1.2578-0.45313 0.78125-0.45313 1.7539 0.003906 2.5352 1.4844 2.5352 9.1289 15.305 13.488 17.836 1.6562 0.94531 3.5352 1.457 5.4375 1.457 3.8828 0 7.4961-2.0859 9.4414-5.4414 2.9961-5.2031 1.207-11.879-4-14.883zm13.98 18.5c-0.71875-2.6914-3.4805-4.2891-6.1719-3.5625-2.6836 0.71875-4.2812 3.4805-3.5625 6.1719l9.9648 37.191c0.59766 2.2539 2.6367 3.7344 4.8633 3.7344 0.43359 0 0.87109-0.054687 1.3086-0.17188 2.6836-0.71875 4.2812-3.4805 3.5625-6.1719zm153.98-127.1c0.93359 0.24609 1.8789 0.37109 2.8359 0.37109 4.9141 0 9.2344-3.3203 10.516-8.082 1.3008-4.8555-2.3359-19.297-3.0781-22.141-0.22656-0.875-0.91016-1.5664-1.7852-1.7969-0.88281-0.22266-1.8125 0.023437-2.4453 0.66406-2.0664 2.0977-12.438 12.781-13.734 17.637-0.75391 2.8125-0.37109 5.75 1.082 8.2656 1.457 2.5234 3.8086 4.3281 6.6094 5.082zm-14.16 19.742c1.8984 0 3.7773-0.50391 5.4297-1.457 5.1953-3.0078 6.9883-9.6797 3.9883-14.879-2.5234-4.3594-15.301-12-17.836-13.488-0.77734-0.45703-1.75-0.46484-2.5352-0.003906-0.78125 0.45312-1.2656 1.2891-1.2578 2.1953 0.019531 2.9414 0.24609 17.824 2.7656 22.184 1.9492 3.3633 5.5625 5.4492 9.4453 5.4492zm40.777-15.973c-0.44922-0.77734-1.2812-1.2578-2.1797-1.2578h-0.019531c-2.9375 0.019531-17.824 0.25-22.176 2.7656-2.5195 1.457-4.3164 3.8047-5.0781 6.6133-0.75 2.8125-0.36328 5.7422 1.0938 8.2656 1.9336 3.3555 5.5508 5.4414 9.4297 5.4414 1.9062 0 3.7852-0.50781 5.4375-1.4609 4.3594-2.5156 12-15.297 13.492-17.828 0.44922-0.78516 0.44922-1.7578 0-2.5391zm-47.648 41.996c1.9062 0 3.7852-0.50781 5.4375-1.4609 2.5195-1.4492 4.3164-3.8047 5.0781-6.6094 0.75-2.8125 0.36328-5.75-1.0938-8.2656-2.5156-4.3516-15.289-12-17.828-13.492-0.77734-0.45703-1.75-0.46484-2.5352-0.003906-0.78125 0.45312-1.2656 1.2891-1.2578 2.1953 0.019532 2.9414 0.24219 17.824 2.7656 22.188 1.9258 3.3594 5.5469 5.4492 9.4336 5.4492zm38.602-17.23h-0.019532c-2.9375 0.019531-17.82 0.25-22.188 2.7656-5.1836 3.0078-6.9727 9.6797-3.9805 14.879 1.9414 3.3555 5.5586 5.4414 9.4375 5.4414 1.9062 0 3.7852-0.50781 5.4297-1.4609 4.3672-2.5156 12.012-15.297 13.496-17.828 0.45703-0.78125 0.45703-1.7539 0.003906-2.5352s-1.2852-1.2617-2.1797-1.2617zm-45.52 43.242c1.8984 0 3.7773-0.50391 5.4375-1.457 5.1953-3.0117 6.9844-9.6875 3.9805-14.887-2.5234-4.3516-15.297-11.992-17.828-13.48-0.78125-0.45703-1.7539-0.46484-2.5352-0.003907-0.78125 0.45312-1.2656 1.2891-1.2578 2.1953 0.019531 2.9414 0.24609 17.828 2.7656 22.188 1.9414 3.3594 5.5586 5.4453 9.4375 5.4453zm38.605-17.23h-0.019531c-2.9375 0.019531-17.824 0.25-22.188 2.7656-5.1875 3.0039-6.9844 9.6719-3.9805 14.871 1.9414 3.3555 5.5508 5.4414 9.4297 5.4414 1.9062 0 3.7852-0.50391 5.4414-1.4609 4.3516-2.5156 12-15.289 13.492-17.824 0.45703-0.78125 0.46484-1.75 0.003906-2.5352-0.44922-0.77344-1.2812-1.2578-2.1797-1.2578zm-45.59 43.223c1.8984 0 3.7773-0.50781 5.4297-1.4609 5.1992-3.0078 6.9883-9.6836 3.9844-14.879-2.5234-4.3594-15.301-12-17.836-13.488-0.77734-0.45703-1.7539-0.46484-2.5352-0.003907-0.78516 0.45313-1.2656 1.2891-1.2578 2.2031 0.019531 2.9375 0.25 17.824 2.7656 22.176 1.9453 3.3633 5.5625 5.4531 9.4492 5.4531zm38.594-17.234h-0.019531c-2.9375 0.019531-17.82 0.25-22.176 2.7695-5.1953 2.9961-6.9883 9.668-3.9844 14.871 1.9414 3.3594 5.5586 5.4453 9.4297 5.4453h0.003907c1.8984 0 3.7852-0.50781 5.4375-1.4609 4.3594-2.5156 12-15.297 13.488-17.836 0.45703-0.78125 0.45703-1.7539 0.003906-2.5352-0.45312-0.77734-1.2812-1.2539-2.1836-1.2539zm-40.074 41.789c5.1836-3.0117 6.9727-9.6875 3.9805-14.887-2.5195-4.3516-15.297-11.992-17.836-13.48-0.77734-0.45703-1.75-0.46484-2.5352-0.003906-0.78516 0.45312-1.2656 1.2891-1.2578 2.2031 0.019531 2.9375 0.25 17.824 2.7695 22.184 1.9414 3.3594 5.5586 5.4453 9.4414 5.4453 1.9023-0.003907 3.7812-0.5 5.4375-1.4609zm33.156-15.773h-0.015624c-2.9414 0.019531-17.828 0.24609-22.176 2.7617-5.1992 3.0039-6.9922 9.6797-3.9883 14.883 1.9414 3.3555 5.5586 5.4375 9.4297 5.4375h0.003907c1.8984 0 3.7773-0.50781 5.4375-1.4609 4.3594-2.5156 12-15.289 13.488-17.824 0.45703-0.78125 0.45703-1.75 0.003906-2.5352-0.44922-0.77734-1.2812-1.2617-2.1836-1.2617zm-30.004 17.703c-2.6797-0.71094-5.4531 0.875-6.1719 3.5625l-9.9648 37.191c-0.71875 2.6836 0.875 5.4531 3.5625 6.1719 0.4375 0.11719 0.875 0.17188 1.3086 0.17188 2.2227 0 4.2617-1.4844 4.8633-3.7344l9.9648-37.191c0.71484-2.6875-0.875-5.4492-3.5625-6.1719z"/>
</svg>