<?xml version="1.0" encoding="UTF-8"?>
<!-- The Best Svg Icon site in the world: iconSvg.co, Visit us! https://iconsvg.co -->
<svg width="800px" height="800px" version="1.1" viewBox="144 144 512 512" xmlns="http://www.w3.org/2000/svg">
 <defs>
  <clipPath id="b">
   <path d="m148.09 444h120.91v122h-120.91z"/>
  </clipPath>
  <clipPath id="a">
   <path d="m531 235h120.9v121h-120.9z"/>
  </clipPath>
 </defs>
 <path d="m463.7 487.11c-1.3867-2.3984-0.85547-5.4492 1.2617-7.2383 4.5938-3.8789 10.672-9.9727 14.453-14.492 1.7812-2.1328 4.8398-2.6719 7.25-1.2812l20.797 12.012 11.789-20.391-20.812-12.016c-2.4102-1.3945-3.4648-4.2812-2.5078-6.8945 2.0078-5.457 4.2344-13.578 5.293-19.555 0.48438-2.7344 2.8594-4.4688 5.6367-4.4688l24.016 0.007812v-24.602h-24.012c-2.7734 0-5.1484-1.7305-5.6367-4.4609-1.0586-5.957-3.2891-14.094-5.2969-19.574-0.95703-2.6133 0.10547-5.4922 2.5117-6.8828l20.809-11.988-11.793-20.41-20.793 12.035c-2.4062 1.3945-5.4727 0.85547-7.2539-1.2773-3.7812-4.5156-9.8594-10.609-14.453-14.492-2.1172-1.7891-2.6523-4.8359-1.2656-7.2344l12-20.777-20.441-11.797-12.031 20.809c-1.3867 2.4023-4.3477 3.4648-6.957 2.5234-5.6484-2.043-13.891-4.2695-19.695-5.3008-2.7344-0.48438-4.7578-2.8594-4.7578-5.6367v-24.598h-23.617v24.598c0 2.7773-1.9414 5.1523-4.6758 5.6367-5.7656 1.0195-14.113 3.2461-19.801 5.3008-2.6055 0.9375-5.4648-0.12109-6.8516-2.5195l-12.008-20.812-20.387 11.797 12.008 20.777c1.3906 2.4062 0.85156 5.4609-1.2734 7.25-4.5 3.7734-10.574 9.8672-14.449 14.484-1.7852 2.1289-4.8438 2.668-7.25 1.2734l-20.816-12.035-11.773 20.418 20.797 12.004c2.4023 1.3867 3.4648 4.2773 2.5195 6.8867-1.9883 5.4883-4.2227 13.594-5.3125 19.57-0.49609 2.7188-2.8672 4.4375-5.6289 4.4375h-24.16v24.602h24.16c2.7773 0 5.1523 1.7383 5.6367 4.4727 1.0234 5.8086 3.2539 13.906 5.3047 19.543 0.94922 2.6055-0.10937 5.4961-2.5117 6.8828l-20.801 12.023 11.773 20.395 20.82-12.008c2.4062-1.3867 5.4609-0.84766 7.2461 1.2773 3.8164 4.5508 9.8945 10.625 14.453 14.449 2.1289 1.7852 2.668 4.8398 1.2812 7.2422l-12 20.812 20.41 11.781 12.047-20.793c1.3906-2.4023 4.332-3.4609 6.9414-2.5117 5.4844 1.9922 13.684 4.2227 19.656 5.3008 2.7266 0.49219 4.6523 2.8633 4.6523 5.6328l-0.003906 24.562h23.617v-24.566c0-2.7773 2.0234-5.1523 4.7578-5.6367 5.8047-1.0273 14.238-3.2578 19.891-5.3008 2.6094-0.94531 5.4727 0.11719 6.8594 2.5195l11.98 20.785 20.418-11.781zm-63.629-2.1133c-46.566 0-84.445-37.898-84.445-84.484 0-46.582 37.883-84.48 84.445-84.48 46.59 0 84.492 37.898 84.492 84.48 0 46.586-37.906 84.484-84.492 84.484z"/>
 <path d="m400.07 327.47c-40.254 0-73 32.762-73 73.035 0 40.273 32.746 73.035 73 73.035 40.277 0 73.043-32.762 73.043-73.035 0-40.27-32.766-73.035-73.043-73.035z"/>
 <g clip-path="url(#b)">
  <path d="m208.49 444.35c-33.305 0-60.398 27.09-60.398 60.391 0 33.305 27.094 60.398 60.398 60.398 33.293 0 60.383-27.094 60.383-60.398 0-33.301-27.09-60.391-60.383-60.391zm13.074 84.445c-2.0938 1.4922-4.5938 2.6094-6.5625 3.3438v7.7109c0 3.1602-2.7422 5.7227-5.9023 5.7227-3.1602 0-5.9023-2.5625-5.9023-5.7227v-6.8633c-4.9219-0.45312-7.6758-1.5859-11.227-3.3945-2.8164-1.4375-4.1406-4.8828-2.7031-7.6992 1.4375-2.8164 4.875-3.9336 7.6875-2.4961 3.875 1.9766 7.4883 2.5859 10.551 2.3789 0.28516-0.046875 0.57813-0.074219 0.87109-0.078125 2.5547-0.30469 4.6797-1.168 6.1602-2.2227 1.6133-1.1484 2.5391-2.5625 2.3828-3.6875-0.21484-1.5391-2.4453-4.0547-8.168-6.0898-15.199-5.3906-19.395-14.371-18.383-20.973 0.90234-5.8828 5.9375-10.242 12.828-11.926v-7.168c0-3.1602 2.7422-5.7227 5.9023-5.7227 3.1602 0 5.9023 2.5625 5.9023 5.7227v6.7031c1.9688 0.33594 5.0234 0.96094 7.8828 1.8633 3.0156 0.95312 4.3867 4.168 3.4336 7.1836-0.95312 3.0117-4.2266 4.6836-7.2383 3.7305-3.7188-1.1758-7.3086-1.7422-10.332-1.6133-0.027344 0-0.066406 0.003906-0.089844 0.003906-4.6328 0.17969-7.0312 1.8711-7.1992 2.9609-0.21484 1.4023 2.1953 5.3164 11.031 8.4531 12.441 4.418 15.395 11.477 15.93 15.293 0.75781 5.4414-1.6758 10.898-6.8555 14.586z"/>
 </g>
 <g clip-path="url(#a)">
  <path d="m591.52 355.76c33.297 0 60.387-27.09 60.387-60.391 0-33.285-27.09-60.363-60.387-60.363-33.285 0-60.367 27.078-60.367 60.363 0 33.301 27.082 60.391 60.367 60.391zm-19.305-43.234c1.4375-2.8164 4.957-3.9336 7.7734-2.5 7.6016 3.8789 14.203 2.4609 17.555 0.074218 1.6133-1.1484 2.4961-2.5625 2.3398-3.6875-0.21484-1.5352-2.5352-4.0508-8.25-6.082-15.199-5.3945-19.84-14.375-18.828-20.98 0.90234-5.8789 5.3008-10.238 12.188-11.926v-7.1406c0-3.1602 2.7422-5.7227 5.9023-5.7227s5.9023 2.5625 5.9023 5.7227v6.6758c3.9375 0.33984 5.6406 0.96484 8.5 1.8711 3.0156 0.95312 4.8594 4.1719 3.9062 7.1836-0.95703 3.0117-4.1562 4.6875-7.1758 3.7266-3.7227-1.1797-7.2773-1.7383-10.297-1.6211-0.023437 0-0.054687 0.003906-0.078124 0.003906-4.6133 0.17969-7.0078 1.8711-7.1758 2.9609-0.21484 1.4062 2.1797 5.3203 11.02 8.457 12.434 4.418 15.145 11.473 15.676 15.285 0.76172 5.4492-1.9961 10.906-7.1758 14.594-2.1016 1.4961-5.2305 2.6172-7.1992 3.3555v7.707c0 3.1602-2.7422 5.7227-5.9023 5.7227s-5.9023-2.5625-5.9023-5.7227v-6.8711c-2.9531-0.45703-7.0391-1.5859-10.578-3.3906-2.8125-1.4336-3.6328-4.8789-2.1992-7.6953z"/>
 </g>
 <path d="m406.67 553.54c-1.6367-1.6367-4.0234-2.125-6.1641-1.2383-2.1367 0.88672-3.457 2.9727-3.457 5.2852v12.695c-40.344-0.74219-78.258-15.477-108.37-41.684-2.3867-2.0742-6.0352-1.8281-8.1133 0.55859-2.0742 2.3828-1.7695 6 0.61328 8.0742 32.195 28.027 72.57 43.754 115.87 44.5v12.797c0 2.3164 1.3203 4.4023 3.4609 5.2891 0.70703 0.29297 1.4141 0.43359 2.1523 0.43359 1.4883 0 2.9375-0.58203 4.0312-1.6758l18.465-18.484c1.0742-1.0742 1.6719-2.5273 1.6719-4.0469 0-1.5195-0.60547-2.9727-1.6797-4.0469z"/>
 <path d="m579.65 375.27c-1.0742-1.0742-2.5273-1.8359-4.0469-1.8359h-0.003907c-1.5195 0-2.9766 0.76562-4.0508 1.8398l-18.449 18.562c-1.6328 1.6367-2.1211 3.7734-1.2344 5.9102 0.88672 2.1367 2.9727 3.207 5.2852 3.207h12.672c-1.1484 62.977-36.41 119.82-92.648 148.51-2.8164 1.4375-3.9336 5.0664-2.4961 7.8828 1.0117 1.9805 3.0195 3.2109 5.1055 3.2109 0.875 0 1.7617-0.15625 2.5977-0.57812 29.793-15.195 54.777-38.645 72.242-67.156 16.914-27.609 26.082-59.395 26.648-91.867h12.812c2.3164 0 4.4023-1.0312 5.2852-3.168 0.88672-2.1406 0.39844-4.5-1.2422-6.1367z"/>
 <path d="m393.48 247.47c1.0938 1.0938 2.5586 1.6758 4.0469 1.6758 0.73828 0 1.332-0.14453 2.0391-0.4375 2.1367-0.88672 3.3828-2.9727 3.3828-5.2891l-0.003906-12.688c39.359 0.73438 76.766 14.883 106.57 40.035 1.0742 0.90625 2.4609 1.3516 3.7617 1.3516 1.6289 0 3.2852-0.69141 4.4141-2.0312 2.0391-2.4141 1.6016-6.0273-0.8125-8.0664-31.859-26.898-72.602-42.004-113.93-42.738v-12.793c0-2.3164-1.2461-4.4023-3.3828-5.2891-2.1406-0.88672-4.5273-0.39453-6.1641 1.2461l-18.418 18.48c-2.2344 2.2344-2.2148 5.8594 0.023437 8.0938z"/>
 <path d="m220.49 425.57c1.0742 1.0742 2.5312 1.6797 4.0508 1.6797 1.5195 0 2.9766-0.60156 4.0508-1.6758l18.457-18.473c1.6367-1.6367 2.125-3.75 1.2383-5.8867-0.88672-2.1367-2.9727-3.1836-5.2891-3.1836l-12.68-0.003906c1.1523-62.977 36.422-119.84 92.668-148.49 2.8164-1.4336 3.9375-5.0547 2.5039-7.8711-1.4336-2.8164-4.8828-4.0234-7.6992-2.5898-29.801 15.18-54.793 38.586-72.27 67.109-16.918 27.613-26.086 58.387-26.652 91.844h-12.777c-2.3125 0-4.4023 1.043-5.2852 3.1836-0.88672 2.1367-0.39844 4.4258 1.2383 6.0625z"/>
 <path d="m265.55 219.99c2.2344 2.2383 5.8594 2.2383 8.0938 0.007813l10.375-10.363 10.375 10.363c1.1172 1.1172 2.582 1.6719 4.043 1.6719 1.4648 0 2.9336-0.55859 4.0508-1.6797 2.2344-2.2383 2.2305-5.8594-0.007813-8.0938l-10.359-10.352 10.363-10.348c2.2383-2.2344 2.2383-5.8594 0.007812-8.0938-2.2344-2.2383-5.8555-2.2383-8.0938-0.007812l-10.379 10.363-10.375-10.359c-2.2344-2.2344-5.8594-2.2305-8.0938 0.007813-2.2344 2.2344-2.2305 5.8594 0.007813 8.0938l10.363 10.348-10.363 10.352c-2.2383 2.2305-2.2422 5.8516-0.007813 8.0898z"/>
 <path d="m299.12 579.98c-2.2344-2.2344-5.8594-2.2344-8.0938 0.003906l-10.355 10.359-10.355-10.359c-2.2344-2.2383-5.8594-2.2383-8.0938-0.003906-2.2344 2.2344-2.2383 5.8594-0.003906 8.0938l10.359 10.367-10.359 10.367c-2.2344 2.2344-2.2344 5.8594 0.003906 8.0938 2.2383 2.2344 5.8594 2.2344 8.0938-0.003906l10.355-10.359 10.355 10.359c1.1172 1.1172 2.582 1.6758 4.0469 1.6758s2.9297-0.55859 4.0469-1.6758c2.2344-2.2344 2.2383-5.8594 0.003906-8.0938l-10.359-10.367 10.359-10.367c2.2344-2.2344 2.2344-5.8555-0.003906-8.0898z"/>
 <path d="m638.63 412.79h-8.375v-8.875c0-3.1602-2.7422-5.7227-5.9023-5.7227-3.1602 0-5.9023 2.5625-5.9023 5.7227l-0.003907 8.875h-8.6523c-3.1602 0-5.7227 2.25-5.7227 5.4102 0 3.1602 2.5625 5.4102 5.7227 5.4102l8.6523 0.003906v9.1328c0 3.1602 2.7422 5.7227 5.9023 5.7227s5.9023-2.5625 5.9023-5.7227l0.003906-9.1328h8.3711c3.1602 0 5.7227-2.25 5.7227-5.4102 0.003906-3.1641-2.5586-5.4141-5.7188-5.4141z"/>
</svg>