<?xml version="1.0" encoding="UTF-8"?>
<!-- The Best Svg Icon site in the world: iconSvg.co, Visit us! https://iconsvg.co -->
<svg fill="#000000" width="800px" height="800px" version="1.1" viewBox="144 144 512 512" xmlns="http://www.w3.org/2000/svg">
 <g>
  <path d="m328.13 268.24c-10.477-36.957 11.074-75.539 48.031-86.004 17.895-5.0586 36.727-2.875 52.953 6.1914 16.246 9.0781 27.992 23.93 33.043 41.836 10.477 36.934-11.051 75.496-47.977 85.992-8.375 0.17969-16.73 0.93359-24.992 2.3828-28.691-2.4531-53.219-22.68-61.059-50.398z"/>
  <path d="m600.52 431.97h-9.918c-0.67188 0-1.3125-0.14844-1.9297-0.38672-0.21875-0.082031-0.39844-0.21875-0.62109-0.34766-0.34766-0.21094-0.68359-0.38672-1.0078-0.66016-0.21094-0.19922-0.32422-0.39844-0.50391-0.60938-0.23047-0.29297-0.45312-0.59766-0.62891-0.92188-0.125-0.25-0.21094-0.54688-0.28516-0.82031-0.0625-0.21875-0.1875-0.41016-0.21875-0.66016-3.5898-22.105-12.625-43.684-26.156-62.355-0.125-0.1875-0.16797-0.41016-0.26172-0.60938-0.16797-0.29297-0.30469-0.58594-0.41016-0.91406-0.11719-0.32422-0.16797-0.66016-0.21094-1.0078-0.042969-0.32422-0.0625-0.64062-0.019531-0.96484 0.019531-0.34766 0.09375-0.66016 0.1875-0.98828 0.09375-0.32422 0.21094-0.62891 0.34766-0.93359 0.14844-0.30469 0.34766-0.58594 0.57812-0.85156 0.14844-0.1875 0.21094-0.38672 0.35547-0.54688 10.547-10.496 16.711-24.426 17.488-39.086l-39.234 17.98c-0.03125 0.019532-0.082031 0.019532-0.125 0.03125-0.65234 0.27344-1.3008 0.41797-1.9727 0.42969-0.019531 0-0.0625 0.019531-0.09375 0.019531-0.62109 0-1.2188-0.11719-1.8164-0.33594h-0.011719c-0.54688-0.21094-1.082-0.49219-1.543-0.88281-21.254-17.844-47.316-30.398-75.434-36.527-5.5195 6.7695-12.195 12.637-19.816 17.34 8.0195 0.96484 15.965 2.3945 23.816 4.5352 2.8008 0.77734 4.4414 3.6641 3.6836 6.4531-0.74609 2.793-3.6094 4.4297-6.4336 3.6719-34.082-9.332-70.68-6.6016-103.03 7.7031-0.68359 0.29297-1.418 0.44141-2.1211 0.44141-2.0039 0-3.9375-1.1562-4.7969-3.1289-1.1758-2.6445 0.019531-5.75 2.6758-6.9258 5.2383-2.3203 10.602-4.2422 16.016-5.9844-8.3125-3.1484-16.059-7.5156-22.859-13.121-41.523 18.125-72.539 49.773-87.359 89.594-0.99609 2.6758-1.7305 5.4062-2.5625 8.1133-5.7109-5.668-13.004-9.3633-21.129-10.266-2.3633-0.26172-4.6914-0.29297-7.0312-0.10547-0.54688-0.62109-1.1016-1.207-1.6914-1.8047-8.4375-8.4492-19.648-13.109-31.605-13.121-1.082 0-2.1641 0.042969-3.2422 0.11719-2.8867 0.19922-5.0586 2.707-4.8711 5.5938 0.21094 2.8867 2.6758 4.9531 5.6055 4.8711 8.8281-0.62109 17.234 2.0781 23.898 7.4609-2.6133 1.207-5.1133 2.75-7.4219 4.5977-4.4414 3.5469-8.0078 8.1328-10.316 13.309-4.8477 10.77-0.03125 23.488 10.746 28.352 2.8438 1.2812 5.8359 1.8984 8.7734 1.8984 8.1875 0 16.016-4.7109 19.586-12.648 1.25-2.7812 1.8906-5.7188 1.8906-8.7734 0.011719-6.7383-1.457-13.234-4.2422-19.133 6.2227 1.0078 11.766 4.2422 15.734 9.2031 0.64062 0.77734 1.4805 1.25 2.3633 1.5547-6.9922 31.625-3.1055 64.445 11.766 94.191 12.898 25.809 33.324 47.883 59.094 63.816 0.23047 0.14844 0.36719 0.36719 0.57812 0.53516 0.28516 0.24219 0.58594 0.46094 0.80859 0.75391 0.21094 0.25 0.31641 0.56641 0.47266 0.85938 0.15625 0.29297 0.31641 0.59766 0.41016 0.92188 0.09375 0.30469 0.082031 0.62891 0.11719 0.95703 0.03125 0.33594 0.082031 0.68359 0.042969 1.0391-0.042969 0.32422-0.16797 0.62109-0.26172 0.94531-0.09375 0.27344-0.10547 0.59766-0.24219 0.85937l-18.473 35.727h59.219l8.8594-17.129c0.0625-0.11719 0.16797-0.17969 0.21875-0.28516 0.1875-0.29297 0.41016-0.54687 0.65234-0.78906 0.23047-0.24219 0.44141-0.50391 0.70312-0.68359 0.29297-0.21875 0.62109-0.36719 0.95703-0.52344 0.26172-0.125 0.52344-0.24219 0.79688-0.32422 0.35547-0.10547 0.71484-0.10547 1.0898-0.125 0.33594-0.019531 0.65234-0.042969 0.98828 0 0.11719 0.019531 0.21875-0.019531 0.33594 0.019531 24.949 5.2266 51.293 5.2266 76.242 0 0.11719-0.042969 0.21875 0 0.33594-0.019531 0.32422-0.042969 0.65234-0.019531 0.97656 0 0.35547 0 0.72266 0.019531 1.0898 0.125 0.27344 0.074219 0.53516 0.21094 0.78906 0.32422 0.33594 0.15625 0.66016 0.28516 0.97656 0.52344 0.24219 0.1875 0.45312 0.42969 0.67188 0.66016 0.24219 0.25 0.48438 0.51563 0.66016 0.82031 0.0625 0.10547 0.17969 0.16797 0.21875 0.27344l8.8594 17.129h59.23l-18.473-35.727c-0.15625-0.26172-0.16797-0.58594-0.24219-0.85938-0.10547-0.32422-0.21875-0.62109-0.26172-0.94531-0.042968-0.34766 0.011719-0.67188 0.042969-1.0391 0.042969-0.32422 0.019531-0.65234 0.125-0.95703 0.09375-0.32422 0.24219-0.62891 0.41016-0.92188 0.15625-0.29297 0.25-0.60938 0.47266-0.85938 0.21875-0.29297 0.52344-0.51562 0.79688-0.75391 0.21875-0.16797 0.33594-0.38672 0.58594-0.53516 23.09-14.285 42.141-33.746 55.051-56.27 0.125-0.21094 0.30469-0.31641 0.42969-0.49219 0.21875-0.28516 0.42969-0.57812 0.70312-0.80859 0.26172-0.21875 0.56641-0.39844 0.85156-0.58594 0.27344-0.14844 0.55469-0.29297 0.85156-0.41016 0.35547-0.125 0.72266-0.1875 1.1133-0.21875 0.21094-0.03125 0.36719-0.125 0.59766-0.125h27.98c8.1328 0 14.758-6.6211 14.758-14.77v-57.422c-0.027344-8.125-6.6484-14.75-14.793-14.75zm-374.5 0.69531c-2.4766 5.5117-9.0039 7.9766-14.484 5.4805-5.4883-2.4648-7.9648-8.9648-5.4805-14.484 1.6367-3.6406 4.1562-6.875 7.293-9.4062 2.5195-2.0039 5.3516-3.5039 8.3438-4.4297 3.4531 5.4375 5.3008 11.746 5.2891 18.336 0.015626 1.5938-0.32031 3.1055-0.96094 4.5039z"/>
 </g>
</svg>