<?xml version="1.0" encoding="UTF-8"?>
<!-- The Best Svg Icon site in the world: iconSvg.co, Visit us! https://iconsvg.co -->
<svg fill="#000000" width="800px" height="800px" version="1.1" viewBox="144 144 512 512" xmlns="http://www.w3.org/2000/svg">
 <g>
  <path d="m281.09 621.4c1.5352 0.03125 3.0117-0.5625 4.0977-1.6445 1.082-1.082 1.6797-2.5625 1.6523-4.0938v-26.734h7.1719c1.5 0.066407 2.9609-0.49609 4.0273-1.5547 1.0664-1.0547 1.6445-2.5078 1.5898-4.0078v-31.656c0.070313-1.5508-0.48438-3.0703-1.5391-4.2109-1.0547-1.1406-2.5234-1.8125-4.0781-1.8633h-7.1719v-26.223c0-3.2617-2.4844-6.25-5.7461-6.25h-119.51c-3.2578 0-5.6211 2.9883-5.6211 6.25v31.652c0 3.2617 2.3633 6.375 5.6172 6.375h7.1758v20.664h-7.1719c-1.5391 0.011719-3.0039 0.64844-4.0625 1.7617-1.0586 1.1133-1.6211 2.6094-1.5586 4.1445v31.652c-0.058594 1.5195 0.51172 2.9922 1.5742 4.0781 1.0625 1.0859 2.5273 1.6875 4.0469 1.6602zm-52.309-63.961v19.68h-7.8711v-19.68zm11.809 19.68v-19.68h6.8867v19.68zm-31.488-19.68v19.68h-7.8711v-19.68zm45.266 32.473v19.68h-7.8711l-0.003906-19.68zm4.9219-12.793-0.003906-19.68h7.8711v19.68zm-12.793-31.488-0.003906-20.66h7.8711v20.664zm-11.809 0-7.875 0.003906v-20.664h7.8711zm-19.68 0-6.8906 0.003906v-20.664h6.8867zm-18.695 0-7.875 0.003906v-20.664h7.8711zm-6.8867 31.488h-8.8594v-19.68h8.8555zm6.8867 12.793v19.68h-7.875v-19.68zm11.809 0h6.8867v19.68h-6.8906zm18.695 0h7.8711v19.68h-7.875zm48.215 19.68h-8.8555v-19.68h8.8555zm12.793-32.473h-8.8555l-0.003906-19.68h8.8555zm-12.793-31.488h-8.8555v-20.66h8.8555zm-107.26-20.66h8.8555v20.664h-8.8555zm0 64.945h8.8555v19.68l-8.8555-0.003906z"/>
  <path d="m461.29 524.97c3.2617 0 5.6172-2.9414 5.6172-6.2031v-31.656c0.046875-1.4883-0.53516-2.9258-1.6055-3.9609-1.0703-1.0352-2.5273-1.5742-4.0117-1.4766h-119.51c-3.2617 0-5.7461 2.1797-5.7461 5.4375v26.051h-7.1719c-3.2617 0-5.6172 2.9883-5.6172 6.25l-0.003906 31.652c0 3.2617 2.3633 6.375 5.6172 6.375h7.1758v20.664h-7.1758c-1.5352 0.011719-3 0.64844-4.0586 1.7617-1.0586 1.1133-1.6211 2.6094-1.5586 4.1445v31.652c-0.058594 1.5195 0.51172 2.9922 1.5742 4.0781 1.0625 1.0859 2.5273 1.6875 4.043 1.6602h119.51c1.5312 0.03125 3.0117-0.5625 4.0977-1.6445 1.082-1.082 1.6797-2.5625 1.6484-4.0938v-26.734h7.1758c1.5 0.066407 2.957-0.49609 4.0273-1.5547 1.0664-1.0547 1.6406-2.5078 1.5898-4.0078v-31.656c0.070313-1.5508-0.48438-3.0703-1.5391-4.2109-1.0547-1.1406-2.5234-1.8125-4.0781-1.8633h-7.1758v-20.664zm-73.102 52.148v-19.68h7.8711v19.68zm5.9023-31.488v-20.66h7.8711v20.664zm-11.809-20.664v20.664h-6.8867v-20.66zm-5.9023 32.473v19.68h-7.8711v-19.68zm31.488 19.68v-19.68h6.8867v19.68zm5.9023-31.488v-20.66h7.8711v20.664zm12.793-32.473v-19.676h7.8711v19.68zm-11.809 0h-6.8867v-19.676h6.8867zm-18.695 0h-7.8711v-19.676h7.8711zm-19.68 0h-7.8711v-19.676h7.8711zm-12.793 11.809v20.664h-7.8711v-20.66zm-6.8867 52.152h-8.8555v-19.68h8.8555zm6.8867 12.793v19.68h-7.8711v-19.68zm11.809 0h6.8867v19.68h-6.8867zm18.695 0h7.8711v19.68h-7.8711zm19.68 0h7.8711v19.68h-7.8711zm12.793-12.793v-19.68h7.8711v19.68zm6.8867-52.152h8.8555v20.664h-8.8555zm21.648-11.809h-8.8555v-19.676h8.8555zm-107.25-19.676h8.8555v19.68h-8.8555zm-12.793 31.488h8.8555v20.664h-8.8555zm0 64.945h8.8555v19.68h-8.8555zm107.26 19.68h-8.8555l-0.003906-19.684h8.8555zm12.793-32.473h-8.8555l-0.003906-19.684h8.8555z"/>
  <path d="m638.41 481.67h-7.1758v-26.668c0.035157-1.5391-0.55859-3.0234-1.6445-4.1211-1.082-1.0938-2.5625-1.6992-4.1016-1.6836h-119.51c-1.5234-0.011719-2.9883 0.60156-4.0508 1.6992-1.0625 1.0977-1.6289 2.582-1.5664 4.1055v31.652c-0.0625 1.5312 0.50391 3.0156 1.5625 4.1211 1.0625 1.1016 2.5273 1.7227 4.0547 1.7188h7.1758v20.664h-7.1719c-3.2617 0-5.6172 2.9883-5.6172 6.25l-0.003906 31.652c0 3.2617 2.3633 6.375 5.6172 6.375h7.1758v20.664h-7.1758c-1.5352 0.011719-3 0.64844-4.0586 1.7617-1.0625 1.1133-1.6211 2.6094-1.5586 4.1445v31.652c-0.058594 1.5195 0.51172 2.9922 1.5742 4.0781 1.0625 1.0859 2.5234 1.6875 4.043 1.6602h119.51c1.5312 0.03125 3.0117-0.5625 4.0938-1.6445 1.0859-1.082 1.6836-2.5625 1.6523-4.0938v-26.734h7.1758c1.5 0.066407 2.957-0.49609 4.0234-1.5547 1.0664-1.0547 1.6445-2.5078 1.5938-4.0078v-31.656c0.070312-1.5508-0.48438-3.0703-1.5391-4.2109-1.0586-1.1406-2.5273-1.8125-4.0781-1.8633h-7.1758v-20.664h7.1719c3.2617 0 5.6172-2.9414 5.6172-6.2031l0.003906-31.656c0.046875-1.4883-0.53906-2.9258-1.6055-3.9609-1.0703-1.0352-2.5273-1.5742-4.0117-1.4766zm-73.102 95.445v-19.68h7.8711v19.68zm5.9023-31.488v-20.66h7.8711v20.664zm-5.9023-32.473v-19.676h7.8711v19.68zm-11.809-19.68v19.68h-7.8711v-19.676zm5.9023 31.488v20.664h-6.8867v-20.66zm-5.9023 32.473v19.68h-7.8711v-19.68zm31.488 19.68v-19.68h6.8867v19.68zm5.9023-31.488v-20.66h7.8711v20.664zm-5.9023-32.473v-19.676h6.8867v19.68zm5.9023-32.473v-19.676h7.8711v19.68zm-11.809 0h-7.8711v-19.676h7.8711zm-19.68 0h-6.8867v-19.676h6.8867zm-18.695 0h-7.8711v-19.676h7.8711zm-6.8867 32.473h-8.8555v-19.676h8.8555zm6.8867 11.809v20.664h-7.8711v-20.66zm-6.8867 52.152h-8.8555v-19.68h8.8555zm6.8867 12.793v19.68h-7.8711v-19.68zm11.809 0h6.8867v19.68h-6.8867zm18.695 0h7.8711v19.68h-7.8711zm19.68 0h7.8711v19.68h-7.8711zm12.793-12.793v-19.68h7.8711v19.68zm6.8867-52.152h8.8555v20.664h-8.8555zm-6.8867-11.809v-19.676h7.8711v19.68zm15.742-32.473h-8.8555v-19.676h8.8555zm-107.25-19.676h8.8555v19.68h-8.8555zm0 63.961h8.8555v20.664h-8.8555zm0 64.945h8.8555v19.68h-8.8555zm107.26 19.68h-8.8555l-0.003906-19.684h8.8555zm12.793-32.473h-8.8555l-0.003906-19.684h8.8555zm0-63.961h-8.8555l-0.003906-19.68h8.8555z"/>
  <path d="m192.19 465.96c1.5234 0 2.9844-0.58984 4.0859-1.6445l108.62-104.2 112.86 88.906c2.1328 1.6797 5.1328 1.6875 7.2773 0.023437l165.79-128.84-6.8047 88.461c-0.12109 1.5625 0.38281 3.1094 1.4023 4.2969s2.4688 1.9258 4.0312 2.043c0.15625 0.011718 0.30859 0.019531 0.46094 0.019531h-0.003906c3.0859-0.003906 5.6445-2.3789 5.8828-5.4531l7.8359-101.88c0.12109-1.5664-0.38672-3.1172-1.4141-4.3047-1.0273-1.1914-2.4844-1.9219-4.0508-2.0352l-109.71-7.8359-0.003906-0.003906c-3.25-0.23047-6.0781 2.2188-6.3086 5.4688-0.23437 3.2539 2.2148 6.0781 5.4688 6.3125l94.48 6.75-160.65 124.85-113.27-89.227c-2.3125-1.8203-5.6133-1.6602-7.7383 0.37891l-112.33 107.76c-1.7383 1.668-2.2891 4.2266-1.3906 6.4609 0.90234 2.2383 3.0703 3.7031 5.4805 3.7031z"/>
  <path d="m375.14 336.07c20.906 0 40.953-8.3047 55.734-23.086s23.086-34.828 23.086-55.734c0-20.902-8.3047-40.949-23.086-55.73s-34.828-23.086-55.734-23.086c-20.902 0-40.949 8.3047-55.73 23.086s-23.086 34.828-23.086 55.73c0.023437 20.898 8.3359 40.934 23.109 55.707 14.777 14.777 34.812 23.09 55.707 23.113zm0-145.83c17.773 0 34.816 7.0586 47.383 19.625 12.57 12.566 19.629 29.613 19.629 47.383 0 17.773-7.0586 34.816-19.629 47.387-12.566 12.566-29.609 19.625-47.383 19.625-17.77 0-34.816-7.0586-47.383-19.625-12.566-12.57-19.625-29.613-19.625-47.387 0.019532-17.766 7.0859-34.797 19.648-47.359s29.594-19.629 47.359-19.648z"/>
  <path d="m375.14 291.53c-7.1641-0.003906-12.973-5.8125-12.977-12.98 0-3.2578-2.6445-5.9023-5.9062-5.9023-3.2617 0-5.9023 2.6445-5.9023 5.9023 0.007812 5.418 1.7852 10.68 5.0625 14.992 3.2773 4.3125 7.875 7.4336 13.094 8.8867v5.0781c0 3.2578 2.6406 5.9023 5.9023 5.9023 3.2617 0 5.9062-2.6445 5.9062-5.9023v-4.7188c8.0547-1.7188 14.73-7.3281 17.812-14.969 3.0781-7.6367 2.1641-16.309-2.4453-23.137-4.6094-6.8281-12.309-10.918-20.547-10.918-5.25 0-9.9805-3.1641-11.988-8.0117-2.0117-4.8516-0.89844-10.434 2.8125-14.145 3.7109-3.7148 9.293-4.8242 14.145-2.8164 4.8477 2.0117 8.0117 6.7422 8.0117 11.992 0 3.2617 2.6445 5.9062 5.9023 5.9062 3.2617 0 5.9062-2.6445 5.9062-5.9062-0.007813-5.5-1.8398-10.84-5.2109-15.188-3.3711-4.3438-8.0898-7.4492-13.418-8.8242v-4.7148c0-3.2617-2.6406-5.9062-5.9023-5.9062-3.2617 0-5.9023 2.6445-5.9023 5.9062v4.5977c-7.9688 1.8594-14.504 7.5352-17.465 15.16s-1.9688 16.223 2.6523 22.973 12.277 10.785 20.457 10.785c7.168 0 12.98 5.8086 12.98 12.977s-5.8125 12.98-12.98 12.98z"/>
 </g>
</svg>