<?xml version="1.0" encoding="UTF-8"?>
<!-- The Best Svg Icon site in the world: iconSvg.co, Visit us! https://iconsvg.co -->
<svg fill="#000000" width="800px" height="800px" version="1.1" viewBox="144 144 512 512" xmlns="http://www.w3.org/2000/svg">
 <g>
  <path d="m616.48 398.03c0-119.64-96.82-216.48-216.48-216.48-119.64 0-216.48 96.82-216.48 216.48 0 92.066 57.105 169.13 135.16 200.74l-82.023-0.003906c-5.4336 0-9.8398 4.4062-9.8398 9.8398 0 5.4336 4.4062 9.8398 9.8398 9.8398h285.36c5.4336 0 9.8398-4.4062 9.8398-9.8398 0-5.4336-4.4062-9.8398-9.8398-9.8398h-40.691c77.961-31.57 135.16-108.51 135.16-200.73zm-216.48 196.8c-108.52 0-196.8-88.285-196.8-196.8s88.285-196.8 196.8-196.8 196.8 88.285 196.8 196.8-88.285 196.8-196.8 196.8z"/>
  <path d="m545.55 412.79h-17.629c-8.1406 0-14.762-6.6211-14.762-14.762s6.6211-14.762 14.762-14.762h17.648c6.3438 0 11.051-5.9297 9.5742-12.129-12.969-75.266-78.543-130.55-155.14-130.55-77.684 0-142.71 56.473-155.25 131.21-1.0039 5.9883 3.6133 11.469 9.7031 11.469h17.629c8.1406 0 14.762 6.6211 14.762 14.762s-6.6211 14.762-14.762 14.762h-17.629c-6.0742 0-10.711 5.4609-9.7031 11.469 12.551 74.805 77.633 131.21 155.25 131.21 77.68 0 142.71-56.469 155.25-131.21 1-5.9961-3.6172-11.473-9.707-11.473zm-145.55 123c-63.602 0-117.97-42.801-133.43-103.32h5.5039c18.992 0 34.441-15.449 34.441-34.441 0-18.992-15.449-34.441-34.441-34.441h-5.5039c15.457-60.516 69.824-103.32 133.43-103.32s117.97 42.801 133.42 103.32h-5.5039c-18.992 0-34.441 15.449-34.441 34.441s15.449 34.441 34.441 34.441h5.5039c-15.457 60.516-69.82 103.32-133.42 103.32z"/>
  <path d="m456.02 316.29-52.082 52.082-52.082-52.082c-3.8438-3.8438-10.074-3.8438-13.918 0s-3.8438 10.074 0 13.918l56.16 56.156v35.285h-19.68c-5.4336 0-9.8398 4.4062-9.8398 9.8398 0 5.4336 4.4062 9.8398 9.8398 9.8398h19.68v9.8398h-19.68c-5.4336 0-9.8398 4.4062-9.8398 9.8398 0 5.4336 4.4062 9.8398 9.8398 9.8398h19.68v29.52c0 5.4336 4.4062 9.8398 9.8398 9.8398s9.8398-4.4062 9.8398-9.8398v-29.52h19.68c5.4336 0 9.8398-4.4062 9.8398-9.8398 0-5.4336-4.4062-9.8398-9.8398-9.8398h-19.68v-9.8398h19.68c5.4336 0 9.8398-4.4062 9.8398-9.8398 0-5.4336-4.4062-9.8398-9.8398-9.8398h-19.68v-35.285l56.156-56.156c3.8438-3.8438 3.8438-10.074 0-13.918-3.8398-3.8438-10.07-3.8438-13.914 0z"/>
 </g>
</svg>