<?xml version="1.0" encoding="UTF-8"?>
<!-- The Best Svg Icon site in the world: iconSvg.co, Visit us! https://iconsvg.co -->
<svg fill="#000000" width="800px" height="800px" version="1.1" viewBox="144 144 512 512" xmlns="http://www.w3.org/2000/svg">
 <g>
  <path d="m538.21 417.45v-176.73c0-25.074-44.203-44.715-100.62-44.715-56.422 0-100.56 19.641-100.56 44.715v110.48c-8.0312-0.83984-16.098-1.2578-24.168-1.25-56.422 0-100.62 19.68-100.62 44.723v163.75c0 25.082 44.203 44.723 100.62 44.723 48.805 0 88.453-14.699 98.273-34.895v0.003906c19.004 22.609 47.023 35.672 76.559 35.691 29.539 0.019532 57.574-13.004 76.609-35.59 19.035-22.582 27.125-52.422 22.105-81.527-5.0195-29.105-22.641-54.512-48.141-69.414zm-8.2148-4.3203c-19.398-9.0625-41.191-11.66-62.176-7.4102-20.984 4.25-40.051 15.129-54.391 31.027v-42.066-1.3203c8.043 0.84766 16.121 1.2734 24.207 1.2695 41.93 0 77.098-10.824 92.406-26.707zm-92.41-208.94c55.281 0 92.406 18.875 92.406 36.496 0 17.625-37.125 36.508-92.406 36.508s-92.398-18.875-92.398-36.508c0.003906-17.633 37.098-36.496 92.398-36.496zm0 81.219c41.93 0 77.098-10.824 92.406-26.715v36.586c0 17.633-37.125 36.508-92.406 36.508s-92.398-18.875-92.398-36.508l0.003906-36.547c15.301 15.859 50.477 26.715 92.395 26.715zm-92.398 27.875c15.301 15.863 50.48 26.715 92.398 26.715 41.918 0 77.098-10.824 92.406-26.715v36.586c0 17.633-37.125 36.508-92.406 36.508-8.8633 0.007812-17.719-0.52734-26.516-1.5938-7.5469-15.469-32.609-27.711-65.879-32.582zm-32.383 44.852c9.1094-0.015625 18.207 0.52734 27.25 1.6328 0.32031 0.085937 0.64844 0.13672 0.98047 0.14844h0.058594c39.262 5.0859 64.078 20.32 64.078 34.734 0 17.625-37.137 36.496-92.406 36.496s-92.367-18.844-92.367-36.465c0-17.625 37.137-36.508 92.406-36.508zm0 81.219c41.93 0 77.098-10.824 92.406-26.707v33.996 0.39453l0.003906 0.003906c-3.9453 5.707-7.2891 11.805-9.9805 18.203-15.898 12.496-48 20.535-82.43 20.535-13.402 0.0625-26.777-1.1562-39.949-3.6406v-29.461c-0.10547-2.1914-1.9141-3.9102-4.1094-3.9102-2.1914 0-4 1.7188-4.1055 3.9102v27.641c-4.5859-1.1523-8.8555-2.4414-12.793-3.8555v-29.777c0.054688-1.125-0.35547-2.2227-1.1289-3.0391-0.77734-0.8125-1.8555-1.2734-2.9805-1.2734s-2.2031 0.46094-2.9766 1.2734c-0.77734 0.81641-1.1875 1.9141-1.1328 3.0391v26.43c-14.762-6.7812-23.191-15.449-23.191-23.844v-36.582c15.234 15.852 50.441 26.676 92.367 26.676zm-66.832 43.613c0.11719 0.058593 0.24609 0.097656 0.36328 0.14844 17.605 6.8008 40.766 10.883 66.469 10.883 30.965 0 59.465-6.043 78.188-16.195l0.003906-0.003906c-4.043 15.004-4.543 30.742-1.4688 45.973-17.465 10.43-45.785 16.602-76.754 16.602h0.003906c-13.402 0.0625-26.781-1.1562-39.953-3.6406v-29.965c0.058593-1.125-0.35156-2.2227-1.1289-3.0352-0.77344-0.81641-1.8516-1.2773-2.9766-1.2773s-2.2031 0.46094-2.9805 1.2773c-0.77734 0.8125-1.1836 1.9102-1.1289 3.0352v28.141c-4.5859-1.1523-8.8555-2.4414-12.793-3.8555v-30.285c-0.10547-2.1914-1.9141-3.9141-4.1055-3.9141-2.1953 0-4.0039 1.7227-4.1094 3.9141v26.941c-14.762-6.7812-23.191-15.449-23.191-23.844l-0.003906-36.586c5.8555 6.0742 14.625 11.445 25.566 15.688zm66.832 112c-13.402 0.066406-26.781-1.1562-39.949-3.6445v-29.52c-0.10547-2.1914-1.9141-3.9102-4.1094-3.9102-2.1914 0-4 1.7188-4.1055 3.9102v27.66c-4.5859-1.1406-8.8555-2.4414-12.793-3.8555v-29.758c0.054688-1.125-0.35547-2.2227-1.1289-3.0352-0.77734-0.81641-1.8555-1.2773-2.9805-1.2773s-2.2031 0.46094-2.9766 1.2773c-0.77734 0.8125-1.1875 1.9102-1.1328 3.0352v26.461c-14.762-6.7891-23.191-15.457-23.191-23.852v-36.586c15.234 15.891 50.441 26.715 92.367 26.715 31.113 0 59.945-6.1211 78.789-16.531 2.9648 10.098 7.5078 19.664 13.461 28.34-2.5586 17.035-38.977 34.57-92.25 34.57zm174.87 0.85547c-29.398-0.007812-57.023-14.086-74.301-37.875-0.17188-1.3086-0.96875-2.4492-2.1367-3.0625-5.8359-8.7109-10.129-18.363-12.691-28.535 0.22656-1.0781 0.011719-2.2031-0.60156-3.1172 0-0.070312-0.11719-0.12891-0.16797-0.20703-3.7539-17.621-2.2422-35.957 4.3398-52.723 0.80469-0.76953 1.2578-1.8398 1.25-2.9531 8.8359-20.383 24.754-36.875 44.809-46.43 20.059-9.5508 42.895-11.516 64.289-5.5312 21.391 5.9844 39.895 19.516 52.082 38.086 12.188 18.574 17.238 40.93 14.215 62.941-3.0234 22.008-13.914 42.176-30.66 56.773s-38.211 22.637-60.426 22.633z"/>
  <path d="m487.67 432.25c-18.992 0-37.207 7.543-50.637 20.973-13.434 13.434-20.977 31.648-20.977 50.641 0 18.996 7.543 37.211 20.977 50.641 13.43 13.43 31.645 20.977 50.637 20.977 18.996 0 37.211-7.5469 50.641-20.977s20.977-31.645 20.977-50.641c-0.019531-18.988-7.5742-37.191-21-50.617-13.426-13.426-31.629-20.977-50.617-20.996zm0 135.02v-0.003907c-16.812 0-32.938-6.6797-44.828-18.566-11.891-11.891-18.57-28.016-18.57-44.832 0-16.812 6.6797-32.941 18.57-44.828 11.891-11.891 28.016-18.57 44.828-18.57 16.816 0 32.941 6.6797 44.832 18.57 11.891 11.887 18.57 28.016 18.57 44.828-0.015625 16.812-6.6992 32.934-18.586 44.824-11.883 11.891-28.004 18.578-44.816 18.594z"/>
  <path d="m487.67 495.22c-5.2578 0-9.9961-3.168-12.008-8.0234-2.0117-4.8594-0.89844-10.453 2.8203-14.168 3.7188-3.7188 9.3125-4.8281 14.172-2.8125 4.8555 2.0156 8.0195 6.7578 8.0156 12.016 0.10547 2.1914 1.9141 3.9141 4.1094 3.9141 2.1914 0 4-1.7227 4.1055-3.9141-0.007813-4.9102-1.7148-9.6641-4.832-13.461-3.1172-3.793-7.4531-6.3906-12.27-7.3477v-5.6484c-0.10547-2.1914-1.9141-3.9141-4.1055-3.9141-2.1953 0-4.0039 1.7227-4.1094 3.9141v5.6484c-6.9648 1.3594-12.785 6.1133-15.512 12.66-2.7266 6.5508-1.9961 14.031 1.9453 19.93 3.9414 5.9023 10.574 9.4375 17.668 9.4258 4.6484-0.003906 9.1094 1.8398 12.398 5.125 3.2891 3.2852 5.1367 7.7461 5.1367 12.395 0.003907 4.6484-1.8438 9.1055-5.1289 12.395-3.2852 3.2852-7.7422 5.1328-12.391 5.1367-4.6484 0-9.1094-1.8477-12.395-5.1328-3.2891-3.2852-5.1367-7.7461-5.1367-12.395 0.058594-1.125-0.35156-2.2227-1.1289-3.0352-0.77344-0.81641-1.8516-1.2773-2.9766-1.2773s-2.2031 0.46094-2.9805 1.2773c-0.77734 0.8125-1.1836 1.9102-1.1289 3.0352 0.007813 6.1172 2.1875 12.027 6.1562 16.684 3.9648 4.6523 9.457 7.7461 15.492 8.7227v5.582c-0.054688 1.125 0.35156 2.2227 1.1289 3.0352 0.77734 0.81641 1.8516 1.2773 2.9805 1.2773 1.125 0 2.1992-0.46094 2.9766-1.2773 0.77734-0.8125 1.1836-1.9102 1.1289-3.0352v-5.582c8.625-1.3594 15.973-7 19.516-14.977 3.543-7.9805 2.8008-17.211-1.9727-24.52-4.7734-7.3125-12.926-11.703-21.656-11.672z"/>
 </g>
</svg>