<?xml version="1.0" encoding="UTF-8"?>
<!-- The Best Svg Icon site in the world: iconSvg.co, Visit us! https://iconsvg.co -->
<svg fill="#000000" width="800px" height="800px" version="1.1" viewBox="144 144 512 512" xmlns="http://www.w3.org/2000/svg">
 <g>
  <path d="m234.69 560.7v67.59c0 2.0859 0.82812 4.0898 2.3047 5.5664 1.4766 1.4727 3.4766 2.3047 5.5664 2.3047h86.59c2.0898 0 4.0938-0.83203 5.5664-2.3047 1.4766-1.4766 2.3086-3.4805 2.3086-5.5664v-125.95c0-2.0898-0.83203-4.0898-2.3086-5.5664l-56.457-56.457c-6.0312-6.0703-14.375-9.2656-22.918-8.7812-8.543 0.48828-16.469 4.6094-21.773 11.324l-6.7539-6.7539v-114.82c0-11.25-6-21.645-15.742-27.27-9.7422-5.625-21.746-5.625-31.488 0-9.7422 5.625-15.746 16.02-15.746 27.27v165.31c0.003906 2.0898 0.83203 4.0898 2.3086 5.5664zm-55.105-239.42c0-5.625 3-10.82 7.8711-13.633s10.875-2.8125 15.746 0c4.8711 2.8125 7.8711 8.0078 7.8711 13.633v118.08c0 2.0859 0.82813 4.0898 2.3047 5.5664l13.738 13.738c-0.09375 0.99219-0.30078 1.9453-0.30078 2.9609v-0.003906c-0.023438 7.9961 3.1602 15.672 8.832 21.309l32.836 32.844 11.133-11.133-32.844-32.844v0.003906c-2.6953-2.7031-4.207-6.3633-4.207-10.18 0.003906-3.8164 1.5195-7.4766 4.2188-10.176 2.6992-2.6953 6.3594-4.2148 10.176-4.2148 3.8164-0.007813 7.4805 1.5078 10.176 4.2109l54.145 54.152v114.82h-70.848v-62.977c0-2.0859-0.82813-4.0898-2.3047-5.5625l-68.543-68.543z"/>
  <path d="m604.67 289.79c-8.3516 0-16.359 3.3203-22.266 9.2227-5.9062 5.9062-9.2227 13.914-9.2227 22.266v114.82l-6.7539 6.7539c-5.3047-6.7188-13.234-10.84-21.777-11.328-8.5469-0.48438-16.891 2.7109-22.922 8.7852l-56.449 56.457c-1.4766 1.4766-2.3047 3.4766-2.3047 5.5664v125.95c0 2.0859 0.82813 4.0898 2.3047 5.5664 1.4766 1.4727 3.4766 2.3047 5.5664 2.3047h86.59c2.0898 0 4.0898-0.83203 5.5664-2.3047 1.4766-1.4766 2.3086-3.4805 2.3086-5.5664v-67.59l68.543-68.543h-0.003907c1.4766-1.4766 2.3086-3.4766 2.3086-5.5664v-165.31c0-8.3516-3.3203-16.359-9.2227-22.266-5.9062-5.9023-13.914-9.2227-22.266-9.2227zm15.742 193.54-68.543 68.543h0.003906c-1.4766 1.4727-2.3086 3.4766-2.3086 5.5625v62.977h-70.848v-114.82l54.145-54.152c2.6992-2.6992 6.3594-4.2148 10.18-4.2148 3.8164 0 7.4766 1.5156 10.176 4.2148 2.7031 2.6992 4.2188 6.3633 4.2188 10.18-0.007812 3.8164-1.5234 7.4727-4.2188 10.18l-32.836 32.844 11.133 11.133 32.836-32.844v-0.003906c5.6719-5.6367 8.8555-13.312 8.832-21.309 0-1.0156-0.20312-1.9688-0.30078-2.9609l13.738-13.738v0.003906c1.4766-1.4766 2.3047-3.4805 2.3047-5.5664v-118.08c0-5.625 3.0039-10.82 7.875-13.633 4.8711-2.8125 10.871-2.8125 15.742 0 4.8711 2.8125 7.8711 8.0078 7.8711 13.633z"/>
  <path d="m396.01 212.09c-2.4688-1.3984-5.5039-1.3594-7.9336 0.10156l-75.367 45.219-7.1719-86.359c-0.33984-4.0898-3.7695-7.2305-7.8711-7.2188h-31.488c-4.1055-0.011719-7.5312 3.1289-7.875 7.2188l-7.2422 87.246h-0.62891c-4.3477 0-7.8711 3.5273-7.8711 7.875v141.7c0 2.0859 0.82812 4.0898 2.3047 5.5664 1.4766 1.4766 3.4805 2.3047 5.5664 2.3047h299.14c2.0898 0 4.0898-0.82813 5.5664-2.3047 1.4766-1.4766 2.3047-3.4805 2.3047-5.5664v-188.93c0-2.8359-1.5273-5.4531-3.9961-6.8516-2.4688-1.3945-5.4961-1.3555-7.9297 0.10547l-66.793 40.07v-33.324c0-2.8359-1.5273-5.4531-3.9961-6.8516-2.4688-1.3945-5.5-1.3555-7.9297 0.10547l-66.793 40.07v-33.324c0-2.8359-1.5273-5.4492-3.9922-6.8477zm-122.59-32.512h17.004l6.5586 78.719h-30.121zm32.117 220.42h-47.234v-31.488h47.23zm0-47.23-47.234-0.003906v-31.488h47.23zm0-47.23-47.234-0.003906v-31.488h47.23zm157.44-72.684v33.32c0 2.8359 1.5234 5.4531 3.9961 6.8477 2.4688 1.3984 5.4961 1.3594 7.9297-0.10156l66.793-40.07v167.15h-220.42v-129.37l62.977-37.785v33.332c0 2.8359 1.5273 5.4531 3.9961 6.8477 2.4688 1.3984 5.5 1.3594 7.9297-0.10156z"/>
  <path d="m384.25 313.41h-31.488c-4.3477 0-7.8711 3.5234-7.8711 7.8711v31.488c0 2.0898 0.82812 4.0898 2.3047 5.5664 1.4766 1.4766 3.4805 2.3047 5.5664 2.3047h31.488c2.0898 0 4.0898-0.82812 5.5664-2.3047 1.4766-1.4766 2.3047-3.4766 2.3047-5.5664v-31.488c0-2.0859-0.82812-4.0898-2.3047-5.5664-1.4766-1.4766-3.4766-2.3047-5.5664-2.3047zm-7.8711 31.488h-15.746v-15.746h15.742z"/>
  <path d="m415.74 360.64h31.488c2.0898 0 4.0898-0.82812 5.5664-2.3047 1.4766-1.4766 2.3047-3.4766 2.3047-5.5664v-31.488c0-2.0859-0.82812-4.0898-2.3047-5.5664-1.4766-1.4766-3.4766-2.3047-5.5664-2.3047h-31.488c-4.3477 0-7.8711 3.5234-7.8711 7.8711v31.488c0 2.0898 0.82812 4.0898 2.3047 5.5664 1.4766 1.4766 3.4805 2.3047 5.5664 2.3047zm7.8711-31.488h15.742v15.742l-15.742 0.003906z"/>
  <path d="m478.72 360.64h31.488c2.0859 0 4.0898-0.82812 5.5664-2.3047 1.4766-1.4766 2.3047-3.4766 2.3047-5.5664v-31.488c0-2.0859-0.82812-4.0898-2.3047-5.5664-1.4766-1.4766-3.4805-2.3047-5.5664-2.3047h-31.488c-4.3477 0-7.8711 3.5234-7.8711 7.8711v31.488c0 2.0898 0.82812 4.0898 2.3047 5.5664 1.4766 1.4766 3.4805 2.3047 5.5664 2.3047zm7.8711-31.488h15.742v15.742l-15.742 0.003906z"/>
 </g>
</svg>