<?xml version="1.0" encoding="UTF-8"?>
<!-- The Best Svg Icon site in the world: iconSvg.co, Visit us! https://iconsvg.co -->
<svg fill="#000000" width="800px" height="800px" version="1.1" viewBox="144 144 512 512" xmlns="http://www.w3.org/2000/svg">
 <g>
  <path d="m391.05 421.79c-3.8828-1.3125-8.8203-3.3125-12.258-5.5781-1.3555-0.88672-2.1914-1.5273-2.5-1.918l-8.3672 16.617c8.7734 5.8477 19.848 9.1133 29.98 9.9922v13.598h8.0195v-13.48c6.8516-0.28906 14.059-2.0117 19.578-6.2148 2.5977-1.9766 4.668-4.5117 6.2188-7.6094 3.0117-6.0195 3.0391-15.352 0.52344-21.031-2.0156-4.5547-5.7734-8.6953-13.188-11.68-7.3477-2.9531-13.266-4.1484-14.41-4.4727v-15.805c8.0664 1.1562 17.539 6.2617 18.594 7.668l8.3672-15.805c-3.2539-1.8594-7.0859-3.6797-11.504-5.4609-4.418-1.7812-9.1406-2.9062-14.176-3.3711v-11.738h-8.0195v11.738c-10.914 1.1406-19.965 5.8711-24.402 15.859-2.6445 5.9453-2.668 13.895-0.75781 18.883 1.9688 5.1406 6.0547 8.4727 10.984 10.867 6.2266 3.0273 12.91 4.5898 15.453 5.4023v15.457c-2.793-0.39062-5.5039-1.0273-8.1367-1.918zm13.594-11.797c2.7109 0.92969 4.8789 1.957 6.5078 3.0781 1.625 1.125 2.4375 2.6914 2.4375 4.707 0 3.875-2.9844 5.9258-8.9492 6.1602zm-11.562-24.578c-1.3555-1.1211-2.0312-2.6523-2.0312-4.5898 0-4.0273 2.7109-6.2734 8.1367-6.7383v14.293c-2.7148-0.85156-4.75-1.8398-6.1055-2.9648z"/>
  <path d="m544.23 534.95c-37.59 39.887-88.465 61.855-143.25 61.855-107.14 0-194.54-86.055-196.75-192.67l6.7656 6.7656c3.8438 3.8438 10.074 3.8398 13.918 0 3.8398-3.8438 3.8398-10.074 0-13.918l-24.602-24.602c-3.8438-3.8438-10.074-3.8438-13.918 0l-24.602 24.602c-3.8438 3.8438-3.8438 10.074 0 13.918 3.8438 3.8398 10.074 3.8398 13.918 0l8.8125-8.8125c1.1094 118.53 97.344 214.4 216.46 214.4 60.434 0 116.89-24.871 157.57-68.035 3.7266-3.957 3.543-10.184-0.41406-13.91-3.957-3.7266-10.184-3.543-13.91 0.41016z"/>
  <path d="m638.2 372.38c-3.8438-3.8438-10.07-3.8438-13.918 0l-7.7266 7.7266c-9.8594-108.93-101.35-196.58-215.57-196.58-59.309 0-114.96 23.969-155.6 65.973-3.7773 3.9062-3.6758 10.137 0.23047 13.914s10.137 3.6758 13.914-0.23047c37.418-38.676 87.652-59.977 141.46-59.977 101.82 0 185.83 77.73 195.8 176.97l-7.793-7.793c-3.8438-3.8438-10.07-3.8438-13.918 0-3.8438 3.8438-3.8438 10.074 0 13.918l24.602 24.602c3.8438 3.8438 10.07 3.8398 13.918 0l24.602-24.602c3.8398-3.8438 3.8398-10.074-0.003907-13.918z"/>
  <path d="m400.98 557.44c86.812 0 157.44-70.625 157.44-157.44 0-86.812-70.625-157.44-157.44-157.44-86.816 0.003906-157.44 70.633-157.44 157.45s70.625 157.44 157.44 157.44zm0-295.2c75.961 0 137.76 61.801 137.76 137.76s-61.801 137.76-137.76 137.76-137.76-61.801-137.76-137.76 61.797-137.76 137.76-137.76z"/>
  <path d="m400.98 498.4c54.258 0 98.398-44.141 98.398-98.398s-44.141-98.398-98.398-98.398-98.398 44.141-98.398 98.398c-0.003907 54.258 44.137 98.398 98.398 98.398zm0-177.12c43.406 0 78.719 35.312 78.719 78.719s-35.312 78.719-78.719 78.719-78.719-35.312-78.719-78.719c-0.003906-43.402 35.312-78.719 78.719-78.719z"/>
  <path d="m336.04 384.25h19.68v19.68h-19.68z"/>
  <path d="m444.28 384.25h19.68v19.68h-19.68z"/>
 </g>
</svg>