<?xml version="1.0" encoding="UTF-8"?>
<!-- The Best Svg Icon site in the world: iconSvg.co, Visit us! https://iconsvg.co -->
<svg fill="#000000" width="800px" height="800px" version="1.1" viewBox="144 144 512 512" xmlns="http://www.w3.org/2000/svg">
 <g>
  <path d="m338.81 472.93c4.1758 0 7.5586-3.3867 7.5586-7.5586v-15.133c0-4.1719-3.3789-7.5586-7.5586-7.5586-4.1758 0-7.5586 3.3867-7.5586 7.5586v15.133c0 4.1758 3.3867 7.5586 7.5586 7.5586z"/>
  <path d="m338.81 528.43c4.1758 0 7.5586-3.3867 7.5586-7.5586v-15.141c0-4.1719-3.3789-7.5586-7.5586-7.5586-4.1758 0-7.5586 3.3867-7.5586 7.5586v15.141c0 4.1758 3.3867 7.5586 7.5586 7.5586z"/>
  <path d="m468.52 405.13c4.1719 0 7.5586-3.3867 7.5586-7.5586v-11.238c0-4.1719-3.3867-7.5586-7.5586-7.5586-4.1719 0-7.5586 3.3867-7.5586 7.5586v11.238c0 4.1719 3.3789 7.5586 7.5586 7.5586z"/>
  <path d="m274.56 535.05c4.1758 0 7.5586-3.3867 7.5586-7.5586v-12.66c0-4.1719-3.3789-7.5586-7.5586-7.5586-4.1758 0-7.5586 3.3867-7.5586 7.5586v12.66c0.003906 4.1719 3.3828 7.5586 7.5586 7.5586z"/>
  <path d="m534.02 407.6v-128.42c0-1.1992-0.30859-2.3164-0.80078-3.3242l6.9609 5.5781c2.1367 1.7148 4.7461 2.5898 7.3789 2.5898h0.089844c6.5195 0 11.801-5.2812 11.801-11.801 0-0.59766-0.039063-1.1875-0.125-1.7695l-0.97266-42.375c-0.082031-3.4805-1.6914-6.7617-4.4141-8.9375-2.7148-2.1797-6.2539-3.043-9.6836-2.3672l-43.047 8.5664c-4.5 0.89844-8.0703 4.3125-9.1523 8.7695-1.0898 4.4531 0.50391 9.1328 4.082 12.004l11.637 9.3242-119.2 141.85-45.469-24.902c-5.5234-3.0234-12.363-2.0352-16.812 2.4141l-124.75 124.84c-5.5312 5.5273-5.5312 14.488 0 20.016 0.11719 0.11719 0.25781 0.19531 0.37891 0.3125v48.828c0 4.1719 3.3789 7.5586 7.5586 7.5586h225.62c17.824 16.375 41.523 26.453 67.641 26.453 55.305 0 100.13-44.828 100.13-100.13 0.003906-44.367-28.887-81.934-68.852-95.074zm-267.02 66.594v6.8867c0 4.1719 3.3789 7.5586 7.5586 7.5586 4.1758 0 7.5586-3.3867 7.5586-7.5586v-7.5586c0-3.9648-3.0664-7.1836-6.957-7.4961l56.098-56.145c0.003906 4.1719 3.3867 7.5508 7.5586 7.5508 4.1758 0 7.5586-3.3867 7.5586-7.5586v-3.4219l38.777 21.242c2.2227 1.2148 4.6484 1.7773 7.0469 1.7383-0.50781 1.0117-0.82031 2.1445-0.82031 3.3555v7.5586c0 4.1719 3.3867 7.5586 7.5586 7.5586s7.5586-3.3867 7.5586-7.5586v-7.5586c0-3.2734-2.1016-6.0391-5.0195-7.0898 0.45312-0.41406 0.91016-0.82812 1.3164-1.3086l58.176-69.238v1.2031c0 4.1719 3.3867 7.5586 7.5586 7.5586s7.5586-3.3867 7.5586-7.5586v-7.5586c0-2.9375-1.6914-5.457-4.1406-6.707l46.969-55.906v117.78c-5.2734-0.86328-10.645-1.4219-16.164-1.4219-45.801 0-84.332 30.781-96.246 72.766v-1.2148c0-4.1719-3.3867-7.5586-7.5586-7.5586s-7.5586 3.3867-7.5586 7.5586v12.66c0 4.1719 3.3867 7.5586 7.5586 7.5586 1.543 0 2.9688-0.46875 4.1602-1.2539-0.30859 3.168-0.48828 6.375-0.48828 9.6172 0 3.9766 0.29688 7.8711 0.74219 11.723-1.2461-0.90625-2.7656-1.4492-4.418-1.4492-4.1719 0-7.5586 3.3867-7.5586 7.5586v7.5586c0 4.1719 3.3867 7.5586 7.5586 7.5586 3.6836 0 6.7461-2.6445 7.418-6.1367 3.2148 11.574 8.4336 22.273 15.289 31.754h-75.27c0-4.1719-3.3789-7.5586-7.5586-7.5586-4.1758 0-7.5586 3.3867-7.5586 7.5586h-49.141c0-4.1719-3.3789-7.5586-7.5586-7.5586-4.1758 0-7.5586 3.3867-7.5586 7.5586h-49.957v-38.551c1.6406-0.69531 3.1875-1.6914 4.5234-3.0312zm243.3 83.539v6.9766c0 4.1758-3.3789 7.5586-7.5586 7.5586-4.1758 0-7.5586-3.3789-7.5586-7.5586l0.003906-6.918c-6.1875-1.0312-14.148-4.0273-20.625-12.594-4.3125-5.6484-5.5078-11.465-5.5078-19.738 0 0 0.63672-6.5156 8.7656-6.5156 8.1328 0 8.0156 6.5156 8.0156 6.5156 0 12.488 9.8125 15.539 16.688 15.539 14.801 0 17.668-9.0039 17.66-13.645-0.023438-11.969-9.9453-13.961-15.133-15.227 0 0-27.797-4.8828-33.621-20.152-6.7578-17.703-0.16016-27.941 3.7852-33.258 4.5156-6.0352 11.199-9.5781 19.973-10.711v-7.3594c0-4.1719 3.3789-7.5586 7.5586-7.5586 4.1758 0 7.5586 3.3867 7.5586 7.5586v7.7656c7.332 1.4375 13.375 4.8125 17.629 10.398 3.6875 4.832 6.3398 12.973 5.668 17.84-0.14453 1.0742-1.3008 7.0312-8.7969 7.0312-7.4961 0-8.0156-6.2578-8.0156-6.2578-0.4375-3.7969-0.95703-5.4062-2.5703-7.6094-2.9258-3.793-7.4102-4.9023-13.992-4.9023-3.875 0-7.1289 0.84766-9.7578 2.5273-3.2227 2.1172-4.3984 5.2148-4.832 9.2383-1.1367 10.559 9.5391 14.363 12.168 15.203l17.109 5.6484c19.051 6.5586 22.059 19.254 22.059 27.527-0.003906 11.383-7.2852 29.324-26.672 32.676z"/>
 </g>
</svg>