<?xml version="1.0" encoding="UTF-8"?>
<!-- The Best Svg Icon site in the world: iconSvg.co, Visit us! https://iconsvg.co -->
<svg fill="#000000" width="800px" height="800px" version="1.1" viewBox="144 144 512 512" xmlns="http://www.w3.org/2000/svg">
 <g>
  <path d="m293.93 386.74c11.84-1.1875 22.152-8.5977 27.047-19.445s3.6328-23.48-3.3125-33.145c-6.9492-9.6641-18.523-14.887-30.363-13.703h-13.258c-3.6602 0-6.6289-2.9688-6.6289-6.6289 0-3.6602 2.9688-6.6289 6.6289-6.6289h33.145c7.3242 0 13.258-5.9375 13.258-13.258 0-7.3242-5.9336-13.258-13.258-13.258h-13.258c0-7.3242-5.9375-13.258-13.258-13.258-7.3242 0-13.258 5.9336-13.258 13.258v0.66406c-10.84 2.1992-19.863 9.6602-24.066 19.887-4.1992 10.23-3.0234 21.883 3.1406 31.062 6.1602 9.1836 16.496 14.688 27.555 14.676h13.258c3.6602 0 6.6289 2.9688 6.6289 6.6289 0 3.6641-2.9688 6.6289-6.6289 6.6289h-33.145c-7.3242 0-13.258 5.9375-13.258 13.258 0 7.3242 5.9336 13.262 13.258 13.262h13.258c0 7.3203 5.9336 13.258 13.258 13.258 7.3203 0 13.258-5.9375 13.258-13.258z"/>
  <path d="m572.36 161.35h-265.16c-10.547 0-20.664 4.1914-28.125 11.648-7.457 7.4609-11.648 17.578-11.648 28.125v27.844c-33.867 4.9766-63.25 25.992-78.906 56.434-15.652 30.441-15.652 66.566 0 97.008 15.656 30.441 45.039 51.457 78.906 56.434v160.03c0 10.547 4.1914 20.664 11.648 28.125 7.4609 7.457 17.578 11.648 28.125 11.648h265.16c10.547 0 20.664-4.1914 28.125-11.648 7.457-7.4609 11.648-17.578 11.648-28.125v-397.75c0-10.547-4.1914-20.664-11.648-28.125-7.4609-7.457-17.578-11.648-28.125-11.648zm-371.23 172.36c0-21.098 8.3828-41.332 23.301-56.25s35.152-23.297 56.25-23.297c21.098 0 41.332 8.3789 56.25 23.297s23.297 35.152 23.297 56.25c0 21.098-8.3789 41.332-23.297 56.25s-35.152 23.301-56.25 23.301c-21.098 0-41.332-8.3828-56.25-23.301s-23.301-35.152-23.301-56.25zm384.49 265.16c0 3.5156-1.3984 6.8867-3.8828 9.375-2.4883 2.4844-5.8594 3.8828-9.375 3.8828h-265.16c-7.3203 0-13.258-5.9375-13.258-13.258v-160.03c34.266-4.5625 64.156-25.535 80.105-56.207 15.945-30.672 15.945-67.188 0-97.859-15.949-30.668-45.84-51.645-80.105-56.207v-27.445c0-7.3203 5.9375-13.258 13.258-13.258h265.16c3.5156 0 6.8867 1.3984 9.375 3.8828 2.4844 2.4883 3.8828 5.8594 3.8828 9.375z"/>
  <path d="m532.58 545.84h-185.61c-7.3203 0-13.258 5.9336-13.258 13.258 0 7.3203 5.9375 13.258 13.258 13.258h185.61c7.3242 0 13.262-5.9375 13.262-13.258 0-7.3242-5.9375-13.258-13.262-13.258z"/>
  <path d="m532.58 492.8h-185.61c-7.3203 0-13.258 5.9375-13.258 13.258 0 7.3242 5.9375 13.258 13.258 13.258h185.61c7.3242 0 13.262-5.9336 13.262-13.258 0-7.3203-5.9375-13.258-13.262-13.258z"/>
  <path d="m532.58 439.77h-185.61c-7.3203 0-13.258 5.9336-13.258 13.258 0 7.3203 5.9375 13.258 13.258 13.258h185.61c7.3242 0 13.262-5.9375 13.262-13.258 0-7.3242-5.9375-13.258-13.262-13.258z"/>
  <path d="m532.58 386.74h-92.805c-7.3242 0-13.258 5.9336-13.258 13.258 0 7.3203 5.9336 13.258 13.258 13.258h92.809-0.003906c7.3242 0 13.262-5.9375 13.262-13.258 0-7.3242-5.9375-13.258-13.262-13.258z"/>
  <path d="m532.58 333.71h-92.805c-7.3242 0-13.258 5.9375-13.258 13.258 0 7.3242 5.9336 13.258 13.258 13.258h92.809-0.003906c7.3242 0 13.262-5.9336 13.262-13.258 0-7.3203-5.9375-13.258-13.262-13.258z"/>
  <path d="m532.58 280.68h-92.805c-7.3242 0-13.258 5.9336-13.258 13.258 0 7.3203 5.9336 13.258 13.258 13.258h92.809-0.003906c7.3242 0 13.262-5.9375 13.262-13.258 0-7.3242-5.9375-13.258-13.262-13.258z"/>
  <path d="m532.58 227.64h-92.805c-7.3242 0-13.258 5.9336-13.258 13.258 0 7.3203 5.9336 13.258 13.258 13.258h92.809-0.003906c7.3242 0 13.262-5.9375 13.262-13.258 0-7.3242-5.9375-13.258-13.262-13.258z"/>
 </g>
</svg>