<?xml version="1.0" encoding="UTF-8"?>
<!-- The Best Svg Icon site in the world: iconSvg.co, Visit us! https://iconsvg.co -->
<svg fill="#000000" width="800px" height="800px" version="1.1" viewBox="144 144 512 512" xmlns="http://www.w3.org/2000/svg">
 <g>
  <path d="m313.41 415.74c-22.965 0-44.992 9.125-61.23 25.363s-25.363 38.262-25.363 61.23c0 22.965 9.125 44.988 25.363 61.23 16.238 16.238 38.266 25.359 61.23 25.359s44.992-9.1211 61.23-25.359c16.238-16.242 25.363-38.266 25.363-61.23-0.027344-22.957-9.1602-44.969-25.395-61.203-16.234-16.23-38.242-25.363-61.199-25.391zm-16.305 156c-1.1133 3.1367-4.082 5.2344-7.4141 5.2344-0.90234 0-1.7969-0.15625-2.6445-0.46484-22.344-7.9141-39.922-25.496-47.832-47.844-1.4531-4.0977 0.6875-8.6016 4.7852-10.059s8.5977 0.68359 10.055 4.7812c6.4375 17.82 20.465 31.855 38.281 38.301 4.0938 1.457 6.2266 5.957 4.7695 10.051zm8.4336-77.281h15.742c8.4375 0 16.234 4.5039 20.453 11.809 4.2188 7.3086 4.2188 16.309 0 23.617-4.2188 7.3086-12.016 11.809-20.453 11.809v7.8711c0 4.3477-3.5234 7.8711-7.8711 7.8711s-7.8711-3.5234-7.8711-7.8711v-7.8711c-6.2656 0-12.27-2.4883-16.699-6.918-4.4297-4.4297-6.918-10.434-6.918-16.699 0-4.3477 3.5234-7.8711 7.8711-7.8711 4.3477 0 7.875 3.5234 7.875 7.8711 0 2.0898 0.82813 4.0898 2.3047 5.5664 1.4766 1.4766 3.4766 2.3047 5.5664 2.3047h15.742c4.3477 0 7.8711-3.5234 7.8711-7.8711s-3.5234-7.8711-7.8711-7.8711h-15.742c-8.4375 0-16.234-4.5-20.453-11.809-4.2188-7.3047-4.2188-16.309 0-23.617 4.2188-7.3047 12.016-11.805 20.453-11.805v-7.875c0-4.3477 3.5234-7.8711 7.8711-7.8711s7.8711 3.5234 7.8711 7.8711v7.875c6.2656 0 12.27 2.4844 16.699 6.9141 4.4297 4.4297 6.918 10.438 6.918 16.699 0 4.3477-3.5234 7.8711-7.8711 7.8711-4.3477 0-7.875-3.5234-7.875-7.8711 0-2.0859-0.82813-4.0898-2.3047-5.5664-1.4766-1.4766-3.4766-2.3047-5.5664-2.3047h-15.742c-4.3477 0-7.8711 3.5234-7.8711 7.8711s3.5234 7.8711 7.8711 7.8711zm64.777-19.098v0.003907c-6.0938-12.746-16.258-23.098-28.891-29.426-1.9141-0.90625-3.3867-2.543-4.082-4.543-0.69141-2.0039-0.55078-4.1992 0.39453-6.0938 0.94922-1.8984 2.6172-3.332 4.6328-3.9805 2.0195-0.64844 4.2109-0.45703 6.0859 0.53125 15.773 7.9023 28.469 20.832 36.078 36.746 0.92188 1.8906 1.0508 4.0703 0.35938 6.0547-0.69141 1.9883-2.1523 3.6133-4.0508 4.5156-1.8984 0.90234-4.082 1.0078-6.0586 0.29297s-3.5859-2.1914-4.4688-4.0977zm13.941 34.844c-4.3477 0-7.8711-3.5234-7.8711-7.8711 0-2.125-0.10937-4.2109-0.31641-6.2969-0.20703-2.082 0.41797-4.1562 1.7383-5.7734 1.3242-1.6172 3.2344-2.6445 5.3125-2.8516 4.3281-0.43359 8.1875 2.7188 8.625 7.0469 0.25 2.5742 0.38672 5.1875 0.38672 7.832l-0.003906 0.003906c0.011719 2.0938-0.8125 4.1055-2.2891 5.5898-1.4805 1.4844-3.4883 2.3203-5.582 2.3203z"/>
  <path d="m313.41 384.25c-31.316 0-61.352 12.441-83.496 34.586-22.145 22.145-34.586 52.18-34.586 83.496 0 31.316 12.441 61.352 34.586 83.496 22.145 22.141 52.18 34.582 83.496 34.582s61.352-12.441 83.496-34.582c22.145-22.145 34.586-52.18 34.586-83.496-0.035156-31.309-12.488-61.32-34.625-83.457-22.137-22.137-52.152-34.59-83.457-34.625zm0 220.42c-27.141 0-53.172-10.781-72.363-29.973-19.191-19.195-29.973-45.223-29.973-72.363 0-27.141 10.781-53.172 29.973-72.363 19.191-19.191 45.223-29.973 72.363-29.973s53.172 10.781 72.363 29.973c19.191 19.191 29.973 45.223 29.973 72.363-0.03125 27.129-10.824 53.141-30.008 72.328-19.184 19.184-45.195 29.977-72.328 30.008z"/>
  <path d="m620.41 415.74h-15.742v141.7c0 6.2656-2.4883 12.273-6.918 16.699-4.4297 4.4297-10.434 6.918-16.699 6.918h-70.848c-4.3477 0-7.8711-3.5234-7.8711-7.8711v-8.4219l-33.684 23.773 33.684 24.348v-8.2109c0-4.3477 3.5234-7.8711 7.8711-7.8711h70.848c10.434-0.015625 20.441-4.1641 27.82-11.543 7.375-7.3789 11.527-17.383 11.539-27.82z"/>
  <path d="m315.6 211.46-33.684-24.348v8.207c0 2.0898-0.82812 4.0898-2.3047 5.5664-1.4766 1.4766-3.4805 2.3086-5.5664 2.3086h-55.105c-10.434 0.011719-20.438 4.1602-27.816 11.539-7.3789 7.3789-11.531 17.383-11.543 27.82v141.7h15.742v-141.7c0-6.2656 2.4883-12.27 6.918-16.699 4.4297-4.4297 10.438-6.918 16.699-6.918h55.105c2.0859 0 4.0898 0.82812 5.5664 2.3047 1.4766 1.4766 2.3047 3.4805 2.3047 5.5664v8.4219z"/>
  <path d="m568.34 179.58h-69.035l34.52 69.336z"/>
  <path d="m473.88 179.58h-69.039l34.52 69.336z"/>
  <path d="m452.28 258.3h68.629l-34.316-68.926z"/>
  <path d="m449.94 274.05 36.652 122.17 36.652-122.17z"/>
  <path d="m539.68 274.05-35.551 118.5 106.5-118.5z"/>
  <path d="m581.16 189.17-34.414 69.129h68.832z"/>
  <path d="m357.66 258.3h68.785l-34.242-68.785z"/>
  <path d="m433.5 274.05h-70.91l106.29 117.94z"/>
 </g>
</svg>