<?xml version="1.0" encoding="UTF-8"?>
<!-- The Best Svg Icon site in the world: iconSvg.co, Visit us! https://iconsvg.co -->
<svg fill="#000000" width="800px" height="800px" version="1.1" viewBox="144 144 512 512" xmlns="http://www.w3.org/2000/svg">
 <g>
  <path d="m455.2 216.71v210.35h-107.42v-139.28l-147.21 61.602v233.91h398.85v-366.58h-144.22zm20.992 20.992h102.23v324.6h-356.86v-198.93l105.23-44.055v128.74h149.41v-210.35z"/>
  <path d="m495.01 470.82v57.77h57.77v-57.77zm20.992 20.992h15.785v15.785h-15.785z"/>
  <path d="m369.37 470.82v57.77h57.77v-57.77zm20.992 20.992h15.785v15.785h-15.785z"/>
  <path d="m247.23 470.82v57.77h57.77v-57.77zm20.992 20.992h15.785v15.785h-15.785z"/>
  <path d="m247.23 380.85v57.789h57.77v-57.789zm20.992 20.992h15.785v15.805h-15.785z"/>
  <path d="m495.01 380.85v57.789h57.77v-57.789zm20.992 20.992h15.785v15.805h-15.785z"/>
  <path d="m495.01 290.89v57.77h57.77v-57.77zm20.992 20.992h15.785v15.785h-15.785z"/>
 </g>
</svg>