<?xml version="1.0" encoding="UTF-8"?>
<!-- The Best Svg Icon site in the world: iconSvg.co, Visit us! https://iconsvg.co -->
<svg fill="#000000" width="800px" height="800px" version="1.1" viewBox="144 144 512 512" xmlns="http://www.w3.org/2000/svg">
 <g>
  <path d="m416.86 255c0-9.0547-7.3906-16.422-16.469-16.422-9.0898 0-16.484 7.3672-16.484 16.422 0 9.0469 7.3945 16.41 16.484 16.41 9.0781-0.003906 16.469-7.3633 16.469-16.41zm-16.469 3.2578c-1.7695 0-3.2109-1.4609-3.2109-3.2578 0-1.8047 1.4414-3.2734 3.2109-3.2734 1.7617 0 3.1953 1.4688 3.1953 3.2734 0 1.7969-1.4336 3.2578-3.1953 3.2578z"/>
  <path d="m620.4 590.21h-19.68v-29.52c0-5.4336-4.4062-9.8398-9.8398-9.8398h-49.199v-19.68c0-5.4336-4.4062-9.8398-9.8398-9.8398h-29.328l0.5625-29.09c0.10547-5.5078-4.3242-10.012-9.8047-10.031l-58.535-0.19922-22.5-172.5c25.141-5.3594 44.352-27.535 44.352-54.613l64.637-4.707-45.062 105.21h-19.867c-5.4336 0-9.8398 4.4062-9.8398 9.8398 0 48.09 39.156 87.211 87.285 87.211 48.129 0 87.285-39.121 87.285-87.211 0-5.4336-4.4062-9.8398-9.8398-9.8398h-20.613l-38.328-107.47 29.516-2.1484c5.418-0.39453 9.4922-5.1094 9.0977-10.527-0.39453-5.4219-5.1055-9.4922-10.527-9.1016l-32.738 2.3828-0.003906-28.598c0-5.4336-4.4062-9.8398-9.8398-9.8398s-9.8398 4.4062-9.8398 9.8398v30.035l-74.906 5.4531c-8.0039-21.137-28.547-36.219-52.57-36.219-27.891 0-51.094 20.246-55.5 46.703l-72.848 5.9844v-24.406c0-5.4336-4.4062-9.8398-9.8398-9.8398s-9.8398 4.4062-9.8398 9.8398v26.027l-26.414 2.1719c-5.4141 0.44531-9.4453 5.1953-9 10.613 0.44531 5.4258 5.207 9.4492 10.613 9l20.816-1.7109-39.098 109.36-20.617-0.003906c-5.4336 0-9.8398 4.4062-9.8398 9.8398 0 48.543 39.176 89.184 87.395 89.184 47.961 0 88.477-40.84 88.477-89.184 0-5.4336-4.4062-9.8398-9.8398-9.8398h-21.059l-47.816-111.63 69.18-5.6836c4.2656 21.836 21.43 39.156 43.305 43.852l-14.996 172.48h-67.988c-5.4336 0-9.8398 4.4062-9.8398 9.8398v29.52h-29.52c-5.4336 0-9.8398 4.4062-9.8398 9.8398v19.68h-49.199c-5.4336 0-9.8398 4.4062-9.8398 9.8398v29.52h-17.691c-5.4336 0-9.8398 4.4062-9.8398 9.8398 0 5.4336 4.4062 9.8398 9.8398 9.8398h440.81c5.4336 0 9.8398-4.4062 9.8398-9.8398 0-5.4336-4.4062-9.8398-9.8398-9.8398zm-86.668-157.44c-33.934 0-62.105-25.102-66.887-57.691h133.78c-4.7812 32.59-32.957 57.691-66.891 57.691zm-36.168-77.371 39.344-91.855 32.762 91.855zm-105.27 137.7c0.58984-6.793 9.4453-108.64 9.6094-110.52 4.375 33.652 10.477 80.246 14.379 110.57zm-126.04-30.812c-33.457 0-62.184-26.449-67.004-59.66h135.08c-4.8945 33.211-34.082 59.66-68.074 59.66zm-36.035-79.344 32.848-91.879 39.355 91.879zm133.62-127.91c0-19.934 16.41-36.148 36.586-36.148 20.34 0 36.477 16.469 36.477 36.148 0 19.871-16.363 36.043-36.477 36.043-20.172-0.003907-36.586-16.172-36.586-36.043zm-48.488 246.61h59.211c3.3086 6.8945 10.281 11.18 17.777 11.18h23.938c5.918 0 11.723-2.6641 15.605-7.6641 1.3672-1.7969 1.9023-3.0234 2.1562-3.4805l49.156 0.16797-0.375 19.477h-167.47zm-39.359 39.359h246v9.8398h-246zm-59.039 49.199v-19.68h364.08v19.68z"/>
 </g>
</svg>