<?xml version="1.0" encoding="UTF-8"?>
<!-- The Best Svg Icon site in the world: iconSvg.co, Visit us! https://iconsvg.co -->
<svg fill="#000000" width="800px" height="800px" version="1.1" viewBox="144 144 512 512" xmlns="http://www.w3.org/2000/svg">
 <g>
  <path d="m556.08 512.62c-12.977-0.003907-25.426 5.1523-34.602 14.324-9.1758 9.1758-14.332 21.621-14.332 34.598-0.003907 12.977 5.1523 25.422 14.328 34.598 9.1758 9.1758 21.621 14.332 34.598 14.332 12.977-0.003906 25.422-5.1602 34.598-14.336 9.1719-9.1758 14.328-21.625 14.324-34.602-0.015625-12.969-5.1758-25.398-14.344-34.57-9.1719-9.168-21.602-14.328-34.57-14.344zm0 88.805v0.003906c-10.582 0-20.727-4.2031-28.207-11.688-7.4844-7.4805-11.684-17.625-11.684-28.207 0-10.578 4.1992-20.727 11.684-28.207 7.4805-7.4805 17.625-11.684 28.207-11.684 10.578 0 20.727 4.2031 28.207 11.684 7.4805 7.4805 11.684 17.629 11.684 28.207-0.011718 10.578-4.2148 20.719-11.695 28.195-7.4805 7.4805-17.621 11.688-28.195 11.699z"/>
  <path d="m546.55 441.05c-0.011719-13.387-6.8945-25.828-18.223-32.953h72.305-0.003906c2.4961 0 4.5195-2.0234 4.5195-4.5156 0-2.4961-2.0234-4.5195-4.5195-4.5195h-246.88v-51c156.84-5.0391 162.36-152.09 162.44-153.58 0.03125-1.1992-0.41797-2.3594-1.2422-3.2266-0.82422-0.86719-1.9609-1.3711-3.1562-1.3984-0.28516-0.023438-0.56641-0.023438-0.84766 0-0.44141-0.17188-0.90625-0.27734-1.3789-0.30469-1.4453-0.070312-135.7-5.0391-162.28 130.54-43.719-96.227-143.42-69.582-144.48-69.285-0.39844 0.11328-0.77734 0.28516-1.1211 0.51172-0.15234 0.023438-0.30469 0.054688-0.45312 0.097656-2.4102 0.62109-3.8672 3.0742-3.2578 5.4922 0.26562 0.98438 24.453 91.258 117.39 91.258v-0.003906c9.7344-0.039062 19.445-0.94922 29.02-2.7148 0.058594 0.13672 0.11719 0.26563 0.1875 0.39453 0.058594 0.10156 0.125 0.19922 0.19531 0.29297v52.961h-145.39c-2.4961 0-4.5156 2.0234-4.5156 4.5156 0 2.4961 2.0195 4.5156 4.5156 4.5156h107.5c-29.25 13.043-50.867 38.832-58.605 69.91-7.7344 31.078-0.73047 63.988 18.992 89.227 19.723 25.234 49.969 39.98 81.996 39.98s62.273-14.746 81.996-39.98c19.723-25.238 26.727-58.148 18.988-89.227-7.7344-31.078-29.352-56.867-58.605-69.91h95.242c-11.664 7.3398-18.578 20.293-18.188 34.066 0.39062 13.773 8.0352 26.316 20.098 32.977 12.062 6.6641 26.746 6.4531 38.613-0.55078 11.867-7.0039 19.148-19.758 19.148-33.535zm-39.625-242.52c-1.8633 23.535-17.379 132.22-146.29 140.17l100.69-91.07 0.003906 0.003907c1.8477-1.6719 1.9922-4.5234 0.32031-6.3711s-4.5234-1.9922-6.3711-0.32031l-100.9 91.207c18.965-130.29 134.44-133.88 152.54-133.62zm-298.97 60.289c16.234-3.6914 97.77-17.297 133.63 70.848l-88.512-49.625c-2.1602-1.1094-4.8125-0.3125-6.0039 1.8086-1.1875 2.1172-0.48828 4.8008 1.5859 6.0664l88.312 49.516c-92.66 13.586-122.85-59.789-129.01-78.613zm236.33 244.31c0 25.203-10.012 49.375-27.832 67.199-17.824 17.82-41.996 27.836-67.203 27.836-25.203 0-49.375-10.016-67.199-27.836-17.82-17.824-27.836-41.996-27.836-67.199 0-25.207 10.016-49.379 27.836-67.199 17.824-17.824 41.996-27.836 67.199-27.836 25.195 0.03125 49.352 10.055 67.168 27.867 17.816 17.816 27.836 41.973 27.867 67.168zm33.387-62.082c0-7.9375 3.1484-15.551 8.7617-21.164 5.6094-5.6133 13.219-8.7656 21.156-8.7695 7.9375 0 15.551 3.1484 21.164 8.7617 5.6133 5.6094 8.7656 13.223 8.7656 21.16 0.003906 7.9375-3.1484 15.547-8.7617 21.16s-13.223 8.7656-21.16 8.7656c-7.9297-0.011719-15.535-3.1641-21.141-8.7734-5.6094-5.6055-8.7617-13.211-8.7734-21.141z"/>
  <path d="m345.52 559.41v8.3828c0 2.4961 2.0234 4.5195 4.5156 4.5195 2.4961 0 4.5195-2.0234 4.5195-4.5195v-8.3828c11.344-1.5625 21.113-8.7969 25.922-19.195 4.8047-10.395 3.9844-22.523-2.1719-32.18-6.1602-9.6562-16.812-15.512-28.27-15.535-4.9062 0-9.6094-1.9492-13.078-5.418-3.4688-3.4727-5.418-8.1758-5.418-13.082s1.9492-9.6133 5.418-13.082 8.1719-5.418 13.078-5.418 9.6133 1.9492 13.082 5.418 5.418 8.1758 5.418 13.082c-0.058593 1.2344 0.39453 2.4336 1.2461 3.3281 0.85156 0.89453 2.0312 1.3984 3.2656 1.3984s2.4141-0.50391 3.2695-1.3984c0.85156-0.89453 1.3008-2.0938 1.2422-3.3281-0.007812-6.5117-2.3242-12.812-6.5352-17.781-4.2109-4.9688-10.047-8.2852-16.469-9.3594v-8.4531c0-2.4922-2.0234-4.5156-4.5195-4.5156-2.4922 0-4.5156 2.0234-4.5156 4.5156v8.4531c-9.0664 1.6406-16.711 7.7031-20.375 16.156-3.6641 8.4531-2.8594 18.176 2.1406 25.914 5.0039 7.7383 13.539 12.461 22.75 12.594 6.5273 0 12.781 2.5898 17.398 7.2031 4.6133 4.6133 7.2031 10.871 7.2031 17.395 0 6.5234-2.5898 12.781-7.2031 17.395-4.6172 4.6133-10.871 7.207-17.398 7.207-6.5234 0-12.781-2.5938-17.395-7.207s-7.2031-10.871-7.2031-17.395c0.058594-1.2305-0.39453-2.4336-1.2461-3.3281-0.85156-0.89453-2.0312-1.3984-3.2656-1.3984-1.2344 0-2.4141 0.50391-3.2695 1.3984-0.85156 0.89453-1.3008 2.0977-1.2422 3.3281 0.015625 8.1289 2.9688 15.977 8.3203 22.094 5.3516 6.1211 12.734 10.098 20.785 11.195z"/>
 </g>
</svg>