<?xml version="1.0" encoding="UTF-8"?>
<!-- The Best Svg Icon site in the world: iconSvg.co, Visit us! https://iconsvg.co -->
<svg fill="#000000" width="800px" height="800px" version="1.1" viewBox="144 144 512 512" xmlns="http://www.w3.org/2000/svg">
 <g>
  <path d="m574.82 343.88c-14.887 0-29.16 5.9102-39.688 16.438-10.527 10.523-16.438 24.801-16.441 39.684 0 14.887 5.9141 29.16 16.438 39.688 10.527 10.523 24.801 16.438 39.688 16.438 14.883 0 29.16-5.9102 39.684-16.438 10.527-10.523 16.441-24.801 16.441-39.684-0.019531-14.879-5.9375-29.145-16.457-39.668-10.52-10.52-24.785-16.441-39.664-16.457zm0 52.273c7.2188 0 13.98 3.5469 18.078 9.4883 4.1016 5.9453 5.0195 13.523 2.457 20.273s-8.2773 11.809-15.289 13.535v3.8477c0 3.2617-2.6406 5.9062-5.9023 5.9062s-5.9062-2.6445-5.9062-5.9062v-4.2148 0.003906c-4.4609-1.4023-8.3633-4.1914-11.133-7.9648-2.7695-3.7695-4.2656-8.3242-4.2734-13.004 0-3.2578 2.6445-5.9023 5.9062-5.9023 3.2578 0 5.9023 2.6445 5.9023 5.9023 0 4.1094 2.4766 7.8164 6.2734 9.3867 3.793 1.5742 8.1641 0.70312 11.07-2.2031 2.9062-2.9023 3.7734-7.2734 2.1992-11.07-1.5703-3.7969-5.2734-6.2695-9.3828-6.2695-7.0586-0.003906-13.688-3.3945-17.816-9.1211-4.1289-5.7266-5.2539-13.09-3.0234-19.789 2.2305-6.6953 7.543-11.914 14.277-14.023v-4.3867c0-3.2578 2.6445-5.9023 5.9062-5.9023s5.9023 2.6445 5.9023 5.9023v4.0234c4.7695 1.1797 9.0039 3.918 12.035 7.7852 3.0273 3.8633 4.6797 8.6328 4.6836 13.543 0 3.2617-2.6406 5.9023-5.9023 5.9023s-5.9062-2.6406-5.9062-5.9023c0-4.1094-2.4727-7.8125-6.2695-9.3867-3.7969-1.5703-8.168-0.69922-11.07 2.2031-2.9062 2.9062-3.7734 7.2773-2.2031 11.074 1.5742 3.793 5.2773 6.2695 9.3867 6.2695z"/>
  <path d="m533.65 303.16c14.887 0 29.16-5.9102 39.688-16.438 10.523-10.523 16.438-24.801 16.434-39.684 0-14.887-5.9102-29.16-16.438-39.684-10.523-10.527-24.801-16.438-39.684-16.438-14.883 0-29.16 5.9102-39.684 16.438-10.527 10.523-16.438 24.801-16.438 39.684 0.015625 14.879 5.9336 29.145 16.457 39.668 10.52 10.52 24.785 16.438 39.664 16.453zm0-48.164c-7.0391 0-13.652-3.375-17.785-9.0742-4.1289-5.7031-5.2773-13.039-3.0898-19.727 2.1914-6.6914 7.457-11.93 14.16-14.082v-3.9961c0-3.2617 2.6445-5.9023 5.9062-5.9023 3.2617 0 5.9023 2.6406 5.9023 5.9023v3.543c4.8047 1.1523 9.0781 3.8828 12.141 7.7578 3.0586 3.875 4.7266 8.668 4.7344 13.605 0 3.2617-2.6445 5.9062-5.9062 5.9062-3.2578 0-5.9023-2.6445-5.9023-5.9062 0-4.1094-2.4766-7.8125-6.2734-9.3867-3.7969-1.5703-8.1641-0.70312-11.07 2.2031s-3.7734 7.2773-2.2031 11.074c1.5742 3.7969 5.2773 6.2695 9.3867 6.2695 7.2422-0.003906 14.023 3.5625 18.121 9.5312 4.1016 5.9688 4.9961 13.578 2.3906 20.336-2.6055 6.7578-8.3711 11.797-15.418 13.469v4.2539c0 3.2617-2.6406 5.9062-5.9023 5.9062-3.2617 0-5.9062-2.6445-5.9062-5.9062v-4.7031c-4.4258-1.4258-8.2852-4.2188-11.027-7.9766-2.7383-3.7578-4.2188-8.2891-4.2227-12.938 0-3.2617 2.6406-5.9062 5.9023-5.9062 3.2617 0 5.9062 2.6445 5.9062 5.9062 0 4.1094 2.4727 7.8125 6.2695 9.3867s8.168 0.70312 11.074-2.2031 3.7734-7.2734 2.2031-11.07c-1.5742-3.7969-5.2773-6.2734-9.3867-6.2734z"/>
  <path d="m589.77 552.96c0-14.883-5.9141-29.16-16.438-39.684-10.527-10.527-24.801-16.441-39.688-16.441-14.883 0-29.16 5.9141-39.684 16.438-10.527 10.527-16.441 24.801-16.441 39.688s5.9141 29.16 16.441 39.688c10.523 10.523 24.801 16.438 39.684 16.438 14.879-0.019531 29.145-5.9375 39.668-16.457 10.52-10.523 16.438-24.789 16.457-39.668zm-62.84 43.844v-4.8125c-4.4258-1.4258-8.2852-4.2188-11.023-7.9766-2.7422-3.7578-4.2227-8.2852-4.2266-12.938 0-3.2617 2.6406-5.9023 5.9023-5.9023 3.2617 0 5.9062 2.6406 5.9062 5.9023 0.007812 5.0117 3.668 9.2695 8.6211 10.031 0.67969-0.09375 1.375-0.058594 2.0469 0.10156 5.5-0.27344 9.7773-4.8867 9.6367-10.391-0.13672-5.5078-4.6367-9.8984-10.145-9.9023-7.043 0-13.656-3.375-17.789-9.0742-4.1289-5.6992-5.2812-13.035-3.0898-19.727 2.1914-6.6914 7.457-11.926 14.16-14.078v-4.875c0-3.2617 2.6445-5.9062 5.9062-5.9062 3.2617 0 5.9023 2.6445 5.9023 5.9062v4.4297-0.003906c4.8047 1.1523 9.0781 3.8828 12.141 7.7617 3.0586 3.875 4.7266 8.6641 4.7344 13.605 0 3.2578-2.6445 5.9023-5.9062 5.9023-3.2578 0-5.9023-2.6445-5.9023-5.9023 0-4.1094-2.4766-7.8164-6.2734-9.3867-3.7969-1.5742-8.1641-0.70312-11.07 2.2031-2.9062 2.9023-3.7734 7.2734-2.2031 11.07 1.5742 3.7969 5.2773 6.2734 9.3867 6.2734 7.2344 0.003907 14.004 3.5703 18.098 9.5352 4.0938 5.9648 4.9883 13.562 2.3867 20.316-2.5977 6.7539-8.3516 11.793-15.391 13.473v4.3633c0 3.2578-2.6406 5.9023-5.9023 5.9023-3.2617 0-5.9062-2.6445-5.9062-5.9023z"/>
  <path d="m182.83 434.44h10.531v-67.895h-10.531c-7.5938 0-14.07 5.6875-14.07 13.285v40.344c0 7.5938 6.4727 14.266 14.07 14.266z"/>
  <path d="m272.3 463.46c1 0 1.9805 0.26953 2.8398 0.77344l122.89 23.07v-174.62l-145.63 27.305v120.01l18.945 3.5312c0.31641-0.042968 0.63281-0.066406 0.95312-0.070312z"/>
  <path d="m231.73 568.26h34.441v-93.66l-19.938-3.7539h-14.504z"/>
  <path d="m222.19 459.04h18.402v-118.08h-18.402c-4.4688 0.003907-8.7578 1.7617-11.941 4.8984-3.1875 3.1367-5.0117 7.4023-5.082 11.871v84.543c0.070313 4.4688 1.8945 8.7344 5.082 11.871 3.1836 3.1367 7.4727 4.8945 11.941 4.8984z"/>
  <path d="m493.48 400c0-3.2617-2.6445-5.9062-5.9062-5.9062h-48.215c-3.2617 0-5.9062 2.6445-5.9062 5.9062 0 3.2578 2.6445 5.9023 5.9062 5.9023h48.215c3.2617 0 5.9062-2.6445 5.9062-5.9023z"/>
  <path d="m427.85 356.7c0.85547 0 1.707-0.1875 2.4844-0.55469l42.312-19.68c1.4336-0.64844 2.5469-1.8477 3.0938-3.3242 0.54688-1.4766 0.48047-3.1133-0.18359-4.5391-0.66406-1.4297-1.8711-2.5312-3.3516-3.0664-1.4844-0.53125-3.1172-0.45312-4.5391 0.22656l-42.312 19.68c-2.5117 1.168-3.875 3.9258-3.2734 6.6289 0.59766 2.707 2.9961 4.6289 5.7695 4.6289z"/>
  <path d="m425.35 454.55 42.312 19.68c1.4219 0.67969 3.0586 0.75781 4.5391 0.22656 1.4805-0.53516 2.6914-1.6367 3.3555-3.0664 0.66406-1.4258 0.73047-3.0625 0.18359-4.5391-0.54688-1.4766-1.6641-2.6758-3.0977-3.3242l-42.312-19.68v-0.003906c-1.4219-0.67578-3.0547-0.75781-4.5352-0.22266-1.4844 0.53125-2.6914 1.6367-3.3555 3.0664-0.66406 1.4258-0.73047 3.0625-0.18359 4.5391 0.54688 1.4766 1.6602 2.6719 3.0938 3.3242z"/>
 </g>
</svg>