<?xml version="1.0" encoding="UTF-8"?>
<!-- The Best Svg Icon site in the world: iconSvg.co, Visit us! https://iconsvg.co -->
<svg width="800px" height="800px" version="1.1" viewBox="144 144 512 512" xmlns="http://www.w3.org/2000/svg">
 <defs>
  <clipPath id="b">
   <path d="m195 447h410v204.9h-410z"/>
  </clipPath>
  <clipPath id="a">
   <path d="m258 148.09h284v283.91h-284z"/>
  </clipPath>
 </defs>
 <g clip-path="url(#b)">
  <path d="m573.18 651.9h-346.37c-8.3477-0.007813-16.352-3.3281-22.254-9.2305-5.9023-5.9062-9.2227-13.91-9.2344-22.258v-15.742c0.050781-41.742 16.652-81.762 46.168-111.28 29.516-29.516 69.531-46.117 111.27-46.164h94.465c41.742 0.046875 81.758 16.648 111.27 46.164s46.121 69.535 46.168 111.28v15.742c-0.011719 8.3477-3.332 16.352-9.2344 22.258-5.9023 5.9023-13.906 9.2227-22.254 9.2305zm-220.42-173.18c-33.391 0.039062-65.406 13.32-89.02 36.934-23.613 23.613-36.895 55.625-36.934 89.02v15.742h346.39l-0.023437-15.742c-0.039063-33.395-13.32-65.406-36.934-89.02-23.613-23.613-55.625-36.895-89.02-36.934z"/>
 </g>
 <g clip-path="url(#a)">
  <path d="m400 431.49c-37.582 0-73.621-14.93-100.2-41.504-26.574-26.574-41.504-62.613-41.504-100.2 0-37.578 14.93-73.621 41.504-100.2 26.574-26.57 62.613-41.5 100.2-41.5 37.578 0 73.621 14.93 100.19 41.5 26.574 26.574 41.504 62.617 41.504 100.2-0.042968 37.57-14.984 73.586-41.547 100.15-26.566 26.566-62.582 41.508-100.15 41.551zm0-251.91c-29.23 0-57.262 11.609-77.93 32.277-20.668 20.668-32.281 48.703-32.281 77.93 0 29.23 11.613 57.262 32.281 77.93 20.668 20.668 48.699 32.281 77.93 32.281 29.227 0 57.258-11.613 77.926-32.281s32.281-48.699 32.281-77.93c-0.035156-29.219-11.656-57.23-32.316-77.891-20.66-20.66-48.672-32.281-77.891-32.316z"/>
 </g>
 <path d="m408.99 359.52h-44.977c-5.625 0-10.824-3-13.637-7.8711-2.8125-4.8711-2.8125-10.875 0-15.746 2.8125-4.8711 8.0117-7.8711 13.637-7.8711h44.98-0.003906c6.1602-0.074219 11.117-5.0859 11.117-11.246s-4.957-11.176-11.117-11.246h-17.988c-15.207-0.09375-29.219-8.2578-36.793-21.441-7.5781-13.188-7.5781-29.402 0-42.586 7.5742-13.188 21.586-21.352 36.793-21.441h44.98c5.625 0 10.82 3 13.633 7.8711s2.8125 10.871 0 15.742c-2.8125 4.8711-8.0078 7.8711-13.633 7.8711h-44.98c-6.1602 0.074219-11.113 5.0898-11.113 11.25 0 6.1602 4.9531 11.172 11.113 11.246h17.988c15.207 0.089844 29.219 8.2578 36.793 21.441 7.5781 13.184 7.5781 29.402 0 42.586-7.5742 13.184-21.586 21.348-36.793 21.441z"/>
 <path d="m400 251.55c-4.1758 0-8.1797-1.6562-11.133-4.6094-2.9531-2.9531-4.6133-6.957-4.6133-11.133v-17.988c0-5.625 3-10.824 7.8711-13.637s10.875-2.8125 15.746 0 7.8711 8.0117 7.8711 13.637v17.988c0 4.1758-1.6602 8.1797-4.6094 11.133-2.9531 2.9531-6.957 4.6094-11.133 4.6094z"/>
 <path d="m400 377.5c-4.1758 0-8.1797-1.6562-11.133-4.6094-2.9531-2.9531-4.6133-6.957-4.6133-11.133v-17.988c0-5.625 3-10.824 7.8711-13.637s10.875-2.8125 15.746 0 7.8711 8.0117 7.8711 13.637v17.988c0 4.1758-1.6602 8.1797-4.6094 11.133-2.9531 2.9531-6.957 4.6094-11.133 4.6094z"/>
 <path d="m400 573.66c-4.2031 0.007812-8.2305-1.6719-11.18-4.6602l-88.168-88.805c-3.0781-2.9336-4.8398-6.9883-4.8828-11.238-0.042969-4.2539 1.6367-8.3398 4.6523-11.336 3.0195-2.9961 7.1211-4.6406 11.371-4.5664s8.293 1.8672 11.203 4.9688l88.168 88.809-0.003906-0.003906c2.9336 2.9609 4.5742 6.9609 4.5664 11.125-0.011718 4.168-1.6719 8.1602-4.6211 11.102-2.9453 2.9453-6.9414 4.6016-11.105 4.6055z"/>
 <path d="m400 573.66c-4.168 0-8.168-1.6523-11.117-4.5977-2.9531-2.9414-4.6133-6.9375-4.625-11.102-0.011718-4.168 1.6289-8.1719 4.5625-11.133l88.168-88.809v0.003906c2.9102-3.1016 6.9492-4.8945 11.199-4.9688s8.3516 1.5703 11.371 4.5664c3.0156 2.9961 4.6953 7.082 4.6523 11.336-0.042969 4.25-1.8047 8.3047-4.8828 11.238l-88.168 88.805c-2.9453 2.9844-6.9688 4.6641-11.16 4.6602z"/>
</svg>