<?xml version="1.0" encoding="UTF-8"?>
<!-- The Best Svg Icon site in the world: iconSvg.co, Visit us! https://iconsvg.co -->
<svg fill="#000000" width="800px" height="800px" version="1.1" viewBox="144 144 512 512" xmlns="http://www.w3.org/2000/svg">
 <g>
  <path d="m555.99 241.97c-0.1875-0.25391-0.74609-0.66797-1.6641-1.2383-0.92188-0.57031-2.0938-1.1914-3.5234-1.8555-1.4297-0.66797-3.0156-1.3008-4.7617-1.9062-1.7461-0.60156-3.5078-1.0312-5.2852-1.2852v12.949l3.0469 0.76172c3.2383 0.88672 6.1562 1.8555 8.7578 2.9023s4.8086 2.3516 6.6172 3.9062c1.8125 1.5547 3.207 3.4453 4.1914 5.6641 0.98438 2.2227 1.4766 4.8867 1.4766 7.9961 0 3.6211-0.63672 6.6992-1.9062 9.2383-1.2695 2.5391-2.9648 4.6172-5.0938 6.2383-2.125 1.6172-4.5703 2.8438-7.332 3.6641-2.7617 0.82422-5.668 1.3008-8.7148 1.4297v11.047h-6.5703v-11.141c-4.3789-0.37891-8.7109-1.2695-12.996-2.668-4.2852-1.3945-8.1445-3.2383-11.57-5.5234l6.8555-13.617c0.25391 0.31641 0.9375 0.83984 2.0469 1.5703s2.5234 1.4922 4.2383 2.2852c1.7148 0.79688 3.6523 1.5547 5.8086 2.2852s4.3789 1.2539 6.668 1.5703v-12.664l-4.5742-1.332c-3.1094-0.95312-5.8086-1.9844-8.0938-3.0938-2.2852-1.1094-4.1758-2.3945-5.668-3.8555-1.4922-1.4609-2.6055-3.1406-3.332-5.0469-0.73047-1.9023-1.0938-4.125-1.0938-6.6641 0-3.3008 0.57031-6.2383 1.7148-8.8086 1.1406-2.5703 2.6797-4.7734 4.6172-6.6172 1.9336-1.8398 4.2188-3.2852 6.8555-4.332 2.6328-1.0469 5.4727-1.7305 8.5195-2.0469v-9.6172h6.5703v9.6172c4.125 0.37891 7.9961 1.3008 11.617 2.7617 3.6172 1.4609 6.7617 2.9531 9.4258 4.4766zm-26.375-0.85938c0 1.5859 0.55469 2.8438 1.6641 3.7617 1.1094 0.92188 2.7773 1.7305 5 2.4297l0.003906-11.715c-4.4453 0.38281-6.668 2.2227-6.668 5.5234zm18.473 30.281c0-1.6484-0.66797-2.9336-2-3.8555-1.332-0.92187-3.1094-1.7617-5.332-2.5234v11.426c4.8906-0.1875 7.332-1.8711 7.332-5.0469z"/>
  <path d="m265.6 528.38c-0.16406-0.21875-0.64062-0.57031-1.4297-1.0625-0.78906-0.48828-1.7969-1.0195-3.0195-1.5898-1.2227-0.57031-2.5859-1.1133-4.082-1.6328-1.4961-0.51562-3.0078-0.88281-4.5312-1.1016v11.098l2.6133 0.65234c2.7734 0.76172 5.2773 1.5898 7.5078 2.4883 2.2305 0.89844 4.1211 2.0117 5.6719 3.3438 1.5508 1.332 2.7461 2.9531 3.5898 4.8555 0.84375 1.9062 1.2656 4.1914 1.2656 6.8555 0 3.1016-0.54688 5.7422-1.6328 7.918-1.0859 2.1758-2.543 3.957-4.3672 5.3477-1.8242 1.3867-3.918 2.4375-6.2852 3.1406-2.3672 0.70703-4.8555 1.1133-7.4688 1.2227v9.4688h-5.6328v-9.5469c-3.7539-0.32812-7.4688-1.0859-11.141-2.2852-3.6719-1.1953-6.9805-2.7734-9.918-4.7344l5.875-11.672c0.21875 0.27344 0.80469 0.72266 1.7539 1.3438 0.95312 0.625 2.1641 1.2812 3.6328 1.9609 1.4688 0.67969 3.1289 1.332 4.9805 1.957 1.8477 0.625 3.7539 1.0742 5.7148 1.3477l0.007813-10.852-3.918-1.1406c-2.668-0.81641-4.9805-1.7031-6.9375-2.6523-1.9609-0.95312-3.5781-2.0508-4.8555-3.3047-1.2773-1.25-2.2305-2.6914-2.8555-4.3242-0.625-1.6328-0.9375-3.5352-0.9375-5.7148 0-2.8281 0.48828-5.3477 1.4688-7.5508 0.98047-2.2031 2.2969-4.0938 3.957-5.6719 1.6562-1.5781 3.6172-2.8164 5.875-3.7109 2.2578-0.89844 4.6914-1.4844 7.3047-1.7539v-8.2461h5.6328v8.2422c3.5352 0.32813 6.8555 1.1172 9.957 2.3672 3.1016 1.25 5.793 2.5273 8.082 3.8359zm-22.605-0.73828c0 1.3594 0.47656 2.4375 1.4297 3.2227 0.95312 0.78906 2.3789 1.4844 4.2852 2.082v-10.039c-3.8125 0.32812-5.7148 1.9062-5.7148 4.7344zm15.832 25.957c0-1.4141-0.57031-2.5156-1.7148-3.3047-1.1445-0.78906-2.668-1.5117-4.5703-2.1641v9.793c4.1914-0.16406 6.2852-1.6055 6.2852-4.3242z"/>
  <path d="m597.78 417.22h-403.44c-3.8047 0-6.8867-3.082-6.8867-6.8867 0-3.8047 3.082-6.8867 6.8867-6.8867h403.44c3.8047 0 6.8867 3.082 6.8867 6.8867 0 3.8008-3.0859 6.8867-6.8906 6.8867z"/>
  <path d="m301.41 516.14c-2.2578 0-4.418-1.1133-5.7148-3.043-9.7266-14.441-25.91-23.066-43.293-23.066-12.418 0-24.453 4.4492-33.895 12.535-1.625 1.3906-3.8086 1.9492-5.9023 1.5078s-3.8633-1.832-4.7891-3.7656c-13.508-28.215-20.359-58.488-20.359-89.98 0-31.391 6.8086-61.574 20.234-89.715 1.0391-2.1758 3.1445-3.6523 5.543-3.8906 2.3984-0.23047 4.75 0.80469 6.1953 2.7383 9.0195 12.098 22.832 19.035 37.891 19.035 18.902 0 35.945-11.227 43.41-28.605 1.293-3.0078 4.5234-4.6875 7.7227-4.0273l1.8047 0.37109c1.8672 0.37891 3.4922 1.5156 4.4922 3.1367s1.2812 3.5859 0.78125 5.4219c-7.9141 29.055-12.098 62.09-12.098 95.531 0 33.438 4.1836 66.473 12.098 95.531 0.5 1.8398 0.21875 3.8047-0.78516 5.4258-1 1.6211-2.6289 2.7578-4.4961 3.1367-2.5312 0.51172-5.0039 1.0352-7.3516 1.5586-0.49219 0.10938-0.99609 0.16406-1.4883 0.16406zm-49.008-39.887c17.535 0 34.102 6.9375 46.324 19.016-5.9492-26.562-9.0625-55.625-9.0625-84.941 0-24.602 2.1914-49.02 6.4102-71.93-10.699 8.793-24.305 13.871-38.754 13.871-15.398 0-30.234-5.9297-41.422-16.238-9.7344 23.531-14.664 48.473-14.664 74.297 0 26.594 5.2266 52.254 15.547 76.395 10.574-6.7969 22.941-10.469 35.621-10.469z"/>
  <path d="m554.46 542.12c-1.4922 0-3-0.48438-4.2617-1.4805-2.1055-1.6602-2.9805-4.3008-2.4883-6.7617-20.672-8.2617-42.777-14.801-65.832-19.461-1.8672-0.37891-3.4961-1.5117-4.4961-3.1367-1-1.6211-1.2852-3.5859-0.78516-5.4258 7.9141-29.055 12.098-62.09 12.098-95.531 0-33.438-4.1836-66.473-12.098-95.531-0.5-1.8398-0.21875-3.8047 0.78516-5.4258 1-1.6211 2.6289-2.7578 4.4961-3.1367 3.707-0.75 7.4766-1.5664 11.203-2.4297 2.0586-0.47656 4.2266 0.015624 5.875 1.3438 11.117 8.9453 24.535 13.672 38.809 13.672 11.57 0 22.867-3.2188 32.664-9.3086 1.6172-1.0078 3.582-1.2969 5.418-0.80469 1.8398 0.49219 3.3945 1.7266 4.293 3.4062 16.051 30.023 24.535 63.984 24.535 98.219 0 47.383-15.492 92.047-44.793 129.17 0 0.003906-0.003906 0.003906-0.003906 0.007812-0.003906 0.003907-0.003906 0.003907-0.003906 0.003907-1.3633 1.7188-3.375 2.6133-5.4141 2.6133zm-62.738-39.703c22.332 4.918 43.766 11.559 63.871 19.793 23.137-32.836 35.305-71.293 35.305-111.88 0-29.629-6.8047-59.039-19.727-85.5-10.355 5.0938-21.77 7.7617-33.41 7.7617-16.062 0-31.824-5.1797-44.75-14.645-0.42969 0.097656-0.85937 0.19141-1.2891 0.28516 7.0391 28.449 10.746 60.121 10.746 92.094 0 31.977-3.7031 63.648-10.746 92.094z"/>
  <path d="m308.89 319.88c-0.45312 0-0.91797-0.046875-1.3789-0.14062l-0.015625-0.003906h-0.003906l-1.8398-0.375c-2.0234-0.42188-3.7539-1.7266-4.7109-3.5625-0.95703-1.8359-1.0352-4-0.21875-5.9023 2.5352-5.8945 3.8203-12.164 3.8203-18.629 0-17.496-9.6094-33.48-25.078-41.719-2.1328-1.1328-3.5117-3.3008-3.6406-5.7109-0.12891-2.4102 1.0117-4.7148 3.0117-6.0664l0.4375-0.30078c0.23828-0.16797 0.47656-0.33203 0.72266-0.49609l0.99219-0.65234c1.2266-0.8125 2.4609-1.6172 3.707-2.4023 0.375-0.23828 0.75-0.46875 1.125-0.70312l0.26953-0.16797c25.941-16.125 55.703-26.484 86.066-29.953 8.2109-0.9375 16.469-1.1992 23.562-1.3711 3.7695-0.085937 6.8828 2.8359 7.0469 6.5859 0.16406 3.75-2.7031 6.9375-6.4453 7.1758-15.379 0.97266-28.723 7.5703-40.797 20.176-8.4336 8.8047-15.883 19.711-22.781 33.348-3.4023 6.7227-6.5898 14.035-9.4805 21.734-0.67969 1.8125-6.8086 20.66-7.6055 23.52-0.007812 0.035156-0.015625 0.070312-0.019531 0.10938-0.66797 3.2578-3.543 5.5078-6.7461 5.5078zm-13.566-76.336c9.6094 7.6445 16.633 17.961 20.246 29.57 1.5703-3.5586 3.1992-7.0078 4.8789-10.324 7.5234-14.867 15.742-26.855 25.129-36.656 1.8281-1.9102 3.6953-3.707 5.6016-5.3945-19.652 4.6523-38.621 12.379-55.855 22.805z"/>
  <path d="m483.23 319.88c-3.0469 0-5.8086-2.0312-6.6406-5.0781-16.684-61.254-47.539-99.305-80.531-99.305-3.8047 0-6.8867-3.082-6.8867-6.8867s3.082-6.8867 6.8867-6.8867c28.75 0 57.512 5.9766 83.184 17.277 1.6953 0.74609 3.0156 2.1406 3.668 3.875 0.65625 1.7305 0.58203 3.6523-0.19922 5.332-4.6758 10.066-6.9492 19.43-6.9492 28.617 0 18.859 8.4492 36.473 23.18 48.324 2.0547 1.6523 2.9844 4.332 2.3984 6.9023-0.58984 2.5703-2.5898 4.5781-5.1602 5.1758-3.8594 0.89453-7.7578 1.7422-11.582 2.5156-0.45703 0.089843-0.91406 0.13672-1.3672 0.13672zm-42.297-99.18c4.0508 3.6328 7.9766 7.7734 11.77 12.406 3.4648 4.2383 6.7969 8.8672 9.9766 13.852 0.82812-5.9023 2.4023-11.859 4.7422-17.969-8.5469-3.3867-17.414-6.1602-26.488-8.2891z"/>
  <path d="m396.06 618.94c-3.8047 0-6.8867-3.082-6.8867-6.8867 0-3.8047 3.082-6.8867 6.8867-6.8867 32.992 0 63.848-38.051 80.531-99.301 0.95312-3.5 4.4531-5.6602 8.0117-4.9414 26.809 5.4219 52.402 13.301 76.066 23.422 1.9414 0.82812 3.3945 2.5039 3.9414 4.5391 0.55078 2.0352 0.13672 4.2148-1.125 5.9062-4.543 6.1016-9.5195 12.043-14.785 17.652-37.688 40.145-90.465 64.324-144.8 66.336l-0.62109 0.023437c-0.42188 0.019531-0.84375 0.035157-1.2656 0.046875-2.1445 0.0625-4.0898 0.089844-5.957 0.089844zm92.047-103.2c-8.6445 29.262-20.824 54-35.402 71.824-3.7188 4.5469-7.5781 8.6211-11.551 12.207 36.855-8.9297 71.125-28.656 97.504-56.754 2.8633-3.0508 5.6328-6.2031 8.2852-9.4297-18.578-7.375-38.305-13.359-58.836-17.848z"/>
  <path d="m396.06 328.46c-30.129 0-59.918-2.9336-88.543-8.7188-1.8672-0.37891-3.4961-1.5117-4.4961-3.1367-1-1.6211-1.2852-3.5859-0.78516-5.4258 8.7148-31.996 21.57-58.996 37.176-78.074 16.797-20.531 36.387-31.383 56.648-31.383 20.266 0 39.852 10.852 56.645 31.383 15.605 19.082 28.465 46.078 37.176 78.074 0.5 1.8398 0.21875 3.8047-0.78516 5.4258-1 1.6211-2.6289 2.7578-4.4961 3.1367-28.621 5.7852-58.41 8.7188-88.539 8.7188zm-78.488-20.812c25.473 4.6719 51.836 7.0352 78.488 7.0352s53.016-2.3633 78.488-7.0352c-17.082-57.051-46.801-92.152-78.488-92.152-31.691 0-61.41 35.102-78.488 92.152z"/>
  <path d="m396.06 618.94c-20.262 0-39.852-10.852-56.645-31.383-15.609-19.082-28.465-46.078-37.176-78.078-0.5-1.8398-0.21875-3.8047 0.78516-5.4258 1-1.6211 2.6289-2.7578 4.4961-3.1367 28.621-5.7852 58.414-8.7188 88.543-8.7188s59.918 2.9336 88.539 8.7188c1.8672 0.37891 3.4961 1.5117 4.4961 3.1367 1 1.6211 1.2852 3.5859 0.78516 5.4258-8.7148 31.996-21.57 58.992-37.176 78.074-16.797 20.535-36.383 31.387-56.648 31.387zm-78.488-105.93c17.078 57.051 46.797 92.152 78.488 92.152 31.688 0 61.406-35.102 78.488-92.152-25.473-4.6719-51.836-7.0352-78.488-7.0352s-53.016 2.3633-78.488 7.0352z"/>
  <path d="m395.72 618.93h-0.003906c-32.918-0.023438-65.707-7.9492-94.816-22.918-0.050782-0.027344-0.097657-0.050781-0.14844-0.078125-1.4531-0.74609-3.0469-1.5938-4.8047-2.5547-0.28906-0.15625-0.57422-0.32031-0.86328-0.48047l-0.41797-0.23438c-1.2188-0.67969-2.4336-1.3711-3.6445-2.0742l-0.68359-0.40234c-1.8477-1.0859-3.0859-2.9648-3.3477-5.0898-0.26562-2.125 0.47656-4.2539 2-5.7578 10.035-9.8906 15.562-23.082 15.562-37.152 0-10.418-3.0625-20.477-8.8594-29.086-1.2734-1.8906-1.5273-4.2852-0.68359-6.4023 0.84375-2.1172 2.6797-3.6758 4.9062-4.168 2.4258-0.53906 4.9844-1.082 7.6016-1.6094 3.5547-0.71875 7.0625 1.4414 8.0156 4.9414 8.1289 29.844 32.211 99.254 80.184 99.293h0.007812c3.8047 0.003906 6.8867 3.0898 6.8828 6.8945-0.003907 3.8008-3.0859 6.8789-6.8867 6.8789zm-88.484-35.148c13.348 6.8594 27.523 12.133 42.137 15.727-6.1836-5.75-12.039-12.762-17.555-21.035-5.4961-8.2461-10.234-17.133-14.281-26.012-1.6992 10.934-6.1094 21.184-12.902 29.957 0.85938 0.46094 1.6797 0.89062 2.4766 1.3008 0.027344 0.011719 0.078125 0.035156 0.125 0.0625z"/>
  <path d="m483.25 514.56c-0.45312 0-0.91016-0.042969-1.3711-0.13672-27.727-5.6055-56.598-8.4492-85.812-8.4492s-58.086 2.8438-85.812 8.4492c-3.5508 0.71484-7.0586-1.4414-8.0117-4.9414-8.2305-30.219-12.582-64.508-12.582-99.152 0-34.641 4.3516-68.926 12.582-99.152 0.95312-3.5 4.457-5.6562 8.0117-4.9414 27.727 5.6055 56.598 8.4492 85.812 8.4492s58.086-2.8438 85.812-8.4492c3.5508-0.71484 7.0586 1.4414 8.0117 4.9414 8.2305 30.219 12.582 64.508 12.582 99.152s-4.3516 68.93-12.582 99.152c-0.83203 3.043-3.5938 5.0781-6.6406 5.0781zm-169.33-193.58c-6.8672 27.523-10.484 58.262-10.484 89.348 0 31.09 3.6133 61.828 10.484 89.348 26.652-4.9648 54.254-7.4766 82.145-7.4766s55.492 2.5156 82.145 7.4766c6.8672-27.52 10.484-58.258 10.484-89.348 0-31.09-3.6133-61.828-10.484-89.348-26.652 4.9648-54.254 7.4766-82.145 7.4766s-55.492-2.5117-82.145-7.4766z"/>
  <path d="m537.76 332.59c-41.777 0-75.77-33.988-75.77-75.77 0-41.777 33.988-75.77 75.77-75.77 41.777 0 75.77 33.988 75.77 75.77s-33.988 75.77-75.77 75.77zm0-137.76c-34.184 0-61.992 27.809-61.992 61.992 0 34.184 27.809 61.992 61.992 61.992 34.184 0 61.992-27.809 61.992-61.992 0-34.18-27.809-61.992-61.992-61.992z"/>
  <path d="m252.4 608.11c-36.352 0-65.93-29.574-65.93-65.93 0-36.352 29.574-65.93 65.93-65.93 36.352 0 65.93 29.574 65.93 65.93 0 36.355-29.578 65.93-65.93 65.93zm0-118.08c-28.758 0-52.152 23.395-52.152 52.152s23.395 52.152 52.152 52.152c28.758 0 52.152-23.395 52.152-52.152s-23.395-52.152-52.152-52.152z"/>
  <path d="m257.32 352.27c-33.641 0-61.008-27.367-61.008-61.008s27.367-61.008 61.008-61.008 61.008 27.367 61.008 61.008c0.003906 33.641-27.367 61.008-61.008 61.008zm0-108.24c-26.043 0-47.23 21.188-47.23 47.23s21.188 47.23 47.23 47.23c26.043 0 47.23-21.188 47.23-47.23 0.003906-26.043-21.184-47.23-47.23-47.23z"/>
 </g>
</svg>