<?xml version="1.0" encoding="UTF-8"?>
<!-- The Best Svg Icon site in the world: iconSvg.co, Visit us! https://iconsvg.co -->
<svg fill="#000000" width="800px" height="800px" version="1.1" viewBox="144 144 512 512" xmlns="http://www.w3.org/2000/svg">
 <g>
  <path d="m455.77 337.05c0-30.758-25.02-55.773-55.773-55.773s-55.773 25.02-55.773 55.773 25.02 55.766 55.773 55.766 55.773-25.012 55.773-55.766zm-101.68 0c0-25.316 20.598-45.918 45.914-45.918s45.914 20.602 45.914 45.918c-0.003906 25.316-20.598 45.914-45.914 45.914s-45.914-20.598-45.914-45.914z"/>
  <path d="m404.93 370.1v-3.9609c7.1875-2.1406 12.48-8.7305 12.48-16.605 0-9.5977-7.8086-17.406-17.406-17.406-4.1602 0-7.5508-3.3906-7.5508-7.5508 0-4.1602 3.3906-7.5508 7.5508-7.5508h12.48c2.7188 0 4.9258-2.207 4.9258-4.9258s-2.207-4.9258-4.9258-4.9258h-7.5508v-3.1641c0-2.7266-2.207-4.9258-4.9258-4.9258s-4.9258 2.207-4.9258 4.9258v3.9609c-7.1875 2.1406-12.48 8.7344-12.48 16.609 0 9.5977 7.8086 17.406 17.406 17.406 4.1602 0 7.5508 3.3906 7.5508 7.5508-0.003907 4.1602-3.3945 7.5391-7.5547 7.5391h-12.48c-2.7188 0-4.9258 2.207-4.9258 4.9258s2.207 4.9258 4.9258 4.9258h7.5508v3.1641c0 2.7266 2.207 4.9258 4.9258 4.9258 2.7227 0.003906 4.9297-2.1992 4.9297-4.918z"/>
  <path d="m487.12 408.49c-1.6406 0.035157-40.578 1.0742-65.777 26.273-7.3516 7.3516-12.605 15.871-16.418 24.293v-51.695c36.605-2.5508 65.633-33.066 65.633-70.312 0-38.91-31.656-70.562-70.562-70.562-38.91 0-70.562 31.656-70.562 70.562 0 37.246 29.023 67.762 65.633 70.312v51.699c-3.8125-8.4219-9.0625-16.941-16.418-24.293-25.199-25.199-64.129-26.238-65.777-26.273-1.3164 0.054687-2.6367 0.5-3.582 1.4453-0.94531 0.94531-1.4648 2.2383-1.4453 3.582 0.035156 1.6484 1.0742 40.578 26.273 65.777 20.305 20.309 49.5 24.918 60.945 25.965v23.332c0 2.7266 2.207 4.9258 4.9258 4.9258s4.9258-2.207 4.9258-4.9258v-23.332c11.445-1.043 40.641-5.6562 60.945-25.965 25.199-25.195 26.238-64.129 26.273-65.777 0.023438-1.3438-0.49219-2.6367-1.4453-3.582-0.92969-0.94922-2.1992-1.3984-3.5664-1.4492zm-147.82-71.441c0-33.473 27.23-60.711 60.703-60.711s60.703 27.23 60.703 60.711c0 33.469-27.23 60.703-60.703 60.703-33.469 0-60.703-27.23-60.703-60.703zm1.8008 135.27c-17.148-17.148-21.746-42.512-22.957-53.543 11.035 1.2148 36.398 5.8086 53.551 22.957 17.148 17.148 21.746 42.512 22.957 53.543-11.035-1.2109-36.402-5.8086-53.551-22.957zm117.81 0c-17.148 17.148-42.516 21.746-53.551 22.957 1.2148-11.035 5.8125-36.395 22.957-53.543 17.156-17.156 42.527-21.75 53.555-22.965-1.1914 11.02-5.7539 36.348-22.961 53.551z"/>
  <path d="m515.06 173.29h-230.13c-12.262 0-22.242 9.9766-22.242 22.242v408.95c0 12.262 9.9766 22.242 22.242 22.242h230.12c12.262 0 22.242-9.9766 22.242-22.242v-408.95c0-12.27-9.9727-22.242-22.238-22.242zm-79.305 10.004c-2.1055 6.8047-8.457 11.766-15.945 11.766h-39.625c-7.4883 0-13.84-4.957-15.945-11.766zm91.688 421.18c0 6.832-5.5508 12.383-12.383 12.383h-230.13c-6.832 0-12.383-5.5508-12.383-12.383v-408.94c0-6.832 5.5508-12.383 12.383-12.383h69.188c2.2617 12.359 13.059 21.77 26.062 21.77h39.625c13.004 0 23.801-9.4102 26.062-21.77h69.188c6.832 0 12.383 5.5508 12.383 12.383v408.94z"/>
  <path d="m419.72 585.64h-39.449c-2.7188 0-4.9258 2.207-4.9258 4.9258s2.207 4.9258 4.9258 4.9258h39.449c2.7188 0 4.9258-2.207 4.9258-4.9258s-2.207-4.9258-4.9258-4.9258z"/>
 </g>
</svg>