<?xml version="1.0" encoding="UTF-8"?>
<!-- The Best Svg Icon site in the world: iconSvg.co, Visit us! https://iconsvg.co -->
<svg fill="#000000" width="800px" height="800px" version="1.1" viewBox="144 144 512 512" xmlns="http://www.w3.org/2000/svg">
 <g>
  <path d="m380.37 632.89c116.5 0 211.29-94.77 211.29-211.29 0-2.8984-2.3633-5.2461-5.2461-5.2461h-200.79v-200.78c0-2.8984-2.3516-5.2461-5.2461-5.2461-116.51 0-211.29 94.77-211.29 211.29 0 116.5 94.777 211.27 211.29 211.27zm-5.25-412v200.73c0 2.8984 2.3516 5.2461 5.2461 5.2461h200.71c-2.793 108.29-91.758 195.54-200.71 195.54-110.71-0.011718-200.79-90.09-200.79-200.79 0-108.96 87.242-197.93 195.54-200.73z"/>
  <path d="m419.62 167.1c-2.8867 0-5.2461 2.3516-5.2461 5.2461v206.04c0 2.8984 2.3633 5.2461 5.2461 5.2461l206.04 0.007813c2.8984 0 5.2461-2.3516 5.2461-5.2461 0-116.51-94.777-211.29-211.29-211.29zm5.25 206.03v-195.48c106.54 2.75 192.72 88.922 195.47 195.48z"/>
 </g>
</svg>