<?xml version="1.0" encoding="UTF-8"?>
<!-- The Best Svg Icon site in the world: iconSvg.co, Visit us! https://iconsvg.co -->
<svg fill="#000000" width="800px" height="800px" version="1.1" viewBox="144 144 512 512" xmlns="http://www.w3.org/2000/svg">
 <g>
  <path d="m203.2 365.91h188.93c4.3516 0 7.8711-3.5234 7.8711-7.8711v-42.035c0-4.3477-3.5195-7.8711-7.8711-7.8711h-14.848l22.512-95.254c0.55469-2.3398 0-4.8086-1.4922-6.6953-1.4922-1.8867-3.7695-2.9844-6.1758-2.9844h-188.93c-2.4062 0-4.6836 1.0977-6.1758 2.9844-1.4883 1.8828-2.0352 4.3477-1.4883 6.6875l22.434 95.262h-14.77c-4.3516 0-7.8711 3.5234-7.8711 7.8711v42.035c-0.003906 4.3477 3.5195 7.8711 7.8711 7.8711zm9.9375-146.97h169.04l-21.078 89.191h-126.94zm-2.0664 104.93h173.18v26.293h-173.18z"/>
  <path d="m398.02 374.4c-2.8672-3.2578-7.8398-3.5547-11.109-0.6875-3.2578 2.8789-3.5664 7.8555-0.68359 11.113 19.035 21.539 29.512 49.293 29.512 78.152 0 42.07-22.625 81.266-59.047 102.29-17.844 10.332-38.262 15.789-59.031 15.789-65.113 0-118.08-52.973-118.08-118.08 0-26.785 9.1797-52.992 25.852-73.801 2.7227-3.3945 2.1758-8.3477-1.2227-11.066-3.3984-2.7188-8.3477-2.1562-11.062 1.2188-18.902 23.594-29.312 53.301-29.312 83.652 0 73.793 60.031 133.82 133.82 133.82 23.539 0 46.68-6.1914 66.914-17.902 41.273-23.828 66.914-68.25 66.914-115.92 0-32.703-11.887-64.16-33.465-88.578z"/>
  <path d="m297.66 495.57c-15.5 0-28.105-12.609-28.105-28.105 0-4.3477-3.5195-7.8711-7.8711-7.8711s-7.8711 3.5234-7.8711 7.8711c0 24.176 19.672 43.852 43.852 43.852 24.176 0 43.852-19.672 43.852-43.852-0.007812-24.18-19.68-43.848-43.855-43.848-6.7266 0-13.184 1.4922-19.203 4.4336-3.9062 1.9102-5.5195 6.6211-3.6133 10.527 1.9141 3.9062 6.6094 5.5195 10.531 3.6172 3.8438-1.8789 7.9766-2.832 12.285-2.832 15.5 0 28.105 12.609 28.105 28.102 0 15.496-12.609 28.105-28.105 28.105z"/>
  <path d="m628.29 203.2h-196.8c-4.3516 0-7.8711 3.5234-7.8711 7.8711 0 4.3477 3.5195 7.8711 7.8711 7.8711h188.93v346.37l-212.55 0.003906c-4.3516 0-7.8711 3.5234-7.8711 7.8711s3.5195 7.8711 7.8711 7.8711h220.42c4.3516 0 7.8711-3.5234 7.8711-7.8711v-362.11c0-4.3477-3.5234-7.8711-7.8711-7.8711z"/>
  <path d="m573.18 242.56h-110.21c-4.3516 0-7.8711 3.5234-7.8711 7.8711v47.23c0 4.3477 3.5195 7.8711 7.8711 7.8711h86.594c4.3516 0 7.8711-3.5234 7.8711-7.8711s-3.5195-7.8711-7.8711-7.8711h-78.723v-31.488h94.465v23.617c0 4.3477 3.5195 7.8711 7.8711 7.8711 4.3516 0 7.8711-3.5234 7.8711-7.8711v-31.488c0-4.3477-3.5195-7.8711-7.8711-7.8711z"/>
  <path d="m431.49 329.15v31.488c0 4.3477 3.5195 7.8711 7.8711 7.8711h31.488c4.3516 0 7.8711-3.5234 7.8711-7.8711v-31.488c0-4.3477-3.5195-7.8711-7.8711-7.8711h-31.488c-4.3516 0-7.8711 3.5273-7.8711 7.8711zm15.742 7.875h15.742v15.742h-15.742z"/>
  <path d="m541.7 329.15c0-4.3477-3.5195-7.8711-7.8711-7.8711h-31.488c-4.3516 0-7.8711 3.5234-7.8711 7.8711v31.488c0 4.3477 3.5195 7.8711 7.8711 7.8711h31.488c4.3516 0 7.8711-3.5234 7.8711-7.8711zm-15.746 23.617h-15.742v-15.742h15.742z"/>
  <path d="m604.67 329.15c0-4.3477-3.5195-7.8711-7.8711-7.8711h-31.488c-4.3516 0-7.8711 3.5234-7.8711 7.8711v31.488c0 4.3477 3.5195 7.8711 7.8711 7.8711h31.488c4.3516 0 7.8711-3.5234 7.8711-7.8711zm-15.746 23.617h-15.742v-15.742h15.742z"/>
  <path d="m431.49 423.61c0 4.3477 3.5195 7.8711 7.8711 7.8711s7.8711-3.5234 7.8711-7.8711v-7.8711h15.742v15.742h-7.8711c-4.3516 0-7.8711 3.5234-7.8711 7.8711 0 4.3477 3.5195 7.8711 7.8711 7.8711h15.742c4.3516 0 7.8711-3.5234 7.8711-7.8711v-31.488c0-4.3477-3.5195-7.8711-7.8711-7.8711h-31.488c-4.3516 0-7.8711 3.5234-7.8711 7.8711z"/>
  <path d="m541.7 407.87c0-4.3477-3.5195-7.8711-7.8711-7.8711h-31.488c-4.3516 0-7.8711 3.5234-7.8711 7.8711v31.488c0 4.3477 3.5195 7.8711 7.8711 7.8711h31.488c4.3516 0 7.8711-3.5234 7.8711-7.8711zm-15.746 23.617h-15.742v-15.742h15.742z"/>
  <path d="m604.67 407.87c0-4.3477-3.5195-7.8711-7.8711-7.8711h-31.488c-4.3516 0-7.8711 3.5234-7.8711 7.8711v31.488c0 4.3477 3.5195 7.8711 7.8711 7.8711h15.742c4.3516 0 7.8711-3.5234 7.8711-7.8711s-3.5195-7.8711-7.8711-7.8711h-7.8711v-15.742h15.742v7.8711c0 4.3477 3.5195 7.8711 7.8711 7.8711s7.8711-3.5234 7.8711-7.8711z"/>
  <path d="m431.49 518.08c0 4.3477 3.5195 7.8711 7.8711 7.8711h31.488c4.3516 0 7.8711-3.5234 7.8711-7.8711v-31.488c0-4.3477-3.5195-7.8711-7.8711-7.8711h-15.742c-4.3516 0-7.8711 3.5234-7.8711 7.8711s3.5195 7.8711 7.8711 7.8711h7.8711v15.742h-15.742v-7.8711c0-4.3477-3.5195-7.8711-7.8711-7.8711-4.3516 0-7.8711 3.5234-7.8711 7.8711z"/>
  <path d="m518.08 518.08c0 4.3477 3.5195 7.8711 7.8711 7.8711h7.8711c4.3516 0 7.8711-3.5234 7.8711-7.8711v-31.488c0-4.3477-3.5195-7.8711-7.8711-7.8711h-31.488c-4.3516 0-7.8711 3.5234-7.8711 7.8711v23.617c0 4.3477 3.5195 7.8711 7.8711 7.8711 4.3516 0 7.8711-3.5234 7.8711-7.8711v-15.742h15.742v15.742c-4.3438 0-7.8672 3.5234-7.8672 7.8711z"/>
  <path d="m596.8 510.21c4.3516 0 7.8711-3.5234 7.8711-7.8711v-15.742c0-4.3477-3.5195-7.8711-7.8711-7.8711h-31.488c-4.3516 0-7.8711 3.5234-7.8711 7.8711v31.488c0 4.3477 3.5195 7.8711 7.8711 7.8711h15.742c4.3516 0 7.8711-3.5234 7.8711-7.8711 0-4.3477-3.5195-7.8711-7.8711-7.8711h-7.8711v-15.742h15.742v7.8711c0 4.3438 3.5234 7.8672 7.875 7.8672z"/>
 </g>
</svg>