<?xml version="1.0" encoding="UTF-8"?>
<!-- The Best Svg Icon site in the world: iconSvg.co, Visit us! https://iconsvg.co -->
<svg fill="#000000" width="800px" height="800px" version="1.1" viewBox="144 144 512 512" xmlns="http://www.w3.org/2000/svg">
 <g>
  <path d="m453.53 284.83c-1.3047-5.4258-3.4258-10.621-6.2969-15.406v-34.738h23.617c2.0859 0 4.0898-0.83203 5.5664-2.3086 1.4766-1.4766 2.3047-3.4766 2.3047-5.5664v-55.102c0-2.0898-0.82812-4.0898-2.3047-5.5664-1.4766-1.4766-3.4805-2.3086-5.5664-2.3086h-141.7c-4.3477 0-7.8711 3.5273-7.8711 7.875v55.105-0.003906c0 2.0898 0.83203 4.0898 2.3047 5.5664 1.4766 1.4766 3.4805 2.3086 5.5664 2.3086h23.617v34.738c-2.8672 4.7852-4.9922 9.9805-6.2969 15.406-17.016 8.4922-31.328 21.559-41.34 37.727-10.012 16.168-15.32 34.805-15.34 53.824v47.23c0.035157 6.2539 2.5352 12.242 6.957 16.66 4.4219 4.4219 10.406 6.9219 16.66 6.957 6.2617 0 12.27-2.4883 16.699-6.918 4.4297-4.4258 6.918-10.434 6.918-16.699v-47.23c-0.089844-16.863 7.6289-32.816 20.906-43.211 10.441 12.422 25.84 19.598 42.07 19.598 16.227 0 31.625-7.1758 42.066-19.598 13.277 10.395 20.996 26.348 20.91 43.211v47.23c0.035157 6.2539 2.5312 12.242 6.9531 16.66 4.4219 4.4219 10.41 6.9219 16.66 6.957 6.2656 0 12.27-2.4883 16.699-6.918 4.4297-4.4258 6.918-10.434 6.918-16.699v-47.23c-0.015625-19.02-5.3281-37.656-15.34-53.824-10.008-16.168-24.324-29.234-41.34-37.727zm-116.5-105.25h125.95v39.359h-125.95zm94.465 55.105v17.82c-9.2266-6.4766-20.219-9.9492-31.488-9.9492s-22.266 3.4727-31.488 9.9492v-17.82zm-110.21 141.7v47.23c0 2.0898-0.82812 4.0898-2.3047 5.5664-1.4766 1.4766-3.4805 2.3086-5.5664 2.3086-2.1211 0-4.1484-0.87109-5.6055-2.4102-1.4688-1.4375-2.2891-3.4102-2.2656-5.4648v-47.23c0.015625-29.438 14.957-56.859 39.691-72.824 0.60156 5.625 2.0781 11.125 4.375 16.293-17.762 13.379-28.242 34.297-28.324 56.531zm78.719-39.359h0.003906c-10.441 0-20.453-4.1484-27.832-11.531-7.3828-7.3789-11.531-17.391-11.531-27.828 0-10.441 4.1484-20.453 11.531-27.832 7.3789-7.3828 17.391-11.531 27.832-11.531 10.438 0 20.449 4.1484 27.832 11.531 7.3789 7.3789 11.527 17.391 11.527 27.832-0.011719 10.434-4.1641 20.438-11.543 27.816-7.3789 7.3789-17.383 11.531-27.816 11.543zm94.465 86.59c0 2.0898-0.82813 4.0898-2.3047 5.5664-1.4766 1.4766-3.4766 2.3086-5.5664 2.3086-2.1211 0-4.1484-0.87109-5.6055-2.4102-1.4688-1.4375-2.2852-3.4102-2.2656-5.4648v-47.23c-0.082031-22.238-10.57-43.156-28.34-56.531 2.2969-5.168 3.7734-10.668 4.3789-16.293 24.734 15.961 39.688 43.383 39.703 72.824z"/>
  <path d="m400 274.05c-6.2656 0-12.273 2.4883-16.699 6.918-4.4297 4.4258-6.918 10.434-6.918 16.699 0 6.2617 2.4883 12.27 6.918 16.695 4.4258 4.4297 10.434 6.918 16.699 6.918 6.2617 0 12.27-2.4883 16.699-6.918 4.4258-4.4258 6.9141-10.434 6.9141-16.695 0-6.2656-2.4883-12.273-6.9141-16.699-4.4297-4.4297-10.438-6.918-16.699-6.918zm0 31.488c-3.1836 0-6.0547-1.918-7.2734-4.8594-1.2188-2.9414-0.54687-6.3281 1.707-8.5781 2.25-2.2539 5.6367-2.9258 8.5781-1.707 2.9414 1.2188 4.8594 4.0859 4.8594 7.2734 0 2.0859-0.82812 4.0898-2.3047 5.5664-1.4766 1.4727-3.4805 2.3047-5.5664 2.3047z"/>
  <path d="m400 510.21c2.0859 0 4.0898 0.82812 5.5664 2.3047 1.4766 1.4766 2.3047 3.4805 2.3047 5.5664h15.742c-0.019531-4.8672-1.543-9.6094-4.3594-13.574-2.8203-3.9688-6.793-6.9688-11.383-8.5938v-9.3203h-15.746v9.3203c-7.0547 2.4844-12.508 8.1719-14.699 15.324-2.1914 7.1523-0.85547 14.918 3.5977 20.926 4.4531 6.0117 11.496 9.5508 18.977 9.5352 3.1836 0 6.0547 1.918 7.2695 4.8594 1.2188 2.9414 0.54688 6.3281-1.7031 8.5781-2.2539 2.25-5.6406 2.9258-8.582 1.707s-4.8594-4.0898-4.8594-7.2734h-15.742c0.019532 4.8672 1.543 9.6094 4.3633 13.578 2.8164 3.9688 6.793 6.9688 11.379 8.5898v9.3203h15.742l0.003906-9.3203c7.0547-2.4844 12.512-8.1719 14.699-15.324 2.1914-7.1484 0.85547-14.918-3.5977-20.926s-11.496-9.5469-18.973-9.5352c-4.3477 0-7.875-3.5234-7.875-7.8711s3.5273-7.8711 7.875-7.8711z"/>
  <path d="m400 455.1c-20.879 0-40.902 8.293-55.664 23.059-14.766 14.762-23.059 34.785-23.059 55.664 0 20.875 8.293 40.898 23.059 55.664 14.762 14.762 34.785 23.055 55.664 23.055 20.875 0 40.898-8.293 55.664-23.055 14.762-14.766 23.055-34.789 23.055-55.664-0.023438-20.871-8.3242-40.883-23.082-55.641-14.758-14.758-34.766-23.059-55.637-23.082zm0 141.7v0.003906c-16.703 0-32.723-6.6367-44.531-18.445-11.812-11.812-18.445-27.832-18.445-44.531 0-16.703 6.6328-32.723 18.445-44.531 11.809-11.812 27.828-18.445 44.531-18.445 16.699 0 32.719 6.6328 44.531 18.445 11.809 11.809 18.445 27.828 18.445 44.531-0.019531 16.695-6.6602 32.703-18.469 44.508-11.805 11.809-27.812 18.449-44.508 18.469z"/>
  <path d="m400 431.49c-27.145 0-53.172 10.781-72.363 29.973-19.191 19.191-29.973 45.219-29.973 72.363 0 27.141 10.781 53.168 29.973 72.363 19.191 19.191 45.219 29.973 72.363 29.973 27.141 0 53.168-10.781 72.359-29.973 19.195-19.195 29.977-45.223 29.977-72.363-0.03125-27.133-10.824-53.145-30.008-72.328-19.188-19.188-45.199-29.977-72.328-30.008zm0 188.93v-0.003907c-22.969 0-44.992-9.1211-61.23-25.359-16.238-16.242-25.363-38.266-25.363-61.23 0-22.969 9.125-44.992 25.363-61.23s38.262-25.363 61.23-25.363c22.965 0 44.988 9.125 61.227 25.363 16.242 16.238 25.363 38.262 25.363 61.23-0.027344 22.957-9.1562 44.965-25.391 61.199-16.234 16.234-38.242 25.363-61.199 25.391z"/>
  <path d="m439.36 525.95h15.742v15.742h-15.742z"/>
  <path d="m344.89 525.95h15.742v15.742h-15.742z"/>
  <path d="m565.31 502.34h15.742v15.742h-15.742z"/>
  <path d="m581.05 518.08h15.742v15.742h-15.742z"/>
  <path d="m549.57 518.08h15.742v15.742h-15.742z"/>
  <path d="m565.31 533.82h15.742v15.742h-15.742z"/>
  <path d="m218.94 423.61h15.742v15.742h-15.742z"/>
  <path d="m234.69 439.36h15.742v15.742h-15.742z"/>
  <path d="m203.2 439.36h15.742v15.742h-15.742z"/>
  <path d="m218.94 455.1h15.742v15.742h-15.742z"/>
  <path d="m250.43 581.05h15.742v15.742h-15.742z"/>
  <path d="m266.18 596.8h15.742v15.742h-15.742z"/>
  <path d="m234.69 596.8h15.742v15.742h-15.742z"/>
  <path d="m250.43 612.54h15.742v15.742h-15.742z"/>
  <path d="m588.93 344.89h15.742v15.742h-15.742z"/>
  <path d="m604.67 360.64h15.742v15.742h-15.742z"/>
  <path d="m573.18 360.64h15.742v15.742h-15.742z"/>
  <path d="m588.93 376.38h15.742v15.742h-15.742z"/>
 </g>
</svg>