<?xml version="1.0" encoding="UTF-8"?>
<!-- The Best Svg Icon site in the world: iconSvg.co, Visit us! https://iconsvg.co -->
<svg fill="#000000" width="800px" height="800px" version="1.1" viewBox="144 144 512 512" xmlns="http://www.w3.org/2000/svg">
 <path d="m609.59 592.05h-53.43c22.082-10.367 39.684-28.352 49.574-50.648 9.8945-22.301 11.41-47.422 4.2734-70.746-7.1367-23.328-22.449-43.301-43.121-56.246 1.5742-10.566 2.9531-22.141 4.2812-33.379 1.1328-9.5938 2.2617-19.078 3.4844-27.711 1.8008-12.793-22.09-53.02-43.078-77.836l-0.003907 0.003906c-12.387-14.555-29.906-23.777-48.914-25.754l-123.16-13.539-36.508-36.508h0.003907c-1.9023-1.9023-4.9883-1.9023-6.8906 0-1.9023 1.9023-1.9023 4.9883 0 6.8906l38.906 38.906 126.49 13.902h0.003906c16.559 1.6992 31.828 9.7188 42.625 22.387 23.191 27.414 41.891 63.164 40.887 70.227-1.2305 8.707-2.3633 18.254-3.5117 27.938-1.1719 9.8398-2.3711 20.004-3.7109 29.441-13.273-6.5977-27.844-10.188-42.668-10.508-0.12891-6.1406-0.27734-17.121 0.078125-25.141 0.49219-11.285-4.7422-17.605-8.2773-19.816-22.555-19.148-63.457-34.98-77.086-29.797-11.434 4.3477-21.648 17.445-32.531 31.301l-2.4297 3.1094c-13.391 17.043-7.7539 29.066-0.66016 36.152 2.332 2.332 10.48 8.1758 25.898 19.168 21.086 15.035 49.969 35.621 60.793 46.121 4.8203 4.6953 6.0039 9.5664 3.5039 14.477-3.6797 7.2422-14.328 12.555-22.289 11.219-30.027-5.1602-108.49-42.859-127.8-54.172-16.727-9.8398-44.754-43.051-54.297-61.637v-0.003906c-0.22656-0.44922-0.52344-0.85547-0.88281-1.2109l-85.285-85.32c-1.9023-1.8906-4.9727-1.8789-6.8633 0.023438-1.8867 1.9023-1.8789 4.9766 0.023437 6.8633l84.762 84.762c10.508 19.965 39.359 54.121 57.633 64.875 11.07 6.5039 49.594 25.789 84.191 39.93v0.003907c-4.6016 22.305-1.5703 45.512 8.6133 65.887 10.188 20.375 26.93 36.73 47.535 46.434h-53.402c-2.6719 0-4.8398 2.168-4.8398 4.8438 0 2.6719 2.168 4.8398 4.8398 4.8398h193.24c2.6758 0 4.8438-2.168 4.8438-4.8398 0-2.6758-2.168-4.8438-4.8438-4.8438zm-208.54-204.21c-4.4102-4.4102-8.2344-11.039 1.4258-23.34l2.4492-3.1211c9.9883-12.793 19.426-24.828 28.348-28.23 8.3555-3.1875 46.414 10.156 67.668 28.387l0.007813 0.003906c0.23047 0.18359 0.47266 0.35547 0.72656 0.51172 0.17578 0.10938 4.2227 2.7344 3.8555 11.258-0.36328 8.5195-0.22656 19.582-0.097656 25.82v-0.003906c-20.98 1.5508-40.961 9.5938-57.16 23.016-7.7539-5.6289-15.566-11.199-22.543-16.168-11.73-8.3633-22.781-16.262-24.68-18.133zm20.141 112.45h0.003906c0-5.6758 0.52344-11.336 1.5625-16.914 14.762 5.7383 28.211 10.184 37.727 11.809v-0.003906c1.375 0.23047 2.7695 0.34375 4.1641 0.34766 8.9648 0 18.695-4.5273 24.68-11.336 2.1992 4.375 5.5742 8.0586 9.7422 10.633 4.168 2.5742 8.9727 3.9414 13.871 3.9492 6.2656 0 12.27 2.4883 16.699 6.918 4.4297 4.4258 6.918 10.434 6.918 16.699 0 6.2617-2.4883 12.27-6.918 16.695-4.4297 4.4297-10.434 6.918-16.699 6.918-6.2617 0-12.27-2.4883-16.699-6.918-4.4297-4.4258-6.9141-10.434-6.9141-16.695 0.054687-1.1914-0.37891-2.3555-1.2031-3.2188-0.82031-0.85938-1.9609-1.3477-3.1523-1.3477s-2.332 0.48828-3.1562 1.3477c-0.82031 0.86328-1.2539 2.0273-1.1992 3.2188 0.011718 7.8047 2.8477 15.348 7.9844 21.227 5.1367 5.8789 12.227 9.7031 19.961 10.762v8.0391c0.11328 2.3242 2.0273 4.1523 4.3555 4.1523s4.2422-1.8281 4.3555-4.1523v-8.0391c10.918-1.4883 20.324-8.4375 24.953-18.438 4.625-10 3.8359-21.672-2.1016-30.957-5.9336-9.2852-16.191-14.902-27.211-14.898v-0.003907c-4.6992 0-9.2031-1.8633-12.527-5.1875-3.3203-3.3203-5.1875-7.8242-5.1875-12.523 0-0.41406 0-0.80859 0.058593-1.2109 0.058594-0.40234 0.050782-0.55078 0.058594-0.82812l0.003906 0.003907c0.50781-6.207 4.2344-11.691 9.8203-14.445 5.5859-2.75 12.203-2.3711 17.438 1.0078 5.2305 3.375 8.3047 9.25 8.0977 15.473 0.10938 2.3242 2.0273 4.1523 4.3516 4.1523 2.3281 0 4.2461-1.8281 4.3555-4.1523 0-6.2578-2.2148-12.32-6.2539-17.102-4.043-4.7812-9.6445-7.9805-15.816-9.0234v-8.0898c0.054688-1.1875-0.37891-2.3516-1.1992-3.2148-0.82422-0.85938-1.9648-1.3477-3.1562-1.3477-1.1914 0-2.332 0.48828-3.1562 1.3477-0.82031 0.86328-1.2539 2.0273-1.1992 3.2148v8.0898c-7.0234 1.1797-13.277 5.1445-17.348 10.992-1.0703-1.5195-2.2812-2.9336-3.6211-4.2227-6.3359-6.1602-18.254-15.371-31.262-24.965 21.945-17.184 50.516-23.465 77.645-17.062 27.129 6.4023 49.875 24.793 61.824 49.977 11.945 25.184 11.793 54.434-0.41406 79.496-12.203 25.059-35.141 43.211-62.336 49.332-27.191 6.1211-55.695-0.44922-77.461-17.863-21.766-17.414-34.438-43.777-34.434-71.652z"/>
</svg>