<?xml version="1.0" encoding="UTF-8"?>
<!-- The Best Svg Icon site in the world: iconSvg.co, Visit us! https://iconsvg.co -->
<svg fill="#000000" width="800px" height="800px" version="1.1" viewBox="144 144 512 512" xmlns="http://www.w3.org/2000/svg">
 <g>
  <path d="m400.01 251.97c22.871 0 41.469-18.609 41.469-41.48 0-22.871-18.598-41.469-41.469-41.469-22.871 0-41.469 18.598-41.469 41.469 0 22.871 18.598 41.48 41.469 41.48zm0-72.453c17.078 0 30.973 13.898 30.973 30.973 0 17.078-13.887 30.984-30.973 30.984-17.086 0-30.973-13.895-30.973-30.984 0-17.086 13.887-30.973 30.973-30.973z"/>
  <path d="m220.27 480.36c-22.871 0-41.469 18.59-41.469 41.469 0 22.871 18.598 41.469 41.469 41.469s41.48-18.598 41.48-41.469c0-22.867-18.621-41.469-41.48-41.469zm0 72.453c-17.078 0-30.973-13.898-30.973-30.996 0-17.078 13.898-30.965 30.973-30.965 17.078 0 30.984 13.887 30.984 30.965s-13.91 30.996-30.984 30.996z"/>
  <path d="m579.75 480.36c-22.883 0-41.469 18.59-41.469 41.469 0 22.871 18.59 41.469 41.469 41.469 22.871 0 41.469-18.598 41.469-41.469 0-22.867-18.609-41.469-41.469-41.469zm0 72.453c-17.078 0-30.973-13.898-30.973-30.996 0-17.078 13.898-30.965 30.973-30.965 17.078 0 30.973 13.887 30.973 30.965s-13.895 30.996-30.973 30.996z"/>
  <path d="m479.46 228.98c0.0625 0.70313 0.26172 1.3555 0.59766 1.9727 0.0625 0.11719 0.042969 0.24219 0.10547 0.35547l15.105 24.227c0.99609 1.5938 2.707 2.4648 4.4609 2.4648 0.94531 0 1.9102-0.25 2.7695-0.79688 2.457-1.5312 3.2109-4.7773 1.6797-7.2305l-5.1641-8.2695c64.645 36.211 104.17 104.66 103.21 178.75l-4.5859-8.5977c-1.3633-2.5391-4.543-3.5273-7.1055-2.1523-2.5625 1.3555-3.5273 4.5352-2.1719 7.0938l13.426 25.199c0.0625 0.11719 0.1875 0.17969 0.25 0.27344 0.35547 0.58594 0.82813 1.0898 1.3945 1.4805 0.13672 0.082031 0.21875 0.21094 0.33594 0.28516 0.62891 0.36719 1.3242 0.64062 2.0898 0.71484 0.15625 0 0.30469 0.019531 0.45312 0.019531h0.019531 0.082031c0.85156 0 1.6172-0.26172 2.3398-0.64062 0.21094-0.10547 0.35547-0.21094 0.53516-0.32422 0.59766-0.38672 1.0898-0.85938 1.4805-1.4688 0.050781-0.082031 0.15625-0.11719 0.21094-0.21875l14.273-24.719c1.4492-2.5078 0.58594-5.7188-1.9219-7.1797-2.5078-1.4492-5.7188-0.58594-7.1797 1.9297l-3.4844 6.0352c0.14844-76.234-40.41-146.45-106.49-184.44h6.9922c2.8867 0 5.2461-2.3516 5.2461-5.2461 0-2.8984-2.3633-5.2461-5.2461-5.2461h-28.434-0.042969-0.082031c-0.050781 0-0.09375 0.042968-0.15625 0.042968-0.77734 0.019532-1.5117 0.24219-2.1836 0.59766-0.21875 0.10547-0.39844 0.23047-0.62109 0.37891-0.51563 0.36719-0.94531 0.80859-1.3125 1.3555-0.082032 0.125-0.24219 0.1875-0.31641 0.33594-0.03125 0.050781-0.011719 0.125-0.050781 0.1875-0.042969 0.082031-0.10547 0.13672-0.14844 0.21875-0.32422 0.70312-0.45312 1.4492-0.42969 2.1836 0.011719 0.16797 0.050781 0.29297 0.074219 0.42969z"/>
  <path d="m189.03 442.15c0.11719 0.21094 0.33594 0.28516 0.47266 0.47266 0.23047 0.30469 0.48438 0.52344 0.78906 0.77734 0.52344 0.42969 1.082 0.74609 1.7227 0.96484 0.21094 0.074218 0.33594 0.26172 0.56641 0.30469 0.33594 0.0625 0.67188 0.10547 1.0078 0.10547 0.89062 0 1.793-0.21875 2.625-0.70312 0.011718 0 0.019531-0.019531 0.03125-0.03125 0.050781-0.03125 0.082031-0.082031 0.125-0.125 0.70312-0.42969 1.2266-1.0391 1.625-1.6992 0.050781-0.082031 0.16797-0.125 0.21875-0.21875l13.426-25.207c1.3633-2.5625 0.39844-5.7422-2.1641-7.0938-2.5703-1.375-5.7422-0.38672-7.1055 2.1523l-4.6602 8.7422c-1.0156-74.199 38.594-142.81 103.37-179.03l-5.2461 8.3984c-1.5312 2.457-0.78906 5.6992 1.6797 7.2305 2.4648 1.5312 5.6992 0.77734 7.2305-1.6797l15.105-24.227c0.050781-0.082031 0.019531-0.17969 0.0625-0.26172 0.42969-0.75391 0.73438-1.5859 0.73438-2.5195 0-0.09375-0.042969-0.17969-0.050781-0.26172-0.011719-0.15625-0.074219-0.29297-0.09375-0.45313-0.13672-0.92187-0.48438-1.7539-1.0273-2.457-0.0625-0.074219-0.042969-0.1875-0.11719-0.26172-0.03125-0.03125-0.082031-0.03125-0.11719-0.0625-0.65234-0.71484-1.5-1.1875-2.457-1.4492-0.21094-0.0625-0.38672-0.09375-0.59766-0.125-0.27344-0.042969-0.50391-0.15625-0.78906-0.15625h-28.551c-2.8984 0-5.2461 2.3516-5.2461 5.2461 0 2.8984 2.3516 5.2461 5.2461 5.2461h6.9805c-66.094 37.996-106.64 108.21-106.49 184.45l-3.4844-6.0391c-1.457-2.5078-4.6797-3.3594-7.168-1.9297-2.5078 1.457-3.3711 4.6602-1.9219 7.1797z"/>
  <path d="m526.79 584.52c-0.011718-0.042969 0.011719-0.09375 0-0.13672-0.42969-1.2383-1.2695-2.2031-2.332-2.8438h-0.019531-0.019531c-0.51562-0.28516-1.082-0.48437-1.6992-0.57812-0.21094-0.03125-0.38672-0.050782-0.59766-0.0625-0.16797 0-0.30469-0.0625-0.49219-0.0625l-28.539 0.98828c-2.8984 0.09375-5.1641 2.5195-5.0586 5.4375 0.10547 2.8867 2.4453 5.4258 5.4375 5.0469l9.8867-0.33594c-63.742 37.977-142.96 37.977-206.72 0l9.8984 0.33594c2.8242 0.36719 5.332-2.1719 5.4258-5.0469 0.10547-2.9062-2.1719-5.332-5.0586-5.4375l-28.539-0.98828c-0.16797 0-0.31641 0.050781-0.48438 0.0625-0.21094 0.011718-0.41016 0.019531-0.62109 0.0625-1.9414 0.28516-3.4102 1.5742-4.0391 3.4219-0.011719 0.042969 0.011719 0.09375 0 0.13672-0.29297 0.91406-0.27344 1.8789-0.03125 2.8438 0.050781 0.21875 0.11719 0.38672 0.19922 0.60938 0.09375 0.25 0.11719 0.51562 0.25 0.74609l14.273 24.73c0.97656 1.6914 2.7383 2.625 4.5547 2.625 0.89062 0 1.793-0.21875 2.625-0.70312 2.5078-1.4375 3.3711-4.6484 1.9219-7.168l-3.4961-6.0352c32.98 19.113 69.703 28.801 106.49 28.801 36.789 0 73.516-9.6875 106.49-28.801l-3.4844 6.0352c-1.457 2.5078-0.59766 5.7305 1.9219 7.168 0.82812 0.47266 1.7305 0.70312 2.625 0.70312 1.8164 0 3.5781-0.94531 4.5547-2.625l14.273-24.73c0.13672-0.23047 0.15625-0.49219 0.24219-0.74609 0.082032-0.21875 0.15625-0.37891 0.21094-0.60938 0.21875-0.95703 0.24219-1.9297-0.054688-2.8438z"/>
 </g>
</svg>