<?xml version="1.0" encoding="UTF-8"?>
<!-- The Best Svg Icon site in the world: iconSvg.co, Visit us! https://iconsvg.co -->
<svg fill="#000000" width="800px" height="800px" version="1.1" viewBox="144 144 512 512" xmlns="http://www.w3.org/2000/svg">
 <g>
  <path d="m610.13 613.94h-19.965v-127.35c-0.007813-2.2656-1.8477-4.1016-4.1133-4.1016h-53.766l-13.078-103.15c-0.25781-2.0547-2.0039-3.5977-4.0742-3.6016h-41.16c-2.0859-0.015625-3.8555 1.5312-4.1133 3.6016l-0.98438 8.4219h-32.766c-2.0469 0.007813-3.7773 1.5078-4.0742 3.5312l-13.027 91.199h-45.719v-86.762c0-2.2695-1.8438-4.1133-4.1133-4.1133h-54.27l-7.0547-130c-0.09375-2.1992-1.9023-3.9336-4.1016-3.9336h-45.453c-2.1992 0-4.0078 1.7344-4.1016 3.9336l-7.0664 130h-29.402c-2.2695 0-4.1133 1.8438-4.1133 4.1133v218.21h-23.754c-1.1211-0.054687-2.2227 0.35156-3.0352 1.1289-0.81641 0.77734-1.2773 1.8516-1.2773 2.9766 0 1.1289 0.46094 2.2031 1.2773 2.9805 0.8125 0.77734 1.9141 1.1836 3.0352 1.1289h420.27c1.125 0.054688 2.2227-0.35156 3.0352-1.1289 0.81641-0.77734 1.2773-1.8516 1.2773-2.9805 0-1.125-0.46094-2.1992-1.2773-2.9766-0.8125-0.77734-1.9102-1.1836-3.0352-1.1289zm-135.79-204.31h40.422l9.2305 72.816h-58.883zm37.164-25.672 2.2148 17.445h-38.375l2.2031-17.445zm-43.73 12.023-2.7266 21.512h-28.535l3.0703-21.512zm-32.352 29.734h28.645l-7.1914 56.766h-29.52zm-135.57-159.76 1.082 19.938h-39.812l1.082-19.938zm-39.172 28.152h40.707l5.293 97.504h-51.332zm-38.789 105.73h143.17v82.656h-39.359c-2.2695 0-4.1094 1.8359-4.1133 4.1055v127.34h-99.699zm210.42 214.1h-61.746v-52.359h61.746zm8.2148 0 0.003906-56.504c0-2.2656-1.8359-4.1055-4.1055-4.1133h-69.973c-2.2695 0-4.1133 1.8438-4.1133 4.1133v56.461h-32.473v-123.2h252.07v123.24z"/>
  <path d="m479.7 533.68h-17.082c-2.1914 0.10547-3.9141 1.9141-3.9141 4.1094 0 2.1914 1.7227 4 3.9141 4.1055h17.082c1.125 0.054687 2.2227-0.35156 3.0391-1.1289 0.8125-0.77734 1.2734-1.8516 1.2734-2.9766 0-1.1289-0.46094-2.2031-1.2734-2.9805-0.81641-0.77734-1.9141-1.1836-3.0391-1.1289z"/>
  <path d="m479.7 559.41h-17.082c-2.2734 0-4.1133 1.8438-4.1133 4.1133 0 2.2734 1.8398 4.1133 4.1133 4.1133h17.082c2.2695 0 4.1133-1.8398 4.1133-4.1133 0-2.2695-1.8438-4.1133-4.1133-4.1133z"/>
  <path d="m479.7 585.17h-17.082c-2.1914 0.10938-3.9141 1.9141-3.9141 4.1094 0 2.1914 1.7227 4 3.9141 4.1055h17.082c1.125 0.058594 2.2227-0.35156 3.0391-1.1289 0.8125-0.77344 1.2734-1.8516 1.2734-2.9766s-0.46094-2.2031-1.2734-2.9805c-0.81641-0.77734-1.9141-1.1836-3.0391-1.1289z"/>
  <path d="m519.89 533.68h-17.035c-1.125-0.054687-2.2227 0.35156-3.0352 1.1289-0.81641 0.77734-1.2773 1.8516-1.2773 2.9805 0 1.125 0.46094 2.1992 1.2773 2.9766 0.8125 0.77734 1.9102 1.1836 3.0352 1.1289h17.035c1.125 0.054687 2.2227-0.35156 3.0352-1.1289 0.81641-0.77734 1.2773-1.8516 1.2773-2.9766 0-1.1289-0.46094-2.2031-1.2773-2.9805-0.8125-0.77734-1.9102-1.1836-3.0352-1.1289z"/>
  <path d="m519.89 559.41h-17.035c-2.2695 0-4.1133 1.8438-4.1133 4.1133 0 2.2734 1.8438 4.1133 4.1133 4.1133h17.035c2.2695 0 4.1133-1.8398 4.1133-4.1133 0-2.2695-1.8438-4.1133-4.1133-4.1133z"/>
  <path d="m519.89 585.17h-17.035c-1.125-0.054688-2.2227 0.35156-3.0352 1.1289-0.81641 0.77734-1.2773 1.8555-1.2773 2.9805s0.46094 2.2031 1.2773 2.9766c0.8125 0.77734 1.9102 1.1875 3.0352 1.1289h17.035c1.125 0.058594 2.2227-0.35156 3.0352-1.1289 0.81641-0.77344 1.2773-1.8516 1.2773-2.9766s-0.46094-2.2031-1.2773-2.9805c-0.8125-0.77734-1.9102-1.1836-3.0352-1.1289z"/>
  <path d="m560.12 533.68h-17.043c-2.1914 0.10547-3.9102 1.9141-3.9102 4.1094 0 2.1914 1.7188 4 3.9102 4.1055h17.043c2.1914-0.10547 3.9141-1.9141 3.9141-4.1055 0-2.1953-1.7227-4.0039-3.9141-4.1094z"/>
  <path d="m560.12 559.41h-17.043c-2.2695 0-4.1133 1.8438-4.1133 4.1133 0 2.2734 1.8438 4.1133 4.1133 4.1133h17.043c2.2734 0 4.1133-1.8398 4.1133-4.1133 0-2.2695-1.8398-4.1133-4.1133-4.1133z"/>
  <path d="m560.12 585.17h-17.043c-2.1914 0.10938-3.9102 1.9141-3.9102 4.1094 0 2.1914 1.7188 4 3.9102 4.1055h17.043c2.1914-0.10547 3.9141-1.9141 3.9141-4.1055 0-2.1953-1.7227-4-3.9141-4.1094z"/>
  <path d="m293.45 434.02h-16.539c-1.125-0.054688-2.2227 0.35547-3.0391 1.1328-0.8125 0.77344-1.2773 1.8516-1.2773 2.9766s0.46484 2.2031 1.2773 2.9805c0.81641 0.77344 1.9141 1.1836 3.0391 1.1289h16.543-0.003906c1.125 0.054687 2.2227-0.35547 3.0391-1.1289 0.81641-0.77734 1.2773-1.8555 1.2773-2.9805s-0.46094-2.2031-1.2773-2.9766c-0.81641-0.77734-1.9141-1.1875-3.0391-1.1328z"/>
  <path d="m293.45 465.22h-16.539c-2.2734 0-4.1133 1.8398-4.1133 4.1133 0 2.2695 1.8398 4.1133 4.1133 4.1133h16.543-0.003906c2.2734 0 4.1133-1.8438 4.1133-4.1133 0-2.2734-1.8398-4.1133-4.1133-4.1133z"/>
  <path d="m293.45 496.43h-16.539c-1.125-0.054688-2.2227 0.35547-3.0391 1.1289-0.8125 0.77734-1.2773 1.8555-1.2773 2.9805s0.46484 2.2031 1.2773 2.9805c0.81641 0.77344 1.9141 1.1836 3.0391 1.1289h16.543-0.003906c1.125 0.054687 2.2227-0.35547 3.0391-1.1289 0.81641-0.77734 1.2773-1.8555 1.2773-2.9805s-0.46094-2.2031-1.2773-2.9805c-0.81641-0.77344-1.9141-1.1836-3.0391-1.1289z"/>
  <path d="m293.45 527.61h-16.539c-2.2734 0-4.1133 1.8438-4.1133 4.1133 0 2.2734 1.8398 4.1133 4.1133 4.1133h16.543-0.003906c2.2734 0 4.1133-1.8398 4.1133-4.1133 0-2.2695-1.8398-4.1133-4.1133-4.1133z"/>
  <path d="m293.45 558.81h-16.539c-2.2734 0-4.1133 1.8398-4.1133 4.1094 0 2.2734 1.8398 4.1133 4.1133 4.1133h16.543-0.003906c2.2734 0 4.1133-1.8398 4.1133-4.1133 0-2.2695-1.8398-4.1094-4.1133-4.1094z"/>
  <path d="m254.76 434.02h-16.551c-2.1875 0.10937-3.9102 1.918-3.9102 4.1094 0 2.1953 1.7227 4 3.9102 4.1094h16.551c2.1914-0.10938 3.9141-1.9141 3.9141-4.1094 0-2.1914-1.7227-4-3.9141-4.1094z"/>
  <path d="m254.76 465.22h-16.551c-2.2695 0-4.1133 1.8398-4.1133 4.1133 0 2.2695 1.8438 4.1133 4.1133 4.1133h16.551c2.2734 0 4.1133-1.8438 4.1133-4.1133 0-2.2734-1.8398-4.1133-4.1133-4.1133z"/>
  <path d="m254.76 496.43h-16.551c-2.1875 0.10937-3.9102 1.9141-3.9102 4.1094 0 2.1953 1.7227 4 3.9102 4.1094h16.551c2.1914-0.10938 3.9141-1.9141 3.9141-4.1094 0-2.1953-1.7227-4-3.9141-4.1094z"/>
  <path d="m254.76 527.61h-16.551c-2.2695 0-4.1133 1.8438-4.1133 4.1133 0 2.2734 1.8438 4.1133 4.1133 4.1133h16.551c2.2734 0 4.1133-1.8398 4.1133-4.1133 0-2.2695-1.8398-4.1133-4.1133-4.1133z"/>
  <path d="m254.76 558.81h-16.551c-2.2695 0-4.1133 1.8398-4.1133 4.1094 0 2.2734 1.8438 4.1133 4.1133 4.1133h16.551c2.2734 0 4.1133-1.8398 4.1133-4.1133 0-2.2695-1.8398-4.1094-4.1133-4.1094z"/>
  <path d="m287.47 229.48c2.2617-0.003907 4.0977-1.8398 4.1016-4.1016 0-0.058594 0.078126-6.168 4.3008-9.9883 2.9531-2.6953 7.5-3.7891 13.43-3.207 15.32 1.4844 18.332-9.1016 20.32-16.098 1.9883-6.9961 3.2383-9.7227 8.3438-10.035l0.003906-0.003906c2.2109-0.20703 3.8633-2.1328 3.7227-4.3516-0.13672-2.2188-2.0156-3.9258-4.2344-3.8555-11.387 0.70703-13.902 9.543-15.742 16-2.1758 7.6055-3.4727 10.914-11.633 10.164-8.3828-0.80859-15.055 0.98438-19.816 5.3711-6.8867 6.3359-6.8867 15.656-6.8867 16.039l-0.003906 0.003907c0.015625 2.2461 1.8438 4.0625 4.0938 4.0625z"/>
  <path d="m321.11 236.65c0.019531 2.2578 1.8516 4.0742 4.1055 4.0742 2.2539-0.003906 4.0898-1.8164 4.1211-4.0742 0-0.058594 0.070312-6.1602 4.3008-9.9883 2.9531-2.6953 7.5-3.7773 13.43-3.207 15.344 1.3906 18.324-9.1406 20.312-16.137 1.9883-6.9961 3.2461-9.7227 8.3438-10.035 2.2109-0.20703 3.8555-2.1328 3.7227-4.3477-0.13672-2.2148-2.0039-3.9219-4.2227-3.8594-11.387 0.70703-13.902 9.543-15.742 15.988-2.168 7.6172-3.4766 10.922-11.633 10.176-8.3828-0.81641-15.047 0.98437-19.816 5.3711-6.9219 6.3398-6.9219 15.656-6.9219 16.039z"/>
  <path d="m469.47 333.75c2.2617-0.003906 4.0938-1.8398 4.0938-4.1016 0-0.089844 0.089844-8.0703 5.6484-13.117 3.9375-3.5508 9.7891-4.9805 17.445-4.25 18.176 1.7695 21.648-10.391 24.168-19.258 2.3711-8.3438 3.9375-12.723 11.238-13.176 2.207-0.20703 3.8555-2.1289 3.7188-4.3477-0.13281-2.2148-2.0039-3.9219-4.2227-3.8594-13.43 0.83594-16.441 11.414-18.637 19.141-2.4688 8.6797-4.1328 14.426-15.477 13.324-10.117-0.98438-18.125 1.1914-23.832 6.4141-8.2656 7.5664-8.2656 18.695-8.2656 19.18 0.027344 2.2539 1.8672 4.0625 4.1211 4.0508z"/>
  <path d="m512.18 343.64c0.019531 2.2539 1.8594 4.0703 4.1133 4.0625 2.2344-0.078125 4.0273-1.875 4.1016-4.1133 0-0.078125 0.089844-8.0586 5.6562-13.117 3.9375-3.5508 9.7695-4.9805 17.438-4.25 18.164 1.7617 21.648-10.391 24.168-19.258 2.3711-8.3438 3.9375-12.723 11.238-13.176v0.003906c1.0859-0.066406 2.1016-0.5625 2.8242-1.3789 0.72266-0.81641 1.0898-1.8867 1.0234-2.9727-0.17188-2.2461-2.0977-3.9492-4.3516-3.8477-13.43 0.82812-16.441 11.406-18.637 19.129-2.4805 8.6797-4.0938 14.414-15.477 13.324-10.105-0.98438-18.137 1.1914-23.832 6.4141-8.2656 7.5781-8.2656 18.707-8.2656 19.18z"/>
 </g>
</svg>