<?xml version="1.0" encoding="UTF-8"?>
<!-- The Best Svg Icon site in the world: iconSvg.co, Visit us! https://iconsvg.co -->
<svg fill="#000000" width="800px" height="800px" version="1.1" viewBox="144 144 512 512" xmlns="http://www.w3.org/2000/svg">
 <g>
  <path d="m591.88 590.89h-108.24c-2.1719 0-3.9375-1.7617-3.9375-3.9375 0-2.1719 1.7617-3.9375 3.9375-3.9375h108.24c2.1719 0 3.9375 1.7617 3.9375 3.9375-0.003906 2.1758-1.7656 3.9375-3.9414 3.9375z"/>
  <path d="m591.88 561.38h-108.24c-2.1719 0-3.9375-1.7617-3.9375-3.9375 0-2.1719 1.7617-3.9375 3.9375-3.9375h108.24c2.1719 0 3.9375 1.7617 3.9375 3.9375-0.003906 2.1758-1.7656 3.9375-3.9414 3.9375z"/>
  <path d="m591.88 531.86h-108.24c-2.1719 0-3.9375-1.7617-3.9375-3.9375 0-2.1719 1.7617-3.9375 3.9375-3.9375h108.24c2.1719 0 3.9375 1.7617 3.9375 3.9375-0.003906 2.1758-1.7656 3.9375-3.9414 3.9375z"/>
  <path d="m591.88 502.34h-108.24c-2.1719 0-3.9375-1.7617-3.9375-3.9375 0-2.1719 1.7617-3.9375 3.9375-3.9375h108.24c2.1719 0 3.9375 1.7617 3.9375 3.9375-0.003906 2.1758-1.7656 3.9375-3.9414 3.9375z"/>
  <path d="m591.88 472.82h-108.24c-2.1719 0-3.9375-1.7617-3.9375-3.9375 0-2.1719 1.7617-3.9375 3.9375-3.9375h108.24c2.1719 0 3.9375 1.7617 3.9375 3.9375-0.003906 2.1719-1.7656 3.9375-3.9414 3.9375z"/>
  <path d="m591.88 443.29h-108.24c-2.1719 0-3.9375-1.7617-3.9375-3.9375 0-2.1719 1.7617-3.9375 3.9375-3.9375h108.24c2.1719 0 3.9375 1.7617 3.9375 3.9375-0.003906 2.1758-1.7656 3.9375-3.9414 3.9375z"/>
  <path d="m621.4 620.41h-442.8c-2.1719 0-3.9375-1.7617-3.9375-3.9375 0-2.1719 1.7617-3.9375 3.9375-3.9375h442.8c2.1719 0 3.9375 1.7617 3.9375 3.9375 0 2.1758-1.7617 3.9375-3.9375 3.9375z"/>
  <path d="m454.12 590.89h-108.24c-2.1719 0-3.9375-1.7617-3.9375-3.9375 0-2.1719 1.7617-3.9375 3.9375-3.9375h108.24c2.1719 0 3.9375 1.7617 3.9375 3.9375-0.003906 2.1758-1.7656 3.9375-3.9414 3.9375z"/>
  <path d="m454.12 561.38h-108.24c-2.1719 0-3.9375-1.7617-3.9375-3.9375 0-2.1719 1.7617-3.9375 3.9375-3.9375h108.24c2.1719 0 3.9375 1.7617 3.9375 3.9375-0.003906 2.1758-1.7656 3.9375-3.9414 3.9375z"/>
  <path d="m454.12 531.86h-108.24c-2.1719 0-3.9375-1.7617-3.9375-3.9375 0-2.1719 1.7617-3.9375 3.9375-3.9375h108.24c2.1719 0 3.9375 1.7617 3.9375 3.9375-0.003906 2.1758-1.7656 3.9375-3.9414 3.9375z"/>
  <path d="m454.12 502.34h-108.24c-2.1719 0-3.9375-1.7617-3.9375-3.9375 0-2.1719 1.7617-3.9375 3.9375-3.9375h108.24c2.1719 0 3.9375 1.7617 3.9375 3.9375-0.003906 2.1758-1.7656 3.9375-3.9414 3.9375z"/>
  <path d="m454.12 472.82h-108.24c-2.1719 0-3.9375-1.7617-3.9375-3.9375 0-2.1719 1.7617-3.9375 3.9375-3.9375h108.24c2.1719 0 3.9375 1.7617 3.9375 3.9375-0.003906 2.1719-1.7656 3.9375-3.9414 3.9375z"/>
  <path d="m454.12 443.29h-108.24c-2.1719 0-3.9375-1.7617-3.9375-3.9375 0-2.1719 1.7617-3.9375 3.9375-3.9375h108.24c2.1719 0 3.9375 1.7617 3.9375 3.9375-0.003906 2.1758-1.7656 3.9375-3.9414 3.9375z"/>
  <path d="m316.36 590.89h-108.24c-2.1719 0-3.9375-1.7617-3.9375-3.9375 0-2.1719 1.7617-3.9375 3.9375-3.9375h108.24c2.1719 0 3.9375 1.7617 3.9375 3.9375-0.003906 2.1758-1.7656 3.9375-3.9375 3.9375z"/>
  <path d="m316.36 561.38h-108.24c-2.1719 0-3.9375-1.7617-3.9375-3.9375 0-2.1719 1.7617-3.9375 3.9375-3.9375h108.24c2.1719 0 3.9375 1.7617 3.9375 3.9375-0.003906 2.1758-1.7656 3.9375-3.9375 3.9375z"/>
  <path d="m316.36 531.86h-108.24c-2.1719 0-3.9375-1.7617-3.9375-3.9375 0-2.1719 1.7617-3.9375 3.9375-3.9375h108.24c2.1719 0 3.9375 1.7617 3.9375 3.9375-0.003906 2.1758-1.7656 3.9375-3.9375 3.9375z"/>
  <path d="m316.36 502.34h-108.24c-2.1719 0-3.9375-1.7617-3.9375-3.9375 0-2.1719 1.7617-3.9375 3.9375-3.9375h108.24c2.1719 0 3.9375 1.7617 3.9375 3.9375-0.003906 2.1758-1.7656 3.9375-3.9375 3.9375z"/>
  <path d="m591.88 413.77h-108.24c-2.1719 0-3.9375-1.7617-3.9375-3.9375 0-2.1719 1.7617-3.9375 3.9375-3.9375h108.24c2.1719 0 3.9375 1.7617 3.9375 3.9375-0.003906 2.1758-1.7656 3.9375-3.9414 3.9375z"/>
  <path d="m591.88 384.25h-108.24c-2.1719 0-3.9375-1.7617-3.9375-3.9375 0-2.1719 1.7617-3.9375 3.9375-3.9375h108.24c2.1719 0 3.9375 1.7617 3.9375 3.9375-0.003906 2.1758-1.7656 3.9375-3.9414 3.9375z"/>
  <path d="m306.52 462.98h-98.402c-2.1719 0-3.9375-1.7617-3.9375-3.9375 0-2.1719 1.7617-3.9375 3.9375-3.9375h94.465v-55.105c0-2.1719 1.7617-3.9375 3.9375-3.9375h133.82v-55.105c0-1.3398 0.67969-2.5859 1.8086-3.3125l137.76-88.559c1.8281-1.1758 4.2656-0.64453 5.4375 1.1836 1.1758 1.8281 0.64844 4.2656-1.1836 5.4414l-135.95 87.398v56.895c0 2.1719-1.7617 3.9375-3.9375 3.9375l-133.82-0.003906v55.105c0 2.1719-1.7617 3.9375-3.9336 3.9375z"/>
  <path d="m582.04 285.86c-2.1719 0-3.9375-1.7617-3.9375-3.9375v-27.723l-23.711-7.9023c-2.0625-0.6875-3.1758-2.918-2.4883-4.9805s2.9219-3.1758 4.9805-2.4883l26.402 8.8008c1.6094 0.53516 2.6914 2.0391 2.6914 3.7344v30.559c0 2.1758-1.7656 3.9375-3.9375 3.9375z"/>
  <path d="m237.64 364.57h-39.359c-2.1719 0-3.9375-1.7617-3.9375-3.9375v-78.719c0-2.1719 1.7617-3.9375 3.9375-3.9375h39.359c2.1719 0 3.9375 1.7617 3.9375 3.9375v78.719c0 2.1758-1.7617 3.9375-3.9375 3.9375zm-35.422-7.8711h31.488v-70.848h-31.488z"/>
  <path d="m277 364.57h-39.363c-2.1719 0-3.9375-1.7617-3.9375-3.9375l0.003906-118.08c0-2.1719 1.7617-3.9375 3.9375-3.9375h39.359c2.1719 0 3.9375 1.7617 3.9375 3.9375v118.08c-0.003906 2.1719-1.7656 3.9336-3.9375 3.9336zm-35.426-7.8711h31.488v-110.21h-31.488z"/>
  <path d="m316.36 364.57h-39.359c-2.1719 0-3.9375-1.7617-3.9375-3.9375v-78.719c0-2.1719 1.7617-3.9375 3.9375-3.9375h39.359c2.1719 0 3.9375 1.7617 3.9375 3.9375v78.719c-0.003906 2.1758-1.7656 3.9375-3.9375 3.9375zm-35.426-7.8711h31.488v-70.848h-31.488z"/>
  <path d="m355.72 364.57h-39.359c-2.1719 0-3.9375-1.7617-3.9375-3.9375v-177.12c0-2.1719 1.7617-3.9375 3.9375-3.9375h39.359c2.1719 0 3.9375 1.7617 3.9375 3.9375v177.12c0 2.1719-1.7656 3.9336-3.9375 3.9336zm-35.426-7.8711h31.488v-169.25h-31.488z"/>
  <path d="m395.08 364.57h-39.359c-2.1719 0-3.9375-1.7617-3.9375-3.9375v-127.92c0-2.1719 1.7617-3.9375 3.9375-3.9375h39.359c2.1719 0 3.9375 1.7617 3.9375 3.9375v127.92c0 2.1719-1.7617 3.9336-3.9375 3.9336zm-35.422-7.8711h31.488l-0.003906-120.05h-31.488z"/>
  <path d="m395.08 364.57h-216.48c-2.1719 0-3.9375-1.7617-3.9375-3.9375 0-2.1719 1.7617-3.9375 3.9375-3.9375h216.48c2.1719 0 3.9375 1.7617 3.9375 3.9375s-1.7617 3.9375-3.9375 3.9375z"/>
  <path d="m484 214.57c-0.10547-0.14062-0.41797-0.37109-0.93359-0.69141-0.51562-0.32031-1.1719-0.66406-1.9727-1.0391-0.80078-0.37109-1.6875-0.72656-2.6641-1.0664-0.97656-0.33594-1.9609-0.57813-2.957-0.71875v7.2422l1.7031 0.42578c1.8125 0.49609 3.4414 1.0391 4.8984 1.625 1.457 0.58594 2.6914 1.3125 3.7031 2.1836 1.0117 0.87109 1.793 1.9258 2.3438 3.168 0.55078 1.2422 0.82812 2.7344 0.82812 4.4727 0 2.0234-0.35547 3.7461-1.0664 5.1641-0.71094 1.418-1.6602 2.582-2.8516 3.4883s-2.5547 1.5898-4.1016 2.0508c-1.543 0.46094-3.168 0.72656-4.8711 0.80078v6.1758h-3.6758l0.011719-6.2266c-2.4492-0.21484-4.8711-0.71094-7.2734-1.4922-2.3984-0.78125-4.5547-1.8125-6.4727-3.0898l3.8359-7.6172c0.14062 0.17969 0.52344 0.47266 1.1445 0.87891 0.62109 0.41016 1.4102 0.83594 2.3711 1.2773 0.96094 0.44531 2.0391 0.87109 3.25 1.2773 1.207 0.41016 2.4492 0.70312 3.7266 0.87891v-7.082l-2.5586-0.74609c-1.7422-0.53516-3.25-1.1094-4.5273-1.7305-1.2773-0.62109-2.3359-1.3398-3.1719-2.1562-0.83594-0.81641-1.457-1.7578-1.8672-2.8242-0.41016-1.0664-0.61328-2.3086-0.61328-3.7266 0-1.8477 0.32031-3.4883 0.96094-4.9258 0.63672-1.4375 1.5-2.6719 2.582-3.7031 1.082-1.0273 2.3594-1.8359 3.832-2.4219s3.0625-0.96875 4.7656-1.1445l0.011719-5.3828h3.6758v5.3789c2.3086 0.21484 4.4727 0.72656 6.5 1.543 2.0234 0.81641 3.7812 1.6523 5.2734 2.5039zm-14.75-0.48047c0 0.88672 0.30859 1.5898 0.93359 2.1055 0.62109 0.51563 1.5547 0.96875 2.7969 1.3594l-0.003906-6.5547c-2.4844 0.21484-3.7266 1.2422-3.7266 3.0898zm10.332 16.938c0-0.92188-0.37109-1.6406-1.1172-2.1562-0.74609-0.51172-1.7422-0.98438-2.9844-1.4102v6.3906c2.7344-0.10937 4.1016-1.0508 4.1016-2.8242z"/>
  <path d="m473.8 266.18c-23.875 0-43.297-19.422-43.297-43.297s19.422-43.297 43.297-43.297 43.297 19.422 43.297 43.297c0 23.871-19.422 43.297-43.297 43.297zm0-78.723c-19.535 0-35.426 15.891-35.426 35.426s15.891 35.426 35.426 35.426 35.426-15.891 35.426-35.426-15.891-35.426-35.426-35.426z"/>
 </g>
</svg>