<?xml version="1.0" encoding="UTF-8"?>
<!-- The Best Svg Icon site in the world: iconSvg.co, Visit us! https://iconsvg.co -->
<svg width="800px" height="800px" version="1.1" viewBox="144 144 512 512" xmlns="http://www.w3.org/2000/svg">
 <defs>
  <clipPath id="a">
   <path d="m148.09 148.09h503.81v503.81h-503.81z"/>
  </clipPath>
 </defs>
 <g clip-path="url(#a)">
  <path d="m618.62 550.68-25.93-30.008c-1.4961-1.7266-3.668-2.7227-5.9531-2.7227h-42.84c-2.2852 0-4.457 0.99609-5.9492 2.7227l-25.93 30.008h-0.003906c-2.668 3.0859-2.5352 7.6992 0.30078 10.629l47.359 48.949c1.4805 1.5312 3.5234 2.3984 5.6602 2.3984 2.1328 0 4.1758-0.86719 5.6602-2.3984l47.359-48.949h-0.003907c2.8281-2.9375 2.9453-7.5508 0.26953-10.629zm-53.309 42.793-36.699-37.926 18.895-21.852h35.645l18.895 21.852zm-157.44-280.07v-7.8711c11.25 0 21.645-6.0039 27.27-15.746 5.625-9.7422 5.625-21.746 0-31.488-5.625-9.7422-16.02-15.742-27.27-15.742h-15.746c-5.625 0-10.82-3-13.633-7.8711s-2.8125-10.875 0-15.746 8.0078-7.8711 13.633-7.8711h15.746c4.1758 0 8.1797 1.6602 11.133 4.6094 2.9531 2.9531 4.6094 6.957 4.6094 11.133 0 4.3477 3.5273 7.875 7.875 7.875 4.3477 0 7.8711-3.5273 7.8711-7.875 0-8.3516-3.3164-16.359-9.2227-22.266-5.9062-5.9023-13.914-9.2227-22.266-9.2227v-7.8711c0-4.3477-3.5234-7.8711-7.8711-7.8711s-7.875 3.5234-7.875 7.8711v7.8711c-11.25 0-21.645 6.0039-27.27 15.746-5.625 9.7422-5.625 21.746 0 31.488 5.625 9.7422 16.02 15.742 27.27 15.742h15.746c5.625 0 10.82 3.0039 13.633 7.875 2.8125 4.8711 2.8125 10.871 0 15.742-2.8125 4.8711-8.0078 7.8711-13.633 7.8711h-15.746c-4.1758 0-8.1797-1.6562-11.133-4.6094-2.9492-2.9531-4.6094-6.957-4.6094-11.133 0-4.3477-3.5234-7.8711-7.8711-7.8711-4.3477 0-7.875 3.5234-7.875 7.8711 0 8.3516 3.3203 16.359 9.2227 22.266 5.9062 5.9023 13.914 9.2227 22.266 9.2227v7.8711c0 4.3477 3.5273 7.8711 7.875 7.8711s7.8711-3.5234 7.8711-7.8711zm-178.76 147.25c1.4766 1.4805 3.4805 2.3125 5.5742 2.3125 2.0898 0 4.0938-0.83203 5.5703-2.3125l22.246-22.246c2.9844-3.0898 2.9414-8-0.09375-11.035s-7.9453-3.0781-11.035-0.097656l-8.8164 8.8203v-28.23c0-6.2656 2.4883-12.27 6.918-16.699 4.4258-4.4297 10.434-6.918 16.699-6.918h267.65c6.2617 0 12.27 2.4883 16.699 6.918 4.4258 4.4297 6.9141 10.434 6.9141 16.699v28.23l-8.832-8.832v-0.003906c-3.0859-2.9805-7.9961-2.9375-11.035 0.097656-3.0352 3.0352-3.0781 7.9453-0.09375 11.035l22.246 22.246c1.4766 1.4805 3.4805 2.3125 5.5742 2.3125 2.0898 0 4.0938-0.83203 5.5703-2.3125l22.246-22.246c2.9844-3.0898 2.9414-8-0.09375-11.035-3.0352-3.0352-7.9453-3.0781-11.035-0.097656l-8.8008 8.8359v-28.23c0-10.441-4.1484-20.449-11.527-27.832-7.3828-7.3828-17.395-11.527-27.832-11.527h-125.95v-16.141c35.52-2.7383 67.055-23.754 83.262-55.477 16.207-31.727 14.746-69.598-3.8516-99.98-18.598-30.383-51.66-48.91-87.281-48.91-35.625 0-68.688 18.527-87.285 48.91-18.598 30.383-20.055 68.254-3.8516 99.98 16.207 31.723 47.746 52.738 83.262 55.477v16.141h-125.95 0.003906c-10.441 0-20.453 4.1445-27.832 11.527-7.3828 7.3828-11.531 17.391-11.531 27.832v28.23l-8.832-8.832v-0.003906c-3.0859-2.9805-7.9961-2.9375-11.035 0.097656-3.0352 3.0352-3.0781 7.9453-0.09375 11.035zm84.293-210.23c0-22.965 9.125-44.992 25.363-61.23s38.262-25.363 61.23-25.363c22.965 0 44.988 9.125 61.227 25.363 16.242 16.238 25.363 38.266 25.363 61.23 0 22.965-9.1211 44.992-25.363 61.23-16.238 16.238-38.262 25.363-61.227 25.363-22.961-0.027344-44.969-9.1562-61.203-25.391-16.234-16.234-25.367-38.246-25.391-61.203zm-78.719 228.29c-22.969 0-44.992 9.125-61.23 25.363s-25.363 38.262-25.363 61.23c0 22.965 9.125 44.988 25.363 61.227 16.238 16.242 38.262 25.363 61.23 25.363 22.965 0 44.988-9.1211 61.227-25.363 16.242-16.238 25.363-38.262 25.363-61.227-0.027344-22.957-9.1602-44.965-25.395-61.199-16.23-16.234-38.238-25.367-61.195-25.395zm0 157.44c-18.793 0-36.812-7.4648-50.098-20.75-13.289-13.289-20.754-31.309-20.754-50.098 0-18.793 7.4648-36.812 20.754-50.098 13.285-13.289 31.305-20.754 50.098-20.754 18.789 0 36.809 7.4648 50.098 20.754 13.285 13.285 20.75 31.305 20.75 50.098 0 18.789-7.4648 36.809-20.75 50.098-13.289 13.285-31.309 20.75-50.098 20.75zm330.62-157.44c-22.969 0-44.992 9.125-61.23 25.363s-25.363 38.262-25.363 61.23c0 22.965 9.125 44.988 25.363 61.227 16.238 16.242 38.262 25.363 61.23 25.363 22.965 0 44.988-9.1211 61.227-25.363 16.242-16.238 25.363-38.262 25.363-61.227-0.027344-22.957-9.1602-44.965-25.395-61.199-16.23-16.234-38.238-25.367-61.195-25.395zm0 157.44c-18.793 0-36.812-7.4648-50.098-20.75-13.289-13.289-20.754-31.309-20.754-50.098 0-18.793 7.4648-36.812 20.754-50.098 13.285-13.289 31.305-20.754 50.098-20.754 18.789 0 36.809 7.4648 50.098 20.754 13.285 13.285 20.75 31.305 20.75 50.098 0 18.789-7.4648 36.809-20.75 50.098-13.289 13.285-31.309 20.75-50.098 20.75zm-335.05-117.01-47.23 32.039c-3.6016 2.4453-4.5391 7.3438-2.0938 10.941 2.4414 3.6016 7.3398 4.5391 10.941 2.0977l3.4453-2.332v43.059c0 2.0898 0.83203 4.0898 2.3086 5.5664 1.4766 1.4766 3.4766 2.3086 5.5664 2.3086h62.977c2.0859 0 4.0898-0.83203 5.5664-2.3086 1.4727-1.4766 2.3047-3.4766 2.3047-5.5664v-43.059l3.4492 2.3477h-0.003906c3.6016 2.4414 8.5 1.5039 10.945-2.0977 1.1719-1.7266 1.6094-3.8516 1.2188-5.9023-0.39453-2.0508-1.5859-3.8633-3.3125-5.0391l-47.23-32.039h-0.003906c-2.668-1.8164-6.1758-1.8242-8.8477-0.015624zm28.039 77.934h-47.23v-45.941l23.617-16.027 23.613 16.027z"/>
 </g>
</svg>