<?xml version="1.0" encoding="UTF-8"?>
<!-- The Best Svg Icon site in the world: iconSvg.co, Visit us! https://iconsvg.co -->
<svg fill="#000000" width="800px" height="800px" version="1.1" viewBox="144 144 512 512" xmlns="http://www.w3.org/2000/svg">
 <g>
  <path d="m171.71 636.16h346.37c2.0898 0 4.0898-0.83203 5.5664-2.3047 1.4766-1.4766 2.3047-3.4805 2.3047-5.5664v-236.16c0-2.0859-0.82812-4.0898-2.3047-5.5664-1.4766-1.4766-3.4766-2.3047-5.5664-2.3047h-23.617v-23.617c0-2.0859-0.82813-4.0898-2.3047-5.5664-1.4766-1.4727-3.4766-2.3047-5.5664-2.3047h-31.488c-4.3477 0-7.8711 3.5234-7.8711 7.8711v23.617h-212.54c-0.91797 0.015625-1.8281 0.19141-2.6875 0.51953-0.23438 0.085937-0.45703 0.21875-0.69141 0.33203-0.64844 0.3125-1.2539 0.71094-1.793 1.1875-0.11719 0.10938-0.27734 0.14844-0.39453 0.26953l-62.977 62.977c-1.4766 1.4727-2.3047 3.4766-2.3086 5.5625v173.19c0 2.0859 0.83203 4.0898 2.3086 5.5664 1.4766 1.4727 3.4766 2.3047 5.5664 2.3047zm181.05-15.742-15.742-0.003907v-39.359c0.007812-1.457 0.15625-2.9102 0.44141-4.3359 0.078125-0.44141 0.20312-0.85938 0.31641-1.2891l-0.003906-0.003907c0.23438-0.96484 0.52734-1.9141 0.88281-2.8398 0.17188-0.44141 0.34766-0.88281 0.54297-1.3086 0.42578-0.91797 0.91016-1.8086 1.4492-2.668 0.20312-0.32422 0.38672-0.66797 0.59766-0.98438 0.78516-1.1211 1.6602-2.1719 2.6211-3.1484 0.16406-0.16406 0.35547-0.30078 0.51953-0.45703 0.83203-0.79688 1.7227-1.5273 2.6602-2.1953 0.36328-0.25 0.73828-0.48047 1.1094-0.71484v-0.003906c0.83203-0.51953 1.6992-0.98828 2.5898-1.3984 0.40234-0.1875 0.78906-0.38672 1.2266-0.55078 0.25-0.09375 0.52734-0.14844 0.78906-0.24219zm31.488 0-15.742-0.003907v-61.527c4.5859 1.6211 8.5625 4.625 11.383 8.5898 2.8164 3.9688 4.3398 8.7109 4.3594 13.578zm125.95 0-110.21-0.003907v-39.359c0-14.062-7.5039-27.055-19.68-34.086-12.18-7.0312-27.184-7.0312-39.363 0-12.176 7.0312-19.68 20.023-19.68 34.086v39.359h-15.742v-157.44h204.67zm-47.23-251.91h15.742v31.488h-15.742zm-15.742 31.488v7.8711h-0.003906c0 2.0859 0.82812 4.0898 2.3047 5.5664 1.4766 1.4766 3.4805 2.3047 5.5664 2.3047h31.488c2.0898 0 4.0898-0.82813 5.5664-2.3047s2.3047-3.4805 2.3047-5.5664v-7.8711h15.742v47.23h-209.28l-47.23-47.23zm-267.65 58.363 55.105-55.105 55.105 55.105-0.003907 162.05h-110.21z"/>
  <path d="m266.18 462.98h-62.977c-4.3477 0-7.875 3.5234-7.875 7.8711v47.23c0 2.0898 0.83203 4.0898 2.3086 5.5664 1.4766 1.4766 3.4766 2.3047 5.5664 2.3047h62.977c2.0859 0 4.0898-0.82812 5.5664-2.3047 1.4727-1.4766 2.3047-3.4766 2.3047-5.5664v-47.23c0-2.0898-0.83203-4.0898-2.3047-5.5664-1.4766-1.4766-3.4805-2.3047-5.5664-2.3047zm-39.359 47.23h-15.746v-31.488h15.742zm31.488 0h-15.746v-31.488h15.742z"/>
  <path d="m266.18 541.7h-62.977c-4.3477 0-7.875 3.5234-7.875 7.8711v47.234c0 2.0859 0.83203 4.0898 2.3086 5.5664 1.4766 1.4727 3.4766 2.3047 5.5664 2.3047h62.977c2.0859 0 4.0898-0.83203 5.5664-2.3047 1.4727-1.4766 2.3047-3.4805 2.3047-5.5664v-47.234c0-2.0859-0.83203-4.0898-2.3047-5.5664-1.4766-1.4766-3.4805-2.3047-5.5664-2.3047zm-39.359 47.23h-15.746v-31.488h15.742zm31.488 0h-15.746v-31.488h15.742z"/>
  <path d="m329.15 525.95h62.977c2.0898 0 4.0898-0.82812 5.5664-2.3047 1.4766-1.4766 2.3086-3.4766 2.3086-5.5664v-31.488c0-2.0859-0.83203-4.0898-2.3086-5.5664-1.4766-1.4766-3.4766-2.3047-5.5664-2.3047h-62.977c-4.3477 0-7.8711 3.5234-7.8711 7.8711v31.488c0 2.0898 0.83203 4.0898 2.3047 5.5664 1.4766 1.4766 3.4805 2.3047 5.5664 2.3047zm39.359-31.488h15.742v15.742l-15.738 0.003906zm-31.488 0h15.742v15.742l-15.738 0.003906z"/>
  <path d="m423.61 525.95h62.977c2.0898 0 4.0898-0.82812 5.5664-2.3047 1.4766-1.4766 2.3047-3.4766 2.3047-5.5664v-31.488c0-2.0859-0.82813-4.0898-2.3047-5.5664-1.4766-1.4766-3.4766-2.3047-5.5664-2.3047h-62.977c-4.3477 0-7.8711 3.5234-7.8711 7.8711v31.488c0 2.0898 0.82812 4.0898 2.3047 5.5664 1.4766 1.4766 3.4805 2.3047 5.5664 2.3047zm39.359-31.488h15.742v15.742l-15.738 0.003906zm-31.488 0h15.742v15.742l-15.738 0.003906z"/>
  <path d="m423.61 604.67h62.977c2.0898 0 4.0898-0.83203 5.5664-2.3047 1.4766-1.4766 2.3047-3.4805 2.3047-5.5664v-47.234c0-2.0859-0.82813-4.0898-2.3047-5.5664s-3.4766-2.3047-5.5664-2.3047h-62.977c-4.3477 0-7.8711 3.5234-7.8711 7.8711v47.234c0 2.0859 0.82812 4.0898 2.3047 5.5664 1.4766 1.4727 3.4805 2.3047 5.5664 2.3047zm39.359-47.23h15.742v31.488l-15.738-0.003907zm-31.488 0h15.742v31.488l-15.738-0.003907z"/>
  <path d="m628.29 163.84h-346.37c-4.3477 0-7.8711 3.5273-7.8711 7.875v157.44c0 2.0898 0.82812 4.0938 2.3047 5.5664 1.4766 1.4766 3.4805 2.3086 5.5664 2.3086h346.37c2.0859 0 4.0898-0.83203 5.5664-2.3086 1.4727-1.4727 2.3047-3.4766 2.3047-5.5664v-157.44c0-2.0898-0.83203-4.0898-2.3047-5.5664-1.4766-1.4766-3.4805-2.3086-5.5664-2.3086zm-7.875 157.44h-330.62v-141.7h330.62z"/>
  <path d="m313.41 289.79c2.0859 0 4.0898 0.83203 5.5664 2.3086 1.4766 1.4727 2.3047 3.4766 2.3047 5.5664 0 2.0859 0.83203 4.0898 2.3047 5.5664 1.4766 1.4727 3.4805 2.3047 5.5664 2.3047h251.91c2.0898 0 4.0898-0.83203 5.5664-2.3047 1.4766-1.4766 2.3047-3.4805 2.3047-5.5664 0-4.3477 3.5273-7.875 7.875-7.875 2.0859 0 4.0898-0.82812 5.5664-2.3047 1.4727-1.4766 2.3047-3.4766 2.3047-5.5664v-62.977c0-2.0859-0.83203-4.0898-2.3047-5.5664-1.4766-1.4766-3.4805-2.3047-5.5664-2.3047-4.3477 0-7.875-3.5234-7.875-7.8711 0-2.0898-0.82812-4.0898-2.3047-5.5664-1.4766-1.4766-3.4766-2.3086-5.5664-2.3086h-251.91c-4.3477 0-7.8711 3.5273-7.8711 7.875 0 2.0859-0.82812 4.0898-2.3047 5.5664-1.4766 1.4766-3.4805 2.3047-5.5664 2.3047-4.3477 0-7.8711 3.5234-7.8711 7.8711v62.977c0 2.0898 0.82812 4.0898 2.3047 5.5664 1.4766 1.4766 3.4805 2.3047 5.5664 2.3047zm169.48-78.719h91.645c2.3906 6.7188 7.6797 12.008 14.398 14.398v49.926-0.003906c-6.7188 2.3906-12.008 7.6797-14.398 14.398h-91.645c7.8516-11.602 11.898-25.355 11.578-39.359 0.32031-14.004-3.7266-27.758-11.578-39.359zm-27.781 0c12.801 0 23.617 18.027 23.617 39.359 0 21.332-10.816 39.359-23.617 39.359-12.801 0-23.617-18.027-23.617-39.359 0.003906-21.332 10.82-39.359 23.617-39.359zm-133.82 14.398c6.7227-2.3906 12.008-7.6797 14.398-14.398h91.648c-7.8516 11.602-11.898 25.355-11.582 39.359-0.31641 14.004 3.7305 27.758 11.582 39.359h-91.648c-2.3906-6.7188-7.6758-12.008-14.398-14.398z"/>
  <path d="m376.38 274.05c6.2617 0 12.27-2.4883 16.699-6.918 4.4297-4.4297 6.918-10.434 6.918-16.699 0-6.2617-2.4883-12.27-6.918-16.699-4.4297-4.4297-10.438-6.918-16.699-6.918-6.2656 0-12.27 2.4883-16.699 6.918-4.4297 4.4297-6.918 10.438-6.918 16.699 0 6.2656 2.4883 12.27 6.918 16.699 4.4297 4.4297 10.434 6.918 16.699 6.918zm0-31.488c3.1836 0 6.0547 1.918 7.2734 4.8594 1.2188 2.9414 0.54297 6.3281-1.707 8.5781s-5.6367 2.9258-8.5781 1.707-4.8594-4.0898-4.8594-7.2734c0-4.3477 3.5234-7.8711 7.8711-7.8711z"/>
  <path d="m533.82 274.05c6.2617 0 12.27-2.4883 16.699-6.918 4.4258-4.4297 6.9141-10.434 6.9141-16.699 0-6.2617-2.4883-12.27-6.9141-16.699-4.4297-4.4297-10.438-6.918-16.699-6.918-6.2656 0-12.273 2.4883-16.699 6.918-4.4297 4.4297-6.918 10.438-6.918 16.699 0 6.2656 2.4883 12.27 6.918 16.699 4.4258 4.4297 10.434 6.918 16.699 6.918zm0-31.488c3.1836 0 6.0547 1.918 7.2734 4.8594 1.2148 2.9414 0.54297 6.3281-1.707 8.5781-2.2539 2.25-5.6367 2.9258-8.582 1.707-2.9414-1.2188-4.8594-4.0898-4.8594-7.2734 0-4.3477 3.5273-7.8711 7.875-7.8711z"/>
  <path d="m179.58 297.66h51.844l-10.176 10.176 11.133 11.133 23.617-23.617h-0.003906c3.0742-3.0742 3.0742-8.0586 0-11.129l-23.617-23.617-11.129 11.129 10.176 10.18h-59.715c-4.3477 0-7.875 3.5234-7.875 7.8711v94.465h15.746z"/>
  <path d="m620.41 455.1h-51.844l10.18-10.18-11.133-11.133-23.617 23.617v0.003906c-3.0703 3.0742-3.0703 8.0547 0 11.129l23.617 23.617 11.133-11.133-10.18-10.176h59.719c2.0859 0 4.0898-0.83203 5.5664-2.3047 1.4727-1.4766 2.3047-3.4805 2.3047-5.5664v-94.465h-15.746z"/>
 </g>
</svg>