<?xml version="1.0" encoding="UTF-8"?>
<!-- The Best Svg Icon site in the world: iconSvg.co, Visit us! https://iconsvg.co -->
<svg fill="#000000" width="800px" height="800px" version="1.1" viewBox="144 144 512 512" xmlns="http://www.w3.org/2000/svg">
 <path d="m384.25 368.51c0 4.1758 1.6602 8.1797 4.6133 11.133 2.9531 2.9531 6.957 4.6094 11.133 4.6094 14.887 0.11719 28.848 7.2461 37.672 19.234 8.8242 11.992 11.48 27.441 7.1641 41.691-4.3164 14.246-15.098 25.625-29.094 30.707v2.832c0 5.625-3 10.824-7.8711 13.633-4.8711 2.8125-10.875 2.8125-15.746 0-4.8711-2.8086-7.8711-8.0078-7.8711-13.633v-2.832c-9.1875-3.25-17.145-9.2617-22.781-17.211-5.6367-7.9453-8.6797-17.445-8.707-27.188 0-5.625 3-10.824 7.8711-13.637 4.8711-2.8125 10.875-2.8125 15.746 0 4.8711 2.8125 7.8711 8.0117 7.8711 13.637 0 4.1758 1.6602 8.1797 4.6133 11.133 2.9531 2.9492 6.957 4.6094 11.133 4.6094s8.1797-1.6602 11.133-4.6094c2.9492-2.9531 4.6094-6.957 4.6094-11.133s-1.6602-8.1836-4.6094-11.133c-2.9531-2.9531-6.957-4.6133-11.133-4.6133-14.891-0.11328-28.852-7.2422-37.676-19.234-8.8242-11.992-11.48-27.441-7.1641-41.688 4.3164-14.25 15.098-25.629 29.094-30.707v-2.8359c0-5.625 3-10.82 7.8711-13.633s10.875-2.8125 15.746 0 7.8711 8.0078 7.8711 13.633v2.8359c9.1875 3.2461 17.145 9.2578 22.781 17.207 5.6406 7.9492 8.6797 17.445 8.707 27.191 0 5.625-3 10.82-7.8711 13.633s-10.875 2.8125-15.746 0c-4.8711-2.8125-7.8711-8.0078-7.8711-13.633s-3-10.824-7.8711-13.637-10.875-2.8125-15.746 0-7.8711 8.0117-7.8711 13.637zm171.61 187.35c-41.285 40.957-97.082 63.941-155.23 63.941-58.156 0-113.95-22.984-155.24-63.941-40.957-41.285-63.938-97.082-63.938-155.23 0-58.156 22.98-113.95 63.938-155.24 41.285-40.957 97.082-63.938 155.24-63.938 58.152 0 113.95 22.98 155.23 63.938 40.957 41.285 63.941 97.082 63.941 155.24 0 58.152-22.984 113.95-63.941 155.23 0 0 0.16016-0.15625 0 0zm-299.14-34.008 22.199-22.355c-19.848-23.809-32.223-52.945-35.582-83.758h-31.488c3.2188 39.117 18.637 76.234 44.086 106.12zm-44.871-137.6h31.488c3.1328-30.727 15.234-59.855 34.797-83.758l-22.199-22.355c-25.449 29.879-40.867 66.996-44.086 106.11zm332.2-106.11-22.195 22.355c19.844 23.809 32.223 52.945 35.578 83.758h31.488c-3.4375-39.207-19.137-76.332-44.871-106.11zm-18.105 121.86c0-33.406-13.27-65.441-36.891-89.062-23.617-23.621-55.656-36.891-89.059-36.891-33.406 0-65.441 13.27-89.062 36.891s-36.891 55.656-36.891 89.062c0 33.402 13.27 65.441 36.891 89.059 23.621 23.621 55.656 36.891 89.062 36.891 33.402 0 65.441-13.27 89.059-36.891 23.621-23.617 36.891-55.656 36.891-89.059zm-4.0938-144.06h0.003906c-29.883-25.449-67-40.867-106.12-44.086v31.488c30.727 3.1328 59.855 15.234 83.758 34.797zm-137.6-44.086c-39.117 3.2188-76.234 18.637-106.11 44.086l22.355 22.199c23.902-19.562 53.031-31.664 83.758-34.797zm-106.11 332.2c29.781 25.734 66.906 41.434 106.11 44.871v-31.488c-30.727-3.1289-59.855-15.23-83.758-34.793zm137.6 44.871c39.117-3.2148 76.234-18.637 106.12-44.082l-22.355-22.199h-0.003906c-23.902 19.562-53.031 31.664-83.758 34.793zm128.31-66.281c25.887-29.992 41.594-67.422 44.871-106.9h-31.488c-3.1289 30.727-15.23 59.855-34.793 83.758z"/>
</svg>