<?xml version="1.0" encoding="UTF-8"?>
<!-- The Best Svg Icon site in the world: iconSvg.co, Visit us! https://iconsvg.co -->
<svg width="800px" height="800px" version="1.1" viewBox="144 144 512 512" xmlns="http://www.w3.org/2000/svg">
 <defs>
  <clipPath id="b">
   <path d="m148.09 188h42.906v43h-42.906z"/>
  </clipPath>
  <clipPath id="a">
   <path d="m609 569h42.902v43h-42.902z"/>
  </clipPath>
 </defs>
 <path d="m433.45 523v22.906c0 3.2578-2.7227 6.6133-5.9805 6.6133h-71.254c-3.2578 0-5.4219-3.3555-5.4219-6.6133v-22.906h-157.44v37.391h396.55v-37.391z"/>
 <path d="m427.48 511.19h130.95v-210.58h-74.625c0.46484 3.9375 0.73047 7.6953 0.73047 11.586 0 51.555-41.945 93.523-93.504 93.523-51.531 0-93.453-42.023-93.453-93.574 0-3.8906 0.26563-7.5977 0.73047-11.535h-74.438v210.58z"/>
 <path d="m391.02 393.97c45.055 0 81.707-36.648 81.707-81.699 0-45.035-36.652-81.672-81.707-81.672-45.023 0-81.656 36.637-81.656 81.672 0 45.051 36.633 81.699 81.656 81.699zm-24.074-58.219c1.4805-2.8984 5.1367-4.0508 8.0391-2.5664 10.734 5.4844 20.164 3.4219 24.988-0.015625 2.6914-1.9141 4.0938-4.3438 3.793-6.4922-0.47266-3.3984-5.0117-6.918-12.047-9.4141-19.164-6.8242-24.977-17.887-23.734-25.969 1.1406-7.4297 8.3945-12.859 16.266-14.699v-10.824c0-3.2578 2.6445-5.8984 5.9023-5.8984s5.9023 2.6406 5.9023 5.8984v10.375c4.9219 0.38281 8.3203 1.2422 12.559 2.5664 3.1094 0.97266 5.1562 4.2812 4.1836 7.3906-0.97266 3.1094-4.2422 4.8398-7.3438 3.8672-5.25-1.6445-10.02-2.3984-14.23-2.2383-0.023437 0-0.039062 0.003906-0.0625 0.003906-6.8047 0.26172-10.75 2.8867-11.129 5.3555-0.4375 2.8477 3.3633 8.6719 15.688 13.059 15.641 5.5508 19.016 14.223 19.668 18.898 0.92188 6.5898-2.625 13.219-8.9688 17.734-2.9531 2.1016-6.4258 3.6094-10.363 4.5156v11.496c0 3.2578-2.6484 5.8984-5.9023 5.8984-3.2578 0-5.9023-2.6406-5.9023-5.8984v-10.613c-3.9375-0.44531-10.047-1.9375-15.047-4.4922-2.8984-1.4805-3.7422-5.0352-2.2578-7.9375z"/>
 <path d="m362.61 523h59.039v17.711h-59.039z"/>
 <path d="m581.66 239.61c5.2617 0 9.5391-4.2812 9.5391-9.5391 0-5.2617-4.2812-9.5391-9.5391-9.5391-5.2539 0-9.5312 4.2812-9.5312 9.5391 0 5.2617 4.2773 9.5391 9.5312 9.5391z"/>
 <path d="m193.98 377.37h4.3828c2.0508 0 3.957-0.83203 5.0312-2.5859 1.0703-1.75 1.1562-3.8164 0.22266-5.6445l-21.125-41.312c-1.0156-1.9883-3.1133-3.2422-5.3047-3.1875-2.2344 0.019531-4.2656 1.3125-5.2461 3.3203l-20.25 41.379c-0.89453 1.8281-0.78516 3.7578 0.29297 5.4844 1.082 1.7266 2.9727 2.5469 5.0078 2.5469h4.4727l0.42578 103.69c0.015625 3.2578 2.6836 6.0469 5.9219 5.9883 3.2578-0.015625 5.8867-2.6055 5.875-5.8633l-0.44922-109.54c-0.015626-3.25-2.6484-6.0859-5.8984-6.0859h-0.89453l10.902-22.281 11.379 22.281h-0.66797c-1.5703 0-3.0742 0.86328-4.1797 1.9766-1.1055 1.1133-1.7266 2.7383-1.7188 4.3047l0.44922 109.59c0.015625 3.25 2.6523 6.1406 5.8984 6.1406h0.023437c3.2578 0 5.8867-3.1055 5.875-6.3633z"/>
 <path d="m629.59 445.31c-1.0742-1.75-2.9766-2.9961-5.0312-2.9961h-4.1406v-103.04c0-3.2578-2.6445-5.8984-5.9023-5.8984-3.2578 0-5.9023 2.6406-5.9023 5.8984v109.29c0 3.2578 2.3711 5.5547 5.6289 5.5547h0.68359l-11.383 22.285-10.902-22.289h0.88672c3.2578 0 6.2305-2.2969 6.2305-5.5547l-0.003906-109.29c0-3.2578-2.6445-5.8984-5.9023-5.8984-3.2578 0-5.9023 2.6406-5.9023 5.8984l-0.003906 103.04h-4.7578c-2.0352 0-3.9258 1.2266-5.0039 2.9531-1.0781 1.7266-1.1875 3.9727-0.29297 5.8008l20.238 41.223c0.98047 2.0078 3.0117 3.1562 5.2461 3.1562h0.050781c2.2148 0 4.2422-1.0508 5.2539-3.0234l21.133-41.363c0.93359-1.8242 0.84766-4-0.22266-5.75z"/>
 <g clip-path="url(#b)">
  <path d="m158.16 229.09 11.266-11.27 11.266 11.27c1.1523 1.1523 2.6602 1.7266 4.1719 1.7266 1.5078 0 3.0195-0.57422 4.1719-1.7266 2.3047-2.3047 2.3047-6.0352 0-8.3398l-11.27-11.273 11.27-11.273c2.3008-2.3047 2.3008-6.0391 0-8.3398-2.3047-2.3047-6.0391-2.3008-8.3398 0l-11.266 11.27-11.266-11.27c-2.3008-2.3008-6.0352-2.3008-8.3398 0-2.3047 2.3047-2.3047 6.0391 0 8.3398l11.27 11.273-11.277 11.273c-2.3008 2.3047-2.3008 6.0391 0 8.3398 2.3047 2.3047 6.0391 2.3047 8.3438 0z"/>
 </g>
 <g clip-path="url(#a)">
  <path d="m646 584.99h-9.8438v-9.9023c0-3.2578-2.6445-5.8984-5.9023-5.8984-3.2578 0-5.9023 2.6406-5.9023 5.8984l-0.003907 9.9023h-9.2227c-3.2578 0-5.8984 2.6445-5.8984 5.9023 0 3.2578 2.6406 5.9023 5.8984 5.9023l9.2227 0.003906v9.1641c0 3.2578 2.6445 5.8984 5.9023 5.8984 3.2578 0 5.9023-2.6406 5.9023-5.8984l0.003906-9.1641h9.8477c3.2578 0 5.8984-2.6445 5.8984-5.9023-0.003906-3.2617-2.6445-5.9062-5.9023-5.9062z"/>
 </g>
 <path d="m492.52 217.96h9.8203v10.145c0 3.2578 2.6445 5.8984 5.9023 5.8984 3.2578 0 5.9023-2.6406 5.9023-5.8984l0.003906-10.145h9.2461c3.2578 0 5.8984-2.6484 5.8984-5.9023 0-3.2578-2.6406-5.9023-5.8984-5.9023l-9.2461-0.003906v-8.9258c0-3.2578-2.6445-5.8984-5.9023-5.8984-3.2578 0-5.9023 2.6406-5.9023 5.8984l-0.003906 8.9258h-9.8203c-3.2578 0-5.8984 2.6484-5.8984 5.9023 0 3.2617 2.6406 5.9062 5.8984 5.9062z"/>
</svg>