<?xml version="1.0" encoding="UTF-8"?>
<!-- The Best Svg Icon site in the world: iconSvg.co, Visit us! https://iconsvg.co -->
<svg fill="#000000" width="800px" height="800px" version="1.1" viewBox="144 144 512 512" xmlns="http://www.w3.org/2000/svg">
 <g>
  <path d="m394.09 174.01c-14.762 1.0312-29.613 12.98-41.539 34.082-15.961 29.266-24.383 75.367-21.23 117.41 1.4297 22.414 5.7305 43.008 11.801 66.621h50.969z"/>
  <path d="m330.94 392.12c-5.8359-22.633-9.9688-43.492-11.395-65.809-3.3086-44.09 5.5508-92.648 22.57-123.85 6.793-12.023 13.848-20.652 20.762-26.734-30.715 7.9961-57.621 25.699-75.867 50.488-20.641 28.582-29.816 64.617-25.137 98.934 3.0859 23.652 12.496 46.309 23.594 66.973z"/>
  <path d="m447.16 208.12c-11.887-21.031-26.5-33.082-41.262-34.113v218.11h50.504c6.0664-23.617 10.426-44.207 11.852-66.562 3.1562-42.105-5.0859-88.094-21.094-117.44z"/>
  <path d="m452.91 553.5c0.019532 11.07-3.4414 21.871-9.8867 30.871-6.4414 9.0039-15.551 15.758-26.035 19.312h66.133l20.195-22.043v-57.293l-19.891-21.031h-66.434c10.484 3.5547 19.594 10.309 26.035 19.312 6.4453 9 9.9023 19.797 9.8828 30.871z"/>
  <path d="m305.36 426.8c8.1914 13.309 16.516 27.316 24.613 41.094h139.4c3.9922-5.9023 8.0234-13.523 11.941-20.09 4.5742-7.6758 9.3047-15.516 13.965-23.191 4.0078-6.6484 8.1406-12.809 12.195-20.68h-215.51c4.4336 7.8711 8.9883 15.516 13.398 22.867z"/>
  <path d="m273.06 626.32h253.87v-146.62h-253.87zm11.809-104.3c-0.023438-1.4961 0.53125-2.9414 1.5508-4.0352l23.625-24.832c1.1367-1.125 2.6914-1.7188 4.2891-1.6445h171.66c1.5977-0.074219 3.1562 0.53125 4.2812 1.6719l23.328 24.895c1 1.0703 1.543 2.4844 1.5195 3.9453v61.973c0.027344 1.5195-0.52734 2.9922-1.5508 4.1211l-23.625 25.25v-0.003907c-1.0859 1.2539-2.6289 2.0234-4.2852 2.1328h-171.33c-1.6602-0.10938-3.2031-0.87891-4.2891-2.1328l-23.625-25.164v-0.003907c-1.0234-1.1562-1.5781-2.6562-1.5508-4.2031z"/>
  <path d="m383.01 603.69c-14.059-4.7891-25.465-15.254-31.441-28.848-5.9766-13.594-5.9766-29.074-0.003906-42.668 5.9766-13.598 17.379-24.062 31.438-28.852h-66.125l-20.195 21.055v57.27l20.195 22.043z"/>
  <path d="m495.23 206.69c-16.754-15.133-36.984-25.895-58.898-31.328 7.0078 6.082 14.156 14.672 21.031 26.836 17.062 31.281 25.922 80.031 22.609 124.18-1.4219 22.262-5.5508 43.117-11.387 65.746h45.469c11.281-20.664 20.961-43.496 24.133-67.504 5.7148-43.121-10.746-88.359-42.957-117.93z"/>
  <path d="m358.89 553.01c0 10.902 4.332 21.359 12.043 29.066 7.707 7.707 18.164 12.039 29.066 12.039s21.359-4.332 29.066-12.043c7.7109-7.707 12.043-18.164 12.039-29.066 0-10.902-4.3281-21.359-12.039-29.07-7.7109-7.707-18.164-12.039-29.066-12.039-10.902 0.011718-21.352 4.3477-29.059 12.055-7.707 7.707-12.039 18.16-12.051 29.059zm41.109 7.457c-5.75 0.003906-11.152-2.7266-14.562-7.3555-3.4062-4.625-4.4102-10.598-2.7031-16.086 1.7109-5.4844 5.9258-9.832 11.359-11.707v-3.6406c0-3.2617 2.6445-5.9062 5.9062-5.9062 3.2578 0 5.9023 2.6445 5.9023 5.9062v3.6406c3.5508 1.2305 6.6289 3.5312 8.8125 6.5898 2.1797 3.0625 3.3555 6.7227 3.3633 10.48 0 3.2578-2.6445 5.9023-5.9062 5.9023-3.2578 0-5.9023-2.6445-5.9023-5.9023 0-2.5391-1.5273-4.8242-3.8711-5.793-2.3438-0.97266-5.0391-0.4375-6.8359 1.3594-1.793 1.793-2.3281 4.4883-1.3594 6.832 0.97266 2.3438 3.2578 3.8711 5.7969 3.8711 5.8672 0 11.371 2.8438 14.758 7.6367 3.3867 4.7891 4.2383 10.926 2.2852 16.457-1.957 5.5312-6.4766 9.7695-12.125 11.367v2.5039c0 3.2617-2.6445 5.9062-5.9023 5.9062-3.2617 0-5.9062-2.6445-5.9062-5.9062v-3.1758c-3.3086-1.3672-6.1367-3.6836-8.1289-6.6602-1.9922-2.9727-3.0547-6.4688-3.0625-10.051 0-3.2578 2.6445-5.9023 5.9062-5.9023s5.9023 2.6445 5.9023 5.9023c0.003907 2.9531 2.0625 5.5039 4.9492 6.1289 0.11328-0.007813 0.22656-0.019532 0.33984-0.019532 0.43359 0.003906 0.86328 0.050782 1.2891 0.14844 3.3945-0.17188 6.0312-3.0156 5.9492-6.4141-0.082031-3.3945-2.8555-6.1094-6.2539-6.1133z"/>
 </g>
</svg>