<?xml version="1.0" encoding="UTF-8"?>
<!-- The Best Svg Icon site in the world: iconSvg.co, Visit us! https://iconsvg.co -->
<svg fill="#000000" width="800px" height="800px" version="1.1" viewBox="144 144 512 512" xmlns="http://www.w3.org/2000/svg">
 <g>
  <path d="m402.95 505.7c0 3.9336-5.9023 3.9336-5.9023 0s5.9023-3.9336 5.9023 0"/>
  <path d="m402.95 544.16c0 3.9336-5.9023 3.9336-5.9023 0s5.9023-3.9336 5.9023 0"/>
  <path d="m440.34 283.21v-74.301c0-14.414-7.6914-27.734-20.172-34.941-12.484-7.207-27.863-7.207-40.344 0-12.484 7.207-20.172 20.527-20.172 34.941v74.297c25.719-11.25 54.965-11.25 80.688 0z"/>
  <path d="m402.95 582.62c0 3.9336-5.9023 3.9336-5.9023 0 0-3.9336 5.9023-3.9336 5.9023 0"/>
  <path d="m454.84 368.51h12.859c-1.3047-13.852-6.7695-26.984-15.672-37.676l-9.0742 9.1758-0.003906 0.003906c-2.3125 2.25-6.0078 2.2266-8.293-0.058594-2.2812-2.2812-2.3086-5.9766-0.054688-8.293l9.0742-9.0742c-10.672-8.9961-23.867-14.469-37.773-15.672v12.859c0 3.2617-2.6445 5.9062-5.9023 5.9062-3.2617 0-5.9062-2.6445-5.9062-5.9062v-12.859c-13.906 1.2031-27.102 6.6758-37.773 15.672l9.0742 9.0703c1.125 1.1016 1.7578 2.6055 1.7656 4.1797 0.003906 1.5742-0.62109 3.0859-1.7344 4.1953-1.1172 1.1094-2.6328 1.7266-4.207 1.7148-1.5742-0.015625-3.0742-0.65625-4.1719-1.7852l-9.0742-9.125v-0.003906c-8.9062 10.691-14.367 23.824-15.672 37.676h12.859c3.2578 0 5.9023 2.6406 5.9023 5.9023 0 3.2617-2.6445 5.9062-5.9023 5.9062h-12.859c1.1133 13.957 6.5977 27.207 15.672 37.875l9.0742-8.9727c2.3125-2.2539 6.0078-2.2266 8.293 0.054688 2.2812 2.2852 2.3086 5.9805 0.054687 8.293l-9.0742 9.0742c10.676 8.9961 23.867 14.469 37.773 15.672v-12.859c0-3.2617 2.6445-5.9023 5.9062-5.9023 3.2578 0 5.9023 2.6406 5.9023 5.9023v12.859c13.906-1.2031 27.102-6.6797 37.773-15.68l-9.0742-9.082v0.003906c-2.3164-2.3047-2.3242-6.0508-0.019531-8.3672 2.3047-2.3164 6.0508-2.3281 8.3672-0.019531l9.0742 9.0234h0.003906c9.0703-10.668 14.555-23.918 15.672-37.875h-12.859c-3.2617 0-5.9062-2.6445-5.9062-5.9062 0-3.2617 2.6445-5.9023 5.9062-5.9023zm-54.84-0.13672c6.7578-0.003906 13.086 3.3125 16.926 8.875 3.8398 5.5625 4.7031 12.656 2.3047 18.973-2.3984 6.3203-7.75 11.059-14.312 12.672v2.9102c0 3.2617-2.6445 5.9062-5.9023 5.9062-3.2617 0-5.9062-2.6445-5.9062-5.9062v-3.5039c-3.9961-1.4219-7.457-4.0469-9.9023-7.5117-2.4492-3.4648-3.7656-7.6016-3.7734-11.848 0-3.2578 2.6406-5.9023 5.9023-5.9023 3.2617 0 5.9062 2.6445 5.9062 5.9023 0 3.543 2.1328 6.7383 5.4062 8.0938 3.2695 1.3555 7.0391 0.60547 9.543-1.8984 2.5039-2.5039 3.2539-6.2734 1.8984-9.543-1.3555-3.2734-4.5508-5.4062-8.0898-5.4062-6.6406-0.003906-12.871-3.207-16.73-8.6055-3.8594-5.4023-4.8789-12.336-2.7305-18.617 2.1484-6.2812 7.1953-11.137 13.555-13.043v-3.8828c0-3.2617 2.6445-5.9062 5.9062-5.9062 3.2578 0 5.9023 2.6445 5.9023 5.9062v3.8789c4.2344 1.2734 7.9453 3.875 10.586 7.4219s4.0703 7.8516 4.0742 12.273c0 3.2617-2.6406 5.9023-5.9023 5.9023-3.2617 0-5.9023-2.6406-5.9023-5.9023 0-3.543-2.1367-6.7344-5.4062-8.0898-3.2734-1.3555-7.0391-0.60938-9.5469 1.8984-2.5039 2.5039-3.2539 6.2695-1.8984 9.543 1.3555 3.2734 4.5508 5.4062 8.0938 5.4062z"/>
  <path d="m359.66 466.03v125.06c0 14.41 7.6875 27.73 20.172 34.938 12.48 7.207 27.859 7.207 40.344 0 12.48-7.207 20.172-20.527 20.172-34.938v-125.06c-25.719 11.25-54.969 11.25-80.688 0zm40.344 131.35v-0.003906c-3.918 0-7.6719-1.5547-10.438-4.3203-2.7695-2.7695-4.3242-6.5234-4.3242-10.438 0-3.9141 1.5547-7.668 4.3242-10.438 2.7656-2.7695 6.5195-4.3242 10.438-4.3242 3.9141 0 7.668 1.5547 10.434 4.3242 2.7695 2.7695 4.3242 6.5234 4.3242 10.438-0.003906 3.9141-1.5586 7.6641-4.3281 10.434-2.7656 2.7656-6.5195 4.3203-10.43 4.3242zm0-38.457v-0.003906c-3.918 0-7.6719-1.5547-10.438-4.3203-2.7695-2.7695-4.3242-6.5234-4.3242-10.438 0-3.9141 1.5547-7.6719 4.3242-10.438 2.7656-2.7695 6.5195-4.3242 10.438-4.3242 3.9141 0 7.668 1.5547 10.434 4.3242 2.7695 2.7656 4.3242 6.5234 4.3242 10.438-0.003906 3.9102-1.5625 7.6641-4.3281 10.43-2.7656 2.7656-6.5195 4.3203-10.43 4.3242zm14.762-53.215-0.003907-0.003906c0 3.9141-1.5547 7.668-4.3242 10.438-2.7656 2.7695-6.5195 4.3242-10.434 4.3242-3.918 0-7.6719-1.5547-10.438-4.3242-2.7695-2.7695-4.3242-6.5234-4.3242-10.438s1.5547-7.668 4.3242-10.438c2.7656-2.7656 6.5195-4.3203 10.438-4.3203 3.9102 0.003907 7.6641 1.5586 10.43 4.3242 2.7695 2.7695 4.3242 6.5195 4.3281 10.434z"/>
  <path d="m400 286.58c-23.352 0-45.746 9.2734-62.258 25.785-16.508 16.512-25.785 38.906-25.785 62.254 0 23.352 9.2773 45.746 25.785 62.254 16.512 16.512 38.906 25.789 62.258 25.789 23.348 0 45.742-9.2773 62.254-25.789 16.512-16.508 25.785-38.902 25.785-62.254-0.027343-23.34-9.3086-45.719-25.816-62.223-16.504-16.508-38.883-25.793-62.223-25.816zm0 167.82c-21.16 0-41.453-8.4062-56.414-23.367-14.961-14.961-23.367-35.254-23.367-56.414 0-21.156 8.4062-41.449 23.367-56.41 14.961-14.965 35.254-23.367 56.414-23.367 21.156 0 41.449 8.4023 56.41 23.367 14.965 14.961 23.367 35.254 23.367 56.41-0.023438 21.152-8.4375 41.43-23.391 56.387-14.957 14.957-35.238 23.371-56.387 23.395z"/>
 </g>
</svg>