<?xml version="1.0" encoding="UTF-8"?>
<!-- The Best Svg Icon site in the world: iconSvg.co, Visit us! https://iconsvg.co -->
<svg fill="#000000" width="800px" height="800px" version="1.1" viewBox="144 144 512 512" xmlns="http://www.w3.org/2000/svg">
 <g>
  <path d="m628.29 470.85h-26.875c10.969-6.3477 19.996-15.566 26.121-26.66 6.1211-11.098 9.1016-23.652 8.625-36.316 0-34.598-25.254-83.758-52.742-104.83l21.953-41.02c1.3047-2.4375 1.2383-5.3789-0.17969-7.75-1.4141-2.3711-3.9688-3.8281-6.7305-3.8398h-129.27c-2.7188-0.003907-5.2422 1.3945-6.6836 3.6953s-1.5938 5.1836-0.40234 7.625l20.09 41.148c-26.812 20.641-50.703 69.066-50.703 104.97-0.48047 12.664 2.5 25.219 8.625 36.316 6.1211 11.094 15.152 20.312 26.121 26.66h-113.47v-122.7l18.051 18.051 11.133-11.133-102.34-102.34v0.003906c-3.0742-3.0742-8.0586-3.0742-11.133 0l-102.34 102.34 11.133 11.133 18.047-18.055v122.7h-23.613c-4.3477 0-7.875 3.5234-7.875 7.8711v31.488c0 2.0859 0.83203 4.0898 2.3086 5.5664 1.4766 1.4766 3.4766 2.3047 5.5664 2.3047h193.54l-18.051 18.051c-2.25 2.25-2.9219 5.6367-1.7031 8.5781 1.2188 2.9414 4.0859 4.8594 7.2695 4.8594h94.465c3.1836 0 6.0547-1.918 7.2695-4.8594 1.2188-2.9414 0.54688-6.3281-1.7031-8.5781l-18.051-18.051h193.54c2.0859 0 4.0898-0.82812 5.5664-2.3047 1.4727-1.4766 2.3047-3.4805 2.3047-5.5664v-31.488c0-2.0859-0.83203-4.0898-2.3047-5.5664-1.4766-1.4766-3.4805-2.3047-5.5664-2.3047zm-146.49-204.67h103.52l-16.859 31.488h-71.289zm-34.566 141.7c0-32.008 23.672-78.719 47.438-94.465h76.152c24.82 16.305 49.594 63.07 49.594 94.465 0 54.797-54.254 62.977-86.594 62.977-32.336 0-86.59-8.1797-86.59-62.977zm-236.16-75.461 62.977-62.977 62.977 62.977v138.44h-31.488v-55.105c0-2.0859-0.83203-4.0898-2.3047-5.5664-1.4766-1.4766-3.4805-2.3047-5.5664-2.3047h-47.234c-4.3477 0-7.8711 3.5234-7.8711 7.8711v55.105h-31.488zm78.719 138.44h-31.488v-47.234h31.488zm81.98 62.977 28.23-28.23 28.227 28.23zm248.64-31.488h-201.41l-13.438-13.438c-3.0742-3.0742-8.0547-3.0742-11.129 0l-13.438 13.438h-201.41v-15.746h440.83z"/>
  <path d="m242.56 384.25h62.977c2.0859 0 4.0898-0.82812 5.5664-2.3047 1.4766-1.4766 2.3047-3.4805 2.3047-5.5664v-47.234c0-2.0859-0.82812-4.0898-2.3047-5.5664-1.4766-1.4727-3.4805-2.3047-5.5664-2.3047h-62.977c-4.3477 0-7.8711 3.5234-7.8711 7.8711v47.234c0 2.0859 0.82812 4.0898 2.3047 5.5664 1.4766 1.4766 3.4766 2.3047 5.5664 2.3047zm55.105-15.742h-15.746v-31.488h15.742zm-47.23-31.488h15.742v31.488h-15.746z"/>
  <path d="m533.82 368.51c2.0859 0 4.0898 0.82812 5.5664 2.3047 1.4766 1.4766 2.3047 3.4766 2.3047 5.5664h15.742c-0.019531-4.8672-1.543-9.6094-4.3594-13.578-2.8203-3.9688-6.793-6.9688-11.383-8.5898v-9.3203h-15.746v9.3203c-7.0547 2.4844-12.508 8.1719-14.699 15.324-2.1914 7.1523-0.85547 14.918 3.5977 20.926 4.4531 6.0117 11.496 9.5469 18.977 9.5352 3.1836 0 6.0547 1.918 7.2734 4.8594 1.2148 2.9414 0.54297 6.3242-1.707 8.5781-2.2539 2.25-5.6367 2.9258-8.582 1.707-2.9414-1.2188-4.8594-4.0898-4.8594-7.2734h-15.742c0.019531 4.8672 1.543 9.6094 4.3633 13.578 2.8164 3.9648 6.793 6.9648 11.379 8.5898v9.3203h15.742l0.003906-9.3203c7.0547-2.4844 12.512-8.1719 14.699-15.324 2.1914-7.1523 0.85547-14.918-3.5977-20.926-4.4531-6.0117-11.496-9.5469-18.973-9.5352-4.3477 0-7.875-3.5234-7.875-7.8711 0-4.3477 3.5273-7.8711 7.875-7.8711z"/>
 </g>
</svg>