<?xml version="1.0" encoding="UTF-8"?>
<!-- The Best Svg Icon site in the world: iconSvg.co, Visit us! https://iconsvg.co -->
<svg fill="#000000" width="800px" height="800px" version="1.1" viewBox="144 144 512 512" xmlns="http://www.w3.org/2000/svg">
 <g>
  <path d="m407.87 462.98v-8.9922c9.9688-2.5664 18.051-9.8516 21.629-19.504 3.582-9.6484 2.207-20.441-3.6758-28.891-5.8828-8.4453-15.531-13.477-25.824-13.465-4.1758 0-8.1797-1.6562-11.133-4.6094-2.9531-2.9531-4.6133-6.957-4.6133-11.133 0-4.1758 1.6602-8.1797 4.6133-11.133 2.9531-2.9531 6.957-4.6133 11.133-4.6133s8.1797 1.6602 11.133 4.6133c2.9492 2.9531 4.6094 6.957 4.6094 11.133 0 4.3477 3.5234 7.8711 7.8711 7.8711 4.3477 0 7.875-3.5234 7.875-7.8711-0.027343-6.9609-2.3594-13.715-6.6328-19.211-4.2734-5.4961-10.246-9.418-16.984-11.16v-8.9883c0-4.3477-3.5234-7.875-7.8711-7.875s-7.875 3.5273-7.875 7.875v8.9883c-9.9688 2.5664-18.047 9.8516-21.629 19.504-3.582 9.6523-2.207 20.445 3.6758 28.891 5.8867 8.4492 15.531 13.477 25.828 13.465 4.1758 0 8.1797 1.6562 11.133 4.6094 2.9492 2.9531 4.6094 6.957 4.6094 11.133s-1.6602 8.1797-4.6094 11.133c-2.9531 2.9531-6.957 4.6133-11.133 4.6133s-8.1797-1.6602-11.133-4.6133c-2.9531-2.9531-4.6133-6.957-4.6133-11.133 0-4.3477-3.5234-7.8711-7.8711-7.8711-4.3477 0-7.8711 3.5234-7.8711 7.8711 0.023437 6.9609 2.3555 13.719 6.6289 19.211 4.2734 5.4961 10.246 9.4219 16.984 11.16v8.9922c0 4.3477 3.5273 7.8711 7.875 7.8711s7.8711-3.5234 7.8711-7.8711z"/>
  <path d="m440.53 309.68c1.4375 2.3203 3.9688 3.7305 6.6992 3.7305h157.44c2.7344 0.015625 5.2812-1.3906 6.7266-3.7148 1.4453-2.3242 1.582-5.2305 0.35937-7.6758l-15.742-31.488h-0.003906c-1.3398-2.6836-4.0859-4.3711-7.0859-4.3516h-18.75l-13.523-27.137c-1.3398-2.6797-4.0859-4.3711-7.0859-4.3516h-47.23c-3-0.019531-5.7461 1.6719-7.0859 4.3516l-13.523 27.137h-18.75c-3-0.019531-5.7461 1.668-7.0859 4.3516l-15.742 31.488h-0.003907c-1.207 2.4453-1.0625 5.3438 0.38672 7.6602zm85.418-21.742-3.0039-6.0156h6.0156zm65.984 9.7305h-53.246l7.8711-15.742h37.504zm-84.734-47.234h37.504l7.8711 15.742-53.246 0.003906zm-39.359 31.488h37.504l7.8711 15.742-53.246 0.003906z"/>
  <path d="m628.29 163.84h-456.58c-4.3477 0-7.875 3.5273-7.875 7.875v456.58c0 2.0859 0.83203 4.0898 2.3086 5.5664 1.4766 1.4727 3.4766 2.3047 5.5664 2.3047h456.58c2.0859 0 4.0898-0.83203 5.5664-2.3047 1.4727-1.4766 2.3047-3.4805 2.3047-5.5664v-456.58c0-2.0898-0.83203-4.0898-2.3047-5.5664-1.4766-1.4766-3.4805-2.3086-5.5664-2.3086zm-7.875 228.29h-134.23c-1.8633-20.141-10.711-38.996-25.016-53.301-14.305-14.305-33.16-23.152-53.301-25.016v-134.23h212.54zm-220.41 78.723c-18.793 0-36.812-7.4648-50.098-20.75-13.289-13.289-20.754-31.309-20.754-50.098 0-18.793 7.4648-36.812 20.754-50.098 13.285-13.289 31.305-20.754 50.098-20.754 18.789 0 36.809 7.4648 50.098 20.754 13.285 13.285 20.75 31.305 20.75 50.098-0.023437 18.781-7.4961 36.789-20.777 50.07s-31.289 20.754-50.07 20.777zm-7.875-291.27v134.23c-20.141 1.8633-38.996 10.711-53.301 25.016-14.305 14.305-23.152 33.16-25.016 53.301h-134.23v-212.54zm-212.54 228.29h134.23c1.8633 20.141 10.711 38.996 25.016 53.301 14.305 14.305 33.16 23.152 53.301 25.016v134.23h-212.54zm228.29 212.54v-134.23c20.141-1.8633 38.996-10.711 53.301-25.016s23.152-33.16 25.016-53.301h134.23v212.54z"/>
  <path d="m203.2 258.3h7.8711v70.848c0 2.0898 0.82813 4.0938 2.3047 5.5664 1.4766 1.4766 3.4805 2.3086 5.5664 2.3086h110.21c2.0898 0 4.0938-0.83203 5.5664-2.3086 1.4766-1.4727 2.3086-3.4766 2.3086-5.5664v-70.848h7.8711c3.4688 0.003907 6.5312-2.2695 7.5352-5.5898 1.0078-3.3203-0.28125-6.9062-3.168-8.832l-70.848-47.23c-2.6445-1.7656-6.0898-1.7656-8.7383 0l-70.848 47.23c-2.8867 1.9258-4.1719 5.5117-3.1641 8.832 1.0039 3.3203 4.0664 5.5938 7.5352 5.5898zm78.719 62.977h-15.742v-31.488h15.742zm39.359 0h-23.613v-39.359c0-2.0859-0.83203-4.0898-2.3086-5.5664-1.4766-1.4766-3.4766-2.3047-5.5664-2.3047h-31.488c-4.3477 0-7.8711 3.5234-7.8711 7.8711v39.359h-23.617v-62.977h94.465zm-47.23-108.63 44.871 29.914h-89.742z"/>
  <path d="m250.43 502.34h-7.8711v-62.977c0-4.3477-3.5234-7.8711-7.8711-7.8711s-7.875 3.5234-7.875 7.8711v62.977h-7.8711c-4.3477 0-7.8711 3.5234-7.8711 7.8711v62.977c0 2.0859 0.82813 4.0898 2.3047 5.5664s3.4805 2.3047 5.5664 2.3047h7.8711v7.8711c0 4.3477 3.5273 7.875 7.875 7.875s7.8711-3.5273 7.8711-7.875v-7.8711h7.8711c2.0898 0 4.0898-0.82813 5.5664-2.3047 1.4766-1.4766 2.3047-3.4805 2.3047-5.5664v-62.977c0-2.0898-0.82812-4.0898-2.3047-5.5664-1.4766-1.4766-3.4766-2.3047-5.5664-2.3047zm-7.8711 62.977h-15.746v-47.234h15.742z"/>
  <path d="m360.64 494.46h-7.8711v-7.8711c0-4.3477-3.5234-7.8711-7.8711-7.8711-4.3477 0-7.8711 3.5234-7.8711 7.8711v7.8711h-7.875c-4.3477 0-7.8711 3.5273-7.8711 7.875v47.23c0 2.0898 0.83203 4.0898 2.3047 5.5664 1.4766 1.4766 3.4805 2.3047 5.5664 2.3047h7.8711v15.742l0.003907 0.003906c0 4.3477 3.5234 7.8711 7.8711 7.8711 4.3477 0 7.8711-3.5234 7.8711-7.8711v-15.746h7.8711c2.0898 0 4.0898-0.82812 5.5664-2.3047 1.4766-1.4766 2.3086-3.4766 2.3086-5.5664v-47.23c0-2.0898-0.83203-4.0898-2.3086-5.5664-1.4766-1.4766-3.4766-2.3086-5.5664-2.3086zm-7.8711 47.23-15.742 0.003906v-31.488h15.742z"/>
  <path d="m305.54 486.59h-7.8711v-7.8711c0-4.3477-3.5273-7.8711-7.875-7.8711-4.3477 0-7.8711 3.5234-7.8711 7.8711v7.8711h-7.8711c-4.3477 0-7.8711 3.5234-7.8711 7.8711v31.488c0 2.0898 0.82812 4.0898 2.3047 5.5664 1.4766 1.4766 3.4766 2.3086 5.5664 2.3086h7.8711v47.23c0 4.3477 3.5234 7.8711 7.8711 7.8711 4.3477 0 7.875-3.5234 7.875-7.8711v-47.23h7.8711c2.0859 0 4.0898-0.83203 5.5664-2.3086 1.4766-1.4766 2.3047-3.4766 2.3047-5.5664v-31.488c0-2.0859-0.82812-4.0898-2.3047-5.5664-1.4766-1.4727-3.4805-2.3047-5.5664-2.3047zm-7.8711 31.488h-15.746v-15.742h15.742z"/>
  <path d="m596.8 478.72h-141.7c-4.3477 0-7.8711 3.5234-7.8711 7.8711v94.465c0 2.0898 0.82812 4.0898 2.3047 5.5664 1.4766 1.4766 3.4805 2.3047 5.5664 2.3047h141.7c2.0859 0 4.0898-0.82812 5.5664-2.3047 1.4727-1.4766 2.3047-3.4766 2.3047-5.5664v-94.465c0-2.0859-0.83203-4.0898-2.3047-5.5664-1.4766-1.4766-3.4805-2.3047-5.5664-2.3047zm-7.8711 15.742v7.8711l-0.003907 0.003907c-4.3477 0-7.8711-3.5273-7.8711-7.875zm-125.95 0h7.8711c0 2.0898-0.83203 4.0938-2.3047 5.5664-1.4766 1.4766-3.4805 2.3086-5.5664 2.3086zm0 78.719v-7.8672c2.0859 0 4.0898 0.82812 5.5664 2.3047 1.4727 1.4766 2.3047 3.4766 2.3047 5.5664zm23.617 0-0.003906 0.003906c0-6.2656-2.4883-12.27-6.918-16.699-4.4258-4.4297-10.434-6.918-16.695-6.918v-31.488c6.2617 0 12.27-2.4883 16.695-6.918 4.4297-4.4258 6.918-10.434 6.918-16.699h78.723c0 6.2656 2.4883 12.273 6.9141 16.699 4.4297 4.4297 10.438 6.918 16.699 6.918v31.488c-6.2617 0-12.27 2.4883-16.699 6.918-4.4258 4.4297-6.9141 10.434-6.9141 16.699zm102.34 0-7.875 0.003906c0-4.3477 3.5234-7.8711 7.8711-7.8711z"/>
  <path d="m506.27 525.95c-1.4688 0-2.8164-0.82031-3.4883-2.1289-0.67578-1.3047-0.56641-2.8789 0.28125-4.0781 0.85156-1.1992 2.2969-1.8281 3.7539-1.625 1.457 0.19922 2.6797 1.1953 3.1719 2.582 0.64844 2.0234 2.0938 3.6992 3.9961 4.6445 1.9062 0.94531 4.1133 1.0781 6.1172 0.36719 2.0078-0.70703 3.6406-2.1953 4.5273-4.1289 0.89062-1.9297 0.96094-4.1406 0.19531-6.125-1.6094-4.5586-4.8438-8.3633-9.0781-10.691-4.2383-2.3281-9.1836-3.0156-13.895-1.9297-4.7109 1.0859-8.8594 3.8672-11.648 7.8164-2.793 3.9453-4.0352 8.7852-3.4883 13.586 0.54688 4.8047 2.8438 9.2383 6.4492 12.457 3.6055 3.2188 8.2734 5 13.105 5 1.4531 0 2.7852 0.79688 3.4688 2.0742 0.68359 1.2812 0.61328 2.832-0.19141 4.0391-0.80078 1.207-2.2031 1.8789-3.6484 1.7422-1.4414-0.13672-2.6953-1.0547-3.2578-2.3945-1.6953-4.0039-6.3164-5.875-10.32-4.1797-4.0039 1.6953-5.875 6.3164-4.1797 10.32 1.8594 4.3906 5.2461 7.957 9.5312 10.039 4.2891 2.082 9.1836 2.5352 13.781 1.2773 4.5977-1.2539 8.582-4.1367 11.215-8.1094 2.6367-3.9727 3.7383-8.7656 3.1055-13.488-0.63281-4.7227-2.9609-9.0547-6.5469-12.195-3.5859-3.1367-8.1914-4.8672-12.957-4.8711z"/>
  <path d="m541.7 525.95h23.617c4.3477 0 7.8711-3.5234 7.8711-7.8711s-3.5234-7.8711-7.8711-7.8711h-23.617c-4.3477 0-7.8711 3.5234-7.8711 7.8711s3.5234 7.8711 7.8711 7.8711z"/>
  <path d="m565.31 541.7h-23.617c-4.3477 0-7.8711 3.5234-7.8711 7.8711s3.5234 7.8711 7.8711 7.8711h23.617c4.3477 0 7.8711-3.5234 7.8711-7.8711s-3.5234-7.8711-7.8711-7.8711z"/>
 </g>
</svg>