<?xml version="1.0" encoding="UTF-8"?>
<!-- The Best Svg Icon site in the world: iconSvg.co, Visit us! https://iconsvg.co -->
<svg fill="#000000" width="800px" height="800px" version="1.1" viewBox="144 144 512 512" xmlns="http://www.w3.org/2000/svg">
 <g>
  <path d="m615.26 595.93v6.8711c-0.011719 6.2422-5.0703 11.297-11.312 11.309h-407.9c-6.2422-0.011719-11.301-5.0664-11.312-11.309v-6.8711c0.015625-9.168 3.6641-17.953 10.145-24.438 6.4805-6.4805 15.27-10.129 24.434-10.141h361.37c9.1641 0.011719 17.953 3.6602 24.434 10.141 6.4844 6.4844 10.129 15.27 10.145 24.438z"/>
  <path d="m576.84 540.82v11.363h-91.969v-11.363c0.003906-6.8867 5.5742-12.473 12.457-12.5h67.055c6.8828 0.027343 12.453 5.6133 12.457 12.5z"/>
  <path d="m315.13 540.82v11.363h-91.969v-11.363c0.007813-6.8867 5.5742-12.473 12.461-12.5h67.051c6.8828 0.027343 12.453 5.6133 12.457 12.5z"/>
  <path d="m315.13 356.16v11.359c-0.007812 6.8789-5.582 12.453-12.457 12.457h-67.051c-6.8789-0.003906-12.453-5.5781-12.461-12.457v-11.359z"/>
  <path d="m576.84 356.16v11.359c-0.007813 6.8789-5.582 12.453-12.457 12.457h-67.055c-6.875-0.003906-12.449-5.5781-12.457-12.457v-11.359z"/>
  <path d="m413.28 286.84c0.027344-1.4375-0.75781-2.7656-2.0312-3.4375-1.8789-1.0391-3.8789-1.8398-5.9531-2.3945v12.789c5.3828-0.60938 7.9844-2.8906 7.9844-6.957z"/>
  <path d="m402.29 236.7c-10.375 0-20.324 4.1211-27.66 11.457-7.3359 7.3359-11.457 17.289-11.457 27.664s4.1211 20.324 11.457 27.66c7.3359 7.3359 17.285 11.457 27.66 11.457s20.324-4.1211 27.66-11.457c7.3359-7.3359 11.457-17.285 11.457-27.66-0.011719-10.375-4.1367-20.316-11.469-27.652-7.332-7.332-17.277-11.457-27.648-11.469zm16.984 57.758v0.003907c-1.5117 2.2109-3.5938 3.9727-6.0234 5.0977-2.5039 1.1758-5.1992 1.8828-7.957 2.0859v4.1016c0.023437 0.80469-0.28906 1.582-0.85938 2.1523-1.2266 1.1133-3.0938 1.1367-4.3477 0.054687-0.58594-0.58203-0.90625-1.3828-0.87891-2.207v-4.125c-4.6562-0.35938-9.2266-1.4727-13.531-3.2852-0.72656-0.30469-1.3477-0.81641-1.7891-1.4688-1.0352-1.418-0.97266-3.3594 0.14844-4.707 1.125-1.3516 3.0195-1.7656 4.6055-1.0078 3.3438 1.4844 6.918 2.3828 10.566 2.6562v-14.359c-2.5469-0.66797-5.0352-1.5312-7.4492-2.582-2.2344-0.99609-4.2031-2.5078-5.7422-4.4141-1.6172-2.1094-2.4531-4.7188-2.3594-7.375-0.019531-2.5117 0.63672-4.9805 1.9023-7.1523 1.3633-2.2812 3.3086-4.1562 5.6367-5.4336 2.4766-1.3594 5.1992-2.2031 8.0117-2.4727v-4.0586c-0.027343-1.2422 0.71094-2.375 1.8555-2.8555 1.1484-0.47656 2.4688-0.21094 3.3359 0.67969 0.58203 0.57422 0.90625 1.3594 0.89453 2.1758v3.9492c3.9492 0.17578 7.8438 0.95703 11.555 2.3164 1.5898 0.48828 2.6406 2.0039 2.5391 3.6641 0 0.96094-0.35156 1.8906-0.98047 2.6172-0.67969 0.80859-1.6914 1.2617-2.75 1.2266-0.50391-0.023437-1-0.13672-1.4609-0.34375-2.8789-1-5.8828-1.5977-8.9258-1.7734v14.918c2.6562 0.61719 5.2578 1.4375 7.7852 2.4531 2.3047 0.96094 4.332 2.4805 5.9023 4.4219 1.7031 2.2578 2.5664 5.0391 2.4414 7.8672 0.023437 2.5508-0.71484 5.0508-2.1211 7.1836z"/>
  <path d="m399.21 257.93c-1.8867 0.29688-3.6758 1.0469-5.2109 2.1836-1.4062 1.0547-2.2109 2.7227-2.1602 4.4805-0.085938 1.582 0.65234 3.0938 1.9531 4 1.6602 1.0898 3.4922 1.8984 5.4141 2.3984z"/>
  <path d="m604.13 325.38-185.12-134.06c-4.8633-3.5273-10.715-5.4297-16.719-5.4297-6.0078 0-11.859 1.9023-16.719 5.4297l-185.08 134.06c-4.1836 3.043-5.9375 8.4336-4.3438 13.355 1.5977 4.9219 6.1797 8.2578 11.352 8.2617h389.58c5.1836 0.015625 9.7852-3.3125 11.395-8.2422 1.6055-4.9258-0.14453-10.328-4.3398-13.375zm-201.84-1.2812c-12.805 0-25.082-5.0898-34.137-14.145-9.0547-9.0547-14.141-21.332-14.137-34.137 0-12.805 5.0859-25.086 14.141-34.137 9.0547-9.0547 21.336-14.141 34.137-14.141 12.805 0 25.086 5.0898 34.141 14.141 9.0508 9.0547 14.137 21.336 14.137 34.141-0.011718 12.801-5.1016 25.07-14.156 34.125-9.0508 9.0508-21.324 14.141-34.125 14.152z"/>
  <path d="m235.3 389.13h67.695v130.03h-67.695z"/>
  <path d="m455.83 441.9v110.29h-111.66v-110.29c0-5.6992 2.2617-11.16 6.2891-15.191 4.0312-4.0273 9.4922-6.2891 15.191-6.2891h68.703-0.003906c5.6992 0 11.164 2.2617 15.191 6.2891 4.0273 4.0312 6.2891 9.4922 6.2891 15.191z"/>
  <path d="m497 389.13h67.695v130.03h-67.695z"/>
 </g>
</svg>