<?xml version="1.0" encoding="UTF-8"?>
<!-- The Best Svg Icon site in the world: iconSvg.co, Visit us! https://iconsvg.co -->
<svg fill="#000000" width="800px" height="800px" version="1.1" viewBox="144 144 512 512" xmlns="http://www.w3.org/2000/svg">
 <g>
  <path d="m431.49 368.51c5.7969 0 10.496-4.6992 10.496-10.496s-4.6992-10.496-10.496-10.496h-20.992v-10.496c0-5.7969-4.6992-10.496-10.496-10.496s-10.496 4.6992-10.496 10.496v10.496h-20.992c-5.7969 0-10.496 4.6992-10.496 10.496v41.984c0 2.7812 1.1055 5.4531 3.0742 7.4219s4.6367 3.0742 7.4219 3.0742h52.48v20.992h-52.48c-5.7969 0-10.496 4.6992-10.496 10.496s4.6992 10.496 10.496 10.496h20.992v10.496c0 5.7969 4.6992 10.496 10.496 10.496s10.496-4.6992 10.496-10.496v-10.496h20.992c2.7812 0 5.4531-1.1094 7.4219-3.0742 1.9648-1.9688 3.0742-4.6406 3.0742-7.4219v-41.984c0-2.7852-1.1094-5.4531-3.0742-7.4219-1.9688-1.9688-4.6406-3.0742-7.4219-3.0742h-52.48v-20.992z"/>
  <path d="m400 284.54c-30.621 0-59.988 12.164-81.641 33.816s-33.816 51.02-33.816 81.641 12.164 59.984 33.816 81.637c21.652 21.652 51.02 33.816 81.641 33.816s59.984-12.164 81.637-33.816c21.652-21.652 33.816-51.016 33.816-81.637s-12.164-59.988-33.816-81.641c-21.652-21.652-51.016-33.816-81.637-33.816zm0 209.92v-0.003906c-25.055 0-49.082-9.9492-66.797-27.668-17.715-17.715-27.668-41.742-27.668-66.793 0-25.055 9.9531-49.082 27.668-66.797s41.742-27.668 66.797-27.668c25.051 0 49.078 9.9531 66.793 27.668 17.719 17.715 27.668 41.742 27.668 66.797 0 25.051-9.9492 49.078-27.668 66.793-17.715 17.719-41.742 27.668-66.793 27.668z"/>
  <path d="m375.96 218.52 13.543-13.645v48.176c0 5.7969 4.6992 10.496 10.496 10.496s10.496-4.6992 10.496-10.496v-48.176l13.539 13.645c4.1133 4.1133 10.789 4.1133 14.902 0 4.1172-4.1172 4.1172-10.789 0-14.906l-31.488-31.488c-1.9688-1.9844-4.6523-3.1055-7.4492-3.1055-2.8008 0-5.4844 1.1211-7.4531 3.1055l-31.488 31.488c-4.1172 4.1172-4.1172 10.789 0 14.906 4.1172 4.1133 10.789 4.1133 14.902 0z"/>
  <path d="m511.36 254.63h19.207l-34.113 34.008c-4.1172 4.1133-4.1172 10.789 0 14.902 4.1172 4.1172 10.789 4.1172 14.906 0l34.008-34.113v19.207l-0.003906 0.003907c0 5.7969 4.6992 10.496 10.496 10.496s10.496-4.6992 10.496-10.496v-44.504c0-2.7852-1.1055-5.4531-3.0742-7.4219s-4.6367-3.0742-7.4219-3.0742h-44.5c-5.7969 0-10.496 4.6992-10.496 10.496 0 5.7969 4.6992 10.496 10.496 10.496z"/>
  <path d="m581.48 375.96 13.645 13.543h-48.18c-5.7969 0-10.496 4.6992-10.496 10.496s4.6992 10.496 10.496 10.496h48.176l-13.645 13.539h0.003906c-4.1172 4.1133-4.1172 10.789 0 14.902 4.1133 4.1172 10.785 4.1172 14.902 0l31.488-31.488c1.9883-1.9688 3.1055-4.6523 3.1055-7.4492 0-2.8008-1.1172-5.4844-3.1055-7.4531l-31.488-31.488c-4.1172-4.1172-10.789-4.1172-14.902 0-4.1172 4.1172-4.1172 10.789 0 14.902z"/>
  <path d="m545.37 511.36v19.207l-34.008-34.113h0.003906c-4.1172-4.1172-10.789-4.1172-14.906 0-4.1172 4.1172-4.1172 10.789 0 14.906l34.113 34.008-19.207-0.003906c-5.7969 0-10.496 4.6992-10.496 10.496s4.6992 10.496 10.496 10.496h44.504-0.003907c2.7852 0 5.4531-1.1055 7.4219-3.0742s3.0742-4.6367 3.0742-7.4219v-44.5c0-5.7969-4.6992-10.496-10.496-10.496s-10.496 4.6992-10.496 10.496z"/>
  <path d="m424.04 581.48-13.539 13.645v-48.18c0-5.7969-4.6992-10.496-10.496-10.496s-10.496 4.6992-10.496 10.496v48.176l-13.539-13.645-0.003906 0.003906c-4.1133-4.1172-10.785-4.1172-14.902 0-4.1172 4.1133-4.1172 10.785 0 14.902l31.488 31.488c1.9688 1.9883 4.6523 3.1055 7.4531 3.1055 2.7969 0 5.4805-1.1172 7.4492-3.1055l31.488-31.488c4.1172-4.1172 4.1172-10.789 0-14.902-4.1133-4.1172-10.789-4.1172-14.902 0z"/>
  <path d="m288.64 545.37h-19.207l34.113-34.008-0.003907 0.003906c4.1172-4.1172 4.1172-10.789 0-14.906-4.1133-4.1172-10.789-4.1172-14.902 0l-34.008 34.113v-19.207c0-5.7969-4.6992-10.496-10.496-10.496-5.7969 0-10.496 4.6992-10.496 10.496v44.504-0.003907c0 2.7852 1.1055 5.4531 3.0742 7.4219s4.6367 3.0742 7.4219 3.0742h44.504c5.7969 0 10.496-4.6992 10.496-10.496s-4.6992-10.496-10.496-10.496z"/>
  <path d="m218.52 424.04-13.645-13.539h48.176c5.7969 0 10.496-4.6992 10.496-10.496s-4.6992-10.496-10.496-10.496h-48.176l13.645-13.539v-0.003906c4.1133-4.1133 4.1133-10.785 0-14.902-4.1172-4.1172-10.789-4.1172-14.906 0l-31.488 31.488c-1.9844 1.9688-3.1055 4.6523-3.1055 7.4531 0 2.7969 1.1211 5.4805 3.1055 7.4492l31.488 31.488c4.1172 4.1172 10.789 4.1172 14.906 0 4.1133-4.1133 4.1133-10.789 0-14.902z"/>
  <path d="m254.63 288.64v-19.207l34.008 34.113v-0.003907c4.1133 4.1172 10.789 4.1172 14.902 0 4.1172-4.1133 4.1172-10.789 0-14.902l-34.113-34.008h19.211c5.7969 0 10.496-4.6992 10.496-10.496 0-5.7969-4.6992-10.496-10.496-10.496h-44.504c-5.7969 0-10.496 4.6992-10.496 10.496v44.504c0 5.7969 4.6992 10.496 10.496 10.496 5.7969 0 10.496-4.6992 10.496-10.496z"/>
 </g>
</svg>