<?xml version="1.0" encoding="UTF-8"?>
<!-- The Best Svg Icon site in the world: iconSvg.co, Visit us! https://iconsvg.co -->
<svg fill="#000000" width="800px" height="800px" version="1.1" viewBox="144 144 512 512" xmlns="http://www.w3.org/2000/svg">
 <path d="m419.59 268.39h-39.23c-19.355 0-38.613 5.043-55.695 14.586-13.383 7.4609-25.262 17.457-35.297 29.703-19.746 24.078-30.613 55.086-30.613 87.305 0 18.832 3.6992 36.742 10.312 52.961 0.13281 0.52734 0.32422 1.0039 0.60547 1.4492 6.5586 15.562 15.828 29.504 27.164 41.125 0.125 0.13281 0.24609 0.26172 0.37109 0.38281 21.766 22.121 51.012 35.711 83.148 35.711h39.23c67.078 0 121.65-59.051 121.65-131.63 0.007813-72.562-54.566-131.59-121.64-131.59zm-90.02 23.383c13.371-7.4648 27.66-11.824 42.578-12.984-0.71875 0.32422-1.3945 0.73047-2.1055 1.0664-1.4141 0.69141-2.8359 1.3906-4.2227 2.1406-0.64062 0.33594-1.3008 0.625-1.9297 0.97656-0.47266 0.26562-0.91797 0.58984-1.3867 0.86328-2.2617 1.3086-4.4883 2.6914-6.6602 4.1445-1.168 0.78125-2.3242 1.5859-3.4727 2.4141-1.9414 1.3945-3.8477 2.8398-5.707 4.3594-1.2383 1.0039-2.4492 2.0469-3.6523 3.1016-1.0742 0.94531-2.125 1.9258-3.168 2.9062-0.20703-0.023437-0.38281-0.11719-0.59766-0.11719h-22.949c4.2461-3.2422 8.625-6.2812 13.273-8.8711zm-32.41 27.293c2.4023-2.9258 4.9219-5.6992 7.5352-8.3398h25.645c-0.019532 0.023438-0.039063 0.054688-0.070313 0.082032-0.53906 0.64453-1.1445 1.2188-1.6836 1.875-0.60938 0.74219-1.1328 1.5586-1.7227 2.3086-1.2305 1.5703-2.418 3.1641-3.582 4.793-1.082 1.5234-2.125 3.0547-3.1406 4.6211-1.1797 1.7969-2.3125 3.6367-3.4062 5.5-0.76562 1.3359-1.5273 2.6758-2.2539 4.0352-1.2109 2.2305-2.3516 4.5078-3.4375 6.8203-0.36328 0.77734-0.74609 1.543-1.1016 2.3281-0.011718 0.023437-0.019531 0.050781-0.03125 0.074218h-28.031c4.1914-8.5977 9.2422-16.734 15.281-24.098zm21.484 154.22c0.058594 0.089844 0.10547 0.17578 0.15625 0.26172 1.4375 2.3008 2.9727 4.5273 4.5352 6.7305 0.41406 0.58594 0.83594 1.1641 1.2695 1.7422 1.2891 1.7539 2.6211 3.4648 3.9844 5.1445h-25.715c-8.375-8.8438-15.516-19.039-21.027-30.355h28.062c0.011719 0 0.011719 0.003906 0.011719 0.003906 0.03125 0.070312 0.050781 0.13672 0.082031 0.20703 1.1328 2.5273 2.3633 4.9961 3.6328 7.4414 0.33203 0.64062 0.67969 1.2734 1.0117 1.9102 1.2812 2.3477 2.5938 4.6641 3.9961 6.9141zm-41.129-120.05h28.391c-0.089844 0.23828-0.13672 0.48438-0.22656 0.71875-1.0938 3.168-2.0664 6.4023-2.9336 9.6836-0.14453 0.55078-0.30859 1.1016-0.44141 1.6562-0.84766 3.3359-1.5664 6.7266-2.168 10.16-0.089844 0.50781-0.16797 1.0117-0.25781 1.5234-0.57031 3.4805-1.0234 7.0078-1.3398 10.574-0.039062 0.41797-0.058593 0.83594-0.089843 1.25-0.15625 2.0352-0.27734 4.0898-0.35156 6.1523h-29.066c0.5625-14.469 3.4414-28.559 8.4844-41.719zm20.586 51.785c0.050782 1.3242 0.11719 2.6367 0.19531 3.9492 0.050781 0.74609 0.10156 1.4961 0.15625 2.2383 0.23828 2.9336 0.52344 5.8555 0.92578 8.7305 0 0.019531 0.011719 0.039062 0.011719 0.058594 0.41406 2.8906 0.9375 5.75 1.5156 8.5781 0.14453 0.71875 0.30859 1.4297 0.46484 2.1445 0.62109 2.7852 1.2891 5.5469 2.0664 8.2578 0.011719 0.03125 0.019531 0.066406 0.03125 0.097656 0.73438 2.5898 1.582 5.1328 2.4688 7.6523h-28.465c-4.957-12.922-7.8594-26.984-8.4141-41.707l29.043 0.007813zm74.129 116.2c-21.906-1.7266-42.059-10.402-58.648-23.98h24.156c1.4062 1.3906 2.8516 2.75 4.3281 4.0742 0.070313 0.066406 0.13672 0.13281 0.20703 0.19531 1.9883 1.7734 4.0352 3.457 6.1211 5.0938 0.55078 0.42188 1.0938 0.84766 1.6406 1.2578 2.0547 1.5664 4.1523 3.0781 6.3086 4.5039 0.070312 0.050781 0.13672 0.10547 0.21484 0.15234 2.207 1.457 4.4883 2.8125 6.7812 4.1172 0.59766 0.33203 1.1875 0.66406 1.7852 0.98828 2.2812 1.2383 4.5859 2.4219 6.9375 3.5117 0.058594 0.027344 0.10938 0.0625 0.16797 0.085938zm47.359 0.31641c-61.488 0-111.53-54.527-111.53-121.55 0-3.4805 0.16797-6.9531 0.44141-10.395 0.03125-0.37109 0.039063-0.75 0.082032-1.1289 0.28906-3.293 0.71094-6.5703 1.2383-9.8086 0.082031-0.47266 0.14453-0.94141 0.22656-1.4062 0.55078-3.168 1.2305-6.3086 2.0039-9.4062 0.125-0.52344 0.26562-1.0391 0.40234-1.5586 0.79688-3.0234 1.7031-6 2.707-8.9336 0.21484-0.60938 0.44141-1.2031 0.66016-1.8047 1.0117-2.8203 2.1055-5.5977 3.3164-8.3281 0.31641-0.71484 0.67188-1.4062 0.99219-2.1094 1.0312-2.2266 2.1367-4.418 3.3047-6.5742 0.62109-1.1523 1.2578-2.2891 1.9102-3.4102 1.0625-1.8203 2.168-3.6016 3.3164-5.3594 0.85547-1.3242 1.7422-2.625 2.6445-3.9102 1.1523-1.6133 2.332-3.1992 3.5625-4.7578 0.96094-1.2344 1.9609-2.4531 2.9727-3.6484 1.3281-1.5664 2.6953-3.0781 4.0977-4.5586 1.0234-1.0898 2.0664-2.1719 3.1289-3.2148 1.5078-1.4727 3.043-2.8867 4.6133-4.2656 1.0117-0.89844 2.0352-1.7852 3.0781-2.6406 1.7852-1.457 3.6133-2.8398 5.4805-4.1797 0.98437-0.71484 1.9805-1.4102 2.9844-2.0859 2.0469-1.3711 4.1328-2.6758 6.2656-3.9062 1.125-0.64844 2.2422-1.2852 3.3867-1.8906 0.34375-0.17969 0.69141-0.35937 1.0312-0.53516 1.4141-0.73438 2.8398-1.4492 4.293-2.1211 0.03125-0.011718 0.050781-0.019531 0.082031-0.035156 4.9141-2.2578 9.9961-4.1406 15.23-5.6289 0.10156-0.03125 0.20703-0.066406 0.30859-0.097656 1.4844-0.41406 2.9922-0.78125 4.5078-1.1328 0.47266-0.10938 0.95312-0.22656 1.4258-0.32812 1.3398-0.29297 2.6758-0.54297 4.0273-0.78125 0.73047-0.125 1.457-0.24219 2.1875-0.35156 1.1797-0.17578 2.3633-0.34766 3.5508-0.49219 1.0547-0.12109 2.1172-0.21094 3.1875-0.30078 0.90625-0.082031 1.8203-0.17578 2.7344-0.23047 2.0352-0.11719 4.0977-0.19141 6.1523-0.19141 61.531 0 111.57 54.508 111.57 121.52-0.007813 67.02-50.051 121.55-111.58 121.55zm34.609-28.188c0.97266 2.6133-0.36328 5.5117-2.9727 6.4727-3.3242 1.2344-6.7695 2.2812-10.223 3.1172-0.40234 0.10156-0.79688 0.14062-1.1875 0.14062-2.2734 0-4.3359-1.5469-4.8906-3.8555-0.66016-2.707 1.0039-5.4258 3.707-6.082 3.0781-0.74609 6.1406-1.6758 9.0938-2.7773 2.6211-0.96875 5.5039 0.37891 6.4727 2.9844zm-39.852-193.85c0-2.7852 2.0664-5.0391 4.8516-5.0391h0.38281c3.5508 0 7.1445 0.21094 10.664 0.625 2.7656 0.32422 4.7422 2.832 4.418 5.5859-0.29687 2.5703-2.4805 4.4531-4.9961 4.4531-0.19531 0-0.39453-0.011719-0.58984-0.035157-3.1406-0.36719-6.3398-0.55469-9.4961-0.55469-2.7852 0.003906-5.2344-2.2461-5.2344-5.0352zm48.688 11.562c-0.88672 1.7578-2.6562 2.7695-4.5 2.7695-0.76562 0-1.5352-0.17188-2.2617-0.53906-2.8398-1.4258-5.7734-2.6992-8.7266-3.7891-2.6211-0.95312-3.9531-3.8477-3.0039-6.457 0.96094-2.6133 3.8594-3.9531 6.4648-2.9961 3.3164 1.2148 6.6133 2.6406 9.8008 4.2539 2.4844 1.2422 3.4844 4.2734 2.2266 6.7578zm16.43 165.71c1.7852 2.1445 1.4766 5.3203-0.67188 7.0898-2.7539 2.2773-5.6367 4.4102-8.5703 6.3398-0.85547 0.55859-1.8086 0.82812-2.7656 0.82812-1.6328 0-3.25-0.79688-4.2109-2.2734-1.5273-2.3242-0.88672-5.4453 1.4453-6.9766 2.625-1.7266 5.2031-3.6367 7.6836-5.6797 2.1641-1.7734 5.332-1.4688 7.0898 0.67188zm6.9375-146.54c-0.97266 0.96094-2.2539 1.4453-3.5312 1.4453-1.3008 0-2.6094-0.50391-3.5938-1.5078-2.2539-2.293-4.625-4.4648-7.0547-6.457-2.1445-1.7695-2.457-4.9375-0.69141-7.0898 1.7539-2.1406 4.9375-2.4688 7.082-0.69531 2.707 2.2148 5.3438 4.6367 7.8438 7.1797 1.9648 1.9883 1.9336 5.1758-0.054687 7.125zm-160.12 38.734c0.95312-3.3594 2.0859-6.7344 3.375-10.035 1.0039-2.6016 3.9336-3.8828 6.5234-2.8633 2.5898 1.0078 3.8711 3.9297 2.8633 6.5234-1.168 3.0039-2.207 6.0703-3.0664 9.125-0.62109 2.2148-2.6445 3.668-4.8398 3.668-0.45312 0-0.91797-0.058593-1.375-0.19141-2.6875-0.76562-4.2383-3.5508-3.4805-6.2266zm58.527-62.297c-0.97266-2.6094 0.35156-5.5078 2.9609-6.4805 3.3438-1.2461 6.793-2.3008 10.223-3.1406 2.6953-0.67188 5.4297 1.0039 6.0898 3.7031s-1.0039 5.4258-3.707 6.0859c-3.0469 0.74219-6.1094 1.6836-9.0938 2.7969-0.57031 0.21094-1.168 0.31641-1.7539 0.31641-2.0391 0-3.9609-1.25-4.7188-3.2812zm106.44 38.465c-1.5156-2.3359-0.83594-5.457 1.4961-6.9609 2.3438-1.5156 5.4609-0.84766 6.9688 1.5 1.9102 2.957 3.6875 6.0508 5.2969 9.1836 1.2695 2.4727 0.29688 5.5156-2.1875 6.7812-0.73438 0.37891-1.5156 0.55469-2.293 0.55469-1.8281 0-3.5938-0.99609-4.4883-2.7422-1.457-2.8398-3.0703-5.6289-4.793-8.3164zm-66.516 155.32c0 2.7852-2.1445 5.0391-4.9336 5.0391h-0.21484c-3.4805 0-6.9961-0.20313-10.438-0.59766-2.7656-0.31641-4.7422-2.8203-4.4297-5.5781 0.32422-2.7617 2.8164-4.7695 5.5781-4.4297 3.0664 0.35156 6.1914 0.52734 9.2891 0.52734 2.7852 0 5.1484 2.2578 5.1484 5.0391zm81.816-135.37c2.707-0.76172 5.4727 0.77734 6.2383 3.4453 0.97266 3.3867 1.7969 6.8477 2.4375 10.293 0.52344 2.7344-1.2891 5.3672-4.0156 5.8789-0.31641 0.058594-0.62891 0.089844-0.9375 0.089844-2.3828 0-4.5-1.6875-4.9492-4.1055-0.58984-3.1328-1.3398-6.2812-2.2227-9.3555-0.75781-2.6875 0.78516-5.4727 3.4492-6.2461zm-167.3-25.039c1.8984-2.9688 3.9648-5.875 6.1602-8.6406 1.7227-2.1797 4.8906-2.5586 7.0742-0.82812 2.1875 1.7227 2.5508 4.8906 0.82813 7.0742-1.9805 2.5039-3.8594 5.1406-5.5664 7.8242-0.96094 1.5-2.5898 2.3242-4.2539 2.3242-0.9375 0-1.8672-0.25781-2.7148-0.78906-2.3398-1.5039-3.0156-4.625-1.5273-6.9648zm160.58 120.02c-1.918 2.9883-3.9961 5.8945-6.1836 8.6367-0.99219 1.2539-2.457 1.9062-3.9453 1.9062-1.1016 0-2.207-0.35938-3.1289-1.0977-2.1875-1.7344-2.5391-4.9023-0.80469-7.0742 1.9688-2.4805 3.8477-5.1094 5.5781-7.8086 1.4961-2.3477 4.6133-3.0312 6.957-1.5234 2.3477 1.5 3.0234 4.6172 1.5273 6.9609zm-125.49-141.8c-2.625 1.7344-5.2031 3.6484-7.6719 5.6914-0.9375 0.78125-2.0742 1.1602-3.2109 1.1602-1.457 0-2.8906-0.62109-3.8828-1.8203-1.7734-2.1406-1.4766-5.3203 0.66016-7.0938 2.7539-2.2812 5.6289-4.418 8.5586-6.3516 2.3242-1.5234 5.4414-0.89062 6.9766 1.4297 1.5352 2.3242 0.89062 5.4531-1.4297 6.9844zm-7.2305 158.07c2.1562 1.7695 2.4805 4.9375 0.71875 7.0898-1.0039 1.2188-2.4492 1.8477-3.9062 1.8477-1.125 0-2.2539-0.37109-3.1875-1.1367-2.7148-2.2227-5.3594-4.6406-7.8633-7.1758-1.9492-1.9844-1.9297-5.168 0.050781-7.125 1.9883-1.9531 5.1758-1.9297 7.125 0.050781 2.25 2.2891 4.6289 4.457 7.0625 6.4492zm150.08-76.379c0 3.4922-0.15625 7.0078-0.47266 10.438-0.23828 2.6211-2.4297 4.5781-5.0078 4.5781-0.15625 0-0.31641-0.003906-0.46484-0.019531-2.7773-0.25781-4.8125-2.707-4.5664-5.4766 0.28906-3.043 0.42188-6.1523 0.43359-9.2461v-0.38672c0-2.7812 2.2539-5.0312 5.0391-5.0312 2.6641 0 4.8516 2.0703 5.0273 4.6953zm-4.3438 31.219c-0.96094 3.3789-2.1055 6.75-3.3945 10.027-0.77734 1.9844-2.6758 3.1992-4.6836 3.1992-0.62109 0-1.2383-0.10547-1.8398-0.34766-2.5898-1.0117-3.8711-3.9336-2.8516-6.5312 1.168-2.9766 2.207-6.0469 3.0898-9.125 0.75391-2.6719 3.543-4.2305 6.2266-3.457 2.668 0.77344 4.2266 3.5586 3.4531 6.2344zm-118.02 65.797c-0.74609 2.0391-2.6758 3.3086-4.7305 3.3086-0.57031 0-1.1523-0.10156-1.7227-0.30859-3.3438-1.2188-6.6406-2.6445-9.8086-4.2461-2.4883-1.25-3.4805-4.2812-2.2305-6.7656 1.25-2.4844 4.2734-3.4922 6.7695-2.2266 2.8164 1.4141 5.75 2.6836 8.7266 3.7734 2.6016 0.95703 3.9492 3.8477 2.9961 6.4648zm-46.773-42.023c1.5156 2.3359 0.84766 5.457-1.4844 6.9688-0.84766 0.55078-1.7891 0.8125-2.7344 0.8125-1.6523 0-3.2656-0.8125-4.2305-2.2969-1.918-2.9609-3.707-6.0508-5.3164-9.1797-1.2695-2.4727-0.29688-5.5117 2.1758-6.7852 2.4805-1.2852 5.5117-0.29297 6.793 2.1797 1.4531 2.8281 3.0703 5.625 4.7969 8.3008zm-21.016-49.793c-2.7852 0-5.0391-2.0977-5.0391-4.8828v-0.31641c0-3.3945 0.15625-6.832 0.45312-10.219 0.24609-2.7695 2.7656-4.8203 5.4609-4.5742 2.7773 0.24609 4.8203 2.6914 4.5742 5.4609-0.27734 3.0938-0.41406 6.2305-0.41406 9.3359 0.003907 2.7852-2.2539 5.1953-5.0352 5.1953zm5.668 29.879c-0.46484 0.13281-0.9375 0.19531-1.3945 0.19531-2.1953 0-4.2031-1.4297-4.8398-3.6367-0.97266-3.3711-1.7969-6.8281-2.457-10.281-0.52344-2.7305 1.2695-5.3672 4.0039-5.8906 2.7344-0.51562 5.3711 1.2812 5.8945 4.0117 0.58984 3.1406 1.3516 6.2891 2.2422 9.3555 0.76562 2.6719-0.77344 5.4688-3.4492 6.2461zm123.96-13.539c-4.6133 10.68-12.297 18.695-21.492 23.086 0.039063 0.27734 0.15625 0.52344 0.15625 0.81641v17.336c0 2.7852-2.2539 5.0391-5.0391 5.0391-2.7852 0-5.0391-2.2539-5.0391-5.0391v-14.965c-2.1055 0.36328-4.2422 0.58594-6.4141 0.58594-1.8281 0-3.6133-0.17578-5.3711-0.4375v14.812c0 2.7852-2.2539 5.0391-5.0391 5.0391-2.7852 0-5.0391-2.2539-5.0391-5.0391v-17.336c0-0.14062 0.070313-0.26172 0.082031-0.40234-15.684-7.0469-26.824-24.504-26.824-44.926 0-20.48 11.219-37.98 26.98-44.988-0.11719-0.42188-0.26562-0.83203-0.26562-1.2891v-14.992c0-2.7852 2.2539-5.0391 5.0391-5.0391s5.0391 2.2539 5.0391 5.0391v13.418c1.7734-0.25781 3.5625-0.4375 5.4023-0.4375 2.1562 0 4.2812 0.26172 6.3867 0.63672v-13.613c0-2.7852 2.2539-5.0391 5.0391-5.0391 2.7852 0 5.0391 2.2539 5.0391 5.0391v15.941c0 0.31641-0.11719 0.58594-0.17578 0.88672 6.8984 3.3086 13.027 8.6133 17.574 15.613 1.5273 2.332 0.85547 5.4531-1.4766 6.9688-2.3242 1.5312-5.4531 0.85547-6.9688-1.4766-6.1523-9.4531-15.41-14.871-25.418-14.871-17.715 0-32.117 17.141-32.117 38.215s14.402 38.215 32.117 38.215c12.082 0 23.035-7.9648 28.574-20.781 1.1016-2.5547 4.0664-3.7344 6.6211-2.625 2.5508 1.0938 3.7305 4.0547 2.6289 6.6094z"/>
</svg>