<?xml version="1.0" encoding="UTF-8"?>
<!-- The Best Svg Icon site in the world: iconSvg.co, Visit us! https://iconsvg.co -->
<svg fill="#000000" width="800px" height="800px" version="1.1" viewBox="144 144 512 512" xmlns="http://www.w3.org/2000/svg">
 <g>
  <path d="m612.54 297.66c-6.2617 0-12.27 2.4844-16.699 6.9141s-6.918 10.438-6.918 16.699c0.027344 3.7773 0.96875 7.4883 2.75 10.816l-79.895 85.633c-4.707-2.0781-9.9688-2.5391-14.965-1.3125-4.9961 1.2266-9.4492 4.0703-12.656 8.0898l-68.418-24.434v-0.070312c0.0625-6.7773-2.7852-13.25-7.8242-17.781-5.0391-4.5273-11.777-6.6758-18.508-5.8984-6.7305 0.78125-12.801 4.4141-16.668 9.9727-3.8711 5.5625-5.1641 12.516-3.5547 19.098l-72.895 46.855c-4.0977-3.2305-9.1562-4.9961-14.375-5.0156-6.2617 0-12.27 2.4883-16.699 6.918-4.4297 4.4297-6.918 10.434-6.918 16.699 0 0.43359 0.10156 0.83594 0.125 1.2578l-53.531 22.309h0.003907c-4.8633-5.4023-11.949-8.2578-19.203-7.7344-7.2539 0.52344-13.855 4.3711-17.891 10.418-4.0352 6.0508-5.0469 13.625-2.7461 20.52 2.3047 6.8984 7.6641 12.344 14.523 14.758v95.914c0 2.0859 0.82812 4.0898 2.3047 5.5664 1.4766 1.4727 3.4805 2.3047 5.5664 2.3047h425.09c2.0898 0 4.0898-0.83203 5.5664-2.3047 1.4766-1.4766 2.3047-3.4805 2.3047-5.5664v-284.84c7.0547-2.4844 12.512-8.1719 14.703-15.324 2.1875-7.1484 0.85547-14.918-3.5977-20.926-4.457-6.0078-11.496-9.5469-18.977-9.5312zm-110.21 133.82c3.1836 0 6.0547 1.918 7.2734 4.8594 1.2148 2.9414 0.54297 6.3242-1.707 8.5781-2.2539 2.25-5.6367 2.9258-8.5781 1.707-2.9453-1.2188-4.8633-4.0898-4.8633-7.2734 0-4.3477 3.5273-7.8711 7.875-7.8711zm-23.617 7.8008v0.070313c0.019531 4.8672 1.543 9.6094 4.3633 13.574 2.8164 3.9688 6.793 6.9688 11.379 8.5938v158.89h-94.461v-198.25c4.0469-1.4492 7.6211-3.9805 10.336-7.3164zm-188.93 53.727c5.5039-1.875 10.105-5.7461 12.895-10.848 2.7891-5.0977 3.5664-11.062 2.1719-16.707l72.895-46.855 0.003906 0.003906c1.9609 1.5273 4.1562 2.7305 6.5 3.5664v198.24h-94.465zm102.34-100.89c3.1836 0 6.0547 1.918 7.2734 4.8594s0.54687 6.3281-1.707 8.582c-2.25 2.25-5.6367 2.9219-8.5781 1.7031-2.9414-1.2148-4.8594-4.0859-4.8594-7.2695 0-4.3477 3.5234-7.875 7.8711-7.875zm-110.21 70.852c3.1836 0 6.0547 1.918 7.2734 4.8594 1.2188 2.9414 0.54297 6.3242-1.707 8.5781-2.25 2.25-5.6367 2.9258-8.5781 1.707s-4.8594-4.0898-4.8594-7.2734c0-4.3477 3.5234-7.8711 7.8711-7.8711zm-94.465 39.359c3.1836 0 6.0547 1.918 7.2734 4.8594 1.2188 2.9414 0.54688 6.3281-1.707 8.5781-2.25 2.25-5.6367 2.9258-8.5781 1.707s-4.8594-4.0898-4.8594-7.2734c0-4.3477 3.5234-7.8711 7.8711-7.8711zm7.8711 30.039c4.5898-1.6211 8.5664-4.625 11.383-8.5898 2.8203-3.9688 4.3438-8.7109 4.3633-13.578 0-0.43359-0.10156-0.83594-0.125-1.2578l53.531-22.309-0.003906-0.003906c2.6133 2.8828 5.8984 5.0742 9.5664 6.3789v127.4h-78.715zm314.88 88.039v-158.89c4.5898-1.625 8.5625-4.625 11.383-8.5938 2.8164-3.9648 4.3398-8.707 4.3594-13.574-0.023438-3.7773-0.96484-7.4883-2.7461-10.816l79.895-85.633c0.49609 0.21094 1.0312 0.34766 1.5742 0.53516v276.97zm102.34-291.27c-3.1836 0-6.0547-1.918-7.2734-4.8594-1.2188-2.9414-0.54297-6.3242 1.707-8.5781 2.25-2.25 5.6367-2.9258 8.5781-1.707 2.9414 1.2188 4.8594 4.0898 4.8594 7.2734 0 2.0898-0.82812 4.0898-2.3047 5.5664s-3.4766 2.3047-5.5664 2.3047z"/>
  <path d="m224.92 391.86c-7.6445 0.007813-13.84 6.2031-13.848 13.848v35.816c0.007813 7.6445 6.2031 13.84 13.848 13.848h9.7695c4.3477 0 7.8711-3.5234 7.8711-7.8711s-3.5234-7.875-7.8711-7.875h-7.875v-32.023h12.992c6.6211-0.039062 12.293-4.75 13.547-11.254 3.5977-18.453 10.871-35.988 21.387-51.57 3.707-5.4844 3.0273-12.824-1.6289-17.531l-9.2031-9.2031 22.648-22.648 9.2109 9.2109c4.7109 4.6406 12.039 5.3242 17.523 1.6289 15.578-10.523 33.121-17.801 51.578-21.395 6.5-1.2539 11.211-6.9297 11.246-13.551v-12.988h32.023v12.988c0.039062 6.625 4.7539 12.297 11.258 13.551 18.453 3.5977 35.988 10.871 51.57 21.387 5.4844 3.7031 12.824 3.0234 17.531-1.6289l9.2031-9.2031 22.648 22.648-9.2109 9.2109c-4.6484 4.707-5.332 12.039-1.6289 17.523 4.1094 6.1055 7.7383 12.52 10.855 19.191 1.8359 3.9414 6.5234 5.6445 10.465 3.8047 1.8906-0.88281 3.3555-2.4805 4.0703-4.4453 0.71484-1.9609 0.61719-4.1289-0.26563-6.0195-3.25-6.9531-7-13.656-11.223-20.066l9.4453-9.4453c5.3906-5.4102 5.3906-14.16 0-19.57l-25.348-25.348c-5.4141-5.3867-14.16-5.3867-19.57 0l-9.4453 9.4453c-16.594-10.973-35.133-18.664-54.617-22.656v-13.262c-0.007812-7.6406-6.1992-13.836-13.84-13.848h-35.816c-7.6445 0.007812-13.84 6.2031-13.848 13.848v13.273-0.003907c-19.484 3.9922-38.027 11.684-54.617 22.656l-9.4453-9.4453c-5.4102-5.3867-14.16-5.3867-19.57 0l-25.348 25.348c-5.3906 5.4102-5.3906 14.16 0 19.57l9.4453 9.4453c-10.973 16.59-18.664 35.133-22.656 54.617z"/>
  <path d="m392.12 305.54c-29.836 0.074219-58.543 11.414-80.379 31.746-21.84 20.328-35.195 48.156-37.402 77.91-0.14844 2.0859 0.53516 4.1445 1.9023 5.7266 1.3711 1.5781 3.3125 2.5508 5.3984 2.6953h0.55859c4.1406 0.011719 7.582-3.1875 7.8711-7.3203 2.207-31.23 18.594-59.734 44.473-77.359s58.402-22.434 88.277-13.051c29.871 9.3828 53.805 31.926 64.957 61.184 1.5898 3.9961 6.1016 5.9766 10.121 4.4375 4.0234-1.5352 6.0625-6.0195 4.582-10.059-8.625-22.285-23.77-41.453-43.461-54.992-19.688-13.543-43-20.832-66.898-20.918z"/>
  <path d="m631.29 164.45c-0.94922-0.40234-1.9727-0.60547-3.0039-0.60937h-39.363c-4.3477 0-7.8711 3.5273-7.8711 7.875 0 4.3477 3.5234 7.8711 7.8711 7.8711h20.355l-75.809 75.809h0.003906c-39.285-33.867-89.484-52.402-141.35-52.191-54.246-0.09375-106.62 19.859-147.05 56.027-40.434 36.164-66.082 85.992-72.02 139.91-0.45703 4.3086 2.6523 8.1797 6.9609 8.6602 0.28906 0.039063 0.58203 0.0625 0.87109 0.070313 4.0156-0.003906 7.3828-3.0273 7.8203-7.0156 5.5195-50.062 29.336-96.324 66.883-129.9 37.543-33.574 86.168-52.098 136.54-52.012 50.539-0.17188 99.27 18.781 136.41 53.059 3.1094 2.8203 7.8867 2.707 10.855-0.26172l81.027-81.027v20.359c0 4.3477 3.5273 7.8711 7.875 7.8711 4.3477 0 7.8711-3.5234 7.8711-7.8711v-39.359c-0.003906-3.1836-1.9258-6.0508-4.8672-7.2656z"/>
 </g>
</svg>