<?xml version="1.0" encoding="UTF-8"?>
<!-- The Best Svg Icon site in the world: iconSvg.co, Visit us! https://iconsvg.co -->
<svg fill="#000000" width="800px" height="800px" version="1.1" viewBox="144 144 512 512" xmlns="http://www.w3.org/2000/svg">
 <g>
  <path d="m643.52 242.49c-0.039063-3.3984-0.089844-6.0195-0.14453-7.793-0.10547-3.3594-0.19531-6.5352-3.8203-8.043-1.3281-0.55078-2.8086-0.60156-4.168-0.14062-3.7266 0.41797-22.27 0.18359-38.676-0.30859h-0.003906c-3.2578-0.097656-5.9805 2.4688-6.0781 5.7305-0.097656 3.2578 2.4688 5.9805 5.7266 6.0781 18.582 0.55469 29.133 0.50781 35.305 0.30859 0.47266 27.098 0.12891 144.95-0.26562 227.61l-12.164-0.003906c-1.5703-25.836-12.934-50.102-31.781-67.848-18.844-17.746-43.75-27.637-69.633-27.648-50.184 0-91.988 36.68-100.14 84.582v-0.003906c-5.0938-3.5117-11.133-5.3984-17.316-5.4102-6.6484 0.058594-13.105 2.2305-18.441 6.1992-7.8633-48.25-49.824-85.371-100.26-85.371-25.883 0.015624-50.789 9.9062-69.633 27.648-18.844 17.746-30.211 42.012-31.781 67.848h-12.469v-228.29h35.16c3.2617 0 5.9062-2.6406 5.9062-5.9023s-2.6445-5.9062-5.9062-5.9062h-40.738 0.003907c-3.3984 0.15234-6.1094 2.8828-6.2344 6.2812v240.1c0 3.2656 2.9727 5.5273 6.2344 5.5273h18.043c2.0039 35.543 22.469 67.441 53.941 84.082s69.355 15.59 99.859-2.7656c30.5-18.355 49.168-51.34 49.203-86.938 0-0.375-0.011719-0.69922-0.015625-1.0703 4.3359-6.1484 10.508-9.6211 17.121-9.6211 6.0312 0 11.621 2.9453 15.902 8.3047-0.019531 0.82031-0.03125 1.6484-0.03125 2.4727 0 56.016 45.574 101.41 101.59 101.41 25.977 0.074219 50.988-9.832 69.863-27.676s30.176-42.258 31.559-68.195h18.043c1.543 0.042969 3.0352-0.53516 4.1445-1.6055 1.1094-1.0703 1.7461-2.5391 1.7617-4.082 0-0.59766 0.29688-60.504 0.44141-119.79 0.085938-34.824 0.10547-62.551 0.058594-82.492-0.03125-11.855-0.085938-21-0.16016-27.273zm-361.87 319.5c-23.781-0.027343-46.578-9.4766-63.406-26.277-16.828-16.801-26.312-39.586-26.375-63.367 0-0.046875 0.007812-0.089844 0.007812-0.13672s-0.007812-0.089843-0.007812-0.13672c0.035156-23.801 9.5234-46.617 26.379-63.43 16.852-16.809 39.691-26.238 63.496-26.215 23.805 0.023438 46.625 9.5 63.441 26.348 16.82 16.844 26.262 39.68 26.25 63.48-0.015625 23.805-9.4805 46.629-26.316 63.457-16.836 16.828-39.664 26.281-63.469 26.281zm236.16 0c-23.809 0-46.641-9.457-63.477-26.289-16.836-16.832-26.301-39.66-26.305-63.469-0.007812-23.805 9.4414-46.641 26.266-63.48 16.828-16.844 39.656-26.312 63.461-26.328 23.809-0.011719 46.648 9.4297 63.492 26.25 16.848 16.824 26.324 39.648 26.344 63.453v0.074219 0.078125c-0.046875 23.793-9.5234 46.594-26.352 63.41s-39.641 26.273-63.43 26.301z"/>
  <path d="m281.92 424.66c5.5156 0.007812 10.805 2.1992 14.703 6.1016 3.9023 3.8984 6.0938 9.1875 6.1016 14.703 0 3.2578 2.6445 5.9023 5.9023 5.9023 3.2617 0 5.9062-2.6445 5.9062-5.9023-0.011719-7.7969-2.8086-15.328-7.8867-21.238-5.0781-5.9141-12.105-9.8164-19.805-11.004v-8.3008c0-3.2617-2.6445-5.9023-5.9062-5.9023-3.2617 0-5.9023 2.6406-5.9023 5.9023v8.668c-10.586 2.2891-19.344 9.6797-23.379 19.727-4.0352 10.051-2.8164 21.449 3.25 30.418 6.0625 8.9688 16.188 14.344 27.016 14.344 5.5195 0 10.809 2.1914 14.711 6.0938 3.9023 3.9023 6.0938 9.1953 6.0938 14.711 0 5.5195-2.1914 10.809-6.0938 14.711s-9.1953 6.0938-14.711 6.0938c-5.5195 0-10.809-2.1914-14.711-6.0938-3.9023-3.9023-6.0938-9.1953-6.0938-14.711 0-3.2617-2.6445-5.9062-5.9023-5.9062-3.2617 0-5.9062 2.6445-5.9062 5.9062 0.011718 7.4492 2.5703 14.672 7.2461 20.469 4.6797 5.7969 11.199 9.8203 18.48 11.402v8.9766c0 3.2617 2.6406 5.9062 5.9023 5.9062 3.2617 0 5.9062-2.6445 5.9062-5.9062v-8.6094c10.938-1.668 20.285-8.7695 24.824-18.859 4.5391-10.094 3.6484-21.797-2.3594-31.09-6.0078-9.293-16.32-14.902-27.387-14.902-5.543 0.039063-10.871-2.1367-14.805-6.043-3.9297-3.9062-6.1445-9.2188-6.1445-14.762 0-5.543 2.2148-10.855 6.1445-14.762 3.9336-3.9062 9.2617-6.0781 14.805-6.043z"/>
  <path d="m518.08 424.66c5.5156 0.007812 10.805 2.1992 14.703 6.1016 3.9023 3.8984 6.0938 9.1875 6.1016 14.703 0 3.2578 2.6445 5.9023 5.9062 5.9023 3.2578 0 5.9023-2.6445 5.9023-5.9023-0.011718-7.7969-2.8086-15.328-7.8867-21.238-5.0781-5.9141-12.102-9.8164-19.805-11.004v-8.3008c0-3.2617-2.6445-5.9023-5.9062-5.9023-3.2578 0-5.9023 2.6406-5.9023 5.9023v8.668c-10.586 2.2891-19.344 9.6797-23.379 19.727-4.0352 10.051-2.8164 21.449 3.25 30.418s16.188 14.344 27.016 14.344c5.5195 0 10.809 2.1914 14.711 6.0938 3.9023 3.9023 6.0938 9.1953 6.0938 14.711 0 5.5195-2.1914 10.809-6.0938 14.711-3.9023 3.9023-9.1914 6.0938-14.711 6.0938s-10.809-2.1914-14.711-6.0938c-3.9023-3.9023-6.0938-9.1953-6.0938-14.711 0-3.2617-2.6445-5.9062-5.9023-5.9062-3.2617 0-5.9062 2.6445-5.9062 5.9062 0.011718 7.4492 2.5703 14.672 7.2461 20.469 4.6797 5.7969 11.199 9.8203 18.48 11.402v8.9766c0 3.2617 2.6445 5.9062 5.9023 5.9062 3.2617 0 5.9062-2.6445 5.9062-5.9062v-8.6094c10.938-1.668 20.285-8.7695 24.824-18.859 4.5391-10.094 3.6523-21.797-2.3594-31.09-6.0078-9.293-16.32-14.902-27.387-14.902-5.543 0.039063-10.871-2.1367-14.805-6.043-3.9297-3.9062-6.1406-9.2188-6.1406-14.762 0-5.543 2.2109-10.855 6.1406-14.762 3.9336-3.9062 9.2617-6.0781 14.805-6.043z"/>
 </g>
</svg>