<?xml version="1.0" encoding="UTF-8"?>
<!-- The Best Svg Icon site in the world: iconSvg.co, Visit us! https://iconsvg.co -->
<svg fill="#000000" width="800px" height="800px" version="1.1" viewBox="144 144 512 512" xmlns="http://www.w3.org/2000/svg">
 <g>
  <path d="m546.6 418.84c-34.828 0-63.164 28.336-63.164 63.164s28.336 63.164 63.164 63.164c34.832 0 63.168-28.336 63.168-63.164s-28.336-63.164-63.168-63.164zm0 116.47c-29.391 0-53.305-23.914-53.305-53.309 0-29.391 23.91-53.309 53.305-53.309 29.391 0 53.309 23.914 53.309 53.309 0.003906 29.398-23.91 53.309-53.309 53.309z"/>
  <path d="m546.6 458.34h14.293c2.7266 0 4.9258-2.207 4.9258-4.9258s-2.207-4.9258-4.9258-4.9258h-9.3672v-4.332c0-2.7188-2.207-4.9258-4.9258-4.9258-2.7266 0-4.9258 2.207-4.9258 4.9258v5.0547c-8.2031 2.1914-14.293 9.6172-14.293 18.504 0 10.602 8.625 19.227 19.227 19.227 5.1641 0 9.3672 4.2031 9.3672 9.3672s-4.2031 9.3672-9.3672 9.3672h-14.293c-2.7266 0-4.9258 2.207-4.9258 4.9258s2.207 4.9258 4.9258 4.9258h9.3672v4.3359c0 2.7188 2.207 4.9258 4.9258 4.9258 2.7266 0 4.9258-2.207 4.9258-4.9258v-5.0586c8.2031-2.1914 14.293-9.6172 14.293-18.5 0-10.602-8.625-19.227-19.227-19.227-5.1641 0-9.3672-4.2031-9.3672-9.3672 0-5.168 4.2031-9.3711 9.3672-9.3711z"/>
  <path d="m551.53 402.15v-159.35c0-2.7188-2.207-4.9258-4.9258-4.9258l-353.66-0.003906c-2.7266 0-4.9258 2.207-4.9258 4.9258v39.922l-0.99609 0.003906c-7.5781 0.003906-13.742 6.1719-13.742 13.754v26.727c0 7.582 6.168 13.75 13.742 13.75h0.99219v22.625h-0.99219c-7.5781 0-13.742 6.168-13.742 13.75v26.727c0 7.582 6.168 13.75 13.742 13.75h0.99219v22.574h-0.99219c-7.5781-0.003906-13.742 6.1602-13.742 13.742v26.727c0 7.582 6.168 13.75 13.742 13.75h0.99219v39.922c0 2.7188 2.207 4.9258 4.9258 4.9258h24v11.879c0 6.793 5.5273 12.324 12.324 12.324h31.016c6.7969 0 12.324-5.5273 12.324-12.324v-11.879h194.31v11.203c0 7.1641 5.8281 12.992 12.992 12.992h29.684c3.0469 0 5.8906-1.1484 8.1602-3.0195 9.1523 3.5781 18.816 5.4961 28.84 5.4961 44.184 0.007812 80.117-35.93 80.117-80.105 0-42.508-33.305-77.297-75.18-79.863zm-353.65-154.42h343.79v154.32c-0.070313 0.003907-0.14062 0.019531-0.20703 0.023438-2.5039 0.16016-4.9961 0.46875-7.4883 0.86719-0.58984 0.097656-1.1758 0.20312-1.7617 0.30859-0.40625 0.074219-0.81641 0.13281-1.2227 0.21094v-134.47c0-2.7188-2.207-4.9258-4.9258-4.9258h-312.56c-2.7266 0-4.9258 2.207-4.9258 4.9258v13.734h-10.695zm319 159.93c-1.0625 0.42969-2.1172 0.86719-3.1523 1.3398-0.91797 0.41406-1.8242 0.84766-2.7188 1.293-1.0117 0.50391-2.0156 1.0312-3.0039 1.5781-0.875 0.48438-1.7422 0.98438-2.6016 1.4961-0.96094 0.57812-1.9062 1.1797-2.8359 1.7969-0.83203 0.55078-1.6562 1.1094-2.4648 1.6875-0.90625 0.64844-1.793 1.3242-2.6719 2.0156-0.78125 0.60937-1.5586 1.2227-2.3125 1.8633-0.85156 0.71875-1.6758 1.4648-2.5 2.2148-0.72656 0.66406-1.4492 1.3359-2.1523 2.0234-0.79688 0.78516-1.5586 1.5938-2.3164 2.4102-0.67188 0.71875-1.3398 1.4297-1.9805 2.1758-0.73047 0.83984-1.4258 1.7148-2.1211 2.5898-0.60938 0.76562-1.2227 1.5273-1.8047 2.3125-0.66406 0.90234-1.2891 1.832-1.918 2.7617-0.54297 0.80469-1.0977 1.6016-1.6133 2.4297-0.59766 0.95703-1.1523 1.9453-1.7148 2.9258-0.48047 0.83984-0.96875 1.668-1.4141 2.5273-0.52734 1.0117-1.0039 2.0547-1.4922 3.0938-0.40625 0.86719-0.83203 1.7227-1.2031 2.6055-0.45703 1.0742-0.85156 2.1719-1.2656 3.2656-0.33203 0.88281-0.68359 1.7539-0.98828 2.6484-0.38281 1.1445-0.69922 2.3125-1.0312 3.4766-0.25 0.87109-0.52734 1.7344-0.75 2.6211-0.30859 1.2383-0.53906 2.5039-0.78906 3.7617-0.16797 0.83594-0.36719 1.6641-0.50781 2.5078-0.23047 1.4141-0.38281 2.8516-0.53906 4.2812-0.074219 0.71094-0.19531 1.4062-0.25781 2.1211-0.17578 2.1562-0.27344 4.332-0.27344 6.5234 0 2.625 0.17188 5.2305 0.42188 7.8203 0.066406 0.68359 0.14453 1.3594 0.23047 2.0391 0.27734 2.2539 0.64062 4.4883 1.1094 6.6992 0.054687 0.27344 0.074218 0.55469 0.13672 0.82031l-249.96 0.011719v-8.8047h7.6602c5.5625 0 10.086-4.4531 10.086-9.9297v-34.363c0-5.4766-4.5234-9.9297-10.086-9.9297h-7.6602v-22.574h7.6602c5.5625 0 10.086-4.4531 10.086-9.9297v-34.363c0-5.4766-4.5234-9.9297-10.086-9.9297h-7.6602v-22.625h7.6602c5.5625 0 10.086-4.4531 10.086-9.9297v-34.363c0-5.4766-4.5234-9.9297-10.086-9.9297h-7.6602v-8.8047h302.71v132.12c-0.48047 0.16016-0.9375 0.36719-1.4102 0.53906-0.95703 0.33984-1.9062 0.70312-2.8398 1.0781zm-333.73-84.457v-26.727c0-2.1445 1.7422-3.8906 3.8906-3.8906h5.918l32.703 0.070312c0 0.003906 0.011719 0.003906 0.011719 0.011719v0.070312l-0.082031 34.355h-38.559c-2.1445 0-3.8828-1.7461-3.8828-3.8906zm14.734 13.75h10.688v22.625h-10.688zm-14.734 63.102v-26.727c0-2.1445 1.7422-3.8906 3.8906-3.8906h5.918l32.703 0.070312c0 0.003907 0.011719 0.003907 0.011719 0.011719v0.070313l-0.082031 34.355h-12.09l-20.547-0.003906h-5.9219c-2.1445 0-3.8828-1.7422-3.8828-3.8867zm14.734 13.742h10.688v22.574l-10.688 0.003906zm-14.734 63.055v-26.727c0-2.1445 1.7422-3.8906 3.8906-3.8906h5.918l32.703 0.070313c0 0.003906 0.011719 0.003906 0.011719 0.011718v0.070313l-0.082031 34.355h-12.09l-20.547-0.003907h-5.9219c-2.1445 0-3.8828-1.7422-3.8828-3.8867zm14.734 13.746h10.688v13.734c0 2.7188 2.207 4.9258 4.9258 4.9258h257.81c0.39844 1.0977 0.81641 2.1875 1.2578 3.2656 0.23047 0.5625 0.47266 1.125 0.71875 1.6836 0.85156 1.9453 1.7695 3.8555 2.7695 5.7227 0.13281 0.24609 0.24609 0.5 0.37891 0.74609 0.92187 1.6719 1.8945 3.3164 2.9375 4.918h-281.49zm64.875 56.73c0 1.3594-1.1094 2.4648-2.4648 2.4648h-31.016c-1.3555 0-2.4648-1.1016-2.4648-2.4648v-11.879h35.941zm217.16 2.4648c-1.6992 0-3.1406-1.4375-3.1406-3.1406v-11.203h10.148c1.4219 1.582 2.9219 3.0938 4.4648 4.5547 0.33203 0.31641 0.67969 0.60938 1.0195 0.91797 1.8281 1.6758 3.7227 3.2734 5.6992 4.7695 0.29297 0.22266 0.5625 0.45703 0.86328 0.67578 1.6211 1.1992 3.2734 2.3477 4.9844 3.4219l-24.039-0.003906zm66.684 2.4727c-9.8477 0-19.324-1.9961-28.191-5.9336-2.4375-1.0625-4.8203-2.2773-7.1289-3.6172-6.918-4.0273-13.168-9.2539-18.348-15.375 0 0-0.003907 0-0.003907-0.003906-6.0977-7.2148-10.609-15.445-13.418-24.48-2.1016-6.6914-3.1641-13.703-3.1641-20.844 0-7.8203 1.3086-15.422 3.75-22.562 6.0977-17.844 19.227-32.781 36.477-40.965 3.4453-1.6367 7.0625-2.9961 10.816-4.0625 6.3008-1.7695 12.766-2.6641 19.211-2.6641 38.738 0 70.258 31.52 70.258 70.258-0.003907 38.734-31.516 70.25-70.258 70.25z"/>
  <path d="m369.77 304.91c-45.082 0-81.75 36.672-81.75 81.754 0.003906 45.078 36.672 81.75 81.75 81.75 45.082 0 81.754-36.676 81.754-81.75 0-45.078-36.676-81.754-81.754-81.754zm0 40.969c22.488 0 40.785 18.293 40.785 40.785 0 22.488-18.293 40.785-40.785 40.785-22.484 0-40.785-18.293-40.785-40.785 0.003907-22.492 18.297-40.785 40.785-40.785zm0 112.68c-39.641 0-71.895-32.254-71.895-71.895 0-37.977 29.625-69.094 66.965-71.648v21.254c-25.613 2.4883-45.711 24.133-45.711 50.391 0 27.922 22.715 50.645 50.637 50.645 27.926 0 50.645-22.715 50.645-50.645 0-26.258-20.098-47.902-45.715-50.391v-21.254c37.348 2.5508 66.965 33.664 66.965 71.648 0.003907 39.641-32.246 71.895-71.891 71.895z"/>
 </g>
</svg>