<?xml version="1.0" encoding="UTF-8"?>
<!-- The Best Svg Icon site in the world: iconSvg.co, Visit us! https://iconsvg.co -->
<svg fill="#000000" width="800px" height="800px" version="1.1" viewBox="144 144 512 512" xmlns="http://www.w3.org/2000/svg">
 <g>
  <path d="m591.1 269.8c-86.551 41.027-159.06 110.16-204.21 194.63-0.011719 0.019531-0.042969 0.019531-0.050781 0.042969-0.41016 0.73438-1.0195 1.332-1.7305 1.8047-0.21094 0.14844-0.41016 0.21094-0.62891 0.32422-0.29297 0.125-0.54688 0.32422-0.87109 0.42969-0.45312 0.10547-0.90234 0.16797-1.3555 0.16797-0.83984 0-1.6797-0.1875-2.4648-0.62109-0.17969-0.10547-0.27344-0.24219-0.44141-0.34766-0.17969-0.125-0.30469-0.24219-0.45312-0.38672-0.78906-0.67188-1.3945-1.5234-1.668-2.4766-0.011718-0.019531-0.03125-0.019531-0.042968-0.0625-12.793-48.238-45.387-89.406-89.414-112.94-2.5625-1.3633-3.5156-4.543-2.1523-7.1055 1.3633-2.5625 4.543-3.5156 7.1055-2.1523 42.949 22.965 75.395 61.883 90.844 107.8 46.477-81.605 118.12-148.33 203.04-188.58 2.625-1.2383 5.75-0.125 6.9922 2.4883 1.2422 2.6133 0.12109 5.7422-2.4922 6.9805z"/>
  <path d="m496.61 286.23c-58.789-32.578-136.13-34.207-197.04-4.1562-42.402 20.918-71.719 55.094-80.461 93.781-7.6211 33.715 0.87109 68.34 23.91 97.52 51.965 65.82 162.16 85.859 245.65 44.672 42.402-20.906 71.719-55.105 80.461-93.773 7.6211-33.715-0.87109-68.352-23.91-97.527-1.793-2.2773-1.4062-5.5742 0.88281-7.3789 2.2578-1.793 5.5742-1.3867 7.3672 0.87109 25.043 31.707 34.25 69.473 25.926 106.34-9.4375 41.797-40.809 78.551-86.059 100.88-30.73 15.145-64.949 22.387-98.77 22.387-62.703 0-124.12-24.824-159.77-69.965-25.031-31.707-34.238-69.473-25.902-106.34 9.4375-41.773 40.797-78.543 86.059-100.87 63.91-31.531 145.07-29.797 206.77 4.3867 2.5391 1.4062 3.4414 4.5977 2.0469 7.1367-1.418 2.5195-4.6289 3.4219-7.1602 2.0352z"/>
 </g>
</svg>