<?xml version="1.0" encoding="UTF-8"?>
<!-- The Best Svg Icon site in the world: iconSvg.co, Visit us! https://iconsvg.co -->
<svg fill="#000000" width="800px" height="800px" version="1.1" viewBox="144 144 512 512" xmlns="http://www.w3.org/2000/svg">
 <g>
  <path d="m578.46 259.25c-0.35156-0.87109-0.85938-1.668-1.4961-2.3594l-88.164-93.051c-1.5039-1.4102-3.4531-2.2461-5.5117-2.3594h-254.66c-4.3477 0-7.8711 3.5234-7.8711 7.8711v461.54c0 2.0859 0.82812 4.0898 2.3047 5.5664 1.4766 1.4727 3.4766 2.3047 5.5664 2.3047h342.75c2.0898 0 4.0898-0.83203 5.5664-2.3047 1.4766-1.4766 2.3086-3.4805 2.3086-5.5664v-368.73c-0.0625-1.0156-0.32812-2.0078-0.78906-2.9141zm-87.535-70.848 62.977 66.047h-62.977zm-254.58 434.85v-446.5h239.23v85.414c0 2.0859 0.82813 4.0898 2.3047 5.5664 1.4766 1.4766 3.4805 2.3047 5.5664 2.3047h80.215v353.22z"/>
  <path d="m277.82 225.87h53.609c4.3477 0 7.8711-3.5273 7.8711-7.875s-3.5234-7.8711-7.8711-7.8711h-53.609c-4.3477 0-7.8711 3.5234-7.8711 7.8711s3.5234 7.875 7.8711 7.875z"/>
  <path d="m277.82 269.88h116.82c4.3477 0 7.8711-3.5273 7.8711-7.875 0-4.3438-3.5234-7.8711-7.8711-7.8711h-116.82c-4.3477 0-7.8711 3.5273-7.8711 7.8711 0 4.3477 3.5234 7.875 7.8711 7.875z"/>
  <path d="m411.1 575.7c-1.8125 0-4.0938-4.25-6.1406-7.8711-3.6211-6.8477-8.582-16.215-19.68-16.215s-15.742 9.3672-19.68 16.215c-2.0469 3.7773-4.3281 7.8711-6.1406 7.8711s-4.25-4.4102-6.1406-7.8711c-3.6211-6.8477-8.582-16.215-19.68-16.215l-57.859-0.003907c-2.3359-0.53125-4.7852 0.027344-6.6562 1.5234-1.875 1.4922-2.9648 3.7578-2.9648 6.1523 0 2.3945 1.0898 4.6602 2.9648 6.1523 1.8711 1.4961 4.3203 2.0547 6.6562 1.5234h57.859c1.8125 0 4.1719 4.4883 6.1406 7.8711 3.6211 6.8477 8.582 16.215 19.68 16.215 11.098 0 15.742-9.3672 19.68-16.215 2.0469-3.7773 4.3281-7.8711 6.1406-7.8711s4.0938 4.3281 6.1406 7.8711c3.6211 6.8477 8.582 16.215 19.68 16.215 4.3477 0 7.8711-3.5234 7.8711-7.8711 0-4.3477-3.5234-7.8711-7.8711-7.8711z"/>
  <path d="m522.96 450.46c-2.625-1.5586-5.6094-2.3984-8.6602-2.4375-14.641 0-25.82 17.555-42.43 46.367-14.562 25.27-20.387 37.551-20.703 45.266l-10.312 6.0625v-0.003906c-2.4609 1.4922-3.9102 4.207-3.7812 7.082l1.6523 30.621 0.003907 0.003907c0.21484 2.5078 1.6211 4.7617 3.7773 6.0586 1.332 1.0352 2.957 1.6133 4.6445 1.6562 1.2109 0.019532 2.4062-0.27734 3.4648-0.86719l27.395-13.855c2.4883-1.3242 4.0781-3.875 4.1719-6.6914v-12.832c6.0625-4.3281 14.09-15.191 28.418-39.91 7.2305-11.676 13.398-23.98 18.418-36.762 6.457-18.027 0.23828-26.137-6.0586-29.758zm-47.23 81.867-0.003907 0.003906c1.8555 1.0938 3.8047 2.0156 5.8242 2.7539-1.7266 2.4922-3.5898 4.8828-5.5859 7.1641-2.5547-2.2031-5.5273-3.8633-8.7383-4.8789 1.0156-2.9141 2.2227-5.7539 3.6211-8.5039 1.4922 1.2969 3.0977 2.457 4.8008 3.4648zm-22.121 39.359-0.78906-15.035 8.3438-4.9609v0.003906c2.375 0.48047 4.5117 1.7578 6.0625 3.6211v9.4453zm61.246-96.355-0.003907 0.003906c-4.7539 11.801-10.492 23.176-17.16 34.008-2.7539 4.8008-5.1953 8.8164-7.3984 12.438h-0.003907c-2.3945-0.5625-4.7031-1.4648-6.8477-2.6758-1.9688-1.168-3.7656-2.5977-5.3516-4.25 2.832-5.1953 5.5898-9.918 7.1641-12.676 7.8711-13.539 22.277-38.652 29.125-38.652v0.003906c0.30859-0.082032 0.63672-0.082032 0.94531 0 2.7539 1.6523 0.70703 8.0273-0.55078 11.727z"/>
  <path d="m448.73 445.03-0.62891-8.3438c0.027344-2.6094 1.7031-4.9141 4.1719-5.7461l7.8711-1.9688c4.8672-0.75391 8.9531-4.0586 10.707-8.6602 1.3789-4.5664 0.20703-9.5234-3.0703-12.988l-5.4336-6.4531v-0.003907c-1.5234-2.1133-1.5234-4.9688 0-7.082l5.3516-6.375 0.003907-0.003906c3.4102-3.3867 4.625-8.4023 3.1484-12.977-1.4805-4.5703-5.4062-7.9258-10.156-8.6719l-7.8711-2.0469c-2.5156-0.76953-4.2188-3.1133-4.1719-5.7461l0.62891-8.3438c0.40625-3.9219-0.85156-7.832-3.4648-10.785-3.9648-3.9375-9.9727-4.9766-15.035-2.5977l-7.8711 3.1484c-2.6484 0.97656-5.6172-0.003906-7.1641-2.3594l-4.4883-7.0859c-2.3164-4.1016-6.6641-6.6367-11.375-6.6367-4.7109 0-9.0547 2.5352-11.375 6.6367l-4.25 7.0859c-1.5859 2.0625-4.2734 2.9375-6.7695 2.2031l-7.8711-3.2266c-5.0625-2.3789-11.07-1.3438-15.035 2.5977-2.6133 2.9531-3.8711 6.8633-3.4648 10.785l0.62891 8.4219c-0.015626 2.5938-1.6992 4.8828-4.1719 5.668l-7.8711 2.0469c-4.7266 0.77344-8.6289 4.1172-10.121 8.6719-1.4883 4.5508-0.32031 9.5547 3.0352 12.977l5.4336 6.375c1.5 2.125 1.5 4.9609 0 7.0859l-5.4336 6.375c-3.3984 3.4062-4.6055 8.4258-3.1289 13.004 1.4766 4.5781 5.3906 7.9453 10.137 8.7227l7.8711 1.9688c2.4844 0.81641 4.168 3.1328 4.1719 5.7461l-0.62891 8.3438c-0.39844 3.9453 0.85547 7.8789 3.4648 10.863 3.9766 3.918 9.9727 4.957 15.035 2.5977l7.8711-3.1484c2.4531-0.83594 5.168 0.023438 6.6914 2.125l4.4883 7.1641c2.2109 4.2383 6.5938 6.8945 11.375 6.8945 4.7773 0 9.1602-2.6562 11.375-6.8945l4.4102-7.0859-0.003906 0.003906c1.5859-2.0625 4.2734-2.9414 6.7695-2.207l7.8711 3.1484c5.0625 2.3828 11.07 1.3438 15.039-2.5977 2.5195-2.9336 3.7188-6.7773 3.3047-10.625zm-13.855 0-7.1641-2.9141c-4.2461-1.5352-8.8906-1.5938-13.176-0.16797-4.2852 1.4297-7.9609 4.2617-10.438 8.0391l-4.0938 6.6914-4.0156-6.5352v0.003906c-3.6328-5.6914-9.9375-9.1133-16.688-9.0547-2.4062-0.042969-4.7891 0.41406-7.0078 1.3398l-7.1641 2.9141 0.62891-7.8711v-0.003906c0.24609-4.5273-1.0781-9.0039-3.7422-12.672-2.668-3.6719-6.5156-6.3125-10.898-7.4805l-7.8711-1.8906 4.9609-5.8242h-0.003906c2.8711-3.5234 4.4375-7.9297 4.4375-12.477s-1.5664-8.9531-4.4375-12.477l-4.9609-5.9023 7.8711-1.8125h0.003906c4.3906-1.1562 8.2461-3.793 10.914-7.4648 2.668-3.6719 3.9844-8.1562 3.7266-12.688l-0.55078-7.8711 7.1641 2.9141v-0.003907c4.25 1.5234 8.8867 1.5742 13.168 0.14844 4.2852-1.4297 7.9609-4.25 10.449-8.0195l4.0938-6.5352 4.0156 6.5352c2.4844 3.7695 6.1641 6.5898 10.445 8.0195 4.2812 1.4258 8.918 1.375 13.168-0.14844l7.1641-2.9141-0.62891 7.8711v0.003906c-0.23047 4.5273 1.0977 8.9961 3.7617 12.66 2.6641 3.668 6.5039 6.3125 10.879 7.4922l7.8711 1.8125-4.9609 5.9023h0.003906c-2.8711 3.5234-4.4375 7.9297-4.4375 12.477s1.5664 8.9531 4.4375 12.477l4.9609 5.8242-7.8711 1.8906h-0.003907c-4.3984 1.1406-8.2617 3.7773-10.934 7.4531s-3.9805 8.1641-3.707 12.699z"/>
  <path d="m420.07 370.32c-7.1602-5.2812-16.121-7.5078-24.922-6.1914-8.8008 1.3164-16.723 6.0664-22.023 13.215-5.3047 7.1445-7.5547 16.102-6.2656 24.906 1.293 8.8047 6.0234 16.738 13.152 22.059 7.1328 5.3242 16.082 7.6016 24.891 6.3359 8.8086-1.2695 16.754-5.9766 22.098-13.09 5.4023-7.1641 7.7109-16.191 6.4102-25.066-1.3008-8.875-6.1055-16.859-13.34-22.168zm-4.3281 38.73c-3.1992 4.125-7.8672 6.8555-13.031 7.6172-5.1641 0.76562-10.422-0.5-14.68-3.5234-4.1953-3.1289-6.9766-7.7969-7.7305-12.98-0.75781-5.1797 0.57031-10.445 3.6953-14.648 3.125-4.1992 7.7891-6.9883 12.969-7.7539 5.1758-0.76172 10.449 0.55859 14.652 3.6758 4.207 3.1172 7.0039 7.7773 7.7773 12.953 0.77344 5.1758-0.54297 10.449-3.6523 14.66z"/>
 </g>
</svg>