<?xml version="1.0" encoding="UTF-8"?>
<!-- The Best Svg Icon site in the world: iconSvg.co, Visit us! https://iconsvg.co -->
<svg fill="#000000" width="800px" height="800px" version="1.1" viewBox="144 144 512 512" xmlns="http://www.w3.org/2000/svg">
 <g>
  <path d="m479.66 420.31c40.918 0 74.207-33.285 74.207-74.207 0-41.484-33.246-105.05-74.207-105.05-7.7148 0-15.367 2.168-22.824 6.4375-15.707-20.066-35.422-34.051-56.836-34.051-21.262 0-40.844 13.785-56.504 33.613-7.5156-4.957-14.168-6-23.23-6-40.961 0-74.207 63.566-74.207 105.05 0 40.918 33.285 74.207 74.207 74.207 6.2383 0 12.449-0.77734 18.445-2.3125 0.78125-0.20312 1.4648-0.5625 2.0859-1.0078 16.078 13.352 36.719 21.398 59.203 21.398 22.324 0 42.824-7.9258 58.855-21.098 6.7383 1.9609 13.707 3.0195 20.805 3.0195zm0-166.66c32.816 0 61.609 57.625 61.609 92.453 0 33.973-27.641 61.609-61.609 61.609-3.4258 0-6.8164-0.28125-10.156-0.83594 14.465-16.375 23.32-37.801 23.32-61.312 0-26.773-10.969-60.84-28.555-87.684 5.1523-2.7422 10.309-4.2305 15.391-4.2305zm-221 92.453c0-34.828 28.797-92.453 61.609-92.453 7.5664 0 11.516 0.83203 15.859 3.6133-17.82 26.938-28.957 61.324-28.957 88.301 0 23.461 8.8203 44.855 23.23 61.211-3.3438 0.55469-6.7227 0.9375-10.137 0.9375-33.969 0-61.605-27.637-61.605-61.609zm61.105-0.53906c0-45.031 37.5-119.54 80.238-119.54s80.238 74.5 80.238 119.54c0 44.234-35.996 80.227-80.238 80.227s-80.238-35.988-80.238-80.227z"/>
  <path d="m400 294.9c8.207 0 14.883 5.8594 14.883 13.055 0 3.4766 2.8203 6.2969 6.2969 6.2969 3.4766 0 6.2969-2.8203 6.2969-6.2969 0-12.117-9.0586-22.273-21.18-24.945v-5.7891c0-3.4766-2.8203-6.2969-6.2969-6.2969s-6.2969 2.8203-6.2969 6.2969v5.6836c-14.496 2.8398-21.176 15.461-21.176 27.301 0 1.9062 0.86719 3.7148 2.3516 4.9062l39.777 32.004c-1.2109 7.3516-7.1055 12.594-14.652 12.594-8.2031 0-14.879-5.8633-14.879-13.07 0-3.4766-2.8203-6.2969-6.2969-6.2969s-6.2969 2.8203-6.2969 6.2969c0 12.121 9.0586 22.285 21.176 24.953v5.7852c0 3.4766 2.8203 6.2969 6.2969 6.2969 3.4766 0 6.2969-2.8203 6.2969-6.2969v-5.8125c12.273-2.832 21.18-13.793 21.18-27.285 0-1.9062-0.86719-3.7148-2.3516-4.9062l-39.781-32.008c0.69922-4.6055 3.5352-12.465 14.652-12.465z"/>
  <path d="m601.08 428.15c-8.2383-7.2969-20.852-6.5195-28.184 1.7422l-25.902 29.82c-4.3867-4.8555-11.008-7.4805-17.738-6.3672l-80.672 9.6484c-14.395 2.707-41.281 15.949-40.008 46.488l0.003906 59.594c0 3.4766 2.8203 6.2969 6.2969 6.2969s6.2969-2.8203 6.2969-6.2969l-0.003906-59.852c-1.1484-27.531 28.496-33.605 29.328-33.781l80.535-9.6211c3.9688-0.67578 7.7773 2.0469 8.4453 6.0469 0.32422 1.9336-0.12109 3.875-1.2656 5.4648-1.1445 1.5977-2.8359 2.6484-4.5781 2.9492l-40.703 5.4961c-3.4492 0.46484-5.8633 3.6367-5.3945 7.082 0.46484 3.4492 3.6289 5.8555 7.0781 5.3945l40.898-5.5273c5.25-0.875 9.8477-3.7422 12.941-8.0703 2.4648-3.4453 3.6836-7.4883 3.6719-11.637l30.234-34.816c2.6836-3.0273 7.3359-3.3164 10.367-0.62891 3.0273 2.6836 3.3047 7.3359 0.62109 10.367l-49.777 56.289c-1.6406 1.8789-3.0273 2.6641-7.8047 3.3906l-56.32 11.285c-2.9414 0.58984-5.0586 3.1758-5.0586 6.1758v43.984c0 3.4766 2.8203 6.2969 6.2969 6.2969 3.4766 0 6.2969-2.8203 6.2969-6.2969v-38.824l50.957-10.219c6.0703-0.91016 10.715-2.4844 15.086-7.4727l49.75-56.266c7.2891-8.2227 6.5273-20.848-1.6953-28.137z"/>
  <path d="m350.99 462.93-79.977-9.5469c-6.9258-1.1523-13.613 1.4727-18.016 6.332l-25.941-29.871c-3.5273-3.9844-8.3984-6.3594-13.719-6.6758-5.3008-0.33203-10.43 1.4453-14.418 4.9766-3.9844 3.5312-6.3594 8.4023-6.6758 13.719-0.32422 5.3203 1.4453 10.438 4.9727 14.418l49.734 56.25c4.3867 5.0117 9.0352 6.5859 14.801 7.4414l51.262 10.273v38.824c0 3.4766 2.8203 6.2969 6.2969 6.2969s6.2969-2.8203 6.2969-6.2969v-43.984c0-3.0039-2.1172-5.582-5.0625-6.1758l-56.625-11.34c-4.4727-0.67188-5.8477-1.457-7.5156-3.3594l-49.762-56.277c-1.3047-1.4727-1.9531-3.3555-1.832-5.3086s0.98828-3.75 2.457-5.0469c1.4648-1.3008 3.3594-1.9648 5.3086-1.8281 1.9609 0.11719 3.75 0.98828 5.0078 2.4102l30.293 34.879c-0.011718 9.5742 6.8711 18.066 16.797 19.723l40.707 5.4961c3.457 0.45703 6.6133-1.9492 7.0781-5.4023 0.46875-3.4453-1.9492-6.6133-5.3945-7.082l-40.512-5.4648c-3.9961-0.66406-6.707-4.4531-6.0391-8.4492 0.66016-3.9883 4.4375-6.6914 8.7227-5.9961l79.824 9.5156c1.2656 0.24219 30.914 6.3125 29.762 34.109l0.003906 59.586c0 3.4766 2.8203 6.2969 6.2969 6.2969s6.2969-2.8203 6.2969-6.2969l-0.003906-59.328c1.2812-30.801-25.609-44.043-40.426-46.816z"/>
 </g>
</svg>