<?xml version="1.0" encoding="UTF-8"?>
<!-- The Best Svg Icon site in the world: iconSvg.co, Visit us! https://iconsvg.co -->
<svg width="800px" height="800px" version="1.1" viewBox="144 144 512 512" xmlns="http://www.w3.org/2000/svg">
 <defs>
  <clipPath id="c">
   <path d="m258 148.09h174v78.906h-174z"/>
  </clipPath>
  <clipPath id="b">
   <path d="m171 179h253v472.9h-253z"/>
  </clipPath>
  <clipPath id="a">
   <path d="m392 415h237v236.9h-237z"/>
  </clipPath>
 </defs>
 <g clip-path="url(#c)">
  <path d="m281.92 226.81h125.95c6.2617 0 12.27-2.4883 16.699-6.9141 4.4297-4.4297 6.918-10.438 6.918-16.699v-47.234c0-2.0859-0.83203-4.0898-2.3086-5.5664-1.4766-1.4766-3.4766-2.3047-5.5664-2.3047h-157.44c-4.3477 0-7.875 3.5234-7.875 7.8711v47.234c0 6.2617 2.4883 12.27 6.918 16.699 4.4297 4.4258 10.438 6.9141 16.699 6.9141zm-7.8711-62.977h141.7v39.363c0 2.0859-0.82813 4.0898-2.3047 5.5664s-3.4805 2.3047-5.5664 2.3047h-125.95c-4.3477 0-7.8711-3.5234-7.8711-7.8711z"/>
 </g>
 <g clip-path="url(#b)">
  <path d="m415.74 636.16h-220.42c-4.3477 0-7.8711-3.5234-7.8711-7.8711v-425.09c0-4.3477 3.5234-7.875 7.8711-7.875h39.363c4.3477 0 7.8711-3.5234 7.8711-7.8711s-3.5234-7.8711-7.8711-7.8711h-39.363c-6.2617 0-12.27 2.4883-16.699 6.918-4.4258 4.4258-6.9141 10.434-6.9141 16.699v425.09c0 6.2617 2.4883 12.27 6.9141 16.695 4.4297 4.4297 10.438 6.918 16.699 6.918h220.42c4.3477 0 7.8711-3.5234 7.8711-7.8711s-3.5234-7.8711-7.8711-7.8711z"/>
 </g>
 <path d="m455.1 195.32h39.359c2.0898 0 4.0938 0.83203 5.5664 2.3086 1.4766 1.4766 2.3086 3.4766 2.3086 5.5664v188.93c0 4.3477 3.5234 7.875 7.8711 7.875 4.3477 0 7.8711-3.5273 7.8711-7.875v-188.93c0-6.2656-2.4883-12.273-6.918-16.699-4.4258-4.4297-10.434-6.918-16.699-6.918h-39.359c-4.3477 0-7.8711 3.5234-7.8711 7.8711s3.5234 7.8711 7.8711 7.8711z"/>
 <path d="m218.94 596.8c0 2.0859 0.82812 4.0898 2.3047 5.5664 1.4766 1.4727 3.4805 2.3047 5.5664 2.3047h141.7c4.3477 0 7.8711-3.5234 7.8711-7.8711 0-4.3477-3.5234-7.875-7.8711-7.875h-133.82v-118.08c0-4.3477-3.5273-7.8711-7.875-7.8711s-7.8711 3.5234-7.8711 7.8711z"/>
 <path d="m252.74 570.88c3.0742 3.0742 8.0547 3.0742 11.129 0l25.922-25.922 10.18 10.18c3.0742 3.0742 8.0586 3.0742 11.133 0l55.105-55.105h-0.003906c2.9844-3.0859 2.9414-7.9961-0.09375-11.035-3.0391-3.0352-7.9492-3.0781-11.035-0.09375l-49.539 49.539-10.18-10.18c-3.0742-3.0742-8.0586-3.0742-11.129 0l-31.488 31.488c-3.0742 3.0742-3.0742 8.0547 0 11.129z"/>
 <g clip-path="url(#a)">
  <path d="m510.21 415.74c-31.316 0-61.352 12.441-83.496 34.586-22.145 22.145-34.586 52.18-34.586 83.496 0 31.316 12.441 61.352 34.586 83.492 22.145 22.145 52.18 34.586 83.496 34.586 31.316 0 61.352-12.441 83.496-34.586 22.145-22.141 34.586-52.176 34.586-83.492-0.039062-31.309-12.488-61.32-34.625-83.457-22.137-22.137-52.152-34.59-83.457-34.625zm0 220.42c-27.141 0-53.172-10.781-72.363-29.973-19.191-19.195-29.973-45.223-29.973-72.363 0-27.145 10.781-53.172 29.973-72.363 19.191-19.191 45.223-29.973 72.363-29.973s53.172 10.781 72.363 29.973c19.191 19.191 29.973 45.219 29.973 72.363-0.03125 27.129-10.824 53.141-30.008 72.328-19.184 19.184-45.195 29.977-72.328 30.008z"/>
 </g>
 <path d="m510.21 447.23c-20.359 0-40.066 7.1719-55.664 20.258-15.594 13.086-26.082 31.246-29.617 51.297-3.5352 20.047 0.10547 40.703 10.285 58.332 0.99219 1.9023 2.7227 3.3164 4.7812 3.9141 2.0586 0.59766 4.2734 0.32812 6.1328-0.74609 1.8555-1.0742 3.1953-2.8594 3.707-4.9414 0.50781-2.0859 0.14844-4.2852-1.0039-6.0977-11.836-20.449-12.707-45.457-2.3203-66.684 10.391-21.223 30.672-35.879 54.086-39.074 23.414-3.1992 46.883 5.4805 62.582 23.141 15.699 17.664 21.566 41.988 15.645 64.863-5.9219 22.879-22.852 41.301-45.148 49.129-22.297 7.832-47.027 4.0352-65.949-10.121-3.4805-2.6055-8.4141-1.9023-11.023 1.5742-2.6055 3.4805-1.9023 8.4141 1.5742 11.023 22.27 16.699 51.211 21.68 77.781 13.379 26.57-8.3047 47.527-28.871 56.328-55.281 8.8008-26.41 4.3672-55.438-11.914-78.02-16.281-22.578-42.426-35.953-70.262-35.945z"/>
 <path d="m510.67 557.44h-16.211c-4.3477 0-7.8711 3.5273-7.8711 7.875s3.5234 7.8711 7.8711 7.8711h16.211c8.4375-0.082032 16.188-4.6602 20.336-12.008 4.1445-7.3516 4.0586-16.352-0.23437-23.617-4.2891-7.2656-12.129-11.691-20.566-11.609-4.3477 0-7.8711-3.5234-7.8711-7.8711s3.5234-7.8711 7.8711-7.8711h16.207c4.3477 0 7.875-3.5234 7.875-7.8711 0-4.3477-3.5273-7.875-7.875-7.875h-16.207c-8.4375 0.085937-16.188 4.6641-20.336 12.012-4.1484 7.3477-4.0586 16.352 0.23047 23.617 4.293 7.2617 12.133 11.688 20.57 11.605 4.3477 0 7.8711 3.5234 7.8711 7.8711s-3.5234 7.8711-7.8711 7.8711z"/>
 <path d="m236.99 311.1c3.0742 3.0703 8.0586 3.0703 11.133 0l31.488-31.488c2.9805-3.0898 2.9375-8-0.097656-11.035-3.0352-3.0391-7.9453-3.082-11.035-0.097656l-25.922 25.922-10.18-10.18v0.003906c-3.0898-2.9844-7.9961-2.9414-11.035 0.09375-3.0352 3.0352-3.0781 7.9453-0.09375 11.035z"/>
 <path d="m462.98 266.18h-94.465c-4.3477 0-7.875 3.5234-7.875 7.8711s3.5273 7.8711 7.875 7.8711h94.465c4.3477 0 7.8711-3.5234 7.8711-7.8711s-3.5234-7.8711-7.8711-7.8711z"/>
 <path d="m462.98 297.66h-157.44c-4.3477 0-7.8711 3.5234-7.8711 7.8711s3.5234 7.8711 7.8711 7.8711h157.44c4.3477 0 7.8711-3.5234 7.8711-7.8711s-3.5234-7.8711-7.8711-7.8711z"/>
 <path d="m305.54 281.92h31.488c4.3477 0 7.8711-3.5234 7.8711-7.8711s-3.5234-7.8711-7.8711-7.8711h-31.488c-4.3477 0-7.8711 3.5234-7.8711 7.8711s3.5234 7.8711 7.8711 7.8711z"/>
 <path d="m221.25 389.82 15.742 15.742c3.0742 3.0742 8.0586 3.0742 11.133 0l31.488-31.488c2.9805-3.0859 2.9375-7.9961-0.097656-11.035-3.0352-3.0352-7.9453-3.0781-11.035-0.09375l-25.922 25.922-10.18-10.18c-3.0898-2.9805-7.9961-2.9375-11.035 0.097656-3.0352 3.0352-3.0781 7.9453-0.09375 11.035z"/>
 <path d="m470.85 368.51c0-2.0898-0.83203-4.0898-2.3047-5.5664-1.4766-1.4766-3.4805-2.3086-5.5664-2.3086h-94.465c-4.3477 0-7.875 3.5273-7.875 7.875 0 4.3477 3.5273 7.8711 7.875 7.8711h94.465c2.0859 0 4.0898-0.82812 5.5664-2.3047 1.4727-1.4766 2.3047-3.4805 2.3047-5.5664z"/>
 <path d="m439.36 400c0-2.0898-0.83203-4.0898-2.3047-5.5664-1.4766-1.4766-3.4805-2.3086-5.5664-2.3086h-125.95c-4.3477 0-7.8711 3.5273-7.8711 7.875s3.5234 7.8711 7.8711 7.8711h125.95c2.0859 0 4.0898-0.82812 5.5664-2.3047 1.4727-1.4766 2.3047-3.4805 2.3047-5.5664z"/>
 <path d="m305.54 376.38h31.488c4.3477 0 7.8711-3.5234 7.8711-7.8711 0-4.3477-3.5234-7.875-7.8711-7.875h-31.488c-4.3477 0-7.8711 3.5273-7.8711 7.875 0 4.3477 3.5234 7.8711 7.8711 7.8711z"/>
</svg>