<?xml version="1.0" encoding="UTF-8"?>
<!-- The Best Svg Icon site in the world: iconSvg.co, Visit us! https://iconsvg.co -->
<svg fill="#000000" width="800px" height="800px" version="1.1" viewBox="144 144 512 512" xmlns="http://www.w3.org/2000/svg">
 <g>
  <path d="m504.96 295.04h31.488v79.664l-13.539-13.645c-4.1133-4.1172-10.789-4.1172-14.902 0-4.1172 4.1172-4.1172 10.789 0 14.902l31.488 31.488c1.9688 1.9883 4.6523 3.1055 7.4492 3.1055 2.8008 0 5.4844-1.1172 7.4531-3.1055l31.488-31.488c4.1172-4.1133 4.1172-10.785 0-14.902-4.1172-4.1172-10.789-4.1172-14.902 0l-13.543 13.645v-90.16c0-2.7852-1.1055-5.4531-3.0742-7.4219s-4.6367-3.0742-7.4219-3.0742h-41.984c-5.7969 0-10.496 4.6992-10.496 10.496s4.6992 10.496 10.496 10.496z"/>
  <path d="m295.04 504.96h-31.488v-79.664l13.539 13.645c4.1172 4.1172 10.789 4.1172 14.906 0 4.1133-4.1133 4.1133-10.789 0-14.902l-31.488-31.488c-1.9727-1.9883-4.6562-3.1055-7.4531-3.1055-2.8008 0-5.4805 1.1172-7.4531 3.1055l-31.488 31.488c-4.1133 4.1133-4.1133 10.789 0 14.902 4.1172 4.1172 10.789 4.1172 14.906 0l13.539-13.645v90.16c0 2.7852 1.1055 5.457 3.0742 7.4219 1.9688 1.9688 4.6367 3.0742 7.4219 3.0742h41.984c5.7969 0 10.496-4.6992 10.496-10.496s-4.6992-10.496-10.496-10.496z"/>
  <path d="m557.44 588.93v10.496h31.488c2.7852 0 5.4531-1.1055 7.4219-3.0742s3.0742-4.6367 3.0742-7.4219v-31.488h-10.496c-8.3516 0-16.359 3.3203-22.266 9.2227-5.9023 5.9062-9.2227 13.914-9.2227 22.266z"/>
  <path d="m588.93 431.49h-31.488v10.496c0 8.3477 3.3203 16.359 9.2227 22.266 5.9062 5.9023 13.914 9.2227 22.266 9.2227h10.496v-31.488c0-2.7852-1.1055-5.457-3.0742-7.4219-1.9688-1.9688-4.6367-3.0742-7.4219-3.0742z"/>
  <path d="m337.02 546.94h-10.496v41.984c0 2.7852 1.1055 5.4531 3.0742 7.4219s4.6367 3.0742 7.4219 3.0742h31.488v-20.992c0-8.3516-3.3203-16.359-9.2227-22.266-5.9062-5.9023-13.914-9.2227-22.266-9.2227z"/>
  <path d="m494.46 515.45c0 17.391-14.098 31.488-31.484 31.488-17.391 0-31.488-14.098-31.488-31.488 0-17.387 14.098-31.488 31.488-31.488 17.387 0 31.484 14.102 31.484 31.488"/>
  <path d="m536.45 441.98v-10.496h-146.94v10.496c0 13.918-5.5312 27.266-15.371 37.105-9.8438 9.8438-23.191 15.371-37.109 15.371h-10.496v31.488h10.496c13.918 0 27.266 5.5312 37.109 15.371 9.8398 9.8438 15.371 23.191 15.371 37.109v20.992h146.94v-10.496c0-13.918 5.5312-27.266 15.371-37.109 9.8438-9.8398 23.191-15.371 37.109-15.371h10.496v-41.984h-10.496c-13.918 0-27.266-5.5273-37.109-15.371-9.8398-9.8398-15.371-23.188-15.371-37.105zm-73.469 125.95c-13.922 0-27.27-5.5273-37.109-15.371-9.8438-9.8398-15.371-23.188-15.371-37.109 0-13.918 5.5273-27.266 15.371-37.105 9.8398-9.8438 23.188-15.371 37.109-15.371 13.918 0 27.266 5.5273 37.105 15.371 9.8438 9.8398 15.371 23.188 15.371 37.105 0 13.922-5.5273 27.27-15.371 37.109-9.8398 9.8438-23.188 15.371-37.105 15.371z"/>
  <path d="m326.53 441.98v31.488h10.496c8.3516 0 16.359-3.3203 22.266-9.2227 5.9023-5.9062 9.2227-13.918 9.2227-22.266v-10.496h-31.488c-5.7969 0-10.496 4.6992-10.496 10.496z"/>
  <path d="m431.49 358.02v10.496h31.488c2.7812 0 5.4531-1.1055 7.4219-3.0742 1.9648-1.9688 3.0742-4.6406 3.0742-7.4219v-31.488h-10.496c-8.3516 0-16.363 3.3164-22.266 9.2227-5.9062 5.9023-9.2227 13.914-9.2227 22.266z"/>
  <path d="m462.98 242.56h10.496v-31.488c0-2.7852-1.1094-5.4531-3.0742-7.4219-1.9688-1.9688-4.6406-3.0742-7.4219-3.0742h-31.488v10.496c0 8.3516 3.3164 16.359 9.2227 22.266 5.9023 5.9062 13.914 9.2227 22.266 9.2227z"/>
  <path d="m242.56 368.51v-20.992c0-8.3516-3.3164-16.363-9.2227-22.266-5.9062-5.9062-13.914-9.2227-22.266-9.2227h-10.496v41.984c0 2.7812 1.1055 5.4531 3.0742 7.4219s4.6367 3.0742 7.4219 3.0742z"/>
  <path d="m368.51 284.54c0 17.391-14.098 31.488-31.488 31.488-17.391 0-31.488-14.098-31.488-31.488s14.098-31.488 31.488-31.488c17.391 0 31.488 14.098 31.488 31.488"/>
  <path d="m263.55 347.52v20.992h146.95v-10.496c0-13.918 5.5273-27.27 15.371-37.109 9.8398-9.8438 23.188-15.371 37.109-15.371h10.496v-41.984h-10.496c-13.922 0-27.27-5.5312-37.109-15.371-9.8438-9.8438-15.371-23.191-15.371-37.109v-10.496h-146.95v10.496c0 13.918-5.5312 27.266-15.371 37.109-9.8438 9.8398-23.191 15.371-37.109 15.371h-10.496v31.488h10.496c13.918 0 27.266 5.5273 37.109 15.371 9.8398 9.8398 15.371 23.191 15.371 37.109zm73.473-115.46c13.918 0 27.266 5.5273 37.109 15.371 9.8398 9.8398 15.371 23.191 15.371 37.109s-5.5312 27.266-15.371 37.109c-9.8438 9.8398-23.191 15.371-37.109 15.371-13.918 0-27.27-5.5312-37.109-15.371-9.8438-9.8438-15.371-23.191-15.371-37.109s5.5273-27.27 15.371-37.109c9.8398-9.8438 23.191-15.371 37.109-15.371z"/>
  <path d="m242.56 211.07v-10.496h-31.488c-5.7969 0-10.496 4.6992-10.496 10.496v31.488h10.496c8.3516 0 16.359-3.3164 22.266-9.2227s9.2227-13.914 9.2227-22.266z"/>
 </g>
</svg>