<?xml version="1.0" encoding="UTF-8"?>
<!-- The Best Svg Icon site in the world: iconSvg.co, Visit us! https://iconsvg.co -->
<svg fill="#000000" width="800px" height="800px" version="1.1" viewBox="144 144 512 512" xmlns="http://www.w3.org/2000/svg">
 <g>
  <path d="m625.39 576.07-28.238-113.09v0.003906c-1.4961-6.0625-7.0195-10.262-13.258-10.078h-67.484l-8.3516-33.41h-0.003907c28.012-0.52734 54.676-12.109 74.172-32.227 19.5-20.117 30.246-47.129 29.898-75.141-0.34766-28.012-11.766-54.75-31.758-74.371-19.992-19.625-46.938-30.543-74.949-30.371-28.016 0.17188-54.824 11.418-74.574 31.285-19.75 19.871-30.836 46.746-30.84 74.758 0.042969 8.9492 1.2031 17.855 3.4453 26.516h-81.273c-6.2383-0.17969-11.762 4.0156-13.258 10.078l-25.32 103.02h-67.484c-6.2422-0.18359-11.766 4.0156-13.258 10.074l-28.242 112.96c-0.99609 4.0234-0.054687 8.2852 2.5508 11.512 2.6016 3.2266 6.5625 5.0508 10.707 4.9297h424.26c4.1445 0.12109 8.1055-1.7031 10.711-4.9297 2.6016-3.2266 3.543-7.4883 2.5469-11.512zm-119.32-342.06c21.098 0 41.332 8.3789 56.25 23.297 14.918 14.918 23.301 35.152 23.301 56.25 0 21.098-8.3828 41.332-23.301 56.25-14.918 14.918-35.152 23.301-56.25 23.301s-41.328-8.3828-56.25-23.301c-14.918-14.918-23.297-35.152-23.297-56.25 0-21.098 8.3789-41.332 23.297-56.25 14.922-14.918 35.152-23.297 56.25-23.297zm-173.55 132.58h81.672c14.414 24.926 38.344 42.918 66.293 49.848l8.6172 36.594h-178.19zm67.488 158.04-11.27-45.078h22.539zm-195.16 41.367 21.609-86.445h134.97l21.609 86.574zm212.13 0 21.609-86.445h134.97l21.609 86.574z"/>
  <path d="m512.69 340.07h-33.145c-7.3203 0-13.258 5.9375-13.258 13.258 0 7.3242 5.9375 13.262 13.258 13.262h13.258c0 7.3203 5.9375 13.258 13.258 13.258 7.3242 0 13.258-5.9375 13.258-13.258v-0.79688c11.016-1.9805 20.277-9.4062 24.605-19.727 4.3281-10.32 3.1328-22.129-3.1758-31.375-6.3086-9.2422-16.871-14.66-28.059-14.395h-13.258c-3.5586 0.003906-6.4844-2.8047-6.6289-6.3633 0-3.6602 2.9688-6.6289 6.6289-6.6289h33.145c7.3242 0 13.262-5.9375 13.262-13.258 0-7.3242-5.9375-13.258-13.262-13.258h-13.258c0-7.3242-5.9336-13.258-13.258-13.258-7.3203 0-13.258 5.9336-13.258 13.258-11.84 1.1836-22.152 8.5938-27.047 19.441-4.8945 10.848-3.6328 23.484 3.3164 33.145 6.9453 9.6641 18.52 14.887 30.359 13.703h13.258c1.7578 0 3.4453 0.69922 4.6875 1.9414 1.2461 1.2422 1.9414 2.9297 1.9414 4.6875-0.14062 3.5586-3.0664 6.3672-6.6289 6.3633z"/>
 </g>
</svg>