<?xml version="1.0" encoding="UTF-8"?>
<!-- The Best Svg Icon site in the world: iconSvg.co, Visit us! https://iconsvg.co -->
<svg fill="#000000" width="800px" height="800px" version="1.1" viewBox="144 144 512 512" xmlns="http://www.w3.org/2000/svg">
 <g>
  <path d="m395.08 349.81c-22.969 0-41.656-18.688-41.656-41.656v-31.156c0-2.1719 1.7617-3.9375 3.9375-3.9375h75.441c2.1719 0 3.9375 1.7617 3.9375 3.9375v31.16c-0.003906 22.969-18.691 41.652-41.66 41.652zm-33.785-68.879v27.223c0 18.629 15.156 33.785 33.785 33.785s33.785-15.156 33.785-33.785v-27.223z"/>
  <path d="m432.8 526.93h-75.441c-2.1719 0-3.9375-1.7617-3.9375-3.9375v-31.16c0-22.969 18.688-41.652 41.656-41.652s41.656 18.688 41.656 41.656v31.16c0 2.1719-1.7617 3.9336-3.9336 3.9336zm-71.508-7.8711h67.57v-27.223c0-18.629-15.156-33.785-33.785-33.785s-33.785 15.156-33.785 33.785z"/>
  <path d="m508.24 576.14h-226.32c-2.1719 0-3.9375-1.7617-3.9375-3.9375v-63.961c0-25.59 8.1055-49.898 23.445-70.297 12.59-16.746 29.699-29.949 48.945-37.941-19.25-7.9922-36.355-21.199-48.945-37.941-15.336-20.402-23.445-44.711-23.445-70.301v-63.961c0-2.1719 1.7617-3.9375 3.9375-3.9375h226.32c2.1719 0 3.9375 1.7617 3.9375 3.9375v63.961c0 25.59-8.1055 49.898-23.445 70.297-12.59 16.746-29.699 29.949-48.945 37.941 19.25 7.9922 36.355 21.199 48.945 37.941 15.34 20.402 23.445 44.711 23.445 70.301v63.961c0 2.1719-1.7617 3.9375-3.9375 3.9375zm-222.38-7.875h218.45v-60.023c0-48.375-31.059-90.363-77.285-104.48-1.6562-0.50781-2.7852-2.0352-2.7852-3.7656 0-1.7305 1.1289-3.2578 2.7852-3.7656 46.223-14.109 77.285-56.094 77.285-104.47v-60.023h-218.45v60.023c0 48.379 31.059 90.363 77.285 104.48 1.6562 0.50391 2.7852 2.0312 2.7852 3.7656 0 1.7305-1.1289 3.2578-2.7852 3.7656-46.227 14.109-77.285 56.098-77.285 104.47z"/>
  <path d="m547.6 231.73h-305.04c-2.1719 0-3.9375-1.7617-3.9375-3.9375v-29.52c0-1.3164 0.65625-2.543 1.7539-3.2734l29.52-19.68c0.64844-0.43359 1.4062-0.66406 2.1836-0.66406h246c0.77734 0 1.5352 0.23047 2.1836 0.66016l29.52 19.68c1.0977 0.73438 1.7539 1.9609 1.7539 3.2773v29.52c0 2.1758-1.7617 3.9375-3.9375 3.9375zm-301.11-7.8711h297.17l0.003906-23.48-26.777-17.848h-243.62l-26.777 17.848z"/>
  <path d="m508.24 625.34h-236.16c-0.77734 0-1.5352-0.23047-2.1836-0.66016l-29.52-19.68c-1.0938-0.73047-1.7539-1.9609-1.7539-3.2773v-29.52c0-2.1719 1.7617-3.9375 3.9375-3.9375h305.04c2.1719 0 3.9375 1.7617 3.9375 3.9375v29.52c0 1.4922-0.84375 2.8555-2.1758 3.5195l-39.359 19.68c-0.54688 0.27344-1.1484 0.41797-1.7617 0.41797zm-234.97-7.8711h234.04l36.355-18.18v-23.148h-297.17v23.477z"/>
  <path d="m395.08 458.05c-2.1719 0-3.9375-1.7617-3.9375-3.9375v-59.039c0-2.1719 1.7617-3.9375 3.9375-3.9375 2.1719 0 3.9375 1.7617 3.9375 3.9375v59.039c0 2.1758-1.7617 3.9375-3.9375 3.9375z"/>
  <path d="m229.29 430.13c-0.11719-0.15625-0.46484-0.41406-1.0352-0.76953-0.57031-0.35156-1.3008-0.73828-2.1875-1.1523-0.88672-0.41406-1.875-0.80859-2.957-1.1836-1.0859-0.375-2.1797-0.64063-3.2812-0.80078v8.0469l1.8945 0.47266c2.0117 0.55469 3.8242 1.1523 5.4414 1.8047 1.6172 0.64844 2.9883 1.457 4.1094 2.4258 1.125 0.96484 1.9922 2.1406 2.6016 3.5195 0.61328 1.3789 0.91797 3.0352 0.91797 4.9688 0 2.2461-0.39453 4.1602-1.1836 5.7383-0.78906 1.5781-1.8438 2.8672-3.1641 3.875-1.3203 1.0039-2.8398 1.7656-4.5547 2.2773-1.7148 0.51172-3.5195 0.80859-5.4141 0.88672v6.8633h-4.082v-6.9219c-2.7227-0.23438-5.4102-0.78906-8.0742-1.6562-2.6641-0.86719-5.0586-2.0117-7.1875-3.4336l4.2578-8.457c0.15625 0.19531 0.58203 0.52344 1.2734 0.97656s1.5664 0.92578 2.6328 1.418c1.0664 0.49219 2.2695 0.96484 3.6094 1.418 1.3398 0.45313 2.7227 0.77734 4.1406 0.97656v-7.8672l-2.8398-0.82813c-1.9336-0.59375-3.6094-1.2305-5.0273-1.9219-1.418-0.6875-2.5938-1.4883-3.5195-2.3984-0.92578-0.90625-1.6172-1.9531-2.0703-3.1367-0.45313-1.1797-0.67969-2.5625-0.67969-4.1406 0-2.0508 0.35547-3.875 1.0664-5.4727 0.71094-1.5977 1.6641-2.9688 2.8711-4.1133 1.2031-1.1445 2.6211-2.0391 4.2578-2.6875 1.6367-0.65234 3.4023-1.0742 5.293-1.2734v-5.9766h4.082v5.9766c2.5625 0.23438 4.9688 0.80859 7.2148 1.7148 2.25 0.91016 4.1992 1.832 5.8555 2.7773zm-16.387-0.53125c0 0.98438 0.34375 1.7656 1.0352 2.3359 0.69141 0.57031 1.7266 1.0742 3.1055 1.5078v-7.2773c-2.7578 0.23828-4.1406 1.3828-4.1406 3.4336zm11.477 18.812c0-1.0234-0.41406-1.8242-1.2422-2.3945-0.82812-0.57422-1.9336-1.0938-3.3125-1.5703v7.0977c3.0352-0.11328 4.5547-1.1602 4.5547-3.1328z"/>
  <path d="m217.96 487.57c-26.586 0-48.215-21.629-48.215-48.215s21.629-48.215 48.215-48.215c26.586 0 48.215 21.629 48.215 48.215 0.003906 26.586-21.629 48.215-48.215 48.215zm0-88.559c-22.246 0-40.344 18.098-40.344 40.344s18.098 40.344 40.344 40.344c22.246 0 40.344-18.098 40.344-40.344s-18.098-40.344-40.344-40.344z"/>
  <path d="m593.37 351.41c-0.11719-0.15625-0.46484-0.41406-1.0352-0.76953-0.57031-0.35547-1.3008-0.73828-2.1875-1.1523-0.88672-0.41406-1.8711-0.80859-2.957-1.1836s-2.1797-0.64063-3.2852-0.80078v8.0469l1.8945 0.47266c2.0117 0.55469 3.8242 1.1523 5.4414 1.8047 1.6172 0.65234 2.9883 1.4609 4.1133 2.4258s1.9883 2.1406 2.6016 3.5195c0.61328 1.3789 0.91797 3.0352 0.91797 4.9688 0 2.25-0.39453 4.1602-1.1836 5.7383s-1.8438 2.8711-3.1641 3.875c-1.3203 1.0039-2.8398 1.7656-4.5547 2.2773-1.7148 0.51172-3.5195 0.80859-5.4102 0.88672v6.8633h-4.082v-6.9219c-2.7227-0.23828-5.4141-0.78906-8.0742-1.6562-2.6602-0.86719-5.0586-2.0117-7.1875-3.4297l4.2578-8.4609c0.15625 0.19922 0.58203 0.52344 1.2734 0.97656s1.5703 0.92578 2.6328 1.418c1.0664 0.49219 2.2695 0.96484 3.6094 1.418 1.3398 0.45313 2.7227 0.78125 4.1406 0.97656v-7.8672l-2.8398-0.82813c-1.9336-0.59375-3.6094-1.2305-5.0273-1.9219-1.418-0.69141-2.5977-1.4883-3.5195-2.3945-0.92578-0.90625-1.6172-1.9531-2.0703-3.1367-0.45312-1.1836-0.67969-2.5625-0.67969-4.1406 0-2.0508 0.35156-3.875 1.0664-5.4727 0.71094-1.5977 1.6641-2.9648 2.8711-4.1094 1.2031-1.1445 2.6211-2.0391 4.2578-2.6914 1.6328-0.65234 3.4023-1.0742 5.293-1.2695v-5.9766h4.082v5.9766c2.5625 0.23828 4.9688 0.80859 7.2148 1.7148s4.1992 1.832 5.8555 2.7812zm-16.387-0.53125c0 0.98438 0.34375 1.7656 1.0352 2.3359 0.69141 0.57422 1.7266 1.0742 3.1055 1.5078v-7.2773c-2.7578 0.23828-4.1406 1.3828-4.1406 3.4336zm11.477 18.809c0-1.0234-0.41406-1.8242-1.2422-2.3945-0.82812-0.57031-1.9336-1.0938-3.3125-1.5664v7.0977c3.0352-0.11719 4.5547-1.1602 4.5547-3.1367z"/>
  <path d="m582.04 408.86c-26.586 0-48.215-21.629-48.215-48.215s21.629-48.215 48.215-48.215c26.586 0 48.215 21.629 48.215 48.215s-21.629 48.215-48.215 48.215zm0-88.562c-22.246 0-40.344 18.098-40.344 40.344 0 22.246 18.098 40.344 40.344 40.344 22.246 0 40.344-18.098 40.344-40.344 0-22.242-18.098-40.344-40.344-40.344z"/>
 </g>
</svg>