<?xml version="1.0" encoding="UTF-8"?>
<!-- The Best Svg Icon site in the world: iconSvg.co, Visit us! https://iconsvg.co -->
<svg fill="#000000" width="800px" height="800px" version="1.1" viewBox="144 144 512 512" xmlns="http://www.w3.org/2000/svg">
 <path d="m620.41 305.54c0-1.8281-0.32031-3.6367-0.94531-5.3555-0.027344-0.36328-0.027344-0.73438 0-1.1016 0-0.78906-0.78906-1.5742-1.2578-2.2031l-69.273-96.984c-8.8086-12.699-23.273-20.285-38.73-20.309h-220.42c-15.09 0.17188-29.191 7.543-37.941 19.836l-69.273 96.984s0 1.418-1.2578 2.2031h-0.003906c0.03125 0.36719 0.03125 0.73828 0 1.1016-0.94922 1.8125-1.5391 3.793-1.7305 5.8281v267.65c0 12.527 4.9766 24.539 13.832 33.398 8.8594 8.8555 20.875 13.832 33.398 13.832h346.37c12.527 0 24.539-4.9766 33.398-13.832 8.8555-8.8594 13.832-20.871 13.832-33.398zm-97.613-87.379 51.328 71.633h-97.773l-13.379-78.719h47.23c4.957 0.12109 9.5625 2.5742 12.438 6.6133zm-75.57 229.07h-94.465v-125.95h94.465zm-2.832-157.44h-88.797l12.91-76.199c0.070312-0.83984 0.070312-1.6836 0-2.5195h62.977c-0.074219 0.83594-0.074219 1.6797 0 2.5195zm-167.05-72.105c2.875-4.0391 7.4844-6.4922 12.438-6.6133h47.23l-13.227 78.719h-97.922zm311.57 355.5c0 4.1758-1.6562 8.1797-4.6094 11.133s-6.957 4.6094-11.133 4.6094h-346.37c-4.1758 0-8.1797-1.6562-11.133-4.6094-2.9492-2.9531-4.6094-6.957-4.6094-11.133v-251.91h110.21v125.95c0 8.3516 3.3203 16.359 9.2227 22.266 5.9062 5.9062 13.914 9.2227 22.266 9.2227h94.465c8.3516 0 16.359-3.3164 22.266-9.2227s9.2227-13.914 9.2227-22.266v-125.95h110.21z"/>
</svg>