<?xml version="1.0" encoding="UTF-8"?>
<!-- The Best Svg Icon site in the world: iconSvg.co, Visit us! https://iconsvg.co -->
<svg fill="#000000" width="800px" height="800px" version="1.1" viewBox="144 144 512 512" xmlns="http://www.w3.org/2000/svg">
 <g>
  <path d="m371.46 564.33h13.777v30.504h-13.777z"/>
  <path d="m316.36 476.75h16.727v31.488h-16.727z"/>
  <path d="m362.61 521.03h13.777v30.504h-13.777z"/>
  <path d="m344.89 564.33h14.762v30.504h-14.762z"/>
  <path d="m316.36 564.33h16.727v30.504h-16.727z"/>
  <path d="m344.89 476.75h14.762v31.488h-14.762z"/>
  <path d="m334.07 521.03h16.727v30.504h-16.727z"/>
  <path d="m413.95 405.5c17.477 0 34.234-6.9453 46.594-19.305 12.355-12.355 19.297-29.117 19.297-46.594 0-17.477-6.9414-34.238-19.301-46.594-12.359-12.359-29.121-19.301-46.598-19.301s-34.238 6.9414-46.594 19.301c-12.359 12.359-19.301 29.117-19.301 46.594 0.019531 17.473 6.9688 34.223 19.324 46.578 12.355 12.352 29.105 19.301 46.578 19.32zm0-57.617c-8.0234-0.003906-15.535-3.9375-20.109-10.527-4.5742-6.5898-5.6328-15-2.8359-22.52 2.7969-7.5195 9.1016-13.191 16.871-15.184v-3.957c0-3.2617 2.6445-5.9062 5.9023-5.9062 3.2617 0 5.9062 2.6445 5.9062 5.9062v3.8789-0.003907c5.3438 1.2969 10.094 4.3477 13.496 8.6641 3.4023 4.3164 5.2578 9.6523 5.2656 15.152 0 3.2578-2.6445 5.9023-5.9023 5.9023-3.2617 0-5.9062-2.6445-5.9062-5.9023 0-5.1367-3.0938-9.7656-7.8359-11.73s-10.203-0.87891-13.832 2.7539c-3.6328 3.6289-4.7188 9.0898-2.7539 13.832 1.9648 4.7422 6.5938 7.8359 11.73 7.8359 8.0664-0.003906 15.621 3.9648 20.195 10.613 4.5742 6.6484 5.5781 15.121 2.6914 22.656-2.8906 7.5352-9.3086 13.16-17.152 15.047v4.7812c0 3.2578-2.6445 5.9023-5.9062 5.9023-3.2578 0-5.9023-2.6445-5.9023-5.9023v-4.8633c-5.2695-1.3555-9.9336-4.4258-13.27-8.7188-3.3359-4.2969-5.1484-9.5781-5.1562-15.02 0-3.2578 2.6445-5.9023 5.9023-5.9023 3.2617 0 5.9062 2.6445 5.9062 5.9023 0 5.1367 3.0938 9.7656 7.8359 11.73 4.7422 1.9609 10.203 0.875 13.832-2.7539 3.6328-3.6289 4.7188-9.0898 2.7539-13.832-1.9648-4.7461-6.5938-7.8359-11.73-7.8359z"/>
  <path d="m272.17 168.76c-2.3945 0-4.0273 2.2969-4.0273 4.6953v55.328h263.71v-55.328c0-2.3984-1.6289-4.6953-4.0273-4.6953z"/>
  <path d="m440.34 433.45h14.762v30.504h-14.762z"/>
  <path d="m362.61 433.45h13.777v30.504h-13.777z"/>
  <path d="m334.07 433.45h16.727v30.504h-16.727z"/>
  <path d="m388.19 433.45h14.762v30.504h-14.762z"/>
  <path d="m414.76 433.45h13.777v30.504h-13.777z"/>
  <path d="m449.2 476.75h16.727v31.488h-16.727z"/>
  <path d="m440.34 521.03h14.762v30.504h-14.762z"/>
  <path d="m449.2 564.33h16.727v30.504h-16.727z"/>
  <path d="m466.91 521.03h16.727v30.504h-16.727z"/>
  <path d="m525.88 278.29c-2.2812-0.875-3.8086-3.043-3.8633-5.4883v-32.207h-244.04v32.199c-0.054688 2.4336-1.5664 4.5977-3.8359 5.4805-28.23 11.332-47.332 39.816-47.332 70.883v246.64c0.085938 9.3672 3.8398 18.328 10.461 24.953 6.6211 6.6289 15.574 10.398 24.941 10.492h275.58c19.285 0 35.383-16.16 35.383-35.465l0.003906-246.62c0-31.25-19.09-59.73-47.305-70.871zm-111.93-16.387c20.605 0.003906 40.371 8.1914 54.941 22.762 14.574 14.574 22.758 34.34 22.758 54.945 0 20.609-8.1875 40.375-22.762 54.945-14.57 14.574-34.336 22.758-54.945 22.758s-40.371-8.1875-54.945-22.758c-14.57-14.574-22.758-34.34-22.758-54.949 0.023437-20.602 8.2188-40.352 22.789-54.918 14.566-14.566 34.32-22.762 54.922-22.785zm81.5 208.44c0 3.2617-2.8555 5.4297-6.1133 5.4297l-11.598-0.003906v33.457h11.598c3.2617 0 6.1133 2.3047 6.1133 5.5664v42.707-0.003906c-0.10156 3.293-2.8203 5.8945-6.1094 5.8516h-11.602v37.73c0.003906 1.5234-0.62109 2.9805-1.7227 4.0312-1.1016 1.0547-2.5859 1.6094-4.1094 1.5352h-161.24c-3.2617 0-6.1133-2.3047-6.1133-5.5664v-42.707c0.10156-3.2891 2.8203-5.8906 6.1133-5.8477h11.598v-32.473h-11.598c-3.3477-0.089844-6.0352-2.7852-6.1133-6.1289v-42.707c0.070313-3.3711 2.7422-6.1133 6.1133-6.2656h11.598v-37.312c-0.039063-3.2617 2.5703-5.9414 5.832-5.9844h161.24c3.3164 0.019531 6.0195 2.668 6.1094 5.9844z"/>
  <path d="m466.91 433.45h16.727v30.504h-16.727z"/>
  <path d="m388.19 521.03h14.762v30.504h-14.762z"/>
  <path d="m423.61 476.75h13.777v31.488h-13.777z"/>
  <path d="m371.46 476.75h13.777v31.488h-13.777z"/>
  <path d="m397.05 476.75h14.762v31.488h-14.762z"/>
  <path d="m397.05 564.33h14.762v30.504h-14.762z"/>
  <path d="m414.76 521.03h13.777v30.504h-13.777z"/>
  <path d="m423.61 564.33h13.777v30.504h-13.777z"/>
 </g>
</svg>