<?xml version="1.0" encoding="UTF-8"?>
<!-- The Best Svg Icon site in the world: iconSvg.co, Visit us! https://iconsvg.co -->
<svg fill="#000000" width="800px" height="800px" version="1.1" viewBox="144 144 512 512" xmlns="http://www.w3.org/2000/svg">
 <g>
  <path d="m538.61 354.1c-13.469 0.007813-26.383 5.3672-35.902 14.895-9.5195 9.5312-14.867 22.449-14.863 35.918s5.3555 26.387 14.879 35.91c9.5273 9.5273 22.441 14.879 35.91 14.883 13.473 0 26.391-5.3438 35.918-14.863 9.5312-9.5195 14.891-22.434 14.898-35.902 0-13.484-5.3555-26.418-14.891-35.949-9.5352-9.5352-22.465-14.891-35.949-14.891zm19.047 72.086h0.003906c-1.6641 2.4375-3.957 4.375-6.6367 5.6055-3.1211 1.457-6.5039 2.2773-9.9453 2.4141v5.8125c0.023437 0.65625-0.22656 1.293-0.69141 1.7578-1.0234 0.91016-2.5586 0.92969-3.6055 0.046874-0.47266-0.47656-0.72266-1.1328-0.69141-1.8047v-5.8125c-5.6875-0.33203-11.281-1.6328-16.531-3.8477-0.66797-0.27734-1.2422-0.74609-1.6406-1.3477-0.97266-1.3516-0.85156-3.2031 0.28516-4.418 0.61328-0.67969 1.4961-1.0547 2.4102-1.0273 0.53906 0 1.0703 0.10938 1.5586 0.33203 4.3945 1.9531 9.1172 3.0625 13.918 3.2734v-18.828c-3.2031-0.81641-6.3398-1.8867-9.375-3.207-2.4727-1.0938-4.6445-2.7656-6.3398-4.875-1.7539-2.2773-2.6523-5.1016-2.5391-7.9766-0.019532-2.7578 0.69922-5.4727 2.0859-7.8594 1.5078-2.5039 3.6562-4.5586 6.2227-5.9531 3.0625-1.6797 6.4609-2.6562 9.9453-2.8672v-5.7344c-0.011719-0.66797 0.23438-1.3164 0.69141-1.8008 0.45703-0.48828 1.0977-0.75781 1.7656-0.73828 0.67188-0.003906 1.3203 0.26172 1.7969 0.73828 0.47656 0.47656 0.74219 1.125 0.73438 1.8008v5.6484-0.003906c4.8633 0.125 9.6758 1.0391 14.25 2.7031 1.4336 0.42578 2.3828 1.7852 2.2891 3.2773-0.003907 0.875-0.32813 1.7188-0.91406 2.3711-0.58594 0.70312-1.4648 1.0938-2.3789 1.0625-0.44922-0.027343-0.89453-0.13672-1.3047-0.32422-3.8516-1.3359-7.8828-2.082-11.957-2.207v19.48-0.003906c3.3359 0.74219 6.6094 1.7539 9.7852 3.0273 2.5391 1.0586 4.7773 2.7305 6.5078 4.8711 1.8477 2.457 2.7773 5.4805 2.6328 8.5508 0.03125 2.793-0.78125 5.5352-2.3281 7.8633z"/>
  <path d="m549.72 412.88c-2.7227-1.4844-5.625-2.5977-8.6406-3.3164v17.602c7.6992-0.55078 11.551-3.6602 11.547-9.3359 0.039062-2.0664-1.0859-3.9766-2.9062-4.9492z"/>
  <path d="m525.28 391.72c-0.097656 2.2031 0.94141 4.3008 2.75 5.5625 2.4648 1.5898 5.1953 2.7266 8.0586 3.3594v-18.008c-2.8359 0.26953-5.5508 1.3008-7.8477 2.9844-1.9141 1.4375-3.0156 3.7109-2.9609 6.1016z"/>
  <path d="m539.32 323.67h-0.6875c-29.027 0-55.852 15.484-70.363 40.625-14.516 25.141-14.516 56.113 0 81.25 14.512 25.141 41.336 40.625 70.363 40.625h0.73438c28.82-0.3125 55.32-15.875 69.637-40.891 14.316-25.02 14.309-55.746-0.023437-80.758-14.328-25.008-40.836-40.555-69.66-40.852zm-0.71484 141.19c-15.902-0.011719-31.148-6.3359-42.387-17.586-11.238-11.25-17.547-26.504-17.539-42.406 0.007812-15.902 6.332-31.148 17.582-42.391 11.25-11.238 26.5-17.551 42.402-17.543 15.902 0.003906 31.148 6.3281 42.391 17.574 11.242 11.246 17.555 26.5 17.551 42.402-0.011719 15.902-6.3398 31.152-17.59 42.391-11.25 11.242-26.504 17.559-42.41 17.559z"/>
  <path d="m261.38 354.1c-13.469 0.007813-26.383 5.3672-35.902 14.895-9.5195 9.5312-14.867 22.449-14.863 35.918 0.003906 13.469 5.3555 26.387 14.879 35.91 9.5234 9.5273 22.441 14.879 35.91 14.883 13.469 0 26.391-5.3438 35.918-14.863 9.5273-9.5195 14.887-22.434 14.898-35.902 0-13.484-5.3594-26.418-14.891-35.949-9.5352-9.5352-22.465-14.891-35.949-14.891zm19.047 72.086c-1.6602 2.4375-3.9531 4.375-6.6328 5.6055-3.1211 1.457-6.5039 2.2773-9.9453 2.4141v5.8125c0.023438 0.65625-0.22656 1.293-0.69141 1.7578-1.0234 0.91016-2.5586 0.92969-3.6055 0.046874-0.47656-0.47656-0.72656-1.1328-0.69141-1.8047v-5.8125c-5.6914-0.33203-11.281-1.6328-16.535-3.8477-0.66797-0.27734-1.2383-0.74609-1.6406-1.3477-0.96484-1.3555-0.84375-3.1992 0.28906-4.418 0.61719-0.67969 1.4961-1.0547 2.4102-1.0273 0.53906 0 1.0703 0.10938 1.5625 0.33203 4.3906 1.9531 9.1133 3.0625 13.914 3.2734v-18.828c-3.2031-0.81641-6.3398-1.8867-9.3711-3.207-2.4727-1.0938-4.6484-2.7656-6.3438-4.875-1.7539-2.2773-2.6523-5.1016-2.5352-7.9766-0.023437-2.7578 0.69531-5.4727 2.082-7.8594 1.5078-2.5039 3.6523-4.5586 6.2188-5.9531 3.0664-1.6758 6.4609-2.6562 9.9492-2.8672v-5.7344c-0.015625-0.66797 0.23438-1.3164 0.69141-1.8008 0.45703-0.48828 1.1016-0.75781 1.7695-0.73828 0.67188-0.003906 1.3203 0.26172 1.793 0.73828 0.47656 0.47656 0.74219 1.125 0.73437 1.8008v5.6484-0.003906c4.8633 0.125 9.6758 1.0391 14.246 2.7031 1.4336 0.42578 2.3867 1.7852 2.293 3.2773-0.007813 0.875-0.33203 1.7188-0.91797 2.3711-0.58594 0.70312-1.4609 1.0938-2.375 1.0625-0.45312-0.027343-0.89453-0.13672-1.3047-0.32422-3.8555-1.3359-7.8867-2.082-11.961-2.207v19.48-0.003906c3.3398 0.74219 6.6133 1.7539 9.7891 3.0273 2.5391 1.0547 4.7773 2.7305 6.5078 4.8711 1.8398 2.457 2.7656 5.4805 2.6211 8.5508 0.03125 2.793-0.77734 5.5312-2.3203 7.8633z"/>
  <path d="m248.06 391.72c-0.10156 2.2031 0.9375 4.3047 2.75 5.5625 2.4648 1.5898 5.1953 2.7266 8.0586 3.3594v-18.008c-2.8398 0.26562-5.5586 1.2969-7.8594 2.9844-1.9102 1.4414-3.0078 3.7109-2.9492 6.1016z"/>
  <path d="m272.49 412.88c-2.7188-1.4844-5.625-2.5977-8.6406-3.3164v17.602c7.7031-0.55078 11.551-3.6602 11.547-9.3359 0.039062-2.0625-1.082-3.9766-2.9062-4.9492z"/>
  <path d="m262.09 323.67h-0.6875c-29.027 0-55.852 15.484-70.367 40.625-14.512 25.141-14.512 56.113 0 81.25 14.516 25.141 41.34 40.625 70.367 40.625h0.73438-0.003906c28.824-0.3125 55.324-15.875 69.641-40.891 14.316-25.02 14.309-55.746-0.023438-80.758-14.332-25.008-40.84-40.555-69.66-40.852zm-0.71094 141.19c-15.902-0.011719-31.148-6.3359-42.387-17.586-11.238-11.25-17.547-26.504-17.539-42.406 0.007813-15.902 6.332-31.148 17.578-42.391 11.25-11.238 26.504-17.551 42.406-17.543 15.902 0.003906 31.148 6.3281 42.391 17.574 11.238 11.246 17.555 26.5 17.551 42.402-0.015624 15.902-6.3438 31.152-17.594 42.391-11.25 11.242-26.504 17.559-42.406 17.559z"/>
  <path d="m386.66 260.05c-0.10156 2.2031 0.9375 4.3047 2.75 5.5625 2.4648 1.5898 5.1953 2.7266 8.0625 3.3594v-18.008c-2.8438 0.26562-5.5586 1.3008-7.8594 2.9883-1.9102 1.4375-3.0078 3.707-2.9531 6.0977z"/>
  <path d="m400 222.43c-13.473 0.007812-26.387 5.3672-35.906 14.895-9.5195 9.5312-14.863 22.449-14.859 35.918 0 13.473 5.3555 26.387 14.879 35.91 9.5234 9.5273 22.441 14.879 35.91 14.883 13.469 0 26.387-5.3438 35.918-14.863 9.5273-9.5195 14.887-22.434 14.895-35.902 0-13.484-5.3555-26.414-14.891-35.949-9.5312-9.5352-22.465-14.891-35.945-14.891zm19.055 72.086h-0.003907c-1.6641 2.4336-3.957 4.375-6.6367 5.6055-3.1211 1.457-6.5 2.2773-9.9414 2.4141v5.8125c0.019532 0.65625-0.23047 1.293-0.69531 1.7578-1.0234 0.91016-2.5625 0.92969-3.6055 0.042969-0.47656-0.47656-0.72656-1.1289-0.69141-1.8008v-5.8125c-5.6914-0.33594-11.281-1.6367-16.535-3.8477-0.66797-0.28516-1.2383-0.76562-1.6406-1.375-0.96484-1.3555-0.84375-3.1992 0.28906-4.418 0.61719-0.67969 1.5-1.0547 2.4141-1.0273 0.53516 0 1.0664 0.11328 1.5586 0.33203 4.3906 1.9531 9.1094 3.0664 13.914 3.2734v-18.805c-3.207-0.8125-6.3398-1.8867-9.3711-3.207-2.4727-1.0977-4.6484-2.7656-6.3438-4.875-1.75-2.2812-2.6484-5.1055-2.5391-7.9805-0.019531-2.7578 0.69922-5.4727 2.0859-7.8555 1.5078-2.5039 3.6562-4.5586 6.2227-5.9531 3.0664-1.6758 6.4609-2.6523 9.9453-2.8633v-5.7383c-0.015625-0.66797 0.23438-1.3164 0.69141-1.8008 0.45703-0.48828 1.1016-0.75391 1.7656-0.73438 0.67578-0.007812 1.3242 0.25781 1.8008 0.73438 0.47656 0.47656 0.74219 1.125 0.73438 1.8008v5.6484-0.003906c4.8633 0.12891 9.6758 1.0391 14.246 2.7031 1.4336 0.42578 2.3867 1.7812 2.293 3.2734-0.003907 0.87891-0.33203 1.7266-0.91797 2.3789-0.58594 0.70312-1.4648 1.0938-2.3828 1.0625-0.44922-0.03125-0.89063-0.14062-1.3047-0.32812-3.8516-1.332-7.8789-2.0781-11.953-2.2109v19.484c3.3398 0.73828 6.6094 1.7539 9.7852 3.0273 2.5547 1.0469 4.8008 2.7227 6.5391 4.8711 1.8438 2.457 2.7695 5.4844 2.6211 8.5547 0.019531 2.7969-0.80078 5.5352-2.3555 7.8594z"/>
  <path d="m400.73 191.99h-0.73047c-29.031 0-55.852 15.488-70.367 40.629-14.512 25.137-14.512 56.109 0 81.25 14.516 25.137 41.336 40.625 70.367 40.625h0.77734c28.824-0.31641 55.32-15.875 69.637-40.895 14.316-25.016 14.309-55.746-0.019531-80.754-14.332-25.012-40.84-40.555-69.664-40.855zm-0.73047 141.21c-15.902-0.011719-31.148-6.3359-42.387-17.586s-17.547-26.504-17.539-42.406c0.007812-15.902 6.3281-31.148 17.578-42.391 11.25-11.238 26.504-17.551 42.402-17.543 15.902 0.003906 31.152 6.3281 42.395 17.574 11.238 11.246 17.551 26.5 17.547 42.402-0.011719 15.902-6.3398 31.152-17.59 42.391-11.25 11.242-26.504 17.559-42.406 17.559z"/>
  <path d="m411.1 281.21c-2.7227-1.4805-5.625-2.5938-8.6406-3.3125v17.598c7.6992-0.54297 11.547-3.6523 11.543-9.3281v-0.003906c0.042969-2.0664-1.082-3.9805-2.9023-4.9531z"/>
  <path d="m400 549.87c-2.5312 0-4.582-2.0508-4.582-4.5781v-195.38c0-2.5273 2.0508-4.5781 4.582-4.5781 2.5273 0 4.5781 2.0508 4.5781 4.5781v195.38c0 1.2148-0.48047 2.3789-1.3398 3.2383s-2.0234 1.3398-3.2383 1.3398z"/>
  <path d="m400.55 517.77c-1.2148 0-2.3789-0.48047-3.2383-1.3398l-71.848-71.848c-1.7344-1.7969-1.7109-4.6562 0.058593-6.4219 1.7656-1.7656 4.6211-1.793 6.418-0.054688l68.609 68.613 67.875-67.871c1.793-1.7891 4.6992-1.7852 6.4844 0.011719 1.7891 1.793 1.7852 4.6992-0.007812 6.4844l-71.113 71.086c-0.85938 0.85938-2.0234 1.3398-3.2383 1.3398z"/>
  <path d="m467.46 603.42c0 1.2148-0.48438 2.3828-1.3438 3.2383-0.85938 0.85938-2.0234 1.3438-3.2383 1.3438h-125.77c-2.5273 0-4.5781-2.0508-4.5781-4.582-0.042968-16.641 6.5508-32.613 18.32-44.379 11.766-11.77 27.738-18.363 44.379-18.32h9.5273c16.625 0.011719 32.566 6.6211 44.324 18.379 11.754 11.754 18.363 27.695 18.379 44.32z"/>
 </g>
</svg>