<?xml version="1.0" encoding="UTF-8"?>
<!-- The Best Svg Icon site in the world: iconSvg.co, Visit us! https://iconsvg.co -->
<svg fill="#000000" width="800px" height="800px" version="1.1" viewBox="144 144 512 512" xmlns="http://www.w3.org/2000/svg">
 <g>
  <path d="m579.43 549.37c0 38.512-82.164 71.059-179.43 71.059s-179.43-32.547-179.43-71.059v-47.684c25.441 32.043 95.113 54.527 179.43 54.527s153.99-22.504 179.43-54.527z"/>
  <path d="m579.43 474.68c0 38.52-82.164 71.07-179.43 71.07s-179.43-32.547-179.43-71.07v-47.672c25.441 32.043 95.113 54.543 179.43 54.543s153.99-22.504 179.43-54.539z"/>
  <path d="m579.43 400.01c0 38.52-82.164 71.059-179.43 71.059s-179.43-32.539-179.43-71.059v-47.684c25.441 32.043 95.113 54.539 179.43 54.539s153.99-22.504 179.43-54.539z"/>
  <path d="m579.43 325.31c0 38.52-82.164 71.07-179.43 71.07s-179.43-32.547-179.43-71.07v-47.672c25.441 32.055 95.113 54.539 179.43 54.539s153.99-22.504 179.43-54.539z"/>
  <path d="m400 321.69c-97.266 0-179.43-32.547-179.43-71.059 0-38.508 82.16-71.059 179.43-71.059 97.266 0 179.43 32.559 179.43 71.07 0 38.508-82.164 71.047-179.43 71.047z"/>
 </g>
</svg>