<?xml version="1.0" encoding="UTF-8"?>
<!-- The Best Svg Icon site in the world: iconSvg.co, Visit us! https://iconsvg.co -->
<svg fill="#000000" width="800px" height="800px" version="1.1" viewBox="144 144 512 512" xmlns="http://www.w3.org/2000/svg">
 <g>
  <path d="m400 549.57h15.742v15.742h-15.742z"/>
  <path d="m604.67 400h-31.488c-5.625 0-10.824 3-13.637 7.8711s-2.8125 10.871 0 15.742c2.8125 4.8711 8.0117 7.875 13.637 7.875h31.488c5.625 0 10.82-3.0039 13.633-7.875 2.8125-4.8711 2.8125-10.871 0-15.742s-8.0078-7.8711-13.633-7.8711z"/>
  <path d="m573.18 305.54c-5.625 0-10.824 3-13.637 7.8711s-2.8125 10.871 0 15.742c2.8125 4.875 8.0117 7.875 13.637 7.875h31.488c5.625 0 10.82-3 13.633-7.875 2.8125-4.8711 2.8125-10.871 0-15.742s-8.0078-7.8711-13.633-7.8711z"/>
  <path d="m596.8 494.46h-7.875v94.465c-0.015625 6.2578-2.5117 12.254-6.9375 16.68-4.4219 4.4258-10.418 6.918-16.676 6.9375h-188.93c-6.2578-0.019531-12.254-2.5117-16.68-6.9375s-6.918-10.422-6.9375-16.68v-235.92c-5.0898 6.7305-7.8555 14.938-7.8711 23.379v220.42c0.019531 6.2578 2.5117 12.25 6.9375 16.676 4.4258 4.4258 10.422 6.9219 16.68 6.9375h204.67c6.2578-0.015624 12.254-2.5117 16.68-6.9375 4.4219-4.4258 6.918-10.418 6.9375-16.676z"/>
  <path d="m525.95 549.57h15.742v15.742h-15.742z"/>
  <path d="m344.89 274.52c1.7305-0.15625 3.3867-0.47266 5.1953-0.47266h2.6758v-62.977c0.019531-6.2578 2.5117-12.254 6.9375-16.68s10.422-6.918 16.68-6.9375h38.809c7.8984-0.027344 15.273 3.9414 19.602 10.551l6.4531 9.5234c1.457 2.1914 3.9062 3.5195 6.5352 3.543h46.129c2.6133-0.027343 5.0469-1.3203 6.5352-3.4648l6.4531-9.6836h0.003906c4.3555-6.5625 11.723-10.496 19.598-10.469h38.812c6.2578 0.019531 12.254 2.5117 16.676 6.9375 4.4258 4.4258 6.9219 10.422 6.9375 16.68v78.719h7.8711l0.003906-86.59c-0.019531-6.2578-2.5156-12.254-6.9375-16.68-4.4258-4.4258-10.422-6.918-16.68-6.9375h-204.67c-6.2578 0.019531-12.254 2.5117-16.68 6.9375s-6.918 10.422-6.9375 16.68zm118.08-87.066h15.742c4.3477 0 7.8711 3.5234 7.8711 7.8711 0 4.3477-3.5234 7.875-7.8711 7.875h-15.742c-4.3477 0-7.875-3.5273-7.875-7.875 0-4.3477 3.5273-7.8711 7.875-7.8711z"/>
  <path d="m462.98 549.57h15.742v15.742h-15.742z"/>
  <path d="m320.33 309.79c-6.1641 6.0312-14.117 9.8984-22.668 11.02v157.91h31.488l-0.003906-102.34c0.019531-14.609 5.8281-28.617 16.16-38.945 10.332-10.332 24.336-16.141 38.945-16.16h31.488c2.0898 0 4.0898-0.82812 5.5664-2.3047 1.4766-1.4766 2.3047-3.4805 2.3047-5.5664v-7.8711c-0.011719-4.1719-1.6758-8.1719-4.625-11.121-2.9492-2.9492-6.9453-4.6133-11.117-4.625h-57.781c-6.2617 0.007813-12.266 2.5-16.688 6.9297z"/>
  <path d="m573.18 289.79v-78.719c0-2.0898-0.82812-4.0898-2.3047-5.5664-1.4766-1.4766-3.4805-2.3047-5.5664-2.3047h-38.812c-2.6094 0.027343-5.043 1.3164-6.5312 3.4609l-6.4531 9.6836h-0.003906c-4.3555 6.5625-11.723 10.496-19.602 10.469h-46.129c-7.8984 0.03125-15.273-3.9375-19.602-10.547l-6.4531-9.5234c-1.457-2.1914-3.9062-3.5195-6.5352-3.543h-38.809c-4.3477 0-7.8711 3.5234-7.8711 7.8711v62.977h39.359c8.3516 0 16.359 3.3164 22.266 9.2227s9.2227 13.914 9.2227 22.266v7.8711c-0.019531 6.2578-2.5117 12.254-6.9375 16.68-4.4258 4.4219-10.422 6.918-16.68 6.9375h-31.488c-5.4219-0.007813-10.785 1.1172-15.742 3.3047v248.6c0 2.0898 0.82812 4.0898 2.3047 5.5664 1.4766 1.4766 3.4766 2.3086 5.5664 2.3086h188.93c2.0859 0 4.0898-0.83203 5.5664-2.3086 1.4766-1.4766 2.3047-3.4766 2.3047-5.5664v-94.465c-8.5977 0.03125-16.828-3.4648-22.773-9.6758-5.9453-6.2109-9.082-14.586-8.6758-23.176 0.40625-8.5859 4.3203-16.629 10.824-22.25-6.8945-5.9102-10.863-14.535-10.863-23.617 0-9.0781 3.9688-17.707 10.863-23.617-6.8945-5.9062-10.863-14.535-10.863-23.613 0-9.082 3.9688-17.707 10.863-23.617-6.5039-5.6211-10.418-13.664-10.824-22.254-0.40625-8.5859 2.7305-16.961 8.6758-23.172 5.9453-6.2109 14.176-9.7109 22.773-9.6797zm-62.977 7.8711-15.746 0.003906c-8.4336 0-16.23-4.5039-20.449-11.809-4.2188-7.3086-4.2188-16.309 0-23.617 4.2188-7.3086 12.016-11.809 20.449-11.809v-7.8711c0-4.3477 3.5273-7.8711 7.875-7.8711 4.3477 0 7.8711 3.5234 7.8711 7.8711v7.8711c6.2617 0 12.27 2.4883 16.699 6.918 4.4297 4.4297 6.918 10.434 6.918 16.699 0 4.3477-3.5273 7.8711-7.875 7.8711-4.3477 0-7.8711-3.5234-7.8711-7.8711 0-2.0898-0.82812-4.0898-2.3047-5.5664-1.4766-1.4766-3.4805-2.3047-5.5664-2.3047h-15.746c-4.3477 0-7.8711 3.5234-7.8711 7.8711s3.5234 7.8711 7.8711 7.8711h15.746c8.4375 0 16.234 4.5 20.453 11.809 4.2188 7.3047 4.2188 16.309 0 23.617-4.2188 7.3047-12.016 11.805-20.453 11.805v7.875c0 4.3477-3.5234 7.8711-7.8711 7.8711-4.3477 0-7.875-3.5234-7.875-7.8711v-7.875c-6.2617 0-12.27-2.4844-16.695-6.9141-4.4297-4.4297-6.918-10.438-6.918-16.699 0-4.3477 3.5234-7.8711 7.8711-7.8711s7.8711 3.5234 7.8711 7.8711c0 2.0859 0.83203 4.0898 2.3047 5.5664 1.4766 1.4766 3.4805 2.3047 5.5664 2.3047h15.746c4.3477 0 7.8711-3.5234 7.8711-7.8711s-3.5234-7.8711-7.8711-7.8711zm-124.83 145.52 23.617-39.359c1.25-2.0781 3.3828-3.4609 5.7891-3.7578 2.4023-0.29297 4.8086 0.53516 6.5234 2.2461l15.895 15.895 26.559-53.207c1.2891-2.5859 3.8906-4.2578 6.7773-4.3555 2.8906-0.15625 5.625 1.3125 7.0859 3.8125l19.129 31.883 24.473-18.375c3.4805-2.6094 8.4141-1.9023 11.023 1.5742 2.6055 3.4766 1.9023 8.4141-1.5742 11.02l-31.488 23.617c-1.7852 1.3359-4.0469 1.8555-6.2344 1.4258-2.1875-0.42578-4.0898-1.7617-5.2383-3.668l-16.238-27.066-25.031 50.145c-1.1328 2.2617-3.2812 3.8398-5.7773 4.2422-2.4922 0.40625-5.0312-0.41016-6.8203-2.1953l-16.531-16.484-18.438 30.699v0.003906c-2.2734 3.6367-7.0469 4.7812-10.727 2.5703-3.6797-2.2109-4.9102-6.9609-2.7656-10.68zm46.109 130.01c0 2.0859-0.83203 4.0898-2.3086 5.5664-1.4766 1.4766-3.4766 2.3047-5.5664 2.3047h-31.488c-4.3477 0-7.8711-3.5234-7.8711-7.8711v-31.488c0-4.3477 3.5234-7.8711 7.8711-7.8711h31.488c2.0898 0 4.0898 0.82812 5.5664 2.3047 1.4766 1.4766 2.3086 3.4766 2.3086 5.5664zm62.977 0h-0.003906c0 2.0859-0.82813 4.0898-2.3047 5.5664s-3.4766 2.3047-5.5664 2.3047h-31.488c-4.3477 0-7.8711-3.5234-7.8711-7.8711v-31.488c0-4.3477 3.5234-7.8711 7.8711-7.8711h31.488c2.0898 0 4.0898 0.82812 5.5664 2.3047 1.4766 1.4766 2.3047 3.4766 2.3047 5.5664zm62.977 0h-0.003906c0 2.0859-0.82812 4.0898-2.3047 5.5664-1.4766 1.4766-3.4766 2.3047-5.5664 2.3047h-31.488c-4.3477 0-7.8711-3.5234-7.8711-7.8711v-31.488c0-4.3477 3.5234-7.8711 7.8711-7.8711h31.488c2.0898 0 4.0898 0.82812 5.5664 2.3047 1.4766 1.4766 2.3047 3.4766 2.3047 5.5664zm-7.8711-70.848h-0.003906c4.3477 0 7.8711 3.5234 7.8711 7.8711 0 4.3477-3.5234 7.8711-7.8711 7.8711h-157.44c-4.3477 0-7.8711-3.5234-7.8711-7.8711 0-4.3477 3.5234-7.8711 7.8711-7.8711zm-15.742-55.105h-12.492l-21.309 21.309c-3.0742 3.0742-8.0547 3.0742-11.129 0l-16.477-16.484-18.438 30.699v0.003906c-1.2461 2.0742-3.3828 3.4609-5.7852 3.7578-2.4062 0.29297-4.8125-0.53516-6.5273-2.2461l-17.199-17.199-18.176 24.242c-2.6094 3.4805-7.543 4.1836-11.023 1.5742-3.4766-2.6055-4.1797-7.543-1.5742-11.02l23.617-31.488c1.3711-1.8242 3.4648-2.9648 5.7383-3.1289 2.2773-0.16016 4.5117 0.67188 6.125 2.2891l16.477 16.48 18.438-30.699c1.2461-2.0781 3.3828-3.4609 5.7852-3.7578 2.4062-0.29297 4.8125 0.53516 6.5273 2.2461l18.055 18.035 18.051-18.051c1.4766-1.4766 3.4805-2.3047 5.5664-2.3047h15.746c4.3477 0 7.8711 3.5234 7.8711 7.8711s-3.5234 7.8711-7.8711 7.8711z"/>
  <path d="m604.67 352.77h-31.488c-5.625 0-10.824 3-13.637 7.8711-2.8125 4.8711-2.8125 10.875 0 15.746 2.8125 4.8711 8.0117 7.8711 13.637 7.8711h31.488c5.625 0 10.82-3 13.633-7.8711 2.8125-4.8711 2.8125-10.875 0-15.746-2.8125-4.8711-8.0078-7.8711-13.633-7.8711z"/>
  <path d="m620.41 462.98c-0.011718-4.1719-1.6758-8.1719-4.625-11.121-2.9492-2.9492-6.9453-4.6133-11.117-4.625h-31.488c-5.625 0-10.824 3-13.637 7.8711-2.8125 4.8711-2.8125 10.875 0 15.746s8.0117 7.8711 13.637 7.8711h31.488c4.1719-0.011719 8.168-1.6758 11.117-4.625 2.9492-2.9492 4.6133-6.9492 4.625-11.117z"/>
  <path d="m179.58 289.79h70.848v220.42h-70.848z"/>
  <path d="m266.18 305.54h15.742v188.93h-15.742z"/>
 </g>
</svg>