<?xml version="1.0" encoding="UTF-8"?>
<!-- The Best Svg Icon site in the world: iconSvg.co, Visit us! https://iconsvg.co -->
<svg width="800px" height="800px" version="1.1" viewBox="144 144 512 512" xmlns="http://www.w3.org/2000/svg">
 <defs>
  <clipPath id="a">
   <path d="m148.09 148.09h503.81v503.81h-503.81z"/>
  </clipPath>
 </defs>
 <g clip-path="url(#a)">
  <path d="m549.57 447.23c-27.141 0-53.172 10.781-72.363 29.973s-29.973 45.223-29.973 72.363 10.781 53.172 29.973 72.363c19.191 19.191 45.223 29.973 72.363 29.973s53.172-10.781 72.363-29.973c19.191-19.191 29.973-45.223 29.973-72.363-0.03125-27.129-10.824-53.141-30.008-72.324-19.188-19.188-45.195-29.977-72.328-30.012zm0 188.93c-22.965 0-44.988-9.125-61.23-25.363-16.238-16.238-25.359-38.266-25.359-61.23s9.1211-44.988 25.359-61.23c16.242-16.238 38.266-25.359 61.23-25.359s44.992 9.1211 61.23 25.359c16.238 16.242 25.363 38.266 25.363 61.23-0.03125 22.957-9.1641 44.965-25.395 61.199-16.234 16.23-38.242 25.363-61.199 25.395zm31.488-41.988-35.785-0.003906c2.7617-8.3398 4.5469-16.973 5.3203-25.723 0.30469-3.668 0.42578-7.3438 0.36328-11.023h14.359c4.3477 0 7.8711-3.5234 7.8711-7.8711 0-4.3477-3.5234-7.8711-7.8711-7.8711h-15.43c-0.21875-1.875-0.45703-3.7305-0.67578-5.4492-1.5742-12.121-2.1719-18.199 2.0938-23.977h-0.003906c2.6172-4.1719 7.0312-6.8828 11.938-7.3203 4.6445 0.64453 8.793 3.2461 11.398 7.1484 1.1602 1.793 3.0039 3.0391 5.1016 3.4492 2.1016 0.40625 4.2773-0.054688 6.0273-1.2852 1.75-1.2266 2.9258-3.1172 3.2578-5.2305 0.32812-2.1133-0.21484-4.2695-1.5078-5.9727-5.4336-8.0859-14.305-13.203-24.027-13.855-9.8906 0.67578-18.98 5.6914-24.828 13.699-6.5312 10.582-8.3633 23.406-5.0547 35.391 0.14063 1.0547 0.23438 2.2969 0.36328 3.3867h-15.887c-4.3477 0-7.8711 3.5234-7.8711 7.8711s3.5234 7.8711 7.8711 7.8711h16.895c0.17578 3.2109 0.17578 6.4258 0 9.6367-0.99219 10.984-3.793 21.73-8.2812 31.805-1.0625 2.4297-0.82812 5.2344 0.62891 7.457 1.4531 2.2227 3.9258 3.5625 6.582 3.5625h47.23c4.3477 0 7.8711-3.5234 7.8711-7.8711s-3.5234-7.875-7.8711-7.875zm-338.5-83.965h15.742c4.1758 0 8.1797 1.6602 11.133 4.6094 2.9531 2.9531 4.6133 6.957 4.6133 11.133 0 4.3477 3.5234 7.875 7.8711 7.875 4.3477 0 7.8711-3.5273 7.8711-7.875 0-8.3477-3.3164-16.359-9.2227-22.266-5.9023-5.9023-13.914-9.2227-22.266-9.2227v-7.8711c0-4.3477-3.5234-7.8711-7.8711-7.8711-4.3477 0-7.8711 3.5234-7.8711 7.8711v7.8711c-11.25 0-21.645 6.0039-27.27 15.746-5.625 9.7422-5.625 21.746 0 31.488 5.625 9.7422 16.02 15.742 27.27 15.742h15.742c5.625 0 10.824 3.0039 13.637 7.875s2.8125 10.871 0 15.742c-2.8125 4.8711-8.0117 7.8711-13.637 7.8711h-15.742c-4.1758 0-8.1797-1.6562-11.133-4.6094s-4.6133-6.957-4.6133-11.133c0-4.3477-3.5234-7.8711-7.8711-7.8711s-7.8711 3.5234-7.8711 7.8711c0 8.3516 3.3164 16.359 9.2227 22.266s13.914 9.2227 22.266 9.2227v7.8711c0 4.3477 3.5234 7.8711 7.8711 7.8711 4.3477 0 7.8711-3.5234 7.8711-7.8711v-7.8711c11.25 0 21.645-6.0039 27.27-15.746 5.625-9.7422 5.625-21.746 0-31.488s-16.02-15.742-27.27-15.742h-15.742c-5.625 0-10.824-3-13.637-7.8711-2.8125-4.8711-2.8125-10.875 0-15.746s8.0117-7.8711 13.637-7.8711zm7.8711-62.977c-27.141 0-53.172 10.781-72.363 29.973s-29.973 45.223-29.973 72.363 10.781 53.172 29.973 72.363c19.191 19.191 45.223 29.973 72.363 29.973 27.141 0 53.172-10.781 72.363-29.973 19.191-19.191 29.973-45.223 29.973-72.363-0.03125-27.129-10.824-53.141-30.008-72.324-19.188-19.188-45.195-29.977-72.328-30.012zm0 188.93c-22.965 0-44.992-9.125-61.23-25.363s-25.363-38.266-25.363-61.23 9.125-44.988 25.363-61.23c16.238-16.238 38.266-25.359 61.23-25.359 22.965 0 44.992 9.1211 61.23 25.359 16.238 16.242 25.363 38.266 25.363 61.23-0.03125 22.957-9.1641 44.965-25.395 61.199-16.234 16.23-38.242 25.363-61.199 25.395zm-5.5742-206.99c1.4766 1.4805 3.4844 2.3125 5.5742 2.3125 2.0898 0 4.0977-0.83203 5.5742-2.3125l22.246-22.246c2.9844-3.0898 2.9414-8-0.097656-11.035-3.0352-3.0352-7.9453-3.0781-11.035-0.097656l-8.8164 8.8203v-43.977c0-6.2617 2.4883-12.27 6.918-16.699 4.4297-4.4258 10.438-6.9141 16.699-6.9141h15.742v55.105l0.003906-0.003906c0 6.2656 2.4844 12.273 6.9141 16.699 4.4297 4.4297 10.438 6.918 16.699 6.918h157.44c6.2617 0 12.27-2.4883 16.699-6.918 4.4297-4.4258 6.918-10.434 6.918-16.699v-55.102h15.742c6.2656 0 12.27 2.4883 16.699 6.9141 4.4297 4.4297 6.918 10.438 6.918 16.699v43.973l-8.832-8.832c-3.0898-2.9805-8-2.9375-11.035 0.097656-3.0391 3.0352-3.0781 7.9453-0.097656 11.035l22.246 22.246c1.4766 1.4805 3.4844 2.3125 5.5742 2.3125 2.0898 0 4.0977-0.83203 5.5742-2.3125l22.246-22.246c2.9844-3.0898 2.9414-8-0.097656-11.035-3.0352-3.0352-7.9453-3.0781-11.035-0.097656l-8.8008 8.8359v-43.977c0-10.438-4.1445-20.449-11.527-27.832-7.3828-7.3789-17.391-11.527-27.832-11.527h-16.547c-1.8867-13.074-8.4062-25.035-18.375-33.703-9.9648-8.6719-22.715-13.473-35.926-13.527h-15.742v-13.652c14.902-11.816 23.598-29.785 23.613-48.805v-16.957c-0.011718-12.34-4.918-24.168-13.645-32.895-8.7227-8.7266-20.555-13.633-32.895-13.645h-17.129c-12.34 0.011719-24.168 4.918-32.895 13.645-8.7266 8.7266-13.633 20.555-13.645 32.895v16.926c0.019531 19.02 8.7148 36.988 23.617 48.805v13.684h-15.746c-13.207 0.054687-25.957 4.8555-35.926 13.527-9.9648 8.668-16.488 20.629-18.375 33.703h-16.547c-10.438 0-20.449 4.1484-27.832 11.527-7.3828 7.3828-11.527 17.395-11.527 27.832v43.973l-8.832-8.832c-3.0898-2.9805-8-2.9375-11.035 0.097656-3.0391 3.0352-3.082 7.9453-0.097656 11.035zm115.78-217.61v-16.926c0.011719-8.1641 3.2578-15.992 9.0312-21.766 5.7734-5.7734 13.602-9.0195 21.766-9.0312h17.129c8.1641 0.011718 15.992 3.2578 21.766 9.0312 5.7734 5.7734 9.0234 13.602 9.0312 21.766v16.926c0.015625 9.1602-2.6641 18.125-7.7031 25.773-5.0391 7.6523-12.215 13.652-20.637 17.254-6.9961 2.9844-14.906 2.9844-21.898 0-8.4492-3.582-15.656-9.5703-20.723-17.223-5.0664-7.6523-7.7656-16.629-7.7617-25.805zm55.105 57.938v4.5508c0 5.625-3 10.82-7.8711 13.633s-10.875 2.8125-15.746 0-7.8711-8.0078-7.8711-13.633v-4.5508c10.102 4.0703 21.387 4.0703 31.488 0zm-102.34 59.652c0-10.438 4.1484-20.449 11.527-27.828 7.3828-7.3828 17.395-11.531 27.832-11.531h20.121c3.6523 6.4102 9.457 11.316 16.383 13.855 6.9297 2.5352 14.531 2.5352 21.457 0 6.9258-2.5391 12.73-7.4453 16.383-13.855h20.121c10.438 0 20.449 4.1484 27.832 11.531 7.3828 7.3789 11.527 17.391 11.527 27.828v62.977c0 2.0898-0.82812 4.0898-2.3047 5.5664-1.4766 1.4766-3.4805 2.3086-5.5664 2.3086h-23.617v-39.363c0-4.3477-3.5234-7.8711-7.8711-7.8711-4.3477 0-7.8711 3.5234-7.8711 7.8711v39.363h-78.719l-0.003906-39.363c0-4.3477-3.5234-7.8711-7.8711-7.8711s-7.8711 3.5234-7.8711 7.8711v39.363h-23.617c-4.3477 0-7.8711-3.5273-7.8711-7.875z"/>
 </g>
</svg>