<?xml version="1.0" encoding="UTF-8"?>
<!-- The Best Svg Icon site in the world: iconSvg.co, Visit us! https://iconsvg.co -->
<svg fill="#000000" width="800px" height="800px" version="1.1" viewBox="144 144 512 512" xmlns="http://www.w3.org/2000/svg">
 <g>
  <path d="m195.32 502.34c4.3516 0 7.8711-3.5234 7.8711-7.8711s-3.5195-7.8711-7.8711-7.8711l-23.613-0.003906c-4.3516 0-7.8711 3.5234-7.8711 7.8711v94.465c0 4.3477 3.5195 7.8711 7.8711 7.8711h23.617c4.3516 0 7.8711-3.5234 7.8711-7.8711 0-4.3477-3.5195-7.8711-7.8711-7.8711h-15.746v-78.719z"/>
  <path d="m620.68 422.34c-20.387-19.273-53.551-19.289-74.125 0.18359l-57.258 57.898c-13.773 13.93-32.914 21.918-52.504 21.918h-6.2617c6.1719-7.5117 9.8906-17.16 9.8906-27.73 0-23.777-19.34-43.117-43.117-43.117h-139.79c-25.617 0-46.449 19.676-46.449 43.855v74.223c0 4.3477 3.5195 7.8711 7.8711 7.8711 4.3516 0 7.8711-3.5234 7.8711-7.8711v-74.223c0-15.5 13.777-28.113 30.707-28.113h139.79c15.098 0 27.375 12.281 27.375 27.711 0 15.105-12.285 27.395-27.391 27.395h-20.91c-4.3516 0-7.8711 3.5234-7.8711 7.8711 0 4.3477 3.5195 7.8711 7.8711 7.8711h20.91c0.72656 0 1.4375-0.074219 2.1562-0.10938 0.1875 0.015625 0.34766 0.10938 0.54297 0.10938h36.809c23.77 0 46.984-9.6914 63.699-26.59l57.07-57.715c14.406-13.637 37.883-13.637 52.289 0 6.8047 6.4375 10.555 15.008 10.555 24.129s-3.75 17.688-10.555 24.129l-56.059 53.016c-30.91 29.238-73.93 46.008-118.02 46.008h-193.22c-4.3516 0-7.8711 3.5234-7.8711 7.8711 0 4.3477 3.5195 7.8711 7.8711 7.8711h193.22c48.078 0 95.039-18.34 128.85-50.316l56.059-53.016c9.9766-9.4414 15.473-22.074 15.473-35.562 0-13.492-5.4961-26.125-15.477-35.566z"/>
  <path d="m331.46 303.23c2.1758 2.1836 5.4492 2.8828 8.332 1.8047l58.227-21.836 108.93 108.93h-28.23c-4.3516 0-7.8711 3.5234-7.8711 7.8711s3.5195 7.8711 7.8711 7.8711h47.23c4.3516 0 7.8711-3.5234 7.8711-7.8711v-47.23c0-4.3477-3.5195-7.8711-7.8711-7.8711-4.3516 0-7.8711 3.5234-7.8711 7.8711v28.23l-112.52-112.52c-2.1836-2.1836-5.4414-2.8828-8.332-1.8047l-58.227 21.836-83.008-83.008c-3.0742-3.0742-8.0547-3.0742-11.133 0-3.0742 3.0742-3.0742 8.0547 0 11.133z"/>
 </g>
</svg>