<?xml version="1.0" encoding="UTF-8"?>
<!-- The Best Svg Icon site in the world: iconSvg.co, Visit us! https://iconsvg.co -->
<svg fill="#000000" width="800px" height="800px" version="1.1" viewBox="144 144 512 512" xmlns="http://www.w3.org/2000/svg">
 <g>
  <path d="m631.68 380.82-76.496-53.52v-54.328c0-13.121-10.695-23.805-23.816-23.805-13.121 0-23.805 10.684-23.805 23.805v21.035l-101.56-71.039c-3.6094-2.5195-8.4297-2.5195-12.027 0l-225.66 157.85c-4.7461 3.3164-5.9102 9.8672-2.582 14.621 3.3164 4.7539 9.8555 5.9102 14.633 2.582l64.465-45.09v178.13c0 26.387 21.477 47.871 47.871 47.871h214.66c26.387 0 47.863-21.484 47.863-47.871v-178.14l64.465 45.09c1.8477 1.2812 3.9375 1.8984 6.0039 1.8984 3.3047 0 6.5703-1.5547 8.6055-4.4805 3.2969-4.7422 2.1328-11.289-2.6133-14.609zm-241.42 50.109c0 2.875-2.3633 5.2461-5.2461 5.2461h-28.414c-2.8984 0-5.2461-2.3711-5.2461-5.2461l-0.003906-28.414c0-2.8867 2.3516-5.2461 5.2461-5.2461h28.414c2.8867 0 5.2461 2.3633 5.2461 5.2461zm0-58.254c0 2.9062-2.3633 5.2461-5.2461 5.2461h-28.414c-2.8984 0-5.2461-2.3398-5.2461-5.2461v-28.391c0-2.9062 2.3516-5.2461 5.2461-5.2461h28.414c2.8867 0 5.2461 2.3398 5.2461 5.2461zm58.379 58.254c0 2.875-2.3516 5.2461-5.2461 5.2461h-28.391c-2.8984 0-5.2461-2.3711-5.2461-5.2461l-0.003906-28.414c0-2.8867 2.3516-5.2461 5.2461-5.2461h28.391c2.8984 0 5.2461 2.3633 5.2461 5.2461zm0-58.254c0 2.9062-2.3516 5.2461-5.2461 5.2461h-28.391c-2.8984 0-5.2461-2.3398-5.2461-5.2461v-28.391c0-2.9062 2.3516-5.2461 5.2461-5.2461h28.391c2.8984 0 5.2461 2.3398 5.2461 5.2461z"/>
  <path d="m544.69 272.96v53.395l-26.609-18.609v-34.785c0-7.3359 5.9609-13.309 13.32-13.309 7.3359 0 13.289 5.9844 13.289 13.309z"/>
 </g>
</svg>