<?xml version="1.0" encoding="UTF-8"?>
<!-- The Best Svg Icon site in the world: iconSvg.co, Visit us! https://iconsvg.co -->
<svg fill="#000000" width="800px" height="800px" version="1.1" viewBox="144 144 512 512" xmlns="http://www.w3.org/2000/svg">
 <g>
  <path d="m636.16 344.89h-68.488c-4.3477 0-7.8711 3.5234-7.8711 7.8711v4.4102c-36.062-13.293-74.141-20.293-112.57-20.703-36.438-0.50781-72.461 7.7812-105.01 24.164h-102.34v-7.8711c0-2.0859-0.83203-4.0898-2.3086-5.5664-1.4766-1.4766-3.4766-2.3047-5.5664-2.3047h-68.172c-4.3477 0-7.8711 3.5234-7.8711 7.8711v156.57c0.027344 2.4492 1.1914 4.75 3.1484 6.2188 1.332 0.96484 2.9258 1.4844 4.5664 1.4961 0.78516 0.12109 1.5781 0.12109 2.3633 0l68.645-22.594c3.1523-1.0625 5.293-3.9922 5.3516-7.3203v-6.0625h29.758l-16.848 18.344c-5.0625 5.4258-7.7305 12.66-7.3984 20.074 0.32031 7.207 3.4023 14.012 8.6055 19.008s12.125 7.8008 19.34 7.8359h0.55078c-0.039063 0.67969-0.039063 1.3633 0 2.0469 0.30469 7.2031 3.3828 14.012 8.5898 19s12.145 7.7695 19.355 7.7656h0.47266c-0.50781 7.7109 2.2305 15.285 7.5547 20.891 5.3203 5.6055 12.742 8.7344 20.469 8.6289h1.2617c5.4453-0.22266 10.707-2.0586 15.113-5.2734 1.9766 6.2617 6.1055 11.629 11.652 15.145 5.5508 3.5156 12.164 4.9609 18.672 4.0781 6.5117-0.88672 12.496-4.043 16.906-8.9102l4.5664-5.0391 4.4883 4.6445c4.9922 5.7148 12.098 9.1523 19.68 9.5234h1.2578c7.0078 0.011718 13.758-2.6328 18.895-7.3984 3.625-3.2656 6.3359-7.4141 7.8711-12.043 5.707 3.9102 12.66 5.5625 19.516 4.6328 6.8555-0.93359 13.121-4.3828 17.574-9.6758s6.7773-12.055 6.5195-18.969h0.47266c7.2148 0.007812 14.148-2.7734 19.355-7.7617 5.207-4.9883 8.2852-11.797 8.5898-19.004 0.042969-0.67969 0.042969-1.3633 0-2.0469h0.86719c7.3711 0.085937 14.48-2.7461 19.773-7.875 5.2969-5.1328 8.3477-12.148 8.4922-19.52 0.14453-7.3711-2.6289-14.5-7.7188-19.836l-8.5-9.2891 23.617-6.6914v3.6992h-0.003906c0.10156 3.5078 2.5078 6.5234 5.9062 7.3984l68.25 21.965c0.78125 0.11719 1.5781 0.11719 2.3594 0 1.6406-0.011719 3.2383-0.53516 4.5664-1.4961 1.9609-1.4688 3.125-3.7695 3.1484-6.2188v-155.95c0.007812-4.1992-3.2852-7.6602-7.4766-7.8711zm-411.55 136.89-52.898 17.004v-138.16h52.898zm40.383 46.051c-2.4688-2.2461-3.918-5.3984-4.0117-8.7383-0.125-3.2695 1.0352-6.4609 3.2266-8.8945l20.859-22.594 17.555 18.184-19.758 21.41v0.003907c-2.2383 2.4922-5.3906 3.9688-8.7383 4.0938-3.3867 0.12109-6.6758-1.1289-9.1328-3.4648zm28.734 28.891c-5.1289-4.6953-5.4805-12.66-0.78906-17.789l17.16-18.734 3.0703-3.3867 17.633 18.262h-0.47266l-18.973 20.703h0.003906c-4.6367 5.0742-12.48 5.4922-17.633 0.94531zm28.262 29.285c-5.1055-4.7188-5.4258-12.684-0.71094-17.793l18.812-20.547 1.418-1.5742 18.027 18.656-19.836 20.781v0.003907c-4.7969 4.9414-12.66 5.1523-17.711 0.47266zm60.773 13.383h-0.003907c-4.6953 5.1484-12.676 5.5195-17.828 0.82422-5.1523-4.6953-5.5234-12.676-0.82813-17.828l6.2969-6.7695 17.555 18.105zm149.57-71.559h-0.003906c-2.4453 2.2812-5.7148 3.4766-9.0547 3.3047-3.3242-0.13672-6.4648-1.5781-8.7383-4.0117l-48.648-54.004c-1.1836-2.0664-3.2383-3.4844-5.5938-3.8594-2.3516-0.375-4.7461 0.33594-6.5156 1.9297-1.7656 1.5977-2.7148 3.9102-2.582 6.2891 0.13672 2.3789 1.3398 4.5664 3.2773 5.9531l1.1797 1.418 48.727 54.082h0.003906c2.3398 2.4453 3.5938 5.7344 3.4805 9.1211s-1.582 6.5859-4.082 8.8711c-2.5 2.2891-5.8164 3.4727-9.1992 3.2852-3.3828-0.1875-6.5469-1.7266-8.7773-4.2773l-48.73-53.605c-3.0195-2.2227-7.1875-2.0039-9.9609 0.51953-2.7734 2.5234-3.3828 6.6562-1.4531 9.8711l1.4961 1.6523 48.887 53.688c4.6953 5.1523 4.3242 13.133-0.82812 17.828-5.1523 4.6953-13.133 4.3281-17.828-0.82422l-33.301-35.504-11.18-12.203 0.003906 0.003907c-1.1992-2.0625-3.2656-3.4727-5.6211-3.832-2.3594-0.35938-4.75 0.36719-6.5078 1.9766-1.7578 1.6133-2.6914 3.9336-2.5352 6.3125 0.15234 2.3789 1.375 4.5625 3.3281 5.9336l31.488 34.715c3.7266 4.9531 3.293 11.887-1.0195 16.34-4.3164 4.4492-11.23 5.1016-16.301 1.5273l-96.434-99.656s-0.47266-0.70703-0.78906-1.0234h-0.62891l-29.992-30.938h0.003906c-1.4531-1.4844-3.4336-2.332-5.5117-2.3633h-42.352v-90.449h84.703l-35.738 34.164c-4.8398 5.4492-7.3789 12.559-7.0859 19.84 0.99609 8.4609 5.5859 16.09 12.594 20.938 6.3633 4.1758 13.801 6.418 21.414 6.457 9.6719-0.10938 18.914-4.0117 25.742-10.863l22.199-20.859v-0.003907c18.07 11.273 38.777 17.625 60.062 18.422 13.879 0.13672 27.516-3.6289 39.359-10.863l37.473 41.562s0 0.47266 0.47266 0.62891l14.719 15.742 17.238 19.133c4.6953 5.1289 4.3438 13.094-0.78516 17.789zm27.238-59.984-35.188 9.7617-53.535-59.75c-1.4844-1.5977-3.5664-2.5117-5.7461-2.5195-1.668-0.003906-3.2969 0.51953-4.6445 1.4961-10.301 7.7891-22.906 11.914-35.82 11.73-20.191-1.0625-39.707-7.6211-56.441-18.973-3.0234-2.0586-7.0664-1.7656-9.7617 0.71094l-26.609 24.953h0.003906c-3.9688 4.168-9.4414 6.5781-15.195 6.6914-4.2812-0.10547-8.4766-1.2695-12.199-3.3867-3.4844-2.207-5.9258-5.7266-6.7695-9.7617-0.03125-2.8125 0.82031-5.5664 2.4375-7.8711l48.492-46.289v0.003906c30.535-15.516 64.391-23.348 98.637-22.832 38.445 0.49219 76.5 7.7695 112.41 21.492zm68.719 30.938-52.82-17.004-0.003906-121.15h52.824z"/>
  <path d="m201.86 455.73c-4.3477 0-7.8711 3.5234-7.8711 7.8711v2.3633-0.003906c0 4.3477 3.5234 7.875 7.8711 7.875s7.8711-3.5273 7.8711-7.875v-2.3633 0.003907c0-2.0898-0.82812-4.0898-2.3047-5.5664-1.4766-1.4766-3.4766-2.3047-5.5664-2.3047z"/>
  <path d="m599.87 473.13c2.0859 0 4.0898-0.82812 5.5664-2.3047 1.4727-1.4766 2.3047-3.4805 2.3047-5.5664v-2.2812c0-4.3477-3.5273-7.875-7.8711-7.875-4.3477 0-7.875 3.5273-7.875 7.875v2.3633-0.003906c0.042968 4.3164 3.5547 7.793 7.875 7.793z"/>
  <path d="m306.95 200.84-7.1641 3.4648c-2.9805 1.75-4.4688 5.2383-3.6758 8.5977 0.79688 3.3633 3.6914 5.8125 7.1367 6.043 1.207-0.019531 2.3906-0.31641 3.4648-0.86719l6.6133-3.1484c2.3203-0.50781 4.2891-2.0391 5.3516-4.1641 1.0625-2.1289 1.1094-4.6211 0.125-6.7852-0.98438-2.1641-2.8945-3.7656-5.1953-4.3594s-4.75-0.11719-6.6562 1.2969z"/>
  <path d="m272.39 220.52-6.2188 4.6445c-3.332 2.5938-4.0273 7.3516-1.5742 10.785 1.4844 1.9297 3.7812 3.0664 6.2188 3.0703 1.6484-0.035156 3.2461-0.58594 4.5625-1.5742l6.0625-4.3281c2.5-2.7227 2.7695-6.8164 0.65234-9.8398-2.1172-3.0273-6.0586-4.1758-9.4688-2.7578z"/>
  <path d="m344.89 187.45c-2.5977 0.62891-5.1953 1.3398-7.8711 2.125-3.2617 1.418-5.168 4.8438-4.6523 8.3633 0.51562 3.5156 3.3242 6.25 6.8555 6.6719 0.70313 0.11719 1.4219 0.11719 2.125 0l7.1641-1.9688v0.003907c3.7109-1.3984 5.8008-5.3359 4.8828-9.1914-0.91797-3.8594-4.5625-6.4297-8.5039-6.0039z"/>
  <path d="m383.7 181.23c-2.6758 0-5.2734 0-7.8711 0.70703v0.003906c-4.3477 0.23828-7.6797 3.957-7.4414 8.3047 0.24219 4.3477 3.9609 7.6758 8.3086 7.4375h0.78906l7.3984-0.62891h-0.003907c2.3555 0.33203 4.7383-0.41797 6.4766-2.0391 1.7383-1.625 2.6523-3.9453 2.4805-6.3203-0.16797-2.3711-1.4023-4.543-3.3555-5.8984-1.957-1.3594-4.418-1.7617-6.7031-1.0938z"/>
  <path d="m241.85 245.94c-1.8906 1.8125-3.6992 3.7773-5.5117 5.668h0.003906c-1.9766 1.3398-3.2383 3.5039-3.4297 5.8867-0.19141 2.3789 0.70703 4.7188 2.4453 6.3555 1.7344 1.6406 4.1211 2.4023 6.4844 2.0703 2.3672-0.32812 4.4531-1.7109 5.6758-3.7617 1.7305-1.8125 3.3867-3.6211 5.1953-5.3516l0.003906-0.003906c1.9727-3.1094 1.5195-7.1758-1.0859-9.7812-2.6055-2.6016-6.668-3.0547-9.7812-1.082z"/>
  <path d="m206.5 307.03c-3.8516-1.7031-8.3594-0.074219-10.234 3.6992-1.1016 2.4414-2.2031 4.8789-3.2266 7.3203-1.5469 3.9141 0.25391 8.3516 4.0938 10.074 0.95312 0.37891 1.9688 0.56641 2.9922 0.55469 3.0625-0.039063 5.8281-1.8516 7.082-4.6445 0.94531-2.2812 1.9688-4.5664 2.9922-6.8477v-0.003906c1.6523-3.8281 0.03125-8.2852-3.6992-10.152z"/>
  <path d="m216.19 276.33-4.4883 6.5352c-2.25 3.6016-1.2422 8.3359 2.2852 10.707 1.2422 0.80078 2.6875 1.2383 4.1719 1.2578 2.6055-0.039063 5.0195-1.3672 6.4531-3.543l4.1719-6.1406c1.418-3.4102 0.26953-7.3477-2.7539-9.4688-3.0273-2.1172-7.1211-1.8477-9.8398 0.65234z"/>
  <path d="m588.22 281.92c-1.4961-2.2031-2.9922-4.4102-4.5664-6.5352-0.92188-2.207-2.7969-3.875-5.0977-4.5352-2.3008-0.66016-4.7773-0.23438-6.7266 1.1523-1.9531 1.3867-3.1641 3.582-3.3008 5.9727-0.13281 2.3906 0.82422 4.7109 2.6094 6.3086 1.4961 2.0469 2.832 4.0938 4.25 6.1406 2.3906 3.4492 7.0625 4.418 10.629 2.2031 3.4961-2.3945 4.4688-7.125 2.2031-10.707z"/>
  <path d="m606.95 316.32c-1.0234-2.3633-2.0469-4.6445-3.1484-6.9258v-0.003906c-1.8984-3.7422-6.4023-5.3359-10.234-3.6211-3.7422 1.9023-5.332 6.4023-3.6211 10.234l2.832 6.375h0.003906c1.2539 2.7969 4.0195 4.6094 7.0859 4.6445 1.0547 0.019531 2.1055-0.19531 3.0664-0.62891 3.8086-1.7539 5.5742-6.1836 4.0156-10.074z"/>
  <path d="m423.61 181.79c-2.5977 0-5.2734-0.47266-7.8711-0.70703-4.0859-0.015625-7.5039 3.0938-7.8711 7.1641-0.015625 4.0859 3.0938 7.5039 7.1641 7.8711l7.3984 0.62891h0.78906c4.0039 0.03125 7.3906-2.9531 7.8711-6.9258 0.089844-4.2617-3.2227-7.8164-7.4805-8.0312z"/>
  <path d="m557.83 244.92c-3.0391-2.8984-7.8203-2.8984-10.863 0-2.9492 3.0547-2.9492 7.8945 0 10.945 1.8125 1.7305 3.543 3.4648 5.1953 5.2734 3.0508 2.9492 7.8906 2.9492 10.941 0 2.8984-3.043 2.8984-7.8242 0-10.863z"/>
  <path d="m462.5 189.34c-2.5195-0.78906-5.1172-1.4961-7.8711-2.125h-0.003906c-3.7188-0.13281-7.0234 2.3594-7.918 5.9766-0.89453 3.6133 0.86719 7.3594 4.2188 8.9805l7.1641 1.8906v-0.003906c0.70312 0.11719 1.4219 0.11719 2.125 0 3.5195-0.44922 6.3047-3.1953 6.8008-6.707 0.49609-3.5117-1.418-6.9219-4.6758-8.3281z"/>
  <path d="m527.13 219.65c-3.4492-1.4258-7.4219-0.23438-9.5195 2.8516-2.0938 3.0859-1.7344 7.2188 0.85938 9.8984l6.0625 4.25c1.2891 0.98438 2.8672 1.5078 4.4844 1.4961 3.2422-0.125 6.0703-2.2227 7.1328-5.2852s0.13672-6.4648-2.3281-8.5664c-2.3633-1.5781-4.4883-3.1523-6.6914-4.6445z"/>
  <path d="m499.66 203.67-7.2422-3.4648c-3.6602-0.82422-7.3906 1.043-8.918 4.4688-1.5312 3.4219-0.43359 7.4453 2.6172 9.6211l6.6914 3.1484c1.0586 0.51172 2.2148 0.78125 3.3867 0.78906 2.9336-0.039063 5.6055-1.707 6.9258-4.332 1.7383-3.7891 0.21875-8.2773-3.4609-10.23z"/>
 </g>
</svg>