<?xml version="1.0" encoding="UTF-8"?>
<!-- The Best Svg Icon site in the world: iconSvg.co, Visit us! https://iconsvg.co -->
<svg fill="#000000" width="800px" height="800px" version="1.1" viewBox="144 144 512 512" xmlns="http://www.w3.org/2000/svg">
 <g>
  <path d="m599.42 392.55c0-52.891-21.008-103.62-58.41-141.02-37.398-37.398-88.121-58.41-141.01-58.41s-103.62 21.012-141.02 58.41-58.41 88.125-58.41 141.02c-0.16016 2.4805-0.16016 4.9688 0 7.4531 0 5.7969 4.6992 10.496 10.496 10.496 5.7969 0 10.496-4.6992 10.496-10.496 0-18.75 10.004-36.074 26.238-45.449 16.238-9.375 36.242-9.375 52.48 0 16.238 9.375 26.242 26.699 26.242 45.449 0 5.7969 4.6992 10.496 10.496 10.496 5.7969 0 10.496-4.6992 10.496-10.496 0-18.75 10-36.074 26.238-45.449 16.238-9.375 36.242-9.375 52.48 0s26.242 26.699 26.242 45.449c0 5.7969 4.6992 10.496 10.496 10.496 5.7969 0 10.496-4.6992 10.496-10.496 0-18.75 10-36.074 26.238-45.449 16.238-9.375 36.242-9.375 52.48 0 16.238 9.375 26.238 26.699 26.238 45.449 0 5.7969 4.6992 10.496 10.496 10.496s10.496-4.6992 10.496-10.496c0.16016-2.4844 0.16016-4.9727 0-7.4531zm-325.38-66.02c-15.016-0.074219-29.684 4.5117-41.984 13.117 10.469-28.945 28.227-54.703 51.559-74.781 23.336-20.078 51.453-33.797 81.637-39.832-25.715 26.871-35.059 63.605-37.785 124.69-13.809-14.824-33.168-23.23-53.426-23.195zm125.95 0c-19.195 0.023437-37.617 7.5586-51.328 20.992 3.5703-72.109 16.793-101.39 51.324-123.96 34.531 22.566 47.758 51.852 51.324 123.96h0.003907c-13.711-13.434-32.133-20.969-51.324-20.992zm125.95 0h-0.003906c-20.258-0.035156-39.617 8.3711-53.422 23.195-2.7305-61.086-12.07-97.824-37.785-124.69 30.184 6.0352 58.301 19.754 81.633 39.832s41.09 45.836 51.559 74.781c-12.301-8.6055-26.969-13.191-41.984-13.117z"/>
  <path d="m420.99 483.96c5.7969 0 10.496-4.6992 10.496-10.492 0-5.7969-4.6992-10.496-10.496-10.496h-10.496c0-5.7969-4.6992-10.496-10.496-10.496s-10.496 4.6992-10.496 10.496h-10.496c-5.7969 0-10.496 4.6992-10.496 10.496v31.488-0.003907c0 2.7852 1.1055 5.457 3.0742 7.4219 1.9688 1.9688 4.6367 3.0742 7.4219 3.0742h31.488v10.496h-31.488c-5.7969 0-10.496 4.6992-10.496 10.496 0 5.7969 4.6992 10.496 10.496 10.496h10.496c0 5.7969 4.6992 10.496 10.496 10.496s10.496-4.6992 10.496-10.496h10.496c2.7812 0 5.4531-1.1055 7.4219-3.0742 1.9648-1.9688 3.0742-4.6367 3.0742-7.4219v-31.488c0-2.7812-1.1094-5.4531-3.0742-7.4219-1.9688-1.9648-4.6406-3.0742-7.4219-3.0742h-31.488v-10.496z"/>
  <path d="m483.96 452.48h-5.3516c-17.5-26.387-47.059-42.25-78.719-42.25-31.664 0-61.219 15.863-78.723 42.25h-5.1406c-23.152-0.13672-45.012 10.645-58.992 29.098-13.98 18.453-18.449 42.414-12.055 64.664s22.902 40.184 44.547 48.398 45.895 5.7461 65.438-6.6562c28.09 15.227 61.973 15.227 90.059 0 19.547 12.402 43.797 14.871 65.438 6.6562 21.645-8.2148 38.152-26.148 44.547-48.398s1.9258-46.211-12.055-64.664-35.84-29.234-58.992-29.098zm-167.93 125.95c-17.652-0.66797-33.781-10.172-42.922-25.289-9.1367-15.117-10.059-33.816-2.4492-49.758 7.6094-15.941 22.727-26.984 40.227-29.387-3.543 9.9375-5.3516 20.41-5.3516 30.961-0.027344 26.363 11.062 51.516 30.543 69.277-6.3203 2.7656-13.148 4.1953-20.047 4.1953zm10.496-73.473c0-19.484 7.7383-38.172 21.52-51.949 13.777-13.781 32.465-21.52 51.953-21.52 19.484 0 38.172 7.7383 51.953 21.52 13.777 13.777 21.52 32.465 21.52 51.949 0 19.488-7.7422 38.176-21.52 51.953-13.781 13.781-32.469 21.52-51.953 21.52-19.488 0-38.176-7.7383-51.953-21.52-13.781-13.777-21.52-32.465-21.52-51.953zm157.44 73.473h-0.003906c-6.8984 0-13.723-1.4297-20.047-4.1953 19.48-17.762 30.57-42.914 30.543-69.277 0-10.551-1.8086-21.023-5.3516-30.961 17.5 2.4023 32.621 13.445 40.227 29.387 7.6094 15.941 6.6914 34.641-2.4492 49.758-9.1367 15.117-25.27 24.621-42.922 25.289z"/>
 </g>
</svg>