<?xml version="1.0" encoding="UTF-8"?>
<!-- The Best Svg Icon site in the world: iconSvg.co, Visit us! https://iconsvg.co -->
<svg fill="#000000" width="800px" height="800px" version="1.1" viewBox="144 144 512 512" xmlns="http://www.w3.org/2000/svg">
 <path d="m400 179.58c-58.461 0-114.52 23.223-155.86 64.559s-64.559 97.398-64.559 155.86c0 58.457 23.223 114.52 64.559 155.86 41.336 41.336 97.398 64.559 155.86 64.559 58.457 0 114.52-23.223 155.86-64.559 41.336-41.336 64.559-97.398 64.559-155.86 0-38.691-10.184-76.703-29.527-110.21-19.348-33.508-47.172-61.332-80.68-80.676-33.508-19.348-71.516-29.531-110.21-29.531zm0 409.34c-50.109 0-98.164-19.902-133.59-55.336-35.43-35.43-55.336-83.484-55.336-133.59 0-50.109 19.906-98.164 55.336-133.59s83.484-55.336 133.59-55.336c50.105 0 98.16 19.906 133.59 55.336 35.434 35.43 55.336 83.484 55.336 133.59 0 50.105-19.902 98.16-55.336 133.59-35.43 35.434-83.484 55.336-133.59 55.336zm40.934-245.61c0 5.625 3 10.82 7.8711 13.633 4.8711 2.8125 10.875 2.8125 15.746 0 4.8711-2.8125 7.8711-8.0078 7.8711-13.633-0.035156-16.445-5.668-32.391-15.969-45.207-10.301-12.82-24.66-21.75-40.711-25.328v-14.484c0-5.625-3-10.82-7.8711-13.633s-10.875-2.8125-15.746 0-7.8711 8.0078-7.8711 13.633v14.484c-21.992 4.4219-40.684 18.805-50.594 38.93-9.9062 20.129-9.9062 43.715 0 63.84 9.9102 20.125 28.602 34.508 50.594 38.93v79.977c-7.4609-3.1055-13.832-8.3516-18.316-15.078-4.4805-6.7227-6.875-14.625-6.875-22.707 0-5.625-3-10.82-7.8711-13.633s-10.871-2.8125-15.742 0c-4.8711 2.8125-7.875 8.0078-7.875 13.633 0.039062 16.445 5.668 32.391 15.969 45.207 10.301 12.82 24.66 21.754 40.711 25.328v14.484c0 5.625 3 10.82 7.8711 13.633s10.875 2.8125 15.746 0 7.8711-8.0078 7.8711-13.633v-14.484c21.992-4.4219 40.688-18.805 50.594-38.93 9.9102-20.125 9.9102-43.711 0-63.836-9.9062-20.129-28.602-34.512-50.594-38.93v-79.98c7.4609 3.1055 13.832 8.3555 18.316 15.078 4.4805 6.7227 6.875 14.625 6.875 22.707zm-81.867 0h-0.003906c0-8.082 2.3945-15.984 6.875-22.707 4.4844-6.7227 10.855-11.973 18.316-15.078v75.57c-7.4609-3.1094-13.832-8.3555-18.316-15.078-4.4805-6.7266-6.875-14.625-6.875-22.707zm81.867 113.36c0 8.082-2.3945 15.984-6.875 22.707-4.4844 6.7266-10.855 11.973-18.316 15.078v-75.57c7.4609 3.1094 13.832 8.3555 18.316 15.078 4.4805 6.7266 6.875 14.625 6.875 22.707z"/>
</svg>