<?xml version="1.0" encoding="UTF-8"?>
<!-- The Best Svg Icon site in the world: iconSvg.co, Visit us! https://iconsvg.co -->
<svg fill="#000000" width="800px" height="800px" version="1.1" viewBox="144 144 512 512" xmlns="http://www.w3.org/2000/svg">
 <g>
  <path d="m518.08 502.34h15.746c2.0859 0 4.0898 0.82812 5.5664 2.3047s2.3047 3.4766 2.3047 5.5664c0 4.3477 3.5234 7.8711 7.8711 7.8711s7.8711-3.5234 7.8711-7.8711c0-6.2617-2.4883-12.27-6.9141-16.699-4.4297-4.4297-10.438-6.918-16.699-6.918v-7.8711c0-4.3477-3.5273-7.8711-7.875-7.8711-4.3477 0-7.8711 3.5234-7.8711 7.8711v7.8711c-8.4375 0-16.234 4.5039-20.453 11.809-4.2188 7.3086-4.2188 16.309 0 23.617 4.2188 7.3047 12.016 11.809 20.453 11.809h15.746c4.3477 0 7.8711 3.5234 7.8711 7.8711 0 4.3477-3.5234 7.8711-7.8711 7.8711h-15.746c-4.3477 0-7.8711-3.5234-7.8711-7.8711 0-4.3477-3.5234-7.8711-7.8711-7.8711-4.3477 0-7.875 3.5234-7.875 7.8711 0 6.2617 2.4883 12.27 6.918 16.699 4.4297 4.4297 10.438 6.918 16.699 6.918v7.8711c0 4.3477 3.5234 7.8711 7.8711 7.8711 4.3477 0 7.875-3.5234 7.875-7.8711v-7.8711c8.4375 0 16.23-4.5039 20.449-11.809 4.2188-7.3086 4.2188-16.309 0-23.617-4.2188-7.3086-12.012-11.809-20.449-11.809h-15.746c-4.3477 0-7.8711-3.5234-7.8711-7.8711 0-4.3477 3.5234-7.8711 7.8711-7.8711z"/>
  <path d="m525.95 447.23c-20.875 0-40.898 8.293-55.66 23.059-14.766 14.762-23.059 34.785-23.059 55.66 0 20.879 8.293 40.902 23.059 55.664 14.762 14.766 34.785 23.059 55.66 23.059 20.879 0 40.902-8.293 55.664-23.059 14.766-14.762 23.059-34.785 23.059-55.664-0.023437-20.871-8.3242-40.879-23.082-55.637-14.758-14.758-34.77-23.059-55.641-23.082zm0 141.7c-16.699 0-32.719-6.6328-44.527-18.445-11.812-11.809-18.445-27.828-18.445-44.531 0-16.699 6.6328-32.719 18.445-44.527 11.809-11.812 27.828-18.445 44.527-18.445 16.703 0 32.723 6.6328 44.531 18.445 11.812 11.809 18.445 27.828 18.445 44.527-0.015625 16.699-6.6602 32.707-18.465 44.512-11.805 11.805-27.812 18.449-44.512 18.465z"/>
  <path d="m588.93 435.64v-185.21c-0.011719-10.434-4.1602-20.438-11.539-27.816-7.3789-7.3789-17.383-11.531-27.82-11.543h-56.551c-1.625-4.5898-4.625-8.5625-8.5938-11.383-3.9648-2.8164-8.707-4.3398-13.574-4.3633h-21.09c-5.9805-12.625-16.539-22.508-29.535-27.641-12.992-5.1328-27.453-5.1328-40.449 0-12.996 5.1328-23.555 15.016-29.535 27.641h-21.09c-4.8633 0.023437-9.6055 1.5469-13.574 4.3633-3.9688 2.8203-6.9688 6.793-8.5898 11.383h-56.555c-10.434 0.011719-20.438 4.1641-27.816 11.543-7.3789 7.3789-11.531 17.383-11.543 27.816v346.37c0.011719 10.434 4.1641 20.438 11.543 27.816 7.3789 7.3789 17.383 11.531 27.816 11.543h275.52c31.484 0.027344 61.473-13.426 82.395-36.953 20.918-23.527 30.766-54.887 27.055-86.148-3.7109-31.266-20.625-59.445-46.473-77.422zm-15.742-185.21v176.1c-5.082-2.4492-10.348-4.5039-15.746-6.1406v-169.96c0-2.0859-0.82812-4.0898-2.3047-5.5664-1.4766-1.4766-3.4766-2.3047-5.5664-2.3047h-55.105v-15.746h55.105c6.2656 0 12.27 2.4883 16.699 6.918 4.4297 4.4297 6.918 10.438 6.918 16.699zm-259.78 23.617h173.18c2.0898 0 4.0898-0.83203 5.5664-2.3047 1.4766-1.4766 2.3047-3.4805 2.3047-5.5664v-7.875h47.23l0.003906 158.7c-28.5-4.1797-57.504 2.9883-80.777 19.961-23.273 16.977-38.957 42.402-43.684 70.816-4.7305 28.414 1.8789 57.551 18.402 81.145h-177.34v-330.62h47.23v7.8711l0.003906 0.003906c0 2.0859 0.82812 4.0898 2.3047 5.5664 1.4766 1.4727 3.4805 2.3047 5.5664 2.3047zm15.742-62.977h26.375c3.3477 0 6.3281-2.1211 7.4297-5.2812 3.6328-10.281 11.371-18.59 21.371-22.941 9.9961-4.3516 21.352-4.3516 31.352 0 9.9961 4.3516 17.738 12.66 21.367 22.941 1.1016 3.1602 4.0859 5.2812 7.4336 5.2812h26.371c2.0859 0 4.0898 0.82813 5.5664 2.3047 1.4766 1.4766 2.3047 3.4805 2.3047 5.5664v39.359h-157.44v-39.359c0-4.3477 3.5234-7.8711 7.8711-7.8711zm-78.719 409.34c-6.2617 0-12.27-2.4883-16.699-6.9141-4.4297-4.4297-6.918-10.438-6.918-16.699v-346.37c0-6.2617 2.4883-12.27 6.918-16.699 4.4297-4.4297 10.438-6.918 16.699-6.918h55.105v15.742l-55.105 0.003906c-4.3477 0-7.8711 3.5234-7.8711 7.8711v346.37c0 2.0859 0.82812 4.0898 2.3047 5.5664 1.4766 1.4727 3.4805 2.3047 5.5664 2.3047h198.54c6.1992 6.0312 13.082 11.312 20.508 15.742zm275.52 0c-25.051 0-49.078-9.9531-66.793-27.668-17.719-17.715-27.668-41.742-27.668-66.797 0-25.051 9.9492-49.078 27.668-66.793 17.715-17.719 41.742-27.668 66.793-27.668 25.055 0 49.082 9.9492 66.797 27.668 17.715 17.715 27.668 41.742 27.668 66.793-0.027343 25.047-9.9883 49.059-27.695 66.77-17.711 17.707-41.723 27.668-66.77 27.695z"/>
  <path d="m344.89 321.28h157.44c4.3477 0 7.8711-3.5234 7.8711-7.8711s-3.5234-7.8711-7.8711-7.8711h-157.44c-4.3477 0-7.8711 3.5234-7.8711 7.8711s3.5234 7.8711 7.8711 7.8711z"/>
  <path d="m344.89 368.51h157.44c4.3477 0 7.8711-3.5273 7.8711-7.875 0-4.3477-3.5234-7.8711-7.8711-7.8711h-157.44c-4.3477 0-7.8711 3.5234-7.8711 7.8711 0 4.3477 3.5234 7.875 7.8711 7.875z"/>
  <path d="m344.89 415.74h133.82c4.3477 0 7.8711-3.5234 7.8711-7.8711s-3.5234-7.8711-7.8711-7.8711h-133.82c-4.3477 0-7.8711 3.5234-7.8711 7.8711s3.5234 7.8711 7.8711 7.8711z"/>
  <path d="m289.79 313.41c0 2.0859 0.83203 4.0898 2.3086 5.5664 1.4727 1.4766 3.4766 2.3047 5.5664 2.3047h15.742c4.3477 0 7.8711-3.5234 7.8711-7.8711s-3.5234-7.8711-7.8711-7.8711h-15.742c-4.3477 0-7.875 3.5234-7.875 7.8711z"/>
  <path d="m313.41 352.77h-15.742c-4.3477 0-7.875 3.5234-7.875 7.8711 0 4.3477 3.5273 7.875 7.875 7.875h15.742c4.3477 0 7.8711-3.5273 7.8711-7.875 0-4.3477-3.5234-7.8711-7.8711-7.8711z"/>
  <path d="m313.41 400h-15.742c-4.3477 0-7.875 3.5234-7.875 7.8711s3.5273 7.8711 7.875 7.8711h15.742c4.3477 0 7.8711-3.5234 7.8711-7.8711s-3.5234-7.8711-7.8711-7.8711z"/>
  <path d="m344.89 462.98h62.977c4.3477 0 7.8711-3.5273 7.8711-7.875 0-4.3477-3.5234-7.8711-7.8711-7.8711h-62.977c-4.3477 0-7.8711 3.5234-7.8711 7.8711 0 4.3477 3.5234 7.875 7.8711 7.875z"/>
  <path d="m344.89 510.21h47.23c4.3477 0 7.875-3.5234 7.875-7.8711 0-4.3477-3.5273-7.875-7.875-7.875h-47.23c-4.3477 0-7.8711 3.5273-7.8711 7.875 0 4.3477 3.5234 7.8711 7.8711 7.8711z"/>
  <path d="m344.89 557.44h47.23c4.3477 0 7.875-3.5234 7.875-7.8711s-3.5273-7.8711-7.875-7.8711h-47.23c-4.3477 0-7.8711 3.5234-7.8711 7.8711s3.5234 7.8711 7.8711 7.8711z"/>
  <path d="m313.41 447.23h-15.742c-4.3477 0-7.875 3.5234-7.875 7.8711 0 4.3477 3.5273 7.875 7.875 7.875h15.742c4.3477 0 7.8711-3.5273 7.8711-7.875 0-4.3477-3.5234-7.8711-7.8711-7.8711z"/>
  <path d="m313.41 494.46h-15.742c-4.3477 0-7.875 3.5273-7.875 7.875 0 4.3477 3.5273 7.8711 7.875 7.8711h15.742c4.3477 0 7.8711-3.5234 7.8711-7.8711 0-4.3477-3.5234-7.875-7.8711-7.875z"/>
  <path d="m313.41 541.7h-15.742c-4.3477 0-7.875 3.5234-7.875 7.8711s3.5273 7.8711 7.875 7.8711h15.742c4.3477 0 7.8711-3.5234 7.8711-7.8711s-3.5234-7.8711-7.8711-7.8711z"/>
 </g>
</svg>