<?xml version="1.0" encoding="UTF-8"?>
<!-- The Best Svg Icon site in the world: iconSvg.co, Visit us! https://iconsvg.co -->
<svg fill="#000000" width="800px" height="800px" version="1.1" viewBox="144 144 512 512" xmlns="http://www.w3.org/2000/svg">
 <g>
  <path d="m587.48 206.38h-374.98c-13.852 0-25.113 11.266-25.113 25.109v295.28c0 2.5391 2.0547 4.5938 4.5938 4.5938h136.52l-19.176 53.062h-27.668c-2.5391 0-4.5938 2.0547-4.5938 4.5938 0 2.5391 2.0547 4.5938 4.5938 4.5938h205.77 0.019531 30.879c2.5391 0 4.5938-2.0547 4.5938-4.5938 0-2.5391-2.0547-4.5938-4.5938-4.5938h-27.668l-19.176-53.062h136.52c2.5391 0 4.5938-2.0547 4.5938-4.5938v-295.28c-0.007813-13.844-11.273-25.109-25.121-25.109zm-106.59 378.05h-161.79l19.176-53.062h123.43zm122.52-62.254h-406.82v-290.68c0-8.7812 7.1445-15.926 15.926-15.926h374.98c8.7812 0 15.926 7.1445 15.926 15.926l-0.003906 290.68z"/>
  <path d="m587.01 229.07h-374.04c-2.5391 0-4.5938 2.0547-4.5938 4.5938v251.27c0 2.5391 2.0547 4.5938 4.5938 4.5938h374.04c2.5391 0 4.5938-2.0547 4.5938-4.5938v-251.27c0-2.5352-2.0547-4.5938-4.5938-4.5938zm-4.5938 251.27h-364.84v-242.07h364.84z"/>
  <path d="m455.05 500.77h-110.1c-2.5391 0-4.5938 2.0547-4.5938 4.5938s2.0547 4.5938 4.5938 4.5938h110.1c2.5391 0 4.5938-2.0547 4.5938-4.5938s-2.0625-4.5938-4.5938-4.5938z"/>
  <path d="m246.44 467.37c2.5391 0 4.5938-2.0547 4.5938-4.5938v-50.266c0-2.5391-2.0547-4.5938-4.5938-4.5938s-4.5938 2.0547-4.5938 4.5938v50.266c0 2.5391 2.0547 4.5938 4.5938 4.5938z"/>
  <path d="m271.87 407.92c-2.5391 0-4.5938 2.0547-4.5938 4.5938v50.266c0 2.5391 2.0547 4.5938 4.5938 4.5938 2.5391 0 4.5938-2.0547 4.5938-4.5938v-50.266c-0.003906-2.5391-2.0625-4.5938-4.5938-4.5938z"/>
  <path d="m297.3 364.28c-2.5391 0-4.5938 2.0547-4.5938 4.5938v93.906c0 2.5391 2.0547 4.5938 4.5938 4.5938 2.5391 0 4.5938-2.0547 4.5938-4.5938v-93.906c0.003907-2.5312-2.0586-4.5938-4.5938-4.5938z"/>
  <path d="m322.73 354.71c-2.5391 0-4.5938 2.0547-4.5938 4.5938v103.48c0 2.5391 2.0547 4.5938 4.5938 4.5938s4.5938-2.0547 4.5938-4.5938v-103.48c0-2.5391-2.0586-4.5938-4.5938-4.5938z"/>
  <path d="m348.17 467.37c2.5391 0 4.5938-2.0547 4.5938-4.5938v-81.773c0-2.5391-2.0547-4.5938-4.5938-4.5938-2.5391 0-4.5938 2.0547-4.5938 4.5938v81.773c-0.003907 2.5391 2.0547 4.5938 4.5938 4.5938z"/>
  <path d="m373.6 354.71c-2.5391 0-4.5938 2.0547-4.5938 4.5938v103.48c0 2.5391 2.0547 4.5938 4.5938 4.5938 2.5391 0 4.5938-2.0547 4.5938-4.5938v-103.48c0.003906-2.5391-2.0547-4.5938-4.5938-4.5938z"/>
  <path d="m399.03 467.37c2.5391 0 4.5938-2.0547 4.5938-4.5938v-81.773c0-2.5391-2.0547-4.5938-4.5938-4.5938s-4.5938 2.0547-4.5938 4.5938v81.773c0 2.5391 2.0547 4.5938 4.5938 4.5938z"/>
  <path d="m424.46 467.37c2.5391 0 4.5938-2.0547 4.5938-4.5938v-135.21c0-2.5391-2.0547-4.5938-4.5938-4.5938-2.5391 0-4.5938 2.0547-4.5938 4.5938v135.21c-0.003906 2.5391 2.0547 4.5938 4.5938 4.5938z"/>
  <path d="m449.89 467.37c2.5391 0 4.5938-2.0547 4.5938-4.5938v-57.949c0-2.5391-2.0547-4.5938-4.5938-4.5938-2.5391 0-4.5938 2.0547-4.5938 4.5938v57.949c0 2.5391 2.0625 4.5938 4.5938 4.5938z"/>
  <path d="m475.33 467.37c2.5391 0 4.5938-2.0547 4.5938-4.5938v-123.62c0-2.5391-2.0547-4.5938-4.5938-4.5938-2.5391 0-4.5938 2.0547-4.5938 4.5938v123.62c0 2.5391 2.0547 4.5938 4.5938 4.5938z"/>
  <path d="m500.77 467.37c2.5391 0 4.5938-2.0547 4.5938-4.5938v-175.59c0-2.5391-2.0547-4.5938-4.5938-4.5938s-4.5938 2.0547-4.5938 4.5938v175.59c0 2.5391 2.0547 4.5938 4.5938 4.5938z"/>
  <path d="m526.2 467.37c2.5391 0 4.5938-2.0547 4.5938-4.5938v-153.24c0-2.5391-2.0547-4.5938-4.5938-4.5938-2.5391 0-4.5938 2.0547-4.5938 4.5938v153.24c-0.003907 2.5391 2.0547 4.5938 4.5938 4.5938z"/>
  <path d="m551.63 467.37c2.5391 0 4.5938-2.0547 4.5938-4.5938v-103.48c0-2.5391-2.0547-4.5938-4.5938-4.5938-2.5391 0-4.5938 2.0547-4.5938 4.5938v103.48c0 2.5391 2.0625 4.5938 4.5938 4.5938z"/>
  <path d="m246.44 276.41h76.297c2.5391 0 4.5938-2.0547 4.5938-4.5938 0-2.5391-2.0547-4.5938-4.5938-4.5938l-76.297-0.003906c-2.5391 0-4.5938 2.0547-4.5938 4.5938 0 2.5352 2.0547 4.5977 4.5938 4.5977z"/>
  <path d="m246.44 301.22h50.863c2.5391 0 4.5938-2.0547 4.5938-4.5938 0-2.5391-2.0547-4.5938-4.5938-4.5938l-50.863-0.003906c-2.5391 0-4.5938 2.0547-4.5938 4.5938 0 2.543 2.0547 4.5977 4.5938 4.5977z"/>
  <path d="m360.54 291.78h4.7812c2.0312 0 3.6836 1.6523 3.6836 3.6875s-1.6523 3.6875-3.6836 3.6875h-13.059c-2.5391 0-4.5938 2.0547-4.5938 4.5938s2.0547 4.5938 4.5938 4.5938h6.0742v4.7109c0 2.5391 2.0547 4.5938 4.5938 4.5938 2.5391 0 4.5938-2.0547 4.5938-4.5938v-4.918c6.0508-1.0469 10.664-6.3281 10.664-12.672 0-7.0977-5.7734-12.879-12.871-12.879h-4.7812c-2.0352 0-3.6875-1.6523-3.6875-3.6875 0-2.0352 1.6523-3.6875 3.6875-3.6875h13.059c2.5391 0 4.5938-2.0547 4.5938-4.5938 0-2.5391-2.0547-4.5938-4.5938-4.5938h-6.0742v-4.7109c0-2.5391-2.0547-4.5938-4.5938-4.5938-2.5391 0-4.5938 2.0547-4.5938 4.5938v4.9141c-6.0508 1.0469-10.672 6.3281-10.672 12.676 0.003906 7.0977 5.7812 12.879 12.879 12.879z"/>
 </g>
</svg>