<?xml version="1.0" encoding="UTF-8"?>
<!-- The Best Svg Icon site in the world: iconSvg.co, Visit us! https://iconsvg.co -->
<svg width="800px" height="800px" version="1.1" viewBox="144 144 512 512" xmlns="http://www.w3.org/2000/svg">
 <defs>
  <clipPath id="b">
   <path d="m344 148.09h112v63.906h-112z"/>
  </clipPath>
  <clipPath id="a">
   <path d="m256 366h288v285.9h-288z"/>
  </clipPath>
 </defs>
 <path d="m447.95 330.2-15.977-7.9141-7.6445 33.684c0.78125 1.0625 1.2578 2.3711 1.2578 3.7891v27.277c0 0.042969 0.36719 0.089844 0.55469 0.13672l9.8086-13.617-5.5156-11.797c-0.95313-2.0352-0.76563-4.4219 0.48828-6.2852z"/>
 <g clip-path="url(#b)">
  <path d="m397.74 197.87c20.266-9.6797 38.137-18.215 57.699 7.4805 0.023438-0.56641 0.054688-1.1289 0.054688-1.7148-0.003906-30.625-24.922-55.539-55.555-55.539-30.609 0-55.512 24.914-55.512 55.543 0 2.9336 0.43359 5.6406 1.0742 8.2812 21.902 0.42188 37.961-7.2266 52.238-14.051z"/>
 </g>
 <path d="m381.28 322.94 6.9375 30.809h23.566l6.9609-30.785c-6.2734 1.6602-12.555 2.3359-18.82 2.3359-6.2344 0-12.453-0.71875-18.645-2.3594z"/>
 <path d="m413.86 295.72c-4.4766 1.0352-9.1289 1.5977-13.914 1.5977-4.7422 0-9.3555-0.55469-13.793-1.5742l-5.3242 13.523c12.789 4.2383 25.434 4.2305 38.359-0.023437z"/>
 <path d="m449.13 371.53c0.11328 0.24219 0.20703 0.49219 0.28906 0.74219l3.0547-5.2852c1.7695-3.0547 5.6797-4.1016 8.7383-2.3359l33.109 19.117c1.0898 0.62891 1.9141 1.5391 2.457 2.582l-6.1992-35.035-31.07-15.391-15.957 23.688z"/>
 <path d="m271.05 193.23c5.3672 0 9.7305-4.3516 9.7305-9.7031 0-5.3477-4.3633-9.7031-9.7305-9.7031-5.3516 0-9.7031 4.3516-9.7031 9.7031 0.003906 5.3516 4.3555 9.7031 9.7031 9.7031z"/>
 <path d="m496.66 392.5-13.617 23.613c3.2773 3.0156 6.7344 6.4727 9.7344 9.7422l9.9688-5.7656-5.293-29.918c-0.10938 0.79297-0.36719 1.5859-0.79297 2.3281z"/>
 <path d="m448.93 235.54c0-4.6172 1.1953-8.7305 2.5742-12.98-16.367-28.363-26.641-23.473-48.25-13.148-14.02 6.6992-31.043 14.828-53.891 15.309 0.9375 3.3945 1.6367 6.9492 1.6367 10.82 0 27.008 21.953 48.977 48.938 48.977 27.02 0.003907 48.992-21.969 48.992-48.977z"/>
 <path d="m364.07 373.55 9.7734 13.621c0.19922-0.046875 0.56641-0.097657 0.56641-0.14453v-27.273c0-0.40234 0.078125-0.79688 0.15234-1.1758 0.023438-0.12109 0.089844-0.23438 0.11719-0.35156 0.066406-0.26562 0.14062-0.51953 0.23828-0.76562 0.046875-0.12109 0.097656-0.24219 0.15234-0.36328 0.11328-0.24219 0.24219-0.47656 0.38281-0.70703 0.058594-0.09375 0.10938-0.19141 0.17578-0.28516 0.023438-0.035156 0.039063-0.070312 0.0625-0.10156l-7.6406-33.719-15.992 7.9219 17.02 25.266c1.2539 1.8633 1.4414 4.2422 0.49219 6.2773z"/>
 <path d="m400.01 429.27c-43.906 0-79.625 35.719-79.625 79.621 0 43.895 35.719 79.605 79.625 79.605 43.895 0 79.605-35.711 79.605-79.605 0-43.902-35.711-79.621-79.605-79.621zm17.395 112.66c-3.2031 2.2812-7.5625 3.9141-10.516 4.8945v12.43c0 3.5352-3.3516 6.3984-6.8867 6.3984s-6.8867-2.8633-6.8867-6.3984v-11.473c-4.9219-0.48438-11.113-2.1016-16.52-4.8594-3.1484-1.6094-4.3008-5.4609-2.6953-8.6055 1.6094-3.1445 5.5234-4.3945 8.668-2.7891 11.633 5.9375 21.895 3.7031 27.117-0.015625 2.9102-2.0703 4.4727-4.6953 4.1523-7.0234-0.51172-3.6797-5.3477-7.4883-12.953-10.195-20.758-7.3828-26.953-19.367-25.613-28.117 1.2305-8.0469 8.0078-13.938 17.848-15.938v-11.711c0-3.5352 3.3555-6.3984 6.8867-6.3984 3.5352 0 6.8867 2.8633 6.8867 6.3984v11.207c2.9531 0.41016 8.3672 1.3398 12.922 2.7773 3.3711 1.0664 5.0859 4.6602 4.0195 8.0312-1.0664 3.3672-4.7148 5.2344-8.0898 4.1719-5.5781-1.7656-10.816-2.5625-15.488-2.4023-0.019531 0-0.054687 0.003906-0.074218 0.003906-7.3516 0.28516-11.621 3.1328-12.031 5.8008-0.47266 3.0742 3.6719 9.3789 17.02 14.125 16.934 6.0234 20.785 15.422 21.488 20.488 0.98828 7.1289-2.3828 14.309-9.2539 19.199z"/>
 <g clip-path="url(#a)">
  <path d="m510.33 526.59c0.54688-3.0508 3.1992-5.5625 6.2969-5.5625l27.039 0.003906v-25.586h-27.035c-3.0977 0-5.7539-1.8672-6.2969-4.918-1.1367-6.3477-3.5625-15.148-5.7695-21.293-1.0469-2.9102 0.14062-6.1094 2.8164-7.6562l22.582-13.043-12.738-22.043-3.832 2.2227c-0.11328 0.078125-0.23828 0.14062-0.35547 0.21094l-18.391 10.641c-2.6953 1.5586-6.125 0.95312-8.1172-1.4453-4.125-4.9531-10.746-11.578-15.738-15.754-2.3828-1.9922-2.9883-5.4102-1.4375-8.1016l13.035-22.609-22.035-12.723-13.07 22.594c-1.5547 2.6875-4.8125 3.8711-7.7266 2.8086-3.4023-1.2422-7.8203-2.5664-12.203-3.6953-0.054687-0.011719-0.10547-0.015625-0.16016-0.03125-3.5781-0.92188-6.6406-1.5977-9.1016-2.0117-1.5625-0.26562-2.9023-1.082-3.8516-2.2266-0.16016-0.19141-0.28516-0.40234-0.42578-0.61328-0.054688-0.085937-0.10547-0.16016-0.15625-0.24609-0.57031-0.96094-0.86719-2.0781-0.86719-3.2617l0.003907-25.707h-25.586v25.703c0 0.38672-0.003906 0.76562-0.066406 1.1367-0.015625 0.089844-0.019531 0.17578-0.039063 0.26563-0.0625 0.27734-0.125 0.55078-0.21875 0.80859-0.023437 0.0625-0.0625 0.12109-0.085937 0.18359-0.11328 0.27734-0.23047 0.55469-0.38281 0.8125-0.019531 0.03125-0.046874 0.0625-0.066406 0.09375-0.16797 0.28125-0.35156 0.55078-0.5625 0.80078-0.03125 0.035156-0.070312 0.066406-0.10156 0.10156-0.20703 0.23828-0.42969 0.46875-0.67188 0.67578-0.058594 0.050781-0.12891 0.085938-0.1875 0.13672-0.22656 0.17969-0.45703 0.35547-0.70703 0.50391-0.10156 0.058594-0.21484 0.10156-0.32031 0.15625-0.22266 0.11328-0.44531 0.24219-0.68359 0.33203-0.14062 0.050782-0.29297 0.09375-0.43359 0.13672-0.21875 0.0625-0.43359 0.17188-0.66016 0.21484-0.078125 0.015625-0.17188 0.097656-0.25391 0.11328-0.58594 0.10938-1.1992 0.28906-1.8242 0.41406-2.0938 0.42969-4.4922 0.86719-7.1641 1.8516h-0.003906c-4.4062 0-8.8633 2.2773-12.305 3.5352-2.918 1.0625-6.1758-0.33984-7.7305-3.0273l-13.07-22.578-22.055 12.73 13.059 22.609c1.5547 2.6914 0.94922 6.1172-1.4336 8.1094-4.9766 4.1641-11.617 10.797-15.789 15.77-1.9961 2.3828-5.418 2.9805-8.1055 1.4258l-22.57-13.066-12.715 22.039 22.59 13.047c2.6875 1.5547 3.8711 4.7695 2.8047 7.6875-2.168 5.9297-4.6016 14.73-5.7891 21.277-0.55469 3.043-3.2031 4.9023-6.293 4.9023l-27.035 0.003907v25.586h27.035c3.1055 0 5.7656 2.5195 6.3008 5.5781 1.1094 6.332 3.543 15.59 5.7852 21.746 1.0625 2.918-0.12109 6.2188-2.8086 7.7734l-22.582 13.07 12.711 22.047 22.574-13.023c2.6875-1.5508 6.0977-0.94922 8.0938 1.4219 4.0938 4.8633 10.742 11.5 15.816 15.781 2.3711 2 2.9648 5.4062 1.4141 8.0938l-13.055 22.574 22.047 12.73 13.027-22.578c1.5547-2.6875 4.8086-3.8711 7.7266-2.8086 6.0195 2.1953 15.066 4.6172 21.535 5.7578 3.0547 0.53906 5.2539 3.1953 5.2539 6.3008l-0.003907 26.402h25.586v-26.406c0-3.1055 2.1953-5.7617 5.2539-6.3008 6.2734-1.1055 15.312-3.5312 21.539-5.7656 2.9102-1.0469 6.1523 0.14453 7.6992 2.8164l13.066 22.582 22.035-12.734-13.035-22.578c-1.5547-2.6914-0.94922-6.1133 1.4375-8.1055 4.9766-4.1602 11.598-10.781 15.746-15.746 1.9922-2.3828 5.4102-2.9961 8.1055-1.4375l22.582 13.031 12.738-22.051-22.578-13.059c-2.6758-1.5469-3.8633-4.9023-2.8203-7.8125 2.2109-6.1797 4.6406-15.41 5.7656-21.746zm-110.32 74.699c-50.961 0-92.418-41.449-92.418-92.402 0-50.961 41.461-92.418 92.418-92.418 50.949 0 92.402 41.457 92.402 92.418 0 50.953-41.453 92.402-92.402 92.402z"/>
 </g>
 <path d="m302.55 390.23-5.2852 29.879 9.9531 5.7578c3.0156-3.2734 6.4766-6.7344 9.7539-9.7461l-13.637-23.613c-0.41406-0.70703-0.67188-1.4844-0.78516-2.2773z"/>
 <path d="m305.68 383.77 33.137-19.117c3.0586-1.7656 6.9648-0.71875 8.7344 2.3398l3.0586 5.2852c0.082031-0.24609 0.17188-0.49219 0.28516-0.73438l5.5586-11.922-15.953-23.684-31.059 15.383-6.1875 34.984c0.55469-1.0469 1.3828-1.9336 2.4258-2.5352z"/>
 <path d="m265.34 265.42c-2.4961 2.5-2.4961 6.5508 0.003906 9.0469l11.582 11.574-11.582 11.574c-2.5 2.4961-2.5 6.5469-0.003906 9.0469 2.4961 2.5 6.5469 2.5 9.0469 0.003907l11.594-11.582 11.594 11.582c1.25 1.2461 2.8867 1.8711 4.5234 1.8711s3.2773-0.625 4.5273-1.875c2.4961-2.5 2.4961-6.5508-0.003906-9.0469l-11.582-11.574 11.582-11.574c2.5-2.4961 2.5-6.5469 0.003906-9.0469s-6.5469-2.5-9.0469-0.003906l-11.598 11.582-11.594-11.582c-2.5-2.4961-6.5508-2.4961-9.0469 0.003906z"/>
 <path d="m502.89 255.35h9.2852v9.5195c0 3.5312 2.8633 6.3984 6.3945 6.3984 3.5352 0 6.3945-2.8633 6.3945-6.3984l0.003906-9.5195h10.121c3.5312 0 6.3984-2.8633 6.3984-6.3945s-2.8633-6.3945-6.3984-6.3945l-10.121-0.003906v-9.8906c0-3.5312-2.8633-6.3984-6.3945-6.3984-3.5352 0-6.3945 2.8633-6.3945 6.3984l-0.003907 9.8906h-9.2852c-3.5352 0-6.3984 2.8633-6.3984 6.3945-0.003907 3.5352 2.8633 6.3984 6.3984 6.3984z"/>
</svg>