<?xml version="1.0" encoding="UTF-8"?>
<!-- The Best Svg Icon site in the world: iconSvg.co, Visit us! https://iconsvg.co -->
<svg fill="#000000" width="800px" height="800px" version="1.1" viewBox="144 144 512 512" xmlns="http://www.w3.org/2000/svg">
 <g>
  <path d="m407.87 415.74c0-2.0859-0.82812-4.0898-2.3047-5.5664-1.4766-1.4766-3.4805-2.3047-5.5664-2.3047h-15.746c-8.4375 0-16.234-4.5-20.453-11.809s-4.2188-16.309 0-23.617c4.2188-7.3047 12.016-11.809 20.453-11.809v-7.1641 0.003906c-14.789 2.4844-27.512 11.855-34.277 25.238-6.7656 13.383-6.7656 29.184 0 42.566 6.7656 13.383 19.488 22.754 34.277 25.242v-7.1641c-6.2617 0-12.27-2.4883-16.699-6.918-4.4297-4.4297-6.918-10.434-6.918-16.699 0-4.3477 3.5273-7.8711 7.875-7.8711 4.3477 0 7.8711 3.5234 7.8711 7.8711 0 2.0898 0.82813 4.0898 2.3047 5.5664 1.4766 1.4766 3.4805 2.3047 5.5664 2.3047h15.746c2.0859 0 4.0898-0.82812 5.5664-2.3047 1.4766-1.4766 2.3047-3.4766 2.3047-5.5664z"/>
  <path d="m392.12 313.41c-22.965 0-44.988 9.125-61.227 25.363-16.242 16.238-25.363 38.262-25.363 61.23 0 22.965 9.1211 44.988 25.363 61.227 16.238 16.242 38.262 25.363 61.227 25.363 22.969 0 44.992-9.1211 61.23-25.363 16.238-16.238 25.363-38.262 25.363-61.227-0.027344-22.957-9.1602-44.969-25.391-61.203-16.234-16.23-38.246-25.363-61.203-25.391zm0 149.57c-16.699 0-32.719-6.6367-44.531-18.445-11.809-11.812-18.445-27.832-18.445-44.531 0-16.703 6.6367-32.723 18.445-44.531 11.812-11.812 27.832-18.445 44.531-18.445 16.703 0 32.723 6.6328 44.531 18.445 11.812 11.809 18.445 27.828 18.445 44.531-0.019531 16.695-6.6602 32.703-18.465 44.508-11.805 11.809-27.812 18.449-44.512 18.469z"/>
  <path d="m400 353.48v7.1602c6.2617 0 12.27 2.4883 16.699 6.918 4.4258 4.4297 6.9141 10.438 6.9141 16.699 0 4.3477-3.5234 7.8711-7.8711 7.8711-4.3477 0-7.8711-3.5234-7.8711-7.8711 0-2.0859-0.82812-4.0898-2.3047-5.5664-1.4766-1.4766-3.4805-2.3047-5.5664-2.3047h-15.746c-4.3477 0-7.8711 3.5234-7.8711 7.8711s3.5234 7.8711 7.8711 7.8711h15.746c8.4375 0 16.23 4.5039 20.449 11.809 4.2188 7.3086 4.2188 16.309 0 23.617-4.2188 7.3086-12.012 11.809-20.449 11.809v7.1641c14.785-2.4883 27.512-11.859 34.277-25.242s6.7656-29.184 0-42.566c-6.7656-13.383-19.492-22.754-34.277-25.238z"/>
  <path d="m612.54 407.87c4.3477 0 7.8711-3.5234 7.8711-7.8711s-3.5234-7.875-7.8711-7.875c-1.4023-0.007812-2.7812 0.36719-3.9844 1.0859-2.8555 1.7109-6.4844 1.4375-9.0508-0.68359-34.598-28.574-139.3-102.74-207.38-102.74-68.562 0-174.24 75.234-209.17 104.22-1.7891 1.4727-2.8281 3.6719-2.8281 5.9961 0 2.3203 1.0391 4.5195 2.8281 5.9922 34.93 28.977 140.61 104.21 209.17 104.21 68.094 0 172.78-74.164 207.38-102.74h0.003906c2.5703-2.1211 6.1992-2.3945 9.0586-0.67578 1.2031 0.71094 2.5781 1.0859 3.9766 1.0781zm-220.42 94.465c-27.141 0-53.168-10.781-72.359-29.977-19.195-19.191-29.977-45.219-29.977-72.359 0-27.145 10.781-53.172 29.977-72.363 19.191-19.191 45.219-29.973 72.359-29.973 27.145 0 53.172 10.781 72.363 29.973 19.191 19.191 29.973 45.219 29.973 72.363-0.03125 27.129-10.82 53.141-30.008 72.328-19.184 19.184-45.195 29.977-72.328 30.008z"/>
  <path d="m628.29 321.28c-4.3477 0-7.875-3.5234-7.875-7.8711v-86.594h-86.59c-4.3477 0-7.875-3.5234-7.875-7.8711s3.5273-7.8711 7.875-7.8711h94.465c2.0859 0 4.0898 0.82813 5.5664 2.3047 1.4727 1.4766 2.3047 3.4805 2.3047 5.5664v94.465c0 2.0859-0.83203 4.0898-2.3047 5.5664-1.4766 1.4766-3.4805 2.3047-5.5664 2.3047z"/>
  <path d="m171.71 321.28c-4.3477 0-7.875-3.5234-7.875-7.8711v-94.465c0-4.3477 3.5273-7.8711 7.875-7.8711h94.465c4.3477 0 7.8711 3.5234 7.8711 7.8711s-3.5234 7.8711-7.8711 7.8711h-86.594v86.594c0 2.0859-0.82812 4.0898-2.3047 5.5664-1.4766 1.4766-3.4805 2.3047-5.5664 2.3047z"/>
  <path d="m628.29 588.93h-94.465c-4.3477 0-7.875-3.5234-7.875-7.8711 0-4.3477 3.5273-7.8711 7.875-7.8711h86.59v-86.594c0-4.3477 3.5273-7.8711 7.875-7.8711 4.3477 0 7.8711 3.5234 7.8711 7.8711v94.465c0 2.0898-0.83203 4.0898-2.3047 5.5664-1.4766 1.4766-3.4805 2.3047-5.5664 2.3047z"/>
  <path d="m266.18 588.93h-94.465c-4.3477 0-7.875-3.5234-7.875-7.8711v-94.465c0-4.3477 3.5273-7.8711 7.875-7.8711 4.3477 0 7.8711 3.5234 7.8711 7.8711v86.594h86.594c4.3477 0 7.8711 3.5234 7.8711 7.8711 0 4.3477-3.5234 7.8711-7.8711 7.8711z"/>
 </g>
</svg>