<?xml version="1.0" encoding="UTF-8"?>
<!-- The Best Svg Icon site in the world: iconSvg.co, Visit us! https://iconsvg.co -->
<svg fill="#000000" width="800px" height="800px" version="1.1" viewBox="144 144 512 512" xmlns="http://www.w3.org/2000/svg">
 <g>
  <path d="m400 162.5c-62.988 0-123.4 25.023-167.94 69.562s-69.562 104.95-69.562 167.94 25.023 123.39 69.562 167.93c44.566 44.406 104.93 69.312 167.84 69.254 62.914-0.058594 123.23-25.078 167.72-69.562s69.504-104.8 69.562-167.72c0.058594-62.91-24.848-123.28-69.254-167.84-22-22.125-48.172-39.664-77-51.602-28.824-11.941-59.734-18.047-90.934-17.961zm166.34 84.977c-14.023 15.418-30.133 28.801-47.863 39.754-17.832-46.906-47.297-85.148-86.137-110.62 48.227 6.8672 92.898 29.266 127.25 63.805 2.3086 2.3125 4.5586 4.668 6.7539 7.0664zm-43.832 253.93c9.6289-29.105 14.969-61.238 15.52-95.504h87.582c-1.1641 50.367-19.289 98.867-51.441 137.66-15.137-16.43-32.531-30.621-51.66-42.152zm-296.65 42.176c-32.168-38.789-50.301-87.301-51.469-137.68h87.586c0.55078 34.352 5.9141 66.562 15.59 95.727h0.003906c-19.117 11.492-36.523 25.617-51.711 41.953zm51.711-245.21c-9.6758 29.164-15.043 61.371-15.594 95.727h-87.586c1.168-50.379 19.301-98.891 51.469-137.68 15.188 16.336 32.594 30.461 51.711 41.953zm216.49 14.844c6.1094-2.6289 12.098-5.5078 17.965-8.6367l0.003906 0.003906c7.0664 22.312 11.5 45.379 13.211 68.723-4.8047-22.469-15.574-43.223-31.176-60.086zm-94.059 203.03c-30.832 0-60.398-12.246-82.195-34.047-21.801-21.797-34.047-51.363-34.047-82.191 0-30.832 12.246-60.398 34.047-82.195 21.797-21.801 51.363-34.047 82.195-34.047 30.828 0 60.395 12.246 82.191 34.047 21.801 21.797 34.047 51.363 34.047 82.195-0.035156 30.816-12.293 60.363-34.086 82.152-21.789 21.793-51.336 34.051-82.152 34.086zm84.902-212c-21.863-19.465-49.758-30.812-79-32.141v-97.07c47.172 23.445 82.414 65.02 102.2 118.23-7.5156 4.1055-15.262 7.7695-23.199 10.98zm-90.809-32.141c-29.148 1.3242-56.961 12.605-78.797 31.965-7.9766-3.2266-15.766-6.9102-23.32-11.031 19.805-53.102 55.016-94.59 102.12-118zm-87.98 40.934c-15.695 16.895-26.531 37.723-31.355 60.273 1.7188-23.426 6.1758-46.57 13.285-68.957 5.8945 3.1484 11.918 6.043 18.07 8.6797zm-31.355 113.66c4.8203 22.555 15.656 43.387 31.355 60.281-6.1445 2.6445-12.168 5.5391-18.07 8.6875-7.1094-22.391-11.57-45.539-13.285-68.969zm40.539 69.246v0.003906c21.836 19.355 49.648 30.637 78.797 31.965v97.082c-47.105-23.418-82.316-64.91-102.12-118.02 7.5547-4.1211 15.34-7.8047 23.32-11.035zm90.605 31.969c29.242-1.332 57.137-12.68 79-32.148 7.9414 3.2148 15.688 6.8828 23.203 10.984-19.789 53.215-55.031 94.793-102.2 118.25zm88.16-41.125c15.602-16.863 26.371-37.621 31.176-60.09-1.7109 23.348-6.1445 46.414-13.207 68.73-5.8594-3.1367-11.848-6.0195-17.969-8.6406zm43.961-92.688c-0.55078-34.266-5.8906-66.398-15.52-95.504 19.133-11.527 36.527-25.723 51.664-42.152 32.152 38.789 50.277 87.289 51.441 137.66zm-170.37-217.49c-38.777 25.441-68.211 63.602-86.055 110.41-17.719-10.922-33.844-24.234-47.922-39.562 2.1914-2.3867 4.4375-4.7344 6.7344-7.0469 34.348-34.535 79.02-56.938 127.24-63.805zm-133.98 375.93c14.078-15.328 30.203-28.637 47.922-39.555 17.836 46.805 47.262 84.965 86.031 110.41-48.215-6.8711-92.879-29.27-127.22-63.805-2.3008-2.3086-4.543-4.6562-6.7305-7.0508zm198.69 70.848c38.828-25.484 68.289-63.723 86.117-110.63v0.003907c17.727 10.957 33.836 24.34 47.859 39.758-2.1992 2.3906-4.4492 4.7461-6.7539 7.0625-34.344 34.535-79.004 56.934-127.22 63.809z"/>
  <path d="m400 346.68c6.8203 0.007812 13.359 2.7188 18.184 7.543 4.8203 4.8242 7.5352 11.363 7.543 18.184 0 3.2617 2.6445 5.9023 5.9023 5.9023 3.2617 0 5.9062-2.6406 5.9062-5.9023-0.011718-8.9297-3.1992-17.562-8.9961-24.355-5.7969-6.7891-13.82-11.297-22.637-12.711v-11.113c0-3.2617-2.6445-5.9023-5.9023-5.9023-3.2617 0-5.9062 2.6406-5.9062 5.9023v11.113c-12.551 1.9961-23.234 10.207-28.398 21.82-5.1641 11.609-4.0977 25.047 2.8242 35.699 6.9258 10.656 18.77 17.086 31.48 17.082 6.8203 0 13.367 2.7109 18.191 7.5352 4.8242 4.8242 7.5352 11.371 7.5352 18.195 0 6.8203-2.707 13.367-7.5352 18.191-4.8242 4.8242-11.367 7.5352-18.191 7.5352s-13.367-2.7109-18.191-7.5352c-4.8281-4.8242-7.5391-11.367-7.5391-18.191 0-3.2617-2.6406-5.9062-5.9023-5.9062-3.2617 0-5.9062 2.6445-5.9062 5.9062 0.015624 8.7539 3.082 17.23 8.6758 23.969 5.5977 6.7344 13.367 11.305 21.973 12.922v14.023c0 3.2617 2.6445 5.9062 5.9062 5.9062 3.2578 0 5.9023-2.6445 5.9023-5.9062v-13.711c12.715-1.6836 23.688-9.7383 29.102-21.359 5.418-11.625 4.5234-25.207-2.3711-36.023-6.8906-10.812-18.828-17.359-31.648-17.359-9.1914 0-17.688-4.9023-22.281-12.863-4.5977-7.9609-4.5977-17.766 0-25.727 4.5938-7.9609 13.09-12.863 22.281-12.863z"/>
 </g>
</svg>