<?xml version="1.0" encoding="UTF-8"?>
<!-- The Best Svg Icon site in the world: iconSvg.co, Visit us! https://iconsvg.co -->
<svg fill="#000000" width="800px" height="800px" version="1.1" viewBox="144 144 512 512" xmlns="http://www.w3.org/2000/svg">
 <g>
  <path d="m400 525.95c-33.406 0-65.441-13.27-89.062-36.891-23.621-23.617-36.891-55.656-36.891-89.059 0-33.406 13.27-65.441 36.891-89.062s55.656-36.891 89.062-36.891c33.402 0 65.441 13.27 89.059 36.891 23.621 23.621 36.891 55.656 36.891 89.062-0.035157 33.391-13.32 65.406-36.93 89.02-23.613 23.609-55.629 36.895-89.02 36.93zm0-220.42v0.003906c-25.055 0-49.082 9.9531-66.797 27.668s-27.668 41.742-27.668 66.797c0 25.051 9.9531 49.078 27.668 66.793 17.715 17.719 41.742 27.668 66.797 27.668 25.051 0 49.078-9.9492 66.793-27.668 17.719-17.715 27.668-41.742 27.668-66.793-0.027344-25.047-9.9883-49.059-27.695-66.766-17.711-17.711-41.723-27.672-66.766-27.699z"/>
  <path d="m407.87 462.98h-39.359c-5.625 0-10.824-3.0039-13.637-7.875-2.8125-4.8711-2.8125-10.871 0-15.742s8.0117-7.8711 13.637-7.8711h39.359c4.3477 0 7.8711-3.5273 7.8711-7.875 0-4.3477-3.5234-7.8711-7.8711-7.8711h-15.746c-14.059 0-27.055-7.5-34.086-19.68s-7.0312-27.184 0-39.359c7.0312-12.18 20.027-19.68 34.086-19.68h39.363c5.625 0 10.82 3 13.633 7.8711 2.8125 4.8711 2.8125 10.871 0 15.742-2.8125 4.8711-8.0078 7.875-13.633 7.875h-39.363c-4.3477 0-7.8711 3.5234-7.8711 7.8711 0 4.3477 3.5234 7.8711 7.8711 7.8711h15.746c14.062 0 27.055 7.5039 34.086 19.68 7.0312 12.18 7.0312 27.184 0 39.359-7.0312 12.18-20.023 19.684-34.086 19.684z"/>
  <path d="m400 368.51c-4.1758 0-8.1797-1.6602-11.133-4.6133-2.9531-2.9531-4.6133-6.957-4.6133-11.133v-15.742c0-5.625 3-10.824 7.8711-13.637s10.875-2.8125 15.746 0 7.8711 8.0117 7.8711 13.637v15.742c0 4.1758-1.6602 8.1797-4.6094 11.133-2.9531 2.9531-6.957 4.6133-11.133 4.6133z"/>
  <path d="m400 478.72c-4.1758 0-8.1797-1.6602-11.133-4.6094-2.9531-2.9531-4.6133-6.9609-4.6133-11.133v-15.746c0-5.625 3-10.82 7.8711-13.633s10.875-2.8125 15.746 0 7.8711 8.0078 7.8711 13.633v15.746c0 4.1719-1.6602 8.1797-4.6094 11.133-2.9531 2.9492-6.957 4.6094-11.133 4.6094z"/>
  <path d="m400 604.67c-54.285 0-106.34-21.562-144.73-59.949-38.383-38.383-59.949-90.441-59.949-144.72 0-54.285 21.566-106.34 59.949-144.73 38.383-38.383 90.441-59.949 144.73-59.949 54.281 0 106.34 21.566 144.72 59.949 38.387 38.383 59.949 90.441 59.949 144.73-0.0625 54.262-21.645 106.29-60.016 144.66s-90.395 59.953-144.66 60.016zm0-377.86c-45.934 0-89.984 18.246-122.46 50.727-32.48 32.477-50.727 76.527-50.727 122.46 0 45.93 18.246 89.98 50.727 122.46 32.477 32.48 76.527 50.727 122.46 50.727 45.93 0 89.98-18.246 122.46-50.727 32.48-32.477 50.727-76.527 50.727-122.46-0.050782-45.918-18.316-89.938-50.781-122.4-32.469-32.469-76.488-50.73-122.4-50.785z"/>
  <path d="m400 242.56c-4.1758 0-8.1797-1.6602-11.133-4.6133-2.9531-2.9531-4.6133-6.957-4.6133-11.133v-47.23c0-5.625 3-10.824 7.8711-13.637s10.875-2.8125 15.746 0 7.8711 8.0117 7.8711 13.637v47.23c0 4.1758-1.6602 8.1797-4.6094 11.133-2.9531 2.9531-6.957 4.6133-11.133 4.6133z"/>
  <path d="m226.81 415.74h-47.23c-5.625 0-10.824-3-13.637-7.8711s-2.8125-10.875 0-15.746 8.0117-7.8711 13.637-7.8711h47.23c5.625 0 10.824 3 13.637 7.8711s2.8125 10.875 0 15.746-8.0117 7.8711-13.637 7.8711z"/>
  <path d="m400 636.16c-4.1758 0-8.1797-1.6602-11.133-4.6133-2.9531-2.9531-4.6133-6.957-4.6133-11.133v-47.23c0-5.625 3-10.824 7.8711-13.637s10.875-2.8125 15.746 0 7.8711 8.0117 7.8711 13.637v47.23c0 4.1758-1.6602 8.1797-4.6094 11.133-2.9531 2.9531-6.957 4.6133-11.133 4.6133z"/>
  <path d="m620.41 415.74h-47.23c-5.625 0-10.824-3-13.637-7.8711s-2.8125-10.875 0-15.746 8.0117-7.8711 13.637-7.8711h47.23c5.625 0 10.824 3 13.637 7.8711s2.8125 10.875 0 15.746-8.0117 7.8711-13.637 7.8711z"/>
 </g>
</svg>