<?xml version="1.0" encoding="UTF-8"?>
<!-- The Best Svg Icon site in the world: iconSvg.co, Visit us! https://iconsvg.co -->
<svg fill="#000000" width="800px" height="800px" version="1.1" viewBox="144 144 512 512" xmlns="http://www.w3.org/2000/svg">
 <g>
  <path d="m538.38 182.09h-69.129v-5.4883c0-7.668-6.2383-13.906-13.906-13.906h-110.71c-7.6641 0-13.906 6.2383-13.906 13.906v5.4883h-69.133c-1.8945 0-3.4297 1.5352-3.4297 3.4375v362.01c0 1.8984 1.5352 3.4375 3.4297 3.4375h48.703c0.84766 22.695 10.066 43.906 26.207 60.055 16.957 16.949 39.492 26.293 63.469 26.289h0.015626c48.344 0 87.875-38.426 89.691-86.344h48.684c1.8945 0 3.4375-1.5352 3.4375-3.4375v-362.01c0.011718-1.9023-1.5312-3.4375-3.4258-3.4375zm-193.74-12.531h110.71c3.8828 0 7.0312 3.1523 7.0312 7.0391v17.855c0 3.8789-3.1602 7.0312-7.0391 7.0312h-110.7c-3.8789 0-7.0312-3.1523-7.0312-7.0312v-8.8867c0-0.015625 0.003906-0.03125 0.003906-0.046875 0-0.019531-0.003906-0.03125-0.003906-0.050781v-8.8789c0-3.8711 3.1602-7.0312 7.0352-7.0312zm55.363 460.89h-0.015625c-22.141 0-42.953-8.625-58.613-24.273-15.652-15.648-24.273-36.461-24.277-58.598v-0.035156-0.023437c0.003906-22.137 8.625-42.934 24.277-58.594 15.66-15.652 36.477-24.273 58.617-24.277 45.699 0.003906 82.883 37.176 82.902 82.871 0 0.003906-0.003906 0.015625-0.003906 0.023437 0 0.015625 0.003906 0.023438 0.003906 0.035156-0.015625 45.695-37.191 82.871-82.891 82.871zm134.95-86.34h-45.254c-1.8203-47.914-41.352-86.332-89.703-86.336-23.977 0-46.523 9.3398-63.48 26.301-16.141 16.141-25.355 37.348-26.207 60.039h-45.266v-355.15h65.695v5.4961c0 7.668 6.2422 13.906 13.906 13.906h110.7c7.6641 0 13.91-6.2383 13.91-13.906v-5.4961h65.695z"/>
  <path d="m360.81 279.05c-1.8945 0-3.4375 1.5352-3.4375 3.4297 0 1.8984 1.5352 3.4375 3.4375 3.4375h138.7c1.8984 0 3.4414-1.5352 3.4414-3.4375 0-1.8945-1.543-3.4297-3.4414-3.4297z"/>
  <path d="m499.51 341.51h-138.7c-1.8945 0-3.4375 1.5352-3.4375 3.4375 0 1.8984 1.5352 3.4375 3.4375 3.4375h138.7c1.8984 0 3.4414-1.5352 3.4414-3.4375-0.003907-1.9023-1.543-3.4375-3.4414-3.4375z"/>
  <path d="m317.64 386.81c-11.355 0-20.59 9.2344-20.59 20.59 0 11.352 9.2344 20.59 20.59 20.59s20.59-9.2383 20.59-20.59c0-11.348-9.2383-20.59-20.59-20.59zm0 34.32c-7.5664 0-13.723-6.1602-13.723-13.73 0-7.5664 6.1562-13.723 13.723-13.723s13.723 6.1562 13.723 13.723c0 7.5703-6.1562 13.73-13.723 13.73z"/>
  <path d="m499.51 403.97h-138.7c-1.8945 0-3.4375 1.543-3.4375 3.4414 0 1.8945 1.5352 3.4375 3.4375 3.4375h138.7c1.8984 0 3.4414-1.543 3.4414-3.4375-0.003907-1.8984-1.543-3.4414-3.4414-3.4414z"/>
  <path d="m343.62 257.16-37.629 37.625-14.324-14.328c-1.3398-1.3398-3.5156-1.3398-4.8555 0-1.3398 1.3398-1.3398 3.5156 0 4.8555l16.75 16.758c0.64453 0.64453 1.5234 1.0078 2.4297 1.0078 0.91016 0 1.7852-0.36328 2.4297-1.0078l40.055-40.055c1.3438-1.3398 1.3438-3.5156 0-4.8555-1.3398-1.3398-3.5195-1.3398-4.8555 0z"/>
  <path d="m343.62 322.49-37.629 37.625-14.324-14.324c-1.3398-1.3398-3.5156-1.3398-4.8555 0-1.3398 1.3438-1.3398 3.5156 0 4.8555l16.758 16.75c0.67188 0.67188 1.5508 1.0078 2.4219 1.0078 0.88281 0 1.7578-0.33594 2.4297-1.0078l40.055-40.055c1.3438-1.3438 1.3438-3.5156 0-4.8555-1.3398-1.332-3.5195-1.332-4.8555 0.003906z"/>
  <path d="m401.78 544.1h-3.5703c-11.098 0-20.133-9.0273-20.133-20.129 0-11.098 9.0352-20.129 20.133-20.129h23.562c1.8945 0 3.4297-1.543 3.4297-3.4375 0-1.8984-1.5352-3.4414-3.4297-3.4414h-16.559v-13.438c0-1.8984-1.5352-3.4375-3.4297-3.4375s-3.4375 1.5352-3.4375 3.4375v13.438h-0.14062c-14.887 0-27 12.113-27 27 0 14.883 12.117 26.988 27.004 26.992l3.5703-0.003906c11.098 0 20.129 9.0352 20.133 20.133 0 11.098-9.0234 20.121-20.121 20.133-0.003906 0-0.011718-0.003906-0.011718-0.003906-0.003906 0-0.015625 0.003906-0.019532 0.003906h-23.543c-1.8945 0-3.4375 1.5352-3.4375 3.4297 0 1.9062 1.5352 3.4414 3.4375 3.4414h20.129v13.445c0 1.8945 1.5352 3.4297 3.4375 3.4297 1.8945 0 3.4297-1.5352 3.4297-3.4297v-13.68c13.281-1.6875 23.566-13.047 23.566-26.766 0-14.875-12.113-26.988-27-26.988z"/>
 </g>
</svg>