<?xml version="1.0" encoding="UTF-8"?>
<!-- The Best Svg Icon site in the world: iconSvg.co, Visit us! https://iconsvg.co -->
<svg fill="#000000" width="800px" height="800px" version="1.1" viewBox="144 144 512 512" xmlns="http://www.w3.org/2000/svg">
 <g>
  <path d="m538.25 358.67h-35.746l24.902-47.18c0.73047-1.3477 0.87891-2.9336 0.41016-4.3906-0.46484-1.4805-1.5078-2.7109-2.8906-3.418l-126.91-66.664c-1.3906-0.72266-3.0078-0.86328-4.5-0.39453-1.4766 0.38281-2.7305 1.3516-3.4727 2.6836l-62.836 119.36h-59.703c-21.574 0-38.719 17.984-38.719 39.555v194.48c0 21.582 17.145 39.52 38.719 39.52h270.75c21.574 0 38.867-17.938 38.867-39.512v-194.48c0-21.57-17.297-39.555-38.867-39.555zm-140.5-108.64 116.46 61.086-25.043 47.555h-11.09l5.2422-9.7617c1.4688-2.7578 0.47656-6.1836-2.2383-7.7305-9.8945-5.8047-12.484-18.402-6.2969-30.715 1.4453-2.8672 0.31641-6.3633-2.5312-7.8516l-43.457-22.82h0.003906c-2.8516-1.4961-6.3789-0.42969-7.9219 2.3945-6.6406 12.102-18.195 16.918-28.762 11.984l-0.003906-0.003906c-2.7969-1.4141-6.2109-0.35938-7.7227 2.3867l-32.754 62.117h-11.086zm72.734 97.926-5.7461 10.715h-99.766l27.469-52.055c13.148 3.5742 26.754-1.6562 35.672-13.934l33.84 17.727c-4.9844 14.277-1.6719 28.754 8.5312 37.547zm67.77 272.46h-270.75c-15.066 0-26.91-12.641-26.91-27.703v-194.48c0-15.055 11.844-27.75 26.91-27.75h270.75c15.062 0 27.059 12.695 27.059 27.75l0.003906 30.309h-51.621c-10.355 0.027344-20.273 4.1719-27.57 11.52-7.2969 7.3477-11.379 17.293-11.34 27.648v55.535c-0.035156 10.348 4.0469 20.289 11.344 27.629 7.3008 7.3359 17.219 11.473 27.566 11.492h51.621v30.352c0 15.062-12.008 27.703-27.062 27.703zm27.062-180.07v110.21h-51.621c-7.2188-0.015625-14.137-2.9023-19.223-8.0312-5.0859-5.125-7.918-12.062-7.8789-19.281v-55.535c-0.042969-7.2266 2.793-14.168 7.875-19.301 5.0859-5.1328 12.004-8.0352 19.227-8.0586z"/>
  <path d="m526.93 520.84c3.2617 0 5.9062-2.6445 5.9062-5.9062v-38.922c0-3.2578-2.6445-5.9023-5.9062-5.9023-3.2578 0-5.9023 2.6445-5.9023 5.9023v38.922c0 3.2617 2.6445 5.9062 5.9023 5.9062z"/>
  <path d="m289.26 301.43c17.672 0 34.621-7.0234 47.117-19.52 12.496-12.496 19.516-29.445 19.516-47.117s-7.0195-34.621-19.516-47.121c-12.496-12.496-29.445-19.516-47.117-19.516-17.676 0-34.625 7.0195-47.121 19.516-12.496 12.5-19.516 29.449-19.516 47.121 0.019531 17.664 7.0469 34.602 19.539 47.094 12.492 12.492 29.43 19.52 47.098 19.543zm0-121.46v-0.003906c14.539 0 28.484 5.7773 38.766 16.059 10.285 10.285 16.059 24.23 16.059 38.77 0 14.543-5.7734 28.488-16.059 38.77-10.281 10.281-24.227 16.059-38.77 16.059-14.539 0-28.484-5.7773-38.77-16.059-10.281-10.281-16.055-24.23-16.055-38.77 0.015625-14.535 5.7969-28.473 16.074-38.75 10.281-10.281 24.215-16.062 38.754-16.078z"/>
  <path d="m289.81 262.33c-0.33203-0.0625-0.66797-0.09375-1.0078-0.09375-0.23438 0-0.46875 0.015625-0.70313 0.046875-4.9375-0.58984-8.6562-4.7773-8.6641-9.75 0-3.2617-2.6445-5.9062-5.9062-5.9062-3.2578 0-5.9023 2.6445-5.9023 5.9062 0.003906 4.625 1.4922 9.1289 4.2383 12.848 2.75 3.7188 6.6172 6.4648 11.035 7.8281v3.7891c0 3.2578 2.6445 5.9023 5.9023 5.9023 3.2617 0 5.9062-2.6445 5.9062-5.9023v-3.5312c6.8477-1.7812 12.391-6.8008 14.844-13.438 2.4492-6.6406 1.5-14.055-2.543-19.863-4.0469-5.8047-10.676-9.2656-17.75-9.2656-4.9102 0.003906-9.0664-3.6211-9.7344-8.4805-0.66797-4.8633 2.3594-9.4727 7.0859-10.793 1.5234 0.61719 3.2383 0.5625 4.7227-0.14844 4.5195 0.98047 7.7422 4.9766 7.75 9.5977 0 3.2617 2.6445 5.9062 5.9062 5.9062 3.2578 0 5.9023-2.6445 5.9023-5.9062-0.007812-4.7852-1.5977-9.4336-4.5273-13.223-2.9258-3.7852-7.0273-6.4961-11.656-7.707v-2.8555c0-3.2617-2.6445-5.9023-5.9062-5.9023-3.2578 0-5.9023 2.6406-5.9023 5.9023v3.1094c-6.6602 2.043-11.93 7.1719-14.152 13.773-2.2227 6.6055-1.1328 13.875 2.9336 19.531s10.609 9.0117 17.578 9.0078c5.3164-0.007813 9.6758 4.2227 9.8281 9.5391 0.14844 5.3203-3.9648 9.7891-9.2773 10.082z"/>
 </g>
</svg>