<?xml version="1.0" encoding="UTF-8"?>
<!-- The Best Svg Icon site in the world: iconSvg.co, Visit us! https://iconsvg.co -->
<svg fill="#000000" width="800px" height="800px" version="1.1" viewBox="144 144 512 512" xmlns="http://www.w3.org/2000/svg">
 <path d="m527.19 169.09h-254.38c-14.465 0-26.238 11.766-26.238 26.238v409.34c0 14.473 11.777 26.238 26.238 26.238h254.38c14.465 0 26.238-11.766 26.238-26.238v-409.34c0-14.473-11.766-26.238-26.242-26.238zm-215.38 86.992h88.375c5.793 0 10.496 4.6914 10.496 10.496 0 5.8047-4.6914 10.496-10.496 10.496h-88.375c-5.793 0-10.496-4.6914-10.496-10.496 0-5.8047 4.6914-10.496 10.496-10.496zm0 83.969h88.375c5.793 0 10.496 4.6914 10.496 10.496 0 5.8047-4.6914 10.496-10.496 10.496h-88.375c-5.793 0-10.496-4.6914-10.496-10.496 0-5.8047 4.6914-10.496 10.496-10.496zm0 83.965h88.375c5.793 0 10.496 4.6797 10.496 10.496 0 5.8047-4.6914 10.496-10.496 10.496h-88.375c-5.793 0-10.496-4.6914-10.496-10.496 0-5.8125 4.6914-10.496 10.496-10.496zm176.76 104.96h-176.76c-5.793 0-10.496-4.6914-10.496-10.496 0-5.8164 4.7031-10.496 10.496-10.496h176.76c5.793 0 10.496 4.6797 10.496 10.496 0 5.8047-4.7031 10.496-10.496 10.496zm9.6133-108.05c-3.7773 1.9609-7.7148 3.3281-11.691 4.2305v14.023c0 5.8047-4.7031 10.496-10.496 10.496s-10.496-4.6914-10.496-10.496v-13.844c-14.465-2.8984-27.52-12.027-34.773-26.105-2.6445-5.1641-0.60938-11.492 4.543-14.137 5.1445-2.6562 11.492-0.60938 14.137 4.543 7.3281 14.285 24.93 19.922 39.184 12.617 14.285-7.3281 19.941-24.918 12.625-39.191-4.9219-9.5742-14.652-15.641-25.422-15.828-18.504-0.31641-35.258-10.738-43.727-27.215-6.1094-11.914-7.2227-25.496-3.1172-38.238 4.1055-12.742 12.922-23.121 24.824-29.23 3.7461-1.9297 7.6836-3.168 11.703-4.0938v-14.168c0-5.8047 4.6914-10.496 10.496-10.496 5.793 0 10.496 4.6914 10.496 10.496v13.93c1.8477 0.37891 3.7148 0.62109 5.5312 1.1953 12.73 4.1055 23.113 12.922 29.223 24.824 2.6445 5.1641 0.60938 11.492-4.543 14.137-5.1836 2.6445-11.504 0.59766-14.129-4.543-3.5469-6.9258-9.5938-12.051-16.992-14.434-7.4219-2.3945-15.293-1.7422-22.211 1.8164-6.918 3.5469-12.039 9.582-14.434 16.984-2.3945 7.4102-1.7422 15.293 1.8164 22.211 4.9141 9.5742 14.652 15.629 25.402 15.816 18.535 0.32422 35.277 10.758 43.738 27.227 12.637 24.586 2.8945 54.855-21.688 67.473z"/>
</svg>