<?xml version="1.0" encoding="UTF-8"?>
<!-- The Best Svg Icon site in the world: iconSvg.co, Visit us! https://iconsvg.co -->
<svg fill="#000000" width="800px" height="800px" version="1.1" viewBox="144 144 512 512" xmlns="http://www.w3.org/2000/svg">
 <g>
  <path d="m479.66 246.76c-7.9297 0-15.566 2.4023-22.738 6.5508-15.723-20.121-35.473-34.16-56.926-34.16-21.469 0-41.223 14.051-56.949 34.188-7.1836-4.1602-14.832-6.5781-22.781-6.5781-40.965 0-74.207 63.566-74.207 105.05 0 40.914 33.285 74.199 74.207 74.199 7.2461 0 14.238-1.0938 20.863-3.0391 16.035 13.18 36.543 21.109 58.875 21.109 22.324 0 42.824-7.9258 58.855-21.098 6.6094 1.9336 13.578 3.0234 20.809 3.0234 40.918 0 74.211-33.285 74.211-74.199 0-41.48-33.254-105.05-74.219-105.05zm-149.24 165.75c-3.3086 0.55078-6.6875 0.91016-10.156 0.91016-33.973 0-61.609-27.633-61.609-61.605 0-34.832 28.797-92.461 61.609-92.461 5.3047 0 10.5 1.5234 15.48 4.1914-17.598 26.852-28.582 60.938-28.582 87.723 0.007813 23.48 8.8398 44.883 23.258 61.242zm94.707-67.418c1.4844 1.1953 2.3516 3.0039 2.3516 4.9062 0 13.492-8.9141 24.453-21.18 27.285v5.8125c0 3.4766-2.8203 6.2969-6.2969 6.2969-3.4766 0-6.2969-2.8203-6.2969-6.2969v-5.7852c-12.117-2.6719-21.176-12.832-21.176-24.957 0-3.4766 2.8203-6.2969 6.2969-6.2969s6.2969 2.8203 6.2969 6.2969c0 7.2031 6.6758 13.07 14.879 13.07 7.5469 0 13.441-5.25 14.652-12.594l-39.777-32.004c-1.4844-1.1953-2.3516-3.0039-2.3516-4.9062 0-11.84 6.6797-24.465 21.176-27.301v-5.6797c0-3.4766 2.8203-6.2969 6.2969-6.2969s6.2969 2.8203 6.2969 6.2969v5.7852c12.121 2.6719 21.18 12.828 21.18 24.949 0 3.4766-2.8203 6.2969-6.2969 6.2969-3.4766 0-6.2969-2.8203-6.2969-6.2969 0-7.1992-6.6758-13.059-14.883-13.059-11.113 0-13.949 7.8594-14.652 12.48zm54.531 68.332c-3.4453 0-6.8008-0.35156-10.09-0.90234 14.43-16.363 23.262-37.77 23.262-61.25 0-26.797-10.988-60.895-28.602-87.754 4.9688-2.6484 10.148-4.1602 15.426-4.1602 32.824 0 61.617 57.625 61.617 92.461 0.007812 33.969-27.629 61.605-61.613 61.605z"/>
  <path d="m601.08 433.86c-8.2266-7.2734-20.852-6.5156-28.184 1.7539l-25.902 29.832c-4.3867-4.8477-11.008-7.4648-17.738-6.375l-80.672 9.6484c-14.395 2.6992-41.281 15.949-40.012 46.488l0.003907 59.316c-3.9414 3.4648-6.4805 8.4844-6.4805 14.125v3.4648c0 2.7852 2.2539 5.0391 5.0391 5.0391h85.699c2.7852 0 5.0391-2.2539 5.0391-5.0391v-3.4648c0-7.543-4.4805-14.02-10.887-17.051v-35.629l50.965-10.219c6.0664-0.92188 10.707-2.4922 15.074-7.4766l49.758-56.262c7.2852-8.2266 6.5234-20.852-1.7031-28.152zm-7.7266 19.797-49.781 56.289c-1.6484 1.8789-3.0273 2.6641-7.793 3.3945l-56.324 11.285c-2.9492 0.58984-5.0625 3.1758-5.0625 6.1758v38.945l-53.219 0.003906-0.003906-54.816c-1.1445-27.531 28.5-33.605 29.332-33.781l80.535-9.6211c3.9648-0.67969 7.7773 2.0469 8.4453 6.0352 0.66406 3.9961-2.0469 7.7852-5.8477 8.418l-40.699 5.4922c-3.4492 0.46875-5.8633 3.6406-5.4023 7.082 0.46875 3.4492 3.6406 5.8281 7.082 5.4023l40.891-5.5234c9.7578-1.6289 16.625-10.121 16.609-19.699l30.242-34.828c2.6836-3.0273 7.3438-3.3086 10.367-0.63672 3.0312 2.7031 3.3125 7.3516 0.62891 10.383z"/>
  <path d="m391.43 574.52-0.003907-59.062c1.2734-30.793-25.613-44.043-40.426-46.809l-79.977-9.5469c-6.9375-1.1523-13.613 1.4727-18.016 6.332l-25.945-29.887c-7.2852-8.207-19.902-8.9727-28.145-1.6875-8.2188 7.2891-8.9766 19.914-1.6992 28.137l49.742 56.242c4.3867 5.0078 9.0273 6.5859 14.801 7.4531l51.262 10.273v35.629c-6.4102 3.0273-10.887 9.5078-10.887 17.051v3.4648c0 2.7852 2.2539 5.0391 5.0391 5.0391h85.699c2.7852 0 5.0391-2.2539 5.0391-5.0391v-3.4648c-0.007812-5.6484-2.5469-10.664-6.4844-14.125zm-127.5-61.234c-4.4727-0.67578-5.8477-1.4609-7.5156-3.3672l-49.766-56.27c-2.6797-3.0312-2.4023-7.6797 0.62109-10.363 3.0273-2.6797 7.6797-2.4102 10.328 0.57031l30.289 34.883c-0.003906 9.5781 6.8828 18.078 16.801 19.73l40.703 5.4922c3.457 0.42969 6.6133-1.9531 7.082-5.4023 0.46484-3.4453-1.9531-6.6133-5.4023-7.082l-40.508-5.4609c-3.9961-0.66406-6.7109-4.457-6.0469-8.4492 0.66016-3.9844 4.4375-6.6875 8.7266-5.9961l79.84 9.5234c1.2578 0.23828 30.902 6.1211 29.746 34.109v54.551h-53.215v-38.945c0-3.0039-2.1172-5.582-5.0625-6.1758z"/>
 </g>
</svg>