<?xml version="1.0" encoding="UTF-8"?>
<!-- The Best Svg Icon site in the world: iconSvg.co, Visit us! https://iconsvg.co -->
<svg fill="#000000" width="800px" height="800px" version="1.1" viewBox="144 144 512 512" xmlns="http://www.w3.org/2000/svg">
 <g>
  <path d="m628.29 211.07h-62.977c-4.3477 0-7.8711 3.5234-7.8711 7.8711s3.5234 7.8711 7.8711 7.8711h55.105v35.867c-0.003907 40.996-33.352 74.344-74.344 74.344h-5.5898c0.71484-5.4375 1.2109-10.941 1.2109-16.57v-117.25c0-4.3477-3.5234-7.8711-7.8711-7.8711l-267.65-0.003906c-4.3477 0-7.8711 3.5234-7.8711 7.8711v117.25c-0.003907 5.6328 0.49219 11.137 1.207 16.574h-5.5898c-40.992 0-74.34-33.348-74.34-74.344v-35.867h55.105c4.3477 0 7.8711-3.5234 7.8711-7.8711s-3.5234-7.8711-7.8711-7.8711h-62.977c-4.3477 0-7.875 3.5234-7.875 7.8711v43.738c0 49.672 40.414 90.086 90.09 90.086h8.7109c11.609 43.941 46.191 78.523 90.129 90.133v98.797h-55.105c-21.703 0-39.359 17.66-39.359 39.359v15.742c0 4.3477 3.5234 7.8711 7.8711 7.8711h267.65c4.3477 0 7.8711-3.5234 7.8711-7.8711v-15.742c0-4.3477-3.5234-7.8711-7.8711-7.8711-4.3477 0-7.8711 3.5234-7.8711 7.8711v7.8711h-251.9v-7.8711c0-13.023 10.594-23.617 23.617-23.617h204.67c4.3477 0 7.8711-3.5234 7.8711-7.8711s-3.5234-7.8711-7.8711-7.8711h-55.105v-70.848c0-4.3477-3.5234-7.8711-7.8711-7.8711s-7.8711 3.5234-7.8711 7.8711v70.848h-62.977v-95.676c5.4375 0.71484 10.941 1.2109 16.57 1.2109h29.836c58.723 0 108.1-40.188 122.45-94.465h8.7109c49.672 0 90.086-40.414 90.086-90.086v-43.738c0-4.3477-3.5273-7.8711-7.8711-7.8711zm-213.37 220.42h-29.836c-61.223 0-111.04-49.812-111.04-111.04v-109.38h251.91v109.38c-0.003906 61.223-49.812 111.04-111.04 111.04z"/>
  <path d="m400 297.66c-4.3477 0-7.8711 3.5234-7.8711 7.8711v78.719c0 4.3477 3.5234 7.8711 7.8711 7.8711s7.8711-3.5234 7.8711-7.8711v-78.719c0-4.3477-3.5234-7.8711-7.8711-7.8711z"/>
  <path d="m447.23 266.18c-4.3477 0-7.8711 3.5234-7.8711 7.8711v110.21c0 4.3477 3.5234 7.8711 7.8711 7.8711 4.3477 0 7.8711-3.5234 7.8711-7.8711v-110.21c0-4.3477-3.5234-7.8711-7.8711-7.8711z"/>
  <path d="m352.77 329.15c-4.3477 0-7.8711 3.5234-7.8711 7.8711v47.23c0 4.3477 3.5234 7.8711 7.8711 7.8711s7.8711-3.5234 7.8711-7.8711v-47.23c0-4.3438-3.5234-7.8711-7.8711-7.8711z"/>
  <path d="m466.12 220.52-59.082 44.312-27.137-13.57c-2.5273-1.2617-5.5469-1.082-7.8867 0.49219l-47.23 31.488c-3.6172 2.4102-4.5938 7.3008-2.1836 10.918 1.5156 2.2734 4.0117 3.5039 6.5547 3.5039 1.5 0 3.0156-0.42578 4.3594-1.3203l43.43-28.953 27.402 13.703c2.6641 1.3281 5.8477 1.043 8.2461-0.74609l62.977-47.23c3.4805-2.6055 4.1836-7.543 1.5703-11.02-2.5977-3.4766-7.5273-4.1914-11.02-1.5781z"/>
 </g>
</svg>