<?xml version="1.0" encoding="UTF-8"?>
<!-- The Best Svg Icon site in the world: iconSvg.co, Visit us! https://iconsvg.co -->
<svg width="800px" height="800px" version="1.1" viewBox="144 144 512 512" xmlns="http://www.w3.org/2000/svg">
 <defs>
  <clipPath id="a">
   <path d="m148.09 148.09h503.81v503.81h-503.81z"/>
  </clipPath>
 </defs>
 <g clip-path="url(#a)">
  <path d="m599.42 148.09h-398.85c-13.914 0.015625-27.254 5.5508-37.09 15.391-9.8398 9.8359-15.375 23.176-15.391 37.09v398.85c0.015625 13.914 5.5508 27.254 15.391 37.094 9.8359 9.8359 23.176 15.371 37.09 15.387h398.85c13.914-0.015625 27.254-5.5508 37.094-15.387 9.8359-9.8398 15.371-23.18 15.387-37.094v-398.85c-0.015625-13.914-5.5508-27.254-15.387-37.09-9.8398-9.8398-23.18-15.375-37.094-15.391zm31.488 451.33c0 8.3516-3.3164 16.363-9.2227 22.266-5.9023 5.9062-13.914 9.2227-22.266 9.2227h-398.85c-8.3516 0-16.359-3.3164-22.266-9.2227-5.9062-5.9023-9.2227-13.914-9.2227-22.266v-398.85c0-8.3516 3.3164-16.359 9.2227-22.266s13.914-9.2227 22.266-9.2227h398.85c8.3516 0 16.363 3.3164 22.266 9.2227 5.9062 5.9062 9.2227 13.914 9.2227 22.266z"/>
 </g>
 <path d="m400 504.96h-125.95c-2.7852 0.003907-5.4531 1.1094-7.4219 3.0781l-62.977 62.977 14.84 14.84 59.902-59.902h121.61c33.391-0.035157 65.406-13.316 89.02-36.93s36.895-55.629 36.93-89.02h-20.992c-0.027343 27.828-11.098 54.504-30.773 74.184-19.68 19.676-46.355 30.746-74.184 30.773z"/>
 <path d="m400 295.04h115.45c2.7852 0 5.4531-1.1094 7.4219-3.0781l55.555-55.555v27.145h20.992v-52.48c0-2.7852-1.1055-5.4531-3.0742-7.4219s-4.6367-3.0742-7.4219-3.0742h-62.977v20.992h37.641l-52.48 52.48h-111.11c-33.395 0.035156-65.41 13.316-89.023 36.93-23.613 23.613-36.895 55.629-36.93 89.023h20.992c0.03125-27.828 11.098-54.508 30.773-74.188 19.68-19.676 46.359-30.742 74.188-30.773z"/>
 <path d="m441.98 379.01v-10.496c0-5.5703-2.2148-10.906-6.1484-14.844-3.9375-3.9375-9.2773-6.1484-14.844-6.1484h-10.496v-20.992h-20.992v20.992h-10.496c-5.5703 0-10.91 2.2109-14.844 6.1484-3.9375 3.9375-6.1484 9.2734-6.1484 14.844v20.992c0 5.5664 2.2109 10.906 6.1484 14.844 3.9336 3.9336 9.2734 6.1484 14.844 6.1484h41.984v20.992h-41.984v-10.496h-20.992v10.496c0 5.5664 2.2109 10.906 6.1484 14.844 3.9336 3.9336 9.2734 6.1484 14.844 6.1484h10.496v20.992h20.992v-20.992h10.496c5.5664 0 10.906-2.2148 14.844-6.1484 3.9336-3.9375 6.1484-9.2773 6.1484-14.844v-20.992c0-5.5703-2.2148-10.91-6.1484-14.844-3.9375-3.9375-9.2773-6.1484-14.844-6.1484h-41.984v-20.992h41.984v10.496z"/>
 <path d="m504.96 358.02h20.992v20.992h-20.992z"/>
 <path d="m504.96 316.03h20.992v20.992h-20.992z"/>
 <path d="m462.98 316.03h20.992v20.992h-20.992z"/>
 <path d="m274.05 420.99h20.992v20.992h-20.992z"/>
 <path d="m274.05 462.98h20.992v20.992h-20.992z"/>
 <path d="m316.03 462.98h20.992v20.992h-20.992z"/>
 <path d="m211.07 221.57c-0.28125-2.8594 0.73438-5.6953 2.7656-7.7305 2.0352-2.0312 4.8711-3.0469 7.7305-2.7656h20.992v-20.992h-20.992c-8.4258-0.24609-16.578 2.9922-22.539 8.9492-5.957 5.9609-9.1953 14.113-8.9492 22.539v20.992h20.992z"/>
 <path d="m588.93 578.43c0.28125 2.8633-0.73438 5.6992-2.7656 7.7305s-4.8672 3.0469-7.7305 2.7656h-20.992v20.992h20.992c8.4258 0.24609 16.578-2.9922 22.539-8.9492 5.957-5.9609 9.1953-14.113 8.9492-22.539v-20.992h-20.992z"/>
</svg>