<?xml version="1.0" encoding="UTF-8"?>
<!-- The Best Svg Icon site in the world: iconSvg.co, Visit us! https://iconsvg.co -->
<svg fill="#000000" width="800px" height="800px" version="1.1" viewBox="144 144 512 512" xmlns="http://www.w3.org/2000/svg">
 <path d="m622.15 268.54c-0.83203-7.5508-4.3672-14.547-9.9531-19.695-5.582-5.1523-12.84-8.1094-20.434-8.3281-61.918-1.7266-122.19-20.344-174.29-53.844-5.1719-3.4531-11.254-5.2969-17.473-5.2969-6.2227 0-12.305 1.8438-17.477 5.2969-52.102 33.5-112.37 52.117-174.29 53.844-7.5898 0.21875-14.848 3.1758-20.434 8.3281-5.5859 5.1484-9.1172 12.145-9.9492 19.695-6.2969 64.078-9.6055 278.36 217.43 349.36h-0.003906c3.0625 1.0586 6.3867 1.0586 9.4492 0 227.03-71.004 223.72-285.28 217.43-349.36zm-222.15 317.87c-199.64-65.336-196.49-257.1-190.5-314.41 67.711-1.9922 133.59-22.461 190.5-59.199 56.992 36.777 123.01 57.148 190.82 58.883 5.668 57.625 8.8164 249.39-190.82 314.72zm-78.723-202.15c0 8.3516-3.3164 16.359-9.2227 22.266-5.9023 5.9062-13.914 9.2227-22.266 9.2227-8.3516 0-16.359-3.3164-22.266-9.2227-5.9023-5.9062-9.2227-13.914-9.2227-22.266 0-8.3516 3.3203-16.359 9.2227-22.266 5.9062-5.9062 13.914-9.2227 22.266-9.2227 8.3516 0 16.363 3.3164 22.266 9.2227 5.9062 5.9062 9.2227 13.914 9.2227 22.266zm110.21 0h0.003906c0 8.3516-3.3203 16.359-9.2227 22.266-5.9062 5.9062-13.914 9.2227-22.266 9.2227s-16.363-3.3164-22.266-9.2227c-5.9062-5.9062-9.2227-13.914-9.2227-22.266 0-8.3516 3.3164-16.359 9.2227-22.266 5.9023-5.9062 13.914-9.2227 22.266-9.2227s16.359 3.3164 22.266 9.2227c5.9023 5.9062 9.2227 13.914 9.2227 22.266zm110.21 0h0.003906c0 8.3516-3.3164 16.359-9.2227 22.266s-13.914 9.2227-22.266 9.2227c-8.3516 0-16.359-3.3164-22.266-9.2227s-9.2227-13.914-9.2227-22.266c0-8.3516 3.3164-16.359 9.2227-22.266s13.914-9.2227 22.266-9.2227c8.3516 0 16.359 3.3164 22.266 9.2227s9.2227 13.914 9.2227 22.266z"/>
</svg>