<?xml version="1.0" encoding="UTF-8"?>
<!-- The Best Svg Icon site in the world: iconSvg.co, Visit us! https://iconsvg.co -->
<svg fill="#000000" width="800px" height="800px" version="1.1" viewBox="144 144 512 512" xmlns="http://www.w3.org/2000/svg">
 <g>
  <path d="m403.94 317.09c5.6484 1.375 16.438 3.543 16.469 16.559 0.011719 5.0469-3.1133 14.832-19.207 14.832-7.4766 0-18.148-3.3086-18.148-16.898 0 0 0.125-7.082-8.7148-7.082-8.8438 0-9.5391 7.082-9.5391 7.082 0 8.9961 1.2891 15.32 5.9844 21.469 7.0469 9.3203 15.699 12.57 22.43 13.699v7.5273c0 4.5352 3.6719 8.2188 8.2188 8.2188 4.5352 0 8.2188-3.6797 8.2188-8.2188v-7.5859c21.09-3.6523 29-23.164 29-35.523 0-8.9922-3.2656-22.809-23.98-29.941l-18.605-6.1367c-2.8633-0.92188-14.465-5.0547-13.234-16.531 0.47266-4.3789 1.7539-7.75 5.2539-10.047 2.8633-1.832 6.3984-2.7617 10.609-2.7617 7.1602 0 12.031 1.2109 15.219 5.3398 1.7422 2.3867 2.3125 4.1367 2.7969 8.2734 0 0 0.55859 6.8008 8.7109 6.8008 8.1523 0 9.4023-6.4727 9.5625-7.6484 0.73047-5.2969-2.1523-14.152-6.168-19.406-4.625-6.0703-11.199-9.7422-19.172-11.309v-8.4375c0-4.5352-3.6797-8.2188-8.2188-8.2188s-8.2188 3.6797-8.2188 8.2188v8.0039c-9.543 1.2227-16.809 5.082-21.719 11.648-4.293 5.7734-11.461 16.906-4.1172 36.164 6.3516 16.605 36.57 21.91 36.57 21.91z"/>
  <path d="m460.77 485.42c37.188 0 67.324-17.578 67.324-39.266 0-21.684-30.137-39.266-67.324-39.266-25.805 0-48.195 8.4805-59.5 20.918-11.297-12.445-33.691-20.918-59.5-20.918-37.176 0-67.312 17.582-67.312 39.273 0 21.688 30.137 39.262 67.312 39.262 20.988 0 39.605-5.6641 51.941-14.438v58.996c-53.621 1.7773-87.41 22.148-97.348 42.402-1.8398 3.75-0.29297 8.2773 3.457 10.117 1.0664 0.52344 2.207 0.76953 3.3242 0.76953 2.793 0 5.4766-1.5586 6.793-4.2266 8.0664-16.434 40.082-34.117 91.336-34.117 49.625 0 80.031 18.148 91.941 35.129 2.3984 3.4141 7.1094 4.2422 10.523 1.8477 3.4141-2.3984 4.2422-7.1094 1.8477-10.531-13.438-19.16-45.742-39.523-96.758-41.383l0.003906-59.012c12.34 8.7812 30.953 14.441 51.938 14.441z"/>
 </g>
</svg>