<?xml version="1.0" encoding="UTF-8"?>
<!-- The Best Svg Icon site in the world: iconSvg.co, Visit us! https://iconsvg.co -->
<svg width="800px" height="800px" version="1.1" viewBox="144 144 512 512" xmlns="http://www.w3.org/2000/svg">
 <defs>
  <clipPath id="d">
   <path d="m321 447h158v204.9h-158z"/>
  </clipPath>
  <clipPath id="c">
   <path d="m313 148.09h174v173.91h-174z"/>
  </clipPath>
  <clipPath id="b">
   <path d="m148.09 274h173.91v174h-173.91z"/>
  </clipPath>
  <clipPath id="a">
   <path d="m478 274h173.9v174h-173.9z"/>
  </clipPath>
 </defs>
 <g clip-path="url(#d)">
  <path d="m430.82 547.99c13.133-8.8594 21.816-22.941 23.836-38.648 2.0195-15.711-2.8164-31.531-13.277-43.426s-25.535-18.711-41.375-18.711-30.914 6.8164-41.375 18.711c-10.465 11.895-15.301 27.715-13.281 43.426 2.0195 15.707 10.703 29.789 23.836 38.648-14.199 6.0547-26.305 16.148-34.82 29.023-8.5156 12.871-13.062 27.965-13.082 43.398v23.617c0 2.0859 0.83203 4.0898 2.3047 5.5664 1.4766 1.4766 3.4805 2.3047 5.5664 2.3047h141.7c2.0859 0 4.0898-0.82812 5.5664-2.3047 1.4766-1.4766 2.3047-3.4805 2.3047-5.5664v-23.617c-0.015625-15.434-4.5664-30.527-13.082-43.398-8.5156-12.875-20.621-22.969-34.82-29.023zm-70.18-45.656c0-10.441 4.1484-20.453 11.531-27.832 7.3789-7.3828 17.391-11.527 27.832-11.527 10.438 0 20.449 4.1445 27.832 11.527 7.3789 7.3789 11.527 17.391 11.527 27.832 0 10.438-4.1484 20.449-11.527 27.832-7.3828 7.3789-17.395 11.527-27.832 11.527-10.438-0.011718-20.441-4.1641-27.82-11.543-7.3789-7.3789-11.527-17.383-11.543-27.816zm102.34 133.82h-125.95v-15.746c0-22.5 12.004-43.289 31.488-54.539s43.488-11.25 62.977 0c19.484 11.25 31.488 32.039 31.488 54.539z"/>
 </g>
 <g clip-path="url(#c)">
  <path d="m335.75 280.86c3.7461-2.1875 5.0195-6.9922 2.8438-10.746-11.844-20.457-12.715-45.473-2.3242-66.707 10.391-21.23 30.68-35.891 54.102-39.09s46.898 5.4805 62.602 23.148c15.707 17.668 21.574 42 15.652 64.887-5.9219 22.887-22.859 41.316-45.164 49.145-22.305 7.832-47.047 4.0352-65.977-10.129-3.4766-2.6055-8.4102-1.9023-11.02 1.5742-2.6094 3.4805-1.9023 8.4141 1.5742 11.023 23.086 17.324 53.289 22.004 80.539 12.484 27.246-9.5234 47.961-31.996 55.234-59.93 7.2695-27.934 0.14844-57.652-19-79.254-19.145-21.602-47.797-32.242-76.398-28.375-28.605 3.8672-53.402 21.734-66.125 47.641-12.727 25.91-11.703 56.453 2.7227 81.453 2.1797 3.7539 6.9805 5.0391 10.738 2.875z"/>
 </g>
 <path d="m400.23 258.3h-16.199c-4.3477 0-7.875 3.5273-7.875 7.875 0 4.3477 3.5273 7.8711 7.875 7.8711h16.199c8.4375-0.082031 16.191-4.6602 20.34-12.008 4.1445-7.3477 4.0586-16.348-0.23047-23.613-4.2891-7.2656-12.129-11.691-20.566-11.613-4.3477 0-7.8711-3.5234-7.8711-7.8711s3.5234-7.8711 7.8711-7.8711h16.203c4.3477 0 7.8711-3.5234 7.8711-7.8711 0-4.3477-3.5234-7.875-7.8711-7.875h-16.203c-8.4375 0.082031-16.188 4.6602-20.336 12.008-4.1484 7.3477-4.0625 16.352 0.22656 23.617 4.2891 7.2656 12.129 11.691 20.566 11.609 4.3477 0 7.8711 3.5234 7.8711 7.8711 0 4.3477-3.5234 7.8711-7.8711 7.8711z"/>
 <g clip-path="url(#b)">
  <path d="m321.28 360.64c-0.003906-26.918-12.523-52.305-33.883-68.691-21.355-16.383-49.117-21.906-75.121-14.938-26 6.9648-47.281 25.629-57.586 50.496-10.305 24.871-8.4531 53.117 5 76.43 0.99609 1.9023 2.7227 3.3164 4.7852 3.9141 2.0586 0.59766 4.2734 0.32812 6.1328-0.74609 1.8555-1.0742 3.1953-2.8594 3.7031-4.9414 0.51172-2.0859 0.14844-4.2891-1-6.0977-11.844-20.457-12.715-45.473-2.3242-66.707s30.68-35.891 54.102-39.09c23.422-3.2031 46.898 5.4805 62.602 23.148 15.707 17.668 21.574 42 15.652 64.887s-22.859 41.316-45.164 49.145c-22.305 7.832-47.047 4.0312-65.977-10.129-3.4766-2.6094-8.4102-1.9023-11.02 1.5742-2.6094 3.4805-1.9023 8.4141 1.5742 11.023 17.238 12.918 38.676 18.949 60.125 16.91 21.449-2.0391 41.363-12 55.863-27.938 14.496-15.934 22.531-36.703 22.535-58.25z"/>
 </g>
 <path d="m234.91 384.25h-16.199c-4.3477 0-7.875 3.5234-7.875 7.8711s3.5273 7.875 7.875 7.875h16.199c8.4375-0.082031 16.191-4.6602 20.34-12.008 4.1445-7.3477 4.0586-16.348-0.23047-23.617-4.2891-7.2656-12.129-11.691-20.566-11.609-4.3477 0-7.8711-3.5234-7.8711-7.8711 0-4.3477 3.5234-7.8711 7.8711-7.8711h16.203c4.3477 0 7.8711-3.5273 7.8711-7.875 0-4.3477-3.5234-7.8711-7.8711-7.8711h-16.203c-8.4375 0.082031-16.188 4.6602-20.336 12.008-4.1484 7.3477-4.0625 16.348 0.22656 23.613 4.2891 7.2695 12.129 11.695 20.566 11.613 4.3477 0 7.8711 3.5234 7.8711 7.8711 0 4.3477-3.5234 7.8711-7.8711 7.8711z"/>
 <g clip-path="url(#a)">
  <path d="m565.31 274.05c-20.359-0.003906-40.07 7.168-55.664 20.254-15.598 13.086-26.082 31.25-29.621 51.301-3.5352 20.047 0.10938 40.703 10.285 58.332 2.2656 3.5625 6.9336 4.7031 10.586 2.5938 3.6523-2.1133 4.9883-6.7266 3.0352-10.465-11.844-20.457-12.715-45.473-2.3242-66.707s30.68-35.891 54.102-39.09c23.422-3.2031 46.898 5.4805 62.602 23.148 15.707 17.668 21.574 42 15.652 64.887s-22.859 41.316-45.164 49.145c-22.305 7.832-47.047 4.0312-65.977-10.129-3.4766-2.6094-8.4102-1.9023-11.02 1.5742-2.6094 3.4805-1.9023 8.4141 1.5742 11.023 22.27 16.699 51.211 21.68 77.781 13.375 26.57-8.3008 47.527-28.871 56.328-55.277 8.7969-26.41 4.3633-55.441-11.918-78.02-16.281-22.578-42.422-35.953-70.258-35.945z"/>
 </g>
 <path d="m565.54 384.25h-16.199c-4.3477 0-7.875 3.5234-7.875 7.8711s3.5273 7.875 7.875 7.875h16.199c8.4375-0.082031 16.191-4.6602 20.34-12.008 4.1445-7.3477 4.0586-16.348-0.23047-23.617-4.2891-7.2656-12.129-11.691-20.566-11.609-4.3477 0-7.8711-3.5234-7.8711-7.8711 0-4.3477 3.5234-7.8711 7.8711-7.8711h16.203c4.3477 0 7.8711-3.5273 7.8711-7.875 0-4.3477-3.5234-7.8711-7.8711-7.8711h-16.203c-8.4375 0.082031-16.188 4.6602-20.336 12.008-4.1484 7.3477-4.0625 16.348 0.22656 23.613 4.2891 7.2695 12.129 11.695 20.566 11.613 4.3477 0 7.8711 3.5234 7.8711 7.8711 0 4.3477-3.5234 7.8711-7.8711 7.8711z"/>
 <path d="m587.03 461.73c-1.957-0.73438-4.125-0.66016-6.0234 0.20312-1.9023 0.86328-3.3828 2.4453-4.1172 4.4023-16.332 43.512-48.121 79.484-89.293 101.05-3.8477 2.0195-5.332 6.7812-3.3086 10.629 2.0195 3.8516 6.7812 5.332 10.629 3.3125 44.59-23.352 79.02-62.305 96.719-109.42 0.74219-1.9609 0.67578-4.1328-0.1875-6.043-0.86719-1.9102-2.457-3.3945-4.418-4.1289z"/>
 <path d="m312.4 567.38c-41.141-21.547-72.91-57.484-89.254-100.95-0.65625-2.0508-2.125-3.7422-4.0625-4.6836s-4.1758-1.043-6.1914-0.28906c-2.0195 0.75391-3.6367 2.3008-4.4844 4.2852-0.84375 1.9805-0.83984 4.2188 0.011719 6.1992 17.688 47.098 52.094 86.035 96.66 109.38 1.1289 0.58594 2.3789 0.89453 3.6523 0.89453 3.6211 0.003906 6.7773-2.4648 7.6445-5.9805 0.87109-3.5156-0.77344-7.1719-3.9766-8.8555z"/>
</svg>