<?xml version="1.0" encoding="UTF-8"?>
<!-- The Best Svg Icon site in the world: iconSvg.co, Visit us! https://iconsvg.co -->
<svg fill="#000000" width="800px" height="800px" version="1.1" viewBox="144 144 512 512" xmlns="http://www.w3.org/2000/svg">
 <g>
  <path d="m297.61 533.42c9.0898 22.648 27.762 40.098 50.973 47.633h-58.789c-2.7617 0-5.3242 1.4492-6.7461 3.8164l-23.617 39.359 0.003907 0.003906c-1.4609 2.4297-1.5039 5.4609-0.10547 7.9297 1.3945 2.4688 4.0117 3.9961 6.8516 3.9961h267.65c2.8359 0 5.4531-1.5273 6.8477-3.9961 1.3984-2.4688 1.3594-5.5-0.10156-7.9297l-23.617-39.359v-0.003906c-1.4219-2.3672-3.9844-3.8164-6.7461-3.8164h-60.613c23.176-7.5234 41.828-24.934 50.93-47.539 34.375-1.5703 66.824-16.316 90.613-41.176 23.793-24.863 37.094-57.93 37.152-92.34v-62.977c-0.042968-35.48-14.152-69.496-39.242-94.586s-59.105-39.199-94.586-39.238h-188.93c-35.48 0.039062-69.496 14.148-94.586 39.238-25.086 25.09-39.199 59.105-39.238 94.586v62.977c0.054687 34.086 13.109 66.867 36.504 91.66 23.395 24.793 55.367 39.73 89.391 41.762zm102.39-62.574c10.293-0.015625 19.941 5.0156 25.824 13.465 5.8828 8.4453 7.2578 19.238 3.6758 28.891-3.5781 9.6484-11.66 16.938-21.629 19.504v8.9883c0 4.3477-3.5234 7.8711-7.8711 7.8711s-7.875-3.5234-7.875-7.8711v-8.9883c-6.7383-1.7422-12.711-5.668-16.984-11.16-4.2734-5.4961-6.6055-12.25-6.6289-19.211 0-4.3477 3.5234-7.875 7.8711-7.875 4.3477 0 7.8711 3.5273 7.8711 7.875 0 4.1758 1.6602 8.1797 4.6133 11.133 2.9531 2.9531 6.957 4.6094 11.133 4.6094s8.1797-1.6562 11.133-4.6094c2.9492-2.9531 4.6094-6.957 4.6094-11.133 0-4.1758-1.6602-8.1797-4.6094-11.133-2.9531-2.9531-6.957-4.6133-11.133-4.6133-10.297 0.015625-19.941-5.0156-25.828-13.465-5.8828-8.4453-7.2578-19.238-3.6758-28.891 3.582-9.6484 11.66-16.938 21.629-19.504v-8.9883c0-4.3477 3.5273-7.8711 7.875-7.8711s7.8711 3.5234 7.8711 7.8711v8.9883c6.7383 1.7422 12.711 5.668 16.984 11.16 4.2734 5.4961 6.6055 12.25 6.6328 19.211 0 4.3477-3.5273 7.875-7.875 7.875-4.3477 0-7.8711-3.5273-7.8711-7.875 0-4.1758-1.6602-8.1797-4.6094-11.133-2.9531-2.9531-6.957-4.6094-11.133-4.6094s-8.1797 1.6562-11.133 4.6094c-2.9531 2.9531-4.6133 6.957-4.6133 11.133 0 4.1758 1.6602 8.1797 4.6133 11.133 2.9531 2.9531 6.957 4.6133 11.133 4.6133zm-0.92188-90.527c-31.723 0-61.621 18.207-81.215 48.359 17.672-30.566 51.414-58.047 81.215-58.047 29.805 0 63.543 27.48 81.215 58.047-19.594-30.184-49.492-48.359-81.215-48.359zm79.508-59.613v-0.003906c0-8.5938-3.7148-16.773-10.184-22.43-6.4688-5.6602-15.066-8.25-23.586-7.1055-8.5195 1.1445-16.133 5.9102-20.879 13.074-5.5156-8.332-14.844-13.34-24.836-13.34-9.9922 0-19.32 5.0078-24.836 13.34-4.75-7.1641-12.359-11.93-20.879-13.074s-17.117 1.4453-23.586 7.1055c-6.4727 5.6562-10.184 13.836-10.184 22.43 0 26.617 15.879 43.297 45.113 48.137-41.012 19.957-72.707 71.957-74.723 116.31h0.003907c-19.93-3.6484-37.953-14.164-50.938-29.723-12.98-15.555-20.105-35.164-20.133-55.426v-62.977c0.027344-22.957 9.1602-44.969 25.395-61.203 16.23-16.23 38.242-25.363 61.199-25.391h188.93c22.961 0.027343 44.969 9.1602 61.203 25.391 16.23 16.234 25.363 38.246 25.391 61.203v62.977c-0.035157 20.566-7.3867 40.449-20.734 56.094-13.352 15.645-31.832 26.031-52.137 29.301-1.8984-44.406-33.637-96.59-74.738-116.59 29.238-4.8789 45.117-21.551 45.117-48.137zm-34.777-9.9336c0-2.7383 3.3359-4.9688 7.4531-4.9688 4.1172 0 7.4531 2.2266 7.4531 4.9688 0 2.7383-3.3359 4.9688-7.4531 4.9688-4.1172-0.003907-7.4805-2.2578-7.4805-5.0039zm-256.36 26.25c0.035156-31.309 12.488-61.32 34.625-83.457 22.137-22.137 52.148-34.59 83.457-34.625h188.93c31.309 0.035156 61.32 12.488 83.457 34.625 22.137 22.137 34.59 52.148 34.625 83.457v62.977c-0.035157 31.305-12.488 61.316-34.625 83.453s-52.148 34.59-83.457 34.625h-15.742c-4.3477 0-7.8711 3.5234-7.8711 7.8711v1.1719l-13.531-16.914 13.531-16.918v1.1719c0 2.0898 0.82812 4.0938 2.3047 5.5664 1.4766 1.4766 3.4805 2.3086 5.5664 2.3086h15.742c27.133-0.03125 53.145-10.824 72.328-30.008 19.188-19.188 29.98-45.199 30.012-72.328v-62.977c-0.03125-27.133-10.824-53.145-30.012-72.328-19.184-19.188-45.195-29.977-72.328-30.008h-188.93c-27.133 0.03125-53.145 10.82-72.328 30.008-19.188 19.184-29.977 45.195-30.008 72.328v62.977c0.03125 27.129 10.82 53.141 30.008 72.328 19.184 19.184 45.195 29.977 72.328 30.008h31.488v15.742h-31.488c-31.309-0.035156-61.32-12.488-83.457-34.625s-34.59-52.148-34.625-83.453z"/>
  <path d="m525.95 329.15c2.0898 0 4.0898-0.82813 5.5664-2.3047s2.3086-3.4766 2.3086-5.5664v-7.8711c0-4.3477-3.5273-7.8711-7.875-7.8711-4.3477 0-7.8711 3.5234-7.8711 7.8711v7.8711c0 2.0898 0.83203 4.0898 2.3047 5.5664 1.4766 1.4766 3.4805 2.3047 5.5664 2.3047z"/>
  <path d="m541.7 344.89h7.8711c4.3477 0 7.8711-3.5234 7.8711-7.8711 0-4.3477-3.5234-7.875-7.8711-7.875h-7.8711c-4.3477 0-7.8711 3.5273-7.8711 7.875 0 4.3477 3.5234 7.8711 7.8711 7.8711z"/>
  <path d="m525.95 344.89c-4.3477 0-7.8711 3.5234-7.8711 7.8711v7.8711c0 4.3477 3.5234 7.875 7.8711 7.875 4.3477 0 7.875-3.5273 7.875-7.875v-7.8711c0-2.0859-0.83203-4.0898-2.3086-5.5664-1.4766-1.4766-3.4766-2.3047-5.5664-2.3047z"/>
  <path d="m274.05 392.12c2.0859 0 4.0898-0.82812 5.5664-2.3047 1.4766-1.4766 2.3047-3.4766 2.3047-5.5664v-7.8711c0-4.3477-3.5234-7.8711-7.8711-7.8711s-7.8711 3.5234-7.8711 7.8711v7.8711c0 2.0898 0.82812 4.0898 2.3047 5.5664 1.4766 1.4766 3.4766 2.3047 5.5664 2.3047z"/>
  <path d="m258.3 392.12h-7.8711c-4.3477 0-7.8711 3.5273-7.8711 7.875s3.5234 7.8711 7.8711 7.8711h7.8711c4.3477 0 7.875-3.5234 7.875-7.8711s-3.5273-7.875-7.875-7.875z"/>
  <path d="m297.66 392.12h-7.875c-4.3477 0-7.8711 3.5273-7.8711 7.875s3.5234 7.8711 7.8711 7.8711h7.875c4.3477 0 7.8711-3.5234 7.8711-7.8711s-3.5234-7.875-7.8711-7.875z"/>
  <path d="m274.05 407.87c-4.3477 0-7.8711 3.5234-7.8711 7.8711v7.8711c0 4.3477 3.5234 7.875 7.8711 7.875s7.8711-3.5273 7.8711-7.875v-7.8711c0-2.0859-0.82812-4.0898-2.3047-5.5664-1.4766-1.4766-3.4805-2.3047-5.5664-2.3047z"/>
  <path d="m502.34 344.89h7.8711c4.3477 0 7.8711-3.5234 7.8711-7.8711 0-4.3477-3.5234-7.875-7.8711-7.875h-7.8711c-4.3477 0-7.875 3.5273-7.875 7.875 0 4.3477 3.5273 7.8711 7.875 7.8711z"/>
 </g>
</svg>