<?xml version="1.0" encoding="UTF-8"?>
<!-- The Best Svg Icon site in the world: iconSvg.co, Visit us! https://iconsvg.co -->
<svg width="800px" height="800px" version="1.1" viewBox="144 144 512 512" xmlns="http://www.w3.org/2000/svg">
 <defs>
  <clipPath id="a">
   <path d="m431 400h220.9v158h-220.9z"/>
  </clipPath>
 </defs>
 <path d="m541.7 636.16h-283.39c-12.52-0.015625-24.527-4.9961-33.383-13.852-8.8555-8.8516-13.836-20.859-13.848-33.383v-220.41c0.011719-12.523 4.9922-24.531 13.848-33.383 8.8555-8.8555 20.863-13.836 33.383-13.852h283.39c12.523 0.015625 24.527 4.9961 33.383 13.852 8.8555 8.8516 13.836 20.859 13.848 33.383v47.23c0 5.625-3 10.824-7.8711 13.637-4.8711 2.8125-10.871 2.8125-15.742 0s-7.875-8.0117-7.875-13.637v-47.23c-0.003906-4.1758-1.6641-8.1758-4.6172-11.129-2.9492-2.9492-6.9531-4.6094-11.125-4.6172h-283.39c-4.1719 0.007813-8.1758 1.668-11.125 4.6172-2.9531 2.9531-4.6133 6.9531-4.6172 11.129v220.41c0.003906 4.1758 1.6641 8.1758 4.6172 11.129 2.9492 2.9492 6.9531 4.6094 11.125 4.6172h283.39c4.1719-0.007813 8.1758-1.668 11.125-4.6172 2.9531-2.9531 4.6133-6.9531 4.6172-11.129v-47.23c0-5.625 3.0039-10.824 7.875-13.637s10.871-2.8125 15.742 0c4.8711 2.8125 7.8711 8.0117 7.8711 13.637v47.23c-0.011719 12.523-4.9922 24.531-13.848 33.383-8.8555 8.8555-20.859 13.836-33.383 13.852z"/>
 <g clip-path="url(#a)">
  <path d="m604.67 557.44h-125.95c-12.523-0.011719-24.527-4.9922-33.383-13.848-8.8555-8.8555-13.836-20.859-13.848-33.383v-62.977c0.011719-12.523 4.9922-24.527 13.848-33.383 8.8555-8.8555 20.859-13.836 33.383-13.848h125.95c12.523 0.011719 24.527 4.9922 33.383 13.848 8.8555 8.8555 13.836 20.859 13.848 33.383v62.977c-0.011719 12.523-4.9922 24.527-13.848 33.383-8.8555 8.8555-20.859 13.836-33.383 13.848zm-125.95-125.95v0.003906c-4.1758 0.003907-8.1758 1.6641-11.125 4.6172-2.9531 2.9492-4.6133 6.9531-4.6172 11.125v62.977c0.003907 4.1719 1.6641 8.1758 4.6172 11.125 2.9492 2.9531 6.9492 4.6133 11.125 4.6172h125.95c4.1719-0.003907 8.1758-1.6641 11.125-4.6172 2.9531-2.9492 4.6133-6.9531 4.6172-11.125v-62.977c-0.003906-4.1719-1.6641-8.1758-4.6172-11.125-2.9492-2.9531-6.9531-4.6133-11.125-4.6172z"/>
 </g>
 <path d="m541.7 352.77h-220.42c-4.1758 0-8.1797-1.6562-11.133-4.6094s-4.6094-6.957-4.6094-11.133v-125.95c0.011719-12.523 4.9922-24.527 13.848-33.383 8.8555-8.8555 20.859-13.836 33.383-13.852h157.44c12.523 0.015624 24.527 4.9961 33.383 13.852 8.8555 8.8555 13.836 20.859 13.848 33.383v125.95c0 4.1758-1.6562 8.1797-4.6094 11.133s-6.957 4.6094-11.133 4.6094zm-204.67-31.488h188.93v-110.21c-0.003907-4.1758-1.6641-8.1758-4.6172-11.129-2.9492-2.9492-6.9531-4.6094-11.125-4.6172h-157.44c-4.1719 0.007812-8.1758 1.668-11.125 4.6172-2.9531 2.9531-4.6133 6.9531-4.6172 11.129z"/>
 <path d="m478.72 352.77h-94.465c-4.1758 0-8.1797-1.6562-11.133-4.6094s-4.6094-6.957-4.6094-11.133v-62.977c0-4.1758 1.6562-8.1797 4.6094-11.133 2.9531-2.9531 6.957-4.6133 11.133-4.6133 4.1758-0.003906 8.1758-1.6641 11.129-4.6172 2.9492-2.9492 4.6094-6.9531 4.6172-11.125 0-4.1758 1.6562-8.1797 4.6094-11.133s6.957-4.6133 11.133-4.6133h31.488c4.1758 0 8.1797 1.6602 11.133 4.6133s4.6133 6.957 4.6133 11.133c0.003907 4.1719 1.6641 8.1758 4.6172 11.125 2.9492 2.9531 6.9492 4.6133 11.125 4.6172 4.1758 0 8.1797 1.6602 11.133 4.6133 2.9531 2.9531 4.6094 6.957 4.6094 11.133v62.977c0 4.1758-1.6562 8.1797-4.6094 11.133-2.9531 2.9531-6.957 4.6094-11.133 4.6094zm-78.719-31.488h62.977v-34.188c-13.438-4.7812-24.008-15.355-28.793-28.789h-5.3984 0.003906c-4.7852 13.434-15.355 24.008-28.789 28.789z"/>
 <path d="m525.95 478.72c0 8.6953-7.0469 15.742-15.742 15.742-8.6953 0-15.746-7.0469-15.746-15.742s7.0508-15.742 15.746-15.742c8.6953 0 15.742 7.0469 15.742 15.742"/>
</svg>