<?xml version="1.0" encoding="UTF-8"?>
<!-- The Best Svg Icon site in the world: iconSvg.co, Visit us! https://iconsvg.co -->
<svg fill="#000000" width="800px" height="800px" version="1.1" viewBox="144 144 512 512" xmlns="http://www.w3.org/2000/svg">
 <path d="m344.14 479.84h-65.059c-2.7812 0-5.0391-2.2539-5.0391-5.0391v-46.879c0-2.7852 2.2578-5.0391 5.0391-5.0391h65.062c2.7812 0 5.0391 2.2539 5.0391 5.0391v46.879c-0.003906 2.7852-2.2617 5.0391-5.043 5.0391zm-60.023-10.074h54.984v-36.805h-54.984zm148.41 10.074h-65.062c-2.7812 0-5.0391-2.2539-5.0391-5.0391v-94.754c0-2.7852 2.2578-5.0391 5.0391-5.0391h65.059c2.7812 0 5.0391 2.2539 5.0391 5.0391v94.758c0 2.7812-2.2578 5.0352-5.0352 5.0352zm-60.027-10.074h54.98l0.003906-84.68h-54.984zm148.41 10.074h-65.062c-2.7812 0-5.0391-2.2539-5.0391-5.0391v-149.6c0-2.7852 2.2578-5.0391 5.0391-5.0391h65.062c2.7812 0 5.0391 2.2539 5.0391 5.0391v149.6c-0.003906 2.7852-2.2578 5.0391-5.0391 5.0391zm-60.023-10.074h54.984v-139.53h-54.984z"/>
</svg>