<?xml version="1.0" encoding="UTF-8"?>
<!-- The Best Svg Icon site in the world: iconSvg.co, Visit us! https://iconsvg.co -->
<svg fill="#000000" width="800px" height="800px" version="1.1" viewBox="144 144 512 512" xmlns="http://www.w3.org/2000/svg">
 <g>
  <path d="m533.82 431.49c2.0859 0 4.0898-0.83203 5.5664-2.3086 1.4766-1.4766 2.3047-3.4766 2.3047-5.5664v-39.359h7.8711c22.961-0.015625 44.977-9.1406 61.215-25.379 16.234-16.234 25.363-38.25 25.379-61.211 0-2.0898-0.83203-4.0938-2.3047-5.5664-1.4766-1.4766-3.4805-2.3086-5.5664-2.3086h-31.57c11.793-15.664 17.312-35.164 15.48-54.684-1.8281-19.52-10.879-37.656-25.375-50.855-14.496-13.199-33.395-20.516-53-20.516s-38.508 7.3164-53.004 20.516c-14.496 13.199-23.543 31.336-25.375 50.855-1.8281 19.52 3.6914 39.02 15.48 54.684h-31.566c-4.3477 0-7.8711 3.5273-7.8711 7.875 0.011719 22.961 9.1406 44.977 25.375 61.211 16.238 16.238 38.254 25.363 61.215 25.379h7.8711v8.9727l-118.08 17.32 0.003906-10.547c0-4.3477-3.5234-7.875-7.8711-7.875s-7.875 3.5273-7.875 7.875v12.91l-118.08 17.32 0.003906-14.488h7.8711c22.961-0.015626 44.977-9.1406 61.215-25.379 16.234-16.234 25.363-38.25 25.379-61.215 0-2.0859-0.83203-4.0898-2.3086-5.5664-1.4766-1.4727-3.4766-2.3047-5.5664-2.3047h-10.074l-13.934-41.879c-1.1133-3.1836-4.1055-5.3281-7.4805-5.3516h-17.945l-13.934-41.879c-1.1133-3.1875-4.1055-5.3281-7.4805-5.3555h-47.23c-3.375 0.027344-6.3672 2.168-7.4805 5.3555l-13.934 41.879h-17.945c-3.375 0.023437-6.3672 2.168-7.4805 5.3516l-13.934 41.879h-10.074c-4.3477 0-7.875 3.5234-7.875 7.8711 0.015624 22.965 9.1445 44.98 25.379 61.215 16.238 16.238 38.254 25.363 61.215 25.379h7.8711v39.359c0 4.3477 3.5273 7.875 7.875 7.875 4.3477 0 7.8711-3.5273 7.8711-7.875v-8.9727l108.16-15.902-50.773 50.773c-1.4492 1.5039-2.2695 3.5039-2.2852 5.5898v15.742l-23.613 0.003907c-4.3477 0-7.8711 3.5234-7.8711 7.8711v70.848h-47.234c-4.3477 0-7.8711 3.5234-7.8711 7.8711v39.363c0 2.0859 0.82812 4.0898 2.3047 5.5664 1.4766 1.4727 3.4805 2.3047 5.5664 2.3047h299.14c2.0898 0 4.0898-0.83203 5.5664-2.3047 1.4766-1.4766 2.3047-3.4805 2.3047-5.5664v-39.363c0-2.0859-0.82812-4.0898-2.3047-5.5664-1.4766-1.4766-3.4766-2.3047-5.5664-2.3047h-47.23v-70.848c0-2.0898-0.83203-4.0898-2.3086-5.5664-1.4727-1.4766-3.4766-2.3047-5.5664-2.3047h-23.613v-15.746c-0.015625-2.0859-0.83203-4.0859-2.2852-5.5898l-55.34-55.34 112.73-16.531v14.484c0 2.0898 0.83203 4.0898 2.3086 5.5664 1.4766 1.4766 3.4766 2.3086 5.5664 2.3086zm-62.977-188.93c0-22.5 12.004-43.289 31.488-54.539 19.484-11.25 43.488-11.25 62.977 0 19.484 11.25 31.488 32.039 31.488 54.539 0.023438 18.133-7.8516 35.375-21.57 47.23h-33.535v-7.8711c8.4375 0 16.234-4.5 20.453-11.809 4.2188-7.3047 4.2188-16.309 0-23.617-4.2188-7.3047-12.016-11.805-20.453-11.805h-15.746c-4.3477 0-7.8711-3.5273-7.8711-7.875s3.5234-7.8711 7.8711-7.8711h15.746c2.0859 0 4.0898 0.82812 5.5664 2.3047 1.4766 1.4766 2.3047 3.4805 2.3047 5.5664 0 4.3477 3.5234 7.875 7.8711 7.875s7.875-3.5273 7.875-7.875c-0.019531-6.2578-2.5156-12.254-6.9375-16.676-4.4258-4.4258-10.422-6.9219-16.68-6.9375v-7.875c0-4.3477-3.5234-7.8711-7.8711-7.8711-4.3477 0-7.875 3.5234-7.875 7.8711v7.875c-8.4336 0-16.23 4.5-20.449 11.809-4.2188 7.3047-4.2188 16.309 0 23.613 4.2188 7.3086 12.016 11.809 20.449 11.809h15.746c4.3477 0 7.8711 3.5234 7.8711 7.8711 0 4.3477-3.5234 7.875-7.8711 7.875h-15.746c-4.3477 0-7.8711-3.5273-7.8711-7.875 0-4.3477-3.5234-7.8711-7.8711-7.8711-4.3477 0-7.8711 3.5234-7.8711 7.8711 0.015624 6.2578 2.5117 12.254 6.9375 16.68 4.4258 4.4258 10.418 6.918 16.676 6.9375v7.8711h-33.531c-13.723-11.855-21.594-29.098-21.57-47.23zm47.23 125.95c-17.418-0.023438-34.215-6.4531-47.195-18.07-12.98-11.613-21.23-27.598-23.18-44.906h172.24c-1.9492 17.309-10.199 33.293-23.176 44.906-12.98 11.617-29.781 18.047-47.199 18.07zm-194.59-78.723 10.469 31.488h-56.836l10.469-31.488zm-75.258-47.23h35.895l10.469 31.488h-56.832zm22.75 47.23-4.8008 14.484-4.8047-14.484zm-62.109 0h35.895l10.469 31.488h-56.836zm41.562 110.21c-17.418-0.023438-34.219-6.457-47.195-18.07-12.98-11.613-21.23-27.598-23.18-44.906h172.24c-1.9492 17.309-10.199 33.293-23.18 44.906-12.977 11.613-29.777 18.047-47.195 18.07zm291.27 196.8v23.617l-283.39-0.003907v-23.613zm-55.105-78.723v62.977h-173.18v-62.977zm-31.488-28.262v12.52h-110.21v-12.52l55.105-55.105z"/>
  <path d="m266.18 211.07c2.0859 0 4.0898-0.82812 5.5664-2.3047 1.4727-1.4766 2.3047-3.4805 2.3047-5.5664v-15.746c0-4.3477-3.5234-7.8711-7.8711-7.8711-4.3477 0-7.875 3.5234-7.875 7.8711v15.746c0 2.0859 0.83203 4.0898 2.3086 5.5664s3.4766 2.3047 5.5664 2.3047z"/>
  <path d="m220 217.68c2.1875 3.7305 6.9805 5 10.727 2.8359 3.75-2.1641 5.0469-6.9492 2.9102-10.711l-7.8711-13.633h-0.003907c-1.0352-1.8242-2.7539-3.1562-4.7812-3.707-2.0234-0.54688-4.1797-0.26953-5.9961 0.78125-1.8164 1.0469-3.1406 2.7773-3.6758 4.8047-0.53516 2.0273-0.24219 4.1836 0.82031 5.9922z"/>
  <path d="m301.6 220.56c3.7656 2.1758 8.5781 0.88672 10.754-2.8789l7.8711-13.633v-0.003906c1.0625-1.8086 1.3555-3.9648 0.82031-5.9922-0.53516-2.0273-1.8594-3.7578-3.6758-4.8047-1.8164-1.0508-3.9727-1.3281-5.9961-0.78125-2.0234 0.55078-3.7461 1.8828-4.7812 3.707l-7.8711 13.633c-2.1758 3.7656-0.88672 8.582 2.8789 10.754z"/>
 </g>
</svg>