<?xml version="1.0" encoding="UTF-8"?>
<!-- The Best Svg Icon site in the world: iconSvg.co, Visit us! https://iconsvg.co -->
<svg fill="#000000" width="800px" height="800px" version="1.1" viewBox="144 144 512 512" xmlns="http://www.w3.org/2000/svg">
 <g>
  <path d="m281.93 360.64c15.656 0 30.785-4.6016 43.734-13.293 21.906-14.633 34.988-39.094 34.988-65.426 0-9.0703-1.5352-17.918-4.5391-26.227-11.035-31.398-40.844-52.492-74.184-52.492-4.3477 0-7.8711 3.5234-7.8711 7.8711 0 4.3477 3.5234 7.8711 7.8711 7.8711 26.664 0 50.508 16.867 59.352 42.035 2.4062 6.6562 3.625 13.699 3.625 20.941 0 21.062-10.461 40.629-28 52.348-10.363 6.9531-22.457 10.629-34.977 10.629-34.723 0-62.977-28.25-62.977-62.977 0-15.523 5.6953-30.434 16.039-41.984 2.8984-3.2383 2.625-8.2148-0.61328-11.117-3.2383-2.9023-8.2109-2.6211-11.117 0.61328-12.93 14.441-20.051 33.086-20.051 52.488 0 43.406 35.312 78.719 78.719 78.719z"/>
  <path d="m415.74 510.21c-4.3477 0-7.8711 3.5234-7.8711 7.8711s3.5234 7.8711 7.8711 7.8711h7.8867c4.3477 0 7.8711-3.5234 7.8711-7.8711l0.003906-157.44c0-4.3477-3.5234-7.8711-7.8711-7.8711h-23.633c-4.3477 0-7.8711 3.5234-7.8711 7.8711 0 4.3477 3.5234 7.8711 7.8711 7.8711h15.758v141.7z"/>
  <path d="m486.59 321.28c4.3477 0 7.8711-3.5234 7.8711-7.8711s-3.5234-7.8711-7.8711-7.8711h-31.473c-4.3477 0-7.8711 3.5234-7.8711 7.8711v204.67c0 4.3477 3.5234 7.8711 7.8711 7.8711h47.23c4.3477 0 7.8711-3.5234 7.8711-7.8711v-188.93c0-4.3477-3.5234-7.8711-7.8711-7.8711s-7.8711 3.5234-7.8711 7.8711v181.05h-31.488v-188.93z"/>
  <path d="m533.84 407.87c-4.3477 0-7.8711 3.5234-7.8711 7.8711v102.34c0 4.3477 3.5234 7.8711 7.8711 7.8711h47.23c4.3477 0 7.8711-3.5234 7.8711-7.8711l0.003906-125.95c0-4.3477-3.5234-7.8711-7.8711-7.8711h-23.633c-4.3477 0-7.8711 3.5234-7.8711 7.8711s3.5234 7.8711 7.8711 7.8711h15.758v110.21h-31.488v-94.461c0-4.3477-3.5234-7.8711-7.8711-7.8711z"/>
  <path d="m393.67 383.95c-4.4297-4.7539-10.703-7.5117-17.43-7.5664h-36.762c-9.0938 0-17.254 5.0156-21.273 13.062l-36.27 71.812-36.258-71.789c-4.043-8.0742-12.199-13.086-21.289-13.086h-36.762c-6.5625 0-12.891 2.7344-17.375 7.4961-4.4531 4.7344-6.7812 11.16-6.3789 17.68l9.8398 143.81c1.9219 28.84 26.254 51.434 55.398 51.434h105.64c29.145 0 53.477-22.594 55.398-51.426l9.8398-143.81c0.003907-0.019531 0.003907-0.039062 0.003907-0.058594 0.39844-6.4219-1.9062-12.82-6.3242-17.555zm-19.223 160.37c-1.375 20.598-18.809 36.734-39.695 36.734h-105.64c-20.883 0-38.32-16.137-39.695-36.75l-9.8359-143.77c-0.13281-2.1797 0.625-4.2656 2.1367-5.875 1.543-1.6328 3.6406-2.5391 5.9102-2.5391h36.762c3.0898 0 5.8555 1.6836 7.2227 4.4141l43.297 85.727c2.6758 5.3047 11.379 5.3047 14.055 0l43.312-85.754c1.3477-2.707 4.1094-4.3867 7.2031-4.3867h36.855c2.2344 0.019531 4.3008 0.92969 5.8281 2.5625 1.4961 1.6016 2.2539 3.6719 2.125 5.8242z"/>
  <path d="m628.3 250.43h-236.18c-4.3477 0-7.8711 3.5234-7.8711 7.8711 0 4.3477 3.5234 7.8711 7.8711 7.8711h228.3v314.88h-212.56c-4.3477 0-7.8711 3.5234-7.8711 7.8711 0 4.3477 3.5234 7.8711 7.8711 7.8711h220.43c4.3477 0 7.8711-3.5234 7.8711-7.8711v-330.62c0-4.3477-3.5234-7.8711-7.8711-7.8711z"/>
 </g>
</svg>