<?xml version="1.0" encoding="UTF-8"?>
<!-- The Best Svg Icon site in the world: iconSvg.co, Visit us! https://iconsvg.co -->
<svg fill="#000000" width="800px" height="800px" version="1.1" viewBox="144 144 512 512" xmlns="http://www.w3.org/2000/svg">
 <g>
  <path d="m368.51 510.21c-4.3477 0-7.875-3.5234-7.875-7.8711 0-2.125-0.10938-4.2109-0.31641-6.2969h0.003907c-0.21094-2.082 0.41406-4.1562 1.7383-5.7734 1.3203-1.6172 3.2305-2.6445 5.3086-2.8516 4.3281-0.43359 8.1914 2.7188 8.625 7.0469 0.25 2.5742 0.38672 5.1875 0.38672 7.832v0.003906c0.011719 2.0938-0.81641 4.1055-2.293 5.5898-1.4766 1.4844-3.4844 2.3203-5.5781 2.3203z"/>
  <path d="m203.2 368.51h-31.488c-4.3477 0-7.875-3.5273-7.875-7.875v-118.08c0.019531-14.609 5.8281-28.617 16.16-38.945 10.332-10.332 24.336-16.145 38.945-16.16h78.723v-15.742c-0.003906-2.9609 1.6523-5.668 4.2852-7.0156 2.6328-1.3477 5.8008-1.1016 8.1992 0.62891l55.105 39.84h-0.003906c2.0586 1.4922 3.2734 3.8828 3.2617 6.4258-0.015625 2.5391-1.2539 4.918-3.332 6.3828l-55.105 38.887 0.003906 0.003906c-2.4062 1.6953-5.5547 1.9102-8.1641 0.55859-2.6133-1.3516-4.2539-4.0508-4.25-6.9922v-15.742h-78.723c-4.3477 0-7.8711 3.5234-7.8711 7.8711v118.08c0 2.0898-0.82812 4.0898-2.3047 5.5664s-3.4805 2.3086-5.5664 2.3086zm-23.617-15.746h15.742v-110.21c0-6.2656 2.4883-12.27 6.918-16.699 4.4297-4.4297 10.438-6.918 16.699-6.918h86.594c2.0859 0 4.0898 0.82812 5.5664 2.3047 1.4766 1.4766 2.3047 3.4805 2.3047 5.5664v8.4219l33.684-23.773-33.684-24.344v8.207c0 2.0898-0.82812 4.0898-2.3047 5.5664-1.4766 1.4766-3.4805 2.3086-5.5664 2.3086h-86.594c-10.434 0.011719-20.438 4.1602-27.816 11.539-7.3789 7.3789-11.531 17.383-11.543 27.82z"/>
  <path d="m289.79 478.72h15.746c2.0859 0 4.0898 0.82812 5.5664 2.3047 1.4766 1.4766 2.3047 3.4805 2.3047 5.5664 0 4.3477 3.5234 7.8711 7.8711 7.8711s7.8711-3.5234 7.8711-7.8711c0-6.2617-2.4844-12.27-6.9141-16.699s-10.438-6.9141-16.699-6.9141v-7.875c0-4.3477-3.5234-7.8711-7.8711-7.8711-4.3477 0-7.875 3.5234-7.875 7.8711v7.875c-8.4375 0-16.23 4.5-20.449 11.805-4.2188 7.3086-4.2188 16.312 0 23.617 4.2188 7.3086 12.012 11.809 20.449 11.809h15.746c4.3477 0 7.8711 3.5234 7.8711 7.8711s-3.5234 7.8711-7.8711 7.8711h-15.746c-4.3477 0-7.8711-3.5234-7.8711-7.8711s-3.5234-7.8711-7.8711-7.8711-7.8711 3.5234-7.8711 7.8711c0 6.2656 2.4883 12.27 6.9141 16.699 4.4297 4.4297 10.438 6.918 16.699 6.918v7.8711c0 4.3477 3.5273 7.8711 7.875 7.8711 4.3477 0 7.8711-3.5234 7.8711-7.8711v-7.8711c8.4375 0 16.234-4.5 20.453-11.809 4.2148-7.3086 4.2148-16.309 0-23.617-4.2188-7.3047-12.016-11.809-20.453-11.809h-15.746c-4.3477 0-7.8711-3.5234-7.8711-7.8711s3.5234-7.8711 7.8711-7.8711z"/>
  <path d="m297.66 400c-27.145 0-53.172 10.781-72.363 29.973-19.191 19.191-29.977 45.223-29.977 72.363 0 27.141 10.785 53.168 29.977 72.363 19.191 19.191 45.219 29.973 72.363 29.973 27.141 0 53.168-10.781 72.359-29.973 19.191-19.195 29.977-45.223 29.977-72.363-0.03125-27.133-10.824-53.145-30.008-72.328-19.188-19.188-45.199-29.977-72.328-30.008zm0 188.93v-0.003907c-22.969 0-44.992-9.1211-61.23-25.359-16.242-16.242-25.363-38.266-25.363-61.23 0-22.969 9.1211-44.992 25.363-61.23 16.238-16.238 38.262-25.363 61.23-25.363 22.965 0 44.988 9.125 61.227 25.363 16.242 16.238 25.363 38.262 25.363 61.23-0.027344 22.957-9.1602 44.965-25.391 61.199-16.234 16.234-38.242 25.363-61.199 25.391z"/>
  <path d="m276.59 561.69c-17.816-6.4453-31.844-20.48-38.281-38.301-1.457-4.0977-5.9609-6.2383-10.059-4.7812s-6.2383 5.9609-4.7812 10.059c7.9102 22.348 25.484 39.93 47.828 47.844 0.85156 0.30859 1.7461 0.46484 2.6484 0.46484 3.8281 0.003907 7.1055-2.7539 7.7578-6.5273 0.65234-3.7773-1.5039-7.4727-5.1133-8.7578z"/>
  <path d="m368.79 468.6c-7.6094-15.914-20.301-28.844-36.078-36.746-1.8711-0.98828-4.0664-1.1797-6.082-0.53125-2.0156 0.64844-3.6875 2.082-4.6328 3.9805-0.94531 1.8945-1.0898 4.0898-0.39453 6.0938 0.69141 2 2.1641 3.6367 4.082 4.543 12.629 6.3281 22.793 16.68 28.891 29.426 1.8945 3.875 6.5547 5.5 10.453 3.6484 3.8945-1.8555 5.5742-6.4961 3.7617-10.414z"/>
  <path d="m297.66 368.51c-35.496 0-69.531 14.098-94.629 39.195-25.098 25.098-39.199 59.137-39.199 94.629 0 35.492 14.102 69.531 39.199 94.629 25.098 25.094 59.133 39.195 94.629 39.195 35.492 0 69.531-14.102 94.625-39.195 25.098-25.098 39.199-59.137 39.199-94.629-0.042969-35.48-14.152-69.496-39.242-94.586-25.086-25.09-59.105-39.199-94.582-39.238zm0 251.91v-0.003907c-31.32 0-61.352-12.441-83.496-34.582-22.145-22.145-34.586-52.18-34.586-83.496 0-31.316 12.441-61.352 34.586-83.496 22.145-22.145 52.176-34.586 83.496-34.586 31.316 0 61.348 12.441 83.492 34.586 22.145 22.145 34.586 52.18 34.586 83.496-0.035157 31.305-12.488 61.32-34.625 83.457-22.137 22.137-52.148 34.586-83.453 34.621z"/>
  <path d="m502.34 163.84c-35.492 0-69.531 14.102-94.629 39.199-25.098 25.098-39.195 59.133-39.195 94.629 0 35.492 14.098 69.531 39.195 94.625 25.098 25.098 59.137 39.199 94.629 39.199 35.492 0 69.531-14.102 94.629-39.199 25.094-25.094 39.195-59.133 39.195-94.625-0.050781-35.48-14.168-69.488-39.254-94.574-25.086-25.086-59.094-39.203-94.57-39.254zm0 251.91c-31.316 0-61.352-12.441-83.496-34.586-22.145-22.145-34.586-52.176-34.586-83.492 0-31.32 12.441-61.352 34.586-83.496 22.145-22.145 52.18-34.586 83.496-34.586 31.316 0 61.352 12.441 83.496 34.586 22.141 22.145 34.582 52.176 34.582 83.496-0.035156 31.305-12.488 61.316-34.625 83.453-22.137 22.137-52.148 34.586-83.453 34.625z"/>
  <path d="m502.34 195.32c-27.141 0-53.172 10.785-72.363 29.977-19.191 19.191-29.973 45.219-29.973 72.363 0 27.141 10.781 53.168 29.973 72.359 19.191 19.191 45.223 29.977 72.363 29.977 27.141 0 53.168-10.785 72.363-29.977 19.191-19.191 29.973-45.219 29.973-72.359-0.027344-27.137-10.816-53.152-30.004-72.336-19.184-19.188-45.199-29.977-72.332-30.004zm0 188.93c-22.969 0-44.992-9.1211-61.23-25.363-16.238-16.238-25.363-38.262-25.363-61.227 0-22.969 9.125-44.992 25.363-61.23 16.238-16.242 38.262-25.363 61.23-25.363 22.965 0 44.988 9.1211 61.23 25.363 16.238 16.238 25.359 38.262 25.359 61.23-0.011719 22.961-9.1406 44.977-25.379 61.211-16.234 16.238-38.25 25.363-61.211 25.379z"/>
  <path d="m475.97 371.84c0.84766 0.30859 1.7422 0.46484 2.6445 0.46484 3.832 0 7.1055-2.7539 7.7578-6.5312 0.65625-3.7734-1.5039-7.4688-5.1133-8.7578-17.816-6.4414-31.844-20.477-38.281-38.297-1.457-4.0977-5.9609-6.2383-10.059-4.7812s-6.2383 5.9609-4.7812 10.055c7.9102 22.348 25.484 39.93 47.832 47.848z"/>
  <path d="m565 291.36c0.20312 2.0703 0.31641 4.1562 0.31641 6.2969v0.003906c0 4.3477 3.5234 7.8711 7.8711 7.8711s7.8711-3.5234 7.8711-7.8711c0-2.6445-0.13281-5.2578-0.38672-7.8711v-0.003907c-0.43359-4.3281-4.293-7.4844-8.6211-7.0469-4.3281 0.43359-7.4844 4.293-7.0508 8.6211z"/>
  <path d="m530.35 241.27c12.629 6.332 22.793 16.684 28.891 29.426 1.8945 3.875 6.5547 5.5039 10.453 3.6523 3.8945-1.8555 5.5742-6.4961 3.7617-10.414-7.6055-15.918-20.301-28.848-36.074-36.746-3.8711-1.8242-8.4922-0.22266-10.402 3.6055-1.9102 3.8281-0.41406 8.4805 3.3711 10.477z"/>
  <path d="m628.29 431.49h-31.488c-4.3477 0-7.875 3.5234-7.875 7.8711v118.08c0 2.0898-0.82812 4.0898-2.3047 5.5664-1.4766 1.4766-3.4766 2.3086-5.5664 2.3086h-78.719v-15.746c0-2.9414-1.6406-5.6367-4.2539-6.9922-2.6094-1.3516-5.7578-1.1367-8.1602 0.5625l-55.105 38.887c-2.0742 1.4648-3.3164 3.8438-3.3281 6.3867-0.015625 2.5391 1.1992 4.9336 3.2578 6.4219l55.105 39.84c2.3945 1.7344 5.5625 1.9766 8.1953 0.62891 2.6328-1.3477 4.2891-4.0547 4.2891-7.0117v-15.746h78.719c14.609-0.015625 28.617-5.8281 38.945-16.156 10.332-10.332 16.141-24.34 16.16-38.949v-118.08c0-2.0898-0.83203-4.0898-2.3047-5.5664-1.4766-1.4766-3.4805-2.3047-5.5664-2.3047zm-7.875 125.95c-0.011718 10.438-4.1641 20.441-11.539 27.82-7.3789 7.3789-17.387 11.527-27.82 11.543h-86.594c-4.3477 0-7.8711 3.5234-7.8711 7.8711v8.2109l-33.684-24.348 33.684-23.773v8.4219c0 2.0859 0.83203 4.0898 2.3047 5.5664 1.4766 1.4766 3.4805 2.3047 5.5664 2.3047h86.594c6.2656 0 12.27-2.4883 16.699-6.918 4.4297-4.4258 6.918-10.434 6.918-16.699v-110.21h15.742z"/>
  <path d="m541.7 281.92c-0.027343-4.8711-1.5508-9.6133-4.3672-13.586-2.8164-3.9727-6.7891-6.9805-11.379-8.6133v-9.2891c0-4.3477-3.5234-7.8711-7.8711-7.8711s-7.8711 3.5234-7.8711 7.8711v7.8711h-7.8711v-7.8711c0-4.3477-3.5273-7.8711-7.875-7.8711-4.3477 0-7.8711 3.5234-7.8711 7.8711v7.8711h-15.742c-4.3477 0-7.8711 3.5273-7.8711 7.875 0 4.3477 3.5234 7.8711 7.8711 7.8711h7.8711v47.23h-7.8711c-4.3477 0-7.8711 3.5234-7.8711 7.8711 0 4.3477 3.5234 7.875 7.8711 7.875h15.742v7.8711c0 4.3477 3.5234 7.8711 7.8711 7.8711 4.3477 0 7.875-3.5234 7.875-7.8711v-7.8711h7.8711v7.8711c0 4.3477 3.5234 7.8711 7.8711 7.8711s7.8711-3.5234 7.8711-7.8711v-9.2891c4.5898-1.6328 8.5625-4.6406 11.379-8.6133 2.8164-3.9727 4.3398-8.7148 4.3672-13.586-0.015624-5.8281-2.2031-11.445-6.1406-15.742 3.9375-4.3008 6.125-9.918 6.1406-15.746zm-23.617 39.359h-23.617v-15.742h23.617c4.3477 0 7.8711 3.5234 7.8711 7.8711s-3.5234 7.8711-7.8711 7.8711zm0-31.488h-23.617v-15.742h23.617c4.3477 0 7.8711 3.5234 7.8711 7.8711 0 4.3477-3.5234 7.8711-7.8711 7.8711z"/>
 </g>
</svg>