<?xml version="1.0" encoding="UTF-8"?>
<!-- The Best Svg Icon site in the world: iconSvg.co, Visit us! https://iconsvg.co -->
<svg fill="#000000" width="800px" height="800px" version="1.1" viewBox="144 144 512 512" xmlns="http://www.w3.org/2000/svg">
 <g>
  <path d="m549.57 462.98c-13.664 0.054688-27.125 3.3438-39.273 9.6016-19.984-10.332-43.219-12.418-64.723-5.8164 4.3203-8.0781 9.4805-15.68 15.391-22.68 23.477-27.762 35.383-63.484 33.258-99.777-2.125-36.297-18.117-70.387-44.672-95.219-26.559-24.832-61.641-38.504-97.996-38.191-36.355 0.30859-71.199 14.586-97.328 39.867-26.125 25.285-41.531 59.645-43.031 95.969-1.5039 36.324 11.016 71.84 34.965 99.195 18.418 21.668 28.332 49.297 27.891 77.734v73.141c0.007813 2.0898 0.83984 4.0898 2.3125 5.5703l31.488 31.488c1.4766 1.4727 3.4766 2.3008 5.5586 2.3008h78.719c2.0898 0 4.0898-0.83203 5.5664-2.3086l17.781-17.781h0.003906c13.012 10.895 28.953 17.703 45.824 19.566 16.867 1.8672 33.914-1.293 48.992-9.082 23.613 12.055 51.453 12.621 75.535 1.5312 24.082-11.09 41.75-32.609 47.938-58.391 6.1914-25.781 0.21875-52.977-16.203-73.789-16.422-20.816-41.484-32.953-67.996-32.93zm-291.57-27.406c-24.082-27.254-35.066-63.664-30.078-99.688 3.8359-27.727 16.758-53.398 36.746-72.992 19.988-19.594 45.91-32.004 73.703-35.289 35.781-4.2617 71.656 7.1484 98.402 31.289 24.434 21.836 39.383 52.344 41.66 85.031 2.2812 32.691-8.2891 64.977-29.461 89.988-10.887 12.77-19.438 27.359-25.25 43.102-17.539 11.43-30.363 28.809-36.109 48.938h-97.82v-2.2891c0.4375-32.246-10.863-63.555-31.793-88.09zm126.66 121.87h-94.867v-15.742h94.867c-0.23438 2.5977-0.40234 5.2109-0.40234 7.8711s0.16406 5.2734 0.40234 7.8711zm-94.867 15.746h97.82c1.5469 5.4375 3.625 10.711 6.2031 15.742h-104.02zm99.078 47.23h-72.203l-15.742-15.742h103.18c0.078126 0.09375 0.16406 0.17188 0.24219 0.26953zm81.98 0c-18.793 0-36.812-7.4648-50.098-20.75-13.289-13.285-20.75-31.309-20.75-50.098 0-18.789 7.4609-36.809 20.75-50.098 13.285-13.285 31.305-20.75 50.098-20.75 18.789 0 36.809 7.4648 50.098 20.75 13.285 13.289 20.75 31.309 20.75 50.098-0.019531 18.785-7.4922 36.793-20.773 50.074s-31.293 20.754-50.074 20.773zm78.719 0c-8.0273-0.042968-15.988-1.4531-23.543-4.1641 19.895-16.426 31.418-40.879 31.418-66.684 0-25.801-11.523-50.258-31.418-66.684 19.68-6.9648 41.43-4.8828 59.434 5.6797 18.008 10.562 30.434 28.535 33.957 49.113 3.5195 20.578-2.2188 41.66-15.684 57.613-13.469 15.949-33.289 25.145-54.164 25.125z"/>
  <path d="m344.89 163.84h15.742v31.488h-15.742z"/>
  <path d="m185.22 440.41 27.27-15.746 7.8711 13.633-27.27 15.746z"/>
  <path d="m424.67 212.48 15.746-27.27 13.633 7.8711-15.746 27.27z"/>
  <path d="m485.17 267.22 27.27-15.742 7.8711 13.637-27.27 15.742z"/>
  <path d="m510.21 344.89h31.488v15.742h-31.488z"/>
  <path d="m485.18 438.31 7.8711-13.633 27.27 15.746-7.8711 13.633z"/>
  <path d="m251.49 193.09 13.633-7.8711 15.746 27.27-13.633 7.8711z"/>
  <path d="m185.22 265.11 7.8711-13.633 27.27 15.746-7.8711 13.633z"/>
  <path d="m163.84 344.89h31.488v15.742h-31.488z"/>
  <path d="m470.85 525.95c2.0859 0 4.0898 0.83203 5.5664 2.3086 1.4766 1.4766 2.3047 3.4766 2.3047 5.5664h15.742c-0.019532-4.8672-1.543-9.6094-4.3594-13.578-2.8203-3.9688-6.793-6.9688-11.383-8.5898v-9.3203h-15.742v9.3203c-7.0547 2.4844-12.512 8.1719-14.703 15.32-2.1914 7.1523-0.85547 14.922 3.5977 20.93s11.496 9.5469 18.977 9.5312c3.1836 0 6.0547 1.918 7.2734 4.8594s0.54297 6.3281-1.707 8.582c-2.2539 2.25-5.6367 2.9219-8.5781 1.7031-2.9414-1.2148-4.8594-4.0859-4.8594-7.2695h-15.746c0.019531 4.8672 1.543 9.6055 4.3633 13.574 2.8164 3.9688 6.793 6.9688 11.383 8.5938v9.3203h15.742v-9.3203c7.0547-2.4883 12.512-8.1719 14.699-15.324 2.1914-7.1523 0.85547-14.918-3.5977-20.93-4.4531-6.0078-11.496-9.5469-18.973-9.5312-4.3477 0-7.8711-3.5234-7.8711-7.8711 0-4.3477 3.5234-7.875 7.8711-7.875z"/>
 </g>
</svg>