<?xml version="1.0" encoding="UTF-8"?>
<!-- The Best Svg Icon site in the world: iconSvg.co, Visit us! https://iconsvg.co -->
<svg fill="#000000" width="800px" height="800px" version="1.1" viewBox="144 144 512 512" xmlns="http://www.w3.org/2000/svg">
 <g>
  <path d="m549.57 636.16c8.3516 0 16.359-3.3203 22.266-9.2227 5.9062-5.9062 9.2227-13.914 9.2227-22.266v-409.35c0-8.3477-3.3164-16.359-9.2227-22.266-5.9062-5.9023-13.914-9.2227-22.266-9.2227h-267.65c-2.0898 0.011718-4.0938 0.83984-5.5742 2.3164l-55.105 55.105h0.003907c-0.73047 0.72656-1.3086 1.5898-1.7031 2.543-0.39844 0.95312-0.60156 1.9766-0.59766 3.0117v377.86c0 8.3516 3.3164 16.359 9.2227 22.266 5.9062 5.9023 13.914 9.2227 22.266 9.2227zm-275.52-445.45v12.488c0 4.1758-1.6602 8.1797-4.6133 11.133s-6.957 4.6094-11.133 4.6094h-12.484zm-39.359 413.96v-369.98h23.617-0.003907c8.3516 0 16.363-3.3203 22.266-9.2227 5.9062-5.9062 9.2227-13.914 9.2227-22.266v-23.617h259.78c4.1758 0 8.1797 1.6602 11.133 4.6094 2.9531 2.9531 4.6133 6.957 4.6133 11.133v409.35c0 4.1758-1.6602 8.1797-4.6133 11.133-2.9531 2.9531-6.957 4.6094-11.133 4.6094h-299.14c-4.1758 0-8.1797-1.6562-11.133-4.6094-2.9531-2.9531-4.6094-6.957-4.6094-11.133z"/>
  <path d="m344.89 258.3h110.21c2.0898 0 4.0898-0.82812 5.5664-2.3047 1.4766-1.4766 2.3086-3.4766 2.3086-5.5664v-31.488c0-2.0859-0.83203-4.0898-2.3086-5.5664-1.4766-1.4766-3.4766-2.3047-5.5664-2.3047h-110.21c-4.3477 0-7.8711 3.5234-7.8711 7.8711v31.488c0 2.0898 0.82812 4.0898 2.3047 5.5664 1.4766 1.4766 3.4766 2.3047 5.5664 2.3047zm7.8711-31.488h94.465v15.742l-94.465 0.003906z"/>
  <path d="m258.3 604.67h125.95c2.0898 0 4.0898-0.83203 5.5664-2.3047 1.4766-1.4766 2.3047-3.4805 2.3047-5.5664v-299.14c0-2.0898-0.82812-4.0938-2.3047-5.5664-1.4766-1.4766-3.4766-2.3086-5.5664-2.3086h-125.95c-4.3477 0-7.8711 3.5273-7.8711 7.875v299.14c0 2.0859 0.82812 4.0898 2.3047 5.5664 1.4766 1.4727 3.4805 2.3047 5.5664 2.3047zm7.8711-15.742 0.003906-251.91h110.21v251.9zm110.21-283.39v15.742h-110.21v-15.742z"/>
  <path d="m329.15 352.77h-47.23c-4.3477 0-7.8711 3.5234-7.8711 7.8711 0 4.3477 3.5234 7.875 7.8711 7.875h47.23c4.3477 0 7.875-3.5273 7.875-7.875 0-4.3477-3.5273-7.8711-7.875-7.8711z"/>
  <path d="m329.15 384.25h-47.23c-4.3477 0-7.8711 3.5234-7.8711 7.8711s3.5234 7.875 7.8711 7.875h47.23c4.3477 0 7.875-3.5273 7.875-7.875s-3.5273-7.8711-7.875-7.8711z"/>
  <path d="m329.15 415.74h-47.23c-4.3477 0-7.8711 3.5234-7.8711 7.8711 0 4.3477 3.5234 7.875 7.8711 7.875h47.23c4.3477 0 7.875-3.5273 7.875-7.875 0-4.3477-3.5273-7.8711-7.875-7.8711z"/>
  <path d="m329.15 447.23h-47.23c-4.3477 0-7.8711 3.5234-7.8711 7.8711 0 4.3477 3.5234 7.875 7.8711 7.875h47.23c4.3477 0 7.875-3.5273 7.875-7.875 0-4.3477-3.5273-7.8711-7.875-7.8711z"/>
  <path d="m329.15 478.72h-47.23c-4.3477 0-7.8711 3.5234-7.8711 7.8711s3.5234 7.8711 7.8711 7.8711h47.23c4.3477 0 7.875-3.5234 7.875-7.8711s-3.5273-7.8711-7.875-7.8711z"/>
  <path d="m329.15 510.21h-47.23c-4.3477 0-7.8711 3.5234-7.8711 7.8711s3.5234 7.8711 7.8711 7.8711h47.23c4.3477 0 7.875-3.5234 7.875-7.8711s-3.5273-7.8711-7.875-7.8711z"/>
  <path d="m407.87 297.66v299.14c0 2.0859 0.82812 4.0898 2.3047 5.5664 1.4766 1.4727 3.4805 2.3047 5.5664 2.3047h125.95c2.0859 0 4.0898-0.83203 5.5664-2.3047 1.4766-1.4766 2.3047-3.4805 2.3047-5.5664v-299.14c0-2.0898-0.82812-4.0938-2.3047-5.5664-1.4766-1.4766-3.4805-2.3086-5.5664-2.3086h-125.95c-4.3477 0-7.8711 3.5273-7.8711 7.875zm15.742 291.27v-251.91h110.21v251.9zm110.21-283.39v15.742h-110.21v-15.742z"/>
  <path d="m486.59 352.77h-47.23c-4.3477 0-7.8711 3.5234-7.8711 7.8711 0 4.3477 3.5234 7.875 7.8711 7.875h47.23c4.3477 0 7.8711-3.5273 7.8711-7.875 0-4.3477-3.5234-7.8711-7.8711-7.8711z"/>
  <path d="m486.59 384.25h-47.23c-4.3477 0-7.8711 3.5234-7.8711 7.8711s3.5234 7.875 7.8711 7.875h47.23c4.3477 0 7.8711-3.5273 7.8711-7.875s-3.5234-7.8711-7.8711-7.8711z"/>
  <path d="m486.59 415.74h-47.23c-4.3477 0-7.8711 3.5234-7.8711 7.8711 0 4.3477 3.5234 7.875 7.8711 7.875h47.23c4.3477 0 7.8711-3.5273 7.8711-7.875 0-4.3477-3.5234-7.8711-7.8711-7.8711z"/>
  <path d="m486.59 447.23h-47.23c-4.3477 0-7.8711 3.5234-7.8711 7.8711 0 4.3477 3.5234 7.875 7.8711 7.875h47.23c4.3477 0 7.8711-3.5273 7.8711-7.875 0-4.3477-3.5234-7.8711-7.8711-7.8711z"/>
  <path d="m486.59 478.72h-47.23c-4.3477 0-7.8711 3.5234-7.8711 7.8711s3.5234 7.8711 7.8711 7.8711h47.23c4.3477 0 7.8711-3.5234 7.8711-7.8711s-3.5234-7.8711-7.8711-7.8711z"/>
  <path d="m486.59 510.21h-47.23c-4.3477 0-7.8711 3.5234-7.8711 7.8711s3.5234 7.8711 7.8711 7.8711h47.23c4.3477 0 7.8711-3.5234 7.8711-7.8711s-3.5234-7.8711-7.8711-7.8711z"/>
  <path d="m486.59 541.7h-47.23c-4.3477 0-7.8711 3.5234-7.8711 7.8711s3.5234 7.8711 7.8711 7.8711h47.23c4.3477 0 7.8711-3.5234 7.8711-7.8711s-3.5234-7.8711-7.8711-7.8711z"/>
 </g>
</svg>