<?xml version="1.0" encoding="UTF-8"?>
<!-- The Best Svg Icon site in the world: iconSvg.co, Visit us! https://iconsvg.co -->
<svg fill="#000000" width="800px" height="800px" version="1.1" viewBox="144 144 512 512" xmlns="http://www.w3.org/2000/svg">
 <g>
  <path d="m620.41 176.87h-440.83c-8.6797 0-15.742 7.0625-15.742 15.742v299.14c0 8.6836 7.0664 15.742 15.742 15.742h244.03c4.3516 0 7.8711-3.5234 7.8711-7.8711 0-4.3477-3.5195-7.8711-7.8711-7.8711h-244.03v-299.14h440.83v299.14h-23.617c-8.6797 0-15.742 7.0625-15.742 15.742v99.859l-112.19-105.59c-3.1602-2.9844-8.1406-2.8359-11.133 0.33594-2.9766 3.168-2.8281 8.1484 0.33984 11.129l112.19 105.59c3.0117 2.8359 6.8203 4.3164 10.715 4.3164 2.1133 0 4.2578-0.43359 6.3203-1.3242 5.8672-2.5352 9.5039-8.0742 9.5039-14.461v-99.859h23.617c8.6797 0 15.742-7.0625 15.742-15.742v-299.14c0-8.6875-7.0664-15.746-15.746-15.746z"/>
  <path d="m305.54 452.39c-4.3516 0-7.8711 3.5234-7.8711 7.8711 0 4.3477 3.5195 7.8711 7.8711 7.8711h23.617c4.3516 0 7.8711-3.5234 7.8711-7.8711v-102.34c0-4.3477-3.5195-7.8711-7.8711-7.8711h-47.23c-4.3516 0-7.8711 3.5234-7.8711 7.8711v86.594c0 4.3477 3.5195 7.8711 7.8711 7.8711s7.8711-3.5234 7.8711-7.8711v-78.719h31.488v86.594z"/>
  <path d="m423.61 342.18c-4.3516 0-7.8711 3.5234-7.8711 7.8711v102.34h-31.488v-118.08h15.742c4.3516 0 7.8711-3.5234 7.8711-7.8711s-3.5195-7.8711-7.8711-7.8711h-23.617c-4.3516 0-7.8711 3.5234-7.8711 7.8711v133.82c0 4.3477 3.5195 7.8711 7.8711 7.8711h47.23c4.3516 0 7.8711-3.5234 7.8711-7.8711v-110.21c0.007812-4.3477-3.5156-7.8711-7.8672-7.8711z"/>
  <path d="m494.46 287.07c4.3516 0 7.8711-3.5234 7.8711-7.8711s-3.5195-7.8711-7.8711-7.8711h-23.617c-4.3516 0-7.8711 3.5234-7.8711 7.8711v181.05c0 4.3477 3.5195 7.8711 7.8711 7.8711h47.23c4.3516 0 7.8711-3.5234 7.8711-7.8711v-165.31c0-4.3477-3.5195-7.8711-7.8711-7.8711-4.3516 0-7.8711 3.5234-7.8711 7.8711v157.44h-31.488v-165.31z"/>
  <path d="m404.35 294.12c2.6367 1.3203 5.7812 1.0547 8.1484-0.67578l81.961-59.613v13.887c0 4.3477 3.5195 7.8711 7.8711 7.8711 4.3516 0 7.8711-3.5234 7.8711-7.8711v-31.488c0-4.3477-3.5195-7.8711-7.8711-7.8711h-31.488c-4.3516 0-7.8711 3.5234-7.8711 7.8711 0 4.3477 3.5195 7.8711 7.8711 7.8711h10.234l-73.973 53.793-27.207-13.602c-2.3672-1.1836-5.1953-1.1055-7.4883 0.24219l-94.465 55.105c-3.75 2.1914-5.0195 7.0117-2.8359 10.766 1.4688 2.5078 4.1055 3.9062 6.8125 3.9062 1.3438 0 2.7148-0.34766 3.9609-1.0742l90.781-52.961z"/>
 </g>
</svg>