<?xml version="1.0" encoding="UTF-8"?>
<!-- The Best Svg Icon site in the world: iconSvg.co, Visit us! https://iconsvg.co -->
<svg fill="#000000" width="800px" height="800px" version="1.1" viewBox="144 144 512 512" xmlns="http://www.w3.org/2000/svg">
 <g>
  <path d="m407.87 187.61v-23.773h-15.746v23.773c-122.5 3.293-228.29 82.707-228.29 173.03 0 4.3477 3.5273 7.875 7.875 7.875 4.3477 0 7.8711-3.5273 7.8711-7.875 0-17.066 21.633-31.488 47.23-31.488 25.602 0 47.23 14.422 47.23 31.488h0.003906c0 4.3477 3.5234 7.875 7.8711 7.875 4.3477 0 7.8711-3.5273 7.8711-7.875 0-17.066 23.434-31.488 51.168-31.488s51.168 14.422 51.168 31.488c0 4.3477 3.5273 7.875 7.875 7.875s7.8711-3.5273 7.8711-7.875c0-17.066 23.434-31.488 51.168-31.488 27.734 0 51.168 14.422 51.168 31.488 0 4.3477 3.5234 7.875 7.8711 7.875s7.8711-3.5273 7.8711-7.875c0-17.066 21.633-31.488 47.23-31.488 25.602 0 47.23 14.422 47.23 31.488h0.003906c0 4.3477 3.5273 7.875 7.875 7.875 4.3477 0 7.8711-3.5273 7.8711-7.875 0-90.32-105.79-169.73-228.29-173.03zm-131.97 143.6c-13.562-11.859-31.074-18.211-49.09-17.805-14.445-0.17578-28.645 3.7617-40.934 11.359 19.57-54.758 82.113-96.824 150.6-113.59-31.426 25.355-54.184 68.887-60.578 120.04zm116.22-1.1719c-14.625-11.281-32.703-17.16-51.168-16.633-2.9141 0-5.7461 0.16406-8.5508 0.41016-0.83594 0.070313-1.6523 0.17188-2.4805 0.26953-2.0312 0.22656-4.0234 0.51172-5.9844 0.86719-0.78906 0.14062-1.5742 0.27734-2.3633 0.44141-2.4883 0.51953-4.9219 1.1016-7.2656 1.8125l-0.40234 0.10156c-2.4648 0.74609-4.8164 1.6289-7.0859 2.5742-0.67578 0.27734-1.332 0.58203-2 0.88281-1.6445 0.73828-3.2344 1.5273-4.7695 2.3633-0.64453 0.34766-1.2891 0.69141-1.9141 1.0547l0.007813-0.007813c-1.8281 1.0547-3.6016 2.2031-5.3125 3.4414-0.16406 0.11719-0.34766 0.21875-0.51172 0.34766l-0.085938 0.054687c9.9492-67.656 50.484-119.31 99.887-124.32zm115.61-2.0938c-0.16406-0.125-0.34766-0.22656-0.51172-0.34766-1.7109-1.2344-3.4844-2.3828-5.3125-3.4375-0.62109-0.36328-1.2656-0.70703-1.9141-1.0547-1.5391-0.82422-3.1289-1.6094-4.7695-2.3633-0.66797-0.30078-1.3242-0.60547-2-0.88281-2.2891-0.94531-4.6445-1.8281-7.0859-2.5742l-0.40234-0.10156c-2.3633-0.70703-4.7773-1.2891-7.2656-1.8125-0.78906-0.16406-1.5742-0.30078-2.3633-0.44141-1.9609-0.35547-3.9375-0.63672-5.9844-0.86719-0.82812-0.09375-1.6445-0.19531-2.4805-0.26953-2.8594-0.22266-5.6914-0.38672-8.6055-0.38672-2.9141 0-5.8555 0.16406-8.707 0.41797-0.89844 0.078125-1.7539 0.19531-2.6367 0.30859-1.9688 0.22656-3.9375 0.49609-5.8086 0.84375-0.9375 0.17188-1.8672 0.35547-2.793 0.55078-1.8633 0.40234-3.6992 0.85938-5.5117 1.3711-0.78906 0.21875-1.5742 0.42578-2.3633 0.66797-2.4414 0.78906-4.8164 1.6133-7.0859 2.5742l-0.16406 0.054687v-0.003906c-2.2695 0.98047-4.4922 2.0781-6.6523 3.2812-0.62891 0.35547-1.2109 0.73828-1.8281 1.1016-1.4648 0.88281-2.8828 1.7852-4.2266 2.7461-0.64453 0.46484-1.2656 0.92969-1.8828 1.4102-0.61328 0.48047-1.0547 0.78906-1.5742 1.1484l0.003906-126.18c0.33984 0 0.68359 0 1.0234 0.0625 1.3789 0.15625 2.7305 0.43359 4.1016 0.66016 1.7617 0.30078 3.5273 0.58984 5.2656 1.0078 1.3867 0.33203 2.7383 0.78906 4.1016 1.1562 1.6758 0.50391 3.3633 1 5.0156 1.5742 1.3633 0.49609 2.6914 1.0781 4.0312 1.6523 1.5742 0.68359 3.2109 1.3789 4.793 2.1641 1.3242 0.66016 2.6211 1.3867 3.9375 2.1172 1.5742 0.86719 3.0703 1.7461 4.5742 2.707 1.2812 0.78906 2.5352 1.6758 3.7852 2.5586 1.4727 1.0312 2.9297 2.1016 4.3594 3.2266 1.2188 0.95312 2.418 1.9453 3.6133 2.9688 1.3945 1.1953 2.7773 2.4414 4.1328 3.7227 1.1562 1.0859 2.2969 2.1953 3.418 3.3438 1.332 1.3633 2.6289 2.7695 3.9375 4.2109 1.0781 1.2109 2.1484 2.4336 3.1953 3.6992 1.25 1.5117 2.457 3.0781 3.6602 4.668 1 1.3242 2.0078 2.6523 2.9766 4.0312 1.1562 1.6602 2.2734 3.3789 3.3867 5.1094 0.92187 1.4258 1.8438 2.8516 2.7227 4.3203 1.0781 1.8125 2.1016 3.6914 3.1484 5.5742 0.78906 1.5039 1.6523 2.9922 2.4336 4.5352 0.99219 1.9766 1.9219 4.0156 2.8516 6.0547 0.71484 1.5742 1.457 3.1094 2.1328 4.7227 0.90625 2.1406 1.7305 4.3594 2.5664 6.5664 0.59766 1.5742 1.2344 3.1484 1.8008 4.7773 0.78906 2.3633 1.5742 4.8086 2.2812 7.2422 0.47266 1.5742 0.99219 3.0703 1.4258 4.6445 0.78906 2.7305 1.4102 5.5117 2.0625 8.3359 0.31641 1.3633 0.68359 2.6758 0.97656 4.0547 0.89062 4.2031 1.668 8.4766 2.3047 12.816zm65.449-14.539c-18.016-0.40625-35.527 5.9453-49.09 17.805-6.4648-51.703-29.633-95.613-61.605-120.84 75.188 17.32 131.59 64.203 150.78 113.86h-0.003906c-12.105-7.2383-25.98-10.984-40.082-10.824z"/>
  <path d="m549.07 463.76c2.7227-24.789-6.4609-49.398-24.758-66.344-18.297-16.945-43.539-24.223-68.047-19.609-24.508 4.6094-45.379 20.559-56.266 42.996-10.434-21.543-30.102-37.164-53.441-42.457-23.344-5.293-47.824 0.32031-66.527 15.254-18.703 14.934-29.598 37.566-29.602 61.5 0 2.7617 0.15625 5.5156 0.46484 8.2578 2.3164 39.164 21.359 75.441 52.277 99.59l91.992 71.559c2.8438 2.2109 6.8242 2.2109 9.668 0l91.992-71.559c30.828-24.043 49.855-60.164 52.246-99.188zm-282.5-1.6914c-0.25781-2.3125-0.39062-4.6406-0.39844-6.9688 0-22.5 12-43.289 31.488-54.539 19.484-11.25 43.488-11.25 62.973 0 19.488 11.25 31.488 32.039 31.488 54.539 0 4.3477 3.5273 7.875 7.875 7.875s7.8711-3.5273 7.8711-7.875c0-22.5 12.004-43.289 31.488-54.539s43.492-11.25 62.977 0c19.484 11.25 31.488 32.039 31.488 54.539-0.015625 2.4414-0.16016 4.8789-0.43359 7.3047-1.0234 16.664-5.4688 32.934-13.059 47.801h-49.484c-2.6328 0-5.0898 1.3125-6.5508 3.5039l-6.8164 10.234-18.531-55.578c-1.0625-3.2305-4.0781-5.4141-7.4766-5.4141-3.4023 0-6.418 2.1836-7.4805 5.4141l-24.695 74.066-23.473-58.758v0.003907c-1.2773-2.9648-4.1719-4.9062-7.4023-4.9531-3.2461 0.03125-6.1445 2.0586-7.2891 5.1016l-17.32 46.09-7.668-15.352h0.003907c-1.3242-2.6562-4.0312-4.3398-7-4.3594h-49.457c-7.6328-14.988-12.094-31.383-13.117-48.168zm133.43 156.24-87.152-67.785c-8.957-7.0312-16.863-15.305-23.477-24.578h34.914l13.562 27.137c1.4219 2.7812 4.3359 4.4766 7.457 4.3438 3.1289-0.16016 5.8633-2.1602 6.9648-5.0898l16.531-43.957 23.914 59.828 0.003906-0.003907c1.1797 2.9922 4.0625 4.9609 7.2812 4.9766h0.22656c3.3008-0.097656 6.1914-2.25 7.2344-5.3867l24.027-72.059 16.152 48.445c0.94922 2.8477 3.4414 4.9102 6.418 5.3086 2.9805 0.39844 5.9258-0.92969 7.5938-3.4297l13.406-20.113h35.574c-6.6133 9.2734-14.52 17.551-23.484 24.578z"/>
 </g>
</svg>