<?xml version="1.0" encoding="UTF-8"?>
<!-- The Best Svg Icon site in the world: iconSvg.co, Visit us! https://iconsvg.co -->
<svg fill="#000000" width="800px" height="800px" version="1.1" viewBox="144 144 512 512" xmlns="http://www.w3.org/2000/svg">
 <g>
  <path d="m482.21 385.99v-6.9766c19.391-3.3594 26.668-21.301 26.668-32.668 0-8.2734-3.0078-20.969-22.059-27.527l-17.109-5.6445c-2.6289-0.83984-13.305-4.6445-12.168-15.203 0.43359-4.0273 1.6055-7.1289 4.832-9.2383 2.625-1.6875 5.8828-2.5352 9.7578-2.5352 6.5859 0 11.062 1.1094 13.992 4.9062 1.6055 2.1953 2.1328 3.8047 2.5703 7.6016 0 0 0.51953 6.2578 8.0156 6.2578 7.4961 0 8.6523-5.9609 8.7969-7.0312 0.67188-4.8672-1.9805-13.012-5.668-17.844-4.2539-5.582-10.297-8.957-17.629-10.398v-7.7578c0-4.1758-3.3789-7.5586-7.5586-7.5586-4.1758 0-7.5586 3.3789-7.5586 7.5586v7.3594c-8.7695 1.1289-15.453 4.6719-19.973 10.707-3.9453 5.3164-10.539 15.547-3.7852 33.258 5.8242 15.27 33.621 20.152 33.621 20.152 5.1875 1.2656 15.109 3.2539 15.133 15.227 0.011718 4.6406-2.8555 13.645-17.66 13.645-6.8711 0-16.688-3.043-16.688-15.531 0 0 0.11719-6.5156-8.0156-6.5156-8.1328 0-8.7656 6.5156-8.7656 6.5156 0 8.2734 1.1875 14.086 5.5078 19.738 6.4805 8.5703 14.438 11.559 20.625 12.594v6.918c0 4.1758 3.3789 7.5586 7.5586 7.5586 4.1797-0.007813 7.5586-3.3945 7.5586-7.5664z"/>
  <path d="m558.43 453.68c-31.223 0-56.422 13.703-61.852 32.328h-14.375l0.003906-54.742c55.852-3.9062 100.13-50.477 100.13-107.3 0-59.379-48.309-107.69-107.69-107.69s-107.69 48.309-107.69 107.69c0 56.828 44.281 103.4 100.13 107.3v25.086h-15.105c-5.4297-18.625-30.633-32.328-61.852-32.328-35.312 0-62.977 17.523-62.977 39.887 0 22.363 27.664 39.887 62.977 39.887 31.215 0 56.418-13.699 61.852-32.328h15.105v127.11l-183.23-0.003907v-28.602c9.4727 4.7422 21.398 7.4805 33.945 7.4805 30.566 0 54.512-15.352 54.512-34.949s-23.945-34.949-54.512-34.949c-16.168 0-31.344 4.5-41.504 12.047-10.16-7.5469-25.336-12.047-41.504-12.047-30.566 0-54.512 15.352-54.512 34.949s23.945 34.953 54.512 34.953c12.551 0 24.477-2.7422 33.945-7.4805v28.602h-36.27c-4.1758 0-7.5586 3.3789-7.5586 7.5586 0 4.1758 3.3789 7.5586 7.5586 7.5586h309.84c4.1719 0 7.5586-3.3789 7.5586-7.5586 0-4.1758-3.3867-7.5586-7.5586-7.5586h-60.117v-97.449h14.375c5.4375 18.625 30.637 32.328 61.852 32.328 35.316 0 62.977-17.523 62.977-39.887-0.003906-22.363-27.66-39.887-62.98-39.887zm-168.3 34.996c-28.207 0-47.863-13.055-47.863-24.773 0-11.715 19.652-24.773 47.863-24.773 22.172 0 39.012 8.0742 45.227 17.215h-29.578c-4.1758 0-7.5586 3.3789-7.5586 7.5586 0 4.1758 3.3789 7.5586 7.5586 7.5586h29.574c-6.2109 9.1406-23.055 17.215-45.223 17.215zm-8.0586-164.72c0-51.047 41.527-92.574 92.574-92.574 51.047 0 92.574 41.527 92.574 92.574s-41.527 92.574-92.574 92.574c-51.047 0.003906-92.574-41.527-92.574-92.574zm-186.67 218.54c0-9.3828 16.184-19.836 39.398-19.836 15.129 0 29.227 4.7578 35.91 12.117 2.8633 3.1523 8.3242 3.1523 11.191 0 6.6875-7.3594 20.781-12.117 35.91-12.117 23.215 0 39.398 10.453 39.398 19.836s-16.184 19.836-39.398 19.836c-15.129 0-29.227-4.7578-35.91-12.117-1.4297-1.5781-3.4648-2.4727-5.5938-2.4727-2.125 0-4.1602 0.89844-5.5938 2.4727-6.6875 7.3594-20.781 12.117-35.91 12.117-23.219 0.003906-39.402-10.453-39.402-19.836zm363.02-24.16c-22.168 0-39.012-8.0703-45.223-17.215h36.914c4.1719 0 7.5586-3.3789 7.5586-7.5586 0-4.1758-3.3867-7.5586-7.5586-7.5586h-36.918c6.207-9.1406 23.051-17.215 45.227-17.215 28.207 0 47.863 13.055 47.863 24.773 0 11.715-19.652 24.773-47.863 24.773z"/>
  <path d="m232.48 305.9h8.7617v80.797c0 15.477 11.105 31.145 32.32 31.145s32.32-15.668 32.32-31.145v-80.797h8.7617c6.4297 0 12.227-3.8125 14.785-9.7188 2.543-5.8984 1.3438-12.734-3.0586-17.422l-41.074-43.637c-6.0625-6.4453-17.402-6.4375-23.453-0.003906l-41.086 43.645c-4.4023 4.6836-5.6016 11.523-3.0547 17.418 2.5469 5.9023 8.3516 9.7188 14.777 9.7188zm-0.71484-16.777 41.086-43.645c0.17969-0.19531 0.44141-0.30859 0.71484-0.30859 0.27344 0 0.52734 0.10938 0.71875 0.3125l41.082 43.641c0.27344 0.28906 0.34375 0.70703 0.19141 1.0625-0.15625 0.36328-0.51562 0.59766-0.90625 0.59766h-16.324c-4.1758 0-7.5586 3.3789-7.5586 7.5586v88.352c0 7.3945-4.5078 16.031-17.207 16.031-12.695 0-17.207-8.6367-17.207-16.031l0.007812-88.352c0-4.1758-3.3789-7.5586-7.5586-7.5586h-16.324c-0.39453 0-0.74609-0.23047-0.90625-0.59766-0.14844-0.35938-0.074219-0.77734 0.19141-1.0625z"/>
  <path d="m295.48 434.14c-3.0586-2.8359-7.8438-2.6602-10.68 0.39844-0.68359 0.74219-3.5234 3.1484-11.23 3.1484-7.7148 0-10.551-2.4141-11.234-3.1484-2.8477-3.0586-7.6172-3.2383-10.68-0.39844-3.0586 2.8359-3.2383 7.6211-0.39844 10.68 3.3789 3.6406 9.9961 7.9805 22.312 7.9805 12.312 0 18.93-4.3438 22.309-7.9805 2.8438-3.0547 2.6602-7.8438-0.39844-10.68z"/>
  <path d="m284.8 464.08c-0.68359 0.74219-3.5234 3.1484-11.23 3.1484-7.7148 0-10.551-2.4141-11.234-3.1484-2.8477-3.0586-7.6172-3.2383-10.68-0.39844-3.0586 2.8359-3.2383 7.6211-0.39844 10.68 3.3789 3.6406 9.9961 7.9805 22.312 7.9805 12.312 0 18.93-4.3438 22.309-7.9805 2.8359-3.0586 2.6602-7.8438-0.39844-10.68-3.0547-2.8359-7.8438-2.6602-10.68 0.39844z"/>
 </g>
</svg>