<?xml version="1.0" encoding="UTF-8"?>
<!-- The Best Svg Icon site in the world: iconSvg.co, Visit us! https://iconsvg.co -->
<svg fill="#000000" width="800px" height="800px" version="1.1" viewBox="144 144 512 512" xmlns="http://www.w3.org/2000/svg">
 <g>
  <path d="m519.57 270.11c-1.1094-0.73047-1.793-1.2539-2.0469-1.5703l-6.8555 13.617c7.1602 4.7773 16.234 7.4648 24.566 8.1875v11.141h6.5703v-11.047c3.0469-0.12891 5.9492-0.60547 8.7109-1.4297 5.4766-1.6328 9.8711-4.793 12.426-9.9023 1.2695-2.5391 1.9062-5.6172 1.9062-9.2383 0-8.2188-3.6094-14.078-12.285-17.57-5.8281-2.3438-10.82-3.3828-11.809-3.6641l0.003906-12.945c6.5898 0.94531 14.363 5.1211 15.234 6.2852l6.8594-12.949c-2.668-1.5234-5.8086-3.0156-9.4297-4.4766-3.6211-1.4609-7.4922-2.3789-11.617-2.7617v-9.6172h-6.5703v9.6172c-14.301 1.4922-21.711 10.484-21.711 21.805 0 7.0352 2.7734 12.012 10.094 15.57 5.1055 2.4805 10.559 3.7539 12.664 4.4297v12.664c-6.0547-0.84375-13.219-3.8477-16.711-6.1445zm21.188-5.0938c2.2227 0.76172 4 1.6055 5.332 2.5234 1.332 0.92188 2 2.207 2 3.8555 0 3.1758-2.4453 4.8555-7.332 5.0469zm-9.4766-20.137c-1.1094-0.92188-1.6641-2.1758-1.6641-3.7617 0-3.3008 2.2227-5.1406 6.668-5.5234v11.711c-2.2266-0.69922-3.8906-1.5078-5.0039-2.4258z"/>
  <path d="m262.66 537.23c-4.9961-2.0117-9.2734-2.9023-10.121-3.1406v-11.102c5.6602 0.8125 12.316 4.3945 13.059 5.3867l5.8789-11.098c-2.2852-1.3086-4.9805-2.5859-8.082-3.8359-3.1016-1.25-6.4219-2.0391-9.957-2.3672v-8.2422h-5.6328v8.2422c-12.098 1.2617-18.609 8.8359-18.609 18.691 0 3.9219 0.99219 7.2969 3.793 10.039 4.4531 4.3633 12.602 6.0859 15.711 7.0977v10.855c-5.2227-0.72266-11.293-3.2656-14.324-5.2656-0.95312-0.625-1.5391-1.0742-1.7539-1.3438l-5.875 11.668c6.1875 4.125 13.969 6.4023 21.059 7.0195v9.5508h5.6328v-9.4688c4.8594-0.20312 9.8945-1.4336 13.754-4.3672 1.8242-1.3867 3.2773-3.168 4.3672-5.3477 2.1133-4.2227 2.1367-10.777 0.36719-14.773-1.4219-3.1992-4.0703-6.1094-9.2656-8.1992zm-13.957-4.2852c-1.9062-0.59766-3.332-1.293-4.2852-2.082s-1.4297-1.8633-1.4297-3.2227c0-2.8281 1.9062-4.4062 5.7148-4.7344l0.003906 10.039zm3.8359 24.973v-9.793c1.9062 0.65234 3.4258 1.375 4.5703 2.1641 1.1406 0.78906 1.7148 1.8906 1.7148 3.3047 0 2.7227-2.0938 4.1602-6.2852 4.3242z"/>
  <path d="m586.64 318.46c18.16-14.434 29.836-36.688 29.836-61.633 0-43.406-35.312-78.719-78.719-78.719-27.191 0-51.203 13.859-65.352 34.887-60.965-23.715-132.63-18.039-190.52 19.23-7.5703-3.1602-15.867-4.9141-24.57-4.9141-35.27 0-63.961 28.691-63.961 63.961 0 12.148 3.4062 23.516 9.3086 33.199-23.52 52.816-24.789 115.21-0.47656 170.64-11.566 12.32-18.672 28.879-18.672 47.074 0 37.98 30.898 68.879 68.879 68.879 16.086 0 30.887-5.5586 42.625-14.832 34.105 18.605 72.551 26.98 109 25.492 55.102-2.043 108.62-26.559 146.84-67.266 58.387-62.203 74.297-156.11 35.785-236zm-32.137 200.13c-17.832-7.2109-38.438-13.664-59.211-18.391 6.1172-25.867 9.3594-53.027 9.9961-80.027h82.398c-1.7734 35.457-13.129 69.168-33.184 98.418zm-114.75 58.379c-9.418 11.52-24.648 25.246-43.695 25.246-0.042969 0-0.32422-0.007813-0.33594-0.007813-0.85937-0.3125-20.879 2.2461-43.359-25.238-12.477-15.254-23.098-36.414-30.992-61.637 51.457-8.7695 101.79-8.3008 149.37-0.003906-6.5078 21.152-17.086 44.633-30.988 61.641zm-221.58-94.547c-8.0703-19.844-12.676-40.703-13.75-62.25h82.391c0.55078 23.262 3.0625 46.09 7.2031 67.133-21.883-16.613-51.828-18.664-75.844-4.8828zm73.734-137.34c-2.9531 17.922-4.6797 37.391-5.082 55.414h-82.402c1.0234-20.559 5.2617-40.496 12.664-59.523 22.055 17.789 52.199 18.652 74.82 4.1094zm60.453-101.38c11.68-14.273 25.469-23.988 43.871-25.242 28.637 0.12891 50.449 30.508 62.723 56.395 4.7344 10.059 8.8281 20.895 11.785 30.484-47.164 8.2969-99.305 8.7461-149.19 0.03125 4.3711-13.555 4.5742-14.043 6.8047-19.535 6.0312-14.836 13.91-29.789 24.008-42.133zm133.24 156.8h-179.09c0.70312-27.691 4.1641-53.492 9.6172-76.102 50.395 9.0742 106.79 9.6211 159.85 0 5.9805 24.98 8.9961 50.824 9.6172 76.102zm-9.6172 95.781c-52.656-9.4922-108.86-9.2148-159.85 0-5.9805-24.949-8.9766-50.754-9.6172-76.102h179.09c-0.64062 25.941-3.7656 51.648-9.6172 76.102zm93.781-167.52c10.527 22.418 16.629 46.891 17.91 71.742h-82.387c-0.61719-25.719-3.5977-51.953-9.2812-76.938 22.727 14.191 50.41 15.594 73.758 5.1953zm-32.012-130.96c32.555 0 59.039 26.484 59.039 59.039 0 27.707-19.176 50.867-44.574 57.242-32.48 8.2305-65.215-12.359-72.184-44.832-2.9414-13.82-0.80469-26.043 4.8672-38.688 9.6914-19.402 29.734-32.762 52.852-32.762zm-74.227 32.863c-0.98438 2.7891-1.8125 5.6484-2.4844 8.5703-2.2617-3.2656-6.0898-8.25-10.246-12.852 4.3086 1.2734 8.5586 2.7031 12.73 4.2812zm-122.28-4.207c-10.41 11.438-18.742 25.117-25.398 39.004-3.4922-7.9141-8.7656-15.383-15.457-21.469 12.852-7.3906 26.613-13.289 40.855-17.535zm-83.934 20.543c19.168 0 35.508 12.27 41.637 29.215 11.004 30.336-13.418 62.578-46.422 59.082-22.27-2.4062-39.492-21.309-39.492-44.016 0-24.418 19.863-44.281 44.277-44.281zm-54.117 295.2c0-39.883 45.758-63.883 78.684-39.363 12.762 9.5859 20.523 24.98 19.641 42.047-1.3984 25.887-22.898 46.516-49.125 46.516-27.129 0.003907-49.199-22.07-49.199-49.199zm105.85 39.207c4.2539-6.1172 7.4609-12.844 9.5195-19.953 5.7773 11.469 12.781 22.719 21.188 32.359-10.582-3.2383-20.875-7.3867-30.707-12.406zm142.01 12.613c18.375-20.301 31.098-48.703 39.086-74.789 17.496 3.9453 34.855 9.1133 51.875 15.637-23.73 27.621-55.547 48.398-90.961 59.152z"/>
 </g>
</svg>