<?xml version="1.0" encoding="UTF-8"?>
<!-- The Best Svg Icon site in the world: iconSvg.co, Visit us! https://iconsvg.co -->
<svg fill="#000000" width="800px" height="800px" version="1.1" viewBox="144 144 512 512" xmlns="http://www.w3.org/2000/svg">
 <g>
  <path d="m400 611.56c-57.035 0-110.66-22.211-150.99-62.543-40.332-40.328-62.543-93.949-62.543-150.98s22.211-110.66 62.543-150.99c40.328-40.328 93.949-62.543 150.99-62.543 57.035 0 110.66 22.211 150.99 62.543 40.328 40.328 62.539 93.953 62.539 150.99s-22.211 110.66-62.543 150.99c-40.328 40.328-93.949 62.539-150.98 62.539zm0-413.28c-110.14 0-199.75 89.609-199.75 199.75s89.609 199.75 199.75 199.75 199.75-89.609 199.75-199.75c-0.003906-110.14-89.609-199.75-199.75-199.75z"/>
  <path d="m400 552.52c-36.758 0-72.371-13.133-100.28-36.973-27.598-23.574-46.086-56.168-52.059-91.777-0.33594-1.9961 0.22656-4.043 1.5352-5.5898 1.3086-1.5469 3.2344-2.4375 5.2578-2.4375h17.625c9.7656 0 17.711-7.9453 17.711-17.711s-7.9453-17.711-17.711-17.711h-17.629c-2.0273 0-3.9492-0.89062-5.2578-2.4375-1.3086-1.5469-1.8711-3.5898-1.5352-5.5898 5.9766-35.605 24.465-68.199 52.059-91.773 27.914-23.848 63.527-36.977 100.29-36.977s72.371 13.129 100.28 36.973c27.598 23.574 46.086 56.168 52.059 91.773 0.33594 1.9961-0.22656 4.043-1.5352 5.5898-1.3086 1.5469-3.2305 2.4414-5.2578 2.4414h-17.629c-9.7656 0-17.711 7.9453-17.711 17.711s7.9453 17.711 17.711 17.711h17.629c2.0273 0 3.9492 0.89062 5.2578 2.4375 1.3086 1.5469 1.8711 3.5898 1.5352 5.5898-5.9727 35.605-24.461 68.199-52.059 91.777-27.91 23.84-63.527 36.973-100.28 36.973zm-137.17-123c14.484 63.762 70.922 109.22 137.17 109.22s122.69-45.465 137.17-109.22h-9.2539c-17.363 0-31.488-14.125-31.488-31.488s14.125-31.488 31.488-31.488h9.25c-14.48-63.762-70.918-109.23-137.17-109.23s-122.69 45.465-137.17 109.22l9.25 0.003907c17.363 0 31.488 14.125 31.488 31.488s-14.125 31.488-31.488 31.488z"/>
  <path d="m522.02 615.5h-285.36c-3.8047 0-6.8867-3.082-6.8867-6.8867s3.082-6.8867 6.8867-6.8867h285.36c3.8047 0 6.8867 3.082 6.8867 6.8867 0.003906 3.8008-3.0781 6.8867-6.8828 6.8867z"/>
  <path d="m403.93 389.18c-1.7617 0-3.5273-0.67188-4.8711-2.0156l-59.039-59.039c-2.6914-2.6875-2.6914-7.0508 0-9.7422 2.6875-2.6875 7.0508-2.6875 9.7422 0l54.168 54.168 54.168-54.168c2.6914-2.6875 7.0508-2.6875 9.7422 0 2.6875 2.6875 2.6875 7.0508 0 9.7422l-59.039 59.039c-1.3438 1.3398-3.1094 2.0156-4.8711 2.0156z"/>
  <path d="m403.93 507.25c-3.8047 0-6.8867-3.082-6.8867-6.8867v-118.08c0-3.8047 3.082-6.8867 6.8867-6.8867 3.8047 0 6.8867 3.082 6.8867 6.8867v118.08c0.003907 3.8047-3.082 6.8867-6.8867 6.8867z"/>
  <path d="m433.45 438.38h-59.039c-3.8047 0-6.8867-3.082-6.8867-6.8867 0-3.8047 3.082-6.8867 6.8867-6.8867h59.039c3.8047 0 6.8867 3.082 6.8867 6.8867 0.003906 3.8008-3.082 6.8867-6.8867 6.8867z"/>
  <path d="m433.45 467.89h-59.039c-3.8047 0-6.8867-3.082-6.8867-6.8867 0-3.8047 3.082-6.8867 6.8867-6.8867h59.039c3.8047 0 6.8867 3.082 6.8867 6.8867 0.003906 3.8047-3.082 6.8867-6.8867 6.8867z"/>
 </g>
</svg>