<?xml version="1.0" encoding="UTF-8"?>
<!-- The Best Svg Icon site in the world: iconSvg.co, Visit us! https://iconsvg.co -->
<svg width="800px" height="800px" version="1.1" viewBox="144 144 512 512" xmlns="http://www.w3.org/2000/svg">
 <defs>
  <clipPath id="b">
   <path d="m148.09 148.09h503.81v503.81h-503.81z"/>
  </clipPath>
  <clipPath id="a">
   <path d="m148.09 190h262.91v231h-262.91z"/>
  </clipPath>
 </defs>
 <g clip-path="url(#b)">
  <path d="m599.42 148.09h-188.93v20.992h188.93c8.3516 0 16.363 3.3164 22.266 9.2227 5.9062 5.9062 9.2227 13.914 9.2227 22.266v388.35h-31.488c-5.7969 0-10.496 4.6992-10.496 10.496v31.488h-62.977v-20.992h31.488v-20.992h-314.88v20.992h31.488v20.992h-62.977v-31.488c0-2.7812-1.1055-5.4531-3.0742-7.4219s-4.6367-3.0742-7.4219-3.0742h-31.488v-167.93h-20.992v178.43c0 2.7852 1.1055 5.4531 3.0742 7.4219s4.6367 3.0742 7.4219 3.0742h31.488v31.488c0 2.7852 1.1055 5.4531 3.0742 7.4219s4.6367 3.0742 7.4219 3.0742h83.969c2.7812 0 5.4531-1.1055 7.4219-3.0742s3.0742-4.6367 3.0742-7.4219v-31.488h209.92v31.488c0 2.7852 1.1094 5.4531 3.0742 7.4219 1.9688 1.9688 4.6406 3.0742 7.4219 3.0742h83.969c2.7852 0 5.4531-1.1055 7.4219-3.0742s3.0742-4.6367 3.0742-7.4219v-31.488h31.488c2.7852 0 5.4531-1.1055 7.4219-3.0742s3.0742-4.6367 3.0742-7.4219v-398.85c-0.015625-13.914-5.5508-27.254-15.387-37.09-9.8398-9.8398-23.18-15.375-37.094-15.391z"/>
 </g>
 <path d="m200.57 441.98v83.969-0.003906c0 8.3516 3.3164 16.363 9.2227 22.266 5.9062 5.9062 13.914 9.2227 22.266 9.2227h335.87c8.3516 0 16.363-3.3164 22.266-9.2227 5.9062-5.9023 9.2227-13.914 9.2227-22.266v-20.992h-20.992v20.992c0 2.7852-1.1055 5.457-3.0742 7.4219-1.9688 1.9688-4.6367 3.0742-7.4219 3.0742h-335.87c-5.7969 0-10.496-4.6992-10.496-10.496v-83.965z"/>
 <path d="m599.42 253.05v-20.992c0-8.3516-3.3164-16.359-9.2227-22.266-5.9023-5.9062-13.914-9.2227-22.266-9.2227v20.992c2.7852 0 5.4531 1.1055 7.4219 3.0742s3.0742 4.6367 3.0742 7.4219v20.992z"/>
 <path d="m410.5 295.04v167.94c0 5.5664 2.2109 10.906 6.1484 14.84 3.9336 3.9375 9.2734 6.1484 14.844 6.1484h146.94c5.5703 0 10.91-2.2109 14.844-6.1484 3.9375-3.9336 6.1484-9.2734 6.1484-14.84v-167.94c0-5.5664-2.2109-10.906-6.1484-14.844-3.9336-3.9375-9.2734-6.1484-14.844-6.1484h-146.94c-5.5703 0-10.91 2.2109-14.844 6.1484-3.9375 3.9375-6.1484 9.2773-6.1484 14.844zm20.992 167.94v-104.96h146.94v104.96zm146.94-125.95h-146.94v-41.984h146.94z"/>
 <path d="m452.48 379.01h20.992v20.992h-20.992z"/>
 <path d="m494.46 379.01h20.992v20.992h-20.992z"/>
 <path d="m536.45 379.01h20.992v20.992h-20.992z"/>
 <path d="m452.48 420.99h20.992v20.992h-20.992z"/>
 <path d="m494.46 420.99h20.992v20.992h-20.992z"/>
 <path d="m536.45 420.99h20.992v20.992h-20.992z"/>
 <path d="m242.56 462.98v41.984-0.003907c0 2.7852 1.1055 5.457 3.0742 7.4219 1.9688 1.9688 4.6367 3.0742 7.4219 3.0742h41.984v-20.992h-31.488v-31.484z"/>
 <g clip-path="url(#a)">
  <path d="m263.55 420.99c30.609-0.039063 59.953-12.215 81.598-33.859 21.645-21.645 33.82-50.988 33.859-81.598v-52.48h-20.992v52.48c0 25.051-9.9531 49.078-27.668 66.797-17.715 17.715-41.742 27.668-66.797 27.668-25.055 0-49.082-9.9531-66.797-27.668-17.715-17.719-27.668-41.746-27.668-66.797 0-25.055 9.9531-49.082 27.668-66.797 17.715-17.715 41.742-27.668 66.797-27.668h146.95v-20.992h-146.95c-41.25 0-79.363 22.004-99.988 57.727-20.625 35.723-20.625 79.734 0 115.46 20.625 35.723 58.738 57.73 99.988 57.73z"/>
 </g>
 <path d="m305.54 284.54v-10.496c0-5.5664-2.2109-10.906-6.1484-14.844s-9.2773-6.1484-14.844-6.1484h-10.496v-20.992h-20.992v20.992h-10.496c-5.5664 0-10.906 2.2109-14.844 6.1484s-6.1484 9.2773-6.1484 14.844v20.992c0 5.5664 2.2109 10.906 6.1484 14.844s9.2773 6.1484 14.844 6.1484h41.984v20.992h-41.984v-10.496h-20.992v10.496c0 5.5664 2.2109 10.906 6.1484 14.844 3.9375 3.9336 9.2773 6.1484 14.844 6.1484h10.496v20.992h20.992v-20.992h10.496c5.5664 0 10.906-2.2148 14.844-6.1484 3.9375-3.9375 6.1484-9.2773 6.1484-14.844v-20.992c0-5.5703-2.2109-10.906-6.1484-14.844s-9.2773-6.1484-14.844-6.1484h-41.984v-20.992h41.984v10.496z"/>
 <path d="m431.49 190.08h20.992v20.992h-20.992z"/>
 <path d="m473.47 190.08h20.992v20.992h-20.992z"/>
</svg>