<?xml version="1.0" encoding="UTF-8"?>
<!-- The Best Svg Icon site in the world: iconSvg.co, Visit us! https://iconsvg.co -->
<svg fill="#000000" width="800px" height="800px" version="1.1" viewBox="144 144 512 512" xmlns="http://www.w3.org/2000/svg">
 <g>
  <path d="m400 292.21c-2.5312 0-4.582-2.0508-4.582-4.582v-102.89c0-2.5312 2.0508-4.5781 4.582-4.5781 2.5273 0 4.5781 2.0469 4.5781 4.5781v102.89c0 1.2148-0.48047 2.3828-1.3398 3.2422-0.85938 0.85547-2.0234 1.3398-3.2383 1.3398z"/>
  <path d="m400 292.45c-1.2148 0-2.3828-0.48438-3.2383-1.3398l-19.414-19.418-0.003906-0.003906c-1.7344-1.7969-1.7109-4.6523 0.058594-6.418 1.7656-1.7695 4.6211-1.793 6.418-0.058594l16.18 16.16 16.164-16.176h-0.003906c1.7891-1.793 4.6914-1.793 6.4805-0.003907 1.7891 1.7891 1.7891 4.6875 0 6.4766l-19.402 19.418 0.003907 0.003906c-0.85938 0.86719-2.0234 1.3555-3.2422 1.3594z"/>
  <path d="m400 619.84c-2.5312 0-4.582-2.0508-4.582-4.582v-102.9c0-2.5312 2.0508-4.582 4.582-4.582 2.5273 0 4.5781 2.0508 4.5781 4.582v102.9c0 1.2148-0.48047 2.3789-1.3398 3.2383s-2.0234 1.3438-3.2383 1.3438z"/>
  <path d="m380.59 536.12c-1.8555 0.003906-3.5234-1.1133-4.2344-2.8242-0.71094-1.7109-0.32031-3.6836 0.99219-4.9922l19.402-19.418h-0.003906c1.8203-1.7188 4.6602-1.7188 6.4766 0l19.418 19.418h0.003907c1.7344 1.7969 1.7109 4.6523-0.058594 6.4219-1.7656 1.7656-4.6211 1.7891-6.418 0.054688l-16.172-16.156-16.168 16.156c-0.85938 0.85938-2.0234 1.3398-3.2383 1.3398z"/>
  <path d="m479.45 325.12c-1.8516 0-3.5195-1.1133-4.2305-2.8242-0.70703-1.7148-0.31641-3.6836 0.99219-4.9922l72.762-72.754c0.85156-0.88281 2.0234-1.3867 3.2539-1.3984 1.2266-0.011719 2.4102 0.47266 3.2773 1.3398 0.86719 0.87109 1.3516 2.0508 1.3398 3.2773-0.007812 1.2305-0.51172 2.4023-1.3945 3.2578l-72.762 72.754c-0.85547 0.86328-2.0234 1.3438-3.2383 1.3398z"/>
  <path d="m479.29 325.3c-2.5312 0-4.582-2.0508-4.582-4.5781v-27.438c0-2.5273 2.0508-4.5781 4.582-4.5781s4.5781 2.0508 4.5781 4.5781v22.855h22.867c2.5273 0 4.5781 2.0508 4.5781 4.582 0 2.5273-2.0508 4.5781-4.5781 4.5781h-27.449z"/>
  <path d="m247.79 556.79c-1.8516 0-3.5234-1.1172-4.2305-2.8281-0.71094-1.7109-0.32031-3.6797 0.99219-4.9922l72.758-72.754c1.7969-1.7344 4.6523-1.7109 6.4219 0.058594 1.7656 1.7656 1.7891 4.6211 0.054688 6.418l-72.758 72.754c-0.85938 0.86328-2.0234 1.3477-3.2383 1.3438z"/>
  <path d="m320.71 511.32c-2.5273 0-4.5781-2.0508-4.5781-4.5781v-22.902h-22.863c-2.5312 0-4.582-2.0508-4.582-4.5781 0-2.5312 2.0508-4.582 4.582-4.582h27.449-0.003906c1.2148 0 2.3828 0.48438 3.2422 1.3438 0.85547 0.85938 1.3398 2.0234 1.3398 3.2383v27.48c0 1.2148-0.48438 2.3789-1.3438 3.2383-0.85938 0.85938-2.0273 1.3438-3.2422 1.3398z"/>
  <path d="m615.26 404.58h-102.89c-2.5312 0-4.582-2.0508-4.582-4.5781 0-2.5312 2.0508-4.582 4.582-4.582h102.89c2.5312 0 4.582 2.0508 4.582 4.582 0 2.5273-2.0508 4.5781-4.582 4.5781z"/>
  <path d="m531.54 423.98c-1.2148 0.003906-2.3789-0.48047-3.2344-1.3438l-19.418-19.398v0.003906c-1.7891-1.7891-1.7891-4.6875 0-6.4766l19.414-19.414c1.7969-1.7383 4.6523-1.7109 6.4219 0.054687 1.7656 1.7656 1.7891 4.625 0.054688 6.4219l-16.156 16.168 16.172 16.16 0.003906-0.003906c1.3086 1.3125 1.6992 3.2812 0.99219 4.9922-0.71094 1.7109-2.3789 2.8281-4.2305 2.8281z"/>
  <path d="m287.63 404.58h-102.89c-2.5312 0-4.5781-2.0508-4.5781-4.5781 0-2.5312 2.0469-4.582 4.5781-4.582h102.89c2.5312 0 4.582 2.0508 4.582 4.582 0 2.5273-2.0508 4.5781-4.582 4.5781z"/>
  <path d="m268.46 423.98c-1.8516 0-3.5195-1.1172-4.2305-2.8281-0.70703-1.7109-0.31641-3.6797 0.99219-4.9883l16.18-16.168-16.18-16.168c-0.90234-0.84766-1.4258-2.0273-1.4453-3.2695-0.019532-1.2383 0.46484-2.4336 1.3398-3.3086 0.875-0.87891 2.0703-1.3633 3.3125-1.3438 1.2383 0.019532 2.418 0.53906 3.2656 1.4453l19.418 19.398 0.003906-0.003906c1.7852 1.7891 1.7852 4.6875 0 6.4766l-19.418 19.414h-0.003906c-0.85547 0.86328-2.0195 1.3477-3.2344 1.3438z"/>
  <path d="m552.21 556.79c-1.2148 0-2.3828-0.48437-3.2383-1.3438l-72.762-72.754c-1.7344-1.7969-1.7109-4.6523 0.058594-6.418 1.7656-1.7695 4.6211-1.793 6.418-0.058594l72.762 72.754c1.3086 1.3125 1.6992 3.2812 0.99219 4.9922-0.71094 1.7109-2.3789 2.8281-4.2305 2.8281z"/>
  <path d="m479.29 511.32c-2.5312 0-4.582-2.0508-4.582-4.5781v-27.449c0-2.5312 2.0508-4.582 4.582-4.582h27.48c2.5312 0 4.5781 2.0508 4.5781 4.582s-2.0469 4.5781-4.5781 4.5781h-22.902v22.871c0 1.2148-0.48047 2.3789-1.3398 3.2383-0.85938 0.85938-2.0234 1.3398-3.2383 1.3398z"/>
  <path d="m320.54 325.12c-1.2148 0-2.3789-0.48047-3.2383-1.3398l-72.758-72.754c-0.88281-0.85547-1.3867-2.0273-1.3984-3.2578-0.011719-1.2266 0.47266-2.4062 1.3398-3.2773 0.87109-0.86719 2.0508-1.3516 3.2773-1.3398 1.2305 0.011718 2.4023 0.51562 3.2578 1.3984l72.758 72.754c1.3086 1.3086 1.7031 3.2773 0.99219 4.9922-0.70703 1.7109-2.3789 2.8242-4.2305 2.8242z"/>
  <path d="m320.72 325.29h-27.48c-2.5312 0-4.582-2.0508-4.582-4.582 0-2.5273 2.0508-4.5781 4.582-4.5781h22.895v-22.863c0-2.5312 2.0508-4.582 4.582-4.582 1.2148 0 2.3789 0.48438 3.2383 1.3438 0.85938 0.85547 1.3398 2.0234 1.3398 3.2383v27.445-0.003907c0 1.2148-0.48047 2.3789-1.3398 3.2383-0.85938 0.85938-2.0234 1.3438-3.2383 1.3438z"/>
  <path d="m400 346.96c-14.07 0-27.559 5.5898-37.508 15.539-9.9453 9.9453-15.531 23.438-15.531 37.504 0 14.07 5.5898 27.559 15.539 37.508 9.9453 9.9453 23.438 15.531 37.504 15.531s27.559-5.5859 37.508-15.535c9.9453-9.9453 15.535-23.438 15.535-37.504-0.015625-14.066-5.6094-27.551-15.555-37.492-9.9453-9.9453-23.43-15.539-37.492-15.551zm19.824 75.184-0.003907-0.003906c-1.7305 2.5391-4.1172 4.5547-6.9062 5.8359-3.2461 1.5156-6.7656 2.3711-10.348 2.5117v6.0508c0.027344 0.68359-0.23438 1.3477-0.71875 1.832-1.0625 0.94531-2.6641 0.96484-3.75 0.042968-0.49219-0.49219-0.75391-1.1758-0.71875-1.8711v-6.0547c-5.9219-0.34766-11.738-1.6992-17.203-4.0039-0.69531-0.28906-1.2852-0.77734-1.7031-1.4023-1.0039-1.4023-0.87891-3.3164 0.29688-4.5781 0.64062-0.70703 1.5586-1.0977 2.5117-1.0664 0.55859-0.003906 1.1094 0.11328 1.6211 0.33984 4.5664 2.0391 9.4805 3.1953 14.477 3.4102v-19.609c-3.3359-0.83984-6.5938-1.9531-9.75-3.3203-2.5742-1.1406-4.8359-2.8789-6.6016-5.0703-1.8242-2.375-2.7578-5.3125-2.6406-8.3008-0.023438-2.8711 0.72656-5.6953 2.168-8.1758 1.5664-2.6133 3.8008-4.7617 6.4727-6.2148 3.1875-1.7461 6.7227-2.7617 10.352-2.9844v-5.9531c-0.015625-0.69531 0.24219-1.3672 0.71875-1.875 0.47266-0.50391 1.1406-0.78125 1.832-0.76172 0.70312-0.007813 1.375 0.26562 1.8711 0.76172 0.49609 0.5 0.76953 1.1719 0.76172 1.875v5.875c5.0625 0.13281 10.07 1.082 14.828 2.8125 1.4922 0.4375 2.4805 1.8516 2.3789 3.4023 0.007813 0.91016-0.32031 1.7891-0.91406 2.4766-0.60938 0.72656-1.5234 1.1367-2.4727 1.1016-0.47656-0.027344-0.94141-0.14062-1.375-0.33984-4.0078-1.3828-8.2031-2.1523-12.441-2.2891v20.273c3.4688 0.76172 6.8672 1.8086 10.164 3.1328 2.6445 1.0938 4.9727 2.8359 6.7695 5.0625 1.918 2.5586 2.8828 5.707 2.7266 8.9023 0.027344 2.9062-0.81641 5.7539-2.4219 8.1719z"/>
  <path d="m386.12 386.29c-0.10156 2.293 0.97656 4.4766 2.8555 5.7891 2.5664 1.6523 5.4062 2.8359 8.3867 3.4961v-18.738c-2.957 0.28125-5.7812 1.3516-8.1797 3.1055-1.9844 1.5-3.125 3.8633-3.0625 6.3477z"/>
  <path d="m411.54 408.3c-2.832-1.5391-5.8555-2.6992-8.9883-3.4453v18.32c8.0078-0.56641 12.012-3.8047 12.012-9.7109v0.003906c0.042969-2.1523-1.125-4.1484-3.0234-5.168z"/>
  <path d="m400 315.65c-22.371 0-43.82 8.8828-59.641 24.699-15.816 15.816-24.703 37.27-24.703 59.637 0 22.371 8.8828 43.824 24.699 59.641 15.816 15.816 37.27 24.703 59.637 24.707 22.367 0 43.82-8.8828 59.641-24.699 15.816-15.816 24.707-37.266 24.707-59.633-0.019532-22.363-8.9102-43.809-24.723-59.621s-37.254-24.707-59.617-24.73zm0 146.56c-16.496-0.003907-32.316-6.5547-43.98-18.223-11.664-11.664-18.219-27.484-18.219-43.98 0-16.496 6.5547-32.316 18.219-43.98 11.664-11.668 27.484-18.219 43.98-18.223 16.496 0 32.316 6.5508 43.98 18.215 11.668 11.664 18.223 27.484 18.227 43.98-0.015625 16.492-6.5742 32.305-18.238 43.969-11.664 11.66-27.477 18.219-43.969 18.23z"/>
 </g>
</svg>