<?xml version="1.0" encoding="UTF-8"?>
<!-- The Best Svg Icon site in the world: iconSvg.co, Visit us! https://iconsvg.co -->
<svg fill="#000000" width="800px" height="800px" version="1.1" viewBox="144 144 512 512" xmlns="http://www.w3.org/2000/svg">
 <g>
  <path d="m433.61 415.11c2.1406-2.5156 2.4883-6.0977 0.86328-8.9727l-22.75-39.359v-0.003906c-1.6211-2.7305-4.7266-4.2227-7.8711-3.7773l-25.031 4.8008-44.949-25.113-8.5-25.191-0.003906 0.003906c-1.1172-3.0898-4.0352-5.1602-7.3203-5.1953h-49.121c-3.2578 0.066406-6.1367 2.1328-7.2422 5.1953l-8.5 25.191-44.953 25.031-25.113-4.8008h0.003906c-3.1484-0.44531-6.25 1.0469-7.8711 3.7773l-22.75 39.359c-1.625 2.8789-1.2773 6.4609 0.86328 8.9766l17.555 19.996 0.47266 64.078-16.766 19.363c-2.1094 2.4961-2.4531 6.0391-0.86719 8.8945l22.75 39.359c1.6445 2.7031 4.7422 4.1602 7.8711 3.7031l26.688-5.1172 44.242 20.469 8.3438 23.617v-0.003907c1.1328 3.0312 4.0039 5.0625 7.2422 5.1172h21.254 1.2578 22.277c3.2656-0.023438 6.1797-2.0586 7.3242-5.1172l8.3438-23.617 44.238-20.465 26.449 5.4336 0.003906-0.003906c3.1289 0.46094 6.2266-0.99609 7.8711-3.6992l22.75-39.359c1.6055-2.8438 1.293-6.3828-0.78906-8.8945l-16.137-19.602v-64.078zm-31.488 91.867 14.957 17.398-17.082 29.988-23.617-4.8008c-1.5938-0.30859-3.2422-0.11328-4.7227 0.55078l-49.754 23.066c-1.8633 0.88672-3.3047 2.4688-4.0117 4.4062l-7.8711 21.57h-16.922-1.2578-15.742l-7.8711-21.57h-0.007813c-0.66406-1.9648-2.1211-3.5664-4.0156-4.4062l-48.809-23.066c-1.5117-0.65234-3.1797-0.84375-4.8008-0.55078l-23.617 4.8008-17.16-29.992 14.879-17.398v0.003907c1.1172-1.3008 1.7812-2.9336 1.8906-4.6445l-0.55078-69.824h-0.003906c0.023438-1.8359-0.65234-3.6055-1.8867-4.9609l-15.742-18.105 17.32-29.992 22.434 4.3281h-0.003906c1.7812 0.31641 3.6172 0.011719 5.1953-0.86328l49.988-27.945v-0.003906c1.6562-0.94141 2.9141-2.4492 3.543-4.25l7.8711-22.75h37.785l7.8711 22.75h0.003906c0.625 1.8008 1.8828 3.3086 3.5391 4.25l49.988 27.945v0.003907c1.582 0.875 3.418 1.1797 5.1953 0.86328l22.516-4.3281 17.238 29.992-15.742 18.105c-1.1875 1.3828-1.8555 3.1367-1.8906 4.9609l-1.2578 69.824c0.14844 1.7305 0.86719 3.3633 2.0469 4.6445z"/>
  <path d="m293.41 385.12c-20.75 0-40.648 8.25-55.309 22.934-14.664 14.68-22.887 34.59-22.859 55.34 0.027343 20.75 8.3047 40.637 23.008 55.281 14.703 14.641 34.621 22.84 55.371 22.781 20.75-0.054687 40.629-8.3594 55.25-23.078 14.625-14.723 22.793-34.656 22.711-55.402-0.10547-20.672-8.3828-40.461-23.031-55.051-14.645-14.586-34.469-22.785-55.141-22.805zm0 140.99c-16.699 0-32.719-6.6367-44.531-18.445-11.809-11.812-18.445-27.828-18.445-44.531 0-16.703 6.6367-32.723 18.445-44.531 11.812-11.812 27.832-18.445 44.531-18.445 16.703 0 32.723 6.6328 44.531 18.445 11.812 11.809 18.445 27.828 18.445 44.531-0.039063 16.676-6.6953 32.652-18.5 44.43-11.805 11.773-27.801 18.387-44.477 18.387z"/>
  <path d="m293.88 456.05c-3.6211-0.70703-8.7383-2.0469-8.7383-6.4531 0-3.2266 3.6992-5.9844 7.8711-5.9844h0.003906c3.9297-0.097656 7.7734 1.1836 10.863 3.6211 3.1992 1.9453 7.3281 1.3633 9.8672-1.3867 2.543-2.75 2.793-6.9102 0.60156-9.9492-3.9414-3.3477-8.6445-5.6719-13.699-6.7695v-5.5117c0.53516-2.3359-0.027344-4.7852-1.5195-6.6562-1.4961-1.875-3.7578-2.9648-6.1562-2.9648-2.3945 0-4.6602 1.0898-6.1523 2.9648-1.4922 1.8711-2.0547 4.3203-1.5195 6.6562v5.7461c-6.082 1.5312-11.141 5.7344-13.762 11.43-2.6211 5.6953-2.5195 12.273 0.27734 17.883 2.7969 5.6133 7.9883 9.6562 14.113 10.992 4.3281 1.1797 15.742 0 15.742 7.2422 0 3.2266-3.6992 5.9023-7.8711 5.9023v0.003906c-3.9375 0.058594-7.7852-1.1875-10.941-3.543-3.1836-1.8711-7.2422-1.2812-9.7578 1.4258-2.5117 2.7031-2.8086 6.793-0.71094 9.832 3.9375 3.3477 8.6445 5.6719 13.695 6.7695v5.3516c0 4.3477 3.5234 7.875 7.8711 7.875 4.3477 0 7.875-3.5273 7.875-7.875v-5.668c4.4102-1.2461 8.3125-3.8633 11.141-7.4688 2.832-3.6094 4.4414-8.0234 4.6016-12.605-0.082031-6.1719-2.9844-11.969-7.8711-15.742-4.3008-2.7969-9.2188-4.4961-14.328-4.9609z"/>
  <path d="m628.84 372.52 0.47266-64 17.555-20.074-0.003907 0.003906c2.1094-2.5 2.4531-6.0391 0.86719-8.8984l-22.75-39.359c-1.6406-2.7031-4.7422-4.1602-7.8711-3.6992l-25.113 4.8008-44.949-25.191-8.7383-25.266c-1.0781-3.0938-3.9648-5.1953-7.2422-5.2734h-48.883c-3.3086 0.042969-6.2305 2.1523-7.3203 5.2734l-8.5039 25.109-44.949 25.191-25.031-4.8008c-3.1289-0.46094-6.2305 0.99609-7.875 3.6992l-22.75 39.359c-1.5859 2.8594-1.2383 6.3984 0.86719 8.8945l17.633 20.234v33.219c0 2.0859 0.82812 4.0898 2.3047 5.5664 1.4766 1.4766 3.4805 2.3047 5.5664 2.3047 2.0898 0 4.0898-0.82813 5.5664-2.3047 1.4766-1.4766 2.3086-3.4805 2.3086-5.5664v-36.133c-0.019531-1.8477-0.6875-3.6328-1.8906-5.0391l-15.742-18.027 17.238-29.992 22.516 4.3281-0.003906 0.003907c1.7812 0.31641 3.6172 0.007812 5.1953-0.86719l49.988-28.023c1.6562-0.94141 2.9141-2.4531 3.543-4.2539l7.8711-22.672h37.785l7.8711 22.672h0.003906c0.625 1.8008 1.8867 3.3125 3.543 4.2539l49.988 28.023h-0.003906c1.582 0.875 3.418 1.1836 5.1953 0.86719l22.434-4.3281 17.32 29.992-15.742 18.027v-0.003906c-1.2031 1.4062-1.8711 3.1914-1.8906 5.0391l-0.55078 69.746c0 1.875 0.67188 3.6914 1.8906 5.1172l14.879 17.398-17.238 29.992-23.617-4.8008v-0.003906c-1.6211-0.32422-3.3008-0.12891-4.8047 0.55078l-49.438 22.828 0.003906 0.003906c-1.8672 0.88281-3.3086 2.4688-4.0156 4.4062l-7.8711 21.648h-15.746c-0.41797-0.039062-0.83984-0.039062-1.2578 0h-16.922l-7.8711-21.648h-0.003906c-0.71094-1.9375-2.1523-3.5234-4.0156-4.4062l-27.629-12.754h-0.003907c-1.9062-1.3984-4.3359-1.8633-6.625-1.2734-2.2891 0.59375-4.1875 2.1836-5.1758 4.3281-0.99219 2.1445-0.96094 4.625 0.074219 6.7461 1.0352 2.125 2.9727 3.6719 5.2734 4.2109l24.641 11.336 8.4219 23.617c1.1328 3.0312 4.0039 5.0625 7.2422 5.1172h22.277c0.41797 0.035156 0.83984 0.035156 1.2578 0h21.098c3.2383-0.054688 6.1094-2.0859 7.2422-5.1172l8.3438-23.617 43.848-20.469 26.527 5.3516 0.003906 0.003906c3.1289 0.45703 6.2266-1 7.8711-3.7031l22.75-39.359c1.5586-2.7852 1.2773-6.2383-0.70703-8.7383z"/>
  <path d="m506.59 414.88c20.75 0 40.648-8.25 55.312-22.93 14.66-14.684 22.883-34.594 22.855-55.344s-8.3047-40.637-23.008-55.281c-14.699-14.641-34.621-22.836-55.371-22.781-20.75 0.054688-40.625 8.3594-55.25 23.082-14.621 14.719-22.793 34.652-22.707 55.402 0.10156 20.668 8.3828 40.461 23.027 55.047 14.645 14.586 34.469 22.785 55.141 22.805zm0-140.99v0.003906c16.703 0 32.719 6.6328 44.531 18.445 11.809 11.809 18.445 27.828 18.445 44.527 0 16.703-6.6367 32.723-18.445 44.531-11.812 11.812-27.828 18.445-44.531 18.445-16.703 0-32.723-6.6328-44.531-18.445-11.809-11.809-18.445-27.828-18.445-44.531 0.042969-16.672 6.6953-32.652 18.5-44.426 11.809-11.777 27.801-18.391 44.477-18.391z"/>
  <path d="m487.38 347.57h1.6523c-1.2969 3.875-3.5742 7.3477-6.6133 10.078-2.3086 2.1523-3.1094 5.4805-2.0273 8.4492s3.832 5.0039 6.9883 5.168h36.055c4.3477 0 7.8711-3.5234 7.8711-7.8711 0-4.3477-3.5234-7.8711-7.8711-7.8711h-21.098c1.168-2.6836 2.1406-5.4453 2.9102-8.2656h7.875c2.332 0.53125 4.7852-0.03125 6.6562-1.5234s2.9648-3.7578 2.9648-6.1523c0-2.3984-1.0938-4.6602-2.9648-6.1562-1.8711-1.4922-4.3242-2.0508-6.6562-1.5195h-4.8047c0.25-3.6719 0.25-7.3516 0-11.023 0-2.043 1.6562-3.6992 3.6992-3.6992 2.0469 0 3.7031 1.6562 3.7031 3.6992-0.53516 2.3359 0.027344 4.7891 1.5195 6.6602 1.4922 1.8711 3.7578 2.9648 6.1523 2.9648 2.3984 0 4.6602-1.0938 6.1562-2.9648 1.4922-1.8711 2.0547-4.3242 1.5195-6.6602-0.082031-6.8047-3.793-13.047-9.7266-16.379-5.9375-3.3281-13.199-3.2383-19.051 0.23828-5.8516 3.4766-9.4062 9.8086-9.3203 16.613 0.15234 3.5234 0.019531 7.0508-0.39453 10.551h-5.1953c-2.3359-0.53125-4.7852 0.027344-6.6602 1.5195-1.8711 1.4961-2.9609 3.7578-2.9609 6.1562 0 2.3945 1.0898 4.6602 2.9609 6.1523 1.875 1.4922 4.3242 2.0547 6.6602 1.5234z"/>
 </g>
</svg>