<?xml version="1.0" encoding="UTF-8"?>
<!-- The Best Svg Icon site in the world: iconSvg.co, Visit us! https://iconsvg.co -->
<svg width="800px" height="800px" version="1.1" viewBox="144 144 512 512" xmlns="http://www.w3.org/2000/svg">
 <defs>
  <clipPath id="b">
   <path d="m195 148.09h347v503.81h-347z"/>
  </clipPath>
  <clipPath id="a">
   <path d="m400 321h251.9v253h-251.9z"/>
  </clipPath>
 </defs>
 <g clip-path="url(#b)">
  <path d="m494.46 651.9h-251.9c-12.523-0.011719-24.527-4.9922-33.383-13.848-8.8555-8.8555-13.836-20.859-13.852-33.383v-409.35c0.015625-12.52 4.9961-24.527 13.852-33.383 8.8555-8.8516 20.859-13.832 33.383-13.848h251.9c12.523 0.015625 24.531 4.9961 33.387 13.848 8.8516 8.8555 13.832 20.863 13.848 33.383v141.7c0 5.625-3 10.82-7.8711 13.633-4.8711 2.8125-10.875 2.8125-15.746 0s-7.8711-8.0078-7.8711-13.633v-141.7c-0.003906-4.1719-1.668-8.1719-4.6172-11.125-2.9531-2.9531-6.9531-4.6133-11.129-4.6172h-251.9c-4.1758 0.003907-8.1758 1.6641-11.129 4.6172-2.9492 2.9531-4.6094 6.9531-4.6172 11.125v409.35c0.007812 4.1719 1.668 8.1758 4.6172 11.125 2.9531 2.9531 6.9531 4.6133 11.129 4.6172h251.9c4.1758-0.003906 8.1758-1.6641 11.129-4.6172 2.9492-2.9492 4.6133-6.9531 4.6172-11.125v-47.234c0-5.625 3-10.82 7.8711-13.633s10.875-2.8125 15.746 0c4.8711 2.8125 7.8711 8.0078 7.8711 13.633v47.234c-0.015624 12.523-4.9961 24.527-13.848 33.383-8.8555 8.8555-20.863 13.836-33.387 13.848z"/>
 </g>
 <g clip-path="url(#a)">
  <path d="m525.95 573.18c-33.402 0-65.441-13.27-89.059-36.891-23.621-23.621-36.891-55.656-36.891-89.062s13.27-65.441 36.891-89.062c23.617-23.621 55.656-36.891 89.059-36.891 33.406 0 65.441 13.27 89.062 36.891 23.621 23.621 36.891 55.656 36.891 89.062-0.039063 33.395-13.32 65.406-36.934 89.02-23.609 23.613-55.625 36.895-89.02 36.934zm0-220.42c-25.051 0-49.078 9.9531-66.793 27.668-17.719 17.715-27.668 41.742-27.668 66.797 0 25.055 9.9492 49.082 27.668 66.797 17.715 17.715 41.742 27.668 66.793 27.668 25.055 0 49.082-9.9531 66.797-27.668s27.668-41.742 27.668-66.797c-0.027343-25.043-9.9883-49.055-27.695-66.766-17.711-17.711-41.723-27.672-66.77-27.699z"/>
 </g>
 <path d="m533.82 510.21h-39.363c-5.6211 0-10.82-3-13.633-7.8711-2.8125-4.8711-2.8125-10.875 0-15.746s8.0117-7.8711 13.633-7.8711h39.363c4.3477 0 7.8711-3.5234 7.8711-7.8711s-3.5234-7.8711-7.8711-7.8711h-15.746c-14.062 0-27.055-7.5039-34.086-19.684-7.0312-12.176-7.0312-27.18 0-39.359 7.0312-12.176 20.023-19.68 34.086-19.68h39.359c5.625 0 10.824 3 13.637 7.8711s2.8125 10.875 0 15.746-8.0117 7.8711-13.637 7.8711h-39.359c-4.3477 0-7.8711 3.5234-7.8711 7.8711 0 4.3477 3.5234 7.875 7.8711 7.875h15.746c14.062 0 27.055 7.5 34.086 19.68 7.0312 12.176 7.0312 27.18 0 39.359-7.0312 12.176-20.023 19.68-34.086 19.68z"/>
 <path d="m525.95 415.74c-4.1758 0-8.1797-1.6602-11.133-4.6094-2.9492-2.9531-4.6094-6.957-4.6094-11.133v-15.746c0-5.625 3-10.82 7.8711-13.633s10.875-2.8125 15.746 0c4.8711 2.8125 7.8711 8.0078 7.8711 13.633v15.746c0 4.1758-1.6602 8.1797-4.6133 11.133-2.9492 2.9492-6.957 4.6094-11.133 4.6094z"/>
 <path d="m525.95 525.95c-4.1758 0-8.1797-1.6562-11.133-4.6094-2.9492-2.9531-4.6094-6.957-4.6094-11.133v-15.746c0-5.6211 3-10.82 7.8711-13.633s10.875-2.8125 15.746 0c4.8711 2.8125 7.8711 8.0117 7.8711 13.633v15.746c0 4.1758-1.6602 8.1797-4.6133 11.133-2.9492 2.9531-6.957 4.6094-11.133 4.6094z"/>
 <path d="m431.49 258.3h-125.95c-5.625 0-10.824-3-13.637-7.8711-2.8125-4.8711-2.8125-10.871 0-15.742s8.0117-7.875 13.637-7.875h125.95c5.625 0 10.82 3.0039 13.633 7.875s2.8125 10.871 0 15.742c-2.8125 4.8711-8.0078 7.8711-13.633 7.8711z"/>
 <path d="m462.98 321.28h-188.93c-5.625 0-10.824-3-13.637-7.8711s-2.8125-10.871 0-15.742c2.8125-4.875 8.0117-7.875 13.637-7.875h188.93c5.6211 0 10.82 3 13.633 7.875 2.8125 4.8711 2.8125 10.871 0 15.742s-8.0117 7.8711-13.633 7.8711z"/>
 <path d="m384.25 384.25h-110.21c-5.625 0-10.824-3-13.637-7.8711-2.8125-4.8711-2.8125-10.875 0-15.746 2.8125-4.8711 8.0117-7.8711 13.637-7.8711h110.21c5.625 0 10.824 3 13.637 7.8711 2.8125 4.8711 2.8125 10.875 0 15.746-2.8125 4.8711-8.0117 7.8711-13.637 7.8711z"/>
 <path d="m368.51 447.23h-94.465c-5.625 0-10.824-3-13.637-7.8711s-2.8125-10.875 0-15.746c2.8125-4.8711 8.0117-7.8711 13.637-7.8711h94.465c5.625 0 10.82 3 13.633 7.8711 2.8125 4.8711 2.8125 10.875 0 15.746s-8.0078 7.8711-13.633 7.8711z"/>
 <path d="m368.51 510.21h-94.465c-5.625 0-10.824-3-13.637-7.8711-2.8125-4.8711-2.8125-10.875 0-15.746s8.0117-7.8711 13.637-7.8711h94.465c5.625 0 10.82 3 13.633 7.8711s2.8125 10.875 0 15.746c-2.8125 4.8711-8.0078 7.8711-13.633 7.8711z"/>
 <path d="m400 573.18h-125.95c-5.625 0-10.824-3-13.637-7.8711s-2.8125-10.875 0-15.746 8.0117-7.8711 13.637-7.8711h125.95c5.625 0 10.82 3 13.633 7.8711s2.8125 10.875 0 15.746-8.0078 7.8711-13.633 7.8711z"/>
</svg>