<?xml version="1.0" encoding="UTF-8"?>
<!-- The Best Svg Icon site in the world: iconSvg.co, Visit us! https://iconsvg.co -->
<svg width="800px" height="800px" version="1.1" viewBox="144 144 512 512" xmlns="http://www.w3.org/2000/svg">
 <defs>
  <clipPath id="d">
   <path d="m352 541h96v110.9h-96z"/>
  </clipPath>
  <clipPath id="c">
   <path d="m352 148.09h96v110.91h-96z"/>
  </clipPath>
  <clipPath id="b">
   <path d="m557 344h94.902v112h-94.902z"/>
  </clipPath>
  <clipPath id="a">
   <path d="m148.09 344h94.906v112h-94.906z"/>
  </clipPath>
 </defs>
 <path d="m281.92 400c0 31.316 12.441 61.348 34.586 83.492 22.145 22.145 52.18 34.586 83.496 34.586s61.348-12.441 83.492-34.586c22.145-22.145 34.586-52.176 34.586-83.492s-12.441-61.352-34.586-83.496c-22.145-22.145-52.176-34.586-83.492-34.586-31.309 0.035156-61.32 12.488-83.457 34.625s-34.59 52.148-34.625 83.457zm220.42 0c0 27.141-10.781 53.168-29.977 72.359-19.191 19.195-45.219 29.977-72.359 29.977-27.145 0-53.172-10.781-72.363-29.977-19.191-19.191-29.973-45.219-29.973-72.359 0-27.145 10.781-53.172 29.973-72.363 19.191-19.191 45.219-29.973 72.363-29.973 27.129 0.03125 53.141 10.82 72.328 30.008 19.184 19.184 29.977 45.195 30.008 72.328z"/>
 <path d="m313.41 400c-0.003906 15.199 3.9922 30.129 11.586 43.293 2.1914 3.7344 6.9805 5 10.73 2.8359 3.7461-2.1602 5.043-6.9453 2.9062-10.707-11.828-20.438-12.695-45.426-2.3125-66.637 10.387-21.207 30.652-35.848 54.051-39.043 23.395-3.1953 46.848 5.4766 62.535 23.129 15.688 17.648 21.551 41.953 15.637 64.816-5.9141 22.859-22.832 41.27-45.113 49.098-22.277 7.8242-46.992 4.0352-65.906-10.109-3.4766-2.6055-8.4102-1.9023-11.02 1.5742-2.6094 3.4805-1.9023 8.4141 1.5742 11.023 20.969 15.711 47.922 21.082 73.312 14.609 25.387-6.4688 46.48-24.09 57.371-47.918 10.891-23.832 10.402-51.312-1.3242-74.742-11.727-23.434-33.43-40.293-59.031-45.863-25.602-5.5664-52.348 0.75781-72.75 17.199-20.398 16.445-32.254 41.238-32.246 67.441z"/>
 <path d="m400.23 423.61h-16.199c-4.3477 0-7.875 3.5273-7.875 7.875 0 4.3477 3.5273 7.8711 7.875 7.8711h16.199c8.4375-0.082031 16.191-4.6602 20.34-12.008 4.1445-7.3477 4.0586-16.348-0.23047-23.613-4.2891-7.2656-12.129-11.691-20.566-11.613-4.3477 0-7.8711-3.5234-7.8711-7.8711s3.5234-7.8711 7.8711-7.8711h16.203c4.3477 0 7.8711-3.5234 7.8711-7.8711 0-4.3477-3.5234-7.875-7.8711-7.875h-16.203c-8.4375 0.082031-16.188 4.6602-20.336 12.008-4.1484 7.3477-4.0625 16.352 0.22656 23.617 4.2891 7.2656 12.129 11.691 20.566 11.609 4.3477 0 7.8711 3.5234 7.8711 7.8711 0 4.3477-3.5234 7.8711-7.8711 7.8711z"/>
 <g clip-path="url(#d)">
  <path d="m422.77 594.81c5.707-5.9805 8.8359-13.965 8.7109-22.23-0.12891-8.2656-3.5-16.152-9.3906-21.953s-13.828-9.0508-22.094-9.0508c-8.2695 0-16.203 3.25-22.094 9.0508s-9.2656 13.688-9.3906 21.953c-0.12891 8.2656 3 16.25 8.7109 22.23-7.4062 4.0742-13.578 10.059-17.883 17.332-4.3008 7.2734-6.5742 15.566-6.5781 24.02v7.8711c0 2.0859 0.83203 4.0898 2.3047 5.5664 1.4766 1.4766 3.4805 2.3047 5.5664 2.3047h78.723c2.0859 0 4.0898-0.82812 5.5664-2.3047 1.4766-1.4766 2.3047-3.4805 2.3047-5.5664v-7.8711c-0.003907-8.4531-2.2773-16.746-6.5781-24.02-4.3008-7.2734-10.477-13.258-17.879-17.332zm-38.52-21.625c0-4.1758 1.6602-8.1797 4.6133-11.133 2.9531-2.9531 6.957-4.6133 11.133-4.6133s8.1797 1.6602 11.133 4.6133c2.9492 2.9531 4.6094 6.957 4.6094 11.133 0 4.1758-1.6602 8.1797-4.6094 11.133-2.9531 2.9531-6.957 4.6094-11.133 4.6094s-8.1797-1.6562-11.133-4.6094c-2.9531-2.9531-4.6133-6.957-4.6133-11.133zm-15.742 62.977c0-11.25 6-21.645 15.742-27.27 9.7422-5.625 21.746-5.625 31.488 0 9.7422 5.625 15.746 16.02 15.746 27.27z"/>
 </g>
 <g clip-path="url(#c)">
  <path d="m360.64 258.3h78.723c2.0859 0 4.0898-0.82812 5.5664-2.3047 1.4766-1.4766 2.3047-3.4766 2.3047-5.5664v-7.8711c-0.003907-8.4492-2.2773-16.746-6.5781-24.02-4.3008-7.2734-10.477-13.258-17.879-17.332 5.707-5.9805 8.8359-13.965 8.7109-22.23-0.12891-8.2656-3.5-16.152-9.3906-21.953-5.8906-5.8008-13.828-9.0508-22.094-9.0508-8.2695 0-16.203 3.25-22.094 9.0508-5.8906 5.8008-9.2656 13.688-9.3906 21.953-0.12891 8.2656 3 16.25 8.7109 22.23-7.4062 4.0742-13.578 10.059-17.883 17.332-4.3008 7.2734-6.5742 15.57-6.5781 24.02v7.8711c0 2.0898 0.83203 4.0898 2.3047 5.5664 1.4766 1.4766 3.4805 2.3047 5.5664 2.3047zm23.617-78.719c0-4.1758 1.6602-8.1797 4.6133-11.133 2.9531-2.9531 6.957-4.6133 11.133-4.6133s8.1797 1.6602 11.133 4.6133c2.9492 2.9531 4.6094 6.957 4.6094 11.133s-1.6602 8.1797-4.6094 11.133c-2.9531 2.9531-6.957 4.6094-11.133 4.6094s-8.1797-1.6562-11.133-4.6094c-2.9531-2.9531-4.6133-6.957-4.6133-11.133zm15.742 31.488h0.003906c8.3516 0 16.359 3.3164 22.266 9.2227 5.9023 5.9062 9.2227 13.914 9.2227 22.266h-62.977c0-8.3516 3.3164-16.359 9.2227-22.266 5.9023-5.9062 13.914-9.2227 22.266-9.2227z"/>
 </g>
 <g clip-path="url(#b)">
  <path d="m627.45 398.01c5.707-5.9805 8.8359-13.965 8.7109-22.23-0.12891-8.2656-3.5-16.152-9.3906-21.953s-13.828-9.0508-22.094-9.0508c-8.2695 0-16.203 3.25-22.094 9.0508s-9.2656 13.688-9.3906 21.953c-0.12891 8.2656 3 16.25 8.7109 22.23-7.4023 4.0742-13.578 10.059-17.879 17.332-4.3047 7.2734-6.5742 15.57-6.582 24.02v7.8711c0 2.0898 0.83203 4.0898 2.3086 5.5664 1.4766 1.4766 3.4766 2.3047 5.5664 2.3047h78.719c2.0859 0 4.0898-0.82812 5.5664-2.3047 1.4766-1.4766 2.3047-3.4766 2.3047-5.5664v-7.8711c-0.003906-8.4492-2.2773-16.746-6.5781-24.02-4.3008-7.2734-10.477-13.258-17.879-17.332zm-38.52-21.625c0-4.1758 1.6602-8.1797 4.6133-11.133 2.9531-2.9531 6.957-4.6133 11.133-4.6133s8.1797 1.6602 11.133 4.6133c2.9531 2.9531 4.6094 6.957 4.6094 11.133 0 4.1758-1.6562 8.1797-4.6094 11.133-2.9531 2.9531-6.957 4.6094-11.133 4.6094s-8.1797-1.6562-11.133-4.6094c-2.9531-2.9531-4.6133-6.957-4.6133-11.133zm-15.742 62.977c0-11.25 6-21.645 15.742-27.27 9.7422-5.625 21.746-5.625 31.488 0 9.7422 5.625 15.746 16.02 15.746 27.27z"/>
 </g>
 <g clip-path="url(#a)">
  <path d="m242.56 447.23v-7.8711c-0.003906-8.4492-2.2773-16.746-6.5781-24.02-4.3047-7.2734-10.477-13.258-17.879-17.332 5.707-5.9805 8.8359-13.965 8.707-22.23-0.125-8.2656-3.5-16.152-9.3906-21.953s-13.824-9.0508-22.094-9.0508c-8.2656 0-16.199 3.25-22.09 9.0508s-9.2656 13.688-9.3945 21.953c-0.125 8.2656 3.0039 16.25 8.7109 22.23-7.4023 4.0742-13.578 10.059-17.879 17.332-4.3008 7.2734-6.5742 15.57-6.5781 24.02v7.8711c0 2.0898 0.82812 4.0898 2.3047 5.5664 1.4766 1.4766 3.4805 2.3047 5.5664 2.3047h78.723c2.0859 0 4.0898-0.82812 5.5664-2.3047 1.4766-1.4766 2.3047-3.4766 2.3047-5.5664zm-62.977-70.848c0-4.1758 1.6602-8.1797 4.6094-11.133 2.9531-2.9531 6.957-4.6133 11.133-4.6133s8.1836 1.6602 11.133 4.6133c2.9531 2.9531 4.6133 6.957 4.6133 11.133 0 4.1758-1.6602 8.1797-4.6133 11.133-2.9492 2.9531-6.957 4.6094-11.133 4.6094s-8.1797-1.6562-11.133-4.6094c-2.9492-2.9531-4.6094-6.957-4.6094-11.133zm-15.746 62.977c0-11.25 6.0039-21.645 15.746-27.27 9.7422-5.625 21.746-5.625 31.488 0 9.7422 5.625 15.742 16.02 15.742 27.27z"/>
 </g>
 <path d="m591.86 471.45c-1.9258-0.80859-4.0938-0.81641-6.0273-0.023437-1.9297 0.78906-3.4688 2.3164-4.2773 4.2422-11.203 26.957-28.27 51.074-49.961 70.609-21.691 19.531-47.465 33.988-75.441 42.316-3.7383 1.1172-6.0938 4.8086-5.5312 8.6758 0.5625 3.8633 3.8711 6.7305 7.7773 6.7383 0.76172-0.003907 1.5234-0.11719 2.2578-0.33203 30.207-8.9883 58.031-24.598 81.453-45.684 23.418-21.09 41.848-47.129 53.945-76.23 0.8125-1.9258 0.82422-4.0898 0.039063-6.0273-0.78906-1.9336-2.3086-3.4727-4.2344-4.2852z"/>
 <path d="m343.89 588.55c-27.965-8.3281-53.723-22.781-75.41-42.301-21.684-19.523-38.75-43.629-49.961-70.57-0.76172-1.9883-2.2969-3.582-4.2539-4.418-1.957-0.83984-4.1719-0.84766-6.1367-0.023438-1.9609 0.82031-3.5078 2.4023-4.2852 4.3867-0.77734 1.9805-0.71875 4.1953 0.16016 6.1328 12.105 29.09 30.535 55.121 53.949 76.203 23.418 21.078 51.234 36.68 81.434 45.672 0.73438 0.21484 1.4961 0.32813 2.2617 0.32813 3.9062 0 7.2188-2.8672 7.7812-6.7344 0.56641-3.8633-1.7891-7.5586-5.5312-8.6758z"/>
 <path d="m207.3 330.73c4.0195 1.6211 8.5938-0.31641 10.23-4.332 11.133-27.164 28.137-51.531 49.793-71.352 21.656-19.82 47.434-34.602 75.477-43.289 4.1602-1.2656 6.5039-5.668 5.2383-9.8281-1.2656-4.1602-5.668-6.5039-9.8281-5.2383-30.273 9.3789-58.098 25.336-81.48 46.73-23.383 21.395-41.746 47.695-53.77 77.02-0.79297 1.9375-0.78516 4.1133 0.03125 6.0469 0.8125 1.9297 2.3633 3.457 4.3086 4.2422z"/>
 <path d="m457.16 211.69c28.035 8.6914 53.793 23.484 75.434 43.309 21.641 19.828 38.625 44.195 49.734 71.363 0.77344 1.9492 2.2891 3.5117 4.2188 4.3359 1.9258 0.82422 4.1055 0.84766 6.0508 0.058593 1.9414-0.78516 3.4922-2.3164 4.3047-4.25 0.8125-1.9336 0.82031-4.1094 0.019531-6.0469-12-29.336-30.344-55.656-53.715-77.066-23.371-21.41-51.191-37.383-81.465-46.77-4.1602-1.2656-8.5586 1.082-9.8242 5.2422-1.2656 4.1602 1.082 8.5586 5.2422 9.8242z"/>
</svg>