<?xml version="1.0" encoding="UTF-8"?>
<!-- The Best Svg Icon site in the world: iconSvg.co, Visit us! https://iconsvg.co -->
<svg fill="#000000" width="800px" height="800px" version="1.1" viewBox="144 144 512 512" xmlns="http://www.w3.org/2000/svg">
 <g>
  <path d="m255.89 479.76h-77.684c-2.7188 0-4.9258 2.207-4.9258 4.9336v99.156c0 2.7188 2.207 4.9258 4.9258 4.9258h77.684c2.7188 0 4.9258-2.207 4.9258-4.9258v-99.156c0-2.7266-2.207-4.9336-4.9258-4.9336zm-4.9297 99.16h-67.82v-89.301h67.824z"/>
  <path d="m492 376.29h-77.68c-2.7188 0-4.9258 2.207-4.9258 4.9258v202.62c0 2.7188 2.207 4.9258 4.9258 4.9258h77.684c2.7188 0 4.9258-2.207 4.9258-4.9258v-202.61c-0.003907-2.7266-2.2109-4.9336-4.9297-4.9336zm-4.9297 202.63h-67.82v-192.77h67.824z"/>
  <path d="m626.55 288.57-9.4023-36.82c-0.55469-2.1797-2.5234-3.707-4.7773-3.707h-12.055l-8.4531-33.117c-0.55469-2.1797-2.5234-3.707-4.7773-3.707h-31.77c-2.2539 0-4.2188 1.5273-4.7773 3.707l-8.4531 33.117h-12.055c-2.2539 0-4.2188 1.5273-4.7773 3.707l-9.4023 36.82c-0.37891 1.4766-0.050781 3.043 0.88281 4.2422 0.93359 1.2031 2.3672 1.9062 3.8906 1.9062h101.15c1.5234 0 2.957-0.69922 3.8906-1.9062 0.9375-1.1992 1.2656-2.7656 0.88672-4.2422zm-67.398-67.496h24.113l6.8867 26.965h-37.883zm12.059 48.797-3.0586-11.969h6.1094zm-44.227 14.992 6.8867-26.965h24.109l6.8828 26.965zm50.574 0 6.8867-26.965h24.109l6.8828 26.965z"/>
  <path d="m495.59 300.98c-0.10938-0.12109-0.17969-0.27344-0.30078-0.37891-0.29297-0.26172-0.63672-0.41797-0.98438-0.59766-0.29297-0.15625-0.57422-0.3125-0.89062-0.40625-0.14453-0.039062-0.25781-0.15625-0.40234-0.1875l-36.082-7.0586c-2.6914-0.53906-5.2656 1.2188-5.7852 3.8906-0.52344 2.6719 1.2188 5.2617 3.8906 5.7852l21.016 4.1055-261.04 119.32c-2.4805 1.1328-3.5664 4.0547-2.4336 6.5312 0.82813 1.8125 2.6133 2.8828 4.4844 2.8828 0.68359 0 1.3789-0.14453 2.0469-0.44922l261.51-119.53-10.539 19.227c-1.3086 2.3828-0.43359 5.3789 1.9531 6.6914 0.75 0.41406 1.5625 0.60547 2.3633 0.60547 1.7422 0 3.4297-0.92187 4.3281-2.5586l17.672-32.238c0.074219-0.13672 0.058593-0.29688 0.12109-0.44141 0.10547-0.25 0.15234-0.51953 0.21484-0.78516 0.26172-1.0781 0.28906-2.2031-0.19141-3.2305-0.22266-0.47656-0.60156-0.8125-0.94531-1.1797z"/>
  <path d="m378.64 431.79c-0.082031-0.32812-0.14062-0.65625-0.28125-0.95312-0.03125-0.066406-0.023437-0.14062-0.058594-0.20312-0.10938-0.20703-0.29297-0.33203-0.42188-0.51953-0.20703-0.28125-0.39453-0.5625-0.65625-0.79688-0.24219-0.21484-0.50781-0.36328-0.78125-0.52344-0.26562-0.16016-0.51953-0.32812-0.81641-0.43359-0.32812-0.12109-0.67188-0.15625-1.0195-0.20703-0.22266-0.03125-0.42188-0.13281-0.65625-0.13281l-77.68 0.007812c-2.7188 0-4.9258 2.207-4.9258 4.9258v150.89c0 0.074219 0.039062 0.14062 0.046875 0.21484 0.015625 0.32422 0.10938 0.62891 0.19141 0.94531 0.082031 0.32813 0.14062 0.65625 0.28125 0.95313 0.03125 0.066406 0.023438 0.14062 0.058594 0.20312 0.23047 0.43359 0.51953 0.8125 0.84766 1.1445 0.035157 0.035156 0.082031 0.054687 0.11719 0.089844 0.37891 0.36328 0.8125 0.64062 1.2734 0.86328 0.13672 0.066406 0.27344 0.12109 0.41406 0.17188 0.54297 0.20312 1.1016 0.33594 1.6875 0.34375h0.011719 77.684c2.7188 0 4.9258-2.207 4.9258-4.9258v-150.89c0-0.074219-0.039062-0.14063-0.046874-0.21484-0.015626-0.32422-0.11719-0.62891-0.19531-0.95312zm-77.445 82.012 67.824-36.133v25.332l-67.824 36.133zm67.824-47.305-67.824 36.133v-25.332l67.824-36.133zm-67.824 83.805 67.824-36.133v25.336l-67.824 36.133zm53.023-112.42-53.02 28.25-0.003907-28.25zm-38.219 141.04 53.02-28.25v28.25z"/>
  <path d="m614.75 328.34c-0.082032-0.32422-0.13281-0.64453-0.27344-0.9375-0.03125-0.058594-0.023437-0.13281-0.054687-0.19141-0.10938-0.21094-0.29688-0.34375-0.43359-0.53516-0.20703-0.28906-0.39453-0.57031-0.64844-0.80469-0.23047-0.21094-0.5-0.35156-0.76563-0.51563-0.27344-0.16797-0.53516-0.33594-0.83594-0.45312-0.31641-0.11719-0.64453-0.15234-0.98438-0.19531-0.23828-0.035156-0.45312-0.14062-0.69922-0.14062h-77.676c-2.7188 0-4.9258 2.207-4.9258 4.9258v254.35c0 2.7188 2.207 4.9258 4.9258 4.9258h77.684c2.7188 0 4.9258-2.207 4.9258-4.9258v-254.35c0-0.070313-0.035156-0.125-0.039063-0.19141-0.011718-0.32812-0.11719-0.64062-0.19922-0.96484zm-9.6211 123.09-67.824 35.477v-30.512l67.824-35.477zm0-41.641-67.824 35.477v-30.512l67.824-35.477zm-67.824 88.238 67.824-35.477v30.512l-67.824 35.477zm67.824-129.87-67.824 35.477v-30.512l67.824-35.477zm-67.824 171.51 67.824-35.477v30.512l-67.824 35.477zm52.699-205.24-52.695 27.562v-27.562zm-48.152 244.5 63.285-33.102v33.102z"/>
 </g>
</svg>