<?xml version="1.0" encoding="UTF-8"?>
<!-- The Best Svg Icon site in the world: iconSvg.co, Visit us! https://iconsvg.co -->
<svg fill="#000000" width="800px" height="800px" version="1.1" viewBox="144 144 512 512" xmlns="http://www.w3.org/2000/svg">
 <path d="m541.7 179.58h-283.39c-20.875 0-40.898 8.293-55.664 23.055-14.762 14.766-23.055 34.789-23.055 55.664v283.39c0 20.879 8.293 40.898 23.055 55.664 14.766 14.762 34.789 23.055 55.664 23.055h283.39c20.879 0 40.898-8.293 55.664-23.055 14.762-14.766 23.055-34.785 23.055-55.664v-283.39c0-20.875-8.293-40.898-23.055-55.664-14.766-14.762-34.785-23.055-55.664-23.055zm47.23 362.11c0 12.527-4.9766 24.539-13.832 33.398-8.8594 8.8555-20.871 13.832-33.398 13.832h-125.95v-207.03l34.953 43.77v-0.003906c3 3.6992 7.5156 5.8438 12.281 5.8281 3.6016 0.011719 7.1055-1.2109 9.918-3.4648 3.2188-2.6211 5.2734-6.4062 5.7148-10.535 0.44531-4.1289-0.76172-8.2656-3.3555-11.508l-50.695-62.977c-6.1602-7.1445-15.125-11.25-24.559-11.25s-18.402 4.1055-24.562 11.25l-50.695 62.977c-3.3086 4.4062-4.0742 10.215-2.0195 15.328 2.0508 5.1094 6.6289 8.7773 12.062 9.668 5.4336 0.88672 10.941-1.125 14.516-5.3164l34.953-43.766v207.03h-125.95c-12.527 0-24.539-4.9766-33.398-13.832-8.8555-8.8594-13.832-20.871-13.832-33.398v-283.39c0-12.527 4.9766-24.539 13.832-33.398 8.8594-8.8555 20.871-13.832 33.398-13.832h283.39c12.527 0 24.539 4.9766 33.398 13.832 8.8555 8.8594 13.832 20.871 13.832 33.398z"/>
</svg>