<?xml version="1.0" encoding="UTF-8"?>
<!-- The Best Svg Icon site in the world: iconSvg.co, Visit us! https://iconsvg.co -->
<svg fill="#000000" width="800px" height="800px" version="1.1" viewBox="144 144 512 512" xmlns="http://www.w3.org/2000/svg">
 <g>
  <path d="m400.13 619.84c-2.5312 0-4.582-2.0508-4.582-4.582v-186.07c0-2.5273 2.0508-4.5781 4.582-4.5781 2.5273 0 4.5781 2.0508 4.5781 4.5781v186.07c0 1.2148-0.48047 2.3789-1.3398 3.2383s-2.0234 1.3438-3.2383 1.3438z"/>
  <path d="m432.13 546.38c-10.633 6.9648-20.199 15.434-28.398 25.145-0.86328 1.125-2.1992 1.7812-3.6172 1.7852-1.0234 0-2.0117-0.35547-2.7969-1.0078-0.96484-0.74219-1.5859-1.8359-1.7305-3.043-0.14844-1.207 0.19531-2.418 0.95312-3.3672 8.9453-10.664 19.41-19.953 31.055-27.574 1.2109 2.8477 2.7305 5.5508 4.5352 8.0625z"/>
  <path d="m575.03 474.34c-14.797 13.559-24.184 29.402-33.25 44.703-13.879 23.449-26.977 45.57-56.473 47.496-2.9375 0.27344-5.8203 0.45703-8.6602 0.45703-18.047 0-33.02-6.2734-42.594-18.047-0.69141-0.82422-1.3281-1.6953-1.9219-2.5664 35.77-24.734 84.223-43.281 84.863-43.512h-0.003907c2.3398-0.92188 3.5195-3.543 2.6602-5.9062-0.42969-1.1367-1.2969-2.0547-2.4023-2.5547-1.1094-0.49609-2.3711-0.53516-3.5039-0.10156-30.172 11.633-59.043 26.387-86.152 44.012-5.3789-13.363-5.707-28.227-0.91797-41.816 2.9062-9.4961 8.0586-18.152 15.02-25.234 25.102-24.961 69.438-26.52 131.73-4.625 1.5312 0.51172 2.668 1.8047 2.9766 3.3867 0.32812 1.5781-0.19141 3.207-1.3672 4.3086z"/>
  <path d="m280.39 496.96c-0.43359 1.1328-0.39453 2.3945 0.10156 3.5039 0.5 1.1055 1.418 1.9727 2.5547 2.4023 0.63672 0.23047 49.098 18.777 84.867 43.512-0.59375 0.87109-1.2422 1.7422-1.9219 2.5664-9.5781 11.77-24.508 18-42.688 18v-0.003907c-2.9219 0.003907-5.8438-0.14844-8.7539-0.45703-29.312-1.8789-42.453-24-56.285-47.449-9.0703-15.297-18.457-31.145-33.258-44.703l0.003907 0.003906c-1.1914-1.0938-1.7305-2.7227-1.418-4.3086 0.32812-1.5742 1.4609-2.8594 2.9805-3.3867 62.289-21.895 106.62-20.289 131.77 4.625 6.9492 7.0859 12.086 15.742 14.98 25.234 4.7969 13.582 4.4844 28.449-0.875 41.816-27.117-17.609-55.988-32.359-86.148-44.012-1.1328-0.44141-2.3984-0.40625-3.5078 0.09375-1.1094 0.49609-1.9727 1.4219-2.3984 2.5625z"/>
  <path d="m402.72 572.3c-0.79688 0.66016-1.8047 1.0195-2.8398 1.0078-1.4102-0.023438-2.7383-0.67969-3.6133-1.7852-8.1641-9.7188-17.711-18.191-28.328-25.145 1.7852-2.5234 3.3047-5.2227 4.5312-8.0625 11.645 7.625 22.109 16.914 31.055 27.574 1.543 1.9961 1.1836 4.8594-0.80469 6.4102z"/>
  <path d="m447.32 294.41-25.414-3.6953c-3.6406-0.53516-6.7852-2.8164-8.4258-6.1055l-11.375-23.043c-0.34766-0.71094-1.0703-1.1602-1.8594-1.1602-0.78906 0-1.5117 0.44922-1.8594 1.1602l-11.367 23.012c-1.6484 3.3086-4.8164 5.5977-8.4727 6.125l-25.387 3.6953-0.003906 0.003906c-0.78906 0.09375-1.4492 0.64844-1.6797 1.4141-0.25391 0.75781-0.046874 1.5977 0.53125 2.1523l18.375 17.918c2.6562 2.5898 3.8555 6.3242 3.207 9.9727l-4.3516 25.258v0.003906c-0.14062 0.78516 0.19141 1.582 0.84766 2.0391 0.62891 0.46875 1.4766 0.52344 2.1602 0.14453l22.766-11.934c3.2734-1.6953 7.168-1.6953 10.441 0l22.727 11.941v-0.003906c0.69922 0.38672 1.5586 0.32812 2.1992-0.14844 0.65234-0.45312 0.97656-1.25 0.82031-2.0312l-4.3242-25.285c-0.64062-3.6406 0.55859-7.3633 3.207-9.9453l18.379-17.926c0.57812-0.54687 0.77734-1.3828 0.51172-2.1328-0.22656-0.75781-0.87109-1.3125-1.6523-1.4297z"/>
  <path d="m400.21 224.03c-22.004 0-43.105 8.7383-58.664 24.297-15.559 15.555-24.301 36.656-24.301 58.66 0 22 8.7383 43.102 24.297 58.66 15.559 15.559 36.656 24.301 58.66 24.301s43.105-8.7383 58.66-24.297c15.559-15.559 24.301-36.66 24.301-58.66-0.015624-21.996-8.7617-43.09-24.312-58.645-15.555-15.555-36.645-24.301-58.641-24.316zm54.68 80.492-18.379 17.93c-0.5 0.46875-0.73438 1.1562-0.61328 1.832l4.3281 25.312c0.73828 4.2227-0.99609 8.4922-4.4609 11.008-3.4688 2.5156-8.0664 2.8359-11.852 0.82422l-22.695-11.91h0.003906c-0.62109-0.32031-1.3594-0.32031-1.9805 0l-22.707 11.91c-3.7812 1.9844-8.3594 1.6562-11.82-0.84766-3.457-2.5039-5.1953-6.7539-4.4883-10.965l4.3594-25.305c0.11328-0.67188-0.11328-1.3594-0.60547-1.832l-18.375-17.918c-3.0625-2.9883-4.1641-7.4531-2.8438-11.523 1.3242-4.0703 4.8398-7.0391 9.0742-7.6562l25.398-3.6953h-0.003906c0.68359-0.10156 1.2734-0.52734 1.5859-1.1406l11.359-23v-0.003906c1.8867-3.8398 5.7969-6.2695 10.074-6.2695 4.2812 0 8.1875 2.4297 10.078 6.2695l11.363 23.016c0.29688 0.60156 0.87109 1.0234 1.5391 1.1211l25.43 3.6953-0.003906 0.003906c4.2305 0.62109 7.7383 3.5859 9.0625 7.6484 1.3242 4.0664 0.23047 8.5273-2.8203 11.523z"/>
  <path d="m400.2 180.16c-33.648 0-65.922 13.367-89.715 37.164-23.793 23.793-37.156 56.066-37.152 89.719 0.003907 33.648 13.375 65.918 37.176 89.711 23.797 23.789 56.074 37.148 89.723 37.141 33.648-0.007813 65.918-13.383 89.707-37.184 23.785-23.805 37.145-56.078 37.133-89.73-0.035156-33.633-13.41-65.879-37.199-89.656-23.785-23.781-56.039-37.148-89.672-37.164zm0 218.93v-0.003907c-24.434 0-47.863-9.707-65.141-26.988-17.273-17.277-26.977-40.711-26.973-65.145 0.003906-24.43 9.7109-47.863 26.992-65.137s40.715-26.973 65.145-26.969c24.434 0.003906 47.863 9.7188 65.137 26.996 17.273 17.281 26.973 40.719 26.965 65.152-0.019531 24.422-9.7344 47.84-27.004 65.109-17.27 17.273-40.688 26.984-65.109 27.004z"/>
 </g>
</svg>