<?xml version="1.0" encoding="UTF-8"?>
<!-- The Best Svg Icon site in the world: iconSvg.co, Visit us! https://iconsvg.co -->
<svg fill="#000000" width="800px" height="800px" version="1.1" viewBox="144 144 512 512" xmlns="http://www.w3.org/2000/svg">
 <g>
  <path d="m316.03 379.01c5.7969 0 10.496-4.6992 10.496-10.496s-4.6992-10.496-10.496-10.496h-10.496c0-5.7969-4.6992-10.496-10.496-10.496-5.7969 0-10.496 4.6992-10.496 10.496h-10.496c-5.7969 0-10.496 4.6992-10.496 10.496v31.488c0 2.7812 1.1055 5.4531 3.0742 7.4219s4.6367 3.0742 7.4219 3.0742h31.488v10.496h-31.488c-5.7969 0-10.496 4.6992-10.496 10.496s4.6992 10.496 10.496 10.496h10.496c0 5.7969 4.6992 10.496 10.496 10.496 5.7969 0 10.496-4.6992 10.496-10.496h10.496c2.7812 0 5.4531-1.1094 7.4219-3.0742 1.9688-1.9688 3.0742-4.6406 3.0742-7.4219v-31.488c0-2.7852-1.1055-5.4531-3.0742-7.4219s-4.6406-3.0742-7.4219-3.0742h-31.488v-10.496z"/>
  <path d="m462.98 410.5h53.949c3.4336 13.305 13.164 24.086 26.051 28.867 12.887 4.7773 27.293 2.9492 38.574-4.8984 11.281-7.8516 18.008-20.723 18.008-34.465 0-13.746-6.7266-26.617-18.008-34.465s-25.688-9.6797-38.574-4.9023c-12.887 4.7812-22.617 15.562-26.051 28.871h-53.949v-136.45h53.949c3.4336 13.305 13.164 24.09 26.051 28.867 12.887 4.7773 27.293 2.9492 38.574-4.8984 11.281-7.8477 18.008-20.723 18.008-34.465 0-13.742-6.7266-26.617-18.008-34.465s-25.688-9.6797-38.574-4.8984c-12.887 4.7773-22.617 15.559-26.051 28.867h-64.445c-5.7969 0-10.496 4.6992-10.496 10.496v146.95h-53.113c-3.6094-32.301-23.57-60.473-52.844-74.59-29.273-14.121-63.746-12.199-91.27 5.0859-27.523 17.281-44.23 47.5-44.23 80 0 32.496 16.707 62.715 44.23 80 27.523 17.281 61.996 19.203 91.27 5.0859 29.273-14.121 49.234-42.293 52.844-74.59h53.113v146.94c0 2.7852 1.1055 5.4531 3.0742 7.4219 1.9648 1.9688 4.6367 3.0742 7.4219 3.0742h64.445c3.4336 13.309 13.164 24.09 26.051 28.871 12.887 4.7773 27.293 2.9453 38.574-4.9023s18.008-20.719 18.008-34.465c0-13.742-6.7266-26.613-18.008-34.465-11.281-7.8477-25.688-9.6758-38.574-4.8984-12.887 4.7812-22.617 15.562-26.051 28.867h-53.949zm94.465-31.488h-0.003906c5.5703 0 10.91 2.2109 14.844 6.1484 3.9375 3.9336 6.1484 9.2734 6.1484 14.844 0 5.5664-2.2109 10.906-6.1484 14.844-3.9336 3.9336-9.2734 6.1484-14.844 6.1484-5.5664 0-10.906-2.2148-14.844-6.1484-3.9336-3.9375-6.1484-9.2773-6.1484-14.844 0-5.5703 2.2148-10.91 6.1484-14.844 3.9375-3.9375 9.2773-6.1484 14.844-6.1484zm-0.003906-157.44c5.5703 0 10.91 2.2109 14.844 6.1484 3.9375 3.9375 6.1484 9.2773 6.1484 14.844s-2.2109 10.906-6.1484 14.844c-3.9336 3.9375-9.2734 6.1484-14.844 6.1484-5.5664 0-10.906-2.2109-14.844-6.1484-3.9336-3.9375-6.1484-9.2773-6.1484-14.844s2.2148-10.906 6.1484-14.844c3.9375-3.9375 9.2773-6.1484 14.844-6.1484zm-262.4 251.91c-19.488 0-38.176-7.7422-51.953-21.52-13.777-13.781-21.52-32.469-21.52-51.953 0-19.488 7.7422-38.176 21.52-51.953 13.777-13.781 32.465-21.52 51.953-21.52 19.484 0 38.172 7.7383 51.953 21.52 13.777 13.777 21.52 32.465 21.52 51.953 0 19.484-7.7422 38.172-21.52 51.953-13.781 13.777-32.469 21.52-51.953 21.52zm262.4 62.977-0.003906-0.003907c5.5703 0 10.91 2.2148 14.844 6.1484 3.9375 3.9375 6.1484 9.2773 6.1484 14.844 0 5.5703-2.2109 10.91-6.1484 14.844-3.9336 3.9375-9.2734 6.1484-14.844 6.1484-5.5664 0-10.906-2.2109-14.844-6.1484-3.9336-3.9336-6.1484-9.2734-6.1484-14.844 0-5.5664 2.2148-10.906 6.1484-14.844 3.9375-3.9336 9.2773-6.1484 14.844-6.1484z"/>
 </g>
</svg>