<?xml version="1.0" encoding="UTF-8"?>
<!-- The Best Svg Icon site in the world: iconSvg.co, Visit us! https://iconsvg.co -->
<svg width="800px" height="800px" version="1.1" viewBox="144 144 512 512" xmlns="http://www.w3.org/2000/svg">
 <defs>
  <clipPath id="b">
   <path d="m284 148.09h232v191.91h-232z"/>
  </clipPath>
  <clipPath id="a">
   <path d="m284 460h232v191.9h-232z"/>
  </clipPath>
 </defs>
 <path d="m400 541.7c-37.582 0-73.621-14.93-100.2-41.504-26.574-26.57-41.504-62.613-41.504-100.19 0-37.582 14.93-73.621 41.504-100.2 26.574-26.574 62.613-41.504 100.2-41.504 37.578 0 73.621 14.93 100.19 41.504 26.574 26.574 41.504 62.613 41.504 100.2-0.042968 37.566-14.984 73.582-41.547 100.15-26.566 26.562-62.582 41.504-100.15 41.547zm0-251.91c-29.23 0-57.262 11.613-77.93 32.281-20.668 20.668-32.281 48.699-32.281 77.93 0 29.227 11.613 57.258 32.281 77.926 20.668 20.668 48.699 32.281 77.93 32.281 29.227 0 57.258-11.613 77.926-32.281s32.281-48.699 32.281-77.926c-0.035156-29.219-11.656-57.234-32.316-77.895-20.66-20.66-48.672-32.281-77.891-32.316z"/>
 <path d="m408.99 469.72h-44.977c-5.625 0-10.824-3-13.637-7.8711-2.8125-4.8711-2.8125-10.871 0-15.742s8.0117-7.875 13.637-7.875h44.98-0.003906c6.1602-0.070313 11.117-5.0859 11.117-11.246 0-6.1602-4.957-11.172-11.117-11.246h-17.988c-15.207-0.09375-29.219-8.2578-36.793-21.441-7.5781-13.184-7.5781-29.402 0-42.586 7.5742-13.184 21.586-21.352 36.793-21.441h44.98c5.625 0 10.82 3 13.633 7.8711 2.8125 4.8711 2.8125 10.875 0 15.746s-8.0078 7.8711-13.633 7.8711h-44.98c-6.1602 0.070312-11.113 5.0859-11.113 11.246 0 6.1602 4.9531 11.172 11.113 11.246h17.988c15.207 0.09375 29.219 8.2578 36.793 21.441 7.5781 13.184 7.5781 29.402 0 42.586-7.5742 13.184-21.586 21.352-36.793 21.441z"/>
 <path d="m400 361.76c-4.1758 0-8.1797-1.6602-11.133-4.6133-2.9531-2.9531-4.6133-6.957-4.6133-11.133v-17.988c0-5.625 3-10.82 7.8711-13.633s10.875-2.8125 15.746 0 7.8711 8.0078 7.8711 13.633v17.988c0 4.1758-1.6602 8.1797-4.6094 11.133-2.9531 2.9531-6.957 4.6133-11.133 4.6133z"/>
 <path d="m400 487.71c-4.1758 0-8.1797-1.6602-11.133-4.6133-2.9531-2.9531-4.6133-6.957-4.6133-11.133v-17.988c0-5.625 3-10.824 7.8711-13.637s10.875-2.8125 15.746 0 7.8711 8.0117 7.8711 13.637v17.988c0 4.1758-1.6602 8.1797-4.6094 11.133-2.9531 2.9531-6.957 4.6133-11.133 4.6133z"/>
 <g clip-path="url(#b)">
  <path d="m499.98 339.23c-4.9258 0-9.5703-2.3047-12.547-6.2266-20.828-27.23-53.156-43.203-87.438-43.203-34.285 0-66.609 15.973-87.438 43.203-2.8242 3.7148-7.1445 5.9844-11.805 6.2031-4.6602 0.21484-9.1758-1.6445-12.328-5.0781-3.1562-3.4375-4.625-8.0938-4.0117-12.719l17.633-132.24v0.003907c1.5039-11.352 7.0742-21.766 15.68-29.32 8.6016-7.5547 19.652-11.73 31.102-11.754h102.34c11.453 0.027344 22.508 4.207 31.113 11.77s14.172 17.988 15.672 29.344l17.633 132.2c0.60547 4.4961-0.76172 9.0352-3.7539 12.449-2.9883 3.4141-7.3047 5.3711-11.844 5.3672zm-151.15-159.64c-3.8125 0.011719-7.4883 1.4062-10.352 3.9219-2.8594 2.5156-4.7109 5.9844-5.2109 9.7617l-11.855 88.883h0.003907c23.258-15.547 50.605-23.848 78.582-23.848 27.973 0 55.32 8.3008 78.582 23.848l-11.848-88.836c-0.49219-3.7852-2.3398-7.2656-5.2031-9.7891-2.8633-2.5273-6.5469-3.9258-10.363-3.9414z"/>
 </g>
 <g clip-path="url(#a)">
  <path d="m451.17 651.9h-102.34c-11.457-0.027344-22.512-4.207-31.117-11.77-8.6016-7.5586-14.172-17.984-15.672-29.344l-17.633-132.2v0.003906c-0.61328-4.625 0.85547-9.2812 4.0117-12.719 3.1523-3.4336 7.668-5.2969 12.328-5.0781s8.9844 2.4883 11.805 6.2031c20.828 27.23 53.152 43.203 87.438 43.203 34.285 0 66.609-15.973 87.438-43.203 2.8203-3.7148 7.1445-5.9844 11.805-6.2031s9.1758 1.6445 12.328 5.0781c3.1562 3.4375 4.625 8.0938 4.0117 12.719l-17.633 132.24v-0.003906c-1.5078 11.348-7.0781 21.762-15.68 29.312-8.6016 7.5547-19.648 11.73-31.094 11.754zm-129.75-134.05 11.848 88.836h-0.003906c0.49219 3.7891 2.3398 7.2656 5.2031 9.793 2.8633 2.5234 6.5469 3.9258 10.367 3.9375h102.34c3.8086-0.011718 7.4844-1.4023 10.348-3.9219 2.8594-2.5156 4.7109-5.9844 5.2109-9.7617l11.855-88.883c-23.262 15.547-50.609 23.848-78.582 23.848-27.977 0-55.324-8.3008-78.582-23.848z"/>
 </g>
</svg>