<?xml version="1.0" encoding="UTF-8"?>
<!-- The Best Svg Icon site in the world: iconSvg.co, Visit us! https://iconsvg.co -->
<svg fill="#000000" width="800px" height="800px" version="1.1" viewBox="144 144 512 512" xmlns="http://www.w3.org/2000/svg">
 <path d="m599.48 465.49c-2.5781-2.1328-5.7695-3.3906-9.1094-3.5898-3.3398-0.19531-6.6562 0.67578-9.4688 2.4883-33.797 21.699-73.629 32.059-113.71 29.582-40.086-2.4766-78.34-17.664-109.21-43.355-30.867-25.691-52.746-60.551-62.461-99.523-9.7109-38.969-6.7539-80.02 8.4492-117.2 1.2695-3.1094 1.5117-6.543 0.69141-9.8008-0.82422-3.2578-2.6641-6.168-5.2578-8.3047-2.5781-2.1328-5.7695-3.3906-9.1094-3.5898s-6.6562 0.67188-9.4688 2.4883c-38.766 25.191-68.625 61.934-85.359 105.03-16.734 43.094-19.496 90.359-7.8906 135.11 11.605 44.75 36.984 84.723 72.551 114.25 35.57 29.531 79.523 47.137 125.64 50.316 46.121 3.1797 92.074-8.2227 131.36-32.594s69.914-60.477 87.551-103.21c1.1992-3.1719 1.3438-6.6523 0.40625-9.9141-0.93359-3.2617-2.9023-6.1367-5.6016-8.1914zm-199.48 123.43c-49.195 0.019531-96.461-19.152-131.74-53.438-35.277-34.285-55.793-80.98-57.184-130.16s16.457-96.953 49.746-133.18c-1.7031 11.043-2.5469 22.203-2.5195 33.379-0.011719 47.051 15.035 92.875 42.938 130.76 27.898 37.891 67.195 65.855 112.13 79.805 44.938 13.949 93.16 13.152 137.61-2.2734-17.633 23.355-40.449 42.297-66.648 55.328-26.203 13.035-55.074 19.801-84.336 19.77zm-31.488-251.9c0-4.1758 1.6562-8.1797 4.6094-11.133s6.957-4.6133 11.133-4.6133h25.031l-6.6133-6.4531h0.003906c-3.9961-3.9961-5.5547-9.8164-4.0938-15.27 1.4648-5.457 5.7227-9.7188 11.18-11.18s11.277 0.097656 15.27 4.0898l6.4531 6.6133 0.003906-25.031c0-5.625 3-10.824 7.8711-13.637s10.871-2.8125 15.742 0c4.8711 2.8125 7.875 8.0117 7.875 13.637v25.031l6.4531-6.6133c3.9922-3.9922 9.8164-5.5508 15.27-4.0898 5.457 1.4609 9.7188 5.7227 11.18 11.18 1.4609 5.4531-0.097656 11.273-4.0938 15.27l-6.6133 6.4531h25.035c5.625 0 10.82 3 13.633 7.8711 2.8125 4.875 2.8125 10.875 0 15.746-2.8125 4.8711-8.0078 7.8711-13.633 7.8711h-25.035l6.6133 6.4531v0.003906c2.9805 2.9531 4.6602 6.9805 4.6602 11.176 0 4.1992-1.6797 8.2227-4.6602 11.18-2.9688 2.9453-6.9922 4.5898-11.176 4.5664-4.1875 0.023438-8.207-1.6211-11.18-4.5664l-6.4531-6.6133v25.035c0 5.625-3.0039 10.82-7.875 13.633-4.8711 2.8125-10.871 2.8125-15.742 0s-7.8711-8.0078-7.8711-13.633v-25.035l-6.4531 6.6133h-0.003906c-2.9727 2.9453-6.9922 4.5898-11.18 4.5664-4.1836 0.023438-8.207-1.6211-11.176-4.5664-2.9805-2.957-4.6562-6.9805-4.6562-11.18 0-4.1953 1.6758-8.2227 4.6562-11.176l6.6133-6.4531-25.035-0.003906c-4.1758 0-8.1797-1.6562-11.133-4.6094s-4.6094-6.957-4.6094-11.133z"/>
</svg>