<?xml version="1.0" encoding="UTF-8"?>
<!-- The Best Svg Icon site in the world: iconSvg.co, Visit us! https://iconsvg.co -->
<svg width="800px" height="800px" version="1.1" viewBox="144 144 512 512" xmlns="http://www.w3.org/2000/svg">
 <defs>
  <clipPath id="a">
   <path d="m165 148.09h442v503.81h-442z"/>
  </clipPath>
 </defs>
 <g clip-path="url(#a)">
  <path d="m229.11 507.89c1.4766 1.4844 3.4805 2.3164 5.5742 2.3164 2.0898 0 4.0938-0.83203 5.5703-2.3164l22.246-22.246c2.9844-3.0859 2.9414-7.9961-0.09375-11.035-3.0352-3.0352-7.9453-3.0781-11.035-0.09375l-8.8164 8.8164v-75.461c0-6.2656 2.4883-12.27 6.918-16.699 4.4258-4.4297 10.434-6.918 16.699-6.918h125.95v99.078l-8.832-8.832h-0.003906c-3.0859-2.9844-7.9961-2.9414-11.035 0.09375-3.0352 3.0391-3.0781 7.9492-0.09375 11.035l22.246 22.246c1.4766 1.4805 3.4805 2.3125 5.5742 2.3125 2.0898 0 4.0938-0.83203 5.5703-2.3125l22.246-22.246c2.9844-3.0859 2.9414-7.9961-0.09375-11.035-3.0352-3.0352-7.9453-3.0781-11.035-0.09375l-8.832 8.832v-99.078h125.95c6.2656-0.007812 12.281 2.4766 16.719 6.9062 4.4336 4.4297 6.9258 10.441 6.9258 16.711v75.461l-8.832-8.832c-3.0859-2.9844-7.9961-2.9414-11.035 0.09375-3.0352 3.0391-3.0781 7.9492-0.09375 11.035l22.246 22.246c1.4766 1.4805 3.4805 2.3125 5.5742 2.3125 2.0898 0 4.0938-0.83203 5.5703-2.3125l22.246-22.246c2.9844-3.0859 2.9414-7.9961-0.09375-11.035-3.0352-3.0352-7.9453-3.0781-11.035-0.09375l-8.8008 8.832v-75.461c0-10.441-4.1484-20.449-11.527-27.832-7.3828-7.3828-17.395-11.527-27.832-11.527h-125.95v-16.141c35.52-2.7383 67.055-23.754 83.262-55.477 16.207-31.727 14.746-69.598-3.8516-99.98-18.598-30.383-51.66-48.91-87.281-48.91-35.625 0-68.688 18.527-87.285 48.91-18.598 30.383-20.055 68.254-3.8516 99.98 16.207 31.723 47.746 52.738 83.262 55.477v16.141h-125.95 0.003906c-10.441 0-20.453 4.1445-27.832 11.527-7.3828 7.3828-11.531 17.391-11.531 27.832v75.461l-8.832-8.832c-3.0859-2.9844-7.9961-2.9414-11.035 0.09375-3.0352 3.0391-3.0781 7.9492-0.09375 11.035zm84.293-257.46c0-22.965 9.125-44.992 25.363-61.23s38.262-25.363 61.23-25.363c22.965 0 44.988 9.125 61.227 25.363 16.242 16.238 25.363 38.266 25.363 61.23 0 22.965-9.1211 44.992-25.363 61.23-16.238 16.238-38.262 25.363-61.227 25.363-22.957-0.03125-44.965-9.1641-61.199-25.395-16.234-16.234-25.367-38.242-25.395-61.199zm94.465 62.977v-7.8711c11.25 0 21.645-6.0039 27.27-15.746 5.625-9.7422 5.625-21.746 0-31.488-5.625-9.7422-16.02-15.742-27.27-15.742h-15.746c-5.625 0-10.82-3-13.633-7.8711s-2.8125-10.875 0-15.746 8.0078-7.8711 13.633-7.8711h15.746c4.1758 0 8.1797 1.6602 11.133 4.6094 2.9531 2.9531 4.6094 6.957 4.6094 11.133 0 4.3477 3.5273 7.875 7.875 7.875 4.3477 0 7.8711-3.5273 7.8711-7.875 0-8.3516-3.3164-16.359-9.2227-22.266-5.9062-5.9023-13.914-9.2227-22.266-9.2227v-7.8711c0-4.3477-3.5234-7.8711-7.8711-7.8711s-7.875 3.5234-7.875 7.8711v7.8711c-11.25 0-21.645 6.0039-27.27 15.746-5.625 9.7422-5.625 21.746 0 31.488 5.625 9.7422 16.02 15.742 27.27 15.742h15.746c5.625 0 10.82 3.0039 13.633 7.875 2.8125 4.8711 2.8125 10.871 0 15.742-2.8125 4.8711-8.0078 7.8711-13.633 7.8711h-15.746c-4.1758 0-8.1797-1.6562-11.133-4.6094-2.9492-2.9531-4.6094-6.957-4.6094-11.133 0-4.3477-3.5234-7.8711-7.8711-7.8711-4.3477 0-7.875 3.5234-7.875 7.8711 0 8.3516 3.3203 16.359 9.2227 22.266 5.9062 5.9023 13.914 9.2227 22.266 9.2227v7.8711c0 4.3477 3.5273 7.8711 7.875 7.8711s7.8711-3.5234 7.8711-7.8711zm195.73 213.03c-1.7148-1.2148-3.8438-1.6953-5.9102-1.3359-2.0703 0.35938-3.9102 1.5352-5.1133 3.2578l-27.062 38.605-23.82-36.984c-2.3594-3.6523-7.2344-4.6992-10.887-2.3359-3.6523 2.3594-4.6992 7.2344-2.3398 10.887l22.375 34.652h-17.02c-4.3477 0-7.875 3.5234-7.875 7.8711 0 4.3477 3.5273 7.8711 7.875 7.8711h23.613v15.742l-23.613 0.003906c-4.3477 0-7.875 3.5234-7.875 7.8711 0 4.3477 3.5273 7.8711 7.875 7.8711h23.613v23.617c0 4.3477 3.5273 7.8711 7.875 7.8711s7.8711-3.5234 7.8711-7.8711v-23.617h23.617c4.3477 0 7.8711-3.5234 7.8711-7.8711 0-4.3477-3.5234-7.8711-7.8711-7.8711h-23.617v-15.746h23.617c4.3477 0 7.8711-3.5234 7.8711-7.8711 0-4.3477-3.5234-7.8711-7.8711-7.8711h-16.359l25.082-35.77h-0.003907c1.2031-1.7109 1.6758-3.8281 1.3164-5.8867-0.35938-2.0586-1.5234-3.8906-3.2344-5.0898zm-197.38 16.359c4.6055 1.8633 8.2852 5.4727 10.23 10.043 1.8086 3.957 6.4844 5.6992 10.441 3.8906 3.9531-1.8086 5.6953-6.4805 3.8867-10.438-3.7734-8.6133-10.914-15.301-19.758-18.5-6.3789-1.8594-13.164-1.8086-19.516 0.15234-6.3477 1.957-11.984 5.7383-16.207 10.867-6.2031 10.484-6.9727 23.316-2.0625 34.465 0.80469 3.2578 1.5742 6.7227 2.332 10.328h-14.93c-4.3477 0-7.8711 3.5234-7.8711 7.8711 0 4.3477 3.5234 7.875 7.8711 7.875h16.941c0.14453 3.2461 0.10156 6.5-0.125 9.7422-0.83984 10.938-3.6211 21.641-8.2188 31.602-1.1445 2.4375-0.95703 5.2969 0.49219 7.5664 1.4492 2.2734 3.9609 3.6484 6.6562 3.6406h47.23c4.3477 0 7.875-3.5234 7.875-7.8711s-3.5273-7.8711-7.875-7.8711h-35.691c2.8164-8.3672 4.5742-17.051 5.2266-25.852 0.24609-3.6211 0.29297-7.2539 0.14453-10.879h14.578c4.3477 0 7.8711-3.5273 7.8711-7.875 0-4.3477-3.5234-7.8711-7.8711-7.8711h-16.312c-0.92969-5.1172-2.0156-9.8867-3.0547-14.168-2.7852-11.258-3.9688-16.863-0.70703-21.129 2.2344-2.5703 5.1484-4.4531 8.4062-5.4414 3.2578-0.99219 6.7305-1.043 10.016-0.14844zm-140.04 53.891c-2.0547-0.38672-4.1797 0.0625-5.9062 1.2422-1.7227 1.1836-2.9062 3-3.2891 5.0586-3.6367 19.207-14.738 33.172-26.387 33.172-9.918 0-18.719-9.5547-23.617-23.363h13.18-0.003906c4.3477 0 7.875-3.5273 7.875-7.875s-3.5273-7.8711-7.875-7.8711h-16.703c-0.64062-5.2266-0.64062-10.516 0-15.742h16.723c4.3477 0 7.8711-3.5273 7.8711-7.875s-3.5234-7.8711-7.8711-7.8711h-13.336c4.8477-14.074 13.68-23.867 23.758-23.867 8.2969 0 16.453 6.9258 21.805 18.562 0.83203 1.957 2.4219 3.4922 4.4062 4.2578 1.9844 0.76562 4.1953 0.69531 6.125-0.19531 1.9336-0.88672 3.4219-2.5234 4.1328-4.5273 0.70703-2.0039 0.57422-4.2109-0.36719-6.1172-2.7031-7.6094-7.5508-14.277-13.953-19.199-6.4062-4.918-14.098-7.8789-22.148-8.5273-18.594 0-34.039 16.215-40.32 39.613h-17.32c-4.3477 0-7.8711 3.5234-7.8711 7.8711s3.5234 7.875 7.8711 7.875h14.785c-0.20312 2.5352-0.51953 5.0078-0.51953 7.6211 0 2.6133 0.31641 5.4336 0.55078 8.125l-14.832-0.003907c-4.3477 0-7.8711 3.5234-7.8711 7.8711s3.5234 7.875 7.8711 7.875h17.445c6.3594 23.125 21.742 39.105 40.211 39.105 19.836 0 36.652-18.5 41.879-46.02 0.38672-2.0547-0.0625-4.1797-1.2422-5.9023-1.1836-1.7266-3-2.9102-5.0547-3.293z"/>
 </g>
</svg>