<?xml version="1.0" encoding="UTF-8"?>
<!-- The Best Svg Icon site in the world: iconSvg.co, Visit us! https://iconsvg.co -->
<svg width="800px" height="800px" version="1.1" viewBox="144 144 512 512" xmlns="http://www.w3.org/2000/svg">
 <defs>
  <clipPath id="a">
   <path d="m148.09 148.09h503.81v503.81h-503.81z"/>
  </clipPath>
 </defs>
 <g clip-path="url(#a)">
  <path d="m599.42 148.09h-52.48v20.992h52.48c8.3516 0 16.363 3.3164 22.266 9.2227 5.9062 5.9062 9.2227 13.914 9.2227 22.266v388.35h-31.488c-5.7969 0-10.496 4.6992-10.496 10.496v31.488h-62.977v-20.992h31.488v-20.992h-314.88v20.992h31.488v20.992h-62.977v-31.488c0-2.7812-1.1055-5.4531-3.0742-7.4219s-4.6367-3.0742-7.4219-3.0742h-31.488v-388.35c0-8.3516 3.3164-16.359 9.2227-22.266s13.914-9.2227 22.266-9.2227h52.48v-20.992h-52.48c-13.914 0.015625-27.254 5.5508-37.09 15.391-9.8398 9.8359-15.375 23.176-15.391 37.09v398.85c0 2.7852 1.1055 5.4531 3.0742 7.4219s4.6367 3.0742 7.4219 3.0742h31.488v31.488c0 2.7852 1.1055 5.4531 3.0742 7.4219s4.6367 3.0742 7.4219 3.0742h83.969c2.7812 0 5.4531-1.1055 7.4219-3.0742s3.0742-4.6367 3.0742-7.4219v-31.488h209.92v31.488c0 2.7852 1.1094 5.4531 3.0742 7.4219 1.9688 1.9688 4.6406 3.0742 7.4219 3.0742h83.969c2.7852 0 5.4531-1.1055 7.4219-3.0742s3.0742-4.6367 3.0742-7.4219v-31.488h31.488c2.7852 0 5.4531-1.1055 7.4219-3.0742s3.0742-4.6367 3.0742-7.4219v-398.85c-0.015625-13.914-5.5508-27.254-15.387-37.09-9.8398-9.8398-23.18-15.375-37.094-15.391z"/>
 </g>
 <path d="m567.93 536.45h-62.977v20.992h62.977c8.3516 0 16.363-3.3164 22.266-9.2227 5.9062-5.9023 9.2227-13.914 9.2227-22.266v-293.89c0-8.3516-3.3164-16.359-9.2227-22.266-5.9023-5.9062-13.914-9.2227-22.266-9.2227h-10.496v20.992h10.496c2.7852 0 5.4531 1.1055 7.4219 3.0742s3.0742 4.6367 3.0742 7.4219v293.89c0 2.7852-1.1055 5.457-3.0742 7.4219-1.9688 1.9688-4.6367 3.0742-7.4219 3.0742z"/>
 <path d="m232.06 221.57h10.496v-20.992h-10.496c-8.3516 0-16.359 3.3164-22.266 9.2227s-9.2227 13.914-9.2227 22.266v293.89c0 8.3516 3.3164 16.363 9.2227 22.266 5.9062 5.9062 13.914 9.2227 22.266 9.2227h62.977v-20.992h-62.977c-5.7969 0-10.496-4.6992-10.496-10.496v-293.89c0-5.7969 4.6992-10.496 10.496-10.496z"/>
 <path d="m389.5 285.08c-47.359 3.6523-89.41 31.672-111.02 73.973-21.605 42.301-19.66 92.793 5.1367 133.3s68.879 65.215 116.38 65.215c47.496 0 91.578-24.703 116.38-65.215 24.801-40.512 26.742-91.004 5.1367-133.3-21.609-42.301-63.66-70.32-111.02-73.973v-53.016h73.473l-0.003906-20.992h-73.469v-10.496c0-5.7969 4.6992-10.496 10.496-10.496h83.969-0.003907c2.7852 0 5.457 1.1055 7.4219 3.0742 1.9688 1.9688 3.0742 4.6367 3.0742 7.4219v52.48h-83.965v20.992h94.465-0.003906c2.7852 0 5.457-1.1055 7.4219-3.0742 1.9688-1.9688 3.0742-4.6406 3.0742-7.4219v-62.977c0-8.3516-3.3164-16.359-9.2227-22.266-5.9023-5.9062-13.914-9.2227-22.266-9.2227h-83.965c-7.7734 0.027343-15.254 2.9453-20.992 8.1875-5.7383-5.2422-13.223-8.1602-20.992-8.1875h-83.969c-8.3516 0-16.359 3.3164-22.266 9.2227s-9.2227 13.914-9.2227 22.266v62.977c0 2.7812 1.1055 5.4531 3.0742 7.4219s4.6367 3.0742 7.4219 3.0742h94.465v-20.992h-83.969v-52.48c0-5.7969 4.6992-10.496 10.496-10.496h83.969c2.7812 0 5.4531 1.1055 7.4219 3.0742s3.0742 4.6367 3.0742 7.4219v10.496h-73.473v20.992h73.473zm125.95 135.91c0 30.621-12.164 59.984-33.816 81.637-21.652 21.652-51.016 33.816-81.637 33.816s-59.988-12.164-81.641-33.816-33.816-51.016-33.816-81.637c0-30.621 12.164-59.988 33.816-81.641 21.652-21.652 51.02-33.816 81.641-33.816 30.609 0.035156 59.953 12.211 81.598 33.855 21.645 21.645 33.82 50.988 33.855 81.602z"/>
 <path d="m389.5 347.52v20.992h-10.496c-5.5703 0-10.91 2.2109-14.844 6.1484-3.9375 3.9336-6.1484 9.2734-6.1484 14.844v20.992c0 5.5664 2.2109 10.906 6.1484 14.844 3.9336 3.9336 9.2734 6.1484 14.844 6.1484h41.984v20.992h-41.984v-10.496h-20.992v10.496c0 5.5664 2.2109 10.906 6.1484 14.844 3.9336 3.9336 9.2734 6.1484 14.844 6.1484h10.496v20.992h20.992v-20.992h10.496c5.5664 0 10.906-2.2148 14.844-6.1484 3.9336-3.9375 6.1484-9.2773 6.1484-14.844v-20.992c0-5.5703-2.2148-10.91-6.1484-14.844-3.9375-3.9375-9.2773-6.1484-14.844-6.1484h-41.984v-20.992h41.984v10.496h20.992v-10.496c0-5.5703-2.2148-10.91-6.1484-14.844-3.9375-3.9375-9.2773-6.1484-14.844-6.1484h-10.496v-20.992z"/>
 <path d="m305.54 410.5h20.992v20.992h-20.992z"/>
 <path d="m473.47 410.5h20.992v20.992h-20.992z"/>
</svg>