<?xml version="1.0" encoding="UTF-8"?>
<!-- The Best Svg Icon site in the world: iconSvg.co, Visit us! https://iconsvg.co -->
<svg fill="#000000" width="800px" height="800px" version="1.1" viewBox="144 144 512 512" xmlns="http://www.w3.org/2000/svg">
 <g>
  <path d="m482.75 337.18c-8.8828 0.058594-17.332 3.8477-23.281 10.441-5.9492 6.5938-8.8516 15.387-8 24.227 0.85156 8.8398 5.3828 16.914 12.484 22.25h37.59c8.0547-6.8867 12.637-15.477 12.637-25.367-0.003906-8.3438-3.3125-16.348-9.2031-22.262-5.8906-5.9102-13.883-9.25-22.227-9.2891z"/>
  <path d="m531.86 603.94v-51.039c-8.0586-1.3125-15.543-4.9805-21.516-10.551l-3.6406-3.3359c-13.578 2-27.402 1.5859-40.836-1.2266l-5.0195 4.8633h0.003906c-7.3672 7.0078-17.156 10.898-27.324 10.855h-1.1055c-0.058594 0-0.125-0.085937-0.18359-0.089844-10.566-0.29687-20.59-4.7578-27.883-12.414-11.262-11.871-12.727-29.746-3.9961-43.789-9.7578-13.469-15.047-29.656-15.117-46.289v-3.8711c0-0.12109 0.042969-0.24609 0.050781-0.36719 0.61328-8.1133 2.5859-16.062 5.832-23.52-1.9297 0.34375-3.8867 0.51563-5.8477 0.51953-8.8789 0.007812-17.398-3.5156-23.676-9.7891-6.2812-6.2773-9.8086-14.793-9.8086-23.672 0.003907-8.875 3.5312-17.391 9.8125-23.664 2.3086-2.3047 6.0469-2.3047 8.3516 0 2.3047 2.3047 2.3047 6.043 0 8.3477-5.418 5.4844-7.5156 13.438-5.5039 20.879s7.8242 13.258 15.27 15.266c7.4414 2.0117 15.391-0.085937 20.875-5.5039 0.070312-0.070313 0.15234-0.11719 0.22266-0.17969 10.035-13.914 23.438-25.051 38.957-32.363-0.15625-1.4883-0.23438-2.9844-0.23438-4.4844 0.011719-14.105 6.9023-27.324 18.457-35.414 11.559-8.0898 26.336-10.039 39.594-5.2227 13.262 4.8203 23.34 15.797 27.012 29.418 2.5156-1.0039 5.2852-1.9102 7.2539-2.707v-86.23c0-7.9883-6.7109-14-14.699-14l-288.46 0.003907c-12.234 0-23.535-5.3438-30.422-13.234v346.49c-0.058594 8.125 3.1172 15.941 8.8281 21.723 5.707 5.7812 13.484 9.0547 21.609 9.0977h288.44c3.8672 0 7.5781-1.5195 10.328-4.2344 2.75-2.7188 4.3242-6.4062 4.375-10.273z"/>
  <path d="m228.7 242.56h268.71v-46.5c-0.019531-3.8516-1.5625-7.5391-4.2891-10.258-2.7305-2.7188-6.4219-4.2461-10.273-4.25h-254.15c-16.699 0-30.805 14.109-30.805 30.504h-0.003906c-0.023437 8.1484 3.2266 15.969 9.0156 21.703 5.793 5.7344 13.645 8.9023 21.793 8.8008z"/>
  <path d="m531.69 430c-0.96484 0-1.8398 0.58203-2.2109 1.4766-0.36719 0.89453-0.16406 1.9219 0.51953 2.6055 0.6875 0.6875 1.7148 0.89062 2.6094 0.51953 0.89453-0.37109 1.4766-1.2422 1.4766-2.2109-0.003906-1.3203-1.0742-2.3906-2.3945-2.3906z"/>
  <path d="m577.01 423.29c-0.44922-0.44531-0.82422-0.96484-1.1055-1.5312-5.6836-11.137-13.812-20.844-23.781-28.391-0.19531-0.15234-0.37891-0.32031-0.55469-0.49219-1.3281-1.3242-2.0547-3.1367-2.0078-5.0117 0-0.21484 0.011719-0.43359 0.035156-0.64844l1.3828-12.738c0.38672-3.4805 1.1367-9.9062 1.1758-12.859h-0.03125c-2.9961 0-10.129 1.3359-26.176 7.9648-0.1875 8.8867-3.0391 16.637-8.1367 24.508h5.3047c3.2617 0 5.9023 2.6445 5.9023 5.9062 0 3.2578-2.6406 5.9023-5.9023 5.9023h-80.746c-3.2578 0-5.9023-2.6445-5.9023-5.9023 0-3.2617 2.6445-5.9062 5.9023-5.9062h5.207c-1.9727-2.875-3.6289-5.9531-4.9453-9.1797-14.801 7.5508-27.168 18.57-35.223 31.848l-3.7617 7.2148c-3.418 7.3555-5.6445 15.211-6.6016 23.266v3.6797c0 14.945 5.1172 29.438 14.738 41.891 1.7695 2.1094 2.0664 5.0859 0.75 7.5039-0.16797 0.34375-0.36719 0.66797-0.59766 0.97656-7.5156 9.793-7.1016 23.125 0.98438 31.652v-0.003906c5.0625 5.4688 12.137 8.6328 19.586 8.7539h1.0156c7.1211 0.039063 13.984-2.6758 19.152-7.5781l6.875-6.6914c1.3164-1.2891 3.1016-1.9922 4.9453-1.9453 0.45312 0 0.90625 0.054687 1.3516 0.15625 13.551 3.1914 27.602 3.6367 41.328 1.3125 0.33203-0.058594 0.66797-0.085938 1.0078-0.085938 1.832-0.046875 3.6094 0.64844 4.9258 1.9297l5.2148 4.9414c10.453 9.7695 27.207 10.504 38.117 1.6406 4.1523-3.4062 7.0352-8.1094 8.1875-13.355 1.1562-5.2461 0.51172-10.727-1.8281-15.562-0.92188-1.5078-1.168-3.3281-0.68359-5.0273 0.20703-1.0352 0.69141-1.9922 1.3984-2.7734 4.9648-5.4453 9.1055-11.582 12.301-18.219 0.27344-0.59766 0.64453-1.1484 1.1016-1.6211 1.1367-1.293 2.7227-2.1016 4.4375-2.2617l20.367-2.1758v-46.641l-20.363-2.1758v-0.003906c-1.6914-0.15234-3.2539-0.96875-4.3477-2.2656zm-45.32 23.301h-0.003906c-5.7422 0-10.922-3.457-13.117-8.7656-2.1992-5.3047-0.98437-11.414 3.0781-15.473 4.0586-4.0625 10.168-5.2773 15.473-3.0781 5.3086 2.1953 8.7695 7.375 8.7695 13.117-0.011719 7.8398-6.3633 14.191-14.203 14.199z"/>
 </g>
</svg>