<?xml version="1.0" encoding="UTF-8"?>
<!-- The Best Svg Icon site in the world: iconSvg.co, Visit us! https://iconsvg.co -->
<svg width="800px" height="800px" version="1.1" viewBox="144 144 512 512" xmlns="http://www.w3.org/2000/svg">
 <defs>
  <clipPath id="a">
   <path d="m195 148.09h410v503.81h-410z"/>
  </clipPath>
 </defs>
 <g clip-path="url(#a)">
  <path d="m573.18 573.18h-15.746c-5.625 0-10.82-3-13.633-7.8711s-2.8125-10.875 0-15.746 8.0078-7.8711 13.633-7.8711h15.746c4.1758 0 8.1797 1.6602 11.133 4.6094 2.9531 2.9531 4.6094 6.957 4.6094 11.133 0 4.3477 3.5273 7.875 7.875 7.875 4.3477 0 7.8711-3.5273 7.8711-7.875 0-8.3516-3.3164-16.359-9.2227-22.266-5.9062-5.9023-13.914-9.2227-22.266-9.2227v-7.8711c0-4.3477-3.5234-7.8711-7.8711-7.8711s-7.875 3.5234-7.875 7.8711v7.8711c-11.25 0-21.645 6.0039-27.27 15.746-5.625 9.7422-5.625 21.746 0 31.488 5.625 9.7422 16.02 15.742 27.27 15.742h15.746c5.625 0 10.82 3.0039 13.633 7.875 2.8125 4.8711 2.8125 10.871 0 15.742-2.8125 4.8711-8.0078 7.8711-13.633 7.8711h-15.746c-4.1758 0-8.1797-1.6562-11.133-4.6094-2.9492-2.9531-4.6094-6.957-4.6094-11.133 0-4.3477-3.5234-7.8711-7.8711-7.8711-4.3477 0-7.875 3.5234-7.875 7.8711 0 8.3516 3.3203 16.359 9.2227 22.266 5.9062 5.9023 13.914 9.2227 22.266 9.2227v7.8711c0 4.3477 3.5273 7.8711 7.875 7.8711s7.8711-3.5234 7.8711-7.8711v-7.8711c11.25 0 21.645-6.0039 27.27-15.746 5.625-9.7422 5.625-21.746 0-31.488-5.625-9.7422-16.02-15.742-27.27-15.742zm-165.31-259.78v-7.8711c11.25 0 21.645-6.0039 27.27-15.746 5.625-9.7422 5.625-21.746 0-31.488-5.625-9.7422-16.02-15.742-27.27-15.742h-15.746c-5.625 0-10.82-3-13.633-7.8711s-2.8125-10.875 0-15.746 8.0078-7.8711 13.633-7.8711h15.746c4.1758 0 8.1797 1.6602 11.133 4.6094 2.9531 2.9531 4.6094 6.957 4.6094 11.133 0 4.3477 3.5273 7.875 7.875 7.875 4.3477 0 7.8711-3.5273 7.8711-7.875 0-8.3516-3.3164-16.359-9.2227-22.266-5.9062-5.9023-13.914-9.2227-22.266-9.2227v-7.8711c0-4.3477-3.5234-7.8711-7.8711-7.8711s-7.875 3.5234-7.875 7.8711v7.8711c-11.25 0-21.645 6.0039-27.27 15.746-5.625 9.7422-5.625 21.746 0 31.488 5.625 9.7422 16.02 15.742 27.27 15.742h15.746c5.625 0 10.82 3.0039 13.633 7.875 2.8125 4.8711 2.8125 10.871 0 15.742-2.8125 4.8711-8.0078 7.8711-13.633 7.8711h-15.746c-4.1758 0-8.1797-1.6562-11.133-4.6094-2.9492-2.9531-4.6094-6.957-4.6094-11.133 0-4.3477-3.5234-7.8711-7.8711-7.8711-4.3477 0-7.875 3.5234-7.875 7.8711 0 8.3516 3.3203 16.359 9.2227 22.266 5.9062 5.9023 13.914 9.2227 22.266 9.2227v7.8711c0 4.3477 3.5273 7.8711 7.875 7.8711s7.8711-3.5234 7.8711-7.8711zm-178.76 178.74c1.4766 1.4805 3.4805 2.3125 5.5742 2.3125 2.0898 0 4.0938-0.83203 5.5703-2.3125l22.246-22.246c2.9844-3.0898 2.9414-8-0.09375-11.035-3.0352-3.0352-7.9453-3.0781-11.035-0.097657l-8.8164 8.8164v-43.973c0-6.2617 2.4883-12.27 6.918-16.699 4.4258-4.4258 10.434-6.9141 16.699-6.9141h125.95v67.59l-8.8359-8.8359c-3.0859-2.9805-7.9961-2.9375-11.035 0.097656-3.0352 3.0352-3.0781 7.9453-0.09375 11.035l22.246 22.246c1.4766 1.4805 3.4805 2.3125 5.5742 2.3125 2.0898 0 4.0938-0.83203 5.5703-2.3125l22.246-22.246c2.9844-3.0898 2.9414-8-0.09375-11.035-3.0352-3.0352-7.9453-3.0781-11.035-0.097656l-8.832 8.832v-67.586h125.95c6.2656-0.011719 12.281 2.4727 16.719 6.9062 4.4336 4.4297 6.9258 10.441 6.9258 16.707v43.973l-8.832-8.832c-3.0859-2.9805-7.9961-2.9375-11.035 0.097656-3.0352 3.0352-3.0781 7.9453-0.09375 11.035l22.246 22.246c1.4766 1.4805 3.4805 2.3125 5.5742 2.3125 2.0898 0 4.0938-0.83203 5.5703-2.3125l22.246-22.246c2.9844-3.0898 2.9414-8-0.09375-11.035-3.0352-3.0352-7.9453-3.0781-11.035-0.097656l-8.8008 8.832v-43.973c0-10.438-4.1484-20.449-11.527-27.832-7.3828-7.3789-17.395-11.527-27.832-11.527h-125.95v-31.883c35.52-2.7383 67.055-23.754 83.262-55.477 16.207-31.727 14.746-69.598-3.8516-99.98-18.598-30.383-51.66-48.91-87.281-48.91-35.625 0-68.688 18.527-87.285 48.91-18.598 30.383-20.055 68.254-3.8516 99.98 16.207 31.723 47.746 52.738 83.262 55.477v31.883h-125.95 0.003906c-10.441 0-20.453 4.1484-27.832 11.527-7.3828 7.3828-11.531 17.395-11.531 27.832v43.973l-8.832-8.832c-3.0859-2.9805-7.9961-2.9375-11.035 0.097656-3.0352 3.0352-3.0781 7.9453-0.09375 11.035zm84.293-241.72c0-22.965 9.125-44.992 25.363-61.23s38.262-25.363 61.23-25.363c22.965 0 44.988 9.125 61.227 25.363 16.242 16.238 25.363 38.266 25.363 61.23 0 22.965-9.1211 44.992-25.363 61.23-16.238 16.238-38.262 25.363-61.227 25.363-22.961-0.027344-44.969-9.1562-61.203-25.391-16.234-16.234-25.367-38.246-25.391-61.203zm-86.594 291.27h15.746c4.1758 0 8.1797 1.6602 11.133 4.6094 2.9531 2.9531 4.6094 6.957 4.6094 11.133 0 4.3477 3.5273 7.875 7.875 7.875 4.3477 0 7.8711-3.5273 7.8711-7.875 0-8.3516-3.3164-16.359-9.2227-22.266-5.9062-5.9023-13.914-9.2227-22.266-9.2227v-7.8711c0-4.3477-3.5234-7.8711-7.8711-7.8711s-7.875 3.5234-7.875 7.8711v7.8711c-11.25 0-21.645 6.0039-27.27 15.746-5.625 9.7422-5.625 21.746 0 31.488 5.625 9.7422 16.02 15.742 27.27 15.742h15.746c5.625 0 10.82 3.0039 13.633 7.875 2.8125 4.8711 2.8125 10.871 0 15.742-2.8125 4.8711-8.0078 7.8711-13.633 7.8711h-15.746c-4.1758 0-8.1797-1.6562-11.133-4.6094-2.9492-2.9531-4.6094-6.957-4.6094-11.133 0-4.3477-3.5234-7.8711-7.8711-7.8711-4.3477 0-7.875 3.5234-7.875 7.8711 0 8.3516 3.3203 16.359 9.2227 22.266 5.9062 5.9023 13.914 9.2227 22.266 9.2227v7.8711c0 4.3477 3.5273 7.8711 7.875 7.8711s7.8711-3.5234 7.8711-7.8711v-7.8711c11.25 0 21.645-6.0039 27.27-15.746 5.625-9.7422 5.625-21.746 0-31.488-5.625-9.7422-16.02-15.742-27.27-15.742h-15.746c-5.625 0-10.82-3-13.633-7.8711s-2.8125-10.875 0-15.746 8.0078-7.8711 13.633-7.8711zm165.31 0h15.746c4.1758 0 8.1797 1.6602 11.133 4.6094 2.9531 2.9531 4.6094 6.957 4.6094 11.133 0 4.3477 3.5273 7.875 7.875 7.875 4.3477 0 7.8711-3.5273 7.8711-7.875 0-8.3516-3.3164-16.359-9.2227-22.266-5.9062-5.9023-13.914-9.2227-22.266-9.2227v-7.8711c0-4.3477-3.5234-7.8711-7.8711-7.8711s-7.875 3.5234-7.875 7.8711v7.8711c-11.25 0-21.645 6.0039-27.27 15.746-5.625 9.7422-5.625 21.746 0 31.488 5.625 9.7422 16.02 15.742 27.27 15.742h15.746c5.625 0 10.82 3.0039 13.633 7.875 2.8125 4.8711 2.8125 10.871 0 15.742-2.8125 4.8711-8.0078 7.8711-13.633 7.8711h-15.746c-4.1758 0-8.1797-1.6562-11.133-4.6094-2.9492-2.9531-4.6094-6.957-4.6094-11.133 0-4.3477-3.5234-7.8711-7.8711-7.8711-4.3477 0-7.875 3.5234-7.875 7.8711 0 8.3516 3.3203 16.359 9.2227 22.266 5.9062 5.9023 13.914 9.2227 22.266 9.2227v7.8711c0 4.3477 3.5273 7.8711 7.875 7.8711s7.8711-3.5234 7.8711-7.8711v-7.8711c11.25 0 21.645-6.0039 27.27-15.746 5.625-9.7422 5.625-21.746 0-31.488-5.625-9.7422-16.02-15.742-27.27-15.742h-15.746c-5.625 0-10.82-3-13.633-7.8711s-2.8125-10.875 0-15.746 8.0078-7.8711 13.633-7.8711z"/>
 </g>
</svg>