<?xml version="1.0" encoding="UTF-8"?>
<!-- The Best Svg Icon site in the world: iconSvg.co, Visit us! https://iconsvg.co -->
<svg fill="#000000" width="800px" height="800px" version="1.1" viewBox="144 144 512 512" xmlns="http://www.w3.org/2000/svg">
 <g>
  <path d="m241.75 204.88c-0.10547-0.14453-0.42188-0.375-0.94141-0.69922-0.51953-0.32031-1.1836-0.67188-1.9883-1.0469-0.80859-0.375-1.7031-0.73438-2.6875-1.0742-0.98438-0.33984-1.9805-0.58203-2.9844-0.72656v7.3125l1.7227 0.42969c1.8281 0.5 3.4766 1.0469 4.9453 1.6406s2.7148 1.3281 3.7383 2.207c1.0234 0.87891 1.8125 1.9453 2.3672 3.1992 0.55469 1.2539 0.83594 2.7617 0.83594 4.5156 0 2.043-0.35938 3.7812-1.0781 5.2148s-1.6758 2.6094-2.875 3.5234c-1.2031 0.91406-2.582 1.6055-4.1406 2.0703-1.5586 0.46484-3.1992 0.73438-4.9219 0.80859v6.2383h-3.7109v-6.293c-2.4766-0.21484-4.9219-0.71875-7.3398-1.5039-2.418-0.78906-4.5977-1.8281-6.5352-3.1211l3.8711-7.6875c0.14453 0.17969 0.52734 0.47656 1.1562 0.88672 0.625 0.41406 1.4258 0.84375 2.3906 1.2891 0.96875 0.44922 2.0625 0.87891 3.2812 1.2891 1.2188 0.41406 2.4727 0.70703 3.7656 0.88672v-7.1523l-2.582-0.75391c-1.7578-0.53906-3.2812-1.1211-4.5703-1.7461-1.2891-0.625-2.3594-1.3516-3.1992-2.1758-0.84375-0.82422-1.4688-1.7734-1.8828-2.8516-0.41406-1.0742-0.61719-2.3281-0.61719-3.7656 0-1.8633 0.32422-3.5234 0.96875-4.9727 0.64453-1.4531 1.5117-2.6953 2.6094-3.7383 1.0938-1.0391 2.3828-1.8555 3.8711-2.4453 1.4883-0.59375 3.0898-0.97656 4.8125-1.1562v-5.4336h3.7109v5.4336c2.3281 0.21484 4.5156 0.73438 6.5586 1.5586 2.043 0.82422 3.8164 1.6641 5.3242 2.5273zm-14.898-0.48438c0 0.89453 0.3125 1.6055 0.94141 2.125s1.5703 0.97656 2.8242 1.3711v-6.6133c-2.5078 0.21094-3.7656 1.2539-3.7656 3.1172zm10.434 17.098c0-0.93359-0.375-1.6562-1.1289-2.1758s-1.7578-0.99609-3.0117-1.4258v6.4531c2.7617-0.10938 4.1406-1.0586 4.1406-2.8516z"/>
  <path d="m385.24 628.06h-98.398c-3.8047 0-6.8867-3.082-6.8867-6.8867v-27.895l-111.68-103.59c-1.4062-1.3047-2.2031-3.1328-2.2031-5.0508v-163.45c0-17.535 14.266-31.801 31.801-31.801 17.535 0 31.801 14.266 31.801 31.801v95.66c10.559-5.6523 23.793-4.4883 33.23 3.4102l126.66 101.72c1.6289 1.3086 2.5742 3.2812 2.5742 5.3711v93.832c-0.003906 3.8008-3.0859 6.8828-6.8906 6.8828zm-91.512-13.777h84.625v-83.641l-124.14-99.695c-0.042969-0.035157-0.082032-0.066407-0.125-0.10156-5.8359-4.9141-14.391-5.0195-20.348-0.25391-1.7109 1.3672-3.1016 3.0508-4.1094 4.9336-0.13281 1.2891-0.62109 2.4766-1.3672 3.4531-0.30859 1.1641-0.49219 2.3672-0.53125 3.5977-0.15625 4.6875 1.7344 9.1914 5.1914 12.359l65.688 60.211c2.8047 2.5703 2.9922 6.9258 0.42188 9.7344-2.5703 2.8047-6.9297 2.9922-9.7305 0.42188l-65.688-60.215c-6.4258-5.8906-9.9414-14.266-9.6484-22.977 0.10938-3.3242 0.77344-6.5586 1.9258-9.5977v-111.33c0-9.9375-8.0859-18.023-18.023-18.023s-18.023 8.0859-18.023 18.023v160.45l111.68 103.59c1.4062 1.3047 2.2031 3.1328 2.2031 5.0508z"/>
  <path d="m341.81 597.16h-54.973c-3.8047 0-6.8867-3.082-6.8867-6.8867 0-3.8047 3.082-6.8867 6.8867-6.8867h54.973c3.8047 0 6.8867 3.082 6.8867 6.8867 0.003907 3.8008-3.082 6.8867-6.8867 6.8867z"/>
  <path d="m513.16 628.06h-98.402c-3.8047 0-6.8867-3.082-6.8867-6.8867v-93.832c0-2.0898 0.94922-4.0625 2.5742-5.3711l126.66-101.72c9.4336-7.8984 22.668-9.0625 33.23-3.4102v-95.66c0-17.535 14.266-31.801 31.801-31.801 17.535 0 31.801 14.266 31.801 31.801v163.45c0 1.918-0.80078 3.7461-2.2031 5.0508l-111.68 103.6-0.007813 27.895c0 3.8047-3.082 6.8867-6.8867 6.8867zm-91.512-13.777h84.625v-24.012c0-1.918 0.80078-3.7461 2.2031-5.0508l111.68-103.59v-160.44c0-9.9375-8.0859-18.023-18.023-18.023s-18.023 8.0859-18.023 18.023v111.33c1.1523 3.0352 1.8164 6.2734 1.9258 9.5938 0.29297 8.7109-3.2227 17.09-9.6484 22.98l-65.691 60.211c-2.8008 2.5703-7.1602 2.3828-9.7305-0.42578-2.5703-2.8047-2.3828-7.1602 0.42578-9.7305l65.688-60.211c3.457-3.168 5.3477-7.6758 5.1914-12.359-0.042969-1.2266-0.22266-2.4336-0.53125-3.5977-0.74609-0.98047-1.2344-2.1602-1.3672-3.4531-1.0117-1.8828-2.3984-3.5664-4.1133-4.9336-5.957-4.7617-14.512-4.6562-20.348 0.25781-0.039062 0.035157-0.082031 0.066407-0.125 0.10156l-124.14 99.691z"/>
  <path d="m513.16 597.16h-54.973c-3.8047 0-6.8867-3.082-6.8867-6.8867 0-3.8047 3.082-6.8867 6.8867-6.8867h54.973c3.8047 0 6.8867 3.082 6.8867 6.8867 0 3.8008-3.082 6.8867-6.8867 6.8867z"/>
  <path d="m231.46 254.59c-22.789 0-41.328-18.539-41.328-41.328 0-22.789 18.539-41.328 41.328-41.328 22.789 0 41.328 18.539 41.328 41.328 0 22.789-18.543 41.328-41.328 41.328zm0-68.879c-15.191 0-27.551 12.359-27.551 27.551 0 15.191 12.359 27.551 27.551 27.551 15.191 0 27.551-12.359 27.551-27.551 0-15.191-12.359-27.551-27.551-27.551z"/>
  <path d="m518.54 350.64c-0.10547-0.14453-0.42188-0.375-0.94141-0.69922-0.51953-0.32422-1.1836-0.67187-1.9883-1.0469-0.80469-0.375-1.7031-0.73438-2.6875-1.0781-0.98438-0.33984-1.9805-0.58203-2.9844-0.72656v7.3125l1.7227 0.42969c1.8281 0.50391 3.4766 1.0469 4.9453 1.6406 1.4688 0.58984 2.7188 1.3281 3.7383 2.2031 1.0234 0.87891 1.8125 1.9453 2.3672 3.1992 0.55469 1.2539 0.83203 2.7617 0.83203 4.5156 0 2.043-0.35937 3.7812-1.0742 5.2148-0.71875 1.4336-1.6758 2.6094-2.8789 3.5234-1.2031 0.91406-2.582 1.6055-4.1406 2.0703-1.5586 0.46484-3.1992 0.73438-4.9219 0.80469v6.2383h-3.7109v-6.2891c-2.4727-0.21484-4.9219-0.71484-7.3398-1.5039-2.418-0.78906-4.5977-1.8281-6.5312-3.1172l3.8711-7.6875c0.14453 0.17969 0.53125 0.47656 1.1562 0.88672 0.625 0.41406 1.4258 0.84375 2.3945 1.2891 0.96875 0.44922 2.0625 0.87891 3.2812 1.2891 1.2188 0.41406 2.4766 0.70703 3.7656 0.88672v-7.1523l-2.582-0.75391c-1.7578-0.53906-3.2812-1.1211-4.5703-1.7461-1.2891-0.62891-2.3594-1.3516-3.1992-2.1758s-1.4688-1.7734-1.8828-2.8516c-0.41406-1.0742-0.61719-2.332-0.61719-3.7656 0-1.8633 0.32422-3.5234 0.96875-4.9766 0.64453-1.4531 1.5156-2.6953 2.6094-3.7383 1.0938-1.0391 2.3828-1.8555 3.8711-2.4453 1.4883-0.58984 3.0898-0.97656 4.8125-1.1562v-5.4336h3.7109v5.4336c2.3281 0.21484 4.5156 0.73438 6.5586 1.5586 2.043 0.82422 3.8164 1.668 5.3242 2.5273zm-14.895-0.48047c0 0.89453 0.3125 1.6055 0.94141 2.125 0.625 0.51953 1.5664 0.97656 2.8242 1.3711v-6.6133c-2.5117 0.21094-3.7656 1.25-3.7656 3.1172zm10.434 17.098c0-0.93359-0.375-1.6562-1.1289-2.1797-0.75391-0.51953-1.7578-0.99609-3.0117-1.4258v6.4531c2.7578-0.10547 4.1406-1.0547 4.1406-2.8477z"/>
  <path d="m508.24 400.36c-22.789 0-41.328-18.539-41.328-41.328 0-22.789 18.539-41.328 41.328-41.328 22.789 0 41.328 18.539 41.328 41.328 0 22.789-18.539 41.328-41.328 41.328zm0-68.883c-15.191 0-27.551 12.359-27.551 27.551s12.359 27.551 27.551 27.551c15.191 0 27.551-12.359 27.551-27.551 0-15.188-12.359-27.551-27.551-27.551z"/>
  <path d="m459.82 314.16c-17.008 0-34.004-7.2109-46.012-21.223-10.211-12.25-15.07-27.766-13.742-43.758 1.332-16.086 8.7617-30.523 20.914-40.648 28.961-23.996 60.863-22.211 86.5-20.781 9.043 0.50391 17.59 0.98047 24.57 0.17578 3.1445-0.36719 6.1172 1.4531 7.2344 4.4062 1.1172 2.9531 0.082031 6.2852-2.5117 8.0898-9.0195 6.2734-11.266 21.992-13.641 38.633-3.0547 21.383-6.5117 45.617-25.02 61.016-11.059 9.4648-24.68 14.09-38.293 14.09zm27.594-113.37c-19.129 0-39.184 3.0547-57.629 18.332-9.2812 7.7344-14.965 18.816-15.988 31.191-1.0234 12.367 2.7148 24.344 10.535 33.727 16.625 19.398 45.75 21.91 64.859 5.5312 0.027344-0.023437 0.054688-0.046875 0.082031-0.070313 14.457-12.008 17.391-32.543 20.227-52.402 1.8398-12.883 3.6094-25.301 8.5234-35.062-3.6641-0.11328-7.4414-0.32422-11.305-0.54297-6.2578-0.34375-12.727-0.70312-19.305-0.70312z"/>
  <path d="m403.58 420.04c-3.1992 0-6.0664-2.2383-6.7383-5.4961-8.8398-42.797 1.1641-88.727 28.926-132.82 20.785-33.016 43.895-53.207 44.867-54.051 2.875-2.4922 7.2266-2.1797 9.7188 0.69531 2.4883 2.875 2.1797 7.2227-0.69141 9.7148-0.22656 0.19531-22.754 19.93-42.441 51.312-26.039 41.504-35.082 82.672-26.887 122.36 0.76953 3.7266-1.625 7.3711-5.3516 8.1406-0.47266 0.09375-0.94531 0.14062-1.4023 0.14062z"/>
  <path d="m324.84 340.34c-7.3828 0-14.672-1.9766-21.234-5.8398-9.1094-4.9023-16.234-13.426-19.562-23.41-0.011719-0.035156-0.023438-0.070312-0.035157-0.10547-2.2852-7.2344-2.5234-13.199-2.7148-17.988-0.35547-8.875-0.5-12.551-14.766-19.113-2.875-1.3203-4.4766-4.4297-3.8906-7.5391 0.58594-3.1094 3.2188-5.4141 6.375-5.5977 4.5977-0.26172 10.203-1.5938 16.137-3 16.926-4.0156 37.992-9.0117 60.125 3.332 9.9062 5.4023 17.07 14.355 20.117 25.176 3.1172 11.066 1.6016 22.777-4.2734 32.973-5.4844 9.75-14.527 16.758-25.426 19.672-3.582 0.96484-7.2305 1.4414-10.852 1.4414zm-27.711-33.555c2.2148 6.5977 7.1094 12.441 13.098 15.633 0.09375 0.050781 0.18359 0.10156 0.27734 0.15625 6.5977 3.9141 14.277 4.9883 21.637 3.0195 7.2852-1.9492 13.324-6.6289 17.012-13.18 4.0391-7.0156 5.0859-14.957 2.9844-22.426-2.0352-7.2227-6.832-13.207-13.512-16.848-17.512-9.7656-34.93-5.6367-50.293-1.9922-0.21484 0.050781-0.43359 0.10156-0.65234 0.15625 6.1562 6.2422 7.0508 12.922 7.3789 21.141 0.17578 4.3711 0.35547 8.8867 2.0703 14.34z"/>
  <path d="m403.58 420.04c-3.6133 0-6.6484-2.8164-6.8672-6.4766-3.6367-60.715-63.152-100.55-63.754-100.95-3.1758-2.0898-4.0625-6.3594-1.9727-9.5352 2.0859-3.1758 6.3516-4.0664 9.5312-1.9805 2.6875 1.7617 65.891 43.934 69.949 111.64 0.22656 3.7969-2.668 7.0586-6.4648 7.2891-0.14453 0.003906-0.28516 0.007813-0.42188 0.007813z"/>
  <path d="m446.67 270.86c-3.8047 0-6.8867-3.082-6.8867-6.8867v-36.93c0-3.8047 3.082-6.8867 6.8867-6.8867 3.8047 0 6.8867 3.082 6.8867 6.8867v36.93c0.003906 3.8047-3.082 6.8867-6.8867 6.8867z"/>
  <path d="m483.6 258.55h-24.621c-3.8047 0-6.8867-3.082-6.8867-6.8867 0-3.8047 3.082-6.8867 6.8867-6.8867h24.621c3.8047 0 6.8867 3.082 6.8867 6.8867 0.003906 3.8008-3.082 6.8867-6.8867 6.8867z"/>
  <path d="m449.2 449.56h-98.402c-11.938 0-21.648-9.7109-21.648-21.648s9.7109-21.648 21.648-21.648h98.398c11.938 0 21.648 9.7109 21.648 21.648 0.003906 11.938-9.707 21.648-21.645 21.648zm-98.402-29.52c-4.3398 0-7.8711 3.5312-7.8711 7.8711 0 4.3398 3.5312 7.8711 7.8711 7.8711h98.398c4.3398 0 7.8711-3.5312 7.8711-7.8711 0-4.3398-3.5312-7.8711-7.8711-7.8711z"/>
 </g>
</svg>