<?xml version="1.0" encoding="UTF-8"?>
<!-- The Best Svg Icon site in the world: iconSvg.co, Visit us! https://iconsvg.co -->
<svg fill="#000000" width="800px" height="800px" version="1.1" viewBox="144 144 512 512" xmlns="http://www.w3.org/2000/svg">
 <g>
  <path d="m591.88 577.12h-108.24c-5.4336 0-9.8398 4.4062-9.8398 9.8398 0 5.4336 4.4062 9.8398 9.8398 9.8398h108.24c5.4336 0 9.8398-4.4062 9.8398-9.8398-0.003906-5.4297-4.4102-9.8398-9.8438-9.8398z"/>
  <path d="m591.88 547.6h-108.24c-5.4336 0-9.8398 4.4062-9.8398 9.8398s4.4062 9.8398 9.8398 9.8398h108.24c5.4336 0 9.8398-4.4062 9.8398-9.8398-0.003906-5.4336-4.4102-9.8398-9.8438-9.8398z"/>
  <path d="m591.88 518.08h-108.24c-5.4336 0-9.8398 4.4062-9.8398 9.8398 0 5.4336 4.4062 9.8398 9.8398 9.8398h108.24c5.4336 0 9.8398-4.4062 9.8398-9.8398-0.003906-5.4336-4.4102-9.8398-9.8438-9.8398z"/>
  <path d="m591.88 488.56h-108.24c-5.4336 0-9.8398 4.4062-9.8398 9.8398 0 5.4336 4.4062 9.8398 9.8398 9.8398h108.24c5.4336 0 9.8398-4.4062 9.8398-9.8398-0.003906-5.4336-4.4102-9.8398-9.8438-9.8398z"/>
  <path d="m591.88 459.04h-108.24c-5.4336 0-9.8398 4.4062-9.8398 9.8398s4.4062 9.8398 9.8398 9.8398h108.24c5.4336 0 9.8398-4.4062 9.8398-9.8398-0.003906-5.4336-4.4102-9.8398-9.8438-9.8398z"/>
  <path d="m591.88 429.52h-108.24c-5.4336 0-9.8398 4.4062-9.8398 9.8398s4.4062 9.8398 9.8398 9.8398h108.24c5.4336 0 9.8398-4.4062 9.8398-9.8398-0.003906-5.4336-4.4102-9.8398-9.8438-9.8398z"/>
  <path d="m621.4 606.64h-442.8c-5.4336 0-9.8398 4.4062-9.8398 9.8398 0 5.4336 4.4062 9.8398 9.8398 9.8398h442.8c5.4336 0 9.8398-4.4062 9.8398-9.8398 0-5.4336-4.4062-9.8398-9.8398-9.8398z"/>
  <path d="m454.12 577.12h-108.24c-5.4336 0-9.8398 4.4062-9.8398 9.8398 0 5.4336 4.4062 9.8398 9.8398 9.8398h108.24c5.4336 0 9.8398-4.4062 9.8398-9.8398-0.003907-5.4297-4.4102-9.8398-9.8438-9.8398z"/>
  <path d="m454.12 547.6h-108.24c-5.4336 0-9.8398 4.4062-9.8398 9.8398s4.4062 9.8398 9.8398 9.8398h108.24c5.4336 0 9.8398-4.4062 9.8398-9.8398-0.003907-5.4336-4.4102-9.8398-9.8438-9.8398z"/>
  <path d="m454.12 518.08h-108.24c-5.4336 0-9.8398 4.4062-9.8398 9.8398 0 5.4336 4.4062 9.8398 9.8398 9.8398h108.24c5.4336 0 9.8398-4.4062 9.8398-9.8398-0.003907-5.4336-4.4102-9.8398-9.8438-9.8398z"/>
  <path d="m454.12 488.56h-108.24c-5.4336 0-9.8398 4.4062-9.8398 9.8398 0 5.4336 4.4062 9.8398 9.8398 9.8398h108.24c5.4336 0 9.8398-4.4062 9.8398-9.8398-0.003907-5.4336-4.4102-9.8398-9.8438-9.8398z"/>
  <path d="m454.12 459.04h-108.24c-5.4336 0-9.8398 4.4062-9.8398 9.8398s4.4062 9.8398 9.8398 9.8398h108.24c5.4336 0 9.8398-4.4062 9.8398-9.8398-0.003907-5.4336-4.4102-9.8398-9.8438-9.8398z"/>
  <path d="m454.12 429.52h-108.24c-5.4336 0-9.8398 4.4062-9.8398 9.8398s4.4062 9.8398 9.8398 9.8398h108.24c5.4336 0 9.8398-4.4062 9.8398-9.8398-0.003907-5.4336-4.4102-9.8398-9.8438-9.8398z"/>
  <path d="m316.36 577.12h-108.24c-5.4336 0-9.8398 4.4062-9.8398 9.8398 0 5.4336 4.4062 9.8398 9.8398 9.8398h108.24c5.4336 0 9.8398-4.4062 9.8398-9.8398 0-5.4297-4.4062-9.8398-9.8398-9.8398z"/>
  <path d="m316.36 547.6h-108.24c-5.4336 0-9.8398 4.4062-9.8398 9.8398s4.4062 9.8398 9.8398 9.8398h108.24c5.4336 0 9.8398-4.4062 9.8398-9.8398s-4.4062-9.8398-9.8398-9.8398z"/>
  <path d="m316.36 518.08h-108.24c-5.4336 0-9.8398 4.4062-9.8398 9.8398 0 5.4336 4.4062 9.8398 9.8398 9.8398h108.24c5.4336 0 9.8398-4.4062 9.8398-9.8398 0-5.4336-4.4062-9.8398-9.8398-9.8398z"/>
  <path d="m316.36 488.56h-108.24c-5.4336 0-9.8398 4.4062-9.8398 9.8398 0 5.4336 4.4062 9.8398 9.8398 9.8398h108.24c5.4336 0 9.8398-4.4062 9.8398-9.8398 0-5.4336-4.4062-9.8398-9.8398-9.8398z"/>
  <path d="m591.88 400h-108.24c-5.4336 0-9.8398 4.4062-9.8398 9.8398s4.4062 9.8398 9.8398 9.8398h108.24c5.4336 0 9.8398-4.4062 9.8398-9.8398-0.003906-5.4336-4.4102-9.8398-9.8438-9.8398z"/>
  <path d="m483.64 370.48c-5.4336 0-9.8398 4.4062-9.8398 9.8398s4.4062 9.8398 9.8398 9.8398h108.24c5.4336 0 9.8398-4.4062 9.8398-9.8398s-4.4062-9.8398-9.8398-9.8398z"/>
  <path d="m552.52 251.89 7.9727 2.6562-121.54 78.129c-2.8164 1.8125-4.5195 4.9297-4.5195 8.2773v49.199l-127.92 0.003906c-5.4336 0-9.8398 4.4062-9.8398 9.8398v49.199h-88.562c-5.4336 0-9.8398 4.4062-9.8398 9.8398 0 5.4336 4.4062 9.8398 9.8398 9.8398h98.398c5.4336 0 9.8398-4.4062 9.8398-9.8398v-49.199h127.92c5.4336 0 9.8398-4.4062 9.8398-9.8398v-53.668l118.08-75.91v11.496c0 5.4336 4.4062 9.8398 9.8398 9.8398 5.4336 0 9.8398-4.4062 9.8398-9.8398v-30.559c0-4.2344-2.7109-7.9961-6.7305-9.3359l-26.406-8.8008c-5.1562-1.7188-10.727 1.0703-12.445 6.2227-1.7148 5.1562 1.0703 10.73 6.2266 12.449z"/>
  <path d="m178.6 370.48h216.48c5.4336 0 9.8398-4.4062 9.8398-9.8398v-127.92c0-5.4336-4.4062-9.8398-9.8398-9.8398h-29.52v-39.359c0-5.4336-4.4062-9.8398-9.8398-9.8398h-39.359c-5.4336 0-9.8398 4.4062-9.8398 9.8398v88.559h-19.68v-29.52c0-5.4336-4.4062-9.8398-9.8398-9.8398h-39.363c-5.4336 0-9.8398 4.4062-9.8398 9.8398v29.52h-29.52c-5.4336 0-9.8398 4.4062-9.8398 9.8398v68.879h-9.8398c-5.4336 0-9.8398 4.4062-9.8398 9.8398 0 5.4375 4.4062 9.8398 9.8398 9.8398zm206.64-127.92v108.24h-19.68v-108.24zm-59.039-49.199h19.68v157.44h-19.68v-157.44zm-19.68 98.398v59.039h-19.68v-59.039zm-59.043-39.359h19.68v98.398h-19.68v-98.398zm-39.359 39.359h19.68v59.039h-19.68z"/>
  <path d="m462.48 229.43-3.8359 7.6172c4.0234 2.6797 9.0977 4.1758 13.742 4.582v6.2305h3.6758v-6.1758c4.8945-0.20703 9.6016-1.8984 11.824-6.3398 1.3906-2.7812 1.3789-7.0664 0.23828-9.6406-0.92188-2.0859-2.6523-3.9883-6.043-5.3516-3.2656-1.3125-6.0391-1.8906-6.6055-2.0508v-7.2422c3.832 0.55078 8.0664 2.918 8.5195 3.5156l3.832-7.2422c-1.4922-0.85156-3.25-1.6875-5.2734-2.5039-2.0234-0.81641-4.1914-1.332-6.4961-1.543v-5.3789h-3.6758v5.3789c-7.9062 0.82422-12.145 5.7773-12.145 12.195 0 3.9688 1.582 6.7383 5.6445 8.707 2.8438 1.3828 5.875 2.0898 7.082 2.4766v7.082c-4.7656-0.66406-9.7539-3.3906-10.484-4.3164zm12.996-1.9727c1.2422 0.42578 2.2344 0.89844 2.9844 1.4102 0.74609 0.51562 1.1172 1.2344 1.1172 2.1562 0 1.7773-1.3672 2.7148-4.1016 2.8242zm-5.3008-11.262c-0.62109-0.51562-0.93359-1.2148-0.93359-2.1055 0-1.8477 1.2422-2.875 3.7266-3.0898v6.5508c-1.2422-0.39062-2.1719-0.83984-2.793-1.3555z"/>
  <path d="m473.8 272.08c27.129 0 49.199-22.07 49.199-49.199s-22.07-49.199-49.199-49.199-49.199 22.07-49.199 49.199 22.07 49.199 49.199 49.199zm0-78.719c16.277 0 29.52 13.242 29.52 29.52s-13.242 29.52-29.52 29.52-29.52-13.242-29.52-29.52 13.242-29.52 29.52-29.52z"/>
 </g>
</svg>