<?xml version="1.0" encoding="UTF-8"?>
<!-- The Best Svg Icon site in the world: iconSvg.co, Visit us! https://iconsvg.co -->
<svg fill="#000000" width="800px" height="800px" version="1.1" viewBox="144 144 512 512" xmlns="http://www.w3.org/2000/svg">
 <g>
  <path d="m198.52 372.82c9.7812-43.316 42.172-81.375 88.848-104.41 63.523-31.352 143.67-30.48 206.09 1.6602-6.4219 4.543-12.691 9.3086-18.934 14.16-55.156-24.707-123.25-23.941-177.88 3-40.977 20.215-69.285 53.109-77.648 90.223-7.2539 32.148 0.88281 65.223 22.914 93.121 50.516 63.984 157.83 83.359 239.2 43.203 40.977-20.215 69.285-53.098 77.672-90.203 6.5586-29.105 0.39844-58.957-17.16-85.059 5.7188-4.0195 11.523-7.9336 17.434-11.66 20.793 30.934 28.078 66.473 20.203 101.33-9.8047 43.328-42.172 81.387-88.848 104.4-31.402 15.504-66.367 22.883-100.96 22.883-64.32 0-127.39-25.527-164-71.898-26.066-32.969-35.629-72.289-26.938-110.75z"/>
  <path d="m377.01 483.4c1.2812 0 2.5625-0.11719 3.8203-0.34766h3.2344l1.5234-1.5234c1.1875-0.55469 2.3633-1.2266 3.5156-2.0469l1.5312-1.1875c1.5-1.2891 2.7812-2.7617 3.8516-4.3672l0.37891-0.47266 0.48437-0.79688c43.746-81.879 113.73-148.57 197.25-188.16 10.477-4.9648 14.945-17.508 9.9805-27.961-3.4648-7.293-10.906-12.02-18.965-12.02-3.1367 0-6.1602 0.69141-8.9961 2.0352-77.754 36.852-145.91 96.281-193.7 168.52-19.219-37.113-49.207-67.73-86.004-87.41-3.0547-1.6172-6.4766-2.4766-9.8867-2.4766-7.7656 0-14.863 4.25-18.535 11.105-5.4492 10.203-1.5742 22.945 8.6055 28.402 40.188 21.484 69.945 59.07 81.629 103.1l0.30469 1.207 0.83984 1.668c0.34766 0.88281 1.125 2.6016 2.4023 4.293l0.48438 0.64062 1.125 1.1641c1.0391 1.0898 2.0469 1.9727 3.1172 2.7305l0.50391 0.47266 1.5742 0.94531c0.73437 0.41016 1.5547 0.71484 2.4023 1.0078 0.23047 0.11719 0.83984 0.34766 1.4805 0.54688 2.0117 0.60547 4.0586 0.92969 6.043 0.92969z"/>
 </g>
</svg>