<?xml version="1.0" encoding="UTF-8"?>
<!-- The Best Svg Icon site in the world: iconSvg.co, Visit us! https://iconsvg.co -->
<svg fill="#000000" width="800px" height="800px" version="1.1" viewBox="144 144 512 512" xmlns="http://www.w3.org/2000/svg">
 <g>
  <path d="m187.45 450.21c0 64.07 38.809 99.352 109.29 99.352 70.477 0 109.29-35.281 109.29-99.352 0-45.258-32.527-100.14-74.918-120.77 29.238-4.8789 45.113-21.523 45.113-48.137-0.003906-8.5977-3.7148-16.773-10.184-22.434-6.4688-5.6562-15.07-8.2461-23.59-7.1016-8.5156 1.1406-16.129 5.9102-20.875 13.074-5.5195-8.332-14.844-13.34-24.836-13.34-9.9922 0-19.32 5.0078-24.836 13.34-4.75-7.1641-12.359-11.934-20.879-13.074-8.5195-1.1445-17.117 1.4453-23.586 7.1016-6.4727 5.6602-10.184 13.836-10.184 22.434 0 26.617 15.879 43.297 45.113 48.137-42.391 20.625-74.918 75.508-74.918 120.77zm161.45-183.8c4.1172 0 7.4531 2.2266 7.4531 4.9688 0 2.7383-3.3359 4.9688-7.4531 4.9688-4.1172 0-7.4531-2.2188-7.4531-4.9688-0.003907-2.75 3.3359-4.9688 7.4531-4.9688zm0.71484 228.05h-103.91c-5.5781 0-10.738-2.9531-13.566-7.7578-2.8281-4.8086-2.9023-10.754-0.19531-15.629l51.957-93.535c1.8242-3.2969 4.7695-5.8281 8.3008-7.1406 3.5312-1.3086 7.418-1.3086 10.949 0 3.5312 1.3125 6.4766 3.8438 8.3008 7.1406l51.957 93.535c2.7109 4.8828 2.6328 10.832-0.20312 15.641-2.8359 4.8086-8.0078 7.7578-13.59 7.7461zm-52.875-163.22c29.805 0 63.543 27.48 81.215 58.047-19.594-30.148-49.492-48.359-81.215-48.359-31.723 0-61.621 18.207-81.215 48.359 17.672-30.566 51.434-58.047 81.215-58.047z"/>
  <path d="m297.66 400c-4.3477 0-7.875 3.5234-7.875 7.8711v39.359c0 4.3477 3.5273 7.8711 7.875 7.8711 4.3477 0 7.8711-3.5234 7.8711-7.8711v-39.359c0-2.0898-0.83203-4.0898-2.3047-5.5664-1.4766-1.4766-3.4805-2.3047-5.5664-2.3047z"/>
  <path d="m305.54 470.85c0 4.3477-3.5234 7.8711-7.8711 7.8711-4.3477 0-7.875-3.5234-7.875-7.8711s3.5273-7.8711 7.875-7.8711c4.3477 0 7.8711 3.5234 7.8711 7.8711"/>
  <path d="m599.58 303.47-85.812-105.6c-3.082-3.5156-7.5273-5.5312-12.203-5.5312-4.6719 0-9.1211 2.0156-12.199 5.5312l-85.824 105.6c-2.5156 3.0938-3.7617 7.0273-3.4922 11.004 0.27344 3.9805 2.043 7.707 4.957 10.43 2.9141 2.7227 6.75 4.2422 10.738 4.2422h30.699l0.003906 125.95c0 2.0898 0.82813 4.0898 2.3047 5.5664 1.4766 1.4766 3.4766 2.3086 5.5664 2.3086h94.465c2.0859 0 4.0898-0.83203 5.5664-2.3086 1.4766-1.4766 2.3047-3.4766 2.3047-5.5664v-125.95h30.699c3.9922 0.003906 7.832-1.5117 10.75-4.2344 2.9141-2.7227 4.6875-6.4492 4.9609-10.43s-0.97656-7.918-3.4922-11.012z"/>
  <path d="m454.32 494.46h94.465c4.3477 0 7.8711-3.5234 7.8711-7.8711s-3.5234-7.8711-7.8711-7.8711h-94.465c-4.3477 0-7.8711 3.5234-7.8711 7.8711s3.5234 7.8711 7.8711 7.8711z"/>
  <path d="m454.32 525.95h94.465c4.3477 0 7.8711-3.5234 7.8711-7.8711s-3.5234-7.8711-7.8711-7.8711h-94.465c-4.3477 0-7.8711 3.5234-7.8711 7.8711s3.5234 7.8711 7.8711 7.8711z"/>
  <path d="m454.32 557.44h94.465c4.3477 0 7.8711-3.5234 7.8711-7.8711s-3.5234-7.8711-7.8711-7.8711h-94.465c-4.3477 0-7.8711 3.5234-7.8711 7.8711s3.5234 7.8711 7.8711 7.8711z"/>
 </g>
</svg>