<?xml version="1.0" encoding="UTF-8"?>
<!-- The Best Svg Icon site in the world: iconSvg.co, Visit us! https://iconsvg.co -->
<svg fill="#000000" width="800px" height="800px" version="1.1" viewBox="144 144 512 512" xmlns="http://www.w3.org/2000/svg">
 <g>
  <path d="m400 169.09c-127.33 0-230.91 103.59-230.91 230.91s103.59 230.91 230.91 230.91c127.34 0 230.91-103.59 230.91-230.91-0.003906-127.33-103.58-230.91-230.91-230.91zm0 451.33c-121.55 0-220.42-98.871-220.42-220.41 0-121.55 98.871-220.42 220.42-220.42 121.54 0 220.42 98.871 220.42 220.42-0.003907 121.54-98.887 220.41-220.42 220.41z"/>
  <path d="m490.25 287.64c-2.332 0.44141-4.3242 1.9844-5.3516 4.1445-5.2461 11.051-11.809 21.422-19.082 31.258-41.008-35.109-102.95-31.992-140.05 7.9023-8.082 8.6914-14.527 18.641-19.145 29.566-1.125 2.6641 0.11719 5.75 2.793 6.875 0.66016 0.28516 1.3633 0.41797 2.0469 0.41797 2.0469 0 3.9883-1.1953 4.8281-3.2031 4.1445-9.8047 9.918-18.715 17.172-26.512 33.398-35.906 89.215-38.582 126-6.7188-8.6602 10.434-18.324 20.047-29.043 28.383-1.5547 1.2266-2.5508 2.9922-2.8125 4.9648-0.23047 1.9844 0.29297 3.9375 1.5312 5.5117 1.4062 1.793 3.6016 2.875 5.8789 2.875l71.73-7.7891c1.457-0.15625 2.793-0.91406 3.6523-2.0898 0.88281-1.1758 1.207-2.6562 0.94531-4.1055l-12.344-65.539c-0.77344-3.8398-4.9414-6.6758-8.75-5.9414zm-45.449 73.871c18.516-16.039 34.051-35.539 45.512-57.152l9.6367 51.137z"/>
  <path d="m490.6 432.61c-2.6445-1.125-5.75 0.11719-6.8633 2.793-4.1562 9.8047-9.918 18.715-17.184 26.504-33.398 35.895-89.215 38.582-125.98 6.7266 8.668-10.434 18.324-20.047 29.031-28.383 1.5625-1.2266 2.5625-2.9922 2.8125-4.9766 0.24219-1.9727-0.29297-3.9375-1.5234-5.5-1.4258-1.8281-3.3359-2.707-6.6953-2.8438l-70.922 7.7461c-1.457 0.14844-2.7812 0.90234-3.6523 2.0781-0.87109 1.1758-1.207 2.6562-0.93359 4.1133l12.344 65.516c0.66016 3.5273 3.7461 6.0781 7.3359 6.0781 0.33594 0 1.0703-0.0625 1.3945-0.125 2.3203-0.44141 4.3125-1.9727 5.3516-4.1562 5.2266-11.043 11.785-21.402 19.062-31.234 18.422 15.785 41.461 24.426 65.738 24.426 1.25 0 2.5-0.019532 3.7461-0.082032 27.059-0.96484 52.133-12.438 70.586-32.254 8.082-8.6914 14.527-18.641 19.145-29.566 1.125-2.6484-0.125-5.7266-2.7891-6.8594zm-180.93 63.02-9.6367-51.125 55.176-6.0352c-18.512 16.035-34.043 35.547-45.539 57.16z"/>
 </g>
</svg>