<?xml version="1.0" encoding="UTF-8"?>
<!-- The Best Svg Icon site in the world: iconSvg.co, Visit us! https://iconsvg.co -->
<svg fill="#000000" width="800px" height="800px" version="1.1" viewBox="144 144 512 512" xmlns="http://www.w3.org/2000/svg">
 <g>
  <path d="m628.29 400h-118.08c-9.0703 0.011719-17.859 3.1484-24.887 8.8828-7.0234 5.7383-11.859 13.719-13.688 22.605h-32.273v-8.6602c28.492-12.914 48.66-39.195 53.758-70.062h9.2188c8.4375 0 16.23-4.5 20.449-11.809 4.2188-7.3047 4.2188-16.309 0-23.613-4.2188-7.3086-12.012-11.809-20.449-11.809h-7.875v-23.617c-0.015626-14.609-5.8281-28.613-16.16-38.945-10.328-10.328-24.332-16.141-38.941-16.16h-78.723c-14.605 0.019531-28.613 5.832-38.941 16.16-10.332 10.332-16.141 24.336-16.16 38.945v23.617h-7.8711c-8.4375 0-16.234 4.5-20.453 11.809-4.2188 7.3047-4.2188 16.309 0 23.613 4.2188 7.3086 12.016 11.809 20.453 11.809h9.2188-0.003906c5.0977 30.867 25.266 57.148 53.758 70.062v8.6602h-32.273c-1.8281-8.8867-6.6602-16.867-13.688-22.605-7.0273-5.7344-15.816-8.8711-24.887-8.8828h-118.08c-4.3477 0-7.875 3.5234-7.875 7.8711v15.742c0 14.398 5.6523 28.219 15.746 38.488v0.875c-0.003906 14.395 5.6523 28.215 15.742 38.484v0.875c0.019531 14.609 5.832 28.613 16.16 38.941 10.332 10.332 24.336 16.145 38.945 16.16h15.742v70.848l0.003906 0.003906c0 2.0859 0.82812 4.0898 2.3047 5.5664 1.4766 1.4727 3.4766 2.3047 5.5664 2.3047h251.9c2.0898 0 4.0898-0.83203 5.5664-2.3047 1.4766-1.4766 2.3086-3.4805 2.3086-5.5664v-70.852h15.742c14.609-0.015625 28.613-5.8281 38.945-16.16 10.328-10.328 16.141-24.332 16.16-38.941v-0.875c10.09-10.27 15.746-24.09 15.742-38.484v-0.875c10.094-10.27 15.746-24.09 15.746-38.488v-15.742c0-2.0898-0.83203-4.0898-2.3047-5.5664-1.4766-1.4766-3.4805-2.3047-5.5664-2.3047zm-133.83-78.723h7.875c4.3477 0 7.8711 3.5234 7.8711 7.8711 0 4.3477-3.5234 7.875-7.8711 7.875h-7.875zm-188.93 15.746h-7.8711c-4.3477 0-7.875-3.5273-7.875-7.875 0-4.3477 3.5273-7.8711 7.875-7.8711h7.8711zm157.44 110.21-32.34 43.121-19.508-19.504 23.617-23.617zm-102.34-204.67h78.723c10.434 0.011718 20.438 4.1641 27.816 11.543 7.3789 7.3789 11.531 17.383 11.543 27.816v7.8711h-3.1484c-15.105 0.019532-29.211-7.5352-37.574-20.113-2.0625-3.082-5.9961-4.3086-9.4453-2.9414-25.059 10.055-51.812 15.207-78.816 15.184h-28.457c0.011718-10.434 4.1641-20.438 11.543-27.816 7.3789-7.3789 17.383-11.531 27.816-11.543zm-39.359 94.465v-39.359h28.457c26.973 0.007813 53.727-4.7891 79.012-14.172 11.551 13.973 28.734 22.055 46.863 22.043h3.1094v31.488c0.054688 15.848-4.707 31.34-13.652 44.426-8.9453 13.082-21.656 23.141-36.445 28.84-3.0195 1.1797-5.0039 4.0859-5.0078 7.3281v18.484l-23.617 23.617-23.617-23.617 0.003906-18.484c0-3.2422-1.9883-6.1484-5.0078-7.3281-14.789-5.6992-27.5-15.758-36.445-28.84-8.9453-13.086-13.707-28.578-13.652-44.426zm43.973 110.21 23.617 23.617-19.508 19.508-32.336-43.125zm-99.074 94.465h-15.746c-8.4492-0.027343-16.66-2.7812-23.422-7.8477-6.7617-5.0664-11.707-12.18-14.105-20.281 6.8789 2.9805 14.289 4.5156 21.785 4.5117h31.488zm0-55.105v15.742l-31.488 0.003907c-8.4492-0.03125-16.664-2.7812-23.422-7.8477-6.7617-5.0664-11.707-12.18-14.105-20.281 6.875 2.9805 14.289 4.5156 21.781 4.5117h47.863c-0.39844 2.6055-0.60938 5.2383-0.62891 7.8711zm5.3906-23.617-52.625 0.003906c-10.434-0.015624-20.438-4.1641-27.816-11.543s-11.531-17.383-11.543-27.82v-7.8711h110.21c5.0078 0.015624 9.8828 1.6289 13.914 4.5977 4.0312 2.9727 7.0117 7.1523 8.5078 11.934-17.742 3-32.91 14.457-40.645 30.703zm246.51 157.44h-236.16v-133.82c0.03125-9.7773 3.707-19.191 10.309-26.402 6.6055-7.2109 15.66-11.699 25.398-12.586l44.586 59.457c1.3672 1.832 3.4609 2.9805 5.7422 3.1484h0.55859c2.0859 0 4.0898-0.83203 5.5625-2.3086l25.926-25.922 25.922 25.922c1.4766 1.4766 3.4766 2.3086 5.5664 2.3086h0.55859c2.2773-0.16797 4.3711-1.3164 5.7383-3.1484l44.586-59.457c9.7383 0.88672 18.793 5.375 25.398 12.586 6.6016 7.2109 10.277 16.625 10.309 26.402zm31.488-78.719h-15.742v-23.617h31.488c7.4922 0.003906 14.906-1.5312 21.781-4.5117-2.3984 8.1016-7.3438 15.215-14.105 20.281-6.7578 5.0664-14.973 7.8203-23.422 7.8477zm15.742-39.359h-31.484v-15.746c-0.023438-2.6328-0.23438-5.2656-0.63281-7.8711h47.863c7.4922 0.003906 14.906-1.5312 21.781-4.5117-2.3984 8.1016-7.3438 15.215-14.102 20.281-6.7617 5.0664-14.977 7.8164-23.422 7.8477zm55.105-78.719v-0.003907c-0.011718 10.438-4.1641 20.441-11.539 27.82-7.3789 7.3789-17.387 11.527-27.82 11.543h-52.625c-7.7344-16.246-22.902-27.703-40.641-30.703 1.4922-4.7812 4.4727-8.9609 8.5039-11.934 4.0312-2.9688 8.9062-4.582 13.914-4.5977h110.21z"/>
  <path d="m368.51 344.89h15.742v-7.8711c0-8.4375-4.5-16.234-11.809-20.453-7.3047-4.2188-16.309-4.2188-23.613 0-7.3086 4.2188-11.809 12.016-11.809 20.453v7.8711h15.742v-7.8711c0-4.3477 3.5234-7.875 7.8711-7.875 4.3477 0 7.875 3.5273 7.875 7.875z"/>
  <path d="m431.49 337.02c0-4.3477 3.5234-7.875 7.8711-7.875s7.8711 3.5273 7.8711 7.875v7.8711h15.742l0.003906-7.8711c0-8.4375-4.5039-16.234-11.809-20.453-7.3086-4.2188-16.309-4.2188-23.617 0-7.3086 4.2188-11.809 12.016-11.809 20.453v7.8711h15.742z"/>
  <path d="m400 400c8.3516 0 16.359-3.3203 22.266-9.2227 5.9023-5.9062 9.2227-13.914 9.2227-22.266v-7.875h-15.746v7.875c0 5.625-3 10.82-7.8711 13.633s-10.875 2.8125-15.746 0-7.8711-8.0078-7.8711-13.633v-7.875h-15.742v7.875c0 8.3516 3.3164 16.359 9.2227 22.266 5.9023 5.9023 13.914 9.2227 22.266 9.2227z"/>
  <path d="m329.15 187.45c0 22.477 59.039 23.617 70.848 23.617s70.848-1.1406 70.848-23.617-59.039-23.617-70.848-23.617c-11.805 0-70.848 1.1445-70.848 23.617zm70.848 7.8711h0.003906c-18 0.87109-35.996-1.8008-52.965-7.8711 16.969-6.0664 34.965-8.7422 52.965-7.8711 17.996-0.87109 35.992 1.8047 52.961 7.8711-16.969 6.0703-34.965 8.7422-52.961 7.8711z"/>
  <path d="m400 533.82c2.0859 0 4.0898 0.82812 5.5664 2.3047 1.4766 1.4766 2.3047 3.4766 2.3047 5.5664h15.742c-0.019531-4.8672-1.543-9.6094-4.3594-13.578-2.8203-3.9688-6.793-6.9688-11.383-8.5898v-9.3203h-15.746v9.3203c-7.0547 2.4844-12.508 8.1719-14.699 15.324-2.1914 7.1523-0.85547 14.918 3.5977 20.926 4.4531 6.0117 11.496 9.5469 18.977 9.5352 3.1836 0 6.0547 1.918 7.2695 4.8594 1.2188 2.9414 0.54688 6.3242-1.7031 8.5781-2.2539 2.25-5.6406 2.9258-8.582 1.707s-4.8594-4.0898-4.8594-7.2734h-15.742c0.019532 4.8672 1.543 9.6094 4.3633 13.578 2.8164 3.9648 6.793 6.9648 11.379 8.5898v9.3203h15.742l0.003906-9.3203c7.0547-2.4844 12.512-8.1719 14.699-15.324 2.1914-7.1523 0.85547-14.918-3.5977-20.926-4.4531-6.0117-11.496-9.5469-18.973-9.5352-4.3477 0-7.875-3.5234-7.875-7.8711 0-4.3477 3.5273-7.8711 7.875-7.8711z"/>
 </g>
</svg>