<?xml version="1.0" encoding="UTF-8"?>
<!-- The Best Svg Icon site in the world: iconSvg.co, Visit us! https://iconsvg.co -->
<svg width="800px" height="800px" version="1.1" viewBox="144 144 512 512" xmlns="http://www.w3.org/2000/svg">
 <defs>
  <clipPath id="b">
   <path d="m179 258h442v393.9h-442z"/>
  </clipPath>
  <clipPath id="a">
   <path d="m289 148.09h222v141.91h-222z"/>
  </clipPath>
 </defs>
 <g clip-path="url(#b)">
  <path d="m581.05 651.9h-362.11c-13.133 0.015625-25.406-6.5234-32.723-17.426-7.3164-10.906-8.7148-24.738-3.7266-36.887 4.9922-12.148 15.707-21.008 28.578-23.621v-181.84c0.042969-35.477 14.152-69.492 39.242-94.582 25.086-25.086 59.102-39.199 94.582-39.242h110.21c35.48 0.042969 69.496 14.156 94.582 39.242 25.09 25.09 39.203 59.105 39.242 94.582v181.84c12.871 2.6133 23.59 11.473 28.578 23.621 4.9883 12.148 3.5898 25.98-3.7266 36.887-7.3164 10.902-19.59 17.441-32.723 17.426zm-362.11-47.23c-4.3477 0-7.8711 3.5234-7.8711 7.8711 0 4.3477 3.5234 7.8711 7.8711 7.8711h362.11c4.3477 0 7.8711-3.5234 7.8711-7.8711 0-4.3477-3.5234-7.8711-7.8711-7.8711h-7.8711c-4.1758 0-8.1797-1.6602-11.133-4.6133s-4.6133-6.957-4.6133-11.133v-196.8c-0.03125-27.129-10.82-53.141-30.008-72.328-19.184-19.184-45.195-29.977-72.328-30.008h-110.21c-27.133 0.03125-53.145 10.824-72.328 30.008-19.184 19.188-29.977 45.199-30.008 72.328v196.8c0 4.1758-1.6602 8.1797-4.6133 11.133-2.9531 2.9531-6.957 4.6133-11.133 4.6133z"/>
 </g>
 <g clip-path="url(#a)">
  <path d="m459.79 289.91h-0.015625l-120.8-0.125c-5-0.003906-9.7031-2.3828-12.668-6.4102-25.582-34.719-38.469-77.168-36.5-120.25 0.18359-4.0508 1.918-7.875 4.8477-10.676 2.9297-2.8008 6.8281-4.3633 10.883-4.3633h78.719c4.0625 0 7.9648 1.5703 10.895 4.3789 2.9336 2.8125 4.6641 6.6484 4.8359 10.703h94.477c4.3672 0 8.5352 1.8125 11.516 5.0039 2.9766 3.1914 4.4961 7.4766 4.1914 11.832-2.5781 37.328-15.625 73.176-37.645 103.43-2.9688 4.0625-7.6992 6.4688-12.73 6.4727zm-112.6-31.598 104.37 0.089844v0.003906c12.703-19.285 21.273-40.988 25.176-63.746h-76.734v16.406c0 5.625-3.0039 10.82-7.875 13.633s-10.871 2.8125-15.742 0c-4.8711-2.8125-7.8711-8.0078-7.8711-13.633v-31.488h-47.211c1.4102 28.094 10.352 55.289 25.891 78.734z"/>
 </g>
 <path d="m400 580.41c-3.0039 0.003906-5.9453-0.85547-8.4727-2.4766-33.246-21.211-60.234-50.906-78.184-86.023-16.387-36.664-24.414-76.512-23.5-116.66 0.16797-4.6836 2.4141-9.0508 6.1328-11.914 3.7148-2.8594 8.5117-3.9141 13.086-2.875 16.809 3.8477 34.266 3.8555 51.078 0.015625 11.211-2.5938 21.957-6.8945 31.863-12.754 2.418-1.4336 5.1797-2.1914 7.9922-2.1914s5.5703 0.75781 7.9883 2.1914c9.9141 5.8555 20.66 10.156 31.875 12.754 16.812 3.8242 34.273 3.8164 51.082-0.015625 4.6172-1.0469 9.457 0.035157 13.188 2.9531 3.7266 2.9141 5.9453 7.3516 6.0391 12.086 0.94531 39.355-7.7695 78.344-25.379 113.55-17.605 35.211-43.574 65.57-75.629 88.426-2.6719 1.9102-5.875 2.9375-9.1602 2.9336zm-78.297-186.16c1.0586 28.805 7.7461 57.125 19.68 83.363 13.719 26.859 33.637 50.066 58.109 67.699 23.008-18.23 41.914-41.109 55.488-67.137 13.57-26.027 21.508-54.625 23.285-83.926-15.238 1.3672-30.594 0.32422-45.508-3.0898-11.363-2.6328-22.363-6.6406-32.758-11.934-10.402 5.2969-21.41 9.3047-32.781 11.934-14.918 3.4062-30.277 4.4492-45.516 3.0898z"/>
</svg>