<?xml version="1.0" encoding="UTF-8"?>
<!-- The Best Svg Icon site in the world: iconSvg.co, Visit us! https://iconsvg.co -->
<svg width="800px" height="800px" version="1.1" viewBox="144 144 512 512" xmlns="http://www.w3.org/2000/svg">
 <defs>
  <clipPath id="b">
   <path d="m221 148.09h337v157.91h-337z"/>
  </clipPath>
  <clipPath id="a">
   <path d="m275 337h304v314.9h-304z"/>
  </clipPath>
 </defs>
 <g clip-path="url(#b)">
  <path d="m284.54 295.04c0-45 24.004-86.578 62.977-109.08 38.969-22.5 86.98-22.5 125.95 0 38.969 22.5 62.973 64.078 62.973 109.08h20.992c0.039062-51.277-26.652-98.863-70.426-125.57-43.777-26.699-98.305-28.648-143.88-5.1445-45.574 23.508-75.598 69.066-79.219 120.21h-42.352v20.992h52.48c2.7812 0 5.4531-1.1055 7.4219-3.0742s3.0742-4.6406 3.0742-7.4219z"/>
 </g>
 <g clip-path="url(#a)">
  <path d="m527.22 343.57c-12.59 30.945-36.949 55.625-67.727 68.617-30.777 12.988-65.453 13.227-96.406 0.66016-30.953-12.57-55.648-36.91-68.66-67.68l-19.324 8.1875c10.527 24.977 27.773 46.551 49.82 62.324 22.047 15.773 48.031 25.129 75.074 27.027v43.191c-6.1211 2.1641-11.422 6.1641-15.18 11.453-3.7539 5.293-5.7852 11.613-5.8125 18.102v104.96c0 11.25 6 21.645 15.742 27.27s21.746 5.625 31.488 0c9.7422-5.625 15.746-16.02 15.746-27.27v-104.96c-0.027344-6.4883-2.0586-12.809-5.8164-18.102-3.7578-5.2891-9.0586-9.2891-15.176-11.453v-43.172c26.184-1.8047 51.402-10.621 73.012-25.523 21.605-14.906 38.805-35.352 49.789-59.188h34.637v-20.992h-41.488c-4.2734 0-8.1133 2.5898-9.7188 6.5469zm-116.73 161.39c2.7812 0 5.4531 1.1094 7.4219 3.0742 1.9648 1.9688 3.0742 4.6406 3.0742 7.4219v10.496h-20.992v-10.496c0-5.7969 4.6992-10.496 10.496-10.496zm0 125.95c-5.7969 0-10.496-4.6992-10.496-10.496v-73.473h20.992v73.473c0 2.7852-1.1094 5.4531-3.0742 7.4219-1.9688 1.9688-4.6406 3.0742-7.4219 3.0742z"/>
 </g>
 <path d="m431.49 242.56h-10.496v-20.992h-20.992v20.992h-10.496c-5.5703 0-10.91 2.2109-14.844 6.1484-3.9375 3.9375-6.1484 9.2773-6.1484 14.844v20.992c0 5.5664 2.2109 10.906 6.1484 14.844 3.9336 3.9375 9.2734 6.1484 14.844 6.1484h41.984v20.992h-41.984v-10.496h-20.992v10.496c0 5.5664 2.2109 10.906 6.1484 14.844 3.9336 3.9375 9.2734 6.1484 14.844 6.1484h10.496v20.992h20.992v-20.992h10.496c5.5664 0 10.906-2.2109 14.844-6.1484 3.9336-3.9375 6.1484-9.2773 6.1484-14.844v-20.992c0-5.5703-2.2148-10.906-6.1484-14.844-3.9375-3.9375-9.2773-6.1484-14.844-6.1484h-41.984v-20.992h41.984v10.496h20.992v-10.496c0-5.5664-2.2148-10.906-6.1484-14.844-3.9375-3.9375-9.2773-6.1484-14.844-6.1484z"/>
 <path d="m179.58 284.54h20.992v20.992h-20.992z"/>
 <path d="m599.42 337.02h20.992v20.992h-20.992z"/>
 <path d="m410.5 190.08c-27.84 0-54.535 11.059-74.219 30.742-19.684 19.684-30.742 46.379-30.742 74.219 0 27.836 11.059 54.535 30.742 74.219 19.684 19.684 46.379 30.742 74.219 30.742 27.836 0 54.531-11.059 74.215-30.742 19.688-19.684 30.742-46.383 30.742-74.219-0.027344-27.828-11.098-54.508-30.773-74.184-19.68-19.68-46.355-30.746-74.184-30.777zm0 188.93c-22.27 0-43.629-8.8477-59.375-24.594-15.75-15.75-24.594-37.105-24.594-59.375 0-22.27 8.8438-43.629 24.594-59.375 15.746-15.746 37.105-24.594 59.375-24.594 22.27 0 43.625 8.8477 59.371 24.594 15.75 15.746 24.594 37.105 24.594 59.375-0.023438 22.262-8.8789 43.605-24.621 59.348-15.738 15.738-37.082 24.594-59.344 24.621z"/>
</svg>