<?xml version="1.0" encoding="UTF-8"?>
<!-- The Best Svg Icon site in the world: iconSvg.co, Visit us! https://iconsvg.co -->
<svg fill="#000000" width="800px" height="800px" version="1.1" viewBox="144 144 512 512" xmlns="http://www.w3.org/2000/svg">
 <path d="m478.72 179.58h-157.44c-26.477 0.03125-52.062 9.5938-72.066 26.941-20.008 17.344-33.098 41.316-36.883 67.523h-17.004c-5.625 0-10.82 3-13.633 7.8711-2.8125 4.8711-2.8125 10.871 0 15.746 2.8125 4.8711 8.0078 7.8711 13.633 7.8711h15.746v78.719h-15.746c-5.625 0-10.82 3-13.633 7.8711s-2.8125 10.875 0 15.746 8.0078 7.8711 13.633 7.8711h15.746v78.719h-15.746c-5.625 0-10.82 3.0039-13.633 7.875-2.8125 4.8711-2.8125 10.871 0 15.742s8.0078 7.8711 13.633 7.8711h17.004c3.7852 26.211 16.875 50.18 36.883 67.523 20.004 17.348 45.59 26.91 72.066 26.941h157.44c29.23 0 57.262-11.609 77.93-32.277 20.668-20.668 32.277-48.699 32.277-77.93v-220.42c0-29.227-11.609-57.262-32.277-77.93-20.668-20.668-48.699-32.277-77.93-32.277zm-141.7 409.34v-113.04c0-15.953 6.3359-31.25 17.613-42.527 11.281-11.281 26.578-17.617 42.527-17.617h5.668c15.949 0 31.25 6.3359 42.527 17.617 11.277 11.277 17.617 26.574 17.617 42.527v113.04zm62.977-204.67c-12.527 0-24.543-4.9766-33.398-13.832-8.8594-8.8594-13.836-20.871-13.836-33.398 0-12.527 4.9766-24.543 13.836-33.398 8.8555-8.8594 20.871-13.836 33.398-13.836 12.523 0 24.539 4.9766 33.398 13.836 8.8555 8.8555 13.832 20.871 13.832 33.398 0 12.527-4.9766 24.539-13.832 33.398-8.8594 8.8555-20.875 13.832-33.398 13.832zm157.44 125.95h-0.003906c0.003906 18.148-6.2617 35.738-17.738 49.797-11.477 14.059-27.457 23.719-45.238 27.348v-111.46c0.007812-32.246-16.906-62.129-44.555-78.723 18.148-14.703 28.727-36.785 28.812-60.141 0-28.125-15.004-54.113-39.359-68.176s-54.363-14.062-78.723 0c-24.355 14.062-39.359 40.051-39.359 68.176 0.039062 23.41 10.621 45.559 28.812 60.297-27.648 16.594-44.562 46.477-44.555 78.723v111.31c-15.129-3.0859-29.016-10.551-39.934-21.469-10.918-10.918-18.383-24.805-21.469-39.934h14.168c5.625 0 10.824-3 13.637-7.8711s2.8125-10.871 0-15.742c-2.8125-4.8711-8.0117-7.875-13.637-7.875h-15.742v-78.719h15.742c5.625 0 10.824-3 13.637-7.8711s2.8125-10.875 0-15.746-8.0117-7.8711-13.637-7.8711h-15.742v-78.719h15.742c5.625 0 10.824-3 13.637-7.8711 2.8125-4.875 2.8125-10.875 0-15.746-2.8125-4.8711-8.0117-7.8711-13.637-7.8711h-14.168c3.6289-17.781 13.289-33.762 27.348-45.238 14.059-11.477 31.648-17.742 49.797-17.738h157.44c20.879 0 40.902 8.293 55.664 23.055 14.762 14.766 23.055 34.789 23.055 55.664z"/>
</svg>