<?xml version="1.0" encoding="UTF-8"?>
<!-- The Best Svg Icon site in the world: iconSvg.co, Visit us! https://iconsvg.co -->
<svg fill="#000000" width="800px" height="800px" version="1.1" viewBox="144 144 512 512" xmlns="http://www.w3.org/2000/svg">
 <g>
  <path d="m549.57 242.56h-299.14c-4.3477 0-7.8711 3.5234-7.8711 7.8711v299.14c0 4.3477 3.5234 7.8711 7.8711 7.8711 4.3477 0 7.8711-3.5234 7.8711-7.8711v-291.27h283.39v283.39h-259.78c-4.3477 0-7.8711 3.5234-7.8711 7.8711s3.5234 7.8711 7.8711 7.8711h267.65c4.3477 0 7.8711-3.5234 7.8711-7.8711v-299.14c0-4.3477-3.5234-7.8711-7.8711-7.8711z"/>
  <path d="m352.77 226.81c4.3477 0 7.8711-3.5234 7.8711-7.8711v-23.617h80.172c3.2617 9.1445 11.918 15.746 22.168 15.746 13.023 0 23.617-10.594 23.617-23.617s-10.594-23.617-23.617-23.617c-10.25 0-18.906 6.6016-22.164 15.742l-88.047 0.003906c-4.3477 0-7.8711 3.5234-7.8711 7.8711v31.488c0 4.3477 3.5234 7.8711 7.8711 7.8711zm110.21-47.23c4.3398 0 7.8711 3.5312 7.8711 7.8711s-3.5312 7.8711-7.8711 7.8711c-4.3398 0-7.8711-3.5312-7.8711-7.8711-0.003907-4.3398 3.5312-7.8711 7.8711-7.8711z"/>
  <path d="m478.72 565.31c-4.3477 0-7.8711 3.5234-7.8711 7.8711v31.488h-80.172c-3.2617-9.1445-11.918-15.746-22.164-15.746-13.023 0-23.617 10.594-23.617 23.617 0 13.023 10.594 23.617 23.617 23.617 10.25 0 18.906-6.6016 22.164-15.742l88.043-0.003907c4.3477 0 7.8711-3.5234 7.8711-7.8711v-39.359c0-4.3477-3.5234-7.8711-7.8711-7.8711zm-110.21 55.102c-4.3398 0-7.8711-3.5312-7.8711-7.8711 0-4.3398 3.5312-7.8711 7.8711-7.8711 4.3398 0 7.8711 3.5312 7.8711 7.8711 0 4.3398-3.5312 7.8711-7.8711 7.8711z"/>
  <path d="m620.41 425.07v-88.043c0-4.3477-3.5234-7.8711-7.8711-7.8711h-31.488c-4.3477 0-7.8711 3.5234-7.8711 7.8711 0 4.3477 3.5234 7.8711 7.8711 7.8711h23.617v80.172c-9.1445 3.2578-15.746 11.914-15.746 22.164 0 13.023 10.594 23.617 23.617 23.617 13.023 0 23.617-10.594 23.617-23.617 0-10.25-6.6016-18.906-15.746-22.164zm-7.8711 30.035c-4.3398 0-7.8711-3.5312-7.8711-7.8711 0-4.3398 3.5312-7.8711 7.8711-7.8711 4.3398 0 7.8711 3.5312 7.8711 7.8711 0 4.3398-3.5312 7.8711-7.8711 7.8711z"/>
  <path d="m226.81 455.1h-31.488v-80.168c9.1445-3.2617 15.746-11.918 15.746-22.168 0-13.023-10.594-23.617-23.617-23.617s-23.617 10.594-23.617 23.617c0 10.25 6.6016 18.906 15.742 22.164l0.003906 88.047c0 4.3477 3.5234 7.8711 7.8711 7.8711h39.359c4.3477 0 7.8711-3.5234 7.8711-7.8711 0.003906-4.3477-3.5234-7.875-7.8711-7.875zm-39.359-110.21c4.3398 0 7.8711 3.5312 7.8711 7.8711s-3.5312 7.8711-7.8711 7.8711-7.8711-3.5312-7.8711-7.8711 3.5312-7.8711 7.8711-7.8711z"/>
  <path d="m329.15 400v94.465c0 4.3477 3.5234 7.8711 7.8711 7.8711 4.3477 0 7.8711-3.5234 7.8711-7.8711l0.003906-94.465c0-4.3477-3.5234-7.8711-7.8711-7.8711-4.3477-0.003906-7.875 3.5234-7.875 7.8711z"/>
  <path d="m392.12 368.51v125.95c0 4.3477 3.5234 7.8711 7.8711 7.8711s7.8711-3.5234 7.8711-7.8711l0.003906-125.95c0-4.3477-3.5234-7.8711-7.8711-7.8711-4.3477-0.003906-7.875 3.5234-7.875 7.8711z"/>
  <path d="m455.1 415.74v78.719c0 4.3477 3.5234 7.8711 7.8711 7.8711s7.8711-3.5234 7.8711-7.8711l0.003906-78.719c0-4.3477-3.5234-7.8711-7.8711-7.8711-4.3477 0-7.875 3.5234-7.875 7.8711z"/>
  <path d="m507.9 292.1c-3.0742-3.0742-8.0547-3.0742-11.133 0l-58.727 58.727-49.883-28.504c-2.7227-1.5625-6.1211-1.3516-8.6289 0.53906l-62.977 47.23c-3.4805 2.6055-4.1836 7.543-1.5703 11.02 1.543 2.0586 3.9062 3.1445 6.3008 3.1445 1.6406 0 3.2969-0.51172 4.7148-1.5742l58.836-44.125 50.613 28.922c3.0977 1.7734 6.9688 1.25 9.4727-1.2695l62.977-62.977c3.0781-3.0781 3.0781-8.0586 0.003906-11.133z"/>
 </g>
</svg>