<?xml version="1.0" encoding="UTF-8"?>
<!-- The Best Svg Icon site in the world: iconSvg.co, Visit us! https://iconsvg.co -->
<svg fill="#000000" width="800px" height="800px" version="1.1" viewBox="144 144 512 512" xmlns="http://www.w3.org/2000/svg">
 <g>
  <path d="m512.54 610.11c6.582 0 12.898-2.6133 17.551-7.2695 4.6562-4.6523 7.2734-10.969 7.2734-17.551s-2.6172-12.895-7.2734-17.551c-4.6523-4.6562-10.969-7.2695-17.551-7.2695s-12.895 2.6133-17.551 7.2695-7.2695 10.969-7.2695 17.551c0.007813 6.582 2.625 12.891 7.2773 17.543 4.6523 4.6523 10.965 7.2695 17.543 7.2773z"/>
  <path d="m374.48 585.29c0-6.582-2.6133-12.895-7.2695-17.551s-10.969-7.2695-17.551-7.2695c-6.5859 0-12.898 2.6133-17.551 7.2695-4.6562 4.6562-7.2734 10.969-7.2734 17.551s2.6172 12.898 7.2734 17.551c4.6523 4.6562 10.965 7.2695 17.551 7.2695 6.5781-0.007812 12.891-2.625 17.543-7.2773 4.6523-4.6523 7.2695-10.961 7.2773-17.543z"/>
  <path d="m478.75 346.54c1.043 2.2227 2.9297 3.9375 5.2422 4.7617s4.8594 0.69141 7.0703-0.37109c2.2148-1.0586 3.9141-2.957 4.7227-5.2773 0.80469-2.3164 0.65234-4.8633-0.42578-7.0664l-55.551-115.97c-2.2227-4.543-7.6914-6.4453-12.254-4.2617-4.5625 2.1875-6.5078 7.6406-4.3555 12.219z"/>
  <path d="m538.73 295.05c15.871 5.5898 33.438 3.4805 47.535-5.707 14.094-9.1875 23.113-24.406 24.406-41.184 1.293-16.773-5.2891-33.199-17.812-44.434-12.523-11.238-29.559-16.012-46.098-12.918-16.539 3.0938-30.699 13.703-38.312 28.707-7.6133 15.004-7.8125 32.699-0.54688 47.871 6.1719 12.969 17.27 22.93 30.828 27.664zm-2.5898-78.871-1.8945-3.9609h-0.003906c-1.375-2.9336-0.125-6.4297 2.7969-7.832 2.9219-1.3984 6.4297-0.17969 7.8555 2.7305l1.7422 3.6367h-0.003907c4.6797-0.93359 9.5312-0.28125 13.797 1.8477 4.2656 2.1289 7.7031 5.6172 9.7656 9.9141 1.4102 2.9414 0.16797 6.4688-2.7734 7.875-2.9414 1.4102-6.4648 0.16797-7.875-2.7734-1.6836-3.5195-5.3242-5.6758-9.2188-5.4648s-7.2812 2.7461-8.5742 6.4258c-1.2969 3.6797-0.24609 7.7773 2.6562 10.383 2.9062 2.6055 7.0938 3.2031 10.609 1.5156 6.3398-3.0273 13.762-2.7578 19.867 0.71875 6.1016 3.4805 10.117 9.7266 10.742 16.723 0.62891 7-2.2109 13.859-7.6016 18.367l1.3008 2.7148c0.69141 1.4141 0.79297 3.0469 0.27344 4.5352-0.51562 1.4844-1.6055 2.7031-3.0234 3.3867-1.4219 0.67969-3.0547 0.76172-4.5352 0.23438-1.4844-0.53125-2.6953-1.6289-3.3633-3.0547l-1.457-3.043c-4.5039 0.62891-9.0938-0.19141-13.098-2.3438-4.0078-2.1523-7.2227-5.5273-9.1836-9.6289-0.67578-1.4141-0.76562-3.0391-0.24609-4.5156 0.51953-1.4766 1.6055-2.6875 3.0195-3.3633 1.4102-0.67969 3.0352-0.76563 4.5117-0.24609 1.4805 0.52344 2.6875 1.6094 3.3633 3.0234 1.6875 3.5156 5.3242 5.6758 9.2188 5.4648 3.8945-0.21094 7.2812-2.75 8.5781-6.4297 1.293-3.6797 0.24609-7.7773-2.6602-10.379-2.9062-2.6055-7.0938-3.2031-10.609-1.5156-6.2031 2.9609-13.449 2.7734-19.484-0.50781-6.0391-3.2812-10.141-9.2578-11.031-16.074-0.88672-6.8164 1.543-13.645 6.5352-18.363z"/>
  <path d="m391.82 346.55c25.77-10.207 55.203-7.7969 71.34-5.2266l-45.77-95.547c-8.3555 14.215-25.387 39.117-48.688 52.52z"/>
  <path d="m316.47 335.3 13.785 28.777c2.4961 5.1953 8.6953 7.4414 13.941 5.043l-22.922-47.848c-5.1523 2.5859-7.2891 8.8242-4.8047 14.027z"/>
  <path d="m585.19 303.2c-15.703 7.793-33.914 8.7969-50.379 2.7812-13.727-4.8359-25.207-13.234-33.078-26.027h-21.156l25.434 53.312c2.4023 5.0625 2.7148 10.863 0.86328 16.152-1.8477 5.2891-5.7031 9.6367-10.734 12.098-4.4922 2.1523-9.6016 2.6367-14.418 1.3711-4.8125-1.2656-9.0234-4.2031-11.875-8.2812-9.4219-2.0352-44.199-8.3086-72.793 2.5898v-0.003906c4.6211 8.9141 10.223 17.281 16.699 24.953 3.6445 4.2578 5.5547 9.7344 5.3398 15.336-0.21484 5.6016-2.5352 10.918-6.4961 14.883-4.1484 4.1641-9.7852 6.4922-15.656 6.4766-0.16406 0-0.32812 0-0.49219-0.007813v0.003906c-6.043-0.10938-11.777-2.6953-15.859-7.1562l-29.973-32.531-1.1445 0.54688c-5.3594 2.5625-11.516 2.8906-17.113 0.91406-5.6016-1.9805-10.188-6.0977-12.75-11.457l-13.785-28.805c-2.5586-5.3633-2.8906-11.523-0.91797-17.133 1.9727-5.6055 6.0859-10.203 11.438-12.789l42.035-20.246v0.003907c5.543-2.7891 10.738-6.2227 15.473-10.23h-111.68l-8.7891-46.312c-0.52344-2.7969-2.957-4.832-5.8008-4.8555h-67.941c-3.2617 0-5.9023 2.6445-5.9023 5.9062 0 3.2578 2.6406 5.9023 5.9023 5.9023h63.055l46.762 246.25c2.1328 11.246 8.1172 21.395 16.918 28.711 8.8047 7.3164 19.875 11.34 31.324 11.383h226.04c3.2578 0 5.9023-2.6406 5.9023-5.9023s-2.6445-5.9062-5.9023-5.9062h-226.04c-8.6953-0.027344-17.105-3.082-23.789-8.6367-6.6875-5.5547-11.23-13.262-12.852-21.801l-8.7812-46.312h280.05l53.938-158.43h-14.539c-6.5781 10.008-15.75 18.039-26.535 23.246z"/>
  <path d="m396.7 407.02c2.832 0.074218 5.5664-1.0195 7.5625-3.0273 3.8477-3.8438 4.0898-10 0.55859-14.133-7.1992-8.543-13.418-17.867-18.535-27.797l-24.523 11.746 27.512 29.863c1.9102 2.0898 4.5977 3.3008 7.4258 3.3477z"/>
  <path d="m331.92 316.16 26.23-12.566 22.93 47.863-26.23 12.566z"/>
 </g>
</svg>