<?xml version="1.0" encoding="UTF-8"?>
<!-- The Best Svg Icon site in the world: iconSvg.co, Visit us! https://iconsvg.co -->
<svg fill="#000000" width="800px" height="800px" version="1.1" viewBox="144 144 512 512" xmlns="http://www.w3.org/2000/svg">
 <g>
  <path d="m449.2 538.07c0-53.688-43.719-97.73-97.391-97.73h-0.66016c-26.051 0.98438-50.746 10.473-69.125 28.93h-0.003907c-18.355 18.363-28.656 43.273-28.637 69.238v92.727h195.82z"/>
  <path d="m351.35 428.54h0.66406c24.555 0.0625 48.219-9.1836 66.23-25.875 18.008-16.691 29.023-39.586 30.828-64.074-20.906-4.043-39.758-15.234-53.32-31.648-13.566-16.414-21-37.039-21.031-58.332-0.007812-3.3359 0.17969-6.668 0.57031-9.9844h-121.91v93.02c0 26.074 10.48 50.32 28.941 68.699l-0.003907 0.003906c18.348 18.199 43.188 28.344 69.027 28.191z"/>
  <path d="m466.45 328.35c21.195 0 41.523-8.4219 56.512-23.41 14.988-14.988 23.41-35.316 23.41-56.516 0-21.195-8.4219-41.523-23.41-56.512-14.988-14.988-35.316-23.41-56.516-23.41-21.195 0-41.523 8.4219-56.512 23.41-14.988 14.988-23.41 35.316-23.41 56.516 0.023437 21.188 8.4531 41.504 23.438 56.484 14.98 14.984 35.297 23.414 56.488 23.438zm-7.4141-126.51v-6.5117c0-3.2578 2.6445-5.9023 5.9023-5.9023 3.2617 0 5.9062 2.6445 5.9062 5.9023v5.9727c6.6094 1.0195 12.633 4.3828 16.973 9.4766 4.3359 5.0938 6.6914 11.578 6.6406 18.266 0 3.2344-2.6211 5.8594-5.8555 5.8594-3.2383 0-5.8594-2.625-5.8594-5.8594-0.003906-4.3281-1.7266-8.4727-4.7891-11.531-3.0586-3.0547-7.2109-4.7734-11.535-4.7695-4.3281 0.003907-8.4766 1.7266-11.531 4.7891-3.0586 3.0625-4.7695 7.2148-4.7656 11.539 0.003906 4.3281 1.7266 8.4727 4.7891 11.531 3.0625 3.0547 7.2109 4.7695 11.539 4.7656 9.6133 0.035157 18.543 4.9844 23.672 13.113 5.1289 8.1328 5.75 18.32 1.6445 27.012-4.1055 8.6914-12.367 14.688-21.906 15.891v7.1055c0 3.2617-2.6445 5.9062-5.9062 5.9062-3.2578 0-5.9023-2.6445-5.9023-5.9062v-8.0703c-10.824-3.5039-19.855-14.246-19.855-26.922v0.003906c0-3.2852 2.6641-5.9492 5.9492-5.9492 3.2852 0 5.9492 2.6641 5.9492 5.9492-0.003906 4.332 1.7148 8.4883 4.7773 11.555 3.0586 3.0625 7.2109 4.7891 11.543 4.793s8.4883-1.7148 11.555-4.7773c3.0664-3.0586 4.7891-7.2109 4.793-11.543 0.003906-4.332-1.7109-8.4883-4.7734-11.555-3.0586-3.0664-7.2148-4.793-11.547-4.7969-9.1953 0.039063-17.832-4.418-23.129-11.934-5.2969-7.5195-6.5859-17.152-3.4531-25.801 3.1328-8.6484 10.293-15.219 19.176-17.602z"/>
 </g>
</svg>