<?xml version="1.0" encoding="UTF-8"?>
<!-- The Best Svg Icon site in the world: iconSvg.co, Visit us! https://iconsvg.co -->
<svg fill="#000000" width="800px" height="800px" version="1.1" viewBox="144 144 512 512" xmlns="http://www.w3.org/2000/svg">
 <g>
  <path d="m179.58 541.7v-251.91c0-4.3477 3.5234-7.8711 7.8711-7.8711h23.617v-15.742h-23.617c-6.2617 0-12.27 2.4883-16.699 6.9141-4.4297 4.4297-6.918 10.438-6.918 16.699v251.91c0 6.2617 2.4883 12.27 6.918 16.699 4.4297 4.4297 10.438 6.918 16.699 6.918h267.65v-15.746h-267.65c-4.3477 0-7.8711-3.5234-7.8711-7.8711z"/>
  <path d="m612.54 266.18h-165.31v15.742h165.31c2.0898 0 4.0898 0.82812 5.5664 2.3047 1.4766 1.4766 2.3047 3.4805 2.3047 5.5664v251.91c0 2.0859-0.82812 4.0898-2.3047 5.5664-1.4766 1.4766-3.4766 2.3047-5.5664 2.3047h-15.742v15.742h15.742v0.003906c6.2617 0 12.27-2.4883 16.699-6.918 4.4297-4.4297 6.918-10.438 6.918-16.699v-251.91c0-6.2617-2.4883-12.27-6.918-16.699-4.4297-4.4258-10.438-6.9141-16.699-6.9141z"/>
  <path d="m525.95 462.98c-10.438 0-20.449 4.1445-27.832 11.527-7.3789 7.3789-11.527 17.391-11.527 27.832 0 10.438 4.1484 20.449 11.527 27.832 7.3828 7.3789 17.395 11.527 27.832 11.527 10.441 0 20.453-4.1484 27.832-11.527 7.3828-7.3828 11.531-17.395 11.531-27.832-0.015625-10.438-4.1641-20.441-11.543-27.82-7.3789-7.3789-17.383-11.527-27.82-11.539zm0 62.977v-0.003906c-6.2617 0-12.27-2.4883-16.699-6.9141-4.4258-4.4297-6.9141-10.438-6.9141-16.699 0-6.2656 2.4883-12.27 6.9141-16.699 4.4297-4.4297 10.438-6.918 16.699-6.918 6.2656 0 12.273 2.4883 16.699 6.918 4.4297 4.4297 6.918 10.434 6.918 16.699 0 6.2617-2.4883 12.27-6.918 16.699-4.4258 4.4258-10.434 6.9141-16.699 6.9141z"/>
  <path d="m592.64 486.42c-1.5352-1.3047-2.9023-2.793-4.0781-4.4258-0.066406-2.1484 0.15625-4.293 0.66016-6.3828 1.9102-5.9648 1.2305-12.453-1.875-17.895-4.2422-4.6484-10.234-7.3086-16.531-7.3359-2.0938-0.15625-4.1641-0.58984-6.1484-1.2812-1.2461-1.6602-2.2773-3.4688-3.0703-5.3867-1.957-6.0391-6.3828-10.965-12.176-13.562-6.0781-1.2539-12.398 0.10156-17.43 3.7305-1.8789 1.1641-3.9102 2.0547-6.0391 2.6445-2.1211-0.59375-4.1484-1.4844-6.0195-2.6445-5.0312-3.6328-11.359-4.9883-17.438-3.7305-5.7891 2.6016-10.211 7.5273-12.172 13.562-0.78906 1.9141-1.8164 3.7188-3.0508 5.3789-1.9922 0.69922-4.0625 1.1328-6.1641 1.2891-6.2969 0.027344-12.293 2.6914-16.531 7.3438-3.1016 5.4336-3.7812 11.922-1.875 17.879 0.5 2.082 0.72656 4.2188 0.66797 6.3594-1.1719 1.6484-2.543 3.1445-4.0859 4.457-5.1797 3.7656-8.5312 9.5469-9.2148 15.918 0.67969 6.3672 4.0234 12.148 9.1992 15.918 1.5312 1.3047 2.9023 2.7891 4.0781 4.4219 0.066406 2.1484-0.15625 4.2969-0.66016 6.3828-1.9102 5.9648-1.2305 12.457 1.875 17.895 4.2422 4.6484 10.234 7.3125 16.531 7.3359 1.8594 0.19531 3.7031 0.53906 5.5078 1.0234v72.977c0 2.9805 1.6875 5.707 4.3516 7.0391 2.668 1.332 5.8594 1.0469 8.2461-0.74219l26.754-20.074 26.766 20.074c2.3867 1.7891 5.5781 2.0742 8.2461 0.74219 2.6641-1.332 4.3516-4.0586 4.3516-7.0391v-72.977c1.8047-0.48438 3.6484-0.82422 5.5078-1.0234 6.2969-0.023437 12.293-2.6875 16.531-7.3438 3.1016-5.4336 3.7812-11.918 1.875-17.879-0.5-2.0781-0.72656-4.2188-0.66797-6.3594 1.1719-1.6484 2.543-3.1445 4.0859-4.4531 5.1719-3.7734 8.5117-9.5547 9.1914-15.918-0.67969-6.3672-4.0234-12.148-9.1992-15.918zm-61.961 111.96c-2.8008-2.1016-6.6484-2.1016-9.4492 0l-18.891 14.168v-38.102c0.0625 0 0.10156 0.0625 0.16406 0.078125 1.4062 0.46094 2.875 0.69531 4.3516 0.69531 4.6602-0.375 9.1484-1.8945 13.078-4.4258 1.8711-1.1602 3.8984-2.0508 6.0195-2.6445 2.125 0.59375 4.1523 1.4844 6.0234 2.6445 5.0352 3.625 11.359 4.9805 17.438 3.7305 0.054688-0.019531 0.10547-0.046875 0.15625-0.078125v38.102zm51.113-91.535v-0.003906c-3.6133 2.9141-6.4336 6.6875-8.2031 10.977-1.125 4.6211-1.0781 9.4531 0.14062 14.051 0.40234 1.8867 0.64844 3.8047 0.73047 5.7305-1.8828 0.52734-3.8086 0.89453-5.7539 1.0938-4.7617-0.12109-9.4297 1.3281-13.285 4.125s-6.6797 6.7891-8.0391 11.352c-0.78906 1.8125-1.7422 3.5508-2.8438 5.1953-1.7617-0.67188-3.4648-1.4883-5.0977-2.4336-4.0508-2.6055-8.6836-4.1602-13.488-4.5234-4.8008 0.36328-9.4336 1.918-13.484 4.5234-1.6328 0.94531-3.3359 1.7617-5.1016 2.4336-1.0977-1.6445-2.0508-3.3828-2.8398-5.1953-1.6836-4.3789-4.4297-8.2695-8-11.32-4.0273-2.4805-8.6094-3.9102-13.332-4.1641-1.9453-0.19141-3.8672-0.55469-5.7461-1.0859 0.078126-1.9297 0.32422-3.8438 0.73047-5.7305 1.2188-4.5977 1.2656-9.4297 0.14062-14.051-1.7695-4.2891-4.5898-8.0625-8.2031-10.977-1.4961-1.418-4.0078-3.8008-4.3438-4.1797 1.2148-1.8008 2.6797-3.4258 4.3438-4.8242 3.6133-2.9141 6.4336-6.6875 8.2031-10.973 1.125-4.625 1.0781-9.4531-0.14062-14.051-0.40234-1.8867-0.64844-3.8047-0.73047-5.7344 1.8828-0.52734 3.8047-0.89453 5.7539-1.0938 4.7188-0.24609 9.3008-1.6758 13.324-4.1562 3.5703-3.0469 6.3164-6.9375 8-11.32 0.78906-1.8125 1.7422-3.5508 2.8398-5.1953 1.7656 0.67578 3.4688 1.4883 5.1016 2.4336 4.0508 2.6055 8.6836 4.1641 13.484 4.5273 4.8047-0.36328 9.4375-1.9219 13.488-4.5273 1.6328-0.94531 3.3359-1.7578 5.0977-2.4336 1.1016 1.6445 2.0547 3.3828 2.8438 5.1953 1.3633 4.5664 4.1875 8.5547 8.043 11.355 3.8594 2.7969 8.5273 4.25 13.289 4.1289 1.9453 0.19141 3.8672 0.55469 5.7461 1.0859-0.078125 1.9297-0.32422 3.8477-0.73047 5.7344-1.2188 4.5977-1.2656 9.4258-0.14062 14.051 1.7695 4.2852 4.5898 8.0586 8.2031 10.973 1.5469 1.3555 2.9531 2.8633 4.1953 4.5039-1.2422 1.6367-2.6484 3.1484-4.1953 4.5z"/>
  <path d="m604.67 368.51v-47.234c0-6.2617-2.4883-12.27-6.918-16.699-4.4297-4.4297-10.434-6.9141-16.699-6.9141h-47.23v15.742h47.23c2.0898 0 4.0898 0.82812 5.5664 2.3047 1.4766 1.4766 2.3047 3.4805 2.3047 5.5664v47.23z"/>
  <path d="m211.07 462.98h-15.746v47.23c0 6.2617 2.4883 12.27 6.918 16.699 4.4297 4.4297 10.438 6.918 16.699 6.918h47.23l0.003906-15.746h-47.234c-4.3477 0-7.8711-3.5234-7.8711-7.8711z"/>
  <path d="m281.92 392.12h125.95v15.742h-125.95z"/>
  <path d="m250.43 423.61h157.44v15.742h-157.44z"/>
  <path d="m478.72 352.77h78.719v15.742h-78.719z"/>
  <path d="m447.23 352.77h15.742v15.742h-15.742z"/>
  <path d="m447.23 384.25h110.21v15.742h-110.21z"/>
  <path d="m329.15 297.66c-4.3477 0-7.8711-3.5273-7.8711-7.875h-15.742c0.019532 4.8672 1.543 9.6094 4.3594 13.578 2.8203 3.9688 6.7969 6.9688 11.383 8.5898v9.3203h15.742l0.003907-9.3203c7.0547-2.4844 12.508-8.1719 14.699-15.324 2.1914-7.1484 0.85547-14.918-3.5977-20.926-4.4531-6.0078-11.496-9.5469-18.977-9.5312-3.1836 0-6.0508-1.918-7.2695-4.8594-1.2188-2.9453-0.54688-6.3281 1.7031-8.582 2.2539-2.25 5.6406-2.9219 8.582-1.707 2.9414 1.2188 4.8594 4.0898 4.8594 7.2734h15.742c-0.019531-4.8672-1.543-9.6094-4.3594-13.574-2.8203-3.9688-6.7969-6.9688-11.383-8.5938v-9.3203h-15.746v9.3203c-7.0547 2.4883-12.508 8.1719-14.699 15.324-2.1914 7.1523-0.85547 14.918 3.5977 20.93 4.4531 6.0078 11.496 9.5469 18.973 9.5312 4.3477 0 7.875 3.5234 7.875 7.8711 0 4.3477-3.5273 7.875-7.875 7.875z"/>
  <path d="m329.15 344.89c18.793 0 36.812-7.4648 50.098-20.75 13.289-13.289 20.754-31.309 20.754-50.098s-7.4648-36.812-20.754-50.098c-13.285-13.285-31.305-20.75-50.098-20.75-18.789 0-36.809 7.4648-50.094 20.75-13.289 13.285-20.754 31.309-20.754 50.098 0.023438 18.781 7.4922 36.793 20.773 50.074 13.285 13.281 31.293 20.754 50.074 20.773zm0-125.95c14.617 0 28.633 5.8047 38.965 16.141 10.336 10.332 16.141 24.348 16.141 38.965 0 14.613-5.8047 28.629-16.141 38.965-10.332 10.332-24.348 16.137-38.965 16.137-14.613 0-28.629-5.8047-38.961-16.137-10.336-10.336-16.141-24.352-16.141-38.965 0.015625-14.609 5.8281-28.617 16.156-38.945 10.332-10.332 24.336-16.145 38.945-16.16z"/>
  <path d="m281.92 266.18h15.742v15.742h-15.742z"/>
  <path d="m360.64 266.18h15.742v15.742h-15.742z"/>
  <path d="m329.15 376.38c27.145 0 53.172-10.781 72.363-29.973 19.191-19.191 29.977-45.223 29.977-72.363s-10.785-53.172-29.977-72.363c-19.191-19.191-45.219-29.973-72.363-29.973-27.141 0-53.168 10.781-72.359 29.973-19.191 19.191-29.977 45.223-29.977 72.363 0.03125 27.133 10.824 53.141 30.008 72.328 19.188 19.184 45.199 29.977 72.328 30.008zm0-188.93c22.969 0 44.992 9.125 61.23 25.363 16.242 16.238 25.363 38.266 25.363 61.23s-9.1211 44.988-25.363 61.23c-16.238 16.238-38.262 25.359-61.23 25.359-22.965 0-44.988-9.1211-61.227-25.359-16.242-16.242-25.363-38.266-25.363-61.23 0.027344-22.957 9.1602-44.969 25.391-61.199 16.234-16.234 38.242-25.367 61.199-25.395z"/>
  <path d="m250.43 392.12h15.742v15.742h-15.742z"/>
  <path d="m250.43 455.1h157.44v15.742h-157.44z"/>
  <path d="m250.43 486.59h157.44v15.742h-157.44z"/>
 </g>
</svg>