<?xml version="1.0" encoding="UTF-8"?>
<!-- The Best Svg Icon site in the world: iconSvg.co, Visit us! https://iconsvg.co -->
<svg fill="#000000" width="800px" height="800px" version="1.1" viewBox="144 144 512 512" xmlns="http://www.w3.org/2000/svg">
 <g>
  <path d="m281.92 541.7h-94.465c-4.3477 0-7.8711 3.5234-7.8711 7.8711v15.746c0 2.0859 0.82812 4.0898 2.3047 5.5664 1.4766 1.4766 3.4805 2.3047 5.5664 2.3047h7.8711v-15.746h15.746v15.742h15.742v-15.742h15.742v15.742h15.742l0.003906-15.742h15.742v15.742h7.8711l0.003907 0.003906c2.0898 0 4.0898-0.82812 5.5664-2.3047 1.4766-1.4766 2.3047-3.4805 2.3047-5.5664v-15.746c0-2.0859-0.82812-4.0898-2.3047-5.5664s-3.4766-2.3047-5.5664-2.3047z"/>
  <path d="m281.92 620.41c2.0898 0 4.0898-0.82812 5.5664-2.3047s2.3047-3.4766 2.3047-5.5664v-15.742c0-2.0898-0.82812-4.0898-2.3047-5.5664s-3.4766-2.3086-5.5664-2.3086h-94.465c-4.3477 0-7.8711 3.5273-7.8711 7.875v15.742c0 2.0898 0.82812 4.0898 2.3047 5.5664 1.4766 1.4766 3.4805 2.3047 5.5664 2.3047h7.8711v-15.742h15.746v15.742h15.742v-15.742h15.742v15.742h15.742l0.003906-15.742h15.742v15.742z"/>
  <path d="m281.92 447.23h-94.465c-4.3477 0-7.8711 3.5234-7.8711 7.8711v15.746c0 2.0859 0.82812 4.0898 2.3047 5.5664 1.4766 1.4766 3.4805 2.3047 5.5664 2.3047h7.8711v-15.742h15.746v15.742h15.742v-15.742h15.742v15.742h15.742l0.003906-15.742h15.742v15.742h7.875c2.0898 0 4.0898-0.82812 5.5664-2.3047 1.4766-1.4766 2.3047-3.4805 2.3047-5.5664v-15.746c0-2.0859-0.82812-4.0898-2.3047-5.5664-1.4766-1.4766-3.4766-2.3047-5.5664-2.3047z"/>
  <path d="m281.92 494.46h-94.465c-4.3477 0-7.8711 3.5273-7.8711 7.875v15.742c0 2.0898 0.82812 4.0898 2.3047 5.5664 1.4766 1.4766 3.4805 2.3047 5.5664 2.3047h7.8711v-15.742h15.746v15.742h15.742v-15.742h15.742v15.742h15.742l0.003906-15.742h15.742v15.742h7.875c2.0898 0 4.0898-0.82812 5.5664-2.3047 1.4766-1.4766 2.3047-3.4766 2.3047-5.5664v-15.742c0-2.0898-0.82812-4.0898-2.3047-5.5664-1.4766-1.4766-3.4766-2.3086-5.5664-2.3086z"/>
  <path d="m447.23 494.46h-94.465c-4.3477 0-7.8711 3.5273-7.8711 7.875v15.742c0 2.0898 0.82812 4.0898 2.3047 5.5664 1.4766 1.4766 3.4805 2.3047 5.5664 2.3047h7.8711v-15.742h15.742v15.742h15.742l0.003906-15.742h15.742v15.742h15.742l0.003906-15.742h15.742v15.742h7.875c2.0898 0 4.0898-0.82812 5.5664-2.3047 1.4766-1.4766 2.3047-3.4766 2.3047-5.5664v-15.742c0-2.0898-0.82812-4.0898-2.3047-5.5664-1.4766-1.4766-3.4766-2.3086-5.5664-2.3086z"/>
  <path d="m447.23 620.41c2.0898 0 4.0898-0.82812 5.5664-2.3047s2.3047-3.4766 2.3047-5.5664v-15.742c0-2.0898-0.82812-4.0898-2.3047-5.5664s-3.4766-2.3086-5.5664-2.3086h-94.465c-4.3477 0-7.8711 3.5273-7.8711 7.875v15.742c0 2.0898 0.82812 4.0898 2.3047 5.5664 1.4766 1.4766 3.4805 2.3047 5.5664 2.3047h7.8711v-15.742h15.742v15.742h15.742l0.003906-15.742h15.742v15.742h15.742l0.003906-15.742h15.742v15.742z"/>
  <path d="m447.23 541.7h-94.465c-4.3477 0-7.8711 3.5234-7.8711 7.8711v15.746c0 2.0859 0.82812 4.0898 2.3047 5.5664 1.4766 1.4766 3.4805 2.3047 5.5664 2.3047h7.8711v-15.746h15.742v15.742h15.742l0.003906-15.742h15.742v15.742h15.742l0.003906-15.742h15.742v15.742h7.8711l0.003907 0.003906c2.0898 0 4.0898-0.82812 5.5664-2.3047 1.4766-1.4766 2.3047-3.4805 2.3047-5.5664v-15.746c0-2.0859-0.82812-4.0898-2.3047-5.5664s-3.4766-2.3047-5.5664-2.3047z"/>
  <path d="m447.23 447.23h-94.465c-4.3477 0-7.8711 3.5234-7.8711 7.8711v15.746c0 2.0859 0.82812 4.0898 2.3047 5.5664 1.4766 1.4766 3.4805 2.3047 5.5664 2.3047h7.8711v-15.742h15.742v15.742h15.742l0.003906-15.742h15.742v15.742h15.742l0.003906-15.742h15.742v15.742h7.875c2.0898 0 4.0898-0.82812 5.5664-2.3047 1.4766-1.4766 2.3047-3.4805 2.3047-5.5664v-15.746c0-2.0859-0.82812-4.0898-2.3047-5.5664-1.4766-1.4766-3.4766-2.3047-5.5664-2.3047z"/>
  <path d="m447.23 400h-94.465c-4.3477 0-7.8711 3.5234-7.8711 7.8711v15.742c0 2.0898 0.82812 4.0898 2.3047 5.5664 1.4766 1.4766 3.4805 2.3086 5.5664 2.3086h7.8711v-15.746h15.742v15.742h15.742l0.003906-15.742h15.742v15.742h15.742l0.003906-15.742h15.742v15.742h7.8711l0.003907 0.003906c2.0898 0 4.0898-0.83203 5.5664-2.3086 1.4766-1.4766 2.3047-3.4766 2.3047-5.5664v-15.742c0-2.0898-0.82812-4.0898-2.3047-5.5664-1.4766-1.4766-3.4766-2.3047-5.5664-2.3047z"/>
  <path d="m612.54 447.23h-94.465c-4.3477 0-7.8711 3.5234-7.8711 7.8711v15.746c0 2.0859 0.82812 4.0898 2.3047 5.5664 1.4766 1.4766 3.4805 2.3047 5.5664 2.3047h7.8711v-15.742h15.742v15.742h15.742l0.003906-15.742h15.742v15.742h15.742l0.003906-15.742h15.742v15.742h7.875c2.0898 0 4.0898-0.82812 5.5664-2.3047 1.4766-1.4766 2.3047-3.4805 2.3047-5.5664v-15.746c0-2.0859-0.82812-4.0898-2.3047-5.5664-1.4766-1.4766-3.4766-2.3047-5.5664-2.3047z"/>
  <path d="m612.54 541.7h-94.465c-4.3477 0-7.8711 3.5234-7.8711 7.8711v15.746c0 2.0859 0.82812 4.0898 2.3047 5.5664 1.4766 1.4766 3.4805 2.3047 5.5664 2.3047h7.8711v-15.746h15.742v15.742h15.742l0.003906-15.742h15.742v15.742h15.742l0.003906-15.742h15.742v15.742h7.8711l0.003907 0.003906c2.0898 0 4.0898-0.82812 5.5664-2.3047 1.4766-1.4766 2.3047-3.4805 2.3047-5.5664v-15.746c0-2.0859-0.82812-4.0898-2.3047-5.5664s-3.4766-2.3047-5.5664-2.3047z"/>
  <path d="m612.54 620.41c2.0898 0 4.0898-0.82812 5.5664-2.3047s2.3047-3.4766 2.3047-5.5664v-15.742c0-2.0898-0.82812-4.0898-2.3047-5.5664s-3.4766-2.3086-5.5664-2.3086h-94.465c-4.3477 0-7.8711 3.5273-7.8711 7.875v15.742c0 2.0898 0.82812 4.0898 2.3047 5.5664 1.4766 1.4766 3.4805 2.3047 5.5664 2.3047h7.8711v-15.742h15.742v15.742h15.742l0.003906-15.742h15.742v15.742h15.742l0.003906-15.742h15.742v15.742z"/>
  <path d="m612.54 494.46h-94.465c-4.3477 0-7.8711 3.5273-7.8711 7.875v15.742c0 2.0898 0.82812 4.0898 2.3047 5.5664 1.4766 1.4766 3.4805 2.3047 5.5664 2.3047h7.8711v-15.742h15.742v15.742h15.742l0.003906-15.742h15.742v15.742h15.742l0.003906-15.742h15.742v15.742h7.875c2.0898 0 4.0898-0.82812 5.5664-2.3047 1.4766-1.4766 2.3047-3.4766 2.3047-5.5664v-15.742c0-2.0898-0.82812-4.0898-2.3047-5.5664-1.4766-1.4766-3.4766-2.3086-5.5664-2.3086z"/>
  <path d="m612.54 305.54h-94.465c-4.3477 0-7.8711 3.5234-7.8711 7.8711v15.742c0 2.0898 0.82812 4.0938 2.3047 5.5664 1.4766 1.4766 3.4805 2.3086 5.5664 2.3086h7.8711v-15.746h15.742v15.742h15.742l0.003906-15.742h15.742v15.742h15.742l0.003906-15.742h15.742v15.742h7.8711l0.003907 0.003907c2.0898 0 4.0898-0.83203 5.5664-2.3086 1.4766-1.4727 2.3047-3.4766 2.3047-5.5664v-15.742c0-2.0859-0.82812-4.0898-2.3047-5.5664-1.4766-1.4766-3.4766-2.3047-5.5664-2.3047z"/>
  <path d="m612.54 352.77h-94.465c-4.3477 0-7.8711 3.5234-7.8711 7.8711v15.746c0 2.0859 0.82812 4.0898 2.3047 5.5664 1.4766 1.4766 3.4805 2.3047 5.5664 2.3047h7.8711v-15.742h15.742v15.742h15.742l0.003906-15.742h15.742v15.742h15.742l0.003906-15.742h15.742v15.742h7.875c2.0898 0 4.0898-0.82812 5.5664-2.3047 1.4766-1.4766 2.3047-3.4805 2.3047-5.5664v-15.746c0-2.0859-0.82812-4.0898-2.3047-5.5664-1.4766-1.4727-3.4766-2.3047-5.5664-2.3047z"/>
  <path d="m612.54 400h-94.465c-4.3477 0-7.8711 3.5234-7.8711 7.8711v15.742c0 2.0898 0.82812 4.0898 2.3047 5.5664 1.4766 1.4766 3.4805 2.3086 5.5664 2.3086h7.8711v-15.746h15.742v15.742h15.742l0.003906-15.742h15.742v15.742h15.742l0.003906-15.742h15.742v15.742h7.8711l0.003907 0.003906c2.0898 0 4.0898-0.83203 5.5664-2.3086 1.4766-1.4766 2.3047-3.4766 2.3047-5.5664v-15.742c0-2.0898-0.82812-4.0898-2.3047-5.5664-1.4766-1.4766-3.4766-2.3047-5.5664-2.3047z"/>
  <path d="m228.91 397.46c1.4844 1.6211 3.582 2.5391 5.7812 2.5352 1.9805 0 3.8867-0.74609 5.3438-2.0859l96.777-89.332 57.625 57.625v-0.003906c3.0742 3.0742 8.0547 3.0742 11.129 0l151.88-151.88v36.102c0 4.3477 3.5273 7.8711 7.875 7.8711s7.8711-3.5234 7.8711-7.8711v-55.105c0-2.0859-0.82812-4.0898-2.3047-5.5664-1.4766-1.4727-3.4805-2.3047-5.5664-2.3047h-55.105c-4.3477 0-7.8711 3.5234-7.8711 7.8711 0 4.3477 3.5234 7.875 7.8711 7.875h36.102l-146.31 146.31-57.41-57.41h-0.003906c-2.9844-2.9922-7.8047-3.0898-10.91-0.22266l-102.34 94.465c-3.1914 2.9531-3.3828 7.9336-0.43359 11.125z"/>
  <path d="m226.81 281.92v-7.8711c-6.2617 0-12.27-2.4883-16.699-6.918-4.4258-4.4297-6.9141-10.434-6.9141-16.699 0-4.3477 3.5234-7.8711 7.8711-7.8711 4.3477 0 7.8711 3.5234 7.8711 7.8711 0 2.0898 0.82812 4.0898 2.3047 5.5664 1.4766 1.4766 3.4805 2.3047 5.5664 2.3047h15.746c4.3477 0 7.8711-3.5234 7.8711-7.8711 0-4.3477-3.5234-7.8711-7.8711-7.8711h-15.746c-8.4375 0-16.23-4.5-20.449-11.809s-4.2188-16.309 0-23.617c4.2188-7.3047 12.012-11.809 20.449-11.809v-7.8711c0-4.3477 3.5273-7.8711 7.875-7.8711-19.688 0-37.879 10.504-47.723 27.551-9.8438 17.051-9.8438 38.055 0 55.105s28.035 27.551 47.723 27.551c-4.3477 0-7.875-3.5234-7.875-7.8711z"/>
  <path d="m234.69 179.58c2.0859 0 4.0898 0.82812 5.5664 2.3047 1.4766 1.4766 2.3047 3.4805 2.3047 5.5664v7.8711c6.2617 0 12.27 2.4883 16.699 6.918 4.4297 4.4297 6.918 10.438 6.918 16.699 0 4.3477-3.5273 7.8711-7.875 7.8711-4.3477 0-7.8711-3.5234-7.8711-7.8711 0-2.0859-0.82813-4.0898-2.3047-5.5664s-3.4805-2.3047-5.5664-2.3047h-15.746c-4.3477 0-7.8711 3.5234-7.8711 7.8711s3.5234 7.8711 7.8711 7.8711h15.746c8.4375 0 16.234 4.5039 20.453 11.809 4.2188 7.3086 4.2188 16.309 0 23.617-4.2188 7.3086-12.016 11.809-20.453 11.809v7.8711c0 2.0898-0.82812 4.0898-2.3047 5.5664-1.4766 1.4766-3.4805 2.3047-5.5664 2.3047 19.684 0 37.875-10.5 47.719-27.551s9.8438-38.055 0-55.105c-9.8438-17.047-28.035-27.551-47.719-27.551z"/>
 </g>
</svg>