<?xml version="1.0" encoding="UTF-8"?>
<!-- The Best Svg Icon site in the world: iconSvg.co, Visit us! https://iconsvg.co -->
<svg fill="#000000" width="800px" height="800px" version="1.1" viewBox="144 144 512 512" xmlns="http://www.w3.org/2000/svg">
 <g>
  <path d="m400 620.41c-58.875 0-114.23-22.926-155.86-64.559-41.633-41.629-64.559-96.98-64.559-155.86s22.926-114.23 64.559-155.86 96.98-64.559 155.86-64.559c58.875 0 114.23 22.926 155.86 64.559 41.629 41.633 64.555 96.98 64.555 155.86 0 58.875-22.926 114.23-64.559 155.86-41.629 41.629-96.98 64.555-155.86 64.555zm0-432.96c-117.2 0-212.55 95.348-212.55 212.55s95.348 212.54 212.54 212.54c117.2 0 212.54-95.348 212.54-212.54 0.003907-117.2-95.344-212.55-212.54-212.55z"/>
  <path d="m400 551.54c-2.1719 0-3.9375-1.7617-3.9375-3.9375 0-2.1719 1.7617-3.9375 3.9375-3.9375 79.219 0 143.66-64.449 143.66-143.66 0-79.219-64.449-143.66-143.66-143.66-2.1719 0-3.9375-1.7617-3.9375-3.9375 0-2.1719 1.7617-3.9375 3.9375-3.9375 83.559 0 151.54 67.98 151.54 151.54 0 83.562-67.98 151.54-151.54 151.54z"/>
  <path d="m616.48 407.87h-216.48c-2.1719 0-3.9375-1.7617-3.9375-3.9375v-220.41c0-2.1719 1.7617-3.9375 3.9375-3.9375 2.1719 0 3.9375 1.7617 3.9375 3.9375v216.48h212.54c2.1719 0 3.9375 1.7617 3.9375 3.9375-0.003907 2.1719-1.7656 3.9336-3.9375 3.9336z"/>
  <path d="m400 407.87c-1.1523 0-2.2969-0.50391-3.0742-1.4766l-133.82-167.28c-1.3594-1.6992-1.082-4.1758 0.61328-5.5312 1.6992-1.3555 4.1758-1.082 5.5312 0.61328l133.82 167.28c1.3594 1.6992 1.082 4.1758-0.61328 5.5312-0.72656 0.58203-1.5938 0.86328-2.457 0.86328z"/>
  <path d="m308.28 433.04c-0.13281-0.17578-0.51562-0.46094-1.1484-0.85547-0.63672-0.39453-1.4453-0.82031-2.4336-1.2812-0.98438-0.46094-2.082-0.89844-3.2852-1.3164-1.207-0.41797-2.4219-0.71094-3.6484-0.88672v8.9414l2.1055 0.52734c2.2344 0.61328 4.25 1.2812 6.0469 2.0039 1.7969 0.72266 3.3203 1.6211 4.5703 2.6914 1.25 1.0742 2.2109 2.3789 2.8906 3.9141 0.67969 1.5352 1.0195 3.375 1.0195 5.5195 0 2.5-0.4375 4.625-1.3164 6.375-0.875 1.7539-2.0469 3.1875-3.5156 4.3047-1.4688 1.1172-3.1562 1.9609-5.0625 2.5312-1.9062 0.57031-3.9102 0.89844-6.0156 0.98828v7.625h-4.5352v-7.6914c-3.0234-0.26562-6.0156-0.875-8.9727-1.8398s-5.6211-2.2344-7.9844-3.8125l4.7305-9.3984c0.17578 0.22266 0.64844 0.58203 1.4141 1.0859s1.7422 1.0312 2.9258 1.5781 2.5195 1.0742 4.0117 1.5781c1.4883 0.50391 3.0234 0.86328 4.6016 1.0859v-8.7422l-3.1562-0.92188c-2.1484-0.65625-4.0117-1.3711-5.5859-2.1367-1.5781-0.76562-2.8828-1.6523-3.9102-2.6602-1.0312-1.0078-1.7969-2.168-2.3008-3.4844-0.50391-1.3125-0.75391-2.8477-0.75391-4.6016 0-2.2773 0.39453-4.3047 1.1836-6.082 0.78906-1.7734 1.8516-3.2969 3.1875-4.5703 1.3359-1.2695 2.9141-2.2656 4.7305-2.9883 1.8164-0.72266 3.7773-1.1953 5.8828-1.4141v-6.6406h4.5352v6.6406c2.8477 0.26562 5.5195 0.89844 8.0195 1.9062 2.4961 1.0078 4.668 2.0352 6.5078 3.0898zm-18.207-0.59375c0 1.0938 0.38281 1.9609 1.1484 2.5977s1.918 1.1953 3.4492 1.6758v-8.082c-3.0625 0.25781-4.5977 1.5312-4.5977 3.8086zm12.754 20.902c0-1.1406-0.46094-2.0273-1.3789-2.6602-0.92188-0.63672-2.1484-1.2148-3.6797-1.7422v7.8906c3.3711-0.13672 5.0586-1.2969 5.0586-3.4883z"/>
  <path d="m295.7 496.43c-29.301 0-53.137-23.836-53.137-53.137 0-29.297 23.836-53.137 53.137-53.137 29.301 0 53.137 23.836 53.137 53.137s-23.84 53.137-53.137 53.137zm0-98.398c-24.957 0-45.266 20.305-45.266 45.266 0 24.957 20.305 45.266 45.266 45.266 24.957 0 45.266-20.305 45.266-45.266-0.003907-24.961-20.309-45.266-45.266-45.266z"/>
 </g>
</svg>