<?xml version="1.0" encoding="UTF-8"?>
<!-- The Best Svg Icon site in the world: iconSvg.co, Visit us! https://iconsvg.co -->
<svg fill="#000000" width="800px" height="800px" version="1.1" viewBox="144 144 512 512" xmlns="http://www.w3.org/2000/svg">
 <g>
  <path d="m611.29 191.13s0-0.003906-0.003907-0.011718c0-0.011719-0.011718-0.039063-0.015624-0.046876-0.019532-0.074218-0.058594-0.13672-0.089844-0.21094-0.054688-0.14062-0.10547-0.28125-0.17578-0.41406-0.054687-0.10547-0.12109-0.19531-0.1875-0.29297-0.066406-0.097656-0.12109-0.19531-0.19531-0.28906-0.082031-0.097656-0.16797-0.17578-0.25-0.25781s-0.15625-0.16016-0.24219-0.23828c-0.10156-0.082032-0.20703-0.14063-0.3125-0.21094-0.089843-0.058594-0.17187-0.12109-0.27344-0.17578-0.13672-0.074219-0.28125-0.13281-0.42969-0.1875-0.070313-0.023438-0.125-0.058594-0.19531-0.085938-0.003906 0-0.03125-0.011719-0.046875-0.015625-0.003906 0-0.011719 0-0.015625-0.003906-2.1055-0.64844-39.293-11.617-97.977 7.4531-34.512 11.215-69.34 30.586-103.51 57.59-2.0391 1.6133-4.0859 3.2656-6.1211 4.9336-37.285 2.1797-130.34 18.223-215.17 117.75-0.80078 0.9375-1.0625 2.2227-0.69531 3.3945l13.113 41.957c0.35938 1.1445 1.2578 2.0312 2.4141 2.3711l64.035 18.844 5.4531 5.4531c-2.8984 0.625-5.5625 2.0508-7.6992 4.1914-6.0742 6.0742-6.0742 15.961 0 22.035l62.609 62.613c2.9375 2.9336 6.8477 4.5508 11.023 4.5508 4.1758 0 8.082-1.6172 11.02-4.5508 2.1914-2.1914 3.5781-4.875 4.1914-7.6992l5.4609 5.4609 18.844 64.027c0.33594 1.1484 1.2305 2.0508 2.3711 2.4141l41.957 13.121c0.35156 0.10547 0.71484 0.16016 1.0742 0.16016 0.83984 0 1.668-0.29688 2.3281-0.85547 99.531-84.832 115.57-177.89 117.75-215.19 1.6641-2.0352 3.3086-4.0703 4.9258-6.1094 26.992-34.18 46.371-69 57.586-103.51 19.062-58.691 8.0938-95.883 7.4453-97.969zm-406.51 226.69-11.949-38.23c75.926-88.23 158.01-108.55 198.91-112.92-36.746 31.73-72.727 72.398-107.18 121.16-1.1992-0.29297-2.4453-0.45703-3.7148-0.45703-4.1719 0-8.082 1.6172-11.02 4.5508-2.9375 2.9336-4.5508 6.8477-4.5508 11.02 0 0.49219 0.023437 0.98438 0.070312 1.4648-0.48438-0.046875-0.97266-0.070313-1.4648-0.070313-4.1719 0-8.0859 1.6133-11.023 4.5508-6.0742 6.0742-6.0742 15.961 0 22.035l1.4805 1.4844zm200.67 101.33c0 2.2539-0.87109 4.3633-2.4492 5.9492-1.5781 1.5781-3.6875 2.4453-5.9453 2.4453-2.2539 0-4.3633-0.86719-5.9414-2.4453l-0.003907-0.003906-116.21-116.21c-1.5781-1.5781-2.4492-3.6875-2.4492-5.9453 0-2.2578 0.86719-4.3672 2.4492-5.9453 1.582-1.5781 3.6914-2.4492 5.9453-2.4492 2.2578 0 4.3672 0.86719 5.9453 2.4492l116.21 116.21c1.582 1.582 2.4531 3.6953 2.4531 5.9492zm-19.414 22.914c-1.5781 1.5781-3.6875 2.4453-5.9453 2.4453s-4.3672-0.87109-5.9453-2.4453l-26.773-26.773c-0.011719-0.011718-0.015625-0.019531-0.023438-0.03125l-62.609-62.609c-0.015626-0.019531-0.03125-0.03125-0.046876-0.046875l-26.758-26.758c-3.2734-3.2734-3.2734-8.6133 0-11.891 1.5781-1.5781 3.6875-2.4492 5.9453-2.4492 2.2578 0 4.3672 0.87109 5.9453 2.4492l116.21 116.21s0.003906 0 0.003906 0.003906c3.2773 3.2891 3.2773 8.6211 0 11.898zm-43.762-9.8359c-1.5781 1.5781-3.6875 2.4453-5.9453 2.4453-2.2578 0-4.3672-0.86719-5.9453-2.4453l-62.613-62.613c-3.2812-3.2812-3.2812-8.6133 0-11.891 1.5781-1.5781 3.6875-2.4492 5.9453-2.4492 2.2383 0 4.3281 0.85547 5.8984 2.4102l62.68 62.676c3.2617 3.2773 3.25 8.5938-0.019531 11.867zm78.141 74.949-38.23-11.949-14.59-49.566 1.4766 1.4766c2.9375 2.9336 6.8477 4.5508 11.023 4.5508 4.1758 0 8.0859-1.6172 11.02-4.5508 3.4102-3.4102 4.9062-8.0273 4.4883-12.488 0.48438 0.046875 0.96875 0.074219 1.4609 0.074219 4.1719 0 8.0859-1.6172 11.02-4.5508 2.9375-2.9375 4.5508-6.8477 4.5508-11.023 0-1.2695-0.16797-2.5078-0.45703-3.707 48.77-34.465 89.438-70.441 121.17-107.2-4.3789 40.902-24.691 123-112.93 198.93zm176.6-320.28c-17.133 52.734-63.715 133.94-188.16 222.09-0.25-0.29297-0.50781-0.58594-0.78125-0.86328l-116.21-116.21c-0.27734-0.27734-0.57031-0.52734-0.86328-0.78125 87.91-124.08 168.89-170.71 221.48-187.96 49.906-16.359 84.281-10.035 92.434-8.0977 1.9414 8.0938 8.2539 42.074-7.9023 91.812z"/>
  <path d="m281 513.93-29.402 29.406c-1.4023 1.4023-1.4023 3.6719 0 5.0742 0.69922 0.70703 1.6172 1.0547 2.5391 1.0547 0.91797 0 1.832-0.34766 2.5352-1.0547l29.402-29.406c1.4023-1.3945 1.4023-3.6719 0-5.0742-1.4023-1.4023-3.6719-1.4023-5.0742 0z"/>
  <path d="m267.71 500.63-29.402 29.406c-1.4023 1.4023-1.4023 3.6719 0 5.0742 0.69922 0.70703 1.6172 1.0547 2.5352 1.0547 0.91797 0 1.8398-0.34766 2.5352-1.0547l29.406-29.406c1.4023-1.4023 1.4023-3.6719 0-5.0742-1.4023-1.3984-3.6758-1.3984-5.0742 0z"/>
  <path d="m254.42 487.35-29.402 29.406c-1.4023 1.3945-1.4023 3.6719 0 5.0742 0.69922 0.69922 1.6172 1.0547 2.5352 1.0547 0.91797 0 1.8398-0.35156 2.5352-1.0547l29.406-29.406c1.4023-1.4023 1.4023-3.6719 0-5.0742s-3.668-1.4023-5.0742 0z"/>
  <path d="m307.58 540.5-29.406 29.406c-1.4023 1.4023-1.4023 3.6719 0 5.0742 0.69922 0.70703 1.6211 1.0547 2.5391 1.0547 0.91797 0 1.832-0.34766 2.5352-1.0547l29.406-29.406c1.4023-1.3945 1.4023-3.6719 0-5.0742-1.3984-1.3984-3.668-1.3984-5.0742 0z"/>
  <path d="m264.89 561.69c0.69922 0.69922 1.6172 1.0469 2.5352 1.0469s1.8398-0.34766 2.5352-1.0469l29.406-29.406c1.4023-1.3945 1.4023-3.6719 0-5.0742-1.4023-1.3945-3.6719-1.4023-5.0742 0l-29.406 29.406c-1.3984 1.4023-1.3984 3.6719 0.003907 5.0742z"/>
  <path d="m246.35 553.65c-1.4023-1.3945-3.6719-1.3945-5.0742 0l-7.3516 7.3555c-1.4023 1.4023-1.4023 3.6719 0 5.0742 0.69922 0.69922 1.6172 1.0469 2.5352 1.0469 0.91797 0 1.832-0.34766 2.5352-1.0469l7.3516-7.3516c1.4062-1.4023 1.4062-3.6758 0.003906-5.0781z"/>
  <path d="m220.64 552.79c0.69922 0.69922 1.6172 1.0469 2.5352 1.0469s1.8398-0.34766 2.5352-1.0469l7.3516-7.3555c1.4023-1.3945 1.4023-3.6719 0-5.0742s-3.6719-1.4023-5.0742 0l-7.3516 7.3555c-1.4023 1.3945-1.4023 3.6719 0.003907 5.0742z"/>
  <path d="m214.7 527.07-7.3516 7.3555c-1.4023 1.4023-1.4023 3.6719 0 5.0742 0.69922 0.69922 1.6172 1.0469 2.5352 1.0469 0.91797 0 1.8398-0.34766 2.5352-1.0469l7.3516-7.3555c1.4023-1.4023 1.4023-3.6719 0-5.0742-1.3984-1.3984-3.6719-1.4023-5.0703 0z"/>
  <path d="m267.86 580.23-7.3516 7.3516c-1.4023 1.3945-1.4023 3.6719 0 5.0742 0.69922 0.69922 1.6172 1.0469 2.5352 1.0469 0.91797 0 1.8398-0.34766 2.5352-1.0469l7.3516-7.3516c1.4023-1.4023 1.4023-3.6719 0-5.0742-1.3984-1.3984-3.6641-1.3984-5.0703 0z"/>
  <path d="m249.75 580.42c0.91797 0 1.8398-0.35156 2.5391-1.0547l7.3516-7.3516c1.4023-1.4023 1.4023-3.6719 0-5.0781-1.4023-1.3945-3.6719-1.3945-5.0742 0l-7.3516 7.3555c-1.4023 1.3945-1.4023 3.6719 0 5.0742 0.70312 0.70312 1.6211 1.0547 2.5352 1.0547z"/>
  <path d="m229.1 570.9c-1.4023-1.4023-3.6719-1.4023-5.0742 0l-7.3516 7.3516c-1.4023 1.4023-1.4023 3.6719 0 5.0742 0.69922 0.70703 1.6172 1.0547 2.5352 1.0547 0.91797 0 1.832-0.34766 2.5352-1.0547l7.3516-7.3516c1.4023-1.4023 1.4023-3.6758 0.003906-5.0742z"/>
  <path d="m215.82 557.61c-1.4023-1.4023-3.6719-1.4023-5.0742 0l-7.3516 7.3516c-1.4023 1.4023-1.4023 3.6719 0 5.0781 0.69922 0.69922 1.6172 1.0469 2.5352 1.0469s1.832-0.34766 2.5352-1.0469l7.3516-7.3555c1.3984-1.4062 1.3984-3.6719 0.003906-5.0742z"/>
  <path d="m202.52 544.32c-1.4023-1.4023-3.6719-1.4023-5.0742 0l-7.3516 7.3516c-1.4023 1.4023-1.4023 3.6719 0 5.0742 0.69922 0.70703 1.6172 1.0547 2.5352 1.0547 0.91797 0 1.832-0.34766 2.5352-1.0547l7.3516-7.3516c1.4062-1.4023 1.4062-3.6758 0.003907-5.0742z"/>
  <path d="m250.61 597.48-7.3516 7.3555c-1.4023 1.4023-1.4023 3.6719 0 5.0742 0.69922 0.69922 1.6172 1.0469 2.5352 1.0469 0.92188 0 1.8398-0.34766 2.5391-1.0469l7.3516-7.3555c1.4023-1.4023 1.4023-3.6719 0-5.0742-1.4023-1.4023-3.6758-1.4023-5.0742 0z"/>
  <path d="m242.39 584.19c-1.4023-1.4023-3.6719-1.4023-5.0742 0l-7.3516 7.3555c-1.4023 1.3945-1.4023 3.6719 0 5.0742 0.69922 0.69922 1.6172 1.0469 2.5352 1.0469s1.832-0.34766 2.5352-1.0469l7.3516-7.3555c1.4062-1.4023 1.4062-3.668 0.003906-5.0742z"/>
  <path d="m526.44 280.06 4.2266-4.2266c1.4023-1.4023 1.4023-3.6719 0-5.0742-1.3945-1.4023-3.6719-1.4023-5.0742 0l-4.2891 4.2812c-6.6445-5.5312-16.566-5.1836-22.801 1.0469-6.6055 6.6055-6.6055 17.355 0.003906 23.961l1.4297 1.4297c3.8086 3.8086 3.8086 10.012 0 13.82-3.8086 3.8086-10 3.8086-13.809 0.003907-0.003906 0-0.003906-0.003907-0.003906-0.003907-0.003906 0-0.003906-0.003906-0.011719-0.003906l-9.4375-9.4375c-1.4023-1.4023-3.6719-1.4023-5.0742 0-1.4023 1.4023-1.4023 3.6719 0 5.0742l6.9062 6.9062-4.2305 4.2266c-1.4023 1.4023-1.4023 3.6719 0 5.0742 0.69922 0.69922 1.6172 1.0469 2.5391 1.0469 0.91797 0 1.832-0.34766 2.5352-1.0469l4.5078-4.5078c2.7852 1.793 5.9766 2.6953 9.168 2.6953 4.3359 0 8.6797-1.6523 11.98-4.957 6.6094-6.6055 6.6094-17.355 0-23.961l-1.4297-1.4375c-3.8086-3.8086-3.8086-10.004 0-13.816 3.8086-3.8086 10.004-3.8086 13.816 0l9.4453 9.4453c1.4023 1.4023 3.6719 1.4023 5.0742 0 1.4023-1.4023 1.4023-3.6719 0-5.0742z"/>
  <path d="m501.76 245.71c-28.965 0-52.527 23.562-52.527 52.527s23.562 52.527 52.527 52.527c28.965 0 52.527-23.562 52.527-52.527s-23.559-52.527-52.527-52.527zm0 97.879c-25.008 0-45.352-20.348-45.352-45.352 0-25.008 20.344-45.352 45.352-45.352 25.008 0 45.352 20.344 45.352 45.352s-20.344 45.352-45.352 45.352z"/>
 </g>
</svg>