<?xml version="1.0" encoding="UTF-8"?>
<!-- The Best Svg Icon site in the world: iconSvg.co, Visit us! https://iconsvg.co -->
<svg fill="#000000" width="800px" height="800px" version="1.1" viewBox="144 144 512 512" xmlns="http://www.w3.org/2000/svg">
 <g>
  <path d="m402.18 446.65h-4.3789c-13.984 0-25.363-11.383-25.363-25.363 0-13.984 11.375-25.363 25.363-25.363h28.852c1.9297 0 3.4883-1.5625 3.4883-3.4922 0-1.9297-1.5625-3.4922-3.4883-3.4922h-20.98v-17.18c0-1.9297-1.5664-3.4922-3.4922-3.4922-1.9258 0-3.4922 1.5664-3.4922 3.4922v17.18h-0.88672c-17.836 0-32.344 14.516-32.344 32.344 0 17.836 14.508 32.344 32.344 32.344h4.3789c13.98 0 25.367 11.383 25.367 25.363 0 13.977-11.371 25.348-25.34 25.363h-0.023438-0.03125-28.824c-1.9297 0-3.4922 1.5664-3.4922 3.4883 0 1.9336 1.5625 3.4961 3.4922 3.4961h25.363v17.18c0 1.9297 1.5625 3.4883 3.4922 3.4883s3.4922-1.5625 3.4922-3.4883v-17.371c16.199-1.7539 28.859-15.504 28.859-32.156-0.003906-17.836-14.52-32.34-32.355-32.34z"/>
  <path d="m400 340.93c-60.219 0-109.21 48.992-109.21 109.21s48.992 109.21 109.21 109.21 109.21-48.992 109.21-109.21c-0.003906-60.223-48.992-109.21-109.21-109.21zm0 211.44c-56.367 0-102.23-45.867-102.23-102.23s45.863-102.23 102.23-102.23c56.367 0 102.23 45.863 102.23 102.23 0 56.367-45.863 102.23-102.23 102.23z"/>
  <path d="m622.57 361.34c-5.7031-29.07-20.992-52.934-44.219-69.027-21.41-14.832-48.68-22.672-78.855-22.672-21.922 0-44.891 4.2969-66.414 12.414-3.4102 1.2656-6.75 2.625-10.02 4.0703 4.0352-7.3164 8.2109-15.996 12.551-25.008 10.816-22.469 23.074-47.941 36.23-58.516 4.8047-4.0195 7.0977-9.3008 6.6289-15.27-0.45703-5.9141-3.6719-10.934-9.043-14.113l-16.488-9.8945c-4.9023-2.9219-10.242-3.793-15.996-2.5-5.7227 1.3516-10.168 4.5664-12.816 9.2539-7.1133 12.105-13.527 31.555-19.039 51.863-4.1875-16.668-12.48-29.441-24.789-38.09-12.277-8.6133-28.32-12.988-47.672-12.988-23.809 0-43.953 6.6133-44.793 6.8984-0.875 0.29297-1.6016 0.92188-2.0195 1.7539-0.41797 0.82812-0.48438 1.7891-0.1875 2.6641 0.24609 0.74219 6.207 18.383 18.695 36.293 16.832 24.141 37.488 36.898 59.738 36.902h0.003906c11.215 0 22.945-3.2148 34.953-9.543-0.83984 3.4961-1.6484 6.9492-2.4219 10.309-0.015625 0.066406-0.03125 0.13281-0.046875 0.20703-0.035156 0.23047-3.7969 21.977-11.512 33.609-5.7539-2.9219-11.84-5.5781-18.113-7.9102-21.531-8.125-44.508-12.426-66.426-12.426-30.18 0-57.449 7.8398-78.855 22.672-23.219 16.086-38.512 39.957-44.219 69.031-17.41 89.008 56.93 177.35 116.67 248.33 3.0938 3.6797 6.1445 7.3047 9.1484 10.891 11.035 13.09 22.324 19.191 35.535 19.191 10.398 0 20.75-2.9219 32.742-6.293 4.4102-1.2383 8.957-2.5234 13.742-3.7188 5.0195-1.2656 9.9688-2.3086 14.738-3.1172 4.7656 0.8125 9.7305 1.8555 14.746 3.1172 4.7773 1.1953 9.3359 2.4805 13.738 3.7188 11.984 3.3711 22.344 6.293 32.738 6.293 13.203 0 24.496-6.1016 35.539-19.199 2.9961-3.5781 6.0508-7.2109 9.1406-10.887 59.734-70.961 134.07-159.29 116.67-248.31zm-258.51-112.93c-42.059-0.003906-65.102-51.23-70.547-65.043 6.6484-1.8438 22.035-5.5117 39.117-5.5117 41.039 0 63.914 19.875 68.016 59.086-12.742 7.6094-25.035 11.469-36.586 11.469zm136.5 356.75c-3.0938 3.6836-6.1562 7.3164-9.1445 10.887-9.7422 11.559-19.051 16.707-30.191 16.707-9.4375 0-19.355-2.7969-30.848-6.0312-4.4531-1.2539-9.0586-2.5547-13.93-3.7695-5.3945-1.3672-10.734-2.4805-15.871-3.332-0.19141-0.03125-0.37891-0.046875-0.57031-0.046875s-0.38281 0.015625-0.57031 0.046875c-5.1328 0.85156-10.473 1.9688-15.871 3.3242-4.875 1.2188-9.4805 2.5195-13.934 3.7734-11.492 3.2383-21.41 6.0312-30.848 6.0312-11.145 0-20.453-5.1484-30.188-16.695-3.0039-3.582-6.0547-7.2148-9.1523-10.898-58.781-69.84-131.93-156.75-115.16-242.48 10.418-53.086 54.949-86.066 116.22-86.066 21.09 0 43.207 4.1406 63.98 11.98 6.9844 2.5938 13.699 5.5977 19.961 8.9258 1.4727 0.78125 3.2852 0.41797 4.3359-0.87109 9.3555-11.422 13.805-34.422 14.586-38.938l0.03125 0.011718c6.8477-29.617 16.078-65.949 26.773-84.156 1.6992-3.0039 4.5898-5.0586 8.332-5.9414 3.9258-0.88672 7.4648-0.33203 10.848 1.6836l16.5 9.8984c3.4141 2.0234 5.3711 5.0195 5.6523 8.6602 0.29297 3.7266-1.0664 6.793-4.0977 9.3242-14.332 11.527-26.957 37.75-38.098 60.891-6.5078 13.527-12.66 26.305-18.27 34.359-0.92578 1.3242-0.81641 3.1016 0.25 4.3086 1.0742 1.2031 2.832 1.5273 4.2539 0.76562 6.2578-3.3242 12.973-6.3281 19.98-8.9336 20.758-7.8359 42.879-11.969 63.957-11.969 61.277 0 105.81 32.973 116.22 86.062 16.785 85.738-56.375 172.66-115.15 242.49z"/>
 </g>
</svg>