<?xml version="1.0" encoding="UTF-8"?>
<!-- The Best Svg Icon site in the world: iconSvg.co, Visit us! https://iconsvg.co -->
<svg fill="#000000" width="800px" height="800px" version="1.1" viewBox="144 144 512 512" xmlns="http://www.w3.org/2000/svg">
 <g>
  <path d="m433.45 329.45c29.238-4.8789 45.113-21.523 45.113-48.137h0.003906c0-8.5977-3.7148-16.773-10.184-22.434-6.4688-5.6562-15.07-8.2461-23.586-7.1016-8.5195 1.1406-16.133 5.9102-20.879 13.074-5.5156-8.332-14.844-13.34-24.836-13.34s-19.32 5.0078-24.836 13.34c-4.75-7.1641-12.359-11.934-20.879-13.074-8.5195-1.1445-17.117 1.4453-23.586 7.1016-6.4727 5.6602-10.184 13.836-10.184 22.434 0 26.617 15.879 43.297 45.113 48.137-42.391 20.625-74.918 75.508-74.918 120.77 0 64.07 38.809 99.352 109.29 99.352 70.477 0 109.29-35.281 109.29-99.352-0.003907-45.258-32.531-100.14-74.922-120.77zm17.789-63.039c4.1172 0 7.4531 2.2266 7.4531 4.9688 0 2.7383-3.3359 4.9688-7.4531 4.9688s-7.4531-2.2188-7.4531-4.9688 3.3398-4.9688 7.457-4.9688zm0.71875 228.05h-103.91c-5.5781 0-10.738-2.9531-13.566-7.7578-2.8281-4.8086-2.9023-10.754-0.19531-15.629l51.957-93.535c1.8242-3.2969 4.7695-5.8281 8.3008-7.1406 3.5312-1.3086 7.418-1.3086 10.949 0 3.5312 1.3125 6.4766 3.8438 8.3008 7.1406l51.957 93.535c2.7109 4.8828 2.6328 10.832-0.20312 15.641-2.8359 4.8086-8.0078 7.7578-13.59 7.7461zm-52.875-153.5c-31.723 0-61.621 18.207-81.215 48.359 17.672-30.566 51.414-58.047 81.215-58.047 29.805 0 63.543 27.48 81.215 58.047-19.594-30.18-49.492-48.359-81.215-48.359z"/>
  <path d="m620.41 360.64-19.57-0.078125c-5.1992-26.742-15.766-52.156-31.055-74.703l13.895-13.902c2.9531-2.9531 4.6094-6.957 4.6094-11.133 0-4.1758-1.6562-8.1797-4.6094-11.129l-33.391-33.379c-3-2.8633-6.9883-4.4609-11.133-4.4609-4.1445 0-8.1328 1.5977-11.133 4.4609l-13.883 13.816c-22.582-15.262-48.023-25.781-74.785-30.922v-19.625c0-4.1758-1.6602-8.1797-4.6133-11.133s-6.957-4.6133-11.133-4.6133h-47.23c-4.1758 0-8.1797 1.6602-11.133 4.6133s-4.6133 6.957-4.6133 11.133l-0.070313 19.578c-26.746 5.1914-52.164 15.754-74.711 31.047l-13.887-13.895c-3-2.8633-6.9844-4.4609-11.133-4.4609-4.1445 0-8.1328 1.5977-11.129 4.4609l-33.395 33.395c-2.9531 2.9531-4.6094 6.957-4.6094 11.129 0 4.1758 1.6562 8.1797 4.6094 11.133l13.809 13.887c-15.254 22.582-25.77 48.023-30.914 74.781h-19.625c-4.1758 0-8.1797 1.6602-11.133 4.6133s-4.6133 6.957-4.6133 11.133v47.23c0 4.1758 1.6602 8.1797 4.6133 11.133s6.957 4.6133 11.133 4.6133l19.57 0.078125c5.1992 26.742 15.766 52.156 31.055 74.707l-13.895 13.883c-2.9531 2.9531-4.6094 6.957-4.6094 11.133 0 4.1758 1.6562 8.1797 4.6094 11.133l33.395 33.395v-0.003906c2.9961 2.8633 6.9844 4.4648 11.129 4.4648 4.1484 0 8.1328-1.6016 11.133-4.4648l13.887-13.816c22.578 15.262 48.02 25.781 74.781 30.922v19.625c0 4.1758 1.6602 8.1797 4.6133 11.133s6.957 4.6133 11.133 4.6133h47.23c4.1758 0 8.1797-1.6602 11.133-4.6133s4.6133-6.957 4.6133-11.133l0.070313-19.578c26.746-5.1914 52.164-15.754 74.715-31.047l13.902 13.895h-0.003906c3 2.8633 6.9883 4.4648 11.133 4.4648s8.1328-1.6016 11.133-4.4648l33.395-33.395-0.003906 0.003907c2.9531-2.9531 4.6094-6.957 4.6094-11.133 0-4.1758-1.6562-8.1797-4.6094-11.133l-13.824-13.883c15.254-22.586 25.77-48.023 30.914-74.785h19.625c4.1758 0 8.1797-1.6602 11.133-4.6133s4.6133-6.957 4.6133-11.133v-47.23c0-4.1758-1.6602-8.1797-4.6133-11.133s-6.957-4.6133-11.133-4.6133zm-220.41 204.68c-43.844 0-85.895-17.418-116.89-48.422-31.004-31-48.418-73.047-48.418-116.89s17.414-85.895 48.418-116.89c31-31.004 73.051-48.418 116.89-48.418s85.891 17.414 116.89 48.418c31.004 31 48.422 73.051 48.422 116.89-0.050781 43.828-17.484 85.844-48.477 116.84-30.992 30.992-73.008 48.426-116.84 48.477z"/>
  <path d="m400 400c-4.3477 0-7.875 3.5234-7.875 7.8711v39.359c0 4.3477 3.5273 7.8711 7.875 7.8711s7.8711-3.5234 7.8711-7.8711v-39.359c0-2.0898-0.82812-4.0898-2.3047-5.5664-1.4766-1.4766-3.4805-2.3047-5.5664-2.3047z"/>
  <path d="m407.87 470.85c0 4.3477-3.5234 7.8711-7.8711 7.8711s-7.875-3.5234-7.875-7.8711 3.5273-7.8711 7.875-7.8711 7.8711 3.5234 7.8711 7.8711"/>
 </g>
</svg>