<?xml version="1.0" encoding="UTF-8"?>
<!-- The Best Svg Icon site in the world: iconSvg.co, Visit us! https://iconsvg.co -->
<svg fill="#000000" width="800px" height="800px" version="1.1" viewBox="144 144 512 512" xmlns="http://www.w3.org/2000/svg">
 <g>
  <path d="m305.54 431.88c0-4.3477-3.5195-7.8711-7.8711-7.8711h-15.742l-0.003906-113.67h15.742c4.3516 0 7.8711-3.5234 7.8711-7.8711s-3.5195-7.8711-7.8711-7.8711h-23.617c-4.3516 0-7.8711 3.5234-7.8711 7.8711v129.41c0 4.3477 3.5195 7.8711 7.8711 7.8711h23.617c4.3516 0 7.875-3.5234 7.875-7.8711z"/>
  <path d="m326.55 447.23h131.15c8.2734 0 16.25-1.6523 23.641-4.8828 22.316-9.5273 36.738-31.523 36.738-56.047v-39.828c0-23.48-13.438-44.434-33.699-54.539-1.1172-2.3672-3.2656-4.1875-6.0508-4.5234 0 0-6.6953-0.80859-12.539-1.2812l-2.1133-0.22656c-0.015625 0-0.097656-0.007813-0.14062-0.011719l-0.074218-0.007813c-0.72656-0.058593-1.4062-0.10937-1.9766-0.13672-0.44141-0.027344-0.77344-0.035156-0.84766-0.015625-1.1602-0.10938-2.1992-0.11719-2.9375-0.11719l-91.562 0.003907-6.1211-18.098-4.4648-14.039c-3.8047-12 0.22266-22.945 5.9102-28.465 2.8359-2.7617 7.4805-5.6094 13.238-3.5938l40.344 18.367c2.0898 0.96094 4.4961 0.96484 6.5898 0.003907l38.852-17.863c6.1562-2.7891 11.039-0.20703 14.055 2.4531 5.957 5.2656 10.578 16.625 6.6094 29.297l-5.2344 18.184c-1.1992 4.1797 1.207 8.5391 5.3906 9.7422 4.1992 1.2344 8.5469-1.2148 9.7383-5.3867l5.1797-18.008c5.2344-16.707 0.71484-35.043-11.262-45.625-8.918-7.8867-20.496-9.75-31.027-4.9766l-27.613 12.695c7.8867-18.207 1.5664-40.191-14.883-50.184l-6.6172-4.793c-2.0234-1.457-4.6211-1.8867-6.9805-1.1289-2.375 0.74609-4.2578 2.5703-5.0742 4.9258-2.8203 8.1172-8.8711 20.34-17.938 36.281-8.6719-1.25-17.461 1.6445-24.336 8.3203-11.176 10.859-15.082 28.332-9.9766 44.422l0.39453 1.1914c-11.594 16.875-20.641 29.402-20.734 29.535-0.96875 1.3398-1.4922 2.957-1.4922 4.6133v145.87c-0.003906 4.3477 3.5156 7.8711 7.8672 7.8711zm77.199-263.34c10.109 6.9219 13.422 21.105 7.3125 32.254l-1.5977 2.9297-19.273-8.832c5.7773-10.301 10.316-19.113 13.559-26.352zm-69.324 112.13c2.2305-3.1133 6.7969-9.5195 12.586-17.824l6.0195 17.809c1.082 3.1992 4.082 5.3516 7.457 5.3516h97.215c0.36719 0.023438 0.89062-0.007812 2.207 0.082031 0.73828 0 1.5391 0.074219 2.5586 0.16406l1.4805 0.15625c1.8672 0.26953 3.6016 0.59766 5.3164 1.0586 19.469 5.2578 33.07 23.207 33.07 43.648v39.828c0 18.203-10.672 34.52-27.238 41.594-5.4492 2.3867-11.309 3.5938-17.398 3.5938h-123.27z"/>
  <path d="m503.88 449.99c-2.8203-3.3086-7.8047-3.6836-11.102-0.86328-3.2969 2.8242-3.6914 7.7969-0.85938 11.098 17.359 20.293 26.16 39.758 26.16 57.855 0 58.34-47.379 102.34-110.21 102.34-62.832 0-110.21-43.996-110.21-102.34 0-16.516 7.3789-34.246 21.926-52.699 2.6914-3.4141 2.1055-8.3633-1.3086-11.055-3.4141-2.6836-8.3633-2.1055-11.055 1.3086-16.789 21.297-25.309 42.305-25.309 62.445 0 67.316 54.152 118.08 125.95 118.08 71.801 0 125.95-50.766 125.95-118.08 0-21.953-10.07-44.867-29.945-68.09z"/>
  <path d="m400 494.46v78.719c0 4.3477 3.5195 7.8711 7.8711 7.8711 4.3516 0 7.8711-3.5234 7.8711-7.8711v-78.719c0-4.3477-3.5195-7.8711-7.8711-7.8711-4.3516 0-7.8711 3.5234-7.8711 7.8711z"/>
  <path d="m352.77 525.95v47.23c0 4.3477 3.5195 7.8711 7.8711 7.8711 4.3516 0 7.8711-3.5234 7.8711-7.8711v-47.23c0-4.3477-3.5195-7.8711-7.8711-7.8711-4.3477-0.003906-7.8711 3.5234-7.8711 7.8711z"/>
  <path d="m447.23 510.21v62.977c0 4.3477 3.5195 7.8711 7.8711 7.8711 4.3516 0 7.8711-3.5234 7.8711-7.8711v-62.977c0-4.3477-3.5195-7.8711-7.8711-7.8711-4.3516 0-7.8711 3.5234-7.8711 7.8711z"/>
 </g>
</svg>