<?xml version="1.0" encoding="UTF-8"?>
<!-- The Best Svg Icon site in the world: iconSvg.co, Visit us! https://iconsvg.co -->
<svg fill="#000000" width="800px" height="800px" version="1.1" viewBox="144 144 512 512" xmlns="http://www.w3.org/2000/svg">
 <path d="m541.7 179.58h-283.39c-20.875 0-40.898 8.293-55.664 23.055-14.762 14.766-23.055 34.789-23.055 55.664v283.39c0 20.879 8.293 40.898 23.055 55.664 14.766 14.762 34.789 23.055 55.664 23.055h283.39c20.879 0 40.898-8.293 55.664-23.055 14.762-14.766 23.055-34.785 23.055-55.664v-283.39c0-20.875-8.293-40.898-23.055-55.664-14.766-14.762-34.785-23.055-55.664-23.055zm47.23 362.11c0 12.527-4.9766 24.539-13.832 33.398-8.8594 8.8555-20.871 13.832-33.398 13.832h-283.39c-12.527 0-24.539-4.9766-33.398-13.832-8.8555-8.8594-13.832-20.871-13.832-33.398v-283.39c0-12.527 4.9766-24.539 13.832-33.398 8.8594-8.8555 20.871-13.832 33.398-13.832h125.95v207.04l-34.953-43.609v-0.003906c-2.5977-3.2422-6.3711-5.3281-10.5-5.8008-4.1289-0.47266-8.2773 0.70703-11.539 3.2812-3.2891 2.6016-5.4062 6.4102-5.8789 10.578-0.47266 4.168 0.73438 8.3516 3.3594 11.621l50.695 62.977c5.9766 7.4492 15.012 11.785 24.562 11.785 9.5469 0 18.582-4.3359 24.559-11.785l50.695-62.977c2.7695-3.2383 4.1016-7.4609 3.7031-11.703-0.40234-4.2422-2.5039-8.1406-5.832-10.805-3.3242-2.6641-7.5859-3.8672-11.812-3.3359-4.2266 0.53516-8.0586 2.7578-10.617 6.1641l-34.953 43.613v-207.04h125.95c12.527 0 24.539 4.9766 33.398 13.832 8.8555 8.8594 13.832 20.871 13.832 33.398z"/>
</svg>