<?xml version="1.0" encoding="UTF-8"?>
<!-- The Best Svg Icon site in the world: iconSvg.co, Visit us! https://iconsvg.co -->
<svg fill="#000000" width="800px" height="800px" version="1.1" viewBox="144 144 512 512" xmlns="http://www.w3.org/2000/svg">
 <g>
  <path d="m612.16 203.32h-424.32c-2.6562 0-4.8125 2.1445-4.8281 4.8008v383.76c0 2.668 2.1602 4.832 4.8281 4.832h72.699c2.1602-0.003907 4.0547-1.4297 4.6562-3.5039l13.777-48.215h240.82l13.777 48.215h-0.003906c0.59375 2.0781 2.4961 3.5078 4.6562 3.5039h73.93-0.003906c2.668 0 4.832-2.1641 4.832-4.832v-383.76c-0.015625-2.6523-2.168-4.7969-4.8203-4.8008zm-4.8398 383.69h-65.438l-13.777-48.215c-0.59766-2.0742-2.4961-3.5078-4.6523-3.5156h-248.13c-2.1602 0.003906-4.0586 1.4375-4.6523 3.5156l-13.777 48.215h-64.215v-373.97h414.64z"/>
  <path d="m235.89 507.35h328.21c1.2812 0.003907 2.5117-0.50391 3.4219-1.4102 0.90625-0.90625 1.418-2.1367 1.418-3.418v-25.438c4.7969-1.043 9.0938-3.6914 12.176-7.5117 3.082-3.8203 4.7656-8.5781 4.7695-13.488v-20.938c-0.007813-4.9062-1.6914-9.6641-4.7734-13.48-3.082-3.8203-7.375-6.4688-12.172-7.5078v-65.328c4.7969-1.043 9.0898-3.6914 12.176-7.5078 3.082-3.8164 4.7656-8.5742 4.7695-13.484v-20.898c-0.003907-4.9062-1.6875-9.6641-4.7695-13.48-3.0859-3.8203-7.3789-6.4688-12.176-7.5078v-31.586c0-2.6758-2.168-4.8438-4.8398-4.8438h-328.21c-1.2812 0-2.5117 0.51172-3.4219 1.418-0.90625 0.91016-1.418 2.1406-1.418 3.4258v248.16c0.003906 1.2812 0.51562 2.5078 1.4219 3.4141 0.91016 0.90234 2.1367 1.4102 3.418 1.4062zm340.32-72.207 0.003906 20.941c0 6.5234-5.2891 11.809-11.809 11.809-6.5234 0-11.809-5.2852-11.809-11.809v-20.938c0-6.5234 5.2852-11.809 11.809-11.809 6.5195 0 11.809 5.2852 11.809 11.809zm-11.809-140 0.003906 0.003906c6.5195 0 11.809 5.2852 11.809 11.809v20.941-0.003906c0 6.5234-5.2891 11.809-11.809 11.809-6.5234 0-11.809-5.2852-11.809-11.809v-20.949c0.003906-3.1328 1.25-6.1328 3.4648-8.3477 2.2188-2.2109 5.2227-3.4531 8.3516-3.4492zm-323.68-35.953h318.54v26.902c-4.6562 1.1562-8.793 3.8398-11.75 7.6172-2.9609 3.7773-4.5703 8.4375-4.5742 13.234v20.941c0.003907 4.7969 1.6172 9.4531 4.5742 13.23 2.957 3.7734 7.0938 6.4531 11.75 7.6094v65.582c-4.6562 1.1562-8.793 3.8359-11.75 7.6133-2.957 3.7734-4.5703 8.4336-4.5742 13.23v20.938c0.003907 4.7969 1.6172 9.457 4.5742 13.23 2.957 3.7773 7.0938 6.457 11.75 7.6133v20.742h-318.54z"/>
  <path d="m403.39 307.3h-133.68c-2.6719 0-4.8398 2.168-4.8398 4.8438v149.57-0.003906c0 2.6758 2.168 4.8398 4.8398 4.8398h133.68c1.2812 0 2.5117-0.50781 3.418-1.418 0.90625-0.90625 1.4141-2.1367 1.4141-3.4219v-149.57 0.003907c0-1.2852-0.50781-2.5156-1.4141-3.4258-0.90625-0.90625-2.1367-1.418-3.418-1.418zm-4.8398 149.57h-123.98l-0.003906-139.9h123.98z"/>
  <path d="m298.04 349.46h77.027c1.3203 0.058593 2.6094-0.42578 3.5664-1.3359 0.95312-0.91406 1.4961-2.1797 1.4961-3.5 0-1.3242-0.54297-2.5859-1.4961-3.5-0.95703-0.91406-2.2461-1.3984-3.5664-1.3359h-77.027c-1.3203-0.0625-2.6055 0.42188-3.5625 1.3359-0.95703 0.91406-1.4961 2.1758-1.4961 3.5 0 1.3203 0.53906 2.5859 1.4961 3.5 0.95703 0.91016 2.2422 1.3945 3.5625 1.3359z"/>
  <path d="m298.04 377.02h12.27c1.3242 0.058593 2.6094-0.42578 3.5664-1.3398 0.95312-0.91016 1.4961-2.1758 1.4961-3.4961 0-1.3242-0.54297-2.5898-1.4961-3.5-0.95703-0.91406-2.2422-1.3984-3.5664-1.3398h-12.27c-1.3203-0.058594-2.6055 0.42578-3.5625 1.3398-0.95703 0.91016-1.4961 2.1758-1.4961 3.5 0 1.3203 0.53906 2.5859 1.4961 3.4961 0.95703 0.91406 2.2422 1.3984 3.5625 1.3398z"/>
  <path d="m342.69 367.35h-12.273c-1.3203-0.058594-2.6055 0.42578-3.5625 1.3398-0.95312 0.91016-1.4961 2.1758-1.4961 3.5 0 1.3203 0.54297 2.5859 1.4961 3.4961 0.95703 0.91406 2.2422 1.3984 3.5625 1.3398h12.273c2.5859-0.11719 4.6211-2.25 4.6211-4.8359 0-2.5898-2.0352-4.7227-4.6211-4.8398z"/>
  <path d="m375.06 367.35h-12.27c-2.5859 0.11719-4.6211 2.25-4.6211 4.8398 0 2.5859 2.0352 4.7188 4.6211 4.8359h12.27c1.3203 0.058593 2.6094-0.42578 3.5664-1.3398 0.95312-0.91016 1.4961-2.1758 1.4961-3.4961 0-1.3242-0.54297-2.5898-1.4961-3.5-0.95703-0.91406-2.2461-1.3984-3.5664-1.3398z"/>
  <path d="m298.04 403.84h12.27c1.3242 0.058593 2.6094-0.42188 3.5664-1.3359 0.95312-0.91406 1.4961-2.1797 1.4961-3.5s-0.54297-2.5859-1.4961-3.5c-0.95703-0.91406-2.2422-1.3945-3.5664-1.3359h-12.27c-1.3203-0.058593-2.6055 0.42188-3.5625 1.3359-0.95703 0.91406-1.4961 2.1797-1.4961 3.5s0.53906 2.5859 1.4961 3.5c0.95703 0.91406 2.2422 1.3945 3.5625 1.3359z"/>
  <path d="m342.69 394.16h-12.273c-1.3203-0.058593-2.6055 0.42188-3.5625 1.3359-0.95312 0.91406-1.4961 2.1797-1.4961 3.5s0.54297 2.5859 1.4961 3.5c0.95703 0.91406 2.2422 1.3945 3.5625 1.3359h12.273c2.5859-0.11719 4.6211-2.2461 4.6211-4.8359s-2.0352-4.7188-4.6211-4.8359z"/>
  <path d="m375.06 394.16h-12.27c-2.5859 0.11719-4.6211 2.2461-4.6211 4.8359s2.0352 4.7188 4.6211 4.8359h12.27c1.3203 0.058593 2.6094-0.42188 3.5664-1.3359 0.95312-0.91406 1.4961-2.1797 1.4961-3.5s-0.54297-2.5859-1.4961-3.5c-0.95703-0.91406-2.2461-1.3945-3.5664-1.3359z"/>
  <path d="m298.04 430.64h12.27c1.3242 0.058594 2.6094-0.42188 3.5664-1.3359 0.95312-0.91406 1.4961-2.1797 1.4961-3.5 0-1.3242-0.54297-2.5859-1.4961-3.5-0.95703-0.91406-2.2422-1.3984-3.5664-1.3359h-12.27c-1.3203-0.0625-2.6055 0.42188-3.5625 1.3359-0.95703 0.91406-1.4961 2.1758-1.4961 3.5 0 1.3203 0.53906 2.5859 1.4961 3.5 0.95703 0.91406 2.2422 1.3945 3.5625 1.3359z"/>
  <path d="m342.69 420.97h-12.273c-1.3203-0.0625-2.6055 0.42188-3.5625 1.3359-0.95312 0.91406-1.4961 2.1758-1.4961 3.5 0 1.3203 0.54297 2.5859 1.4961 3.5 0.95703 0.91406 2.2422 1.3945 3.5625 1.3359h12.273c2.5859-0.11719 4.6211-2.2461 4.6211-4.8359 0-2.5898-2.0352-4.7188-4.6211-4.8359z"/>
  <path d="m375.06 420.97h-12.27c-2.5859 0.11719-4.6211 2.2461-4.6211 4.8359 0 2.5898 2.0352 4.7188 4.6211 4.8359h12.27c1.3203 0.058594 2.6094-0.42188 3.5664-1.3359 0.95312-0.91406 1.4961-2.1797 1.4961-3.5 0-1.3242-0.54297-2.5859-1.4961-3.5-0.95703-0.91406-2.2461-1.3984-3.5664-1.3359z"/>
 </g>
</svg>