<?xml version="1.0" encoding="UTF-8"?>
<!-- The Best Svg Icon site in the world: iconSvg.co, Visit us! https://iconsvg.co -->
<svg fill="#000000" width="800px" height="800px" version="1.1" viewBox="144 144 512 512" xmlns="http://www.w3.org/2000/svg">
 <path d="m516.93 410.5c3.4336 13.305 13.164 24.086 26.051 28.867 12.887 4.7773 27.293 2.9492 38.574-4.8984 11.281-7.8516 18.008-20.723 18.008-34.465 0-13.746-6.7266-26.617-18.008-34.465s-25.688-9.6797-38.574-4.9023c-12.887 4.7812-22.617 15.562-26.051 28.871h-53.949v-136.45h53.949c3.4336 13.305 13.164 24.09 26.051 28.867 12.887 4.7773 27.293 2.9492 38.574-4.8984 11.281-7.8477 18.008-20.723 18.008-34.465 0-13.742-6.7266-26.617-18.008-34.465s-25.688-9.6797-38.574-4.8984c-12.887 4.7773-22.617 15.559-26.051 28.867h-64.445c-5.7969 0-10.496 4.6992-10.496 10.496v146.95h-53.113c-3.6094-32.301-23.57-60.473-52.844-74.59-29.273-14.121-63.746-12.199-91.27 5.0859-27.523 17.281-44.23 47.5-44.23 80 0 32.496 16.707 62.715 44.23 80 27.523 17.281 61.996 19.203 91.27 5.0859 29.273-14.121 49.234-42.293 52.844-74.59h53.113v146.94c0 2.7852 1.1055 5.4531 3.0742 7.4219 1.9648 1.9688 4.6367 3.0742 7.4219 3.0742h64.445c3.4336 13.309 13.164 24.09 26.051 28.871 12.887 4.7773 27.293 2.9453 38.574-4.9023s18.008-20.719 18.008-34.465c0-13.742-6.7266-26.613-18.008-34.465-11.281-7.8477-25.688-9.6758-38.574-4.8984-12.887 4.7812-22.617 15.562-26.051 28.867h-53.949v-136.45zm-200.89-20.992c2.7812 0 5.4531 1.1055 7.4219 3.0742s3.0742 4.6367 3.0742 7.4219v31.488c0 2.7812-1.1055 5.4531-3.0742 7.4219-1.9688 1.9648-4.6406 3.0742-7.4219 3.0742h-10.496c0 5.7969-4.6992 10.496-10.496 10.496-5.7969 0-10.496-4.6992-10.496-10.496h-10.496c-5.7969 0-10.496-4.6992-10.496-10.496s4.6992-10.496 10.496-10.496h31.488v-10.496h-31.488c-5.7969 0-10.496-4.6992-10.496-10.496v-31.488c0-5.7969 4.6992-10.496 10.496-10.496h10.496c0-5.7969 4.6992-10.496 10.496-10.496 5.7969 0 10.496 4.6992 10.496 10.496h10.496c5.7969 0 10.496 4.6992 10.496 10.496s-4.6992 10.496-10.496 10.496h-31.488v10.496z"/>
</svg>