<?xml version="1.0" encoding="UTF-8"?>
<!-- The Best Svg Icon site in the world: iconSvg.co, Visit us! https://iconsvg.co -->
<svg fill="#000000" width="800px" height="800px" version="1.1" viewBox="144 144 512 512" xmlns="http://www.w3.org/2000/svg">
 <g>
  <path d="m430.96 256.96c-0.20703 0.019531-0.41797 0.03125-0.625 0.035157-0.85156-0.003907-1.6914-0.1875-2.4609-0.54297-18.484-2.8047-37.281-2.8047-55.766 0-0.76953 0.35547-1.6094 0.53906-2.457 0.54297-0.21094-0.003907-0.41797-0.015626-0.62891-0.035157-87.133 14.773-153.7 90.785-153.7 182.06 0 101.83 82.844 184.68 184.68 184.68 101.83 0 184.68-82.844 184.68-184.68-0.003906-91.277-66.574-167.29-153.71-182.06zm-30.965 337.83c-85.891 0-155.77-69.879-155.77-155.77s69.879-155.77 155.77-155.77 155.77 69.879 155.77 155.77c-0.003906 85.891-69.879 155.77-155.77 155.77z"/>
  <path d="m355.72 194.34h88.559v-17.715h-88.559z"/>
  <path d="m400 242.54c8.2227-0.003906 16.438 0.5 24.598 1.5156v-37.906h-49.199v37.906c8.1602-1.0156 16.375-1.5195 24.602-1.5156z"/>
  <path d="m511.25 433.45h32.582c-1.3398-34.129-14.812-66.66-38-91.746l-22.992 22.824c-2.3047 2.3047-6.043 2.3047-8.3477 0-2.3047-2.3047-2.3047-6.043 0-8.3516l22.992-22.996c-25.039-23.148-57.504-36.617-91.578-37.992v32.582c0 3.2617-2.6445 5.9023-5.9023 5.9023-3.2617 0-5.9062-2.6406-5.9062-5.9023v-32.582c-34.074 1.3789-66.539 14.852-91.578 38.004l22.992 22.996c1.6875 1.6953 2.1875 4.2344 1.2773 6.4453-0.91406 2.207-3.0625 3.6523-5.4492 3.6641-1.5625 0.019531-3.0664-0.58594-4.1758-1.6836l-22.992-22.91c-23.184 25.086-36.66 57.617-38 91.746h32.582c3.2617 0 5.9023 2.6445 5.9023 5.9062s-2.6406 5.9023-5.9023 5.9023h-32.582c1.5312 33.992 14.984 66.355 38 91.414l22.992-23.164v0.003906c2.3047-2.3086 6.043-2.3086 8.3477 0 2.3086 2.3047 2.3047 6.043 0 8.3477l-22.992 22.992c25.039 23.148 57.508 36.621 91.578 37.996v-32.582c0-3.2617 2.6445-5.9023 5.9062-5.9023 3.2578 0 5.9023 2.6406 5.9023 5.9023v32.582c34.07-1.3711 66.539-14.84 91.578-37.988l-22.992-22.98c-2.2891-2.3086-2.2734-6.0312 0.03125-8.3203 2.3047-2.2891 6.0273-2.2734 8.3164 0.03125l22.992 23.082c23.016-25.059 36.469-57.422 38-91.414h-32.582c-3.2578 0-5.9023-2.6406-5.9023-5.9023s2.6445-5.9062 5.9023-5.9062zm-111.25-1.0273c12.383 0.003907 23.875 6.4336 30.363 16.98 6.4844 10.551 7.0312 23.711 1.4414 34.762-5.5898 11.051-16.512 18.406-28.855 19.434v10.543c0 3.2578-2.6406 5.9023-5.9023 5.9023s-5.9062-2.6445-5.9062-5.9023v-11.523c-7.6602-1.9766-14.449-6.4414-19.297-12.691-4.8516-6.25-7.4883-13.934-7.5-21.848 0-3.2617 2.6445-5.9023 5.9062-5.9023s5.9023 2.6406 5.9023 5.9023c0 6.3242 2.5156 12.391 6.9844 16.859 4.4727 4.4727 10.539 6.9844 16.863 6.9844s12.391-2.5117 16.859-6.9844c4.4727-4.4727 6.9844-10.539 6.9844-16.863 0-6.3203-2.5117-12.387-6.9844-16.859s-10.535-6.9844-16.859-6.9844c-11.918 0-23.043-5.9531-29.656-15.863-6.6133-9.9141-7.8398-22.473-3.2656-33.477 4.5742-11 14.34-18.992 26.031-21.293v-10.996c0-3.2617 2.6445-5.9023 5.9062-5.9023 3.2578 0 5.9023 2.6406 5.9023 5.9023v10.668c8.5156 1.1992 16.316 5.4297 21.961 11.914 5.6445 6.4883 8.7617 14.793 8.7734 23.395 0 3.2578-2.6445 5.9023-5.9062 5.9023-3.2578 0-5.9023-2.6445-5.9023-5.9023 0-6.3242-2.5117-12.391-6.9844-16.863-4.4727-4.4688-10.539-6.9805-16.863-6.9805-6.3242 0-12.387 2.5117-16.859 6.9844-4.4727 4.4688-6.9844 10.535-6.9844 16.859s2.5117 12.391 6.9844 16.859c4.4727 4.4727 10.539 6.9844 16.863 6.9844z"/>
 </g>
</svg>