<?xml version="1.0" encoding="UTF-8"?>
<!-- The Best Svg Icon site in the world: iconSvg.co, Visit us! https://iconsvg.co -->
<svg fill="#000000" width="800px" height="800px" version="1.1" viewBox="144 144 512 512" xmlns="http://www.w3.org/2000/svg">
 <g>
  <path d="m400 277c16.277 0 29.52-13.242 29.52-29.52 0-16.277-13.242-29.52-29.52-29.52s-29.52 13.242-29.52 29.52c-0.003907 16.273 13.242 29.52 29.52 29.52zm0-39.363c5.4258 0 9.8398 4.4141 9.8398 9.8398 0 5.4258-4.4141 9.8398-9.8398 9.8398s-9.8398-4.4141-9.8398-9.8398c0-5.4258 4.4102-9.8398 9.8398-9.8398z"/>
  <path d="m626.62 287.83-222.71-108.24c-2.6602-1.293-5.7578-1.3203-8.4414-0.078126-84.785 39.309-141.2 71.332-221.89 108.22-4.207 1.9219-6.5078 6.5195-5.5234 11.043 0.98828 4.5234 4.9883 7.75 9.6172 7.75h31.367v9.8398c0 12.828 8.2266 23.773 19.68 27.836v188.64h-19.68c-5.4336 0-9.8398 4.4062-9.8398 9.8398v29.52h-9.8398c-5.4336 0-9.8398 4.4062-9.8398 9.8398v29.52c0 5.4336 4.4062 9.8398 9.8398 9.8398 5.4336 0 9.8398-4.4062 9.8398-9.8398v-19.68h403.44v19.68c0 5.4336 4.4062 9.8398 9.8398 9.8398s9.8398-4.4062 9.8398-9.8398v-29.52c0-5.4336-4.4062-9.8398-9.8398-9.8398h-9.8398v-29.52c0-5.4336-4.4062-9.8398-9.8398-9.8398h-19.68l-0.003906-188.65c11.453-4.0625 19.68-15.004 19.68-27.836v-9.8398h29.52c4.5859 0 8.5625-3.1641 9.5898-7.6328 1.0312-4.4648-1.1602-9.0508-5.2852-11.055zm-227.11-88.496 180.05 87.508h-357.77c59.883-28.816 109.43-55.688 177.71-87.508zm104.73 144.86v159.13h-68.879v-159.13c11.453-4.0625 19.68-15.004 19.68-27.836v-9.8398h29.52v9.8398c0 12.832 8.2266 23.773 19.68 27.836zm-68.879 188.65v-9.8398h68.879v9.8398zm-137.76 0v-9.8398h68.879v9.8398zm19.68-216.48v-9.8398h29.52v9.8398c0 12.828 8.2266 23.773 19.68 27.836v159.12h-68.879v-159.13c11.453-4.0625 19.68-15.004 19.68-27.832zm68.879 19.68c0-5.4336-4.4062-9.8398-9.8398-9.8398-5.4258 0-9.8398-4.4141-9.8398-9.8398v-9.8398h68.883v9.8398c0 5.4258-4.4141 9.8398-9.8398 9.8398-5.4336 0-9.8398 4.4062-9.8398 9.8398v196.8h-29.52zm-147.6-9.8398c-5.4258 0-9.8398-4.4141-9.8398-9.8398v-9.8398h68.879v9.8398c0 5.4258-4.4141 9.8398-9.8398 9.8398-5.4336 0-9.8398 4.4062-9.8398 9.8398v196.8h-29.52v-196.8c0-5.4336-4.4062-9.8398-9.8398-9.8398zm344.4 246h-364.08v-19.68h364.08zm-9.8438-255.84c0 5.4258-4.4141 9.8398-9.8398 9.8398-5.4336 0-9.8398 4.4062-9.8398 9.8398v196.8h-29.52v-196.8c0-5.4336-4.4062-9.8398-9.8398-9.8398-5.4258 0-9.8398-4.4141-9.8398-9.8398v-9.8398h68.879z"/>
 </g>
</svg>