<?xml version="1.0" encoding="UTF-8"?>
<!-- The Best Svg Icon site in the world: iconSvg.co, Visit us! https://iconsvg.co -->
<svg width="800px" height="800px" version="1.1" viewBox="144 144 512 512" xmlns="http://www.w3.org/2000/svg">
 <defs>
  <clipPath id="b">
   <path d="m148.09 148.09h388.91v503.81h-388.91z"/>
  </clipPath>
  <clipPath id="a">
   <path d="m379 148.09h272.9v346.91h-272.9z"/>
  </clipPath>
 </defs>
 <path d="m190.08 420.99h188.93v20.992h-188.93z"/>
 <g clip-path="url(#b)">
  <path d="m515.45 599.42c0-2.7812-1.1055-5.4531-3.0742-7.4219-1.9648-1.9688-4.6367-3.0742-7.4219-3.0742h-20.992v-83.969h-304.38c-5.7969 0-10.496-4.6992-10.496-10.496v-314.88c0-5.7969 4.6992-10.496 10.496-10.496h178.43v-20.992h-178.43c-8.3516 0-16.359 3.3164-22.266 9.2227s-9.2227 13.914-9.2227 22.266v314.88c0 8.3516 3.3164 16.363 9.2227 22.266 5.9062 5.9062 13.914 9.2227 22.266 9.2227h136.45v62.977h-20.992c-5.7969 0-10.496 4.6992-10.496 10.496v31.488h-20.992v20.992h272.89v-20.992h-20.992zm-178.43-73.473h125.95v62.977h-125.95zm-31.488 104.96v-20.992h188.93v20.992z"/>
 </g>
 <path d="m200.57 211.07v188.93h20.992v-178.43h125.95v-20.992h-136.45c-5.7969 0-10.496 4.6992-10.496 10.496z"/>
 <g clip-path="url(#a)">
  <path d="m620.41 148.09h-83.969c-7.7695 0.027344-15.254 2.9453-20.992 8.1875-5.7344-5.2422-13.219-8.1602-20.992-8.1875h-83.965c-8.3516 0-16.363 3.3164-22.266 9.2227-5.9062 5.9062-9.2227 13.914-9.2227 22.266v62.977c0 2.7812 1.1055 5.4531 3.0742 7.4219s4.6367 3.0742 7.4219 3.0742h94.465l-0.003906-20.992h-83.965v-52.48c0-5.7969 4.6992-10.496 10.496-10.496h83.969-0.003906c2.7852 0 5.457 1.1055 7.4219 3.0742 1.9688 1.9688 3.0742 4.6367 3.0742 7.4219v10.496h-73.469v20.992h73.473v53.016h-0.003907c-39.832 3.6367-74.945 27.629-92.809 63.422-17.859 35.789-15.926 78.273 5.1172 112.29 21.039 34.016 58.191 54.719 98.188 54.719 40 0 77.152-20.703 98.191-54.719 21.043-34.02 22.977-76.504 5.1172-112.29-17.863-35.793-52.977-59.785-92.812-63.422v-53.016h73.473v-20.992h-73.473v-10.496c0-5.7969 4.6992-10.496 10.496-10.496h83.969c2.7852 0 5.4531 1.1055 7.4219 3.0742s3.0742 4.6367 3.0742 7.4219v52.48h-83.969v20.992h94.465c2.7852 0 5.4531-1.1055 7.4219-3.0742s3.0742-4.6406 3.0742-7.4219v-62.977c0-8.3516-3.3164-16.359-9.2227-22.266-5.9023-5.9062-13.914-9.2227-22.266-9.2227zm-10.496 230.91c0 25.051-9.9531 49.078-27.668 66.797-17.715 17.715-41.742 27.668-66.797 27.668-25.051 0-49.078-9.9531-66.793-27.668-17.719-17.719-27.668-41.746-27.668-66.797 0-25.055 9.9492-49.082 27.668-66.797 17.715-17.715 41.742-27.668 66.793-27.668 25.047 0.03125 49.055 9.9922 66.766 27.699 17.707 17.711 27.668 41.719 27.699 66.766z"/>
 </g>
 <path d="m504.96 305.54v20.992h-10.496c-5.5664 0-10.906 2.2109-14.84 6.1484-3.9375 3.9375-6.1484 9.2734-6.1484 14.844v20.992c0 5.5664 2.2109 10.906 6.1484 14.844 3.9336 3.9336 9.2734 6.1484 14.84 6.1484h41.984v20.992h-41.984v-10.496h-20.988v10.496c0 5.5664 2.2109 10.906 6.1484 14.844 3.9336 3.9336 9.2734 6.1484 14.84 6.1484h10.496v20.992h20.992v-20.992h10.496c5.5703 0 10.91-2.2148 14.844-6.1484 3.9375-3.9375 6.1484-9.2773 6.1484-14.844v-20.992c0-5.5703-2.2109-10.91-6.1484-14.844-3.9336-3.9375-9.2734-6.1484-14.844-6.1484h-41.984v-20.992h41.984v10.496h20.992v-10.496c0-5.5703-2.2109-10.906-6.1484-14.844-3.9336-3.9375-9.2734-6.1484-14.844-6.1484h-10.496v-20.992z"/>
 <path d="m253.05 242.56c-5.7969 0-10.496 4.6992-10.496 10.496v41.984c0 2.7812 1.1055 5.4531 3.0742 7.4219s4.6367 3.0742 7.4219 3.0742h94.465c2.7812 0 5.4531-1.1055 7.4219-3.0742s3.0742-4.6406 3.0742-7.4219v-41.984c0-2.7852-1.1055-5.4531-3.0742-7.4219s-4.6406-3.0742-7.4219-3.0742zm83.969 41.984h-73.473v-20.992h73.473z"/>
 <path d="m242.56 326.53h136.45v20.992h-136.45z"/>
 <path d="m242.56 368.51h20.992v20.992h-20.992z"/>
 <path d="m284.54 368.51h20.992v20.992h-20.992z"/>
</svg>