<?xml version="1.0" encoding="UTF-8"?>
<!-- The Best Svg Icon site in the world: iconSvg.co, Visit us! https://iconsvg.co -->
<svg fill="#000000" width="800px" height="800px" version="1.1" viewBox="144 144 512 512" xmlns="http://www.w3.org/2000/svg">
 <g>
  <path d="m532.89 414.48h-129.42v-37.648c8.5 4.4336 16.812 6.6914 24.781 6.6914 38.199 0 55.293-49.934 56-52.059 0.29297-0.87109 0.22656-1.8242-0.1875-2.6484-0.40625-0.82812-1.1328-1.4492-2-1.7383-0.60547-0.20312-14.887-4.8906-31.762-4.8906-13.785 0-25.242 3.1328-34.039 9.3008-5.3203 3.7344-9.5781 8.543-12.797 14.375v-44.773c34.738-1.8086 62.441-30.637 62.441-65.812 0-36.344-29.57-65.914-65.91-65.914s-65.91 29.57-65.91 65.914c0 35.176 27.703 64.008 62.441 65.812v44.777c-3.2188-5.8281-7.4805-10.641-12.801-14.379-8.793-6.1719-20.242-9.3008-34.039-9.3008-16.867 0-31.152 4.6953-31.75 4.8906-0.87109 0.29297-1.5977 0.91797-2.0039 1.7422-0.41406 0.82031-0.48047 1.7773-0.1875 2.6445 0.71094 2.125 17.809 52.055 56.004 52.059h0.003906c7.9648 0 16.277-2.2578 24.773-6.6914v37.648h-129.42c-13.301 0-24.121 10.82-24.121 24.121 0 13.297 10.816 24.121 24.121 24.121h5.9453l36.859 165.2c0.35156 1.5859 1.7617 2.7109 3.3867 2.7109h174.3c1.6211 0 3.0312-1.125 3.3867-2.7109l36.82-165.2h5.0898c13.305 0 24.121-10.828 24.121-24.121-0.007812-13.301-10.824-24.121-24.133-24.121zm-82.582-85.363c10.988 0 21 2.1953 26.07 3.5312-4.4219 10.844-20.234 43.934-48.125 43.934-7.75 0-16.012-2.543-24.582-7.5664 3-26.477 18.684-39.898 46.637-39.898zm-78.551 47.465h-0.003906c-27.895-0.003907-43.699-33.102-48.129-43.934 5.0625-1.3359 15.059-3.5312 26.07-3.5312 27.957 0 43.637 13.422 46.637 39.891-8.5664 5.0312-16.824 7.5742-24.574 7.5742zm-30.727-141.32c0-32.52 26.453-58.973 58.973-58.973 32.516 0 58.973 26.449 58.973 58.973 0 32.516-26.453 58.973-58.973 58.973-32.516-0.003907-58.973-26.453-58.973-58.973zm143.79 388.43h-168.74l-35.918-160.97h240.54zm48.07-167.91h-7.8008-0.03125-249.27-0.035156-8.6562c-9.4727 0-17.184-7.707-17.184-17.18 0-9.4766 7.7148-17.184 17.184-17.184h265.78c9.4805 0 17.184 7.707 17.184 17.184 0.011719 9.4727-7.6914 17.18-17.176 17.18z"/>
  <path d="m404.76 281.56v-9.0547c9.6641-1.6562 17.043-10.07 17.043-20.199 0-11.309-9.1953-20.512-20.512-20.512h-2.5859c-7.4883 0-13.574-6.0898-13.574-13.574 0-7.4883 6.0859-13.574 13.574-13.574h17.039c1.918 0 3.4648-1.5586 3.4648-3.4727 0-1.9141-1.5508-3.4648-3.4648-3.4648h-10.988v-8.7422c0-1.9141-1.5586-3.4648-3.4648-3.4648-1.9141 0-3.4648 1.5586-3.4648 3.4648v8.7852c-10.902 0.46875-19.629 9.457-19.629 20.469 0 11.309 9.1992 20.504 20.512 20.504h2.5859c7.4805 0 13.574 6.0898 13.574 13.574 0 7.4805-6.0742 13.566-13.559 13.574h-0.015625-0.019531-17.02c-1.9141 0-3.4648 1.5508-3.4648 3.4648 0 1.918 1.5508 3.4727 3.4648 3.4727h13.574v8.7422c0 1.9141 1.5586 3.4648 3.4648 3.4648 1.9102 0.007813 3.4648-1.543 3.4648-3.457z"/>
 </g>
</svg>