<?xml version="1.0" encoding="UTF-8"?>
<!-- The Best Svg Icon site in the world: iconSvg.co, Visit us! https://iconsvg.co -->
<svg fill="#000000" width="800px" height="800px" version="1.1" viewBox="144 144 512 512" xmlns="http://www.w3.org/2000/svg">
 <g>
  <path d="m511.59 202.83c-23.691-0.41797-46.457 9.1797-62.699 26.43-16.242 17.254-24.453 40.555-22.613 64.176 1.8398 23.621 13.559 45.371 32.277 59.898 3.6719 2.6523 5.6367 7.0703 5.1484 11.574l-4.4492 32.906v0.78906c0 0.125-0.10938 0.22656-0.125 0.37109v-0.003906c0 0.34766 0.023438 0.69922 0.070312 1.0469-0.65625 7.9141 1.2852 15.824 5.5312 22.535 4.25 6.707 10.57 11.848 18.008 14.637 5.6914 9.6914 27.285 49.633 18.105 83.27-3.6367 12.848-11.73 23.984-22.828 31.41-4.3711-29.125-20.691-55.102-45.031-71.684 6.8359-3.2188 12.641-8.2812 16.762-14.609 4.1172-6.332 6.3945-13.688 6.5742-21.242 0.21094-5.4727-1.4258-10.863-4.6406-15.301-3.2148-4.4375-7.8281-7.668-13.098-9.1719-7.082-1.9375-14.664-0.48438-20.527 3.9375-0.51172 0.40234-1.0078 0.78906-1.4727 1.25-4.6484-3.8555-10.496-5.9648-16.531-5.9648-6.0391 0-11.887 2.1094-16.531 5.9648-0.46484-0.44141-0.96094-0.85156-1.4727-1.25-5.8594-4.4336-13.449-5.8906-20.531-3.9375-5.2695 1.5039-9.8828 4.7344-13.098 9.1719-3.2148 4.4375-4.8477 9.8281-4.6367 15.301 0.17578 7.5547 2.4531 14.91 6.5742 21.242 4.1211 6.3281 9.9219 11.391 16.758 14.609-19.273 13.051-33.672 32.129-40.934 54.246h-0.29297c-14.477 4.5586-50.316 14.051-70.281 3.6055-5.9258-2.9844-10.332-8.3125-12.152-14.691-7.0859-22.625 14.855-37.383 41.996-52.988 2.3633-1.3477 4.5898-2.6367 6.707-3.8906v0.003906c11.621-6.168 21.707-14.871 29.52-25.457 11.129-17.094 13.223-38.539 5.6133-57.465 4.9727-4.3008 8.4531-10.066 9.9414-16.473 1.4844-6.4023 0.90625-13.113-1.6602-19.164l-11.375-26.984c-1.1367-2.9297-0.60156-6.2422 1.4023-8.6602 12.887-16.938 17.617-38.711 12.926-59.473-4.6914-20.758-18.324-38.379-37.246-48.129-18.918-9.7539-41.18-10.633-60.809-2.4102-19.633 8.2227-34.617 24.711-40.938 45.035-6.3203 20.324-3.3242 42.402 8.1836 60.305 11.508 17.906 30.344 29.805 51.457 32.5 3.3477 0.29688 6.2812 2.3672 7.6836 5.4219l10.855 25.727c2.4492 5.8398 6.5508 10.84 11.801 14.383 5.2539 3.5391 11.426 5.4688 17.758 5.5508 1.9844-0.03125 3.957-0.25391 5.8984-0.67188 5.1484 13.867 3.457 29.348-4.5586 41.777-6.5547 8.5977-14.91 15.656-24.484 20.68-2.0469 1.2188-4.2422 2.4805-6.5195 3.7852-24.113 13.863-60.559 34.809-49.191 71.32v0.003906c3.0508 10.383 10.246 19.051 19.895 23.953 9.6875 4.6055 20.336 6.8242 31.055 6.4688 14.453-0.3125 28.801-2.5039 42.691-6.5078-0.48438 3.3359-0.74609 6.7031-0.78906 10.074 0.015625 47.098 28.711 74.102 78.738 74.102 47.105 0 75.273-23.953 78.406-66.047h-0.003906c18.328-9.2773 31.949-25.785 37.574-45.539 8.9023-32.59-5.3828-67.953-14.594-86.02 7.2734-1.3945 13.922-5.0469 19-10.438 5.0781-5.3945 8.3281-12.25 9.2852-19.594l2.7773-20.609 1.875-13.895c0.67969-4.2109 3.582-7.7305 7.5859-9.1992 24.113-9.832 42.312-30.273 49.289-55.359 6.9766-25.086 1.9414-51.988-13.637-72.852-15.578-20.867-39.941-33.34-65.973-33.781zm-250.43 121.66c-19.91-2.5547-36.945-15.527-44.703-34.043-7.7578-18.512-5.0547-39.758 7.0859-55.742 12.145-15.984 31.887-24.281 51.801-21.773 19.914 2.5078 36.984 15.441 44.785 33.934 7.7852 18.559 5.0859 39.863-7.0859 55.891-5.375 6.9258-6.6641 16.191-3.375 24.316l1.5273 3.6133-28.488 12.008-1.3789-3.2812v-0.003906c-1.7461-4.043-4.5312-7.5547-8.0742-10.176-3.543-2.6172-7.7148-4.2539-12.094-4.7422zm31.039 40.645-3.3516-7.9414 28.496-12.004 3.7383 8.8711c1.6875 4.0234 1.5977 8.5742-0.25391 12.527-1.8516 3.9531-5.2891 6.9414-9.4609 8.2227-3.8242 1.0273-7.8945 0.60938-11.434-1.1758-3.5352-1.7852-6.2891-4.8125-7.7344-8.5zm73.211 69.996v0.003906c0.81641-0.21484 1.6562-0.32812 2.5039-0.33203 1.6016-0.03125 3.168 0.47656 4.4453 1.4414 1.8633 1.5273 2.9062 3.8359 2.8281 6.2422 0 4.3477 3.5234 7.8711 7.8711 7.8711s7.8711-3.5234 7.8711-7.8711c0.76172-4.4062 4.582-7.625 9.0547-7.625 4.4688 0 8.2891 3.2188 9.0508 7.625 0 4.3477 3.5234 7.8711 7.8711 7.8711s7.875-3.5234 7.875-7.8711c-0.082031-2.4062 0.96484-4.7148 2.8242-6.2422 2.0117-1.4453 4.5898-1.8555 6.9531-1.1094 3.7344 1.2578 6.1602 4.8633 5.9258 8.8008-0.13281 5.0977-1.7969 10.039-4.7812 14.18-2.9805 4.1406-7.1367 7.2891-11.93 9.0352 0.65234-2.1719 0.99609-4.4258 1.0312-6.6914 0-4.3477-3.5273-7.875-7.875-7.875-4.3477 0-7.8711 3.5273-7.8711 7.875 0.10156 2.4648-0.80469 4.8672-2.5117 6.6484-1.7109 1.7812-4.0703 2.7891-6.5391 2.7891s-4.832-1.0078-6.5391-2.7891c-1.7109-1.7812-2.6172-4.1836-2.5156-6.6484 0-4.3477-3.5234-7.875-7.8711-7.875-4.3477 0-7.8711 3.5273-7.8711 7.875 0.03125 2.2656 0.37891 4.5195 1.0312 6.6914-4.8008-1.7422-8.9648-4.8867-11.949-9.0273s-4.6523-9.0859-4.7891-14.188c-0.23828-3.9336 2.1836-7.5352 5.9141-8.8008zm34.59 185.29c-52.051 0-62.977-31.723-62.977-58.34 0-33.387 30.543-76.469 62.977-76.469s62.977 43.082 62.977 76.469c0 26.617-10.93 58.34-62.977 58.34zm115.11-221.8-39.359-5.3203 0.67578-5.0078 39.359 5.3203zm-9.4453 21.5c-5.2031 3.6602-11.871 4.5391-17.848 2.3594-5.9766-2.1836-10.508-7.1523-12.129-13.305l35.707 4.8242v0.003906c-1.4648 2.4219-3.4258 4.5078-5.7539 6.1172zm72.242-123.98c-3.3359 24.23-19.332 44.848-41.973 54.102-4.543 1.7539-8.5352 4.6875-11.562 8.4961-3.0312 3.8086-4.9922 8.3594-5.6797 13.176l-0.78906 6.0938-39.359-5.3125 0.78906-5.6602c0.62891-4.9453-0.066406-9.9688-2.0117-14.559-1.9492-4.5898-5.0781-8.5781-9.0703-11.562-15.094-11.707-24.598-29.195-26.211-48.227-1.6133-19.031 4.8086-37.871 17.715-51.953 12.906-14.082 31.117-22.121 50.215-22.168h1.3633c19.527 0.35547 37.973 9.0312 50.691 23.852 12.715 14.82 18.496 34.367 15.883 53.723z"/>
  <path d="m523.86 247.14 0.96875-7.1562c0.58594-4.3086-2.4336-8.2773-6.7422-8.8594-4.3086-0.58594-8.2734 2.4336-8.8594 6.7422l-0.96875 7.1797c-9.1875 1.3203-17.16 7.0195-21.383 15.285-4.2266 8.2656-4.1758 18.066 0.13281 26.285 4.3125 8.2227 12.344 13.84 21.543 15.066 6.9805 1.0547 11.824 7.5156 10.879 14.516-0.94531 6.9961-7.332 11.941-14.344 11.102-7.0742-0.95703-12.035-7.4648-11.082-14.539 0.58203-4.3086-2.4414-8.2734-6.7461-8.8555-4.3086-0.58594-8.2734 2.4375-8.8594 6.7461-0.80859 6.1562 0.40625 12.41 3.4609 17.816 3.0586 5.4102 7.7891 9.6758 13.48 12.16l-0.96875 7.1641c-0.27734 2.0703 0.27734 4.1641 1.543 5.8242 1.2656 1.6641 3.1406 2.7539 5.2109 3.0312 0.35156 0.042968 0.70312 0.0625 1.0547 0.0625 3.9414 0 7.2734-2.9141 7.8047-6.8164l0.95312-7.0859h-0.003906c9.1758-1.3477 17.129-7.0508 21.344-15.312 4.2148-8.2578 4.168-18.047-0.12891-26.266-4.293-8.2148-12.301-13.844-21.488-15.102-5.1836-0.68359-9.4453-4.4219-10.793-9.4727-1.3516-5.0508 0.47266-10.418 4.6211-13.598 4.1484-3.1836 9.8047-3.5508 14.332-0.93359 4.5273 2.6133 7.0312 7.6992 6.3477 12.883-0.58203 4.3086 2.4375 8.2773 6.75 8.8594 4.3086 0.58203 8.2773-2.4414 8.8594-6.75 0.8125-6.1562-0.40234-12.406-3.4531-17.812-3.0508-5.4102-7.7773-9.6758-13.465-12.164z"/>
  <path d="m527 162.38c-2.0664-0.28125-4.1641 0.27344-5.8242 1.5391-1.6602 1.2656-2.75 3.1367-3.0312 5.207l-1.8672 13.738 0.003906-0.003906c-0.28125 2.0703 0.27344 4.168 1.5391 5.8281 1.2695 1.6602 3.1445 2.75 5.2148 3.0273 0.35156 0.046874 0.70703 0.074218 1.0625 0.074218 3.9336-0.003906 7.2617-2.9141 7.793-6.8125l1.8594-13.746v0.003907c0.27734-2.0703-0.27734-4.1641-1.5391-5.8242-1.2656-1.6641-3.1406-2.7539-5.2109-3.0312z"/>
  <path d="m448.2 205.42c3 0.011719 5.7461-1.6797 7.082-4.3633 1.3359-2.6836 1.0312-5.8945-0.78516-8.2812l-8.3984-11.02c-2.6367-3.4609-7.5781-4.1289-11.039-1.4961-3.457 2.6367-4.1289 7.5781-1.4922 11.039l8.3984 11.02c1.4844 1.9453 3.7852 3.0938 6.2344 3.1016z"/>
  <path d="m406.22 266.68c4.0742 1.5195 8.6094-0.55078 10.129-4.6211 1.5234-4.0742-0.54688-8.6094-4.6211-10.133l-12.988-4.8477c-4.0742-1.5234-8.6094 0.54688-10.129 4.6211-1.5234 4.0703 0.54688 8.6094 4.6211 10.129z"/>
  <path d="m599.89 202.54-11.02 8.3984-0.003906 0.003906c-3.457 2.6367-4.125 7.5781-1.4883 11.035 2.6367 3.457 7.5781 4.125 11.039 1.4883l11.02-8.4062c1.7227-1.2422 2.875-3.1289 3.1875-5.2305 0.3125-2.1016-0.23828-4.2422-1.5273-5.9297-1.2891-1.6914-3.2031-2.7891-5.3125-3.043-2.1094-0.25781-4.2344 0.35156-5.8867 1.6836z"/>
  <path d="m606.64 294.76c0.35547 4.0586 3.7539 7.1758 7.832 7.1797h0.70703l13.809-1.2266v-0.003907c4.3008-0.41797 7.4609-4.2266 7.0781-8.5352-0.38672-4.3047-4.1719-7.4961-8.4805-7.1445l-13.809 1.2266c-4.3125 0.39062-7.5039 4.1875-7.1367 8.5039z"/>
  <path d="m281.72 320.01c0.78516 1.957 2.3242 3.5195 4.2734 4.332 1.9492 0.81641 4.1406 0.8125 6.0859-0.007812 1.9453-0.82031 3.4805-2.3867 4.2617-4.3477 0.77734-1.9609 0.73828-4.1562-0.11328-6.0859l-2.0078-4.7617c6.125-5.3047 9.3398-13.219 8.6445-21.293-0.69141-8.0742-5.2148-15.324-12.156-19.504-6.9414-4.1758-15.465-4.7773-22.922-1.6094-2.9609 1.2461-6.3477 0.9375-9.0312-0.83203-2.6836-1.7656-4.3086-4.7578-4.3281-7.9688-0.023438-3.2109 1.5625-6.2227 4.2227-8.0273 2.6562-1.8008 6.043-2.1562 9.0156-0.94922 2.3711 0.95312 4.2578 2.8164 5.2383 5.1719 1.6875 4.0078 6.3047 5.8906 10.316 4.1992 4.0078-1.6875 5.8867-6.3047 4.1992-10.316-2.0508-4.9336-5.625-9.0859-10.203-11.84-4.5781-2.7578-9.918-3.9766-15.242-3.4766l-2-4.7227h0.003907c-1.6875-4.0117-6.3047-5.8906-10.312-4.207-4.0117 1.6875-5.8906 6.3047-4.207 10.312l2.0078 4.7695v0.003906c-6.125 5.3008-9.3398 13.219-8.6445 21.289 0.69531 8.0742 5.2148 15.324 12.156 19.504 6.9414 4.1797 15.465 4.7773 22.926 1.6133 2.957-1.2656 6.3516-0.96484 9.0469 0.79688 2.6914 1.7617 4.3242 4.7539 4.3516 7.9727 0.023437 3.2188-1.5625 6.2344-4.2266 8.0391-2.6641 1.8047-6.0547 2.1602-9.0312 0.94141-2.3672-0.94922-4.2539-2.8086-5.2344-5.1641-1.6875-4.0078-6.3047-5.8906-10.312-4.2031s-5.8906 6.3047-4.2031 10.312c1.9414 4.5938 5.1953 8.5195 9.3516 11.277 4.1602 2.7617 9.0352 4.2383 14.027 4.2461 0.69141 0 1.3789-0.14844 2.0625-0.21094z"/>
  <path d="m234.31 196.04c2.6406 0 5.1055-1.3242 6.5625-3.5234 1.4609-2.2031 1.7188-4.9883 0.6875-7.418l-4.5117-10.746c-0.80078-1.9375-2.3477-3.4766-4.2852-4.2695-1.9414-0.79688-4.1211-0.78125-6.0508 0.035156-1.9336 0.81641-3.457 2.3711-4.2383 4.3164-0.78516 1.9453-0.75391 4.125 0.074219 6.0508l4.5352 10.746v-0.003906c1.2266 2.9102 4.0703 4.8008 7.2266 4.8125z"/>
  <path d="m192.48 233.46c1.6211-4.0195-0.31641-8.5977-4.3281-10.234l-10.801-4.4219c-4.0312-1.6406-8.625 0.29688-10.262 4.3242-1.6406 4.0273 0.29687 8.625 4.3242 10.262l10.801 4.3945c4.0195 1.6211 8.5938-0.3125 10.234-4.3242z"/>
  <path d="m170.32 286.28c-4.0273 0.70703-6.8438 4.3789-6.4844 8.4492 0.36328 4.0742 3.7812 7.1914 7.8711 7.1797 0.46484 0 0.93359-0.042969 1.3906-0.12891l11.477-2.0469 0.003906 0.003906c4.2773-0.76562 7.1289-4.8555 6.3633-9.1367-0.76562-4.2812-4.8555-7.1289-9.1367-6.3633z"/>
  <path d="m295.94 189.82c0.94141 0.38672 1.9492 0.58984 2.9688 0.58984 3.207 0 6.0898-1.9414 7.2969-4.9141l4.3945-10.809c1.6328-4.0273-0.30859-8.6211-4.3398-10.254-4.0312-1.6367-8.6211 0.30469-10.258 4.3359l-4.3906 10.816c-1.6211 4.0195 0.3125 8.5977 4.3281 10.234z"/>
  <path d="m346.88 237.13c1.6406 0 3.2383-0.51562 4.5742-1.4688l9.4453-6.793v-0.003906c1.7383-1.1992 2.9219-3.043 3.2852-5.125 0.36328-2.0781-0.125-4.2188-1.3555-5.9375-1.2266-1.7148-3.0938-2.8672-5.1797-3.1953-2.0898-0.32422-4.2188 0.19922-5.9141 1.4609l-9.4453 6.793c-2.7812 1.9922-3.957 5.5508-2.9102 8.8086s4.0781 5.4648 7.5 5.4609z"/>
  <path d="m400 529.26c2.0859 0 4.0898 0.82813 5.5664 2.3047 1.4766 1.4766 2.3047 3.4805 2.3047 5.5664 0 4.3477 3.5234 7.8711 7.8711 7.8711 4.3477 0 7.8711-3.5234 7.8711-7.8711-0.011719-4.8672-1.5352-9.6094-4.3516-13.578-2.8203-3.9688-6.8008-6.9648-11.391-8.582v-1.457c0-4.3477-3.5234-7.8711-7.8711-7.8711s-7.875 3.5234-7.875 7.8711v1.457c-7.0586 2.4805-12.52 8.1641-14.715 15.32-2.1914 7.1523-0.85547 14.922 3.6016 20.934 4.457 6.0078 11.504 9.543 18.988 9.5234 3.1836 0 6.0547 1.918 7.2695 4.8594 1.2188 2.9414 0.54688 6.3281-1.7031 8.5781-2.2539 2.25-5.6406 2.9258-8.582 1.707s-4.8594-4.0898-4.8594-7.2734c0-4.3477-3.5234-7.8711-7.8711-7.8711s-7.8711 3.5234-7.8711 7.8711c0.019532 4.8672 1.543 9.6094 4.3633 13.578 2.8164 3.9688 6.793 6.9688 11.379 8.5898v1.4492c0 4.3477 3.5273 7.8711 7.875 7.8711s7.8711-3.5234 7.8711-7.8711v-1.4492c7.0547-2.4844 12.512-8.1719 14.699-15.324 2.1914-7.1523 0.85547-14.918-3.5977-20.926-4.4531-6.0117-11.496-9.5469-18.973-9.5352-4.3477 0-7.875-3.5234-7.875-7.8711s3.5273-7.8711 7.875-7.8711z"/>
 </g>
</svg>