<?xml version="1.0" encoding="UTF-8"?>
<!-- The Best Svg Icon site in the world: iconSvg.co, Visit us! https://iconsvg.co -->
<svg fill="#000000" width="800px" height="800px" version="1.1" viewBox="144 144 512 512" xmlns="http://www.w3.org/2000/svg">
 <g>
  <path d="m484.85 406.02c0-47.414-38.438-85.848-85.855-85.848-47.41 0-85.844 38.43-85.844 85.848 0 47.418 38.43 85.855 85.844 85.855 47.414-0.003906 85.855-38.441 85.855-85.855zm-93.406 55.59v-8.0898c-5.3164-1.0469-11.875-3.7773-17.289-10.926-3.7969-4.9766-4.8516-10.113-4.8516-17.402 0 0 0.55859-5.75 7.7344-5.75 7.1641 0 7.0625 5.75 7.0625 5.75 0 11.008 8.6523 13.695 14.711 13.695 13.043 0 15.574-7.9297 15.566-12.027-0.023437-10.551-8.7656-12.305-13.34-13.422 0 0-24.5-4.3008-29.641-17.758-5.9531-15.609-0.14063-24.637 3.3359-29.312 3.8281-5.125 9.418-8.2109 16.707-9.332v-6.6055c0-4.1758 3.3789-7.5586 7.5586-7.5586 4.1758 0 7.5586 3.3789 7.5586 7.5586v7.043c6.0547 1.3672 11.07 4.2734 14.641 8.9609 3.2539 4.2617 5.5859 11.438 4.9961 15.723-0.13281 0.94531-1.1484 6.1953-7.7539 6.1953-6.6055 0-7.0625-5.5117-7.0625-5.5117-0.38672-3.3555-0.84766-4.7695-2.2617-6.707-2.5781-3.3438-6.5352-4.3242-12.332-4.3242-3.4141 0-6.2812 0.74609-8.6055 2.2305-2.8359 1.8594-3.8789 4.5938-4.2578 8.1484-0.99609 9.3086 8.4102 12.656 10.727 13.402l15.078 4.9727c16.797 5.7773 19.441 16.977 19.441 24.262 0 9.8477-6.1836 25.301-22.609 28.648v8.1211c0 4.1758-3.3789 7.5586-7.5586 7.5586-4.1797 0.003906-7.5547-3.3672-7.5547-7.543z"/>
  <path d="m295.86 460.08c1.3555 2.5625 3.9766 4.0273 6.6914 4.0273 1.1875 0 2.3984-0.28125 3.5273-0.875 3.6875-1.9492 5.0977-6.5234 3.1484-10.211-2.1875-4.1328-4.0977-8.4492-5.6797-12.828-1.4219-3.9258-5.7578-5.9531-9.6797-4.5352-3.9258 1.4219-5.9531 5.7539-4.5352 9.6797 1.8242 5.0312 4.0195 9.9922 6.5273 14.742z"/>
  <path d="m293.44 385.92c3.3672 0 6.4336-2.2617 7.3164-5.6719 1.1641-4.5195 2.6602-9.0039 4.4453-13.32 1.5938-3.8594-0.24219-8.2773-4.0977-9.8711-3.8594-1.5977-8.2734 0.24219-9.8711 4.0977-2.0508 4.9609-3.7734 10.117-5.1133 15.316-1.043 4.0391 1.3906 8.1602 5.4297 9.2031 0.63281 0.16406 1.2656 0.24609 1.8906 0.24609z"/>
  <path d="m513.06 429.88c1.1016-5.2344 1.8555-10.605 2.2422-16.105l-7.5234-0.8125-7.5625-0.11719c-0.33203 4.6758-0.98828 9.3555-1.9492 13.922-0.86328 4.0859 1.7539 8.0898 5.8398 8.9531 0.52344 0.10938 1.0469 0.16797 1.5664 0.16797 3.5 0 6.6367-2.4453 7.3867-6.0078z"/>
  <path d="m306.02 348.22c1.3359 0.96094 2.875 1.4258 4.4102 1.4258 2.3477 0 4.6641-1.0898 6.1406-3.1445 2.7305-3.7891 5.75-7.4297 8.9766-10.812 2.8828-3.0234 2.7656-7.8047-0.25-10.688-3.0117-2.875-7.793-2.7695-10.688 0.25-3.7031 3.8828-7.168 8.0625-10.305 12.414-2.4414 3.3945-1.6758 8.1172 1.7148 10.555z"/>
  <path d="m282.45 403.06c-0.019531 0.91797-0.03125 1.832-0.03125 2.7422 0 4.457 0.25781 8.957 0.76563 13.371 0.44141 3.8555 3.7148 6.6914 7.4961 6.6914 0.29297 0 0.58594-0.015626 0.875-0.050782 4.1445-0.48047 7.1172-4.2266 6.6406-8.375-0.44141-3.8398-0.67188-7.7578-0.67188-11.645 0-0.79688 0.011719-1.5938 0.023438-2.3984 0.097656-4.1719-3.2109-7.6328-7.3789-7.7266-4.2969-0.25391-7.6289 3.2227-7.7188 7.3906z"/>
  <path d="m486.39 354.11c1.4102 2.3828 3.9297 3.707 6.5078 3.707 1.3086 0 2.6367-0.33594 3.8438-1.0547 3.5938-2.125 4.7812-6.7617 2.6562-10.352-2.7344-4.6211-5.8125-9.0938-9.1523-13.281-2.5938-3.2578-7.3516-3.8047-10.617-1.2031s-3.8047 7.3516-1.2031 10.617c2.9023 3.6484 5.582 7.5352 7.9648 11.566z"/>
  <path d="m433.3 294.25c-5.1133-1.5703-10.402-2.8008-15.723-3.6562-4.1328-0.69141-8 2.1406-8.6602 6.2656-0.66016 4.1211 2.1406 7.9961 6.2617 8.6562 4.6289 0.74219 9.2305 1.8125 13.672 3.1797 0.74219 0.22656 1.4844 0.33594 2.2227 0.33594 3.2305 0 6.2227-2.0898 7.2188-5.3398 1.2383-3.9922-1.0039-8.2188-4.9922-9.4414z"/>
  <path d="m374.78 291.62c-4.082 0.86328-6.6914 4.875-5.8242 8.957 0.75 3.5586 3.8906 5.9922 7.3867 5.9922 0.51953 0 1.0469-0.054688 1.5781-0.16797 4.5703-0.96875 9.2461-1.6211 13.898-1.9453 4.168-0.29297 7.3047-3.8984 7.0195-8.0625-0.29297-4.168-3.918-7.3359-8.0625-7.0195-5.3594 0.375-10.742 1.1328-15.996 2.2461z"/>
  <path d="m339.39 321.96c1.4141 0 2.8516-0.39844 4.125-1.2344 3.9141-2.5586 8.0391-4.8672 12.258-6.8555 3.7773-1.7852 5.3906-6.2891 3.6055-10.062-1.7852-3.7773-6.2891-5.3945-10.062-3.6055-4.8398 2.2891-9.582 4.9375-14.078 7.875-3.4922 2.2891-4.4727 6.9688-2.1914 10.461 1.4609 2.2148 3.875 3.4219 6.3438 3.4219z"/>
  <path d="m450.26 318.09c4.0312 2.3633 7.9336 5.0312 11.602 7.9297 1.3867 1.0977 3.043 1.6289 4.6797 1.6289 2.2305 0 4.4453-0.98438 5.9336-2.8711 2.5898-3.2734 2.0312-8.0273-1.2461-10.617-4.2109-3.332-8.6992-6.3984-13.332-9.1133-3.5859-2.1055-8.2266-0.90625-10.344 2.6953-2.1016 3.6055-0.89453 8.2383 2.707 10.348z"/>
  <path d="m479.69 479.41c-2.875-3.0234-7.6641-3.1445-10.688-0.26172-3.3906 3.2305-7.0312 6.2461-10.816 8.9688-3.3867 2.4336-4.1602 7.1602-1.7266 10.551 1.4766 2.0547 3.793 3.1484 6.1445 3.1484 1.5273 0 3.0664-0.45703 4.4023-1.4219 4.3477-3.125 8.5234-6.5898 12.418-10.293 3.0273-2.8867 3.1406-7.6719 0.26562-10.691z"/>
  <path d="m437.77 499.5c-4.3242 1.7891-8.8008 3.2891-13.312 4.457-4.0391 1.0469-6.4688 5.168-5.4258 9.2109 0.88281 3.4062 3.9492 5.668 7.3086 5.668 0.625 0 1.2578-0.082031 1.8945-0.24219 5.1875-1.3438 10.344-3.0664 15.316-5.1289 3.8555-1.5977 5.6836-6.0195 4.0898-9.875-1.5938-3.8633-6.0117-5.6875-9.8711-4.0898z"/>
  <path d="m490.84 448.92c-1.9883 4.2188-4.2969 8.3438-6.8555 12.27-2.2891 3.4922-1.3047 8.1758 2.1914 10.461 1.2734 0.83594 2.7109 1.2344 4.125 1.2344 2.4648 0 4.8828-1.2031 6.332-3.4219 2.9414-4.5039 5.5977-9.2461 7.8789-14.09 1.7773-3.7773 0.16016-8.2812-3.6133-10.062-3.7773-1.7734-8.2812-0.16406-10.059 3.6094z"/>
  <path d="m506.58 395.43c0.40625 0 0.82031-0.03125 1.2383-0.10156 4.1172-0.67578 6.9062-4.5664 6.2266-8.6875-0.86719-5.2891-2.125-10.574-3.7266-15.707-1.25-3.9883-5.4961-6.207-9.4648-4.957-3.9844 1.2461-6.2031 5.4805-4.957 9.4648 1.3945 4.4648 2.4844 9.0586 3.2461 13.66 0.60156 3.7031 3.8047 6.3281 7.4375 6.3281z"/>
  <path d="m322.45 472.3c-2.7422-3.1484-7.5117-3.4805-10.66-0.74219-3.1484 2.7344-3.4805 7.5117-0.74219 10.66 3.5234 4.0469 7.3555 7.8906 11.402 11.418 1.4297 1.25 3.2031 1.8594 4.9609 1.8594 2.1055 0 4.2031-0.875 5.6992-2.5898 2.7422-3.1484 2.4141-7.918-0.73047-10.664-3.5234-3.0742-6.8633-6.418-9.9297-9.9414z"/>
  <path d="m399.11 507.17c-2.4102 0-4.8281-0.085938-7.2695-0.25781-1.5352-0.10547-3.0586-0.25-4.5742-0.42188-4.1211-0.46875-7.8945 2.4844-8.3789 6.6289-0.48438 4.1445 2.4883 7.8945 6.6289 8.3789 1.7422 0.20703 3.4961 0.36719 5.2617 0.48828 2.7969 0.20312 5.5703 0.29688 8.332 0.29688 0.83984 0 1.6836-0.003906 2.5234-0.023438 4.1758-0.089843 7.4805-3.5469 7.3906-7.7188-0.089844-4.1758-3.6484-7.6641-7.7188-7.3906z"/>
  <path d="m369.05 510.83c1.4141-3.9258-0.62109-8.2578-4.543-9.6719-4.3945-1.582-8.7148-3.4922-12.844-5.6797-3.6914-1.9492-8.2617-0.53906-10.211 3.1484s-0.53906 8.2617 3.1484 10.211c4.75 2.5156 9.7305 4.7109 14.781 6.5352 0.84766 0.30859 1.7148 0.44922 2.5625 0.44922 3.0938 0 5.9961-1.9141 7.1055-4.9922z"/>
  <path d="m367.3 225.96c1.9336 0 3.8711-0.73438 5.3438-2.2109l18.797-18.801v70.367c0 4.1758 3.3789 7.5586 7.5586 7.5586 4.1758 0 7.5586-3.3789 7.5586-7.5586v-70.371l18.797 18.801c1.4766 1.4766 3.4102 2.2109 5.3438 2.2109 1.9336 0 3.8711-0.73438 5.3438-2.2109 2.9531-2.9492 2.9531-7.7344 0-10.688l-31.691-31.695c-0.70703-0.70703-1.5469-1.2656-2.4844-1.6523-0.035157-0.015626-0.074219-0.019532-0.10938-0.035157-0.85547-0.33594-1.7852-0.53516-2.7617-0.53516-0.97656 0-1.9062 0.20312-2.7617 0.53516-0.035156 0.015625-0.074219 0.019531-0.10938 0.035157-0.9375 0.38672-1.7773 0.94531-2.4844 1.6523l-31.691 31.695c-2.9531 2.9531-2.9531 7.7383 0 10.688 1.4883 1.4766 3.418 2.2148 5.3516 2.2148z"/>
  <path d="m623.36 411.03c0.015625-0.035156 0.019531-0.074219 0.035157-0.10938 0.33594-0.85547 0.53516-1.7852 0.53516-2.7617 0-0.97656-0.20312-1.8984-0.53516-2.7617-0.015626-0.035157-0.019532-0.074219-0.035157-0.10938-0.38281-0.9375-0.94531-1.7773-1.6523-2.4844l-31.691-31.691c-2.9531-2.9531-7.7344-2.9531-10.688 0-2.9531 2.9492-2.9531 7.7383 0 10.688l18.797 18.797h-70.363c-4.1758 0-7.5586 3.3789-7.5586 7.5586 0 4.1758 3.3789 7.5586 7.5586 7.5586h70.367l-18.797 18.797c-2.9531 2.9492-2.9531 7.7383 0 10.688 1.4766 1.4766 3.4102 2.2109 5.3438 2.2109 1.9336 0 3.8711-0.73438 5.3438-2.2109l31.691-31.691c0.69922-0.69922 1.2656-1.5391 1.6484-2.4766z"/>
  <path d="m425.36 587.64-18.797 18.801v-70.367c0-4.1758-3.3789-7.5586-7.5586-7.5586-4.1758 0-7.5586 3.3789-7.5586 7.5586v70.371l-18.797-18.801c-2.9531-2.9531-7.7344-2.9531-10.688 0-2.9531 2.9492-2.9531 7.7344 0 10.688l31.691 31.695c0.70703 0.70703 1.5469 1.2656 2.4844 1.6523 0.035156 0.015624 0.074219 0.019531 0.10938 0.035156 0.85547 0.33594 1.7852 0.53516 2.7617 0.53516 0.97656 0 1.9062-0.20312 2.7617-0.53516 0.035157-0.015625 0.074219-0.019532 0.10938-0.035156 0.9375-0.38672 1.7773-0.94531 2.4844-1.6523l31.691-31.695c2.9531-2.9531 2.9531-7.7383 0-10.688-2.9609-2.9531-7.7422-2.9531-10.695-0.003906z"/>
  <path d="m199.87 415.55h70.367c4.1758 0 7.5586-3.3789 7.5586-7.5586 0-4.1758-3.3789-7.5586-7.5586-7.5586l-70.367 0.003906 18.797-18.797c2.9531-2.9492 2.9531-7.7383 0-10.688-2.9531-2.9531-7.7344-2.9531-10.688 0l-31.691 31.691c-0.70703 0.70703-1.2656 1.5469-1.6523 2.4844-0.015625 0.035156-0.019531 0.074219-0.035157 0.10938-0.33594 0.85547-0.53516 1.7852-0.53516 2.7539 0 0.97266 0.20312 1.8984 0.53516 2.7539 0.015626 0.039062 0.019532 0.074218 0.035157 0.10938 0.38281 0.9375 0.94531 1.7773 1.6523 2.4844l31.691 31.691c1.4766 1.4766 3.4102 2.2109 5.3438 2.2109 1.9336 0 3.8711-0.73438 5.3438-2.2109 2.9531-2.9492 2.9531-7.7383 0-10.688z"/>
  <path d="m491.43 323.23c1.9336 0 3.8711-0.73437 5.3438-2.2109l49.762-49.758v26.586c0 4.1719 3.3789 7.5586 7.5586 7.5586 4.1719 0 7.5586-3.3789 7.5586-7.5586v-44.828c0-0.97656-0.20313-1.9062-0.53516-2.7617-0.015625-0.035156-0.019531-0.074218-0.035156-0.10938-0.76562-1.8633-2.2539-3.3516-4.1172-4.1172-0.035157-0.015625-0.074219-0.019532-0.10938-0.035156-0.39844-0.15625-0.80469-0.29688-1.2383-0.38281-0.49219-0.10156-1.0039-0.15234-1.5234-0.15234h-44.836c-4.1758 0-7.5586 3.3789-7.5586 7.5586 0 4.1758 3.3789 7.5586 7.5586 7.5586h26.59l-49.762 49.758c-2.9531 2.9492-2.9531 7.7344 0 10.688 1.4805 1.4688 3.4141 2.207 5.3438 2.207z"/>
  <path d="m551.2 510.93c-4.1758 0-7.5586 3.3789-7.5586 7.5586v26.586l-49.758-49.758c-2.9531-2.9531-7.7344-2.9531-10.688 0-2.9531 2.9492-2.9531 7.7383 0 10.688l49.758 49.758h-26.586c-4.1758 0-7.5586 3.3789-7.5586 7.5586 0 4.1758 3.3789 7.5586 7.5586 7.5586h44.828c0.97656 0 1.9062-0.20312 2.7617-0.53516 0.035156-0.015625 0.074219-0.019531 0.10938-0.035156 1.8633-0.76562 3.3516-2.2539 4.1094-4.1172 0.015625-0.035156 0.019531-0.074218 0.035156-0.10937 0.33594-0.85547 0.53516-1.7852 0.53516-2.7539v-44.828c0.011718-4.1914-3.3672-7.5703-7.5469-7.5703z"/>
  <path d="m301.7 494.71-49.762 49.758v-26.586c0-4.1719-3.3789-7.5586-7.5586-7.5586-4.1719 0-7.5586 3.3789-7.5586 7.5586v44.828c0 0.97656 0.20313 1.9062 0.53516 2.7617 0.015625 0.035157 0.019531 0.074219 0.035156 0.10938 0.76562 1.8633 2.2539 3.3516 4.1172 4.1172 0.035157 0.015625 0.074219 0.019531 0.10938 0.035156 0.85547 0.33594 1.7852 0.53516 2.7617 0.53516h44.836c4.1758 0 7.5586-3.3789 7.5586-7.5586 0-4.1758-3.3789-7.5586-7.5586-7.5586h-26.59l49.762-49.758c2.9531-2.9492 2.9531-7.7344 0-10.688-2.9531-2.9492-7.7344-2.9492-10.688 0.003906z"/>
  <path d="m243.9 308.16c4.1758 0 7.5586-3.3789 7.5586-7.5586v-26.586l49.758 49.758c1.4766 1.4766 3.4102 2.2109 5.3438 2.2109s3.8711-0.73438 5.3438-2.2109c2.9531-2.9492 2.9531-7.7383 0-10.688l-49.758-49.758h26.586c4.1758 0 7.5586-3.3789 7.5586-7.5586 0-4.1758-3.3789-7.5586-7.5586-7.5586h-44.828c-0.97656 0-1.9062 0.20312-2.7617 0.53516-0.035156 0.015625-0.074219 0.019531-0.10938 0.035156-1.8633 0.76562-3.3516 2.2539-4.1172 4.1172-0.015625 0.035156-0.019531 0.074218-0.035157 0.10938-0.33594 0.85547-0.53516 1.7852-0.53516 2.7617v44.828c0 4.1836 3.3789 7.5625 7.5547 7.5625z"/>
 </g>
</svg>