<?xml version="1.0" encoding="UTF-8"?>
<!-- The Best Svg Icon site in the world: iconSvg.co, Visit us! https://iconsvg.co -->
<svg fill="#000000" width="800px" height="800px" version="1.1" viewBox="144 144 512 512" xmlns="http://www.w3.org/2000/svg">
 <g>
  <path d="m407.87 281.92v-7.8711c8.4375 0 16.234-4.5 20.453-11.809 4.2188-7.3086 4.2188-16.309 0-23.617-4.2188-7.3047-12.016-11.809-20.453-11.809h-15.746c-4.3477 0-7.8711-3.5234-7.8711-7.8711s3.5234-7.8711 7.8711-7.8711h15.746c2.0859 0 4.0898 0.82813 5.5664 2.3047s2.3047 3.4805 2.3047 5.5664c0 4.3477 3.5234 7.8711 7.8711 7.8711 4.3477 0 7.875-3.5234 7.875-7.8711 0-6.2617-2.4883-12.27-6.918-16.699-4.4297-4.4297-10.438-6.918-16.699-6.918v-7.8711c0-4.3477-3.5234-7.8711-7.8711-7.8711s-7.875 3.5234-7.875 7.8711v7.8711c-8.4375 0-16.23 4.5039-20.449 11.809-4.2188 7.3086-4.2188 16.309 0 23.617s12.012 11.809 20.449 11.809h15.746c4.3477 0 7.8711 3.5234 7.8711 7.8711 0 4.3477-3.5234 7.8711-7.8711 7.8711h-15.746c-4.3477 0-7.8711-3.5234-7.8711-7.8711 0-4.3477-3.5234-7.8711-7.8711-7.8711-4.3477 0-7.8711 3.5234-7.8711 7.8711 0 6.2656 2.4883 12.27 6.9141 16.699 4.4297 4.4297 10.438 6.918 16.699 6.918v7.8711c0 4.3477 3.5273 7.8711 7.875 7.8711s7.8711-3.5234 7.8711-7.8711z"/>
  <path d="m557.44 266.18v7.8711c-8.4375 0-16.23 4.5-20.449 11.809-4.2188 7.3047-4.2188 16.309 0 23.613 4.2188 7.3086 12.012 11.809 20.449 11.809h15.746c4.3477 0 7.8711 3.5234 7.8711 7.8711 0 4.3477-3.5234 7.875-7.8711 7.875h-15.746c-4.3477 0-7.8711-3.5273-7.8711-7.875 0-4.3477-3.5234-7.8711-7.8711-7.8711-4.3477 0-7.8711 3.5234-7.8711 7.8711 0 6.2656 2.4883 12.273 6.9141 16.699 4.4297 4.4297 10.438 6.918 16.699 6.918v7.8711c0 4.3477 3.5273 7.875 7.875 7.875s7.8711-3.5273 7.8711-7.875v-7.8711c8.4375 0 16.234-4.5 20.453-11.809 4.2188-7.3047 4.2188-16.309 0-23.613-4.2188-7.3086-12.016-11.809-20.453-11.809h-15.746c-4.3477 0-7.8711-3.5234-7.8711-7.8711 0-4.3477 3.5234-7.875 7.8711-7.875h15.746c2.0859 0 4.0898 0.83203 5.5664 2.3086 1.4766 1.4727 2.3047 3.4766 2.3047 5.5664 0 4.3477 3.5234 7.8711 7.8711 7.8711 4.3477 0 7.875-3.5234 7.875-7.8711 0-6.2656-2.4883-12.273-6.918-16.699-4.4297-4.4297-10.438-6.918-16.699-6.918v-7.8711c0-4.3477-3.5234-7.875-7.8711-7.875s-7.875 3.5273-7.875 7.875z"/>
  <path d="m242.56 360.64v-7.8711c8.4375 0 16.234-4.5 20.453-11.809 4.2188-7.3047 4.2188-16.309 0-23.613-4.2188-7.3086-12.016-11.809-20.453-11.809h-15.746c-4.3477 0-7.8711-3.5234-7.8711-7.8711 0-4.3477 3.5234-7.875 7.8711-7.875h15.746c2.0859 0 4.0898 0.83203 5.5664 2.3086 1.4766 1.4727 2.3047 3.4766 2.3047 5.5664 0 4.3477 3.5234 7.8711 7.8711 7.8711 4.3477 0 7.875-3.5234 7.875-7.8711 0-6.2656-2.4883-12.273-6.918-16.699-4.4297-4.4297-10.438-6.918-16.699-6.918v-7.8711c0-4.3477-3.5234-7.875-7.8711-7.875s-7.875 3.5273-7.875 7.875v7.8711c-8.4375 0-16.23 4.5-20.449 11.809-4.2188 7.3047-4.2188 16.309 0 23.613 4.2188 7.3086 12.012 11.809 20.449 11.809h15.746c4.3477 0 7.8711 3.5234 7.8711 7.8711 0 4.3477-3.5234 7.875-7.8711 7.875h-15.746c-4.3477 0-7.8711-3.5273-7.8711-7.875 0-4.3477-3.5234-7.8711-7.8711-7.8711-4.3477 0-7.8711 3.5234-7.8711 7.8711 0 6.2656 2.4883 12.273 6.9141 16.699 4.4297 4.4297 10.438 6.918 16.699 6.918v7.8711c0 4.3477 3.5273 7.875 7.875 7.875s7.8711-3.5273 7.8711-7.875z"/>
  <path d="m415.74 510.21h-31.488c-14.609 0.015625-28.613 5.8281-38.945 16.156-10.332 10.332-16.141 24.34-16.16 38.949v62.977c0 2.0859 0.83203 4.0898 2.3086 5.5664 1.4766 1.4727 3.4766 2.3047 5.5664 2.3047h125.95c2.0859 0 4.0898-0.83203 5.5664-2.3047 1.4727-1.4766 2.3047-3.4805 2.3047-5.5664v-62.977c-0.019531-14.609-5.8281-28.617-16.16-38.949-10.328-10.328-24.336-16.141-38.945-16.156zm-70.848 110.21v-55.102c0.027344-8.1367 2.5859-16.059 7.3203-22.672l24.324 77.773zm34.086-45.027-13.855-44.242c4.0625-2.3203 8.5195-3.8672 13.148-4.5625l5.8242 23.145zm26.688-49.438-3.9375 15.742h-3.4648l-3.9375-15.742zm1.3398 94.465h-14.016l-4.25-13.699 9.8398-49.277h2.832l9.8398 49.277zm8.8945-70.691 5.8242-23.145v0.003906c4.625 0.69531 9.082 2.2422 13.145 4.5625l-13.855 44.242zm39.199 70.691h-31.645l24.324-77.777v0.003906c4.7383 6.6133 7.2969 14.535 7.3203 22.672z"/>
  <path d="m581.05 510.21h-31.488c-14.609 0.015625-28.613 5.8281-38.945 16.156-10.332 10.332-16.141 24.34-16.16 38.949v62.977c0 2.0859 0.83203 4.0898 2.3086 5.5664 1.4766 1.4727 3.4766 2.3047 5.5664 2.3047h125.95c2.0859 0 4.0898-0.83203 5.5664-2.3047 1.4727-1.4766 2.3047-3.4805 2.3047-5.5664v-62.977c-0.019531-14.609-5.8281-28.617-16.16-38.949-10.328-10.328-24.336-16.141-38.945-16.156zm-70.848 110.21v-55.102c0.027344-8.1367 2.5859-16.059 7.3203-22.672l24.324 77.773zm34.086-45.027-13.855-44.242c4.0625-2.3203 8.5195-3.8672 13.148-4.5625l5.8242 23.145zm26.688-49.438-3.9375 15.742h-3.4648l-3.9375-15.742zm1.3398 94.465h-14.016l-4.25-13.699 9.8398-49.277h2.832l9.8398 49.277zm8.8945-70.691 5.8242-23.145v0.003906c4.625 0.69531 9.082 2.2422 13.145 4.5625l-13.855 44.242zm39.199 70.691h-31.645l24.324-77.777v0.003906c4.7383 6.6133 7.2969 14.535 7.3203 22.672z"/>
  <path d="m604.67 470.85c-0.011719-9.0703-3.1484-17.859-8.8867-24.887-5.7344-7.0273-13.719-11.859-22.602-13.688v-48.492c24.277-2.6641 45.473-17.652 56.082-39.652 10.609-22.004 9.1367-47.918-3.8984-68.574-13.031-20.66-35.789-33.145-60.215-33.043-24.426 0.10156-47.074 12.777-59.938 33.543l-38.305-18.227c7.5664-21.668 4.168-45.656-9.1211-64.371-13.289-18.711-34.816-29.828-57.766-29.828-22.953 0-44.48 11.117-57.77 29.828-13.285 18.715-16.684 42.703-9.1211 64.371l-38.328 18.23v0.003906c-12.871-20.719-35.5-33.352-59.891-33.438-24.387-0.085938-47.105 12.387-60.121 33.012-13.02 20.625-14.504 46.5-3.9297 68.48 10.57 21.977 31.711 36.969 55.949 39.672v48.484c-12.855 2.625-23.559 11.484-28.539 23.625-4.9844 12.141-3.5859 25.965 3.7227 36.863 7.3086 10.898 19.566 17.438 32.691 17.438 13.121 0 25.379-6.5391 32.688-17.438 7.3086-10.898 8.707-24.723 3.7266-36.863-4.9844-12.141-15.688-21-28.543-23.625v-48.492c21.41-2.3281 40.594-14.297 52.09-32.512 11.496-18.211 14.059-40.676 6.9492-61.008l38.328-18.23c11.449 18.457 30.734 30.645 52.32 33.062-0.046875 0.14453-0.085938 0.29297-0.12109 0.44141v125.95c0.039062 0.26562 0.089844 0.52734 0.16016 0.78516-12.887 2.5742-23.637 11.414-28.66 23.559-5.0195 12.141-3.6523 25.992 3.6523 36.914 7.3047 10.926 19.578 17.484 32.723 17.484 13.141 0 25.414-6.5586 32.719-17.484 7.3047-10.922 8.6758-24.773 3.6523-36.914-5.0195-12.145-15.773-20.984-28.656-23.559 0.066406-0.25781 0.12109-0.51953 0.15625-0.78516v-125.95c-0.023438-0.15234-0.054688-0.30078-0.09375-0.44922 21.582-2.418 40.867-14.605 52.316-33.062l38.305 18.238c-7.1094 20.332-4.5508 42.801 6.9453 61.016 11.5 18.215 30.68 30.188 52.094 32.512v48.484c-9.7773 1.9961-18.434 7.6328-24.215 15.773-5.7812 8.1367-8.2539 18.164-6.918 28.059 1.3359 9.8906 6.3789 18.906 14.109 25.219 7.7305 6.3125 17.574 9.4531 27.531 8.7852 9.9609-0.66797 19.293-5.0938 26.109-12.383 6.8203-7.2891 10.613-16.898 10.617-26.879zm-346.37 0c0 6.2617-2.4883 12.27-6.9141 16.699-4.4297 4.4297-10.438 6.9141-16.699 6.9141-6.2656 0-12.273-2.4844-16.699-6.9141-4.4297-4.4297-6.918-10.438-6.918-16.699 0-6.2656 2.4883-12.27 6.918-16.699 4.4258-4.4297 10.434-6.918 16.699-6.918 6.2617 0 12.27 2.4883 16.699 6.918 4.4258 4.4297 6.9141 10.434 6.9141 16.699zm-23.613-102.34c-14.617 0-28.633-5.8086-38.965-16.141-10.336-10.336-16.141-24.352-16.141-38.965s5.8047-28.629 16.141-38.965c10.332-10.332 24.348-16.141 38.965-16.141 14.613 0 28.629 5.8086 38.965 16.141 10.332 10.336 16.137 24.352 16.137 38.965-0.015624 14.609-5.8281 28.617-16.156 38.945-10.332 10.332-24.336 16.141-38.945 16.16zm188.93 102.34c0 6.2617-2.4883 12.27-6.9141 16.699-4.4297 4.4297-10.438 6.9141-16.699 6.9141-6.2656 0-12.273-2.4844-16.699-6.9141-4.4297-4.4297-6.918-10.438-6.918-16.699 0-6.2656 2.4883-12.27 6.918-16.699 4.4258-4.4297 10.434-6.918 16.699-6.918 6.2617 0 12.27 2.4883 16.699 6.918 4.4258 4.4297 6.9141 10.434 6.9141 16.699zm-23.613-181.06c-14.617 0-28.633-5.8047-38.965-16.137-10.336-10.336-16.141-24.352-16.141-38.965 0-14.617 5.8047-28.633 16.141-38.965 10.332-10.336 24.348-16.141 38.965-16.141 14.613 0 28.629 5.8047 38.965 16.141 10.332 10.332 16.137 24.348 16.137 38.965-0.015624 14.609-5.8281 28.613-16.156 38.945-10.332 10.328-24.336 16.141-38.945 16.156zm110.21 23.617c0-14.613 5.8047-28.629 16.141-38.965 10.332-10.332 24.348-16.141 38.965-16.141 14.613 0 28.629 5.8086 38.965 16.141 10.332 10.336 16.137 24.352 16.137 38.965s-5.8047 28.629-16.137 38.965c-10.336 10.332-24.352 16.141-38.965 16.141-14.609-0.019531-28.617-5.8281-38.949-16.16-10.328-10.328-16.141-24.336-16.156-38.945zm55.105 181.05c-6.2656 0-12.273-2.4844-16.699-6.9141-4.4297-4.4297-6.918-10.438-6.918-16.699 0-6.2656 2.4883-12.27 6.918-16.699 4.4258-4.4297 10.434-6.918 16.699-6.918 6.2617 0 12.27 2.4883 16.699 6.918 4.4258 4.4297 6.9141 10.434 6.9141 16.699 0 6.2617-2.4883 12.27-6.9141 16.699-4.4297 4.4297-10.438 6.9141-16.699 6.9141z"/>
  <path d="m250.43 510.21h-31.488c-14.609 0.015625-28.613 5.8281-38.945 16.156-10.332 10.332-16.141 24.34-16.16 38.949v62.977c0 2.0859 0.83203 4.0898 2.3086 5.5664 1.4766 1.4727 3.4766 2.3047 5.5664 2.3047h125.95c2.0859 0 4.0898-0.83203 5.5664-2.3047 1.4727-1.4766 2.3047-3.4805 2.3047-5.5664v-62.977c-0.019531-14.609-5.8281-28.617-16.16-38.949-10.328-10.328-24.336-16.141-38.945-16.156zm-70.848 110.21v-55.102c0.027344-8.1367 2.5859-16.059 7.3203-22.672l24.324 77.773zm34.086-45.027-13.855-44.242c4.0625-2.3203 8.5195-3.8672 13.148-4.5625l5.8242 23.145zm26.688-49.438-3.9375 15.742h-3.4648l-3.9375-15.742zm1.3398 94.465h-14.016l-4.25-13.699 9.8398-49.277h2.832l9.8398 49.277zm8.8945-70.691 5.8242-23.145v0.003906c4.625 0.69531 9.082 2.2422 13.145 4.5625l-13.855 44.242zm39.199 70.691h-31.645l24.324-77.777v0.003906c4.7383 6.6133 7.2969 14.535 7.3203 22.672z"/>
 </g>
</svg>