<?xml version="1.0" encoding="UTF-8"?>
<!-- The Best Svg Icon site in the world: iconSvg.co, Visit us! https://iconsvg.co -->
<svg fill="#000000" width="800px" height="800px" version="1.1" viewBox="144 144 512 512" xmlns="http://www.w3.org/2000/svg">
 <g>
  <path d="m620.68 410.53c-20.379-19.273-53.543-19.289-74.125 0.18359l-57.258 57.898c-13.773 13.93-32.914 21.918-52.504 21.918h-6.2617c6.1719-7.5117 9.8906-17.16 9.8906-27.73 0-23.777-19.344-43.121-43.121-43.121l-139.79 0.003907c-25.617 0-46.449 19.676-46.449 43.855v11.246h-39.359c-4.3516 0-7.8711 3.5234-7.8711 7.8711v94.465c0 4.3477 3.5195 7.8711 7.8711 7.8711h23.617c4.3516 0 7.8711-3.5234 7.8711-7.8711 0-4.3477-3.5195-7.8711-7.8711-7.8711h-15.746v-78.719h31.488v62.977c0 4.3477 3.5195 7.8711 7.8711 7.8711 4.3516 0 7.8711-3.5234 7.8711-7.8711v-89.965c0-15.504 13.777-28.117 30.707-28.117h139.79c15.098 0 27.375 12.281 27.375 27.711 0 15.105-12.285 27.395-27.391 27.395h-20.91c-4.3516 0-7.8711 3.5234-7.8711 7.8711 0 4.3477 3.5195 7.8711 7.8711 7.8711h20.91c0.72656 0 1.4375-0.074219 2.1562-0.10938 0.1875 0.015625 0.34766 0.10938 0.54297 0.10938h36.809c23.77 0 46.984-9.6914 63.699-26.59l57.07-57.715c14.406-13.637 37.883-13.637 52.289 0 6.8047 6.4375 10.555 15.008 10.555 24.129s-3.75 17.688-10.555 24.129l-56.059 53.016c-30.91 29.238-73.93 46.008-118.02 46.008h-177.48c-4.3516 0-7.8711 3.5234-7.8711 7.8711 0 4.3477 3.5195 7.8711 7.8711 7.8711h177.47c48.078 0 95.039-18.34 128.85-50.316l56.059-53.016c9.9805-9.4414 15.477-22.07 15.477-35.562s-5.4961-26.125-15.477-35.566z"/>
  <path d="m313.41 396.06c1.8906 0 3.7891-0.67578 5.2969-2.0469l81.887-74.445 49.938 35.672c3.1133 2.2305 7.4102 1.8828 10.141-0.83984l112.52-112.52v28.227c0 4.3477 3.5195 7.8711 7.8711 7.8711 4.3516 0 7.8711-3.5234 7.8711-7.8711v-47.23c0-1.0234-0.20703-2.043-0.60547-3.0078-0.79687-1.9258-2.332-3.4609-4.2578-4.2578-0.96094-0.39844-1.9844-0.60547-3.0078-0.60547h-47.23c-4.3516 0-7.8711 3.5234-7.8711 7.8711s3.5195 7.8711 7.8711 7.8711h28.227l-107.8 107.8-49.676-35.484c-3.0195-2.1484-7.1328-1.918-9.8711 0.58594l-86.594 78.719c-3.2148 2.9219-3.4531 7.9023-0.53125 11.121 1.5547 1.707 3.6914 2.5742 5.8281 2.5742z"/>
 </g>
</svg>