<?xml version="1.0" encoding="UTF-8"?>
<!-- The Best Svg Icon site in the world: iconSvg.co, Visit us! https://iconsvg.co -->
<svg fill="#000000" width="800px" height="800px" version="1.1" viewBox="144 144 512 512" xmlns="http://www.w3.org/2000/svg">
 <g>
  <path d="m411.27 277c-19.355-0.011719-37.98 7.4062-52.031 20.719s-22.465 31.504-23.504 50.832c-1.0391 19.328 5.375 38.32 17.922 53.062 0.79688 0.98438 9.3789 11.621 16.727 17.969 6.3555 5.4531 15.074 12.922 13.578 40.797v0.24609 4.9883h0.003907c-0.003907 2.043 1.3125 3.8555 3.2539 4.4844 8.1328 2.7461 16.648 4.168 25.23 4.2109 14.199 0 22.887-4.2031 23.418-4.4688l0.003907 0.003906c1.6016-0.80078 2.6172-2.4375 2.6172-4.2305v-4.9922c0.003906-0.082032 0.003906-0.16406 0-0.24609-1.457-27.906 7.25-35.344 13.668-40.793 7.3984-6.3477 15.98-16.973 16.777-17.969 12.543-14.746 18.949-33.742 17.906-53.074-1.0469-19.332-9.4648-37.527-23.523-50.836s-32.688-20.719-52.047-20.703zm50.371 118.51-0.097657 0.11719c-0.078124 0.10938-8.6602 10.824-15.586 16.727-8.9922 7.7031-18.449 18.43-16.875 48.344v1.625c-5.3047 1.7305-18.223 4.6562-35.621-0.25391v-1.3672c1.5742-29.914-7.8711-40.641-16.875-48.344-6.8867-5.9023-15.508-16.648-15.598-16.727l-0.089844-0.11719v-0.003906c-10.984-12.895-16.602-29.512-15.699-46.426 0.90234-16.914 8.2578-32.836 20.547-44.488 12.293-11.656 28.586-18.152 45.523-18.152s33.23 6.4961 45.523 18.152c12.289 11.652 19.645 27.574 20.547 44.488 0.90234 16.914-4.7188 33.531-15.699 46.426z"/>
  <path d="m433.24 480.8c-0.1875 0.089844-19.57 8.8086-45.57-0.17578v-0.003906c-2.4648-0.85156-5.1562 0.45703-6.0117 2.9219-0.85156 2.4688 0.45703 5.1602 2.9219 6.0117 8.6133 3.0117 17.672 4.5625 26.797 4.5859 15.262 0 25.219-4.4766 25.84-4.7617 2.168-1.1953 3.0469-3.8633 2.0156-6.1172-1.0352-2.2539-3.6289-3.3281-5.9531-2.4609z"/>
  <path d="m433.24 501.4c-0.1875 0.089843-19.57 8.8086-45.57-0.17578-2.4648-0.85156-5.1562 0.45703-6.0117 2.9219-0.85156 2.4688 0.45703 5.1602 2.9219 6.0117 8.6133 3.0156 17.672 4.5703 26.797 4.5977 15.262 0 25.219-4.4883 25.84-4.7734 1.2305-0.45703 2.2188-1.4102 2.7227-2.625 0.50391-1.2188 0.47656-2.5898-0.070312-3.7852-0.55078-1.1953-1.5742-2.1094-2.8242-2.5195-1.25-0.41406-2.6133-0.28516-3.7656 0.34766z"/>
  <path d="m415.99 262.14v-25.211c0-2.6094-2.1133-4.7227-4.7227-4.7227s-4.7227 2.1133-4.7227 4.7227v25.211c0 2.6094 2.1133 4.7227 4.7227 4.7227s4.7227-2.1133 4.7227-4.7227z"/>
  <path d="m511.92 275.6-20.516 14.641c-2.125 1.5156-2.6172 4.4688-1.1016 6.5938s4.4688 2.6172 6.5938 1.1016l20.516-14.641c2.125-1.5156 2.6172-4.4688 1.1016-6.5938s-4.4688-2.6172-6.5938-1.1016z"/>
  <path d="m332.86 298.81c2.0586 0.007812 3.8828-1.3164 4.5117-3.2773 0.62891-1.957-0.078125-4.0977-1.7578-5.293l-20.516-14.641c-2.125-1.5156-5.0742-1.0234-6.5898 1.1016-1.5195 2.125-1.0234 5.0781 1.1016 6.5938l20.523 14.641c0.79688 0.56641 1.75 0.875 2.7266 0.875z"/>
  <path d="m498.27 379.34c-0.40625 1.1875-0.32031 2.4844 0.23047 3.6133 0.55469 1.125 1.5352 1.9844 2.7227 2.3867l23.844 8.168c0.49219 0.17188 1.0117 0.25781 1.5352 0.25781 2.3164 0.007812 4.3008-1.6641 4.6797-3.9531 0.37891-2.2852-0.95703-4.5117-3.1562-5.25l-23.82-8.1758c-1.1914-0.41406-2.5-0.33203-3.6328 0.21875-1.1328 0.55469-1.9961 1.5391-2.4023 2.7344z"/>
  <path d="m322.75 376.38-23.852 8.1562h-0.003906c-2.1719 0.76172-3.4844 2.9766-3.1055 5.2461 0.37891 2.2734 2.3398 3.9414 4.6406 3.957 0.52344 0 1.043-0.085938 1.5352-0.25781l23.844-8.168c1.2109-0.38672 2.2148-1.2422 2.7852-2.375 0.57031-1.1367 0.66016-2.4531 0.24609-3.6562-0.41016-1.1992-1.2891-2.1836-2.4336-2.7305-1.1484-0.54688-2.4648-0.60938-3.6562-0.17188z"/>
  <path d="m411.8 322.17c11.098 0 20.121 7.5664 20.121 16.867h0.003907c0.11328 2.5273 2.1992 4.5195 4.7266 4.5195 2.5312 0 4.6133-1.9922 4.7305-4.5195 0-13.078-10.824-23.949-24.848-25.977v-10.973c-0.11328-2.5273-2.1992-4.5156-4.7266-4.5156-2.5312 0-4.6133 1.9883-4.7305 4.5156v10.973c-14.07 2.0273-24.848 12.898-24.848 25.977 0 16.473 11.059 26.312 29.52 26.312 11.098 0 20.121 7.5664 20.121 16.867 0.003906 9.2969-8.9492 16.855-20.07 16.855-11.121 0-20.113-7.5586-20.113-16.855h0.003906c0.058594-1.293-0.41406-2.5508-1.3086-3.4883-0.89062-0.93359-2.1289-1.4609-3.4219-1.4609-1.293 0-2.5273 0.52734-3.4219 1.4609-0.89453 0.9375-1.3633 2.1953-1.3047 3.4883 0 13.078 10.773 23.949 24.848 25.969v10.973l-0.003907-0.003906c-0.058593 1.293 0.41406 2.5508 1.3086 3.4844 0.89062 0.9375 2.1289 1.4648 3.4219 1.4648s2.5273-0.52734 3.4219-1.4648c0.89062-0.93359 1.3633-2.1914 1.3047-3.4844v-10.973c14.062-2.0156 24.848-12.891 24.848-25.969 0-14.516-13.266-26.312-29.578-26.312-13.156 0-20.113-5.8359-20.113-16.867 0.019532-9.293 9.043-16.863 20.109-16.863z"/>
  <path d="m393.41 205.23c-27.758 0-52.508 5.0391-73.555 14.977-18.379 8.6055-34.457 21.449-46.906 37.48-28.023 36.043-31.379 77.688-31.438 94.59l-20.871 78.406c-1.3711 5.168-0.26562 10.68 2.9922 14.918 3.2578 4.2383 8.3008 6.7266 13.648 6.7305h15.488v75.246c0 8.7266 3.5625 17.074 9.8594 23.117 6.3008 6.0391 14.789 9.25 23.508 8.8945l49.504-2.0547v32.52c0.11719 2.5273 2.1992 4.5156 4.7266 4.5156 2.5312 0 4.6133-1.9883 4.7305-4.5156v-37.453c0-1.2852-0.52344-2.5156-1.457-3.4062-0.92969-0.88672-2.1797-1.3633-3.4648-1.3164l-54.434 2.2617c-6.1406 0.23828-12.113-2.0312-16.547-6.2852-4.4336-4.2578-6.9453-10.133-6.9609-16.277v-79.969c0.003907-1.2539-0.49219-2.4609-1.3789-3.3477-0.88672-0.88672-2.0898-1.3867-3.3438-1.3867h-20.23c-2.4141 0.003906-4.6953-1.1133-6.168-3.0273-1.4727-1.9102-1.9727-4.4023-1.3516-6.7344l21.027-78.996c0.10938-0.39844 0.16016-0.80859 0.16016-1.2188 0.007813-51.297 29.98-138.22 142.46-138.22 57.613 0 101.66 13.156 130.87 39.086 30.676 27.176 46.203 69.41 46.203 125.58 0 59.512-21.254 97.277-39.094 118.49-19.355 23.016-38.996 32.109-39.184 32.188-1.6953 0.76172-2.7891 2.4492-2.7852 4.3086v55.715c0 2.6094 2.1133 4.7227 4.7227 4.7227 2.6094 0 4.7227-2.1133 4.7227-4.7227v-52.793c6.4141-3.4219 22.887-13.402 39.418-32.941 19-22.445 41.652-62.348 41.652-124.97 0-115.52-62.758-174.11-186.53-174.11z"/>
 </g>
</svg>