<?xml version="1.0" encoding="UTF-8"?>
<!-- The Best Svg Icon site in the world: iconSvg.co, Visit us! https://iconsvg.co -->
<svg fill="#000000" width="800px" height="800px" version="1.1" viewBox="144 144 512 512" xmlns="http://www.w3.org/2000/svg">
 <g>
  <path d="m242.56 250.43c2.0859 0 4.0898 0.82812 5.5664 2.3047s2.3047 3.4805 2.3047 5.5664h15.746c-0.023437-4.8672-1.5469-9.6094-4.3633-13.574-2.8203-3.9688-6.793-6.9688-11.383-8.5938v-9.3203h-15.742v9.3203c-7.0547 2.4883-12.512 8.1719-14.703 15.324-2.1875 7.1523-0.85547 14.918 3.5977 20.93 4.4531 6.0078 11.496 9.5469 18.977 9.5312 3.1836 0 6.0547 1.918 7.2734 4.8594s0.54297 6.3281-1.707 8.5781c-2.2539 2.2539-5.6367 2.9258-8.5781 1.707s-4.8594-4.0898-4.8594-7.2734h-15.746c0.019532 4.8672 1.543 9.6094 4.3633 13.578 2.8164 3.9688 6.793 6.9688 11.383 8.5898v9.3203h15.742v-9.3203c7.0547-2.4844 12.512-8.1719 14.699-15.324 2.1914-7.1484 0.85547-14.918-3.5977-20.926-4.4531-6.0078-11.492-9.5469-18.973-9.5312-4.3477 0-7.8711-3.5273-7.8711-7.875 0-4.3477 3.5234-7.8711 7.8711-7.8711z"/>
  <path d="m565.31 195.73v-16.145h15.742v-15.746h-47.23v15.746h15.742v16.145c-26.125 2.625-49.223 18.098-61.586 41.262-12.363 23.164-12.363 50.969 0 74.133 12.363 23.16 35.461 38.637 61.586 41.258v24.004h-141.7v-23.617h47.23c2.0898 0 4.0898-0.82812 5.5664-2.3047 1.4766-1.4766 2.3086-3.4805 2.3086-5.5664v-55.105c-0.019531-12.086-3.5117-23.914-10.066-34.07-6.5547-10.156-15.891-18.215-26.895-23.215 8.0508-7.0898 12.855-17.156 13.309-27.875s-3.4883-21.156-10.914-28.898c-7.4219-7.7422-17.684-12.121-28.41-12.121s-20.992 4.3789-28.414 12.121c-7.4219 7.7422-11.363 18.18-10.914 28.898 0.45312 10.719 5.2617 20.785 13.309 27.875-11.004 5-20.34 13.059-26.895 23.215-6.5508 10.156-10.047 21.984-10.062 34.07v55.105c0 2.0859 0.82812 4.0898 2.3047 5.5664 1.4766 1.4766 3.4766 2.3047 5.5664 2.3047h47.23v23.617h-141.7v-24.02c27.051-2.7188 50.785-19.203 62.777-43.602 11.992-24.398 10.543-53.258-3.8281-76.336s-39.633-37.105-66.82-37.105-52.449 14.027-66.824 37.105c-14.371 23.078-15.816 51.938-3.8242 76.336 11.992 24.398 35.727 40.883 62.777 43.602v31.891c0 2.0898 0.82812 4.0898 2.3047 5.5664 1.4766 1.4766 3.4766 2.3047 5.5664 2.3047h149.57v28.23l-10.18-10.18-11.133 11.133 23.617 23.617h0.003906c3.0742 3.0703 8.0547 3.0703 11.129 0l23.617-23.617-11.133-11.133-10.176 10.18v-28.23h149.57c2.0898 0 4.0898-0.82812 5.5664-2.3047 1.4766-1.4766 2.3086-3.4766 2.3086-5.5664v-31.891c26.125-2.6211 49.223-18.098 61.586-41.262 12.363-23.16 12.363-50.965 0-74.129-12.363-23.164-35.461-38.637-61.586-41.262zm-385.73 78.32c0-16.703 6.6367-32.723 18.445-44.531 11.809-11.812 27.828-18.445 44.531-18.445s32.719 6.6328 44.531 18.445c11.809 11.809 18.445 27.828 18.445 44.531s-6.6367 32.719-18.445 44.531c-11.812 11.809-27.828 18.445-44.531 18.445-16.695-0.019532-32.703-6.6602-44.512-18.469-11.805-11.805-18.445-27.812-18.465-44.508zm220.42-94.465c6.2617 0 12.27 2.4883 16.699 6.918 4.4258 4.4258 6.9141 10.434 6.9141 16.699 0 6.2617-2.4883 12.27-6.9141 16.699-4.4297 4.4258-10.438 6.9141-16.699 6.9141-6.2656 0-12.273-2.4883-16.699-6.9141-4.4297-4.4297-6.918-10.438-6.918-16.699 0-6.2656 2.4883-12.273 6.918-16.699 4.4258-4.4297 10.434-6.918 16.699-6.918zm-47.234 157.44v-47.234c0-16.875 9.0039-32.465 23.617-40.902 14.613-8.4375 32.617-8.4375 47.23 0s23.617 24.027 23.617 40.902v47.23zm204.67 0c-16.699 0-32.719-6.6367-44.531-18.445-11.809-11.812-18.445-27.828-18.445-44.531s6.6367-32.723 18.445-44.531c11.812-11.812 27.832-18.445 44.531-18.445 16.703 0 32.723 6.6328 44.531 18.445 11.812 11.809 18.445 27.828 18.445 44.531-0.019531 16.695-6.6602 32.703-18.465 44.508-11.805 11.809-27.812 18.449-44.512 18.469z"/>
  <path d="m557.44 262.91-10.18-10.18-11.133 11.133 15.742 15.742 0.007812 0.003906c3.0742 3.0703 8.0547 3.0703 11.129 0l31.488-31.488-11.133-11.133z"/>
  <path d="m297.66 455.1v55.105c0.023438 6.9609 2.3555 13.715 6.6289 19.211 4.2734 5.4961 10.246 9.418 16.984 11.16v87.711c0 2.0859 0.83203 4.0898 2.3047 5.5664 1.4766 1.4727 3.4805 2.3047 5.5664 2.3047h141.7c2.0859 0 4.0898-0.83203 5.5664-2.3047 1.4766-1.4766 2.3047-3.4805 2.3047-5.5664v-87.711c6.7383-1.7422 12.711-5.6641 16.984-11.16 4.2734-5.4961 6.6055-12.25 6.6328-19.211v-55.105c0-2.0859-0.83203-4.0898-2.3086-5.5664-1.4727-1.4766-3.4766-2.3047-5.5664-2.3047h-188.93c-4.3477 0-7.8711 3.5234-7.8711 7.8711zm118.08 165.31h-31.488v-47.23h31.488zm47.23 0h-31.484v-55.102c0-2.0898-0.83203-4.0898-2.3086-5.5664-1.4766-1.4766-3.4766-2.3086-5.5664-2.3086h-47.23c-4.3477 0-7.8711 3.5273-7.8711 7.875v55.105l-31.488-0.003907v-79.812c6.0859-1.5547 11.57-4.8945 15.742-9.5898 5.9727 6.7891 14.574 10.684 23.617 10.684 9.0391 0 17.645-3.8945 23.617-10.684 5.9688 6.7891 14.574 10.684 23.613 10.684 9.043 0 17.648-3.8945 23.617-10.684 4.1758 4.6953 9.6562 8.0352 15.746 9.5898zm-149.57-157.44h173.18v47.23c0 5.625-3 10.82-7.8711 13.633s-10.871 2.8125-15.742 0c-4.875-2.8125-7.875-8.0078-7.875-13.633v-7.8711c0-4.3477-3.5234-7.875-7.8711-7.875-4.3477 0-7.8711 3.5273-7.8711 7.875v7.8711c0 5.625-3 10.82-7.8711 13.633-4.8711 2.8125-10.875 2.8125-15.746 0-4.8711-2.8125-7.8711-8.0078-7.8711-13.633v-7.8711c0-4.3477-3.5234-7.875-7.8711-7.875s-7.875 3.5273-7.875 7.875v7.8711c0 5.625-3 10.82-7.8711 13.633s-10.871 2.8125-15.742 0c-4.8711-2.8125-7.875-8.0078-7.875-13.633v-7.8711c0-4.3477-3.5234-7.875-7.8711-7.875s-7.8711 3.5273-7.8711 7.875v7.8711c0 5.625-3 10.82-7.8711 13.633-4.8711 2.8125-10.875 2.8125-15.746 0s-7.8711-8.0078-7.8711-13.633z"/>
 </g>
</svg>