<?xml version="1.0" encoding="UTF-8"?>
<!-- The Best Svg Icon site in the world: iconSvg.co, Visit us! https://iconsvg.co -->
<svg width="800px" height="800px" version="1.1" viewBox="144 144 512 512" xmlns="http://www.w3.org/2000/svg">
 <defs>
  <clipPath id="c">
   <path d="m284 515h232v136.9h-232z"/>
  </clipPath>
  <clipPath id="b">
   <path d="m420 148.09h231.9v346.91h-231.9z"/>
  </clipPath>
  <clipPath id="a">
   <path d="m148.09 148.09h231.91v346.91h-231.91z"/>
  </clipPath>
 </defs>
 <g clip-path="url(#c)">
  <path d="m494.46 536.45c0 33.75-18.004 64.938-47.23 81.809-29.227 16.875-65.238 16.875-94.465 0-29.227-16.871-47.23-48.059-47.23-81.809v-20.992h-20.992v20.992c0 41.25 22.004 79.367 57.727 99.988 35.723 20.625 79.734 20.625 115.46 0 35.723-20.621 57.727-58.738 57.727-99.988v-20.992h-20.992z"/>
 </g>
 <path d="m379.01 483.96c-5.5703 0-10.91 2.2148-14.844 6.1484-3.9375 3.9375-6.1484 9.2773-6.1484 14.844v20.992c0 5.5703 2.2109 10.91 6.1484 14.844 3.9336 3.9375 9.2734 6.1484 14.844 6.1484h41.984v20.992h-41.984v-10.496h-20.992v10.496c0 5.5703 2.2109 10.91 6.1484 14.844 3.9336 3.9375 9.2734 6.1484 14.844 6.1484h10.496v20.992h20.992v-20.992h10.496c5.5664 0 10.906-2.2109 14.844-6.1484 3.9336-3.9336 6.1484-9.2734 6.1484-14.844v-20.992c0-5.5664-2.2148-10.906-6.1484-14.844-3.9375-3.9336-9.2773-6.1484-14.844-6.1484h-41.984v-20.992h41.984v10.496h20.992v-10.496c0-5.5664-2.2148-10.906-6.1484-14.844-3.9375-3.9336-9.2773-6.1484-14.844-6.1484h-10.496v-20.988h-20.992v20.992z"/>
 <g clip-path="url(#b)">
  <path d="m536.45 263.55v20.992c25.055 0 49.082 9.9531 66.797 27.668 17.715 17.715 27.668 41.742 27.668 66.797 0 25.051-9.9531 49.078-27.668 66.797-17.715 17.715-41.742 27.668-66.797 27.668-25.051 0-49.078-9.9531-66.793-27.668-17.719-17.719-27.668-41.746-27.668-66.797v-97.352c14.129-5.3438 41.984-19.668 41.984-49.594l-0.003906-48.137 24.066 24.066 14.84-14.84-41.984-41.984h0.003906c-4.0977-4.0977-10.742-4.0977-14.84 0l-41.984 41.984 14.84 14.84 24.07-24.066v48.137c0 22.84-33.715 31.719-34.039 31.805v-0.003907c-4.6719 1.1719-7.9453 5.3672-7.9453 10.184v104.96c0 30.621 12.164 59.988 33.816 81.637 21.652 21.652 51.016 33.816 81.637 33.816 30.621 0 59.988-12.164 81.641-33.816 21.652-21.648 33.816-51.016 33.816-81.637 0-30.621-12.164-59.988-33.816-81.641-21.652-21.652-51.02-33.816-81.641-33.816z"/>
 </g>
 <path d="m525.95 305.54v20.992h-10.496c-5.5664 0-10.906 2.2109-14.844 6.1484-3.9336 3.9375-6.1484 9.2734-6.1484 14.844v20.992c0 5.5664 2.2148 10.906 6.1484 14.844 3.9375 3.9336 9.2773 6.1484 14.844 6.1484h41.984v20.992h-41.984v-10.496h-20.992v10.496c0 5.5664 2.2148 10.906 6.1484 14.844 3.9375 3.9336 9.2773 6.1484 14.844 6.1484h10.496v20.992h20.992v-20.992h10.496c5.5703 0 10.91-2.2148 14.844-6.1484 3.9375-3.9375 6.1484-9.2773 6.1484-14.844v-20.992c0-5.5703-2.2109-10.91-6.1484-14.844-3.9336-3.9375-9.2734-6.1484-14.844-6.1484h-41.984v-20.992h41.984v10.496h20.992v-10.496c0-5.5703-2.2109-10.906-6.1484-14.844-3.9336-3.9375-9.2734-6.1484-14.844-6.1484h-10.496v-20.992z"/>
 <g clip-path="url(#a)">
  <path d="m379.01 379.01v-104.96c0-4.8086-3.2656-9.0039-7.9258-10.184-0.34766-0.082031-34.059-8.9609-34.059-31.801v-48.137l24.066 24.066 14.84-14.84-41.984-41.984c-4.0977-4.0977-10.742-4.0977-14.84 0l-41.984 41.984 14.84 14.84 24.07-24.066v48.137c0 29.926 27.855 44.25 41.984 49.594v97.352c0 25.051-9.9531 49.078-27.668 66.797-17.715 17.715-41.742 27.668-66.797 27.668-25.055 0-49.082-9.9531-66.797-27.668-17.715-17.719-27.668-41.746-27.668-66.797 0-25.055 9.9531-49.082 27.668-66.797 17.715-17.715 41.742-27.668 66.797-27.668v-20.992c-30.621 0-59.988 12.164-81.641 33.816-21.652 21.652-33.816 51.02-33.816 81.641 0 30.621 12.164 59.988 33.816 81.637 21.652 21.652 51.02 33.816 81.641 33.816 30.621 0 59.988-12.164 81.641-33.816 21.652-21.648 33.816-51.016 33.816-81.637z"/>
 </g>
 <path d="m253.05 305.54v20.992h-10.496c-5.5664 0-10.906 2.2109-14.844 6.1484s-6.1484 9.2734-6.1484 14.844v20.992c0 5.5664 2.2109 10.906 6.1484 14.844 3.9375 3.9336 9.2773 6.1484 14.844 6.1484h41.984v20.992h-41.984v-10.496h-20.992v10.496c0 5.5664 2.2109 10.906 6.1484 14.844 3.9375 3.9336 9.2773 6.1484 14.844 6.1484h10.496v20.992h20.992v-20.992h10.496c5.5664 0 10.906-2.2148 14.844-6.1484 3.9375-3.9375 6.1484-9.2773 6.1484-14.844v-20.992c0-5.5703-2.2109-10.91-6.1484-14.844-3.9375-3.9375-9.2773-6.1484-14.844-6.1484h-41.984v-20.992h41.984v10.496h20.992v-10.496c0-5.5703-2.2109-10.906-6.1484-14.844s-9.2773-6.1484-14.844-6.1484h-10.496v-20.992z"/>
</svg>