<?xml version="1.0" encoding="UTF-8"?>
<!-- The Best Svg Icon site in the world: iconSvg.co, Visit us! https://iconsvg.co -->
<svg fill="#000000" width="800px" height="800px" version="1.1" viewBox="144 144 512 512" xmlns="http://www.w3.org/2000/svg">
 <g>
  <path d="m575.89 400c0-15.824-11.672-28.98-26.859-31.301l0.003906-154.25c8.2266-0.57812 14.746-7.4414 14.746-15.809v-8.0859c0-8.75-7.1172-15.871-15.871-15.871h-285.75c-8.75 0-15.871 7.1172-15.871 15.871v8.0859c0 8.375 6.5195 15.234 14.746 15.809v154.26c-15.184 2.3242-26.859 15.473-26.859 31.301 0 15.824 11.668 28.98 26.859 31.301v154.26c-8.2266 0.57812-14.746 7.4414-14.746 15.809v8.0859c0 8.75 7.1172 15.871 15.871 15.871h285.75c8.75 0 15.871-7.1172 15.871-15.871v-8.0859c0-8.375-6.5195-15.234-14.746-15.809v-154.26c15.184-2.3281 26.855-15.477 26.855-31.305zm-319.97-201.37v-8.0859c0-3.4453 2.8047-6.2539 6.2539-6.2539h285.75c3.4453 0 6.2539 2.8047 6.2539 6.2539v8.0859c0 3.4453-2.8047 6.2539-6.2539 6.2539h-285.75c-3.4531 0-6.2539-2.8047-6.2539-6.2539zm258 315.62-11.598-3.8555c-0.22266-3.1797-0.59766-6.3867-1.1328-9.5742-0.53516-3.1797-1.2227-6.3398-2.0664-9.4297l9.6992-7.4297c1.9062-1.4609 2.4453-4.1016 1.2578-6.1875l-17.453-30.77c-1.1836-2.0859-3.7227-2.9844-5.9531-2.0977l-11.359 4.5039c-4.4531-4.6289-9.3672-8.8125-14.672-12.484l2.6602-11.93c0.51953-2.3438-0.76562-4.7109-3.0117-5.5469l-33.156-12.359c-2.2461-0.83594-4.7695 0.10938-5.9102 2.2227l-5.7891 10.734c-6.4023-0.67969-12.863-0.72656-19.281-0.13281l-5.6328-10.844c-1.1094-2.1328-3.6172-3.1172-5.875-2.3125l-33.332 11.844c-2.2617 0.80078-3.582 3.1484-3.0977 5.5l2.4648 11.949c-5.3398 3.5859-10.316 7.7031-14.852 12.293l-11.281-4.6836c-2.2148-0.91797-4.7695-0.066406-5.9922 2.0039l-17.93 30.5c-1.2148 2.0703-0.71875 4.7148 1.1641 6.207l9.5781 7.5703c-1.7969 6.1914-2.9688 12.551-3.4961 18.965l-11.633 3.6562c-2.0039 0.62891-3.3672 2.4883-3.3672 4.5859v68.336h-22.203v-154.2c15.184-2.3242 26.859-15.477 26.859-31.301s-11.668-28.98-26.859-31.301v-154.2h22.203v69.527c0 2.0703 1.3281 3.9102 3.293 4.5664l11.594 3.8438c0.22266 3.1836 0.59766 6.3945 1.1328 9.5781 0.53516 3.1797 1.2227 6.3398 2.0664 9.4258l-9.6914 7.4297c-1.9062 1.4609-2.4453 4.1016-1.2578 6.1875l17.445 30.77c1.1836 2.0859 3.7227 2.9844 5.9531 2.0977l11.359-4.5039c4.4648 4.6367 9.375 8.8164 14.672 12.488l-2.6602 11.93c-0.52344 2.3438 0.76562 4.7109 3.0117 5.5508l33.156 12.352c2.2461 0.83594 4.7695-0.10938 5.9102-2.2227l5.7891-10.73c6.4023 0.67969 12.863 0.72656 19.285 0.13281l5.6328 10.844c0.84766 1.6328 2.5156 2.5898 4.2656 2.5898 0.53516 0 1.0781-0.089844 1.6133-0.27734l33.328-11.844c2.2617-0.80078 3.582-3.1484 3.0977-5.5l-2.4648-11.949c5.3359-3.582 10.309-7.6992 14.852-12.293l11.281 4.6797c2.2148 0.91797 4.7695 0.066407 5.9844-2.0039l17.93-30.5c1.2148-2.0703 0.71875-4.7188-1.1641-6.207l-9.5781-7.5703c1.793-6.1914 2.9688-12.543 3.4961-18.965l11.637-3.668c2-0.62891 3.3594-2.4883 3.3594-4.5859v-71.164h22.203v154.2c-15.184 2.3242-26.859 15.473-26.859 31.301 0 15.824 11.672 28.98 26.859 31.301v154.2h-22.199v-66.688c0.011719-2.0625-1.3164-3.9023-3.2852-4.5508zm-194.01-29.797-8.8711-7.0195 13.684-23.281 10.461 4.3438c1.8633 0.76953 4.0117 0.30078 5.375-1.1836 5.3242-5.7734 11.391-10.793 18.031-14.922 1.7148-1.0625 2.5781-3.0781 2.1719-5.0547l-2.2812-11.074 25.441-9.043 5.2227 10.047c0.92578 1.7891 2.875 2.8125 4.8711 2.5547 7.7852-0.99219 15.664-0.94141 23.422 0.15625 1.9883 0.28125 3.9492-0.70703 4.9062-2.4805l5.3594-9.9453 25.305 9.4375-2.4648 11.055c-0.4375 1.9648 0.39844 3.9961 2.0898 5.0898 6.6094 4.2578 12.605 9.3555 17.82 15.168 1.3438 1.5 3.4805 2 5.3516 1.2578l10.523-4.1719 13.32 23.488-8.9844 6.8828c-1.5977 1.2227-2.2617 3.3164-1.668 5.2461 1.1484 3.6992 2.0625 7.5352 2.707 11.406 0.65625 3.8984 1.0469 7.8281 1.1797 11.68 0.070313 2.0117 1.3789 3.7617 3.2891 4.3984l11.422 3.793v63.219h-205.12v-64.809l11.41-3.5859c1.9258-0.60547 3.2656-2.3438 3.3594-4.3594 0.36719-7.8125 1.7969-15.562 4.2461-23.02 0.64062-1.918 0.003906-4.0234-1.5781-5.2734zm170.26-166.07 8.8711 7.0195-13.684 23.281-10.461-4.3359c-1.8633-0.76953-4.0039-0.30078-5.375 1.1797-5.3359 5.7773-11.402 10.801-18.031 14.922-1.707 1.0625-2.5742 3.082-2.1719 5.0547l2.2812 11.074-25.441 9.043-5.2227-10.047c-0.93359-1.7891-2.875-2.8047-4.8711-2.5547-7.7891 0.99219-15.668 0.9375-23.422-0.15625-1.9961-0.28125-3.9492 0.70703-4.9062 2.4805l-5.3594 9.9414-25.305-9.4258 2.4648-11.055c0.4375-1.9648-0.39844-4-2.0898-5.0898-6.5938-4.2422-12.59-9.3516-17.82-15.168-1.3438-1.4961-3.4805-1.9961-5.3516-1.2539l-10.531 4.1719-13.32-23.488 8.9844-6.8828c1.5977-1.2227 2.2617-3.3164 1.668-5.2383-1.1484-3.6992-2.0625-7.5352-2.707-11.406-0.65625-3.8945-1.0469-7.8281-1.1836-11.684-0.070313-2.0117-1.3789-3.7695-3.293-4.3984l-11.418-3.7852v-66.055h205.12v67.637l-11.41 3.5977c-1.918 0.60547-3.2578 2.3438-3.3555 4.3594-0.37109 7.8203-1.7969 15.562-4.2461 23.02-0.62891 1.8867 0.003906 3.9922 1.5859 5.2422zm-246.36 81.617c0-12.156 9.8906-22.051 22.051-22.051 12.16 0 22.051 9.8906 22.051 22.051s-9.8906 22.051-22.051 22.051c-12.16 0-22.051-9.8906-22.051-22.051zm310.36 201.37v8.0859c0 3.4453-2.8047 6.2539-6.2539 6.2539h-285.75c-3.4453 0-6.2539-2.8047-6.2539-6.2539v-8.0859c0-3.4453 2.8047-6.2539 6.2539-6.2539h285.75c3.4492 0 6.2539 2.8086 6.2539 6.2539zm-9.9453-179.32c-12.156 0-22.051-9.8906-22.051-22.051 0-12.156 9.8906-22.051 22.051-22.051s22.051 9.8906 22.051 22.051-9.8867 22.051-22.051 22.051z"/>
  <path d="m400.28 264.07h20.656c2.6562 0 4.8047-2.1523 4.8047-4.8047 0-2.6562-2.1523-4.8047-4.8047-4.8047h-12.07v-9.9102c0-2.6562-2.1523-4.8047-4.8047-4.8047-2.6562 0-4.8047 2.1523-4.8047 4.8047v9.9609c-9.3945 0.53906-16.883 8.332-16.883 17.859 0 9.875 8.0352 17.91 17.91 17.91h7.5625c4.5703 0 8.2891 3.7227 8.2891 8.2969s-3.7188 8.293-8.2891 8.293h-20.66c-2.6562 0-4.8047 2.1523-4.8047 4.8047 0 2.6562 2.1523 4.8047 4.8047 4.8047h12.07v9.9141c0 2.6562 2.1523 4.8047 4.8047 4.8047 2.6562 0 4.8047-2.1523 4.8047-4.8047v-9.9688c9.3945-0.53906 16.879-8.3281 16.879-17.859 0-9.875-8.0312-17.91-17.906-17.91h-7.5625c-4.5742 0-8.2969-3.7188-8.2969-8.293s3.7227-8.293 8.3008-8.293z"/>
  <path d="m404.06 225c-33.344 0-60.461 27.125-60.461 60.461 0 33.336 27.125 60.461 60.461 60.461 33.344 0 60.461-27.125 60.461-60.461 0-33.336-27.117-60.461-60.461-60.461zm0 111.31c-28.035 0-50.848-22.812-50.848-50.848s22.812-50.848 50.848-50.848 50.848 22.812 50.848 50.848c0.003906 28.039-22.809 50.848-50.848 50.848z"/>
  <path d="m400.28 522.26h7.5625c4.5703 0 8.2891 3.7227 8.2891 8.2969 0 4.5742-3.7188 8.2969-8.2891 8.2969h-20.66c-2.6562 0-4.8047 2.1523-4.8047 4.8047 0 2.6562 2.1523 4.8047 4.8047 4.8047h12.07v9.9141c0 2.6562 2.1523 4.8047 4.8047 4.8047 2.6562 0 4.8047-2.1523 4.8047-4.8047v-9.9688c9.3945-0.53906 16.879-8.3281 16.879-17.859 0-9.875-8.0312-17.91-17.906-17.91h-7.5625c-4.5742 0-8.2969-3.7188-8.2969-8.293 0-4.5742 3.7227-8.2969 8.2969-8.2969h20.656c2.6562 0 4.8047-2.1523 4.8047-4.8047 0-2.6562-2.1523-4.8047-4.8047-4.8047h-12.07v-9.9102c0-2.6562-2.1523-4.8047-4.8047-4.8047-2.6562 0-4.8047 2.1523-4.8047 4.8047v9.9609c-9.3945 0.53906-16.883 8.332-16.883 17.859 0 9.875 8.0391 17.91 17.914 17.91z"/>
  <path d="m404.06 577.93c33.344 0 60.461-27.125 60.461-60.461 0-33.336-27.125-60.461-60.461-60.461-33.344 0-60.461 27.125-60.461 60.461 0 33.332 27.125 60.461 60.461 60.461zm0-111.32c28.035 0 50.848 22.812 50.848 50.848s-22.812 50.848-50.848 50.848-50.848-22.812-50.848-50.848 22.812-50.848 50.848-50.848z"/>
 </g>
</svg>