<?xml version="1.0" encoding="UTF-8"?>
<!-- The Best Svg Icon site in the world: iconSvg.co, Visit us! https://iconsvg.co -->
<svg fill="#000000" width="800px" height="800px" version="1.1" viewBox="144 144 512 512" xmlns="http://www.w3.org/2000/svg">
 <g>
  <path d="m400 625.34h-226.32c-2.1719 0-3.9375-1.7617-3.9375-3.9375v-317.49c0-17.012 13.836-30.848 30.848-30.848h12.449c2.1719 0 3.9375 1.7617 3.9375 3.9375v301.11h183.02c2.1719 0 3.9375 1.7617 3.9375 3.9375v39.359c-0.003906 2.1719-1.7656 3.9336-3.9375 3.9336zm-222.39-7.8711h218.45v-31.488h-183.02c-2.1719 0-3.9375-1.7617-3.9375-3.9375v-301.11h-8.5117c-12.668 0-22.977 10.309-22.977 22.977z"/>
  <path d="m626.32 625.34h-226.32c-2.1719 0-3.9375-1.7617-3.9375-3.9375v-39.359c0-2.1719 1.7617-3.9375 3.9375-3.9375h183.02v-301.1c0-2.1719 1.7617-3.9375 3.9375-3.9375h12.449c17.008 0 30.844 13.836 30.844 30.848v317.49c0 2.1758-1.7617 3.9375-3.9336 3.9375zm-222.39-7.8711h218.45v-313.55c0-12.668-10.305-22.977-22.973-22.977h-8.5156v301.11c0 2.1719-1.7617 3.9375-3.9375 3.9375h-183.02z"/>
  <path d="m508.24 369.5h-49.199c-2.1719 0-3.9375-1.7617-3.9375-3.9375 0-2.1719 1.7617-3.9375 3.9375-3.9375h49.199c2.1719 0 3.9375 1.7617 3.9375 3.9375 0 2.1719-1.7617 3.9375-3.9375 3.9375z"/>
  <path d="m547.6 399.02h-88.559c-2.1719 0-3.9375-1.7617-3.9375-3.9375 0-2.1719 1.7617-3.9375 3.9375-3.9375h88.559c2.1719 0 3.9375 1.7617 3.9375 3.9375s-1.7617 3.9375-3.9375 3.9375z"/>
  <path d="m547.6 428.54h-88.559c-2.1719 0-3.9375-1.7617-3.9375-3.9375 0-2.1719 1.7617-3.9375 3.9375-3.9375h88.559c2.1719 0 3.9375 1.7617 3.9375 3.9375 0 2.1758-1.7617 3.9375-3.9375 3.9375z"/>
  <path d="m547.6 458.05h-88.559c-2.1719 0-3.9375-1.7617-3.9375-3.9375 0-2.1719 1.7617-3.9375 3.9375-3.9375h88.559c2.1719 0 3.9375 1.7617 3.9375 3.9375 0 2.1758-1.7617 3.9375-3.9375 3.9375z"/>
  <path d="m547.6 487.57h-88.559c-2.1719 0-3.9375-1.7617-3.9375-3.9375 0-2.1719 1.7617-3.9375 3.9375-3.9375h88.559c2.1719 0 3.9375 1.7617 3.9375 3.9375s-1.7617 3.9375-3.9375 3.9375z"/>
  <path d="m547.6 517.09h-88.559c-2.1719 0-3.9375-1.7617-3.9375-3.9375 0-2.1719 1.7617-3.9375 3.9375-3.9375h88.559c2.1719 0 3.9375 1.7617 3.9375 3.9375s-1.7617 3.9375-3.9375 3.9375z"/>
  <path d="m547.6 546.61h-32.203c-2.1719 0-3.9375-1.7617-3.9375-3.9375 0-2.1719 1.7617-3.9375 3.9375-3.9375l32.203 0.003907c2.1719 0 3.9375 1.7617 3.9375 3.9375 0 2.1719-1.7617 3.9336-3.9375 3.9336z"/>
  <path d="m301.6 369.5h-49.199c-2.1719 0-3.9375-1.7617-3.9375-3.9375 0-2.1719 1.7617-3.9375 3.9375-3.9375h49.199c2.1719 0 3.9375 1.7617 3.9375 3.9375 0 2.1719-1.7617 3.9375-3.9375 3.9375z"/>
  <path d="m340.96 399.02h-88.559c-2.1719 0-3.9375-1.7617-3.9375-3.9375 0-2.1719 1.7617-3.9375 3.9375-3.9375h88.559c2.1719 0 3.9375 1.7617 3.9375 3.9375s-1.7617 3.9375-3.9375 3.9375z"/>
  <path d="m340.96 428.54h-88.559c-2.1719 0-3.9375-1.7617-3.9375-3.9375 0-2.1719 1.7617-3.9375 3.9375-3.9375h88.559c2.1719 0 3.9375 1.7617 3.9375 3.9375 0 2.1758-1.7617 3.9375-3.9375 3.9375z"/>
  <path d="m340.96 458.05h-88.559c-2.1719 0-3.9375-1.7617-3.9375-3.9375 0-2.1719 1.7617-3.9375 3.9375-3.9375h88.559c2.1719 0 3.9375 1.7617 3.9375 3.9375 0 2.1758-1.7617 3.9375-3.9375 3.9375z"/>
  <path d="m340.96 487.57h-88.559c-2.1719 0-3.9375-1.7617-3.9375-3.9375 0-2.1719 1.7617-3.9375 3.9375-3.9375h88.559c2.1719 0 3.9375 1.7617 3.9375 3.9375s-1.7617 3.9375-3.9375 3.9375z"/>
  <path d="m340.96 517.09h-88.559c-2.1719 0-3.9375-1.7617-3.9375-3.9375 0-2.1719 1.7617-3.9375 3.9375-3.9375h88.559c2.1719 0 3.9375 1.7617 3.9375 3.9375s-1.7617 3.9375-3.9375 3.9375z"/>
  <path d="m340.96 546.61h-32.203c-2.1719 0-3.9375-1.7617-3.9375-3.9375 0-2.1719 1.7617-3.9375 3.9375-3.9375l32.203 0.003907c2.1719 0 3.9375 1.7617 3.9375 3.9375 0 2.1719-1.7617 3.9336-3.9375 3.9336z"/>
  <path d="m420.14 240.91c-0.21094-0.28125-0.82422-0.73437-1.8398-1.3672-1.0156-0.62891-2.3125-1.3125-3.8906-2.0508-1.5781-0.73438-3.332-1.4375-5.2578-2.1055-1.9297-0.66406-3.875-1.1367-5.8359-1.418v14.301l3.3672 0.83984c3.5742 0.98047 6.7969 2.0508 9.6758 3.207 2.875 1.1562 5.3086 2.5938 7.3086 4.3125s3.5391 3.8047 4.625 6.2578c1.0859 2.457 1.6289 5.3984 1.6289 8.832 0 3.9961-0.70312 7.3984-2.1055 10.199-1.4023 2.8047-3.2773 5.1016-5.625 6.8867-2.3516 1.7852-5.0469 3.1367-8.0977 4.0469-3.0469 0.91016-6.2578 1.4375-9.6211 1.5781v12.199h-7.2578v-12.297c-4.8398-0.42188-9.6211-1.4023-14.355-2.9453s-8.9922-3.5742-12.777-6.1016l7.5703-15.039c0.28125 0.35156 1.0352 0.92969 2.2617 1.7344 1.2266 0.80859 2.7852 1.6484 4.6797 2.5234 1.8945 0.87891 4.0312 1.7188 6.4141 2.5234 2.3828 0.80859 4.8398 1.3867 7.3633 1.7344v-13.988l-5.0469-1.4727c-3.4375-1.0508-6.4141-2.1914-8.9375-3.418-2.5234-1.2266-4.6133-2.6445-6.2578-4.2578-1.6484-1.6133-2.875-3.4688-3.6797-5.5742-0.80469-2.1016-1.2109-4.5547-1.2109-7.3594 0-3.6445 0.62891-6.8867 1.8945-9.7266 1.2617-2.8398 2.9609-5.2734 5.1016-7.3086 2.1367-2.0312 4.6602-3.6289 7.5703-4.7852 2.9062-1.1562 6.0469-1.9102 9.4102-2.2617v-10.617h7.2578v10.621c4.5547 0.42187 8.8359 1.4375 12.828 3.0508 3.9961 1.6133 7.4648 3.2617 10.41 4.9414zm-29.129-0.94922c0 1.7539 0.61328 3.1406 1.8398 4.1562 1.2266 1.0156 3.0664 1.9102 5.5234 2.6797l-0.003906-12.934c-4.9062 0.42187-7.3594 2.4531-7.3594 6.0977zm20.402 33.445c0-1.8242-0.73438-3.2422-2.207-4.2578s-3.4375-1.9453-5.8906-2.7852v12.621c5.3984-0.21484 8.0977-2.0742 8.0977-5.5781z"/>
  <path d="m382.29 334.01v181.11c0 9.7812 7.9297 17.711 17.711 17.711s17.711-7.9297 17.711-17.711v-41.328l0.003907-139.79c-5.6953 1.3125-11.621 2.0273-17.711 2.0273-6.0938 0-12.02-0.71484-17.715-2.0273z"/>
  <path d="m400 585.98h-186.96c-2.1719 0-3.9375-1.7617-3.9375-3.9375v-344.4c0-2.1719 1.7617-3.9375 3.9375-3.9375h110.72c1.2188 0 2.3672 0.5625 3.1133 1.5234 0.74609 0.96094 1.0039 2.2148 0.69922 3.3945-1.5664 6.0742-2.3594 12.367-2.3594 18.699 0 35.047 23.832 65.008 57.953 72.859 1.7852 0.41016 3.0547 2 3.0547 3.8359v181.11c0 7.5977 6.1797 13.777 13.777 13.777 2.1719 0 3.9375 1.7617 3.9375 3.9375v49.199c-0.003906 2.1719-1.7656 3.9375-3.9375 3.9375zm-183.03-7.875h179.09v-41.688c-10.062-1.8555-17.711-10.695-17.711-21.289v-178.04c-16.711-4.5352-31.793-14.375-42.734-27.941-11.785-14.613-18.273-33.016-18.273-51.824 0-5.3008 0.50391-10.578 1.5-15.742h-101.87z"/>
  <path d="m586.96 585.98h-186.96c-2.1719 0-3.9375-1.7617-3.9375-3.9375v-49.199c0-2.1719 1.7617-3.9375 3.9375-3.9375 7.5977 0 13.777-6.1797 13.777-13.777l-0.003906-181.11c0-1.8359 1.2656-3.4258 3.0547-3.8359 34.121-7.8477 57.953-37.809 57.953-72.859 0-6.3359-0.79297-12.625-2.3594-18.699-0.30469-1.1797-0.042969-2.4297 0.70312-3.3945 0.74609-0.96094 1.8945-1.5234 3.1094-1.5234l110.73 0.003906c2.1719 0 3.9375 1.7617 3.9375 3.9375v344.4c-0.003907 2.168-1.7656 3.9336-3.9375 3.9336zm-183.03-7.875h179.09v-336.53h-101.87c0.99609 5.1641 1.5 10.441 1.5 15.742 0 18.809-6.4883 37.211-18.273 51.824-10.941 13.566-26.023 23.406-42.734 27.941v178.04c0 10.594-7.6484 19.434-17.711 21.289z"/>
  <path d="m400 339.97c-45.578 0-82.656-37.078-82.656-82.656s37.078-82.656 82.656-82.656c45.574 0 82.656 37.078 82.656 82.656s-37.082 82.656-82.656 82.656zm0-157.44c-41.238 0-74.785 33.547-74.785 74.785 0 41.238 33.547 74.785 74.785 74.785 41.234 0 74.785-33.547 74.785-74.785-0.003906-41.238-33.551-74.785-74.785-74.785z"/>
 </g>
</svg>