<?xml version="1.0" encoding="UTF-8"?>
<!-- The Best Svg Icon site in the world: iconSvg.co, Visit us! https://iconsvg.co -->
<svg fill="#000000" width="800px" height="800px" version="1.1" viewBox="144 144 512 512" xmlns="http://www.w3.org/2000/svg">
 <g>
  <path d="m636.95 419.84v-130.05c0.023438-9.6172-3.7852-18.848-10.578-25.656-6.793-6.8086-16.016-10.633-25.633-10.633h-97.926v-29.758c0-16.531-11.02-29.992-24.562-29.992h-156.5c-13.617 0-24.641 13.461-24.641 29.992v29.758h-97.848c-9.625 0-18.855 3.8242-25.66 10.629-6.8047 6.8047-10.629 16.035-10.629 25.66v280.17c0.019532 9.6172 3.8516 18.836 10.652 25.637s16.02 10.633 25.637 10.652h401.47c9.6133-0.019532 18.82-3.8555 25.609-10.656 6.7891-6.8047 10.602-16.023 10.602-25.633v-148.23c0.11719-0.625 0.11719-1.2656 0-1.8906zm-324.41-196.09c0-8.582 4.8008-14.562 9.2109-14.562h156.5c4.3281 0 9.2109 5.9844 9.2109 14.562v29.758h-174.92zm-113.28 45.109h401.47c5.5391 0.019532 10.848 2.2344 14.758 6.1602 3.9102 3.9258 6.1055 9.2383 6.1055 14.777v9.1328h-443.27v-9.1328c0-5.5508 2.2031-10.879 6.1328-14.805 3.9258-3.9258 9.25-6.1328 14.805-6.1328zm363.61 46.523v32.668l-9.2891 7.2422-9.3672-7.2422v-32.668zm-307.01 0v32.668l-9.2891 7.2422-9.2891-7.2422v-32.668zm345.03 275.52h-401.63c-5.5391 0-10.855-2.1953-14.777-6.1055-3.9258-3.9102-6.1406-9.2148-6.1602-14.754v-136.89c31.926 13.203 65.508 21.969 99.816 26.055h1.0234c3.5859-0.61328 6.2812-3.6016 6.5234-7.2305 0.24609-3.6289-2.0312-6.9531-5.5-8.0391-35.168-4.0547-69.512-13.426-101.86-27.789v-101.86h43.371v37.551-0.003907c0.035157 2.3672 1.1367 4.5938 2.9922 6.0625l17.004 13.227c1.332 1.0859 3.0039 1.6719 4.7227 1.6523 1.7148-0.023438 3.3711-0.60156 4.7227-1.6523l17.004-13.227c1.8281-1.4844 2.8984-3.707 2.9141-6.0625v-37.547h257.81v37.551-0.003907c0.035157 2.3672 1.1328 4.5938 2.9922 6.0625l16.926 13.227c2.8125 2.1367 6.707 2.1367 9.5234 0l17.004-13.227c1.8281-1.4844 2.8984-3.707 2.9141-6.0625v-37.547h43.375v102.34c-32.266 14.379-66.535 23.75-101.63 27.789-3.4727 1.0859-5.7461 4.4062-5.5039 8.0391 0.24219 3.6289 2.9414 6.6172 6.5273 7.2305h1.0234c34.227-4.0586 67.73-12.801 99.582-25.977v136.27c0 5.5312-2.1992 10.836-6.1133 14.75-3.9102 3.9102-9.2148 6.1094-14.75 6.1094z"/>
  <path d="m498.71 417.39c2.1406-2.5117 2.4883-6.0977 0.86328-8.9727l-15.742-27.238c-1.6211-2.7305-4.7266-4.2227-7.8711-3.7773l-16.453 3.1484-29.52-16.531-5.5898-16.453c-1.0898-3.1211-4.0156-5.2266-7.3203-5.2734h-34.008c-3.3047 0.046875-6.2305 2.1523-7.3203 5.2734l-5.5117 16.453-29.52 16.531-16.531-3.1484c-3.1484-0.44531-6.25 1.0469-7.8711 3.7773l-15.742 27.238h-0.003906c-1.6211 2.875-1.2773 6.4609 0.86719 8.9727l11.57 13.145v42.508l-10.863 12.676v0.003906c-2.0117 2.4805-2.3203 5.9336-0.78516 8.7344l15.742 27.316c1.6445 2.7031 4.7422 4.1602 7.8711 3.7031l17.555-3.6211 28.969 13.383 5.4336 15.742c1.1445 3.0586 4.0547 5.0938 7.3203 5.1172h31.488c3.2383-0.054687 6.1094-2.0859 7.2422-5.1172l5.4336-15.742 28.969-13.383 17.555 3.6211c3.1289 0.45703 6.2266-1 7.8711-3.7031l15.742-27.316c1.5859-2.8555 1.2422-6.3945-0.86328-8.8945l-11.102-12.516v-42.508zm-25.031 5.1953h-0.003906c-1.1836 1.3867-1.8516 3.1406-1.8867 4.9609v48.254c-0.003907 1.8398 0.63672 3.625 1.8086 5.0391l9.2109 10.785-10.234 17.789-14.562-2.9922v0.003907c-1.6211-0.29688-3.2891-0.10547-4.8008 0.55078l-34.164 15.742h-0.003906c-1.8906 0.87109-3.3633 2.457-4.0898 4.4102l-4.7227 13.383h-20.234l-4.7227-13.383c-0.70703-1.9414-2.1484-3.5234-4.0156-4.4102l-34.242-15.742c-1.4805-0.66797-3.1289-0.85938-4.7227-0.55078l-14.641 2.9922-10.234-17.789 9.2109-10.785v-0.003906c1.2227-1.3867 1.8711-3.1875 1.8086-5.0391v-48.254c-0.035156-1.8203-0.70312-3.5742-1.8906-4.9609l-9.7617-11.258 10.234-17.789 13.855 2.6758c1.7812 0.31641 3.6133 0.011719 5.1953-0.86328l34.246-18.973c1.6562-0.94141 2.9141-2.4531 3.5391-4.25l4.7227-14.168h22.75l4.7227 14.168h0.003906c0.625 1.7969 1.8867 3.3086 3.543 4.25l34.559 19.285h-0.003906c1.582 0.87891 3.418 1.1836 5.1992 0.86719l13.934-2.6758 10.234 17.789z"/>
  <path d="m400 394.96c-14.395-0.019532-28.207 5.6797-38.395 15.848-10.188 10.168-15.918 23.969-15.926 38.363-0.003907 14.395 5.7109 28.199 15.887 38.379 10.18 10.18 23.984 15.895 38.379 15.887 14.395-0.007812 28.195-5.7344 38.363-15.922 10.168-10.191 15.871-24 15.848-38.395-0.019531-14.359-5.7305-28.121-15.883-38.273-10.152-10.152-23.918-15.867-38.273-15.887zm0 92.969c-10.293 0-20.164-4.0898-27.445-11.367-7.2773-7.2773-11.367-17.148-11.367-27.441 0-10.293 4.0898-20.164 11.367-27.441 7.2812-7.2812 17.152-11.367 27.445-11.367s20.164 4.0859 27.441 11.367c7.2773 7.2773 11.367 17.148 11.367 27.441 0 10.293-4.0898 20.164-11.367 27.441s-17.148 11.367-27.441 11.367z"/>
 </g>
</svg>