<?xml version="1.0" encoding="UTF-8"?>
<!-- The Best Svg Icon site in the world: iconSvg.co, Visit us! https://iconsvg.co -->
<svg width="800px" height="800px" version="1.1" viewBox="144 144 512 512" xmlns="http://www.w3.org/2000/svg">
 <defs>
  <clipPath id="b">
   <path d="m313 148.09h174v173.91h-174z"/>
  </clipPath>
  <clipPath id="a">
   <path d="m226 337h348v314.9h-348z"/>
  </clipPath>
 </defs>
 <g clip-path="url(#b)">
  <path d="m335.75 280.86c3.7461-2.1875 5.0195-6.9922 2.8438-10.746-11.828-20.438-12.695-45.426-2.3125-66.637 10.383-21.207 30.652-35.848 54.051-39.043 23.395-3.1953 46.848 5.4766 62.535 23.129 15.688 17.648 21.551 41.953 15.637 64.816-5.9141 22.859-22.832 41.27-45.113 49.098-22.281 7.8242-46.992 4.0352-65.906-10.109-3.4766-2.6055-8.4102-1.9023-11.02 1.5742-2.6094 3.4805-1.9023 8.4141 1.5742 11.023 23.066 17.285 53.23 21.941 80.434 12.418 27.207-9.5234 47.879-31.977 55.129-59.875 7.25-27.898 0.125-57.574-19.004-79.137-19.125-21.562-47.738-32.184-76.301-28.312-28.566 3.8672-53.324 21.711-66.027 47.586-12.703 25.875-11.68 56.375 2.7266 81.34 2.1797 3.7656 6.9922 5.0508 10.754 2.875z"/>
 </g>
 <path d="m400.23 258.3h-16.199c-4.3477 0-7.875 3.5273-7.875 7.875 0 4.3477 3.5273 7.8711 7.875 7.8711h16.199c8.4375-0.082031 16.191-4.6602 20.34-12.008 4.1445-7.3477 4.0586-16.348-0.23047-23.613-4.2891-7.2656-12.129-11.691-20.566-11.613-4.3477 0-7.8711-3.5234-7.8711-7.8711s3.5234-7.8711 7.8711-7.8711h16.203c4.3477 0 7.8711-3.5234 7.8711-7.8711 0-4.3477-3.5234-7.875-7.8711-7.875h-16.203c-8.4375 0.082031-16.188 4.6602-20.336 12.008-4.1484 7.3477-4.0625 16.352 0.22656 23.617 4.2891 7.2656 12.129 11.691 20.566 11.609 4.3477 0 7.8711 3.5234 7.8711 7.8711 0 4.3477-3.5234 7.8711-7.8711 7.8711z"/>
 <path d="m518.08 368.51h-251.9c-4.3477 0-7.875 3.5234-7.875 7.8711v204.67c0 2.0898 0.83203 4.0898 2.3086 5.5664 1.4766 1.4766 3.4766 2.3047 5.5664 2.3047h251.9c2.0898 0 4.0898-0.82812 5.5664-2.3047 1.4766-1.4766 2.3047-3.4766 2.3047-5.5664v-23.617h7.875c2.0859 0 4.0898-0.82812 5.5664-2.3047 1.4766-1.4766 2.3047-3.4766 2.3047-5.5664v-31.488c0-2.0859-0.82812-4.0898-2.3047-5.5664-1.4766-1.4766-3.4805-2.3047-5.5664-2.3047h-7.875v-62.977h7.875c2.0859 0 4.0898-0.82812 5.5664-2.3047 1.4766-1.4766 2.3047-3.4805 2.3047-5.5664v-31.488c0-2.0898-0.82812-4.0898-2.3047-5.5664-1.4766-1.4766-3.4805-2.3047-5.5664-2.3047h-7.875v-23.617c0-2.0898-0.82812-4.0898-2.3047-5.5664-1.4766-1.4766-3.4766-2.3047-5.5664-2.3047zm7.8711 173.18h-15.742v-15.746h15.742zm0-110.21h-15.742v-15.746h15.742zm-23.617-31.488h0.003907c-4.3477 0-7.875 3.5234-7.875 7.8711v31.488c0 2.0859 0.83203 4.0898 2.3086 5.5664 1.4766 1.4766 3.4766 2.3047 5.5664 2.3047h7.8711v62.977h-7.8711c-4.3477 0-7.875 3.5234-7.875 7.8711v31.488c0 2.0898 0.83203 4.0898 2.3086 5.5664 1.4766 1.4766 3.4766 2.3047 5.5664 2.3047h7.8711v15.742l-236.16 0.003906v-188.93h236.16v15.742z"/>
 <path d="m392.12 470.85h-8.6562c-1.0156-4.9297-2.9727-9.6133-5.7656-13.801l6.1641-6.1562c1.5195-1.4648 2.3867-3.4805 2.4062-5.5938 0.015624-2.1094-0.8125-4.1406-2.3086-5.6328-1.4922-1.4961-3.5234-2.3242-5.6328-2.3086-2.1133 0.019531-4.1289 0.88672-5.5938 2.4062l-6.1641 6.1562c-4.1875-2.7969-8.875-4.7578-13.809-5.7734v-8.6562c0-4.3477-3.5234-7.875-7.8711-7.875-4.3477 0-7.8711 3.5273-7.8711 7.875v8.6602-0.003907c-4.9297 1.0156-9.6133 2.9727-13.801 5.7617l-6.1641-6.1562v0.003906c-1.4648-1.5195-3.4805-2.3867-5.5938-2.4062-2.1094-0.015625-4.1406 0.8125-5.6328 2.3086-1.4961 1.4922-2.3242 3.5234-2.3086 5.6328 0.019531 2.1133 0.88672 4.1289 2.4062 5.5938l6.1641 6.1562h-0.003906c-2.793 4.1875-4.75 8.875-5.7695 13.809h-8.6562c-4.3477 0-7.875 3.5234-7.875 7.8711s3.5273 7.8711 7.875 7.8711h8.6602-0.003907c1.0156 4.9297 2.9727 9.6133 5.7617 13.801l-6.1641 6.1562h0.003906c-1.5195 1.4648-2.3867 3.4805-2.4062 5.5938-0.015625 2.1094 0.8125 4.1406 2.3086 5.6328 1.4922 1.4961 3.5234 2.3242 5.6328 2.3086 2.1133-0.019531 4.1289-0.88672 5.5938-2.4062l6.1641-6.1562c4.1875 2.7969 8.875 4.7578 13.809 5.7734v8.6562c0 4.3477 3.5234 7.875 7.8711 7.875 4.3477 0 7.8711-3.5273 7.8711-7.875v-8.6562c4.9297-1.0156 9.6133-2.9727 13.801-5.7617l6.1641 6.1562v-0.003906c1.4648 1.5195 3.4805 2.3867 5.5938 2.4062 2.1094 0.015625 4.1406-0.8125 5.6328-2.3086 1.4961-1.4922 2.3242-3.5234 2.3086-5.6328-0.019531-2.1133-0.88672-4.1289-2.4062-5.5938l-6.1641-6.1562c2.7969-4.1875 4.7539-8.875 5.7734-13.809h8.6562c4.3477 0 7.875-3.5234 7.875-7.8711s-3.5273-7.8711-7.875-7.8711zm-47.23 31.488c-6.2617 0-12.27-2.4883-16.699-6.918-4.4297-4.4297-6.918-10.438-6.918-16.699s2.4883-12.27 6.918-16.699c4.4297-4.4297 10.438-6.918 16.699-6.918s12.27 2.4883 16.699 6.918c4.4297 4.4297 6.918 10.438 6.918 16.699s-2.4883 12.27-6.918 16.699c-4.4297 4.4297-10.438 6.918-16.699 6.918z"/>
 <g clip-path="url(#a)">
  <path d="m549.57 337.02h-236.16c-4.3477 0-7.8711 3.5234-7.8711 7.8711 0 4.3477 3.5234 7.8711 7.8711 7.8711h236.16c2.0898 0 4.0898 0.83203 5.5664 2.3047 1.4766 1.4766 2.3047 3.4805 2.3047 5.5664v236.16c0 2.0859-0.82812 4.0898-2.3047 5.5664-1.4766 1.4727-3.4766 2.3047-5.5664 2.3047h-299.14c-4.3477 0-7.8711-3.5234-7.8711-7.8711v-236.16c0-4.3477 3.5234-7.8711 7.8711-7.8711h31.488c4.3477 0 7.8711-3.5234 7.8711-7.8711 0-4.3477-3.5234-7.8711-7.8711-7.8711h-31.488c-6.2617 0-12.27 2.4883-16.699 6.9141-4.4297 4.4297-6.918 10.438-6.918 16.699v236.16c0 6.2617 2.4883 12.27 6.918 16.699 4.4297 4.4258 10.438 6.9141 16.699 6.9141h1.7227l6.3828 25.52 0.003906 0.003906c0.875 3.5039 4.0234 5.9648 7.6367 5.9648h47.23c3.6133 0 6.7617-2.4609 7.6367-5.9648l6.3828-25.523h145.14l6.3828 25.52v0.003906c0.875 3.5039 4.0234 5.9648 7.6367 5.9648h47.234c3.6133 0 6.7617-2.4609 7.6328-5.9648l6.3867-25.523h1.7227c6.2656 0 12.27-2.4883 16.699-6.9141 4.4297-4.4297 6.918-10.438 6.918-16.699v-236.16c0-6.2617-2.4883-12.27-6.918-16.699-4.4297-4.4258-10.434-6.9141-16.699-6.9141zm-242.31 299.14h-34.938l-3.9375-15.742h42.809zm220.42 0h-34.938l-3.9375-15.742h42.809z"/>
 </g>
</svg>