<?xml version="1.0" encoding="UTF-8"?>
<!-- The Best Svg Icon site in the world: iconSvg.co, Visit us! https://iconsvg.co -->
<svg fill="#000000" width="800px" height="800px" version="1.1" viewBox="144 144 512 512" xmlns="http://www.w3.org/2000/svg">
 <g>
  <path d="m389.5 368.51c5.7969 0 10.496-4.6992 10.496-10.496s-4.6992-10.496-10.496-10.496h-20.992v-10.496c0-5.7969-4.6992-10.496-10.496-10.496s-10.496 4.6992-10.496 10.496v10.496h-20.992c-5.7969 0-10.496 4.6992-10.496 10.496v41.984c0 2.7812 1.1055 5.4531 3.0742 7.4219s4.6367 3.0742 7.4219 3.0742h52.48v20.992h-52.48c-5.7969 0-10.496 4.6992-10.496 10.496s4.6992 10.496 10.496 10.496h20.992v10.496c0 5.7969 4.6992 10.496 10.496 10.496s10.496-4.6992 10.496-10.496v-10.496h20.992c2.7812 0 5.4531-1.1094 7.4219-3.0742 1.9688-1.9688 3.0742-4.6406 3.0742-7.4219v-41.984c0-2.7852-1.1055-5.4531-3.0742-7.4219s-4.6406-3.0742-7.4219-3.0742h-52.48v-20.992z"/>
  <path d="m599.42 473.47c0-5.5703-2.2109-10.91-6.1484-14.844-3.9336-3.9375-9.2734-6.1484-14.844-6.1484h-62.977v-157.44c-0.13672-2.7578-1.2109-5.3867-3.043-7.4531l-83.969-83.969c-2.0664-1.8281-4.6953-2.9023-7.4492-3.043h-209.92c-5.7969 0-10.496 4.6992-10.496 10.496v377.86c0 2.7852 1.1055 5.4531 3.0742 7.4219s4.6367 3.0742 7.4219 3.0742h367.36c5.5703 0 10.91-2.2109 14.844-6.1484 3.9375-3.9336 6.1484-9.2734 6.1484-14.844v-20.992c-0.039063-3.6953-1.0508-7.3164-2.9375-10.496 1.8867-3.1758 2.8984-6.7969 2.9375-10.496v-20.992c-0.039063-3.6953-1.0508-7.3164-2.9375-10.496 1.8867-3.1758 2.8984-6.7969 2.9375-10.496zm-20.992 20.992-146.94-0.003906v-20.988h146.94zm0 41.984-146.94-0.003907v-20.992h146.94zm-146.94-300.08 48.176 48.176h-48.176zm-209.92 342.06v-356.86h188.93v73.473c0 2.7812 1.1055 5.4531 3.0742 7.4219s4.6367 3.0742 7.4219 3.0742h73.473l-0.003906 146.95h-62.973c-5.5703 0-10.91 2.2109-14.844 6.1484-3.9375 3.9336-6.1484 9.2734-6.1484 14.844v20.992-0.003906c0.035156 3.6992 1.0508 7.3203 2.9375 10.496-1.8867 3.1797-2.9023 6.8008-2.9375 10.496v20.992c0.035156 3.6992 1.0508 7.3203 2.9375 10.496-1.8867 3.1797-2.9023 6.8008-2.9375 10.496v20.992zm356.86 0h-146.94v-20.992h146.94z"/>
 </g>
</svg>