<?xml version="1.0" encoding="UTF-8"?>
<!-- The Best Svg Icon site in the world: iconSvg.co, Visit us! https://iconsvg.co -->
<svg fill="#000000" width="800px" height="800px" version="1.1" viewBox="144 144 512 512" xmlns="http://www.w3.org/2000/svg">
 <g>
  <path d="m620.59 368.48-56.504-12.621c-3.8711-14.762-9.7461-28.934-17.523-42.273l31.027-49.004c2.4609-3.8906 1.8984-8.9648-1.3555-12.223l-29.578-29.578c-3.2617-3.2578-8.3438-3.8203-12.23-1.3477l-48.984 31.094c-13.156-7.7148-27.332-13.609-42.277-17.574l-12.629-56.527c-1.0039-4.4961-4.9961-7.6953-9.6055-7.6953h-41.867c-4.6094 0-8.5977 3.1992-9.6016 7.6953l-12.625 56.527c-14.949 3.9648-29.121 9.8555-42.277 17.574l-48.984-31.094c-3.8906-2.4727-8.9727-1.9102-12.23 1.3477l-29.578 29.578c-3.2539 3.2539-3.8164 8.332-1.3555 12.223l31.027 49.004c-7.7812 13.34-13.652 27.512-17.523 42.273l-56.504 12.621c-4.4961 1.0039-7.6953 4.9961-7.6953 9.6016v41.867c0 4.6094 3.1992 8.5977 7.6953 9.6055l56.5 12.621c3.8867 14.855 9.7578 29.031 17.516 42.285l-31.02 48.992c-2.4609 3.8906-1.8984 8.9648 1.3555 12.223l29.578 29.578c3.2578 3.2578 8.332 3.8164 12.223 1.3555l49.004-31.027c13.34 7.7812 27.512 13.652 42.273 17.523l10.383 46.488h-81.367c-5.4336 0-9.8398 4.4062-9.8398 9.8398 0 5.4336 4.4062 9.8398 9.8398 9.8398h314.88c5.4336 0 9.8398-4.4062 9.8398-9.8398 0-5.4336-4.4062-9.8398-9.8398-9.8398h-167.96l10.383-46.488c14.855-3.8867 29.031-9.7578 42.285-17.516l48.992 31.016c3.8906 2.4609 8.9648 1.8984 12.223-1.3555l29.578-29.574c3.2539-3.2578 3.8164-8.332 1.3555-12.223l-31.027-49.004c7.7773-13.34 13.652-27.512 17.523-42.273l56.504-12.621c4.4961-1.0039 7.6953-4.9961 7.6953-9.6055v-41.867c0-4.6055-3.1992-8.5977-7.6953-9.6016zm-11.984 43.586-54.785 12.238c-3.7266 0.83203-6.6328 3.7422-7.4609 7.4688-3.7266 16.77-10.352 32.758-19.691 47.523-2.0312 3.2148-2.0312 7.3125 0.003906 10.523l30.078 47.508-18.438 18.438-47.508-30.078c-3.2227-2.0391-7.332-2.0352-10.547 0.011718-14.613 9.2969-30.594 15.918-47.5 19.676-3.7266 0.82812-6.6367 3.7344-7.4688 7.4609l-12.238 54.785h-26.098l-12.238-54.785c-0.83203-3.7266-3.7422-6.6328-7.4688-7.4609-16.77-3.7266-32.758-10.352-47.523-19.691-3.2148-2.0312-7.3125-2.0312-10.523 0.003906l-47.508 30.078-18.438-18.438 30.078-47.508c2.0391-3.2188 2.0352-7.332-0.011719-10.547-9.2969-14.613-15.918-30.594-19.676-47.5-0.82812-3.7266-3.7344-6.6367-7.4609-7.4688l-54.789-12.238v-26.098l54.781-12.238c3.7227-0.83203 6.6328-3.7422 7.4609-7.4688 3.7266-16.77 10.352-32.758 19.691-47.523 2.0312-3.2148 2.0312-7.3125-0.003906-10.523l-30.074-47.508 18.434-18.434 47.504 30.156c3.2266 2.0469 7.3477 2.043 10.57-0.015625 14.469-9.2383 30.461-15.891 47.535-19.77 3.7031-0.84375 6.5938-3.7422 7.4219-7.4492l12.238-54.785h26.098l12.238 54.785c0.82813 3.707 3.7188 6.6094 7.4219 7.4492 17.074 3.8789 33.066 10.531 47.535 19.77 3.2188 2.0547 7.3398 2.0625 10.57 0.015625l47.504-30.156 18.434 18.434-30.078 47.508c-2.0352 3.2109-2.0352 7.3086-0.003906 10.523 9.3398 14.762 15.965 30.754 19.691 47.523 0.82812 3.7266 3.7344 6.6367 7.4609 7.4688l54.785 12.238z"/>
  <path d="m428.74 500.41c-9.3086 2.6328-18.977 3.9648-28.742 3.9648-58.098 0-105.36-47.266-105.36-105.36 0-5.4336-4.4062-9.8398-9.8398-9.8398-5.4336 0-9.8398 4.4062-9.8398 9.8398 0 68.949 56.094 125.04 125.04 125.04 11.574 0 23.047-1.5859 34.098-4.7109 5.2305-1.4805 8.2695-6.918 6.7891-12.148-1.4844-5.2266-6.918-8.2734-12.148-6.7891z"/>
  <path d="m400 273.97c-18.969 0-37.195 4.1406-54.168 12.312-4.8984 2.3594-6.957 8.2383-4.5977 13.133s8.2383 6.9531 13.133 4.5977c14.289-6.8789 29.641-10.363 45.633-10.363 58.098 0 105.36 47.266 105.36 105.36 0 5.4336 4.4062 9.8398 9.8398 9.8398 5.4336 0 9.8398-4.4062 9.8398-9.8398 0-68.945-56.09-125.04-125.04-125.04z"/>
  <path d="m400 313.33c-48.141 0-85.68 39.406-85.68 85.68 0 56.676 54.363 97.922 109.04 82.453 36.695-10.379 62.32-44.285 62.32-82.453-0.003906-47.242-38.438-85.68-85.684-85.68zm0 151.68c-36.395 0-66-29.609-66-66 0-35.625 28.875-66 66-66 36.395 0 66 29.609 66 66 0 35.715-28.965 66-66 66z"/>
  <path d="m408.33 395.18c-3.8047-1.5273-6.8359-2.1367-7.4297-2.3047v-8.1484c4.1484 0.59375 9.0312 3.2188 9.5859 3.9531l4.3164-8.1484c-1.6758-0.96094-3.6562-1.8984-5.9336-2.8164s-4.7148-1.4961-7.3086-1.7383v-6.0508h-4.1367v6.0508c-8.9844 0.94141-13.66 6.5781-13.66 13.723 0 4.418 1.7383 7.5547 6.3516 9.7969 3.2031 1.5586 6.6094 2.3516 7.9688 2.7852v7.9688c-5.3672-0.74219-10.977-3.8086-11.805-4.8516l-4.3164 8.5664c4.5156 3.0117 10.227 4.6992 15.461 5.1523v7.0117h4.1367v-6.9492c5.5117-0.23047 10.805-2.1367 13.301-7.1289 1.5586-3.1211 1.5586-7.9375 0.26953-10.844-1.0508-2.375-3.0117-4.5039-6.8008-6.0273zm-10.246-3.1484c-1.3984-0.4375-2.4453-0.94922-3.1445-1.5273-0.69922-0.57812-1.0469-1.3672-1.0469-2.3672 0-2.0781 1.3984-3.2344 4.1953-3.4766zm2.8164 18.336v-7.1914c1.3984 0.48047 2.5156 1.0078 3.3555 1.5859 0.83984 0.57812 1.2578 1.3867 1.2578 2.4258 0 2.0039-1.5391 3.0586-4.6133 3.1797z"/>
  <path d="m399.02 343.91c-29.844 0-54.121 24.277-54.121 54.121s24.277 54.121 54.121 54.121 54.121-24.277 54.121-54.121-24.281-54.121-54.121-54.121zm0 88.559c-18.992 0-34.441-15.449-34.441-34.441 0-18.992 15.449-34.441 34.441-34.441s34.441 15.449 34.441 34.441c0 18.992-15.453 34.441-34.441 34.441z"/>
 </g>
</svg>