<?xml version="1.0" encoding="UTF-8"?>
<!-- The Best Svg Icon site in the world: iconSvg.co, Visit us! https://iconsvg.co -->
<svg fill="#000000" width="800px" height="800px" version="1.1" viewBox="144 144 512 512" xmlns="http://www.w3.org/2000/svg">
 <g>
  <path d="m515.83 264.27c25.453 0 46.141-20.699 46.141-46.141 0-25.441-20.688-46.141-46.141-46.141-25.441 0-46.141 20.699-46.141 46.141 0 25.441 20.699 46.141 46.141 46.141zm0-81.773c19.648 0 35.645 15.984 35.645 35.645 0 19.66-15.984 35.633-35.645 35.633-19.66 0-35.645-15.984-35.645-35.645 0-19.656 15.996-35.633 35.645-35.633z"/>
  <path d="m599.08 302.93c-5.0391-11.02-16.133-18.148-28.234-18.148l-220.57 0.003906c-13.402 0-24.32 10.914-24.32 24.32 0 13.402 10.914 24.309 24.32 24.309h106.58v266.53c0 15.48 12.594 28.066 28.086 28.066 15.48 0 28.066-12.586 28.066-28.066v-143.14c0-3.1172 5.6797-3.1172 5.6797 0v143.13c0 15.48 12.586 28.066 28.078 28.066 15.48 0 28.078-12.586 28.078-28.066l-0.003907-162c3.1289-0.90234 6.1211-2.457 8.7656-4.6719l36.105-30.113c10.727-8.9531 14.168-24.059 8.3672-36.758zm13.918 92.176-36.117 30.133c-2.1719 1.7852-4.7539 2.8672-7.4844 3.1367-0.16797 0-0.30469 0-0.45312 0.019531-0.70312 0.042969-1.4375 0.042969-2.1523-0.019531-3.6836-0.34766-7.0117-2.0781-9.3828-4.9219-4.8789-5.8555-4.0938-14.578 1.7617-19.461l8.25-6.875c0.10547-0.074219 0.21094-0.15625 0.29297-0.24219l20.34-16.973c1.8164-1.5117 2.3945-4.0625 1.4062-6.2031l-20.473-44.844c-1.0273-2.2461-3.4844-3.4531-5.8984-2.9492-2.4023 0.52344-4.1367 2.6562-4.1367 5.1328v59.48l-6.5195 5.4375c-4.9844 4.1562-8.0625 10.012-8.6367 16.488-0.58594 6.4531 1.3867 12.773 5.543 17.75 3.9453 4.7344 9.3203 7.5898 14.977 8.4492v161.29c0 9.6992-7.8828 17.57-17.582 17.57s-17.59-7.8711-17.59-17.57v-143.13c0-7.3359-5.9727-13.328-13.328-13.328-7.3359 0-13.328 5.9844-13.328 13.328v143.13c0 9.6992-7.8945 17.57-17.59 17.57-9.6992 0-17.582-7.8711-17.582-17.57l-0.003906-271.76c0-2.8984-2.3516-5.2461-5.2461-5.2461l-111.79-0.003907c-7.6289 0-13.824-6.1914-13.824-13.812 0-7.6211 6.2031-13.824 13.824-13.824h220.56c8.0195 0 15.355 4.7109 18.695 12.02l29 63.48c3.8398 8.3945 1.5625 18.387-5.5312 24.316zm-43.539-13.348v-26.617l8.8047 19.27z"/>
  <path d="m189.08 485.99c26.977 17.695 57.895 26.523 88.809 26.523 30.91 0 61.844-8.8359 88.809-26.523 19.996-13.121 25.969-40.305 13.309-60.574-21.496-34.426-48.281-64.898-79.414-90.863l22.883-41.996c0.88281-1.625 0.85156-3.6016-0.09375-5.1953-0.94531-1.5938-2.6562-2.5703-4.5117-2.5703h-81.938c-1.8594 0-3.5781 0.97656-4.5234 2.5703-0.94531 1.5938-0.98828 3.5703-0.09375 5.1953l22.883 41.996c-31.141 25.969-57.918 56.438-79.391 90.863-12.684 20.281-6.7344 47.453 13.273 60.574zm120.93-190.7-19.156 35.172h-25.938l-19.156-35.172zm-125.32 135.66c21.34-34.176 47.977-64.414 79.086-90.004h28.215c31.109 25.59 57.75 55.828 79.086 90.004 9.668 15.504 5.1211 36.242-10.148 46.246-50.465 33.082-115.67 33.082-166.09 0-15.273-10.004-19.828-30.746-10.148-46.246z"/>
  <path d="m277.88 459.53c23.121 0 41.941-18.82 41.941-41.941 0-23.133-18.809-41.941-41.941-41.941-23.133 0-41.941 18.809-41.941 41.941-0.003906 23.121 18.816 41.941 41.941 41.941zm31.445-41.941c0 13.445-8.5352 24.844-20.426 29.336 0.37891-0.28516 0.77734-0.51562 1.1328-0.82031 3.8711-3.3789 6.1914-8.082 6.5508-13.227 0.35547-5.1211-1.3242-10.086-4.7031-13.961-3.4844-3.9883-8.5117-6.3906-13.793-6.582-3.7891-0.14844-7.043-2.6758-8.0938-6.3398-0.65234-2.2344-0.38672-4.6094 0.73437-6.6641 1.125-2.0469 2.9922-3.5391 5.2461-4.1875 4.6484-1.3438 9.5195 1.3438 10.863 5.9844 0.80859 2.7812 3.7148 4.375 6.5078 3.5781 2.7812-0.80859 4.3867-3.7148 3.5781-6.5078-1.0703-3.6523-3.1367-6.7266-5.8242-9.0703 10.73 5.0352 18.227 15.855 18.227 28.461zm-42.582-29.305c-2.1094 1.6055-3.8945 3.6094-5.2148 6.0039-2.4766 4.5117-3.0664 9.707-1.625 14.652 2.3203 8.0195 9.4688 13.594 17.789 13.887 2.4023 0.09375 4.6914 1.1758 6.2891 3 1.5312 1.7617 2.2969 4.0195 2.1406 6.3516-0.15625 2.3203-1.2188 4.4727-2.9805 6.0039-1.7539 1.5312-3.957 2.3398-6.3516 2.1289-2.3516-0.14844-4.4805-1.207-6.0039-2.9688-1.9219-2.1719-5.2266-2.4141-7.4102-0.51562-2.1836 1.9297-2.4023 5.2266-0.50391 7.4219 0.58594 0.67188 1.2578 1.2266 1.9219 1.8047-10.781-4.9844-18.336-15.848-18.336-28.477-0.015625-13.391 8.4648-24.77 20.285-29.293z"/>
 </g>
</svg>