<?xml version="1.0" encoding="UTF-8"?>
<!-- The Best Svg Icon site in the world: iconSvg.co, Visit us! https://iconsvg.co -->
<svg fill="#000000" width="800px" height="800px" version="1.1" viewBox="144 144 512 512" xmlns="http://www.w3.org/2000/svg">
 <g>
  <path d="m381.86 448.02c4.4492 4.8242 11.945 5.1953 16.848 0.83203 4.9062-4.3594 5.4141-11.844 1.1406-16.828-8.0156-9.5117-14.926-19.91-20.586-30.984l-28.227 13.523z"/>
  <path d="m464.64 379.76-51.359-107.21c-2.9023 4.9844-6.8594 11.316-11.777 18.133-13.453 18.637-27.762 32.305-42.617 40.715l25.918 54.102c28.969-11.668 62.312-8.6406 79.836-5.7422z"/>
  <path d="m318.39 351.02 29.938-14.34 25.746 53.746-29.938 14.34z"/>
  <path d="m475.44 587.94c42.355 0 76.812-32.078 76.812-71.699 0-28.676-17.996-54.367-45.855-65.699-2.9258-1.1875-4.3945-4.4688-3.3359-7.4453 5.418-15.18 6.5586-31.555 3.2891-47.34-1.9102 2.043-4.1836 3.7109-6.7031 4.9219-4.8555 2.3242-10.379 2.8359-15.574 1.4414-5.1953-1.3945-9.7227-4.6055-12.762-9.0469-10.168-2.2148-49.332-9.4023-81.289 3.0625 5.1719 10.066 11.469 19.516 18.766 28.168 3.9141 4.5703 5.9609 10.449 5.7305 16.465s-2.7188 11.723-6.9727 15.98c-4.4492 4.4688-10.504 6.9727-16.812 6.9531-0.17578 0-0.35156 0-0.52734-0.007813v0.003907c-6.4883-0.11719-12.645-2.8945-17.023-7.6836l-33.281-36.125-1.6562 0.79297v0.003906c-5.7539 2.7539-12.363 3.1133-18.383 0.99219-6.0156-2.1172-10.941-6.5391-13.699-12.293l-15.176-31.672 0.003907 0.003906c-0.99609-2.0703-1.6875-4.2695-2.0625-6.5352-29.965 10.273-50.309 37.043-50.309 67.453v1.4844c0.003906 2.8086-1.9883 5.2266-4.75 5.7539-16.844 3.2344-32.137 11.973-43.473 24.844-11.082 12.57-17.176 28.766-17.133 45.523 0 39.621 34.457 71.699 76.812 71.699z"/>
  <path d="m480.24 384.99c2.5625 5.3398 8.9648 7.5938 14.309 5.043 5.3359-2.5664 7.5938-8.9648 5.0391-14.309l-61.137-127.62c-2.5586-5.3438-8.9648-7.6016-14.309-5.043-5.3438 2.5625-7.5977 8.9648-5.0391 14.309z"/>
  <path d="m316.82 404.29c1.4023 2.9258 3.9102 5.1758 6.9688 6.2578 3.0625 1.0781 6.4258 0.89453 9.3555-0.50781l0.35156-0.16797-25.746-53.746-0.35156 0.16797c-2.9297 1.4023-5.1797 3.9102-6.2578 6.9727s-0.89453 6.4258 0.50781 9.3516z"/>
  <path d="m566.47 211.76c-17.504 0.03125-34.125 7.6836-45.531 20.961-11.402 13.277-16.457 30.867-13.84 48.172 2.6172 17.309 12.641 32.617 27.461 41.934 14.82 9.3164 32.961 11.711 49.691 6.5664 16.73-5.1445 30.387-17.324 37.41-33.355 7.0234-16.035 6.7109-34.332-0.85156-50.117-4.8711-10.27-12.57-18.938-22.195-24.988-9.625-6.0508-20.777-9.2305-32.145-9.1719zm30.129 85.188c-1.4219 4.0547-3.9609 7.625-7.3203 10.301l1.6406 3.4219h-0.003906c0.69531 1.4141 0.79297 3.0469 0.27734 4.5312-0.51953 1.4883-1.6094 2.707-3.0273 3.3867-1.4219 0.67969-3.0547 0.76562-4.5352 0.23828-1.4844-0.53125-2.6953-1.6289-3.3633-3.0547l-1.793-3.7383 0.003907-0.003906c-1.1719 0.1875-2.3594 0.28125-3.543 0.28125-4.3438 0.003906-8.6016-1.2188-12.281-3.5312s-6.6289-5.6172-8.5078-9.5352c-0.69141-1.4141-0.78906-3.0469-0.27344-4.5352 0.51562-1.4844 1.6055-2.7031 3.0273-3.3867 1.418-0.67969 3.0508-0.76172 4.5352-0.23437 1.4805 0.53125 2.6914 1.6289 3.3594 3.0547 1.957 4.0859 6.1836 6.5898 10.707 6.3477 4.5234-0.24609 8.457-3.1914 9.9609-7.4648 1.5078-4.2734 0.28906-9.0312-3.082-12.059-3.375-3.0273-8.2344-3.7227-12.32-1.7656-6.7031 3.207-14.539 2.9805-21.047-0.60547-6.5039-3.5859-10.879-10.094-11.746-17.473-0.86719-7.375 1.8828-14.719 7.3789-19.715l-2.2734-4.7461c-1.4062-2.9414-0.16406-6.4688 2.7734-7.875 2.9414-1.4102 6.4688-0.16797 7.8789 2.7734l2.125 4.4375h-0.003906c5.0703-1.1328 10.375-0.51172 15.047 1.7617 4.6719 2.2734 8.4336 6.0625 10.676 10.75 0.69141 1.4141 0.78906 3.043 0.27344 4.5312-0.51562 1.4883-1.6055 2.707-3.0273 3.3867-1.418 0.67969-3.0508 0.76562-4.5352 0.23828-1.4805-0.53125-2.6914-1.6328-3.3594-3.0586-1.957-4.082-6.1836-6.5898-10.707-6.3438-4.5273 0.24609-8.457 3.1914-9.9609 7.4648-1.5039 4.2734-0.28906 9.0312 3.0859 12.059 3.3711 3.0273 8.2344 3.7227 12.32 1.7656 5.5039-2.6367 11.828-2.9766 17.582-0.94922 5.7578 2.0273 10.473 6.2578 13.105 11.762 2.6367 5.5 2.9805 11.828 0.95312 17.582z"/>
 </g>
</svg>