<?xml version="1.0" encoding="UTF-8"?>
<!-- The Best Svg Icon site in the world: iconSvg.co, Visit us! https://iconsvg.co -->
<svg fill="#000000" width="800px" height="800px" version="1.1" viewBox="144 144 512 512" xmlns="http://www.w3.org/2000/svg">
 <g>
  <path d="m295.7 339.65h129.89c4.3477 0 7.8711-3.5234 7.8711-7.8711v-28.867c0-4.3477-3.5234-7.8711-7.8711-7.8711h-129.89c-4.3477 0-7.8711 3.5234-7.8711 7.8711v28.867c-0.003907 4.3438 3.5234 7.8711 7.8711 7.8711zm7.8711-28.867h114.14v13.121h-114.14z"/>
  <path d="m300.08 283.72c0.99609 4.2383 5.2617 6.8555 9.4648 5.8594 4.2305-0.99609 6.8555-5.2305 5.8594-9.4648l-9.7734-41.496h110l-9.7891 41.488c-1 4.2266 1.6211 8.4688 5.8555 9.4688 0.60547 0.14844 1.2148 0.21094 1.8125 0.21094 3.5664 0 6.8008-2.4414 7.6523-6.0664l12.078-51.168c0.55469-2.3398 0.003906-4.8047-1.4883-6.6914-1.4922-1.8867-3.7656-2.9844-6.1719-2.9844h-129.89c-2.4062 0-4.6797 1.0977-6.1719 2.9883-1.4922 1.8828-2.043 4.3477-1.4883 6.6875z"/>
  <path d="m425.89 346.42c-3.5078 2.5664-4.2695 7.4961-1.6992 11 9.9219 13.543 15.164 29.633 15.164 46.516 0 43.406-35.312 78.719-78.719 78.719s-78.719-35.312-78.719-78.719c0-16.887 5.2422-32.973 15.164-46.516 2.5703-3.5039 1.8086-8.4336-1.6992-11-3.5156-2.5703-8.4336-1.8086-11 1.6992-11.918 16.262-18.211 35.562-18.211 55.816 0 52.086 42.379 94.465 94.465 94.465s94.465-42.379 94.465-94.465c0-20.258-6.2969-39.555-18.207-55.82-2.5703-3.5078-7.4961-4.2695-11.004-1.6953z"/>
  <path d="m360.64 462.98c4.3477 0 7.8711-3.5234 7.8711-7.8711v-9.418c9.168-3.3438 15.746-11.934 15.746-22.074 0-12.32-9.668-22.465-21.957-23.523-0.38672-0.0625-0.78906-0.089844-1.1953-0.089844-4.5938 0-8.3359-3.5352-8.3359-7.875s3.7383-7.8711 8.332-7.8711c3.5586 0 6.7266 2.1367 7.8828 5.3164 1.4883 4.0898 6.0156 6.1914 10.09 4.707 4.0859-1.4883 6.1914-6.0039 4.707-10.09-2.5469-7.0117-8.2891-12.297-15.266-14.52v-9.0312c0-4.3477-3.5234-7.8711-7.8711-7.8711s-7.8711 3.5234-7.8711 7.8711v9.418c-9.168 3.3398-15.746 11.934-15.746 22.07 0 12.32 9.668 22.465 21.957 23.523 0.38672 0.0625 0.78906 0.09375 1.1953 0.09375 4.5938 0 8.3359 3.5312 8.3359 7.8711 0 4.3398-3.7383 7.8711-8.332 7.8711-3.5586 0-6.7266-2.1367-7.8828-5.3164-1.4883-4.0898-6.0195-6.1953-10.09-4.707-4.0859 1.4883-6.1914 6.0039-4.707 10.09 2.5469 7.0117 8.2891 12.301 15.266 14.523v9.0273c0 4.3477 3.5273 7.875 7.8711 7.875z"/>
  <path d="m557.44 360.64c0-108.52-88.281-196.8-196.8-196.8-108.52 0-196.8 88.285-196.8 196.8s88.285 196.8 196.8 196.8c108.52 0 196.8-88.281 196.8-196.8zm-196.8 181.06c-99.832 0-181.05-81.223-181.05-181.06 0-99.832 81.223-181.05 181.05-181.05 99.836 0 181.05 81.223 181.05 181.05 0.003906 99.836-81.219 181.06-181.05 181.06z"/>
  <path d="m633.85 586.39-89.621-89.621c-3.0742-3.0742-8.0547-3.0742-11.133 0-3.0742 3.0742-3.0742 8.0547 0 11.133l84.055 84.055-25.199 25.199-88.895-88.898c-3.0742-3.0742-8.0547-3.0742-11.133 0-3.0742 3.0742-3.0742 8.0547 0 11.133l94.465 94.465c1.5352 1.5352 3.5508 2.3047 5.5664 2.3047s4.0273-0.76953 5.5664-2.3047l36.332-36.332c3.0742-3.0781 3.0742-8.0586-0.003907-11.133z"/>
 </g>
</svg>