<?xml version="1.0" encoding="UTF-8"?>
<!-- The Best Svg Icon site in the world: iconSvg.co, Visit us! https://iconsvg.co -->
<svg fill="#000000" width="800px" height="800px" version="1.1" viewBox="144 144 512 512" xmlns="http://www.w3.org/2000/svg">
 <g>
  <path d="m436.18 344.12c-2.6875-0.97656-5.7188 0.41016-6.7266 3.1289-3.8945 10.645-3.4102 22.156 1.3555 32.441 4.7539 10.285 13.246 18.094 23.879 21.988 3.0859 1.1133 6.2227 1.7422 9.3516 2.1289v11.535c0 2.8867 2.3633 5.2461 5.2461 5.2461 2.8984 0 5.2461-2.3633 5.2461-5.2461v-11.492c15.242-1.9414 28.949-12.027 34.605-27.438 3.8945-10.645 3.4023-22.148-1.3555-32.441-4.7773-10.277-13.277-18.094-23.898-21.988-3.0352-1.0898-6.1719-1.7305-9.3516-2.1211v-61.453c1.8047 0.30469 3.5898 0.73438 5.332 1.3867 15.91 5.8242 24.109 23.523 18.285 39.434-0.99609 2.7188 0.41016 5.7305 3.1367 6.7383 2.7617 0.99609 5.7422-0.39844 6.7383-3.1289 7.8086-21.348-3.2109-45.082-24.551-52.91-2.918-1.0703-5.9102-1.7109-8.9414-2.0898v-13.875c0-2.8984-2.3516-5.2461-5.2461-5.2461-2.8867 0-5.2461 2.3516-5.2461 5.2461v13.969c-4.1367 0.53516-8.2188 1.5117-12.113 3.2969-9.9805 4.6406-17.57 12.898-21.348 23.227-7.8203 21.348 3.1914 45.09 24.539 52.91 2.8984 1.0703 5.9102 1.6602 8.9531 2.0469v63.848c-1.9414-0.32422-3.8516-0.77734-5.7422-1.4688-16.543-6.0664-25.066-24.434-19.008-40.965 0.99219-2.6953-0.40234-5.7109-3.1406-6.707zm62.07 4.2734c3.6016 7.7266 3.957 16.406 1.0273 24.402-4.082 11.137-13.793 18.516-24.719 20.352v-62.797c1.9414 0.32422 3.8516 0.80859 5.7188 1.5 8.0039 2.918 14.406 8.8047 17.973 16.543zm-56.844-46.793c-3.4531-7.4531-3.8008-15.809-0.98828-23.512 2.832-7.7148 8.4922-13.855 15.934-17.32 2.4766-1.1328 5.0586-1.8281 7.6836-2.2891v60.457c-1.8047-0.31641-3.5898-0.77734-5.332-1.418-7.7031-2.8281-13.855-8.4648-17.297-15.918z"/>
  <path d="m304.07 596.04c8.9414 1.9727 17.863 2.918 26.66 2.918 56.699 0 107.96-39.359 120.7-96.973 4.0391-18.23 3.6094-37.145-0.70313-55.293 6.0664 0.92188 12.238 1.5547 18.59 1.5547 68.16 0 123.6-55.449 123.6-123.61-0.003907-68.16-55.441-123.6-123.61-123.6-68.16 0-123.63 55.441-123.63 123.6 0 9.8555 1.2812 19.406 3.4727 28.602-29.578-4.5117-59.461 1.6484-84.922 17.918-27.836 17.75-47.074 45.289-54.203 77.535-7.125 32.242-1.2578 65.336 16.5 93.172 17.762 27.836 45.305 47.062 77.547 54.18zm165.24-384.51c62.355 0 113.11 50.738 113.11 113.11 0 62.379-50.75 113.12-113.11 113.12-62.379 0-113.12-50.738-113.12-113.12-0.011719-62.367 50.727-113.11 113.12-113.11zm-249.04 239.41c6.5195-29.516 24.129-54.707 49.613-70.965 24.664-15.754 53.812-21.203 82.469-15.574 13.457 39.414 46.246 69.84 87.043 80.031 5.1133 17.98 5.8477 37.02 1.793 55.293-13.434 60.887-73.914 99.512-134.86 86.059-29.504-6.5195-54.707-24.129-70.965-49.613-16.23-25.434-21.605-55.727-15.09-85.23z"/>
  <path d="m285.21 505.86c6.4961 20.426 18.945 35.059 34.145 40.105 3.7383 1.25 7.5664 1.8789 11.367 1.8789 7.7031 0 15.398-2.5625 22.379-7.5352 10.18-7.2617 18.398-19.5 23.152-34.449 0.88281-2.7695-0.66016-5.7188-3.4102-6.6016-2.7617-0.89062-5.7188 0.66016-6.5898 3.4102-4.0742 12.805-10.906 23.145-19.25 29.094-7.7266 5.4883-16.121 6.9688-24.32 4.2422-11.988-4-22-16.152-27.445-33.348-0.37891-1.1953-0.56641-2.4453-0.88281-3.6836h31.184c2.8984 0 5.2461-2.3398 5.2461-5.2461 0-2.8867-2.3516-5.2461-5.2461-5.2461h-33.41c-1.2695-8.8594-1.1758-17.77 0.019532-26.324h33.387c2.8984 0 5.2461-2.3516 5.2461-5.2461 0-2.8867-2.3516-5.2461-5.2461-5.2461h-31.309c3.7148-13.918 10.621-25.895 20.27-32.777 7.6953-5.4805 16.078-6.9492 24.297-4.2305 11.996 3.9883 22.012 16.145 27.457 33.336 0.87109 2.7617 3.832 4.3047 6.5898 3.4102 2.7695-0.88281 4.293-3.832 3.4102-6.5898-6.4961-20.438-18.945-35.066-34.152-40.117-11.367-3.7773-23.344-1.7617-33.715 5.6562-12.859 9.1641-21.738 25.652-25.59 44.41-0.29297 0.66016-0.49219 1.375-0.49219 2.1523 0 0.042969 0.019531 0.0625 0.019531 0.10547-2.832 15.797-2.1367 33.031 2.8906 48.84z"/>
 </g>
</svg>