<?xml version="1.0" encoding="UTF-8"?>
<!-- The Best Svg Icon site in the world: iconSvg.co, Visit us! https://iconsvg.co -->
<svg fill="#000000" width="800px" height="800px" version="1.1" viewBox="144 144 512 512" xmlns="http://www.w3.org/2000/svg">
 <path d="m415.77 248.75c1.3242-15.977 14.793-26.391 37.824-29.32 0.56641-0.058593 1.1484-0.10938 1.7305-0.16406 6.8477 7.1094 19.02 14.668 39.828 14.668 44.414 0 50.297-34.023 50.348-34.363 0.45703-2.8594-1.4961-5.5469-4.3555-6.0039-42.531-6.7695-83.117-1.3398-90.816-0.18359l-0.71875 0.10938c-27.703 3.7383-42.93 15.441-50.852 24.703-8.3242-9.7305-24.434-21.879-53.922-25.07-7.6953-1.1797-48.23-6.7109-91.215 0.12109-2.8594 0.45703-4.8125 3.1445-4.3555 6.0039 0.050781 0.33984 5.9414 34.363 50.359 34.363 20.781 0 32.945-7.5469 39.797-14.648 0.82422 0.066406 1.6367 0.14062 2.4297 0.22656 36.254 3.8945 41.637 23.496 42.414 29.91l-0.007813 61.684h-9.793c-2.9062 0-5.9531 1.3828-5.9531 4.2773v29.312c-36.734 8.832-57.859 33.41-57.859 67.961 0 58.012 47.16 70.613 81.465 79.812 25.211 6.7656 40.75 11.582 40.75 24.824 0 10.707-3.8008 21.652-32.285 21.652-24.266 0-42.285-5.4844-66.523-20.238-1.2812-0.78906-2.8125-0.97266-4.2617-0.53516-1.4336 0.44141-2.6016 1.4766-3.2266 2.8398l-19.164 42c-1.1133 2.4453-0.54688 5.3438 1.7734 6.7031 12.812 7.5234 33.09 17.07 59.332 21.059v28.219c0 2.8984 3.0469 6.9961 5.9492 6.9961h51.949c2.9023 0 5.0781-4.0977 5.0781-6.9961v-28.828c41.984-8.7734 63.828-35.543 63.828-77.656 0-57.359-46.391-67.984-80.289-75.738-25.809-5.9023-41.605-10.242-41.605-24.488 0-8.7539 3.793-16.852 31.234-16.852 19.254 0 38.621 5 59.199 15.289 1.332 0.66016 2.8867 0.73047 4.2617 0.1875 1.3906-0.54688 2.4805-1.6484 3-3.043l15.473-41.266c0.95703-2.5508-0.28906-5.4102-2.7461-6.582-16.672-7.9375-36.613-13.434-52.355-16.355v-28.27c0-2.9023-2.1758-4.2852-5.0781-4.2852h-10.668v-61.727c0.015624-0.14844 0.027343-0.28125 0.027343-0.30859zm9.8398 104.31c16.977 2.3359 33.602 7.0781 49.398 14.105l-11.715 31.32c-20.152-9.3242-39.375-13.871-58.637-13.871-11.414 0-41.715 0-41.715 27.348 0 23.328 24.176 28.859 49.777 34.715 33.832 7.7422 72.188 16.512 72.188 65.504 0 38.32-20.07 61.25-59.484 68.152-2.5156 0.44531-4.4297 2.625-4.4297 5.1758v29.664h-41.984v-29.301c0-2.6484-1.6328-4.8867-4.2578-5.2109-24.09-2.9609-43.113-10.988-55.965-17.988l14.82-32.309c23.602 13.609 42.301 18.758 66.969 18.758 28.418 0 42.852-10.816 42.852-32.148 0-21.969-23.516-28.277-48.434-34.961-34.453-9.2422-73.504-19.715-73.504-69.68 0-41.59 33.477-54.562 53.645-58.594 2.4531-0.48438 3.875-2.6406 3.875-5.1406v-27.316h41.984v26.574c0 2.6211 2.0234 4.8398 4.6172 5.2031zm-30.859-42.273v-61.984c0-0.1875-0.015625-0.42578-0.035156-0.61328-0.62109-5.7266-6.0312-34.52-51.746-39.422-1.7383-0.1875-3.5547-0.33594-5.3984-0.45703-1.6484-0.089844-3.2695 0.58203-4.3438 1.8594-7.2422 8.5977-18.547 12.953-33.602 12.953-25.566 0-35.004-12.926-38.316-20.383 40.117-5.3047 77.613 0.10156 82.168 0.79297 26.523 2.875 40.461 13.387 47.484 21.695 1.2188 1.4414 2.3711 2.9844 3.418 4.5703 0.97266 1.4766 2.6133 2.3633 4.375 2.3633h0.003906c1.7617 0 3.4023-0.88281 4.375-2.3516 1.0859-1.6445 2.2109-3.1445 3.4219-4.582 6.6758-7.8945 19.805-18.008 44.531-21.34l0.79297-0.12109c7.0742-1.0586 42.84-5.8516 81.551-0.71484-3.3477 7.4453-12.832 20.387-38.277 20.387-15.082 0-26.398-4.3672-33.633-12.977-1.0742-1.2812-2.7227-1.9688-4.3711-1.8594-1.5781 0.10547-3.1289 0.23047-4.75 0.39844-40.012 5.0859-46.25 28.887-47.117 39.246-0.023438 0.19531-0.035156 0.38672-0.035156 0.58203v61.957z"/>
</svg>