<?xml version="1.0" encoding="UTF-8"?>
<!-- The Best Svg Icon site in the world: iconSvg.co, Visit us! https://iconsvg.co -->
<svg fill="#000000" width="800px" height="800px" version="1.1" viewBox="144 144 512 512" xmlns="http://www.w3.org/2000/svg">
 <g>
  <path d="m630.07 479.98c-1.6094-3.918-5.418-6.4844-9.6562-6.5039h-31.488v-230.91c0-2.7852-1.1055-5.4531-3.0742-7.4219s-4.6367-3.0742-7.4219-3.0742h-62.977c-5.7969 0-10.496 4.6992-10.496 10.496v230.91h-31.484c-4.2383 0.019532-8.0469 2.5859-9.6602 6.5039-1.6406 3.9102-0.77344 8.4258 2.207 11.441l73.473 73.473c1.9688 1.9883 4.6523 3.1055 7.4492 3.1055 2.8008 0 5.4844-1.1172 7.4531-3.1055l73.473-73.473c2.9766-3.0156 3.8477-7.5312 2.2031-11.441zm-83.129 62.977-48.176-48.492h16.688c2.7852 0 5.457-1.1055 7.4219-3.0742 1.9688-1.9648 3.0742-4.6367 3.0742-7.4219v-230.91h41.984v230.91c0 2.7852 1.1055 5.457 3.0742 7.4219 1.9688 1.9688 4.6406 3.0742 7.4219 3.0742h16.688z"/>
  <path d="m323.17 276.88c-4.0273-3.7344-10.25-3.7344-14.273 0l-136.45 125.95c-3.7695 4.0273-3.7773 10.289-0.015624 14.328 3.7578 4.0352 10.004 4.4727 14.289 0.99609l13.855-12.805v110.1c0 2.7852 1.1055 5.457 3.0742 7.4219 1.9688 1.9688 4.6367 3.0742 7.4219 3.0742h209.92c2.7812 0 5.4531-1.1055 7.4219-3.0742 1.9648-1.9648 3.0742-4.6367 3.0742-7.4219v-110l13.855 12.699h-0.003906c1.9883 2.125 4.7695 3.3281 7.6758 3.3242 2.9102-0.003907 5.6875-1.2148 7.668-3.3398 1.9844-2.1289 2.9961-4.9844 2.793-7.8867-0.20312-2.9023-1.6016-5.5898-3.8594-7.4219zm87.328 228.08h-188.93v-118.92l94.465-87.223 94.465 87.223z"/>
  <path d="m305.54 379.01h-10.496c-5.7969 0-10.496 4.6992-10.496 10.496v31.488c0 2.7812 1.1055 5.4531 3.0742 7.4219 1.9688 1.9648 4.6367 3.0742 7.4219 3.0742h31.488v10.496h-31.488c-5.7969 0-10.496 4.6992-10.496 10.496s4.6992 10.496 10.496 10.496h10.496c0 5.7969 4.6992 10.496 10.496 10.496s10.496-4.6992 10.496-10.496h10.496c2.7812 0 5.4531-1.1094 7.4219-3.0742 1.9688-1.9688 3.0742-4.6406 3.0742-7.4219v-31.488c0-2.7852-1.1055-5.4531-3.0742-7.4219s-4.6406-3.0742-7.4219-3.0742h-31.488v-10.496h31.488c5.7969 0 10.496-4.6992 10.496-10.496s-4.6992-10.496-10.496-10.496h-10.496c0-5.7969-4.6992-10.496-10.496-10.496s-10.496 4.6992-10.496 10.496z"/>
 </g>
</svg>