<?xml version="1.0" encoding="UTF-8"?>
<!-- The Best Svg Icon site in the world: iconSvg.co, Visit us! https://iconsvg.co -->
<svg fill="#000000" width="800px" height="800px" version="1.1" viewBox="144 144 512 512" xmlns="http://www.w3.org/2000/svg">
 <path d="m573.18 242.56h-78.723v-31.488c0-8.3516-3.3164-16.359-9.2227-22.266-5.9023-5.9062-13.914-9.2227-22.262-9.2227h-125.95c-8.3516 0-16.363 3.3164-22.266 9.2227-5.9062 5.9062-9.2227 13.914-9.2227 22.266v31.488h-78.723c-12.523 0-24.539 4.9766-33.398 13.832-8.8555 8.8594-13.832 20.871-13.832 33.398v94.465c0 4.1758 1.6602 8.1797 4.6094 11.133 2.9531 2.9531 6.957 4.6133 11.133 4.6133h15.746v173.18c0 12.527 4.9766 24.539 13.832 33.398 8.8594 8.8555 20.871 13.832 33.398 13.832h283.39c12.527 0 24.539-4.9766 33.398-13.832 8.8555-8.8594 13.832-20.871 13.832-33.398v-173.18h15.746c4.1758 0 8.1797-1.6602 11.133-4.6133 2.9531-2.9531 4.6094-6.957 4.6094-11.133v-94.465c0-12.527-4.9766-24.539-13.832-33.398-8.8594-8.8555-20.871-13.832-33.398-13.832zm-236.16-31.488h125.95v31.488h-125.95zm220.41 362.11c0 4.1758-1.6562 8.1797-4.6094 11.133s-6.957 4.6094-11.133 4.6094h-283.39c-4.1758 0-8.1797-1.6562-11.133-4.6094s-4.6094-6.957-4.6094-11.133v-173.18h110.21v15.742c0 8.3516 3.3164 16.359 9.2227 22.266s13.914 9.2227 22.266 9.2227h31.488c8.3516 0 16.359-3.3164 22.266-9.2227s9.2227-13.914 9.2227-22.266v-15.742h110.21zm-141.7-220.42v62.977h-31.488v-62.977zm173.18 15.742-141.7 0.003907v-15.746c0-8.3516-3.3164-16.359-9.2227-22.266-5.9062-5.9023-13.914-9.2227-22.266-9.2227h-31.488c-8.3516 0-16.359 3.3203-22.266 9.2227-5.9062 5.9062-9.2227 13.914-9.2227 22.266v15.742l-141.7 0.003907v-78.723c0-4.1758 1.6602-8.1797 4.6094-11.133 2.9531-2.9531 6.957-4.6094 11.133-4.6094h346.37c4.1758 0 8.1797 1.6562 11.133 4.6094s4.6094 6.957 4.6094 11.133z"/>
</svg>