<?xml version="1.0" encoding="UTF-8"?>
<!-- The Best Svg Icon site in the world: iconSvg.co, Visit us! https://iconsvg.co -->
<svg fill="#000000" width="800px" height="800px" version="1.1" viewBox="144 144 512 512" xmlns="http://www.w3.org/2000/svg">
 <g>
  <path d="m350.34 365.39c20.164 0 39.5-8.0117 53.754-22.266 14.258-14.258 22.266-33.594 22.266-53.754s-8.0078-39.496-22.266-53.754c-14.254-14.254-33.59-22.266-53.754-22.266-20.16 0-39.496 8.0117-53.75 22.266-14.258 14.258-22.266 33.594-22.266 53.754 0.023437 20.156 8.0391 39.477 22.289 53.727 14.25 14.254 33.574 22.27 53.727 22.293zm0-140.23v-0.003906c17.031 0 33.363 6.7656 45.406 18.809 12.039 12.039 18.805 28.371 18.805 45.402s-6.7617 33.363-18.805 45.402c-12.043 12.043-28.375 18.809-45.402 18.809-17.031 0-33.363-6.7656-45.406-18.805-12.039-12.043-18.805-28.375-18.805-45.406 0.019531-17.023 6.7891-33.344 18.828-45.383 12.035-12.035 28.355-18.809 45.379-18.828z"/>
  <path d="m350.34 322.11c-6.7617-0.007813-12.246-5.4922-12.254-12.254 0-3.2617-2.6406-5.9062-5.9023-5.9062s-5.9062 2.6445-5.9062 5.9062c0.007812 5.4297 1.8516 10.699 5.2305 14.953 3.3789 4.2539 8.0938 7.2422 13.383 8.4766v5.7109c0 3.2578 2.6445 5.9023 5.9023 5.9023 3.2617 0 5.9062-2.6445 5.9062-5.9023v-5.9375c7.5547-2.0703 13.633-7.6914 16.285-15.062 2.6523-7.3711 1.5469-15.574-2.957-21.98-4.5078-6.4102-11.852-10.223-19.688-10.223-4.957 0-9.4219-2.9844-11.32-7.5625-1.8945-4.582-0.84766-9.8516 2.6562-13.355 3.5039-3.5039 8.7773-4.5547 13.355-2.6562 4.5781 1.8945 7.5625 6.3633 7.5625 11.32 0 3.2617 2.6445 5.9023 5.9062 5.9023 3.2578 0 5.9023-2.6406 5.9023-5.9023-0.007812-5.6172-1.9766-11.055-5.5703-15.375-3.5898-4.3164-8.5781-7.2461-14.102-8.2773v-4.3711c0-3.2617-2.6445-5.9062-5.9023-5.9062-3.2617 0-5.9062 2.6445-5.9062 5.9062v5.1367c-7.3281 2.375-13.078 8.1172-15.465 15.441-2.3828 7.3281-1.1133 15.352 3.4141 21.586s11.766 9.9219 19.469 9.9219c3.2695-0.03125 6.4141 1.25 8.7383 3.5508 2.3203 2.3008 3.625 5.4336 3.625 8.7031 0 3.2695-1.3047 6.4023-3.625 8.7031-2.3242 2.3008-5.4688 3.5781-8.7383 3.5508z"/>
  <path d="m234.66 413.77h233.21c3.2578 0 5.9023-2.6406 5.9023-5.9023 0-3.2617-2.6445-5.9062-5.9023-5.9062h-233.21c-3.2578 0-5.9023 2.6445-5.9023 5.9062 0 3.2617 2.6445 5.9023 5.9023 5.9023z"/>
  <path d="m513.16 438.49v-177.23h80.785c3.2695-0.078125 5.8633-2.7812 5.8047-6.0508v-49.641c0-27.094-22.004-49.598-49.082-49.598h-312c-26.02 0-47.195 21.188-47.195 46.895l-2.0664 381.52v-0.003906c-0.011719 1.5898 0.60547 3.1211 1.7188 4.2578 1.1016 1.1211 2.6094 1.7617 4.1836 1.7695 0 0 130.68 0.03125 222.87 0.03125v0.003906c17.551 31.859 50.66 52.043 87.023 53.047 36.359 1.0039 70.535-17.32 89.816-48.168 19.281-30.844 20.785-69.59 3.957-101.84-16.832-32.246-49.48-53.168-85.809-54.988zm37.434-270.71h0.066406c20.582 0 37.281 17.219 37.281 37.801v43.871h-74.781v-43.738c0-20.613 16.68-36.949 37.281-37.934zm-349.35 410.86 2.0352-375.74c0.066406-9.3398 3.8281-18.273 10.457-24.852 6.6289-6.5781 15.59-10.266 24.93-10.266h279.93c-10.578 9.8398-17.242 22.973-17.242 37.945v232.86c-9.5938 0.68359-19.039 2.7227-28.059 6.0625-0.97266-2.1016-3.1133-3.4102-5.4258-3.3164h-233.2c-3.2578 0-5.9023 2.6406-5.9023 5.9023s2.6445 5.9023 5.9023 5.9023h221.13c-12.078 6.793-22.473 16.207-30.422 27.555h-190.71c-3.2578 0-5.9023 2.6406-5.9023 5.9023 0 3.2617 2.6445 5.9062 5.9023 5.9062h183.18c-4.6445 7.8711-8.1094 17.711-10.188 27.551h-172.99c-3.2578 0-5.9023 2.6445-5.9023 5.9023 0 3.2617 2.6445 5.9062 5.9023 5.9062h171.2c-0.29688 2.9531-0.44922 6.1016-0.44922 9.3242h0.003906c-0.015624 12.867 2.418 25.621 7.1719 37.578-79.934 0-185.43-0.12891-211.34-0.12891zm306.76 53.102c-22.164 0.011719-43.562-8.0859-60.164-22.77-16.598-14.684-27.25-34.938-29.945-56.934-2.6953-22 2.7539-44.223 15.32-62.477 0.046875-0.066406 0.09375-0.12891 0.13672-0.19531v-0.003907c18.066-26.137 48.48-40.922 80.195-38.988 31.715 1.9336 60.105 20.312 74.859 48.449 14.754 28.141 13.723 61.945-2.7227 89.129-16.445 27.188-45.906 43.797-77.68 43.789z"/>
  <path d="m537.52 515.19-38.98 38.98-20.023-20.219c-2.2969-2.293-6.0156-2.2969-8.3203-0.015625-2.3086 2.2852-2.3398 6.0039-0.070312 8.3242l24.199 24.348v-0.003907c1.1133 1.0938 2.6172 1.6914 4.1758 1.6602h0.015625c1.5547 0.035156 3.0586-0.55469 4.1758-1.6367l43.18-43.133c1.1094-1.1055 1.7344-2.6094 1.7344-4.1758s-0.625-3.0703-1.7344-4.1758c-1.1133-1.1055-2.6172-1.7227-4.1836-1.7148-1.5703 0.011719-3.0664 0.64453-4.168 1.7617z"/>
 </g>
</svg>