<?xml version="1.0" encoding="UTF-8"?>
<!-- The Best Svg Icon site in the world: iconSvg.co, Visit us! https://iconsvg.co -->
<svg fill="#000000" width="800px" height="800px" version="1.1" viewBox="144 144 512 512" xmlns="http://www.w3.org/2000/svg">
 <path d="m539.02 464.86-28.812-132.88c-8.0898-37.117-34.207-67.727-69.59-81.555 4.2891-7.1328 6.5742-15.293 6.6133-23.617 0-16.871-9.0039-32.465-23.617-40.902s-32.617-8.4375-47.23 0c-14.613 8.4375-23.617 24.031-23.617 40.902 0.042969 8.3242 2.3242 16.484 6.6133 23.617-35.383 13.828-61.5 44.438-69.59 81.555l-28.34 132.88c-7.6602 2.0391-14.625 6.1211-20.152 11.809-9.1289 8.7852-14.348 20.867-14.484 33.535 0 12.527 4.9766 24.539 13.836 33.398 8.8555 8.8555 20.871 13.832 33.398 13.832h78.719v15.746c0 16.875 9.0039 32.465 23.617 40.902 14.613 8.4375 32.617 8.4375 47.23 0s23.617-24.027 23.617-40.902v-15.746h78.719c12.527 0 24.543-4.9766 33.398-13.832 8.8594-8.8594 13.836-20.871 13.836-33.398-0.011719-10.238-3.3477-20.199-9.5117-28.379-6.1602-8.1758-14.812-14.133-24.652-16.965zm-154.77-238.05c0-4.1758 1.6602-8.1797 4.6133-11.133 2.9531-2.9492 6.957-4.6094 11.133-4.6094s8.1797 1.6602 11.133 4.6094c2.9492 2.9531 4.6094 6.957 4.6094 11.133s-1.6602 8.1797-4.6094 11.133c-2.9531 2.9531-6.957 4.6133-11.133 4.6133s-8.1797-1.6602-11.133-4.6133c-2.9531-2.9531-4.6133-6.957-4.6133-11.133zm31.488 346.37v0.003906c0 5.625-3 10.82-7.8711 13.633s-10.875 2.8125-15.746 0-7.8711-8.0078-7.8711-13.633v-15.746h31.488zm121.07-51.797v0.003907c-2.8203 2.9766-6.7617 4.6328-10.863 4.5625h-251.9c-4.1758 0-8.1797-1.6562-11.133-4.6094-2.9531-2.9531-4.6133-6.957-4.6133-11.133 0.058594-4.2305 1.8203-8.2578 4.8828-11.18 2.8203-2.9766 6.7617-4.6328 10.863-4.5664 3.6602 0.082031 7.2344-1.1133 10.109-3.3828 2.875-2.2734 4.8672-5.4727 5.6328-9.0547l30.699-143.43 0.003907 0.003906c5.1562-24.629 21.395-45.496 43.996-56.547 22.605-11.055 49.047-11.055 71.648 0 22.605 11.051 38.84 31.918 44 56.547l30.07 143.43c0.76953 3.582 2.7617 6.7812 5.6328 9.0547 2.875 2.2695 6.4492 3.4648 10.109 3.3828 4.1758 0 8.1836 1.6602 11.133 4.6133 2.9531 2.9531 4.6133 6.957 4.6133 11.133-0.058593 4.2305-1.8164 8.2578-4.8828 11.18z"/>
</svg>