<?xml version="1.0" encoding="UTF-8"?>
<!-- The Best Svg Icon site in the world: iconSvg.co, Visit us! https://iconsvg.co -->
<svg fill="#000000" width="800px" height="800px" version="1.1" viewBox="144 144 512 512" xmlns="http://www.w3.org/2000/svg">
 <g>
  <path d="m453.42 394.04c0-1.2812-0.51172-2.5117-1.4219-3.418-0.90625-0.90625-2.1367-1.4141-3.4219-1.4141h-94.996c-3.1133 0.023437-6.1367 1.0508-8.6172 2.9297-2.4844 1.8789-4.293 4.5117-5.1562 7.5l-18.344 66.41c-0.71094 2.5781 0.80078 5.2422 3.375 5.9531 2.5625 0.6875 5.1953-0.82031 5.9062-3.375l18.312-66.352v0.003907c0.58984-2.0078 2.4258-3.3867 4.5156-3.3984h94.996c1.2852 0.003906 2.5195-0.50391 3.4297-1.4141 0.91016-0.90625 1.4219-2.1406 1.4219-3.4258z"/>
  <path d="m620.56 596.26-26.215-94.906c-1.1211-3.8359-3.4531-7.2031-6.6445-9.6055s-7.0703-3.7109-11.066-3.7305h-65.27c2.3242-4.2305 2.8672-9.2148 1.5156-13.852l-26.215-94.926v-0.003906c-1.125-3.8281-3.457-7.1953-6.6484-9.5938-3.1914-2.4023-7.0703-3.707-11.062-3.7266h-135.72c-4 0.023438-7.8867 1.3398-11.078 3.75-3.1914 2.4141-5.5156 5.7891-6.6328 9.6328l-26.227 94.797c-1.3711 4.6484-0.83984 9.6562 1.4766 13.914h-65.219c-4 0.023438-7.8867 1.3398-11.082 3.7539-3.1914 2.4141-5.5156 5.793-6.6289 9.6367l-26.227 94.801c-1.6172 5.5742-0.51953 11.586 2.9648 16.227 3.4805 4.6445 8.9453 7.3828 14.75 7.3906h188.12c5.1914 0.015625 10.145-2.1719 13.629-6.0234 3.4961 3.8555 8.4727 6.0352 13.676 6.0039h188.05c5.7852-0.011719 11.234-2.7383 14.715-7.3633 3.4766-4.6211 4.5898-10.613 2.9961-16.176zm-320.55-111.75c-1.6602-2.2227-2.168-5.0977-1.3711-7.7539l26.184-94.809h0.003906c1.1094-3.7422 4.5391-6.3164 8.4414-6.3359h135.66c3.8828 0.023437 7.2969 2.5703 8.4219 6.2891l26.215 94.855c0.76953 2.6562 0.24219 5.5156-1.418 7.7227-1.6602 2.207-4.2617 3.5078-7.0234 3.5039h-188.1c-2.7578 0.019532-5.3594-1.2695-7.0156-3.4727zm101.07 96.848-22.094-80c-0.37109-1.2734-0.88281-2.5-1.5234-3.6602h47.23c-0.64844 1.1797-1.168 2.4258-1.543 3.7188zm-6.6133 25.289c-1.6484 2.2148-4.2539 3.5156-7.0156 3.5h-188.1c-2.7734 0-5.3789-1.3086-7.0352-3.5273-1.6602-2.2188-2.1758-5.0898-1.3906-7.7461l26.184-94.809h0.003906c1.1055-3.7461 4.5352-6.3281 8.4414-6.3477h135.7c3.8828 0.019531 7.3047 2.5664 8.4297 6.2852l26.215 94.926v0.003906c0.77734 2.6523 0.24609 5.5156-1.4258 7.7148zm215.37 0c-1.6523 2.2148-4.2578 3.5156-7.0234 3.5h-188.05c-2.7695 0.003906-5.3828-1.3047-7.043-3.5234s-2.1758-5.0938-1.3906-7.75l26.145-94.84c1.1094-3.7461 4.5391-6.3242 8.4453-6.3477h135.7c3.8828 0.023437 7.2969 2.5742 8.4219 6.2891l26.215 94.926c0.78906 2.6602 0.26172 5.5352-1.418 7.7461z"/>
  <path d="m556.26 511.31h-94.984c-3.1172 0.023437-6.1406 1.0547-8.6211 2.9336-2.4844 1.8828-4.293 4.5156-5.1562 7.5078l-18.344 66.402 0.003906-0.003906c-0.71094 2.5781 0.79688 5.2422 3.375 5.9531 0.41797 0.11719 0.85156 0.17578 1.2891 0.17969 2.1758-0.003906 4.082-1.457 4.6641-3.5547l18.32-66.352c0.58984-2.0039 2.4258-3.3867 4.5156-3.3945h94.938c1.3203 0.0625 2.6094-0.42188 3.5625-1.3359 0.95703-0.91406 1.4961-2.1758 1.4961-3.5 0-1.3203-0.53906-2.5859-1.4961-3.5-0.95312-0.91406-2.2422-1.3945-3.5625-1.3359z"/>
  <path d="m340.9 511.31h-94.996c-3.1211 0.011718-6.1562 1.0391-8.6484 2.918-2.4922 1.8828-4.3086 4.5234-5.1758 7.5234l-18.332 66.398c-0.71094 2.5742 0.79688 5.2383 3.3711 5.9492 2.5742 0.71094 5.2344-0.79688 5.9492-3.3711l18.332-66.352c0.60156-1.9844 2.4297-3.3438 4.5039-3.3438h94.996c2.5859-0.11719 4.625-2.2461 4.625-4.8359 0-2.5898-2.0391-4.7188-4.625-4.8359z"/>
  <path d="m212.5 400.16c-0.13281 1.3906 0.33203 2.7695 1.2812 3.7969 0.96094 1.043 2.3164 1.6367 3.7383 1.6328 1.3789-0.007813 2.6875-0.60547 3.6055-1.6367 0.91406-1.0312 1.3477-2.4023 1.1953-3.7734-0.12891-1.082-2.6367-26.566 30.219-35.512 2.1055-0.57812 3.5625-2.4883 3.5625-4.6719 0-2.1797-1.457-4.0898-3.5625-4.668-32.816-8.8555-30.348-34.363-30.219-35.512 0.125-1.3867-0.34375-2.7578-1.2891-3.7773-0.96094-0.99219-2.2852-1.5547-3.668-1.5547s-2.707 0.5625-3.6719 1.5547c-0.91406 1.0352-1.3516 2.4102-1.1992 3.7852 0.12891 1.082 2.6484 26.566-30.207 35.512l-0.003906 0.003907c-2.1016 0.57422-3.5625 2.4883-3.5625 4.668 0 2.1797 1.4609 4.0938 3.5625 4.668 32.855 8.8945 30.336 34.422 30.219 35.484zm4.9219-59.355c3.5508 6.8398 9.6641 13.941 20.152 19.188-10.488 5.2539-16.602 12.359-20.152 19.199-3.5508-6.8398-9.6719-13.941-20.152-19.199 10.469-5.2539 16.59-12.348 20.141-19.188z"/>
  <path d="m413.45 307.19c32.855 8.9141 30.336 34.441 30.219 35.492-0.12891 1.3906 0.33984 2.7734 1.2891 3.8008 0.95703 1.0469 2.3125 1.6406 3.7305 1.6406 1.3789-0.003906 2.6953-0.59766 3.6133-1.6289 0.91406-1.0352 1.3477-2.4102 1.1875-3.7812-0.11719-1.082-2.6367-26.566 30.219-35.523 2.1055-0.57812 3.5625-2.4883 3.5625-4.668 0-2.1836-1.457-4.0938-3.5625-4.6719-32.816-8.8555-30.348-34.363-30.219-35.504v0.003906c0.125-1.3867-0.34375-2.7578-1.2891-3.7812-0.96094-0.99219-2.2852-1.5547-3.668-1.5547-1.3867 0-2.7109 0.5625-3.6719 1.5547-0.91797 1.0352-1.3516 2.4102-1.1914 3.7812 0.11719 1.082 2.6367 26.566-30.219 35.512-2.1016 0.57422-3.5625 2.4883-3.5625 4.668 0 2.1836 1.4609 4.0938 3.5625 4.668zm35.129-23.852c3.5508 6.8398 9.6641 13.941 20.152 19.188-10.488 5.2461-16.602 12.348-20.152 19.188-3.5508-6.8398-9.6641-13.941-20.152-19.188 10.488-5.2461 16.602-12.348 20.152-19.188z"/>
  <path d="m262.02 259.8c59.648 16.176 54.809 62.918 54.574 64.887h-0.003906c-0.10938 1.4023 0.38281 2.7852 1.3594 3.7969 0.98828 1.0547 2.3711 1.6523 3.8164 1.6523 1.3828-0.003906 2.6953-0.59766 3.6133-1.6328 0.91016-1.0391 1.3438-2.4141 1.1875-3.7891-0.23437-1.9688-5.0781-48.727 54.562-64.945l0.003907 0.003906c2.1016-0.57812 3.5586-2.4883 3.5586-4.6719 0-2.1797-1.457-4.0898-3.5586-4.668-59.641-16.176-54.801-62.926-54.562-64.945h-0.003907c0.078126-1.3711-0.41406-2.7148-1.3555-3.7188-0.98047-1-2.3203-1.5625-3.7188-1.5625-1.4023 0-2.7422 0.5625-3.7227 1.5625-0.91797 1.0391-1.3438 2.4219-1.168 3.8008 0 0.27734 0.15625 1.4062 0.19531 3.1992v0.80859c0 11.984-4.3281 47.23-54.781 60.891l0.003907-0.003906c-2.1055 0.57422-3.5625 2.4883-3.5625 4.668 0 2.1797 1.457 4.0938 3.5625 4.668zm59.562-46.141c5.6172 14.477 17.664 31.027 43.141 41.465-25.477 10.441-37.52 27-43.141 41.477-5.6289-14.477-17.711-31.035-43.148-41.477 25.473-10.438 37.516-26.988 43.145-41.465z"/>
 </g>
</svg>