<?xml version="1.0" encoding="UTF-8"?>
<!-- The Best Svg Icon site in the world: iconSvg.co, Visit us! https://iconsvg.co -->
<svg width="800px" height="800px" version="1.1" viewBox="144 144 512 512" xmlns="http://www.w3.org/2000/svg">
 <defs>
  <clipPath id="a">
   <path d="m148.09 148.09h503.81v503.81h-503.81z"/>
  </clipPath>
 </defs>
 <g clip-path="url(#a)">
  <path d="m415.74 289.79h-15.742c-4.1758 0-8.1797-1.6562-11.133-4.6094-2.9531-2.9531-4.6133-6.957-4.6133-11.133 0-4.3477-3.5234-7.8711-7.8711-7.8711-4.3477 0-7.8711 3.5234-7.8711 7.8711 0 8.3516 3.3164 16.359 9.2227 22.266 5.9023 5.9023 13.914 9.2227 22.266 9.2227v7.8711c0 4.3477 3.5234 7.8711 7.8711 7.8711s7.8711-3.5234 7.8711-7.8711v-7.8711c11.25 0 21.645-6.0039 27.27-15.746 5.625-9.7422 5.625-21.746 0-31.488-5.625-9.7422-16.02-15.742-27.27-15.742h-15.742c-5.625 0-10.824-3-13.637-7.8711s-2.8125-10.875 0-15.746 8.0117-7.8711 13.637-7.8711h15.742c4.1758 0 8.1797 1.6602 11.133 4.6094 2.9531 2.9531 4.6133 6.957 4.6133 11.133 0 4.3477 3.5234 7.875 7.8711 7.875s7.8711-3.5273 7.8711-7.875c0-8.3516-3.3164-16.359-9.2227-22.266-5.9062-5.9023-13.914-9.2227-22.266-9.2227v-7.8711c0-4.3477-3.5234-7.8711-7.8711-7.8711s-7.8711 3.5234-7.8711 7.8711v7.8711c-11.25 0-21.645 6.0039-27.27 15.746-5.625 9.7422-5.625 21.746 0 31.488 5.625 9.7422 16.02 15.742 27.27 15.742h15.742c5.625 0 10.824 3.0039 13.637 7.875 2.8125 4.8711 2.8125 10.871 0 15.742-2.8125 4.8711-8.0117 7.8711-13.637 7.8711zm-7.8711 62.977c27.141 0 53.172-10.781 72.363-29.973 19.191-19.191 29.973-45.223 29.973-72.363 0-27.141-10.781-53.172-29.973-72.363s-45.223-29.973-72.363-29.973-53.172 10.781-72.363 29.973c-19.191 19.191-29.973 45.223-29.973 72.363 0.03125 27.133 10.824 53.141 30.008 72.328 19.188 19.184 45.195 29.977 72.328 30.008zm0-188.93c22.965 0 44.988 9.125 61.23 25.363 16.238 16.238 25.359 38.266 25.359 61.23 0 22.965-9.1211 44.992-25.359 61.23-16.242 16.238-38.266 25.363-61.23 25.363s-44.992-9.125-61.23-25.363c-16.238-16.238-25.363-38.266-25.363-61.23 0.027344-22.957 9.1562-44.969 25.391-61.203 16.234-16.234 38.246-25.363 61.203-25.391zm236.16 217.27h-62.977c-5.3281 0.011719-10.492 1.8242-14.66 5.1406-4.168 3.3203-7.0898 7.9492-8.293 13.137l-88.527-27.176-0.003907 0.003907c-11.41-3.4805-23.641-3.1836-34.871 0.84766l-13.18 4.7227-61.766-13.555h0.003906c-13.047-2.8672-26.641-1.9844-39.203 2.5508l-79.84 28.781c-1.8008-4.2852-4.832-7.9414-8.7031-10.512-3.875-2.5703-8.4219-3.9414-13.07-3.9414h-62.977c-4.3477 0-7.8711 3.5234-7.8711 7.8711v157.44c0 2.0898 0.82812 4.0898 2.3047 5.5664 1.4766 1.4766 3.4805 2.3047 5.5664 2.3047h62.977c7.8945-0.007812 15.262-3.9609 19.633-10.531 29.121 36.922 66.117 66.875 108.29 87.68l33.977 16.719c6.9102 3.4336 14.816 4.3242 22.32 2.5039 7.5039-1.8164 14.125-6.2188 18.703-12.438 4.5742-6.2188 6.8125-13.852 6.3164-21.555 2.1328 0.55078 4.3164 0.87109 6.5195 0.96094 2.1562-0.003906 4.3086-0.22656 6.4219-0.66016 6.8945-1.4023 13.113-5.0859 17.648-10.461 4.5391-5.375 7.1289-12.125 7.3555-19.156 4.4766 2.5195 9.5039 3.8867 14.641 3.9844 2.1523-0.003907 4.3008-0.22656 6.4062-0.66016 7.3398-1.4922 13.902-5.5664 18.492-11.48 4.5898-5.918 6.9062-13.285 6.5273-20.766 6.0938 1.5195 12.516 1.043 18.32-1.3516 5.8047-2.3984 10.691-6.5898 13.938-11.965 2.3672-3.5742 3.9727-7.5938 4.7227-11.809h8.5352c0.64453 5.75 3.3789 11.066 7.6836 14.934 4.3008 3.8672 9.8789 6.0234 15.664 6.0508h62.977c2.0859 0 4.0898-0.82812 5.5664-2.3047 1.4766-1.4766 2.3047-3.4766 2.3047-5.5664v-157.44c0-2.0859-0.82812-4.0898-2.3047-5.5664-1.4766-1.4766-3.4805-2.3047-5.5664-2.3047zm-417.22 149.57c0 2.0859-0.82812 4.0898-2.3047 5.5664-1.4766 1.4727-3.4766 2.3047-5.5664 2.3047h-55.105v-141.7h55.105c2.0898 0 4.0898 0.82813 5.5664 2.3047 1.4766 1.4766 2.3047 3.4766 2.3047 5.5664zm304.5 5.8398h0.003906c-2.2969 3.4883-5.8828 5.9219-9.9727 6.7656-4.0859 0.84766-8.3438 0.03125-11.832-2.2617l-73.102-48.133-3.3711 5.1172h0.003906c-1.043 0.70312-1.7617 1.7891-2 3.0234l-3.2891 5.0078 6.0312 3.9688c0.078126 0 0.125 0.14062 0.20313 0.20312l55.496 36.559c4.5938 3.1367 7.1914 8.4648 6.832 14.016-0.35547 5.5508-3.6172 10.5-8.5742 13.02-4.9609 2.5234-10.883 2.2383-15.578-0.74219l-19.867-13.082-0.21875-0.17187-48.305-31.805h-0.125l-4.582-3.0234c-3.6289-2.3047-8.4336-1.2734-10.797 2.3125-2.3633 3.5898-1.4102 8.4102 2.1367 10.832l53.105 34.969c3.4258 2.3242 5.8008 5.9023 6.6055 9.9648 0.80859 4.0625-0.019532 8.2773-2.2969 11.734-2.2812 3.457-5.832 5.875-9.8828 6.7344-4.0859 0.83594-8.3398 0.015624-11.824-2.2852l-53.309-35.109c-1.7422-1.1875-3.8906-1.6289-5.9609-1.2227-2.0703 0.41016-3.8906 1.6328-5.0508 3.3945s-1.5664 3.918-1.125 5.9805c0.44531 2.0625 1.6953 3.8633 3.4766 4.9961l2.7695 1.8281c0.078125 0 0.125 0.15625 0.21875 0.21875l37.785 24.859h0.003906c5.1992 3.1172 8.3789 8.7422 8.3633 14.809-0.011718 6.0625-3.2148 11.672-8.4258 14.77-5.2148 3.0977-11.672 3.2227-17.004 0.33594l-34.055-16.832c-44.289-21.855-82.504-54.301-111.25-94.465v-111.18l83.316-30.008c9.7773-3.5156 20.348-4.2031 30.496-1.9844l37.359 8.2031-27.016 9.7461c-11.18 3.8281-19.465 13.328-21.742 24.922-2.2734 11.598 1.8086 23.527 10.715 31.293 8.9023 7.7695 21.277 10.195 32.457 6.3672l37.422-12.137 101.27 66.676c3.793 2.5 6.3164 6.5195 6.9297 11.02 0.011719 0.38672 0.046875 0.76953 0.10938 1.1484 0.22266 3.4062-0.67578 6.7891-2.5508 9.6367zm26.121-18.91h-9.4453c-2.2461-6.5938-6.6367-12.246-12.469-16.059l-104.41-68.77c-1.9961-1.3125-4.4805-1.6484-6.7539-0.91406l-41.027 13.32h-0.003906c-3.1836 1.0391-6.6016 1.1289-9.8359 0.26172-3.2383-0.86719-6.1523-2.6523-8.3945-5.1406-3.875-4.2852-5.3555-10.219-3.9531-15.824 1.4023-5.6016 5.5078-10.137 10.945-12.09l68-24.527-0.003907-0.003906c8.0195-2.8828 16.758-3.0898 24.906-0.59766l92.449 28.402zm78.719 20.941h-55.102c-4.3477 0-7.8711-3.5234-7.8711-7.8711v-125.95c0-4.3477 3.5234-7.8711 7.8711-7.8711h55.105z"/>
 </g>
</svg>