<?xml version="1.0" encoding="UTF-8"?>
<!-- The Best Svg Icon site in the world: iconSvg.co, Visit us! https://iconsvg.co -->
<svg fill="#000000" width="800px" height="800px" version="1.1" viewBox="144 144 512 512" xmlns="http://www.w3.org/2000/svg">
 <g>
  <path d="m441.74 512.14c4.1758 0 7.5586-3.3867 7.5586-7.5586v-15.133c0-4.1719-3.3789-7.5586-7.5586-7.5586-4.1758 0-7.5586 3.3867-7.5586 7.5586v15.133c0.003906 4.1719 3.3867 7.5586 7.5586 7.5586z"/>
  <path d="m441.74 456.64c4.1758 0 7.5586-3.3867 7.5586-7.5586v-15.141c0-4.1719-3.3789-7.5586-7.5586-7.5586-4.1758 0-7.5586 3.3867-7.5586 7.5586v15.141c0.003906 4.1719 3.3867 7.5586 7.5586 7.5586z"/>
  <path d="m441.74 401.14c4.1758 0 7.5586-3.3867 7.5586-7.5586v-7.5586c0-4.1719-3.3789-7.5586-7.5586-7.5586-4.1758 0-7.5586 3.3867-7.5586 7.5586v7.5586c0.003906 4.1719 3.3867 7.5586 7.5586 7.5586z"/>
  <path d="m312.04 347.62c4.1758 0 7.5586-3.3867 7.5586-7.5586v-7.5586c0-4.1719-3.3789-7.5586-7.5586-7.5586-4.1758 0-7.5586 3.3867-7.5586 7.5586v7.5586c0 4.1719 3.3828 7.5586 7.5586 7.5586z"/>
  <path d="m506 518.89c4.1758 0 7.5586-3.3867 7.5586-7.5586v-12.605c0-4.1719-3.3789-7.5586-7.5586-7.5586-4.1758 0-7.5586 3.3867-7.5586 7.5586v12.605c0 4.1719 3.3828 7.5586 7.5586 7.5586z"/>
  <path d="m506 472.66c4.1758 0 7.5586-3.3867 7.5586-7.5586v-12.605c0-4.1719-3.3789-7.5586-7.5586-7.5586-4.1758 0-7.5586 3.3867-7.5586 7.5586v12.605c0 4.1719 3.3828 7.5586 7.5586 7.5586z"/>
  <path d="m593.21 465.6-0.39063-50.938c-0.039062-4.7422-2.7344-9.0625-6.9883-11.18-4.2422-2.1172-9.3203-1.6641-13.125 1.168l-13.332 9.9102-87.82-75.738c-4.3789-3.7734-10.539-4.7266-15.852-2.4297l-57.473 24.766-129.9-129.89c-5.9062-5.9062-15.469-5.9062-21.371 0-5.7422 5.7422-5.8555 14.93-0.42188 20.859v145.99c-30.078 17.277-50.383 49.645-50.383 86.816 0 55.305 44.828 100.13 100.13 100.13 25.336 0 48.406-9.4883 66.043-25.004h208.74c4.1758 0 7.5586-3.3867 7.5586-7.5586v-72.613c0-0.058594-0.015625-0.10938-0.015625-0.17188 0.67188 0.10547 1.3398 0.17188 2.0156 0.17188h0.10156c6.957 0 12.594-5.6367 12.594-12.594-0.003906-0.57031-0.035156-1.1406-0.10937-1.6953zm-209.1-75.812c4.3789 4.3789 10.984 5.6484 16.672 3.1992l58.207-25.086 42.969 37.059c-2.1055 1.3438-3.5117 3.6836-3.5117 6.3672v7.5586c0 4.1719 3.3789 7.5586 7.5586 7.5586 4.1758 0 7.5586-3.3867 7.5586-7.5586v-3.9141l20.957 18.078-11.602 8.6289c-3.8086 2.8281-5.6992 7.5586-4.9023 12.234 0.80469 4.6758 4.1602 8.5039 8.6992 9.9102l38.145 11.793c-0.83984 1.2148-1.3398 2.6914-1.3398 4.2891l-0.003906 65.043h-49.957c0-4.1719-3.3789-7.5586-7.5586-7.5586-4.1758 0-7.5586 3.3867-7.5586 7.5586h-49.141c0-4.1719-3.3789-7.5586-7.5586-7.5586-4.1758 0-7.5586 3.3867-7.5586 7.5586h-45.012c0-4.1719-3.3789-7.5586-7.5586-7.5586-0.058593 0-0.10938 0.015625-0.17188 0.015625 9.4297-15.27 14.969-33.207 14.969-52.473 0-19.652-5.75-37.926-15.527-53.398 0.24219 0.023438 0.48047 0.074219 0.73047 0.074219 4.1758 0 7.5586-3.3867 7.5586-7.5586v-7.5586c0-4.1719-3.3789-7.5586-7.5586-7.5586-4.1758 0-7.5586 3.3867-7.5586 7.5586v5.4258c-13.66-16.844-32.688-29.074-54.469-34.285v-7.6289c0-4.1719-3.3789-7.5586-7.5586-7.5586-4.1758 0-7.5586 3.3867-7.5586 7.5586v5.1992c-2.7109-0.22266-5.4297-0.41406-8.1953-0.41406-12.191 0-23.824 2.2891-34.637 6.2812l0.011719-123.74zm-70.711 72.117c2.9531-2.9531 7.7344-2.9531 10.688 0 4.9062 4.9023 12.887 4.9023 17.789 0 2.9531-2.9531 7.7344-2.9531 10.688 0s2.9531 7.7344 0 10.688c-5.3945 5.3945-12.488 8.0977-19.582 8.0977s-14.184-2.6992-19.582-8.0977c-2.9531-2.9531-2.9531-7.7344 0-10.688zm-73.391 0c2.9531-2.9531 7.7383-2.9531 10.691 0 4.9023 4.9023 12.883 4.9023 17.789 0 2.9531-2.9531 7.7344-2.9531 10.688 0s2.9531 7.7344 0 10.688c-5.3945 5.3945-12.488 8.0977-19.578 8.0977-7.0938 0-14.184-2.6992-19.582-8.0977-2.9609-2.9492-2.9609-7.7344-0.007813-10.688zm56.488 55.527c-14.398 0-27.555 8.1562-32.727 20.293-1.2227 2.8672-4.0195 4.5898-6.9531 4.5898-0.98828 0-1.9961-0.19141-2.9609-0.60547-3.8398-1.6367-5.6211-6.0742-3.9883-9.9219 7.6367-17.906 25.941-29.477 46.633-29.477 20.102 0 38.207 11.125 46.133 28.344 1.7422 3.793 0.085938 8.2812-3.707 10.02-3.793 1.7539-8.2773 0.097656-10.027-3.7031-5.4648-11.863-18.184-19.539-32.402-19.539z"/>
 </g>
</svg>