<?xml version="1.0" encoding="UTF-8"?>
<!-- The Best Svg Icon site in the world: iconSvg.co, Visit us! https://iconsvg.co -->
<svg fill="#000000" width="800px" height="800px" version="1.1" viewBox="144 144 512 512" xmlns="http://www.w3.org/2000/svg">
 <g>
  <path d="m400 161.35c-63.293 0-124 25.145-168.75 69.898s-69.898 105.46-69.898 168.75 25.145 123.99 69.898 168.75c44.754 44.758 105.46 69.898 168.75 69.898s123.99-25.141 168.75-69.898c44.758-44.754 69.898-105.45 69.898-168.75s-25.141-124-69.898-168.75c-44.754-44.754-105.45-69.898-168.75-69.898zm212.13 238.65c0.042969 51.621-18.82 101.48-53.031 140.14l-37.52-37.52h-0.003906c24.344-28.641 37.648-65.035 37.523-102.62-0.027344-39.883-15.035-78.301-42.043-107.64-27.012-29.344-64.055-47.473-103.8-50.797v-53.031c53.816 3.3711 104.33 27.109 141.27 66.391s57.539 91.152 57.602 145.08zm-212.13-132.58c35.16 0 68.883 13.969 93.746 38.832 24.867 24.863 38.832 58.586 38.832 93.75 0 35.16-13.965 68.883-38.832 93.746-24.863 24.867-58.586 38.832-93.746 38.832-35.164 0-68.887-13.965-93.75-38.832-24.863-24.863-38.832-58.586-38.832-93.746 0-35.164 13.969-68.887 38.832-93.75s58.586-38.832 93.75-38.832zm-212.13 132.58c0.0625-53.926 20.66-105.8 57.602-145.08s87.453-63.02 141.27-66.391v52.371c-42.195 1.7578-81.965 20.203-110.56 51.285-28.594 31.078-43.672 72.246-41.91 114.44 1.7578 42.195 20.203 81.961 51.285 110.55 31.078 28.594 72.246 43.672 114.44 41.914 37.617 0.050782 74.016-13.352 102.62-37.789l37.52 37.789c-41.051 36.125-94.465 55-149.1 52.691-54.633-2.3125-106.26-25.629-144.12-65.09-37.855-39.461-59.012-92.02-59.051-146.7z"/>
  <path d="m409.94 446.4h-49.719c-7.3203 0-13.258 5.9375-13.258 13.258 0 7.3242 5.9375 13.258 13.258 13.258h26.516l0.003907 6.6289c0 7.3242 5.9336 13.258 13.258 13.258 7.3203 0 13.258-5.9336 13.258-13.258v-7.0273c14.891-1.1719 28.105-9.9961 34.895-23.305 6.7852-13.309 6.1719-29.188-1.6211-41.93-7.793-12.746-21.648-20.523-36.59-20.543h-19.887c-5.9219 0-11.391-3.1602-14.352-8.2891-2.9609-5.125-2.9609-11.445 0-16.57 2.9609-5.1289 8.4297-8.2891 14.352-8.2891h49.719c7.3203 0 13.258-5.9336 13.258-13.258 0-7.3203-5.9375-13.258-13.258-13.258h-26.516v-6.6289c0-7.3203-5.9375-13.258-13.258-13.258-7.3242 0-13.258 5.9375-13.258 13.258v7.0273c-14.895 1.1719-28.109 10-34.895 23.305-6.7891 13.309-6.1758 29.188 1.6172 41.93 7.7969 12.746 21.652 20.527 36.59 20.547h19.887c5.9219 0 11.395 3.1562 14.352 8.2852 2.9609 5.1289 2.9609 11.445 0 16.574-2.957 5.125-8.4297 8.2852-14.352 8.2852z"/>
 </g>
</svg>