<?xml version="1.0" encoding="UTF-8"?>
<!-- The Best Svg Icon site in the world: iconSvg.co, Visit us! https://iconsvg.co -->
<svg fill="#000000" width="800px" height="800px" version="1.1" viewBox="144 144 512 512" xmlns="http://www.w3.org/2000/svg">
 <g>
  <path d="m565.48 169.23h-81.422c-2.5742 0-4.6602 2.0859-4.6602 4.6602v5.2188h-10.039c-6.7969 0-12.328 5.5312-12.328 12.328v5.5664l-88.168-20.453c-8.2617-1.7969-20.297 0.36719-27.434 4.9609l-103.34 67.832c-4.1406 2.6641-7.0312 6.8477-7.9453 11.477-0.83984 4.2891 0.046874 8.5742 2.4922 12.082 3.5312 5.0469 9.8086 7.8984 16.234 7.8984 2.8281 0 5.6836-0.55469 8.3438-1.7148l53.203-21.949c2.8047 6.6406 9.4453 11.266 17.191 11.266h48.203c3.5234 0 8.4219 0.52344 13.441 1.4375 4.6133 0.84766 8.8711 1.9414 11.992 3.082l0.26562 0.10547c0.035156 0.015625 0.066406 0.023437 0.10156 0.039062 8.7227 3.1992 22.059 5.1133 35.68 5.1133h19.738v4.3477c0 6.7969 5.5312 12.328 12.328 12.328h10.039v3.6484c0 2.5742 2.0859 4.6602 4.6602 4.6602h81.422c2.5742 0 4.6602-2.0859 4.6602-4.6602v-124.63c0-2.5547-2.0859-4.6445-4.6602-4.6445zm-108.45 99.637h-19.738c-12.555 0-24.668-1.6914-32.414-4.5234l-0.26562-0.10547c-0.035157-0.015625-0.066407-0.023437-0.097657-0.035156-3.6055-1.3242-8.4297-2.5742-13.578-3.5234-5.6328-1.0234-11.004-1.5859-15.121-1.5859h-48.203c-4.8984 0-9.0703-3.8359-9.2969-8.543 0-0.035156-0.003906-0.074219-0.003906-0.10938-0.003906-0.10156-0.011718-0.20703-0.011718-0.3125 0-0.55859 0.058593-1.1289 0.17578-1.707 0.83984-4.2031 4.6836-7.2539 9.1328-7.2539h48.105c1.6758 0.066406 14.949 0.23047 25.977-9.2891 1.9492-1.6836 2.1602-4.625 0.48047-6.5742-1.6836-1.9492-4.625-2.1602-6.5742-0.48047-8.6133 7.4414-19.434 7.0312-19.523 7.0273-0.085937-0.003906-0.17188-0.003906-0.25781-0.003906h-48.203c-8.8789 0-16.566 6.2031-18.273 14.723-0.070312 0.33203-0.10547 0.67578-0.15625 1.0078l-55.566 22.922c-0.03125 0.015625-0.066406 0.023438-0.097656 0.039062-4.5508 1.9961-10.73 0.60938-13.234-2.9727-0.98828-1.4102-1.3359-3.1641-0.98828-4.9375 0.42188-2.1562 1.8242-4.1367 3.8789-5.4609l103.34-67.832c5.0117-3.2305 14.531-4.9414 20.305-3.6836l90.211 20.934zm22.363 16.68h-10.039c-1.6562 0-3.0078-1.3516-3.0078-3.0078v-79.527-0.054688-11.516c0-1.6562 1.3516-3.0078 3.0078-3.0078h10.039zm81.426 8.3086h-72.102v-115.3h72.102z"/>
  <path d="m337.17 304.23v-27.129c0-2.5742-2.0859-4.6602-4.6602-4.6602-2.5742 0-4.6602 2.0859-4.6602 4.6602v27.129c0 2.5742 2.0859 4.6602 4.6602 4.6602 2.5742 0 4.6602-2.0859 4.6602-4.6602z"/>
  <path d="m319.82 304.23v-18.156c0-2.5742-2.0859-4.6602-4.6602-4.6602s-4.6602 2.0859-4.6602 4.6602v18.156c0 2.5742 2.0859 4.6602 4.6602 4.6602s4.6602-2.0859 4.6602-4.6602z"/>
  <path d="m297.8 291.13c-2.5742 0-4.6602 2.0859-4.6602 4.6602v22.934c0 2.5742 2.0859 4.6602 4.6602 4.6602 2.5742 0 4.6602-2.0859 4.6602-4.6602v-22.934c0-2.5742-2.0859-4.6602-4.6602-4.6602z"/>
  <path d="m371.87 318.72v-22.934c0-2.5742-2.0859-4.6602-4.6602-4.6602s-4.6602 2.0859-4.6602 4.6602v22.934c0 2.5742 2.0859 4.6602 4.6602 4.6602s4.6602-2.0859 4.6602-4.6602z"/>
  <path d="m349.86 308.89c2.5742 0 4.6602-2.0859 4.6602-4.6602v-18.156c0-2.5742-2.0859-4.6602-4.6602-4.6602s-4.6602 2.0859-4.6602 4.6602v18.156c-0.003907 2.5742 2.082 4.6602 4.6602 4.6602z"/>
  <path d="m343.12 493.03h3.7852c1.043 0 1.8906 0.85156 1.8906 1.8945s-0.84766 1.8945-1.8906 1.8945h-10.34c-2.5742 0-4.6602 2.0859-4.6602 4.6602 0 2.5742 2.0859 4.6602 4.6602 4.6602h3.7852v2.707c0 2.5742 2.0859 4.6602 4.6602 4.6602 2.5742 0 4.6602-2.0859 4.6602-4.6602v-3.0625c4.8477-1.2383 8.4453-5.6289 8.4453-10.855 0-6.1875-5.0312-11.219-11.215-11.219h-3.7852c-1.043 0-1.8945-0.85156-1.8945-1.8945s0.85156-1.8945 1.8945-1.8945h10.332c2.5742 0 4.6602-2.0859 4.6602-4.6602 0-2.5742-2.0859-4.6602-4.6602-4.6602h-3.7852v-2.6992c0-2.5742-2.0859-4.6602-4.6602-4.6602s-4.6602 2.0859-4.6602 4.6602v3.0625c-4.8477 1.2383-8.4492 5.6328-8.4492 10.855 0.007813 6.1758 5.0391 11.211 11.227 11.211z"/>
  <path d="m345.01 524.23c19.773 0 35.867-16.09 35.867-35.867 0-19.781-16.086-35.867-35.867-35.867s-35.867 16.09-35.867 35.867c0.003907 19.781 16.094 35.867 35.867 35.867zm0-62.406c14.637 0 26.539 11.906 26.539 26.547 0 14.641-11.906 26.539-26.539 26.539-14.637 0-26.539-11.906-26.539-26.539 0-14.637 11.906-26.547 26.539-26.547z"/>
  <path d="m330.58 356.73h3.8438c1.1016 0 1.9961 0.89844 1.9961 2 0 1.1016-0.89844 2-1.9961 2h-10.504c-2.5742 0-4.6602 2.0859-4.6602 4.6602s2.0859 4.6602 4.6602 4.6602h3.918v2.8203c0 2.5742 2.0859 4.6602 4.6602 4.6602s4.6602-2.0859 4.6602-4.6602v-3.168c4.9219-1.2305 8.5781-5.6797 8.5781-10.973 0-6.2422-5.0781-11.324-11.32-11.324h-3.8438c-1.1016 0-2-0.89844-2-2s0.89844-2 2-2h10.5c2.5742 0 4.6602-2.0859 4.6602-4.6602 0-2.5742-2.0859-4.6602-4.6602-4.6602h-3.918v-2.8203c0-2.5742-2.0859-4.6602-4.6602-4.6602-2.5742 0-4.6602 2.0859-4.6602 4.6602v3.168c-4.9219 1.2305-8.5781 5.6797-8.5781 10.973 0 6.2422 5.0781 11.324 11.324 11.324z"/>
  <path d="m295.16 352.07c0 20.59 16.75 37.336 37.336 37.336 20.59 0 37.336-16.75 37.336-37.336 0-20.586-16.75-37.336-37.336-37.336-20.582 0-37.336 16.746-37.336 37.336zm37.34-28.016c15.445 0 28.016 12.566 28.016 28.016 0 15.445-12.566 28.016-28.016 28.016-15.445 0-28.016-12.566-28.016-28.016 0.003907-15.445 12.566-28.016 28.016-28.016z"/>
  <path d="m397.82 431.53h-8.0742v-5.5625c6.5-0.71094 11.578-6.2305 11.578-12.918v-6.8047c0-7.168-5.8281-13-13-13h-111.64c-7.168 0-13 5.8359-13 13v6.8047c0 6.6914 5.0781 12.211 11.586 12.918v5.5625h-8.0742c-17.895 0-32.457 14.559-32.457 32.457v134.32c0 17.895 14.559 32.457 32.457 32.457h130.62c17.895 0 32.457-14.559 32.457-32.457v-134.32c-0.003906-17.895-14.559-32.457-32.453-32.457zm-124.81-18.48v-6.8047c0-2.0312 1.6484-3.6797 3.6797-3.6797h111.64c2.0234 0 3.6797 1.6484 3.6797 3.6797v6.8047c0 2.0234-1.6484 3.6719-3.6797 3.6719h-111.63c-2.0391 0.003906-3.6875-1.6445-3.6875-3.6719zm107.41 13v5.4805h-95.824v-5.4805zm40.531 172.26c0 12.75-10.379 23.129-23.129 23.129h-130.62c-12.75 0-23.129-10.379-23.129-23.129v-134.32c0-12.75 10.379-23.129 23.129-23.129h130.62c12.75 0 23.129 10.379 23.129 23.129z"/>
  <path d="m412.09 569.83c0-6.0195-4.8984-10.918-10.918-10.918h-1.7188c0.074219-0.51953 0.13281-1.0469 0.13281-1.5938 0-6.0195-4.8984-10.918-10.918-10.918h-49.902c-6.0195 0-10.918 4.8984-10.918 10.918 0 6.0195 4.8984 10.918 10.918 10.918h1.7188c-0.074219 0.51953-0.13281 1.0469-0.13281 1.5938 0 0.53906 0.054688 1.0664 0.13281 1.5859h-11.848c-6.0195 0-10.918 4.8984-10.918 10.918 0 0.62109 0.066406 1.2188 0.16016 1.8086-4.9727 1.0195-8.7305 5.4258-8.7305 10.695 0 6.0195 4.8984 10.918 10.918 10.918h20.418c-0.074219 0.51953-0.13281 1.0469-0.13281 1.5938 0 6.0195 4.8984 10.918 10.918 10.918h49.902c6.0195 0 10.918-4.8984 10.918-10.918 0-6.0156-4.8984-10.914-10.918-10.918h-20.418c0.074219-0.51953 0.13281-1.0469 0.13281-1.5938 0-0.62109-0.066406-1.2188-0.16016-1.8086 4.9766-1.0195 8.7305-5.4258 8.7305-10.695 0-0.54297-0.054687-1.0664-0.13281-1.5938h11.855c6.0117 0 10.91-4.8945 10.91-10.91zm-73.324-10.918c-0.875 0-1.5938-0.71484-1.5938-1.5938 0-0.875 0.71484-1.5938 1.5938-1.5938h49.902c0.875 0 1.5938 0.71484 1.5938 1.5938 0 0.875-0.71484 1.5938-1.5938 1.5938zm-10.133 21.828h22.586c0.019531 0 0.035156 0.003907 0.054687 0.003907h27.293c0.86719 0.015624 1.5664 0.71875 1.5664 1.5938s-0.71484 1.5938-1.5938 1.5938h-8.5508-0.019531-41.348c-0.87109-0.003907-1.582-0.71484-1.582-1.5938 0-0.87891 0.71094-1.5977 1.5938-1.5977zm-8.5703 15.691c-0.875 0-1.5938-0.71484-1.5938-1.5938 0-0.875 0.71484-1.5938 1.5938-1.5938h8.5508 0.019531 41.344c0.875 0.003906 1.582 0.71484 1.582 1.5938 0 0.875-0.71094 1.5859-1.582 1.5938h-18.707-0.019531zm81.109 9.3242c0.875 0 1.5938 0.71484 1.5938 1.5938 0 0.875-0.71484 1.5938-1.5938 1.5938h-49.902c-0.875 0-1.5938-0.71484-1.5938-1.5938 0-0.875 0.71094-1.5859 1.582-1.5938h18.707 0.019531zm-22.586-34.336c-0.019531 0-0.035156-0.003907-0.054687-0.003907h-27.293c-0.86719-0.015624-1.5664-0.71875-1.5664-1.5859 0-0.875 0.71484-1.5938 1.5938-1.5938h49.902c0.875 0 1.5938 0.71484 1.5938 1.5938 0 0.875-0.71484 1.5938-1.5938 1.5938z"/>
  <path d="m257.55 519.32 45.543 20.402c1.4141 0.63672 2.918 0.95703 4.457 0.95703 4.2969 0 8.207-2.5352 9.9648-6.4531 2.457-5.4922-0.003906-11.961-5.4961-14.426l-45.543-20.402c-1.4141-0.63672-2.918-0.95703-4.457-0.95703-4.2969 0-8.2109 2.5352-9.9648 6.4531-1.1953 2.6602-1.2734 5.6289-0.23828 8.3477 1.0352 2.7344 3.0742 4.8906 5.7344 6.0781zm3.0078-10.609c0.3125-0.69531 0.97656-0.94141 1.457-0.94141 0.22266 0 0.4375 0.046874 0.64453 0.14062l45.539 20.402c0.80078 0.35938 1.1602 1.3047 0.80078 2.1016-0.3125 0.69531-0.97656 0.94141-1.457 0.94141-0.22266 0-0.4375-0.046875-0.64453-0.14062l-45.543-20.402c-0.52344-0.23047-0.74609-0.65625-0.83594-0.88281-0.082031-0.23047-0.19531-0.69531 0.039063-1.2188z"/>
  <path d="m314.14 567.86c-1.918-3.4961-5.5859-5.6641-9.5742-5.6641-1.8242 0-3.6406 0.46875-5.2461 1.3438l-43.75 24.008c-2.5547 1.4062-4.4141 3.7188-5.2227 6.5156-0.81641 2.8008-0.49219 5.75 0.91016 8.3047 1.9141 3.4961 5.5859 5.6641 9.5742 5.6641 1.8242 0 3.6367-0.46875 5.2461-1.3438l43.75-24.008c5.2734-2.8984 7.207-9.5469 4.3125-14.82zm-8.8047 6.6445-43.75 24.008c-0.23828 0.13281-0.49219 0.19531-0.76172 0.19531-0.45703 0-1.0664-0.21484-1.4023-0.83203-0.27734-0.50391-0.20312-0.97266-0.13281-1.2109 0.070313-0.23828 0.25781-0.67578 0.76172-0.95312l43.75-24.008c0.23828-0.13281 0.49219-0.19531 0.76172-0.19531 0.45703 0 1.0625 0.21484 1.4023 0.82813 0.42578 0.77734 0.14453 1.75-0.62891 2.168z"/>
 </g>
</svg>