<?xml version="1.0" encoding="UTF-8"?>
<!-- The Best Svg Icon site in the world: iconSvg.co, Visit us! https://iconsvg.co -->
<svg fill="#000000" width="800px" height="800px" version="1.1" viewBox="144 144 512 512" xmlns="http://www.w3.org/2000/svg">
 <g>
  <path d="m407.87 447.23v-7.8711c8.4375 0 16.234-4.5 20.453-11.809 4.2188-7.3086 4.2188-16.309 0-23.617-4.2188-7.3047-12.016-11.809-20.453-11.809h-15.746c-4.3477 0-7.8711-3.5234-7.8711-7.8711s3.5234-7.8711 7.8711-7.8711h15.746c2.0859 0 4.0898 0.82813 5.5664 2.3047s2.3047 3.4805 2.3047 5.5664c0 4.3477 3.5234 7.8711 7.8711 7.8711 4.3477 0 7.875-3.5234 7.875-7.8711 0-6.2617-2.4883-12.27-6.918-16.699-4.4297-4.4297-10.438-6.918-16.699-6.918v-7.8711c0-4.3477-3.5234-7.8711-7.8711-7.8711s-7.875 3.5234-7.875 7.8711v7.8711c-8.4375 0-16.23 4.5039-20.449 11.809-4.2188 7.3086-4.2188 16.309 0 23.617s12.012 11.809 20.449 11.809h15.746c4.3477 0 7.8711 3.5234 7.8711 7.8711 0 4.3477-3.5234 7.8711-7.8711 7.8711h-15.746c-4.3477 0-7.8711-3.5234-7.8711-7.8711 0-4.3477-3.5234-7.8711-7.8711-7.8711-4.3477 0-7.8711 3.5234-7.8711 7.8711 0 6.2656 2.4883 12.27 6.9141 16.699 4.4297 4.4297 10.438 6.918 16.699 6.918v7.8711c0 4.3477 3.5273 7.8711 7.875 7.8711s7.8711-3.5234 7.8711-7.8711z"/>
  <path d="m493.16 272.91c2.3945-3.625 1.4023-8.5039-2.2188-10.906-34.219-22.562-75.598-31.625-116.12-25.426-40.516 6.1953-77.293 27.211-103.2 58.977-25.906 31.762-39.105 72.012-37.035 112.95 2.0703 40.938 19.262 79.648 48.246 108.64 28.98 28.984 67.691 46.184 108.62 48.262 40.938 2.0781 81.191-11.113 112.96-37.02 31.77-25.902 52.789-62.676 58.996-103.19 6.2031-40.516-2.8516-81.895-25.41-116.12-1.1016-1.8438-2.9102-3.1562-5.0039-3.6367-2.0938-0.47656-4.293-0.078125-6.0859 1.1016-1.793 1.1836-3.0273 3.0469-3.4102 5.1602-0.38672 2.1133 0.10938 4.293 1.3672 6.0312 27.461 41.656 32.367 94.254 13.086 140.27s-60.219 79.402-109.17 89.035c-48.953 9.6367-99.488-5.7461-134.77-41.023-35.281-35.273-50.676-85.809-41.047-134.76 9.625-48.953 43.004-89.898 89.016-109.19 46.012-19.293 98.609-14.395 140.27 13.059 3.625 2.4023 8.5078 1.4102 10.91-2.2109z"/>
  <path d="m400 297.66c18.547-0.011718 36.746 5.0391 52.641 14.609 3.7227 2.2461 8.5625 1.0508 10.809-2.6719 2.25-3.7266 1.0547-8.5664-2.6719-10.812-33.262-20-74.227-22.398-109.59-6.4141-35.371 15.984-60.641 48.312-67.609 86.496-6.9727 38.18 5.2461 77.352 32.684 104.8 27.441 27.449 66.609 39.68 104.79 32.727 38.184-6.957 70.523-32.215 86.52-67.578 16-35.363 13.617-76.324-6.3672-109.6-1.043-1.8594-2.793-3.2148-4.8555-3.7617-2.0586-0.54688-4.2539-0.23438-6.0781 0.86719-1.8242 1.1016-3.125 2.8945-3.6055 4.9688-0.48047 2.0781-0.097656 4.2617 1.0586 6.0508 15.617 26.027 18.871 57.641 8.8906 86.305-9.9844 28.664-32.172 51.418-60.578 62.113-28.402 10.695-60.09 8.2305-86.5-6.7266s-44.816-40.867-50.25-70.73c-5.4336-29.859 2.6719-60.594 22.121-83.895s48.242-36.766 78.594-36.754z"/>
  <path d="m628.29 392.12h-16.055c-1.4297-42.285-15.562-83.156-40.562-117.29-2.5664-3.5117-7.4961-4.2773-11.008-1.7109-3.5156 2.5664-4.2812 7.4961-1.7148 11.008 23.035 31.434 36.113 69.055 37.543 108h-15.438c-4.3477 0-7.8711 3.5273-7.8711 7.875s3.5234 7.8711 7.8711 7.8711h15.547c-2.0391 49.402-22.574 96.23-57.539 131.19-34.961 34.965-81.789 55.5-131.19 57.539v-15.547c0-4.3477-3.5234-7.8711-7.8711-7.8711s-7.875 3.5234-7.875 7.8711v15.547c-49.398-2.0391-96.23-22.574-131.19-57.539-34.961-34.961-55.5-81.789-57.539-131.19h15.547c4.3477 0 7.8711-3.5234 7.8711-7.8711s-3.5234-7.875-7.8711-7.875h-15.547c2.0391-49.398 22.578-96.23 57.539-131.19 34.961-34.961 81.793-55.5 131.19-57.539v15.547c0 4.3477 3.5273 7.8711 7.875 7.8711s7.8711-3.5234 7.8711-7.8711v-15.438c38.953 1.4258 76.59 14.5 108.04 37.535 1.6758 1.3672 3.8398 1.9844 5.9844 1.707 2.1445-0.27344 4.082-1.4219 5.3555-3.1719 1.2734-1.7461 1.7734-3.9414 1.3789-6.0664-0.39453-2.1289-1.6445-4-3.4609-5.1758-34.129-25.012-75.004-39.148-117.29-40.57v-16.051c0-4.3477-3.5234-7.875-7.8711-7.875s-7.875 3.5273-7.875 7.875v15.941c-53.574 2.0469-104.4 24.25-142.31 62.16s-60.113 88.738-62.16 142.31h-15.941c-4.3477 0-7.875 3.5273-7.875 7.875s3.5273 7.8711 7.875 7.8711h15.941c2.0469 53.574 24.25 104.4 62.16 142.31 37.91 37.914 88.738 60.113 142.31 62.164v15.941c0 4.3477 3.5273 7.8711 7.875 7.8711s7.8711-3.5234 7.8711-7.8711v-15.941c53.574-2.0508 104.4-24.25 142.31-62.164 37.914-37.91 60.113-88.738 62.164-142.31h15.941c4.3477 0 7.8711-3.5234 7.8711-7.8711s-3.5234-7.875-7.8711-7.875z"/>
  <path d="m636.24 202.8c-0.80469-2.7539-3.0312-4.8594-5.8242-5.5117l-22.672-5.0391-5.0391-22.672v0.003907c-0.64844-2.7969-2.7578-5.0234-5.5117-5.8281-2.75-0.78906-5.7148-0.003906-7.7148 2.0469l-38.414 38.574c-1.8359 1.8633-2.6328 4.5156-2.125 7.0859l4.7227 23.695-109.5 109.5c-19.078-15.23-44.645-19.586-67.691-11.535-23.047 8.0547-40.336 27.391-45.773 51.191-5.4336 23.797 1.7422 48.723 19.004 65.984 17.266 17.262 42.188 24.441 65.988 19.004 23.797-5.4375 43.133-22.727 51.188-45.773s3.6953-48.613-11.535-67.691l109.5-109.5 23.695 4.7227c0.49219 0.09375 0.99219 0.14453 1.4922 0.16016 2.0938 0.003906 4.1016-0.81641 5.5898-2.2852l38.574-38.414c2.0508-2 2.8398-4.9648 2.0469-7.7148zm-236.24 252.3c-14.617 0-28.633-5.8047-38.965-16.137-10.336-10.336-16.141-24.352-16.141-38.965 0-14.617 5.8047-28.633 16.141-38.965 10.332-10.336 24.348-16.141 38.965-16.141 14.613 0 28.629 5.8047 38.965 16.141 10.332 10.332 16.137 24.348 16.137 38.965-0.015624 14.609-5.8281 28.613-16.156 38.945-10.332 10.328-24.336 16.141-38.945 16.156zm165.15-242.61 25.348-25.43 2.0469 9.2891-5.8242 5.7461-19.68 19.758zm22.355 22.355-9.3672-1.8906 19.758-19.68 5.8242-5.8242 9.2109 2.0469z"/>
 </g>
</svg>