<?xml version="1.0" encoding="UTF-8"?>
<!-- The Best Svg Icon site in the world: iconSvg.co, Visit us! https://iconsvg.co -->
<svg fill="#000000" width="800px" height="800px" version="1.1" viewBox="144 144 512 512" xmlns="http://www.w3.org/2000/svg">
 <g>
  <path d="m392.12 337.02c-16.699 0-32.719 6.6328-44.531 18.445-11.809 11.809-18.445 27.828-18.445 44.531 0 16.699 6.6367 32.719 18.445 44.531 11.812 11.809 27.832 18.445 44.531 18.445 16.703 0 32.723-6.6367 44.531-18.445 11.812-11.812 18.445-27.832 18.445-44.531-0.019531-16.699-6.6602-32.707-18.465-44.512-11.805-11.805-27.812-18.445-44.512-18.465zm-47.23 62.977c0.019531-11.152 3.9805-21.938 11.184-30.449 7.2031-8.5156 17.184-14.207 28.176-16.074v7.1602c-8.4375 0-16.234 4.5039-20.453 11.809-4.2188 7.3086-4.2188 16.309 0 23.617s12.016 11.809 20.453 11.809h15.746c4.3477 0 7.8711 3.5234 7.8711 7.8711 0 4.3477-3.5234 7.8711-7.8711 7.8711h-15.746c-4.3477 0-7.8711-3.5234-7.8711-7.8711 0-4.3477-3.5234-7.8711-7.8711-7.8711-4.3477 0-7.875 3.5234-7.875 7.8711 0 6.2656 2.4883 12.27 6.918 16.699 4.4297 4.4297 10.438 6.918 16.699 6.918v7.1641c-10.992-1.8672-20.973-7.5625-28.176-16.074-7.2031-8.5156-11.164-19.301-11.184-30.449zm55.105 46.523v-7.1641c8.4375 0 16.23-4.5 20.449-11.809 4.2188-7.3086 4.2188-16.309 0-23.617-4.2188-7.3047-12.012-11.809-20.449-11.809h-15.746c-4.3477 0-7.8711-3.5234-7.8711-7.8711s3.5234-7.8711 7.8711-7.8711h15.746c2.0859 0 4.0898 0.82813 5.5664 2.3047 1.4766 1.4766 2.3047 3.4805 2.3047 5.5664 0 4.3477 3.5234 7.8711 7.8711 7.8711 4.3477 0 7.8711-3.5234 7.8711-7.8711 0-6.2617-2.4883-12.27-6.9141-16.699-4.4297-4.4297-10.438-6.918-16.699-6.918v-7.1641 0.003906c14.785 2.4844 27.512 11.855 34.277 25.238 6.7656 13.383 6.7656 29.184 0 42.566s-19.492 22.754-34.277 25.242z"/>
  <path d="m612.54 376.38c-2.2773 0-4.5391 0.32813-6.7227 0.97656-46.312-37.441-145.45-103.31-213.7-103.31-70.602 0-174.27 70.539-219.24 107.85-5.3945 4.4648-8.5156 11.102-8.5156 18.105 0 7 3.1211 13.637 8.5156 18.105 44.973 37.297 148.64 107.84 219.24 107.84 68.25 0 167.38-65.875 213.7-103.31 6.5742 1.9531 13.668 0.94922 19.441-2.7422 5.7773-3.6953 9.6641-9.7148 10.648-16.5 0.98828-6.7852-1.0234-13.66-5.5078-18.848-4.4883-5.1836-11.004-8.1641-17.859-8.1641zm0 31.488c-1.3984 0.007812-2.7734-0.36719-3.9766-1.0781-2.8594-1.7188-6.4883-1.4453-9.0586 0.67578-34.598 28.574-139.29 102.74-207.38 102.74-68.555 0-174.24-75.234-209.16-104.21-1.793-1.4727-2.832-3.6719-2.832-5.9922 0-2.3242 1.0391-4.5234 2.832-5.9961 34.918-28.984 140.59-104.22 209.16-104.22 68.086 0 172.78 74.164 207.38 102.74h0.003906c2.5664 2.1211 6.1953 2.3945 9.0508 0.68359 1.2031-0.71875 2.582-1.0938 3.9844-1.0859 4.3477 0 7.8711 3.5273 7.8711 7.875s-3.5234 7.8711-7.8711 7.8711z"/>
  <path d="m392.12 297.66c-27.141 0-53.168 10.781-72.359 29.973-19.195 19.191-29.977 45.219-29.977 72.363 0 27.141 10.781 53.168 29.977 72.359 19.191 19.195 45.219 29.977 72.359 29.977 27.145 0 53.172-10.781 72.363-29.977 19.191-19.191 29.973-45.219 29.973-72.359-0.03125-27.133-10.82-53.145-30.008-72.328-19.184-19.188-45.195-29.977-72.328-30.008zm0 188.93v-0.003906c-22.965 0-44.988-9.1211-61.227-25.363-16.242-16.238-25.363-38.262-25.363-61.227 0-22.969 9.1211-44.992 25.363-61.23 16.238-16.238 38.262-25.363 61.227-25.363 22.969 0 44.992 9.125 61.23 25.363s25.363 38.262 25.363 61.23c-0.027344 22.957-9.1602 44.965-25.391 61.199-16.234 16.234-38.246 25.363-61.203 25.391z"/>
  <path d="m628.29 321.28c-4.3477 0-7.875-3.5234-7.875-7.8711v-86.594h-86.59c-4.3477 0-7.875-3.5234-7.875-7.8711s3.5273-7.8711 7.875-7.8711h94.465c2.0859 0 4.0898 0.82813 5.5664 2.3047 1.4727 1.4766 2.3047 3.4805 2.3047 5.5664v94.465c0 2.0859-0.83203 4.0898-2.3047 5.5664-1.4766 1.4766-3.4805 2.3047-5.5664 2.3047z"/>
  <path d="m171.71 321.28c-4.3477 0-7.875-3.5234-7.875-7.8711v-94.465c0-4.3477 3.5273-7.8711 7.875-7.8711h94.465c4.3477 0 7.8711 3.5234 7.8711 7.8711s-3.5234 7.8711-7.8711 7.8711h-86.594v86.594c0 2.0859-0.82812 4.0898-2.3047 5.5664-1.4766 1.4766-3.4805 2.3047-5.5664 2.3047z"/>
  <path d="m628.29 588.93h-94.465c-4.3477 0-7.875-3.5234-7.875-7.8711 0-4.3477 3.5273-7.8711 7.875-7.8711h86.59v-86.594c0-4.3477 3.5273-7.8711 7.875-7.8711 4.3477 0 7.8711 3.5234 7.8711 7.8711v94.465c0 2.0898-0.83203 4.0898-2.3047 5.5664-1.4766 1.4766-3.4805 2.3047-5.5664 2.3047z"/>
  <path d="m266.18 588.93h-94.465c-4.3477 0-7.875-3.5234-7.875-7.8711v-94.465c0-4.3477 3.5273-7.8711 7.875-7.8711 4.3477 0 7.8711 3.5234 7.8711 7.8711v86.594h86.594c4.3477 0 7.8711 3.5234 7.8711 7.8711 0 4.3477-3.5234 7.8711-7.8711 7.8711z"/>
 </g>
</svg>