<?xml version="1.0" encoding="UTF-8"?>
<!-- The Best Svg Icon site in the world: iconSvg.co, Visit us! https://iconsvg.co -->
<svg width="800px" height="800px" version="1.1" viewBox="144 144 512 512" xmlns="http://www.w3.org/2000/svg">
 <defs>
  <clipPath id="a">
   <path d="m148.09 148.09h503.81v503.81h-503.81z"/>
  </clipPath>
 </defs>
 <g clip-path="url(#a)">
  <path d="m293.1 557.28c-4.2969-0.78125-8.4258 2.0195-9.2891 6.2969-0.15625 0.62891-0.31641 1.2578-0.47266 1.7305v0.003906c-1.6172 11.598-7.8672 22.051-17.32 28.969h-0.15625c-2.4766 1.6367-5.375 2.5117-8.3438 2.5195-6.8828-0.53516-13.121-4.2656-16.848-10.078-2.9062-4.043-5.1875-8.5039-6.7695-13.227h13.227c4.3164-0.066406 7.8047-3.5508 7.8711-7.8711 0-3.3125-2.0781-6.2734-5.1953-7.3984-0.85547-0.32422-1.7617-0.48437-2.6758-0.47266h-16.848c-0.31641-2.7188-0.47656-5.4492-0.47266-8.1875 0-2.5273 0.16016-5.0508 0.47266-7.5547h16.848c4.3164-0.070313 7.8047-3.5547 7.8711-7.875 0-2.0859-0.82812-4.0898-2.3047-5.5664-1.4766-1.4766-3.4805-2.3047-5.5664-2.3047h-13.543c4.7227-14.012 13.699-23.773 23.617-23.93h0.31641c8.3438 0 16.375 6.9258 21.727 18.578 0.44922 0.91406 1.0938 1.7227 1.8906 2.3594 2.2891 2.2695 5.7617 2.8359 8.6562 1.418 1.8984-0.85547 3.3711-2.4414 4.082-4.3984 0.71484-1.957 0.60547-4.1172-0.30078-5.9922-4.4844-10.852-12.77-19.695-23.305-24.875-3.9922-1.8672-8.3438-2.8359-12.75-2.8359-1.4219 0.027344-2.8398 0.13281-4.25 0.31641-9.2266 2.2969-17.574 7.25-24.012 14.246s-10.68 15.73-12.203 25.113h-17.16c-4.3477 0-7.8711 3.5234-7.8711 7.8711 0 2.0898 0.82812 4.0898 2.3047 5.5664 1.4766 1.4766 3.4805 2.3086 5.5664 2.3086h14.484c-0.13281 1.1484-0.1875 2.3047-0.15625 3.4609-0.13281 1.3594-0.1875 2.7266-0.15625 4.0938 0 2.832 0.15625 5.5117 0.31641 8.1875h-14.488c-4.3477 0-7.8711 3.5234-7.8711 7.8711 0 2.0898 0.82812 4.0898 2.3047 5.5664 1.4766 1.4766 3.4805 2.3047 5.5664 2.3047h17.32c6.2969 23.145 21.727 39.047 40.305 39.047 2.2148-0.046875 4.4258-0.25781 6.6133-0.62891 5.9766-1.3633 11.504-4.2383 16.059-8.3438h0.15625c6.1367-5.7539 10.926-12.801 14.012-20.625 2.332-5.2344 4.0234-10.734 5.0391-16.375 0.78125-4.293-2.0195-8.4258-6.2969-9.2891zm358.8-157.28c0.003906-35.121-7.3477-69.855-21.586-101.96-14.234-32.105-35.039-60.875-61.07-84.449l-0.78906-0.78906c-0.15625-0.15625-0.15625-0.15625-0.31641-0.15625h0.003906c-46.145-41.555-106.05-64.551-168.14-64.551-62.102 0-122 22.996-168.15 64.551-0.15625 0-0.15625 0-0.31641 0.15625l-0.78906 0.78906h0.003906c-37.922 34.305-64.469 79.367-76.086 129.17-11.621 49.797-7.7617 101.96 11.062 149.5-11.535 16.883-17.684 36.863-17.633 57.309 0.054688 27.125 10.852 53.125 30.035 72.305 19.18 19.18 45.176 29.977 72.301 30.031 20.445 0.050781 40.426-6.0977 57.309-17.633 59.262 23.512 125.26 23.512 184.52 0 16.883 11.535 36.863 17.684 57.309 17.633 27.125-0.054688 53.125-10.852 72.305-30.031 19.18-19.18 29.977-45.18 30.031-72.305 0.050781-20.445-6.0977-40.426-17.633-57.309 11.656-29.363 17.641-60.668 17.633-92.258zm-29.125 78.246c-18.152-18.785-42.855-29.836-68.961-30.859 1.7188-13.211 2.7188-26.508 2.9922-39.832h79.191c-0.73047 24.105-5.1914 47.953-13.223 70.691zm13.227-86.434h-79.039c-0.33594-48.258-10.516-95.938-29.91-140.12 13.238-5.2578 25.523-12.648 36.367-21.887 44.449 42.434 70.504 100.59 72.578 162.01zm-158.86 0c15.152-17.289 23.992-39.207 25.078-62.168 1.0859-22.961-5.6445-45.613-19.094-64.258 8.8164-1.8906 17.32-4.25 25.348-6.7695 1.418-0.47266 2.6758-0.94531 3.9375-1.418h-0.003906c18.695 42.426 28.449 88.25 28.656 134.61zm63.922 15.742c-0.32031 13.484-1.3711 26.938-3.1484 40.305-21.074 2.4844-40.863 11.43-56.648 25.609-15.785 14.18-26.797 32.898-31.52 53.586-13.895-1.7578-27.875-2.7031-41.879-2.8359v-97.457c18.832-1.375 36.895-8.0312 52.113-19.207zm10.547-188.46c-9.4375 7.9141-20.133 14.195-31.645 18.578-12.344-24.551-29.727-46.223-51.012-63.605 30.297 9.3086 58.406 24.621 82.656 45.027zm-143.74-54.156c38.73 3.4648 73.367 32.906 97.613 77.934v-0.003906c-0.53906 0.30469-1.125 0.51953-1.7344 0.63281-10.555 3.4648-21.34 6.2031-32.273 8.1875-17.094-16.895-39.641-27.164-63.605-28.973zm-111.62 78.562c-0.60938-0.11328-1.1953-0.32812-1.7344-0.63281 24.246-45.027 58.883-74.469 97.613-77.934v57.781c-23.965 1.8086-46.508 12.078-63.605 28.973-10.934-1.9844-21.719-4.7227-32.273-8.1875zm20.625 21.883c-13.453 18.645-20.184 41.297-19.098 64.258 1.0859 22.961 9.9297 44.879 25.078 62.168h-63.918c0.20312-46.363 9.957-92.188 28.652-134.61 1.2578 0.47266 2.5195 0.94531 3.9375 1.418 8.0273 2.5195 16.531 4.8789 25.348 6.7695zm14.168-91.316c-21.285 17.383-38.668 39.055-51.012 63.605-11.508-4.3828-22.207-10.664-31.645-18.578 24.25-20.406 52.359-35.719 82.656-45.027zm-94.465 55.734c10.844 9.2383 23.133 16.629 36.371 21.887-19.398 44.184-29.574 91.863-29.914 140.12h-79.035c2.0742-61.418 28.129-119.57 72.578-162.01zm-72.578 177.75h79.191c0.27344 13.324 1.2734 26.621 2.9922 39.832-26.102 1.0234-50.805 12.074-68.961 30.859-8.0312-22.738-12.492-46.586-13.223-70.691zm141.54 208.77c-4.8359 3.9336-10.059 7.3633-15.586 10.234-12.207 6.3438-25.766 9.6367-39.52 9.6055-22.953-0.042968-44.953-9.1797-61.184-25.41-16.23-16.23-25.367-38.23-25.41-61.184-0.03125-13.754 3.2617-27.312 9.6055-39.516 2.875-5.5312 6.3008-10.754 10.234-15.59 15.945-19.406 39.594-30.855 64.707-31.328 0.67578-0.13281 1.3594-0.18359 2.0469-0.15625 4.8047 0.011719 9.5977 0.43359 14.328 1.2578 16.727 2.7891 32.262 10.441 44.668 22.004 12.402 11.566 21.125 26.527 25.078 43.02 1.293 5.1523 2.0312 10.434 2.2031 15.742 0.26562 1.5078 0.37109 3.0391 0.31641 4.5664-0.011719 25.836-11.562 50.316-31.488 66.754zm86.594 19.68h-0.003906c-24.004-0.71484-47.746-5.1758-70.375-13.223 19.863-19.172 31.062-45.605 31.016-73.211 0.054687-2.207-0.050781-4.418-0.3125-6.6133 13.168-1.5586 26.414-2.3984 39.672-2.5195zm0-111.78h-0.003906c-14 0.13281-27.984 1.0781-41.879 2.8359-4.7227-20.688-15.734-39.406-31.52-53.586-15.785-14.18-35.574-23.125-56.645-25.609-1.7773-13.367-2.8281-26.82-3.1484-40.305h81.082c15.219 11.176 33.281 17.832 52.109 19.207zm0-113.36h-0.003906c-5.8789-0.44922-11.688-1.5586-17.316-3.3086-17.734-5.4414-33.262-16.414-44.309-31.316-11.051-14.902-17.039-32.945-17.094-51.496-0.042969-27.578 13.129-53.512 35.426-69.746 12.625-9.3789 27.621-15.051 43.293-16.375 5.2305-0.62891 10.516-0.62891 15.746 0 15.672 1.3242 30.668 6.9961 43.297 16.375 22.293 16.234 35.465 42.168 35.422 69.746-0.054688 18.551-6.043 36.594-17.09 51.496-11.051 14.902-26.578 25.875-44.312 31.316-5.6289 1.75-11.438 2.8594-17.316 3.3086-5.2305 0.62891-10.516 0.62891-15.746 0zm15.742 225.14v-95.57c13.262 0.12109 26.504 0.96094 39.676 2.5195-0.26172 2.1953-0.36719 4.4062-0.31641 6.6133-0.046875 27.605 11.152 54.039 31.016 73.211-22.625 8.0469-46.371 12.508-70.375 13.223zm228.29-86.438c-0.042968 22.953-9.1797 44.953-25.41 61.184s-38.23 25.367-61.184 25.41c-13.754 0.03125-27.312-3.2617-39.516-9.6055-5.5312-2.8711-10.754-6.3008-15.59-10.234-19.926-16.438-31.473-40.918-31.484-66.754-0.058593-1.5273 0.046876-3.0586 0.3125-4.5664 0.17188-5.3086 0.91016-10.59 2.2031-15.742 3.9688-16.539 12.738-31.535 25.203-43.102 12.465-11.57 28.07-19.199 44.859-21.922 4.6172-0.89453 9.3125-1.3164 14.012-1.2578 0.63281-0.027343 1.2695 0.023438 1.8906 0.15625 25.168 0.43359 48.879 11.887 64.863 31.328 3.9336 4.8359 7.3633 10.059 10.234 15.59 6.3438 12.203 9.6406 25.762 9.6055 39.516zm-228.29-169.72c11.25 0 21.645-6.0039 27.27-15.746 5.625-9.7422 5.625-21.746 0-31.488-5.625-9.7422-16.02-15.742-27.27-15.742h-15.746c-5.625 0-10.82-3-13.633-7.875-2.8125-4.8711-2.8125-10.871 0-15.742s8.0078-7.8711 13.633-7.8711h15.746c4.1758 0 8.1797 1.6562 11.133 4.6094 2.9531 2.9531 4.6094 6.957 4.6094 11.133 0 4.3477 3.5273 7.8711 7.875 7.8711 4.3477 0 7.8711-3.5234 7.8711-7.8711 0-8.3516-3.3164-16.359-9.2227-22.266-5.9062-5.9023-13.914-9.2227-22.266-9.2227v-11.492c-0.24219 0.12891-0.51562 0.18359-0.78906 0.15625-1.3125-2.7148-4.0664-4.4375-7.082-4.4375-3.0195 0-5.7695 1.7227-7.0859 4.4375-0.27344 0.027344-0.54687-0.027343-0.78906-0.15625v11.492c-8.3516 0-16.359 3.3203-22.266 9.2227-5.9023 5.9062-9.2227 13.914-9.2227 22.266s3.3203 16.359 9.2227 22.266c5.9062 5.9062 13.914 9.2227 22.266 9.2227h15.746c5.625 0 10.82 3 13.633 7.8711s2.8125 10.875 0 15.746c-2.8125 4.8711-8.0078 7.8711-13.633 7.8711h-15.746c-4.1758 0-8.1797-1.6602-11.133-4.6094-2.9492-2.9531-4.6094-6.957-4.6094-11.133 0-4.3477-3.5234-7.875-7.8711-7.875-4.3477 0-7.875 3.5273-7.875 7.875 0 8.3516 3.3203 16.359 9.2227 22.266 5.9062 5.9023 13.914 9.2227 22.266 9.2227v7.8711c0.007812 1.4375 0.38672 2.8477 1.1055 4.0938 1.4453 2.3477 4.0078 3.7812 6.7695 3.7812 2.7578 0 5.3203-1.4336 6.7695-3.7812 0.71484-1.2461 1.0938-2.6562 1.1016-4.0938zm167.83 114.3-27.078 38.574-10.391-16.059-11.02-17.004-2.5195-3.7773-0.003906-0.003906c-1.1055-1.7773-2.8867-3.0312-4.9336-3.4766-2.0469-0.44531-4.1836-0.042969-5.9297 1.1172-3.6484 2.3516-4.7031 7.207-2.3633 10.863l9.4453 14.484 10.391 16.059h0.003907c-0.48047 1.4023-1.0625 2.7695-1.7344 4.0938h-12.594c-1.7812-0.03125-3.5156 0.58203-4.8789 1.7305-0.12891-0.12109-0.30078-0.17969-0.47266-0.15625 0 0.31641 0 0.47266-0.15625 0.62891s-0.31641 0.15625-0.31641 0.47266c-0.62891 1.418-1.2578 2.6758-1.8906 3.9375-0.13672 0.40234-0.19141 0.83203-0.15625 1.2578 0 2.0859 0.82812 4.0898 2.3047 5.5664 1.4766 1.4766 3.4805 2.3047 5.5664 2.3047h23.617v15.742h-23.617v0.003906c-1.4375 0.007813-2.8477 0.38672-4.0938 1.1016-2.0977 1.2227-3.4531 3.4023-3.6211 5.8242-0.12891 0.29688-0.18359 0.62109-0.15625 0.94531 0 2.0859 0.82812 4.0898 2.3047 5.5664 1.4766 1.4766 3.4805 2.3047 5.5664 2.3047h23.617v23.617c0 2.0859 0.82812 4.0898 2.3047 5.5664 1.4766 1.4766 3.4805 2.3047 5.5664 2.3047 2.0859 0 4.0898-0.82812 5.5664-2.3047 1.4766-1.4766 2.3047-3.4805 2.3047-5.5664v-23.617h12.848v0.31641l0.31641-0.31641h10.391c2.0859 0 4.0898-0.82812 5.5664-2.3047 1.4766-1.4766 2.3047-3.4805 2.3047-5.5664-0.039063-2.75-1.457-5.293-3.7773-6.7695-1.2617-0.67578-2.6641-1.0547-4.0938-1.1016h-23.617v-15.742h23.617v-0.003906c2.0859 0 4.0898-0.82812 5.5664-2.3047 1.4766-1.4766 2.3047-3.4805 2.3047-5.5664 0.035156-1.0859-0.17969-2.1602-0.62891-3.1484-1.2734-2.8633-4.1094-4.7148-7.2422-4.7227h-16.312l25.031-35.738h0.003906c1.2188-1.7109 1.707-3.8359 1.3516-5.9062-0.35547-2.0703-1.5234-3.9102-3.2422-5.1172-3.5781-2.4688-8.4688-1.6289-11.02 1.8906z"/>
 </g>
</svg>