<?xml version="1.0" encoding="UTF-8"?>
<!-- The Best Svg Icon site in the world: iconSvg.co, Visit us! https://iconsvg.co -->
<svg fill="#000000" width="800px" height="800px" version="1.1" viewBox="144 144 512 512" xmlns="http://www.w3.org/2000/svg">
 <path d="m557.44 179.58h-314.88c-22.5 0-43.289 12.004-54.539 31.488-11.25 19.484-11.25 43.492 0 62.977s32.039 31.488 54.539 31.488v236.16c0 20.879 8.293 40.898 23.055 55.664 14.766 14.762 34.785 23.055 55.664 23.055h157.44c20.879 0 40.902-8.293 55.664-23.055 14.762-14.766 23.055-34.785 23.055-55.664v-236.16c22.5 0 43.289-12.004 54.539-31.488s11.25-43.492 0-62.977c-11.25-19.484-32.039-31.488-54.539-31.488zm-346.37 62.977c0-8.3516 3.3164-16.359 9.2227-22.266s13.914-9.2227 22.266-9.2227v62.977c-8.3516 0-16.359-3.3164-22.266-9.2227s-9.2227-13.914-9.2227-22.266zm314.88 299.14c0 12.527-4.9727 24.539-13.832 33.398-8.8594 8.8555-20.871 13.832-33.398 13.832h-157.44c-12.527 0-24.539-4.9766-33.398-13.832-8.8555-8.8594-13.832-20.871-13.832-33.398v-330.62h251.9zm53.688-276.94c-5.875 5.9141-13.859 9.2539-22.199 9.2891v-62.977c8.3516 0 16.363 3.3164 22.266 9.2227 5.9062 5.9062 9.2227 13.914 9.2227 22.266-0.035156 8.3359-3.375 16.32-9.2891 22.199zm-105.48 190.34c2.9336 2.9492 4.5781 6.9414 4.5781 11.102s-1.6445 8.1484-4.5781 11.098l-51.957 51.957h0.003907c-5.9023 5.8633-13.883 9.1562-22.199 9.1562-8.3203 0-16.301-3.293-22.199-9.1562l-51.957-51.957c-2.9336-2.9492-4.5781-6.9375-4.5781-11.098s1.6445-8.1523 4.5781-11.102c2.957-2.9805 6.9805-4.6562 11.18-4.6562 4.1953 0 8.2227 1.6758 11.176 4.6562l36.055 36.055v-213.8c0-5.625 3-10.82 7.8711-13.633s10.875-2.8125 15.746 0 7.8711 8.0078 7.8711 13.633v213.8l36.055-36.055c2.957-2.9805 6.9805-4.6562 11.18-4.6562 4.1953 0 8.2188 1.6758 11.176 4.6562z"/>
</svg>