<?xml version="1.0" encoding="UTF-8"?>
<!-- The Best Svg Icon site in the world: iconSvg.co, Visit us! https://iconsvg.co -->
<svg fill="#000000" width="800px" height="800px" version="1.1" viewBox="144 144 512 512" xmlns="http://www.w3.org/2000/svg">
 <g>
  <path d="m400 304.03c7.043 0 13.801-2.7969 18.785-7.7812 4.9805-4.9805 7.7812-11.738 7.7812-18.785 0-7.0469-2.8008-13.805-7.7812-18.785-4.9844-4.9844-11.742-7.7852-18.785-7.7852-7.0469 0-13.805 2.8008-18.789 7.7852-4.9805 4.9805-7.7812 11.738-7.7812 18.785 0 7.0469 2.8008 13.805 7.7812 18.785 4.9844 4.9844 11.742 7.7812 18.789 7.7812zm0-44.074v0.003906c4.6484 0 9.1055 1.8438 12.391 5.1328 3.2891 3.2852 5.1328 7.7461 5.1328 12.395s-1.8477 9.1055-5.1367 12.391c-3.2891 3.2852-7.7461 5.1328-12.395 5.1289-4.6484 0-9.1055-1.8477-12.391-5.1367-3.2852-3.2891-5.1289-7.75-5.1289-12.398 0.007813-4.6445 1.8555-9.0977 5.1406-12.383 3.2852-3.2812 7.7383-5.1289 12.387-5.1289z"/>
  <path d="m601.27 528.8h-10.91v-25.586c-0.007813-2.4883-2.0273-4.5039-4.5195-4.5039h-14.621v-173.18h14.582v-0.003906c1.1992 0 2.3477-0.47266 3.1953-1.3203 0.84766-0.84766 1.3242-1.9961 1.3242-3.1953v-24.945c-0.003906-0.5-0.085937-1-0.24609-1.4727 0.78906-2.3047-0.39062-4.8242-2.668-5.6875l-185.8-70.516c-1.0312-0.39453-2.1758-0.39453-3.207 0l-185.84 70.516c-1.7656 0.65234-2.9453 2.3359-2.9492 4.2188v27.906c0 1.1992 0.47266 2.3477 1.3203 3.1953 0.84766 0.84766 1.9961 1.3242 3.1953 1.3242h14.66v173.18h-14.621c-2.4922 0-4.5117 2.0156-4.5156 4.5039v25.586h-10.914c-1.1953 0-2.3438 0.47656-3.1914 1.3242-0.84375 0.84766-1.3164 1.9961-1.3164 3.1914v44.074c0 1.1953 0.47656 2.3398 1.3203 3.1875 0.84766 0.84375 1.9922 1.3203 3.1875 1.3203h402.54c1.1953 0 2.3438-0.47656 3.1875-1.3203 0.84375-0.84766 1.3203-1.9922 1.3203-3.1875v-44.094c0.003906-1.1953-0.47266-2.3438-1.3164-3.1914-0.84766-0.84766-1.9922-1.3242-3.1914-1.3242zm-39.047-30.109h-31.613v-173.18h31.617zm-72.254 0v-173.18h31.617v173.18zm-170.9 0v-173.18h161.87v173.18zm-40.648 0v-173.18h31.617v173.18zm-59.738-202.46 181.32-68.801 181.32 68.801v20.289l-362.64 0.003906zm19.098 29.312h31.617v173.18l-31.613 0.003906zm-19.098 182.17h362.64v21.086h-362.64zm378.12 65.16h-393.55v-35.043h393.55z"/>
  <path d="m435.86 436.41c-0.011719-9.3359-3.7227-18.289-10.328-24.891-6.6016-6.6016-15.551-10.316-24.891-10.328-5.2383 0-10.266-2.0781-13.969-5.7852-3.707-3.707-5.7891-8.7305-5.7891-13.973 0-5.2383 2.082-10.266 5.7891-13.973 3.7031-3.7031 8.7305-5.7852 13.969-5.7852 5.2422 0 10.266 2.082 13.973 5.7852 3.707 3.707 5.7891 8.7344 5.7891 13.973 0.10937 2.4102 2.0977 4.3047 4.5117 4.3047 2.4102 0 4.3984-1.8945 4.5117-4.3047-0.007813-6.8477-2.457-13.469-6.9023-18.68-4.4453-5.2109-10.602-8.6641-17.363-9.7461v-9.0938c0-2.4961-2.0234-4.5156-4.5195-4.5156-2.4922 0-4.5156 2.0195-4.5156 4.5156v9.1211c-9.6289 1.5273-17.828 7.8203-21.793 16.727s-3.1484 19.211 2.1602 27.387c5.3125 8.1719 14.402 13.102 24.148 13.098 6.9492 0.007812 13.609 2.7734 18.516 7.6914 4.9062 4.918 7.6602 11.586 7.6484 18.531-0.007812 6.9492-2.7734 13.605-7.6914 18.516-4.918 4.9062-11.582 7.6562-18.531 7.6484-6.9453-0.007812-13.605-2.7734-18.512-7.6914s-7.6602-11.582-7.6523-18.531c0-2.4922-2.0234-4.5156-4.5156-4.5156-2.4961 0-4.5156 2.0234-4.5156 4.5156 0.011719 8.5547 3.1328 16.809 8.7812 23.23 5.6484 6.4219 13.438 10.574 21.918 11.684v9.0625c0 2.4922 2.0234 4.5156 4.5156 4.5156 2.4961 0 4.5195-2.0234 4.5195-4.5156v-9.0625c8.4844-1.1016 16.285-5.2461 21.941-11.672 5.6562-6.4219 8.7812-14.684 8.7969-23.242z"/>
 </g>
</svg>