<?xml version="1.0" encoding="UTF-8"?>
<!-- The Best Svg Icon site in the world: iconSvg.co, Visit us! https://iconsvg.co -->
<svg fill="#000000" width="800px" height="800px" version="1.1" viewBox="144 144 512 512" xmlns="http://www.w3.org/2000/svg">
 <g>
  <path d="m634.59 614.91h-56.758v-229.86c0-2.0898-0.82812-4.0898-2.3047-5.5664-1.4766-1.4766-3.4805-2.3086-5.5664-2.3086h-37.707c-4.3477 0-7.875 3.5273-7.875 7.875v229.86h-22.039v-182.39c0-2.0898-0.83203-4.0938-2.3086-5.5664-1.4727-1.4766-3.4766-2.3086-5.5664-2.3086h-38.098c-4.3477 0-7.875 3.5273-7.875 7.875v182.39h-22.277v-149.57c0-2.0859-0.82813-4.0898-2.3047-5.5664-1.4766-1.4766-3.4766-2.3047-5.5664-2.3047h-37.785c-4.3477 0-7.8711 3.5234-7.8711 7.8711v149.57h-22.277v-166.18c0-2.0898-0.83203-4.0898-2.3086-5.5664-1.4766-1.4766-3.4766-2.3047-5.5664-2.3047h-37.785c-4.3477 0-7.8711 3.5234-7.8711 7.8711v166.18h-22.355v-124.38c0-2.0898-0.83203-4.0898-2.3086-5.5664-1.4727-1.4766-3.4766-2.3047-5.5664-2.3047h-37.707c-4.3438 0-7.8711 3.5234-7.8711 7.8711v124.38h-48.02v-20.469h9.6836c4.3477 0 7.8711-3.5234 7.8711-7.8711s-3.5234-7.8711-7.8711-7.8711h-9.6836v-31.488h9.6836c4.3477 0 7.8711-3.5273 7.8711-7.875 0-4.3477-3.5234-7.8711-7.8711-7.8711h-9.6836v-31.488h9.6836c4.3477 0 7.8711-3.5234 7.8711-7.8711 0-4.3477-3.5234-7.8711-7.8711-7.8711h-9.6836v-31.488h9.6836c4.3477 0 7.8711-3.5273 7.8711-7.875 0-4.3477-3.5234-7.8711-7.8711-7.8711h-9.6836v-29.125h9.6836c4.3477 0 7.8711-3.5234 7.8711-7.8711s-3.5234-7.875-7.8711-7.875h-9.6836v-31.488h9.6836c4.3477 0 7.8711-3.5234 7.8711-7.8711s-3.5234-7.8711-7.8711-7.8711h-9.6836v-31.488h9.6836c4.3477 0 7.8711-3.5234 7.8711-7.8711s-3.5234-7.8711-7.8711-7.8711h-9.6836v-31.488h9.6836c3.582-0.81641 6.1211-4.0039 6.1211-7.6758 0-3.6758-2.5391-6.8594-6.1211-7.6758h-9.6836v-31.488h9.6836c3.582-0.81641 6.1211-4 6.1211-7.6758 0-3.6719-2.5391-6.8594-6.1211-7.6758h-9.6836v-26.527c0.53516-2.3359-0.027344-4.7852-1.5195-6.6602-1.4961-1.8711-3.7578-2.9609-6.1562-2.9609-2.3945 0-4.6602 1.0898-6.1523 2.9609-1.4922 1.875-2.0547 4.3242-1.5195 6.6602v445.08c0 2.0898 0.82812 4.0898 2.3047 5.5664 1.4766 1.4766 3.4766 2.3086 5.5664 2.3086h469.02c4.3477 0 7.8711-3.5273 7.8711-7.875 0-4.3477-3.5234-7.8711-7.8711-7.8711zm-397.93 0-0.003906-116.66h22.516v116.66zm75.809 0-0.003906-158.54h22.516v158.54zm75.809 0-0.003907-142.25h22.516l-0.003906 142.25zm75.809 0-0.003906-174.68h22.512v174.68zm75.809 0-0.007813-222.15h22.516v222.15z"/>
  <path d="m246.96 446.68c1.2344-0.007813 2.4453-0.30469 3.543-0.86719l73.684-37.941 72.66 27.395c2.1445 0.84375 4.5586 0.64062 6.5312-0.55078l145.63-85.02-1.0234 7.1641c-0.52344 4.168 2.3164 8.0156 6.457 8.7383h1.1016c3.8984 0.050782 7.2461-2.7617 7.8711-6.6133l3.3047-22.984c0.48047-3.6602-1.6445-7.1641-5.1172-8.4258l-21.965-7.8711h0.003907c-2.0352-1.2188-4.5078-1.4531-6.7383-0.64062-2.2266 0.80859-3.9688 2.582-4.7461 4.8203-0.77344 2.2422-0.49609 4.7109 0.75391 6.7266s3.3398 3.3594 5.6914 3.6562l6.2188 2.125-141.7 82.734-72.66-27c-2.0078-0.875-4.2891-0.875-6.2969 0l-76.754 39.91 0.003906 0.003906c-3.6836 2.043-5.1055 6.6211-3.2305 10.391 1.3164 2.543 3.9102 4.168 6.7695 4.25z"/>
 </g>
</svg>