<?xml version="1.0" encoding="UTF-8"?>
<!-- The Best Svg Icon site in the world: iconSvg.co, Visit us! https://iconsvg.co -->
<svg fill="#000000" width="800px" height="800px" version="1.1" viewBox="144 144 512 512" xmlns="http://www.w3.org/2000/svg">
 <g>
  <path d="m556.93 432.27c-3.6602-58.438-43.148-107.4-97.602-128.37l61.035-106.22c1.6797-2.8789 2.4766-6.1914 2.293-9.5195s-1.3438-6.5312-3.3359-9.207c-2.1719-2.918-5.1445-5.1484-8.5586-6.4141-3.4102-1.2656-7.1172-1.5195-10.668-0.72266l-19.777 4.2734c-40.723 8.8125-82.73 9.9297-123.86 3.2969l-58.535-9.3984c-3.4961-0.60938-7.0898-0.21094-10.367 1.1562-3.2734 1.3633-6.0898 3.6328-8.1172 6.543-1.8633 2.6562-2.9258 5.7891-3.0703 9.0312-0.14062 3.2383 0.64062 6.4531 2.2617 9.2617l60.977 108.34c-53.895 21.195-92.891 69.895-96.531 127.95l-7.6133 121.66c-1.2383 19.793 5.7578 39.215 19.336 53.668 13.578 14.457 32.527 22.652 52.355 22.652h185.71c19.832 0 38.777-8.1953 52.355-22.648 13.578-14.457 20.574-33.879 19.336-53.672zm-268.04-242.11h0.003907c-1.0859-1.7891-0.98828-4.0586 0.25-5.7461 1.5664-2.1836 4.2617-3.2578 6.9023-2.7539l58.535 9.4023v-0.003906c42.578 6.8672 86.066 5.707 128.22-3.4141l19.777-4.2734 0.003907 0.003906c2.6953-0.66797 5.5273 0.33984 7.1992 2.5547 1.3281 1.6992 1.4609 4.043 0.33594 5.8789l-62.16 108.19c-31.664-9.5195-65.445-9.3984-97.039 0.34766zm247.72 409.36c-11.305 12.137-27.164 18.996-43.75 18.926h-185.71c-16.57 0-32.402-6.8477-43.75-18.926-11.344-12.078-17.191-28.309-16.156-44.848l7.6172-121.66c4.5-71.918 68.254-128.25 145.15-128.25 76.879 0 140.63 56.336 145.13 128.25l7.6172 121.66c1.1055 16.551-4.75 32.809-16.156 44.848z"/>
  <path d="m399.02 396.06c3.2578 0 5.9023-2.6445 5.9023-5.9023v-27.555c0-3.2617-2.6445-5.9023-5.9023-5.9023-3.2617 0-5.9062 2.6406-5.9062 5.9023v27.555c0 3.2578 2.6445 5.9023 5.9062 5.9023z"/>
  <path d="m509.03 407.16-19.703 19.703c-2.3047 2.3047-2.3047 6.043 0 8.3477 2.3047 2.3086 6.043 2.3086 8.3516 0l19.703-19.703h-0.003906c1.125-1.1016 1.7578-2.6094 1.7656-4.1836 0.003907-1.5742-0.61719-3.0859-1.7305-4.1992-1.1133-1.1133-2.625-1.7344-4.1992-1.7266-1.5742 0.003906-3.0781 0.64062-4.1836 1.7617z"/>
  <path d="m290.48 407.49c-2.3086-2.3047-6.0469-2.3047-8.3516 0-2.3047 2.3047-2.3047 6.043 0 8.3516l19.703 19.703v-0.003906c2.3047 2.3047 6.043 2.3086 8.3477 0 2.3086-2.3047 2.3086-6.043 0.003906-8.3477z"/>
  <path d="m340.02 406.62c0.63281 1.4375 1.8164 2.5625 3.2812 3.125 1.4688 0.5625 3.0977 0.51562 4.5312-0.125 1.4336-0.64453 2.5508-1.832 3.1094-3.3008 0.55469-1.4727 0.5-3.1016-0.15234-4.5312l-11.402-25.422c-0.63672-1.4375-1.8164-2.5586-3.2852-3.1211-1.4648-0.5625-3.0977-0.51953-4.5312 0.125-1.4336 0.64453-2.5508 1.832-3.1055 3.3008-0.55469 1.4688-0.5 3.1016 0.14844 4.5312z"/>
  <path d="m444.55 406.77c1.4609 0.55859 3.0859 0.51172 4.5156-0.12891 1.4297-0.64062 2.5469-1.8242 3.1016-3.2891l9.9062-26.043c0.57031-1.4648 0.53516-3.0977-0.10547-4.5352s-1.8242-2.5625-3.2969-3.1211c-1.4688-0.55859-3.1016-0.51172-4.5352 0.14062-1.4336 0.64844-2.5469 1.8438-3.0977 3.3164l-9.9102 26.043c-1.1562 3.0469 0.375 6.457 3.4219 7.6172z"/>
  <path d="m472.82 560.39h-19.289c14.625-14.285 22.938-33.816 23.098-54.254 0.16016-20.441-7.8477-40.102-22.246-54.613-14.398-14.512-33.992-22.672-54.434-22.672-20.441 0-40.039 8.1602-54.434 22.672-14.398 14.512-22.406 34.172-22.246 54.613 0.15625 20.438 8.4727 39.969 23.098 54.254h-20.164c-3.2617 0-5.9062 2.6445-5.9062 5.9062 0 3.2578 2.6445 5.9023 5.9062 5.9023h146.62c3.2578 0 5.9023-2.6445 5.9023-5.9023 0-3.2617-2.6445-5.9062-5.9023-5.9062zm-137.75-54.906c0-22.957 12.137-44.203 31.906-55.871 19.77-11.664 44.234-12.016 64.332-0.92188 20.094 11.098 32.832 31.988 33.492 54.934 0.66016 22.949-10.855 44.535-30.285 56.766h-32.238c1.6484-1.0938 2.6406-2.9414 2.6406-4.918v-5.5898c7.8945-1.6523 14.449-7.125 17.484-14.598s2.1562-15.965-2.3477-22.656c-4.5039-6.6914-12.039-10.703-20.105-10.703-5.0273 0-9.5586-3.0273-11.48-7.6719-1.9258-4.6445-0.86328-9.9883 2.6914-13.543 3.5547-3.5547 8.9023-4.6172 13.543-2.6914 4.6445 1.9219 7.6719 6.4531 7.6719 11.48 0 3.2617 2.6445 5.9062 5.9062 5.9062 3.2578 0 5.9023-2.6445 5.9023-5.9062-0.007813-5.5625-1.9258-10.953-5.4297-15.273-3.5078-4.3164-8.3906-7.2969-13.836-8.4453v-4.7734c0-3.2617-2.6445-5.9062-5.9023-5.9062-3.2617 0-5.9062 2.6445-5.9062 5.9062v5.2461c-7.5156 2.2109-13.504 7.9219-16.062 15.328-2.5625 7.4062-1.3828 15.594 3.1641 21.98 4.5469 6.3828 11.902 10.172 19.738 10.172 5.0234 0 9.5586 3.0273 11.48 7.6719 1.9219 4.6445 0.85937 9.9883-2.6953 13.543-3.5547 3.5547-8.8984 4.6172-13.543 2.6914-4.6406-1.9219-7.6719-6.4531-7.6719-11.48 0-3.2578-2.6406-5.9023-5.9023-5.9023-3.2617 0-5.9023 2.6445-5.9023 5.9023 0.007812 5.2344 1.7031 10.324 4.8398 14.512 3.1328 4.1875 7.5391 7.2539 12.555 8.7344v6.0664c0 1.9766 0.99219 3.8242 2.6445 4.918h-30.375c-18.922-11.824-30.387-32.594-30.309-54.906z"/>
 </g>
</svg>