<?xml version="1.0" encoding="UTF-8"?>
<!-- The Best Svg Icon site in the world: iconSvg.co, Visit us! https://iconsvg.co -->
<svg width="800px" height="800px" version="1.1" viewBox="144 144 512 512" xmlns="http://www.w3.org/2000/svg">
 <defs>
  <clipPath id="b">
   <path d="m148.09 190h503.81v294h-503.81z"/>
  </clipPath>
  <clipPath id="a">
   <path d="m400 368h251.9v253h-251.9z"/>
  </clipPath>
 </defs>
 <g clip-path="url(#b)">
  <path d="m620.41 190.08h-440.83c-8.3516 0-16.359 3.3164-22.266 9.2227s-9.2227 13.914-9.2227 22.266v230.91c0 8.3477 3.3164 16.359 9.2227 22.262 5.9062 5.9062 13.914 9.2227 22.266 9.2227h199.43v-20.988h-199.43c-5.7969 0-10.496-4.6992-10.496-10.496v-230.91c0-5.7969 4.6992-10.496 10.496-10.496h440.83c2.7852 0 5.4531 1.1055 7.4219 3.0742s3.0742 4.6367 3.0742 7.4219v125.95h20.992v-125.95c0-8.3516-3.3164-16.359-9.2227-22.266-5.9023-5.9062-13.914-9.2227-22.266-9.2227z"/>
 </g>
 <path d="m242.56 431.49c0 2.7812 1.1055 5.4531 3.0742 7.4219 1.9688 1.9648 4.6367 3.0742 7.4219 3.0742h52.48v-20.992h-42.855c-2.2031-12.887-8.3516-24.773-17.594-34.016-9.2461-9.2461-21.129-15.391-34.016-17.594v-64.719c12.887-2.2031 24.77-8.3516 34.016-17.594 9.2422-9.2461 15.391-21.129 17.594-34.016h42.855v-20.992h-52.48c-5.7969 0-10.496 4.6992-10.496 10.496 0 11.133-4.4258 21.812-12.297 29.688-7.875 7.8711-18.555 12.297-29.688 12.297-5.7969 0-10.496 4.6992-10.496 10.496v83.969c0 2.7812 1.1055 5.4531 3.0742 7.4219s4.6367 3.0742 7.4219 3.0742c11.133 0 21.812 4.4219 29.688 12.297 7.8711 7.8711 12.297 18.551 12.297 29.688z"/>
 <path d="m557.44 242.56c0-2.7852-1.1055-5.4531-3.0742-7.4219s-4.6367-3.0742-7.4219-3.0742h-52.48v20.992h42.855c2.2031 12.887 8.3516 24.77 17.598 34.016 9.2422 9.2422 21.129 15.391 34.012 17.594v42.855h20.992v-52.48c0-2.7852-1.1055-5.4531-3.0742-7.4219s-4.6367-3.0742-7.4219-3.0742c-11.133 0-21.812-4.4258-29.688-12.297-7.8711-7.875-12.297-18.555-12.297-29.688z"/>
 <path d="m190.08 232.06h20.992v20.992h-20.992z"/>
 <path d="m588.93 232.06h20.992v20.992h-20.992z"/>
 <path d="m190.08 420.99h20.992v20.992h-20.992z"/>
 <path d="m400 253.05c22.262 0.023437 43.605 8.8789 59.344 24.621 15.742 15.742 24.598 37.086 24.621 59.348h20.992c0-36.168-18.621-69.785-49.277-88.969-30.656-19.188-69.031-21.238-101.56-5.4297-32.527 15.809-54.625 47.25-58.48 83.211-3.8555 35.957 11.07 71.371 39.508 93.715l12.984-16.5v0.003907c-18.426-14.477-29.969-35.992-31.832-59.348-1.8672-23.359 6.1133-46.434 22.008-63.648 15.898-17.215 38.262-27.004 61.695-27.004z"/>
 <g clip-path="url(#a)">
  <path d="m630.91 379.01c0-2.7852-1.1055-5.4531-3.0742-7.4219s-4.6367-3.0742-7.4219-3.0742h-188.93c-5.7969 0-10.496 4.6992-10.496 10.496v31.488h-20.992v20.992h20.992v134.83c0 4.0938 2.3789 7.8125 6.0977 9.5273l94.465 43.602c2.7891 1.2891 6.0039 1.2891 8.793 0l94.465-43.602c3.7188-1.7148 6.0977-5.4336 6.0977-9.5273v-134.83h20.992v-20.992h-20.992zm-188.93 10.496h167.93v20.992h-167.93zm167.93 170.11-73.473 33.902v-109.55h41.984v-20.988h-104.96v20.992h41.984l-0.003906 109.55-73.473-33.902 0.003906-128.12h167.93z"/>
 </g>
</svg>