<?xml version="1.0" encoding="UTF-8"?>
<!-- The Best Svg Icon site in the world: iconSvg.co, Visit us! https://iconsvg.co -->
<svg fill="#000000" width="800px" height="800px" version="1.1" viewBox="144 144 512 512" xmlns="http://www.w3.org/2000/svg">
 <g>
  <path d="m290.98 370.41c0 64.07 38.816 99.352 109.29 99.352 70.469 0 109.3-35.281 109.3-99.352 0-45.258-32.535-100.15-74.926-120.77 29.246-4.8789 45.113-21.523 45.113-48.137h-0.003906c-0.007812-8.5898-3.7227-16.762-10.195-22.414-6.4727-5.6484-15.066-8.2344-23.582-7.0859-8.5156 1.1484-16.121 5.918-20.863 13.082-5.5195-8.332-14.848-13.344-24.84-13.344-9.9922 0-19.32 5.0117-24.84 13.344-4.7461-7.168-12.355-11.938-20.875-13.082-8.5195-1.1445-17.121 1.4453-23.59 7.1055-6.4688 5.6602-10.18 13.84-10.176 22.434 0 26.617 15.879 43.297 45.113 48.137-42.387 20.578-74.922 75.473-74.922 120.73zm161.45-183.8c4.1094 0 7.4453 2.2266 7.4453 4.9688 0 2.7383-3.3359 4.9688-7.4453 4.9688s-7.4531-2.2188-7.4531-4.9688 3.3359-4.9688 7.4531-4.9688zm-51.246 165.08v-0.003906c10.293-0.011719 19.941 5.0156 25.824 13.465 5.8828 8.4453 7.2578 19.238 3.6758 28.891-3.5781 9.6523-11.66 16.938-21.629 19.504v8.9883c0 4.3477-3.5234 7.8711-7.8711 7.8711s-7.8711-3.5234-7.8711-7.8711v-8.9883c-6.7422-1.7422-12.715-5.6641-16.988-11.16-4.2695-5.4961-6.6016-12.25-6.6289-19.211 0-4.3477 3.5234-7.8711 7.8711-7.8711 4.3477 0 7.8711 3.5234 7.8711 7.8711 0 4.1758 1.6602 8.1797 4.6133 11.133 2.9531 2.9531 6.957 4.6133 11.133 4.6133s8.1797-1.6602 11.133-4.6133c2.9531-2.9531 4.6094-6.957 4.6094-11.133s-1.6562-8.1797-4.6094-11.133c-2.9531-2.9531-6.957-4.6094-11.133-4.6094-10.293 0.011718-19.941-5.0195-25.824-13.465-5.8867-8.4492-7.2578-19.242-3.6797-28.891 3.582-9.6523 11.664-16.938 21.633-19.504v-8.9922c0-4.3477 3.5234-7.8711 7.8711-7.8711s7.8711 3.5234 7.8711 7.8711v8.9922c6.7383 1.7383 12.715 5.6641 16.984 11.16 4.2734 5.4922 6.6055 12.25 6.6328 19.211 0 4.3477-3.5234 7.8711-7.8711 7.8711-4.3477 0-7.875-3.5234-7.875-7.8711 0-4.1758-1.6562-8.1797-4.6094-11.133-2.9531-2.9531-6.957-4.6133-11.133-4.6133s-8.1797 1.6602-11.133 4.6133c-2.9531 2.9531-4.6133 6.957-4.6133 11.133 0 4.1758 1.6602 8.1797 4.6133 11.133 2.9531 2.9492 6.957 4.6094 11.133 4.6094zm-0.92188-100.25c29.812 0 63.551 27.48 81.215 58.047-19.586-30.148-49.492-48.359-81.215-48.359s-61.621 18.207-81.207 48.34c17.664-30.551 51.402-58.031 81.207-58.031z"/>
  <path d="m189.76 468.54c3.0742 3.0742 8.0547 3.0742 11.129 0l23.617-23.617v0.003906c2.9844-3.0898 2.9414-8-0.097656-11.035-3.0352-3.0391-7.9453-3.082-11.035-0.097656l-10.176 10.18v-59.719h62.977c4.3477 0 7.8711-3.5234 7.8711-7.8711 0-4.3477-3.5234-7.8711-7.8711-7.8711h-70.852c-4.3477 0-7.8711 3.5234-7.8711 7.8711v67.59l-10.18-10.18c-3.0859-2.9844-7.9961-2.9414-11.035 0.097656-3.0352 3.0352-3.0781 7.9453-0.09375 11.035z"/>
  <path d="m622.72 433.79-10.18 10.18v-67.59c0-2.0898-0.82812-4.0898-2.3047-5.5664-1.4766-1.4766-3.4805-2.3047-5.5664-2.3047h-70.848c-4.3477 0-7.875 3.5234-7.875 7.8711 0 4.3477 3.5273 7.8711 7.875 7.8711h62.977v59.719l-10.18-10.18c-3.0898-2.9844-8-2.9414-11.035 0.097656-3.0352 3.0352-3.0781 7.9453-0.097657 11.035l23.617 23.617v-0.003907c3.0742 3.0742 8.0586 3.0742 11.133 0l23.617-23.617-0.003907 0.003906c2.9844-3.0898 2.9414-8-0.09375-11.035-3.0391-3.0391-7.9492-3.082-11.035-0.097656z"/>
  <path d="m171.71 486.59h78.719c4.3477 0 7.8711 4.3477 7.8711 7.8711v47.23c0 4.3477-3.5234 7.8711-7.8711 7.8711h-78.719c-4.3477 0-7.8711-4.3477-7.8711-7.8711v-47.23c0-4.3477 3.5234-7.8711 7.8711-7.8711z"/>
  <path d="m549.57 486.59h78.719c4.3477 0 7.8711 4.3477 7.8711 7.8711v47.23c0 4.3477-3.5234 7.8711-7.8711 7.8711h-78.719c-4.3477 0-7.8711-4.3477-7.8711-7.8711v-47.23c0-4.3477 3.5234-7.8711 7.8711-7.8711z"/>
  <path d="m360.64 573.18h78.719c4.3477 0 7.8711 4.3477 7.8711 7.8711v47.23c0 4.3477-3.5234 7.8711-7.8711 7.8711h-78.719c-4.3477 0-7.8711-4.3477-7.8711-7.8711v-47.23c0-4.3477 3.5234-7.8711 7.8711-7.8711z"/>
  <path d="m400 486.59c-4.3477 0-7.875 3.5234-7.875 7.8711v36.102l-10.18-10.18 0.003907 0.003907c-3.0898-2.9844-8-2.9414-11.035 0.09375-3.0391 3.0391-3.082 7.9453-0.097656 11.035l23.617 23.617c3.0742 3.0742 8.0547 3.0742 11.129 0l23.617-23.617c2.9844-3.0898 2.9414-7.9961-0.09375-11.035-3.0391-3.0352-7.9492-3.0781-11.035-0.09375l-10.18 10.176v-36.102c0-2.0859-0.82812-4.0898-2.3047-5.5664-1.4766-1.4727-3.4805-2.3047-5.5664-2.3047z"/>
 </g>
</svg>