<?xml version="1.0" encoding="UTF-8"?>
<!-- The Best Svg Icon site in the world: iconSvg.co, Visit us! https://iconsvg.co -->
<svg width="800px" height="800px" version="1.1" viewBox="144 144 512 512" xmlns="http://www.w3.org/2000/svg">
 <defs>
  <clipPath id="b">
   <path d="m334 148.09h132v154.91h-132z"/>
  </clipPath>
  <clipPath id="a">
   <path d="m251 356h298v295.9h-298z"/>
  </clipPath>
 </defs>
 <path d="m295.46 428.46c-0.35156 0-0.71094-0.03125-1.0703-0.09375-3.3125-0.58594-5.5234-3.7461-4.9375-7.0586l12.859-72.699c0.33594-1.9062 1.5586-3.5391 3.293-4.3984l65.504-32.438c3.0156-1.4961 6.668-0.26172 8.1602 2.7539 1.4961 3.0156 0.26172 6.668-2.7539 8.1602l-62.742 31.074-12.324 69.668c-0.52344 2.9531-3.0898 5.0312-5.9883 5.0312z"/>
 <path d="m372.55 400.89c-1.9297 0-3.7852-0.92188-4.9453-2.5352l-13.789-19.184c-1.2852-1.7891-1.5039-4.1328-0.57422-6.1328l5.2852-11.324-18.266-27.07c-0.98828-1.4648-1.293-3.2852-0.83203-4.9922 0.45703-1.707 1.6367-3.1289 3.2227-3.8984l28.5-13.812c1.6719-0.8125 3.625-0.8125 5.3008-0.007812 1.6719 0.80859 2.8906 2.3359 3.2969 4.1484l10.098 44.766c0.40625 1.8047-0.027344 3.6992-1.1836 5.1445-0.25781 0.32031-0.54297 0.61328-0.85547 0.87109v25.859c0 2.8945-2.0352 5.3867-4.8711 5.9688-3.3164 0.67969-6.3906 1.3711-8.8945 2.0078-0.49219 0.12891-0.99609 0.19141-1.4922 0.19141zm-6.7578-25.934 9.3203 12.965c0.17578-0.039062 0.34766-0.078125 0.52344-0.11719v-25.613c0-1.3672 0.44922-2.6289 1.2109-3.6484l-7.2812-32.289-15.27 7.3984 16.266 24.105c1.1953 1.7734 1.375 4.0469 0.46875 5.9844zm61.629 25.934c-0.50391 0-1.0117-0.0625-1.5156-0.19141-2.6523-0.67969-5.9297-1.4102-8.7734-1.9492-2.875-0.54688-4.9531-3.0586-4.9531-5.9844v-25.891c-0.3125-0.26172-0.60156-0.55469-0.86328-0.87891-1.1562-1.4453-1.5898-3.3398-1.1836-5.1445l10.125-44.766c0.41016-1.8125 1.625-3.3398 3.3008-4.1445 1.6719-0.80469 3.6289-0.80078 5.3008 0.007813l28.48 13.812c1.5898 0.76953 2.7656 2.1914 3.2227 3.8984 0.45703 1.707 0.15234 3.5273-0.83203 4.9883l-18.262 27.066 5.3047 11.32c0.94141 2 0.71875 4.3555-0.57422 6.1484l-13.836 19.184c-1.1641 1.6055-3.0117 2.5234-4.9414 2.5234zm-3.0586-13.082c0.17188 0.039062 0.33984 0.078125 0.51172 0.11328l9.3516-12.965-5.25-11.207c-0.91016-1.9414-0.73437-4.2148 0.46484-5.9922l16.262-24.105-15.254-7.3984-7.3047 32.285c0.76172 1.0195 1.2188 2.2812 1.2188 3.6523z"/>
 <path d="m504.57 428.5c-2.8984 0-5.4688-2.0781-5.9922-5.0312l-12.332-69.703-62.742-31.074c-3.0156-1.4922-4.2461-5.1445-2.7539-8.1602 1.4922-3.0156 5.1445-4.25 8.1602-2.7539l65.504 32.438c1.7344 0.85937 2.957 2.4922 3.2969 4.3984l12.867 72.734c0.58594 3.3125-1.625 6.4727-4.9375 7.0586-0.36328 0.0625-0.72266 0.09375-1.0703 0.09375z"/>
 <g clip-path="url(#b)">
  <path d="m399.95 302.35c-32.41 0-58.777-26.383-58.777-58.816 0-3.8555-1.2148-7.6016-2.625-11.938-1.7031-5.2461-3.6328-11.191-3.6328-18.441 0-35.875 29.176-65.062 65.035-65.062 35.879 0 65.07 29.188 65.07 65.062 0 8.4531-2.1758 15.059-3.9258 20.363-1.2461 3.7812-2.3242 7.0469-2.3242 10.016 0.003906 32.434-26.387 58.816-58.82 58.816zm0-142.07c-29.141 0-52.852 23.723-52.852 52.883 0 5.3242 1.4766 9.8672 3.0391 14.68 1.582 4.875 3.2188 9.9141 3.2188 15.699 0 25.715 20.902 46.633 46.594 46.633 25.719 0 46.641-20.918 46.641-46.633 0-4.9258 1.4258-9.25 2.9336-13.832 1.6289-4.9414 3.3125-10.051 3.3125-16.551 0-29.156-23.723-52.879-52.887-52.879z"/>
 </g>
 <path d="m456.09 237.39c-2.1523 0-4.2422-1.1445-5.3516-3.1719-16.602-30.379-26.328-25.738-47.645-15.555-15.25 7.2852-34.238 16.355-60.961 14.305-3.3555-0.25781-5.8633-3.1836-5.6094-6.5391 0.25781-3.3555 3.1875-5.8711 6.5391-5.6094 23.48 1.8008 40.109-6.1406 54.777-13.148 22.238-10.625 41.449-19.805 63.586 20.707 1.6133 2.9531 0.53125 6.6523-2.4258 8.2656-0.91797 0.50391-1.9219 0.74609-2.9102 0.74609z"/>
 <path d="m348.33 260.28c-0.49609 0-1-0.0625-1.5039-0.1875-6.207-1.5781-14.738-4.5742-17.109-12.367-2.5742-8.4688 3.8633-16.953 8.9336-22.602 2.25-2.5039 6.0977-2.7109 8.6016-0.46484s2.7109 6.0977 0.46484 8.6016c-7.1367 7.9492-6.3789 10.801-6.3438 10.918 0.066406 0.21875 0.86719 2.1797 8.4531 4.1094 3.2617 0.82813 5.2305 4.1406 4.4062 7.4023-0.70312 2.7539-3.1836 4.5898-5.9023 4.5898z"/>
 <path d="m451.69 260.28c-2.7227 0-5.1992-1.8359-5.8984-4.5898-0.83203-3.2617 1.1406-6.5742 4.4023-7.4062 7.5742-1.9258 8.375-3.8906 8.4375-4.1055 0.035157-0.11719 0.79297-2.9688-6.3594-10.914-2.25-2.5-2.0469-6.3516 0.45312-8.6016 2.5-2.2539 6.3516-2.0469 8.6016 0.45313 5.0781 5.6445 11.531 14.125 8.9609 22.598-2.3633 7.7969-10.887 10.801-17.094 12.379-0.5 0.125-1.0039 0.1875-1.5039 0.1875z"/>
 <path d="m373.81 323.32c-0.74219 0-1.4961-0.13672-2.2305-0.42578-3.1328-1.2344-4.668-4.7695-3.4375-7.8984l9.0469-22.965c1.2344-3.1289 4.7695-4.668 7.8984-3.4336 3.1289 1.2344 4.668 4.7695 3.4336 7.8984l-9.0469 22.965c-0.9375 2.3945-3.2344 3.8594-5.6641 3.8594z"/>
 <path d="m426.2 323.32c-2.4297 0-4.7227-1.4648-5.668-3.8594l-9.0469-22.965c-1.2305-3.1289 0.30859-6.668 3.4375-7.8984 3.1289-1.2305 6.6641 0.30469 7.8984 3.4336l9.0469 22.965c1.2305 3.1289-0.30469 6.668-3.4336 7.8984-0.73828 0.28906-1.4922 0.42578-2.2344 0.42578z"/>
 <path d="m399.92 328.91c-9.5547 0-19.082-2.0273-28.512-6.082-3.0898-1.3281-4.5195-4.9102-3.1914-8 1.3281-3.0898 4.9141-4.5195 8-3.1914 15.902 6.8359 31.473 6.832 47.602-0.011718 3.0977-1.3125 6.6719 0.13281 7.9844 3.2266 1.3125 3.0977-0.13281 6.6719-3.2266 7.9844-9.5352 4.0508-19.109 6.0742-28.656 6.0742z"/>
 <path d="m400.01 591.76c-48.52 0-87.992-39.465-87.992-87.973 0-48.52 39.473-87.992 87.992-87.992 48.508 0 87.977 39.473 87.977 87.992-0.003906 48.508-39.469 87.973-87.977 87.973zm0-163.78c-41.801 0-75.809 34.008-75.809 75.809 0 41.793 34.008 75.793 75.809 75.793 41.793 0 75.793-34 75.793-75.793 0-41.801-34-75.809-75.793-75.809z"/>
 <g clip-path="url(#a)">
  <path d="m418.27 651.9h-36.547c-3.3633 0-5.3438-2.4961-5.3438-5.8594v-26.285c-4.9219-0.90234-8.8906-2.0859-13.004-3.3555l-13.141 22.465c-0.80859 1.3984-2.2305 2.4219-3.793 2.8398-1.5586 0.41797-3.2734 0.19922-4.6719-0.60938l-31.562-18.219c-1.3984-0.80859-2.4297-2.1406-2.8477-3.6992-0.41797-1.5625-0.20312-3.2266 0.60547-4.625l12.988-22.457c-3.1367-2.8867-6.4336-6.1719-9.2852-9.2578l-22.465 12.965c-1.3984 0.80859-3.0625 1.0273-4.625 0.60547-1.5625-0.41797-2.8906-1.4414-3.6992-2.8398l-18.188-31.531c-1.6758-2.9062-0.6875-6.6211 2.2148-8.3086l22.488-13.059c-1.2891-4.1758-2.4844-8.8281-3.3906-12.762h-26.539c-3.3633 0-6.0508-2.7695-6.0508-6.1328v-36.547c0-3.3633 2.6875-6.5195 6.0508-6.5195h26.562c0.90625-2.9531 2.0898-8.1758 3.3516-12.246l-22.453-12.812c-1.4023-0.80469-2.4258-2.0859-2.8438-3.6445-0.42188-1.5625-0.19922-3.1992 0.60547-4.5977l18.188-31.492c0.80859-1.4023 2.1406-2.4141 3.7031-2.832 1.5625-0.41797 3.2266-0.19141 4.625 0.61719l22.453 13.012c2.8633-3.1094 6.1602-6.3984 9.2852-9.2656l-12.984-22.477c-0.80859-1.3984-1.0273-3.0625-0.60938-4.625 0.41797-1.5625 1.4414-2.8906 2.8398-3.6992l31.547-18.195c2.9141-1.6836 6.6406-0.68359 8.3203 2.2305l13.348 22.477c4.0898-1.2617 8.0508-2.4492 12.973-3.3633v-25.605c0-3.3633 1.9805-5.4922 5.3438-5.4922h36.547c3.3672 0 5.3438 2.1289 5.3438 5.4922v25.605c4.9219 0.91797 8.9062 2.1055 13 3.3672l13.176-22.48c1.6836-2.9141 5.5-3.9102 8.4141-2.2266l31.559 18.199c2.9102 1.6836 3.9336 5.4062 2.2539 8.3164l-12.957 22.484c3.1211 2.8711 6.4141 6.1602 9.2734 9.2734l22.445-12.984c1.3984-0.80859 3.0625-1.0312 4.625-0.61328 1.5625 0.41797 2.8945 1.4375 3.7031 2.8398l18.227 31.551c0.80859 1.4023 1.0273 3.0703 0.60547 4.6328-0.42188 1.5664-1.4492 2.8945-2.8555 3.6992l-22.449 12.633c1.2109 3.918 2.4023 9.2734 3.3477 12.227h26.555c3.3633 0 6.0508 3.1562 6.0508 6.5195v36.547c0 3.3633-2.6875 6.1328-6.0508 6.1328h-26.547c-0.91406 3.9375-2.1016 8.5859-3.375 12.742l22.5 13.035c2.9062 1.6836 3.8984 5.3984 2.2188 8.3086l-18.227 31.555c-1.6836 2.9102-5.4023 3.9102-8.3203 2.2305l-22.449-12.949c-2.8633 3.1172-6.1523 6.4062-9.2656 9.2695l12.961 22.453c1.6797 2.9102 0.68359 6.6367-2.2266 8.3203l-31.523 18.223c-1.3984 0.80859-3.0586 1.0234-4.6211 0.60938-1.5625-0.41797-2.8906-1.4414-3.6992-2.8359l-13.352-22.48c-4.1602 1.2812-8.0742 2.4648-12.992 3.3633v26.289c0 3.3633-1.9766 5.8555-5.3438 5.8555zm-31.062-11.809h25.586v-25.281c0-2.9336 1.7852-5.4492 4.6641-5.9883 6.2383-1.168 14.926-3.5312 20.418-5.5039 2.7695-0.99219 5.7852 0.14063 7.2539 2.6875l12.371 21.496 20.957-12.121-12.422-21.5c-1.4805-2.5625-0.91016-5.8203 1.3633-7.7188 4.7227-3.9531 11.027-10.262 14.992-15 1.8984-2.2656 5.1484-2.8477 7.7148-1.3672l21.496 12.398 12.141-21.02-21.512-12.473c-2.543-1.4727-3.6719-4.5547-2.6797-7.3242 2.1875-6.1016 4.4688-15.023 5.5078-20.516 0.54297-2.8789 3.0547-4.7539 5.9844-4.7539h24.746v-24.602h-24.75c-2.9297 0-5.4414-2.1719-5.9844-5.0547-1.1562-6.1289-3.5234-14.949-5.5039-20.461-1-2.7812 0.14453-5.9023 2.707-7.3711l21.465-12.293-12.117-20.98-21.492 12.434c-2.5664 1.4844-5.832 0.90625-7.7305-1.375-3.9297-4.7148-10.23-11.027-14.984-15.004-2.2695-1.8984-2.8477-5.1523-1.3672-7.7148l12.414-21.527-20.969-12.109-12.426 21.508c-1.4805 2.5586-4.5859 3.6875-7.3594 2.6719-5.9414-2.1641-14.727-4.4609-20.262-5.5195-2.8711-0.55078-4.6406-3.0625-4.6406-5.9844v-25.199h-25.586v25.207c0 2.9219-1.7695 5.4336-4.6406 5.9844-5.5117 1.0547-14.43 3.3477-20.387 5.5195-2.7773 1.0156-5.8086-0.11328-7.2852-2.6758l-12.375-21.508-20.973 12.109 12.441 21.52c1.4805 2.5625 0.91016 5.8203-1.3594 7.7188-4.7578 3.9805-11.074 10.289-15.031 15.008-1.9023 2.2695-5.1602 2.8438-7.7188 1.3555l-21.492-12.449-12.09 20.941 21.484 12.363c2.5664 1.4766 3.6992 4.5859 2.6836 7.3711-2.2305 6.1016-4.4648 14.973-5.5234 20.492-0.55078 2.8711-3.0586 5.0391-5.9844 5.0391l-24.746-0.011719v24.602h24.75c2.9336 0 5.4531 1.8828 5.9883 4.7695 1.0156 5.4648 3.293 14.465 5.5156 20.574 1.0078 2.7695-0.11328 5.8125-2.6602 7.2969l-21.523 12.492 12.113 20.984 21.492-12.414c2.5547-1.4805 5.8047-0.91016 7.707 1.3477 3.8984 4.6328 10.23 10.949 15.055 15.023 2.2578 1.9023 2.8242 5.1484 1.3438 7.7031l-12.434 21.492 20.984 12.117 12.391-21.492c1.4805-2.5625 4.5859-3.6914 7.3633-2.6797 6.0234 2.1992 14.777 4.4688 20.242 5.4922 2.8828 0.53906 4.668 3.0547 4.668 5.9883z"/>
 </g>
 <path d="m400 558.33c-3.3633 0-6.0898-2.7266-6.0898-6.0898v-11.426c-5.3555-0.45703-10.824-1.9961-15.992-4.6328-2.9961-1.5312-4.1875-5.1992-2.6562-8.1953 1.5312-2.9961 5.1992-4.1836 8.1953-2.6562 11.074 5.6523 20.812 3.5234 25.789-0.015625 2.7695-1.9727 4.2422-4.4727 3.9336-6.6836-0.48828-3.5039-5.1055-7.1328-12.348-9.7109-19.766-7.0312-25.445-18.438-24.172-26.77 1.1758-7.6758 7.7305-13.293 17.25-15.184v-10.965c0-3.3672 2.7266-6.0898 6.0898-6.0898 3.3672 0 6.0898 2.7266 6.0898 6.0898v10.5c4.0078 0.39453 8.1914 1.2734 12.508 2.6406 3.207 1.0156 4.9844 4.4375 3.9727 7.6445-1.0156 3.207-4.4336 4.9844-7.6445 3.9688-5.3281-1.6875-10.305-2.4453-14.754-2.2891-7.0156 0.26562-11.082 2.9805-11.469 5.5234-0.44922 2.9297 3.5 8.9297 16.211 13.449 16.125 5.7344 19.66 14.684 20.332 19.508 0.94922 6.7969-2.3906 13.637-8.9336 18.289-3.0352 2.1602-6.5039 3.7109-10.219 4.6484v12.352c0 3.3672-2.7266 6.0938-6.0938 6.0938z"/>
 <path d="m306.78 313.04c-1.5586 0-3.1172-0.59375-4.3047-1.7812l-11.035-11.027-11.039 11.027c-2.3789 2.3789-6.2383 2.375-8.6133-0.003906-2.3789-2.3789-2.375-6.2383 0.003907-8.6133l11.031-11.02-11.031-11.02c-2.3789-2.3789-2.3828-6.2344-0.003907-8.6133 2.3789-2.3789 6.2344-2.3828 8.6133-0.003906l11.039 11.027 11.031-11.027c2.3789-2.3789 6.2383-2.375 8.6133 0.003906 2.3789 2.3789 2.375 6.2383-0.003907 8.6133l-11.027 11.02 11.027 11.02c2.3789 2.3789 2.3828 6.2344 0.003907 8.6133-1.1875 1.1914-2.7461 1.7852-4.3047 1.7852z"/>
 <path d="m513.29 278.14c-3.3672 0-6.0898-2.7266-6.0898-6.0898v-9.7461h-9.7461c-3.3672 0-6.0938-2.7266-6.0938-6.0898 0-3.3633 2.7266-6.0938 6.0938-6.0938h9.7461v-9.7461c0-3.3633 2.7266-6.0898 6.0898-6.0898s6.0898 2.7266 6.0898 6.0898v9.7461h9.7461c3.3633 0 6.0898 2.7266 6.0898 6.0938 0 3.3633-2.7266 6.0898-6.0898 6.0898h-9.7461v9.7461c0 3.3633-2.7266 6.0898-6.0898 6.0898z"/>
 <path d="m277.23 215.43c-11.812 0-21.418-9.6094-21.418-21.418s9.6094-21.418 21.418-21.418c11.824 0 21.445 9.6094 21.445 21.418s-9.6172 21.418-21.445 21.418zm0-30.656c-5.0938 0-9.2383 4.1445-9.2383 9.2383s4.1445 9.2383 9.2383 9.2383c5.1094 0 9.2617-4.1445 9.2617-9.2383 0.003907-5.0938-4.1523-9.2383-9.2617-9.2383z"/>
</svg>