<?xml version="1.0" encoding="UTF-8"?>
<!-- The Best Svg Icon site in the world: iconSvg.co, Visit us! https://iconsvg.co -->
<svg fill="#000000" width="800px" height="800px" version="1.1" viewBox="144 144 512 512" xmlns="http://www.w3.org/2000/svg">
 <g>
  <path d="m400 203.2c5.4336 0 9.8398 4.4062 9.8398 9.8398 0 5.4336-4.4062 9.8398-9.8398 9.8398s-9.8398-4.4062-9.8398-9.8398c0-5.4375 4.4023-9.8398 9.8398-9.8398z"/>
  <path d="m547.6 350.8c5.4336 0 9.8398 4.4062 9.8398 9.8398 0 5.4336-4.4062 9.8398-9.8398 9.8398s-9.8398-4.4062-9.8398-9.8398c0-5.4336 4.4062-9.8398 9.8398-9.8398z"/>
  <path d="m252.4 350.8c5.4336 0 9.8398 4.4062 9.8398 9.8398 0 5.4336-4.4062 9.8398-9.8398 9.8398-5.4336 0-9.8398-4.4062-9.8398-9.8398 0-5.4336 4.4062-9.8398 9.8398-9.8398z"/>
  <path d="m399.55 512.18c-19.027 0-36.973-4.8281-50.527-13.602-14.086-9.1133-21.84-21.406-21.84-34.617 0-7.6797 2.7461-15.312 7.9453-22.078 0.74609-0.96875 1.8984-1.5391 3.1211-1.5391s2.375 0.56641 3.1211 1.5391c10.762 14.012 33.598 23.062 58.18 23.062s47.418-9.0508 58.18-23.062c0.74609-0.96875 1.8984-1.5391 3.1211-1.5391 1.2227 0 2.375 0.56641 3.1211 1.5391 5.1992 6.7656 7.9453 14.398 7.9453 22.078 0 13.211-7.7578 25.504-21.84 34.617-13.555 8.7695-31.5 13.602-50.527 13.602zm-60.898-61.41c-2.3906 4.2383-3.5977 8.6602-3.5977 13.191 0 22.246 28.934 40.344 64.496 40.344s64.496-18.098 64.496-40.344c0-4.5352-1.207-8.957-3.5977-13.195-13.199 13.711-35.938 22.055-60.898 22.055-24.961 0-47.699-8.3438-60.898-22.051z"/>
  <path d="m399.55 551.54c-19.027 0-36.973-4.8281-50.527-13.602-14.086-9.1133-21.84-21.406-21.84-34.613 0-7.6797 2.7461-15.312 7.9453-22.078 0.74609-0.96875 1.8984-1.5391 3.1211-1.5391s2.375 0.56641 3.1211 1.5391c10.762 14.008 33.598 23.062 58.18 23.062s47.418-9.0508 58.18-23.062c0.74609-0.96875 1.8984-1.5391 3.1211-1.5391 1.2227 0 2.375 0.56641 3.1211 1.5391 5.1992 6.7656 7.9453 14.398 7.9453 22.078 0 13.211-7.7578 25.504-21.84 34.617-13.555 8.7695-31.5 13.598-50.527 13.598zm-60.898-61.41c-2.3906 4.2383-3.5977 8.6602-3.5977 13.195 0 22.246 28.934 40.344 64.496 40.344s64.496-18.098 64.496-40.344c0-4.5352-1.207-8.957-3.5977-13.195-13.199 13.711-35.938 22.051-60.898 22.051-24.961 0-47.699-8.3398-60.898-22.051z"/>
  <path d="m399.55 590.89c-19.027 0-36.973-4.832-50.527-13.602-14.086-9.1133-21.84-21.406-21.84-34.613 0-7.6797 2.7461-15.312 7.9453-22.078 0.74609-0.96875 1.8984-1.5391 3.1211-1.5391s2.375 0.56641 3.1211 1.5391c10.762 14.008 33.598 23.062 58.18 23.062s47.418-9.0508 58.18-23.062c0.74609-0.96875 1.8984-1.5391 3.1211-1.5391 1.2227 0 2.375 0.56641 3.1211 1.5391 5.1992 6.7656 7.9453 14.398 7.9453 22.078 0 13.207-7.7578 25.5-21.84 34.617-13.555 8.7695-31.5 13.598-50.527 13.598zm-60.898-61.41c-2.3906 4.2383-3.5977 8.6602-3.5977 13.195 0 22.246 28.934 40.344 64.496 40.344s64.496-18.098 64.496-40.344c0-4.5352-1.207-8.957-3.5977-13.195-13.199 13.711-35.938 22.051-60.898 22.051-24.961 0-47.699-8.3398-60.898-22.051z"/>
  <path d="m399.55 630.25c-19.027 0-36.973-4.832-50.527-13.602-14.086-9.1133-21.84-21.406-21.84-34.613 0-7.6758 2.7461-15.312 7.9453-22.078 0.74609-0.96875 1.8984-1.5391 3.1211-1.5391s2.375 0.56641 3.1211 1.5391c10.762 14.012 33.598 23.062 58.18 23.062s47.418-9.0508 58.18-23.062c0.74609-0.96875 1.8984-1.5391 3.1211-1.5391 1.2227 0 2.375 0.56641 3.1211 1.5391 5.1992 6.7656 7.9453 14.398 7.9453 22.078 0 13.207-7.7578 25.5-21.84 34.617-13.555 8.7695-31.5 13.598-50.527 13.598zm-60.898-61.41c-2.3906 4.2422-3.5977 8.6641-3.5977 13.195 0 22.246 28.934 40.344 64.496 40.344s64.496-18.098 64.496-40.344c0-4.5352-1.207-8.957-3.5977-13.195-13.199 13.711-35.938 22.051-60.898 22.051-24.961 0-47.699-8.3398-60.898-22.051z"/>
  <path d="m399.55 472.82c-27.352 0-52.035-10.016-64.422-26.137-5.1992-6.7695-7.9453-14.402-7.9453-22.082 0-13.207 7.7578-25.504 21.844-34.617 13.551-8.7656 31.496-13.598 50.523-13.598 19.027 0 36.973 4.832 50.527 13.602 14.086 9.1133 21.84 21.406 21.84 34.617 0 7.6797-2.7461 15.312-7.9453 22.078-12.387 16.117-37.07 26.137-64.422 26.137zm0-88.562c-35.562 0-64.496 18.098-64.496 40.344 0 6.0117 2.125 11.828 6.3164 17.281 10.762 14.012 33.598 23.062 58.18 23.062s47.418-9.0508 58.18-23.062c4.1914-5.4531 6.3164-11.27 6.3164-17.281 0-10.445-6.4805-20.395-18.246-28.004-12.293-7.957-28.723-12.34-46.25-12.34z"/>
  <path d="m537.31 590.89c-19.027 0-36.973-4.832-50.527-13.602-14.086-9.1133-21.844-21.406-21.844-34.613 0-7.6797 2.7461-15.312 7.9453-22.078 0.74609-0.96875 1.8984-1.5391 3.1211-1.5391 1.2227 0 2.375 0.56641 3.1211 1.5391 10.766 14.008 33.602 23.062 58.184 23.062 24.578 0 47.418-9.0508 58.18-23.062 0.74609-0.96875 1.8984-1.5391 3.1211-1.5391 1.2227 0 2.375 0.56641 3.1211 1.5391 5.1992 6.7656 7.9453 14.398 7.9453 22.078 0 13.207-7.7578 25.5-21.84 34.617-13.555 8.7695-31.5 13.598-50.527 13.598zm-60.898-61.41c-2.3906 4.2383-3.5977 8.6602-3.5977 13.195 0 22.246 28.934 40.344 64.496 40.344s64.496-18.098 64.496-40.344c0-4.5352-1.207-8.957-3.5977-13.195-13.199 13.711-35.941 22.051-60.898 22.051-24.961 0-47.699-8.3398-60.898-22.051z"/>
  <path d="m537.31 630.25c-19.027 0-36.973-4.832-50.527-13.602-14.086-9.1133-21.844-21.406-21.844-34.613 0-7.6797 2.7461-15.312 7.9453-22.078 0.74609-0.96875 1.8984-1.5391 3.1211-1.5391 1.2227 0 2.375 0.56641 3.1211 1.5391 10.766 14.012 33.602 23.062 58.184 23.062 24.578 0 47.418-9.0508 58.18-23.062 0.74609-0.96875 1.8984-1.5391 3.1211-1.5391 1.2227 0 2.375 0.56641 3.1211 1.5391 5.1992 6.7656 7.9453 14.398 7.9453 22.078 0 13.207-7.7578 25.5-21.84 34.617-13.555 8.7695-31.5 13.598-50.527 13.598zm-60.898-61.41c-2.3906 4.2383-3.5977 8.6602-3.5977 13.195 0 22.246 28.934 40.344 64.496 40.344s64.496-18.098 64.496-40.344c0-4.5352-1.207-8.957-3.5977-13.195-13.199 13.711-35.941 22.051-60.898 22.051-24.961 0-47.699-8.3398-60.898-22.051z"/>
  <path d="m537.31 551.54c-27.352 0-52.039-10.016-64.426-26.137-5.1953-6.7656-7.9453-14.402-7.9453-22.078 0-13.211 7.7578-25.504 21.84-34.617 13.555-8.7695 31.5-13.602 50.527-13.602s36.973 4.8281 50.527 13.602c14.086 9.1133 21.84 21.406 21.84 34.617 0 7.6797-2.7461 15.312-7.9453 22.078-12.383 16.121-37.066 26.137-64.418 26.137zm0-88.559c-35.566 0-64.496 18.098-64.496 40.344 0 6.0117 2.125 11.828 6.3164 17.281 10.762 14.008 33.598 23.062 58.18 23.062 24.578 0 47.418-9.0508 58.18-23.062 4.1914-5.4531 6.3164-11.27 6.3164-17.281 0-22.246-28.934-40.344-64.496-40.344z"/>
  <path d="m262.69 630.25c-19.027 0-36.973-4.832-50.527-13.602-14.086-9.1133-21.844-21.406-21.844-34.613 0-7.6758 2.7461-15.312 7.9453-22.078 0.74609-0.96875 1.8984-1.5391 3.1211-1.5391 1.2227 0 2.375 0.56641 3.1211 1.5391 10.766 14.012 33.602 23.062 58.184 23.062 24.578 0 47.418-9.0508 58.18-23.062 0.74609-0.96875 1.8984-1.5391 3.1211-1.5391 1.2227 0 2.375 0.57031 3.1211 1.5391 5.1992 6.7656 7.9453 14.402 7.9453 22.078 0 13.207-7.7578 25.5-21.844 34.617-13.555 8.7695-31.496 13.598-50.523 13.598zm-60.898-61.41c-2.3906 4.2383-3.5977 8.6602-3.5977 13.195 0 22.246 28.934 40.344 64.496 40.344s64.496-18.098 64.496-40.344c0-4.5312-1.207-8.9531-3.5977-13.195-13.203 13.711-35.941 22.051-60.898 22.051-24.961 0-47.699-8.3398-60.898-22.051z"/>
  <path d="m262.69 590.89c-27.352 0-52.035-10.016-64.422-26.137-5.1992-6.7656-7.9453-14.402-7.9453-22.078 0-13.211 7.7578-25.504 21.84-34.617 13.551-8.7695 31.496-13.602 50.527-13.602 19.027 0 36.973 4.8281 50.527 13.602 14.082 9.1133 21.84 21.406 21.84 34.617 0 7.6797-2.7461 15.312-7.9453 22.078-12.387 16.121-37.074 26.137-64.422 26.137zm0-88.559c-35.562 0-64.496 18.098-64.496 40.344 0 6.0117 2.125 11.828 6.3125 17.281 10.766 14.012 33.602 23.062 58.184 23.062 24.578 0 47.418-9.0508 58.18-23.062 4.1914-5.4531 6.3164-11.27 6.3164-17.281 0-22.246-28.934-40.344-64.496-40.344z"/>
  <path d="m470.64 263.13c-0.13281-0.17578-0.51172-0.46094-1.1484-0.85547-0.63672-0.39453-1.4453-0.82031-2.4336-1.2812-0.98438-0.46094-2.082-0.89844-3.2852-1.3164-1.207-0.41406-2.4219-0.71094-3.6484-0.88672v8.9375l2.1055 0.52734c2.2344 0.61328 4.25 1.2812 6.0469 2.0039 1.7969 0.72266 3.3203 1.6211 4.5703 2.6953s2.2109 2.3789 2.8906 3.9102c0.67969 1.5352 1.0195 3.375 1.0195 5.5195 0 2.5-0.4375 4.625-1.3164 6.375-0.875 1.7539-2.0469 3.1875-3.5156 4.3047-1.4648 1.1172-3.1523 1.9609-5.0625 2.5312-1.9062 0.57031-3.9102 0.89844-6.0117 0.98438v7.625h-4.5352v-7.6914c-3.0234-0.26172-6.0156-0.875-8.9727-1.8398-2.957-0.96484-5.6211-2.2344-7.9844-3.8125l4.7344-9.3984c0.17578 0.21875 0.64453 0.58203 1.4141 1.0859 0.76562 0.50391 1.7422 1.0312 2.9258 1.5781s2.5195 1.0742 4.0117 1.5781c1.4883 0.50391 3.0234 0.86719 4.6016 1.0859v-8.7422l-3.1562-0.92188c-2.1484-0.65625-4.0078-1.3711-5.5859-2.1367-1.5781-0.76563-2.8828-1.6523-3.9102-2.6641-1.0312-1.0078-1.7969-2.168-2.3008-3.4844-0.50391-1.3125-0.75781-2.8477-0.75781-4.6016 0-2.2773 0.39453-4.3047 1.1836-6.082 0.78906-1.7734 1.8516-3.2969 3.1875-4.5703 1.3359-1.2695 2.9141-2.2656 4.7344-2.9922 1.8164-0.72266 3.7773-1.1953 5.8828-1.4141l-0.007813-6.625h4.5352v6.6406c2.8477 0.26562 5.5195 0.89844 8.0195 1.9062 2.4961 1.0078 4.668 2.0352 6.5078 3.0898zm-18.207-0.59375c0 1.0977 0.38281 1.9609 1.1484 2.5977 0.76562 0.63672 1.9141 1.1953 3.4492 1.6758v-8.0859c-3.0625 0.26172-4.5977 1.5352-4.5977 3.8125zm12.754 20.902c0-1.1406-0.46094-2.0273-1.3789-2.6641-0.92188-0.63281-2.1484-1.2148-3.6797-1.7422v7.8867c3.3711-0.12891 5.0586-1.2891 5.0586-3.4805z"/>
  <path d="m323.04 351.69c-0.13281-0.17578-0.51562-0.46094-1.1484-0.85547-0.63672-0.39453-1.4453-0.82031-2.4336-1.2812-0.98438-0.46094-2.082-0.89844-3.2852-1.3164-1.207-0.41406-2.4219-0.71094-3.6484-0.88672v8.9375l2.1055 0.52734c2.2344 0.61328 4.25 1.2812 6.0469 2.0039 1.7969 0.72266 3.3203 1.6211 4.5703 2.6953s2.2148 2.3789 2.8906 3.9102c0.67969 1.5352 1.0195 3.375 1.0195 5.5195 0 2.5-0.4375 4.625-1.3164 6.375-0.875 1.7539-2.0469 3.1875-3.5156 4.3047s-3.1562 1.9609-5.0625 2.5312-3.9102 0.89844-6.0156 0.98438v7.625h-4.5352v-7.6914c-3.0234-0.26172-6.0156-0.875-8.9727-1.8398-2.957-0.96484-5.6211-2.2344-7.9844-3.8125l4.7305-9.3984c0.17578 0.21875 0.64844 0.58203 1.4141 1.0859s1.7422 1.0312 2.9258 1.5781 2.5195 1.0742 4.0117 1.5781c1.4883 0.50391 3.0234 0.86719 4.6016 1.0859v-8.7422l-3.1562-0.92188c-2.1484-0.65625-4.0117-1.3711-5.5859-2.1367-1.5781-0.76562-2.8828-1.6523-3.9102-2.6641-1.0273-1.0078-1.7969-2.168-2.3008-3.4844-0.50391-1.3125-0.75391-2.8477-0.75391-4.6016 0-2.2773 0.39453-4.3047 1.1836-6.082 0.78906-1.7734 1.8516-3.2969 3.1875-4.5703 1.3359-1.2695 2.9141-2.2656 4.7305-2.9922 1.8164-0.72266 3.7773-1.1953 5.8828-1.4141l-0.003906-6.625h4.5352v6.6406c2.8477 0.26563 5.5195 0.89844 8.0195 1.9062 2.5 1.0078 4.668 2.0352 6.5078 3.0898zm-18.203-0.59375c0 1.0977 0.38281 1.9609 1.1484 2.5977 0.76562 0.63672 1.918 1.1953 3.4531 1.6758v-8.0859c-3.0703 0.26562-4.6016 1.5352-4.6016 3.8125zm12.75 20.902c0-1.1406-0.46094-2.0273-1.3789-2.6641-0.92188-0.63281-2.1484-1.2148-3.6797-1.7422v7.8867c3.3711-0.125 5.0586-1.2891 5.0586-3.4805z"/>
  <path d="m272.07 500.92c-0.96484 0-1.9336-0.35156-2.6914-1.0664-18.828-17.672-33.652-38.559-44.055-62.078-10.766-24.348-16.227-50.301-16.227-77.141 0-105.26 85.637-190.9 190.9-190.9s190.9 85.637 190.9 190.9c0 36.051-9.8594 68.934-30.145 100.53-1.1758 1.832-3.6094 2.3594-5.4375 1.1875-1.8281-1.1758-2.3594-3.6094-1.1875-5.4375 19.441-30.285 28.895-61.777 28.895-96.277 0-100.92-82.105-183.02-183.02-183.02-100.92 0-183.03 82.105-183.03 183.02 0 51.094 20.523 98.496 57.797 133.48 1.5859 1.4883 1.6641 3.9805 0.17578 5.5625-0.77344 0.82812-1.8203 1.2461-2.8711 1.2461z"/>
  <path d="m400 364.57c-0.86328 0-1.7188-0.28516-2.418-0.82812l-88.559-68.879c-1.7148-1.3359-2.0234-3.8086-0.69141-5.5234 1.332-1.7188 3.8086-2.0273 5.5234-0.69141l86.898 67.586 86.562-28.855c2.0547-0.68359 4.2891 0.42578 4.9805 2.4883 0.6875 2.0625-0.42969 4.293-2.4883 4.9805l-88.559 29.52c-0.41406 0.13672-0.83203 0.20312-1.25 0.20312z"/>
 </g>
</svg>