<?xml version="1.0" encoding="UTF-8"?>
<!-- The Best Svg Icon site in the world: iconSvg.co, Visit us! https://iconsvg.co -->
<svg fill="#000000" width="800px" height="800px" version="1.1" viewBox="144 144 512 512" xmlns="http://www.w3.org/2000/svg">
 <g>
  <path d="m633.71 397.5-29.367-88.273c-3.082-9.25-13.113-14.277-22.363-11.199l-27.922 9.2891-4.8711-14.641c-2.7812-8.3477-8.6719-15.125-16.582-19.094-7.9141-3.9609-16.879-4.6133-25.227-1.8398l-48.992 16.305-5.8242-17.492 8.1875-2.7188c4.4844-1.4922 8.1055-4.6406 10.223-8.8633 2.1211-4.2227 2.457-9.0234 0.96094-13.504l-2.0508-6.1719c-2.4102-7.2383-9.1445-12.102-16.777-12.102-1.8906 0-3.7695 0.30859-5.5781 0.90625l-56.105 18.668c-4.4844 1.4922-8.1172 4.6406-10.227 8.8633-2.1172 4.2227-2.4531 9.0195-0.96875 13.496l2.0547 6.1719c2.4102 7.2383 9.1484 12.102 16.777 12.102 1.8945 0 3.7734-0.30859 5.582-0.90625l8.1875-2.7266 5.8203 17.492-49.281 16.398c-8.3477 2.7773-15.125 8.6641-19.094 16.586-3.9609 7.9141-4.6211 16.879-1.832 25.223l19.625 58.977-190.21-104.31c-1.2578-0.69141-2.8164-0.53906-3.918 0.38281-1.1016 0.92188-1.5312 2.418-1.0742 3.7852l7.0938 21.316c0.21484 0.66016 0.62891 1.2383 1.1797 1.6641l216.96 167.41 13.82 41.52c2.7773 8.3477 8.6641 15.129 16.574 19.09 4.6914 2.3477 9.7422 3.5312 14.816 3.5312 3.4922 0 7.0039-0.55859 10.402-1.6914l138.01-45.918c17.301-5.7617 26.688-24.512 20.93-41.805l-18.062-54.277 27.926-9.2969c4.4844-1.4922 8.1133-4.6367 10.223-8.8633 2.1289-4.2109 2.4727-9.0078 0.98047-13.48zm-231.27-117.62c-1.0977 0.36719-2.2305 0.55078-3.375 0.55078-4.6133 0-8.6914-2.9414-10.148-7.3242l-2.0508-6.1719c-0.90234-2.7109-0.69531-5.6055 0.58594-8.1602 1.2812-2.5547 3.4766-4.457 6.1875-5.3594l56.105-18.668c1.0977-0.36328 2.2266-0.55078 3.3711-0.55078 4.6133 0 8.6953 2.9414 10.152 7.3203l2.0508 6.1719c0.90625 2.7109 0.69531 5.6133-0.58594 8.168-1.2734 2.5547-3.4727 4.457-6.1875 5.3594l-44.598 14.836h-0.003907zm17.031 1.7031 26.465-8.8047 5.8203 17.492-26.465 8.8047zm170.04 237.02-138.01 45.918c-6.5859 2.1914-13.648 1.6719-19.891-1.457-6.2422-3.1289-10.887-8.4688-13.078-15.043l-14.156-42.531v-0.003906c0-0.011719-0.011718-0.019531-0.011718-0.03125-0.074219-0.20312-0.16016-0.40625-0.27344-0.59766-0.058594-0.10156-0.125-0.1875-0.19531-0.27734-0.066406-0.097656-0.125-0.19531-0.20312-0.28125-0.13281-0.15234-0.28125-0.28906-0.42969-0.40625-0.023437-0.023437-0.050781-0.050781-0.074219-0.070313l-216.96-167.4-3.9453-11.859 190.21 104.31c0.019532 0.011718 0.050782 0.019531 0.070313 0.03125 0.097656 0.050781 0.19531 0.085937 0.29297 0.12109 0.11719 0.046875 0.22656 0.10547 0.34375 0.13281 0.10156 0.03125 0.19531 0.039062 0.29297 0.058594 0.125 0.023437 0.24609 0.054687 0.37109 0.070312 0.097656 0.003906 0.20312 0 0.29688 0 0.125 0 0.25 0.003906 0.37891-0.011719 0.097657-0.011719 0.1875-0.035156 0.28125-0.054687 0.13281-0.023438 0.26172-0.050782 0.39453-0.089844 0.019532-0.003906 0.039063-0.003906 0.058594-0.011719 0.074219-0.03125 0.14062-0.070312 0.21094-0.10156 0.12109-0.050781 0.24219-0.10156 0.35938-0.15625 0.097656-0.058594 0.17969-0.11719 0.27344-0.17969 0.10156-0.066406 0.19531-0.12109 0.29297-0.20312 0.085937-0.082031 0.16797-0.15625 0.24219-0.24219 0.082032-0.082031 0.16016-0.15625 0.23047-0.24609 0.082031-0.10156 0.14453-0.20703 0.21484-0.31641 0.046875-0.066407 0.097656-0.12109 0.13672-0.19141 0.011718-0.019531 0.015625-0.046874 0.023437-0.066406 0.066407-0.11719 0.10938-0.24219 0.16016-0.36719 0.03125-0.089844 0.074218-0.17578 0.10156-0.26562 0.035156-0.12109 0.054688-0.24609 0.074219-0.37109 0.015625-0.10156 0.046875-0.19141 0.050781-0.29297 0.011719-0.12109 0.003906-0.24609 0-0.37109 0-0.10547 0-0.20313-0.003906-0.30859-0.011719-0.10938-0.039063-0.22656-0.066406-0.33594-0.019532-0.10547-0.039063-0.22656-0.074219-0.33203-0.003907-0.023437-0.003907-0.050781-0.015625-0.070313l-22.434-67.426c-2.1914-6.5781-1.6719-13.645 1.457-19.887 3.1289-6.2461 8.4727-10.898 15.047-13.082l52.578-17.492c0.011719 0 0.015625 0 0.023438-0.003906 0.003906 0 0.011719-0.003907 0.015625-0.003907l33.066-11.004c0.011719 0 0.015625 0 0.019531-0.003906 0.011719 0 0.015625-0.003907 0.019531-0.003907l52.289-17.402c13.633-4.5352 28.43 2.8672 32.965 16.504l63.469 190.75c4.5508 13.633-2.8555 28.418-16.496 32.965zm36.98-110.74c-1.2812 2.5586-3.4766 4.4648-6.1914 5.3594l-27.922 9.2891-36.129-108.56 27.926-9.2969c5.5938-1.8594 11.664 1.1758 13.523 6.7695l29.371 88.273c0.90625 2.7148 0.69531 5.6094-0.57812 8.168z"/>
  <path d="m213.2 440.98c-0.69141-1.3867-1.5117-2.6914-2.4297-3.8945-0.011719-0.023437-0.019531-0.039062-0.03125-0.058593l-17.156-27.473c-0.63672-1.0234-1.7578-1.6406-2.9609-1.6406h-0.011719c-1.2109 0.003906-2.332 0.63672-2.9609 1.6641l-15.934 25.961c-4.0625 4.6055-6.3086 10.5-6.3086 16.66 0 13.906 11.309 25.215 25.215 25.215s25.215-11.309 25.215-25.215c0-3.8633-0.84766-7.5625-2.5234-11.012-0.039062-0.074219-0.078125-0.14453-0.11328-0.20703zm-22.582 29.434c-10.051 0-18.227-8.1719-18.227-18.223 0-4.5234 1.668-8.8633 4.6953-12.207 0.003906-0.003907 0.003906-0.011719 0.011718-0.015625 0-0.003906 0.003906-0.003906 0.003906-0.011719 0.050782-0.050781 0.082032-0.10547 0.125-0.16797 0.10547-0.12109 0.21094-0.24609 0.29688-0.37891 0.003906-0.015625 0.011718-0.019531 0.015624-0.023438l13.105-21.352 14.098 22.574c0.023437 0.050781 0.050781 0.089843 0.082031 0.13281l2.2539 3.5977c0.015625 0.035156 0.023437 0.058593 0.039063 0.085937 1.1484 2.4297 1.7266 5.043 1.7266 7.7656 0 10.051-8.1758 18.223-18.227 18.223z"/>
  <path d="m479.94 417.47h-2.6758c-7.793 0-14.133-6.3398-14.133-14.125 0-7.7891 6.3398-14.121 14.133-14.121h17.617c1.9297 0 3.4922-1.5664 3.4922-3.4961 0-1.9297-1.5664-3.4922-3.4922-3.4922h-11.453v-9.1289c0-1.9297-1.5625-3.4922-3.4883-3.4922-1.9258 0-3.4961 1.5664-3.4961 3.4922v9.168c-11.262 0.43359-20.293 9.707-20.293 21.07 0 11.645 9.4727 21.109 21.113 21.109h2.6758c7.7852 0 14.121 6.3398 14.121 14.133 0 7.7773-6.332 14.113-14.113 14.121-0.003907 0-0.011719-0.003906-0.011719-0.003906-0.015625 0-0.019531 0.003906-0.023438 0.003906h-17.598c-1.9297 0-3.4883 1.5664-3.4883 3.4961s1.5625 3.4883 3.4883 3.4883h14.125v9.1328c0 1.9297 1.5703 3.4922 3.4961 3.4922s3.4883-1.5664 3.4883-3.4922v-9.4414c9.9844-1.6719 17.617-10.352 17.617-20.797 0.007812-11.648-9.4609-21.117-21.102-21.117z"/>
  <path d="m478.61 352.91c-37.523 0-68.051 30.531-68.051 68.051 0 37.52 30.527 68.051 68.051 68.051s68.051-30.531 68.051-68.051c-0.003906-37.527-30.527-68.051-68.051-68.051zm0 129.11c-33.668 0-61.062-27.398-61.062-61.062 0-33.664 27.398-61.062 61.062-61.062s61.062 27.398 61.062 61.062c-0.003906 33.664-27.398 61.062-61.062 61.062z"/>
 </g>
</svg>