<?xml version="1.0" encoding="UTF-8"?>
<!-- The Best Svg Icon site in the world: iconSvg.co, Visit us! https://iconsvg.co -->
<svg fill="#000000" width="800px" height="800px" version="1.1" viewBox="144 144 512 512" xmlns="http://www.w3.org/2000/svg">
 <g>
  <path d="m390.93 519.07c-79.258 0-143.73-64.48-143.73-143.73-0.003906-79.262 64.477-143.74 143.73-143.74 79.254 0 143.73 64.48 143.73 143.73 0 79.258-64.48 143.74-143.73 143.74zm0-273.7c-71.66 0-129.96 58.301-129.96 129.96s58.301 129.96 129.96 129.96c71.66 0 129.96-58.301 129.96-129.96-0.003907-71.66-58.301-129.96-129.96-129.96z"/>
  <path d="m390.93 469.3c-51.816 0-93.973-42.156-93.973-93.973s42.156-93.973 93.973-93.973c51.816 0 93.973 42.156 93.973 93.973s-42.156 93.973-93.973 93.973zm0-174.17c-44.223 0-80.195 35.977-80.195 80.195 0 44.223 35.977 80.195 80.195 80.195 44.223 0 80.195-35.977 80.195-80.195s-35.977-80.195-80.195-80.195z"/>
  <path d="m390.93 419.54c-24.379 0-44.211-19.832-44.211-44.211s19.832-44.211 44.211-44.211c24.379 0 44.211 19.832 44.211 44.211-0.003907 24.379-19.836 44.211-44.211 44.211zm0-74.645c-16.781 0-30.434 13.652-30.434 30.434s13.652 30.434 30.434 30.434 30.434-13.652 30.434-30.434-13.652-30.434-30.434-30.434z"/>
  <path d="m388.58 384.56c-1.7617 0-3.5273-0.67188-4.8711-2.0156-2.6914-2.6875-2.6914-7.0508 0-9.7422l198.16-198.16c2.6914-2.6875 7.0508-2.6875 9.7422 0 2.6875 2.6875 2.6875 7.0508 0 9.7422l-198.16 198.16c-1.3438 1.3438-3.1094 2.0156-4.8711 2.0156z"/>
  <path d="m595.69 205.39c-0.25391 0-0.51172-0.015625-0.76953-0.042969l-26.391-2.9336c-3.2031-0.35547-5.7305-2.8828-6.0859-6.0859l-2.9336-26.391c-0.42188-3.7812 2.3047-7.1875 6.0859-7.6055 3.7695-0.42578 7.1875 2.3047 7.6055 6.0859l2.3242 20.914 20.914 2.3242c3.7812 0.42188 6.5039 3.8242 6.0859 7.6055-0.38672 3.5234-3.3711 6.1289-6.8359 6.1289z"/>
  <path d="m576.01 225.07c-0.25391 0-0.51172-0.015624-0.76953-0.042968l-26.391-2.9336c-3.2031-0.35547-5.7305-2.8828-6.0859-6.0859l-2.9336-26.391c-0.42188-3.7812 2.3047-7.1875 6.0859-7.6055 3.7734-0.42188 7.1875 2.3008 7.6055 6.0859l2.3242 20.914 20.914 2.3242c3.7812 0.42187 6.5039 3.8242 6.0859 7.6055-0.38672 3.5234-3.3711 6.1289-6.8359 6.1289z"/>
  <path d="m546.68 637.71h-88.559c-3.8047 0-6.8867-3.082-6.8867-6.8867v-81.363c0-2.8516 1.7539-5.4023 4.4141-6.4258 9.832-3.7891 19.395-8.4844 28.422-13.965 3.2344-1.9688 7.4531-0.94922 9.4375 2.2773l59.039 95.867c1.3086 2.125 1.3672 4.793 0.14844 6.9688-1.2188 2.1797-3.5195 3.5273-6.0156 3.5273zm-81.672-13.773h69.34l-49.051-79.645c-6.5625 3.6719-13.355 6.9609-20.293 9.8359z"/>
  <path d="m320.36 637.71h-88.559c-2.4844 0-4.7734-1.3359-5.9961-3.5-1.2227-2.1602-1.1836-4.8164 0.097656-6.9414l59.039-97.957c0.95703-1.5898 2.5156-2.7266 4.3242-3.1484 1.8047-0.42578 3.707-0.10156 5.2734 0.89453 9.0156 5.7383 18.578 10.684 28.422 14.699 2.5938 1.0586 4.2891 3.5781 4.2891 6.3789v82.688c0 3.8047-3.0859 6.8867-6.8906 6.8867zm-76.367-13.773h69.477v-71.23c-6.9492-3.0352-13.742-6.4961-20.309-10.348z"/>
  <path d="m390.89 568.91c-24.816 0-49.609-4.8008-73.129-14.395-10.602-4.3242-20.902-9.6523-30.617-15.836-11.906-7.582-23.023-16.504-33.043-26.52-75.445-75.445-75.445-198.2 0-273.65 36.547-36.547 85.137-56.676 136.82-56.676s100.28 20.129 136.82 56.676c75.445 75.445 75.445 198.2 0 273.65-11.004 11-23.293 20.652-36.535 28.691-9.7227 5.8984-20.023 10.961-30.617 15.043-22.527 8.6758-46.129 13.012-69.707 13.016zm0.035156-373.3c-48.004 0-93.137 18.695-127.08 52.641-70.074 70.074-70.074 184.09 0 254.17 9.3086 9.3086 19.637 17.598 30.699 24.641 9.0195 5.7422 18.582 10.688 28.422 14.699 42.602 17.375 89.723 17.832 132.68 1.2773 9.8359-3.7891 19.398-8.4883 28.422-13.965 12.301-7.4648 23.719-16.434 33.941-26.652 70.074-70.074 70.07-184.09-0.003906-254.17-33.941-33.945-79.074-52.641-127.08-52.641z"/>
 </g>
</svg>