<?xml version="1.0" encoding="UTF-8"?>
<!-- The Best Svg Icon site in the world: iconSvg.co, Visit us! https://iconsvg.co -->
<svg fill="#000000" width="800px" height="800px" version="1.1" viewBox="144 144 512 512" xmlns="http://www.w3.org/2000/svg">
 <g>
  <path d="m178.55 327.14h442.89c5.2266 0 9.457-4.25 9.457-9.4688 0-2.918-1.3125-5.6367-3.6211-7.4414-67.449-53.059-143.44-92.188-225.81-116.32-0.96484-0.27344-1.9727-0.27344-2.9375 0-82.387 24.117-158.36 63.246-225.84 116.32-4.0938 3.2227-4.8086 9.1836-1.5742 13.297 1.8047 2.2891 4.5117 3.6133 7.4414 3.6133zm221.45-122.72c79.98 23.617 153.79 61.633 219.09 112.21l-438.07 0.39844c65.559-51.168 139.21-89.047 218.98-112.61z"/>
  <path d="m193.56 561.42c0 2.8867 2.3516 5.2461 5.2461 5.2461h402.37c2.8984 0 5.2461-2.3633 5.2461-5.2461 0-2.8984-2.3516-5.2461-5.2461-5.2461l-402.36-0.003906c-2.9102 0-5.25 2.3516-5.25 5.25z"/>
  <path d="m171 601.04c0 2.8867 2.3516 5.2461 5.2461 5.2461h447.5c2.8867 0 5.2461-2.3633 5.2461-5.2461 0-2.8867-2.3633-5.2461-5.2461-5.2461h-447.5c-2.8945 0-5.2461 2.3594-5.2461 5.2461z"/>
  <path d="m241.46 512.59h-0.97656c-2.8984 0-5.2461 2.3516-5.2461 5.2461 0 2.8867 2.3516 5.2461 5.2461 5.2461h56.824c2.8984 0 5.2461-2.3633 5.2461-5.2461 0-2.8984-2.3516-5.2461-5.2461-5.2461h-0.97656c-8.375-51.578-8.375-103.8 0-155.36h0.97656c2.8984 0 5.2461-2.3516 5.2461-5.2461 0-2.8984-2.3516-5.2461-5.2461-5.2461l-56.824-0.003906c-2.8984 0-5.2461 2.3516-5.2461 5.2461 0 2.8984 2.3516 5.2461 5.2461 5.2461h0.97656c8.375 51.57 8.375 103.79 0 155.37zm44.27-155.38c-8.1992 51.598-8.1992 103.79 0 155.36h-33.66c8.1992-51.59 8.1992-103.8 0-155.36z"/>
  <path d="m372.56 512.59h-0.97656c-2.8984 0-5.2461 2.3516-5.2461 5.2461 0 2.8867 2.3516 5.2461 5.2461 5.2461h56.824c2.8984 0 5.2461-2.3633 5.2461-5.2461 0-2.8984-2.3516-5.2461-5.2461-5.2461h-0.97656c-8.3672-51.578-8.3672-103.8 0-155.36h0.97656c2.8984 0 5.2461-2.3516 5.2461-5.2461 0-2.8984-2.3516-5.2461-5.2461-5.2461h-56.824c-2.8984 0-5.2461 2.3516-5.2461 5.2461 0 2.8984 2.3516 5.2461 5.2461 5.2461h0.97656c8.3555 51.566 8.3555 103.79 0 155.36zm44.262-155.38c-8.1875 51.598-8.1875 103.79 0 155.36h-33.672c8.207-51.59 8.207-103.8 0-155.36z"/>
  <path d="m503.65 512.59h-0.97656c-2.8867 0-5.2461 2.3516-5.2461 5.2461 0 2.8867 2.3633 5.2461 5.2461 5.2461h56.824c2.8867 0 5.2461-2.3633 5.2461-5.2461 0-2.8984-2.3633-5.2461-5.2461-5.2461h-0.98828c-8.3672-51.578-8.3672-103.8 0-155.36h0.98828c2.8867 0 5.2461-2.3516 5.2461-5.2461 0-2.8984-2.3633-5.2461-5.2461-5.2461h-56.824c-2.8867 0-5.2461 2.3516-5.2461 5.2461 0 2.8984 2.3633 5.2461 5.2461 5.2461h0.97656c8.375 51.566 8.375 103.79 0 155.36zm44.293-155.38c-8.1992 51.598-8.1992 103.79 0 155.36h-33.684c8.1992-51.59 8.1992-103.8 0-155.36z"/>
  <path d="m423.57 235.01h-47.168c-2.8984 0-5.2461 2.3516-5.2461 5.2461v47.168c0 2.8984 2.3516 5.2461 5.2461 5.2461h47.168c2.8984 0 5.2461-2.3516 5.2461-5.2461v-47.168c0-2.8945-2.3516-5.2461-5.2461-5.2461zm-23.574 47.168c-10.109 0-18.336-8.2305-18.336-18.336-0.003906-10.109 8.2266-18.336 18.336-18.336 10.117 0 18.336 8.2305 18.336 18.336-0.011719 10.109-8.2188 18.336-18.336 18.336z"/>
 </g>
</svg>