<?xml version="1.0" encoding="UTF-8"?>
<!-- The Best Svg Icon site in the world: iconSvg.co, Visit us! https://iconsvg.co -->
<svg fill="#000000" width="800px" height="800px" version="1.1" viewBox="144 144 512 512" xmlns="http://www.w3.org/2000/svg">
 <g>
  <path d="m372.54 409.43h-48.488c-2.6172 0-4.7344 2.1172-4.7344 4.7344v34.953-0.003906c0 2.6133 2.1172 4.7344 4.7344 4.7344h48.488c1.2578 0 2.4609-0.5 3.3438-1.3867 0.88672-0.88672 1.3828-2.0938 1.3828-3.3477v-34.949c0-2.6133-2.1133-4.7305-4.7266-4.7344zm-43.77 9.457h14.762v25.504h-14.762zm39.035 25.504h-14.762l0.003906-25.504h14.762z"/>
  <path d="m372.54 479.37h-48.488c-1.2578 0-2.4609 0.49609-3.3477 1.3828-0.88672 0.88281-1.3867 2.0859-1.3867 3.3398v34.973c0 1.2539 0.5 2.457 1.3867 3.3438s2.0898 1.3828 3.3477 1.3789h48.488c2.6094 0 4.7266-2.1133 4.7266-4.7227v-34.973c0-2.6055-2.1172-4.7227-4.7266-4.7227zm-43.77 9.4453h14.762v25.504h-14.762zm39.035 25.504h-14.762l0.003906-25.5h14.762z"/>
  <path d="m372.54 549.3h-48.488c-1.2578-0.003906-2.4609 0.49609-3.3477 1.3789-0.88672 0.88672-1.3867 2.0898-1.3867 3.3438v34.961c0 1.2578 0.5 2.4609 1.3867 3.3438 0.88672 0.88672 2.0898 1.3828 3.3477 1.3828h48.488c2.6094 0 4.7266-2.1172 4.7266-4.7266v-34.961c0-2.6094-2.1172-4.7227-4.7266-4.7227zm-43.77 9.4453h14.762v25.504h-14.762zm39.035 25.504h-14.762l0.003906-25.504h14.762z"/>
  <path d="m395.93 226.96c2.6094 0 4.7227-2.1133 4.7227-4.7227v-11.246c0.003906-4.75 3.8516-8.5977 8.6016-8.6016 4.7852-0.003906 9.375-1.9102 12.762-5.293 3.3828-3.3867 5.2891-7.9766 5.293-12.762v-8.9375c0-2.6055-2.1133-4.7227-4.7227-4.7227s-4.7227 2.1172-4.7227 4.7227v8.9375c-0.011719 4.75-3.8594 8.5977-8.6094 8.6094-4.7891 0.003907-9.375 1.9062-12.762 5.2891-3.3828 3.3828-5.2891 7.9727-5.2969 12.758v11.246c0 1.2539 0.5 2.457 1.3867 3.3438s2.0938 1.3828 3.3477 1.3789z"/>
  <path d="m339.52 275.95c2.6055 0 4.7227-2.1133 4.7227-4.7227v-11.246c0.003906-4.75 3.8516-8.5977 8.5977-8.6016 4.7891-0.003906 9.3789-1.9102 12.762-5.293 3.3867-3.3867 5.2891-7.9766 5.2969-12.766v-8.9336c0-2.6094-2.1172-4.7227-4.7227-4.7227-2.6094 0-4.7227 2.1133-4.7227 4.7227v8.9336c-0.011719 4.75-3.8633 8.5977-8.6133 8.6016-4.7852 0.003906-9.375 1.9102-12.762 5.293-3.3828 3.3867-5.2891 7.9766-5.293 12.766v11.246c0 1.2539 0.5 2.457 1.3867 3.3438 0.88672 0.88672 2.0898 1.3828 3.3477 1.3789z"/>
  <path d="m640.26 619.88h-49.926v-118.31c-0.007813-2.6094-2.125-4.7227-4.7344-4.7227h-42.637c-2.9922-11.074-9.3164-20.961-18.117-28.32-8.8047-7.3555-19.652-11.828-31.082-12.812v-15.871c-0.007813-4.9805-1.9883-9.7578-5.5117-13.281-3.5234-3.5234-8.3008-5.5078-13.285-5.5117h-32.227v-36.516c0-2.6094-2.1133-4.7227-4.7227-4.7227h-12.055v-69.867c0.003906-0.54297-0.089844-1.082-0.27344-1.5938l-13.312-37.145v-26.234c0-1.2539-0.49609-2.457-1.3828-3.3477-0.88672-0.88672-2.0859-1.3867-3.3438-1.3867h-27.188c-1.2539 0-2.457 0.5-3.3438 1.3867-0.88281 0.89062-1.3828 2.0938-1.3789 3.3477v26.215l-13.312 37.145c-0.1875 0.51172-0.27734 1.0508-0.27734 1.5938v23.32l-4.3203-12.035 0.003907-26.684c0-2.6094-2.1172-4.7227-4.7266-4.7227h-27.188c-2.6094 0-4.7227 2.1133-4.7227 4.7227v26.688l-13.312 37.137v-0.003906c-0.1875 0.51562-0.27734 1.0586-0.27734 1.6055v19.855l-12.055 0.003906c-2.6055 0-4.7227 2.1133-4.7227 4.7227v73.898h-9.4375 0.003907c-8.2539 0.007812-16.168 3.2852-22.004 9.1172-5.8398 5.8359-9.125 13.742-9.1406 21.996v10.234c-11.133 1.1797-21.434 6.4375-28.926 14.754s-11.648 19.109-11.664 30.301v75.012h-49.93c-2.6094 0-4.7227 2.1172-4.7227 4.7227 0 2.6094 2.1133 4.7227 4.7227 4.7227h480.53c2.6094 0 4.7227-2.1133 4.7227-4.7227 0-2.6055-2.1133-4.7227-4.7227-4.7227zm-95.398-69.324h36.016v34.117h-36.016zm0-44.281h36.016v34.793h-36.016zm-69.863-75.77v0.003906c5.1562 0.003906 9.3359 4.1797 9.3477 9.3359v15.871c-16.879 1.4414-32.188 10.469-41.613 24.543v-49.75zm-103.4-119.76 13.312-37.145c0.18359-0.51172 0.27734-1.0508 0.27344-1.5938v-22.309h17.711v22.309h0.003906c0 0.54297 0.097656 1.082 0.28516 1.5938l13.312 37.145v69.066l-44.898 0.003906zm-54.543 50.027 13.324-37.145h-0.003906c0.18359-0.51172 0.27344-1.0508 0.27734-1.5938v-22.781h17.711v22.781c-0.003907 0.54297 0.089843 1.082 0.27734 1.5938l13.312 37.145v19.039l-44.898 0.003906zm-35.66 107.13h9.4375v49.34h-0.003907c-7.5586-9.8203-18.809-16.113-31.133-17.41v-10.281c0.019531-5.7461 2.3125-11.246 6.3789-15.305 4.0664-4.0586 9.5742-6.3398 15.32-6.3438zm-62.281 76.969c0-12.809 6.8359-24.648 17.93-31.055 11.094-6.4023 24.762-6.4023 35.859 0 11.094 6.4062 17.926 18.246 17.926 31.055v75.012h-71.715zm81.172 0v-155.61h133.01v230.62h-133.01zm142.45-33.586v0.003906c0-16.555 8.832-31.852 23.168-40.129 14.34-8.2773 32-8.2773 46.34 0 14.336 8.2773 23.168 23.574 23.168 40.129v108.59h-92.676zm102.12 108.6v-25.754h36.016v25.75z"/>
 </g>
</svg>