<?xml version="1.0" encoding="UTF-8"?>
<!-- The Best Svg Icon site in the world: iconSvg.co, Visit us! https://iconsvg.co -->
<svg width="800px" height="800px" version="1.1" viewBox="144 144 512 512" xmlns="http://www.w3.org/2000/svg">
 <defs>
  <clipPath id="a">
   <path d="m258 148.09h393.9v503.81h-393.9z"/>
  </clipPath>
 </defs>
 <g clip-path="url(#a)">
  <path d="m541.7 510.21h15.742c4.1758 0 8.1797 1.6602 11.133 4.6094 2.9531 2.9531 4.6133 6.957 4.6133 11.133 0 4.3477 3.5234 7.875 7.8711 7.875 4.3477 0 7.8711-3.5273 7.8711-7.875-0.023437-8.3438-3.3477-16.336-9.25-22.234-5.8984-5.9023-13.895-9.2266-22.238-9.2539v-7.8711c0-4.3477-3.5234-7.8711-7.8711-7.8711s-7.8711 3.5234-7.8711 7.8711v7.8711c-11.25 0-21.645 6.0039-27.27 15.746-5.625 9.7422-5.625 21.746 0 31.488 5.625 9.7422 16.02 15.742 27.27 15.742h15.742c5.625 0 10.824 3.0039 13.637 7.875s2.8125 10.871 0 15.742c-2.8125 4.8711-8.0117 7.8711-13.637 7.8711h-15.742c-4.1758 0-8.1797-1.6562-11.133-4.6094s-4.6133-6.957-4.6133-11.133c0-4.3477-3.5234-7.8711-7.8711-7.8711s-7.8711 3.5234-7.8711 7.8711c0 8.3516 3.3164 16.359 9.2227 22.266s13.914 9.2227 22.266 9.2227v7.8711c0 4.3477 3.5234 7.8711 7.8711 7.8711s7.8711-3.5234 7.8711-7.8711v-7.8711c11.25 0 21.645-6.0039 27.27-15.746 5.625-9.7422 5.625-21.746 0-31.488s-16.02-15.742-27.27-15.742h-15.742c-5.625 0-10.824-3-13.637-7.8711-2.8125-4.8711-2.8125-10.875 0-15.746s8.0117-7.8711 13.637-7.8711zm7.8711-62.977c-2.6758 0-5.3516 0.15625-7.8711 0.31641v-260.09c0-10.438-4.1484-20.449-11.527-27.832-7.3828-7.3789-17.395-11.527-27.832-11.527h-204.67c-10.441 0-20.453 4.1484-27.832 11.527-7.3828 7.3828-11.531 17.395-11.531 27.832v425.09c0 10.438 4.1484 20.449 11.531 27.832 7.3789 7.3828 17.391 11.527 27.832 11.527h204.67c6.1797-0.003906 12.273-1.4609 17.789-4.25 9.5664 2.7891 19.477 4.2188 29.441 4.25 36.562 0 70.348-19.504 88.625-51.168 18.281-31.664 18.281-70.672 0-102.34-18.277-31.664-52.062-51.168-88.625-51.168zm-251.9 188.93c-6.2656 0-12.273-2.4883-16.699-6.918-4.4297-4.4297-6.918-10.438-6.918-16.699v-425.09c0-6.2617 2.4883-12.27 6.918-16.699 4.4258-4.4297 10.434-6.918 16.699-6.918h204.67c6.2617 0 12.27 2.4883 16.699 6.918 4.4258 4.4297 6.9141 10.438 6.9141 16.699v262.61c-5.3672 1.2734-10.633 2.957-15.742 5.0352v-251.9c0-6.2656-2.4883-12.273-6.918-16.699-4.4297-4.4297-10.434-6.918-16.699-6.918h-32.902c-6.2578 0.03125-12.25 2.5195-16.691 6.9258l-6.4531 6.4531v0.003906c-1.4219 1.5312-3.4219 2.3867-5.5117 2.3594h-50.066c-2.0859 0.027343-4.0898-0.82812-5.5117-2.3594l-6.4531-6.4531v-0.003907c-4.4414-4.4062-10.434-6.8945-16.688-6.9258h-32.906c-6.2617 0-12.27 2.4883-16.699 6.918-4.4297 4.4258-6.918 10.434-6.918 16.699v346.37c0 2.0898 0.83203 4.0898 2.3086 5.5664 1.4727 1.4766 3.4766 2.3047 5.5664 2.3047h149.88c2.4609 32.34 20.176 61.57 47.703 78.723zm196.8-432.96v260.25c-27.055 17.27-44.43 46.246-46.914 78.25h-142.01v-338.5c0-4.3477 3.5234-7.875 7.8711-7.875h32.906c2.0859-0.027344 4.0898 0.83203 5.5078 2.3633l6.4531 6.4531h0.003906c4.4414 4.4102 10.434 6.8984 16.688 6.9297h50.066c6.2578-0.03125 12.25-2.5195 16.688-6.9297l6.4531-6.4531h0.003906c1.418-1.5312 3.4219-2.3906 5.5117-2.3633h32.902c2.0898 0 4.0898 0.83203 5.5664 2.3086 1.4766 1.4766 2.3047 3.4766 2.3047 5.5664zm55.105 432.96c-4.9688 0.011719-9.9219-0.46484-14.801-1.418-18.809-3.082-36.043-12.363-48.969-26.371-12.922-14.008-20.793-31.938-22.352-50.934-0.62891-5.2266-0.62891-10.512 0-15.742 2.0273-22.992 13.203-44.207 31.016-58.883 4.8672-3.9688 10.145-7.3984 15.746-10.234 5.0117-2.6484 10.289-4.7578 15.742-6.2969 5.1328-1.5039 10.41-2.4531 15.746-2.8359 2.6133-0.31641 5.2422-0.47656 7.8711-0.46875 30.938 0 59.523 16.504 74.992 43.293 15.469 26.793 15.469 59.801 0 86.594s-44.055 43.297-74.992 43.297zm-149.57-62.977c-6.2656 0-12.273 2.4883-16.699 6.918-4.4297 4.4258-6.918 10.434-6.918 16.699 0 6.2617 2.4883 12.27 6.918 16.699 4.4258 4.4258 10.434 6.9141 16.699 6.9141 6.2617 0 12.27-2.4883 16.699-6.9141 4.4258-4.4297 6.9141-10.438 6.9141-16.699 0-6.2656-2.4883-12.273-6.9141-16.699-4.4297-4.4297-10.438-6.918-16.699-6.918zm0 31.488c-3.1836 0-6.0547-1.918-7.2734-4.8594s-0.54687-6.3281 1.707-8.5781c2.25-2.2539 5.6367-2.9258 8.5781-1.707 2.9414 1.2188 4.8594 4.0859 4.8594 7.2734 0 2.0859-0.82812 4.0898-2.3047 5.5664-1.4766 1.4727-3.4805 2.3047-5.5664 2.3047z"/>
 </g>
</svg>