<?xml version="1.0" encoding="UTF-8"?>
<!-- The Best Svg Icon site in the world: iconSvg.co, Visit us! https://iconsvg.co -->
<svg fill="#000000" width="800px" height="800px" version="1.1" viewBox="144 144 512 512" xmlns="http://www.w3.org/2000/svg">
 <g>
  <path d="m367.09 346.38c-27.367 18.5-44.359 48.867-45.809 81.867 0 47.082 28.703 74.086 78.723 74.086s78.719-27 78.719-74.082v-0.003906c-1.4453-33-18.438-63.371-45.809-81.867 6.8359-3.2188 12.637-8.2812 16.758-14.613 4.1211-6.3281 6.3984-13.684 6.5742-21.238 0.21484-5.4727-1.418-10.859-4.6328-15.297s-7.8242-7.668-13.094-9.1758c-7.082-1.9609-14.676-0.50781-20.531 3.9375-0.51172 0.40234-1.0078 0.78906-1.4727 1.25h0.003906c-4.6484-3.8516-10.496-5.9609-16.531-5.9609-6.0391 0-11.887 2.1094-16.531 5.9609-0.46484-0.44141-0.96094-0.85156-1.4727-1.25-5.8555-4.4414-13.441-5.8945-20.523-3.9375-5.2695 1.5039-9.8828 4.7344-13.098 9.1719s-4.8477 9.8281-4.6367 15.301c0.17969 7.5586 2.4609 14.914 6.5859 21.246 4.1289 6.332 9.9375 11.391 16.777 14.605zm95.891 81.867c0 26.617-10.922 58.34-62.977 58.34-52.059 0-62.977-31.723-62.977-58.34 0-33.387 30.543-76.469 62.977-76.469 32.43 0 62.977 43.086 62.977 76.469zm-97.543-126.94c0.8125-0.21484 1.6484-0.32812 2.4883-0.33203 1.6016-0.03125 3.168 0.47656 4.4453 1.4414 1.8633 1.5273 2.9062 3.8359 2.8281 6.2422 0 4.3477 3.5234 7.8711 7.8711 7.8711s7.8711-3.5234 7.8711-7.8711c0.78125-4.3906 4.5938-7.5859 9.0547-7.5859 4.457 0 8.2734 3.1953 9.0508 7.5859 0 4.3477 3.5234 7.8711 7.8711 7.8711 4.3477 0 7.875-3.5234 7.875-7.8711-0.082031-2.4062 0.96484-4.7148 2.8242-6.2422 2.0117-1.4414 4.582-1.8516 6.9453-1.1094 3.7344 1.2578 6.1602 4.8633 5.9258 8.8008-0.13281 5.0977-1.8008 10.043-4.7852 14.18-2.9844 4.1406-7.1445 7.2852-11.941 9.0273 0.65234-2.1719 0.99609-4.4219 1.0312-6.6836 0-4.3477-3.5273-7.875-7.875-7.875-4.3477 0-7.8711 3.5273-7.8711 7.875 0.14844 2.4922-0.74219 4.9375-2.4531 6.7539-1.7148 1.8164-4.1016 2.8477-6.5977 2.8477-2.5 0-4.8867-1.0312-6.6016-2.8477-1.7109-1.8164-2.6016-4.2617-2.4531-6.7539 0-4.3477-3.5234-7.875-7.8711-7.875s-7.8711 3.5273-7.8711 7.875c0.03125 2.2617 0.37891 4.5117 1.0312 6.6836-4.7969-1.7422-8.9609-4.8867-11.945-9.0273-2.9844-4.1367-4.6484-9.082-4.7852-14.18-0.23438-3.9375 2.1992-7.543 5.9375-8.8008z"/>
  <path d="m392.12 379.69v1.457c-7.0586 2.4805-12.52 8.1641-14.715 15.32-2.1914 7.1523-0.85547 14.922 3.6016 20.934 4.457 6.0078 11.504 9.543 18.988 9.5234 3.1836 0 6.0547 1.918 7.2695 4.8594 1.2188 2.9414 0.54688 6.3281-1.7031 8.5781-2.2539 2.25-5.6406 2.9258-8.582 1.707s-4.8594-4.0898-4.8594-7.2734c0-4.3477-3.5234-7.8711-7.8711-7.8711s-7.8711 3.5234-7.8711 7.8711c0.019532 4.8672 1.543 9.6094 4.3633 13.578 2.8164 3.9648 6.793 6.9688 11.379 8.5898v1.4492c0 4.3477 3.5273 7.8711 7.875 7.8711s7.8711-3.5234 7.8711-7.8711v-1.4492c7.0547-2.4844 12.512-8.1719 14.699-15.324 2.1914-7.1523 0.85547-14.918-3.5977-20.926-4.4531-6.0117-11.496-9.5469-18.973-9.5352-3.1836 0-6.0547-1.918-7.2734-4.8594s-0.54687-6.3281 1.707-8.5781c2.25-2.25 5.6367-2.9258 8.5781-1.707 2.9414 1.2188 4.8594 4.0898 4.8594 7.2734 0 4.3477 3.5234 7.8711 7.8711 7.8711 4.3477 0 7.8711-3.5234 7.8711-7.8711-0.019531-4.8672-1.543-9.6055-4.3633-13.57-2.8164-3.9688-6.793-6.9688-11.379-8.5898v-1.457c0-4.3477-3.5234-7.8711-7.8711-7.8711s-7.875 3.5234-7.875 7.8711z"/>
  <path d="m488.9 334.71c3.0742 3.0742 8.0547 3.0742 11.129 0l18.051-18.051 10.18 10.18c2.25 2.25 5.6367 2.9258 8.5781 1.707 2.9414-1.2188 4.8594-4.0898 4.8594-7.2734v-55.102c0-2.0898-0.82812-4.0898-2.3047-5.5664s-3.4805-2.3086-5.5664-2.3086h-55.105c-3.1836 0.003907-6.0547 1.9219-7.2695 4.8594-1.2188 2.9414-0.54688 6.3281 1.7031 8.5781l10.18 10.18-18.051 18.051c-3.0742 3.0742-3.0742 8.0586 0 11.133zm11.133-47.23h-0.003906c3.0742-3.0742 3.0742-8.0586 0-11.133l-2.3047-2.3047h28.227v28.23l-2.3047-2.3047v-0.003906c-3.0742-3.0742-8.0586-3.0742-11.133 0l-18.051 18.051-12.484-12.484z"/>
  <path d="m581.05 163.84c-14.613 0-28.629 5.8086-38.965 16.141-10.332 10.336-16.141 24.352-16.141 38.965 0 14.613 5.8086 28.633 16.141 38.965 10.336 10.336 24.352 16.141 38.965 16.141 14.613 0 28.633-5.8047 38.965-16.141 10.336-10.332 16.141-24.352 16.141-38.965-0.019531-14.609-5.8281-28.613-16.16-38.945-10.328-10.332-24.336-16.141-38.945-16.16zm0 94.465c-10.438 0-20.449-4.1445-27.832-11.527-7.3789-7.3828-11.527-17.391-11.527-27.832 0-10.438 4.1484-20.449 11.527-27.832 7.3828-7.3789 17.395-11.527 27.832-11.527s20.449 4.1484 27.832 11.527c7.3828 7.3828 11.527 17.395 11.527 27.832-0.011718 10.438-4.1641 20.441-11.539 27.82-7.3789 7.3789-17.387 11.527-27.82 11.539z"/>
  <path d="m258.3 266.18v55.105-0.003906c0.003907 3.1836 1.9219 6.0547 4.8594 7.2734 2.9414 1.2188 6.3281 0.54297 8.5781-1.707l10.18-10.18 18.051 18.051c3.0742 3.0742 8.0586 3.0742 11.133 0l23.617-23.617-0.003906 0.003906c3.0742-3.0742 3.0742-8.0586 0-11.133l-18.051-18.051 10.18-10.18c2.25-2.25 2.9258-5.6367 1.707-8.5781-1.2188-2.9375-4.0898-4.8555-7.2734-4.8594h-55.102c-4.3477 0-7.875 3.5273-7.875 7.875zm15.742 7.8711h28.23l-2.3047 2.3047c-3.0742 3.0742-3.0742 8.0586 0 11.133l18.051 18.051-12.484 12.484-18.051-18.051c-3.0742-3.0742-8.0586-3.0742-11.133 0l-2.3047 2.3047z"/>
  <path d="m218.94 274.05c14.613 0 28.633-5.8047 38.965-16.141 10.336-10.332 16.141-24.352 16.141-38.965 0-14.613-5.8047-28.629-16.141-38.965-10.332-10.332-24.352-16.141-38.965-16.141-14.613 0-28.629 5.8086-38.965 16.141-10.332 10.336-16.141 24.352-16.141 38.965 0.019531 14.609 5.8281 28.617 16.16 38.945 10.332 10.332 24.336 16.145 38.945 16.16zm0-94.465c10.441 0 20.449 4.1484 27.832 11.527 7.3828 7.3828 11.527 17.395 11.527 27.832 0 10.441-4.1445 20.449-11.527 27.832-7.3828 7.3828-17.391 11.527-27.832 11.527-10.438 0-20.449-4.1445-27.832-11.527-7.3789-7.3828-11.527-17.391-11.527-27.832 0.011719-10.434 4.1641-20.438 11.543-27.816s17.383-11.531 27.816-11.543z"/>
  <path d="m541.7 533.82v-55.105c0-3.1836-1.918-6.0547-4.8594-7.2695-2.9414-1.2188-6.3281-0.54688-8.5781 1.7031l-10.18 10.18-18.051-18.051c-3.0742-3.0742-8.0547-3.0742-11.129 0l-23.617 23.617c-3.0742 3.0742-3.0742 8.0547 0 11.129l18.051 18.051-10.18 10.18c-2.25 2.25-2.9219 5.6367-1.7031 8.5781 1.2148 2.9414 4.0859 4.8594 7.2695 4.8594h55.105c2.0859 0 4.0898-0.82812 5.5664-2.3047s2.3047-3.4805 2.3047-5.5664zm-15.742-7.8711-28.23-0.003906 2.3047-2.3047c3.0742-3.0742 3.0742-8.0586 0-11.133l-18.051-18.051 12.484-12.484 18.051 18.051c3.0742 3.0742 8.0586 3.0742 11.133 0l2.3047-2.3047z"/>
  <path d="m581.05 525.95c-14.613 0-28.629 5.8086-38.965 16.141-10.332 10.336-16.141 24.352-16.141 38.965 0 14.613 5.8086 28.633 16.141 38.965 10.336 10.336 24.352 16.141 38.965 16.141 14.613 0 28.633-5.8047 38.965-16.141 10.336-10.332 16.141-24.352 16.141-38.965-0.019531-14.609-5.8281-28.617-16.16-38.945-10.328-10.332-24.336-16.141-38.945-16.16zm0 94.465c-10.438 0-20.449-4.1445-27.832-11.527-7.3789-7.3828-11.527-17.395-11.527-27.832s4.1484-20.449 11.527-27.832c7.3828-7.3789 17.395-11.527 27.832-11.527s20.449 4.1484 27.832 11.527c7.3828 7.3828 11.527 17.395 11.527 27.832-0.011718 10.434-4.1641 20.441-11.539 27.82-7.3789 7.375-17.387 11.527-27.82 11.539z"/>
  <path d="m334.71 488.9-23.617-23.617h0.003906c-3.0742-3.0742-8.0586-3.0742-11.133 0l-18.051 18.051-10.18-10.18c-2.25-2.25-5.6367-2.9219-8.5781-1.7031-2.9375 1.2148-4.8555 4.0859-4.8594 7.2695v55.105c0 2.0859 0.83203 4.0898 2.3086 5.5664s3.4766 2.3047 5.5664 2.3047h55.105-0.003906c3.1836 0 6.0547-1.918 7.2734-4.8594 1.2188-2.9414 0.54297-6.3281-1.707-8.5781l-10.18-10.18 18.051-18.051c3.0742-3.0742 3.0742-8.0547 0-11.129zm-34.746 23.617v-0.003906c-3.0742 3.0742-3.0742 8.0586 0 11.133l2.3047 2.3047h-28.227v-28.227l2.3047 2.3047c3.0742 3.0742 8.0586 3.0742 11.133 0l18.051-18.051 12.484 12.484z"/>
  <path d="m218.94 636.16c14.613 0 28.633-5.8047 38.965-16.141 10.336-10.332 16.141-24.352 16.141-38.965 0-14.613-5.8047-28.629-16.141-38.965-10.332-10.332-24.352-16.141-38.965-16.141-14.613 0-28.629 5.8086-38.965 16.141-10.332 10.336-16.141 24.352-16.141 38.965 0.019531 14.609 5.8281 28.617 16.16 38.945 10.332 10.332 24.336 16.141 38.945 16.16zm0-94.465c10.441 0 20.449 4.1484 27.832 11.527 7.3828 7.3828 11.527 17.395 11.527 27.832s-4.1445 20.449-11.527 27.832c-7.3828 7.3828-17.391 11.527-27.832 11.527-10.438 0-20.449-4.1445-27.832-11.527-7.3789-7.3828-11.527-17.395-11.527-27.832 0.011719-10.434 4.1641-20.438 11.543-27.816 7.3789-7.3789 17.383-11.531 27.816-11.543z"/>
 </g>
</svg>