<?xml version="1.0" encoding="UTF-8"?>
<!-- The Best Svg Icon site in the world: iconSvg.co, Visit us! https://iconsvg.co -->
<svg fill="#000000" width="800px" height="800px" version="1.1" viewBox="144 144 512 512" xmlns="http://www.w3.org/2000/svg">
 <g>
  <path d="m266.18 384.25h-47.234c-14.609 0.015625-28.613 5.8281-38.945 16.16-10.332 10.328-16.141 24.336-16.16 38.945v78.719c0 2.0898 0.83203 4.0898 2.3086 5.5664 1.4766 1.4766 3.4766 2.3047 5.5664 2.3047h141.7c2.0859 0 4.0898-0.82812 5.5664-2.3047 1.4766-1.4766 2.3047-3.4766 2.3047-5.5664v-78.719c-0.015625-14.609-5.8281-28.617-16.156-38.945-10.332-10.332-24.336-16.145-38.945-16.16zm-86.594 125.95v-70.848c0.023438-8.5742 2.875-16.902 8.1094-23.695l35.582 94.543zm41.25-51.168-20.391-54.238c4.2969-2.3203 9.0039-3.7891 13.855-4.3281l12.203 24.402zm24.168 51.168h-4.8789l-8.1875-21.805 9.4453-56.914h2.3633l9.5234 56.758zm0.55078-94.465h-5.9844l-7.8711-15.742h21.727zm25.27-15.273v0.003906c4.8516 0.53906 9.5547 2.0078 13.852 4.3281l-20.387 54.082-5.668-34.008zm34.715 109.74h-43.691l35.582-94.543c5.2344 6.793 8.0859 15.121 8.1094 23.695z"/>
  <path d="m281.92 344.89c0-10.438-4.1484-20.449-11.527-27.832-7.3828-7.3828-17.395-11.527-27.832-11.527-10.441 0-20.449 4.1445-27.832 11.527-7.3828 7.3828-11.527 17.395-11.527 27.832s4.1445 20.449 11.527 27.832c7.3828 7.3828 17.391 11.527 27.832 11.527 10.434-0.011718 20.438-4.1641 27.816-11.543 7.3789-7.3789 11.531-17.383 11.543-27.816zm-39.359 23.617c-6.2656 0-12.27-2.4883-16.699-6.918s-6.918-10.438-6.918-16.699 2.4883-12.27 6.918-16.699c4.4297-4.4297 10.434-6.918 16.699-6.918 6.2617 0 12.27 2.4883 16.699 6.918 4.4297 4.4297 6.918 10.438 6.918 16.699s-2.4883 12.27-6.918 16.699c-4.4297 4.4297-10.438 6.918-16.699 6.918z"/>
  <path d="m581.05 384.25h-47.23c-14.609 0.015625-28.617 5.8281-38.949 16.16-10.328 10.328-16.141 24.336-16.156 38.945v78.719c0 2.0898 0.82812 4.0898 2.3047 5.5664 1.4766 1.4766 3.4805 2.3047 5.5664 2.3047h141.7c2.0859 0 4.0898-0.82812 5.5664-2.3047 1.4727-1.4766 2.3047-3.4766 2.3047-5.5664v-78.719c-0.019531-14.609-5.8281-28.617-16.16-38.945-10.328-10.332-24.336-16.145-38.945-16.16zm-86.594 125.95v-70.848c0.027343-8.5742 2.875-16.902 8.1094-23.695l35.582 94.543zm41.25-51.168-20.387-54.238c4.2969-2.3203 9-3.7891 13.855-4.3281l12.203 24.402zm24.168 51.168h-4.8789l-8.1875-21.805 9.4453-56.914h2.3633l9.5234 56.758zm0.55078-94.465h-5.9844l-7.8711-15.742h21.727zm25.27-15.273v0.003906c4.8555 0.53906 9.5586 2.0078 13.855 4.3281l-20.387 54.082-5.668-34.008zm34.715 109.74h-43.688l35.582-94.543c5.2344 6.793 8.082 15.121 8.1055 23.695z"/>
  <path d="m596.8 344.89c0-10.438-4.1484-20.449-11.531-27.832-7.3789-7.3828-17.391-11.527-27.832-11.527-10.438 0-20.449 4.1445-27.832 11.527-7.3789 7.3828-11.527 17.395-11.527 27.832s4.1484 20.449 11.527 27.832c7.3828 7.3828 17.395 11.527 27.832 11.527 10.438-0.011718 20.441-4.1641 27.82-11.543 7.3789-7.3789 11.527-17.383 11.543-27.816zm-39.359 23.617h-0.003906c-6.2617 0-12.27-2.4883-16.699-6.918-4.4258-4.4297-6.9141-10.438-6.9141-16.699s2.4883-12.27 6.9141-16.699c4.4297-4.4297 10.438-6.918 16.699-6.918 6.2656 0 12.273 2.4883 16.699 6.918 4.4297 4.4297 6.918 10.438 6.918 16.699s-2.4883 12.27-6.918 16.699c-4.4258 4.4297-10.434 6.918-16.699 6.918z"/>
  <path d="m423.61 494.46h-47.23c-14.609 0.019531-28.617 5.8281-38.945 16.16-10.332 10.332-16.141 24.336-16.16 38.945v78.723c0 2.0859 0.83203 4.0898 2.3047 5.5664 1.4766 1.4727 3.4805 2.3047 5.5664 2.3047h141.7c2.0859 0 4.0898-0.83203 5.5664-2.3047 1.4766-1.4766 2.3047-3.4805 2.3047-5.5664v-78.723c-0.015625-14.609-5.8281-28.613-16.156-38.945-10.332-10.332-24.34-16.141-38.949-16.16zm-86.59 125.95v-70.848c0.023437-8.5742 2.8711-16.902 8.1055-23.695l35.582 94.543zm41.25-51.168-20.387-54.238h-0.003907c4.2969-2.3203 9-3.7891 13.855-4.3281l12.203 24.402zm24.164 51.168h-4.8789l-8.1875-21.805 9.4453-56.914h2.3633l9.5234 56.758zm0.55078-94.465h-5.9844l-7.8711-15.742h21.727zm25.27-15.273v0.003907c4.8555 0.53906 9.5586 2.0078 13.855 4.3281l-20.387 54.082-5.668-34.008zm34.719 109.74h-43.691l35.582-94.543c5.2344 6.793 8.082 15.121 8.1094 23.695z"/>
  <path d="m439.36 455.1c0-10.438-4.1484-20.449-11.527-27.832-7.3828-7.3789-17.395-11.527-27.832-11.527-10.441 0-20.453 4.1484-27.832 11.527-7.3828 7.3828-11.531 17.395-11.531 27.832 0 10.441 4.1484 20.453 11.531 27.832 7.3789 7.3828 17.391 11.527 27.832 11.527 10.434-0.011719 20.438-4.1602 27.816-11.539s11.531-17.383 11.543-27.82zm-39.359 23.617c-6.2656 0-12.273-2.4883-16.699-6.918-4.4297-4.4297-6.918-10.434-6.918-16.699 0-6.2617 2.4883-12.27 6.918-16.699 4.4258-4.4258 10.434-6.9141 16.699-6.9141 6.2617 0 12.27 2.4883 16.699 6.9141 4.4258 4.4297 6.9141 10.438 6.9141 16.699 0 6.2656-2.4883 12.27-6.9141 16.699-4.4297 4.4297-10.438 6.918-16.699 6.918z"/>
  <path d="m281.92 250.43h15.746c4.3477 0 7.8711-3.5234 7.8711-7.8711s-3.5234-7.8711-7.8711-7.8711h-15.746c-4.3477 0-7.8711 3.5234-7.8711 7.8711s3.5234 7.8711 7.8711 7.8711z"/>
  <path d="m289.86 301.6c2.1758 3.7656 6.9883 5.0547 10.754 2.8828l13.641-7.8711 0.003906-0.003906c1.8203-1.0352 3.1562-2.7539 3.7031-4.7773 0.55078-2.0234 0.26953-4.1836-0.77734-6-1.0508-1.8164-2.7773-3.1367-4.8047-3.6758-2.0273-0.53516-4.1875-0.23828-5.9961 0.82031l-13.641 7.8711c-3.7656 2.1758-5.0547 6.9883-2.8828 10.754z"/>
  <path d="m485.75 296.61 13.625 7.8711v0.003907c3.7617 2.1367 8.543 0.83984 10.707-2.9102 2.1641-3.7461 0.89844-8.5352-2.8359-10.727l-13.625-7.8711c-1.8086-1.0586-3.9648-1.3555-5.9922-0.82031-2.0273 0.53906-3.7578 1.8594-4.8086 3.6758-1.0469 1.8164-1.3281 3.9766-0.77734 6 0.54688 2.0234 1.8828 3.7422 3.707 4.7773z"/>
  <path d="m502.34 250.43h15.742c4.3477 0 7.8711-3.5234 7.8711-7.8711s-3.5234-7.8711-7.8711-7.8711h-15.742c-4.3477 0-7.875 3.5234-7.875 7.8711s3.5273 7.8711 7.875 7.8711z"/>
  <path d="m314.26 188.51-13.641-7.8711h-0.003907c-3.7617-2.1406-8.543-0.83984-10.707 2.9062-2.1641 3.75-0.89844 8.5391 2.8359 10.727l13.641 7.8711v0.003906c1.8086 1.0586 3.9688 1.3555 5.9961 0.81641 2.0273-0.53516 3.7539-1.8555 4.8047-3.6719 1.0469-1.8164 1.3281-3.9766 0.77734-6-0.54688-2.0234-1.8828-3.7422-3.7031-4.7812z"/>
  <path d="m392.12 218.94h15.746c2.0859 0 4.0898 0.82812 5.5664 2.3047 1.4766 1.4766 2.3047 3.4805 2.3047 5.5664 0 4.3477 3.5234 7.875 7.8711 7.875 4.3477 0 7.875-3.5273 7.875-7.875 0-6.2617-2.4883-12.27-6.918-16.699-4.4297-4.4258-10.438-6.9141-16.699-6.9141v-7.875c0-4.3477-3.5234-7.8711-7.8711-7.8711s-7.875 3.5234-7.875 7.8711v7.875c-8.4375 0-16.23 4.5-20.449 11.809-4.2188 7.3047-4.2188 16.309 0 23.613 4.2188 7.3086 12.012 11.809 20.449 11.809h15.746c4.3477 0 7.8711 3.5234 7.8711 7.8711 0 4.3477-3.5234 7.875-7.8711 7.875h-15.746c-4.3477 0-7.8711-3.5273-7.8711-7.875 0-4.3477-3.5234-7.8711-7.8711-7.8711-4.3477 0-7.8711 3.5234-7.8711 7.8711 0 6.2656 2.4883 12.273 6.9141 16.699 4.4297 4.4297 10.438 6.918 16.699 6.918v7.8711c0 4.3477 3.5273 7.875 7.875 7.875s7.8711-3.5273 7.8711-7.875v-7.8711c8.4375 0 16.234-4.5 20.453-11.809 4.2188-7.3047 4.2188-16.309 0-23.617-4.2188-7.3047-12.016-11.805-20.453-11.805h-15.746c-4.3477 0-7.8711-3.5273-7.8711-7.875s3.5234-7.8711 7.8711-7.8711z"/>
  <path d="m402.28 163.84c-21.254-0.5625-41.84 7.4766-57.09 22.293-15.246 14.82-23.871 35.164-23.914 56.43-0.019532 14.449 3.957 28.629 11.484 40.961 7.5312 12.336 18.32 22.352 31.184 28.941 2.7344 1.3555 4.4922 4.1133 4.5664 7.1641v1.6523h-7.875c-4.3477 0-7.8711 3.5234-7.8711 7.8711v23.617c0 2.0898 0.83203 4.0898 2.3047 5.5664 1.4766 1.4766 3.4805 2.3047 5.5664 2.3047h7.8711v15.742l0.003907 0.003906c0.015625 6.2578 2.5117 12.254 6.9375 16.68 4.4219 4.4219 10.418 6.918 16.676 6.9375h15.746c6.2578-0.019531 12.254-2.5156 16.68-6.9375 4.4219-4.4258 6.918-10.422 6.9375-16.68v-15.746h7.8711c2.0859 0 4.0898-0.82812 5.5664-2.3047 1.4766-1.4766 2.3047-3.4766 2.3047-5.5664v-23.617c0-2.0859-0.82812-4.0898-2.3047-5.5664-1.4766-1.4727-3.4805-2.3047-5.5664-2.3047h-7.8711v-1.6523c0.035157-3.043 1.8086-5.793 4.5625-7.0859 13.219-6.875 24.227-17.34 31.762-30.195 7.5352-12.852 11.285-27.57 10.828-42.461-0.91016-19.93-9.2539-38.797-23.391-52.875-14.137-14.074-33.035-22.344-52.969-23.172zm13.461 212.55c0 2.0859-0.82813 4.0898-2.3047 5.5664-1.4766 1.4766-3.4805 2.3047-5.5664 2.3047h-15.746c-4.3477 0-7.8711-3.5234-7.8711-7.8711v-15.746h31.488zm15.742-31.488h-62.973v-7.8711h62.977zm-2.6758-46.367c-3.9062 1.9727-7.1953 4.9883-9.5 8.7109-2.3086 3.7227-3.5391 8.0078-3.5664 12.387v1.6523h-31.488v-1.6523c-0.023437-4.3789-1.2578-8.6641-3.5625-12.387-2.3086-3.7227-5.5977-6.7383-9.5039-8.7109-17.055-8.7773-29.18-24.848-32.938-43.656-3.7578-18.812 1.2617-38.309 13.633-52.965 12.375-14.656 30.754-22.875 49.926-22.324 15.953 0.67578 31.07 7.2969 42.391 18.559 11.316 11.258 18.016 26.344 18.777 42.293 0.35156 11.918-2.668 23.691-8.7148 33.969-6.043 10.277-14.863 18.641-25.453 24.125z"/>
  <path d="m510.13 183.52c-2.1758-3.7656-6.9883-5.0547-10.754-2.8828l-13.625 7.8711c-1.8242 1.0391-3.1602 2.7578-3.707 4.7812-0.55078 2.0234-0.26953 4.1836 0.77734 6 1.0508 1.8164 2.7812 3.1367 4.8086 3.6719 2.0273 0.53906 4.1836 0.24219 5.9922-0.81641l13.625-7.8711v-0.003907c3.7656-2.1719 5.0547-6.9883 2.8828-10.75z"/>
 </g>
</svg>