<?xml version="1.0" encoding="UTF-8"?>
<!-- The Best Svg Icon site in the world: iconSvg.co, Visit us! https://iconsvg.co -->
<svg width="800px" height="800px" version="1.1" viewBox="144 144 512 512" xmlns="http://www.w3.org/2000/svg">
 <defs>
  <clipPath id="e">
   <path d="m163 211h442v440.9h-442z"/>
  </clipPath>
  <clipPath id="d">
   <path d="m478 462h96v189.9h-96z"/>
  </clipPath>
  <clipPath id="c">
   <path d="m352 494h96v157.9h-96z"/>
  </clipPath>
  <clipPath id="b">
   <path d="m226 525h96v126.9h-96z"/>
  </clipPath>
  <clipPath id="a">
   <path d="m226 148.09h253v251.91h-253z"/>
  </clipPath>
 </defs>
 <g clip-path="url(#e)">
  <path d="m588.93 651.9h-377.86c-12.523-0.011719-24.527-4.9922-33.383-13.848-8.8555-8.8555-13.836-20.859-13.852-33.383v-377.86c0-5.625 3.0039-10.82 7.875-13.633 4.8711-2.8125 10.871-2.8125 15.742 0s7.8711 8.0078 7.8711 13.633v377.86c0.007812 4.1719 1.668 8.1758 4.6172 11.125 2.9531 2.9531 6.9531 4.6133 11.129 4.6172h377.86c5.625 0 10.824 3 13.637 7.875 2.8125 4.8711 2.8125 10.871 0 15.742s-8.0117 7.8711-13.637 7.8711z"/>
 </g>
 <g clip-path="url(#d)">
  <path d="m557.44 651.9h-62.977c-4.1719 0-8.1797-1.6562-11.133-4.6094-2.9492-2.9531-4.6094-6.957-4.6094-11.133v-157.44c0-4.1758 1.6602-8.1797 4.6094-11.133 2.9531-2.9531 6.9609-4.6094 11.133-4.6094h62.977c4.1758 0 8.1797 1.6562 11.133 4.6094 2.9531 2.9531 4.6133 6.957 4.6133 11.133v157.44c0 4.1758-1.6602 8.1797-4.6133 11.133-2.9531 2.9531-6.957 4.6094-11.133 4.6094zm-47.23-31.488h31.488v-125.95h-31.488z"/>
 </g>
 <g clip-path="url(#c)">
  <path d="m431.49 651.9h-62.977c-4.1758 0-8.1797-1.6562-11.133-4.6094s-4.6133-6.957-4.6133-11.133v-125.95c0-4.1758 1.6602-8.1797 4.6133-11.133s6.957-4.6133 11.133-4.6133h62.977c4.1758 0 8.1797 1.6602 11.133 4.6133 2.9492 2.9531 4.6094 6.957 4.6094 11.133v125.95c0 4.1758-1.6602 8.1797-4.6094 11.133-2.9531 2.9531-6.957 4.6094-11.133 4.6094zm-47.23-31.488h31.488l-0.003906-94.465h-31.488z"/>
 </g>
 <g clip-path="url(#b)">
  <path d="m305.54 651.9h-62.977c-4.1758 0-8.1797-1.6562-11.133-4.6094s-4.6133-6.957-4.6133-11.133v-94.465c0-4.1758 1.6602-8.1797 4.6133-11.133s6.957-4.6133 11.133-4.6133h62.977c4.1758 0 8.1797 1.6602 11.133 4.6133s4.6094 6.957 4.6094 11.133v94.465c0 4.1758-1.6562 8.1797-4.6094 11.133s-6.957 4.6094-11.133 4.6094zm-47.234-31.488h31.488v-62.977h-31.488z"/>
 </g>
 <path d="m274.05 510.21c-4.1758 0-8.1797-1.6602-11.133-4.6133-2.9492-2.9531-4.6094-6.957-4.6094-11.129 0-4.1758 1.6602-8.1797 4.6094-11.133l62.977-62.977c2.3398-2.3359 5.3516-3.875 8.6133-4.4062 3.2578-0.52734 6.6055-0.019531 9.5625 1.4531l52.828 26.414 54.945-54.945c2.3359-2.3359 5.3477-3.875 8.6094-4.4062s6.6055-0.019532 9.5625 1.4531l53.766 26.883 86.562-72.129c3.1953-2.7734 7.3711-4.1445 11.59-3.8047 4.2188 0.33984 8.1211 2.3633 10.828 5.6133 2.7109 3.25 3.9961 7.457 3.5703 11.668-0.42578 4.207-2.5312 8.0703-5.8359 10.711l-94.465 78.719c-2.3516 1.9609-5.2227 3.1914-8.2656 3.543-3.0391 0.35547-6.1172-0.18359-8.8555-1.5508l-52.828-26.414-54.945 54.945c-2.3359 2.3359-5.3477 3.8789-8.6094 4.4102-3.2617 0.52734-6.6094 0.019531-9.5625-1.457l-52.828-26.414-54.945 54.945h-0.003906c-2.9492 2.9648-6.957 4.625-11.137 4.6211z"/>
 <g clip-path="url(#a)">
  <path d="m352.77 400c-33.402 0-65.441-13.27-89.062-36.891s-36.891-55.66-36.891-89.062c0-33.406 13.27-65.441 36.891-89.062s55.66-36.891 89.062-36.891c33.406 0 65.441 13.27 89.062 36.891s36.891 55.656 36.891 89.062c-0.039062 33.391-13.32 65.406-36.934 89.02-23.613 23.613-55.625 36.895-89.02 36.934zm0-220.42c-25.055 0-49.082 9.9531-66.797 27.668s-27.668 41.742-27.668 66.797 9.9531 49.082 27.668 66.797 41.742 27.668 66.797 27.668 49.082-9.9531 66.797-27.668 27.668-41.742 27.668-66.797c-0.027344-25.047-9.9883-49.059-27.699-66.766-17.707-17.711-41.719-27.672-66.766-27.699z"/>
 </g>
 <path d="m360.64 337.02h-39.359c-5.625 0-10.82-3-13.633-7.875-2.8125-4.8711-2.8125-10.871 0-15.742s8.0078-7.8711 13.633-7.8711h39.359c4.3477 0 7.875-3.5234 7.875-7.8711 0-4.3477-3.5273-7.875-7.875-7.875h-15.742c-14.062 0-27.055-7.5-34.086-19.68-7.0312-12.176-7.0312-27.18 0-39.359s20.023-19.68 34.086-19.68h39.359c5.625 0 10.824 3 13.637 7.8711s2.8125 10.875 0 15.746-8.0117 7.8711-13.637 7.8711h-39.359c-4.3477 0-7.8711 3.5234-7.8711 7.8711 0 4.3477 3.5234 7.8711 7.8711 7.8711h15.742c14.062 0 27.059 7.5039 34.09 19.68 7.0312 12.18 7.0312 27.184 0 39.363-7.0312 12.176-20.027 19.68-34.09 19.68z"/>
 <path d="m352.77 242.56c-4.1758 0-8.1797-1.6602-11.133-4.6133-2.9531-2.9531-4.6094-6.957-4.6094-11.133v-15.742c0-5.625 3-10.824 7.8711-13.637 4.8711-2.8125 10.871-2.8125 15.742 0 4.8711 2.8125 7.875 8.0117 7.875 13.637v15.742c0 4.1758-1.6602 8.1797-4.6133 11.133-2.9531 2.9531-6.957 4.6133-11.133 4.6133z"/>
 <path d="m352.77 352.77c-4.1758 0-8.1797-1.6562-11.133-4.6094-2.9531-2.9531-4.6094-6.957-4.6094-11.133v-15.746c0-5.625 3-10.82 7.8711-13.633 4.8711-2.8125 10.871-2.8125 15.742 0 4.8711 2.8125 7.875 8.0078 7.875 13.633v15.746c0 4.1758-1.6602 8.1797-4.6133 11.133-2.9531 2.9531-6.957 4.6094-11.133 4.6094z"/>
</svg>