<?xml version="1.0" encoding="UTF-8"?>
<!-- The Best Svg Icon site in the world: iconSvg.co, Visit us! https://iconsvg.co -->
<svg fill="#000000" width="800px" height="800px" version="1.1" viewBox="144 144 512 512" xmlns="http://www.w3.org/2000/svg">
 <path d="m583.5 456.19h-19v-56.164c0-0.011719 0.003906-0.019532 0.003906-0.03125v-59.676c0-0.89844-0.35938-1.7578-0.99219-2.3945-0.62891-0.63672-1.4922-0.99219-2.3945-0.99219h-22.375c-9.6523 0-17.508-7.8477-17.508-17.504 0-9.6523 7.8555-17.504 17.508-17.504h22.375c1.8672 0 3.3867-1.5156 3.3867-3.3789v-59.68c0-1.8672-1.5156-3.3789-3.3867-3.3789h-56.289v-19c0-13.387-10.887-24.273-24.273-24.273-13.383 0-24.262 10.887-24.262 24.273v19h-56.293-0.023438-59.652c-1.8672 0-3.3789 1.5117-3.3789 3.3789v22.379c0 9.6523-7.8555 17.508-17.508 17.508s-17.504-7.8555-17.504-17.508v-22.379c0-1.8672-1.5156-3.3789-3.3867-3.3789h-59.676c-1.8672 0-3.3789 1.5117-3.3789 3.3789v56.289h-19c-13.383 0-24.27 10.891-24.27 24.27 0 13.383 10.887 24.27 24.27 24.27h19v112.58h-19c-13.383 0-24.27 10.887-24.27 24.27 0 13.387 10.887 24.27 24.27 24.27h19v56.297c0 1.8633 1.5117 3.3789 3.3789 3.3789h56.297v19c0 13.383 10.891 24.27 24.27 24.27 13.387 0 24.27-10.887 24.27-24.27v-19h56.297c0.27344 0 0.52734-0.039063 0.78516-0.10156h55.504v18.992c0 13.387 10.887 24.27 24.27 24.27 13.387 0 24.27-10.883 24.27-24.27v-18.992h56.297c1.8633 0 3.3789-1.5156 3.3789-3.3867v-56.289h19c13.375 0 24.262-10.887 24.262-24.273 0-13.359-10.891-24.246-24.27-24.246zm-180.12-213.94h56.289c1.8672 0 3.3867-1.5156 3.3867-3.3789v-22.375c0-9.6562 7.8477-17.508 17.504-17.508s17.508 7.8555 17.508 17.508v22.375c0 1.8672 1.5234 3.3789 3.3867 3.3789h56.297v52.91h-19c-13.383 0-24.27 10.891-24.27 24.27 0 6.4844 2.5234 12.574 7.1094 17.16 4.5859 4.5859 10.676 7.1094 17.16 7.1094h19v52.809h-52.91v-18.898c0-0.41797-0.011719-0.83594-0.035156-1.2539-0.60938-12.848-11.238-23.113-24.242-23.113-13.383 0-24.27 10.891-24.27 24.273v19h-52.906v-56.195c0-1.8672-1.5156-3.3789-3.3789-3.3789h-22.379c-9.6562 0-17.508-7.8555-17.508-17.504 0-6.6367 3.7148-12.418 9.168-15.387 2.4805-1.3516 5.3203-2.1094 8.3398-2.1094h22.379c0.46875 0 0.91016-0.097656 1.3203-0.26562 1.2148-0.51953 2.0664-1.7188 2.0664-3.1172l-0.003906-56.309zm-186.89 94.688c-9.6523 0-17.504-7.8555-17.504-17.504 0-9.6484 7.8555-17.504 17.504-17.504h22.375c1.8672 0 3.3867-1.5156 3.3867-3.3789v-56.297h52.91v19c0 13.383 10.891 24.27 24.27 24.27 13.387 0 24.27-10.887 24.27-24.27v-19h52.91v52.91h-18.992c-3.5625 0-6.9375 0.77734-9.9922 2.1602-8.4141 3.8125-14.281 12.289-14.281 22.113 0 13.383 10.887 24.27 24.27 24.27h19v52.91h-56.297c-1.8672 0-3.3789 1.5156-3.3789 3.3789v22.379c0 9.6484-7.8555 17.504-17.508 17.504-9.6523 0-17.504-7.8555-17.504-17.504l-0.003906-22.375c0-1.8672-1.5156-3.3789-3.3867-3.3789h-56.289v-56.297c0-1.8672-1.5156-3.3789-3.3867-3.3789l-22.371-0.003906zm123.83 220.8c-1.8672 0-3.3789 1.5156-3.3789 3.3867v22.379c0 9.6523-7.8555 17.504-17.508 17.504-9.6523 0-17.504-7.8477-17.504-17.504v-22.379c0-1.8672-1.5156-3.3867-3.3867-3.3867h-56.289v-56.289c0-1.8672-1.5156-3.3867-3.3867-3.3867h-22.375c-9.6523 0-17.504-7.8555-17.504-17.508 0-9.6523 7.8555-17.508 17.504-17.508h22.375c1.8672 0 3.3867-1.5156 3.3867-3.3789v-56.297h52.91v19c0 13.375 10.891 24.262 24.27 24.262 13.387 0 24.27-10.887 24.27-24.262v-19h52.91v52.809h-19c-13.387 0-24.27 10.887-24.27 24.262v0.050781 0.054688c0 13.387 10.887 24.27 24.27 24.27h19v52.91l-56.293 0.003906zm243.18-59.773h-22.379c-1.8672 0-3.3867 1.5156-3.3867 3.3867v56.297h-56.289c-1.8672 0-3.3867 1.5156-3.3867 3.3789v22.375c0 9.6562-7.8555 17.508-17.508 17.508-9.6523 0-17.508-7.8477-17.508-17.508v-22.375c0-1.8633-1.5156-3.3789-3.3789-3.3789h-56.289v-56.297c0-1.8672-1.5156-3.3867-3.3867-3.3867h-22.379c-9.6367 0-17.473-7.8242-17.504-17.457 0.03125-9.6211 7.8711-17.453 17.504-17.453h22.379c1.8672 0 3.3867-1.5156 3.3867-3.3789v-56.297h56.289c1.8672 0 3.3867-1.5156 3.3867-3.3867v-22.379c0-9.6523 7.8477-17.504 17.504-17.504 9.6328 0 17.473 7.8242 17.508 17.445v22.34 0.03125 0.070313c0 1.8672 1.5234 3.3867 3.3867 3.3867h56.289v56.195c0 1.8633 1.5156 3.3789 3.3867 3.3789h22.379c9.6484 0 17.504 7.8555 17.504 17.504-0.003906 9.6484-7.8594 17.504-17.508 17.504z"/>
</svg>