<?xml version="1.0" encoding="UTF-8"?>
<!-- The Best Svg Icon site in the world: iconSvg.co, Visit us! https://iconsvg.co -->
<svg width="800px" height="800px" version="1.1" viewBox="144 144 512 512" xmlns="http://www.w3.org/2000/svg">
 <defs>
  <clipPath id="a">
   <path d="m148.09 274h503.81v300h-503.81z"/>
  </clipPath>
 </defs>
 <g clip-path="url(#a)">
  <path d="m612.54 274.05h-425.09c-10.438 0-20.449 4.1445-27.832 11.527-7.3789 7.3828-11.527 17.395-11.527 27.832v220.42c0 10.438 4.1484 20.449 11.527 27.832 7.3828 7.3789 17.395 11.527 27.832 11.527h425.09c10.438 0 20.449-4.1484 27.832-11.527 7.3828-7.3828 11.527-17.395 11.527-27.832v-220.42c0-10.438-4.1445-20.449-11.527-27.832-7.3828-7.3828-17.395-11.527-27.832-11.527zm-448.71 39.359c0-6.2617 2.4883-12.27 6.918-16.699 4.4297-4.4297 10.438-6.918 16.699-6.918h31.223c5.2383 6.7617 8.1016 15.062 8.1367 23.617 0 10.438-4.1445 20.449-11.527 27.832-7.3828 7.3828-17.391 11.527-27.832 11.527-8.5547-0.035156-16.855-2.8984-23.617-8.1406zm54.84 244.03h-31.223c-6.2617 0-12.27-2.4883-16.699-6.9141-4.4297-4.4297-6.918-10.438-6.918-16.699v-31.223c6.7617-5.2383 15.062-8.1016 23.617-8.1406 10.441 0 20.449 4.1484 27.832 11.531 7.3828 7.3789 11.527 17.391 11.527 27.832-0.035156 8.5508-2.8984 16.855-8.1367 23.613zm417.48-23.613c0 6.2617-2.4883 12.27-6.918 16.699-4.4297 4.4258-10.438 6.9141-16.699 6.9141h-31.219c-5.2422-6.7578-8.1055-15.062-8.1406-23.613 0-10.441 4.1445-20.453 11.527-27.832 7.3828-7.3828 17.395-11.531 27.832-11.531 8.5547 0.039062 16.855 2.9023 23.617 8.1406zm0-49.516c-7.3516-3.6133-15.426-5.5234-23.617-5.5898-14.613 0-28.629 5.8047-38.965 16.141-10.332 10.332-16.141 24.348-16.141 38.965 0.066406 8.1914 1.9766 16.262 5.5898 23.613h-326.06c3.6133-7.3516 5.5234-15.422 5.5898-23.613 0-14.617-5.8047-28.633-16.141-38.965-10.332-10.336-24.348-16.141-38.965-16.141-8.1914 0.066406-16.262 1.9766-23.617 5.5898v-121.39c7.3555 3.6133 15.426 5.5234 23.617 5.5898 14.617 0 28.633-5.8086 38.965-16.141 10.336-10.336 16.141-24.352 16.141-38.965-0.066406-8.1914-1.9766-16.266-5.5898-23.617h326.06c-3.6133 7.3516-5.5234 15.426-5.5898 23.617 0 14.613 5.8086 28.629 16.141 38.965 10.336 10.332 24.352 16.141 38.965 16.141 8.1914-0.066407 16.266-1.9766 23.617-5.5898zm0-139.68v-0.003906c-6.7617 5.2422-15.062 8.1055-23.617 8.1406-10.438 0-20.449-4.1445-27.832-11.527-7.3828-7.3828-11.527-17.395-11.527-27.832 0.035156-8.5547 2.8984-16.855 8.1406-23.617h31.219c6.2617 0 12.27 2.4883 16.699 6.918 4.4297 4.4297 6.918 10.438 6.918 16.699zm-244.04 39.625h15.746c4.1758 0 8.1797 1.6602 11.133 4.6133 2.9531 2.9531 4.6094 6.957 4.6094 11.133 0 4.3477 3.5273 7.8711 7.875 7.8711 4.3477 0 7.8711-3.5234 7.8711-7.8711 0-8.3516-3.3164-16.363-9.2227-22.266-5.9062-5.9062-13.914-9.2227-22.266-9.2227v-7.875c0-4.3477-3.5234-7.8711-7.8711-7.8711s-7.875 3.5234-7.875 7.8711v7.875c-11.25 0-21.645 6-27.27 15.742-5.625 9.7422-5.625 21.746 0 31.488 5.625 9.7422 16.02 15.746 27.27 15.746h15.746c5.625 0 10.82 3 13.633 7.8711s2.8125 10.871 0 15.742c-2.8125 4.8711-8.0078 7.875-13.633 7.875h-15.746c-4.1758 0-8.1797-1.6602-11.133-4.6133-2.9492-2.9531-4.6094-6.957-4.6094-11.133 0-4.3477-3.5234-7.8711-7.8711-7.8711-4.3477 0-7.875 3.5234-7.875 7.8711 0 8.3516 3.3203 16.359 9.2227 22.266 5.9062 5.9062 13.914 9.2227 22.266 9.2227v7.8711c0 4.3477 3.5273 7.8711 7.875 7.8711s7.8711-3.5234 7.8711-7.8711v-7.8711c11.25 0 21.645-6 27.27-15.742 5.625-9.7461 5.625-21.746 0-31.488-5.625-9.7422-16.02-15.746-27.27-15.746h-15.746c-5.625 0-10.82-3-13.633-7.8711s-2.8125-10.875 0-15.746 8.0078-7.8711 13.633-7.8711zm7.8711-62.977h0.003906c-27.145 0-53.172 10.781-72.363 29.973-19.191 19.195-29.973 45.223-29.973 72.363 0 27.145 10.781 53.172 29.973 72.363 19.191 19.191 45.219 29.973 72.363 29.973 27.141 0 53.168-10.781 72.359-29.973 19.195-19.191 29.977-45.219 29.977-72.363-0.035157-27.129-10.828-53.141-30.012-72.324-19.184-19.184-45.195-29.977-72.324-30.012zm0 188.93h0.003906c-22.969 0-44.992-9.125-61.23-25.363s-25.363-38.262-25.363-61.23c0-22.965 9.125-44.988 25.363-61.23 16.238-16.238 38.262-25.359 61.23-25.359 22.965 0 44.988 9.1211 61.227 25.359 16.242 16.242 25.363 38.266 25.363 61.23-0.023438 22.961-9.1562 44.969-25.391 61.203-16.23 16.234-38.242 25.367-61.199 25.391z"/>
 </g>
</svg>