<?xml version="1.0" encoding="UTF-8"?>
<!-- The Best Svg Icon site in the world: iconSvg.co, Visit us! https://iconsvg.co -->
<svg fill="#000000" width="800px" height="800px" version="1.1" viewBox="144 144 512 512" xmlns="http://www.w3.org/2000/svg">
 <g>
  <path d="m494.46 305.54c0-25.055-9.9492-49.082-27.668-66.797-17.715-17.715-41.742-27.668-66.793-27.668-25.055 0-49.082 9.9531-66.797 27.668-17.715 17.715-27.668 41.742-27.668 66.797 0 25.051 9.9531 49.078 27.668 66.797 17.715 17.715 41.742 27.668 66.797 27.668 25.051 0 49.078-9.9531 66.793-27.668 17.719-17.719 27.668-41.746 27.668-66.797zm-167.93 0c0-19.488 7.7383-38.176 21.52-51.953 13.777-13.777 32.465-21.52 51.953-21.52 19.484 0 38.172 7.7422 51.953 21.52 13.777 13.777 21.52 32.465 21.52 51.953 0 19.484-7.7422 38.172-21.52 51.953-13.781 13.777-32.469 21.52-51.953 21.52-19.488 0-38.176-7.7422-51.953-21.52-13.781-13.781-21.52-32.469-21.52-51.953z"/>
  <path d="m536.45 305.54c0.027344-34.363-12.918-67.469-36.238-92.707-23.32-25.234-55.305-40.742-89.562-43.422-34.258-2.6797-68.266 7.6641-95.23 28.965-26.965 21.301-44.898 51.992-50.219 85.938-5.3203 33.949 2.3633 68.652 21.516 97.184 19.152 28.531 48.363 48.781 81.801 56.711v24.773c-5.7969 0-10.496 4.6992-10.496 10.496v115.45c0 15 8 28.859 20.992 36.359 12.988 7.5 28.992 7.5 41.984 0 12.988-7.5 20.992-21.359 20.992-36.359v-115.45c0-2.7852-1.1094-5.457-3.0742-7.4219-1.9688-1.9688-4.6406-3.0742-7.4219-3.0742v-24.773c29.867-7.082 56.473-24.031 75.52-48.105 19.047-24.074 29.418-53.867 29.438-84.562zm-251.9 0c0-30.621 12.164-59.988 33.816-81.641 21.652-21.652 51.02-33.816 81.641-33.816s59.984 12.164 81.637 33.816c21.652 21.652 33.816 51.02 33.816 81.641s-12.164 59.988-33.816 81.641c-21.652 21.652-51.016 33.816-81.637 33.816s-59.988-12.164-81.641-33.816c-21.652-21.652-33.816-51.02-33.816-81.641zm136.45 283.39c0 7.5-4.0039 14.43-10.496 18.18-6.4961 3.75-14.5 3.75-20.992 0-6.4961-3.75-10.496-10.68-10.496-18.18v-104.96h41.984zm-10.496-125.95h-20.992v-20.992c3.4648 0 6.9258 0.52344 10.496 0.52344s7.0312 0 10.496-0.52344z"/>
  <path d="m410.5 347.52h10.496c2.7812 0 5.4531-1.1055 7.4219-3.0742 1.9648-1.9688 3.0742-4.6406 3.0742-7.4219v-31.488c0-2.7852-1.1094-5.4531-3.0742-7.4219-1.9688-1.9688-4.6406-3.0742-7.4219-3.0742h-31.488v-10.496h31.488c5.7969 0 10.496-4.6992 10.496-10.496s-4.6992-10.496-10.496-10.496h-10.496c0-5.7969-4.6992-10.496-10.496-10.496s-10.496 4.6992-10.496 10.496h-10.496c-5.7969 0-10.496 4.6992-10.496 10.496v31.488c0 2.7812 1.1055 5.4531 3.0742 7.4219s4.6367 3.0742 7.4219 3.0742h31.488v10.496h-31.488c-5.7969 0-10.496 4.6992-10.496 10.496 0 5.7969 4.6992 10.496 10.496 10.496h10.496c0 5.7969 4.6992 10.496 10.496 10.496s10.496-4.6992 10.496-10.496z"/>
 </g>
</svg>