<?xml version="1.0" encoding="UTF-8"?>
<!-- The Best Svg Icon site in the world: iconSvg.co, Visit us! https://iconsvg.co -->
<svg fill="#000000" width="800px" height="800px" version="1.1" viewBox="144 144 512 512" xmlns="http://www.w3.org/2000/svg">
 <g>
  <path d="m490.64 302.82c-35.719 0-65.66 24.898-73.578 58.234-4.6602-3.6719-10.508-5.8828-16.879-5.8828-6.3828 0-12.242 2.2227-16.902 5.9141-7.8984-33.352-37.855-58.266-73.582-58.266-41.734 0-75.691 33.957-75.691 75.691s33.957 75.691 75.691 75.691c39.836 0 72.508-30.953 75.406-70.066 0.10938-0.46875 0.28906-0.91016 0.28906-1.4102 0-8.2539 6.6367-14.965 14.801-14.965 8.168 0 14.812 6.7148 14.812 14.965 0 0.37109 0.15234 0.69922 0.21094 1.0547 2.7266 39.277 35.469 70.422 75.426 70.422 41.734 0 75.691-33.957 75.691-75.691s-33.961-75.691-75.695-75.691zm-180.94 138.79c-34.793 0-63.098-28.305-63.098-63.098s28.305-63.098 63.098-63.098c34.789 0 63.094 28.305 63.094 63.098-0.003906 34.793-28.309 63.098-63.094 63.098zm180.94 0c-34.789 0-63.094-28.305-63.094-63.098s28.305-63.098 63.094-63.098c34.793 0 63.098 28.305 63.098 63.098s-28.305 63.098-63.098 63.098z"/>
  <path d="m511.45 467.42c-2.5234-0.87109-5.3438-0.058594-7.0117 2.0391-0.12109 0.16016-13.055 15.93-28.863 15.93-11.375 0-17.637-3.4883-23.941-13.316l-1.6172-2.5586c-6.7148-10.672-14.328-22.766-32.816-22.766-5.8633 0-11.672 1.5508-17.023 4.5156-5.3516-2.9609-11.168-4.5156-17.035-4.5156-18.949 0-26.957 13.105-33.391 23.629l-1.0977 1.7852c-5.4062 8.7773-13.441 13.227-23.875 13.227-15.941 0-28.754-15.781-28.863-15.93-1.668-2.1016-4.4883-2.9102-7.0117-2.0391-2.5273 0.88281-4.2266 3.2656-4.2266 5.9492 0 35.207 31.75 62.785 72.281 62.785 17.77 0 32.277-4.5742 43.223-13.617 10.934 9.0391 25.438 13.617 43.211 13.617 40.535 0 72.285-27.578 72.285-62.785 0-2.6797-1.6953-5.0664-4.2266-5.9492zm-68.059 56.141c-16.797 0-29.801-4.6953-38.656-13.961-1.1836-1.2461-2.832-1.9453-4.543-1.9453h-0.003906c-1.7188 0-3.3594 0.69922-4.543 1.9414-8.8789 9.2656-21.891 13.961-38.684 13.961-26.43 0-48.336-13.75-56.383-33.387 6.4844 4.207 14.793 7.8125 24.207 7.8125 14.676 0 26.969-6.8203 34.602-19.211l1.1172-1.8242c6.8711-11.238 11.309-17.602 22.645-17.602 4.6719 0 9.1797 1.5117 13.406 4.4922 2.1914 1.543 5.0977 1.5312 7.2656-0.003907 4.1523-2.9375 8.7773-4.4883 13.383-4.4883 11.004 0 15.371 6.0977 22.152 16.879l1.6719 2.6445c8.7109 13.578 18.715 19.113 34.547 19.113 9.4102 0 17.719-3.6055 24.199-7.8086-8.043 19.641-29.953 33.387-56.383 33.387z"/>
  <path d="m309.7 354.63c6.1875 0 11.215 3.9453 11.215 8.793 0 3.4766 2.8203 6.2969 6.2969 6.2969 3.4766 0 6.2969-2.8203 6.2969-6.2969 0-9.8242-7.4531-18.031-17.512-20.531v-3.4375c0-3.4766-2.8203-6.2969-6.2969-6.2969-3.4766 0-6.2969 2.8203-6.2969 6.2969v3.293c-11.949 2.6719-17.508 12.836-17.508 22.426 0 1.9688 0.92188 3.8242 2.4883 5.0195l32.168 24.418c-1.2148 4.6445-5.4102 7.7852-10.852 7.7852-6.1836 0-11.211-3.9453-11.211-8.7969 0-3.4766-2.8203-6.2969-6.2969-6.2969-3.4766 0-6.2969 2.8203-6.2969 6.2969 0 9.8242 7.4531 18.035 17.508 20.535v3.4375c0 3.4766 2.8203 6.2969 6.2969 6.2969 3.4766 0 6.2969-2.8203 6.2969-6.2969v-3.4727c10.176-2.6445 17.512-11.461 17.512-22.344 0-1.9688-0.92187-3.8242-2.4883-5.0195l-32.199-24.445c0.76563-3.2812 3.2266-7.6602 10.879-7.6602z"/>
  <path d="m490.64 354.63c6.1875 0 11.215 3.9453 11.215 8.793 0 3.4766 2.8203 6.2969 6.2969 6.2969s6.2969-2.8203 6.2969-6.2969c0-9.8242-7.4531-18.031-17.512-20.531v-3.4375c0-3.4766-2.8203-6.2969-6.2969-6.2969-3.4766 0-6.2969 2.8203-6.2969 6.2969v3.293c-11.949 2.6719-17.508 12.836-17.508 22.426 0 1.9688 0.92188 3.8242 2.4883 5.0195l32.168 24.418c-1.2148 4.6445-5.4102 7.7852-10.852 7.7852-6.1836 0-11.211-3.9453-11.211-8.7969 0-3.4766-2.8203-6.2969-6.2969-6.2969-3.4766 0-6.2969 2.8203-6.2969 6.2969 0 9.8242 7.4531 18.035 17.508 20.535v3.4375c0 3.4766 2.8203 6.2969 6.2969 6.2969 3.4766 0 6.2969-2.8203 6.2969-6.2969v-3.4727c10.176-2.6445 17.512-11.461 17.512-22.344 0-1.9688-0.92188-3.8242-2.4883-5.0195l-32.199-24.445c0.76172-3.2812 3.2266-7.6602 10.879-7.6602z"/>
 </g>
</svg>