<?xml version="1.0" encoding="UTF-8"?>
<!-- The Best Svg Icon site in the world: iconSvg.co, Visit us! https://iconsvg.co -->
<svg fill="#000000" width="800px" height="800px" version="1.1" viewBox="144 144 512 512" xmlns="http://www.w3.org/2000/svg">
 <g>
  <path d="m557.44 195.32h-23.617c-4.3477 0-7.8711 3.5234-7.8711 7.8711 0 4.3477 3.5234 7.8711 7.8711 7.8711h23.617v409.34l-314.88 0.003906v-409.34h23.617c4.3477 0 7.8711-3.5234 7.8711-7.8711 0-4.3477-3.5234-7.8711-7.8711-7.8711h-23.617c-8.6836 0-15.742 7.0625-15.742 15.742v409.34c0 8.6836 7.0625 15.742 15.742 15.742h314.88c8.6836 0 15.742-7.0625 15.742-15.742v-409.34c0-8.6836-7.0625-15.746-15.746-15.746z"/>
  <path d="m297.66 242.56h204.67c4.3477 0 7.8711-3.5234 7.8711-7.8711v-62.977c0-4.3477-3.5234-7.8711-7.8711-7.8711l-204.67-0.003906c-4.3477 0-7.8711 3.5234-7.8711 7.8711v62.977c-0.003907 4.3516 3.5234 7.875 7.8711 7.875zm7.8711-62.977h188.93v47.23h-188.93z"/>
  <path d="m447.23 573.18c39.062 0 70.848-31.785 70.848-70.848s-31.785-70.848-70.848-70.848c-4.3477 0-7.8711 3.5234-7.8711 7.8711v39.359c0 4.3477 3.5234 7.8711 7.8711 7.8711 4.3477 0 7.8711-3.5234 7.8711-7.8711v-30.926c26.668 3.832 47.234 26.828 47.234 54.543 0 30.387-24.719 55.105-55.105 55.105-27.715 0-50.711-20.562-54.543-47.23l38.801-0.003907c4.3477 0 7.8711-3.5234 7.8711-7.8711 0-4.3477-3.5234-7.8711-7.8711-7.8711h-47.23c-4.3477 0-7.8711 3.5234-7.8711 7.8711-0.003907 39.062 31.781 70.848 70.844 70.848z"/>
  <path d="m289.79 431.49v31.488c0 4.3477 3.5234 7.8711 7.8711 7.8711s7.8711-3.5234 7.8711-7.8711v-31.488c0-4.3477-3.5234-7.8711-7.8711-7.8711-4.3438-0.003907-7.8711 3.5234-7.8711 7.8711z"/>
  <path d="m337.02 400v62.977c0 4.3477 3.5234 7.8711 7.8711 7.8711 4.3477 0 7.8711-3.5234 7.8711-7.8711v-62.977c0-4.3477-3.5234-7.8711-7.8711-7.8711-4.3477-0.003906-7.8711 3.5234-7.8711 7.8711z"/>
  <path d="m384.25 368.51v94.465c0 4.3477 3.5234 7.8711 7.8711 7.8711s7.8711-3.5234 7.8711-7.8711l0.003906-94.465c0-4.3477-3.5234-7.8711-7.8711-7.8711-4.3516-0.003906-7.875 3.5234-7.875 7.8711z"/>
  <path d="m357.28 359.21 78.719-55.105c3.5625-2.4961 4.4297-7.4023 1.9375-10.961-2.4961-3.5664-7.3945-4.4258-10.961-1.9375l-75.477 52.832-19.855-6.6172c-2.1172-0.69531-4.4453-0.47656-6.3945 0.63281l-55.105 31.488c-3.7734 2.1562-5.0859 6.9648-2.9297 10.738 1.4531 2.5469 4.1094 3.9688 6.8438 3.9688 1.3203 0 2.668-0.33594 3.8984-1.0391l52.047-29.742 20.277 6.7617c2.375 0.79297 4.9648 0.41406 7-1.0195z"/>
 </g>
</svg>