<?xml version="1.0" encoding="UTF-8"?>
<!-- The Best Svg Icon site in the world: iconSvg.co, Visit us! https://iconsvg.co -->
<svg fill="#000000" width="800px" height="800px" version="1.1" viewBox="144 144 512 512" xmlns="http://www.w3.org/2000/svg">
 <g>
  <path d="m392.12 329.15h15.746c2.0859 0 4.0898 0.83203 5.5664 2.3086 1.4766 1.4766 2.3047 3.4766 2.3047 5.5664 0 4.3477 3.5234 7.8711 7.8711 7.8711 4.3477 0 7.875-3.5234 7.875-7.8711 0-6.2656-2.4883-12.27-6.918-16.699-4.4297-4.4297-10.438-6.918-16.699-6.918v-7.8711c0-4.3477-3.5234-7.8711-7.8711-7.8711s-7.875 3.5234-7.875 7.8711v7.8711c-8.4375 0-16.23 4.5-20.449 11.809-4.2188 7.3047-4.2188 16.309 0 23.617 4.2188 7.3047 12.012 11.805 20.449 11.805h15.746c4.3477 0 7.8711 3.5273 7.8711 7.875 0 4.3477-3.5234 7.8711-7.8711 7.8711h-15.746c-4.3477 0-7.8711-3.5234-7.8711-7.8711 0-4.3477-3.5234-7.875-7.8711-7.875-4.3477 0-7.8711 3.5273-7.8711 7.875 0 6.2617 2.4883 12.27 6.9141 16.699 4.4297 4.4258 10.438 6.9141 16.699 6.9141v7.875c0 4.3477 3.5273 7.8711 7.875 7.8711s7.8711-3.5234 7.8711-7.8711v-7.875c8.4375 0 16.234-4.5 20.453-11.805 4.2188-7.3086 4.2188-16.312 0-23.617-4.2188-7.3086-12.016-11.809-20.453-11.809h-15.746c-4.3477 0-7.8711-3.5234-7.8711-7.8711 0-4.3477 3.5234-7.875 7.8711-7.875z"/>
  <path d="m400 274.05c-20.879 0-40.902 8.293-55.664 23.055-14.766 14.766-23.059 34.785-23.059 55.664s8.293 40.902 23.059 55.664c14.762 14.762 34.785 23.059 55.664 23.059 20.875 0 40.898-8.2969 55.664-23.059 14.762-14.762 23.055-34.785 23.055-55.664-0.023438-20.871-8.3242-40.879-23.082-55.637-14.758-14.758-34.766-23.059-55.637-23.082zm0 141.7c-16.703 0-32.723-6.6328-44.531-18.445-11.812-11.809-18.445-27.828-18.445-44.531s6.6328-32.719 18.445-44.531c11.809-11.809 27.828-18.445 44.531-18.445 16.699 0 32.719 6.6367 44.531 18.445 11.809 11.812 18.445 27.828 18.445 44.531-0.019531 16.699-6.6602 32.703-18.469 44.512-11.805 11.805-27.812 18.445-44.508 18.465z"/>
  <path d="m549.57 344.89h-31.488c-4.3477 0-7.8711 3.5234-7.8711 7.8711s3.5234 7.8711 7.8711 7.8711h31.488c4.3477 0 7.8711-3.5234 7.8711-7.8711s-3.5234-7.8711-7.8711-7.8711z"/>
  <path d="m281.92 344.89h-31.488c-4.3477 0-7.8711 3.5234-7.8711 7.8711s3.5234 7.8711 7.8711 7.8711h31.488c4.3477 0 7.8711-3.5234 7.8711-7.8711s-3.5234-7.8711-7.8711-7.8711z"/>
  <path d="m636.16 470.85v-299.14c0-2.0898-0.83203-4.0898-2.3047-5.5664-1.4766-1.4766-3.4805-2.3086-5.5664-2.3086h-456.58c-4.3477 0-7.875 3.5273-7.875 7.875v299.14c0 2.0859 0.83203 4.0898 2.3086 5.5664 1.4766 1.4766 3.4766 2.3047 5.5664 2.3047h236.63l-5.9023 15.742h-26.059c-3.2891 0.007812-6.2344 2.043-7.3984 5.1172l-21.648 57.859h-26.059c-3.2891 0.007812-6.2344 2.043-7.3984 5.1172l-23.617 62.977c-0.89062 2.4219-0.53906 5.1289 0.94531 7.2422 1.4531 2.1367 3.875 3.4062 6.457 3.3867h330.62c2.5781 0.019532 5-1.25 6.4531-3.3867 1.4844-2.1133 1.8359-4.8203 0.94531-7.2422l-23.617-62.977c-1.1641-3.0742-4.1094-5.1094-7.3984-5.1172h-26.059l-21.648-57.859c-1.1641-3.0742-4.1094-5.1094-7.3984-5.1172h-26.055l-5.9023-15.742h110.68c2.0859 0 4.0898-0.82812 5.5664-2.3047 1.4727-1.4766 2.3047-3.4805 2.3047-5.5664zm-254.35 39.359h52.113l17.711 47.23h-87.535zm55.105-62.977h52.113l17.711 47.23h-87.535zm-203.02-7.8711c-1.5508-7.5625-5.2891-14.5-10.746-19.957-5.457-5.457-12.395-9.1914-19.953-10.746v-111.78c7.5586-1.5508 14.496-5.2891 19.953-10.746 5.457-5.457 9.1953-12.395 10.746-19.953h332.2c1.5547 7.5586 5.2891 14.496 10.746 19.953 5.457 5.457 12.395 9.1953 19.957 10.746v111.78c-7.5625 1.5547-14.5 5.2891-19.957 10.746-5.457 5.457-9.1914 12.395-10.746 19.957h-63.211l-1.0234-2.7539v-0.003907c-1.168-3.0742-4.1094-5.1094-7.4023-5.1133h-62.973c-3.2891 0.003907-6.2344 2.0391-7.4023 5.1133l-1.0234 2.7539zm241.36 70.848-12.277 32.668-12.281-32.668zm-166.26 110.21 17.711-47.23h52.113l17.711 47.23zm86.594-47.23h24.562l-12.281 32.668zm23.617 47.23 17.711-47.23h52.113l17.711 47.23zm86.594-47.23h24.562l-12.285 32.668zm93.441 0 17.711 47.23h-87.539l17.711-47.23zm-55.105-62.977 17.711 47.23h-87.539l17.711-47.23zm76.277-47.23h-108.71l-2.9141-7.8711 64.395-0.003907c2.0859 0 4.0898-0.82812 5.5664-2.3047s2.3047-3.4766 2.3047-5.5664c0.019531-6.2578 2.5117-12.254 6.9375-16.68 4.4258-4.4219 10.422-6.918 16.68-6.9375 2.0859 0 4.0898-0.82812 5.5664-2.3047 1.4766-1.4766 2.3047-3.4766 2.3047-5.5664v-125.95c0-2.0859-0.82812-4.0898-2.3047-5.5664-1.4766-1.4766-3.4805-2.3047-5.5664-2.3047-6.2578-0.019531-12.254-2.5117-16.68-6.9375-4.4258-4.4258-6.918-10.422-6.9375-16.68 0-2.0859-0.82813-4.0898-2.3047-5.5664s-3.4805-2.3047-5.5664-2.3047h-346.37c-4.3477 0-7.8711 3.5234-7.8711 7.8711-0.019531 6.2578-2.5117 12.254-6.9375 16.68-4.4258 4.4258-10.422 6.918-16.68 6.9375-4.3477 0-7.8711 3.5234-7.8711 7.8711v125.95c0 2.0898 0.83203 4.0898 2.3047 5.5664 1.4766 1.4766 3.4805 2.3047 5.5664 2.3047 6.2578 0.019531 12.254 2.5156 16.68 6.9375 4.4258 4.4258 6.918 10.422 6.9375 16.68 0 2.0898 0.82812 4.0898 2.3047 5.5664 1.4766 1.4766 3.4805 2.3047 5.5664 2.3047h190.35l-2.9141 7.8711-234.66 0.003906v-220.42h440.83zm0-236.16-440.83-0.003906v-15.742h440.83zm0-31.488-440.83-0.003906v-15.742h440.83z"/>
 </g>
</svg>