<?xml version="1.0" encoding="UTF-8"?>
<!-- The Best Svg Icon site in the world: iconSvg.co, Visit us! https://iconsvg.co -->
<svg fill="#000000" width="800px" height="800px" version="1.1" viewBox="144 144 512 512" xmlns="http://www.w3.org/2000/svg">
 <g>
  <path d="m612.54 368.51v-181.06c0-6.2617-2.4883-12.27-6.918-16.699-4.4258-4.4297-10.434-6.918-16.699-6.918h-196.8c-6.2617 0-12.27 2.4883-16.699 6.918-4.4258 4.4297-6.9141 10.438-6.9141 16.699h-157.44c-6.2656 0-12.27 2.4883-16.699 6.918-4.4297 4.4297-6.918 10.434-6.918 16.699v102.34c-6.2617 0-12.27 2.4883-16.699 6.918-4.4297 4.4297-6.918 10.434-6.918 16.699v275.52c0 6.2617 2.4883 12.27 6.918 16.699 4.4297 4.4297 10.438 6.918 16.699 6.918h425.09c6.2617 0 12.27-2.4883 16.699-6.918 4.4297-4.4297 6.918-10.438 6.918-16.699v-220.42c0-6.2617-2.4883-12.27-6.918-16.699-4.4297-4.4258-10.438-6.9141-16.699-6.9141zm-228.29-181.06c0-4.3477 3.5234-7.8711 7.8711-7.8711h196.8c2.0898 0 4.0898 0.82812 5.5664 2.3047 1.4766 1.4766 2.3086 3.4805 2.3086 5.5664v181.06h-39.363v-125.95c0-6.2656-2.4883-12.27-6.9141-16.699-4.4297-4.4297-10.438-6.918-16.699-6.918h-149.57zm-55.105 181.06c-4.3477 0-7.8711-3.5273-7.8711-7.875v-23.613c0-6.2656-2.4883-12.27-6.918-16.699-4.4258-4.4297-10.434-6.918-16.695-6.918h-7.875v-70.848c0-4.3477 3.5273-7.8711 7.875-7.8711h236.16c2.0859 0 4.0898 0.82812 5.5664 2.3047 1.4766 1.4766 2.3047 3.4766 2.3047 5.5664v125.95zm-125.95-157.44c0-4.3477 3.5234-7.8711 7.8711-7.8711h157.44v15.742h-70.848c-6.2656 0-12.273 2.4883-16.699 6.918-4.4297 4.4297-6.918 10.434-6.918 16.699v70.848h-70.848zm417.21 401.47c0 2.0898-0.82812 4.0898-2.3047 5.5664s-3.4766 2.3047-5.5664 2.3047h-425.09c-4.3477 0-7.8711-3.5234-7.8711-7.8711v-275.52c0-4.3477 3.5234-7.875 7.8711-7.875h110.21c2.0859 0 4.0898 0.83203 5.5664 2.3086 1.4727 1.4766 2.3047 3.4766 2.3047 5.5664v23.617-0.003906c0 6.2656 2.4883 12.273 6.918 16.699 4.4258 4.4297 10.434 6.918 16.695 6.918h283.39c2.0898 0 4.0898 0.82812 5.5664 2.3047 1.4766 1.4766 2.3047 3.4805 2.3047 5.5664z"/>
  <path d="m423.61 266.18h-94.465c-4.3477 0-7.8711 3.5234-7.8711 7.8711s3.5234 7.8711 7.8711 7.8711h94.465c4.3477 0 7.875-3.5234 7.875-7.8711s-3.5273-7.8711-7.875-7.8711z"/>
  <path d="m423.61 297.66h-94.465c-4.3477 0-7.8711 3.5234-7.8711 7.8711s3.5234 7.8711 7.8711 7.8711h94.465c4.3477 0 7.875-3.5234 7.875-7.8711s-3.5273-7.8711-7.875-7.8711z"/>
  <path d="m329.15 344.89h94.465c4.3477 0 7.875-3.5234 7.875-7.8711 0-4.3477-3.5273-7.875-7.875-7.875h-94.465c-4.3477 0-7.8711 3.5273-7.8711 7.875 0 4.3477 3.5234 7.8711 7.8711 7.8711z"/>
  <path d="m504.64 268.48-55.105 55.105h0.003906c-1.5195 1.4648-2.3867 3.4805-2.4062 5.5938-0.015624 2.1094 0.8125 4.1406 2.3086 5.6328 1.4922 1.4922 3.5234 2.3242 5.6328 2.3047 2.1133-0.015626 4.1289-0.88281 5.5938-2.4023l55.105-55.105v0.003906c2.9805-3.0898 2.9414-8-0.097657-11.035-3.0352-3.0391-7.9453-3.082-11.035-0.097656z"/>
  <path d="m518.08 321.28c0 8.6953-7.0469 15.746-15.742 15.746-8.6953 0-15.746-7.0508-15.746-15.746 0-8.6953 7.0508-15.742 15.746-15.742 8.6953 0 15.742 7.0469 15.742 15.742"/>
  <path d="m478.72 281.92c0 8.6953-7.0508 15.746-15.742 15.746-8.6953 0-15.746-7.0508-15.746-15.746 0-8.6953 7.0508-15.742 15.746-15.742 8.6914 0 15.742 7.0469 15.742 15.742"/>
  <path d="m400 462.98c4.1758 0 8.1797 1.6562 11.133 4.6094 2.9492 2.9531 4.6094 6.957 4.6094 11.133 0 4.3477 3.5234 7.8711 7.8711 7.8711 4.3477 0 7.875-3.5234 7.875-7.8711-0.027343-6.9609-2.3594-13.715-6.6328-19.211-4.2734-5.4961-10.246-9.418-16.984-11.16v-8.9883c0-4.3477-3.5234-7.8711-7.8711-7.8711s-7.875 3.5234-7.875 7.8711v8.9883c-9.9688 2.5664-18.047 9.8516-21.629 19.504-3.582 9.6523-2.207 20.445 3.6758 28.891 5.8867 8.4492 15.531 13.477 25.828 13.465 4.1758 0 8.1797 1.6602 11.133 4.6094 2.9492 2.9531 4.6094 6.957 4.6094 11.133s-1.6602 8.1836-4.6094 11.133c-2.9531 2.9531-6.957 4.6133-11.133 4.6133s-8.1797-1.6602-11.133-4.6133c-2.9531-2.9492-4.6133-6.957-4.6133-11.133 0-4.3477-3.5234-7.8711-7.8711-7.8711-4.3477 0-7.8711 3.5234-7.8711 7.8711 0.023437 6.9609 2.3555 13.719 6.6289 19.211 4.2734 5.4961 10.246 9.4219 16.984 11.16v8.9922c0 4.3477 3.5273 7.8711 7.875 7.8711s7.8711-3.5234 7.8711-7.8711v-8.9922c9.9688-2.5664 18.051-9.8516 21.629-19.504 3.582-9.6484 2.207-20.441-3.6758-28.891-5.8828-8.4453-15.531-13.477-25.824-13.465-5.625 0-10.824-3-13.637-7.8711s-2.8125-10.871 0-15.742 8.0117-7.8711 13.637-7.8711z"/>
  <path d="m400 400c-27.145 0-53.172 10.781-72.363 29.973-19.191 19.191-29.973 45.223-29.973 72.363 0 27.141 10.781 53.168 29.973 72.363 19.191 19.191 45.219 29.973 72.363 29.973 27.141 0 53.168-10.781 72.359-29.973 19.195-19.195 29.977-45.223 29.977-72.363-0.03125-27.133-10.824-53.145-30.008-72.328-19.188-19.188-45.199-29.977-72.328-30.008zm0 188.93v-0.003907c-22.969 0-44.992-9.1211-61.23-25.359-16.238-16.242-25.363-38.266-25.363-61.23 0-22.969 9.125-44.992 25.363-61.23s38.262-25.363 61.23-25.363c22.965 0 44.988 9.125 61.227 25.363 16.242 16.238 25.363 38.262 25.363 61.23-0.027344 22.957-9.1562 44.965-25.391 61.199s-38.242 25.363-61.199 25.391z"/>
 </g>
</svg>