<?xml version="1.0" encoding="UTF-8"?>
<!-- The Best Svg Icon site in the world: iconSvg.co, Visit us! https://iconsvg.co -->
<svg fill="#000000" width="800px" height="800px" version="1.1" viewBox="144 144 512 512" xmlns="http://www.w3.org/2000/svg">
 <g>
  <path d="m442.64 308.16v-31.16c0-5.4336-4.4062-9.8398-9.8398-9.8398h-75.441c-5.4336 0-9.8398 4.4062-9.8398 9.8398v31.16c0.003906 26.223 21.34 47.559 47.562 47.559s47.559-21.336 47.559-47.559zm-75.438 0v-21.32h55.758v21.32c0 15.371-12.508 27.879-27.879 27.879-15.375 0-27.879-12.508-27.879-27.879z"/>
  <path d="m404.92 445.31v-50.23c0-5.4336-4.4062-9.8398-9.8398-9.8398s-9.8398 4.4062-9.8398 9.8398v50.23c-21.52 4.5469-37.723 23.68-37.723 46.531l0.003906 31.16c0 5.4336 4.4062 9.8398 9.8398 9.8398h75.441c5.4336 0 9.8398-4.4062 9.8398-9.8398v-31.16c-0.003906-22.852-16.203-41.984-37.723-46.531zm18.039 67.852h-55.758v-21.32c0-15.375 12.504-27.883 27.879-27.883 15.371 0 27.879 12.508 27.879 27.879z"/>
  <path d="m547.6 562.36h-29.52v-54.121c0-46.633-25.812-87.203-64.609-108.24 38.762-21.016 64.609-61.57 64.609-108.24v-54.121h29.52c5.4336 0 9.8398-4.4062 9.8398-9.8398v-29.52c0-3.2891-1.6445-6.3633-4.3828-8.1875l-29.52-19.68c-1.6133-1.0781-3.5117-1.6523-5.457-1.6523h-246c-1.9414 0-3.8398 0.57422-5.457 1.6523l-29.52 19.68c-2.7383 1.8242-4.3828 4.8984-4.3828 8.1875v29.52c0 5.4336 4.4062 9.8398 9.8398 9.8398h29.52v54.121c0 46.621 25.809 87.203 64.609 108.24-38.762 21.016-64.609 61.566-64.609 108.24v54.121h-29.52c-5.4336 0-9.8398 4.4062-9.8398 9.8398v29.52c0 3.2891 1.6445 6.3633 4.3828 8.1875l29.52 19.68c1.6172 1.0781 3.5156 1.6523 5.457 1.6523h236.16c1.5273 0 3.0352-0.35547 4.4023-1.0391l39.359-19.68c3.332-1.668 5.4375-5.0742 5.4375-8.8008v-29.52c0-5.4336-4.4062-9.8398-9.8398-9.8398zm-295.2-358.82 22.66-15.105h240.04l22.656 15.105v14.414h-285.36zm39.359 304.7c0-45.762 29.379-85.48 73.105-98.828 4.1406-1.2617 6.9648-5.082 6.9648-9.4102s-2.8281-8.1484-6.9648-9.4102c-43.727-13.352-73.105-53.07-73.105-98.832v-54.121h206.64v54.121c0 45.762-29.379 85.48-73.105 98.828-4.1406 1.2617-6.9648 5.082-6.9648 9.4102s2.8281 8.1484 6.9648 9.4102c43.727 13.352 73.105 53.07 73.105 98.832v54.121h-206.64zm246 87.398-31.84 15.922h-230.86l-22.66-15.105v-14.414h285.36z"/>
  <path d="m227.16 436.55c-3.6211-1.457-6.7031-2.0977-7.3359-2.2773v-8.0469c4.2539 0.60938 8.9766 3.25 9.4648 3.9062l4.2578-8.0469c-1.6562-0.94531-3.6094-1.8711-5.8555-2.7812-2.2461-0.90625-4.6523-1.4805-7.2148-1.7148v-5.9766h-4.082v5.9766c-5.5547 0.58203-10.164 2.9883-12.422 8.0742-1.3516 3.043-1.3516 7.0898-0.38672 9.6133 0.45312 1.1836 1.1445 2.2305 2.0703 3.1367 3.4531 3.3867 10.301 4.707 11.387 5.1445v7.8672c-5.3008-0.73828-10.836-3.7578-11.656-4.793l-4.2578 8.4609c4.4648 2.9766 10.102 4.6406 15.262 5.0859v6.9219h4.082v-6.8633c8.2031-0.34375 14.316-4.4023 14.316-12.777 0.003906-5.207-2.3047-8.7695-7.6289-10.91zm-10.117-3.1094c-1.3828-0.43359-2.418-0.9375-3.1055-1.5078-0.69141-0.57031-1.0352-1.3516-1.0352-2.3359 0-2.0508 1.3789-3.1953 4.1406-3.4297zm2.7812 18.105v-7.0977c1.3789 0.47266 2.4844 0.99609 3.3125 1.5703 0.82813 0.57031 1.2422 1.3711 1.2422 2.3945 0 1.9688-1.5195 3.0117-4.5547 3.1328z"/>
  <path d="m272.08 439.36c0-29.844-24.277-54.121-54.121-54.121s-54.121 24.277-54.121 54.121 24.277 54.121 54.121 54.121 54.121-24.281 54.121-54.121zm-54.121 34.438c-18.992 0-34.441-15.449-34.441-34.441 0-18.992 15.449-34.441 34.441-34.441 18.992 0 34.441 15.449 34.441 34.441 0 18.992-15.449 34.441-34.441 34.441z"/>
  <path d="m591.24 357.83c-3.6211-1.457-6.7227-2.1016-7.3359-2.2773v-8.0469c4.2617 0.60938 8.9844 3.2539 9.4648 3.9062l4.2578-8.0469c-1.6562-0.94531-3.6055-1.8711-5.8555-2.7812-2.25-0.90625-4.6562-1.4805-7.2148-1.7148v-5.9766h-4.082v5.9766c-8.7617 0.91406-13.488 6.3945-13.488 13.547 0 4.3633 1.7188 7.4609 6.2695 9.6719 3.1641 1.5391 6.5781 2.3398 7.8672 2.75v7.8672c-5.3047-0.73438-10.828-3.7578-11.656-4.793l-4.2578 8.4609c4.457 2.9727 10.094 4.6367 15.262 5.0859v6.9219h4.082v-6.8633c8.2578-0.34766 14.316-4.4727 14.316-12.777 0.003906-5.0703-2.2188-8.7305-7.6289-10.91zm-10.117-3.1055c-1.3828-0.43359-2.4141-0.9375-3.1055-1.5078-0.69141-0.57031-1.0352-1.3516-1.0352-2.3359 0-2.0508 1.3789-3.1953 4.1406-3.4297zm2.7812 18.102v-7.0977c1.3828 0.47266 2.4844 0.99609 3.3125 1.5664 0.82812 0.57031 1.2422 1.3711 1.2422 2.3945 0 1.9766-1.5195 3.0195-4.5547 3.1367z"/>
  <path d="m582.04 306.52c-29.844 0-54.121 24.277-54.121 54.121s24.277 54.121 54.121 54.121 54.121-24.277 54.121-54.121-24.277-54.121-54.121-54.121zm0 88.559c-18.992 0-34.441-15.449-34.441-34.441 0-18.992 15.449-34.441 34.441-34.441 18.992 0 34.441 15.449 34.441 34.441 0 18.992-15.449 34.441-34.441 34.441z"/>
 </g>
</svg>