<?xml version="1.0" encoding="UTF-8"?>
<!-- The Best Svg Icon site in the world: iconSvg.co, Visit us! https://iconsvg.co -->
<svg fill="#000000" width="800px" height="800px" version="1.1" viewBox="144 144 512 512" xmlns="http://www.w3.org/2000/svg">
 <g>
  <path d="m171.71 636.16h110.21c2.0898 0 4.0898-0.83203 5.5664-2.3047 1.4766-1.4766 2.3047-3.4805 2.3047-5.5664v-7.875h212.55c2.0859 0 4.0898-0.82812 5.5625-2.3047l56.465-56.465h0.003907c5.7422-5.7578 8.9219-13.59 8.8164-21.723-0.11328-7.9414-3.3516-15.516-9.0195-21.082-5.668-5.5664-13.301-8.668-21.246-8.6367-7.9414 0.035156-15.551 3.1992-21.172 8.8125l-27.285 27.293v-335.24h7.875c2.0859 0 4.0898-0.82812 5.5664-2.3047 1.4766-1.4766 2.3047-3.4805 2.3047-5.5664v-31.488c0-2.0898-0.82812-4.0898-2.3047-5.5664-1.4766-1.4766-3.4805-2.3086-5.5664-2.3086h-204.67c-4.3477 0-7.875 3.5273-7.875 7.875v31.488c0 2.0859 0.83203 4.0898 2.3086 5.5664 1.4727 1.4766 3.4766 2.3047 5.5664 2.3047h7.8711v322.75h-15.746v-15.746c0-2.0859-0.82812-4.0898-2.3047-5.5664-1.4766-1.4766-3.4766-2.3047-5.5664-2.3047h-110.21c-4.3477 0-7.875 3.5234-7.875 7.8711v110.21c0 2.0859 0.83203 4.0898 2.3086 5.5664 1.4766 1.4727 3.4766 2.3047 5.5664 2.3047zm133.82-456.58h188.93v15.742h-188.93zm157.44 291.27c-0.019531-0.94922-0.20703-1.8867-0.5625-2.7656-0.12109-0.26953-0.25781-0.53125-0.41406-0.78516-0.27734-0.56641-0.625-1.0977-1.0312-1.5742-0.23047-0.26172-0.48047-0.50391-0.74219-0.73438-0.17187-0.1875-0.35156-0.36328-0.54297-0.53516l-55.105-39.359c-2.7344-1.9531-6.4102-1.9531-9.1445 0l-55.105 39.359c-0.19141 0.17188-0.37109 0.34766-0.54297 0.53516-0.26172 0.23047-0.50781 0.47266-0.73828 0.73438-0.41016 0.47656-0.75781 1.0078-1.0312 1.5742-0.15625 0.25391-0.29688 0.51562-0.41797 0.78516-0.35938 0.87891-0.55469 1.8164-0.57422 2.7656v62.977h-15.746v-322.75h157.44v346.37h-15.742zm-61.613 23.617-0.003906-0.003906c-7.9961-0.019532-15.672 3.1602-21.309 8.8359l-27.285 27.266v-51.844h94.465v78.719h-36.102l11.531-11.531c5.6523-5.6523 8.8281-13.316 8.8281-21.309 0-7.9922-3.1719-15.66-8.8242-21.309-5.6523-5.6523-13.32-8.8281-21.312-8.8281zm-31.91-31.488 30.547-21.816 30.543 21.816zm-79.664 86.59h62.977c2.0898 0 4.0898-0.82812 5.5664-2.3047l32.844-32.844c2.6992-2.6953 6.3594-4.207 10.176-4.207 3.8164 0.003906 7.4766 1.5195 10.176 4.2188 2.6992 2.6992 4.2148 6.3594 4.2148 10.176 0.011718 3.8164-1.5078 7.4805-4.2109 10.18l-24.969 24.961c-2.2539 2.25-2.9258 5.6367-1.707 8.5781 1.2188 2.9414 4.0859 4.8594 7.2695 4.8594h94.465c2.0898 0 4.0898-0.83203 5.5664-2.3086l40.73-40.738v0.003906c2.8164-2.7695 6.6328-4.2812 10.578-4.1914 3.7734 0.03125 7.3789 1.5703 10.004 4.2773 2.625 2.7109 4.0586 6.3594 3.9688 10.129 0.011719 3.8125-1.5 7.4688-4.2031 10.156l-54.16 54.16h-209.29zm-110.21-23.617h94.465v94.465h-94.465z"/>
  <path d="m337.02 321.28h31.488v15.742h-31.488z"/>
  <path d="m384.25 321.28h31.488v15.742h-31.488z"/>
  <path d="m431.49 321.28h31.488v15.742h-31.488z"/>
  <path d="m337.02 352.77h31.488v15.742h-31.488z"/>
  <path d="m384.25 352.77h31.488v15.742h-31.488z"/>
  <path d="m431.49 352.77h31.488v15.742h-31.488z"/>
  <path d="m337.02 384.25h31.488v15.742h-31.488z"/>
  <path d="m384.25 384.25h31.488v15.742h-31.488z"/>
  <path d="m431.49 384.25h31.488v15.742h-31.488z"/>
  <path d="m337.02 226.81h31.488v15.742h-31.488z"/>
  <path d="m384.25 226.81h31.488v15.742h-31.488z"/>
  <path d="m431.49 226.81h31.488v15.742h-31.488z"/>
  <path d="m337.02 258.3h31.488v15.742h-31.488z"/>
  <path d="m384.25 258.3h31.488v15.742h-31.488z"/>
  <path d="m431.49 258.3h31.488v15.742h-31.488z"/>
  <path d="m337.02 289.79h31.488v15.742h-31.488z"/>
  <path d="m384.25 289.79h31.488v15.742h-31.488z"/>
  <path d="m431.49 289.79h31.488v15.742h-31.488z"/>
  <path d="m244.84 591.21c-1.4531 1.4961-2.2695 3.5-2.2812 5.5898-0.019532 3.1953 1.8984 6.0898 4.8516 7.3125 2.9531 1.2266 6.3555 0.54688 8.6094-1.7266 0.31641-0.39453 0.62891-0.78906 0.94531-1.2578 0.30859-0.40234 0.54688-0.85547 0.70703-1.3398 0.23047-0.44141 0.38672-0.92187 0.46484-1.4141 0.097656-0.51953 0.15234-1.0469 0.16406-1.5742 0.019531-3.1992-1.8984-6.0898-4.8516-7.3164s-6.3555-0.54688-8.6094 1.7266z"/>
  <path d="m337.02 415.74h31.488v15.742h-31.488z"/>
  <path d="m431.49 415.74h31.488v15.742h-31.488z"/>
 </g>
</svg>