<?xml version="1.0" encoding="UTF-8"?>
<!-- The Best Svg Icon site in the world: iconSvg.co, Visit us! https://iconsvg.co -->
<svg fill="#000000" width="800px" height="800px" version="1.1" viewBox="144 144 512 512" xmlns="http://www.w3.org/2000/svg">
 <g>
  <path d="m281.92 321.28v-9.3203c7.0547-2.4844 12.512-8.1719 14.699-15.324 2.1914-7.1484 0.85547-14.918-3.5977-20.926-4.4531-6.0078-11.492-9.5469-18.973-9.5312-3.1836 0-6.0547-1.918-7.2734-4.8594-1.2188-2.9453-0.54688-6.3281 1.707-8.582 2.25-2.25 5.6367-2.9219 8.5781-1.707 2.9414 1.2188 4.8594 4.0898 4.8594 7.2734h15.746c-0.023437-4.8672-1.5469-9.6094-4.3633-13.574-2.8203-3.9688-6.793-6.9688-11.383-8.5938v-9.3203h-15.742v9.3203c-7.0547 2.4883-12.512 8.1719-14.703 15.324-2.1914 7.1523-0.85547 14.918 3.5977 20.93 4.4531 6.0078 11.496 9.5469 18.977 9.5312 3.1836 0 6.0547 1.918 7.2734 4.8594s0.54297 6.3281-1.707 8.5781c-2.2539 2.2539-5.6367 2.9258-8.5781 1.707s-4.8594-4.0898-4.8594-7.2734h-15.746c0.019531 4.8672 1.543 9.6094 4.3633 13.578 2.8164 3.9688 6.793 6.9688 11.383 8.5898v9.3203z"/>
  <path d="m352.77 274.05c0-20.879-8.293-40.902-23.055-55.664-14.766-14.762-34.785-23.059-55.664-23.059s-40.902 8.2969-55.664 23.059c-14.762 14.762-23.059 34.785-23.059 55.664s8.2969 40.898 23.059 55.664c14.762 14.762 34.785 23.055 55.664 23.055 20.871-0.023437 40.879-8.3242 55.637-23.082 14.758-14.758 23.059-34.766 23.082-55.637zm-141.7 0c0-16.703 6.6328-32.723 18.445-44.531 11.809-11.812 27.828-18.445 44.531-18.445s32.719 6.6328 44.531 18.445c11.809 11.809 18.445 27.828 18.445 44.531s-6.6367 32.719-18.445 44.531c-11.812 11.809-27.828 18.445-44.531 18.445-16.699-0.019532-32.703-6.6602-44.512-18.469-11.805-11.805-18.445-27.812-18.465-44.508z"/>
  <path d="m313.41 266.18h15.742v15.742h-15.742z"/>
  <path d="m218.94 266.18h15.742v15.742h-15.742z"/>
  <path d="m625.76 288.31c-19.484-7.1641-39.797-11.84-60.449-13.918v-39.703c0-25.312-13.504-48.703-35.426-61.359-21.922-12.652-48.926-12.652-70.848 0-21.922 12.656-35.426 36.047-35.426 61.359v314.88c0 25.312-13.504 48.699-35.422 61.355-21.922 12.656-48.93 12.656-70.848 0-21.922-12.656-35.426-36.043-35.426-61.355v-165.71c38.34-2.7422 72.477-25.266 90.09-59.43 17.609-34.168 16.148-75.039-3.8594-107.86-20.004-32.82-55.664-52.844-94.102-52.844s-74.098 20.023-94.105 52.844c-20.004 32.82-21.465 73.691-3.8555 107.86 17.609 34.164 51.75 56.688 90.09 59.43v165.71c0 30.938 16.504 59.523 43.293 74.992 26.793 15.469 59.801 15.469 86.594 0s43.297-44.055 43.297-74.992v-314.88c0-19.688 10.504-37.879 27.551-47.723 17.051-9.8438 38.055-9.8438 55.105 0 17.047 9.8438 27.551 28.035 27.551 47.723v39.707-0.003906c-20.656 2.0781-40.965 6.7539-60.449 13.918-3.043 1.1055-5.6719 3.1172-7.5312 5.7656-1.8594 2.6484-2.8594 5.8086-2.8672 9.043v104.75c0 6.2617 2.4883 12.27 6.918 16.699 4.4297 4.4297 10.434 6.918 16.699 6.918h15.742v173.18c0 2.0859 0.83203 4.0898 2.3086 5.5664l23.617 23.617-0.003906-0.003907c3.0742 3.0742 8.0586 3.0742 11.133 0l39.359-39.359c3.0742-3.0742 3.0742-8.0547 0-11.129l-18.051-18.051 18.051-18.051c1.4766-1.4766 2.3047-3.4805 2.3086-5.5664v-23.617c-0.003906-2.0859-0.83203-4.0898-2.3086-5.5664l-18.051-18.051 18.051-18.051v0.003906c1.4766-1.4766 2.3047-3.4805 2.3086-5.5664v-39.359h15.742c6.2617 0 12.27-2.4883 16.699-6.918 4.4297-4.4297 6.918-10.438 6.918-16.699v-104.75c-0.007812-3.2344-1.0078-6.3945-2.8672-9.043-1.8594-2.6484-4.4922-4.6602-7.5312-5.7656zm-446.18-14.262c0-25.055 9.9531-49.082 27.668-66.797s41.742-27.668 66.797-27.668 49.082 9.9531 66.797 27.668 27.668 41.742 27.668 66.797-9.9531 49.082-27.668 66.797-41.742 27.668-66.797 27.668c-25.047-0.027344-49.059-9.9883-66.766-27.699-17.711-17.711-27.672-41.723-27.699-66.766zm401.47 193.54-21.309 21.309v0.003907c-3.0742 3.0742-3.0742 8.0547 0 11.129l21.309 21.309v17.098l-21.309 21.309v0.003906c-3.0742 3.0742-3.0742 8.0547 0 11.129l18.051 18.051-28.23 28.23-15.742-15.742v-169.93h47.23zm39.359-59.715c0 2.0859-0.82812 4.0898-2.3047 5.5664s-3.4766 2.3047-5.5664 2.3047h-110.21c-4.3477 0-7.875-3.5234-7.875-7.8711v-104.75c20.191-7.6328 41.43-12.129 62.977-13.336 21.551 1.207 42.789 5.6992 62.977 13.328z"/>
  <path d="m533.82 329.15c0 6.2656 2.4883 12.273 6.9141 16.699 4.4297 4.4297 10.438 6.918 16.699 6.918 6.2656 0 12.273-2.4883 16.699-6.918 4.4297-4.4258 6.918-10.434 6.918-16.699 0-6.2617-2.4883-12.27-6.918-16.695-4.4258-4.4297-10.434-6.918-16.699-6.918-6.2617 0-12.27 2.4883-16.699 6.918-4.4258 4.4258-6.9141 10.434-6.9141 16.695zm31.488 0c0 3.1875-1.918 6.0547-4.8594 7.2734s-6.3281 0.54688-8.582-1.707c-2.25-2.25-2.9219-5.6367-1.7031-8.5781 1.2148-2.9414 4.0859-4.8594 7.2695-4.8594 2.0898 0 4.0898 0.83203 5.5664 2.3047 1.4766 1.4766 2.3086 3.4805 2.3086 5.5664z"/>
 </g>
</svg>