<?xml version="1.0" encoding="UTF-8"?>
<!-- The Best Svg Icon site in the world: iconSvg.co, Visit us! https://iconsvg.co -->
<svg fill="#000000" width="800px" height="800px" version="1.1" viewBox="144 144 512 512" xmlns="http://www.w3.org/2000/svg">
 <g>
  <path d="m531.75 291.18-127.02-87.703c-2.6914-1.8555-6.2539-1.8555-8.9453 0l-127.3 87.695c-2.8398 1.9531-4.082 5.5312-3.0586 8.8242 1.0273 3.293 4.0742 5.5352 7.5234 5.5352h254.34c3.4453 0 6.4922-2.2422 7.5156-5.5312 1.0234-3.2891-0.20703-6.8633-3.043-8.8203zm-233.5-1.3945 102.02-70.266 101.75 70.266z"/>
  <path d="m518.08 502.34h15.746c2.0859 0 4.0898 0.82812 5.5664 2.3047s2.3047 3.4766 2.3047 5.5664c0 4.3477 3.5234 7.8711 7.8711 7.8711s7.8711-3.5234 7.8711-7.8711c0-6.2617-2.4883-12.27-6.9141-16.699-4.4297-4.4297-10.438-6.918-16.699-6.918v-7.8711c0-4.3477-3.5273-7.8711-7.875-7.8711-4.3477 0-7.8711 3.5234-7.8711 7.8711v7.8711c-8.4375 0-16.234 4.5039-20.453 11.809-4.2188 7.3086-4.2188 16.309 0 23.617 4.2188 7.3047 12.016 11.809 20.453 11.809h15.746c4.3477 0 7.8711 3.5234 7.8711 7.8711 0 4.3477-3.5234 7.8711-7.8711 7.8711h-15.746c-4.3477 0-7.8711-3.5234-7.8711-7.8711 0-4.3477-3.5234-7.8711-7.8711-7.8711-4.3477 0-7.875 3.5234-7.875 7.8711 0 6.2617 2.4883 12.27 6.918 16.699 4.4297 4.4297 10.438 6.918 16.699 6.918v7.8711c0 4.3477 3.5234 7.8711 7.8711 7.8711 4.3477 0 7.875-3.5234 7.875-7.8711v-7.8711c8.4375 0 16.23-4.5039 20.449-11.809 4.2188-7.3086 4.2188-16.309 0-23.617-4.2188-7.3086-12.012-11.809-20.449-11.809h-15.746c-4.3477 0-7.8711-3.5234-7.8711-7.8711 0-4.3477 3.5234-7.8711 7.8711-7.8711z"/>
  <path d="m525.95 447.23c-20.875 0-40.898 8.293-55.66 23.059-14.766 14.762-23.059 34.785-23.059 55.66 0 20.879 8.293 40.902 23.059 55.664 14.762 14.766 34.785 23.059 55.66 23.059 20.879 0 40.902-8.293 55.664-23.059 14.766-14.762 23.059-34.785 23.059-55.664-0.023437-20.871-8.3242-40.879-23.082-55.637-14.758-14.758-34.77-23.059-55.641-23.082zm0 141.7c-16.699 0-32.719-6.6328-44.527-18.445-11.812-11.809-18.445-27.828-18.445-44.531 0-16.699 6.6328-32.719 18.445-44.527 11.809-11.812 27.828-18.445 44.527-18.445 16.703 0 32.723 6.6328 44.531 18.445 11.812 11.809 18.445 27.828 18.445 44.527-0.015625 16.699-6.6602 32.707-18.465 44.512-11.805 11.805-27.812 18.449-44.512 18.465z"/>
  <path d="m573.18 426.53v-26.527h7.8711c2.0898 0 4.0898-0.83203 5.5664-2.3086 1.4766-1.4766 2.3047-3.4766 2.3047-5.5664v-23.613h23.617c2.0898 0 4.0898-0.83203 5.5664-2.3086s2.3047-3.4766 2.3047-5.5664v-23.613h7.875c3.4336-0.007813 6.4648-2.2422 7.4922-5.5195s-0.19141-6.8438-3.0078-8.8086l-227.97-157.44c-2.6914-1.8906-6.2812-1.8906-8.9727 0l-228.61 157.44c-2.8203 1.9688-4.0586 5.5234-3.0703 8.8164 1.0352 3.2969 4.1016 5.5312 7.5586 5.5117h7.8711v23.617-0.003906c0 2.0898 0.82812 4.0898 2.3047 5.5664 1.4766 1.4766 3.4805 2.3086 5.5664 2.3086h23.617v23.617-0.003906c0 2.0898 0.82813 4.0898 2.3047 5.5664 1.4766 1.4766 3.4805 2.3086 5.5664 2.3086h7.8711v94.461h-7.8711c-4.3477 0-7.8711 3.5273-7.8711 7.875v23.617l-7.8711-0.003906c-4.3477 0-7.875 3.5273-7.875 7.875v23.617l-7.8711-0.003906c-4.3477 0-7.8711 3.5273-7.8711 7.875v23.617l-7.8711-0.003907c-4.3477 0-7.875 3.5273-7.875 7.875v31.488c0 2.0859 0.83203 4.0898 2.3086 5.5664 1.4766 1.4727 3.4766 2.3047 5.5664 2.3047h354.24c33.609 0.03125 65.387-15.285 86.301-41.594 20.914-26.305 28.668-60.723 21.059-93.457-7.6133-32.73-29.754-60.199-60.125-74.582zm0-42.273h-62.977v-15.742h62.977zm-15.742 15.742v20.387l-0.003906 0.003907c-10.211-3.0703-20.82-4.6367-31.488-4.6445v-15.742zm-157.13-218.76 202.71 140.04h-406.04zm-204.99 171.53v-15.742h409.35v15.742zm102.34 141.7h-7.875v-94.461h7.875c2.0859 0 4.0898-0.83203 5.5664-2.3086 1.4727-1.4766 2.3047-3.4766 2.3047-5.5664v-23.613h47.23v23.617-0.003906c0 2.0898 0.83203 4.0898 2.3047 5.5664 1.4766 1.4766 3.4805 2.3086 5.5664 2.3086h7.8711l0.003907 94.461h-7.875c-4.3477 0-7.8711 3.5273-7.8711 7.875v23.617l-47.23-0.003906v-23.613c0-2.0898-0.83203-4.0898-2.3047-5.5664-1.4766-1.4766-3.4805-2.3086-5.5664-2.3086zm-70.852-110.21v-15.742h62.977v15.742zm47.23 15.742 0.003906 94.465h-31.488v-94.461zm94.469 110.21h48.492c-0.78125 5.2148-1.1992 10.473-1.2617 15.742h-47.23zm15.742-15.742v-94.465h31.488v94.461zm-15.742-110.21v-15.742h62.977v15.742zm62.977 15.742h7.8711v0.003906c2.0859 0 4.0898-0.83203 5.5664-2.3086 1.4766-1.4766 2.3047-3.4766 2.3047-5.5664v-23.613h47.23v23.617-0.003906c0 2.0898 0.83203 4.0898 2.3086 5.5664 1.4766 1.4766 3.4766 2.3086 5.5664 2.3086h7.8711v17.004c-32.809 4.7539-61.727 24.043-78.719 52.504zm-204.68 110.21h62.977v15.742h-62.977zm-15.742 31.488h205.93c0.76172 5.3203 1.8945 10.578 3.3828 15.742h-209.32zm-15.746 31.488h231.2c2.5938 5.4961 5.6484 10.762 9.1328 15.742h-240.34zm-15.742 47.23v-15.742h269.38c6.1992 6.0469 13.098 11.332 20.547 15.742zm346.37 0c-25.051 0-49.078-9.9531-66.793-27.668-17.719-17.715-27.668-41.742-27.668-66.797 0-25.051 9.9492-49.078 27.668-66.793 17.715-17.719 41.742-27.668 66.793-27.668 25.055 0 49.082 9.9492 66.797 27.668 17.715 17.715 27.668 41.742 27.668 66.793-0.019531 25.047-9.9805 49.062-27.691 66.773-17.711 17.711-41.727 27.672-66.773 27.691z"/>
  <path d="m376.38 258.3c0 6.2656 2.4883 12.273 6.918 16.699 4.4258 4.4297 10.434 6.918 16.699 6.918 6.2617 0 12.27-2.4883 16.699-6.918 4.4258-4.4258 6.9141-10.434 6.9141-16.699 0-6.2617-2.4883-12.27-6.9141-16.699-4.4297-4.4258-10.438-6.9141-16.699-6.9141-6.2656 0-12.273 2.4883-16.699 6.9141-4.4297 4.4297-6.918 10.438-6.918 16.699zm31.488 0c0 3.1836-1.918 6.0547-4.8594 7.2734-2.9414 1.2188-6.3281 0.54688-8.5781-1.707-2.2539-2.25-2.9258-5.6367-1.707-8.5781 1.2188-2.9414 4.0898-4.8594 7.2734-4.8594 2.0859 0 4.0898 0.82812 5.5664 2.3047 1.4766 1.4766 2.3047 3.4805 2.3047 5.5664z"/>
 </g>
</svg>