<?xml version="1.0" encoding="UTF-8"?>
<!-- The Best Svg Icon site in the world: iconSvg.co, Visit us! https://iconsvg.co -->
<svg fill="#000000" width="800px" height="800px" version="1.1" viewBox="144 144 512 512" xmlns="http://www.w3.org/2000/svg">
 <g>
  <path d="m201.94 552.64h51.664c2.4805 0 4.4844-2.0117 4.4844-4.4844v-167.44c0-2.4805-2.0117-4.4844-4.4844-4.4844h-51.664c-2.4805 0-4.4844 2.0117-4.4844 4.4844v167.44c0 2.4766 2.0078 4.4844 4.4844 4.4844zm4.4883-167.44h42.699v158.47h-42.699z"/>
  <path d="m339.72 419.77h-51.668c-2.4805 0-4.4844 2.0117-4.4844 4.4844v123.9c0 2.4805 2.0117 4.4844 4.4844 4.4844h51.664c2.4805 0 4.4844-2.0117 4.4844-4.4844v-123.9c0.007812-2.4766-2.0039-4.4844-4.4805-4.4844zm-4.4844 123.89h-42.699v-114.93h42.699z"/>
  <path d="m374.16 330.93c-2.4805 0-4.4844 2.0117-4.4844 4.4844v212.74c0 2.4805 2.0117 4.4844 4.4844 4.4844h51.664c2.4805 0 4.4844-2.0117 4.4844-4.4844v-212.74c0-2.4805-2.0117-4.4844-4.4844-4.4844zm47.18 212.73h-42.699v-203.77h42.699z"/>
  <path d="m511.95 358.56h-51.672c-2.4805 0-4.4844 2.0117-4.4844 4.4844v185.11c0 2.4805 2.0117 4.4844 4.4844 4.4844h51.672c2.4805 0 4.4844-2.0117 4.4844-4.4844v-185.11c0.003906-2.4727-2.0078-4.4844-4.4844-4.4844zm-4.4844 185.11h-42.699v-176.13h42.699z"/>
  <path d="m598.06 296.79h-51.664c-2.4805 0-4.4844 2.0117-4.4844 4.4844v246.87c0 2.4805 2.0117 4.4844 4.4844 4.4844h51.664c2.4805 0 4.4844-2.0117 4.4844-4.4844v-246.87c0-2.4727-2.0078-4.4844-4.4844-4.4844zm-4.4922 246.87h-42.699v-237.9h42.699z"/>
  <path d="m598.06 566.77h-396.12c-2.4805 0-4.4844 2.0117-4.4844 4.4844 0 2.4727 2.0117 4.4844 4.4844 4.4844h396.12c2.4805 0 4.4844-2.0117 4.4844-4.4844 0-2.4727-2.0078-4.4844-4.4844-4.4844z"/>
  <path d="m227.33 360.04c9.9414 0 18.758-4.8828 24.191-12.375l34.047 17.551c-1.0117 3.0039-1.5703 6.207-1.5703 9.5469 0 16.48 13.406 29.883 29.883 29.883 16.48 0 29.883-13.406 29.883-29.883 0-6.6758-2.2031-12.848-5.9141-17.828l44.559-45.004c4.9375 3.6055 11.02 5.75 17.594 5.75 11.703 0 21.844-6.7656 26.746-16.586l29.867 9.5977c-0.24609 1.5508-0.38281 3.1406-0.38281 4.7578 0 16.473 13.406 29.883 29.887 29.883 16.473 0 29.883-13.406 29.883-29.883 0-4.8477-1.168-9.4219-3.2188-13.473l38.004-27.07c5.4375 5.6133 13.039 9.1094 21.445 9.1094 16.48 0 29.883-13.406 29.883-29.883 0-16.473-13.406-29.883-29.883-29.883-16.473 0-29.883 13.406-29.883 29.883 0 4.8477 1.168 9.4219 3.2227 13.473l-38.004 27.07c-5.4375-5.6133-13.039-9.1094-21.453-9.1094-11.703 0-21.852 6.7656-26.754 16.586l-29.859-9.5977c0.24609-1.5508 0.38281-3.1406 0.38281-4.7617 0-16.473-13.406-29.883-29.883-29.883-16.48 0-29.883 13.406-29.883 29.883 0 6.6758 2.2031 12.848 5.9141 17.824l-44.559 45.004c-4.9375-3.6055-11.02-5.7422-17.59-5.7422-9.9414 0-18.75 4.8828-24.188 12.367l-34.047-17.559c1.0117-2.9961 1.5703-6.207 1.5703-9.543 0-16.473-13.406-29.883-29.883-29.883-16.48 0-29.883 13.406-29.883 29.883-0.003906 16.496 13.402 29.895 29.875 29.895zm344.89-126.81c11.531 0 20.914 9.3828 20.914 20.914s-9.3828 20.914-20.914 20.914-20.914-9.3828-20.914-20.914 9.3828-20.914 20.914-20.914zm-106.03 75.848c0-0.003907 0.003906-0.011719 0.003906-0.011719v-0.003906c2.7109-8.4141 10.605-14.516 19.91-14.516 11.531 0 20.914 9.3828 20.914 20.914s-9.3828 20.914-20.914 20.914-20.914-9.3828-20.914-20.914c0.003906-2.2305 0.35547-4.3672 1-6.3828zm-66.199-42.188c11.531 0 20.914 9.3828 20.914 20.914s-9.3828 20.914-20.914 20.914-20.914-9.3828-20.914-20.914 9.3789-20.914 20.914-20.914zm-86.113 86.969c11.531 0 20.914 9.3828 20.914 20.914s-9.3828 20.914-20.914 20.914-20.914-9.3828-20.914-20.914c0-11.535 9.3828-20.914 20.914-20.914zm-86.555-44.613c11.531 0 20.914 9.3828 20.914 20.914s-9.3828 20.914-20.914 20.914-20.914-9.3828-20.914-20.914 9.3867-20.914 20.914-20.914z"/>
 </g>
</svg>