<?xml version="1.0" encoding="UTF-8"?>
<!-- The Best Svg Icon site in the world: iconSvg.co, Visit us! https://iconsvg.co -->
<svg fill="#000000" width="800px" height="800px" version="1.1" viewBox="144 144 512 512" xmlns="http://www.w3.org/2000/svg">
 <g>
  <path d="m420.93 624.35h-41.867c-3.2266 0-6.0195-2.2383-6.7227-5.3867l-13.016-58.273c-15.699-3.9336-30.734-10.164-44.812-18.574l-50.531 31.992c-2.7227 1.7227-6.2773 1.3281-8.5547-0.94922l-29.578-29.578c-2.2773-2.2773-2.6719-5.832-0.94922-8.5547l31.984-50.523c-8.3828-13.977-14.613-29.016-18.566-44.824l-58.27-13.016c-3.1484-0.70312-5.3867-3.4961-5.3867-6.7227v-41.867c0-3.2266 2.2383-6.0195 5.3867-6.7227l58.27-13.016c3.9336-15.699 10.164-30.738 18.574-44.812l-31.988-50.527c-1.7227-2.7227-1.3281-6.2773 0.94922-8.5547l29.578-29.578c2.2812-2.2812 5.8359-2.6758 8.5625-0.94531l50.516 32.066c13.863-8.3359 28.902-14.586 44.816-18.633l13.02-58.289c0.70312-3.1484 3.4961-5.3867 6.7227-5.3867h41.867c3.2266 0 6.0195 2.2383 6.7227 5.3867l13.02 58.289c15.918 4.0469 30.957 10.297 44.82 18.633l50.512-32.066c2.7227-1.7266 6.2812-1.3359 8.5625 0.94531l29.578 29.578c2.2773 2.2773 2.6719 5.832 0.94922 8.5547l-31.992 50.531c8.4062 14.074 14.641 29.113 18.574 44.812l58.27 13.016c3.1484 0.70313 5.3867 3.4961 5.3867 6.7227v41.867c0 3.2266-2.2383 6.0195-5.3867 6.7227l-58.27 13.016c-3.9336 15.699-10.164 30.738-18.574 44.812l31.992 50.531c1.7227 2.7227 1.332 6.2773-0.94922 8.5547l-29.578 29.578c-2.2773 2.2773-5.8359 2.6719-8.5547 0.94922l-50.523-31.984c-13.973 8.3828-29.016 14.613-44.824 18.566l-13.016 58.27c-0.70312 3.1523-3.4961 5.3906-6.7227 5.3906zm-36.352-13.777h30.828l12.754-57.094c0.58203-2.6055 2.6211-4.6406 5.2266-5.2227 17.242-3.832 33.543-10.582 48.445-20.066 2.2539-1.4336 5.1289-1.4375 7.3828-0.007812l49.504 31.34 21.781-21.781-31.34-49.504c-1.4258-2.25-1.4258-5.1172-0.003906-7.3672 9.5234-15.055 16.277-31.355 20.078-48.461 0.57812-2.6094 2.6133-4.6445 5.2227-5.2266l57.094-12.754v-30.828l-57.094-12.754c-2.6055-0.58203-4.6406-2.6211-5.2227-5.2266-3.8008-17.102-10.555-33.406-20.078-48.461-1.4219-2.25-1.4219-5.1172 0.003906-7.3672l31.34-49.504-21.777-21.777-49.5 31.422c-2.2617 1.4336-5.1445 1.4297-7.3984-0.011719-14.754-9.4219-31.062-16.203-48.469-20.16-2.5938-0.58984-4.6133-2.6211-5.1953-5.2148l-12.75-57.09h-30.828l-12.754 57.094c-0.57812 2.5977-2.6016 4.625-5.1953 5.2148-17.406 3.957-33.711 10.738-48.469 20.16-2.2539 1.4414-5.1406 1.4453-7.3984 0.011719l-49.5-31.422-21.777 21.777 31.34 49.504c1.4258 2.25 1.4258 5.1172 0 7.3672-9.5234 15.055-16.277 31.359-20.078 48.461-0.57812 2.6094-2.6172 4.6445-5.2227 5.2266l-57.094 12.754v30.828l57.094 12.754c2.6094 0.58203 4.6406 2.6211 5.2227 5.2266 3.832 17.242 10.582 33.543 20.066 48.445 1.4336 2.25 1.4375 5.1289 0.007813 7.3828l-31.336 49.5 21.781 21.781 49.504-31.34c2.25-1.4258 5.1172-1.4258 7.3672-0.003907 15.055 9.5234 31.359 16.277 48.461 20.078 2.6094 0.57812 4.6445 2.6133 5.2266 5.2227z"/>
  <path d="m400 521.1c-67.32 0-122.09-54.77-122.09-122.09 0-3.8047 3.082-6.8867 6.8867-6.8867s6.8867 3.082 6.8867 6.8867c0 59.723 48.59 108.31 108.31 108.31 10.035 0 19.977-1.3711 29.543-4.0781 3.6562-1.0391 7.4648 1.0898 8.5039 4.7539 1.0352 3.6602-1.0938 7.4688-4.7539 8.5039-10.785 3.0508-21.984 4.5977-33.289 4.5977z"/>
  <path d="m515.2 405.9c-3.8047 0-6.8867-3.082-6.8867-6.8867 0-59.723-48.59-108.31-108.31-108.31-16.438 0-32.223 3.5859-46.91 10.656-3.4258 1.6484-7.543 0.20703-9.1953-3.2188-1.6484-3.4258-0.20703-7.543 3.2188-9.1953 16.57-7.9766 34.363-12.02 52.887-12.02 67.32 0 122.09 54.77 122.09 122.09-0.003906 3.8008-3.0859 6.8867-6.8906 6.8867z"/>
  <path d="m400 481.74c-45.617 0-82.727-37.113-82.727-82.73 0-31.598 18.406-60.871 46.891-74.582 11.23-5.4062 23.285-8.1484 35.836-8.1484 45.617 0 82.73 37.113 82.73 82.727 0 36.852-24.742 69.59-60.172 79.613-7.3125 2.0742-14.902 3.1211-22.559 3.1211zm0-151.68c-10.465 0-20.512 2.2812-29.863 6.7852-23.746 11.43-39.09 35.832-39.09 62.168 0 38.02 30.93 68.953 68.949 68.953 6.3906 0 12.719-0.875 18.809-2.5977 29.523-8.3516 50.145-35.637 50.145-66.355 0.003907-38.02-30.926-68.953-68.949-68.953z"/>
  <path d="m410.49 388.68c-0.11719-0.16016-0.46875-0.41797-1.0469-0.78125-0.57812-0.35938-1.3164-0.75-2.2188-1.168-0.89844-0.42188-1.8984-0.82031-2.9961-1.1992-1.0977-0.37891-2.207-0.64844-3.3242-0.80859v8.1484l1.918 0.48047c2.0352 0.55859 3.8711 1.168 5.5117 1.8281 1.6367 0.66016 3.0273 1.4805 4.1641 2.457 1.1406 0.98047 2.0156 2.168 2.6367 3.5664 0.62109 1.3984 0.92969 3.0742 0.92969 5.0312 0 2.2773-0.40234 4.2148-1.1992 5.8125-0.80078 1.5977-1.8672 2.9062-3.207 3.9258-1.3359 1.0195-2.875 1.7891-4.6133 2.3086s-3.5664 0.81641-5.4844 0.89844v6.9492h-4.1367v-7.0117c-2.7578-0.23828-5.4844-0.79688-8.1797-1.6758-2.6953-0.87891-5.1211-2.0352-7.2812-3.4766l4.3125-8.5664c0.16016 0.19922 0.58984 0.53125 1.2891 0.98828 0.69922 0.46094 1.5898 0.94141 2.6641 1.4375 1.0781 0.5 2.2969 0.98047 3.6562 1.4375 1.3555 0.46094 2.7578 0.78906 4.1953 0.98828v-7.9688l-2.875-0.83984c-1.957-0.59766-3.6562-1.2461-5.0938-1.9492-1.4375-0.69922-2.6289-1.5078-3.5664-2.4258-0.9375-0.91797-1.6367-1.9766-2.0977-3.1758-0.46094-1.1992-0.6875-2.5977-0.6875-4.1953 0-2.0781 0.35938-3.9258 1.0781-5.543 0.71875-1.6172 1.6875-3.0039 2.9062-4.1641 1.2188-1.1562 2.6562-2.0664 4.3125-2.7266 1.6562-0.66016 3.4453-1.0859 5.3633-1.2891v-6.0508h4.1367v6.0508c2.5977 0.23828 5.0312 0.82031 7.3086 1.7383 2.2773 0.91797 4.2539 1.8555 5.9336 2.8164zm-16.598-0.53906c0 1 0.34766 1.7891 1.0469 2.3672 0.69922 0.57813 1.7461 1.0898 3.1484 1.5273v-7.3711c-2.7969 0.24219-4.1953 1.4023-4.1953 3.4766zm11.625 19.055c0-1.0391-0.42188-1.8477-1.2578-2.4258-0.83984-0.57812-1.957-1.1094-3.3555-1.5859v7.1914c3.0742-0.125 4.6133-1.1797 4.6133-3.1797z"/>
  <path d="m399.02 449.2c-28.215 0-51.168-22.953-51.168-51.168s22.953-51.168 51.168-51.168 51.168 22.953 51.168 51.168-22.953 51.168-51.168 51.168zm0-88.559c-20.617 0-37.391 16.773-37.391 37.391 0 20.617 16.773 37.391 37.391 37.391s37.391-16.773 37.391-37.391c0-20.617-16.773-37.391-37.391-37.391z"/>
  <path d="m600.73 626.32h-314.88c-3.8047 0-6.8867-3.082-6.8867-6.8867 0-3.8047 3.082-6.8867 6.8867-6.8867h314.88c3.8047 0 6.8867 3.082 6.8867 6.8867 0 3.8047-3.0859 6.8867-6.8906 6.8867z"/>
 </g>
</svg>