<?xml version="1.0" encoding="UTF-8"?>
<!-- The Best Svg Icon site in the world: iconSvg.co, Visit us! https://iconsvg.co -->
<svg fill="#000000" width="800px" height="800px" version="1.1" viewBox="144 144 512 512" xmlns="http://www.w3.org/2000/svg">
 <g>
  <path d="m407.87 266.18h-15.746c-4.3477 0-7.8711-3.5273-7.8711-7.875 0-4.3477-3.5234-7.8711-7.8711-7.8711-4.3477 0-7.8711 3.5234-7.8711 7.8711 0 6.2656 2.4883 12.273 6.9141 16.699 4.4297 4.4297 10.438 6.918 16.699 6.918v7.8711c0 4.3477 3.5273 7.875 7.875 7.875s7.8711-3.5273 7.8711-7.875v-7.8711c8.4375 0 16.234-4.5 20.453-11.809 4.2188-7.3047 4.2188-16.309 0-23.617-4.2188-7.3047-12.016-11.805-20.453-11.805h-15.746c-4.3477 0-7.8711-3.5273-7.8711-7.875s3.5234-7.8711 7.8711-7.8711h15.746c2.0859 0 4.0898 0.82812 5.5664 2.3047 1.4766 1.4766 2.3047 3.4805 2.3047 5.5664 0 4.3477 3.5234 7.875 7.8711 7.875 4.3477 0 7.875-3.5273 7.875-7.875 0-6.2617-2.4883-12.27-6.918-16.699-4.4297-4.4258-10.438-6.9141-16.699-6.9141v-7.875c0-4.3477-3.5234-7.8711-7.8711-7.8711s-7.875 3.5234-7.875 7.8711v7.875c-8.4375 0-16.23 4.5-20.449 11.809-4.2188 7.3047-4.2188 16.309 0 23.613 4.2188 7.3086 12.012 11.809 20.449 11.809h15.746c4.3477 0 7.8711 3.5234 7.8711 7.8711 0 4.3477-3.5234 7.875-7.8711 7.875z"/>
  <path d="m604.67 501.07v-234.9c-0.019531-6.2578-2.5117-12.254-6.9375-16.68-4.4258-4.4258-10.422-6.918-16.68-6.9375h-78.719v-70.848c0-2.0898-0.83203-4.0898-2.3086-5.5664-1.4727-1.4766-3.4766-2.3086-5.5664-2.3086h-188.93c-4.3477 0-7.8711 3.5273-7.8711 7.875v70.848h-78.723c-6.2578 0.019531-12.254 2.5117-16.68 6.9375-4.4219 4.4258-6.918 10.422-6.9375 16.68v234.9l-31.488 94.465v17.004c0.019531 6.2578 2.5156 12.254 6.9414 16.68 4.4219 4.4219 10.418 6.918 16.676 6.9375h425.09c6.2578-0.019531 12.254-2.5156 16.68-6.9375 4.4219-4.4258 6.918-10.422 6.9375-16.68v-17.004zm-291.27-321.49h173.18v125.95h-62.977c-2.4727 0.015625-4.7969 1.1797-6.2969 3.1484l-17.316 23.066-17.32-23.066c-1.4961-1.9688-3.8242-3.1328-6.2969-3.1484h-62.977zm-7.8711 141.7h66.914l21.254 28.34h-0.003906c1.4883 1.9844 3.8203 3.1484 6.3008 3.1484 2.4766 0 4.8086-1.1641 6.2969-3.1484l21.254-28.34h66.91c2.0898 0 4.0938-0.82812 5.5664-2.3047 1.4766-1.4766 2.3086-3.4805 2.3086-5.5664v-23.617h55.105l-0.003906 173.19h-314.88v-173.19h55.105v23.617c0 2.0859 0.82813 4.0898 2.3047 5.5664 1.4766 1.4766 3.4766 2.3047 5.5664 2.3047zm-94.465-55.102c0-4.3477 3.5234-7.875 7.8711-7.875h78.723v15.742l-62.977 0.003906c-4.3477 0-7.875 3.5234-7.875 7.8711v188.93c0 2.0859 0.83203 4.0898 2.3086 5.5664 1.4766 1.4766 3.4766 2.3047 5.5664 2.3047h330.62c2.0859 0 4.0898-0.82812 5.5664-2.3047 1.4766-1.4766 2.3047-3.4805 2.3047-5.5664v-188.93c0-2.0859-0.82812-4.0898-2.3047-5.5664-1.4766-1.4766-3.4805-2.3047-5.5664-2.3047h-62.977v-15.746h78.719c2.0898 0 4.0898 0.83203 5.5664 2.3086 1.4766 1.4766 2.3047 3.4766 2.3047 5.5664v228.29h-377.86zm-2.2031 244.03h382.27l26.215 78.719h-156.11l-6.375-25.504c-0.86719-3.5117-4.0195-5.9805-7.6367-5.9844h-94.465c-3.6172 0.003906-6.7656 2.4727-7.6367 5.9844l-6.375 25.504h-156.1zm236.16 78.719h-90.059l3.9375-15.742h82.184zm175.39 23.617c0 2.0898-0.82812 4.0898-2.3047 5.5664s-3.4766 2.3047-5.5664 2.3047h-425.09c-4.3477 0-7.8711-3.5234-7.8711-7.8711v-7.8711h440.83z"/>
  <path d="m439.36 525.95h15.742v15.742h-15.742z"/>
  <path d="m218.94 525.95h15.742v15.742h-15.742z"/>
  <path d="m250.43 525.95h15.742v15.742h-15.742z"/>
  <path d="m281.92 525.95h15.742v15.742h-15.742z"/>
  <path d="m313.41 525.95h15.742v15.742h-15.742z"/>
  <path d="m470.85 525.95h15.742v15.742h-15.742z"/>
  <path d="m502.34 525.95h15.742v15.742h-15.742z"/>
  <path d="m533.82 525.95h15.742v15.742h-15.742z"/>
  <path d="m344.89 525.95h15.742v15.742h-15.742z"/>
  <path d="m376.38 525.95h15.742v15.742h-15.742z"/>
  <path d="m407.87 525.95h15.742v15.742h-15.742z"/>
  <path d="m565.31 525.95h15.742v15.742h-15.742z"/>
  <path d="m470.85 557.44h47.23v15.742h-47.23z"/>
  <path d="m533.82 557.44h15.742v15.742h-15.742z"/>
  <path d="m565.31 557.44h15.742v15.742h-15.742z"/>
  <path d="m218.94 557.44h15.742v15.742h-15.742z"/>
  <path d="m250.43 557.44h15.742v15.742h-15.742z"/>
  <path d="m281.92 557.44h47.23v15.742h-47.23z"/>
  <path d="m281.92 407.87v31.488c0 2.0859 0.82812 4.0898 2.3047 5.5664 1.4766 1.4766 3.4805 2.3047 5.5664 2.3047h31.488c2.0898 0 4.0898-0.82812 5.5664-2.3047 1.4766-1.4766 2.3047-3.4805 2.3047-5.5664v-31.488c0-2.0898-0.82813-4.0898-2.3047-5.5664-1.4766-1.4766-3.4766-2.3047-5.5664-2.3047h-31.488c-4.3477 0-7.8711 3.5234-7.8711 7.8711zm15.742 7.8711h15.742v15.742l-15.738 0.003906z"/>
  <path d="m352.77 447.23h31.488c2.0898 0 4.0898-0.82812 5.5664-2.3047 1.4766-1.4766 2.3047-3.4805 2.3047-5.5664v-47.234c0-2.0859-0.82812-4.0898-2.3047-5.5664-1.4766-1.4766-3.4766-2.3047-5.5664-2.3047h-31.488c-4.3477 0-7.8711 3.5234-7.8711 7.8711v47.234c0 2.0859 0.82812 4.0898 2.3047 5.5664 1.4766 1.4766 3.4805 2.3047 5.5664 2.3047zm7.8711-47.23h15.742v31.488h-15.742z"/>
  <path d="m415.74 447.23h31.488c2.0898 0 4.0898-0.82812 5.5664-2.3047 1.4766-1.4766 2.3047-3.4805 2.3047-5.5664v-78.723c0-2.0859-0.82812-4.0898-2.3047-5.5664-1.4766-1.4727-3.4766-2.3047-5.5664-2.3047h-31.488c-4.3477 0-7.8711 3.5234-7.8711 7.8711v78.723c0 2.0859 0.82812 4.0898 2.3047 5.5664 1.4766 1.4766 3.4805 2.3047 5.5664 2.3047zm7.8711-78.719h15.742v62.977h-15.742z"/>
  <path d="m478.72 447.23h31.488c2.0859 0 4.0898-0.82812 5.5664-2.3047 1.4766-1.4766 2.3047-3.4805 2.3047-5.5664v-94.465c0-2.0898-0.82812-4.0898-2.3047-5.5664-1.4766-1.4766-3.4805-2.3047-5.5664-2.3047h-31.488c-4.3477 0-7.8711 3.5234-7.8711 7.8711v94.465c0 2.0859 0.82812 4.0898 2.3047 5.5664 1.4766 1.4766 3.4805 2.3047 5.5664 2.3047zm7.8711-94.465h15.742l0.003907 78.723h-15.746z"/>
 </g>
</svg>