<?xml version="1.0" encoding="UTF-8"?>
<!-- The Best Svg Icon site in the world: iconSvg.co, Visit us! https://iconsvg.co -->
<svg fill="#000000" width="800px" height="800px" version="1.1" viewBox="144 144 512 512" xmlns="http://www.w3.org/2000/svg">
 <g>
  <path d="m400 203.2c5.4336 0 9.8398 4.4062 9.8398 9.8398 0 5.4336-4.4062 9.8398-9.8398 9.8398s-9.8398-4.4062-9.8398-9.8398c0-5.4375 4.4023-9.8398 9.8398-9.8398z"/>
  <path d="m547.6 350.8c5.4336 0 9.8398 4.4062 9.8398 9.8398 0 5.4336-4.4062 9.8398-9.8398 9.8398s-9.8398-4.4062-9.8398-9.8398c0-5.4336 4.4062-9.8398 9.8398-9.8398z"/>
  <path d="m252.4 350.8c5.4336 0 9.8398 4.4062 9.8398 9.8398 0 5.4336-4.4062 9.8398-9.8398 9.8398-5.4336 0-9.8398-4.4062-9.8398-9.8398 0-5.4336 4.4062-9.8398 9.8398-9.8398z"/>
  <path d="m399.55 515.12c-19.59 0-38.105-5-52.129-14.074-14.957-9.6758-23.191-22.848-23.191-37.094 0-8.332 2.957-16.59 8.5547-23.875 1.3047-1.6992 3.3203-2.6914 5.4609-2.6914s4.1602 0.99609 5.4609 2.6914c10.227 13.309 32.145 21.91 55.844 21.91s45.617-8.5977 55.84-21.91c1.3047-1.6992 3.3203-2.6914 5.4609-2.6914 2.1406 0 4.1602 0.99609 5.4609 2.6914 5.5977 7.2852 8.5547 15.543 8.5547 23.875 0 14.246-8.2344 27.418-23.188 37.094-14.023 9.0781-32.539 14.074-52.129 14.074zm-59.988-59.395c-1.0352 2.6914-1.5547 5.4414-1.5547 8.2266 0 20.27 28.184 37.391 61.543 37.391s61.543-17.125 61.543-37.391c0-2.7891-0.52344-5.5352-1.5586-8.2305-14.031 12.535-36.051 20.039-59.984 20.039-23.934 0-45.953-7.5039-59.988-20.035z"/>
  <path d="m399.55 554.49c-19.59 0-38.105-5-52.129-14.074-14.957-9.6797-23.191-22.852-23.191-37.094 0-8.332 2.957-16.59 8.5547-23.875 1.3047-1.6992 3.3203-2.6914 5.4609-2.6914s4.1602 0.99609 5.4609 2.6914c10.227 13.305 32.145 21.906 55.844 21.906s45.617-8.5977 55.84-21.91c1.3047-1.6992 3.3203-2.6914 5.4609-2.6914 2.1406 0 4.1602 0.99609 5.4609 2.6914 5.5977 7.2852 8.5547 15.543 8.5547 23.875 0 14.246-8.2344 27.418-23.188 37.094-14.023 9.0781-32.539 14.078-52.129 14.078zm-59.988-59.398c-1.0352 2.6914-1.5547 5.4414-1.5547 8.2305 0 20.27 28.184 37.391 61.543 37.391s61.543-17.125 61.543-37.391c0-2.7891-0.52344-5.5352-1.5586-8.2305-14.031 12.531-36.051 20.035-59.984 20.035-23.934 0-45.953-7.5039-59.988-20.035z"/>
  <path d="m399.55 593.85c-19.59 0-38.105-5-52.129-14.074-14.957-9.6758-23.191-22.852-23.191-37.094 0-8.332 2.957-16.59 8.5547-23.875 1.3047-1.6992 3.3203-2.6914 5.4609-2.6914s4.1602 0.99609 5.4609 2.6914c10.227 13.309 32.145 21.906 55.844 21.906s45.617-8.5977 55.84-21.91c1.3047-1.6992 3.3203-2.6914 5.4609-2.6914 2.1406 0 4.1602 0.99609 5.4609 2.6914 5.5977 7.2852 8.5547 15.543 8.5547 23.875 0 14.246-8.2344 27.418-23.188 37.094-14.023 9.0781-32.539 14.078-52.129 14.078zm-59.988-59.398c-1.0352 2.6914-1.5547 5.4414-1.5547 8.2305 0 20.27 28.184 37.391 61.543 37.391s61.543-17.125 61.543-37.391c0-2.7891-0.52344-5.5352-1.5586-8.2305-14.031 12.531-36.051 20.039-59.984 20.039-23.934 0-45.953-7.5078-59.988-20.039z"/>
  <path d="m399.55 633.21c-19.59 0-38.105-5-52.129-14.074-14.957-9.6758-23.191-22.848-23.191-37.094 0-8.332 2.957-16.59 8.5547-23.875 1.3047-1.6992 3.3203-2.6914 5.4609-2.6914s4.1602 0.99609 5.4609 2.6914c10.227 13.309 32.145 21.906 55.844 21.906s45.617-8.5977 55.84-21.91c1.3047-1.6992 3.3203-2.6914 5.4609-2.6914 2.1406 0 4.1602 0.99609 5.4609 2.6914 5.5977 7.2852 8.5547 15.543 8.5547 23.875 0 14.246-8.2344 27.418-23.188 37.094-14.023 9.0781-32.539 14.078-52.129 14.078zm-59.988-59.398c-1.0352 2.6953-1.5547 5.4453-1.5547 8.2305 0 20.27 28.184 37.391 61.543 37.391s61.543-17.125 61.543-37.391c0-2.7891-0.52344-5.5352-1.5586-8.2305-14.031 12.531-36.051 20.039-59.984 20.039-23.934 0-45.953-7.5078-59.988-20.039z"/>
  <path d="m399.55 475.77c-28.25 0-53.832-10.457-66.766-27.293-5.5977-7.2852-8.5547-15.539-8.5547-23.875 0-14.246 8.2344-27.418 23.191-37.094 14.023-9.0742 32.539-14.074 52.129-14.074 19.59 0 38.105 5 52.133 14.074 14.953 9.6758 23.188 22.848 23.188 37.094 0 8.3359-2.957 16.59-8.5547 23.875-12.934 16.836-38.516 27.293-66.766 27.293zm0-88.559c-33.359 0-61.543 17.125-61.543 37.391 0 5.3477 1.918 10.555 5.7031 15.484 10.223 13.309 32.141 21.91 55.84 21.91 23.695 0 45.617-8.5977 55.84-21.91 3.7852-4.9258 5.7031-10.137 5.7031-15.484 0-9.4102-6-18.477-16.898-25.527-11.82-7.6484-27.676-11.863-44.645-11.863z"/>
  <path d="m537.31 593.85c-19.59 0-38.105-5-52.133-14.074-14.953-9.6758-23.188-22.852-23.188-37.094 0-8.3359 2.957-16.59 8.5547-23.875 1.3047-1.6992 3.3203-2.6914 5.4609-2.6914 2.1406 0 4.1602 0.99609 5.4609 2.6914 10.227 13.309 32.145 21.906 55.844 21.906 23.695 0 45.617-8.5977 55.84-21.91 1.3047-1.6992 3.3203-2.6914 5.4609-2.6914s4.1602 0.99609 5.4609 2.6914c5.5977 7.2852 8.5547 15.543 8.5547 23.875 0 14.246-8.2344 27.418-23.188 37.094-14.023 9.0781-32.539 14.078-52.129 14.078zm-59.988-59.398c-1.0352 2.6914-1.5586 5.4414-1.5586 8.2305 0 20.27 28.184 37.391 61.547 37.391 33.359 0 61.543-17.125 61.543-37.391 0-2.7891-0.52344-5.5391-1.5586-8.2305-14.031 12.531-36.051 20.039-59.984 20.039s-45.953-7.5078-59.988-20.039z"/>
  <path d="m537.31 633.21c-19.59 0-38.105-5-52.133-14.074-14.953-9.6758-23.188-22.848-23.188-37.094 0-8.3359 2.957-16.59 8.5547-23.875 1.3047-1.6992 3.3203-2.6914 5.4609-2.6914 2.1406 0 4.1602 0.99609 5.4609 2.6914 10.227 13.309 32.145 21.906 55.844 21.906 23.695 0 45.617-8.5977 55.84-21.91 1.3047-1.6992 3.3203-2.6914 5.4609-2.6914s4.1602 0.99609 5.4609 2.6914c5.5977 7.2852 8.5547 15.543 8.5547 23.875 0 14.246-8.2344 27.418-23.188 37.094-14.023 9.0781-32.539 14.078-52.129 14.078zm-59.988-59.398c-1.0352 2.6914-1.5586 5.4414-1.5586 8.2305 0 20.27 28.184 37.391 61.547 37.391 33.359 0 61.543-17.125 61.543-37.391 0-2.7891-0.52344-5.5391-1.5586-8.2305-14.031 12.531-36.051 20.039-59.984 20.039s-45.953-7.5078-59.988-20.039z"/>
  <path d="m537.31 554.49c-28.25 0-53.832-10.457-66.766-27.293-5.5977-7.2852-8.5547-15.543-8.5547-23.875 0-14.246 8.2344-27.418 23.188-37.094 14.027-9.0781 32.543-14.074 52.133-14.074s38.105 5 52.133 14.074c14.953 9.6758 23.188 22.848 23.188 37.094 0 8.3359-2.957 16.59-8.5547 23.875-12.934 16.832-38.516 27.293-66.766 27.293zm0-88.562c-33.359 0-61.547 17.125-61.547 37.395 0 5.3477 1.918 10.559 5.7031 15.484 10.227 13.309 32.145 21.906 55.844 21.906 23.695 0 45.617-8.5977 55.84-21.91 3.7852-4.9258 5.7031-10.137 5.7031-15.484 0-20.266-28.184-37.391-61.543-37.391z"/>
  <path d="m262.69 633.21c-19.59 0-38.105-5-52.133-14.074-14.953-9.6758-23.188-22.848-23.188-37.094 0-8.332 2.957-16.59 8.5547-23.875 1.3008-1.6992 3.3203-2.6914 5.4609-2.6914 2.1406 0 4.1602 0.99609 5.4609 2.6914 10.227 13.309 32.145 21.906 55.844 21.906s45.617-8.5977 55.84-21.91c1.3047-1.6992 3.3203-2.6914 5.4609-2.6914s4.1602 0.99609 5.4609 2.6914c5.5977 7.2891 8.5586 15.547 8.5586 23.879 0 14.246-8.2344 27.418-23.191 37.094-14.027 9.0742-32.539 14.074-52.129 14.074zm-59.988-59.398c-1.0352 2.6914-1.5586 5.4414-1.5586 8.2305 0 20.27 28.184 37.391 61.543 37.391 33.363 0 61.547-17.121 61.547-37.391 0-2.7852-0.52344-5.5352-1.5586-8.2305-14.031 12.531-36.051 20.039-59.984 20.039s-45.953-7.5078-59.988-20.039z"/>
  <path d="m262.69 593.85c-28.25 0-53.832-10.457-66.766-27.293-5.5977-7.2852-8.5547-15.543-8.5547-23.875 0-14.246 8.2344-27.418 23.188-37.094 14.027-9.0781 32.539-14.074 52.133-14.074 19.59 0 38.105 5 52.129 14.074 14.953 9.6758 23.191 22.848 23.191 37.094 0 8.332-2.957 16.59-8.5547 23.875-12.934 16.836-38.516 27.293-66.766 27.293zm0-88.562c-33.359 0-61.543 17.125-61.543 37.391 0 5.3477 1.918 10.559 5.7031 15.484 10.223 13.312 32.141 21.91 55.84 21.91s45.617-8.5977 55.84-21.91c3.7812-4.9258 5.7031-10.133 5.7031-15.48 0-20.27-28.184-37.395-61.543-37.395z"/>
  <path d="m470.64 263.13c-0.13281-0.17578-0.51562-0.46094-1.1484-0.85547-0.63672-0.39453-1.4453-0.82031-2.4336-1.2812-0.98438-0.46094-2.082-0.89844-3.2852-1.3164-1.207-0.41406-2.4219-0.71094-3.6484-0.88672v8.9414l2.1055 0.52734c2.2344 0.61328 4.25 1.2812 6.0469 2.0039s3.3203 1.6211 4.5703 2.6953c1.25 1.0742 2.2109 2.3789 2.8906 3.9102 0.67969 1.5352 1.0195 3.375 1.0195 5.5195 0 2.5-0.4375 4.625-1.3164 6.375-0.875 1.7539-2.0469 3.1875-3.5156 4.3047-1.4688 1.1172-3.1523 1.9609-5.0625 2.5312-1.9062 0.57031-3.9102 0.89844-6.0117 0.98438v7.625h-4.5352v-7.6914c-3.0234-0.26172-6.0156-0.875-8.9727-1.8398-2.957-0.96484-5.6211-2.2344-7.9844-3.8125l4.7344-9.3984c0.17578 0.21875 0.64453 0.58203 1.4141 1.0859 0.76562 0.50391 1.7422 1.0312 2.9258 1.5781 1.1836 0.54688 2.5195 1.0742 4.0117 1.5781 1.4883 0.50391 3.0234 0.86719 4.6016 1.0859v-8.7422l-3.1562-0.92188c-2.1484-0.65625-4.0117-1.3711-5.5859-2.1367-1.5781-0.76562-2.8828-1.6523-3.9102-2.6602-1.0312-1.0078-1.7969-2.168-2.3008-3.4844-0.50391-1.3164-0.75781-2.8477-0.75781-4.6016 0-2.2773 0.39453-4.3047 1.1836-6.082 0.78906-1.7734 1.8516-3.2969 3.1875-4.5703 1.3359-1.2695 2.9141-2.2656 4.7344-2.9922 1.8164-0.72266 3.7773-1.1953 5.8828-1.4141l-0.011719-6.6328h4.5352v6.6406c2.8477 0.26562 5.5195 0.89844 8.0195 1.9062 2.4961 1.0078 4.668 2.0352 6.5078 3.0898zm-18.207-0.59375c0 1.0977 0.38281 1.9609 1.1484 2.5977 0.76562 0.63672 1.9141 1.1953 3.4492 1.6758v-8.0859c-3.0625 0.26172-4.5977 1.5352-4.5977 3.8125zm12.754 20.902c0-1.1406-0.46094-2.0273-1.3789-2.6602-0.92188-0.63281-2.1484-1.2148-3.6797-1.7422v7.8867c3.3711-0.13281 5.0586-1.293 5.0586-3.4844z"/>
  <path d="m323.04 351.69c-0.13281-0.17578-0.51562-0.46094-1.1484-0.85547-0.63672-0.39453-1.4453-0.82031-2.4336-1.2812-0.98438-0.46094-2.082-0.89844-3.2852-1.3164-1.207-0.41406-2.4219-0.71094-3.6484-0.88672v8.9414l2.1055 0.52734c2.2344 0.61328 4.25 1.2812 6.0469 2.0039 1.7969 0.72266 3.3203 1.6211 4.5703 2.6953s2.2148 2.3789 2.8906 3.9102c0.67969 1.5352 1.0195 3.375 1.0195 5.5195 0 2.5-0.4375 4.625-1.3164 6.375-0.875 1.7539-2.0469 3.1875-3.5156 4.3047-1.4688 1.1172-3.1562 1.9609-5.0625 2.5312-1.9062 0.57031-3.9102 0.89844-6.0156 0.98438v7.625h-4.5352v-7.6914c-3.0234-0.26172-6.0156-0.875-8.9727-1.8398-2.957-0.96484-5.6211-2.2344-7.9844-3.8125l4.7305-9.3984c0.17578 0.21875 0.64844 0.58203 1.4141 1.0859 0.76562 0.50391 1.7422 1.0312 2.9258 1.5781s2.5195 1.0742 4.0117 1.5781c1.4883 0.50391 3.0234 0.86719 4.6016 1.0859v-8.7422l-3.1562-0.92188c-2.1484-0.65625-4.0117-1.3711-5.5859-2.1367-1.5781-0.76563-2.8828-1.6523-3.9102-2.6641-1.0273-1.0078-1.7969-2.168-2.3008-3.4844-0.50391-1.3125-0.75391-2.8477-0.75391-4.6016 0-2.2773 0.39453-4.3047 1.1836-6.082 0.78906-1.7734 1.8516-3.2969 3.1875-4.5703 1.3359-1.2695 2.9141-2.2656 4.7305-2.9922 1.8164-0.72266 3.7773-1.1953 5.8828-1.4141l-0.003906-6.6289h4.5352v6.6406c2.8477 0.26563 5.5195 0.89844 8.0195 1.9062 2.5 1.0078 4.668 2.0352 6.5078 3.0898zm-18.203-0.59375c0 1.0977 0.38281 1.9609 1.1484 2.5977 0.76562 0.63672 1.918 1.1953 3.4531 1.6758v-8.0859c-3.0703 0.26562-4.6016 1.5352-4.6016 3.8125zm12.75 20.902c0-1.1406-0.46094-2.0273-1.3789-2.6602-0.92188-0.63281-2.1484-1.2148-3.6797-1.7422v7.8867c3.3711-0.12891 5.0586-1.293 5.0586-3.4844z"/>
  <path d="m272.07 503.88c-1.6914 0-3.3828-0.61719-4.7109-1.8672-19.121-17.945-34.168-39.156-44.73-63.039-10.938-24.723-16.484-51.078-16.484-78.332 0-106.89 86.961-193.85 193.85-193.85 106.89 0 193.85 86.961 193.85 193.85 0 36.633-10.012 70.039-30.613 102.12-2.0547 3.1992-6.3164 4.1289-9.5195 2.0742-3.1992-2.0547-4.1289-6.3164-2.0742-9.5195 19.137-29.789 28.434-60.758 28.434-94.676 0-99.293-80.781-180.07-180.07-180.07-99.289 0.003906-180.07 80.781-180.07 180.07 0 50.27 20.195 96.906 56.863 131.32 2.7734 2.6055 2.9102 6.9609 0.30859 9.7383-1.3555 1.4453-3.1875 2.1758-5.0234 2.1758z"/>
  <path d="m400 367.53c-1.5117 0-3.0039-0.49609-4.2305-1.4531l-88.559-68.879c-3.0039-2.3359-3.543-6.6641-1.207-9.6641 2.3359-3.0039 6.6641-3.543 9.6641-1.207l85.652 66.617 85.062-28.355c3.6094-1.207 7.5117 0.74609 8.7109 4.3555 1.2031 3.6094-0.74609 7.5117-4.3555 8.7109l-88.559 29.52c-0.71484 0.23828-1.4492 0.35547-2.1797 0.35547z"/>
 </g>
</svg>