<?xml version="1.0" encoding="UTF-8"?>
<!-- The Best Svg Icon site in the world: iconSvg.co, Visit us! https://iconsvg.co -->
<svg fill="#000000" width="800px" height="800px" version="1.1" viewBox="144 144 512 512" xmlns="http://www.w3.org/2000/svg">
 <path d="m605.25 455.97c-1.9922-0.625-4.1562-0.43359-6.0078 0.53516-1.8516 0.96875-3.2422 2.6328-3.8633 4.6289-14.582 46.734-45.43 86.691-86.949 112.63-41.52 25.934-90.961 36.129-139.35 28.734-48.395-7.3945-92.535-31.891-124.41-69.043-31.879-37.152-49.383-84.5-49.344-133.45 0-1.4961 0.14062-2.9453 0.17188-4.4414l8.6445 8.6445c3.0898 2.9805 8 2.9414 11.035-0.097656 3.0391-3.0352 3.082-7.9453 0.097657-11.035l-22.246-22.262c-3.0742-3.0742-8.0586-3.0742-11.133 0l-22.277 22.277c-2.9805 3.0898-2.9375 8 0.097656 11.035 3.0352 3.0391 7.9453 3.082 11.035 0.097656l9.0195-9.0195c0 1.5742-0.20312 3.1484-0.20312 4.8164-0.050781 52.723 18.801 103.72 53.129 143.73 34.332 40.016 81.871 66.398 133.99 74.363 52.121 7.9648 105.37-3.0156 150.08-30.953 44.719-27.934 77.938-70.973 93.637-121.3 0.63281-1.9922 0.44141-4.1562-0.52344-6.0117s-2.6289-3.25-4.625-3.875zm-192.88 10.453h-24.75c-7.7617-0.007813-15.199-3.0938-20.688-8.582-5.4883-5.4844-8.5742-12.926-8.582-20.684 0-4.3477-3.5234-7.875-7.8711-7.875s-7.8711 3.5273-7.8711 7.875c0.011719 11.934 4.7578 23.375 13.195 31.812s19.883 13.184 31.816 13.199h4.5v16.895-0.003906c0 4.3477 3.5273 7.875 7.875 7.875s7.8711-3.5273 7.8711-7.875v-16.891h4.5039c16.082 0 30.945-8.582 38.988-22.512 8.0391-13.93 8.0391-31.09 0-45.02-8.043-13.93-22.906-22.512-38.988-22.512h-24.75c-10.461 0-20.125-5.5781-25.355-14.637-5.2305-9.0586-5.2305-20.219 0-29.277 5.2305-9.0547 14.895-14.637 25.355-14.637h24.75c7.7578 0.007812 15.199 3.0938 20.684 8.582 5.4883 5.4883 8.5742 12.926 8.582 20.688 0 4.3477 3.5234 7.8711 7.8711 7.8711 4.3477 0 7.875-3.5234 7.875-7.8711-0.011719-11.934-4.7617-23.379-13.199-31.816s-19.879-13.184-31.812-13.195h-4.5039v-16.895c0-4.3477-3.5234-7.8711-7.8711-7.8711s-7.875 3.5234-7.875 7.8711v16.895h-4.5039 0.003906c-16.086 0-30.949 8.5781-38.988 22.508-8.043 13.93-8.043 31.09 0 45.02 8.0391 13.93 22.902 22.512 38.988 22.512h24.75c10.457 0 20.121 5.5781 25.352 14.637 5.2305 9.0586 5.2305 20.219 0 29.277-5.2305 9.0586-14.895 14.637-25.352 14.637zm227.99-70.629c-3.0742-3.0703-8.0586-3.0703-11.133 0l-9.0352 9.0352c0-1.5742 0.20313-3.1484 0.20313-4.8164v0.003906c0.035156-52.781-18.875-103.82-53.289-143.84-34.41-40.023-82.043-66.367-134.23-74.242s-105.48 3.2383-150.16 31.32c-44.691 28.082-77.82 71.27-93.367 121.71-0.69141 2.0117-0.53516 4.2227 0.42969 6.1211 0.96484 1.8984 2.6562 3.3242 4.6914 3.9531s4.2383 0.40625 6.1055-0.61719c1.8711-1.0234 3.2422-2.7617 3.8086-4.8125 14.418-46.859 45.18-86.984 86.684-113.08s90.992-36.422 139.47-29.109c48.477 7.3164 92.719 31.785 124.68 68.965 31.961 37.176 49.512 84.59 49.465 133.62 0 1.4961-0.15625 2.9453-0.1875 4.4258l-8.6289-8.6289v-0.003906c-3.0898-2.9805-8-2.9375-11.035 0.097656-3.0391 3.0352-3.082 7.9453-0.097656 11.035l22.262 22.262c3.0742 3.0742 8.0586 3.0742 11.133 0l22.262-22.262c1.4805-1.4766 2.3125-3.4805 2.3125-5.5742 0-2.0898-0.83203-4.0938-2.3125-5.5742zm-240.36 161.64c41.754 0 81.801-16.586 111.32-46.113 29.527-29.523 46.113-69.57 46.113-111.32 0-41.758-16.586-81.805-46.113-111.33-29.523-29.527-69.57-46.113-111.32-46.113-41.758 0-81.805 16.586-111.33 46.113-29.527 29.523-46.113 69.57-46.113 111.33 0.050781 41.738 16.652 81.754 46.168 111.27 29.516 29.516 69.531 46.121 111.27 46.168zm0-299.14c37.578 0 73.621 14.93 100.19 41.504 26.574 26.574 41.504 62.613 41.504 100.2 0 37.578-14.93 73.621-41.504 100.19-26.57 26.574-62.613 41.504-100.19 41.504-37.582 0-73.621-14.93-100.2-41.504-26.574-26.57-41.504-62.613-41.504-100.19 0.042969-37.57 14.984-73.586 41.551-100.15 26.562-26.566 62.578-41.508 100.15-41.551z"/>
</svg>