<?xml version="1.0" encoding="UTF-8"?>
<!-- The Best Svg Icon site in the world: iconSvg.co, Visit us! https://iconsvg.co -->
<svg width="800px" height="800px" version="1.1" viewBox="144 144 512 512" xmlns="http://www.w3.org/2000/svg">
 <defs>
  <clipPath id="a">
   <path d="m148.09 250h503.81v300h-503.81z"/>
  </clipPath>
 </defs>
 <g clip-path="url(#a)">
  <path d="m634.72 360.97c-43.809-41.266-132.56-110.54-234.72-110.54-102.16 0-190.91 69.273-234.73 110.54-10.941 10.027-17.176 24.188-17.176 39.031 0 14.84 6.2344 29 17.176 39.027 43.816 41.266 132.57 110.54 234.73 110.54s190.91-69.273 234.72-110.54c10.949-10.023 17.184-24.184 17.184-39.027s-6.2344-29.008-17.184-39.031zm-10.793 66.582c-42.082 39.707-127.2 106.27-223.93 106.27-96.727 0-181.84-66.566-223.93-106.27-7.7852-7.0547-12.23-17.07-12.23-27.574 0-10.508 4.4453-20.523 12.23-27.578 42.086-39.66 127.21-106.22 223.93-106.22 96.715 0 181.84 66.566 223.93 106.27v-0.003907c7.7891 7.0508 12.234 17.07 12.234 27.578 0 10.508-4.4453 20.523-12.234 27.574z"/>
 </g>
 <path d="m400 281.92c-31.316 0-61.352 12.441-83.496 34.586-22.145 22.145-34.586 52.18-34.586 83.496s12.441 61.348 34.586 83.492c22.145 22.145 52.18 34.586 83.496 34.586s61.348-12.441 83.492-34.586c22.145-22.145 34.586-52.176 34.586-83.492-0.035156-31.309-12.488-61.32-34.625-83.457s-52.148-34.59-83.453-34.625zm0 220.42c-27.145 0-53.172-10.781-72.363-29.977-19.191-19.191-29.973-45.219-29.973-72.359 0-27.145 10.781-53.172 29.973-72.363 19.191-19.191 45.219-29.973 72.363-29.973 27.141 0 53.168 10.781 72.359 29.973 19.195 19.191 29.977 45.219 29.977 72.363-0.03125 27.129-10.824 53.141-30.008 72.328-19.188 19.184-45.199 29.977-72.328 30.008z"/>
 <path d="m400 313.41c-20.359-0.003906-40.07 7.168-55.668 20.254-15.598 13.086-26.086 31.246-29.621 51.297-3.5391 20.051 0.10156 40.707 10.281 58.336 2.1914 3.7344 6.9805 5 10.73 2.8359 3.7461-2.1602 5.043-6.9453 2.9062-10.707-11.828-20.438-12.695-45.426-2.3125-66.637 10.387-21.207 30.652-35.848 54.051-39.043 23.395-3.1953 46.848 5.4766 62.535 23.129 15.688 17.648 21.551 41.953 15.637 64.816-5.9141 22.859-22.832 41.27-45.113 49.098-22.277 7.8242-46.992 4.0352-65.906-10.109-3.4766-2.6055-8.4102-1.9023-11.02 1.5742-2.6094 3.4805-1.9023 8.4141 1.5742 11.023 22.27 16.703 51.211 21.68 77.781 13.375 26.57-8.3008 47.531-28.871 56.328-55.281 8.7969-26.41 4.3633-55.441-11.922-78.02-16.281-22.578-42.426-35.953-70.262-35.941z"/>
 <path d="m400.46 423.61h-16.211c-4.3477 0-7.8711 3.5273-7.8711 7.875 0 4.3477 3.5234 7.8711 7.8711 7.8711h16.211c8.4336-0.082031 16.188-4.6602 20.336-12.012 4.1445-7.3477 4.0547-16.348-0.23438-23.613-4.2891-7.2656-12.129-11.691-20.566-11.609-4.3477 0-7.875-3.5234-7.875-7.8711s3.5273-7.8711 7.875-7.8711h16.207c4.3477 0 7.8711-3.5234 7.8711-7.8711 0-4.3477-3.5234-7.875-7.8711-7.875h-16.207c-8.4375 0.085937-16.191 4.6641-20.336 12.012-4.1484 7.3477-4.0586 16.352 0.23047 23.613 4.2891 7.2656 12.133 11.691 20.57 11.609 4.3477 0 7.8711 3.5234 7.8711 7.8711 0 4.3477-3.5234 7.8711-7.8711 7.8711z"/>
 <path d="m544.73 263.14c2.0859 0 4.0898-0.83203 5.5664-2.3086l17.488-17.492c8.8789 5.2383 19.758 5.7969 29.129 1.4961 9.3672-4.3008 16.039-12.91 17.859-23.055 1.8203-10.148-1.4414-20.543-8.7266-27.828-7.2891-7.2891-17.684-10.551-27.828-8.7305-10.148 1.8242-18.758 8.4922-23.059 17.863-4.2969 9.3672-3.7383 20.246 1.4961 29.125l-17.484 17.492c-2.25 2.25-2.9219 5.6367-1.707 8.5781 1.2188 2.9414 4.0898 4.8594 7.2734 4.8594zm27.828-57.973c2.9531-2.9492 6.957-4.6094 11.133-4.6055 4.1719 0 8.1758 1.6562 11.129 4.6094s4.6133 6.957 4.6133 11.133c0 4.1758-1.6602 8.1797-4.6133 11.133s-6.957 4.6094-11.129 4.6133c-4.1758 0-8.1797-1.6602-11.133-4.6094-2.9688-2.9453-4.6367-6.957-4.6367-11.137 0-4.1797 1.668-8.1875 4.6367-11.137z"/>
 <path d="m249.71 539.16-17.492 17.492c-8.8828-5.2344-19.762-5.7891-29.129-1.4883-9.3672 4.3047-16.035 12.918-17.852 23.062-1.8203 10.148 1.4453 20.539 8.7344 27.828 7.293 7.2852 17.688 10.539 27.832 8.7148 10.148-1.8242 18.758-8.5 23.051-17.867 4.2969-9.3711 3.7344-20.25-1.5078-29.129l17.492-17.484v0.003907c2.9844-3.0898 2.9414-8-0.09375-11.035-3.0391-3.0391-7.9492-3.082-11.035-0.097656zm-22.262 55.664c-2.9531 2.9492-6.957 4.6094-11.133 4.6094s-8.1797-1.6602-11.133-4.6133c-2.9531-2.9531-4.6094-6.957-4.6094-11.133s1.6562-8.1797 4.6094-11.133c2.9531-2.9492 6.957-4.6094 11.133-4.6094s8.1797 1.6562 11.133 4.6094c2.9531 2.9531 4.6133 6.957 4.6133 11.133s-1.6602 8.1836-4.6133 11.137z"/>
 <path d="m216.31 247.78c5.6016-0.035156 11.09-1.5664 15.902-4.4336l17.492 17.492c3.0859 2.9844 7.9961 2.9414 11.035-0.09375 3.0352-3.0391 3.0781-7.9492 0.09375-11.035l-17.492-17.484c4.6875-8.0234 5.5781-17.711 2.4336-26.453-3.1445-8.7422-10-15.641-18.719-18.844-8.7227-3.1992-18.414-2.3711-26.469 2.2617-8.0508 4.6328-13.637 12.598-15.254 21.746-1.6133 9.1484 0.90625 18.543 6.8867 25.656 5.9766 7.1094 14.801 11.207 24.09 11.188zm-11.141-42.605c2.9531-2.9492 6.9609-4.6094 11.133-4.6055 4.1758 0 8.1797 1.6562 11.133 4.6094s4.6094 6.957 4.6094 11.133c0 4.1758-1.6562 8.1797-4.6094 11.133s-6.957 4.6094-11.133 4.6133c-4.1719 0-8.1797-1.6602-11.133-4.6094-2.9531-2.9531-4.6133-6.9609-4.6133-11.137 0-4.1758 1.6602-8.1836 4.6133-11.137z"/>
 <path d="m567.77 556.65-17.484-17.484h0.003907c-3.0898-2.9844-8-2.9414-11.035 0.097656-3.0391 3.0352-3.082 7.9453-0.097656 11.035l17.492 17.48c-5.2344 8.8828-5.7891 19.762-1.4883 29.129 4.3047 9.3672 12.918 16.035 23.062 17.852 10.148 1.8203 20.539-1.4453 27.828-8.7344 7.2852-7.293 10.539-17.688 8.7148-27.832-1.8242-10.145-8.5-18.754-17.867-23.051-9.3711-4.2969-20.25-3.7305-29.129 1.5078zm27.047 38.18h0.003907c-2.9531 2.9492-6.957 4.6094-11.133 4.6094-4.1758 0-8.1797-1.6602-11.133-4.6133s-4.6094-6.957-4.6094-11.133c0-4.1758 1.6562-8.1797 4.6094-11.133 2.9531-2.9492 6.957-4.6094 11.133-4.6094 4.1758 0 8.1797 1.6562 11.133 4.6094 2.9492 2.9492 4.6094 6.9531 4.6094 11.129 0 4.1758-1.6602 8.1797-4.6094 11.133z"/>
</svg>