<?xml version="1.0" encoding="UTF-8"?>
<!-- The Best Svg Icon site in the world: iconSvg.co, Visit us! https://iconsvg.co -->
<svg fill="#000000" width="800px" height="800px" version="1.1" viewBox="144 144 512 512" xmlns="http://www.w3.org/2000/svg">
 <g>
  <path d="m515.84 541.95c5.3359 0 10.453 2.1211 14.23 5.8945 3.7734 3.7734 5.8945 8.8906 5.8945 14.23 0 5.3359-2.1211 10.457-5.8945 14.23-3.7734 3.7734-8.8945 5.8945-14.23 5.8945-5.3359 0-10.457-2.1211-14.23-5.8945-3.7734-3.7734-5.8945-8.8945-5.8945-14.23 0-3.2617-2.6445-5.9062-5.9062-5.9062-3.2578 0-5.9023 2.6445-5.9023 5.9062 0.007812 6.9688 2.2969 13.746 6.5117 19.297 4.2148 5.5508 10.129 9.5742 16.84 11.453v10.859c0 3.2617 2.6445 5.9023 5.9062 5.9023 3.2578 0 5.9023-2.6406 5.9023-5.9023v-9.8398c10.969-1.1133 20.586-7.8086 25.441-17.703 4.8594-9.8984 4.2656-21.602-1.5664-30.957-5.832-9.3594-16.078-15.043-27.102-15.043-5.3398 0-10.457-2.1211-14.23-5.8945-3.7773-3.7734-5.8945-8.8945-5.8945-14.23 0-5.3359 2.1172-10.457 5.8945-14.23 3.7734-3.7734 8.8906-5.8945 14.23-5.8945 5.3359 0 10.457 2.1211 14.23 5.8945 3.7734 3.7734 5.8945 8.8945 5.8945 14.23 0 3.2617 2.6406 5.9062 5.9023 5.9062s5.9023-2.6445 5.9023-5.9062c-0.007813-7.2188-2.4609-14.223-6.957-19.871-4.5-5.6523-10.773-9.6133-17.809-11.238v-8.0625c0-3.2617-2.6445-5.9062-5.9062-5.9062-3.2578 0-5.9023 2.6445-5.9023 5.9062v7.582c-10.742 1.5781-19.945 8.5039-24.438 18.387-4.4883 9.8828-3.6484 21.371 2.2305 30.5 5.8789 9.125 15.992 14.637 26.852 14.637z"/>
  <path d="m183.66 599.75h249.45c19.523 23.617 49.355 39.477 82.734 39.477v0.003907c38.031 0.011719 73.18-20.262 92.207-53.188 19.027-32.93 19.043-73.504 0.042969-106.45-19.004-32.941-54.137-53.242-92.164-53.258-20.523 0-40.148 5.8242-55.891 15.93l-0.003906-275.5c-0.078125-3.293-2.7852-5.9102-6.0742-5.8828h-270.3c-3.2852-0.023438-5.9766 2.5977-6.043 5.8828v426.88c0.050781 3.3281 2.7188 6.0234 6.043 6.1016zm229.13-91.918v-21.301c0-3.2617-2.6406-5.9062-5.9023-5.9062s-5.9023 2.6445-5.9023 5.9062v30.562h-35.906c-0.74609-0.98438-1.5742-0.53516-2.4414-0.53516-0.86719 0-1.6992-0.44922-2.4414 0.53516h-35.965v-30.562c0-3.2617-2.6445-5.9062-5.9023-5.9062-3.2617 0-5.9062 2.6445-5.9062 5.9062v30.562h-35.008c-0.74609-0.98438-1.5742-0.53516-2.4414-0.53516-0.86719 0-1.6992-0.44922-2.4414 0.53516h-35.879v-30.562c0-3.2617-2.6406-5.9062-5.9023-5.9062s-5.9023 2.6445-5.9023 5.9062v30.562h-35.426v-60.023h79.703v29.992c0 3.2617 2.6445 5.9062 5.9062 5.9062 3.2578 0 5.9023-2.6445 5.9023-5.9062v-29.992h75.77v29.992c0 3.2617 2.6406 5.9062 5.9023 5.9062s5.9062-2.6445 5.9062-5.9062v-29.992h72.191c-13.68 13.777-23.977 31.367-27.914 50.762zm-143.66-192.46v29.574c0 3.2617 2.6445 5.9023 5.9062 5.9023 3.2578 0 5.9023-2.6406 5.9023-5.9023v-29.574h75.77v29.574c0 3.2617 2.6406 5.9023 5.9023 5.9023s5.9062-2.6406 5.9062-5.9023v-29.574h79.703v59.039h-35.426v-30c0-3.2617-2.6406-5.9023-5.9023-5.9023s-5.9023 2.6406-5.9023 5.9023v30h-76.754v-30c0-3.2617-2.6445-5.9023-5.9023-5.9023-3.2617 0-5.9062 2.6406-5.9062 5.9023v30h-75.77v-30c0-3.2617-2.6406-5.9023-5.9023-5.9023s-5.9023 2.6406-5.9023 5.9023v30h-35.426v-59.039zm0 70.848v29.785c0 3.2578 2.6445 5.9023 5.9062 5.9023 3.2578 0 5.9023-2.6445 5.9023-5.9023v-29.785h75.77v29.785c0 3.2578 2.6406 5.9023 5.9023 5.9023s5.9062-2.6445 5.9062-5.9023v-29.785h79.703v59.039h-35.426v-29.789c0-3.2617-2.6406-5.9023-5.9023-5.9023s-5.9023 2.6406-5.9023 5.9023v29.789h-76.754v-29.789c0-3.2617-2.6445-5.9023-5.9023-5.9023-3.2617 0-5.9062 2.6406-5.9062 5.9023v29.789h-75.77v-29.789c0-3.2617-2.6406-5.9023-5.9023-5.9023s-5.9023 2.6406-5.9023 5.9023v29.789h-35.426v-59.039zm0-141.7v29.363c0 3.2578 2.6445 5.9023 5.9062 5.9023 3.2578 0 5.9023-2.6445 5.9023-5.9023v-29.363h75.77v29.363c0 3.2578 2.6406 5.9023 5.9023 5.9023s5.9062-2.6445 5.9062-5.9023v-29.363h79.703v58.055h-35.426v-29.227c0-3.2578-2.6406-5.9023-5.9023-5.9023s-5.9023 2.6445-5.9023 5.9023v29.227h-76.754v-29.227c0-3.2578-2.6445-5.9023-5.9023-5.9023-3.2617 0-5.9062 2.6445-5.9062 5.9023v29.227h-75.77v-29.227c0-3.2578-2.6406-5.9023-5.9023-5.9023s-5.9023 2.6445-5.9023 5.9023v29.227h-35.426v-58.055zm-79.703 284.38h79.703v29.227c0 3.2578 2.6445 5.9023 5.9062 5.9023 3.2578 0 5.9023-2.6445 5.9023-5.9023v-29.227h75.77v29.227c0 3.2578 2.6406 5.9023 5.9023 5.9023s5.9062-2.6445 5.9062-5.9023v-29.227h41.004c-0.054687 0.98438-0.089844 2.6055-0.089844 4.0234-0.003906 7.4648 0.78906 14.914 2.3594 22.215-1.0742-2.4922-3.7695-3.8672-6.418-3.2656-2.6484 0.59766-4.4922 3-4.3828 5.7148v30.352h-76.754v-30.352c0-3.2617-2.6445-5.9062-5.9023-5.9062-3.2617 0-5.9062 2.6445-5.9062 5.9062v30.352h-75.77v-30.352c0-3.2617-2.6406-5.9062-5.9023-5.9062s-5.9023 2.6445-5.9023 5.9062v30.352h-35.426zm223.37 59.039v-30.328c1.9688 10.77 6.3984 20.488 11.996 30.328zm197.64-55.223 0.003906 0.003906c0 33.797-18.031 65.027-47.301 81.926-29.27 16.898-65.332 16.898-94.602 0-29.273-16.898-47.305-48.129-47.305-81.926 0-2.7031 0.12109-5.3789 0.34375-8.0234h0.003906c0.37891-0.97266 0.48438-2.0312 0.30469-3.0625 2.9336-24.723 15.496-47.293 34.961-62.816 0.51953-0.29297 0.99219-0.66016 1.3984-1.0938 18.762-14.43 42.25-21.301 65.828-19.25 23.582 2.0469 45.535 12.867 61.523 30.316 15.992 17.449 24.855 40.262 24.844 63.93zm-341.31-360.02v30.137c0 3.2617 2.6445 5.9023 5.9062 5.9023 3.2578 0 5.9023-2.6406 5.9023-5.9023v-30.137h75.77v30.137c0 3.2617 2.6406 5.9023 5.9023 5.9023s5.9062-2.6406 5.9062-5.9023v-30.137h79.703v59.039h-35.426v-29.438c0-3.2617-2.6406-5.9023-5.9023-5.9023s-5.9023 2.6406-5.9023 5.9023v29.438h-76.754v-29.438c0-3.2617-2.6445-5.9023-5.9023-5.9023-3.2617 0-5.9062 2.6406-5.9062 5.9023v29.438h-75.77v-29.438c0-3.2617-2.6406-5.9023-5.9023-5.9023s-5.9023 2.6406-5.9023 5.9023v29.438h-35.426v-59.039z"/>
 </g>
</svg>