<?xml version="1.0" encoding="UTF-8"?>
<!-- The Best Svg Icon site in the world: iconSvg.co, Visit us! https://iconsvg.co -->
<svg fill="#000000" width="800px" height="800px" version="1.1" viewBox="144 144 512 512" xmlns="http://www.w3.org/2000/svg">
 <g>
  <path d="m294 352.77h30.129c2.7344 0 4.9375-2.5195 4.9375-5.2461 0-2.7305-2.2109-5.2461-4.9375-5.2461h-35.293c-1.4688 0-2.8672-0.28516-3.8047 0.85156-0.9375 1.1328-1.3242 2.1523-1.043 3.5938 0.125 0.70312 0.21484 1.1797 0.21484 1.9219 0 6.5547-5.6055 11.766-12.508 11.766-0.79297 0-1.5586-0.14062-2.3125-0.28516-1.4336-0.25781-2.9336 0.10938-4.0586 1.0391-1.1172 0.94141-1.7734 2.3008-1.7734 3.7617v64.281c0 1.4531 0.64453 2.832 1.7617 3.7734 1.1172 0.94531 2.5625 1.3438 4.0234 1.0898 0.76562-0.125 1.5547-0.21484 2.3633-0.21484 6.8945 0 12.5 5.3281 12.5 11.875 0 0.75-0.078125 1.4648-0.21484 2.1797-0.26172 1.4414 0.11719 2.2969 1.0508 3.4219 0.94141 1.1367 2.3359 1.1523 3.8008 1.1523h153.62c2.7344 0 4.9375-2.5195 4.9375-5.2461 0-2.7305-2.2109-5.2461-4.9375-5.2461l-148.45-0.003906c-0.92578-5.25-9.457-17.125-19.953-17.941v-53.949c10.496-0.81641 19.023-12.078 19.953-17.328z"/>
  <path d="m514.58 343.13c-0.9375-1.1406-2.3359-0.86328-3.8164-0.86328h-153.42c-2.7305 0-4.9336 2.5195-4.9336 5.2461 0 2.7305 2.2109 5.2461 4.9336 5.2461h148.26c0.92188 5.2539 9.8516 16.516 20.348 17.332v53.949c-10.496 0.81641-19.434 12.691-20.352 17.941h-30.113c-2.7305 0-4.9336 2.5195-4.9336 5.2461 0 2.7305 2.2109 5.2461 4.9336 5.2461h35.281c1.4688 0 2.8711-0.019531 3.8086-1.1602 0.9375-1.1328 1.3242-2.3047 1.043-3.7539-0.13281-0.70703-0.22656-1.2578-0.22656-2.0039 0-6.543 5.6094-11.793 12.508-11.793 0.80859 0 1.5938 0.125 2.3633 0.26172 1.4336 0.24219 3.1133-0.13281 4.2266-1.0742 1.1094-0.92969 1.957-2.2891 1.957-3.75v-64.281c0-1.457-0.85547-2.8516-1.9766-3.793-1.1289-0.9375-2.7188-1.3398-4.1523-1.0664-0.75 0.13672-1.5742 0.21875-2.3672 0.21875-6.8945 0-12.531-5.332-12.531-11.883 0-0.73828 0.078125-0.98047 0.21094-1.6641 0.28906-1.4414-0.10938-2.4648-1.0508-3.6016z"/>
  <path d="m365.95 396.53c0 21.043 15.188 38.16 33.855 38.16 18.668 0 33.855-17.117 33.855-38.16 0-21.039-15.191-38.16-33.855-38.16-18.672-0.003906-33.855 17.113-33.855 38.16zm57.832 0c0 15.602-10.758 28.285-23.977 28.285s-23.984-12.684-23.984-28.285c0-15.598 10.766-28.285 23.984-28.285 13.219-0.003906 23.977 12.688 23.977 28.285z"/>
  <path d="m342.19 251.13c0.97266 1.0508 2.2969 1.5781 3.6211 1.5781 1.2031 0 2.4023-0.42969 3.3516-1.3164 2.0039-1.8516 2.1211-4.9766 0.26953-6.9766l-18.914-20.426c-1.8477-2.0117-4.9766-2.125-6.9766-0.26953-2.0039 1.8516-2.1211 4.9766-0.26953 6.9766z"/>
  <path d="m619.75 517.33c-0.80078-1.7617-2.5625-1.875-4.5-1.875h-42.066v-189.36c0-2.7227-2.0938-4.9297-4.8242-4.9336l-241.83-0.31641v-41.555h41.844c1.8984 0 3.625-0.074219 4.4492-1.7852 0.82422-1.7109 0.58594-3.2344-0.59766-4.707l-12.73-15.594c-1.707-2.125-4.8125-2.3398-6.9375-0.62891-2.125 1.707-2.4648 6.1719-0.76172 8.2969l6.2734 9.1719h-37.004c-2.7266 0-5.0312-0.375-5.0312 2.3555v49.375c0 2.7305 2.0938 4.9336 4.8164 4.9375l241.84 0.3125v187.31c0 2.7344 2.5273 2.3633 5.2578 2.3633h36.398l-80.023 92.254-35.473-37.676c-1.8594-2.0156-4.9805-1.7773-6.9766 0.074219-2.0117 1.8516-2.125 5.1953-0.27734 7.1953l39.191 41.879c0.92969 1.0195 2.2461 1.2344 3.6211 1.2344h0.058594c1.4023 0 2.7305-0.1875 3.6484-1.2344l90.848-102.64c1.2812-1.457 1.5859-2.6875 0.78906-4.4609z"/>
  <path d="m479 565.8-18.914-20.426c-1.8477-2.0117-4.9805-2.125-6.9766-0.26953-2.0039 1.8516-2.1211 4.9766-0.26953 6.9766l18.914 20.43c0.97266 1.0508 2.2969 1.5859 3.6211 1.5859 1.2031 0 2.4023-0.4375 3.3516-1.3164 2.0117-1.8594 2.125-4.9766 0.27344-6.9805z"/>
  <path d="m443.77 520.7h35.297c2.7305 0 4.8945 0.37109 4.8945-2.3555v-49.375c0-2.7344-2.1641-5.9961-4.8984-5.9961h-241.76v-186.57c0-2.7305-2.3906-2.3555-5.125-2.3555h-34.203l79.418-90.992 34.953 37.199c1.8516 2.0117 4.9688 1.6992 6.9766-0.14062 2.0117-1.8516 2.1289-5.3516 0.28906-7.3594l-38.652-41.77c-0.94141-1.0273-2.2539-1.8984-3.6406-1.8984h-0.046875c-1.3945 0-2.7227 0.83984-3.6406 1.8789l-90.312 102.5c-1.2852 1.4531-1.6016 2.3359-0.80469 4.1094 0.80078 1.7734 2.5625 1.7188 4.5039 1.7188h39.789v189.67c0 2.7305 2.6484 4.5078 5.3711 4.5078h241.29v41.984h-39.566c-1.8672 0-3.5781 0.03125-4.418 1.6992-0.82812 1.6797-0.65625 3.168 0.46875 4.6641l11.473 15.055c0.97656 1.2891 2.457 1.8516 3.957 1.8516 1.0273 0 2.0742-0.38672 2.9531-1.0508 2.1836-1.6367 2.6289-6.0508 0.99219-8.2344z"/>
 </g>
</svg>