<?xml version="1.0" encoding="UTF-8"?>
<!-- The Best Svg Icon site in the world: iconSvg.co, Visit us! https://iconsvg.co -->
<svg fill="#000000" width="800px" height="800px" version="1.1" viewBox="144 144 512 512" xmlns="http://www.w3.org/2000/svg">
 <g>
  <path d="m292 453.21c0 2.0859 0.82812 4.0898 2.3047 5.5664 1.4766 1.4766 3.4766 2.3047 5.5664 2.3047h10.941c-1.7461 3.3086-0.92578 7.3867 1.9688 9.7617 1.3281 0.96094 2.9258 1.4844 4.5664 1.4961 2.4336-0.007812 4.7305-1.1406 6.2188-3.0703l8.2656-11.336c1.7617-2.6445 1.7617-6.0938 0-8.7383l-8.2656-11.258c-2.5703-3.3555-7.332-4.0859-10.785-1.6523-2.9492 2.3281-3.8359 6.418-2.125 9.7617h-10.945c-4.0234 0.0625-7.3516 3.1523-7.7109 7.1641z"/>
  <path d="m277.43 460.85h1.1836c3.582-0.81641 6.1211-4 6.1211-7.6719 0-3.6758-2.5391-6.8594-6.1211-7.6758h-1.1836c-2.332-0.53516-4.7852 0.027344-6.6562 1.5195-1.875 1.4961-2.9648 3.7578-2.9648 6.1562 0 2.3945 1.0898 4.6602 2.9648 6.1523 1.8711 1.4922 4.3242 2.0547 6.6562 1.5195z"/>
  <path d="m269.88 495.72c0.070312 1.3008 0.50781 2.5547 1.2578 3.6211l8.3438 11.258c2.5938 2.2891 6.3789 2.6172 9.3281 0.80859 2.9492-1.8086 4.3711-5.332 3.5039-8.6836h10.941c4.3477 0 7.875-3.5234 7.875-7.8711 0-4.3477-3.5273-7.8711-7.875-7.8711h-10.863c1.7109-3.3438 0.82422-7.4297-2.125-9.7617-3.4531-2.4336-8.2148-1.7031-10.785 1.6523l-8.2656 11.258c-1.1328 1.6289-1.6094 3.625-1.3359 5.5898z"/>
  <path d="m325.61 487.46h-1.1836c-4.3477 0-7.8711 3.5234-7.8711 7.8711s3.5234 7.8711 7.8711 7.8711h1.1836c4.3477 0 7.8711-3.5234 7.8711-7.8711s-3.5234-7.8711-7.8711-7.8711z"/>
  <path d="m301.52 242.56c-19.48 0-38.16 7.7383-51.934 21.512-13.773 13.773-21.512 32.453-21.512 51.934 0 19.48 7.7383 38.16 21.512 51.934 13.773 13.773 32.453 21.512 51.934 21.512s38.16-7.7383 51.934-21.512 21.512-32.453 21.512-51.934c-0.039063-19.465-7.793-38.125-21.559-51.887-13.762-13.766-32.422-21.516-51.887-21.559zm0 131.54v-0.003906c-15.414 0.023438-30.203-6.082-41.113-16.969-10.91-10.883-17.047-25.66-17.062-41.074-0.011719-15.41 6.0977-30.195 16.988-41.102s25.672-17.039 41.082-17.043c15.414-0.007812 30.195 6.1094 41.098 17.004 10.898 10.898 17.023 25.676 17.023 41.09 0 15.402-6.1055 30.176-16.98 41.078-10.879 10.906-25.633 17.055-41.035 17.098z"/>
  <path d="m301.99 309.08c-3.8555-0.62891-7.3203-1.8906-7.3203-5.5117s3.1484-4.7227 6.6914-4.7227c3.4219-0.039062 6.7656 1.0391 9.5234 3.0703 3.1797 1.7891 7.1719 1.1602 9.6484-1.5195 2.4727-2.6836 2.7812-6.7109 0.74219-9.7383-3.5078-3.082-7.7266-5.2461-12.281-6.2969v-4.332c0-4.3477-3.5234-7.8711-7.8711-7.8711s-7.8711 3.5234-7.8711 7.8711v4.7266c-4.0469 1.2578-7.6016 3.7422-10.172 7.1172-2.5664 3.3711-4.0195 7.4609-4.1562 11.695-0.007812 4 1.2422 7.8984 3.5703 11.148 2.332 3.25 5.6289 5.6836 9.418 6.957 4.0156 1.1797 15.742 0.62891 15.742 6.9258 0 2.5195-3.1484 4.8008-6.6914 4.8008l0.003906 0.003906c-3.4336 0.015625-6.7773-1.0898-9.5273-3.1484-3.1094-1.1445-6.6055-0.21484-8.7383 2.3242s-2.4453 6.1406-0.78516 9.0117c3.4961 3.0391 7.6875 5.1719 12.203 6.2188v4.3281c0 4.3477 3.5234 7.8711 7.8711 7.8711 4.3477 0 7.8711-3.5234 7.8711-7.8711v-4.7227c4.0586-1.2383 7.6289-3.7188 10.199-7.0977 2.5703-3.375 4.0156-7.4766 4.1289-11.719-0.03125-4.0859-1.3594-8.0547-3.793-11.336-2.4336-3.2852-5.8477-5.707-9.7461-6.9258-2.8594-0.59766-5.75-1.0195-8.6602-1.2578z"/>
  <path d="m342.3 632.22h-153.11c-5.6953 0-10.312-4.6172-10.312-10.312v-443.82c0-5.6953 4.6172-10.312 10.312-10.312h43.531l22.199 31.488c1.4375 2.0195 3.7383 3.2461 6.2188 3.3047h80.766c2.5078-0.035156 4.8438-1.2617 6.2969-3.3047l22.121-31.488h43.613c5.6953 0 10.312 4.6172 10.312 10.312v200.19c0 4.3477 3.5234 7.8711 7.8711 7.8711 4.3477 0 7.8711-3.5234 7.8711-7.8711v-200.19c0-6.875-2.7578-13.461-7.6562-18.285-4.8984-4.8242-11.527-7.4844-18.398-7.3789h-224.75c-6.7461 0.10547-13.184 2.8516-17.922 7.6523-4.7422 4.7969-7.4062 11.266-7.4297 18.012v443.82c0.023437 6.8125 2.7422 13.34 7.5703 18.152 4.8242 4.8086 11.359 7.5117 18.172 7.5117h152.72c4.3477 0 7.8711-3.5234 7.8711-7.8711s-3.5234-7.875-7.8711-7.875zm-4.4102-444.77h-72.734l-13.621-19.68h99.977z"/>
  <path d="m304.04 560.43c-7.1836 0-14.07 2.8555-19.148 7.9336s-7.9336 11.965-7.9336 19.148c0 7.1797 2.8555 14.066 7.9336 19.148 5.0781 5.0781 11.965 7.9297 19.148 7.9297 7.1797 0 14.07-2.8516 19.148-7.9297 5.0781-5.082 7.9297-11.969 7.9297-19.148 0-7.1836-2.8516-14.07-7.9297-19.148s-11.969-7.9336-19.148-7.9336zm0 40.305c-5.3477 0-10.172-3.2227-12.219-8.1641-2.0469-4.9414-0.91406-10.629 2.8672-14.41 3.7812-3.7852 9.4688-4.9141 14.41-2.8672 4.9453 2.0469 8.1641 6.8672 8.1641 12.219-0.042969 7.2852-5.9375 13.18-13.223 13.223z"/>
  <path d="m523.75 426.21c0.023437-5.9961-2.3438-11.754-6.5703-16.008-4.2266-4.25-9.9727-6.6484-15.969-6.6641-5.9961-0.011718-11.754 2.3594-16 6.5898-4.2461 4.2344-6.6367 9.9805-6.6445 15.977-0.007812 6 2.3711 11.75 6.6055 15.996 4.2383 4.2422 9.9883 6.625 15.984 6.625 5.9727-0.019531 11.695-2.3984 15.926-6.6133 4.2305-4.2148 6.6289-9.9297 6.668-15.902zm-31.488 0c-0.03125-3.5391 2.0781-6.75 5.3398-8.1289 3.2617-1.375 7.0352-0.64844 9.5508 1.8438 2.5156 2.4922 3.2773 6.2578 1.9297 9.5352-1.3477 3.2734-4.5391 5.4102-8.082 5.4102-4.7344-0.085938-8.5391-3.9258-8.5781-8.6602z"/>
  <path d="m615.54 499.27c1.8359 0 3.5977-0.73047 4.8984-2.0312 1.2969-1.2969 2.0273-3.0586 2.0273-4.8984v-20.625h6.3789c2.0859 0 4.0898-0.82813 5.5664-2.3047s2.3047-3.4766 2.3047-5.5664v-44.871c0-2.0859-0.82813-4.0898-2.3047-5.5664-1.4766-1.4766-3.4805-2.3047-5.5664-2.3047-44.145 0.042969-87.145-14.023-122.73-40.148-2.875-2.3008-6.9648-2.3008-9.8398 0-35.625 26.09-78.648 40.125-122.8 40.07-4.3477 0-7.8711 3.5234-7.8711 7.8711v45.027c0 2.0898 0.82812 4.0898 2.3047 5.5664 1.4766 1.4766 3.4805 2.3086 5.5664 2.3086h6.0625v20.625c-0.019531 1.8281 0.69141 3.5898 1.9766 4.8906 1.2891 1.3008 3.043 2.0352 4.8711 2.0352h3.543v74.625c-3.2578 0.93359-6.1289 2.8906-8.1875 5.5859-2.0547 2.6953-3.1875 5.9844-3.2266 9.3711v13.539h-5.0391v0.003906c-3.8242 0-6.9258 3.1016-6.9258 6.9258v30.309c-0.023438 1.8438 0.69922 3.6172 2.0039 4.9219 1.3047 1.3008 3.0781 2.0234 4.9219 2.0039h255.37c1.8438 0.019532 3.6172-0.70312 4.9219-2.0039 1.3008-1.3047 2.0234-3.0781 2.0039-4.9219v-30.152c0-1.8359-0.73047-3.5977-2.0273-4.8984-1.3008-1.2969-3.0625-2.0273-4.8984-2.0273h-5.4336v-13.699c0-3.4062-1.1055-6.7188-3.1484-9.4453-2.043-2.7266-4.918-4.7148-8.1875-5.668v-74.547zm-6.9258-13.777h-35.426v-13.777h35.422zm-1.1016 101.55h-0.003906c0.54297 0 1.0664 0.21484 1.4492 0.59766 0.38281 0.38281 0.59766 0.90625 0.59766 1.4492v12.676l-37.547-0.003907v-12.832c0.039063-1.1406 0.98047-2.0469 2.125-2.0469zm-226.32-160.51c42.949-1.2891 84.605-14.957 119.97-39.359 35.363 24.402 77.023 38.07 119.97 39.359v29.758h-239.94zm136.89 160.51c1.1445-0.003906 2.082 0.90234 2.125 2.0469v12.676l-37.863-0.003907v-12.832c0.042968-1.1406 0.98047-2.0469 2.125-2.0469zm-9.5234-13.855h-14.801v-73.918h14.801zm10.391-87.695h-35.582v-13.777h35.582zm-91.078 101.55c0.54297 0 1.0625 0.21484 1.4453 0.59766 0.38281 0.38281 0.60156 0.90625 0.60156 1.4492v12.676l-37.789-0.003907v-12.832c0-0.54297 0.21875-1.0625 0.60156-1.4453 0.38281-0.38281 0.90234-0.60156 1.4453-0.60156zm1.1016-115.32v13.777l-35.66-0.003907v-13.777zm-10.391 27.551v73.918h-14.879v-73.918zm13.777 74.707-0.003907-74.707h3.4648c1.8438 0.019531 3.6172-0.70312 4.9219-2.0078 1.3047-1.3008 2.0273-3.0781 2.0039-4.9219v-20.625h26.766v20.625c-0.019531 1.8438 0.70313 3.6211 2.0078 4.9219 1.3008 1.3047 3.0781 2.0273 4.9219 2.0078h3.4648l-0.003906 74.703c-3.2422 0.94922-6.0977 2.9141-8.1406 5.6055-2.0391 2.6953-3.1602 5.9727-3.1953 9.3516v13.539l-24.797 0.003906v-13.543c-0.039063-3.3867-1.168-6.6758-3.2266-9.3711-2.0547-2.6953-4.9258-4.6523-8.1875-5.5859zm189.56 58.961h-241.52v-16.453h241.51zm-88.09-30.309v-13.699c0-3.4062-1.1055-6.7188-3.1484-9.4453-2.0469-2.7266-4.918-4.7148-8.1875-5.668v-74.547h3.4609c1.8438 0.019531 3.6211-0.70312 4.9219-2.0078 1.3047-1.3008 2.0273-3.0781 2.0078-4.9219v-20.625h26.371v20.625c-0.023438 1.8438 0.70312 3.6211 2.0039 4.9219 1.3047 1.3047 3.0781 2.0273 4.9219 2.0078h3.4648v74.703c-3.2734 0.91797-6.1641 2.8711-8.2344 5.5664-2.0703 2.6992-3.2148 5.9922-3.2578 9.3906v13.539zm64.391-29.441h-14.797v-73.918h14.801z"/>
 </g>
</svg>