<?xml version="1.0" encoding="UTF-8"?>
<!-- The Best Svg Icon site in the world: iconSvg.co, Visit us! https://iconsvg.co -->
<svg width="800px" height="800px" version="1.1" viewBox="144 144 512 512" xmlns="http://www.w3.org/2000/svg">
 <defs>
  <clipPath id="b">
   <path d="m179 258h442v393.9h-442z"/>
  </clipPath>
  <clipPath id="a">
   <path d="m289 148.09h222v141.91h-222z"/>
  </clipPath>
 </defs>
 <path d="m400 588.93c-33.406 0-65.441-13.27-89.062-36.891s-36.891-55.656-36.891-89.059c0-33.406 13.27-65.441 36.891-89.062 23.621-23.621 55.656-36.891 89.062-36.891 33.402 0 65.441 13.27 89.059 36.891 23.621 23.621 36.891 55.656 36.891 89.062-0.035157 33.391-13.32 65.406-36.93 89.02-23.613 23.609-55.629 36.895-89.02 36.93zm0-220.42v0.003907c-25.055 0-49.082 9.9492-66.797 27.668-17.715 17.715-27.668 41.742-27.668 66.797 0 25.051 9.9531 49.078 27.668 66.793 17.715 17.719 41.742 27.668 66.797 27.668 25.051 0 49.078-9.9492 66.793-27.668 17.719-17.715 27.668-41.742 27.668-66.793-0.027344-25.047-9.9883-49.059-27.695-66.77-17.711-17.707-41.723-27.668-66.766-27.695z"/>
 <path d="m407.87 525.95h-39.359c-5.625 0-10.824-3-13.637-7.8711s-2.8125-10.871 0-15.742c2.8125-4.8711 8.0117-7.875 13.637-7.875h39.359c4.3477 0 7.8711-3.5234 7.8711-7.8711s-3.5234-7.8711-7.8711-7.8711h-15.746c-14.059 0-27.055-7.5039-34.086-19.68-7.0312-12.18-7.0312-27.184 0-39.359 7.0312-12.18 20.027-19.68 34.086-19.68h39.363c5.625 0 10.82 3 13.633 7.8711s2.8125 10.871 0 15.742c-2.8125 4.8711-8.0078 7.875-13.633 7.875h-39.363c-4.3477 0-7.8711 3.5234-7.8711 7.8711s3.5234 7.8711 7.8711 7.8711h15.746c14.062 0 27.055 7.5039 34.086 19.68 7.0312 12.18 7.0312 27.184 0 39.359-7.0312 12.18-20.023 19.68-34.086 19.68z"/>
 <path d="m400 431.49c-4.1758 0-8.1797-1.6602-11.133-4.6133-2.9531-2.9531-4.6133-6.957-4.6133-11.133v-15.742c0-5.625 3-10.824 7.8711-13.637s10.875-2.8125 15.746 0 7.8711 8.0117 7.8711 13.637v15.742c0 4.1758-1.6602 8.1797-4.6094 11.133-2.9531 2.9531-6.957 4.6133-11.133 4.6133z"/>
 <path d="m400 541.7c-4.1758 0-8.1797-1.6602-11.133-4.6133-2.9531-2.9492-4.6133-6.957-4.6133-11.133v-15.742c0-5.625 3-10.824 7.8711-13.637s10.875-2.8125 15.746 0 7.8711 8.0117 7.8711 13.637v15.742c0 4.1758-1.6602 8.1836-4.6094 11.133-2.9531 2.9531-6.957 4.6133-11.133 4.6133z"/>
 <g clip-path="url(#b)">
  <path d="m581.05 651.9h-362.11c-13.133 0.015625-25.406-6.5234-32.723-17.426-7.3164-10.906-8.7148-24.738-3.7266-36.887 4.9922-12.148 15.707-21.008 28.578-23.621v-181.84c0.042969-35.477 14.152-69.492 39.242-94.582 25.086-25.086 59.102-39.199 94.582-39.242h110.21c35.48 0.042969 69.496 14.156 94.582 39.242 25.09 25.09 39.203 59.105 39.242 94.582v181.84c12.871 2.6133 23.59 11.473 28.578 23.621 4.9883 12.148 3.5898 25.98-3.7266 36.887-7.3164 10.902-19.59 17.441-32.723 17.426zm-362.11-47.23c-4.3477 0-7.8711 3.5234-7.8711 7.8711 0 4.3477 3.5234 7.8711 7.8711 7.8711h362.11c4.3477 0 7.8711-3.5234 7.8711-7.8711 0-4.3477-3.5234-7.8711-7.8711-7.8711h-7.8711c-4.1758 0-8.1797-1.6602-11.133-4.6133s-4.6133-6.957-4.6133-11.133v-196.8c-0.03125-27.129-10.82-53.141-30.008-72.328-19.184-19.184-45.195-29.977-72.328-30.008h-110.21c-27.133 0.03125-53.145 10.824-72.328 30.008-19.184 19.188-29.977 45.199-30.008 72.328v196.8c0 4.1758-1.6602 8.1797-4.6133 11.133-2.9531 2.9531-6.957 4.6133-11.133 4.6133z"/>
 </g>
 <g clip-path="url(#a)">
  <path d="m459.79 289.91h-0.015625l-120.8-0.125c-5-0.007812-9.6992-2.3867-12.668-6.4102-25.574-34.719-38.457-77.164-36.5-120.24 0.17969-4.0508 1.918-7.8789 4.8477-10.68 2.9297-2.8047 6.8281-4.3672 10.883-4.3672h78.719c4.0625 0 7.9688 1.5703 10.898 4.3828 2.9297 2.8125 4.6602 6.6484 4.832 10.707h94.477c4.3672 0 8.5352 1.8086 11.516 5 2.9766 3.1914 4.5 7.4727 4.1992 11.828-2.5859 37.324-15.637 73.164-37.652 103.41-2.9609 4.0781-7.6914 6.4883-12.73 6.4883zm-112.59-31.605 104.35 0.10547v0.003907c7.5547-11.473 13.672-23.832 18.203-36.801 3.0781-8.7695 5.4102-17.781 6.9805-26.941h-76.734v16.395c0 5.625-3.0039 10.82-7.875 13.633s-10.871 2.8125-15.742 0c-4.8711-2.8125-7.8711-8.0078-7.8711-13.633v-31.488h-47.219c1.4023 28.094 10.352 55.289 25.906 78.727z"/>
 </g>
</svg>