<?xml version="1.0" encoding="UTF-8"?>
<!-- The Best Svg Icon site in the world: iconSvg.co, Visit us! https://iconsvg.co -->
<svg fill="#000000" width="800px" height="800px" version="1.1" viewBox="144 144 512 512" xmlns="http://www.w3.org/2000/svg">
 <g>
  <path d="m462.76 559.52c0.11719-0.68359 0.19141-1.3789 0.21484-2.0781v-15.742c-0.019531-2.7734-0.77344-5.4883-2.1914-7.8711 1.418-2.3828 2.1719-5.1016 2.1914-7.875v-15.742c-0.019531-2.7734-0.77344-5.4883-2.1914-7.8711 1.418-2.3828 2.1719-5.1016 2.1914-7.875v-15.742c0-4.1758-1.6602-8.1797-4.6133-11.133-2.9531-2.9531-6.957-4.6094-11.133-4.6094h-94.465c-4.1758 0-8.1797 1.6562-11.133 4.6094-2.9531 2.9531-4.6094 6.957-4.6094 11.133v15.742c0.015624 2.7734 0.76953 5.4922 2.1875 7.875-1.418 2.3828-2.1719 5.0977-2.1875 7.8711v15.742c0.015624 2.7734 0.76953 5.4922 2.1875 7.875-1.418 2.3828-2.1719 5.0977-2.1875 7.8711v15.742c0.007812 2.793 0.76172 5.5312 2.1836 7.9336s3.457 4.3828 5.8984 5.7344c-0.11719 0.6875-0.1875 1.3789-0.21094 2.0781v15.742c0.023438 0.69922 0.09375 1.3906 0.21094 2.0781-2.4414 1.3516-4.4766 3.332-5.8984 5.7344-1.4219 2.4023-2.1758 5.1406-2.1836 7.9336v15.742c0 4.1758 1.6562 8.1797 4.6094 11.133 2.9531 2.9531 6.957 4.6133 11.133 4.6133h94.465c4.1758 0 8.1797-1.6602 11.133-4.6133s4.6133-6.957 4.6133-11.133v-15.742c-0.023437-0.69922-0.097656-1.3906-0.21484-2.0781 2.4414-1.3516 4.4805-3.332 5.9023-5.7344 1.4219-2.4023 2.1758-5.1406 2.1836-7.9336v-15.742c-0.007812-2.793-0.76172-5.5312-2.1836-7.9336-1.4219-2.4023-3.4609-4.3828-5.9023-5.7344zm-7.6602 13.668v15.742h-94.465v-15.742zm-102.34-15.746v-15.742h94.465v15.742zm0-47.23h94.465v15.742h-94.465zm0-31.488h94.465v15.742h-94.465zm94.465 141.7h-94.465v-15.742h94.465z"/>
  <path d="m289.58 559.52c0.11719-0.68359 0.1875-1.3789 0.21094-2.0781v-15.742c0-4.1758-1.6562-8.1797-4.6094-11.133-2.9531-2.9531-6.957-4.6133-11.133-4.6133h-94.465c-4.1758 0-8.1797 1.6602-11.133 4.6133s-4.6133 6.957-4.6133 11.133v15.742c0.011718 2.793 0.76562 5.5312 2.1836 7.9336 1.4219 2.4023 3.4609 4.3828 5.9023 5.7344-0.11719 0.6875-0.1875 1.3789-0.21094 2.0781v15.742c0.023437 0.69922 0.09375 1.3906 0.21094 2.0781-2.4414 1.3516-4.4805 3.332-5.9023 5.7344-1.418 2.4023-2.1719 5.1406-2.1836 7.9336v15.742c0 4.1758 1.6602 8.1797 4.6133 11.133s6.957 4.6133 11.133 4.6133h94.465c4.1758 0 8.1797-1.6602 11.133-4.6133 2.9531-2.9531 4.6094-6.957 4.6094-11.133v-15.742c-0.023437-0.69922-0.09375-1.3906-0.21094-2.0781 2.4414-1.3516 4.4805-3.332 5.9023-5.7344 1.418-2.4023 2.1719-5.1406 2.1836-7.9336v-15.742c-0.011718-2.793-0.76562-5.5312-2.1836-7.9336-1.4219-2.4023-3.4609-4.3828-5.9023-5.7344zm-7.6602 13.668v15.742h-94.465v-15.742zm-102.34-31.488h94.465v15.742h-94.465zm94.465 78.719h-94.465v-15.742h94.465z"/>
  <path d="m620.41 400h-94.465c-4.1758 0-8.1797 1.6562-11.133 4.6094-2.9492 2.9531-4.6094 6.957-4.6094 11.133v15.746c0.023438 0.69531 0.09375 1.3906 0.21094 2.0781-2.4414 1.3516-4.4766 3.3281-5.8984 5.7305s-2.1758 5.1406-2.1836 7.9336v15.746c0.007812 2.7891 0.76172 5.5273 2.1836 7.9297s3.457 4.3828 5.8984 5.7344c-0.11719 0.6875-0.1875 1.3828-0.21094 2.0781v15.742c0.015625 2.7734 0.76953 5.4922 2.1875 7.875-1.418 2.3828-2.1719 5.0977-2.1875 7.8711v15.742c0.023438 0.69922 0.09375 1.3945 0.21094 2.0781-2.4414 1.3516-4.4766 3.332-5.8984 5.7344-1.4219 2.4023-2.1758 5.1406-2.1836 7.9336v15.742c0.007812 2.793 0.76172 5.5312 2.1836 7.9336s3.457 4.3828 5.8984 5.7344c-0.11719 0.6875-0.1875 1.3789-0.21094 2.0781v15.742c0.023438 0.69922 0.09375 1.3906 0.21094 2.0781-2.4414 1.3516-4.4766 3.332-5.8984 5.7344-1.4219 2.4023-2.1758 5.1406-2.1836 7.9336v15.742c0 4.1758 1.6562 8.1797 4.6094 11.133 2.9531 2.9531 6.957 4.6133 11.133 4.6133h94.465c4.1758 0 8.1797-1.6602 11.133-4.6133s4.6133-6.957 4.6133-11.133v-15.742c-0.023437-0.69922-0.097656-1.3906-0.21484-2.0781 2.4414-1.3516 4.4805-3.332 5.9023-5.7344 1.4219-2.4023 2.1758-5.1406 2.1836-7.9336v-15.742c-0.007812-2.793-0.76172-5.5312-2.1836-7.9336-1.4219-2.4023-3.4609-4.3828-5.9023-5.7344 0.11719-0.68359 0.19141-1.3789 0.21484-2.0781v-15.742c-0.023437-0.69531-0.097656-1.3906-0.21484-2.0781 2.4414-1.3516 4.4805-3.332 5.9023-5.7344 1.4219-2.4023 2.1758-5.1406 2.1836-7.9336v-15.742c-0.015625-2.7734-0.77344-5.4883-2.1875-7.8711 1.4141-2.3828 2.1719-5.1016 2.1875-7.875v-15.742c-0.007812-2.793-0.76172-5.5312-2.1836-7.9336-1.4219-2.4023-3.4609-4.3789-5.9023-5.7305 0.11719-0.6875 0.19141-1.3828 0.21484-2.0781v-15.746c-0.023437-0.69531-0.097656-1.3906-0.21484-2.0781 2.4414-1.3516 4.4805-3.332 5.9023-5.7344 1.4219-2.4023 2.1758-5.1406 2.1836-7.9297v-15.746c0-4.1758-1.6602-8.1797-4.6133-11.133s-6.957-4.6094-11.133-4.6094zm-94.465 15.742h94.465v15.742l-94.465 0.003906zm86.594 47.23-94.465 0.003906v-15.746h94.465zm7.8711 15.742v15.742l-94.465 0.003907v-15.742h94.465zm0 47.23-94.465 0.003907v-15.742h94.465zm-7.8711 31.488-94.465 0.003906v-15.742h94.465zm7.8711 15.742v15.742l-94.465 0.007812v-15.742h94.465zm-7.8711 47.23-94.465 0.007812v-15.742h94.465z"/>
  <path d="m352.77 289.79h15.742v55.105h15.742l0.003906-62.977c0-2.0859-0.82812-4.0898-2.3047-5.5664-1.4766-1.4766-3.4805-2.3047-5.5664-2.3047h-4.6133l28.23-28.23 28.227 28.23h-4.6133c-4.3477 0-7.8711 3.5234-7.8711 7.8711v78.719h15.742l0.003906-70.848h15.742c3.1836 0 6.0547-1.918 7.2695-4.8594 1.2188-2.9414 0.54688-6.3242-1.7031-8.5781l-47.23-47.23h-0.003906c-3.0742-3.0742-8.0547-3.0742-11.129 0l-47.23 47.23h-0.003906c-2.25 2.2539-2.9219 5.6367-1.7031 8.5781 1.2188 2.9414 4.0859 4.8594 7.2695 4.8594z"/>
  <path d="m187.45 392.12h15.746v39.359l15.742 0.003906v-47.234c0-2.0859-0.82812-4.0898-2.3047-5.5664-1.4766-1.4766-3.4805-2.3047-5.5664-2.3047h-4.6133l28.23-28.23 28.227 28.23h-4.6133c-4.3477 0-7.8711 3.5234-7.8711 7.8711v62.977h15.742l0.003906-55.105h15.742c3.1836 0 6.0547-1.918 7.2695-4.8594 1.2188-2.9414 0.54688-6.3242-1.7031-8.5781l-47.23-47.23h-0.003906c-3.0742-3.0742-8.0547-3.0742-11.129 0l-47.23 47.23h-0.003906c-2.25 2.2539-2.9219 5.6367-1.7031 8.5781s4.0859 4.8594 7.2695 4.8594z"/>
  <path d="m368.51 360.64h15.742v15.742h-15.742z"/>
  <path d="m415.74 376.38h15.742v15.742h-15.742z"/>
  <path d="m565.31 258.3c-4.3477 0-7.875-3.5234-7.875-7.8711h-15.742c0.019532 4.8672 1.543 9.6094 4.3633 13.578 2.8164 3.9688 6.793 6.9688 11.379 8.5898v9.3203h15.742l0.003906-9.3203c7.0547-2.4844 12.512-8.1719 14.699-15.324 2.1914-7.1523 0.85547-14.918-3.5977-20.926-4.4531-6.0117-11.496-9.5469-18.973-9.5352-3.1836 0-6.0547-1.918-7.2734-4.8594s-0.54687-6.3242 1.707-8.5781c2.25-2.25 5.6367-2.9258 8.5781-1.707 2.9414 1.2188 4.8594 4.0898 4.8594 7.2734h15.742c-0.019531-4.8672-1.543-9.6094-4.3594-13.578-2.8203-3.9648-6.793-6.9648-11.383-8.5898v-9.3203h-15.746v9.3203c-7.0547 2.4844-12.508 8.1719-14.699 15.324-2.1914 7.1523-0.85547 14.918 3.5977 20.926 4.4531 6.0117 11.496 9.5469 18.977 9.5352 4.3477 0 7.8711 3.5234 7.8711 7.8711 0 4.3477-3.5234 7.8711-7.8711 7.8711z"/>
  <path d="m565.31 305.54c18.789 0 36.809-7.4648 50.098-20.75 13.285-13.289 20.75-31.309 20.75-50.098 0-18.793-7.4648-36.812-20.75-50.098-13.289-13.289-31.309-20.754-50.098-20.754-18.793 0-36.812 7.4648-50.098 20.754-13.289 13.285-20.754 31.305-20.754 50.098 0.023437 18.781 7.4961 36.789 20.777 50.07s31.289 20.754 50.074 20.777zm0-125.95c14.613 0 28.629 5.8047 38.965 16.141 10.332 10.332 16.137 24.348 16.137 38.965 0 14.613-5.8047 28.629-16.137 38.965-10.336 10.332-24.352 16.137-38.965 16.137-14.617 0-28.633-5.8047-38.965-16.137-10.336-10.336-16.141-24.352-16.141-38.965 0.015625-14.609 5.8281-28.617 16.156-38.949 10.332-10.328 24.34-16.141 38.949-16.156z"/>
  <path d="m203.2 447.23h15.742v15.742h-15.742z"/>
  <path d="m203.2 478.72h15.742v15.742h-15.742z"/>
  <path d="m250.43 462.98h15.742v47.23h-15.742z"/>
  <path d="m368.51 392.12h15.742v31.488h-15.742z"/>
  <path d="m415.74 407.87h15.742v31.488h-15.742z"/>
 </g>
</svg>