<?xml version="1.0" encoding="UTF-8"?>
<!-- The Best Svg Icon site in the world: iconSvg.co, Visit us! https://iconsvg.co -->
<svg fill="#000000" width="800px" height="800px" version="1.1" viewBox="144 144 512 512" xmlns="http://www.w3.org/2000/svg">
 <g>
  <path d="m324.56 397.75c0-37.484-30.391-67.875-67.875-67.875-37.488 0-67.879 30.383-67.879 67.875 0 37.488 30.391 67.879 67.879 67.879 37.492-0.003906 67.875-30.395 67.875-67.879zm-107.05-2.5312c-3.4766 0-6.2969-2.8203-6.2969-6.2969 0-11 8.9492-19.941 19.941-19.941 11.004 0 19.949 8.9414 19.949 19.941 0 3.4766-2.8203 6.2969-6.2969 6.2969-3.4766 0-6.2969-2.8203-6.2969-6.2969 0-4.0508-3.3008-7.3438-7.3555-7.3438-4.0508 0-7.3438 3.293-7.3438 7.3438-0.003906 3.4727-2.8203 6.2969-6.3008 6.2969zm71.941 24.484c-5.3203 13.566-18.176 22.332-32.758 22.332-14.172 0-26.895-8.4336-32.414-21.488-1.3555-3.2109 0.14453-6.9023 3.3516-8.2578 3.1875-1.3672 6.8984 0.14063 8.2539 3.3438 3.5469 8.3828 11.715 13.801 20.812 13.801 9.3594 0 17.617-5.6289 21.035-14.332 1.2695-3.2383 4.9336-4.8281 8.1602-3.5664 3.2305 1.2812 4.8281 4.9336 3.5586 8.168zm6.8516-24.484c-3.4766 0-6.2969-2.8203-6.2969-6.2969 0-4.0508-3.3008-7.3438-7.3516-7.3438-4.0508 0-7.3438 3.293-7.3438 7.3438 0 3.4766-2.8203 6.2969-6.2969 6.2969-3.4766 0-6.2969-2.8203-6.2969-6.2969 0-11 8.9492-19.941 19.941-19.941 11 0 19.945 8.9414 19.945 19.941-0.003906 3.4727-2.8242 6.2969-6.3008 6.2969z"/>
  <path d="m292.03 311.07c6.957 0 12.594-5.6367 12.594-12.594 0-34.449 28.031-62.484 62.488-62.484 27.23 0 50.387 17.539 58.926 41.887h-6.2188c-4.7422 0-9.082 2.6641-11.23 6.8984-2.1445 4.2305-1.7344 9.3086 1.0664 13.133l22.371 30.582c2.3711 3.2383 6.1445 5.1523 10.168 5.1523 4.0195 0 7.793-1.918 10.168-5.1523l22.371-30.582c2.8008-3.8281 3.2148-8.9062 1.0664-13.133-2.1445-4.2305-6.4883-6.8984-11.23-6.8984l-12.324 0.003907c-9.3008-38.426-43.891-67.078-85.133-67.078-48.344 0-87.68 39.332-87.68 87.672 0.003906 6.9531 5.6406 12.594 12.598 12.594z"/>
  <path d="m481.43 488.21c-6.957 0-12.594 5.6367-12.594 12.594 0 34.461-28.031 62.488-62.488 62.488-27.23 0-50.387-17.539-58.926-41.891h6.2188c4.7422 0 9.082-2.6602 11.23-6.8906 2.1445-4.2305 1.7344-9.3086-1.0664-13.133l-22.371-30.578c-2.3711-3.25-6.1445-5.1602-10.168-5.1602-4.0195 0-7.793 1.9141-10.168 5.1602l-22.371 30.578c-2.8008 3.8281-3.2148 8.9062-1.0664 13.133 2.1445 4.2305 6.4883 6.8906 11.23 6.8906h12.316c9.3008 38.426 43.891 67.082 85.133 67.082 48.344 0 87.68-39.332 87.68-87.68 0.003907-6.957-5.6328-12.594-12.59-12.594z"/>
  <path d="m516.34 329.88c-37.488 0-67.879 30.383-67.879 67.875 0 37.488 30.391 67.879 67.879 67.879 37.484 0 67.875-30.391 67.875-67.879-0.003906-37.492-30.395-67.875-67.875-67.875zm-39.184 65.34c-3.4766 0-6.2969-2.8203-6.2969-6.2969 0-11 8.9492-19.941 19.941-19.941 11.004 0 19.949 8.9414 19.949 19.941 0 3.4766-2.8203 6.2969-6.2969 6.2969s-6.2969-2.8203-6.2969-6.2969c0-4.0508-3.3008-7.3438-7.3555-7.3438-4.0508 0-7.3438 3.293-7.3438 7.3438-0.003906 3.4727-2.8242 6.2969-6.3008 6.2969zm71.934 24.484c-5.3203 13.566-18.176 22.332-32.758 22.332-14.172 0-26.895-8.4336-32.414-21.488-1.3555-3.2109 0.14453-6.9023 3.3516-8.2578 3.1836-1.3672 6.8984 0.14063 8.2539 3.3438 3.5469 8.3828 11.715 13.801 20.812 13.801 9.3594 0 17.617-5.6289 21.035-14.332 1.2695-3.2383 4.9219-4.8281 8.1602-3.5664 3.2383 1.2812 4.8359 4.9336 3.5586 8.168zm6.8594-24.484c-3.4766 0-6.2969-2.8203-6.2969-6.2969 0-4.0508-3.3008-7.3438-7.3516-7.3438s-7.3438 3.293-7.3438 7.3438c0 3.4766-2.8203 6.2969-6.2969 6.2969-3.4766 0-6.2969-2.8203-6.2969-6.2969 0-11 8.9492-19.941 19.941-19.941 11 0 19.945 8.9414 19.945 19.941-0.003906 3.4727-2.8242 6.2969-6.3008 6.2969z"/>
  <path d="m386.51 458.36c4.1758 0 7.5586-3.3867 7.5586-7.5586v-6.125c15.68-3.3359 21.582-18.164 21.582-27.625 0-7.0391-2.5547-17.852-18.777-23.438l-14.57-4.8008c-2.2422-0.71875-11.324-3.9531-10.359-12.949 0.36719-3.4258 1.3711-6.0664 4.1094-7.8633 2.2383-1.4375 5.0078-2.1602 8.3086-2.1602 5.6055 0 9.4219 0.94531 11.914 4.1758 1.3672 1.8672 1.8125 3.2383 2.1875 6.4727 0 0 0.44141 5.3242 6.8203 5.3242s7.3594-5.0664 7.4922-5.9844c0.57031-4.1445-1.6836-11.078-4.8281-15.195-3.4023-4.4688-8.1562-7.2539-13.887-8.6016v-6.8633c0-4.1719-3.3789-7.5586-7.5586-7.5586-4.1758 0-7.5586 3.3867-7.5586 7.5586v6.4102c-6.9219 1.1133-12.227 4.0898-15.875 8.9727-3.3594 4.5234-8.9766 13.238-3.2227 28.312 4.957 13.004 28.621 17.156 28.621 17.156 4.418 1.082 12.867 2.7773 12.891 12.965 0.003906 3.707-2.2617 10.621-12.973 11.453-0.60547-0.15625-1.2305-0.26562-1.8828-0.26562-0.71875 0-1.4023 0.13281-2.0625 0.31641-5.6133-0.52344-12.332-3.5703-12.332-13.121 0 0 0.10156-5.5508-6.8203-5.5508-6.9219 0-7.4609 5.5508-7.4609 5.5508 0 7.0312 1.0078 11.996 4.6836 16.809 5.1445 6.8008 11.352 9.4219 16.438 10.465v6.1445c0.003906 4.1875 3.3906 7.5742 7.5625 7.5742z"/>
 </g>
</svg>