<?xml version="1.0" encoding="UTF-8"?>
<!-- The Best Svg Icon site in the world: iconSvg.co, Visit us! https://iconsvg.co -->
<svg fill="#000000" width="800px" height="800px" version="1.1" viewBox="144 144 512 512" xmlns="http://www.w3.org/2000/svg">
 <g>
  <path d="m400 169.09c-127.33 0-230.91 103.59-230.91 230.91s103.59 230.91 230.91 230.91c127.34 0 230.91-103.59 230.91-230.91-0.003906-127.33-103.58-230.91-230.91-230.91zm0 451.33c-121.55 0-220.42-98.871-220.42-220.41 0-121.55 98.871-220.42 220.42-220.42 121.54 0 220.42 98.871 220.42 220.42-0.003907 121.54-98.887 220.41-220.42 220.41z"/>
  <path d="m523.99 489.54h-17.359v-156.38c0-2.8984-2.3633-5.2461-5.2461-5.2461h-38.352c-2.9062 0-5.2461 2.3516-5.2461 5.2461v156.38h-28.645l-0.003906-109.2c0-2.8984-2.3633-5.2461-5.2461-5.2461h-38.363c-2.8984 0-5.2461 2.3516-5.2461 5.2461v109.2h-28.645v-67.332c0-2.8984-2.3516-5.2461-5.2461-5.2461h-38.344c-2.8984 0-5.2461 2.3516-5.2461 5.2461v67.332h-17.402c-2.8984 0-5.2461 2.3516-5.2461 5.2461 0 2.8867 2.3516 5.2461 5.2461 5.2461h238.6c2.9062 0 5.2461-2.3633 5.2461-5.2461-0.011719-2.8945-2.3398-5.2461-5.2578-5.2461zm-210.7 0v-62.086h27.867v62.086zm77.492 0v-103.95h27.867v103.95zm77.492 0v-151.13h27.855v151.13z"/>
  <path d="m427.46 281.62c9.1328 8.2383 17.664 17.152 25 26.996 1.3945 1.8906 3.6523 3.0234 5.9922 3.0234 1.6055 0 3.168-0.51562 4.4414-1.4688 1.9297-1.4258 3.0664-3.707 3.0234-6.0859l-0.79688-64.289c-0.050781-4.0664-3.3047-7.4766-8.1211-7.3398l-68.664 6.1914c-1.9844 0.17969-3.793 1.1133-5.0703 2.6445-1.2812 1.5312-1.8906 3.4727-1.6992 5.4375 0.21875 2.5625 1.793 4.8711 4.1055 6.0234 12.059 6.0234 23.375 13.508 33.883 21.969-40.43 46.203-98.465 73.953-159.92 76.191-2.8984 0.10547-5.1641 2.5391-5.0469 5.4375 0.10547 2.832 2.4258 5.0586 5.2383 5.0586h0.19922c64.324-2.3281 125.11-31.395 167.43-79.789zm27.207-38.418 0.65234 52.039c-15.523-18.934-34.605-34.984-55.902-47.043z"/>
 </g>
</svg>