<?xml version="1.0" encoding="UTF-8"?>
<!-- The Best Svg Icon site in the world: iconSvg.co, Visit us! https://iconsvg.co -->
<svg fill="#000000" width="800px" height="800px" version="1.1" viewBox="144 144 512 512" xmlns="http://www.w3.org/2000/svg">
 <g>
  <path d="m612.54 226.81h-425.09c-6.2617 0-12.27 2.4883-16.699 6.918-4.4297 4.4297-6.918 10.438-6.918 16.699v299.14c0 6.2656 2.4883 12.27 6.918 16.699 4.4297 4.4297 10.438 6.918 16.699 6.918h425.09c6.2617 0 12.27-2.4883 16.699-6.918 4.4297-4.4297 6.918-10.434 6.918-16.699v-299.14c0-6.2617-2.4883-12.27-6.918-16.699-4.4297-4.4297-10.438-6.918-16.699-6.918zm7.8711 322.75c0 2.0898-0.82812 4.0898-2.3047 5.5664-1.4766 1.4766-3.4766 2.3047-5.5664 2.3047h-425.09c-4.3477 0-7.8711-3.5234-7.8711-7.8711v-299.14c0-4.3477 3.5234-7.8711 7.8711-7.8711h425.09c2.0898 0 4.0898 0.82812 5.5664 2.3047 1.4766 1.4766 2.3047 3.4805 2.3047 5.5664z"/>
  <path d="m289.79 384.25c-20.875 0-40.898 8.293-55.664 23.059-14.762 14.762-23.055 34.785-23.055 55.664 0 20.875 8.293 40.898 23.055 55.66 14.766 14.766 34.789 23.059 55.664 23.059 20.879 0 40.902-8.293 55.664-23.059 14.762-14.762 23.059-34.785 23.059-55.66-0.023438-20.871-8.3242-40.883-23.082-55.641-14.758-14.758-34.77-23.059-55.641-23.082zm0 70.848c7.4805-0.011718 14.523 3.5234 18.977 9.5352 4.4531 6.0078 5.7891 13.773 3.5977 20.926-2.1914 7.1523-7.6445 12.84-14.699 15.324v1.4492c0 4.3477-3.5273 7.8711-7.875 7.8711-4.3477 0-7.8711-3.5234-7.8711-7.8711v-1.4492c-4.5898-1.6211-8.5625-4.625-11.383-8.5898-2.8164-3.9688-4.3398-8.7109-4.3594-13.578 0-4.3477 3.5234-7.8711 7.8711-7.8711s7.8711 3.5234 7.8711 7.8711c0 3.1836 1.918 6.0547 4.8594 7.2734s6.3281 0.54297 8.5781-1.707c2.2539-2.25 2.9258-5.6367 1.707-8.5781-1.2188-2.9414-4.0898-4.8594-7.2734-4.8594-7.4766 0.011719-14.52-3.5234-18.973-9.5352-4.4531-6.0078-5.7891-13.773-3.5977-20.926 2.1875-7.1523 7.6445-12.84 14.699-15.324v-1.4492c0-4.3477 3.5234-7.8711 7.8711-7.8711 4.3477 0 7.875 3.5234 7.875 7.8711v1.4492c4.5859 1.6211 8.5625 4.625 11.379 8.5898 2.8203 3.9688 4.3438 8.7109 4.3633 13.578 0 4.3477-3.5234 7.8711-7.8711 7.8711s-7.8711-3.5234-7.8711-7.8711c0-3.1836-1.918-6.0547-4.8633-7.2734-2.9414-1.2188-6.3242-0.54297-8.5781 1.707-2.25 2.25-2.9219 5.6367-1.707 8.5781 1.2188 2.9414 4.0898 4.8594 7.2734 4.8594z"/>
  <path d="m565.31 258.3h-330.62c-8.4375 0-16.234 4.5039-20.453 11.809-4.2188 7.3086-4.2188 16.309 0 23.617 4.2188 7.3047 12.016 11.809 20.453 11.809h330.62c8.4375 0 16.23-4.5039 20.449-11.809 4.2188-7.3086 4.2188-16.309 0-23.617-4.2188-7.3047-12.012-11.809-20.449-11.809z"/>
  <path d="m565.31 321.28h-330.62c-8.4375 0-16.234 4.5039-20.453 11.809-4.2188 7.3086-4.2188 16.309 0 23.617 4.2188 7.3047 12.016 11.809 20.453 11.809h330.62c8.4375 0 16.23-4.5039 20.449-11.809 4.2188-7.3086 4.2188-16.309 0-23.617-4.2188-7.3047-12.012-11.809-20.449-11.809z"/>
  <path d="m407.87 384.25h157.44c13.043 0 23.617 13.043 23.617 23.617v110.21c0 13.043-10.574 23.617-23.617 23.617h-157.44c-13.043 0-23.617-13.043-23.617-23.617v-110.21c0-13.043 10.574-23.617 23.617-23.617z"/>
 </g>
</svg>