<?xml version="1.0" encoding="UTF-8"?>
<!-- The Best Svg Icon site in the world: iconSvg.co, Visit us! https://iconsvg.co -->
<svg fill="#000000" width="800px" height="800px" version="1.1" viewBox="144 144 512 512" xmlns="http://www.w3.org/2000/svg">
 <g>
  <path d="m587.43 172.66h-45.734c-4.3477 0-7.8711 3.5234-7.8711 7.8711s3.5234 7.8711 7.8711 7.8711h46.289v37.629h-375.42v-37.945h45.734c4.3477 0 7.875-3.5234 7.875-7.8711 0-4.3477-3.5273-7.8711-7.875-7.8711h-45.734c-4.1758 0-8.1797 1.6602-11.133 4.6094-2.9531 2.9531-4.6133 6.957-4.6133 11.133v434.54c0 4.1758 1.6602 8.1797 4.6133 11.133 2.9531 2.9492 6.957 4.6094 11.133 4.6094h374.86c4.1758 0 8.1836-1.6602 11.133-4.6094 2.9531-2.9531 4.6133-6.957 4.6133-11.133v-434.14c0.019531-4.1875-1.6289-8.2148-4.582-11.184-2.957-2.9688-6.9727-4.6367-11.164-4.6367zm-375.26 449.96v-381.24h375.57v381.64z"/>
  <path d="m466.04 185.33h18.895c4.3477 0 7.8711-3.5234 7.8711-7.8711 0-4.3477-3.5234-7.8711-7.8711-7.8711h-18.895c-4.3477 0-7.8711 3.5234-7.8711 7.8711 0 4.3477 3.5234 7.8711 7.8711 7.8711z"/>
  <path d="m390.55 185.33h18.895c4.3477 0 7.8711-3.5234 7.8711-7.8711 0-4.3477-3.5234-7.8711-7.8711-7.8711h-18.895c-4.3477 0-7.8711 3.5234-7.8711 7.8711 0 4.3477 3.5234 7.8711 7.8711 7.8711z"/>
  <path d="m315.06 185.33h18.895c4.3477 0 7.8711-3.5234 7.8711-7.8711 0-4.3477-3.5234-7.8711-7.8711-7.8711h-18.895c-4.3477 0-7.8711 3.5234-7.8711 7.8711 0 4.3477 3.5234 7.8711 7.8711 7.8711z"/>
  <path d="m286.8 199.11c2.0898 0 4.0938-0.83203 5.5664-2.3086 1.4766-1.4727 2.3086-3.4766 2.3086-5.5625v-21.887c0-4.3477-3.5273-7.8711-7.875-7.8711-4.3438 0-7.8711 3.5234-7.8711 7.8711v22.121c0.12891 4.2539 3.6172 7.6367 7.8711 7.6367z"/>
  <path d="m362.29 199.11c2.0859 0 4.0898-0.83203 5.5664-2.3086 1.4766-1.4727 2.3047-3.4766 2.3047-5.5625v-21.887c0.53125-2.3359-0.027343-4.7852-1.5234-6.6562-1.4922-1.875-3.7578-2.9648-6.1523-2.9648s-4.6602 1.0898-6.1523 2.9648c-1.4961 1.8711-2.0547 4.3203-1.5234 6.6562v22.121c0.11719 4.1055 3.375 7.4336 7.4805 7.6367z"/>
  <path d="m437.71 199.11c2.0859 0 4.0898-0.83203 5.5664-2.3086 1.4766-1.4727 2.3047-3.4766 2.3047-5.5625v-21.887c0-4.3477-3.5234-7.8711-7.8711-7.8711-4.3477 0-7.875 3.5234-7.875 7.8711v22.121c0.12891 4.2539 3.6172 7.6367 7.875 7.6367z"/>
  <path d="m513.2 199.11c2.0859 0 4.0898-0.83203 5.5664-2.3086 1.4766-1.4727 2.3047-3.4766 2.3047-5.5625v-21.887c0-4.3477-3.5234-7.8711-7.8711-7.8711-4.3477 0-7.8711 3.5234-7.8711 7.8711v22.121c0.125 4.2539 3.6133 7.6367 7.8711 7.6367z"/>
  <path d="m410.47 410.94h-20.941c-7.2852 0.085938-13.145 6.0156-13.145 13.305v22.355c0 7.3477 5.957 13.305 13.305 13.305h20.941-0.003906c7.2266-0.17188 12.992-6.0781 12.988-13.305v-22.355c0-7.2891-5.8594-13.219-13.145-13.305zm-2.125 33.535h-16.691v-18.184h16.688z"/>
  <path d="m479.51 410.94h-20.863c-7.3477 0-13.305 5.957-13.305 13.305v22.355c0 7.3477 5.957 13.305 13.305 13.305h20.863c7.3438 0 13.301-5.957 13.301-13.305v-22.355c0-7.3477-5.957-13.305-13.301-13.305zm-2.0469 33.535h-16.77v-18.184h16.766z"/>
  <path d="m548.62 410.94h-20.938c-7.3477 0-13.305 5.957-13.305 13.305v22.355c0 7.3477 5.957 13.305 13.305 13.305h20.941-0.003906c7.3164-0.046875 13.227-5.9883 13.227-13.305v-22.355c0-7.3203-5.9102-13.262-13.227-13.305zm-2.125 33.535h-16.688v-18.184h16.688z"/>
  <path d="m272.31 482.26h-20.938c-7.3047 0-13.227 5.9219-13.227 13.223v22.594c0 7.3047 5.9219 13.227 13.227 13.227h20.941-0.003906c7.3203 0 13.262-5.9102 13.305-13.227v-22.594c-0.042969-7.3164-5.9844-13.223-13.305-13.223zm-2.125 33.535h-16.688v-18.184h16.688z"/>
  <path d="m341.35 482.26h-20.859c-7.3164 0-13.262 5.9062-13.305 13.223v22.594c0.042969 7.3164 5.9883 13.227 13.305 13.227h20.859c7.3164 0 13.262-5.9102 13.305-13.227v-22.594c-0.042969-7.3164-5.9883-13.223-13.305-13.223zm-2.0469 33.535h-16.766v-18.184h16.766z"/>
  <path d="m272.31 410.94h-20.938c-7.3164 0.042969-13.227 5.9844-13.227 13.305v22.355c0 7.3164 5.9102 13.258 13.227 13.305h20.941-0.003906c7.3477 0 13.305-5.957 13.305-13.305v-22.355c0-7.3477-5.957-13.305-13.305-13.305zm-2.125 33.535h-16.688v-18.184h16.688z"/>
  <path d="m341.35 410.94h-20.859c-7.3477 0-13.305 5.957-13.305 13.305v22.355c0 7.3477 5.957 13.305 13.305 13.305h20.859c7.3477 0 13.305-5.957 13.305-13.305v-22.355c0-7.3477-5.957-13.305-13.305-13.305zm-2.0469 33.535h-16.766v-18.184h16.766z"/>
  <path d="m410.47 482.26h-20.941c-7.2539 0.085937-13.102 5.9688-13.145 13.223v22.594c0.042969 7.3164 5.9883 13.227 13.305 13.227h20.941-0.003906c7.1953-0.17188 12.949-6.0312 12.988-13.227v-22.594c-0.042969-7.2539-5.8906-13.137-13.145-13.223zm-2.125 33.535h-16.691v-18.184h16.688z"/>
  <path d="m479.51 482.26h-20.863c-7.3164 0-13.262 5.9062-13.305 13.223v22.594c0.042968 7.3164 5.9883 13.227 13.305 13.227h20.863c7.3164 0 13.258-5.9102 13.301-13.227v-22.594c-0.042969-7.3164-5.9844-13.223-13.301-13.223zm-2.0469 33.535h-16.77v-18.184h16.766z"/>
  <path d="m548.62 482.26h-20.938c-7.3164 0-13.262 5.9062-13.305 13.223v22.594c0.042969 7.3164 5.9883 13.227 13.305 13.227h20.941-0.003906c3.5078 0 6.8711-1.3945 9.3516-3.875 2.4805-2.4805 3.875-5.8438 3.875-9.3516v-22.594c0-7.3008-5.9219-13.223-13.227-13.223zm-2.125 33.535h-16.688v-18.184h16.688z"/>
  <path d="m479.51 268.93h-20.863c-7.2266-0.003907-13.133 5.7656-13.305 12.988v22.434c0.042968 7.3203 5.9883 13.227 13.305 13.227h20.863c7.3164 0 13.258-5.9062 13.301-13.227v-22.434c-0.17188-7.2227-6.0781-12.992-13.301-12.988zm-2.0469 33.535h-16.77v-18.184h16.766z"/>
  <path d="m548.62 268.93h-20.938c-7.2266-0.003907-13.133 5.7656-13.305 12.988v22.434c0.042969 7.3203 5.9883 13.227 13.305 13.227h20.941-0.003906c3.5078 0 6.8711-1.3945 9.3516-3.875 2.4805-2.4766 3.875-5.8438 3.875-9.3516v-22.434c-0.12891-7.2109-6.0117-12.988-13.227-12.988zm-2.125 33.535h-16.688v-18.184h16.688z"/>
  <path d="m479.51 340.25h-20.863c-7.3164 0-13.262 5.9062-13.305 13.227v22.355c0 7.3477 5.957 13.305 13.305 13.305h20.863c7.3438 0 13.301-5.957 13.301-13.305v-22.355c-0.042969-7.3203-5.9844-13.227-13.301-13.227zm-2.0469 33.535h-16.77v-18.184h16.766z"/>
  <path d="m548.62 340.25h-20.938c-7.3164 0-13.262 5.9062-13.305 13.227v22.355c0 7.3477 5.957 13.305 13.305 13.305h20.941-0.003906c7.3164-0.042969 13.227-5.9883 13.227-13.305v-22.355c0-7.3047-5.9219-13.227-13.227-13.227zm-2.125 33.535h-16.688v-18.184h16.688z"/>
  <path d="m272.31 553.58h-20.938c-7.3047 0-13.227 5.9219-13.227 13.227v22.117c0 7.3047 5.9219 13.227 13.227 13.227h20.941-0.003906c7.3203 0 13.262-5.9102 13.305-13.227v-22.117c-0.042969-7.3203-5.9844-13.227-13.305-13.227zm-2.125 33.535h-16.688v-18.184h16.688z"/>
  <path d="m341.35 553.58h-20.859c-7.3164 0-13.262 5.9062-13.305 13.227v22.117c0.042969 7.3164 5.9883 13.227 13.305 13.227h20.859c7.3164 0 13.262-5.9102 13.305-13.227v-22.117c-0.042969-7.3203-5.9883-13.227-13.305-13.227zm-2.0469 33.535h-16.766v-18.184h16.766z"/>
  <path d="m410.47 553.58h-20.941c-7.2539 0.085938-13.102 5.9688-13.145 13.227v22.117c0.042969 7.3164 5.9883 13.227 13.305 13.227h20.941-0.003906c7.1953-0.17188 12.949-6.0312 12.988-13.227v-22.117c-0.042969-7.2578-5.8906-13.141-13.145-13.227zm-2.125 33.535h-16.691v-18.184h16.688z"/>
  <path d="m479.51 553.58h-20.863c-7.3164 0-13.262 5.9062-13.305 13.227v22.117c0.042968 7.3164 5.9883 13.227 13.305 13.227h20.863c7.3164 0 13.258-5.9102 13.301-13.227v-22.117c-0.042969-7.3203-5.9844-13.227-13.301-13.227zm-2.0469 33.535h-16.77v-18.184h16.766z"/>
  <path d="m548.62 553.58h-20.938c-7.3164 0-13.262 5.9062-13.305 13.227v22.117c0.042969 7.3164 5.9883 13.227 13.305 13.227h20.941-0.003906c3.5078 0 6.8711-1.3945 9.3516-3.875 2.4805-2.4805 3.875-5.8438 3.875-9.3516v-22.117c0-7.3047-5.9219-13.227-13.227-13.227zm-2.125 33.535h-16.688v-18.184h16.688z"/>
  <path d="m245.79 388.98c2.0898 0 4.0898-0.82812 5.5664-2.3047 1.4766-1.4766 2.3047-3.4766 2.3047-5.5664v-13.934c0-4.3477-3.5234-7.8711-7.8711-7.8711s-7.8711 3.5234-7.8711 7.8711v14.09c0.085938 4.2891 3.5859 7.7188 7.8711 7.7148z"/>
  <path d="m284.83 334.03c-4.3477 0-7.875 3.5234-7.875 7.8711v39.359c-0.53125 2.3359 0.03125 4.7891 1.5234 6.6602 1.4922 1.8711 3.7578 2.9609 6.1523 2.9609 2.3945 0 4.6602-1.0898 6.1562-2.9609 1.4922-1.8711 2.0508-4.3242 1.5195-6.6602v-39.359c0.007812-4.1992-3.2852-7.6602-7.4766-7.8711z"/>
  <path d="m313.41 352.77v28.34c0 4.3477 3.5234 7.8711 7.8711 7.8711s7.8711-3.5234 7.8711-7.8711v-28.34c0-4.3477-3.5234-7.8711-7.8711-7.8711s-7.8711 3.5234-7.8711 7.8711z"/>
  <path d="m358.43 331.91c-4.3477 0-7.8711 3.5234-7.8711 7.8711v41.723c0 4.3477 3.5234 7.8711 7.8711 7.8711s7.8711-3.5234 7.8711-7.8711v-41.723c0-2.0859-0.82813-4.0898-2.3047-5.5664-1.4766-1.4766-3.4766-2.3047-5.5664-2.3047z"/>
  <path d="m395.98 315.53c-4.3477 0-7.8711 3.5234-7.8711 7.8711v58.02c0 4.3477 3.5234 7.8711 7.8711 7.8711s7.8711-3.5234 7.8711-7.8711v-58.176c-0.085938-4.2852-3.5859-7.7148-7.8711-7.7148z"/>
  <path d="m245.79 344.89c1.875 0 3.6914-0.67188 5.1172-1.8906l33.457-29.598 32.828 17.871h-0.003906c2.1445 1.0195 4.6289 1.0195 6.7695 0l78.719-34.402h0.003906c-0.16406 3.5703 2.0977 6.8047 5.5078 7.8711 0.68359 0.078125 1.3672 0.078125 2.0469 0 3.4414-0.066406 6.4375-2.3633 7.4023-5.668l3.6211-13.305v0.003906c0.83594-3.2344-0.46094-6.6406-3.2266-8.5039l-11.57-7.4766h-0.003906c-3.6016-2.1836-8.2891-1.1445-10.625 2.3594-1.9531 3.293-1.2578 7.5117 1.6523 10l-76.203 33.613-34.242-18.656v-0.003906c-2.832-1.4883-6.2891-1.1172-8.7383 0.94531l-37.551 33.062c-3.1055 2.8477-3.418 7.6367-0.70703 10.863 1.4141 1.7461 3.5039 2.8086 5.7461 2.9141z"/>
 </g>
</svg>