<?xml version="1.0" encoding="UTF-8"?>
<!-- The Best Svg Icon site in the world: iconSvg.co, Visit us! https://iconsvg.co -->
<svg fill="#000000" width="800px" height="800px" version="1.1" viewBox="144 144 512 512" xmlns="http://www.w3.org/2000/svg">
 <g>
  <path d="m313.29 427.46h27.867v62.086h-27.867z"/>
  <path d="m390.78 385.59h27.867v103.95h-27.867z"/>
  <path d="m468.27 338.42h27.867v151.12h-27.867z"/>
  <path d="m400 169.09c-127.33 0-230.91 103.59-230.91 230.91s103.59 230.91 230.91 230.91c127.34 0 230.91-103.59 230.91-230.91-0.003906-127.33-103.58-230.91-230.91-230.91zm-140.19 197.58c-5.625 0-10.277-4.4492-10.484-10.117-0.21094-5.793 4.3125-10.664 10.109-10.863 59.773-2.1641 116.42-29.191 155.87-74.102-9.3398-7.1055-19.145-13.582-29.629-18.82-2.3086-1.1445-3.8711-3.4648-4.1055-6.0234-0.1875-1.9609 0.41797-3.8945 1.6992-5.4375 1.2812-1.5312 3.0742-2.4766 5.0703-2.6445l68.664-6.1914c4.7969 0.21875 8.082 3.2734 8.125 7.3359l0.79688 64.277c0.03125 2.3945-1.0898 4.6602-3.0234 6.0859-1.2695 0.95703-2.832 1.4688-4.4414 1.4688-2.3516 0-4.5977-1.125-5.9922-3.0117-6.2969-8.4492-13.531-16.113-21.16-23.395-43.242 49.363-105.48 79.035-171.12 81.418-0.125 0.019531-0.25 0.019531-0.37891 0.019531zm264.18 133.37h-238.6c-2.8984 0-5.2461-2.3633-5.2461-5.2461 0-2.8984 2.3516-5.2461 5.2461-5.2461h17.402v-67.332c0-2.8984 2.3516-5.2461 5.2461-5.2461h38.363c2.8984 0 5.2461 2.3516 5.2461 5.2461v67.332h28.645l0.007813-109.2c0-2.8984 2.3516-5.2461 5.2461-5.2461h38.363c2.8867 0 5.2461 2.3516 5.2461 5.2461v109.2h28.645l0.003906-156.37c0-2.9062 2.3398-5.2461 5.2461-5.2461h38.332c2.8867 0 5.2461 2.3398 5.2461 5.2461v156.37h17.359c2.9062 0 5.2461 2.3516 5.2461 5.2461 0.003906 2.8945-2.3242 5.2461-5.2422 5.2461z"/>
 </g>
</svg>