<?xml version="1.0" encoding="UTF-8"?>
<!-- The Best Svg Icon site in the world: iconSvg.co, Visit us! https://iconsvg.co -->
<svg width="800px" height="800px" version="1.1" viewBox="144 144 512 512" xmlns="http://www.w3.org/2000/svg">
 <defs>
  <clipPath id="a">
   <path d="m148.09 242h503.81v409.9h-503.81z"/>
  </clipPath>
 </defs>
 <g clip-path="url(#a)">
  <path d="m407.87 384.25h-15.746c-4.1758 0-8.1797-1.6562-11.133-4.6094-2.9492-2.9531-4.6094-6.957-4.6094-11.133 0-4.3477-3.5234-7.875-7.8711-7.875-4.3477 0-7.875 3.5273-7.875 7.875 0 8.3516 3.3203 16.359 9.2227 22.266 5.9062 5.9023 13.914 9.2227 22.266 9.2227v7.8711c0 4.3477 3.5273 7.8711 7.875 7.8711s7.8711-3.5234 7.8711-7.8711v-7.8711c11.25 0 21.645-6.0039 27.27-15.746 5.625-9.7422 5.625-21.746 0-31.488s-16.02-15.742-27.27-15.742h-15.746c-5.625 0-10.82-3-13.633-7.875-2.8125-4.8711-2.8125-10.871 0-15.742s8.0078-7.8711 13.633-7.8711h15.746c4.1758 0 8.1797 1.6562 11.133 4.6094s4.6094 6.957 4.6094 11.133c0 4.3477 3.5273 7.8711 7.875 7.8711 4.3477 0 7.8711-3.5234 7.8711-7.8711-0.027344-8.3438-3.3516-16.336-9.25-22.238-5.9023-5.8984-13.895-9.2227-22.238-9.25v-7.8711c0-4.3477-3.5234-7.8711-7.8711-7.8711s-7.875 3.5234-7.875 7.8711v7.8711c-11.25 0-21.645 6.0039-27.27 15.746-5.625 9.7422-5.625 21.746 0 31.488 5.625 9.7422 16.02 15.742 27.27 15.742h15.746c5.625 0 10.82 3 13.633 7.8711 2.8125 4.8711 2.8125 10.875 0 15.746-2.8125 4.8711-8.0078 7.8711-13.633 7.8711zm212.54-46.43v-24.418c0-10.438-4.1445-20.449-11.527-27.832-7.3828-7.3828-17.395-11.527-27.832-11.527h-107.53c-19.172-20.109-45.742-31.492-73.523-31.492-27.785 0-54.355 11.383-73.527 31.492h-139.02c-10.438 0-20.449 4.1445-27.832 11.527-7.3789 7.3828-11.527 17.395-11.527 27.832v299.14c0 10.438 4.1484 20.449 11.527 27.832 7.3828 7.3828 17.395 11.527 27.832 11.527h425.09c10.438 0 20.449-4.1445 27.832-11.527s11.527-17.395 11.527-27.832v-236.16c0-9.0703-3.1367-17.863-8.875-24.891-5.7344-7.0234-13.723-11.852-22.613-13.668zm-39.359-48.035c6.2656 0 12.27 2.4883 16.699 6.918 4.4297 4.4297 6.918 10.438 6.918 16.699v23.617h-102.65c-1.1992-16.84-6.6719-33.098-15.902-47.234zm-247.81 0c14.621-17.758 35.719-28.961 58.621-31.125 22.898-2.1641 45.719 4.8867 63.41 19.594 17.688 14.703 28.789 35.852 30.844 58.766 0.63281 5.2266 0.63281 10.516 0 15.742-0.89063 11.004-3.9961 21.715-9.1289 31.488-9.6367 19.098-26.023 33.93-45.98 41.625-19.957 7.6914-42.062 7.6914-62.02 0-19.957-7.6953-36.344-22.527-45.977-41.625-5.1328-9.7734-8.2383-20.484-9.1328-31.488-0.62891-5.2266-0.62891-10.516 0-15.742 1.4648-17.355 8.2227-33.844 19.363-47.234zm-145.79 0h126.43c-9.2266 14.137-14.699 30.395-15.902 47.234h-110.52c-8.4375 0-16.234-4.5039-20.453-11.809-4.2188-7.3086-4.2188-16.309 0-23.617 4.2188-7.3047 12.016-11.809 20.453-11.809zm448.71 251.91h-78.723c-16.871 0-32.465-9.0039-40.902-23.617s-8.4375-32.617 0-47.23c8.4375-14.613 24.031-23.617 40.902-23.617h78.719zm0-110.21h-78.723c-22.496 0-43.289 12-54.539 31.488-11.246 19.484-11.246 43.488 0 62.973 11.25 19.488 32.043 31.488 54.539 31.488h78.719v55.105h0.003906c0 6.2617-2.4883 12.27-6.918 16.699-4.4297 4.4297-10.438 6.918-16.699 6.918h-425.09c-6.2617 0-12.27-2.4883-16.699-6.918-4.4297-4.4297-6.918-10.438-6.918-16.699v-267.65c6.8164 5.1094 15.102 7.8711 23.617 7.8711h110.52c0.77734 10.84 3.332 21.477 7.5586 31.488h-70.848c-4.3477 0-7.875 3.5234-7.875 7.8711s3.5273 7.875 7.875 7.875h79.191c18.754 29.418 51.23 47.227 86.121 47.227 34.887 0 67.363-17.809 86.117-47.227h79.195c4.3477 0 7.8711-3.5273 7.8711-7.875s-3.5234-7.8711-7.8711-7.8711h-70.852c4.2305-10.012 6.7812-20.648 7.5586-31.488h110.52c6.2617 0 12.27 2.4883 16.699 6.918 4.4297 4.4297 6.918 10.434 6.918 16.699zm-409.35 165.31c0 2.0859 0.83203 4.0898 2.3086 5.5664 1.4766 1.4727 3.4766 2.3047 5.5664 2.3047h330.62c4.3477 0 7.8711-3.5234 7.8711-7.8711 0-4.3477-3.5234-7.875-7.8711-7.875h-330.62c-4.3477 0-7.875 3.5273-7.875 7.875zm315.36-102.34c0 6.2656 2.4883 12.273 6.918 16.699 4.4258 4.4297 10.434 6.918 16.699 6.918 6.2617 0 12.27-2.4883 16.695-6.918 4.4297-4.4258 6.918-10.434 6.918-16.699 0-6.2617-2.4883-12.27-6.918-16.695-4.4258-4.4297-10.434-6.918-16.695-6.918-6.2656 0-12.273 2.4883-16.699 6.918-4.4297 4.4258-6.918 10.434-6.918 16.695zm23.617-7.8711c3.1836 0 6.0508 1.918 7.2695 4.8594 1.2188 2.9414 0.54687 6.3281-1.7031 8.5781-2.2539 2.2539-5.6406 2.9258-8.582 1.707-2.9414-1.2188-4.8594-4.0859-4.8594-7.2734 0-4.3477 3.5273-7.8711 7.875-7.8711z"/>
 </g>
</svg>