<?xml version="1.0" encoding="UTF-8"?>
<!-- The Best Svg Icon site in the world: iconSvg.co, Visit us! https://iconsvg.co -->
<svg fill="#000000" width="800px" height="800px" version="1.1" viewBox="144 144 512 512" xmlns="http://www.w3.org/2000/svg">
 <path d="m260.45 434c-0.011719 1.8477 1.0039 3.5508 2.625 4.4336l137.8 74.973c0.019531 0.011719 0.050781 0.015625 0.070312 0.023438 0.22656 0.11719 0.45313 0.19531 0.69922 0.27734 0.45312 0.15234 0.91797 0.25781 1.375 0.28125 0.058594 0 0.10547 0.03125 0.15625 0.03125 0.039063-0.003906 0.082031-0.003906 0.10547 0 0.22656 0 0.46484-0.015625 0.69922-0.050781l131-18.414c2.4805-0.34766 4.3281-2.4688 4.3359-4.9766l0.050782-30.051c0-0.20312-0.10156-0.37891-0.11719-0.57422-0.050781-0.41406-0.11719-0.8125-0.26562-1.1992-0.10156-0.26562-0.23828-0.5-0.38281-0.74219-0.20703-0.34375-0.42187-0.66016-0.71094-0.94531-0.10156-0.10547-0.14453-0.24609-0.25781-0.33594-0.11719-0.10938-0.29687-0.14062-0.43359-0.23828-0.16797-0.12109-0.27734-0.29297-0.46484-0.39453l-48.875-26.586 0.039063-21.871 47.254-6.6367c2.4805-0.34766 4.3281-2.4688 4.3359-4.9766l0.050781-30.012c0-0.097656-0.050781-0.17188-0.058593-0.26172-0.03125-0.57422-0.13672-1.1289-0.35156-1.6484-0.03125-0.074219-0.03125-0.14453-0.058594-0.21484-0.27734-0.57812-0.67187-1.082-1.1445-1.5312-0.050781-0.046875-0.070312-0.10547-0.11719-0.15234-0.082032-0.074219-0.19531-0.097656-0.29688-0.16016-0.19531-0.15625-0.37109-0.34375-0.59766-0.46875l-137.79-74.988c-0.95312-0.51953-2.0352-0.71875-3.1094-0.55859l-131 18.41c-0.10156 0.015625-0.16797 0.066406-0.26562 0.082032-0.31641 0.066406-0.62109 0.16016-0.92578 0.28906-0.15625 0.070312-0.32422 0.12109-0.47266 0.20312-0.070312 0.035156-0.13672 0.050781-0.20703 0.089844-0.25781 0.14453-0.46484 0.34375-0.67969 0.52734-0.089844 0.082032-0.19531 0.13672-0.28906 0.22266-0.34375 0.33594-0.64062 0.72656-0.86719 1.1484-0.050782 0.085938-0.070313 0.17578-0.10547 0.26562-0.17578 0.35156-0.30859 0.71875-0.39453 1.1016-0.011719 0.058594-0.050782 0.10547-0.058594 0.16797-0.019532 0.10938 0.011718 0.22266 0 0.32813-0.03125 0.1875-0.082032 0.36719-0.082032 0.55859l-0.050781 30.016c-0.011719 1.8477 1.0039 3.5508 2.625 4.4375l48.875 26.586-0.050781 21.867-47.242 6.6406c-0.089843 0.015625-0.16797 0.058594-0.24609 0.074219-0.33203 0.066406-0.64844 0.16797-0.95312 0.29688-0.15625 0.066406-0.31641 0.11719-0.46484 0.19531-0.070312 0.035157-0.13672 0.050782-0.20703 0.089844-0.25781 0.14453-0.46484 0.34375-0.67969 0.52734-0.089843 0.082031-0.19531 0.13672-0.28906 0.22266-0.34375 0.33594-0.64062 0.72656-0.86719 1.1484-0.050781 0.085937-0.070312 0.17578-0.10547 0.26562-0.17578 0.35156-0.30859 0.71875-0.39453 1.1016-0.011719 0.058594-0.050781 0.10547-0.058593 0.16797-0.019532 0.10938 0.011718 0.22266 0 0.32812-0.03125 0.1875-0.082032 0.36719-0.082032 0.55859zm20.898-27.18 34.812-4.8984 122.94 66.875-4.2305 0.59375-30.582 4.3008zm40.848-30.879 78.855 42.898c0.25781 0.13672 0.52344 0.21484 0.78516 0.3125 0.10156 0.03125 0.1875 0.082031 0.28906 0.10547 0.43359 0.11719 0.88672 0.19141 1.3398 0.19141 0.15625 0 0.31641-0.050781 0.48438-0.066407 0.070312-0.011718 0.13672 0.023438 0.21484 0.015626l45.828-6.4453-0.089844 50.246-127.75-69.488zm-51.496-39.484 0.039062-18.555 127.73 69.492-0.019531 9.2812-0.019531 9.2695zm248 26.668-114.23 16.055-122.94-66.883 114.24-16.055zm-30.848 77.832 30.672 16.691-30.711 4.3125zm-79.52 62.223 0.039063-19.879 47.242-6.6406c0.58984-0.085937 1.1328-0.27734 1.6211-0.53906 0.16797-0.085938 0.30859-0.21094 0.46484-0.31641 0.30859-0.21094 0.59766-0.42188 0.85547-0.69531 0.14453-0.15625 0.26562-0.33594 0.39453-0.51953 0.19531-0.27344 0.37109-0.55078 0.52344-0.86328 0.089844-0.21484 0.15625-0.43359 0.22656-0.66016 0.050781-0.17188 0.14453-0.32422 0.17578-0.50391 0.03125-0.17188 0-0.33594 0.011719-0.51562 0.011719-0.125 0.070312-0.24609 0.070312-0.37891l0.11719-64.512c0-1.4609-0.62891-2.8477-1.7344-3.8086-1.1016-0.96094-2.5781-1.3867-4.0039-1.1875l-45.828 6.4453 0.019532-11.07 0.011718-8.7656 120.93-16.992-0.039063 19.84-47.242 6.6367c-2.4883 0.34766-4.3281 2.4688-4.3359 4.9766l-0.11719 64.512c-0.011719 1.4609 0.62109 2.8477 1.7227 3.8086 1.1016 0.96094 2.5703 1.4141 4.0156 1.1875l45.828-6.4375-0.039063 19.875zm-137.81-72.16 0.039062-18.586 127.73 69.484-0.039063 18.59z"/>
</svg>