<?xml version="1.0" encoding="UTF-8"?>
<!-- The Best Svg Icon site in the world: iconSvg.co, Visit us! https://iconsvg.co -->
<svg fill="#000000" width="800px" height="800px" version="1.1" viewBox="144 144 512 512" xmlns="http://www.w3.org/2000/svg">
 <g>
  <path d="m635.68 216.64c-0.13281-0.47656-0.3125-0.9375-0.54297-1.3711-0.74219-1.0312-1.5742-1.9922-2.4805-2.8828l-70.848-47.23c-2.6445-1.7656-6.0938-1.7656-8.7383 0l-70.848 47.23c-1.0273 0.76562-1.8711 1.7461-2.4727 2.875-1.1758 3.5391-1.5273 7.3008-1.0312 10.996v71.402c0 2.0859 0.82812 4.0898 2.3047 5.5664 1.4766 1.4727 3.4805 2.3047 5.5664 2.3047h141.7c2.0859 0 4.0898-0.83203 5.5664-2.3047 1.4727-1.4766 2.3047-3.4805 2.3047-5.5664v-75.195c0.10547-1.9531-0.058594-3.9141-0.48047-5.8242zm-78.242-35.488 44.871 29.914h-89.738zm31.488 108.63h-62.977v-31.488h62.977zm31.488 0h-15.742v-39.359c0-2.0859-0.83203-4.0898-2.3047-5.5664-1.4766-1.4766-3.4805-2.3047-5.5664-2.3047h-78.723c-4.3477 0-7.8711 3.5234-7.8711 7.8711v39.359h-15.746v-62.977h125.95z"/>
  <path d="m510.21 400h-78.719c-4.3477 0-7.875 3.5234-7.875 7.8711v55.105h-70.848c-4.3477 0-7.8711 3.5234-7.8711 7.8711v62.977h-15.746c-4.1953 0-8.1484 4.3047-11.25 6.793l-13.227 10.57-12.52 10.031c-4.375 3.4961-9.7227 6.2188-10.234 12.359-0.23438 2.8516 0 50.082 0 54.711 0 2.0859 0.82812 4.0898 2.3047 5.5664 1.4766 1.4727 3.4805 2.3047 5.5664 2.3047h220.42c2.0859 0 4.0898-0.83203 5.5664-2.3047 1.4766-1.4766 2.3047-3.4805 2.3047-5.5664v-220.42c0-2.0898-0.82812-4.0898-2.3047-5.5664-1.4766-1.4766-3.4805-2.3047-5.5664-2.3047zm-47.23 220.41h-86.594v-39.359h86.594zm-91.703-55.102-19.68-15.742h77.145l19.68 15.742zm-10.637-86.594h62.977v55.105h-62.977zm-31.488 73.051 16.918 13.543h-33.852zm-31.484 29.285h62.977v39.359h-62.977zm204.67 39.359h-23.617v-40.934c0.42188-2.8711 0.054688-5.8047-1.0742-8.4844-1.125-2.6758-2.9609-4.9922-5.3086-6.6992l-12.676-10.141-20.301-16.246v-122.17h62.977z"/>
  <path d="m455.1 462.98c2.0898 0 4.0898-0.83203 5.5664-2.3086 1.4766-1.4766 2.3086-3.4766 2.3086-5.5664v-15.742c0-4.3477-3.5273-7.8711-7.875-7.8711-4.3477 0-7.8711 3.5234-7.8711 7.8711v15.742c0 2.0898 0.82812 4.0898 2.3047 5.5664 1.4766 1.4766 3.4805 2.3086 5.5664 2.3086z"/>
  <path d="m486.59 462.98c2.0898 0 4.0898-0.83203 5.5664-2.3086 1.4766-1.4766 2.3047-3.4766 2.3047-5.5664v-15.742c0-4.3477-3.5234-7.8711-7.8711-7.8711s-7.8711 3.5234-7.8711 7.8711v15.742c0 2.0898 0.82812 4.0898 2.3047 5.5664 1.4766 1.4766 3.4805 2.3086 5.5664 2.3086z"/>
  <path d="m455.1 510.21c2.0898 0 4.0898-0.82812 5.5664-2.3047 1.4766-1.4766 2.3086-3.4805 2.3086-5.5664v-15.746c0-4.3477-3.5273-7.8711-7.875-7.8711-4.3477 0-7.8711 3.5234-7.8711 7.8711v15.746c0 2.0859 0.82812 4.0898 2.3047 5.5664 1.4766 1.4766 3.4805 2.3047 5.5664 2.3047z"/>
  <path d="m486.59 510.21c2.0898 0 4.0898-0.82812 5.5664-2.3047 1.4766-1.4766 2.3047-3.4805 2.3047-5.5664v-15.746c0-4.3477-3.5234-7.8711-7.8711-7.8711s-7.8711 3.5234-7.8711 7.8711v15.746c0 2.0859 0.82812 4.0898 2.3047 5.5664 1.4766 1.4766 3.4805 2.3047 5.5664 2.3047z"/>
  <path d="m376.38 486.59c-4.3477 0-7.8711 3.5234-7.8711 7.8711v15.746c0 4.3477 3.5234 7.8711 7.8711 7.8711 4.3477 0 7.8711-3.5234 7.8711-7.8711v-15.746c0-2.0859-0.82812-4.0898-2.3047-5.5664-1.4766-1.4727-3.4805-2.3047-5.5664-2.3047z"/>
  <path d="m407.87 486.59c-4.3477 0-7.8711 3.5234-7.8711 7.8711v15.746c0 4.3477 3.5234 7.8711 7.8711 7.8711s7.8711-3.5234 7.8711-7.8711v-15.746c0-2.0859-0.82813-4.0898-2.3047-5.5664-1.4766-1.4727-3.4805-2.3047-5.5664-2.3047z"/>
  <path d="m313.41 276.9c-0.71484-22.074-12.395-42.34-31.141-54.023 9.0859-7.6562 14.516-18.789 14.957-30.664 0.16406-4.4414-1.168-8.8086-3.7812-12.402-2.6172-3.5938-6.3633-6.2031-10.641-7.4102-5.6562-1.5625-11.715-0.44922-16.445 3.0234-3.5352-2.2578-7.6445-3.4609-11.84-3.4609s-8.3047 1.2031-11.84 3.4609c-4.7344-3.4727-10.793-4.5859-16.453-3.0234-4.2695 1.207-8.0078 3.8125-10.621 7.3984-2.6133 3.5859-3.9492 7.9414-3.793 12.375 0.72266 11.828 6.4219 22.793 15.684 30.184-19.16 11.617-31.148 32.129-31.867 54.52 0 34.785 22.043 55.555 58.891 55.555s58.891-20.742 58.891-55.531zm-64.961-62.527c-5.5625-0.76172-10.691-3.4297-14.504-7.5547s-6.0742-9.4453-6.3945-15.051c-0.13281-1.8125 0.92969-3.4961 2.6211-4.1484 0.41016-0.10547 0.82812-0.16016 1.25-0.16797 0.66406-0.019531 1.3164 0.1875 1.8516 0.58203 0.80469 0.67969 1.2461 1.7031 1.1797 2.7578 0 4.3477 3.5234 7.8711 7.8711 7.8711 4.3477 0 7.875-3.5234 7.875-7.8711 0-1.9531 2.2734-3.3125 4.3203-3.3125s4.3203 1.3633 4.3203 3.3125c0 4.3477 3.5273 7.8711 7.875 7.8711 4.3477 0 7.8711-3.5234 7.8711-7.8711-0.0625-1.0547 0.375-2.0742 1.1797-2.7578 0.91406-0.60547 2.0547-0.75781 3.0938-0.41406 1.6953 0.65234 2.7617 2.3359 2.6289 4.1484-0.28906 10.641-8.5234 22.605-19.098 22.605zm6.0703 102.34c-35.66 0-43.148-21.648-43.148-39.809 0-23.617 21.371-46.785 43.148-46.785 21.773 0.003906 43.148 23.18 43.148 46.785 0 18.16-7.4883 39.809-43.148 39.809z"/>
  <path d="m254.52 293.1c-4.1758 0-8.1797-1.6602-11.133-4.6133-2.9531-2.9531-4.6094-6.957-4.6094-11.133 0-4.3477-3.5273-7.8711-7.875-7.8711-4.3477 0-7.8711 3.5234-7.8711 7.8711 0 8.3516 3.3164 16.359 9.2227 22.266s13.914 9.2227 22.266 9.2227c4.3477 0 7.8711-3.5234 7.8711-7.8711s-3.5234-7.8711-7.8711-7.8711z"/>
  <path d="m400 218.94c-4.3477 0-7.875 3.5234-7.875 7.8711v15.742l-15.742 0.003906c-4.3477 0-7.8711 3.5234-7.8711 7.8711 0 4.3477 3.5234 7.8711 7.8711 7.8711h15.742v15.746c0 4.3477 3.5273 7.8711 7.875 7.8711s7.8711-3.5234 7.8711-7.8711v-15.746h15.742c4.3477 0 7.875-3.5234 7.875-7.8711 0-4.3477-3.5273-7.8711-7.875-7.8711h-15.742v-15.746c0-2.0859-0.82812-4.0898-2.3047-5.5664-1.4766-1.4766-3.4805-2.3047-5.5664-2.3047z"/>
  <path d="m368.51 337.02h-15.746c-3.1836 0-6.0508 1.918-7.2695 4.8594-1.2188 2.9414-0.54688 6.3242 1.7031 8.5781l47.23 47.23h0.003906c3.0742 3.0742 8.0547 3.0742 11.129 0l47.23-47.23h0.003906c2.25-2.2539 2.9219-5.6367 1.7031-8.5781-1.2148-2.9414-4.0859-4.8594-7.2695-4.8594h-15.742v-31.488c0-2.0898-0.83203-4.0898-2.3086-5.5664-1.4766-1.4766-3.4766-2.3047-5.5664-2.3047h-47.23c-4.3477 0-7.8711 3.5234-7.8711 7.8711zm7.8711 15.742c2.0859 0 4.0898-0.82812 5.5664-2.3047 1.4766-1.4766 2.3047-3.4805 2.3047-5.5664v-31.488h31.488v31.488c0 2.0859 0.82812 4.0898 2.3047 5.5664 1.4766 1.4766 3.4805 2.3047 5.5664 2.3047h4.6133l-28.227 28.23-28.23-28.23z"/>
 </g>
</svg>