<?xml version="1.0" encoding="UTF-8"?>
<!-- The Best Svg Icon site in the world: iconSvg.co, Visit us! https://iconsvg.co -->
<svg fill="#000000" width="800px" height="800px" version="1.1" viewBox="144 144 512 512" xmlns="http://www.w3.org/2000/svg">
 <g>
  <path d="m615 408.53-49.996-79.016c-2.8242-4.4336-7.7148-7.1211-12.973-7.1211-5.2578 0-10.148 2.6836-12.973 7.1172-2.8242 4.4297-3.1914 10-0.96875 14.762l21.52 45.629c-3.3945 2.8555-6.043 8.1289-7.5195 11.59-2.6758 6.1797-29.668 60.469-30.09 61.363-6.0117 15.598-0.31641 33.199-0.078125 33.93l12.949 39.645v34.254c0.10938 2.1914 1.9141 3.9102 4.1094 3.9102 2.1914 0 4-1.7188 4.1094-3.9102v-34.895c-0.003906-0.42969-0.070312-0.85547-0.19922-1.2656l-13.156-40.273c-0.050781-0.15625-5.0078-15.598-0.22656-28.062 1.1211-2.2422 27.355-55.016 30.141-61.422v-0.003906c1.1992-2.9258 2.7969-5.6641 4.7539-8.1484l0.23438 0.097657c0.089844 0 8.7969 3.9375 4.6445 21.098l-11.09 45.688c-0.25781 1.0586-0.089843 2.1758 0.47266 3.1094 0.56641 0.93359 1.4766 1.6055 2.5352 1.8633 2.2031 0.54688 4.4297-0.80078 4.9727-3.0039l11.09-45.688c5.125-21.117-5.4336-28.535-8.7266-30.258l-0.078124-0.070312-22.938-48.629c-1.6367-3.4258-0.31641-7.5352 3.0156-9.3633 3.3281-1.832 7.5039-0.74219 9.5195 2.4766l49.996 79.016c2.3594 3.6953 3.1836 8.1641 2.3047 12.457l-20.891 103.57c-0.058594 0.26953-0.089844 0.54297-0.089844 0.81641v40.918c0 2.2695 1.8438 4.1133 4.1133 4.1133 2.2734 0 4.1133-1.8438 4.1133-4.1133v-40.504l20.84-103.2c1.2891-6.3711 0.054688-12.996-3.4414-18.477z"/>
  <path d="m247.91 401.54c-1.4844-3.4727-4.1328-8.7461-7.5273-11.609l21.52-45.629c2.2227-4.7656 1.8555-10.332-0.96875-14.766-2.8242-4.4336-7.7148-7.1172-12.973-7.1133-5.2539 0-10.148 2.6836-12.969 7.1172l-50 78.988c-3.4961 5.4805-4.7305 12.105-3.4414 18.477l20.852 103.2v40.504c0.10547 2.1875 1.9141 3.9102 4.1055 3.9102 2.1953 0 4.0039-1.7227 4.1094-3.9102v-40.918c0-0.27344-0.027344-0.54688-0.078126-0.81641l-20.902-103.59c-0.87891-4.293-0.054688-8.7617 2.3047-12.457l49.996-79.016c2.0156-3.2188 6.1953-4.3086 9.5234-2.4766 3.3281 1.8281 4.6484 5.9375 3.0117 9.3633l-22.934 48.629s-0.058593 0-0.078124 0.070312c-3.2969 1.7422-13.855 9.1406-8.7266 30.258l11.09 45.688 7.9805-1.9688-11.055-45.656c-4.1211-17.031 4.3594-20.969 4.6445-21.098l0.23438-0.097656c1.9609 2.4883 3.5625 5.2344 4.7656 8.1641 2.7734 6.3867 29.008 59.16 29.973 61.059 4.9219 12.793 0 28.25-0.070313 28.418l-13.156 40.266c-0.12891 0.41016-0.19531 0.83984-0.19531 1.2695v34.914c0.10547 2.1875 1.9141 3.9102 4.1055 3.9102 2.1953 0 4.0039-1.7227 4.1094-3.9102v-34.254l12.941-39.625c0.24609-0.74609 5.9023-18.352-0.22656-34.301-0.30469-0.54297-27.297-54.832-29.965-60.992z"/>
  <path d="m512.58 225.18h-225.16c-1.0898 0-2.1367 0.42969-2.9062 1.1992-0.77344 0.76953-1.207 1.8164-1.207 2.9062v130.87c0.007812 2.2695 1.8477 4.1016 4.1133 4.1016h225.16c2.2695 0 4.1094-1.832 4.1133-4.1016v-130.87c0-1.0898-0.43359-2.1367-1.207-2.9062-0.76953-0.76953-1.8164-1.1992-2.9062-1.1992zm-221.05 43.77c9.1016-0.95703 17.602-5.0117 24.074-11.48 6.4727-6.4727 10.527-14.969 11.484-24.07h145.83c0.95703 9.1016 5.0156 17.598 11.488 24.07 6.4727 6.4688 14.969 10.523 24.074 11.48v51.57c-9.1055 0.95703-17.602 5.0117-24.074 11.48-6.4727 6.4727-10.531 14.969-11.488 24.074h-145.83c-0.95703-9.1055-5.0117-17.602-11.484-24.074-6.4727-6.4688-14.973-10.523-24.074-11.48zm216.95-8.2852c-6.9141-0.91406-13.332-4.0781-18.262-9.0078-4.9336-4.9297-8.1016-11.348-9.0156-18.258h27.277zm-189.68-27.266c-0.91406 6.9102-4.082 13.328-9.0117 18.258-4.9336 4.9297-11.352 8.0938-18.262 9.0078v-27.266zm-27.277 95.449 0.003907-0.003906c6.9102 0.91406 13.328 4.082 18.262 9.0117 4.9297 4.9258 8.0977 11.344 9.0117 18.258h-27.273zm189.68 27.266h0.003907c0.91406-6.9141 4.082-13.332 9.0156-18.258 4.9297-4.9297 11.348-8.0977 18.262-9.0117v27.266z"/>
  <path d="m395.89 326.35v3.9375-0.003906c0 2.2734 1.8398 4.1133 4.1133 4.1133 2.2695 0 4.1133-1.8398 4.1133-4.1133v-3.9375 0.003906c7.2344-1.3203 13.32-6.1953 16.188-12.965 2.8672-6.7734 2.1289-14.535-1.9609-20.648-4.0938-6.1133-10.988-9.7539-18.34-9.6836-4.0039 0-7.6133-2.4141-9.1484-6.1133-1.5312-3.6992-0.68359-7.957 2.1484-10.785 2.8281-2.832 7.0859-3.6797 10.785-2.1484 3.6992 1.5352 6.1133 5.1445 6.1133 9.1484-0.054688 1.1211 0.35156 2.2188 1.1289 3.0352s1.8516 1.2773 2.9766 1.2773c1.1289 0 2.2031-0.46094 2.9805-1.2773s1.1836-1.9141 1.1289-3.0352c-0.003906-4.0898-1.3906-8.0586-3.9297-11.258-2.543-3.2031-6.0898-5.4531-10.07-6.3867v-4.0352c0-2.2695-1.8438-4.1133-4.1133-4.1133-2.2734 0-4.1133 1.8438-4.1133 4.1133v4.0352c-5.8672 1.3203-10.695 5.4648-12.891 11.062-2.1914 5.5977-1.4648 11.922 1.9414 16.875 3.4062 4.9531 9.0469 7.8945 15.062 7.8516 5.5078-0.003906 10.477 3.3086 12.586 8.3984 2.1133 5.0898 0.94922 10.949-2.9453 14.844-3.8945 3.8984-9.75 5.0664-14.84 2.957-5.0938-2.1055-8.4102-7.0742-8.4102-12.582 0.054687-1.125-0.35547-2.2227-1.1289-3.0391-0.77734-0.8125-1.8555-1.2734-2.9805-1.2734s-2.2031 0.46094-2.9766 1.2734c-0.77734 0.81641-1.1875 1.9141-1.1328 3.0391 0.007813 5.0742 1.7773 9.9844 5.0117 13.895 3.2305 3.9102 7.7227 6.5742 12.703 7.5391z"/>
  <path d="m494.7 377h-189.4c-2.1914 0.10547-3.9102 1.9141-3.9102 4.1055 0 2.1953 1.7188 4.0039 3.9102 4.1094h189.4c2.1914-0.10547 3.9102-1.9141 3.9102-4.1094 0-2.1914-1.7188-4-3.9102-4.1055z"/>
  <path d="m484.46 399.17h-168.91c-1.125-0.054687-2.2227 0.35156-3.0391 1.1289-0.81641 0.77734-1.2773 1.8555-1.2773 2.9805s0.46094 2.2031 1.2773 2.9766c0.81641 0.77734 1.9141 1.1875 3.0391 1.1289h168.91c1.1211 0.058593 2.2227-0.35156 3.0352-1.1289 0.81641-0.77344 1.2773-1.8516 1.2773-2.9766s-0.46094-2.2031-1.2773-2.9805c-0.8125-0.77734-1.9141-1.1836-3.0352-1.1289z"/>
 </g>
</svg>