<?xml version="1.0" encoding="UTF-8"?>
<!-- The Best Svg Icon site in the world: iconSvg.co, Visit us! https://iconsvg.co -->
<svg fill="#000000" width="800px" height="800px" version="1.1" viewBox="144 144 512 512" xmlns="http://www.w3.org/2000/svg">
 <g>
  <path d="m267.28 325.16 94.559-157.35 13.492 8.1094-94.559 157.35z"/>
  <path d="m360.64 329.15c8.3516 0 16.363-3.3164 22.266-9.2227 5.9062-5.9023 9.2227-13.914 9.2227-22.262 0-8.3516-3.3164-16.363-9.2227-22.266-5.9023-5.9062-13.914-9.2227-22.266-9.2227-8.3477 0-16.359 3.3164-22.266 9.2227-5.9023 5.9023-9.2227 13.914-9.2227 22.266 0 8.3477 3.3203 16.359 9.2227 22.262 5.9062 5.9062 13.918 9.2227 22.266 9.2227zm0-47.23c4.1758 0 8.1836 1.6602 11.133 4.6133 2.9531 2.9492 4.6133 6.957 4.6133 11.133 0 4.1719-1.6602 8.1797-4.6133 11.133-2.9492 2.9492-6.957 4.6094-11.133 4.6094s-8.1797-1.6602-11.133-4.6094c-2.9492-2.9531-4.6094-6.9609-4.6094-11.133 0-4.1758 1.6602-8.1836 4.6094-11.133 2.9531-2.9531 6.957-4.6133 11.133-4.6133z"/>
  <path d="m313.41 203.2c0-8.3516-3.3164-16.363-9.2227-22.266-5.9062-5.9062-13.914-9.2227-22.266-9.2227-8.3516 0-16.359 3.3164-22.266 9.2227-5.9062 5.9023-9.2227 13.914-9.2227 22.266 0 8.3516 3.3164 16.359 9.2227 22.266 5.9062 5.9023 13.914 9.2227 22.266 9.2227 8.3516 0 16.359-3.3203 22.266-9.2227 5.9062-5.9062 9.2227-13.914 9.2227-22.266zm-31.488 15.742c-4.1758 0-8.1797-1.6562-11.133-4.6094s-4.6094-6.957-4.6094-11.133 1.6562-8.1797 4.6094-11.133 6.957-4.6133 11.133-4.6133 8.1797 1.6602 11.133 4.6133 4.6133 6.957 4.6133 11.133-1.6602 8.1797-4.6133 11.133-6.957 4.6094-11.133 4.6094z"/>
  <path d="m620.2 203.2-75.461 2.1094c-2.0898 0.054687-4.0742 0.9375-5.5117 2.457l-31.141 32.934c-2.1914 2.3164-2.7695 5.7188-1.4688 8.6289 1.3008 2.9062 4.2266 4.7422 7.4102 4.6523l30.109-0.85156h0.003907c-103.48 89.465-235.64 138.79-372.43 139-4.3477 0-7.875 3.5273-7.875 7.875v31.488c0 2.0859 0.83203 4.0898 2.3086 5.5664 1.4766 1.4727 3.4766 2.3047 5.5664 2.3047 151.55-0.20703 297.75-56.117 410.76-157.09l1.0391 37.414c0.085937 3.1836 2.082 6 5.0586 7.1367 2.9727 1.1406 6.3398 0.37109 8.5273-1.9414l31.141-32.938c1.4375-1.5156 2.2109-3.5391 2.1523-5.625l-2.1016-75.465c-0.23047-4.2969-3.7891-7.6602-8.0938-7.6484zm-21.477 97.047-0.98438-35.574c-0.09375-3.0898-1.9883-5.8398-4.8438-7.0273-2.8516-1.1875-6.1367-0.59375-8.3945 1.5156-109.66 103.51-254.13 162.17-404.91 164.4v-15.742c145.4-2.2305 284.8-58.309 391.24-157.39 2.4102-2.2266 3.1875-5.7148 1.9492-8.7539-1.2422-3.0391-4.2344-4.9883-7.5117-4.8945l-32.676 0.92969 15.84-16.75 64.34-1.8008 1.793 64.34z"/>
  <path d="m557.44 423.61h-157.44c-4.3477 0-7.875 3.5273-7.875 7.875v68.488-0.003906c-14.168-20.258-36.32-33.492-60.875-36.371-24.551-2.875-49.164 4.8789-67.637 21.309-18.469 16.434-29.035 39.977-29.035 64.695 0 24.723 10.566 48.266 29.035 64.695 18.473 16.434 43.086 24.188 67.637 21.309 24.555-2.8789 46.707-16.113 60.875-36.371v29.051c0 2.0859 0.83203 4.0898 2.3086 5.5664 1.4766 1.4727 3.4766 2.3047 5.5664 2.3047h157.44c2.0898 0 4.0898-0.83203 5.5664-2.3047 1.4766-1.4766 2.3086-3.4805 2.3086-5.5664v-196.8c0-2.0898-0.83203-4.0898-2.3086-5.5664-1.4766-1.4766-3.4766-2.3086-5.5664-2.3086zm-236.16 196.8c-18.789 0-36.809-7.4648-50.098-20.75-13.285-13.285-20.75-31.309-20.75-50.098 0-18.789 7.4648-36.809 20.75-50.098 13.289-13.285 31.309-20.75 50.098-20.75 18.793 0 36.812 7.4648 50.098 20.75 13.289 13.289 20.75 31.309 20.75 50.098-0.019531 18.785-7.4922 36.793-20.773 50.074s-31.289 20.754-50.074 20.773zm228.29 0h-15.742v-15.742h-15.746v15.742h-15.742v-15.742h-15.746v15.742h-15.742v-15.742h-15.746v15.742h-15.742v-15.742h-15.746v15.742h-15.742v-23.613h141.7zm0-39.359h-15.742v-15.742h-15.746v15.742h-15.742v-15.742h-15.746v15.742h-15.742v-15.742h-15.746v15.742h-15.742v-15.742h-15.746v15.742h-15.742v-23.617h141.7zm0-39.359h-15.742v-15.746h-15.746v15.742l-15.742 0.003906v-15.746h-15.746v15.742l-15.742 0.003906v-15.746h-15.746v15.742l-15.742 0.003906v-15.746h-15.746v15.742l-15.742 0.003906v-23.617h141.7zm0-39.359h-15.742v-15.746h-15.746v15.742l-15.742 0.003907v-15.746h-15.746v15.742l-15.742 0.003907v-15.746h-15.746v15.742l-15.742 0.003907v-15.746h-15.746v15.742l-15.742 0.003907v-23.617h141.7zm0-39.359h-15.742v-15.746h-15.746v15.742l-15.742 0.003906v-15.746h-15.746v15.742l-15.742 0.003906v-15.746h-15.746v15.742l-15.742 0.003906v-15.746h-15.746v15.742l-15.742 0.003906v-23.617h141.7z"/>
  <path d="m321.28 525.95c2.0898 0 4.0898 0.83203 5.5664 2.3086 1.4766 1.4766 2.3047 3.4766 2.3047 5.5664h15.746c-0.019531-4.8672-1.543-9.6094-4.3633-13.578-2.8164-3.9688-6.793-6.9688-11.383-8.5898v-9.3203h-15.742v9.3203c-7.0547 2.4844-12.512 8.1719-14.699 15.32-2.1914 7.1523-0.85547 14.922 3.5977 20.93 4.4531 6.0078 11.496 9.5469 18.973 9.5312 3.1836 0 6.0547 1.918 7.2734 4.8594s0.54688 6.3281-1.707 8.582c-2.25 2.25-5.6367 2.9219-8.5781 1.7031-2.9414-1.2148-4.8594-4.0859-4.8594-7.2695h-15.742c0.019532 4.8672 1.543 9.6055 4.3594 13.574 2.8203 3.9688 6.793 6.9688 11.383 8.5938v9.3203h15.742v-9.3203c7.0547-2.4883 12.512-8.1719 14.703-15.324 2.1914-7.1523 0.85547-14.918-3.5977-20.93-4.4531-6.0078-11.496-9.5469-18.977-9.5312-4.3477 0-7.8711-3.5234-7.8711-7.8711 0-4.3477 3.5234-7.875 7.8711-7.875z"/>
 </g>
</svg>