<?xml version="1.0" encoding="UTF-8"?>
<!-- The Best Svg Icon site in the world: iconSvg.co, Visit us! https://iconsvg.co -->
<svg width="800px" height="800px" version="1.1" viewBox="144 144 512 512" xmlns="http://www.w3.org/2000/svg">
 <defs>
  <clipPath id="a">
   <path d="m148.09 313h503.81v284h-503.81z"/>
  </clipPath>
 </defs>
 <path d="m427.22 423.3-7.9805-20.27c-5.9375 1.5078-12.152 2.3164-18.551 2.3164-6.3555 0-12.531-0.80078-18.43-2.2852l-7.9805 20.27c17.625 6.2891 35.047 6.2852 52.941-0.03125z"/>
 <path d="m467.23 313.5c-11.93-3.0664-19.223-15.223-24.32-23.754-1.4688-2.4609-3.5273-5.9023-4.9961-7.6875-13.426 15.117-31.727 13.223-49.426 11.391-20.426-2.1133-39.793-4.1055-54.594 17.98 1.8633 5.7891 3.6406 11.801 3.6406 18.504 0 34.824 28.332 63.152 63.156 63.152 34.824 0 63.16-28.332 63.16-63.152-0.003907-5.7617 1.5898-10.984 3.3789-16.434z"/>
 <path d="m389.75 281.27c16.129 1.668 30.059 3.1094 39.348-7.7266 3.5195-4.1172 7.1367-4.7383 9.5547-4.5312 6.4766 0.55078 10.324 6.9961 14.781 14.457 5.6133 9.3984 10.594 16.82 17.289 18.25 0.80859-3.5742 1.3516-7.4102 1.3516-11.715 0-39.363-32.023-71.387-71.387-71.387-39.359 0-71.383 32.023-71.383 71.387 0 2.3438 0.22266 4.5586 0.57031 6.7109 18.117-19.754 40.938-17.406 59.875-15.445z"/>
 <path d="m463.5 447.66-24.07-11.918-26.078 114.97 34.527-47.875-7.3672-15.742c-0.91406-1.9492-0.73438-4.2344 0.46875-6.0195z"/>
 <path d="m571.25 520.09c-5.1211 0-9.2891 4.1719-9.2891 9.2969 0 5.1211 4.168 9.2891 9.2891 9.2891s9.2891-4.168 9.2891-9.2891c0-5.125-4.168-9.2969-9.2891-9.2969z"/>
 <path d="m426.74 436.33c-8.7148 2.6055-17.434 3.9375-26.129 3.9375-8.6445 0-17.266-1.3164-25.832-3.8906l25.953 114.62z"/>
 <g clip-path="url(#a)">
  <path d="m587.26 313.96c-35.625 0-64.609 28.996-64.609 64.641 0 23.844 12.98 44.699 32.234 55.902-9.6562 18.484-22.168 35.078-37.277 49.453l-1.8438-10.418-41.184-20.391-21.5 31.906 7.4219 15.859c0.94141 2.0117 0.71875 4.3789-0.57812 6.1797l-54.207 75.164c-0.082032 0.11328-0.16797 0.22656-0.25781 0.33594 0 0-0.003906 0.007812-0.003906 0.011718-0.38281 0.46484-0.82422 0.86719-1.3086 1.1953-0.003906 0-0.003906 0.015625-0.007812 0.015625-0.57031 0.38281-1.082 0.69531-1.7656 0.87109-0.49219 0.125-1.3906 0.23828-1.3906 0.23828v0.070313h-0.26562c-0.55859 0-1.1055-0.16016-1.6367-0.30859 0 0-0.003906-0.089844-0.007813-0.089844-0.56641-0.15625-1.0977-0.39062-1.582-0.69531-0.003906 0-0.003906 0-0.007812-0.003907-0.55469-0.34766-1.0586-0.78516-1.4883-1.3047-0.089844-0.10938-0.17969-0.22266-0.26563-0.34375l-54.191-75.16c-1.3008-1.8047-1.5195-4.1719-0.57812-6.1836l7.4414-15.855-21.492-31.902-41.207 20.395-1.5156 8.5664c-15.219-14.027-27.887-30.254-37.773-48.379 18.527-11.379 30.914-31.832 30.914-55.125 0-35.641-28.984-64.641-64.609-64.641-35.629-0.003907-64.621 28.992-64.621 64.637 0 35.641 28.992 64.637 64.633 64.637 7.9805 0 15.621-1.4648 22.684-4.1211 11.355 20.953 26.188 39.539 44.195 55.34 0.65625 0.57812 1.4062 0.96875 2.1914 1.2148l-17.656 99.898 28.648 0.11719 9.8164-55.516c0.58984-3.332 3.7656-5.5547 7.0977-4.9688 3.332 0.58984 5.5547 3.7695 4.9648 7.0977l-9.4492 53.438 95.531 0.39844 96.102-0.40234-9.4453-53.438c-0.58984-3.332 1.6328-6.5078 4.9648-7.0977 3.3203-0.58984 6.5078 1.6328 7.0977 4.9688l9.8164 55.516 28.066-0.11719-17.219-97.34c0.066407-0.054687 0.14063-0.09375 0.20703-0.14844 18.828-16.598 34.176-36.254 45.684-58.449 6.6562 2.3242 13.797 3.6055 21.234 3.6055 35.645 0 64.645-28.996 64.645-64.637s-29-64.637-64.645-64.637zm-360.91 90.375c-2.2461 1.5977-5.4375 2.7969-7.4062 3.582v8.2305c0 3.3828-3.0156 6.125-6.3945 6.125-3.3828 0-6.3945-2.7422-6.3945-6.125v-7.3398c-2.9531-0.49219-7.7539-1.7031-11.543-3.6406-3.0117-1.5391-4.082-5.2305-2.543-8.2422 1.5391-3.0117 5.2656-4.207 8.2773-2.6641 4.2461 2.1719 8.2227 2.793 11.543 2.5352 0.13281-0.015625 0.27344-0.027344 0.41016-0.035157 2.8594-0.28906 5.2227-1.2383 6.8594-2.4023 1.7266-1.2305 2.6914-2.7422 2.5234-3.9453-0.23047-1.6445-2.6797-4.3281-8.7969-6.4961-16.266-5.7734-21.074-15.383-19.992-22.453 0.95703-6.3008 6.3711-10.977 13.258-12.793v-7.6523c0-3.3828 3.0156-6.125 6.3945-6.125 3.3828 0 6.3945 2.7422 6.3945 6.125v7.1641c1.9688 0.36328 5.7422 0.95312 8.7812 1.9023 3.2305 1.0078 5.0234 4.375 4.0156 7.6055s-4.4727 4.9375-7.707 3.9297c-4.0273-1.2578-7.8086-1.9609-11.137-1.9609h-0.03125c-4.918 0.98438-7.4844 2.2461-7.6641 3.4219-0.23047 1.5039 2.3555 5.9492 11.812 9.3047 13.305 4.7148 16.289 12.254 16.859 16.336 0.81641 5.832-1.9727 11.664-7.5195 15.613zm374.73 0c-2.25 1.6016-5.2695 2.7969-7.2383 3.5859v8.2266c0 3.3828-3.0156 6.125-6.3945 6.125-3.3828 0-6.3945-2.7422-6.3945-6.125v-7.3398c-2.9531-0.49219-7.9258-1.7031-11.715-3.6406-3.0156-1.5391-4.25-5.2305-2.7148-8.2422 1.5391-3.0117 5.2656-4.207 8.2773-2.668 4.2461 2.168 8.2227 2.793 11.547 2.5352 0.13672-0.015624 0.28516-0.027343 0.42188-0.035156 2.8594-0.29297 5.2305-1.2383 6.8672-2.4023 1.7266-1.2305 2.7109-2.7422 2.5391-3.9453-0.23047-1.6445-2.6367-4.332-8.75-6.5-16.262-5.7734-20.98-15.383-19.902-22.453 0.96094-6.293 6.543-10.969 13.43-12.785v-7.6523c0-3.3828 3.0117-6.125 6.3945-6.125 3.3828 0 6.3945 2.7422 6.3945 6.125v7.1641c1.9688 0.36328 5.5742 0.95312 8.6094 1.9023 3.2266 1.0078 4.8477 4.3789 3.8398 7.6094-1.0078 3.2305-4.4766 4.9336-7.707 3.9258-4.0195-1.2578-7.793-1.9609-11.137-1.9609h-0.035157c-4.9102 0.98438-7.4766 2.2461-7.6562 3.4219-0.23047 1.5039 2.3555 5.9492 11.805 9.3047 13.305 4.7148 16.371 12.254 16.941 16.336 0.82422 5.832-1.875 11.668-7.4219 15.613z"/>
 </g>
 <path d="m353.59 502.84 34.523 47.883-26.039-114.98-24.078 11.918 22.516 33.422c1.2031 1.7852 1.3789 4.0742 0.46484 6.0234z"/>
 <path d="m171.31 248.46h9.2539v8.418c0 3.3828 3.0156 6.125 6.3945 6.125 3.3828 0 6.3945-2.7422 6.3945-6.125l0.003906-8.418h8.7852c3.3828 0 6.125-3.0156 6.125-6.3945 0-3.3828-2.7422-6.3945-6.125-6.3945h-8.7852v-9.6172c0-3.3867-3.0156-6.1289-6.3984-6.1289-3.3828 0-6.3945 2.7422-6.3945 6.125v9.6211h-9.2539c-3.3828 0-6.125 3.0117-6.125 6.3945 0 3.3828 2.7422 6.3945 6.125 6.3945z"/>
 <path d="m583.91 245.14c2.3906 2.3906 6.2734 2.3906 8.6641 0l11.086-11.082 11.082 11.082c1.1953 1.1953 2.7656 1.793 4.332 1.793s3.1367-0.59766 4.332-1.793c2.3945-2.3906 2.3945-6.2695 0-8.6641l-11.082-11.082 11.082-11.082c2.3945-2.3906 2.3945-6.2695 0-8.6641-2.3906-2.3906-6.2695-2.3906-8.6641 0l-11.082 11.082-11.086-11.082c-2.3906-2.3906-6.2734-2.3906-8.6641 0-2.3945 2.3906-2.3945 6.2695 0 8.6641l11.082 11.082-11.082 11.082c-2.3906 2.3945-2.3906 6.2734 0 8.6641z"/>
 <path d="m241.61 525.95h-9.8711v-9.4531c0-3.3828-2.5195-6.125-5.9023-6.125-3.3828 0-5.9023 2.7422-5.9023 6.125l-0.003907 9.4531h-9.1445c-3.3828 0-6.125 3.0117-6.125 6.3945s2.7422 6.3945 6.125 6.3945l9.1445 0.003907v8.625c0 3.3828 2.5234 6.125 5.9023 6.125 3.3828 0 5.9023-2.7422 5.9023-6.125l0.003906-8.625h9.8711c3.3828 0 6.125-3.0117 6.125-6.3945 0-3.3828-2.7422-6.3984-6.125-6.3984z"/>
</svg>