<?xml version="1.0" encoding="UTF-8"?>
<!-- The Best Svg Icon site in the world: iconSvg.co, Visit us! https://iconsvg.co -->
<svg fill="#000000" width="800px" height="800px" version="1.1" viewBox="144 144 512 512" xmlns="http://www.w3.org/2000/svg">
 <g>
  <path d="m376.82 313.9c-4.4141-9.2227-13.246-15.543-23.398-16.746-10.156-1.1992-20.219 2.8867-26.66 10.824-6.4453 7.9375-8.375 18.625-5.1094 28.316-6.6719 12.934-39.215 72.195-86.027 94.621l-66.559 31.883c-7.6523 3.6719-13.531 10.234-16.348 18.238-2.8203 8.0039-2.3477 16.801 1.3086 24.457l21.824 45.559 0.003906 0.003907c3.6641 7.6523 10.223 13.539 18.23 16.359 8.0039 2.8203 16.801 2.3477 24.457-1.3164l4.1094-1.9688 49.18 53.379h0.003906c5.8242 6.3711 14.012 10.066 22.645 10.219 0.23438 0.007813 0.46875 0.007813 0.70312 0.007813 8.3867 0.023437 16.441-3.3047 22.363-9.25 5.6562-5.6641 8.9688-13.254 9.2773-21.254 0.30469-8-2.418-15.82-7.625-21.902-6.1016-7.0664-17.555-21.758-28.633-43.555 48.281-20.145 108.87-8.3438 122.15-5.3672v0.003906c3.9102 6.1523 9.9414 10.664 16.953 12.672 7.0117 2.0078 14.516 1.3789 21.09-1.7734 7.1328-3.4219 12.613-9.5391 15.238-17 2.6289-7.4609 2.1875-15.656-1.2227-22.797zm-141.42 130.22 39.277 81.996-47.742 22.871-39.277-81.996zm-37.391 112.16v0.003906c-5.0586-1.7695-9.2031-5.4883-11.504-10.324l-21.828-45.566c-2.3047-4.832-2.6016-10.383-0.82422-15.43 1.7773-5.0508 5.4883-9.1914 10.312-11.512l2.8398-1.3594 39.277 81.996-2.8398 1.3594c-4.8281 2.3281-10.383 2.6289-15.434 0.83594zm111.21 53.836-0.003906 0.003907c-3.8359 3.8203-9.0625 5.9141-14.477 5.7969-5.4141-0.11328-10.547-2.4297-14.215-6.4141l-46.723-50.711 46.051-22.059c8.7891 17.34 19.465 33.625 30.422 46.312 3.2656 3.8164 4.9688 8.7227 4.7734 13.742-0.19531 5.0195-2.2773 9.7812-5.8281 13.332zm-23.828-88.984-39.402-82.246c41.031-22.219 70.121-68.078 81.863-89.121l78.176 163.19c-23.516-4.3477-76.137-10.699-120.64 8.1758zm160.27 5.5234c-4.3086 2.0664-9.2617 2.332-13.77 0.74609-4.5078-1.5859-8.2031-4.8984-10.27-9.207l-87.957-183.61v-0.003906c-2.7812-5.8047-2.2539-12.656 1.3867-17.969 3.6367-5.3125 9.832-8.2812 16.254-7.7852 6.418 0.49609 12.086 4.375 14.867 10.184l87.957 183.61c2.0625 4.3125 2.3242 9.2656 0.73828 13.77-1.5898 4.5078-4.8984 8.1992-9.207 10.27z"/>
  <path d="m581.69 259.18c-29.598-10.426-62.363-6.4961-88.652 10.641-26.285 17.133-43.113 45.52-45.523 76.805-2.4102 31.289 9.8711 61.918 33.227 82.875 23.352 20.961 55.125 29.863 85.973 24.094 30.844-5.7695 57.25-25.559 71.449-53.543 14.199-27.98 14.578-60.977 1.0195-89.277-11.504-24.188-32.207-42.766-57.492-51.594zm4.9727 175.58c-21.316 10.211-45.82 11.539-68.113 3.6875-22.297-7.8555-40.559-24.242-50.77-45.559-10.215-21.316-11.539-45.82-3.6875-68.113 7.8516-22.297 24.238-40.559 45.555-50.773 21.32-10.211 45.82-11.539 68.113-3.6875 22.297 7.8555 40.559 24.242 50.773 45.559 10.379 21.293 11.789 45.855 3.9219 68.199-7.8711 22.34-24.363 40.598-45.793 50.688z"/>
  <path d="m546.96 351.89c-4.4766 2.1445-9.6172 2.4219-14.297 0.77344-4.6797-1.6484-8.5117-5.0859-10.656-9.5625-2.1406-4.4727-2.4219-9.6172-0.77344-14.297 1.6484-4.6758 5.0898-8.5117 9.5625-10.652 4.4766-2.1445 9.6172-2.4219 14.297-0.77344 4.6797 1.6484 8.5117 5.0859 10.656 9.5625 1.4102 2.9375 4.9336 4.1758 7.8711 2.7695 2.9414-1.4102 4.1836-4.9336 2.7773-7.8711-3.1367-6.5234-8.4844-11.723-15.094-14.672-6.6094-2.9453-14.051-3.4531-21-1.4297l-3.9688-8.2852v0.003906c-1.4102-2.9375-4.9336-4.1797-7.8711-2.7695-2.9414 1.4062-4.1836 4.9297-2.7773 7.8711l4.1328 8.6289c-7.8711 6.293-12.125 16.066-11.371 26.117 0.75781 10.051 6.4258 19.078 15.148 24.125 8.7227 5.0469 19.375 5.4648 28.461 1.1094 4.4766-2.1406 9.6172-2.4219 14.297-0.77344 4.6797 1.6484 8.5156 5.0898 10.656 9.5625 2.1445 4.4766 2.4219 9.6172 0.77344 14.297-1.6484 4.6797-5.0859 8.5156-9.5625 10.656-4.4727 2.1445-9.6172 2.4219-14.297 0.77344-4.6797-1.6484-8.5117-5.0859-10.656-9.5625-1.4219-2.9102-4.9297-4.1289-7.8516-2.7266-2.9219 1.3984-4.1719 4.8945-2.7969 7.8281 2.9844 6.2148 7.9805 11.238 14.18 14.254 6.1992 3.0117 13.238 3.8438 19.965 2.3516l3.4336 7.1719h0.003906c1.4062 2.9375 4.9336 4.1797 7.875 2.7734 1.4102-0.67969 2.4961-1.8867 3.0156-3.3633 0.52344-1.4805 0.43359-3.1016-0.24219-4.5156l-3.2695-6.8242v0.003906c8.4648-5.8984 13.375-15.672 13.055-25.98-0.32031-10.312-5.8281-19.762-14.641-25.121-8.8125-5.3633-19.738-5.9062-29.039-1.4531z"/>
  <path d="m420.99 309.84c6.9922 0 13.699-2.7773 18.645-7.7227 4.9453-4.9453 7.7266-11.652 7.7266-18.648 0-6.9922-2.7812-13.703-7.7266-18.648-4.9453-4.9453-11.652-7.7227-18.645-7.7227-6.9961 0-13.703 2.7773-18.648 7.7227-4.9453 4.9453-7.7266 11.656-7.7266 18.648 0.011718 6.9922 2.793 13.695 7.7344 18.637 4.9453 4.9453 11.648 7.7266 18.641 7.7344zm0-40.941c3.8594 0 7.5664 1.5352 10.297 4.2656 2.7305 2.7305 4.2656 6.4375 4.2656 10.297 0 3.8633-1.5352 7.5664-4.2656 10.301-2.7305 2.7305-6.4375 4.2617-10.297 4.2617-3.8633 0-7.5703-1.5312-10.301-4.2617-2.7305-2.7344-4.2656-6.4375-4.2656-10.301 0.007813-3.8594 1.543-7.5625 4.2734-10.289 2.7305-2.7305 6.4297-4.2695 10.293-4.2734z"/>
  <path d="m563.67 529.66c-4.9062 0-9.6133 1.9492-13.082 5.418s-5.418 8.1719-5.418 13.078 1.9492 9.6133 5.418 13.082 8.1758 5.418 13.082 5.418 9.6094-1.9492 13.078-5.418c3.4727-3.4688 5.4219-8.1758 5.4219-13.082-0.007813-4.9023-1.957-9.6055-5.4258-13.074s-8.1719-5.418-13.074-5.4219zm0 25.191v-0.003906c-2.707 0-5.1484-1.6289-6.1836-4.1289-1.0352-2.5-0.46094-5.3789 1.4492-7.293 1.9141-1.9141 4.793-2.4844 7.293-1.4492 2.5 1.0352 4.1328 3.4766 4.1328 6.1797-0.003906 3.6953-3 6.6875-6.6914 6.6914z"/>
  <path d="m603.03 449.32c-9.0781 0-17.781 3.6055-24.199 10.023-6.4219 6.418-10.027 15.121-10.027 24.199s3.6055 17.781 10.027 24.199c6.418 6.418 15.121 10.023 24.199 10.023s17.781-3.6055 24.199-10.023c6.418-6.418 10.023-15.125 10.023-24.203-0.011718-9.0703-3.6211-17.77-10.035-24.188-6.418-6.4141-15.113-10.023-24.188-10.031zm0 56.637c-5.9453 0-11.648-2.3594-15.852-6.5664-4.2031-4.2031-6.5664-9.9023-6.5664-15.848 0-5.9453 2.3633-11.648 6.5664-15.852 4.2031-4.2031 9.9062-6.5664 15.852-6.5664 5.9414 0 11.645 2.3633 15.848 6.5664s6.5664 9.9062 6.5664 15.852c-0.003906 5.9414-2.3672 11.641-6.5703 15.844s-9.9023 6.5664-15.844 6.5703z"/>
  <path d="m511.68 470.42c-7.1758 0-14.059 2.8516-19.137 7.9258-5.0742 5.0742-7.9258 11.957-7.9258 19.133 0 7.1797 2.8516 14.062 7.9258 19.137 5.0781 5.0742 11.961 7.9258 19.137 7.9258 7.1758 0 14.059-2.8516 19.133-7.9258 5.0742-5.0742 7.9258-11.957 7.9258-19.137-0.007813-7.1719-2.8594-14.051-7.9336-19.125-5.0742-5.0742-11.953-7.9258-19.125-7.9336zm0 42.312c-4.0469 0-7.9258-1.6094-10.785-4.4688-2.8594-2.8594-4.4688-6.7383-4.4688-10.785 0-4.043 1.6094-7.9219 4.4688-10.785 2.8594-2.8594 6.7383-4.4648 10.785-4.4648 4.043 0 7.9219 1.6055 10.785 4.4648 2.8594 2.8633 4.4648 6.7422 4.4648 10.785-0.003906 4.043-1.6133 7.9219-4.4727 10.777-2.8594 2.8594-6.7344 4.4688-10.777 4.4727z"/>
  <path d="m521.69 247.05c9.918 0 19.426-3.9414 26.441-10.953 7.0117-7.0117 10.949-16.523 10.949-26.441 0-9.918-3.9375-19.426-10.949-26.441-7.0156-7.0117-16.523-10.949-26.441-10.949s-19.43 3.9375-26.441 10.949c-7.0117 7.0156-10.949 16.523-10.949 26.441 0.007813 9.9141 3.9531 19.418 10.961 26.43 7.0117 7.0078 16.516 10.953 26.43 10.965zm0-62.977c6.7852 0 13.293 2.6953 18.09 7.4922 4.7969 4.7969 7.4922 11.305 7.4922 18.09s-2.6953 13.293-7.4922 18.09c-4.7969 4.8008-11.305 7.4961-18.09 7.4961s-13.293-2.6953-18.09-7.4961c-4.8008-4.7969-7.4961-11.305-7.4961-18.09 0.007813-6.7812 2.707-13.285 7.5039-18.082s11.297-7.4922 18.082-7.5z"/>
 </g>
</svg>