<?xml version="1.0" encoding="UTF-8"?>
<!-- The Best Svg Icon site in the world: iconSvg.co, Visit us! https://iconsvg.co -->
<svg fill="#000000" width="800px" height="800px" version="1.1" viewBox="144 144 512 512" xmlns="http://www.w3.org/2000/svg">
 <g>
  <path d="m347.52 169.09h104.96v31.488h-104.96z"/>
  <path d="m379.01 420.99h41.984v31.488h-41.984z"/>
  <path d="m379.01 389.5h41.984v10.496h-41.984z"/>
  <path d="m347.52 389.5h10.496v62.977h-10.496z"/>
  <path d="m441.98 389.5h10.496v62.977h-10.496z"/>
  <path d="m504.96 169.09h-31.484v31.488c0 5.5664-2.2148 10.906-6.1484 14.844-3.9375 3.9375-9.2773 6.1484-14.844 6.1484h-104.96c-5.5703 0-10.906-2.2109-14.844-6.1484s-6.1484-9.2773-6.1484-14.844v-31.488h-31.488c-8.3516 0-16.359 3.3164-22.266 9.2227s-9.2227 13.914-9.2227 22.266v398.85c0 8.3516 3.3164 16.363 9.2227 22.266 5.9062 5.9062 13.914 9.2227 22.266 9.2227h209.92c8.3516 0 16.363-3.3164 22.266-9.2227 5.9062-5.9023 9.2227-13.914 9.2227-22.266v-398.85c0-8.3516-3.3164-16.359-9.2227-22.266-5.9023-5.9062-13.914-9.2227-22.266-9.2227zm-41.98 430.34h-125.95c-5.7969 0-10.496-4.6992-10.496-10.496s4.6992-10.496 10.496-10.496h125.95c5.7969 0 10.496 4.6992 10.496 10.496s-4.6992 10.496-10.496 10.496zm20.992-125.95-167.94 0.003906c-5.7969 0-10.496-4.6992-10.496-10.496 0-5.7969 4.6992-10.496 10.496-10.496h10.496v-62.977h-10.496c-4.5195 0-8.5312-2.8906-9.957-7.1797-1.4297-4.2852 0.042969-9.0039 3.6602-11.715l83.969-62.977h-0.003906c3.7344-2.7969 8.8633-2.7969 12.598 0l83.969 62.977c3.6133 2.7109 5.0859 7.4297 3.6602 11.715-1.4297 4.2891-5.4414 7.1797-9.9609 7.1797h-10.492v62.977h10.496-0.003906c5.7969 0 10.496 4.6992 10.496 10.496 0 5.7969-4.6992 10.496-10.496 10.496z"/>
  <path d="m347.52 368.51h104.96l-52.48-39.359z"/>
 </g>
</svg>