<?xml version="1.0" encoding="UTF-8"?>
<!-- The Best Svg Icon site in the world: iconSvg.co, Visit us! https://iconsvg.co -->
<svg fill="#000000" width="800px" height="800px" version="1.1" viewBox="144 144 512 512" xmlns="http://www.w3.org/2000/svg">
 <g>
  <path d="m542.58 585.29c0-9.7148-3.8594-19.031-10.73-25.902-6.8672-6.8672-16.188-10.727-25.902-10.727-9.7148 0-19.031 3.8594-25.898 10.727-6.8711 6.8711-10.73 16.188-10.73 25.902 0 9.7148 3.8594 19.031 10.73 25.902 6.8672 6.8672 16.184 10.727 25.898 10.727 9.7148-0.011719 19.023-3.8711 25.891-10.738 6.8672-6.8672 10.73-16.18 10.742-25.891zm-61.449 0h-0.003906c0-6.582 2.6172-12.895 7.2695-17.551 4.6562-4.6562 10.969-7.2695 17.551-7.2695 6.5859 0 12.898 2.6133 17.555 7.2695 4.6523 4.6562 7.2695 10.969 7.2695 17.551s-2.6172 12.898-7.2695 17.551c-4.6562 4.6562-10.969 7.2695-17.555 7.2695-6.5781-0.007812-12.887-2.625-17.539-7.2773-4.6523-4.6523-7.2695-10.961-7.2773-17.543z"/>
  <path d="m627.93 268.14h-16.641c0.35156 0 0.69531-1.5469 1.0117-2.4453 5.7227-16.484 4.6953-34.562-2.8672-50.293-7.5586-15.727-21.035-27.824-37.484-33.648-16.449-5.8281-34.539-4.9062-50.312 2.5586-31.488 15.086-45.531 52.34-32.68 83.828h-20.625l-24.461-50.848c-3.0781-6.3555-9.1406-10.742-16.137-11.672-7-0.93359-13.996 1.7148-18.629 7.043-4.6289 5.3281-6.2734 12.629-4.375 19.43-3.0547 5.8281-11.977 22.273-25.117 36.047h-127.18l-6.6328-34.723c-0.54688-2.75-2.9922-4.707-5.7969-4.6367h-67.941c-3.2617 0-5.9062 2.6445-5.9062 5.9062 0 3.2578 2.6445 5.9023 5.9062 5.9023h63.051l46.762 246.25h0.003906c2.1328 11.246 8.1172 21.395 16.918 28.711 8.8008 7.3164 19.875 11.34 31.32 11.383h226.04c3.2617 0 5.9062-2.6406 5.9062-5.9023s-2.6445-5.9062-5.9062-5.9062h-226.04c-8.668 0.019531-17.074-2.9922-23.766-8.5078-6.6875-5.5195-11.242-13.195-12.875-21.715l-6.6172-34.719h283.09c2.5625-0.09375 4.793-1.7734 5.5859-4.2109l57.977-169.46c0.61719-1.8945 0.32812-3.9688-0.78516-5.6172-1.0781-1.6211-2.8555-2.6406-4.8008-2.75zm-101.19-72.934c12.945-6.2031 27.824-7.0078 41.363-2.2383 13.539 4.7656 24.629 14.719 30.828 27.664 6.2031 12.945 7.0078 27.824 2.2383 41.363-4.7695 13.539-14.719 24.629-27.668 30.828-12.945 6.1992-27.824 7.0039-41.359 2.2344-13.539-4.7695-24.629-14.723-30.828-27.668-6.293-12.93-7.1484-27.84-2.3711-41.402 4.7812-13.566 14.789-24.648 27.797-30.781zm-105.8 23.078c4.5859-2.1953 10.086-0.25781 12.281 4.332l55.555 115.97c1.0781 2.2031 1.2305 4.75 0.42187 7.0664-0.80469 2.3203-2.5039 4.2188-4.7188 5.2773-2.2109 1.0625-4.7578 1.1953-7.0703 0.37109s-4.1992-2.5391-5.2422-4.7617l-55.551-115.97c-2.1914-4.5859-0.25781-10.078 4.3242-12.281zm-10.137 27.484 45.77 95.547c-16.137-2.5703-45.57-4.9805-71.34 5.2266l-23.117-48.254c23.297-13.398 40.336-38.301 48.688-52.516zm-59.238 57.824 22.926 47.863-26.23 12.566-22.926-47.863zm-36.879 17.676 22.93 47.848c-5.2461 2.3984-11.445 0.15234-13.941-5.043l-13.785-28.777c-2.4883-5.2031-0.35156-11.438 4.7969-14.027zm65.004 40.793c5.1172 9.9336 11.336 19.258 18.539 27.801 3.5352 4.1328 3.293 10.289-0.55078 14.137-2.0039 1.9961-4.7344 3.0898-7.5625 3.0273-2.8281-0.058594-5.5117-1.2695-7.4258-3.3516l-27.52-29.867zm186.05 76.312h-281.11l-29.941-158.43h112.58c-4.7344 4.0078-9.9297 7.4414-15.469 10.23l-42.035 20.246-0.003906-0.003906c-5.3516 2.5859-9.4648 7.1836-11.438 12.789-1.9688 5.6094-1.6406 11.77 0.91797 17.133l13.785 28.805c2.5547 5.3672 7.1406 9.4961 12.742 11.473 5.6055 1.9805 11.766 1.6445 17.125-0.92969l1.1445-0.54688 29.973 32.531c4.0781 4.4609 9.8125 7.0469 15.855 7.1562 0.16406 0 0.32812 0.007813 0.49219 0.007813v-0.003906c5.875 0.015624 11.512-2.3125 15.656-6.4766 3.9648-3.9648 6.2852-9.2812 6.5-14.883 0.21094-5.6016-1.6953-11.078-5.3438-15.336-6.4727-7.6719-12.074-16.039-16.699-24.953 28.594-10.898 63.371-4.625 72.793-2.5898l0.003906 0.003906c2.8516 4.0781 7.0586 7.0156 11.875 8.2812 4.8164 1.2656 9.9258 0.78125 14.414-1.3711 5.0352-2.4609 8.8906-6.8086 10.738-12.098 1.8477-5.2891 1.5391-11.09-0.86328-16.152l-25.434-53.312h21.156c7.8711 12.793 19.352 21.191 33.078 26.023v0.003906c13.883 4.8789 29.004 4.9688 42.941 0.25 13.941-4.7188 25.898-13.969 33.969-26.277h14.539z"/>
  <path d="m343.07 621.92c9.7148 0 19.035-3.8594 25.902-10.727 6.8711-6.8711 10.73-16.188 10.73-25.902 0-9.7148-3.8594-19.031-10.73-25.902-6.8672-6.8672-16.188-10.727-25.902-10.727s-19.031 3.8594-25.898 10.727c-6.8711 6.8711-10.73 16.188-10.73 25.902 0.011719 9.7109 3.875 19.023 10.742 25.891 6.8672 6.8633 16.176 10.727 25.887 10.738zm0-61.449c6.5859 0 12.898 2.6133 17.555 7.2695 4.6523 4.6562 7.2695 10.969 7.2695 17.551 0 6.5859-2.6172 12.898-7.2734 17.555-4.6523 4.6523-10.965 7.2695-17.551 7.2695-6.582 0-12.895-2.6172-17.551-7.2734-4.6562-4.6523-7.2695-10.969-7.2695-17.551 0.007812-6.582 2.625-12.891 7.2773-17.543 4.6562-4.6523 10.965-7.2695 17.543-7.2773z"/>
  <path d="m553.53 251.13c3.5195-1.6875 7.707-1.0898 10.609 1.5156 2.9062 2.6016 3.9531 6.6992 2.6602 10.379-1.2969 3.6797-4.6797 6.2188-8.5781 6.4297-3.8945 0.21094-7.5312-1.9492-9.2148-5.4648-0.67578-1.4141-1.8867-2.5-3.3633-3.0234-1.4805-0.51953-3.1016-0.43359-4.5156 0.24609-1.4141 0.67578-2.5 1.8867-3.0195 3.3633-0.51953 1.4766-0.42969 3.1016 0.24609 4.5156 1.9609 4.1016 5.1758 7.4766 9.1836 9.6289 4.0078 2.1523 8.5938 2.9727 13.098 2.3438l1.457 3.043c1.4258 2.9102 4.9297 4.1289 7.8555 2.7266 2.9219-1.3984 4.168-4.8945 2.793-7.8281l-1.3008-2.7148c5.3906-4.5078 8.2305-11.367 7.6016-18.367-0.625-6.9961-4.6406-13.242-10.742-16.723-6.1055-3.4766-13.527-3.7461-19.867-0.71875-3.5156 1.6875-7.7031 1.0898-10.609-1.5156-2.9023-2.6055-3.9531-6.7031-2.6562-10.383 1.293-3.6797 4.6797-6.2148 8.5742-6.4258s7.5352 1.9453 9.2188 5.4648c1.4102 2.9414 4.9336 4.1836 7.875 2.7734 1.4141-0.67578 2.5-1.8867 3.0195-3.3633 0.51953-1.4766 0.43359-3.0977-0.24609-4.5117-2.0625-4.2969-5.5-7.7852-9.7656-9.9141-4.2656-2.1289-9.1172-2.7812-13.797-1.8477l-1.7422-3.6367h0.003907c-0.66797-1.4258-1.8789-2.5273-3.3633-3.0547-1.4805-0.53125-3.1133-0.44531-4.5352 0.23438-1.4219 0.67969-2.5078 1.9023-3.0273 3.3867-0.51562 1.4883-0.41797 3.1211 0.27344 4.5352l1.8945 3.9609h0.003906c-4.9961 4.7188-7.4258 11.547-6.5352 18.363 0.88672 6.8164 4.9883 12.793 11.027 16.074 6.0391 3.2812 13.285 3.4688 19.488 0.50781z"/>
 </g>
</svg>