<?xml version="1.0" encoding="UTF-8"?>
<!-- The Best Svg Icon site in the world: iconSvg.co, Visit us! https://iconsvg.co -->
<svg fill="#000000" width="800px" height="800px" version="1.1" viewBox="144 144 512 512" xmlns="http://www.w3.org/2000/svg">
 <g>
  <path d="m331.12 512.92h-2.6445c-7.6641 0-13.895-6.2305-13.895-13.898 0-7.6641 6.2305-13.895 13.895-13.895h17.441c1.9609 0 3.5508-1.5859 3.5508-3.5469 0-1.9648-1.5859-3.5586-3.5508-3.5586h-11.246v-8.9414c0-1.9648-1.5859-3.5508-3.5508-3.5508-1.9609 0-3.5508 1.5859-3.5508 3.5508v8.9961c-11.16 0.48047-20.094 9.6797-20.094 20.945 0 11.582 9.4219 20.992 21 20.992h2.6445c7.6641 0 13.895 6.2305 13.895 13.898 0 7.6641-6.2266 13.891-13.879 13.898-0.003907 0-0.003907-0.003906-0.015625-0.003906-0.003906 0-0.011719 0.003906-0.015625 0.003906h-17.426c-1.9609 0-3.5508 1.5859-3.5508 3.5469 0 1.9688 1.5859 3.5586 3.5508 3.5586h13.895v8.9414c0 1.9609 1.5859 3.5469 3.5508 3.5469s3.5508-1.5859 3.5508-3.5469v-9.2695c9.8906-1.6992 17.445-10.312 17.445-20.676 0-11.578-9.4141-20.992-21-20.992z"/>
  <path d="m329.8 448.99c-37.207 0-67.477 30.27-67.477 67.477 0 37.207 30.27 67.48 67.477 67.48 37.203 0 67.477-30.273 67.477-67.48 0-37.207-30.273-67.477-67.477-67.477zm0 127.85c-33.293 0-60.371-27.078-60.371-60.371 0-33.285 27.078-60.367 60.371-60.367 33.285 0 60.371 27.078 60.371 60.367 0.003906 33.293-27.078 60.371-60.371 60.371z"/>
  <path d="m636.06 462.9-153.2-265.35c-2.2773-3.9453-6.1602-6.6367-10.918-7.5781-4.5703-0.90234-9.3945-0.058594-13.598 2.3633-4.1719 2.4141-7.3086 6.168-8.8203 10.574-1.582 4.6133-1.1992 9.3242 1.0781 13.266l5.0977 8.8281-263.25 281.22c-2.0195-1.6211-4.4688-2.7656-7.2109-3.3203-4.5781-0.93359-9.4297-0.10156-13.664 2.3477-8.8555 5.1172-12.281 15.82-7.6445 23.855l25.562 44.273c4.625 8.0117 15.594 10.367 24.449 5.2539 4.2266-2.4453 7.3789-6.2109 8.8789-10.617 0.90234-2.6484 1.1445-5.3359 0.74609-7.8945l23.789-5.5508c1.6523 6.3594 4.1172 12.395 7.3438 17.98 10.832 18.758 29.285 31.574 51.965 36.078 5.8633 1.168 11.828 1.75 17.816 1.75 16.957 0 34.098-4.6406 49.629-13.602 21.027-12.141 36.707-30.812 44.148-52.586 3.4141-10.227 4.8516-20.434 4.2812-30.41l176.2-41.023 5.0625 8.7695c4.6406 8.0391 15.648 10.402 24.551 5.2695 4.207-2.4219 7.3516-6.1914 8.8477-10.605 1.5508-4.6055 1.1523-9.3203-1.1445-13.293zm-420.93 102.51c-0.86328 2.5391-2.7266 4.7305-5.25 6.1914-4.8984 2.832-11.012 1.7852-13.359-2.2812l-25.562-44.273c-2.3633-4.0977-0.22266-9.9336 4.6719-12.762 2.5156-1.4492 5.3516-1.9609 7.9922-1.4258 2.2773 0.46875 4.125 1.6562 5.2539 3.3789 0.050782 0.085938 0.10547 0.17188 0.16016 0.25 0.015625 0.035157 0.035156 0.066407 0.050781 0.097657l25.562 44.273c0.015625 0.03125 0.035156 0.066406 0.050781 0.089844 0.046875 0.089843 0.089844 0.17578 0.14062 0.26562 0.92188 1.8203 1.0273 4.0039 0.28906 6.1953zm202.15-58.738c-1.9961 0.46484-3.3359 2.3477-3.1133 4.3828 1.0625 9.9336-0.15625 20.219-3.6016 30.535-6.8008 19.891-21.191 37-40.516 48.152-19.312 11.148-41.258 15.027-61.801 10.926-20.355-4.0469-36.875-15.469-46.516-32.172-3.4727-6.0117-5.9492-12.605-7.3594-19.609-0.21484-1.0742-0.86328-2.0117-1.7852-2.6094-0.66016-0.42188-1.4219-0.64453-2.1914-0.64453-0.30859 0-0.62109 0.035157-0.92188 0.10547l-29.09 6.7852-22.953-39.75 262.52-280.43 134.56 233.06zm212.23-33.094c-0.86719 2.5508-2.7148 4.7422-5.2109 6.1875-4.9375 2.8477-11.105 1.7969-13.473-2.2969l-153.2-265.35c-1.082-1.8789-1.2344-4.207-0.42187-6.5703 0.86719-2.5195 2.7539-4.7695 5.1992-6.1758 1.8594-1.0781 3.8984-1.6328 5.9141-1.6328 0.69141 0 1.375 0.066407 2.0508 0.20312 2.4297 0.48047 4.3672 1.7852 5.4648 3.6719l153.2 265.35c1.1094 1.9102 1.2734 4.2578 0.48047 6.6133z"/>
 </g>
</svg>