<?xml version="1.0" encoding="UTF-8"?>
<!-- The Best Svg Icon site in the world: iconSvg.co, Visit us! https://iconsvg.co -->
<svg fill="#000000" width="800px" height="800px" version="1.1" viewBox="144 144 512 512" xmlns="http://www.w3.org/2000/svg">
 <g>
  <path d="m582.23 493.68c-4.1758-7.2188-11.043-12.492-19.102-14.66-8.0547-2.168-16.641-1.0586-23.879 3.0898l-76.754 44.32 0.003906-0.003906c-4.1914-6.2773-10.512-10.836-17.793-12.828l-117.45-31.41c-9.0391-2.4414-18.551-2.5234-27.633-0.23828l-41.328 10.312v-5.668c0-2.0859-0.82812-4.0898-2.3047-5.5664-1.4766-1.4766-3.4766-2.3047-5.5664-2.3047h-23.617v-7.8711c0-2.0898-0.82812-4.0898-2.3047-5.5664-1.4766-1.4766-3.4766-2.3047-5.5664-2.3047h-47.23c-4.3477 0-7.875 3.5234-7.875 7.8711v157.44c0 2.0859 0.83203 4.0898 2.3086 5.5664 1.4766 1.4727 3.4766 2.3047 5.5664 2.3047h47.23c2.0898 0 4.0898-0.83203 5.5664-2.3047 1.4766-1.4766 2.3047-3.4805 2.3047-5.5664v-7.875h23.617c2.0898 0 4.0898-0.82812 5.5664-2.3047 1.4766-1.4766 2.3047-3.4766 2.3047-5.5664v-2.9922l10.156 5.0391c7.6523 3.8203 16.086 5.8125 24.641 5.8242h117.84c9.6758 0.023438 19.188-2.5312 27.551-7.3984l132.25-76.359c7.2031-4.1953 12.457-11.066 14.609-19.121 2.1523-8.0508 1.0352-16.629-3.1172-23.859zm-371.16 126.74h-31.488v-141.7h31.488zm31.488-15.742h-15.746v-110.21h15.742zm320.31-81.633-132.25 76.359c-5.9805 3.4609-12.77 5.2773-19.68 5.2734h-117.84c-6.125 0.011719-12.164-1.418-17.633-4.1719l-17.164-8.582v-83.441l45.105-11.258h0.003906c6.4883-1.6406 13.293-1.5859 19.758 0.15625l117.45 31.488c4.0547 1.0508 7.5156 3.6836 9.6172 7.3047 2.1016 3.6211 2.668 7.9297 1.5703 11.973-1.0977 4.0391-3.7656 7.4727-7.4062 9.5352-3.5859 2.1133-7.875 2.6836-11.887 1.5742l-93.914-25.191c-4.2188-1.1289-8.5547 1.3711-9.6836 5.5898-1.1289 4.2188 1.3711 8.5508 5.5898 9.6836l93.914 25.113v-0.003906c2.668 0.71875 5.4219 1.0898 8.1836 1.1016 5.5078 0.007812 10.918-1.457 15.668-4.25 7.2656-4.1484 12.57-11.039 14.719-19.129 0.875-3.4688 1.168-7.0625 0.86719-10.625l79.27-45.738c3.6172-2.0078 7.875-2.5312 11.871-1.457 3.9961 1.0703 7.418 3.6562 9.543 7.2031 2.0898 3.6055 2.668 7.8906 1.6055 11.918s-3.6797 7.4688-7.2734 9.5742z"/>
  <path d="m628.29 195.32h-47.234c-4.3477 0-7.8711 3.5273-7.8711 7.875v7.8711h-23.617c-4.3477 0-7.8711 3.5234-7.8711 7.8711v2.9922l-10.156-5.1172c-7.6719-3.7539-16.098-5.7188-24.637-5.7461h-117.85c-9.6602 0.007813-19.156 2.5312-27.551 7.3203l-132.25 76.438c-9.7461 5.625-15.75 16.02-15.75 27.273 0 11.25 6 21.648 15.746 27.277 9.7422 5.625 21.746 5.6289 31.492 0.003906l12.516-7.2422c-4.6953 10.801-7.1094 22.461-7.082 34.242-0.050781 28.219 13.656 54.688 36.723 70.938 23.07 16.25 52.609 20.238 79.164 10.691 26.555-9.543 46.789-31.43 54.23-58.648 7.4414-27.219 1.1523-56.359-16.852-78.086h7.5586l7.5586 12.594v0.003906c10.008 16.574 27.945 26.723 47.309 26.762h8.7383c14.434 0.054687 28.301-5.6055 38.574-15.742h12.516c0 2.0859 0.82813 4.0898 2.3047 5.5664 1.4766 1.4766 3.4805 2.3047 5.5664 2.3047h23.617v7.8711c0 2.0898 0.82812 4.0898 2.3047 5.5664 1.4766 1.4766 3.4805 2.3086 5.5664 2.3086h47.234c2.0859 0 4.0898-0.83203 5.5664-2.3086 1.4727-1.4766 2.3047-3.4766 2.3047-5.5664v-157.44c0-2.0898-0.83203-4.0898-2.3047-5.5664-1.4766-1.4766-3.4805-2.3086-5.5664-2.3086zm-204.68 181.06c0.027344 19.457-7.9492 38.07-22.059 51.473-14.109 13.398-33.109 20.406-52.543 19.375-19.43-1.0312-37.582-10.012-50.195-24.828-12.613-14.816-18.574-34.172-16.488-53.52 2.0859-19.344 12.035-36.98 27.52-48.77 15.48-11.789 35.129-16.691 54.332-13.555 2.4727 4.5195 6.1328 8.2812 10.586 10.875s9.5312 3.9258 14.684 3.8438h7.6367c16.688 13.438 26.434 33.68 26.527 55.105zm118.08-47.23-15.746-0.003906c-2.0859 0.015624-4.0859 0.83594-5.5859 2.2852l-1.8906 1.9688c-7.3828 7.3945-17.418 11.531-27.867 11.492h-8.7383c-13.828-0.03125-26.633-7.2852-33.77-19.129l-9.8398-16.375c-1.4062-2.4023-3.9883-3.8711-6.7695-3.8555h-42.039c-3.7578-0.023437-7.3438-1.5898-9.918-4.332-2.1523-2.1641-3.293-5.1367-3.1484-8.1836 0.40625-6.2305 5.5664-11.082 11.809-11.102h74.785c4.3477 0 7.8711-3.5234 7.8711-7.8711s-3.5234-7.8711-7.8711-7.8711h-74.785c-6.6992-0.058593-13.188 2.3633-18.211 6.793-5.0273 4.4297-8.2422 10.562-9.0273 17.215-2.7539-0.23438-5.4336-0.39453-8.1875-0.39453-20.398 0.015626-40.141 7.2383-55.734 20.391l-44.16 25.504c-3.6172 2.0078-7.875 2.5312-11.871 1.457-3.9922-1.0703-7.4141-3.6523-9.543-7.2031-2.0898-3.6016-2.668-7.8867-1.6055-11.918 1.0625-4.0273 3.6797-7.4688 7.2734-9.5742l132.25-76.359v0.003906c5.9844-3.4531 12.773-5.2734 19.68-5.2773h117.85c6.1094 0.027344 12.137 1.4258 17.633 4.0938l17.16 8.6602zm31.488 7.8711h-15.746v-110.21h15.742zm47.23 15.742h-31.488v-141.7h31.488z"/>
  <path d="m344.89 352.77h15.742c2.0898 0 4.0898 0.83203 5.5664 2.3047 1.4766 1.4766 2.3086 3.4805 2.3086 5.5664 0 4.3477 3.5234 7.875 7.8711 7.875 4.3477 0 7.8711-3.5273 7.8711-7.875 0-6.2617-2.4883-12.27-6.918-16.699-4.4258-4.4258-10.434-6.9141-16.699-6.9141v-7.875c0-4.3477-3.5234-7.8711-7.8711-7.8711s-7.8711 3.5234-7.8711 7.8711v7.875c-8.4375 0-16.234 4.5-20.453 11.809-4.2188 7.3047-4.2188 16.309 0 23.613 4.2188 7.3086 12.016 11.809 20.453 11.809h15.742c4.3477 0 7.875 3.5234 7.875 7.8711s-3.5273 7.875-7.875 7.875h-15.742c-4.3477 0-7.8711-3.5273-7.8711-7.875s-3.5273-7.8711-7.875-7.8711c-4.3477 0-7.8711 3.5234-7.8711 7.8711 0 6.2656 2.4883 12.273 6.918 16.699 4.4297 4.4297 10.438 6.918 16.699 6.918v7.8711c0 4.3477 3.5234 7.875 7.8711 7.875s7.8711-3.5273 7.8711-7.875v-7.8711c8.4375 0 16.234-4.5 20.453-11.809 4.2188-7.3047 4.2188-16.309 0-23.613-4.2188-7.3086-12.016-11.809-20.453-11.809h-15.742c-4.3477 0-7.8711-3.5273-7.8711-7.875 0-4.3477 3.5234-7.8711 7.8711-7.8711z"/>
 </g>
</svg>