<?xml version="1.0" encoding="UTF-8"?>
<!-- The Best Svg Icon site in the world: iconSvg.co, Visit us! https://iconsvg.co -->
<svg fill="#000000" width="800px" height="800px" version="1.1" viewBox="144 144 512 512" xmlns="http://www.w3.org/2000/svg">
 <g>
  <path d="m423.61 360.64h-15.742c-4.3477 0-7.8711-3.5234-7.8711-7.8711s-3.5273-7.8711-7.875-7.8711-7.8711 3.5234-7.8711 7.8711c0 6.2656 2.4883 12.27 6.918 16.699 4.4297 4.4297 10.434 6.918 16.699 6.918v7.8711c0 4.3477 3.5234 7.8711 7.8711 7.8711 4.3477 0 7.8711-3.5234 7.8711-7.8711v-7.8711c8.4375 0 16.234-4.5 20.453-11.809 4.2188-7.3086 4.2188-16.309 0-23.617-4.2188-7.3047-12.016-11.809-20.453-11.809h-15.742c-4.3477 0-7.8711-3.5234-7.8711-7.8711s3.5234-7.8711 7.8711-7.8711h15.742c2.0898 0 4.0898 0.82812 5.5664 2.3047 1.4766 1.4766 2.3086 3.4805 2.3086 5.5664 0 4.3477 3.5234 7.8711 7.8711 7.8711s7.8711-3.5234 7.8711-7.8711c0-6.2617-2.4883-12.27-6.918-16.699-4.4258-4.4297-10.434-6.9141-16.699-6.9141v-7.875c0-4.3477-3.5234-7.8711-7.8711-7.8711-4.3477 0-7.8711 3.5234-7.8711 7.8711v7.875c-8.4375 0-16.234 4.5-20.453 11.805-4.2188 7.3086-4.2188 16.312 0 23.617 4.2188 7.3086 12.016 11.809 20.453 11.809h15.742c4.3477 0 7.875 3.5234 7.875 7.8711s-3.5273 7.8711-7.875 7.8711z"/>
  <path d="m628.29 211.07h-15.746v-23.617c0-2.0859-0.82812-4.0898-2.3047-5.5664-1.4766-1.4766-3.4805-2.3047-5.5664-2.3047h-83.129c-5.0117-8.8086-13.992-14.629-24.082-15.602-10.086-0.97266-20.016 3.0273-26.613 10.723-5.9102-6.8984-14.535-10.863-23.617-10.863s-17.707 3.9648-23.617 10.863c-5.9062-6.8984-14.535-10.863-23.613-10.863-9.082 0-17.707 3.9648-23.617 10.863-6.5977-7.6953-16.527-11.695-26.617-10.723-10.086 0.97266-19.07 6.793-24.078 15.602h-153.98c-4.3477 0-7.875 3.5234-7.875 7.8711v244.04c0 2.0859 0.83203 4.0898 2.3086 5.5664 1.4766 1.4727 3.4766 2.3047 5.5664 2.3047h23.613v15.742c0 2.0898 0.83203 4.0898 2.3086 5.5664 1.4766 1.4766 3.4766 2.3086 5.5664 2.3086h91.234l34.715 34.715v12.516h-7.8711c-4.3477 0-7.8711 3.5234-7.8711 7.8711v23.617h-7.8711c-4.3477 0-7.8711 3.5234-7.8711 7.8711v78.723c0 2.0859 0.82813 4.0898 2.3047 5.5664 1.4766 1.4727 3.4766 2.3047 5.5664 2.3047h220.41c2.0898 0 4.0898-0.83203 5.5664-2.3047 1.4766-1.4766 2.3086-3.4805 2.3086-5.5664v-78.723c0-2.0859-0.83203-4.0898-2.3086-5.5664s-3.4766-2.3047-5.5664-2.3047h-7.8711v-23.617c0-2.0859-0.82812-4.0898-2.3047-5.5664-1.4766-1.4766-3.4805-2.3047-5.5664-2.3047h-7.8711v-12.516l21.332-21.254c1.4492-1.5039 2.2656-3.5039 2.2812-5.5898v-7.8711h102.34c2.0859 0 4.0898-0.83203 5.5664-2.3086 1.4727-1.4766 2.3047-3.4766 2.3047-5.5664v-236.16c0-2.0859-0.83203-4.0898-2.3047-5.5664-1.4766-1.4766-3.4805-2.3047-5.5664-2.3047zm-102.34-15.746h70.848l0.003906 15.746h-70.852zm-47.23 0c0-5.625 3-10.82 7.8711-13.633s10.875-2.8125 15.746 0c4.8711 2.8125 7.8711 8.0078 7.8711 13.633v31.488c0 5.625-3 10.824-7.8711 13.637-4.8711 2.8125-10.875 2.8125-15.746 0s-7.8711-8.0117-7.8711-13.637zm-47.23 0c0-5.625 3-10.82 7.8711-13.633s10.871-2.8125 15.742 0c4.8711 2.8125 7.875 8.0078 7.875 13.633v31.488c0 5.625-3.0039 10.824-7.875 13.637-4.8711 2.8125-10.871 2.8125-15.742 0s-7.8711-8.0117-7.8711-13.637zm-47.234 0c0-5.625 3-10.82 7.8711-13.633s10.875-2.8125 15.746 0 7.8711 8.0078 7.8711 13.633v31.488c0 5.625-3 10.824-7.8711 13.637s-10.875 2.8125-15.746 0-7.8711-8.0117-7.8711-13.637zm-47.23 0c0-5.625 3-10.82 7.8711-13.633 4.8711-2.8125 10.871-2.8125 15.742 0 4.8711 2.8125 7.875 8.0078 7.875 13.633v31.488c0 5.625-3.0039 10.824-7.875 13.637-4.8711 2.8125-10.871 2.8125-15.742 0-4.8711-2.8125-7.8711-8.0117-7.8711-13.637zm-141.7 23.617v204.67h-15.742v-228.29h141.7v15.746h-118.08c-4.3477 0-7.875 3.5234-7.875 7.8711zm94.465 228.29h-78.719v-220.42h110.21c0.042968 2.6602 0.41016 5.3047 1.1016 7.875h-64.078c-4.3477 0-7.8711 3.5234-7.8711 7.8711-0.019532 6.2578-2.5117 12.254-6.9375 16.68-4.4258 4.4219-10.422 6.918-16.68 6.9375-4.3477 0-7.8711 3.5234-7.8711 7.8711v125.95c0 2.0859 0.82812 4.0898 2.3047 5.5664 1.4766 1.4766 3.4805 2.3047 5.5664 2.3047 6.2578 0.019531 12.254 2.5117 16.68 6.9375 4.4258 4.4258 6.918 10.422 6.9375 16.68 0 2.0859 0.82812 4.0898 2.3047 5.5664 1.4766 1.4727 3.4805 2.3047 5.5664 2.3047h31.488zm0-70.848v47.23h-24.402c-1.5508-7.5586-5.2891-14.496-10.746-19.953-5.457-5.457-12.395-9.1953-19.953-10.746v-111.78c7.5586-1.5547 14.496-5.2891 19.953-10.746s9.1953-12.398 10.746-19.957h66.754c6.2266 5.5547 14.426 8.3672 22.75 7.8047s16.07-4.4531 21.492-10.797c5.9102 6.8945 14.535 10.863 23.617 10.863 9.0781 0 17.707-3.9688 23.613-10.863 5.9102 6.8945 14.535 10.863 23.617 10.863s17.707-3.9688 23.617-10.863c5.4219 6.3438 13.168 10.234 21.492 10.797 8.3203 0.5625 16.523-2.25 22.746-7.8047h51.012c1.5547 7.5586 5.2891 14.5 10.746 19.957s12.395 9.1914 19.957 10.746v111.78c-7.5625 1.5508-14.5 5.2891-19.957 10.746-5.457 5.457-9.1914 12.395-10.746 19.953h-198.69c-1.1328-4.2539-3.1445-8.2227-5.9062-11.648 4.4922-2.1172 8.5508-5.0547 11.965-8.6602 12.582 8.1719 27.273 12.496 42.273 12.438 20.879 0 40.902-8.293 55.664-23.055 14.762-14.766 23.055-34.789 23.055-55.664 0-20.879-8.293-40.902-23.055-55.664s-34.785-23.059-55.664-23.059c-20.879 0-40.898 8.2969-55.664 23.059-14.762 14.762-23.055 34.785-23.055 55.664 0.046874 5.2891 0.60156 10.559 1.6523 15.742h-25.27c-6.2578 0.019531-12.254 2.5117-16.68 6.9375-4.4219 4.4258-6.918 10.422-6.9375 16.68zm86.594-23.617h-21.57c-1.332-5.1406-2.0195-10.43-2.0469-15.742 0-16.703 6.6367-32.723 18.445-44.531 11.812-11.812 27.828-18.445 44.531-18.445 16.703 0 32.723 6.6328 44.531 18.445 11.809 11.809 18.445 27.828 18.445 44.531 0 16.703-6.6367 32.719-18.445 44.531-11.809 11.809-27.828 18.445-44.531 18.445-12.078-0.007812-23.887-3.5977-33.93-10.312 1.582-4.2617 2.4062-8.7617 2.4414-13.305v-15.746c0-2.0859-0.82812-4.0898-2.3047-5.5664-1.4766-1.4727-3.4805-2.3047-5.5664-2.3047zm-47.234 173.18h173.19v15.742l-173.19 0.003906zm188.93 31.488v62.977h-204.67v-62.977zm-7.8711-89.816-21.332 21.254c-1.4531 1.5-2.2695 3.5-2.2852 5.5859v15.742l-141.7 0.003906v-7.8711h62.977c4.3477 0 7.8711-3.5273 7.8711-7.875 0-4.3477-3.5234-7.8711-7.8711-7.8711h-67.621l-34.715-34.715v-75.492c0-4.3477 3.5234-7.8711 7.8711-7.8711h55.105v7.8711c-0.019531 6.2578-2.5156 12.254-6.9375 16.68-4.4258 4.4219-10.422 6.918-16.68 6.9375h-15.746c-4.3477 0-7.8711 3.5234-7.8711 7.8711s3.5234 7.8711 7.8711 7.8711h7.875c4.1641 0.03125 8.1523 1.6992 11.098 4.6445 2.9453 2.9453 4.6133 6.9336 4.6445 11.102v22.043-0.003906c-0.09375 0.51953-0.14844 1.0469-0.15625 1.5742 0.085937 4.375 3.6562 7.875 8.0273 7.875h149.57zm110.21-20.391h-251.9v-7.8711h204.67c2.0859 0 4.0898-0.83203 5.5664-2.3047 1.4766-1.4766 2.3047-3.4805 2.3047-5.5664 0.019531-6.2578 2.5117-12.254 6.9375-16.68 4.4258-4.4258 10.422-6.918 16.68-6.9375 2.0859 0 4.0898-0.82812 5.5664-2.3047 1.4766-1.4766 2.3047-3.4805 2.3047-5.5664v-125.95c0-2.0898-0.82812-4.0898-2.3047-5.5664-1.4766-1.4766-3.4805-2.3047-5.5664-2.3047-6.2578-0.019531-12.254-2.5156-16.68-6.9375-4.4258-4.4258-6.918-10.422-6.9375-16.68 0-2.0898-0.82813-4.0898-2.3047-5.5664-1.4766-1.4766-3.4805-2.3047-5.5664-2.3047h-48.336c0.69141-2.5703 1.0625-5.2148 1.1016-7.875h94.465z"/>
  <path d="m525.95 344.89h31.488c4.3477 0 7.875-3.5234 7.875-7.8711 0-4.3477-3.5273-7.875-7.875-7.875h-31.488c-4.3477 0-7.8711 3.5273-7.8711 7.875 0 4.3477 3.5234 7.8711 7.8711 7.8711z"/>
  <path d="m305.54 329.15h-31.488c-4.3477 0-7.8711 3.5273-7.8711 7.875 0 4.3477 3.5234 7.8711 7.8711 7.8711h31.488c4.3477 0 7.8711-3.5234 7.8711-7.8711 0-4.3477-3.5234-7.875-7.8711-7.875z"/>
 </g>
</svg>