<?xml version="1.0" encoding="UTF-8"?>
<!-- The Best Svg Icon site in the world: iconSvg.co, Visit us! https://iconsvg.co -->
<svg fill="#000000" width="800px" height="800px" version="1.1" viewBox="144 144 512 512" xmlns="http://www.w3.org/2000/svg">
 <path d="m411.34 354s22.859 35.23 22.859 47.855-10.23 22.863-22.859 22.863c-12.625 0-22.859-10.238-22.859-22.863s22.859-47.855 22.859-47.855zm91.398-80.441v58.598h2.4648c3.0469 0 5.5234 2.4727 5.5234 5.5234v13.621c0 3.0469-2.4688 5.5234-5.5234 5.5234h-2.4648v86.352h2.4648c3.0469 0 5.5234 2.4727 5.5234 5.5234v13.652c0 3.0469-2.4688 5.5234-5.5234 5.5234h-2.4648v58.602h2.4648c3.0469 0 5.5234 2.4727 5.5234 5.5234v13.617c0 3.0469-2.4688 5.5234-5.5234 5.5234l-187.73-0.003906c-3.0469 0-5.5234-2.4727-5.5234-5.5234v-13.617c0-3.0469 2.4688-5.5234 5.5234-5.5234h2.4648v-58.598h-2.4648c-3.0469 0-5.5234-2.4688-5.5234-5.5234v-13.652c0-3.0469 2.4688-5.5234 5.5234-5.5234h2.4648v-86.355h-2.4648c-3.0469 0-5.5234-2.4727-5.5234-5.5234l0.003907-13.621c0-3.0469 2.4688-5.5234 5.5234-5.5234h2.4648l-0.003906-58.594h-2.4648c-3.0469 0-5.5234-2.4727-5.5234-5.5234v-13.652c0-3.0469 2.4688-5.5234 5.5234-5.5234h187.73c3.0469 0 5.5234 2.4727 5.5234 5.5234v13.652c0 3.0469-2.4688 5.5234-5.5234 5.5234zm-5.5195-11.043h2.4688v-2.6133l-176.7-0.003906v2.6133h2.4688c3.0469 0 5.5234 2.4688 5.5234 5.5234v64.125h160.71v-64.125c0-3.0508 2.4688-5.5195 5.5234-5.5195zm2.4688 275h-2.4688c-3.0469 0-5.5234-2.4727-5.5234-5.5234v-69.641c0-3.0469 2.4688-5.5234 5.5234-5.5234h2.4688v-2.6133h-176.7v2.6133h2.4688c3.0469 0 5.5234 2.4727 5.5234 5.5234v69.648c0 3.0469-2.4688 5.5234-5.5234 5.5234h-2.4688v2.5781h176.69v-2.5859zm-7.9922-94.344v-91.879c0-3.0469 2.4688-5.5234 5.5234-5.5234h2.4688v-2.5781h-176.7v2.5781h2.4688c3.0469 0 5.5234 2.4688 5.5234 5.5234v91.879z"/>
</svg>