<?xml version="1.0" encoding="UTF-8"?>
<!-- The Best Svg Icon site in the world: iconSvg.co, Visit us! https://iconsvg.co -->
<svg fill="#000000" width="800px" height="800px" version="1.1" viewBox="144 144 512 512" xmlns="http://www.w3.org/2000/svg">
 <g>
  <path d="m588.93 389.5h-73.473v-94.465c-0.13672-2.7578-1.2109-5.3867-3.043-7.4531l-83.969-83.969c-2.0664-1.8281-4.6953-2.9023-7.4492-3.043h-209.92c-5.7969 0-10.496 4.6992-10.496 10.496v377.86c0 2.7852 1.1055 5.4531 3.0742 7.4219s4.6367 3.0742 7.4219 3.0742h377.86c2.7852 0 5.4531-1.1055 7.4219-3.0742s3.0742-4.6367 3.0742-7.4219v-188.93c0-2.7852-1.1055-5.4531-3.0742-7.4219s-4.6367-3.0742-7.4219-3.0742zm-62.977 83.969v20.992l-31.488-0.003906v-20.988zm52.48 0v20.992l-31.488-0.003906v-20.988zm-104.96 20.988h-31.488v-20.988h31.488zm-31.488 20.992h31.488v20.992h-31.488zm52.48 0h31.488v20.992h-31.492zm52.48 0h31.488v20.992h-31.492zm31.488-62.977-136.45 0.003907v-41.984h136.45zm-146.95-216.11 48.176 48.176h-48.176zm-209.92-14.801h188.93v73.473c0 2.7812 1.1055 5.4531 3.0742 7.4219s4.6367 3.0742 7.4219 3.0742h73.473v83.969h-62.977c-5.7969 0-10.496 4.6992-10.496 10.496v178.43h-199.43zm220.42 335.87h31.488v20.992h-31.488zm52.48 0h31.488v20.992h-31.492zm83.969 20.992h-31.492v-20.992h31.488z"/>
  <path d="m389.5 368.51c5.7969 0 10.496-4.6992 10.496-10.496s-4.6992-10.496-10.496-10.496h-20.992v-10.496c0-5.7969-4.6992-10.496-10.496-10.496s-10.496 4.6992-10.496 10.496v10.496h-20.992c-5.7969 0-10.496 4.6992-10.496 10.496v41.984c0 2.7812 1.1055 5.4531 3.0742 7.4219s4.6367 3.0742 7.4219 3.0742h52.48v20.992h-52.48c-5.7969 0-10.496 4.6992-10.496 10.496s4.6992 10.496 10.496 10.496h20.992v10.496c0 5.7969 4.6992 10.496 10.496 10.496s10.496-4.6992 10.496-10.496v-10.496h20.992c2.7812 0 5.4531-1.1094 7.4219-3.0742 1.9688-1.9688 3.0742-4.6406 3.0742-7.4219v-41.984c0-2.7852-1.1055-5.4531-3.0742-7.4219s-4.6406-3.0742-7.4219-3.0742h-52.48v-20.992z"/>
 </g>
</svg>