<?xml version="1.0" encoding="UTF-8"?>
<!-- The Best Svg Icon site in the world: iconSvg.co, Visit us! https://iconsvg.co -->
<svg fill="#000000" width="800px" height="800px" version="1.1" viewBox="144 144 512 512" xmlns="http://www.w3.org/2000/svg">
 <g>
  <path d="m603.88 451.58c-1.3398-2.6797-4.0859-4.3672-7.082-4.3516h-42.367l-29.27-58.621c-1.3398-2.6836-4.0859-4.3711-7.0859-4.3555h-42.367l-29.266-58.621c-1.3438-2.6836-4.0898-4.3711-7.0859-4.3555h-78.723c-2.9805 0-5.7109 1.6836-7.043 4.3555l-29.309 58.621h-42.367c-2.9844 0-5.7109 1.6836-7.0469 4.3555l-29.305 58.621h-42.367c-2.9844 0-5.7148 1.6836-7.0469 4.3516l-31.488 62.977c-1.2188 2.4414-1.0898 5.3398 0.34766 7.6602 1.4336 2.3203 3.9688 3.7344 6.6992 3.7305h141.7c2.7305 0.003906 5.2617-1.4102 6.6992-3.7305 1.4336-2.3203 1.5664-5.2188 0.34766-7.6602l-25.797-51.582h53.246l-25.797 51.586v-0.003906c-1.2188 2.4414-1.0898 5.3398 0.34766 7.6602 1.4336 2.3203 3.9688 3.7344 6.6953 3.7305h141.7c2.7344 0.015625 5.2812-1.3906 6.7266-3.7109 1.4453-2.3242 1.582-5.2305 0.35547-7.6797l-25.836-51.582h53.246l-25.797 51.586 0.003906-0.003906c-1.2227 2.4414-1.0898 5.3398 0.34375 7.6602 1.4375 2.3203 3.9727 3.7344 6.6992 3.7305h141.7c2.7344 0.015625 5.2812-1.3906 6.7266-3.7109 1.4453-2.3242 1.5781-5.2305 0.35547-7.6797zm-67.055-4.3516h-116.22l23.617-47.23h68.992zm-139.84 0-23.617-47.23h53.246l-23.617 47.23zm-31.488-110.21h68.992l23.617 47.23h-116.23zm-78.719 62.977h68.992l23.617 47.23h-116.23zm13.887 110.21h-116.23l23.617-47.23h68.992zm157.44 0h-116.23l23.617-47.23h68.992zm41.219 0 23.617-47.23h68.992l23.617 47.23z"/>
  <path d="m565.31 329.15c0-4.3477-3.5273-7.8711-7.875-7.8711s-7.8711 3.5234-7.8711 7.8711v7.875c0 4.3477 3.5234 7.8711 7.8711 7.8711s7.875-3.5234 7.875-7.8711z"/>
  <path d="m557.44 384.25c2.0898 0 4.0898-0.82812 5.5664-2.3047 1.4766-1.4766 2.3086-3.4805 2.3086-5.5664v-7.8711c0-4.3477-3.5273-7.875-7.875-7.875s-7.8711 3.5273-7.8711 7.875v7.8711c0 2.0859 0.82812 4.0898 2.3047 5.5664 1.4766 1.4766 3.4805 2.3047 5.5664 2.3047z"/>
  <path d="m533.82 360.64h7.8711c4.3477 0 7.8711-3.5234 7.8711-7.8711s-3.5234-7.8711-7.8711-7.8711h-7.8711c-4.3477 0-7.875 3.5234-7.875 7.8711s3.5273 7.8711 7.875 7.8711z"/>
  <path d="m573.18 360.64h7.8711c4.3477 0 7.8711-3.5234 7.8711-7.8711s-3.5234-7.8711-7.8711-7.8711h-7.8711c-4.3477 0-7.8711 3.5234-7.8711 7.8711s3.5234 7.8711 7.8711 7.8711z"/>
  <path d="m289.79 281.92c0-4.3477-3.5234-7.8711-7.8711-7.8711-4.3477 0-7.8711 3.5234-7.8711 7.8711v7.8711c0 4.3477 3.5234 7.875 7.8711 7.875 4.3477 0 7.8711-3.5273 7.8711-7.875z"/>
  <path d="m281.92 337.02c2.0898 0 4.0898-0.83203 5.5664-2.3086 1.4766-1.4727 2.3047-3.4766 2.3047-5.5664v-7.8711c0-4.3477-3.5234-7.8711-7.8711-7.8711-4.3477 0-7.8711 3.5234-7.8711 7.8711v7.8711c0 2.0898 0.82812 4.0938 2.3047 5.5664 1.4766 1.4766 3.4805 2.3086 5.5664 2.3086z"/>
  <path d="m266.18 297.66h-7.875c-4.3477 0-7.8711 3.5234-7.8711 7.8711s3.5234 7.8711 7.8711 7.8711h7.875c4.3477 0 7.8711-3.5234 7.8711-7.8711s-3.5234-7.8711-7.8711-7.8711z"/>
  <path d="m297.66 313.41h7.8711c4.3477 0 7.8711-3.5234 7.8711-7.8711s-3.5234-7.8711-7.8711-7.8711h-7.8711c-4.3477 0-7.875 3.5234-7.875 7.8711s3.5273 7.8711 7.875 7.8711z"/>
 </g>
</svg>