<?xml version="1.0" encoding="UTF-8"?>
<!-- The Best Svg Icon site in the world: iconSvg.co, Visit us! https://iconsvg.co -->
<svg fill="#000000" width="800px" height="800px" version="1.1" viewBox="144 144 512 512" xmlns="http://www.w3.org/2000/svg">
 <g>
  <path d="m542.1 318.7c4.0508-25.418-0.91406-51.457-14.035-73.602l36.359-69.746c1.668-3.2109 0.93359-7.1484-1.7812-9.5391-2.7188-2.3906-6.7148-2.625-9.6875-0.5625l-59.277 41.164c-23.223-16.695-50.918-26.043-79.508-26.828-38.574 0.49609-50.57-12.73-50.578-12.738-2.1406-2.6992-5.793-3.6914-9.0039-2.4453-3.2148 1.2422-5.2461 4.4336-5.0156 7.8711 1.2266 16.879 6.5117 33.215 15.398 47.617-2.6367 1.3086-4.3086 3.9844-4.332 6.9258v16.297c-27.938 2.5781-54.461 13.477-76.145 31.281-28.922 25.461-46.656 23.273-46.656 23.273-3.3867-0.64844-6.7969 0.98047-8.4219 4.0195-1.6211 3.0391-1.082 6.7812 1.3359 9.2344 7.25 7.1055 15.34 13.297 24.09 18.445-13.031 9.4375-24.988 20.273-35.66 32.312-24.797 28.16-44.328 23.012-45.02 22.828l-0.003906 0.003906c-3.4492-1.1211-7.2188 0.26172-9.125 3.3477-1.9062 3.0898-1.457 7.0781 1.0898 9.6641 10.895 10.883 23.941 19.375 38.305 24.93-18.469 18.383-31.445 41.559-37.461 66.914-5.5273 22.059-3.8672 45.305 4.7461 66.352 8.3359 18.895 18.477 37 28.277 54.488 4.0547 7.2578 8.1094 14.5 12.043 21.812v0.003906c1.3672 2.543 4.0234 4.1328 6.9102 4.1406h0.69922c3.1367-0.28125 5.8008-2.4023 6.7812-5.3945l6.793-20.781c6.3555-20.895 20.863-38.352 40.242-48.43 20.207-10.422 36.094-27.633 44.871-48.609 14.254-6.8594 25.59-18.586 31.961-33.066 6.375-14.48 7.3672-30.758 2.8008-45.906l-6.3672-21.254h-0.003906c19.812-11.117 35.105-28.82 43.227-50.035 8.1211-21.215 8.5547-44.605 1.2305-66.109 2.8906 0.69922 5.8477 1.0625 8.8242 1.0898 4.3477 0 7.8711-3.5273 7.8711-7.875 0-4.3477-3.5234-7.8711-7.8711-7.8711-6.2656 0-12.273-2.4883-16.699-6.918-4.4297-4.4258-6.918-10.434-6.918-16.699v-23.613h23.617c6.2617 0 12.27 2.4883 16.699 6.9141 4.4258 4.4297 6.9141 10.438 6.9141 16.699 0 2.0898 0.83203 4.0898 2.3086 5.5664 1.4766 1.4766 3.4766 2.3086 5.5664 2.3086 1.1602-0.007812 2.3008-0.27734 3.3438-0.78906 1.0938 4.9023 3.7383 9.3164 7.543 12.594l24.812 21.254v0.003906c5.3047 4.5586 12.363 6.5195 19.262 5.3516 4.7812-0.82422 9.1836-3.1211 12.594-6.5664l89.922 89.523c21.809 21.82 31.449 32.605 31.449 59.684 0 19.516-16.02 47.23-30.984 47.23h-7.9805c-5.7578 0.023437-11.406-1.5703-16.305-4.5977-4.8945-3.0273-8.8477-7.3633-11.406-12.523-2.1875-4.3984-5.7109-7.9922-10.062-10.273-4.3516-2.2812-9.3125-3.1328-14.176-2.4297-27.742 3.9258-56.016 1.3789-82.609-7.4492-13.66-4.5391-25.547-13.27-33.965-24.949-8.418-11.68-12.941-25.715-12.926-40.113 0-4.3477-3.5273-7.8711-7.875-7.8711s-7.8711 3.5234-7.8711 7.8711c-0.011718 17.703 5.5508 34.957 15.898 49.316 10.352 14.359 24.961 25.098 41.758 30.68 1.5742 0.51172 3.1016 0.92969 4.6445 1.4023-9.8086 46.422-10.473 94.312-1.9531 140.99l1.0547 5.9023h-179.48c-4.3477 0-7.875 3.5273-7.875 7.875 0 4.3477 3.5273 7.8711 7.875 7.8711h188.93c2.3359 0 4.5508-1.0352 6.0469-2.8281 1.4961-1.793 2.1172-4.1562 1.6992-6.4531l-2.7617-15.184v-0.003906c-8.0977-44.406-7.5117-89.961 1.7227-134.14 22.961 5.0547 46.641 5.9609 69.922 2.6758 3.2578-0.44531 6.4375 1.2227 7.9258 4.1562 3.8555 7.7812 9.8125 14.328 17.203 18.891 7.3867 4.5664 15.906 6.9688 24.59 6.9375h7.9805c26.664 0 46.73-38.203 46.73-62.977 0-33.125-13.027-47.773-36.078-70.848zm-14.523-14.461-19.98-19.875 11.707-22.465v-0.003906c5.9531 13.297 8.7852 27.785 8.2734 42.344zm-150.05-13.703c-2.3945 2.1562-3.2344 5.5547-2.1172 8.5781 7.3945 19.703 6.9141 41.496-1.3477 60.848-8.2617 19.355-23.668 34.777-43.012 43.062l-12.871 5.5117c-1.9492 0.80469-3.4922 2.3516-4.2891 4.3047-0.79688 1.9492-0.77734 4.1406 0.054687 6.0781 0.82812 1.9336 2.4023 3.457 4.3633 4.2266 1.9609 0.76953 4.1523 0.71875 6.0742-0.14062l7.9336-3.4023 5.668 18.895h0.003906c2.9297 9.7422 2.8633 20.137-0.19141 29.84-3.0586 9.7031-8.9688 18.258-16.957 24.555-0.11719-2.4375-0.39453-4.8633-0.83203-7.2656-0.34766-2.0859-1.5195-3.9492-3.2578-5.1602-1.7344-1.2148-3.8867-1.6758-5.9648-1.2852-2.082 0.39062-3.918 1.6055-5.0938 3.3672-1.1719 1.7617-1.5898 3.9219-1.1523 5.9922 0.88672 5.3984 0.88672 10.906 0 16.305-7.1055 18.402-20.695 33.57-38.211 42.641-23.16 12.016-40.516 32.836-48.16 57.781l-1.1016 3.3711c-1.1328-2.0312-2.2578-4.0625-3.4023-6.0859-9.6289-17.207-19.578-35-27.621-53.176h-0.003906c-7.2188-17.938-8.5508-37.703-3.793-56.441 6.4727-27.273 21.957-51.559 43.949-68.938 3.2031-0.73828 6.2695-1.9883 9.0781-3.6992 1.8125-1.0742 3.1211-2.832 3.6289-4.8789 0.50781-2.0469 0.17578-4.2109-0.92969-6.0078-1.1016-1.8008-2.8789-3.082-4.9336-3.5547-2.0508-0.47656-4.2109-0.10937-5.9922 1.0195-9.6992 5.9453-23.781-0.44141-34.953-8.1172 15.273-4.8867 28.777-14.145 38.84-26.629 12.043-13.543 25.805-25.453 40.938-35.426 3.6602 1.0312 7.4414 1.5781 11.246 1.6289 5.9102 0.0625 11.719-1.5391 16.762-4.6211 1.9297-1.0117 3.3516-2.7812 3.9258-4.8828 0.57812-2.1016 0.25781-4.3477-0.88281-6.207-1.1406-1.8555-3.0039-3.1562-5.1367-3.5898-2.1367-0.43359-4.3555 0.035156-6.1328 1.2969-10.289 6.2969-25.488-1.25-36.926-9.5078h-0.003906c14.93-5.332 28.598-13.684 40.148-24.539 18.836-15.258 41.699-24.715 65.812-27.227 0.23828 12.586 6.5039 24.297 16.844 31.48zm60.18-42.902h0.003906c-2.3125-8.2344-7.2422-15.484-14.047-20.664-6.8047-5.1758-15.113-7.9922-23.66-8.0234h-10.582c-11.691-2.1562-18.23-17.578-21.508-31.164h0.003906c14.062 5.4297 29.074 7.9961 44.145 7.5469h3.3945c22.945 0.84766 45.207 8.0312 64.32 20.762l-34.863 24.199v-0.003906c-2.9141 1.8867-5.375 4.3984-7.2031 7.3477zm46.145 41.477h0.003906c-2.3008 0.40234-4.6602-0.25391-6.4219-1.7852l-24.812-21.254-0.003907-0.003906c-1.8945-1.6055-2.9102-4.0195-2.7305-6.5 0.17969-2.5664 1.5938-4.8828 3.7891-6.2188l82.031-56.965-46.367 88.953 0.003906 0.003907c-1.1719 2.0156-3.1875 3.4023-5.4883 3.7695z"/>
  <path d="m596.8 462.98c2.0859 0 4.0898-0.83203 5.5664-2.3086 1.4727-1.4766 2.3047-3.4766 2.3047-5.5664v-15.742c0-4.3477-3.5234-7.8711-7.8711-7.8711-4.3477 0-7.875 3.5234-7.875 7.8711v15.742c0 2.0898 0.83203 4.0898 2.3086 5.5664 1.4766 1.4766 3.4766 2.3086 5.5664 2.3086z"/>
  <path d="m455.1 360.64c0-5.625 3-10.82 7.875-13.633 4.8711-2.8125 10.871-2.8125 15.742 0s7.8711 8.0078 7.8711 13.633c0 4.3477 3.5234 7.875 7.8711 7.875 4.3477 0 7.875-3.5273 7.875-7.875 0-11.246-6.0039-21.645-15.746-27.27-9.7422-5.625-21.746-5.625-31.488 0-9.7422 5.625-15.742 16.023-15.742 27.27 0 4.3477 3.5234 7.875 7.8711 7.875 4.3477 0 7.8711-3.5273 7.8711-7.875z"/>
  <path d="m274.05 163.84c-4.3477 0-7.8711 3.5273-7.8711 7.875v7.8711c0 4.3477 3.5234 7.8711 7.8711 7.8711s7.8711-3.5234 7.8711-7.8711v-7.8711c0-2.0898-0.82812-4.0898-2.3047-5.5664-1.4766-1.4766-3.4805-2.3086-5.5664-2.3086z"/>
  <path d="m266.18 218.94c0 4.3477 3.5234 7.8711 7.8711 7.8711s7.8711-3.5234 7.8711-7.8711v-7.8711c0-4.3477-3.5234-7.8711-7.8711-7.8711s-7.8711 3.5234-7.8711 7.8711z"/>
  <path d="m258.3 187.45h-7.8711c-4.3477 0-7.8711 3.5234-7.8711 7.8711 0 4.3477 3.5234 7.875 7.8711 7.875h7.8711c4.3477 0 7.875-3.5273 7.875-7.875 0-4.3477-3.5273-7.8711-7.875-7.8711z"/>
  <path d="m289.79 203.2h7.875c4.3477 0 7.8711-3.5273 7.8711-7.875 0-4.3477-3.5234-7.8711-7.8711-7.8711h-7.875c-4.3477 0-7.8711 3.5234-7.8711 7.8711 0 4.3477 3.5234 7.875 7.8711 7.875z"/>
  <path d="m510.21 502.34c-4.3477 0-7.8711 3.5234-7.8711 7.8711v7.8711c0 4.3477 3.5234 7.8711 7.8711 7.8711 4.3477 0 7.8711-3.5234 7.8711-7.8711v-7.8711c0-2.0898-0.82812-4.0898-2.3047-5.5664-1.4766-1.4766-3.4805-2.3047-5.5664-2.3047z"/>
  <path d="m502.34 557.44c0 4.3477 3.5234 7.875 7.8711 7.875 4.3477 0 7.8711-3.5273 7.8711-7.875v-7.8711c0-4.3477-3.5234-7.8711-7.8711-7.8711-4.3477 0-7.8711 3.5234-7.8711 7.8711z"/>
  <path d="m494.46 525.95h-7.8711c-4.3477 0-7.8711 3.5273-7.8711 7.875 0 4.3477 3.5234 7.8711 7.8711 7.8711h7.8711c4.3477 0 7.875-3.5234 7.875-7.8711 0-4.3477-3.5273-7.875-7.875-7.875z"/>
  <path d="m525.95 541.7h7.875c4.3477 0 7.8711-3.5234 7.8711-7.8711 0-4.3477-3.5234-7.875-7.8711-7.875h-7.875c-4.3477 0-7.8711 3.5273-7.8711 7.875 0 4.3477 3.5234 7.8711 7.8711 7.8711z"/>
 </g>
</svg>