<?xml version="1.0" encoding="UTF-8"?>
<!-- The Best Svg Icon site in the world: iconSvg.co, Visit us! https://iconsvg.co -->
<svg fill="#000000" width="800px" height="800px" version="1.1" viewBox="144 144 512 512" xmlns="http://www.w3.org/2000/svg">
 <g>
  <path d="m628.29 400h-141.7c-4.3477 0-7.8711 3.5234-7.8711 7.8711v77.469c-5.5898 2.4688-10.875 5.582-15.742 9.2734v-204.82c0-2.0859-0.83203-4.0898-2.3086-5.5664-1.4766-1.4766-3.4766-2.3047-5.5664-2.3047h-283.39c-4.3477 0-7.875 3.5234-7.875 7.8711v338.5c0 2.0859 0.83203 4.0898 2.3086 5.5664 1.4766 1.4727 3.4766 2.3047 5.5664 2.3047h283.39c2.0898 0 4.0898-0.83203 5.5664-2.3047 1.4766-1.4766 2.3086-3.4805 2.3086-5.5664v-8.0234c4.9453 3.7734 10.328 6.9453 16.027 9.4453 0.63281 3.7031 3.832 6.418 7.5859 6.4492h141.7c2.0859 0 4.0898-0.83203 5.5664-2.3047 1.4727-1.4766 2.3047-3.4805 2.3047-5.5664v-220.42c0-2.0898-0.83203-4.0898-2.3047-5.5664-1.4766-1.4766-3.4805-2.3047-5.5664-2.3047zm-283.39-70.852h56.449c2.3945 6.7188 7.6797 12.008 14.398 14.398v42.055c-6.7188 2.3906-12.004 7.6797-14.398 14.398h-56.449zm0 86.594h62.977c2.0859 0 4.0898-0.82813 5.5664-2.3047s2.3047-3.4805 2.3047-5.5664c0-4.3477 3.5234-7.8711 7.8711-7.8711 2.0898 0 4.0898-0.83203 5.5664-2.3086 1.4766-1.4766 2.3086-3.4766 2.3086-5.5664v-55.102c0-2.0898-0.83203-4.0898-2.3086-5.5664-1.4766-1.4766-3.4766-2.3086-5.5664-2.3086-4.3477 0-7.8711-3.5234-7.8711-7.8711 0-2.0859-0.82813-4.0898-2.3047-5.5664-1.4766-1.4766-3.4805-2.3047-5.5664-2.3047h-62.977v-15.742h102.34v133.82h-102.34zm0 31.488h102.34v15.742l-102.34 0.003906zm0 31.488h102.34v15.742h-102.34zm0 31.488h102.34v0.20312c-3.6289 4.8125-6.6875 10.027-9.125 15.539h-93.211zm0 31.488h88.168c-1.0547 5.1797-1.582 10.457-1.5742 15.742h-86.594zm0 31.488h88.168c1.1133 5.4102 2.7969 10.688 5.0273 15.742h-93.195zm-62.977 47.23h-102.34v-15.742h102.34zm0-31.488h-102.34v-15.742h102.34zm0-31.488h-102.34v-15.742h102.34zm0-31.488h-102.34v-15.742h102.34zm0-31.488h-102.34v-15.742h102.34zm0-31.488-102.34 0.003906v-15.746h102.34zm0-62.977-56.449 0.003906c-2.3945-6.7188-7.6797-12.008-14.398-14.398v-42.055c6.7188-2.3906 12.004-7.6797 14.398-14.398h56.449zm0-86.594-62.977 0.003906c-4.3477 0-7.8711 3.5234-7.8711 7.8711 0 2.0898-0.82812 4.0898-2.3047 5.5664s-3.4805 2.3047-5.5664 2.3047c-4.3477 0-7.875 3.5273-7.875 7.875v55.105-0.003906c0 2.0898 0.83203 4.0898 2.3086 5.5664 1.4766 1.4766 3.4766 2.3086 5.5664 2.3086 2.0859 0 4.0898 0.82812 5.5664 2.3047 1.4766 1.4766 2.3047 3.4766 2.3047 5.5664 0 2.0859 0.82813 4.0898 2.3047 5.5664s3.4805 2.3047 5.5664 2.3047h62.977v15.742l-102.34 0.003906v-133.82h102.34zm47.23 307.01-31.484 0.003906v-78.719h31.488zm0-94.465-31.484 0.003907v-78.719h31.488zm0-94.465-31.484 0.007812v-133.82h31.488zm118.08 188.93h-102.34v-15.742h102.34zm62.977 0c-16.703 0-32.723-6.6328-44.531-18.445-11.809-11.809-18.445-27.828-18.445-44.531 0-16.699 6.6367-32.719 18.445-44.531 11.809-11.809 27.828-18.445 44.531-18.445s32.719 6.6367 44.531 18.445c11.809 11.812 18.445 27.832 18.445 44.531-0.019532 16.699-6.6602 32.707-18.465 44.512-11.809 11.805-27.816 18.445-44.512 18.465zm110.21 0h-63.18c5.9805-4.4766 11.301-9.7773 15.801-15.742h47.379zm0-31.488h-38.105c2.2266-5.0547 3.9141-10.332 5.0273-15.742h33.078zm0-31.488h-31.488c0.007813-5.2852-0.51953-10.562-1.5742-15.742h33.062zm0-31.488h-38.105c-2.4727-5.5898-5.582-10.871-9.2734-15.742h47.379zm0-31.488h-63.18c-17.926-13.504-40.785-18.664-62.773-14.168v-1.5742h125.95zm0-31.488-125.95 0.003906v-15.746h125.95zm0-31.488-125.95 0.003906v-15.746h125.95z"/>
  <path d="m510.21 533.82c2.0859 0 4.0898 0.82812 5.5664 2.3047 1.4766 1.4766 2.3047 3.4766 2.3047 5.5664h15.746c-0.019531-4.8672-1.543-9.6094-4.3633-13.578-2.8164-3.9688-6.793-6.9688-11.383-8.5898v-9.3203h-15.742v9.3203c-7.0547 2.4844-12.512 8.1719-14.703 15.324-2.1875 7.1523-0.85547 14.918 3.5977 20.926 4.457 6.0117 11.496 9.5469 18.977 9.5352 3.1836 0 6.0547 1.918 7.2734 4.8594s0.54297 6.3242-1.707 8.5781c-2.25 2.25-5.6367 2.9258-8.5781 1.707-2.9414-1.2188-4.8594-4.0898-4.8594-7.2734h-15.746c0.019531 4.8672 1.543 9.6094 4.3633 13.578 2.8164 3.9648 6.793 6.9648 11.383 8.5898v9.3203h15.742v-9.3203c7.0547-2.4844 12.512-8.1719 14.703-15.324 2.1875-7.1523 0.85156-14.918-3.6016-20.926-4.4531-6.0117-11.492-9.5469-18.973-9.5352-4.3477 0-7.8711-3.5234-7.8711-7.8711 0-4.3477 3.5234-7.8711 7.8711-7.8711z"/>
  <path d="m195.32 226.81h23.617v31.488c0 2.0898 0.82812 4.0898 2.3047 5.5664 1.4766 1.4766 3.4805 2.3086 5.5664 2.3086h31.488c2.0898 0 4.0898-0.83203 5.5664-2.3086 1.4766-1.4766 2.3086-3.4766 2.3086-5.5664v-31.488h23.617-0.003907c3.1836 0 6.0547-1.918 7.2734-4.8594s0.54297-6.3242-1.707-8.5781l-47.23-47.23c-3.0742-3.0742-8.0586-3.0742-11.133 0l-47.23 47.23c-2.2539 2.2539-2.9258 5.6367-1.707 8.5781s4.0859 4.8594 7.2695 4.8594zm47.23-43.973 28.234 28.23h-12.488c-4.3477 0-7.8711 3.5234-7.8711 7.8711v31.488h-15.742v-31.488c0-2.0859-0.83203-4.0898-2.3086-5.5664-1.4766-1.4766-3.4766-2.3047-5.5664-2.3047h-12.484z"/>
  <path d="m337.02 226.81h23.617v31.488h-0.003906c0 2.0898 0.83203 4.0898 2.3086 5.5664 1.4766 1.4766 3.4766 2.3086 5.5664 2.3086h31.488c2.0859 0 4.0898-0.83203 5.5664-2.3086 1.4766-1.4766 2.3047-3.4766 2.3047-5.5664v-31.488h23.617c3.1836 0 6.0508-1.918 7.2695-4.8594s0.54688-6.3242-1.707-8.5781l-47.23-47.23c-3.0742-3.0742-8.0586-3.0742-11.133 0l-47.23 47.23c-2.25 2.2539-2.9258 5.6367-1.707 8.5781s4.0898 4.8594 7.2734 4.8594zm47.23-43.973 28.23 28.23h-12.484c-4.3477 0-7.875 3.5234-7.875 7.8711v31.488h-15.742v-31.488c0-2.0859-0.82812-4.0898-2.3047-5.5664s-3.4805-2.3047-5.5664-2.3047h-12.488z"/>
  <path d="m510.21 344.89h23.617v31.488c0 2.0859 0.82812 4.0898 2.3047 5.5664 1.4766 1.4766 3.4766 2.3047 5.5664 2.3047h31.488c2.0859 0 4.0898-0.82812 5.5664-2.3047 1.4766-1.4766 2.3047-3.4805 2.3047-5.5664v-31.488h23.617c3.1836 0 6.0508-1.918 7.2695-4.8594s0.54688-6.3281-1.7031-8.5781l-47.23-47.23h-0.003906c-3.0742-3.0742-8.0547-3.0742-11.129 0l-47.23 47.23h-0.003906c-2.25 2.25-2.9219 5.6367-1.7031 8.5781 1.2148 2.9414 4.0859 4.8594 7.2695 4.8594zm47.23-43.973 28.23 28.227h-12.484c-4.3477 0-7.8711 3.5273-7.8711 7.875v31.488h-15.746v-31.488c0-2.0898-0.82812-4.0898-2.3047-5.5664-1.4766-1.4766-3.4805-2.3086-5.5664-2.3086h-12.484z"/>
 </g>
</svg>