<?xml version="1.0" encoding="UTF-8"?>
<!-- The Best Svg Icon site in the world: iconSvg.co, Visit us! https://iconsvg.co -->
<svg fill="#000000" width="800px" height="800px" version="1.1" viewBox="144 144 512 512" xmlns="http://www.w3.org/2000/svg">
 <g>
  <path d="m546.54 247.64 1.5859-28.789h-0.003906c0.12891-2.3398-1.1406-4.5352-3.2305-5.5938l-25.621-12.941-12.941-25.617c-1.0586-2.0938-3.2539-3.3633-5.5938-3.2344l-28.789 1.5859-24.031-15.848c-1.9688-1.2969-4.5234-1.2969-6.4922 0l-24.031 15.844-28.789-1.5859c-2.3438-0.12891-4.5391 1.1406-5.5977 3.2344l-12.945 25.621-25.621 12.941c-2.0898 1.0586-3.3594 3.2539-3.2305 5.5938l1.5859 28.789-15.844 24.031h-0.003906c-1.2969 1.9727-1.2969 4.5312 0 6.5l15.844 24.031-1.5859 28.789h0.003907c-0.12891 2.3438 1.1406 4.5391 3.2305 5.5938l25.617 12.941 12.941 25.621h0.003906c1.0547 2.0938 3.2539 3.3633 5.5938 3.2344l28.617-1.5859 3.4453 2.3867v82.074l-30.941-0.027344 8.2695-6.7227c7.9922-6.4023 12.965-15.84 13.73-26.055 0.69531-10-2.7812-19.84-9.5977-27.184l-5.2148-6.2969v-0.003906c-1.7734-2.1367-4.7969-2.75-7.2617-1.4648l-117.9 61.371c-21.652 11.27-35.094 32.723-35.094 55.98v68.836c0 35.25 30.523 63.961 68.051 63.996l8.5273 0.007813c34.414 0.03125 67.668 0.066406 97.219 0.066406 19.266 0 37.039-0.015625 52.449-0.050781 15.734-0.035156 28.613-12.195 28.613-27.102v-0.46875c-0.046875-6.3477-2.3906-12.465-6.6055-17.211 10.559-3.9922 18-13.785 18-25.234-0.027344-6.9609-2.8164-13.625-7.7539-18.531 4.4688-2.1953 8.2422-5.5898 10.898-9.8047 2.6562-4.2109 4.0938-9.0781 4.1562-14.059v-0.49609c-0.039062-7.4062-3.1914-14.449-8.6836-19.418 8.2266-4.7422 13.328-13.477 13.422-22.969 0-14.93-13.047-27.09-28.809-27.102l-18.242-0.019531v-82.113l3.8359-2.3867 28.898 1.5859c2.3555 0.13281 4.5703-1.1367 5.6484-3.2344l12.969-25.621 25.633-12.941c2.0977-1.0547 3.3672-3.25 3.2422-5.5938l-1.582-28.789 15.844-24.031h-0.003906c1.3008-1.9688 1.3008-4.5273 0-6.5zm-43.41 240.58c0 8.4336-7.5391 15.09-16.805 15.09h-3.8359c-0.30469 0-0.61328 0.1875-0.92188 0.1875v-0.097656c-0.13672 0-0.27344-0.085938-0.41016-0.085938h-71.168c-3.2617 0-5.9062 2.6445-5.9062 5.9062 0 3.2578 2.6445 5.9023 5.9062 5.9023h72.301c8.9297 0.98438 16.105 7.4688 16.105 15.68v0.49609c0 8.4336-7.5664 15.309-16.824 15.309h-68.047c-3.2578 0-5.9023 2.6445-5.9023 5.9062s2.6445 5.9023 5.9023 5.9023h60.73c9.2656 0 16.801 6.7891 16.801 15.277 0 8.4336-7.5352 15.227-16.801 15.227h-59.223c-3.2617 0-5.9023 2.6445-5.9023 5.9062s2.6406 5.9023 5.9023 5.9023h47.707c9.2656 0 16.961 6.9766 16.961 15.41v0.46875c0 8.4102-7.5938 15.273-16.832 15.293-39.027 0.089844-92.754 0.039062-149.59-0.015625l-8.543-0.007813c-31.023-0.03125-56.273-23.441-56.273-52.188v-68.836c0-18.84 11.008-36.277 28.742-45.508l113.68-59.172 2.2734 2.7461c0.0625 0.078125 0.12891 0.15234 0.19531 0.22656v-0.003906c4.6836 4.9727 7.0859 11.668 6.6367 18.484-0.53516 6.9648-3.9414 13.398-9.4023 17.754l-20.91 17.176c-1.9258 1.582-2.6484 4.2031-1.8125 6.5508 0.83984 2.3438 3.0625 3.9141 5.5508 3.9141h112.93c9.2617 0.007812 16.793 6.7695 16.793 15.199zm-47.047-26.93-23.617-0.019531v-74.305l8.7734 5.6719h0.003906c0.99609 0.64062 2.1523 0.97656 3.3359 0.97656 1.1016 0 2.1758-0.33984 3.0742-0.97656l8.4297-5.6719zm79.523-163.96v-0.003906c-0.69531 1.0586-1.0352 2.3125-0.96484 3.5742l1.4766 26.883-23.91 12.078-0.003907-0.003906c-1.125 0.57031-2.0391 1.4844-2.6055 2.6094l-12.07 23.906-26.883-1.4766h0.003906c-1.2656-0.070312-2.5195 0.26562-3.5742 0.96875l-22.406 14.77-22.41-14.777v0.003906c-0.96484-0.63672-2.0938-0.97656-3.2461-0.97656-0.10938 0-0.21484 0.003907-0.32422 0.007813l-26.883 1.4766-12.082-23.902c-0.56641-1.125-1.4805-2.0391-2.6055-2.6094l-23.91-12.074 1.4766-26.883c0.070312-1.2617-0.26953-2.5156-0.96484-3.5742l-14.773-22.402 14.777-22.41v-0.003907c0.69531-1.0547 1.0352-2.3086 0.96484-3.5742l-1.4766-26.883 23.902-12.074c1.125-0.57031 2.0391-1.4805 2.6094-2.6055l12.078-23.906 26.883 1.4766-0.003906-0.003906c1.2656 0.070312 2.5156-0.26562 3.5742-0.96484l22.414-14.773 22.41 14.777v-0.003906c1.0586 0.69922 2.3086 1.0352 3.5742 0.96484l26.883-1.4766 12.078 23.906-0.003907 0.003906c0.57031 1.125 1.4844 2.0352 2.6094 2.6055l23.91 12.078-1.4766 26.883v-0.003907c-0.066406 1.2656 0.26953 2.5195 0.96875 3.5742l14.762 22.414z"/>
  <path d="m444.67 203.18c-19.027-0.003906-37.277 7.5547-50.73 21.008-13.457 13.453-21.016 31.703-21.02 50.73 0 19.027 7.5586 37.277 21.012 50.734 13.453 13.453 31.699 21.016 50.73 21.016 19.027 0 37.273-7.5586 50.73-21.012s21.016-31.699 21.016-50.727c-0.019531-19.023-7.582-37.258-21.031-50.711-13.449-13.449-31.684-21.016-50.707-21.039zm0 131.68c-15.895 0-31.141-6.3164-42.383-17.555-11.238-11.242-17.555-26.484-17.555-42.383 0-15.895 6.3164-31.141 17.555-42.383 11.242-11.238 26.488-17.555 42.383-17.555 15.898 0.003907 31.141 6.3164 42.383 17.559 11.238 11.238 17.555 26.484 17.555 42.383-0.019531 15.887-6.3398 31.121-17.574 42.359-11.238 11.234-26.473 17.555-42.363 17.574z"/>
  <path d="m444.67 248.91c6.1523 0.003906 11.141 4.9922 11.148 11.145 0 3.2617 2.6445 5.9062 5.9023 5.9062 3.2617 0 5.9062-2.6445 5.9062-5.9062-0.007812-5.4727-1.9688-10.762-5.5273-14.918-3.5586-4.1562-8.4805-6.9102-13.887-7.7617v-4.6562c0-3.2617-2.6445-5.9062-5.9023-5.9062-3.2617 0-5.9062 2.6445-5.9062 5.9062v5.9258c-6.7188 2.5898-11.836 8.1875-13.812 15.113-1.9805 6.9258-0.58984 14.379 3.75 20.129s11.125 9.1289 18.328 9.125c4.5078 0 8.5742 2.7148 10.301 6.8789 1.7266 4.168 0.77344 8.9609-2.418 12.148-3.1875 3.1914-7.9805 4.1445-12.148 2.418-4.1641-1.7266-6.8828-5.7891-6.8789-10.301 0-3.2578-2.6445-5.9023-5.9062-5.9023-3.2617 0-5.9023 2.6445-5.9023 5.9023 0.003906 4.6367 1.4102 9.1602 4.0312 12.98 2.6211 3.8203 6.3359 6.7617 10.656 8.4336v5.707c0 3.2617 2.6445 5.9062 5.9062 5.9062 3.2578 0 5.9023-2.6445 5.9023-5.9062v-4.4414c7.6836-1.2031 14.234-6.2148 17.406-13.312 3.1719-7.1016 2.5352-15.324-1.6953-21.852s-11.477-10.465-19.254-10.469c-6.1562 0-11.145-4.9922-11.145-11.148s4.9883-11.145 11.145-11.145z"/>
 </g>
</svg>