<?xml version="1.0" encoding="UTF-8"?>
<!-- The Best Svg Icon site in the world: iconSvg.co, Visit us! https://iconsvg.co -->
<svg fill="#000000" width="800px" height="800px" version="1.1" viewBox="144 144 512 512" xmlns="http://www.w3.org/2000/svg">
 <g>
  <path d="m603.88 451.58c-1.3398-2.6797-4.0859-4.3672-7.082-4.3516h-39.363c0.015625-1.2188-0.25391-2.4219-0.78516-3.5195l-31.488-62.977c-1.3398-2.6797-4.0859-4.3672-7.0859-4.3516h-39.359c0.011719-1.2188-0.25781-2.4219-0.78906-3.5195l-31.488-62.977h0.003906c-1.3438-2.6797-4.0898-4.3672-7.0859-4.3516h-78.723c-2.9805-0.003906-5.7109 1.6836-7.043 4.3516l-31.488 62.977c-0.53125 1.0977-0.80078 2.3008-0.78906 3.5195h-39.398c-2.9844 0-5.7109 1.6836-7.0469 4.3516l-31.488 62.977c-0.53125 1.0977-0.79687 2.3008-0.78516 3.5195h-39.398c-2.9844 0-5.7148 1.6836-7.0469 4.3516l-31.488 62.977c-1.2188 2.4414-1.0898 5.3398 0.34766 7.6602 1.4336 2.3203 3.9688 3.7344 6.6992 3.7305h141.7c2.7305 0.003906 5.2617-1.4102 6.6992-3.7305 1.4336-2.3203 1.5664-5.2188 0.34766-7.6602l-29.734-59.457h61.117l-29.734 59.457h0.003907c-1.2188 2.4414-1.0898 5.3398 0.34766 7.6602 1.4336 2.3203 3.9688 3.7344 6.6953 3.7305h141.7c2.7344 0.015625 5.2812-1.3906 6.7266-3.7109 1.4453-2.3242 1.582-5.2305 0.35547-7.6797l-29.77-59.457h61.117l-29.734 59.457h0.003906c-1.2227 2.4414-1.0898 5.3398 0.34375 7.6602 1.4375 2.3203 3.9727 3.7344 6.6992 3.7305h141.7c2.7344 0.015625 5.2812-1.3906 6.7266-3.7109 1.4453-2.3242 1.5781-5.2305 0.35547-7.6797zm-325.9 58.625-23.617-47.23h7.8711l23.617 47.23zm78.719-70.848-23.617-47.23h7.8711l23.617 47.23zm43.336 7.8711h-0.035156c0.011719-1.2188-0.25781-2.4219-0.78906-3.5195l-29.773-59.457h61.117l-29.77 59.457c-0.51562 1.1016-0.77344 2.3047-0.74609 3.5195zm35.387 62.977-23.617-47.23h7.8711l23.617 47.23zm0-141.7-23.617-47.23h7.8711l23.617 47.23zm78.719 70.848-23.617-47.23h7.8711l23.617 47.23zm78.719 70.848-23.617-47.23h7.8711l23.617 47.23z"/>
  <path d="m565.31 321.28c0-4.3477-3.5273-7.8711-7.875-7.8711s-7.8711 3.5234-7.8711 7.8711v7.8711c0 4.3477 3.5234 7.875 7.8711 7.875s7.875-3.5273 7.875-7.875z"/>
  <path d="m557.44 376.38c2.0898 0 4.0898-0.82812 5.5664-2.3047 1.4766-1.4766 2.3086-3.4805 2.3086-5.5664v-7.875c0-4.3477-3.5273-7.8711-7.875-7.8711s-7.8711 3.5234-7.8711 7.8711v7.875c0 2.0859 0.82812 4.0898 2.3047 5.5664 1.4766 1.4766 3.4805 2.3047 5.5664 2.3047z"/>
  <path d="m541.7 337.02h-7.8711c-4.3477 0-7.875 3.5234-7.875 7.8711 0 4.3477 3.5273 7.8711 7.875 7.8711h7.8711c4.3477 0 7.8711-3.5234 7.8711-7.8711 0-4.3477-3.5234-7.8711-7.8711-7.8711z"/>
  <path d="m573.18 352.77h7.8711c4.3477 0 7.8711-3.5234 7.8711-7.8711 0-4.3477-3.5234-7.8711-7.8711-7.8711h-7.8711c-4.3477 0-7.8711 3.5234-7.8711 7.8711 0 4.3477 3.5234 7.8711 7.8711 7.8711z"/>
  <path d="m289.79 274.05c0-4.3477-3.5234-7.8711-7.8711-7.8711-4.3477 0-7.8711 3.5234-7.8711 7.8711v7.8711c0 4.3477 3.5234 7.8711 7.8711 7.8711 4.3477 0 7.8711-3.5234 7.8711-7.8711z"/>
  <path d="m281.92 329.15c2.0898 0 4.0898-0.82813 5.5664-2.3047s2.3047-3.4766 2.3047-5.5664v-7.8711c0-4.3477-3.5234-7.8711-7.8711-7.8711-4.3477 0-7.8711 3.5234-7.8711 7.8711v7.8711c0 2.0898 0.82812 4.0898 2.3047 5.5664 1.4766 1.4766 3.4805 2.3047 5.5664 2.3047z"/>
  <path d="m266.18 289.79h-7.875c-4.3477 0-7.8711 3.5273-7.8711 7.875 0 4.3477 3.5234 7.8711 7.8711 7.8711h7.875c4.3477 0 7.8711-3.5234 7.8711-7.8711 0-4.3477-3.5234-7.875-7.8711-7.875z"/>
  <path d="m297.66 305.54h7.8711c4.3477 0 7.8711-3.5234 7.8711-7.8711 0-4.3477-3.5234-7.875-7.8711-7.875h-7.8711c-4.3477 0-7.875 3.5273-7.875 7.875 0 4.3477 3.5273 7.8711 7.875 7.8711z"/>
 </g>
</svg>