<?xml version="1.0" encoding="UTF-8"?>
<!-- The Best Svg Icon site in the world: iconSvg.co, Visit us! https://iconsvg.co -->
<svg fill="#000000" width="800px" height="800px" version="1.1" viewBox="144 144 512 512" xmlns="http://www.w3.org/2000/svg">
 <g>
  <path d="m400 608.61c-56.246 0-109.13-21.902-148.9-61.676-39.777-39.77-61.68-92.652-61.68-148.9s21.902-109.13 61.676-148.9c39.773-39.773 92.652-61.68 148.9-61.68 56.246 0 109.12 21.902 148.9 61.676 39.773 39.773 61.676 92.652 61.676 148.9 0 56.246-21.902 109.13-61.676 148.9-39.773 39.773-92.652 61.676-148.9 61.676zm0-413.28c-111.77 0-202.71 90.934-202.71 202.71s90.934 202.7 202.7 202.7c111.77 0 202.7-90.934 202.7-202.7 0.003906-111.77-90.93-202.71-202.7-202.71z"/>
  <path d="m400 549.57c-36.055 0-70.988-12.879-98.363-36.266-27.07-23.125-45.207-55.094-51.066-90.02-0.19141-1.1406 0.12891-2.3086 0.875-3.1953 0.74609-0.88281 1.8477-1.3945 3.0039-1.3945l17.629 0.003906c11.395 0 20.664-9.2695 20.664-20.664s-9.2695-20.664-20.664-20.664h-17.629c-1.1562 0-2.2578-0.50781-3.0039-1.3945-0.74609-0.88281-1.0703-2.0508-0.875-3.1953 5.8594-34.922 23.996-66.891 51.066-90.02 27.371-23.383 62.305-36.266 98.363-36.266 36.055 0 70.988 12.879 98.363 36.266 26.969 23.039 45.066 54.852 51 89.621 0.089844 0.33203 0.14062 0.68359 0.14062 1.0469 0 2.1719-1.7617 3.9375-3.9375 3.9375h-0.019531l-17.629 0.003907c-11.395 0-20.664 9.2695-20.664 20.664s9.2695 20.664 20.664 20.664h17.629c1.1562 0 2.2578 0.50781 3.0039 1.3945 0.74609 0.88281 1.0703 2.0508 0.87891 3.1953-5.8594 34.922-23.996 66.891-51.066 90.02-27.375 23.383-62.309 36.262-98.363 36.262zm-140.82-123c13.441 66.992 71.934 115.13 140.82 115.13 68.887 0 127.38-48.137 140.82-115.13h-12.902c-15.734 0-28.535-12.801-28.535-28.535s12.801-28.535 28.535-28.535h12.898c-13.438-66.992-71.93-115.13-140.82-115.13s-127.38 48.137-140.82 115.13h12.902c15.734 0 28.535 12.801 28.535 28.535s-12.801 28.535-28.535 28.535z"/>
  <path d="m522.02 612.54h-285.36c-2.1719 0-3.9375-1.7617-3.9375-3.9375 0-2.1719 1.7617-3.9375 3.9375-3.9375h285.36c2.1719 0 3.9375 1.7617 3.9375 3.9375s-1.7617 3.9375-3.9336 3.9375z"/>
  <path d="m403.93 386.22c-1.0078 0-2.0156-0.38281-2.7812-1.1523l-59.039-59.039c-1.5352-1.5391-1.5352-4.0312 0-5.5664 1.5391-1.5352 4.0312-1.5352 5.5664 0l56.254 56.254 56.258-56.258c1.5352-1.5352 4.0312-1.5352 5.5664 0 1.5391 1.5391 1.5391 4.0312 0 5.5664l-59.039 59.039c-0.76953 0.76953-1.7773 1.1562-2.7852 1.1562z"/>
  <path d="m403.93 504.3c-2.1719 0-3.9375-1.7617-3.9375-3.9375l0.003906-118.08c0-2.1719 1.7617-3.9375 3.9375-3.9375 2.1719 0 3.9375 1.7617 3.9375 3.9375v118.08c-0.003906 2.1719-1.7656 3.9375-3.9414 3.9375z"/>
  <path d="m433.45 435.42h-59.039c-2.1719 0-3.9375-1.7617-3.9375-3.9375 0-2.1719 1.7617-3.9375 3.9375-3.9375h59.039c2.1719 0 3.9375 1.7617 3.9375 3.9375s-1.7617 3.9375-3.9375 3.9375z"/>
  <path d="m433.45 464.94h-59.039c-2.1719 0-3.9375-1.7617-3.9375-3.9375 0-2.1719 1.7617-3.9375 3.9375-3.9375h59.039c2.1719 0 3.9375 1.7617 3.9375 3.9375 0 2.1758-1.7617 3.9375-3.9375 3.9375z"/>
 </g>
</svg>