<?xml version="1.0" encoding="UTF-8"?>
<!-- The Best Svg Icon site in the world: iconSvg.co, Visit us! https://iconsvg.co -->
<svg fill="#000000" width="800px" height="800px" version="1.1" viewBox="144 144 512 512" xmlns="http://www.w3.org/2000/svg">
 <g>
  <path d="m547.77 429.11-53.254-35.426v-56.961c0-2.668-2.1641-4.832-4.832-4.832h-53.902c-2.668 0-4.832 2.1641-4.832 4.832v14.621l-58.055-38.641c-1.6211-1.082-3.7344-1.082-5.3555 0l-174.88 116.41c-1.7617 1.1875-2.543 3.3828-1.9297 5.418 0.61328 2.0312 2.4805 3.4258 4.6055 3.4414h47.023v177.34c0 1.2852 0.50781 2.5156 1.4141 3.4258 0.90625 0.90625 2.1367 1.418 3.418 1.418h246c2.6719 0 4.8398-2.168 4.8398-4.8438v-177.34h47.016c2.125-0.011719 3.9922-1.4062 4.6055-3.4414 0.61328-2.0312-0.16797-4.2266-1.9297-5.4141zm-128.91 181.37-97.285 0.003906v-76.008c0-17.375 9.2695-33.434 24.32-42.121 15.047-8.6875 33.59-8.6875 48.637 0 15.051 8.6875 24.32 24.746 24.32 42.121zm69.539 0-59.863 0.003906v-76.008c0-20.832-11.113-40.082-29.156-50.496-18.043-10.418-40.27-10.418-58.312 0-18.043 10.414-29.156 29.664-29.156 50.496v76.004l-59.875 0.003906v-172.51h236.36zm-277.06-182.18 158.88-105.76 62.887 41.859h0.003906c1.4844 0.98438 3.3906 1.0742 4.9609 0.23438s2.5508-2.4766 2.5547-4.2578v-18.812h44.223v54.688c0 1.6211 0.80859 3.1289 2.1562 4.0273l42.094 28.023z"/>
  <path d="m550.78 179.84c-15.574 0-30.508 6.1875-41.52 17.199-11.012 11.012-17.195 25.945-17.195 41.52 0 15.57 6.1836 30.504 17.195 41.516 11.012 11.012 25.945 17.199 41.52 17.199 15.57 0 30.508-6.1875 41.52-17.199 11.012-11.012 17.195-25.945 17.195-41.516-0.019532-15.566-6.2109-30.492-17.219-41.5-11.004-11.008-25.93-17.199-41.496-17.219zm0 107.76v0.003906c-13.008 0-25.48-5.168-34.68-14.367-9.1953-9.1953-14.363-21.672-14.363-34.676 0-13.008 5.168-25.484 14.363-34.68 9.1992-9.1992 21.672-14.363 34.68-14.363 13.008 0 25.48 5.1641 34.68 14.363 9.1953 9.1953 14.363 21.672 14.363 34.68-0.011718 13.004-5.1797 25.469-14.375 34.664-9.1953 9.1953-21.664 14.367-34.668 14.379z"/>
  <path d="m427.01 283.21c7.4453 0 14.582-2.957 19.844-8.2188 5.2656-5.2656 8.2227-12.402 8.2227-19.844 0-7.4453-2.957-14.582-8.2227-19.844-5.2617-5.2656-12.398-8.2227-19.844-8.2227-7.4414 0-14.578 2.957-19.844 8.2227-5.2617 5.2617-8.2188 12.398-8.2188 19.844 0.007813 7.4414 2.9688 14.574 8.2305 19.836 5.2578 5.2578 12.395 8.2188 19.832 8.2266zm0-46.445c4.875 0.003906 9.5508 1.9414 12.996 5.3906 3.4453 3.4492 5.3789 8.125 5.375 12.996 0 4.875-1.9375 9.5508-5.3867 12.996-3.4453 3.4453-8.1211 5.3828-12.996 5.3789-4.875 0-9.5469-1.9375-12.996-5.3828-3.4453-3.4492-5.3828-8.1211-5.3828-12.996 0.007812-4.875 1.9453-9.5508 5.3945-12.996 3.4492-3.4453 8.1211-5.3828 12.996-5.3867z"/>
  <path d="m544.09 327.87c-7.4453-0.003906-14.582 2.9531-19.848 8.2148-5.2656 5.2617-8.2227 12.398-8.2266 19.844 0 7.4414 2.9531 14.582 8.2188 19.848 5.2617 5.2617 12.398 8.2188 19.844 8.2227 7.4414 0 14.582-2.957 19.844-8.2188 5.2656-5.2656 8.2227-12.402 8.2227-19.848-0.007813-7.4375-2.9648-14.57-8.2266-19.832-5.2578-5.2578-12.391-8.2188-19.828-8.2305zm0 46.445c-4.8789 0.003906-9.5586-1.9336-13.008-5.3828-3.4531-3.4492-5.3906-8.125-5.3945-13.004 0-4.8789 1.9375-9.5586 5.3867-13.008 3.4531-3.4492 8.1289-5.3906 13.008-5.3867 4.8789 0 9.5586 1.9375 13.008 5.3906 3.4492 3.4492 5.3828 8.1289 5.3828 13.008-0.007812 4.875-1.9453 9.5469-5.3906 12.992-3.4453 3.4453-8.1172 5.3867-12.992 5.3906z"/>
  <path d="m550.78 231.21c-2.7852 0-5.2969-1.6758-6.3633-4.25-1.0664-2.5742-0.47656-5.5352 1.4922-7.5078 1.9688-1.9688 4.9336-2.5586 7.5078-1.4922 2.5742 1.0664 4.25 3.5781 4.25 6.3633 0.11328 2.3242 2.0273 4.1523 4.3555 4.1523s4.2422-1.8281 4.3555-4.1523c-0.007812-3.3867-1.1094-6.6797-3.1445-9.3867-2.0352-2.707-4.8906-4.6836-8.1445-5.6289v-2.5c-0.10938-2.3242-2.0273-4.1523-4.3516-4.1523-2.3281 0-4.2461 1.8281-4.3555 4.1523v2.4492c-4.8711 1.4023-8.7617 5.082-10.434 9.8672-1.6758 4.7891-0.92187 10.09 2.0156 14.219 2.9375 4.1328 7.6953 6.5859 12.766 6.5781 4.0195-0.003906 7.6406 2.4102 9.1797 6.1211 1.543 3.7109 0.69531 7.9805-2.1445 10.824-2.8398 2.8398-7.1094 3.6914-10.82 2.1562-3.7109-1.5352-6.1328-5.1562-6.1328-9.1758 0-2.4062-1.9492-4.3555-4.3594-4.3555-2.4062 0-4.3594 1.9492-4.3594 4.3555 0.015625 4.1797 1.4336 8.2344 4.0234 11.516 2.5898 3.2773 6.2031 5.5977 10.266 6.582v2.3516c-0.058594 1.1914 0.375 2.3516 1.1992 3.2148s1.9609 1.3516 3.1562 1.3516c1.1914 0 2.332-0.48828 3.1523-1.3516 0.82422-0.86328 1.2578-2.0234 1.1992-3.2148v-2.3516c5.9609-1.4414 10.828-5.7188 13.02-11.441 2.1914-5.7266 1.4297-12.16-2.043-17.215-3.4727-5.0508-9.207-8.0703-15.336-8.0781z"/>
 </g>
</svg>