<?xml version="1.0" encoding="UTF-8"?>
<!-- The Best Svg Icon site in the world: iconSvg.co, Visit us! https://iconsvg.co -->
<svg fill="#000000" width="800px" height="800px" version="1.1" viewBox="144 144 512 512" xmlns="http://www.w3.org/2000/svg">
 <path d="m541.7 218.94v-15.742c0-5.625-3-10.824-7.8711-13.637-4.8711-2.8125-10.875-2.8125-15.746 0s-7.8711 8.0117-7.8711 13.637v15.742h-94.465v-15.742c0-5.625-3-10.824-7.8711-13.637s-10.875-2.8125-15.746 0-7.8711 8.0117-7.8711 13.637v15.742h-94.465v-15.742c0-5.625-3-10.824-7.8711-13.637-4.8711-2.8125-10.871-2.8125-15.742 0-4.8711 2.8125-7.875 8.0117-7.875 13.637v15.742c-20.875 0-40.898 8.293-55.664 23.059-14.762 14.762-23.055 34.785-23.055 55.664v236.16c0 20.875 8.293 40.898 23.055 55.664 14.766 14.762 34.789 23.055 55.664 23.055h283.39c20.879 0 40.898-8.293 55.664-23.055 14.762-14.766 23.055-34.789 23.055-55.664v-236.16c0-20.879-8.293-40.902-23.055-55.664-14.766-14.766-34.785-23.059-55.664-23.059zm-283.39 31.488v15.746c0 5.625 3.0039 10.82 7.875 13.633 4.8711 2.8125 10.871 2.8125 15.742 0 4.8711-2.8125 7.8711-8.0078 7.8711-13.633v-15.742h94.465v15.742c0 5.625 3 10.82 7.8711 13.633s10.875 2.8125 15.746 0 7.8711-8.0078 7.8711-13.633v-15.742h94.465v15.742c0 5.625 3 10.82 7.8711 13.633s10.875 2.8125 15.746 0c4.8711-2.8125 7.8711-8.0078 7.8711-13.633v-15.746c12.527 0 24.539 4.9766 33.398 13.836 8.8555 8.8555 13.832 20.871 13.832 33.398h-377.86c0-12.527 4.9766-24.543 13.832-33.398 8.8594-8.8594 20.871-13.836 33.398-13.836zm283.39 330.62h-283.39c-12.527 0-24.539-4.9766-33.398-13.832-8.8555-8.8594-13.832-20.871-13.832-33.398v-204.67l377.86-0.003906v204.68c0 12.527-4.9766 24.539-13.832 33.398-8.8594 8.8555-20.871 13.832-33.398 13.832zm-47.234-149.57c-16.699 0-32.719 6.6328-44.527 18.445-11.812 11.809-18.445 27.828-18.445 44.527 0 16.703 6.6328 32.723 18.445 44.531 11.809 11.812 27.828 18.445 44.527 18.445 16.703 0 32.723-6.6328 44.531-18.445 11.812-11.809 18.445-27.828 18.445-44.531 0-16.699-6.6328-32.719-18.445-44.527-11.809-11.812-27.828-18.445-44.531-18.445zm0 94.465v-0.003906c-8.3477 0-16.359-3.3164-22.262-9.2227-5.9062-5.9023-9.2227-13.914-9.2227-22.266 0-8.3477 3.3164-16.359 9.2227-22.262 5.9023-5.9062 13.914-9.2227 22.262-9.2227 8.3516 0 16.363 3.3164 22.266 9.2227 5.9062 5.9023 9.2227 13.914 9.2227 22.262 0 8.3516-3.3164 16.363-9.2227 22.266-5.9023 5.9062-13.914 9.2227-22.266 9.2227z"/>
</svg>