<?xml version="1.0" encoding="UTF-8"?>
<!-- The Best Svg Icon site in the world: iconSvg.co, Visit us! https://iconsvg.co -->
<svg fill="#000000" width="800px" height="800px" version="1.1" viewBox="144 144 512 512" xmlns="http://www.w3.org/2000/svg">
 <path d="m465.26 318.41c0.9375-1.0195 1.4062-2.2656 1.4062-3.7344 0-1.4961-0.47266-2.6094-1.4062-3.4023-0.94141-0.76953-3.0039-1.7617-6.1953-2.9375-2.875-1.0586-5.1133-2.0742-6.75-3.1289-1.6133-1.0117-2.9102-2.4531-3.9336-4.3008-0.99609-1.8125-1.4961-3.9883-1.4961-6.4375 0-3.2188 0.88281-6.1211 2.707-8.6758 1.7891-2.5859 4.6406-4.1406 8.5156-4.7266v-5.0938h5.2227v5.0938c5.8477 0.73438 9.6289 4.2109 11.371 10.43l-7.2266 3.125c-1.4102-4.2773-3.582-6.4023-6.5156-6.4023-1.4727 0-2.6797 0.48047-3.5625 1.4297-0.91016 0.95703-1.3438 2.1055-1.3438 3.4453 0 1.4023 0.43359 2.4531 1.2891 3.1875 0.875 0.73047 2.6992 1.6641 5.5508 2.7344 3.1133 1.2109 5.5469 2.332 7.3086 3.4219 1.7578 1.0469 3.168 2.5156 4.2266 4.3672 1.0547 1.8828 1.582 4.0703 1.582 6.5703 0 3.8242-1.0781 7.0391-3.2539 9.5977-2.1719 2.5508-5.3086 4.0859-9.4297 4.5156v6.5742h-5.2227v-6.5391c-6.8477-0.73438-11.109-4.918-12.715-12.531l8.0742-2.2305c0.76562 4.7852 3.2305 7.1797 7.457 7.1797 1.9609-0.003906 3.3984-0.51172 4.3398-1.5312zm51.273-64.672v292.53c0 2.7852-2.2578 5.0391-5.0391 5.0391l-222.99-0.003907c-2.7812 0-5.0391-2.2539-5.0391-5.0391l0.003906-239.21c0-0.25 0.10547-0.46484 0.14062-0.70703 0.054687-0.39453 0.085937-0.78125 0.23047-1.1523 0.14453-0.37109 0.39453-0.67578 0.62109-0.99219 0.14062-0.19531 0.21094-0.43359 0.38281-0.61328l50.406-53.309c0.015625-0.019532 0.039062-0.023438 0.058594-0.039063 0.29688-0.3125 0.67578-0.51953 1.0469-0.73438 0.19531-0.11719 0.36328-0.29688 0.57031-0.38281 0.19141-0.082032 0.41406-0.082032 0.61328-0.13672 0.43359-0.12109 0.86328-0.25781 1.3047-0.26172 0.023438 0 0.046875-0.015625 0.070312-0.015625l172.58-0.003906c2.7812 0 5.0391 2.2539 5.0391 5.0391zm-216.33 48.27h33.668v-35.605zm206.25-43.23h-162.5v48.27c0 2.7852-2.2578 5.0391-5.0391 5.0391l-45.367-0.003907v229.14h212.91zm-190.84 253.78h10.078v-20.152h-10.078zm18.266 0h10.078v-42.824h-10.078zm18.262 0h10.078v-34.008h-10.078zm18.262 0h10.078v-55.629h-10.078zm91.918-10.852c-11.891 8.1328-28.199 5.082-36.336-6.8125s-5.082-28.199 6.8164-36.34c3.8555-2.6367 8.3438-4.1953 12.984-4.5078l-0.67578-10.055c-6.4336 0.43359-12.656 2.5938-18 6.2461-16.48 11.273-20.711 33.867-9.4375 50.34 7.0078 10.238 18.379 15.754 29.941 15.754 7.043 0 14.16-2.0469 20.398-6.3164 7.6992-5.2695 13.012-13.191 14.965-22.305l-9.8555-2.1055c-1.418 6.582-5.25 12.297-10.801 16.102zm-3.1953-55.891-3.2148 9.5469c5.4102 1.8242 9.9805 5.2852 13.215 10 1.8125 2.6562 3.1094 5.5625 3.8555 8.6445l9.793-2.3633c-1.0312-4.2734-2.8281-8.293-5.332-11.965-4.4766-6.5508-10.809-11.34-18.316-13.863zm-109.5-83.77h125.95c2.7812 0 5.0391-2.2539 5.0391-5.0391 0-2.7852-2.2578-5.0391-5.0391-5.0391h-125.95c-2.7812 0-5.0391 2.2539-5.0391 5.0391 0 2.7852 2.2578 5.0391 5.0391 5.0391zm-25.191 24.348h151.14c2.7812 0 5.0391-2.2539 5.0391-5.0391 0-2.7852-2.2578-5.0391-5.0391-5.0391l-151.14 0.003906c-2.7812 0-5.0391 2.2539-5.0391 5.0391 0.003906 2.7852 2.2578 5.0352 5.0391 5.0352zm0 24.352h151.14c2.7812 0 5.0391-2.2539 5.0391-5.0391 0-2.7852-2.2578-5.0391-5.0391-5.0391h-151.14c-2.7812 0-5.0391 2.2539-5.0391 5.0391 0.003906 2.7852 2.2578 5.0391 5.0391 5.0391z"/>
</svg>