<?xml version="1.0" encoding="UTF-8"?>
<!-- The Best Svg Icon site in the world: iconSvg.co, Visit us! https://iconsvg.co -->
<svg fill="#000000" width="800px" height="800px" version="1.1" viewBox="144 144 512 512" xmlns="http://www.w3.org/2000/svg">
 <g>
  <path d="m400.07 282.01c14.672 0 28.461-5.7148 38.84-16.086 21.418-21.41 21.418-56.262-0.003906-77.684-10.379-10.367-24.168-16.082-38.84-16.082-14.664 0-28.461 5.7148-38.832 16.082-10.379 10.379-16.09 24.168-16.086 38.844 0 14.672 5.7148 28.461 16.086 38.832 10.363 10.375 24.164 16.094 38.836 16.094zm-28.152-83.082c7.5156-7.5156 17.516-11.656 28.148-11.656 10.629 0 20.637 4.1406 28.152 11.652 15.523 15.527 15.527 40.789 0.003906 56.305-7.5234 7.5234-17.523 11.664-28.152 11.664-10.629 0-20.633-4.1406-28.152-11.668-7.5156-7.5156-11.656-17.512-11.656-28.148-0.003907-10.637 4.1328-20.629 11.656-28.148z"/>
  <path d="m467.96 345.76-2.9531-17.816c35.406-19.938 56.367-65.406 56.367-123.11 0-12.359-10.051-22.414-22.41-22.414-12.359 0-22.414 10.055-22.414 22.414 0 49.23-32.168 84.969-76.484 84.969s-76.484-35.734-76.484-84.969c0-12.359-10.051-22.414-22.41-22.414s-22.414 10.055-22.414 22.414c0 57.703 20.953 103.17 56.359 123.1l-2.9531 17.816c-48.027 24.727-80.973 74.785-80.973 132.43 0 82.09 66.781 148.88 148.87 148.88 82.09 0 148.88-66.789 148.88-148.88 0.007812-57.633-32.949-107.69-80.977-132.42zm64.074 110.7h-25.391c-3.0312 0-5.7734 1.8086-6.957 4.6055-1.1836 2.793-0.58594 6.0156 1.5156 8.1953 2.8008 2.9023 4.3359 6.6875 4.3359 10.652 0 5.5273-2.9336 10.5-7.8477 13.305-2.3477 1.3398-3.7969 3.8359-3.8086 6.5391-0.011718 2.707 1.4258 5.2031 3.7617 6.5586 4.9414 2.8672 7.8906 7.7891 7.8906 13.176 0 8.3438-7.2383 15.395-15.805 15.395h-16.461c0.44922-0.61328 0.83594-1.2578 1.2656-1.8828 0.36328-0.52344 0.71484-1.0469 1.0625-1.582 1.2852-1.9336 2.4844-3.9102 3.6055-5.9258 0.19531-0.35156 0.40234-0.69922 0.59375-1.0547 2.6992-5.0195 4.9258-10.258 6.6211-15.695 0.070313-0.21484 0.12109-0.4375 0.1875-0.65625 0.72656-2.3828 1.3438-4.7969 1.8672-7.2461 0.14453-0.69141 0.28125-1.3867 0.41406-2.0859 0.39453-2.082 0.71484-4.1797 0.96094-6.2969 0.089844-0.76562 0.19531-1.5234 0.27344-2.2891 0.25781-2.7969 0.42969-5.6133 0.42969-8.457 0-2.7422-0.16797-5.457-0.41406-8.168-0.070312-0.73438-0.14062-1.4727-0.22656-2.207-0.27344-2.3516-0.62109-4.6914-1.0742-7.0078-0.070312-0.34375-0.10547-0.69531-0.17969-1.0391-0.51953-2.5-1.1758-4.957-1.9062-7.3945-0.24609-0.82031-0.51562-1.6289-0.77734-2.4336-0.60938-1.8398-1.2734-3.6562-2-5.457-0.26562-0.66406-0.50781-1.3438-0.78906-2-0.97266-2.2578-2.0469-4.4688-3.2109-6.6484-0.39453-0.73438-0.81641-1.457-1.2305-2.1797-0.48438-0.83984-0.93359-1.707-1.4375-2.5391 1.0195-3.7266 3.3047-7.0898 6.5-9.4531 2.6211-1.9414 3.6914-5.3438 2.6758-8.4375-1.0234-3.0977-3.9141-5.1875-7.1797-5.1875l-22.168 0.003906c-0.26172-0.21094-0.53906-0.39453-0.80078-0.59766-1.5078-1.1992-3.0391-2.3516-4.6055-3.4453-0.96875-0.67578-1.9609-1.3164-2.957-1.9492-1.1445-0.73438-2.2969-1.4375-3.4727-2.1094-1.0391-0.60547-2.0703-1.2188-3.1328-1.7852-1.832-0.96875-3.7031-1.875-5.6016-2.7148-0.47266-1.5781-0.71094-3.168-0.71094-4.7617 0-9.5742 7.7891-17.359 17.359-17.359h34.008c23.301 20.062 39.629 47.98 44.816 79.617zm-71.742 70.402c-0.74609 0.99219-1.4492 2.0156-2.2578 2.9727-0.48438 0.58594-1.0273 1.1172-1.5312 1.6875-1.1602 1.3086-2.3242 2.6211-3.5859 3.8594-13.613 13.41-32.27 21.715-52.844 21.715-41.562 0-75.379-33.816-75.379-75.379-0.003906-41.566 33.812-75.375 75.379-75.375 9.875 0 19.285 1.9609 27.941 5.4297 1.5273 0.60938 3.0195 1.3008 4.5 2.0117 0.57422 0.27734 1.1523 0.54297 1.7266 0.83594 1.3438 0.68359 2.6562 1.4219 3.9531 2.1875 0.63672 0.37891 1.2695 0.75391 1.8945 1.1523 1.2539 0.78906 2.4922 1.6133 3.707 2.4844 0.5625 0.40625 1.125 0.83594 1.6758 1.2578 1.2344 0.9375 2.4531 1.8828 3.6367 2.9023 6.7969 5.8398 12.555 12.844 16.93 20.73 0.37891 0.67969 0.71094 1.3789 1.0625 2.0742 0.64453 1.2578 1.2695 2.5273 1.8438 3.8281 0.35156 0.79687 0.69531 1.5938 1.0195 2.3984 0.55859 1.3906 1.0742 2.8008 1.5508 4.2305 0.22266 0.64453 0.46484 1.2852 0.66406 1.9414 0.61328 2.0234 1.1484 4.0898 1.5859 6.1836 0.13672 0.62891 0.23828 1.2656 0.35156 1.8984 0.30859 1.6367 0.55859 3.293 0.75391 4.9688 0.082031 0.67969 0.16016 1.3555 0.22656 2.0352 0.20312 2.2539 0.34375 4.5234 0.34375 6.832 0 2.5938-0.13281 5.1602-0.38672 7.6875-0.011719 0.10938-0.039062 0.21484-0.050781 0.32812-1.4609 13.848-6.75 26.535-14.711 37.121zm-113.57-209.92c-33.086-15.75-52.84-57.656-52.84-112.1 0-4.0273 3.2734-7.3008 7.3008-7.3008 4.0273 0 7.2969 3.2734 7.2969 7.3008 0 57.992 38.52 100.08 91.598 100.08 53.078 0 91.598-42.09 91.598-100.08 0-4.0273 3.2734-7.3008 7.3008-7.3008s7.2969 3.2734 7.2969 7.3008c0 54.441-19.758 96.355-52.852 112.1-3.043 1.4492-4.7578 4.7344-4.207 8.0625l2.2227 13.445c-16.02-5.9102-33.32-9.1406-51.367-9.1406-18.043 0-35.348 3.2344-51.359 9.1406l2.2227-13.441c0.54688-3.3281-1.1719-6.6211-4.2109-8.0664zm-42.656 88.535c0 8.4883-6.9062 15.395-15.402 15.395h-9.4297c4.832-10.148 10.902-19.594 18.016-28.137 4.1562 2.8242 6.8164 7.5742 6.8164 12.742zm-30.895 30.512h15.492c16.828 0 30.516-13.688 30.516-30.512 0-9.4219-4.5-18.098-11.598-23.789 24.035-23.055 56.617-37.266 92.48-37.266 23.859 0 46.27 6.3086 65.684 17.305h-12.531c-17.738 0-32.184 14.305-32.449 31.98-6.6562-1.5664-13.559-2.4805-20.688-2.4805-49.898 0-90.496 40.598-90.496 90.496 0 10.992 2.0664 21.488 5.6797 31.246-6.0625-7.4609-15.281-12.258-25.625-12.258h-21.387c-1.25-7.332-1.9336-14.848-1.9336-22.523 0-14.746 2.4258-28.926 6.8555-42.199zm51.379 95.457h-1.9648c-0.10156-1.4297-0.31641-2.832-0.59375-4.207 0.83203 1.4219 1.6562 2.8398 2.5586 4.207zm-52.809-15.629h17.895c9.8789 0 17.922 8.0352 17.922 17.914 0 1.1992-0.13281 2.4492-0.40234 3.7266-0.46484 2.2266 0.10156 4.543 1.5352 6.3125 1.4375 1.7617 3.5938 2.793 5.8633 2.793h22.539c8.1562 7.9258 17.781 14.344 28.445 18.766-1.6133 6.6484-7.5781 11.617-14.711 11.617h-40.863c-17.844-16.293-31.242-37.355-38.223-61.129zm128.32 96.133c-25.684 0-49.688-7.2891-70.078-19.891h20.836c13.891 0 25.59-9.4062 29.156-22.172 6.4727 1.4766 13.184 2.3281 20.098 2.3281 22.98 0 43.922-8.6797 59.898-22.844 1.9062 0.38672 3.7969 0.62891 5.6914 0.62891h24.078c17.051 0 30.918-13.688 30.918-30.512 0-7.2617-2.7344-14.242-7.4805-19.699 4.7461-5.4609 7.4805-12.504 7.4805-19.879 0-2.8516-0.39844-5.6523-1.1641-8.3398h14.172c0.10547 2.1914 0.16797 4.3945 0.16797 6.6055-0.007812 73.766-60.016 133.77-133.77 133.77z"/>
  <path d="m412.2 476.6-17.055-5.6289c-2.625-0.83984-13.266-4.6289-12.137-15.156 0.42969-4.0156 1.6055-7.1094 4.8164-9.2148 2.625-1.6836 5.8633-2.5234 9.7383-2.5234 6.5664 0 11.023 1.1016 13.949 4.8867 1.5977 2.1914 2.1211 3.793 2.5586 7.582 0 0 0.51953 6.2383 7.9922 6.2383 7.4766 0 8.6211-5.9414 8.7695-7.0117 0.66406-4.8516-1.9766-12.973-5.6523-17.789-4.2383-5.5625-10.254-8.9219-17.547-10.363v-7.7422c0-4.1758-3.3867-7.5586-7.5586-7.5586-4.1719 0-7.5586 3.3789-7.5586 7.5586v7.3438c-8.7305 1.1289-15.391 4.6602-19.891 10.672-3.9336 5.3008-10.508 15.508-3.7695 33.16 5.8047 15.23 33.512 20.094 33.512 20.094 5.1758 1.2578 15.07 3.25 15.09 15.18 0.011719 4.625-2.8477 13.598-17.609 13.598-6.8516 0-16.637-3.0312-16.637-15.488 0 0 0.11719-6.5039-8-6.5039-8.1016 0-8.7305 6.5039-8.7305 6.5039 0 8.2461 1.1797 14.047 5.4922 19.688 6.4531 8.5352 14.379 11.516 20.539 12.551v6.9062c0 4.1758 3.3867 7.5586 7.5586 7.5586s7.5586-3.3789 7.5586-7.5586v-6.9688c19.316-3.3594 26.562-21.242 26.562-32.566 0-8.2383-3-20.906-21.992-27.445z"/>
 </g>
</svg>