<?xml version="1.0" encoding="UTF-8"?>
<!-- The Best Svg Icon site in the world: iconSvg.co, Visit us! https://iconsvg.co -->
<svg fill="#000000" width="800px" height="800px" version="1.1" viewBox="144 144 512 512" xmlns="http://www.w3.org/2000/svg">
 <g>
  <path d="m507.23 292.64c8.9531 23.797 14.246 51.305 15.316 79.551 0.050781 1.3594 1.168 2.4297 2.5234 2.4219h0.019531l50.266-0.61328c0.69141-0.011719 1.3438-0.29688 1.8125-0.80078 0.46875-0.50781 0.71094-1.1797 0.66406-1.8672-2.1172-35.23-15.574-68.066-38.914-94.953-0.80469-0.93359-2.168-1.1445-3.2188-0.49219-8.1953 5.0312-17.301 9.582-27.055 13.527-1.2695 0.51562-1.8984 1.9531-1.4141 3.2266z"/>
  <path d="m410.47 306.82c-24.801-0.29297-48.5-3.7695-70.434-10.332-1.3008-0.39453-2.6484 0.30859-3.0977 1.5703-8.125 22.93-12.645 49.348-13.07 76.402-0.011719 0.67969 0.25 1.3359 0.73437 1.8203 0.48047 0.48047 1.125 0.74219 1.793 0.74219h0.019531l84.254-1.0234c1.3789-0.015625 2.4922-1.1445 2.4883-2.5234l-0.20703-64.141c0.007812-1.3828-1.1016-2.5-2.4805-2.5156z"/>
  <path d="m325.9 291.72c-9.8984-3.7383-19.219-8.1523-27.703-13.109-1.0742-0.62891-2.4297-0.38281-3.2148 0.57031-22.68 27.422-35.332 60.629-36.582 96.035-0.023438 0.68359 0.23047 1.3555 0.71484 1.8477 0.48047 0.48828 1.1289 0.76172 1.8086 0.76172h0.019531l50.352-0.61328c1.3672-0.015626 2.4688-1.1172 2.4883-2.4844 0.40625-28.172 5.1094-55.773 13.594-79.809 0.46875-1.293-0.19531-2.7148-1.4766-3.1992z"/>
  <path d="m409.84 221.57c-22.688 2.9961-43.109 18.953-59.066 46.141-2.6641 4.543-5.2539 9.6562-8.1484 16.102-0.29688 0.66016-0.29688 1.4258 0.011719 2.0859 0.30859 0.66406 0.88281 1.1602 1.582 1.3672 20.535 5.9844 43.402 9.2969 66.141 9.5664h0.035157c0.66406 0 1.293-0.26172 1.7695-0.73047 0.48047-0.48047 0.74609-1.125 0.74219-1.7969l-0.22266-70.242c0-0.72656-0.3125-1.4102-0.86328-1.8906-0.53906-0.47656-1.2656-0.69141-1.9805-0.60156z"/>
  <path d="m306.06 271.63c7.2344 4.0117 15.168 7.6484 23.598 10.801 0.29297 0.10547 0.59375 0.16016 0.89062 0.15625 0.96875 0 1.8906-0.57031 2.2969-1.5078 3.2539-7.4102 6.1914-13.273 9.2383-18.477 5.8477-9.9688 12.445-18.738 19.609-26.07 0.83594-0.85156 0.95313-2.1719 0.29297-3.1602-0.66016-0.98828-1.9258-1.3711-3.0312-0.94141-20.07 8.0391-38.051 19.879-53.449 35.199-0.55859 0.55859-0.82812 1.3516-0.71875 2.1328 0.11719 0.80078 0.58203 1.4844 1.2734 1.8672z"/>
  <path d="m577.31 384.84c-0.48047-0.49219-1.0078-0.74219-1.832-0.76172l-50.371 0.61328c-1.3672 0.015625-2.4688 1.1172-2.4883 2.4844-0.39453 27.438-4.8711 54.41-12.957 77.996-0.4375 1.2852 0.21484 2.6836 1.4844 3.1758 10.156 3.8711 19.652 8.4219 28.238 13.543 0.40234 0.24219 0.85156 0.35156 1.293 0.35156 0.73438 0 1.4648-0.32422 1.9531-0.9375 21.914-27.137 34.152-59.848 35.387-94.609 0.035156-0.69141-0.22266-1.3633-0.70703-1.8555z"/>
  <path d="m501.48 278.88c0.42188 0.91797 1.3398 1.4609 2.293 1.4609 0.3125 0 0.62891-0.058594 0.93359-0.17969 8.0703-3.2539 15.754-7.0195 22.852-11.168 0.68359-0.40234 1.1367-1.0977 1.2305-1.8828 0.089844-0.78516-0.19531-1.5703-0.76953-2.1172-15.602-14.785-33.625-26.113-53.566-33.664-1.1289-0.42969-2.3789-0.011719-3.0195 1.0039-0.64063 1.0078-0.48828 2.3242 0.36328 3.1523 11.57 11.297 21.551 25.898 29.684 43.395z"/>
  <path d="m511.81 385.61c-0.48047-0.48438-1.1133-0.64453-1.8125-0.74219l-84.223 1.0234c-1.3789 0.015625-2.4922 1.1445-2.4883 2.5234l0.19531 62.098c0.003906 1.3711 1.1094 2.4883 2.4844 2.5156 25.215 0.32812 49.121 3.8594 71.062 10.484 0.24219 0.074219 0.49219 0.10938 0.73438 0.10938 1.0469-0.003906 2.0156-0.66016 2.3711-1.7031 7.8203-22.766 11.992-47.832 12.41-74.488 0.011719-0.67969-0.25-1.3359-0.73438-1.8203z"/>
  <path d="m425.51 296.61h0.10547c22.582-0.98828 44.266-4.7461 64.449-11.176 0.69531-0.22266 1.2539-0.73047 1.5469-1.3945 0.29297-0.66406 0.27734-1.4258-0.03125-2.0859-16.27-34.301-40.293-56.25-65.91-60.215-0.73047-0.12109-1.4648 0.097656-2.0234 0.57422-0.55859 0.48438-0.875 1.1797-0.875 1.918l0.21484 69.867c0 0.68359 0.28906 1.3438 0.78125 1.8125 0.47266 0.44922 1.0977 0.69922 1.7422 0.69922z"/>
  <path d="m425.76 375.82h0.019531l84.191-1.0234c0.67969-0.011719 1.3281-0.29297 1.793-0.78516 0.46875-0.49219 0.71875-1.1523 0.69141-1.832-1.0742-26.914-6.2227-53.227-14.887-76.105-0.48047-1.2578-1.8594-1.918-3.1406-1.5-21.32 6.9336-45.18 11.129-68.996 12.121-1.3555 0.054688-2.418 1.168-2.4141 2.5234l0.20312 64.094c0 0.67188 0.27344 1.3164 0.75 1.7852 0.48438 0.46094 1.125 0.72266 1.7891 0.72266z"/>
  <path d="m603.49 380.39c-0.32422-102.15-83.695-185.01-185.86-184.69-102.16 0.32422-185.01 83.699-184.69 185.86 0.003907 1.9414 0.089844 3.8594 0.16016 5.7773l-13.824-13.734c-7.582-7.5352-20.766-7.5-28.312 0.089844-3.7734 3.793-5.8398 8.832-5.8203 14.176 0.015624 5.3516 2.1172 10.367 5.9102 14.137l21.562 21.426 0.46875 148.77 203.77-0.64062c2.1914 2.6484 5.125 4.6797 8.5664 5.7344l41.43 12.664c1.7148 0.52344 3.5 0.78906 5.3047 0.78516h0.085938c9.8945-0.03125 17.914-8.1055 17.887-18 0-0.62891-0.03125-1.2656-0.10156-1.8828l-0.20312-19.027c66.898-28.148 113.91-94.449 113.66-171.44zm-131.29 195.24h-0.085937c-0.28906 0-0.55859-0.035156-0.83594-0.12109l-41.43-12.664c-1.0273-0.3125-1.7852-1.168-1.9648-2.2227-0.17969-1.0547 0.23047-2.1055 1.0977-2.75l9.543-7.1445c1.8398-1.375 2.9492-3.5117 3.0234-5.8008 0.074219-2.293-0.89844-4.4922-2.6367-5.9844l-62.457-53.531c-1.4023-1.1992-3.1641-1.8242-4.9414-1.8203-1.0078 0.003906-2.0234 0.21094-2.9883 0.62891l-47.934 20.836c-1.832 0.78906-4.0039 0.37109-5.4219-1.0234l-113.45-112.75c-0.93359-0.92578-1.4453-2.1562-1.4453-3.4648-0.003906-1.3086 0.50391-2.5391 1.4258-3.4727 1.8438-1.8633 5.0742-1.8789 6.9375-0.023438l107.46 106.78c2.1953 2.1875 5.5 2.8047 8.3398 1.5703l47.332-20.57c1.7031-0.73437 3.7539-0.42187 5.1523 0.76953l72.617 62.23c2.6836 2.3086 6.6094 2.4336 9.4453 0.3125l10.969-8.207c1.2578-0.94141 2.1562-0.66016 2.9492-0.26562 0.96094 0.47266 1.5664 1.4375 1.5781 2.5l0.44922 42.008c0.003907 0.36328 0.035157 0.97656 0.097657 1.3359-0.003907 1.5625-1.2734 2.8359-2.8281 2.8398zm17.457-40.395-0.066406-5.9648c-0.019532-1.7031-0.27734-3.3672-0.74609-4.9414 16.137-7.9414 30.723-18.453 43.453-31.418 0.54297-0.5625 0.80469-1.3398 0.69531-2.1172-0.10938-0.77734-0.57422-1.457-1.2539-1.8438-7.3047-4.1367-15.445-7.9141-24.207-11.234-1.2578-0.46875-2.6758 0.125-3.2031 1.3672-3.3672 7.875-6.6367 14.484-9.9922 20.203-3.4805 5.9336-7.2539 11.395-11.234 16.414-1.0664-0.88672-2.2266-1.6758-3.5078-2.3125-1.9336-0.95703-4.0508-1.4922-6.1953-1.6836 4.3438-5.2148 8.4492-11.043 12.254-17.523 2.9727-5.0625 5.8125-10.762 8.9336-17.926 0.29297-0.66016 0.28125-1.4141-0.023437-2.0703-0.30859-0.65625-0.875-1.1445-1.5703-1.3516-20.711-6.1172-43.848-9.5156-66.895-9.8359-0.67969-0.097657-1.3281 0.24609-1.8086 0.72656-0.48047 0.47266-0.74609 1.125-0.74609 1.8047l0.089844 27.469-10.105-8.6562-0.054688-18.621c0-0.69141-0.28906-1.3438-0.78125-1.8203-0.49219-0.47266-1.1875-0.74609-1.8477-0.69531-6.7344 0.29688-13.352 0.95703-19.906 1.7734l-4.1758-3.5781c-2.9375-2.5195-6.5742-4.0625-10.352-4.5742 11.348-1.9531 22.973-3.2227 34.598-3.707 1.3555-0.054687 2.418-1.168 2.4141-2.5195l-0.19531-62.008c0-0.67188-0.27344-1.3164-0.75-1.7852-0.48438-0.47266-1.0234-0.80469-1.7969-0.72656l-84.242 1.0273c-0.67969 0.011719-1.3281 0.29297-1.793 0.78516-0.47266 0.49219-0.71875 1.1523-0.69141 1.832 1.0469 26.191 5.9492 51.863 14.172 74.238 0.37891 1.0195 1.3398 1.6484 2.3711 1.6484 0.25781 0 0.52344-0.039063 0.78125-0.12109 6.8555-2.2578 13.992-4.1914 21.285-5.8594l-39.453 17.145-3.0625-3.043c2.3164-1.0586 4.6797-2.082 7.082-3.0586 1.2539-0.50391 1.8789-1.9258 1.4141-3.1953-8.6797-23.703-13.613-49.863-14.672-77.762-0.050782-1.3594-1.168-2.4297-2.5234-2.4219h-0.019531l-50.238 0.61328c-0.69141 0.003906-1.3438 0.29688-1.8125 0.80078s-0.71094 1.1797-0.67188 1.8672c0.52734 8.8164 1.8906 17.457 3.8438 25.926l-12.793-12.711c-0.98828-7.2969-1.5703-14.715-1.5938-22.27-0.29688-93.824 75.797-170.4 169.62-170.69 93.824-0.29688 170.4 75.797 170.69 169.62 0.21875 68.477-40.344 127.64-98.719 154.79z"/>
 </g>
</svg>