<?xml version="1.0" encoding="UTF-8"?>
<!-- The Best Svg Icon site in the world: iconSvg.co, Visit us! https://iconsvg.co -->
<svg fill="#000000" width="800px" height="800px" version="1.1" viewBox="144 144 512 512" xmlns="http://www.w3.org/2000/svg">
 <path d="m400 630.91c127.34 0 230.91-103.59 230.91-230.91 0-127.32-103.57-230.9-230.89-230.91-0.015626 0.003907-0.015626 0.003907-0.023438 0.003907-127.33 0-230.91 103.59-230.91 230.91 0 127.32 103.59 230.91 230.91 230.91zm-203.67-146.84h112.13c13.078 47.422 37.406 92.438 73.285 130.76 1.5742 1.6914 3.2852 3.2539 4.9141 4.9141-85.984-5.1953-158.83-59.656-190.33-135.67zm120.28-157.65h167.02c6.707 26.984 9.7812 55.051 8.8359 83.602-0.71484 21.707-3.7578 42.961-8.8594 63.555l-167.04-0.003906c-11.996-48.344-11.926-98.957 0.042969-147.15zm93.98-134.09c33.41 35.676 57.141 77.922 70.23 123.58l-161.42-0.003907c14.191-49.562 41.062-96.121 80.602-134.34 3.6211 3.4961 7.1445 7.0859 10.59 10.762zm70.25 291.73c-14.496 50.695-42.035 96.867-80.84 134.36-3.6211-3.5039-7.1602-7.0938-10.59-10.758-33.965-36.297-57.215-78.785-70.039-123.57h161.47zm-67.324 135.67c37.574-38.352 64.203-84.852 78.207-135.65h111.94c-31.477 75.941-104.25 130.41-190.15 135.65zm193.96-146.06c-0.15625-0.019532-0.27344-0.082032-0.42969-0.082032h-112.6c4.8906-20.52 7.7891-41.668 8.5-63.207 0.94531-28.645-2.0156-56.805-8.5234-83.945h112.61c0.15625 0 0.27344-0.074218 0.42969-0.082031 8.2188 23.07 12.93 47.801 12.93 73.672 0.003906 25.867-4.6758 50.555-12.918 73.645zm-3.8086-157.75h-111.9c-13.34-48.355-38.27-93.09-73.523-130.76-1.5625-1.6914-3.2852-3.2539-4.9141-4.9023 86.004 5.1836 158.84 59.648 190.34 135.66zm-217.16-135.66c-38.27 39.098-64.352 85.953-78.07 135.65l-112.1-0.003907c31.48-75.961 104.25-130.4 190.17-135.65zm-193.99 146.06c0.15625 0.011719 0.28516 0.082031 0.44141 0.082031h112.82c-11.547 48.25-11.586 98.758-0.011719 147.16h-112.81c-0.15625 0-0.28516 0.082031-0.44141 0.082031-8.2188-23.066-12.93-47.797-12.93-73.668 0-25.871 4.7109-50.582 12.93-73.66z"/>
</svg>