<?xml version="1.0" encoding="UTF-8"?>
<!-- The Best Svg Icon site in the world: iconSvg.co, Visit us! https://iconsvg.co -->
<svg fill="#000000" width="800px" height="800px" version="1.1" viewBox="144 144 512 512" xmlns="http://www.w3.org/2000/svg">
 <g>
  <path d="m618.96 378.29c-4.5117-11.258-12.949-20.5-23.754-26.02 23.715-39.496 17.949-66.488 8.668-82.359-12.82-21.934-38.559-32.363-57.383-31.293-13.875 0.77734-25.418 6.3281-31.488 9.918-8.5703-23.863-22.945-40.344-41.82-47.723-23.074-9.0625-47.449-3.0586-62.555 5.5781-8.7148 5.0312-16.293 11.809-22.258 19.906-23.793-23.387-48.156-34.91-72.766-34.242-30.348 0.81641-51.117 19.758-60.801 30.984v0.003906c-10.684 12.535-17.633 27.82-20.055 44.109-31.844 5.5195-46.199 21.57-52.652 34.262-12.172 23.961-6.1094 52.211 3.6211 70.652 7.5195 14.27 16.668 22.199 21.895 25.879-22.277 30.18-20.094 52.32-14.109 65.762 9.2305 20.734 32.156 31.273 50.785 32.473 18.098 1.1992 29.41-4.5742 35.523-9.3477 6.2891 23.379 19.098 34.125 29.215 39.055h-0.003907c7.3672 3.5312 15.445 5.3281 23.613 5.2539 10.09-0.019531 20.035-2.3789 29.059-6.8867 3.8125-1.918 7.3984-4.2617 10.688-6.9844 4.5938 23.293 6.6719 50.805 3.7188 82.461l-118.19-0.003906c-1.125-0.054688-2.2227 0.35547-3.0391 1.1289-0.81641 0.77734-1.2773 1.8555-1.2773 2.9805s0.46094 2.2031 1.2773 2.9766c0.81641 0.77734 1.9141 1.1875 3.0391 1.1328h309.44c1.125 0.054687 2.2227-0.35547 3.0391-1.1328 0.8125-0.77344 1.2773-1.8516 1.2773-2.9766s-0.46484-2.2031-1.2773-2.9805c-0.81641-0.77344-1.9141-1.1836-3.0391-1.1289h-111.98c-5.8555-27.352-8.2812-55.324-7.2227-83.273 19.012 11.324 37.234 15.074 54.258 11.121 17.25-3.9961 32.926-16.414 43.031-34.055 6.5625-11.465 7.8125-26.176 7.9297-34.363 29.953 9.957 47.105 1.3281 56.355-8.0586 17.891-18.148 18.105-51.102 9.2383-72.809zm-337.23 95.133c-4.0195 0-7.875-1.5977-10.719-4.4414-2.8398-2.8398-4.4375-6.6953-4.4375-10.715 0.003906-4.0195 1.6016-7.875 4.4414-10.719 2.8438-2.8398 6.6992-4.4336 10.719-4.4336 4.0195 0.003906 7.875 1.6016 10.715 4.4453s4.4375 6.6992 4.4336 10.719c-0.003906 4.0156-1.6055 7.8672-4.4453 10.707-2.8398 2.8398-6.6914 4.4336-10.707 4.4375zm102.67 126.32c9.1328-100.11-29.648-158.96-43.906-176.89 11.875-1.3008 36.406-2.0273 55.988 10.352h0.003906c1.207 0.76953 2.7266 0.85156 4.0117 0.22266 1.2812-0.63281 2.1445-1.8867 2.2734-3.3125l4.3789-47.832 19.68 30.141h0.003907c0.82422 1.2695 2.2812 1.9844 3.7891 1.8516 1.5117-0.12891 2.8242-1.0781 3.4219-2.4727 0.44141-0.98438 10.234-22.879 31.566-22.918-5.9023 14.977-21.941 60.516-25.238 119.17v0.003906c-0.15625 0.5625-0.1875 1.1523-0.097656 1.7305-1.6875 30.148 0.5625 60.391 6.6914 89.957zm219.43-154.4c-11.59 11.758-29.992 13.176-53.227 4.0938h0.003906c-1.3125-0.50781-2.7969-0.3125-3.9297 0.52344s-1.7578 2.1953-1.6602 3.5977c0 0.21484 1.418 21.648-6.75 35.887-8.9727 15.664-22.73 26.648-37.746 30.141-15.969 3.6992-33.457-0.51172-51.965-12.527 4.1445-69.203 26.32-119.36 26.637-120.05 0.52344-1.1602 0.48047-2.4961-0.11719-3.6211-0.59766-1.125-1.6797-1.9102-2.9336-2.125-20.781-3.5508-35.207 9.7812-42.312 20.891l-22.316-34.242c-0.95703-1.4648-2.7344-2.1641-4.4297-1.7461s-2.9414 1.8633-3.1094 3.6055l-4.9219 53.266c-28.535-14.516-61.992-7.4766-63.496-7.1445v-0.003906c-1.4609 0.32031-2.6328 1.4023-3.0664 2.8359-0.42969 1.4297-0.050781 2.9805 0.99219 4.0547 0.40234 0.41406 27.465 29.215 40.738 85.02-1.4258 1.7812-4.9219 5.3711-12.367 9.1992-10.875 5.6172-29.285 9.3984-45.332 1.5664-12.887-6.3984-21.535-18.996-25.676-37.504 7.4219-1.6758 13.562-6.8594 16.461-13.898 2.8945-7.0391 2.1797-15.043-1.9141-21.461-4.0977-6.4141-11.059-10.43-18.66-10.766-7.6055-0.33594-14.895 3.0547-19.535 9.082-4.6445 6.0312-6.0625 13.941-3.7969 21.207s7.9258 12.973 15.172 15.297c-4.8594 3.7305-14.25 8.5117-29.758 7.4688-16.168-1.082-35.984-10.047-43.828-27.66-7.5977-17.074-2.1172-38.148 15.832-60.961h0.003906c0.76172-0.97266 1.043-2.2344 0.77734-3.4375-0.26953-1.2031-1.0625-2.2266-2.1641-2.7812-0.12891-0.070312-12.793-6.6016-22.477-24.945-8.3633-15.871-14.316-41.91-3.5508-63.094 8.4141-16.562 25.121-26.773 49.664-30.367 1.9219-0.28906 3.3789-1.8867 3.4922-3.8281 1.8047-15.68 8.2188-30.473 18.43-42.508 8.7969-10.203 27.621-27.414 54.801-28.141 23.32-0.66797 47.027 11.258 70.18 35.355l-0.003906-0.003906c0.91016 0.9375 2.207 1.3906 3.5 1.2227 1.293-0.16797 2.4297-0.9375 3.0664-2.0781 5.5117-8.793 13.105-16.09 22.109-21.254 12.793-7.3516 35.059-13.066 55.469-5.0586 18.035 7.0859 31.055 23.113 38.68 47.617 0.40234 1.2695 1.3945 2.2656 2.6602 2.6758 1.2695 0.41016 2.6562 0.18359 3.7266-0.60938 0.13672-0.10938 14.012-10.332 31.742-11.324 16.297-0.875 38.672 8.1562 49.828 27.246 8.4414 14.426 13.371 39.656-11.051 77.895h0.003907c-0.68359 1.0781-0.82812 2.4141-0.39062 3.6172 0.44141 1.2031 1.4141 2.1289 2.6328 2.5117 0.64844 0.20703 16 5.2539 23.371 23.301 7.9102 19.316 7.9727 48.297-7.4492 63.949z"/>
  <path d="m530.64 285.16c-11.812-0.007812-23.145 4.6797-31.504 13.027s-13.055 19.676-13.062 31.492c-0.003906 11.812 4.6836 23.145 13.035 31.5 8.3516 8.3555 19.68 13.051 31.492 13.055 11.812 0 23.145-4.6875 31.496-13.043 8.3555-8.3516 13.051-19.68 13.051-31.492-0.015625-11.805-4.7109-23.117-13.051-31.465-8.3438-8.3477-19.656-13.051-31.457-13.074zm0 80.855c-9.6328 0-18.871-3.8242-25.684-10.637-6.8086-6.8125-10.637-16.051-10.637-25.68 0-9.6328 3.8281-18.871 10.637-25.684 6.8125-6.8125 16.051-10.637 25.684-10.637 9.6328 0 18.871 3.8242 25.684 10.637 6.8086 6.8125 10.637 16.051 10.637 25.684-0.023438 9.625-3.8594 18.848-10.664 25.652-6.8047 6.8086-16.031 10.641-25.656 10.664z"/>
  <path d="m432.37 229.01c-7.8477 0.003907-15.375 3.1289-20.922 8.6836-5.5469 5.5547-8.6602 13.082-8.6562 20.934 0.003906 7.8477 3.125 15.375 8.6797 20.922 5.5547 5.5469 13.082 8.6641 20.934 8.6602 7.8477-0.003906 15.375-3.125 20.922-8.6797 5.5508-5.5508 8.6641-13.082 8.6641-20.93-0.007813-7.8516-3.1328-15.375-8.6875-20.926-5.5547-5.5469-13.082-8.6641-20.934-8.6641zm0 50.973c-5.6719 0-11.109-2.25-15.121-6.2578-4.0117-4.0078-6.2695-9.4492-6.2695-15.117-0.003907-5.6719 2.25-11.113 6.2578-15.125 4.0117-4.0117 9.4492-6.2656 15.121-6.2656s11.109 2.25 15.121 6.2617c4.0117 4.0117 6.2656 9.4492 6.2656 15.121-0.015625 5.6641-2.2695 11.09-6.2773 15.09-4.0039 4.0039-9.4336 6.2539-15.098 6.2617z"/>
  <path d="m506.06 429.59c-7.6055 0.015624-14.895 3.0469-20.266 8.4336-5.375 5.3867-8.3867 12.688-8.3789 20.293 0.011719 7.6094 3.0391 14.902 8.4219 20.273 5.3867 5.375 12.684 8.3945 20.289 8.3867 7.6094-0.003906 14.902-3.0273 20.281-8.4062 5.375-5.3828 8.3984-12.68 8.3984-20.285-0.007813-7.6172-3.043-14.918-8.4336-20.297-5.3867-5.3828-12.695-8.4023-20.312-8.3984zm0 49.199v0.003906c-5.4297 0-10.637-2.1602-14.48-6-3.8398-3.8398-5.9961-9.0508-5.9961-14.48 0.003906-5.4336 2.1602-10.641 6.0039-14.48 3.8398-3.8398 9.0508-5.9961 14.48-5.9961 5.4336 0.003907 10.641 2.1641 14.48 6.0039 3.8359 3.8438 5.9922 9.0547 5.9922 14.484-0.023438 5.418-2.1914 10.602-6.0312 14.426-3.8359 3.8242-9.0312 5.9688-14.449 5.9727z"/>
  <path d="m319.7 254.49c-19.984 0.007812-39.148 7.957-53.273 22.09-14.125 14.137-22.059 33.305-22.055 53.289 0.007812 19.984 7.9531 39.148 22.086 53.277 14.137 14.125 33.301 22.059 53.285 22.055s39.148-7.9453 53.277-22.078c14.129-14.137 22.066-33.301 22.062-53.285-0.023437-19.984-7.9727-39.141-22.109-53.266-14.133-14.125-33.293-22.066-53.273-22.082zm0 142.48c-17.809 0.003907-34.887-7.0664-47.48-19.656-12.594-12.59-19.668-29.668-19.668-47.477-0.003906-17.805 7.0703-34.883 19.66-47.477 12.59-12.59 29.668-19.664 47.473-19.668 17.809 0 34.887 7.0742 47.477 19.664 12.594 12.59 19.668 29.668 19.668 47.477-0.023438 17.797-7.1016 34.859-19.684 47.445-12.586 12.586-29.648 19.668-47.445 19.691z"/>
  <path d="m319.7 320.44c-4.2109 0-8.2461-1.6719-11.223-4.6445-2.9766-2.9766-4.6484-7.0117-4.6523-11.219 0-4.2109 1.668-8.2461 4.6445-11.223 2.9727-2.9805 7.0078-4.6523 11.215-4.6562 4.2109-0.003907 8.2461 1.6641 11.227 4.6367 2.9766 2.9727 4.6562 7.0078 4.6602 11.215-0.054687 1.125 0.35156 2.2227 1.1289 3.0352 0.77734 0.81641 1.8516 1.2773 2.9805 1.2773 1.125 0 2.1992-0.46094 2.9766-1.2773 0.77734-0.8125 1.1836-1.9102 1.1289-3.0352-0.007812-5.6758-2.0156-11.164-5.6719-15.508-3.6523-4.3398-8.7227-7.2539-14.312-8.2266v-7.1719c0.054687-1.125-0.35156-2.2227-1.1289-3.0391-0.77734-0.81641-1.8516-1.2773-2.9805-1.2773-1.125 0-2.1992 0.46094-2.9766 1.2773-0.77734 0.81641-1.1836 1.9141-1.1289 3.0391v7.1719c-7.9961 1.3867-14.758 6.707-17.984 14.152-3.2305 7.4414-2.4922 16.012 1.9609 22.797s12.02 10.871 20.137 10.871c5.6133 0 10.996 2.2305 14.965 6.1992s6.1992 9.3516 6.1992 14.965-2.2266 10.996-6.1953 14.969c-3.9688 3.9688-9.3516 6.1992-14.965 6.1992-5.6133 0.003906-10.996-2.2227-14.965-6.1914-3.9727-3.9688-6.2031-9.3516-6.207-14.965 0.054687-1.1211-0.35156-2.2188-1.1289-3.0352-0.77734-0.81641-1.8516-1.2773-2.9805-1.2773-1.125 0-2.1992 0.46094-2.9766 1.2773s-1.1836 1.9141-1.1289 3.0352c0.007812 7.0781 2.5703 13.914 7.2109 19.258 4.6406 5.3438 11.051 8.832 18.059 9.832v7.1133c0.10547 2.1914 1.9141 3.9141 4.1055 3.9141 2.1953 0 4.0039-1.7227 4.1094-3.9141v-7.1133c9.8945-1.4141 18.395-7.7617 22.559-16.852 4.1641-9.0859 3.4219-19.668-1.9727-28.086-5.3906-8.418-14.691-13.516-24.688-13.531z"/>
 </g>
</svg>