<?xml version="1.0" encoding="UTF-8"?>
<!-- The Best Svg Icon site in the world: iconSvg.co, Visit us! https://iconsvg.co -->
<svg fill="#000000" width="800px" height="800px" version="1.1" viewBox="144 144 512 512" xmlns="http://www.w3.org/2000/svg">
 <g>
  <path d="m400 431.49c-20.879 0-40.902 8.293-55.664 23.055-14.766 14.762-23.059 34.785-23.059 55.664 0 20.879 8.293 40.902 23.059 55.664 14.762 14.762 34.785 23.055 55.664 23.055 20.875 0 40.898-8.293 55.664-23.055 14.762-14.762 23.055-34.785 23.055-55.664-0.023438-20.871-8.3242-40.879-23.082-55.637-14.758-14.758-34.766-23.062-55.637-23.082zm0 141.7c-16.703 0-32.723-6.6367-44.531-18.445-11.812-11.812-18.445-27.828-18.445-44.531s6.6328-32.723 18.445-44.531c11.809-11.809 27.828-18.445 44.531-18.445 16.699 0 32.719 6.6367 44.531 18.445 11.809 11.809 18.445 27.828 18.445 44.531-0.019531 16.695-6.6602 32.703-18.469 44.512-11.805 11.805-27.812 18.445-44.508 18.465z"/>
  <path d="m392.12 486.59h15.746c2.0859 0 4.0898 0.83203 5.5664 2.3047 1.4766 1.4766 2.3047 3.4805 2.3047 5.5664 0 4.3477 3.5234 7.875 7.8711 7.875 4.3477 0 7.875-3.5273 7.875-7.875 0-6.2617-2.4883-12.27-6.918-16.695-4.4297-4.4297-10.438-6.918-16.699-6.918v-7.8711c0-4.3477-3.5234-7.875-7.8711-7.875s-7.875 3.5273-7.875 7.875v7.8711c-8.4375 0-16.23 4.5-20.449 11.809-4.2188 7.3047-4.2188 16.309 0 23.613 4.2188 7.3086 12.012 11.809 20.449 11.809h15.746c4.3477 0 7.8711 3.5234 7.8711 7.8711 0 4.3477-3.5234 7.875-7.8711 7.875h-15.746c-4.3477 0-7.8711-3.5273-7.8711-7.875 0-4.3477-3.5234-7.8711-7.8711-7.8711-4.3477 0-7.8711 3.5234-7.8711 7.8711 0 6.2656 2.4883 12.273 6.9141 16.699 4.4297 4.4297 10.438 6.918 16.699 6.918v7.8711c0 4.3477 3.5273 7.875 7.875 7.875s7.8711-3.5273 7.8711-7.875v-7.8711c8.4375 0 16.234-4.5 20.453-11.809 4.2188-7.3047 4.2188-16.309 0-23.613-4.2188-7.3086-12.016-11.809-20.453-11.809h-15.746c-4.3477 0-7.8711-3.5273-7.8711-7.875 0-4.3477 3.5234-7.8711 7.8711-7.8711z"/>
  <path d="m457.07 376.07c4.2344-4.793 6.3359-11.102 5.8242-17.477-0.3125-3.3711-1.3906-6.6289-3.1484-9.5234 6.8828-4.2852 11.074-11.809 11.102-19.918-0.015625-4.0664-1.1016-8.0547-3.1484-11.57 5.2031-3.2539 8.9258-8.418 10.367-14.387 1.4414-5.9648 0.48828-12.262-2.6562-17.535-3.1445-5.2695-8.2305-9.1016-14.168-10.664 2.1836-5.3555 2.3047-11.328 0.34375-16.766-1.9648-5.4375-5.8711-9.9531-10.969-12.676l35.109-70.297c1.2266-2.4375 1.1055-5.3359-0.32422-7.6602-1.4258-2.3281-3.957-3.7461-6.6836-3.7578h-31.488c-2.4727 0.019531-4.8008 1.1836-6.2969 3.1523l-17.32 23.062-17.316-23.062c-1.5-1.9688-3.8242-3.1328-6.2969-3.1523h-78.723c-2.7266 0.011718-5.2578 1.4297-6.6836 3.7578-1.4297 2.3242-1.5508 5.2227-0.32031 7.6602l10.629 21.41h-0.003906c-6.9258 2.3711-12.344 7.8477-14.641 14.801l-8.582 25.742v-0.003906c-1.082 3.207-4.0938 5.3633-7.4766 5.3555h-12.281c0-2.0898-0.82812-4.0898-2.3047-5.5664-1.4766-1.4766-3.4805-2.3047-5.5664-2.3047h-23.617c0-2.0898-0.82813-4.0898-2.3047-5.5664-1.4766-1.4766-3.4805-2.3086-5.5664-2.3086h-70.848c-4.3477 0-7.875 3.5273-7.875 7.875v141.7c0 2.0859 0.83203 4.0898 2.3086 5.5664 1.4766 1.4766 3.4766 2.3047 5.5664 2.3047h70.848c2.0859 0 4.0898-0.82812 5.5664-2.3047 1.4766-1.4766 2.3047-3.4805 2.3047-5.5664h23.617c2.0859 0 4.0898-0.82812 5.5664-2.3047 1.4766-1.4766 2.3047-3.4805 2.3047-5.5664l14.719 11.02h0.003906c4.0781 3.0781 9.0547 4.7383 14.168 4.7227h22.828c-37.941 36.289-67.461 96.434-67.461 141.7 0 72.344 67.305 110.21 133.82 110.21s133.82-37.863 133.82-110.21c0-48.332-34.953-115.4-76.754-149.88zm-222.38-7.5547h-55.105v-125.95h55.105zm31.488-7.8711-15.746-0.003906v-110.21h15.742zm129.89-181.06 21.254 28.34c1.5586 1.8711 3.8633 2.9492 6.2969 2.9492 2.4336 0 4.7422-1.0781 6.3008-2.9492l21.254-28.34h14.801l-31.488 62.977h-68.961l-31.488-62.977zm-85.254 188.93c-1.7031 0.007812-3.3633-0.54688-4.7227-1.5742l-24.168-18.105v-90.531h12.281c4.9531 0.019531 9.7852-1.5352 13.801-4.4336 4.0156-2.8984 7.0117-6.9961 8.5547-11.703l8.582-25.742c1.043-3.0547 3.8594-5.1484 7.082-5.2734l21.41 42.824h0.003906c1.3008 2.6758 4.0273 4.3633 7.0039 4.3281h78.723c2.0859 0 4.0898 0.83203 5.5664 2.3086 1.4766 1.4766 2.3047 3.4766 2.3047 5.5664 0.019531 2.125-0.86719 4.1562-2.4414 5.5859-1.4102 1.4922-3.3789 2.3203-5.4297 2.2852h-15.746c-4.3477 0-7.8711 3.5234-7.8711 7.8711 0 4.3477 3.5234 7.8711 7.8711 7.8711h31.488c4.3477 0 7.875 3.5273 7.875 7.875 0 4.3477-3.5273 7.8711-7.875 7.8711h-31.488c-4.3477 0-7.8711 3.5234-7.8711 7.8711s3.5234 7.8711 7.8711 7.8711h23.617c4.3477 0 7.8711 3.5234 7.8711 7.8711 0 4.3477-3.5234 7.875-7.8711 7.875h-23.617c-4.3477 0-7.8711 3.5234-7.8711 7.8711 0 4.3477 3.5234 7.8711 7.8711 7.8711h14.879c4.293-0.12891 8.0234 2.9297 8.7383 7.1641 0.19141 2.3633-0.70703 4.6836-2.4414 6.2969-1.4102 1.4922-3.3789 2.3203-5.4297 2.2852zm89.191 251.9c-58.648 0-118.08-32.434-118.08-94.465 0-45.895 35.344-111.39 76.121-141.7h81.32c0.73828-0.035156 1.4727-0.11328 2.2031-0.23438 41.012 30.148 76.516 95.566 76.516 141.93 0 62.035-59.434 94.465-118.08 94.465z"/>
 </g>
</svg>