<?xml version="1.0" encoding="UTF-8"?>
<!-- The Best Svg Icon site in the world: iconSvg.co, Visit us! https://iconsvg.co -->
<svg width="800px" height="800px" version="1.1" viewBox="144 144 512 512" xmlns="http://www.w3.org/2000/svg">
 <defs>
  <clipPath id="a">
   <path d="m148.09 174h503.81v477.9h-503.81z"/>
  </clipPath>
 </defs>
 <g clip-path="url(#a)">
  <path d="m416.7 584.71-8.832 8.832v-43.973c0-4.3477-3.5234-7.8711-7.8711-7.8711s-7.875 3.5234-7.875 7.8711v43.973l-8.832-8.832c-3.0859-2.9844-7.9961-2.9414-11.035 0.097657-3.0352 3.0352-3.0781 7.9453-0.09375 11.035l22.246 22.246c1.4766 1.4805 3.4805 2.3125 5.5742 2.3125 2.0898 0 4.0938-0.83203 5.5703-2.3125l22.246-22.246c2.9844-3.0898 2.9414-8-0.09375-11.035-3.0352-3.0391-7.9453-3.082-11.035-0.097657zm219.19-266.36-214.7-137.2c-6.332-4.0273-13.68-6.168-21.184-6.168-7.5039 0-14.855 2.1406-21.184 6.168l-104.78 66.992v-29.207c0-6.2617-2.4883-12.27-6.918-16.699-4.4297-4.4297-10.434-6.918-16.699-6.918h-31.488c-6.2617 0-12.27 2.4883-16.699 6.918-4.4297 4.4297-6.918 10.438-6.918 16.699v79.477l-31.219 19.934c-10.359 6.582-16.457 18.152-16.039 30.418 0.42188 12.266 7.3008 23.395 18.086 29.25 8.9766 4.918 19.695 5.5312 29.172 1.668v232.86c0 10.438 4.1484 20.449 11.531 27.832 7.3789 7.3828 17.391 11.527 27.832 11.527h330.62c10.438 0 20.449-4.1445 27.832-11.527 7.3789-7.3828 11.527-17.395 11.527-27.832v-232.92c3.9609 1.6914 8.207 2.6172 12.516 2.7227 5.832-0.007812 11.566-1.4922 16.672-4.3125 10.785-5.8555 17.664-16.984 18.086-29.25 0.42188-12.266-5.6797-23.836-16.039-30.418zm-424.82-99.41c0-4.3477 3.5234-7.8711 7.8711-7.8711h31.488c2.0898 0 4.0898 0.82813 5.5664 2.3047 1.4766 1.4766 2.3047 3.4805 2.3047 5.5664v39.25l-47.23 30.168zm377.86 393.6c0 6.2617-2.4883 12.27-6.9141 16.699-4.4297 4.4297-10.438 6.918-16.699 6.918h-330.62c-6.2656 0-12.273-2.4883-16.699-6.918-4.4297-4.4297-6.918-10.438-6.918-16.699v-241.89l184.68-118.55v-0.003906c2.5898-1.6523 5.9023-1.6523 8.4883 0l184.69 118.55zm37.375-248.33h0.003907c-2.9766 1.6602-6.3516 2.4727-9.7539 2.3555-3.4062-0.12109-6.7109-1.168-9.5664-3.0312l-194.22-124.68c-3.8086-2.4336-8.2383-3.7266-12.758-3.7266-4.5234 0-8.9492 1.293-12.762 3.7266l-194.23 124.68c-3.832 2.4844-8.4297 3.4961-12.949 2.8516s-8.6523-2.9023-11.637-6.3594c-2.9805-3.457-4.6133-7.875-4.5898-12.441-0.007813-6.4688 3.2969-12.492 8.7539-15.965l214.7-137.11c3.793-2.418 8.1992-3.7031 12.699-3.7031 4.4961 0 8.9023 1.2852 12.695 3.7031l214.72 137.11c5.6719 3.5859 9.0156 9.9062 8.7891 16.613-0.22656 6.7031-3.9922 12.785-9.8906 15.977zm-218.43 134.79h-15.746c-4.1758 0-8.1797-1.6562-11.133-4.6094-2.9492-2.9531-4.6094-6.957-4.6094-11.133 0-4.3477-3.5234-7.8711-7.8711-7.8711-4.3477 0-7.875 3.5234-7.875 7.8711 0 8.3516 3.3203 16.359 9.2227 22.266 5.9062 5.9023 13.914 9.2227 22.266 9.2227v7.8711c0 4.3477 3.5273 7.8711 7.875 7.8711s7.8711-3.5234 7.8711-7.8711v-7.8711c11.25 0 21.645-6.0039 27.27-15.746 5.625-9.7422 5.625-21.746 0-31.488-5.625-9.7422-16.02-15.742-27.27-15.742h-15.746c-5.625 0-10.82-3-13.633-7.8711-2.8125-4.8711-2.8125-10.875 0-15.746 2.8125-4.8711 8.0078-7.8711 13.633-7.8711h15.746c4.1758 0 8.1797 1.6602 11.133 4.6094 2.9531 2.9531 4.6094 6.957 4.6094 11.133 0 4.3477 3.5273 7.875 7.875 7.875 4.3477 0 7.8711-3.5273 7.8711-7.875 0-8.3516-3.3164-16.359-9.2227-22.266-5.9062-5.9023-13.914-9.2227-22.266-9.2227v-7.8711c0-4.3477-3.5234-7.8711-7.8711-7.8711s-7.875 3.5234-7.875 7.8711v7.8711c-11.25 0-21.645 6.0039-27.27 15.746-5.625 9.7422-5.625 21.746 0 31.488s16.02 15.742 27.27 15.742h15.746c5.625 0 10.82 3.0039 13.633 7.875 2.8125 4.8711 2.8125 10.871 0 15.742s-8.0078 7.8711-13.633 7.8711zm-110.21-39.359c-0.035156 21.168 6.5195 41.816 18.75 59.09 12.234 17.277 29.539 30.316 49.516 37.312 1.9922 0.77344 4.2109 0.70313 6.1523-0.19531 1.9375-0.89453 3.4297-2.543 4.1289-4.5625 0.70312-2.0156 0.55469-4.2344-0.41016-6.1406-0.96875-1.9062-2.668-3.3359-4.707-3.9648-25.879-9.1641-45.879-30.055-53.902-56.309-8.0273-26.254-3.1289-54.758 13.199-76.824 16.328-22.066 42.156-35.086 69.609-35.086 27.449 0 53.277 13.02 69.605 35.086 16.328 22.066 21.227 50.57 13.203 76.824-8.0273 26.254-28.027 47.145-53.902 56.309-3.625 1.2656-5.8047 4.957-5.168 8.7422 0.64062 3.7812 3.9102 6.5547 7.75 6.5625 0.87891-0.003907 1.75-0.15234 2.582-0.44141 23.711-8.375 43.508-25.184 55.617-47.223 12.109-22.039 15.68-47.762 10.031-72.266-5.6484-24.504-20.121-46.07-40.656-60.586-20.539-14.512-45.699-20.953-70.684-18.102-24.98 2.8555-48.039 14.809-64.773 33.582-16.73 18.77-25.969 43.047-25.941 68.191z"/>
 </g>
</svg>