<?xml version="1.0" encoding="UTF-8"?>
<!-- The Best Svg Icon site in the world: iconSvg.co, Visit us! https://iconsvg.co -->
<svg fill="#000000" width="800px" height="800px" version="1.1" viewBox="144 144 512 512" xmlns="http://www.w3.org/2000/svg">
 <g>
  <path d="m539.71 303.66c-1.1875-0.10547-2.4023-0.15625-3.5898-0.15625h-40.137v27.941c6.2539 4.8477 9.8984 12.188 9.8984 20.141 0 14.148-11.523 25.641-25.641 25.641-14.148 0-25.641-11.504-25.641-25.641 0-7.9648 3.6719-15.293 9.8984-20.141v-27.941l-129.01-0.003906v27.941c6.2461 4.8477 9.8867 12.176 9.8867 20.141 0 14.148-11.504 25.641-25.633 25.641-14.129 0-25.633-11.504-25.633-25.641 0-7.9648 3.6523-15.293 9.8867-20.141v-27.941h-40.133c-22.355 0-40.547 18.191-40.547 40.547 0 1.1953 0.050782 2.3945 0.15625 3.6016l22.113 248.93c1.8789 21.074 19.238 36.957 40.398 36.957h228.04c21.141 0 38.5-15.902 40.391-36.957l22.113-248.96c1.9688-22.25-14.551-41.973-36.812-43.965z"/>
  <path d="m490.74 334.2v-76.988c0-50.047-40.715-90.75-90.75-90.75-50.047 0-90.75 40.703-90.75 90.75v76.988c-5.9102 3.5703-9.8867 10.004-9.8867 17.383 0 11.242 9.1406 20.395 20.383 20.395s20.383-9.1523 20.383-20.395c0-7.3789-3.9883-13.812-9.8867-17.383v-76.988c0-38.457 31.289-69.758 69.758-69.758 38.477 0 69.758 31.289 69.758 69.758v76.988c-5.918 3.5703-9.8984 10.004-9.8984 17.383 0 11.242 9.1406 20.395 20.395 20.395 11.23 0 20.395-9.1523 20.395-20.395-0.003907-7.3789-4-13.816-9.8984-17.383z"/>
 </g>
</svg>