<?xml version="1.0" encoding="UTF-8"?>
<!-- The Best Svg Icon site in the world: iconSvg.co, Visit us! https://iconsvg.co -->
<svg fill="#000000" width="800px" height="800px" version="1.1" viewBox="144 144 512 512" xmlns="http://www.w3.org/2000/svg">
 <g>
  <path d="m588.21 480.39c-6.3008-9.0078-19.703-12.348-30.539-7.6211l-29.102 12.004c-22.375-16.793-51.539-26.359-82.855-27.211v-26.398l18.402-10.293c2.2109-1.2383 3.0039-4.0352 1.7695-6.2461-1.2383-2.2109-4.0312-3.0039-6.2461-1.7695l-13.922 7.7852v-112.35c0-2.5352-2.0547-4.5898-4.5898-4.5898s-4.5898 2.0547-4.5898 4.5898v112.86l-14.844-8.3047c-2.2109-1.2344-5.0078-0.44922-6.2461 1.7695-1.2383 2.2109-0.44922 5.0078 1.7695 6.2461l19.32 10.809v25.891c-27.422 0.76953-53.762 8.418-74.887 21.754-11.18-3.3047-26.547-5.2344-42.25-5.2344h-27.609v-7.3047c0-8.1133-6.6016-14.711-14.711-14.711h-14.812v-6.375c0-2.5352-2.0547-4.5898-4.5898-4.5898h-44.707c-2.5352 0-4.5898 2.0547-4.5898 4.5898v164.48c0 2.5352 2.0547 4.5898 4.5898 4.5898h44.703c2.5352 0 4.5898-2.0547 4.5898-4.5898v-8.4492h14.812c8.1133 0 14.711-6.6016 14.711-14.711v-9.3164l118.25 27.438c2.5078 0.55078 5.2891 0.80469 8.1953 0.80469 9.3086 0 19.887-2.6719 26.824-7.1406l136.39-89.531c5.1094-3.2852 8.6797-8.4375 9.8008-14.133 1.0234-5.2266-0.054687-10.469-3.0469-14.746zm-335.13 125.2h-35.523v-155.3h35.523zm29.523-126.96c0 0.015625-0.003907 0.03125-0.003907 0.046875s0.003907 0.03125 0.003907 0.046875v93.062 0.066406 15.164c0 3.0469-2.4844 5.5312-5.5312 5.5312h-14.812v-131.29h14.812c3.0469 0 5.5312 2.4844 5.5312 5.5312zm158.52-11.961c28.988 0 56.156 7.8477 77.434 22.234l-32.578 13.438c-3.0742-8.9688-11.695-15.352-21.82-15.352h-63.625c-7.3711 0-18.367-1.6641-27.129-3.9414 19.633-10.602 43.293-16.379 67.719-16.379zm141.12 26.699c-0.64062 3.2578-2.7422 6.2422-5.793 8.207l-136.4 89.531c-7.0273 4.5234-19.879 6.8398-27.996 5.0742l-120.27-27.906v-85.008h27.609c16.777 0 32.965 2.2656 43.332 6.0664l0.36328 0.14453c0.039062 0.015625 0.082031 0.03125 0.12109 0.046875 9.9688 3.668 26.719 6.6484 37.332 6.6484h63.625c7.4102 0 13.488 5.6055 13.828 12.809 0.011718 0.19141 0.015625 0.38672 0.015625 0.58984 0 0.86328-0.085938 1.6992-0.25781 2.5508-1.2656 6.2773-6.9844 10.832-13.594 10.832h-63.52c-1.8945-0.082032-19.008-0.40234-33.227 11.879-1.918 1.6562-2.1328 4.5547-0.47266 6.4727 0.90625 1.0469 2.1875 1.5859 3.4766 1.5859 1.0625 0 2.1328-0.36719 2.9961-1.1172 11.871-10.258 26.738-9.6641 26.863-9.6562 0.085937 0.003906 0.17188 0.003906 0.25 0.003906h63.625c10.965 0 20.465-7.6523 22.59-18.203 0.14062-0.69531 0.24609-1.4023 0.31641-2.1055l74.145-30.59c0.03125-0.015625 0.058594-0.023438 0.097656-0.039063 6.7422-2.957 15.617-0.91797 19.375 4.457 1.5625 2.2227 2.1133 4.9648 1.5703 7.7266z"/>
  <path d="m370.53 393.68h4.6211c1.8828 0 3.4141 1.5312 3.4141 3.4219 0 1.8828-1.5312 3.4219-3.4141 3.4219h-2.3008-0.011718-0.011719-10.309c-2.5352 0-4.5898 2.0547-4.5898 4.5898s2.0547 4.5898 4.5898 4.5898h5.7266v4.4102c0 2.5352 2.0547 4.5898 4.5898 4.5898 2.5352 0 4.5898-2.0547 4.5898-4.5898v-4.625c5.8594-1.0781 10.316-6.2188 10.316-12.383 0-6.9492-5.6523-12.602-12.594-12.602h-4.6211c-1.8828 0-3.4219-1.5312-3.4219-3.4219 0-1.8828 1.5312-3.4219 3.4219-3.4219h12.629c2.5352 0 4.5898-2.0547 4.5898-4.5898s-2.0547-4.5898-4.5898-4.5898h-5.7266v-4.4102c0-2.5352-2.0547-4.5898-4.5898-4.5898-2.5352 0-4.5898 2.0547-4.5898 4.5898v4.625c-5.8594 1.0781-10.316 6.2188-10.316 12.383-0.003907 6.9492 5.6484 12.602 12.598 12.602z"/>
  <path d="m372.84 433.06c24.25 0 43.977-19.73 43.977-43.977 0-24.25-19.73-43.977-43.977-43.977-24.25 0-43.977 19.73-43.977 43.977-0.003906 24.25 19.727 43.977 43.977 43.977zm0-78.77c19.184 0 34.797 15.609 34.797 34.797 0 19.191-15.609 34.797-34.797 34.797-19.184 0-34.797-15.609-34.797-34.797-0.003907-19.188 15.609-34.797 34.797-34.797z"/>
  <path d="m505.91 377.66h12.629c2.5352 0 4.5898-2.0547 4.5898-4.5898 0-2.5352-2.0547-4.5898-4.5898-4.5898h-5.7266v-4.4102c0-2.5352-2.0547-4.5898-4.5898-4.5898s-4.5898 2.0547-4.5898 4.5898v4.625c-5.8594 1.0781-10.316 6.2188-10.316 12.383 0 6.9492 5.6523 12.602 12.602 12.602h4.6211c1.8828 0 3.4219 1.5312 3.4219 3.4219 0 1.8828-1.5312 3.4219-3.4219 3.4219h-2.3008-0.011719-0.011718-10.312c-2.5352 0-4.5898 2.0547-4.5898 4.5898 0 2.5352 2.0547 4.5898 4.5898 4.5898h5.7266v4.4102c0 2.5352 2.0547 4.5898 4.5898 4.5898s4.5898-2.0547 4.5898-4.5898v-4.625c5.8594-1.0781 10.316-6.2188 10.316-12.383 0-6.9492-5.6523-12.602-12.602-12.602h-4.6211c-1.8828 0-3.4219-1.5312-3.4219-3.4219 0.007813-1.8906 1.5391-3.4219 3.4297-3.4219z"/>
  <path d="m508.22 345.11c-24.25 0-43.977 19.73-43.977 43.977 0 24.25 19.73 43.977 43.977 43.977 24.25 0 43.977-19.73 43.977-43.977 0-24.254-19.73-43.977-43.977-43.977zm0 78.77c-19.184 0-34.797-15.609-34.797-34.797 0-19.191 15.609-34.797 34.797-34.797 19.191 0 34.797 15.609 34.797 34.797 0 19.191-15.613 34.797-34.797 34.797z"/>
  <path d="m333.43 272.08c0.17188 1.4258 4.5195 35.082 30.445 51.602 9.1406 5.8242 19.719 8.7344 31.645 8.7344 9.3164 0 19.453-1.7773 30.355-5.3398 0.035156-0.011719 0.058594-0.03125 0.097656-0.039063 0.066407-0.023437 0.13281-0.039062 0.19531-0.066406 0.035156-0.015625 0.066406-0.035156 0.10156-0.050781 0.14453-0.066407 0.29297-0.13281 0.43359-0.21094 0.035157-0.019531 0.066407-0.046875 0.097657-0.058593 0.023437-0.015626 0.050781-0.035157 0.082031-0.050782 0.058593-0.039062 0.125-0.074218 0.1875-0.12109 0.10156-0.070312 0.20312-0.14453 0.29688-0.22656 0.054687-0.046875 0.11719-0.097656 0.17188-0.14062 0.039062-0.039063 0.085937-0.070313 0.125-0.10938 0.023437-0.023438 0.050781-0.058594 0.082031-0.085938 0.10938-0.11719 0.22266-0.23047 0.32422-0.35937 0.023437-0.035157 0.046875-0.070313 0.070312-0.10156 0.011719-0.015625 0.023438-0.035156 0.035157-0.050781 0.046874-0.066406 0.089843-0.13281 0.13672-0.19531 0.035156-0.050781 0.070313-0.097656 0.10156-0.15234 0.023437-0.039063 0.035156-0.082032 0.054687-0.12109 0.050782-0.089844 0.097656-0.17578 0.14062-0.27344 0.046875-0.10156 0.089844-0.20703 0.13281-0.30859 0.035156-0.085937 0.066406-0.17187 0.097656-0.25781 0.023438-0.085938 0.050781-0.17188 0.074219-0.26172 0.03125-0.10938 0.050781-0.22266 0.070312-0.33594 0.015625-0.089844 0.035157-0.17969 0.046875-0.27734 0.011719-0.089844 0.015625-0.17969 0.019532-0.27734 0.003906-0.10938 0.003906-0.22266 0.003906-0.33203 0-0.097656-0.003906-0.19141-0.011719-0.28125-0.011719-0.10156-0.023437-0.19531-0.039063-0.29688-0.011718-0.054688-0.003906-0.10938-0.015624-0.16797-4.8359-25.699-15.871-43.438-32.793-52.723-26.953-14.785-58.555-2.4141-59.883-1.8789-0.097656 0.039062-0.17578 0.097656-0.26562 0.14062-0.14453 0.070312-0.29297 0.14062-0.42969 0.22266-0.125 0.082031-0.24609 0.17188-0.36719 0.26172-0.11719 0.085937-0.23047 0.17578-0.33594 0.27344-0.11719 0.10547-0.21484 0.22266-0.32422 0.33594-0.089844 0.10547-0.1875 0.21094-0.26562 0.32422-0.089844 0.12109-0.16797 0.25-0.24609 0.38281-0.074219 0.125-0.14453 0.24609-0.20703 0.37891-0.058594 0.13281-0.10938 0.27344-0.16016 0.40625-0.050782 0.14062-0.097656 0.27734-0.13672 0.42188-0.035156 0.14453-0.058594 0.29688-0.082031 0.44922-0.019532 0.14062-0.039063 0.28125-0.050782 0.42969-0.011718 0.16797 0 0.33203 0.011719 0.5-0.023437 0.089844-0.03125 0.1875-0.023437 0.28906zm58.316 5.1055c12.117 6.6445 20.738 18.773 25.734 36.066l-39.383-23.316c-2.1797-1.293-4.9961-0.57031-6.2891 1.6133-1.2891 2.1797-0.57031 4.9961 1.6133 6.2891l39.383 23.316c-17.543 3.9297-32.301 2.2109-43.949-5.1836-17.684-11.234-23.844-32.809-25.66-41.363 8.3594-2.543 30.148-7.5156 48.551 2.5781z"/>
  <path d="m452.08 322.02c-0.015625 0.10156-0.03125 0.20312-0.039063 0.29687-0.011718 0.097657-0.011718 0.19141-0.011718 0.28125-0.003906 0.10938-0.003906 0.22266 0.003906 0.33203 0.003906 0.089844 0.011719 0.1875 0.019531 0.27734 0.011719 0.089843 0.023438 0.17969 0.046875 0.27734 0.019532 0.10938 0.039063 0.22266 0.066406 0.33203 0.019532 0.089844 0.046876 0.17578 0.074219 0.26172 0.023438 0.085938 0.058594 0.17188 0.097657 0.25781 0.039062 0.10547 0.082031 0.20703 0.13281 0.30859 0.046875 0.089843 0.089844 0.17969 0.14062 0.27344 0.019531 0.039063 0.035156 0.082031 0.054687 0.12109 0.03125 0.050781 0.070313 0.10156 0.10156 0.15234 0.046875 0.066407 0.085937 0.13281 0.13672 0.19531 0.015625 0.015625 0.023437 0.035156 0.035156 0.054687 0.023438 0.035157 0.046875 0.070313 0.070312 0.10156 0.10156 0.13281 0.21094 0.24609 0.32422 0.36328 0.023438 0.023438 0.046875 0.054688 0.070313 0.082032 0.039062 0.039062 0.085937 0.074218 0.13281 0.11719 0.054688 0.050781 0.10938 0.097656 0.16797 0.14062 0.10156 0.082031 0.19531 0.15625 0.30078 0.23047 0.054688 0.039062 0.11719 0.074219 0.17578 0.11719 0.03125 0.019532 0.054687 0.035156 0.085937 0.054688 0.03125 0.019531 0.058594 0.039062 0.097656 0.058594 0.14062 0.082031 0.29297 0.14453 0.4375 0.21094 0.035157 0.015625 0.058594 0.03125 0.097657 0.046875 0.066406 0.023438 0.13281 0.046875 0.19531 0.066406 0.035156 0.011719 0.058594 0.03125 0.097656 0.039063 10.902 3.5625 21.039 5.3398 30.355 5.3398 11.922 0 22.504-2.918 31.645-8.7344 25.922-16.52 30.273-50.176 30.445-51.602 0.011719-0.10156 0-0.19141 0.003906-0.29297 0.011719-0.16797 0.019531-0.33203 0.011719-0.5-0.003906-0.14062-0.03125-0.28125-0.050782-0.42188-0.019531-0.15234-0.046874-0.30078-0.082031-0.45312-0.035156-0.14062-0.085937-0.27734-0.13281-0.41797-0.050781-0.14063-0.10156-0.28125-0.16797-0.41797-0.058594-0.125-0.13281-0.24609-0.20312-0.36719-0.082031-0.13672-0.16016-0.27344-0.25781-0.39844-0.074218-0.10547-0.16016-0.20312-0.24609-0.29688-0.10938-0.125-0.22266-0.24609-0.34375-0.36328-0.097657-0.085938-0.19531-0.16797-0.30078-0.24609-0.13281-0.10156-0.26172-0.20312-0.40625-0.28906-0.11719-0.070312-0.24609-0.13281-0.37109-0.19141-0.10547-0.050781-0.20312-0.12109-0.3125-0.16016-1.3281-0.53516-32.93-12.906-59.883 1.8789-16.922 9.2852-27.957 27.023-32.793 52.723-0.019531 0.050781-0.015624 0.10547-0.023437 0.16016zm37.172-44.809c18.344-10.098 40.219-5.1328 48.598-2.6055-1.8125 8.5664-7.9805 30.129-25.652 41.359-11.648 7.4023-26.406 9.1172-43.953 5.1875l39.383-23.316c2.1797-1.2891 2.9023-4.1055 1.6133-6.2891-1.2891-2.1797-4.1094-2.9023-6.2891-1.6133l-39.379 23.316c4.9883-17.273 13.59-29.383 25.68-36.039z"/>
  <path d="m437.15 293.8c0.058593 0.050781 0.125 0.089844 0.1875 0.13672 0.070312 0.058594 0.14062 0.12109 0.21484 0.17578 0.054688 0.039063 0.10938 0.074219 0.17188 0.10938 0.13281 0.085938 0.26562 0.15625 0.40625 0.22656 0.082032 0.039062 0.15234 0.089843 0.23047 0.125 0.039063 0.015625 0.082031 0.023437 0.11719 0.046875 0.17578 0.070312 0.35156 0.12109 0.53516 0.17188 0.023437 0.003906 0.050781 0.019531 0.074219 0.023437 0.074218 0.019532 0.14453 0.039063 0.21484 0.054688 0.25781 0.050781 0.51562 0.074218 0.77734 0.082031 0.03125 0 0.054687 0.011719 0.085937 0.011719h0.015626 0.015624c0.29297 0 0.58594-0.035156 0.87109-0.089844 0.019532-0.003906 0.039063-0.003906 0.054688-0.003906 0.066406-0.015625 0.125-0.046875 0.19141-0.058594 0.19141-0.050781 0.38281-0.10156 0.57031-0.17578 0.039063-0.015625 0.082032-0.023438 0.11719-0.046875 0.074219-0.03125 0.14062-0.074219 0.21094-0.10938 0.14453-0.070313 0.28906-0.14453 0.42187-0.23047 0.054688-0.035156 0.11719-0.070312 0.17188-0.10938 0.070312-0.046875 0.13281-0.10547 0.19531-0.15625 0.058594-0.050781 0.13281-0.085937 0.19141-0.13672 19.766-17.125 29.527-35.594 29.02-54.895-0.8125-30.727-27.418-51.793-28.551-52.672-0.074218-0.058594-0.16016-0.097656-0.23828-0.15234-0.14062-0.097656-0.28125-0.19141-0.43359-0.27344-0.125-0.066407-0.25781-0.12109-0.38672-0.17578-0.14062-0.058594-0.28125-0.11719-0.42969-0.16016-0.14062-0.046875-0.28906-0.074219-0.43359-0.10156-0.14062-0.03125-0.28125-0.054688-0.42969-0.070313-0.14453-0.015625-0.29297-0.015625-0.4375-0.019531-0.15234 0-0.29688 0-0.44922 0.015625-0.14062 0.015625-0.27734 0.035156-0.41797 0.066406-0.15234 0.023438-0.30078 0.054688-0.44922 0.10156-0.14063 0.039062-0.27344 0.097656-0.40625 0.15234-0.13672 0.054688-0.27734 0.10938-0.40625 0.17969-0.14063 0.074219-0.27344 0.16016-0.40625 0.25-0.085938 0.054688-0.17578 0.097656-0.25781 0.15625-1.1445 0.86719-28.027 21.578-29.23 52.297-0.75781 19.281 8.7656 37.871 28.301 55.254zm-19.129-54.84c0.79688-20.934 16.324-37.129 22.801-43.004 6.3984 5.9336 21.676 22.25 22.227 43.238 0.36328 13.824-5.75 27.391-18.188 40.43l0.29688-45.793c0.015625-2.5352-2.0234-4.6055-4.5586-4.6211h-0.03125c-2.5195 0-4.5742 2.0352-4.5898 4.5586l-0.29687 45.793c-12.25-13.18-18.184-26.801-17.66-40.602z"/>
 </g>
</svg>