<?xml version="1.0" encoding="UTF-8"?>
<!-- The Best Svg Icon site in the world: iconSvg.co, Visit us! https://iconsvg.co -->
<svg fill="#000000" width="800px" height="800px" version="1.1" viewBox="144 144 512 512" xmlns="http://www.w3.org/2000/svg">
 <g>
  <path d="m588.93 200.57h-377.86c-5.7969 0-10.496 4.6992-10.496 10.496v335.87c0 2.7852 1.1055 5.4531 3.0742 7.4219s4.6367 3.0742 7.4219 3.0742h20.992v31.488c0 2.7852 1.1055 5.4531 3.0742 7.4219s4.6367 3.0742 7.4219 3.0742h62.977c2.7812 0 5.4531-1.1055 7.4219-3.0742s3.0742-4.6367 3.0742-7.4219v-31.488h167.93v31.488c0 2.7852 1.1094 5.4531 3.0742 7.4219 1.9688 1.9688 4.6406 3.0742 7.4219 3.0742h62.977c2.7852 0 5.4531-1.1055 7.4219-3.0742s3.0742-4.6367 3.0742-7.4219v-31.488h20.992c2.7852 0 5.4531-1.1055 7.4219-3.0742s3.0742-4.6367 3.0742-7.4219v-335.87c0-2.7852-1.1055-5.4531-3.0742-7.4219s-4.6367-3.0742-7.4219-3.0742zm-293.89 377.86h-41.984v-20.992h41.984zm251.91 0h-41.988v-20.992h41.984zm31.488-41.984h-356.87v-314.88h356.86z"/>
  <path d="m253.05 515.45h293.89c2.7852 0 5.4531-1.1055 7.4219-3.0742 1.9688-1.9648 3.0742-4.6367 3.0742-7.4219v-251.9c0-2.7852-1.1055-5.4531-3.0742-7.4219s-4.6367-3.0742-7.4219-3.0742h-293.89c-5.7969 0-10.496 4.6992-10.496 10.496v251.9c0 2.7852 1.1055 5.457 3.0742 7.4219 1.9688 1.9688 4.6367 3.0742 7.4219 3.0742zm10.496-251.91 272.89 0.003906v230.91h-272.89z"/>
  <path d="m400 295.04c-22.27 0-43.629 8.8477-59.375 24.594-15.75 15.746-24.594 37.105-24.594 59.375 0 22.27 8.8438 43.625 24.594 59.375 15.746 15.746 37.105 24.594 59.375 24.594s43.625-8.8477 59.371-24.594c15.75-15.75 24.594-37.105 24.594-59.375 0-22.27-8.8438-43.629-24.594-59.375-15.746-15.746-37.102-24.594-59.371-24.594zm51.324 120.39-15.324-15.43c1.957-3.2891 3.4727-6.8164 4.5117-10.496h21.52c-1.5742 9.3359-5.2344 18.195-10.707 25.922zm-113.36-25.926h21.516c1.0391 3.6797 2.5547 7.207 4.5117 10.496l-15.324 15.219c-5.4414-7.668-9.1016-16.453-10.703-25.715zm10.496-46.918 15.531 15.43c-1.957 3.2852-3.4727 6.8125-4.5117 10.496h-21.516c1.5742-9.3398 5.2305-18.199 10.703-25.926zm51.535 57.414c-5.5703 0-10.91-2.2148-14.844-6.1484-3.9375-3.9375-6.1484-9.2773-6.1484-14.844 0-5.5703 2.2109-10.91 6.1484-14.844 3.9336-3.9375 9.2734-6.1484 14.844-6.1484 5.5664 0 10.906 2.2109 14.844 6.1484 3.9336 3.9336 6.1484 9.2734 6.1484 14.844 0 5.5664-2.2148 10.906-6.1484 14.844-3.9375 3.9336-9.2773 6.1484-14.844 6.1484zm20.992-56.992v-0.003906c-3.2891-1.957-6.8164-3.4727-10.496-4.5117v-21.516c9.3164 1.5078 18.18 5.0977 25.922 10.496zm-31.488-4.5117v-0.003906c-3.6836 1.0391-7.2109 2.5547-10.496 4.5117l-15.219-15.324c7.7422-5.3984 16.605-8.9844 25.922-10.496zm-10.496 76.516v-0.003907c3.2852 1.957 6.8125 3.4727 10.496 4.5117v21.52c-9.3203-1.5117-18.18-5.0977-25.926-10.496zm31.488 4.5117v-0.003907c3.6797-1.0391 7.207-2.5547 10.496-4.5117l15.219 15.324c-7.7461 5.3984-16.605 8.9844-25.926 10.496zm30.016-51.012c-1.0391-3.6836-2.5547-7.2109-4.5117-10.496l15.324-15.219c5.3984 7.7422 8.9844 16.605 10.496 25.922z"/>
 </g>
</svg>